<?xml version="1.0" encoding="utf-8" standalone="no"?>
<!DOCTYPE svg PUBLIC "-//W3C//DTD SVG 1.1//EN"
  "http://www.w3.org/Graphics/SVG/1.1/DTD/svg11.dtd">
<svg height="288pt" version="1.1" viewBox="0 0 432 288" width="432pt" xmlns="http://www.w3.org/2000/svg" xmlns:xlink="http://www.w3.org/1999/xlink">
 <metadata>
  <rdf:RDF xmlns:cc="http://creativecommons.org/ns#" xmlns:dc="http://purl.org/dc/elements/1.1/" xmlns:rdf="http://www.w3.org/1999/02/22-rdf-syntax-ns#">
   <cc:Work>
    <dc:type rdf:resource="http://purl.org/dc/dcmitype/StillImage"/>
    <dc:date>2021-07-05T15:15:03.672148</dc:date>
    <dc:format>image/svg+xml</dc:format>
    <dc:creator>
     <cc:Agent>
      <dc:title>Matplotlib v3.4.1, https://matplotlib.org/</dc:title>
     </cc:Agent>
    </dc:creator>
   </cc:Work>
  </rdf:RDF>
 </metadata>
 <defs>
  <style type="text/css">*{stroke-linecap:butt;stroke-linejoin:round;}</style>
 </defs>
 <g id="figure_1">
  <g id="patch_1">
   <path d="M 0 288 
L 432 288 
L 432 0 
L 0 0 
z
" style="fill:none;"/>
  </g>
  <g id="axes_1">
   <g id="patch_2">
    <path d="M 54 252 
L 388.8 252 
L 388.8 34.56 
L 54 34.56 
z
" style="fill:#ffffff;"/>
   </g>
   <g id="matplotlib.axis_1">
    <g id="xtick_1">
     <g id="line2d_1">
      <defs>
       <path d="M 0 0 
L 0 3.5 
" id="ma6f6b104a4" style="stroke:#000000;stroke-width:0.8;"/>
      </defs>
      <g>
       <use style="stroke:#000000;stroke-width:0.8;" x="65.365478" xlink:href="#ma6f6b104a4" y="252"/>
      </g>
     </g>
     <g id="text_1">
      <!-- 0 -->
      <g transform="translate(61.547978 268.118125)scale(0.12 -0.12)">
       <defs>
        <path d="M 2034 4250 
Q 1547 4250 1301 3770 
Q 1056 3291 1056 2328 
Q 1056 1369 1301 889 
Q 1547 409 2034 409 
Q 2525 409 2770 889 
Q 3016 1369 3016 2328 
Q 3016 3291 2770 3770 
Q 2525 4250 2034 4250 
z
M 2034 4750 
Q 2819 4750 3233 4129 
Q 3647 3509 3647 2328 
Q 3647 1150 3233 529 
Q 2819 -91 2034 -91 
Q 1250 -91 836 529 
Q 422 1150 422 2328 
Q 422 3509 836 4129 
Q 1250 4750 2034 4750 
z
" id="DejaVuSans-30" transform="scale(0.015625)"/>
       </defs>
       <use xlink:href="#DejaVuSans-30"/>
      </g>
     </g>
    </g>
    <g id="xtick_2">
     <g id="line2d_2">
      <g>
       <use style="stroke:#000000;stroke-width:0.8;" x="103.89252" xlink:href="#ma6f6b104a4" y="252"/>
      </g>
     </g>
     <g id="text_2">
      <!-- 500 -->
      <g transform="translate(92.44002 268.118125)scale(0.12 -0.12)">
       <defs>
        <path d="M 691 4666 
L 3169 4666 
L 3169 4134 
L 1269 4134 
L 1269 2991 
Q 1406 3038 1543 3061 
Q 1681 3084 1819 3084 
Q 2600 3084 3056 2656 
Q 3513 2228 3513 1497 
Q 3513 744 3044 326 
Q 2575 -91 1722 -91 
Q 1428 -91 1123 -41 
Q 819 9 494 109 
L 494 744 
Q 775 591 1075 516 
Q 1375 441 1709 441 
Q 2250 441 2565 725 
Q 2881 1009 2881 1497 
Q 2881 1984 2565 2268 
Q 2250 2553 1709 2553 
Q 1456 2553 1204 2497 
Q 953 2441 691 2322 
L 691 4666 
z
" id="DejaVuSans-35" transform="scale(0.015625)"/>
       </defs>
       <use xlink:href="#DejaVuSans-35"/>
       <use x="63.623047" xlink:href="#DejaVuSans-30"/>
       <use x="127.246094" xlink:href="#DejaVuSans-30"/>
      </g>
     </g>
    </g>
    <g id="xtick_3">
     <g id="line2d_3">
      <g>
       <use style="stroke:#000000;stroke-width:0.8;" x="142.419563" xlink:href="#ma6f6b104a4" y="252"/>
      </g>
     </g>
     <g id="text_3">
      <!-- 1000 -->
      <g transform="translate(127.149563 268.118125)scale(0.12 -0.12)">
       <defs>
        <path d="M 794 531 
L 1825 531 
L 1825 4091 
L 703 3866 
L 703 4441 
L 1819 4666 
L 2450 4666 
L 2450 531 
L 3481 531 
L 3481 0 
L 794 0 
L 794 531 
z
" id="DejaVuSans-31" transform="scale(0.015625)"/>
       </defs>
       <use xlink:href="#DejaVuSans-31"/>
       <use x="63.623047" xlink:href="#DejaVuSans-30"/>
       <use x="127.246094" xlink:href="#DejaVuSans-30"/>
       <use x="190.869141" xlink:href="#DejaVuSans-30"/>
      </g>
     </g>
    </g>
    <g id="xtick_4">
     <g id="line2d_4">
      <g>
       <use style="stroke:#000000;stroke-width:0.8;" x="180.946605" xlink:href="#ma6f6b104a4" y="252"/>
      </g>
     </g>
     <g id="text_4">
      <!-- 1500 -->
      <g transform="translate(165.676605 268.118125)scale(0.12 -0.12)">
       <use xlink:href="#DejaVuSans-31"/>
       <use x="63.623047" xlink:href="#DejaVuSans-35"/>
       <use x="127.246094" xlink:href="#DejaVuSans-30"/>
       <use x="190.869141" xlink:href="#DejaVuSans-30"/>
      </g>
     </g>
    </g>
    <g id="xtick_5">
     <g id="line2d_5">
      <g>
       <use style="stroke:#000000;stroke-width:0.8;" x="219.473648" xlink:href="#ma6f6b104a4" y="252"/>
      </g>
     </g>
     <g id="text_5">
      <!-- 2000 -->
      <g transform="translate(204.203648 268.118125)scale(0.12 -0.12)">
       <defs>
        <path d="M 1228 531 
L 3431 531 
L 3431 0 
L 469 0 
L 469 531 
Q 828 903 1448 1529 
Q 2069 2156 2228 2338 
Q 2531 2678 2651 2914 
Q 2772 3150 2772 3378 
Q 2772 3750 2511 3984 
Q 2250 4219 1831 4219 
Q 1534 4219 1204 4116 
Q 875 4013 500 3803 
L 500 4441 
Q 881 4594 1212 4672 
Q 1544 4750 1819 4750 
Q 2544 4750 2975 4387 
Q 3406 4025 3406 3419 
Q 3406 3131 3298 2873 
Q 3191 2616 2906 2266 
Q 2828 2175 2409 1742 
Q 1991 1309 1228 531 
z
" id="DejaVuSans-32" transform="scale(0.015625)"/>
       </defs>
       <use xlink:href="#DejaVuSans-32"/>
       <use x="63.623047" xlink:href="#DejaVuSans-30"/>
       <use x="127.246094" xlink:href="#DejaVuSans-30"/>
       <use x="190.869141" xlink:href="#DejaVuSans-30"/>
      </g>
     </g>
    </g>
    <g id="xtick_6">
     <g id="line2d_6">
      <g>
       <use style="stroke:#000000;stroke-width:0.8;" x="258.00069" xlink:href="#ma6f6b104a4" y="252"/>
      </g>
     </g>
     <g id="text_6">
      <!-- 2500 -->
      <g transform="translate(242.73069 268.118125)scale(0.12 -0.12)">
       <use xlink:href="#DejaVuSans-32"/>
       <use x="63.623047" xlink:href="#DejaVuSans-35"/>
       <use x="127.246094" xlink:href="#DejaVuSans-30"/>
       <use x="190.869141" xlink:href="#DejaVuSans-30"/>
      </g>
     </g>
    </g>
    <g id="xtick_7">
     <g id="line2d_7">
      <g>
       <use style="stroke:#000000;stroke-width:0.8;" x="296.527733" xlink:href="#ma6f6b104a4" y="252"/>
      </g>
     </g>
     <g id="text_7">
      <!-- 3000 -->
      <g transform="translate(281.257733 268.118125)scale(0.12 -0.12)">
       <defs>
        <path d="M 2597 2516 
Q 3050 2419 3304 2112 
Q 3559 1806 3559 1356 
Q 3559 666 3084 287 
Q 2609 -91 1734 -91 
Q 1441 -91 1130 -33 
Q 819 25 488 141 
L 488 750 
Q 750 597 1062 519 
Q 1375 441 1716 441 
Q 2309 441 2620 675 
Q 2931 909 2931 1356 
Q 2931 1769 2642 2001 
Q 2353 2234 1838 2234 
L 1294 2234 
L 1294 2753 
L 1863 2753 
Q 2328 2753 2575 2939 
Q 2822 3125 2822 3475 
Q 2822 3834 2567 4026 
Q 2313 4219 1838 4219 
Q 1578 4219 1281 4162 
Q 984 4106 628 3988 
L 628 4550 
Q 988 4650 1302 4700 
Q 1616 4750 1894 4750 
Q 2613 4750 3031 4423 
Q 3450 4097 3450 3541 
Q 3450 3153 3228 2886 
Q 3006 2619 2597 2516 
z
" id="DejaVuSans-33" transform="scale(0.015625)"/>
       </defs>
       <use xlink:href="#DejaVuSans-33"/>
       <use x="63.623047" xlink:href="#DejaVuSans-30"/>
       <use x="127.246094" xlink:href="#DejaVuSans-30"/>
       <use x="190.869141" xlink:href="#DejaVuSans-30"/>
      </g>
     </g>
    </g>
    <g id="xtick_8">
     <g id="line2d_8">
      <g>
       <use style="stroke:#000000;stroke-width:0.8;" x="335.054776" xlink:href="#ma6f6b104a4" y="252"/>
      </g>
     </g>
     <g id="text_8">
      <!-- 3500 -->
      <g transform="translate(319.784776 268.118125)scale(0.12 -0.12)">
       <use xlink:href="#DejaVuSans-33"/>
       <use x="63.623047" xlink:href="#DejaVuSans-35"/>
       <use x="127.246094" xlink:href="#DejaVuSans-30"/>
       <use x="190.869141" xlink:href="#DejaVuSans-30"/>
      </g>
     </g>
    </g>
    <g id="xtick_9">
     <g id="line2d_9">
      <g>
       <use style="stroke:#000000;stroke-width:0.8;" x="373.581818" xlink:href="#ma6f6b104a4" y="252"/>
      </g>
     </g>
     <g id="text_9">
      <!-- 4000 -->
      <g transform="translate(358.311818 268.118125)scale(0.12 -0.12)">
       <defs>
        <path d="M 2419 4116 
L 825 1625 
L 2419 1625 
L 2419 4116 
z
M 2253 4666 
L 3047 4666 
L 3047 1625 
L 3713 1625 
L 3713 1100 
L 3047 1100 
L 3047 0 
L 2419 0 
L 2419 1100 
L 313 1100 
L 313 1709 
L 2253 4666 
z
" id="DejaVuSans-34" transform="scale(0.015625)"/>
       </defs>
       <use xlink:href="#DejaVuSans-34"/>
       <use x="63.623047" xlink:href="#DejaVuSans-30"/>
       <use x="127.246094" xlink:href="#DejaVuSans-30"/>
       <use x="190.869141" xlink:href="#DejaVuSans-30"/>
      </g>
     </g>
    </g>
    <g id="text_10">
     <!-- Time(ms) -->
     <g transform="translate(193.067813 283.731875)scale(0.12 -0.12)">
      <defs>
       <path d="M -19 4666 
L 3928 4666 
L 3928 4134 
L 2272 4134 
L 2272 0 
L 1638 0 
L 1638 4134 
L -19 4134 
L -19 4666 
z
" id="DejaVuSans-54" transform="scale(0.015625)"/>
       <path d="M 603 3500 
L 1178 3500 
L 1178 0 
L 603 0 
L 603 3500 
z
M 603 4863 
L 1178 4863 
L 1178 4134 
L 603 4134 
L 603 4863 
z
" id="DejaVuSans-69" transform="scale(0.015625)"/>
       <path d="M 3328 2828 
Q 3544 3216 3844 3400 
Q 4144 3584 4550 3584 
Q 5097 3584 5394 3201 
Q 5691 2819 5691 2113 
L 5691 0 
L 5113 0 
L 5113 2094 
Q 5113 2597 4934 2840 
Q 4756 3084 4391 3084 
Q 3944 3084 3684 2787 
Q 3425 2491 3425 1978 
L 3425 0 
L 2847 0 
L 2847 2094 
Q 2847 2600 2669 2842 
Q 2491 3084 2119 3084 
Q 1678 3084 1418 2786 
Q 1159 2488 1159 1978 
L 1159 0 
L 581 0 
L 581 3500 
L 1159 3500 
L 1159 2956 
Q 1356 3278 1631 3431 
Q 1906 3584 2284 3584 
Q 2666 3584 2933 3390 
Q 3200 3197 3328 2828 
z
" id="DejaVuSans-6d" transform="scale(0.015625)"/>
       <path d="M 3597 1894 
L 3597 1613 
L 953 1613 
Q 991 1019 1311 708 
Q 1631 397 2203 397 
Q 2534 397 2845 478 
Q 3156 559 3463 722 
L 3463 178 
Q 3153 47 2828 -22 
Q 2503 -91 2169 -91 
Q 1331 -91 842 396 
Q 353 884 353 1716 
Q 353 2575 817 3079 
Q 1281 3584 2069 3584 
Q 2775 3584 3186 3129 
Q 3597 2675 3597 1894 
z
M 3022 2063 
Q 3016 2534 2758 2815 
Q 2500 3097 2075 3097 
Q 1594 3097 1305 2825 
Q 1016 2553 972 2059 
L 3022 2063 
z
" id="DejaVuSans-65" transform="scale(0.015625)"/>
       <path d="M 1984 4856 
Q 1566 4138 1362 3434 
Q 1159 2731 1159 2009 
Q 1159 1288 1364 580 
Q 1569 -128 1984 -844 
L 1484 -844 
Q 1016 -109 783 600 
Q 550 1309 550 2009 
Q 550 2706 781 3412 
Q 1013 4119 1484 4856 
L 1984 4856 
z
" id="DejaVuSans-28" transform="scale(0.015625)"/>
       <path d="M 2834 3397 
L 2834 2853 
Q 2591 2978 2328 3040 
Q 2066 3103 1784 3103 
Q 1356 3103 1142 2972 
Q 928 2841 928 2578 
Q 928 2378 1081 2264 
Q 1234 2150 1697 2047 
L 1894 2003 
Q 2506 1872 2764 1633 
Q 3022 1394 3022 966 
Q 3022 478 2636 193 
Q 2250 -91 1575 -91 
Q 1294 -91 989 -36 
Q 684 19 347 128 
L 347 722 
Q 666 556 975 473 
Q 1284 391 1588 391 
Q 1994 391 2212 530 
Q 2431 669 2431 922 
Q 2431 1156 2273 1281 
Q 2116 1406 1581 1522 
L 1381 1569 
Q 847 1681 609 1914 
Q 372 2147 372 2553 
Q 372 3047 722 3315 
Q 1072 3584 1716 3584 
Q 2034 3584 2315 3537 
Q 2597 3491 2834 3397 
z
" id="DejaVuSans-73" transform="scale(0.015625)"/>
       <path d="M 513 4856 
L 1013 4856 
Q 1481 4119 1714 3412 
Q 1947 2706 1947 2009 
Q 1947 1309 1714 600 
Q 1481 -109 1013 -844 
L 513 -844 
Q 928 -128 1133 580 
Q 1338 1288 1338 2009 
Q 1338 2731 1133 3434 
Q 928 4138 513 4856 
z
" id="DejaVuSans-29" transform="scale(0.015625)"/>
      </defs>
      <use xlink:href="#DejaVuSans-54"/>
      <use x="57.958984" xlink:href="#DejaVuSans-69"/>
      <use x="85.742188" xlink:href="#DejaVuSans-6d"/>
      <use x="183.154297" xlink:href="#DejaVuSans-65"/>
      <use x="244.677734" xlink:href="#DejaVuSans-28"/>
      <use x="283.691406" xlink:href="#DejaVuSans-6d"/>
      <use x="381.103516" xlink:href="#DejaVuSans-73"/>
      <use x="433.203125" xlink:href="#DejaVuSans-29"/>
     </g>
    </g>
   </g>
   <g id="matplotlib.axis_2">
    <g id="ytick_1">
     <g id="line2d_10">
      <defs>
       <path d="M 0 0 
L -3.5 0 
" id="me6a3e8e9e8" style="stroke:#000000;stroke-width:0.8;"/>
      </defs>
      <g>
       <use style="stroke:#000000;stroke-width:0.8;" x="54" xlink:href="#me6a3e8e9e8" y="237.504"/>
      </g>
     </g>
     <g id="text_11">
      <!-- -100 -->
      <g transform="translate(19.765625 242.063063)scale(0.12 -0.12)">
       <defs>
        <path d="M 313 2009 
L 1997 2009 
L 1997 1497 
L 313 1497 
L 313 2009 
z
" id="DejaVuSans-2d" transform="scale(0.015625)"/>
       </defs>
       <use xlink:href="#DejaVuSans-2d"/>
       <use x="36.083984" xlink:href="#DejaVuSans-31"/>
       <use x="99.707031" xlink:href="#DejaVuSans-30"/>
       <use x="163.330078" xlink:href="#DejaVuSans-30"/>
      </g>
     </g>
    </g>
    <g id="ytick_2">
     <g id="line2d_11">
      <g>
       <use style="stroke:#000000;stroke-width:0.8;" x="54" xlink:href="#me6a3e8e9e8" y="208.512"/>
      </g>
     </g>
     <g id="text_12">
      <!-- -80 -->
      <g transform="translate(27.400625 213.071062)scale(0.12 -0.12)">
       <defs>
        <path d="M 2034 2216 
Q 1584 2216 1326 1975 
Q 1069 1734 1069 1313 
Q 1069 891 1326 650 
Q 1584 409 2034 409 
Q 2484 409 2743 651 
Q 3003 894 3003 1313 
Q 3003 1734 2745 1975 
Q 2488 2216 2034 2216 
z
M 1403 2484 
Q 997 2584 770 2862 
Q 544 3141 544 3541 
Q 544 4100 942 4425 
Q 1341 4750 2034 4750 
Q 2731 4750 3128 4425 
Q 3525 4100 3525 3541 
Q 3525 3141 3298 2862 
Q 3072 2584 2669 2484 
Q 3125 2378 3379 2068 
Q 3634 1759 3634 1313 
Q 3634 634 3220 271 
Q 2806 -91 2034 -91 
Q 1263 -91 848 271 
Q 434 634 434 1313 
Q 434 1759 690 2068 
Q 947 2378 1403 2484 
z
M 1172 3481 
Q 1172 3119 1398 2916 
Q 1625 2713 2034 2713 
Q 2441 2713 2670 2916 
Q 2900 3119 2900 3481 
Q 2900 3844 2670 4047 
Q 2441 4250 2034 4250 
Q 1625 4250 1398 4047 
Q 1172 3844 1172 3481 
z
" id="DejaVuSans-38" transform="scale(0.015625)"/>
       </defs>
       <use xlink:href="#DejaVuSans-2d"/>
       <use x="36.083984" xlink:href="#DejaVuSans-38"/>
       <use x="99.707031" xlink:href="#DejaVuSans-30"/>
      </g>
     </g>
    </g>
    <g id="ytick_3">
     <g id="line2d_12">
      <g>
       <use style="stroke:#000000;stroke-width:0.8;" x="54" xlink:href="#me6a3e8e9e8" y="179.52"/>
      </g>
     </g>
     <g id="text_13">
      <!-- -60 -->
      <g transform="translate(27.400625 184.079062)scale(0.12 -0.12)">
       <defs>
        <path d="M 2113 2584 
Q 1688 2584 1439 2293 
Q 1191 2003 1191 1497 
Q 1191 994 1439 701 
Q 1688 409 2113 409 
Q 2538 409 2786 701 
Q 3034 994 3034 1497 
Q 3034 2003 2786 2293 
Q 2538 2584 2113 2584 
z
M 3366 4563 
L 3366 3988 
Q 3128 4100 2886 4159 
Q 2644 4219 2406 4219 
Q 1781 4219 1451 3797 
Q 1122 3375 1075 2522 
Q 1259 2794 1537 2939 
Q 1816 3084 2150 3084 
Q 2853 3084 3261 2657 
Q 3669 2231 3669 1497 
Q 3669 778 3244 343 
Q 2819 -91 2113 -91 
Q 1303 -91 875 529 
Q 447 1150 447 2328 
Q 447 3434 972 4092 
Q 1497 4750 2381 4750 
Q 2619 4750 2861 4703 
Q 3103 4656 3366 4563 
z
" id="DejaVuSans-36" transform="scale(0.015625)"/>
       </defs>
       <use xlink:href="#DejaVuSans-2d"/>
       <use x="36.083984" xlink:href="#DejaVuSans-36"/>
       <use x="99.707031" xlink:href="#DejaVuSans-30"/>
      </g>
     </g>
    </g>
    <g id="ytick_4">
     <g id="line2d_13">
      <g>
       <use style="stroke:#000000;stroke-width:0.8;" x="54" xlink:href="#me6a3e8e9e8" y="150.528"/>
      </g>
     </g>
     <g id="text_14">
      <!-- -40 -->
      <g transform="translate(27.400625 155.087063)scale(0.12 -0.12)">
       <use xlink:href="#DejaVuSans-2d"/>
       <use x="36.083984" xlink:href="#DejaVuSans-34"/>
       <use x="99.707031" xlink:href="#DejaVuSans-30"/>
      </g>
     </g>
    </g>
    <g id="ytick_5">
     <g id="line2d_14">
      <g>
       <use style="stroke:#000000;stroke-width:0.8;" x="54" xlink:href="#me6a3e8e9e8" y="121.536"/>
      </g>
     </g>
     <g id="text_15">
      <!-- -20 -->
      <g transform="translate(27.400625 126.095062)scale(0.12 -0.12)">
       <use xlink:href="#DejaVuSans-2d"/>
       <use x="36.083984" xlink:href="#DejaVuSans-32"/>
       <use x="99.707031" xlink:href="#DejaVuSans-30"/>
      </g>
     </g>
    </g>
    <g id="ytick_6">
     <g id="line2d_15">
      <g>
       <use style="stroke:#000000;stroke-width:0.8;" x="54" xlink:href="#me6a3e8e9e8" y="92.544"/>
      </g>
     </g>
     <g id="text_16">
      <!-- 0 -->
      <g transform="translate(39.365 97.103062)scale(0.12 -0.12)">
       <use xlink:href="#DejaVuSans-30"/>
      </g>
     </g>
    </g>
    <g id="ytick_7">
     <g id="line2d_16">
      <g>
       <use style="stroke:#000000;stroke-width:0.8;" x="54" xlink:href="#me6a3e8e9e8" y="63.552"/>
      </g>
     </g>
     <g id="text_17">
      <!-- 20 -->
      <g transform="translate(31.73 68.111063)scale(0.12 -0.12)">
       <use xlink:href="#DejaVuSans-32"/>
       <use x="63.623047" xlink:href="#DejaVuSans-30"/>
      </g>
     </g>
    </g>
    <g id="ytick_8">
     <g id="line2d_17">
      <g>
       <use style="stroke:#000000;stroke-width:0.8;" x="54" xlink:href="#me6a3e8e9e8" y="34.56"/>
      </g>
     </g>
     <g id="text_18">
      <!-- 40 -->
      <g transform="translate(31.73 39.119062)scale(0.12 -0.12)">
       <use xlink:href="#DejaVuSans-34"/>
       <use x="63.623047" xlink:href="#DejaVuSans-30"/>
      </g>
     </g>
    </g>
    <g id="text_19">
     <!-- Membrane potential (mV) -->
     <g transform="translate(13.27 220.574062)rotate(-90)scale(0.12 -0.12)">
      <defs>
       <path d="M 628 4666 
L 1569 4666 
L 2759 1491 
L 3956 4666 
L 4897 4666 
L 4897 0 
L 4281 0 
L 4281 4097 
L 3078 897 
L 2444 897 
L 1241 4097 
L 1241 0 
L 628 0 
L 628 4666 
z
" id="DejaVuSans-4d" transform="scale(0.015625)"/>
       <path d="M 3116 1747 
Q 3116 2381 2855 2742 
Q 2594 3103 2138 3103 
Q 1681 3103 1420 2742 
Q 1159 2381 1159 1747 
Q 1159 1113 1420 752 
Q 1681 391 2138 391 
Q 2594 391 2855 752 
Q 3116 1113 3116 1747 
z
M 1159 2969 
Q 1341 3281 1617 3432 
Q 1894 3584 2278 3584 
Q 2916 3584 3314 3078 
Q 3713 2572 3713 1747 
Q 3713 922 3314 415 
Q 2916 -91 2278 -91 
Q 1894 -91 1617 61 
Q 1341 213 1159 525 
L 1159 0 
L 581 0 
L 581 4863 
L 1159 4863 
L 1159 2969 
z
" id="DejaVuSans-62" transform="scale(0.015625)"/>
       <path d="M 2631 2963 
Q 2534 3019 2420 3045 
Q 2306 3072 2169 3072 
Q 1681 3072 1420 2755 
Q 1159 2438 1159 1844 
L 1159 0 
L 581 0 
L 581 3500 
L 1159 3500 
L 1159 2956 
Q 1341 3275 1631 3429 
Q 1922 3584 2338 3584 
Q 2397 3584 2469 3576 
Q 2541 3569 2628 3553 
L 2631 2963 
z
" id="DejaVuSans-72" transform="scale(0.015625)"/>
       <path d="M 2194 1759 
Q 1497 1759 1228 1600 
Q 959 1441 959 1056 
Q 959 750 1161 570 
Q 1363 391 1709 391 
Q 2188 391 2477 730 
Q 2766 1069 2766 1631 
L 2766 1759 
L 2194 1759 
z
M 3341 1997 
L 3341 0 
L 2766 0 
L 2766 531 
Q 2569 213 2275 61 
Q 1981 -91 1556 -91 
Q 1019 -91 701 211 
Q 384 513 384 1019 
Q 384 1609 779 1909 
Q 1175 2209 1959 2209 
L 2766 2209 
L 2766 2266 
Q 2766 2663 2505 2880 
Q 2244 3097 1772 3097 
Q 1472 3097 1187 3025 
Q 903 2953 641 2809 
L 641 3341 
Q 956 3463 1253 3523 
Q 1550 3584 1831 3584 
Q 2591 3584 2966 3190 
Q 3341 2797 3341 1997 
z
" id="DejaVuSans-61" transform="scale(0.015625)"/>
       <path d="M 3513 2113 
L 3513 0 
L 2938 0 
L 2938 2094 
Q 2938 2591 2744 2837 
Q 2550 3084 2163 3084 
Q 1697 3084 1428 2787 
Q 1159 2491 1159 1978 
L 1159 0 
L 581 0 
L 581 3500 
L 1159 3500 
L 1159 2956 
Q 1366 3272 1645 3428 
Q 1925 3584 2291 3584 
Q 2894 3584 3203 3211 
Q 3513 2838 3513 2113 
z
" id="DejaVuSans-6e" transform="scale(0.015625)"/>
       <path id="DejaVuSans-20" transform="scale(0.015625)"/>
       <path d="M 1159 525 
L 1159 -1331 
L 581 -1331 
L 581 3500 
L 1159 3500 
L 1159 2969 
Q 1341 3281 1617 3432 
Q 1894 3584 2278 3584 
Q 2916 3584 3314 3078 
Q 3713 2572 3713 1747 
Q 3713 922 3314 415 
Q 2916 -91 2278 -91 
Q 1894 -91 1617 61 
Q 1341 213 1159 525 
z
M 3116 1747 
Q 3116 2381 2855 2742 
Q 2594 3103 2138 3103 
Q 1681 3103 1420 2742 
Q 1159 2381 1159 1747 
Q 1159 1113 1420 752 
Q 1681 391 2138 391 
Q 2594 391 2855 752 
Q 3116 1113 3116 1747 
z
" id="DejaVuSans-70" transform="scale(0.015625)"/>
       <path d="M 1959 3097 
Q 1497 3097 1228 2736 
Q 959 2375 959 1747 
Q 959 1119 1226 758 
Q 1494 397 1959 397 
Q 2419 397 2687 759 
Q 2956 1122 2956 1747 
Q 2956 2369 2687 2733 
Q 2419 3097 1959 3097 
z
M 1959 3584 
Q 2709 3584 3137 3096 
Q 3566 2609 3566 1747 
Q 3566 888 3137 398 
Q 2709 -91 1959 -91 
Q 1206 -91 779 398 
Q 353 888 353 1747 
Q 353 2609 779 3096 
Q 1206 3584 1959 3584 
z
" id="DejaVuSans-6f" transform="scale(0.015625)"/>
       <path d="M 1172 4494 
L 1172 3500 
L 2356 3500 
L 2356 3053 
L 1172 3053 
L 1172 1153 
Q 1172 725 1289 603 
Q 1406 481 1766 481 
L 2356 481 
L 2356 0 
L 1766 0 
Q 1100 0 847 248 
Q 594 497 594 1153 
L 594 3053 
L 172 3053 
L 172 3500 
L 594 3500 
L 594 4494 
L 1172 4494 
z
" id="DejaVuSans-74" transform="scale(0.015625)"/>
       <path d="M 603 4863 
L 1178 4863 
L 1178 0 
L 603 0 
L 603 4863 
z
" id="DejaVuSans-6c" transform="scale(0.015625)"/>
       <path d="M 1831 0 
L 50 4666 
L 709 4666 
L 2188 738 
L 3669 4666 
L 4325 4666 
L 2547 0 
L 1831 0 
z
" id="DejaVuSans-56" transform="scale(0.015625)"/>
      </defs>
      <use xlink:href="#DejaVuSans-4d"/>
      <use x="86.279297" xlink:href="#DejaVuSans-65"/>
      <use x="147.802734" xlink:href="#DejaVuSans-6d"/>
      <use x="245.214844" xlink:href="#DejaVuSans-62"/>
      <use x="308.691406" xlink:href="#DejaVuSans-72"/>
      <use x="349.804688" xlink:href="#DejaVuSans-61"/>
      <use x="411.083984" xlink:href="#DejaVuSans-6e"/>
      <use x="474.462891" xlink:href="#DejaVuSans-65"/>
      <use x="535.986328" xlink:href="#DejaVuSans-20"/>
      <use x="567.773438" xlink:href="#DejaVuSans-70"/>
      <use x="631.25" xlink:href="#DejaVuSans-6f"/>
      <use x="692.431641" xlink:href="#DejaVuSans-74"/>
      <use x="731.640625" xlink:href="#DejaVuSans-65"/>
      <use x="793.164062" xlink:href="#DejaVuSans-6e"/>
      <use x="856.542969" xlink:href="#DejaVuSans-74"/>
      <use x="895.751953" xlink:href="#DejaVuSans-69"/>
      <use x="923.535156" xlink:href="#DejaVuSans-61"/>
      <use x="984.814453" xlink:href="#DejaVuSans-6c"/>
      <use x="1012.597656" xlink:href="#DejaVuSans-20"/>
      <use x="1044.384766" xlink:href="#DejaVuSans-28"/>
      <use x="1083.398438" xlink:href="#DejaVuSans-6d"/>
      <use x="1180.810547" xlink:href="#DejaVuSans-56"/>
      <use x="1249.21875" xlink:href="#DejaVuSans-29"/>
     </g>
    </g>
   </g>
   <g id="line2d_18">
    <path clip-path="url(#p3a73e44ab6)" d="M 69.218182 212.629879 
L 69.333763 212.442445 
L 69.37229 212.494341 
L 69.526398 213.063019 
L 69.603452 213.473836 
L 69.641979 213.441075 
L 69.988723 211.171726 
L 70.02725 211.195644 
L 70.181358 211.165348 
L 70.335466 211.741854 
L 70.797791 214.346205 
L 70.836318 214.195592 
L 71.028953 213.518339 
L 71.06748 213.53095 
L 71.183061 213.24277 
L 71.645386 211.088809 
L 71.683913 211.147808 
L 71.876548 212.031919 
L 72.261818 213.983225 
L 72.531507 214.083248 
L 72.76267 214.608728 
L 72.839724 214.519722 
L 73.070886 214.122532 
L 73.302048 213.255816 
L 73.417629 213.389614 
L 73.648792 214.269956 
L 73.879954 214.996786 
L 73.995535 215.123336 
L 74.226697 215.898437 
L 74.342278 216.247356 
L 74.380806 216.145449 
L 74.534914 215.389337 
L 75.112819 209.969573 
L 75.2284 210.130913 
L 75.459563 211.102145 
L 75.806306 212.84181 
L 75.844833 212.780347 
L 75.998941 212.542613 
L 76.037468 212.571605 
L 76.191577 212.998802 
L 76.461266 213.590819 
L 76.692428 213.710266 
L 76.730955 213.653876 
L 76.885063 213.210299 
L 77.077699 212.80789 
L 77.19328 212.984596 
L 77.424442 213.687652 
L 77.462969 213.540662 
L 77.771185 212.149626 
L 77.809712 212.177459 
L 77.96382 212.60712 
L 78.349091 213.822755 
L 78.464672 213.586905 
L 78.772888 212.910956 
L 79.350794 212.601756 
L 79.581956 211.77331 
L 79.697537 211.969876 
L 79.736064 212.075697 
L 79.774591 212.04395 
L 80.275443 209.187369 
L 80.660713 204.122466 
L 80.737768 203.963155 
L 80.776295 203.985334 
L 80.891876 204.353967 
L 81.315673 205.93925 
L 81.431254 205.943019 
L 81.546835 206.242071 
L 81.62389 206.48198 
L 81.662417 206.342384 
L 82.00916 205.239528 
L 82.163268 205.162554 
L 82.278849 205.420293 
L 82.587066 206.865399 
L 82.702647 206.724353 
L 82.779701 206.69884 
L 82.818228 206.746967 
L 82.972336 207.29854 
L 83.588769 210.03379 
L 83.781404 210.725249 
L 84.205201 212.30082 
L 84.436364 213.09462 
L 84.551945 212.881094 
L 84.74458 212.441866 
L 84.783107 212.465059 
L 84.860161 212.394899 
L 85.283959 211.635598 
L 85.39954 211.733591 
L 85.438067 211.820277 
L 85.476594 211.770991 
L 85.669229 210.897752 
L 85.861864 210.316462 
L 85.977445 210.459683 
L 86.516824 212.313286 
L 86.863567 213.486737 
L 87.09473 214.160076 
L 87.287365 214.508125 
L 87.364419 213.967715 
L 87.634108 212.107878 
L 87.788216 211.721994 
L 88.13496 210.7209 
L 88.212014 210.633635 
L 88.250541 210.661032 
L 88.366122 210.732787 
L 88.597284 210.436199 
L 88.674338 210.520856 
L 89.098136 211.199848 
L 89.329298 211.916241 
L 89.907204 214.911694 
L 90.562163 217.802341 
L 90.60069 217.885114 
L 90.639217 217.853657 
L 90.87038 217.595049 
L 90.985961 217.614183 
L 91.140069 216.058618 
L 91.371231 214.806308 
L 91.525339 214.083683 
L 91.91061 212.133246 
L 91.987664 212.106573 
L 92.257353 211.296247 
L 92.29588 211.326253 
L 92.449988 211.736925 
L 92.912313 213.510656 
L 92.95084 213.443249 
L 93.182002 213.052002 
L 93.297583 213.183336 
L 93.528746 213.922777 
L 93.644327 214.210523 
L 93.682854 214.137028 
L 93.952543 213.563131 
L 94.106651 213.873201 
L 94.376341 214.293875 
L 94.64603 215.085936 
L 95.069827 216.434644 
L 95.108354 216.409421 
L 95.378044 216.229236 
L 95.570679 216.511038 
L 95.647733 216.687019 
L 95.68626 216.619323 
L 96.033003 215.368898 
L 96.110058 215.232636 
L 96.456801 213.922922 
L 96.687963 213.246684 
L 96.957652 213.028519 
L 97.150288 212.763677 
L 97.188815 212.78861 
L 97.342923 213.141588 
L 97.728193 214.874584 
L 97.805247 215.091155 
L 97.843774 214.944165 
L 98.074937 214.27503 
L 98.190518 214.439414 
L 98.575788 215.165229 
L 98.845478 215.939026 
L 99.346329 217.747547 
L 99.384856 217.648974 
L 99.770127 215.637799 
L 99.808654 215.660412 
L 100.001289 216.06746 
L 100.155397 216.487409 
L 100.232451 216.438993 
L 100.386559 216.434644 
L 100.579194 216.821542 
L 101.1571 218.522793 
L 101.195627 218.444369 
L 101.619425 217.099285 
L 101.966168 215.372957 
L 102.274384 213.155794 
L 102.46702 212.734395 
L 102.582601 212.954734 
L 102.698182 213.276835 
L 102.736709 213.229433 
L 102.85229 212.76904 
L 103.044925 212.164267 
L 103.160506 212.333001 
L 103.430196 213.517034 
L 103.89252 215.477183 
L 103.931047 215.555316 
L 103.969574 215.452105 
L 104.277791 214.351134 
L 104.316318 214.386939 
L 104.740115 215.333818 
L 105.125386 216.660347 
L 105.20244 216.33897 
L 105.472129 214.40245 
L 105.549183 214.378966 
L 105.58771 214.424339 
L 105.780345 214.992292 
L 106.011507 215.964684 
L 106.050035 215.92192 
L 106.319724 215.05216 
L 106.435305 215.202774 
L 106.704994 216.125589 
L 106.897629 216.77617 
L 106.936157 216.765877 
L 107.090265 216.761529 
L 107.244373 216.949397 
L 107.2829 216.88228 
L 107.475535 216.632514 
L 107.745224 216.790086 
L 107.860806 216.132837 
L 108.361657 212.530581 
L 108.477238 212.364602 
L 108.515765 212.391709 
L 108.669873 212.400407 
L 108.785455 211.363943 
L 109.055144 209.352768 
L 109.209252 207.886643 
L 109.478941 205.728188 
L 109.633049 205.236049 
L 110.01832 205.736161 
L 110.210955 206.609255 
L 110.326536 207.210114 
L 110.40359 207.13372 
L 110.519171 207.076026 
L 110.67328 207.538304 
L 110.865915 208.433142 
L 110.942969 208.322827 
L 111.05855 208.371244 
L 111.212658 208.688706 
L 111.251185 208.598541 
L 111.867618 206.789295 
L 111.944672 206.8625 
L 112.021726 206.953825 
L 112.060253 206.9157 
L 112.137307 206.945272 
L 112.445524 207.40668 
L 112.484051 207.381892 
L 112.599632 207.162132 
L 112.75374 206.712756 
L 112.792267 206.728992 
L 112.907848 206.527498 
L 113.254591 205.15806 
L 113.331646 205.087755 
L 113.370173 205.138781 
L 113.601335 205.435949 
L 113.986605 205.243442 
L 114.140713 204.415865 
L 114.44893 202.574728 
L 114.603038 202.187685 
L 114.641565 202.219721 
L 114.911254 202.515585 
L 115.065362 202.381642 
L 115.180944 202.668228 
L 115.604741 204.021864 
L 115.643268 204.137977 
L 115.720322 204.051146 
L 115.912957 203.837185 
L 115.951484 203.878644 
L 116.14412 204.482982 
L 116.375282 205.25069 
L 116.413809 205.201693 
L 116.567917 204.823493 
L 116.683498 204.63345 
L 116.722025 204.649831 
L 116.837606 204.926269 
L 116.991715 205.600913 
L 117.030242 205.516836 
L 117.299931 204.837409 
L 117.56962 204.749708 
L 117.916364 205.755006 
L 118.301634 208.394148 
L 118.686904 210.308344 
L 119.534499 212.961547 
L 119.842716 213.753899 
L 120.30504 215.015775 
L 120.497675 214.549729 
L 120.728838 213.850587 
L 120.844419 213.978442 
L 121.114108 214.85284 
L 121.34527 215.350343 
L 121.460852 215.283951 
L 121.769068 214.031062 
L 121.884649 214.154713 
L 122.115811 214.666712 
L 122.154338 214.532624 
L 122.385501 213.82203 
L 122.462555 213.683883 
L 122.732244 212.520579 
L 122.963406 212.221381 
L 123.117514 211.878986 
L 123.233096 212.068739 
L 123.425731 212.511591 
L 123.464258 212.458246 
L 123.656893 212.262985 
L 123.888055 212.678875 
L 124.234799 213.207544 
L 124.504488 212.888922 
L 124.774177 212.048589 
L 124.851231 212.012784 
L 125.043867 211.616753 
L 125.275029 210.654944 
L 125.467664 210.143235 
L 125.544718 210.227892 
L 125.852934 210.957475 
L 125.891461 210.912683 
L 126.122624 209.882887 
L 126.392313 207.725447 
L 126.623475 206.287879 
L 126.854638 205.624252 
L 127.162854 205.218509 
L 127.278435 205.501036 
L 127.548124 206.234678 
L 127.702232 206.415878 
L 127.740759 206.39254 
L 127.856341 206.467774 
L 128.203084 207.224175 
L 128.280138 207.522938 
L 128.318665 207.515255 
L 128.858044 206.278021 
L 128.935098 206.193365 
L 129.050679 206.06493 
L 129.089206 206.10233 
L 129.243314 206.628825 
L 129.55153 207.665868 
L 129.82122 208.414007 
L 130.090909 208.822504 
L 130.167963 208.715089 
L 130.283544 208.683778 
L 130.437652 209.046757 
L 131.169666 211.471938 
L 131.285247 211.424681 
L 131.439356 211.462226 
L 131.670518 211.533691 
L 131.863153 212.036123 
L 132.055788 212.366196 
L 132.171369 212.341263 
L 132.518113 211.181873 
L 132.55664 211.21333 
L 132.672221 211.062281 
L 132.864856 210.603483 
L 133.404235 208.600571 
L 133.519816 208.429808 
L 133.558343 208.469817 
L 133.712451 208.802645 
L 133.750978 208.714799 
L 134.482992 205.491613 
L 134.560046 205.57772 
L 134.791208 206.213804 
L 134.868262 206.1377 
L 134.983843 206.062901 
L 135.022371 206.094647 
L 135.407641 206.918455 
L 135.561749 207.489017 
L 135.638803 207.427119 
L 135.715857 207.495251 
L 135.908493 208.246868 
L 136.101128 209.131849 
L 136.139655 209.07198 
L 136.33229 208.471411 
L 136.601979 207.563237 
L 136.71756 207.75067 
L 136.98725 208.926151 
L 137.295466 209.995086 
L 137.488101 209.992476 
L 137.642209 209.65414 
L 137.680736 209.676319 
L 137.834845 210.096558 
L 138.489804 212.523913 
L 138.643913 212.438097 
L 138.720967 212.04627 
L 139.144764 207.846779 
L 139.221818 207.843734 
L 139.298872 207.554539 
L 139.799724 203.857044 
L 140.030886 203.413467 
L 140.300575 203.828632 
L 140.493211 204.36339 
L 140.531738 204.34266 
L 140.647319 203.571908 
L 140.917008 202.031128 
L 140.994062 202.071137 
L 141.263751 202.810143 
L 141.649022 204.690854 
L 141.918711 205.742684 
L 141.995765 205.841837 
L 142.034292 205.790086 
L 142.1884 205.305195 
L 142.226928 205.321865 
L 142.381036 205.815889 
L 142.496617 205.965488 
L 142.535144 205.929248 
L 143.074522 203.756732 
L 143.305685 202.890596 
L 143.575374 202.232188 
L 143.690955 202.132745 
L 143.729482 202.162317 
L 144.114753 202.605025 
L 144.268861 202.625754 
L 144.422969 203.133694 
L 144.769712 205.39652 
L 145.386145 209.376107 
L 146.002578 211.353361 
L 146.118159 211.363798 
L 146.272267 211.380613 
L 146.310794 211.415259 
L 146.349321 211.332777 
L 146.464902 209.954497 
L 146.811646 205.68499 
L 146.965754 205.46755 
L 147.081335 205.580764 
L 147.505132 206.706523 
L 147.697768 207.1343 
L 147.851876 207.293176 
L 147.967457 207.350001 
L 148.083038 207.395228 
L 148.275673 207.721823 
L 148.3142 207.644559 
L 148.506835 206.774509 
L 148.699471 206.134656 
L 148.930633 205.823137 
L 148.96916 205.884745 
L 149.123268 206.122914 
L 149.161795 206.100735 
L 149.315903 206.088559 
L 149.470012 206.50184 
L 150.356133 209.850561 
L 150.433188 209.685886 
L 150.934039 207.864464 
L 151.126674 207.745162 
L 151.396364 208.206714 
L 151.473418 208.131335 
L 151.588999 208.135394 
L 151.743107 208.577232 
L 151.858688 209.019215 
L 151.935742 208.963695 
L 152.012796 209.037915 
L 152.205432 209.81606 
L 152.821864 212.748311 
L 152.898918 212.839201 
L 152.937445 212.817747 
L 153.053026 212.470133 
L 153.284189 211.274503 
L 153.39977 211.351911 
L 153.592405 211.24667 
L 153.78504 211.031985 
L 153.939148 211.375105 
L 154.093257 211.748232 
L 154.131784 211.724169 
L 154.285892 211.219708 
L 154.517054 210.506795 
L 154.709689 210.532018 
L 154.902325 210.276018 
L 155.056433 210.073799 
L 155.09496 210.094528 
L 155.865501 211.346113 
L 155.981082 211.40975 
L 156.096663 211.48339 
L 156.289298 211.637193 
L 156.404879 211.714311 
L 156.558987 212.064245 
L 156.636041 211.966687 
L 156.713096 211.845065 
L 157.136893 210.226152 
L 157.522163 209.035885 
L 157.637745 209.263473 
L 157.907434 210.627981 
L 158.446812 213.516019 
L 158.600921 212.501009 
L 158.793556 211.857387 
L 159.063245 211.638932 
L 159.101772 211.688508 
L 159.332934 211.80897 
L 159.487043 212.101644 
L 160.257583 214.122097 
L 160.334638 213.980616 
L 160.681381 212.365037 
L 161.028124 210.844116 
L 161.259287 210.934572 
L 161.490449 210.549993 
L 161.760138 208.40299 
L 162.029827 206.987166 
L 162.106881 206.93556 
L 162.26099 205.749062 
L 162.453625 205.079637 
L 162.684787 205.3755 
L 162.723314 205.474798 
L 162.761841 205.39536 
L 162.954476 204.552128 
L 162.993003 204.571987 
L 163.108585 204.927284 
L 163.416801 206.983832 
L 163.725017 208.756692 
L 163.917652 209.07459 
L 164.148815 210.033935 
L 164.379977 210.725829 
L 164.842301 209.92652 
L 164.957883 210.055099 
L 165.073464 210.224557 
L 165.111991 210.208322 
L 165.227572 210.263552 
L 165.420207 210.840058 
L 166.306329 214.307066 
L 166.460437 214.374037 
L 166.653072 214.373603 
L 166.922762 213.826958 
L 167.153924 213.845803 
L 167.308032 213.871026 
L 167.500667 214.336348 
L 167.885938 215.454279 
L 167.924465 215.413256 
L 168.040046 214.737742 
L 168.386789 212.163252 
L 168.656479 211.908123 
L 168.77206 212.054822 
L 169.195857 213.003296 
L 169.234384 212.985611 
L 169.388493 212.865294 
L 169.542601 212.735844 
L 169.581128 212.764547 
L 169.81229 213.100274 
L 169.850817 213.032578 
L 170.043452 212.791654 
L 170.159033 212.961112 
L 170.428723 213.944521 
L 170.85252 215.412096 
L 171.122209 215.985268 
L 171.160736 215.912208 
L 171.777169 214.561761 
L 172.778872 210.128739 
L 172.894453 210.337916 
L 173.164143 211.657777 
L 173.58794 213.581831 
L 173.973211 214.416221 
L 174.011738 214.247487 
L 174.474062 212.491587 
L 174.666697 212.577548 
L 175.398711 210.233545 
L 175.629873 210.127869 
L 175.899563 208.755678 
L 176.130725 205.913592 
L 176.361887 204.329034 
L 176.438941 203.862263 
L 176.670104 202.580817 
L 176.747158 202.657356 
L 176.939793 203.540742 
L 177.980023 207.587735 
L 178.134131 207.487858 
L 178.40382 208.00377 
L 178.712037 206.013759 
L 178.827618 206.205107 
L 179.135834 206.967016 
L 179.251415 207.030944 
L 179.444051 206.01028 
L 179.675213 204.739996 
L 179.752267 204.645047 
L 180.060483 203.144566 
L 180.176064 203.00439 
L 180.214591 203.048023 
L 180.484281 203.538132 
L 180.522808 203.50914 
L 180.638389 203.49102 
L 180.75397 203.819355 
L 181.216295 206.501405 
L 181.755673 209.969138 
L 181.832727 209.692119 
L 181.909781 209.261298 
L 182.256525 206.28266 
L 182.372106 206.587801 
L 182.680322 208.441115 
L 182.872957 209.2742 
L 182.988539 208.743211 
L 183.450863 206.170751 
L 183.566444 206.348762 
L 183.797606 207.349421 
L 184.067296 208.686967 
L 184.105823 208.626663 
L 184.452566 208.044214 
L 184.491093 208.088717 
L 184.722255 208.436041 
L 184.760783 208.416471 
L 184.914891 208.13264 
L 184.953418 208.153369 
L 185.107526 208.575058 
L 185.492796 210.754821 
L 185.56985 211.034739 
L 185.608377 210.909638 
L 185.83954 210.221658 
L 186.147756 209.01907 
L 186.494499 207.128502 
L 186.995351 205.365063 
L 187.110932 205.467985 
L 187.303567 206.056668 
L 187.419148 205.951282 
L 187.53473 205.86503 
L 187.688838 205.63121 
L 187.727365 205.660202 
L 187.881473 206.100445 
L 188.690541 210.239053 
L 189.692244 215.487765 
L 189.961933 215.821318 
L 190.077514 215.99498 
L 190.116041 215.912643 
L 190.424258 215.167548 
L 190.578366 215.319322 
L 190.65542 215.443697 
L 190.693947 215.398035 
L 190.925109 215.185234 
L 191.002163 215.05506 
L 191.156272 213.741577 
L 191.387434 212.635387 
L 191.503015 212.719609 
L 191.580069 212.738889 
L 191.618596 212.691487 
L 191.734177 212.528262 
L 192.466191 209.507295 
L 192.543245 209.565714 
L 193.121151 210.911958 
L 193.660529 213.20392 
L 193.814638 213.566175 
L 194.392543 215.536762 
L 194.43107 215.512988 
L 194.546651 214.955762 
L 195.163084 211.492378 
L 195.317192 210.952836 
L 195.355719 210.961824 
L 195.509827 211.363363 
L 195.74099 211.782008 
L 195.933625 212.053953 
L 196.010679 211.940739 
L 196.164787 211.956395 
L 196.473003 211.914066 
L 196.588585 212.105558 
L 196.627112 212.06468 
L 196.78122 211.185207 
L 197.089436 209.723286 
L 197.205017 209.847082 
L 197.43618 210.754096 
L 197.667342 211.406271 
L 197.782923 211.484115 
L 197.82145 211.408301 
L 197.937031 211.309148 
L 198.052612 211.559204 
L 198.360829 212.651333 
L 198.399356 212.574214 
L 198.553464 212.347497 
L 198.591991 212.368951 
L 198.823153 212.514201 
L 198.938734 212.64249 
L 199.285478 213.141153 
L 199.439586 213.091141 
L 199.555167 212.5171 
L 199.90191 210.85122 
L 200.094545 210.292689 
L 200.248654 210.346614 
L 200.441289 210.780769 
L 200.672451 211.528473 
L 200.710978 211.479766 
L 201.134776 209.301742 
L 201.982371 202.69664 
L 202.097952 202.569365 
L 202.136479 202.596762 
L 202.25206 202.764626 
L 202.290587 202.681999 
L 202.714384 200.985097 
L 202.984074 199.857163 
L 203.176709 199.626532 
L 203.407871 199.044083 
L 203.446398 199.064957 
L 203.94725 199.622763 
L 204.178412 199.693648 
L 204.255466 199.732498 
L 204.525155 198.737347 
L 204.563682 198.772572 
L 204.717791 199.275439 
L 204.871899 200.119831 
L 204.948953 199.961679 
L 205.141588 199.043793 
L 205.758021 196.070518 
L 205.873602 195.908018 
L 205.912129 195.956435 
L 205.989183 195.95339 
L 206.104764 195.911642 
L 206.220345 196.245775 
L 206.875305 199.780624 
L 207.260575 201.884864 
L 207.568792 202.869432 
L 207.838481 203.576257 
L 207.992589 202.535734 
L 208.37786 198.860998 
L 208.454914 198.94493 
L 208.801657 198.077199 
L 208.917238 197.259625 
L 209.263982 194.710938 
L 209.610725 193.47298 
L 209.726306 193.561405 
L 209.995995 193.866836 
L 210.150104 193.991937 
L 210.188631 193.898148 
L 210.304212 193.740431 
L 210.342739 193.776816 
L 210.496847 194.308529 
L 210.84359 196.727767 
L 211.729712 203.146451 
L 211.922348 203.778766 
L 212.037929 203.652361 
L 212.15351 202.251757 
L 212.423199 199.39677 
L 212.577307 199.17875 
L 212.692888 199.329799 
L 212.924051 200.069385 
L 213.001105 199.962549 
L 213.155213 199.293994 
L 213.424902 198.220565 
L 213.540483 198.097349 
L 213.656064 198.399445 
L 214.388078 202.084039 
L 214.542186 202.450498 
L 214.657768 202.560812 
L 214.850403 203.288366 
L 214.927457 203.563645 
L 214.965984 203.488266 
L 215.120092 203.216321 
L 215.158619 203.251112 
L 215.235673 203.339972 
L 215.2742 203.243574 
L 215.351254 203.13123 
L 215.389781 203.151959 
L 215.775052 204.004179 
L 216.352957 206.072468 
L 217.046444 208.285717 
L 217.162025 208.093356 
L 217.316133 207.953469 
L 217.470242 208.295865 
L 217.778458 209.80026 
L 218.125201 211.293637 
L 218.356364 212.073667 
L 218.548999 212.495936 
L 218.703107 212.731206 
L 219.550702 215.101737 
L 219.589229 214.906476 
L 219.974499 212.564067 
L 220.090081 212.486223 
L 220.398297 210.853249 
L 220.899148 207.797782 
L 221.130311 207.615712 
L 221.477054 206.75581 
L 221.78527 205.095293 
L 222.132014 201.240806 
L 222.286122 201.152671 
L 222.401703 201.312852 
L 222.594338 201.683079 
L 222.632865 201.658726 
L 222.748446 200.71924 
L 223.018136 198.899702 
L 223.09519 198.954497 
L 223.210771 199.154397 
L 223.249298 199.044807 
L 223.441933 198.707485 
L 223.557514 198.894919 
L 223.75015 199.725829 
L 223.865731 200.26914 
L 223.942785 200.215504 
L 224.13542 200.043147 
L 224.173947 200.08504 
L 224.251001 200.188252 
L 224.289528 200.152447 
L 224.482163 199.898622 
L 224.52069 199.929933 
L 224.867434 200.349592 
L 225.060069 199.784103 
L 225.252704 199.239344 
L 225.291231 199.248621 
L 225.406812 199.513028 
L 225.560921 200.035319 
L 225.599448 199.936021 
L 225.753556 199.225717 
L 225.984718 196.779083 
L 226.48557 191.073457 
L 226.986421 187.179541 
L 227.063475 187.135329 
L 227.102002 187.192878 
L 227.25611 187.829397 
L 227.448746 188.393002 
L 227.949597 189.734316 
L 228.411922 188.351688 
L 228.450449 188.385029 
L 228.56603 188.370098 
L 228.681611 188.448811 
L 228.835719 189.10432 
L 229.105409 190.476657 
L 229.143936 190.393015 
L 229.336571 188.190058 
L 229.567733 186.563316 
L 229.644787 186.501129 
L 229.683314 186.542297 
L 230.030058 187.303627 
L 230.145639 187.234626 
L 230.26122 187.463808 
L 230.530909 188.92515 
L 231.147342 191.018517 
L 231.339977 191.228564 
L 231.455558 191.271327 
L 231.571139 191.503118 
L 231.609666 191.355694 
L 231.840829 188.859773 
L 232.149045 185.455967 
L 232.495788 182.579961 
L 232.726951 181.882123 
L 233.035167 177.467946 
L 233.38191 171.922936 
L 233.536018 166.239635 
L 233.613072 159.145872 
L 233.6516 147.362508 
L 233.690127 35.436138 
L 233.728654 86.41857 
L 233.882762 201.4107 
L 233.959816 205.154726 
L 233.998343 204.827262 
L 234.383613 197.284413 
L 235.385316 176.472941 
L 235.73206 170.913145 
L 235.886168 162.436609 
L 235.924695 156.311904 
L 236.001749 48.062009 
L 236.040276 123.984374 
L 236.194384 203.307211 
L 236.232911 204.451236 
L 236.309965 203.676569 
L 236.964925 194.109499 
L 237.581358 188.803528 
L 237.851047 185.692542 
L 238.583061 173.010281 
L 238.737169 164.985296 
L 238.814223 150.11269 
L 238.85275 33.932758 
L 238.891277 79.354524 
L 239.045386 204.032881 
L 239.12244 206.666224 
L 239.160967 205.933596 
L 239.469183 200.836658 
L 240.124143 195.661441 
L 240.663521 188.074235 
L 240.817629 185.892587 
L 241.665224 169.29916 
L 241.780806 162.534312 
L 241.85786 136.290464 
L 241.896387 43.790038 
L 241.934914 115.264885 
L 242.089022 203.702807 
L 242.127549 205.046731 
L 242.204603 204.223068 
L 242.705455 196.863739 
L 243.206306 190.738599 
L 243.745685 183.980274 
L 244.554753 177.231661 
L 244.824442 172.315053 
L 244.97855 162.753347 
L 245.017077 155.309216 
L 245.094131 54.477069 
L 245.132658 136.360479 
L 245.325293 205.021653 
L 245.479402 202.329311 
L 245.903199 195.671443 
L 246.365524 191.684173 
L 246.827848 189.767077 
L 246.981956 187.806928 
L 247.3287 178.954076 
L 247.636916 165.067053 
L 247.71397 149.954103 
L 247.752497 33.901737 
L 247.791024 82.344324 
L 247.945132 205.959979 
L 247.983659 208.25774 
L 248.060713 207.58701 
L 248.36893 203.574807 
L 248.600092 201.29966 
L 249.139471 196.638326 
L 249.293579 196.418277 
L 249.486214 196.319994 
L 249.563268 196.078346 
L 249.755903 193.624898 
L 250.06412 190.615093 
L 250.410863 189.075908 
L 251.10435 187.47352 
L 251.181404 187.481058 
L 251.335512 187.332909 
L 251.374039 187.373353 
L 251.528147 187.898253 
L 251.720783 188.571882 
L 251.75931 188.549558 
L 251.951945 188.497808 
L 252.067526 187.484247 
L 252.414269 184.668399 
L 252.722486 183.859957 
L 253.069229 183.243588 
L 253.300391 182.388468 
L 253.608608 180.735635 
L 253.801243 178.296538 
L 253.993878 171.484577 
L 254.109459 161.188793 
L 254.147986 148.020627 
L 254.186513 30.752626 
L 254.22504 80.464918 
L 254.379148 203.777606 
L 254.417675 206.067974 
L 254.49473 204.752317 
L 254.918527 195.282081 
L 255.457906 181.791958 
L 255.804649 164.502289 
L 255.881703 139.464653 
L 255.92023 38.915903 
L 255.958757 106.192564 
L 256.112865 207.484668 
L 256.151392 208.432127 
L 256.189919 207.847068 
L 256.690771 198.03893 
L 256.998987 195.710437 
L 257.499839 193.909454 
L 257.538366 193.922066 
L 257.61542 193.881187 
L 257.769528 193.210892 
L 258.463015 188.643492 
L 258.617123 188.74308 
L 258.65565 188.68843 
L 258.809758 188.129174 
L 259.156502 186.615647 
L 259.272083 186.55143 
L 259.772934 185.815468 
L 260.273786 186.465613 
L 260.543475 187.468012 
L 260.582002 187.434236 
L 260.697583 186.799746 
L 261.275489 181.75021 
L 261.39107 181.797322 
L 261.545178 182.25554 
L 261.622232 182.604749 
L 261.660759 182.58083 
L 262.469827 177.280948 
L 262.739517 171.678534 
L 262.893625 163.405087 
L 262.970679 137.888793 
L 263.009206 38.580321 
L 263.047733 102.351124 
L 263.201841 202.744042 
L 263.278895 205.730073 
L 263.317422 205.595115 
L 263.664166 201.545077 
L 264.280598 195.35717 
L 264.550288 193.928589 
L 264.627342 193.818854 
L 264.665869 193.846542 
L 264.935558 194.19778 
L 265.243774 193.88829 
L 265.282301 193.948304 
L 265.474937 194.189082 
L 265.590518 194.432035 
L 265.82168 195.857137 
L 266.592221 201.283715 
L 266.938964 201.657421 
L 267.247181 200.783458 
L 267.439816 201.097731 
L 267.632451 201.715695 
L 267.670978 201.635098 
L 267.90214 201.186446 
L 268.017722 201.052793 
L 268.056249 201.095267 
L 268.210357 201.685544 
L 268.865316 204.942215 
L 269.173533 206.180463 
L 269.21206 206.123784 
L 269.635857 205.43189 
L 269.86702 205.875902 
L 270.098182 206.849454 
L 270.90725 210.833244 
L 271.215466 211.273343 
L 271.253993 211.232319 
L 271.485155 210.898187 
L 271.600736 211.100261 
L 271.94748 211.878116 
L 272.024534 211.705324 
L 272.525386 207.55106 
L 272.640967 207.693266 
L 273.257399 209.921011 
L 274.066467 213.083024 
L 274.220575 213.335254 
L 274.259102 213.262339 
L 274.759954 210.185418 
L 274.837008 210.276308 
L 275.106697 211.027201 
L 275.145224 210.926889 
L 275.453441 209.575716 
L 275.800184 207.743277 
L 275.838711 207.760527 
L 275.992819 208.027834 
L 276.37809 206.242651 
L 276.570725 205.896342 
L 276.686306 206.142629 
L 276.955995 207.591649 
L 277.148631 208.174388 
L 277.41832 208.623764 
L 277.495374 208.518378 
L 278.150334 205.898081 
L 278.227388 205.972011 
L 278.45855 206.904394 
L 278.882348 208.325581 
L 278.959402 208.283543 
L 279.537307 206.443856 
L 279.652888 206.526773 
L 279.729942 206.641436 
L 279.76847 206.571855 
L 279.845524 206.490098 
L 279.884051 206.518365 
L 280.115213 207.124588 
L 280.192267 206.907293 
L 280.307848 206.727397 
L 280.346375 206.7719 
L 280.500483 207.324343 
L 280.885754 208.81917 
L 281.232497 210.079163 
L 281.271024 210.029731 
L 281.502186 209.445252 
L 281.540713 209.458879 
L 281.694822 209.838529 
L 282.041565 211.64531 
L 282.50389 213.83986 
L 282.735052 214.186314 
L 283.158849 213.858705 
L 283.505593 212.478106 
L 283.54412 212.507243 
L 283.659701 212.596828 
L 283.698228 212.549861 
L 284.006444 212.071928 
L 284.507296 210.773956 
L 284.58435 210.705825 
L 284.622877 210.737281 
L 284.699931 210.796425 
L 284.738458 210.742934 
L 284.854039 210.710028 
L 285.046674 210.794395 
L 285.162255 210.934716 
L 285.393418 211.357275 
L 285.508999 210.921815 
L 285.740161 210.241808 
L 285.855742 210.41315 
L 286.048377 211.091418 
L 286.125432 210.99328 
L 286.202486 210.974001 
L 286.241013 211.024302 
L 286.356594 211.242177 
L 286.395121 211.221592 
L 286.587756 211.055468 
L 286.626283 211.087794 
L 286.857445 211.251744 
L 286.973026 211.327993 
L 287.165662 211.914791 
L 287.31977 212.140204 
L 287.473878 212.421716 
L 287.782094 213.702293 
L 288.128838 215.243363 
L 288.167365 215.191322 
L 288.321473 214.309675 
L 288.899379 210.407787 
L 289.01496 210.424167 
L 289.207595 210.975885 
L 289.361703 211.460921 
L 289.40023 211.435698 
L 289.592865 210.97632 
L 289.901082 209.615725 
L 289.939609 209.656894 
L 290.093717 210.141495 
L 290.517514 212.541453 
L 290.979839 214.778476 
L 291.09542 214.883137 
L 291.365109 214.641634 
L 292.020069 210.7425 
L 292.097123 210.465046 
L 292.675029 206.716815 
L 292.906191 206.120305 
L 293.021772 206.22743 
L 293.329988 207.293031 
L 293.676732 209.151274 
L 294.177583 211.920444 
L 294.408746 211.570511 
L 294.716962 210.688284 
L 294.755489 210.711478 
L 294.909597 211.082721 
L 295.102232 211.372351 
L 295.179287 211.204197 
L 296.489206 205.978824 
L 296.604787 206.057682 
L 296.643314 206.096821 
L 296.681841 206.038982 
L 296.797422 205.314762 
L 297.067112 203.662943 
L 297.182693 203.284742 
L 297.298274 202.504278 
L 297.567963 199.776131 
L 297.760598 199.697272 
L 297.837652 199.769462 
L 298.030288 200.598779 
L 298.107342 200.795489 
L 298.145869 200.707209 
L 298.723774 198.32885 
L 298.993464 197.848452 
L 299.147572 197.870486 
L 299.340207 198.212157 
L 299.378734 198.169394 
L 299.494315 197.868747 
L 299.725478 197.242375 
L 299.995167 197.481704 
L 300.149275 197.192364 
L 300.187802 197.230923 
L 300.496018 197.700738 
L 300.650127 197.428503 
L 300.765708 197.754373 
L 301.228032 199.495633 
L 301.38214 199.547239 
L 301.805938 198.662838 
L 301.844465 198.683422 
L 302.0371 199.148744 
L 302.152681 199.196725 
L 302.306789 199.195566 
L 302.460898 199.551008 
L 302.730587 200.990895 
L 303.000276 202.520948 
L 303.038803 202.477315 
L 303.192911 201.632343 
L 303.501128 199.558401 
L 303.770817 199.735397 
L 303.924925 200.313207 
L 304.11756 201.167022 
L 304.156087 201.092802 
L 304.348723 200.856083 
L 304.502831 201.228775 
L 304.541358 201.292267 
L 304.579885 201.21022 
L 304.77252 200.655893 
L 304.811047 200.674303 
L 304.888101 200.743014 
L 304.926628 200.704744 
L 305.042209 200.725474 
L 305.273372 201.140929 
L 305.311899 201.093672 
L 305.466007 200.952191 
L 305.504534 200.982778 
L 305.658642 201.411134 
L 306.85298 207.214028 
L 307.893211 213.850152 
L 308.124373 214.460434 
L 308.317008 214.820949 
L 308.471116 214.955037 
L 308.740806 215.616345 
L 309.010495 216.424497 
L 309.049022 216.26823 
L 309.434292 214.337218 
L 309.626928 213.824204 
L 309.896617 212.269943 
L 310.012198 212.260231 
L 310.127779 212.194709 
L 310.24336 212.162963 
L 310.590104 212.44288 
L 310.782739 212.074392 
L 310.89832 212.282989 
L 311.28359 213.761292 
L 311.360644 213.649237 
L 311.745915 211.818103 
L 311.784442 211.856952 
L 311.977077 212.412729 
L 312.092658 212.706273 
L 312.131185 212.602336 
L 312.439402 211.73678 
L 312.59351 212.051633 
L 313.132888 213.934519 
L 313.171415 213.780571 
L 313.787848 209.488451 
L 313.903429 209.43612 
L 314.057537 209.789243 
L 314.250173 210.54028 
L 314.2887 210.455769 
L 314.635443 209.311309 
L 314.905132 209.006604 
L 315.059241 209.363495 
L 315.367457 210.893693 
L 316.022417 214.141956 
L 316.600322 215.70593 
L 316.831484 216.131098 
L 317.216755 217.013179 
L 317.255282 216.988681 
L 317.447917 216.967952 
L 317.640552 217.257872 
L 317.756133 217.472847 
L 317.794661 217.413559 
L 318.334039 215.408617 
L 318.71931 211.854633 
L 318.834891 211.922039 
L 318.911945 211.967701 
L 318.950472 211.915226 
L 319.258688 211.666909 
L 319.412796 212.078161 
L 319.836594 214.248357 
L 320.183337 215.803488 
L 320.607135 214.184575 
L 320.79977 213.6417 
L 321.377675 213.961626 
L 321.493257 214.0731 
L 321.531784 214.042224 
L 321.724419 213.545156 
L 321.917054 211.895511 
L 322.148216 210.740035 
L 322.263797 210.709449 
L 322.340852 210.350673 
L 322.572014 209.323921 
L 322.687595 209.501062 
L 322.957284 210.758155 
L 323.381082 212.182242 
L 323.727825 212.96836 
L 323.766352 212.943572 
L 323.92046 211.885509 
L 324.344258 208.377477 
L 324.536893 207.531346 
L 324.768055 205.927073 
L 324.845109 205.919825 
L 324.999217 206.425591 
L 325.268907 207.747916 
L 325.307434 207.711386 
L 325.423015 207.131546 
L 325.885339 204.104781 
L 325.923867 204.156097 
L 326.077975 204.79885 
L 327.002624 209.958991 
L 327.079678 209.666316 
L 327.31084 208.841349 
L 327.426421 208.761476 
L 327.464948 208.804964 
L 327.811692 209.504541 
L 328.274016 210.983133 
L 328.389597 211.10171 
L 328.582232 210.6519 
L 328.620759 210.682051 
L 329.083084 211.557755 
L 329.121611 211.411055 
L 329.468354 209.781415 
L 329.622463 209.451776 
L 329.66099 209.477579 
L 329.815098 209.895353 
L 330.200368 211.947987 
L 330.508585 213.052582 
L 330.585639 212.978942 
L 331.08649 211.815059 
L 331.202071 211.825496 
L 331.702923 210.809326 
L 331.818504 210.946458 
L 331.934085 211.21159 
L 332.011139 211.143169 
L 332.165247 211.013285 
L 332.434937 210.097283 
L 332.666099 209.721836 
L 332.78168 209.742276 
L 332.935788 210.155122 
L 333.205478 211.069529 
L 333.244005 211.033579 
L 333.398113 210.911958 
L 333.43664 210.941095 
L 333.590748 211.32002 
L 333.937491 213.026199 
L 334.399816 215.050711 
L 334.900667 216.598739 
L 334.977722 216.762833 
L 335.016249 216.650924 
L 335.13183 215.59547 
L 335.362992 214.190953 
L 335.555627 213.71244 
L 335.940898 212.2079 
L 336.17206 212.153685 
L 336.518803 209.94522 
L 336.634384 210.12642 
L 336.82702 210.896592 
L 336.865547 210.812515 
L 337.096709 208.544906 
L 337.443452 206.229025 
L 337.520506 206.312377 
L 337.713142 207.185036 
L 338.021358 209.27275 
L 338.098412 209.166494 
L 338.213993 209.03574 
L 338.368101 209.286231 
L 338.406628 209.154608 
L 338.522209 207.621221 
L 338.830426 204.174217 
L 339.023061 203.833996 
L 339.177169 203.806743 
L 339.485386 202.312931 
L 339.716548 201.069754 
L 339.793602 201.140929 
L 339.986237 201.963867 
L 340.98794 207.446689 
L 341.797008 210.213251 
L 341.951116 210.602468 
L 342.451968 212.320679 
L 342.798711 210.09018 
L 342.875765 210.155267 
L 343.106928 209.746769 
L 343.183982 209.846792 
L 344.031577 212.20877 
L 344.224212 212.985176 
L 344.262739 212.96952 
L 344.416847 212.666988 
L 344.609482 212.269943 
L 344.725063 212.403306 
L 345.03328 213.093751 
L 345.071807 213.06128 
L 345.996456 208.460684 
L 346.034983 208.49301 
L 346.45878 209.498163 
L 346.612888 209.754597 
L 346.72847 208.988918 
L 347.229321 204.861762 
L 347.49901 204.290185 
L 347.576064 204.361795 
L 347.7687 205.201548 
L 348.076916 206.434288 
L 348.15397 206.271063 
L 348.308078 205.875612 
L 348.346605 205.88547 
L 348.462186 206.151471 
L 348.731876 207.623975 
L 349.617998 212.926612 
L 349.695052 212.999817 
L 349.964741 212.300095 
L 350.003268 212.338509 
L 350.195903 212.866453 
L 350.272957 213.035622 
L 350.311484 212.983001 
L 351.082025 211.292333 
L 351.236133 210.913117 
L 351.814039 207.53323 
L 352.083728 207.462345 
L 352.353418 208.153949 
L 352.430472 207.946076 
L 352.546053 207.744582 
L 352.58458 207.783721 
L 352.738688 208.323407 
L 352.931323 208.863818 
L 353.23954 209.641528 
L 353.316594 209.468011 
L 353.470702 209.168234 
L 353.509229 209.182875 
L 353.586283 209.107641 
L 353.701864 208.288617 
L 353.933026 206.726093 
L 354.318297 205.755586 
L 354.356824 205.790666 
L 354.510932 206.237578 
L 355.050311 208.23962 
L 355.127365 208.331235 
L 355.165892 208.266148 
L 355.358527 207.709791 
L 355.397054 207.720518 
L 355.666743 207.925927 
L 355.897906 208.552299 
L 356.129068 209.07488 
L 356.668446 210.417209 
L 357.130771 212.245155 
L 357.40046 213.306842 
L 357.631623 213.957857 
L 357.67015 213.962786 
L 358.171001 212.452013 
L 358.325109 212.408235 
L 358.556272 212.233123 
L 358.787434 212.611614 
L 358.825961 212.56943 
L 359.057123 212.13658 
L 359.09565 212.161368 
L 359.249758 212.374749 
L 359.288285 212.256172 
L 359.442394 211.299001 
L 359.75061 209.214766 
L 359.827664 209.16432 
L 359.866191 209.20056 
L 360.212934 209.540491 
L 360.328516 209.262748 
L 360.598205 208.428648 
L 360.636732 208.455756 
L 360.79084 208.698998 
L 360.829367 208.586075 
L 361.214638 207.268823 
L 361.522854 207.201996 
L 362.062232 208.760316 
L 362.331922 209.739811 
L 362.601611 210.97777 
L 362.755719 211.196949 
L 362.909827 211.610085 
L 363.372152 212.82427 
L 363.487733 212.912406 
L 363.718895 212.454477 
L 363.757422 212.487818 
L 364.142693 213.142167 
L 364.219747 213.04171 
L 364.373855 212.989524 
L 364.605017 213.336414 
L 364.643544 213.220156 
L 365.028815 212.043226 
L 365.144396 212.216743 
L 365.760829 213.647353 
L 365.953464 213.828408 
L 365.991991 213.779412 
L 366.146099 213.297275 
L 366.415788 212.235153 
L 366.531369 212.329956 
L 366.762532 213.069397 
L 367.224856 215.131019 
L 367.30191 215.03462 
L 367.494545 214.795871 
L 367.841289 213.761147 
L 367.95687 213.855805 
L 368.188032 214.485947 
L 368.303613 214.744845 
L 368.34214 214.723101 
L 368.419194 214.331854 
L 368.881519 209.864622 
L 369.151208 208.882083 
L 369.228262 208.817866 
L 369.459425 208.570564 
L 369.536479 208.433142 
L 369.690587 207.450168 
L 369.998803 205.628311 
L 370.075857 205.501906 
L 370.114384 205.525099 
L 370.268493 206.038692 
L 370.538182 207.312166 
L 370.576709 207.273317 
L 370.884925 205.736016 
L 370.961979 205.882571 
L 371.193142 207.143433 
L 371.424304 208.190479 
L 371.539885 208.263104 
L 371.693993 208.72828 
L 372.426007 211.693582 
L 372.695696 211.685464 
L 373.350656 207.979562 
L 373.543291 207.879684 
L 373.581818 207.872581 
L 373.581818 207.872581 
" style="fill:none;stroke:#000000;stroke-linecap:square;stroke-width:1.5;"/>
   </g>
   <g id="line2d_19">
    <path clip-path="url(#p3a73e44ab6)" d="M 69.218182 212.629879 
L 69.333763 212.442445 
L 69.37229 212.494341 
L 69.526398 213.063019 
L 69.603452 213.473836 
L 69.641979 213.441075 
L 69.988723 211.171726 
L 70.02725 211.195644 
L 70.181358 211.165348 
L 70.335466 211.741854 
L 70.797791 214.3449 
L 70.836318 214.194142 
L 71.028953 213.516019 
L 71.06748 213.528341 
L 71.183061 213.239436 
L 71.645386 211.082431 
L 71.683913 211.14114 
L 71.876548 212.023946 
L 72.261818 213.972643 
L 72.531507 214.070636 
L 72.76267 214.594522 
L 72.839724 214.504791 
L 73.070886 214.106006 
L 73.302048 213.237406 
L 73.417629 213.370479 
L 73.648792 214.249227 
L 73.879954 214.974607 
L 73.995535 215.100432 
L 74.226697 215.874373 
L 74.342278 216.222712 
L 74.380806 216.12066 
L 74.534914 215.363679 
L 75.112819 209.938406 
L 75.2284 210.098732 
L 75.459563 211.06779 
L 75.806306 212.80499 
L 75.844833 212.743237 
L 75.998941 212.504488 
L 76.037468 212.533045 
L 76.191577 212.959228 
L 76.461266 213.54965 
L 76.692428 213.667937 
L 76.730955 213.611403 
L 76.885063 213.166956 
L 77.077699 212.763097 
L 77.19328 212.939078 
L 77.424442 213.64112 
L 77.462969 213.49413 
L 77.771185 212.10092 
L 77.809712 212.128317 
L 77.96382 212.556964 
L 78.349091 213.771004 
L 78.464672 213.534719 
L 78.772888 212.857321 
L 79.350794 212.544062 
L 79.581956 211.712862 
L 79.697537 211.908123 
L 79.736064 212.013509 
L 79.774591 211.981328 
L 80.275443 209.116918 
L 80.660713 204.043318 
L 80.737768 203.882268 
L 80.776295 203.903432 
L 80.891876 204.269746 
L 81.315673 205.846041 
L 81.431254 205.847055 
L 81.546835 206.143209 
L 81.62389 206.381378 
L 81.662417 206.240912 
L 82.00916 205.128779 
L 82.163268 205.047456 
L 82.278849 205.302006 
L 82.587066 206.740009 
L 82.702647 206.596354 
L 82.779701 206.568811 
L 82.818228 206.615778 
L 82.972336 207.163147 
L 83.588769 209.88912 
L 83.781404 210.57913 
L 84.205201 212.15528 
L 84.436364 212.95053 
L 84.551945 212.738309 
L 84.74458 212.300385 
L 84.783107 212.323723 
L 84.860161 212.254142 
L 85.283959 211.495132 
L 85.39954 211.592835 
L 85.438067 211.679376 
L 85.476594 211.630235 
L 85.669229 210.756561 
L 85.861864 210.173532 
L 85.977445 210.315447 
L 86.516824 212.165572 
L 86.863567 213.339748 
L 87.09473 214.014102 
L 87.287365 214.363745 
L 87.364419 213.824204 
L 87.634108 211.963498 
L 87.788216 211.576599 
L 88.13496 210.569852 
L 88.212014 210.481137 
L 88.250541 210.507664 
L 88.366122 210.57739 
L 88.597284 210.276018 
L 88.674338 210.358935 
L 89.098136 211.02981 
L 89.290771 211.585877 
L 89.753096 213.909586 
L 90.523636 217.502999 
L 90.60069 217.722468 
L 90.639217 217.692027 
L 90.87038 217.437622 
L 90.985961 217.458786 
L 91.140069 215.9038 
L 91.371231 214.648302 
L 91.525339 213.923357 
L 91.91061 211.963063 
L 91.987664 211.934216 
L 92.257353 211.116061 
L 92.29588 211.144908 
L 92.449988 211.551376 
L 92.912313 213.316699 
L 92.95084 213.248713 
L 93.182002 212.853117 
L 93.297583 212.982421 
L 93.528746 213.719543 
L 93.644327 214.006999 
L 93.682854 213.933504 
L 93.952543 213.356853 
L 94.106651 213.665618 
L 94.376341 214.085712 
L 94.64603 214.878498 
L 95.069827 216.232715 
L 95.108354 216.208071 
L 95.378044 216.030205 
L 95.570679 216.313892 
L 95.647733 216.490743 
L 95.68626 216.423772 
L 96.033003 215.172912 
L 96.148585 214.924451 
L 96.880598 212.867033 
L 96.99618 212.737584 
L 97.150288 212.546237 
L 97.188815 212.570155 
L 97.342923 212.919654 
L 97.728193 214.647577 
L 97.805247 214.864147 
L 97.843774 214.717303 
L 98.074937 214.046138 
L 98.190518 214.209508 
L 98.575788 214.934743 
L 98.845478 215.709554 
L 99.346329 217.526048 
L 99.384856 217.428345 
L 99.770127 215.417025 
L 99.808654 215.439348 
L 100.001289 215.845526 
L 100.155397 216.26562 
L 100.232451 216.217349 
L 100.386559 216.21271 
L 100.579194 216.599608 
L 101.1571 218.307237 
L 101.234154 218.13401 
L 101.542371 217.219747 
L 102.004695 214.751658 
L 102.274384 212.926757 
L 102.46702 212.498255 
L 102.582601 212.71468 
L 102.698182 213.033592 
L 102.736709 212.985321 
L 102.85229 212.521449 
L 103.044925 211.908848 
L 103.160506 212.073377 
L 103.391669 213.046494 
L 103.89252 215.209007 
L 103.931047 215.28743 
L 103.969574 215.184654 
L 104.277791 214.082958 
L 104.316318 214.118473 
L 104.740115 215.066221 
L 105.125386 216.397389 
L 105.20244 216.077752 
L 105.472129 214.138622 
L 105.549183 214.113834 
L 105.58771 214.158627 
L 105.780345 214.724841 
L 106.011507 215.697087 
L 106.050035 215.654614 
L 106.319724 214.78239 
L 106.435305 214.931554 
L 106.704994 215.853644 
L 106.897629 216.505819 
L 106.936157 216.496107 
L 107.090265 216.492773 
L 107.244373 216.681801 
L 107.2829 216.615119 
L 107.475535 216.365933 
L 107.745224 216.524229 
L 107.860806 215.866546 
L 108.361657 212.24559 
L 108.477238 212.073957 
L 108.515765 212.09947 
L 108.669873 212.102079 
L 108.785455 211.061267 
L 109.055144 209.033711 
L 109.209252 207.558453 
L 109.478941 205.379414 
L 109.633049 204.875533 
L 109.671577 204.910034 
L 109.941266 205.209956 
L 110.056847 205.465956 
L 110.365063 206.793064 
L 110.442117 206.660716 
L 110.557699 206.715221 
L 110.750334 207.499454 
L 110.865915 207.990579 
L 110.904442 207.93361 
L 111.020023 207.865623 
L 111.212658 208.230053 
L 111.251185 208.138583 
L 111.867618 206.304984 
L 111.944672 206.37558 
L 112.021726 206.46473 
L 112.060253 206.425591 
L 112.137307 206.452843 
L 112.445524 206.905698 
L 112.484051 206.88004 
L 112.599632 206.657527 
L 112.75374 206.203947 
L 112.792267 206.219023 
L 112.907848 206.014774 
L 113.254591 204.63519 
L 113.331646 204.561405 
L 113.370173 204.610547 
L 113.601335 204.897567 
L 113.986605 204.679548 
L 114.140713 203.840519 
L 114.44893 201.971115 
L 114.603038 201.568271 
L 114.641565 201.596538 
L 114.795673 201.889068 
L 114.872727 201.848044 
L 114.949781 201.814123 
L 115.065362 201.725118 
L 115.180944 202.000542 
L 115.604741 203.318808 
L 115.643268 203.431877 
L 115.720322 203.340117 
L 115.912957 203.11195 
L 115.951484 203.150364 
L 116.14412 203.741221 
L 116.375282 204.498058 
L 116.413809 204.448191 
L 116.567917 204.065642 
L 116.722025 203.884877 
L 116.837606 204.156532 
L 116.991715 204.828132 
L 117.030242 204.744924 
L 117.299931 204.064482 
L 117.56962 203.971853 
L 117.916364 204.974976 
L 118.301634 207.62325 
L 118.686904 209.56238 
L 119.573026 212.395333 
L 119.881243 213.291621 
L 120.266513 214.467247 
L 120.343567 214.416076 
L 120.57473 213.662429 
L 120.728838 213.350185 
L 120.767365 213.368015 
L 120.921473 213.684753 
L 121.422325 214.921551 
L 121.499379 214.630907 
L 121.769068 213.593863 
L 121.884649 213.720558 
L 122.115811 214.240529 
L 122.154338 214.108036 
L 122.385501 213.401211 
L 122.462555 213.263644 
L 122.732244 212.0986 
L 122.963406 211.795489 
L 123.117514 211.448745 
L 123.233096 211.635163 
L 123.425731 212.074537 
L 123.464258 212.020612 
L 123.656893 211.820422 
L 123.888055 212.231384 
L 124.234799 212.755849 
L 124.504488 212.434183 
L 124.774177 211.587326 
L 124.851231 211.550072 
L 125.043867 211.150272 
L 125.275029 210.180345 
L 125.467664 209.661243 
L 125.544718 209.742855 
L 125.852934 210.464321 
L 125.891461 210.418659 
L 126.122624 209.383355 
L 126.392313 207.210549 
L 126.623475 205.75892 
L 126.854638 205.077898 
L 127.162854 204.647076 
L 127.278435 204.920326 
L 127.548124 205.637443 
L 127.702232 205.809076 
L 127.740759 205.783418 
L 127.856341 205.850679 
L 128.203084 206.586061 
L 128.280138 206.88149 
L 128.318665 206.872937 
L 128.896571 205.59497 
L 129.050679 205.386372 
L 129.089206 205.421888 
L 129.243314 205.942149 
L 129.55153 206.972525 
L 129.82122 207.717764 
L 130.090909 208.122637 
L 130.167963 208.014787 
L 130.283544 207.982171 
L 130.437652 208.344426 
L 131.169666 210.794975 
L 131.285247 210.754241 
L 131.439356 210.799324 
L 131.670518 210.880936 
L 131.90168 211.514846 
L 132.094315 211.731417 
L 132.171369 211.713152 
L 132.518113 210.562169 
L 132.55664 210.594205 
L 132.672221 210.445621 
L 132.864856 209.989867 
L 133.442762 207.867073 
L 133.519816 207.801696 
L 133.558343 207.840255 
L 133.712451 208.16888 
L 133.750978 208.080454 
L 134.482992 204.7974 
L 134.560046 204.875533 
L 134.791208 205.491324 
L 134.868262 205.409131 
L 135.022371 205.351147 
L 135.369114 206.006801 
L 135.561749 206.701305 
L 135.638803 206.636073 
L 135.715857 206.7 
L 135.908493 207.442195 
L 136.101128 208.323552 
L 136.139655 208.263828 
L 136.33229 207.658476 
L 136.601979 206.733631 
L 136.71756 206.914396 
L 136.98725 208.083643 
L 137.295466 209.157217 
L 137.488101 209.161276 
L 137.642209 208.828448 
L 137.680736 208.851786 
L 137.834845 209.277679 
L 138.528331 211.75432 
L 138.68244 211.564568 
L 138.798021 210.231371 
L 139.06771 207.22432 
L 139.337399 206.480241 
L 139.684143 203.63888 
L 139.953832 202.704902 
L 140.030886 202.666488 
L 140.069413 202.708526 
L 140.300575 203.064548 
L 140.493211 203.586114 
L 140.531738 203.563066 
L 140.647319 202.7855 
L 140.917008 201.214569 
L 140.994062 201.245155 
L 141.263751 201.957489 
L 141.649022 203.806453 
L 141.918711 204.841323 
L 141.995765 204.936127 
L 142.034292 204.882781 
L 142.1884 204.388903 
L 142.226928 204.402674 
L 142.381036 204.88684 
L 142.496617 205.03238 
L 142.535144 204.994691 
L 143.074522 202.790284 
L 143.305685 201.908637 
L 143.575374 201.221817 
L 143.690955 201.109618 
L 143.729482 201.134696 
L 144.114753 201.540729 
L 144.268861 201.540004 
L 144.422969 202.02475 
L 144.769712 204.251626 
L 145.424672 208.395307 
L 145.925524 210.175706 
L 146.118159 210.352122 
L 146.272267 210.39764 
L 146.310794 210.439533 
L 146.349321 210.364879 
L 146.464902 209.009358 
L 146.811646 204.750578 
L 146.965754 204.530964 
L 147.081335 204.644177 
L 147.505132 205.774285 
L 147.697768 206.204817 
L 147.851876 206.364418 
L 147.967457 206.422692 
L 148.083038 206.468934 
L 148.275673 206.797848 
L 148.3142 206.721019 
L 148.506835 205.84691 
L 148.699471 205.197055 
L 148.930633 204.876693 
L 149.007687 205.01542 
L 149.123268 205.170672 
L 149.161795 205.147768 
L 149.315903 205.129793 
L 149.470012 205.536841 
L 150.356133 208.908176 
L 150.433188 208.748285 
L 150.934039 206.931791 
L 151.126674 206.815823 
L 151.396364 207.285348 
L 151.473418 207.211999 
L 151.588999 207.216637 
L 151.743107 207.66036 
L 151.858688 208.106547 
L 151.935742 208.056101 
L 152.012796 208.134089 
L 152.205432 208.922237 
L 152.821864 211.91682 
L 152.937445 212.001912 
L 153.053026 211.668794 
L 153.284189 210.490704 
L 153.39977 210.574346 
L 153.592405 210.481572 
L 153.78504 210.277033 
L 153.939148 210.626821 
L 154.093257 211.008791 
L 154.131784 210.987047 
L 154.285892 210.487515 
L 154.517054 209.768078 
L 154.709689 209.789243 
L 154.902325 209.531504 
L 155.09496 209.34436 
L 155.826974 210.479832 
L 155.942555 210.679297 
L 155.981082 210.664656 
L 156.096663 210.74221 
L 156.289298 210.90326 
L 156.404879 210.982698 
L 156.558987 211.336691 
L 156.636041 211.242467 
L 156.713096 211.123599 
L 157.136893 209.508455 
L 157.522163 208.307896 
L 157.637745 208.532294 
L 157.907434 209.894628 
L 158.446812 212.808614 
L 158.600921 211.802157 
L 158.793556 211.15607 
L 159.063245 210.935586 
L 159.101772 210.985018 
L 159.332934 211.106349 
L 159.487043 211.399603 
L 160.257583 213.456296 
L 160.334638 213.320468 
L 160.681381 211.709238 
L 161.028124 210.168603 
L 161.259287 210.251665 
L 161.490449 209.861143 
L 161.760138 207.686018 
L 162.029827 206.225836 
L 162.106881 206.160459 
L 162.26099 204.946564 
L 162.453625 204.23539 
L 162.684787 204.489505 
L 162.723314 204.583004 
L 162.761841 204.499362 
L 162.954476 203.635691 
L 162.993003 203.651201 
L 163.108585 203.993887 
L 163.416801 206.02869 
L 163.725017 207.789809 
L 163.917652 208.070597 
L 164.148815 208.985729 
L 164.379977 209.662982 
L 164.842301 208.880053 
L 164.957883 209.012837 
L 165.111991 209.177656 
L 165.227572 209.243613 
L 165.420207 209.840413 
L 166.344856 213.536024 
L 166.653072 213.596327 
L 166.922762 213.063454 
L 167.153924 213.09462 
L 167.269505 213.088822 
L 167.423613 213.378887 
L 167.885938 214.779925 
L 167.962992 214.635545 
L 168.155627 212.89878 
L 168.425316 211.461066 
L 168.733533 211.335966 
L 168.926168 211.922764 
L 169.118803 212.346337 
L 169.272911 212.338364 
L 169.388493 212.229789 
L 169.542601 212.10005 
L 169.581128 212.128607 
L 169.81229 212.465784 
L 169.850817 212.398523 
L 170.043452 212.157309 
L 170.159033 212.326477 
L 170.428723 213.31409 
L 170.85252 214.802974 
L 171.122209 215.393541 
L 171.160736 215.323525 
L 171.777169 214.00294 
L 172.778872 209.523386 
L 172.894453 209.724156 
L 173.164143 211.03155 
L 173.58794 212.952705 
L 173.973211 213.795502 
L 174.011738 213.628798 
L 174.474062 211.877101 
L 174.666697 211.962483 
L 175.398711 209.593402 
L 175.629873 209.475984 
L 175.899563 208.087122 
L 176.130725 205.220973 
L 176.361887 203.602205 
L 176.438941 203.127751 
L 176.670104 201.819632 
L 176.747158 201.886313 
L 176.901266 202.518774 
L 177.132428 203.249952 
L 177.980023 206.683475 
L 178.057077 206.573885 
L 178.172658 206.635058 
L 178.40382 207.076461 
L 178.712037 205.074853 
L 178.827618 205.259822 
L 179.135834 206.01318 
L 179.251415 206.072323 
L 179.444051 205.044122 
L 179.675213 203.757602 
L 179.752267 203.657869 
L 180.09901 202.045624 
L 180.176064 201.988945 
L 180.214591 202.029244 
L 180.484281 202.501813 
L 180.522808 202.470792 
L 180.638389 202.445424 
L 180.75397 202.764916 
L 181.177768 205.211406 
L 181.678619 208.563896 
L 181.755673 208.901508 
L 181.7942 208.779596 
L 181.909781 208.207729 
L 182.256525 205.233295 
L 182.372106 205.538001 
L 182.680322 207.403346 
L 182.872957 208.252377 
L 182.950012 207.975938 
L 183.450863 205.136172 
L 183.48939 205.16009 
L 183.643498 205.567862 
L 184.067296 207.653112 
L 184.182877 207.467128 
L 184.298458 207.215768 
L 184.452566 207.014563 
L 184.760783 207.391024 
L 184.79931 207.290422 
L 184.914891 207.111976 
L 184.953418 207.13343 
L 185.107526 207.558743 
L 185.454269 209.514398 
L 185.56985 210.05162 
L 185.608377 209.931738 
L 185.83954 209.264052 
L 186.147756 208.079874 
L 186.494499 206.188146 
L 186.995351 204.4005 
L 187.110932 204.493419 
L 187.303567 205.065286 
L 187.419148 204.950913 
L 187.53473 204.853644 
L 187.688838 204.604168 
L 187.727365 204.629101 
L 187.881473 205.055139 
L 188.652014 208.96529 
L 189.730771 214.663088 
L 189.961933 215.019109 
L 190.077514 215.219589 
L 190.116041 215.146094 
L 190.424258 214.452316 
L 190.578366 214.624818 
L 190.65542 214.759486 
L 190.693947 214.719187 
L 190.886582 214.510735 
L 190.963636 214.51059 
L 191.04069 214.215886 
L 191.387434 211.997418 
L 191.503015 212.080625 
L 191.580069 212.100485 
L 191.618596 212.053228 
L 191.734177 211.889713 
L 192.466191 208.828303 
L 192.543245 208.880633 
L 193.082624 210.004653 
L 193.699056 212.543193 
L 193.891692 213.149705 
L 194.392543 214.875164 
L 194.469597 214.768474 
L 194.854868 212.198043 
L 195.278665 210.353717 
L 195.355719 210.316462 
L 195.394246 210.368648 
L 195.933625 211.396849 
L 196.087733 211.262326 
L 196.12626 211.289579 
L 196.280368 211.216809 
L 196.434476 211.201008 
L 196.588585 211.438018 
L 196.627112 211.397284 
L 196.78122 210.516652 
L 197.089436 209.032551 
L 197.205017 209.147795 
L 197.43618 210.043068 
L 197.667342 210.690749 
L 197.782923 210.767143 
L 197.82145 210.690894 
L 197.937031 210.589567 
L 197.975558 210.637693 
L 198.168193 211.315092 
L 198.360829 211.933346 
L 198.553464 211.631974 
L 198.591991 211.653718 
L 198.823153 211.802737 
L 198.938734 211.932911 
L 199.285478 212.442011 
L 199.439586 212.397363 
L 199.555167 211.826655 
L 199.90191 210.154832 
L 200.094545 209.589053 
L 200.248654 209.637759 
L 200.441289 210.066841 
L 200.672451 210.811935 
L 200.710978 210.763374 
L 201.134776 208.572013 
L 201.982371 201.871817 
L 202.097952 201.728017 
L 202.136479 201.749906 
L 202.25206 201.901679 
L 202.290587 201.814703 
L 202.714384 200.04822 
L 202.984074 198.857664 
L 203.176709 198.586299 
L 203.407871 197.949924 
L 203.446398 197.961376 
L 203.908723 198.386109 
L 204.255466 198.420175 
L 204.525155 197.352399 
L 204.563682 197.375883 
L 204.717791 197.830043 
L 204.871899 198.626743 
L 204.948953 198.450906 
L 205.141588 197.481559 
L 205.758021 194.279102 
L 205.873602 194.072679 
L 205.912129 194.106745 
L 205.989183 194.078768 
L 206.104764 193.999909 
L 206.220345 194.297802 
L 206.875305 197.705667 
L 207.260575 199.774681 
L 207.568792 200.73852 
L 207.838481 201.447374 
L 207.992589 200.420188 
L 208.37786 196.709067 
L 208.454914 196.783866 
L 208.801657 195.916716 
L 208.917238 195.100301 
L 209.302509 192.294455 
L 209.649252 191.162028 
L 209.80336 191.351925 
L 210.150104 191.593284 
L 210.304212 191.313366 
L 210.342739 191.339893 
L 210.496847 191.835512 
L 210.84359 194.2159 
L 211.729712 200.61081 
L 211.922348 201.229644 
L 212.037929 201.106718 
L 212.15351 199.719451 
L 212.423199 196.82634 
L 212.577307 196.586721 
L 212.692888 196.730376 
L 212.924051 197.474601 
L 213.001105 197.373419 
L 213.155213 196.709212 
L 213.424902 195.605921 
L 213.540483 195.459222 
L 213.656064 195.741604 
L 214.349551 199.114243 
L 214.542186 199.798309 
L 214.657768 199.912103 
L 214.850403 200.644151 
L 214.927457 200.927983 
L 214.965984 200.859996 
L 215.120092 200.606316 
L 215.158619 200.643861 
L 215.235673 200.74026 
L 215.2742 200.650529 
L 215.351254 200.549347 
L 215.389781 200.57486 
L 215.775052 201.495791 
L 216.391484 203.835445 
L 216.699701 204.58025 
L 217.084971 206.169736 
L 217.123498 206.107259 
L 217.277606 205.923014 
L 217.316133 205.949977 
L 217.470242 206.350356 
L 217.816985 208.226719 
L 218.163728 209.758221 
L 219.550702 214.105137 
L 219.70481 212.892691 
L 219.935972 211.710252 
L 220.128608 211.474692 
L 220.937675 206.955999 
L 221.091784 206.837857 
L 221.322946 206.417183 
L 221.708216 204.889884 
L 221.823797 203.61902 
L 222.093487 200.452804 
L 222.247595 200.227536 
L 222.363176 200.288999 
L 222.594338 200.722719 
L 222.632865 200.694742 
L 222.748446 199.744674 
L 223.018136 197.87701 
L 223.09519 197.918033 
L 223.210771 198.100683 
L 223.441933 197.617241 
L 223.48046 197.645074 
L 223.634568 198.031247 
L 223.865731 199.109894 
L 223.942785 199.045822 
L 224.13542 198.839109 
L 224.173947 198.873175 
L 224.251001 198.9616 
L 224.289528 198.919272 
L 224.482163 198.627178 
L 224.52069 198.650226 
L 224.867434 199.009872 
L 225.060069 198.413652 
L 225.291231 197.834536 
L 225.406812 198.078794 
L 225.560921 198.58166 
L 225.599448 198.479173 
L 225.753556 197.749155 
L 225.984718 195.258597 
L 226.48557 189.362784 
L 226.986421 185.142129 
L 227.063475 185.037612 
L 227.102002 185.067039 
L 227.25611 185.611944 
L 227.448746 186.09669 
L 227.91107 187.240135 
L 227.949597 187.217521 
L 228.527503 185.445675 
L 228.643084 185.331156 
L 228.681611 185.365077 
L 228.835719 185.912591 
L 229.105409 187.203025 
L 229.143936 187.1117 
L 229.298044 185.282015 
L 229.60626 182.470226 
L 229.760368 182.34759 
L 229.953003 182.487766 
L 230.030058 182.554448 
L 230.222693 182.32889 
L 230.338274 182.60156 
L 231.147342 185.48148 
L 231.30145 185.678336 
L 231.339977 185.656737 
L 231.455558 185.653113 
L 231.571139 185.837647 
L 231.609666 185.686598 
L 231.802301 183.682092 
L 232.534315 168.083961 
L 232.649896 160.193063 
L 232.688423 151.748708 
L 232.726951 48.483843 
L 232.765478 69.45825 
L 232.919586 198.282608 
L 233.035167 203.76601 
L 233.073694 203.591188 
L 234.03687 195.505464 
L 234.845938 181.359832 
L 235.231208 170.971854 
L 235.385316 162.554751 
L 235.462371 139.692965 
L 235.500898 42.849683 
L 235.539425 113.165285 
L 235.693533 204.416445 
L 235.73206 205.66803 
L 235.770587 205.262577 
L 236.425547 192.73064 
L 237.773993 177.978205 
L 238.043682 170.200956 
L 238.159264 163.03196 
L 238.197791 157.259508 
L 238.274845 43.956307 
L 238.313372 115.994614 
L 238.46748 203.759341 
L 238.506007 204.776381 
L 238.544534 204.23626 
L 238.968331 196.309412 
L 239.50771 191.833337 
L 239.815926 190.66235 
L 240.047089 188.995165 
L 240.509413 181.121808 
L 240.856157 173.337311 
L 241.010265 164.553315 
L 241.087319 143.817367 
L 241.125846 36.247334 
L 241.164373 97.748499 
L 241.318481 205.290409 
L 241.357008 206.712756 
L 241.395535 206.248305 
L 241.742278 199.81266 
L 243.090725 186.149166 
L 243.553049 177.97835 
L 243.93832 167.768093 
L 244.053901 157.373156 
L 244.092428 139.184735 
L 244.130955 42.320868 
L 244.169482 111.493026 
L 244.32359 203.037296 
L 244.362117 204.503856 
L 244.439171 203.958661 
L 246.365524 179.825141 
L 246.750794 175.453727 
L 246.943429 169.793039 
L 247.05901 158.692582 
L 247.097537 138.765076 
L 247.136064 38.526396 
L 247.174591 103.6878 
L 247.3287 203.161381 
L 247.367227 204.422099 
L 247.405754 203.940396 
L 247.791024 196.854462 
L 248.060713 195.37413 
L 248.484511 194.717896 
L 249.370633 188.137582 
L 249.524741 187.741406 
L 249.640322 186.650582 
L 250.564971 171.468922 
L 250.719079 165.45859 
L 250.796133 157.181084 
L 250.834661 138.200457 
L 250.873188 42.257086 
L 250.911715 110.487439 
L 251.065823 201.855872 
L 251.142877 203.867337 
L 251.181404 203.47551 
L 251.451093 201.004377 
L 251.566674 200.861591 
L 251.605201 200.887974 
L 251.682255 200.73997 
L 252.067526 198.485987 
L 252.375742 196.08284 
L 252.568377 195.780018 
L 252.722486 195.769726 
L 252.992175 195.852208 
L 253.531554 195.03188 
L 253.762716 193.693609 
L 254.032405 188.602179 
L 254.841473 169.937999 
L 254.957054 162.890479 
L 255.034108 135.815865 
L 255.072635 44.6511 
L 255.111162 118.216996 
L 255.26527 203.591623 
L 255.303797 204.204514 
L 255.342325 203.313879 
L 255.843176 187.950874 
L 256.806352 171.229738 
L 256.96046 163.310138 
L 257.037514 143.722563 
L 257.076041 37.668377 
L 257.114568 97.952168 
L 257.268677 202.020836 
L 257.345731 204.485591 
L 257.384258 204.119132 
L 258.154799 195.12132 
L 258.424488 193.668386 
L 258.540069 193.699987 
L 258.617123 193.675634 
L 258.771231 193.230462 
L 259.117975 191.814203 
L 259.156502 191.830003 
L 259.31061 191.857256 
L 259.580299 191.67823 
L 259.69588 191.665619 
L 259.849988 191.988879 
L 260.389367 193.679258 
L 260.543475 194.291859 
L 260.582002 194.274029 
L 260.697583 193.712454 
L 261.159908 190.291833 
L 261.275489 190.458247 
L 261.506651 191.524138 
L 261.660759 192.296195 
L 261.699287 192.120358 
L 261.930449 191.264804 
L 262.238665 191.391789 
L 262.354246 191.00924 
L 262.623936 189.451934 
L 263.047733 187.107351 
L 263.163314 187.396981 
L 263.355949 187.961021 
L 263.394476 187.908545 
L 263.548585 187.507876 
L 264.010909 183.61686 
L 264.897031 173.028256 
L 265.089666 168.672643 
L 265.205247 162.403123 
L 265.282301 142.253973 
L 265.320829 39.025928 
L 265.359356 100.148167 
L 265.513464 199.910943 
L 265.590518 203.054546 
L 265.667572 202.850732 
L 265.783153 202.604445 
L 265.82168 202.64228 
L 266.014315 203.272711 
L 266.438113 204.774786 
L 266.823383 204.936127 
L 266.977491 204.613301 
L 267.247181 203.663813 
L 267.285708 203.677294 
L 267.478343 203.946775 
L 267.632451 204.365709 
L 267.670978 204.257569 
L 267.90214 203.660334 
L 268.017722 203.462028 
L 268.056249 203.485657 
L 268.17183 203.819355 
L 269.135006 207.884903 
L 269.21206 207.781112 
L 269.635857 206.850034 
L 269.828493 207.103424 
L 270.021128 207.694571 
L 271.061358 211.84695 
L 271.176939 211.971905 
L 271.215466 211.946682 
L 271.485155 211.472953 
L 271.562209 211.558044 
L 271.94748 212.320969 
L 271.986007 212.276611 
L 272.101588 211.444831 
L 272.563913 207.894905 
L 272.679494 208.139308 
L 274.182048 213.279444 
L 274.220575 213.319308 
L 274.259102 213.236391 
L 274.759954 210.043212 
L 274.837008 210.119316 
L 275.106697 210.823242 
L 275.145224 210.716407 
L 275.453441 209.313049 
L 275.800184 207.425815 
L 275.838711 207.437556 
L 275.992819 207.684133 
L 276.416617 205.714707 
L 276.570725 205.475523 
L 276.686306 205.707314 
L 276.955995 207.124878 
L 277.148631 207.687612 
L 277.41832 208.107272 
L 277.495374 207.993623 
L 278.150334 205.303165 
L 278.227388 205.369267 
L 278.45855 206.279616 
L 278.882348 207.663404 
L 278.997929 207.466404 
L 279.306145 206.127553 
L 279.421726 205.864885 
L 279.575834 205.710793 
L 279.614361 205.734566 
L 279.729942 205.896487 
L 279.76847 205.824007 
L 279.845524 205.735581 
L 279.884051 205.760369 
L 280.115213 206.349052 
L 280.192267 206.127553 
L 280.307848 205.93896 
L 280.346375 205.980274 
L 280.500483 206.520829 
L 280.885754 207.999856 
L 281.232497 209.255645 
L 281.271024 209.206358 
L 281.540713 208.630722 
L 281.694822 209.009068 
L 282.041565 210.826576 
L 282.50389 213.062874 
L 282.735052 213.434552 
L 282.927687 213.231318 
L 283.081795 213.189424 
L 283.120322 213.210009 
L 283.158849 213.137529 
L 283.505593 211.768671 
L 283.54412 211.798388 
L 283.659701 211.890873 
L 283.698228 211.84492 
L 284.006444 211.372351 
L 284.507296 210.064812 
L 284.58435 209.994651 
L 284.622877 210.024948 
L 284.699931 210.082642 
L 284.738458 210.028572 
L 284.854039 209.993201 
L 285.046674 210.073654 
L 285.162255 210.209916 
L 285.393418 210.627401 
L 285.508999 210.189912 
L 285.740161 209.495119 
L 285.855742 209.659938 
L 286.048377 210.333277 
L 286.125432 210.23514 
L 286.202486 210.214845 
L 286.241013 210.264566 
L 286.356594 210.481716 
L 286.395121 210.460987 
L 286.587756 210.292109 
L 286.626283 210.323855 
L 286.857445 210.487225 
L 286.973026 210.563474 
L 287.165662 211.151867 
L 287.31977 211.382498 
L 287.473878 211.668794 
L 287.782094 212.965316 
L 288.128838 214.539727 
L 288.167365 214.49218 
L 288.321473 213.623724 
L 288.899379 209.719807 
L 289.01496 209.731838 
L 289.169068 210.130333 
L 289.361703 210.76062 
L 289.40023 210.734817 
L 289.592865 210.268335 
L 289.901082 208.887012 
L 289.939609 208.925281 
L 290.093717 209.401475 
L 290.517514 211.797228 
L 290.979839 214.061359 
L 291.09542 214.176457 
L 291.133947 214.149639 
L 291.365109 213.956698 
L 292.020069 210.063362 
L 292.097123 209.784314 
L 292.675029 205.993465 
L 292.906191 205.373326 
L 293.021772 205.467985 
L 293.329988 206.504739 
L 293.676732 208.337323 
L 294.177583 211.100551 
L 294.21611 211.057353 
L 294.447273 210.6145 
L 294.716962 209.866216 
L 294.832543 210.026832 
L 295.102232 210.556516 
L 295.179287 210.390972 
L 296.527733 205.104135 
L 296.681841 205.15951 
L 296.797422 204.427752 
L 297.067112 202.739548 
L 297.182693 202.344822 
L 297.298274 201.547252 
L 297.567963 198.763005 
L 297.799125 198.650806 
L 297.914707 198.934928 
L 298.107342 199.682631 
L 298.145869 199.589132 
L 298.723774 197.104518 
L 298.993464 196.563527 
L 299.147572 196.568746 
L 299.340207 196.87838 
L 299.378734 196.827064 
L 299.494315 196.495686 
L 299.725478 195.783062 
L 299.995167 195.909178 
L 300.149275 195.55707 
L 300.187802 195.579249 
L 300.496018 195.940344 
L 300.650127 195.627955 
L 300.688654 195.677966 
L 300.842762 196.320574 
L 301.150978 197.577667 
L 301.420667 197.485618 
L 301.767411 196.525982 
L 301.882992 196.520184 
L 302.114154 196.885773 
L 302.152681 196.855476 
L 302.306789 196.800827 
L 302.460898 197.102778 
L 302.730587 198.460764 
L 303.000276 199.960375 
L 303.038803 199.918771 
L 303.192911 199.080178 
L 303.501128 196.982751 
L 303.770817 197.143512 
L 303.924925 197.718568 
L 304.11756 198.586299 
L 304.156087 198.518168 
L 304.348723 198.29377 
L 304.502831 198.665592 
L 304.541358 198.730824 
L 304.579885 198.651676 
L 304.77252 198.082563 
L 304.811047 198.094015 
L 304.888101 198.151274 
L 304.926628 198.109236 
L 305.042209 198.116918 
L 305.273372 198.515268 
L 305.311899 198.467432 
L 305.466007 198.320007 
L 305.504534 198.348854 
L 305.658642 198.775327 
L 306.814453 204.50777 
L 308.008792 212.36982 
L 308.432589 213.500219 
L 308.702278 214.274885 
L 309.010495 215.375131 
L 309.049022 215.239739 
L 309.434292 213.454556 
L 309.5884 213.250597 
L 309.935144 211.440047 
L 310.474522 211.548332 
L 310.590104 211.70228 
L 310.628631 211.588051 
L 310.782739 211.342199 
L 310.89832 211.554276 
L 311.28359 213.052002 
L 311.360644 212.945022 
L 311.745915 211.119106 
L 311.784442 211.15781 
L 311.977077 211.715616 
L 312.092658 212.012784 
L 312.131185 211.910442 
L 312.439402 211.045611 
L 312.59351 211.359884 
L 313.132888 213.25973 
L 313.171415 213.107812 
L 313.787848 208.797571 
L 313.903429 208.738717 
L 314.057537 209.084302 
L 314.250173 209.828817 
L 314.2887 209.743725 
L 314.635443 208.579696 
L 314.905132 208.255421 
L 314.943659 208.302533 
L 315.136295 208.906726 
L 315.598619 211.525284 
L 315.98389 213.257266 
L 316.600322 215.006788 
L 316.870012 215.56039 
L 317.216755 216.386227 
L 317.255282 216.366078 
L 317.447917 216.364193 
L 317.679079 216.75776 
L 317.756133 216.897356 
L 317.794661 216.841547 
L 318.334039 214.856464 
L 318.71931 211.274358 
L 318.834891 211.333212 
L 318.911945 211.374525 
L 318.950472 211.319875 
L 319.258688 211.052134 
L 319.412796 211.454398 
L 319.798067 213.400776 
L 320.183337 215.184074 
L 320.607135 213.580816 
L 320.79977 213.038086 
L 321.377675 213.356998 
L 321.493257 213.468907 
L 321.531784 213.438321 
L 321.724419 212.939513 
L 321.917054 211.282765 
L 322.148216 210.109894 
L 322.263797 210.072784 
L 322.340852 209.710529 
L 322.572014 208.666237 
L 322.687595 208.834246 
L 322.918757 209.874914 
L 323.265501 211.181293 
L 323.727825 212.276031 
L 323.766352 212.252113 
L 323.92046 211.19463 
L 324.382785 207.55193 
L 324.498366 207.181267 
L 324.806582 205.145594 
L 324.883636 205.234164 
L 325.076272 206.068989 
L 325.268907 206.961508 
L 325.307434 206.922514 
L 325.423015 206.333831 
L 325.885339 203.251981 
L 325.923867 203.298948 
L 326.077975 203.92648 
L 327.002624 209.049077 
L 327.079678 208.757417 
L 327.31084 207.927666 
L 327.426421 207.845764 
L 327.464948 207.888962 
L 327.811692 208.592598 
L 328.274016 210.091774 
L 328.389597 210.215425 
L 328.582232 209.773152 
L 328.620759 209.804463 
L 329.083084 210.702491 
L 329.121611 210.558835 
L 329.506881 208.790468 
L 329.622463 208.609268 
L 329.66099 208.634781 
L 329.815098 209.052846 
L 330.200368 211.118091 
L 330.508585 212.24443 
L 330.585639 212.176444 
L 331.08649 211.03097 
L 331.202071 211.045901 
L 331.702923 210.045242 
L 331.818504 210.183824 
L 331.934085 210.451275 
L 332.011139 210.385318 
L 332.165247 210.258768 
L 332.434937 209.335953 
L 332.666099 208.952968 
L 332.78168 208.969929 
L 332.935788 209.379731 
L 333.205478 210.295733 
L 333.244005 210.260073 
L 333.43664 210.163239 
L 333.590748 210.538831 
L 333.937491 212.253852 
L 334.399816 214.321272 
L 334.900667 215.930328 
L 334.977722 216.105295 
L 335.016249 215.999039 
L 335.13183 214.956052 
L 335.362992 213.557043 
L 335.555627 213.081284 
L 335.940898 211.570656 
L 336.17206 211.511802 
L 336.518803 209.284492 
L 336.634384 209.457864 
L 336.82702 210.218904 
L 336.865547 210.134392 
L 337.096709 207.856346 
L 337.443452 205.503935 
L 337.520506 205.579749 
L 337.713142 206.437188 
L 338.021358 208.507796 
L 338.098412 208.400381 
L 338.213993 208.265133 
L 338.25252 208.319203 
L 338.368101 208.509101 
L 338.445155 208.110026 
L 338.868953 203.209363 
L 339.061588 202.998156 
L 339.138642 203.027873 
L 339.177169 202.962496 
L 339.485386 201.438822 
L 339.716548 200.156506 
L 339.793602 200.2142 
L 339.94771 200.793895 
L 341.411738 208.231502 
L 342.451968 211.348867 
L 342.798711 209.157217 
L 342.875765 209.228102 
L 343.106928 208.836565 
L 343.183982 208.941082 
L 344.031577 211.364088 
L 344.224212 212.160498 
L 344.262739 212.149191 
L 344.416847 211.862026 
L 344.609482 211.478461 
L 344.725063 211.619073 
L 345.03328 212.332856 
L 345.071807 212.303139 
L 345.996456 207.687902 
L 346.034983 207.717764 
L 346.420253 208.546066 
L 346.612888 208.958187 
L 346.72847 208.190769 
L 347.229321 204.014471 
L 347.49901 203.411872 
L 347.576064 203.47464 
L 347.730173 204.077094 
L 348.076916 205.500311 
L 348.15397 205.329983 
L 348.346605 204.921486 
L 348.462186 205.173281 
L 348.731876 206.620127 
L 349.617998 211.977994 
L 349.695052 212.06294 
L 349.733579 211.951611 
L 349.926214 211.389166 
L 349.964741 211.398878 
L 350.118849 211.7204 
L 350.272957 212.17369 
L 350.311484 212.127012 
L 351.159079 210.335887 
L 351.274661 209.862302 
L 351.736985 206.883084 
L 351.92962 206.643611 
L 352.083728 206.631724 
L 352.314891 207.231713 
L 352.353418 207.305933 
L 352.391945 207.24215 
L 352.546053 206.887433 
L 352.58458 206.924398 
L 352.738688 207.456256 
L 352.931323 207.992898 
L 353.162486 208.663773 
L 353.23954 208.767854 
L 353.278067 208.704652 
L 353.470702 208.292965 
L 353.509229 208.307027 
L 353.586283 208.231647 
L 353.701864 207.412913 
L 353.933026 205.840242 
L 354.318297 204.855964 
L 354.356824 204.889305 
L 354.510932 205.328388 
L 355.050311 207.317385 
L 355.127365 207.40842 
L 355.165892 207.343332 
L 355.397054 206.790745 
L 355.666743 206.99021 
L 355.897906 207.614698 
L 356.129068 208.140033 
L 356.668446 209.487581 
L 357.130771 211.351187 
L 357.40046 212.44259 
L 357.631623 213.126367 
L 357.67015 213.136949 
L 358.171001 211.671548 
L 358.325109 211.637483 
L 358.556272 211.474113 
L 358.787434 211.863475 
L 358.825961 211.823321 
L 359.057123 211.397284 
L 359.09565 211.422797 
L 359.249758 211.640527 
L 359.288285 211.523399 
L 359.442394 210.570287 
L 359.75061 208.471846 
L 359.827664 208.416181 
L 359.866191 208.449957 
L 360.212934 208.773798 
L 360.328516 208.489386 
L 360.598205 207.633397 
L 360.636732 207.657171 
L 360.79084 207.889542 
L 360.829367 207.774733 
L 361.253165 206.411385 
L 361.522854 206.336295 
L 362.062232 207.864609 
L 362.331922 208.83845 
L 362.601611 210.074524 
L 362.755719 210.300951 
L 362.909827 210.722205 
L 363.372152 211.97321 
L 363.487733 212.072218 
L 363.718895 211.635018 
L 363.757422 211.671258 
L 364.142693 212.360398 
L 364.219747 212.266319 
L 364.373855 212.223846 
L 364.605017 212.585811 
L 364.643544 212.472452 
L 365.028815 211.306394 
L 365.144396 211.482375 
L 365.799356 212.980102 
L 365.953464 213.126947 
L 365.991991 213.079545 
L 366.146099 212.602191 
L 366.415788 211.538765 
L 366.531369 211.632699 
L 366.762532 212.374894 
L 367.224856 214.458404 
L 367.30191 214.368384 
L 367.494545 214.142681 
L 367.841289 213.118104 
L 367.95687 213.214792 
L 368.188032 213.851457 
L 368.303613 214.114994 
L 368.34214 214.094555 
L 368.419194 213.705482 
L 368.881519 209.212012 
L 369.151208 208.207149 
L 369.228262 208.136844 
L 369.65206 207.071967 
L 369.998803 204.87133 
L 370.075857 204.735502 
L 370.114384 204.754202 
L 370.229965 205.076448 
L 370.538182 206.501695 
L 370.576709 206.460381 
L 370.884925 204.893508 
L 370.961979 205.03151 
L 371.154614 206.01318 
L 371.424304 207.308832 
L 371.539885 207.375079 
L 371.693993 207.832138 
L 372.426007 210.818748 
L 372.695696 210.83078 
L 373.350656 207.13662 
L 373.543291 207.031813 
L 373.581818 207.023551 
L 373.581818 207.023551 
" style="fill:none;stroke:#ff0000;stroke-linecap:square;stroke-width:1.5;"/>
   </g>
   <g id="line2d_20">
    <path clip-path="url(#p3a73e44ab6)" d="M 258.00069 201.264 
L 296.450679 201.264 
L 296.450679 201.264 
" style="fill:none;stroke:#000000;stroke-linecap:square;stroke-width:1.5;"/>
   </g>
   <g id="line2d_21">
    <path clip-path="url(#p3a73e44ab6)" d="M 258.00069 179.52 
L 258.00069 178.0704 
L 258.00069 176.6208 
L 258.00069 175.1712 
L 258.00069 173.7216 
L 258.00069 172.272 
L 258.00069 170.8224 
L 258.00069 169.3728 
L 258.00069 167.9232 
L 258.00069 166.4736 
L 258.00069 165.024 
L 258.00069 163.5744 
L 258.00069 162.1248 
L 258.00069 160.6752 
L 258.00069 159.2256 
L 258.00069 157.776 
L 258.00069 156.3264 
L 258.00069 154.8768 
L 258.00069 153.4272 
L 258.00069 151.9776 
" style="fill:none;stroke:#000000;stroke-linecap:square;stroke-width:1.5;"/>
   </g>
   <g id="patch_3">
    <path d="M 54 252 
L 54 34.56 
" style="fill:none;stroke:#000000;stroke-linecap:square;stroke-linejoin:miter;stroke-width:0.8;"/>
   </g>
   <g id="patch_4">
    <path d="M 54 252 
L 388.8 252 
" style="fill:none;stroke:#000000;stroke-linecap:square;stroke-linejoin:miter;stroke-width:0.8;"/>
   </g>
   <g id="text_20">
    <!-- 500 ms -->
    <g transform="translate(258.00069 199.8144)scale(0.12 -0.12)">
     <use xlink:href="#DejaVuSans-35"/>
     <use x="63.623047" xlink:href="#DejaVuSans-30"/>
     <use x="127.246094" xlink:href="#DejaVuSans-30"/>
     <use x="190.869141" xlink:href="#DejaVuSans-20"/>
     <use x="222.65625" xlink:href="#DejaVuSans-6d"/>
     <use x="320.068359" xlink:href="#DejaVuSans-73"/>
    </g>
   </g>
   <g id="text_21">
    <!-- 20 mV -->
    <g transform="translate(261.853395 150.528)scale(0.12 -0.12)">
     <use xlink:href="#DejaVuSans-32"/>
     <use x="63.623047" xlink:href="#DejaVuSans-30"/>
     <use x="127.246094" xlink:href="#DejaVuSans-20"/>
     <use x="159.033203" xlink:href="#DejaVuSans-6d"/>
     <use x="256.445312" xlink:href="#DejaVuSans-56"/>
    </g>
   </g>
  </g>
 </g>
 <defs>
  <clipPath id="p3a73e44ab6">
   <rect height="217.44" width="334.8" x="54" y="34.56"/>
  </clipPath>
 </defs>
</svg>
