<?xml version="1.0" encoding="utf-8" standalone="no"?>
<!DOCTYPE svg PUBLIC "-//W3C//DTD SVG 1.1//EN"
  "http://www.w3.org/Graphics/SVG/1.1/DTD/svg11.dtd">
<svg height="288pt" version="1.1" viewBox="0 0 432 288" width="432pt" xmlns="http://www.w3.org/2000/svg" xmlns:xlink="http://www.w3.org/1999/xlink">
 <metadata>
  <rdf:RDF xmlns:cc="http://creativecommons.org/ns#" xmlns:dc="http://purl.org/dc/elements/1.1/" xmlns:rdf="http://www.w3.org/1999/02/22-rdf-syntax-ns#">
   <cc:Work>
    <dc:type rdf:resource="http://purl.org/dc/dcmitype/StillImage"/>
    <dc:date>2021-07-05T15:15:02.829472</dc:date>
    <dc:format>image/svg+xml</dc:format>
    <dc:creator>
     <cc:Agent>
      <dc:title>Matplotlib v3.4.1, https://matplotlib.org/</dc:title>
     </cc:Agent>
    </dc:creator>
   </cc:Work>
  </rdf:RDF>
 </metadata>
 <defs>
  <style type="text/css">*{stroke-linecap:butt;stroke-linejoin:round;}</style>
 </defs>
 <g id="figure_1">
  <g id="patch_1">
   <path d="M 0 288 
L 432 288 
L 432 0 
L 0 0 
z
" style="fill:none;"/>
  </g>
  <g id="axes_1">
   <g id="patch_2">
    <path d="M 54 252 
L 388.8 252 
L 388.8 34.56 
L 54 34.56 
z
" style="fill:#ffffff;"/>
   </g>
   <g id="matplotlib.axis_1">
    <g id="xtick_1">
     <g id="line2d_1">
      <defs>
       <path d="M 0 0 
L 0 3.5 
" id="me6f3d1973d" style="stroke:#000000;stroke-width:0.8;"/>
      </defs>
      <g>
       <use style="stroke:#000000;stroke-width:0.8;" x="65.365478" xlink:href="#me6f3d1973d" y="252"/>
      </g>
     </g>
     <g id="text_1">
      <!-- 0 -->
      <g transform="translate(61.547978 268.118125)scale(0.12 -0.12)">
       <defs>
        <path d="M 2034 4250 
Q 1547 4250 1301 3770 
Q 1056 3291 1056 2328 
Q 1056 1369 1301 889 
Q 1547 409 2034 409 
Q 2525 409 2770 889 
Q 3016 1369 3016 2328 
Q 3016 3291 2770 3770 
Q 2525 4250 2034 4250 
z
M 2034 4750 
Q 2819 4750 3233 4129 
Q 3647 3509 3647 2328 
Q 3647 1150 3233 529 
Q 2819 -91 2034 -91 
Q 1250 -91 836 529 
Q 422 1150 422 2328 
Q 422 3509 836 4129 
Q 1250 4750 2034 4750 
z
" id="DejaVuSans-30" transform="scale(0.015625)"/>
       </defs>
       <use xlink:href="#DejaVuSans-30"/>
      </g>
     </g>
    </g>
    <g id="xtick_2">
     <g id="line2d_2">
      <g>
       <use style="stroke:#000000;stroke-width:0.8;" x="103.89252" xlink:href="#me6f3d1973d" y="252"/>
      </g>
     </g>
     <g id="text_2">
      <!-- 500 -->
      <g transform="translate(92.44002 268.118125)scale(0.12 -0.12)">
       <defs>
        <path d="M 691 4666 
L 3169 4666 
L 3169 4134 
L 1269 4134 
L 1269 2991 
Q 1406 3038 1543 3061 
Q 1681 3084 1819 3084 
Q 2600 3084 3056 2656 
Q 3513 2228 3513 1497 
Q 3513 744 3044 326 
Q 2575 -91 1722 -91 
Q 1428 -91 1123 -41 
Q 819 9 494 109 
L 494 744 
Q 775 591 1075 516 
Q 1375 441 1709 441 
Q 2250 441 2565 725 
Q 2881 1009 2881 1497 
Q 2881 1984 2565 2268 
Q 2250 2553 1709 2553 
Q 1456 2553 1204 2497 
Q 953 2441 691 2322 
L 691 4666 
z
" id="DejaVuSans-35" transform="scale(0.015625)"/>
       </defs>
       <use xlink:href="#DejaVuSans-35"/>
       <use x="63.623047" xlink:href="#DejaVuSans-30"/>
       <use x="127.246094" xlink:href="#DejaVuSans-30"/>
      </g>
     </g>
    </g>
    <g id="xtick_3">
     <g id="line2d_3">
      <g>
       <use style="stroke:#000000;stroke-width:0.8;" x="142.419563" xlink:href="#me6f3d1973d" y="252"/>
      </g>
     </g>
     <g id="text_3">
      <!-- 1000 -->
      <g transform="translate(127.149563 268.118125)scale(0.12 -0.12)">
       <defs>
        <path d="M 794 531 
L 1825 531 
L 1825 4091 
L 703 3866 
L 703 4441 
L 1819 4666 
L 2450 4666 
L 2450 531 
L 3481 531 
L 3481 0 
L 794 0 
L 794 531 
z
" id="DejaVuSans-31" transform="scale(0.015625)"/>
       </defs>
       <use xlink:href="#DejaVuSans-31"/>
       <use x="63.623047" xlink:href="#DejaVuSans-30"/>
       <use x="127.246094" xlink:href="#DejaVuSans-30"/>
       <use x="190.869141" xlink:href="#DejaVuSans-30"/>
      </g>
     </g>
    </g>
    <g id="xtick_4">
     <g id="line2d_4">
      <g>
       <use style="stroke:#000000;stroke-width:0.8;" x="180.946605" xlink:href="#me6f3d1973d" y="252"/>
      </g>
     </g>
     <g id="text_4">
      <!-- 1500 -->
      <g transform="translate(165.676605 268.118125)scale(0.12 -0.12)">
       <use xlink:href="#DejaVuSans-31"/>
       <use x="63.623047" xlink:href="#DejaVuSans-35"/>
       <use x="127.246094" xlink:href="#DejaVuSans-30"/>
       <use x="190.869141" xlink:href="#DejaVuSans-30"/>
      </g>
     </g>
    </g>
    <g id="xtick_5">
     <g id="line2d_5">
      <g>
       <use style="stroke:#000000;stroke-width:0.8;" x="219.473648" xlink:href="#me6f3d1973d" y="252"/>
      </g>
     </g>
     <g id="text_5">
      <!-- 2000 -->
      <g transform="translate(204.203648 268.118125)scale(0.12 -0.12)">
       <defs>
        <path d="M 1228 531 
L 3431 531 
L 3431 0 
L 469 0 
L 469 531 
Q 828 903 1448 1529 
Q 2069 2156 2228 2338 
Q 2531 2678 2651 2914 
Q 2772 3150 2772 3378 
Q 2772 3750 2511 3984 
Q 2250 4219 1831 4219 
Q 1534 4219 1204 4116 
Q 875 4013 500 3803 
L 500 4441 
Q 881 4594 1212 4672 
Q 1544 4750 1819 4750 
Q 2544 4750 2975 4387 
Q 3406 4025 3406 3419 
Q 3406 3131 3298 2873 
Q 3191 2616 2906 2266 
Q 2828 2175 2409 1742 
Q 1991 1309 1228 531 
z
" id="DejaVuSans-32" transform="scale(0.015625)"/>
       </defs>
       <use xlink:href="#DejaVuSans-32"/>
       <use x="63.623047" xlink:href="#DejaVuSans-30"/>
       <use x="127.246094" xlink:href="#DejaVuSans-30"/>
       <use x="190.869141" xlink:href="#DejaVuSans-30"/>
      </g>
     </g>
    </g>
    <g id="xtick_6">
     <g id="line2d_6">
      <g>
       <use style="stroke:#000000;stroke-width:0.8;" x="258.00069" xlink:href="#me6f3d1973d" y="252"/>
      </g>
     </g>
     <g id="text_6">
      <!-- 2500 -->
      <g transform="translate(242.73069 268.118125)scale(0.12 -0.12)">
       <use xlink:href="#DejaVuSans-32"/>
       <use x="63.623047" xlink:href="#DejaVuSans-35"/>
       <use x="127.246094" xlink:href="#DejaVuSans-30"/>
       <use x="190.869141" xlink:href="#DejaVuSans-30"/>
      </g>
     </g>
    </g>
    <g id="xtick_7">
     <g id="line2d_7">
      <g>
       <use style="stroke:#000000;stroke-width:0.8;" x="296.527733" xlink:href="#me6f3d1973d" y="252"/>
      </g>
     </g>
     <g id="text_7">
      <!-- 3000 -->
      <g transform="translate(281.257733 268.118125)scale(0.12 -0.12)">
       <defs>
        <path d="M 2597 2516 
Q 3050 2419 3304 2112 
Q 3559 1806 3559 1356 
Q 3559 666 3084 287 
Q 2609 -91 1734 -91 
Q 1441 -91 1130 -33 
Q 819 25 488 141 
L 488 750 
Q 750 597 1062 519 
Q 1375 441 1716 441 
Q 2309 441 2620 675 
Q 2931 909 2931 1356 
Q 2931 1769 2642 2001 
Q 2353 2234 1838 2234 
L 1294 2234 
L 1294 2753 
L 1863 2753 
Q 2328 2753 2575 2939 
Q 2822 3125 2822 3475 
Q 2822 3834 2567 4026 
Q 2313 4219 1838 4219 
Q 1578 4219 1281 4162 
Q 984 4106 628 3988 
L 628 4550 
Q 988 4650 1302 4700 
Q 1616 4750 1894 4750 
Q 2613 4750 3031 4423 
Q 3450 4097 3450 3541 
Q 3450 3153 3228 2886 
Q 3006 2619 2597 2516 
z
" id="DejaVuSans-33" transform="scale(0.015625)"/>
       </defs>
       <use xlink:href="#DejaVuSans-33"/>
       <use x="63.623047" xlink:href="#DejaVuSans-30"/>
       <use x="127.246094" xlink:href="#DejaVuSans-30"/>
       <use x="190.869141" xlink:href="#DejaVuSans-30"/>
      </g>
     </g>
    </g>
    <g id="xtick_8">
     <g id="line2d_8">
      <g>
       <use style="stroke:#000000;stroke-width:0.8;" x="335.054776" xlink:href="#me6f3d1973d" y="252"/>
      </g>
     </g>
     <g id="text_8">
      <!-- 3500 -->
      <g transform="translate(319.784776 268.118125)scale(0.12 -0.12)">
       <use xlink:href="#DejaVuSans-33"/>
       <use x="63.623047" xlink:href="#DejaVuSans-35"/>
       <use x="127.246094" xlink:href="#DejaVuSans-30"/>
       <use x="190.869141" xlink:href="#DejaVuSans-30"/>
      </g>
     </g>
    </g>
    <g id="xtick_9">
     <g id="line2d_9">
      <g>
       <use style="stroke:#000000;stroke-width:0.8;" x="373.581818" xlink:href="#me6f3d1973d" y="252"/>
      </g>
     </g>
     <g id="text_9">
      <!-- 4000 -->
      <g transform="translate(358.311818 268.118125)scale(0.12 -0.12)">
       <defs>
        <path d="M 2419 4116 
L 825 1625 
L 2419 1625 
L 2419 4116 
z
M 2253 4666 
L 3047 4666 
L 3047 1625 
L 3713 1625 
L 3713 1100 
L 3047 1100 
L 3047 0 
L 2419 0 
L 2419 1100 
L 313 1100 
L 313 1709 
L 2253 4666 
z
" id="DejaVuSans-34" transform="scale(0.015625)"/>
       </defs>
       <use xlink:href="#DejaVuSans-34"/>
       <use x="63.623047" xlink:href="#DejaVuSans-30"/>
       <use x="127.246094" xlink:href="#DejaVuSans-30"/>
       <use x="190.869141" xlink:href="#DejaVuSans-30"/>
      </g>
     </g>
    </g>
    <g id="text_10">
     <!-- Time(ms) -->
     <g transform="translate(193.067813 283.731875)scale(0.12 -0.12)">
      <defs>
       <path d="M -19 4666 
L 3928 4666 
L 3928 4134 
L 2272 4134 
L 2272 0 
L 1638 0 
L 1638 4134 
L -19 4134 
L -19 4666 
z
" id="DejaVuSans-54" transform="scale(0.015625)"/>
       <path d="M 603 3500 
L 1178 3500 
L 1178 0 
L 603 0 
L 603 3500 
z
M 603 4863 
L 1178 4863 
L 1178 4134 
L 603 4134 
L 603 4863 
z
" id="DejaVuSans-69" transform="scale(0.015625)"/>
       <path d="M 3328 2828 
Q 3544 3216 3844 3400 
Q 4144 3584 4550 3584 
Q 5097 3584 5394 3201 
Q 5691 2819 5691 2113 
L 5691 0 
L 5113 0 
L 5113 2094 
Q 5113 2597 4934 2840 
Q 4756 3084 4391 3084 
Q 3944 3084 3684 2787 
Q 3425 2491 3425 1978 
L 3425 0 
L 2847 0 
L 2847 2094 
Q 2847 2600 2669 2842 
Q 2491 3084 2119 3084 
Q 1678 3084 1418 2786 
Q 1159 2488 1159 1978 
L 1159 0 
L 581 0 
L 581 3500 
L 1159 3500 
L 1159 2956 
Q 1356 3278 1631 3431 
Q 1906 3584 2284 3584 
Q 2666 3584 2933 3390 
Q 3200 3197 3328 2828 
z
" id="DejaVuSans-6d" transform="scale(0.015625)"/>
       <path d="M 3597 1894 
L 3597 1613 
L 953 1613 
Q 991 1019 1311 708 
Q 1631 397 2203 397 
Q 2534 397 2845 478 
Q 3156 559 3463 722 
L 3463 178 
Q 3153 47 2828 -22 
Q 2503 -91 2169 -91 
Q 1331 -91 842 396 
Q 353 884 353 1716 
Q 353 2575 817 3079 
Q 1281 3584 2069 3584 
Q 2775 3584 3186 3129 
Q 3597 2675 3597 1894 
z
M 3022 2063 
Q 3016 2534 2758 2815 
Q 2500 3097 2075 3097 
Q 1594 3097 1305 2825 
Q 1016 2553 972 2059 
L 3022 2063 
z
" id="DejaVuSans-65" transform="scale(0.015625)"/>
       <path d="M 1984 4856 
Q 1566 4138 1362 3434 
Q 1159 2731 1159 2009 
Q 1159 1288 1364 580 
Q 1569 -128 1984 -844 
L 1484 -844 
Q 1016 -109 783 600 
Q 550 1309 550 2009 
Q 550 2706 781 3412 
Q 1013 4119 1484 4856 
L 1984 4856 
z
" id="DejaVuSans-28" transform="scale(0.015625)"/>
       <path d="M 2834 3397 
L 2834 2853 
Q 2591 2978 2328 3040 
Q 2066 3103 1784 3103 
Q 1356 3103 1142 2972 
Q 928 2841 928 2578 
Q 928 2378 1081 2264 
Q 1234 2150 1697 2047 
L 1894 2003 
Q 2506 1872 2764 1633 
Q 3022 1394 3022 966 
Q 3022 478 2636 193 
Q 2250 -91 1575 -91 
Q 1294 -91 989 -36 
Q 684 19 347 128 
L 347 722 
Q 666 556 975 473 
Q 1284 391 1588 391 
Q 1994 391 2212 530 
Q 2431 669 2431 922 
Q 2431 1156 2273 1281 
Q 2116 1406 1581 1522 
L 1381 1569 
Q 847 1681 609 1914 
Q 372 2147 372 2553 
Q 372 3047 722 3315 
Q 1072 3584 1716 3584 
Q 2034 3584 2315 3537 
Q 2597 3491 2834 3397 
z
" id="DejaVuSans-73" transform="scale(0.015625)"/>
       <path d="M 513 4856 
L 1013 4856 
Q 1481 4119 1714 3412 
Q 1947 2706 1947 2009 
Q 1947 1309 1714 600 
Q 1481 -109 1013 -844 
L 513 -844 
Q 928 -128 1133 580 
Q 1338 1288 1338 2009 
Q 1338 2731 1133 3434 
Q 928 4138 513 4856 
z
" id="DejaVuSans-29" transform="scale(0.015625)"/>
      </defs>
      <use xlink:href="#DejaVuSans-54"/>
      <use x="57.958984" xlink:href="#DejaVuSans-69"/>
      <use x="85.742188" xlink:href="#DejaVuSans-6d"/>
      <use x="183.154297" xlink:href="#DejaVuSans-65"/>
      <use x="244.677734" xlink:href="#DejaVuSans-28"/>
      <use x="283.691406" xlink:href="#DejaVuSans-6d"/>
      <use x="381.103516" xlink:href="#DejaVuSans-73"/>
      <use x="433.203125" xlink:href="#DejaVuSans-29"/>
     </g>
    </g>
   </g>
   <g id="matplotlib.axis_2">
    <g id="ytick_1">
     <g id="line2d_10">
      <defs>
       <path d="M 0 0 
L -3.5 0 
" id="mdb63e01cd3" style="stroke:#000000;stroke-width:0.8;"/>
      </defs>
      <g>
       <use style="stroke:#000000;stroke-width:0.8;" x="54" xlink:href="#mdb63e01cd3" y="237.504"/>
      </g>
     </g>
     <g id="text_11">
      <!-- -100 -->
      <g transform="translate(19.765625 242.063063)scale(0.12 -0.12)">
       <defs>
        <path d="M 313 2009 
L 1997 2009 
L 1997 1497 
L 313 1497 
L 313 2009 
z
" id="DejaVuSans-2d" transform="scale(0.015625)"/>
       </defs>
       <use xlink:href="#DejaVuSans-2d"/>
       <use x="36.083984" xlink:href="#DejaVuSans-31"/>
       <use x="99.707031" xlink:href="#DejaVuSans-30"/>
       <use x="163.330078" xlink:href="#DejaVuSans-30"/>
      </g>
     </g>
    </g>
    <g id="ytick_2">
     <g id="line2d_11">
      <g>
       <use style="stroke:#000000;stroke-width:0.8;" x="54" xlink:href="#mdb63e01cd3" y="208.512"/>
      </g>
     </g>
     <g id="text_12">
      <!-- -80 -->
      <g transform="translate(27.400625 213.071062)scale(0.12 -0.12)">
       <defs>
        <path d="M 2034 2216 
Q 1584 2216 1326 1975 
Q 1069 1734 1069 1313 
Q 1069 891 1326 650 
Q 1584 409 2034 409 
Q 2484 409 2743 651 
Q 3003 894 3003 1313 
Q 3003 1734 2745 1975 
Q 2488 2216 2034 2216 
z
M 1403 2484 
Q 997 2584 770 2862 
Q 544 3141 544 3541 
Q 544 4100 942 4425 
Q 1341 4750 2034 4750 
Q 2731 4750 3128 4425 
Q 3525 4100 3525 3541 
Q 3525 3141 3298 2862 
Q 3072 2584 2669 2484 
Q 3125 2378 3379 2068 
Q 3634 1759 3634 1313 
Q 3634 634 3220 271 
Q 2806 -91 2034 -91 
Q 1263 -91 848 271 
Q 434 634 434 1313 
Q 434 1759 690 2068 
Q 947 2378 1403 2484 
z
M 1172 3481 
Q 1172 3119 1398 2916 
Q 1625 2713 2034 2713 
Q 2441 2713 2670 2916 
Q 2900 3119 2900 3481 
Q 2900 3844 2670 4047 
Q 2441 4250 2034 4250 
Q 1625 4250 1398 4047 
Q 1172 3844 1172 3481 
z
" id="DejaVuSans-38" transform="scale(0.015625)"/>
       </defs>
       <use xlink:href="#DejaVuSans-2d"/>
       <use x="36.083984" xlink:href="#DejaVuSans-38"/>
       <use x="99.707031" xlink:href="#DejaVuSans-30"/>
      </g>
     </g>
    </g>
    <g id="ytick_3">
     <g id="line2d_12">
      <g>
       <use style="stroke:#000000;stroke-width:0.8;" x="54" xlink:href="#mdb63e01cd3" y="179.52"/>
      </g>
     </g>
     <g id="text_13">
      <!-- -60 -->
      <g transform="translate(27.400625 184.079062)scale(0.12 -0.12)">
       <defs>
        <path d="M 2113 2584 
Q 1688 2584 1439 2293 
Q 1191 2003 1191 1497 
Q 1191 994 1439 701 
Q 1688 409 2113 409 
Q 2538 409 2786 701 
Q 3034 994 3034 1497 
Q 3034 2003 2786 2293 
Q 2538 2584 2113 2584 
z
M 3366 4563 
L 3366 3988 
Q 3128 4100 2886 4159 
Q 2644 4219 2406 4219 
Q 1781 4219 1451 3797 
Q 1122 3375 1075 2522 
Q 1259 2794 1537 2939 
Q 1816 3084 2150 3084 
Q 2853 3084 3261 2657 
Q 3669 2231 3669 1497 
Q 3669 778 3244 343 
Q 2819 -91 2113 -91 
Q 1303 -91 875 529 
Q 447 1150 447 2328 
Q 447 3434 972 4092 
Q 1497 4750 2381 4750 
Q 2619 4750 2861 4703 
Q 3103 4656 3366 4563 
z
" id="DejaVuSans-36" transform="scale(0.015625)"/>
       </defs>
       <use xlink:href="#DejaVuSans-2d"/>
       <use x="36.083984" xlink:href="#DejaVuSans-36"/>
       <use x="99.707031" xlink:href="#DejaVuSans-30"/>
      </g>
     </g>
    </g>
    <g id="ytick_4">
     <g id="line2d_13">
      <g>
       <use style="stroke:#000000;stroke-width:0.8;" x="54" xlink:href="#mdb63e01cd3" y="150.528"/>
      </g>
     </g>
     <g id="text_14">
      <!-- -40 -->
      <g transform="translate(27.400625 155.087063)scale(0.12 -0.12)">
       <use xlink:href="#DejaVuSans-2d"/>
       <use x="36.083984" xlink:href="#DejaVuSans-34"/>
       <use x="99.707031" xlink:href="#DejaVuSans-30"/>
      </g>
     </g>
    </g>
    <g id="ytick_5">
     <g id="line2d_14">
      <g>
       <use style="stroke:#000000;stroke-width:0.8;" x="54" xlink:href="#mdb63e01cd3" y="121.536"/>
      </g>
     </g>
     <g id="text_15">
      <!-- -20 -->
      <g transform="translate(27.400625 126.095062)scale(0.12 -0.12)">
       <use xlink:href="#DejaVuSans-2d"/>
       <use x="36.083984" xlink:href="#DejaVuSans-32"/>
       <use x="99.707031" xlink:href="#DejaVuSans-30"/>
      </g>
     </g>
    </g>
    <g id="ytick_6">
     <g id="line2d_15">
      <g>
       <use style="stroke:#000000;stroke-width:0.8;" x="54" xlink:href="#mdb63e01cd3" y="92.544"/>
      </g>
     </g>
     <g id="text_16">
      <!-- 0 -->
      <g transform="translate(39.365 97.103062)scale(0.12 -0.12)">
       <use xlink:href="#DejaVuSans-30"/>
      </g>
     </g>
    </g>
    <g id="ytick_7">
     <g id="line2d_16">
      <g>
       <use style="stroke:#000000;stroke-width:0.8;" x="54" xlink:href="#mdb63e01cd3" y="63.552"/>
      </g>
     </g>
     <g id="text_17">
      <!-- 20 -->
      <g transform="translate(31.73 68.111063)scale(0.12 -0.12)">
       <use xlink:href="#DejaVuSans-32"/>
       <use x="63.623047" xlink:href="#DejaVuSans-30"/>
      </g>
     </g>
    </g>
    <g id="ytick_8">
     <g id="line2d_17">
      <g>
       <use style="stroke:#000000;stroke-width:0.8;" x="54" xlink:href="#mdb63e01cd3" y="34.56"/>
      </g>
     </g>
     <g id="text_18">
      <!-- 40 -->
      <g transform="translate(31.73 39.119062)scale(0.12 -0.12)">
       <use xlink:href="#DejaVuSans-34"/>
       <use x="63.623047" xlink:href="#DejaVuSans-30"/>
      </g>
     </g>
    </g>
    <g id="text_19">
     <!-- Membrane potential (mV) -->
     <g transform="translate(13.27 220.574062)rotate(-90)scale(0.12 -0.12)">
      <defs>
       <path d="M 628 4666 
L 1569 4666 
L 2759 1491 
L 3956 4666 
L 4897 4666 
L 4897 0 
L 4281 0 
L 4281 4097 
L 3078 897 
L 2444 897 
L 1241 4097 
L 1241 0 
L 628 0 
L 628 4666 
z
" id="DejaVuSans-4d" transform="scale(0.015625)"/>
       <path d="M 3116 1747 
Q 3116 2381 2855 2742 
Q 2594 3103 2138 3103 
Q 1681 3103 1420 2742 
Q 1159 2381 1159 1747 
Q 1159 1113 1420 752 
Q 1681 391 2138 391 
Q 2594 391 2855 752 
Q 3116 1113 3116 1747 
z
M 1159 2969 
Q 1341 3281 1617 3432 
Q 1894 3584 2278 3584 
Q 2916 3584 3314 3078 
Q 3713 2572 3713 1747 
Q 3713 922 3314 415 
Q 2916 -91 2278 -91 
Q 1894 -91 1617 61 
Q 1341 213 1159 525 
L 1159 0 
L 581 0 
L 581 4863 
L 1159 4863 
L 1159 2969 
z
" id="DejaVuSans-62" transform="scale(0.015625)"/>
       <path d="M 2631 2963 
Q 2534 3019 2420 3045 
Q 2306 3072 2169 3072 
Q 1681 3072 1420 2755 
Q 1159 2438 1159 1844 
L 1159 0 
L 581 0 
L 581 3500 
L 1159 3500 
L 1159 2956 
Q 1341 3275 1631 3429 
Q 1922 3584 2338 3584 
Q 2397 3584 2469 3576 
Q 2541 3569 2628 3553 
L 2631 2963 
z
" id="DejaVuSans-72" transform="scale(0.015625)"/>
       <path d="M 2194 1759 
Q 1497 1759 1228 1600 
Q 959 1441 959 1056 
Q 959 750 1161 570 
Q 1363 391 1709 391 
Q 2188 391 2477 730 
Q 2766 1069 2766 1631 
L 2766 1759 
L 2194 1759 
z
M 3341 1997 
L 3341 0 
L 2766 0 
L 2766 531 
Q 2569 213 2275 61 
Q 1981 -91 1556 -91 
Q 1019 -91 701 211 
Q 384 513 384 1019 
Q 384 1609 779 1909 
Q 1175 2209 1959 2209 
L 2766 2209 
L 2766 2266 
Q 2766 2663 2505 2880 
Q 2244 3097 1772 3097 
Q 1472 3097 1187 3025 
Q 903 2953 641 2809 
L 641 3341 
Q 956 3463 1253 3523 
Q 1550 3584 1831 3584 
Q 2591 3584 2966 3190 
Q 3341 2797 3341 1997 
z
" id="DejaVuSans-61" transform="scale(0.015625)"/>
       <path d="M 3513 2113 
L 3513 0 
L 2938 0 
L 2938 2094 
Q 2938 2591 2744 2837 
Q 2550 3084 2163 3084 
Q 1697 3084 1428 2787 
Q 1159 2491 1159 1978 
L 1159 0 
L 581 0 
L 581 3500 
L 1159 3500 
L 1159 2956 
Q 1366 3272 1645 3428 
Q 1925 3584 2291 3584 
Q 2894 3584 3203 3211 
Q 3513 2838 3513 2113 
z
" id="DejaVuSans-6e" transform="scale(0.015625)"/>
       <path id="DejaVuSans-20" transform="scale(0.015625)"/>
       <path d="M 1159 525 
L 1159 -1331 
L 581 -1331 
L 581 3500 
L 1159 3500 
L 1159 2969 
Q 1341 3281 1617 3432 
Q 1894 3584 2278 3584 
Q 2916 3584 3314 3078 
Q 3713 2572 3713 1747 
Q 3713 922 3314 415 
Q 2916 -91 2278 -91 
Q 1894 -91 1617 61 
Q 1341 213 1159 525 
z
M 3116 1747 
Q 3116 2381 2855 2742 
Q 2594 3103 2138 3103 
Q 1681 3103 1420 2742 
Q 1159 2381 1159 1747 
Q 1159 1113 1420 752 
Q 1681 391 2138 391 
Q 2594 391 2855 752 
Q 3116 1113 3116 1747 
z
" id="DejaVuSans-70" transform="scale(0.015625)"/>
       <path d="M 1959 3097 
Q 1497 3097 1228 2736 
Q 959 2375 959 1747 
Q 959 1119 1226 758 
Q 1494 397 1959 397 
Q 2419 397 2687 759 
Q 2956 1122 2956 1747 
Q 2956 2369 2687 2733 
Q 2419 3097 1959 3097 
z
M 1959 3584 
Q 2709 3584 3137 3096 
Q 3566 2609 3566 1747 
Q 3566 888 3137 398 
Q 2709 -91 1959 -91 
Q 1206 -91 779 398 
Q 353 888 353 1747 
Q 353 2609 779 3096 
Q 1206 3584 1959 3584 
z
" id="DejaVuSans-6f" transform="scale(0.015625)"/>
       <path d="M 1172 4494 
L 1172 3500 
L 2356 3500 
L 2356 3053 
L 1172 3053 
L 1172 1153 
Q 1172 725 1289 603 
Q 1406 481 1766 481 
L 2356 481 
L 2356 0 
L 1766 0 
Q 1100 0 847 248 
Q 594 497 594 1153 
L 594 3053 
L 172 3053 
L 172 3500 
L 594 3500 
L 594 4494 
L 1172 4494 
z
" id="DejaVuSans-74" transform="scale(0.015625)"/>
       <path d="M 603 4863 
L 1178 4863 
L 1178 0 
L 603 0 
L 603 4863 
z
" id="DejaVuSans-6c" transform="scale(0.015625)"/>
       <path d="M 1831 0 
L 50 4666 
L 709 4666 
L 2188 738 
L 3669 4666 
L 4325 4666 
L 2547 0 
L 1831 0 
z
" id="DejaVuSans-56" transform="scale(0.015625)"/>
      </defs>
      <use xlink:href="#DejaVuSans-4d"/>
      <use x="86.279297" xlink:href="#DejaVuSans-65"/>
      <use x="147.802734" xlink:href="#DejaVuSans-6d"/>
      <use x="245.214844" xlink:href="#DejaVuSans-62"/>
      <use x="308.691406" xlink:href="#DejaVuSans-72"/>
      <use x="349.804688" xlink:href="#DejaVuSans-61"/>
      <use x="411.083984" xlink:href="#DejaVuSans-6e"/>
      <use x="474.462891" xlink:href="#DejaVuSans-65"/>
      <use x="535.986328" xlink:href="#DejaVuSans-20"/>
      <use x="567.773438" xlink:href="#DejaVuSans-70"/>
      <use x="631.25" xlink:href="#DejaVuSans-6f"/>
      <use x="692.431641" xlink:href="#DejaVuSans-74"/>
      <use x="731.640625" xlink:href="#DejaVuSans-65"/>
      <use x="793.164062" xlink:href="#DejaVuSans-6e"/>
      <use x="856.542969" xlink:href="#DejaVuSans-74"/>
      <use x="895.751953" xlink:href="#DejaVuSans-69"/>
      <use x="923.535156" xlink:href="#DejaVuSans-61"/>
      <use x="984.814453" xlink:href="#DejaVuSans-6c"/>
      <use x="1012.597656" xlink:href="#DejaVuSans-20"/>
      <use x="1044.384766" xlink:href="#DejaVuSans-28"/>
      <use x="1083.398438" xlink:href="#DejaVuSans-6d"/>
      <use x="1180.810547" xlink:href="#DejaVuSans-56"/>
      <use x="1249.21875" xlink:href="#DejaVuSans-29"/>
     </g>
    </g>
   </g>
   <g id="line2d_18">
    <path clip-path="url(#p662b55842b)" d="M 69.218182 212.289658 
L 69.295236 212.301254 
L 69.526398 212.799337 
L 69.603452 212.682354 
L 69.834614 212.190505 
L 70.065777 211.308278 
L 70.181358 211.553261 
L 70.373993 211.91885 
L 70.489574 211.953785 
L 70.643682 212.374459 
L 70.990426 214.342291 
L 71.414223 216.405507 
L 72.223291 218.540478 
L 72.300345 218.466113 
L 72.608562 217.62607 
L 72.76267 217.833798 
L 73.109413 218.925347 
L 73.224994 219.273106 
L 73.302048 219.208308 
L 73.417629 219.073496 
L 73.995535 215.419924 
L 74.034062 215.444422 
L 74.149643 215.690854 
L 74.18817 215.637654 
L 74.419333 215.185813 
L 74.534914 215.212341 
L 74.920184 215.836829 
L 74.958711 215.749563 
L 75.2284 215.040998 
L 75.382509 215.051436 
L 75.459563 215.098113 
L 75.806306 213.871026 
L 76.114522 213.632132 
L 76.345685 213.041855 
L 76.461266 213.285098 
L 76.769482 214.778331 
L 77.000644 215.962509 
L 77.039171 215.802908 
L 78.079402 209.701542 
L 78.272037 208.727266 
L 78.349091 208.769884 
L 78.503199 209.151708 
L 78.580253 209.039654 
L 78.695834 208.992397 
L 78.811415 209.278983 
L 79.119632 211.01401 
L 79.27374 210.864846 
L 79.543429 211.095767 
L 79.581956 211.028506 
L 79.851646 210.276888 
L 79.890173 210.292399 
L 80.044281 210.501576 
L 80.082808 210.459538 
L 80.236916 209.567309 
L 80.429551 208.845988 
L 80.545132 208.696244 
L 80.660713 208.610138 
L 80.699241 208.655655 
L 80.853349 209.174032 
L 81.585362 212.560878 
L 81.62389 212.496371 
L 81.777998 212.217612 
L 81.816525 212.239212 
L 82.047687 212.463755 
L 82.278849 213.33076 
L 82.625593 214.916623 
L 82.66412 214.885311 
L 82.972336 214.216756 
L 83.087917 214.201825 
L 83.242025 214.524796 
L 83.588769 216.019623 
L 83.742877 216.457837 
L 83.781404 216.433484 
L 83.974039 215.95845 
L 84.474891 214.325186 
L 84.706053 212.459406 
L 85.052796 208.979351 
L 85.283959 208.353704 
L 85.476594 208.068712 
L 85.515121 208.109736 
L 85.669229 208.653626 
L 85.823337 208.798731 
L 85.938918 209.154173 
L 86.247135 211.190716 
L 86.593878 213.161737 
L 86.786513 213.361637 
L 87.133257 213.944956 
L 87.518527 213.123902 
L 87.672635 212.331116 
L 87.942325 211.15839 
L 87.980852 211.209416 
L 88.173487 211.97263 
L 89.098136 216.547278 
L 89.791623 218.978982 
L 89.868677 218.880119 
L 90.331001 217.419937 
L 90.793326 215.59808 
L 90.985961 214.939092 
L 91.101542 215.050421 
L 91.332704 215.826102 
L 91.833556 217.78799 
L 91.872083 217.757549 
L 91.987664 217.587801 
L 92.180299 215.519511 
L 92.449988 213.67649 
L 93.027894 210.879922 
L 93.374638 208.263828 
L 93.567273 207.881714 
L 93.682854 207.850837 
L 93.798435 207.771254 
L 93.914016 208.031458 
L 94.299287 209.196936 
L 94.530449 209.041829 
L 94.568976 209.089376 
L 94.761611 209.461633 
L 95.0313 210.751632 
L 95.455098 213.392223 
L 95.493625 213.293796 
L 95.647733 211.358145 
L 96.110058 205.780809 
L 96.187112 205.881411 
L 96.379747 206.836262 
L 96.572382 207.903023 
L 96.610909 207.825759 
L 97.073234 206.269614 
L 97.38145 205.072824 
L 97.497031 205.117472 
L 97.612612 205.304905 
L 97.651139 205.255184 
L 97.805247 205.078043 
L 97.882301 205.038758 
L 97.920829 205.099787 
L 98.306099 206.10262 
L 98.344626 206.056378 
L 98.575788 205.557135 
L 98.691369 205.301136 
L 98.999586 203.668307 
L 99.07664 203.775432 
L 99.269275 204.729414 
L 99.616018 207.127777 
L 99.693072 206.97006 
L 99.847181 206.741024 
L 99.962762 206.9718 
L 100.193924 208.176563 
L 100.425086 209.364945 
L 100.463613 209.295944 
L 100.656249 208.918903 
L 100.694776 208.943111 
L 100.848884 209.374367 
L 101.388262 211.340894 
L 101.619425 211.875072 
L 101.657952 211.785197 
L 101.889114 210.925584 
L 102.004695 211.147228 
L 102.351438 212.406495 
L 102.428493 212.341843 
L 102.582601 212.331841 
L 102.736709 212.677136 
L 103.006398 213.183626 
L 103.23756 213.451947 
L 103.699885 213.602125 
L 103.776939 213.35004 
L 104.354845 209.70966 
L 104.470426 209.447862 
L 105.20244 205.757615 
L 105.395075 205.465521 
L 105.510656 205.527853 
L 105.703291 205.918086 
L 105.741818 205.841692 
L 105.97298 205.236774 
L 106.011507 205.269245 
L 106.165616 205.788202 
L 106.512359 208.156123 
L 106.820575 209.7804 
L 107.051738 210.393001 
L 107.090265 210.302401 
L 107.244373 210.080612 
L 107.321427 210.123375 
L 107.359954 210.05394 
L 107.475535 209.678783 
L 108.130495 206.289763 
L 108.207549 206.257002 
L 108.246076 206.299765 
L 108.554292 207.174164 
L 108.823982 208.356458 
L 109.093671 209.423074 
L 109.286306 209.07546 
L 109.36336 209.208243 
L 109.440414 209.329864 
L 109.478941 209.245932 
L 109.710104 208.844538 
L 110.01832 208.796991 
L 110.172428 209.177656 
L 110.480644 210.697562 
L 110.788861 212.148322 
L 111.020023 211.849849 
L 111.174131 212.200652 
L 111.520875 213.828553 
L 111.829091 215.299027 
L 111.867618 215.23481 
L 112.137307 214.203564 
L 112.907848 206.456177 
L 113.023429 206.51851 
L 113.331646 206.73653 
L 113.485754 206.49981 
L 113.524281 206.538804 
L 113.678389 207.074142 
L 113.948078 208.436766 
L 114.025132 208.388204 
L 114.140713 208.369939 
L 114.44893 209.009503 
L 114.718619 210.253839 
L 114.949781 211.072718 
L 115.065362 210.543904 
L 115.412106 208.716973 
L 115.450633 208.735528 
L 115.604741 209.196936 
L 116.452336 212.706997 
L 116.644971 212.999092 
L 116.914661 212.579433 
L 116.953188 212.614513 
L 117.030242 212.606105 
L 117.415512 211.960019 
L 117.56962 211.954365 
L 117.685201 211.819552 
L 117.762255 211.620957 
L 118.070472 210.076698 
L 118.108999 210.101341 
L 118.263107 210.581014 
L 118.571323 211.896961 
L 118.60985 211.784617 
L 118.918067 210.170922 
L 119.457445 206.044491 
L 119.534499 205.911563 
L 119.573026 205.927798 
L 119.688608 206.123639 
L 119.765662 206.04913 
L 119.91977 205.379124 
L 120.073878 205.017159 
L 120.189459 205.260112 
L 120.536203 206.108273 
L 121.037054 205.735581 
L 121.075581 205.801393 
L 121.152635 205.960414 
L 121.191162 205.868654 
L 121.383797 205.335057 
L 121.422325 205.363324 
L 121.499379 205.326359 
L 121.61496 205.238658 
L 121.730541 205.549163 
L 122.192865 207.216058 
L 122.462555 208.260204 
L 122.693717 209.040524 
L 122.886352 209.806493 
L 123.31015 211.751421 
L 123.733947 210.911233 
L 124.196272 208.659859 
L 124.273326 208.806269 
L 124.388907 208.971233 
L 124.427434 208.925716 
L 124.697123 208.064074 
L 124.73565 208.089876 
L 124.889758 208.555488 
L 125.660299 211.764323 
L 125.929988 211.652848 
L 126.04557 210.943414 
L 126.315259 209.064008 
L 126.546421 208.94659 
L 126.81611 208.038851 
L 126.854638 208.071901 
L 127.008746 208.561866 
L 127.509597 211.254353 
L 127.548124 211.054164 
L 128.12603 207.427989 
L 128.241611 207.653402 
L 128.5113 209.031972 
L 128.742463 210.345744 
L 128.78099 210.28805 
L 129.435949 208.718713 
L 129.474476 208.685227 
L 129.936801 206.200903 
L 130.167963 206.623316 
L 130.437652 207.122993 
L 130.591761 207.491047 
L 130.630288 207.360583 
L 130.86145 206.514451 
L 130.899977 206.528947 
L 131.015558 206.824086 
L 131.747572 209.533098 
L 131.90168 209.68951 
L 132.094315 209.553248 
L 132.364005 209.822873 
L 132.826329 209.251006 
L 133.134545 208.297749 
L 133.558343 208.497794 
L 134.405938 211.452804 
L 134.791208 212.627849 
L 134.829735 212.586681 
L 135.060898 211.985387 
L 135.29206 210.875863 
L 135.407641 210.944284 
L 135.523222 211.100261 
L 135.561749 211.040827 
L 135.715857 210.188752 
L 135.94702 209.275649 
L 136.062601 209.445687 
L 136.33229 210.538686 
L 136.447871 210.354876 
L 136.563452 210.241663 
L 136.601979 210.273554 
L 136.756087 210.710173 
L 137.064304 212.005101 
L 137.102831 211.909283 
L 137.256939 211.508033 
L 137.295466 211.525284 
L 137.757791 212.368951 
L 137.988953 212.87892 
L 138.143061 213.177248 
L 138.374223 213.641265 
L 138.489804 213.716644 
L 138.528331 213.777527 
L 138.566858 213.668082 
L 138.759494 213.300899 
L 138.990656 213.222765 
L 139.06771 213.18754 
L 139.221818 213.02301 
L 139.337399 213.248133 
L 139.607089 214.157177 
L 139.684143 214.081508 
L 139.799724 212.961402 
L 140.069413 210.835854 
L 140.377629 209.423798 
L 140.608792 208.274121 
L 140.685846 208.335294 
L 140.839954 208.918758 
L 141.032589 209.578906 
L 141.186697 209.557452 
L 141.340806 209.607318 
L 141.610495 208.796412 
L 141.687549 208.944706 
L 141.918711 210.060608 
L 142.265455 211.588341 
L 142.381036 210.99618 
L 142.766306 207.672247 
L 142.997468 207.251283 
L 143.113049 207.466548 
L 143.382739 208.554183 
L 143.459793 208.428793 
L 143.536847 208.146121 
L 143.806536 207.109947 
L 143.922117 207.112121 
L 144.076226 207.38769 
L 144.114753 207.292741 
L 144.615604 205.299831 
L 144.769712 205.48683 
L 144.962348 206.151036 
L 145.386145 207.729361 
L 145.424672 207.713415 
L 145.617307 206.088124 
L 145.925524 203.887921 
L 146.041105 203.779781 
L 146.118159 203.821819 
L 146.23374 203.617716 
L 146.272267 203.642069 
L 146.426375 204.176101 
L 147.659241 210.382999 
L 147.774822 210.506215 
L 147.813349 210.430691 
L 148.005984 210.005813 
L 148.275673 210.081917 
L 148.468308 209.953192 
L 148.622417 210.237894 
L 149.046214 211.202603 
L 149.084741 211.261311 
L 149.123268 211.194195 
L 149.277376 210.639723 
L 149.662647 208.11336 
L 150.202025 206.726818 
L 150.356133 206.396309 
L 150.66435 205.811105 
L 150.702877 205.869234 
L 151.04962 206.816983 
L 151.088147 206.73798 
L 151.31931 205.88402 
L 151.588999 206.049999 
L 152.552175 209.166639 
L 152.937445 210.842377 
L 153.053026 211.030245 
L 153.669459 213.402371 
L 154.05473 215.188713 
L 154.208838 212.731061 
L 154.44 210.59638 
L 154.709689 210.045967 
L 154.786743 210.194406 
L 155.017906 210.847451 
L 155.056433 210.787727 
L 155.210541 210.664221 
L 155.287595 210.679297 
L 155.364649 210.436054 
L 155.788446 208.612457 
L 155.942555 208.25832 
L 156.096663 207.891426 
L 156.13519 207.906502 
L 156.250771 208.188739 
L 156.443406 208.840479 
L 156.481933 208.793077 
L 156.751623 208.227009 
L 156.828677 208.2776 
L 156.982785 208.317899 
L 157.17542 208.336888 
L 157.329528 208.632897 
L 157.599217 209.893034 
L 158.177123 212.798322 
L 158.292704 212.694966 
L 158.485339 212.57088 
L 158.639448 212.768605 
L 158.677975 212.628574 
L 158.986191 210.65016 
L 159.063245 210.740325 
L 159.25588 211.496147 
L 159.91084 214.124996 
L 160.064948 214.364035 
L 160.180529 213.20537 
L 160.488746 210.117867 
L 160.719908 209.668636 
L 160.874016 209.747204 
L 161.028124 210.146569 
L 161.336341 211.616608 
L 161.413395 211.472518 
L 161.721611 210.481137 
L 161.760138 210.515637 
L 161.914246 211.004152 
L 162.299517 212.608715 
L 162.530679 211.242467 
L 162.761841 210.285586 
L 163.03153 210.106125 
L 163.224166 209.816785 
L 163.339747 210.040603 
L 163.763544 211.423956 
L 163.840598 211.393515 
L 163.917652 211.262761 
L 164.148815 209.346825 
L 164.495558 207.062255 
L 164.649666 207.107483 
L 164.803774 207.401751 
L 165.111991 208.523887 
L 165.150518 208.387334 
L 165.651369 205.305195 
L 165.882532 204.712888 
L 165.998113 204.951637 
L 166.229275 206.218153 
L 166.537491 207.804305 
L 166.730127 207.828369 
L 166.922762 208.250492 
L 167.230978 209.808087 
L 167.577722 211.787226 
L 167.616249 211.671838 
L 167.885938 209.918257 
L 168.194154 207.885483 
L 168.309735 208.083643 
L 168.348262 208.140612 
L 168.386789 208.033487 
L 168.887641 204.59866 
L 169.041749 204.512844 
L 169.272911 204.849586 
L 169.349965 204.703031 
L 169.696709 203.586259 
L 169.966398 202.389324 
L 170.081979 202.561102 
L 170.313142 203.682948 
L 170.621358 205.437543 
L 170.659885 205.221843 
L 170.85252 204.566769 
L 170.968101 204.374117 
L 171.045155 204.310044 
L 171.083682 204.340196 
L 171.237791 204.499072 
L 171.430426 204.306565 
L 171.584534 204.745069 
L 171.738642 205.066446 
L 171.815696 204.958306 
L 171.89275 204.537052 
L 172.16244 202.485868 
L 172.239494 202.483548 
L 172.54771 203.196027 
L 172.624764 203.090351 
L 172.778872 203.088177 
L 173.048562 203.097309 
L 173.20267 203.36737 
L 173.395305 203.971563 
L 173.433832 203.85545 
L 173.549413 203.054401 
L 173.819102 200.530068 
L 173.973211 200.16013 
L 174.088792 200.50354 
L 174.281427 201.041486 
L 174.397008 201.213409 
L 174.589643 202.081574 
L 174.936387 203.5822 
L 175.129022 204.229157 
L 175.206076 204.097678 
L 175.321657 204.002439 
L 175.360184 204.047522 
L 175.514292 204.577931 
L 175.629873 205.150957 
L 175.706928 205.020928 
L 175.976617 204.027807 
L 176.092198 203.922132 
L 176.207779 204.220169 
L 176.901266 206.886708 
L 177.055374 207.452052 
L 177.36359 208.563606 
L 177.710334 210.653784 
L 178.326766 214.442024 
L 178.442348 214.487831 
L 178.634983 214.982145 
L 179.174361 216.895762 
L 179.212888 216.780373 
L 179.482578 214.312284 
L 179.829321 209.891584 
L 180.137537 208.524467 
L 180.253119 208.753503 
L 180.792497 210.811645 
L 180.831024 210.736701 
L 181.062186 209.877088 
L 181.100713 209.896948 
L 181.293349 210.19687 
L 181.331876 210.12642 
L 181.678619 208.176563 
L 181.909781 206.216124 
L 182.025362 206.172491 
L 182.140944 206.416893 
L 182.256525 206.821621 
L 182.333579 206.726528 
L 182.564741 206.071453 
L 182.680322 206.31774 
L 182.911484 207.627889 
L 183.258228 209.976966 
L 183.296755 209.912169 
L 183.720552 207.055877 
L 184.105823 204.103621 
L 184.182877 204.19944 
L 184.336985 204.608227 
L 184.414039 204.566914 
L 184.52962 204.604748 
L 184.683728 205.115442 
L 185.492796 209.537592 
L 185.56985 209.333633 
L 185.878067 208.741472 
L 185.916594 208.791918 
L 186.070702 209.366394 
L 186.378918 210.880067 
L 186.455972 210.846581 
L 186.571554 210.873978 
L 186.725662 211.274938 
L 186.841243 211.636468 
L 186.87977 211.489188 
L 187.496203 207.953614 
L 187.611784 207.813293 
L 187.650311 207.846489 
L 187.804419 208.319058 
L 187.92 208.582161 
L 187.958527 208.553314 
L 188.112635 208.391103 
L 188.151162 208.426329 
L 188.30527 208.906871 
L 188.806122 210.904855 
L 189.306974 210.936166 
L 189.461082 210.360385 
L 189.692244 209.738941 
L 189.807825 209.92449 
L 190.077514 210.399379 
L 190.27015 211.073153 
L 191.31038 215.597065 
L 191.387434 215.692449 
L 191.425961 215.619679 
L 191.541542 215.08782 
L 192.235029 208.85802 
L 192.273556 208.822359 
L 192.658826 206.33702 
L 192.928516 204.202774 
L 193.082624 203.565385 
L 193.352313 202.20653 
L 193.544948 201.954155 
L 193.814638 202.200297 
L 193.853165 202.131731 
L 193.968746 201.742658 
L 194.354016 198.952613 
L 194.469597 198.862883 
L 194.662232 199.066406 
L 194.700759 199.004943 
L 194.777814 198.747204 
L 195.509827 193.162331 
L 195.625409 193.359911 
L 196.51153 196.301294 
L 197.012382 200.506729 
L 197.359125 202.674896 
L 197.43618 202.814347 
L 197.474707 202.744187 
L 197.590288 202.58763 
L 197.628815 202.610388 
L 197.975558 203.327216 
L 198.091139 203.625543 
L 198.129666 203.56611 
L 198.245247 203.498124 
L 198.47641 203.635691 
L 198.553464 203.621774 
L 198.746099 203.060344 
L 198.784626 203.091221 
L 199.054315 202.771294 
L 199.131369 202.443829 
L 199.478113 199.776276 
L 199.51664 199.782509 
L 199.632221 200.100406 
L 200.325708 203.306052 
L 200.55687 204.393396 
L 200.672451 204.499217 
L 200.865086 205.225467 
L 201.21183 206.528512 
L 201.5971 208.069872 
L 201.635627 207.93303 
L 201.905316 206.768276 
L 201.982371 206.77161 
L 202.213533 206.298896 
L 202.25206 206.331657 
L 202.521749 207.032538 
L 202.829965 208.249043 
L 202.868493 207.966371 
L 203.215236 204.739706 
L 203.369344 204.48907 
L 203.523452 204.188713 
L 203.561979 204.222199 
L 203.716087 204.787543 
L 204.139885 207.047904 
L 204.178412 206.943968 
L 204.679264 204.19915 
L 204.756318 204.242203 
L 204.910426 204.829001 
L 205.488331 207.376093 
L 205.796548 208.556503 
L 206.143291 209.862882 
L 206.528562 210.448376 
L 206.798251 210.785553 
L 207.06794 212.094831 
L 207.376157 213.624159 
L 207.414684 213.565885 
L 207.607319 213.302928 
L 207.7229 213.460789 
L 208.223751 214.494354 
L 208.339333 214.448692 
L 208.416387 214.188489 
L 208.686076 213.337428 
L 208.840184 213.341197 
L 209.225455 213.772888 
L 209.302509 213.615897 
L 209.649252 212.445924 
L 209.764833 212.469118 
L 209.957468 213.030983 
L 210.304212 213.907701 
L 210.381266 214.035121 
L 210.419793 213.945826 
L 210.689482 211.734751 
L 211.074753 208.227009 
L 211.305915 208.007104 
L 211.460023 208.396032 
L 211.614131 208.856715 
L 211.652658 208.778002 
L 211.845293 207.417552 
L 212.192037 205.224742 
L 212.269091 205.261272 
L 212.346145 205.190097 
L 212.53878 204.564884 
L 212.654361 204.903656 
L 212.962578 207.002966 
L 213.270794 208.435896 
L 213.501956 209.296813 
L 213.8487 210.616384 
L 213.964281 210.673933 
L 214.002808 210.61421 
L 214.426605 208.103938 
L 214.465132 208.129016 
L 214.619241 208.615356 
L 214.850403 209.266807 
L 214.927457 209.030377 
L 215.2742 207.588025 
L 215.389781 207.827644 
L 215.659471 209.31102 
L 216.083268 211.716776 
L 216.198849 211.427725 
L 216.815282 208.217006 
L 216.96939 208.287747 
L 217.007917 208.358487 
L 217.046444 208.334569 
L 217.200552 208.108286 
L 217.239079 208.155688 
L 217.470242 208.440825 
L 217.508769 208.439085 
L 217.778458 207.563962 
L 217.816985 207.608754 
L 218.00962 208.234402 
L 218.086674 208.019861 
L 218.240783 206.737545 
L 218.626053 203.188199 
L 218.741634 202.457166 
L 218.895742 201.947052 
L 219.011323 202.234942 
L 219.281013 204.025778 
L 219.473648 204.725645 
L 219.589229 204.856834 
L 219.781864 205.665855 
L 220.090081 207.181267 
L 220.128608 207.151405 
L 220.244189 207.178078 
L 220.398297 207.675436 
L 220.590932 208.087122 
L 220.899148 208.881213 
L 220.976203 208.794672 
L 221.053257 208.755388 
L 221.554108 206.657672 
L 221.862325 204.667081 
L 221.977906 204.622143 
L 222.132014 204.114638 
L 222.44023 203.14732 
L 222.517284 203.214872 
L 222.594338 203.410133 
L 222.632865 203.361571 
L 222.941082 200.885799 
L 223.172244 198.990882 
L 223.287825 198.612247 
L 223.596041 197.505477 
L 223.634568 197.519538 
L 223.827204 197.632752 
L 223.865731 197.554039 
L 224.019839 197.388784 
L 224.13542 197.583611 
L 224.251001 196.726317 
L 224.636272 193.369913 
L 224.713326 193.368029 
L 224.867434 193.965119 
L 225.214177 195.938749 
L 225.252704 195.782048 
L 225.676502 193.05506 
L 225.83061 192.231977 
L 226.369988 188.132074 
L 226.601151 187.186065 
L 226.678205 187.284637 
L 226.87084 188.209337 
L 227.140529 189.427581 
L 227.217583 189.05141 
L 227.564327 185.635428 
L 227.872543 178.804622 
L 228.180759 166.9827 
L 228.257814 158.051569 
L 228.334868 49.544805 
L 228.373395 134.698513 
L 228.56603 212.117735 
L 228.912773 205.618598 
L 229.028354 205.374196 
L 229.066881 205.401593 
L 229.336571 205.84894 
L 229.413625 205.754571 
L 229.644787 205.270549 
L 229.953003 203.784275 
L 229.99153 203.803989 
L 230.107112 204.119857 
L 230.26122 204.769133 
L 230.299747 204.713613 
L 230.453855 203.815731 
L 231.224396 197.017397 
L 231.30145 196.977243 
L 231.339977 197.024065 
L 231.532612 197.583756 
L 231.571139 197.464019 
L 232.226099 190.922844 
L 232.303153 190.947052 
L 232.418734 191.013154 
L 232.457261 190.981842 
L 232.534315 190.809775 
L 232.726951 188.947764 
L 232.99664 186.757853 
L 233.073694 186.74872 
L 233.304856 187.14707 
L 233.343383 187.107931 
L 233.497491 186.865848 
L 233.536018 186.881214 
L 233.690127 186.953259 
L 233.767181 187.073286 
L 233.805708 186.997617 
L 234.075397 185.471043 
L 234.42214 181.772823 
L 235.115627 171.932069 
L 235.269735 165.987404 
L 235.346789 155.704522 
L 235.423843 59.727955 
L 235.577952 204.528789 
L 235.655006 208.788294 
L 235.693533 208.060305 
L 236.040276 201.760198 
L 236.194384 199.19687 
L 236.541128 193.874084 
L 236.849344 192.642069 
L 236.964925 192.76601 
L 237.15756 192.749484 
L 237.311669 192.706866 
L 237.388723 192.744701 
L 237.42725 192.688601 
L 237.581358 192.22096 
L 238.005155 189.541085 
L 238.236318 188.758156 
L 238.390426 188.441998 
L 238.775696 187.711835 
L 238.968331 187.670231 
L 239.12244 187.121702 
L 239.238021 185.885773 
L 239.931507 176.42322 
L 240.16267 175.300504 
L 240.239724 175.35182 
L 240.393832 176.032987 
L 240.470886 176.210273 
L 240.509413 176.147361 
L 240.624994 175.398207 
L 240.856157 172.155162 
L 240.971738 168.036124 
L 241.048792 161.075145 
L 241.087319 149.762176 
L 241.125846 32.596082 
L 241.164373 83.778124 
L 241.318481 205.563659 
L 241.395535 208.31181 
L 241.434062 207.58933 
L 241.896387 198.938842 
L 242.705455 191.528631 
L 242.859563 189.771571 
L 243.129252 187.389009 
L 243.360414 186.243535 
L 243.822739 181.275756 
L 244.439171 170.323448 
L 244.554753 162.412256 
L 244.59328 154.306672 
L 244.631807 45.333862 
L 244.670334 69.851237 
L 244.824442 206.282805 
L 244.862969 209.034291 
L 244.940023 207.882729 
L 245.36382 198.09387 
L 246.01878 186.727266 
L 246.404051 182.904091 
L 247.097537 179.22921 
L 247.3287 177.257754 
L 247.71397 169.177394 
L 247.829551 163.353046 
L 247.906605 145.47426 
L 247.945132 38.668601 
L 247.983659 103.451515 
L 248.137768 206.330787 
L 248.176295 208.247013 
L 248.253349 207.678045 
L 248.523038 204.667951 
L 248.7542 203.80109 
L 248.946835 203.001346 
L 249.40916 200.750117 
L 249.563268 201.073378 
L 249.755903 201.376199 
L 249.79443 201.356774 
L 250.256755 200.922039 
L 250.333809 200.428596 
L 250.603498 198.630657 
L 250.796133 198.214042 
L 250.911715 198.444383 
L 251.142877 198.846937 
L 251.374039 198.81896 
L 251.48962 197.940212 
L 251.874891 194.981144 
L 252.028999 194.535827 
L 252.067526 194.552787 
L 252.221634 195.001438 
L 252.52985 195.973395 
L 252.683959 196.332316 
L 252.79954 196.406535 
L 252.915121 196.526997 
L 252.953648 196.472347 
L 253.146283 195.651874 
L 253.300391 194.683686 
L 253.531554 191.329166 
L 253.916824 185.657316 
L 254.147986 184.546488 
L 254.22504 184.660427 
L 254.571784 185.705878 
L 254.610311 185.669638 
L 254.918527 185.309268 
L 255.034108 185.321734 
L 255.188216 184.370796 
L 255.496433 179.48434 
L 255.766122 172.451026 
L 255.92023 163.316951 
L 255.958757 156.465562 
L 256.035811 58.456656 
L 256.189919 207.108352 
L 256.228446 210.579709 
L 256.305501 209.125471 
L 256.57519 203.152539 
L 256.806352 201.701054 
L 256.883406 201.632198 
L 256.921933 201.663365 
L 257.037514 201.923858 
L 257.076041 201.828764 
L 257.345731 200.771136 
L 257.461312 200.846515 
L 258.077745 202.638221 
L 258.193326 202.93162 
L 258.231853 202.917269 
L 258.308907 202.89306 
L 258.578596 202.052872 
L 258.925339 200.098956 
L 259.079448 200.079677 
L 259.195029 200.238698 
L 259.503245 199.636969 
L 259.618826 199.775696 
L 259.657353 199.66828 
L 259.849988 199.150193 
L 259.888516 199.175561 
L 260.042624 199.699882 
L 260.35084 201.924148 
L 261.275489 209.262603 
L 261.314016 209.228682 
L 261.699287 206.992674 
L 261.814868 207.13459 
L 261.930449 207.472202 
L 261.968976 207.42509 
L 262.277192 206.712901 
L 262.469827 206.693622 
L 262.816571 207.066024 
L 262.970679 206.968466 
L 263.124787 206.676082 
L 263.163314 206.693912 
L 263.240368 206.820607 
L 263.317422 206.746387 
L 263.433003 206.798283 
L 263.74122 207.802131 
L 263.933855 208.414442 
L 264.010909 208.357183 
L 264.550288 207.522648 
L 265.051139 205.872133 
L 265.128193 205.949252 
L 265.320829 206.666949 
L 265.551991 207.338549 
L 265.706099 207.695295 
L 265.783153 207.555119 
L 266.245478 205.735146 
L 266.592221 204.448481 
L 266.707802 204.597355 
L 266.900437 204.792036 
L 267.170127 204.59634 
L 267.208654 204.642293 
L 267.285708 204.575756 
L 267.670978 202.84189 
L 267.786559 202.813912 
L 267.90214 202.068383 
L 268.248884 199.819764 
L 268.325938 199.85035 
L 268.480046 200.424972 
L 268.595627 200.695612 
L 268.634154 200.675172 
L 268.749735 200.678072 
L 268.903843 201.1202 
L 269.057952 201.839781 
L 269.096479 201.760198 
L 269.404695 201.049314 
L 269.520276 201.236168 
L 269.751438 202.448033 
L 270.098182 204.163345 
L 270.483452 204.812766 
L 270.599033 204.692449 
L 270.714614 204.88916 
L 270.753142 204.984543 
L 270.791669 204.911773 
L 270.984304 204.30845 
L 271.022831 204.32483 
L 271.138412 204.634465 
L 271.716318 207.190255 
L 271.754845 207.13314 
L 271.94748 206.543878 
L 272.563913 200.877827 
L 272.60244 200.88435 
L 272.718021 201.15528 
L 272.98771 202.696205 
L 273.334453 204.68752 
L 273.488562 204.327875 
L 273.719724 203.397666 
L 273.835305 203.675555 
L 274.143521 205.513068 
L 274.336157 206.269469 
L 274.374684 206.240622 
L 274.490265 206.298896 
L 274.644373 206.773495 
L 274.721427 206.606211 
L 274.875535 206.368187 
L 274.991116 206.62781 
L 275.646076 208.854685 
L 275.72313 208.904697 
L 275.838711 208.306592 
L 276.185455 204.499072 
L 276.455144 203.841389 
L 276.532198 203.90923 
L 276.686306 204.162765 
L 277.110104 205.79371 
L 277.264212 206.425446 
L 277.302739 206.380798 
L 277.456847 206.175825 
L 277.495374 206.210325 
L 277.649482 206.721309 
L 278.188861 209.052701 
L 278.342969 209.474679 
L 278.535604 210.344004 
L 278.612658 210.199479 
L 278.882348 209.697338 
L 279.074983 209.657184 
L 279.49878 208.789743 
L 279.537307 208.83932 
L 279.691415 209.354797 
L 279.922578 209.961745 
L 280.076686 209.813451 
L 280.115213 209.857664 
L 280.269321 210.362124 
L 280.654591 212.161803 
L 280.693119 212.132086 
L 280.885754 210.580144 
L 281.155443 208.935138 
L 281.271024 208.507651 
L 281.579241 206.811039 
L 281.925984 206.946432 
L 282.041565 207.067764 
L 282.2342 207.906067 
L 282.966214 211.809115 
L 283.120322 211.8642 
L 283.27443 212.347642 
L 283.312957 212.288933 
L 283.505593 211.250004 
L 283.967917 207.990724 
L 284.006444 208.036676 
L 284.276133 208.890636 
L 284.892566 210.520566 
L 284.931093 210.465336 
L 285.393418 209.468156 
L 285.701634 207.546566 
L 285.855742 207.688337 
L 285.894269 207.597737 
L 286.048377 206.759579 
L 286.27954 205.546843 
L 286.356594 205.562644 
L 286.510702 206.045361 
L 286.587756 206.255553 
L 286.66481 206.208006 
L 286.741864 206.021297 
L 287.165662 203.860524 
L 287.31977 204.212052 
L 287.396824 204.399485 
L 287.782094 202.339458 
L 287.859148 202.454122 
L 288.051784 203.427963 
L 288.74527 207.650938 
L 288.860852 207.727911 
L 289.01496 208.34834 
L 289.361703 209.847806 
L 289.477284 209.788228 
L 289.631392 208.996601 
L 289.862555 207.792853 
L 289.939609 207.753424 
L 290.05519 207.49815 
L 290.093717 207.522068 
L 290.247825 208.072771 
L 290.902785 211.145633 
L 291.133947 211.736345 
L 291.519217 213.908281 
L 292.097123 216.945048 
L 292.443867 217.066235 
L 292.559448 216.880396 
L 293.252934 209.971747 
L 293.484097 207.82228 
L 293.561151 207.736464 
L 293.599678 207.773719 
L 293.869367 208.09437 
L 294.293165 209.661823 
L 294.331692 209.580645 
L 294.639908 208.1122 
L 294.986651 206.724063 
L 295.025178 206.749141 
L 295.140759 206.87946 
L 295.179287 206.816693 
L 295.333395 206.5562 
L 295.371922 206.57345 
L 295.487503 206.850613 
L 295.795719 208.218601 
L 295.834246 207.933755 
L 296.142463 205.882426 
L 296.219517 205.954906 
L 296.412152 206.761318 
L 296.835949 208.695519 
L 296.913003 208.72828 
L 296.95153 208.683053 
L 297.067112 208.615356 
L 297.105639 208.652466 
L 297.259747 209.105611 
L 297.375328 209.430322 
L 297.413855 209.396836 
L 297.529436 209.219115 
L 297.799125 208.31239 
L 297.914707 208.419516 
L 298.068815 208.6213 
L 298.184396 207.804015 
L 298.569666 205.387387 
L 298.839356 205.371442 
L 299.070518 205.99158 
L 299.147572 205.898226 
L 299.378734 205.246921 
L 299.995167 200.363219 
L 300.110748 200.352057 
L 300.264856 200.116352 
L 300.303383 200.157375 
L 300.34191 200.185063 
L 300.650127 197.744806 
L 300.958343 196.120094 
L 301.228032 195.60969 
L 301.420667 194.896632 
L 301.767411 195.335571 
L 302.268262 196.942597 
L 302.383843 196.764442 
L 302.460898 196.724723 
L 302.499425 196.775024 
L 302.923222 198.083288 
L 303.847871 202.278865 
L 304.001979 202.289592 
L 304.695466 201.012929 
L 304.849574 200.79201 
L 304.965155 201.038587 
L 305.196318 202.31583 
L 305.581588 204.337442 
L 306.313602 208.13061 
L 306.506237 208.949489 
L 306.544764 208.918468 
L 306.660345 208.87266 
L 306.930035 209.384514 
L 307.007089 209.240714 
L 307.469413 207.061675 
L 307.50794 207.091537 
L 307.623521 207.248384 
L 307.662048 207.209969 
L 307.777629 207.259401 
L 308.085846 208.179462 
L 308.1629 208.024065 
L 308.317008 207.915924 
L 308.471116 208.300938 
L 308.971968 210.061622 
L 309.241657 209.986388 
L 309.434292 210.654654 
L 310.089252 213.8574 
L 310.166306 213.780861 
L 310.320414 213.750564 
L 310.474522 214.102382 
L 310.667158 214.487396 
L 310.821266 214.578576 
L 311.052428 215.23568 
L 311.745915 217.992964 
L 311.822969 217.791469 
L 311.977077 217.625635 
L 312.131185 217.837277 
L 312.516456 218.497135 
L 312.863199 216.766312 
L 313.094361 215.045637 
L 313.171415 214.986783 
L 313.209942 215.016935 
L 313.286997 215.128554 
L 313.325524 215.060568 
L 313.749321 213.464558 
L 313.826375 213.544141 
L 313.980483 213.698089 
L 314.211646 213.608359 
L 314.327227 213.463834 
L 314.365754 213.497464 
L 314.789551 214.076435 
L 314.943659 214.182545 
L 315.174822 214.828487 
L 315.251876 215.123916 
L 315.290403 215.078253 
L 315.521565 213.117814 
L 315.829781 210.374156 
L 315.906835 210.405902 
L 316.060944 210.912538 
L 316.561795 213.391788 
L 316.638849 213.351055 
L 316.75443 212.68134 
L 317.101174 210.075539 
L 317.178228 210.10569 
L 317.332336 210.585508 
L 317.717606 212.274437 
L 317.756133 212.247764 
L 318.06435 211.567322 
L 318.411093 209.987548 
L 318.488147 210.084816 
L 319.10458 212.014379 
L 319.374269 213.017212 
L 319.451323 213.066063 
L 319.48985 212.98764 
L 320.029229 208.398206 
L 320.067756 208.44068 
L 320.221864 208.995297 
L 320.568608 210.344004 
L 320.722716 210.572751 
L 320.953878 211.541084 
L 321.300621 212.877325 
L 321.570311 213.226824 
L 321.724419 213.80449 
L 321.801473 213.717224 
L 321.917054 213.681129 
L 322.186743 214.290106 
L 322.22527 214.16399 
L 322.456433 211.978139 
L 322.687595 210.629721 
L 322.764649 210.697127 
L 322.957284 211.439612 
L 322.995811 211.582543 
L 323.034338 211.360754 
L 323.304028 209.660373 
L 323.843406 210.131348 
L 324.074568 211.118236 
L 324.19015 211.667779 
L 324.228677 211.576599 
L 324.768055 207.82315 
L 324.922163 207.55338 
L 325.076272 207.547146 
L 325.23038 208.037401 
L 325.345961 208.402555 
L 325.384488 208.366895 
L 325.61565 207.95057 
L 325.654177 207.98681 
L 325.808285 208.461264 
L 326.077975 209.323486 
L 326.309137 209.318123 
L 326.501772 209.997405 
L 326.578826 209.787213 
L 326.732934 209.547159 
L 327.079678 210.14135 
L 327.349367 211.543259 
L 327.619056 212.884863 
L 327.657583 212.839636 
L 328.004327 212.171805 
L 328.466651 210.005958 
L 328.659287 209.794316 
L 328.774868 210.012626 
L 328.967503 210.536221 
L 329.00603 210.437649 
L 329.352773 209.050961 
L 329.429827 209.049657 
L 329.583936 209.494539 
L 329.66099 209.777791 
L 329.699517 209.739956 
L 329.930679 209.239119 
L 330.084787 209.272605 
L 330.200368 209.366974 
L 330.393003 210.135842 
L 330.893855 212.355759 
L 331.895558 216.078912 
L 332.203774 216.253734 
L 332.319356 216.349697 
L 332.434937 215.932792 
L 333.051369 211.024592 
L 333.089896 211.037638 
L 333.205478 211.127368 
L 333.244005 211.052279 
L 333.475167 210.072784 
L 333.590748 210.317767 
L 333.667802 210.487805 
L 333.706329 210.342555 
L 334.053072 208.505622 
L 334.168654 208.698274 
L 334.708032 211.062716 
L 334.939194 211.973645 
L 335.170357 212.669453 
L 335.401519 213.334094 
L 335.902371 210.788017 
L 336.17206 209.335663 
L 336.595857 205.907359 
L 336.788493 205.587867 
L 336.904074 205.734276 
L 337.096709 206.579103 
L 337.905777 210.95907 
L 338.291047 212.309372 
L 338.368101 212.252258 
L 338.599264 212.00771 
L 338.753372 212.329956 
L 338.868953 212.470278 
L 338.90748 212.442445 
L 339.100115 211.747507 
L 339.369804 210.379955 
L 339.523913 210.192666 
L 339.716548 209.957831 
L 339.755075 209.983779 
L 339.870656 210.060753 
L 339.909183 210.025962 
L 340.101818 209.969718 
L 340.255926 210.337626 
L 340.564143 211.863475 
L 340.756778 212.71555 
L 340.795305 212.69946 
L 340.910886 212.831663 
L 340.98794 212.939368 
L 341.026467 212.873122 
L 341.142048 212.813833 
L 341.296157 213.245669 
L 341.604373 214.737017 
L 341.681427 214.460144 
L 341.951116 213.090417 
L 342.066697 213.126367 
L 342.29786 213.701713 
L 342.374914 213.557188 
L 342.644603 212.856596 
L 342.760184 212.952125 
L 342.837238 213.039536 
L 342.875765 212.958358 
L 343.261036 212.278931 
L 343.415144 212.235153 
L 343.761887 211.136936 
L 344.301266 211.072863 
L 344.416847 210.491864 
L 344.802117 207.501629 
L 345.148861 205.121676 
L 345.380023 202.496305 
L 345.534131 202.315395 
L 345.765293 202.616767 
L 346.72847 206.112767 
L 347.036686 207.370585 
L 347.152267 207.374934 
L 347.229321 207.569905 
L 347.267848 207.521343 
L 347.537537 206.9186 
L 347.653119 207.090522 
L 347.691646 207.023986 
L 347.807227 206.807995 
L 347.845754 206.839307 
L 348.385132 208.179027 
L 348.847457 210.68611 
L 348.885984 210.576375 
L 349.117146 209.953482 
L 349.232727 210.125405 
L 350.003268 212.68105 
L 350.272957 213.71273 
L 350.350012 213.732155 
L 350.388539 213.671271 
L 350.581174 213.477605 
L 350.88939 213.477315 
L 351.082025 212.989524 
L 351.120552 213.009819 
L 351.274661 213.40382 
L 351.351715 213.601836 
L 351.390242 213.579947 
L 351.659931 213.190149 
L 351.814039 213.503988 
L 352.045201 213.932054 
L 352.391945 213.792313 
L 352.623107 213.306262 
L 352.661634 213.342647 
L 352.854269 213.885377 
L 352.931323 213.71157 
L 353.162486 212.962272 
L 353.316594 212.917624 
L 353.509229 212.762807 
L 353.663337 213.094331 
L 353.971554 214.331274 
L 354.048608 214.212262 
L 354.433878 213.500653 
L 354.549459 213.690261 
L 354.703567 214.180081 
L 354.742094 214.075275 
L 354.93473 212.738889 
L 355.165892 211.635598 
L 355.242946 211.677202 
L 355.397054 212.13513 
L 356.090541 214.954602 
L 356.129068 214.907055 
L 356.591392 212.968795 
L 356.668446 212.95256 
L 356.822555 212.492892 
L 357.01519 212.001187 
L 357.130771 212.201232 
L 357.284879 212.71526 
L 357.323406 212.645824 
L 358.05542 208.824679 
L 358.71038 200.823322 
L 358.787434 200.895947 
L 358.980069 201.770345 
L 359.866191 206.874532 
L 360.251461 207.621366 
L 360.328516 207.53323 
L 360.559678 207.192139 
L 360.598205 207.24505 
L 360.829367 207.949845 
L 360.867894 207.838371 
L 361.17611 206.307158 
L 361.368746 206.240622 
L 361.484327 206.113492 
L 361.676962 205.027741 
L 361.908124 204.121886 
L 362.023705 204.353532 
L 362.331922 205.041368 
L 363.218044 206.159879 
L 363.256571 206.147123 
L 363.372152 205.465376 
L 363.603314 204.368173 
L 363.718895 204.612576 
L 363.950058 205.096163 
L 364.065639 205.231845 
L 364.104166 205.179949 
L 364.296801 204.673894 
L 364.489436 203.785869 
L 364.605017 203.843128 
L 364.759125 204.317872 
L 365.105869 206.332236 
L 365.259977 206.268599 
L 365.337031 206.283675 
L 365.568193 205.8501 
L 366.069045 202.493116 
L 366.300207 200.541664 
L 366.492842 200.761714 
L 367.147802 202.045334 
L 367.186329 202.020546 
L 367.610127 198.498743 
L 367.687181 198.386399 
L 367.879816 195.225691 
L 368.110978 192.586984 
L 368.226559 192.418251 
L 368.265086 192.452461 
L 368.650357 193.199295 
L 369.035627 194.86677 
L 369.228262 195.613459 
L 369.459425 194.527419 
L 369.613533 194.185313 
L 369.806168 194.491034 
L 369.844695 194.420873 
L 370.114384 193.406008 
L 370.152911 193.438624 
L 370.30702 193.997155 
L 370.615236 195.003902 
L 370.730817 194.490164 
L 371.000506 193.358316 
L 371.193142 193.63635 
L 371.270196 193.81697 
L 371.34725 193.756522 
L 371.462831 193.767249 
L 371.693993 194.392896 
L 371.886628 195.115377 
L 371.925155 195.036953 
L 372.194845 193.830741 
L 372.233372 193.847412 
L 372.426007 193.96222 
L 372.541588 193.979325 
L 372.965386 194.77791 
L 373.581818 197.273251 
L 373.581818 197.273251 
" style="fill:none;stroke:#000000;stroke-linecap:square;stroke-width:1.5;"/>
   </g>
   <g id="line2d_19">
    <path clip-path="url(#p662b55842b)" d="M 69.218182 212.289658 
L 69.295236 212.301254 
L 69.526398 212.799337 
L 69.603452 212.682354 
L 69.834614 212.190505 
L 70.065777 211.308278 
L 70.181358 211.553261 
L 70.373993 211.918705 
L 70.489574 211.951901 
L 70.643682 212.368081 
L 70.990426 214.320837 
L 71.414223 216.361294 
L 72.223291 218.449878 
L 72.300345 218.371309 
L 72.608562 217.512711 
L 72.724143 217.633753 
L 72.993832 218.3874 
L 73.224994 219.127711 
L 73.302048 219.05929 
L 73.417629 218.918968 
L 73.995535 215.226692 
L 74.034062 215.248436 
L 74.149643 215.487185 
L 74.18817 215.431666 
L 74.45786 214.941121 
L 74.573441 215.046942 
L 74.881657 215.605038 
L 74.920184 215.583584 
L 75.343982 214.742381 
L 75.382509 214.767604 
L 75.459563 214.809497 
L 75.806306 213.557623 
L 76.114522 213.29684 
L 76.345685 212.688588 
L 76.461266 212.923423 
L 76.769482 214.398246 
L 77.000644 215.573581 
L 77.039171 215.412966 
L 78.040875 209.608912 
L 78.272037 208.248318 
L 78.349091 208.284413 
L 78.503199 208.654641 
L 78.580253 208.537368 
L 78.695834 208.480689 
L 78.811415 208.757417 
L 79.119632 210.4678 
L 79.27374 210.304285 
L 79.543429 210.504475 
L 79.581956 210.432575 
L 79.890173 209.654285 
L 80.044281 209.844037 
L 80.082808 209.797505 
L 80.236916 208.884547 
L 80.468078 208.110171 
L 80.660713 207.858085 
L 80.699241 207.897225 
L 80.853349 208.390813 
L 81.585362 211.677781 
L 81.62389 211.609795 
L 81.777998 211.313642 
L 81.816525 211.330602 
L 82.047687 211.530647 
L 82.278849 212.379968 
L 82.625593 213.955828 
L 82.66412 213.924516 
L 82.972336 213.247118 
L 83.087917 213.227114 
L 83.242025 213.544721 
L 83.588769 215.038099 
L 83.742877 215.480952 
L 83.781404 215.457758 
L 83.974039 214.983014 
L 84.474891 213.321773 
L 84.706053 211.432654 
L 85.052796 207.891861 
L 85.283959 207.226785 
L 85.476594 206.909757 
L 85.515121 206.943823 
L 85.669229 207.460025 
L 85.707756 207.593244 
L 85.78481 207.559758 
L 85.861864 207.648473 
L 86.054499 208.545341 
L 86.670932 211.873477 
L 86.82504 212.104689 
L 87.133257 212.587116 
L 87.518527 211.758089 
L 87.672635 210.959795 
L 87.942325 209.766484 
L 87.980852 209.813596 
L 88.13496 210.362269 
L 88.635811 213.446583 
L 88.944028 214.705416 
L 89.252244 215.662152 
L 89.83015 217.614183 
L 89.945731 217.19148 
L 90.176893 216.488714 
L 90.253947 216.381733 
L 91.024488 213.521238 
L 91.063015 213.553854 
L 91.25565 214.061649 
L 91.833556 216.303455 
L 91.91061 216.246341 
L 91.949137 216.237208 
L 92.026191 215.840888 
L 92.449988 212.120199 
L 93.027894 209.187804 
L 93.374638 206.46531 
L 93.567273 206.027676 
L 93.682854 205.966357 
L 93.798435 205.855318 
L 93.836962 205.893588 
L 93.99107 206.397324 
L 94.222232 207.120094 
L 94.337814 207.102409 
L 94.491922 206.90048 
L 94.530449 206.925268 
L 94.761611 207.278245 
L 94.992773 208.282673 
L 95.455098 211.099681 
L 95.493625 211.001978 
L 95.647733 209.05531 
L 96.110058 203.350119 
L 96.187112 203.434631 
L 96.379747 204.358316 
L 96.572382 205.393186 
L 96.610909 205.308819 
L 97.073234 203.597856 
L 97.38145 202.288432 
L 97.497031 202.290317 
L 97.574085 202.464704 
L 97.651139 202.379032 
L 97.805247 202.155504 
L 97.882301 202.088967 
L 97.920829 202.1355 
L 98.306099 202.98627 
L 98.344626 202.925097 
L 98.614315 202.24074 
L 98.729896 201.799192 
L 98.999586 200.255078 
L 99.07664 200.332197 
L 99.269275 201.226455 
L 99.616018 203.542191 
L 99.693072 203.369399 
L 99.847181 203.089191 
L 99.885708 203.114559 
L 100.039816 203.574662 
L 100.425086 205.59468 
L 100.50214 205.412755 
L 100.656249 205.12269 
L 100.694776 205.141245 
L 100.848884 205.558875 
L 101.426789 207.678915 
L 101.619425 208.146556 
L 101.657952 208.066248 
L 101.889114 207.244905 
L 102.004695 207.481189 
L 102.351438 208.817866 
L 102.428493 208.769594 
L 102.582601 208.779451 
L 102.775236 209.271445 
L 103.121979 209.927969 
L 103.391669 210.015525 
L 103.545777 210.068436 
L 103.699885 210.207742 
L 103.738412 210.141205 
L 103.89252 208.992832 
L 104.277791 206.453568 
L 104.508953 205.800088 
L 105.240967 202.037652 
L 105.472129 201.815138 
L 105.58771 202.061715 
L 105.703291 202.197108 
L 106.011507 201.447084 
L 106.088562 201.60741 
L 106.319724 202.781151 
L 106.897629 205.936061 
L 107.051738 206.267149 
L 107.244373 205.925479 
L 107.2829 205.975055 
L 107.398481 205.813135 
L 107.552589 205.03354 
L 107.706697 203.789493 
L 107.976387 202.323223 
L 108.207549 201.868193 
L 108.246076 201.89849 
L 108.515765 202.594443 
L 108.746928 203.396217 
L 109.093671 204.800734 
L 109.286306 204.411082 
L 109.36336 204.522846 
L 109.440414 204.630406 
L 109.478941 204.542705 
L 109.710104 204.098403 
L 110.01832 203.984464 
L 110.172428 204.338457 
L 110.480644 205.841402 
L 110.788861 207.334055 
L 110.827388 207.275056 
L 110.981496 207.054862 
L 111.020023 207.077041 
L 111.174131 207.450458 
L 111.520875 209.179251 
L 111.829091 210.805992 
L 111.867618 210.766418 
L 112.137307 209.865926 
L 112.946375 202.114335 
L 113.331646 202.35294 
L 113.485754 202.077226 
L 113.524281 202.103173 
L 113.678389 202.58502 
L 113.948078 203.868496 
L 114.025132 203.796016 
L 114.140713 203.72745 
L 114.179241 203.769054 
L 114.603038 204.809577 
L 114.949781 206.187711 
L 115.065362 205.648605 
L 115.412106 203.743251 
L 115.450633 203.754558 
L 115.566214 204.040419 
L 116.644971 208.065813 
L 116.914661 207.670652 
L 116.953188 207.709067 
L 117.030242 207.712111 
L 117.454039 207.076316 
L 117.723728 206.934255 
L 117.877837 206.062321 
L 118.070472 205.248081 
L 118.147526 205.336506 
L 118.340161 206.126393 
L 118.571323 207.077911 
L 118.841013 206.147268 
L 119.495972 201.067144 
L 119.573026 201.030035 
L 119.611554 201.089033 
L 119.688608 201.20964 
L 119.727135 201.182822 
L 119.842716 200.847965 
L 120.073878 200.01459 
L 120.150932 200.107799 
L 120.536203 200.972775 
L 121.037054 200.330748 
L 121.114108 200.4486 
L 121.152635 200.489624 
L 121.191162 200.383658 
L 121.383797 199.763954 
L 121.422325 199.772941 
L 121.499379 199.70481 
L 121.61496 199.568403 
L 121.653487 199.611021 
L 121.807595 200.181729 
L 122.00023 200.664011 
L 122.462555 202.297855 
L 122.693717 203.024974 
L 122.886352 203.744266 
L 123.31015 205.692963 
L 123.348677 205.641502 
L 123.579839 205.322155 
L 123.618366 205.356656 
L 123.656893 205.283741 
L 124.003636 203.317358 
L 124.196272 202.699829 
L 124.388907 203.027438 
L 124.427434 202.987864 
L 124.697123 202.113321 
L 124.774177 202.194643 
L 124.966812 202.96554 
L 125.544718 205.640052 
L 125.737353 205.789361 
L 125.929988 205.742829 
L 126.04557 205.067171 
L 126.315259 203.192548 
L 126.546421 203.081364 
L 126.81611 202.157968 
L 126.854638 202.186091 
L 127.008746 202.663154 
L 127.509597 205.365933 
L 127.548124 205.171397 
L 128.12603 201.396348 
L 128.241611 201.607555 
L 128.472773 202.740852 
L 128.742463 204.297578 
L 128.78099 204.243363 
L 129.55153 201.968506 
L 129.859747 200.044596 
L 129.936801 199.961389 
L 129.975328 199.99734 
L 130.514707 200.973935 
L 130.591761 201.101355 
L 130.899977 200.057643 
L 130.938504 200.10519 
L 131.131139 200.819698 
L 131.51641 202.215372 
L 131.824626 203.072956 
L 131.90168 203.092525 
L 131.940207 203.0386 
L 132.094315 202.939738 
L 132.364005 203.205739 
L 132.826329 202.650977 
L 133.134545 201.710042 
L 133.558343 201.863844 
L 134.328884 204.454135 
L 134.791208 205.962733 
L 134.829735 205.933162 
L 135.060898 205.375211 
L 135.330587 204.256554 
L 135.446168 204.442393 
L 135.523222 204.52502 
L 135.561749 204.476314 
L 135.715857 203.660479 
L 135.94702 202.75129 
L 136.062601 202.927851 
L 136.370817 204.057524 
L 136.447871 203.908795 
L 136.563452 203.791812 
L 136.601979 203.819935 
L 136.756087 204.244378 
L 137.064304 205.567428 
L 137.102831 205.482046 
L 137.256939 205.098337 
L 137.295466 205.116892 
L 137.757791 206.03043 
L 137.988953 206.604036 
L 138.143061 206.934835 
L 138.41275 207.499454 
L 138.528331 207.670942 
L 138.566858 207.581212 
L 138.720967 207.277521 
L 138.759494 207.290567 
L 138.990656 207.294771 
L 139.029183 207.332895 
L 139.06771 207.290132 
L 139.221818 207.178658 
L 139.375926 207.580052 
L 139.645616 208.456915 
L 139.684143 208.42256 
L 139.761197 207.835037 
L 140.069413 205.23054 
L 140.377629 203.833271 
L 140.608792 202.647063 
L 140.685846 202.687797 
L 140.839954 203.235746 
L 141.032589 203.866757 
L 141.186697 203.807178 
L 141.340806 203.813556 
L 141.610495 202.923067 
L 141.687549 203.045993 
L 141.880184 203.884442 
L 142.265455 205.602073 
L 142.381036 205.011216 
L 142.766306 201.564792 
L 142.997468 201.072798 
L 143.113049 201.253998 
L 143.382739 202.282779 
L 143.459793 202.147531 
L 143.536847 201.851523 
L 143.806536 200.716921 
L 143.922117 200.672998 
L 144.076226 200.898701 
L 144.114753 200.797229 
L 144.615604 198.618335 
L 144.769712 198.747494 
L 144.962348 199.34444 
L 145.386145 200.7923 
L 145.424672 200.764758 
L 145.617307 199.049736 
L 145.925524 196.615133 
L 146.041105 196.443935 
L 146.079632 196.476261 
L 146.156686 196.356814 
L 146.272267 196.250268 
L 146.387848 196.567876 
L 147.004281 199.909494 
L 147.389551 201.719464 
L 147.697768 202.726212 
L 147.774822 202.797677 
L 147.813349 202.720993 
L 148.005984 202.269008 
L 148.044511 202.288722 
L 148.237146 202.369175 
L 148.506835 202.216387 
L 148.660944 202.56922 
L 148.96916 203.330695 
L 149.084741 203.523781 
L 149.123268 203.466667 
L 149.277376 202.939883 
L 149.701174 200.219998 
L 150.625823 197.889331 
L 150.702877 197.94978 
L 151.04962 198.852156 
L 151.088147 198.772572 
L 151.31931 197.862224 
L 151.588999 197.957317 
L 152.552175 200.836223 
L 152.975972 202.581686 
L 153.130081 203.045993 
L 154.05473 207.520474 
L 154.093257 207.202141 
L 154.44 203.172833 
L 154.709689 202.729111 
L 154.748216 202.798257 
L 155.017906 203.657435 
L 155.09496 203.559007 
L 155.210541 203.535958 
L 155.287595 203.571038 
L 155.326122 203.520012 
L 156.019609 200.928997 
L 156.13519 200.811 
L 156.173717 200.859272 
L 156.327825 201.394754 
L 156.443406 201.701779 
L 156.481933 201.652928 
L 156.79015 201.030614 
L 156.828677 201.050909 
L 156.982785 201.061926 
L 157.213947 201.074972 
L 157.368055 201.439112 
L 157.676272 203.019611 
L 158.177123 205.539015 
L 158.292704 205.465231 
L 158.485339 205.373181 
L 158.639448 205.611205 
L 158.677975 205.490164 
L 158.986191 203.60293 
L 159.063245 203.706286 
L 159.294407 204.703756 
L 160.026421 207.647893 
L 160.064948 207.664999 
L 160.180529 206.563738 
L 160.488746 203.45623 
L 160.719908 203.003375 
L 160.874016 203.086002 
L 161.066651 203.636705 
L 161.336341 204.957291 
L 161.413395 204.820594 
L 161.721611 203.768039 
L 161.798665 203.858639 
L 161.9913 204.63403 
L 162.299517 205.878222 
L 162.492152 204.785513 
L 162.761841 203.478119 
L 163.070058 203.151669 
L 163.224166 202.929011 
L 163.339747 203.122677 
L 163.763544 204.45399 
L 163.840598 204.406588 
L 163.917652 204.258584 
L 164.148815 202.249873 
L 164.495558 199.762649 
L 164.649666 199.749458 
L 164.803774 199.9956 
L 165.111991 201.033224 
L 165.150518 200.892757 
L 165.689896 197.437346 
L 165.882532 196.882729 
L 165.921059 196.8965 
L 166.03664 197.179027 
L 166.306329 198.717343 
L 166.537491 199.684081 
L 166.730127 199.63407 
L 166.884235 199.860932 
L 167.115397 200.780703 
L 167.577722 203.435791 
L 167.654776 203.160657 
L 167.885938 201.550586 
L 168.194154 199.426777 
L 168.271208 199.511868 
L 168.348262 199.673354 
L 168.386789 199.576811 
L 168.964695 195.852063 
L 169.080276 195.850904 
L 169.272911 196.110237 
L 169.311438 196.052543 
L 169.658182 194.946933 
L 170.004925 192.92967 
L 170.081979 192.955038 
L 170.236087 193.403399 
L 170.582831 195.30194 
L 170.659885 195.068844 
L 170.891047 194.267361 
L 171.083682 193.940911 
L 171.237791 194.001214 
L 171.430426 193.722021 
L 171.468953 193.763045 
L 171.738642 194.410436 
L 171.815696 194.304036 
L 171.89275 193.888435 
L 172.200967 191.549216 
L 172.278021 191.575598 
L 172.54771 192.128476 
L 172.586237 192.105137 
L 172.740345 192.032367 
L 172.894453 191.965251 
L 173.010035 191.992358 
L 173.20267 192.281409 
L 173.395305 192.883428 
L 173.433832 192.778766 
L 173.549413 191.992068 
L 173.857629 189.095188 
L 173.973211 188.819474 
L 174.011738 188.858758 
L 174.551116 190.485644 
L 174.974914 192.444489 
L 175.129022 192.975912 
L 175.167549 192.935903 
L 175.321657 192.76514 
L 175.360184 192.805004 
L 175.514292 193.325845 
L 175.6684 193.929024 
L 175.706928 193.834365 
L 176.015144 192.777462 
L 176.092198 192.738612 
L 176.130725 192.790653 
L 176.284833 193.403399 
L 176.554522 194.432615 
L 177.093901 196.613973 
L 178.01855 202.288287 
L 178.40382 204.468341 
L 178.596456 205.168208 
L 179.174361 208.325436 
L 179.251415 208.098574 
L 179.521105 205.652084 
L 179.829321 202.095346 
L 180.137537 200.801433 
L 180.253119 201.052068 
L 180.792497 203.186025 
L 180.831024 203.116879 
L 181.062186 202.252627 
L 181.100713 202.265964 
L 181.293349 202.560957 
L 181.331876 202.49587 
L 181.678619 200.526878 
L 181.909781 198.514254 
L 182.025362 198.440904 
L 182.06389 198.483087 
L 182.295052 199.060318 
L 182.333579 198.98233 
L 182.564741 198.288116 
L 182.603268 198.314934 
L 182.757376 198.829832 
L 183.10412 201.20964 
L 183.258228 202.095346 
L 183.296755 202.036202 
L 183.643498 199.684806 
L 184.14435 195.820172 
L 184.182877 195.869314 
L 184.336985 196.218377 
L 184.414039 196.158219 
L 184.52962 196.151841 
L 184.683728 196.595708 
L 185.492796 200.7549 
L 185.56985 200.545868 
L 185.878067 199.896302 
L 185.916594 199.939356 
L 186.070702 200.500206 
L 186.417445 202.074616 
L 186.455972 202.05983 
L 186.571554 202.102014 
L 186.725662 202.526457 
L 186.841243 202.930605 
L 186.87977 202.808404 
L 187.53473 199.272974 
L 187.611784 199.226007 
L 187.650311 199.263407 
L 187.804419 199.760475 
L 187.92 200.061267 
L 187.958527 200.046336 
L 188.112635 199.900796 
L 188.151162 199.933412 
L 188.30527 200.405692 
L 188.844649 202.490796 
L 188.96023 202.494131 
L 189.114338 202.540228 
L 189.306974 202.659965 
L 189.345501 202.583136 
L 189.692244 201.547107 
L 189.769298 201.655972 
L 190.347204 203.465363 
L 190.963636 206.469369 
L 191.387434 208.377332 
L 191.503015 208.18526 
L 191.772704 205.613235 
L 192.273556 201.859931 
L 192.658826 199.370532 
L 192.967043 196.980287 
L 193.121151 196.067909 
L 193.39084 194.725144 
L 193.544948 194.469435 
L 193.583475 194.483786 
L 193.814638 194.567138 
L 193.968746 194.035715 
L 194.392543 190.737295 
L 194.508124 190.653218 
L 194.546651 190.673947 
L 194.662232 190.691777 
L 194.777814 190.293717 
L 195.548354 183.406088 
L 195.586881 183.421019 
L 195.933625 184.131033 
L 196.550058 186.159458 
L 197.050909 190.57146 
L 197.320598 192.252272 
L 197.43618 192.556543 
L 197.474707 192.477684 
L 197.628815 192.237196 
L 197.667342 192.267637 
L 198.091139 192.990118 
L 198.129666 192.928075 
L 198.245247 192.828198 
L 198.283774 192.864148 
L 198.591991 192.76543 
L 198.746099 192.333739 
L 198.784626 192.357223 
L 199.054315 192.053821 
L 199.131369 191.739838 
L 199.51664 188.912248 
L 199.555167 188.96197 
L 199.940437 190.319375 
L 200.210127 191.766511 
L 200.595397 193.795951 
L 200.749505 194.102106 
L 201.5971 197.453726 
L 201.635627 197.338628 
L 201.905316 196.238527 
L 202.020898 196.18866 
L 202.213533 195.842931 
L 202.329114 196.06356 
L 202.829965 197.935428 
L 202.868493 197.688707 
L 203.253763 194.477843 
L 203.523452 194.019769 
L 203.600506 194.151393 
L 203.793142 195.150602 
L 204.139885 197.056101 
L 204.178412 196.974924 
L 204.717791 194.223728 
L 204.833372 194.503211 
L 206.258872 200.449615 
L 206.451507 200.627046 
L 207.029413 202.521673 
L 207.376157 204.573437 
L 207.414684 204.553577 
L 207.607319 204.428477 
L 207.761427 204.793196 
L 208.223751 206.177999 
L 208.339333 206.260626 
L 208.37786 206.230185 
L 208.686076 205.450155 
L 208.801657 205.489149 
L 208.994292 205.99332 
L 209.225455 206.250334 
L 209.302509 206.150602 
L 209.649252 205.156901 
L 209.764833 205.227206 
L 209.957468 205.874163 
L 210.342739 207.028479 
L 210.381266 207.077766 
L 210.419793 207.009635 
L 210.650955 205.301861 
L 211.11328 201.210655 
L 211.305915 201.044676 
L 211.460023 201.417513 
L 211.614131 201.8637 
L 211.652658 201.781362 
L 211.806766 200.654733 
L 212.230564 197.835116 
L 212.307618 197.82091 
L 212.423199 197.286153 
L 212.53878 197.02276 
L 212.577307 197.064944 
L 212.731415 197.676385 
L 213.347848 200.674158 
L 213.617537 201.745122 
L 213.887227 202.415997 
L 214.002808 202.365406 
L 214.426605 199.799759 
L 214.465132 199.818749 
L 214.619241 200.296537 
L 214.850403 200.97524 
L 214.927457 200.747942 
L 215.2742 199.204408 
L 215.351254 199.297183 
L 215.54389 200.127659 
L 216.083268 203.304747 
L 216.160322 203.188924 
L 216.275903 202.501379 
L 216.661174 199.890649 
L 216.853809 199.777725 
L 216.96939 199.86818 
L 217.046444 199.929498 
L 217.200552 199.737571 
L 217.508769 200.098522 
L 217.778458 199.200204 
L 217.816985 199.236444 
L 218.00962 199.846291 
L 218.086674 199.644072 
L 218.240783 198.348564 
L 218.626053 194.66948 
L 218.780161 193.698103 
L 218.895742 193.407458 
L 218.934269 193.444423 
L 219.088377 194.060213 
L 219.512175 196.089653 
L 219.627756 196.222871 
L 219.820391 197.029863 
L 220.051554 198.194762 
L 220.090081 198.177802 
L 220.244189 198.084592 
L 220.35977 198.337982 
L 220.590932 198.832151 
L 220.899148 199.56246 
L 220.976203 199.475628 
L 221.053257 199.433155 
L 221.554108 197.344716 
L 221.862325 195.322669 
L 221.977906 195.281211 
L 222.132014 194.785883 
L 222.44023 193.770728 
L 222.517284 193.819289 
L 222.594338 194.000779 
L 222.632865 193.956711 
L 222.902555 191.901179 
L 223.210771 189.244787 
L 223.673096 187.579486 
L 223.711623 187.60007 
L 223.788677 187.639934 
L 223.827204 187.579341 
L 224.019839 187.177222 
L 224.058366 187.194907 
L 224.13542 187.269996 
L 224.251001 186.328191 
L 224.751853 181.414337 
L 224.828907 181.521028 
L 225.021542 182.589093 
L 225.214177 183.527854 
L 225.291231 183.073115 
L 225.984718 175.084369 
L 226.21588 168.580014 
L 226.331461 160.991503 
L 226.369988 153.694651 
L 226.447043 69.709176 
L 226.601151 203.405639 
L 226.678205 207.051093 
L 226.716732 206.575334 
L 226.986421 204.031431 
L 227.179056 202.885233 
L 227.949597 190.545803 
L 228.219287 187.538317 
L 228.373395 187.153449 
L 228.488976 187.373643 
L 228.56603 187.543536 
L 228.604557 187.515704 
L 228.874246 187.044004 
L 228.912773 187.090391 
L 229.066881 187.582385 
L 229.375098 188.602759 
L 229.60626 188.365024 
L 229.721841 187.812872 
L 229.99153 186.718279 
L 230.107112 186.924412 
L 230.26122 187.52991 
L 230.299747 187.489756 
L 230.415328 186.901508 
L 230.64649 183.70688 
L 231.224396 175.434737 
L 231.68672 169.091868 
L 231.802301 161.393912 
L 231.840829 154.521213 
L 231.917883 64.228528 
L 232.071991 201.960823 
L 232.149045 205.481466 
L 232.187572 204.689985 
L 232.457261 200.446136 
L 232.688423 197.198597 
L 232.99664 193.293954 
L 233.112221 193.087821 
L 233.150748 193.113624 
L 233.304856 193.028967 
L 233.6516 192.357223 
L 233.767181 192.434196 
L 233.921289 191.656486 
L 234.190978 189.534996 
L 234.845938 183.358396 
L 234.922992 183.345639 
L 234.961519 183.403044 
L 235.038573 183.495818 
L 235.231208 182.109131 
L 235.963222 171.7284 
L 236.11733 165.883903 
L 236.194384 157.241677 
L 236.232911 135.694533 
L 236.271438 48.736218 
L 236.309965 129.581135 
L 236.464074 205.842996 
L 236.502601 206.13683 
L 237.003452 196.945497 
L 238.274845 187.367555 
L 238.85275 185.411029 
L 238.968331 185.168366 
L 239.160967 184.045651 
L 239.430656 179.330247 
L 240.008562 165.578327 
L 240.124143 157.3417 
L 240.16267 147.53965 
L 240.201197 47.763682 
L 240.239724 102.750054 
L 240.393832 202.401066 
L 240.432359 204.313379 
L 240.509413 203.728175 
L 240.856157 199.404018 
L 241.58817 189.905514 
L 241.896387 185.895051 
L 242.127549 182.658239 
L 242.435765 178.761424 
L 242.6284 176.451197 
L 242.859563 171.928735 
L 243.052198 164.433288 
L 243.129252 156.522676 
L 243.167779 139.972013 
L 243.206306 49.101952 
L 243.244833 128.69166 
L 243.398941 204.128555 
L 243.437468 204.824218 
L 243.475995 204.161316 
L 243.976847 193.553723 
L 244.59328 183.274029 
L 245.055604 172.801394 
L 245.286766 166.357487 
L 245.402348 154.996827 
L 245.479402 61.086085 
L 245.517929 149.014908 
L 245.672037 204.972367 
L 245.710564 204.946854 
L 246.365524 189.471794 
L 246.750794 186.430243 
L 247.174591 183.724275 
L 247.3287 182.41891 
L 247.675443 179.017714 
L 247.945132 178.002704 
L 248.176295 177.67321 
L 248.407457 176.235496 
L 248.677146 173.588672 
L 248.908308 169.5727 
L 249.062417 161.303167 
L 249.100944 155.019296 
L 249.177998 57.869423 
L 249.216525 142.803951 
L 249.40916 205.307659 
L 249.486214 204.546039 
L 249.832957 200.840862 
L 250.873188 194.562934 
L 251.065823 194.689629 
L 251.10435 194.643532 
L 251.374039 194.167048 
L 251.48962 193.078109 
L 251.913418 188.975306 
L 252.106053 188.440404 
L 252.414269 188.896593 
L 252.645432 189.535141 
L 252.722486 189.460777 
L 252.992175 189.208112 
L 253.300391 187.224044 
L 253.531554 183.461317 
L 254.22504 169.601837 
L 254.49473 164.379653 
L 254.610311 156.258269 
L 254.648838 145.420479 
L 254.687365 49.132829 
L 254.725892 110.759529 
L 254.88 200.154331 
L 254.957054 202.222186 
L 254.995581 201.816153 
L 255.573487 192.048023 
L 256.189919 184.597079 
L 256.459609 182.98121 
L 256.844879 182.837555 
L 257.076041 183.484801 
L 257.114568 183.333318 
L 257.422785 182.353533 
L 257.692474 182.591557 
L 257.808055 182.867271 
L 258.308907 184.75697 
L 258.347434 184.707539 
L 258.540069 184.389061 
L 259.117975 181.263579 
L 259.156502 181.306777 
L 259.233556 181.120068 
L 259.580299 180.059686 
L 259.657353 179.848479 
L 259.96557 178.557176 
L 260.042624 178.640963 
L 260.196732 179.31923 
L 260.504948 182.153343 
L 261.314016 190.682645 
L 261.429597 189.991765 
L 261.699287 188.591017 
L 261.776341 188.623198 
L 261.968976 189.069095 
L 262.007503 188.967188 
L 262.354246 188.036835 
L 262.469827 187.975372 
L 262.508354 188.012916 
L 262.932152 188.403874 
L 263.163314 188.231226 
L 263.201841 188.311679 
L 263.664166 189.706339 
L 264.087963 191.111002 
L 264.319125 191.165941 
L 264.704396 190.526523 
L 265.051139 189.659517 
L 265.16672 189.896382 
L 265.744626 192.150365 
L 265.783153 192.093975 
L 266.168423 190.947197 
L 266.553694 189.343214 
L 266.630748 189.344374 
L 266.938964 189.858692 
L 266.977491 189.83173 
L 267.1316 189.772296 
L 267.285708 189.854198 
L 267.709505 188.228472 
L 267.786559 188.236735 
L 267.90214 187.559482 
L 268.248884 185.084435 
L 268.325938 185.068634 
L 268.441519 185.445385 
L 268.634154 186.047984 
L 268.788262 186.177723 
L 268.942371 186.788294 
L 269.057952 187.398576 
L 269.096479 187.361901 
L 269.443222 186.519828 
L 269.481749 186.538673 
L 269.59733 186.830043 
L 270.059655 189.2861 
L 270.25229 189.789546 
L 270.483452 190.493182 
L 270.560506 190.452013 
L 270.676087 190.583492 
L 270.753142 190.820647 
L 270.791669 190.781652 
L 271.022831 190.234284 
L 271.138412 190.530292 
L 271.716318 193.453845 
L 271.831899 193.27453 
L 271.94748 192.884587 
L 272.140115 190.133826 
L 272.448331 187.169539 
L 272.60244 186.784525 
L 272.718021 187.053281 
L 272.949183 188.475919 
L 273.334453 191.158838 
L 273.37298 191.137384 
L 273.527089 190.650174 
L 273.719724 189.917111 
L 273.796778 190.029455 
L 273.989413 190.985466 
L 274.374684 192.935903 
L 274.490265 193.035201 
L 274.644373 193.549374 
L 274.721427 193.440364 
L 274.875535 193.266702 
L 274.991116 193.56271 
L 275.72313 196.424076 
L 275.800184 196.228669 
L 275.915765 194.84952 
L 276.185455 192.375053 
L 276.455144 191.82348 
L 276.493671 191.870882 
L 276.686306 192.274885 
L 277.148631 194.426237 
L 277.264212 194.936351 
L 277.302739 194.926349 
L 277.456847 194.798349 
L 277.495374 194.839953 
L 277.649482 195.377029 
L 278.227388 198.010953 
L 278.420023 198.754308 
L 278.574131 199.351688 
L 278.612658 199.280077 
L 278.882348 198.94609 
L 279.074983 199.025528 
L 279.460253 198.394952 
L 279.537307 198.496424 
L 279.729942 199.317187 
L 279.922578 199.897172 
L 280.076686 199.86934 
L 280.230794 200.345388 
L 280.693119 202.649093 
L 280.731646 202.483259 
L 281.502186 197.783945 
L 281.579241 197.69407 
L 281.617768 197.729585 
L 281.810403 197.987614 
L 281.84893 197.967755 
L 282.003038 197.976597 
L 282.157146 198.495554 
L 283.197376 203.308951 
L 283.27443 203.60177 
L 283.312957 203.569154 
L 283.505593 202.597487 
L 283.967917 199.204843 
L 284.006444 199.239344 
L 284.199079 199.839478 
L 284.892566 201.695401 
L 284.931093 201.655392 
L 285.354891 200.775485 
L 285.470472 199.849045 
L 285.701634 198.628917 
L 285.855742 198.767064 
L 285.894269 198.681248 
L 286.048377 197.84048 
L 286.318067 196.490612 
L 286.395121 196.563382 
L 286.626283 197.139308 
L 286.703337 197.046389 
L 286.818918 196.365947 
L 287.165662 194.439573 
L 287.281243 194.608452 
L 287.396824 194.865756 
L 287.782094 192.724116 
L 287.897675 192.9288 
L 288.128838 194.302441 
L 288.668216 197.670152 
L 288.822325 197.89542 
L 288.937906 198.161276 
L 289.438757 199.991396 
L 289.477284 199.952982 
L 289.631392 199.190782 
L 289.862555 198.006604 
L 289.939609 197.979061 
L 290.05519 197.764521 
L 290.093717 197.798876 
L 290.247825 198.395242 
L 290.902785 201.755124 
L 291.133947 202.477315 
L 291.519217 204.932648 
L 292.174177 208.914264 
L 292.520921 209.503092 
L 292.559448 209.443513 
L 293.137353 204.805808 
L 293.522624 200.854053 
L 293.676732 200.914646 
L 293.792313 200.998578 
L 293.946421 201.566242 
L 294.254638 202.752739 
L 294.331692 202.637351 
L 294.601381 201.180648 
L 294.986651 199.399959 
L 295.025178 199.407642 
L 295.140759 199.497952 
L 295.179287 199.425472 
L 295.371922 199.096993 
L 295.487503 199.316607 
L 295.795719 200.570221 
L 295.834246 200.281896 
L 296.142463 198.046178 
L 296.219517 198.07633 
L 296.373625 198.610507 
L 296.874476 200.672708 
L 297.144166 200.507454 
L 297.182693 200.586602 
L 297.375328 201.115416 
L 297.452382 201.025106 
L 297.529436 200.873333 
L 297.837652 199.898477 
L 298.068815 200.175205 
L 298.107342 200.019373 
L 298.608193 196.783141 
L 298.877883 196.8059 
L 299.070518 197.306302 
L 299.109045 197.274266 
L 299.340207 196.690222 
L 299.494315 195.058697 
L 299.879586 191.443975 
L 300.072221 191.158548 
L 300.380437 190.463465 
L 300.919816 185.988985 
L 301.150978 185.530621 
L 301.305086 184.654048 
L 301.459194 184.220038 
L 301.844465 184.753491 
L 302.306789 186.155254 
L 302.460898 185.909257 
L 302.499425 185.931871 
L 302.846168 186.742487 
L 303.308493 188.455914 
L 303.847871 190.977059 
L 303.963452 190.988945 
L 304.233142 190.499995 
L 304.348723 190.094687 
L 304.618412 189.273199 
L 304.888101 188.59957 
L 305.003682 188.867746 
L 305.234845 190.230225 
L 305.581588 192.13181 
L 306.390656 196.525837 
L 306.544764 196.992029 
L 306.583291 196.972749 
L 306.698872 197.079585 
L 306.968562 197.678124 
L 307.007089 197.609993 
L 307.469413 195.749287 
L 307.50794 195.793789 
L 308.085846 197.260495 
L 308.201427 197.120318 
L 308.317008 197.139018 
L 308.471116 197.592018 
L 309.010495 199.694518 
L 309.164603 199.646681 
L 309.318711 200.027346 
L 309.626928 201.73541 
L 310.127779 204.415865 
L 310.281887 204.480517 
L 310.435995 204.917572 
L 310.782739 205.915766 
L 311.013901 206.781902 
L 311.745915 210.786132 
L 311.900023 210.699591 
L 312.054131 210.977335 
L 312.516456 212.414033 
L 312.554983 212.303284 
L 313.171415 209.333633 
L 313.286997 209.500482 
L 313.325524 209.444383 
L 313.749321 207.857216 
L 313.826375 207.927086 
L 313.980483 208.070452 
L 314.211646 207.954774 
L 314.327227 207.786765 
L 314.365754 207.811553 
L 314.519862 208.207004 
L 314.67397 208.356748 
L 314.943659 208.393858 
L 315.136295 208.872226 
L 315.251876 209.304061 
L 315.290403 209.263473 
L 315.521565 207.264909 
L 315.829781 204.375566 
L 315.906835 204.380495 
L 316.060944 204.848571 
L 316.561795 207.233888 
L 316.638849 207.173294 
L 316.75443 206.469514 
L 317.101174 203.6728 
L 317.178228 203.671061 
L 317.332336 204.105361 
L 317.717606 205.730363 
L 317.756133 205.696442 
L 318.06435 204.90728 
L 318.411093 203.210233 
L 318.488147 203.286627 
L 319.10458 205.094858 
L 319.374269 206.075802 
L 319.451323 206.123204 
L 319.48985 206.045216 
L 320.029229 201.296616 
L 320.106283 201.40983 
L 320.298918 202.281909 
L 320.530081 203.150799 
L 320.761243 203.496674 
L 321.030932 204.743475 
L 321.339148 205.717026 
L 321.493257 205.859377 
L 321.685892 206.505464 
L 321.762946 206.672603 
L 321.801473 206.622301 
L 321.917054 206.632014 
L 322.186743 207.355509 
L 322.22527 207.249833 
L 322.417906 205.538436 
L 322.687595 203.723391 
L 322.764649 203.786159 
L 322.957284 204.538936 
L 322.995811 204.688825 
L 323.034338 204.484866 
L 323.304028 202.758393 
L 323.843406 203.074695 
L 324.036041 203.789203 
L 324.19015 204.517482 
L 324.228677 204.428332 
L 324.806582 200.294218 
L 324.999217 200.071414 
L 325.114799 200.162304 
L 325.345961 200.88406 
L 325.423015 200.742724 
L 325.61565 200.336836 
L 325.654177 200.354811 
L 325.808285 200.767077 
L 326.077975 201.567836 
L 326.309137 201.496081 
L 326.501772 202.128831 
L 326.578826 201.913856 
L 326.732934 201.623646 
L 327.041151 202.032288 
L 327.272313 203.07455 
L 327.619056 204.970047 
L 327.657583 204.936996 
L 327.9658 204.515163 
L 328.582232 202.049248 
L 328.697814 202.104623 
L 328.967503 202.856531 
L 329.044557 202.579802 
L 329.352773 201.363298 
L 329.429827 201.350831 
L 329.468354 201.408525 
L 329.66099 202.071282 
L 329.738044 201.923568 
L 329.930679 201.488978 
L 330.084787 201.475642 
L 330.200368 201.540729 
L 330.393003 202.274081 
L 330.970909 204.847991 
L 331.857031 208.758867 
L 332.319356 209.503671 
L 332.434937 209.194617 
L 332.704626 206.312377 
L 332.974315 204.504291 
L 333.089896 204.426157 
L 333.205478 204.527484 
L 333.244005 204.459353 
L 333.475167 203.481163 
L 333.590748 203.708316 
L 333.667802 203.87386 
L 333.706329 203.731944 
L 334.0916 201.810064 
L 334.168654 201.958358 
L 334.708032 204.158271 
L 334.939194 205.031076 
L 335.170357 205.687599 
L 335.401519 206.347747 
L 336.017952 203.22096 
L 336.210587 201.858046 
L 336.55733 198.941161 
L 336.788493 198.411042 
L 336.904074 198.518603 
L 337.096709 199.299502 
L 337.905777 203.378966 
L 338.329574 204.674329 
L 338.368101 204.631711 
L 338.599264 204.389193 
L 338.753372 204.729124 
L 338.868953 204.899742 
L 338.90748 204.879157 
L 339.100115 204.194801 
L 339.369804 202.815942 
L 339.523913 202.630538 
L 339.716548 202.391209 
L 339.755075 202.414982 
L 339.870656 202.493986 
L 339.909183 202.46137 
L 340.101818 202.401646 
L 340.255926 202.766945 
L 340.564143 204.319757 
L 340.795305 205.218509 
L 340.910886 205.378255 
L 340.98794 205.507849 
L 341.026467 205.455953 
L 341.142048 205.429426 
L 341.296157 205.904025 
L 341.604373 207.541203 
L 341.681427 207.312021 
L 341.989643 205.902865 
L 342.105224 206.034489 
L 342.29786 206.57287 
L 342.374914 206.450524 
L 342.68313 205.769357 
L 342.837238 205.963603 
L 342.875765 205.893008 
L 343.299563 205.234889 
L 343.415144 205.187777 
L 343.800414 203.992002 
L 344.224212 203.918073 
L 344.301266 203.866032 
L 344.416847 203.284887 
L 344.840644 199.997919 
L 345.110334 198.346535 
L 345.41855 194.970562 
L 345.534131 194.846186 
L 345.572658 194.86793 
L 345.765293 195.096677 
L 346.343199 196.525113 
L 346.535834 197.071177 
L 347.036686 199.182084 
L 347.075213 199.143525 
L 347.152267 199.123666 
L 347.190794 199.180055 
L 347.229321 199.27138 
L 347.267848 199.208322 
L 347.537537 198.467722 
L 347.730173 198.382485 
L 347.807227 198.254196 
L 347.845754 198.270721 
L 348.346605 199.302256 
L 348.847457 202.034897 
L 348.924511 201.768751 
L 349.117146 201.225151 
L 349.155673 201.234428 
L 349.271254 201.466799 
L 349.540944 202.078965 
L 349.656525 202.27988 
L 349.887687 203.300398 
L 350.311484 205.243442 
L 350.427066 205.157771 
L 350.581174 205.084131 
L 350.927917 205.123705 
L 351.082025 204.865821 
L 351.197606 205.103556 
L 351.390242 205.666725 
L 351.428769 205.614105 
L 351.621404 205.345494 
L 351.659931 205.367963 
L 351.814039 205.728188 
L 352.045201 206.281066 
L 352.391945 206.274832 
L 352.623107 205.891993 
L 352.661634 205.943309 
L 352.892796 206.582292 
L 352.931323 206.458497 
L 353.162486 205.743554 
L 353.316594 205.707024 
L 353.509229 205.488859 
L 353.62481 205.653099 
L 353.855972 206.558084 
L 353.971554 207.00659 
L 354.010081 206.991225 
L 354.433878 206.346588 
L 354.472405 206.392105 
L 354.66504 206.995139 
L 354.703567 207.117485 
L 354.742094 207.036887 
L 354.896203 206.109143 
L 355.165892 204.640988 
L 355.242946 204.675199 
L 355.397054 205.134142 
L 356.090541 208.098429 
L 356.129068 208.071177 
L 356.591392 206.214384 
L 356.668446 206.21047 
L 356.822555 205.765588 
L 357.01519 205.257648 
L 357.130771 205.454359 
L 357.284879 205.984912 
L 357.323406 205.925334 
L 358.016893 202.472676 
L 358.44069 196.029784 
L 358.671853 193.789572 
L 358.748907 193.736082 
L 358.787434 193.796676 
L 358.980069 194.657448 
L 359.712083 198.614131 
L 359.904718 199.282832 
L 359.981772 199.238039 
L 360.097353 199.417355 
L 360.251461 199.700172 
L 360.289988 199.63378 
L 360.598205 199.064087 
L 360.636732 199.12555 
L 360.829367 199.625662 
L 360.867894 199.504186 
L 361.214638 197.768145 
L 361.561381 197.16917 
L 361.908124 195.274543 
L 361.985178 195.343544 
L 362.48603 196.343913 
L 362.640138 196.390155 
L 362.832773 196.406825 
L 363.102463 196.819671 
L 363.14099 196.789665 
L 363.256571 196.756759 
L 363.372152 196.060516 
L 363.603314 194.819658 
L 363.680368 194.889819 
L 363.988585 195.434868 
L 364.065639 195.506479 
L 364.104166 195.445451 
L 364.296801 194.883441 
L 364.527963 193.895538 
L 364.643544 193.995706 
L 364.83618 194.738626 
L 365.144396 196.352755 
L 365.22145 196.286653 
L 365.375558 196.232728 
L 365.568193 195.809155 
L 366.069045 192.287787 
L 366.300207 190.200218 
L 366.415788 190.264435 
L 366.646951 190.666554 
L 367.109275 191.567626 
L 367.147802 191.640106 
L 367.186329 191.609664 
L 367.648654 187.690091 
L 367.725708 187.139098 
L 368.265086 179.694532 
L 368.380667 179.627415 
L 368.496249 179.677282 
L 368.650357 179.57291 
L 368.765938 179.822532 
L 369.112681 181.197912 
L 369.228262 181.572924 
L 369.266789 181.480729 
L 369.690587 179.579289 
L 369.767641 179.602627 
L 369.844695 179.44636 
L 370.268493 177.0925 
L 370.30702 177.151499 
L 370.615236 177.694084 
L 370.730817 177.083802 
L 371.693993 166.890215 
L 371.848101 160.109856 
L 371.886628 154.931015 
L 371.925155 134.460779 
L 371.963682 51.383913 
L 372.002209 127.528646 
L 372.156318 199.410541 
L 372.271899 202.16855 
L 372.310426 202.112741 
L 372.811277 200.821872 
L 372.926858 200.903629 
L 373.350656 202.143907 
L 373.581818 202.908281 
L 373.581818 202.908281 
" style="fill:none;stroke:#ff0000;stroke-linecap:square;stroke-width:1.5;"/>
   </g>
   <g id="line2d_20">
    <path clip-path="url(#p662b55842b)" d="M 258.00069 201.264 
L 296.450679 201.264 
L 296.450679 201.264 
" style="fill:none;stroke:#000000;stroke-linecap:square;stroke-width:1.5;"/>
   </g>
   <g id="line2d_21">
    <path clip-path="url(#p662b55842b)" d="M 258.00069 179.52 
L 258.00069 178.0704 
L 258.00069 176.6208 
L 258.00069 175.1712 
L 258.00069 173.7216 
L 258.00069 172.272 
L 258.00069 170.8224 
L 258.00069 169.3728 
L 258.00069 167.9232 
L 258.00069 166.4736 
L 258.00069 165.024 
L 258.00069 163.5744 
L 258.00069 162.1248 
L 258.00069 160.6752 
L 258.00069 159.2256 
L 258.00069 157.776 
L 258.00069 156.3264 
L 258.00069 154.8768 
L 258.00069 153.4272 
L 258.00069 151.9776 
" style="fill:none;stroke:#000000;stroke-linecap:square;stroke-width:1.5;"/>
   </g>
   <g id="patch_3">
    <path d="M 54 252 
L 54 34.56 
" style="fill:none;stroke:#000000;stroke-linecap:square;stroke-linejoin:miter;stroke-width:0.8;"/>
   </g>
   <g id="patch_4">
    <path d="M 54 252 
L 388.8 252 
" style="fill:none;stroke:#000000;stroke-linecap:square;stroke-linejoin:miter;stroke-width:0.8;"/>
   </g>
   <g id="text_20">
    <!-- 500 ms -->
    <g transform="translate(258.00069 199.8144)scale(0.12 -0.12)">
     <use xlink:href="#DejaVuSans-35"/>
     <use x="63.623047" xlink:href="#DejaVuSans-30"/>
     <use x="127.246094" xlink:href="#DejaVuSans-30"/>
     <use x="190.869141" xlink:href="#DejaVuSans-20"/>
     <use x="222.65625" xlink:href="#DejaVuSans-6d"/>
     <use x="320.068359" xlink:href="#DejaVuSans-73"/>
    </g>
   </g>
   <g id="text_21">
    <!-- 20 mV -->
    <g transform="translate(261.853395 150.528)scale(0.12 -0.12)">
     <use xlink:href="#DejaVuSans-32"/>
     <use x="63.623047" xlink:href="#DejaVuSans-30"/>
     <use x="127.246094" xlink:href="#DejaVuSans-20"/>
     <use x="159.033203" xlink:href="#DejaVuSans-6d"/>
     <use x="256.445312" xlink:href="#DejaVuSans-56"/>
    </g>
   </g>
  </g>
 </g>
 <defs>
  <clipPath id="p662b55842b">
   <rect height="217.44" width="334.8" x="54" y="34.56"/>
  </clipPath>
 </defs>
</svg>
