<?xml version="1.0" encoding="utf-8" standalone="no"?>
<!DOCTYPE svg PUBLIC "-//W3C//DTD SVG 1.1//EN"
  "http://www.w3.org/Graphics/SVG/1.1/DTD/svg11.dtd">
<svg height="288pt" version="1.1" viewBox="0 0 432 288" width="432pt" xmlns="http://www.w3.org/2000/svg" xmlns:xlink="http://www.w3.org/1999/xlink">
 <metadata>
  <rdf:RDF xmlns:cc="http://creativecommons.org/ns#" xmlns:dc="http://purl.org/dc/elements/1.1/" xmlns:rdf="http://www.w3.org/1999/02/22-rdf-syntax-ns#">
   <cc:Work>
    <dc:type rdf:resource="http://purl.org/dc/dcmitype/StillImage"/>
    <dc:date>2021-07-05T15:15:03.837908</dc:date>
    <dc:format>image/svg+xml</dc:format>
    <dc:creator>
     <cc:Agent>
      <dc:title>Matplotlib v3.4.1, https://matplotlib.org/</dc:title>
     </cc:Agent>
    </dc:creator>
   </cc:Work>
  </rdf:RDF>
 </metadata>
 <defs>
  <style type="text/css">*{stroke-linecap:butt;stroke-linejoin:round;}</style>
 </defs>
 <g id="figure_1">
  <g id="patch_1">
   <path d="M 0 288 
L 432 288 
L 432 0 
L 0 0 
z
" style="fill:none;"/>
  </g>
  <g id="axes_1">
   <g id="patch_2">
    <path d="M 54 252 
L 388.8 252 
L 388.8 34.56 
L 54 34.56 
z
" style="fill:#ffffff;"/>
   </g>
   <g id="matplotlib.axis_1">
    <g id="xtick_1">
     <g id="line2d_1">
      <defs>
       <path d="M 0 0 
L 0 3.5 
" id="ma2909f4d70" style="stroke:#000000;stroke-width:0.8;"/>
      </defs>
      <g>
       <use style="stroke:#000000;stroke-width:0.8;" x="65.365478" xlink:href="#ma2909f4d70" y="252"/>
      </g>
     </g>
     <g id="text_1">
      <!-- 0 -->
      <g transform="translate(61.547978 268.118125)scale(0.12 -0.12)">
       <defs>
        <path d="M 2034 4250 
Q 1547 4250 1301 3770 
Q 1056 3291 1056 2328 
Q 1056 1369 1301 889 
Q 1547 409 2034 409 
Q 2525 409 2770 889 
Q 3016 1369 3016 2328 
Q 3016 3291 2770 3770 
Q 2525 4250 2034 4250 
z
M 2034 4750 
Q 2819 4750 3233 4129 
Q 3647 3509 3647 2328 
Q 3647 1150 3233 529 
Q 2819 -91 2034 -91 
Q 1250 -91 836 529 
Q 422 1150 422 2328 
Q 422 3509 836 4129 
Q 1250 4750 2034 4750 
z
" id="DejaVuSans-30" transform="scale(0.015625)"/>
       </defs>
       <use xlink:href="#DejaVuSans-30"/>
      </g>
     </g>
    </g>
    <g id="xtick_2">
     <g id="line2d_2">
      <g>
       <use style="stroke:#000000;stroke-width:0.8;" x="103.89252" xlink:href="#ma2909f4d70" y="252"/>
      </g>
     </g>
     <g id="text_2">
      <!-- 500 -->
      <g transform="translate(92.44002 268.118125)scale(0.12 -0.12)">
       <defs>
        <path d="M 691 4666 
L 3169 4666 
L 3169 4134 
L 1269 4134 
L 1269 2991 
Q 1406 3038 1543 3061 
Q 1681 3084 1819 3084 
Q 2600 3084 3056 2656 
Q 3513 2228 3513 1497 
Q 3513 744 3044 326 
Q 2575 -91 1722 -91 
Q 1428 -91 1123 -41 
Q 819 9 494 109 
L 494 744 
Q 775 591 1075 516 
Q 1375 441 1709 441 
Q 2250 441 2565 725 
Q 2881 1009 2881 1497 
Q 2881 1984 2565 2268 
Q 2250 2553 1709 2553 
Q 1456 2553 1204 2497 
Q 953 2441 691 2322 
L 691 4666 
z
" id="DejaVuSans-35" transform="scale(0.015625)"/>
       </defs>
       <use xlink:href="#DejaVuSans-35"/>
       <use x="63.623047" xlink:href="#DejaVuSans-30"/>
       <use x="127.246094" xlink:href="#DejaVuSans-30"/>
      </g>
     </g>
    </g>
    <g id="xtick_3">
     <g id="line2d_3">
      <g>
       <use style="stroke:#000000;stroke-width:0.8;" x="142.419563" xlink:href="#ma2909f4d70" y="252"/>
      </g>
     </g>
     <g id="text_3">
      <!-- 1000 -->
      <g transform="translate(127.149563 268.118125)scale(0.12 -0.12)">
       <defs>
        <path d="M 794 531 
L 1825 531 
L 1825 4091 
L 703 3866 
L 703 4441 
L 1819 4666 
L 2450 4666 
L 2450 531 
L 3481 531 
L 3481 0 
L 794 0 
L 794 531 
z
" id="DejaVuSans-31" transform="scale(0.015625)"/>
       </defs>
       <use xlink:href="#DejaVuSans-31"/>
       <use x="63.623047" xlink:href="#DejaVuSans-30"/>
       <use x="127.246094" xlink:href="#DejaVuSans-30"/>
       <use x="190.869141" xlink:href="#DejaVuSans-30"/>
      </g>
     </g>
    </g>
    <g id="xtick_4">
     <g id="line2d_4">
      <g>
       <use style="stroke:#000000;stroke-width:0.8;" x="180.946605" xlink:href="#ma2909f4d70" y="252"/>
      </g>
     </g>
     <g id="text_4">
      <!-- 1500 -->
      <g transform="translate(165.676605 268.118125)scale(0.12 -0.12)">
       <use xlink:href="#DejaVuSans-31"/>
       <use x="63.623047" xlink:href="#DejaVuSans-35"/>
       <use x="127.246094" xlink:href="#DejaVuSans-30"/>
       <use x="190.869141" xlink:href="#DejaVuSans-30"/>
      </g>
     </g>
    </g>
    <g id="xtick_5">
     <g id="line2d_5">
      <g>
       <use style="stroke:#000000;stroke-width:0.8;" x="219.473648" xlink:href="#ma2909f4d70" y="252"/>
      </g>
     </g>
     <g id="text_5">
      <!-- 2000 -->
      <g transform="translate(204.203648 268.118125)scale(0.12 -0.12)">
       <defs>
        <path d="M 1228 531 
L 3431 531 
L 3431 0 
L 469 0 
L 469 531 
Q 828 903 1448 1529 
Q 2069 2156 2228 2338 
Q 2531 2678 2651 2914 
Q 2772 3150 2772 3378 
Q 2772 3750 2511 3984 
Q 2250 4219 1831 4219 
Q 1534 4219 1204 4116 
Q 875 4013 500 3803 
L 500 4441 
Q 881 4594 1212 4672 
Q 1544 4750 1819 4750 
Q 2544 4750 2975 4387 
Q 3406 4025 3406 3419 
Q 3406 3131 3298 2873 
Q 3191 2616 2906 2266 
Q 2828 2175 2409 1742 
Q 1991 1309 1228 531 
z
" id="DejaVuSans-32" transform="scale(0.015625)"/>
       </defs>
       <use xlink:href="#DejaVuSans-32"/>
       <use x="63.623047" xlink:href="#DejaVuSans-30"/>
       <use x="127.246094" xlink:href="#DejaVuSans-30"/>
       <use x="190.869141" xlink:href="#DejaVuSans-30"/>
      </g>
     </g>
    </g>
    <g id="xtick_6">
     <g id="line2d_6">
      <g>
       <use style="stroke:#000000;stroke-width:0.8;" x="258.00069" xlink:href="#ma2909f4d70" y="252"/>
      </g>
     </g>
     <g id="text_6">
      <!-- 2500 -->
      <g transform="translate(242.73069 268.118125)scale(0.12 -0.12)">
       <use xlink:href="#DejaVuSans-32"/>
       <use x="63.623047" xlink:href="#DejaVuSans-35"/>
       <use x="127.246094" xlink:href="#DejaVuSans-30"/>
       <use x="190.869141" xlink:href="#DejaVuSans-30"/>
      </g>
     </g>
    </g>
    <g id="xtick_7">
     <g id="line2d_7">
      <g>
       <use style="stroke:#000000;stroke-width:0.8;" x="296.527733" xlink:href="#ma2909f4d70" y="252"/>
      </g>
     </g>
     <g id="text_7">
      <!-- 3000 -->
      <g transform="translate(281.257733 268.118125)scale(0.12 -0.12)">
       <defs>
        <path d="M 2597 2516 
Q 3050 2419 3304 2112 
Q 3559 1806 3559 1356 
Q 3559 666 3084 287 
Q 2609 -91 1734 -91 
Q 1441 -91 1130 -33 
Q 819 25 488 141 
L 488 750 
Q 750 597 1062 519 
Q 1375 441 1716 441 
Q 2309 441 2620 675 
Q 2931 909 2931 1356 
Q 2931 1769 2642 2001 
Q 2353 2234 1838 2234 
L 1294 2234 
L 1294 2753 
L 1863 2753 
Q 2328 2753 2575 2939 
Q 2822 3125 2822 3475 
Q 2822 3834 2567 4026 
Q 2313 4219 1838 4219 
Q 1578 4219 1281 4162 
Q 984 4106 628 3988 
L 628 4550 
Q 988 4650 1302 4700 
Q 1616 4750 1894 4750 
Q 2613 4750 3031 4423 
Q 3450 4097 3450 3541 
Q 3450 3153 3228 2886 
Q 3006 2619 2597 2516 
z
" id="DejaVuSans-33" transform="scale(0.015625)"/>
       </defs>
       <use xlink:href="#DejaVuSans-33"/>
       <use x="63.623047" xlink:href="#DejaVuSans-30"/>
       <use x="127.246094" xlink:href="#DejaVuSans-30"/>
       <use x="190.869141" xlink:href="#DejaVuSans-30"/>
      </g>
     </g>
    </g>
    <g id="xtick_8">
     <g id="line2d_8">
      <g>
       <use style="stroke:#000000;stroke-width:0.8;" x="335.054776" xlink:href="#ma2909f4d70" y="252"/>
      </g>
     </g>
     <g id="text_8">
      <!-- 3500 -->
      <g transform="translate(319.784776 268.118125)scale(0.12 -0.12)">
       <use xlink:href="#DejaVuSans-33"/>
       <use x="63.623047" xlink:href="#DejaVuSans-35"/>
       <use x="127.246094" xlink:href="#DejaVuSans-30"/>
       <use x="190.869141" xlink:href="#DejaVuSans-30"/>
      </g>
     </g>
    </g>
    <g id="xtick_9">
     <g id="line2d_9">
      <g>
       <use style="stroke:#000000;stroke-width:0.8;" x="373.581818" xlink:href="#ma2909f4d70" y="252"/>
      </g>
     </g>
     <g id="text_9">
      <!-- 4000 -->
      <g transform="translate(358.311818 268.118125)scale(0.12 -0.12)">
       <defs>
        <path d="M 2419 4116 
L 825 1625 
L 2419 1625 
L 2419 4116 
z
M 2253 4666 
L 3047 4666 
L 3047 1625 
L 3713 1625 
L 3713 1100 
L 3047 1100 
L 3047 0 
L 2419 0 
L 2419 1100 
L 313 1100 
L 313 1709 
L 2253 4666 
z
" id="DejaVuSans-34" transform="scale(0.015625)"/>
       </defs>
       <use xlink:href="#DejaVuSans-34"/>
       <use x="63.623047" xlink:href="#DejaVuSans-30"/>
       <use x="127.246094" xlink:href="#DejaVuSans-30"/>
       <use x="190.869141" xlink:href="#DejaVuSans-30"/>
      </g>
     </g>
    </g>
    <g id="text_10">
     <!-- Time(ms) -->
     <g transform="translate(193.067813 283.731875)scale(0.12 -0.12)">
      <defs>
       <path d="M -19 4666 
L 3928 4666 
L 3928 4134 
L 2272 4134 
L 2272 0 
L 1638 0 
L 1638 4134 
L -19 4134 
L -19 4666 
z
" id="DejaVuSans-54" transform="scale(0.015625)"/>
       <path d="M 603 3500 
L 1178 3500 
L 1178 0 
L 603 0 
L 603 3500 
z
M 603 4863 
L 1178 4863 
L 1178 4134 
L 603 4134 
L 603 4863 
z
" id="DejaVuSans-69" transform="scale(0.015625)"/>
       <path d="M 3328 2828 
Q 3544 3216 3844 3400 
Q 4144 3584 4550 3584 
Q 5097 3584 5394 3201 
Q 5691 2819 5691 2113 
L 5691 0 
L 5113 0 
L 5113 2094 
Q 5113 2597 4934 2840 
Q 4756 3084 4391 3084 
Q 3944 3084 3684 2787 
Q 3425 2491 3425 1978 
L 3425 0 
L 2847 0 
L 2847 2094 
Q 2847 2600 2669 2842 
Q 2491 3084 2119 3084 
Q 1678 3084 1418 2786 
Q 1159 2488 1159 1978 
L 1159 0 
L 581 0 
L 581 3500 
L 1159 3500 
L 1159 2956 
Q 1356 3278 1631 3431 
Q 1906 3584 2284 3584 
Q 2666 3584 2933 3390 
Q 3200 3197 3328 2828 
z
" id="DejaVuSans-6d" transform="scale(0.015625)"/>
       <path d="M 3597 1894 
L 3597 1613 
L 953 1613 
Q 991 1019 1311 708 
Q 1631 397 2203 397 
Q 2534 397 2845 478 
Q 3156 559 3463 722 
L 3463 178 
Q 3153 47 2828 -22 
Q 2503 -91 2169 -91 
Q 1331 -91 842 396 
Q 353 884 353 1716 
Q 353 2575 817 3079 
Q 1281 3584 2069 3584 
Q 2775 3584 3186 3129 
Q 3597 2675 3597 1894 
z
M 3022 2063 
Q 3016 2534 2758 2815 
Q 2500 3097 2075 3097 
Q 1594 3097 1305 2825 
Q 1016 2553 972 2059 
L 3022 2063 
z
" id="DejaVuSans-65" transform="scale(0.015625)"/>
       <path d="M 1984 4856 
Q 1566 4138 1362 3434 
Q 1159 2731 1159 2009 
Q 1159 1288 1364 580 
Q 1569 -128 1984 -844 
L 1484 -844 
Q 1016 -109 783 600 
Q 550 1309 550 2009 
Q 550 2706 781 3412 
Q 1013 4119 1484 4856 
L 1984 4856 
z
" id="DejaVuSans-28" transform="scale(0.015625)"/>
       <path d="M 2834 3397 
L 2834 2853 
Q 2591 2978 2328 3040 
Q 2066 3103 1784 3103 
Q 1356 3103 1142 2972 
Q 928 2841 928 2578 
Q 928 2378 1081 2264 
Q 1234 2150 1697 2047 
L 1894 2003 
Q 2506 1872 2764 1633 
Q 3022 1394 3022 966 
Q 3022 478 2636 193 
Q 2250 -91 1575 -91 
Q 1294 -91 989 -36 
Q 684 19 347 128 
L 347 722 
Q 666 556 975 473 
Q 1284 391 1588 391 
Q 1994 391 2212 530 
Q 2431 669 2431 922 
Q 2431 1156 2273 1281 
Q 2116 1406 1581 1522 
L 1381 1569 
Q 847 1681 609 1914 
Q 372 2147 372 2553 
Q 372 3047 722 3315 
Q 1072 3584 1716 3584 
Q 2034 3584 2315 3537 
Q 2597 3491 2834 3397 
z
" id="DejaVuSans-73" transform="scale(0.015625)"/>
       <path d="M 513 4856 
L 1013 4856 
Q 1481 4119 1714 3412 
Q 1947 2706 1947 2009 
Q 1947 1309 1714 600 
Q 1481 -109 1013 -844 
L 513 -844 
Q 928 -128 1133 580 
Q 1338 1288 1338 2009 
Q 1338 2731 1133 3434 
Q 928 4138 513 4856 
z
" id="DejaVuSans-29" transform="scale(0.015625)"/>
      </defs>
      <use xlink:href="#DejaVuSans-54"/>
      <use x="57.958984" xlink:href="#DejaVuSans-69"/>
      <use x="85.742188" xlink:href="#DejaVuSans-6d"/>
      <use x="183.154297" xlink:href="#DejaVuSans-65"/>
      <use x="244.677734" xlink:href="#DejaVuSans-28"/>
      <use x="283.691406" xlink:href="#DejaVuSans-6d"/>
      <use x="381.103516" xlink:href="#DejaVuSans-73"/>
      <use x="433.203125" xlink:href="#DejaVuSans-29"/>
     </g>
    </g>
   </g>
   <g id="matplotlib.axis_2">
    <g id="ytick_1">
     <g id="line2d_10">
      <defs>
       <path d="M 0 0 
L -3.5 0 
" id="m2ed103ade4" style="stroke:#000000;stroke-width:0.8;"/>
      </defs>
      <g>
       <use style="stroke:#000000;stroke-width:0.8;" x="54" xlink:href="#m2ed103ade4" y="237.504"/>
      </g>
     </g>
     <g id="text_11">
      <!-- -100 -->
      <g transform="translate(19.765625 242.063063)scale(0.12 -0.12)">
       <defs>
        <path d="M 313 2009 
L 1997 2009 
L 1997 1497 
L 313 1497 
L 313 2009 
z
" id="DejaVuSans-2d" transform="scale(0.015625)"/>
       </defs>
       <use xlink:href="#DejaVuSans-2d"/>
       <use x="36.083984" xlink:href="#DejaVuSans-31"/>
       <use x="99.707031" xlink:href="#DejaVuSans-30"/>
       <use x="163.330078" xlink:href="#DejaVuSans-30"/>
      </g>
     </g>
    </g>
    <g id="ytick_2">
     <g id="line2d_11">
      <g>
       <use style="stroke:#000000;stroke-width:0.8;" x="54" xlink:href="#m2ed103ade4" y="208.512"/>
      </g>
     </g>
     <g id="text_12">
      <!-- -80 -->
      <g transform="translate(27.400625 213.071062)scale(0.12 -0.12)">
       <defs>
        <path d="M 2034 2216 
Q 1584 2216 1326 1975 
Q 1069 1734 1069 1313 
Q 1069 891 1326 650 
Q 1584 409 2034 409 
Q 2484 409 2743 651 
Q 3003 894 3003 1313 
Q 3003 1734 2745 1975 
Q 2488 2216 2034 2216 
z
M 1403 2484 
Q 997 2584 770 2862 
Q 544 3141 544 3541 
Q 544 4100 942 4425 
Q 1341 4750 2034 4750 
Q 2731 4750 3128 4425 
Q 3525 4100 3525 3541 
Q 3525 3141 3298 2862 
Q 3072 2584 2669 2484 
Q 3125 2378 3379 2068 
Q 3634 1759 3634 1313 
Q 3634 634 3220 271 
Q 2806 -91 2034 -91 
Q 1263 -91 848 271 
Q 434 634 434 1313 
Q 434 1759 690 2068 
Q 947 2378 1403 2484 
z
M 1172 3481 
Q 1172 3119 1398 2916 
Q 1625 2713 2034 2713 
Q 2441 2713 2670 2916 
Q 2900 3119 2900 3481 
Q 2900 3844 2670 4047 
Q 2441 4250 2034 4250 
Q 1625 4250 1398 4047 
Q 1172 3844 1172 3481 
z
" id="DejaVuSans-38" transform="scale(0.015625)"/>
       </defs>
       <use xlink:href="#DejaVuSans-2d"/>
       <use x="36.083984" xlink:href="#DejaVuSans-38"/>
       <use x="99.707031" xlink:href="#DejaVuSans-30"/>
      </g>
     </g>
    </g>
    <g id="ytick_3">
     <g id="line2d_12">
      <g>
       <use style="stroke:#000000;stroke-width:0.8;" x="54" xlink:href="#m2ed103ade4" y="179.52"/>
      </g>
     </g>
     <g id="text_13">
      <!-- -60 -->
      <g transform="translate(27.400625 184.079062)scale(0.12 -0.12)">
       <defs>
        <path d="M 2113 2584 
Q 1688 2584 1439 2293 
Q 1191 2003 1191 1497 
Q 1191 994 1439 701 
Q 1688 409 2113 409 
Q 2538 409 2786 701 
Q 3034 994 3034 1497 
Q 3034 2003 2786 2293 
Q 2538 2584 2113 2584 
z
M 3366 4563 
L 3366 3988 
Q 3128 4100 2886 4159 
Q 2644 4219 2406 4219 
Q 1781 4219 1451 3797 
Q 1122 3375 1075 2522 
Q 1259 2794 1537 2939 
Q 1816 3084 2150 3084 
Q 2853 3084 3261 2657 
Q 3669 2231 3669 1497 
Q 3669 778 3244 343 
Q 2819 -91 2113 -91 
Q 1303 -91 875 529 
Q 447 1150 447 2328 
Q 447 3434 972 4092 
Q 1497 4750 2381 4750 
Q 2619 4750 2861 4703 
Q 3103 4656 3366 4563 
z
" id="DejaVuSans-36" transform="scale(0.015625)"/>
       </defs>
       <use xlink:href="#DejaVuSans-2d"/>
       <use x="36.083984" xlink:href="#DejaVuSans-36"/>
       <use x="99.707031" xlink:href="#DejaVuSans-30"/>
      </g>
     </g>
    </g>
    <g id="ytick_4">
     <g id="line2d_13">
      <g>
       <use style="stroke:#000000;stroke-width:0.8;" x="54" xlink:href="#m2ed103ade4" y="150.528"/>
      </g>
     </g>
     <g id="text_14">
      <!-- -40 -->
      <g transform="translate(27.400625 155.087063)scale(0.12 -0.12)">
       <use xlink:href="#DejaVuSans-2d"/>
       <use x="36.083984" xlink:href="#DejaVuSans-34"/>
       <use x="99.707031" xlink:href="#DejaVuSans-30"/>
      </g>
     </g>
    </g>
    <g id="ytick_5">
     <g id="line2d_14">
      <g>
       <use style="stroke:#000000;stroke-width:0.8;" x="54" xlink:href="#m2ed103ade4" y="121.536"/>
      </g>
     </g>
     <g id="text_15">
      <!-- -20 -->
      <g transform="translate(27.400625 126.095062)scale(0.12 -0.12)">
       <use xlink:href="#DejaVuSans-2d"/>
       <use x="36.083984" xlink:href="#DejaVuSans-32"/>
       <use x="99.707031" xlink:href="#DejaVuSans-30"/>
      </g>
     </g>
    </g>
    <g id="ytick_6">
     <g id="line2d_15">
      <g>
       <use style="stroke:#000000;stroke-width:0.8;" x="54" xlink:href="#m2ed103ade4" y="92.544"/>
      </g>
     </g>
     <g id="text_16">
      <!-- 0 -->
      <g transform="translate(39.365 97.103062)scale(0.12 -0.12)">
       <use xlink:href="#DejaVuSans-30"/>
      </g>
     </g>
    </g>
    <g id="ytick_7">
     <g id="line2d_16">
      <g>
       <use style="stroke:#000000;stroke-width:0.8;" x="54" xlink:href="#m2ed103ade4" y="63.552"/>
      </g>
     </g>
     <g id="text_17">
      <!-- 20 -->
      <g transform="translate(31.73 68.111063)scale(0.12 -0.12)">
       <use xlink:href="#DejaVuSans-32"/>
       <use x="63.623047" xlink:href="#DejaVuSans-30"/>
      </g>
     </g>
    </g>
    <g id="ytick_8">
     <g id="line2d_17">
      <g>
       <use style="stroke:#000000;stroke-width:0.8;" x="54" xlink:href="#m2ed103ade4" y="34.56"/>
      </g>
     </g>
     <g id="text_18">
      <!-- 40 -->
      <g transform="translate(31.73 39.119062)scale(0.12 -0.12)">
       <use xlink:href="#DejaVuSans-34"/>
       <use x="63.623047" xlink:href="#DejaVuSans-30"/>
      </g>
     </g>
    </g>
    <g id="text_19">
     <!-- Membrane potential (mV) -->
     <g transform="translate(13.27 220.574062)rotate(-90)scale(0.12 -0.12)">
      <defs>
       <path d="M 628 4666 
L 1569 4666 
L 2759 1491 
L 3956 4666 
L 4897 4666 
L 4897 0 
L 4281 0 
L 4281 4097 
L 3078 897 
L 2444 897 
L 1241 4097 
L 1241 0 
L 628 0 
L 628 4666 
z
" id="DejaVuSans-4d" transform="scale(0.015625)"/>
       <path d="M 3116 1747 
Q 3116 2381 2855 2742 
Q 2594 3103 2138 3103 
Q 1681 3103 1420 2742 
Q 1159 2381 1159 1747 
Q 1159 1113 1420 752 
Q 1681 391 2138 391 
Q 2594 391 2855 752 
Q 3116 1113 3116 1747 
z
M 1159 2969 
Q 1341 3281 1617 3432 
Q 1894 3584 2278 3584 
Q 2916 3584 3314 3078 
Q 3713 2572 3713 1747 
Q 3713 922 3314 415 
Q 2916 -91 2278 -91 
Q 1894 -91 1617 61 
Q 1341 213 1159 525 
L 1159 0 
L 581 0 
L 581 4863 
L 1159 4863 
L 1159 2969 
z
" id="DejaVuSans-62" transform="scale(0.015625)"/>
       <path d="M 2631 2963 
Q 2534 3019 2420 3045 
Q 2306 3072 2169 3072 
Q 1681 3072 1420 2755 
Q 1159 2438 1159 1844 
L 1159 0 
L 581 0 
L 581 3500 
L 1159 3500 
L 1159 2956 
Q 1341 3275 1631 3429 
Q 1922 3584 2338 3584 
Q 2397 3584 2469 3576 
Q 2541 3569 2628 3553 
L 2631 2963 
z
" id="DejaVuSans-72" transform="scale(0.015625)"/>
       <path d="M 2194 1759 
Q 1497 1759 1228 1600 
Q 959 1441 959 1056 
Q 959 750 1161 570 
Q 1363 391 1709 391 
Q 2188 391 2477 730 
Q 2766 1069 2766 1631 
L 2766 1759 
L 2194 1759 
z
M 3341 1997 
L 3341 0 
L 2766 0 
L 2766 531 
Q 2569 213 2275 61 
Q 1981 -91 1556 -91 
Q 1019 -91 701 211 
Q 384 513 384 1019 
Q 384 1609 779 1909 
Q 1175 2209 1959 2209 
L 2766 2209 
L 2766 2266 
Q 2766 2663 2505 2880 
Q 2244 3097 1772 3097 
Q 1472 3097 1187 3025 
Q 903 2953 641 2809 
L 641 3341 
Q 956 3463 1253 3523 
Q 1550 3584 1831 3584 
Q 2591 3584 2966 3190 
Q 3341 2797 3341 1997 
z
" id="DejaVuSans-61" transform="scale(0.015625)"/>
       <path d="M 3513 2113 
L 3513 0 
L 2938 0 
L 2938 2094 
Q 2938 2591 2744 2837 
Q 2550 3084 2163 3084 
Q 1697 3084 1428 2787 
Q 1159 2491 1159 1978 
L 1159 0 
L 581 0 
L 581 3500 
L 1159 3500 
L 1159 2956 
Q 1366 3272 1645 3428 
Q 1925 3584 2291 3584 
Q 2894 3584 3203 3211 
Q 3513 2838 3513 2113 
z
" id="DejaVuSans-6e" transform="scale(0.015625)"/>
       <path id="DejaVuSans-20" transform="scale(0.015625)"/>
       <path d="M 1159 525 
L 1159 -1331 
L 581 -1331 
L 581 3500 
L 1159 3500 
L 1159 2969 
Q 1341 3281 1617 3432 
Q 1894 3584 2278 3584 
Q 2916 3584 3314 3078 
Q 3713 2572 3713 1747 
Q 3713 922 3314 415 
Q 2916 -91 2278 -91 
Q 1894 -91 1617 61 
Q 1341 213 1159 525 
z
M 3116 1747 
Q 3116 2381 2855 2742 
Q 2594 3103 2138 3103 
Q 1681 3103 1420 2742 
Q 1159 2381 1159 1747 
Q 1159 1113 1420 752 
Q 1681 391 2138 391 
Q 2594 391 2855 752 
Q 3116 1113 3116 1747 
z
" id="DejaVuSans-70" transform="scale(0.015625)"/>
       <path d="M 1959 3097 
Q 1497 3097 1228 2736 
Q 959 2375 959 1747 
Q 959 1119 1226 758 
Q 1494 397 1959 397 
Q 2419 397 2687 759 
Q 2956 1122 2956 1747 
Q 2956 2369 2687 2733 
Q 2419 3097 1959 3097 
z
M 1959 3584 
Q 2709 3584 3137 3096 
Q 3566 2609 3566 1747 
Q 3566 888 3137 398 
Q 2709 -91 1959 -91 
Q 1206 -91 779 398 
Q 353 888 353 1747 
Q 353 2609 779 3096 
Q 1206 3584 1959 3584 
z
" id="DejaVuSans-6f" transform="scale(0.015625)"/>
       <path d="M 1172 4494 
L 1172 3500 
L 2356 3500 
L 2356 3053 
L 1172 3053 
L 1172 1153 
Q 1172 725 1289 603 
Q 1406 481 1766 481 
L 2356 481 
L 2356 0 
L 1766 0 
Q 1100 0 847 248 
Q 594 497 594 1153 
L 594 3053 
L 172 3053 
L 172 3500 
L 594 3500 
L 594 4494 
L 1172 4494 
z
" id="DejaVuSans-74" transform="scale(0.015625)"/>
       <path d="M 603 4863 
L 1178 4863 
L 1178 0 
L 603 0 
L 603 4863 
z
" id="DejaVuSans-6c" transform="scale(0.015625)"/>
       <path d="M 1831 0 
L 50 4666 
L 709 4666 
L 2188 738 
L 3669 4666 
L 4325 4666 
L 2547 0 
L 1831 0 
z
" id="DejaVuSans-56" transform="scale(0.015625)"/>
      </defs>
      <use xlink:href="#DejaVuSans-4d"/>
      <use x="86.279297" xlink:href="#DejaVuSans-65"/>
      <use x="147.802734" xlink:href="#DejaVuSans-6d"/>
      <use x="245.214844" xlink:href="#DejaVuSans-62"/>
      <use x="308.691406" xlink:href="#DejaVuSans-72"/>
      <use x="349.804688" xlink:href="#DejaVuSans-61"/>
      <use x="411.083984" xlink:href="#DejaVuSans-6e"/>
      <use x="474.462891" xlink:href="#DejaVuSans-65"/>
      <use x="535.986328" xlink:href="#DejaVuSans-20"/>
      <use x="567.773438" xlink:href="#DejaVuSans-70"/>
      <use x="631.25" xlink:href="#DejaVuSans-6f"/>
      <use x="692.431641" xlink:href="#DejaVuSans-74"/>
      <use x="731.640625" xlink:href="#DejaVuSans-65"/>
      <use x="793.164062" xlink:href="#DejaVuSans-6e"/>
      <use x="856.542969" xlink:href="#DejaVuSans-74"/>
      <use x="895.751953" xlink:href="#DejaVuSans-69"/>
      <use x="923.535156" xlink:href="#DejaVuSans-61"/>
      <use x="984.814453" xlink:href="#DejaVuSans-6c"/>
      <use x="1012.597656" xlink:href="#DejaVuSans-20"/>
      <use x="1044.384766" xlink:href="#DejaVuSans-28"/>
      <use x="1083.398438" xlink:href="#DejaVuSans-6d"/>
      <use x="1180.810547" xlink:href="#DejaVuSans-56"/>
      <use x="1249.21875" xlink:href="#DejaVuSans-29"/>
     </g>
    </g>
   </g>
   <g id="line2d_18">
    <path clip-path="url(#p7e54bc88a0)" d="M 69.218182 226.402383 
L 69.526398 225.79906 
L 69.796087 225.710199 
L 69.911669 225.896618 
L 69.950196 225.793551 
L 70.682209 222.698655 
L 70.720736 222.713876 
L 70.836318 222.885219 
L 70.874845 222.806506 
L 71.221588 220.865781 
L 71.414223 220.150114 
L 71.491277 220.260138 
L 71.683913 221.238038 
L 72.261818 224.725341 
L 72.49298 224.281619 
L 72.531507 224.335109 
L 72.724143 225.019755 
L 73.032359 226.43413 
L 73.070886 226.34353 
L 73.263521 226.051145 
L 73.417629 226.277718 
L 73.533211 226.398904 
L 73.571738 226.369912 
L 73.8029 226.101012 
L 73.841427 226.1258 
L 74.18817 226.54169 
L 74.226697 226.440798 
L 74.45786 226.046362 
L 74.689022 225.875164 
L 74.881657 225.716288 
L 75.035765 225.735132 
L 75.421036 224.4921 
L 75.806306 221.461712 
L 75.88336 221.505924 
L 76.037468 222.034739 
L 76.422739 224.516744 
L 76.692428 225.770793 
L 76.92359 226.410791 
L 77.848239 229.563526 
L 78.117929 228.831333 
L 78.695834 226.423258 
L 78.734361 226.442972 
L 78.811415 226.433695 
L 78.926997 226.135512 
L 79.158159 225.394187 
L 79.235213 225.2011 
L 79.581956 223.530436 
L 79.697537 223.690182 
L 80.468078 225.605393 
L 80.622186 225.907055 
L 81.007457 227.402752 
L 81.546835 229.288102 
L 81.662417 228.952955 
L 82.548539 222.599503 
L 82.625593 222.560219 
L 82.66412 222.603852 
L 82.818228 223.110197 
L 83.357606 225.213711 
L 83.434661 225.189213 
L 83.627296 224.599226 
L 83.665823 224.616041 
L 83.819931 225.020045 
L 83.935512 225.313154 
L 83.974039 225.283872 
L 84.08962 225.336058 
L 84.282255 225.957356 
L 84.860161 228.309622 
L 84.898688 228.287733 
L 85.322486 227.050934 
L 86.208608 222.792879 
L 86.285662 222.870723 
L 86.478297 223.617557 
L 86.786513 224.877839 
L 87.09473 224.05983 
L 87.171784 224.050262 
L 87.325892 224.244509 
L 87.364419 224.173478 
L 87.518527 223.96807 
L 87.557054 223.988075 
L 87.634108 224.039825 
L 87.711162 223.735844 
L 87.980852 222.445555 
L 88.289068 221.520565 
L 88.558757 220.137212 
L 88.635811 220.221144 
L 88.828446 221.140625 
L 89.136663 222.475852 
L 89.367825 222.498611 
L 89.56046 223.146727 
L 89.676041 223.415628 
L 89.714568 223.391999 
L 89.984258 222.913921 
L 90.176893 222.020822 
L 90.21542 222.032274 
L 90.446582 222.242321 
L 90.60069 222.283345 
L 90.754799 222.689378 
L 91.217123 224.135789 
L 91.371231 224.367435 
L 91.409758 224.343951 
L 91.717975 223.974158 
L 91.987664 223.239936 
L 92.103245 223.219352 
L 92.257353 223.58958 
L 92.604097 225.124996 
L 92.681151 224.984095 
L 92.989367 223.697285 
L 93.182002 223.102659 
L 93.528746 223.109907 
L 94.106651 220.856069 
L 94.183705 220.727924 
L 94.222232 220.747494 
L 94.337814 221.046256 
L 94.376341 220.840558 
L 94.684557 218.570919 
L 94.761611 218.514095 
L 94.800138 218.555409 
L 94.915719 218.905922 
L 94.954246 218.83982 
L 95.108354 218.462924 
L 95.146881 218.49699 
L 95.339517 218.697759 
L 95.493625 218.787635 
L 95.763314 219.337468 
L 95.801841 219.297459 
L 96.379747 216.438558 
L 96.418274 216.44769 
L 96.533855 216.64643 
L 96.72649 217.691447 
L 97.458504 223.104253 
L 97.497031 223.007855 
L 97.651139 222.297696 
L 97.920829 220.837659 
L 97.997883 220.796345 
L 98.03641 220.834325 
L 98.151991 221.137581 
L 98.229045 220.991751 
L 98.383153 220.616885 
L 98.729896 217.888158 
L 99.230748 214.470436 
L 99.307802 214.561326 
L 99.46191 215.420069 
L 100.232451 220.8336 
L 100.309505 220.880277 
L 100.348032 220.842298 
L 100.50214 220.826787 
L 100.656249 221.256883 
L 100.810357 221.532597 
L 100.925938 221.735541 
L 101.1571 222.094607 
L 101.195627 222.066775 
L 101.503843 220.294639 
L 101.773533 217.927297 
L 101.927641 217.785816 
L 102.043222 218.056891 
L 102.389965 219.0935 
L 102.544074 219.58332 
L 102.890817 221.810775 
L 103.121979 222.84405 
L 103.468723 224.052292 
L 103.545777 223.976913 
L 103.699885 223.917624 
L 103.853993 224.208414 
L 104.200736 225.58249 
L 104.354845 226.199004 
L 104.393372 226.1445 
L 104.586007 225.182835 
L 104.817169 223.049314 
L 105.048331 222.070544 
L 105.163913 221.690893 
L 105.741818 219.767564 
L 105.857399 219.807718 
L 106.011507 220.220999 
L 106.319724 221.972696 
L 106.550886 222.877971 
L 106.704994 222.500495 
L 106.743521 222.516296 
L 107.013211 222.777369 
L 107.475535 223.911391 
L 107.66817 223.758748 
L 108.130495 221.263841 
L 108.169022 221.273264 
L 108.785455 222.151141 
L 109.093671 223.538988 
L 109.170725 223.394608 
L 109.517468 222.53572 
L 109.902739 221.900651 
L 110.40359 219.236866 
L 110.480644 219.133799 
L 110.519171 219.167575 
L 110.67328 219.70987 
L 111.366766 222.87942 
L 111.559402 222.978573 
L 111.752037 223.500429 
L 112.522578 226.151458 
L 112.75374 226.73956 
L 113.13901 227.951426 
L 113.177537 227.891992 
L 113.331646 226.845381 
L 113.909551 222.23029 
L 114.025132 222.254643 
L 114.217768 222.705613 
L 114.294822 222.584862 
L 114.44893 222.414679 
L 114.564511 222.600372 
L 114.795673 223.56856 
L 114.988308 224.477025 
L 115.026835 224.333804 
L 115.219471 223.64365 
L 115.296525 223.633212 
L 115.566214 222.291463 
L 115.643268 222.368292 
L 115.990012 223.366341 
L 116.067066 223.326042 
L 116.182647 223.373589 
L 116.259701 223.449113 
L 116.760552 220.681827 
L 116.837606 220.776776 
L 117.030242 221.602178 
L 117.261404 222.883189 
L 117.299931 222.850139 
L 117.415512 221.90094 
L 117.646674 220.705745 
L 117.762255 220.930143 
L 117.993418 221.647116 
L 118.031945 221.627401 
L 118.147526 221.663786 
L 118.60985 222.623276 
L 119.033648 224.217111 
L 119.072175 224.232912 
L 119.187756 223.614223 
L 119.650081 219.948474 
L 119.842716 219.315724 
L 119.958297 219.569549 
L 120.227986 221.153817 
L 120.382094 222.029955 
L 120.420621 222.010385 
L 120.57473 221.877167 
L 120.690311 222.143024 
L 121.268216 224.00605 
L 121.422325 224.122018 
L 121.499379 224.227838 
L 121.537906 224.192903 
L 121.807595 223.60683 
L 121.846122 223.636547 
L 121.961703 223.713085 
L 122.00023 223.657566 
L 122.231392 222.57254 
L 122.539609 220.565714 
L 122.616663 220.503961 
L 122.65519 220.559191 
L 122.886352 220.908689 
L 123.078987 220.747204 
L 123.194568 220.423943 
L 123.233096 220.443223 
L 124.042163 221.763518 
L 124.119217 221.824547 
L 124.157745 221.782508 
L 124.273326 221.508534 
L 124.543015 219.872515 
L 124.620069 219.968334 
L 125.236502 221.641172 
L 125.275029 221.5958 
L 125.352083 221.520855 
L 125.39061 221.557095 
L 125.544718 222.024012 
L 125.621772 221.896302 
L 125.77588 221.68611 
L 125.891461 221.954141 
L 125.968516 222.092433 
L 126.007043 222.031115 
L 126.084097 222.000528 
L 126.122624 222.052134 
L 126.315259 222.795779 
L 126.392313 222.974804 
L 126.43084 222.920879 
L 126.584948 222.763452 
L 126.623475 222.795779 
L 126.739056 222.987271 
L 126.777583 222.884639 
L 127.394016 219.673775 
L 127.47107 219.610862 
L 127.509597 219.659569 
L 127.663705 220.224333 
L 128.164557 222.581528 
L 128.203084 222.53717 
L 128.395719 222.049814 
L 128.434246 222.070544 
L 128.626881 222.240872 
L 128.703936 221.978059 
L 129.16626 219.645653 
L 129.320368 219.698273 
L 129.590058 220.426697 
L 130.013855 221.216004 
L 130.360598 221.246446 
L 130.399125 221.325884 
L 130.437652 221.266596 
L 130.668815 220.576876 
L 130.707342 220.599055 
L 130.86145 221.03205 
L 131.323774 223.083814 
L 131.51641 224.125497 
L 131.554937 224.010833 
L 131.863153 222.927837 
L 131.978734 223.054967 
L 132.171369 223.509417 
L 132.209896 223.462884 
L 132.402532 223.276756 
L 132.595167 223.53174 
L 132.633694 223.451143 
L 132.864856 223.132811 
L 132.980437 223.268348 
L 133.018964 223.146872 
L 133.250127 222.476722 
L 133.365708 222.571815 
L 133.519816 222.177524 
L 133.558343 222.194774 
L 133.750978 222.271168 
L 133.943613 222.945667 
L 134.328884 224.357433 
L 134.675627 225.645692 
L 134.868262 226.343675 
L 134.906789 226.235389 
L 135.176479 225.451301 
L 135.330587 225.428542 
L 135.407641 225.304021 
L 135.754384 223.67902 
L 135.792911 223.698589 
L 135.94702 224.064758 
L 136.178182 224.542692 
L 136.486398 223.990104 
L 136.563452 224.089981 
L 136.98725 225.00062 
L 137.025777 224.83667 
L 137.488101 222.135486 
L 137.603682 222.187671 
L 137.642209 222.08417 
L 137.757791 221.967477 
L 137.873372 222.236668 
L 138.104534 222.836657 
L 138.220115 222.789835 
L 138.297169 222.388586 
L 138.605386 220.59746 
L 138.913602 219.990078 
L 139.029183 219.578826 
L 139.337399 217.858586 
L 139.530035 217.684489 
L 139.684143 217.818867 
L 139.876778 218.58643 
L 139.915305 218.746756 
L 139.953832 218.6779 
L 140.10794 218.325357 
L 140.262048 218.612233 
L 140.339102 218.484668 
L 140.724373 215.368173 
L 140.917008 214.614381 
L 140.994062 214.733538 
L 141.071116 214.847477 
L 141.109643 214.739627 
L 141.610495 212.558558 
L 141.649022 212.610599 
L 141.841657 213.31496 
L 142.535144 217.223516 
L 142.573671 217.181913 
L 142.689252 216.908373 
L 143.074522 215.205383 
L 143.344212 215.048681 
L 143.613901 214.288656 
L 143.88359 214.639604 
L 144.076226 215.822333 
L 144.384442 217.695941 
L 144.53855 216.150667 
L 144.769712 214.983304 
L 144.92382 215.231331 
L 145.000875 215.117827 
L 145.309091 214.81892 
L 145.386145 214.913724 
L 145.540253 215.597935 
L 146.23374 220.03516 
L 146.310794 219.941371 
L 146.387848 219.909625 
L 146.426375 219.954708 
L 146.541956 220.117788 
L 146.580483 220.068936 
L 146.773119 219.937167 
L 146.965754 219.784669 
L 147.196916 218.992608 
L 147.312497 219.175258 
L 147.389551 219.432707 
L 147.428078 219.391248 
L 147.543659 218.6592 
L 147.851876 216.168932 
L 147.967457 215.976425 
L 148.005984 216.007447 
L 148.160092 216.551482 
L 148.58389 218.517284 
L 148.776525 218.65891 
L 149.161795 219.784814 
L 149.855282 222.526878 
L 149.932336 222.351041 
L 150.202025 221.643492 
L 150.317606 221.810196 
L 150.779931 222.785486 
L 150.972566 223.236602 
L 151.203728 223.917334 
L 151.242255 223.80644 
L 151.743107 218.343767 
L 151.974269 216.688324 
L 152.051323 216.684555 
L 152.282486 217.361373 
L 152.475121 218.046309 
L 152.552175 217.954694 
L 152.860391 217.065655 
L 153.091554 216.348972 
L 153.207135 216.324619 
L 153.592405 216.99042 
L 153.823567 217.75262 
L 153.862094 217.706088 
L 154.093257 217.368041 
L 154.131784 217.40805 
L 154.401473 218.000647 
L 154.517054 218.493656 
L 154.555581 218.445529 
L 154.709689 217.948171 
L 154.748216 217.959768 
L 154.940852 218.499744 
L 154.979379 218.319269 
L 155.287595 216.622657 
L 155.403176 215.892348 
L 155.711392 214.067882 
L 155.826974 213.834786 
L 155.865501 213.848557 
L 155.981082 214.139202 
L 156.212244 215.572712 
L 157.791853 227.568876 
L 157.945961 227.858072 
L 158.061542 227.625701 
L 158.369758 226.83161 
L 158.562394 226.712163 
L 158.909137 225.027583 
L 159.101772 223.658436 
L 159.332934 222.762873 
L 159.448516 222.877391 
L 159.795259 223.445489 
L 160.026421 224.051712 
L 160.29611 224.99975 
L 160.373165 224.951044 
L 160.488746 225.008883 
L 160.835489 225.40013 
L 160.874016 225.429267 
L 160.912543 225.323301 
L 161.105178 224.834641 
L 161.220759 224.867982 
L 161.413395 224.270312 
L 161.451922 224.287852 
L 161.60603 224.646773 
L 161.9913 225.927204 
L 162.029827 225.838634 
L 162.684787 223.856451 
L 162.838895 223.834127 
L 162.954476 223.861959 
L 163.147112 224.217981 
L 163.224166 224.065628 
L 163.339747 223.996772 
L 163.493855 224.351489 
L 163.95618 225.668886 
L 164.110288 225.876613 
L 164.148815 225.822108 
L 164.302923 225.731798 
L 164.457031 225.975186 
L 164.649666 226.465151 
L 164.688193 226.349038 
L 165.111991 223.927046 
L 165.227572 223.941977 
L 165.343153 224.126801 
L 165.38168 223.986045 
L 165.574315 223.674671 
L 165.728423 223.58842 
L 165.766951 223.62524 
L 165.921059 224.018516 
L 166.229275 224.733894 
L 166.42191 225.332724 
L 166.498964 225.214871 
L 166.922762 223.559863 
L 167.230978 222.534851 
L 167.308032 222.602982 
L 167.847411 224.087372 
L 168.232681 226.140876 
L 168.309735 225.985768 
L 168.502371 224.628218 
L 168.849114 222.570221 
L 168.964695 222.538475 
L 169.465547 223.433892 
L 169.773763 224.881318 
L 169.889344 224.790573 
L 170.004925 224.922487 
L 170.390196 225.61699 
L 170.621358 226.187263 
L 170.891047 226.95816 
L 170.929574 226.86727 
L 171.391899 224.878419 
L 171.623061 222.202167 
L 171.931277 219.256725 
L 172.16244 217.970205 
L 172.355075 216.980998 
L 172.470656 217.168286 
L 172.663291 217.894536 
L 173.010035 220.524255 
L 173.318251 222.448309 
L 173.395305 222.258122 
L 173.626467 221.59319 
L 173.742048 221.762504 
L 174.281427 223.733235 
L 174.820806 225.957646 
L 174.859333 225.875889 
L 175.206076 224.650687 
L 175.321657 224.807533 
L 175.437238 224.987429 
L 176.361887 220.878972 
L 176.438941 220.878828 
L 176.593049 221.360385 
L 177.016847 223.619296 
L 177.093901 223.482454 
L 177.556226 221.713362 
L 177.671807 221.833969 
L 177.864442 222.5895 
L 178.057077 223.356194 
L 178.134131 222.817523 
L 178.365293 219.097849 
L 178.596456 216.112543 
L 178.789091 215.74043 
L 178.904672 215.974686 
L 179.135834 217.362968 
L 179.559632 220.722416 
L 179.598159 220.690669 
L 180.060483 217.918889 
L 180.253119 217.164372 
L 180.407227 216.821542 
L 180.445754 216.835313 
L 180.638389 217.228445 
L 180.715443 217.146542 
L 180.831024 216.659622 
L 181.331876 214.543496 
L 181.40893 214.506676 
L 181.447457 214.558572 
L 181.601565 214.873425 
L 181.640092 214.785289 
L 181.7942 214.214726 
L 181.832727 214.225598 
L 182.025362 214.519142 
L 182.217998 213.835946 
L 182.256525 213.900308 
L 182.295052 213.908571 
L 182.410633 213.209574 
L 182.795903 209.956092 
L 182.83443 209.993491 
L 182.988539 210.677123 
L 183.296755 213.526456 
L 183.759079 217.662455 
L 184.221404 217.670718 
L 184.876364 219.636955 
L 184.914891 219.574477 
L 185.18458 218.094146 
L 185.685432 217.433273 
L 185.723959 217.46241 
L 185.878067 217.912076 
L 186.186283 219.893824 
L 186.340391 220.288695 
L 186.417445 220.187078 
L 186.764189 218.297235 
L 186.841243 218.415232 
L 187.033878 219.328335 
L 187.688838 223.811078 
L 187.765892 223.558268 
L 188.074108 222.739099 
L 188.112635 222.782297 
L 188.228216 223.014813 
L 188.266743 222.964512 
L 188.382325 222.84608 
L 188.420852 222.879276 
L 188.57496 223.31633 
L 188.729068 223.737149 
L 188.767595 223.686558 
L 189.075811 222.967121 
L 189.114338 222.997853 
L 189.268446 223.359673 
L 189.499609 223.775273 
L 189.576663 223.672207 
L 189.730771 223.471147 
L 189.884879 223.742802 
L 189.923406 223.56972 
L 190.385731 220.609202 
L 190.578366 220.369728 
L 190.809528 220.100102 
L 190.963636 219.893534 
L 191.194799 220.054585 
L 191.387434 219.915568 
L 191.503015 219.925426 
L 191.657123 220.360306 
L 191.811231 221.033935 
L 191.849758 220.877088 
L 192.080921 220.25463 
L 192.235029 220.257384 
L 192.466191 219.402845 
L 192.543245 219.413137 
L 192.658826 219.234401 
L 192.697353 219.262234 
L 192.851461 219.803949 
L 193.00557 220.043713 
L 193.121151 220.36103 
L 193.39084 221.134537 
L 193.544948 221.755546 
L 193.814638 222.673867 
L 194.354016 223.948066 
L 194.893395 226.36049 
L 194.931922 226.280327 
L 195.278665 224.426289 
L 195.394246 224.534864 
L 195.586881 224.649237 
L 195.702463 224.67475 
L 195.779517 224.307711 
L 195.972152 221.619283 
L 196.241841 218.457416 
L 196.357422 217.669123 
L 196.896801 213.343372 
L 196.973855 213.471227 
L 197.205017 214.794711 
L 197.628815 216.782838 
L 197.937031 217.135525 
L 197.975558 217.247869 
L 198.052612 217.170316 
L 198.20672 217.036518 
L 198.245247 217.089863 
L 198.823153 218.727766 
L 199.015788 219.300503 
L 199.131369 219.651741 
L 199.670748 221.798599 
L 200.1716 223.68018 
L 200.248654 223.622196 
L 200.595397 222.211445 
L 200.672451 222.290593 
L 200.865086 222.947117 
L 201.019194 223.717579 
L 201.057722 223.644954 
L 202.560276 215.59634 
L 202.63733 215.618664 
L 202.675857 215.713033 
L 202.714384 215.653164 
L 202.868493 215.046507 
L 202.90702 215.061003 
L 203.022601 215.459643 
L 204.139885 222.641251 
L 204.448101 224.268137 
L 204.563682 224.556318 
L 204.602209 224.503842 
L 204.756318 224.346851 
L 204.910426 224.678664 
L 205.295696 225.618875 
L 205.449804 225.85255 
L 205.719494 226.538501 
L 205.758021 226.447321 
L 205.912129 226.27105 
L 206.066237 226.443697 
L 206.104764 226.384698 
L 206.567089 225.588723 
L 206.721197 225.85255 
L 206.913832 226.074049 
L 207.06794 226.081152 
L 207.414684 224.790573 
L 207.530265 224.825798 
L 207.7229 224.562696 
L 207.877008 224.883348 
L 207.992589 225.222989 
L 208.031116 225.188198 
L 208.37786 224.36816 
L 208.493441 224.349315 
L 208.647549 224.657065 
L 208.801657 225.123111 
L 208.840184 225.068461 
L 208.917238 224.826813 
L 209.263982 222.73649 
L 209.379563 222.8268 
L 209.572198 223.521593 
L 209.957468 225.318807 
L 209.995995 225.177036 
L 210.227158 223.138174 
L 210.496847 220.853894 
L 210.728009 220.229842 
L 210.84359 220.434815 
L 211.344442 222.542099 
L 211.729712 223.978217 
L 212.076456 225.475219 
L 212.384672 226.732167 
L 212.615834 225.753252 
L 212.924051 224.015182 
L 213.155213 223.527102 
L 213.694591 216.904024 
L 214.079862 217.123639 
L 214.195443 217.429214 
L 214.272497 217.380363 
L 214.388078 217.71522 
L 214.619241 218.501484 
L 214.773349 218.508732 
L 215.081565 218.051963 
L 215.235673 218.002386 
L 215.428308 217.458931 
L 215.505362 217.326583 
L 215.620944 216.838647 
L 215.890633 215.639683 
L 216.083268 215.479212 
L 216.275903 215.022009 
L 216.391484 215.276413 
L 217.200552 219.273975 
L 217.508769 221.072639 
L 217.547296 221.139176 
L 217.585823 221.001899 
L 218.048147 217.525323 
L 218.125201 217.531846 
L 218.27931 218.02616 
L 218.356364 218.156189 
L 218.703107 216.780663 
L 218.780161 216.777619 
L 218.934269 217.390945 
L 219.435121 220.680522 
L 219.512175 220.367409 
L 219.627756 219.92876 
L 220.244189 212.8795 
L 220.475351 212.24443 
L 220.706513 212.601901 
L 220.899148 213.714759 
L 221.130311 214.685846 
L 221.322946 215.565174 
L 221.631162 217.044056 
L 221.823797 216.997379 
L 221.939379 217.135236 
L 221.977906 217.094792 
L 222.093487 216.728478 
L 222.286122 216.294757 
L 222.401703 216.57714 
L 222.632865 217.973539 
L 223.09519 220.768948 
L 223.287825 220.879262 
L 223.326352 220.895933 
L 223.711623 218.454227 
L 223.981312 217.959188 
L 224.096893 217.778858 
L 224.251001 216.376805 
L 224.674799 213.230738 
L 224.713326 213.283068 
L 225.021542 214.432021 
L 225.098596 214.602494 
L 225.137123 214.468986 
L 225.291231 214.049472 
L 225.329758 214.074985 
L 225.445339 214.449996 
L 225.715029 216.453054 
L 225.984718 217.980497 
L 226.21588 218.508152 
L 226.254407 218.482204 
L 226.331461 218.322458 
L 226.909367 215.219879 
L 227.102002 215.073904 
L 227.217583 215.303956 
L 227.448746 216.641357 
L 227.718435 217.765522 
L 227.872543 218.170975 
L 227.91107 218.109512 
L 228.257814 214.000186 
L 228.527503 211.61226 
L 228.643084 211.37467 
L 228.681611 211.41149 
L 228.835719 212.058012 
L 229.336571 214.764125 
L 229.567733 215.412386 
L 229.760368 214.775867 
L 230.107112 212.946326 
L 230.376801 213.292636 
L 230.415328 213.262629 
L 230.64649 212.67844 
L 230.723544 212.793394 
L 230.91618 213.800141 
L 232.149045 222.28175 
L 232.264626 222.234783 
L 232.418734 222.19347 
L 232.457261 222.250294 
L 232.495788 222.15578 
L 232.726951 221.046981 
L 232.842532 221.000884 
L 233.073694 220.758511 
L 233.458964 221.151497 
L 233.844235 220.034146 
L 234.03687 219.731904 
L 234.961519 216.805741 
L 235.000046 216.819658 
L 235.154154 216.991 
L 235.192681 216.937655 
L 235.385316 215.638379 
L 235.770587 213.579512 
L 236.348493 212.052648 
L 236.695236 209.686901 
L 236.733763 209.727924 
L 236.887871 210.367053 
L 237.196087 213.002281 
L 237.542831 215.630696 
L 237.928101 217.053333 
L 237.966628 217.039707 
L 238.159264 215.748403 
L 238.660115 210.520421 
L 238.891277 210.135987 
L 238.929804 210.168458 
L 239.006858 210.327479 
L 239.045386 210.288485 
L 239.199494 210.095543 
L 239.392129 210.528394 
L 239.469183 210.385173 
L 239.584764 209.99842 
L 239.854453 208.25832 
L 239.931507 208.257305 
L 240.278251 208.901797 
L 240.432359 208.873095 
L 240.586467 208.871501 
L 240.779102 209.404954 
L 240.971738 209.863317 
L 241.010265 209.822293 
L 241.2029 209.188383 
L 242.281657 202.229434 
L 242.474292 202.631118 
L 242.666928 203.127606 
L 242.705455 203.09238 
L 242.936617 202.909296 
L 243.167779 202.027649 
L 243.206306 202.038811 
L 243.514522 202.628074 
L 243.861266 203.968229 
L 244.053901 203.54886 
L 244.400644 202.143327 
L 244.439171 202.16913 
L 244.670334 202.779557 
L 244.862969 203.707736 
L 245.171185 205.150957 
L 245.36382 205.724999 
L 245.440875 205.635124 
L 245.556456 205.066736 
L 245.749091 202.93104 
L 246.057307 199.468236 
L 246.28847 198.51121 
L 246.558159 197.951664 
L 246.67374 198.117498 
L 246.981956 198.808523 
L 247.136064 199.160051 
L 247.290173 199.66828 
L 247.3287 199.633635 
L 247.675443 197.678414 
L 247.791024 197.89194 
L 248.022186 199.330379 
L 248.214822 200.151722 
L 248.523038 200.180569 
L 248.638619 199.968927 
L 248.677146 199.986902 
L 248.792727 200.348723 
L 249.100944 201.494486 
L 249.601795 199.155412 
L 249.832957 197.545486 
L 249.910012 197.539253 
L 250.06412 198.072706 
L 250.333809 199.663352 
L 250.487917 200.708078 
L 250.526444 200.663866 
L 250.719079 199.660452 
L 251.10435 195.924398 
L 252.452796 181.420571 
L 252.838067 177.772072 
L 253.261864 174.649344 
L 253.685662 172.024263 
L 253.83977 167.224638 
L 253.955351 157.112228 
L 253.993878 141.851854 
L 254.032405 46.993219 
L 254.070932 118.721747 
L 254.22504 197.085238 
L 254.263567 197.882373 
L 254.302094 197.491271 
L 254.571784 194.798349 
L 254.88 193.240029 
L 254.995581 192.852696 
L 255.226743 191.922633 
L 255.342325 191.876245 
L 255.457906 192.233572 
L 255.650541 192.96504 
L 255.689068 192.906911 
L 255.958757 192.29489 
L 256.112865 192.198347 
L 256.344028 191.060121 
L 256.382555 191.0794 
L 256.652244 191.816667 
L 256.767825 191.67765 
L 257.114568 191.381932 
L 257.23015 191.565596 
L 257.422785 192.674685 
L 258.385961 200.074458 
L 258.501542 199.228762 
L 258.694177 198.449602 
L 258.848285 198.19998 
L 258.886812 198.250572 
L 259.040921 198.974357 
L 259.464718 201.648289 
L 259.503245 201.513041 
L 259.580299 201.345178 
L 259.618826 201.362863 
L 259.772934 201.89907 
L 259.849988 201.721204 
L 259.96557 201.490572 
L 260.004097 201.524493 
L 260.196732 202.203921 
L 260.504948 204.297723 
L 261.314016 212.371995 
L 261.776341 216.200388 
L 261.891922 216.117761 
L 262.315719 215.168128 
L 262.392773 215.264962 
L 262.585409 215.492839 
L 262.739517 216.10457 
L 263.047733 217.347167 
L 263.201841 217.922513 
L 264.049436 222.473677 
L 264.12649 222.104174 
L 264.627342 218.973618 
L 264.935558 218.794738 
L 265.128193 218.335504 
L 265.16672 218.355219 
L 265.243774 218.315645 
L 265.359356 218.258096 
L 265.474937 218.585415 
L 265.783153 219.924701 
L 265.860207 219.846712 
L 266.014315 219.72799 
L 266.168423 220.027767 
L 266.438113 220.701252 
L 266.592221 221.126274 
L 266.630748 221.081337 
L 266.784856 221.005668 
L 266.938964 221.363574 
L 267.170127 222.127368 
L 267.208654 222.063876 
L 267.362762 221.860062 
L 267.401289 221.891953 
L 267.555397 222.317845 
L 267.90214 223.33387 
L 268.325938 224.502828 
L 268.364465 224.464268 
L 268.5571 224.324382 
L 268.711208 224.557188 
L 269.019425 225.630616 
L 269.327641 226.760724 
L 269.366168 226.642292 
L 269.789965 223.98793 
L 270.098182 222.177669 
L 270.290817 221.818313 
L 270.367871 221.902825 
L 270.984304 223.278785 
L 271.022831 223.256461 
L 271.099885 223.131216 
L 271.215466 222.013864 
L 271.446628 220.242743 
L 271.523682 220.241293 
L 271.677791 220.751698 
L 271.754845 220.993346 
L 271.793372 220.974211 
L 271.986007 220.738941 
L 272.33275 219.253391 
L 272.371277 219.307896 
L 272.563913 219.661308 
L 272.60244 219.608253 
L 272.718021 219.173518 
L 272.910656 218.348116 
L 273.218872 218.747046 
L 273.450035 220.104741 
L 273.64267 221.131058 
L 273.796778 220.101552 
L 274.143521 217.189306 
L 274.220575 217.246275 
L 274.374684 217.888593 
L 274.6829 219.606079 
L 274.721427 219.572013 
L 275.414914 216.886049 
L 275.491968 216.959544 
L 275.72313 217.873227 
L 275.800184 217.646364 
L 276.069873 216.681366 
L 276.1084 216.725868 
L 276.262509 217.349776 
L 277.456847 224.254076 
L 277.495374 224.354968 
L 277.533901 224.264658 
L 277.726536 223.80412 
L 277.765063 223.817312 
L 277.842117 223.836012 
L 278.034753 222.647195 
L 278.45855 220.269706 
L 278.497077 220.300292 
L 278.651185 220.813016 
L 278.805293 221.16034 
L 279.036456 220.751843 
L 279.11351 220.850125 
L 279.344672 221.529408 
L 279.421726 221.401843 
L 279.614361 220.152723 
L 279.806997 219.046678 
L 279.884051 219.073496 
L 280.307848 220.271155 
L 280.384902 220.064877 
L 281.039862 216.577429 
L 281.232497 215.639828 
L 281.348078 215.571697 
L 281.386605 215.611126 
L 281.733349 216.090509 
L 281.84893 216.371296 
L 282.195673 217.622156 
L 282.2342 217.561418 
L 282.388308 217.093922 
L 282.619471 216.389416 
L 282.735052 216.643966 
L 282.966214 217.440086 
L 283.004741 217.415588 
L 283.120322 217.457337 
L 283.27443 218.034277 
L 283.852336 220.350883 
L 284.160552 220.613116 
L 284.391715 221.572606 
L 284.854039 223.49579 
L 285.008147 223.807454 
L 285.046674 223.771649 
L 285.23931 222.944508 
L 285.354891 222.270299 
L 285.663107 220.295798 
L 285.740161 220.00066 
L 286.27954 216.554671 
L 286.356594 216.635848 
L 286.510702 217.368476 
L 286.973026 219.834246 
L 287.242716 221.197015 
L 287.550932 222.588196 
L 287.782094 223.517244 
L 287.820621 223.401276 
L 288.167365 221.847015 
L 288.244419 221.899346 
L 288.437054 222.652558 
L 288.976433 225.006129 
L 289.092014 225.335188 
L 289.130541 225.290105 
L 289.284649 224.809708 
L 289.746974 221.471569 
L 289.824028 221.410686 
L 289.862555 221.458378 
L 290.247825 222.603417 
L 290.556041 223.885588 
L 290.594568 223.845869 
L 290.787204 223.264144 
L 291.249528 220.505411 
L 291.365109 220.430901 
L 291.403636 220.464387 
L 291.442163 220.406693 
L 291.673326 219.824823 
L 291.788907 219.884402 
L 292.058596 219.592018 
L 292.174177 219.679863 
L 292.366812 220.387703 
L 292.944718 223.011914 
L 293.214407 222.875941 
L 293.676732 219.971523 
L 293.753786 220.046612 
L 294.100529 220.666316 
L 294.293165 221.341685 
L 295.256341 225.625398 
L 295.448976 225.620614 
L 295.680138 225.415496 
L 296.065409 225.287641 
L 296.56626 225.292425 
L 296.681841 225.515228 
L 296.720368 225.444488 
L 297.105639 223.635097 
L 297.298274 222.885364 
L 297.413855 222.785196 
L 297.799125 221.925729 
L 297.87618 221.780334 
L 298.26145 220.593691 
L 298.377031 220.743145 
L 298.569666 221.572316 
L 299.417261 226.933082 
L 299.494315 226.434275 
L 299.686951 225.603944 
L 299.802532 225.695558 
L 300.072221 226.548938 
L 300.34191 227.568442 
L 300.380437 227.51901 
L 300.804235 225.682367 
L 300.919816 225.796016 
L 301.228032 226.558795 
L 301.343613 226.414995 
L 301.459194 226.490374 
L 301.690357 227.054993 
L 301.767411 226.875388 
L 302.383843 224.229723 
L 302.499425 224.222185 
L 302.615006 224.363956 
L 302.653533 224.286837 
L 303.038803 222.654153 
L 303.115857 222.723299 
L 303.578182 224.021415 
L 303.616709 223.843404 
L 303.886398 222.365827 
L 303.963452 222.391775 
L 304.11756 222.848544 
L 304.464304 224.467602 
L 304.541358 224.392368 
L 304.695466 224.316699 
L 304.888101 224.538923 
L 304.926628 224.446583 
L 305.311899 223.26023 
L 305.388953 223.300529 
L 305.504534 223.526812 
L 305.581588 223.469263 
L 305.658642 223.510576 
L 305.81275 223.978507 
L 306.506237 227.414639 
L 306.621818 227.239817 
L 306.737399 227.232134 
L 306.814453 227.293742 
L 306.85298 227.258082 
L 307.084143 226.710423 
L 307.276778 226.229736 
L 307.392359 226.355706 
L 307.50794 226.520671 
L 307.546467 226.481097 
L 307.700575 226.417894 
L 307.854684 226.657078 
L 307.893211 226.580394 
L 308.085846 226.1445 
L 308.201427 226.290474 
L 308.317008 226.516612 
L 308.355535 226.473994 
L 308.509643 226.368028 
L 308.663751 226.600544 
L 308.933441 227.2475 
L 308.971968 227.216334 
L 309.20313 225.348379 
L 309.703982 221.297327 
L 309.781036 221.344874 
L 309.85809 221.506649 
L 309.896617 221.4333 
L 310.050725 221.319796 
L 310.166306 221.440548 
L 310.397468 221.966317 
L 310.435995 221.911957 
L 310.628631 220.500772 
L 310.89832 219.072336 
L 311.052428 218.844314 
L 311.322117 219.360951 
L 311.476226 219.919627 
L 311.55328 219.793222 
L 311.707388 218.881714 
L 312.015604 216.441167 
L 312.092658 216.379414 
L 312.131185 216.431455 
L 312.400875 217.149442 
L 312.439402 217.126248 
L 312.516456 216.470159 
L 312.786145 213.408894 
L 312.901726 213.364826 
L 313.171415 213.682723 
L 313.402578 214.54654 
L 314.173119 217.547792 
L 314.327227 217.834957 
L 315.059241 220.640368 
L 315.752727 223.668003 
L 315.945362 224.117234 
L 315.98389 224.092736 
L 316.137998 224.09694 
L 316.215052 224.20508 
L 316.253579 224.173913 
L 316.330633 223.938208 
L 316.75443 221.374301 
L 316.831484 221.408801 
L 317.255282 222.42729 
L 317.563498 223.442735 
L 317.602025 223.419831 
L 317.794661 223.367646 
L 317.871715 223.430848 
L 318.44962 220.800404 
L 318.642255 220.064152 
L 318.680783 220.0369 
L 319.143107 217.708262 
L 319.374269 216.702965 
L 319.643959 215.720136 
L 319.721013 215.736516 
L 319.990702 215.443842 
L 320.067756 215.544879 
L 320.298918 216.604537 
L 320.414499 216.869089 
L 320.453026 216.841257 
L 320.568608 216.779069 
L 320.607135 216.831399 
L 320.761243 217.440811 
L 321.300621 220.022549 
L 321.45473 220.522516 
L 321.647365 221.235429 
L 321.685892 221.150193 
L 321.801473 220.976241 
L 321.84 221.008567 
L 321.994108 221.514767 
L 322.340852 222.69967 
L 322.456433 222.903919 
L 322.49496 222.791865 
L 322.572014 222.676187 
L 322.610541 222.696046 
L 322.764649 223.149771 
L 323.149919 224.408604 
L 323.304028 224.681708 
L 323.381082 224.458905 
L 323.612244 222.406126 
L 323.843406 221.291094 
L 324.036041 221.17672 
L 324.344258 220.122861 
L 324.729528 218.998841 
L 324.806582 218.961297 
L 324.845109 219.003915 
L 325.191853 219.487212 
L 325.307434 219.586654 
L 325.500069 220.392052 
L 326.27061 224.464123 
L 326.347664 224.230013 
L 326.617353 222.802882 
L 326.809988 222.423231 
L 326.848516 222.437872 
L 326.92557 222.343358 
L 327.195259 221.201798 
L 327.387894 218.862289 
L 327.69611 215.493419 
L 327.773165 215.446162 
L 327.811692 215.511539 
L 327.850219 215.591701 
L 327.888746 215.517047 
L 327.9658 215.245392 
L 328.081381 214.857479 
L 328.119908 214.896908 
L 328.659287 216.70253 
L 329.160138 219.464163 
L 329.314246 219.56491 
L 329.468354 220.093289 
L 329.853625 222.603996 
L 330.123314 223.708592 
L 330.43153 224.962061 
L 330.470058 224.832612 
L 330.739747 223.87892 
L 330.855328 223.760777 
L 331.009436 222.417288 
L 331.279125 219.819025 
L 331.35618 219.793802 
L 331.394707 219.857294 
L 331.625869 220.345085 
L 331.664396 220.293914 
L 331.818504 220.249991 
L 331.972612 220.296958 
L 332.434937 221.454609 
L 332.589045 222.058947 
L 332.627572 222.000383 
L 333.282532 220.899267 
L 333.321059 220.940725 
L 333.475167 221.393291 
L 333.898964 223.383156 
L 334.014545 223.322708 
L 334.168654 222.444251 
L 334.399816 221.398509 
L 334.515397 221.481426 
L 334.708032 222.190136 
L 335.208884 224.355113 
L 335.440046 224.257265 
L 335.940898 225.213856 
L 336.17206 225.891399 
L 336.210587 225.76166 
L 336.364695 225.516968 
L 336.518803 225.808192 
L 336.634384 226.036504 
L 336.672911 225.969823 
L 336.865547 224.740707 
L 337.135236 223.955604 
L 337.366398 223.580157 
L 337.481979 223.525652 
L 337.59756 223.746716 
L 337.636087 223.706852 
L 337.905777 223.112226 
L 338.136939 222.738519 
L 338.368101 221.466205 
L 338.445155 221.524479 
L 339.446858 224.050552 
L 339.523913 223.994453 
L 339.678021 223.841085 
L 339.94771 223.050328 
L 340.063291 223.143103 
L 340.255926 223.403161 
L 340.371507 223.490137 
L 340.60267 224.237696 
L 340.641197 224.105057 
L 340.910886 222.811724 
L 341.026467 222.955959 
L 341.257629 223.906752 
L 341.797008 226.755651 
L 341.874062 226.677228 
L 341.989643 226.454569 
L 342.413441 223.778028 
L 342.644603 222.071703 
L 342.721657 222.116206 
L 342.875765 222.660531 
L 343.106928 223.814123 
L 343.145455 223.680759 
L 343.415144 222.038073 
L 343.530725 222.269284 
L 343.915995 223.996627 
L 343.993049 223.628429 
L 344.686536 220.782139 
L 344.76359 220.825772 
L 344.917699 221.379664 
L 345.765293 225.387084 
L 345.919402 225.34519 
L 346.227618 225.644243 
L 346.45878 225.593941 
L 346.651415 225.900097 
L 346.766997 226.076513 
L 346.805524 226.000844 
L 347.075213 225.073825 
L 347.190794 225.198346 
L 347.460483 225.608872 
L 347.614591 225.5448 
L 347.691646 225.426223 
L 348.038389 223.664814 
L 348.269551 222.594429 
L 348.385132 222.68184 
L 348.577768 223.37127 
L 348.885984 224.806664 
L 348.924511 224.717948 
L 349.348308 222.619362 
L 349.810633 221.81266 
L 349.926214 221.984292 
L 350.003268 222.094027 
L 350.041795 222.073878 
L 350.118849 221.994005 
L 350.272957 220.63515 
L 350.581174 219.038415 
L 350.658228 219.16714 
L 351.120552 220.618044 
L 351.390242 218.916649 
L 351.467296 219.009713 
L 352.19931 221.370822 
L 352.276364 221.255434 
L 352.815742 220.033131 
L 352.931323 220.195921 
L 353.23954 221.199189 
L 353.278067 221.113808 
L 353.62481 220.019505 
L 353.663337 220.050526 
L 353.817445 220.50744 
L 354.626513 224.14898 
L 354.66504 224.089836 
L 354.857675 223.7702 
L 355.011784 223.936614 
L 355.050311 223.810354 
L 355.435581 220.750973 
L 355.551162 220.965079 
L 355.782325 221.439098 
L 355.897906 221.390391 
L 356.052014 220.950583 
L 356.283176 220.300147 
L 356.398757 220.491349 
L 356.745501 221.505924 
L 357.130771 222.985676 
L 357.284879 222.95306 
L 358.171001 221.550572 
L 358.209528 221.590001 
L 358.248055 221.654798 
L 358.286582 221.621313 
L 358.402163 221.468525 
L 358.44069 221.500271 
L 358.594799 222.005892 
L 359.442394 225.634675 
L 359.596502 225.882412 
L 359.635029 225.855304 
L 359.712083 225.72455 
L 359.981772 224.936403 
L 360.097353 225.027003 
L 360.251461 225.160656 
L 360.367043 224.973948 
L 360.713786 223.826154 
L 360.983475 222.248844 
L 361.17611 221.565938 
L 361.291692 221.771636 
L 361.407273 221.965013 
L 361.4458 221.924279 
L 361.561381 221.585797 
L 361.792543 220.691974 
L 361.908124 220.830701 
L 361.946651 220.879987 
L 361.985178 220.848676 
L 362.177814 219.701028 
L 362.447503 218.502788 
L 362.755719 217.994848 
L 362.832773 218.003401 
L 362.986881 218.501628 
L 363.295098 220.187513 
L 363.372152 219.975292 
L 363.641841 219.132929 
L 363.680368 219.156413 
L 364.027112 219.898898 
L 364.296801 220.548174 
L 364.489436 220.716762 
L 364.682071 221.135117 
L 364.720598 221.101921 
L 364.874707 221.034225 
L 364.951761 221.145989 
L 364.990288 221.023498 
L 365.375558 219.673195 
L 365.452612 219.776262 
L 365.529666 219.914409 
L 365.568193 219.822069 
L 365.722301 219.552444 
L 365.760829 219.578826 
L 365.953464 219.930499 
L 365.991991 219.872515 
L 366.146099 219.459814 
L 366.338734 219.221645 
L 366.454315 219.204105 
L 366.569896 219.495329 
L 366.839586 221.054519 
L 367.032221 221.72235 
L 367.186329 222.275807 
L 368.110978 226.626347 
L 368.34214 227.037743 
L 368.419194 227.045426 
L 368.765938 226.061872 
L 368.804465 226.095503 
L 368.9971 226.500376 
L 369.305316 227.359554 
L 369.343843 227.281421 
L 369.613533 225.30837 
L 369.998803 222.358434 
L 370.075857 222.291898 
L 370.114384 222.32118 
L 370.268493 222.745912 
L 370.653763 224.819275 
L 370.961979 226.025777 
L 371.424304 226.682591 
L 371.578412 226.798414 
L 371.655466 226.876692 
L 371.693993 226.810591 
L 371.848101 226.220893 
L 372.618642 221.066696 
L 372.657169 221.110908 
L 372.888331 221.617689 
L 372.965386 221.57623 
L 373.003913 221.57594 
L 373.196548 220.856069 
L 373.235075 220.872159 
L 373.350656 221.192956 
L 373.581818 222.48136 
L 373.581818 222.48136 
" style="fill:none;stroke:#000000;stroke-linecap:square;stroke-width:1.5;"/>
   </g>
   <g id="line2d_19">
    <path clip-path="url(#p7e54bc88a0)" d="M 69.218182 226.402383 
L 69.526398 225.79906 
L 69.796087 225.710199 
L 69.911669 225.896618 
L 69.950196 225.793551 
L 70.682209 222.698365 
L 70.720736 222.713441 
L 70.836318 222.884494 
L 70.874845 222.805781 
L 71.221588 220.864042 
L 71.414223 220.147794 
L 71.491277 220.257384 
L 71.683913 221.234704 
L 72.261818 224.720268 
L 72.49298 224.275965 
L 72.531507 224.329455 
L 72.724143 225.013522 
L 73.032359 226.427316 
L 73.070886 226.336716 
L 73.263521 226.043752 
L 73.417629 226.270035 
L 73.533211 226.391076 
L 73.571738 226.36194 
L 73.8029 226.092604 
L 73.841427 226.117247 
L 74.18817 226.532268 
L 74.226697 226.431375 
L 74.45786 226.036214 
L 74.689022 225.864437 
L 74.881657 225.704981 
L 75.035765 225.723536 
L 75.421036 224.479199 
L 75.806306 221.446346 
L 75.88336 221.490124 
L 76.037468 222.018213 
L 76.422739 224.499059 
L 76.692428 225.753252 
L 76.92359 226.393541 
L 77.848239 229.54845 
L 78.117929 228.816547 
L 78.695834 226.406877 
L 78.734361 226.426302 
L 78.811415 226.416734 
L 78.926997 226.118117 
L 79.158159 225.375777 
L 79.235213 225.182255 
L 79.581956 223.508837 
L 79.697537 223.667713 
L 80.468078 225.579156 
L 80.622186 225.880382 
L 81.007457 227.37579 
L 81.546835 229.262299 
L 81.662417 228.927297 
L 82.548539 222.565582 
L 82.625593 222.525283 
L 82.66412 222.568481 
L 82.818228 223.073087 
L 83.357606 225.174137 
L 83.434661 225.149639 
L 83.627296 224.559362 
L 83.665823 224.576177 
L 83.819931 224.980036 
L 83.935512 225.273 
L 83.974039 225.243718 
L 84.08962 225.295904 
L 84.282255 225.917347 
L 84.860161 228.271932 
L 84.898688 228.250333 
L 85.322486 227.01339 
L 86.208608 222.746202 
L 86.285662 222.823031 
L 86.478297 223.56798 
L 86.786513 224.827393 
L 87.09473 224.008949 
L 87.171784 223.999236 
L 87.325892 224.193048 
L 87.364419 224.122018 
L 87.518527 223.915884 
L 87.557054 223.935889 
L 87.634108 223.987205 
L 87.711162 223.683079 
L 87.980852 222.390905 
L 88.289068 221.462436 
L 88.558757 220.075024 
L 88.635811 220.157507 
L 88.828446 221.074379 
L 89.136663 222.407286 
L 89.367825 222.428595 
L 89.56046 223.075696 
L 89.676041 223.344452 
L 89.714568 223.320679 
L 89.984258 222.841876 
L 90.176893 221.947473 
L 90.21542 221.95849 
L 90.446582 222.167087 
L 90.60069 222.206806 
L 90.754799 222.611679 
L 91.217123 224.0578 
L 91.371231 224.290171 
L 91.409758 224.266688 
L 91.717975 223.897185 
L 91.987664 223.161803 
L 92.103245 223.140493 
L 92.257353 223.509707 
L 92.604097 225.045703 
L 92.681151 224.905236 
L 92.989367 223.618137 
L 93.182002 223.021626 
L 93.528746 223.02583 
L 94.106651 220.764599 
L 94.183705 220.63515 
L 94.222232 220.65414 
L 94.337814 220.951308 
L 94.376341 220.745174 
L 94.684557 218.469302 
L 94.761611 218.410304 
L 94.800138 218.450748 
L 94.915719 218.798652 
L 94.954246 218.731825 
L 95.108354 218.352175 
L 95.146881 218.385371 
L 95.339517 218.582661 
L 95.493625 218.670072 
L 95.763314 219.216571 
L 95.801841 219.176272 
L 96.379747 216.308529 
L 96.418274 216.316936 
L 96.533855 216.513067 
L 96.72649 217.55417 
L 97.458504 222.973065 
L 97.497031 222.877681 
L 97.651139 222.170421 
L 97.920829 220.711109 
L 97.997883 220.669215 
L 98.03641 220.706905 
L 98.151991 221.009436 
L 98.229045 220.863462 
L 98.383153 220.488015 
L 98.729896 217.75349 
L 99.230748 214.318808 
L 99.307802 214.406219 
L 99.46191 215.258873 
L 100.232451 220.664577 
L 100.309505 220.712558 
L 100.348032 220.675304 
L 100.50214 220.661677 
L 100.656249 221.093658 
L 100.810357 221.371981 
L 100.925938 221.57681 
L 101.1571 221.939935 
L 101.195627 221.912827 
L 101.503843 220.143445 
L 101.773533 217.771755 
L 101.927641 217.62636 
L 102.043222 217.894536 
L 102.389965 218.925492 
L 102.544074 219.413282 
L 102.890817 221.641607 
L 103.121979 222.68039 
L 103.468723 223.899359 
L 103.545777 223.826444 
L 103.699885 223.770924 
L 103.853993 224.064903 
L 104.200736 225.447242 
L 104.354845 226.068251 
L 104.393372 226.01505 
L 104.586007 225.05701 
L 104.817169 222.922908 
L 105.048331 221.939065 
L 105.163913 221.556805 
L 105.741818 219.614052 
L 105.857399 219.649857 
L 106.011507 220.058064 
L 106.319724 221.804687 
L 106.550886 222.711702 
L 106.704994 222.335965 
L 106.743521 222.352056 
L 107.013211 222.615158 
L 107.475535 223.754544 
L 107.66817 223.603206 
L 108.130495 221.100906 
L 108.169022 221.109169 
L 108.785455 221.977479 
L 109.093671 223.366921 
L 109.170725 223.223845 
L 109.517468 222.366987 
L 109.902739 221.729308 
L 110.40359 219.052332 
L 110.480644 218.946511 
L 110.519171 218.979127 
L 110.67328 219.516783 
L 111.366766 222.687783 
L 111.559402 222.789835 
L 111.752037 223.31459 
L 112.522578 225.992002 
L 112.75374 226.588077 
L 113.13901 227.813134 
L 113.177537 227.75486 
L 113.331646 226.711728 
L 113.909551 222.079241 
L 114.025132 222.098666 
L 114.217768 222.543403 
L 114.294822 222.420622 
L 114.44893 222.24609 
L 114.487457 222.277112 
L 114.641565 222.68126 
L 114.988308 224.303218 
L 115.026835 224.160577 
L 115.219471 223.472017 
L 115.296525 223.46187 
L 115.566214 222.12012 
L 115.643268 222.196224 
L 115.990012 223.193259 
L 116.067066 223.15267 
L 116.182647 223.199057 
L 116.259701 223.273857 
L 116.760552 220.494973 
L 116.837606 220.587313 
L 117.030242 221.407352 
L 117.261404 222.686769 
L 117.299931 222.654008 
L 117.415512 221.705534 
L 117.646674 220.50657 
L 117.762255 220.728504 
L 117.993418 221.442867 
L 118.031945 221.422862 
L 118.147526 221.458523 
L 118.60985 222.417578 
L 119.033648 224.019821 
L 119.072175 224.036636 
L 119.187756 223.420556 
L 119.650081 219.750169 
L 119.842716 219.109591 
L 119.958297 219.358632 
L 120.227986 220.936087 
L 120.382094 221.811935 
L 120.420621 221.7928 
L 120.57473 221.660162 
L 120.690311 221.926308 
L 121.268216 223.801946 
L 121.422325 223.921538 
L 121.499379 224.028953 
L 121.537906 223.994888 
L 121.807595 223.410699 
L 121.846122 223.440416 
L 121.961703 223.517389 
L 122.00023 223.462015 
L 122.231392 222.376554 
L 122.539609 220.36335 
L 122.616663 220.299422 
L 122.65519 220.353637 
L 122.886352 220.697483 
L 123.078987 220.531648 
L 123.194568 220.205633 
L 123.233096 220.224188 
L 124.08069 221.591016 
L 124.157745 221.55724 
L 124.273326 221.282251 
L 124.543015 219.639999 
L 124.620069 219.733499 
L 125.236502 221.397784 
L 125.275029 221.352847 
L 125.352083 221.278627 
L 125.39061 221.315012 
L 125.544718 221.783523 
L 125.621772 221.656973 
L 125.77588 221.44794 
L 125.891461 221.716696 
L 125.968516 221.856003 
L 126.007043 221.795265 
L 126.084097 221.765403 
L 126.122624 221.817444 
L 126.315259 222.563553 
L 126.392313 222.744173 
L 126.43084 222.691117 
L 126.584948 222.535865 
L 126.623475 222.568626 
L 126.739056 222.761133 
L 126.777583 222.659081 
L 127.432543 219.371968 
L 127.509597 219.415456 
L 127.663705 219.974857 
L 128.164557 222.329877 
L 128.203084 222.286534 
L 128.395719 221.803092 
L 128.434246 221.824257 
L 128.626881 221.997194 
L 128.703936 221.735106 
L 129.16626 219.388059 
L 129.320368 219.433576 
L 129.590058 220.151563 
L 130.013855 220.933767 
L 130.360598 220.96189 
L 130.399125 221.041328 
L 130.437652 220.982184 
L 130.668815 220.291884 
L 130.707342 220.313773 
L 130.86145 220.746334 
L 131.323774 222.8081 
L 131.51641 223.85993 
L 131.554937 223.747876 
L 131.863153 222.676911 
L 131.978734 222.806071 
L 132.171369 223.264869 
L 132.209896 223.219207 
L 132.402532 223.035832 
L 132.595167 223.292846 
L 132.672221 223.11846 
L 132.864856 222.896816 
L 132.980437 223.033078 
L 133.018964 222.911892 
L 133.250127 222.241307 
L 133.365708 222.33582 
L 133.519816 221.940949 
L 133.558343 221.957765 
L 133.750978 222.032564 
L 133.943613 222.706483 
L 134.328884 224.123757 
L 134.675627 225.420424 
L 134.868262 226.12609 
L 134.906789 226.019399 
L 135.176479 225.240964 
L 135.330587 225.22009 
L 135.407641 225.096149 
L 135.754384 223.466653 
L 135.792911 223.485208 
L 135.94702 223.848768 
L 136.178182 224.325686 
L 136.486398 223.771069 
L 136.563452 223.870512 
L 136.98725 224.782455 
L 137.025777 224.618796 
L 137.488101 221.90442 
L 137.603682 221.952256 
L 137.642209 221.84774 
L 137.757791 221.727713 
L 137.873372 221.99415 
L 138.104534 222.591675 
L 138.220115 222.544273 
L 138.297169 222.142879 
L 138.605386 220.343345 
L 138.913602 219.723496 
L 139.029183 219.308041 
L 139.337399 217.571275 
L 139.530035 217.385292 
L 139.684143 217.510392 
L 139.876778 218.268098 
L 139.915305 218.427119 
L 139.953832 218.357393 
L 140.10794 218.001082 
L 140.262048 218.284333 
L 140.339102 218.155609 
L 140.685846 215.316712 
L 140.917008 214.259664 
L 140.994062 214.373313 
L 141.032589 214.495224 
L 141.109643 214.372443 
L 141.610495 212.158614 
L 141.649022 212.20761 
L 141.841657 212.897475 
L 142.535144 216.785737 
L 142.573671 216.744713 
L 142.689252 216.473058 
L 143.074522 214.770648 
L 143.344212 214.610177 
L 143.613901 213.844064 
L 143.88359 214.186024 
L 144.076226 215.363534 
L 144.384442 217.241346 
L 144.500023 216.097757 
L 144.731185 214.549439 
L 144.808239 214.574227 
L 144.92382 214.776301 
L 144.962348 214.740641 
L 145.232037 214.433761 
L 145.347618 214.378241 
L 145.463199 214.713389 
L 145.732888 216.599173 
L 146.156686 219.576797 
L 146.503429 219.682328 
L 146.580483 219.659424 
L 146.773119 219.540702 
L 146.965754 219.397916 
L 147.196916 218.612088 
L 147.312497 218.796187 
L 147.389551 219.054941 
L 147.428078 219.014497 
L 147.543659 218.284913 
L 147.851876 215.784063 
L 147.967457 215.585033 
L 148.005984 215.613735 
L 148.160092 216.149942 
L 148.622417 218.119224 
L 148.776525 218.253457 
L 149.161795 219.385305 
L 149.855282 222.166072 
L 149.932336 221.995889 
L 150.202025 221.298777 
L 150.317606 221.46838 
L 150.779931 222.459616 
L 151.011093 223.051633 
L 151.203728 223.610164 
L 151.242255 223.501299 
L 151.70458 218.496555 
L 151.974269 216.35709 
L 152.051323 216.346363 
L 152.282486 217.005206 
L 152.475121 217.678836 
L 152.552175 217.583162 
L 152.860391 216.676582 
L 153.091554 215.940185 
L 153.207135 215.90409 
L 153.592405 216.535681 
L 153.823567 217.287154 
L 154.093257 216.898371 
L 154.170311 217.004192 
L 154.362946 217.385581 
L 154.517054 218.024275 
L 154.555581 217.977598 
L 154.709689 217.485749 
L 154.748216 217.498215 
L 154.940852 218.0437 
L 154.979379 217.864964 
L 155.287595 216.166033 
L 155.403176 215.432245 
L 155.711392 213.584585 
L 155.865501 213.351055 
L 155.981082 213.631262 
L 156.212244 215.049406 
L 156.905731 221.553181 
L 157.483636 225.83298 
L 157.907434 227.578444 
L 158.023015 227.482625 
L 158.408285 226.588802 
L 158.523867 226.599094 
L 158.793556 225.553643 
L 159.294407 222.551086 
L 159.409988 222.557319 
L 160.064948 223.924437 
L 160.29611 224.7294 
L 160.334638 224.706206 
L 160.450219 224.696929 
L 160.604327 225.004969 
L 160.758435 225.115284 
L 160.912543 225.067302 
L 161.105178 224.581541 
L 161.220759 224.615896 
L 161.413395 224.019241 
L 161.451922 224.036781 
L 161.60603 224.395847 
L 161.9913 225.683237 
L 162.029827 225.595681 
L 162.684787 223.603786 
L 162.723314 223.626834 
L 162.993003 223.651043 
L 163.147112 223.954879 
L 163.185639 223.887472 
L 163.339747 223.7328 
L 163.493855 224.087662 
L 163.95618 225.415931 
L 164.110288 225.628732 
L 164.148815 225.575532 
L 164.302923 225.48957 
L 164.457031 225.736582 
L 164.649666 226.23162 
L 164.688193 226.116667 
L 165.111991 223.689022 
L 165.227572 223.700764 
L 165.343153 223.882834 
L 165.38168 223.741788 
L 165.574315 223.427369 
L 165.728423 223.338509 
L 165.766951 223.374604 
L 165.921059 223.765851 
L 166.229275 224.481808 
L 166.42191 225.082957 
L 166.498964 224.966989 
L 166.884235 223.551165 
L 167.192451 222.313207 
L 167.269505 222.290013 
L 167.308032 222.343503 
L 167.847411 223.820066 
L 168.232681 225.885021 
L 168.309735 225.733828 
L 168.502371 224.381061 
L 168.849114 222.310597 
L 168.964695 222.273488 
L 169.42702 223.013943 
L 169.966398 224.578352 
L 170.698412 226.206832 
L 170.891047 226.720426 
L 170.929574 226.63113 
L 171.391899 224.642569 
L 171.623061 221.959359 
L 171.931277 218.991738 
L 172.16244 217.684489 
L 172.355075 216.677162 
L 172.470656 216.853868 
L 172.663291 217.564752 
L 173.010035 220.18041 
L 173.318251 222.112147 
L 173.395305 221.925294 
L 173.626467 221.265291 
L 173.742048 221.436344 
L 174.281427 223.423165 
L 174.820806 225.681207 
L 174.859333 225.602204 
L 175.206076 224.388454 
L 175.321657 224.546895 
L 175.437238 224.72882 
L 176.361887 220.601374 
L 176.438941 220.59717 
L 176.593049 221.071914 
L 177.016847 223.329231 
L 177.093901 223.194129 
L 177.556226 221.417499 
L 177.671807 221.534627 
L 177.864442 222.286824 
L 178.057077 223.055257 
L 178.134131 222.51789 
L 178.365293 218.794303 
L 178.596456 215.791021 
L 178.789091 215.400354 
L 178.904672 215.623593 
L 179.097307 216.70079 
L 179.559632 220.346389 
L 179.636686 220.129819 
L 180.021956 217.858876 
L 180.253119 216.787621 
L 180.445754 216.450879 
L 180.638389 216.835893 
L 180.715443 216.751236 
L 180.831024 216.260402 
L 181.331876 214.114704 
L 181.40893 214.071941 
L 181.447457 214.120937 
L 181.601565 214.425353 
L 181.640092 214.335333 
L 181.7942 213.756798 
L 181.832727 213.76535 
L 182.025362 214.048457 
L 182.217998 213.356563 
L 182.256525 213.418751 
L 182.295052 213.425129 
L 182.410633 212.721928 
L 182.795903 209.430901 
L 182.83443 209.463517 
L 182.950012 209.895353 
L 183.219701 212.131796 
L 183.759079 217.086384 
L 183.797606 217.08131 
L 184.14435 217.001727 
L 184.259931 217.241636 
L 184.837837 219.112635 
L 184.876364 219.142497 
L 184.914891 219.083498 
L 185.18458 217.619982 
L 185.685432 216.966937 
L 185.723959 216.995784 
L 185.878067 217.444725 
L 186.186283 219.433141 
L 186.340391 219.838595 
L 186.417445 219.742921 
L 186.764189 217.866124 
L 186.841243 217.984411 
L 187.033878 218.899834 
L 187.688838 223.431138 
L 187.765892 223.18746 
L 188.074108 222.393515 
L 188.112635 222.438887 
L 188.228216 222.677491 
L 188.266743 222.629364 
L 188.382325 222.516441 
L 188.420852 222.551231 
L 188.57496 222.994229 
L 188.729068 223.422151 
L 188.767595 223.373299 
L 189.075811 222.659516 
L 189.114338 222.690683 
L 189.268446 223.054097 
L 189.499609 223.474191 
L 189.576663 223.372864 
L 189.730771 223.173979 
L 189.884879 223.447954 
L 189.923406 223.275886 
L 190.385731 220.302756 
L 190.732474 219.995296 
L 190.963636 219.560996 
L 191.002163 219.612892 
L 191.194799 219.713204 
L 191.387434 219.567809 
L 191.503015 219.573753 
L 191.657123 220.004574 
L 191.811231 220.677188 
L 191.849758 220.520921 
L 192.080921 219.898753 
L 192.235029 219.900492 
L 192.466191 219.042039 
L 192.543245 219.050447 
L 192.658826 218.869102 
L 192.697353 218.89592 
L 192.851461 219.434446 
L 193.00557 219.674355 
L 193.121151 219.992252 
L 193.39084 220.772572 
L 193.544948 221.399234 
L 193.814638 222.332486 
L 194.354016 223.635387 
L 194.893395 226.084486 
L 194.931922 226.007222 
L 195.278665 224.162751 
L 195.394246 224.271326 
L 195.586881 224.386135 
L 195.702463 224.411503 
L 195.779517 224.044174 
L 195.972152 221.350672 
L 196.241841 218.161262 
L 196.357422 217.361083 
L 196.896801 212.971694 
L 196.973855 213.089402 
L 197.16649 214.151959 
L 197.628815 216.342884 
L 197.937031 216.680206 
L 197.975558 216.791245 
L 198.052612 216.712242 
L 198.20672 216.575835 
L 198.245247 216.628455 
L 198.823153 218.268823 
L 199.054315 218.924187 
L 199.439586 220.481057 
L 200.094545 223.162237 
L 200.210127 223.304298 
L 200.248654 223.268058 
L 200.595397 221.877602 
L 200.672451 221.958635 
L 200.865086 222.620377 
L 201.019194 223.397073 
L 201.057722 223.326622 
L 202.598803 215.197845 
L 202.675857 215.325845 
L 202.714384 215.263077 
L 202.868493 214.644678 
L 202.90702 214.655985 
L 203.022601 215.045347 
L 204.062831 221.648275 
L 204.448101 223.906897 
L 204.563682 224.208849 
L 204.602209 224.161012 
L 204.756318 224.019821 
L 204.910426 224.364391 
L 205.295696 225.333883 
L 205.488331 225.672945 
L 205.719494 226.277573 
L 205.758021 226.188567 
L 205.912129 226.019254 
L 206.066237 226.197265 
L 206.143291 226.054334 
L 206.567089 225.348814 
L 206.721197 225.612496 
L 206.913832 225.83501 
L 207.06794 225.842403 
L 207.414684 224.546171 
L 207.530265 224.579221 
L 207.7229 224.31235 
L 207.877008 224.631262 
L 207.992589 224.970903 
L 208.031116 224.936258 
L 208.37786 224.112885 
L 208.493441 224.092011 
L 208.647549 224.398021 
L 208.801657 224.864503 
L 208.840184 224.810288 
L 208.917238 224.569509 
L 209.263982 222.471213 
L 209.379563 222.557319 
L 209.572198 223.247909 
L 209.957468 225.050631 
L 209.995995 224.910165 
L 210.227158 222.873332 
L 210.496847 220.574701 
L 210.728009 219.934268 
L 210.84359 220.131269 
L 211.344442 222.223766 
L 211.729712 223.667713 
L 212.076456 225.180226 
L 212.384672 226.458773 
L 212.615834 225.492035 
L 212.924051 223.755559 
L 213.155213 223.26313 
L 213.694591 216.585692 
L 214.079862 216.764718 
L 214.195443 217.060146 
L 214.272497 217.005786 
L 214.388078 217.332816 
L 214.619241 218.109367 
L 214.773349 218.112266 
L 215.081565 217.643755 
L 215.235673 217.587946 
L 215.428308 217.037243 
L 215.505362 216.902285 
L 215.620944 216.410725 
L 215.890633 215.195381 
L 216.083268 215.022009 
L 216.275903 214.550309 
L 216.391484 214.795436 
L 217.162025 218.463504 
L 217.547296 220.665156 
L 217.62435 220.156927 
L 217.932566 217.443565 
L 218.086674 217.059132 
L 218.125201 217.086384 
L 218.27931 217.579828 
L 218.356364 217.710582 
L 218.703107 216.335201 
L 218.780161 216.330563 
L 218.895742 216.727608 
L 219.203959 219.036096 
L 219.435121 220.245062 
L 219.666283 218.976083 
L 220.128608 212.990104 
L 220.436824 211.780123 
L 220.552405 211.853473 
L 220.706513 212.09918 
L 220.899148 213.192179 
L 221.130311 214.148335 
L 221.322946 215.018964 
L 221.631162 216.497701 
L 221.823797 216.455373 
L 221.939379 216.595984 
L 221.977906 216.5567 
L 222.093487 216.192706 
L 222.286122 215.757681 
L 222.401703 216.038468 
L 222.632865 217.436172 
L 223.09519 220.264197 
L 223.287825 220.395386 
L 223.326352 220.416115 
L 223.75015 217.891492 
L 224.13542 217.117985 
L 224.636272 212.760053 
L 224.713326 212.796728 
L 224.983015 213.713745 
L 225.098596 214.082088 
L 225.137123 213.946405 
L 225.291231 213.516454 
L 225.329758 213.539068 
L 225.445339 213.905527 
L 225.715029 215.896407 
L 225.984718 217.426315 
L 226.21588 217.959043 
L 226.254407 217.9344 
L 226.331461 217.777553 
L 226.909367 214.669611 
L 227.102002 214.518852 
L 227.217583 214.74557 
L 227.448746 216.079347 
L 227.718435 217.210035 
L 227.872543 217.622301 
L 227.91107 217.563302 
L 228.257814 213.464558 
L 228.527503 211.057643 
L 228.643084 210.808311 
L 228.681611 210.841217 
L 228.797192 211.24928 
L 229.490679 214.644388 
L 229.567733 214.777751 
L 229.60626 214.680918 
L 229.798895 213.841599 
L 230.107112 212.295891 
L 230.376801 212.628864 
L 230.415328 212.597408 
L 230.64649 212.000752 
L 230.723544 212.109907 
L 230.91618 213.104043 
L 232.149045 221.718001 
L 232.264626 221.697127 
L 232.418734 221.6864 
L 232.457261 221.750182 
L 232.495788 221.663061 
L 232.726951 220.589632 
L 232.842532 220.556292 
L 233.073694 220.332183 
L 233.458964 220.688785 
L 233.805708 219.469236 
L 234.229505 218.703558 
L 234.653303 217.159299 
L 234.961519 216.422902 
L 235.192681 216.548727 
L 235.385316 215.240173 
L 235.770587 213.144632 
L 236.348493 211.544273 
L 236.695236 209.118368 
L 236.733763 209.151998 
L 236.887871 209.762425 
L 237.196087 212.349236 
L 237.542831 214.950688 
L 237.851047 216.288814 
L 237.928101 216.26649 
L 237.966628 216.254748 
L 238.159264 215.013456 
L 238.660115 209.830121 
L 238.891277 209.43525 
L 238.929804 209.465257 
L 239.006858 209.618915 
L 239.045386 209.577891 
L 239.199494 209.374512 
L 239.392129 209.791707 
L 239.469183 209.641528 
L 239.584764 209.241294 
L 239.854453 207.466259 
L 239.931507 207.453212 
L 240.201197 207.85794 
L 240.355305 207.870842 
L 240.54794 207.812858 
L 240.663521 208.02131 
L 240.971738 208.853091 
L 241.010265 208.812937 
L 241.2029 208.174388 
L 242.281657 200.977994 
L 242.435765 201.180213 
L 242.6284 201.652638 
L 242.705455 201.564357 
L 242.975144 201.084684 
L 243.206306 200.350172 
L 243.514522 200.826076 
L 243.861266 202.027214 
L 244.053901 201.512751 
L 244.439171 199.8518 
L 244.631807 200.23116 
L 244.824442 200.894642 
L 245.209712 202.465863 
L 245.36382 202.833627 
L 245.402348 202.786805 
L 245.517929 202.355984 
L 245.749091 199.794396 
L 246.057307 196.09835 
L 246.635213 193.845817 
L 246.712267 193.919602 
L 246.866375 194.028612 
L 247.136064 193.913948 
L 247.251646 194.085871 
L 247.290173 194.042673 
L 247.405754 193.27453 
L 247.752497 190.895446 
L 247.829551 190.940674 
L 247.983659 191.429479 
L 248.176295 191.875231 
L 248.253349 191.760567 
L 248.7542 190.007711 
L 248.792727 190.02873 
L 249.062417 190.203697 
L 249.139471 189.820133 
L 249.755903 183.944469 
L 249.987066 182.400355 
L 250.256755 182.057815 
L 250.410863 182.314684 
L 250.44939 182.353678 
L 250.487917 182.249017 
L 250.642025 180.71766 
L 250.950242 174.899835 
L 251.142877 167.670825 
L 251.258458 157.79499 
L 251.296985 144.671906 
L 251.335512 46.099541 
L 251.374039 116.737244 
L 251.528147 198.678783 
L 251.566674 198.771558 
L 252.106053 186.307462 
L 252.838067 178.61255 
L 253.18481 175.900059 
L 253.493026 174.932016 
L 253.647135 174.539464 
L 253.762716 172.828501 
L 253.955351 166.230357 
L 254.070932 153.732631 
L 254.147986 67.112797 
L 254.302094 193.034621 
L 254.379148 196.151406 
L 254.417675 195.763493 
L 254.764419 192.445793 
L 255.26527 190.433459 
L 255.342325 190.39229 
L 255.380852 190.438387 
L 255.573487 191.159128 
L 255.612014 191.288288 
L 255.689068 191.17261 
L 255.997284 190.292268 
L 256.112865 190.10295 
L 256.382555 188.724525 
L 256.536663 189.009372 
L 256.652244 189.202893 
L 256.690771 189.129833 
L 257.114568 188.376331 
L 257.23015 188.448521 
L 257.384258 189.108089 
L 257.653947 191.51457 
L 258.039217 194.679047 
L 258.308907 195.946577 
L 258.385961 196.087333 
L 258.501542 195.211775 
L 258.732704 194.197055 
L 258.848285 193.959031 
L 258.886812 193.980775 
L 259.002394 194.365064 
L 259.464718 196.995508 
L 259.503245 196.851273 
L 259.618826 196.652677 
L 259.657353 196.716025 
L 259.772934 197.098429 
L 259.811461 197.027979 
L 260.004097 196.60774 
L 260.196732 197.169025 
L 260.466421 198.83418 
L 260.890219 203.02338 
L 261.891922 212.120924 
L 262.277192 211.874492 
L 262.392773 212.129912 
L 263.278895 216.510313 
L 263.779747 219.720162 
L 264.049436 221.463596 
L 264.087963 221.393436 
L 264.704396 218.303613 
L 264.858504 218.310281 
L 264.935558 218.225335 
L 265.128193 217.800022 
L 265.16672 217.8251 
L 265.243774 217.795528 
L 265.359356 217.751316 
L 265.513464 218.272882 
L 265.783153 219.461844 
L 265.82168 219.442419 
L 266.014315 219.285282 
L 266.168423 219.595497 
L 266.438113 220.287536 
L 266.592221 220.72401 
L 266.630748 220.681827 
L 266.784856 220.615 
L 266.938964 220.98001 
L 267.170127 221.756995 
L 267.208654 221.695822 
L 267.362762 221.499546 
L 267.401289 221.533032 
L 267.555397 221.965883 
L 267.90214 223.000607 
L 268.325938 224.196092 
L 268.364465 224.159852 
L 268.5571 224.028953 
L 268.711208 224.267702 
L 269.019425 225.355047 
L 269.327641 226.50342 
L 269.366168 226.387597 
L 269.635857 224.473546 
L 270.213763 221.638563 
L 270.329344 221.573476 
L 270.483452 221.999368 
L 270.868723 222.994084 
L 271.099885 222.848689 
L 271.215466 221.729743 
L 271.446628 219.946155 
L 271.523682 219.939922 
L 271.677791 220.442208 
L 271.754845 220.681247 
L 271.793372 220.660953 
L 271.986007 220.420029 
L 272.33275 218.916794 
L 272.371277 218.969124 
L 272.563913 219.313694 
L 272.60244 219.259189 
L 272.718021 218.819526 
L 272.910656 217.984121 
L 273.218872 218.369425 
L 273.450035 219.721612 
L 273.64267 220.751263 
L 273.796778 219.727555 
L 274.143521 216.808206 
L 274.220575 216.861406 
L 274.374684 217.497201 
L 274.6829 219.211353 
L 274.721427 219.177577 
L 275.453441 216.48567 
L 275.491968 216.545683 
L 275.72313 217.451248 
L 275.800184 217.222936 
L 276.069873 216.246196 
L 276.1084 216.288524 
L 276.262509 216.905474 
L 277.495374 223.985755 
L 277.765063 223.475206 
L 277.80359 223.522173 
L 277.842117 223.499849 
L 278.034753 222.322194 
L 278.45855 219.94427 
L 278.497077 219.973552 
L 278.651185 220.482217 
L 278.805293 220.828236 
L 279.036456 220.416405 
L 279.11351 220.513528 
L 279.344672 221.191941 
L 279.421726 221.064956 
L 279.614361 219.814821 
L 279.806997 218.700948 
L 279.884051 218.723997 
L 280.307848 219.90832 
L 280.384902 219.701607 
L 281.001335 216.588736 
L 281.232497 215.228432 
L 281.348078 215.149573 
L 281.386605 215.185524 
L 281.733349 215.636639 
L 281.84893 215.908149 
L 282.195673 217.142773 
L 282.2342 217.08102 
L 282.388308 216.609466 
L 282.619471 215.896407 
L 282.735052 216.146318 
L 282.966214 216.939829 
L 283.004741 216.915911 
L 283.120322 216.958529 
L 283.27443 217.536195 
L 283.852336 219.882952 
L 284.160552 220.166059 
L 284.391715 221.14048 
L 284.854039 223.104978 
L 285.008147 223.430993 
L 285.046674 223.398667 
L 285.23931 222.584137 
L 285.354891 221.914712 
L 285.663107 219.940212 
L 285.740161 219.643333 
L 286.27954 216.170092 
L 286.356594 216.245326 
L 286.510702 216.967372 
L 286.973026 219.42169 
L 287.242716 220.790692 
L 287.589459 222.352056 
L 287.782094 223.149916 
L 287.820621 223.037717 
L 288.167365 221.506794 
L 288.244419 221.561734 
L 288.437054 222.321614 
L 288.976433 224.704467 
L 289.092014 225.040049 
L 289.130541 224.997286 
L 289.284649 224.524716 
L 289.746974 221.184113 
L 289.824028 221.120041 
L 289.862555 221.166138 
L 290.247825 222.30103 
L 290.556041 223.585086 
L 290.633096 223.470857 
L 290.787204 222.966541 
L 291.249528 220.191137 
L 291.365109 220.109525 
L 291.403636 220.140981 
L 291.519217 219.775537 
L 291.673326 219.487501 
L 291.788907 219.541716 
L 292.058596 219.235996 
L 292.174177 219.318188 
L 292.328285 219.828882 
L 292.944718 222.658501 
L 292.983245 222.642701 
L 293.17588 222.526153 
L 293.214407 222.53514 
L 293.676732 219.632027 
L 293.753786 219.704941 
L 294.100529 220.318122 
L 294.293165 220.991896 
L 295.256341 225.32736 
L 295.448976 225.334463 
L 295.680138 225.138042 
L 296.065409 225.017725 
L 296.56626 225.025263 
L 296.681841 225.249082 
L 296.720368 225.178921 
L 297.105639 223.367501 
L 297.298274 222.61023 
L 297.413855 222.505859 
L 297.799125 221.631895 
L 297.87618 221.483601 
L 298.26145 220.282027 
L 298.377031 220.426987 
L 298.569666 221.25094 
L 299.417261 226.65128 
L 299.494315 226.15972 
L 299.686951 225.340261 
L 299.802532 225.436225 
L 300.072221 226.298882 
L 300.34191 227.329692 
L 300.380437 227.282001 
L 300.804235 225.446227 
L 300.919816 225.558136 
L 301.228032 226.320771 
L 301.343613 226.17784 
L 301.459194 226.254089 
L 301.690357 226.821898 
L 301.767411 226.643597 
L 302.383843 223.980682 
L 302.537952 224.010688 
L 302.615006 224.107522 
L 302.653533 224.029533 
L 303.038803 222.382208 
L 303.115857 222.448164 
L 303.578182 223.737004 
L 303.616709 223.558993 
L 303.886398 222.075327 
L 303.963452 222.098956 
L 304.11756 222.552246 
L 304.464304 224.174928 
L 304.541358 224.101868 
L 304.695466 224.029098 
L 304.888101 224.254946 
L 304.926628 224.163621 
L 305.311899 222.979588 
L 305.388953 223.019452 
L 305.504534 223.245589 
L 305.581588 223.18833 
L 305.658642 223.229789 
L 305.81275 223.698734 
L 306.506237 227.164728 
L 306.660345 226.969467 
L 306.930035 226.90351 
L 307.045616 226.674183 
L 307.276778 226.001859 
L 307.392359 226.127539 
L 307.50794 226.292794 
L 307.546467 226.253364 
L 307.700575 226.190307 
L 307.854684 226.429491 
L 307.893211 226.353097 
L 308.085846 225.917057 
L 308.201427 226.062452 
L 308.317008 226.288735 
L 308.355535 226.246406 
L 308.509643 226.140151 
L 308.663751 226.372377 
L 308.933441 227.021797 
L 308.971968 226.991211 
L 309.20313 225.120647 
L 309.742509 221.031615 
L 309.85809 221.232385 
L 309.896617 221.156861 
L 310.050725 221.034804 
L 310.166306 221.149613 
L 310.397468 221.66596 
L 310.435995 221.610441 
L 310.628631 220.191717 
L 310.89832 218.745451 
L 311.052428 218.506702 
L 311.322117 219.010293 
L 311.476226 219.56462 
L 311.55328 219.437345 
L 311.707388 218.522213 
L 312.015604 216.062532 
L 312.092658 215.994255 
L 312.131185 216.043252 
L 312.400875 216.743699 
L 312.439402 216.718476 
L 312.516456 216.058763 
L 312.786145 212.972709 
L 312.901726 212.91574 
L 313.171415 213.20566 
L 313.402578 214.048022 
L 314.173119 217.019123 
L 314.327227 217.305998 
L 315.020713 219.958332 
L 315.906835 223.719464 
L 316.292106 223.747296 
L 316.407687 222.929722 
L 316.715903 221.079307 
L 316.792957 221.030021 
L 316.831484 221.066116 
L 317.216755 221.958055 
L 317.563498 223.106138 
L 317.640552 223.0454 
L 317.794661 223.036847 
L 317.871715 223.101499 
L 318.44962 220.468011 
L 318.642255 219.722482 
L 318.71931 219.528235 
L 319.143107 217.342528 
L 319.374269 216.322155 
L 319.643959 215.318452 
L 319.721013 215.328744 
L 319.990702 215.013456 
L 320.067756 215.108115 
L 320.298918 216.152117 
L 320.414499 216.41145 
L 320.453026 216.382023 
L 320.568608 216.314907 
L 320.607135 216.365643 
L 320.761243 216.969981 
L 321.300621 219.56375 
L 321.45473 220.07198 
L 321.647365 220.799534 
L 321.685892 220.717632 
L 321.801473 220.552523 
L 321.84 220.587603 
L 321.994108 221.104675 
L 322.340852 222.31973 
L 322.456433 222.533981 
L 322.49496 222.425551 
L 322.572014 222.316106 
L 322.610541 222.33872 
L 322.764649 222.803316 
L 323.188446 224.2232 
L 323.304028 224.371349 
L 323.381082 224.152894 
L 323.612244 222.104464 
L 323.843406 220.980444 
L 324.036041 220.857373 
L 324.344258 219.790323 
L 324.729528 218.647313 
L 324.806582 218.60542 
L 324.845109 218.645864 
L 325.191853 219.115389 
L 325.307434 219.211643 
L 325.461542 219.798731 
L 326.27061 224.115639 
L 326.309137 224.075775 
L 326.809988 222.097361 
L 326.887043 222.099826 
L 327.118205 221.376185 
L 327.31084 219.798006 
L 327.69611 215.123191 
L 327.773165 215.066076 
L 327.811692 215.126815 
L 327.850219 215.202484 
L 327.888746 215.123916 
L 327.9658 214.845157 
L 328.081381 214.446228 
L 328.119908 214.481888 
L 328.659287 216.247211 
L 329.160138 219.005799 
L 329.314246 219.111765 
L 329.506881 219.842943 
L 330.43153 224.607489 
L 330.970909 222.625451 
L 331.279125 219.493155 
L 331.35618 219.463873 
L 331.394707 219.525481 
L 331.625869 220.004429 
L 331.664396 219.951953 
L 331.818504 219.902812 
L 331.972612 219.94514 
L 332.39641 220.892164 
L 332.589045 221.703505 
L 332.627572 221.646101 
L 333.282532 220.549333 
L 333.321059 220.590502 
L 333.475167 221.041908 
L 333.898964 223.042211 
L 334.014545 222.986111 
L 334.168654 222.111712 
L 334.399816 221.063941 
L 334.515397 221.144684 
L 334.708032 221.851944 
L 335.208884 224.034607 
L 335.440046 223.946326 
L 335.940898 224.920167 
L 336.17206 225.607423 
L 336.210587 225.479713 
L 336.364695 225.241544 
L 336.518803 225.538132 
L 336.634384 225.770793 
L 336.672911 225.705416 
L 336.865547 224.478474 
L 337.135236 223.688732 
L 337.366398 223.308212 
L 337.481979 223.251098 
L 337.59756 223.469988 
L 337.636087 223.429834 
L 337.905777 222.833468 
L 338.136939 222.457587 
L 338.368101 221.178895 
L 338.445155 221.234269 
L 339.446858 223.761647 
L 339.56244 223.6954 
L 339.639494 223.705692 
L 339.986237 222.763308 
L 340.101818 222.950451 
L 340.217399 223.133245 
L 340.255926 223.118025 
L 340.371507 223.205001 
L 340.60267 223.954444 
L 340.641197 223.822675 
L 340.910886 222.528182 
L 341.026467 222.670533 
L 341.257629 223.620601 
L 341.797008 226.490519 
L 341.874062 226.416879 
L 341.989643 226.200309 
L 342.413441 223.526812 
L 342.644603 221.809616 
L 342.721657 221.85006 
L 342.875765 222.387571 
L 343.106928 223.537104 
L 343.145455 223.403886 
L 343.415144 221.755111 
L 343.530725 221.982553 
L 343.915995 223.708882 
L 343.993049 223.342133 
L 344.686536 220.477723 
L 344.76359 220.517877 
L 344.917699 221.066261 
L 345.765293 225.089481 
L 345.919402 225.055995 
L 346.227618 225.368674 
L 346.45878 225.323591 
L 346.651415 225.63366 
L 346.766997 225.812976 
L 346.805524 225.738177 
L 347.075213 224.813477 
L 347.190794 224.938287 
L 347.460483 225.351568 
L 347.614591 225.288511 
L 347.691646 225.169933 
L 348.038389 223.401856 
L 348.269551 222.319585 
L 348.385132 222.401487 
L 348.577768 223.085119 
L 348.885984 224.522252 
L 348.924511 224.434406 
L 349.348308 222.327268 
L 349.810633 221.50578 
L 349.926214 221.673788 
L 350.003268 221.782073 
L 350.041795 221.761199 
L 350.118849 221.680166 
L 350.272957 220.318267 
L 350.581174 218.705297 
L 350.658228 218.829673 
L 351.120552 220.267386 
L 351.390242 218.561062 
L 351.467296 218.651517 
L 352.19931 221.006392 
L 352.276364 220.892164 
L 352.815742 219.663483 
L 352.931323 219.823084 
L 353.23954 220.823888 
L 353.278067 220.738941 
L 353.62481 219.63768 
L 353.663337 219.667397 
L 353.817445 220.120542 
L 354.626513 223.787305 
L 354.66504 223.73135 
L 354.857675 223.425195 
L 355.011784 223.600596 
L 355.050311 223.476656 
L 355.435581 220.41829 
L 355.551162 220.629206 
L 355.782325 221.100181 
L 355.897906 221.05017 
L 356.052014 220.607607 
L 356.283176 219.949489 
L 356.398757 220.136922 
L 356.745501 221.147293 
L 357.130771 222.637917 
L 357.284879 222.611244 
L 358.171001 221.21441 
L 358.209528 221.253549 
L 358.248055 221.318201 
L 358.286582 221.284716 
L 358.402163 221.131638 
L 358.44069 221.163239 
L 358.594799 221.66886 
L 359.480921 225.434196 
L 359.596502 225.588288 
L 359.635029 225.5635 
L 359.712083 225.43724 
L 359.981772 224.656775 
L 360.097353 224.749115 
L 360.251461 224.885087 
L 360.367043 224.699538 
L 360.713786 223.547541 
L 360.983475 221.960809 
L 361.17611 221.26848 
L 361.291692 221.468815 
L 361.407273 221.657843 
L 361.4458 221.615659 
L 361.561381 221.272394 
L 361.792543 220.365814 
L 361.908124 220.498742 
L 361.946651 220.546289 
L 361.985178 220.513673 
L 362.177814 219.357182 
L 362.447503 218.141983 
L 362.755719 217.614618 
L 362.832773 217.617952 
L 362.948354 217.932516 
L 363.295098 219.785394 
L 363.372152 219.573173 
L 363.641841 218.723852 
L 363.680368 218.745886 
L 364.027112 219.483153 
L 364.296801 220.136487 
L 364.489436 220.310294 
L 364.682071 220.735027 
L 364.720598 220.703281 
L 364.874707 220.639788 
L 364.951761 220.753292 
L 364.990288 220.632251 
L 365.375558 219.286297 
L 365.452612 219.387914 
L 365.529666 219.525191 
L 365.568193 219.432707 
L 365.722301 219.161341 
L 365.760829 219.186999 
L 365.953464 219.536498 
L 365.991991 219.478369 
L 366.146099 219.064943 
L 366.338734 218.82373 
L 366.454315 218.80416 
L 366.569896 219.093645 
L 366.839586 220.654864 
L 367.032221 221.331828 
L 367.186329 221.894272 
L 368.149505 226.445871 
L 368.34214 226.763334 
L 368.419194 226.77609 
L 368.765938 225.804858 
L 368.804465 225.839214 
L 368.9971 226.248001 
L 369.305316 227.116166 
L 369.343843 227.039483 
L 369.613533 225.066142 
L 369.998803 222.091563 
L 370.075857 222.019083 
L 370.114384 222.045611 
L 370.268493 222.461646 
L 370.653763 224.5295 
L 370.961979 225.747164 
L 371.424304 226.424997 
L 371.578412 226.545604 
L 371.655466 226.626347 
L 371.693993 226.561404 
L 371.848101 225.975186 
L 372.618642 220.786053 
L 372.695696 220.907964 
L 372.888331 221.320231 
L 372.926858 221.295443 
L 373.04244 221.109604 
L 373.196548 220.54397 
L 373.235075 220.558321 
L 373.350656 220.874624 
L 373.581818 222.159549 
L 373.581818 222.159549 
" style="fill:none;stroke:#ff0000;stroke-linecap:square;stroke-width:1.5;"/>
   </g>
   <g id="line2d_20">
    <path clip-path="url(#p7e54bc88a0)" d="M 258.00069 201.264 
L 296.450679 201.264 
L 296.450679 201.264 
" style="fill:none;stroke:#000000;stroke-linecap:square;stroke-width:1.5;"/>
   </g>
   <g id="line2d_21">
    <path clip-path="url(#p7e54bc88a0)" d="M 258.00069 179.52 
L 258.00069 178.0704 
L 258.00069 176.6208 
L 258.00069 175.1712 
L 258.00069 173.7216 
L 258.00069 172.272 
L 258.00069 170.8224 
L 258.00069 169.3728 
L 258.00069 167.9232 
L 258.00069 166.4736 
L 258.00069 165.024 
L 258.00069 163.5744 
L 258.00069 162.1248 
L 258.00069 160.6752 
L 258.00069 159.2256 
L 258.00069 157.776 
L 258.00069 156.3264 
L 258.00069 154.8768 
L 258.00069 153.4272 
L 258.00069 151.9776 
" style="fill:none;stroke:#000000;stroke-linecap:square;stroke-width:1.5;"/>
   </g>
   <g id="patch_3">
    <path d="M 54 252 
L 54 34.56 
" style="fill:none;stroke:#000000;stroke-linecap:square;stroke-linejoin:miter;stroke-width:0.8;"/>
   </g>
   <g id="patch_4">
    <path d="M 54 252 
L 388.8 252 
" style="fill:none;stroke:#000000;stroke-linecap:square;stroke-linejoin:miter;stroke-width:0.8;"/>
   </g>
   <g id="text_20">
    <!-- 500 ms -->
    <g transform="translate(258.00069 199.8144)scale(0.12 -0.12)">
     <use xlink:href="#DejaVuSans-35"/>
     <use x="63.623047" xlink:href="#DejaVuSans-30"/>
     <use x="127.246094" xlink:href="#DejaVuSans-30"/>
     <use x="190.869141" xlink:href="#DejaVuSans-20"/>
     <use x="222.65625" xlink:href="#DejaVuSans-6d"/>
     <use x="320.068359" xlink:href="#DejaVuSans-73"/>
    </g>
   </g>
   <g id="text_21">
    <!-- 20 mV -->
    <g transform="translate(261.853395 150.528)scale(0.12 -0.12)">
     <use xlink:href="#DejaVuSans-32"/>
     <use x="63.623047" xlink:href="#DejaVuSans-30"/>
     <use x="127.246094" xlink:href="#DejaVuSans-20"/>
     <use x="159.033203" xlink:href="#DejaVuSans-6d"/>
     <use x="256.445312" xlink:href="#DejaVuSans-56"/>
    </g>
   </g>
  </g>
 </g>
 <defs>
  <clipPath id="p7e54bc88a0">
   <rect height="217.44" width="334.8" x="54" y="34.56"/>
  </clipPath>
 </defs>
</svg>
