<?xml version="1.0" encoding="utf-8" standalone="no"?>
<!DOCTYPE svg PUBLIC "-//W3C//DTD SVG 1.1//EN"
  "http://www.w3.org/Graphics/SVG/1.1/DTD/svg11.dtd">
<svg height="288pt" version="1.1" viewBox="0 0 432 288" width="432pt" xmlns="http://www.w3.org/2000/svg" xmlns:xlink="http://www.w3.org/1999/xlink">
 <metadata>
  <rdf:RDF xmlns:cc="http://creativecommons.org/ns#" xmlns:dc="http://purl.org/dc/elements/1.1/" xmlns:rdf="http://www.w3.org/1999/02/22-rdf-syntax-ns#">
   <cc:Work>
    <dc:type rdf:resource="http://purl.org/dc/dcmitype/StillImage"/>
    <dc:date>2021-06-22T22:00:13.116834</dc:date>
    <dc:format>image/svg+xml</dc:format>
    <dc:creator>
     <cc:Agent>
      <dc:title>Matplotlib v3.4.1, https://matplotlib.org/</dc:title>
     </cc:Agent>
    </dc:creator>
   </cc:Work>
  </rdf:RDF>
 </metadata>
 <defs>
  <style type="text/css">*{stroke-linecap:butt;stroke-linejoin:round;}</style>
 </defs>
 <g id="figure_1">
  <g id="patch_1">
   <path d="M 0 288 
L 432 288 
L 432 0 
L 0 0 
z
" style="fill:none;"/>
  </g>
  <g id="axes_1">
   <g id="patch_2">
    <path d="M 54 252 
L 388.8 252 
L 388.8 34.56 
L 54 34.56 
z
" style="fill:#ffffff;"/>
   </g>
   <g id="matplotlib.axis_1">
    <g id="xtick_1">
     <g id="line2d_1">
      <defs>
       <path d="M 0 0 
L 0 3.5 
" id="m3d33dc9e7f" style="stroke:#000000;stroke-width:0.8;"/>
      </defs>
      <g>
       <use style="stroke:#000000;stroke-width:0.8;" x="64.059476" xlink:href="#m3d33dc9e7f" y="252"/>
      </g>
     </g>
     <g id="text_1">
      <!-- 0 -->
      <g transform="translate(60.241976 268.118125)scale(0.12 -0.12)">
       <defs>
        <path d="M 2034 4250 
Q 1547 4250 1301 3770 
Q 1056 3291 1056 2328 
Q 1056 1369 1301 889 
Q 1547 409 2034 409 
Q 2525 409 2770 889 
Q 3016 1369 3016 2328 
Q 3016 3291 2770 3770 
Q 2525 4250 2034 4250 
z
M 2034 4750 
Q 2819 4750 3233 4129 
Q 3647 3509 3647 2328 
Q 3647 1150 3233 529 
Q 2819 -91 2034 -91 
Q 1250 -91 836 529 
Q 422 1150 422 2328 
Q 422 3509 836 4129 
Q 1250 4750 2034 4750 
z
" id="DejaVuSans-30" transform="scale(0.015625)"/>
       </defs>
       <use xlink:href="#DejaVuSans-30"/>
      </g>
     </g>
    </g>
    <g id="xtick_2">
     <g id="line2d_2">
      <g>
       <use style="stroke:#000000;stroke-width:0.8;" x="115.646533" xlink:href="#m3d33dc9e7f" y="252"/>
      </g>
     </g>
     <g id="text_2">
      <!-- 500 -->
      <g transform="translate(104.194033 268.118125)scale(0.12 -0.12)">
       <defs>
        <path d="M 691 4666 
L 3169 4666 
L 3169 4134 
L 1269 4134 
L 1269 2991 
Q 1406 3038 1543 3061 
Q 1681 3084 1819 3084 
Q 2600 3084 3056 2656 
Q 3513 2228 3513 1497 
Q 3513 744 3044 326 
Q 2575 -91 1722 -91 
Q 1428 -91 1123 -41 
Q 819 9 494 109 
L 494 744 
Q 775 591 1075 516 
Q 1375 441 1709 441 
Q 2250 441 2565 725 
Q 2881 1009 2881 1497 
Q 2881 1984 2565 2268 
Q 2250 2553 1709 2553 
Q 1456 2553 1204 2497 
Q 953 2441 691 2322 
L 691 4666 
z
" id="DejaVuSans-35" transform="scale(0.015625)"/>
       </defs>
       <use xlink:href="#DejaVuSans-35"/>
       <use x="63.623047" xlink:href="#DejaVuSans-30"/>
       <use x="127.246094" xlink:href="#DejaVuSans-30"/>
      </g>
     </g>
    </g>
    <g id="xtick_3">
     <g id="line2d_3">
      <g>
       <use style="stroke:#000000;stroke-width:0.8;" x="167.23359" xlink:href="#m3d33dc9e7f" y="252"/>
      </g>
     </g>
     <g id="text_3">
      <!-- 1000 -->
      <g transform="translate(151.96359 268.118125)scale(0.12 -0.12)">
       <defs>
        <path d="M 794 531 
L 1825 531 
L 1825 4091 
L 703 3866 
L 703 4441 
L 1819 4666 
L 2450 4666 
L 2450 531 
L 3481 531 
L 3481 0 
L 794 0 
L 794 531 
z
" id="DejaVuSans-31" transform="scale(0.015625)"/>
       </defs>
       <use xlink:href="#DejaVuSans-31"/>
       <use x="63.623047" xlink:href="#DejaVuSans-30"/>
       <use x="127.246094" xlink:href="#DejaVuSans-30"/>
       <use x="190.869141" xlink:href="#DejaVuSans-30"/>
      </g>
     </g>
    </g>
    <g id="xtick_4">
     <g id="line2d_4">
      <g>
       <use style="stroke:#000000;stroke-width:0.8;" x="218.820647" xlink:href="#m3d33dc9e7f" y="252"/>
      </g>
     </g>
     <g id="text_4">
      <!-- 1500 -->
      <g transform="translate(203.550647 268.118125)scale(0.12 -0.12)">
       <use xlink:href="#DejaVuSans-31"/>
       <use x="63.623047" xlink:href="#DejaVuSans-35"/>
       <use x="127.246094" xlink:href="#DejaVuSans-30"/>
       <use x="190.869141" xlink:href="#DejaVuSans-30"/>
      </g>
     </g>
    </g>
    <g id="xtick_5">
     <g id="line2d_5">
      <g>
       <use style="stroke:#000000;stroke-width:0.8;" x="270.407704" xlink:href="#m3d33dc9e7f" y="252"/>
      </g>
     </g>
     <g id="text_5">
      <!-- 2000 -->
      <g transform="translate(255.137704 268.118125)scale(0.12 -0.12)">
       <defs>
        <path d="M 1228 531 
L 3431 531 
L 3431 0 
L 469 0 
L 469 531 
Q 828 903 1448 1529 
Q 2069 2156 2228 2338 
Q 2531 2678 2651 2914 
Q 2772 3150 2772 3378 
Q 2772 3750 2511 3984 
Q 2250 4219 1831 4219 
Q 1534 4219 1204 4116 
Q 875 4013 500 3803 
L 500 4441 
Q 881 4594 1212 4672 
Q 1544 4750 1819 4750 
Q 2544 4750 2975 4387 
Q 3406 4025 3406 3419 
Q 3406 3131 3298 2873 
Q 3191 2616 2906 2266 
Q 2828 2175 2409 1742 
Q 1991 1309 1228 531 
z
" id="DejaVuSans-32" transform="scale(0.015625)"/>
       </defs>
       <use xlink:href="#DejaVuSans-32"/>
       <use x="63.623047" xlink:href="#DejaVuSans-30"/>
       <use x="127.246094" xlink:href="#DejaVuSans-30"/>
       <use x="190.869141" xlink:href="#DejaVuSans-30"/>
      </g>
     </g>
    </g>
    <g id="xtick_6">
     <g id="line2d_6">
      <g>
       <use style="stroke:#000000;stroke-width:0.8;" x="321.994761" xlink:href="#m3d33dc9e7f" y="252"/>
      </g>
     </g>
     <g id="text_6">
      <!-- 2500 -->
      <g transform="translate(306.724761 268.118125)scale(0.12 -0.12)">
       <use xlink:href="#DejaVuSans-32"/>
       <use x="63.623047" xlink:href="#DejaVuSans-35"/>
       <use x="127.246094" xlink:href="#DejaVuSans-30"/>
       <use x="190.869141" xlink:href="#DejaVuSans-30"/>
      </g>
     </g>
    </g>
    <g id="xtick_7">
     <g id="line2d_7">
      <g>
       <use style="stroke:#000000;stroke-width:0.8;" x="373.581818" xlink:href="#m3d33dc9e7f" y="252"/>
      </g>
     </g>
     <g id="text_7">
      <!-- 3000 -->
      <g transform="translate(358.311818 268.118125)scale(0.12 -0.12)">
       <defs>
        <path d="M 2597 2516 
Q 3050 2419 3304 2112 
Q 3559 1806 3559 1356 
Q 3559 666 3084 287 
Q 2609 -91 1734 -91 
Q 1441 -91 1130 -33 
Q 819 25 488 141 
L 488 750 
Q 750 597 1062 519 
Q 1375 441 1716 441 
Q 2309 441 2620 675 
Q 2931 909 2931 1356 
Q 2931 1769 2642 2001 
Q 2353 2234 1838 2234 
L 1294 2234 
L 1294 2753 
L 1863 2753 
Q 2328 2753 2575 2939 
Q 2822 3125 2822 3475 
Q 2822 3834 2567 4026 
Q 2313 4219 1838 4219 
Q 1578 4219 1281 4162 
Q 984 4106 628 3988 
L 628 4550 
Q 988 4650 1302 4700 
Q 1616 4750 1894 4750 
Q 2613 4750 3031 4423 
Q 3450 4097 3450 3541 
Q 3450 3153 3228 2886 
Q 3006 2619 2597 2516 
z
" id="DejaVuSans-33" transform="scale(0.015625)"/>
       </defs>
       <use xlink:href="#DejaVuSans-33"/>
       <use x="63.623047" xlink:href="#DejaVuSans-30"/>
       <use x="127.246094" xlink:href="#DejaVuSans-30"/>
       <use x="190.869141" xlink:href="#DejaVuSans-30"/>
      </g>
     </g>
    </g>
    <g id="text_8">
     <!-- Time(ms) -->
     <g transform="translate(193.067813 283.731875)scale(0.12 -0.12)">
      <defs>
       <path d="M -19 4666 
L 3928 4666 
L 3928 4134 
L 2272 4134 
L 2272 0 
L 1638 0 
L 1638 4134 
L -19 4134 
L -19 4666 
z
" id="DejaVuSans-54" transform="scale(0.015625)"/>
       <path d="M 603 3500 
L 1178 3500 
L 1178 0 
L 603 0 
L 603 3500 
z
M 603 4863 
L 1178 4863 
L 1178 4134 
L 603 4134 
L 603 4863 
z
" id="DejaVuSans-69" transform="scale(0.015625)"/>
       <path d="M 3328 2828 
Q 3544 3216 3844 3400 
Q 4144 3584 4550 3584 
Q 5097 3584 5394 3201 
Q 5691 2819 5691 2113 
L 5691 0 
L 5113 0 
L 5113 2094 
Q 5113 2597 4934 2840 
Q 4756 3084 4391 3084 
Q 3944 3084 3684 2787 
Q 3425 2491 3425 1978 
L 3425 0 
L 2847 0 
L 2847 2094 
Q 2847 2600 2669 2842 
Q 2491 3084 2119 3084 
Q 1678 3084 1418 2786 
Q 1159 2488 1159 1978 
L 1159 0 
L 581 0 
L 581 3500 
L 1159 3500 
L 1159 2956 
Q 1356 3278 1631 3431 
Q 1906 3584 2284 3584 
Q 2666 3584 2933 3390 
Q 3200 3197 3328 2828 
z
" id="DejaVuSans-6d" transform="scale(0.015625)"/>
       <path d="M 3597 1894 
L 3597 1613 
L 953 1613 
Q 991 1019 1311 708 
Q 1631 397 2203 397 
Q 2534 397 2845 478 
Q 3156 559 3463 722 
L 3463 178 
Q 3153 47 2828 -22 
Q 2503 -91 2169 -91 
Q 1331 -91 842 396 
Q 353 884 353 1716 
Q 353 2575 817 3079 
Q 1281 3584 2069 3584 
Q 2775 3584 3186 3129 
Q 3597 2675 3597 1894 
z
M 3022 2063 
Q 3016 2534 2758 2815 
Q 2500 3097 2075 3097 
Q 1594 3097 1305 2825 
Q 1016 2553 972 2059 
L 3022 2063 
z
" id="DejaVuSans-65" transform="scale(0.015625)"/>
       <path d="M 1984 4856 
Q 1566 4138 1362 3434 
Q 1159 2731 1159 2009 
Q 1159 1288 1364 580 
Q 1569 -128 1984 -844 
L 1484 -844 
Q 1016 -109 783 600 
Q 550 1309 550 2009 
Q 550 2706 781 3412 
Q 1013 4119 1484 4856 
L 1984 4856 
z
" id="DejaVuSans-28" transform="scale(0.015625)"/>
       <path d="M 2834 3397 
L 2834 2853 
Q 2591 2978 2328 3040 
Q 2066 3103 1784 3103 
Q 1356 3103 1142 2972 
Q 928 2841 928 2578 
Q 928 2378 1081 2264 
Q 1234 2150 1697 2047 
L 1894 2003 
Q 2506 1872 2764 1633 
Q 3022 1394 3022 966 
Q 3022 478 2636 193 
Q 2250 -91 1575 -91 
Q 1294 -91 989 -36 
Q 684 19 347 128 
L 347 722 
Q 666 556 975 473 
Q 1284 391 1588 391 
Q 1994 391 2212 530 
Q 2431 669 2431 922 
Q 2431 1156 2273 1281 
Q 2116 1406 1581 1522 
L 1381 1569 
Q 847 1681 609 1914 
Q 372 2147 372 2553 
Q 372 3047 722 3315 
Q 1072 3584 1716 3584 
Q 2034 3584 2315 3537 
Q 2597 3491 2834 3397 
z
" id="DejaVuSans-73" transform="scale(0.015625)"/>
       <path d="M 513 4856 
L 1013 4856 
Q 1481 4119 1714 3412 
Q 1947 2706 1947 2009 
Q 1947 1309 1714 600 
Q 1481 -109 1013 -844 
L 513 -844 
Q 928 -128 1133 580 
Q 1338 1288 1338 2009 
Q 1338 2731 1133 3434 
Q 928 4138 513 4856 
z
" id="DejaVuSans-29" transform="scale(0.015625)"/>
      </defs>
      <use xlink:href="#DejaVuSans-54"/>
      <use x="57.958984" xlink:href="#DejaVuSans-69"/>
      <use x="85.742188" xlink:href="#DejaVuSans-6d"/>
      <use x="183.154297" xlink:href="#DejaVuSans-65"/>
      <use x="244.677734" xlink:href="#DejaVuSans-28"/>
      <use x="283.691406" xlink:href="#DejaVuSans-6d"/>
      <use x="381.103516" xlink:href="#DejaVuSans-73"/>
      <use x="433.203125" xlink:href="#DejaVuSans-29"/>
     </g>
    </g>
   </g>
   <g id="matplotlib.axis_2">
    <g id="ytick_1">
     <g id="line2d_8">
      <defs>
       <path d="M 0 0 
L -3.5 0 
" id="mda7528bed6" style="stroke:#000000;stroke-width:0.8;"/>
      </defs>
      <g>
       <use style="stroke:#000000;stroke-width:0.8;" x="54" xlink:href="#mda7528bed6" y="237.504"/>
      </g>
     </g>
     <g id="text_9">
      <!-- -100 -->
      <g transform="translate(19.765625 242.063063)scale(0.12 -0.12)">
       <defs>
        <path d="M 313 2009 
L 1997 2009 
L 1997 1497 
L 313 1497 
L 313 2009 
z
" id="DejaVuSans-2d" transform="scale(0.015625)"/>
       </defs>
       <use xlink:href="#DejaVuSans-2d"/>
       <use x="36.083984" xlink:href="#DejaVuSans-31"/>
       <use x="99.707031" xlink:href="#DejaVuSans-30"/>
       <use x="163.330078" xlink:href="#DejaVuSans-30"/>
      </g>
     </g>
    </g>
    <g id="ytick_2">
     <g id="line2d_9">
      <g>
       <use style="stroke:#000000;stroke-width:0.8;" x="54" xlink:href="#mda7528bed6" y="208.512"/>
      </g>
     </g>
     <g id="text_10">
      <!-- -80 -->
      <g transform="translate(27.400625 213.071062)scale(0.12 -0.12)">
       <defs>
        <path d="M 2034 2216 
Q 1584 2216 1326 1975 
Q 1069 1734 1069 1313 
Q 1069 891 1326 650 
Q 1584 409 2034 409 
Q 2484 409 2743 651 
Q 3003 894 3003 1313 
Q 3003 1734 2745 1975 
Q 2488 2216 2034 2216 
z
M 1403 2484 
Q 997 2584 770 2862 
Q 544 3141 544 3541 
Q 544 4100 942 4425 
Q 1341 4750 2034 4750 
Q 2731 4750 3128 4425 
Q 3525 4100 3525 3541 
Q 3525 3141 3298 2862 
Q 3072 2584 2669 2484 
Q 3125 2378 3379 2068 
Q 3634 1759 3634 1313 
Q 3634 634 3220 271 
Q 2806 -91 2034 -91 
Q 1263 -91 848 271 
Q 434 634 434 1313 
Q 434 1759 690 2068 
Q 947 2378 1403 2484 
z
M 1172 3481 
Q 1172 3119 1398 2916 
Q 1625 2713 2034 2713 
Q 2441 2713 2670 2916 
Q 2900 3119 2900 3481 
Q 2900 3844 2670 4047 
Q 2441 4250 2034 4250 
Q 1625 4250 1398 4047 
Q 1172 3844 1172 3481 
z
" id="DejaVuSans-38" transform="scale(0.015625)"/>
       </defs>
       <use xlink:href="#DejaVuSans-2d"/>
       <use x="36.083984" xlink:href="#DejaVuSans-38"/>
       <use x="99.707031" xlink:href="#DejaVuSans-30"/>
      </g>
     </g>
    </g>
    <g id="ytick_3">
     <g id="line2d_10">
      <g>
       <use style="stroke:#000000;stroke-width:0.8;" x="54" xlink:href="#mda7528bed6" y="179.52"/>
      </g>
     </g>
     <g id="text_11">
      <!-- -60 -->
      <g transform="translate(27.400625 184.079062)scale(0.12 -0.12)">
       <defs>
        <path d="M 2113 2584 
Q 1688 2584 1439 2293 
Q 1191 2003 1191 1497 
Q 1191 994 1439 701 
Q 1688 409 2113 409 
Q 2538 409 2786 701 
Q 3034 994 3034 1497 
Q 3034 2003 2786 2293 
Q 2538 2584 2113 2584 
z
M 3366 4563 
L 3366 3988 
Q 3128 4100 2886 4159 
Q 2644 4219 2406 4219 
Q 1781 4219 1451 3797 
Q 1122 3375 1075 2522 
Q 1259 2794 1537 2939 
Q 1816 3084 2150 3084 
Q 2853 3084 3261 2657 
Q 3669 2231 3669 1497 
Q 3669 778 3244 343 
Q 2819 -91 2113 -91 
Q 1303 -91 875 529 
Q 447 1150 447 2328 
Q 447 3434 972 4092 
Q 1497 4750 2381 4750 
Q 2619 4750 2861 4703 
Q 3103 4656 3366 4563 
z
" id="DejaVuSans-36" transform="scale(0.015625)"/>
       </defs>
       <use xlink:href="#DejaVuSans-2d"/>
       <use x="36.083984" xlink:href="#DejaVuSans-36"/>
       <use x="99.707031" xlink:href="#DejaVuSans-30"/>
      </g>
     </g>
    </g>
    <g id="ytick_4">
     <g id="line2d_11">
      <g>
       <use style="stroke:#000000;stroke-width:0.8;" x="54" xlink:href="#mda7528bed6" y="150.528"/>
      </g>
     </g>
     <g id="text_12">
      <!-- -40 -->
      <g transform="translate(27.400625 155.087063)scale(0.12 -0.12)">
       <defs>
        <path d="M 2419 4116 
L 825 1625 
L 2419 1625 
L 2419 4116 
z
M 2253 4666 
L 3047 4666 
L 3047 1625 
L 3713 1625 
L 3713 1100 
L 3047 1100 
L 3047 0 
L 2419 0 
L 2419 1100 
L 313 1100 
L 313 1709 
L 2253 4666 
z
" id="DejaVuSans-34" transform="scale(0.015625)"/>
       </defs>
       <use xlink:href="#DejaVuSans-2d"/>
       <use x="36.083984" xlink:href="#DejaVuSans-34"/>
       <use x="99.707031" xlink:href="#DejaVuSans-30"/>
      </g>
     </g>
    </g>
    <g id="ytick_5">
     <g id="line2d_12">
      <g>
       <use style="stroke:#000000;stroke-width:0.8;" x="54" xlink:href="#mda7528bed6" y="121.536"/>
      </g>
     </g>
     <g id="text_13">
      <!-- -20 -->
      <g transform="translate(27.400625 126.095062)scale(0.12 -0.12)">
       <use xlink:href="#DejaVuSans-2d"/>
       <use x="36.083984" xlink:href="#DejaVuSans-32"/>
       <use x="99.707031" xlink:href="#DejaVuSans-30"/>
      </g>
     </g>
    </g>
    <g id="ytick_6">
     <g id="line2d_13">
      <g>
       <use style="stroke:#000000;stroke-width:0.8;" x="54" xlink:href="#mda7528bed6" y="92.544"/>
      </g>
     </g>
     <g id="text_14">
      <!-- 0 -->
      <g transform="translate(39.365 97.103062)scale(0.12 -0.12)">
       <use xlink:href="#DejaVuSans-30"/>
      </g>
     </g>
    </g>
    <g id="ytick_7">
     <g id="line2d_14">
      <g>
       <use style="stroke:#000000;stroke-width:0.8;" x="54" xlink:href="#mda7528bed6" y="63.552"/>
      </g>
     </g>
     <g id="text_15">
      <!-- 20 -->
      <g transform="translate(31.73 68.111063)scale(0.12 -0.12)">
       <use xlink:href="#DejaVuSans-32"/>
       <use x="63.623047" xlink:href="#DejaVuSans-30"/>
      </g>
     </g>
    </g>
    <g id="ytick_8">
     <g id="line2d_15">
      <g>
       <use style="stroke:#000000;stroke-width:0.8;" x="54" xlink:href="#mda7528bed6" y="34.56"/>
      </g>
     </g>
     <g id="text_16">
      <!-- 40 -->
      <g transform="translate(31.73 39.119062)scale(0.12 -0.12)">
       <use xlink:href="#DejaVuSans-34"/>
       <use x="63.623047" xlink:href="#DejaVuSans-30"/>
      </g>
     </g>
    </g>
    <g id="text_17">
     <!-- Membrane potential (mV) -->
     <g transform="translate(13.27 220.574062)rotate(-90)scale(0.12 -0.12)">
      <defs>
       <path d="M 628 4666 
L 1569 4666 
L 2759 1491 
L 3956 4666 
L 4897 4666 
L 4897 0 
L 4281 0 
L 4281 4097 
L 3078 897 
L 2444 897 
L 1241 4097 
L 1241 0 
L 628 0 
L 628 4666 
z
" id="DejaVuSans-4d" transform="scale(0.015625)"/>
       <path d="M 3116 1747 
Q 3116 2381 2855 2742 
Q 2594 3103 2138 3103 
Q 1681 3103 1420 2742 
Q 1159 2381 1159 1747 
Q 1159 1113 1420 752 
Q 1681 391 2138 391 
Q 2594 391 2855 752 
Q 3116 1113 3116 1747 
z
M 1159 2969 
Q 1341 3281 1617 3432 
Q 1894 3584 2278 3584 
Q 2916 3584 3314 3078 
Q 3713 2572 3713 1747 
Q 3713 922 3314 415 
Q 2916 -91 2278 -91 
Q 1894 -91 1617 61 
Q 1341 213 1159 525 
L 1159 0 
L 581 0 
L 581 4863 
L 1159 4863 
L 1159 2969 
z
" id="DejaVuSans-62" transform="scale(0.015625)"/>
       <path d="M 2631 2963 
Q 2534 3019 2420 3045 
Q 2306 3072 2169 3072 
Q 1681 3072 1420 2755 
Q 1159 2438 1159 1844 
L 1159 0 
L 581 0 
L 581 3500 
L 1159 3500 
L 1159 2956 
Q 1341 3275 1631 3429 
Q 1922 3584 2338 3584 
Q 2397 3584 2469 3576 
Q 2541 3569 2628 3553 
L 2631 2963 
z
" id="DejaVuSans-72" transform="scale(0.015625)"/>
       <path d="M 2194 1759 
Q 1497 1759 1228 1600 
Q 959 1441 959 1056 
Q 959 750 1161 570 
Q 1363 391 1709 391 
Q 2188 391 2477 730 
Q 2766 1069 2766 1631 
L 2766 1759 
L 2194 1759 
z
M 3341 1997 
L 3341 0 
L 2766 0 
L 2766 531 
Q 2569 213 2275 61 
Q 1981 -91 1556 -91 
Q 1019 -91 701 211 
Q 384 513 384 1019 
Q 384 1609 779 1909 
Q 1175 2209 1959 2209 
L 2766 2209 
L 2766 2266 
Q 2766 2663 2505 2880 
Q 2244 3097 1772 3097 
Q 1472 3097 1187 3025 
Q 903 2953 641 2809 
L 641 3341 
Q 956 3463 1253 3523 
Q 1550 3584 1831 3584 
Q 2591 3584 2966 3190 
Q 3341 2797 3341 1997 
z
" id="DejaVuSans-61" transform="scale(0.015625)"/>
       <path d="M 3513 2113 
L 3513 0 
L 2938 0 
L 2938 2094 
Q 2938 2591 2744 2837 
Q 2550 3084 2163 3084 
Q 1697 3084 1428 2787 
Q 1159 2491 1159 1978 
L 1159 0 
L 581 0 
L 581 3500 
L 1159 3500 
L 1159 2956 
Q 1366 3272 1645 3428 
Q 1925 3584 2291 3584 
Q 2894 3584 3203 3211 
Q 3513 2838 3513 2113 
z
" id="DejaVuSans-6e" transform="scale(0.015625)"/>
       <path id="DejaVuSans-20" transform="scale(0.015625)"/>
       <path d="M 1159 525 
L 1159 -1331 
L 581 -1331 
L 581 3500 
L 1159 3500 
L 1159 2969 
Q 1341 3281 1617 3432 
Q 1894 3584 2278 3584 
Q 2916 3584 3314 3078 
Q 3713 2572 3713 1747 
Q 3713 922 3314 415 
Q 2916 -91 2278 -91 
Q 1894 -91 1617 61 
Q 1341 213 1159 525 
z
M 3116 1747 
Q 3116 2381 2855 2742 
Q 2594 3103 2138 3103 
Q 1681 3103 1420 2742 
Q 1159 2381 1159 1747 
Q 1159 1113 1420 752 
Q 1681 391 2138 391 
Q 2594 391 2855 752 
Q 3116 1113 3116 1747 
z
" id="DejaVuSans-70" transform="scale(0.015625)"/>
       <path d="M 1959 3097 
Q 1497 3097 1228 2736 
Q 959 2375 959 1747 
Q 959 1119 1226 758 
Q 1494 397 1959 397 
Q 2419 397 2687 759 
Q 2956 1122 2956 1747 
Q 2956 2369 2687 2733 
Q 2419 3097 1959 3097 
z
M 1959 3584 
Q 2709 3584 3137 3096 
Q 3566 2609 3566 1747 
Q 3566 888 3137 398 
Q 2709 -91 1959 -91 
Q 1206 -91 779 398 
Q 353 888 353 1747 
Q 353 2609 779 3096 
Q 1206 3584 1959 3584 
z
" id="DejaVuSans-6f" transform="scale(0.015625)"/>
       <path d="M 1172 4494 
L 1172 3500 
L 2356 3500 
L 2356 3053 
L 1172 3053 
L 1172 1153 
Q 1172 725 1289 603 
Q 1406 481 1766 481 
L 2356 481 
L 2356 0 
L 1766 0 
Q 1100 0 847 248 
Q 594 497 594 1153 
L 594 3053 
L 172 3053 
L 172 3500 
L 594 3500 
L 594 4494 
L 1172 4494 
z
" id="DejaVuSans-74" transform="scale(0.015625)"/>
       <path d="M 603 4863 
L 1178 4863 
L 1178 0 
L 603 0 
L 603 4863 
z
" id="DejaVuSans-6c" transform="scale(0.015625)"/>
       <path d="M 1831 0 
L 50 4666 
L 709 4666 
L 2188 738 
L 3669 4666 
L 4325 4666 
L 2547 0 
L 1831 0 
z
" id="DejaVuSans-56" transform="scale(0.015625)"/>
      </defs>
      <use xlink:href="#DejaVuSans-4d"/>
      <use x="86.279297" xlink:href="#DejaVuSans-65"/>
      <use x="147.802734" xlink:href="#DejaVuSans-6d"/>
      <use x="245.214844" xlink:href="#DejaVuSans-62"/>
      <use x="308.691406" xlink:href="#DejaVuSans-72"/>
      <use x="349.804688" xlink:href="#DejaVuSans-61"/>
      <use x="411.083984" xlink:href="#DejaVuSans-6e"/>
      <use x="474.462891" xlink:href="#DejaVuSans-65"/>
      <use x="535.986328" xlink:href="#DejaVuSans-20"/>
      <use x="567.773438" xlink:href="#DejaVuSans-70"/>
      <use x="631.25" xlink:href="#DejaVuSans-6f"/>
      <use x="692.431641" xlink:href="#DejaVuSans-74"/>
      <use x="731.640625" xlink:href="#DejaVuSans-65"/>
      <use x="793.164062" xlink:href="#DejaVuSans-6e"/>
      <use x="856.542969" xlink:href="#DejaVuSans-74"/>
      <use x="895.751953" xlink:href="#DejaVuSans-69"/>
      <use x="923.535156" xlink:href="#DejaVuSans-61"/>
      <use x="984.814453" xlink:href="#DejaVuSans-6c"/>
      <use x="1012.597656" xlink:href="#DejaVuSans-20"/>
      <use x="1044.384766" xlink:href="#DejaVuSans-28"/>
      <use x="1083.398438" xlink:href="#DejaVuSans-6d"/>
      <use x="1180.810547" xlink:href="#DejaVuSans-56"/>
      <use x="1249.21875" xlink:href="#DejaVuSans-29"/>
     </g>
    </g>
   </g>
   <g id="line2d_16">
    <path clip-path="url(#p41ad3a90b8)" d="M 69.218182 225.638879 
L 69.42453 225.838199 
L 69.734052 226.543429 
L 70.043575 227.145738 
L 70.507858 227.884309 
L 70.662619 227.977229 
L 70.972142 227.843141 
L 71.281664 227.942583 
L 72.107057 225.157757 
L 72.158644 225.192112 
L 72.261818 225.244878 
L 72.416579 224.926401 
L 72.880863 223.876455 
L 73.035624 224.109696 
L 73.654669 225.874149 
L 73.757843 225.74325 
L 74.015778 225.569878 
L 74.273713 225.478263 
L 74.68641 225.789348 
L 74.944345 225.134128 
L 75.099106 225.209508 
L 75.253867 225.233426 
L 75.666564 225.117023 
L 75.872912 225.383894 
L 76.182435 225.796885 
L 76.44037 226.131888 
L 76.95624 227.359264 
L 77.265763 227.871988 
L 77.420524 227.658752 
L 77.678459 226.900756 
L 78.039569 225.454925 
L 78.19433 224.596327 
L 78.503852 223.191084 
L 79.019723 222.273053 
L 79.07131 222.325093 
L 79.277658 222.829844 
L 79.690354 223.901823 
L 79.896703 223.866163 
L 80.567334 222.21101 
L 80.773683 221.8302 
L 80.980031 221.88369 
L 81.083205 221.841507 
L 81.753837 219.894984 
L 81.857011 219.887881 
L 82.011772 219.793222 
L 82.166533 220.107495 
L 82.682404 221.779319 
L 82.733991 221.763518 
L 82.991926 221.381839 
L 83.0951 221.361834 
L 83.404622 221.055389 
L 83.45621 221.058433 
L 83.610971 220.240569 
L 83.920493 219.081179 
L 84.126841 219.07741 
L 84.436364 219.253391 
L 84.642712 219.51055 
L 85.003821 218.926361 
L 85.261757 219.040735 
L 85.468105 218.752264 
L 85.622866 218.636006 
L 85.777627 218.903313 
L 86.138737 219.973552 
L 86.190324 219.888751 
L 86.654607 217.879605 
L 86.809368 217.816258 
L 86.964129 218.071242 
L 87.222065 218.500324 
L 87.376826 218.623105 
L 87.583174 219.183665 
L 88.150632 221.017989 
L 88.253806 221.060897 
L 88.718089 219.838884 
L 89.079199 219.816851 
L 89.698243 220.753582 
L 90.11094 222.075472 
L 90.368875 222.110988 
L 90.575223 221.929208 
L 90.781572 222.194629 
L 91.091094 222.358579 
L 91.194268 222.17622 
L 91.606965 220.552088 
L 91.968074 218.215043 
L 92.226009 217.71841 
L 92.432357 217.58954 
L 92.690293 217.153066 
L 92.896641 216.840097 
L 93.051402 217.068844 
L 93.309337 218.080085 
L 93.61886 219.120463 
L 94.237904 220.106916 
L 95.218059 222.200863 
L 95.37282 222.188831 
L 95.630755 222.108958 
L 95.837103 222.413664 
L 96.198213 223.186881 
L 96.2498 223.132811 
L 96.662496 222.389746 
L 97.075193 220.263182 
L 97.333128 219.649132 
L 97.539476 219.597091 
L 97.694237 219.610138 
L 97.848998 219.618545 
L 98.055347 220.009792 
L 98.468043 221.509404 
L 98.571217 221.32371 
L 99.138675 219.104082 
L 99.190262 219.120753 
L 99.345023 219.416036 
L 99.602958 219.94601 
L 99.654545 219.9808 
L 99.75772 219.651306 
L 100.27359 217.279761 
L 100.428351 217.544748 
L 100.841048 218.619046 
L 101.047396 218.472347 
L 101.202157 218.835906 
L 101.563267 220.552957 
L 102.285485 224.36613 
L 102.337072 224.347285 
L 102.749769 222.981617 
L 103.214052 220.494684 
L 103.368814 220.545999 
L 103.471988 220.705165 
L 103.523575 220.628337 
L 103.78151 219.977901 
L 103.884684 220.035015 
L 104.091032 220.558611 
L 104.606903 222.856662 
L 105.122773 224.858124 
L 105.638644 225.542046 
L 105.793405 225.278798 
L 106.360863 223.645244 
L 106.515624 223.832532 
L 106.773559 224.214212 
L 107.186256 224.026779 
L 107.341017 223.527392 
L 107.753713 221.722495 
L 107.908475 221.43127 
L 108.16641 221.041618 
L 108.527519 221.143814 
L 109.352912 219.595497 
L 109.868783 216.88228 
L 110.023544 216.870394 
L 110.229892 217.058262 
L 110.539414 216.427976 
L 110.694176 216.731812 
L 111.519569 219.423284 
L 111.622743 219.312245 
L 111.880678 218.833152 
L 111.983852 218.884468 
L 112.293374 219.475905 
L 112.344961 219.368054 
L 112.55131 219.205844 
L 112.706071 219.317173 
L 113.170354 220.109815 
L 113.583051 220.957686 
L 113.634638 220.953917 
L 114.30527 219.019281 
L 114.563205 219.055666 
L 114.769553 219.45503 
L 115.388598 221.531148 
L 115.491772 221.444751 
L 115.646533 221.522015 
L 115.852881 222.048365 
L 116.162404 223.218337 
L 116.213991 223.178908 
L 116.781448 220.458733 
L 116.987797 218.780097 
L 117.45208 216.388981 
L 117.967951 215.837699 
L 118.32906 216.191691 
L 118.380647 216.08529 
L 118.638582 215.45109 
L 118.793344 215.403978 
L 118.999692 215.550678 
L 119.515562 216.770226 
L 119.979846 219.53041 
L 120.392542 221.43243 
L 120.856826 222.455847 
L 120.96 222.305669 
L 121.063174 222.136935 
L 121.630632 220.39814 
L 122.094915 219.701172 
L 122.559199 219.544326 
L 122.765547 220.082707 
L 122.971895 220.758221 
L 123.023482 220.709514 
L 123.229831 220.478158 
L 123.384592 220.645587 
L 123.487766 220.731403 
L 124.055223 219.271221 
L 124.209985 219.404149 
L 124.46792 220.097058 
L 124.519507 220.023564 
L 124.674268 219.313984 
L 125.138552 215.429201 
L 125.499661 214.344756 
L 125.551248 214.372153 
L 125.86077 214.733683 
L 126.170293 215.120002 
L 126.428228 215.662297 
L 126.73775 217.188726 
L 127.047273 218.364786 
L 127.408382 219.551719 
L 127.717904 219.811777 
L 128.079014 220.618044 
L 128.130601 220.551508 
L 128.233775 220.323776 
L 128.749646 217.709712 
L 128.955994 217.791035 
L 129.110755 217.525613 
L 129.471864 216.644981 
L 129.575039 216.731812 
L 129.781387 216.93664 
L 129.884561 217.015933 
L 130.090909 217.654192 
L 130.709954 219.972538 
L 131.174237 221.187737 
L 131.793282 223.221671 
L 131.844869 223.291687 
L 132.567088 221.770187 
L 132.670262 221.817154 
L 132.979784 222.158244 
L 133.031371 222.155925 
L 133.702003 220.752567 
L 133.856764 220.774021 
L 134.063112 221.187882 
L 134.1147 221.128449 
L 134.372635 220.823453 
L 134.682157 220.857373 
L 135.043267 221.442577 
L 135.146441 221.347483 
L 135.301202 221.211076 
L 135.50755 220.878393 
L 135.662311 221.024657 
L 135.920247 221.775405 
L 136.178182 222.429465 
L 136.436117 222.938564 
L 137.055162 224.40411 
L 137.209923 224.378017 
L 137.364684 224.200731 
L 137.674206 223.799482 
L 137.983729 223.821371 
L 138.190077 223.123533 
L 138.448012 222.39366 
L 138.602773 222.404966 
L 139.324992 223.404466 
L 139.840863 225.082812 
L 140.253559 226.199874 
L 140.563082 226.334687 
L 140.872604 225.077014 
L 141.130539 224.02446 
L 141.336888 223.640026 
L 141.543236 223.11701 
L 141.904345 222.908992 
L 142.420216 223.706562 
L 142.781325 224.503697 
L 142.832912 224.363521 
L 143.03926 223.097875 
L 143.297196 221.985307 
L 143.451957 221.99154 
L 143.658305 222.447295 
L 144.019414 223.253417 
L 144.225763 223.584071 
L 144.380524 223.716999 
L 144.741633 223.444909 
L 144.947982 223.762517 
L 145.102743 223.921103 
L 145.309091 223.893706 
L 145.515439 223.94879 
L 145.721787 223.994598 
L 145.979723 224.467022 
L 146.54718 225.660478 
L 146.856703 225.901257 
L 147.063051 225.439414 
L 148.352727 222.149402 
L 148.817011 222.338285 
L 149.126533 222.841876 
L 149.229707 222.530792 
L 149.797165 219.340367 
L 149.951926 218.759077 
L 150.209861 217.719424 
L 150.313035 217.705363 
L 150.519384 217.805386 
L 150.622558 217.88004 
L 150.828906 218.544827 
L 151.035254 218.933029 
L 151.138428 218.916649 
L 151.344777 218.719938 
L 151.705886 218.968835 
L 151.963821 218.829818 
L 152.118582 219.141627 
L 152.789214 221.617834 
L 152.943975 221.475483 
L 153.047149 221.55869 
L 153.253498 222.144183 
L 153.924129 224.847832 
L 154.027304 224.814636 
L 154.182065 224.908281 
L 154.388413 225.16428 
L 154.44 225.09354 
L 154.955871 224.009964 
L 155.162219 224.22175 
L 155.31698 224.4015 
L 155.729676 223.776143 
L 155.781263 223.815862 
L 155.987612 223.857611 
L 156.090786 223.792234 
L 156.245547 223.321548 
L 157.225701 217.631434 
L 157.380462 217.487778 
L 157.535223 217.720874 
L 157.896333 218.69428 
L 158.309029 220.648486 
L 158.8249 223.105268 
L 159.237596 222.490493 
L 159.289183 222.542533 
L 159.547119 223.119329 
L 159.908228 223.971114 
L 160.21775 223.938933 
L 160.475686 224.315684 
L 161.043143 225.800509 
L 161.301079 226.303521 
L 161.816949 226.668965 
L 162.487581 227.726158 
L 162.745516 227.97317 
L 162.84869 227.723114 
L 163.364561 225.113254 
L 163.777257 222.934505 
L 164.447889 221.043067 
L 164.499476 221.074089 
L 164.654237 220.881002 
L 164.860586 220.657908 
L 165.015347 220.804608 
L 165.273282 221.551152 
L 165.685978 223.125708 
L 165.737565 222.930012 
L 166.253436 221.084091 
L 166.35661 221.122215 
L 166.562958 221.642187 
L 166.975655 222.800127 
L 167.130416 222.637917 
L 167.388351 222.33582 
L 167.439938 222.365102 
L 167.543112 221.66857 
L 167.801048 217.207281 
L 168.265331 207.404361 
L 168.523267 205.41319 
L 168.729615 204.812331 
L 169.039137 203.895459 
L 169.503421 202.934954 
L 169.761356 203.140797 
L 169.916117 203.045413 
L 170.225639 203.687296 
L 170.277227 203.609163 
L 170.431988 203.05846 
L 170.896271 200.588196 
L 171.308968 198.806928 
L 171.928012 193.993676 
L 172.753405 186.574913 
L 173.733559 176.030378 
L 174.094669 174.532506 
L 174.301017 172.861842 
L 174.507365 168.452449 
L 174.662126 161.279538 
L 174.7653 142.047985 
L 174.816888 41.945277 
L 174.868475 97.299268 
L 175.023236 184.482706 
L 175.177997 194.947658 
L 175.229584 194.783128 
L 175.487519 191.016923 
L 176.51926 172.25533 
L 176.725609 162.168868 
L 176.777196 156.277693 
L 176.828783 135.592626 
L 176.88037 41.238887 
L 176.931957 104.028021 
L 177.086718 187.153594 
L 177.189892 194.56018 
L 177.241479 194.176616 
L 178.015285 176.451487 
L 178.221633 168.485355 
L 178.324807 160.872925 
L 178.376394 151.724065 
L 178.427982 45.032055 
L 178.479569 61.415869 
L 178.63433 182.031432 
L 178.789091 196.160248 
L 178.995439 192.624094 
L 179.356549 182.716513 
L 179.769245 165.89405 
L 179.872419 154.210274 
L 179.975593 51.718625 
L 180.181941 191.898569 
L 180.336703 198.690235 
L 180.491464 197.143512 
L 180.90416 189.88406 
L 181.26527 179.500575 
L 181.523205 165.6237 
L 181.574792 159.378098 
L 181.626379 137.814863 
L 181.677966 34.736851 
L 181.729553 92.67084 
L 181.884314 193.098983 
L 181.987488 201.919074 
L 182.039076 201.313866 
L 182.503359 188.368503 
L 183.173991 164.706248 
L 183.277165 151.39718 
L 183.328752 49.650336 
L 183.380339 66.347264 
L 183.5351 184.870619 
L 183.689861 198.513819 
L 183.844622 195.737545 
L 184.257319 182.967729 
L 184.618428 168.192101 
L 184.721602 158.448614 
L 184.77319 138.375713 
L 184.824777 36.214428 
L 184.876364 94.901629 
L 185.031125 190.676267 
L 185.134299 198.605434 
L 185.185886 197.777712 
L 185.753344 178.746059 
L 185.959692 164.585931 
L 186.011279 156.07272 
L 186.114453 46.459187 
L 186.320801 195.429505 
L 186.423975 200.100116 
L 187.094607 182.505451 
L 187.352542 171.489071 
L 187.455716 162.887 
L 187.507304 152.615424 
L 187.558891 31.622531 
L 187.610478 59.848707 
L 187.765239 185.954484 
L 187.868413 199.271235 
L 187.92 198.769383 
L 188.693806 174.819817 
L 188.900154 162.521411 
L 188.951741 154.413073 
L 189.054915 52.528807 
L 189.261263 194.003678 
L 189.364438 198.385674 
L 189.67396 189.603418 
L 190.189831 171.684477 
L 190.344592 158.540374 
L 190.396179 135.01641 
L 190.447766 36.338804 
L 190.499353 95.667598 
L 190.654114 190.715261 
L 190.757288 198.180266 
L 190.808875 197.266438 
L 191.737442 168.356051 
L 191.840616 159.474786 
L 191.892203 145.427003 
L 191.94379 33.094744 
L 191.995378 81.98178 
L 192.150139 187.425394 
L 192.253313 197.25861 
L 192.3049 196.761977 
L 192.975532 178.137951 
L 193.233467 166.526365 
L 193.336641 151.881781 
L 193.388228 36.048594 
L 193.439815 61.784213 
L 193.594576 183.972881 
L 193.69775 197.187 
L 193.749337 197.180912 
L 194.213621 185.687033 
L 194.523143 174.230844 
L 194.677904 163.634558 
L 194.729492 155.2392 
L 194.832666 49.144426 
L 195.039014 194.274609 
L 195.142188 198.98146 
L 195.400123 191.286983 
L 195.915994 171.271341 
L 196.070755 155.236156 
L 196.173929 49.239374 
L 196.380277 194.933597 
L 196.483451 200.05025 
L 196.535039 199.031616 
L 197.360431 174.688048 
L 197.515193 164.235708 
L 197.56678 156.334953 
L 197.669954 45.873693 
L 197.876302 194.884165 
L 197.979476 200.489189 
L 198.031063 199.802803 
L 198.753282 183.801973 
L 199.062804 169.660111 
L 199.165978 160.103333 
L 199.217565 143.490482 
L 199.269153 32.40488 
L 199.32074 85.426029 
L 199.475501 191.737809 
L 199.578675 201.242111 
L 199.630262 200.68445 
L 200.19772 186.031023 
L 200.558829 172.893154 
L 200.71359 162.176551 
L 200.765177 152.831269 
L 200.816764 38.942286 
L 200.868351 60.599745 
L 201.023112 186.006815 
L 201.126287 199.88601 
L 201.177874 199.821358 
L 201.745331 187.157508 
L 202.158028 171.580686 
L 202.312789 158.005907 
L 202.364376 130.23273 
L 202.415963 38.942431 
L 202.46755 102.769913 
L 202.622311 193.429492 
L 202.725485 200.489189 
L 202.777072 199.736991 
L 203.654052 175.980802 
L 203.860401 164.978048 
L 203.963575 142.914701 
L 204.015162 33.987408 
L 204.066749 88.653419 
L 204.22151 190.595959 
L 204.324684 199.61392 
L 204.376271 199.114533 
L 204.737381 189.256673 
L 205.150077 173.386018 
L 205.304838 160.590398 
L 205.356425 144.233982 
L 205.408012 31.120389 
L 205.459599 81.422089 
L 205.614361 190.788176 
L 205.717535 201.027425 
L 205.769122 200.491943 
L 206.594515 179.457667 
L 206.85245 168.742079 
L 206.955624 159.137899 
L 207.007211 140.809447 
L 207.058798 34.84992 
L 207.110385 91.759042 
L 207.265146 190.951836 
L 207.36832 199.219194 
L 207.419908 198.514834 
L 208.090539 180.190295 
L 208.348475 167.418884 
L 208.451649 151.922805 
L 208.503236 31.308837 
L 208.554823 62.331872 
L 208.709584 186.06016 
L 208.812758 198.49135 
L 208.864345 197.752489 
L 209.380216 177.336757 
L 209.586564 165.443804 
L 209.638151 159.164282 
L 209.689738 136.90031 
L 209.741325 34.43461 
L 209.792912 91.050187 
L 209.947673 190.339814 
L 210.050847 198.082998 
L 210.102435 196.995363 
L 210.87624 169.116511 
L 210.979414 160.724196 
L 211.031002 149.258875 
L 211.082589 32.088287 
L 211.134176 70.530664 
L 211.288937 185.588605 
L 211.392111 197.513885 
L 211.443698 197.487357 
L 211.75322 190.249069 
L 212.269091 174.540624 
L 212.475439 162.907294 
L 212.527026 155.572318 
L 212.6302 46.905953 
L 212.836549 192.038746 
L 212.939723 197.596222 
L 212.99131 196.799957 
L 213.352419 185.206346 
L 213.765116 168.32329 
L 213.86829 159.015843 
L 213.919877 141.946078 
L 213.971464 33.85187 
L 214.023051 87.566364 
L 214.177812 188.444317 
L 214.280986 197.734369 
L 214.332573 197.521858 
L 215.106379 184.234824 
L 215.467488 168.714392 
L 215.570663 158.409765 
L 215.62225 133.116854 
L 215.673837 37.192039 
L 215.725424 98.645511 
L 215.880185 192.246328 
L 215.983359 199.782364 
L 216.034946 198.967834 
L 216.550817 182.354403 
L 216.911926 164.862804 
L 216.963513 158.514716 
L 217.0151 134.50818 
L 217.066687 36.53334 
L 217.118274 96.870766 
L 217.273035 191.517904 
L 217.37621 198.520922 
L 217.427797 197.373564 
L 217.943667 177.16527 
L 218.150015 161.830531 
L 218.201602 148.415498 
L 218.25319 28.486031 
L 218.304777 69.771219 
L 218.459538 187.557887 
L 218.562712 198.514834 
L 218.614299 197.597962 
L 219.130169 175.698564 
L 219.336518 159.946196 
L 219.388105 141.664421 
L 219.439692 31.952025 
L 219.491279 83.680276 
L 219.64604 189.259862 
L 219.749214 198.599925 
L 219.800801 198.096624 
L 220.935716 172.953747 
L 221.142065 160.949899 
L 221.193652 151.827856 
L 221.245239 45.68597 
L 221.296826 63.393994 
L 221.451587 183.755296 
L 221.606348 197.465178 
L 222.122219 191.815942 
L 222.534915 182.463413 
L 222.947612 169.080706 
L 223.102373 157.289949 
L 223.15396 139.32984 
L 223.205547 38.882417 
L 223.257134 99.783447 
L 223.411895 189.875652 
L 223.566656 198.957686 
L 224.443636 195.099866 
L 225.7849 184.24903 
L 226.403945 181.956488 
L 227.074576 180.282345 
L 227.17775 179.933571 
L 227.384099 177.965594 
L 227.745208 172.284756 
L 228.003143 163.33971 
L 228.106317 152.730087 
L 228.209492 54.65595 
L 228.364253 177.008133 
L 228.519014 195.177275 
L 228.622188 195.798138 
L 228.673775 195.709858 
L 228.880123 195.049275 
L 229.653929 191.041856 
L 229.80869 190.339669 
L 230.1698 188.784828 
L 230.427735 188.215426 
L 230.892018 187.930579 
L 231.04678 187.106192 
L 231.459476 184.663471 
L 231.614237 184.514452 
L 231.92376 184.703915 
L 232.181695 184.092183 
L 232.336456 183.345784 
L 232.955501 179.021917 
L 233.31661 178.057644 
L 233.574545 176.465403 
L 233.832481 174.034424 
L 234.19359 168.197899 
L 234.399938 160.987589 
L 234.503112 148.998962 
L 234.606287 69.073816 
L 234.761048 175.707407 
L 234.967396 193.327005 
L 235.122157 194.390432 
L 235.380092 194.573081 
L 235.638028 194.536406 
L 235.844376 194.388982 
L 236.257072 193.538357 
L 236.772943 192.556543 
L 236.82453 192.60351 
L 237.288814 193.189438 
L 237.443575 193.149429 
L 237.856271 192.967939 
L 238.165794 193.125946 
L 238.320555 192.896909 
L 238.475316 192.101513 
L 239.042773 189.380904 
L 239.145948 189.477447 
L 239.352296 190.160064 
L 241.003082 196.829964 
L 242.808629 208.945575 
L 243.788783 211.406271 
L 243.943544 211.789111 
L 244.665763 214.498703 
L 244.71735 214.421439 
L 245.026872 213.828553 
L 245.697504 214.843418 
L 245.955439 215.424563 
L 246.316549 215.852919 
L 246.522897 216.411885 
L 246.884006 218.265924 
L 247.090354 219.313839 
L 247.141941 219.281948 
L 247.399877 219.13061 
L 247.554638 219.323117 
L 247.812573 220.102422 
L 248.483205 222.473822 
L 248.689553 222.484839 
L 248.895901 222.773455 
L 249.308598 223.925162 
L 249.514946 224.344096 
L 249.669707 224.163621 
L 249.927643 223.689747 
L 250.391926 221.794395 
L 250.598274 221.446636 
L 250.753035 221.41344 
L 251.165732 220.293044 
L 251.423667 220.538751 
L 251.526841 220.734737 
L 251.578428 220.704296 
L 251.939538 219.824388 
L 252.094299 219.565925 
L 252.455408 218.157493 
L 252.868105 217.071453 
L 253.074453 216.477117 
L 253.177627 216.560904 
L 253.383975 217.237287 
L 253.951433 219.391393 
L 254.209368 220.106336 
L 254.776826 222.491508 
L 254.88 222.416708 
L 255.292696 222.217533 
L 255.447458 222.214344 
L 255.653806 222.157665 
L 255.75698 222.109683 
L 255.911741 221.81208 
L 256.272851 221.099457 
L 256.427612 221.150772 
L 256.63396 221.604062 
L 256.891895 222.322339 
L 256.943482 222.283925 
L 257.201418 222.110408 
L 257.407766 222.386556 
L 257.51094 222.40888 
L 257.665701 221.878182 
L 258.233159 219.65725 
L 258.645855 218.609479 
L 258.90379 218.038046 
L 259.058552 218.229394 
L 259.316487 219.135249 
L 260.348228 223.569285 
L 260.65775 223.466653 
L 260.864099 223.777448 
L 260.915686 223.720333 
L 261.225208 222.819262 
L 261.53473 221.387347 
L 261.689492 221.237314 
L 261.844253 221.393001 
L 262.618059 222.717355 
L 262.77282 222.743883 
L 263.28869 222.513976 
L 263.546626 222.876376 
L 263.598213 222.837672 
L 263.856148 222.672418 
L 264.010909 222.681695 
L 264.16567 222.397139 
L 264.423606 221.443737 
L 264.681541 220.713718 
L 264.784715 220.732418 
L 264.991063 221.155266 
L 265.300586 221.809326 
L 265.506934 222.204197 
L 265.91963 223.656696 
L 266.383914 225.152683 
L 266.590262 225.365774 
L 267.106133 224.372508 
L 267.15772 224.40324 
L 267.518829 224.636916 
L 267.725177 224.668517 
L 267.983112 225.045848 
L 268.189461 225.275754 
L 268.498983 225.194577 
L 269.685485 222.576889 
L 269.840247 222.734171 
L 269.943421 222.80781 
L 269.995008 222.774035 
L 270.252943 222.315526 
L 270.923575 220.402199 
L 271.078336 220.672694 
L 271.491032 222.116931 
L 271.594206 221.996904 
L 271.903729 221.546948 
L 272.006903 221.436054 
L 272.368012 220.645732 
L 272.522773 220.568758 
L 272.677535 220.549188 
L 272.832296 220.792431 
L 273.244992 221.645811 
L 273.399753 221.832664 
L 273.709276 222.888698 
L 274.32832 225.104267 
L 274.483082 225.261258 
L 274.534669 225.215016 
L 274.792604 224.980761 
L 274.947365 225.087741 
L 275.2053 225.28938 
L 275.411649 225.295614 
L 275.56641 225.273145 
L 275.772758 224.943506 
L 276.030693 224.372798 
L 276.185455 224.468907 
L 276.494977 225.161961 
L 276.804499 225.9604 
L 276.856086 225.919812 
L 277.268783 225.317648 
L 277.578305 225.014826 
L 278.403698 222.207676 
L 278.506872 222.213764 
L 278.764807 222.587616 
L 278.816394 222.51905 
L 278.971156 222.19434 
L 279.229091 220.120542 
L 279.5902 218.000067 
L 279.848136 217.66318 
L 280.002897 217.827999 
L 280.106071 217.938604 
L 280.260832 217.870328 
L 280.415593 218.253312 
L 280.776703 220.121991 
L 281.034638 221.118012 
L 281.34416 221.362124 
L 281.756857 220.656169 
L 281.808444 220.686176 
L 282.633837 221.511723 
L 283.252881 221.003203 
L 283.613991 219.830332 
L 283.871926 219.952968 
L 284.078274 220.385239 
L 284.33621 220.893903 
L 284.594145 220.786488 
L 284.955254 221.420108 
L 285.006841 221.293703 
L 285.264777 220.21607 
L 285.522712 220.207808 
L 285.677473 220.377266 
L 286.244931 221.914132 
L 286.915562 223.970969 
L 286.967149 223.939658 
L 287.173498 223.671627 
L 287.431433 223.252258 
L 287.586194 223.348801 
L 287.844129 223.911971 
L 288.102065 224.362506 
L 288.256826 224.081429 
L 288.566348 222.884059 
L 288.721109 222.723733 
L 288.979045 222.42903 
L 289.185393 222.355825 
L 289.752851 219.813661 
L 289.804438 219.851931 
L 290.010786 220.320876 
L 290.217134 220.976531 
L 290.268721 220.930288 
L 290.681418 219.942676 
L 290.836179 219.981815 
L 291.042527 220.427712 
L 291.816333 222.721849 
L 292.022681 222.766787 
L 292.951248 223.615382 
L 293.415532 224.896539 
L 293.725054 225.511024 
L 293.879815 225.48986 
L 294.189337 224.896974 
L 294.705208 223.225585 
L 294.859969 223.255592 
L 295.066317 223.567401 
L 295.117904 223.471292 
L 295.427427 222.644875 
L 295.530601 222.652993 
L 295.788536 222.11983 
L 296.046471 222.490203 
L 296.304407 222.878841 
L 296.562342 223.550585 
L 296.613929 223.463609 
L 297.1298 222.607765 
L 297.284561 222.655602 
L 297.490909 223.020467 
L 297.542496 222.980023 
L 297.748844 222.116496 
L 298.00678 221.364009 
L 298.419476 221.082786 
L 298.574237 221.212815 
L 298.677411 221.009436 
L 298.832173 219.481413 
L 299.141695 216.733551 
L 299.296456 216.443341 
L 299.39963 216.543654 
L 300.018675 217.726817 
L 300.173436 217.748851 
L 300.328197 218.037032 
L 301.050416 220.553537 
L 301.617874 223.442735 
L 301.669461 223.380837 
L 301.875809 223.049459 
L 302.03057 223.174414 
L 302.288505 223.396493 
L 302.494854 223.205001 
L 302.649615 222.64618 
L 303.578182 218.084144 
L 304.145639 217.271063 
L 304.197227 217.31745 
L 304.351988 217.387031 
L 304.506749 217.576204 
L 304.764684 218.578457 
L 305.177381 220.208677 
L 305.486903 220.869405 
L 306.054361 222.286679 
L 306.931341 223.501879 
L 306.982928 223.427079 
L 307.395624 222.952045 
L 307.550385 223.094396 
L 307.859908 223.883124 
L 308.066256 224.299594 
L 308.272604 223.961112 
L 308.633713 223.255302 
L 308.788475 223.336914 
L 309.04641 223.845724 
L 309.92339 226.123625 
L 309.974977 226.103476 
L 310.43926 225.593652 
L 310.697196 225.887051 
L 311.213066 226.808706 
L 311.264653 226.766233 
L 311.574176 226.038099 
L 312.090046 224.465428 
L 312.244807 224.483403 
L 312.605917 224.791733 
L 312.709091 224.359027 
L 313.121787 221.156426 
L 313.689245 219.454451 
L 313.792419 219.497939 
L 314.669399 221.092209 
L 314.875747 221.507519 
L 315.494792 220.593111 
L 315.649553 220.746769 
L 316.113837 221.620588 
L 316.320185 221.509404 
L 316.526533 221.983133 
L 316.629707 222.240002 
L 316.681294 222.213474 
L 316.93923 221.550137 
L 318.228906 217.954549 
L 318.383667 218.230988 
L 319.002712 220.055165 
L 319.054299 219.985584 
L 319.363821 219.481558 
L 319.518582 219.72799 
L 319.724931 220.278548 
L 319.776518 220.238684 
L 320.137627 219.721322 
L 320.189214 219.757127 
L 320.395562 220.232886 
L 320.756672 221.128449 
L 321.582065 223.167601 
L 321.685239 223.088888 
L 321.891587 222.802302 
L 322.046348 222.910877 
L 322.304284 223.521738 
L 322.562219 224.32989 
L 322.613806 224.291476 
L 322.820154 224.217981 
L 323.026502 224.584005 
L 323.387612 225.477684 
L 323.439199 225.442168 
L 323.851895 224.333369 
L 324.058243 224.088967 
L 324.213005 224.224504 
L 324.419353 224.372943 
L 324.677288 224.010108 
L 325.244746 221.816429 
L 325.296333 221.835274 
L 325.502681 222.196369 
L 326.482835 224.610533 
L 326.586009 224.345546 
L 326.895532 222.71953 
L 327.050293 222.692857 
L 327.514576 223.091352 
L 327.669337 223.007565 
L 328.133621 221.115402 
L 328.391556 221.122215 
L 328.85584 219.042039 
L 329.010601 219.284412 
L 329.578059 220.658198 
L 330.145516 221.608701 
L 330.455039 222.321469 
L 330.6098 222.496001 
L 331.48678 224.310756 
L 331.847889 224.251177 
L 332.208998 223.330391 
L 332.415347 222.803316 
L 332.518521 222.649369 
L 333.085978 220.27159 
L 333.550262 218.164307 
L 333.75661 218.175034 
L 333.962958 218.293176 
L 334.11772 218.37015 
L 334.324068 218.941002 
L 334.582003 219.736833 
L 334.891525 219.645218 
L 335.046287 219.751474 
L 335.097874 219.797136 
L 335.149461 219.734078 
L 335.562157 218.646878 
L 335.716918 218.892151 
L 336.026441 220.138372 
L 336.697072 223.049604 
L 336.800247 223.005971 
L 336.955008 222.925518 
L 337.212943 223.003796 
L 337.419291 222.386991 
L 337.625639 222.052134 
L 337.780401 221.946023 
L 338.089923 221.092788 
L 338.244684 221.301531 
L 338.554206 222.359884 
L 338.708968 222.895366 
L 338.863729 222.131572 
L 339.224838 219.931514 
L 339.379599 219.903827 
L 339.585948 220.428002 
L 339.998644 221.598989 
L 340.101818 221.413875 
L 340.617689 219.776987 
L 340.927211 219.861208 
L 341.185146 219.293545 
L 341.339908 219.627388 
L 341.701017 221.302111 
L 342.062126 222.703729 
L 342.52641 224.230883 
L 343.40339 227.08442 
L 343.764499 227.744278 
L 343.867673 227.453488 
L 344.589892 222.26566 
L 344.951002 219.783365 
L 345.208937 219.290066 
L 345.570046 218.238381 
L 346.03433 216.183283 
L 346.085917 216.196475 
L 346.240678 216.579024 
L 346.5502 218.222001 
L 346.962897 220.164755 
L 347.220832 221.008132 
L 347.685116 221.767287 
L 348.149399 223.021626 
L 348.820031 223.386201 
L 349.026379 222.793459 
L 349.335901 221.953126 
L 349.490663 222.00995 
L 349.593837 221.971101 
L 350.573991 218.889976 
L 351.141448 216.392171 
L 351.244622 216.453199 
L 351.450971 217.082035 
L 351.657319 217.594034 
L 352.276364 218.339563 
L 352.68906 219.563026 
L 352.998582 220.285361 
L 353.153344 220.343345 
L 353.359692 220.782719 
L 353.772388 222.477012 
L 354.081911 223.433313 
L 354.494607 223.641765 
L 354.597781 223.710476 
L 355.113652 222.242901 
L 355.268413 222.410185 
L 355.577935 223.283569 
L 355.939045 224.18667 
L 356.19698 224.29394 
L 356.403328 224.400196 
L 356.661263 224.710845 
L 356.712851 224.628798 
L 357.383482 222.341764 
L 357.744592 221.699301 
L 357.899353 221.682921 
L 358.105701 222.115481 
L 358.46681 223.217467 
L 358.518398 223.145567 
L 358.724746 222.908123 
L 358.879507 223.039456 
L 359.137442 223.673801 
L 360.014422 226.177116 
L 360.169183 226.227127 
L 360.323945 225.415206 
L 360.58188 224.658804 
L 361.046163 224.232477 
L 361.252512 223.71381 
L 361.407273 223.808034 
L 361.665208 224.418026 
L 362.129492 225.78181 
L 362.181079 225.76311 
L 362.387427 225.735422 
L 362.542188 225.831676 
L 363.419168 222.980748 
L 363.573929 223.097585 
L 363.831864 223.722798 
L 364.0898 224.198556 
L 364.244561 224.033737 
L 364.60567 223.414758 
L 364.760431 223.524782 
L 365.069954 224.118973 
L 365.173128 224.049393 
L 365.327889 224.085488 
L 365.585824 224.400486 
L 366.204869 223.210799 
L 366.35963 223.329521 
L 366.514391 223.468103 
L 366.772327 223.42592 
L 367.546133 224.00489 
L 367.700894 224.044464 
L 367.855655 224.110566 
L 368.11359 223.804555 
L 368.319938 223.613063 
L 368.732635 223.701344 
L 368.887396 222.851878 
L 369.300092 220.381325 
L 369.454854 220.280288 
L 369.609615 220.541651 
L 369.919137 221.691763 
L 370.435008 223.673656 
L 370.899291 223.897764 
L 371.054052 223.884573 
L 371.311988 222.997708 
L 371.62151 222.356115 
L 372.085794 222.140559 
L 372.343729 222.772585 
L 372.446903 222.900295 
L 372.49849 222.858111 
L 372.756425 222.712137 
L 372.962773 223.057576 
L 373.37547 223.970679 
L 373.478644 223.684383 
L 373.581818 223.133245 
L 373.581818 223.133245 
" style="fill:none;stroke:#000000;stroke-linecap:square;stroke-width:1.5;"/>
   </g>
   <g id="line2d_17">
    <path clip-path="url(#p41ad3a90b8)" d="M 69.218182 224.786804 
L 69.630878 225.449271 
L 69.837227 225.9978 
L 69.888814 225.863422 
L 70.249923 223.795713 
L 70.559445 221.244272 
L 70.714206 221.079887 
L 70.868968 221.381404 
L 71.17849 222.701555 
L 71.488012 223.724392 
L 71.745948 223.712071 
L 71.952296 224.159562 
L 72.416579 225.640184 
L 72.468166 225.595391 
L 72.880863 224.846383 
L 73.241972 223.327202 
L 73.499908 222.820422 
L 73.706256 222.710542 
L 74.428475 223.446359 
L 74.68641 223.936469 
L 74.995932 223.596103 
L 75.099106 223.621181 
L 75.357042 223.365471 
L 75.460216 223.230514 
L 75.769738 222.666474 
L 76.027673 222.509338 
L 76.285609 222.527603 
L 76.543544 222.526878 
L 76.749892 222.938709 
L 77.111002 223.885008 
L 77.162589 223.857756 
L 77.368937 223.830358 
L 77.575285 224.002571 
L 77.83322 222.634438 
L 78.658613 218.292161 
L 79.019723 217.84525 
L 79.226071 217.493577 
L 79.329245 217.584901 
L 79.535593 218.051238 
L 79.58718 218.02674 
L 79.793529 217.921788 
L 79.94829 218.291871 
L 80.82527 221.196 
L 81.031618 221.314577 
L 81.186379 221.326319 
L 81.34114 221.591886 
L 82.114946 223.778028 
L 82.21812 223.69598 
L 82.372881 223.721203 
L 82.57923 224.142602 
L 83.146687 225.923436 
L 83.198274 225.857624 
L 83.610971 224.40353 
L 84.642712 218.198807 
L 84.900647 217.881345 
L 85.158582 217.406166 
L 85.210169 217.46473 
L 86.396672 219.507506 
L 86.654607 219.059435 
L 86.706194 219.092196 
L 87.067304 219.701172 
L 87.376826 220.956671 
L 87.841109 223.182967 
L 87.892696 223.152235 
L 88.305393 222.492957 
L 88.563328 221.694952 
L 88.666502 221.769752 
L 89.079199 222.315091 
L 89.285547 221.59348 
L 90.059353 219.201495 
L 90.575223 218.640355 
L 90.781572 219.09292 
L 91.606965 221.824547 
L 91.658552 221.784248 
L 91.8649 221.54115 
L 92.019661 221.752791 
L 92.329183 222.78911 
L 92.535532 223.312416 
L 92.638706 223.230659 
L 92.845054 223.040036 
L 92.999815 223.210509 
L 93.309337 224.058525 
L 93.825208 225.740206 
L 93.876795 225.68976 
L 94.49584 224.179712 
L 94.599014 224.125352 
L 94.960123 223.293571 
L 95.114884 223.433313 
L 95.269646 223.571894 
L 95.475994 223.56856 
L 95.682342 223.912405 
L 96.043451 224.818695 
L 96.095039 224.774483 
L 96.198213 224.539212 
L 96.76567 222.240002 
L 96.920431 222.289288 
L 97.333128 222.723154 
L 97.745824 222.068949 
L 97.900586 222.125484 
L 98.106934 222.595734 
L 98.777565 224.487752 
L 98.932327 224.633436 
L 99.190262 225.106876 
L 99.241849 225.067447 
L 99.39661 225.022654 
L 99.602958 225.270391 
L 99.75772 225.337072 
L 99.964068 225.282712 
L 100.170416 225.499862 
L 100.376764 225.841678 
L 100.428351 225.794276 
L 101.047396 223.963431 
L 101.098983 223.990104 
L 101.305331 224.345256 
L 101.872789 226.083326 
L 102.233898 226.965988 
L 102.852943 227.470739 
L 103.007704 227.52075 
L 103.420401 227.4287 
L 103.729923 227.68296 
L 104.65849 228.60563 
L 104.864838 228.266859 
L 105.225948 227.688324 
L 105.638644 227.350422 
L 105.999753 226.266266 
L 106.154515 226.222633 
L 106.360863 226.43384 
L 106.876733 227.48306 
L 107.083082 227.638602 
L 107.547365 227.4129 
L 107.702126 227.245906 
L 108.217997 224.197832 
L 108.940216 220.311599 
L 109.04339 220.315803 
L 109.146564 220.356537 
L 109.404499 220.044148 
L 109.55926 220.302032 
L 109.868783 220.864621 
L 110.023544 220.929853 
L 110.229892 221.391841 
L 110.900524 223.484339 
L 110.952111 223.481439 
L 111.055285 223.072072 
L 111.777504 218.362612 
L 111.932265 218.365511 
L 112.138613 218.911285 
L 112.602897 220.014866 
L 113.273529 222.897685 
L 113.737812 223.775418 
L 113.892573 224.052002 
L 114.253683 223.267913 
L 114.30527 223.320679 
L 114.460031 223.386346 
L 114.769553 223.299515 
L 114.872727 223.298935 
L 115.079076 223.142668 
L 115.233837 223.29821 
L 115.543359 224.137528 
L 115.69812 224.508336 
L 115.749707 224.489926 
L 116.05923 223.946906 
L 116.213991 224.074471 
L 116.5751 224.834061 
L 116.626687 224.663153 
L 117.090971 221.056548 
L 117.297319 220.699657 
L 117.45208 220.8897 
L 117.710015 221.736411 
L 118.225886 223.698734 
L 118.535408 223.33271 
L 118.690169 223.563052 
L 118.948105 223.899939 
L 119.051279 224.027794 
L 119.102866 223.956038 
L 119.309214 223.526087 
L 119.463975 223.686703 
L 119.979846 224.577192 
L 120.186194 224.704032 
L 120.289368 224.531095 
L 120.444129 223.847898 
L 120.908413 220.5992 
L 121.011587 220.605143 
L 121.83698 221.88369 
L 122.610786 223.554934 
L 122.868721 224.163766 
L 123.075069 224.563131 
L 123.694114 224.574438 
L 123.900462 224.483403 
L 124.209985 224.619085 
L 124.571094 224.287562 
L 124.777442 224.533124 
L 125.138552 225.475654 
L 125.809183 227.228365 
L 126.22188 227.459287 
L 127.150447 225.395346 
L 127.563143 223.447664 
L 127.717904 223.326622 
L 127.872666 223.499414 
L 128.079014 223.756428 
L 128.233775 223.793393 
L 128.440123 224.165506 
L 128.85282 225.285322 
L 128.904407 225.10905 
L 129.265516 223.749036 
L 129.626626 223.617412 
L 129.832974 223.974158 
L 130.194083 224.672866 
L 130.452018 225.07455 
L 130.761541 225.791087 
L 130.916302 224.978006 
L 131.174237 223.889212 
L 131.328998 223.826879 
L 131.535347 224.170289 
L 131.99963 225.50914 
L 132.051217 225.444778 
L 132.412327 224.772018 
L 132.567088 224.608068 
L 133.031371 223.428384 
L 133.598829 223.610744 
L 134.372635 224.774193 
L 134.475809 224.571539 
L 134.682157 223.272987 
L 135.043267 221.061042 
L 135.610724 218.665143 
L 135.765485 218.583966 
L 135.920247 218.84156 
L 136.178182 219.846422 
L 136.694052 221.895577 
L 137.003575 223.050908 
L 137.26151 224.067223 
L 137.313097 224.029533 
L 137.571032 223.71613 
L 138.448012 224.224794 
L 138.705948 223.758168 
L 138.860709 223.925307 
L 139.221818 224.430492 
L 139.479753 224.806229 
L 139.582928 224.950899 
L 139.634515 224.915674 
L 140.098798 223.213988 
L 140.253559 223.355469 
L 140.511495 223.503908 
L 140.614669 223.504053 
L 141.233713 221.62914 
L 141.491649 220.847951 
L 141.904345 220.172437 
L 142.213867 219.555923 
L 142.574977 218.038481 
L 142.832912 217.134511 
L 142.936086 217.19235 
L 143.348783 217.764652 
L 143.709892 217.117985 
L 144.071002 216.75486 
L 144.122589 216.834588 
L 144.535285 218.07762 
L 144.79322 218.732695 
L 144.999569 219.084513 
L 145.15433 219.07451 
L 145.309091 219.338772 
L 145.618613 220.206503 
L 145.6702 220.168668 
L 145.824961 220.156492 
L 145.979723 220.438874 
L 146.289245 221.640012 
L 146.54718 222.30016 
L 146.650354 222.205646 
L 146.90829 221.454319 
L 147.063051 221.624357 
L 147.269399 221.744674 
L 147.320986 221.734526 
L 147.836857 220.59746 
L 148.043205 220.575136 
L 148.197966 220.563684 
L 148.30114 220.662112 
L 148.352727 220.605143 
L 148.610663 220.269561 
L 148.765424 220.447427 
L 149.023359 221.01364 
L 149.436055 220.290435 
L 149.848752 219.967464 
L 150.106687 219.191058 
L 150.41621 218.400591 
L 150.880493 217.73421 
L 151.086841 217.666804 
L 151.344777 217.470673 
L 151.499538 217.733196 
L 151.963821 218.952019 
L 152.015408 218.922447 
L 152.118582 218.749365 
L 152.376518 218.201996 
L 152.479692 218.274621 
L 152.68604 218.856346 
L 153.150324 221.210061 
L 153.356672 221.942979 
L 153.511433 221.954721 
L 153.820955 221.610731 
L 153.872542 221.651174 
L 154.078891 221.777 
L 154.44 221.752791 
L 154.646348 222.184047 
L 154.852696 222.57167 
L 155.059045 221.706259 
L 155.523328 218.903892 
L 155.729676 218.524532 
L 155.884438 218.632817 
L 156.090786 219.20106 
L 156.555069 221.389667 
L 156.813005 222.22797 
L 156.916179 222.025316 
L 157.432049 220.01936 
L 157.535223 220.027477 
L 157.689985 220.322906 
L 157.793159 220.584704 
L 157.844746 220.515558 
L 158.721726 217.543733 
L 158.8249 217.592004 
L 159.031248 218.148506 
L 159.753467 220.808232 
L 159.908228 220.57992 
L 160.320924 219.281948 
L 160.527273 218.944771 
L 161.043143 217.697535 
L 161.352666 217.692027 
L 161.507427 218.015578 
L 162.33282 221.031905 
L 162.900277 223.632923 
L 163.312974 223.992713 
L 163.519322 224.192033 
L 163.674083 224.398601 
L 163.72567 224.356998 
L 163.932018 224.273356 
L 164.138367 224.557622 
L 164.344715 224.808838 
L 164.60265 224.942491 
L 164.705824 225.079768 
L 164.757411 225.008883 
L 165.015347 224.521237 
L 165.170108 224.648222 
L 165.47963 225.337072 
L 166.305023 227.28345 
L 166.459784 227.086595 
L 166.872481 226.414705 
L 167.078829 226.458193 
L 167.336764 226.680127 
L 167.388351 226.599094 
L 167.491525 225.99635 
L 167.697874 222.575004 
L 168.162157 214.659464 
L 168.368505 213.735489 
L 168.47168 213.60285 
L 168.935963 210.562024 
L 169.245485 208.454741 
L 169.606595 204.806243 
L 169.967704 203.808483 
L 170.225639 199.721771 
L 170.483575 197.524032 
L 170.586749 197.472571 
L 170.793097 197.791773 
L 170.896271 197.42198 
L 171.205794 196.228235 
L 171.360555 196.13575 
L 171.515316 196.017898 
L 172.701818 191.128977 
L 173.991495 179.543339 
L 174.610539 174.773285 
L 174.816888 171.185525 
L 175.023236 163.225771 
L 175.12641 151.393411 
L 175.229584 63.389355 
L 175.384345 180.638946 
L 175.539106 196.626005 
L 175.590693 196.761832 
L 175.745455 194.473784 
L 176.312912 185.164742 
L 177.293066 169.834932 
L 177.499414 163.262881 
L 177.602589 154.944931 
L 177.654176 139.793132 
L 177.705763 44.718362 
L 177.75735 102.520872 
L 177.912111 182.85466 
L 178.066872 193.725645 
L 178.221633 194.494223 
L 178.27322 194.476973 
L 178.376394 193.958451 
L 178.63433 190.98851 
L 179.666071 170.286773 
L 179.820832 162.788572 
L 179.924006 143.381617 
L 179.975593 37.737523 
L 180.02718 91.159342 
L 180.181941 185.91694 
L 180.336703 197.051028 
L 180.38829 197.065524 
L 180.594638 195.758564 
L 181.007334 191.935679 
L 181.368444 187.057195 
L 182.039076 174.342319 
L 182.297011 165.520633 
L 182.400185 156.478318 
L 182.451772 138.786675 
L 182.503359 41.127993 
L 182.554946 103.426437 
L 182.709707 188.900362 
L 182.864468 197.683488 
L 183.070817 195.114652 
L 183.380339 189.12331 
L 183.999384 171.379336 
L 184.154145 162.188437 
L 184.205732 154.679364 
L 184.308906 51.192276 
L 184.515254 192.750354 
L 184.618428 197.727266 
L 184.670015 196.937669 
L 185.546995 174.526998 
L 185.753344 162.462412 
L 185.804931 154.745611 
L 185.908105 50.717821 
L 186.114453 193.03752 
L 186.217627 198.461343 
L 186.269214 198.027913 
L 187.404129 180.472677 
L 187.713652 169.494276 
L 187.816826 161.391447 
L 187.868413 151.199165 
L 187.92 35.371776 
L 187.971587 66.582244 
L 188.126348 186.377333 
L 188.281109 199.651755 
L 189.519199 174.296366 
L 189.725547 165.610508 
L 189.828721 154.188095 
L 189.931895 52.979922 
L 190.086656 180.979892 
L 190.241418 197.816271 
L 190.344592 196.629919 
L 190.912049 185.038047 
L 191.582681 166.697273 
L 191.737442 153.196569 
L 191.840616 55.389157 
L 191.995378 179.369966 
L 192.150139 195.414864 
L 192.253313 193.879738 
L 192.769183 180.042001 
L 193.078706 167.762584 
L 193.18188 157.878487 
L 193.233467 135.528989 
L 193.285054 37.272202 
L 193.336641 96.728995 
L 193.491402 189.041118 
L 193.594576 197.504897 
L 193.646163 197.300649 
L 194.05886 189.871884 
L 194.419969 179.250519 
L 194.729492 165.849837 
L 194.832666 150.706881 
L 194.884253 34.768742 
L 194.93584 67.062786 
L 195.090601 185.278536 
L 195.245362 198.166205 
L 195.503297 192.851536 
L 196.122342 175.791049 
L 196.32869 166.386044 
L 196.431864 153.86121 
L 196.535039 54.719297 
L 196.6898 182.511829 
L 196.844561 197.650437 
L 197.102496 191.155359 
L 197.515193 174.070374 
L 197.669954 162.354996 
L 197.721541 150.647447 
L 197.773128 28.820889 
L 197.824715 64.473801 
L 197.979476 186.622025 
L 198.08265 199.914712 
L 198.134237 199.761345 
L 198.753282 184.987166 
L 199.165978 170.068028 
L 199.32074 154.679075 
L 199.423914 52.204241 
L 199.630262 194.136027 
L 199.733436 198.552088 
L 200.094545 189.908558 
L 200.662003 168.861381 
L 200.765177 160.084778 
L 200.816764 146.84877 
L 200.868351 32.118729 
L 200.919938 78.675967 
L 201.0747 188.387058 
L 201.229461 200.002413 
L 201.435809 196.594548 
L 202.054854 181.991278 
L 202.364376 170.690196 
L 202.519137 156.645747 
L 202.622311 43.996026 
L 202.673898 113.338802 
L 202.828659 193.659398 
L 202.931834 199.928484 
L 202.983421 199.172227 
L 203.550878 182.721876 
L 203.860401 168.332857 
L 203.963575 155.65538 
L 204.066749 48.758397 
L 204.273097 195.796254 
L 204.376271 200.710398 
L 204.427858 199.735832 
L 204.892142 184.253669 
L 205.253251 165.016172 
L 205.304838 158.15565 
L 205.408012 38.816895 
L 205.459599 102.633361 
L 205.614361 193.97918 
L 205.717535 200.514557 
L 205.769122 199.462002 
L 206.542928 173.896857 
L 206.749276 160.152329 
L 206.800863 147.160724 
L 206.85245 32.195123 
L 206.904037 78.471283 
L 207.058798 188.406918 
L 207.161972 199.305445 
L 207.213559 199.113808 
L 207.935778 184.511118 
L 208.348475 170.619746 
L 208.503236 158.046785 
L 208.554823 137.195014 
L 208.60641 37.587924 
L 208.657997 98.631595 
L 208.812758 191.29626 
L 208.915932 199.410107 
L 208.967519 198.938117 
L 209.380216 188.099023 
L 209.792912 171.323092 
L 209.947673 154.756193 
L 209.99926 48.496454 
L 210.050847 51.917365 
L 210.257196 195.843221 
L 210.36037 199.853104 
L 210.618305 191.938143 
L 211.23735 169.187976 
L 211.340524 160.313815 
L 211.392111 147.046206 
L 211.443698 31.585566 
L 211.495285 77.77504 
L 211.650046 188.586958 
L 211.75322 199.390537 
L 211.804807 198.914343 
L 212.217504 186.18642 
L 212.6302 167.683001 
L 212.733374 153.674502 
L 212.784961 38.373753 
L 212.836549 55.524695 
L 212.99131 184.485025 
L 213.146071 199.909639 
L 213.404006 193.169289 
L 214.023051 173.399499 
L 214.177812 163.43089 
L 214.229399 155.90877 
L 214.332573 46.75389 
L 214.538921 193.786093 
L 214.642096 198.587604 
L 214.848444 192.014827 
L 215.364314 169.453833 
L 215.467488 158.098971 
L 215.570663 38.653091 
L 215.62225 101.632992 
L 215.777011 192.36882 
L 215.880185 198.368279 
L 216.189707 186.553894 
L 216.653991 164.003772 
L 216.705578 156.814625 
L 216.808752 42.35218 
L 216.860339 108.85287 
L 217.0151 192.16921 
L 217.118274 198.407708 
L 217.169861 197.574478 
L 217.943667 175.33254 
L 218.150015 163.097627 
L 218.201602 155.063219 
L 218.304777 49.721511 
L 218.511125 192.721797 
L 218.614299 197.143947 
L 218.923821 188.544195 
L 219.439692 170.500444 
L 219.594453 157.937196 
L 219.64604 136.838992 
L 219.697627 37.032583 
L 219.749214 96.223085 
L 219.903975 189.620088 
L 220.007149 198.404374 
L 220.058737 198.360016 
L 220.677781 192.610758 
L 221.090478 188.512014 
L 221.4 182.724341 
L 221.812696 171.338458 
L 221.967458 162.446031 
L 222.019045 155.779756 
L 222.122219 46.3193 
L 222.173806 117.762546 
L 222.328567 192.999106 
L 222.431741 199.787003 
L 222.483328 199.494328 
L 223.050786 193.186974 
L 223.515069 187.524981 
L 224.649985 167.078228 
L 224.804746 160.514149 
L 224.90792 143.80635 
L 224.959507 46.24914 
L 225.011094 94.858721 
L 225.165855 182.902787 
L 225.320616 193.983384 
L 225.42379 194.330708 
L 225.578552 193.894234 
L 226.352357 191.174204 
L 226.610293 190.28386 
L 227.384099 187.156928 
L 228.467427 178.837528 
L 228.673775 175.615502 
L 229.086471 165.084013 
L 229.241233 154.773878 
L 229.29282 140.468066 
L 229.344407 45.877607 
L 229.395994 103.213491 
L 229.550755 183.195461 
L 229.705516 193.14682 
L 229.80869 193.366434 
L 229.963451 192.974317 
L 230.221387 192.514214 
L 230.376148 192.63714 
L 231.04678 194.017305 
L 231.407889 195.0845 
L 231.56265 195.214674 
L 231.92376 195.809155 
L 232.078521 195.856267 
L 232.336456 196.33507 
L 232.749153 197.364866 
L 233.110262 199.25384 
L 234.5547 207.722983 
L 234.761048 208.602165 
L 235.122157 210.381694 
L 235.380092 210.049591 
L 235.43168 210.098297 
L 235.586441 210.523175 
L 236.050724 212.006986 
L 236.308659 212.528552 
L 236.772943 212.613498 
L 236.979291 213.270457 
L 238.165794 218.523952 
L 238.217381 218.482204 
L 238.423729 218.365801 
L 238.57849 218.541203 
L 238.836425 219.300793 
L 239.507057 222.343938 
L 240.280863 225.446082 
L 240.384037 225.596406 
L 240.693559 225.390418 
L 240.899908 225.583069 
L 241.003082 225.680628 
L 241.054669 225.642213 
L 242.241171 223.728016 
L 242.705455 221.802368 
L 242.860216 221.750327 
L 243.066564 222.051989 
L 243.530847 222.896236 
L 243.788783 223.072362 
L 244.407827 221.743949 
L 244.459414 221.777869 
L 244.665763 222.17274 
L 245.078459 223.019742 
L 245.130046 223.00858 
L 245.284807 222.379598 
L 245.542743 221.608846 
L 245.697504 221.618558 
L 245.955439 221.652769 
L 246.058613 221.257173 
L 246.419723 219.080744 
L 246.626071 218.803725 
L 246.729245 218.746031 
L 246.884006 218.337244 
L 247.451464 215.757826 
L 247.812573 213.26002 
L 248.018921 212.794553 
L 248.22527 213.154779 
L 248.534792 213.538053 
L 248.689553 213.794342 
L 248.947488 214.858204 
L 249.514946 218.60513 
L 249.97923 221.154976 
L 251.37208 226.408327 
L 251.423667 226.364694 
L 251.681602 226.250755 
L 251.939538 226.476313 
L 252.352234 227.078042 
L 252.403821 227.025276 
L 252.558582 226.417749 
L 253.022866 223.836736 
L 253.383975 222.485274 
L 253.796672 220.547739 
L 254.054607 220.020374 
L 254.209368 220.098508 
L 254.415716 220.586588 
L 254.983174 222.498176 
L 255.034761 222.441496 
L 255.447458 221.210206 
L 256.272851 219.02276 
L 256.376025 219.094515 
L 256.582373 219.670441 
L 256.995069 221.59522 
L 257.098243 221.299212 
L 257.356179 220.704441 
L 257.459353 220.671245 
L 257.665701 220.404228 
L 257.820462 220.67168 
L 258.129985 221.50462 
L 258.181572 221.470699 
L 258.645855 221.177445 
L 259.110139 221.494763 
L 259.2649 221.513028 
L 259.471248 221.8834 
L 259.677596 222.161289 
L 259.883945 222.427725 
L 260.193467 223.378083 
L 260.760924 225.368674 
L 260.812512 225.329534 
L 261.122034 225.040774 
L 261.431556 225.045848 
L 261.792666 223.922118 
L 262.153775 221.800483 
L 262.41171 220.949858 
L 262.514884 220.964644 
L 262.721233 221.421268 
L 264.062496 225.599015 
L 264.16567 225.528275 
L 264.629954 224.340907 
L 264.784715 224.294955 
L 265.145824 223.795568 
L 265.661695 221.588987 
L 265.816456 221.585652 
L 266.022804 221.73873 
L 266.28074 221.136566 
L 266.435501 221.352122 
L 266.745023 222.493102 
L 267.15772 223.907622 
L 267.260894 224.109406 
L 267.312481 224.062584 
L 267.776764 222.598488 
L 267.931525 222.534126 
L 268.137874 222.361188 
L 268.292635 222.551666 
L 268.602157 223.463174 
L 268.91168 224.270602 
L 269.221202 224.561971 
L 269.272789 224.454266 
L 269.582311 223.829198 
L 269.737072 223.920233 
L 270.098182 224.464413 
L 270.149769 224.406429 
L 270.356117 223.701634 
L 270.768814 221.55811 
L 270.923575 221.5052 
L 271.129923 221.948197 
L 271.594206 223.815717 
L 272.419599 226.972946 
L 272.729122 227.642516 
L 273.348166 227.663825 
L 273.864037 228.239751 
L 274.379908 228.746966 
L 274.483082 228.474732 
L 275.256888 222.741998 
L 275.411649 222.744753 
L 275.617997 223.198912 
L 276.08228 224.471371 
L 276.237042 224.370624 
L 276.44339 223.497675 
L 276.752912 222.269139 
L 276.907673 222.271168 
L 277.371957 223.087148 
L 277.681479 223.629588 
L 277.784653 223.639156 
L 278.042589 223.47912 
L 278.558459 223.958938 
L 279.022743 224.723602 
L 279.229091 224.835076 
L 279.383852 224.652571 
L 279.641787 224.176812 
L 279.899723 224.070122 
L 280.209245 223.041196 
L 280.46718 222.585297 
L 280.621941 222.780848 
L 280.776703 223.02496 
L 280.931464 222.968136 
L 281.086225 223.209929 
L 281.292573 223.593059 
L 281.498921 222.742723 
L 281.860031 220.042408 
L 282.117966 218.598172 
L 282.375901 218.119079 
L 282.685424 217.792919 
L 282.840185 218.058486 
L 283.356055 219.481848 
L 283.407643 219.412267 
L 283.665578 219.065378 
L 283.9751 218.957963 
L 284.181448 219.305577 
L 284.387797 219.622169 
L 284.594145 219.967754 
L 284.903667 221.087135 
L 285.367951 222.742578 
L 285.625886 223.146147 
L 285.780647 223.078306 
L 285.986995 223.051923 
L 286.193344 223.360688 
L 286.399692 223.666698 
L 286.502866 223.637706 
L 286.812388 222.885944 
L 286.967149 223.075986 
L 287.070324 223.140638 
L 287.379846 222.347272 
L 287.586194 221.95791 
L 287.740955 222.098521 
L 287.844129 222.166072 
L 288.153652 221.571012 
L 288.308413 221.746848 
L 288.617935 222.225361 
L 288.772696 222.197674 
L 288.875871 222.041697 
L 289.030632 221.440837 
L 289.494915 218.698629 
L 289.598089 218.65833 
L 289.804438 218.801116 
L 290.010786 218.736899 
L 290.165547 219.020005 
L 290.475069 220.260138 
L 290.681418 221.06771 
L 290.733005 221.057128 
L 290.887766 221.031615 
L 291.094114 221.065681 
L 291.455223 220.732708 
L 291.86792 219.34776 
L 292.022681 219.523017 
L 292.280616 220.392342 
L 293.26077 224.254366 
L 293.982989 226.321931 
L 295.324253 218.814452 
L 295.427427 218.91317 
L 295.633775 219.544036 
L 295.840123 220.387993 
L 295.89171 220.371468 
L 296.098059 220.156637 
L 296.459168 220.544405 
L 297.64567 223.487963 
L 298.058367 224.464993 
L 298.316302 224.733024 
L 298.728998 225.400855 
L 298.88376 224.920457 
L 299.709153 221.72206 
L 299.76074 221.741919 
L 299.967088 222.115771 
L 300.379784 223.606685 
L 301.308351 226.994255 
L 301.824222 228.125668 
L 301.927396 228.201627 
L 302.03057 227.826036 
L 302.494854 224.940752 
L 302.701202 224.510655 
L 302.855963 224.576177 
L 303.217072 224.96438 
L 303.371834 224.953073 
L 303.578182 225.228497 
L 303.990878 226.23481 
L 304.094052 226.097098 
L 304.609923 225.524216 
L 304.816271 225.740061 
L 305.280555 226.807836 
L 305.848012 227.950121 
L 305.899599 227.878366 
L 306.673405 223.761067 
L 306.828166 223.947196 
L 307.034515 224.144196 
L 307.240863 224.293795 
L 307.498798 224.877839 
L 308.014669 226.12319 
L 308.272604 226.324685 
L 308.478952 226.608951 
L 308.530539 226.547488 
L 308.6853 226.067381 
L 309.097997 223.852827 
L 309.665455 222.66227 
L 310.026564 222.697206 
L 310.594022 223.655681 
L 310.697196 223.492456 
L 310.851957 222.713731 
L 311.31624 220.861432 
L 311.471002 220.770977 
L 311.574176 220.800839 
L 311.832111 220.39843 
L 311.986872 220.635295 
L 312.244807 221.308634 
L 312.605917 220.36132 
L 312.657504 220.386688 
L 312.863852 220.474969 
L 313.0702 220.255355 
L 313.224961 220.251731 
L 313.482897 220.405678 
L 313.637658 220.567888 
L 313.998767 221.088875 
L 314.205116 221.134102 
L 314.411464 221.542744 
L 314.82416 223.181662 
L 315.133683 223.974158 
L 315.597966 223.18891 
L 315.804314 223.51681 
L 316.217011 224.397152 
L 316.57812 224.083458 
L 316.732881 224.02185 
L 316.887643 223.792234 
L 317.403513 221.613195 
L 317.4551 221.643202 
L 317.661448 222.074313 
L 318.125732 223.901823 
L 318.435254 224.757087 
L 318.796364 225.366499 
L 318.847951 225.333738 
L 319.518582 224.80217 
L 319.724931 222.79172 
L 319.982866 221.514912 
L 320.08604 221.37865 
L 320.756672 219.604484 
L 321.220955 219.67247 
L 321.478891 220.01762 
L 321.633652 220.093724 
L 321.736826 220.184034 
L 321.788413 220.145765 
L 321.943174 220.141561 
L 322.149522 220.669215 
L 322.613806 222.867969 
L 323.026502 224.543416 
L 323.387612 225.158047 
L 323.490786 224.975977 
L 323.800308 223.281395 
L 324.213005 220.964209 
L 324.367766 220.949858 
L 324.574114 221.067565 
L 324.780462 221.142655 
L 325.399507 219.401395 
L 325.451094 219.446043 
L 325.760616 220.026898 
L 326.070139 221.205857 
L 326.998706 225.328955 
L 327.10188 225.071651 
L 327.411402 223.999961 
L 327.566163 223.816877 
L 328.133621 221.614065 
L 328.391556 220.830121 
L 328.49473 220.866506 
L 328.701079 221.343859 
L 329.216949 222.855792 
L 329.320123 222.383222 
L 329.73282 220.085751 
L 330.093929 218.489742 
L 330.351864 217.875546 
L 330.6098 217.603311 
L 330.970909 218.038336 
L 331.228844 218.919693 
L 331.951063 221.851509 
L 332.00265 221.802368 
L 332.466934 220.524255 
L 332.621695 220.754452 
L 333.24074 222.054888 
L 333.498675 222.025751 
L 333.962958 220.692264 
L 334.066133 220.520196 
L 334.478829 219.212802 
L 334.685177 218.854896 
L 334.788351 218.917374 
L 335.201048 219.699723 
L 335.252635 219.668412 
L 335.407396 219.555053 
L 335.562157 219.83584 
L 335.87168 221.151932 
L 336.851834 225.735567 
L 337.006595 225.903576 
L 337.26453 225.458984 
L 337.574052 225.009028 
L 337.780401 225.088031 
L 338.089923 225.590172 
L 338.605794 226.549083 
L 338.966903 226.400209 
L 339.121664 225.348089 
L 339.379599 223.838186 
L 339.534361 223.6422 
L 340.462928 223.837461 
L 340.927211 223.51391 
L 341.28832 223.460565 
L 341.546256 223.96865 
L 342.062126 225.172688 
L 342.216888 225.12746 
L 342.629584 224.679824 
L 342.835932 224.861459 
L 342.939106 224.877549 
L 343.558151 223.809194 
L 343.609738 223.871092 
L 343.764499 223.942992 
L 343.867673 223.858335 
L 344.125609 223.074392 
L 344.228783 223.125128 
L 344.383544 223.249648 
L 344.693066 222.394529 
L 344.744653 222.411345 
L 344.847827 222.332776 
L 345.054176 222.229275 
L 345.208937 222.491652 
L 345.570046 223.747296 
L 345.827982 224.348155 
L 346.343852 225.23792 
L 346.601787 224.097954 
L 347.220832 219.272526 
L 347.375593 219.060304 
L 347.478767 219.085382 
L 347.736703 218.78662 
L 347.891464 218.880554 
L 348.252573 219.3653 
L 348.458921 219.388059 
L 348.66527 219.926005 
L 349.026379 220.611956 
L 349.439076 220.395386 
L 350.367643 221.656538 
L 350.677165 222.653138 
L 350.986687 223.483034 
L 351.141448 223.654377 
L 351.399384 222.752725 
L 352.070015 217.247145 
L 352.379538 213.80333 
L 352.585886 213.145501 
L 352.68906 213.217257 
L 352.998582 214.159787 
L 353.669214 216.524374 
L 353.720801 216.400433 
L 353.823975 216.236194 
L 353.875562 216.260692 
L 354.030324 216.688179 
L 355.113652 221.948342 
L 355.474761 223.507677 
L 355.681109 223.635387 
L 355.835871 223.478395 
L 356.093806 223.101499 
L 356.248567 223.22631 
L 356.506502 223.467668 
L 356.764438 223.412438 
L 356.919199 223.367356 
L 357.125547 223.391129 
L 357.331895 223.356049 
L 357.486656 223.360108 
L 357.847766 223.035108 
L 358.002527 222.86246 
L 358.157288 223.052938 
L 358.260462 223.124113 
L 359.034268 221.961679 
L 359.085855 222.002557 
L 359.292203 222.403372 
L 359.756487 224.046204 
L 359.962835 224.561391 
L 360.22077 224.822174 
L 360.323945 224.894075 
L 360.58188 224.771438 
L 360.788228 225.064548 
L 361.09775 225.572197 
L 361.355686 225.456084 
L 361.665208 224.678374 
L 362.026317 223.559863 
L 362.181079 223.6077 
L 362.593775 223.902403 
L 362.85171 222.402937 
L 363.161233 221.373866 
L 363.470755 221.316607 
L 363.986626 221.658277 
L 364.296148 222.671983 
L 365.327889 226.479792 
L 365.998521 227.10254 
L 366.050108 227.021508 
L 366.308043 226.067091 
L 366.669153 224.495 
L 366.927088 223.810354 
L 367.23661 223.611903 
L 367.804068 221.658132 
L 368.11359 221.36053 
L 368.268351 221.579274 
L 369.093744 223.452592 
L 369.145331 223.413018 
L 369.35168 223.318069 
L 369.609615 223.438531 
L 369.815963 223.260955 
L 370.022311 223.446214 
L 370.125485 223.114691 
L 370.692943 219.228748 
L 370.796117 219.22092 
L 370.950878 219.526641 
L 371.724684 221.840347 
L 371.776271 221.81266 
L 372.034206 221.434604 
L 372.188968 221.661032 
L 372.704838 223.002057 
L 372.756425 222.919429 
L 372.911186 222.79201 
L 373.065948 222.97205 
L 373.37547 223.425485 
L 373.478644 223.471872 
L 373.581818 223.350106 
L 373.581818 223.350106 
" style="fill:none;stroke:#ff0000;stroke-linecap:square;stroke-width:1.5;"/>
   </g>
   <g id="line2d_18">
    <path clip-path="url(#p41ad3a90b8)" d="M 321.994761 201.264 
L 373.478644 201.264 
L 373.478644 201.264 
" style="fill:none;stroke:#000000;stroke-linecap:square;stroke-width:1.5;"/>
   </g>
   <g id="line2d_19">
    <path clip-path="url(#p41ad3a90b8)" d="M 321.994761 179.52 
L 321.994761 178.0704 
L 321.994761 176.6208 
L 321.994761 175.1712 
L 321.994761 173.7216 
L 321.994761 172.272 
L 321.994761 170.8224 
L 321.994761 169.3728 
L 321.994761 167.9232 
L 321.994761 166.4736 
L 321.994761 165.024 
L 321.994761 163.5744 
L 321.994761 162.1248 
L 321.994761 160.6752 
L 321.994761 159.2256 
L 321.994761 157.776 
L 321.994761 156.3264 
L 321.994761 154.8768 
L 321.994761 153.4272 
L 321.994761 151.9776 
" style="fill:none;stroke:#000000;stroke-linecap:square;stroke-width:1.5;"/>
   </g>
   <g id="patch_3">
    <path d="M 54 252 
L 54 34.56 
" style="fill:none;stroke:#000000;stroke-linecap:square;stroke-linejoin:miter;stroke-width:0.8;"/>
   </g>
   <g id="patch_4">
    <path d="M 54 252 
L 388.8 252 
" style="fill:none;stroke:#000000;stroke-linecap:square;stroke-linejoin:miter;stroke-width:0.8;"/>
   </g>
   <g id="text_18">
    <!-- 500 ms -->
    <g transform="translate(321.994761 199.8144)scale(0.12 -0.12)">
     <use xlink:href="#DejaVuSans-35"/>
     <use x="63.623047" xlink:href="#DejaVuSans-30"/>
     <use x="127.246094" xlink:href="#DejaVuSans-30"/>
     <use x="190.869141" xlink:href="#DejaVuSans-20"/>
     <use x="222.65625" xlink:href="#DejaVuSans-6d"/>
     <use x="320.068359" xlink:href="#DejaVuSans-73"/>
    </g>
   </g>
   <g id="text_19">
    <!-- 20 mV -->
    <g transform="translate(327.153467 150.528)scale(0.12 -0.12)">
     <use xlink:href="#DejaVuSans-32"/>
     <use x="63.623047" xlink:href="#DejaVuSans-30"/>
     <use x="127.246094" xlink:href="#DejaVuSans-20"/>
     <use x="159.033203" xlink:href="#DejaVuSans-6d"/>
     <use x="256.445312" xlink:href="#DejaVuSans-56"/>
    </g>
   </g>
  </g>
 </g>
 <defs>
  <clipPath id="p41ad3a90b8">
   <rect height="217.44" width="334.8" x="54" y="34.56"/>
  </clipPath>
 </defs>
</svg>
