<?xml version="1.0" encoding="utf-8" standalone="no"?>
<!DOCTYPE svg PUBLIC "-//W3C//DTD SVG 1.1//EN"
  "http://www.w3.org/Graphics/SVG/1.1/DTD/svg11.dtd">
<svg height="288pt" version="1.1" viewBox="0 0 432 288" width="432pt" xmlns="http://www.w3.org/2000/svg" xmlns:xlink="http://www.w3.org/1999/xlink">
 <metadata>
  <rdf:RDF xmlns:cc="http://creativecommons.org/ns#" xmlns:dc="http://purl.org/dc/elements/1.1/" xmlns:rdf="http://www.w3.org/1999/02/22-rdf-syntax-ns#">
   <cc:Work>
    <dc:type rdf:resource="http://purl.org/dc/dcmitype/StillImage"/>
    <dc:date>2021-06-22T22:00:12.535449</dc:date>
    <dc:format>image/svg+xml</dc:format>
    <dc:creator>
     <cc:Agent>
      <dc:title>Matplotlib v3.4.1, https://matplotlib.org/</dc:title>
     </cc:Agent>
    </dc:creator>
   </cc:Work>
  </rdf:RDF>
 </metadata>
 <defs>
  <style type="text/css">*{stroke-linecap:butt;stroke-linejoin:round;}</style>
 </defs>
 <g id="figure_1">
  <g id="patch_1">
   <path d="M 0 288 
L 432 288 
L 432 0 
L 0 0 
z
" style="fill:none;"/>
  </g>
  <g id="axes_1">
   <g id="patch_2">
    <path d="M 54 252 
L 388.8 252 
L 388.8 34.56 
L 54 34.56 
z
" style="fill:#ffffff;"/>
   </g>
   <g id="matplotlib.axis_1">
    <g id="xtick_1">
     <g id="line2d_1">
      <defs>
       <path d="M 0 0 
L 0 3.5 
" id="m1574a9a682" style="stroke:#000000;stroke-width:0.8;"/>
      </defs>
      <g>
       <use style="stroke:#000000;stroke-width:0.8;" x="64.059476" xlink:href="#m1574a9a682" y="252"/>
      </g>
     </g>
     <g id="text_1">
      <!-- 0 -->
      <g transform="translate(60.241976 268.118125)scale(0.12 -0.12)">
       <defs>
        <path d="M 2034 4250 
Q 1547 4250 1301 3770 
Q 1056 3291 1056 2328 
Q 1056 1369 1301 889 
Q 1547 409 2034 409 
Q 2525 409 2770 889 
Q 3016 1369 3016 2328 
Q 3016 3291 2770 3770 
Q 2525 4250 2034 4250 
z
M 2034 4750 
Q 2819 4750 3233 4129 
Q 3647 3509 3647 2328 
Q 3647 1150 3233 529 
Q 2819 -91 2034 -91 
Q 1250 -91 836 529 
Q 422 1150 422 2328 
Q 422 3509 836 4129 
Q 1250 4750 2034 4750 
z
" id="DejaVuSans-30" transform="scale(0.015625)"/>
       </defs>
       <use xlink:href="#DejaVuSans-30"/>
      </g>
     </g>
    </g>
    <g id="xtick_2">
     <g id="line2d_2">
      <g>
       <use style="stroke:#000000;stroke-width:0.8;" x="115.646533" xlink:href="#m1574a9a682" y="252"/>
      </g>
     </g>
     <g id="text_2">
      <!-- 500 -->
      <g transform="translate(104.194033 268.118125)scale(0.12 -0.12)">
       <defs>
        <path d="M 691 4666 
L 3169 4666 
L 3169 4134 
L 1269 4134 
L 1269 2991 
Q 1406 3038 1543 3061 
Q 1681 3084 1819 3084 
Q 2600 3084 3056 2656 
Q 3513 2228 3513 1497 
Q 3513 744 3044 326 
Q 2575 -91 1722 -91 
Q 1428 -91 1123 -41 
Q 819 9 494 109 
L 494 744 
Q 775 591 1075 516 
Q 1375 441 1709 441 
Q 2250 441 2565 725 
Q 2881 1009 2881 1497 
Q 2881 1984 2565 2268 
Q 2250 2553 1709 2553 
Q 1456 2553 1204 2497 
Q 953 2441 691 2322 
L 691 4666 
z
" id="DejaVuSans-35" transform="scale(0.015625)"/>
       </defs>
       <use xlink:href="#DejaVuSans-35"/>
       <use x="63.623047" xlink:href="#DejaVuSans-30"/>
       <use x="127.246094" xlink:href="#DejaVuSans-30"/>
      </g>
     </g>
    </g>
    <g id="xtick_3">
     <g id="line2d_3">
      <g>
       <use style="stroke:#000000;stroke-width:0.8;" x="167.23359" xlink:href="#m1574a9a682" y="252"/>
      </g>
     </g>
     <g id="text_3">
      <!-- 1000 -->
      <g transform="translate(151.96359 268.118125)scale(0.12 -0.12)">
       <defs>
        <path d="M 794 531 
L 1825 531 
L 1825 4091 
L 703 3866 
L 703 4441 
L 1819 4666 
L 2450 4666 
L 2450 531 
L 3481 531 
L 3481 0 
L 794 0 
L 794 531 
z
" id="DejaVuSans-31" transform="scale(0.015625)"/>
       </defs>
       <use xlink:href="#DejaVuSans-31"/>
       <use x="63.623047" xlink:href="#DejaVuSans-30"/>
       <use x="127.246094" xlink:href="#DejaVuSans-30"/>
       <use x="190.869141" xlink:href="#DejaVuSans-30"/>
      </g>
     </g>
    </g>
    <g id="xtick_4">
     <g id="line2d_4">
      <g>
       <use style="stroke:#000000;stroke-width:0.8;" x="218.820647" xlink:href="#m1574a9a682" y="252"/>
      </g>
     </g>
     <g id="text_4">
      <!-- 1500 -->
      <g transform="translate(203.550647 268.118125)scale(0.12 -0.12)">
       <use xlink:href="#DejaVuSans-31"/>
       <use x="63.623047" xlink:href="#DejaVuSans-35"/>
       <use x="127.246094" xlink:href="#DejaVuSans-30"/>
       <use x="190.869141" xlink:href="#DejaVuSans-30"/>
      </g>
     </g>
    </g>
    <g id="xtick_5">
     <g id="line2d_5">
      <g>
       <use style="stroke:#000000;stroke-width:0.8;" x="270.407704" xlink:href="#m1574a9a682" y="252"/>
      </g>
     </g>
     <g id="text_5">
      <!-- 2000 -->
      <g transform="translate(255.137704 268.118125)scale(0.12 -0.12)">
       <defs>
        <path d="M 1228 531 
L 3431 531 
L 3431 0 
L 469 0 
L 469 531 
Q 828 903 1448 1529 
Q 2069 2156 2228 2338 
Q 2531 2678 2651 2914 
Q 2772 3150 2772 3378 
Q 2772 3750 2511 3984 
Q 2250 4219 1831 4219 
Q 1534 4219 1204 4116 
Q 875 4013 500 3803 
L 500 4441 
Q 881 4594 1212 4672 
Q 1544 4750 1819 4750 
Q 2544 4750 2975 4387 
Q 3406 4025 3406 3419 
Q 3406 3131 3298 2873 
Q 3191 2616 2906 2266 
Q 2828 2175 2409 1742 
Q 1991 1309 1228 531 
z
" id="DejaVuSans-32" transform="scale(0.015625)"/>
       </defs>
       <use xlink:href="#DejaVuSans-32"/>
       <use x="63.623047" xlink:href="#DejaVuSans-30"/>
       <use x="127.246094" xlink:href="#DejaVuSans-30"/>
       <use x="190.869141" xlink:href="#DejaVuSans-30"/>
      </g>
     </g>
    </g>
    <g id="xtick_6">
     <g id="line2d_6">
      <g>
       <use style="stroke:#000000;stroke-width:0.8;" x="321.994761" xlink:href="#m1574a9a682" y="252"/>
      </g>
     </g>
     <g id="text_6">
      <!-- 2500 -->
      <g transform="translate(306.724761 268.118125)scale(0.12 -0.12)">
       <use xlink:href="#DejaVuSans-32"/>
       <use x="63.623047" xlink:href="#DejaVuSans-35"/>
       <use x="127.246094" xlink:href="#DejaVuSans-30"/>
       <use x="190.869141" xlink:href="#DejaVuSans-30"/>
      </g>
     </g>
    </g>
    <g id="xtick_7">
     <g id="line2d_7">
      <g>
       <use style="stroke:#000000;stroke-width:0.8;" x="373.581818" xlink:href="#m1574a9a682" y="252"/>
      </g>
     </g>
     <g id="text_7">
      <!-- 3000 -->
      <g transform="translate(358.311818 268.118125)scale(0.12 -0.12)">
       <defs>
        <path d="M 2597 2516 
Q 3050 2419 3304 2112 
Q 3559 1806 3559 1356 
Q 3559 666 3084 287 
Q 2609 -91 1734 -91 
Q 1441 -91 1130 -33 
Q 819 25 488 141 
L 488 750 
Q 750 597 1062 519 
Q 1375 441 1716 441 
Q 2309 441 2620 675 
Q 2931 909 2931 1356 
Q 2931 1769 2642 2001 
Q 2353 2234 1838 2234 
L 1294 2234 
L 1294 2753 
L 1863 2753 
Q 2328 2753 2575 2939 
Q 2822 3125 2822 3475 
Q 2822 3834 2567 4026 
Q 2313 4219 1838 4219 
Q 1578 4219 1281 4162 
Q 984 4106 628 3988 
L 628 4550 
Q 988 4650 1302 4700 
Q 1616 4750 1894 4750 
Q 2613 4750 3031 4423 
Q 3450 4097 3450 3541 
Q 3450 3153 3228 2886 
Q 3006 2619 2597 2516 
z
" id="DejaVuSans-33" transform="scale(0.015625)"/>
       </defs>
       <use xlink:href="#DejaVuSans-33"/>
       <use x="63.623047" xlink:href="#DejaVuSans-30"/>
       <use x="127.246094" xlink:href="#DejaVuSans-30"/>
       <use x="190.869141" xlink:href="#DejaVuSans-30"/>
      </g>
     </g>
    </g>
    <g id="text_8">
     <!-- Time(ms) -->
     <g transform="translate(193.067813 283.731875)scale(0.12 -0.12)">
      <defs>
       <path d="M -19 4666 
L 3928 4666 
L 3928 4134 
L 2272 4134 
L 2272 0 
L 1638 0 
L 1638 4134 
L -19 4134 
L -19 4666 
z
" id="DejaVuSans-54" transform="scale(0.015625)"/>
       <path d="M 603 3500 
L 1178 3500 
L 1178 0 
L 603 0 
L 603 3500 
z
M 603 4863 
L 1178 4863 
L 1178 4134 
L 603 4134 
L 603 4863 
z
" id="DejaVuSans-69" transform="scale(0.015625)"/>
       <path d="M 3328 2828 
Q 3544 3216 3844 3400 
Q 4144 3584 4550 3584 
Q 5097 3584 5394 3201 
Q 5691 2819 5691 2113 
L 5691 0 
L 5113 0 
L 5113 2094 
Q 5113 2597 4934 2840 
Q 4756 3084 4391 3084 
Q 3944 3084 3684 2787 
Q 3425 2491 3425 1978 
L 3425 0 
L 2847 0 
L 2847 2094 
Q 2847 2600 2669 2842 
Q 2491 3084 2119 3084 
Q 1678 3084 1418 2786 
Q 1159 2488 1159 1978 
L 1159 0 
L 581 0 
L 581 3500 
L 1159 3500 
L 1159 2956 
Q 1356 3278 1631 3431 
Q 1906 3584 2284 3584 
Q 2666 3584 2933 3390 
Q 3200 3197 3328 2828 
z
" id="DejaVuSans-6d" transform="scale(0.015625)"/>
       <path d="M 3597 1894 
L 3597 1613 
L 953 1613 
Q 991 1019 1311 708 
Q 1631 397 2203 397 
Q 2534 397 2845 478 
Q 3156 559 3463 722 
L 3463 178 
Q 3153 47 2828 -22 
Q 2503 -91 2169 -91 
Q 1331 -91 842 396 
Q 353 884 353 1716 
Q 353 2575 817 3079 
Q 1281 3584 2069 3584 
Q 2775 3584 3186 3129 
Q 3597 2675 3597 1894 
z
M 3022 2063 
Q 3016 2534 2758 2815 
Q 2500 3097 2075 3097 
Q 1594 3097 1305 2825 
Q 1016 2553 972 2059 
L 3022 2063 
z
" id="DejaVuSans-65" transform="scale(0.015625)"/>
       <path d="M 1984 4856 
Q 1566 4138 1362 3434 
Q 1159 2731 1159 2009 
Q 1159 1288 1364 580 
Q 1569 -128 1984 -844 
L 1484 -844 
Q 1016 -109 783 600 
Q 550 1309 550 2009 
Q 550 2706 781 3412 
Q 1013 4119 1484 4856 
L 1984 4856 
z
" id="DejaVuSans-28" transform="scale(0.015625)"/>
       <path d="M 2834 3397 
L 2834 2853 
Q 2591 2978 2328 3040 
Q 2066 3103 1784 3103 
Q 1356 3103 1142 2972 
Q 928 2841 928 2578 
Q 928 2378 1081 2264 
Q 1234 2150 1697 2047 
L 1894 2003 
Q 2506 1872 2764 1633 
Q 3022 1394 3022 966 
Q 3022 478 2636 193 
Q 2250 -91 1575 -91 
Q 1294 -91 989 -36 
Q 684 19 347 128 
L 347 722 
Q 666 556 975 473 
Q 1284 391 1588 391 
Q 1994 391 2212 530 
Q 2431 669 2431 922 
Q 2431 1156 2273 1281 
Q 2116 1406 1581 1522 
L 1381 1569 
Q 847 1681 609 1914 
Q 372 2147 372 2553 
Q 372 3047 722 3315 
Q 1072 3584 1716 3584 
Q 2034 3584 2315 3537 
Q 2597 3491 2834 3397 
z
" id="DejaVuSans-73" transform="scale(0.015625)"/>
       <path d="M 513 4856 
L 1013 4856 
Q 1481 4119 1714 3412 
Q 1947 2706 1947 2009 
Q 1947 1309 1714 600 
Q 1481 -109 1013 -844 
L 513 -844 
Q 928 -128 1133 580 
Q 1338 1288 1338 2009 
Q 1338 2731 1133 3434 
Q 928 4138 513 4856 
z
" id="DejaVuSans-29" transform="scale(0.015625)"/>
      </defs>
      <use xlink:href="#DejaVuSans-54"/>
      <use x="57.958984" xlink:href="#DejaVuSans-69"/>
      <use x="85.742188" xlink:href="#DejaVuSans-6d"/>
      <use x="183.154297" xlink:href="#DejaVuSans-65"/>
      <use x="244.677734" xlink:href="#DejaVuSans-28"/>
      <use x="283.691406" xlink:href="#DejaVuSans-6d"/>
      <use x="381.103516" xlink:href="#DejaVuSans-73"/>
      <use x="433.203125" xlink:href="#DejaVuSans-29"/>
     </g>
    </g>
   </g>
   <g id="matplotlib.axis_2">
    <g id="ytick_1">
     <g id="line2d_8">
      <defs>
       <path d="M 0 0 
L -3.5 0 
" id="m99d6259f16" style="stroke:#000000;stroke-width:0.8;"/>
      </defs>
      <g>
       <use style="stroke:#000000;stroke-width:0.8;" x="54" xlink:href="#m99d6259f16" y="237.504"/>
      </g>
     </g>
     <g id="text_9">
      <!-- -100 -->
      <g transform="translate(19.765625 242.063063)scale(0.12 -0.12)">
       <defs>
        <path d="M 313 2009 
L 1997 2009 
L 1997 1497 
L 313 1497 
L 313 2009 
z
" id="DejaVuSans-2d" transform="scale(0.015625)"/>
       </defs>
       <use xlink:href="#DejaVuSans-2d"/>
       <use x="36.083984" xlink:href="#DejaVuSans-31"/>
       <use x="99.707031" xlink:href="#DejaVuSans-30"/>
       <use x="163.330078" xlink:href="#DejaVuSans-30"/>
      </g>
     </g>
    </g>
    <g id="ytick_2">
     <g id="line2d_9">
      <g>
       <use style="stroke:#000000;stroke-width:0.8;" x="54" xlink:href="#m99d6259f16" y="208.512"/>
      </g>
     </g>
     <g id="text_10">
      <!-- -80 -->
      <g transform="translate(27.400625 213.071062)scale(0.12 -0.12)">
       <defs>
        <path d="M 2034 2216 
Q 1584 2216 1326 1975 
Q 1069 1734 1069 1313 
Q 1069 891 1326 650 
Q 1584 409 2034 409 
Q 2484 409 2743 651 
Q 3003 894 3003 1313 
Q 3003 1734 2745 1975 
Q 2488 2216 2034 2216 
z
M 1403 2484 
Q 997 2584 770 2862 
Q 544 3141 544 3541 
Q 544 4100 942 4425 
Q 1341 4750 2034 4750 
Q 2731 4750 3128 4425 
Q 3525 4100 3525 3541 
Q 3525 3141 3298 2862 
Q 3072 2584 2669 2484 
Q 3125 2378 3379 2068 
Q 3634 1759 3634 1313 
Q 3634 634 3220 271 
Q 2806 -91 2034 -91 
Q 1263 -91 848 271 
Q 434 634 434 1313 
Q 434 1759 690 2068 
Q 947 2378 1403 2484 
z
M 1172 3481 
Q 1172 3119 1398 2916 
Q 1625 2713 2034 2713 
Q 2441 2713 2670 2916 
Q 2900 3119 2900 3481 
Q 2900 3844 2670 4047 
Q 2441 4250 2034 4250 
Q 1625 4250 1398 4047 
Q 1172 3844 1172 3481 
z
" id="DejaVuSans-38" transform="scale(0.015625)"/>
       </defs>
       <use xlink:href="#DejaVuSans-2d"/>
       <use x="36.083984" xlink:href="#DejaVuSans-38"/>
       <use x="99.707031" xlink:href="#DejaVuSans-30"/>
      </g>
     </g>
    </g>
    <g id="ytick_3">
     <g id="line2d_10">
      <g>
       <use style="stroke:#000000;stroke-width:0.8;" x="54" xlink:href="#m99d6259f16" y="179.52"/>
      </g>
     </g>
     <g id="text_11">
      <!-- -60 -->
      <g transform="translate(27.400625 184.079062)scale(0.12 -0.12)">
       <defs>
        <path d="M 2113 2584 
Q 1688 2584 1439 2293 
Q 1191 2003 1191 1497 
Q 1191 994 1439 701 
Q 1688 409 2113 409 
Q 2538 409 2786 701 
Q 3034 994 3034 1497 
Q 3034 2003 2786 2293 
Q 2538 2584 2113 2584 
z
M 3366 4563 
L 3366 3988 
Q 3128 4100 2886 4159 
Q 2644 4219 2406 4219 
Q 1781 4219 1451 3797 
Q 1122 3375 1075 2522 
Q 1259 2794 1537 2939 
Q 1816 3084 2150 3084 
Q 2853 3084 3261 2657 
Q 3669 2231 3669 1497 
Q 3669 778 3244 343 
Q 2819 -91 2113 -91 
Q 1303 -91 875 529 
Q 447 1150 447 2328 
Q 447 3434 972 4092 
Q 1497 4750 2381 4750 
Q 2619 4750 2861 4703 
Q 3103 4656 3366 4563 
z
" id="DejaVuSans-36" transform="scale(0.015625)"/>
       </defs>
       <use xlink:href="#DejaVuSans-2d"/>
       <use x="36.083984" xlink:href="#DejaVuSans-36"/>
       <use x="99.707031" xlink:href="#DejaVuSans-30"/>
      </g>
     </g>
    </g>
    <g id="ytick_4">
     <g id="line2d_11">
      <g>
       <use style="stroke:#000000;stroke-width:0.8;" x="54" xlink:href="#m99d6259f16" y="150.528"/>
      </g>
     </g>
     <g id="text_12">
      <!-- -40 -->
      <g transform="translate(27.400625 155.087063)scale(0.12 -0.12)">
       <defs>
        <path d="M 2419 4116 
L 825 1625 
L 2419 1625 
L 2419 4116 
z
M 2253 4666 
L 3047 4666 
L 3047 1625 
L 3713 1625 
L 3713 1100 
L 3047 1100 
L 3047 0 
L 2419 0 
L 2419 1100 
L 313 1100 
L 313 1709 
L 2253 4666 
z
" id="DejaVuSans-34" transform="scale(0.015625)"/>
       </defs>
       <use xlink:href="#DejaVuSans-2d"/>
       <use x="36.083984" xlink:href="#DejaVuSans-34"/>
       <use x="99.707031" xlink:href="#DejaVuSans-30"/>
      </g>
     </g>
    </g>
    <g id="ytick_5">
     <g id="line2d_12">
      <g>
       <use style="stroke:#000000;stroke-width:0.8;" x="54" xlink:href="#m99d6259f16" y="121.536"/>
      </g>
     </g>
     <g id="text_13">
      <!-- -20 -->
      <g transform="translate(27.400625 126.095062)scale(0.12 -0.12)">
       <use xlink:href="#DejaVuSans-2d"/>
       <use x="36.083984" xlink:href="#DejaVuSans-32"/>
       <use x="99.707031" xlink:href="#DejaVuSans-30"/>
      </g>
     </g>
    </g>
    <g id="ytick_6">
     <g id="line2d_13">
      <g>
       <use style="stroke:#000000;stroke-width:0.8;" x="54" xlink:href="#m99d6259f16" y="92.544"/>
      </g>
     </g>
     <g id="text_14">
      <!-- 0 -->
      <g transform="translate(39.365 97.103062)scale(0.12 -0.12)">
       <use xlink:href="#DejaVuSans-30"/>
      </g>
     </g>
    </g>
    <g id="ytick_7">
     <g id="line2d_14">
      <g>
       <use style="stroke:#000000;stroke-width:0.8;" x="54" xlink:href="#m99d6259f16" y="63.552"/>
      </g>
     </g>
     <g id="text_15">
      <!-- 20 -->
      <g transform="translate(31.73 68.111063)scale(0.12 -0.12)">
       <use xlink:href="#DejaVuSans-32"/>
       <use x="63.623047" xlink:href="#DejaVuSans-30"/>
      </g>
     </g>
    </g>
    <g id="ytick_8">
     <g id="line2d_15">
      <g>
       <use style="stroke:#000000;stroke-width:0.8;" x="54" xlink:href="#m99d6259f16" y="34.56"/>
      </g>
     </g>
     <g id="text_16">
      <!-- 40 -->
      <g transform="translate(31.73 39.119062)scale(0.12 -0.12)">
       <use xlink:href="#DejaVuSans-34"/>
       <use x="63.623047" xlink:href="#DejaVuSans-30"/>
      </g>
     </g>
    </g>
    <g id="text_17">
     <!-- Membrane potential (mV) -->
     <g transform="translate(13.27 220.574062)rotate(-90)scale(0.12 -0.12)">
      <defs>
       <path d="M 628 4666 
L 1569 4666 
L 2759 1491 
L 3956 4666 
L 4897 4666 
L 4897 0 
L 4281 0 
L 4281 4097 
L 3078 897 
L 2444 897 
L 1241 4097 
L 1241 0 
L 628 0 
L 628 4666 
z
" id="DejaVuSans-4d" transform="scale(0.015625)"/>
       <path d="M 3116 1747 
Q 3116 2381 2855 2742 
Q 2594 3103 2138 3103 
Q 1681 3103 1420 2742 
Q 1159 2381 1159 1747 
Q 1159 1113 1420 752 
Q 1681 391 2138 391 
Q 2594 391 2855 752 
Q 3116 1113 3116 1747 
z
M 1159 2969 
Q 1341 3281 1617 3432 
Q 1894 3584 2278 3584 
Q 2916 3584 3314 3078 
Q 3713 2572 3713 1747 
Q 3713 922 3314 415 
Q 2916 -91 2278 -91 
Q 1894 -91 1617 61 
Q 1341 213 1159 525 
L 1159 0 
L 581 0 
L 581 4863 
L 1159 4863 
L 1159 2969 
z
" id="DejaVuSans-62" transform="scale(0.015625)"/>
       <path d="M 2631 2963 
Q 2534 3019 2420 3045 
Q 2306 3072 2169 3072 
Q 1681 3072 1420 2755 
Q 1159 2438 1159 1844 
L 1159 0 
L 581 0 
L 581 3500 
L 1159 3500 
L 1159 2956 
Q 1341 3275 1631 3429 
Q 1922 3584 2338 3584 
Q 2397 3584 2469 3576 
Q 2541 3569 2628 3553 
L 2631 2963 
z
" id="DejaVuSans-72" transform="scale(0.015625)"/>
       <path d="M 2194 1759 
Q 1497 1759 1228 1600 
Q 959 1441 959 1056 
Q 959 750 1161 570 
Q 1363 391 1709 391 
Q 2188 391 2477 730 
Q 2766 1069 2766 1631 
L 2766 1759 
L 2194 1759 
z
M 3341 1997 
L 3341 0 
L 2766 0 
L 2766 531 
Q 2569 213 2275 61 
Q 1981 -91 1556 -91 
Q 1019 -91 701 211 
Q 384 513 384 1019 
Q 384 1609 779 1909 
Q 1175 2209 1959 2209 
L 2766 2209 
L 2766 2266 
Q 2766 2663 2505 2880 
Q 2244 3097 1772 3097 
Q 1472 3097 1187 3025 
Q 903 2953 641 2809 
L 641 3341 
Q 956 3463 1253 3523 
Q 1550 3584 1831 3584 
Q 2591 3584 2966 3190 
Q 3341 2797 3341 1997 
z
" id="DejaVuSans-61" transform="scale(0.015625)"/>
       <path d="M 3513 2113 
L 3513 0 
L 2938 0 
L 2938 2094 
Q 2938 2591 2744 2837 
Q 2550 3084 2163 3084 
Q 1697 3084 1428 2787 
Q 1159 2491 1159 1978 
L 1159 0 
L 581 0 
L 581 3500 
L 1159 3500 
L 1159 2956 
Q 1366 3272 1645 3428 
Q 1925 3584 2291 3584 
Q 2894 3584 3203 3211 
Q 3513 2838 3513 2113 
z
" id="DejaVuSans-6e" transform="scale(0.015625)"/>
       <path id="DejaVuSans-20" transform="scale(0.015625)"/>
       <path d="M 1159 525 
L 1159 -1331 
L 581 -1331 
L 581 3500 
L 1159 3500 
L 1159 2969 
Q 1341 3281 1617 3432 
Q 1894 3584 2278 3584 
Q 2916 3584 3314 3078 
Q 3713 2572 3713 1747 
Q 3713 922 3314 415 
Q 2916 -91 2278 -91 
Q 1894 -91 1617 61 
Q 1341 213 1159 525 
z
M 3116 1747 
Q 3116 2381 2855 2742 
Q 2594 3103 2138 3103 
Q 1681 3103 1420 2742 
Q 1159 2381 1159 1747 
Q 1159 1113 1420 752 
Q 1681 391 2138 391 
Q 2594 391 2855 752 
Q 3116 1113 3116 1747 
z
" id="DejaVuSans-70" transform="scale(0.015625)"/>
       <path d="M 1959 3097 
Q 1497 3097 1228 2736 
Q 959 2375 959 1747 
Q 959 1119 1226 758 
Q 1494 397 1959 397 
Q 2419 397 2687 759 
Q 2956 1122 2956 1747 
Q 2956 2369 2687 2733 
Q 2419 3097 1959 3097 
z
M 1959 3584 
Q 2709 3584 3137 3096 
Q 3566 2609 3566 1747 
Q 3566 888 3137 398 
Q 2709 -91 1959 -91 
Q 1206 -91 779 398 
Q 353 888 353 1747 
Q 353 2609 779 3096 
Q 1206 3584 1959 3584 
z
" id="DejaVuSans-6f" transform="scale(0.015625)"/>
       <path d="M 1172 4494 
L 1172 3500 
L 2356 3500 
L 2356 3053 
L 1172 3053 
L 1172 1153 
Q 1172 725 1289 603 
Q 1406 481 1766 481 
L 2356 481 
L 2356 0 
L 1766 0 
Q 1100 0 847 248 
Q 594 497 594 1153 
L 594 3053 
L 172 3053 
L 172 3500 
L 594 3500 
L 594 4494 
L 1172 4494 
z
" id="DejaVuSans-74" transform="scale(0.015625)"/>
       <path d="M 603 4863 
L 1178 4863 
L 1178 0 
L 603 0 
L 603 4863 
z
" id="DejaVuSans-6c" transform="scale(0.015625)"/>
       <path d="M 1831 0 
L 50 4666 
L 709 4666 
L 2188 738 
L 3669 4666 
L 4325 4666 
L 2547 0 
L 1831 0 
z
" id="DejaVuSans-56" transform="scale(0.015625)"/>
      </defs>
      <use xlink:href="#DejaVuSans-4d"/>
      <use x="86.279297" xlink:href="#DejaVuSans-65"/>
      <use x="147.802734" xlink:href="#DejaVuSans-6d"/>
      <use x="245.214844" xlink:href="#DejaVuSans-62"/>
      <use x="308.691406" xlink:href="#DejaVuSans-72"/>
      <use x="349.804688" xlink:href="#DejaVuSans-61"/>
      <use x="411.083984" xlink:href="#DejaVuSans-6e"/>
      <use x="474.462891" xlink:href="#DejaVuSans-65"/>
      <use x="535.986328" xlink:href="#DejaVuSans-20"/>
      <use x="567.773438" xlink:href="#DejaVuSans-70"/>
      <use x="631.25" xlink:href="#DejaVuSans-6f"/>
      <use x="692.431641" xlink:href="#DejaVuSans-74"/>
      <use x="731.640625" xlink:href="#DejaVuSans-65"/>
      <use x="793.164062" xlink:href="#DejaVuSans-6e"/>
      <use x="856.542969" xlink:href="#DejaVuSans-74"/>
      <use x="895.751953" xlink:href="#DejaVuSans-69"/>
      <use x="923.535156" xlink:href="#DejaVuSans-61"/>
      <use x="984.814453" xlink:href="#DejaVuSans-6c"/>
      <use x="1012.597656" xlink:href="#DejaVuSans-20"/>
      <use x="1044.384766" xlink:href="#DejaVuSans-28"/>
      <use x="1083.398438" xlink:href="#DejaVuSans-6d"/>
      <use x="1180.810547" xlink:href="#DejaVuSans-56"/>
      <use x="1249.21875" xlink:href="#DejaVuSans-29"/>
     </g>
    </g>
   </g>
   <g id="line2d_16">
    <path clip-path="url(#p0c8398b372)" d="M 69.218182 225.153263 
L 69.837227 222.947117 
L 69.991988 222.949146 
L 70.249923 223.255012 
L 70.972142 224.539937 
L 71.023729 224.40382 
L 71.591186 222.092868 
L 72.05547 219.9276 
L 72.158644 219.951373 
L 72.364992 220.366829 
L 72.571341 220.9242 
L 72.622928 220.882886 
L 72.829276 220.783154 
L 73.035624 221.153527 
L 74.531649 224.901323 
L 75.099106 225.462608 
L 75.357042 225.560166 
L 75.511803 224.292925 
L 75.821325 222.256527 
L 76.027673 222.004442 
L 76.182435 222.124034 
L 76.595131 222.782297 
L 76.646718 222.674592 
L 76.853066 222.379308 
L 77.007827 222.449324 
L 77.31735 222.964947 
L 78.297504 224.742591 
L 78.400678 224.837395 
L 78.452265 224.786224 
L 78.7102 224.103173 
L 79.432419 221.833679 
L 79.638767 221.621748 
L 80.103051 221.791496 
L 80.360986 222.113742 
L 80.722096 222.723733 
L 80.773683 222.662995 
L 81.031618 222.394529 
L 81.237966 222.535865 
L 81.857011 223.251533 
L 82.166533 223.376343 
L 82.372881 223.46187 
L 83.249861 222.986836 
L 83.507797 223.105268 
L 83.97208 223.690037 
L 84.900647 224.855225 
L 85.571279 225.317213 
L 85.829214 225.411292 
L 86.448259 224.140717 
L 86.654607 224.100564 
L 87.015716 223.421716 
L 87.222065 223.475786 
L 87.634761 223.974448 
L 88.150632 224.515584 
L 88.511741 224.288142 
L 88.872851 223.076276 
L 89.079199 223.040616 
L 89.337134 223.311111 
L 90.62681 225.029467 
L 90.729985 224.972933 
L 91.194268 224.461949 
L 91.50379 224.527906 
L 91.555378 224.546171 
L 91.658552 224.172174 
L 92.019661 222.594864 
L 92.226009 222.470633 
L 92.432357 222.665315 
L 92.896641 223.264144 
L 93.102989 222.80752 
L 93.360924 222.385542 
L 93.567273 222.433379 
L 93.722034 222.474402 
L 93.979969 222.168392 
L 94.237904 221.804832 
L 94.392666 221.83078 
L 94.856949 222.092868 
L 95.218059 222.308568 
L 95.269646 222.172451 
L 95.630755 221.174111 
L 95.785516 221.177735 
L 96.043451 221.55898 
L 97.64265 224.728965 
L 98.261695 225.221684 
L 98.983914 225.501312 
L 99.190262 225.493339 
L 99.706133 224.252337 
L 100.118829 223.057721 
L 100.6347 222.050104 
L 100.841048 222.124614 
L 101.15057 222.596748 
L 101.975963 224.115639 
L 102.337072 223.168906 
L 102.491834 223.209204 
L 102.801356 223.60567 
L 103.626749 224.737083 
L 103.833097 224.506596 
L 104.142619 224.265238 
L 104.400555 224.243639 
L 104.813251 223.509417 
L 105.225948 223.379388 
L 105.483883 223.227035 
L 105.741818 223.378953 
L 106.309276 224.1326 
L 107.031495 224.971338 
L 107.134669 225.03773 
L 107.186256 224.972063 
L 107.856888 223.723378 
L 108.114823 223.611324 
L 108.424345 223.649303 
L 109.198151 222.276387 
L 109.352912 222.21101 
L 109.662435 221.904999 
L 109.868783 222.076632 
L 110.281479 222.855212 
L 111.158459 224.471951 
L 111.725917 225.072085 
L 111.983852 225.20197 
L 112.448136 224.036781 
L 112.654484 224.055916 
L 113.015593 224.230303 
L 113.42829 223.818906 
L 113.583051 223.774259 
L 114.047334 223.095991 
L 114.30527 223.126287 
L 114.666379 222.759973 
L 114.872727 222.909717 
L 115.388598 223.73193 
L 115.956055 224.577627 
L 116.05923 224.461949 
L 116.317165 223.657856 
L 116.5751 222.520934 
L 116.729861 222.403807 
L 116.93621 222.588486 
L 117.348906 223.264289 
L 117.400493 223.170645 
L 117.864777 221.892968 
L 118.019538 221.953851 
L 118.380647 222.247685 
L 118.638582 222.181003 
L 118.948105 222.232319 
L 119.20604 222.13882 
L 119.412388 222.312047 
L 120.289368 223.340973 
L 120.650478 223.591174 
L 121.063174 224.010108 
L 121.114761 223.936324 
L 121.527458 222.772875 
L 121.888567 221.324145 
L 122.043328 221.296312 
L 122.249676 221.580869 
L 122.868721 223.000897 
L 122.971895 222.816798 
L 123.229831 222.46556 
L 123.642527 222.30219 
L 123.900462 222.526588 
L 124.519507 223.526522 
L 125.241726 224.535009 
L 125.654422 224.896394 
L 125.809183 224.537763 
L 126.479815 222.665315 
L 126.73775 222.911167 
L 126.789337 222.983502 
L 126.840924 222.936245 
L 127.150447 222.334516 
L 127.305208 222.37409 
L 127.61473 222.824916 
L 128.49171 224.286837 
L 128.749646 223.689892 
L 129.213929 221.988496 
L 129.420277 221.796134 
L 129.626626 221.688574 
L 129.884561 221.595945 
L 129.987735 221.634939 
L 130.090909 221.260942 
L 130.555193 218.489597 
L 130.709954 218.391459 
L 130.916302 218.056021 
L 131.071063 218.267518 
L 131.380586 219.333989 
L 132.36074 222.958859 
L 132.928197 224.151589 
L 133.444068 224.765495 
L 133.959938 225.095714 
L 134.1147 224.724181 
L 134.682157 223.016553 
L 134.785331 222.929142 
L 135.146441 222.227245 
L 135.301202 222.288853 
L 135.610724 222.753305 
L 135.713898 222.851588 
L 135.765485 222.806506 
L 136.075008 222.580368 
L 136.178182 222.434828 
L 136.487704 221.914277 
L 136.642465 221.987627 
L 137.26151 222.528762 
L 137.571032 222.834773 
L 138.241664 223.837316 
L 138.293251 223.786145 
L 138.705948 223.184996 
L 138.912296 223.291252 
L 139.428166 223.957778 
L 140.201972 224.832901 
L 140.872604 225.247342 
L 141.749584 225.505371 
L 142.574977 225.592202 
L 142.781325 224.946695 
L 143.503544 222.147807 
L 143.709892 222.028795 
L 143.967827 221.600004 
L 144.122589 221.652769 
L 144.535285 221.968202 
L 144.741633 221.950372 
L 144.999569 222.268704 
L 146.54718 224.87262 
L 147.166225 225.292135 
L 147.888444 225.531319 
L 147.991618 225.340986 
L 148.352727 224.429478 
L 148.610663 224.331195 
L 148.713837 224.231752 
L 149.332881 222.671693 
L 149.53923 222.781428 
L 149.900339 223.216308 
L 149.951926 223.139769 
L 150.261448 222.682275 
L 150.467797 222.777804 
L 150.880493 223.398667 
L 151.499538 224.257265 
L 152.015408 223.680759 
L 152.324931 223.891096 
L 152.840801 224.460209 
L 152.892388 224.400196 
L 153.511433 222.829409 
L 153.717781 222.935085 
L 154.130478 223.500429 
L 155.059045 224.772163 
L 155.110632 224.803475 
L 155.162219 224.716644 
L 155.832851 222.903339 
L 156.039199 222.860866 
L 156.348721 223.074827 
L 156.658243 222.351041 
L 156.813005 222.405256 
L 157.122527 222.884349 
L 158.051094 224.482388 
L 158.154268 224.218271 
L 158.515378 222.940159 
L 158.721726 222.803606 
L 158.928074 222.924358 
L 159.031248 222.950306 
L 159.392357 222.223332 
L 159.547119 222.305089 
L 159.908228 222.895221 
L 160.836795 224.47601 
L 161.45584 225.053096 
L 162.178059 225.393317 
L 162.900277 225.531029 
L 163.364561 224.248278 
L 163.519322 223.385476 
L 163.777257 221.895287 
L 163.983606 221.664656 
L 164.189954 221.871948 
L 164.396302 222.170711 
L 164.447889 222.129977 
L 164.551063 221.880791 
L 165.170108 217.619402 
L 165.582804 216.024407 
L 165.634391 216.041657 
L 165.789153 216.347668 
L 166.047088 216.847055 
L 166.253436 217.243956 
L 166.666133 218.836196 
L 167.130416 220.410462 
L 167.543112 221.166138 
L 168.368505 222.888263 
L 168.832789 222.792879 
L 169.039137 221.585073 
L 169.400247 218.668332 
L 169.555008 218.463359 
L 169.761356 218.637601 
L 170.070878 219.162066 
L 170.277227 219.648987 
L 171.154206 216.687889 
L 171.308968 216.344044 
L 171.515316 215.10913 
L 172.340709 211.353216 
L 172.49547 211.677926 
L 173.527211 215.03346 
L 173.939908 215.841902 
L 174.24943 215.549373 
L 174.507365 215.188278 
L 174.662126 215.347879 
L 175.074823 216.282871 
L 175.12641 216.200678 
L 175.435932 215.891334 
L 175.590693 216.055863 
L 176.054977 217.15495 
L 176.158151 217.01057 
L 176.312912 216.30186 
L 176.622435 215.025488 
L 176.777196 215.024908 
L 176.828783 215.092604 
L 176.931957 214.710345 
L 177.344653 213.098534 
L 177.447827 213.082299 
L 177.602589 213.376713 
L 178.531156 215.950767 
L 178.840678 216.125879 
L 179.459723 214.668306 
L 179.769245 213.174493 
L 179.924006 213.193193 
L 180.078767 213.260745 
L 180.491464 212.786146 
L 180.646225 212.743382 
L 180.800986 213.010689 
L 181.162096 214.377516 
L 181.368444 214.752238 
L 181.471618 214.688311 
L 182.193837 213.370624 
L 182.245424 213.417446 
L 182.606533 213.847398 
L 182.761294 214.010913 
L 183.01923 214.833271 
L 183.483513 216.555396 
L 183.5351 216.50292 
L 184.154145 215.599674 
L 184.463667 214.504356 
L 184.670015 214.445068 
L 184.927951 214.389113 
L 185.237473 213.883783 
L 185.650169 213.699394 
L 185.856518 213.809128 
L 186.011279 213.20363 
L 186.269214 212.186446 
L 186.372388 212.166007 
L 186.527149 212.440126 
L 186.836672 213.65837 
L 187.146194 214.670626 
L 187.610478 215.405283 
L 187.765239 215.304971 
L 187.971587 214.78268 
L 188.177935 213.672721 
L 188.487458 211.724169 
L 188.745393 211.373945 
L 188.900154 211.060252 
L 189.106502 209.627757 
L 189.467612 206.474732 
L 189.880308 205.44943 
L 190.035069 205.732972 
L 190.344592 207.06269 
L 190.757288 208.350949 
L 191.221572 209.855779 
L 191.376333 209.839979 
L 191.737442 208.33109 
L 191.840616 208.388784 
L 192.046965 208.967899 
L 192.459661 210.537961 
L 192.511248 210.458378 
L 193.027119 208.921947 
L 193.388228 207.899109 
L 193.542989 207.681379 
L 193.955686 206.49952 
L 194.162034 206.204672 
L 194.781079 206.645495 
L 194.93584 206.695651 
L 195.142188 207.198952 
L 195.967581 210.715827 
L 196.431864 212.772519 
L 196.844561 214.079334 
L 197.20567 213.309306 
L 197.360431 213.526456 
L 197.669954 214.595971 
L 198.08265 216.253589 
L 198.134237 216.205897 
L 198.392173 216.004692 
L 198.546934 216.149652 
L 198.701695 216.339695 
L 198.753282 216.299976 
L 198.95963 216.241847 
L 199.165978 216.59323 
L 199.475501 217.259321 
L 199.578675 217.093052 
L 199.83661 216.550757 
L 199.991371 216.625846 
L 200.249307 217.22627 
L 200.455655 217.879605 
L 200.507242 217.835102 
L 200.765177 217.181043 
L 200.971525 216.844156 
L 201.126287 217.027095 
L 201.435809 217.949476 
L 201.693744 218.472347 
L 202.054854 218.486988 
L 202.46755 217.532426 
L 202.725485 217.179158 
L 202.983421 216.57395 
L 203.138182 216.693252 
L 203.499291 217.08218 
L 203.654052 216.676147 
L 203.808814 216.46668 
L 204.015162 216.671364 
L 204.376271 217.148862 
L 204.788968 217.855107 
L 204.892142 217.8064 
L 205.09849 216.854593 
L 205.820709 212.104979 
L 205.923883 212.084394 
L 206.491341 212.80702 
L 206.749276 213.305972 
L 207.007211 213.620535 
L 207.058798 213.574873 
L 207.471495 212.528842 
L 207.523082 212.575519 
L 207.626256 212.727582 
L 207.72943 212.344452 
L 208.142126 210.498967 
L 208.296888 210.294138 
L 208.60641 210.404453 
L 208.812758 211.023867 
L 208.915932 211.300596 
L 208.967519 211.17651 
L 209.277042 210.322116 
L 209.380216 210.415615 
L 209.586564 211.06634 
L 209.947673 212.17253 
L 210.308783 213.105058 
L 210.463544 213.071427 
L 210.618305 212.13745 
L 210.87624 210.800484 
L 210.979414 210.756126 
L 211.134176 211.057643 
L 211.392111 211.531952 
L 211.598459 212.072797 
L 213.249245 217.91541 
L 213.455593 218.190254 
L 214.023051 219.081758 
L 214.126225 218.588315 
L 214.538921 216.162409 
L 214.693683 216.056733 
L 215.157966 216.548872 
L 215.415901 217.116391 
L 216.241294 219.937022 
L 216.396055 220.286521 
L 216.447643 220.238249 
L 216.705578 219.180911 
L 217.324622 215.309899 
L 217.582558 214.602639 
L 217.840493 214.2572 
L 217.995254 214.395347 
L 218.665886 215.50748 
L 218.923821 215.572277 
L 219.542866 216.329113 
L 219.903975 217.301795 
L 220.626194 219.310215 
L 221.296826 220.519182 
L 221.657935 221.075248 
L 222.225393 221.397784 
L 222.483328 221.546948 
L 222.999199 219.702912 
L 223.205547 219.907596 
L 223.669831 220.936522 
L 224.237288 222.145488 
L 224.288875 222.117946 
L 224.649985 221.690604 
L 224.856333 221.806137 
L 225.320616 222.479476 
L 225.991248 223.378228 
L 226.66188 224.002136 
L 226.765054 223.802091 
L 227.126163 222.933491 
L 227.280924 222.848689 
L 227.642034 221.800628 
L 227.796795 221.803962 
L 228.157904 222.100405 
L 228.209492 222.003717 
L 228.519014 221.569417 
L 228.725362 221.703505 
L 229.138059 222.3925 
L 229.550755 223.139189 
L 229.602342 223.083814 
L 230.118213 221.591886 
L 230.376148 221.454464 
L 230.788844 220.291015 
L 230.943606 220.331314 
L 231.201541 220.755322 
L 231.356302 221.059738 
L 231.56265 220.225783 
L 231.820586 219.693055 
L 232.130108 219.062334 
L 232.284869 219.211498 
L 232.594391 220.034725 
L 232.749153 220.519472 
L 232.80074 220.498308 
L 233.419784 217.554605 
L 233.574545 217.44545 
L 233.729307 217.725078 
L 234.503112 219.623619 
L 235.018983 221.175126 
L 235.122157 221.406772 
L 235.173744 221.376185 
L 235.638028 220.715748 
L 236.050724 220.279998 
L 236.257072 220.148519 
L 236.463421 220.311744 
L 236.82453 221.046111 
L 237.753097 223.122228 
L 238.268968 222.797663 
L 238.57849 222.933636 
L 238.733251 222.370466 
L 239.145948 220.281882 
L 239.300709 220.178671 
L 239.45547 220.210272 
L 239.713405 219.709 
L 239.868166 219.828882 
L 240.745146 221.311678 
L 240.796733 221.273844 
L 241.106256 220.868535 
L 241.261017 220.991316 
L 241.776888 221.819183 
L 241.828475 221.781638 
L 242.137997 221.155991 
L 242.447519 220.418145 
L 242.60228 220.428147 
L 243.169738 220.81635 
L 243.530847 220.613986 
L 243.737196 220.83302 
L 244.304653 221.580289 
L 244.459414 221.238763 
L 245.026872 218.675001 
L 245.181633 218.798507 
L 246.316549 220.890859 
L 247.34829 223.319084 
L 247.915747 224.093605 
L 248.534792 224.579221 
L 249.308598 224.899003 
L 249.721294 224.968584 
L 250.443513 223.992278 
L 250.804622 224.169709 
L 251.062558 224.252192 
L 251.578428 223.797887 
L 251.784777 223.697285 
L 252.145886 223.144407 
L 252.352234 223.15354 
L 252.661757 223.438386 
L 253.12604 224.012718 
L 253.177627 223.927046 
L 253.538737 223.11585 
L 253.745085 223.149771 
L 254.106194 223.420846 
L 254.157781 223.338944 
L 254.467304 222.955235 
L 254.673652 223.034963 
L 255.086348 223.537974 
L 255.550632 224.135064 
L 255.602219 224.082733 
L 256.014915 223.440561 
L 256.221263 223.496805 
L 256.63396 223.925597 
L 256.995069 224.25915 
L 257.098243 223.828764 
L 257.407766 222.274502 
L 258.439507 220.156927 
L 258.749029 219.200916 
L 258.90379 219.363561 
L 259.213313 220.265647 
L 259.935532 222.615303 
L 260.296641 222.190136 
L 260.502989 222.407721 
L 260.915686 223.09976 
L 260.967273 223.011624 
L 261.586317 221.765403 
L 261.792666 221.826141 
L 261.999014 221.381694 
L 262.308536 220.624423 
L 262.514884 220.519182 
L 262.77282 220.153883 
L 262.927581 220.288405 
L 263.237103 220.987548 
L 263.443451 221.46635 
L 263.804561 220.097348 
L 264.062496 219.544036 
L 264.217257 219.631882 
L 264.475193 220.179685 
L 265.661695 223.315025 
L 266.177565 221.599279 
L 266.383914 221.741484 
L 266.79661 222.486724 
L 267.518829 223.725987 
L 268.137874 223.419976 
L 268.55057 223.783681 
L 269.582311 224.759407 
L 270.201356 225.084407 
L 270.252943 225.048892 
L 270.717227 223.771214 
L 271.026749 223.66119 
L 271.697381 221.439388 
L 272.264838 219.163371 
L 272.419599 219.09234 
L 272.625948 219.411252 
L 273.090231 220.824033 
L 273.348166 221.416049 
L 273.606102 221.342265 
L 273.81245 221.57826 
L 273.967211 221.682631 
L 274.225146 221.545064 
L 274.431495 221.726988 
L 274.895778 222.599503 
L 275.411649 223.540293 
L 275.772758 222.587326 
L 275.927519 222.618058 
L 276.237042 222.922474 
L 276.288629 222.843905 
L 276.598151 222.462371 
L 276.804499 222.423521 
L 277.114022 221.544194 
L 277.268783 221.610876 
L 277.578305 222.165782 
L 278.558459 224.081429 
L 279.125917 224.699828 
L 279.229091 224.777382 
L 279.280678 224.69316 
L 279.693374 223.701634 
L 279.899723 223.662639 
L 280.054484 223.64133 
L 280.46718 223.199057 
L 280.725116 223.289657 
L 281.240986 223.851232 
L 281.963205 224.568204 
L 282.22114 224.299159 
L 282.530663 224.117814 
L 282.840185 224.202615 
L 283.201294 224.38599 
L 283.613991 223.325172 
L 283.820339 223.371995 
L 284.439384 223.781652 
L 284.748906 223.647998 
L 285.058428 223.813688 
L 286.554453 225.099193 
L 286.709214 224.232332 
L 287.070324 221.578404 
L 287.276672 221.295443 
L 287.431433 221.423587 
L 287.792542 222.189846 
L 288.669522 224.132745 
L 289.030632 224.550229 
L 289.288567 224.151879 
L 289.701263 223.325317 
L 289.907612 223.276611 
L 290.165547 223.452882 
L 290.733005 224.006629 
L 290.784592 223.957053 
L 290.939353 223.650028 
L 291.248875 222.44483 
L 291.403636 222.136066 
L 291.919507 220.38118 
L 292.074268 220.557596 
L 292.435378 221.484615 
L 292.899661 222.600952 
L 293.312357 222.840861 
L 293.828228 223.602191 
L 294.602034 224.659674 
L 294.808382 224.791298 
L 295.272666 223.759328 
L 295.324253 223.743237 
L 295.736949 222.556305 
L 295.89171 222.617043 
L 296.201233 223.067868 
L 296.355994 223.284584 
L 296.76869 222.567756 
L 296.975039 222.77215 
L 297.542496 223.502169 
L 297.903606 223.501154 
L 298.264715 223.808469 
L 298.677411 224.18464 
L 299.193282 223.745701 
L 299.348043 223.665104 
L 299.709153 223.26313 
L 299.812327 223.130201 
L 300.173436 222.489478 
L 300.379784 222.583557 
L 300.740894 223.139044 
L 301.669461 224.612707 
L 302.288505 225.152248 
L 302.701202 225.349829 
L 302.855963 224.986559 
L 303.268659 223.406495 
L 303.629769 222.151576 
L 303.887704 221.754096 
L 304.094052 221.808746 
L 304.145639 221.858032 
L 304.197227 221.760039 
L 304.867858 219.22121 
L 305.022619 219.080599 
L 305.177381 219.241069 
L 305.486903 220.085461 
L 306.621818 223.62379 
L 306.673405 223.680904 
L 306.724992 223.594218 
L 307.034515 223.063665 
L 307.395624 222.930591 
L 307.653559 222.784327 
L 307.911495 222.982342 
L 308.221017 223.38881 
L 308.272604 223.324738 
L 308.633713 222.817957 
L 308.840062 222.948856 
L 309.252758 223.270957 
L 309.613867 223.26052 
L 309.974977 223.563632 
L 310.955131 224.618071 
L 311.31624 223.786435 
L 311.625763 221.999658 
L 312.141633 218.639485 
L 312.451156 217.909902 
L 312.605917 218.012968 
L 312.863852 218.676595 
L 313.740832 221.766563 
L 313.844006 221.699591 
L 314.050354 221.664946 
L 314.30829 222.002268 
L 314.566225 222.313352 
L 314.927334 222.434393 
L 315.236857 222.694741 
L 315.597966 222.22884 
L 315.804314 222.196514 
L 316.113837 221.895287 
L 316.320185 222.045756 
L 316.732881 222.755625 
L 317.609861 224.220445 
L 318.125732 224.731864 
L 318.177319 224.726211 
L 318.33208 224.109261 
L 318.641602 223.010899 
L 318.847951 222.856807 
L 319.054299 222.969441 
L 319.518582 223.597117 
L 319.879692 224.120568 
L 319.931279 224.047943 
L 320.137627 222.924503 
L 320.395562 222.049959 
L 320.911433 221.689299 
L 321.169368 222.023142 
L 322.355871 224.170289 
L 322.407458 224.128976 
L 322.820154 223.843694 
L 323.129676 223.999526 
L 324.109831 224.769989 
L 324.367766 224.488476 
L 324.522527 223.602916 
L 324.935223 221.437358 
L 325.193159 220.83244 
L 325.34792 220.893613 
L 325.605855 221.367343 
L 326.121726 222.550651 
L 326.173313 222.521079 
L 326.431248 222.388441 
L 326.586009 222.419028 
L 326.74077 221.907754 
L 326.998706 221.151497 
L 327.153467 221.104095 
L 327.359815 221.211946 
L 327.669337 220.744884 
L 327.824099 220.903471 
L 328.443143 221.791786 
L 328.85584 222.0459 
L 329.113775 221.882531 
L 329.320123 222.053873 
L 329.474884 222.21159 
L 329.526471 222.170421 
L 329.835994 221.915002 
L 330.042342 222.06692 
L 330.455039 222.668359 
L 330.506626 222.556884 
L 330.970909 221.528683 
L 331.177257 221.514622 
L 331.435193 221.834259 
L 332.312173 223.523188 
L 332.36376 223.486078 
L 333.034391 221.627546 
L 333.24074 221.435764 
L 333.447088 221.542309 
L 333.808197 222.105334 
L 334.272481 222.887683 
L 334.427242 222.616318 
L 334.839938 221.573621 
L 335.201048 221.299212 
L 335.407396 221.024367 
L 335.562157 221.089454 
L 335.87168 221.616819 
L 336.955008 223.772809 
L 337.058182 223.67931 
L 337.419291 223.179633 
L 337.677227 223.231383 
L 338.14151 223.694531 
L 338.554206 224.15043 
L 338.657381 223.747586 
L 338.966903 222.094752 
L 339.224838 221.262537 
L 339.431186 220.755032 
L 339.585948 220.787648 
L 339.843883 221.246011 
L 340.204992 222.115626 
L 340.256579 222.060107 
L 340.514515 221.681036 
L 340.669276 221.761199 
L 340.978798 222.295087 
L 341.752604 223.727292 
L 342.371649 223.524348 
L 342.577997 223.671047 
L 342.629584 223.578708 
L 343.558151 219.498663 
L 343.712912 219.544471 
L 343.970847 219.993702 
L 344.641479 221.397204 
L 344.847827 221.409526 
L 345.105763 221.733512 
L 346.395439 224.016197 
L 346.447026 223.968215 
L 346.601787 223.506083 
L 347.117658 221.490124 
L 347.324006 221.446781 
L 347.581941 221.73844 
L 347.736703 221.895287 
L 348.149399 221.653639 
L 348.407334 221.960664 
L 348.768444 222.446135 
L 348.923205 222.291318 
L 349.284314 221.684805 
L 349.490663 221.742499 
L 349.800185 222.166942 
L 350.264468 222.953205 
L 350.316055 222.895656 
L 350.831926 222.180858 
L 351.089861 221.99444 
L 351.29621 222.11954 
L 351.605732 222.483825 
L 351.760493 221.804832 
L 352.018428 220.818524 
L 352.17319 220.730244 
L 352.379538 220.969717 
L 352.895408 222.176075 
L 353.617627 223.680904 
L 353.978737 224.170869 
L 354.133498 223.350251 
L 354.546194 221.23195 
L 354.752542 221.082351 
L 355.010478 221.110329 
L 355.268413 220.916227 
L 355.629522 220.988707 
L 355.835871 220.906805 
L 356.042219 221.140335 
L 356.145393 221.211221 
L 356.351741 220.74445 
L 356.712851 219.719292 
L 357.07396 217.722179 
L 357.280308 217.491982 
L 357.435069 217.747547 
L 357.796179 218.996957 
L 358.776333 222.551521 
L 358.879507 222.717355 
L 359.034268 222.289578 
L 359.34379 221.648565 
L 359.550139 221.700751 
L 359.962835 222.163028 
L 360.014422 222.097216 
L 360.323945 221.545354 
L 360.58188 220.691829 
L 360.736641 220.713863 
L 360.994576 221.173531 
L 361.355686 221.866585 
L 361.665208 221.90355 
L 361.97473 222.293347 
L 362.232666 222.622116 
L 362.696949 222.233769 
L 362.800123 222.150707 
L 363.109646 221.124245 
L 363.419168 220.083432 
L 363.573929 220.05415 
L 363.780277 220.334068 
L 364.141387 221.05133 
L 364.192974 220.960585 
L 364.399322 220.726764 
L 364.554083 220.854619 
L 364.915193 221.632475 
L 365.121541 222.001833 
L 365.431063 221.914132 
L 365.637411 222.013284 
L 366.050108 221.589421 
L 366.153282 221.625082 
L 366.514391 220.933767 
L 366.669153 221.066261 
L 367.030262 221.816429 
L 367.907242 223.683079 
L 368.165177 224.013588 
L 368.319938 223.727292 
L 368.938983 222.08301 
L 369.196918 221.187592 
L 369.35168 221.139756 
L 369.661202 221.282251 
L 369.919137 221.074668 
L 370.125485 221.258913 
L 370.950878 222.37206 
L 371.363575 222.681695 
L 371.415162 222.585007 
L 371.879445 221.459392 
L 372.085794 221.524189 
L 372.240555 221.637548 
L 372.292142 221.581159 
L 372.601664 221.26935 
L 372.808012 221.44939 
L 372.962773 221.615079 
L 373.014361 221.578984 
L 373.581818 220.848531 
L 373.581818 220.848531 
" style="fill:none;stroke:#000000;stroke-linecap:square;stroke-width:1.5;"/>
   </g>
   <g id="line2d_17">
    <path clip-path="url(#p0c8398b372)" d="M 69.218182 224.184495 
L 69.785639 222.354955 
L 70.456271 222.595444 
L 70.972142 223.582476 
L 71.436425 224.396427 
L 71.642773 224.279009 
L 71.900709 224.195512 
L 72.05547 224.144052 
L 73.087211 221.656393 
L 73.138798 221.681326 
L 73.345146 221.985162 
L 74.067365 223.291687 
L 74.68641 222.948276 
L 75.047519 221.881806 
L 75.20228 221.905579 
L 75.408629 222.153751 
L 75.460216 222.08417 
L 75.718151 221.698141 
L 75.872912 221.797729 
L 75.976086 221.889054 
L 76.027673 221.843826 
L 76.285609 221.620008 
L 76.491957 221.826431 
L 76.904653 222.484115 
L 76.95624 222.437727 
L 77.214176 222.340024 
L 77.472111 222.631249 
L 78.091156 223.60654 
L 78.142743 223.571749 
L 78.503852 223.406785 
L 78.813374 223.617557 
L 79.277658 223.94995 
L 79.638767 223.649593 
L 79.896703 223.739903 
L 80.412573 224.263933 
L 81.237966 225.035411 
L 81.960185 225.40042 
L 82.785578 225.586548 
L 82.991926 224.996126 
L 83.301448 223.89704 
L 83.559384 222.938419 
L 83.868906 222.558044 
L 84.126841 222.153751 
L 84.33319 222.088954 
L 84.591125 221.880501 
L 84.797473 222.085475 
L 85.261757 223.056127 
L 85.983975 224.448178 
L 86.035562 224.508626 
L 86.087149 224.40266 
L 86.551433 223.072942 
L 86.757781 223.022061 
L 87.015716 223.241531 
L 87.222065 223.452302 
L 87.789522 222.383947 
L 87.995871 222.165637 
L 88.202219 222.283055 
L 88.563328 222.882175 
L 88.769676 223.192969 
L 88.976025 222.258847 
L 89.337134 220.448151 
L 89.491895 220.332473 
L 89.646656 220.49048 
L 90.007766 221.363574 
L 90.936333 223.722363 
L 91.452203 224.497464 
L 91.50379 224.534284 
L 92.071248 223.481439 
L 92.38077 223.747151 
L 93.360924 224.811157 
L 93.515686 224.562406 
L 93.825208 224.115494 
L 94.083143 224.082733 
L 94.49584 224.343516 
L 94.650601 224.383236 
L 95.218059 224.016197 
L 95.579168 224.215517 
L 97.075193 225.296339 
L 97.952173 225.550019 
L 98.158521 225.536537 
L 98.261695 225.321562 
L 98.725978 223.364747 
L 98.932327 223.287628 
L 99.190262 223.500284 
L 100.376764 224.98482 
L 100.428351 224.890451 
L 101.15057 222.598343 
L 101.305331 222.644005 
L 101.614854 223.09744 
L 101.872789 223.46187 
L 102.233898 223.022786 
L 102.440247 223.149771 
L 102.852943 223.632633 
L 102.90453 223.575228 
L 103.214052 223.268058 
L 103.420401 223.347786 
L 103.987858 223.764111 
L 104.348968 223.571894 
L 104.452142 223.558268 
L 105.225948 221.996904 
L 105.432296 222.191005 
L 105.948166 223.179198 
L 106.670385 224.42252 
L 106.825146 224.5482 
L 107.237843 223.381562 
L 107.444191 223.424905 
L 107.650539 223.555804 
L 107.753713 223.18862 
L 108.475932 219.36588 
L 108.630693 219.337033 
L 108.837042 219.657974 
L 109.146564 220.206938 
L 109.352912 220.290435 
L 109.610847 220.753002 
L 110.229892 222.236378 
L 110.281479 222.169116 
L 110.539414 221.975305 
L 110.79735 222.050974 
L 111.261633 220.788807 
L 111.416394 220.892889 
L 111.725917 221.493458 
L 112.860832 223.954154 
L 113.42829 224.613287 
L 113.94416 224.948145 
L 114.047334 224.803764 
L 114.460031 224.013153 
L 114.82114 223.724537 
L 115.130663 222.712861 
L 115.801294 222.303349 
L 116.110817 222.684304 
L 116.626687 223.382142 
L 116.93621 223.296036 
L 117.555254 221.964288 
L 117.761602 221.95878 
L 118.019538 222.224201 
L 118.483821 222.772295 
L 118.844931 222.853618 
L 119.051279 222.926243 
L 119.412388 222.355245 
L 119.618737 222.459761 
L 119.721911 222.453673 
L 120.031433 222.005167 
L 120.237781 222.125628 
L 120.650478 222.838107 
L 121.475871 224.247553 
L 122.094915 224.856385 
L 122.559199 225.118618 
L 122.71396 224.515729 
L 122.971895 223.794553 
L 123.436179 223.206015 
L 123.694114 223.278205 
L 124.10681 223.709027 
L 125.035378 224.719543 
L 125.138552 224.54878 
L 125.602835 223.20877 
L 125.809183 223.147017 
L 126.067119 223.344452 
L 127.821079 225.212552 
L 128.440123 225.422744 
L 128.543297 225.287061 
L 128.955994 223.326767 
L 129.162342 223.195288 
L 129.420277 223.38765 
L 129.678213 223.684093 
L 130.194083 222.290303 
L 130.555193 220.552088 
L 130.916302 220.152578 
L 131.071063 220.249266 
L 131.328998 220.737781 
L 131.99963 222.166942 
L 132.309153 222.527168 
L 132.463914 222.044451 
L 133.23772 218.237946 
L 133.702003 217.501984 
L 133.856764 217.811329 
L 134.269461 219.503737 
L 134.475809 220.070096 
L 134.785331 220.551218 
L 135.404376 222.303929 
L 136.075008 223.854566 
L 136.642465 224.62184 
L 137.26151 225.072375 
L 138.035316 225.3449 
L 138.13849 225.34519 
L 138.654361 223.978652 
L 138.860709 224.021995 
L 139.324992 224.444119 
L 139.686102 224.706641 
L 140.201972 223.881094 
L 140.459908 223.880659 
L 140.76943 222.840281 
L 140.924191 222.78911 
L 141.182126 223.048444 
L 141.543236 223.579867 
L 141.594823 223.527827 
L 141.955932 222.75345 
L 142.213867 222.055468 
L 142.368629 222.050104 
L 142.52339 222.212315 
L 142.574977 222.143748 
L 142.832912 221.625227 
L 142.987673 221.7022 
L 143.348783 222.332486 
L 143.451957 222.223332 
L 143.658305 222.075617 
L 143.864653 222.2487 
L 144.019414 222.366262 
L 144.380524 222.283925 
L 144.638459 222.591385 
L 144.79322 222.736345 
L 144.947982 222.529922 
L 145.257504 222.077792 
L 145.463852 222.131282 
L 145.773374 222.559059 
L 146.289245 223.336769 
L 146.598767 222.856952 
L 146.856703 222.614579 
L 147.063051 222.690248 
L 147.217812 222.755045 
L 147.578921 222.226231 
L 147.78527 222.364378 
L 148.197966 223.065694 
L 149.023359 224.423244 
L 149.436055 224.818405 
L 150.261448 222.547172 
L 150.674145 222.135921 
L 150.880493 222.309148 
L 151.086841 222.636323 
L 151.138428 222.594719 
L 151.396364 221.335452 
L 151.705886 220.031391 
L 151.860647 220.012112 
L 152.118582 220.179975 
L 152.531279 219.376027 
L 152.582866 219.419225 
L 153.150324 220.058789 
L 153.459846 219.760026 
L 153.666194 220.078648 
L 154.388413 221.675383 
L 155.162219 221.001319 
L 155.626502 219.67537 
L 155.781263 219.49243 
L 155.936025 219.652901 
L 156.245547 220.463807 
L 157.277288 223.374749 
L 157.689985 223.976188 
L 158.051094 222.914791 
L 158.257442 222.930301 
L 158.618552 223.344597 
L 159.134422 223.949515 
L 159.392357 223.69743 
L 159.959815 222.428885 
L 160.166163 222.577034 
L 160.682034 223.363297 
L 161.45584 224.413532 
L 162.074884 224.896684 
L 162.693929 225.143406 
L 162.900277 224.908136 
L 163.158213 224.340037 
L 163.72567 222.53688 
L 163.932018 222.233334 
L 164.138367 222.32002 
L 164.396302 222.367857 
L 164.551063 222.35684 
L 164.705824 221.949357 
L 165.015347 220.317542 
L 165.170108 220.229697 
L 165.273282 220.16461 
L 165.531217 219.679428 
L 165.685978 219.814676 
L 165.995501 220.605723 
L 166.305023 221.353137 
L 166.408197 221.308344 
L 166.872481 220.691104 
L 167.078829 220.971167 
L 167.646287 222.269719 
L 167.749461 222.144473 
L 168.007396 221.910943 
L 168.213744 222.093012 
L 168.420092 222.216228 
L 168.523267 222.036188 
L 168.884376 221.10511 
L 169.090724 220.749523 
L 169.348659 219.240055 
L 169.555008 218.447558 
L 169.761356 218.142997 
L 170.328814 214.919087 
L 170.483575 215.14508 
L 170.947858 216.042092 
L 171.257381 215.897422 
L 171.463729 216.327808 
L 171.721664 217.084644 
L 171.773251 217.005786 
L 172.031186 216.597144 
L 172.185948 216.816903 
L 172.598644 217.585916 
L 172.650231 217.633898 
L 172.701818 217.541993 
L 172.908166 216.44914 
L 173.166102 215.146384 
L 173.424037 214.777461 
L 173.578798 214.627717 
L 174.146256 212.405046 
L 174.24943 212.545222 
L 174.507365 213.549505 
L 174.7653 214.248212 
L 174.971649 213.998301 
L 175.12641 213.964091 
L 175.487519 214.316633 
L 175.693867 214.193852 
L 175.848629 214.385634 
L 176.106564 215.210457 
L 176.622435 217.06377 
L 176.828783 216.898951 
L 177.138305 216.455373 
L 177.551002 214.792537 
L 177.705763 214.83733 
L 177.860524 214.814136 
L 178.118459 214.59887 
L 179.201787 215.557491 
L 179.253374 215.445582 
L 179.459723 215.137397 
L 179.614484 215.351938 
L 180.233529 216.674118 
L 180.543051 216.743409 
L 180.800986 217.347022 
L 181.626379 220.377991 
L 181.935901 221.043212 
L 182.14225 221.002188 
L 182.606533 220.514688 
L 182.761294 219.671891 
L 183.173991 217.30136 
L 184.050971 212.063955 
L 184.154145 211.779108 
L 184.876364 207.403346 
L 184.979538 207.396678 
L 185.340647 207.728781 
L 185.495408 207.796622 
L 185.753344 207.324923 
L 186.578737 204.47095 
L 186.733498 204.546184 
L 187.094607 204.853644 
L 187.352542 205.765008 
L 187.868413 208.830042 
L 188.126348 209.794606 
L 188.281109 209.883177 
L 188.384284 209.68893 
L 188.745393 208.326596 
L 188.900154 208.427343 
L 189.054915 208.429518 
L 189.209676 208.248028 
L 189.570786 206.440377 
L 189.67396 206.59244 
L 190.189831 207.845329 
L 190.344592 208.081614 
L 190.602527 209.14707 
L 191.118398 211.386412 
L 191.273159 211.389891 
L 191.582681 211.1581 
L 191.789029 211.696191 
L 192.3049 213.309886 
L 192.562835 213.431218 
L 192.769183 213.5324 
L 193.233467 213.219576 
L 193.439815 213.199137 
L 193.749337 213.36961 
L 194.110447 213.906107 
L 194.368382 213.715194 
L 194.93584 212.232833 
L 195.193775 211.845645 
L 195.503297 211.183468 
L 195.658059 211.347563 
L 195.967581 212.324013 
L 196.380277 213.18754 
L 196.792974 213.267558 
L 197.360431 209.936667 
L 197.515193 210.151353 
L 197.773128 211.076487 
L 198.495347 214.592057 
L 198.598521 214.452896 
L 198.804869 214.311415 
L 198.908043 214.338667 
L 199.011217 214.122822 
L 199.475501 212.563632 
L 199.681849 212.536524 
L 199.83661 211.885654 
L 200.507242 206.576639 
L 201.023112 205.541625 
L 201.229461 205.603668 
L 201.59057 204.059119 
L 201.796918 203.542336 
L 201.900092 203.553353 
L 202.158028 203.977506 
L 202.261202 203.855595 
L 202.415963 203.796016 
L 202.622311 203.988378 
L 203.086595 203.146161 
L 203.189769 203.091656 
L 203.34453 202.590239 
L 204.015162 197.588394 
L 204.737381 191.311771 
L 205.304838 186.954419 
L 205.511186 185.836342 
L 206.284992 176.85694 
L 206.697689 167.336692 
L 206.85245 158.063311 
L 206.904037 145.674159 
L 206.955624 40.390291 
L 207.007211 102.670326 
L 207.161972 195.505029 
L 207.316733 205.74022 
L 207.677843 204.186394 
L 207.832604 204.144065 
L 208.193713 203.477104 
L 208.554823 202.095201 
L 209.328629 198.20346 
L 209.792912 196.13459 
L 209.947673 194.776605 
L 210.463544 189.913052 
L 210.773066 188.686546 
L 210.927827 188.628127 
L 211.23735 189.136501 
L 211.495285 189.541665 
L 211.856394 189.591241 
L 212.6302 190.838767 
L 212.784961 190.685544 
L 212.939723 190.04859 
L 213.249245 188.935442 
L 213.455593 188.874414 
L 213.610354 187.753728 
L 213.971464 184.806256 
L 214.796857 180.175799 
L 215.467488 172.059054 
L 215.931772 165.692845 
L 216.086533 159.001057 
L 216.13812 151.848731 
L 216.241294 67.767147 
L 216.396055 183.077318 
L 216.550817 201.22631 
L 216.757165 203.478989 
L 217.324622 206.879605 
L 217.530971 207.138069 
L 217.89208 207.391894 
L 218.150015 208.363561 
L 218.614299 210.655813 
L 218.665886 210.581449 
L 218.872234 209.969428 
L 219.284931 208.390668 
L 219.439692 208.410963 
L 219.64604 208.896289 
L 220.007149 210.528104 
L 221.090478 215.924095 
L 221.451587 217.071453 
L 221.657935 217.701159 
L 221.864284 217.534165 
L 222.019045 217.740009 
L 222.431741 218.918244 
L 223.360308 221.604932 
L 223.618243 222.093882 
L 224.03094 220.933332 
L 224.392049 219.840044 
L 224.598398 219.738282 
L 224.804746 219.911509 
L 225.217442 220.650081 
L 226.30077 222.661546 
L 226.403945 222.636323 
L 226.868228 222.19405 
L 227.126163 222.301175 
L 227.693621 222.704164 
L 228.106317 222.031839 
L 228.364253 222.079531 
L 228.776949 222.422652 
L 228.880123 222.473532 
L 229.499168 221.905289 
L 229.80869 222.169551 
L 229.860277 222.079386 
L 230.1698 221.334872 
L 230.324561 221.348208 
L 230.737257 221.580289 
L 230.995193 221.43069 
L 231.201541 221.549702 
L 231.614237 222.140559 
L 232.594391 223.572329 
L 233.265023 224.140138 
L 233.419784 224.201021 
L 233.884068 222.922908 
L 234.19359 221.967332 
L 234.657874 221.615369 
L 234.864222 221.623922 
L 235.122157 221.887314 
L 235.741202 222.672997 
L 236.050724 222.267979 
L 236.360247 221.312983 
L 236.515008 221.298632 
L 236.772943 221.635229 
L 236.82453 221.72206 
L 236.876117 221.629285 
L 237.391988 218.863739 
L 237.598336 218.796477 
L 237.804684 218.564251 
L 237.959445 218.722548 
L 238.268968 219.164386 
L 238.475316 218.939408 
L 238.630077 218.895195 
L 238.888012 218.954628 
L 239.094361 218.848228 
L 239.300709 219.154093 
L 239.971341 220.505411 
L 240.126102 220.565424 
L 240.384037 220.991461 
L 241.622126 223.513765 
L 241.828475 223.431718 
L 242.292758 223.026265 
L 242.757042 221.776855 
L 242.96339 221.606817 
L 243.169738 221.70336 
L 243.530847 222.210575 
L 244.304653 223.440126 
L 244.768937 222.220142 
L 245.026872 220.859548 
L 245.284807 220.073285 
L 245.439569 220.048352 
L 245.749091 220.167219 
L 245.955439 220.101697 
L 246.161787 220.359871 
L 246.316549 220.558611 
L 246.47131 219.712334 
L 246.729245 218.461185 
L 246.884006 218.341448 
L 247.399877 218.831412 
L 247.709399 219.562881 
L 248.122096 220.394661 
L 248.844314 221.968927 
L 248.947488 221.77439 
L 249.153837 221.468815 
L 249.308598 221.530278 
L 249.61812 222.020532 
L 249.772881 222.3019 
L 249.824468 222.221592 
L 250.133991 221.664076 
L 250.288752 221.726699 
L 250.598274 222.190426 
L 250.85621 222.55587 
L 251.010971 222.329442 
L 251.630015 220.876653 
L 251.836364 221.027122 
L 252.506995 221.757865 
L 252.713344 221.798599 
L 253.022866 222.152446 
L 253.12604 222.264065 
L 253.590324 221.693213 
L 253.745085 221.822952 
L 254.260955 220.115033 
L 254.312542 220.137502 
L 254.518891 220.439164 
L 254.828413 221.024947 
L 254.88 220.980444 
L 255.086348 220.878393 
L 255.292696 221.089744 
L 255.705393 221.604497 
L 255.963328 221.653494 
L 256.427612 222.036623 
L 256.479199 221.975015 
L 256.737134 221.848175 
L 257.046656 221.893837 
L 257.665701 221.041763 
L 257.872049 221.239343 
L 258.336333 222.127803 
L 258.90379 223.218192 
L 259.058552 222.922039 
L 259.316487 222.589935 
L 259.522835 222.604576 
L 259.729183 221.665236 
L 259.987119 220.885061 
L 260.14188 220.822293 
L 260.348228 221.027122 
L 260.65775 221.516217 
L 260.709337 221.454464 
L 261.173621 220.609927 
L 261.379969 220.752567 
L 261.741079 221.421413 
L 262.721233 223.416062 
L 262.824407 223.360833 
L 263.030755 222.933346 
L 263.391864 221.689154 
L 263.598213 221.620588 
L 263.856148 221.899926 
L 265.248998 224.059975 
L 265.300586 224.02359 
L 265.816456 223.491876 
L 266.125978 223.612628 
L 267.622003 224.758537 
L 267.67359 224.647643 
L 268.241048 222.86246 
L 268.55057 222.690828 
L 268.808505 221.996759 
L 268.963267 221.978059 
L 269.118028 222.031404 
L 269.324376 221.272539 
L 269.582311 220.800259 
L 269.737072 220.52498 
L 270.046595 219.664063 
L 270.201356 219.697114 
L 270.356117 219.784235 
L 270.562465 219.718568 
L 270.768814 219.987903 
L 271.18151 221.103516 
L 272.05849 223.443315 
L 272.110077 223.545077 
L 272.161664 223.474771 
L 272.471186 222.680245 
L 272.625948 222.690393 
L 272.93547 223.067868 
L 273.606102 223.977058 
L 274.070385 223.484918 
L 274.431495 223.445489 
L 274.68943 223.20616 
L 275.050539 222.654443 
L 275.256888 222.664735 
L 275.56641 222.975819 
L 276.030693 223.428384 
L 276.44339 223.457376 
L 276.856086 223.793103 
L 278.094176 224.931619 
L 278.816394 225.267781 
L 278.919569 225.1292 
L 279.177504 223.831953 
L 279.435439 222.990895 
L 279.641787 222.850573 
L 279.848136 222.973065 
L 280.364006 223.682499 
L 281.137812 224.650542 
L 281.395747 224.801445 
L 281.808444 223.489702 
L 282.014792 223.495935 
L 282.427488 223.900084 
L 282.479076 223.794118 
L 283.149707 221.739745 
L 283.356055 221.92196 
L 283.820339 222.842601 
L 284.233035 223.547976 
L 284.697319 223.160788 
L 285.006841 223.242545 
L 285.316364 222.864345 
L 285.522712 222.941028 
L 285.780647 223.053083 
L 286.141757 222.66546 
L 286.348105 222.804911 
L 286.554453 223.06091 
L 286.60604 222.969876 
L 287.121911 221.308344 
L 287.844129 221.611455 
L 288.617935 222.687348 
L 288.875871 222.674592 
L 289.030632 222.686624 
L 289.288567 222.256527 
L 289.598089 221.654219 
L 289.804438 221.662626 
L 290.062373 221.976465 
L 290.681418 223.050763 
L 290.733005 222.97002 
L 291.042527 222.540794 
L 291.248875 222.646035 
L 291.352049 222.631829 
L 291.661572 222.022997 
L 291.816333 222.069239 
L 292.125855 222.510932 
L 293.209183 224.280024 
L 293.518706 224.582266 
L 293.725054 223.84181 
L 294.653621 221.466785 
L 294.859969 221.612905 
L 295.117904 221.978494 
L 295.736949 220.222594 
L 296.149646 220.113729 
L 296.355994 220.275504 
L 296.820277 220.888395 
L 296.871864 220.850705 
L 297.078213 220.840993 
L 297.232974 220.874334 
L 297.490909 220.796925 
L 297.697257 221.002333 
L 298.109954 221.858032 
L 298.88376 223.490282 
L 298.986934 223.327492 
L 299.39963 222.187816 
L 299.605978 222.13795 
L 299.863914 222.384527 
L 300.121849 222.710252 
L 300.173436 222.637047 
L 300.431371 221.920075 
L 300.689307 221.128739 
L 300.844068 221.104965 
L 301.050416 221.382708 
L 301.359938 221.970666 
L 301.927396 219.915713 
L 302.133744 219.504607 
L 302.288505 219.613762 
L 302.701202 220.132573 
L 302.855963 220.177801 
L 303.113898 220.644572 
L 303.732943 222.033869 
L 303.939291 221.786712 
L 304.042465 221.469395 
L 304.455162 219.646668 
L 304.713097 218.571064 
L 305.125794 217.108128 
L 305.280555 217.266569 
L 305.590077 218.227364 
L 306.054361 219.60144 
L 306.41547 220.293769 
L 307.240863 222.130557 
L 307.344037 222.077647 
L 308.014669 220.501642 
L 308.221017 220.672984 
L 308.633713 221.475918 
L 309.613867 223.462884 
L 310.232912 224.20247 
L 310.387673 224.248713 
L 310.80037 223.29763 
L 311.780524 219.073351 
L 311.935285 219.102778 
L 312.141633 219.516783 
L 312.55433 220.334358 
L 312.812265 220.658778 
L 313.328136 221.901665 
L 314.101941 223.590739 
L 314.514638 224.104767 
L 314.978921 223.192389 
L 315.236857 223.321114 
L 315.443205 223.538119 
L 315.494792 223.473032 
L 315.855901 222.565002 
L 316.06225 222.628785 
L 316.474946 223.190795 
L 316.629707 223.333145 
L 316.784468 222.720109 
L 317.351926 220.45308 
L 317.506687 220.386543 
L 317.713035 220.657184 
L 318.280493 222.059237 
L 318.538428 222.500785 
L 319.054299 222.748377 
L 319.724931 223.597697 
L 320.447149 224.38338 
L 320.550324 224.309886 
L 321.582065 221.655378 
L 321.891587 220.7617 
L 322.046348 220.716327 
L 322.252696 220.961165 
L 322.71698 222.031404 
L 323.336025 223.320389 
L 323.903482 223.117445 
L 324.161418 223.334305 
L 324.832049 221.392856 
L 324.935223 221.373866 
L 325.244746 220.50773 
L 325.399507 220.589342 
L 325.709029 221.235429 
L 325.760616 221.354151 
L 325.812203 221.327769 
L 326.431248 220.420899 
L 326.637596 220.712993 
L 326.947119 221.155991 
L 327.308228 221.273554 
L 327.566163 221.123955 
L 327.772512 221.3053 
L 328.133621 221.996614 
L 328.185208 221.906304 
L 328.85584 218.492351 
L 329.113775 217.91657 
L 329.268536 217.98876 
L 329.526471 218.331445 
L 329.578059 218.29564 
L 329.73282 218.289842 
L 329.939168 218.64282 
L 330.403451 220.168958 
L 330.712974 220.95957 
L 331.022496 221.199624 
L 331.332018 221.709593 
L 331.383606 221.601163 
L 332.312173 218.503658 
L 332.466934 218.60542 
L 332.621695 218.608754 
L 332.828043 218.590779 
L 333.034391 218.920853 
L 333.498675 220.329429 
L 333.75661 220.948263 
L 334.427242 220.9242 
L 334.736764 221.354441 
L 335.613744 223.033078 
L 335.665331 222.944942 
L 336.38755 220.547739 
L 336.645485 220.6179 
L 337.212943 219.200916 
L 337.419291 218.990579 
L 337.574052 219.129885 
L 338.14151 219.988483 
L 338.554206 218.623975 
L 338.708968 218.711965 
L 338.966903 219.283688 
L 339.431186 220.467431 
L 339.843883 219.682473 
L 339.998644 219.822214 
L 340.308166 220.492074 
L 340.566102 220.938406 
L 340.824037 220.804318 
L 341.030385 221.016974 
L 341.081972 221.102066 
L 341.133559 221.070755 
L 341.443082 220.602824 
L 341.597843 220.724735 
L 341.752604 220.794606 
L 341.907365 220.467431 
L 342.423236 218.708921 
L 342.681171 218.087623 
L 342.835932 218.18721 
L 343.093867 218.801116 
L 344.589892 223.113096 
L 345.15735 223.891821 
L 345.415285 224.106072 
L 345.570046 223.733235 
L 345.879569 223.134405 
L 346.085917 223.105268 
L 346.343852 223.256606 
L 346.808136 222.077212 
L 346.91131 221.972116 
L 347.220832 221.401698 
L 347.375593 221.442432 
L 347.581941 221.648275 
L 347.633529 221.566228 
L 347.891464 221.154686 
L 347.994638 221.075103 
L 348.30416 220.332473 
L 348.458921 220.420754 
L 348.613683 220.534692 
L 348.923205 220.383934 
L 349.129553 220.672984 
L 349.748598 222.213184 
L 350.41923 223.586245 
L 350.573991 223.62437 
L 350.831926 223.401711 
L 351.81208 220.274054 
L 351.966841 220.142431 
L 352.121602 220.295653 
L 352.637473 221.012046 
L 352.843821 221.127579 
L 353.153344 221.660307 
L 353.669214 222.496726 
L 354.030324 222.459761 
L 354.391433 222.110118 
L 354.649368 222.04648 
L 355.113652 220.836064 
L 355.268413 220.861287 
L 355.526348 221.213975 
L 356.506502 223.205436 
L 356.558089 223.143538 
L 357.383482 221.647405 
L 357.641418 221.97516 
L 358.82792 223.854421 
L 359.34379 223.427079 
L 359.498552 222.644295 
L 359.808074 221.072929 
L 360.066009 220.654284 
L 360.375532 220.348564 
L 360.58188 220.298118 
L 360.839815 220.150404 
L 361.510447 220.626307 
L 361.97473 221.677557 
L 362.85171 223.634517 
L 363.419168 224.394832 
L 363.780277 224.598211 
L 364.296148 223.96749 
L 364.60567 224.032867 
L 365.224715 224.47688 
L 365.276302 224.353519 
L 365.585824 223.465204 
L 365.792173 223.396638 
L 366.101695 223.646259 
L 366.35963 223.837171 
L 366.772327 223.154555 
L 367.030262 223.071637 
L 367.339784 222.980313 
L 367.649307 223.209204 
L 368.010416 223.490282 
L 368.4747 223.052938 
L 368.732635 222.894061 
L 368.887396 222.840716 
L 369.300092 222.511367 
L 369.558028 222.685899 
L 369.815963 222.904499 
L 369.919137 222.687059 
L 370.228659 221.82875 
L 370.641356 221.361109 
L 370.847704 221.463886 
L 371.208814 222.02981 
L 371.879445 223.198188 
L 372.292142 223.030324 
L 372.446903 223.04482 
L 372.601664 221.887459 
L 372.859599 220.595576 
L 373.014361 220.531648 
L 373.220709 220.835919 
L 373.581818 221.752067 
L 373.581818 221.752067 
" style="fill:none;stroke:#ff0000;stroke-linecap:square;stroke-width:1.5;"/>
   </g>
   <g id="line2d_18">
    <path clip-path="url(#p0c8398b372)" d="M 321.994761 201.264 
L 373.478644 201.264 
L 373.478644 201.264 
" style="fill:none;stroke:#000000;stroke-linecap:square;stroke-width:1.5;"/>
   </g>
   <g id="line2d_19">
    <path clip-path="url(#p0c8398b372)" d="M 321.994761 179.52 
L 321.994761 178.0704 
L 321.994761 176.6208 
L 321.994761 175.1712 
L 321.994761 173.7216 
L 321.994761 172.272 
L 321.994761 170.8224 
L 321.994761 169.3728 
L 321.994761 167.9232 
L 321.994761 166.4736 
L 321.994761 165.024 
L 321.994761 163.5744 
L 321.994761 162.1248 
L 321.994761 160.6752 
L 321.994761 159.2256 
L 321.994761 157.776 
L 321.994761 156.3264 
L 321.994761 154.8768 
L 321.994761 153.4272 
L 321.994761 151.9776 
" style="fill:none;stroke:#000000;stroke-linecap:square;stroke-width:1.5;"/>
   </g>
   <g id="patch_3">
    <path d="M 54 252 
L 54 34.56 
" style="fill:none;stroke:#000000;stroke-linecap:square;stroke-linejoin:miter;stroke-width:0.8;"/>
   </g>
   <g id="patch_4">
    <path d="M 54 252 
L 388.8 252 
" style="fill:none;stroke:#000000;stroke-linecap:square;stroke-linejoin:miter;stroke-width:0.8;"/>
   </g>
   <g id="text_18">
    <!-- 500 ms -->
    <g transform="translate(321.994761 199.8144)scale(0.12 -0.12)">
     <use xlink:href="#DejaVuSans-35"/>
     <use x="63.623047" xlink:href="#DejaVuSans-30"/>
     <use x="127.246094" xlink:href="#DejaVuSans-30"/>
     <use x="190.869141" xlink:href="#DejaVuSans-20"/>
     <use x="222.65625" xlink:href="#DejaVuSans-6d"/>
     <use x="320.068359" xlink:href="#DejaVuSans-73"/>
    </g>
   </g>
   <g id="text_19">
    <!-- 20 mV -->
    <g transform="translate(327.153467 150.528)scale(0.12 -0.12)">
     <use xlink:href="#DejaVuSans-32"/>
     <use x="63.623047" xlink:href="#DejaVuSans-30"/>
     <use x="127.246094" xlink:href="#DejaVuSans-20"/>
     <use x="159.033203" xlink:href="#DejaVuSans-6d"/>
     <use x="256.445312" xlink:href="#DejaVuSans-56"/>
    </g>
   </g>
  </g>
 </g>
 <defs>
  <clipPath id="p0c8398b372">
   <rect height="217.44" width="334.8" x="54" y="34.56"/>
  </clipPath>
 </defs>
</svg>
