<?xml version="1.0" encoding="utf-8" standalone="no"?>
<!DOCTYPE svg PUBLIC "-//W3C//DTD SVG 1.1//EN"
  "http://www.w3.org/Graphics/SVG/1.1/DTD/svg11.dtd">
<svg xmlns:xlink="http://www.w3.org/1999/xlink" width="432pt" height="288pt" viewBox="0 0 432 288" xmlns="http://www.w3.org/2000/svg" version="1.1">
 <metadata>
  <rdf:RDF xmlns:dc="http://purl.org/dc/elements/1.1/" xmlns:cc="http://creativecommons.org/ns#" xmlns:rdf="http://www.w3.org/1999/02/22-rdf-syntax-ns#">
   <cc:Work>
    <dc:type rdf:resource="http://purl.org/dc/dcmitype/StillImage"/>
    <dc:date>2022-07-12T16:37:55.128470</dc:date>
    <dc:format>image/svg+xml</dc:format>
    <dc:creator>
     <cc:Agent>
      <dc:title>Matplotlib v3.5.2, https://matplotlib.org/</dc:title>
     </cc:Agent>
    </dc:creator>
   </cc:Work>
  </rdf:RDF>
 </metadata>
 <defs>
  <style type="text/css">*{stroke-linejoin: round; stroke-linecap: butt}</style>
 </defs>
 <g id="figure_1">
  <g id="patch_1">
   <path d="M 0 288 
L 432 288 
L 432 0 
L 0 0 
L 0 288 
z
" style="fill: none"/>
  </g>
  <g id="axes_1">
   <g id="patch_2">
    <path d="M 54 252 
L 388.8 252 
L 388.8 34.56 
L 54 34.56 
z
" style="fill: #ffffff"/>
   </g>
   <g id="matplotlib.axis_1">
    <g id="xtick_1">
     <g id="line2d_1">
      <defs>
       <path id="m1e65eaf9c3" d="M 0 0 
L 0 3.5 
" style="stroke: #000000; stroke-width: 0.8"/>
      </defs>
      <g>
       <use xlink:href="#m1e65eaf9c3" x="69.218182" y="252" style="stroke: #000000; stroke-width: 0.8"/>
      </g>
     </g>
     <g id="text_1">
      <!-- 0 -->
      <g transform="translate(66.036932 266.598437)scale(0.1 -0.1)">
       <defs>
        <path id="DejaVuSans-30" d="M 2034 4250 
Q 1547 4250 1301 3770 
Q 1056 3291 1056 2328 
Q 1056 1369 1301 889 
Q 1547 409 2034 409 
Q 2525 409 2770 889 
Q 3016 1369 3016 2328 
Q 3016 3291 2770 3770 
Q 2525 4250 2034 4250 
z
M 2034 4750 
Q 2819 4750 3233 4129 
Q 3647 3509 3647 2328 
Q 3647 1150 3233 529 
Q 2819 -91 2034 -91 
Q 1250 -91 836 529 
Q 422 1150 422 2328 
Q 422 3509 836 4129 
Q 1250 4750 2034 4750 
z
" transform="scale(0.015625)"/>
       </defs>
       <use xlink:href="#DejaVuSans-30"/>
      </g>
     </g>
    </g>
    <g id="xtick_2">
     <g id="line2d_2">
      <g>
       <use xlink:href="#m1e65eaf9c3" x="119.945032" y="252" style="stroke: #000000; stroke-width: 0.8"/>
      </g>
     </g>
     <g id="text_2">
      <!-- 10000 -->
      <g transform="translate(104.038782 266.598437)scale(0.1 -0.1)">
       <defs>
        <path id="DejaVuSans-31" d="M 794 531 
L 1825 531 
L 1825 4091 
L 703 3866 
L 703 4441 
L 1819 4666 
L 2450 4666 
L 2450 531 
L 3481 531 
L 3481 0 
L 794 0 
L 794 531 
z
" transform="scale(0.015625)"/>
       </defs>
       <use xlink:href="#DejaVuSans-31"/>
       <use xlink:href="#DejaVuSans-30" x="63.623047"/>
       <use xlink:href="#DejaVuSans-30" x="127.246094"/>
       <use xlink:href="#DejaVuSans-30" x="190.869141"/>
       <use xlink:href="#DejaVuSans-30" x="254.492188"/>
      </g>
     </g>
    </g>
    <g id="xtick_3">
     <g id="line2d_3">
      <g>
       <use xlink:href="#m1e65eaf9c3" x="170.671882" y="252" style="stroke: #000000; stroke-width: 0.8"/>
      </g>
     </g>
     <g id="text_3">
      <!-- 20000 -->
      <g transform="translate(154.765632 266.598437)scale(0.1 -0.1)">
       <defs>
        <path id="DejaVuSans-32" d="M 1228 531 
L 3431 531 
L 3431 0 
L 469 0 
L 469 531 
Q 828 903 1448 1529 
Q 2069 2156 2228 2338 
Q 2531 2678 2651 2914 
Q 2772 3150 2772 3378 
Q 2772 3750 2511 3984 
Q 2250 4219 1831 4219 
Q 1534 4219 1204 4116 
Q 875 4013 500 3803 
L 500 4441 
Q 881 4594 1212 4672 
Q 1544 4750 1819 4750 
Q 2544 4750 2975 4387 
Q 3406 4025 3406 3419 
Q 3406 3131 3298 2873 
Q 3191 2616 2906 2266 
Q 2828 2175 2409 1742 
Q 1991 1309 1228 531 
z
" transform="scale(0.015625)"/>
       </defs>
       <use xlink:href="#DejaVuSans-32"/>
       <use xlink:href="#DejaVuSans-30" x="63.623047"/>
       <use xlink:href="#DejaVuSans-30" x="127.246094"/>
       <use xlink:href="#DejaVuSans-30" x="190.869141"/>
       <use xlink:href="#DejaVuSans-30" x="254.492188"/>
      </g>
     </g>
    </g>
    <g id="xtick_4">
     <g id="line2d_4">
      <g>
       <use xlink:href="#m1e65eaf9c3" x="221.398732" y="252" style="stroke: #000000; stroke-width: 0.8"/>
      </g>
     </g>
     <g id="text_4">
      <!-- 30000 -->
      <g transform="translate(205.492482 266.598437)scale(0.1 -0.1)">
       <defs>
        <path id="DejaVuSans-33" d="M 2597 2516 
Q 3050 2419 3304 2112 
Q 3559 1806 3559 1356 
Q 3559 666 3084 287 
Q 2609 -91 1734 -91 
Q 1441 -91 1130 -33 
Q 819 25 488 141 
L 488 750 
Q 750 597 1062 519 
Q 1375 441 1716 441 
Q 2309 441 2620 675 
Q 2931 909 2931 1356 
Q 2931 1769 2642 2001 
Q 2353 2234 1838 2234 
L 1294 2234 
L 1294 2753 
L 1863 2753 
Q 2328 2753 2575 2939 
Q 2822 3125 2822 3475 
Q 2822 3834 2567 4026 
Q 2313 4219 1838 4219 
Q 1578 4219 1281 4162 
Q 984 4106 628 3988 
L 628 4550 
Q 988 4650 1302 4700 
Q 1616 4750 1894 4750 
Q 2613 4750 3031 4423 
Q 3450 4097 3450 3541 
Q 3450 3153 3228 2886 
Q 3006 2619 2597 2516 
z
" transform="scale(0.015625)"/>
       </defs>
       <use xlink:href="#DejaVuSans-33"/>
       <use xlink:href="#DejaVuSans-30" x="63.623047"/>
       <use xlink:href="#DejaVuSans-30" x="127.246094"/>
       <use xlink:href="#DejaVuSans-30" x="190.869141"/>
       <use xlink:href="#DejaVuSans-30" x="254.492188"/>
      </g>
     </g>
    </g>
    <g id="xtick_5">
     <g id="line2d_5">
      <g>
       <use xlink:href="#m1e65eaf9c3" x="272.125582" y="252" style="stroke: #000000; stroke-width: 0.8"/>
      </g>
     </g>
     <g id="text_5">
      <!-- 40000 -->
      <g transform="translate(256.219332 266.598437)scale(0.1 -0.1)">
       <defs>
        <path id="DejaVuSans-34" d="M 2419 4116 
L 825 1625 
L 2419 1625 
L 2419 4116 
z
M 2253 4666 
L 3047 4666 
L 3047 1625 
L 3713 1625 
L 3713 1100 
L 3047 1100 
L 3047 0 
L 2419 0 
L 2419 1100 
L 313 1100 
L 313 1709 
L 2253 4666 
z
" transform="scale(0.015625)"/>
       </defs>
       <use xlink:href="#DejaVuSans-34"/>
       <use xlink:href="#DejaVuSans-30" x="63.623047"/>
       <use xlink:href="#DejaVuSans-30" x="127.246094"/>
       <use xlink:href="#DejaVuSans-30" x="190.869141"/>
       <use xlink:href="#DejaVuSans-30" x="254.492188"/>
      </g>
     </g>
    </g>
    <g id="xtick_6">
     <g id="line2d_6">
      <g>
       <use xlink:href="#m1e65eaf9c3" x="322.852432" y="252" style="stroke: #000000; stroke-width: 0.8"/>
      </g>
     </g>
     <g id="text_6">
      <!-- 50000 -->
      <g transform="translate(306.946182 266.598437)scale(0.1 -0.1)">
       <defs>
        <path id="DejaVuSans-35" d="M 691 4666 
L 3169 4666 
L 3169 4134 
L 1269 4134 
L 1269 2991 
Q 1406 3038 1543 3061 
Q 1681 3084 1819 3084 
Q 2600 3084 3056 2656 
Q 3513 2228 3513 1497 
Q 3513 744 3044 326 
Q 2575 -91 1722 -91 
Q 1428 -91 1123 -41 
Q 819 9 494 109 
L 494 744 
Q 775 591 1075 516 
Q 1375 441 1709 441 
Q 2250 441 2565 725 
Q 2881 1009 2881 1497 
Q 2881 1984 2565 2268 
Q 2250 2553 1709 2553 
Q 1456 2553 1204 2497 
Q 953 2441 691 2322 
L 691 4666 
z
" transform="scale(0.015625)"/>
       </defs>
       <use xlink:href="#DejaVuSans-35"/>
       <use xlink:href="#DejaVuSans-30" x="63.623047"/>
       <use xlink:href="#DejaVuSans-30" x="127.246094"/>
       <use xlink:href="#DejaVuSans-30" x="190.869141"/>
       <use xlink:href="#DejaVuSans-30" x="254.492188"/>
      </g>
     </g>
    </g>
    <g id="xtick_7">
     <g id="line2d_7">
      <g>
       <use xlink:href="#m1e65eaf9c3" x="373.579282" y="252" style="stroke: #000000; stroke-width: 0.8"/>
      </g>
     </g>
     <g id="text_7">
      <!-- 60000 -->
      <g transform="translate(357.673032 266.598437)scale(0.1 -0.1)">
       <defs>
        <path id="DejaVuSans-36" d="M 2113 2584 
Q 1688 2584 1439 2293 
Q 1191 2003 1191 1497 
Q 1191 994 1439 701 
Q 1688 409 2113 409 
Q 2538 409 2786 701 
Q 3034 994 3034 1497 
Q 3034 2003 2786 2293 
Q 2538 2584 2113 2584 
z
M 3366 4563 
L 3366 3988 
Q 3128 4100 2886 4159 
Q 2644 4219 2406 4219 
Q 1781 4219 1451 3797 
Q 1122 3375 1075 2522 
Q 1259 2794 1537 2939 
Q 1816 3084 2150 3084 
Q 2853 3084 3261 2657 
Q 3669 2231 3669 1497 
Q 3669 778 3244 343 
Q 2819 -91 2113 -91 
Q 1303 -91 875 529 
Q 447 1150 447 2328 
Q 447 3434 972 4092 
Q 1497 4750 2381 4750 
Q 2619 4750 2861 4703 
Q 3103 4656 3366 4563 
z
" transform="scale(0.015625)"/>
       </defs>
       <use xlink:href="#DejaVuSans-36"/>
       <use xlink:href="#DejaVuSans-30" x="63.623047"/>
       <use xlink:href="#DejaVuSans-30" x="127.246094"/>
       <use xlink:href="#DejaVuSans-30" x="190.869141"/>
       <use xlink:href="#DejaVuSans-30" x="254.492188"/>
      </g>
     </g>
    </g>
    <g id="text_8">
     <!-- Time(ms) -->
     <g transform="translate(197.789844 280.276563)scale(0.1 -0.1)">
      <defs>
       <path id="DejaVuSans-54" d="M -19 4666 
L 3928 4666 
L 3928 4134 
L 2272 4134 
L 2272 0 
L 1638 0 
L 1638 4134 
L -19 4134 
L -19 4666 
z
" transform="scale(0.015625)"/>
       <path id="DejaVuSans-69" d="M 603 3500 
L 1178 3500 
L 1178 0 
L 603 0 
L 603 3500 
z
M 603 4863 
L 1178 4863 
L 1178 4134 
L 603 4134 
L 603 4863 
z
" transform="scale(0.015625)"/>
       <path id="DejaVuSans-6d" d="M 3328 2828 
Q 3544 3216 3844 3400 
Q 4144 3584 4550 3584 
Q 5097 3584 5394 3201 
Q 5691 2819 5691 2113 
L 5691 0 
L 5113 0 
L 5113 2094 
Q 5113 2597 4934 2840 
Q 4756 3084 4391 3084 
Q 3944 3084 3684 2787 
Q 3425 2491 3425 1978 
L 3425 0 
L 2847 0 
L 2847 2094 
Q 2847 2600 2669 2842 
Q 2491 3084 2119 3084 
Q 1678 3084 1418 2786 
Q 1159 2488 1159 1978 
L 1159 0 
L 581 0 
L 581 3500 
L 1159 3500 
L 1159 2956 
Q 1356 3278 1631 3431 
Q 1906 3584 2284 3584 
Q 2666 3584 2933 3390 
Q 3200 3197 3328 2828 
z
" transform="scale(0.015625)"/>
       <path id="DejaVuSans-65" d="M 3597 1894 
L 3597 1613 
L 953 1613 
Q 991 1019 1311 708 
Q 1631 397 2203 397 
Q 2534 397 2845 478 
Q 3156 559 3463 722 
L 3463 178 
Q 3153 47 2828 -22 
Q 2503 -91 2169 -91 
Q 1331 -91 842 396 
Q 353 884 353 1716 
Q 353 2575 817 3079 
Q 1281 3584 2069 3584 
Q 2775 3584 3186 3129 
Q 3597 2675 3597 1894 
z
M 3022 2063 
Q 3016 2534 2758 2815 
Q 2500 3097 2075 3097 
Q 1594 3097 1305 2825 
Q 1016 2553 972 2059 
L 3022 2063 
z
" transform="scale(0.015625)"/>
       <path id="DejaVuSans-28" d="M 1984 4856 
Q 1566 4138 1362 3434 
Q 1159 2731 1159 2009 
Q 1159 1288 1364 580 
Q 1569 -128 1984 -844 
L 1484 -844 
Q 1016 -109 783 600 
Q 550 1309 550 2009 
Q 550 2706 781 3412 
Q 1013 4119 1484 4856 
L 1984 4856 
z
" transform="scale(0.015625)"/>
       <path id="DejaVuSans-73" d="M 2834 3397 
L 2834 2853 
Q 2591 2978 2328 3040 
Q 2066 3103 1784 3103 
Q 1356 3103 1142 2972 
Q 928 2841 928 2578 
Q 928 2378 1081 2264 
Q 1234 2150 1697 2047 
L 1894 2003 
Q 2506 1872 2764 1633 
Q 3022 1394 3022 966 
Q 3022 478 2636 193 
Q 2250 -91 1575 -91 
Q 1294 -91 989 -36 
Q 684 19 347 128 
L 347 722 
Q 666 556 975 473 
Q 1284 391 1588 391 
Q 1994 391 2212 530 
Q 2431 669 2431 922 
Q 2431 1156 2273 1281 
Q 2116 1406 1581 1522 
L 1381 1569 
Q 847 1681 609 1914 
Q 372 2147 372 2553 
Q 372 3047 722 3315 
Q 1072 3584 1716 3584 
Q 2034 3584 2315 3537 
Q 2597 3491 2834 3397 
z
" transform="scale(0.015625)"/>
       <path id="DejaVuSans-29" d="M 513 4856 
L 1013 4856 
Q 1481 4119 1714 3412 
Q 1947 2706 1947 2009 
Q 1947 1309 1714 600 
Q 1481 -109 1013 -844 
L 513 -844 
Q 928 -128 1133 580 
Q 1338 1288 1338 2009 
Q 1338 2731 1133 3434 
Q 928 4138 513 4856 
z
" transform="scale(0.015625)"/>
      </defs>
      <use xlink:href="#DejaVuSans-54"/>
      <use xlink:href="#DejaVuSans-69" x="57.958984"/>
      <use xlink:href="#DejaVuSans-6d" x="85.742188"/>
      <use xlink:href="#DejaVuSans-65" x="183.154297"/>
      <use xlink:href="#DejaVuSans-28" x="244.677734"/>
      <use xlink:href="#DejaVuSans-6d" x="283.691406"/>
      <use xlink:href="#DejaVuSans-73" x="381.103516"/>
      <use xlink:href="#DejaVuSans-29" x="433.203125"/>
     </g>
    </g>
   </g>
   <g id="matplotlib.axis_2">
    <g id="ytick_1">
     <g id="line2d_8">
      <defs>
       <path id="m3a0f8c2e29" d="M 0 0 
L -3.5 0 
" style="stroke: #000000; stroke-width: 0.8"/>
      </defs>
      <g>
       <use xlink:href="#m3a0f8c2e29" x="54" y="252" style="stroke: #000000; stroke-width: 0.8"/>
      </g>
     </g>
     <g id="text_9">
      <!-- −100 -->
      <g transform="translate(19.532812 255.799219)scale(0.1 -0.1)">
       <defs>
        <path id="DejaVuSans-2212" d="M 678 2272 
L 4684 2272 
L 4684 1741 
L 678 1741 
L 678 2272 
z
" transform="scale(0.015625)"/>
       </defs>
       <use xlink:href="#DejaVuSans-2212"/>
       <use xlink:href="#DejaVuSans-31" x="83.789062"/>
       <use xlink:href="#DejaVuSans-30" x="147.412109"/>
       <use xlink:href="#DejaVuSans-30" x="211.035156"/>
      </g>
     </g>
    </g>
    <g id="ytick_2">
     <g id="line2d_9">
      <g>
       <use xlink:href="#m3a0f8c2e29" x="54" y="220.937143" style="stroke: #000000; stroke-width: 0.8"/>
      </g>
     </g>
     <g id="text_10">
      <!-- −80 -->
      <g transform="translate(25.895312 224.736362)scale(0.1 -0.1)">
       <defs>
        <path id="DejaVuSans-38" d="M 2034 2216 
Q 1584 2216 1326 1975 
Q 1069 1734 1069 1313 
Q 1069 891 1326 650 
Q 1584 409 2034 409 
Q 2484 409 2743 651 
Q 3003 894 3003 1313 
Q 3003 1734 2745 1975 
Q 2488 2216 2034 2216 
z
M 1403 2484 
Q 997 2584 770 2862 
Q 544 3141 544 3541 
Q 544 4100 942 4425 
Q 1341 4750 2034 4750 
Q 2731 4750 3128 4425 
Q 3525 4100 3525 3541 
Q 3525 3141 3298 2862 
Q 3072 2584 2669 2484 
Q 3125 2378 3379 2068 
Q 3634 1759 3634 1313 
Q 3634 634 3220 271 
Q 2806 -91 2034 -91 
Q 1263 -91 848 271 
Q 434 634 434 1313 
Q 434 1759 690 2068 
Q 947 2378 1403 2484 
z
M 1172 3481 
Q 1172 3119 1398 2916 
Q 1625 2713 2034 2713 
Q 2441 2713 2670 2916 
Q 2900 3119 2900 3481 
Q 2900 3844 2670 4047 
Q 2441 4250 2034 4250 
Q 1625 4250 1398 4047 
Q 1172 3844 1172 3481 
z
" transform="scale(0.015625)"/>
       </defs>
       <use xlink:href="#DejaVuSans-2212"/>
       <use xlink:href="#DejaVuSans-38" x="83.789062"/>
       <use xlink:href="#DejaVuSans-30" x="147.412109"/>
      </g>
     </g>
    </g>
    <g id="ytick_3">
     <g id="line2d_10">
      <g>
       <use xlink:href="#m3a0f8c2e29" x="54" y="189.874286" style="stroke: #000000; stroke-width: 0.8"/>
      </g>
     </g>
     <g id="text_11">
      <!-- −60 -->
      <g transform="translate(25.895312 193.673504)scale(0.1 -0.1)">
       <use xlink:href="#DejaVuSans-2212"/>
       <use xlink:href="#DejaVuSans-36" x="83.789062"/>
       <use xlink:href="#DejaVuSans-30" x="147.412109"/>
      </g>
     </g>
    </g>
    <g id="ytick_4">
     <g id="line2d_11">
      <g>
       <use xlink:href="#m3a0f8c2e29" x="54" y="158.811429" style="stroke: #000000; stroke-width: 0.8"/>
      </g>
     </g>
     <g id="text_12">
      <!-- −40 -->
      <g transform="translate(25.895312 162.610647)scale(0.1 -0.1)">
       <use xlink:href="#DejaVuSans-2212"/>
       <use xlink:href="#DejaVuSans-34" x="83.789062"/>
       <use xlink:href="#DejaVuSans-30" x="147.412109"/>
      </g>
     </g>
    </g>
    <g id="ytick_5">
     <g id="line2d_12">
      <g>
       <use xlink:href="#m3a0f8c2e29" x="54" y="127.748571" style="stroke: #000000; stroke-width: 0.8"/>
      </g>
     </g>
     <g id="text_13">
      <!-- −20 -->
      <g transform="translate(25.895312 131.54779)scale(0.1 -0.1)">
       <use xlink:href="#DejaVuSans-2212"/>
       <use xlink:href="#DejaVuSans-32" x="83.789062"/>
       <use xlink:href="#DejaVuSans-30" x="147.412109"/>
      </g>
     </g>
    </g>
    <g id="ytick_6">
     <g id="line2d_13">
      <g>
       <use xlink:href="#m3a0f8c2e29" x="54" y="96.685714" style="stroke: #000000; stroke-width: 0.8"/>
      </g>
     </g>
     <g id="text_14">
      <!-- 0 -->
      <g transform="translate(40.6375 100.484933)scale(0.1 -0.1)">
       <use xlink:href="#DejaVuSans-30"/>
      </g>
     </g>
    </g>
    <g id="ytick_7">
     <g id="line2d_14">
      <g>
       <use xlink:href="#m3a0f8c2e29" x="54" y="65.622857" style="stroke: #000000; stroke-width: 0.8"/>
      </g>
     </g>
     <g id="text_15">
      <!-- 20 -->
      <g transform="translate(34.275 69.422076)scale(0.1 -0.1)">
       <use xlink:href="#DejaVuSans-32"/>
       <use xlink:href="#DejaVuSans-30" x="63.623047"/>
      </g>
     </g>
    </g>
    <g id="ytick_8">
     <g id="line2d_15">
      <g>
       <use xlink:href="#m3a0f8c2e29" x="54" y="34.56" style="stroke: #000000; stroke-width: 0.8"/>
      </g>
     </g>
     <g id="text_16">
      <!-- 40 -->
      <g transform="translate(34.275 38.359219)scale(0.1 -0.1)">
       <use xlink:href="#DejaVuSans-34"/>
       <use xlink:href="#DejaVuSans-30" x="63.623047"/>
      </g>
     </g>
    </g>
    <g id="text_17">
     <!-- Membrane potential (mV) -->
     <g transform="translate(13.453125 207.691719)rotate(-90)scale(0.1 -0.1)">
      <defs>
       <path id="DejaVuSans-4d" d="M 628 4666 
L 1569 4666 
L 2759 1491 
L 3956 4666 
L 4897 4666 
L 4897 0 
L 4281 0 
L 4281 4097 
L 3078 897 
L 2444 897 
L 1241 4097 
L 1241 0 
L 628 0 
L 628 4666 
z
" transform="scale(0.015625)"/>
       <path id="DejaVuSans-62" d="M 3116 1747 
Q 3116 2381 2855 2742 
Q 2594 3103 2138 3103 
Q 1681 3103 1420 2742 
Q 1159 2381 1159 1747 
Q 1159 1113 1420 752 
Q 1681 391 2138 391 
Q 2594 391 2855 752 
Q 3116 1113 3116 1747 
z
M 1159 2969 
Q 1341 3281 1617 3432 
Q 1894 3584 2278 3584 
Q 2916 3584 3314 3078 
Q 3713 2572 3713 1747 
Q 3713 922 3314 415 
Q 2916 -91 2278 -91 
Q 1894 -91 1617 61 
Q 1341 213 1159 525 
L 1159 0 
L 581 0 
L 581 4863 
L 1159 4863 
L 1159 2969 
z
" transform="scale(0.015625)"/>
       <path id="DejaVuSans-72" d="M 2631 2963 
Q 2534 3019 2420 3045 
Q 2306 3072 2169 3072 
Q 1681 3072 1420 2755 
Q 1159 2438 1159 1844 
L 1159 0 
L 581 0 
L 581 3500 
L 1159 3500 
L 1159 2956 
Q 1341 3275 1631 3429 
Q 1922 3584 2338 3584 
Q 2397 3584 2469 3576 
Q 2541 3569 2628 3553 
L 2631 2963 
z
" transform="scale(0.015625)"/>
       <path id="DejaVuSans-61" d="M 2194 1759 
Q 1497 1759 1228 1600 
Q 959 1441 959 1056 
Q 959 750 1161 570 
Q 1363 391 1709 391 
Q 2188 391 2477 730 
Q 2766 1069 2766 1631 
L 2766 1759 
L 2194 1759 
z
M 3341 1997 
L 3341 0 
L 2766 0 
L 2766 531 
Q 2569 213 2275 61 
Q 1981 -91 1556 -91 
Q 1019 -91 701 211 
Q 384 513 384 1019 
Q 384 1609 779 1909 
Q 1175 2209 1959 2209 
L 2766 2209 
L 2766 2266 
Q 2766 2663 2505 2880 
Q 2244 3097 1772 3097 
Q 1472 3097 1187 3025 
Q 903 2953 641 2809 
L 641 3341 
Q 956 3463 1253 3523 
Q 1550 3584 1831 3584 
Q 2591 3584 2966 3190 
Q 3341 2797 3341 1997 
z
" transform="scale(0.015625)"/>
       <path id="DejaVuSans-6e" d="M 3513 2113 
L 3513 0 
L 2938 0 
L 2938 2094 
Q 2938 2591 2744 2837 
Q 2550 3084 2163 3084 
Q 1697 3084 1428 2787 
Q 1159 2491 1159 1978 
L 1159 0 
L 581 0 
L 581 3500 
L 1159 3500 
L 1159 2956 
Q 1366 3272 1645 3428 
Q 1925 3584 2291 3584 
Q 2894 3584 3203 3211 
Q 3513 2838 3513 2113 
z
" transform="scale(0.015625)"/>
       <path id="DejaVuSans-20" transform="scale(0.015625)"/>
       <path id="DejaVuSans-70" d="M 1159 525 
L 1159 -1331 
L 581 -1331 
L 581 3500 
L 1159 3500 
L 1159 2969 
Q 1341 3281 1617 3432 
Q 1894 3584 2278 3584 
Q 2916 3584 3314 3078 
Q 3713 2572 3713 1747 
Q 3713 922 3314 415 
Q 2916 -91 2278 -91 
Q 1894 -91 1617 61 
Q 1341 213 1159 525 
z
M 3116 1747 
Q 3116 2381 2855 2742 
Q 2594 3103 2138 3103 
Q 1681 3103 1420 2742 
Q 1159 2381 1159 1747 
Q 1159 1113 1420 752 
Q 1681 391 2138 391 
Q 2594 391 2855 752 
Q 3116 1113 3116 1747 
z
" transform="scale(0.015625)"/>
       <path id="DejaVuSans-6f" d="M 1959 3097 
Q 1497 3097 1228 2736 
Q 959 2375 959 1747 
Q 959 1119 1226 758 
Q 1494 397 1959 397 
Q 2419 397 2687 759 
Q 2956 1122 2956 1747 
Q 2956 2369 2687 2733 
Q 2419 3097 1959 3097 
z
M 1959 3584 
Q 2709 3584 3137 3096 
Q 3566 2609 3566 1747 
Q 3566 888 3137 398 
Q 2709 -91 1959 -91 
Q 1206 -91 779 398 
Q 353 888 353 1747 
Q 353 2609 779 3096 
Q 1206 3584 1959 3584 
z
" transform="scale(0.015625)"/>
       <path id="DejaVuSans-74" d="M 1172 4494 
L 1172 3500 
L 2356 3500 
L 2356 3053 
L 1172 3053 
L 1172 1153 
Q 1172 725 1289 603 
Q 1406 481 1766 481 
L 2356 481 
L 2356 0 
L 1766 0 
Q 1100 0 847 248 
Q 594 497 594 1153 
L 594 3053 
L 172 3053 
L 172 3500 
L 594 3500 
L 594 4494 
L 1172 4494 
z
" transform="scale(0.015625)"/>
       <path id="DejaVuSans-6c" d="M 603 4863 
L 1178 4863 
L 1178 0 
L 603 0 
L 603 4863 
z
" transform="scale(0.015625)"/>
       <path id="DejaVuSans-56" d="M 1831 0 
L 50 4666 
L 709 4666 
L 2188 738 
L 3669 4666 
L 4325 4666 
L 2547 0 
L 1831 0 
z
" transform="scale(0.015625)"/>
      </defs>
      <use xlink:href="#DejaVuSans-4d"/>
      <use xlink:href="#DejaVuSans-65" x="86.279297"/>
      <use xlink:href="#DejaVuSans-6d" x="147.802734"/>
      <use xlink:href="#DejaVuSans-62" x="245.214844"/>
      <use xlink:href="#DejaVuSans-72" x="308.691406"/>
      <use xlink:href="#DejaVuSans-61" x="349.804688"/>
      <use xlink:href="#DejaVuSans-6e" x="411.083984"/>
      <use xlink:href="#DejaVuSans-65" x="474.462891"/>
      <use xlink:href="#DejaVuSans-20" x="535.986328"/>
      <use xlink:href="#DejaVuSans-70" x="567.773438"/>
      <use xlink:href="#DejaVuSans-6f" x="631.25"/>
      <use xlink:href="#DejaVuSans-74" x="692.431641"/>
      <use xlink:href="#DejaVuSans-65" x="731.640625"/>
      <use xlink:href="#DejaVuSans-6e" x="793.164062"/>
      <use xlink:href="#DejaVuSans-74" x="856.542969"/>
      <use xlink:href="#DejaVuSans-69" x="895.751953"/>
      <use xlink:href="#DejaVuSans-61" x="923.535156"/>
      <use xlink:href="#DejaVuSans-6c" x="984.814453"/>
      <use xlink:href="#DejaVuSans-20" x="1012.597656"/>
      <use xlink:href="#DejaVuSans-28" x="1044.384766"/>
      <use xlink:href="#DejaVuSans-6d" x="1083.398438"/>
      <use xlink:href="#DejaVuSans-56" x="1180.810547"/>
      <use xlink:href="#DejaVuSans-29" x="1249.21875"/>
     </g>
    </g>
   </g>
   <g id="line2d_16">
    <path d="M 69.218182 230.256 
L 69.2892 229.079902 
L 69.347536 229.286883 
L 70.214973 233.559646 
L 70.478755 233.40183 
L 70.719709 233.428509 
L 70.821164 233.412559 
L 70.838918 233.376671 
L 71.356336 232.416907 
L 71.369018 232.423008 
L 71.587145 232.663125 
L 71.947309 233.220952 
L 72.015791 233.13232 
L 72.223773 232.531094 
L 72.594082 231.438255 
L 72.845182 231.044333 
L 73.141936 230.182819 
L 73.497027 230.12826 
L 73.692327 230.21048 
L 73.938355 230.62609 
L 74.481136 232.109972 
L 75.300382 234.145034 
L 75.876136 235.007199 
L 76.456964 235.491119 
L 76.926191 235.643809 
L 77.093591 235.309532 
L 77.6313 233.652217 
L 77.935664 232.646915 
L 78.138573 232.555043 
L 78.354164 232.742375 
L 78.432791 232.832746 
L 78.470836 232.721937 
L 78.851291 231.493372 
L 79.000936 231.575619 
L 79.269791 232.061732 
L 80.550655 234.65328 
L 80.999591 235.109635 
L 81.019882 235.082503 
L 81.156845 234.562199 
L 81.489109 233.595256 
L 81.638755 233.243153 
L 81.993845 231.575285 
L 82.166318 231.530384 
L 82.369227 231.790231 
L 82.906936 232.975181 
L 83.632336 234.343168 
L 84.228382 235.009751 
L 84.872618 235.399159 
L 85.100891 235.459276 
L 85.121182 235.384345 
L 85.669036 233.292855 
L 85.866873 233.335691 
L 86.206745 233.70323 
L 87.086864 234.76365 
L 87.112227 234.713175 
L 87.294845 233.795641 
L 87.5637 233.055538 
L 87.761536 233.01199 
L 88.015173 233.239392 
L 89.379736 234.912322 
L 89.427927 234.822462 
L 89.744973 233.580303 
L 90.287755 231.102543 
L 90.447545 231.212916 
L 90.7443 231.771456 
L 91.964291 234.274091 
L 92.560336 234.908141 
L 93.219791 235.285337 
L 94.110055 235.521001 
L 95.002855 235.56775 
L 95.1804 234.38791 
L 95.449255 233.460562 
L 95.662309 233.340619 
L 95.9616 233.27998 
L 96.719973 231.31289 
L 96.927955 231.240102 
L 97.143545 231.439363 
L 97.549364 232.193372 
L 98.5842 234.138867 
L 98.629855 234.109614 
L 98.652682 234.054908 
L 99.307064 231.804038 
L 99.558164 231.256764 
L 99.730636 231.282238 
L 99.976664 231.617148 
L 100.154209 231.836285 
L 100.199864 231.790829 
L 100.623436 231.396165 
L 100.841564 231.629746 
L 101.3184 232.564459 
L 102.160473 234.093321 
L 102.414109 234.336056 
L 102.444545 234.303263 
L 102.693109 233.765476 
L 103.005082 233.374893 
L 103.253645 233.384599 
L 103.608736 233.664783 
L 104.580164 234.613975 
L 104.620745 234.546865 
L 105.313173 233.216334 
L 105.3918 233.125011 
L 105.901609 232.033541 
L 106.134955 231.948305 
L 106.629545 230.223353 
L 106.941518 228.150193 
L 107.225591 227.098503 
L 107.486836 226.372037 
L 107.626336 226.40945 
L 107.793736 226.643538 
L 107.859682 226.513501 
L 108.427827 225.082572 
L 108.511527 225.168833 
L 108.7119 225.700542 
L 109.188736 226.975061 
L 109.363745 227.113547 
L 109.597091 227.681894 
L 110.208355 229.980978 
L 110.7486 231.783206 
L 110.779036 231.723303 
L 111.200073 230.621408 
L 111.207682 230.623949 
L 111.387764 230.811376 
L 111.803727 231.670762 
L 112.440355 232.898427 
L 112.458109 232.887527 
L 112.628045 232.605874 
L 112.927336 231.786564 
L 113.269745 230.705904 
L 113.467582 230.643499 
L 113.683173 230.858712 
L 114.114355 231.685606 
L 114.781418 233.016858 
L 114.819464 232.948509 
L 115.374927 231.715123 
L 115.587982 231.856424 
L 115.976045 232.391656 
L 116.031845 232.185349 
L 116.698909 229.146323 
L 116.706518 229.147945 
L 116.868845 229.303415 
L 117.178282 229.990457 
L 118.129418 232.430757 
L 118.185218 232.370422 
L 118.613864 231.881415 
L 118.8396 232.03935 
L 119.164255 232.408914 
L 119.225127 232.300541 
L 119.897264 230.331976 
L 120.133145 229.890471 
L 120.2904 229.956504 
L 120.341127 229.969836 
L 120.379173 229.897846 
L 120.473018 229.326902 
L 120.812891 227.116216 
L 120.944782 227.042351 
L 120.967609 227.058732 
L 121.132473 227.353253 
L 121.495173 228.576843 
L 122.245936 231.291157 
L 122.289055 231.207486 
L 122.973873 229.454662 
L 123.146345 229.446683 
L 123.356864 229.735495 
L 123.564845 230.121239 
L 123.628255 230.020921 
L 123.990955 229.453019 
L 124.158355 229.595284 
L 124.462718 230.225759 
L 125.3403 232.361501 
L 125.401173 232.284818 
L 125.824745 231.707645 
L 126.0378 231.846181 
L 126.212809 232.034343 
L 126.255927 231.927572 
L 126.788564 230.282978 
L 126.963573 230.427357 
L 127.295836 231.069046 
L 128.498073 233.547036 
L 128.736491 233.84604 
L 128.769464 233.75522 
L 129.286882 231.957251 
L 129.477109 232.013531 
L 129.794155 232.408612 
L 129.865173 232.508683 
L 129.905755 232.390623 
L 130.298891 231.107913 
L 130.458682 231.16807 
L 130.757973 231.45703 
L 130.818845 231.370309 
L 131.678673 230.11935 
L 131.879045 230.315065 
L 132.249355 231.065907 
L 133.230927 233.213089 
L 133.261364 233.178927 
L 133.441445 232.609365 
L 133.700155 232.177049 
L 133.900527 232.204106 
L 134.204891 232.530754 
L 134.643682 233.168652 
L 134.6868 233.012679 
L 135.064718 231.550639 
L 135.237191 231.548916 
L 135.480682 231.846303 
L 137.136927 234.316328 
L 137.205409 234.147829 
L 137.702536 232.674449 
L 137.915591 232.660342 
L 138.278291 232.706512 
L 138.722155 232.066622 
L 138.940282 232.139255 
L 139.280155 232.545178 
L 140.114618 233.797624 
L 140.157736 233.659494 
L 140.553409 232.214871 
L 140.736027 232.212856 
L 140.999809 232.502898 
L 142.531773 234.515526 
L 143.236882 234.92466 
L 144.056127 235.146897 
L 144.124609 234.820108 
L 144.672464 231.519289 
L 144.8703 231.415421 
L 145.027555 231.391563 
L 145.0377 231.359126 
L 145.451127 230.341459 
L 145.608382 230.47235 
L 145.808755 230.797563 
L 145.869627 230.660829 
L 146.191745 229.96775 
L 146.338855 230.087963 
L 146.511327 230.349454 
L 146.5722 230.239859 
L 146.891782 229.727764 
L 147.049036 229.87019 
L 147.340718 230.52082 
L 148.649482 233.738503 
L 149.235382 234.480219 
L 149.866936 234.925259 
L 150.100282 234.922813 
L 150.364064 234.195367 
L 150.681109 233.681497 
L 150.934745 233.639296 
L 151.267009 233.84885 
L 152.930864 235.162947 
L 153.027245 235.137507 
L 153.042464 235.096356 
L 153.197182 234.239077 
L 153.572564 232.531363 
L 153.816055 232.25431 
L 154.018964 232.328985 
L 154.559209 232.640135 
L 154.891473 232.471072 
L 155.145109 232.618808 
L 155.581364 233.190598 
L 155.954209 233.696889 
L 156.0024 233.63085 
L 156.555327 232.755887 
L 156.796282 232.923443 
L 157.191955 233.357406 
L 157.255364 233.252305 
L 157.684009 232.576132 
L 158.051782 232.418333 
L 158.391655 232.099847 
L 158.619927 232.186027 
L 158.962336 232.60605 
L 159.231191 232.990966 
L 159.281918 232.899806 
L 159.733391 231.980968 
L 159.926155 232.090879 
L 160.276173 232.616021 
L 161.222236 234.163666 
L 161.2476 234.122627 
L 161.420073 233.392823 
L 161.658491 231.885095 
L 162.092209 229.535254 
L 162.287509 229.328536 
L 162.442227 229.491939 
L 162.744055 230.224538 
L 162.878482 230.574568 
L 162.939355 230.452987 
L 163.231036 229.932584 
L 163.400973 229.830436 
L 163.710409 229.637214 
L 163.903173 229.821081 
L 164.235436 230.51764 
L 165.176427 232.858955 
L 165.242373 232.764129 
L 165.561955 231.817989 
L 166.284818 228.771043 
L 166.426855 228.825138 
L 166.710927 229.152782 
L 166.784482 229.068443 
L 167.017827 228.955029 
L 167.200445 229.173496 
L 167.545391 230.022609 
L 168.788209 233.278341 
L 169.379182 234.132283 
L 169.480636 234.210296 
L 169.521218 234.129777 
L 170.1477 232.619387 
L 170.378509 232.729795 
L 170.827445 233.262583 
L 170.992309 233.441064 
L 171.035427 233.358671 
L 171.583282 232.084 
L 171.697418 231.645205 
L 172.3239 229.243392 
L 172.476082 229.309729 
L 172.7145 229.741427 
L 172.744936 229.789514 
L 172.793127 229.645728 
L 173.112709 228.726401 
L 173.2446 228.827978 
L 173.490627 229.393553 
L 173.652955 229.794098 
L 173.703682 229.677987 
L 173.888836 228.439496 
L 174.3606 225.107319 
L 174.507709 225.037769 
L 174.522927 225.048336 
L 174.631991 225.066735 
L 174.662427 225.022377 
L 174.926209 224.803739 
L 175.080927 225.022854 
L 175.359927 225.897738 
L 175.5324 226.408993 
L 175.590736 226.355789 
L 175.803791 226.245625 
L 175.808864 226.249732 
L 175.971191 226.531978 
L 176.308527 227.678714 
L 176.650936 228.868175 
L 176.694055 228.762692 
L 177.992673 222.821814 
L 178.718073 219.886975 
L 178.751045 219.90531 
L 178.888009 220.169416 
L 179.083309 220.769596 
L 179.156864 220.609918 
L 179.4105 220.12213 
L 179.420645 220.126078 
L 179.547464 220.312858 
L 179.679355 220.657068 
L 179.752909 220.518907 
L 179.910164 220.337745 
L 179.9406 220.35971 
L 180.077564 220.658038 
L 180.364173 221.944389 
L 180.490991 222.332802 
L 180.534109 222.264602 
L 180.633027 221.630503 
L 181.272191 216.564123 
L 181.457345 215.689182 
L 181.716055 214.628542 
L 181.827655 214.070153 
L 182.096509 213.090822 
L 182.208109 213.155213 
L 182.380582 213.634596 
L 182.555591 213.863217 
L 182.720455 214.109241 
L 182.961409 214.981302 
L 183.646227 217.646043 
L 183.859282 217.852692 
L 184.0977 218.48594 
L 184.424891 219.866313 
L 184.518736 219.588614 
L 184.7952 219.037137 
L 185.160436 218.444182 
L 185.312618 218.538341 
L 185.4369 218.646265 
L 185.482555 218.582105 
L 185.6043 218.075911 
L 186.083673 215.058023 
L 186.347455 214.660716 
L 186.560509 214.677294 
L 186.6924 214.62114 
L 186.788782 214.320953 
L 187.240255 212.532729 
L 187.471064 212.282633 
L 187.744991 210.313431 
L 188.556627 202.288633 
L 188.774755 201.773757 
L 188.901573 201.855158 
L 189.099409 202.341195 
L 189.256664 202.605546 
L 189.289636 202.59529 
L 189.561027 202.407202 
L 189.743645 202.379455 
L 189.9009 202.66999 
L 190.253455 203.497481 
L 190.288964 203.429463 
L 190.557818 202.83311 
L 190.590791 202.854888 
L 190.727755 203.144686 
L 190.991536 204.341313 
L 191.625627 208.418254 
L 191.760055 208.074028 
L 191.869118 207.05021 
L 192.196309 204.506587 
L 192.333273 204.350766 
L 192.363709 204.365329 
L 192.480382 204.286261 
L 192.680755 204.193834 
L 192.6909 204.202896 
L 192.812645 204.369034 
L 192.876055 204.230951 
L 193.030773 204.034095 
L 193.061209 204.05518 
L 193.1931 204.350331 
L 193.477173 205.383526 
L 193.565945 205.227732 
L 193.852555 204.198254 
L 193.984445 201.797264 
L 194.359827 196.470746 
L 194.823982 192.997865 
L 195.602645 189.323029 
L 195.813164 188.504276 
L 196.2342 185.109381 
L 196.913945 177.217688 
L 197.119391 170.392287 
L 197.236064 158.387235 
L 197.286791 124.748162 
L 197.3223 50.421784 
L 197.395855 127.134752 
L 197.553109 184.017255 
L 197.791527 208.134269 
L 198.050236 215.215306 
L 198.123791 215.574742 
L 198.179591 215.42413 
L 198.435764 213.567053 
L 199.407191 208.240718 
L 199.967727 206.523475 
L 199.982945 206.52908 
L 200.124982 206.721168 
L 200.383691 207.548558 
L 200.495291 207.740848 
L 200.538409 207.667499 
L 200.756536 206.634771 
L 200.972127 206.234755 
L 201.073582 206.137145 
L 201.885218 203.656051 
L 202.301182 200.234175 
L 202.603009 198.828116 
L 203.084918 194.340026 
L 203.341091 193.691039 
L 203.490736 193.71661 
L 203.668282 194.057281 
L 204.309982 195.50971 
L 204.515427 195.848973 
L 204.893345 196.48081 
L 205.1064 196.700769 
L 205.529973 197.222499 
L 205.578164 197.173549 
L 205.588309 197.136783 
L 205.697373 196.132828 
L 206.085436 192.954467 
L 206.587636 190.624127 
L 207.135491 184.972283 
L 207.480436 177.087876 
L 207.6453 166.505854 
L 207.718855 144.146584 
L 207.764509 41.999713 
L 207.843136 128.505246 
L 207.997855 191.905696 
L 208.2033 210.323466 
L 208.446791 214.805659 
L 208.697891 216.076047 
L 208.877973 216.165669 
L 209.108782 216.266467 
L 209.316764 216.690614 
L 209.638882 217.951999 
L 210.0447 219.358355 
L 210.204491 219.548676 
L 210.432764 220.278098 
L 210.9096 222.727887 
L 211.751673 227.183906 
L 211.789718 227.083725 
L 211.952045 225.691436 
L 212.258945 223.96416 
L 212.776364 222.025195 
L 212.905718 222.070046 
L 213.090873 222.49281 
L 213.484009 224.074553 
L 214.906909 230.095158 
L 215.130109 230.641966 
L 215.175764 230.580508 
L 215.3178 229.827585 
L 215.619627 228.720417 
L 215.794636 228.287472 
L 216.507355 224.092617 
L 216.651927 224.103625 
L 216.834545 224.446128 
L 217.202318 225.712582 
L 217.329136 226.12618 
L 217.390009 226.005905 
L 217.681691 225.47272 
L 217.775536 225.385402 
L 217.879527 224.887666 
L 218.206718 223.485918 
L 218.336073 223.484423 
L 218.348755 223.49733 
L 218.391873 223.522656 
L 218.434991 223.435527 
L 218.706382 222.977563 
L 218.716527 222.982123 
L 218.856027 223.181735 
L 219.127418 224.059041 
L 219.827455 226.899881 
L 219.928909 226.783704 
L 220.091236 225.988004 
L 220.344873 225.277425 
L 220.4793 225.067891 
L 220.705036 222.687114 
L 220.961209 221.417851 
L 221.318836 219.585588 
L 221.648564 217.558086 
L 221.7627 217.492875 
L 221.795673 217.521284 
L 221.950391 217.868317 
L 222.2649 219.244264 
L 224.423345 229.922911 
L 225.037145 231.432856 
L 225.648409 232.374059 
L 226.318009 233.003447 
L 226.3941 233.046342 
L 226.424536 232.943697 
L 227.614091 227.61081 
L 227.882945 227.122736 
L 228.007227 226.839242 
L 228.309055 226.263426 
L 228.456164 226.354857 
L 228.689509 226.84423 
L 229.222145 228.620113 
L 230.130164 231.451849 
L 230.749036 232.677654 
L 231.3603 233.417722 
L 232.050191 233.905396 
L 232.968355 234.266791 
L 233.485773 234.303134 
L 234.127473 232.453817 
L 234.355745 232.526013 
L 234.771709 232.954251 
L 235.426091 233.697242 
L 235.456527 233.60624 
L 235.948582 231.767868 
L 236.1312 231.825903 
L 236.448245 232.233218 
L 237.602291 233.852248 
L 237.607364 233.848565 
L 237.716427 233.612029 
L 238.155218 232.658779 
L 238.393636 232.610605 
L 238.687855 232.817351 
L 239.253464 233.446301 
L 239.316873 233.299387 
L 239.7024 231.696838 
L 239.910382 230.366049 
L 240.189382 229.241896 
L 240.369464 229.170294 
L 240.554618 229.402407 
L 240.932536 230.32177 
L 241.066964 230.586772 
L 241.120227 230.524284 
L 241.282555 230.006743 
L 241.673155 228.5533 
L 241.827873 228.573073 
L 242.033318 228.919323 
L 242.497473 230.259824 
L 243.390273 232.704152 
L 243.976173 233.681671 
L 244.052264 233.598424 
L 244.699036 232.266476 
L 244.9476 232.416488 
L 245.459945 233.062557 
L 246.142227 233.868783 
L 246.162518 233.845969 
L 246.289336 233.441184 
L 247.111118 229.444593 
L 247.438309 227.162987 
L 247.580345 227.054251 
L 247.603173 227.068593 
L 247.762964 227.338032 
L 248.107909 228.470067 
L 248.409736 229.435409 
L 248.465536 229.392992 
L 248.711564 229.288253 
L 248.899255 229.546378 
L 249.305073 230.592314 
L 250.235918 232.930578 
L 250.4997 233.372274 
L 250.537745 233.270342 
L 250.8345 231.398749 
L 251.138864 229.687381 
L 251.679109 227.655156 
L 251.897236 227.404025 
L 252.049418 227.540018 
L 252.310664 228.15055 
L 253.046209 230.66532 
L 253.753855 232.645765 
L 254.192645 233.345046 
L 254.362582 233.190274 
L 254.4615 232.894427 
L 255.559745 227.681849 
L 255.706855 227.700035 
L 255.899618 228.050939 
L 256.3308 229.420247 
L 257.228673 232.18297 
L 257.231209 232.182195 
L 257.297155 232.020069 
L 257.634491 231.211058 
L 257.806964 231.263421 
L 258.0048 231.492056 
L 258.045382 231.336082 
L 258.430909 229.71929 
L 258.583091 229.750235 
L 258.808827 230.115052 
L 259.536764 231.922684 
L 260.224118 233.264467 
L 260.840455 234.000565 
L 261.068727 234.164409 
L 261.1017 234.093024 
L 261.710427 232.599638 
L 261.941236 232.724354 
L 262.448509 233.335886 
L 263.310873 234.275507 
L 263.399645 234.305325 
L 263.435155 234.241589 
L 263.998227 233.204513 
L 264.249327 233.291094 
L 264.7566 233.775433 
L 265.6773 234.583764 
L 266.466109 234.964164 
L 267.541527 235.215829 
L 267.899155 235.166271 
L 268.485055 233.240072 
L 268.781809 232.987444 
L 269.159727 232.111268 
L 269.349955 232.134477 
L 269.626418 232.455738 
L 271.115264 234.574056 
L 271.138091 234.544006 
L 271.2852 234.020362 
L 271.612391 233.150117 
L 271.830518 233.074024 
L 272.089227 233.258014 
L 272.5965 233.772596 
L 272.654836 233.69348 
L 272.842527 233.177127 
L 273.197618 229.901164 
L 273.715036 224.716652 
L 273.884973 224.474696 
L 273.900191 224.480855 
L 274.034618 224.680972 
L 274.110709 224.847359 
L 274.169045 224.719853 
L 274.379564 224.353686 
L 274.399855 224.36382 
L 274.529209 224.592752 
L 274.792991 225.633199 
L 275.586873 228.909965 
L 275.825291 229.207553 
L 276.1956 230.141887 
L 276.979336 232.235159 
L 277.017382 232.2077 
L 277.5348 231.827599 
L 277.801118 232.080842 
L 277.861991 232.112386 
L 277.902573 232.0322 
L 278.057291 231.162524 
L 278.666018 227.916108 
L 278.813127 227.929757 
L 279.005891 228.270612 
L 279.426927 229.583589 
L 280.395818 232.549792 
L 280.728082 233.162868 
L 280.761055 233.128382 
L 280.9665 232.59111 
L 281.232818 232.225071 
L 281.438264 232.273591 
L 281.765455 232.641109 
L 283.112264 234.334877 
L 283.259373 234.431374 
L 283.292345 234.347986 
L 284.311964 231.000455 
L 284.489509 231.102474 
L 284.801482 231.609506 
L 285.113455 232.181851 
L 285.169255 232.097693 
L 285.382309 231.332166 
L 285.783055 229.606557 
L 285.952991 229.57583 
L 286.029082 229.545403 
L 286.049373 229.505106 
L 286.237064 228.803911 
L 286.594691 227.46373 
L 286.754482 227.453097 
L 286.939636 227.756967 
L 287.309945 228.892884 
L 288.486818 232.65162 
L 289.070182 233.719074 
L 289.656082 234.347437 
L 290.026391 234.557415 
L 290.046682 234.522968 
L 290.219155 233.891774 
L 291.0105 231.122157 
L 291.200727 231.218619 
L 291.515236 231.689498 
L 291.946418 232.498448 
L 292.012364 232.38033 
L 292.296436 231.324568 
L 292.605873 230.023325 
L 292.679427 229.652677 
L 292.973645 228.445171 
L 293.113145 228.469017 
L 293.308445 228.851843 
L 293.894345 230.429132 
L 293.998336 230.364218 
L 294.216464 230.353474 
L 294.4422 230.630515 
L 294.924109 231.673743 
L 295.829591 233.528373 
L 296.090836 233.858657 
L 296.131418 233.799007 
L 296.433245 232.886302 
L 296.920227 231.534043 
L 297.130745 231.492968 
L 297.374236 231.713981 
L 297.772445 232.214662 
L 297.835855 232.138998 
L 298.142755 231.478913 
L 298.962 227.922566 
L 299.060918 227.61426 
L 299.3805 226.204291 
L 299.507318 226.245955 
L 299.695009 226.666148 
L 300.123655 228.31322 
L 301.102691 231.992789 
L 301.688591 233.344508 
L 302.2542 234.122948 
L 302.462182 234.303697 
L 302.495155 234.213307 
L 302.642264 233.101128 
L 302.987209 230.654177 
L 303.2028 230.34647 
L 303.694855 230.216415 
L 303.826745 229.775926 
L 303.966245 228.769757 
L 304.260464 227.22295 
L 304.405036 227.144773 
L 304.422791 227.156972 
L 304.587655 227.433125 
L 304.930064 228.54819 
L 305.845691 231.834671 
L 305.888809 231.75168 
L 306.370718 230.458279 
L 306.385936 230.464048 
L 306.568555 230.667947 
L 306.966764 231.542109 
L 307.5552 232.891925 
L 307.590709 232.796745 
L 307.993991 231.498103 
L 308.156318 231.575339 
L 308.453073 232.046624 
L 309.533564 233.961761 
L 309.551318 233.92562 
L 309.700964 233.062502 
L 310.119464 230.939066 
L 310.332518 230.7554 
L 310.517673 230.895129 
L 310.700291 231.177904 
L 310.738336 231.004475 
L 311.164445 228.677934 
L 311.298873 228.720471 
L 311.504318 229.126911 
L 311.659036 229.368563 
L 311.697082 229.320783 
L 311.8518 228.727457 
L 312.118118 228.07913 
L 312.260155 228.134216 
L 312.473209 228.550144 
L 312.643145 228.779033 
L 312.673582 228.763193 
L 312.914536 228.740533 
L 313.114909 229.058903 
L 313.543555 230.271819 
L 314.504836 232.929844 
L 315.098345 233.921917 
L 315.696927 234.505338 
L 316.396964 234.872988 
L 317.398827 235.12714 
L 318.887673 235.274161 
L 319.019564 234.90069 
L 319.410164 233.898395 
L 319.666336 233.773435 
L 319.965627 233.899202 
L 320.237018 234.022347 
L 320.264918 233.973683 
L 320.419636 233.412697 
L 321.203373 229.58262 
L 321.350482 229.648906 
L 321.581291 230.084829 
L 322.195091 231.894355 
L 322.808891 233.372186 
L 322.986436 233.340234 
L 323.369427 233.263547 
L 323.704227 233.473082 
L 324.561518 234.392969 
L 325.312282 234.993815 
L 326.090945 235.325456 
L 326.301464 235.27763 
L 326.950773 233.675267 
L 327.204409 233.781793 
L 327.574718 234.031849 
L 327.617836 233.954943 
L 328.305191 232.203576 
L 328.617164 228.367735 
L 329.139655 223.060208 
L 329.312127 222.847602 
L 329.324809 222.853125 
L 329.461773 223.053749 
L 329.717945 223.922668 
L 330.301309 226.897445 
L 331.039391 230.289973 
L 331.5492 230.650066 
L 332.117345 232.006627 
L 332.878255 233.583188 
L 333.311973 234.156789 
L 333.3348 234.107997 
L 333.910555 232.482311 
L 334.138827 232.649088 
L 334.184482 232.658454 
L 334.2276 232.581823 
L 334.7019 231.706126 
L 334.902273 231.838008 
L 334.985973 231.839019 
L 335.016409 231.800079 
L 335.531291 231.209862 
L 335.757027 231.403879 
L 336.1806 232.135813 
L 337.048036 233.640708 
L 337.063255 233.629125 
L 337.190073 233.335515 
L 337.451318 232.217014 
L 337.816555 229.430613 
L 338.016927 229.188525 
L 338.171645 229.334724 
L 338.465864 230.003468 
L 339.853255 233.500822 
L 340.068845 233.814935 
L 340.104355 233.709938 
L 340.446764 231.503133 
L 340.817073 229.342585 
L 341.017445 229.142767 
L 341.179773 229.295305 
L 341.476527 229.961338 
L 341.577982 230.153209 
L 341.633782 230.078261 
L 341.958436 229.674931 
L 342.087791 229.740716 
L 342.115691 229.618622 
L 342.486 228.105898 
L 342.615355 228.191447 
L 342.841091 228.706914 
L 343.4625 230.510345 
L 343.551273 230.443675 
L 343.807445 230.351425 
L 343.944409 230.362794 
L 343.967236 230.308603 
L 344.416173 228.768621 
L 344.654591 228.060949 
L 344.786482 228.115022 
L 344.989391 228.472635 
L 345.0528 228.283473 
L 345.184691 226.887349 
L 345.483982 224.566184 
L 345.626018 224.40083 
L 345.651382 224.415097 
L 345.793418 224.67076 
L 346.090173 225.783693 
L 346.199236 226.090178 
L 346.260109 226.035813 
L 346.457945 225.947472 
L 346.465555 225.953911 
L 346.625345 226.248107 
L 346.904345 227.06535 
L 347.0058 226.951102 
L 347.180809 226.902741 
L 347.183345 226.904842 
L 347.343136 227.084651 
L 347.406545 226.952826 
L 347.667791 226.584102 
L 347.809827 226.746685 
L 348.124336 227.291734 
L 348.197891 227.245579 
L 348.383045 227.265959 
L 348.578345 227.604167 
L 348.979091 228.862952 
L 349.400127 229.94948 
L 349.701955 230.0117 
L 349.978418 230.437907 
L 350.401991 231.349887 
L 350.4654 231.156204 
L 350.762155 230.353062 
L 350.919409 230.400467 
L 351.173045 230.798947 
L 352.712618 233.627361 
L 353.288373 234.110142 
L 353.402509 233.928752 
L 353.917391 233.001809 
L 354.1761 232.980357 
L 354.254727 232.926405 
L 354.264873 232.892821 
L 354.729027 231.645109 
L 354.919255 231.700275 
L 355.228691 232.089426 
L 356.364982 233.77988 
L 356.392882 233.706277 
L 356.646518 232.120956 
L 357.529173 226.384911 
L 357.671209 226.319205 
L 357.688964 226.332197 
L 357.856364 226.62265 
L 358.198773 227.771412 
L 358.7517 229.491905 
L 358.987582 229.563715 
L 359.233609 229.991649 
L 361.072473 233.868753 
L 361.326109 234.100947 
L 361.361618 234.029521 
L 361.914545 231.944768 
L 362.411673 229.014006 
L 362.581609 228.971414 
L 362.771836 229.235722 
L 363.170045 230.270194 
L 363.6063 231.507495 
L 363.657027 231.37467 
L 363.989291 230.447412 
L 364.144009 230.51308 
L 364.405255 230.951089 
L 365.8662 233.767168 
L 366.495218 234.353789 
L 366.857918 234.502978 
L 366.8706 234.482023 
L 367.0659 233.882773 
L 367.276418 232.860236 
L 367.646727 230.553966 
L 367.859782 230.300787 
L 368.029718 230.417243 
L 368.334082 230.970931 
L 369.6885 233.700331 
L 370.056273 234.114745 
L 370.081636 234.050919 
L 370.621882 232.311038 
L 370.824791 232.417393 
L 371.174809 232.77851 
L 371.238218 232.659526 
L 371.674473 231.859016 
L 371.874845 231.934889 
L 372.219791 232.313594 
L 372.290809 232.151008 
L 372.635755 231.47164 
L 372.815836 231.528702 
L 373.102445 231.926343 
L 373.498118 232.56764 
L 373.558991 232.50467 
L 373.581818 232.473498 
L 373.581818 232.473498 
" clip-path="url(#peee95cbbe2)" style="fill: none; stroke: #000000; stroke-width: 1.5; stroke-linecap: square"/>
   </g>
   <g id="line2d_17">
    <path d="M 69.218182 230.256 
L 69.2892 229.079902 
L 69.347536 229.286883 
L 70.214973 233.559646 
L 70.478755 233.40183 
L 70.719709 233.428509 
L 70.821164 233.412559 
L 70.838918 233.376671 
L 71.356336 232.416907 
L 71.369018 232.423008 
L 71.587145 232.663125 
L 71.947309 233.220952 
L 72.015791 233.13232 
L 72.223773 232.531094 
L 72.594082 231.438255 
L 72.845182 231.044333 
L 73.141936 230.182819 
L 73.497027 230.12826 
L 73.692327 230.21048 
L 73.938355 230.62609 
L 74.481136 232.109972 
L 75.300382 234.145034 
L 75.876136 235.007189 
L 76.456964 235.490702 
L 76.926191 235.642858 
L 77.093591 235.308364 
L 77.6313 233.650301 
L 77.935664 232.644558 
L 78.138573 232.552398 
L 78.354164 232.739428 
L 78.432791 232.82969 
L 78.470836 232.71883 
L 78.851291 231.489734 
L 79.000936 231.571777 
L 79.269791 232.05753 
L 80.550655 234.647446 
L 80.999591 235.103301 
L 81.019882 235.076148 
L 81.156845 234.555694 
L 81.489109 233.588336 
L 81.638755 233.236056 
L 81.993845 231.567746 
L 82.166318 231.522633 
L 82.369227 231.782242 
L 82.906936 232.966575 
L 83.632336 234.333829 
L 84.228382 234.999923 
L 84.872618 235.388863 
L 85.100891 235.44882 
L 85.121182 235.373879 
L 85.669036 233.281874 
L 85.866873 233.324511 
L 86.206745 233.691728 
L 87.086864 234.751464 
L 87.112227 234.700977 
L 87.294845 233.783312 
L 87.5637 233.042808 
L 87.761536 232.998914 
L 88.015173 233.225842 
L 89.379736 234.896161 
L 89.427927 234.806218 
L 89.744973 233.563344 
L 90.287755 231.084292 
L 90.447545 231.194323 
L 90.7443 231.752239 
L 91.964291 234.252607 
L 92.560336 234.885885 
L 93.219791 235.262326 
L 94.110055 235.496987 
L 95.002855 235.542732 
L 95.1804 234.362679 
L 95.449255 233.434801 
L 95.662309 233.314457 
L 95.9616 233.253311 
L 96.719973 231.284465 
L 96.927955 231.211214 
L 97.143545 231.410045 
L 97.549364 232.163304 
L 98.5842 234.107763 
L 98.629855 234.078505 
L 98.652682 234.023797 
L 99.304527 231.78212 
L 99.555627 231.22561 
L 99.7281 231.247196 
L 99.971591 231.574435 
L 100.154209 231.802229 
L 100.199864 231.756658 
L 100.623436 231.360787 
L 100.841564 231.593844 
L 101.3184 232.527469 
L 102.160473 234.05487 
L 102.414109 234.297322 
L 102.444545 234.264497 
L 102.693109 233.726266 
L 103.005082 233.334921 
L 103.253645 233.344057 
L 103.608736 233.623536 
L 104.580164 234.571591 
L 104.620745 234.504457 
L 105.313173 233.172736 
L 105.3918 233.081293 
L 105.901609 231.98875 
L 106.134955 231.903069 
L 106.629545 230.177112 
L 106.941518 228.103386 
L 107.225591 227.051585 
L 107.486836 226.32532 
L 107.626336 226.362955 
L 107.793736 226.597273 
L 107.859682 226.467329 
L 108.427827 225.036524 
L 108.511527 225.122811 
L 108.7119 225.654494 
L 109.188736 226.927812 
L 109.363745 227.0656 
L 109.597091 227.633042 
L 110.205818 229.919975 
L 110.7486 231.72976 
L 110.779036 231.669804 
L 111.200073 230.566984 
L 111.207682 230.569508 
L 111.387764 230.756565 
L 111.801191 231.609386 
L 112.440355 232.841697 
L 112.458109 232.830772 
L 112.628045 232.54877 
L 112.927336 231.728593 
L 113.269745 230.646758 
L 113.467582 230.58381 
L 113.683173 230.798492 
L 114.111818 231.618899 
L 114.781418 232.954656 
L 114.819464 232.88631 
L 115.374927 231.652085 
L 115.587982 231.793059 
L 115.976045 232.327789 
L 116.031845 232.12149 
L 116.698909 229.081565 
L 116.706518 229.083179 
L 116.868845 229.238488 
L 117.178282 229.925095 
L 118.129418 232.363521 
L 118.185218 232.303149 
L 118.613864 231.813555 
L 118.8396 231.971255 
L 119.164255 232.340612 
L 119.225127 232.232217 
L 119.894727 230.272075 
L 120.130609 229.821776 
L 120.287864 229.88417 
L 120.341127 229.900102 
L 120.379173 229.828105 
L 120.473018 229.257209 
L 120.812891 227.046821 
L 120.944782 226.973258 
L 120.967609 226.989696 
L 121.132473 227.284582 
L 121.495173 228.508236 
L 122.245936 231.220128 
L 122.289055 231.136376 
L 122.973873 229.381629 
L 123.146345 229.37323 
L 123.356864 229.661587 
L 123.564845 230.046857 
L 123.628255 229.946423 
L 123.990955 229.377439 
L 124.158355 229.519232 
L 124.462718 230.148921 
L 125.3403 232.28285 
L 125.401173 232.206129 
L 125.824745 231.62854 
L 126.0378 231.767045 
L 126.212809 231.955174 
L 126.255927 231.848424 
L 126.788564 230.203103 
L 126.963573 230.34732 
L 127.295836 230.98859 
L 128.500609 233.469227 
L 128.736491 233.764735 
L 128.769464 233.673993 
L 129.286882 231.875914 
L 129.477109 231.931996 
L 129.794155 232.326782 
L 129.865173 232.426797 
L 129.905755 232.308777 
L 130.298891 231.025788 
L 130.458682 231.085773 
L 130.757973 231.374471 
L 130.818845 231.287666 
L 131.678673 230.035024 
L 131.876509 230.22678 
L 132.244282 230.968865 
L 133.230927 233.127219 
L 133.261364 233.09309 
L 133.441445 232.523537 
L 133.702691 232.089752 
L 133.903064 232.119438 
L 134.209964 232.451144 
L 134.643682 233.081671 
L 134.6868 232.925752 
L 135.064718 231.46339 
L 135.237191 231.461402 
L 135.480682 231.75845 
L 137.136927 234.227272 
L 137.205409 234.058848 
L 137.702536 232.584612 
L 137.915591 232.570057 
L 138.278291 232.615563 
L 138.722155 231.974254 
L 138.940282 232.046355 
L 139.280155 232.451644 
L 140.114618 233.703717 
L 140.157736 233.565702 
L 140.553409 232.121226 
L 140.736027 232.119139 
L 140.999809 232.409108 
L 142.534309 234.424252 
L 143.239418 234.833379 
L 144.056127 235.055478 
L 144.124609 234.72879 
L 144.672464 231.425812 
L 144.8703 231.321327 
L 145.027555 231.297082 
L 145.0377 231.264629 
L 145.451127 230.24577 
L 145.608382 230.376239 
L 145.808755 230.700956 
L 145.869627 230.56413 
L 146.191745 229.870312 
L 146.338855 229.990317 
L 146.511327 230.251589 
L 146.5722 230.141965 
L 146.891782 229.629246 
L 147.049036 229.771341 
L 147.340718 230.421315 
L 148.649482 233.63679 
L 149.235382 234.379234 
L 149.866936 234.825329 
L 150.100282 234.82324 
L 150.364064 234.09563 
L 150.681109 233.580936 
L 150.934745 233.538157 
L 151.264473 233.744979 
L 152.948618 235.070379 
L 153.027245 235.037401 
L 153.042464 234.996276 
L 153.197182 234.138887 
L 153.572564 232.429591 
L 153.816055 232.151771 
L 154.018964 232.225921 
L 154.559209 232.535732 
L 154.891473 232.365642 
L 155.145109 232.512972 
L 155.578827 233.080673 
L 155.954209 233.591084 
L 156.0024 233.525128 
L 156.555327 232.650127 
L 156.796282 232.817633 
L 157.191955 233.25152 
L 157.255364 233.146402 
L 157.684009 232.46943 
L 158.051782 232.310903 
L 158.391655 231.991236 
L 158.619927 232.076848 
L 158.962336 232.496175 
L 159.231191 232.880689 
L 159.281918 232.789489 
L 159.733391 231.86972 
L 159.926155 231.979509 
L 160.276173 232.504539 
L 161.222236 234.052882 
L 161.2476 234.011928 
L 161.420073 233.282487 
L 161.658491 231.774702 
L 162.092209 229.423979 
L 162.287509 229.217276 
L 162.442227 229.380809 
L 162.744055 230.113254 
L 162.878482 230.463027 
L 162.939355 230.341433 
L 163.231036 229.820394 
L 163.400973 229.71777 
L 163.710409 229.523417 
L 163.903173 229.706739 
L 164.235436 230.402471 
L 165.176427 232.742172 
L 165.242373 232.647419 
L 165.561955 231.701168 
L 166.284818 228.65519 
L 166.426855 228.70959 
L 166.710927 229.037524 
L 166.784482 228.953141 
L 167.017827 228.839283 
L 167.200445 229.057375 
L 167.545391 229.905704 
L 168.788209 233.15953 
L 169.381718 234.017585 
L 169.480636 234.093117 
L 169.521218 234.012753 
L 170.150236 232.502319 
L 170.381045 232.614685 
L 170.832518 233.151735 
L 170.992309 233.323396 
L 171.035427 233.241044 
L 171.585818 231.961013 
L 171.7101 231.467837 
L 172.328973 229.122476 
L 172.481155 229.196331 
L 172.724645 229.646385 
L 172.744936 229.670461 
L 172.793127 229.526763 
L 173.112709 228.607172 
L 173.2446 228.708508 
L 173.490627 229.273577 
L 173.652955 229.673707 
L 173.703682 229.557487 
L 173.888836 228.318235 
L 174.3606 224.989981 
L 174.507709 224.922436 
L 174.522927 224.93319 
L 174.631991 224.952848 
L 174.662427 224.908818 
L 174.926209 224.692047 
L 175.083464 224.917119 
L 175.365 225.805679 
L 175.5324 226.296234 
L 175.590736 226.242665 
L 175.803791 226.130847 
L 175.8114 226.137068 
L 175.976264 226.428626 
L 176.321209 227.60987 
L 176.650936 228.746142 
L 176.694055 228.640377 
L 178.380736 221.058557 
L 178.659736 219.811512 
L 178.761191 219.822486 
L 178.781482 219.847702 
L 178.948882 220.277815 
L 179.080773 220.687246 
L 179.144182 220.56782 
L 179.4105 220.046125 
L 179.428255 220.054582 
L 179.560145 220.270866 
L 179.679355 220.585863 
L 179.750373 220.454739 
L 179.910164 220.269365 
L 179.938064 220.289069 
L 180.075027 220.582874 
L 180.3591 221.84989 
L 180.490991 222.264154 
L 180.534109 222.195415 
L 180.633027 221.560156 
L 181.259509 216.60849 
L 181.464955 215.68208 
L 181.716055 214.719876 
L 181.822582 214.208941 
L 182.093973 213.235485 
L 182.205573 213.307428 
L 182.383118 213.817546 
L 182.560664 214.053132 
L 182.728064 214.323572 
L 182.979164 215.270223 
L 183.625936 217.839926 
L 183.8466 218.038085 
L 184.079945 218.643306 
L 184.422355 220.094301 
L 184.523809 219.794278 
L 184.818027 219.186248 
L 185.147755 218.652666 
L 185.2974 218.739181 
L 185.441973 218.878997 
L 185.487627 218.812181 
L 185.606836 218.302276 
L 186.055773 215.505404 
L 186.3018 215.181266 
L 186.492027 215.242352 
L 186.717764 215.316101 
L 186.727909 215.30148 
L 186.8319 214.882787 
L 187.176845 213.656261 
L 187.313809 213.689671 
L 187.400045 213.740166 
L 187.438091 213.671585 
L 187.605491 212.80995 
L 187.775427 211.290582 
L 188.485609 204.156275 
L 188.716418 203.385779 
L 188.843236 203.43328 
L 189.020782 203.856045 
L 189.340364 204.536501 
L 189.5103 204.513495 
L 189.713209 204.517998 
L 189.880609 204.844504 
L 190.253455 205.782642 
L 190.2915 205.70617 
L 190.550209 205.127882 
L 190.580645 205.146833 
L 190.712536 205.419641 
L 190.968709 206.575539 
L 191.506418 210.245409 
L 191.625627 210.815784 
L 191.681427 210.707013 
L 191.823464 209.940486 
L 192.219136 206.877035 
L 192.323127 206.813769 
L 192.361173 206.84429 
L 192.485455 206.80025 
L 192.678218 206.773816 
L 192.815182 206.99034 
L 192.8862 206.843424 
L 193.020627 206.701223 
L 193.056136 206.729539 
L 193.1931 207.066522 
L 193.477173 208.153377 
L 193.565945 208.002867 
L 193.852555 207.017495 
L 193.981909 204.685095 
L 194.331927 199.913315 
L 194.709845 197.496766 
L 195.255164 195.617166 
L 195.432709 195.45085 
L 195.442855 195.456005 
L 195.716782 195.563787 
L 195.742145 195.507135 
L 196.041436 194.355649 
L 196.584218 192.282479 
L 196.749082 192.265232 
L 196.815027 192.309864 
L 196.853073 192.213738 
L 197.535355 190.267413 
L 197.735727 190.103849 
L 197.738264 190.105096 
L 197.885373 190.307308 
L 198.022336 190.489475 
L 198.062918 190.41296 
L 198.1593 189.68299 
L 198.4662 184.855372 
L 198.816218 177.196272 
L 198.998836 167.775047 
L 199.082536 149.000987 
L 199.1358 44.158961 
L 199.214427 133.580432 
L 199.371682 196.987882 
L 199.566982 214.135414 
L 199.785109 217.160992 
L 200.003236 217.767506 
L 200.477536 218.336498 
L 200.528264 218.208624 
L 201.106555 216.23363 
L 201.649336 214.872502 
L 201.783764 214.727695 
L 201.890291 213.831305 
L 202.252991 210.979747 
L 202.440682 210.770693 
L 202.519309 210.541139 
L 202.641055 209.366782 
L 202.978391 206.681832 
L 203.163545 206.425837 
L 203.171155 206.428641 
L 203.303045 206.606448 
L 203.544 207.401097 
L 204.2415 209.864779 
L 204.454555 210.20814 
L 204.906027 210.998851 
L 205.093718 211.224426 
L 205.547727 211.894645 
L 205.555336 211.889083 
L 205.6086 211.684527 
L 206.151382 208.153577 
L 206.176745 208.161828 
L 206.359364 208.128666 
L 206.415164 207.979738 
L 207.239482 203.193392 
L 207.564136 200.624977 
L 207.876109 198.59402 
L 208.084091 197.624208 
L 208.652236 193.708927 
L 209.276182 191.694704 
L 209.456264 191.681689 
L 209.638882 191.952231 
L 209.955927 192.713389 
L 210.057382 192.617584 
L 210.270436 192.547289 
L 210.432764 192.790956 
L 210.6864 193.658234 
L 211.099827 195.997719 
L 211.782109 200.75407 
L 211.873418 200.410649 
L 212.512582 197.139414 
L 212.839773 195.943196 
L 212.969127 195.986282 
L 213.139064 196.397384 
L 213.438355 197.821912 
L 214.014109 201.866872 
L 215.272145 210.879012 
L 215.292436 210.875211 
L 215.469982 210.945815 
L 215.644991 211.383749 
L 215.766736 211.733139 
L 215.825073 211.628891 
L 216.426191 210.071342 
L 216.474382 210.108341 
L 216.626564 210.46121 
L 216.918245 211.822186 
L 217.494 214.462969 
L 217.625891 214.642301 
L 217.798364 214.975319 
L 217.849091 214.882364 
L 218.161064 214.177448 
L 218.196573 214.201273 
L 218.336073 214.495862 
L 218.434991 214.673435 
L 218.4984 214.639206 
L 218.635364 214.69409 
L 218.800227 215.12892 
L 219.117273 216.734853 
L 219.926373 221.362612 
L 219.982173 221.284139 
L 220.278927 220.744918 
L 220.3119 220.767043 
L 220.448864 220.956973 
L 220.491982 220.797387 
L 221.128609 217.494806 
L 221.311227 216.74937 
L 221.643491 214.992112 
L 221.739873 214.984488 
L 221.767773 215.016949 
L 221.927564 215.435572 
L 222.254755 217.051803 
L 224.443636 229.180094 
L 225.059973 230.940562 
L 225.661091 232.022922 
L 226.300255 232.729116 
L 226.3941 232.795721 
L 226.424536 232.69651 
L 227.644527 227.336534 
L 227.905773 226.918084 
L 228.080782 226.443504 
L 228.321736 226.093204 
L 228.468845 226.204669 
L 228.714873 226.749439 
L 229.310918 228.772907 
L 230.152991 231.346766 
L 230.771864 232.556408 
L 231.385664 233.289958 
L 232.080627 233.775426 
L 233.008936 234.137512 
L 233.485773 234.163973 
L 234.130009 232.314257 
L 234.360818 232.390254 
L 234.781855 232.827009 
L 235.426091 233.558614 
L 235.456527 233.467769 
L 235.948582 231.630091 
L 236.1312 231.688152 
L 236.448245 232.095567 
L 237.602291 233.715304 
L 237.607364 233.711632 
L 237.716427 233.475215 
L 238.157755 232.519065 
L 238.393636 232.472561 
L 238.687855 232.678957 
L 239.253464 233.307666 
L 239.316873 233.160854 
L 239.7024 231.557803 
L 239.910382 230.226554 
L 240.189382 229.101663 
L 240.369464 229.029829 
L 240.554618 229.261711 
L 240.932536 230.180101 
L 241.066964 230.44471 
L 241.120227 230.382106 
L 241.282555 229.864042 
L 241.673155 228.409592 
L 241.825336 228.427116 
L 242.028245 228.764341 
L 242.482255 230.067856 
L 243.390273 232.559375 
L 243.976173 233.539025 
L 244.052264 233.456181 
L 244.701573 232.125588 
L 244.950136 232.278038 
L 245.467555 232.932617 
L 246.142227 233.729756 
L 246.162518 233.707017 
L 246.289336 233.302482 
L 247.111118 229.304695 
L 247.438309 227.023673 
L 247.580345 226.915348 
L 247.603173 226.929766 
L 247.762964 227.199699 
L 248.107909 228.331855 
L 248.409736 229.296139 
L 248.465536 229.253505 
L 248.711564 229.147596 
L 248.899255 229.405013 
L 249.302536 230.442517 
L 250.238455 232.792276 
L 250.4997 233.229755 
L 250.537745 233.128035 
L 250.831964 231.279955 
L 251.138864 229.546074 
L 251.679109 227.514209 
L 251.897236 227.263142 
L 252.049418 227.399199 
L 252.310664 228.009494 
L 253.051282 230.537752 
L 253.758927 232.51128 
L 254.195182 233.200126 
L 254.367655 233.040113 
L 254.4615 232.750646 
L 255.559745 227.537932 
L 255.706855 227.556414 
L 255.899618 227.907669 
L 256.333336 229.285361 
L 257.228673 232.037272 
L 257.231209 232.036504 
L 257.297155 231.874639 
L 257.634491 231.066235 
L 257.806964 231.118843 
L 258.0048 231.347867 
L 258.045382 231.192114 
L 258.430909 229.576173 
L 258.583091 229.607337 
L 258.808827 229.972478 
L 259.541836 231.792365 
L 260.226655 233.126794 
L 260.842991 233.863054 
L 261.068727 234.025342 
L 261.1017 233.95412 
L 261.710427 232.460909 
L 261.941236 232.585534 
L 262.445973 233.193789 
L 263.310873 234.137907 
L 263.399645 234.167945 
L 263.435155 234.104318 
L 263.998227 233.067103 
L 264.249327 233.1535 
L 264.754064 233.63518 
L 265.679836 234.449356 
L 266.471182 234.83179 
L 267.549136 235.085149 
L 267.899155 235.035031 
L 268.485055 233.107613 
L 268.781809 232.854284 
L 269.159727 231.976847 
L 269.349955 231.99978 
L 269.626418 232.320736 
L 271.115264 234.440486 
L 271.138091 234.410522 
L 271.2852 233.887237 
L 271.612391 233.01668 
L 271.830518 232.940309 
L 272.089227 233.124029 
L 272.5965 233.638412 
L 272.654836 233.559282 
L 272.842527 233.042697 
L 273.197618 229.765566 
L 273.715036 224.581986 
L 273.884973 224.342692 
L 273.897655 224.347769 
L 274.029545 224.539581 
L 274.110709 224.718742 
L 274.169045 224.592122 
L 274.379564 224.228317 
L 274.399855 224.238612 
L 274.529209 224.468337 
L 274.792991 225.509003 
L 275.584336 228.774868 
L 275.822755 229.066502 
L 276.187991 229.980466 
L 276.979336 232.092237 
L 277.019918 232.062072 
L 277.527191 231.680031 
L 277.788436 231.920467 
L 277.861991 231.96857 
L 277.902573 231.888467 
L 278.057291 231.018727 
L 278.666018 227.771577 
L 278.813127 227.785602 
L 279.005891 228.126869 
L 279.429464 229.448274 
L 280.395818 232.404271 
L 280.728082 233.018399 
L 280.763591 232.980027 
L 280.9944 232.381086 
L 281.250573 232.076854 
L 281.458555 232.145722 
L 281.808573 232.560163 
L 283.038709 234.134281 
L 283.259373 234.294196 
L 283.292345 234.210976 
L 284.311964 230.86203 
L 284.489509 230.963573 
L 284.801482 231.469805 
L 285.113455 232.041482 
L 285.169255 231.95728 
L 285.382309 231.191261 
L 285.783055 229.464404 
L 285.952991 229.43357 
L 286.029082 229.403192 
L 286.049373 229.362919 
L 286.237064 228.661778 
L 286.594691 227.321537 
L 286.754482 227.311281 
L 286.939636 227.615554 
L 287.312482 228.759953 
L 288.484282 232.49968 
L 289.070182 233.574788 
L 289.656082 234.206099 
L 290.026391 234.417928 
L 290.046682 234.383584 
L 290.219155 233.752779 
L 291.0105 230.98157 
L 291.200727 231.077735 
L 291.515236 231.547944 
L 291.946418 232.356222 
L 292.012364 232.238206 
L 292.296436 231.18258 
L 292.605873 229.881374 
L 292.679427 229.511041 
L 292.973645 228.304694 
L 293.113145 228.329 
L 293.308445 228.712328 
L 293.894345 230.289252 
L 293.998336 230.22399 
L 294.216464 230.212578 
L 294.4422 230.489284 
L 294.924109 231.531854 
L 295.832127 233.390612 
L 296.090836 233.71767 
L 296.131418 233.65819 
L 296.430709 232.755006 
L 296.922764 231.389424 
L 297.133282 231.351103 
L 297.379309 231.577218 
L 297.769909 232.072671 
L 297.833318 231.998769 
L 298.140218 231.346856 
L 298.969609 227.766918 
L 299.058382 227.48569 
L 299.383036 226.058812 
L 299.509855 226.106361 
L 299.700082 226.539658 
L 300.141409 228.246619 
L 301.097618 231.831491 
L 301.686055 233.19446 
L 302.2542 233.980318 
L 302.462182 234.162246 
L 302.495155 234.072116 
L 302.642264 232.960998 
L 302.987209 230.513984 
L 303.2028 230.206085 
L 303.694855 230.075335 
L 303.826745 229.634671 
L 303.966245 228.628515 
L 304.260464 227.081953 
L 304.405036 227.004296 
L 304.422791 227.016567 
L 304.587655 227.293317 
L 304.930064 228.408517 
L 305.845691 231.691695 
L 305.888809 231.608758 
L 306.370718 230.315238 
L 306.388473 230.322187 
L 306.573627 230.533567 
L 306.981982 231.437085 
L 307.5552 232.749886 
L 307.590709 232.654883 
L 307.993991 231.357263 
L 308.156318 231.434717 
L 308.453073 231.906366 
L 309.533564 233.822885 
L 309.551318 233.786828 
L 309.700964 232.924348 
L 310.119464 230.799915 
L 310.332518 230.616 
L 310.517673 230.755647 
L 310.700291 231.038248 
L 310.738336 230.864946 
L 311.164445 228.538412 
L 311.298873 228.580894 
L 311.504318 228.987258 
L 311.659036 229.228754 
L 311.697082 229.180919 
L 311.8518 228.587206 
L 312.118118 227.938351 
L 312.260155 227.993502 
L 312.473209 228.409507 
L 312.643145 228.638252 
L 312.673582 228.622352 
L 312.914536 228.599167 
L 313.114909 228.917381 
L 313.543555 230.129457 
L 314.507373 232.791478 
L 315.103418 233.786768 
L 315.702 234.370381 
L 316.404573 234.740435 
L 317.406436 234.99611 
L 318.887673 235.143213 
L 319.019564 234.769728 
L 319.410164 233.766242 
L 319.666336 233.640501 
L 319.963091 233.763765 
L 320.237018 233.888239 
L 320.264918 233.839545 
L 320.419636 233.278168 
L 321.203373 229.443706 
L 321.350482 229.509728 
L 321.581291 229.945242 
L 322.195091 231.753263 
L 322.808891 233.231368 
L 322.986436 233.199592 
L 323.369427 233.123097 
L 323.704227 233.333041 
L 324.556445 234.249696 
L 325.309745 234.857148 
L 326.088409 235.192441 
L 326.301464 235.146044 
L 326.950773 233.543082 
L 327.204409 233.649383 
L 327.574718 233.899375 
L 327.617836 233.82247 
L 328.305191 232.069741 
L 328.617164 228.231733 
L 329.137118 222.936672 
L 329.309591 222.720213 
L 329.322273 222.72559 
L 329.459236 222.925318 
L 329.715409 223.793698 
L 330.301309 226.775758 
L 331.039391 230.153359 
L 331.546664 230.502996 
L 332.102127 231.825208 
L 332.873182 233.431609 
L 333.311973 234.015051 
L 333.332264 233.974711 
L 333.522491 232.972366 
L 333.773591 232.375373 
L 333.966355 232.363216 
L 334.209845 232.481068 
L 334.247891 232.388524 
L 334.653709 231.569588 
L 334.8414 231.637229 
L 334.993582 231.690151 
L 335.021482 231.651551 
L 335.518609 231.063681 
L 335.736736 231.235163 
L 336.132409 231.897653 
L 337.048036 233.498083 
L 337.068327 233.481047 
L 337.207827 233.140701 
L 337.451318 232.075486 
L 337.816555 229.289403 
L 338.016927 229.047599 
L 338.171645 229.194062 
L 338.465864 229.862882 
L 339.853255 233.359899 
L 340.068845 233.674759 
L 340.104355 233.569998 
L 340.446764 231.364294 
L 340.817073 229.202578 
L 341.017445 229.002687 
L 341.179773 229.155284 
L 341.476527 229.821007 
L 341.577982 230.01267 
L 341.633782 229.937643 
L 341.958436 229.533219 
L 342.087791 229.598658 
L 342.115691 229.476601 
L 342.486 227.964044 
L 342.615355 228.049699 
L 342.841091 228.565277 
L 343.4625 230.367293 
L 343.551273 230.30027 
L 343.807445 230.207067 
L 343.946945 230.213025 
L 343.967236 230.164059 
L 344.416173 228.624484 
L 344.654591 227.917415 
L 344.786482 227.971816 
L 344.989391 228.329848 
L 345.0528 228.140978 
L 345.184691 226.745725 
L 345.483982 224.426369 
L 345.626018 224.262578 
L 345.651382 224.277154 
L 345.793418 224.534522 
L 346.090173 225.649606 
L 346.199236 225.95632 
L 346.260109 225.902081 
L 346.457945 225.813557 
L 346.465555 225.819977 
L 346.625345 226.113685 
L 346.904345 226.929648 
L 347.0058 226.814964 
L 347.180809 226.76562 
L 347.183345 226.767707 
L 347.343136 226.946693 
L 347.406545 226.814701 
L 347.667791 226.445169 
L 347.809827 226.607343 
L 348.124336 227.15145 
L 348.197891 227.105001 
L 348.383045 227.124519 
L 348.578345 227.461925 
L 348.979091 228.718912 
L 349.400127 229.803287 
L 349.701955 229.864207 
L 349.975882 230.284874 
L 350.401991 231.20174 
L 350.4654 231.008316 
L 350.762155 230.205786 
L 350.919409 230.253461 
L 351.173045 230.652502 
L 352.712618 233.48439 
L 353.288373 233.969134 
L 353.402509 233.788081 
L 353.919927 232.859028 
L 354.178636 232.839396 
L 354.252191 232.792185 
L 354.262336 232.759787 
L 354.739173 231.499312 
L 354.9294 231.565325 
L 355.248982 231.977811 
L 356.364982 233.637636 
L 356.387809 233.584429 
L 356.600864 232.316481 
L 357.564682 226.196779 
L 357.701645 226.204913 
L 357.706718 226.210183 
L 357.889336 226.570499 
L 358.279936 227.956053 
L 358.739018 229.352662 
L 358.995191 229.429184 
L 359.246291 229.876669 
L 361.021745 233.66786 
L 361.326109 233.959689 
L 361.359082 233.896074 
L 361.594964 232.839716 
L 362.038827 230.719459 
L 362.345727 228.995372 
L 362.541027 228.810892 
L 362.703355 228.972216 
L 363.010255 229.672198 
L 363.608836 231.363989 
L 363.669709 231.176823 
L 363.974073 230.310984 
L 364.128791 230.354706 
L 364.372282 230.739783 
L 365.982873 233.759944 
L 366.624573 234.2994 
L 366.862991 234.356453 
L 366.878209 234.328601 
L 367.139455 233.532271 
L 367.251055 232.943187 
L 367.664482 230.369648 
L 367.872464 230.161703 
L 368.047473 230.299449 
L 368.374664 230.920352 
L 369.614945 233.456972 
L 370.056273 233.973743 
L 370.076564 233.929041 
L 370.670073 232.177643 
L 370.675145 232.179132 
L 370.911027 232.36985 
L 371.169736 232.644057 
L 371.220464 232.562361 
L 371.717591 231.716415 
L 371.928109 231.844556 
L 372.214718 232.178056 
L 372.275591 232.054146 
L 372.650973 231.326305 
L 372.831055 231.401269 
L 373.132882 231.839005 
L 373.495582 232.428333 
L 373.553918 232.370632 
L 373.581818 232.33286 
L 373.581818 232.33286 
" clip-path="url(#peee95cbbe2)" style="fill: none; stroke: #ff0000; stroke-width: 1.5; stroke-linecap: square"/>
   </g>
   <g id="line2d_18">
    <path d="M 81.899894 213.171429 
L 84.431164 213.171429 
L 84.431164 213.171429 
" clip-path="url(#peee95cbbe2)" style="fill: none; stroke: #000000; stroke-width: 1.5; stroke-linecap: square"/>
   </g>
   <g id="line2d_19">
    <path d="M 81.899894 189.874286 
L 81.899894 188.321143 
L 81.899894 186.768 
L 81.899894 185.214857 
L 81.899894 183.661714 
L 81.899894 182.108571 
L 81.899894 180.555429 
L 81.899894 179.002286 
L 81.899894 177.449143 
L 81.899894 175.896 
L 81.899894 174.342857 
L 81.899894 172.789714 
L 81.899894 171.236571 
L 81.899894 169.683429 
L 81.899894 168.130286 
L 81.899894 166.577143 
L 81.899894 165.024 
L 81.899894 163.470857 
L 81.899894 161.917714 
L 81.899894 160.364571 
" clip-path="url(#peee95cbbe2)" style="fill: none; stroke: #000000; stroke-width: 1.5; stroke-linecap: square"/>
   </g>
   <g id="patch_3">
    <path d="M 54 252 
L 54 34.56 
" style="fill: none; stroke: #000000; stroke-width: 0.8; stroke-linejoin: miter; stroke-linecap: square"/>
   </g>
   <g id="patch_4">
    <path d="M 54 252 
L 388.8 252 
" style="fill: none; stroke: #000000; stroke-width: 0.8; stroke-linejoin: miter; stroke-linecap: square"/>
   </g>
   <g id="text_18">
    <!-- 500 ms -->
    <g transform="translate(81.899894 211.618286)scale(0.1 -0.1)">
     <use xlink:href="#DejaVuSans-35"/>
     <use xlink:href="#DejaVuSans-30" x="63.623047"/>
     <use xlink:href="#DejaVuSans-30" x="127.246094"/>
     <use xlink:href="#DejaVuSans-20" x="190.869141"/>
     <use xlink:href="#DejaVuSans-6d" x="222.65625"/>
     <use xlink:href="#DejaVuSans-73" x="320.068359"/>
    </g>
   </g>
   <g id="text_19">
    <!-- 20 mV -->
    <g transform="translate(82.153529 158.811429)scale(0.1 -0.1)">
     <use xlink:href="#DejaVuSans-32"/>
     <use xlink:href="#DejaVuSans-30" x="63.623047"/>
     <use xlink:href="#DejaVuSans-20" x="127.246094"/>
     <use xlink:href="#DejaVuSans-6d" x="159.033203"/>
     <use xlink:href="#DejaVuSans-56" x="256.445312"/>
    </g>
   </g>
  </g>
 </g>
 <defs>
  <clipPath id="peee95cbbe2">
   <rect x="54" y="34.56" width="334.8" height="217.44"/>
  </clipPath>
 </defs>
</svg>
