<?xml version="1.0" encoding="utf-8" standalone="no"?>
<!DOCTYPE svg PUBLIC "-//W3C//DTD SVG 1.1//EN"
  "http://www.w3.org/Graphics/SVG/1.1/DTD/svg11.dtd">
<svg xmlns:xlink="http://www.w3.org/1999/xlink" width="432pt" height="288pt" viewBox="0 0 432 288" xmlns="http://www.w3.org/2000/svg" version="1.1">
 <metadata>
  <rdf:RDF xmlns:dc="http://purl.org/dc/elements/1.1/" xmlns:cc="http://creativecommons.org/ns#" xmlns:rdf="http://www.w3.org/1999/02/22-rdf-syntax-ns#">
   <cc:Work>
    <dc:type rdf:resource="http://purl.org/dc/dcmitype/StillImage"/>
    <dc:date>2022-07-12T16:37:55.001838</dc:date>
    <dc:format>image/svg+xml</dc:format>
    <dc:creator>
     <cc:Agent>
      <dc:title>Matplotlib v3.5.2, https://matplotlib.org/</dc:title>
     </cc:Agent>
    </dc:creator>
   </cc:Work>
  </rdf:RDF>
 </metadata>
 <defs>
  <style type="text/css">*{stroke-linejoin: round; stroke-linecap: butt}</style>
 </defs>
 <g id="figure_1">
  <g id="patch_1">
   <path d="M 0 288 
L 432 288 
L 432 0 
L 0 0 
L 0 288 
z
" style="fill: none"/>
  </g>
  <g id="axes_1">
   <g id="patch_2">
    <path d="M 54 252 
L 388.8 252 
L 388.8 34.56 
L 54 34.56 
z
" style="fill: #ffffff"/>
   </g>
   <g id="matplotlib.axis_1">
    <g id="xtick_1">
     <g id="line2d_1">
      <defs>
       <path id="m1076190a16" d="M 0 0 
L 0 3.5 
" style="stroke: #000000; stroke-width: 0.8"/>
      </defs>
      <g>
       <use xlink:href="#m1076190a16" x="69.218182" y="252" style="stroke: #000000; stroke-width: 0.8"/>
      </g>
     </g>
     <g id="text_1">
      <!-- 0 -->
      <g transform="translate(66.036932 266.598437)scale(0.1 -0.1)">
       <defs>
        <path id="DejaVuSans-30" d="M 2034 4250 
Q 1547 4250 1301 3770 
Q 1056 3291 1056 2328 
Q 1056 1369 1301 889 
Q 1547 409 2034 409 
Q 2525 409 2770 889 
Q 3016 1369 3016 2328 
Q 3016 3291 2770 3770 
Q 2525 4250 2034 4250 
z
M 2034 4750 
Q 2819 4750 3233 4129 
Q 3647 3509 3647 2328 
Q 3647 1150 3233 529 
Q 2819 -91 2034 -91 
Q 1250 -91 836 529 
Q 422 1150 422 2328 
Q 422 3509 836 4129 
Q 1250 4750 2034 4750 
z
" transform="scale(0.015625)"/>
       </defs>
       <use xlink:href="#DejaVuSans-30"/>
      </g>
     </g>
    </g>
    <g id="xtick_2">
     <g id="line2d_2">
      <g>
       <use xlink:href="#m1076190a16" x="119.945032" y="252" style="stroke: #000000; stroke-width: 0.8"/>
      </g>
     </g>
     <g id="text_2">
      <!-- 10000 -->
      <g transform="translate(104.038782 266.598437)scale(0.1 -0.1)">
       <defs>
        <path id="DejaVuSans-31" d="M 794 531 
L 1825 531 
L 1825 4091 
L 703 3866 
L 703 4441 
L 1819 4666 
L 2450 4666 
L 2450 531 
L 3481 531 
L 3481 0 
L 794 0 
L 794 531 
z
" transform="scale(0.015625)"/>
       </defs>
       <use xlink:href="#DejaVuSans-31"/>
       <use xlink:href="#DejaVuSans-30" x="63.623047"/>
       <use xlink:href="#DejaVuSans-30" x="127.246094"/>
       <use xlink:href="#DejaVuSans-30" x="190.869141"/>
       <use xlink:href="#DejaVuSans-30" x="254.492188"/>
      </g>
     </g>
    </g>
    <g id="xtick_3">
     <g id="line2d_3">
      <g>
       <use xlink:href="#m1076190a16" x="170.671882" y="252" style="stroke: #000000; stroke-width: 0.8"/>
      </g>
     </g>
     <g id="text_3">
      <!-- 20000 -->
      <g transform="translate(154.765632 266.598437)scale(0.1 -0.1)">
       <defs>
        <path id="DejaVuSans-32" d="M 1228 531 
L 3431 531 
L 3431 0 
L 469 0 
L 469 531 
Q 828 903 1448 1529 
Q 2069 2156 2228 2338 
Q 2531 2678 2651 2914 
Q 2772 3150 2772 3378 
Q 2772 3750 2511 3984 
Q 2250 4219 1831 4219 
Q 1534 4219 1204 4116 
Q 875 4013 500 3803 
L 500 4441 
Q 881 4594 1212 4672 
Q 1544 4750 1819 4750 
Q 2544 4750 2975 4387 
Q 3406 4025 3406 3419 
Q 3406 3131 3298 2873 
Q 3191 2616 2906 2266 
Q 2828 2175 2409 1742 
Q 1991 1309 1228 531 
z
" transform="scale(0.015625)"/>
       </defs>
       <use xlink:href="#DejaVuSans-32"/>
       <use xlink:href="#DejaVuSans-30" x="63.623047"/>
       <use xlink:href="#DejaVuSans-30" x="127.246094"/>
       <use xlink:href="#DejaVuSans-30" x="190.869141"/>
       <use xlink:href="#DejaVuSans-30" x="254.492188"/>
      </g>
     </g>
    </g>
    <g id="xtick_4">
     <g id="line2d_4">
      <g>
       <use xlink:href="#m1076190a16" x="221.398732" y="252" style="stroke: #000000; stroke-width: 0.8"/>
      </g>
     </g>
     <g id="text_4">
      <!-- 30000 -->
      <g transform="translate(205.492482 266.598437)scale(0.1 -0.1)">
       <defs>
        <path id="DejaVuSans-33" d="M 2597 2516 
Q 3050 2419 3304 2112 
Q 3559 1806 3559 1356 
Q 3559 666 3084 287 
Q 2609 -91 1734 -91 
Q 1441 -91 1130 -33 
Q 819 25 488 141 
L 488 750 
Q 750 597 1062 519 
Q 1375 441 1716 441 
Q 2309 441 2620 675 
Q 2931 909 2931 1356 
Q 2931 1769 2642 2001 
Q 2353 2234 1838 2234 
L 1294 2234 
L 1294 2753 
L 1863 2753 
Q 2328 2753 2575 2939 
Q 2822 3125 2822 3475 
Q 2822 3834 2567 4026 
Q 2313 4219 1838 4219 
Q 1578 4219 1281 4162 
Q 984 4106 628 3988 
L 628 4550 
Q 988 4650 1302 4700 
Q 1616 4750 1894 4750 
Q 2613 4750 3031 4423 
Q 3450 4097 3450 3541 
Q 3450 3153 3228 2886 
Q 3006 2619 2597 2516 
z
" transform="scale(0.015625)"/>
       </defs>
       <use xlink:href="#DejaVuSans-33"/>
       <use xlink:href="#DejaVuSans-30" x="63.623047"/>
       <use xlink:href="#DejaVuSans-30" x="127.246094"/>
       <use xlink:href="#DejaVuSans-30" x="190.869141"/>
       <use xlink:href="#DejaVuSans-30" x="254.492188"/>
      </g>
     </g>
    </g>
    <g id="xtick_5">
     <g id="line2d_5">
      <g>
       <use xlink:href="#m1076190a16" x="272.125582" y="252" style="stroke: #000000; stroke-width: 0.8"/>
      </g>
     </g>
     <g id="text_5">
      <!-- 40000 -->
      <g transform="translate(256.219332 266.598437)scale(0.1 -0.1)">
       <defs>
        <path id="DejaVuSans-34" d="M 2419 4116 
L 825 1625 
L 2419 1625 
L 2419 4116 
z
M 2253 4666 
L 3047 4666 
L 3047 1625 
L 3713 1625 
L 3713 1100 
L 3047 1100 
L 3047 0 
L 2419 0 
L 2419 1100 
L 313 1100 
L 313 1709 
L 2253 4666 
z
" transform="scale(0.015625)"/>
       </defs>
       <use xlink:href="#DejaVuSans-34"/>
       <use xlink:href="#DejaVuSans-30" x="63.623047"/>
       <use xlink:href="#DejaVuSans-30" x="127.246094"/>
       <use xlink:href="#DejaVuSans-30" x="190.869141"/>
       <use xlink:href="#DejaVuSans-30" x="254.492188"/>
      </g>
     </g>
    </g>
    <g id="xtick_6">
     <g id="line2d_6">
      <g>
       <use xlink:href="#m1076190a16" x="322.852432" y="252" style="stroke: #000000; stroke-width: 0.8"/>
      </g>
     </g>
     <g id="text_6">
      <!-- 50000 -->
      <g transform="translate(306.946182 266.598437)scale(0.1 -0.1)">
       <defs>
        <path id="DejaVuSans-35" d="M 691 4666 
L 3169 4666 
L 3169 4134 
L 1269 4134 
L 1269 2991 
Q 1406 3038 1543 3061 
Q 1681 3084 1819 3084 
Q 2600 3084 3056 2656 
Q 3513 2228 3513 1497 
Q 3513 744 3044 326 
Q 2575 -91 1722 -91 
Q 1428 -91 1123 -41 
Q 819 9 494 109 
L 494 744 
Q 775 591 1075 516 
Q 1375 441 1709 441 
Q 2250 441 2565 725 
Q 2881 1009 2881 1497 
Q 2881 1984 2565 2268 
Q 2250 2553 1709 2553 
Q 1456 2553 1204 2497 
Q 953 2441 691 2322 
L 691 4666 
z
" transform="scale(0.015625)"/>
       </defs>
       <use xlink:href="#DejaVuSans-35"/>
       <use xlink:href="#DejaVuSans-30" x="63.623047"/>
       <use xlink:href="#DejaVuSans-30" x="127.246094"/>
       <use xlink:href="#DejaVuSans-30" x="190.869141"/>
       <use xlink:href="#DejaVuSans-30" x="254.492188"/>
      </g>
     </g>
    </g>
    <g id="xtick_7">
     <g id="line2d_7">
      <g>
       <use xlink:href="#m1076190a16" x="373.579282" y="252" style="stroke: #000000; stroke-width: 0.8"/>
      </g>
     </g>
     <g id="text_7">
      <!-- 60000 -->
      <g transform="translate(357.673032 266.598437)scale(0.1 -0.1)">
       <defs>
        <path id="DejaVuSans-36" d="M 2113 2584 
Q 1688 2584 1439 2293 
Q 1191 2003 1191 1497 
Q 1191 994 1439 701 
Q 1688 409 2113 409 
Q 2538 409 2786 701 
Q 3034 994 3034 1497 
Q 3034 2003 2786 2293 
Q 2538 2584 2113 2584 
z
M 3366 4563 
L 3366 3988 
Q 3128 4100 2886 4159 
Q 2644 4219 2406 4219 
Q 1781 4219 1451 3797 
Q 1122 3375 1075 2522 
Q 1259 2794 1537 2939 
Q 1816 3084 2150 3084 
Q 2853 3084 3261 2657 
Q 3669 2231 3669 1497 
Q 3669 778 3244 343 
Q 2819 -91 2113 -91 
Q 1303 -91 875 529 
Q 447 1150 447 2328 
Q 447 3434 972 4092 
Q 1497 4750 2381 4750 
Q 2619 4750 2861 4703 
Q 3103 4656 3366 4563 
z
" transform="scale(0.015625)"/>
       </defs>
       <use xlink:href="#DejaVuSans-36"/>
       <use xlink:href="#DejaVuSans-30" x="63.623047"/>
       <use xlink:href="#DejaVuSans-30" x="127.246094"/>
       <use xlink:href="#DejaVuSans-30" x="190.869141"/>
       <use xlink:href="#DejaVuSans-30" x="254.492188"/>
      </g>
     </g>
    </g>
    <g id="text_8">
     <!-- Time(ms) -->
     <g transform="translate(197.789844 280.276563)scale(0.1 -0.1)">
      <defs>
       <path id="DejaVuSans-54" d="M -19 4666 
L 3928 4666 
L 3928 4134 
L 2272 4134 
L 2272 0 
L 1638 0 
L 1638 4134 
L -19 4134 
L -19 4666 
z
" transform="scale(0.015625)"/>
       <path id="DejaVuSans-69" d="M 603 3500 
L 1178 3500 
L 1178 0 
L 603 0 
L 603 3500 
z
M 603 4863 
L 1178 4863 
L 1178 4134 
L 603 4134 
L 603 4863 
z
" transform="scale(0.015625)"/>
       <path id="DejaVuSans-6d" d="M 3328 2828 
Q 3544 3216 3844 3400 
Q 4144 3584 4550 3584 
Q 5097 3584 5394 3201 
Q 5691 2819 5691 2113 
L 5691 0 
L 5113 0 
L 5113 2094 
Q 5113 2597 4934 2840 
Q 4756 3084 4391 3084 
Q 3944 3084 3684 2787 
Q 3425 2491 3425 1978 
L 3425 0 
L 2847 0 
L 2847 2094 
Q 2847 2600 2669 2842 
Q 2491 3084 2119 3084 
Q 1678 3084 1418 2786 
Q 1159 2488 1159 1978 
L 1159 0 
L 581 0 
L 581 3500 
L 1159 3500 
L 1159 2956 
Q 1356 3278 1631 3431 
Q 1906 3584 2284 3584 
Q 2666 3584 2933 3390 
Q 3200 3197 3328 2828 
z
" transform="scale(0.015625)"/>
       <path id="DejaVuSans-65" d="M 3597 1894 
L 3597 1613 
L 953 1613 
Q 991 1019 1311 708 
Q 1631 397 2203 397 
Q 2534 397 2845 478 
Q 3156 559 3463 722 
L 3463 178 
Q 3153 47 2828 -22 
Q 2503 -91 2169 -91 
Q 1331 -91 842 396 
Q 353 884 353 1716 
Q 353 2575 817 3079 
Q 1281 3584 2069 3584 
Q 2775 3584 3186 3129 
Q 3597 2675 3597 1894 
z
M 3022 2063 
Q 3016 2534 2758 2815 
Q 2500 3097 2075 3097 
Q 1594 3097 1305 2825 
Q 1016 2553 972 2059 
L 3022 2063 
z
" transform="scale(0.015625)"/>
       <path id="DejaVuSans-28" d="M 1984 4856 
Q 1566 4138 1362 3434 
Q 1159 2731 1159 2009 
Q 1159 1288 1364 580 
Q 1569 -128 1984 -844 
L 1484 -844 
Q 1016 -109 783 600 
Q 550 1309 550 2009 
Q 550 2706 781 3412 
Q 1013 4119 1484 4856 
L 1984 4856 
z
" transform="scale(0.015625)"/>
       <path id="DejaVuSans-73" d="M 2834 3397 
L 2834 2853 
Q 2591 2978 2328 3040 
Q 2066 3103 1784 3103 
Q 1356 3103 1142 2972 
Q 928 2841 928 2578 
Q 928 2378 1081 2264 
Q 1234 2150 1697 2047 
L 1894 2003 
Q 2506 1872 2764 1633 
Q 3022 1394 3022 966 
Q 3022 478 2636 193 
Q 2250 -91 1575 -91 
Q 1294 -91 989 -36 
Q 684 19 347 128 
L 347 722 
Q 666 556 975 473 
Q 1284 391 1588 391 
Q 1994 391 2212 530 
Q 2431 669 2431 922 
Q 2431 1156 2273 1281 
Q 2116 1406 1581 1522 
L 1381 1569 
Q 847 1681 609 1914 
Q 372 2147 372 2553 
Q 372 3047 722 3315 
Q 1072 3584 1716 3584 
Q 2034 3584 2315 3537 
Q 2597 3491 2834 3397 
z
" transform="scale(0.015625)"/>
       <path id="DejaVuSans-29" d="M 513 4856 
L 1013 4856 
Q 1481 4119 1714 3412 
Q 1947 2706 1947 2009 
Q 1947 1309 1714 600 
Q 1481 -109 1013 -844 
L 513 -844 
Q 928 -128 1133 580 
Q 1338 1288 1338 2009 
Q 1338 2731 1133 3434 
Q 928 4138 513 4856 
z
" transform="scale(0.015625)"/>
      </defs>
      <use xlink:href="#DejaVuSans-54"/>
      <use xlink:href="#DejaVuSans-69" x="57.958984"/>
      <use xlink:href="#DejaVuSans-6d" x="85.742188"/>
      <use xlink:href="#DejaVuSans-65" x="183.154297"/>
      <use xlink:href="#DejaVuSans-28" x="244.677734"/>
      <use xlink:href="#DejaVuSans-6d" x="283.691406"/>
      <use xlink:href="#DejaVuSans-73" x="381.103516"/>
      <use xlink:href="#DejaVuSans-29" x="433.203125"/>
     </g>
    </g>
   </g>
   <g id="matplotlib.axis_2">
    <g id="ytick_1">
     <g id="line2d_8">
      <defs>
       <path id="mb7b03491ca" d="M 0 0 
L -3.5 0 
" style="stroke: #000000; stroke-width: 0.8"/>
      </defs>
      <g>
       <use xlink:href="#mb7b03491ca" x="54" y="252" style="stroke: #000000; stroke-width: 0.8"/>
      </g>
     </g>
     <g id="text_9">
      <!-- −100 -->
      <g transform="translate(19.532812 255.799219)scale(0.1 -0.1)">
       <defs>
        <path id="DejaVuSans-2212" d="M 678 2272 
L 4684 2272 
L 4684 1741 
L 678 1741 
L 678 2272 
z
" transform="scale(0.015625)"/>
       </defs>
       <use xlink:href="#DejaVuSans-2212"/>
       <use xlink:href="#DejaVuSans-31" x="83.789062"/>
       <use xlink:href="#DejaVuSans-30" x="147.412109"/>
       <use xlink:href="#DejaVuSans-30" x="211.035156"/>
      </g>
     </g>
    </g>
    <g id="ytick_2">
     <g id="line2d_9">
      <g>
       <use xlink:href="#mb7b03491ca" x="54" y="208.512" style="stroke: #000000; stroke-width: 0.8"/>
      </g>
     </g>
     <g id="text_10">
      <!-- −90 -->
      <g transform="translate(25.895312 212.311219)scale(0.1 -0.1)">
       <defs>
        <path id="DejaVuSans-39" d="M 703 97 
L 703 672 
Q 941 559 1184 500 
Q 1428 441 1663 441 
Q 2288 441 2617 861 
Q 2947 1281 2994 2138 
Q 2813 1869 2534 1725 
Q 2256 1581 1919 1581 
Q 1219 1581 811 2004 
Q 403 2428 403 3163 
Q 403 3881 828 4315 
Q 1253 4750 1959 4750 
Q 2769 4750 3195 4129 
Q 3622 3509 3622 2328 
Q 3622 1225 3098 567 
Q 2575 -91 1691 -91 
Q 1453 -91 1209 -44 
Q 966 3 703 97 
z
M 1959 2075 
Q 2384 2075 2632 2365 
Q 2881 2656 2881 3163 
Q 2881 3666 2632 3958 
Q 2384 4250 1959 4250 
Q 1534 4250 1286 3958 
Q 1038 3666 1038 3163 
Q 1038 2656 1286 2365 
Q 1534 2075 1959 2075 
z
" transform="scale(0.015625)"/>
       </defs>
       <use xlink:href="#DejaVuSans-2212"/>
       <use xlink:href="#DejaVuSans-39" x="83.789062"/>
       <use xlink:href="#DejaVuSans-30" x="147.412109"/>
      </g>
     </g>
    </g>
    <g id="ytick_3">
     <g id="line2d_10">
      <g>
       <use xlink:href="#mb7b03491ca" x="54" y="165.024" style="stroke: #000000; stroke-width: 0.8"/>
      </g>
     </g>
     <g id="text_11">
      <!-- −80 -->
      <g transform="translate(25.895312 168.823219)scale(0.1 -0.1)">
       <defs>
        <path id="DejaVuSans-38" d="M 2034 2216 
Q 1584 2216 1326 1975 
Q 1069 1734 1069 1313 
Q 1069 891 1326 650 
Q 1584 409 2034 409 
Q 2484 409 2743 651 
Q 3003 894 3003 1313 
Q 3003 1734 2745 1975 
Q 2488 2216 2034 2216 
z
M 1403 2484 
Q 997 2584 770 2862 
Q 544 3141 544 3541 
Q 544 4100 942 4425 
Q 1341 4750 2034 4750 
Q 2731 4750 3128 4425 
Q 3525 4100 3525 3541 
Q 3525 3141 3298 2862 
Q 3072 2584 2669 2484 
Q 3125 2378 3379 2068 
Q 3634 1759 3634 1313 
Q 3634 634 3220 271 
Q 2806 -91 2034 -91 
Q 1263 -91 848 271 
Q 434 634 434 1313 
Q 434 1759 690 2068 
Q 947 2378 1403 2484 
z
M 1172 3481 
Q 1172 3119 1398 2916 
Q 1625 2713 2034 2713 
Q 2441 2713 2670 2916 
Q 2900 3119 2900 3481 
Q 2900 3844 2670 4047 
Q 2441 4250 2034 4250 
Q 1625 4250 1398 4047 
Q 1172 3844 1172 3481 
z
" transform="scale(0.015625)"/>
       </defs>
       <use xlink:href="#DejaVuSans-2212"/>
       <use xlink:href="#DejaVuSans-38" x="83.789062"/>
       <use xlink:href="#DejaVuSans-30" x="147.412109"/>
      </g>
     </g>
    </g>
    <g id="ytick_4">
     <g id="line2d_11">
      <g>
       <use xlink:href="#mb7b03491ca" x="54" y="121.536" style="stroke: #000000; stroke-width: 0.8"/>
      </g>
     </g>
     <g id="text_12">
      <!-- −70 -->
      <g transform="translate(25.895312 125.335219)scale(0.1 -0.1)">
       <defs>
        <path id="DejaVuSans-37" d="M 525 4666 
L 3525 4666 
L 3525 4397 
L 1831 0 
L 1172 0 
L 2766 4134 
L 525 4134 
L 525 4666 
z
" transform="scale(0.015625)"/>
       </defs>
       <use xlink:href="#DejaVuSans-2212"/>
       <use xlink:href="#DejaVuSans-37" x="83.789062"/>
       <use xlink:href="#DejaVuSans-30" x="147.412109"/>
      </g>
     </g>
    </g>
    <g id="ytick_5">
     <g id="line2d_12">
      <g>
       <use xlink:href="#mb7b03491ca" x="54" y="78.048" style="stroke: #000000; stroke-width: 0.8"/>
      </g>
     </g>
     <g id="text_13">
      <!-- −60 -->
      <g transform="translate(25.895312 81.847219)scale(0.1 -0.1)">
       <use xlink:href="#DejaVuSans-2212"/>
       <use xlink:href="#DejaVuSans-36" x="83.789062"/>
       <use xlink:href="#DejaVuSans-30" x="147.412109"/>
      </g>
     </g>
    </g>
    <g id="ytick_6">
     <g id="line2d_13">
      <g>
       <use xlink:href="#mb7b03491ca" x="54" y="34.56" style="stroke: #000000; stroke-width: 0.8"/>
      </g>
     </g>
     <g id="text_14">
      <!-- −50 -->
      <g transform="translate(25.895312 38.359219)scale(0.1 -0.1)">
       <use xlink:href="#DejaVuSans-2212"/>
       <use xlink:href="#DejaVuSans-35" x="83.789062"/>
       <use xlink:href="#DejaVuSans-30" x="147.412109"/>
      </g>
     </g>
    </g>
    <g id="text_15">
     <!-- Membrane potential (mV) -->
     <g transform="translate(13.453125 207.691719)rotate(-90)scale(0.1 -0.1)">
      <defs>
       <path id="DejaVuSans-4d" d="M 628 4666 
L 1569 4666 
L 2759 1491 
L 3956 4666 
L 4897 4666 
L 4897 0 
L 4281 0 
L 4281 4097 
L 3078 897 
L 2444 897 
L 1241 4097 
L 1241 0 
L 628 0 
L 628 4666 
z
" transform="scale(0.015625)"/>
       <path id="DejaVuSans-62" d="M 3116 1747 
Q 3116 2381 2855 2742 
Q 2594 3103 2138 3103 
Q 1681 3103 1420 2742 
Q 1159 2381 1159 1747 
Q 1159 1113 1420 752 
Q 1681 391 2138 391 
Q 2594 391 2855 752 
Q 3116 1113 3116 1747 
z
M 1159 2969 
Q 1341 3281 1617 3432 
Q 1894 3584 2278 3584 
Q 2916 3584 3314 3078 
Q 3713 2572 3713 1747 
Q 3713 922 3314 415 
Q 2916 -91 2278 -91 
Q 1894 -91 1617 61 
Q 1341 213 1159 525 
L 1159 0 
L 581 0 
L 581 4863 
L 1159 4863 
L 1159 2969 
z
" transform="scale(0.015625)"/>
       <path id="DejaVuSans-72" d="M 2631 2963 
Q 2534 3019 2420 3045 
Q 2306 3072 2169 3072 
Q 1681 3072 1420 2755 
Q 1159 2438 1159 1844 
L 1159 0 
L 581 0 
L 581 3500 
L 1159 3500 
L 1159 2956 
Q 1341 3275 1631 3429 
Q 1922 3584 2338 3584 
Q 2397 3584 2469 3576 
Q 2541 3569 2628 3553 
L 2631 2963 
z
" transform="scale(0.015625)"/>
       <path id="DejaVuSans-61" d="M 2194 1759 
Q 1497 1759 1228 1600 
Q 959 1441 959 1056 
Q 959 750 1161 570 
Q 1363 391 1709 391 
Q 2188 391 2477 730 
Q 2766 1069 2766 1631 
L 2766 1759 
L 2194 1759 
z
M 3341 1997 
L 3341 0 
L 2766 0 
L 2766 531 
Q 2569 213 2275 61 
Q 1981 -91 1556 -91 
Q 1019 -91 701 211 
Q 384 513 384 1019 
Q 384 1609 779 1909 
Q 1175 2209 1959 2209 
L 2766 2209 
L 2766 2266 
Q 2766 2663 2505 2880 
Q 2244 3097 1772 3097 
Q 1472 3097 1187 3025 
Q 903 2953 641 2809 
L 641 3341 
Q 956 3463 1253 3523 
Q 1550 3584 1831 3584 
Q 2591 3584 2966 3190 
Q 3341 2797 3341 1997 
z
" transform="scale(0.015625)"/>
       <path id="DejaVuSans-6e" d="M 3513 2113 
L 3513 0 
L 2938 0 
L 2938 2094 
Q 2938 2591 2744 2837 
Q 2550 3084 2163 3084 
Q 1697 3084 1428 2787 
Q 1159 2491 1159 1978 
L 1159 0 
L 581 0 
L 581 3500 
L 1159 3500 
L 1159 2956 
Q 1366 3272 1645 3428 
Q 1925 3584 2291 3584 
Q 2894 3584 3203 3211 
Q 3513 2838 3513 2113 
z
" transform="scale(0.015625)"/>
       <path id="DejaVuSans-20" transform="scale(0.015625)"/>
       <path id="DejaVuSans-70" d="M 1159 525 
L 1159 -1331 
L 581 -1331 
L 581 3500 
L 1159 3500 
L 1159 2969 
Q 1341 3281 1617 3432 
Q 1894 3584 2278 3584 
Q 2916 3584 3314 3078 
Q 3713 2572 3713 1747 
Q 3713 922 3314 415 
Q 2916 -91 2278 -91 
Q 1894 -91 1617 61 
Q 1341 213 1159 525 
z
M 3116 1747 
Q 3116 2381 2855 2742 
Q 2594 3103 2138 3103 
Q 1681 3103 1420 2742 
Q 1159 2381 1159 1747 
Q 1159 1113 1420 752 
Q 1681 391 2138 391 
Q 2594 391 2855 752 
Q 3116 1113 3116 1747 
z
" transform="scale(0.015625)"/>
       <path id="DejaVuSans-6f" d="M 1959 3097 
Q 1497 3097 1228 2736 
Q 959 2375 959 1747 
Q 959 1119 1226 758 
Q 1494 397 1959 397 
Q 2419 397 2687 759 
Q 2956 1122 2956 1747 
Q 2956 2369 2687 2733 
Q 2419 3097 1959 3097 
z
M 1959 3584 
Q 2709 3584 3137 3096 
Q 3566 2609 3566 1747 
Q 3566 888 3137 398 
Q 2709 -91 1959 -91 
Q 1206 -91 779 398 
Q 353 888 353 1747 
Q 353 2609 779 3096 
Q 1206 3584 1959 3584 
z
" transform="scale(0.015625)"/>
       <path id="DejaVuSans-74" d="M 1172 4494 
L 1172 3500 
L 2356 3500 
L 2356 3053 
L 1172 3053 
L 1172 1153 
Q 1172 725 1289 603 
Q 1406 481 1766 481 
L 2356 481 
L 2356 0 
L 1766 0 
Q 1100 0 847 248 
Q 594 497 594 1153 
L 594 3053 
L 172 3053 
L 172 3500 
L 594 3500 
L 594 4494 
L 1172 4494 
z
" transform="scale(0.015625)"/>
       <path id="DejaVuSans-6c" d="M 603 4863 
L 1178 4863 
L 1178 0 
L 603 0 
L 603 4863 
z
" transform="scale(0.015625)"/>
       <path id="DejaVuSans-56" d="M 1831 0 
L 50 4666 
L 709 4666 
L 2188 738 
L 3669 4666 
L 4325 4666 
L 2547 0 
L 1831 0 
z
" transform="scale(0.015625)"/>
      </defs>
      <use xlink:href="#DejaVuSans-4d"/>
      <use xlink:href="#DejaVuSans-65" x="86.279297"/>
      <use xlink:href="#DejaVuSans-6d" x="147.802734"/>
      <use xlink:href="#DejaVuSans-62" x="245.214844"/>
      <use xlink:href="#DejaVuSans-72" x="308.691406"/>
      <use xlink:href="#DejaVuSans-61" x="349.804688"/>
      <use xlink:href="#DejaVuSans-6e" x="411.083984"/>
      <use xlink:href="#DejaVuSans-65" x="474.462891"/>
      <use xlink:href="#DejaVuSans-20" x="535.986328"/>
      <use xlink:href="#DejaVuSans-70" x="567.773438"/>
      <use xlink:href="#DejaVuSans-6f" x="631.25"/>
      <use xlink:href="#DejaVuSans-74" x="692.431641"/>
      <use xlink:href="#DejaVuSans-65" x="731.640625"/>
      <use xlink:href="#DejaVuSans-6e" x="793.164062"/>
      <use xlink:href="#DejaVuSans-74" x="856.542969"/>
      <use xlink:href="#DejaVuSans-69" x="895.751953"/>
      <use xlink:href="#DejaVuSans-61" x="923.535156"/>
      <use xlink:href="#DejaVuSans-6c" x="984.814453"/>
      <use xlink:href="#DejaVuSans-20" x="1012.597656"/>
      <use xlink:href="#DejaVuSans-28" x="1044.384766"/>
      <use xlink:href="#DejaVuSans-6d" x="1083.398438"/>
      <use xlink:href="#DejaVuSans-56" x="1180.810547"/>
      <use xlink:href="#DejaVuSans-29" x="1249.21875"/>
     </g>
    </g>
   </g>
   <g id="line2d_14">
    <path d="M 69.218182 178.0704 
L 69.319636 174.578868 
L 69.352609 174.662236 
L 69.522545 175.981561 
L 69.591027 176.443209 
L 69.646827 176.126274 
L 70.052645 173.29097 
L 70.149027 173.32174 
L 70.164245 173.343779 
L 70.336718 173.826504 
L 70.780582 175.933287 
L 71.090018 177.376215 
L 71.133136 177.179658 
L 71.252345 175.006778 
L 71.6328 168.707579 
L 71.833173 168.104743 
L 71.932091 168.226148 
L 72.127391 168.937586 
L 72.185727 169.155344 
L 72.236455 168.936231 
L 72.660027 166.197315 
L 72.703145 166.22756 
L 72.8325 166.577736 
L 73.114036 168.14991 
L 74.491282 176.591985 
L 74.678973 177.273025 
L 74.727164 177.135765 
L 74.8971 175.607603 
L 75.209073 173.61937 
L 75.389155 173.44017 
L 75.394227 173.442344 
L 75.546409 173.636305 
L 75.564164 173.647569 
L 75.597136 173.533216 
L 75.718882 171.982029 
L 76.000418 169.453305 
L 76.1247 169.301798 
L 76.157673 169.325061 
L 76.299709 169.636817 
L 76.388482 169.871053 
L 76.439209 169.712114 
L 76.6827 167.680647 
L 76.9059 166.92675 
L 77.025109 166.779352 
L 77.233091 165.551511 
L 77.367518 164.1786 
L 77.702318 160.110545 
L 77.829136 159.882636 
L 77.864645 159.909864 
L 77.991464 160.251092 
L 78.255245 161.750114 
L 80.226 174.66298 
L 80.852482 176.738807 
L 81.478964 178.087188 
L 82.146027 179.014039 
L 82.917082 179.70595 
L 83.147891 179.847052 
L 83.170718 179.764163 
L 83.277245 178.453908 
L 83.642482 174.446483 
L 83.863145 173.935024 
L 84.002645 174.001622 
L 84.230918 174.446342 
L 84.882764 176.394274 
L 85.663964 178.381996 
L 85.988618 178.981348 
L 86.008909 178.864957 
L 86.145873 176.169794 
L 86.424873 172.741221 
L 86.612564 172.339697 
L 86.6151 172.340219 
L 86.734309 172.481782 
L 86.982873 173.228864 
L 88.443818 178.194216 
L 89.077909 179.368656 
L 89.744973 180.150976 
L 90.523636 180.719419 
L 90.696109 180.763747 
L 90.718936 180.706829 
L 90.835609 179.933825 
L 91.264255 175.068811 
L 91.591445 169.966239 
L 91.796891 169.336749 
L 91.903418 169.44185 
L 92.103791 170.072729 
L 92.339673 171.118488 
L 92.395473 170.804641 
L 92.796218 168.068011 
L 92.8926 168.08974 
L 92.910355 168.113942 
L 93.077755 168.570831 
L 93.458209 170.420403 
L 94.307891 174.691802 
L 94.338327 174.621598 
L 94.457536 173.600968 
L 94.855745 168.177058 
L 95.144891 164.035433 
L 95.322436 163.553241 
L 95.335118 163.557629 
L 95.439109 163.736542 
L 95.6547 164.676674 
L 96.230455 168.511605 
L 97.085209 173.635975 
L 97.734518 176.24954 
L 98.353391 177.877559 
L 98.822618 178.695746 
L 98.842909 178.652198 
L 98.924073 177.874958 
L 99.230973 172.050069 
L 99.535336 167.431623 
L 99.743318 166.760209 
L 99.847309 166.85583 
L 100.037536 167.453087 
L 100.501691 169.849811 
L 101.036864 172.66559 
L 101.074909 172.450615 
L 101.326009 168.7486 
L 101.7648 161.296415 
L 101.843427 161.209507 
L 101.891618 161.266135 
L 102.036191 161.788284 
L 102.381136 164.088557 
L 102.609409 165.628329 
L 102.667745 165.41424 
L 103.0482 163.532155 
L 103.071027 163.542317 
L 103.1877 163.764012 
L 103.431191 164.832141 
L 104.181955 169.399642 
L 104.242827 168.685157 
L 104.600455 164.209335 
L 104.6943 164.091393 
L 104.739955 164.135013 
L 104.881991 164.562591 
L 105.2244 166.482054 
L 106.299818 172.604958 
L 106.959273 175.031863 
L 107.197691 175.686831 
L 107.223055 175.490099 
L 107.377773 171.770857 
L 107.715109 165.139713 
L 107.925627 164.271739 
L 108.024545 164.349455 
L 108.197018 164.909953 
L 108.6003 167.169827 
L 109.627527 172.930959 
L 109.6326 172.925749 
L 109.685864 172.580235 
L 109.952182 168.754245 
L 110.855127 153.714784 
L 110.875418 153.723188 
L 110.974336 153.942534 
L 111.182318 155.086833 
L 111.694664 159.492123 
L 112.767545 168.379001 
L 113.462509 172.326328 
L 113.726291 173.428431 
L 113.7618 173.212659 
L 114.685036 163.635434 
L 114.735764 163.67226 
L 114.804245 163.783863 
L 114.834682 163.631868 
L 115.293764 159.85044 
L 115.369855 159.939959 
L 115.534718 160.561533 
L 115.7148 161.4632 
L 115.780745 161.260441 
L 116.118082 159.958462 
L 116.138373 159.967766 
L 116.252509 160.186627 
L 116.430055 160.863618 
L 116.490927 160.566495 
L 116.863773 158.286336 
L 116.881527 158.292969 
L 116.980445 158.49524 
L 117.183355 159.458446 
L 117.254373 159.050186 
L 117.563809 157.254209 
L 117.647509 157.377122 
L 117.817445 158.171046 
L 118.233409 161.477025 
L 119.237809 169.261829 
L 119.909945 172.758096 
L 120.551645 174.992139 
L 121.200955 176.489351 
L 121.898455 177.556044 
L 122.702482 178.380512 
L 122.907927 178.544336 
L 122.925682 178.431495 
L 123.0525 175.73242 
L 123.341645 171.625465 
L 123.547091 171.052643 
L 123.663764 171.149911 
L 123.884427 171.736567 
L 125.218555 176.384276 
L 125.276891 176.073029 
L 125.426536 173.556732 
L 125.8146 165.30624 
L 126.017509 164.551614 
L 126.111355 164.652646 
L 126.293973 165.308284 
L 126.750518 168.018914 
L 127.691509 173.339571 
L 128.348427 175.810812 
L 128.979982 177.37277 
L 129.6369 178.428423 
L 130.372445 179.195117 
L 131.285536 179.817924 
L 131.648236 179.982408 
L 131.668527 179.916206 
L 131.775055 178.863594 
L 131.919627 175.512477 
L 132.256964 169.130872 
L 132.470018 168.262932 
L 132.571473 168.340803 
L 132.749018 168.904487 
L 133.182736 171.231158 
L 134.116118 176.032877 
L 134.745136 178.128906 
L 135.351327 179.419339 
L 135.982882 180.260141 
L 136.700673 180.847643 
L 137.626445 181.306368 
L 139.034127 181.732645 
L 140.659936 182.020174 
L 140.743636 181.189651 
L 141.210327 176.233743 
L 141.430991 175.795028 
L 141.580636 175.86963 
L 141.826664 176.326222 
L 142.095518 177.017492 
L 142.133564 176.769093 
L 142.650982 171.996669 
L 142.760045 172.108728 
L 142.975636 172.76857 
L 144.586227 178.734061 
L 144.611591 178.679679 
L 144.7029 177.798336 
L 144.819573 174.432839 
L 145.179736 162.950082 
L 145.390255 161.622567 
L 145.448591 161.638699 
L 145.479027 161.692421 
L 145.631209 162.307105 
L 145.988836 164.913209 
L 146.772573 170.740668 
L 146.803009 170.715385 
L 146.972945 170.257882 
L 147.322964 169.022811 
L 147.703418 166.069162 
L 147.815018 165.978812 
L 147.850527 166.008005 
L 147.997636 166.353079 
L 148.304536 167.774084 
L 149.915127 176.01545 
L 150.419864 177.509916 
L 150.437618 177.461389 
L 150.531464 176.369773 
L 150.873873 172.953553 
L 151.114827 171.612879 
L 151.4547 169.003322 
L 151.619564 168.79919 
L 151.634782 168.806017 
L 151.771745 169.013522 
L 152.0406 169.927114 
L 152.829409 173.430478 
L 152.918182 173.123393 
L 153.476182 170.362313 
L 153.605536 170.47965 
L 153.838882 171.08364 
L 154.115345 172.019597 
L 154.178755 171.827838 
L 154.706318 169.68884 
L 154.840745 169.809424 
L 155.076627 170.412258 
L 155.644773 172.655133 
L 156.585764 176.10303 
L 157.262973 177.769817 
L 157.930036 178.848373 
L 158.657973 179.61023 
L 159.215973 180.001444 
L 159.236264 179.953841 
L 159.327573 179.17712 
L 159.672518 173.752369 
L 159.979418 168.935094 
L 160.179791 168.334899 
L 160.253345 168.000064 
L 160.428355 165.911096 
L 160.806273 159.582 
L 161.049764 157.921671 
L 161.316082 156.002604 
L 161.369345 155.994375 
L 161.409927 156.057846 
L 161.551964 156.65773 
L 161.866473 159.185038 
L 163.218355 170.810404 
L 163.865127 174.241739 
L 164.481464 176.389672 
L 164.615891 176.701465 
L 164.661545 176.577529 
L 164.808655 175.219792 
L 165.148527 172.755848 
L 165.351436 172.480391 
L 165.468109 172.501564 
L 165.483327 172.394008 
L 165.589855 170.399232 
L 165.988064 163.195878 
L 166.173218 162.634668 
L 166.180827 162.636807 
L 166.279745 162.795787 
L 166.485191 163.674851 
L 167.030509 167.300263 
L 167.603727 170.914807 
L 167.641773 170.79375 
L 167.834536 168.961767 
L 168.080564 167.775055 
L 168.169336 167.773574 
L 168.199773 167.811336 
L 168.367173 168.273621 
L 168.686755 169.679586 
L 168.757773 169.344879 
L 169.153445 166.97652 
L 169.259973 167.059943 
L 169.447664 167.615531 
L 169.888991 169.799077 
L 170.685409 173.76531 
L 170.713309 173.678244 
L 170.794473 172.504557 
L 171.283991 164.315632 
L 171.418418 164.062371 
L 171.451391 164.083292 
L 171.578209 164.38205 
L 171.852136 165.74256 
L 172.052509 166.300427 
L 172.060118 166.297203 
L 172.115918 166.125802 
L 172.306145 164.422295 
L 172.592755 162.803323 
L 172.704355 162.73574 
L 172.737327 162.764239 
L 172.886973 163.112386 
L 173.013791 163.499453 
L 173.069591 163.346364 
L 173.510918 160.6304 
L 173.860936 158.554207 
L 173.949709 158.608756 
L 173.957318 158.622768 
L 174.114573 159.169994 
L 174.451909 161.331452 
L 175.859591 171.266954 
L 175.887491 171.237961 
L 176.011773 170.747964 
L 176.420127 168.2361 
L 176.965445 162.509771 
L 177.125236 162.308815 
L 177.145527 162.318773 
L 177.282491 162.545283 
L 177.5412 163.508873 
L 178.063691 166.282804 
L 178.160073 165.893507 
L 178.492336 164.496118 
L 178.603936 164.559303 
L 178.776409 165.037422 
L 179.136573 166.840568 
L 180.447873 173.84459 
L 180.458018 173.838005 
L 180.529036 173.580177 
L 181.109864 170.946926 
L 181.218927 170.789379 
L 181.393936 166.914275 
L 181.776927 160.313959 
L 181.954473 158.468313 
L 182.233473 155.991372 
L 182.299418 155.943073 
L 182.347609 156.005104 
L 182.492182 156.559432 
L 182.816836 158.90331 
L 183.047645 160.846659 
L 183.100909 160.400208 
L 183.417955 157.667194 
L 183.478827 157.69965 
L 183.501655 157.745823 
L 183.6513 158.392532 
L 183.831382 159.216812 
L 183.889718 159.141169 
L 184.219445 158.704302 
L 184.2651 158.546821 
L 184.450255 156.624385 
L 184.681064 155.459512 
L 184.757155 155.492557 
L 184.777445 155.527973 
L 184.9347 156.095307 
L 185.274573 158.348869 
L 186.030409 164.105752 
L 186.101427 163.891124 
L 186.514855 162.184359 
L 186.537682 162.194632 
L 186.661964 162.418765 
L 186.755809 162.706114 
L 186.796391 162.493758 
L 187.2783 156.985782 
L 187.521791 154.848089 
L 187.580127 154.810714 
L 187.628318 154.877404 
L 187.772891 155.468452 
L 188.107691 158.012386 
L 188.427273 160.56951 
L 188.490682 160.400605 
L 188.835627 159.096398 
L 188.876209 159.124888 
L 189.005564 159.458076 
L 189.041073 159.594414 
L 189.071509 159.314945 
L 189.449427 155.127543 
L 189.4545 155.128408 
L 189.533127 155.269557 
L 189.642191 155.711508 
L 189.692918 155.425944 
L 190.030255 153.03694 
L 190.053082 153.049713 
L 190.149464 153.304019 
L 190.362518 154.657625 
L 190.390418 154.851582 
L 190.433536 154.367777 
L 190.798773 149.569994 
L 190.912909 149.312562 
L 191.232491 147.780924 
L 191.283218 147.834805 
L 191.412573 148.333841 
L 191.683964 150.480158 
L 192.008618 153.46648 
L 192.074564 153.180689 
L 192.378927 151.583392 
L 192.401755 151.595311 
L 192.503209 151.838895 
L 192.721336 153.091486 
L 193.309773 158.187181 
L 194.146773 164.775458 
L 194.151845 164.772917 
L 194.205109 164.56804 
L 194.661655 160.946512 
L 195.037036 154.249515 
L 195.199364 152.966044 
L 195.640691 147.331472 
L 196.1505 140.826572 
L 196.361018 139.698346 
L 196.437109 139.794836 
L 196.586755 140.511752 
L 196.908873 143.401051 
L 197.865082 152.299061 
L 198.146618 153.409789 
L 198.570191 156.261191 
L 198.664036 156.690485 
L 198.719836 156.567147 
L 199.102827 155.149957 
L 199.168773 155.215582 
L 199.328564 155.710873 
L 199.660827 157.63348 
L 200.122445 160.629549 
L 200.190927 160.471887 
L 201.071045 157.178461 
L 201.126845 157.220717 
L 201.281564 157.592461 
L 201.585927 159.034301 
L 202.105882 162.027699 
L 202.189582 161.831333 
L 202.263136 160.815099 
L 202.800845 152.462494 
L 203.538927 143.979299 
L 203.604873 143.947982 
L 203.650527 144.00797 
L 203.792564 144.537048 
L 204.094391 146.716216 
L 205.141909 155.429881 
L 205.212927 155.398843 
L 205.410764 155.409894 
L 205.573091 155.764472 
L 205.628891 155.947134 
L 205.656791 155.700988 
L 206.037245 148.088078 
L 206.280736 145.476338 
L 206.349218 145.398439 
L 206.399945 145.467041 
L 206.539445 146.061899 
L 206.564809 146.20285 
L 206.600318 145.792897 
L 207.067009 138.429016 
L 207.130418 138.372379 
L 207.181145 138.443122 
L 207.318109 139.046362 
L 207.609791 141.573396 
L 208.555855 151.614795 
L 208.652236 151.236775 
L 209.253355 148.095608 
L 209.2635 148.098378 
L 209.370027 148.263699 
L 209.567864 149.102222 
L 209.973682 152.009578 
L 210.308482 154.684593 
L 210.371891 154.379234 
L 210.719373 152.51563 
L 210.810682 152.621986 
L 210.980618 153.294245 
L 211.241864 154.867861 
L 211.317955 154.50574 
L 211.683191 152.574822 
L 211.779573 152.663227 
L 211.944436 153.255305 
L 212.299527 155.554637 
L 212.679982 158.318905 
L 212.743391 158.055596 
L 213.111164 156.15881 
L 213.126382 156.164022 
L 213.227836 156.346946 
L 213.435818 157.306321 
L 213.983673 161.217157 
L 214.929736 167.461398 
L 214.939882 167.472429 
L 214.970318 167.305162 
L 215.114891 164.703586 
L 215.251855 159.695654 
L 215.579045 148.552108 
L 215.789564 147.075199 
L 215.842827 147.099116 
L 215.868191 147.149793 
L 216.012764 147.806422 
L 216.347564 150.621538 
L 217.866845 164.268019 
L 218.059609 165.532392 
L 218.102727 165.142298 
L 218.485718 161.117315 
L 218.5542 161.097098 
L 218.597318 161.151804 
L 218.757109 161.671292 
L 219.157855 163.948635 
L 220.180009 169.641227 
L 220.892727 172.351231 
L 221.450727 173.814129 
L 221.468482 173.79583 
L 221.549645 173.427368 
L 222.059455 169.0795 
L 222.726518 160.290089 
L 222.893918 159.946104 
L 222.911673 159.95386 
L 223.028345 160.162199 
L 223.264227 161.158355 
L 223.878027 165.018698 
L 224.819018 170.435944 
L 225.2223 172.150245 
L 225.255273 171.997557 
L 225.442964 169.372697 
L 225.704209 167.428242 
L 225.828491 167.3014 
L 225.861464 167.32344 
L 226.011109 167.625906 
L 226.345909 168.93669 
L 226.718755 170.518537 
L 226.774555 170.376766 
L 227.294509 168.10421 
L 227.373136 168.166499 
L 227.563364 168.604745 
L 228.002155 170.324009 
L 228.230427 171.26392 
L 228.2634 170.976123 
L 228.433336 166.434317 
L 228.722482 161.645057 
L 228.9051 158.561842 
L 229.321064 152.855989 
L 229.432664 152.651859 
L 229.473245 152.689164 
L 229.600064 153.095664 
L 229.871455 154.887955 
L 230.672945 161.706271 
L 230.756645 161.088654 
L 231.243627 155.119285 
L 231.309573 155.127911 
L 231.340009 155.175277 
L 231.378055 155.22723 
L 231.4161 155.085245 
L 231.560673 153.305074 
L 231.986782 148.633313 
L 232.067945 148.55909 
L 232.1136 148.610096 
L 232.250564 149.078685 
L 232.537173 151.031588 
L 233.531427 160.133706 
L 233.896664 162.918634 
L 233.947391 162.809452 
L 234.287264 161.14996 
L 234.665182 155.825502 
L 234.751418 155.71617 
L 234.799609 155.76991 
L 234.941645 156.272017 
L 235.2663 158.447286 
L 236.679055 168.555714 
L 236.907327 169.681381 
L 236.952982 169.446516 
L 237.176182 166.182885 
L 237.4425 164.163778 
L 237.587073 163.993325 
L 237.612436 164.007937 
L 237.754473 164.266935 
L 238.043618 165.370666 
L 238.766482 168.94336 
L 238.827355 168.47585 
L 239.258536 164.299511 
L 239.344773 164.263666 
L 239.385355 164.307104 
L 239.545145 164.74407 
L 239.923064 166.599297 
L 240.285764 168.464185 
L 240.339027 168.273039 
L 240.795573 165.837918 
L 240.823473 165.84986 
L 240.960436 166.078371 
L 241.241973 167.08959 
L 243.040255 174.407668 
L 243.732682 175.984633 
L 244.463155 177.111615 
L 245.0034 177.714463 
L 245.018618 177.638401 
L 245.125145 175.636005 
L 245.429509 171.428361 
L 245.634955 170.877665 
L 245.754164 170.972666 
L 245.977364 171.543247 
L 247.841591 177.217614 
L 248.531482 178.275642 
L 249.3 179.051207 
L 250.256209 179.69204 
L 251.608091 180.312874 
L 252.642927 180.66142 
L 252.655609 180.613942 
L 252.7317 179.628595 
L 253.594064 163.612388 
L 253.703127 163.453529 
L 253.743709 163.489451 
L 253.878136 163.876095 
L 254.172355 165.561355 
L 255.653591 174.872867 
L 256.277536 177.126099 
L 256.886264 178.542241 
L 257.444264 179.356699 
L 257.449336 179.352733 
L 257.520355 179.121245 
L 258.217855 176.012971 
L 258.397936 176.056303 
L 258.656645 176.410212 
L 259.262836 177.731383 
L 260.150564 179.48196 
L 260.792264 180.297303 
L 260.7948 180.295296 
L 260.845527 180.083651 
L 261.023073 177.871285 
L 261.855 168.587721 
L 262.151755 167.034665 
L 262.235455 167.032399 
L 262.265891 167.071443 
L 262.423145 167.536551 
L 262.765555 169.417981 
L 263.470664 173.676955 
L 263.526464 173.550287 
L 263.838436 171.876062 
L 264.343173 167.383285 
L 264.444627 167.472263 
L 264.627245 168.055264 
L 265.058427 170.368724 
L 265.408445 171.78231 
L 265.948691 172.226797 
L 266.072973 172.484208 
L 266.118627 172.346675 
L 266.331682 170.576549 
L 266.592927 169.446661 
L 266.719745 169.418086 
L 266.740036 169.436397 
L 266.942945 169.723956 
L 267.008891 169.569956 
L 267.480655 168.170308 
L 267.513627 168.186969 
L 267.665809 168.436917 
L 267.954955 169.437729 
L 268.693036 172.76673 
L 268.789418 172.47457 
L 269.180018 170.046362 
L 269.489455 165.898372 
L 269.935855 161.443971 
L 270.014482 161.553803 
L 270.184418 162.29111 
L 270.607991 165.388636 
L 271.589564 172.352731 
L 272.238873 175.395259 
L 272.796873 177.069273 
L 272.867891 177.040323 
L 272.890718 176.999456 
L 273.083482 176.331949 
L 273.451255 175.325085 
L 273.694745 175.193758 
L 273.938236 175.329782 
L 274.308545 175.839185 
L 275.143009 177.482318 
L 275.262218 177.684984 
L 275.305336 177.567052 
L 275.449909 176.267473 
L 275.794855 173.781428 
L 275.997764 173.509475 
L 276.147409 173.640643 
L 276.368073 174.070394 
L 276.413727 173.868047 
L 276.565909 171.7121 
L 276.903245 168.010145 
L 277.106155 167.575342 
L 277.225364 167.692 
L 277.3674 167.98695 
L 277.418127 167.823514 
L 277.636255 165.914152 
L 277.874673 164.924019 
L 277.973591 164.973318 
L 277.9812 164.985763 
L 278.1486 165.49803 
L 278.298245 166.211969 
L 278.336291 165.842229 
L 278.737036 160.965146 
L 278.792836 160.979881 
L 278.823273 161.033948 
L 278.972918 161.648028 
L 279.343227 164.362405 
L 279.495409 165.297984 
L 279.551209 165.153654 
L 279.809918 163.483877 
L 280.225882 158.601038 
L 280.281682 158.586923 
L 280.3248 158.649476 
L 280.471909 159.225236 
L 280.811782 161.677276 
L 282.034309 170.850916 
L 282.495927 173.060272 
L 282.521291 173.030122 
L 282.615136 172.546211 
L 283.091973 169.841116 
L 283.236545 169.822989 
L 283.244155 169.829634 
L 283.424236 170.147074 
L 283.802155 171.376319 
L 285.105845 175.812326 
L 285.795736 177.294021 
L 286.505918 178.309205 
L 286.959927 178.726727 
L 286.982755 178.695532 
L 287.096891 178.251079 
L 287.713227 174.224514 
L 288.065782 168.734864 
L 288.266155 168.207584 
L 288.377755 168.330661 
L 288.595882 169.018586 
L 289.214755 171.974923 
L 290.039073 175.435863 
L 290.640191 177.119695 
L 290.645264 177.116772 
L 290.7036 176.9107 
L 290.825345 175.553183 
L 291.938809 158.298524 
L 292.012364 158.133623 
L 292.149327 155.479929 
L 292.438473 151.621081 
L 292.539927 151.411468 
L 292.585582 151.460869 
L 292.7124 151.949918 
L 292.9914 154.121883 
L 293.993264 163.927807 
L 294.066818 163.132915 
L 294.350891 160.3644 
L 294.411764 160.326761 
L 294.459955 160.393837 
L 294.6096 160.989382 
L 294.987518 163.667904 
L 295.966555 170.477905 
L 296.633618 173.560298 
L 297.280391 175.556213 
L 297.942382 176.911061 
L 298.665245 177.89561 
L 299.514927 178.675592 
L 300.334173 179.181294 
L 300.341782 179.168764 
L 300.428018 178.758832 
L 301.097618 174.665014 
L 301.272627 174.656835 
L 301.493291 174.938935 
L 301.980273 176.021163 
L 302.987209 178.17407 
L 303.705 179.177178 
L 304.478591 179.880408 
L 305.439873 180.444244 
L 306.728345 180.939007 
L 306.771464 180.600972 
L 307.326927 174.785508 
L 307.466427 174.722553 
L 307.484182 174.735297 
L 307.656655 175.022313 
L 308.059936 176.248758 
L 309.008536 179.056189 
L 309.645164 180.24549 
L 310.291936 180.99982 
L 311.030018 181.518279 
L 311.149227 181.569359 
L 311.166982 181.476357 
L 311.278582 179.527669 
L 311.499245 172.779403 
L 311.877164 164.15596 
L 312.092755 162.765285 
L 312.151091 162.779129 
L 312.181527 162.832185 
L 312.331173 163.433075 
L 312.470673 164.16529 
L 312.529009 163.905867 
L 312.833373 162.171186 
L 312.861273 162.18755 
L 312.9678 162.463706 
L 313.206218 163.863009 
L 313.282309 164.139209 
L 313.338109 164.01183 
L 313.393909 163.146612 
L 313.817482 155.664068 
L 313.8885 155.574464 
L 313.939227 155.645228 
L 314.078727 156.263543 
L 314.400845 158.953256 
L 315.704536 170.482049 
L 316.351309 174.050142 
L 316.965109 176.273233 
L 317.581445 177.716906 
L 318.235827 178.703758 
L 318.984055 179.431975 
L 319.128627 179.53071 
L 319.153991 179.432465 
L 319.2732 177.865772 
L 319.625755 174.066773 
L 319.851491 173.490745 
L 319.993527 173.541492 
L 320.176145 173.835596 
L 320.211655 173.640117 
L 320.774727 169.379795 
L 320.777264 169.380094 
L 320.896473 169.509827 
L 321.122209 170.185317 
L 321.431645 171.392016 
L 321.502664 171.204691 
L 321.959209 169.698571 
L 322.093636 169.807111 
L 322.319373 170.365456 
L 322.573009 171.15466 
L 322.638955 171.020813 
L 323.027018 170.007242 
L 323.049845 170.017796 
L 323.194418 170.242654 
L 323.481027 171.209805 
L 324.244473 174.359242 
L 324.3231 174.184856 
L 324.815155 172.7595 
L 324.967336 172.862924 
L 325.218436 173.379287 
L 325.647082 174.572764 
L 325.720636 174.400728 
L 326.344582 172.266282 
L 326.362336 172.272428 
L 326.534809 172.467168 
L 326.854391 173.241215 
L 327.772555 176.100169 
L 327.848645 175.828822 
L 328.464982 172.514128 
L 328.609555 172.621048 
L 328.883482 173.122258 
L 328.9545 172.927036 
L 329.218282 171.196986 
L 329.788964 165.04102 
L 329.887882 165.12598 
L 330.062891 165.703506 
L 330.468709 168.003075 
L 331.254982 172.638873 
L 331.287955 172.491714 
L 331.526373 169.616982 
L 331.752109 168.585381 
L 331.845955 168.61383 
L 331.861173 168.635707 
L 331.9956 168.94725 
L 332.038718 168.710134 
L 332.127491 166.788452 
L 332.647445 154.02764 
L 332.842745 152.961771 
L 332.845282 152.962007 
L 332.921373 153.08961 
L 333.086236 153.959978 
L 333.489518 157.602171 
L 334.164191 163.815371 
L 334.209845 163.716604 
L 334.597909 162.313641 
L 334.666391 162.379442 
L 334.831255 162.864869 
L 335.188882 164.781229 
L 336.479891 172.007841 
L 337.167245 174.491219 
L 337.839382 176.128662 
L 338.544491 177.281445 
L 339.343445 178.164514 
L 340.330091 178.916093 
L 341.674364 179.646471 
L 343.594391 180.422815 
L 345.950673 181.139216 
L 346.021691 180.945905 
L 346.209382 179.464774 
L 346.5594 177.364997 
L 346.800355 176.992455 
L 346.985509 177.048513 
L 347.264509 177.428297 
L 348.976555 180.417746 
L 349.006991 180.257212 
L 349.182 177.529106 
L 349.897255 168.365917 
L 350.013927 168.251353 
L 350.049436 168.278485 
L 350.196545 168.612468 
L 350.513591 170.022272 
L 350.954918 172.121934 
L 351.013255 172.04286 
L 351.485018 171.044405 
L 351.538282 171.081812 
L 351.606764 171.142358 
L 351.639736 171.040479 
L 351.764018 169.74499 
L 352.058236 167.461082 
L 352.261145 166.67405 
L 352.583264 165.379802 
L 352.6974 165.441176 
L 352.869873 165.92674 
L 353.232573 167.76842 
L 354.564164 174.888951 
L 355.210936 177.02101 
L 355.842491 178.378537 
L 356.507018 179.297752 
L 357.267927 179.972043 
L 357.846218 180.309398 
L 357.863973 180.265337 
L 357.960355 179.477455 
L 358.394073 175.877114 
L 358.622345 175.483205 
L 358.784673 175.552824 
L 359.043382 175.981228 
L 359.844873 177.945536 
L 359.943791 178.162668 
L 359.974227 177.974982 
L 360.567736 172.479151 
L 360.582955 172.48302 
L 360.709773 172.655757 
L 360.976091 173.509648 
L 362.363482 178.457981 
L 362.563855 178.89097 
L 362.6019 178.764335 
L 362.738864 177.18536 
L 363.050836 174.525951 
L 363.248673 174.231953 
L 363.388173 174.376753 
L 363.504845 174.575782 
L 363.553036 174.453236 
L 364.100891 172.298921 
L 364.151618 172.327192 
L 364.324091 172.625266 
L 364.674109 173.783402 
L 364.897309 174.586078 
L 364.9455 174.40915 
L 365.445164 171.402579 
L 365.498427 171.43448 
L 365.660755 171.762459 
L 366.015845 173.111387 
L 367.185109 177.718369 
L 367.816664 179.242578 
L 368.443145 180.202026 
L 369.127964 180.852289 
L 369.9675 181.335346 
L 371.164664 181.748435 
L 371.649109 181.802843 
L 371.656718 181.770894 
L 371.758173 180.731863 
L 372.186818 176.356007 
L 373.158245 166.846664 
L 373.206436 166.882863 
L 373.345936 167.264193 
L 373.581818 168.469084 
L 373.581818 168.469084 
" clip-path="url(#p9db136adec)" style="fill: none; stroke: #000000; stroke-width: 1.5; stroke-linecap: square"/>
   </g>
   <g id="line2d_15">
    <path d="M 69.218182 178.0704 
L 69.319636 174.578868 
L 69.352609 174.662236 
L 69.522545 175.981561 
L 69.591027 176.443209 
L 69.646827 176.126274 
L 70.052645 173.29097 
L 70.149027 173.32174 
L 70.164245 173.343779 
L 70.336718 173.826504 
L 70.780582 175.933287 
L 71.090018 177.376215 
L 71.133136 177.179658 
L 71.252345 175.006778 
L 71.6328 168.707579 
L 71.833173 168.104743 
L 71.932091 168.226148 
L 72.127391 168.937586 
L 72.185727 169.155344 
L 72.236455 168.936231 
L 72.660027 166.197315 
L 72.703145 166.22756 
L 72.8325 166.577736 
L 73.114036 168.14991 
L 74.491282 176.591985 
L 74.678973 177.273025 
L 74.727164 177.135765 
L 74.8971 175.607603 
L 75.209073 173.61937 
L 75.389155 173.44017 
L 75.394227 173.442344 
L 75.546409 173.636305 
L 75.564164 173.647569 
L 75.597136 173.533216 
L 75.718882 171.982029 
L 76.000418 169.452973 
L 76.1247 169.301114 
L 76.157673 169.324273 
L 76.299709 169.63554 
L 76.388482 169.869443 
L 76.439209 169.710303 
L 76.6827 167.677804 
L 76.9059 166.922939 
L 77.025109 166.775018 
L 77.233091 165.546262 
L 77.367518 164.172792 
L 77.704855 160.093237 
L 77.829136 159.875304 
L 77.864645 159.902431 
L 77.991464 160.243291 
L 78.255245 161.741402 
L 80.223464 174.630565 
L 80.849945 176.705315 
L 81.476427 178.051891 
L 82.143491 178.976312 
L 82.914545 179.665116 
L 83.147891 179.806899 
L 83.170718 179.723903 
L 83.277245 178.413149 
L 83.642482 174.404322 
L 83.863145 173.892394 
L 84.002645 173.958704 
L 84.230918 174.402849 
L 84.882764 176.348247 
L 85.661427 178.326994 
L 85.988618 178.930004 
L 86.008909 178.813533 
L 86.145873 176.117786 
L 86.424873 172.687992 
L 86.612564 172.286062 
L 86.617636 172.28722 
L 86.739382 172.438259 
L 86.995555 173.221667 
L 88.398164 178.024068 
L 89.032255 179.23021 
L 89.694245 180.026501 
L 90.460227 180.598517 
L 90.696109 180.677845 
L 90.7164 180.628827 
L 90.828 179.914567 
L 91.256645 175.157566 
L 91.591445 169.875317 
L 91.796891 169.246154 
L 91.903418 169.351416 
L 92.103791 169.982264 
L 92.339673 171.027227 
L 92.395473 170.713121 
L 92.796218 167.974656 
L 92.8926 167.996161 
L 92.910355 168.020324 
L 93.077755 168.47678 
L 93.458209 170.324326 
L 94.307891 174.586509 
L 94.335791 174.526337 
L 94.447391 173.60195 
L 94.853209 168.126116 
L 95.142355 163.942275 
L 95.322436 163.446358 
L 95.332582 163.449647 
L 95.436573 163.623869 
L 95.649627 164.544506 
L 96.2127 168.283035 
L 97.075064 173.468811 
L 97.724373 176.090191 
L 98.343245 177.723244 
L 98.822618 178.558693 
L 98.840373 178.524042 
L 98.916464 177.840766 
L 99.210682 172.400941 
L 99.525191 167.364078 
L 99.735709 166.622988 
L 99.8397 166.703632 
L 100.022318 167.253685 
L 100.456036 169.455727 
L 101.036864 172.51894 
L 101.074909 172.303415 
L 101.326009 168.597878 
L 101.7648 161.145493 
L 101.843427 161.059421 
L 101.891618 161.116602 
L 102.036191 161.640333 
L 102.381136 163.94209 
L 102.609409 165.480561 
L 102.667745 165.265953 
L 103.0482 163.381724 
L 103.071027 163.391867 
L 103.1877 163.613469 
L 103.431191 164.680818 
L 104.181955 169.237662 
L 104.242827 168.522136 
L 104.600455 164.040131 
L 104.6943 163.921398 
L 104.739955 163.96474 
L 104.881991 164.391698 
L 105.226936 166.325491 
L 106.292209 172.382373 
L 106.951664 174.809419 
L 107.197691 175.483606 
L 107.223055 175.286628 
L 107.377773 171.565788 
L 107.715109 164.934769 
L 107.925627 164.071333 
L 108.024545 164.151448 
L 108.199555 164.726736 
L 108.610445 167.042347 
L 109.627527 172.727467 
L 109.630064 172.72561 
L 109.673182 172.495078 
L 109.898918 169.506015 
L 110.390973 159.097836 
L 110.6928 154.061758 
L 110.855127 153.542247 
L 110.875418 153.552016 
L 110.974336 153.777525 
L 111.184855 154.949406 
L 111.709882 159.480954 
L 112.7574 168.119976 
L 113.449827 172.048004 
L 113.726291 173.199204 
L 113.7618 172.982352 
L 114.6825 163.391683 
L 114.735764 163.42921 
L 114.804245 163.541463 
L 114.834682 163.389836 
L 115.293764 159.616869 
L 115.367318 159.702872 
L 115.529645 160.307797 
L 115.7148 161.237806 
L 115.783282 161.022373 
L 116.115545 159.737613 
L 116.1333 159.744457 
L 116.242364 159.938802 
L 116.430055 160.648114 
L 116.493464 160.331104 
L 116.863773 158.076354 
L 116.876455 158.080322 
L 116.9703 158.254885 
L 117.183355 159.253417 
L 117.259445 158.799625 
L 117.558736 157.052349 
L 117.6399 157.156227 
L 117.802227 157.878482 
L 118.187755 160.878432 
L 119.242882 169.054535 
L 119.915018 172.514785 
L 120.556718 174.723658 
L 121.208564 176.209019 
L 121.906064 177.26298 
L 122.710091 178.076176 
L 122.907927 178.231741 
L 122.925682 178.118812 
L 123.0525 175.418966 
L 123.341645 171.309487 
L 123.544555 170.737941 
L 123.661227 170.831599 
L 123.879355 171.407058 
L 125.218555 176.061772 
L 125.279427 175.725361 
L 125.429073 173.156487 
L 125.809527 165.026437 
L 126.014973 164.236668 
L 126.108818 164.335419 
L 126.2889 164.978051 
L 126.737836 167.63602 
L 127.6839 172.985229 
L 128.338282 175.444735 
L 128.969836 177.006148 
L 129.626755 178.061193 
L 130.3623 178.827238 
L 131.275391 179.449287 
L 131.648236 179.618482 
L 131.668527 179.552266 
L 131.775055 178.499553 
L 131.919627 175.148451 
L 132.256964 168.772984 
L 132.467482 167.91527 
L 132.568936 167.991672 
L 132.743945 168.544739 
L 133.172591 170.83917 
L 134.108509 175.652549 
L 134.734991 177.738604 
L 135.338645 179.024085 
L 135.967664 179.862368 
L 136.682918 180.448079 
L 137.603618 180.903535 
L 139.003691 181.324928 
L 140.659936 181.614486 
L 140.743636 180.783902 
L 141.210327 175.830756 
L 141.430991 175.396106 
L 141.580636 175.472886 
L 141.8292 175.937315 
L 142.095518 176.62226 
L 142.131027 176.402275 
L 142.656055 171.598731 
L 142.668736 171.601713 
L 142.785409 171.76457 
L 143.033973 172.606867 
L 144.456873 178.034822 
L 144.588764 178.323833 
L 144.629345 178.173151 
L 144.746018 176.628226 
L 144.862691 172.005532 
L 145.174664 162.615219 
L 145.387718 161.236947 
L 145.446055 161.252269 
L 145.476491 161.305946 
L 145.628673 161.922676 
L 145.988836 164.556004 
L 146.772573 170.367763 
L 146.800473 170.345037 
L 146.957727 169.920348 
L 147.330573 168.556294 
L 147.698345 165.705017 
L 147.812482 165.605767 
L 147.847991 165.634286 
L 147.9951 165.977373 
L 148.302 167.394085 
L 149.902445 175.54884 
L 150.419864 177.073305 
L 150.437618 177.024423 
L 150.531464 175.931058 
L 150.873873 172.510766 
L 151.117364 171.14318 
L 151.4547 168.570695 
L 151.617027 168.371723 
L 151.634782 168.379958 
L 151.774282 168.597954 
L 152.048209 169.542722 
L 152.829409 173.006393 
L 152.913109 172.728086 
L 153.481255 169.94139 
L 153.4914 169.943677 
L 153.628364 170.101763 
L 153.889609 170.840285 
L 154.115345 171.602129 
L 154.173682 171.43499 
L 154.713927 169.272527 
L 154.724073 169.275105 
L 154.866109 169.438857 
L 155.127355 170.170395 
L 155.895873 173.257574 
L 156.697364 175.979566 
L 157.366964 177.509905 
L 158.0391 178.515511 
L 158.784791 179.236689 
L 159.218509 179.519274 
L 159.241336 179.454277 
L 159.345327 178.480282 
L 159.697882 172.66272 
L 159.989564 168.398259 
L 160.189936 167.853743 
L 160.278709 167.343045 
L 160.448645 164.967035 
L 160.785982 159.264745 
L 161.120782 156.713432 
L 161.341445 155.611782 
L 161.420073 155.71674 
L 161.574791 156.445359 
L 161.929882 159.449156 
L 163.104218 169.658258 
L 163.7586 173.331924 
L 164.377473 175.622724 
L 164.615891 176.227318 
L 164.659009 176.114891 
L 164.798509 174.850509 
L 165.145991 172.285802 
L 165.3489 172.005799 
L 165.470645 172.015752 
L 165.483327 171.922307 
L 165.589855 169.929666 
L 165.988064 162.740494 
L 166.170682 162.191519 
L 166.180827 162.194712 
L 166.282282 162.367291 
L 166.4928 163.292273 
L 167.0787 167.213124 
L 167.603727 170.476828 
L 167.644309 170.339074 
L 167.892873 168.053384 
L 168.111 167.305414 
L 168.214991 167.38832 
L 168.397609 167.945125 
L 168.686755 169.230968 
L 168.7527 168.936547 
L 169.166127 166.521725 
L 169.272655 166.630894 
L 169.475564 167.275393 
L 169.9803 169.835908 
L 170.685409 173.285415 
L 170.713309 173.197617 
L 170.794473 172.021926 
L 171.281455 163.847391 
L 171.418418 163.590646 
L 171.448855 163.610703 
L 171.573136 163.901073 
L 171.844527 165.244402 
L 172.052509 165.848801 
L 172.060118 165.845633 
L 172.115918 165.674726 
L 172.306145 163.975546 
L 172.590218 162.379484 
L 172.699282 162.312812 
L 172.734791 162.343543 
L 172.884436 162.69531 
L 173.013791 163.096261 
L 173.069591 162.944868 
L 173.508382 160.260217 
L 173.860936 158.179377 
L 173.954782 158.248979 
L 173.957318 158.25395 
L 174.117109 158.821297 
L 174.464591 161.069127 
L 175.859591 170.825394 
L 175.874809 170.8149 
L 175.966118 170.515571 
L 176.402373 168.002717 
L 176.993345 162.034168 
L 177.127773 161.925106 
L 177.155673 161.944459 
L 177.305318 162.23586 
L 177.591927 163.39178 
L 178.063691 165.910784 
L 178.147391 165.595538 
L 178.505018 164.10614 
L 178.614082 164.190521 
L 178.7967 164.729642 
L 179.1873 166.740552 
L 180.432655 173.370353 
L 180.455482 173.37299 
L 180.493527 173.279123 
L 180.668536 172.14758 
L 180.998264 170.597479 
L 181.188491 170.470131 
L 181.198636 170.471755 
L 181.213855 170.372366 
L 181.340673 167.679802 
L 181.804827 159.689753 
L 181.926573 158.4254 
L 182.236009 155.562908 
L 182.299418 155.52574 
L 182.345073 155.586923 
L 182.489645 156.144666 
L 182.816836 158.516487 
L 183.047645 160.459664 
L 183.100909 160.012594 
L 183.417955 157.273707 
L 183.478827 157.305776 
L 183.501655 157.351862 
L 183.6513 157.998344 
L 183.831382 158.821959 
L 183.889718 158.746105 
L 184.178864 158.296862 
L 184.214373 158.31753 
L 184.257491 158.205358 
L 184.394455 156.836255 
L 184.658236 155.125452 
L 184.726718 155.106374 
L 184.7673 155.158979 
L 184.916945 155.669193 
L 185.239064 157.745976 
L 186.030409 163.73617 
L 186.1065 163.488883 
L 186.514855 161.785252 
L 186.527536 161.789207 
L 186.641673 161.961852 
L 186.755809 162.299848 
L 186.798927 162.062925 
L 187.316345 156.004041 
L 187.539545 154.423817 
L 187.590273 154.422887 
L 187.628318 154.484245 
L 187.772891 155.082256 
L 188.110227 157.65622 
L 188.427273 160.185374 
L 188.490682 160.014233 
L 188.835627 158.7003 
L 188.876209 158.728307 
L 189.005564 159.060399 
L 189.041073 159.19647 
L 189.071509 158.917045 
L 189.449427 154.731662 
L 189.4545 154.732634 
L 189.533127 154.875627 
L 189.642191 155.320348 
L 189.692918 155.036275 
L 190.027718 152.662051 
L 190.053082 152.676525 
L 190.152 152.947402 
L 190.370127 154.362686 
L 190.390418 154.495973 
L 190.433536 154.013899 
L 190.798773 149.230861 
L 190.910373 148.994702 
L 191.229955 147.479706 
L 191.285755 147.545808 
L 191.420182 148.098993 
L 191.706791 150.445198 
L 192.006082 153.214051 
L 192.072027 152.944306 
L 192.378927 151.321777 
L 192.406827 151.338499 
L 192.513355 151.615595 
L 192.744164 152.993733 
L 193.428982 158.943344 
L 194.146773 164.390491 
L 194.159455 164.376527 
L 194.233009 163.971695 
L 194.709845 159.199264 
L 195.001527 154.024451 
L 195.440318 150.467875 
L 196.358482 139.524327 
L 196.434573 139.633041 
L 196.586755 140.389826 
L 196.919018 143.427586 
L 197.844791 152.116999 
L 198.1314 153.178401 
L 198.534682 155.803576 
L 198.664036 156.488835 
L 198.719836 156.35936 
L 199.102827 154.91504 
L 199.168773 154.978415 
L 199.326027 155.457339 
L 199.655755 157.338007 
L 200.119909 160.325824 
L 200.188391 160.170609 
L 201.071045 156.825336 
L 201.129382 156.87177 
L 201.286636 157.26009 
L 201.598609 158.755067 
L 202.105882 161.652063 
L 202.184509 161.473255 
L 202.245382 160.762098 
L 202.909909 150.887049 
L 203.079845 148.454451 
L 203.445082 144.051221 
L 203.584582 143.725112 
L 203.617555 143.749149 
L 203.731691 144.070403 
L 203.972645 145.578266 
L 204.594055 151.301289 
L 205.111473 155.256489 
L 205.266191 155.187684 
L 205.423445 155.234725 
L 205.590845 155.627613 
L 205.628891 155.750819 
L 205.656791 155.503933 
L 206.037245 147.884314 
L 206.280736 145.285979 
L 206.346682 145.212853 
L 206.397409 145.281086 
L 206.536909 145.878178 
L 206.564809 146.036196 
L 206.600318 145.628796 
L 207.064473 138.32621 
L 207.125345 138.273937 
L 207.176073 138.345396 
L 207.313036 138.956342 
L 207.604718 141.507867 
L 208.553318 151.574207 
L 208.647164 151.216029 
L 209.250818 148.032225 
L 209.266036 148.036984 
L 209.372564 148.211901 
L 209.575473 149.090065 
L 209.996509 152.123523 
L 210.308482 154.579372 
L 210.371891 154.265983 
L 210.719373 152.369165 
L 210.810682 152.470031 
L 210.978082 153.11919 
L 211.241864 154.687526 
L 211.317955 154.318993 
L 211.683191 152.372151 
L 211.779573 152.459691 
L 211.944436 153.049548 
L 212.302064 155.351802 
L 212.679982 158.063558 
L 212.743391 157.793562 
L 213.1137 155.868818 
L 213.126382 155.873035 
L 213.227836 156.051839 
L 213.435818 157.003048 
L 213.988745 160.914713 
L 214.924664 167.008922 
L 214.937345 167.03664 
L 214.977927 166.783011 
L 215.152936 163.340648 
L 215.330482 155.367724 
L 215.609482 147.731266 
L 215.802245 146.711521 
L 215.804782 146.711937 
L 215.880873 146.84339 
L 216.048273 147.732481 
L 216.456627 151.422839 
L 217.676618 162.51545 
L 218.059609 165.127592 
L 218.095118 164.840028 
L 218.513618 160.644562 
L 218.607464 160.719445 
L 218.7774 161.30484 
L 219.2238 163.887238 
L 220.167327 169.060246 
L 220.880045 171.754322 
L 221.450727 173.238714 
L 221.465945 173.224136 
L 221.544573 172.884391 
L 222.044236 168.744085 
L 222.749345 159.68376 
L 222.891382 159.45554 
L 222.919282 159.47257 
L 223.0461 159.740742 
L 223.307345 160.936285 
L 224.197609 166.573496 
L 224.996564 170.726434 
L 225.2223 171.619698 
L 225.262882 171.39496 
L 225.813273 166.75551 
L 225.831027 166.75997 
L 225.952773 166.933523 
L 226.206409 167.791443 
L 226.718755 169.975215 
L 226.789773 169.757954 
L 227.291973 167.555036 
L 227.312264 167.561945 
L 227.449227 167.7535 
L 227.723155 168.619429 
L 228.230427 170.711199 
L 228.271009 170.293054 
L 229.343891 152.309543 
L 229.430127 152.203979 
L 229.478318 152.258849 
L 229.617818 152.76535 
L 229.919645 154.896096 
L 230.672945 161.310025 
L 230.743964 160.873567 
L 231.271527 154.702495 
L 231.299427 154.715651 
L 231.380591 154.827011 
L 231.4161 154.688815 
L 231.560673 152.917401 
L 231.984245 148.325238 
L 232.060336 148.260159 
L 232.108527 148.315619 
L 232.248027 148.807423 
L 232.542245 150.846892 
L 233.894127 162.59433 
L 234.013336 162.176693 
L 234.3177 160.131753 
L 234.629673 155.586119 
L 234.746345 155.338277 
L 234.786927 155.372943 
L 234.913745 155.766794 
L 235.197818 157.55223 
L 236.810945 168.775043 
L 236.907327 169.192341 
L 236.952982 168.954086 
L 237.178718 165.643962 
L 237.445036 163.648167 
L 237.587073 163.488015 
L 237.612436 163.503213 
L 237.754473 163.765231 
L 238.046155 164.882989 
L 238.766482 168.425373 
L 238.824818 167.98811 
L 239.266145 163.761642 
L 239.349845 163.741779 
L 239.385355 163.782289 
L 239.545145 164.221955 
L 239.9256 166.092254 
L 240.285764 167.935841 
L 240.336491 167.759293 
L 240.795573 165.299974 
L 240.833618 165.319561 
L 240.978191 165.586712 
L 241.282555 166.728944 
L 242.890609 173.398795 
L 243.585573 175.104153 
L 244.3059 176.301892 
L 245.0034 177.109929 
L 245.011009 177.087293 
L 245.076955 176.074991 
L 245.442191 170.752961 
L 245.642564 170.278662 
L 245.761773 170.390575 
L 245.997655 171.022033 
L 247.712236 176.377106 
L 248.394518 177.506555 
L 249.142745 178.32071 
L 250.055836 178.978114 
L 251.316409 179.595275 
L 252.642927 180.061157 
L 252.650536 180.036655 
L 252.719018 179.280776 
L 253.690445 162.910885 
L 253.695518 162.91158 
L 253.789364 163.048807 
L 253.979591 163.850112 
L 254.458964 167.111227 
L 255.3822 173.032065 
L 256.026436 175.77045 
L 256.6377 177.45835 
L 257.259109 178.554023 
L 257.4468 178.762902 
L 257.484845 178.683551 
L 257.626882 177.809906 
L 258.017482 175.712768 
L 258.248291 175.423904 
L 258.430909 175.510497 
L 258.722591 175.962488 
L 260.746609 179.680546 
L 260.7948 179.707782 
L 260.827773 179.608987 
L 260.939373 178.420205 
L 261.751009 168.801297 
L 262.197409 166.488085 
L 262.268427 166.556289 
L 262.430755 167.05798 
L 262.790918 169.075678 
L 263.470664 173.151232 
L 263.521391 173.041522 
L 263.825755 171.472191 
L 264.355855 166.850169 
L 264.396436 166.872346 
L 264.530864 167.166871 
L 264.817473 168.464157 
L 265.443955 171.259916 
L 265.821873 171.450389 
L 266.075509 171.944708 
L 266.131309 171.73471 
L 266.676627 168.873658 
L 266.689309 168.877039 
L 266.823736 169.046014 
L 266.935336 169.212889 
L 266.986064 169.126347 
L 267.206727 168.178598 
L 267.447682 167.664122 
L 267.5745 167.754215 
L 267.779945 168.272881 
L 268.213664 170.114965 
L 268.6905 172.248099 
L 268.748836 172.126922 
L 269.141973 170.266262 
L 269.705045 162.123848 
L 269.9181 160.93186 
L 270.0018 161.012819 
L 270.159055 161.646268 
L 270.539509 164.348873 
L 271.599709 171.879908 
L 272.246482 174.86343 
L 272.799409 176.491591 
L 272.878036 176.44237 
L 272.890718 176.417649 
L 273.083482 175.747146 
L 273.448718 174.751805 
L 273.689673 174.624173 
L 273.933164 174.759988 
L 274.306009 175.270213 
L 275.155691 176.92983 
L 275.262218 177.105189 
L 275.305336 176.98654 
L 275.449909 175.6847 
L 275.794855 173.200612 
L 275.997764 172.933263 
L 276.147409 173.067146 
L 276.368073 173.498863 
L 276.413727 173.296795 
L 276.565909 171.142728 
L 276.900709 167.478403 
L 277.103618 167.049799 
L 277.225364 167.17412 
L 277.3674 167.474408 
L 277.418127 167.312207 
L 277.636255 165.406797 
L 277.872136 164.426352 
L 277.971055 164.47382 
L 277.978664 164.486171 
L 278.143527 164.986584 
L 278.298245 165.723671 
L 278.336291 165.354439 
L 278.737036 160.478554 
L 278.792836 160.494363 
L 278.823273 160.549082 
L 278.975455 161.180773 
L 279.353373 163.965793 
L 279.495409 164.815692 
L 279.551209 164.669981 
L 279.809918 162.994821 
L 280.225882 158.124379 
L 280.281682 158.113742 
L 280.3248 158.179005 
L 280.474445 158.777178 
L 280.824464 161.329624 
L 281.993727 170.104641 
L 282.495927 172.52144 
L 282.513682 172.504872 
L 282.594845 172.144477 
L 283.135091 169.258417 
L 283.269518 169.313842 
L 283.474964 169.73963 
L 283.939118 171.350235 
L 284.999318 174.950561 
L 285.694282 176.517871 
L 286.399391 177.578561 
L 286.957391 178.121655 
L 286.972609 178.104758 
L 287.074064 177.763536 
L 287.6904 174.131032 
L 288.096218 167.995922 
L 288.271227 167.643055 
L 288.281373 167.646456 
L 288.400582 167.820297 
L 288.649145 168.689324 
L 290.513373 176.264175 
L 290.640191 176.532567 
L 290.685845 176.414946 
L 290.802518 175.337658 
L 291.160145 168.006451 
L 291.525382 161.443557 
L 291.837355 158.044243 
L 292.073236 156.666828 
L 292.453691 151.151026 
L 292.537391 151.017604 
L 292.588118 151.080202 
L 292.722545 151.640092 
L 293.021836 154.066789 
L 293.993264 163.540134 
L 294.054136 162.936143 
L 294.361036 159.926414 
L 294.416836 159.905557 
L 294.462491 159.972208 
L 294.612136 160.568796 
L 294.992591 163.256252 
L 295.956409 169.906311 
L 296.620936 172.955991 
L 297.267709 174.939782 
L 297.932236 176.292318 
L 298.657636 177.275892 
L 299.512391 178.058576 
L 300.334173 178.56619 
L 300.341782 178.553678 
L 300.428018 178.143989 
L 301.095082 174.070537 
L 301.270091 174.0642 
L 301.493291 174.352595 
L 301.990418 175.460535 
L 302.9796 177.565875 
L 303.699927 178.571414 
L 304.478591 179.279089 
L 305.444945 179.84731 
L 306.728345 180.33939 
L 306.771464 180.00162 
L 307.326927 174.193818 
L 307.463891 174.133423 
L 307.484182 174.148244 
L 307.659191 174.445553 
L 308.072618 175.713117 
L 308.995855 178.439707 
L 309.632482 179.632344 
L 310.279255 180.389278 
L 311.017336 180.910147 
L 311.149227 180.967923 
L 311.166982 180.875002 
L 311.278582 178.926551 
L 311.499245 172.177305 
L 311.877164 163.56853 
L 312.092755 162.204209 
L 312.153627 162.229266 
L 312.178991 162.276719 
L 312.331173 162.900339 
L 312.470673 163.644541 
L 312.529009 163.389146 
L 312.833373 161.667252 
L 312.861273 161.684566 
L 312.970336 161.974226 
L 313.213827 163.419789 
L 313.282309 163.644907 
L 313.338109 163.517643 
L 313.393909 162.652728 
L 313.814945 155.192072 
L 313.885964 155.099509 
L 313.936691 155.169526 
L 314.076191 155.789363 
L 314.398309 158.485879 
L 315.679173 169.804697 
L 316.325945 173.386796 
L 316.942282 175.629565 
L 317.558618 177.0796 
L 318.213 178.071494 
L 318.961227 178.803978 
L 319.128627 178.920072 
L 319.153991 178.821836 
L 319.2732 177.255167 
L 319.625755 173.459574 
L 319.851491 172.890243 
L 319.993527 172.945027 
L 320.176145 173.243053 
L 320.211655 173.048336 
L 320.772191 168.801723 
L 320.777264 168.802386 
L 320.896473 168.93618 
L 321.124745 169.627132 
L 321.431645 170.826427 
L 321.502664 170.639003 
L 321.956673 169.138961 
L 322.0911 169.246862 
L 322.316836 169.804791 
L 322.573009 170.602291 
L 322.638955 170.467987 
L 323.027018 169.453632 
L 323.047309 169.462745 
L 323.189345 169.678013 
L 323.470882 170.615343 
L 324.244473 173.789095 
L 324.3231 173.612617 
L 324.812618 172.185306 
L 324.9648 172.287368 
L 325.2159 172.8027 
L 325.647082 174.000965 
L 325.720636 173.828092 
L 326.339509 171.701455 
L 326.3598 171.708349 
L 326.534809 171.908544 
L 326.859464 172.700203 
L 327.772555 175.529514 
L 327.846109 175.27291 
L 328.475127 171.948664 
L 328.624773 172.080448 
L 328.883482 172.561229 
L 328.949427 172.388456 
L 329.208136 170.760352 
L 329.801645 164.498357 
L 329.8473 164.526652 
L 329.981727 164.851297 
L 330.270873 166.269972 
L 331.254982 172.092405 
L 331.310782 171.722469 
L 331.749573 168.029888 
L 331.840882 168.05041 
L 331.861173 168.078792 
L 331.9956 168.391565 
L 332.038718 168.155056 
L 332.127491 166.235095 
L 332.644909 153.545051 
L 332.840209 152.480082 
L 332.842745 152.480453 
L 332.918836 152.612955 
L 333.086236 153.514504 
L 333.5022 157.311754 
L 334.164191 163.374283 
L 334.207309 163.282101 
L 334.597909 161.852575 
L 334.674 161.93028 
L 334.846473 162.463626 
L 335.229464 164.556712 
L 336.421555 171.206628 
L 337.111445 173.745753 
L 337.783582 175.418352 
L 338.488691 176.59794 
L 339.282573 177.497283 
L 340.256536 178.258467 
L 341.570373 178.987087 
L 343.452355 179.761857 
L 345.932918 180.537943 
L 346.0014 180.424386 
L 346.135827 179.509631 
L 346.561936 176.753163 
L 346.800355 176.392753 
L 346.985509 176.451627 
L 347.267045 176.838207 
L 348.976555 179.817887 
L 349.004455 179.680218 
L 349.156636 177.327046 
L 349.8516 167.943786 
L 350.003782 167.689351 
L 350.026609 167.700907 
L 350.153427 167.934317 
L 350.419745 169.008949 
L 350.954918 171.581777 
L 351.031009 171.456006 
L 351.477409 170.499439 
L 351.490091 170.50472 
L 351.614373 170.591692 
L 351.644809 170.472107 
L 351.786845 168.924417 
L 352.063309 166.913076 
L 352.251 166.203515 
L 352.5858 164.853114 
L 352.6974 164.919005 
L 352.869873 165.40826 
L 353.237645 167.279367 
L 354.5388 174.217353 
L 355.188109 176.369157 
L 355.819664 177.735459 
L 356.484191 178.662182 
L 357.2451 179.343097 
L 357.846218 179.696913 
L 357.863973 179.652908 
L 357.960355 178.865355 
L 358.394073 175.271715 
L 358.619809 174.885693 
L 358.782136 174.956458 
L 359.040845 175.386781 
L 359.872773 177.420651 
L 359.943791 177.572076 
L 359.974227 177.384363 
L 360.5652 171.890128 
L 360.582955 171.894626 
L 360.709773 172.070362 
L 360.976091 172.929521 
L 362.345727 177.827137 
L 362.563855 178.301965 
L 362.6019 178.175137 
L 362.738864 176.595647 
L 363.0483 173.948748 
L 363.246136 173.650116 
L 363.385636 173.794328 
L 363.504845 173.999935 
L 363.553036 173.878179 
L 364.098355 171.734715 
L 364.151618 171.765045 
L 364.326627 172.073497 
L 364.684255 173.266957 
L 364.897309 174.028415 
L 364.9455 173.850873 
L 365.445164 170.839127 
L 365.498427 170.87117 
L 365.660755 171.199461 
L 366.015845 172.546526 
L 367.1775 177.107513 
L 367.809055 178.629374 
L 368.438073 179.591582 
L 369.125427 180.243659 
L 369.9675 180.728714 
L 371.172273 181.146576 
L 371.649109 181.200384 
L 371.656718 181.168478 
L 371.758173 180.129784 
L 372.184282 175.782799 
L 373.155709 166.301703 
L 373.206436 166.341739 
L 373.348473 166.741867 
L 373.581818 167.945988 
L 373.581818 167.945988 
" clip-path="url(#p9db136adec)" style="fill: none; stroke: #ff0000; stroke-width: 1.5; stroke-linecap: square"/>
   </g>
   <g id="line2d_16">
    <path d="M 81.899894 143.28 
L 84.431164 143.28 
L 84.431164 143.28 
" clip-path="url(#p9db136adec)" style="fill: none; stroke: #000000; stroke-width: 1.5; stroke-linecap: square"/>
   </g>
   <g id="line2d_17">
    <path d="M 81.899894 165.024 
L 81.899894 160.6752 
L 81.899894 156.3264 
L 81.899894 151.9776 
L 81.899894 147.6288 
" clip-path="url(#p9db136adec)" style="fill: none; stroke: #000000; stroke-width: 1.5; stroke-linecap: square"/>
   </g>
   <g id="patch_3">
    <path d="M 54 252 
L 54 34.56 
" style="fill: none; stroke: #000000; stroke-width: 0.8; stroke-linejoin: miter; stroke-linecap: square"/>
   </g>
   <g id="patch_4">
    <path d="M 54 252 
L 388.8 252 
" style="fill: none; stroke: #000000; stroke-width: 0.8; stroke-linejoin: miter; stroke-linecap: square"/>
   </g>
   <g id="text_16">
    <!-- 500 ms -->
    <g transform="translate(81.899894 138.9312)scale(0.1 -0.1)">
     <use xlink:href="#DejaVuSans-35"/>
     <use xlink:href="#DejaVuSans-30" x="63.623047"/>
     <use xlink:href="#DejaVuSans-30" x="127.246094"/>
     <use xlink:href="#DejaVuSans-20" x="190.869141"/>
     <use xlink:href="#DejaVuSans-6d" x="222.65625"/>
     <use xlink:href="#DejaVuSans-73" x="320.068359"/>
    </g>
   </g>
   <g id="text_17">
    <!-- 5 mV -->
    <g transform="translate(82.153529 156.3264)scale(0.1 -0.1)">
     <use xlink:href="#DejaVuSans-35"/>
     <use xlink:href="#DejaVuSans-20" x="63.623047"/>
     <use xlink:href="#DejaVuSans-6d" x="95.410156"/>
     <use xlink:href="#DejaVuSans-56" x="192.822266"/>
    </g>
   </g>
  </g>
 </g>
 <defs>
  <clipPath id="p9db136adec">
   <rect x="54" y="34.56" width="334.8" height="217.44"/>
  </clipPath>
 </defs>
</svg>
