<?xml version="1.0" encoding="utf-8" standalone="no"?>
<!DOCTYPE svg PUBLIC "-//W3C//DTD SVG 1.1//EN"
  "http://www.w3.org/Graphics/SVG/1.1/DTD/svg11.dtd">
<svg height="345.6pt" version="1.1" viewBox="0 0 460.8 345.6" width="460.8pt" xmlns="http://www.w3.org/2000/svg" xmlns:xlink="http://www.w3.org/1999/xlink">
 <metadata>
  <rdf:RDF xmlns:cc="http://creativecommons.org/ns#" xmlns:dc="http://purl.org/dc/elements/1.1/" xmlns:rdf="http://www.w3.org/1999/02/22-rdf-syntax-ns#">
   <cc:Work>
    <dc:type rdf:resource="http://purl.org/dc/dcmitype/StillImage"/>
    <dc:date>2021-07-17T19:29:21.072151</dc:date>
    <dc:format>image/svg+xml</dc:format>
    <dc:creator>
     <cc:Agent>
      <dc:title>Matplotlib v3.4.1, https://matplotlib.org/</dc:title>
     </cc:Agent>
    </dc:creator>
   </cc:Work>
  </rdf:RDF>
 </metadata>
 <defs>
  <style type="text/css">*{stroke-linecap:butt;stroke-linejoin:round;}</style>
 </defs>
 <g id="figure_1">
  <g id="patch_1">
   <path d="M 0 345.6 
L 460.8 345.6 
L 460.8 0 
L 0 0 
z
" style="fill:#ffffff;"/>
  </g>
  <g id="axes_1">
   <g id="patch_2">
    <path d="M 57.6 307.584 
L 414.72 307.584 
L 414.72 41.472 
L 57.6 41.472 
z
" style="fill:#ffffff;"/>
   </g>
   <g id="matplotlib.axis_1">
    <g id="xtick_1">
     <g id="line2d_1">
      <defs>
       <path d="M 0 0 
L 0 3.5 
" id="m3e422808b8" style="stroke:#000000;stroke-width:0.8;"/>
      </defs>
      <g>
       <use style="stroke:#000000;stroke-width:0.8;" x="68.330108" xlink:href="#m3e422808b8" y="307.584"/>
      </g>
     </g>
     <g id="text_1">
      <!-- 0 -->
      <g transform="translate(64.512608 323.702125)scale(0.12 -0.12)">
       <defs>
        <path d="M 2034 4250 
Q 1547 4250 1301 3770 
Q 1056 3291 1056 2328 
Q 1056 1369 1301 889 
Q 1547 409 2034 409 
Q 2525 409 2770 889 
Q 3016 1369 3016 2328 
Q 3016 3291 2770 3770 
Q 2525 4250 2034 4250 
z
M 2034 4750 
Q 2819 4750 3233 4129 
Q 3647 3509 3647 2328 
Q 3647 1150 3233 529 
Q 2819 -91 2034 -91 
Q 1250 -91 836 529 
Q 422 1150 422 2328 
Q 422 3509 836 4129 
Q 1250 4750 2034 4750 
z
" id="DejaVuSans-30" transform="scale(0.015625)"/>
       </defs>
       <use xlink:href="#DejaVuSans-30"/>
      </g>
     </g>
    </g>
    <g id="xtick_2">
     <g id="line2d_2">
      <g>
       <use style="stroke:#000000;stroke-width:0.8;" x="123.356302" xlink:href="#m3e422808b8" y="307.584"/>
      </g>
     </g>
     <g id="text_2">
      <!-- 500 -->
      <g transform="translate(111.903802 323.702125)scale(0.12 -0.12)">
       <defs>
        <path d="M 691 4666 
L 3169 4666 
L 3169 4134 
L 1269 4134 
L 1269 2991 
Q 1406 3038 1543 3061 
Q 1681 3084 1819 3084 
Q 2600 3084 3056 2656 
Q 3513 2228 3513 1497 
Q 3513 744 3044 326 
Q 2575 -91 1722 -91 
Q 1428 -91 1123 -41 
Q 819 9 494 109 
L 494 744 
Q 775 591 1075 516 
Q 1375 441 1709 441 
Q 2250 441 2565 725 
Q 2881 1009 2881 1497 
Q 2881 1984 2565 2268 
Q 2250 2553 1709 2553 
Q 1456 2553 1204 2497 
Q 953 2441 691 2322 
L 691 4666 
z
" id="DejaVuSans-35" transform="scale(0.015625)"/>
       </defs>
       <use xlink:href="#DejaVuSans-35"/>
       <use x="63.623047" xlink:href="#DejaVuSans-30"/>
       <use x="127.246094" xlink:href="#DejaVuSans-30"/>
      </g>
     </g>
    </g>
    <g id="xtick_3">
     <g id="line2d_3">
      <g>
       <use style="stroke:#000000;stroke-width:0.8;" x="178.382496" xlink:href="#m3e422808b8" y="307.584"/>
      </g>
     </g>
     <g id="text_3">
      <!-- 1000 -->
      <g transform="translate(163.112496 323.702125)scale(0.12 -0.12)">
       <defs>
        <path d="M 794 531 
L 1825 531 
L 1825 4091 
L 703 3866 
L 703 4441 
L 1819 4666 
L 2450 4666 
L 2450 531 
L 3481 531 
L 3481 0 
L 794 0 
L 794 531 
z
" id="DejaVuSans-31" transform="scale(0.015625)"/>
       </defs>
       <use xlink:href="#DejaVuSans-31"/>
       <use x="63.623047" xlink:href="#DejaVuSans-30"/>
       <use x="127.246094" xlink:href="#DejaVuSans-30"/>
       <use x="190.869141" xlink:href="#DejaVuSans-30"/>
      </g>
     </g>
    </g>
    <g id="xtick_4">
     <g id="line2d_4">
      <g>
       <use style="stroke:#000000;stroke-width:0.8;" x="233.40869" xlink:href="#m3e422808b8" y="307.584"/>
      </g>
     </g>
     <g id="text_4">
      <!-- 1500 -->
      <g transform="translate(218.13869 323.702125)scale(0.12 -0.12)">
       <use xlink:href="#DejaVuSans-31"/>
       <use x="63.623047" xlink:href="#DejaVuSans-35"/>
       <use x="127.246094" xlink:href="#DejaVuSans-30"/>
       <use x="190.869141" xlink:href="#DejaVuSans-30"/>
      </g>
     </g>
    </g>
    <g id="xtick_5">
     <g id="line2d_5">
      <g>
       <use style="stroke:#000000;stroke-width:0.8;" x="288.434884" xlink:href="#m3e422808b8" y="307.584"/>
      </g>
     </g>
     <g id="text_5">
      <!-- 2000 -->
      <g transform="translate(273.164884 323.702125)scale(0.12 -0.12)">
       <defs>
        <path d="M 1228 531 
L 3431 531 
L 3431 0 
L 469 0 
L 469 531 
Q 828 903 1448 1529 
Q 2069 2156 2228 2338 
Q 2531 2678 2651 2914 
Q 2772 3150 2772 3378 
Q 2772 3750 2511 3984 
Q 2250 4219 1831 4219 
Q 1534 4219 1204 4116 
Q 875 4013 500 3803 
L 500 4441 
Q 881 4594 1212 4672 
Q 1544 4750 1819 4750 
Q 2544 4750 2975 4387 
Q 3406 4025 3406 3419 
Q 3406 3131 3298 2873 
Q 3191 2616 2906 2266 
Q 2828 2175 2409 1742 
Q 1991 1309 1228 531 
z
" id="DejaVuSans-32" transform="scale(0.015625)"/>
       </defs>
       <use xlink:href="#DejaVuSans-32"/>
       <use x="63.623047" xlink:href="#DejaVuSans-30"/>
       <use x="127.246094" xlink:href="#DejaVuSans-30"/>
       <use x="190.869141" xlink:href="#DejaVuSans-30"/>
      </g>
     </g>
    </g>
    <g id="xtick_6">
     <g id="line2d_6">
      <g>
       <use style="stroke:#000000;stroke-width:0.8;" x="343.461079" xlink:href="#m3e422808b8" y="307.584"/>
      </g>
     </g>
     <g id="text_6">
      <!-- 2500 -->
      <g transform="translate(328.191079 323.702125)scale(0.12 -0.12)">
       <use xlink:href="#DejaVuSans-32"/>
       <use x="63.623047" xlink:href="#DejaVuSans-35"/>
       <use x="127.246094" xlink:href="#DejaVuSans-30"/>
       <use x="190.869141" xlink:href="#DejaVuSans-30"/>
      </g>
     </g>
    </g>
    <g id="xtick_7">
     <g id="line2d_7">
      <g>
       <use style="stroke:#000000;stroke-width:0.8;" x="398.487273" xlink:href="#m3e422808b8" y="307.584"/>
      </g>
     </g>
     <g id="text_7">
      <!-- 3000 -->
      <g transform="translate(383.217273 323.702125)scale(0.12 -0.12)">
       <defs>
        <path d="M 2597 2516 
Q 3050 2419 3304 2112 
Q 3559 1806 3559 1356 
Q 3559 666 3084 287 
Q 2609 -91 1734 -91 
Q 1441 -91 1130 -33 
Q 819 25 488 141 
L 488 750 
Q 750 597 1062 519 
Q 1375 441 1716 441 
Q 2309 441 2620 675 
Q 2931 909 2931 1356 
Q 2931 1769 2642 2001 
Q 2353 2234 1838 2234 
L 1294 2234 
L 1294 2753 
L 1863 2753 
Q 2328 2753 2575 2939 
Q 2822 3125 2822 3475 
Q 2822 3834 2567 4026 
Q 2313 4219 1838 4219 
Q 1578 4219 1281 4162 
Q 984 4106 628 3988 
L 628 4550 
Q 988 4650 1302 4700 
Q 1616 4750 1894 4750 
Q 2613 4750 3031 4423 
Q 3450 4097 3450 3541 
Q 3450 3153 3228 2886 
Q 3006 2619 2597 2516 
z
" id="DejaVuSans-33" transform="scale(0.015625)"/>
       </defs>
       <use xlink:href="#DejaVuSans-33"/>
       <use x="63.623047" xlink:href="#DejaVuSans-30"/>
       <use x="127.246094" xlink:href="#DejaVuSans-30"/>
       <use x="190.869141" xlink:href="#DejaVuSans-30"/>
      </g>
     </g>
    </g>
    <g id="text_8">
     <!-- Time(ms) -->
     <g transform="translate(207.827812 339.315875)scale(0.12 -0.12)">
      <defs>
       <path d="M -19 4666 
L 3928 4666 
L 3928 4134 
L 2272 4134 
L 2272 0 
L 1638 0 
L 1638 4134 
L -19 4134 
L -19 4666 
z
" id="DejaVuSans-54" transform="scale(0.015625)"/>
       <path d="M 603 3500 
L 1178 3500 
L 1178 0 
L 603 0 
L 603 3500 
z
M 603 4863 
L 1178 4863 
L 1178 4134 
L 603 4134 
L 603 4863 
z
" id="DejaVuSans-69" transform="scale(0.015625)"/>
       <path d="M 3328 2828 
Q 3544 3216 3844 3400 
Q 4144 3584 4550 3584 
Q 5097 3584 5394 3201 
Q 5691 2819 5691 2113 
L 5691 0 
L 5113 0 
L 5113 2094 
Q 5113 2597 4934 2840 
Q 4756 3084 4391 3084 
Q 3944 3084 3684 2787 
Q 3425 2491 3425 1978 
L 3425 0 
L 2847 0 
L 2847 2094 
Q 2847 2600 2669 2842 
Q 2491 3084 2119 3084 
Q 1678 3084 1418 2786 
Q 1159 2488 1159 1978 
L 1159 0 
L 581 0 
L 581 3500 
L 1159 3500 
L 1159 2956 
Q 1356 3278 1631 3431 
Q 1906 3584 2284 3584 
Q 2666 3584 2933 3390 
Q 3200 3197 3328 2828 
z
" id="DejaVuSans-6d" transform="scale(0.015625)"/>
       <path d="M 3597 1894 
L 3597 1613 
L 953 1613 
Q 991 1019 1311 708 
Q 1631 397 2203 397 
Q 2534 397 2845 478 
Q 3156 559 3463 722 
L 3463 178 
Q 3153 47 2828 -22 
Q 2503 -91 2169 -91 
Q 1331 -91 842 396 
Q 353 884 353 1716 
Q 353 2575 817 3079 
Q 1281 3584 2069 3584 
Q 2775 3584 3186 3129 
Q 3597 2675 3597 1894 
z
M 3022 2063 
Q 3016 2534 2758 2815 
Q 2500 3097 2075 3097 
Q 1594 3097 1305 2825 
Q 1016 2553 972 2059 
L 3022 2063 
z
" id="DejaVuSans-65" transform="scale(0.015625)"/>
       <path d="M 1984 4856 
Q 1566 4138 1362 3434 
Q 1159 2731 1159 2009 
Q 1159 1288 1364 580 
Q 1569 -128 1984 -844 
L 1484 -844 
Q 1016 -109 783 600 
Q 550 1309 550 2009 
Q 550 2706 781 3412 
Q 1013 4119 1484 4856 
L 1984 4856 
z
" id="DejaVuSans-28" transform="scale(0.015625)"/>
       <path d="M 2834 3397 
L 2834 2853 
Q 2591 2978 2328 3040 
Q 2066 3103 1784 3103 
Q 1356 3103 1142 2972 
Q 928 2841 928 2578 
Q 928 2378 1081 2264 
Q 1234 2150 1697 2047 
L 1894 2003 
Q 2506 1872 2764 1633 
Q 3022 1394 3022 966 
Q 3022 478 2636 193 
Q 2250 -91 1575 -91 
Q 1294 -91 989 -36 
Q 684 19 347 128 
L 347 722 
Q 666 556 975 473 
Q 1284 391 1588 391 
Q 1994 391 2212 530 
Q 2431 669 2431 922 
Q 2431 1156 2273 1281 
Q 2116 1406 1581 1522 
L 1381 1569 
Q 847 1681 609 1914 
Q 372 2147 372 2553 
Q 372 3047 722 3315 
Q 1072 3584 1716 3584 
Q 2034 3584 2315 3537 
Q 2597 3491 2834 3397 
z
" id="DejaVuSans-73" transform="scale(0.015625)"/>
       <path d="M 513 4856 
L 1013 4856 
Q 1481 4119 1714 3412 
Q 1947 2706 1947 2009 
Q 1947 1309 1714 600 
Q 1481 -109 1013 -844 
L 513 -844 
Q 928 -128 1133 580 
Q 1338 1288 1338 2009 
Q 1338 2731 1133 3434 
Q 928 4138 513 4856 
z
" id="DejaVuSans-29" transform="scale(0.015625)"/>
      </defs>
      <use xlink:href="#DejaVuSans-54"/>
      <use x="57.958984" xlink:href="#DejaVuSans-69"/>
      <use x="85.742188" xlink:href="#DejaVuSans-6d"/>
      <use x="183.154297" xlink:href="#DejaVuSans-65"/>
      <use x="244.677734" xlink:href="#DejaVuSans-28"/>
      <use x="283.691406" xlink:href="#DejaVuSans-6d"/>
      <use x="381.103516" xlink:href="#DejaVuSans-73"/>
      <use x="433.203125" xlink:href="#DejaVuSans-29"/>
     </g>
    </g>
   </g>
   <g id="matplotlib.axis_2">
    <g id="ytick_1">
     <g id="line2d_8">
      <defs>
       <path d="M 0 0 
L -3.5 0 
" id="m1200f09b09" style="stroke:#000000;stroke-width:0.8;"/>
      </defs>
      <g>
       <use style="stroke:#000000;stroke-width:0.8;" x="57.6" xlink:href="#m1200f09b09" y="289.8432"/>
      </g>
     </g>
     <g id="text_9">
      <!-- -100 -->
      <g transform="translate(23.365625 294.402262)scale(0.12 -0.12)">
       <defs>
        <path d="M 313 2009 
L 1997 2009 
L 1997 1497 
L 313 1497 
L 313 2009 
z
" id="DejaVuSans-2d" transform="scale(0.015625)"/>
       </defs>
       <use xlink:href="#DejaVuSans-2d"/>
       <use x="36.083984" xlink:href="#DejaVuSans-31"/>
       <use x="99.707031" xlink:href="#DejaVuSans-30"/>
       <use x="163.330078" xlink:href="#DejaVuSans-30"/>
      </g>
     </g>
    </g>
    <g id="ytick_2">
     <g id="line2d_9">
      <g>
       <use style="stroke:#000000;stroke-width:0.8;" x="57.6" xlink:href="#m1200f09b09" y="254.3616"/>
      </g>
     </g>
     <g id="text_10">
      <!-- -80 -->
      <g transform="translate(31.000625 258.920662)scale(0.12 -0.12)">
       <defs>
        <path d="M 2034 2216 
Q 1584 2216 1326 1975 
Q 1069 1734 1069 1313 
Q 1069 891 1326 650 
Q 1584 409 2034 409 
Q 2484 409 2743 651 
Q 3003 894 3003 1313 
Q 3003 1734 2745 1975 
Q 2488 2216 2034 2216 
z
M 1403 2484 
Q 997 2584 770 2862 
Q 544 3141 544 3541 
Q 544 4100 942 4425 
Q 1341 4750 2034 4750 
Q 2731 4750 3128 4425 
Q 3525 4100 3525 3541 
Q 3525 3141 3298 2862 
Q 3072 2584 2669 2484 
Q 3125 2378 3379 2068 
Q 3634 1759 3634 1313 
Q 3634 634 3220 271 
Q 2806 -91 2034 -91 
Q 1263 -91 848 271 
Q 434 634 434 1313 
Q 434 1759 690 2068 
Q 947 2378 1403 2484 
z
M 1172 3481 
Q 1172 3119 1398 2916 
Q 1625 2713 2034 2713 
Q 2441 2713 2670 2916 
Q 2900 3119 2900 3481 
Q 2900 3844 2670 4047 
Q 2441 4250 2034 4250 
Q 1625 4250 1398 4047 
Q 1172 3844 1172 3481 
z
" id="DejaVuSans-38" transform="scale(0.015625)"/>
       </defs>
       <use xlink:href="#DejaVuSans-2d"/>
       <use x="36.083984" xlink:href="#DejaVuSans-38"/>
       <use x="99.707031" xlink:href="#DejaVuSans-30"/>
      </g>
     </g>
    </g>
    <g id="ytick_3">
     <g id="line2d_10">
      <g>
       <use style="stroke:#000000;stroke-width:0.8;" x="57.6" xlink:href="#m1200f09b09" y="218.88"/>
      </g>
     </g>
     <g id="text_11">
      <!-- -60 -->
      <g transform="translate(31.000625 223.439062)scale(0.12 -0.12)">
       <defs>
        <path d="M 2113 2584 
Q 1688 2584 1439 2293 
Q 1191 2003 1191 1497 
Q 1191 994 1439 701 
Q 1688 409 2113 409 
Q 2538 409 2786 701 
Q 3034 994 3034 1497 
Q 3034 2003 2786 2293 
Q 2538 2584 2113 2584 
z
M 3366 4563 
L 3366 3988 
Q 3128 4100 2886 4159 
Q 2644 4219 2406 4219 
Q 1781 4219 1451 3797 
Q 1122 3375 1075 2522 
Q 1259 2794 1537 2939 
Q 1816 3084 2150 3084 
Q 2853 3084 3261 2657 
Q 3669 2231 3669 1497 
Q 3669 778 3244 343 
Q 2819 -91 2113 -91 
Q 1303 -91 875 529 
Q 447 1150 447 2328 
Q 447 3434 972 4092 
Q 1497 4750 2381 4750 
Q 2619 4750 2861 4703 
Q 3103 4656 3366 4563 
z
" id="DejaVuSans-36" transform="scale(0.015625)"/>
       </defs>
       <use xlink:href="#DejaVuSans-2d"/>
       <use x="36.083984" xlink:href="#DejaVuSans-36"/>
       <use x="99.707031" xlink:href="#DejaVuSans-30"/>
      </g>
     </g>
    </g>
    <g id="ytick_4">
     <g id="line2d_11">
      <g>
       <use style="stroke:#000000;stroke-width:0.8;" x="57.6" xlink:href="#m1200f09b09" y="183.3984"/>
      </g>
     </g>
     <g id="text_12">
      <!-- -40 -->
      <g transform="translate(31.000625 187.957462)scale(0.12 -0.12)">
       <defs>
        <path d="M 2419 4116 
L 825 1625 
L 2419 1625 
L 2419 4116 
z
M 2253 4666 
L 3047 4666 
L 3047 1625 
L 3713 1625 
L 3713 1100 
L 3047 1100 
L 3047 0 
L 2419 0 
L 2419 1100 
L 313 1100 
L 313 1709 
L 2253 4666 
z
" id="DejaVuSans-34" transform="scale(0.015625)"/>
       </defs>
       <use xlink:href="#DejaVuSans-2d"/>
       <use x="36.083984" xlink:href="#DejaVuSans-34"/>
       <use x="99.707031" xlink:href="#DejaVuSans-30"/>
      </g>
     </g>
    </g>
    <g id="ytick_5">
     <g id="line2d_12">
      <g>
       <use style="stroke:#000000;stroke-width:0.8;" x="57.6" xlink:href="#m1200f09b09" y="147.9168"/>
      </g>
     </g>
     <g id="text_13">
      <!-- -20 -->
      <g transform="translate(31.000625 152.475862)scale(0.12 -0.12)">
       <use xlink:href="#DejaVuSans-2d"/>
       <use x="36.083984" xlink:href="#DejaVuSans-32"/>
       <use x="99.707031" xlink:href="#DejaVuSans-30"/>
      </g>
     </g>
    </g>
    <g id="ytick_6">
     <g id="line2d_13">
      <g>
       <use style="stroke:#000000;stroke-width:0.8;" x="57.6" xlink:href="#m1200f09b09" y="112.4352"/>
      </g>
     </g>
     <g id="text_14">
      <!-- 0 -->
      <g transform="translate(42.965 116.994262)scale(0.12 -0.12)">
       <use xlink:href="#DejaVuSans-30"/>
      </g>
     </g>
    </g>
    <g id="ytick_7">
     <g id="line2d_14">
      <g>
       <use style="stroke:#000000;stroke-width:0.8;" x="57.6" xlink:href="#m1200f09b09" y="76.9536"/>
      </g>
     </g>
     <g id="text_15">
      <!-- 20 -->
      <g transform="translate(35.33 81.512662)scale(0.12 -0.12)">
       <use xlink:href="#DejaVuSans-32"/>
       <use x="63.623047" xlink:href="#DejaVuSans-30"/>
      </g>
     </g>
    </g>
    <g id="ytick_8">
     <g id="line2d_15">
      <g>
       <use style="stroke:#000000;stroke-width:0.8;" x="57.6" xlink:href="#m1200f09b09" y="41.472"/>
      </g>
     </g>
     <g id="text_16">
      <!-- 40 -->
      <g transform="translate(35.33 46.031062)scale(0.12 -0.12)">
       <use xlink:href="#DejaVuSans-34"/>
       <use x="63.623047" xlink:href="#DejaVuSans-30"/>
      </g>
     </g>
    </g>
    <g id="text_17">
     <!-- Membrane potential (mV) -->
     <g transform="translate(16.87 251.822062)rotate(-90)scale(0.12 -0.12)">
      <defs>
       <path d="M 628 4666 
L 1569 4666 
L 2759 1491 
L 3956 4666 
L 4897 4666 
L 4897 0 
L 4281 0 
L 4281 4097 
L 3078 897 
L 2444 897 
L 1241 4097 
L 1241 0 
L 628 0 
L 628 4666 
z
" id="DejaVuSans-4d" transform="scale(0.015625)"/>
       <path d="M 3116 1747 
Q 3116 2381 2855 2742 
Q 2594 3103 2138 3103 
Q 1681 3103 1420 2742 
Q 1159 2381 1159 1747 
Q 1159 1113 1420 752 
Q 1681 391 2138 391 
Q 2594 391 2855 752 
Q 3116 1113 3116 1747 
z
M 1159 2969 
Q 1341 3281 1617 3432 
Q 1894 3584 2278 3584 
Q 2916 3584 3314 3078 
Q 3713 2572 3713 1747 
Q 3713 922 3314 415 
Q 2916 -91 2278 -91 
Q 1894 -91 1617 61 
Q 1341 213 1159 525 
L 1159 0 
L 581 0 
L 581 4863 
L 1159 4863 
L 1159 2969 
z
" id="DejaVuSans-62" transform="scale(0.015625)"/>
       <path d="M 2631 2963 
Q 2534 3019 2420 3045 
Q 2306 3072 2169 3072 
Q 1681 3072 1420 2755 
Q 1159 2438 1159 1844 
L 1159 0 
L 581 0 
L 581 3500 
L 1159 3500 
L 1159 2956 
Q 1341 3275 1631 3429 
Q 1922 3584 2338 3584 
Q 2397 3584 2469 3576 
Q 2541 3569 2628 3553 
L 2631 2963 
z
" id="DejaVuSans-72" transform="scale(0.015625)"/>
       <path d="M 2194 1759 
Q 1497 1759 1228 1600 
Q 959 1441 959 1056 
Q 959 750 1161 570 
Q 1363 391 1709 391 
Q 2188 391 2477 730 
Q 2766 1069 2766 1631 
L 2766 1759 
L 2194 1759 
z
M 3341 1997 
L 3341 0 
L 2766 0 
L 2766 531 
Q 2569 213 2275 61 
Q 1981 -91 1556 -91 
Q 1019 -91 701 211 
Q 384 513 384 1019 
Q 384 1609 779 1909 
Q 1175 2209 1959 2209 
L 2766 2209 
L 2766 2266 
Q 2766 2663 2505 2880 
Q 2244 3097 1772 3097 
Q 1472 3097 1187 3025 
Q 903 2953 641 2809 
L 641 3341 
Q 956 3463 1253 3523 
Q 1550 3584 1831 3584 
Q 2591 3584 2966 3190 
Q 3341 2797 3341 1997 
z
" id="DejaVuSans-61" transform="scale(0.015625)"/>
       <path d="M 3513 2113 
L 3513 0 
L 2938 0 
L 2938 2094 
Q 2938 2591 2744 2837 
Q 2550 3084 2163 3084 
Q 1697 3084 1428 2787 
Q 1159 2491 1159 1978 
L 1159 0 
L 581 0 
L 581 3500 
L 1159 3500 
L 1159 2956 
Q 1366 3272 1645 3428 
Q 1925 3584 2291 3584 
Q 2894 3584 3203 3211 
Q 3513 2838 3513 2113 
z
" id="DejaVuSans-6e" transform="scale(0.015625)"/>
       <path id="DejaVuSans-20" transform="scale(0.015625)"/>
       <path d="M 1159 525 
L 1159 -1331 
L 581 -1331 
L 581 3500 
L 1159 3500 
L 1159 2969 
Q 1341 3281 1617 3432 
Q 1894 3584 2278 3584 
Q 2916 3584 3314 3078 
Q 3713 2572 3713 1747 
Q 3713 922 3314 415 
Q 2916 -91 2278 -91 
Q 1894 -91 1617 61 
Q 1341 213 1159 525 
z
M 3116 1747 
Q 3116 2381 2855 2742 
Q 2594 3103 2138 3103 
Q 1681 3103 1420 2742 
Q 1159 2381 1159 1747 
Q 1159 1113 1420 752 
Q 1681 391 2138 391 
Q 2594 391 2855 752 
Q 3116 1113 3116 1747 
z
" id="DejaVuSans-70" transform="scale(0.015625)"/>
       <path d="M 1959 3097 
Q 1497 3097 1228 2736 
Q 959 2375 959 1747 
Q 959 1119 1226 758 
Q 1494 397 1959 397 
Q 2419 397 2687 759 
Q 2956 1122 2956 1747 
Q 2956 2369 2687 2733 
Q 2419 3097 1959 3097 
z
M 1959 3584 
Q 2709 3584 3137 3096 
Q 3566 2609 3566 1747 
Q 3566 888 3137 398 
Q 2709 -91 1959 -91 
Q 1206 -91 779 398 
Q 353 888 353 1747 
Q 353 2609 779 3096 
Q 1206 3584 1959 3584 
z
" id="DejaVuSans-6f" transform="scale(0.015625)"/>
       <path d="M 1172 4494 
L 1172 3500 
L 2356 3500 
L 2356 3053 
L 1172 3053 
L 1172 1153 
Q 1172 725 1289 603 
Q 1406 481 1766 481 
L 2356 481 
L 2356 0 
L 1766 0 
Q 1100 0 847 248 
Q 594 497 594 1153 
L 594 3053 
L 172 3053 
L 172 3500 
L 594 3500 
L 594 4494 
L 1172 4494 
z
" id="DejaVuSans-74" transform="scale(0.015625)"/>
       <path d="M 603 4863 
L 1178 4863 
L 1178 0 
L 603 0 
L 603 4863 
z
" id="DejaVuSans-6c" transform="scale(0.015625)"/>
       <path d="M 1831 0 
L 50 4666 
L 709 4666 
L 2188 738 
L 3669 4666 
L 4325 4666 
L 2547 0 
L 1831 0 
z
" id="DejaVuSans-56" transform="scale(0.015625)"/>
      </defs>
      <use xlink:href="#DejaVuSans-4d"/>
      <use x="86.279297" xlink:href="#DejaVuSans-65"/>
      <use x="147.802734" xlink:href="#DejaVuSans-6d"/>
      <use x="245.214844" xlink:href="#DejaVuSans-62"/>
      <use x="308.691406" xlink:href="#DejaVuSans-72"/>
      <use x="349.804688" xlink:href="#DejaVuSans-61"/>
      <use x="411.083984" xlink:href="#DejaVuSans-6e"/>
      <use x="474.462891" xlink:href="#DejaVuSans-65"/>
      <use x="535.986328" xlink:href="#DejaVuSans-20"/>
      <use x="567.773438" xlink:href="#DejaVuSans-70"/>
      <use x="631.25" xlink:href="#DejaVuSans-6f"/>
      <use x="692.431641" xlink:href="#DejaVuSans-74"/>
      <use x="731.640625" xlink:href="#DejaVuSans-65"/>
      <use x="793.164062" xlink:href="#DejaVuSans-6e"/>
      <use x="856.542969" xlink:href="#DejaVuSans-74"/>
      <use x="895.751953" xlink:href="#DejaVuSans-69"/>
      <use x="923.535156" xlink:href="#DejaVuSans-61"/>
      <use x="984.814453" xlink:href="#DejaVuSans-6c"/>
      <use x="1012.597656" xlink:href="#DejaVuSans-20"/>
      <use x="1044.384766" xlink:href="#DejaVuSans-28"/>
      <use x="1083.398438" xlink:href="#DejaVuSans-6d"/>
      <use x="1180.810547" xlink:href="#DejaVuSans-56"/>
      <use x="1249.21875" xlink:href="#DejaVuSans-29"/>
     </g>
    </g>
   </g>
   <g id="line2d_16">
    <path clip-path="url(#p1676e0c254)" d="M 73.832727 254.769993 
L 73.94278 254.799088 
L 74.382989 255.843844 
L 74.548068 256.36631 
L 74.603094 256.2753 
L 74.713146 256.151647 
L 74.768173 256.196176 
L 74.933251 256.749334 
L 75.263408 258.640326 
L 75.373461 258.513479 
L 75.483513 257.660147 
L 75.758644 255.291928 
L 75.978749 254.313168 
L 76.418958 250.361404 
L 76.639063 249.97909 
L 76.859168 248.967155 
L 76.96922 249.023926 
L 77.024247 249.083712 
L 77.079273 249.013104 
L 77.189325 248.320858 
L 77.464456 246.84163 
L 77.629535 246.820341 
L 77.794613 246.870547 
L 77.904666 246.487878 
L 78.289849 244.060227 
L 78.620006 240.847368 
L 78.895137 239.922895 
L 79.00519 240.133478 
L 79.555451 242.051081 
L 79.665504 241.539792 
L 79.885609 240.269373 
L 79.995661 240.393204 
L 80.545923 241.366464 
L 80.766028 240.818096 
L 81.701473 235.249081 
L 81.921578 234.546546 
L 82.03163 234.622831 
L 82.141683 234.353526 
L 82.306761 233.888362 
L 82.361787 233.908764 
L 82.526866 234.506629 
L 82.967076 236.120864 
L 83.077128 236.319384 
L 83.132154 236.292418 
L 83.407285 235.662797 
L 83.462311 235.723648 
L 83.62739 236.185441 
L 83.682416 236.119268 
L 83.902521 235.973438 
L 84.012573 236.125299 
L 84.232678 236.479583 
L 84.34273 236.67349 
L 84.507809 236.856043 
L 84.617861 237.127477 
L 84.78294 237.476084 
L 84.892992 237.5325 
L 85.113097 238.285597 
L 85.388228 239.163944 
L 86.268647 234.784982 
L 86.3787 234.682618 
L 86.488752 235.017032 
L 86.763883 237.15054 
L 87.09404 239.496229 
L 87.314145 239.783807 
L 87.53425 240.8589 
L 87.809381 242.325886 
L 88.084512 242.513052 
L 88.139538 242.517665 
L 88.414669 241.965039 
L 88.579747 242.50773 
L 88.964931 245.136384 
L 89.185035 246.410173 
L 89.240062 246.383917 
L 89.40514 245.266956 
L 89.790324 241.859303 
L 89.900376 241.695733 
L 90.065455 242.170122 
L 91.165978 246.068486 
L 91.276031 245.638803 
L 91.661214 243.924687 
L 91.826293 243.674365 
L 91.936345 243.818952 
L 92.15645 244.678139 
L 92.211476 244.46862 
L 92.431581 243.376674 
L 92.541633 243.512923 
L 92.816764 244.242248 
L 92.926817 244.439348 
L 93.146921 245.553115 
L 93.587131 247.831212 
L 93.75221 247.829083 
L 93.917288 246.758071 
L 94.137393 245.997168 
L 94.412524 246.290778 
L 94.46755 246.159673 
L 94.962786 244.322259 
L 95.072838 244.324742 
L 95.237917 244.96483 
L 96.668598 253.978221 
L 96.723624 253.966512 
L 96.943729 253.018444 
L 97.21886 252.134952 
L 97.328912 251.723366 
L 97.659069 250.417465 
L 97.769122 250.444254 
L 98.264357 250.769443 
L 98.319384 250.671691 
L 98.539488 248.237653 
L 98.814619 246.23454 
L 99.199803 245.204509 
L 99.970169 238.834674 
L 100.575458 234.425021 
L 100.740536 234.239098 
L 100.850589 234.316093 
L 101.070693 235.046304 
L 101.12572 234.99042 
L 101.345824 233.935198 
L 102.116191 228.989063 
L 102.226243 229.261916 
L 102.556401 231.426471 
L 102.666453 231.222275 
L 102.831532 230.834638 
L 102.941584 231.008675 
L 103.161689 232.338171 
L 103.546872 234.85151 
L 103.656924 234.599768 
L 104.427291 230.970355 
L 104.482317 230.985612 
L 104.812475 231.331913 
L 105.197658 233.643362 
L 105.30771 233.470921 
L 105.472789 233.344784 
L 105.582841 233.503741 
L 105.74792 234.157313 
L 106.573313 238.863237 
L 106.793418 238.408363 
L 106.848444 238.442071 
L 107.398706 239.148509 
L 107.673837 240.914783 
L 108.224099 245.929043 
L 108.334151 245.748974 
L 108.444203 245.598 
L 108.49923 245.65069 
L 108.774361 246.362983 
L 108.884413 246.590952 
L 108.939439 246.543762 
L 109.049492 246.564873 
L 109.489701 247.515248 
L 109.544727 247.29881 
L 109.874884 245.576001 
L 109.984937 245.432301 
L 110.37012 244.701912 
L 110.480173 244.577549 
L 110.755304 241.912703 
L 111.250539 236.217552 
L 111.360592 236.30803 
L 111.855827 238.261114 
L 112.296037 240.611593 
L 112.516142 239.746374 
L 113.176456 237.417894 
L 113.341535 237.355624 
L 113.506613 237.92262 
L 113.781744 239.140348 
L 113.946823 239.076659 
L 114.332006 240.000245 
L 114.387032 239.947023 
L 114.662163 238.595351 
L 114.71719 238.60635 
L 114.937294 239.292919 
L 115.047347 239.62414 
L 115.102373 239.533839 
L 115.322478 238.658153 
L 115.762687 235.402362 
L 115.87274 235.482373 
L 116.147871 235.934054 
L 116.423002 235.778644 
L 116.753159 236.4182 
L 116.808185 236.286741 
L 117.02829 234.987582 
L 117.303421 233.363412 
L 117.413473 233.449987 
L 117.74363 234.114735 
L 117.908709 234.637379 
L 118.18384 236.652556 
L 118.844154 242.223877 
L 119.009233 242.528486 
L 119.33939 242.296259 
L 119.449442 242.552436 
L 119.669547 243.103466 
L 119.779599 242.91772 
L 119.944678 241.577402 
L 120.274835 239.077546 
L 120.384888 239.203328 
L 120.604992 240.449619 
L 120.825097 241.521341 
L 121.045202 241.354932 
L 121.375359 239.756664 
L 121.430385 239.835078 
L 121.980647 241.305258 
L 122.145726 241.33045 
L 122.255778 241.429444 
L 122.365831 241.73565 
L 122.420857 241.69733 
L 122.585935 241.074983 
L 122.916092 239.263647 
L 123.081171 239.36885 
L 123.191223 239.121543 
L 123.741485 236.243276 
L 124.016616 235.149733 
L 124.181695 235.158603 
L 124.566878 235.224067 
L 125.007088 233.742887 
L 125.227193 232.427407 
L 125.447297 231.611153 
L 125.502324 231.581881 
L 125.612376 230.888038 
L 125.887507 229.065348 
L 126.052586 228.775818 
L 126.162638 228.966 
L 127.043057 233.024385 
L 127.703371 238.062063 
L 127.86845 238.596238 
L 128.363686 241.318919 
L 128.473738 241.180895 
L 128.638817 241.095739 
L 128.803895 241.578289 
L 128.913948 242.133221 
L 128.968974 242.018438 
L 129.354157 238.815692 
L 129.519236 238.76584 
L 129.684314 238.652831 
L 129.739341 238.617704 
L 130.069498 237.716827 
L 130.234576 237.729777 
L 130.399655 238.09506 
L 131.004943 240.166831 
L 131.114995 239.961925 
L 131.445153 238.128591 
L 131.555205 238.254195 
L 131.665257 238.528291 
L 131.720284 238.470456 
L 131.830336 238.356028 
L 131.885362 238.416169 
L 132.380598 239.552822 
L 132.49065 239.235971 
L 132.820807 238.144025 
L 132.93086 237.877026 
L 133.150965 237.148411 
L 133.261017 237.355979 
L 135.076881 244.578613 
L 135.186934 244.702976 
L 135.352012 245.365773 
L 135.682169 247.002716 
L 135.737196 246.974153 
L 135.902274 246.86966 
L 136.012327 247.017973 
L 136.067353 246.963864 
L 136.782693 245.339161 
L 137.057824 244.303276 
L 137.222903 244.142544 
L 137.443008 244.239054 
L 137.718139 243.542018 
L 138.048296 241.030276 
L 138.158348 241.165638 
L 138.213374 241.293549 
L 138.268401 241.221876 
L 138.488505 239.992794 
L 138.70861 238.336158 
L 138.928715 236.62559 
L 139.093794 236.233696 
L 139.258872 235.264338 
L 139.534003 233.153006 
L 139.644055 233.101912 
L 139.699082 233.175537 
L 139.754108 233.127459 
L 139.919186 233.119121 
L 140.029239 233.302206 
L 140.139291 233.64549 
L 140.194317 233.60859 
L 140.359396 233.171279 
L 140.414422 233.212438 
L 140.579501 233.962341 
L 140.854632 236.267048 
L 140.909658 236.239728 
L 141.294841 233.66128 
L 141.624998 231.425229 
L 141.900129 229.793963 
L 142.230287 229.46629 
L 142.560444 229.956823 
L 142.61547 229.818977 
L 142.835575 228.206693 
L 143.110706 226.787607 
L 143.220758 226.746271 
L 143.495889 226.458338 
L 143.605941 226.450177 
L 143.826046 227.023914 
L 144.046151 228.470499 
L 144.816518 234.76529 
L 145.036622 236.159362 
L 145.476832 239.626979 
L 145.531858 239.603916 
L 145.696937 238.792274 
L 146.137146 236.392121 
L 146.412277 235.696504 
L 146.632382 235.241985 
L 146.852487 235.697391 
L 147.072592 236.582835 
L 147.67788 239.857432 
L 147.953011 239.542355 
L 148.228142 238.891268 
L 148.39322 238.995229 
L 148.558299 239.344013 
L 148.83343 240.310886 
L 148.888456 240.254471 
L 149.053535 239.268437 
L 149.383692 237.023516 
L 149.493744 237.027419 
L 149.54877 237.095721 
L 149.768875 236.565804 
L 149.823901 236.605011 
L 149.98898 237.207666 
L 150.869399 240.836191 
L 151.199556 241.218506 
L 151.419661 241.516906 
L 151.474687 241.4078 
L 151.749818 239.126865 
L 151.969923 238.098076 
L 152.079975 237.968214 
L 152.410133 236.712875 
L 152.520185 236.850543 
L 152.850342 238.473117 
L 153.125473 240.15459 
L 154.281023 249.117774 
L 154.391076 249.021087 
L 154.61118 247.811519 
L 154.886311 246.672382 
L 154.996364 246.803842 
L 155.216468 247.736298 
L 155.546626 249.307956 
L 155.601652 249.292699 
L 155.711704 249.235573 
L 155.986835 248.152497 
L 156.041861 248.175915 
L 156.20694 248.683834 
L 156.482071 249.934916 
L 156.537097 249.878677 
L 156.702176 249.035102 
L 156.977307 247.491475 
L 157.087359 247.599162 
L 157.307464 248.533747 
L 157.582595 249.473655 
L 157.912752 249.413691 
L 158.132857 250.273055 
L 158.242909 250.712317 
L 158.297935 250.664595 
L 158.463014 250.381984 
L 158.628092 250.132371 
L 158.848197 250.198366 
L 159.013276 250.15224 
L 159.068302 250.225687 
L 159.123328 250.125274 
L 159.453485 249.030667 
L 159.67359 248.809794 
L 159.893695 248.946043 
L 160.168826 248.236944 
L 161.26935 244.337693 
L 161.544481 241.436895 
L 161.929664 235.793192 
L 162.149769 234.960261 
L 162.259821 235.139798 
L 162.589978 236.318674 
L 162.755057 235.904072 
L 163.030188 232.522143 
L 163.250293 230.74966 
L 163.360345 230.805721 
L 163.525424 231.393118 
L 164.405843 236.815771 
L 164.956105 241.138495 
L 165.121183 241.43246 
L 165.341288 242.285437 
L 165.396314 242.265036 
L 165.561393 241.975506 
L 166.056629 240.499649 
L 166.166681 240.698523 
L 166.937048 244.094644 
L 167.652388 248.126773 
L 167.817467 247.979702 
L 168.312703 247.149965 
L 168.807938 244.102273 
L 169.083069 242.584015 
L 169.3582 242.119738 
L 169.468253 242.108384 
L 169.633331 242.546405 
L 169.908462 243.992812 
L 170.458724 247.163448 
L 170.678829 247.379176 
L 170.733855 247.283908 
L 170.95396 247.048487 
L 171.064012 247.04831 
L 171.284117 244.168269 
L 171.504222 242.559355 
L 171.614274 242.191234 
L 172.219562 238.338642 
L 172.329615 238.402509 
L 173.099982 241.306323 
L 173.320086 242.277099 
L 173.485165 242.226893 
L 173.70527 242.433573 
L 173.925374 242.232925 
L 174.035427 242.441734 
L 174.255532 242.993295 
L 174.42061 242.956749 
L 174.585689 243.411623 
L 174.86082 245.184816 
L 175.246003 247.549665 
L 175.466108 248.442737 
L 175.686213 249.158756 
L 175.906317 248.800037 
L 176.346527 247.905545 
L 176.456579 247.998862 
L 176.566632 247.316374 
L 176.896789 241.696088 
L 177.17192 237.166862 
L 177.447051 236.131864 
L 177.777208 234.887524 
L 177.88726 235.171909 
L 178.217418 236.941908 
L 178.32747 236.862962 
L 178.492549 236.883009 
L 178.657627 236.973487 
L 178.822706 236.608914 
L 178.932758 235.960487 
L 179.372968 231.471355 
L 179.648099 231.421681 
L 179.758151 230.691825 
L 180.088308 227.949274 
L 180.308413 227.768141 
L 180.63857 227.495642 
L 180.693596 227.61007 
L 181.188832 229.528738 
L 181.243858 229.512594 
L 181.353911 228.82496 
L 181.79412 224.583312 
L 181.959199 224.28917 
L 182.179304 224.837538 
L 182.23433 224.743512 
L 182.454435 224.530445 
L 182.564487 224.692951 
L 182.729565 225.446757 
L 183.004696 226.565847 
L 183.224801 227.331895 
L 183.609985 229.119458 
L 183.665011 229.093733 
L 183.775063 228.394746 
L 184.050194 226.596716 
L 184.215273 225.812395 
L 184.490404 224.65605 
L 184.655482 224.573023 
L 184.820561 223.451982 
L 185.26077 219.919256 
L 185.590928 219.998025 
L 185.756006 220.835214 
L 186.086163 224.169597 
L 186.251242 225.713047 
L 186.306268 225.642616 
L 186.801504 222.826441 
L 187.021609 222.930579 
L 187.131661 222.220415 
L 188.067106 209.382285 
L 188.342237 202.387265 
L 188.507316 192.075603 
L 188.562342 183.516022 
L 188.672394 107.491903 
L 188.837473 210.954298 
L 188.947525 215.463654 
L 189.002552 214.867563 
L 189.222656 207.838303 
L 189.387735 198.460517 
L 189.497787 180.457153 
L 189.552814 79.537015 
L 189.60784 133.516415 
L 189.772918 220.093471 
L 189.937997 227.453596 
L 189.993023 227.463886 
L 190.433233 224.935467 
L 191.863914 209.504874 
L 192.084018 201.889636 
L 192.249097 186.886951 
L 192.304123 165.50769 
L 192.359149 87.686607 
L 192.524228 213.527955 
L 192.689307 223.317684 
L 192.744333 223.243527 
L 193.679778 213.179171 
L 194.009935 207.14517 
L 194.23004 197.468274 
L 194.340092 183.849371 
L 194.450145 108.17865 
L 194.615223 214.481701 
L 194.780302 221.364954 
L 195.550669 215.130837 
L 195.8258 214.400271 
L 195.990878 212.757827 
L 196.376062 209.087611 
L 196.596166 208.455683 
L 196.706219 208.441313 
L 196.816271 207.942442 
L 196.926324 206.404315 
L 197.091402 200.788287 
L 197.256481 185.851775 
L 197.311507 163.793929 
L 197.366533 89.995039 
L 197.531612 210.93088 
L 197.69669 221.971512 
L 197.806743 222.584102 
L 197.861769 222.5158 
L 198.191926 219.993945 
L 198.412031 216.306697 
L 199.017319 197.72587 
L 199.127371 189.869889 
L 199.182398 181.558502 
L 199.29245 112.130058 
L 199.457529 209.116351 
L 199.622607 218.290296 
L 199.677633 218.650434 
L 199.732659 218.63908 
L 199.897738 217.493734 
L 200.227895 215.447333 
L 200.448 214.085726 
L 200.668105 210.475473 
L 200.943236 201.721276 
L 201.108314 190.082069 
L 201.163341 179.629544 
L 201.218367 121.739008 
L 201.273393 131.436306 
L 201.438471 213.841968 
L 201.548524 219.182303 
L 201.60355 219.134758 
L 201.823655 216.181624 
L 202.153812 208.319257 
L 202.483969 196.42955 
L 202.594022 186.750524 
L 202.649048 173.924635 
L 202.704074 104.646634 
L 202.7591 153.496104 
L 202.924179 211.130996 
L 203.089257 216.224912 
L 203.19931 215.679914 
L 203.694545 211.03697 
L 204.189781 200.765579 
L 204.35486 193.33928 
L 204.464912 180.469039 
L 204.574965 113.664283 
L 204.740043 205.379783 
L 204.960148 217.264345 
L 205.0702 217.79923 
L 205.180253 217.303198 
L 205.730515 213.746345 
L 205.895593 213.467637 
L 206.115698 211.789534 
L 206.555908 204.925974 
L 206.831039 198.822429 
L 206.996117 189.474447 
L 207.051143 181.463056 
L 207.161196 108.767999 
L 207.326274 205.167071 
L 207.491353 215.813503 
L 207.601405 216.842469 
L 207.656431 216.762458 
L 207.876536 214.979863 
L 208.481824 207.255518 
L 208.646903 199.332832 
L 208.756955 186.250234 
L 208.867008 95.429756 
L 209.032086 215.944252 
L 209.197165 224.500818 
L 209.307217 223.690241 
L 209.857479 214.282117 
L 210.462767 195.116198 
L 210.57282 186.085599 
L 210.627846 174.589738 
L 210.682872 123.781861 
L 210.737898 146.416638 
L 210.902977 207.405251 
L 211.123082 215.972105 
L 211.343186 216.905626 
L 211.508265 216.253297 
L 211.72837 215.687011 
L 211.838422 215.765603 
L 212.388684 216.822599 
L 212.44371 216.860033 
L 212.718841 216.136208 
L 212.88392 215.076018 
L 213.104025 212.128916 
L 213.324129 205.845834 
L 213.489208 194.869601 
L 213.544234 186.79736 
L 213.654287 92.99838 
L 213.819365 216.462461 
L 213.984444 225.341199 
L 214.03947 225.44108 
L 214.149522 224.86681 
L 215.63523 205.780903 
L 215.855334 196.790398 
L 215.965387 187.204334 
L 216.020413 174.480455 
L 216.075439 103.378876 
L 216.130465 152.639578 
L 216.295544 212.687751 
L 216.460622 220.001928 
L 216.680727 221.103277 
L 216.79078 220.976785 
L 217.010884 219.854857 
L 217.341042 217.823181 
L 217.616173 212.340031 
L 218.111408 197.589266 
L 218.221461 189.435594 
L 218.276487 180.216055 
L 218.386539 121.759232 
L 218.551618 210.367609 
L 218.716696 218.941206 
L 218.826749 219.588922 
L 218.881775 219.488332 
L 219.10188 217.689238 
L 219.432037 212.903479 
L 219.81722 208.36077 
L 220.092351 205.368429 
L 220.312456 200.555173 
L 220.477535 191.992398 
L 220.587587 168.573655 
L 220.642613 93.542135 
L 220.697639 166.893956 
L 220.862718 210.795695 
L 221.027797 215.202155 
L 221.137849 214.363725 
L 221.41298 209.558097 
L 221.798163 198.401085 
L 221.963242 183.918383 
L 222.018268 163.01085 
L 222.073294 97.426128 
L 222.238373 206.999873 
L 222.403451 217.56789 
L 222.458478 217.963155 
L 222.513504 217.926077 
L 223.00874 215.680802 
L 223.063766 215.696236 
L 223.338897 216.092211 
L 223.393923 216.046262 
L 223.559002 215.696946 
L 223.669054 215.222911 
L 224.219316 208.397848 
L 224.549473 199.903553 
L 224.714552 186.945318 
L 224.769578 171.537966 
L 224.824604 89.429995 
L 224.87963 163.571992 
L 225.044709 213.753086 
L 225.209787 218.123177 
L 225.429892 215.898481 
L 225.980154 209.551178 
L 226.200259 201.865686 
L 226.365337 185.790569 
L 226.47539 95.497171 
L 226.640468 214.359999 
L 226.805547 222.674225 
L 226.915599 221.873937 
L 227.300783 218.622049 
L 227.63094 218.003782 
L 227.740992 218.089293 
L 227.796018 218.135773 
L 227.961097 217.339744 
L 228.181202 215.133143 
L 228.401307 210.87819 
L 228.731464 199.938857 
L 228.896542 187.719704 
L 228.951569 175.75318 
L 229.006595 109.245936 
L 229.061621 148.43359 
L 229.2267 212.598692 
L 229.391778 217.692608 
L 229.556857 215.986476 
L 229.831988 209.636511 
L 230.052092 199.200308 
L 230.162145 186.122322 
L 230.272197 95.49859 
L 230.437276 216.037569 
L 230.602354 225.500867 
L 230.657381 225.676323 
L 230.712407 225.543799 
L 230.877485 224.472255 
L 231.592826 217.875693 
L 231.702878 217.839325 
L 231.922983 218.082019 
L 232.033035 217.171029 
L 232.638324 206.594851 
L 232.858428 198.737805 
L 232.968481 188.17103 
L 233.023507 172.827012 
L 233.078533 83.614738 
L 233.133559 163.975417 
L 233.298638 216.80681 
L 233.463716 221.041539 
L 233.683821 219.806779 
L 234.234083 216.409061 
L 235.169529 201.212647 
L 235.389633 191.775606 
L 235.499686 177.110173 
L 235.609738 130.224965 
L 235.774817 204.443247 
L 235.994921 215.990733 
L 236.325079 220.463189 
L 236.60021 221.921838 
L 236.930367 224.059249 
L 237.260524 225.778333 
L 237.480629 226.406889 
L 237.75576 227.499722 
L 237.975864 226.599199 
L 238.030891 226.684001 
L 238.250995 228.077363 
L 238.416074 229.095862 
L 238.4711 229.003433 
L 239.131414 225.973481 
L 239.62665 221.706109 
L 240.121886 217.955527 
L 240.286965 216.184995 
L 240.617122 212.808034 
L 240.727174 212.857885 
L 240.947279 213.712105 
L 241.22241 215.831953 
L 241.662619 219.413998 
L 241.717646 219.435997 
L 241.827698 219.027249 
L 242.157855 217.690479 
L 242.267908 217.744589 
L 242.598065 218.475155 
L 242.653091 218.304311 
L 243.0933 215.547391 
L 243.203353 215.262119 
L 243.258379 215.372289 
L 244.413929 219.51725 
L 244.799112 223.616439 
L 245.404401 229.959662 
L 246.009689 233.525208 
L 246.119741 233.577898 
L 246.28482 234.065947 
L 246.614977 236.28337 
L 246.945134 237.989325 
L 247.495396 240.398526 
L 247.550422 240.353997 
L 247.715501 239.282807 
L 248.100684 236.50034 
L 248.265763 237.062191 
L 248.430841 237.357575 
L 248.59592 236.299692 
L 249.091156 232.71605 
L 249.476339 232.183116 
L 249.641418 232.33551 
L 249.696444 232.256208 
L 249.971575 231.924633 
L 250.19168 232.223565 
L 250.246706 232.127588 
L 250.411784 230.919971 
L 251.567334 221.462528 
L 251.622361 221.472463 
L 251.732413 221.835085 
L 251.952518 223.573861 
L 252.392727 227.6067 
L 252.612832 227.58612 
L 252.777911 228.160212 
L 253.438225 232.47992 
L 253.878435 235.410523 
L 254.263618 237.258937 
L 254.538749 236.911927 
L 254.703827 237.321384 
L 255.089011 239.420121 
L 255.364142 241.61519 
L 255.419168 241.616787 
L 255.584247 240.977053 
L 255.804351 240.325966 
L 255.914404 240.39959 
L 256.024456 240.475344 
L 256.079482 240.371383 
L 256.244561 238.69399 
L 256.574718 235.620751 
L 256.794823 235.146717 
L 257.014928 234.864106 
L 257.455137 232.78861 
L 257.510163 232.871105 
L 257.675242 233.634491 
L 257.895347 234.546013 
L 258.170478 235.162329 
L 258.500635 236.272371 
L 258.555661 236.131686 
L 258.775766 234.238565 
L 259.271002 227.657793 
L 259.87629 224.656937 
L 259.986342 224.981239 
L 260.481578 227.155551 
L 260.59163 227.336152 
L 260.976814 225.920969 
L 261.086866 226.000447 
L 261.196918 226.162421 
L 261.472049 225.502818 
L 261.802206 226.041784 
L 262.132364 227.399842 
L 262.572573 229.657181 
L 263.012783 231.098799 
L 263.232888 232.571285 
L 263.287914 232.455615 
L 263.893202 228.933534 
L 264.223359 228.602491 
L 264.333411 228.777947 
L 264.608542 229.567235 
L 264.883673 228.803316 
L 264.9387 228.863813 
L 265.158804 229.059139 
L 265.268857 229.044591 
L 265.543988 228.45879 
L 265.819119 225.580878 
L 266.204302 221.282282 
L 266.424407 220.131259 
L 266.534459 220.298377 
L 266.80959 220.916112 
L 267.029695 221.141065 
L 267.2498 221.800668 
L 267.634983 224.131986 
L 268.680481 233.325092 
L 269.010638 235.758952 
L 269.781005 241.843337 
L 270.441319 246.776698 
L 270.71645 246.952687 
L 270.826502 246.728089 
L 271.266712 244.926156 
L 271.486817 244.51244 
L 271.651895 244.988781 
L 271.982052 247.000232 
L 272.147131 247.486153 
L 272.367236 247.775151 
L 272.697393 246.985685 
L 273.46776 242.303178 
L 273.522786 242.368997 
L 273.687864 243.115352 
L 274.073048 246.534714 
L 274.348179 248.426415 
L 274.62331 249.410498 
L 275.008493 251.906806 
L 275.063519 251.675643 
L 275.228598 249.081938 
L 275.723834 239.253712 
L 275.943938 238.095593 
L 276.109017 238.454844 
L 276.219069 238.659041 
L 276.604253 237.361833 
L 276.714305 237.543854 
L 276.989436 238.549935 
L 277.044462 238.521904 
L 277.209541 237.316594 
L 277.429646 236.085915 
L 277.484672 236.034112 
L 277.594724 235.322528 
L 278.08996 231.31293 
L 278.144986 231.247112 
L 278.200012 231.303882 
L 278.420117 232.173891 
L 278.530169 232.039238 
L 278.640222 231.922681 
L 278.695248 231.974839 
L 278.915353 232.816285 
L 279.190484 234.562158 
L 279.575667 236.993889 
L 280.456086 244.404576 
L 281.226453 252.007218 
L 281.446558 252.330456 
L 281.776715 252.383323 
L 281.941794 252.455706 
L 282.326977 252.342697 
L 282.437029 252.400532 
L 282.602108 252.779298 
L 283.097344 254.154387 
L 283.317448 254.740898 
L 283.372475 254.688208 
L 283.702632 254.109326 
L 284.30792 247.767345 
L 284.472998 247.528376 
L 284.638077 247.955929 
L 284.968234 249.731606 
L 285.02326 249.670932 
L 285.518496 246.702897 
L 285.628549 246.902303 
L 285.738601 247.262796 
L 285.793627 247.23583 
L 285.958706 246.197106 
L 286.288863 243.871288 
L 286.508968 243.003585 
L 286.784099 242.747408 
L 287.05923 242.101998 
L 287.499439 242.628899 
L 287.664518 242.435879 
L 287.719544 242.487328 
L 287.884622 243.121916 
L 288.104727 243.885303 
L 288.654989 243.009262 
L 288.710015 243.047582 
L 288.875094 243.544147 
L 289.150225 245.402851 
L 289.480382 247.357 
L 289.810539 248.556278 
L 289.975618 249.081583 
L 290.415827 250.535087 
L 290.580906 250.524265 
L 290.745985 250.191625 
L 291.956561 244.385061 
L 292.341744 243.96212 
L 292.39677 244.0251 
L 292.506823 244.176784 
L 292.947032 243.334096 
L 293.057085 243.371884 
L 293.222163 243.530132 
L 293.55232 242.654623 
L 293.662373 242.898914 
L 294.377713 246.380014 
L 294.652844 247.938721 
L 294.817923 247.633579 
L 294.983002 247.533521 
L 295.313159 248.132628 
L 295.368185 248.026893 
L 295.533263 247.267586 
L 295.863421 245.442945 
L 296.028499 245.499006 
L 296.248604 245.898706 
L 296.30363 245.83342 
L 296.688814 244.63219 
L 296.853892 244.400496 
L 296.963945 244.504279 
L 297.129023 245.049631 
L 297.514206 247.647417 
L 297.624259 248.207671 
L 297.679285 248.124467 
L 298.284573 246.496216 
L 298.339599 246.538262 
L 298.504678 247.075453 
L 298.834835 248.35421 
L 298.999914 248.63008 
L 299.220018 249.539296 
L 299.605202 251.186529 
L 299.880333 250.730058 
L 299.935359 250.825681 
L 300.430595 251.91674 
L 300.595673 251.903967 
L 300.760752 251.084165 
L 301.255988 248.429609 
L 301.36604 248.464381 
L 301.531119 249.082115 
L 301.916302 251.85997 
L 302.081381 252.5437 
L 302.301485 251.926853 
L 302.52159 250.994041 
L 302.796721 249.355856 
L 302.906773 249.301214 
L 303.071852 249.667384 
L 303.126878 249.624806 
L 303.457035 248.972655 
L 303.622114 248.741669 
L 303.787193 248.317132 
L 304.447507 242.947347 
L 304.777664 240.908397 
L 305.052795 240.380076 
L 305.493005 238.481455 
L 305.548031 238.585771 
L 305.713109 239.428282 
L 306.263371 244.36395 
L 306.538502 246.168544 
L 306.978712 244.26123 
L 307.088764 244.314098 
L 307.253843 244.846322 
L 307.639026 246.488765 
L 307.969183 246.316502 
L 308.189288 246.454171 
L 308.299341 245.989539 
L 308.574471 244.895819 
L 308.849602 244.043196 
L 309.014681 244.213862 
L 309.564943 245.216927 
L 309.619969 245.124143 
L 310.060179 243.699202 
L 310.170231 243.86224 
L 310.390336 244.957557 
L 310.720493 246.322179 
L 310.830545 246.302309 
L 310.940598 246.000184 
L 311.380807 244.335742 
L 311.710965 244.59937 
L 312.041122 245.610418 
L 312.096148 245.560921 
L 312.2062 244.734377 
L 312.591384 240.152284 
L 312.756462 239.691732 
L 312.866515 239.871269 
L 313.306724 241.224538 
L 313.416777 240.993907 
L 313.581855 240.02047 
L 313.912012 238.113688 
L 314.022065 238.063659 
L 314.297196 238.888961 
L 314.572327 240.020647 
L 314.627353 239.829756 
L 314.902484 238.83432 
L 315.012536 239.049161 
L 315.39772 240.508342 
L 315.507772 240.008406 
L 315.727877 239.216634 
L 315.837929 239.451345 
L 316.058034 240.835482 
L 316.718348 247.260135 
L 317.818872 257.763398 
L 317.928924 258.195919 
L 318.149029 256.901373 
L 318.369134 255.296895 
L 318.809344 251.378484 
L 319.469658 247.781182 
L 319.524684 247.855339 
L 319.744789 248.786731 
L 320.01992 250.04278 
L 320.129972 249.899789 
L 320.460129 249.172416 
L 320.515156 249.201334 
L 320.625208 249.318955 
L 320.73526 248.705301 
L 321.230496 244.207121 
L 321.450601 243.498908 
L 321.560653 243.618481 
L 321.780758 244.718943 
L 322.000863 245.949445 
L 322.055889 245.91485 
L 322.165941 245.697526 
L 322.386046 245.195106 
L 322.496099 245.452702 
L 322.936308 247.072792 
L 323.046361 246.886691 
L 323.651649 244.157092 
L 323.981806 241.646059 
L 324.091858 241.557532 
L 324.477042 240.200893 
L 325.137356 235.443875 
L 325.302435 235.511645 
L 325.577565 235.25121 
L 325.742644 234.958487 
L 325.962749 234.288949 
L 326.017775 234.303852 
L 326.292906 233.829817 
L 326.347932 233.870444 
L 326.678089 234.864816 
L 327.118299 236.539547 
L 327.778613 238.275839 
L 328.10877 239.812015 
L 328.218823 239.756486 
L 328.328875 239.794629 
L 328.493954 240.356835 
L 328.659032 240.829805 
L 328.714059 240.797339 
L 328.98919 239.929637 
L 329.099242 240.133124 
L 329.319347 241.317854 
L 329.979661 245.306518 
L 330.474897 247.739846 
L 330.639975 246.476169 
L 331.355316 239.904622 
L 331.465368 239.795694 
L 331.575421 239.859206 
L 331.795525 239.314918 
L 331.850552 239.339932 
L 332.785997 241.4133 
L 332.896049 241.805904 
L 332.951076 241.794727 
L 333.17118 241.597981 
L 333.281233 241.854691 
L 333.501337 243.138238 
L 333.996573 247.878579 
L 334.491809 252.370195 
L 334.656888 252.536959 
L 334.76694 252.176288 
L 335.317202 248.448591 
L 335.372228 248.507313 
L 335.592333 249.157869 
L 335.757411 249.476493 
L 335.867464 249.487315 
L 336.032542 249.833438 
L 336.087569 249.793699 
L 336.252647 249.026409 
L 336.472752 248.143982 
L 336.582804 248.17627 
L 336.747883 248.496669 
L 336.802909 248.470767 
L 336.967988 248.105839 
L 337.903433 242.485908 
L 338.013485 242.712458 
L 338.23359 243.257456 
L 338.508721 242.640431 
L 338.563747 242.685315 
L 338.838878 242.623754 
L 339.003957 242.735699 
L 339.38914 243.729893 
L 339.444166 243.69317 
L 339.719297 243.292405 
L 339.994428 242.468877 
L 340.104481 242.690282 
L 340.159507 242.596966 
L 340.434638 241.894608 
L 340.654743 241.847772 
L 340.764795 241.863739 
L 340.929874 242.317903 
L 341.315057 243.97312 
L 341.370083 243.868981 
L 341.865319 240.712361 
L 342.085424 239.454538 
L 342.360555 237.693231 
L 342.470607 237.814401 
L 343.075895 239.727746 
L 343.185948 239.620592 
L 343.406052 239.296467 
L 343.956314 239.820531 
L 344.066367 239.809531 
L 344.176419 239.83224 
L 344.45155 239.065305 
L 344.89176 239.81716 
L 345.001812 239.842707 
L 345.166891 240.297581 
L 345.221917 240.208167 
L 345.552074 238.740826 
L 345.662126 239.079143 
L 345.937257 241.188524 
L 346.322441 243.768214 
L 346.432493 244.104934 
L 346.487519 244.04497 
L 346.76265 243.502634 
L 347.257886 241.25452 
L 347.367938 241.217086 
L 347.533017 241.54813 
L 347.9182 240.565999 
L 348.853646 233.117347 
L 349.183803 231.123991 
L 349.403908 229.634296 
L 349.458934 229.598282 
L 349.51396 229.68805 
L 350.064222 231.387619 
L 350.174274 231.501692 
L 350.2293 231.455389 
L 350.614484 230.669116 
L 350.779562 230.721274 
L 351.219772 231.806834 
L 351.439877 232.307124 
L 351.604955 232.059995 
L 351.659982 232.095477 
L 351.82506 232.705938 
L 351.990139 233.285175 
L 352.100191 232.996532 
L 352.320296 232.301802 
L 352.375322 232.349702 
L 352.485374 231.781997 
L 352.705479 228.60462 
L 352.925584 226.279865 
L 352.98061 226.184065 
L 353.035636 226.238174 
L 353.090663 226.325991 
L 353.145689 226.206596 
L 353.255741 225.146051 
L 353.585898 221.56578 
L 353.695951 221.436094 
L 353.806003 221.613857 
L 353.861029 221.589375 
L 353.971082 221.725802 
L 354.246213 223.028154 
L 354.631396 224.364214 
L 354.741448 224.445466 
L 354.906527 224.470836 
L 355.181658 224.99756 
L 355.346737 225.005543 
L 355.621867 225.890809 
L 355.841972 227.106232 
L 356.667365 232.866669 
L 356.832444 233.48263 
L 357.217627 235.442988 
L 357.437732 235.901056 
L 357.492758 235.871429 
L 357.60281 235.877815 
L 357.767889 236.399572 
L 358.868413 242.995069 
L 358.978465 242.862546 
L 359.19857 242.455927 
L 359.63878 240.521825 
L 359.748832 240.502132 
L 359.968937 239.321482 
L 360.244068 237.907718 
L 360.35412 238.049112 
L 360.574225 239.286887 
L 360.904382 241.095207 
L 361.179513 242.511455 
L 361.674749 245.336145 
L 361.784801 245.396287 
L 361.94988 245.838387 
L 362.225011 247.482427 
L 362.775273 251.794329 
L 362.830299 251.682562 
L 362.940351 250.790377 
L 363.435587 244.054727 
L 363.600666 243.743909 
L 364.316006 239.352174 
L 364.481085 239.459683 
L 364.70119 238.956554 
L 364.921294 238.323207 
L 365.141399 238.190683 
L 365.306478 238.749519 
L 365.636635 240.244891 
L 365.801713 240.322241 
L 365.966792 239.661041 
L 366.186897 238.804515 
L 366.296949 238.845319 
L 366.462028 239.446377 
L 366.792185 240.735069 
L 366.902237 240.898639 
L 367.177368 242.006375 
L 367.287421 242.463555 
L 367.342447 242.373254 
L 367.617578 241.034001 
L 367.892709 239.168201 
L 368.057787 239.225149 
L 368.222866 239.612076 
L 368.608049 240.996214 
L 368.828154 240.723005 
L 368.993233 241.278647 
L 369.708573 244.906108 
L 369.763599 245.013618 
L 369.818626 244.957202 
L 370.203809 244.069985 
L 370.313861 244.038051 
L 370.754071 244.807115 
L 371.084228 245.865886 
L 371.414385 248.169351 
L 372.184752 253.89963 
L 372.294804 254.08715 
L 372.349831 254.031799 
L 372.955119 250.941174 
L 373.450354 249.192463 
L 374.110669 244.066436 
L 374.440826 241.506262 
L 374.605904 241.522228 
L 374.770983 241.071257 
L 375.431297 236.900572 
L 375.54135 237.065739 
L 375.761455 237.959698 
L 375.816481 237.792402 
L 375.981559 237.329545 
L 376.091612 237.534274 
L 376.366743 239.155073 
L 376.531821 239.782743 
L 376.861978 239.558499 
L 377.027057 240.261212 
L 377.192136 240.816854 
L 377.302188 240.091078 
L 377.632345 237.244921 
L 377.687371 237.19365 
L 377.742398 237.263372 
L 377.907476 237.993761 
L 378.182607 239.151703 
L 378.292659 238.873172 
L 378.402712 238.113511 
L 378.842921 233.194874 
L 379.118052 232.378442 
L 379.228105 232.575543 
L 379.44821 233.879669 
L 379.668314 234.793852 
L 379.778367 234.838914 
L 380.053498 235.648427 
L 380.273602 236.316013 
L 380.328629 236.188102 
L 380.548733 235.718858 
L 380.713812 236.060723 
L 380.988943 236.924877 
L 381.043969 236.839544 
L 381.209048 236.760065 
L 381.3191 236.990163 
L 381.649257 238.16904 
L 381.704284 238.134622 
L 381.924388 237.873655 
L 382.364598 237.649589 
L 382.639729 235.695795 
L 382.859834 234.978179 
L 382.969886 235.237018 
L 383.134965 235.570545 
L 383.300043 235.547304 
L 383.465122 236.076867 
L 384.345541 240.558371 
L 384.620672 240.432056 
L 385.115908 238.94928 
L 385.22596 238.611673 
L 385.446065 236.306256 
L 385.666169 234.756065 
L 385.776222 234.642523 
L 385.886274 234.89054 
L 386.106379 236.198037 
L 386.766693 241.265164 
L 386.82172 241.248665 
L 386.931772 241.396978 
L 387.427008 242.726474 
L 387.592086 243.102756 
L 388.197374 245.543535 
L 388.252401 245.44259 
L 388.472505 245.078726 
L 388.582558 245.278665 
L 388.802663 246.355177 
L 389.187846 248.259829 
L 389.407951 249.127709 
L 389.573029 247.872725 
L 389.84816 246.009409 
L 389.958213 245.395932 
L 390.508475 238.330126 
L 390.728579 237.831077 
L 390.838632 237.852189 
L 390.948684 238.005647 
L 391.00371 237.954731 
L 391.223815 236.761307 
L 391.664025 233.025627 
L 391.774077 233.053303 
L 392.15926 233.462938 
L 392.379365 233.561754 
L 392.544444 233.995162 
L 392.929627 236.00413 
L 393.75502 240.240278 
L 393.975125 240.107754 
L 394.305282 241.129802 
L 394.415334 240.998875 
L 394.745492 240.342997 
L 394.800518 240.413251 
L 394.965596 240.642285 
L 395.075649 240.616738 
L 395.570884 239.251761 
L 395.680937 239.309596 
L 395.846015 239.879608 
L 396.176173 241.566403 
L 396.231199 241.45091 
L 396.396277 240.437201 
L 396.671408 238.679975 
L 396.891513 238.357624 
L 397.001565 238.36206 
L 397.22167 237.930248 
L 397.331723 238.223681 
L 398.047063 241.734231 
L 398.102089 241.623351 
L 398.432247 239.703264 
L 398.487273 239.240229 
L 398.487273 239.240229 
" style="fill:none;stroke:#000000;stroke-linecap:square;stroke-width:1.5;"/>
   </g>
   <g id="line2d_17">
    <path clip-path="url(#p1676e0c254)" d="M 73.832727 254.769993 
L 73.94278 254.799088 
L 74.382989 255.843844 
L 74.548068 256.36631 
L 74.603094 256.2753 
L 74.713146 256.151647 
L 74.768173 256.196176 
L 74.933251 256.749334 
L 75.263408 258.640326 
L 75.373461 258.513479 
L 75.483513 257.660147 
L 75.758644 255.291928 
L 75.978749 254.313168 
L 76.418958 250.361404 
L 76.639063 249.97909 
L 76.859168 248.967155 
L 76.96922 249.023926 
L 77.024247 249.083712 
L 77.079273 249.013104 
L 77.189325 248.320858 
L 77.464456 246.84163 
L 77.629535 246.820341 
L 77.794613 246.870547 
L 77.904666 246.487878 
L 78.289849 244.060227 
L 78.620006 240.847368 
L 78.895137 239.922895 
L 79.00519 240.133478 
L 79.555451 242.051081 
L 79.665504 241.539792 
L 79.885609 240.269373 
L 79.995661 240.393204 
L 80.545923 241.366464 
L 80.766028 240.818096 
L 81.701473 235.249081 
L 81.921578 234.546546 
L 82.03163 234.622831 
L 82.141683 234.353526 
L 82.306761 233.888362 
L 82.361787 233.908764 
L 82.526866 234.506629 
L 82.967076 236.120864 
L 83.077128 236.319384 
L 83.132154 236.292418 
L 83.407285 235.662797 
L 83.462311 235.723648 
L 83.62739 236.185441 
L 83.682416 236.119268 
L 83.902521 235.973438 
L 84.012573 236.125299 
L 84.232678 236.479583 
L 84.34273 236.67349 
L 84.507809 236.856043 
L 84.617861 237.127477 
L 84.78294 237.476084 
L 84.892992 237.5325 
L 85.113097 238.285597 
L 85.388228 239.163944 
L 86.268647 234.784982 
L 86.3787 234.682618 
L 86.488752 235.017032 
L 86.763883 237.15054 
L 87.09404 239.496229 
L 87.314145 239.783807 
L 87.53425 240.8589 
L 87.809381 242.325886 
L 88.084512 242.513052 
L 88.139538 242.517665 
L 88.414669 241.965039 
L 88.579747 242.50773 
L 88.964931 245.136384 
L 89.185035 246.410173 
L 89.240062 246.383917 
L 89.40514 245.266956 
L 89.790324 241.859303 
L 89.900376 241.695733 
L 90.065455 242.170122 
L 91.165978 246.068486 
L 91.276031 245.638803 
L 91.661214 243.924687 
L 91.826293 243.674365 
L 91.936345 243.818952 
L 92.15645 244.678139 
L 92.211476 244.46862 
L 92.431581 243.376674 
L 92.541633 243.512923 
L 92.816764 244.242248 
L 92.926817 244.439348 
L 93.146921 245.553115 
L 93.587131 247.831212 
L 93.75221 247.829083 
L 93.917288 246.758071 
L 94.137393 245.997168 
L 94.412524 246.290778 
L 94.46755 246.159673 
L 94.962786 244.322259 
L 95.072838 244.324742 
L 95.237917 244.96483 
L 96.668598 253.978221 
L 96.723624 253.966512 
L 96.943729 253.018444 
L 97.21886 252.134952 
L 97.328912 251.723366 
L 97.659069 250.417465 
L 97.769122 250.444254 
L 98.264357 250.769443 
L 98.319384 250.671691 
L 98.539488 248.237653 
L 98.814619 246.23454 
L 99.199803 245.204509 
L 99.970169 238.834674 
L 100.575458 234.425021 
L 100.740536 234.239098 
L 100.850589 234.316093 
L 101.070693 235.046304 
L 101.12572 234.99042 
L 101.345824 233.935198 
L 102.116191 228.989063 
L 102.226243 229.261916 
L 102.556401 231.426471 
L 102.666453 231.222275 
L 102.831532 230.834638 
L 102.941584 231.008675 
L 103.161689 232.338171 
L 103.546872 234.85151 
L 103.656924 234.599768 
L 104.427291 230.970355 
L 104.482317 230.985612 
L 104.812475 231.331913 
L 105.197658 233.643362 
L 105.30771 233.470921 
L 105.472789 233.344784 
L 105.582841 233.503741 
L 105.74792 234.157313 
L 106.573313 238.863237 
L 106.793418 238.408363 
L 106.848444 238.442071 
L 107.398706 239.148509 
L 107.673837 240.914783 
L 108.224099 245.929043 
L 108.334151 245.748974 
L 108.444203 245.598 
L 108.49923 245.65069 
L 108.774361 246.362983 
L 108.884413 246.590952 
L 108.939439 246.543762 
L 109.049492 246.564873 
L 109.489701 247.515248 
L 109.544727 247.29881 
L 109.874884 245.576001 
L 109.984937 245.432301 
L 110.37012 244.701912 
L 110.480173 244.577549 
L 110.755304 241.912703 
L 111.250539 236.217552 
L 111.360592 236.30803 
L 111.855827 238.261114 
L 112.296037 240.611593 
L 112.516142 239.746374 
L 113.176456 237.417894 
L 113.341535 237.355624 
L 113.506613 237.92262 
L 113.781744 239.140348 
L 113.946823 239.076659 
L 114.332006 240.000245 
L 114.387032 239.947023 
L 114.662163 238.595351 
L 114.71719 238.60635 
L 114.937294 239.292919 
L 115.047347 239.62414 
L 115.102373 239.533839 
L 115.322478 238.658153 
L 115.762687 235.402362 
L 115.87274 235.482373 
L 116.147871 235.934054 
L 116.423002 235.778644 
L 116.753159 236.4182 
L 116.808185 236.286741 
L 117.02829 234.987582 
L 117.303421 233.363412 
L 117.413473 233.449987 
L 117.74363 234.114735 
L 117.908709 234.637379 
L 118.18384 236.652556 
L 118.844154 242.223877 
L 119.009233 242.528486 
L 119.33939 242.296259 
L 119.449442 242.552436 
L 119.669547 243.103466 
L 119.779599 242.91772 
L 119.944678 241.577402 
L 120.274835 239.077546 
L 120.384888 239.203328 
L 120.604992 240.449619 
L 120.825097 241.521341 
L 121.045202 241.354932 
L 121.375359 239.756664 
L 121.430385 239.835078 
L 121.980647 241.305258 
L 122.145726 241.33045 
L 122.255778 241.429444 
L 122.365831 241.73565 
L 122.420857 241.69733 
L 122.585935 241.074983 
L 122.916092 239.263647 
L 123.081171 239.36885 
L 123.191223 239.121543 
L 123.741485 236.243276 
L 124.016616 235.149733 
L 124.181695 235.158603 
L 124.566878 235.224067 
L 125.007088 233.742887 
L 125.227193 232.427407 
L 125.447297 231.611153 
L 125.502324 231.581881 
L 125.612376 230.888038 
L 125.887507 229.065348 
L 126.052586 228.775818 
L 126.162638 228.966 
L 127.043057 233.024385 
L 127.703371 238.062063 
L 127.86845 238.596238 
L 128.363686 241.318919 
L 128.473738 241.180895 
L 128.638817 241.095739 
L 128.803895 241.578289 
L 128.913948 242.133221 
L 128.968974 242.018438 
L 129.354157 238.815692 
L 129.519236 238.76584 
L 129.684314 238.652831 
L 129.739341 238.617704 
L 130.069498 237.716827 
L 130.234576 237.729777 
L 130.399655 238.09506 
L 131.004943 240.166831 
L 131.114995 239.961925 
L 131.445153 238.128591 
L 131.555205 238.254195 
L 131.665257 238.528291 
L 131.720284 238.470456 
L 131.830336 238.356028 
L 131.885362 238.416169 
L 132.380598 239.552822 
L 132.49065 239.235971 
L 132.820807 238.144025 
L 132.93086 237.877026 
L 133.150965 237.148411 
L 133.261017 237.355979 
L 135.076881 244.578613 
L 135.186934 244.702976 
L 135.352012 245.365773 
L 135.682169 247.002716 
L 135.737196 246.974153 
L 135.902274 246.86966 
L 136.012327 247.017973 
L 136.067353 246.963864 
L 136.782693 245.339161 
L 137.057824 244.303276 
L 137.222903 244.142544 
L 137.443008 244.239054 
L 137.718139 243.542018 
L 138.048296 241.030276 
L 138.158348 241.165638 
L 138.213374 241.293549 
L 138.268401 241.221876 
L 138.488505 239.992794 
L 138.70861 238.336158 
L 138.928715 236.62559 
L 139.093794 236.233696 
L 139.258872 235.264338 
L 139.534003 233.153006 
L 139.644055 233.101912 
L 139.699082 233.175537 
L 139.754108 233.127459 
L 139.919186 233.119121 
L 140.029239 233.302206 
L 140.139291 233.64549 
L 140.194317 233.60859 
L 140.359396 233.171279 
L 140.414422 233.212438 
L 140.579501 233.962341 
L 140.854632 236.267048 
L 140.909658 236.239728 
L 141.294841 233.66128 
L 141.624998 231.425229 
L 141.900129 229.793963 
L 142.230287 229.46629 
L 142.560444 229.956823 
L 142.61547 229.818977 
L 142.835575 228.206693 
L 143.110706 226.787607 
L 143.220758 226.746271 
L 143.495889 226.458338 
L 143.605941 226.450177 
L 143.826046 227.023914 
L 144.046151 228.470499 
L 144.816518 234.76529 
L 145.036622 236.159362 
L 145.476832 239.622543 
L 145.531858 239.594335 
L 145.696937 238.758389 
L 146.137146 236.239905 
L 146.467304 235.225131 
L 146.632382 234.893911 
L 146.852487 235.246065 
L 147.072592 236.020274 
L 147.622854 238.996116 
L 147.67788 238.954957 
L 147.953011 238.469037 
L 148.283168 237.599205 
L 148.448247 237.656685 
L 148.613325 238.012034 
L 148.83343 238.602447 
L 148.943482 238.271049 
L 149.218613 235.763387 
L 149.438718 234.806094 
L 149.54877 234.825254 
L 149.823901 234.119525 
L 149.933954 234.362574 
L 150.814373 237.485487 
L 151.419661 237.71452 
L 151.529713 237.19436 
L 152.024949 233.777482 
L 152.190028 233.085059 
L 152.410133 232.106121 
L 152.520185 232.144619 
L 152.685263 232.827817 
L 153.290552 236.387331 
L 153.785787 239.983923 
L 154.281023 243.143737 
L 154.336049 243.106482 
L 154.446102 242.733038 
L 154.886311 240.32845 
L 154.996364 240.375995 
L 155.216468 241.140446 
L 155.546626 242.490166 
L 155.711704 242.324467 
L 156.041861 241.106561 
L 156.151914 241.317677 
L 156.482071 242.599272 
L 156.537097 242.523696 
L 156.702176 241.632753 
L 156.977307 239.977892 
L 157.087359 240.014615 
L 157.307464 240.797871 
L 157.582595 241.590175 
L 157.912752 241.36469 
L 158.077831 241.832692 
L 158.242909 242.44475 
L 158.297935 242.37627 
L 158.463014 242.029793 
L 158.683119 241.708861 
L 158.793171 241.729973 
L 159.013276 241.5091 
L 159.068302 241.550081 
L 159.178354 241.164396 
L 159.453485 240.18404 
L 159.728616 239.856545 
L 159.893695 239.835965 
L 160.223852 238.794935 
L 161.26935 234.649442 
L 161.544481 231.734451 
L 161.929664 225.813459 
L 162.204795 224.607617 
L 162.314847 224.807379 
L 162.534952 225.542912 
L 162.589978 225.500867 
L 162.755057 224.985142 
L 163.030188 221.343665 
L 163.305319 218.679884 
L 163.415371 218.524829 
L 163.470398 218.559956 
L 163.635476 219.057408 
L 164.240764 221.690852 
L 164.625948 225.382713 
L 164.901079 227.494932 
L 165.396314 228.949146 
L 165.451341 228.917035 
L 165.616419 228.512367 
L 166.111655 227.025156 
L 166.166681 227.116521 
L 166.606891 228.801542 
L 166.937048 230.100524 
L 167.652388 234.028869 
L 167.817467 233.894394 
L 168.312703 232.960696 
L 168.862965 229.406681 
L 169.138096 228.086588 
L 169.468253 227.504335 
L 169.578305 227.653358 
L 169.79841 228.418341 
L 170.183593 230.982596 
L 170.403698 232.017417 
L 170.678829 232.250531 
L 170.733855 232.155263 
L 170.95396 231.855621 
L 171.064012 231.817833 
L 171.284117 229.052752 
L 171.559248 227.111731 
L 171.834379 224.977513 
L 172.219562 221.941885 
L 172.384641 221.580505 
L 172.494693 221.757203 
L 172.659772 222.022783 
L 172.824851 221.958206 
L 172.934903 222.157968 
L 173.485165 223.717384 
L 173.760296 224.108923 
L 173.925374 224.032283 
L 174.035427 224.223529 
L 174.255532 224.746528 
L 174.42061 224.67929 
L 174.530663 224.855456 
L 174.750767 225.876262 
L 175.301029 229.022948 
L 175.57616 229.927906 
L 175.796265 230.70655 
L 175.961344 230.699453 
L 176.401553 230.274384 
L 176.456579 230.349072 
L 176.566632 229.752272 
L 176.841763 225.663905 
L 177.226946 218.652386 
L 177.88726 213.46125 
L 177.942287 213.540551 
L 178.217418 214.441252 
L 178.272444 214.35716 
L 178.76768 212.858063 
L 178.932758 211.346724 
L 179.152863 205.86801 
L 179.372968 196.630198 
L 179.48302 186.333793 
L 179.538046 171.542046 
L 179.593072 95.542765 
L 179.648099 162.435871 
L 179.813177 211.993554 
L 179.978256 215.905755 
L 180.088308 215.36608 
L 180.418465 211.772858 
L 181.133806 200.851622 
L 181.298884 194.696806 
L 181.408937 182.195042 
L 181.518989 105.953776 
L 181.684068 204.572222 
L 181.849146 213.478459 
L 181.959199 213.925882 
L 182.124277 213.635642 
L 182.344382 211.969071 
L 182.729565 209.384769 
L 182.894644 208.632027 
L 183.114749 206.450973 
L 183.665011 197.716467 
L 183.775063 192.120487 
L 183.885116 174.881574 
L 183.940142 120.614241 
L 183.995168 141.858317 
L 184.160247 205.623542 
L 184.325325 212.880948 
L 184.435378 213.287745 
L 184.820561 210.408768 
L 185.095692 204.351704 
L 185.370823 193.204982 
L 185.480875 178.769648 
L 185.590928 123.999186 
L 185.756006 206.048789 
L 185.976111 216.626386 
L 186.306268 219.351018 
L 186.41632 218.848599 
L 186.911556 215.651529 
L 187.021609 215.137933 
L 187.186687 212.818323 
L 187.516844 203.543433 
L 187.681923 194.195273 
L 187.791975 172.53216 
L 187.847002 87.572356 
L 187.902028 163.777962 
L 188.067106 215.087727 
L 188.232185 218.653805 
L 188.342237 217.5152 
L 188.617368 210.749746 
L 188.782447 203.69973 
L 188.892499 193.291735 
L 188.947525 180.51623 
L 189.002552 73.309817 
L 189.057578 138.378459 
L 189.222656 220.482349 
L 189.332709 223.976222 
L 189.497787 220.482881 
L 189.882971 213.083371 
L 190.32318 209.147575 
L 190.488259 207.202118 
L 190.708364 201.701406 
L 190.873442 192.745318 
L 190.983495 171.093559 
L 191.038521 94.220011 
L 191.093547 162.831668 
L 191.258626 212.840145 
L 191.423704 218.419271 
L 191.47873 218.501944 
L 191.588783 218.016023 
L 191.808888 214.647223 
L 192.084018 205.927265 
L 192.249097 196.360716 
L 192.359149 177.611883 
L 192.414176 87.027358 
L 192.469202 147.484634 
L 192.63428 218.174981 
L 192.799359 223.386518 
L 193.019464 221.04491 
L 193.789831 210.218232 
L 194.009935 203.449584 
L 194.175014 191.63776 
L 194.23004 181.654657 
L 194.340092 123.510781 
L 194.505171 215.512796 
L 194.67025 221.264009 
L 194.890354 217.2647 
L 195.275538 211.294034 
L 195.495643 208.897074 
L 195.935852 199.702373 
L 196.100931 187.393806 
L 196.155957 174.65254 
L 196.210983 104.843202 
L 196.266009 149.823049 
L 196.431088 211.162929 
L 196.596166 218.503363 
L 196.761245 219.622985 
L 196.871297 219.108147 
L 197.091402 214.932672 
L 197.531612 202.427537 
L 197.751716 190.452497 
L 197.861769 163.08341 
L 197.916795 103.176454 
L 198.081874 205.618929 
L 198.246952 214.52694 
L 198.301978 214.379159 
L 198.467057 210.866835 
L 198.742188 198.524206 
L 198.85224 186.991444 
L 198.907267 167.402053 
L 198.962293 83.84253 
L 199.127371 210.853352 
L 199.29245 222.54862 
L 199.457529 223.634712 
L 199.622607 222.757429 
L 200.558052 212.170962 
L 200.833183 203.950762 
L 200.998262 193.569733 
L 201.108314 168.865491 
L 201.163341 88.213508 
L 201.328419 210.903559 
L 201.493498 220.167095 
L 201.60355 219.107082 
L 201.933707 211.300953 
L 202.208838 199.425439 
L 202.318891 189.430095 
L 202.373917 176.254535 
L 202.428943 87.925398 
L 202.483969 152.144078 
L 202.649048 217.59255 
L 202.814126 222.566006 
L 202.924179 221.479559 
L 203.529467 212.456766 
L 203.749572 209.157332 
L 204.134755 196.60678 
L 204.244807 187.917691 
L 204.299834 177.667767 
L 204.409886 132.934162 
L 204.574965 208.505003 
L 204.740043 216.9129 
L 204.905122 217.928916 
L 205.0702 217.119403 
L 205.730515 211.808162 
L 205.895593 210.417461 
L 206.115698 206.264162 
L 206.335803 197.539059 
L 206.445855 186.646208 
L 206.500881 170.012257 
L 206.555908 88.266199 
L 206.610934 167.644215 
L 206.776012 215.087549 
L 206.941091 220.876727 
L 206.996117 221.017766 
L 207.051143 220.919128 
L 207.491353 218.920094 
L 207.766484 216.109774 
L 208.26172 208.878092 
L 208.481824 202.636346 
L 208.646903 189.980946 
L 208.701929 176.919282 
L 208.756955 87.658931 
L 208.811982 149.770004 
L 208.97706 216.570503 
L 209.087112 220.814102 
L 209.142139 220.620018 
L 209.362243 216.788714 
L 209.802453 204.063771 
L 209.967532 192.499963 
L 210.022558 183.37037 
L 210.13261 111.946441 
L 210.297689 215.663238 
L 210.462767 223.46511 
L 210.517794 223.481609 
L 210.737898 221.724205 
L 211.068055 219.932384 
L 211.398213 218.25783 
L 211.838422 214.645626 
L 211.948475 214.827292 
L 212.223606 215.37566 
L 212.44371 215.433495 
L 212.718841 214.199622 
L 212.938946 212.02531 
L 213.159051 207.429023 
L 213.324129 200.217565 
L 213.434182 188.498348 
L 213.489208 168.829478 
L 213.544234 80.355576 
L 213.709313 213.071662 
L 213.874391 221.842181 
L 213.929418 221.82036 
L 214.149522 220.430546 
L 214.644758 212.64677 
L 215.139994 201.923166 
L 215.305072 194.220998 
L 215.415125 178.33074 
L 215.470151 127.576618 
L 215.525177 133.022866 
L 215.690256 210.554065 
L 215.855334 217.289537 
L 215.910361 217.316148 
L 216.075439 216.179318 
L 216.515649 212.960605 
L 216.79078 211.659849 
L 217.341042 206.16233 
L 217.50612 200.59438 
L 217.671199 185.228541 
L 217.781251 94.02912 
L 217.94633 210.57358 
L 218.111408 219.625468 
L 218.166435 219.86284 
L 218.221461 219.715237 
L 218.496592 217.218574 
L 218.826749 215.210493 
L 218.991827 214.505651 
L 219.211932 211.902011 
L 219.597116 203.572528 
L 219.872247 195.197451 
L 219.982299 186.358098 
L 220.037325 175.151767 
L 220.092351 126.516428 
L 220.147378 141.837028 
L 220.312456 205.519581 
L 220.477535 212.414898 
L 220.532561 212.595499 
L 220.587587 212.442218 
L 220.752666 210.164122 
L 220.97277 202.519079 
L 221.137849 190.369825 
L 221.192875 179.052791 
L 221.247901 104.882941 
L 221.302928 133.576911 
L 221.468006 214.663012 
L 221.633085 222.217399 
L 221.688111 222.318877 
L 221.85319 221.053071 
L 222.238373 215.433672 
L 223.228844 195.369714 
L 223.338897 188.489123 
L 223.448949 160.694256 
L 223.503975 111.336157 
L 223.669054 199.550334 
L 223.834133 209.212683 
L 223.889159 209.640946 
L 223.944185 209.467619 
L 224.054237 207.696554 
L 224.329368 197.676728 
L 224.439421 188.381436 
L 224.494447 176.293919 
L 224.549473 103.259658 
L 224.604499 140.650878 
L 224.769578 210.852288 
L 224.934656 217.91969 
L 224.989683 217.951624 
L 225.154761 216.373225 
L 225.925128 205.426619 
L 226.090206 198.599072 
L 226.200259 187.457672 
L 226.255285 169.686358 
L 226.310311 83.431298 
L 226.365337 169.424149 
L 226.530416 216.675528 
L 226.640468 220.16195 
L 226.695495 219.98951 
L 226.970626 215.585888 
L 227.410835 210.022373 
L 227.685966 208.407428 
L 227.796018 208.163492 
L 228.016123 205.313255 
L 228.236228 198.814623 
L 228.34628 191.128244 
L 228.401307 182.622772 
L 228.511359 107.089187 
L 228.676438 208.797549 
L 228.841516 217.07647 
L 228.896542 217.206333 
L 229.006595 216.630467 
L 229.391778 211.711652 
L 229.666909 204.793273 
L 229.831988 196.096555 
L 229.94204 179.000633 
L 229.997066 102.848781 
L 230.052092 137.67681 
L 230.217171 214.821792 
L 230.38225 220.173127 
L 230.492302 219.809973 
L 230.712407 217.823358 
L 231.317695 212.963798 
L 232.033035 202.055512 
L 232.198114 193.14697 
L 232.308166 172.101236 
L 232.363193 92.7752 
L 232.418219 160.420871 
L 232.583297 212.290002 
L 232.748376 217.332825 
L 232.803402 217.155772 
L 232.968481 213.386739 
L 233.353664 199.516272 
L 233.463716 191.45361 
L 233.518743 182.753699 
L 233.628795 109.03695 
L 233.793874 212.346241 
L 233.958952 222.048329 
L 234.069005 222.607697 
L 234.234083 221.263476 
L 235.00445 212.39077 
L 235.444659 209.039888 
L 235.499686 209.086369 
L 235.664764 209.613093 
L 235.994921 211.697105 
L 236.380105 214.174608 
L 236.765288 214.689623 
L 237.700733 218.275571 
L 237.75576 218.257653 
L 238.030891 217.627677 
L 238.140943 217.872855 
L 238.416074 219.515121 
L 238.526126 219.272604 
L 239.021362 216.617871 
L 239.62665 208.943023 
L 239.901781 202.376976 
L 240.06686 194.831104 
L 240.176912 180.791922 
L 240.286965 118.92922 
L 240.452043 209.163186 
L 240.617122 216.62337 
L 240.727174 216.952994 
L 241.002305 216.375354 
L 241.112357 216.167786 
L 241.277436 217.119403 
L 241.662619 219.97372 
L 241.717646 219.953318 
L 241.882724 219.037183 
L 242.157855 217.652514 
L 242.37796 217.512362 
L 242.598065 217.490186 
L 242.763143 215.739524 
L 243.038274 212.976926 
L 243.0933 212.947122 
L 243.203353 213.239845 
L 243.478484 214.013521 
L 243.808641 214.338178 
L 244.083772 214.604645 
L 244.248851 214.75278 
L 244.413929 215.340533 
L 244.68906 217.396337 
L 245.954663 228.658197 
L 246.229794 228.97079 
L 246.449898 230.054043 
L 246.945134 232.688729 
L 247.385344 234.145426 
L 247.495396 234.09043 
L 247.825553 232.674714 
L 248.045658 231.890925 
L 248.15571 231.908666 
L 248.375815 232.146393 
L 248.430841 232.097428 
L 248.59592 230.845637 
L 249.091156 226.724272 
L 249.476339 225.732029 
L 249.641418 225.657695 
L 249.971575 224.726481 
L 250.19168 224.986029 
L 250.246706 224.855456 
L 250.686915 222.043894 
L 250.851994 220.673595 
L 251.732413 212.188702 
L 251.787439 212.245828 
L 251.952518 213.005134 
L 252.447753 216.629402 
L 252.50278 216.592146 
L 252.612832 216.594808 
L 252.722884 216.846017 
L 253.053042 218.658772 
L 253.438225 221.404871 
L 254.043513 227.924792 
L 254.318644 229.573799 
L 254.483723 229.679712 
L 254.648801 230.216549 
L 254.978958 232.483468 
L 255.364142 235.1602 
L 255.474194 234.934892 
L 255.914404 233.195761 
L 256.079482 233.497887 
L 256.189535 232.8947 
L 256.574718 229.700824 
L 256.739797 229.348491 
L 256.904875 229.287463 
L 257.014928 229.229983 
L 257.510163 227.536801 
L 257.56519 227.554542 
L 257.730268 228.07896 
L 257.895347 228.369554 
L 258.060425 228.327331 
L 258.115451 228.176002 
L 258.170478 228.254948 
L 258.500635 230.087218 
L 258.610687 229.839557 
L 258.775766 228.518399 
L 259.381054 221.060522 
L 259.601159 219.588568 
L 259.87629 217.738202 
L 259.986342 217.808101 
L 260.151421 218.658063 
L 260.316499 219.521862 
L 260.481578 219.447883 
L 260.59163 219.51583 
L 261.086866 216.794037 
L 261.141892 216.924432 
L 261.196918 217.004975 
L 261.251945 216.937028 
L 261.472049 216.606871 
L 261.802206 217.142289 
L 262.077337 218.234945 
L 263.232888 224.967401 
L 263.287914 224.868584 
L 264.003254 220.710673 
L 264.278385 220.193706 
L 264.388438 220.354083 
L 264.608542 220.782878 
L 264.9387 219.772362 
L 264.993726 219.789748 
L 265.158804 219.75675 
L 265.323883 219.525055 
L 265.543988 218.805666 
L 265.764092 216.278312 
L 266.314354 205.484454 
L 266.644512 195.788397 
L 266.754564 187.643064 
L 266.80959 178.027728 
L 266.919643 128.337698 
L 267.084721 205.635251 
L 267.2498 214.020263 
L 267.414878 215.246862 
L 267.634983 215.807648 
L 267.855088 217.455236 
L 268.460376 222.880196 
L 270.441319 237.739712 
L 270.71645 237.915169 
L 270.826502 237.70086 
L 271.321738 235.741211 
L 271.486817 235.501356 
L 271.651895 235.948956 
L 271.982052 237.928297 
L 272.147131 238.419362 
L 272.367236 238.684055 
L 272.642367 237.893702 
L 272.752419 237.109914 
L 273.137602 234.979776 
L 273.412733 234.168667 
L 273.522786 234.284159 
L 273.687864 235.120461 
L 274.128074 239.193571 
L 274.403205 240.809048 
L 274.678336 242.012939 
L 275.008493 244.26265 
L 275.063519 244.070339 
L 275.228598 241.659542 
L 275.723834 232.309608 
L 275.943938 231.156988 
L 276.109017 231.490515 
L 276.219069 231.692938 
L 276.604253 230.439018 
L 276.714305 230.610394 
L 276.989436 231.610621 
L 277.044462 231.595009 
L 277.154515 230.98987 
L 277.429646 229.218983 
L 277.484672 229.159374 
L 277.594724 228.455952 
L 278.144986 223.982964 
L 278.255039 224.063684 
L 278.420117 224.613117 
L 278.475143 224.552798 
L 278.695248 224.223529 
L 278.860327 224.685677 
L 279.135458 226.114343 
L 279.850798 230.869765 
L 280.180955 233.630588 
L 281.336505 244.607886 
L 281.55661 244.78689 
L 281.666663 244.813501 
L 282.161898 245.331888 
L 282.382003 245.407818 
L 282.547082 245.797761 
L 283.372475 248.532683 
L 283.537553 248.57668 
L 283.647606 248.531441 
L 283.757658 247.613 
L 284.197867 242.774729 
L 284.417972 242.175799 
L 284.528025 242.293066 
L 284.748129 243.229071 
L 284.968234 244.520601 
L 285.02326 244.483168 
L 285.518496 241.738311 
L 285.628549 241.951556 
L 285.738601 242.320564 
L 285.793627 242.303178 
L 285.958706 241.304726 
L 286.288863 239.019534 
L 286.508968 238.160169 
L 286.784099 237.900444 
L 287.05923 237.262662 
L 287.499439 237.785129 
L 287.664518 237.60914 
L 287.719544 237.662717 
L 287.884622 238.297483 
L 288.104727 239.082868 
L 288.654989 238.320191 
L 288.710015 238.367027 
L 288.875094 238.885768 
L 289.150225 240.785808 
L 289.480382 242.840547 
L 289.810539 244.185477 
L 290.030644 245.039874 
L 290.52588 246.564164 
L 290.690958 246.463218 
L 290.856037 245.798116 
L 291.406299 243.227297 
L 291.956561 241.189056 
L 292.39677 241.011471 
L 292.506823 241.205732 
L 292.947032 240.561919 
L 293.057085 240.644413 
L 293.222163 240.868302 
L 293.55232 240.121415 
L 293.717399 240.64672 
L 294.652844 245.725556 
L 294.707871 245.687058 
L 294.927975 245.366305 
L 295.038028 245.503264 
L 295.313159 246.060502 
L 295.478237 245.592323 
L 295.918447 243.453137 
L 296.138552 243.694944 
L 296.248604 243.950944 
L 296.30363 243.892754 
L 296.688814 242.741908 
L 296.853892 242.527599 
L 296.963945 242.640963 
L 297.129023 243.198024 
L 297.514206 245.815857 
L 297.624259 246.383917 
L 297.679285 246.307986 
L 298.284573 244.738458 
L 298.339599 244.783519 
L 298.504678 245.328339 
L 298.834835 246.627853 
L 298.999914 246.915786 
L 299.220018 247.835114 
L 299.605202 249.50133 
L 299.880333 249.069519 
L 300.045411 249.525103 
L 300.375569 250.268443 
L 300.595673 250.295054 
L 300.760752 249.496008 
L 301.255988 246.891127 
L 301.36604 246.93264 
L 301.531119 247.558358 
L 301.916302 250.352534 
L 302.081381 251.049925 
L 302.301485 250.459156 
L 302.52159 249.550472 
L 302.796721 247.934286 
L 302.906773 247.883902 
L 303.071852 248.255571 
L 303.126878 248.216719 
L 303.457035 247.581421 
L 303.622114 247.357 
L 303.787193 246.938849 
L 304.447507 241.600288 
L 304.777664 239.571627 
L 305.052795 239.05058 
L 305.327926 237.519017 
L 305.493005 237.163491 
L 305.603057 237.466327 
L 305.823162 238.988842 
L 306.538502 244.838693 
L 307.033738 242.940073 
L 307.14379 243.122094 
L 307.363895 244.12782 
L 307.584 245.174882 
L 307.749079 245.072872 
L 307.914157 244.954186 
L 308.189288 245.145964 
L 308.299341 244.684703 
L 308.574471 243.593289 
L 308.849602 242.739425 
L 309.014681 242.906898 
L 309.564943 243.921494 
L 309.619969 243.831726 
L 310.060179 242.431089 
L 310.170231 242.598385 
L 310.390336 243.699557 
L 310.720493 245.074823 
L 310.830545 245.058679 
L 310.940598 244.760456 
L 311.380807 243.099918 
L 311.710965 243.354143 
L 312.041122 244.355079 
L 312.096148 244.305582 
L 312.2062 243.485248 
L 312.591384 238.926572 
L 312.756462 238.465843 
L 312.866515 238.642542 
L 313.306724 239.988181 
L 313.416777 239.758615 
L 313.581855 238.789081 
L 313.912012 236.881412 
L 314.022065 236.827126 
L 314.297196 237.644799 
L 314.572327 238.776839 
L 314.627353 238.589674 
L 314.902484 237.602398 
L 315.012536 237.81582 
L 315.39772 239.275001 
L 315.507772 238.782339 
L 315.727877 237.997841 
L 315.837929 238.232019 
L 316.058034 239.613496 
L 316.718348 246.032649 
L 317.818872 256.544428 
L 317.928924 256.987593 
L 318.094003 256.072878 
L 318.479186 252.913951 
L 318.809344 250.277668 
L 319.469658 246.735185 
L 319.524684 246.81147 
L 319.744789 247.749604 
L 320.01992 249.013281 
L 320.129972 248.87508 
L 320.460129 248.154981 
L 320.515156 248.183899 
L 320.625208 248.301165 
L 320.73526 247.691414 
L 321.230496 243.206008 
L 321.450601 242.494601 
L 321.560653 242.610094 
L 321.725732 243.342967 
L 322.000863 244.925978 
L 322.055889 244.892625 
L 322.165941 244.678139 
L 322.386046 244.182461 
L 322.496099 244.441654 
L 322.936308 246.074872 
L 323.046361 245.896755 
L 323.651649 243.21062 
L 323.981806 240.71857 
L 324.091858 240.633059 
L 324.477042 239.295758 
L 325.137356 234.560029 
L 325.192382 234.594623 
L 325.302435 234.626557 
L 325.577565 234.364348 
L 325.742644 234.07127 
L 326.017775 233.412909 
L 326.292906 232.936036 
L 326.347932 232.97542 
L 326.678089 233.966776 
L 327.118299 235.647717 
L 327.778613 237.385428 
L 328.10877 238.918766 
L 328.218823 238.864479 
L 328.328875 238.902267 
L 328.493954 239.461279 
L 328.659032 239.933007 
L 328.714059 239.901429 
L 328.98919 239.036742 
L 329.099242 239.237923 
L 329.319347 240.418573 
L 329.979661 244.404044 
L 330.474897 246.83205 
L 330.639975 245.575114 
L 331.355316 239.020066 
L 331.465368 238.908654 
L 331.575421 238.970569 
L 331.795525 238.426991 
L 331.850552 238.451118 
L 332.785997 240.52555 
L 332.951076 240.909106 
L 333.17118 240.716796 
L 333.281233 240.973505 
L 333.501337 242.25581 
L 333.996573 246.996152 
L 334.491809 251.502493 
L 334.656888 251.680788 
L 334.76694 251.329342 
L 335.317202 247.645111 
L 335.372228 247.706671 
L 335.592333 248.368403 
L 335.757411 248.69714 
L 335.867464 248.715058 
L 336.087569 249.033683 
L 336.252647 248.277925 
L 336.472752 247.40561 
L 336.582804 247.440737 
L 336.747883 247.765216 
L 336.802909 247.741443 
L 336.967988 247.382902 
L 337.738354 242.370948 
L 337.903433 241.798275 
L 338.013485 242.025002 
L 338.23359 242.571774 
L 338.508721 241.959894 
L 338.563747 242.005133 
L 338.838878 241.94783 
L 339.003957 242.061726 
L 339.38914 243.059114 
L 339.444166 243.0231 
L 339.719297 242.627125 
L 339.994428 241.809984 
L 340.104481 242.032099 
L 340.159507 241.940556 
L 340.434638 241.245649 
L 340.654743 241.20112 
L 340.764795 241.217796 
L 340.929874 241.671428 
L 341.315057 243.325758 
L 341.370083 243.222684 
L 341.865319 240.070321 
L 342.085424 238.811611 
L 342.360555 237.046757 
L 342.470607 237.163491 
L 343.075895 239.058031 
L 343.185948 238.948748 
L 343.406052 238.619124 
L 343.956314 239.131655 
L 344.066367 239.119769 
L 344.176419 239.142122 
L 344.45155 238.378204 
L 344.89176 239.136268 
L 345.001812 239.165008 
L 345.166891 239.623608 
L 345.221917 239.536855 
L 345.497048 238.074659 
L 345.552074 238.084416 
L 345.662126 238.425039 
L 345.937257 240.53992 
L 346.322441 243.132738 
L 346.432493 243.474071 
L 346.487519 243.416768 
L 346.76265 242.886141 
L 347.257886 240.652397 
L 347.367938 240.615851 
L 347.533017 240.947959 
L 347.588043 240.809048 
L 347.753122 240.469134 
L 347.808148 240.521647 
L 347.9182 239.975585 
L 348.853646 232.543964 
L 349.183803 230.545108 
L 349.403908 229.043172 
L 349.458934 229.002723 
L 349.51396 229.088234 
L 350.064222 230.771303 
L 350.174274 230.885199 
L 350.2293 230.839251 
L 350.614484 230.047301 
L 350.779562 230.094669 
L 351.219772 231.170826 
L 351.439877 231.670052 
L 351.604955 231.423455 
L 351.659982 231.45805 
L 351.82506 232.06585 
L 351.990139 232.645619 
L 352.100191 232.359637 
L 352.320296 231.665617 
L 352.375322 231.712453 
L 352.485374 231.146167 
L 352.705479 227.968612 
L 352.925584 225.617424 
L 352.98061 225.51293 
L 353.035636 225.559056 
L 353.090663 225.639954 
L 353.200715 225.160066 
L 353.640924 220.640952 
L 353.695951 220.628711 
L 353.806003 220.777911 
L 353.861029 220.74172 
L 353.971082 220.853664 
L 354.191186 221.789314 
L 354.521344 223.060797 
L 354.741448 223.508752 
L 354.906527 223.530041 
L 355.181658 224.051798 
L 355.346737 224.056588 
L 355.621867 224.938306 
L 355.841972 226.158163 
L 356.667365 232.009079 
L 356.832444 232.642248 
L 357.217627 234.642169 
L 357.437732 235.12117 
L 357.492758 235.097043 
L 357.60281 235.113187 
L 357.767889 235.645588 
L 358.868413 242.297324 
L 358.978465 242.173848 
L 359.19857 241.782308 
L 359.63878 239.875705 
L 359.748832 239.861157 
L 359.968937 238.695941 
L 360.244068 237.299386 
L 360.35412 237.445038 
L 360.574225 238.690619 
L 360.904382 240.514551 
L 361.179513 241.941798 
L 361.674749 244.781036 
L 361.784801 244.844548 
L 361.94988 245.289665 
L 362.225011 246.937253 
L 362.775273 251.262105 
L 362.830299 251.153709 
L 362.940351 250.268975 
L 363.435587 243.564727 
L 363.600666 243.260117 
L 364.316006 238.894106 
L 364.481085 239.003922 
L 364.70119 238.505228 
L 364.921294 237.875784 
L 365.141399 237.745744 
L 365.306478 238.304934 
L 365.636635 239.802612 
L 365.801713 239.882623 
L 365.966792 239.224617 
L 366.186897 238.370043 
L 366.296949 238.410314 
L 366.462028 239.009954 
L 366.792185 240.296871 
L 366.902237 240.459554 
L 367.177368 241.562855 
L 367.287421 242.018971 
L 367.342447 241.929202 
L 367.617578 240.592078 
L 367.892709 238.726456 
L 368.057787 238.780565 
L 368.222866 239.164476 
L 368.608049 240.544178 
L 368.828154 240.272389 
L 368.993233 240.826966 
L 369.708573 244.451234 
L 369.763599 244.558921 
L 369.818626 244.503392 
L 370.203809 243.62132 
L 370.313861 243.590273 
L 370.754071 244.36395 
L 371.084228 245.428043 
L 371.414385 247.736476 
L 372.184752 253.487156 
L 372.294804 253.679289 
L 372.349831 253.626599 
L 372.955119 250.566843 
L 373.450354 248.83605 
L 374.110669 243.732022 
L 374.440826 241.179653 
L 374.605904 241.197217 
L 374.770983 240.748907 
L 375.431297 236.584077 
L 375.54135 236.748356 
L 375.761455 237.640009 
L 375.816481 237.473068 
L 375.981559 237.010388 
L 376.091612 237.213698 
L 376.366743 238.82953 
L 376.531821 239.455248 
L 376.861978 239.227633 
L 377.027057 239.926798 
L 377.192136 240.479956 
L 377.302188 239.75418 
L 377.632345 236.906427 
L 377.687371 236.853914 
L 377.742398 236.922394 
L 377.907476 237.649234 
L 378.182607 238.804515 
L 378.292659 238.526517 
L 378.402712 237.767743 
L 378.842921 232.848396 
L 379.118052 232.024514 
L 379.228105 232.217888 
L 379.44821 233.51545 
L 379.668314 234.428037 
L 379.778367 234.473276 
L 380.053498 235.282079 
L 380.273602 235.949488 
L 380.328629 235.822287 
L 380.548733 235.354639 
L 380.713812 235.69615 
L 380.988943 236.560481 
L 381.043969 236.476035 
L 381.209048 236.397621 
L 381.3191 236.628074 
L 381.649257 237.808901 
L 381.704284 237.775549 
L 381.924388 237.51742 
L 382.364598 237.297612 
L 382.639729 235.349139 
L 382.859834 234.632766 
L 382.969886 234.891249 
L 383.134965 235.225309 
L 383.300043 235.202778 
L 383.465122 235.731809 
L 384.345541 240.22165 
L 384.620672 240.101013 
L 385.115908 238.627817 
L 385.22596 238.291983 
L 385.446065 235.991002 
L 385.666169 234.441875 
L 385.776222 234.327802 
L 385.886274 234.575286 
L 386.106379 235.881718 
L 386.766693 240.951684 
L 386.82172 240.93625 
L 386.931772 241.085805 
L 387.427008 242.417784 
L 387.592086 242.794066 
L 388.197374 245.234668 
L 388.252401 245.134078 
L 388.472505 244.771456 
L 388.582558 244.971572 
L 388.802663 246.047906 
L 389.187846 247.955929 
L 389.407951 248.82718 
L 389.573029 247.577873 
L 389.84816 245.721476 
L 389.958213 245.110305 
L 390.508475 238.057982 
L 390.728579 237.558934 
L 390.838632 237.579868 
L 390.948684 237.733148 
L 391.00371 237.682409 
L 391.223815 236.49005 
L 391.664025 232.751532 
L 391.774077 232.776369 
L 392.15926 233.178198 
L 392.379365 233.273288 
L 392.544444 233.703325 
L 392.929627 235.704488 
L 393.75502 239.927863 
L 393.975125 239.793387 
L 394.305282 240.810467 
L 394.415334 240.678476 
L 394.745492 240.019582 
L 394.800518 240.089126 
L 394.965596 240.317096 
L 395.075649 240.291549 
L 395.570884 238.927991 
L 395.680937 238.985649 
L 395.846015 239.554596 
L 396.176173 241.241924 
L 396.231199 241.127495 
L 396.396277 240.118044 
L 396.671408 238.36614 
L 396.891513 238.046628 
L 397.001565 238.052128 
L 397.22167 237.623155 
L 397.331723 237.917475 
L 398.047063 241.433879 
L 398.102089 241.323886 
L 398.432247 239.40788 
L 398.487273 238.945554 
L 398.487273 238.945554 
" style="fill:none;stroke:#ff0000;stroke-linecap:square;stroke-width:1.5;"/>
   </g>
   <g id="line2d_18">
    <path clip-path="url(#p1676e0c254)" d="M 343.461079 245.4912 
L 398.37722 245.4912 
L 398.37722 245.4912 
" style="fill:none;stroke:#000000;stroke-linecap:square;stroke-width:1.5;"/>
   </g>
   <g id="line2d_19">
    <path clip-path="url(#p1676e0c254)" d="M 343.461079 218.88 
L 343.461079 217.10592 
L 343.461079 215.33184 
L 343.461079 213.55776 
L 343.461079 211.78368 
L 343.461079 210.0096 
L 343.461079 208.23552 
L 343.461079 206.46144 
L 343.461079 204.68736 
L 343.461079 202.91328 
L 343.461079 201.1392 
L 343.461079 199.36512 
L 343.461079 197.59104 
L 343.461079 195.81696 
L 343.461079 194.04288 
L 343.461079 192.2688 
L 343.461079 190.49472 
L 343.461079 188.72064 
L 343.461079 186.94656 
L 343.461079 185.17248 
" style="fill:none;stroke:#000000;stroke-linecap:square;stroke-width:1.5;"/>
   </g>
   <g id="line2d_20">
    <path clip-path="url(#p1676e0c254)" d="M 145.36678 289.8432 
L 145.36678 288.06912 
L 145.36678 286.29504 
L 145.36678 284.52096 
L 145.36678 282.74688 
L 145.36678 280.9728 
L 145.36678 279.19872 
L 145.36678 277.42464 
L 145.36678 275.65056 
L 145.36678 273.87648 
L 145.36678 272.1024 
L 145.36678 270.32832 
L 145.36678 268.55424 
L 145.36678 266.78016 
L 145.36678 265.00608 
L 145.36678 263.232 
L 145.36678 261.45792 
L 145.36678 259.68384 
L 145.36678 257.90976 
L 145.36678 256.13568 
L 145.36678 254.3616 
L 145.36678 252.58752 
L 145.36678 250.81344 
L 145.36678 249.03936 
L 145.36678 247.26528 
L 145.36678 245.4912 
L 145.36678 243.71712 
L 145.36678 241.94304 
L 145.36678 240.16896 
L 145.36678 238.39488 
" style="fill:none;stroke:#000000;stroke-linecap:square;stroke-width:2;"/>
   </g>
   <g id="patch_3">
    <path d="M 57.6 307.584 
L 57.6 41.472 
" style="fill:none;stroke:#000000;stroke-linecap:square;stroke-linejoin:miter;stroke-width:0.8;"/>
   </g>
   <g id="patch_4">
    <path d="M 57.6 307.584 
L 414.72 307.584 
" style="fill:none;stroke:#000000;stroke-linecap:square;stroke-linejoin:miter;stroke-width:0.8;"/>
   </g>
   <g id="text_18">
    <!-- 500 ms -->
    <g transform="translate(343.461079 243.71712)scale(0.12 -0.12)">
     <use xlink:href="#DejaVuSans-35"/>
     <use x="63.623047" xlink:href="#DejaVuSans-30"/>
     <use x="127.246094" xlink:href="#DejaVuSans-30"/>
     <use x="190.869141" xlink:href="#DejaVuSans-20"/>
     <use x="222.65625" xlink:href="#DejaVuSans-6d"/>
     <use x="320.068359" xlink:href="#DejaVuSans-73"/>
    </g>
   </g>
   <g id="text_19">
    <!-- 20 mV -->
    <g transform="translate(348.963698 183.3984)scale(0.12 -0.12)">
     <use xlink:href="#DejaVuSans-32"/>
     <use x="63.623047" xlink:href="#DejaVuSans-30"/>
     <use x="127.246094" xlink:href="#DejaVuSans-20"/>
     <use x="159.033203" xlink:href="#DejaVuSans-6d"/>
     <use x="256.445312" xlink:href="#DejaVuSans-56"/>
    </g>
   </g>
  </g>
 </g>
 <defs>
  <clipPath id="p1676e0c254">
   <rect height="266.112" width="357.12" x="57.6" y="41.472"/>
  </clipPath>
 </defs>
</svg>
