<?xml version="1.0" encoding="utf-8" standalone="no"?>
<!DOCTYPE svg PUBLIC "-//W3C//DTD SVG 1.1//EN"
  "http://www.w3.org/Graphics/SVG/1.1/DTD/svg11.dtd">
<svg height="345.6pt" version="1.1" viewBox="0 0 460.8 345.6" width="460.8pt" xmlns="http://www.w3.org/2000/svg" xmlns:xlink="http://www.w3.org/1999/xlink">
 <metadata>
  <rdf:RDF xmlns:cc="http://creativecommons.org/ns#" xmlns:dc="http://purl.org/dc/elements/1.1/" xmlns:rdf="http://www.w3.org/1999/02/22-rdf-syntax-ns#">
   <cc:Work>
    <dc:type rdf:resource="http://purl.org/dc/dcmitype/StillImage"/>
    <dc:date>2021-07-19T21:00:22.607587</dc:date>
    <dc:format>image/svg+xml</dc:format>
    <dc:creator>
     <cc:Agent>
      <dc:title>Matplotlib v3.4.1, https://matplotlib.org/</dc:title>
     </cc:Agent>
    </dc:creator>
   </cc:Work>
  </rdf:RDF>
 </metadata>
 <defs>
  <style type="text/css">*{stroke-linecap:butt;stroke-linejoin:round;}</style>
 </defs>
 <g id="figure_1">
  <g id="patch_1">
   <path d="M 0 345.6 
L 460.8 345.6 
L 460.8 0 
L 0 0 
z
" style="fill:#ffffff;"/>
  </g>
  <g id="axes_1">
   <g id="patch_2">
    <path d="M 57.6 307.584 
L 414.72 307.584 
L 414.72 41.472 
L 57.6 41.472 
z
" style="fill:#ffffff;"/>
   </g>
   <g id="matplotlib.axis_1">
    <g id="xtick_1">
     <g id="line2d_1">
      <defs>
       <path d="M 0 0 
L 0 3.5 
" id="m5cd5358a07" style="stroke:#000000;stroke-width:0.8;"/>
      </defs>
      <g>
       <use style="stroke:#000000;stroke-width:0.8;" x="68.330108" xlink:href="#m5cd5358a07" y="307.584"/>
      </g>
     </g>
     <g id="text_1">
      <!-- 0 -->
      <g transform="translate(64.512608 323.702125)scale(0.12 -0.12)">
       <defs>
        <path d="M 2034 4250 
Q 1547 4250 1301 3770 
Q 1056 3291 1056 2328 
Q 1056 1369 1301 889 
Q 1547 409 2034 409 
Q 2525 409 2770 889 
Q 3016 1369 3016 2328 
Q 3016 3291 2770 3770 
Q 2525 4250 2034 4250 
z
M 2034 4750 
Q 2819 4750 3233 4129 
Q 3647 3509 3647 2328 
Q 3647 1150 3233 529 
Q 2819 -91 2034 -91 
Q 1250 -91 836 529 
Q 422 1150 422 2328 
Q 422 3509 836 4129 
Q 1250 4750 2034 4750 
z
" id="DejaVuSans-30" transform="scale(0.015625)"/>
       </defs>
       <use xlink:href="#DejaVuSans-30"/>
      </g>
     </g>
    </g>
    <g id="xtick_2">
     <g id="line2d_2">
      <g>
       <use style="stroke:#000000;stroke-width:0.8;" x="123.356302" xlink:href="#m5cd5358a07" y="307.584"/>
      </g>
     </g>
     <g id="text_2">
      <!-- 500 -->
      <g transform="translate(111.903802 323.702125)scale(0.12 -0.12)">
       <defs>
        <path d="M 691 4666 
L 3169 4666 
L 3169 4134 
L 1269 4134 
L 1269 2991 
Q 1406 3038 1543 3061 
Q 1681 3084 1819 3084 
Q 2600 3084 3056 2656 
Q 3513 2228 3513 1497 
Q 3513 744 3044 326 
Q 2575 -91 1722 -91 
Q 1428 -91 1123 -41 
Q 819 9 494 109 
L 494 744 
Q 775 591 1075 516 
Q 1375 441 1709 441 
Q 2250 441 2565 725 
Q 2881 1009 2881 1497 
Q 2881 1984 2565 2268 
Q 2250 2553 1709 2553 
Q 1456 2553 1204 2497 
Q 953 2441 691 2322 
L 691 4666 
z
" id="DejaVuSans-35" transform="scale(0.015625)"/>
       </defs>
       <use xlink:href="#DejaVuSans-35"/>
       <use x="63.623047" xlink:href="#DejaVuSans-30"/>
       <use x="127.246094" xlink:href="#DejaVuSans-30"/>
      </g>
     </g>
    </g>
    <g id="xtick_3">
     <g id="line2d_3">
      <g>
       <use style="stroke:#000000;stroke-width:0.8;" x="178.382496" xlink:href="#m5cd5358a07" y="307.584"/>
      </g>
     </g>
     <g id="text_3">
      <!-- 1000 -->
      <g transform="translate(163.112496 323.702125)scale(0.12 -0.12)">
       <defs>
        <path d="M 794 531 
L 1825 531 
L 1825 4091 
L 703 3866 
L 703 4441 
L 1819 4666 
L 2450 4666 
L 2450 531 
L 3481 531 
L 3481 0 
L 794 0 
L 794 531 
z
" id="DejaVuSans-31" transform="scale(0.015625)"/>
       </defs>
       <use xlink:href="#DejaVuSans-31"/>
       <use x="63.623047" xlink:href="#DejaVuSans-30"/>
       <use x="127.246094" xlink:href="#DejaVuSans-30"/>
       <use x="190.869141" xlink:href="#DejaVuSans-30"/>
      </g>
     </g>
    </g>
    <g id="xtick_4">
     <g id="line2d_4">
      <g>
       <use style="stroke:#000000;stroke-width:0.8;" x="233.40869" xlink:href="#m5cd5358a07" y="307.584"/>
      </g>
     </g>
     <g id="text_4">
      <!-- 1500 -->
      <g transform="translate(218.13869 323.702125)scale(0.12 -0.12)">
       <use xlink:href="#DejaVuSans-31"/>
       <use x="63.623047" xlink:href="#DejaVuSans-35"/>
       <use x="127.246094" xlink:href="#DejaVuSans-30"/>
       <use x="190.869141" xlink:href="#DejaVuSans-30"/>
      </g>
     </g>
    </g>
    <g id="xtick_5">
     <g id="line2d_5">
      <g>
       <use style="stroke:#000000;stroke-width:0.8;" x="288.434884" xlink:href="#m5cd5358a07" y="307.584"/>
      </g>
     </g>
     <g id="text_5">
      <!-- 2000 -->
      <g transform="translate(273.164884 323.702125)scale(0.12 -0.12)">
       <defs>
        <path d="M 1228 531 
L 3431 531 
L 3431 0 
L 469 0 
L 469 531 
Q 828 903 1448 1529 
Q 2069 2156 2228 2338 
Q 2531 2678 2651 2914 
Q 2772 3150 2772 3378 
Q 2772 3750 2511 3984 
Q 2250 4219 1831 4219 
Q 1534 4219 1204 4116 
Q 875 4013 500 3803 
L 500 4441 
Q 881 4594 1212 4672 
Q 1544 4750 1819 4750 
Q 2544 4750 2975 4387 
Q 3406 4025 3406 3419 
Q 3406 3131 3298 2873 
Q 3191 2616 2906 2266 
Q 2828 2175 2409 1742 
Q 1991 1309 1228 531 
z
" id="DejaVuSans-32" transform="scale(0.015625)"/>
       </defs>
       <use xlink:href="#DejaVuSans-32"/>
       <use x="63.623047" xlink:href="#DejaVuSans-30"/>
       <use x="127.246094" xlink:href="#DejaVuSans-30"/>
       <use x="190.869141" xlink:href="#DejaVuSans-30"/>
      </g>
     </g>
    </g>
    <g id="xtick_6">
     <g id="line2d_6">
      <g>
       <use style="stroke:#000000;stroke-width:0.8;" x="343.461079" xlink:href="#m5cd5358a07" y="307.584"/>
      </g>
     </g>
     <g id="text_6">
      <!-- 2500 -->
      <g transform="translate(328.191079 323.702125)scale(0.12 -0.12)">
       <use xlink:href="#DejaVuSans-32"/>
       <use x="63.623047" xlink:href="#DejaVuSans-35"/>
       <use x="127.246094" xlink:href="#DejaVuSans-30"/>
       <use x="190.869141" xlink:href="#DejaVuSans-30"/>
      </g>
     </g>
    </g>
    <g id="xtick_7">
     <g id="line2d_7">
      <g>
       <use style="stroke:#000000;stroke-width:0.8;" x="398.487273" xlink:href="#m5cd5358a07" y="307.584"/>
      </g>
     </g>
     <g id="text_7">
      <!-- 3000 -->
      <g transform="translate(383.217273 323.702125)scale(0.12 -0.12)">
       <defs>
        <path d="M 2597 2516 
Q 3050 2419 3304 2112 
Q 3559 1806 3559 1356 
Q 3559 666 3084 287 
Q 2609 -91 1734 -91 
Q 1441 -91 1130 -33 
Q 819 25 488 141 
L 488 750 
Q 750 597 1062 519 
Q 1375 441 1716 441 
Q 2309 441 2620 675 
Q 2931 909 2931 1356 
Q 2931 1769 2642 2001 
Q 2353 2234 1838 2234 
L 1294 2234 
L 1294 2753 
L 1863 2753 
Q 2328 2753 2575 2939 
Q 2822 3125 2822 3475 
Q 2822 3834 2567 4026 
Q 2313 4219 1838 4219 
Q 1578 4219 1281 4162 
Q 984 4106 628 3988 
L 628 4550 
Q 988 4650 1302 4700 
Q 1616 4750 1894 4750 
Q 2613 4750 3031 4423 
Q 3450 4097 3450 3541 
Q 3450 3153 3228 2886 
Q 3006 2619 2597 2516 
z
" id="DejaVuSans-33" transform="scale(0.015625)"/>
       </defs>
       <use xlink:href="#DejaVuSans-33"/>
       <use x="63.623047" xlink:href="#DejaVuSans-30"/>
       <use x="127.246094" xlink:href="#DejaVuSans-30"/>
       <use x="190.869141" xlink:href="#DejaVuSans-30"/>
      </g>
     </g>
    </g>
    <g id="text_8">
     <!-- Time(ms) -->
     <g transform="translate(207.827812 339.315875)scale(0.12 -0.12)">
      <defs>
       <path d="M -19 4666 
L 3928 4666 
L 3928 4134 
L 2272 4134 
L 2272 0 
L 1638 0 
L 1638 4134 
L -19 4134 
L -19 4666 
z
" id="DejaVuSans-54" transform="scale(0.015625)"/>
       <path d="M 603 3500 
L 1178 3500 
L 1178 0 
L 603 0 
L 603 3500 
z
M 603 4863 
L 1178 4863 
L 1178 4134 
L 603 4134 
L 603 4863 
z
" id="DejaVuSans-69" transform="scale(0.015625)"/>
       <path d="M 3328 2828 
Q 3544 3216 3844 3400 
Q 4144 3584 4550 3584 
Q 5097 3584 5394 3201 
Q 5691 2819 5691 2113 
L 5691 0 
L 5113 0 
L 5113 2094 
Q 5113 2597 4934 2840 
Q 4756 3084 4391 3084 
Q 3944 3084 3684 2787 
Q 3425 2491 3425 1978 
L 3425 0 
L 2847 0 
L 2847 2094 
Q 2847 2600 2669 2842 
Q 2491 3084 2119 3084 
Q 1678 3084 1418 2786 
Q 1159 2488 1159 1978 
L 1159 0 
L 581 0 
L 581 3500 
L 1159 3500 
L 1159 2956 
Q 1356 3278 1631 3431 
Q 1906 3584 2284 3584 
Q 2666 3584 2933 3390 
Q 3200 3197 3328 2828 
z
" id="DejaVuSans-6d" transform="scale(0.015625)"/>
       <path d="M 3597 1894 
L 3597 1613 
L 953 1613 
Q 991 1019 1311 708 
Q 1631 397 2203 397 
Q 2534 397 2845 478 
Q 3156 559 3463 722 
L 3463 178 
Q 3153 47 2828 -22 
Q 2503 -91 2169 -91 
Q 1331 -91 842 396 
Q 353 884 353 1716 
Q 353 2575 817 3079 
Q 1281 3584 2069 3584 
Q 2775 3584 3186 3129 
Q 3597 2675 3597 1894 
z
M 3022 2063 
Q 3016 2534 2758 2815 
Q 2500 3097 2075 3097 
Q 1594 3097 1305 2825 
Q 1016 2553 972 2059 
L 3022 2063 
z
" id="DejaVuSans-65" transform="scale(0.015625)"/>
       <path d="M 1984 4856 
Q 1566 4138 1362 3434 
Q 1159 2731 1159 2009 
Q 1159 1288 1364 580 
Q 1569 -128 1984 -844 
L 1484 -844 
Q 1016 -109 783 600 
Q 550 1309 550 2009 
Q 550 2706 781 3412 
Q 1013 4119 1484 4856 
L 1984 4856 
z
" id="DejaVuSans-28" transform="scale(0.015625)"/>
       <path d="M 2834 3397 
L 2834 2853 
Q 2591 2978 2328 3040 
Q 2066 3103 1784 3103 
Q 1356 3103 1142 2972 
Q 928 2841 928 2578 
Q 928 2378 1081 2264 
Q 1234 2150 1697 2047 
L 1894 2003 
Q 2506 1872 2764 1633 
Q 3022 1394 3022 966 
Q 3022 478 2636 193 
Q 2250 -91 1575 -91 
Q 1294 -91 989 -36 
Q 684 19 347 128 
L 347 722 
Q 666 556 975 473 
Q 1284 391 1588 391 
Q 1994 391 2212 530 
Q 2431 669 2431 922 
Q 2431 1156 2273 1281 
Q 2116 1406 1581 1522 
L 1381 1569 
Q 847 1681 609 1914 
Q 372 2147 372 2553 
Q 372 3047 722 3315 
Q 1072 3584 1716 3584 
Q 2034 3584 2315 3537 
Q 2597 3491 2834 3397 
z
" id="DejaVuSans-73" transform="scale(0.015625)"/>
       <path d="M 513 4856 
L 1013 4856 
Q 1481 4119 1714 3412 
Q 1947 2706 1947 2009 
Q 1947 1309 1714 600 
Q 1481 -109 1013 -844 
L 513 -844 
Q 928 -128 1133 580 
Q 1338 1288 1338 2009 
Q 1338 2731 1133 3434 
Q 928 4138 513 4856 
z
" id="DejaVuSans-29" transform="scale(0.015625)"/>
      </defs>
      <use xlink:href="#DejaVuSans-54"/>
      <use x="57.958984" xlink:href="#DejaVuSans-69"/>
      <use x="85.742188" xlink:href="#DejaVuSans-6d"/>
      <use x="183.154297" xlink:href="#DejaVuSans-65"/>
      <use x="244.677734" xlink:href="#DejaVuSans-28"/>
      <use x="283.691406" xlink:href="#DejaVuSans-6d"/>
      <use x="381.103516" xlink:href="#DejaVuSans-73"/>
      <use x="433.203125" xlink:href="#DejaVuSans-29"/>
     </g>
    </g>
   </g>
   <g id="matplotlib.axis_2">
    <g id="ytick_1">
     <g id="line2d_8">
      <defs>
       <path d="M 0 0 
L -3.5 0 
" id="mf0c352bc53" style="stroke:#000000;stroke-width:0.8;"/>
      </defs>
      <g>
       <use style="stroke:#000000;stroke-width:0.8;" x="57.6" xlink:href="#mf0c352bc53" y="289.8432"/>
      </g>
     </g>
     <g id="text_9">
      <!-- -100 -->
      <g transform="translate(23.365625 294.402262)scale(0.12 -0.12)">
       <defs>
        <path d="M 313 2009 
L 1997 2009 
L 1997 1497 
L 313 1497 
L 313 2009 
z
" id="DejaVuSans-2d" transform="scale(0.015625)"/>
       </defs>
       <use xlink:href="#DejaVuSans-2d"/>
       <use x="36.083984" xlink:href="#DejaVuSans-31"/>
       <use x="99.707031" xlink:href="#DejaVuSans-30"/>
       <use x="163.330078" xlink:href="#DejaVuSans-30"/>
      </g>
     </g>
    </g>
    <g id="ytick_2">
     <g id="line2d_9">
      <g>
       <use style="stroke:#000000;stroke-width:0.8;" x="57.6" xlink:href="#mf0c352bc53" y="254.3616"/>
      </g>
     </g>
     <g id="text_10">
      <!-- -80 -->
      <g transform="translate(31.000625 258.920662)scale(0.12 -0.12)">
       <defs>
        <path d="M 2034 2216 
Q 1584 2216 1326 1975 
Q 1069 1734 1069 1313 
Q 1069 891 1326 650 
Q 1584 409 2034 409 
Q 2484 409 2743 651 
Q 3003 894 3003 1313 
Q 3003 1734 2745 1975 
Q 2488 2216 2034 2216 
z
M 1403 2484 
Q 997 2584 770 2862 
Q 544 3141 544 3541 
Q 544 4100 942 4425 
Q 1341 4750 2034 4750 
Q 2731 4750 3128 4425 
Q 3525 4100 3525 3541 
Q 3525 3141 3298 2862 
Q 3072 2584 2669 2484 
Q 3125 2378 3379 2068 
Q 3634 1759 3634 1313 
Q 3634 634 3220 271 
Q 2806 -91 2034 -91 
Q 1263 -91 848 271 
Q 434 634 434 1313 
Q 434 1759 690 2068 
Q 947 2378 1403 2484 
z
M 1172 3481 
Q 1172 3119 1398 2916 
Q 1625 2713 2034 2713 
Q 2441 2713 2670 2916 
Q 2900 3119 2900 3481 
Q 2900 3844 2670 4047 
Q 2441 4250 2034 4250 
Q 1625 4250 1398 4047 
Q 1172 3844 1172 3481 
z
" id="DejaVuSans-38" transform="scale(0.015625)"/>
       </defs>
       <use xlink:href="#DejaVuSans-2d"/>
       <use x="36.083984" xlink:href="#DejaVuSans-38"/>
       <use x="99.707031" xlink:href="#DejaVuSans-30"/>
      </g>
     </g>
    </g>
    <g id="ytick_3">
     <g id="line2d_10">
      <g>
       <use style="stroke:#000000;stroke-width:0.8;" x="57.6" xlink:href="#mf0c352bc53" y="218.88"/>
      </g>
     </g>
     <g id="text_11">
      <!-- -60 -->
      <g transform="translate(31.000625 223.439062)scale(0.12 -0.12)">
       <defs>
        <path d="M 2113 2584 
Q 1688 2584 1439 2293 
Q 1191 2003 1191 1497 
Q 1191 994 1439 701 
Q 1688 409 2113 409 
Q 2538 409 2786 701 
Q 3034 994 3034 1497 
Q 3034 2003 2786 2293 
Q 2538 2584 2113 2584 
z
M 3366 4563 
L 3366 3988 
Q 3128 4100 2886 4159 
Q 2644 4219 2406 4219 
Q 1781 4219 1451 3797 
Q 1122 3375 1075 2522 
Q 1259 2794 1537 2939 
Q 1816 3084 2150 3084 
Q 2853 3084 3261 2657 
Q 3669 2231 3669 1497 
Q 3669 778 3244 343 
Q 2819 -91 2113 -91 
Q 1303 -91 875 529 
Q 447 1150 447 2328 
Q 447 3434 972 4092 
Q 1497 4750 2381 4750 
Q 2619 4750 2861 4703 
Q 3103 4656 3366 4563 
z
" id="DejaVuSans-36" transform="scale(0.015625)"/>
       </defs>
       <use xlink:href="#DejaVuSans-2d"/>
       <use x="36.083984" xlink:href="#DejaVuSans-36"/>
       <use x="99.707031" xlink:href="#DejaVuSans-30"/>
      </g>
     </g>
    </g>
    <g id="ytick_4">
     <g id="line2d_11">
      <g>
       <use style="stroke:#000000;stroke-width:0.8;" x="57.6" xlink:href="#mf0c352bc53" y="183.3984"/>
      </g>
     </g>
     <g id="text_12">
      <!-- -40 -->
      <g transform="translate(31.000625 187.957462)scale(0.12 -0.12)">
       <defs>
        <path d="M 2419 4116 
L 825 1625 
L 2419 1625 
L 2419 4116 
z
M 2253 4666 
L 3047 4666 
L 3047 1625 
L 3713 1625 
L 3713 1100 
L 3047 1100 
L 3047 0 
L 2419 0 
L 2419 1100 
L 313 1100 
L 313 1709 
L 2253 4666 
z
" id="DejaVuSans-34" transform="scale(0.015625)"/>
       </defs>
       <use xlink:href="#DejaVuSans-2d"/>
       <use x="36.083984" xlink:href="#DejaVuSans-34"/>
       <use x="99.707031" xlink:href="#DejaVuSans-30"/>
      </g>
     </g>
    </g>
    <g id="ytick_5">
     <g id="line2d_12">
      <g>
       <use style="stroke:#000000;stroke-width:0.8;" x="57.6" xlink:href="#mf0c352bc53" y="147.9168"/>
      </g>
     </g>
     <g id="text_13">
      <!-- -20 -->
      <g transform="translate(31.000625 152.475862)scale(0.12 -0.12)">
       <use xlink:href="#DejaVuSans-2d"/>
       <use x="36.083984" xlink:href="#DejaVuSans-32"/>
       <use x="99.707031" xlink:href="#DejaVuSans-30"/>
      </g>
     </g>
    </g>
    <g id="ytick_6">
     <g id="line2d_13">
      <g>
       <use style="stroke:#000000;stroke-width:0.8;" x="57.6" xlink:href="#mf0c352bc53" y="112.4352"/>
      </g>
     </g>
     <g id="text_14">
      <!-- 0 -->
      <g transform="translate(42.965 116.994262)scale(0.12 -0.12)">
       <use xlink:href="#DejaVuSans-30"/>
      </g>
     </g>
    </g>
    <g id="ytick_7">
     <g id="line2d_14">
      <g>
       <use style="stroke:#000000;stroke-width:0.8;" x="57.6" xlink:href="#mf0c352bc53" y="76.9536"/>
      </g>
     </g>
     <g id="text_15">
      <!-- 20 -->
      <g transform="translate(35.33 81.512662)scale(0.12 -0.12)">
       <use xlink:href="#DejaVuSans-32"/>
       <use x="63.623047" xlink:href="#DejaVuSans-30"/>
      </g>
     </g>
    </g>
    <g id="ytick_8">
     <g id="line2d_15">
      <g>
       <use style="stroke:#000000;stroke-width:0.8;" x="57.6" xlink:href="#mf0c352bc53" y="41.472"/>
      </g>
     </g>
     <g id="text_16">
      <!-- 40 -->
      <g transform="translate(35.33 46.031062)scale(0.12 -0.12)">
       <use xlink:href="#DejaVuSans-34"/>
       <use x="63.623047" xlink:href="#DejaVuSans-30"/>
      </g>
     </g>
    </g>
    <g id="text_17">
     <!-- Membrane potential (mV) -->
     <g transform="translate(16.87 251.822062)rotate(-90)scale(0.12 -0.12)">
      <defs>
       <path d="M 628 4666 
L 1569 4666 
L 2759 1491 
L 3956 4666 
L 4897 4666 
L 4897 0 
L 4281 0 
L 4281 4097 
L 3078 897 
L 2444 897 
L 1241 4097 
L 1241 0 
L 628 0 
L 628 4666 
z
" id="DejaVuSans-4d" transform="scale(0.015625)"/>
       <path d="M 3116 1747 
Q 3116 2381 2855 2742 
Q 2594 3103 2138 3103 
Q 1681 3103 1420 2742 
Q 1159 2381 1159 1747 
Q 1159 1113 1420 752 
Q 1681 391 2138 391 
Q 2594 391 2855 752 
Q 3116 1113 3116 1747 
z
M 1159 2969 
Q 1341 3281 1617 3432 
Q 1894 3584 2278 3584 
Q 2916 3584 3314 3078 
Q 3713 2572 3713 1747 
Q 3713 922 3314 415 
Q 2916 -91 2278 -91 
Q 1894 -91 1617 61 
Q 1341 213 1159 525 
L 1159 0 
L 581 0 
L 581 4863 
L 1159 4863 
L 1159 2969 
z
" id="DejaVuSans-62" transform="scale(0.015625)"/>
       <path d="M 2631 2963 
Q 2534 3019 2420 3045 
Q 2306 3072 2169 3072 
Q 1681 3072 1420 2755 
Q 1159 2438 1159 1844 
L 1159 0 
L 581 0 
L 581 3500 
L 1159 3500 
L 1159 2956 
Q 1341 3275 1631 3429 
Q 1922 3584 2338 3584 
Q 2397 3584 2469 3576 
Q 2541 3569 2628 3553 
L 2631 2963 
z
" id="DejaVuSans-72" transform="scale(0.015625)"/>
       <path d="M 2194 1759 
Q 1497 1759 1228 1600 
Q 959 1441 959 1056 
Q 959 750 1161 570 
Q 1363 391 1709 391 
Q 2188 391 2477 730 
Q 2766 1069 2766 1631 
L 2766 1759 
L 2194 1759 
z
M 3341 1997 
L 3341 0 
L 2766 0 
L 2766 531 
Q 2569 213 2275 61 
Q 1981 -91 1556 -91 
Q 1019 -91 701 211 
Q 384 513 384 1019 
Q 384 1609 779 1909 
Q 1175 2209 1959 2209 
L 2766 2209 
L 2766 2266 
Q 2766 2663 2505 2880 
Q 2244 3097 1772 3097 
Q 1472 3097 1187 3025 
Q 903 2953 641 2809 
L 641 3341 
Q 956 3463 1253 3523 
Q 1550 3584 1831 3584 
Q 2591 3584 2966 3190 
Q 3341 2797 3341 1997 
z
" id="DejaVuSans-61" transform="scale(0.015625)"/>
       <path d="M 3513 2113 
L 3513 0 
L 2938 0 
L 2938 2094 
Q 2938 2591 2744 2837 
Q 2550 3084 2163 3084 
Q 1697 3084 1428 2787 
Q 1159 2491 1159 1978 
L 1159 0 
L 581 0 
L 581 3500 
L 1159 3500 
L 1159 2956 
Q 1366 3272 1645 3428 
Q 1925 3584 2291 3584 
Q 2894 3584 3203 3211 
Q 3513 2838 3513 2113 
z
" id="DejaVuSans-6e" transform="scale(0.015625)"/>
       <path id="DejaVuSans-20" transform="scale(0.015625)"/>
       <path d="M 1159 525 
L 1159 -1331 
L 581 -1331 
L 581 3500 
L 1159 3500 
L 1159 2969 
Q 1341 3281 1617 3432 
Q 1894 3584 2278 3584 
Q 2916 3584 3314 3078 
Q 3713 2572 3713 1747 
Q 3713 922 3314 415 
Q 2916 -91 2278 -91 
Q 1894 -91 1617 61 
Q 1341 213 1159 525 
z
M 3116 1747 
Q 3116 2381 2855 2742 
Q 2594 3103 2138 3103 
Q 1681 3103 1420 2742 
Q 1159 2381 1159 1747 
Q 1159 1113 1420 752 
Q 1681 391 2138 391 
Q 2594 391 2855 752 
Q 3116 1113 3116 1747 
z
" id="DejaVuSans-70" transform="scale(0.015625)"/>
       <path d="M 1959 3097 
Q 1497 3097 1228 2736 
Q 959 2375 959 1747 
Q 959 1119 1226 758 
Q 1494 397 1959 397 
Q 2419 397 2687 759 
Q 2956 1122 2956 1747 
Q 2956 2369 2687 2733 
Q 2419 3097 1959 3097 
z
M 1959 3584 
Q 2709 3584 3137 3096 
Q 3566 2609 3566 1747 
Q 3566 888 3137 398 
Q 2709 -91 1959 -91 
Q 1206 -91 779 398 
Q 353 888 353 1747 
Q 353 2609 779 3096 
Q 1206 3584 1959 3584 
z
" id="DejaVuSans-6f" transform="scale(0.015625)"/>
       <path d="M 1172 4494 
L 1172 3500 
L 2356 3500 
L 2356 3053 
L 1172 3053 
L 1172 1153 
Q 1172 725 1289 603 
Q 1406 481 1766 481 
L 2356 481 
L 2356 0 
L 1766 0 
Q 1100 0 847 248 
Q 594 497 594 1153 
L 594 3053 
L 172 3053 
L 172 3500 
L 594 3500 
L 594 4494 
L 1172 4494 
z
" id="DejaVuSans-74" transform="scale(0.015625)"/>
       <path d="M 603 4863 
L 1178 4863 
L 1178 0 
L 603 0 
L 603 4863 
z
" id="DejaVuSans-6c" transform="scale(0.015625)"/>
       <path d="M 1831 0 
L 50 4666 
L 709 4666 
L 2188 738 
L 3669 4666 
L 4325 4666 
L 2547 0 
L 1831 0 
z
" id="DejaVuSans-56" transform="scale(0.015625)"/>
      </defs>
      <use xlink:href="#DejaVuSans-4d"/>
      <use x="86.279297" xlink:href="#DejaVuSans-65"/>
      <use x="147.802734" xlink:href="#DejaVuSans-6d"/>
      <use x="245.214844" xlink:href="#DejaVuSans-62"/>
      <use x="308.691406" xlink:href="#DejaVuSans-72"/>
      <use x="349.804688" xlink:href="#DejaVuSans-61"/>
      <use x="411.083984" xlink:href="#DejaVuSans-6e"/>
      <use x="474.462891" xlink:href="#DejaVuSans-65"/>
      <use x="535.986328" xlink:href="#DejaVuSans-20"/>
      <use x="567.773438" xlink:href="#DejaVuSans-70"/>
      <use x="631.25" xlink:href="#DejaVuSans-6f"/>
      <use x="692.431641" xlink:href="#DejaVuSans-74"/>
      <use x="731.640625" xlink:href="#DejaVuSans-65"/>
      <use x="793.164062" xlink:href="#DejaVuSans-6e"/>
      <use x="856.542969" xlink:href="#DejaVuSans-74"/>
      <use x="895.751953" xlink:href="#DejaVuSans-69"/>
      <use x="923.535156" xlink:href="#DejaVuSans-61"/>
      <use x="984.814453" xlink:href="#DejaVuSans-6c"/>
      <use x="1012.597656" xlink:href="#DejaVuSans-20"/>
      <use x="1044.384766" xlink:href="#DejaVuSans-28"/>
      <use x="1083.398438" xlink:href="#DejaVuSans-6d"/>
      <use x="1180.810547" xlink:href="#DejaVuSans-56"/>
      <use x="1249.21875" xlink:href="#DejaVuSans-29"/>
     </g>
    </g>
   </g>
   <g id="line2d_16">
    <path clip-path="url(#p97b33e11cf)" d="M 73.832727 272.180992 
L 73.997806 272.166089 
L 74.217911 271.760357 
L 74.493042 272.402397 
L 74.878225 274.517987 
L 75.318435 276.42601 
L 75.483513 276.653625 
L 75.758644 276.233523 
L 75.923723 274.666123 
L 76.363932 270.917492 
L 76.473985 270.731214 
L 76.584037 271.120802 
L 76.914194 273.830709 
L 77.024247 273.526454 
L 77.189325 273.124625 
L 77.464456 273.470925 
L 77.849639 274.393092 
L 78.12477 274.299953 
L 78.289849 274.432477 
L 78.56498 274.78676 
L 78.950163 272.771228 
L 79.00519 272.799791 
L 79.225294 273.165606 
L 79.28032 273.02847 
L 79.885609 268.171926 
L 80.105713 266.985953 
L 80.380844 266.955439 
L 80.766028 265.277869 
L 81.041159 262.202501 
L 81.096185 262.169681 
L 81.206237 262.549157 
L 81.756499 265.249839 
L 81.811525 265.190052 
L 82.086656 264.16694 
L 82.141683 264.185391 
L 82.361787 263.677294 
L 82.581892 264.017208 
L 82.746971 263.810705 
L 82.857023 263.199357 
L 83.077128 262.294044 
L 83.18718 262.602734 
L 83.737442 266.11896 
L 84.177652 269.462214 
L 84.452783 268.775645 
L 84.617861 268.362817 
L 84.672888 268.408411 
L 84.837966 269.139332 
L 85.553307 273.639108 
L 85.773411 274.381206 
L 85.993516 274.797405 
L 86.268647 275.360675 
L 86.323673 275.282616 
L 86.598804 274.491908 
L 87.259119 268.401492 
L 87.369171 268.63567 
L 87.754354 271.218553 
L 88.359643 274.424671 
L 88.524721 275.099353 
L 88.579747 274.899592 
L 89.240062 269.992664 
L 89.350114 270.144525 
L 89.680271 271.231504 
L 89.735297 271.177572 
L 90.010428 270.316966 
L 90.615716 271.057289 
L 90.780795 270.733875 
L 90.890847 270.927072 
L 91.165978 272.22286 
L 91.606188 275.907269 
L 91.936345 278.332259 
L 92.046398 278.192817 
L 92.541633 275.669543 
L 92.981843 273.0141 
L 93.146921 272.167154 
L 93.256974 272.299855 
L 93.312 272.411977 
L 93.367026 272.278034 
L 93.697183 271.474376 
L 93.862262 271.883479 
L 93.972314 272.129011 
L 94.082367 272.028243 
L 94.137393 272.084482 
L 94.302471 272.761471 
L 94.522576 274.005101 
L 94.577602 273.907526 
L 94.687655 273.414687 
L 94.962786 270.084561 
L 95.237917 267.785531 
L 95.347969 267.302094 
L 95.568074 266.461003 
L 95.733153 266.589446 
L 95.898231 267.223857 
L 96.283414 269.327384 
L 96.338441 269.251453 
L 96.448493 269.183329 
L 96.558545 269.437732 
L 96.888703 270.602238 
L 97.053781 270.466876 
L 97.163834 269.978294 
L 97.549017 264.896797 
L 97.879174 261.909069 
L 98.044253 261.217177 
L 98.319384 261.387489 
L 98.539488 261.39494 
L 98.594515 261.460581 
L 98.759593 261.132199 
L 98.814619 261.223209 
L 99.034724 262.453356 
L 99.199803 263.522239 
L 99.254829 263.499176 
L 99.364881 263.367717 
L 99.419908 263.429455 
L 99.584986 264.24021 
L 100.025196 266.872057 
L 100.410379 268.222664 
L 100.795562 268.706988 
L 100.960641 268.246615 
L 101.180746 267.790853 
L 101.345824 267.693634 
L 101.400851 267.721664 
L 101.565929 267.418474 
L 101.620955 267.448811 
L 101.731008 267.697359 
L 101.951112 268.917394 
L 102.061165 268.814675 
L 102.116191 268.831706 
L 102.226243 269.244002 
L 102.611427 272.602513 
L 102.886558 274.87032 
L 102.941584 274.843886 
L 103.216715 273.895817 
L 103.987082 266.287143 
L 104.097134 265.686262 
L 104.427291 262.839928 
L 104.537344 263.163521 
L 104.812475 265.640668 
L 105.197658 269.425668 
L 105.252684 269.391606 
L 106.133103 265.982179 
L 106.298182 264.913118 
L 106.518287 263.911295 
L 106.683365 263.727323 
L 107.178601 261.696889 
L 107.233627 261.78027 
L 107.453732 262.198953 
L 107.61881 262.326332 
L 107.948968 263.10196 
L 108.169072 262.723194 
L 108.279125 262.793802 
L 108.444203 263.615024 
L 109.104518 268.693328 
L 109.324622 270.190119 
L 109.489701 271.031565 
L 109.819858 273.675654 
L 109.874884 273.482102 
L 110.260068 271.715828 
L 110.81033 270.893542 
L 111.305565 266.469519 
L 111.52567 265.150313 
L 111.635723 265.20318 
L 111.910854 264.340268 
L 111.96588 264.400586 
L 112.075932 264.37983 
L 112.185985 264.556883 
L 112.241011 264.484323 
L 112.406089 264.167472 
L 112.626194 263.450212 
L 112.791273 263.122007 
L 112.956351 262.662343 
L 113.066404 262.97263 
L 113.396561 264.268772 
L 113.671692 263.807334 
L 113.781744 263.722001 
L 114.056875 263.970372 
L 114.166928 263.339864 
L 114.332006 262.640522 
L 114.607137 263.074284 
L 114.71719 262.532658 
L 114.937294 261.279093 
L 115.047347 261.307655 
L 115.267451 262.004514 
L 115.542582 263.208227 
L 115.707661 262.067316 
L 115.817713 261.687131 
L 115.87274 261.763771 
L 116.037818 262.809946 
L 116.58808 268.228342 
L 116.643106 268.221777 
L 116.753159 267.851704 
L 117.02829 264.780594 
L 117.138342 264.864154 
L 117.413473 266.022273 
L 117.74363 268.09085 
L 117.853683 267.944489 
L 118.403945 266.425167 
L 118.458971 266.455149 
L 118.569023 266.550771 
L 118.89918 265.204422 
L 119.174311 265.641378 
L 119.33939 265.183311 
L 119.449442 265.272015 
L 119.614521 263.694325 
L 119.889652 261.410907 
L 119.999704 261.249111 
L 120.109757 260.601926 
L 120.329861 259.483014 
L 120.549966 259.093249 
L 120.604992 259.212999 
L 120.715045 259.441146 
L 120.825097 259.254513 
L 120.935149 259.578637 
L 121.100228 260.118135 
L 121.320333 259.959532 
L 121.430385 259.840846 
L 121.760542 258.640858 
L 121.980647 259.114893 
L 122.145726 259.946759 
L 122.200752 259.762964 
L 122.420857 258.771076 
L 122.530909 259.032575 
L 122.751014 259.659003 
L 122.80604 259.798623 
L 122.861066 259.750545 
L 122.971119 259.569767 
L 123.026145 259.604006 
L 123.191223 259.81796 
L 123.356302 260.696485 
L 123.906564 264.511644 
L 124.016616 264.567882 
L 124.181695 265.029675 
L 124.4018 266.446633 
L 124.786983 269.371913 
L 124.952062 269.250034 
L 125.227193 267.297837 
L 125.337245 267.556143 
L 125.612376 268.844834 
L 125.667402 268.780613 
L 125.777455 268.80953 
L 126.217664 270.283613 
L 126.547821 271.925347 
L 126.657874 271.907606 
L 126.767926 271.750068 
L 126.822952 271.790162 
L 127.263162 272.044565 
L 127.483267 271.853851 
L 127.648345 272.084837 
L 128.198607 273.54455 
L 128.308659 273.878964 
L 128.363686 273.826628 
L 128.528764 273.614094 
L 128.638817 273.856965 
L 128.913948 275.225313 
L 128.968974 274.94767 
L 129.46421 271.984424 
L 129.574262 271.24339 
L 129.849393 268.901073 
L 129.959445 268.923071 
L 130.17955 269.11893 
L 130.344629 269.883913 
L 130.564733 271.031743 
L 130.61976 271.019502 
L 131.059969 269.573094 
L 131.390126 268.873574 
L 131.445153 269.002727 
L 131.555205 269.412717 
L 131.610231 269.37422 
L 131.720284 269.443231 
L 131.885362 270.218859 
L 132.050441 270.747358 
L 132.160493 270.669121 
L 132.380598 269.56582 
L 132.820807 265.293126 
L 132.875834 265.204777 
L 132.93086 265.292771 
L 133.095938 265.812222 
L 133.316043 267.580625 
L 133.866305 272.572531 
L 134.196462 274.063645 
L 134.471593 275.069549 
L 134.526619 275.04276 
L 134.636672 275.012423 
L 134.80175 275.421171 
L 135.021855 276.267585 
L 135.076881 276.198928 
L 135.186934 276.186687 
L 135.352012 276.730265 
L 135.572117 277.608612 
L 135.847248 276.676688 
L 135.902274 276.696558 
L 136.067353 277.135465 
L 136.452536 279.21238 
L 136.727667 280.42248 
L 137.002798 280.478009 
L 137.112851 279.996169 
L 138.048296 273.175009 
L 138.158348 273.2112 
L 138.268401 272.636043 
L 138.543532 271.159299 
L 138.653584 270.814063 
L 138.818663 270.337368 
L 138.928715 270.618027 
L 139.14882 271.841965 
L 139.203846 271.617367 
L 139.589029 269.271501 
L 139.699082 269.295273 
L 139.809134 269.441457 
L 139.919186 269.182087 
L 140.139291 268.464117 
L 140.414422 267.81161 
L 140.524475 267.753598 
L 140.909658 265.673311 
L 140.964684 265.703471 
L 141.01971 265.696729 
L 141.129763 265.137539 
L 141.294841 264.493371 
L 141.404894 264.799754 
L 141.955156 268.745131 
L 142.505418 274.191379 
L 142.560444 274.140108 
L 142.670496 273.424799 
L 143.05568 269.734181 
L 143.165732 269.245599 
L 143.33081 268.742825 
L 143.440863 269.072626 
L 143.826046 270.683668 
L 143.881072 270.842626 
L 143.936099 270.732101 
L 144.156203 268.551756 
L 144.706465 262.510659 
L 145.036622 259.308267 
L 145.091649 259.317138 
L 145.201701 259.778044 
L 145.586884 262.041947 
L 145.641911 262.060398 
L 145.751963 261.907472 
L 145.862015 262.40723 
L 146.357251 265.888507 
L 146.52233 266.656684 
L 147.23767 270.997148 
L 147.347723 270.926717 
L 147.457775 271.151671 
L 147.512801 271.0949 
L 147.622854 271.084078 
L 147.732906 271.202941 
L 147.787932 271.168347 
L 148.228142 270.262856 
L 148.448247 269.077594 
L 148.558299 269.327916 
L 148.943482 271.96828 
L 149.108561 272.794823 
L 149.163587 272.784534 
L 149.273639 272.065499 
L 150.099032 263.620701 
L 150.154059 263.766708 
L 151.089504 268.893267 
L 151.639766 272.581579 
L 151.914897 273.709539 
L 152.190028 274.22757 
L 152.630237 276.029858 
L 152.905368 277.097322 
L 152.960394 277.037181 
L 153.45563 275.927139 
L 153.510656 275.862208 
L 153.675735 274.694153 
L 154.336049 269.852512 
L 154.446102 270.006147 
L 154.721233 270.563386 
L 154.831285 269.92862 
L 155.05139 267.750759 
L 155.106416 267.679264 
L 155.161442 267.766726 
L 155.326521 268.698828 
L 155.931809 273.149639 
L 156.151914 273.07708 
L 157.087359 267.240002 
L 157.197411 267.331367 
L 157.36249 267.1073 
L 157.582595 265.083962 
L 157.8027 263.69397 
L 157.912752 263.532174 
L 158.022804 263.833058 
L 158.242909 265.2046 
L 158.297935 265.125121 
L 158.51804 264.156296 
L 158.793171 260.811623 
L 158.95825 260.562719 
L 159.233381 258.96587 
L 159.343433 258.839023 
L 159.508512 259.401761 
L 159.783643 261.039415 
L 159.838669 261.022561 
L 160.168826 260.479337 
L 160.278878 260.847282 
L 160.82914 264.615605 
L 160.884166 264.491952 
L 161.214324 261.120135 
L 161.544481 256.315217 
L 161.764586 255.651356 
L 161.929664 256.034912 
L 162.149769 257.39297 
L 163.085214 265.452616 
L 163.360345 266.309142 
L 163.525424 265.976679 
L 163.635476 263.969662 
L 163.965633 257.612779 
L 164.130712 256.623907 
L 164.185738 256.667904 
L 164.350817 257.520704 
L 165.066157 263.802189 
L 165.561393 268.64117 
L 165.836524 269.200005 
L 166.056629 270.494196 
L 166.111655 270.203247 
L 166.441812 268.169442 
L 166.551864 268.282451 
L 166.716943 268.47618 
L 166.826995 268.637622 
L 167.102126 269.770372 
L 167.157153 269.537613 
L 167.432284 268.378074 
L 167.597362 268.73289 
L 167.762441 269.204263 
L 167.817467 269.180845 
L 168.037572 267.813916 
L 168.367729 265.804416 
L 168.807938 262.595283 
L 169.193122 261.037286 
L 169.633331 258.451032 
L 169.79841 258.196629 
L 169.853436 258.269011 
L 169.908462 258.3971 
L 169.963488 258.346006 
L 170.458724 256.09257 
L 170.51375 256.21374 
L 170.678829 257.219465 
L 171.229091 261.429002 
L 171.394169 262.209243 
L 171.449196 261.994579 
L 171.834379 260.242498 
L 171.944431 260.272657 
L 172.054484 259.773786 
L 172.384641 257.753286 
L 172.494693 257.678597 
L 172.604746 257.953402 
L 172.824851 259.475386 
L 173.155008 261.699905 
L 173.26506 261.878022 
L 173.430139 262.120894 
L 173.540191 262.291738 
L 173.595217 262.455663 
L 173.650243 262.43668 
L 173.760296 262.344783 
L 173.870348 262.644425 
L 173.980401 263.105863 
L 174.035427 263.000483 
L 174.200505 262.23479 
L 174.42061 260.801333 
L 174.640715 260.561123 
L 174.750767 260.699323 
L 174.86082 261.030899 
L 174.915846 260.975902 
L 175.025898 260.958516 
L 175.135951 261.065494 
L 175.411082 261.558688 
L 175.466108 261.576783 
L 175.686213 260.866087 
L 175.796265 261.24645 
L 176.181448 264.06635 
L 176.291501 263.954228 
L 176.401553 263.99929 
L 176.566632 264.881362 
L 176.896789 267.339882 
L 176.951815 267.219954 
L 177.392025 266.119847 
L 177.612129 266.018547 
L 177.722182 266.199858 
L 178.382496 268.949682 
L 178.657627 270.378881 
L 178.877732 270.895848 
L 179.097837 270.43991 
L 179.262915 270.527017 
L 179.538046 271.22086 
L 179.593072 271.191055 
L 179.703125 270.178055 
L 180.088308 263.279368 
L 180.363439 261.809543 
L 180.583544 260.869103 
L 180.803649 259.62157 
L 181.133806 255.385422 
L 181.298884 255.269397 
L 181.408937 255.410614 
L 181.684068 256.200079 
L 181.904173 255.832845 
L 182.014225 256.24177 
L 182.509461 259.790817 
L 182.564487 259.752852 
L 183.38988 254.062668 
L 183.885116 251.724785 
L 183.940142 251.767185 
L 184.325325 253.294136 
L 184.380351 253.21377 
L 184.655482 252.327262 
L 184.765535 252.641097 
L 185.095692 255.058459 
L 185.150718 254.813281 
L 185.535901 252.616438 
L 185.645954 252.444707 
L 185.756006 251.866002 
L 186.086163 248.489218 
L 186.251242 247.443043 
L 186.691451 243.138415 
L 186.801504 243.568984 
L 187.791975 249.77649 
L 188.01208 249.587551 
L 188.177159 247.829437 
L 188.397263 246.144771 
L 188.507316 246.133062 
L 188.892499 244.302921 
L 188.947525 244.331839 
L 189.112604 244.866014 
L 189.16763 245.04218 
L 189.222656 245.021246 
L 189.60784 241.049258 
L 189.827945 239.475295 
L 189.882971 239.462344 
L 190.213128 240.322418 
L 190.708364 243.811501 
L 190.818416 243.489151 
L 190.928468 243.228361 
L 191.093547 243.779213 
L 191.588783 245.900303 
L 191.643809 245.825969 
L 191.91894 245.550986 
L 192.084018 245.075356 
L 192.359149 243.624158 
L 192.524228 243.501214 
L 192.63428 243.544325 
L 192.964438 242.747763 
L 193.239569 242.69596 
L 193.294595 242.774196 
L 193.349621 242.733747 
L 193.5147 242.413703 
L 193.569726 242.473845 
L 193.734804 243.445863 
L 194.009935 245.024972 
L 194.119988 245.128401 
L 194.340092 245.780375 
L 194.505171 246.371321 
L 194.560197 246.323776 
L 194.67025 246.332646 
L 194.835328 246.703961 
L 195.110459 245.884868 
L 195.550669 245.335436 
L 195.660721 245.199364 
L 195.8258 246.037439 
L 196.100931 248.400159 
L 196.651193 254.048475 
L 196.926324 254.60731 
L 197.036376 254.452965 
L 197.146428 254.762187 
L 197.806743 259.535704 
L 198.522083 264.451148 
L 198.577109 264.42702 
L 198.687162 263.112427 
L 199.072345 257.599651 
L 199.402502 256.634196 
L 199.512555 256.569975 
L 199.622607 256.896228 
L 199.952764 258.125488 
L 200.172869 258.468063 
L 200.227895 258.340507 
L 200.503026 256.58949 
L 200.778157 255.095892 
L 200.88821 255.094295 
L 201.108314 255.714691 
L 201.218367 255.666613 
L 201.328419 255.668742 
L 201.438471 255.362536 
L 201.768629 254.414822 
L 201.988733 254.464851 
L 202.208838 252.800232 
L 202.594022 249.151482 
L 202.869153 247.722815 
L 203.034231 247.662319 
L 203.144284 247.697446 
L 203.254336 247.136482 
L 203.529467 245.496167 
L 203.584493 245.507699 
L 203.804598 246.041697 
L 203.969676 245.728217 
L 204.024703 245.773811 
L 204.189781 246.111596 
L 205.125227 249.628177 
L 205.290305 249.877613 
L 205.455384 248.426238 
L 205.840567 245.290019 
L 205.895593 245.347145 
L 206.170724 245.931881 
L 206.335803 245.854532 
L 206.445855 246.13803 
L 206.941091 248.084728 
L 206.996117 248.077276 
L 207.271248 247.144643 
L 207.491353 246.258844 
L 207.601405 246.337081 
L 207.711458 246.139626 
L 207.766484 246.173156 
L 207.931562 246.883675 
L 208.371772 249.706946 
L 208.426798 249.660998 
L 209.032086 244.134916 
L 209.142139 244.01623 
L 209.252191 244.24349 
L 209.307217 244.122497 
L 209.472296 243.849999 
L 209.527322 243.85674 
L 209.637374 244.38169 
L 210.187636 248.294601 
L 210.407741 249.02907 
L 211.233134 252.062215 
L 211.28816 252.013783 
L 211.398213 251.689658 
L 211.783396 249.414933 
L 212.333658 246.960848 
L 212.608789 245.469556 
L 213.104025 244.011795 
L 213.214077 243.998134 
L 213.489208 243.039067 
L 213.544234 243.062839 
L 213.709313 243.686606 
L 213.929418 244.697299 
L 213.984444 244.650818 
L 214.369627 242.250843 
L 214.47968 242.18875 
L 214.699784 241.427847 
L 214.809837 241.623528 
L 215.029941 243.036583 
L 215.580203 246.733588 
L 216.075439 248.804472 
L 216.130465 248.719671 
L 216.35057 248.155513 
L 216.460622 248.28165 
L 216.680727 249.385306 
L 216.955858 251.589955 
L 217.341042 254.717303 
L 217.50612 254.825345 
L 217.561146 254.713755 
L 217.671199 253.548184 
L 218.111408 246.994733 
L 218.276487 246.781488 
L 218.386539 246.765344 
L 218.936801 244.539938 
L 219.321985 238.679442 
L 219.597116 237.807127 
L 219.762194 237.057401 
L 220.092351 230.66131 
L 220.367482 227.78801 
L 220.422508 227.772044 
L 220.532561 228.145488 
L 221.192875 231.363491 
L 221.357954 231.55456 
L 221.798163 229.983257 
L 221.85319 229.975983 
L 222.073294 230.905779 
L 222.623556 233.847203 
L 222.788635 233.932182 
L 223.173818 234.811061 
L 223.393923 233.589784 
L 223.779106 231.414053 
L 223.944185 231.677503 
L 224.604499 234.341994 
L 224.769578 234.32106 
L 224.824604 234.246904 
L 224.934656 232.931778 
L 225.31984 227.408003 
L 225.649997 223.712949 
L 225.925128 221.683046 
L 226.200259 221.663532 
L 226.310311 220.91966 
L 226.640468 218.189351 
L 226.750521 217.689592 
L 226.970626 215.016941 
L 227.135704 208.971763 
L 227.245757 200.197873 
L 227.300783 187.734252 
L 227.355809 64.521912 
L 227.520888 231.652489 
L 227.575914 232.437874 
L 227.851045 227.315573 
L 227.961097 227.500432 
L 228.181202 226.188323 
L 228.456333 223.975335 
L 228.896542 221.168031 
L 229.006595 221.314215 
L 229.171673 222.090907 
L 229.281726 222.677063 
L 229.336752 222.555894 
L 229.556857 221.239704 
L 229.776961 217.436076 
L 230.327223 203.528176 
L 230.437276 188.749912 
L 230.492302 57.774199 
L 230.547328 186.7727 
L 230.712407 229.978467 
L 230.987538 227.318057 
L 231.042564 227.418292 
L 231.317695 229.003433 
L 231.427747 229.543108 
L 231.482773 229.49166 
L 231.592826 228.990837 
L 231.922983 226.398906 
L 232.033035 226.552186 
L 232.308166 228.095813 
L 232.528271 228.881199 
L 232.638324 228.972386 
L 232.803402 229.499643 
L 232.858428 229.341218 
L 233.298638 227.623908 
L 233.573769 226.954548 
L 233.628795 226.997658 
L 233.8489 227.747207 
L 234.124031 229.368184 
L 235.499686 240.064289 
L 235.609738 239.994391 
L 235.71979 240.294033 
L 236.325079 243.252488 
L 236.710262 244.035567 
L 236.930367 245.641819 
L 237.425602 251.647967 
L 237.810786 255.843312 
L 237.975864 256.517817 
L 238.085917 257.103795 
L 238.140943 257.09049 
L 238.306022 256.513736 
L 238.361048 256.537864 
L 238.4711 256.971804 
L 238.856284 260.204887 
L 239.131414 262.200372 
L 239.461572 262.984693 
L 239.901781 260.912213 
L 240.176912 260.536108 
L 240.231938 260.606716 
L 240.507069 261.476193 
L 240.562096 261.361233 
L 240.837227 260.304413 
L 240.947279 260.525641 
L 241.002305 260.488563 
L 241.112357 260.122747 
L 241.442515 258.893665 
L 241.497541 258.817912 
L 241.552567 258.892246 
L 241.717646 259.853442 
L 241.882724 260.59554 
L 241.992777 260.809671 
L 242.157855 260.448468 
L 242.212881 260.535576 
L 242.267908 260.61878 
L 242.322934 260.529721 
L 242.488012 260.363845 
L 242.708117 260.523867 
L 242.818169 260.700743 
L 242.928222 260.533624 
L 243.0933 260.226708 
L 243.203353 260.53735 
L 243.753615 264.11354 
L 244.083772 266.767387 
L 244.138798 266.734921 
L 244.303877 266.484598 
L 244.523982 265.710922 
L 244.744086 266.39483 
L 245.019217 267.102333 
L 245.294348 267.732309 
L 245.349374 267.706585 
L 245.459427 267.701085 
L 245.569479 267.916813 
L 245.679532 268.144428 
L 245.734558 268.080738 
L 246.174767 267.075544 
L 246.229794 267.099317 
L 246.339846 267.305465 
L 246.670003 266.29832 
L 246.725029 266.321915 
L 246.890108 266.859994 
L 247.385344 269.619575 
L 247.44037 269.476407 
L 247.660475 269.151573 
L 247.990632 269.10385 
L 248.15571 269.440038 
L 248.265763 269.629332 
L 248.320789 269.559079 
L 248.540894 269.216859 
L 248.705972 268.812546 
L 248.816025 269.011598 
L 248.871051 269.19628 
L 248.926077 269.089835 
L 249.366287 267.21002 
L 249.476339 267.332431 
L 249.641418 268.018823 
L 250.246706 272.687846 
L 250.411784 273.340708 
L 250.741941 273.87577 
L 251.182151 275.39527 
L 251.34723 275.303905 
L 251.512308 275.067065 
L 251.787439 274.199185 
L 251.952518 274.19067 
L 252.282675 274.96204 
L 252.392727 274.795453 
L 252.50278 274.313436 
L 252.998015 271.1428 
L 253.108068 271.000519 
L 253.163094 271.040258 
L 253.273146 271.060128 
L 253.383199 270.765808 
L 253.493251 269.696393 
L 253.878435 264.720453 
L 254.208592 263.770433 
L 254.263618 263.860557 
L 254.538749 264.979469 
L 254.593775 264.743161 
L 254.758854 264.36883 
L 255.199063 265.792707 
L 255.309116 266.090398 
L 255.584247 264.429327 
L 255.639273 264.46605 
L 255.749325 264.682133 
L 255.914404 265.701342 
L 256.244561 267.929764 
L 256.299587 267.889137 
L 256.519692 264.378056 
L 256.794823 259.827363 
L 256.904875 259.406374 
L 256.959901 259.458887 
L 257.290059 261.017239 
L 258.005399 267.338995 
L 258.500635 272.248762 
L 258.610687 272.464845 
L 258.665713 272.406655 
L 258.830792 272.261358 
L 258.940844 272.471586 
L 258.995871 272.369931 
L 259.160949 270.212473 
L 259.43608 266.922264 
L 259.546133 266.706003 
L 259.656185 266.935569 
L 259.87629 268.339931 
L 260.316499 271.8464 
L 260.426552 271.256341 
L 260.866761 264.734823 
L 261.03184 263.891071 
L 261.251945 262.661811 
L 261.361997 262.950099 
L 261.74718 264.645942 
L 261.967285 264.148845 
L 262.572573 259.467225 
L 262.682626 259.650842 
L 262.957757 260.578154 
L 263.012783 260.667922 
L 263.067809 260.589863 
L 263.232888 259.002238 
L 263.673097 254.508671 
L 263.728123 254.470351 
L 263.783149 254.55054 
L 264.388438 256.480029 
L 264.553516 256.436387 
L 264.663569 256.676242 
L 264.883673 258.192903 
L 265.323883 261.446743 
L 265.433935 261.666374 
L 265.599014 260.497433 
L 265.764092 259.671421 
L 265.984197 259.805364 
L 266.80959 263.114024 
L 266.919643 262.842944 
L 267.139747 262.280561 
L 267.2498 262.408117 
L 267.469904 261.711968 
L 268.020166 262.806043 
L 268.40535 264.360847 
L 268.570428 264.551028 
L 268.625455 264.488226 
L 269.010638 262.994096 
L 269.5609 259.787091 
L 269.891057 260.381408 
L 270.27624 262.530174 
L 270.331267 262.317817 
L 270.771476 258.801058 
L 270.991581 258.154583 
L 271.101633 258.38202 
L 271.651895 261.447276 
L 272.422262 269.207279 
L 272.752419 271.302113 
L 272.862471 271.316837 
L 273.082576 271.696668 
L 273.357707 270.705844 
L 273.412733 270.778759 
L 273.522786 270.959005 
L 273.852943 269.775517 
L 274.018022 269.767533 
L 274.1831 270.18799 
L 274.238126 270.107447 
L 274.348179 270.030807 
L 274.513257 270.210521 
L 274.62331 270.25505 
L 274.788388 270.735117 
L 275.228598 272.408074 
L 275.393676 273.090563 
L 275.448703 272.976667 
L 275.833886 270.551144 
L 276.109017 268.533838 
L 276.219069 268.532419 
L 276.384148 268.798353 
L 276.604253 269.358963 
L 276.879384 268.427216 
L 276.93441 268.51042 
L 277.099488 268.673458 
L 277.319593 269.825723 
L 277.484672 270.245116 
L 277.594724 270.255228 
L 277.924881 268.962811 
L 278.034934 269.066772 
L 278.255039 269.160266 
L 278.365091 269.236019 
L 278.695248 268.754179 
L 278.8053 268.561691 
L 279.025405 266.889089 
L 279.190484 266.305416 
L 279.300536 266.522741 
L 279.520641 267.796708 
L 280.180955 272.465732 
L 280.456086 273.680267 
L 280.566139 273.473586 
L 280.84127 270.939313 
L 281.391532 264.671843 
L 281.501584 264.554754 
L 281.666663 265.262612 
L 282.326977 268.980906 
L 282.657134 269.906089 
L 283.042317 271.204716 
L 283.537553 271.318079 
L 283.757658 272.243439 
L 284.142841 274.062936 
L 284.252894 274.265004 
L 284.417972 274.617336 
L 284.472998 274.508052 
L 284.803156 271.982117 
L 284.913208 272.103642 
L 285.078287 272.42546 
L 285.188339 272.002164 
L 285.518496 269.840093 
L 285.958706 267.651588 
L 286.453941 263.185342 
L 286.729072 260.879393 
L 287.05923 258.913002 
L 287.169282 258.730804 
L 287.279334 259.034704 
L 287.77457 261.342605 
L 288.049701 262.889957 
L 288.269806 264.10467 
L 288.489911 265.048481 
L 288.710015 265.077575 
L 288.985146 264.1327 
L 289.150225 264.700938 
L 289.535408 266.617477 
L 289.590435 266.569577 
L 289.975618 263.18889 
L 290.195723 262.987 
L 290.250749 263.056366 
L 290.966089 265.052561 
L 291.021116 264.931214 
L 291.186194 264.585623 
L 291.296247 264.930149 
L 291.571378 266.967148 
L 291.736456 267.829528 
L 292.231692 266.947278 
L 292.341744 267.025338 
L 292.561849 267.684409 
L 292.616875 267.554723 
L 292.892006 266.05261 
L 292.947032 266.113993 
L 293.002059 266.050126 
L 293.112111 265.840962 
L 293.167137 265.88762 
L 293.332216 266.710971 
L 293.607347 268.158265 
L 293.827451 268.817159 
L 293.99253 268.414265 
L 294.157609 267.444376 
L 294.872949 259.846878 
L 294.983002 259.733337 
L 295.14808 260.414229 
L 295.863421 263.562334 
L 295.918447 263.412779 
L 296.248604 262.083993 
L 296.523735 259.30738 
L 296.74384 259.812461 
L 296.798866 259.930969 
L 296.853892 259.842088 
L 297.018971 259.65031 
L 297.184049 259.78443 
L 297.239076 259.665212 
L 297.45918 258.818444 
L 297.569233 258.971369 
L 297.734311 259.72695 
L 298.174521 262.425148 
L 298.284573 262.734903 
L 298.449652 263.704438 
L 298.504678 263.65157 
L 298.724783 263.10675 
L 298.834835 263.313785 
L 299.05494 263.970017 
L 299.220018 264.545174 
L 299.495149 266.724099 
L 299.77028 268.333367 
L 300.100438 270.029565 
L 300.595673 273.103868 
L 300.925831 274.85453 
L 300.980857 274.766181 
L 301.090909 274.674639 
L 301.200961 274.748795 
L 301.531119 273.81829 
L 301.586145 273.705104 
L 301.696197 272.558871 
L 302.026354 267.528112 
L 302.081381 267.403927 
L 302.136407 267.447214 
L 302.301485 267.909007 
L 302.356512 267.853833 
L 302.466564 267.847092 
L 302.576616 268.174942 
L 302.851747 270.238552 
L 303.016826 271.712635 
L 303.071852 271.696845 
L 303.512062 269.045305 
L 303.622114 269.257308 
L 303.842219 269.558192 
L 304.282428 270.750551 
L 304.557559 271.305661 
L 304.83269 271.846045 
L 304.887716 271.809145 
L 305.327926 270.842271 
L 305.548031 270.319627 
L 305.713109 270.461021 
L 305.823162 270.319804 
L 306.043267 269.650267 
L 306.483476 266.809078 
L 306.703581 266.255919 
L 307.033738 264.082849 
L 307.308869 263.621943 
L 307.418921 263.811415 
L 307.859131 265.568286 
L 308.354367 263.070381 
L 308.409393 263.105863 
L 308.574471 263.795625 
L 308.959655 265.957164 
L 309.124733 266.522209 
L 309.344838 267.293756 
L 309.454891 267.572996 
L 309.8951 269.587996 
L 309.950126 269.551628 
L 310.060179 269.54737 
L 310.170231 269.772501 
L 310.225257 269.710408 
L 310.555414 268.68907 
L 310.665467 268.735728 
L 310.830545 269.412895 
L 310.885572 269.343883 
L 311.49086 264.501886 
L 311.545886 264.407683 
L 311.600912 264.458244 
L 311.821017 265.26137 
L 311.876043 265.210809 
L 312.041122 264.142813 
L 312.371279 261.171761 
L 312.591384 260.158584 
L 312.64641 260.18005 
L 312.756462 259.656342 
L 312.976567 258.572556 
L 313.141646 258.258899 
L 313.196672 258.32454 
L 313.36175 258.966757 
L 313.416777 258.824476 
L 313.636881 257.962273 
L 313.746934 258.444645 
L 314.792431 265.873783 
L 315.342693 268.509001 
L 315.562798 269.772323 
L 315.672851 269.204795 
L 316.058034 264.973792 
L 316.388191 260.201162 
L 316.608296 259.543155 
L 316.718348 259.897262 
L 316.828401 260.340959 
L 317.103532 259.065396 
L 317.213584 259.43742 
L 317.433689 261.456856 
L 317.818872 265.118379 
L 318.094003 267.293401 
L 318.42416 269.761324 
L 318.86437 271.07574 
L 318.974422 271.011163 
L 319.139501 270.845819 
L 319.304579 271.418315 
L 319.469658 272.069225 
L 319.524684 272.000745 
L 319.689763 271.613286 
L 320.184998 268.221068 
L 320.73526 262.324913 
L 320.845313 262.309478 
L 321.17547 259.665035 
L 321.230496 259.767931 
L 321.395575 260.943259 
L 322.220968 270.349964 
L 322.33102 270.130155 
L 322.441072 269.88551 
L 322.496099 269.924894 
L 322.661177 270.65209 
L 323.101387 272.990504 
L 323.211439 272.742843 
L 323.431544 272.299678 
L 323.596622 272.52126 
L 323.706675 271.967038 
L 324.036832 269.03608 
L 324.256937 268.452408 
L 324.366989 268.481503 
L 324.532068 268.94436 
L 324.972277 270.782484 
L 325.302435 270.409573 
L 325.467513 270.53979 
L 325.687618 271.130382 
L 326.017775 272.797839 
L 326.678089 276.7457 
L 326.733116 276.675269 
L 327.173325 274.140463 
L 327.338404 274.003327 
L 327.558508 273.428525 
L 327.668561 273.482457 
L 328.163797 274.634899 
L 328.604006 276.547357 
L 328.769085 276.455992 
L 328.934163 276.400996 
L 328.98919 276.434526 
L 329.044216 276.338726 
L 329.154268 275.486635 
L 329.594478 270.658831 
L 329.759556 270.461908 
L 329.924635 270.953861 
L 330.254792 272.383237 
L 330.309818 272.355029 
L 330.419871 271.850658 
L 330.970133 267.016822 
L 331.135211 265.771241 
L 331.355316 264.983549 
L 331.575421 265.030385 
L 331.685473 265.053803 
L 331.850552 265.338543 
L 332.180709 266.162603 
L 332.290761 266.096252 
L 332.400814 265.948294 
L 332.45584 266.010742 
L 332.675945 266.616235 
L 332.951076 265.302174 
L 333.501337 262.366249 
L 333.61139 262.424794 
L 333.721442 262.680439 
L 333.941547 261.552301 
L 333.996573 261.566316 
L 334.216678 262.325445 
L 334.32673 262.654892 
L 334.656888 261.956614 
L 334.876992 262.322607 
L 335.042071 261.835267 
L 335.207149 262.304156 
L 335.262176 262.19505 
L 335.48228 261.665133 
L 335.537307 261.706291 
L 335.702385 262.545431 
L 336.142595 265.132394 
L 336.252647 265.474615 
L 336.472752 264.064044 
L 336.527778 264.082494 
L 336.637831 263.476468 
L 336.857935 262.371571 
L 336.967988 262.194695 
L 337.023014 262.247563 
L 337.133066 262.125861 
L 337.298145 261.557623 
L 337.408197 262.003272 
L 337.683328 265.096735 
L 338.398669 273.110077 
L 338.948931 275.695799 
L 339.003957 275.666882 
L 339.279088 273.126044 
L 339.82935 266.418602 
L 339.884376 266.475905 
L 340.159507 267.628525 
L 340.269559 267.454843 
L 340.379612 267.377315 
L 340.489664 267.782515 
L 340.764795 270.318917 
L 341.094952 273.239408 
L 341.260031 273.076902 
L 341.315057 273.178557 
L 341.645214 274.783567 
L 341.70024 274.625497 
L 342.360555 270.846706 
L 343.461079 267.561997 
L 343.73621 265.552142 
L 343.846262 265.735759 
L 344.011341 266.612687 
L 344.45155 269.254647 
L 344.561602 269.490599 
L 344.616629 269.449973 
L 344.726681 269.575933 
L 344.946786 270.890881 
L 345.111864 271.670766 
L 345.331969 271.147945 
L 345.497048 271.354448 
L 345.717153 270.841207 
L 345.827205 271.216957 
L 346.102336 273.412913 
L 346.487519 276.430268 
L 346.597572 276.202654 
L 346.927729 275.403785 
L 347.147834 275.015794 
L 347.422965 275.040454 
L 347.863174 273.33574 
L 348.413436 270.469892 
L 348.798619 266.113106 
L 349.018724 265.324705 
L 349.128777 265.609445 
L 349.458934 267.881864 
L 349.844117 270.159782 
L 349.954169 269.518098 
L 350.339353 266.794175 
L 350.724536 266.108138 
L 350.779562 266.190101 
L 350.944641 267.028531 
L 351.164746 268.212907 
L 351.274798 268.011194 
L 351.329824 268.042063 
L 351.494903 268.706279 
L 351.604955 269.082561 
L 351.659982 269.043886 
L 351.82506 269.010001 
L 351.990139 269.240986 
L 352.320296 268.732358 
L 352.430348 268.976826 
L 352.595427 269.727439 
L 352.650453 269.597754 
L 352.815532 269.212246 
L 352.925584 269.429748 
L 353.200715 270.837304 
L 353.585898 272.578918 
L 354.081134 275.54518 
L 354.13616 275.426139 
L 354.686422 273.538163 
L 355.016579 271.437652 
L 355.126632 271.461602 
L 355.29171 271.777566 
L 355.511815 272.23173 
L 355.621867 272.356803 
L 355.786946 272.585305 
L 356.282182 271.43162 
L 356.337208 271.509502 
L 356.612339 272.205651 
L 356.722391 271.331917 
L 356.997522 269.010711 
L 357.32768 267.081399 
L 357.712863 267.215697 
L 357.932968 266.888201 
L 358.098046 266.618009 
L 358.153072 266.67815 
L 358.318151 267.491389 
L 359.033492 272.533856 
L 359.363649 271.806838 
L 359.803858 269.672797 
L 359.858884 269.744115 
L 360.023963 270.128913 
L 360.35412 269.382026 
L 360.409146 269.44607 
L 360.574225 270.003663 
L 361.179513 273.377964 
L 361.289565 273.231247 
L 361.674749 272.316354 
L 361.784801 272.051129 
L 361.94988 268.84785 
L 362.280037 262.352234 
L 362.555168 260.160713 
L 362.885325 258.462918 
L 362.940351 258.509399 
L 363.160456 259.332572 
L 363.215482 259.302945 
L 363.600666 256.620891 
L 363.655692 256.687241 
L 363.82077 257.594861 
L 365.196425 268.481325 
L 365.361504 268.677006 
L 365.471556 269.006098 
L 365.526582 268.917749 
L 365.911766 265.953439 
L 366.021818 266.174666 
L 366.241923 267.033499 
L 366.296949 266.979389 
L 366.407002 266.398023 
L 366.57208 265.674376 
L 366.737159 265.727421 
L 366.902237 266.619074 
L 367.562552 271.792113 
L 367.617578 271.846755 
L 367.672604 271.75131 
L 367.892709 271.063321 
L 368.112814 268.871446 
L 368.387945 266.846688 
L 368.497997 267.038998 
L 368.663076 267.495824 
L 369.048259 266.054384 
L 369.103285 266.075141 
L 369.873652 267.916813 
L 370.03873 267.604398 
L 370.148783 267.956552 
L 370.423914 270.332046 
L 370.919149 275.087467 
L 371.139254 275.004617 
L 371.359359 274.595337 
L 371.854595 272.883527 
L 372.019673 273.352594 
L 372.129726 273.602385 
L 372.349831 273.379915 
L 372.514909 273.853949 
L 372.624961 274.281502 
L 372.679988 274.149688 
L 372.79004 273.376367 
L 373.23025 269.155476 
L 373.340302 269.290838 
L 373.505381 268.52621 
L 373.94559 265.903942 
L 374.055643 266.112929 
L 374.330773 267.83077 
L 374.770983 270.929733 
L 374.826009 270.905783 
L 375.266219 269.057901 
L 375.376271 269.135074 
L 375.486324 269.347963 
L 375.54135 269.323836 
L 375.706428 269.351689 
L 376.091612 267.866429 
L 376.366743 265.905539 
L 376.806952 263.349267 
L 377.192136 259.672308 
L 377.302188 259.673728 
L 377.467267 259.393246 
L 377.632345 259.822396 
L 377.907476 260.507723 
L 378.072555 260.637408 
L 378.182607 260.941308 
L 378.402712 261.80972 
L 378.56779 261.774061 
L 378.732869 261.938341 
L 378.842921 262.222371 
L 379.888419 267.719358 
L 380.108524 267.823674 
L 380.383655 267.264306 
L 380.548733 266.971051 
L 380.713812 266.63983 
L 380.988943 265.63375 
L 381.154022 265.491468 
L 381.264074 264.974501 
L 381.704284 261.534205 
L 381.814336 261.430244 
L 381.924388 261.70434 
L 382.584703 265.620799 
L 383.024912 269.560143 
L 383.410096 272.332853 
L 383.850305 273.77997 
L 384.125436 275.003198 
L 384.180462 275.057485 
L 384.290515 274.554001 
L 384.895803 268.756485 
L 385.115908 268.271452 
L 385.22596 268.262404 
L 385.556117 266.687376 
L 385.666169 266.973535 
L 385.996327 269.023484 
L 386.106379 268.841996 
L 386.546589 268.161459 
L 386.601615 268.215036 
L 386.766693 268.755598 
L 386.986798 269.894557 
L 387.041824 269.746067 
L 387.371982 267.248872 
L 387.867217 266.021031 
L 387.922243 266.078866 
L 388.087322 266.161893 
L 388.527532 264.755402 
L 388.747636 263.60846 
L 388.802663 263.610766 
L 388.967741 264.024127 
L 389.628055 261.538818 
L 389.738108 261.825155 
L 389.958213 263.510531 
L 390.178317 264.904425 
L 390.508475 264.533465 
L 390.673553 264.81856 
L 390.728579 264.718856 
L 390.948684 264.284384 
L 391.00371 264.359605 
L 391.168789 265.1512 
L 391.388894 265.80619 
L 391.608998 266.770935 
L 392.049208 270.461731 
L 392.379365 272.633382 
L 392.489418 272.209554 
L 392.709522 271.334046 
L 392.819575 271.633156 
L 393.094706 273.468264 
L 393.369837 274.752166 
L 393.644968 274.119352 
L 393.865072 273.988779 
L 394.19523 272.958571 
L 394.360308 273.180686 
L 394.470361 273.312677 
L 394.690465 271.805951 
L 394.965596 270.516372 
L 395.075649 270.458892 
L 395.240727 270.781065 
L 395.515858 272.168751 
L 395.901042 273.805339 
L 396.396277 274.437267 
L 396.50633 274.55205 
L 396.891513 272.728828 
L 397.001565 272.730957 
L 397.166644 271.349835 
L 397.496801 268.800127 
L 397.606854 268.664765 
L 397.771932 268.90675 
L 398.157116 267.117767 
L 398.212142 267.154491 
L 398.322194 267.392927 
L 398.487273 268.277306 
L 398.487273 268.277306 
" style="fill:none;stroke:#000000;stroke-linecap:square;stroke-width:1.5;"/>
   </g>
   <g id="line2d_17">
    <path clip-path="url(#p97b33e11cf)" d="M 73.832727 272.180992 
L 73.997806 272.166089 
L 74.217911 271.760357 
L 74.493042 272.402397 
L 74.878225 274.517987 
L 75.318435 276.42601 
L 75.483513 276.653625 
L 75.758644 276.233523 
L 75.923723 274.666123 
L 76.363932 270.917492 
L 76.473985 270.731214 
L 76.584037 271.120802 
L 76.914194 273.830709 
L 77.024247 273.526454 
L 77.189325 273.124625 
L 77.464456 273.470925 
L 77.849639 274.393092 
L 78.12477 274.299953 
L 78.289849 274.432477 
L 78.56498 274.78676 
L 78.950163 272.771228 
L 79.00519 272.799791 
L 79.225294 273.165606 
L 79.28032 273.02847 
L 79.885609 268.171926 
L 80.105713 266.985953 
L 80.380844 266.955439 
L 80.766028 265.277869 
L 81.041159 262.202501 
L 81.096185 262.169681 
L 81.206237 262.549157 
L 81.756499 265.249839 
L 81.811525 265.190052 
L 82.086656 264.16694 
L 82.141683 264.185391 
L 82.361787 263.677294 
L 82.581892 264.017208 
L 82.746971 263.810705 
L 82.857023 263.199357 
L 83.077128 262.294044 
L 83.18718 262.602734 
L 83.737442 266.11896 
L 84.177652 269.462214 
L 84.452783 268.775645 
L 84.617861 268.362817 
L 84.672888 268.408411 
L 84.837966 269.139332 
L 85.553307 273.639108 
L 85.773411 274.381206 
L 85.993516 274.797405 
L 86.268647 275.360675 
L 86.323673 275.282616 
L 86.598804 274.491908 
L 87.259119 268.401492 
L 87.369171 268.63567 
L 87.754354 271.218553 
L 88.359643 274.424671 
L 88.524721 275.099353 
L 88.579747 274.899592 
L 89.240062 269.992664 
L 89.350114 270.144525 
L 89.680271 271.231504 
L 89.735297 271.177572 
L 90.010428 270.316966 
L 90.615716 271.057289 
L 90.780795 270.733875 
L 90.890847 270.927072 
L 91.165978 272.22286 
L 91.606188 275.907269 
L 91.936345 278.332259 
L 92.046398 278.192817 
L 92.541633 275.669543 
L 92.981843 273.0141 
L 93.146921 272.167154 
L 93.256974 272.299855 
L 93.312 272.411977 
L 93.367026 272.278034 
L 93.697183 271.474376 
L 93.862262 271.883479 
L 93.972314 272.129011 
L 94.082367 272.028243 
L 94.137393 272.084482 
L 94.302471 272.761471 
L 94.522576 274.005101 
L 94.577602 273.907526 
L 94.687655 273.414687 
L 94.962786 270.084561 
L 95.237917 267.785531 
L 95.347969 267.302094 
L 95.568074 266.461003 
L 95.733153 266.589446 
L 95.898231 267.223857 
L 96.283414 269.327384 
L 96.338441 269.251453 
L 96.448493 269.183329 
L 96.558545 269.437732 
L 96.888703 270.602238 
L 97.053781 270.466876 
L 97.163834 269.978294 
L 97.549017 264.896797 
L 97.879174 261.909069 
L 98.044253 261.217177 
L 98.319384 261.387489 
L 98.539488 261.39494 
L 98.594515 261.460581 
L 98.759593 261.132199 
L 98.814619 261.223209 
L 99.034724 262.453356 
L 99.199803 263.522239 
L 99.254829 263.499176 
L 99.364881 263.367717 
L 99.419908 263.429455 
L 99.584986 264.24021 
L 100.025196 266.872057 
L 100.410379 268.222664 
L 100.795562 268.706988 
L 100.960641 268.246615 
L 101.180746 267.790853 
L 101.345824 267.693634 
L 101.400851 267.721664 
L 101.565929 267.418474 
L 101.620955 267.448811 
L 101.731008 267.697359 
L 101.951112 268.917394 
L 102.061165 268.814675 
L 102.116191 268.831706 
L 102.226243 269.244002 
L 102.611427 272.602513 
L 102.886558 274.87032 
L 102.941584 274.843886 
L 103.216715 273.895817 
L 103.987082 266.287143 
L 104.097134 265.686262 
L 104.427291 262.839928 
L 104.537344 263.163521 
L 104.812475 265.640668 
L 105.197658 269.425668 
L 105.252684 269.391606 
L 106.133103 265.982179 
L 106.298182 264.913118 
L 106.518287 263.911295 
L 106.683365 263.727323 
L 107.178601 261.696889 
L 107.233627 261.78027 
L 107.453732 262.198953 
L 107.61881 262.326332 
L 107.948968 263.10196 
L 108.169072 262.723194 
L 108.279125 262.793802 
L 108.444203 263.615024 
L 109.104518 268.693328 
L 109.324622 270.190119 
L 109.489701 271.031565 
L 109.819858 273.675654 
L 109.874884 273.482102 
L 110.260068 271.715828 
L 110.81033 270.893542 
L 111.305565 266.469519 
L 111.52567 265.150313 
L 111.635723 265.20318 
L 111.910854 264.340268 
L 111.96588 264.400586 
L 112.075932 264.37983 
L 112.185985 264.556883 
L 112.241011 264.484323 
L 112.406089 264.167472 
L 112.626194 263.450212 
L 112.791273 263.122007 
L 112.956351 262.662343 
L 113.066404 262.97263 
L 113.396561 264.268772 
L 113.671692 263.807334 
L 113.781744 263.722001 
L 114.056875 263.970372 
L 114.166928 263.339864 
L 114.332006 262.640522 
L 114.607137 263.074284 
L 114.71719 262.532658 
L 114.937294 261.279093 
L 115.047347 261.307655 
L 115.267451 262.004514 
L 115.542582 263.208227 
L 115.707661 262.067316 
L 115.817713 261.687131 
L 115.87274 261.763771 
L 116.037818 262.809946 
L 116.58808 268.228342 
L 116.643106 268.221777 
L 116.753159 267.851704 
L 117.02829 264.780594 
L 117.138342 264.864154 
L 117.413473 266.022273 
L 117.74363 268.09085 
L 117.853683 267.944489 
L 118.403945 266.425167 
L 118.458971 266.455149 
L 118.569023 266.550771 
L 118.89918 265.204422 
L 119.174311 265.641378 
L 119.33939 265.183311 
L 119.449442 265.272015 
L 119.614521 263.694325 
L 119.889652 261.410907 
L 119.999704 261.249111 
L 120.109757 260.601926 
L 120.329861 259.483014 
L 120.549966 259.093249 
L 120.604992 259.212999 
L 120.715045 259.441146 
L 120.825097 259.254513 
L 120.935149 259.578637 
L 121.100228 260.118135 
L 121.320333 259.959532 
L 121.430385 259.840846 
L 121.760542 258.640858 
L 121.980647 259.114893 
L 122.145726 259.946759 
L 122.200752 259.762964 
L 122.420857 258.771076 
L 122.530909 259.032575 
L 122.751014 259.659003 
L 122.80604 259.798623 
L 122.861066 259.750545 
L 122.971119 259.569767 
L 123.026145 259.604006 
L 123.191223 259.81796 
L 123.356302 260.696485 
L 123.906564 264.511644 
L 124.016616 264.567882 
L 124.181695 265.029675 
L 124.4018 266.446633 
L 124.786983 269.371913 
L 124.952062 269.250034 
L 125.227193 267.297837 
L 125.337245 267.556143 
L 125.612376 268.844834 
L 125.667402 268.780613 
L 125.777455 268.80953 
L 126.217664 270.283613 
L 126.547821 271.925347 
L 126.657874 271.907606 
L 126.767926 271.750068 
L 126.822952 271.790162 
L 127.263162 272.044565 
L 127.483267 271.853851 
L 127.648345 272.084837 
L 128.198607 273.54455 
L 128.308659 273.878964 
L 128.363686 273.826628 
L 128.528764 273.614094 
L 128.638817 273.856965 
L 128.913948 275.225313 
L 128.968974 274.94767 
L 129.46421 271.984424 
L 129.574262 271.24339 
L 129.849393 268.901073 
L 129.959445 268.923071 
L 130.17955 269.11893 
L 130.344629 269.883913 
L 130.564733 271.031743 
L 130.61976 271.019502 
L 131.059969 269.573094 
L 131.390126 268.873574 
L 131.445153 269.002727 
L 131.555205 269.412717 
L 131.610231 269.37422 
L 131.720284 269.443231 
L 131.885362 270.218859 
L 132.050441 270.747358 
L 132.160493 270.669121 
L 132.380598 269.56582 
L 132.820807 265.293126 
L 132.875834 265.204777 
L 132.93086 265.292771 
L 133.095938 265.812222 
L 133.316043 267.580625 
L 133.866305 272.572531 
L 134.196462 274.063645 
L 134.471593 275.069549 
L 134.526619 275.04276 
L 134.636672 275.012423 
L 134.80175 275.421171 
L 135.021855 276.267585 
L 135.076881 276.198928 
L 135.186934 276.186687 
L 135.352012 276.730265 
L 135.572117 277.608612 
L 135.847248 276.676688 
L 135.902274 276.696558 
L 136.067353 277.135465 
L 136.452536 279.21238 
L 136.727667 280.42248 
L 137.002798 280.478009 
L 137.112851 279.996169 
L 138.048296 273.175009 
L 138.158348 273.2112 
L 138.268401 272.636043 
L 138.543532 271.159299 
L 138.653584 270.814063 
L 138.818663 270.337368 
L 138.928715 270.618027 
L 139.14882 271.841965 
L 139.203846 271.617367 
L 139.589029 269.271501 
L 139.699082 269.295273 
L 139.809134 269.441457 
L 139.919186 269.182087 
L 140.139291 268.464117 
L 140.414422 267.81161 
L 140.524475 267.753598 
L 140.909658 265.673311 
L 140.964684 265.703471 
L 141.01971 265.696729 
L 141.129763 265.137539 
L 141.294841 264.493371 
L 141.404894 264.799754 
L 141.955156 268.745131 
L 142.505418 274.191379 
L 142.560444 274.140108 
L 142.670496 273.424799 
L 143.05568 269.734181 
L 143.165732 269.245599 
L 143.33081 268.742825 
L 143.440863 269.072626 
L 143.826046 270.683668 
L 143.881072 270.842626 
L 143.936099 270.732101 
L 144.156203 268.551756 
L 144.706465 262.510659 
L 145.036622 259.308267 
L 145.091649 259.317138 
L 145.201701 259.778044 
L 145.586884 261.9795 
L 145.641911 261.972581 
L 145.751963 261.761465 
L 145.862015 262.195937 
L 146.302225 265.265273 
L 146.412277 265.48313 
L 146.632382 266.737582 
L 147.017565 269.077061 
L 147.23767 269.800709 
L 147.347723 269.655057 
L 147.457775 269.803902 
L 147.512801 269.710231 
L 147.622854 269.622059 
L 147.732906 269.665879 
L 147.897985 269.281613 
L 148.228142 268.345786 
L 148.448247 266.948343 
L 148.503273 266.9581 
L 148.613325 267.342189 
L 149.108561 270.22631 
L 149.163587 270.191361 
L 149.273639 269.40704 
L 149.603797 264.481839 
L 149.98898 260.221386 
L 150.099032 259.867457 
L 150.154059 259.933808 
L 150.319137 260.755917 
L 150.539242 261.821606 
L 150.759347 262.003627 
L 150.979451 263.189599 
L 151.804844 268.502082 
L 152.630237 271.192297 
L 152.905368 272.355384 
L 152.960394 272.313516 
L 153.620709 270.253099 
L 154.391076 263.771498 
L 154.556154 263.92673 
L 154.666206 264.048964 
L 154.721233 263.992371 
L 154.831285 263.220291 
L 155.106416 260.453436 
L 155.161442 260.441372 
L 155.271495 260.799204 
L 155.546626 263.009885 
L 155.821757 265.162022 
L 156.041861 265.28532 
L 156.096888 265.291175 
L 156.20694 264.76924 
L 156.702176 260.745272 
L 157.197411 258.226966 
L 157.36249 257.775817 
L 157.582595 255.36502 
L 157.857726 253.216431 
L 157.967778 253.040443 
L 158.077831 253.331392 
L 158.242909 254.131502 
L 158.297935 253.986205 
L 158.51804 252.694852 
L 158.848197 248.618548 
L 158.903223 248.569584 
L 159.398459 245.649803 
L 159.453485 245.70338 
L 159.618564 246.311535 
L 159.783643 246.869305 
L 160.003747 246.135191 
L 160.223852 245.425914 
L 160.333904 245.826679 
L 160.774114 248.438124 
L 160.82914 248.440253 
L 160.939193 247.773554 
L 161.214324 244.489732 
L 161.544481 239.095109 
L 161.764586 238.004228 
L 161.874638 237.987196 
L 161.98469 238.158573 
L 162.149769 238.916282 
L 163.14024 245.38103 
L 163.305319 245.878482 
L 163.360345 245.862338 
L 163.525424 245.490313 
L 163.635476 243.549469 
L 164.020659 236.193247 
L 164.185738 235.450794 
L 164.29579 235.710342 
L 164.625948 237.778032 
L 164.901079 239.546968 
L 165.726471 246.2537 
L 165.89155 247.028618 
L 166.056629 248.29265 
L 166.111655 248.151078 
L 166.441812 246.600177 
L 166.496838 246.648787 
L 166.937048 248.045698 
L 167.102126 248.967687 
L 167.157153 248.829841 
L 167.432284 247.798568 
L 167.542336 247.986089 
L 167.817467 248.676206 
L 167.982545 247.739137 
L 169.303174 238.643961 
L 169.633331 236.123171 
L 170.183593 233.662699 
L 170.458724 232.178681 
L 170.568777 232.267208 
L 170.733855 233.123024 
L 171.119039 235.361381 
L 171.394169 235.909926 
L 172.10951 231.208437 
L 172.494693 228.670438 
L 172.604746 228.673454 
L 172.769824 229.356297 
L 173.155008 231.359588 
L 173.26506 231.334751 
L 173.375112 231.383716 
L 173.540191 231.256337 
L 173.595217 231.33209 
L 173.650243 231.267336 
L 173.760296 231.083187 
L 173.815322 231.125765 
L 173.980401 231.695067 
L 174.035427 231.607782 
L 174.200505 230.797382 
L 174.530663 228.56417 
L 174.750767 228.022899 
L 174.86082 228.049865 
L 175.190977 227.364183 
L 175.301029 227.394874 
L 175.466108 227.160873 
L 175.741239 226.099619 
L 175.851291 226.480336 
L 176.181448 228.576412 
L 176.236475 228.566832 
L 176.401553 228.373279 
L 176.511606 228.69084 
L 176.786737 230.845637 
L 176.896789 231.402521 
L 176.951815 231.358701 
L 177.336998 230.741499 
L 177.557103 230.796141 
L 177.722182 231.151311 
L 178.272444 234.042884 
L 178.877732 238.394348 
L 179.04281 238.458747 
L 179.262915 239.126333 
L 179.593072 240.717328 
L 179.648099 240.63164 
L 179.758151 239.135204 
L 180.088308 233.815447 
L 180.418465 232.127942 
L 180.748622 230.325832 
L 180.913701 227.605103 
L 181.188832 224.086747 
L 181.518989 222.837795 
L 181.629042 222.668725 
L 181.849146 221.095116 
L 182.014225 220.344503 
L 182.069251 220.451125 
L 182.23433 222.919225 
L 182.509461 226.369456 
L 182.564487 226.54101 
L 182.729565 225.503173 
L 183.059723 222.491849 
L 183.38988 219.255573 
L 183.609985 218.691415 
L 184.270299 212.833048 
L 184.435378 209.120609 
L 184.54543 203.255145 
L 184.600456 196.98874 
L 184.710508 114.598513 
L 184.875587 229.442518 
L 184.930613 229.810817 
L 185.535901 219.773782 
L 185.756006 218.037844 
L 186.031137 211.199298 
L 186.361294 198.275303 
L 186.41632 187.293393 
L 186.471347 61.41053 
L 186.526373 186.961462 
L 186.691451 226.833555 
L 187.021609 223.22827 
L 187.571871 225.076861 
L 187.626897 224.902115 
L 187.902028 223.909339 
L 188.01208 224.045411 
L 188.122133 223.153226 
L 188.892499 209.162299 
L 189.057578 199.020771 
L 189.112604 186.440592 
L 189.16763 67.529155 
L 189.332709 229.354346 
L 189.387735 230.468291 
L 189.937997 217.814665 
L 190.653337 212.656527 
L 190.928468 206.994551 
L 191.093547 199.444776 
L 191.148573 191.544266 
L 191.203599 79.981422 
L 191.258626 170.809706 
L 191.423704 227.452709 
L 191.47873 227.762641 
L 192.194071 218.31123 
L 192.359149 218.051505 
L 192.469202 217.767297 
L 192.63428 216.723961 
L 192.909411 211.878771 
L 193.129516 203.734147 
L 193.239569 191.49335 
L 193.294595 69.402228 
L 193.349621 175.802676 
L 193.5147 228.808284 
L 193.624752 226.969273 
L 193.844857 224.396857 
L 193.954909 224.137486 
L 194.615223 220.876727 
L 194.945381 218.050085 
L 195.275538 214.654496 
L 195.38559 214.088742 
L 195.550669 211.913188 
L 195.770773 205.764936 
L 195.880826 198.432664 
L 195.935852 186.492041 
L 195.990878 65.03125 
L 196.045904 188.753106 
L 196.210983 229.275754 
L 196.266009 229.123006 
L 196.486114 227.693275 
L 196.706219 227.928518 
L 196.761245 227.853474 
L 196.98135 227.284704 
L 197.146428 226.850941 
L 197.256481 227.397003 
L 197.916795 231.379813 
L 198.191926 232.642248 
L 198.577109 234.31698 
L 198.632136 234.28203 
L 198.85224 231.995241 
L 199.127371 228.689953 
L 199.29245 228.179018 
L 199.567581 227.232901 
L 199.677633 227.466192 
L 199.897738 227.95779 
L 200.282921 227.929937 
L 200.448 227.183936 
L 200.833183 224.594312 
L 200.998262 224.430919 
L 201.108314 224.408033 
L 201.383445 222.925435 
L 201.823655 219.942674 
L 201.878681 219.972833 
L 201.988733 220.07094 
L 202.098786 219.602938 
L 202.263864 217.509701 
L 202.538995 209.689733 
L 202.649048 203.292756 
L 202.704074 196.091942 
L 202.814126 139.90878 
L 202.979205 231.826349 
L 203.089257 229.508336 
L 203.419414 222.305748 
L 203.639519 220.549232 
L 203.804598 219.877743 
L 204.574965 211.456362 
L 204.795069 204.940344 
L 204.905122 198.568026 
L 204.960148 189.755461 
L 205.015174 59.50162 
L 205.0702 180.224039 
L 205.235279 228.074702 
L 205.290305 228.281914 
L 205.950619 217.717445 
L 206.22575 215.533021 
L 206.720986 207.887446 
L 206.831039 202.490694 
L 206.886065 196.540962 
L 206.996117 110.524161 
L 207.161196 228.674341 
L 207.216222 229.782963 
L 207.271248 229.160616 
L 207.546379 225.713224 
L 207.876536 224.912759 
L 208.041615 224.978755 
L 208.371772 225.457224 
L 208.426798 225.321862 
L 210.022558 207.361786 
L 210.13261 203.038885 
L 210.242663 185.840066 
L 210.297689 67.787106 
L 210.462767 225.688564 
L 210.517794 227.973757 
L 210.57282 227.727692 
L 210.847951 224.822636 
L 210.902977 224.802411 
L 211.068055 225.781171 
L 211.28816 227.010254 
L 211.398213 226.805348 
L 212.223606 220.309554 
L 212.88392 209.563419 
L 213.048998 201.302593 
L 213.104025 193.912308 
L 213.159051 122.693108 
L 213.214077 155.720091 
L 213.379156 229.290124 
L 213.434182 228.981434 
L 213.709313 224.488754 
L 213.874391 224.413888 
L 213.929418 224.372374 
L 214.03947 223.74985 
L 214.919889 216.636498 
L 215.525177 214.187026 
L 215.800308 211.377061 
L 216.020413 206.664217 
L 216.130465 199.858314 
L 216.185492 189.61655 
L 216.240518 53.818532 
L 216.295544 184.345936 
L 216.460622 230.138666 
L 216.515649 229.927374 
L 216.735753 227.655309 
L 216.79078 227.626392 
L 216.900832 228.07346 
L 217.451094 231.373781 
L 217.50612 231.436761 
L 217.561146 231.359766 
L 217.671199 230.241918 
L 218.166435 223.153404 
L 218.496592 220.74172 
L 218.936801 214.872176 
L 219.10188 207.814708 
L 219.211932 197.019431 
L 219.321985 124.280377 
L 219.487063 232.228178 
L 219.597116 229.118925 
L 220.25743 201.541384 
L 220.312456 192.767316 
L 220.367482 61.442109 
L 220.422508 179.988796 
L 220.587587 232.560995 
L 221.027797 224.648066 
L 221.192875 224.343102 
L 221.357954 224.575152 
L 221.633085 223.093085 
L 221.963242 220.196367 
L 222.183347 218.456172 
L 222.403451 218.067649 
L 222.678582 216.116693 
L 223.283871 208.875608 
L 223.393923 203.78187 
L 223.503975 182.669431 
L 223.559002 83.010841 
L 223.72408 227.828105 
L 223.779106 228.584572 
L 224.109263 222.522718 
L 224.824604 219.31873 
L 224.989683 215.142546 
L 225.264814 203.622025 
L 225.31984 197.949404 
L 225.374866 180.593402 
L 225.429892 93.720253 
L 225.594971 229.563332 
L 225.649997 229.205678 
L 225.980154 220.000332 
L 226.365337 216.373757 
L 226.805547 206.732342 
L 226.915599 199.182212 
L 226.970626 186.933964 
L 227.025652 65.115696 
L 227.19073 226.687549 
L 227.245757 227.459096 
L 227.575914 219.765621 
L 227.740992 219.123581 
L 227.906071 219.232332 
L 228.016123 218.207624 
L 228.34628 211.506924 
L 228.511359 205.590544 
L 228.621411 195.764092 
L 228.731464 125.185336 
L 228.896542 229.742514 
L 228.951569 229.707565 
L 229.2267 224.025896 
L 229.611883 219.335052 
L 229.887014 213.538423 
L 230.162145 204.984164 
L 230.272197 195.81146 
L 230.38225 117.030422 
L 230.547328 228.351991 
L 230.602354 228.407342 
L 230.877485 223.811233 
L 230.932512 223.76422 
L 230.987538 223.832522 
L 231.372721 224.496382 
L 231.5378 223.213545 
L 231.812931 218.59526 
L 232.25314 213.325178 
L 232.473245 211.174816 
L 232.638324 206.972552 
L 232.748376 200.821994 
L 232.803402 193.251818 
L 232.858428 103.09804 
L 232.913455 162.55846 
L 233.078533 227.576363 
L 233.133559 227.401616 
L 233.463716 222.958433 
L 233.683821 222.022783 
L 233.903926 222.135792 
L 234.069005 222.47606 
L 234.289109 223.556475 
L 235.279581 229.478177 
L 235.499686 229.305913 
L 235.71979 228.60391 
L 235.829843 228.791075 
L 236.104974 229.383441 
L 236.215026 229.282495 
L 236.655236 228.176179 
L 236.820314 228.711419 
L 237.095445 230.656698 
L 238.030891 237.810143 
L 238.085917 238.000502 
L 238.140943 237.962182 
L 238.361048 237.16633 
L 238.4711 237.398024 
L 238.801257 239.401138 
L 239.131414 241.639318 
L 239.461572 242.511633 
L 239.516598 242.260068 
L 239.791729 240.935363 
L 240.011834 241.045001 
L 240.176912 241.054403 
L 240.341991 241.737069 
L 240.507069 242.377867 
L 240.562096 242.363142 
L 240.727174 242.093837 
L 240.7822 242.136592 
L 241.057331 242.868578 
L 241.112357 242.731619 
L 241.442515 241.944637 
L 241.497541 241.9088 
L 241.607593 242.240198 
L 241.992777 244.083645 
L 242.157855 243.857805 
L 242.267908 244.084709 
L 242.322934 244.037519 
L 242.432986 243.923623 
L 242.488012 243.964427 
L 242.708117 244.232845 
L 242.818169 244.464717 
L 242.873196 244.443606 
L 243.0933 244.144318 
L 243.203353 244.496296 
L 243.698589 247.994072 
L 244.248851 251.993381 
L 244.303877 252.000832 
L 244.468955 251.662337 
L 244.579008 252.015911 
L 245.404401 256.11244 
L 245.569479 256.769204 
L 245.734558 257.376294 
L 245.84461 257.295751 
L 245.954663 257.228513 
L 246.064715 257.353231 
L 246.119741 257.319346 
L 246.229794 257.470675 
L 246.339846 257.881907 
L 246.394872 257.797106 
L 246.614977 257.414082 
L 246.725029 257.512011 
L 246.890108 258.275398 
L 247.385344 261.896827 
L 247.495396 261.825155 
L 247.715501 261.980209 
L 248.100684 262.646731 
L 248.320789 263.149328 
L 248.540894 262.983451 
L 248.705972 262.662698 
L 248.816025 262.909827 
L 248.871051 263.122539 
L 248.926077 263.051221 
L 249.366287 261.257981 
L 249.476339 261.389086 
L 249.641418 262.099073 
L 250.136653 266.153732 
L 250.46681 268.254066 
L 250.686915 268.790902 
L 251.292203 271.175798 
L 251.512308 271.039194 
L 251.787439 270.280065 
L 251.897492 270.251502 
L 252.06257 270.586271 
L 252.282675 271.174556 
L 252.392727 271.034936 
L 252.50278 270.564273 
L 252.998015 267.225631 
L 253.163094 267.060642 
L 253.273146 267.049998 
L 253.383199 266.722148 
L 253.493251 265.609622 
L 253.878435 260.279576 
L 254.208592 259.043397 
L 254.263618 259.087039 
L 254.538749 260.024286 
L 254.593775 259.759061 
L 254.758854 259.272608 
L 255.144037 260.225999 
L 255.309116 260.783237 
L 255.584247 259.050671 
L 255.694299 259.137423 
L 255.804351 259.498981 
L 256.299587 262.639635 
L 256.519692 259.194726 
L 256.794823 254.519138 
L 256.904875 254.04741 
L 256.959901 254.077392 
L 257.290059 255.543315 
L 257.950373 261.192872 
L 258.500635 267.492985 
L 258.665713 267.909185 
L 258.72074 267.878848 
L 258.830792 267.981035 
L 258.940844 268.323964 
L 258.995871 268.287951 
L 259.160949 266.260887 
L 259.43608 262.95205 
L 259.546133 262.713791 
L 259.601159 262.771626 
L 259.766237 263.498289 
L 260.096394 266.559819 
L 260.316499 268.04845 
L 260.371525 267.925683 
L 260.481578 266.500388 
L 260.811735 261.15331 
L 261.251945 258.580894 
L 261.306971 258.62773 
L 261.527076 259.684017 
L 261.74718 260.388682 
L 261.967285 259.828428 
L 262.627599 254.864906 
L 262.682626 254.994414 
L 262.957757 255.808007 
L 263.012783 255.877197 
L 263.067809 255.782993 
L 263.232888 254.147823 
L 263.728123 249.380338 
L 263.838176 249.599614 
L 264.223359 251.064118 
L 264.388438 251.08381 
L 264.553516 250.959447 
L 264.663569 251.143774 
L 264.828647 252.099293 
L 265.378909 255.87081 
L 265.433935 255.949402 
L 265.599014 254.784895 
L 265.764092 253.932805 
L 265.984197 254.059652 
L 266.699538 257.008527 
L 266.80959 257.603909 
L 266.864616 257.539332 
L 267.139747 256.884164 
L 267.2498 257.04259 
L 267.469904 256.403034 
L 267.745035 257.160034 
L 267.910114 257.372391 
L 268.020166 257.641342 
L 268.460376 259.439194 
L 268.625455 259.582717 
L 268.955612 258.557477 
L 269.5609 255.04675 
L 269.615926 255.123922 
L 269.781005 255.39713 
L 269.891057 255.613213 
L 270.27624 257.778478 
L 270.331267 257.578894 
L 270.771476 254.041201 
L 270.991581 253.365099 
L 271.101633 253.568764 
L 271.651895 256.574233 
L 272.642367 267.000678 
L 272.862471 267.591447 
L 273.082576 268.243244 
L 273.137602 268.147798 
L 273.357707 267.499549 
L 273.522786 267.869445 
L 273.852943 266.844204 
L 274.018022 266.891572 
L 274.1831 267.366139 
L 274.293153 267.236453 
L 274.403205 267.391685 
L 274.788388 268.085173 
L 275.33865 270.473085 
L 275.393676 270.686507 
L 275.448703 270.597625 
L 275.833886 268.227809 
L 276.109017 266.162425 
L 276.219069 266.142733 
L 276.384148 266.390572 
L 276.604253 266.945149 
L 276.879384 265.98484 
L 276.93441 266.061835 
L 277.099488 266.215293 
L 277.319593 267.379267 
L 277.484672 267.828286 
L 277.594724 267.854188 
L 277.924881 266.574367 
L 278.034934 266.681344 
L 278.255039 266.786724 
L 278.365091 266.869751 
L 278.915353 265.465389 
L 279.190484 263.861621 
L 279.300536 264.056592 
L 279.520641 265.312464 
L 280.235982 270.375511 
L 280.511112 271.499213 
L 280.566139 271.35427 
L 280.786243 269.529274 
L 281.446558 262.271868 
L 281.501584 262.264594 
L 281.611636 262.612491 
L 282.492055 267.000146 
L 282.877239 268.509001 
L 283.097344 269.027919 
L 283.537553 269.234067 
L 283.757658 270.206973 
L 284.197867 272.247875 
L 284.417972 272.818241 
L 284.472998 272.726699 
L 284.803156 270.216376 
L 284.858182 270.223472 
L 285.078287 270.671072 
L 285.188339 270.251325 
L 285.518496 268.037096 
L 285.958706 265.757225 
L 286.453941 261.125635 
L 286.729072 258.696387 
L 287.05923 256.58807 
L 287.169282 256.357795 
L 287.224308 256.429645 
L 287.719544 258.258899 
L 288.049701 260.260416 
L 288.269806 261.465194 
L 288.489911 262.437035 
L 288.710015 262.497353 
L 288.985146 261.580154 
L 289.150225 262.164713 
L 289.535408 264.166763 
L 289.590435 264.135716 
L 289.975618 260.766384 
L 290.195723 260.556865 
L 290.250749 260.623925 
L 290.966089 262.662166 
L 291.021116 262.548447 
L 291.186194 262.215984 
L 291.296247 262.569736 
L 291.571378 264.660489 
L 291.736456 265.579463 
L 291.901535 265.133814 
L 292.121639 264.761789 
L 292.341744 264.901409 
L 292.561849 265.59809 
L 292.616875 265.479405 
L 292.892006 263.987581 
L 292.947032 264.048254 
L 293.002059 263.985984 
L 293.112111 263.777707 
L 293.167137 263.823833 
L 293.332216 264.653038 
L 293.607347 266.150716 
L 293.827451 266.864429 
L 293.99253 266.499678 
L 294.157609 265.556045 
L 294.872949 257.83791 
L 294.983002 257.698822 
L 295.14808 258.347248 
L 295.863421 261.417116 
L 295.918447 261.268626 
L 296.248604 259.921922 
L 296.523735 257.09936 
L 296.688814 257.497464 
L 296.798866 257.689774 
L 296.853892 257.597877 
L 297.018971 257.3896 
L 297.184049 257.50456 
L 297.294102 257.040461 
L 297.45918 256.502028 
L 297.569233 256.639164 
L 297.734311 257.377004 
L 298.174521 260.072186 
L 298.284573 260.388682 
L 298.449652 261.376667 
L 298.504678 261.334799 
L 298.724783 260.815526 
L 298.834835 261.03356 
L 299.109966 261.851588 
L 299.330071 263.064172 
L 299.880333 266.819367 
L 300.155464 268.655717 
L 300.705726 272.216296 
L 300.925831 273.495762 
L 300.980857 273.435089 
L 301.090909 273.38914 
L 301.200961 273.503746 
L 301.531119 272.647575 
L 301.586145 272.543081 
L 301.696197 271.407493 
L 302.026354 266.313222 
L 302.081381 266.17715 
L 302.136407 266.210148 
L 302.301485 266.651894 
L 302.356512 266.59122 
L 302.466564 266.571706 
L 302.576616 266.888734 
L 302.796721 268.446731 
L 303.071852 270.446829 
L 303.346983 268.509711 
L 303.512062 267.803627 
L 303.622114 268.014387 
L 303.842219 268.322723 
L 304.282428 269.541338 
L 304.557559 270.124301 
L 304.83269 270.693603 
L 304.887716 270.662557 
L 305.327926 269.716795 
L 305.548031 269.190425 
L 305.713109 269.333239 
L 305.823162 269.192909 
L 306.043267 268.518049 
L 306.483476 265.617783 
L 306.703581 265.036594 
L 307.033738 262.801076 
L 307.308869 262.288544 
L 307.418921 262.459743 
L 307.859131 264.18131 
L 308.354367 261.630893 
L 308.409393 261.660343 
L 308.574471 262.337509 
L 308.959655 264.510225 
L 309.124733 265.08822 
L 309.344838 265.890104 
L 309.454891 266.185488 
L 309.8951 268.301256 
L 309.950126 268.277129 
L 310.060179 268.294692 
L 310.170231 268.540757 
L 310.225257 268.490196 
L 310.555414 267.508952 
L 310.665467 267.564658 
L 310.830545 268.259565 
L 310.885572 268.198537 
L 311.545886 263.22721 
L 311.655938 263.445067 
L 311.821017 264.063689 
L 311.876043 264.011531 
L 312.041122 262.933245 
L 312.371279 259.91447 
L 312.591384 258.863328 
L 312.64641 258.876456 
L 312.756462 258.338378 
L 312.976567 257.214675 
L 313.141646 256.870504 
L 313.196672 256.9255 
L 313.36175 257.539864 
L 313.416777 257.390664 
L 313.636881 256.489964 
L 313.746934 256.952999 
L 314.792431 264.414957 
L 315.342693 267.186247 
L 315.562798 268.532596 
L 315.672851 268.001614 
L 316.058034 263.818333 
L 316.388191 259.011641 
L 316.608296 258.326669 
L 316.718348 258.66747 
L 316.828401 259.100522 
L 317.103532 257.789123 
L 317.213584 258.145358 
L 317.433689 260.142262 
L 317.818872 263.814608 
L 318.094003 266.027063 
L 318.42416 268.588835 
L 318.86437 270.037726 
L 318.974422 270.001534 
L 319.139501 269.870962 
L 319.304579 270.475923 
L 319.469658 271.163379 
L 319.524684 271.106254 
L 319.689763 270.745229 
L 320.129972 267.953182 
L 321.065418 259.088281 
L 321.17547 258.675098 
L 321.230496 258.76877 
L 321.395575 259.922099 
L 322.220968 269.389299 
L 322.33102 269.194151 
L 322.441072 268.96831 
L 322.496099 269.01621 
L 322.661177 269.771969 
L 323.101387 272.204942 
L 323.211439 271.978747 
L 323.431544 271.562193 
L 323.596622 271.801871 
L 323.706675 271.257583 
L 324.036832 268.318465 
L 324.256937 267.723084 
L 324.366989 267.747034 
L 324.532068 268.205278 
L 324.972277 270.056708 
L 325.302435 269.69178 
L 325.467513 269.825901 
L 325.687618 270.424653 
L 326.017775 272.116947 
L 326.678089 276.166285 
L 326.733116 276.105257 
L 327.173325 273.588547 
L 327.338404 273.45283 
L 327.558508 272.876076 
L 327.668561 272.928944 
L 328.163797 274.090611 
L 328.604006 276.038551 
L 328.769085 275.958185 
L 328.934163 275.910463 
L 328.98919 275.946477 
L 329.044216 275.852983 
L 329.154268 275.002489 
L 329.594478 270.127317 
L 329.759556 269.914427 
L 329.924635 270.395912 
L 330.254792 271.822095 
L 330.309818 271.794775 
L 330.419871 271.290049 
L 330.970133 266.407248 
L 331.135211 265.144458 
L 331.355316 264.331043 
L 331.575421 264.357654 
L 331.685473 264.371492 
L 331.850552 264.643458 
L 332.180709 265.452793 
L 332.290761 265.382717 
L 332.400814 265.230679 
L 332.45584 265.291175 
L 332.675945 265.895249 
L 332.951076 264.577462 
L 333.501337 261.611733 
L 333.556364 261.576606 
L 333.61139 261.663004 
L 333.721442 261.913681 
L 333.941547 260.773303 
L 333.996573 260.783237 
L 334.216678 261.53119 
L 334.32673 261.857443 
L 334.656888 261.145682 
L 334.876992 261.505288 
L 335.042071 261.01369 
L 335.207149 261.479386 
L 335.262176 261.370458 
L 335.48228 260.837347 
L 335.537307 260.877086 
L 335.702385 261.715162 
L 336.142595 264.324833 
L 336.252647 264.67752 
L 336.472752 263.278658 
L 336.527778 263.298883 
L 336.637831 262.698179 
L 336.857935 261.594524 
L 336.967988 261.417826 
L 337.023014 261.470516 
L 337.133066 261.349701 
L 337.298145 260.780399 
L 337.408197 261.224628 
L 337.683328 264.328736 
L 338.398669 272.486666 
L 338.948931 275.203137 
L 339.003957 275.185928 
L 339.279088 272.67525 
L 339.82935 265.934811 
L 339.884376 265.988033 
L 340.159507 267.129654 
L 340.269559 266.952955 
L 340.379612 266.871703 
L 340.489664 267.274064 
L 340.764795 269.817208 
L 341.094952 272.77247 
L 341.315057 272.732731 
L 341.645214 274.371271 
L 341.70024 274.2187 
L 342.360555 270.438313 
L 343.461079 267.1128 
L 343.73621 265.084317 
L 343.846262 265.261725 
L 344.011341 266.133508 
L 344.45155 268.780967 
L 344.561602 269.021 
L 344.616629 268.982326 
L 344.726681 269.111301 
L 344.946786 270.437426 
L 345.111864 271.231149 
L 345.331969 270.720037 
L 345.497048 270.933636 
L 345.717153 270.426604 
L 345.827205 270.805548 
L 346.102336 273.018712 
L 346.487519 276.079533 
L 346.542545 276.042099 
L 347.037781 274.791018 
L 347.20286 274.693799 
L 347.422965 274.72449 
L 347.863174 273.016051 
L 348.413436 270.131752 
L 348.798619 265.741081 
L 349.018724 264.934762 
L 349.128777 265.212406 
L 349.458934 267.47489 
L 349.844117 269.759905 
L 349.954169 269.121059 
L 350.339353 266.388798 
L 350.724536 265.692826 
L 350.779562 265.77337 
L 350.944641 266.610026 
L 351.164746 267.799192 
L 351.274798 267.599253 
L 351.329824 267.630831 
L 351.494903 268.298595 
L 351.604955 268.67949 
L 351.659982 268.642944 
L 351.82506 268.614204 
L 351.990139 268.850511 
L 352.320296 268.348624 
L 352.430348 268.594866 
L 352.595427 269.350092 
L 352.650453 269.222359 
L 352.815532 268.839512 
L 352.925584 269.058611 
L 353.200715 270.475923 
L 353.585898 272.239359 
L 354.081134 275.244473 
L 354.13616 275.129513 
L 354.686422 273.256971 
L 355.016579 271.149187 
L 355.126632 271.171008 
L 355.29171 271.485375 
L 355.511815 271.940426 
L 355.621867 272.065854 
L 355.786946 272.29613 
L 356.282182 271.140671 
L 356.337208 271.217844 
L 356.612339 271.915412 
L 356.722391 271.042032 
L 356.997522 268.711423 
L 357.32768 266.768096 
L 357.712863 266.89104 
L 357.932968 266.556981 
L 358.098046 266.282353 
L 358.153072 266.341253 
L 358.318151 267.152362 
L 359.033492 272.227473 
L 359.363649 271.514292 
L 359.803858 269.380429 
L 359.858884 269.451215 
L 360.023963 269.836368 
L 360.35412 269.086287 
L 360.409146 269.149976 
L 360.574225 269.707215 
L 361.179513 273.102094 
L 361.289565 272.960345 
L 361.674749 272.053081 
L 361.784801 271.789452 
L 361.94988 268.583335 
L 362.280037 262.059688 
L 362.555168 259.847055 
L 362.885325 258.125488 
L 362.940351 258.168066 
L 363.160456 258.977047 
L 363.215482 258.944581 
L 363.600666 256.237157 
L 363.655692 256.29996 
L 363.82077 257.198886 
L 365.196425 268.11551 
L 365.361504 268.325561 
L 365.471556 268.664233 
L 365.526582 268.580674 
L 365.911766 265.631088 
L 366.021818 265.8548 
L 366.241923 266.720906 
L 366.296949 266.66857 
L 366.407002 266.089865 
L 366.57208 265.36675 
L 366.737159 265.420682 
L 366.902237 266.314641 
L 367.562552 271.525824 
L 367.617578 271.584014 
L 367.672604 271.491939 
L 367.892709 270.813886 
L 368.112814 268.625203 
L 368.387945 266.595478 
L 368.497997 266.786014 
L 368.663076 267.24213 
L 369.048259 265.794836 
L 369.103285 265.814528 
L 369.873652 267.656378 
L 370.03873 267.34485 
L 370.148783 267.697892 
L 370.423914 270.080836 
L 370.919149 274.871384 
L 371.139254 274.802905 
L 371.359359 274.403204 
L 371.854595 272.697781 
L 372.019673 273.16809 
L 372.129726 273.419654 
L 372.349831 273.198781 
L 372.514909 273.674412 
L 372.624961 274.104094 
L 372.679988 273.97299 
L 372.79004 273.200733 
L 373.23025 268.966536 
L 373.340302 269.099592 
L 373.505381 268.331416 
L 373.94559 265.694068 
L 374.055643 265.899862 
L 374.330773 267.614155 
L 374.770983 270.720214 
L 374.826009 270.698216 
L 375.266219 268.853705 
L 375.376271 268.931232 
L 375.486324 269.144654 
L 375.54135 269.121059 
L 375.706428 269.149799 
L 376.091612 267.664007 
L 376.366743 265.697971 
L 376.806952 263.1307 
L 377.192136 259.436888 
L 377.302188 259.43405 
L 377.467267 259.147003 
L 377.632345 259.569944 
L 377.907476 260.246401 
L 378.072555 260.371651 
L 378.182607 260.672712 
L 378.402712 261.538108 
L 378.56779 261.50103 
L 378.732869 261.664955 
L 378.842921 261.948985 
L 379.888419 267.479148 
L 380.108524 267.593221 
L 380.383655 267.042901 
L 380.548733 266.753194 
L 380.713812 266.425167 
L 380.988943 265.421747 
L 381.154022 265.280708 
L 381.264074 264.76445 
L 381.704284 261.3183 
L 381.814336 261.212387 
L 381.924388 261.484709 
L 382.584703 265.400635 
L 383.024912 269.353108 
L 383.410096 272.148703 
L 383.850305 273.619061 
L 384.125436 274.856304 
L 384.180462 274.912898 
L 384.290515 274.413494 
L 384.895803 268.61243 
L 385.115908 268.123316 
L 385.22596 268.112671 
L 385.556117 266.531257 
L 385.666169 266.815642 
L 385.996327 268.864881 
L 386.106379 268.684103 
L 386.546589 268.003566 
L 386.601615 268.057143 
L 386.766693 268.598415 
L 386.986798 269.74039 
L 387.041824 269.592786 
L 387.371982 267.094704 
L 387.867217 265.862783 
L 387.922243 265.920086 
L 388.087322 266.001871 
L 388.527532 264.59059 
L 388.747636 263.439567 
L 388.802663 263.440809 
L 388.967741 263.852218 
L 389.628055 261.357684 
L 389.738108 261.642424 
L 389.958213 263.326736 
L 390.178317 264.722405 
L 390.508475 264.353041 
L 390.673553 264.639378 
L 390.728579 264.540207 
L 390.948684 264.106976 
L 391.00371 264.182552 
L 391.168789 264.975211 
L 391.388894 265.632862 
L 391.608998 266.600091 
L 392.049208 270.302773 
L 392.379365 272.488972 
L 392.489418 272.06958 
L 392.709522 271.198861 
L 392.819575 271.5001 
L 393.094706 273.342482 
L 393.369837 274.635431 
L 393.644968 274.007939 
L 393.865072 273.88056 
L 394.19523 272.851771 
L 394.360308 273.074596 
L 394.470361 273.207474 
L 394.690465 271.700216 
L 394.965596 270.407267 
L 395.075649 270.348899 
L 395.240727 270.670008 
L 395.515858 272.058403 
L 395.901042 273.699604 
L 396.396277 274.337386 
L 396.50633 274.453588 
L 396.891513 272.630366 
L 397.001565 272.632495 
L 397.166644 271.250842 
L 397.496801 268.696344 
L 397.606854 268.559562 
L 397.771932 268.79995 
L 398.157116 267.005646 
L 398.212142 267.041659 
L 398.322194 267.278854 
L 398.487273 268.162346 
L 398.487273 268.162346 
" style="fill:none;stroke:#ff0000;stroke-linecap:square;stroke-width:1.5;"/>
   </g>
   <g id="line2d_18">
    <path clip-path="url(#p97b33e11cf)" d="M 343.461079 245.4912 
L 398.37722 245.4912 
L 398.37722 245.4912 
" style="fill:none;stroke:#000000;stroke-linecap:square;stroke-width:1.5;"/>
   </g>
   <g id="line2d_19">
    <path clip-path="url(#p97b33e11cf)" d="M 343.461079 218.88 
L 343.461079 217.10592 
L 343.461079 215.33184 
L 343.461079 213.55776 
L 343.461079 211.78368 
L 343.461079 210.0096 
L 343.461079 208.23552 
L 343.461079 206.46144 
L 343.461079 204.68736 
L 343.461079 202.91328 
L 343.461079 201.1392 
L 343.461079 199.36512 
L 343.461079 197.59104 
L 343.461079 195.81696 
L 343.461079 194.04288 
L 343.461079 192.2688 
L 343.461079 190.49472 
L 343.461079 188.72064 
L 343.461079 186.94656 
L 343.461079 185.17248 
" style="fill:none;stroke:#000000;stroke-linecap:square;stroke-width:1.5;"/>
   </g>
   <g id="line2d_20">
    <path clip-path="url(#p97b33e11cf)" d="M 145.36678 289.8432 
L 145.36678 288.06912 
L 145.36678 286.29504 
L 145.36678 284.52096 
L 145.36678 282.74688 
L 145.36678 280.9728 
L 145.36678 279.19872 
L 145.36678 277.42464 
L 145.36678 275.65056 
L 145.36678 273.87648 
L 145.36678 272.1024 
L 145.36678 270.32832 
L 145.36678 268.55424 
L 145.36678 266.78016 
L 145.36678 265.00608 
L 145.36678 263.232 
L 145.36678 261.45792 
L 145.36678 259.68384 
L 145.36678 257.90976 
L 145.36678 256.13568 
L 145.36678 254.3616 
L 145.36678 252.58752 
L 145.36678 250.81344 
L 145.36678 249.03936 
L 145.36678 247.26528 
L 145.36678 245.4912 
L 145.36678 243.71712 
L 145.36678 241.94304 
L 145.36678 240.16896 
L 145.36678 238.39488 
" style="fill:none;stroke:#000000;stroke-linecap:square;stroke-width:2;"/>
   </g>
   <g id="patch_3">
    <path d="M 57.6 307.584 
L 57.6 41.472 
" style="fill:none;stroke:#000000;stroke-linecap:square;stroke-linejoin:miter;stroke-width:0.8;"/>
   </g>
   <g id="patch_4">
    <path d="M 57.6 307.584 
L 414.72 307.584 
" style="fill:none;stroke:#000000;stroke-linecap:square;stroke-linejoin:miter;stroke-width:0.8;"/>
   </g>
   <g id="text_18">
    <!-- 500 ms -->
    <g transform="translate(343.461079 243.71712)scale(0.12 -0.12)">
     <use xlink:href="#DejaVuSans-35"/>
     <use x="63.623047" xlink:href="#DejaVuSans-30"/>
     <use x="127.246094" xlink:href="#DejaVuSans-30"/>
     <use x="190.869141" xlink:href="#DejaVuSans-20"/>
     <use x="222.65625" xlink:href="#DejaVuSans-6d"/>
     <use x="320.068359" xlink:href="#DejaVuSans-73"/>
    </g>
   </g>
   <g id="text_19">
    <!-- 20 mV -->
    <g transform="translate(348.963698 183.3984)scale(0.12 -0.12)">
     <use xlink:href="#DejaVuSans-32"/>
     <use x="63.623047" xlink:href="#DejaVuSans-30"/>
     <use x="127.246094" xlink:href="#DejaVuSans-20"/>
     <use x="159.033203" xlink:href="#DejaVuSans-6d"/>
     <use x="256.445312" xlink:href="#DejaVuSans-56"/>
    </g>
   </g>
  </g>
 </g>
 <defs>
  <clipPath id="p97b33e11cf">
   <rect height="266.112" width="357.12" x="57.6" y="41.472"/>
  </clipPath>
 </defs>
</svg>
