<?xml version="1.0" encoding="utf-8" standalone="no"?>
<!DOCTYPE svg PUBLIC "-//W3C//DTD SVG 1.1//EN"
  "http://www.w3.org/Graphics/SVG/1.1/DTD/svg11.dtd">
<svg height="288pt" version="1.1" viewBox="0 0 432 288" width="432pt" xmlns="http://www.w3.org/2000/svg" xmlns:xlink="http://www.w3.org/1999/xlink">
 <metadata>
  <rdf:RDF xmlns:cc="http://creativecommons.org/ns#" xmlns:dc="http://purl.org/dc/elements/1.1/" xmlns:rdf="http://www.w3.org/1999/02/22-rdf-syntax-ns#">
   <cc:Work>
    <dc:type rdf:resource="http://purl.org/dc/dcmitype/StillImage"/>
    <dc:date>2021-07-20T17:33:30.458749</dc:date>
    <dc:format>image/svg+xml</dc:format>
    <dc:creator>
     <cc:Agent>
      <dc:title>Matplotlib v3.4.1, https://matplotlib.org/</dc:title>
     </cc:Agent>
    </dc:creator>
   </cc:Work>
  </rdf:RDF>
 </metadata>
 <defs>
  <style type="text/css">*{stroke-linecap:butt;stroke-linejoin:round;}</style>
 </defs>
 <g id="figure_1">
  <g id="patch_1">
   <path d="M 0 288 
L 432 288 
L 432 0 
L 0 0 
z
" style="fill:none;"/>
  </g>
  <g id="axes_1">
   <g id="patch_2">
    <path d="M 54 252 
L 388.8 252 
L 388.8 34.56 
L 54 34.56 
z
" style="fill:#ffffff;"/>
   </g>
   <g id="matplotlib.axis_1">
    <g id="xtick_1">
     <g id="line2d_1">
      <defs>
       <path d="M 0 0 
L 0 3.5 
" id="m9285fa5e78" style="stroke:#000000;stroke-width:0.8;"/>
      </defs>
      <g>
       <use style="stroke:#000000;stroke-width:0.8;" x="65.365478" xlink:href="#m9285fa5e78" y="252"/>
      </g>
     </g>
     <g id="text_1">
      <!-- 0 -->
      <g transform="translate(61.547978 268.118125)scale(0.12 -0.12)">
       <defs>
        <path d="M 2034 4250 
Q 1547 4250 1301 3770 
Q 1056 3291 1056 2328 
Q 1056 1369 1301 889 
Q 1547 409 2034 409 
Q 2525 409 2770 889 
Q 3016 1369 3016 2328 
Q 3016 3291 2770 3770 
Q 2525 4250 2034 4250 
z
M 2034 4750 
Q 2819 4750 3233 4129 
Q 3647 3509 3647 2328 
Q 3647 1150 3233 529 
Q 2819 -91 2034 -91 
Q 1250 -91 836 529 
Q 422 1150 422 2328 
Q 422 3509 836 4129 
Q 1250 4750 2034 4750 
z
" id="DejaVuSans-30" transform="scale(0.015625)"/>
       </defs>
       <use xlink:href="#DejaVuSans-30"/>
      </g>
     </g>
    </g>
    <g id="xtick_2">
     <g id="line2d_2">
      <g>
       <use style="stroke:#000000;stroke-width:0.8;" x="103.89252" xlink:href="#m9285fa5e78" y="252"/>
      </g>
     </g>
     <g id="text_2">
      <!-- 500 -->
      <g transform="translate(92.44002 268.118125)scale(0.12 -0.12)">
       <defs>
        <path d="M 691 4666 
L 3169 4666 
L 3169 4134 
L 1269 4134 
L 1269 2991 
Q 1406 3038 1543 3061 
Q 1681 3084 1819 3084 
Q 2600 3084 3056 2656 
Q 3513 2228 3513 1497 
Q 3513 744 3044 326 
Q 2575 -91 1722 -91 
Q 1428 -91 1123 -41 
Q 819 9 494 109 
L 494 744 
Q 775 591 1075 516 
Q 1375 441 1709 441 
Q 2250 441 2565 725 
Q 2881 1009 2881 1497 
Q 2881 1984 2565 2268 
Q 2250 2553 1709 2553 
Q 1456 2553 1204 2497 
Q 953 2441 691 2322 
L 691 4666 
z
" id="DejaVuSans-35" transform="scale(0.015625)"/>
       </defs>
       <use xlink:href="#DejaVuSans-35"/>
       <use x="63.623047" xlink:href="#DejaVuSans-30"/>
       <use x="127.246094" xlink:href="#DejaVuSans-30"/>
      </g>
     </g>
    </g>
    <g id="xtick_3">
     <g id="line2d_3">
      <g>
       <use style="stroke:#000000;stroke-width:0.8;" x="142.419563" xlink:href="#m9285fa5e78" y="252"/>
      </g>
     </g>
     <g id="text_3">
      <!-- 1000 -->
      <g transform="translate(127.149563 268.118125)scale(0.12 -0.12)">
       <defs>
        <path d="M 794 531 
L 1825 531 
L 1825 4091 
L 703 3866 
L 703 4441 
L 1819 4666 
L 2450 4666 
L 2450 531 
L 3481 531 
L 3481 0 
L 794 0 
L 794 531 
z
" id="DejaVuSans-31" transform="scale(0.015625)"/>
       </defs>
       <use xlink:href="#DejaVuSans-31"/>
       <use x="63.623047" xlink:href="#DejaVuSans-30"/>
       <use x="127.246094" xlink:href="#DejaVuSans-30"/>
       <use x="190.869141" xlink:href="#DejaVuSans-30"/>
      </g>
     </g>
    </g>
    <g id="xtick_4">
     <g id="line2d_4">
      <g>
       <use style="stroke:#000000;stroke-width:0.8;" x="180.946605" xlink:href="#m9285fa5e78" y="252"/>
      </g>
     </g>
     <g id="text_4">
      <!-- 1500 -->
      <g transform="translate(165.676605 268.118125)scale(0.12 -0.12)">
       <use xlink:href="#DejaVuSans-31"/>
       <use x="63.623047" xlink:href="#DejaVuSans-35"/>
       <use x="127.246094" xlink:href="#DejaVuSans-30"/>
       <use x="190.869141" xlink:href="#DejaVuSans-30"/>
      </g>
     </g>
    </g>
    <g id="xtick_5">
     <g id="line2d_5">
      <g>
       <use style="stroke:#000000;stroke-width:0.8;" x="219.473648" xlink:href="#m9285fa5e78" y="252"/>
      </g>
     </g>
     <g id="text_5">
      <!-- 2000 -->
      <g transform="translate(204.203648 268.118125)scale(0.12 -0.12)">
       <defs>
        <path d="M 1228 531 
L 3431 531 
L 3431 0 
L 469 0 
L 469 531 
Q 828 903 1448 1529 
Q 2069 2156 2228 2338 
Q 2531 2678 2651 2914 
Q 2772 3150 2772 3378 
Q 2772 3750 2511 3984 
Q 2250 4219 1831 4219 
Q 1534 4219 1204 4116 
Q 875 4013 500 3803 
L 500 4441 
Q 881 4594 1212 4672 
Q 1544 4750 1819 4750 
Q 2544 4750 2975 4387 
Q 3406 4025 3406 3419 
Q 3406 3131 3298 2873 
Q 3191 2616 2906 2266 
Q 2828 2175 2409 1742 
Q 1991 1309 1228 531 
z
" id="DejaVuSans-32" transform="scale(0.015625)"/>
       </defs>
       <use xlink:href="#DejaVuSans-32"/>
       <use x="63.623047" xlink:href="#DejaVuSans-30"/>
       <use x="127.246094" xlink:href="#DejaVuSans-30"/>
       <use x="190.869141" xlink:href="#DejaVuSans-30"/>
      </g>
     </g>
    </g>
    <g id="xtick_6">
     <g id="line2d_6">
      <g>
       <use style="stroke:#000000;stroke-width:0.8;" x="258.00069" xlink:href="#m9285fa5e78" y="252"/>
      </g>
     </g>
     <g id="text_6">
      <!-- 2500 -->
      <g transform="translate(242.73069 268.118125)scale(0.12 -0.12)">
       <use xlink:href="#DejaVuSans-32"/>
       <use x="63.623047" xlink:href="#DejaVuSans-35"/>
       <use x="127.246094" xlink:href="#DejaVuSans-30"/>
       <use x="190.869141" xlink:href="#DejaVuSans-30"/>
      </g>
     </g>
    </g>
    <g id="xtick_7">
     <g id="line2d_7">
      <g>
       <use style="stroke:#000000;stroke-width:0.8;" x="296.527733" xlink:href="#m9285fa5e78" y="252"/>
      </g>
     </g>
     <g id="text_7">
      <!-- 3000 -->
      <g transform="translate(281.257733 268.118125)scale(0.12 -0.12)">
       <defs>
        <path d="M 2597 2516 
Q 3050 2419 3304 2112 
Q 3559 1806 3559 1356 
Q 3559 666 3084 287 
Q 2609 -91 1734 -91 
Q 1441 -91 1130 -33 
Q 819 25 488 141 
L 488 750 
Q 750 597 1062 519 
Q 1375 441 1716 441 
Q 2309 441 2620 675 
Q 2931 909 2931 1356 
Q 2931 1769 2642 2001 
Q 2353 2234 1838 2234 
L 1294 2234 
L 1294 2753 
L 1863 2753 
Q 2328 2753 2575 2939 
Q 2822 3125 2822 3475 
Q 2822 3834 2567 4026 
Q 2313 4219 1838 4219 
Q 1578 4219 1281 4162 
Q 984 4106 628 3988 
L 628 4550 
Q 988 4650 1302 4700 
Q 1616 4750 1894 4750 
Q 2613 4750 3031 4423 
Q 3450 4097 3450 3541 
Q 3450 3153 3228 2886 
Q 3006 2619 2597 2516 
z
" id="DejaVuSans-33" transform="scale(0.015625)"/>
       </defs>
       <use xlink:href="#DejaVuSans-33"/>
       <use x="63.623047" xlink:href="#DejaVuSans-30"/>
       <use x="127.246094" xlink:href="#DejaVuSans-30"/>
       <use x="190.869141" xlink:href="#DejaVuSans-30"/>
      </g>
     </g>
    </g>
    <g id="xtick_8">
     <g id="line2d_8">
      <g>
       <use style="stroke:#000000;stroke-width:0.8;" x="335.054776" xlink:href="#m9285fa5e78" y="252"/>
      </g>
     </g>
     <g id="text_8">
      <!-- 3500 -->
      <g transform="translate(319.784776 268.118125)scale(0.12 -0.12)">
       <use xlink:href="#DejaVuSans-33"/>
       <use x="63.623047" xlink:href="#DejaVuSans-35"/>
       <use x="127.246094" xlink:href="#DejaVuSans-30"/>
       <use x="190.869141" xlink:href="#DejaVuSans-30"/>
      </g>
     </g>
    </g>
    <g id="xtick_9">
     <g id="line2d_9">
      <g>
       <use style="stroke:#000000;stroke-width:0.8;" x="373.581818" xlink:href="#m9285fa5e78" y="252"/>
      </g>
     </g>
     <g id="text_9">
      <!-- 4000 -->
      <g transform="translate(358.311818 268.118125)scale(0.12 -0.12)">
       <defs>
        <path d="M 2419 4116 
L 825 1625 
L 2419 1625 
L 2419 4116 
z
M 2253 4666 
L 3047 4666 
L 3047 1625 
L 3713 1625 
L 3713 1100 
L 3047 1100 
L 3047 0 
L 2419 0 
L 2419 1100 
L 313 1100 
L 313 1709 
L 2253 4666 
z
" id="DejaVuSans-34" transform="scale(0.015625)"/>
       </defs>
       <use xlink:href="#DejaVuSans-34"/>
       <use x="63.623047" xlink:href="#DejaVuSans-30"/>
       <use x="127.246094" xlink:href="#DejaVuSans-30"/>
       <use x="190.869141" xlink:href="#DejaVuSans-30"/>
      </g>
     </g>
    </g>
    <g id="text_10">
     <!-- Time(ms) -->
     <g transform="translate(193.067813 283.731875)scale(0.12 -0.12)">
      <defs>
       <path d="M -19 4666 
L 3928 4666 
L 3928 4134 
L 2272 4134 
L 2272 0 
L 1638 0 
L 1638 4134 
L -19 4134 
L -19 4666 
z
" id="DejaVuSans-54" transform="scale(0.015625)"/>
       <path d="M 603 3500 
L 1178 3500 
L 1178 0 
L 603 0 
L 603 3500 
z
M 603 4863 
L 1178 4863 
L 1178 4134 
L 603 4134 
L 603 4863 
z
" id="DejaVuSans-69" transform="scale(0.015625)"/>
       <path d="M 3328 2828 
Q 3544 3216 3844 3400 
Q 4144 3584 4550 3584 
Q 5097 3584 5394 3201 
Q 5691 2819 5691 2113 
L 5691 0 
L 5113 0 
L 5113 2094 
Q 5113 2597 4934 2840 
Q 4756 3084 4391 3084 
Q 3944 3084 3684 2787 
Q 3425 2491 3425 1978 
L 3425 0 
L 2847 0 
L 2847 2094 
Q 2847 2600 2669 2842 
Q 2491 3084 2119 3084 
Q 1678 3084 1418 2786 
Q 1159 2488 1159 1978 
L 1159 0 
L 581 0 
L 581 3500 
L 1159 3500 
L 1159 2956 
Q 1356 3278 1631 3431 
Q 1906 3584 2284 3584 
Q 2666 3584 2933 3390 
Q 3200 3197 3328 2828 
z
" id="DejaVuSans-6d" transform="scale(0.015625)"/>
       <path d="M 3597 1894 
L 3597 1613 
L 953 1613 
Q 991 1019 1311 708 
Q 1631 397 2203 397 
Q 2534 397 2845 478 
Q 3156 559 3463 722 
L 3463 178 
Q 3153 47 2828 -22 
Q 2503 -91 2169 -91 
Q 1331 -91 842 396 
Q 353 884 353 1716 
Q 353 2575 817 3079 
Q 1281 3584 2069 3584 
Q 2775 3584 3186 3129 
Q 3597 2675 3597 1894 
z
M 3022 2063 
Q 3016 2534 2758 2815 
Q 2500 3097 2075 3097 
Q 1594 3097 1305 2825 
Q 1016 2553 972 2059 
L 3022 2063 
z
" id="DejaVuSans-65" transform="scale(0.015625)"/>
       <path d="M 1984 4856 
Q 1566 4138 1362 3434 
Q 1159 2731 1159 2009 
Q 1159 1288 1364 580 
Q 1569 -128 1984 -844 
L 1484 -844 
Q 1016 -109 783 600 
Q 550 1309 550 2009 
Q 550 2706 781 3412 
Q 1013 4119 1484 4856 
L 1984 4856 
z
" id="DejaVuSans-28" transform="scale(0.015625)"/>
       <path d="M 2834 3397 
L 2834 2853 
Q 2591 2978 2328 3040 
Q 2066 3103 1784 3103 
Q 1356 3103 1142 2972 
Q 928 2841 928 2578 
Q 928 2378 1081 2264 
Q 1234 2150 1697 2047 
L 1894 2003 
Q 2506 1872 2764 1633 
Q 3022 1394 3022 966 
Q 3022 478 2636 193 
Q 2250 -91 1575 -91 
Q 1294 -91 989 -36 
Q 684 19 347 128 
L 347 722 
Q 666 556 975 473 
Q 1284 391 1588 391 
Q 1994 391 2212 530 
Q 2431 669 2431 922 
Q 2431 1156 2273 1281 
Q 2116 1406 1581 1522 
L 1381 1569 
Q 847 1681 609 1914 
Q 372 2147 372 2553 
Q 372 3047 722 3315 
Q 1072 3584 1716 3584 
Q 2034 3584 2315 3537 
Q 2597 3491 2834 3397 
z
" id="DejaVuSans-73" transform="scale(0.015625)"/>
       <path d="M 513 4856 
L 1013 4856 
Q 1481 4119 1714 3412 
Q 1947 2706 1947 2009 
Q 1947 1309 1714 600 
Q 1481 -109 1013 -844 
L 513 -844 
Q 928 -128 1133 580 
Q 1338 1288 1338 2009 
Q 1338 2731 1133 3434 
Q 928 4138 513 4856 
z
" id="DejaVuSans-29" transform="scale(0.015625)"/>
      </defs>
      <use xlink:href="#DejaVuSans-54"/>
      <use x="57.958984" xlink:href="#DejaVuSans-69"/>
      <use x="85.742188" xlink:href="#DejaVuSans-6d"/>
      <use x="183.154297" xlink:href="#DejaVuSans-65"/>
      <use x="244.677734" xlink:href="#DejaVuSans-28"/>
      <use x="283.691406" xlink:href="#DejaVuSans-6d"/>
      <use x="381.103516" xlink:href="#DejaVuSans-73"/>
      <use x="433.203125" xlink:href="#DejaVuSans-29"/>
     </g>
    </g>
   </g>
   <g id="matplotlib.axis_2">
    <g id="ytick_1">
     <g id="line2d_10">
      <defs>
       <path d="M 0 0 
L -3.5 0 
" id="m0ac30a8b37" style="stroke:#000000;stroke-width:0.8;"/>
      </defs>
      <g>
       <use style="stroke:#000000;stroke-width:0.8;" x="54" xlink:href="#m0ac30a8b37" y="237.504"/>
      </g>
     </g>
     <g id="text_11">
      <!-- -100 -->
      <g transform="translate(19.765625 242.063063)scale(0.12 -0.12)">
       <defs>
        <path d="M 313 2009 
L 1997 2009 
L 1997 1497 
L 313 1497 
L 313 2009 
z
" id="DejaVuSans-2d" transform="scale(0.015625)"/>
       </defs>
       <use xlink:href="#DejaVuSans-2d"/>
       <use x="36.083984" xlink:href="#DejaVuSans-31"/>
       <use x="99.707031" xlink:href="#DejaVuSans-30"/>
       <use x="163.330078" xlink:href="#DejaVuSans-30"/>
      </g>
     </g>
    </g>
    <g id="ytick_2">
     <g id="line2d_11">
      <g>
       <use style="stroke:#000000;stroke-width:0.8;" x="54" xlink:href="#m0ac30a8b37" y="208.512"/>
      </g>
     </g>
     <g id="text_12">
      <!-- -80 -->
      <g transform="translate(27.400625 213.071062)scale(0.12 -0.12)">
       <defs>
        <path d="M 2034 2216 
Q 1584 2216 1326 1975 
Q 1069 1734 1069 1313 
Q 1069 891 1326 650 
Q 1584 409 2034 409 
Q 2484 409 2743 651 
Q 3003 894 3003 1313 
Q 3003 1734 2745 1975 
Q 2488 2216 2034 2216 
z
M 1403 2484 
Q 997 2584 770 2862 
Q 544 3141 544 3541 
Q 544 4100 942 4425 
Q 1341 4750 2034 4750 
Q 2731 4750 3128 4425 
Q 3525 4100 3525 3541 
Q 3525 3141 3298 2862 
Q 3072 2584 2669 2484 
Q 3125 2378 3379 2068 
Q 3634 1759 3634 1313 
Q 3634 634 3220 271 
Q 2806 -91 2034 -91 
Q 1263 -91 848 271 
Q 434 634 434 1313 
Q 434 1759 690 2068 
Q 947 2378 1403 2484 
z
M 1172 3481 
Q 1172 3119 1398 2916 
Q 1625 2713 2034 2713 
Q 2441 2713 2670 2916 
Q 2900 3119 2900 3481 
Q 2900 3844 2670 4047 
Q 2441 4250 2034 4250 
Q 1625 4250 1398 4047 
Q 1172 3844 1172 3481 
z
" id="DejaVuSans-38" transform="scale(0.015625)"/>
       </defs>
       <use xlink:href="#DejaVuSans-2d"/>
       <use x="36.083984" xlink:href="#DejaVuSans-38"/>
       <use x="99.707031" xlink:href="#DejaVuSans-30"/>
      </g>
     </g>
    </g>
    <g id="ytick_3">
     <g id="line2d_12">
      <g>
       <use style="stroke:#000000;stroke-width:0.8;" x="54" xlink:href="#m0ac30a8b37" y="179.52"/>
      </g>
     </g>
     <g id="text_13">
      <!-- -60 -->
      <g transform="translate(27.400625 184.079062)scale(0.12 -0.12)">
       <defs>
        <path d="M 2113 2584 
Q 1688 2584 1439 2293 
Q 1191 2003 1191 1497 
Q 1191 994 1439 701 
Q 1688 409 2113 409 
Q 2538 409 2786 701 
Q 3034 994 3034 1497 
Q 3034 2003 2786 2293 
Q 2538 2584 2113 2584 
z
M 3366 4563 
L 3366 3988 
Q 3128 4100 2886 4159 
Q 2644 4219 2406 4219 
Q 1781 4219 1451 3797 
Q 1122 3375 1075 2522 
Q 1259 2794 1537 2939 
Q 1816 3084 2150 3084 
Q 2853 3084 3261 2657 
Q 3669 2231 3669 1497 
Q 3669 778 3244 343 
Q 2819 -91 2113 -91 
Q 1303 -91 875 529 
Q 447 1150 447 2328 
Q 447 3434 972 4092 
Q 1497 4750 2381 4750 
Q 2619 4750 2861 4703 
Q 3103 4656 3366 4563 
z
" id="DejaVuSans-36" transform="scale(0.015625)"/>
       </defs>
       <use xlink:href="#DejaVuSans-2d"/>
       <use x="36.083984" xlink:href="#DejaVuSans-36"/>
       <use x="99.707031" xlink:href="#DejaVuSans-30"/>
      </g>
     </g>
    </g>
    <g id="ytick_4">
     <g id="line2d_13">
      <g>
       <use style="stroke:#000000;stroke-width:0.8;" x="54" xlink:href="#m0ac30a8b37" y="150.528"/>
      </g>
     </g>
     <g id="text_14">
      <!-- -40 -->
      <g transform="translate(27.400625 155.087063)scale(0.12 -0.12)">
       <use xlink:href="#DejaVuSans-2d"/>
       <use x="36.083984" xlink:href="#DejaVuSans-34"/>
       <use x="99.707031" xlink:href="#DejaVuSans-30"/>
      </g>
     </g>
    </g>
    <g id="ytick_5">
     <g id="line2d_14">
      <g>
       <use style="stroke:#000000;stroke-width:0.8;" x="54" xlink:href="#m0ac30a8b37" y="121.536"/>
      </g>
     </g>
     <g id="text_15">
      <!-- -20 -->
      <g transform="translate(27.400625 126.095062)scale(0.12 -0.12)">
       <use xlink:href="#DejaVuSans-2d"/>
       <use x="36.083984" xlink:href="#DejaVuSans-32"/>
       <use x="99.707031" xlink:href="#DejaVuSans-30"/>
      </g>
     </g>
    </g>
    <g id="ytick_6">
     <g id="line2d_15">
      <g>
       <use style="stroke:#000000;stroke-width:0.8;" x="54" xlink:href="#m0ac30a8b37" y="92.544"/>
      </g>
     </g>
     <g id="text_16">
      <!-- 0 -->
      <g transform="translate(39.365 97.103062)scale(0.12 -0.12)">
       <use xlink:href="#DejaVuSans-30"/>
      </g>
     </g>
    </g>
    <g id="ytick_7">
     <g id="line2d_16">
      <g>
       <use style="stroke:#000000;stroke-width:0.8;" x="54" xlink:href="#m0ac30a8b37" y="63.552"/>
      </g>
     </g>
     <g id="text_17">
      <!-- 20 -->
      <g transform="translate(31.73 68.111063)scale(0.12 -0.12)">
       <use xlink:href="#DejaVuSans-32"/>
       <use x="63.623047" xlink:href="#DejaVuSans-30"/>
      </g>
     </g>
    </g>
    <g id="ytick_8">
     <g id="line2d_17">
      <g>
       <use style="stroke:#000000;stroke-width:0.8;" x="54" xlink:href="#m0ac30a8b37" y="34.56"/>
      </g>
     </g>
     <g id="text_18">
      <!-- 40 -->
      <g transform="translate(31.73 39.119062)scale(0.12 -0.12)">
       <use xlink:href="#DejaVuSans-34"/>
       <use x="63.623047" xlink:href="#DejaVuSans-30"/>
      </g>
     </g>
    </g>
    <g id="text_19">
     <!-- Membrane potential (mV) -->
     <g transform="translate(13.27 220.574062)rotate(-90)scale(0.12 -0.12)">
      <defs>
       <path d="M 628 4666 
L 1569 4666 
L 2759 1491 
L 3956 4666 
L 4897 4666 
L 4897 0 
L 4281 0 
L 4281 4097 
L 3078 897 
L 2444 897 
L 1241 4097 
L 1241 0 
L 628 0 
L 628 4666 
z
" id="DejaVuSans-4d" transform="scale(0.015625)"/>
       <path d="M 3116 1747 
Q 3116 2381 2855 2742 
Q 2594 3103 2138 3103 
Q 1681 3103 1420 2742 
Q 1159 2381 1159 1747 
Q 1159 1113 1420 752 
Q 1681 391 2138 391 
Q 2594 391 2855 752 
Q 3116 1113 3116 1747 
z
M 1159 2969 
Q 1341 3281 1617 3432 
Q 1894 3584 2278 3584 
Q 2916 3584 3314 3078 
Q 3713 2572 3713 1747 
Q 3713 922 3314 415 
Q 2916 -91 2278 -91 
Q 1894 -91 1617 61 
Q 1341 213 1159 525 
L 1159 0 
L 581 0 
L 581 4863 
L 1159 4863 
L 1159 2969 
z
" id="DejaVuSans-62" transform="scale(0.015625)"/>
       <path d="M 2631 2963 
Q 2534 3019 2420 3045 
Q 2306 3072 2169 3072 
Q 1681 3072 1420 2755 
Q 1159 2438 1159 1844 
L 1159 0 
L 581 0 
L 581 3500 
L 1159 3500 
L 1159 2956 
Q 1341 3275 1631 3429 
Q 1922 3584 2338 3584 
Q 2397 3584 2469 3576 
Q 2541 3569 2628 3553 
L 2631 2963 
z
" id="DejaVuSans-72" transform="scale(0.015625)"/>
       <path d="M 2194 1759 
Q 1497 1759 1228 1600 
Q 959 1441 959 1056 
Q 959 750 1161 570 
Q 1363 391 1709 391 
Q 2188 391 2477 730 
Q 2766 1069 2766 1631 
L 2766 1759 
L 2194 1759 
z
M 3341 1997 
L 3341 0 
L 2766 0 
L 2766 531 
Q 2569 213 2275 61 
Q 1981 -91 1556 -91 
Q 1019 -91 701 211 
Q 384 513 384 1019 
Q 384 1609 779 1909 
Q 1175 2209 1959 2209 
L 2766 2209 
L 2766 2266 
Q 2766 2663 2505 2880 
Q 2244 3097 1772 3097 
Q 1472 3097 1187 3025 
Q 903 2953 641 2809 
L 641 3341 
Q 956 3463 1253 3523 
Q 1550 3584 1831 3584 
Q 2591 3584 2966 3190 
Q 3341 2797 3341 1997 
z
" id="DejaVuSans-61" transform="scale(0.015625)"/>
       <path d="M 3513 2113 
L 3513 0 
L 2938 0 
L 2938 2094 
Q 2938 2591 2744 2837 
Q 2550 3084 2163 3084 
Q 1697 3084 1428 2787 
Q 1159 2491 1159 1978 
L 1159 0 
L 581 0 
L 581 3500 
L 1159 3500 
L 1159 2956 
Q 1366 3272 1645 3428 
Q 1925 3584 2291 3584 
Q 2894 3584 3203 3211 
Q 3513 2838 3513 2113 
z
" id="DejaVuSans-6e" transform="scale(0.015625)"/>
       <path id="DejaVuSans-20" transform="scale(0.015625)"/>
       <path d="M 1159 525 
L 1159 -1331 
L 581 -1331 
L 581 3500 
L 1159 3500 
L 1159 2969 
Q 1341 3281 1617 3432 
Q 1894 3584 2278 3584 
Q 2916 3584 3314 3078 
Q 3713 2572 3713 1747 
Q 3713 922 3314 415 
Q 2916 -91 2278 -91 
Q 1894 -91 1617 61 
Q 1341 213 1159 525 
z
M 3116 1747 
Q 3116 2381 2855 2742 
Q 2594 3103 2138 3103 
Q 1681 3103 1420 2742 
Q 1159 2381 1159 1747 
Q 1159 1113 1420 752 
Q 1681 391 2138 391 
Q 2594 391 2855 752 
Q 3116 1113 3116 1747 
z
" id="DejaVuSans-70" transform="scale(0.015625)"/>
       <path d="M 1959 3097 
Q 1497 3097 1228 2736 
Q 959 2375 959 1747 
Q 959 1119 1226 758 
Q 1494 397 1959 397 
Q 2419 397 2687 759 
Q 2956 1122 2956 1747 
Q 2956 2369 2687 2733 
Q 2419 3097 1959 3097 
z
M 1959 3584 
Q 2709 3584 3137 3096 
Q 3566 2609 3566 1747 
Q 3566 888 3137 398 
Q 2709 -91 1959 -91 
Q 1206 -91 779 398 
Q 353 888 353 1747 
Q 353 2609 779 3096 
Q 1206 3584 1959 3584 
z
" id="DejaVuSans-6f" transform="scale(0.015625)"/>
       <path d="M 1172 4494 
L 1172 3500 
L 2356 3500 
L 2356 3053 
L 1172 3053 
L 1172 1153 
Q 1172 725 1289 603 
Q 1406 481 1766 481 
L 2356 481 
L 2356 0 
L 1766 0 
Q 1100 0 847 248 
Q 594 497 594 1153 
L 594 3053 
L 172 3053 
L 172 3500 
L 594 3500 
L 594 4494 
L 1172 4494 
z
" id="DejaVuSans-74" transform="scale(0.015625)"/>
       <path d="M 603 4863 
L 1178 4863 
L 1178 0 
L 603 0 
L 603 4863 
z
" id="DejaVuSans-6c" transform="scale(0.015625)"/>
       <path d="M 1831 0 
L 50 4666 
L 709 4666 
L 2188 738 
L 3669 4666 
L 4325 4666 
L 2547 0 
L 1831 0 
z
" id="DejaVuSans-56" transform="scale(0.015625)"/>
      </defs>
      <use xlink:href="#DejaVuSans-4d"/>
      <use x="86.279297" xlink:href="#DejaVuSans-65"/>
      <use x="147.802734" xlink:href="#DejaVuSans-6d"/>
      <use x="245.214844" xlink:href="#DejaVuSans-62"/>
      <use x="308.691406" xlink:href="#DejaVuSans-72"/>
      <use x="349.804688" xlink:href="#DejaVuSans-61"/>
      <use x="411.083984" xlink:href="#DejaVuSans-6e"/>
      <use x="474.462891" xlink:href="#DejaVuSans-65"/>
      <use x="535.986328" xlink:href="#DejaVuSans-20"/>
      <use x="567.773438" xlink:href="#DejaVuSans-70"/>
      <use x="631.25" xlink:href="#DejaVuSans-6f"/>
      <use x="692.431641" xlink:href="#DejaVuSans-74"/>
      <use x="731.640625" xlink:href="#DejaVuSans-65"/>
      <use x="793.164062" xlink:href="#DejaVuSans-6e"/>
      <use x="856.542969" xlink:href="#DejaVuSans-74"/>
      <use x="895.751953" xlink:href="#DejaVuSans-69"/>
      <use x="923.535156" xlink:href="#DejaVuSans-61"/>
      <use x="984.814453" xlink:href="#DejaVuSans-6c"/>
      <use x="1012.597656" xlink:href="#DejaVuSans-20"/>
      <use x="1044.384766" xlink:href="#DejaVuSans-28"/>
      <use x="1083.398438" xlink:href="#DejaVuSans-6d"/>
      <use x="1180.810547" xlink:href="#DejaVuSans-56"/>
      <use x="1249.21875" xlink:href="#DejaVuSans-29"/>
     </g>
    </g>
   </g>
   <g id="line2d_18">
    <path clip-path="url(#pe54653f98c)" d="M 69.218182 216.066735 
L 69.680506 217.265844 
L 69.873142 217.53663 
L 70.219885 218.13343 
L 70.451047 218.081534 
L 70.605155 218.021376 
L 70.682209 218.096175 
L 70.720736 218.033843 
L 70.913372 217.783932 
L 70.990426 217.767261 
L 71.106007 217.188291 
L 71.337169 216.136896 
L 71.414223 216.19372 
L 71.606858 216.842271 
L 71.760967 217.337165 
L 71.799494 217.302084 
L 71.915075 216.927073 
L 72.10771 216.474363 
L 72.223291 216.648895 
L 72.49298 217.716235 
L 72.878251 219.140177 
L 73.032359 219.217876 
L 73.14794 219.374868 
L 73.186467 219.281513 
L 73.379102 217.949476 
L 73.8029 216.209231 
L 74.111116 215.335122 
L 74.18817 215.239449 
L 74.226697 215.263947 
L 74.380806 215.696942 
L 74.997238 217.93324 
L 75.49809 218.787345 
L 75.536617 218.682539 
L 75.729252 218.375948 
L 75.921887 218.546131 
L 75.960414 218.45901 
L 76.345685 216.142404 
L 76.461266 216.178934 
L 76.653901 216.668029 
L 77.347388 218.801986 
L 77.540023 219.035951 
L 77.617077 218.856636 
L 77.809712 218.067473 
L 78.002348 217.594904 
L 78.156456 217.890767 
L 78.387618 218.337824 
L 78.503199 217.619112 
L 78.849942 215.312943 
L 79.042578 215.001279 
L 79.466375 214.946195 
L 79.620483 214.885456 
L 79.736064 214.952718 
L 79.774591 214.895459 
L 80.044281 214.159642 
L 80.159862 214.36389 
L 80.545132 215.210747 
L 80.737768 215.284241 
L 81.007457 215.533862 
L 81.508308 213.963221 
L 81.662417 213.860734 
L 81.816525 214.0918 
L 82.124741 214.592492 
L 82.355903 214.933728 
L 82.39443 214.855884 
L 82.548539 214.180081 
L 82.741174 213.665618 
L 83.010863 213.571539 
L 83.357606 214.388099 
L 83.434661 214.263288 
L 83.781404 213.778542 
L 83.896985 213.988444 
L 84.166674 215.16349 
L 84.590472 216.932871 
L 84.667526 216.910548 
L 84.783107 216.563658 
L 85.052796 215.087676 
L 85.168377 215.146239 
L 85.361013 215.63403 
L 85.39954 215.556621 
L 85.707756 213.940172 
L 85.900391 213.079545 
L 86.131554 213.160722 
L 86.208608 212.815572 
L 86.43977 211.588196 
L 86.555351 211.64531 
L 86.670932 211.840861 
L 86.709459 211.782443 
L 86.786513 211.426566 
L 87.325892 206.432839 
L 87.441473 206.702319 
L 87.711162 208.327611 
L 88.13496 210.773086 
L 88.289068 211.040682 
L 88.481703 210.059303 
L 88.751392 208.232807 
L 89.136663 205.287075 
L 89.290771 204.823203 
L 89.329298 204.863792 
L 89.483406 205.476683 
L 90.138366 209.051831 
L 90.176893 209.022404 
L 90.253947 208.875705 
L 90.677745 206.093052 
L 90.716272 206.113637 
L 91.217123 206.865544 
L 91.525339 208.224544 
L 91.563867 208.193378 
L 91.756502 208.199176 
L 91.91061 208.544616 
L 92.257353 209.701397 
L 92.29588 209.682262 
L 92.411461 209.423219 
L 92.681151 208.684212 
L 92.796732 208.768144 
L 92.989367 209.395821 
L 93.413165 211.89986 
L 93.836962 214.412452 
L 93.875489 214.40274 
L 93.99107 214.482178 
L 94.183705 215.082747 
L 94.530449 216.185168 
L 94.684557 216.351292 
L 94.761611 216.419423 
L 94.800138 216.346508 
L 94.992773 216.164438 
L 95.146881 216.452184 
L 95.339517 216.969546 
L 95.416571 216.909968 
L 95.570679 216.897211 
L 95.840368 216.947802 
L 95.917422 216.535391 
L 96.148585 215.186248 
L 96.264166 215.182044 
L 96.803544 216.190386 
L 97.188815 217.201627 
L 97.38145 217.48227 
L 97.458504 217.628244 
L 97.497031 217.568521 
L 97.76672 216.64962 
L 97.882301 216.728188 
L 98.113464 217.314261 
L 98.267572 217.779003 
L 98.306099 217.725368 
L 98.498734 217.509812 
L 98.652842 217.761028 
L 98.845478 218.071242 
L 99.423383 216.700356 
L 99.616018 216.961863 
L 99.693072 216.784142 
L 100.270978 215.560245 
L 100.77183 212.9859 
L 100.810357 213.001121 
L 100.964465 213.347141 
L 101.311208 214.211537 
L 101.503843 213.91002 
L 101.657952 214.248937 
L 101.850587 214.422309 
L 102.081749 214.317503 
L 102.428493 213.198847 
L 102.544074 213.261324 
L 102.890817 213.726501 
L 103.044925 214.123836 
L 103.468723 216.151537 
L 103.584304 215.911483 
L 103.738412 215.707814 
L 103.853993 215.873649 
L 104.123682 216.821542 
L 104.200736 217.047825 
L 104.239264 216.894167 
L 104.624534 215.093329 
L 104.663061 215.117972 
L 104.971277 215.281342 
L 105.240967 216.161829 
L 105.664764 217.511987 
L 105.780345 217.691882 
L 105.895926 216.957225 
L 106.204143 214.371283 
L 106.743521 212.924727 
L 106.782048 212.975608 
L 107.051738 213.809128 
L 107.629643 215.259743 
L 107.745224 215.318597 
L 107.899333 215.365999 
L 107.93786 215.425867 
L 107.976387 215.392381 
L 108.169022 214.758761 
L 108.477238 212.89762 
L 108.554292 212.903128 
L 108.7084 213.321918 
L 108.97809 214.086002 
L 109.093671 214.280683 
L 109.36336 215.410646 
L 109.594522 216.50263 
L 109.633049 216.494367 
L 110.172428 214.883572 
L 110.442117 212.926757 
L 110.519171 212.93299 
L 111.097077 213.737518 
L 111.482348 212.546527 
L 111.559402 212.66032 
L 111.71351 213.051132 
L 111.752037 213.014603 
L 111.944672 212.579868 
L 111.983199 212.594798 
L 112.291415 213.010689 
L 112.329942 212.876311 
L 112.522578 212.401422 
L 112.638159 212.578998 
L 112.869321 213.567915 
L 113.4087 215.881476 
L 113.716916 216.679046 
L 113.871024 216.713547 
L 113.948078 216.494512 
L 114.410403 213.805069 
L 114.603038 213.745781 
L 114.757146 214.054401 
L 115.10389 215.510669 
L 115.373579 216.318096 
L 115.566214 216.655563 
L 115.951484 217.140744 
L 116.028539 216.891123 
L 116.14412 215.499652 
L 116.413809 212.449114 
L 116.567917 212.238052 
L 116.760552 212.288353 
L 116.914661 212.657276 
L 117.299931 213.784485 
L 117.376985 213.585455 
L 117.762255 211.125049 
L 117.800783 211.152446 
L 117.954891 211.606316 
L 118.22458 212.616542 
L 118.263107 212.568996 
L 118.417215 212.08106 
L 118.841013 209.858388 
L 119.26481 208.895999 
L 119.380391 208.760027 
L 119.418918 208.80192 
L 119.534499 209.013562 
L 119.573026 208.916728 
L 119.765662 207.874321 
L 120.035351 206.1003 
L 120.112405 206.167997 
L 120.266513 206.441681 
L 120.30504 206.411964 
L 120.536203 206.385292 
L 120.690311 206.335716 
L 120.921473 206.190466 
L 120.96 206.280486 
L 121.306743 206.956724 
L 121.422325 206.935415 
L 121.576433 206.890043 
L 121.730541 207.303758 
L 122.770771 211.553116 
L 122.847825 211.524414 
L 122.963406 210.457363 
L 123.194568 208.45793 
L 123.733947 208.080019 
L 123.772474 208.137278 
L 123.965109 208.883243 
L 124.35038 210.548398 
L 124.504488 210.584348 
L 124.658596 210.61218 
L 124.851231 211.109828 
L 124.928285 210.912828 
L 125.197975 210.052925 
L 125.352083 210.184114 
L 125.39061 210.130913 
L 125.698826 209.407853 
L 125.852934 209.055165 
L 125.891461 209.082563 
L 126.315259 210.029876 
L 126.623475 211.4486 
L 126.700529 211.381048 
L 126.970219 211.073588 
L 127.008746 211.133312 
L 127.162854 211.621537 
L 127.239908 211.525573 
L 127.432543 210.736991 
L 127.47107 210.748443 
L 127.740759 211.376844 
L 128.357192 213.019676 
L 128.434246 212.934875 
L 128.703936 211.485999 
L 128.935098 210.467076 
L 129.127733 210.508099 
L 129.397422 210.931817 
L 129.435949 210.895867 
L 129.667112 210.432865 
L 129.705639 210.453594 
L 129.859747 210.852524 
L 130.20649 212.744397 
L 130.399125 213.294665 
L 130.47618 213.084763 
L 130.822923 211.072428 
L 131.015558 211.024737 
L 131.169666 211.461066 
L 131.709045 213.561247 
L 131.747572 213.526891 
L 131.863153 213.499639 
L 132.364005 214.432456 
L 132.826329 215.566478 
L 133.2116 216.349117 
L 133.365708 216.499006 
L 133.673924 217.33644 
L 133.712451 217.307158 
L 133.828032 215.753042 
L 134.174776 211.817378 
L 134.560046 210.587392 
L 134.6371 210.673064 
L 135.523222 212.522898 
L 135.600276 212.466364 
L 135.908493 211.874782 
L 136.216709 211.778094 
L 136.640506 210.110184 
L 136.71756 210.221803 
L 136.833142 210.372417 
L 137.295466 208.947315 
L 137.37252 208.890491 
L 137.411047 208.941516 
L 137.565155 209.513819 
L 137.873372 210.908479 
L 137.911899 210.894563 
L 138.104534 210.236009 
L 138.297169 209.811276 
L 138.41275 210.004653 
L 138.68244 210.74221 
L 138.720967 210.677992 
L 138.952129 210.346904 
L 139.106237 210.674513 
L 139.45298 211.762293 
L 139.684143 210.419239 
L 139.915305 209.802434 
L 140.223521 209.419305 
L 140.339102 209.611232 
L 140.377629 209.529329 
L 140.531738 209.211722 
L 140.570265 209.228102 
L 140.7629 209.468446 
L 140.994062 210.187448 
L 141.071116 210.445911 
L 141.109643 210.37778 
L 141.494914 208.115679 
L 141.764603 205.08616 
L 141.880184 205.059198 
L 142.034292 205.274318 
L 142.381036 206.64477 
L 142.766306 208.319058 
L 142.804833 208.263249 
L 143.305685 207.02442 
L 143.344212 207.065879 
L 143.459793 207.365801 
L 143.49832 207.260995 
L 143.845063 206.121175 
L 144.268861 205.404058 
L 144.345915 205.50292 
L 144.808239 207.129516 
L 145.270564 210.090469 
L 145.347618 209.750538 
L 145.57878 208.939342 
L 145.84847 208.584915 
L 145.925524 208.634201 
L 145.964051 208.555198 
L 146.079632 208.425314 
L 146.118159 208.45909 
L 146.464902 209.332329 
L 147.119862 211.854343 
L 147.351024 211.26479 
L 147.389551 211.292913 
L 147.543659 211.711122 
L 147.851876 212.49666 
L 147.92893 212.62437 
L 147.967457 212.569285 
L 148.160092 212.19152 
L 148.198619 212.210075 
L 148.3142 212.216888 
L 148.506835 212.180938 
L 148.660944 212.366776 
L 148.892106 213.124337 
L 149.508539 215.302941 
L 149.662647 215.617504 
L 149.701174 215.567783 
L 150.047917 214.574082 
L 150.279079 213.490216 
L 150.394661 213.545736 
L 150.587296 214.09383 
L 150.818458 214.626558 
L 151.011093 214.930974 
L 151.126674 215.105361 
L 151.165201 215.038244 
L 151.511945 212.914725 
L 151.588999 212.95256 
L 151.781634 212.73512 
L 151.820161 212.778318 
L 152.012796 212.926467 
L 152.128377 213.037216 
L 152.321013 213.700408 
L 152.629229 214.665262 
L 152.860391 214.79906 
L 153.091554 215.384409 
L 153.168608 215.585178 
L 153.207135 215.569378 
L 153.361243 214.708315 
L 153.592405 213.523412 
L 153.669459 213.491231 
L 154.324419 210.261812 
L 154.44 209.861288 
L 154.555581 209.680378 
L 154.594108 209.729664 
L 155.09496 211.185497 
L 155.364649 212.181952 
L 155.634338 211.770121 
L 155.749919 211.823901 
L 156.058136 212.612049 
L 156.404879 213.843774 
L 156.443406 213.783615 
L 156.751623 212.991989 
L 156.79015 213.029678 
L 156.944258 213.444264 
L 157.368055 215.5443 
L 157.714799 217.307303 
L 157.791853 217.22917 
L 158.331231 216.446531 
L 158.947664 217.070004 
L 158.986191 217.014919 
L 159.294407 215.722455 
L 159.448516 215.042593 
L 159.833786 213.016632 
L 159.949367 213.13405 
L 160.064948 213.171304 
L 160.450219 212.968215 
L 160.681381 212.517825 
L 160.95107 212.837316 
L 161.143705 213.38686 
L 161.220759 213.609373 
L 161.259287 213.528631 
L 161.374868 213.40266 
L 161.413395 213.444844 
L 161.60603 214.089046 
L 161.798665 214.34838 
L 161.9913 214.864582 
L 162.64626 217.166692 
L 162.954476 217.091023 
L 162.993003 217.110882 
L 163.03153 217.029415 
L 163.262693 216.612945 
L 163.378274 216.733261 
L 163.416801 216.669479 
L 163.532382 215.636059 
L 163.95618 211.044161 
L 164.225869 210.48795 
L 164.457031 210.28776 
L 164.649666 210.525784 
L 164.72672 210.399669 
L 164.880829 209.875349 
L 165.150518 207.838661 
L 165.304626 207.336084 
L 165.458734 207.035872 
L 165.574315 207.069648 
L 165.882532 206.894391 
L 165.998113 206.930052 
L 166.152221 207.419726 
L 166.730127 210.122216 
L 166.768654 210.059593 
L 166.884235 209.857664 
L 166.922762 209.875784 
L 167.038343 210.178605 
L 167.346559 211.95596 
L 167.770357 214.339537 
L 167.847411 214.179211 
L 168.271208 212.985756 
L 168.348262 212.971984 
L 168.810587 211.059672 
L 168.849114 211.080401 
L 169.003222 211.474403 
L 169.658182 213.748245 
L 169.850817 213.975252 
L 169.889344 213.93075 
L 170.004925 213.694755 
L 170.19756 213.093461 
L 170.313142 213.269007 
L 170.582831 214.401 
L 170.929574 215.635914 
L 171.160736 215.94236 
L 171.391899 216.200968 
L 171.430426 216.13907 
L 171.700115 215.800444 
L 171.89275 216.091524 
L 171.931277 215.866691 
L 172.355075 212.184707 
L 172.470656 212.152236 
L 172.663291 212.252693 
L 172.778872 212.392289 
L 173.010035 213.273646 
L 174.050265 218.440745 
L 174.088792 218.421321 
L 174.397008 218.099075 
L 174.743751 216.371876 
L 174.859333 216.381299 
L 175.051968 216.786462 
L 175.28313 217.450524 
L 175.321657 217.345572 
L 175.706928 216.272289 
L 175.783982 216.019478 
L 175.976617 215.323091 
L 176.092198 215.262062 
L 176.361887 214.567414 
L 176.400414 214.591188 
L 176.554522 214.946774 
L 177.055374 216.309978 
L 177.132428 216.482481 
L 177.170955 216.328678 
L 177.440644 215.360925 
L 177.63328 215.299317 
L 177.710334 215.37861 
L 177.825915 214.556252 
L 178.172658 212.420556 
L 178.40382 212.005971 
L 178.519402 212.105848 
L 178.67351 212.353585 
L 178.712037 212.293282 
L 178.827618 211.726778 
L 179.05878 210.645231 
L 179.135834 210.559995 
L 179.32847 209.662692 
L 179.521105 209.143736 
L 179.636686 209.413071 
L 179.906375 210.92167 
L 180.09901 211.479911 
L 180.253119 211.485709 
L 180.3687 211.541809 
L 180.407227 211.507888 
L 180.599862 210.803818 
L 180.638389 210.83252 
L 180.792497 211.374815 
L 181.370403 213.890886 
L 181.640092 215.136237 
L 181.832727 215.90438 
L 181.871254 215.817984 
L 182.372106 214.012072 
L 182.44916 214.086002 
L 182.680322 214.268652 
L 182.911484 214.998815 
L 183.10412 215.57996 
L 183.142647 215.52589 
L 183.296755 214.343451 
L 183.566444 212.859205 
L 183.874661 212.166442 
L 183.951715 212.297775 
L 184.452566 214.009173 
L 184.568147 213.771004 
L 184.760783 213.412228 
L 184.876364 213.595602 
L 185.18458 214.398971 
L 185.223107 214.298223 
L 185.492796 213.308002 
L 185.56985 213.220446 
L 185.646904 212.922118 
L 185.955121 211.17477 
L 185.993648 211.200573 
L 186.032175 211.118526 
L 186.147756 210.94008 
L 186.186283 210.979364 
L 186.340391 211.527313 
L 186.687135 212.943862 
L 186.764189 212.82514 
L 187.226513 210.721335 
L 187.496203 210.755691 
L 187.650311 211.207096 
L 188.112635 212.966476 
L 188.266743 212.865439 
L 188.690541 211.232029 
L 188.883176 210.593481 
L 189.075811 210.621748 
L 189.152865 210.445332 
L 189.576663 208.514029 
L 189.692244 208.768434 
L 190.154568 210.608846 
L 190.231623 210.578405 
L 190.385731 210.588987 
L 190.65542 209.535273 
L 190.693947 209.547014 
L 190.809528 209.649646 
L 190.925109 209.21897 
L 191.31038 206.840611 
L 191.387434 206.834813 
L 191.541542 207.368266 
L 191.69565 207.917519 
L 191.734177 207.819091 
L 192.119448 206.900625 
L 192.157975 206.919904 
L 192.312083 207.341013 
L 192.543245 208.090311 
L 192.581772 208.05871 
L 192.889988 206.613894 
L 192.928516 206.646945 
L 193.159678 206.86337 
L 193.39084 207.866348 
L 193.622002 208.667107 
L 193.77611 208.490691 
L 193.853165 208.594772 
L 193.891692 208.557083 
L 194.007273 208.442274 
L 194.0458 208.485037 
L 194.199908 209.022984 
L 194.623705 210.633055 
L 194.777814 210.698577 
L 195.008976 210.909493 
L 195.163084 210.294573 
L 195.625409 208.885707 
L 195.779517 208.654786 
L 195.895098 208.611298 
L 196.049206 209.045598 
L 196.550058 211.528908 
L 196.665639 211.287984 
L 196.973855 210.83136 
L 197.205017 210.113228 
L 197.397652 210.102936 
L 197.513234 209.864622 
L 197.898504 207.909981 
L 197.975558 208.037981 
L 198.360829 208.984135 
L 198.399356 208.885997 
L 198.746099 208.09408 
L 198.86168 208.396177 
L 199.169896 210.209337 
L 199.401059 211.158535 
L 199.439586 211.227391 
L 199.478113 211.169987 
L 199.593694 211.035464 
L 199.632221 211.077792 
L 199.786329 211.602402 
L 200.1716 213.722732 
L 200.287181 213.536604 
L 200.402762 213.446728 
L 200.441289 213.480939 
L 200.595397 213.872621 
L 200.749505 214.354178 
L 200.788032 214.338087 
L 200.94214 213.955828 
L 201.134776 213.488767 
L 201.173303 213.498769 
L 201.327411 213.816956 
L 201.674154 215.32686 
L 201.943843 216.173716 
L 202.097952 216.370572 
L 202.444695 217.293387 
L 202.521749 217.173795 
L 203.099655 216.511328 
L 203.369344 216.501325 
L 203.561979 216.373906 
L 203.716087 216.611785 
L 203.870196 217.024196 
L 203.908723 216.954615 
L 204.640736 213.089982 
L 204.910426 212.962417 
L 205.334223 213.899293 
L 205.64244 215.10884 
L 205.719494 215.285546 
L 205.758021 215.266556 
L 205.873602 215.283227 
L 206.066237 215.564014 
L 206.104764 215.496753 
L 206.220345 215.416445 
L 206.258872 215.45312 
L 206.451507 215.960045 
L 206.952359 217.423996 
L 207.183521 217.761608 
L 207.299102 217.802486 
L 207.491738 217.71783 
L 207.684373 217.991224 
L 208.262278 219.536643 
L 208.531968 219.953548 
L 208.76313 219.747705 
L 208.994292 218.845764 
L 209.302509 217.007526 
L 209.610725 216.57482 
L 209.764833 216.157335 
L 210.111577 212.682644 
L 210.535374 208.977322 
L 210.728009 208.212803 
L 211.11328 205.242572 
L 211.151807 205.275478 
L 211.344442 205.41319 
L 211.614131 204.607212 
L 211.691185 204.718542 
L 211.768239 204.892204 
L 211.845293 204.848426 
L 211.999402 204.929459 
L 212.192037 205.616279 
L 212.307618 205.980419 
L 212.346145 205.917796 
L 212.461726 205.786897 
L 212.500253 205.815309 
L 212.654361 206.283675 
L 213.463429 210.711478 
L 213.694591 211.783457 
L 213.733119 211.751566 
L 213.8487 211.640237 
L 213.887227 211.678506 
L 214.041335 212.147887 
L 214.503659 214.652071 
L 214.580713 214.458259 
L 215.120092 211.342054 
L 215.54389 210.623632 
L 215.582417 210.673064 
L 215.852106 211.06721 
L 216.006214 210.385753 
L 216.352957 208.441984 
L 216.391484 208.475325 
L 216.58412 208.909045 
L 216.622647 208.771913 
L 216.96939 207.215333 
L 217.007917 207.274042 
L 217.162025 207.893021 
L 218.202255 213.567915 
L 218.240783 213.464268 
L 218.471945 212.82456 
L 218.587526 212.965751 
L 218.66458 213.083459 
L 218.703107 213.000541 
L 219.165432 210.735541 
L 219.203959 210.773086 
L 219.396594 211.306829 
L 219.743337 212.702069 
L 219.781864 212.614803 
L 219.935972 211.691843 
L 220.167135 210.68727 
L 220.590932 209.320732 
L 220.629459 209.351463 
L 220.783567 209.724735 
L 220.899148 210.023933 
L 220.937675 209.9429 
L 221.053257 209.439744 
L 221.284419 206.589396 
L 221.631162 202.854936 
L 222.209068 200.047351 
L 222.401703 199.029442 
L 222.632865 198.237815 
L 222.825501 198.283043 
L 222.979609 198.091405 
L 223.09519 198.366684 
L 223.364879 199.90645 
L 223.75015 201.981262 
L 223.904258 202.282344 
L 224.289528 203.366355 
L 224.443636 203.502617 
L 224.559217 203.679034 
L 224.597745 203.611917 
L 225.021542 202.453687 
L 225.560921 199.491429 
L 225.676502 199.734237 
L 225.83061 200.24783 
L 225.869137 200.220288 
L 226.100299 199.805412 
L 226.138826 199.855424 
L 226.292934 200.444251 
L 226.562624 201.37388 
L 226.793786 202.467748 
L 226.87084 202.336414 
L 226.986421 201.875006 
L 227.410219 198.352044 
L 227.872543 194.079058 
L 228.334868 186.775683 
L 228.411922 186.651307 
L 228.450449 186.695085 
L 228.643084 187.140402 
L 228.681611 187.080824 
L 228.874246 186.397192 
L 229.413625 183.597435 
L 229.60626 183.256634 
L 230.145639 180.519209 
L 230.299747 180.251613 
L 230.492382 176.853896 
L 230.839125 167.340026 
L 230.954707 155.592033 
L 231.031761 58.895595 
L 231.070288 146.491589 
L 231.262923 208.409223 
L 231.95641 196.616437 
L 232.611369 191.361203 
L 232.919586 190.115996 
L 233.38191 184.687099 
L 233.767181 180.052148 
L 233.882762 179.861236 
L 233.921289 179.893707 
L 234.075397 180.278721 
L 234.113924 180.199283 
L 234.537722 178.12592 
L 234.69183 178.142155 
L 234.845938 177.389813 
L 235.0771 176.589924 
L 235.154154 176.608913 
L 235.231208 176.246513 
L 235.809114 170.772679 
L 235.963222 163.888383 
L 236.040276 143.502804 
L 236.078803 37.143477 
L 236.11733 100.48114 
L 236.271438 204.340776 
L 236.309965 206.159444 
L 236.38702 204.632001 
L 236.733763 195.085225 
L 237.504304 189.665316 
L 237.619885 188.551008 
L 238.082209 183.265766 
L 238.621588 178.130124 
L 238.968331 172.828646 
L 239.160967 165.596157 
L 239.238021 156.702136 
L 239.315075 52.296726 
L 239.353602 137.056867 
L 239.546237 207.815322 
L 240.201197 192.29518 
L 240.393832 191.350186 
L 240.624994 191.264659 
L 240.894684 190.147308 
L 241.087319 189.602693 
L 241.241427 189.882466 
L 241.279954 189.786502 
L 241.742278 187.532374 
L 241.973441 185.821991 
L 242.936617 170.128911 
L 243.090725 162.521556 
L 243.129252 157.036124 
L 243.206306 49.58293 
L 243.244833 131.514322 
L 243.398941 207.069648 
L 243.437468 207.555989 
L 243.475995 206.767261 
L 243.784212 201.256462 
L 244.400644 197.916439 
L 244.747388 196.265199 
L 245.132658 193.182335 
L 245.440875 192.380996 
L 245.517929 192.279814 
L 245.749091 191.121294 
L 246.28847 187.110975 
L 246.67374 186.390669 
L 246.943429 185.297816 
L 247.251646 184.126394 
L 247.868078 177.966899 
L 248.445984 168.113388 
L 248.561565 160.492116 
L 248.600092 152.067765 
L 248.638619 43.109161 
L 248.677146 77.800988 
L 248.831254 204.249161 
L 248.869781 206.983977 
L 248.946835 205.697167 
L 249.524741 188.301967 
L 250.603498 170.233862 
L 250.757606 163.039353 
L 250.834661 145.097653 
L 250.873188 40.236199 
L 250.911715 107.489521 
L 251.065823 206.434143 
L 251.10435 207.583676 
L 251.142877 207.002821 
L 251.566674 198.153303 
L 252.221634 190.511882 
L 252.568377 186.328481 
L 252.722486 185.944482 
L 252.876594 186.089297 
L 252.915121 185.947671 
L 253.300391 183.661362 
L 253.762716 182.470516 
L 254.070932 181.29489 
L 254.49473 179.651624 
L 254.648838 178.988867 
L 254.764419 178.168248 
L 255.034108 173.819448 
L 255.226743 167.870145 
L 255.342325 154.206215 
L 255.380852 50.236844 
L 255.419379 66.551222 
L 255.573487 204.693174 
L 255.650541 208.839755 
L 255.689068 208.292386 
L 256.074338 202.573569 
L 256.690771 198.18505 
L 256.998987 197.868022 
L 257.076041 197.862224 
L 257.846582 195.341369 
L 258.308907 192.239225 
L 258.424488 192.463478 
L 258.501542 192.685992 
L 258.540069 192.635256 
L 258.848285 191.922198 
L 258.886812 191.954234 
L 259.002394 191.890452 
L 259.079448 191.753319 
L 259.349137 191.045335 
L 259.503245 190.906318 
L 259.618826 191.183337 
L 260.582002 195.023617 
L 261.082854 198.609637 
L 261.159908 198.530489 
L 261.314016 198.409158 
L 261.891922 196.349131 
L 262.007503 196.284334 
L 262.200138 196.616003 
L 262.238665 196.537144 
L 262.392773 196.314486 
L 262.469827 196.33594 
L 262.855098 195.545038 
L 262.932152 195.66405 
L 263.124787 196.347392 
L 263.163314 196.235338 
L 263.355949 195.082036 
L 263.856801 191.035043 
L 264.203544 187.842878 
L 264.473234 187.435831 
L 264.550288 187.556872 
L 264.742923 188.427357 
L 264.897031 188.963419 
L 264.935558 188.938341 
L 265.243774 188.802514 
L 265.320829 188.824837 
L 265.359356 188.773812 
L 265.590518 188.408512 
L 265.783153 188.477368 
L 265.937261 188.420254 
L 266.052842 188.645667 
L 266.245478 188.925295 
L 266.361059 188.962839 
L 266.515167 189.421493 
L 266.938964 191.530661 
L 267.016018 191.469488 
L 267.1316 191.364972 
L 267.170127 191.398167 
L 267.247181 191.469778 
L 267.439816 190.838622 
L 267.478343 190.860076 
L 267.709505 191.508482 
L 267.786559 191.284954 
L 268.133303 190.295602 
L 268.287411 190.528987 
L 268.480046 191.168116 
L 268.788262 192.560167 
L 268.826789 192.541322 
L 269.135006 192.573358 
L 269.366168 193.216256 
L 269.404695 193.161751 
L 269.712911 192.120503 
L 269.944074 191.687652 
L 270.059655 191.899584 
L 270.521979 193.25612 
L 270.714614 193.238145 
L 271.369574 191.689247 
L 271.408101 191.741143 
L 271.562209 192.405929 
L 271.908953 195.405152 
L 272.409804 199.352702 
L 272.563913 200.079387 
L 272.60244 200.056918 
L 272.718021 199.682486 
L 273.064764 197.992253 
L 273.141818 197.913105 
L 273.180345 197.961086 
L 273.218872 198.000081 
L 273.257399 197.954128 
L 273.950886 196.278536 
L 274.066467 196.530911 
L 274.336157 197.964276 
L 274.798481 200.758814 
L 274.837008 200.725184 
L 275.06817 200.258992 
L 275.569022 197.442999 
L 275.800184 195.79176 
L 275.877238 195.909612 
L 276.262509 196.963762 
L 276.647779 196.44321 
L 276.686306 196.494236 
L 276.840414 197.029573 
L 277.341266 199.34183 
L 277.456847 199.101632 
L 277.610955 198.926375 
L 277.726536 199.199335 
L 277.996226 200.743739 
L 278.304442 201.931831 
L 278.45855 201.975754 
L 278.651185 202.509496 
L 278.689712 202.436147 
L 278.920875 201.327348 
L 279.036456 201.4797 
L 279.267618 202.221896 
L 279.691415 203.845013 
L 279.806997 203.910245 
L 279.961105 204.482112 
L 281.116916 210.370242 
L 281.502186 208.712335 
L 281.540713 208.730165 
L 281.694822 208.795542 
L 282.003038 208.121768 
L 282.080092 208.200771 
L 282.2342 208.541282 
L 282.311254 208.479964 
L 282.465362 208.469092 
L 282.619471 208.874835 
L 282.966214 210.700171 
L 283.467066 213.192758 
L 283.736755 214.097164 
L 284.006444 214.657579 
L 284.160552 214.468551 
L 284.276133 214.112675 
L 284.507296 211.880291 
L 284.815512 208.73031 
L 284.931093 208.52896 
L 284.96962 208.550704 
L 285.123728 208.957027 
L 285.547526 210.266161 
L 285.778688 210.983713 
L 285.855742 211.139255 
L 286.086904 210.192811 
L 286.125432 210.210206 
L 286.27954 210.648565 
L 286.549229 211.411055 
L 286.741864 212.069173 
L 286.780391 212.255882 
L 286.818918 212.220512 
L 287.204189 209.731693 
L 287.281243 209.81548 
L 287.473878 210.606092 
L 288.090311 212.845289 
L 288.167365 212.75179 
L 288.36 212.477091 
L 288.629689 212.137595 
L 289.092014 212.790639 
L 290.132244 216.701225 
L 290.170771 216.582938 
L 290.478987 214.570023 
L 290.71015 213.582701 
L 290.787204 213.579077 
L 290.941312 212.728017 
L 291.211001 211.241742 
L 291.326582 211.21362 
L 291.48069 211.577469 
L 291.711853 212.37098 
L 291.75038 212.307633 
L 292.097123 211.313062 
L 292.597975 209.414376 
L 292.713556 209.612536 
L 292.983245 210.799034 
L 293.329988 212.322419 
L 293.522624 212.31662 
L 293.676732 212.04569 
L 293.715259 212.074827 
L 293.792313 212.166732 
L 293.907894 211.532676 
L 294.601381 206.964842 
L 294.678435 207.038192 
L 294.87107 207.921288 
L 295.564557 211.677492 
L 295.795719 212.380258 
L 295.834246 212.288353 
L 296.065409 211.422217 
L 296.412152 211.692857 
L 296.56626 212.227035 
L 296.604787 212.162528 
L 296.990058 210.906014 
L 297.067112 210.88601 
L 297.298274 210.268915 
L 297.837652 210.901086 
L 298.222923 212.099035 
L 298.608193 212.260666 
L 298.762301 211.727793 
L 299.109045 208.345586 
L 299.494315 206.833073 
L 299.532842 206.891927 
L 300.34191 209.277099 
L 300.727181 211.162594 
L 301.536249 212.774984 
L 301.574776 212.741063 
L 301.728884 212.444475 
L 301.767411 212.473757 
L 302.0371 212.634952 
L 302.615006 214.030192 
L 303.462601 210.801353 
L 303.616709 210.744094 
L 303.770817 211.101565 
L 303.847871 211.277547 
L 303.886398 211.240147 
L 304.079033 210.981973 
L 304.194614 211.185787 
L 304.464304 212.368806 
L 305.080736 215.844657 
L 305.157791 215.664906 
L 305.388953 215.159721 
L 305.504534 214.83588 
L 305.735696 213.136369 
L 306.198021 208.652321 
L 306.313602 208.517798 
L 306.814453 207.130386 
L 306.968562 207.20823 
L 307.084143 207.340578 
L 307.353832 208.291371 
L 307.739102 210.194261 
L 308.124373 211.847385 
L 308.317008 212.066129 
L 308.509643 212.15267 
L 308.54817 212.089758 
L 309.049022 208.712045 
L 309.087549 208.723207 
L 309.20313 209.006169 
L 309.511346 210.721915 
L 309.973671 213.461659 
L 310.012198 213.42165 
L 310.204833 213.297709 
L 310.397468 213.126367 
L 310.435995 213.163042 
L 310.628631 213.706062 
L 310.821266 214.107311 
L 310.859793 214.059909 
L 311.129482 213.201456 
L 311.399171 212.375184 
L 311.514753 212.414323 
L 311.630334 212.488108 
L 311.668861 212.445635 
L 311.822969 212.088453 
L 312.092658 211.250439 
L 312.208239 211.394095 
L 312.439402 212.29937 
L 312.824672 213.919298 
L 312.863199 213.893785 
L 313.017307 212.689602 
L 313.402578 210.653349 
L 313.479632 210.59493 
L 313.518159 210.633055 
L 313.63374 210.876877 
L 313.672267 210.791496 
L 314.096064 209.081548 
L 314.211646 209.188963 
L 314.404281 209.681102 
L 314.481335 209.615001 
L 314.558389 209.554552 
L 314.712497 209.234626 
L 314.751024 209.258254 
L 314.828078 209.178816 
L 314.943659 209.072995 
L 314.982186 209.119962 
L 315.367457 209.92449 
L 315.405984 209.871 
L 315.598619 209.275359 
L 315.637146 209.302177 
L 315.791254 209.680523 
L 315.829781 209.602824 
L 316.176525 208.234257 
L 316.253579 208.323842 
L 316.677376 209.648052 
L 316.908539 210.546948 
L 316.985593 210.429966 
L 317.139701 210.278338 
L 317.255282 210.491284 
L 317.910242 212.996628 
L 318.256985 214.717738 
L 318.334039 214.659029 
L 318.44962 214.723536 
L 318.642255 214.992872 
L 318.796364 214.378821 
L 319.143107 212.518984 
L 319.528377 208.484748 
L 319.643959 208.041895 
L 320.183337 204.821753 
L 320.414499 204.249596 
L 320.491554 204.298158 
L 320.607135 204.381945 
L 320.761243 204.939896 
L 321.107986 207.376818 
L 321.608838 210.699591 
L 321.801473 211.087649 
L 321.84 211.001978 
L 321.955581 210.827156 
L 321.994108 210.850785 
L 322.109689 211.042567 
L 322.148216 211.000818 
L 322.533487 209.988708 
L 322.610541 210.097283 
L 323.072865 211.4486 
L 323.111392 211.386122 
L 323.188446 211.056338 
L 323.53519 208.301663 
L 323.766352 207.286943 
L 323.804879 207.294191 
L 323.92046 207.561497 
L 324.074568 208.084658 
L 324.113096 208.002031 
L 324.421312 206.093052 
L 324.498366 206.181333 
L 324.96069 207.84272 
L 325.423015 210.012916 
L 325.654177 209.643993 
L 325.731231 209.758366 
L 325.923867 210.311388 
L 326.000921 210.250795 
L 326.116502 210.45055 
L 326.617353 211.548622 
L 326.732934 211.529777 
L 326.887043 211.446425 
L 326.964097 211.107799 
L 327.233786 209.915068 
L 327.349367 210.112503 
L 327.619056 211.421782 
L 328.274016 215.374406 
L 328.35107 215.251625 
L 328.620759 213.629668 
L 328.928976 210.227457 
L 329.044557 210.117287 
L 329.198665 210.526219 
L 329.545409 211.561813 
L 329.66099 211.128238 
L 329.815098 210.749458 
L 329.853625 210.77729 
L 330.007733 211.24841 
L 330.43153 213.753609 
L 331.202071 217.969335 
L 331.394707 218.671377 
L 331.433234 218.519314 
L 331.779977 216.55815 
L 331.895558 216.30244 
L 332.280829 214.673815 
L 332.589045 212.910666 
L 332.743153 212.617557 
L 332.78168 212.631038 
L 332.935788 212.958213 
L 333.205478 213.843339 
L 333.244005 213.772019 
L 333.43664 213.391788 
L 333.475167 213.418751 
L 333.552221 213.361202 
L 333.783383 212.646259 
L 334.130127 211.114322 
L 334.361289 210.698722 
L 334.399816 210.725829 
L 334.553924 211.132297 
L 334.823613 212.174124 
L 334.86214 212.128172 
L 335.170357 211.871738 
L 335.324465 211.654733 
L 335.555627 210.900071 
L 335.786789 210.150918 
L 336.056479 209.448732 
L 336.287641 209.175192 
L 336.364695 209.082418 
L 336.403222 209.116773 
L 336.55733 209.643703 
L 337.135236 212.467234 
L 337.173763 212.424036 
L 337.443452 212.166297 
L 337.59756 212.519274 
L 337.86725 213.173044 
L 337.982831 213.329166 
L 338.213993 214.208348 
L 338.406628 214.932713 
L 338.560736 213.841599 
L 338.868953 212.318215 
L 339.023061 212.262115 
L 339.215696 212.287338 
L 339.832129 213.333949 
L 339.986237 213.795502 
L 340.024764 213.772888 
L 340.101818 213.5295 
L 341.411738 206.02869 
L 341.527319 206.019413 
L 341.719954 206.053623 
L 341.912589 205.897501 
L 342.066697 206.263091 
L 342.336387 206.943968 
L 342.413441 207.043555 
L 342.451968 206.967306 
L 342.529022 206.874097 
L 342.567549 206.903669 
L 342.644603 207.074287 
L 342.68313 207.013114 
L 343.222509 202.631553 
L 343.453671 201.117011 
L 343.530725 201.216308 
L 343.72336 202.177973 
L 344.147158 204.427607 
L 344.455374 205.99361 
L 344.76359 207.253312 
L 344.956226 207.629484 
L 345.225915 208.926151 
L 345.457077 209.745755 
L 345.572658 209.844762 
L 345.611185 209.793881 
L 345.842348 209.1649 
L 345.957929 209.362915 
L 346.150564 209.656024 
L 346.266145 209.832876 
L 346.497307 210.777435 
L 346.689942 211.788386 
L 346.72847 211.728083 
L 347.190794 210.096558 
L 347.49901 210.244997 
L 347.576064 210.139031 
L 348.500713 206.947592 
L 348.577768 206.742183 
L 348.885984 204.981499 
L 349.386835 198.335663 
L 349.46389 198.235931 
L 349.502417 198.296379 
L 349.656525 199.03466 
L 349.926214 200.134472 
L 350.350012 201.15702 
L 350.927917 203.668741 
L 351.004971 203.504357 
L 351.082025 203.470291 
L 351.120552 203.523202 
L 351.274661 204.116378 
L 351.852566 206.857861 
L 352.430472 208.634346 
L 352.623107 209.495988 
L 352.661634 209.471345 
L 352.931323 209.311744 
L 353.046904 209.481927 
L 353.278067 210.487225 
L 353.547756 211.459762 
L 353.778918 212.347062 
L 354.164189 214.41796 
L 354.241243 214.341566 
L 354.356824 214.396216 
L 354.395351 214.432601 
L 354.433878 214.362006 
L 354.66504 213.520513 
L 355.011784 210.41315 
L 355.127365 210.254419 
L 355.165892 210.283846 
L 355.32 210.536076 
L 355.358527 210.480992 
L 355.551162 210.295298 
L 355.743797 210.335742 
L 355.859379 210.461857 
L 356.167595 210.967043 
L 356.244649 210.984148 
L 356.861082 209.195776 
L 356.899609 209.21839 
L 357.053717 209.63689 
L 357.207825 209.848966 
L 357.284879 209.509325 
L 357.554568 208.009279 
L 357.708677 208.126986 
L 357.862785 208.436911 
L 358.132474 209.781705 
L 358.286582 210.416629 
L 358.325109 210.348643 
L 358.71038 208.835696 
L 358.980069 207.091247 
L 359.057123 207.191414 
L 359.249758 208.066103 
L 360.058826 212.51507 
L 360.174407 212.67815 
L 360.444097 211.967122 
L 360.482624 211.979443 
L 360.559678 211.999303 
L 360.752313 211.639367 
L 360.867894 211.879711 
L 360.983475 212.155715 
L 361.022002 212.122229 
L 361.253165 212.06265 
L 361.407273 212.339959 
L 361.522854 212.582477 
L 361.561381 212.496805 
L 361.792543 211.846515 
L 361.908124 212.047429 
L 362.100759 212.252983 
L 362.447503 212.11788 
L 362.563084 212.166152 
L 362.986881 212.919509 
L 363.025409 212.857031 
L 363.179517 212.618282 
L 363.295098 212.821371 
L 363.449206 213.175653 
L 363.487733 213.132165 
L 363.603314 212.635387 
L 363.91153 211.101131 
L 364.296801 208.137568 
L 364.489436 206.860181 
L 364.797652 204.468921 
L 364.913234 204.194946 
L 364.951761 204.230027 
L 365.105869 204.823783 
L 365.491139 207.773429 
L 365.991991 211.322919 
L 366.223153 211.758814 
L 366.300207 211.989445 
L 366.338734 211.91885 
L 366.569896 211.584717 
L 366.685478 211.561524 
L 366.839586 211.100696 
L 366.955167 210.93979 
L 366.993694 210.967043 
L 367.147802 211.388731 
L 367.533072 213.470792 
L 367.725708 213.999316 
L 367.841289 213.856965 
L 368.419194 212.252113 
L 368.496249 212.336045 
L 368.688884 213.003586 
L 369.382371 215.804068 
L 369.844695 217.527932 
L 370.075857 218.325067 
L 370.114384 218.151985 
L 370.653763 213.906396 
L 371.116087 207.163292 
L 371.193142 207.13633 
L 371.231669 207.196053 
L 371.308723 207.348261 
L 371.34725 207.314196 
L 371.616939 207.085884 
L 371.693993 207.205041 
L 372.079264 205.99419 
L 372.156318 206.059422 
L 372.310426 206.671878 
L 372.618642 208.396032 
L 372.695696 208.353994 
L 372.811277 208.332105 
L 372.965386 208.69465 
L 373.119494 208.915424 
L 373.158021 208.897884 
L 373.235075 208.812647 
L 373.581818 207.487278 
L 373.581818 207.487278 
" style="fill:none;stroke:#000000;stroke-linecap:square;stroke-width:1.5;"/>
   </g>
   <g id="line2d_19">
    <path clip-path="url(#pe54653f98c)" d="M 69.218182 216.066735 
L 69.680506 217.265844 
L 69.873142 217.53663 
L 70.219885 218.13343 
L 70.451047 218.081389 
L 70.605155 218.020796 
L 70.682209 218.095306 
L 70.720736 218.032828 
L 70.913372 217.781902 
L 70.990426 217.764797 
L 71.106007 217.185102 
L 71.337169 216.132112 
L 71.414223 216.188502 
L 71.606858 216.835603 
L 71.760967 217.329482 
L 71.799494 217.294257 
L 71.915075 216.918375 
L 72.10771 216.464216 
L 72.223291 216.637878 
L 72.49298 217.703334 
L 72.878251 219.124812 
L 73.032359 219.20164 
L 73.14794 219.358052 
L 73.186467 219.264408 
L 73.379102 217.930921 
L 73.841427 216.018754 
L 74.18817 215.214516 
L 74.303751 215.399484 
L 74.573441 216.604537 
L 74.84313 217.918309 
L 74.920184 217.872212 
L 75.035765 217.959188 
L 75.49809 218.755019 
L 75.729252 218.342607 
L 75.921887 218.511921 
L 75.960414 218.424655 
L 76.345685 216.10486 
L 76.461266 216.14052 
L 76.653901 216.628165 
L 77.347388 218.759512 
L 77.57855 218.924477 
L 77.617077 218.813437 
L 77.809712 218.023695 
L 78.002348 217.549966 
L 78.156456 217.845105 
L 78.387618 218.291292 
L 78.503199 217.572 
L 78.849942 215.262497 
L 79.081105 214.952863 
L 79.427848 214.94373 
L 79.620483 214.825298 
L 79.736064 214.890965 
L 79.774591 214.833126 
L 80.044281 214.092815 
L 80.159862 214.295034 
L 80.545132 215.136382 
L 80.737768 215.206833 
L 81.007457 215.45254 
L 81.508308 213.87378 
L 81.662417 213.768395 
L 81.816525 213.996707 
L 82.124741 214.491745 
L 82.355903 214.829357 
L 82.39443 214.750933 
L 82.548539 214.0731 
L 82.741174 213.555738 
L 83.010863 213.45818 
L 83.357606 214.271406 
L 83.434661 214.145725 
L 83.781404 213.65663 
L 83.896985 213.865228 
L 84.166674 215.038244 
L 84.590472 216.807771 
L 84.667526 216.785737 
L 84.783107 216.438848 
L 85.052796 214.961125 
L 85.168377 215.01853 
L 85.361013 215.505305 
L 85.39954 215.427752 
L 85.707756 213.808983 
L 85.900391 212.945457 
L 86.131554 213.023735 
L 86.208608 212.677571 
L 86.43977 211.445266 
L 86.555351 211.499771 
L 86.670932 211.693147 
L 86.709459 211.634004 
L 86.786513 211.276532 
L 87.325892 206.267874 
L 87.441473 206.534746 
L 87.711162 208.154094 
L 88.13496 210.589132 
L 88.289068 210.852814 
L 88.481703 209.866361 
L 88.751392 208.031892 
L 89.136663 205.072244 
L 89.290771 204.603878 
L 89.329298 204.643308 
L 89.483406 205.25127 
L 90.138366 208.80337 
L 90.176893 208.772783 
L 90.253947 208.623764 
L 90.677745 205.825166 
L 90.716272 205.844301 
L 91.217123 206.581568 
L 91.525339 207.933755 
L 91.563867 207.901863 
L 91.756502 207.903023 
L 91.91061 208.244839 
L 92.257353 209.397271 
L 92.29588 209.377701 
L 92.411461 209.117498 
L 92.681151 208.374433 
L 92.796732 208.45648 
L 92.989367 209.081403 
L 93.413165 211.584282 
L 93.836962 214.105716 
L 93.875489 214.097454 
L 93.99107 214.180661 
L 94.183705 214.787608 
L 94.530449 215.905395 
L 94.684557 216.078042 
L 94.761611 216.149508 
L 94.800138 216.078187 
L 94.954246 215.884086 
L 94.992773 215.902931 
L 95.146881 216.19546 
L 95.339517 216.7192 
L 95.416571 216.662231 
L 95.570679 216.653388 
L 95.840368 216.709488 
L 95.917422 216.298671 
L 96.148585 214.949384 
L 96.264166 214.9446 
L 96.803544 215.951347 
L 97.188815 216.964183 
L 97.38145 217.245695 
L 97.458504 217.39225 
L 97.497031 217.332816 
L 97.76672 216.41261 
L 97.882301 216.490308 
L 98.113464 217.075512 
L 98.267572 217.540834 
L 98.306099 217.487343 
L 98.498734 217.271788 
L 98.652842 217.522714 
L 98.845478 217.833653 
L 99.423383 216.456823 
L 99.616018 216.716301 
L 99.693072 216.538 
L 100.270978 215.302941 
L 100.77183 212.708737 
L 100.810357 212.722653 
L 100.964465 213.063744 
L 101.311208 213.920023 
L 101.503843 213.613867 
L 101.657952 213.94945 
L 101.850587 214.119923 
L 102.081749 214.011782 
L 102.428493 212.885298 
L 102.544074 212.944877 
L 102.890817 213.40527 
L 103.044925 213.800576 
L 103.468723 215.829871 
L 103.584304 215.591701 
L 103.738412 215.388902 
L 103.853993 215.555751 
L 104.123682 216.507994 
L 104.200736 216.736306 
L 104.239264 216.583953 
L 104.624534 214.782535 
L 104.663061 214.806743 
L 104.971277 214.968084 
L 105.240967 215.848136 
L 105.664764 217.202207 
L 105.780345 217.383407 
L 105.895926 216.650054 
L 106.204143 214.05614 
L 106.743521 212.590884 
L 106.782048 212.640461 
L 107.051738 213.466733 
L 107.629643 214.9072 
L 107.745224 214.965474 
L 107.899333 215.011137 
L 107.93786 215.070715 
L 107.976387 215.037084 
L 108.169022 214.401725 
L 108.477238 212.531451 
L 108.592819 212.595088 
L 108.785455 213.285243 
L 108.97809 213.709686 
L 109.093671 213.902483 
L 109.36336 215.030851 
L 109.633049 216.118921 
L 109.671577 216.022233 
L 109.979793 215.092749 
L 110.095374 215.01795 
L 110.172428 214.511025 
L 110.442117 212.545657 
L 110.519171 212.549426 
L 111.097077 213.341342 
L 111.482348 212.141364 
L 111.559402 212.253273 
L 111.71351 212.641331 
L 111.752037 212.604656 
L 111.944672 212.165862 
L 111.983199 212.179923 
L 112.291415 212.590015 
L 112.329942 212.455347 
L 112.522578 211.976399 
L 112.638159 212.151656 
L 112.869321 213.138688 
L 113.4087 215.459208 
L 113.716916 216.267505 
L 113.871024 216.307369 
L 113.948078 216.090509 
L 114.410403 213.394398 
L 114.603038 213.33076 
L 114.757146 213.636191 
L 115.10389 215.08956 
L 115.373579 215.899596 
L 115.566214 216.239673 
L 115.951484 216.731812 
L 116.028539 216.483785 
L 116.14412 215.092604 
L 116.413809 212.028875 
L 116.567917 211.810855 
L 116.760552 211.853908 
L 116.914661 212.217178 
L 117.299931 213.333949 
L 117.376985 213.13318 
L 117.762255 210.653204 
L 117.800783 210.678572 
L 117.954891 211.125919 
L 118.22458 212.129332 
L 118.263107 212.08077 
L 118.417215 211.587761 
L 118.841013 209.347404 
L 119.26481 208.368055 
L 119.380391 208.227009 
L 119.418918 208.267163 
L 119.534499 208.47431 
L 119.573026 208.376462 
L 119.765662 207.326372 
L 120.035351 205.537131 
L 120.112405 205.600913 
L 120.266513 205.868799 
L 120.30504 205.837778 
L 120.57473 205.814729 
L 120.728838 205.720505 
L 120.882946 205.541915 
L 120.921473 205.584098 
L 121.34527 206.359779 
L 121.61496 206.305709 
L 121.769068 206.830029 
L 122.578136 210.369662 
L 122.809298 210.914422 
L 122.886352 210.655813 
L 123.233096 207.774733 
L 123.271623 207.807494 
L 123.425731 207.60426 
L 123.772474 207.474521 
L 123.965109 208.217006 
L 124.35038 209.882307 
L 124.504488 209.918402 
L 124.658596 209.94522 
L 124.851231 210.443592 
L 124.928285 210.248041 
L 125.197975 209.386109 
L 125.352083 209.517008 
L 125.39061 209.463952 
L 125.698826 208.740022 
L 125.852934 208.384145 
L 125.891461 208.410528 
L 126.315259 209.350884 
L 126.623475 210.768302 
L 126.700529 210.701911 
L 126.970219 210.394885 
L 127.008746 210.454899 
L 127.162854 210.945154 
L 127.239908 210.852089 
L 127.432543 210.068725 
L 127.47107 210.080757 
L 127.740759 210.714087 
L 128.395719 212.383737 
L 128.5113 211.921459 
L 128.935098 209.83476 
L 129.127733 209.875204 
L 129.397422 210.298342 
L 129.435949 210.262392 
L 129.667112 209.794461 
L 129.705639 209.814176 
L 129.859747 210.210061 
L 130.20649 212.103674 
L 130.399125 212.66032 
L 130.47618 212.453462 
L 130.822923 210.439243 
L 131.015558 210.389812 
L 131.169666 210.824982 
L 131.709045 212.932555 
L 131.747572 212.899504 
L 131.863153 212.875006 
L 132.364005 213.82087 
L 132.864856 215.083617 
L 133.173072 215.780439 
L 133.327181 215.874373 
L 133.558343 216.461461 
L 133.673924 216.796464 
L 133.712451 216.769791 
L 133.828032 215.221764 
L 134.174776 211.272328 
L 134.560046 210.022628 
L 134.6371 210.104241 
L 135.523222 211.91943 
L 135.600276 211.861011 
L 135.908493 211.260007 
L 136.216709 211.154331 
L 136.640506 209.469461 
L 136.71756 209.577746 
L 136.833142 209.724445 
L 137.295466 208.279194 
L 137.37252 208.217876 
L 137.411047 208.266728 
L 137.565155 208.831492 
L 137.873372 210.217309 
L 137.911899 210.202958 
L 138.104534 209.539187 
L 138.297169 209.104307 
L 138.41275 209.292465 
L 138.68244 210.025092 
L 138.720967 209.96044 
L 138.952129 209.623843 
L 139.106237 209.947974 
L 139.45298 211.035174 
L 139.684143 209.692409 
L 139.915305 209.069516 
L 140.223521 208.678269 
L 140.339102 208.867007 
L 140.377629 208.78496 
L 140.531738 208.463438 
L 140.570265 208.478514 
L 140.7629 208.71074 
L 140.994062 209.419015 
L 141.071116 209.674869 
L 141.109643 209.606158 
L 141.494914 207.33391 
L 141.764603 204.288156 
L 141.880184 204.254235 
L 142.034292 204.461238 
L 142.381036 205.811685 
L 142.766306 207.46191 
L 142.804833 207.404506 
L 143.305685 206.142629 
L 143.382739 206.265555 
L 143.459793 206.478501 
L 143.49832 206.373405 
L 143.88359 205.161395 
L 144.15328 204.682592 
L 144.268861 204.482837 
L 144.307388 204.50806 
L 144.461496 205.003388 
L 145.270564 209.137502 
L 145.309091 209.037625 
L 145.57878 207.992753 
L 145.84847 207.640356 
L 145.925524 207.690367 
L 145.964051 207.612523 
L 146.079632 207.484813 
L 146.118159 207.519024 
L 146.464902 208.401106 
L 147.119862 210.965738 
L 147.158389 210.837013 
L 147.351024 210.392856 
L 147.466605 210.584493 
L 147.92893 211.797228 
L 148.352727 211.390181 
L 148.545362 211.416564 
L 148.699471 211.678796 
L 148.96916 212.703373 
L 149.392957 214.214292 
L 149.662647 214.911984 
L 149.701174 214.865742 
L 150.047917 213.889146 
L 150.279079 212.808759 
L 150.394661 212.864714 
L 150.587296 213.415127 
L 150.818458 213.953508 
L 151.011093 214.261983 
L 151.126674 214.440284 
L 151.165201 214.374617 
L 151.511945 212.250228 
L 151.588999 212.286758 
L 151.781634 212.066854 
L 151.820161 212.109327 
L 152.012796 212.255737 
L 152.128377 212.365327 
L 152.321013 213.027939 
L 152.629229 213.998011 
L 152.860391 214.133404 
L 153.091554 214.723391 
L 153.168608 214.927205 
L 153.207135 214.913144 
L 153.361243 214.05759 
L 153.592405 212.871817 
L 153.669459 212.839346 
L 154.324419 209.588763 
L 154.44 209.18302 
L 154.555581 208.996021 
L 154.594108 209.043278 
L 155.09496 210.479107 
L 155.364649 211.471358 
L 155.634338 211.056628 
L 155.749919 211.108958 
L 156.058136 211.896961 
L 156.404879 213.138688 
L 156.443406 213.080414 
L 156.751623 212.294876 
L 156.79015 212.333146 
L 156.944258 212.750775 
L 157.368055 214.871105 
L 157.753326 216.660781 
L 157.791853 216.594245 
L 158.331231 215.846976 
L 158.369758 215.887855 
L 158.716502 216.259097 
L 158.986191 216.440297 
L 159.294407 215.146819 
L 159.448516 214.463768 
L 159.833786 212.417947 
L 159.949367 212.529566 
L 160.064948 212.562327 
L 160.450219 212.339234 
L 160.681381 211.875652 
L 160.719908 211.9016 
L 161.105178 212.583057 
L 161.220759 212.947486 
L 161.259287 212.866743 
L 161.374868 212.738889 
L 161.413395 212.780202 
L 161.567503 213.253787 
L 161.760138 213.64141 
L 161.914246 213.934374 
L 162.222463 215.239449 
L 162.569206 216.514082 
L 162.723314 216.481321 
L 162.915949 216.443631 
L 162.993003 216.500601 
L 163.03153 216.421308 
L 163.262693 216.01339 
L 163.378274 216.137476 
L 163.416801 216.075143 
L 163.532382 215.043753 
L 163.95618 210.423153 
L 164.225869 209.847372 
L 164.457031 209.629787 
L 164.649666 209.85317 
L 164.72672 209.721981 
L 164.880829 209.187514 
L 165.150518 207.127052 
L 165.343153 206.449219 
L 165.458734 206.297881 
L 165.497261 206.342964 
L 165.612842 206.280341 
L 165.805478 206.08334 
L 166.113694 206.458497 
L 166.383383 208.084078 
L 166.653072 209.180845 
L 166.730127 209.300148 
L 166.768654 209.23651 
L 166.884235 209.030232 
L 166.922762 209.046757 
L 167.038343 209.34552 
L 167.346559 211.12157 
L 167.770357 213.528341 
L 167.847411 213.375263 
L 168.271208 212.206306 
L 168.348262 212.196013 
L 168.810587 210.288195 
L 168.849114 210.308344 
L 169.003222 210.700606 
L 169.658182 212.986045 
L 169.850817 213.219431 
L 169.889344 213.176523 
L 170.004925 212.945022 
L 170.19756 212.347497 
L 170.313142 212.524783 
L 170.582831 213.665763 
L 170.929574 214.921116 
L 171.160736 215.243508 
L 171.391899 215.518642 
L 171.430426 215.459498 
L 171.700115 215.134643 
L 171.89275 215.43529 
L 171.931277 215.213501 
L 172.355075 211.527313 
L 172.470656 211.490783 
L 172.663291 211.585877 
L 172.778872 211.721994 
L 173.010035 212.598277 
L 174.050265 217.819012 
L 174.127319 217.782337 
L 174.358481 217.720729 
L 174.820806 215.771742 
L 174.974914 216.003823 
L 175.28313 216.879381 
L 175.321657 216.775735 
L 175.706928 215.701871 
L 175.783982 215.448191 
L 175.976617 214.74673 
L 176.092198 214.682802 
L 176.361887 213.977572 
L 176.400414 213.999751 
L 176.554522 214.350264 
L 177.055374 215.710134 
L 177.132428 215.883506 
L 177.170955 215.730573 
L 177.440644 214.759051 
L 177.63328 214.693964 
L 177.710334 214.772098 
L 177.825915 213.948725 
L 178.172658 211.796214 
L 178.40382 211.369017 
L 178.519402 211.461936 
L 178.67351 211.702135 
L 178.712037 211.640092 
L 178.827618 211.0675 
L 179.05878 209.968558 
L 179.135834 209.878248 
L 179.32847 208.969639 
L 179.521105 208.435026 
L 179.636686 208.695664 
L 179.906375 210.188897 
L 180.09901 210.741195 
L 180.253119 210.740905 
L 180.3687 210.792656 
L 180.407227 210.75743 
L 180.599862 210.047851 
L 180.638389 210.075249 
L 180.792497 210.61392 
L 181.370403 213.142022 
L 181.640092 214.401145 
L 181.832727 215.185524 
L 181.871254 215.102606 
L 182.372106 213.315974 
L 182.44916 213.391788 
L 182.680322 213.580092 
L 182.911484 214.316778 
L 183.10412 214.905751 
L 183.142647 214.85371 
L 183.258228 214.067302 
L 183.527917 212.306038 
L 183.874661 211.48542 
L 183.990242 211.726488 
L 184.452566 213.320178 
L 184.491093 213.266978 
L 184.760783 212.720334 
L 184.79931 212.748746 
L 184.953418 213.157533 
L 185.18458 213.708961 
L 185.300161 213.117089 
L 185.492796 212.615963 
L 185.56985 212.527682 
L 185.646904 212.228774 
L 185.955121 210.47012 
L 185.993648 210.494328 
L 186.032175 210.411121 
L 186.147756 210.228181 
L 186.186283 210.265871 
L 186.340391 210.808311 
L 186.687135 212.220367 
L 186.764189 212.100485 
L 187.226513 209.979865 
L 187.496203 210.007842 
L 187.650311 210.455769 
L 188.112635 212.214278 
L 188.266743 212.113531 
L 188.690541 210.476353 
L 188.883176 209.830701 
L 189.075811 209.85404 
L 189.152865 209.675449 
L 189.576663 207.722548 
L 189.692244 207.970864 
L 190.154568 209.796636 
L 190.231623 209.76315 
L 190.385731 209.766194 
L 190.65542 208.699723 
L 190.732474 208.758722 
L 190.809528 208.807428 
L 190.925109 208.372838 
L 191.31038 205.973895 
L 191.387434 205.963603 
L 191.541542 206.488938 
L 191.69565 207.031379 
L 191.734177 206.931501 
L 192.119448 205.979984 
L 192.157975 205.995494 
L 192.312083 206.403557 
L 192.543245 207.137634 
L 192.581772 207.104293 
L 192.889988 205.640487 
L 192.928516 205.671074 
L 193.159678 205.876337 
L 193.39084 206.869748 
L 193.622002 207.663839 
L 193.77611 207.481624 
L 193.853165 207.582082 
L 193.891692 207.543377 
L 194.007273 207.42509 
L 194.0458 207.466693 
L 194.199908 208.001451 
L 194.623705 209.61761 
L 194.777814 209.680523 
L 195.008976 209.892164 
L 195.163084 209.281448 
L 195.625409 207.863014 
L 195.779517 207.629194 
L 195.895098 207.584836 
L 196.049206 208.020876 
L 196.550058 210.533902 
L 196.665639 210.303706 
L 196.973855 209.87071 
L 197.205017 209.162291 
L 197.397652 209.156782 
L 197.513234 208.921077 
L 197.744396 207.394503 
L 197.898504 206.962957 
L 198.052612 207.267663 
L 198.283774 207.8217 
L 198.360829 208.031023 
L 198.399356 207.933465 
L 198.746099 207.138214 
L 198.86168 207.438136 
L 199.169896 209.252021 
L 199.401059 210.210496 
L 199.439586 210.281237 
L 199.478113 210.226152 
L 199.593694 210.096558 
L 199.632221 210.140191 
L 199.786329 210.671469 
L 200.1716 212.824705 
L 200.287181 212.651478 
L 200.402762 212.571605 
L 200.441289 212.609004 
L 200.633924 213.162752 
L 200.749505 213.51341 
L 200.788032 213.501813 
L 200.903613 213.277995 
L 201.134776 212.681484 
L 201.173303 212.694096 
L 201.327411 213.022865 
L 201.712681 214.755137 
L 201.943843 215.435724 
L 202.097952 215.647656 
L 202.444695 216.605697 
L 202.521749 216.493932 
L 203.099655 215.861182 
L 203.369344 215.858718 
L 203.561979 215.733762 
L 203.716087 215.973961 
L 203.870196 216.390576 
L 203.908723 216.32259 
L 204.640736 212.425485 
L 204.910426 212.280235 
L 205.334223 213.200296 
L 205.64244 214.406508 
L 205.719494 214.584809 
L 205.758021 214.566834 
L 205.873602 214.585389 
L 206.066237 214.87067 
L 206.104764 214.804424 
L 206.220345 214.726145 
L 206.258872 214.7634 
L 206.451507 215.275399 
L 206.952359 216.768922 
L 207.183521 217.12074 
L 207.299102 217.169156 
L 207.491738 217.094212 
L 207.684373 217.377174 
L 208.262278 218.961007 
L 208.531968 219.398931 
L 208.76313 219.206424 
L 208.994292 218.309122 
L 209.302509 216.460157 
L 209.610725 216.016434 
L 209.764833 215.592571 
L 210.111577 212.092222 
L 210.535374 208.341817 
L 210.728009 207.559033 
L 211.11328 204.543865 
L 211.151807 204.572567 
L 211.344442 204.691434 
L 211.614131 203.852551 
L 211.691185 203.953588 
L 211.768239 204.117972 
L 211.845293 204.065932 
L 211.999402 204.129134 
L 212.192037 204.792326 
L 212.307618 205.142985 
L 212.346145 205.076448 
L 212.461726 204.932503 
L 212.500253 204.956566 
L 212.654361 205.408551 
L 213.424902 209.534258 
L 213.694591 210.845711 
L 213.733119 210.81469 
L 213.8487 210.705825 
L 213.887227 210.744819 
L 214.041335 211.219563 
L 214.503659 213.764336 
L 214.580713 213.581541 
L 215.120092 210.481137 
L 215.54389 209.760251 
L 215.582417 209.809247 
L 215.852106 210.203393 
L 216.006214 209.521356 
L 216.352957 207.561497 
L 216.391484 207.592809 
L 216.58412 208.019861 
L 216.622647 207.882294 
L 216.96939 206.311942 
L 217.007917 206.368766 
L 217.162025 206.981367 
L 218.202255 212.668873 
L 218.240783 212.56914 
L 218.471945 211.945233 
L 218.587526 212.094107 
L 218.66458 212.217757 
L 218.703107 212.138174 
L 219.165432 209.877958 
L 219.203959 209.915358 
L 219.396594 210.449535 
L 219.743337 211.852313 
L 219.781864 211.766497 
L 219.935972 210.845711 
L 220.167135 209.834615 
L 220.590932 208.450827 
L 220.629459 208.479819 
L 220.783567 208.846278 
L 220.899148 209.140692 
L 220.937675 209.058354 
L 221.091784 208.217876 
L 221.78527 201.272408 
L 221.862325 200.968861 
L 222.170541 199.063507 
L 222.209068 199.052635 
L 222.401703 198.019795 
L 222.632865 197.199467 
L 222.825501 197.221645 
L 222.979609 197.00754 
L 223.09519 197.263249 
L 223.364879 198.754308 
L 223.75015 200.757655 
L 223.904258 201.033948 
L 224.289528 202.073892 
L 224.443636 202.191454 
L 224.559217 202.356274 
L 224.597745 202.286548 
L 225.021542 201.102804 
L 225.560921 198.108656 
L 225.676502 198.345665 
L 225.83061 198.855345 
L 225.869137 198.827512 
L 226.100299 198.401475 
L 226.138826 198.448732 
L 226.292934 199.027847 
L 226.562624 199.931383 
L 226.793786 200.861011 
L 226.87084 200.689813 
L 227.024948 199.923555 
L 227.795489 193.775076 
L 228.411922 184.848585 
L 228.488976 184.968177 
L 228.643084 185.252443 
L 228.797192 184.825246 
L 229.066881 183.036585 
L 229.413625 181.16718 
L 229.60626 180.676491 
L 230.376801 174.978258 
L 230.569436 168.376345 
L 230.685017 154.727491 
L 230.723544 52.834672 
L 230.762071 64.505547 
L 230.91618 205.43334 
L 230.993234 209.132429 
L 231.031761 208.267308 
L 231.417031 200.241017 
L 232.534315 190.511737 
L 232.919586 189.064601 
L 233.38191 183.582359 
L 233.805708 178.446426 
L 233.921289 178.276098 
L 233.959816 178.30683 
L 234.075397 178.522965 
L 234.113924 178.41555 
L 235.000046 171.827553 
L 235.231208 168.182678 
L 235.346789 162.208442 
L 235.385316 157.073669 
L 235.423843 136.555451 
L 235.462371 44.900287 
L 235.500898 118.587659 
L 235.655006 204.237854 
L 235.693533 205.879816 
L 235.770587 204.856544 
L 236.38702 191.474851 
L 236.77229 187.210708 
L 236.926398 186.740892 
L 237.196087 185.222292 
L 237.773993 180.398892 
L 238.197791 174.359859 
L 238.390426 169.697076 
L 238.506007 163.57382 
L 238.583061 144.731484 
L 238.621588 39.159291 
L 238.660115 105.939609 
L 238.814223 207.004851 
L 238.85275 208.081614 
L 238.891277 207.264474 
L 239.315075 196.410739 
L 240.316778 183.993611 
L 240.393832 183.87025 
L 240.432359 183.893733 
L 240.624994 183.949978 
L 240.779102 183.30708 
L 241.087319 182.142616 
L 241.164373 182.217996 
L 241.241427 182.337732 
L 241.279954 182.241479 
L 241.511116 180.857836 
L 241.934914 177.402714 
L 242.127549 172.967228 
L 242.281657 165.017767 
L 242.358711 144.732354 
L 242.397238 36.357649 
L 242.435765 100.620591 
L 242.589873 208.560562 
L 242.6284 209.577746 
L 242.666928 208.673051 
L 243.052198 198.008198 
L 243.398941 193.906555 
L 243.514522 193.724051 
L 243.553049 193.746954 
L 243.707158 193.81842 
L 243.822739 193.839729 
L 244.015374 194.113993 
L 244.053901 193.998895 
L 244.516226 192.38549 
L 244.631807 192.152104 
L 244.785915 191.053163 
L 245.171185 188.377491 
L 245.440875 187.784025 
L 245.517929 187.699223 
L 245.749091 186.564476 
L 246.326997 182.011862 
L 246.635213 181.330405 
L 247.367227 176.216652 
L 247.71397 169.77202 
L 247.829551 163.849969 
L 247.906605 145.378441 
L 247.945132 37.420931 
L 247.983659 100.956174 
L 248.137768 205.990711 
L 248.176295 207.46133 
L 248.214822 206.793934 
L 248.600092 197.587235 
L 249.100944 191.484274 
L 249.563268 181.620325 
L 250.102647 174.669204 
L 250.333809 166.090326 
L 250.410863 157.528843 
L 250.487917 49.276049 
L 250.526444 132.206796 
L 250.680552 208.459235 
L 250.719079 208.580856 
L 251.412566 192.976927 
L 251.682255 191.591834 
L 251.913418 190.796728 
L 252.067526 189.21536 
L 252.568377 182.089126 
L 252.761013 181.574518 
L 252.876594 181.617861 
L 252.992175 180.699105 
L 253.338918 178.037639 
L 253.724189 175.162212 
L 253.993878 171.254381 
L 254.147986 166.090326 
L 254.22504 159.023816 
L 254.263567 145.745335 
L 254.302094 37.721433 
L 254.340621 100.368651 
L 254.49473 205.226916 
L 254.533257 207.094436 
L 254.610311 206.176549 
L 254.995581 200.822597 
L 255.53496 196.609189 
L 255.727595 196.974054 
L 255.843176 197.145107 
L 255.881703 197.039576 
L 256.536663 192.8195 
L 256.690771 192.822254 
L 256.844879 192.898068 
L 257.076041 193.184944 
L 257.114568 193.111015 
L 257.461312 192.003955 
L 257.731001 191.300899 
L 257.808055 191.096216 
L 258.308907 187.429163 
L 258.385961 187.495989 
L 258.501542 187.8207 
L 258.540069 187.776777 
L 258.963867 187.001965 
L 259.079448 186.801051 
L 259.387664 185.850258 
L 259.503245 185.704573 
L 259.541772 185.732551 
L 259.927043 186.649423 
L 261.082854 193.479358 
L 261.236962 193.407458 
L 261.314016 193.343386 
L 261.968976 191.187975 
L 262.084557 191.309597 
L 262.200138 191.507032 
L 262.238665 191.429624 
L 262.392773 191.180292 
L 262.4313 191.210879 
L 262.546881 191.019532 
L 262.855098 190.357355 
L 262.893625 190.389246 
L 263.047733 190.891677 
L 263.124787 191.135645 
L 263.163314 191.026055 
L 263.355949 189.798099 
L 263.856801 185.216783 
L 264.242071 180.887988 
L 264.550288 179.858482 
L 264.627342 179.963288 
L 264.897031 180.835947 
L 264.974085 180.704468 
L 265.397883 179.687719 
L 265.783153 178.402793 
L 266.091369 177.502302 
L 266.168423 177.404454 
L 266.47664 176.558467 
L 266.515167 176.579921 
L 266.630748 176.913619 
L 267.016018 178.464546 
L 267.054545 178.434395 
L 267.170127 178.41439 
L 267.247181 178.479767 
L 267.51687 177.580435 
L 267.555397 177.631461 
L 267.709505 178.032565 
L 267.748032 177.98096 
L 267.979194 176.85607 
L 268.287411 175.390235 
L 268.402992 175.254262 
L 268.441519 175.280355 
L 268.5571 175.645509 
L 268.980898 177.393002 
L 269.096479 177.518392 
L 269.250587 178.14462 
L 269.443222 178.807667 
L 269.481749 178.765483 
L 269.982601 177.463742 
L 270.059655 177.610007 
L 270.329344 179.222542 
L 270.791669 181.173414 
L 271.369574 180.883204 
L 271.485155 181.390854 
L 271.716318 183.780374 
L 272.525386 193.443988 
L 272.679494 193.727964 
L 273.103291 192.301703 
L 273.180345 192.403175 
L 273.257399 192.471886 
L 273.295926 192.401725 
L 273.565616 191.980037 
L 273.719724 191.733025 
L 273.912359 191.384396 
L 274.02794 191.628799 
L 274.259102 192.916478 
L 274.837008 196.761687 
L 274.875535 196.73487 
L 275.06817 196.486118 
L 275.260806 195.945418 
L 275.299333 195.972815 
L 275.376387 195.666515 
L 275.800184 192.471596 
L 275.877238 192.616121 
L 276.262509 193.895248 
L 276.301036 193.866401 
L 276.609252 193.524586 
L 276.647779 193.555607 
L 276.801887 194.021508 
L 277.071577 195.845395 
L 277.264212 196.692831 
L 277.379793 196.745162 
L 277.572428 196.421756 
L 277.610955 196.446979 
L 277.765063 196.920129 
L 278.420023 199.723365 
L 278.574131 200.132007 
L 278.651185 200.368002 
L 278.689712 200.308279 
L 278.920875 199.265436 
L 279.036456 199.444752 
L 279.267618 200.245366 
L 279.729942 201.993294 
L 279.845524 202.172464 
L 280.038159 203.151814 
L 280.616064 206.396164 
L 280.8087 207.13662 
L 281.116916 208.882083 
L 281.155443 208.718568 
L 281.463659 207.344927 
L 281.579241 207.415957 
L 281.694822 207.457561 
L 282.003038 206.842351 
L 282.080092 206.933241 
L 282.272727 207.285348 
L 282.311254 207.249398 
L 282.465362 207.259256 
L 282.619471 207.683699 
L 282.966214 209.554117 
L 283.467066 212.132231 
L 283.736755 213.088097 
L 284.006444 213.702873 
L 284.160552 213.540662 
L 284.276133 213.201746 
L 284.507296 210.991396 
L 284.815512 207.842285 
L 284.931093 207.639776 
L 284.96962 207.66123 
L 285.123728 208.066973 
L 285.547526 209.372338 
L 285.778688 210.085106 
L 285.855742 210.240793 
L 286.086904 209.293044 
L 286.125432 209.309425 
L 286.27954 209.745755 
L 286.549229 210.511578 
L 286.741864 211.173321 
L 286.780391 211.361334 
L 286.818918 211.328428 
L 287.204189 208.847292 
L 287.281243 208.930644 
L 287.473878 209.722416 
L 288.090311 211.979153 
L 288.167365 211.890583 
L 288.36 211.625016 
L 288.629689 211.294362 
L 289.092014 211.961178 
L 290.132244 215.954246 
L 290.170771 215.840163 
L 290.478987 213.843919 
L 290.71015 212.856741 
L 290.787204 212.853262 
L 290.941312 212.003217 
L 291.211001 210.506505 
L 291.326582 210.472439 
L 291.48069 210.829331 
L 291.711853 211.614724 
L 291.75038 211.550217 
L 292.097123 210.537091 
L 292.597975 208.595497 
L 292.713556 208.784235 
L 292.944718 209.74561 
L 293.368516 211.472083 
L 293.522624 211.460052 
L 293.676732 211.189846 
L 293.715259 211.219128 
L 293.792313 211.312047 
L 293.907894 210.681326 
L 294.601381 206.092763 
L 294.639908 206.099866 
L 294.755489 206.419937 
L 295.063705 208.390234 
L 295.410449 210.32458 
L 295.795719 211.476722 
L 295.834246 211.385397 
L 296.065409 210.516217 
L 296.412152 210.788017 
L 296.56626 211.326253 
L 296.604787 211.264066 
L 296.990058 210.020454 
L 297.067112 210.002189 
L 297.298274 209.388428 
L 297.837652 210.021758 
L 298.26145 211.24725 
L 298.492612 211.344953 
L 298.569666 211.462371 
L 298.608193 211.396704 
L 298.762301 210.869195 
L 299.109045 207.483509 
L 299.494315 205.95708 
L 299.532842 206.013759 
L 300.34191 208.356748 
L 300.727181 210.235284 
L 301.536249 211.862171 
L 301.574776 211.830859 
L 301.728884 211.543114 
L 301.767411 211.57428 
L 302.0371 211.750116 
L 302.615006 213.181017 
L 303.501128 209.914633 
L 303.616709 209.908255 
L 303.770817 210.261232 
L 303.847871 210.436199 
L 303.886398 210.398364 
L 304.079033 210.135407 
L 304.194614 210.336032 
L 304.464304 211.517601 
L 305.080736 215.029981 
L 305.157791 214.859653 
L 305.388953 214.372443 
L 305.504534 214.05556 
L 305.735696 212.361703 
L 306.198021 207.855476 
L 306.313602 207.715735 
L 306.968562 206.33905 
L 307.084143 206.458787 
L 307.353832 207.380877 
L 307.700575 209.024289 
L 308.124373 210.894418 
L 308.317008 211.112148 
L 308.509643 211.200573 
L 308.54817 211.138675 
L 309.049022 207.758498 
L 309.087549 207.768645 
L 309.20313 208.049578 
L 309.511346 209.766629 
L 309.973671 212.528552 
L 310.012198 212.491587 
L 310.204833 212.378808 
L 310.397468 212.219932 
L 310.435995 212.259216 
L 310.628631 212.816732 
L 310.821266 213.235667 
L 310.859793 213.191889 
L 311.129482 212.35286 
L 311.399171 211.534851 
L 311.514753 211.577034 
L 311.630334 211.654878 
L 311.668861 211.613709 
L 311.822969 211.260152 
L 312.092658 210.421123 
L 312.208239 210.564054 
L 312.439402 211.470779 
L 312.824672 213.103463 
L 312.863199 213.0794 
L 313.017307 211.877536 
L 313.402578 209.832586 
L 313.479632 209.772282 
L 313.518159 209.809682 
L 313.63374 210.052345 
L 313.672267 209.967108 
L 314.134591 208.232372 
L 314.250173 208.414587 
L 314.404281 208.807428 
L 314.442808 208.773218 
L 314.596916 208.545921 
L 314.712497 208.339063 
L 314.751024 208.359502 
L 314.828078 208.27499 
L 314.943659 208.161487 
L 314.982186 208.205844 
L 315.367457 208.993412 
L 315.405984 208.939342 
L 315.598619 208.337323 
L 315.637146 208.362546 
L 315.791254 208.736253 
L 315.829781 208.65841 
L 316.176525 207.276506 
L 316.253579 207.362322 
L 316.677376 208.674065 
L 316.908539 209.571368 
L 316.985593 209.45511 
L 317.139701 209.299858 
L 317.255282 209.509325 
L 317.871715 211.841876 
L 318.256985 213.791878 
L 318.334039 213.743606 
L 318.44962 213.821885 
L 318.642255 214.114849 
L 318.757837 213.707221 
L 319.181634 211.117656 
L 319.48985 207.747626 
L 319.682486 206.892652 
L 320.14481 203.948369 
L 320.221864 203.818195 
L 320.414499 203.326346 
L 320.684189 203.643663 
L 320.915351 204.928154 
L 321.724419 209.913908 
L 321.801473 210.062202 
L 321.84 209.977836 
L 321.955581 209.805623 
L 321.994108 209.829976 
L 322.109689 210.025817 
L 322.148216 209.986243 
L 322.533487 208.986019 
L 322.610541 209.095609 
L 322.841703 210.054809 
L 323.072865 210.4678 
L 323.188446 210.081192 
L 323.53519 207.325502 
L 323.804879 206.313102 
L 323.92046 206.577654 
L 324.074568 207.09864 
L 324.113096 207.016303 
L 324.421312 205.094713 
L 324.498366 205.1785 
L 324.96069 206.823361 
L 325.423015 208.987324 
L 325.654177 208.618691 
L 325.731231 208.732629 
L 325.923867 209.290145 
L 326.000921 209.233611 
L 326.116502 209.437715 
L 326.65588 210.601888 
L 326.92557 210.380824 
L 327.233786 208.955288 
L 327.349367 209.154173 
L 327.619056 210.473019 
L 328.274016 214.486671 
L 328.35107 214.375487 
L 328.620759 212.779912 
L 328.928976 209.374512 
L 329.044557 209.261878 
L 329.198665 209.67023 
L 329.545409 210.710753 
L 329.66099 210.278917 
L 329.815098 209.897818 
L 329.853625 209.924925 
L 330.007733 210.39474 
L 330.43153 212.911246 
L 331.202071 217.219602 
L 331.394707 217.955999 
L 331.433234 217.811619 
L 331.779977 215.888145 
L 331.895558 215.639538 
L 332.280829 214.018306 
L 332.589045 212.241531 
L 332.78168 211.950886 
L 332.935788 212.270378 
L 333.205478 213.147531 
L 333.244005 213.075486 
L 333.43664 212.687863 
L 333.475167 212.713231 
L 333.552221 212.653217 
L 333.783383 211.930447 
L 334.130127 210.375316 
L 334.361289 209.943335 
L 334.399816 209.967833 
L 334.553924 210.365169 
L 334.823613 211.397719 
L 334.86214 211.350752 
L 335.170357 211.080256 
L 335.324465 210.856728 
L 335.555627 210.092064 
L 335.786789 209.333053 
L 336.056479 208.614487 
L 336.403222 208.264843 
L 336.441749 208.342832 
L 336.634384 209.195776 
L 337.135236 211.596894 
L 337.443452 211.300161 
L 337.481979 211.348577 
L 337.674614 211.963063 
L 337.828723 212.317055 
L 337.944304 212.400552 
L 338.136939 213.018951 
L 338.406628 214.114414 
L 338.445155 213.957132 
L 338.868953 211.513542 
L 339.023061 211.458022 
L 339.215696 211.484115 
L 339.832129 212.535075 
L 339.986237 213.001846 
L 340.024764 212.980827 
L 340.101818 212.740628 
L 341.411738 205.187777 
L 341.527319 205.167193 
L 341.719954 205.185023 
L 341.912589 205.011361 
L 342.02817 205.233295 
L 342.374914 206.08334 
L 342.413441 206.108853 
L 342.451968 206.02956 
L 342.529022 205.929538 
L 342.567549 205.95534 
L 342.644603 206.11871 
L 342.68313 206.054783 
L 343.222509 201.617412 
L 343.453671 200.076923 
L 343.530725 200.168682 
L 343.72336 201.114256 
L 344.147158 203.325331 
L 344.455374 204.855674 
L 344.76359 206.086964 
L 344.956226 206.447045 
L 345.225915 207.73226 
L 345.457077 208.556503 
L 345.572658 208.658555 
L 345.611185 208.609123 
L 345.842348 207.981591 
L 345.957929 208.178882 
L 346.150564 208.477065 
L 346.266145 208.65783 
L 346.497307 209.615725 
L 346.689942 210.645521 
L 346.72847 210.591016 
L 347.190794 209.005589 
L 347.49901 209.180556 
L 347.576064 209.080388 
L 348.885984 203.930684 
L 349.386835 197.258755 
L 349.46389 197.153659 
L 349.502417 197.211788 
L 349.656525 197.942387 
L 349.926214 199.029442 
L 350.350012 200.006617 
L 350.927917 202.456006 
L 351.004971 202.285388 
L 351.082025 202.24277 
L 351.120552 202.291042 
L 351.274661 202.866678 
L 351.852566 205.577285 
L 352.391945 207.138504 
L 352.623107 208.240635 
L 352.661634 208.220051 
L 352.931323 208.084948 
L 353.046904 208.265568 
L 353.278067 209.295654 
L 353.547756 210.308489 
L 353.778918 211.23145 
L 354.164189 213.377727 
L 354.27977 213.311481 
L 354.395351 213.445134 
L 354.433878 213.383236 
L 354.66504 212.588275 
L 355.011784 209.512804 
L 355.127365 209.358856 
L 355.165892 209.389878 
L 355.32 209.649211 
L 355.358527 209.596156 
L 355.551162 209.415391 
L 355.743797 209.456269 
L 355.859379 209.581225 
L 356.167595 210.086121 
L 356.244649 210.102791 
L 356.861082 208.302243 
L 356.899609 208.323697 
L 357.053717 208.738572 
L 357.207825 208.949199 
L 357.284879 208.609703 
L 357.554568 207.096321 
L 357.708677 207.206055 
L 357.862785 207.509602 
L 358.093947 208.610138 
L 358.286582 209.484247 
L 358.325109 209.416695 
L 358.71038 207.884903 
L 358.980069 206.121175 
L 359.057123 206.215689 
L 359.249758 207.08052 
L 360.058826 211.546013 
L 360.174407 211.715181 
L 360.212934 211.588341 
L 360.444097 211.019083 
L 360.559678 211.056918 
L 360.752313 210.707709 
L 360.867894 210.953851 
L 360.983475 211.237103 
L 361.022002 211.206372 
L 361.253165 211.15868 
L 361.407273 211.442801 
L 361.522854 211.691988 
L 361.561381 211.60907 
L 361.792543 210.968637 
L 361.908124 211.173031 
L 362.100759 211.386557 
L 362.408976 211.300885 
L 362.524557 211.260007 
L 362.678665 211.602112 
L 362.909827 211.927403 
L 362.986881 212.068739 
L 363.025409 212.00771 
L 363.179517 211.77215 
L 363.295098 211.977559 
L 363.449206 212.337784 
L 363.487733 212.295891 
L 363.603314 211.803317 
L 363.91153 210.270945 
L 364.296801 207.297235 
L 364.489436 206.013759 
L 364.797652 203.60206 
L 364.913234 203.319533 
L 364.951761 203.352004 
L 365.105869 203.936193 
L 365.491139 206.86279 
L 365.991991 210.394596 
L 366.223153 210.831215 
L 366.300207 211.063731 
L 366.338734 210.99531 
L 366.569896 210.669875 
L 366.685478 210.65045 
L 366.839586 210.194116 
L 366.955167 210.034515 
L 366.993694 210.062347 
L 367.147802 210.48737 
L 367.533072 212.58929 
L 367.725708 213.133905 
L 367.841289 212.999672 
L 368.419194 211.417723 
L 368.496249 211.50354 
L 368.688884 212.177459 
L 369.420898 215.144935 
L 370.075857 217.629694 
L 370.152911 217.204236 
L 370.653763 213.246394 
L 371.116087 206.461541 
L 371.193142 206.42849 
L 371.231669 206.485604 
L 371.308723 206.633028 
L 371.34725 206.597078 
L 371.616939 206.349777 
L 371.693993 206.462411 
L 372.079264 205.199374 
L 372.194845 205.240253 
L 372.348953 205.8314 
L 372.618642 207.153 
L 372.657169 207.131111 
L 372.811277 207.038192 
L 372.965386 207.381022 
L 373.119494 207.591939 
L 373.158021 207.572804 
L 373.235075 207.485103 
L 373.581818 206.168287 
L 373.581818 206.168287 
" style="fill:none;stroke:#ff0000;stroke-linecap:square;stroke-width:1.5;"/>
   </g>
   <g id="line2d_20">
    <path clip-path="url(#pe54653f98c)" d="M 258.00069 201.264 
L 296.450679 201.264 
L 296.450679 201.264 
" style="fill:none;stroke:#000000;stroke-linecap:square;stroke-width:1.5;"/>
   </g>
   <g id="line2d_21">
    <path clip-path="url(#pe54653f98c)" d="M 258.00069 179.52 
L 258.00069 178.0704 
L 258.00069 176.6208 
L 258.00069 175.1712 
L 258.00069 173.7216 
L 258.00069 172.272 
L 258.00069 170.8224 
L 258.00069 169.3728 
L 258.00069 167.9232 
L 258.00069 166.4736 
L 258.00069 165.024 
L 258.00069 163.5744 
L 258.00069 162.1248 
L 258.00069 160.6752 
L 258.00069 159.2256 
L 258.00069 157.776 
L 258.00069 156.3264 
L 258.00069 154.8768 
L 258.00069 153.4272 
L 258.00069 151.9776 
" style="fill:none;stroke:#000000;stroke-linecap:square;stroke-width:1.5;"/>
   </g>
   <g id="patch_3">
    <path d="M 54 252 
L 54 34.56 
" style="fill:none;stroke:#000000;stroke-linecap:square;stroke-linejoin:miter;stroke-width:0.8;"/>
   </g>
   <g id="patch_4">
    <path d="M 54 252 
L 388.8 252 
" style="fill:none;stroke:#000000;stroke-linecap:square;stroke-linejoin:miter;stroke-width:0.8;"/>
   </g>
   <g id="text_20">
    <!-- 500 ms -->
    <g transform="translate(258.00069 199.8144)scale(0.12 -0.12)">
     <use xlink:href="#DejaVuSans-35"/>
     <use x="63.623047" xlink:href="#DejaVuSans-30"/>
     <use x="127.246094" xlink:href="#DejaVuSans-30"/>
     <use x="190.869141" xlink:href="#DejaVuSans-20"/>
     <use x="222.65625" xlink:href="#DejaVuSans-6d"/>
     <use x="320.068359" xlink:href="#DejaVuSans-73"/>
    </g>
   </g>
   <g id="text_21">
    <!-- 20 mV -->
    <g transform="translate(261.853395 150.528)scale(0.12 -0.12)">
     <use xlink:href="#DejaVuSans-32"/>
     <use x="63.623047" xlink:href="#DejaVuSans-30"/>
     <use x="127.246094" xlink:href="#DejaVuSans-20"/>
     <use x="159.033203" xlink:href="#DejaVuSans-6d"/>
     <use x="256.445312" xlink:href="#DejaVuSans-56"/>
    </g>
   </g>
  </g>
 </g>
 <defs>
  <clipPath id="pe54653f98c">
   <rect height="217.44" width="334.8" x="54" y="34.56"/>
  </clipPath>
 </defs>
</svg>
