<?xml version="1.0" encoding="utf-8" standalone="no"?>
<!DOCTYPE svg PUBLIC "-//W3C//DTD SVG 1.1//EN"
  "http://www.w3.org/Graphics/SVG/1.1/DTD/svg11.dtd">
<svg height="288pt" version="1.1" viewBox="0 0 432 288" width="432pt" xmlns="http://www.w3.org/2000/svg" xmlns:xlink="http://www.w3.org/1999/xlink">
 <metadata>
  <rdf:RDF xmlns:cc="http://creativecommons.org/ns#" xmlns:dc="http://purl.org/dc/elements/1.1/" xmlns:rdf="http://www.w3.org/1999/02/22-rdf-syntax-ns#">
   <cc:Work>
    <dc:type rdf:resource="http://purl.org/dc/dcmitype/StillImage"/>
    <dc:date>2021-07-05T14:41:37.697935</dc:date>
    <dc:format>image/svg+xml</dc:format>
    <dc:creator>
     <cc:Agent>
      <dc:title>Matplotlib v3.4.1, https://matplotlib.org/</dc:title>
     </cc:Agent>
    </dc:creator>
   </cc:Work>
  </rdf:RDF>
 </metadata>
 <defs>
  <style type="text/css">*{stroke-linecap:butt;stroke-linejoin:round;}</style>
 </defs>
 <g id="figure_1">
  <g id="patch_1">
   <path d="M 0 288 
L 432 288 
L 432 0 
L 0 0 
z
" style="fill:none;"/>
  </g>
  <g id="axes_1">
   <g id="patch_2">
    <path d="M 54 252 
L 388.8 252 
L 388.8 34.56 
L 54 34.56 
z
" style="fill:#ffffff;"/>
   </g>
   <g id="matplotlib.axis_1">
    <g id="xtick_1">
     <g id="line2d_1">
      <defs>
       <path d="M 0 0 
L 0 3.5 
" id="m0023c89363" style="stroke:#000000;stroke-width:0.8;"/>
      </defs>
      <g>
       <use style="stroke:#000000;stroke-width:0.8;" x="65.365478" xlink:href="#m0023c89363" y="252"/>
      </g>
     </g>
     <g id="text_1">
      <!-- 0 -->
      <g transform="translate(61.547978 268.118125)scale(0.12 -0.12)">
       <defs>
        <path d="M 2034 4250 
Q 1547 4250 1301 3770 
Q 1056 3291 1056 2328 
Q 1056 1369 1301 889 
Q 1547 409 2034 409 
Q 2525 409 2770 889 
Q 3016 1369 3016 2328 
Q 3016 3291 2770 3770 
Q 2525 4250 2034 4250 
z
M 2034 4750 
Q 2819 4750 3233 4129 
Q 3647 3509 3647 2328 
Q 3647 1150 3233 529 
Q 2819 -91 2034 -91 
Q 1250 -91 836 529 
Q 422 1150 422 2328 
Q 422 3509 836 4129 
Q 1250 4750 2034 4750 
z
" id="DejaVuSans-30" transform="scale(0.015625)"/>
       </defs>
       <use xlink:href="#DejaVuSans-30"/>
      </g>
     </g>
    </g>
    <g id="xtick_2">
     <g id="line2d_2">
      <g>
       <use style="stroke:#000000;stroke-width:0.8;" x="103.89252" xlink:href="#m0023c89363" y="252"/>
      </g>
     </g>
     <g id="text_2">
      <!-- 500 -->
      <g transform="translate(92.44002 268.118125)scale(0.12 -0.12)">
       <defs>
        <path d="M 691 4666 
L 3169 4666 
L 3169 4134 
L 1269 4134 
L 1269 2991 
Q 1406 3038 1543 3061 
Q 1681 3084 1819 3084 
Q 2600 3084 3056 2656 
Q 3513 2228 3513 1497 
Q 3513 744 3044 326 
Q 2575 -91 1722 -91 
Q 1428 -91 1123 -41 
Q 819 9 494 109 
L 494 744 
Q 775 591 1075 516 
Q 1375 441 1709 441 
Q 2250 441 2565 725 
Q 2881 1009 2881 1497 
Q 2881 1984 2565 2268 
Q 2250 2553 1709 2553 
Q 1456 2553 1204 2497 
Q 953 2441 691 2322 
L 691 4666 
z
" id="DejaVuSans-35" transform="scale(0.015625)"/>
       </defs>
       <use xlink:href="#DejaVuSans-35"/>
       <use x="63.623047" xlink:href="#DejaVuSans-30"/>
       <use x="127.246094" xlink:href="#DejaVuSans-30"/>
      </g>
     </g>
    </g>
    <g id="xtick_3">
     <g id="line2d_3">
      <g>
       <use style="stroke:#000000;stroke-width:0.8;" x="142.419563" xlink:href="#m0023c89363" y="252"/>
      </g>
     </g>
     <g id="text_3">
      <!-- 1000 -->
      <g transform="translate(127.149563 268.118125)scale(0.12 -0.12)">
       <defs>
        <path d="M 794 531 
L 1825 531 
L 1825 4091 
L 703 3866 
L 703 4441 
L 1819 4666 
L 2450 4666 
L 2450 531 
L 3481 531 
L 3481 0 
L 794 0 
L 794 531 
z
" id="DejaVuSans-31" transform="scale(0.015625)"/>
       </defs>
       <use xlink:href="#DejaVuSans-31"/>
       <use x="63.623047" xlink:href="#DejaVuSans-30"/>
       <use x="127.246094" xlink:href="#DejaVuSans-30"/>
       <use x="190.869141" xlink:href="#DejaVuSans-30"/>
      </g>
     </g>
    </g>
    <g id="xtick_4">
     <g id="line2d_4">
      <g>
       <use style="stroke:#000000;stroke-width:0.8;" x="180.946605" xlink:href="#m0023c89363" y="252"/>
      </g>
     </g>
     <g id="text_4">
      <!-- 1500 -->
      <g transform="translate(165.676605 268.118125)scale(0.12 -0.12)">
       <use xlink:href="#DejaVuSans-31"/>
       <use x="63.623047" xlink:href="#DejaVuSans-35"/>
       <use x="127.246094" xlink:href="#DejaVuSans-30"/>
       <use x="190.869141" xlink:href="#DejaVuSans-30"/>
      </g>
     </g>
    </g>
    <g id="xtick_5">
     <g id="line2d_5">
      <g>
       <use style="stroke:#000000;stroke-width:0.8;" x="219.473648" xlink:href="#m0023c89363" y="252"/>
      </g>
     </g>
     <g id="text_5">
      <!-- 2000 -->
      <g transform="translate(204.203648 268.118125)scale(0.12 -0.12)">
       <defs>
        <path d="M 1228 531 
L 3431 531 
L 3431 0 
L 469 0 
L 469 531 
Q 828 903 1448 1529 
Q 2069 2156 2228 2338 
Q 2531 2678 2651 2914 
Q 2772 3150 2772 3378 
Q 2772 3750 2511 3984 
Q 2250 4219 1831 4219 
Q 1534 4219 1204 4116 
Q 875 4013 500 3803 
L 500 4441 
Q 881 4594 1212 4672 
Q 1544 4750 1819 4750 
Q 2544 4750 2975 4387 
Q 3406 4025 3406 3419 
Q 3406 3131 3298 2873 
Q 3191 2616 2906 2266 
Q 2828 2175 2409 1742 
Q 1991 1309 1228 531 
z
" id="DejaVuSans-32" transform="scale(0.015625)"/>
       </defs>
       <use xlink:href="#DejaVuSans-32"/>
       <use x="63.623047" xlink:href="#DejaVuSans-30"/>
       <use x="127.246094" xlink:href="#DejaVuSans-30"/>
       <use x="190.869141" xlink:href="#DejaVuSans-30"/>
      </g>
     </g>
    </g>
    <g id="xtick_6">
     <g id="line2d_6">
      <g>
       <use style="stroke:#000000;stroke-width:0.8;" x="258.00069" xlink:href="#m0023c89363" y="252"/>
      </g>
     </g>
     <g id="text_6">
      <!-- 2500 -->
      <g transform="translate(242.73069 268.118125)scale(0.12 -0.12)">
       <use xlink:href="#DejaVuSans-32"/>
       <use x="63.623047" xlink:href="#DejaVuSans-35"/>
       <use x="127.246094" xlink:href="#DejaVuSans-30"/>
       <use x="190.869141" xlink:href="#DejaVuSans-30"/>
      </g>
     </g>
    </g>
    <g id="xtick_7">
     <g id="line2d_7">
      <g>
       <use style="stroke:#000000;stroke-width:0.8;" x="296.527733" xlink:href="#m0023c89363" y="252"/>
      </g>
     </g>
     <g id="text_7">
      <!-- 3000 -->
      <g transform="translate(281.257733 268.118125)scale(0.12 -0.12)">
       <defs>
        <path d="M 2597 2516 
Q 3050 2419 3304 2112 
Q 3559 1806 3559 1356 
Q 3559 666 3084 287 
Q 2609 -91 1734 -91 
Q 1441 -91 1130 -33 
Q 819 25 488 141 
L 488 750 
Q 750 597 1062 519 
Q 1375 441 1716 441 
Q 2309 441 2620 675 
Q 2931 909 2931 1356 
Q 2931 1769 2642 2001 
Q 2353 2234 1838 2234 
L 1294 2234 
L 1294 2753 
L 1863 2753 
Q 2328 2753 2575 2939 
Q 2822 3125 2822 3475 
Q 2822 3834 2567 4026 
Q 2313 4219 1838 4219 
Q 1578 4219 1281 4162 
Q 984 4106 628 3988 
L 628 4550 
Q 988 4650 1302 4700 
Q 1616 4750 1894 4750 
Q 2613 4750 3031 4423 
Q 3450 4097 3450 3541 
Q 3450 3153 3228 2886 
Q 3006 2619 2597 2516 
z
" id="DejaVuSans-33" transform="scale(0.015625)"/>
       </defs>
       <use xlink:href="#DejaVuSans-33"/>
       <use x="63.623047" xlink:href="#DejaVuSans-30"/>
       <use x="127.246094" xlink:href="#DejaVuSans-30"/>
       <use x="190.869141" xlink:href="#DejaVuSans-30"/>
      </g>
     </g>
    </g>
    <g id="xtick_8">
     <g id="line2d_8">
      <g>
       <use style="stroke:#000000;stroke-width:0.8;" x="335.054776" xlink:href="#m0023c89363" y="252"/>
      </g>
     </g>
     <g id="text_8">
      <!-- 3500 -->
      <g transform="translate(319.784776 268.118125)scale(0.12 -0.12)">
       <use xlink:href="#DejaVuSans-33"/>
       <use x="63.623047" xlink:href="#DejaVuSans-35"/>
       <use x="127.246094" xlink:href="#DejaVuSans-30"/>
       <use x="190.869141" xlink:href="#DejaVuSans-30"/>
      </g>
     </g>
    </g>
    <g id="xtick_9">
     <g id="line2d_9">
      <g>
       <use style="stroke:#000000;stroke-width:0.8;" x="373.581818" xlink:href="#m0023c89363" y="252"/>
      </g>
     </g>
     <g id="text_9">
      <!-- 4000 -->
      <g transform="translate(358.311818 268.118125)scale(0.12 -0.12)">
       <defs>
        <path d="M 2419 4116 
L 825 1625 
L 2419 1625 
L 2419 4116 
z
M 2253 4666 
L 3047 4666 
L 3047 1625 
L 3713 1625 
L 3713 1100 
L 3047 1100 
L 3047 0 
L 2419 0 
L 2419 1100 
L 313 1100 
L 313 1709 
L 2253 4666 
z
" id="DejaVuSans-34" transform="scale(0.015625)"/>
       </defs>
       <use xlink:href="#DejaVuSans-34"/>
       <use x="63.623047" xlink:href="#DejaVuSans-30"/>
       <use x="127.246094" xlink:href="#DejaVuSans-30"/>
       <use x="190.869141" xlink:href="#DejaVuSans-30"/>
      </g>
     </g>
    </g>
    <g id="text_10">
     <!-- Time(ms) -->
     <g transform="translate(193.067813 283.731875)scale(0.12 -0.12)">
      <defs>
       <path d="M -19 4666 
L 3928 4666 
L 3928 4134 
L 2272 4134 
L 2272 0 
L 1638 0 
L 1638 4134 
L -19 4134 
L -19 4666 
z
" id="DejaVuSans-54" transform="scale(0.015625)"/>
       <path d="M 603 3500 
L 1178 3500 
L 1178 0 
L 603 0 
L 603 3500 
z
M 603 4863 
L 1178 4863 
L 1178 4134 
L 603 4134 
L 603 4863 
z
" id="DejaVuSans-69" transform="scale(0.015625)"/>
       <path d="M 3328 2828 
Q 3544 3216 3844 3400 
Q 4144 3584 4550 3584 
Q 5097 3584 5394 3201 
Q 5691 2819 5691 2113 
L 5691 0 
L 5113 0 
L 5113 2094 
Q 5113 2597 4934 2840 
Q 4756 3084 4391 3084 
Q 3944 3084 3684 2787 
Q 3425 2491 3425 1978 
L 3425 0 
L 2847 0 
L 2847 2094 
Q 2847 2600 2669 2842 
Q 2491 3084 2119 3084 
Q 1678 3084 1418 2786 
Q 1159 2488 1159 1978 
L 1159 0 
L 581 0 
L 581 3500 
L 1159 3500 
L 1159 2956 
Q 1356 3278 1631 3431 
Q 1906 3584 2284 3584 
Q 2666 3584 2933 3390 
Q 3200 3197 3328 2828 
z
" id="DejaVuSans-6d" transform="scale(0.015625)"/>
       <path d="M 3597 1894 
L 3597 1613 
L 953 1613 
Q 991 1019 1311 708 
Q 1631 397 2203 397 
Q 2534 397 2845 478 
Q 3156 559 3463 722 
L 3463 178 
Q 3153 47 2828 -22 
Q 2503 -91 2169 -91 
Q 1331 -91 842 396 
Q 353 884 353 1716 
Q 353 2575 817 3079 
Q 1281 3584 2069 3584 
Q 2775 3584 3186 3129 
Q 3597 2675 3597 1894 
z
M 3022 2063 
Q 3016 2534 2758 2815 
Q 2500 3097 2075 3097 
Q 1594 3097 1305 2825 
Q 1016 2553 972 2059 
L 3022 2063 
z
" id="DejaVuSans-65" transform="scale(0.015625)"/>
       <path d="M 1984 4856 
Q 1566 4138 1362 3434 
Q 1159 2731 1159 2009 
Q 1159 1288 1364 580 
Q 1569 -128 1984 -844 
L 1484 -844 
Q 1016 -109 783 600 
Q 550 1309 550 2009 
Q 550 2706 781 3412 
Q 1013 4119 1484 4856 
L 1984 4856 
z
" id="DejaVuSans-28" transform="scale(0.015625)"/>
       <path d="M 2834 3397 
L 2834 2853 
Q 2591 2978 2328 3040 
Q 2066 3103 1784 3103 
Q 1356 3103 1142 2972 
Q 928 2841 928 2578 
Q 928 2378 1081 2264 
Q 1234 2150 1697 2047 
L 1894 2003 
Q 2506 1872 2764 1633 
Q 3022 1394 3022 966 
Q 3022 478 2636 193 
Q 2250 -91 1575 -91 
Q 1294 -91 989 -36 
Q 684 19 347 128 
L 347 722 
Q 666 556 975 473 
Q 1284 391 1588 391 
Q 1994 391 2212 530 
Q 2431 669 2431 922 
Q 2431 1156 2273 1281 
Q 2116 1406 1581 1522 
L 1381 1569 
Q 847 1681 609 1914 
Q 372 2147 372 2553 
Q 372 3047 722 3315 
Q 1072 3584 1716 3584 
Q 2034 3584 2315 3537 
Q 2597 3491 2834 3397 
z
" id="DejaVuSans-73" transform="scale(0.015625)"/>
       <path d="M 513 4856 
L 1013 4856 
Q 1481 4119 1714 3412 
Q 1947 2706 1947 2009 
Q 1947 1309 1714 600 
Q 1481 -109 1013 -844 
L 513 -844 
Q 928 -128 1133 580 
Q 1338 1288 1338 2009 
Q 1338 2731 1133 3434 
Q 928 4138 513 4856 
z
" id="DejaVuSans-29" transform="scale(0.015625)"/>
      </defs>
      <use xlink:href="#DejaVuSans-54"/>
      <use x="57.958984" xlink:href="#DejaVuSans-69"/>
      <use x="85.742188" xlink:href="#DejaVuSans-6d"/>
      <use x="183.154297" xlink:href="#DejaVuSans-65"/>
      <use x="244.677734" xlink:href="#DejaVuSans-28"/>
      <use x="283.691406" xlink:href="#DejaVuSans-6d"/>
      <use x="381.103516" xlink:href="#DejaVuSans-73"/>
      <use x="433.203125" xlink:href="#DejaVuSans-29"/>
     </g>
    </g>
   </g>
   <g id="matplotlib.axis_2">
    <g id="ytick_1">
     <g id="line2d_10">
      <defs>
       <path d="M 0 0 
L -3.5 0 
" id="mc475410124" style="stroke:#000000;stroke-width:0.8;"/>
      </defs>
      <g>
       <use style="stroke:#000000;stroke-width:0.8;" x="54" xlink:href="#mc475410124" y="237.504"/>
      </g>
     </g>
     <g id="text_11">
      <!-- -100 -->
      <g transform="translate(19.765625 242.063063)scale(0.12 -0.12)">
       <defs>
        <path d="M 313 2009 
L 1997 2009 
L 1997 1497 
L 313 1497 
L 313 2009 
z
" id="DejaVuSans-2d" transform="scale(0.015625)"/>
       </defs>
       <use xlink:href="#DejaVuSans-2d"/>
       <use x="36.083984" xlink:href="#DejaVuSans-31"/>
       <use x="99.707031" xlink:href="#DejaVuSans-30"/>
       <use x="163.330078" xlink:href="#DejaVuSans-30"/>
      </g>
     </g>
    </g>
    <g id="ytick_2">
     <g id="line2d_11">
      <g>
       <use style="stroke:#000000;stroke-width:0.8;" x="54" xlink:href="#mc475410124" y="208.512"/>
      </g>
     </g>
     <g id="text_12">
      <!-- -80 -->
      <g transform="translate(27.400625 213.071062)scale(0.12 -0.12)">
       <defs>
        <path d="M 2034 2216 
Q 1584 2216 1326 1975 
Q 1069 1734 1069 1313 
Q 1069 891 1326 650 
Q 1584 409 2034 409 
Q 2484 409 2743 651 
Q 3003 894 3003 1313 
Q 3003 1734 2745 1975 
Q 2488 2216 2034 2216 
z
M 1403 2484 
Q 997 2584 770 2862 
Q 544 3141 544 3541 
Q 544 4100 942 4425 
Q 1341 4750 2034 4750 
Q 2731 4750 3128 4425 
Q 3525 4100 3525 3541 
Q 3525 3141 3298 2862 
Q 3072 2584 2669 2484 
Q 3125 2378 3379 2068 
Q 3634 1759 3634 1313 
Q 3634 634 3220 271 
Q 2806 -91 2034 -91 
Q 1263 -91 848 271 
Q 434 634 434 1313 
Q 434 1759 690 2068 
Q 947 2378 1403 2484 
z
M 1172 3481 
Q 1172 3119 1398 2916 
Q 1625 2713 2034 2713 
Q 2441 2713 2670 2916 
Q 2900 3119 2900 3481 
Q 2900 3844 2670 4047 
Q 2441 4250 2034 4250 
Q 1625 4250 1398 4047 
Q 1172 3844 1172 3481 
z
" id="DejaVuSans-38" transform="scale(0.015625)"/>
       </defs>
       <use xlink:href="#DejaVuSans-2d"/>
       <use x="36.083984" xlink:href="#DejaVuSans-38"/>
       <use x="99.707031" xlink:href="#DejaVuSans-30"/>
      </g>
     </g>
    </g>
    <g id="ytick_3">
     <g id="line2d_12">
      <g>
       <use style="stroke:#000000;stroke-width:0.8;" x="54" xlink:href="#mc475410124" y="179.52"/>
      </g>
     </g>
     <g id="text_13">
      <!-- -60 -->
      <g transform="translate(27.400625 184.079062)scale(0.12 -0.12)">
       <defs>
        <path d="M 2113 2584 
Q 1688 2584 1439 2293 
Q 1191 2003 1191 1497 
Q 1191 994 1439 701 
Q 1688 409 2113 409 
Q 2538 409 2786 701 
Q 3034 994 3034 1497 
Q 3034 2003 2786 2293 
Q 2538 2584 2113 2584 
z
M 3366 4563 
L 3366 3988 
Q 3128 4100 2886 4159 
Q 2644 4219 2406 4219 
Q 1781 4219 1451 3797 
Q 1122 3375 1075 2522 
Q 1259 2794 1537 2939 
Q 1816 3084 2150 3084 
Q 2853 3084 3261 2657 
Q 3669 2231 3669 1497 
Q 3669 778 3244 343 
Q 2819 -91 2113 -91 
Q 1303 -91 875 529 
Q 447 1150 447 2328 
Q 447 3434 972 4092 
Q 1497 4750 2381 4750 
Q 2619 4750 2861 4703 
Q 3103 4656 3366 4563 
z
" id="DejaVuSans-36" transform="scale(0.015625)"/>
       </defs>
       <use xlink:href="#DejaVuSans-2d"/>
       <use x="36.083984" xlink:href="#DejaVuSans-36"/>
       <use x="99.707031" xlink:href="#DejaVuSans-30"/>
      </g>
     </g>
    </g>
    <g id="ytick_4">
     <g id="line2d_13">
      <g>
       <use style="stroke:#000000;stroke-width:0.8;" x="54" xlink:href="#mc475410124" y="150.528"/>
      </g>
     </g>
     <g id="text_14">
      <!-- -40 -->
      <g transform="translate(27.400625 155.087063)scale(0.12 -0.12)">
       <use xlink:href="#DejaVuSans-2d"/>
       <use x="36.083984" xlink:href="#DejaVuSans-34"/>
       <use x="99.707031" xlink:href="#DejaVuSans-30"/>
      </g>
     </g>
    </g>
    <g id="ytick_5">
     <g id="line2d_14">
      <g>
       <use style="stroke:#000000;stroke-width:0.8;" x="54" xlink:href="#mc475410124" y="121.536"/>
      </g>
     </g>
     <g id="text_15">
      <!-- -20 -->
      <g transform="translate(27.400625 126.095062)scale(0.12 -0.12)">
       <use xlink:href="#DejaVuSans-2d"/>
       <use x="36.083984" xlink:href="#DejaVuSans-32"/>
       <use x="99.707031" xlink:href="#DejaVuSans-30"/>
      </g>
     </g>
    </g>
    <g id="ytick_6">
     <g id="line2d_15">
      <g>
       <use style="stroke:#000000;stroke-width:0.8;" x="54" xlink:href="#mc475410124" y="92.544"/>
      </g>
     </g>
     <g id="text_16">
      <!-- 0 -->
      <g transform="translate(39.365 97.103062)scale(0.12 -0.12)">
       <use xlink:href="#DejaVuSans-30"/>
      </g>
     </g>
    </g>
    <g id="ytick_7">
     <g id="line2d_16">
      <g>
       <use style="stroke:#000000;stroke-width:0.8;" x="54" xlink:href="#mc475410124" y="63.552"/>
      </g>
     </g>
     <g id="text_17">
      <!-- 20 -->
      <g transform="translate(31.73 68.111063)scale(0.12 -0.12)">
       <use xlink:href="#DejaVuSans-32"/>
       <use x="63.623047" xlink:href="#DejaVuSans-30"/>
      </g>
     </g>
    </g>
    <g id="ytick_8">
     <g id="line2d_17">
      <g>
       <use style="stroke:#000000;stroke-width:0.8;" x="54" xlink:href="#mc475410124" y="34.56"/>
      </g>
     </g>
     <g id="text_18">
      <!-- 40 -->
      <g transform="translate(31.73 39.119062)scale(0.12 -0.12)">
       <use xlink:href="#DejaVuSans-34"/>
       <use x="63.623047" xlink:href="#DejaVuSans-30"/>
      </g>
     </g>
    </g>
    <g id="text_19">
     <!-- Membrane potential (mV) -->
     <g transform="translate(13.27 220.574062)rotate(-90)scale(0.12 -0.12)">
      <defs>
       <path d="M 628 4666 
L 1569 4666 
L 2759 1491 
L 3956 4666 
L 4897 4666 
L 4897 0 
L 4281 0 
L 4281 4097 
L 3078 897 
L 2444 897 
L 1241 4097 
L 1241 0 
L 628 0 
L 628 4666 
z
" id="DejaVuSans-4d" transform="scale(0.015625)"/>
       <path d="M 3116 1747 
Q 3116 2381 2855 2742 
Q 2594 3103 2138 3103 
Q 1681 3103 1420 2742 
Q 1159 2381 1159 1747 
Q 1159 1113 1420 752 
Q 1681 391 2138 391 
Q 2594 391 2855 752 
Q 3116 1113 3116 1747 
z
M 1159 2969 
Q 1341 3281 1617 3432 
Q 1894 3584 2278 3584 
Q 2916 3584 3314 3078 
Q 3713 2572 3713 1747 
Q 3713 922 3314 415 
Q 2916 -91 2278 -91 
Q 1894 -91 1617 61 
Q 1341 213 1159 525 
L 1159 0 
L 581 0 
L 581 4863 
L 1159 4863 
L 1159 2969 
z
" id="DejaVuSans-62" transform="scale(0.015625)"/>
       <path d="M 2631 2963 
Q 2534 3019 2420 3045 
Q 2306 3072 2169 3072 
Q 1681 3072 1420 2755 
Q 1159 2438 1159 1844 
L 1159 0 
L 581 0 
L 581 3500 
L 1159 3500 
L 1159 2956 
Q 1341 3275 1631 3429 
Q 1922 3584 2338 3584 
Q 2397 3584 2469 3576 
Q 2541 3569 2628 3553 
L 2631 2963 
z
" id="DejaVuSans-72" transform="scale(0.015625)"/>
       <path d="M 2194 1759 
Q 1497 1759 1228 1600 
Q 959 1441 959 1056 
Q 959 750 1161 570 
Q 1363 391 1709 391 
Q 2188 391 2477 730 
Q 2766 1069 2766 1631 
L 2766 1759 
L 2194 1759 
z
M 3341 1997 
L 3341 0 
L 2766 0 
L 2766 531 
Q 2569 213 2275 61 
Q 1981 -91 1556 -91 
Q 1019 -91 701 211 
Q 384 513 384 1019 
Q 384 1609 779 1909 
Q 1175 2209 1959 2209 
L 2766 2209 
L 2766 2266 
Q 2766 2663 2505 2880 
Q 2244 3097 1772 3097 
Q 1472 3097 1187 3025 
Q 903 2953 641 2809 
L 641 3341 
Q 956 3463 1253 3523 
Q 1550 3584 1831 3584 
Q 2591 3584 2966 3190 
Q 3341 2797 3341 1997 
z
" id="DejaVuSans-61" transform="scale(0.015625)"/>
       <path d="M 3513 2113 
L 3513 0 
L 2938 0 
L 2938 2094 
Q 2938 2591 2744 2837 
Q 2550 3084 2163 3084 
Q 1697 3084 1428 2787 
Q 1159 2491 1159 1978 
L 1159 0 
L 581 0 
L 581 3500 
L 1159 3500 
L 1159 2956 
Q 1366 3272 1645 3428 
Q 1925 3584 2291 3584 
Q 2894 3584 3203 3211 
Q 3513 2838 3513 2113 
z
" id="DejaVuSans-6e" transform="scale(0.015625)"/>
       <path id="DejaVuSans-20" transform="scale(0.015625)"/>
       <path d="M 1159 525 
L 1159 -1331 
L 581 -1331 
L 581 3500 
L 1159 3500 
L 1159 2969 
Q 1341 3281 1617 3432 
Q 1894 3584 2278 3584 
Q 2916 3584 3314 3078 
Q 3713 2572 3713 1747 
Q 3713 922 3314 415 
Q 2916 -91 2278 -91 
Q 1894 -91 1617 61 
Q 1341 213 1159 525 
z
M 3116 1747 
Q 3116 2381 2855 2742 
Q 2594 3103 2138 3103 
Q 1681 3103 1420 2742 
Q 1159 2381 1159 1747 
Q 1159 1113 1420 752 
Q 1681 391 2138 391 
Q 2594 391 2855 752 
Q 3116 1113 3116 1747 
z
" id="DejaVuSans-70" transform="scale(0.015625)"/>
       <path d="M 1959 3097 
Q 1497 3097 1228 2736 
Q 959 2375 959 1747 
Q 959 1119 1226 758 
Q 1494 397 1959 397 
Q 2419 397 2687 759 
Q 2956 1122 2956 1747 
Q 2956 2369 2687 2733 
Q 2419 3097 1959 3097 
z
M 1959 3584 
Q 2709 3584 3137 3096 
Q 3566 2609 3566 1747 
Q 3566 888 3137 398 
Q 2709 -91 1959 -91 
Q 1206 -91 779 398 
Q 353 888 353 1747 
Q 353 2609 779 3096 
Q 1206 3584 1959 3584 
z
" id="DejaVuSans-6f" transform="scale(0.015625)"/>
       <path d="M 1172 4494 
L 1172 3500 
L 2356 3500 
L 2356 3053 
L 1172 3053 
L 1172 1153 
Q 1172 725 1289 603 
Q 1406 481 1766 481 
L 2356 481 
L 2356 0 
L 1766 0 
Q 1100 0 847 248 
Q 594 497 594 1153 
L 594 3053 
L 172 3053 
L 172 3500 
L 594 3500 
L 594 4494 
L 1172 4494 
z
" id="DejaVuSans-74" transform="scale(0.015625)"/>
       <path d="M 603 4863 
L 1178 4863 
L 1178 0 
L 603 0 
L 603 4863 
z
" id="DejaVuSans-6c" transform="scale(0.015625)"/>
       <path d="M 1831 0 
L 50 4666 
L 709 4666 
L 2188 738 
L 3669 4666 
L 4325 4666 
L 2547 0 
L 1831 0 
z
" id="DejaVuSans-56" transform="scale(0.015625)"/>
      </defs>
      <use xlink:href="#DejaVuSans-4d"/>
      <use x="86.279297" xlink:href="#DejaVuSans-65"/>
      <use x="147.802734" xlink:href="#DejaVuSans-6d"/>
      <use x="245.214844" xlink:href="#DejaVuSans-62"/>
      <use x="308.691406" xlink:href="#DejaVuSans-72"/>
      <use x="349.804688" xlink:href="#DejaVuSans-61"/>
      <use x="411.083984" xlink:href="#DejaVuSans-6e"/>
      <use x="474.462891" xlink:href="#DejaVuSans-65"/>
      <use x="535.986328" xlink:href="#DejaVuSans-20"/>
      <use x="567.773438" xlink:href="#DejaVuSans-70"/>
      <use x="631.25" xlink:href="#DejaVuSans-6f"/>
      <use x="692.431641" xlink:href="#DejaVuSans-74"/>
      <use x="731.640625" xlink:href="#DejaVuSans-65"/>
      <use x="793.164062" xlink:href="#DejaVuSans-6e"/>
      <use x="856.542969" xlink:href="#DejaVuSans-74"/>
      <use x="895.751953" xlink:href="#DejaVuSans-69"/>
      <use x="923.535156" xlink:href="#DejaVuSans-61"/>
      <use x="984.814453" xlink:href="#DejaVuSans-6c"/>
      <use x="1012.597656" xlink:href="#DejaVuSans-20"/>
      <use x="1044.384766" xlink:href="#DejaVuSans-28"/>
      <use x="1083.398438" xlink:href="#DejaVuSans-6d"/>
      <use x="1180.810547" xlink:href="#DejaVuSans-56"/>
      <use x="1249.21875" xlink:href="#DejaVuSans-29"/>
     </g>
    </g>
   </g>
   <g id="line2d_18">
    <path clip-path="url(#pd3d9b3a2e8)" d="M 69.218182 215.148414 
L 69.410817 214.173558 
L 69.564925 214.131664 
L 69.75756 213.45789 
L 69.796087 213.472386 
L 69.911669 213.764916 
L 70.219885 215.45254 
L 70.874845 218.970719 
L 70.951899 219.073641 
L 70.990426 219.037546 
L 71.106007 218.60513 
L 71.45275 214.192837 
L 71.876548 209.430901 
L 72.223291 208.268612 
L 72.49298 206.99108 
L 72.531507 207.050078 
L 72.685616 207.755164 
L 73.494684 212.398812 
L 73.995535 214.925755 
L 74.303751 214.053531 
L 74.380806 214.16718 
L 74.611968 214.994611 
L 75.151346 217.469223 
L 75.189873 217.421387 
L 76.191577 212.191955 
L 76.384212 212.200507 
L 76.808009 210.120476 
L 76.92359 210.380389 
L 77.617077 212.856161 
L 77.771185 212.815283 
L 77.96382 212.333436 
L 78.387618 212.653507 
L 78.503199 212.811079 
L 78.734361 213.725341 
L 79.004051 214.667436 
L 79.158159 214.892849 
L 79.466375 215.52531 
L 79.736064 215.059988 
L 79.774591 215.10594 
L 79.967227 215.629101 
L 80.468078 217.284979 
L 80.506605 217.234243 
L 80.814822 216.221698 
L 81.123038 214.909955 
L 81.238619 214.887486 
L 81.392727 215.14421 
L 81.469781 215.278878 
L 81.508308 215.190452 
L 81.816525 214.411727 
L 82.00916 214.233426 
L 82.163268 214.486526 
L 82.355903 215.058828 
L 82.39443 215.007513 
L 82.548539 214.255315 
L 83.164971 211.036768 
L 83.280552 211.125629 
L 83.588769 211.530357 
L 83.627296 211.447005 
L 83.819931 211.02923 
L 83.858458 211.048365 
L 84.051093 211.506874 
L 84.397837 212.737294 
L 84.628999 213.340328 
L 84.783107 213.522397 
L 85.12985 212.354745 
L 85.245432 212.003652 
L 85.39954 211.674882 
L 85.438067 211.698656 
L 85.592175 212.038442 
L 85.630702 211.910442 
L 85.823337 211.372641 
L 85.900391 211.366262 
L 86.054499 211.071704 
L 86.093026 211.101565 
L 86.670932 211.989735 
L 86.747986 211.993359 
L 86.902094 211.215504 
L 87.171784 210.060608 
L 87.248838 210.024223 
L 87.287365 210.076263 
L 87.595581 210.815994 
L 87.711162 211.135921 
L 87.749689 211.061991 
L 87.903797 210.738151 
L 87.942325 210.751777 
L 88.057906 211.019373 
L 88.52023 212.499415 
L 88.635811 211.990605 
L 88.828446 211.373365 
L 88.944028 211.546883 
L 89.021082 211.749972 
L 89.059609 211.728517 
L 89.252244 211.067065 
L 89.714568 208.742776 
L 89.753096 208.753793 
L 89.945731 208.797426 
L 90.061312 208.757997 
L 90.21542 208.643334 
L 90.369528 208.929195 
L 90.408055 208.74814 
L 90.60069 208.147136 
L 90.639217 208.136988 
L 90.754799 207.258821 
L 90.947434 206.314406 
L 91.063015 206.587656 
L 91.640921 209.687046 
L 91.872083 210.696837 
L 91.91061 210.680602 
L 92.026191 210.695967 
L 92.257353 211.181438 
L 92.29588 211.105769 
L 92.527043 209.711399 
L 92.719678 208.899478 
L 92.835259 209.131414 
L 93.104948 210.569852 
L 93.490219 213.006195 
L 93.528746 212.895011 
L 93.798435 211.466865 
L 94.068124 211.380468 
L 94.299287 210.952402 
L 94.453395 210.946893 
L 94.64603 210.333132 
L 94.877192 209.328125 
L 94.992773 209.334648 
L 95.185409 209.592242 
L 95.378044 210.123085 
L 95.416571 210.043068 
L 95.878895 207.457271 
L 95.994476 207.642675 
L 96.379747 208.563606 
L 96.842071 209.097493 
L 97.111761 210.351397 
L 97.188815 210.158311 
L 97.419977 209.606593 
L 97.535558 209.790982 
L 97.805247 210.951822 
L 97.920829 211.312482 
L 97.959356 211.296247 
L 98.074937 210.754096 
L 98.575788 207.38972 
L 98.691369 207.220696 
L 98.729896 207.259691 
L 99.346329 208.704507 
L 99.423383 208.507941 
L 99.7316 207.709646 
L 99.847181 207.584401 
L 100.001289 207.327822 
L 100.039816 207.360148 
L 100.155397 207.437846 
L 100.193924 207.391604 
L 100.309505 207.17141 
L 100.617722 206.016659 
L 100.656249 206.036953 
L 101.002992 206.800602 
L 101.966168 210.494763 
L 102.312911 211.822886 
L 102.389965 211.888698 
L 102.428493 211.850139 
L 102.582601 211.497596 
L 103.121979 209.87129 
L 103.391669 209.056325 
L 103.468723 208.71103 
L 103.699885 207.560917 
L 103.776939 207.610639 
L 103.931047 208.116259 
L 104.624534 210.901376 
L 104.817169 211.003572 
L 105.009804 211.536156 
L 105.125386 211.985532 
L 105.20244 211.915951 
L 105.510656 211.750841 
L 105.549183 211.817233 
L 105.780345 212.64452 
L 106.165616 214.139782 
L 106.396778 212.676266 
L 106.782048 211.130412 
L 106.897629 211.225796 
L 107.090265 211.497596 
L 107.205846 211.047205 
L 107.475535 209.873609 
L 107.591116 209.97885 
L 107.783751 210.307909 
L 107.822278 210.24978 
L 107.93786 209.92478 
L 108.554292 207.672972 
L 108.669873 207.538594 
L 108.7084 207.561642 
L 108.862509 207.948251 
L 109.170725 209.581805 
L 109.440414 210.757865 
L 109.671577 211.13853 
L 110.095374 211.994954 
L 110.249482 212.352425 
L 110.365063 212.745557 
L 110.40359 212.663364 
L 110.827388 210.643782 
L 110.942969 210.592756 
L 111.097077 210.241083 
L 111.135604 210.274279 
L 111.44382 210.473019 
L 111.559402 210.511433 
L 111.790564 211.042132 
L 111.829091 210.93921 
L 112.137307 209.821714 
L 112.252888 210.041618 
L 112.792267 211.662126 
L 113.13901 210.804542 
L 113.370173 210.688864 
L 113.524281 210.977045 
L 113.832497 212.270813 
L 114.102186 213.071137 
L 114.179241 213.227259 
L 114.217768 213.199282 
L 114.564511 212.13571 
L 114.949781 209.894194 
L 115.065362 210.084816 
L 115.335052 210.782798 
L 115.373579 210.765403 
L 115.450633 210.666106 
L 115.681795 210.207452 
L 115.87443 210.243692 
L 116.298228 209.141416 
L 116.413809 209.068646 
L 116.606444 208.890636 
L 116.760552 209.2555 
L 117.18435 210.61508 
L 117.222877 210.600729 
L 117.338458 209.824468 
L 117.56962 208.451407 
L 117.646674 208.444449 
L 117.685201 208.504317 
L 117.877837 209.22013 
L 118.108999 209.934348 
L 118.301634 210.584058 
L 118.571323 211.399603 
L 118.763959 211.360319 
L 118.918067 211.731127 
L 119.187756 212.357934 
L 119.26481 212.391999 
L 119.303337 212.345032 
L 119.418918 212.096716 
L 119.765662 210.534772 
L 119.881243 210.108589 
L 120.189459 208.982685 
L 120.266513 208.993267 
L 120.420621 209.462938 
L 120.805892 211.761713 
L 121.152635 213.399906 
L 121.306743 213.740852 
L 121.769068 215.028387 
L 121.846122 215.152618 
L 121.884649 215.028242 
L 122.346974 211.993649 
L 122.385501 212.017423 
L 122.539609 212.437662 
L 122.809298 213.630828 
L 122.886352 213.552839 
L 123.04046 213.505727 
L 123.271623 213.051277 
L 123.387204 213.225519 
L 123.464258 213.370189 
L 123.502785 213.342647 
L 123.618366 212.505068 
L 123.926582 210.48737 
L 124.042163 210.320231 
L 124.08069 210.361835 
L 124.35038 210.741775 
L 124.465961 210.70278 
L 125.082394 207.489742 
L 125.197975 207.759513 
L 125.467664 209.263038 
L 125.852934 211.233044 
L 126.084097 212.247474 
L 126.276732 212.993438 
L 126.469367 211.60907 
L 126.931692 206.514451 
L 127.124327 206.06667 
L 127.586651 204.144065 
L 127.740759 204.231911 
L 127.894868 204.773627 
L 128.010449 205.200244 
L 128.048976 205.155596 
L 128.203084 204.733618 
L 128.5113 203.09354 
L 128.549827 203.116589 
L 128.665409 203.487252 
L 128.973625 205.623382 
L 129.782693 211.479186 
L 129.82122 211.512817 
L 129.859747 211.459907 
L 129.975328 211.403517 
L 130.322071 212.039312 
L 130.591761 213.085053 
L 130.899977 213.997141 
L 130.977031 214.07426 
L 131.015558 214.017726 
L 131.208193 212.949371 
L 131.439356 211.993939 
L 131.51641 211.812304 
L 131.940207 209.746189 
L 132.094315 209.620219 
L 132.286951 209.317398 
L 132.441059 209.705746 
L 132.518113 209.820119 
L 132.55664 209.742565 
L 132.710748 209.516573 
L 132.749275 209.545565 
L 132.787802 209.604708 
L 132.826329 209.557307 
L 132.94191 208.962246 
L 133.59687 203.722522 
L 133.673924 203.789493 
L 134.097722 205.095583 
L 134.405938 206.98992 
L 134.983843 210.478382 
L 135.369114 212.413453 
L 135.715857 213.873056 
L 135.792911 213.824639 
L 135.94702 212.705113 
L 136.370817 208.182796 
L 136.486398 207.999566 
L 136.524925 208.035661 
L 136.833142 208.385885 
L 136.871669 208.300503 
L 137.37252 206.414719 
L 137.488101 206.322814 
L 137.526628 206.360214 
L 137.834845 207.104004 
L 138.258642 208.449522 
L 138.643913 207.168076 
L 138.875075 206.420807 
L 139.298872 206.028255 
L 139.414453 205.892573 
L 139.45298 205.942149 
L 139.953832 206.906278 
L 140.069413 206.734935 
L 140.262048 206.301795 
L 140.339102 206.406746 
L 140.608792 207.252732 
L 140.647319 207.177788 
L 141.14817 205.223292 
L 141.340806 204.554012 
L 141.610495 204.695058 
L 141.880184 205.201548 
L 142.111346 205.173281 
L 142.226928 205.140955 
L 142.650725 204.340921 
L 142.804833 204.079413 
L 142.920414 204.322076 
L 143.267158 205.495527 
L 143.305685 205.481611 
L 143.421266 205.443197 
L 143.459793 205.489294 
L 143.613901 206.000423 
L 143.922117 207.073997 
L 144.114753 207.610784 
L 144.731185 209.87158 
L 145.039402 210.119751 
L 145.270564 209.645732 
L 145.617307 208.036821 
L 145.732888 208.205989 
L 146.156686 208.680588 
L 146.503429 209.293189 
L 146.927227 209.954787 
L 147.042808 209.898977 
L 147.235443 209.478013 
L 147.389551 209.480768 
L 147.582186 209.45453 
L 147.774822 209.845487 
L 147.851876 209.682842 
L 148.198619 208.469092 
L 148.468308 208.193958 
L 148.622417 208.519393 
L 148.930633 209.963629 
L 149.62412 213.379467 
L 149.701174 213.175218 
L 150.317606 210.544049 
L 150.394661 210.462437 
L 151.203728 208.09466 
L 151.31931 208.247883 
L 151.473418 208.636376 
L 151.511945 208.562446 
L 151.666053 208.326161 
L 151.70458 208.343122 
L 151.743107 208.390668 
L 151.781634 208.346021 
L 151.935742 208.112925 
L 152.282486 208.73002 
L 152.398067 208.960216 
L 152.436594 208.897159 
L 152.667756 207.812568 
L 153.053026 206.219892 
L 153.284189 205.477987 
L 153.322716 205.492918 
L 153.438297 205.563514 
L 153.476824 205.531767 
L 153.553878 205.35941 
L 153.862094 204.040129 
L 154.247365 204.609532 
L 154.555581 206.02869 
L 154.632635 205.949687 
L 154.748216 206.012455 
L 155.056433 206.770161 
L 155.403176 208.430677 
L 155.518757 208.370229 
L 155.711392 208.292096 
L 156.019609 207.866348 
L 156.13519 207.084724 
L 156.366352 206.056088 
L 156.481933 206.23033 
L 156.713096 207.270852 
L 157.098366 208.926006 
L 157.445109 209.70676 
L 157.637745 209.680668 
L 157.791853 210.126854 
L 158.061542 211.124469 
L 158.100069 211.059817 
L 159.024718 206.37442 
L 159.101772 206.285704 
L 159.564097 203.592492 
L 159.91084 201.280815 
L 160.064948 200.843616 
L 160.180529 201.147017 
L 160.29611 201.438967 
L 160.334638 201.348657 
L 160.450219 201.230369 
L 160.5658 201.552905 
L 160.95107 203.280394 
L 161.028124 203.151524 
L 161.220759 202.840585 
L 161.336341 203.084553 
L 161.721611 204.156532 
L 161.837192 204.348749 
L 162.068354 205.426381 
L 162.376571 207.109367 
L 162.415098 207.067184 
L 162.569206 207.001082 
L 162.723314 207.396823 
L 162.993003 208.064364 
L 163.339747 206.3189 
L 163.416801 206.480676 
L 163.570909 206.68246 
L 163.725017 206.796253 
L 163.994707 206.273818 
L 164.033234 206.303534 
L 164.187342 206.710727 
L 164.34145 207.067184 
L 164.534085 205.963023 
L 164.919356 203.461014 
L 164.99641 203.317793 
L 165.034937 203.336348 
L 165.073464 203.36592 
L 165.227572 202.592558 
L 165.38168 202.270602 
L 165.497261 202.524427 
L 165.766951 204.038824 
L 166.113694 205.729348 
L 166.190748 205.889819 
L 166.229275 205.77704 
L 166.460437 205.240398 
L 166.576018 205.417394 
L 166.807181 206.514306 
L 166.999816 207.041671 
L 167.346559 208.030153 
L 167.539194 208.54969 
L 167.577722 208.47431 
L 168.001519 205.868654 
L 168.1171 205.705429 
L 168.155627 205.747178 
L 168.425316 205.416814 
L 168.463843 205.471029 
L 168.656479 206.136685 
L 168.77206 206.405586 
L 168.810587 206.379493 
L 168.926168 206.350356 
L 169.041749 206.606211 
L 169.388493 207.554684 
L 169.465547 207.235772 
L 169.773763 205.294613 
L 169.927871 205.156901 
L 170.428723 201.864279 
L 170.582831 201.611904 
L 170.698412 201.903998 
L 171.276318 204.225098 
L 171.314845 204.215676 
L 171.468953 204.169143 
L 171.584534 204.112464 
L 171.700115 204.36165 
L 172.123913 205.583518 
L 172.778872 206.796978 
L 172.93298 207.298975 
L 172.971507 207.210259 
L 173.433832 205.675278 
L 173.664994 204.647511 
L 173.742048 204.708974 
L 173.896157 205.255474 
L 174.281427 207.732985 
L 174.666697 209.967833 
L 174.743751 209.956961 
L 174.859333 209.536142 
L 175.090495 208.49417 
L 175.206076 208.670731 
L 175.437238 209.723141 
L 175.591346 210.259493 
L 175.629873 210.200349 
L 176.015144 208.902957 
L 176.092198 208.976452 
L 176.284833 209.662548 
L 176.862739 213.072007 
L 177.055374 213.702583 
L 177.170955 213.742447 
L 177.36359 213.320033 
L 177.402117 213.345836 
L 177.787388 212.457521 
L 177.902969 212.53377 
L 177.980023 212.640461 
L 178.01855 212.516375 
L 178.211185 211.916241 
L 178.326766 212.047719 
L 178.557929 212.532611 
L 178.596456 212.490137 
L 178.789091 212.318795 
L 178.943199 212.567691 
L 179.212888 213.078675 
L 179.32847 213.164636 
L 179.71374 213.718528 
L 179.752267 213.730415 
L 179.829321 213.3483 
L 180.253119 210.166139 
L 180.75397 207.518589 
L 180.792497 207.541203 
L 181.139241 207.919404 
L 181.7942 206.39225 
L 182.06389 206.249174 
L 182.372106 207.08023 
L 182.410633 206.978903 
L 182.526214 206.330932 
L 182.83443 204.031286 
L 182.911484 203.98084 
L 182.950012 204.021429 
L 183.412336 204.726515 
L 183.450863 204.698102 
L 183.874661 204.293374 
L 184.028769 204.75942 
L 184.491093 206.515321 
L 184.568147 206.670138 
L 184.606674 206.623316 
L 184.760783 205.83082 
L 185.107526 202.501089 
L 185.454269 198.074155 
L 185.608377 198.014432 
L 185.762486 198.340302 
L 186.032175 199.743949 
L 186.455972 201.838621 
L 186.610081 202.047799 
L 186.802716 202.964381 
L 187.419148 206.342674 
L 187.496203 206.06464 
L 187.727365 205.229816 
L 187.842946 205.265766 
L 187.997054 205.475668 
L 188.035581 205.453199 
L 188.151162 205.252719 
L 188.30527 205.005852 
L 188.343797 205.038758 
L 188.767595 205.639908 
L 188.844649 205.588012 
L 189.075811 205.293163 
L 189.191392 205.428846 
L 189.384028 205.670784 
L 189.461082 205.728913 
L 189.499609 205.66658 
L 189.692244 205.235179 
L 189.730771 205.256053 
L 190.038987 205.799798 
L 190.385731 206.917005 
L 190.809528 205.220538 
L 190.886582 205.308819 
L 191.079217 206.071019 
L 191.464488 207.649198 
L 191.772704 207.848518 
L 191.965339 207.298395 
L 192.003867 207.340433 
L 192.157975 207.900124 
L 192.427664 209.244773 
L 192.504718 209.167364 
L 192.851461 208.226864 
L 192.889988 208.25774 
L 193.044097 208.367185 
L 193.121151 208.183376 
L 193.622002 206.494012 
L 193.930219 206.291213 
L 194.007273 205.710068 
L 194.43107 200.969151 
L 194.662232 200.372061 
L 194.777814 199.506795 
L 195.008976 198.029508 
L 195.08603 198.062268 
L 195.240138 198.63747 
L 195.432773 199.436779 
L 195.4713 199.424313 
L 195.586881 199.458523 
L 195.74099 199.958635 
L 196.087733 202.270022 
L 196.51153 204.385859 
L 196.588585 204.45457 
L 196.627112 204.379335 
L 196.742693 204.210602 
L 196.78122 204.260758 
L 196.935328 204.875968 
L 197.127963 205.550467 
L 197.243544 205.584678 
L 197.397652 206.061451 
L 197.744396 207.182282 
L 198.052612 208.066683 
L 198.245247 208.408354 
L 198.514937 209.671825 
L 198.86168 211.468604 
L 198.900207 211.440627 
L 199.015788 211.150997 
L 199.401059 209.25463 
L 199.51664 209.174902 
L 199.978964 207.372759 
L 200.518343 204.07376 
L 200.826559 202.285388 
L 200.94214 202.157244 
L 201.057722 202.418027 
L 201.288884 203.107021 
L 201.327411 203.09354 
L 201.520046 202.920893 
L 201.558573 202.955973 
L 201.712681 203.378532 
L 202.020898 205.129793 
L 202.136479 205.512488 
L 202.175006 205.43276 
L 202.521749 204.339326 
L 202.63733 204.476024 
L 202.829965 205.275188 
L 203.716087 210.121056 
L 203.754614 210.071915 
L 203.94725 209.868826 
L 204.101358 210.224702 
L 204.255466 210.76033 
L 204.293993 210.644362 
L 204.486628 210.07003 
L 204.525155 210.08786 
L 204.640736 210.139176 
L 204.910426 209.313629 
L 205.257169 208.200191 
L 205.37275 208.325292 
L 205.565386 208.613617 
L 205.64244 208.531425 
L 205.835075 208.340222 
L 205.989183 208.418211 
L 206.220345 208.949924 
L 206.258872 208.847148 
L 206.451507 208.298619 
L 206.567089 208.493735 
L 206.721197 208.604195 
L 207.06794 208.604919 
L 207.260575 207.068488 
L 207.645846 204.897857 
L 207.877008 203.845738 
L 207.992589 203.478989 
L 208.031116 203.490876 
L 208.185224 203.963445 
L 208.416387 204.366144 
L 208.686076 203.479279 
L 208.840184 203.230817 
L 208.955765 203.4571 
L 209.186928 204.040999 
L 209.225455 203.996641 
L 209.379563 203.410423 
L 209.649252 202.184931 
L 209.687779 202.175798 
L 209.841887 200.910298 
L 210.034522 200.003428 
L 210.45832 199.179185 
L 210.496847 199.242243 
L 211.421496 202.037652 
L 211.768239 203.886326 
L 211.806766 203.858204 
L 212.192037 202.452237 
L 212.307618 202.599372 
L 212.654361 203.290541 
L 212.846997 203.402305 
L 212.962578 203.576402 
L 213.155213 204.205963 
L 213.19374 204.047377 
L 213.617537 201.141074 
L 213.925754 200.462661 
L 213.964281 200.48542 
L 214.195443 200.706484 
L 214.426605 200.438308 
L 214.465132 200.491943 
L 214.619241 201.042646 
L 214.965984 203.409553 
L 216.083268 211.588051 
L 216.121795 211.580803 
L 216.237376 210.024223 
L 217.084971 198.001385 
L 217.239079 197.497649 
L 217.354661 197.734514 
L 217.585823 199.057419 
L 218.240783 203.083828 
L 218.356364 203.29431 
L 218.66458 203.923436 
L 218.818688 204.014181 
L 218.972796 204.56126 
L 219.627756 207.430888 
L 219.820391 207.525402 
L 220.013026 207.387835 
L 220.167135 206.388191 
L 220.35977 205.648315 
L 220.475351 205.61106 
L 220.629459 204.9599 
L 220.822094 204.161316 
L 220.937675 204.428187 
L 221.168838 205.24866 
L 221.207365 205.217639 
L 221.4 205.073694 
L 221.708216 205.275768 
L 222.093487 206.766102 
L 222.170541 206.550981 
L 222.363176 204.784499 
L 223.018136 198.716618 
L 223.711623 195.08421 
L 224.559217 191.908137 
L 224.751853 191.89596 
L 224.828907 191.554289 
L 225.445339 185.749511 
L 226.061772 179.487674 
L 226.447043 176.421915 
L 226.755259 171.966714 
L 226.909367 166.457509 
L 226.986421 158.926403 
L 227.024948 145.250731 
L 227.063475 35.631979 
L 227.102002 91.725411 
L 227.25611 201.554065 
L 227.294638 203.866757 
L 227.371692 202.989604 
L 227.679908 197.602455 
L 227.872543 197.04117 
L 227.988124 197.255856 
L 228.180759 197.884113 
L 228.219287 197.812792 
L 228.758665 195.942518 
L 228.835719 196.089508 
L 228.9513 196.497135 
L 229.028354 196.363337 
L 229.336571 194.662087 
L 229.760368 190.772955 
L 229.875949 190.646985 
L 229.914476 190.680615 
L 229.99153 190.482455 
L 230.26122 188.843537 
L 230.530909 183.841113 
L 231.031761 168.949517 
L 231.147342 155.609283 
L 231.224396 56.211516 
L 231.262923 142.023487 
L 231.417031 206.17278 
L 231.455558 205.707024 
L 231.917883 192.621485 
L 232.34168 186.92992 
L 232.649896 182.894959 
L 233.266329 170.173704 
L 233.38191 161.086307 
L 233.420437 151.169593 
L 233.458964 34.897612 
L 233.497491 74.265124 
L 233.6516 202.183916 
L 233.690127 204.743765 
L 233.767181 203.761371 
L 234.345086 187.935798 
L 234.768884 173.179884 
L 234.922992 161.131244 
L 234.961519 149.309176 
L 235.000046 32.150185 
L 235.038573 82.671499 
L 235.192681 206.579248 
L 235.231208 207.921143 
L 235.269735 206.991515 
L 235.693533 194.705865 
L 236.810817 171.047668 
L 236.964925 159.459855 
L 237.003452 146.154992 
L 237.041979 35.450779 
L 237.080506 92.766659 
L 237.234614 204.087821 
L 237.273142 205.454649 
L 237.311669 204.72666 
L 237.773993 193.087531 
L 238.46748 179.270524 
L 238.698642 167.825932 
L 238.775696 157.452594 
L 238.85275 47.670907 
L 238.891277 126.37491 
L 239.045386 208.00609 
L 239.083913 207.7527 
L 239.661818 191.011269 
L 240.316778 172.792261 
L 240.470886 160.713614 
L 240.509413 148.255607 
L 240.54794 33.154903 
L 240.586467 87.039869 
L 240.740575 205.79371 
L 240.779102 206.721309 
L 240.817629 205.652954 
L 241.2029 194.66745 
L 241.780806 186.312971 
L 242.474292 173.381669 
L 242.666928 164.730601 
L 242.743982 152.3961 
L 242.782509 45.488969 
L 242.821036 69.894725 
L 242.975144 201.42882 
L 243.013671 204.332223 
L 243.090725 203.277784 
L 243.398941 197.657685 
L 243.899793 194.354772 
L 244.362117 192.325187 
L 244.439171 192.362731 
L 244.516226 192.338958 
L 244.631807 191.813913 
L 244.940023 189.30393 
L 245.787618 175.188015 
L 246.01878 166.463598 
L 246.095834 158.379613 
L 246.134361 141.750237 
L 246.172888 38.977221 
L 246.211415 104.127754 
L 246.365524 204.65128 
L 246.404051 206.204382 
L 246.481105 205.671944 
L 247.636916 192.097164 
L 247.791024 191.253932 
L 248.099241 189.076488 
L 248.253349 188.641898 
L 248.985362 184.485025 
L 249.370633 181.000476 
L 249.563268 180.30061 
L 249.832957 178.465126 
L 250.025593 173.437768 
L 250.218228 163.383343 
L 250.256755 157.508259 
L 250.333809 42.924627 
L 250.372336 113.412587 
L 250.526444 203.993742 
L 250.564971 205.345204 
L 250.642025 204.495303 
L 251.181404 195.920774 
L 251.451093 194.119356 
L 251.643728 192.579736 
L 251.874891 189.299581 
L 252.452796 173.360795 
L 252.606904 167.236669 
L 252.683959 159.281265 
L 252.722486 144.726846 
L 252.761013 36.846454 
L 252.79954 98.311958 
L 252.953648 204.932938 
L 252.992175 205.967807 
L 253.030702 205.17937 
L 253.415972 196.305933 
L 253.878297 189.471214 
L 254.533257 171.915833 
L 254.687365 161.245473 
L 254.725892 151.907874 
L 254.764419 36.877476 
L 254.802946 73.946502 
L 254.957054 204.677518 
L 254.995581 207.148361 
L 255.072635 205.12211 
L 255.53496 189.225507 
L 256.344028 164.227735 
L 256.421082 142.202657 
L 256.459609 37.537768 
L 256.498136 100.761782 
L 256.652244 204.336427 
L 256.690771 205.216044 
L 256.729298 204.222924 
L 257.307204 185.866639 
L 258.00069 170.583941 
L 258.116272 160.67607 
L 258.154799 148.471018 
L 258.193326 32.781631 
L 258.231853 83.253079 
L 258.385961 203.843998 
L 258.424488 205.63092 
L 258.463015 204.882492 
L 258.809758 196.730231 
L 259.117975 194.891848 
L 259.541772 193.34411 
L 259.734407 191.109262 
L 260.697583 173.066381 
L 260.851692 166.122507 
L 260.928746 156.186659 
L 261.0058 51.177345 
L 261.044327 131.630869 
L 261.198435 205.34158 
L 261.236962 205.978969 
L 261.275489 205.468565 
L 261.622232 200.813899 
L 261.891922 199.256884 
L 262.04603 199.165994 
L 262.200138 199.478238 
L 262.277192 199.56072 
L 262.315719 199.515492 
L 262.4313 199.519841 
L 262.585409 199.981539 
L 263.240368 203.221685 
L 263.317422 203.057445 
L 263.625639 202.02678 
L 263.856801 201.575519 
L 264.010909 201.455492 
L 264.12649 201.686124 
L 264.357652 202.851022 
L 264.665869 204.249596 
L 265.089666 205.332157 
L 265.128193 205.208217 
L 265.667572 203.236036 
L 266.052842 201.399828 
L 266.284005 201.310967 
L 266.438113 201.146582 
L 266.592221 201.415483 
L 266.823383 201.812239 
L 267.054545 202.213923 
L 267.439816 203.380416 
L 267.940667 205.10544 
L 268.480046 205.566268 
L 268.518573 205.525389 
L 268.634154 205.376805 
L 268.788262 203.957212 
L 269.019425 202.456006 
L 269.327641 201.95285 
L 269.366168 201.98909 
L 269.558803 202.557043 
L 269.982601 203.956052 
L 270.059655 203.807323 
L 270.213763 203.623949 
L 270.560506 204.16233 
L 270.791669 204.65215 
L 270.830196 204.584889 
L 270.90725 204.302652 
L 271.176939 202.660255 
L 271.331047 202.398747 
L 271.485155 201.960243 
L 271.523682 201.98822 
L 271.677791 202.500654 
L 271.831899 202.922197 
L 272.178642 202.26176 
L 272.217169 202.293071 
L 272.409804 202.389324 
L 272.525386 202.561247 
L 272.679494 202.951189 
L 272.718021 202.880159 
L 272.872129 202.330906 
L 273.026237 201.20906 
L 273.488562 196.265489 
L 273.527089 196.274767 
L 273.681197 196.49815 
L 273.719724 196.435672 
L 274.143521 195.8999 
L 274.259102 196.002532 
L 274.490265 196.573964 
L 274.567319 196.507862 
L 274.759954 195.106679 
L 274.991116 194.344479 
L 275.106697 194.295338 
L 275.491968 194.937946 
L 275.72313 196.072548 
L 276.031346 197.410238 
L 276.339563 197.023485 
L 276.455144 197.094371 
L 276.647779 197.669282 
L 276.724833 197.795252 
L 276.76336 197.695665 
L 276.994522 197.196132 
L 277.033049 197.234257 
L 277.187158 197.792208 
L 277.41832 198.846792 
L 277.456847 198.825773 
L 277.649482 198.588038 
L 277.919171 197.854251 
L 278.034753 197.917888 
L 278.265915 198.229552 
L 278.766766 200.037638 
L 278.920875 200.815494 
L 278.997929 200.778674 
L 279.11351 200.838108 
L 279.267618 201.249504 
L 279.306145 201.154555 
L 279.460253 200.793895 
L 279.49878 200.825061 
L 279.652888 201.394319 
L 279.999632 203.968809 
L 280.269321 205.457113 
L 280.53901 206.640421 
L 280.577537 206.588236 
L 280.693119 206.006076 
L 280.962808 204.673024 
L 281.039862 204.746664 
L 281.232497 205.533942 
L 281.463659 206.257437 
L 281.964511 207.684858 
L 282.003038 207.634702 
L 282.118619 207.242585 
L 282.426835 204.944389 
L 282.657998 202.987719 
L 282.735052 202.971629 
L 283.043268 203.321707 
L 283.197376 203.601625 
L 283.235903 203.516244 
L 283.428539 202.968875 
L 283.467066 202.982066 
L 283.582647 203.25691 
L 283.92939 204.43529 
L 284.160552 203.453186 
L 284.276133 203.703677 
L 284.353188 203.829067 
L 284.391715 203.72948 
L 284.776985 202.055627 
L 285.277837 202.417157 
L 285.354891 202.501958 
L 285.817215 201.294297 
L 285.894269 201.205726 
L 286.086904 199.918191 
L 286.433648 198.089376 
L 286.472175 198.103147 
L 286.549229 198.216796 
L 286.587756 198.124456 
L 286.818918 197.379217 
L 286.973026 197.436911 
L 287.127135 197.74872 
L 287.165662 197.694215 
L 287.435351 196.998552 
L 287.473878 197.032763 
L 287.627986 197.520553 
L 288.244419 200.077647 
L 288.514108 199.299357 
L 288.591162 199.442723 
L 288.783797 199.731048 
L 288.822325 199.644072 
L 289.631392 195.234099 
L 289.746974 195.540254 
L 290.016663 197.351675 
L 290.247825 198.506136 
L 290.478987 199.41431 
L 290.633096 199.732788 
L 290.748677 200.037783 
L 291.326582 203.189504 
L 292.058596 207.593099 
L 292.174177 207.526127 
L 292.289758 207.57063 
L 292.713556 208.677254 
L 293.060299 210.495343 
L 293.44557 212.268348 
L 293.83084 212.985031 
L 294.100529 213.826089 
L 294.447273 215.137542 
L 294.4858 215.055349 
L 294.639908 214.102962 
L 294.909597 212.912261 
L 295.025178 212.948066 
L 295.140759 213.13347 
L 295.179287 213.087952 
L 295.52603 211.610375 
L 295.603084 211.661981 
L 295.795719 212.196158 
L 295.988354 212.84094 
L 296.026881 212.75324 
L 296.373625 211.968136 
L 296.489206 211.906818 
L 296.643314 212.277336 
L 296.797422 212.785131 
L 296.835949 212.704388 
L 297.067112 212.188186 
L 297.182693 212.393739 
L 297.298274 212.700184 
L 297.375328 212.638866 
L 297.490909 212.711781 
L 297.683544 213.35004 
L 297.914707 213.898424 
L 297.991761 213.960177 
L 298.030288 213.900743 
L 298.145869 213.009819 
L 298.531139 208.902522 
L 298.762301 207.707037 
L 298.877883 207.342463 
L 299.532842 204.857703 
L 299.648423 204.884811 
L 299.802532 205.415364 
L 300.072221 206.375145 
L 300.149275 206.418053 
L 300.534545 205.046296 
L 300.6116 205.126894 
L 300.765708 205.344769 
L 300.881289 204.59663 
L 301.150978 203.090206 
L 301.228032 203.140072 
L 301.613303 204.312074 
L 301.767411 204.733328 
L 301.805938 204.715788 
L 301.921519 204.766379 
L 302.152681 205.017014 
L 302.306789 204.934532 
L 302.345316 204.984543 
L 302.537952 205.443632 
L 302.576479 205.400579 
L 302.923222 203.827763 
L 303.038803 204.075209 
L 303.539655 206.386741 
L 304.310196 210.54289 
L 304.38725 210.715682 
L 304.425777 210.695098 
L 304.579885 210.199334 
L 304.733993 208.861354 
L 305.042209 206.787846 
L 305.350426 207.295206 
L 305.620115 208.643914 
L 306.46771 214.158772 
L 306.583291 214.080348 
L 306.698872 214.205449 
L 307.161197 215.073904 
L 307.199724 215.097098 
L 307.430886 214.63598 
L 307.546467 214.776012 
L 307.584994 214.649172 
L 307.739102 214.297499 
L 307.777629 214.312864 
L 307.931738 214.637865 
L 308.047319 214.917058 
L 308.085846 214.849941 
L 308.201427 214.731654 
L 308.239954 214.753688 
L 308.432589 215.175521 
L 308.663751 215.392092 
L 308.894914 215.870894 
L 309.280184 217.051449 
L 309.318711 216.980273 
L 310.24336 213.429043 
L 310.281887 213.4576 
L 310.744212 214.251836 
L 310.975374 214.700632 
L 311.090955 214.63685 
L 311.168009 214.397666 
L 311.514753 212.512751 
L 311.822969 211.548912 
L 311.861496 211.57602 
L 311.93855 211.658212 
L 311.977077 211.556595 
L 312.285293 211.037928 
L 312.59351 210.362849 
L 312.670564 210.46983 
L 312.747618 210.659582 
L 312.786145 210.630735 
L 313.017307 210.065391 
L 313.055834 210.10685 
L 313.171415 210.341685 
L 313.209942 210.302691 
L 313.518159 209.785184 
L 313.787848 209.675739 
L 313.826375 209.735317 
L 313.864902 209.70647 
L 313.980483 209.571513 
L 314.01901 209.606738 
L 314.2887 210.272974 
L 314.365754 210.129609 
L 314.596916 209.954932 
L 314.712497 210.121926 
L 314.943659 211.078807 
L 315.675673 214.487831 
L 315.7142 214.607423 
L 315.752727 214.532624 
L 316.215052 212.142378 
L 316.253579 212.183837 
L 316.831484 213.497174 
L 317.178228 214.815586 
L 317.216755 214.752093 
L 317.40939 214.398826 
L 317.486444 214.439414 
L 317.524971 214.34838 
L 317.679079 213.625899 
L 317.910242 212.935599 
L 318.06435 212.873846 
L 318.218458 211.946102 
L 318.488147 209.30783 
L 318.642255 208.927455 
L 318.680783 208.94862 
L 319.10458 209.432061 
L 319.143107 209.420174 
L 319.258688 208.54998 
L 319.48985 207.157494 
L 319.566904 207.145607 
L 319.605432 207.204171 
L 319.798067 207.940713 
L 320.298918 210.667555 
L 320.375972 210.590871 
L 320.684189 209.325516 
L 320.761243 209.376107 
L 320.838297 209.025738 
L 321.030932 208.22353 
L 321.300621 208.245419 
L 321.493257 209.079373 
L 321.955581 211.902904 
L 322.032635 211.730257 
L 322.417906 210.620298 
L 322.533487 210.772071 
L 322.957284 211.656617 
L 322.995811 211.640817 
L 323.265501 210.906739 
L 323.458136 211.014589 
L 323.881933 208.565345 
L 323.958987 208.540122 
L 324.113096 207.73139 
L 324.344258 206.920339 
L 324.459839 207.019347 
L 324.613947 207.288248 
L 324.652474 207.263315 
L 324.768055 207.317095 
L 324.96069 207.78749 
L 325.037745 207.694426 
L 325.307434 207.159523 
L 325.345961 207.193444 
L 325.500069 207.591214 
L 325.538596 207.51482 
L 325.808285 206.564607 
L 325.923867 206.619402 
L 326.116502 207.382182 
L 326.617353 210.805267 
L 327.426421 215.931488 
L 327.580529 216.599028 
L 327.619056 216.588736 
L 327.69611 216.23025 
L 328.042854 214.09267 
L 328.158435 213.977572 
L 328.196962 214.001925 
L 328.35107 214.316923 
L 328.466651 214.537552 
L 328.505178 214.474495 
L 328.620759 214.227483 
L 329.00603 212.761647 
L 329.121611 212.222686 
L 329.429827 210.683501 
L 329.583936 210.295443 
L 329.622463 210.30559 
L 329.738044 210.554052 
L 330.04626 212.051778 
L 330.354476 213.087807 
L 330.393003 213.082009 
L 330.624166 212.320679 
L 330.662693 212.335175 
L 330.816801 212.696125 
L 330.970909 212.872687 
L 331.394707 212.177169 
L 331.433234 212.222831 
L 331.510288 212.168036 
L 331.74145 211.852313 
L 331.857031 211.976399 
L 332.12672 212.84181 
L 332.242301 212.621471 
L 332.589045 211.980458 
L 332.743153 212.309227 
L 332.820207 212.421426 
L 332.858734 212.368951 
L 333.051369 212.203551 
L 333.205478 212.499415 
L 333.321059 212.629009 
L 333.744856 211.804042 
L 333.976018 210.995455 
L 334.053072 211.100986 
L 334.284235 212.095556 
L 334.669505 213.832032 
L 334.86214 213.884797 
L 335.054776 214.303732 
L 335.170357 214.681643 
L 335.247411 214.551324 
L 335.362992 214.447677 
L 335.401519 214.483337 
L 335.555627 214.804714 
L 335.594154 214.733393 
L 335.863843 214.027293 
L 335.902371 214.046138 
L 336.056479 214.369109 
L 336.133533 214.566689 
L 336.17206 214.482323 
L 336.287641 214.296919 
L 336.326168 214.312864 
L 336.480276 214.665552 
L 336.55733 214.775142 
L 336.595857 214.7447 
L 337.327871 213.698379 
L 337.520506 213.683158 
L 337.674614 213.909586 
L 337.713142 213.814927 
L 337.86725 212.422876 
L 338.25252 208.806269 
L 338.599264 209.183455 
L 338.90748 211.037493 
L 339.254223 212.749471 
L 339.716548 214.885746 
L 339.755075 214.840229 
L 340.217399 212.869498 
L 340.294453 212.924292 
L 340.410035 213.016777 
L 340.448562 212.961547 
L 340.641197 212.599582 
L 340.679724 212.615093 
L 340.833832 212.940093 
L 340.910886 212.773824 
L 341.180575 212.289223 
L 341.219102 212.315171 
L 341.373211 212.737729 
L 341.527319 213.414402 
L 341.565846 213.371349 
L 342.451968 207.411029 
L 342.529022 207.525112 
L 342.721657 208.215267 
L 342.798711 208.102198 
L 343.299563 206.776104 
L 343.33809 206.835393 
L 343.530725 207.058921 
L 343.646306 207.33594 
L 344.185685 209.948119 
L 344.493901 211.111423 
L 344.648009 211.707353 
L 344.686536 211.624436 
L 344.994753 210.1615 
L 345.302969 209.673564 
L 345.41855 209.389588 
L 345.611185 209.07227 
L 345.726766 209.304786 
L 346.45878 212.235588 
L 346.844051 213.907991 
L 346.921105 213.931764 
L 346.998159 213.679099 
L 347.306375 212.452593 
L 347.653119 212.509852 
L 347.999862 213.093461 
L 348.192497 212.711056 
L 348.269551 212.801511 
L 348.500713 213.639815 
L 348.731876 214.32678 
L 348.847457 214.189938 
L 348.963038 214.127171 
L 349.001565 214.160511 
L 349.1942 214.626848 
L 349.733579 216.2662 
L 349.84916 215.268441 
L 350.118849 213.339748 
L 350.23443 213.357143 
L 350.311484 213.471806 
L 350.350012 213.407009 
L 350.619701 212.830793 
L 350.735282 212.927192 
L 351.236133 211.831294 
L 351.54435 211.510788 
L 351.659931 211.55703 
L 352.045201 212.218627 
L 352.122255 212.156004 
L 352.276364 212.122954 
L 352.700161 212.912261 
L 353.663337 216.251849 
L 353.817445 216.48335 
L 354.010081 216.368687 
L 354.27977 215.019399 
L 354.472405 214.452026 
L 354.587986 214.520737 
L 354.742094 214.732958 
L 354.780621 214.676279 
L 355.127365 214.164715 
L 355.204419 214.268941 
L 355.435581 214.498993 
L 355.589689 214.736582 
L 355.743797 215.083617 
L 355.782325 214.949094 
L 356.475811 212.206306 
L 356.629919 212.024091 
L 356.668446 212.048879 
L 356.822555 212.438966 
L 357.01519 213.234217 
L 357.053717 213.098679 
L 357.246352 212.431284 
L 357.361933 212.617267 
L 357.631623 213.847543 
L 357.785731 214.360121 
L 357.824258 214.347655 
L 357.939839 214.476669 
L 358.209528 214.956487 
L 358.363636 214.843563 
L 358.633326 214.231832 
L 358.671853 214.257345 
L 358.825961 214.598291 
L 359.09565 215.364839 
L 359.134177 215.234665 
L 359.326812 212.988655 
L 359.789137 208.814821 
L 359.904718 208.886722 
L 360.212934 209.409447 
L 360.251461 209.369438 
L 360.40557 209.035451 
L 360.559678 207.318689 
L 360.752313 206.133786 
L 360.829367 206.180608 
L 361.17611 207.083274 
L 361.253165 206.976584 
L 361.599908 205.688614 
L 361.715489 205.484076 
L 361.754016 205.506544 
L 361.83107 205.471754 
L 362.293395 203.932569 
L 362.524557 203.362876 
L 362.563084 203.425354 
L 362.717192 204.076369 
L 363.256571 206.654048 
L 363.295098 206.739284 
L 363.372152 206.660716 
L 363.564787 206.767551 
L 363.757422 207.469013 
L 363.950058 208.640724 
L 364.027112 208.411108 
L 364.18122 208.029428 
L 364.296801 208.343556 
L 364.643544 209.531794 
L 364.797652 209.74358 
L 365.182923 210.866005 
L 365.22145 210.813965 
L 365.375558 210.258768 
L 365.722301 208.199176 
L 365.914937 207.58614 
L 366.26168 204.824073 
L 366.646951 200.581383 
L 366.762532 200.245221 
L 366.801059 200.256673 
L 366.91664 200.581818 
L 367.147802 201.939514 
L 367.224856 201.642346 
L 367.494545 200.518906 
L 367.610127 200.762728 
L 367.841289 202.074326 
L 368.303613 204.771597 
L 368.419194 204.333673 
L 368.573303 202.619666 
L 368.881519 199.692779 
L 368.958573 199.664511 
L 369.074154 200.031985 
L 369.883222 204.268151 
L 369.921749 204.185089 
L 370.075857 203.870526 
L 370.191438 204.135078 
L 370.384074 204.855674 
L 370.461128 204.811171 
L 370.576709 204.904815 
L 370.769344 205.709198 
L 371.424304 209.869985 
L 371.501358 209.737202 
L 371.771047 208.52838 
L 372.194845 206.1377 
L 373.158021 199.824112 
L 373.350656 199.719306 
L 373.504764 199.476063 
L 373.581818 199.07003 
L 373.581818 199.07003 
" style="fill:none;stroke:#000000;stroke-linecap:square;stroke-width:1.5;"/>
   </g>
   <g id="line2d_19">
    <path clip-path="url(#pd3d9b3a2e8)" d="M 69.218182 215.148414 
L 69.410817 214.173558 
L 69.564925 214.131664 
L 69.75756 213.45789 
L 69.796087 213.472386 
L 69.911669 213.764916 
L 70.219885 215.45254 
L 70.874845 218.957818 
L 70.951899 219.05784 
L 70.990426 219.02015 
L 71.106007 218.583096 
L 71.45275 214.153118 
L 71.876548 209.365235 
L 72.261818 207.940568 
L 72.49298 206.884534 
L 72.608562 207.210839 
L 73.571738 212.682934 
L 73.995535 214.724116 
L 74.303751 213.836236 
L 74.380806 213.946116 
L 74.611968 214.763835 
L 75.151346 217.225401 
L 75.189873 217.177129 
L 76.191577 211.891887 
L 76.384212 211.888118 
L 76.808009 209.776341 
L 76.846536 209.813306 
L 77.000644 210.37894 
L 77.462969 212.390695 
L 77.655604 212.454912 
L 77.771185 212.417077 
L 77.96382 211.925228 
L 78.387618 212.22689 
L 78.503199 212.379243 
L 78.734361 213.286258 
L 79.004051 214.225308 
L 79.158159 214.446952 
L 79.466375 215.068686 
L 79.736064 214.588723 
L 79.774591 214.632356 
L 79.967227 215.144935 
L 80.468078 216.783273 
L 80.506605 216.731377 
L 80.814822 215.701146 
L 81.123038 214.358092 
L 81.277146 214.357947 
L 81.469781 214.693094 
L 81.508308 214.60148 
L 81.855052 213.709976 
L 82.00916 213.586905 
L 82.163268 213.8229 
L 82.355903 214.377806 
L 82.39443 214.323591 
L 82.548539 213.556898 
L 83.164971 210.249346 
L 83.280552 210.320956 
L 83.588769 210.685095 
L 83.627296 210.59696 
L 83.819931 210.149903 
L 83.858458 210.163094 
L 84.012566 210.496212 
L 84.397837 211.787081 
L 84.628999 212.37272 
L 84.783107 212.543772 
L 85.12985 211.344663 
L 85.245432 210.982698 
L 85.39954 210.637259 
L 85.438067 210.656973 
L 85.592175 210.983423 
L 85.630702 210.853394 
L 85.823337 210.296892 
L 85.861864 210.311533 
L 85.938918 210.173242 
L 86.054499 209.971892 
L 86.093026 209.997405 
L 86.709459 210.851075 
L 86.786513 210.714232 
L 87.248838 208.810328 
L 87.325892 208.921222 
L 87.595581 209.567744 
L 87.711162 209.879263 
L 87.749689 209.803014 
L 87.942325 209.47149 
L 88.057906 209.725605 
L 88.52023 211.170421 
L 88.635811 210.654509 
L 88.828446 210.014365 
L 88.944028 210.175706 
L 89.021082 210.372852 
L 89.059609 210.349223 
L 89.252244 209.66994 
L 89.753096 207.268823 
L 89.907204 207.292596 
L 90.138366 207.087913 
L 90.253947 207.117195 
L 90.369528 207.327242 
L 90.947434 204.576191 
L 91.024488 204.689115 
L 91.217123 205.635559 
L 91.717975 208.24194 
L 91.872083 208.782785 
L 91.91061 208.762926 
L 92.026191 208.764665 
L 92.180299 209.143156 
L 92.257353 209.230277 
L 92.29588 209.153593 
L 92.527043 207.737624 
L 92.719678 206.894246 
L 92.835259 207.109222 
L 93.104948 208.525916 
L 93.490219 210.970377 
L 93.528746 210.864846 
L 93.836962 209.43728 
L 93.99107 209.501352 
L 94.64603 208.252377 
L 94.877192 207.216348 
L 94.992773 207.205186 
L 95.185409 207.436252 
L 95.378044 207.945061 
L 95.416571 207.862434 
L 95.878895 205.171107 
L 95.994476 205.329838 
L 96.379747 206.181623 
L 96.842071 206.598963 
L 97.111761 207.802566 
L 97.188815 207.603246 
L 97.419977 207.00688 
L 97.535558 207.16938 
L 97.76672 208.101328 
L 97.920829 208.663628 
L 97.959356 208.647393 
L 98.074937 208.101908 
L 98.614315 204.523716 
L 98.691369 204.440798 
L 98.729896 204.471095 
L 99.346329 205.805017 
L 99.423383 205.59526 
L 99.7316 204.716367 
L 99.847181 204.563 
L 100.001289 204.267426 
L 100.039816 204.289315 
L 100.155397 204.339761 
L 100.309505 204.034041 
L 100.656249 202.76912 
L 100.925938 203.253431 
L 101.118573 203.85632 
L 101.349735 204.513713 
L 101.503843 204.976281 
L 102.351438 208.368924 
L 102.46702 208.29601 
L 102.890817 207.198952 
L 103.353142 205.643387 
L 103.430196 205.491468 
L 103.738412 204.062163 
L 103.853993 204.291924 
L 104.54748 207.180252 
L 104.701588 207.379283 
L 104.855696 207.55077 
L 105.086858 208.360952 
L 105.125386 208.498084 
L 105.20244 208.449377 
L 105.549183 208.409223 
L 105.780345 209.278404 
L 106.165616 210.897462 
L 106.358251 209.729519 
L 106.743521 208.00377 
L 106.859102 207.973619 
L 107.090265 208.29514 
L 107.128792 208.215557 
L 107.514062 206.597368 
L 107.591116 206.686519 
L 107.783751 206.982382 
L 107.822278 206.91802 
L 107.976387 206.383552 
L 108.631346 203.907491 
L 108.746928 203.924886 
L 108.901036 204.354692 
L 109.247779 206.23004 
L 109.440414 206.887288 
L 109.671577 207.22403 
L 110.133901 208.11452 
L 110.365063 208.829752 
L 110.442117 208.542442 
L 110.788861 206.806836 
L 111.097077 206.357749 
L 111.174131 206.436028 
L 111.482348 206.571276 
L 111.597929 206.667239 
L 111.790564 207.126037 
L 111.829091 207.023841 
L 112.137307 205.850389 
L 112.252888 206.051014 
L 112.792267 207.665144 
L 112.830794 207.539898 
L 113.100483 206.820027 
L 113.370173 206.642306 
L 113.524281 206.923528 
L 113.832497 208.23933 
L 114.140713 209.186934 
L 114.217768 209.236945 
L 114.564511 208.200626 
L 114.949781 205.932002 
L 114.988308 205.95592 
L 115.142417 206.367462 
L 115.335052 206.796398 
L 115.373579 206.777409 
L 115.450633 206.672748 
L 115.681795 206.167707 
L 115.720322 206.188291 
L 115.87443 206.160604 
L 116.336755 204.929604 
L 116.452336 204.749273 
L 116.606444 204.583294 
L 116.722025 204.770437 
L 117.18435 206.147992 
L 117.222877 206.126248 
L 117.338458 205.327519 
L 117.608147 203.806888 
L 117.685201 203.857479 
L 117.877837 204.523136 
L 118.108999 205.207347 
L 118.301634 205.828645 
L 118.571323 206.648539 
L 118.763959 206.607371 
L 118.918067 206.979773 
L 119.187756 207.657171 
L 119.26481 207.711966 
L 119.303337 207.674711 
L 119.418918 207.452052 
L 119.804189 205.837053 
L 120.227986 204.34382 
L 120.266513 204.368898 
L 120.420621 204.830596 
L 120.805892 207.150971 
L 121.152635 208.883822 
L 121.306743 209.278838 
L 121.846122 210.984873 
L 121.923176 210.638998 
L 122.346974 207.996087 
L 122.385501 208.024355 
L 122.539609 208.470396 
L 122.809298 209.729664 
L 122.924879 209.676464 
L 123.001933 209.718937 
L 123.04046 209.656749 
L 123.271623 209.215926 
L 123.387204 209.394516 
L 123.464258 209.546435 
L 123.502785 209.523096 
L 123.618366 208.689431 
L 123.965109 206.465165 
L 124.042163 206.385147 
L 124.08069 206.415588 
L 124.311853 206.761318 
L 124.35038 206.73624 
L 124.465961 206.666514 
L 124.658596 204.77957 
L 124.966812 203.385924 
L 125.082394 203.201245 
L 125.120921 203.234151 
L 125.275029 203.725856 
L 125.660299 206.134366 
L 125.852934 206.708698 
L 126.084097 207.689497 
L 126.276732 208.447783 
L 126.43084 207.439441 
L 126.584948 205.143564 
L 126.854638 202.054612 
L 127.316962 199.853829 
L 127.548124 199.184694 
L 127.740759 199.195856 
L 127.894868 199.668715 
L 128.010449 200.04967 
L 128.048976 199.991106 
L 128.203084 199.490994 
L 128.549827 197.611443 
L 128.665409 197.894985 
L 128.935098 199.565359 
L 129.82122 205.56018 
L 129.975328 205.482046 
L 130.283544 206.133061 
L 130.514707 207.021666 
L 130.938504 208.67421 
L 131.015558 208.683778 
L 131.169666 208.008989 
L 131.439356 206.860326 
L 131.51641 206.706523 
L 131.978734 204.668531 
L 132.094315 204.544445 
L 132.286951 204.216545 
L 132.402532 204.451525 
L 132.518113 204.691869 
L 132.55664 204.613881 
L 132.710748 204.364839 
L 132.749275 204.385279 
L 132.787802 204.436015 
L 132.826329 204.384409 
L 132.94191 203.778621 
L 133.635397 198.106046 
L 133.750978 198.325081 
L 134.444465 201.249939 
L 134.983843 204.249016 
L 135.29206 205.68673 
L 135.754384 207.786765 
L 135.831438 207.600202 
L 135.985547 206.202497 
L 136.33229 202.408604 
L 136.486398 202.020111 
L 136.833142 202.413533 
L 136.871669 202.331775 
L 137.449574 200.08446 
L 137.565155 200.094753 
L 137.834845 200.585587 
L 138.258642 201.758169 
L 138.605386 200.636033 
L 138.875075 199.532018 
L 139.45298 198.886946 
L 139.530035 199.007118 
L 139.684143 199.079308 
L 139.953832 199.70684 
L 140.030886 199.593046 
L 140.300575 199.056694 
L 140.339102 199.118157 
L 140.608792 199.899781 
L 140.647319 199.823098 
L 141.109643 198.076185 
L 141.340806 196.923028 
L 141.610495 196.918969 
L 141.880184 197.275716 
L 142.419563 196.504238 
L 142.804833 195.455163 
L 142.881887 195.527643 
L 143.267158 196.66065 
L 143.382739 196.555119 
L 143.49832 196.628034 
L 143.690955 197.336889 
L 143.88359 197.853526 
L 144.076226 198.243324 
L 145.000875 201.183837 
L 145.19351 201.154845 
L 145.347618 200.419463 
L 145.617307 199.318637 
L 145.732888 199.493893 
L 146.118159 199.960375 
L 146.272267 200.204922 
L 146.811646 201.409105 
L 147.042808 201.37185 
L 147.235443 200.997419 
L 147.428078 201.013219 
L 147.582186 201.061201 
L 147.813349 201.507098 
L 147.851876 201.404611 
L 148.237146 200.158245 
L 148.468308 199.955881 
L 148.622417 200.291753 
L 148.930633 201.798612 
L 149.62412 205.617294 
L 149.662647 205.601638 
L 149.816755 204.77928 
L 150.086444 203.572343 
L 150.356133 203.091656 
L 150.471715 202.807389 
L 150.741404 201.903853 
L 150.934039 201.514346 
L 151.242255 200.715471 
L 151.31931 200.833614 
L 151.473418 201.205436 
L 151.511945 201.134696 
L 151.70458 200.888409 
L 151.743107 200.926243 
L 151.781634 200.877247 
L 151.935742 200.616029 
L 151.974269 200.655748 
L 152.282486 201.15557 
L 152.398067 201.376634 
L 152.436594 201.313286 
L 152.667756 200.203618 
L 153.091554 198.362626 
L 153.322716 197.706102 
L 153.438297 197.745966 
L 153.553878 197.51403 
L 153.862094 196.021377 
L 153.900621 196.037757 
L 154.016203 196.217942 
L 154.093257 196.136765 
L 154.170311 196.186631 
L 154.324419 196.761687 
L 154.555581 197.722337 
L 154.594108 197.673051 
L 154.709689 197.580276 
L 154.748216 197.615067 
L 155.056433 198.204329 
L 155.403176 199.76004 
L 155.518757 199.677558 
L 155.749919 199.473019 
L 155.942555 199.213251 
L 156.096663 198.520197 
L 156.366352 197.021456 
L 156.443406 197.062624 
L 156.597514 197.540123 
L 157.368055 200.59211 
L 157.522163 200.621102 
L 157.637745 200.675897 
L 157.791853 201.15586 
L 158.061542 202.297855 
L 158.100069 202.262484 
L 159.602624 194.707314 
L 159.949367 192.347655 
L 160.064948 192.044689 
L 160.103475 192.070927 
L 160.29611 192.514939 
L 160.334638 192.416801 
L 160.450219 192.242994 
L 160.488746 192.280249 
L 160.719908 193.051581 
L 160.95107 193.99643 
L 161.028124 193.838424 
L 161.259287 193.374262 
L 161.374868 193.606778 
L 161.60603 194.388402 
L 161.683084 194.34129 
L 161.798665 194.367528 
L 161.952773 194.79603 
L 162.26099 196.573674 
L 162.376571 196.946801 
L 162.415098 196.89795 
L 162.569206 196.742263 
L 162.607733 196.772414 
L 162.877422 197.387915 
L 162.993003 197.607239 
L 163.339747 195.834378 
L 163.416801 195.976729 
L 163.609436 196.236497 
L 163.725017 196.33391 
L 164.033234 195.805966 
L 164.071761 195.855397 
L 164.34145 196.548161 
L 164.379977 196.417262 
L 164.649666 194.348393 
L 164.919356 192.817471 
L 165.38168 191.452092 
L 165.420207 191.474706 
L 165.574315 191.949305 
L 166.190748 194.945628 
L 166.229275 194.838648 
L 166.498964 194.233005 
L 166.614545 194.456244 
L 167.539194 197.595642 
L 167.577722 197.546356 
L 168.078573 194.819513 
L 168.232681 194.70514 
L 168.386789 194.552497 
L 168.502371 194.730073 
L 168.77206 195.654773 
L 168.887641 195.605776 
L 169.003222 195.760014 
L 169.388493 196.88041 
L 169.42702 196.828804 
L 170.544304 190.632634 
L 170.621358 190.641476 
L 170.775466 191.185076 
L 171.199264 193.101592 
L 171.391899 193.05738 
L 171.623061 192.823124 
L 171.661588 192.87502 
L 171.815696 193.404414 
L 172.008331 194.002664 
L 172.16244 194.079492 
L 172.54771 194.580909 
L 172.663291 194.710503 
L 172.855926 195.442696 
L 172.93298 195.607226 
L 172.971507 195.535761 
L 173.395305 194.254604 
L 173.703521 192.728755 
L 173.819102 192.9288 
L 174.050265 194.10747 
L 174.743751 198.282898 
L 174.782278 198.217376 
L 174.89786 197.677255 
L 175.090495 196.947091 
L 175.206076 197.15105 
L 175.437238 198.349579 
L 175.591346 199.050751 
L 175.629873 199.039154 
L 175.861036 198.326531 
L 176.015144 198.025884 
L 176.130725 198.255065 
L 176.361887 199.440548 
L 177.170955 204.282067 
L 177.286536 204.115653 
L 177.325063 204.137542 
L 177.402117 204.293519 
L 177.440644 204.239014 
L 177.556226 204.089415 
L 177.594753 204.131309 
L 177.63328 204.172188 
L 177.671807 204.123191 
L 177.787388 204.024183 
L 177.825915 204.066657 
L 177.980023 204.460948 
L 178.01855 204.394121 
L 178.211185 204.01795 
L 178.326766 204.260903 
L 178.596456 204.981499 
L 178.634983 204.958161 
L 178.789091 204.957001 
L 178.943199 205.308964 
L 179.251415 206.063481 
L 179.405524 206.421677 
L 179.636686 206.917875 
L 179.752267 207.073997 
L 179.790794 206.985426 
L 179.944902 205.480741 
L 180.176064 203.956052 
L 180.3687 202.757958 
L 180.676916 200.926388 
L 180.792497 200.851009 
L 181.139241 201.162383 
L 182.06389 198.860708 
L 182.217998 199.187593 
L 182.333579 199.380245 
L 182.372106 199.345164 
L 182.526214 198.41974 
L 182.872957 195.517351 
L 183.027066 195.479371 
L 183.258228 195.689418 
L 183.335282 195.82916 
L 183.412336 195.763928 
L 183.759079 195.143064 
L 183.874661 194.937076 
L 183.913188 194.956066 
L 184.067296 195.362099 
L 184.375512 196.242006 
L 184.568147 196.619337 
L 184.606674 196.552655 
L 184.760783 195.661441 
L 185.107526 191.925532 
L 185.492796 186.660875 
L 185.608377 186.513305 
L 185.646904 186.534469 
L 185.801013 186.931805 
L 186.147756 188.844842 
L 186.417445 189.9016 
L 186.687135 190.077002 
L 186.918297 191.177393 
L 187.380621 193.448772 
L 187.419148 193.532558 
L 187.457675 193.481098 
L 187.765892 192.334754 
L 187.881473 192.424774 
L 187.997054 192.544511 
L 188.035581 192.525376 
L 188.151162 192.337508 
L 188.30527 192.07687 
L 188.343797 192.102673 
L 188.806122 192.740207 
L 189.114338 192.394622 
L 189.152865 192.433037 
L 189.461082 192.816456 
L 189.730771 192.342292 
L 189.846352 192.450867 
L 190.00046 192.732669 
L 190.385731 194.096743 
L 190.424258 193.978745 
L 190.848055 192.376357 
L 190.886582 192.427093 
L 191.04069 192.979101 
L 191.541542 195.095662 
L 191.734177 195.307739 
L 191.772704 195.320495 
L 191.965339 194.8846 
L 192.003867 194.9407 
L 192.157975 195.571711 
L 192.466191 197.194103 
L 192.504718 197.171779 
L 192.697353 196.557004 
L 192.851461 196.350871 
L 193.082624 196.501629 
L 193.853165 194.425947 
L 193.930219 194.385938 
L 194.007273 193.810157 
L 194.508124 188.088731 
L 194.777814 186.640145 
L 195.047503 184.434579 
L 195.124557 184.353691 
L 195.163084 184.388482 
L 195.317192 184.906424 
L 195.432773 185.134301 
L 195.4713 185.080086 
L 195.625409 184.930487 
L 195.663936 184.967307 
L 195.818044 185.430889 
L 196.588585 189.091274 
L 196.627112 189.013865 
L 196.742693 188.794686 
L 196.78122 188.81498 
L 196.896801 189.14288 
L 197.16649 190.001043 
L 197.282071 190.113097 
L 197.667342 191.427304 
L 198.591991 195.332672 
L 198.938734 197.200191 
L 199.015788 197.122928 
L 199.401059 195.61114 
L 199.439586 195.639117 
L 199.478113 195.679271 
L 199.51664 195.635783 
L 199.940437 194.520316 
L 200.210127 193.560246 
L 200.287181 193.423548 
L 200.441289 192.091221 
L 200.749505 189.785922 
L 200.94214 189.281172 
L 201.057722 189.527169 
L 201.327411 190.268059 
L 201.365938 190.229645 
L 201.558573 190.079756 
L 201.712681 190.400843 
L 201.982371 191.774049 
L 202.136479 192.402885 
L 202.175006 192.320113 
L 202.598803 190.836302 
L 202.714384 191.040986 
L 202.945547 192.161382 
L 203.754614 196.630644 
L 203.94725 196.609479 
L 204.101358 197.07973 
L 204.255466 197.776407 
L 204.293993 197.719003 
L 204.486628 197.344427 
L 204.640736 197.556793 
L 204.679264 197.515189 
L 205.257169 196.103569 
L 205.295696 196.132996 
L 205.603913 196.760093 
L 205.719494 196.6247 
L 205.835075 196.667753 
L 206.02771 196.918389 
L 206.220345 197.482863 
L 206.258872 197.412123 
L 206.451507 196.960717 
L 206.567089 197.188015 
L 206.759724 197.416327 
L 207.106467 197.385595 
L 207.761427 193.559811 
L 208.031116 192.60264 
L 208.069643 192.660479 
L 208.37786 193.439784 
L 208.416387 193.420069 
L 208.647549 192.544946 
L 208.878711 191.953509 
L 209.032819 192.253866 
L 209.186928 192.485367 
L 209.225455 192.42289 
L 209.379563 191.733315 
L 210.111577 187.065023 
L 210.265685 186.545196 
L 210.496847 185.731826 
L 210.882117 186.127422 
L 211.11328 186.449233 
L 211.228861 186.53418 
L 211.382969 187.037191 
L 211.768239 188.912828 
L 211.806766 188.883546 
L 212.269091 186.873676 
L 212.346145 186.935864 
L 212.615834 187.16693 
L 212.80847 187.287682 
L 212.924051 187.33001 
L 213.078159 187.774747 
L 213.155213 187.950874 
L 213.19374 187.788373 
L 213.964281 181.560457 
L 214.311024 180.477751 
L 214.542186 179.696416 
L 214.657768 179.757734 
L 214.850403 180.382367 
L 215.158619 182.342806 
L 216.121795 190.656697 
L 216.198849 190.109038 
L 216.545593 184.269759 
L 217.316133 165.15258 
L 217.431715 154.852592 
L 217.470242 136.292783 
L 217.508769 49.47218 
L 217.547296 121.679655 
L 217.701404 198.738942 
L 217.855512 201.836592 
L 218.048147 202.129266 
L 218.086674 202.101579 
L 218.626053 200.775195 
L 218.818688 200.54036 
L 218.857215 200.57631 
L 219.011323 201.06584 
L 219.589229 203.441154 
L 219.820391 203.522912 
L 220.013026 203.355193 
L 220.167135 202.343227 
L 220.35977 201.568561 
L 220.475351 201.521159 
L 220.629459 200.864345 
L 220.822094 200.037638 
L 220.937675 200.288129 
L 221.168838 201.094832 
L 221.207365 201.061491 
L 221.438527 200.88406 
L 221.669689 200.905079 
L 221.862325 201.559718 
L 222.093487 202.363232 
L 222.132014 202.290172 
L 222.247595 201.526088 
L 223.403406 190.749616 
L 224.905961 183.08964 
L 225.329758 176.295365 
L 225.560921 170.515665 
L 225.715029 163.281001 
L 225.792083 151.124655 
L 225.83061 58.959232 
L 225.869137 74.38718 
L 226.023245 197.743067 
L 226.100299 201.315606 
L 226.138826 200.830425 
L 226.48557 196.078056 
L 227.063475 189.429321 
L 227.795489 178.537461 
L 227.988124 178.151723 
L 228.180759 178.116642 
L 228.373395 176.455836 
L 228.643084 172.339116 
L 228.912773 164.584046 
L 228.989827 158.706063 
L 229.028354 150.994481 
L 229.105409 70.010983 
L 229.259517 193.076369 
L 229.336571 198.075895 
L 229.375098 197.947025 
L 230.492382 182.946854 
L 230.91618 167.68619 
L 231.031761 152.119516 
L 231.070288 47.49913 
L 231.108815 71.585103 
L 231.262923 200.381339 
L 231.30145 202.524717 
L 231.339977 201.722219 
L 231.802301 187.248542 
L 232.380207 176.323922 
L 232.611369 170.445069 
L 232.765478 159.98519 
L 232.804005 151.535327 
L 232.842532 54.631307 
L 232.881059 71.759055 
L 233.035167 197.653191 
L 233.073694 200.403372 
L 233.150748 199.656828 
L 234.113924 178.111134 
L 234.345086 165.885932 
L 234.42214 151.61491 
L 234.460667 35.896531 
L 234.499194 73.781392 
L 234.653303 202.372799 
L 234.69183 204.127105 
L 234.730357 203.155148 
L 235.192681 187.147505 
L 235.577952 176.568469 
L 235.809114 166.650886 
L 235.886168 158.192035 
L 235.924695 142.22875 
L 235.963222 39.747394 
L 236.001749 104.255028 
L 236.155857 201.814558 
L 236.194384 202.536604 
L 236.232911 201.620892 
L 236.695236 189.944943 
L 237.465777 170.34983 
L 237.581358 161.639329 
L 237.619885 153.977613 
L 237.696939 62.168212 
L 237.851047 200.147518 
L 237.889574 203.259664 
L 237.966628 201.947631 
L 238.891277 168.270669 
L 239.006858 153.197293 
L 239.045386 55.172442 
L 239.083913 67.126134 
L 239.238021 202.023445 
L 239.276548 204.524295 
L 239.353602 202.529791 
L 239.854453 186.681169 
L 240.201197 175.866138 
L 240.393832 163.862725 
L 240.470886 137.667004 
L 240.509413 41.612449 
L 240.54794 111.266309 
L 240.702048 203.344611 
L 240.740575 203.354468 
L 241.279954 188.341396 
L 241.934914 174.857217 
L 242.166076 165.845343 
L 242.24313 158.183772 
L 242.281657 145.428887 
L 242.320184 39.450805 
L 242.358711 97.649926 
L 242.512819 200.107799 
L 242.551346 201.569286 
L 242.6284 200.320165 
L 243.129252 190.852828 
L 243.514522 186.611588 
L 243.784212 184.280341 
L 244.670334 171.609968 
L 244.824442 165.009359 
L 244.901496 155.359662 
L 244.97855 50.951062 
L 245.017077 127.923517 
L 245.171185 199.835854 
L 245.209712 200.704889 
L 245.248239 200.285085 
L 246.28847 181.184431 
L 246.904902 175.908322 
L 247.136064 170.372009 
L 247.290173 160.581411 
L 247.3287 152.584403 
L 247.367227 65.123656 
L 247.405754 65.265137 
L 247.559862 196.412479 
L 247.636916 200.763018 
L 247.675443 200.50325 
L 247.906605 196.527722 
L 248.36893 191.069688 
L 248.7542 187.376687 
L 249.02389 184.32354 
L 249.370633 180.340039 
L 249.640322 178.482811 
L 249.832957 176.388429 
L 250.025593 170.251548 
L 250.179701 158.276692 
L 250.218228 144.516509 
L 250.256755 38.181681 
L 250.295282 96.78553 
L 250.44939 199.673354 
L 250.487917 201.529567 
L 250.564971 200.814189 
L 251.258458 189.61139 
L 251.836364 182.531399 
L 252.028999 176.071402 
L 252.221634 163.963038 
L 252.260161 157.90458 
L 252.337215 43.665807 
L 252.375742 116.737534 
L 252.52985 205.245616 
L 252.568377 205.351872 
L 253.18481 187.25637 
L 253.916824 173.117552 
L 254.070932 160.859009 
L 254.109459 149.522123 
L 254.147986 33.871585 
L 254.186513 81.68954 
L 254.340621 202.925532 
L 254.379148 204.527484 
L 254.417675 203.7102 
L 255.034108 184.166983 
L 255.380852 171.337153 
L 255.496433 162.605487 
L 255.53496 155.32922 
L 255.612014 56.293708 
L 255.650541 140.32644 
L 255.804649 203.900822 
L 255.843176 203.617716 
L 256.96046 163.743278 
L 256.998987 157.801368 
L 257.076041 43.564915 
L 257.114568 115.551616 
L 257.268677 203.69324 
L 257.307204 203.855885 
L 258.540069 163.849244 
L 258.617123 144.472441 
L 258.65565 38.202845 
L 258.694177 99.557745 
L 258.848285 202.870447 
L 258.886812 204.086226 
L 258.925339 203.56495 
L 259.31061 196.867508 
L 259.734407 190.986771 
L 260.582002 170.499139 
L 260.73611 159.896765 
L 260.774638 150.739497 
L 260.813165 45.12512 
L 260.851692 79.253052 
L 261.0058 200.368727 
L 261.044327 202.572409 
L 261.121381 201.466364 
L 261.39107 196.924912 
L 262.084557 192.025989 
L 262.315719 191.641265 
L 262.508354 191.203341 
L 262.623936 191.291042 
L 263.240368 192.619455 
L 263.278895 192.515229 
L 264.087963 188.114678 
L 264.203544 188.109025 
L 264.357652 188.488095 
L 264.627342 189.13998 
L 265.051139 189.427291 
L 265.089666 189.362204 
L 265.590518 186.417197 
L 266.438113 179.310823 
L 267.632451 170.9691 
L 267.825086 166.999805 
L 267.940667 161.270406 
L 268.017722 145.025608 
L 268.056249 42.148221 
L 268.094776 92.064327 
L 268.248884 193.059699 
L 268.402992 198.464388 
L 268.480046 198.221869 
L 268.711208 196.281145 
L 269.057952 192.449562 
L 269.404695 191.288868 
L 269.558803 191.585746 
L 269.982601 192.591333 
L 270.059655 192.409988 
L 270.25229 192.13239 
L 270.714614 192.80225 
L 270.791669 192.98142 
L 270.830196 192.932714 
L 270.90725 192.690341 
L 271.215466 190.951256 
L 271.331047 190.719465 
L 271.485155 190.260521 
L 271.523682 190.278931 
L 271.639264 190.601467 
L 271.831899 191.26234 
L 271.870426 191.209719 
L 272.178642 190.665105 
L 272.525386 191.034318 
L 272.679494 191.491087 
L 272.718021 191.443685 
L 272.833602 191.13405 
L 273.026237 189.834194 
L 273.565616 183.576996 
L 273.604143 183.581054 
L 273.681197 183.485816 
L 274.297629 181.5477 
L 274.336157 181.583216 
L 274.451738 181.705852 
L 274.490265 181.666713 
L 274.605846 181.261549 
L 275.183751 176.592243 
L 275.453441 175.608689 
L 275.646076 175.259771 
L 275.800184 175.477211 
L 275.992819 175.969205 
L 276.069873 175.823955 
L 276.416617 173.568812 
L 276.801887 169.871607 
L 276.955995 165.353204 
L 277.071577 155.352559 
L 277.110104 138.312221 
L 277.148631 43.650297 
L 277.187158 105.800737 
L 277.341266 193.905251 
L 277.495374 199.557531 
L 277.533901 199.609137 
L 277.572428 199.568403 
L 277.80359 197.997036 
L 278.07328 196.719359 
L 278.265915 196.438282 
L 278.381496 196.588895 
L 278.612658 196.907372 
L 278.766766 197.344282 
L 278.920875 197.98312 
L 278.959402 197.946156 
L 279.074983 197.848597 
L 279.11351 197.877155 
L 279.267618 198.206504 
L 279.306145 198.097494 
L 279.460253 197.678994 
L 279.49878 197.695955 
L 279.614361 198.031247 
L 279.884051 199.783524 
L 280.307848 202.296405 
L 280.53901 203.221975 
L 280.577537 203.158047 
L 280.693119 202.535444 
L 280.962808 201.079321 
L 281.039862 201.124693 
L 281.19397 201.6638 
L 281.463659 202.547911 
L 281.656295 203.355338 
L 281.84893 203.71049 
L 281.964511 203.849652 
L 282.003038 203.789493 
L 282.118619 203.363021 
L 282.426835 200.949437 
L 282.657998 198.855924 
L 282.735052 198.79968 
L 282.773579 198.854765 
L 282.927687 198.94406 
L 283.120322 199.141496 
L 283.197376 199.245287 
L 283.235903 199.142945 
L 283.467066 198.447137 
L 283.582647 198.631236 
L 283.890863 199.572607 
L 283.92939 199.545209 
L 284.199079 198.353058 
L 284.353188 198.541796 
L 284.468769 197.836276 
L 284.776985 196.305788 
L 285.23931 196.107628 
L 285.354891 196.168076 
L 286.086904 192.778332 
L 286.472175 190.390405 
L 286.510702 190.396494 
L 286.549229 190.403017 
L 287.011554 188.950518 
L 287.050081 188.984438 
L 287.127135 189.007342 
L 287.281243 188.278483 
L 287.512405 187.609493 
L 287.627986 187.786199 
L 288.205892 189.432655 
L 288.244419 189.417724 
L 288.706743 188.03669 
L 288.783797 188.015381 
L 288.899379 187.166205 
L 289.631392 180.042291 
L 289.785501 179.603062 
L 289.824028 179.625241 
L 289.939609 179.941979 
L 290.286352 181.118329 
L 290.44046 181.412743 
L 290.556041 181.725132 
L 290.594568 181.689761 
L 290.71015 181.666423 
L 290.825731 181.953009 
L 291.365109 184.656948 
L 292.174177 189.436424 
L 292.289758 189.535576 
L 292.675029 190.716276 
L 292.944718 192.274306 
L 293.676732 196.924912 
L 294.062002 198.986244 
L 294.524327 201.853407 
L 294.562854 201.774984 
L 294.87107 200.957265 
L 294.986651 201.186012 
L 295.179287 201.860655 
L 295.217814 201.789045 
L 295.487503 200.998143 
L 295.603084 201.196739 
L 295.834246 202.252482 
L 295.988354 203.018161 
L 296.065409 202.953944 
L 296.18099 202.885088 
L 296.219517 202.921328 
L 296.296571 202.854211 
L 296.412152 202.722588 
L 296.450679 202.747666 
L 296.604787 203.188489 
L 296.797422 204.078398 
L 296.874476 203.969388 
L 297.028585 203.777751 
L 297.144166 204.008093 
L 297.452382 204.70622 
L 297.645017 205.441457 
L 297.953234 206.543588 
L 298.030288 206.595339 
L 298.145869 205.832414 
L 298.569666 201.495936 
L 298.800829 200.533836 
L 299.147572 198.888106 
L 299.455788 197.597382 
L 299.648423 197.426909 
L 299.764005 197.702043 
L 300.110748 198.705601 
L 300.187802 198.512949 
L 300.573072 196.958398 
L 300.765708 197.079585 
L 300.881289 196.272447 
L 301.150978 194.483641 
L 301.228032 194.454939 
L 301.266559 194.509734 
L 301.728884 195.706668 
L 301.844465 195.611865 
L 301.960046 195.649409 
L 302.114154 195.695796 
L 302.229735 195.560114 
L 302.345316 195.512567 
L 302.537952 195.843511 
L 302.576479 195.781033 
L 302.961749 193.881912 
L 303.07733 194.12298 
L 303.539655 195.999488 
L 304.38725 200.293638 
L 304.464304 200.226811 
L 304.618412 199.619719 
L 305.042209 196.341303 
L 305.119264 196.444515 
L 305.350426 196.864754 
L 305.620115 198.289421 
L 306.737399 205.081377 
L 307.199724 206.70087 
L 307.353832 206.545183 
L 307.392359 206.582872 
L 307.546467 206.984991 
L 307.623521 206.84467 
L 307.700575 206.781757 
L 307.739102 206.813504 
L 307.893211 207.253457 
L 308.047319 207.85794 
L 308.124373 207.833877 
L 308.239954 207.95028 
L 308.933441 209.929854 
L 309.280184 211.366842 
L 309.357238 211.222172 
L 310.24336 208.080164 
L 310.281887 208.106402 
L 310.705685 208.799746 
L 311.013901 209.378571 
L 311.129482 209.256225 
L 311.322117 207.995652 
L 311.668861 206.42965 
L 311.822969 206.1032 
L 311.861496 206.118131 
L 311.93855 206.181043 
L 312.59351 204.659978 
L 312.709091 204.812476 
L 312.747618 204.888725 
L 312.786145 204.849731 
L 313.017307 204.195671 
L 313.055834 204.220169 
L 313.171415 204.413546 
L 313.209942 204.365419 
L 313.518159 203.74499 
L 313.787848 203.536828 
L 313.826375 203.58278 
L 313.864902 203.544511 
L 313.980483 203.379111 
L 314.01901 203.40303 
L 314.2887 204.011572 
L 314.365754 203.858059 
L 314.596916 203.621774 
L 314.712497 203.750934 
L 314.905132 204.462542 
L 315.7142 208.344136 
L 315.752727 208.293835 
L 316.215052 205.993755 
L 316.292106 206.115521 
L 317.02412 208.357473 
L 317.178228 208.916873 
L 317.216755 208.875125 
L 317.40939 208.601005 
L 317.486444 208.670006 
L 317.524971 208.596512 
L 317.640552 208.148295 
L 317.871715 207.27897 
L 317.987296 207.277086 
L 318.025823 207.304048 
L 318.06435 207.197793 
L 318.218458 206.289473 
L 318.526674 203.36476 
L 318.680783 203.081219 
L 319.066053 203.384185 
L 319.143107 203.358672 
L 319.258688 202.454556 
L 319.528377 200.835498 
L 319.605432 200.849269 
L 319.75954 201.28386 
L 320.298918 203.949094 
L 320.414499 203.676859 
L 320.684189 202.430493 
L 320.79977 202.349316 
L 321.069459 201.185722 
L 321.262094 201.048589 
L 321.416203 201.502459 
L 321.801473 203.823849 
L 321.955581 204.676358 
L 321.994108 204.629391 
L 322.417906 203.373748 
L 322.49496 203.439705 
L 322.995811 204.465297 
L 323.034338 204.327875 
L 323.265501 203.754558 
L 323.458136 203.867047 
L 323.881933 201.382867 
L 323.92046 201.39026 
L 323.997514 201.239502 
L 324.382785 199.568548 
L 324.421312 199.57797 
L 324.613947 199.794396 
L 324.691001 199.711188 
L 324.806582 199.771492 
L 324.96069 200.038798 
L 324.999217 199.974871 
L 325.345961 199.063797 
L 325.423015 199.14454 
L 325.500069 199.301966 
L 325.538596 199.19919 
L 325.846812 197.964855 
L 325.923867 197.973408 
L 326.077975 198.41858 
L 326.424718 200.490348 
L 327.619056 208.574043 
L 327.657583 208.539252 
L 328.119908 206.714206 
L 328.158435 206.751026 
L 328.312543 207.150826 
L 328.466651 207.652967 
L 328.543705 207.620496 
L 328.582232 207.628324 
L 329.121611 205.84807 
L 329.429827 204.344255 
L 329.622463 203.967939 
L 329.738044 204.215386 
L 330.04626 205.736306 
L 330.354476 206.807415 
L 330.393003 206.809445 
L 330.624166 206.063916 
L 330.662693 206.078412 
L 330.816801 206.453423 
L 330.970909 206.666224 
L 331.702923 205.713982 
L 331.818504 205.764718 
L 332.011139 206.288893 
L 332.165247 206.713916 
L 332.203774 206.635058 
L 332.589045 205.893298 
L 332.743153 206.225111 
L 332.820207 206.348617 
L 332.858734 206.3031 
L 333.051369 206.146108 
L 333.205478 206.442696 
L 333.321059 206.583597 
L 333.706329 205.839952 
L 333.860437 205.200824 
L 333.976018 204.924675 
L 334.014545 204.949173 
L 334.168654 205.420728 
L 334.785086 207.835907 
L 334.939194 208.037111 
L 335.170357 208.781046 
L 335.285938 208.636811 
L 335.401519 208.683778 
L 335.555627 209.070241 
L 335.632681 208.906871 
L 335.863843 208.405889 
L 335.979425 208.573173 
L 336.133533 209.026318 
L 336.210587 208.880778 
L 336.326168 208.845263 
L 336.595857 209.366974 
L 336.672911 209.242598 
L 336.865547 209.103872 
L 336.942601 209.040524 
L 337.404925 208.360952 
L 337.559033 208.426184 
L 337.674614 208.613907 
L 337.713142 208.524467 
L 337.86725 207.133575 
L 338.25252 203.334464 
L 338.560736 203.466377 
L 338.791899 204.601704 
L 339.331277 207.375659 
L 339.716548 209.221724 
L 339.755075 209.194327 
L 340.217399 207.304773 
L 340.33298 207.402911 
L 340.410035 207.472202 
L 340.448562 207.424075 
L 340.641197 207.077041 
L 340.679724 207.093276 
L 340.833832 207.425235 
L 340.910886 207.272157 
L 341.180575 206.790745 
L 341.219102 206.813939 
L 341.373211 207.231133 
L 341.527319 207.919693 
L 341.565846 207.886063 
L 342.220806 202.911036 
L 342.451968 201.629444 
L 342.529022 201.699895 
L 342.721657 202.310031 
L 342.798711 202.171595 
L 343.299563 200.484985 
L 343.376617 200.586892 
L 343.530725 200.626176 
L 343.646306 200.836223 
L 344.108631 202.814637 
L 344.648009 204.860168 
L 344.725063 204.521396 
L 344.956226 203.357222 
L 345.611185 202.126077 
L 345.649712 202.165071 
L 345.80382 202.628508 
L 346.921105 207.252732 
L 346.998159 207.045295 
L 347.306375 205.910693 
L 347.653119 206.070004 
L 347.999862 206.777409 
L 348.038389 206.726093 
L 348.192497 206.469948 
L 348.231024 206.507493 
L 348.385132 206.963827 
L 348.770403 208.310071 
L 348.963038 208.201351 
L 349.117146 208.527946 
L 349.502417 210.19774 
L 349.733579 210.800773 
L 349.84916 209.881872 
L 350.118849 207.977388 
L 350.23443 207.999856 
L 350.311484 208.124377 
L 350.350012 208.067843 
L 350.619701 207.49757 
L 350.735282 207.593968 
L 351.313188 206.30194 
L 351.428769 206.207861 
L 351.621404 205.971431 
L 351.736985 206.11871 
L 352.006674 206.520395 
L 352.122255 206.426895 
L 352.276364 206.331367 
L 352.623107 206.845395 
L 352.854269 207.577008 
L 353.740391 210.893693 
L 353.971554 211.041262 
L 354.164189 210.419384 
L 354.472405 209.183165 
L 354.587986 209.268111 
L 354.742094 209.515848 
L 354.780621 209.469751 
L 355.127365 209.001095 
L 355.204419 209.10938 
L 355.435581 209.356537 
L 355.589689 209.595286 
L 355.743797 209.958411 
L 355.782325 209.832876 
L 356.552865 206.874387 
L 356.668446 206.822491 
L 356.822555 207.182572 
L 357.01519 207.962892 
L 357.053717 207.832283 
L 357.246352 207.142418 
L 357.284879 207.157059 
L 357.438987 207.577153 
L 357.901312 209.14562 
L 358.248055 209.778371 
L 358.286582 209.754597 
L 358.402163 209.605868 
L 358.633326 209.124746 
L 358.748907 209.293334 
L 359.09565 210.354442 
L 359.134177 210.233255 
L 359.326812 207.958253 
L 359.789137 203.526101 
L 359.904718 203.544366 
L 360.212934 203.937787 
L 360.251461 203.878644 
L 360.40557 203.453911 
L 360.598205 201.17311 
L 360.79084 200.191296 
L 360.867894 200.269284 
L 361.137583 200.878116 
L 361.17611 200.849704 
L 361.330219 200.404822 
L 362.023705 197.656815 
L 362.524557 196.033843 
L 362.601611 196.122559 
L 362.8713 197.226429 
L 363.295098 198.83766 
L 363.333625 198.779531 
L 363.52626 198.678783 
L 363.641841 198.860853 
L 363.873003 199.909349 
L 363.950058 200.388876 
L 364.027112 200.171147 
L 364.18122 199.764244 
L 364.296801 200.044596 
L 364.682071 201.256027 
L 364.83618 201.556819 
L 365.182923 202.657066 
L 365.22145 202.620536 
L 365.337031 202.353954 
L 366.300207 195.961218 
L 366.608423 192.273146 
L 366.801059 191.557478 
L 366.91664 191.801881 
L 367.147802 193.050856 
L 367.224856 192.753543 
L 367.494545 191.370915 
L 367.5716 191.3886 
L 367.725708 191.87842 
L 368.072451 194.144724 
L 368.265086 194.800524 
L 368.303613 194.893008 
L 368.34214 194.79574 
L 368.496249 193.667081 
L 368.958573 188.984583 
L 369.035627 189.073734 
L 369.459425 190.732946 
L 369.883222 193.034621 
L 369.921749 192.944601 
L 370.114384 192.533639 
L 370.229965 192.808628 
L 370.384074 193.276124 
L 370.422601 193.244088 
L 370.538182 193.193062 
L 370.576709 193.236695 
L 370.730817 193.752753 
L 371.07756 196.122124 
L 371.424304 198.265068 
L 371.501358 198.174612 
L 371.73252 197.338628 
L 372.117791 195.08392 
L 372.734223 190.868049 
L 373.080967 187.993927 
L 373.42771 187.260864 
L 373.581818 186.527946 
L 373.581818 186.527946 
" style="fill:none;stroke:#ff0000;stroke-linecap:square;stroke-width:1.5;"/>
   </g>
   <g id="line2d_20">
    <path clip-path="url(#pd3d9b3a2e8)" d="M 258.00069 201.264 
L 296.450679 201.264 
L 296.450679 201.264 
" style="fill:none;stroke:#000000;stroke-linecap:square;stroke-width:1.5;"/>
   </g>
   <g id="line2d_21">
    <path clip-path="url(#pd3d9b3a2e8)" d="M 258.00069 179.52 
L 258.00069 178.0704 
L 258.00069 176.6208 
L 258.00069 175.1712 
L 258.00069 173.7216 
L 258.00069 172.272 
L 258.00069 170.8224 
L 258.00069 169.3728 
L 258.00069 167.9232 
L 258.00069 166.4736 
L 258.00069 165.024 
L 258.00069 163.5744 
L 258.00069 162.1248 
L 258.00069 160.6752 
L 258.00069 159.2256 
L 258.00069 157.776 
L 258.00069 156.3264 
L 258.00069 154.8768 
L 258.00069 153.4272 
L 258.00069 151.9776 
" style="fill:none;stroke:#000000;stroke-linecap:square;stroke-width:1.5;"/>
   </g>
   <g id="patch_3">
    <path d="M 54 252 
L 54 34.56 
" style="fill:none;stroke:#000000;stroke-linecap:square;stroke-linejoin:miter;stroke-width:0.8;"/>
   </g>
   <g id="patch_4">
    <path d="M 54 252 
L 388.8 252 
" style="fill:none;stroke:#000000;stroke-linecap:square;stroke-linejoin:miter;stroke-width:0.8;"/>
   </g>
   <g id="text_20">
    <!-- 500 ms -->
    <g transform="translate(258.00069 199.8144)scale(0.12 -0.12)">
     <use xlink:href="#DejaVuSans-35"/>
     <use x="63.623047" xlink:href="#DejaVuSans-30"/>
     <use x="127.246094" xlink:href="#DejaVuSans-30"/>
     <use x="190.869141" xlink:href="#DejaVuSans-20"/>
     <use x="222.65625" xlink:href="#DejaVuSans-6d"/>
     <use x="320.068359" xlink:href="#DejaVuSans-73"/>
    </g>
   </g>
   <g id="text_21">
    <!-- 20 mV -->
    <g transform="translate(261.853395 150.528)scale(0.12 -0.12)">
     <use xlink:href="#DejaVuSans-32"/>
     <use x="63.623047" xlink:href="#DejaVuSans-30"/>
     <use x="127.246094" xlink:href="#DejaVuSans-20"/>
     <use x="159.033203" xlink:href="#DejaVuSans-6d"/>
     <use x="256.445312" xlink:href="#DejaVuSans-56"/>
    </g>
   </g>
  </g>
 </g>
 <defs>
  <clipPath id="pd3d9b3a2e8">
   <rect height="217.44" width="334.8" x="54" y="34.56"/>
  </clipPath>
 </defs>
</svg>
