<?xml version="1.0" encoding="utf-8" standalone="no"?>
<!DOCTYPE svg PUBLIC "-//W3C//DTD SVG 1.1//EN"
  "http://www.w3.org/Graphics/SVG/1.1/DTD/svg11.dtd">
<svg height="288pt" version="1.1" viewBox="0 0 432 288" width="432pt" xmlns="http://www.w3.org/2000/svg" xmlns:xlink="http://www.w3.org/1999/xlink">
 <metadata>
  <rdf:RDF xmlns:cc="http://creativecommons.org/ns#" xmlns:dc="http://purl.org/dc/elements/1.1/" xmlns:rdf="http://www.w3.org/1999/02/22-rdf-syntax-ns#">
   <cc:Work>
    <dc:type rdf:resource="http://purl.org/dc/dcmitype/StillImage"/>
    <dc:date>2021-07-20T17:33:29.975361</dc:date>
    <dc:format>image/svg+xml</dc:format>
    <dc:creator>
     <cc:Agent>
      <dc:title>Matplotlib v3.4.1, https://matplotlib.org/</dc:title>
     </cc:Agent>
    </dc:creator>
   </cc:Work>
  </rdf:RDF>
 </metadata>
 <defs>
  <style type="text/css">*{stroke-linecap:butt;stroke-linejoin:round;}</style>
 </defs>
 <g id="figure_1">
  <g id="patch_1">
   <path d="M 0 288 
L 432 288 
L 432 0 
L 0 0 
z
" style="fill:none;"/>
  </g>
  <g id="axes_1">
   <g id="patch_2">
    <path d="M 54 252 
L 388.8 252 
L 388.8 34.56 
L 54 34.56 
z
" style="fill:#ffffff;"/>
   </g>
   <g id="matplotlib.axis_1">
    <g id="xtick_1">
     <g id="line2d_1">
      <defs>
       <path d="M 0 0 
L 0 3.5 
" id="m62789b6d2c" style="stroke:#000000;stroke-width:0.8;"/>
      </defs>
      <g>
       <use style="stroke:#000000;stroke-width:0.8;" x="65.365478" xlink:href="#m62789b6d2c" y="252"/>
      </g>
     </g>
     <g id="text_1">
      <!-- 0 -->
      <g transform="translate(61.547978 268.118125)scale(0.12 -0.12)">
       <defs>
        <path d="M 2034 4250 
Q 1547 4250 1301 3770 
Q 1056 3291 1056 2328 
Q 1056 1369 1301 889 
Q 1547 409 2034 409 
Q 2525 409 2770 889 
Q 3016 1369 3016 2328 
Q 3016 3291 2770 3770 
Q 2525 4250 2034 4250 
z
M 2034 4750 
Q 2819 4750 3233 4129 
Q 3647 3509 3647 2328 
Q 3647 1150 3233 529 
Q 2819 -91 2034 -91 
Q 1250 -91 836 529 
Q 422 1150 422 2328 
Q 422 3509 836 4129 
Q 1250 4750 2034 4750 
z
" id="DejaVuSans-30" transform="scale(0.015625)"/>
       </defs>
       <use xlink:href="#DejaVuSans-30"/>
      </g>
     </g>
    </g>
    <g id="xtick_2">
     <g id="line2d_2">
      <g>
       <use style="stroke:#000000;stroke-width:0.8;" x="103.89252" xlink:href="#m62789b6d2c" y="252"/>
      </g>
     </g>
     <g id="text_2">
      <!-- 500 -->
      <g transform="translate(92.44002 268.118125)scale(0.12 -0.12)">
       <defs>
        <path d="M 691 4666 
L 3169 4666 
L 3169 4134 
L 1269 4134 
L 1269 2991 
Q 1406 3038 1543 3061 
Q 1681 3084 1819 3084 
Q 2600 3084 3056 2656 
Q 3513 2228 3513 1497 
Q 3513 744 3044 326 
Q 2575 -91 1722 -91 
Q 1428 -91 1123 -41 
Q 819 9 494 109 
L 494 744 
Q 775 591 1075 516 
Q 1375 441 1709 441 
Q 2250 441 2565 725 
Q 2881 1009 2881 1497 
Q 2881 1984 2565 2268 
Q 2250 2553 1709 2553 
Q 1456 2553 1204 2497 
Q 953 2441 691 2322 
L 691 4666 
z
" id="DejaVuSans-35" transform="scale(0.015625)"/>
       </defs>
       <use xlink:href="#DejaVuSans-35"/>
       <use x="63.623047" xlink:href="#DejaVuSans-30"/>
       <use x="127.246094" xlink:href="#DejaVuSans-30"/>
      </g>
     </g>
    </g>
    <g id="xtick_3">
     <g id="line2d_3">
      <g>
       <use style="stroke:#000000;stroke-width:0.8;" x="142.419563" xlink:href="#m62789b6d2c" y="252"/>
      </g>
     </g>
     <g id="text_3">
      <!-- 1000 -->
      <g transform="translate(127.149563 268.118125)scale(0.12 -0.12)">
       <defs>
        <path d="M 794 531 
L 1825 531 
L 1825 4091 
L 703 3866 
L 703 4441 
L 1819 4666 
L 2450 4666 
L 2450 531 
L 3481 531 
L 3481 0 
L 794 0 
L 794 531 
z
" id="DejaVuSans-31" transform="scale(0.015625)"/>
       </defs>
       <use xlink:href="#DejaVuSans-31"/>
       <use x="63.623047" xlink:href="#DejaVuSans-30"/>
       <use x="127.246094" xlink:href="#DejaVuSans-30"/>
       <use x="190.869141" xlink:href="#DejaVuSans-30"/>
      </g>
     </g>
    </g>
    <g id="xtick_4">
     <g id="line2d_4">
      <g>
       <use style="stroke:#000000;stroke-width:0.8;" x="180.946605" xlink:href="#m62789b6d2c" y="252"/>
      </g>
     </g>
     <g id="text_4">
      <!-- 1500 -->
      <g transform="translate(165.676605 268.118125)scale(0.12 -0.12)">
       <use xlink:href="#DejaVuSans-31"/>
       <use x="63.623047" xlink:href="#DejaVuSans-35"/>
       <use x="127.246094" xlink:href="#DejaVuSans-30"/>
       <use x="190.869141" xlink:href="#DejaVuSans-30"/>
      </g>
     </g>
    </g>
    <g id="xtick_5">
     <g id="line2d_5">
      <g>
       <use style="stroke:#000000;stroke-width:0.8;" x="219.473648" xlink:href="#m62789b6d2c" y="252"/>
      </g>
     </g>
     <g id="text_5">
      <!-- 2000 -->
      <g transform="translate(204.203648 268.118125)scale(0.12 -0.12)">
       <defs>
        <path d="M 1228 531 
L 3431 531 
L 3431 0 
L 469 0 
L 469 531 
Q 828 903 1448 1529 
Q 2069 2156 2228 2338 
Q 2531 2678 2651 2914 
Q 2772 3150 2772 3378 
Q 2772 3750 2511 3984 
Q 2250 4219 1831 4219 
Q 1534 4219 1204 4116 
Q 875 4013 500 3803 
L 500 4441 
Q 881 4594 1212 4672 
Q 1544 4750 1819 4750 
Q 2544 4750 2975 4387 
Q 3406 4025 3406 3419 
Q 3406 3131 3298 2873 
Q 3191 2616 2906 2266 
Q 2828 2175 2409 1742 
Q 1991 1309 1228 531 
z
" id="DejaVuSans-32" transform="scale(0.015625)"/>
       </defs>
       <use xlink:href="#DejaVuSans-32"/>
       <use x="63.623047" xlink:href="#DejaVuSans-30"/>
       <use x="127.246094" xlink:href="#DejaVuSans-30"/>
       <use x="190.869141" xlink:href="#DejaVuSans-30"/>
      </g>
     </g>
    </g>
    <g id="xtick_6">
     <g id="line2d_6">
      <g>
       <use style="stroke:#000000;stroke-width:0.8;" x="258.00069" xlink:href="#m62789b6d2c" y="252"/>
      </g>
     </g>
     <g id="text_6">
      <!-- 2500 -->
      <g transform="translate(242.73069 268.118125)scale(0.12 -0.12)">
       <use xlink:href="#DejaVuSans-32"/>
       <use x="63.623047" xlink:href="#DejaVuSans-35"/>
       <use x="127.246094" xlink:href="#DejaVuSans-30"/>
       <use x="190.869141" xlink:href="#DejaVuSans-30"/>
      </g>
     </g>
    </g>
    <g id="xtick_7">
     <g id="line2d_7">
      <g>
       <use style="stroke:#000000;stroke-width:0.8;" x="296.527733" xlink:href="#m62789b6d2c" y="252"/>
      </g>
     </g>
     <g id="text_7">
      <!-- 3000 -->
      <g transform="translate(281.257733 268.118125)scale(0.12 -0.12)">
       <defs>
        <path d="M 2597 2516 
Q 3050 2419 3304 2112 
Q 3559 1806 3559 1356 
Q 3559 666 3084 287 
Q 2609 -91 1734 -91 
Q 1441 -91 1130 -33 
Q 819 25 488 141 
L 488 750 
Q 750 597 1062 519 
Q 1375 441 1716 441 
Q 2309 441 2620 675 
Q 2931 909 2931 1356 
Q 2931 1769 2642 2001 
Q 2353 2234 1838 2234 
L 1294 2234 
L 1294 2753 
L 1863 2753 
Q 2328 2753 2575 2939 
Q 2822 3125 2822 3475 
Q 2822 3834 2567 4026 
Q 2313 4219 1838 4219 
Q 1578 4219 1281 4162 
Q 984 4106 628 3988 
L 628 4550 
Q 988 4650 1302 4700 
Q 1616 4750 1894 4750 
Q 2613 4750 3031 4423 
Q 3450 4097 3450 3541 
Q 3450 3153 3228 2886 
Q 3006 2619 2597 2516 
z
" id="DejaVuSans-33" transform="scale(0.015625)"/>
       </defs>
       <use xlink:href="#DejaVuSans-33"/>
       <use x="63.623047" xlink:href="#DejaVuSans-30"/>
       <use x="127.246094" xlink:href="#DejaVuSans-30"/>
       <use x="190.869141" xlink:href="#DejaVuSans-30"/>
      </g>
     </g>
    </g>
    <g id="xtick_8">
     <g id="line2d_8">
      <g>
       <use style="stroke:#000000;stroke-width:0.8;" x="335.054776" xlink:href="#m62789b6d2c" y="252"/>
      </g>
     </g>
     <g id="text_8">
      <!-- 3500 -->
      <g transform="translate(319.784776 268.118125)scale(0.12 -0.12)">
       <use xlink:href="#DejaVuSans-33"/>
       <use x="63.623047" xlink:href="#DejaVuSans-35"/>
       <use x="127.246094" xlink:href="#DejaVuSans-30"/>
       <use x="190.869141" xlink:href="#DejaVuSans-30"/>
      </g>
     </g>
    </g>
    <g id="xtick_9">
     <g id="line2d_9">
      <g>
       <use style="stroke:#000000;stroke-width:0.8;" x="373.581818" xlink:href="#m62789b6d2c" y="252"/>
      </g>
     </g>
     <g id="text_9">
      <!-- 4000 -->
      <g transform="translate(358.311818 268.118125)scale(0.12 -0.12)">
       <defs>
        <path d="M 2419 4116 
L 825 1625 
L 2419 1625 
L 2419 4116 
z
M 2253 4666 
L 3047 4666 
L 3047 1625 
L 3713 1625 
L 3713 1100 
L 3047 1100 
L 3047 0 
L 2419 0 
L 2419 1100 
L 313 1100 
L 313 1709 
L 2253 4666 
z
" id="DejaVuSans-34" transform="scale(0.015625)"/>
       </defs>
       <use xlink:href="#DejaVuSans-34"/>
       <use x="63.623047" xlink:href="#DejaVuSans-30"/>
       <use x="127.246094" xlink:href="#DejaVuSans-30"/>
       <use x="190.869141" xlink:href="#DejaVuSans-30"/>
      </g>
     </g>
    </g>
    <g id="text_10">
     <!-- Time(ms) -->
     <g transform="translate(193.067813 283.731875)scale(0.12 -0.12)">
      <defs>
       <path d="M -19 4666 
L 3928 4666 
L 3928 4134 
L 2272 4134 
L 2272 0 
L 1638 0 
L 1638 4134 
L -19 4134 
L -19 4666 
z
" id="DejaVuSans-54" transform="scale(0.015625)"/>
       <path d="M 603 3500 
L 1178 3500 
L 1178 0 
L 603 0 
L 603 3500 
z
M 603 4863 
L 1178 4863 
L 1178 4134 
L 603 4134 
L 603 4863 
z
" id="DejaVuSans-69" transform="scale(0.015625)"/>
       <path d="M 3328 2828 
Q 3544 3216 3844 3400 
Q 4144 3584 4550 3584 
Q 5097 3584 5394 3201 
Q 5691 2819 5691 2113 
L 5691 0 
L 5113 0 
L 5113 2094 
Q 5113 2597 4934 2840 
Q 4756 3084 4391 3084 
Q 3944 3084 3684 2787 
Q 3425 2491 3425 1978 
L 3425 0 
L 2847 0 
L 2847 2094 
Q 2847 2600 2669 2842 
Q 2491 3084 2119 3084 
Q 1678 3084 1418 2786 
Q 1159 2488 1159 1978 
L 1159 0 
L 581 0 
L 581 3500 
L 1159 3500 
L 1159 2956 
Q 1356 3278 1631 3431 
Q 1906 3584 2284 3584 
Q 2666 3584 2933 3390 
Q 3200 3197 3328 2828 
z
" id="DejaVuSans-6d" transform="scale(0.015625)"/>
       <path d="M 3597 1894 
L 3597 1613 
L 953 1613 
Q 991 1019 1311 708 
Q 1631 397 2203 397 
Q 2534 397 2845 478 
Q 3156 559 3463 722 
L 3463 178 
Q 3153 47 2828 -22 
Q 2503 -91 2169 -91 
Q 1331 -91 842 396 
Q 353 884 353 1716 
Q 353 2575 817 3079 
Q 1281 3584 2069 3584 
Q 2775 3584 3186 3129 
Q 3597 2675 3597 1894 
z
M 3022 2063 
Q 3016 2534 2758 2815 
Q 2500 3097 2075 3097 
Q 1594 3097 1305 2825 
Q 1016 2553 972 2059 
L 3022 2063 
z
" id="DejaVuSans-65" transform="scale(0.015625)"/>
       <path d="M 1984 4856 
Q 1566 4138 1362 3434 
Q 1159 2731 1159 2009 
Q 1159 1288 1364 580 
Q 1569 -128 1984 -844 
L 1484 -844 
Q 1016 -109 783 600 
Q 550 1309 550 2009 
Q 550 2706 781 3412 
Q 1013 4119 1484 4856 
L 1984 4856 
z
" id="DejaVuSans-28" transform="scale(0.015625)"/>
       <path d="M 2834 3397 
L 2834 2853 
Q 2591 2978 2328 3040 
Q 2066 3103 1784 3103 
Q 1356 3103 1142 2972 
Q 928 2841 928 2578 
Q 928 2378 1081 2264 
Q 1234 2150 1697 2047 
L 1894 2003 
Q 2506 1872 2764 1633 
Q 3022 1394 3022 966 
Q 3022 478 2636 193 
Q 2250 -91 1575 -91 
Q 1294 -91 989 -36 
Q 684 19 347 128 
L 347 722 
Q 666 556 975 473 
Q 1284 391 1588 391 
Q 1994 391 2212 530 
Q 2431 669 2431 922 
Q 2431 1156 2273 1281 
Q 2116 1406 1581 1522 
L 1381 1569 
Q 847 1681 609 1914 
Q 372 2147 372 2553 
Q 372 3047 722 3315 
Q 1072 3584 1716 3584 
Q 2034 3584 2315 3537 
Q 2597 3491 2834 3397 
z
" id="DejaVuSans-73" transform="scale(0.015625)"/>
       <path d="M 513 4856 
L 1013 4856 
Q 1481 4119 1714 3412 
Q 1947 2706 1947 2009 
Q 1947 1309 1714 600 
Q 1481 -109 1013 -844 
L 513 -844 
Q 928 -128 1133 580 
Q 1338 1288 1338 2009 
Q 1338 2731 1133 3434 
Q 928 4138 513 4856 
z
" id="DejaVuSans-29" transform="scale(0.015625)"/>
      </defs>
      <use xlink:href="#DejaVuSans-54"/>
      <use x="57.958984" xlink:href="#DejaVuSans-69"/>
      <use x="85.742188" xlink:href="#DejaVuSans-6d"/>
      <use x="183.154297" xlink:href="#DejaVuSans-65"/>
      <use x="244.677734" xlink:href="#DejaVuSans-28"/>
      <use x="283.691406" xlink:href="#DejaVuSans-6d"/>
      <use x="381.103516" xlink:href="#DejaVuSans-73"/>
      <use x="433.203125" xlink:href="#DejaVuSans-29"/>
     </g>
    </g>
   </g>
   <g id="matplotlib.axis_2">
    <g id="ytick_1">
     <g id="line2d_10">
      <defs>
       <path d="M 0 0 
L -3.5 0 
" id="mbee972e887" style="stroke:#000000;stroke-width:0.8;"/>
      </defs>
      <g>
       <use style="stroke:#000000;stroke-width:0.8;" x="54" xlink:href="#mbee972e887" y="237.504"/>
      </g>
     </g>
     <g id="text_11">
      <!-- -100 -->
      <g transform="translate(19.765625 242.063063)scale(0.12 -0.12)">
       <defs>
        <path d="M 313 2009 
L 1997 2009 
L 1997 1497 
L 313 1497 
L 313 2009 
z
" id="DejaVuSans-2d" transform="scale(0.015625)"/>
       </defs>
       <use xlink:href="#DejaVuSans-2d"/>
       <use x="36.083984" xlink:href="#DejaVuSans-31"/>
       <use x="99.707031" xlink:href="#DejaVuSans-30"/>
       <use x="163.330078" xlink:href="#DejaVuSans-30"/>
      </g>
     </g>
    </g>
    <g id="ytick_2">
     <g id="line2d_11">
      <g>
       <use style="stroke:#000000;stroke-width:0.8;" x="54" xlink:href="#mbee972e887" y="208.512"/>
      </g>
     </g>
     <g id="text_12">
      <!-- -80 -->
      <g transform="translate(27.400625 213.071062)scale(0.12 -0.12)">
       <defs>
        <path d="M 2034 2216 
Q 1584 2216 1326 1975 
Q 1069 1734 1069 1313 
Q 1069 891 1326 650 
Q 1584 409 2034 409 
Q 2484 409 2743 651 
Q 3003 894 3003 1313 
Q 3003 1734 2745 1975 
Q 2488 2216 2034 2216 
z
M 1403 2484 
Q 997 2584 770 2862 
Q 544 3141 544 3541 
Q 544 4100 942 4425 
Q 1341 4750 2034 4750 
Q 2731 4750 3128 4425 
Q 3525 4100 3525 3541 
Q 3525 3141 3298 2862 
Q 3072 2584 2669 2484 
Q 3125 2378 3379 2068 
Q 3634 1759 3634 1313 
Q 3634 634 3220 271 
Q 2806 -91 2034 -91 
Q 1263 -91 848 271 
Q 434 634 434 1313 
Q 434 1759 690 2068 
Q 947 2378 1403 2484 
z
M 1172 3481 
Q 1172 3119 1398 2916 
Q 1625 2713 2034 2713 
Q 2441 2713 2670 2916 
Q 2900 3119 2900 3481 
Q 2900 3844 2670 4047 
Q 2441 4250 2034 4250 
Q 1625 4250 1398 4047 
Q 1172 3844 1172 3481 
z
" id="DejaVuSans-38" transform="scale(0.015625)"/>
       </defs>
       <use xlink:href="#DejaVuSans-2d"/>
       <use x="36.083984" xlink:href="#DejaVuSans-38"/>
       <use x="99.707031" xlink:href="#DejaVuSans-30"/>
      </g>
     </g>
    </g>
    <g id="ytick_3">
     <g id="line2d_12">
      <g>
       <use style="stroke:#000000;stroke-width:0.8;" x="54" xlink:href="#mbee972e887" y="179.52"/>
      </g>
     </g>
     <g id="text_13">
      <!-- -60 -->
      <g transform="translate(27.400625 184.079062)scale(0.12 -0.12)">
       <defs>
        <path d="M 2113 2584 
Q 1688 2584 1439 2293 
Q 1191 2003 1191 1497 
Q 1191 994 1439 701 
Q 1688 409 2113 409 
Q 2538 409 2786 701 
Q 3034 994 3034 1497 
Q 3034 2003 2786 2293 
Q 2538 2584 2113 2584 
z
M 3366 4563 
L 3366 3988 
Q 3128 4100 2886 4159 
Q 2644 4219 2406 4219 
Q 1781 4219 1451 3797 
Q 1122 3375 1075 2522 
Q 1259 2794 1537 2939 
Q 1816 3084 2150 3084 
Q 2853 3084 3261 2657 
Q 3669 2231 3669 1497 
Q 3669 778 3244 343 
Q 2819 -91 2113 -91 
Q 1303 -91 875 529 
Q 447 1150 447 2328 
Q 447 3434 972 4092 
Q 1497 4750 2381 4750 
Q 2619 4750 2861 4703 
Q 3103 4656 3366 4563 
z
" id="DejaVuSans-36" transform="scale(0.015625)"/>
       </defs>
       <use xlink:href="#DejaVuSans-2d"/>
       <use x="36.083984" xlink:href="#DejaVuSans-36"/>
       <use x="99.707031" xlink:href="#DejaVuSans-30"/>
      </g>
     </g>
    </g>
    <g id="ytick_4">
     <g id="line2d_13">
      <g>
       <use style="stroke:#000000;stroke-width:0.8;" x="54" xlink:href="#mbee972e887" y="150.528"/>
      </g>
     </g>
     <g id="text_14">
      <!-- -40 -->
      <g transform="translate(27.400625 155.087063)scale(0.12 -0.12)">
       <use xlink:href="#DejaVuSans-2d"/>
       <use x="36.083984" xlink:href="#DejaVuSans-34"/>
       <use x="99.707031" xlink:href="#DejaVuSans-30"/>
      </g>
     </g>
    </g>
    <g id="ytick_5">
     <g id="line2d_14">
      <g>
       <use style="stroke:#000000;stroke-width:0.8;" x="54" xlink:href="#mbee972e887" y="121.536"/>
      </g>
     </g>
     <g id="text_15">
      <!-- -20 -->
      <g transform="translate(27.400625 126.095062)scale(0.12 -0.12)">
       <use xlink:href="#DejaVuSans-2d"/>
       <use x="36.083984" xlink:href="#DejaVuSans-32"/>
       <use x="99.707031" xlink:href="#DejaVuSans-30"/>
      </g>
     </g>
    </g>
    <g id="ytick_6">
     <g id="line2d_15">
      <g>
       <use style="stroke:#000000;stroke-width:0.8;" x="54" xlink:href="#mbee972e887" y="92.544"/>
      </g>
     </g>
     <g id="text_16">
      <!-- 0 -->
      <g transform="translate(39.365 97.103062)scale(0.12 -0.12)">
       <use xlink:href="#DejaVuSans-30"/>
      </g>
     </g>
    </g>
    <g id="ytick_7">
     <g id="line2d_16">
      <g>
       <use style="stroke:#000000;stroke-width:0.8;" x="54" xlink:href="#mbee972e887" y="63.552"/>
      </g>
     </g>
     <g id="text_17">
      <!-- 20 -->
      <g transform="translate(31.73 68.111063)scale(0.12 -0.12)">
       <use xlink:href="#DejaVuSans-32"/>
       <use x="63.623047" xlink:href="#DejaVuSans-30"/>
      </g>
     </g>
    </g>
    <g id="ytick_8">
     <g id="line2d_17">
      <g>
       <use style="stroke:#000000;stroke-width:0.8;" x="54" xlink:href="#mbee972e887" y="34.56"/>
      </g>
     </g>
     <g id="text_18">
      <!-- 40 -->
      <g transform="translate(31.73 39.119062)scale(0.12 -0.12)">
       <use xlink:href="#DejaVuSans-34"/>
       <use x="63.623047" xlink:href="#DejaVuSans-30"/>
      </g>
     </g>
    </g>
    <g id="text_19">
     <!-- Membrane potential (mV) -->
     <g transform="translate(13.27 220.574062)rotate(-90)scale(0.12 -0.12)">
      <defs>
       <path d="M 628 4666 
L 1569 4666 
L 2759 1491 
L 3956 4666 
L 4897 4666 
L 4897 0 
L 4281 0 
L 4281 4097 
L 3078 897 
L 2444 897 
L 1241 4097 
L 1241 0 
L 628 0 
L 628 4666 
z
" id="DejaVuSans-4d" transform="scale(0.015625)"/>
       <path d="M 3116 1747 
Q 3116 2381 2855 2742 
Q 2594 3103 2138 3103 
Q 1681 3103 1420 2742 
Q 1159 2381 1159 1747 
Q 1159 1113 1420 752 
Q 1681 391 2138 391 
Q 2594 391 2855 752 
Q 3116 1113 3116 1747 
z
M 1159 2969 
Q 1341 3281 1617 3432 
Q 1894 3584 2278 3584 
Q 2916 3584 3314 3078 
Q 3713 2572 3713 1747 
Q 3713 922 3314 415 
Q 2916 -91 2278 -91 
Q 1894 -91 1617 61 
Q 1341 213 1159 525 
L 1159 0 
L 581 0 
L 581 4863 
L 1159 4863 
L 1159 2969 
z
" id="DejaVuSans-62" transform="scale(0.015625)"/>
       <path d="M 2631 2963 
Q 2534 3019 2420 3045 
Q 2306 3072 2169 3072 
Q 1681 3072 1420 2755 
Q 1159 2438 1159 1844 
L 1159 0 
L 581 0 
L 581 3500 
L 1159 3500 
L 1159 2956 
Q 1341 3275 1631 3429 
Q 1922 3584 2338 3584 
Q 2397 3584 2469 3576 
Q 2541 3569 2628 3553 
L 2631 2963 
z
" id="DejaVuSans-72" transform="scale(0.015625)"/>
       <path d="M 2194 1759 
Q 1497 1759 1228 1600 
Q 959 1441 959 1056 
Q 959 750 1161 570 
Q 1363 391 1709 391 
Q 2188 391 2477 730 
Q 2766 1069 2766 1631 
L 2766 1759 
L 2194 1759 
z
M 3341 1997 
L 3341 0 
L 2766 0 
L 2766 531 
Q 2569 213 2275 61 
Q 1981 -91 1556 -91 
Q 1019 -91 701 211 
Q 384 513 384 1019 
Q 384 1609 779 1909 
Q 1175 2209 1959 2209 
L 2766 2209 
L 2766 2266 
Q 2766 2663 2505 2880 
Q 2244 3097 1772 3097 
Q 1472 3097 1187 3025 
Q 903 2953 641 2809 
L 641 3341 
Q 956 3463 1253 3523 
Q 1550 3584 1831 3584 
Q 2591 3584 2966 3190 
Q 3341 2797 3341 1997 
z
" id="DejaVuSans-61" transform="scale(0.015625)"/>
       <path d="M 3513 2113 
L 3513 0 
L 2938 0 
L 2938 2094 
Q 2938 2591 2744 2837 
Q 2550 3084 2163 3084 
Q 1697 3084 1428 2787 
Q 1159 2491 1159 1978 
L 1159 0 
L 581 0 
L 581 3500 
L 1159 3500 
L 1159 2956 
Q 1366 3272 1645 3428 
Q 1925 3584 2291 3584 
Q 2894 3584 3203 3211 
Q 3513 2838 3513 2113 
z
" id="DejaVuSans-6e" transform="scale(0.015625)"/>
       <path id="DejaVuSans-20" transform="scale(0.015625)"/>
       <path d="M 1159 525 
L 1159 -1331 
L 581 -1331 
L 581 3500 
L 1159 3500 
L 1159 2969 
Q 1341 3281 1617 3432 
Q 1894 3584 2278 3584 
Q 2916 3584 3314 3078 
Q 3713 2572 3713 1747 
Q 3713 922 3314 415 
Q 2916 -91 2278 -91 
Q 1894 -91 1617 61 
Q 1341 213 1159 525 
z
M 3116 1747 
Q 3116 2381 2855 2742 
Q 2594 3103 2138 3103 
Q 1681 3103 1420 2742 
Q 1159 2381 1159 1747 
Q 1159 1113 1420 752 
Q 1681 391 2138 391 
Q 2594 391 2855 752 
Q 3116 1113 3116 1747 
z
" id="DejaVuSans-70" transform="scale(0.015625)"/>
       <path d="M 1959 3097 
Q 1497 3097 1228 2736 
Q 959 2375 959 1747 
Q 959 1119 1226 758 
Q 1494 397 1959 397 
Q 2419 397 2687 759 
Q 2956 1122 2956 1747 
Q 2956 2369 2687 2733 
Q 2419 3097 1959 3097 
z
M 1959 3584 
Q 2709 3584 3137 3096 
Q 3566 2609 3566 1747 
Q 3566 888 3137 398 
Q 2709 -91 1959 -91 
Q 1206 -91 779 398 
Q 353 888 353 1747 
Q 353 2609 779 3096 
Q 1206 3584 1959 3584 
z
" id="DejaVuSans-6f" transform="scale(0.015625)"/>
       <path d="M 1172 4494 
L 1172 3500 
L 2356 3500 
L 2356 3053 
L 1172 3053 
L 1172 1153 
Q 1172 725 1289 603 
Q 1406 481 1766 481 
L 2356 481 
L 2356 0 
L 1766 0 
Q 1100 0 847 248 
Q 594 497 594 1153 
L 594 3053 
L 172 3053 
L 172 3500 
L 594 3500 
L 594 4494 
L 1172 4494 
z
" id="DejaVuSans-74" transform="scale(0.015625)"/>
       <path d="M 603 4863 
L 1178 4863 
L 1178 0 
L 603 0 
L 603 4863 
z
" id="DejaVuSans-6c" transform="scale(0.015625)"/>
       <path d="M 1831 0 
L 50 4666 
L 709 4666 
L 2188 738 
L 3669 4666 
L 4325 4666 
L 2547 0 
L 1831 0 
z
" id="DejaVuSans-56" transform="scale(0.015625)"/>
      </defs>
      <use xlink:href="#DejaVuSans-4d"/>
      <use x="86.279297" xlink:href="#DejaVuSans-65"/>
      <use x="147.802734" xlink:href="#DejaVuSans-6d"/>
      <use x="245.214844" xlink:href="#DejaVuSans-62"/>
      <use x="308.691406" xlink:href="#DejaVuSans-72"/>
      <use x="349.804688" xlink:href="#DejaVuSans-61"/>
      <use x="411.083984" xlink:href="#DejaVuSans-6e"/>
      <use x="474.462891" xlink:href="#DejaVuSans-65"/>
      <use x="535.986328" xlink:href="#DejaVuSans-20"/>
      <use x="567.773438" xlink:href="#DejaVuSans-70"/>
      <use x="631.25" xlink:href="#DejaVuSans-6f"/>
      <use x="692.431641" xlink:href="#DejaVuSans-74"/>
      <use x="731.640625" xlink:href="#DejaVuSans-65"/>
      <use x="793.164062" xlink:href="#DejaVuSans-6e"/>
      <use x="856.542969" xlink:href="#DejaVuSans-74"/>
      <use x="895.751953" xlink:href="#DejaVuSans-69"/>
      <use x="923.535156" xlink:href="#DejaVuSans-61"/>
      <use x="984.814453" xlink:href="#DejaVuSans-6c"/>
      <use x="1012.597656" xlink:href="#DejaVuSans-20"/>
      <use x="1044.384766" xlink:href="#DejaVuSans-28"/>
      <use x="1083.398438" xlink:href="#DejaVuSans-6d"/>
      <use x="1180.810547" xlink:href="#DejaVuSans-56"/>
      <use x="1249.21875" xlink:href="#DejaVuSans-29"/>
     </g>
    </g>
   </g>
   <g id="line2d_18">
    <path clip-path="url(#pcb3c15ffb1)" d="M 69.218182 223.705692 
L 69.333763 223.845579 
L 69.603452 224.666197 
L 69.641979 224.431217 
L 69.950196 222.130267 
L 70.02725 222.195354 
L 70.065777 222.290303 
L 70.104304 222.26334 
L 70.335466 221.557385 
L 70.451047 221.494473 
L 70.566628 221.750907 
L 70.836318 223.168906 
L 71.144534 224.575018 
L 71.183061 224.58473 
L 71.799494 222.564277 
L 71.915075 222.585297 
L 72.10771 223.211524 
L 72.415926 224.16652 
L 72.531507 224.079399 
L 72.647089 223.743237 
L 72.878251 221.946748 
L 73.263521 219.466772 
L 73.340575 219.372838 
L 73.379102 219.415311 
L 73.533211 219.995586 
L 73.957008 222.985386 
L 74.226697 224.355113 
L 74.342278 224.499204 
L 74.380806 224.461659 
L 74.611968 224.14985 
L 74.881657 224.211458 
L 74.997238 224.29423 
L 75.2284 224.940462 
L 75.49809 225.553643 
L 75.767779 225.529434 
L 75.960414 225.863712 
L 76.499793 227.184588 
L 76.53832 227.161104 
L 76.730955 226.275253 
L 77.424442 219.847292 
L 77.501496 219.916003 
L 77.694131 220.670665 
L 77.96382 221.846291 
L 78.002348 221.808021 
L 78.272037 220.182295 
L 78.349091 220.222449 
L 78.503199 220.757931 
L 78.965524 223.712506 
L 79.543429 226.877852 
L 79.967227 228.199597 
L 80.082808 228.079281 
L 80.31397 227.84662 
L 80.545132 227.830094 
L 80.699241 227.110513 
L 81.007457 225.350119 
L 81.238619 224.919732 
L 81.469781 223.990104 
L 81.546835 223.929511 
L 81.855052 223.346772 
L 81.970633 223.127882 
L 82.317376 222.238262 
L 82.471484 222.356115 
L 82.510012 222.313642 
L 82.625593 222.330022 
L 82.856755 222.639077 
L 83.087917 222.093012 
L 83.126444 222.147662 
L 83.357606 222.896526 
L 83.434661 222.765482 
L 83.70435 222.443526 
L 84.282255 222.711122 
L 84.474891 223.206595 
L 84.551945 223.074537 
L 84.898688 222.46527 
L 85.052796 222.12012 
L 85.245432 221.660017 
L 85.361013 221.898331 
L 85.669229 222.822451 
L 85.707756 222.795054 
L 85.78481 222.747652 
L 86.093026 220.945074 
L 86.131554 220.973196 
L 86.285662 221.456348 
L 86.555351 222.835208 
L 86.632405 222.666329 
L 86.863567 221.817444 
L 86.979148 221.941529 
L 87.210311 222.874492 
L 87.518527 224.139558 
L 87.86527 223.700184 
L 88.13496 223.156439 
L 88.327595 223.095556 
L 88.866974 223.653942 
L 88.982555 223.303863 
L 89.483406 221.302111 
L 89.714568 220.645732 
L 89.83015 220.836064 
L 89.984258 221.451999 
L 90.061312 221.231805 
L 90.21542 220.907385 
L 90.253947 220.911588 
L 90.408055 220.643992 
L 90.446582 220.693279 
L 90.60069 221.262682 
L 90.754799 221.853249 
L 90.793326 221.696692 
L 91.101542 220.45279 
L 91.448285 220.707195 
L 91.486812 220.611956 
L 91.717975 218.496555 
L 92.180299 215.699407 
L 92.449988 214.8914 
L 92.488516 214.925465 
L 92.681151 215.605183 
L 92.873786 216.412755 
L 94.183705 223.991988 
L 94.260759 223.639736 
L 94.800138 218.89476 
L 94.838665 218.934334 
L 95.146881 219.81772 
L 95.416571 221.056259 
L 96.533855 225.643228 
L 96.610909 225.685556 
L 96.687963 225.382155 
L 96.99618 223.654667 
L 97.111761 223.610744 
L 97.265869 223.891676 
L 97.342923 223.972419 
L 97.38145 223.924147 
L 97.535558 223.364892 
L 97.882301 221.671904 
L 98.229045 218.827354 
L 98.306099 218.861419 
L 98.460207 219.384145 
L 99.038113 221.857597 
L 99.192221 222.147517 
L 99.500437 223.555079 
L 99.770127 224.525441 
L 99.885708 224.727226 
L 99.924235 224.681998 
L 100.694776 223.094541 
L 101.041519 220.66994 
L 101.619425 217.12016 
L 101.696479 217.04768 
L 101.735006 217.089428 
L 101.927641 217.793354 
L 102.19733 218.82228 
L 102.428493 219.738282 
L 102.621128 219.145106 
L 102.659655 219.169024 
L 102.813763 219.658119 
L 103.083452 220.586008 
L 103.276087 220.797795 
L 103.545777 221.21267 
L 103.699885 221.30327 
L 103.931047 221.513317 
L 104.046628 221.654364 
L 104.200736 221.796424 
L 104.316318 221.900506 
L 104.431899 222.089388 
L 104.470426 222.042711 
L 104.701588 221.628706 
L 104.740115 221.656973 
L 104.93275 222.109828 
L 105.009804 221.878762 
L 105.318021 220.365089 
L 105.703291 219.486197 
L 105.818872 219.398786 
L 105.857399 219.430822 
L 105.934453 219.444013 
L 105.97298 219.394002 
L 106.127089 218.674276 
L 106.281197 218.355799 
L 106.396778 218.58527 
L 106.743521 219.9808 
L 106.782048 219.914264 
L 107.013211 217.888303 
L 107.359954 215.453265 
L 107.437008 215.531688 
L 107.783751 216.471899 
L 108.169022 218.972604 
L 108.246076 218.879394 
L 108.400184 218.708776 
L 108.554292 218.716024 
L 108.669873 218.824454 
L 108.862509 219.597671 
L 109.247779 221.19774 
L 109.517468 221.699301 
L 109.787158 221.94066 
L 109.825685 221.808601 
L 110.288009 220.30841 
L 110.519171 220.140691 
L 110.67328 220.478448 
L 110.788861 220.813885 
L 110.827388 220.70763 
L 111.020023 220.09068 
L 111.05855 220.103436 
L 111.212658 220.444527 
L 111.289712 220.281882 
L 111.983199 218.359133 
L 112.021726 218.391024 
L 112.137307 218.42451 
L 112.406997 217.677676 
L 112.522578 217.749866 
L 112.869321 218.747626 
L 113.061956 219.458799 
L 113.100483 219.448942 
L 113.4087 219.141627 
L 113.678389 217.991079 
L 113.948078 217.133641 
L 113.986605 217.172055 
L 114.140713 217.703769 
L 114.371876 218.396532 
L 114.641565 219.299778 
L 114.872727 220.052845 
L 115.026835 220.148229 
L 115.219471 220.764744 
L 115.412106 221.581159 
L 115.450633 221.509983 
L 115.604741 220.121122 
L 116.028539 216.871698 
L 116.182647 216.641067 
L 116.221174 216.675567 
L 116.375282 217.186551 
L 116.722025 218.358698 
L 117.222877 217.519814 
L 117.299931 217.497925 
L 117.415512 217.423851 
L 117.762255 217.730151 
L 117.916364 217.872647 
L 118.108999 216.141245 
L 118.340161 215.074339 
L 118.532796 215.139571 
L 118.648377 215.28743 
L 118.841013 216.186182 
L 119.380391 219.002755 
L 119.573026 219.258175 
L 119.765662 219.139597 
L 119.804189 219.187724 
L 119.958297 219.67479 
L 120.30504 220.772717 
L 120.767365 222.125049 
L 120.844419 222.076632 
L 120.96 221.604497 
L 121.268216 220.166494 
L 121.537906 219.244983 
L 121.884649 217.874097 
L 122.00023 217.901929 
L 122.154338 218.397982 
L 123.001933 222.497016 
L 123.04046 222.444975 
L 123.271623 221.064666 
L 123.425731 219.322102 
L 123.69542 216.88489 
L 124.08069 215.295693 
L 124.119217 215.344255 
L 124.388907 216.023247 
L 124.427434 215.899452 
L 124.658596 215.308015 
L 124.774177 215.319612 
L 124.889758 215.308305 
L 125.082394 215.253075 
L 125.429137 214.114124 
L 125.467664 214.14819 
L 125.621772 214.760066 
L 126.199678 218.526272 
L 126.276732 218.411463 
L 126.507894 217.129872 
L 126.739056 216.209376 
L 126.931692 216.2504 
L 127.047273 216.263881 
L 127.817814 217.53518 
L 128.549827 220.523965 
L 128.626881 220.541071 
L 128.665409 220.494973 
L 128.78099 220.490045 
L 128.935098 220.903471 
L 129.204787 221.563619 
L 129.243314 221.626821 
L 129.281841 221.572461 
L 129.55153 220.937246 
L 129.590058 220.956381 
L 129.667112 220.99726 
L 129.705639 220.945364 
L 129.859747 220.362045 
L 130.322071 218.391604 
L 130.437652 218.620351 
L 130.707342 219.933543 
L 131.285247 222.929287 
L 131.51641 222.732431 
L 131.824626 222.101565 
L 132.209896 220.52411 
L 132.364005 220.249121 
L 132.402532 220.284636 
L 132.441059 220.194036 
L 132.980437 217.8251 
L 133.365708 215.673169 
L 133.442762 215.751447 
L 133.905086 217.240766 
L 133.98214 217.031444 
L 134.25183 216.290409 
L 134.290357 216.315777 
L 134.367411 216.381009 
L 134.560046 214.731509 
L 134.906789 212.093527 
L 135.060898 211.810855 
L 135.176479 212.033223 
L 135.446168 212.939658 
L 135.754384 215.309754 
L 136.679033 222.912616 
L 137.025777 224.006919 
L 137.102831 223.977782 
L 137.37252 223.244285 
L 137.488101 223.409684 
L 137.796318 224.473546 
L 138.066007 224.982935 
L 138.220115 225.080783 
L 138.451277 225.025553 
L 138.798021 225.154713 
L 139.106237 224.885812 
L 139.530035 223.098745 
L 139.568562 223.124403 
L 139.761197 223.167891 
L 139.838251 222.714311 
L 140.10794 220.429162 
L 140.339102 220.101842 
L 140.454684 219.894404 
L 140.685846 218.765021 
L 141.032589 216.167048 
L 141.14817 216.048325 
L 141.263751 216.361874 
L 141.533441 218.063414 
L 141.957238 220.558176 
L 142.072819 220.521936 
L 142.226928 221.017554 
L 142.804833 223.906897 
L 142.84336 223.748891 
L 142.997468 222.358289 
L 143.421266 218.637311 
L 143.536847 218.529026 
L 143.768009 218.664853 
L 143.88359 218.677175 
L 144.500023 219.687691 
L 144.769712 221.156136 
L 144.846766 221.524914 
L 144.885293 221.493023 
L 145.116456 219.972683 
L 145.347618 219.189464 
L 145.540253 218.723852 
L 145.57878 218.76705 
L 145.732888 219.336888 
L 146.156686 222.204632 
L 146.657537 225.051211 
L 146.773119 225.229802 
L 146.811646 225.159206 
L 147.004281 224.201746 
L 147.235443 223.556384 
L 147.312497 223.465204 
L 147.428078 222.93523 
L 147.697768 221.401408 
L 147.813349 221.448375 
L 148.005984 221.972551 
L 148.083038 221.808166 
L 148.429781 220.403939 
L 148.506835 220.465402 
L 148.699471 221.140625 
L 149.35443 224.996561 
L 149.778228 226.729123 
L 150.124971 226.709988 
L 150.433188 227.251414 
L 150.548769 227.344768 
L 150.625823 226.995125 
L 151.280783 222.898845 
L 151.396364 222.933346 
L 151.473418 223.103529 
L 151.511945 223.076421 
L 151.70458 222.291463 
L 151.897215 221.535496 
L 152.012796 221.716551 
L 152.321013 222.759539 
L 152.35954 222.668649 
L 152.937445 220.134458 
L 153.053026 220.335228 
L 153.361243 220.872884 
L 153.476824 220.745319 
L 153.707986 220.227377 
L 153.823567 220.152868 
L 154.131784 220.014141 
L 154.247365 220.276229 
L 154.786743 221.945008 
L 155.056433 222.521949 
L 155.09496 222.466719 
L 155.210541 221.782218 
L 155.441703 220.620944 
L 155.595811 220.547594 
L 155.788446 219.910785 
L 156.173717 218.958397 
L 156.289298 218.929405 
L 156.52046 219.426328 
L 156.558987 219.3495 
L 156.905731 217.961942 
L 157.059839 217.563012 
L 157.522163 212.591174 
L 157.599217 212.721638 
L 157.791853 213.784775 
L 158.21565 216.03093 
L 158.408285 215.711293 
L 158.446812 215.772177 
L 158.947664 217.461975 
L 159.641151 220.05415 
L 159.795259 220.449166 
L 159.833786 220.381325 
L 160.103475 219.804964 
L 160.219056 220.026608 
L 160.527273 221.006247 
L 160.5658 220.993346 
L 160.681381 220.01878 
L 160.912543 218.024275 
L 160.989597 217.943677 
L 161.028124 217.982237 
L 161.182232 218.509456 
L 161.297814 219.035081 
L 161.336341 218.989129 
L 161.567503 218.526996 
L 161.760138 218.906502 
L 161.9913 219.731179 
L 162.068354 219.621589 
L 162.145409 219.495184 
L 162.492152 218.387545 
L 162.530679 218.432483 
L 162.64626 218.667753 
L 162.684787 218.583966 
L 162.877422 218.190544 
L 162.915949 218.218087 
L 162.954476 218.142273 
L 163.185639 217.493142 
L 163.224166 217.514596 
L 163.455328 218.122703 
L 163.725017 219.073061 
L 163.802071 218.923607 
L 164.302923 217.275557 
L 164.34145 217.329047 
L 164.880829 218.688192 
L 164.919356 218.638181 
L 165.150518 218.362032 
L 165.189045 218.363916 
L 165.612842 216.862711 
L 165.651369 216.903879 
L 165.805478 217.427475 
L 165.998113 218.491771 
L 166.075167 218.3342 
L 166.42191 217.31716 
L 166.6916 217.35572 
L 166.884235 217.053333 
L 166.999816 217.314696 
L 167.308032 218.845908 
L 167.46214 218.709791 
L 167.577722 218.909691 
L 167.808884 220.05502 
L 168.309735 222.980023 
L 168.348262 222.949146 
L 168.540898 222.798098 
L 168.695006 223.103094 
L 168.926168 223.465784 
L 169.080276 223.686123 
L 169.15733 223.811658 
L 169.195857 223.711636 
L 169.349965 223.479845 
L 169.504074 223.725407 
L 169.850817 224.246538 
L 170.081979 223.867178 
L 170.159033 223.947486 
L 170.390196 224.600965 
L 170.698412 225.477828 
L 170.85252 224.958147 
L 171.546007 222.152011 
L 171.661588 222.19202 
L 171.815696 222.544998 
L 171.854223 222.455847 
L 172.085386 221.677412 
L 172.239494 221.690024 
L 172.509183 221.401988 
L 172.663291 221.755111 
L 172.740345 221.931817 
L 172.778872 221.836143 
L 172.855926 221.734961 
L 172.894453 221.75917 
L 173.087089 222.194195 
L 173.164143 222.099536 
L 173.279724 222.026186 
L 173.318251 222.057352 
L 173.472359 222.435263 
L 174.011738 224.047363 
L 174.165846 224.115639 
L 174.358481 224.518338 
L 174.551116 225.05643 
L 174.589643 225.009753 
L 174.743751 224.615896 
L 174.936387 223.445779 
L 175.437238 220.167799 
L 176.092198 216.509298 
L 176.246306 216.010346 
L 176.400414 215.572277 
L 176.438941 215.593151 
L 176.554522 215.953812 
L 177.286536 219.22092 
L 177.479171 218.333185 
L 177.902969 215.911048 
L 178.01855 215.893218 
L 178.172658 216.318821 
L 178.442348 218.02384 
L 178.634983 218.782561 
L 178.789091 218.996812 
L 178.827618 219.053346 
L 178.866145 219.022615 
L 178.981726 218.559468 
L 179.251415 217.310492 
L 179.32847 217.364272 
L 179.482578 217.904973 
L 179.944902 219.78148 
L 179.983429 219.856715 
L 180.021956 219.790323 
L 180.137537 219.556068 
L 180.176064 219.578536 
L 180.330173 220.076184 
L 180.522808 220.49019 
L 180.638389 220.764164 
L 180.946605 222.415983 
L 181.100713 222.912471 
L 181.370403 222.639077 
L 181.909781 221.861801 
L 181.948308 221.914422 
L 182.140944 222.495711 
L 182.217998 222.624871 
L 182.256525 222.558334 
L 182.487687 221.850784 
L 182.795903 221.10395 
L 182.83443 221.14309 
L 183.296755 221.986612 
L 183.335282 221.931817 
L 183.759079 221.254419 
L 183.874661 221.507374 
L 184.837837 224.63851 
L 184.876364 224.556318 
L 185.068999 224.258135 
L 185.223107 224.516599 
L 185.338688 224.672866 
L 185.377215 224.638365 
L 185.646904 224.372653 
L 185.762486 224.344096 
L 185.955121 224.298869 
L 186.147756 224.678664 
L 186.687135 226.601268 
L 186.764189 226.832625 
L 186.802716 226.748113 
L 187.611784 222.734316 
L 187.727365 222.741129 
L 187.92 223.275016 
L 188.074108 223.811223 
L 188.112635 223.735409 
L 188.652014 221.308054 
L 188.767595 221.441997 
L 189.037284 221.763663 
L 189.114338 221.663496 
L 189.461082 221.046111 
L 189.692244 221.036399 
L 189.884879 220.715168 
L 189.961933 220.711979 
L 190.193096 220.393646 
L 190.231623 220.431046 
L 190.385731 220.872304 
L 190.65542 221.912972 
L 190.963636 219.195407 
L 191.04069 219.264553 
L 191.233326 220.098073 
L 191.464488 220.744595 
L 191.657123 221.202523 
L 191.772704 221.544194 
L 191.811231 221.470844 
L 191.965339 220.481927 
L 192.312083 217.09943 
L 192.73588 214.715273 
L 192.851461 214.589158 
L 193.044097 215.021139 
L 193.275259 216.163569 
L 194.238435 222.442801 
L 194.276962 222.385107 
L 194.469597 222.0488 
L 194.585178 222.239132 
L 194.700759 222.492377 
L 194.739287 222.453093 
L 194.854868 222.421637 
L 194.970449 222.508758 
L 195.008976 222.442656 
L 195.702463 218.687467 
L 195.779517 218.724577 
L 195.895098 218.753569 
L 196.049206 219.213092 
L 196.318895 220.572092 
L 196.395949 220.379295 
L 196.473003 220.303481 
L 196.51153 220.338127 
L 196.704166 220.88912 
L 196.742693 220.766628 
L 196.935328 220.298698 
L 197.050909 220.529909 
L 197.859977 223.738888 
L 198.052612 224.488476 
L 198.091139 224.447888 
L 198.437883 223.496225 
L 198.669045 223.346772 
L 199.169896 219.502142 
L 199.208423 219.524321 
L 199.362532 219.608543 
L 199.51664 219.279919 
L 199.555167 219.295574 
L 199.593694 219.334424 
L 199.632221 219.258175 
L 199.863383 218.919983 
L 199.940437 218.871566 
L 200.248654 217.367316 
L 200.325708 217.488938 
L 200.441289 217.733051 
L 200.479816 217.640711 
L 200.865086 216.343609 
L 200.980667 216.371441 
L 201.365938 217.349052 
L 201.751208 220.115323 
L 202.097952 222.045321 
L 202.367641 222.866809 
L 202.560276 223.309662 
L 202.752911 223.556529 
L 203.215236 223.128027 
L 203.908723 219.738717 
L 204.139885 219.117708 
L 204.33252 217.923818 
L 204.679264 216.033105 
L 204.756318 216.111093 
L 205.180115 217.551996 
L 205.411277 218.018767 
L 205.565386 218.216637 
L 205.603913 218.311296 
L 205.64244 218.291147 
L 205.835075 217.730586 
L 206.104764 216.152117 
L 206.258872 216.287654 
L 206.490035 216.53742 
L 206.759724 217.168286 
L 206.798251 217.153066 
L 207.183521 216.686004 
L 207.453211 216.655563 
L 207.607319 216.590041 
L 207.761427 216.711952 
L 207.838481 216.923014 
L 207.877008 216.872568 
L 208.069643 216.30331 
L 208.185224 216.54003 
L 208.416387 217.040722 
L 208.609022 217.983686 
L 209.225455 221.50433 
L 209.302509 221.463451 
L 210.265685 218.101974 
L 210.381266 218.242875 
L 210.689482 218.943032 
L 210.728009 218.920563 
L 210.84359 218.509746 
L 211.190334 216.854738 
L 211.344442 216.695717 
L 211.460023 216.601638 
L 211.49855 216.631934 
L 211.652658 217.091023 
L 212.384672 220.203604 
L 212.53878 220.460183 
L 212.80847 221.569707 
L 213.270794 223.517969 
L 213.57901 224.471806 
L 213.8487 225.467681 
L 213.887227 225.390997 
L 214.503659 222.815058 
L 214.696295 222.589645 
L 214.811876 222.743448 
L 215.081565 223.709172 
L 215.852106 226.689404 
L 215.890633 226.681141 
L 216.198849 224.370769 
L 216.468539 223.114401 
L 216.58412 223.117155 
L 216.622647 223.144697 
L 216.661174 223.058736 
L 217.316133 217.693476 
L 217.431715 217.62607 
L 217.547296 217.875836 
L 217.778458 219.109591 
L 218.587526 223.880659 
L 218.780161 224.905671 
L 218.818688 224.842904 
L 219.088377 224.479054 
L 219.242486 224.631117 
L 219.396594 224.984964 
L 219.435121 224.931184 
L 219.589229 224.208994 
L 219.858918 223.49753 
L 220.013026 222.80955 
L 220.244189 220.410317 
L 220.74504 214.968808 
L 221.130311 213.047653 
L 221.515581 211.241162 
L 221.592635 211.325094 
L 221.708216 211.175785 
L 221.823797 211.113887 
L 222.05496 211.695756 
L 222.555811 213.186815 
L 222.632865 213.089547 
L 222.864028 212.477236 
L 223.48046 208.483298 
L 223.75015 207.27897 
L 224.019839 205.872568 
L 224.212474 205.514372 
L 224.52069 203.091801 
L 224.559217 203.140362 
L 224.713326 203.87502 
L 224.983015 205.271564 
L 225.021542 205.264171 
L 225.329758 204.796385 
L 225.676502 204.447612 
L 225.715029 204.499652 
L 225.869137 205.093843 
L 225.946191 205.373326 
L 225.984718 205.295048 
L 226.177353 204.912353 
L 226.292934 204.899162 
L 226.562624 204.393396 
L 226.601151 204.419924 
L 226.832313 204.653165 
L 226.87084 204.553142 
L 226.947894 204.447467 
L 226.986421 204.484141 
L 227.487273 205.603088 
L 227.5258 205.48683 
L 227.91107 203.753543 
L 228.180759 203.009173 
L 228.296341 203.234441 
L 228.373395 203.438835 
L 228.411922 203.415206 
L 228.912773 201.348077 
L 229.760368 194.505965 
L 230.030058 193.861763 
L 230.492382 192.285033 
L 231.648193 187.048353 
L 232.418734 180.377148 
L 232.649896 178.708079 
L 233.227802 167.291464 
L 233.38191 161.085147 
L 233.458964 153.271078 
L 233.497491 139.941571 
L 233.536018 52.113931 
L 233.574545 105.025926 
L 233.728654 186.31674 
L 233.882762 192.982 
L 234.229505 195.579684 
L 234.730357 198.690815 
L 234.807411 198.561221 
L 234.922992 197.721612 
L 235.231208 192.961271 
L 235.616479 185.790825 
L 237.119033 174.924913 
L 237.465777 166.613921 
L 237.619885 157.792091 
L 237.658412 151.143065 
L 237.735466 59.134199 
L 237.773993 131.280356 
L 237.966628 191.46282 
L 238.043682 192.569879 
L 238.082209 192.444489 
L 238.236318 190.630169 
L 238.891277 178.753596 
L 239.160967 177.212382 
L 239.584764 176.446848 
L 239.738872 174.321734 
L 239.970035 167.795925 
L 240.124143 156.250296 
L 240.16267 143.980157 
L 240.201197 42.325942 
L 240.239724 87.557376 
L 240.393832 188.12787 
L 240.54794 194.019044 
L 240.663521 193.561116 
L 240.817629 191.628944 
L 241.58817 181.354904 
L 242.089022 172.99854 
L 242.474292 162.084356 
L 242.551346 155.553618 
L 242.589873 146.788032 
L 242.6284 74.20511 
L 242.666928 79.726927 
L 242.821036 183.931858 
L 242.936617 189.850864 
L 242.975144 189.841877 
L 243.129252 188.350963 
L 243.437468 181.750355 
L 243.93832 165.38698 
L 244.053901 154.686612 
L 244.092428 138.632292 
L 244.130955 44.611236 
L 244.169482 102.975756 
L 244.32359 190.042791 
L 244.477699 195.190031 
L 244.59328 195.344993 
L 244.708861 194.492339 
L 245.749091 182.865967 
L 246.519632 165.857955 
L 246.635213 156.800419 
L 246.67374 147.376425 
L 246.712267 58.138614 
L 246.750794 79.73345 
L 246.904902 188.593771 
L 247.05901 194.480452 
L 247.251646 194.226337 
L 247.405754 193.830596 
L 247.791024 192.393318 
L 247.906605 192.357368 
L 248.022186 191.780282 
L 248.291876 189.051265 
L 249.370633 168.952126 
L 249.524741 161.418555 
L 249.601795 149.195963 
L 249.678849 72.368467 
L 249.832957 188.614935 
L 249.987066 195.300636 
L 250.06412 195.362968 
L 250.102647 195.328468 
L 250.179701 195.202353 
L 250.410863 194.568877 
L 250.487917 194.511328 
L 250.680552 193.125946 
L 250.911715 189.745333 
L 251.219931 184.418343 
L 251.412566 183.582649 
L 251.643728 183.408117 
L 251.797837 183.678757 
L 251.874891 183.552207 
L 252.14458 181.940252 
L 252.491323 179.548412 
L 252.606904 179.355325 
L 252.79954 177.080613 
L 253.069229 171.168709 
L 253.223337 162.038259 
L 253.300391 139.867497 
L 253.338918 39.638094 
L 253.377445 97.49047 
L 253.531554 193.083617 
L 253.647135 196.784591 
L 253.685662 196.48148 
L 254.070932 191.129991 
L 254.995581 171.71144 
L 255.226743 161.895183 
L 255.303797 151.595775 
L 255.380852 59.329025 
L 255.419379 133.990528 
L 255.612014 193.742026 
L 255.689068 194.510893 
L 255.727595 194.460737 
L 255.881703 193.763625 
L 257.268677 180.719109 
L 257.538366 176.462939 
L 257.846582 165.632107 
L 257.962163 153.824825 
L 258.039217 49.34505 
L 258.077745 118.577366 
L 258.231853 192.942426 
L 258.385961 196.185471 
L 258.540069 196.004706 
L 258.694177 195.629115 
L 259.387664 192.545961 
L 259.69588 191.539938 
L 259.849988 191.62474 
L 259.888516 191.510076 
L 260.312313 189.640527 
L 260.427894 189.710543 
L 260.504948 189.814189 
L 260.543475 189.786647 
L 260.774638 189.182454 
L 261.159908 187.590793 
L 261.314016 187.076185 
L 262.084557 182.498928 
L 262.469827 182.197121 
L 262.662463 182.272935 
L 262.778044 182.29294 
L 262.970679 182.56271 
L 263.009206 182.521397 
L 263.201841 182.115074 
L 263.240368 182.138268 
L 263.355949 182.438915 
L 263.587112 183.860682 
L 263.856801 184.993255 
L 264.165017 186.374144 
L 264.704396 190.919509 
L 265.513464 196.921868 
L 265.744626 197.324857 
L 266.091369 198.047483 
L 266.206951 198.319283 
L 267.324235 201.37359 
L 267.632451 202.710846 
L 267.670978 202.787385 
L 267.709505 202.761582 
L 267.825086 202.612998 
L 267.863613 202.665328 
L 268.017722 203.430427 
L 268.402992 205.637008 
L 268.865316 207.679495 
L 269.327641 213.00721 
L 269.828493 217.6813 
L 269.982601 218.186485 
L 270.021128 218.165176 
L 270.136709 218.180832 
L 270.290817 218.674276 
L 270.676087 221.114098 
L 271.022831 223.17282 
L 271.061358 223.163832 
L 271.369574 222.69822 
L 271.600736 220.967833 
L 271.831899 218.990579 
L 271.908953 218.920128 
L 271.94748 218.958252 
L 272.101588 219.448072 
L 272.640967 221.506214 
L 272.872129 220.847226 
L 273.180345 217.198293 
L 273.411507 215.654179 
L 273.488562 215.747678 
L 273.681197 216.696442 
L 274.336157 220.621958 
L 274.605846 221.652769 
L 275.33786 224.726356 
L 275.72313 225.106006 
L 275.877238 225.178486 
L 275.954292 225.220524 
L 275.992819 225.162685 
L 276.223982 224.438755 
L 276.878941 219.7651 
L 277.033049 219.486922 
L 277.071577 219.507941 
L 277.264212 219.933833 
L 277.302739 219.877589 
L 277.456847 218.653402 
L 277.649482 217.677531 
L 277.842117 217.622011 
L 277.919171 217.643175 
L 277.996226 217.360938 
L 278.304442 215.34237 
L 278.381496 215.418329 
L 278.535604 216.063111 
L 278.920875 219.02247 
L 279.229091 220.847081 
L 279.537307 221.06945 
L 279.691415 220.992621 
L 279.961105 220.013996 
L 280.076686 220.214621 
L 280.461956 220.918402 
L 280.8087 219.777421 
L 280.924281 219.966014 
L 281.19397 220.992041 
L 281.309551 220.810116 
L 281.425132 220.708355 
L 281.463659 220.737057 
L 281.617768 221.129753 
L 282.272727 223.340973 
L 282.311254 223.392869 
L 282.349781 223.335465 
L 282.580944 222.196949 
L 283.312957 215.834364 
L 283.390012 215.745069 
L 283.428539 215.782904 
L 283.582647 216.347233 
L 284.276133 219.788004 
L 284.507296 219.515914 
L 284.545823 219.561576 
L 284.738458 220.190847 
L 284.931093 220.845777 
L 284.96962 220.822148 
L 285.123728 220.831281 
L 285.277837 221.207597 
L 285.62458 222.848254 
L 285.778688 223.520144 
L 285.817215 223.505503 
L 286.27954 222.403517 
L 286.356594 222.490928 
L 286.66481 222.870578 
L 286.741864 222.976979 
L 286.780391 222.926388 
L 286.973026 221.974145 
L 287.281243 220.477868 
L 287.473878 220.016895 
L 287.550932 220.088651 
L 287.589459 220.007473 
L 287.70504 219.809748 
L 287.743567 219.83584 
L 287.782094 219.861933 
L 287.897675 219.182071 
L 288.783797 211.511657 
L 288.822325 211.517601 
L 288.976433 211.748232 
L 289.01496 211.71779 
L 289.169068 211.625161 
L 289.284649 211.888408 
L 289.669919 213.683593 
L 290.016663 215.510524 
L 290.209298 215.872054 
L 290.401933 215.814505 
L 290.902785 214.684832 
L 291.018366 214.803554 
L 291.172474 215.119277 
L 291.403636 216.35941 
L 292.058596 220.27304 
L 292.251231 220.292609 
L 292.559448 221.081192 
L 292.636502 220.961165 
L 292.79061 220.930868 
L 293.060299 220.939421 
L 293.329988 221.782653 
L 293.792313 223.217177 
L 293.869367 223.003216 
L 294.447273 220.794606 
L 294.524327 220.852735 
L 294.639908 220.106771 
L 294.87107 219.075235 
L 294.986651 219.286007 
L 295.294868 220.800839 
L 296.18099 224.995402 
L 296.296571 224.83667 
L 296.412152 224.901612 
L 296.874476 225.508125 
L 297.067112 225.726725 
L 297.144166 225.783114 
L 297.529436 223.161368 
L 297.722071 222.461211 
L 297.837652 222.576744 
L 298.068815 223.378228 
L 298.338504 224.355838 
L 298.377031 224.31293 
L 298.723774 223.443605 
L 298.954937 222.526588 
L 299.070518 222.671693 
L 299.340207 223.702938 
L 299.879586 226.130293 
L 299.918113 226.069265 
L 300.534545 222.68271 
L 300.727181 222.421492 
L 301.112451 222.634438 
L 301.266559 222.647774 
L 301.459194 223.169775 
L 301.767411 224.007499 
L 301.882992 223.822965 
L 302.114154 223.639301 
L 302.460898 223.299225 
L 302.499425 223.346772 
L 302.846168 223.766431 
L 303.115857 224.596037 
L 303.192911 224.481228 
L 303.385547 223.867903 
L 303.847871 222.111857 
L 303.963452 222.140559 
L 304.156087 222.677491 
L 304.348723 223.393449 
L 304.38725 223.334305 
L 304.579885 223.020322 
L 304.618412 223.036267 
L 304.695466 223.130201 
L 304.733993 223.064824 
L 305.003682 221.542889 
L 305.42748 218.249543 
L 305.504534 218.335069 
L 305.889804 219.121188 
L 306.043913 219.608398 
L 306.390656 220.946669 
L 306.621818 220.969283 
L 306.814453 221.551442 
L 307.315305 224.219576 
L 307.623521 225.573647 
L 307.662048 225.555962 
L 307.854684 225.124851 
L 308.085846 224.652716 
L 308.201427 224.612707 
L 308.54817 223.91313 
L 308.933441 222.693292 
L 309.434292 217.601282 
L 309.472819 217.613024 
L 309.626928 217.647234 
L 309.703982 217.601427 
L 309.896617 216.294178 
L 310.089252 215.677228 
L 310.204833 215.92366 
L 310.975374 218.809958 
L 311.013901 218.776473 
L 311.206536 218.074866 
L 311.245063 218.085883 
L 311.360644 218.394213 
L 311.707388 219.936877 
L 311.745915 219.834101 
L 312.054131 218.91317 
L 312.246766 218.904327 
L 312.400875 219.000001 
L 312.516456 219.124667 
L 312.97878 220.163015 
L 313.094361 220.345375 
L 313.286997 220.911444 
L 313.364051 220.883756 
L 313.710794 220.86984 
L 313.941956 221.543614 
L 314.01901 221.352557 
L 314.2887 220.556147 
L 314.365754 220.564264 
L 314.481335 219.909915 
L 314.712497 218.912155 
L 314.789551 218.98449 
L 315.097768 219.448797 
L 315.213349 219.578826 
L 315.560092 220.559191 
L 315.675673 220.426262 
L 315.868308 220.311599 
L 316.022417 220.647326 
L 316.176525 220.806637 
L 316.292106 220.725895 
L 316.407687 220.679797 
L 316.446214 220.720531 
L 316.600322 221.146424 
L 316.831484 221.962404 
L 316.870012 221.934571 
L 317.062647 221.746703 
L 317.216755 222.050974 
L 317.370863 222.215794 
L 317.40939 222.19289 
L 317.679079 221.094818 
L 317.717606 221.108734 
L 317.871715 221.476643 
L 318.102877 222.273343 
L 318.141404 222.252034 
L 318.44962 221.818893 
L 318.488147 221.848465 
L 318.680783 222.292767 
L 318.911945 223.184416 
L 318.950472 223.142523 
L 319.643959 219.162646 
L 319.721013 219.248897 
L 320.453026 221.209336 
L 320.530081 221.145119 
L 320.684189 220.736187 
L 320.79977 219.298619 
L 321.030932 216.830675 
L 321.107986 216.694702 
L 321.146513 216.712242 
L 321.339148 216.981288 
L 321.493257 217.413559 
L 321.531784 217.378913 
L 321.801473 217.160748 
L 322.109689 217.543733 
L 322.22527 217.58867 
L 322.302325 217.430374 
L 322.610541 216.317516 
L 322.726122 216.205027 
L 322.918757 215.344545 
L 323.072865 214.832691 
L 323.111392 214.851101 
L 323.226974 215.190162 
L 323.496663 216.996944 
L 323.958987 219.862078 
L 324.768055 221.506069 
L 325.384488 223.218192 
L 325.654177 223.179923 
L 325.769758 222.695176 
L 326.077975 221.292108 
L 326.347664 220.313484 
L 326.771461 218.389864 
L 326.92557 218.450892 
L 327.118205 218.022246 
L 327.580529 215.606197 
L 327.657583 215.59692 
L 327.69611 215.648381 
L 327.850219 215.890754 
L 327.927273 215.810736 
L 328.119908 215.571407 
L 328.158435 215.614605 
L 328.196962 215.608952 
L 328.428124 215.111884 
L 328.543705 215.302941 
L 328.582232 215.210022 
L 329.044557 213.624304 
L 329.237192 213.361202 
L 329.776571 210.908769 
L 329.815098 210.924279 
L 329.930679 211.184772 
L 330.161841 212.586101 
L 330.70122 216.220683 
L 331.433234 220.160261 
L 331.664396 221.242242 
L 331.702923 221.21412 
L 332.203774 219.255855 
L 332.319356 219.43865 
L 332.550518 220.440613 
L 333.051369 222.64444 
L 333.321059 223.576243 
L 333.475167 224.065628 
L 333.513694 224.026489 
L 333.860437 223.032353 
L 334.0916 222.425841 
L 334.168654 222.366117 
L 334.630978 220.577456 
L 334.669505 220.594416 
L 334.939194 219.536063 
L 335.13183 219.203235 
L 335.247411 219.464308 
L 335.709735 221.681036 
L 336.287641 224.207689 
L 336.326168 224.190004 
L 336.518803 224.170724 
L 336.634384 224.192758 
L 336.904074 223.635822 
L 337.173763 222.728082 
L 337.289344 222.853328 
L 337.520506 223.567401 
L 337.59756 223.368805 
L 337.905777 222.870868 
L 337.944304 222.920589 
L 338.136939 223.502893 
L 338.753372 226.084921 
L 338.830426 226.033315 
L 338.946007 225.40013 
L 339.523913 220.819104 
L 339.639494 220.72459 
L 339.678021 220.750973 
L 339.832129 221.115982 
L 340.679724 223.881529 
L 341.219102 224.495869 
L 341.296157 224.601835 
L 341.334684 224.547185 
L 341.411738 224.16826 
L 341.835535 220.502946 
L 341.989643 220.315223 
L 342.105224 220.304931 
L 342.259333 220.732708 
L 342.567549 221.483456 
L 342.68313 221.198899 
L 342.798711 221.010451 
L 342.837238 221.025962 
L 343.222509 221.694228 
L 343.376617 222.241307 
L 343.415144 222.124904 
L 343.607779 220.310729 
L 343.877468 218.942452 
L 343.993049 218.867652 
L 344.031577 218.895775 
L 344.224212 219.232952 
L 344.493901 220.483232 
L 344.76359 221.562749 
L 344.840644 221.603628 
L 344.956226 220.981314 
L 345.264442 219.435896 
L 345.457077 219.273251 
L 345.495604 219.31181 
L 345.649712 219.795831 
L 346.034983 222.225071 
L 346.381726 223.93154 
L 346.535834 224.352359 
L 346.574361 224.33163 
L 346.689942 224.009674 
L 346.959632 223.396638 
L 347.075213 223.502748 
L 347.306375 224.147676 
L 347.7687 225.799205 
L 347.807227 225.7073 
L 347.961335 224.709106 
L 348.385132 220.502366 
L 348.539241 220.233756 
L 348.654822 220.468446 
L 348.924511 221.788886 
L 349.155673 222.675897 
L 349.425362 222.480201 
L 349.540944 222.403952 
L 349.579471 222.440627 
L 349.84916 222.734026 
L 349.964741 222.602692 
L 350.88939 220.627467 
L 350.966444 220.699367 
L 351.159079 220.88854 
L 351.313188 221.301531 
L 351.390242 221.245286 
L 351.467296 221.289354 
L 352.314891 223.276756 
L 352.700161 224.375843 
L 352.892796 224.796227 
L 353.316594 226.285256 
L 353.355121 226.179725 
L 354.048608 221.997484 
L 354.27977 221.394595 
L 354.973257 218.067473 
L 355.050311 218.187645 
L 355.281473 219.085962 
L 355.358527 218.961442 
L 355.589689 218.509456 
L 355.628216 218.524822 
L 355.743797 218.813003 
L 356.013487 220.383209 
L 356.398757 222.362348 
L 356.514338 222.401197 
L 356.706974 221.970666 
L 356.899609 221.46809 
L 357.01519 221.658277 
L 357.708677 223.64249 
L 358.05542 223.137594 
L 358.209528 223.123388 
L 358.363636 223.387215 
L 358.517745 223.7328 
L 358.556272 223.68018 
L 358.941542 222.629944 
L 359.057123 222.590515 
L 359.211231 222.876376 
L 359.442394 223.285019 
L 359.712083 223.041196 
L 359.75061 223.078596 
L 359.943245 223.545947 
L 360.328516 224.724036 
L 360.367043 224.636046 
L 360.906421 221.968057 
L 361.022002 221.524624 
L 361.214638 220.946379 
L 361.407273 220.554697 
L 361.4458 220.608332 
L 361.676962 220.895643 
L 361.792543 220.666461 
L 362.023705 219.827578 
L 362.216341 220.106046 
L 362.447503 220.9803 
L 363.025409 224.203775 
L 363.063936 224.109116 
L 363.218044 221.638273 
L 363.487733 218.446399 
L 363.641841 217.945272 
L 363.680368 217.967016 
L 363.91153 218.305353 
L 364.027112 217.565477 
L 364.258274 216.209231 
L 364.335328 216.273303 
L 364.489436 216.910692 
L 364.720598 218.201996 
L 364.759125 218.186485 
L 365.028815 216.453344 
L 365.105869 216.528868 
L 365.182923 216.328098 
L 365.452612 215.382669 
L 365.60672 215.397455 
L 365.722301 215.575466 
L 366.184626 217.338469 
L 366.454315 218.490756 
L 366.531369 218.318399 
L 366.762532 217.376449 
L 366.955167 217.250769 
L 367.070748 217.446755 
L 367.30191 218.596142 
L 368.265086 224.486592 
L 368.573303 225.310255 
L 368.727411 225.730784 
L 368.765938 225.696718 
L 368.958573 225.560746 
L 369.151208 225.840808 
L 369.459425 226.321351 
L 369.960276 224.38657 
L 369.998803 224.397876 
L 370.152911 224.63764 
L 370.461128 225.323011 
L 370.499655 225.267781 
L 370.576709 224.913209 
L 371.34725 216.927508 
L 371.848101 213.552114 
L 371.925155 213.623435 
L 372.271899 214.848926 
L 372.657169 217.955419 
L 373.003913 220.455834 
L 373.080967 220.440179 
L 373.581818 218.998551 
L 373.581818 218.998551 
" style="fill:none;stroke:#000000;stroke-linecap:square;stroke-width:1.5;"/>
   </g>
   <g id="line2d_19">
    <path clip-path="url(#pcb3c15ffb1)" d="M 69.218182 223.705692 
L 69.333763 223.845579 
L 69.603452 224.666197 
L 69.641979 224.431217 
L 69.950196 222.130267 
L 70.02725 222.195354 
L 70.065777 222.290303 
L 70.104304 222.26334 
L 70.335466 221.557385 
L 70.451047 221.494473 
L 70.566628 221.750762 
L 70.836318 223.168181 
L 71.144534 224.573568 
L 71.183061 224.58328 
L 71.799494 222.560798 
L 71.915075 222.581528 
L 72.10771 223.207175 
L 72.415926 224.161157 
L 72.531507 224.073746 
L 72.647089 223.737149 
L 72.878251 221.939935 
L 73.263521 219.458075 
L 73.340575 219.363706 
L 73.379102 219.406034 
L 73.533211 219.985584 
L 73.957008 222.974079 
L 74.226697 224.343372 
L 74.342278 224.487462 
L 74.380806 224.449917 
L 74.611968 224.137818 
L 74.881657 224.198846 
L 74.997238 224.281329 
L 75.2284 224.92727 
L 75.49809 225.540161 
L 75.767779 225.515518 
L 75.960414 225.849651 
L 76.499793 227.170381 
L 76.53832 227.146898 
L 76.730955 226.260757 
L 77.424442 219.828012 
L 77.501496 219.896144 
L 77.694131 220.649501 
L 77.96382 221.823967 
L 78.002348 221.785552 
L 78.272037 220.159101 
L 78.349091 220.19882 
L 78.503199 220.733723 
L 78.965524 223.688007 
L 79.543429 226.855093 
L 79.967227 228.177853 
L 80.082808 228.057682 
L 80.31397 227.824876 
L 80.545132 227.80806 
L 80.699241 227.087899 
L 81.007457 225.325331 
L 81.238619 224.893205 
L 81.469781 223.961547 
L 81.546835 223.900229 
L 81.855052 223.31488 
L 81.970633 223.094831 
L 82.317376 222.201588 
L 82.471484 222.31799 
L 82.510012 222.275227 
L 82.625593 222.290738 
L 82.856755 222.598198 
L 83.087917 222.050539 
L 83.126444 222.105044 
L 83.357606 222.852893 
L 83.434661 222.721559 
L 83.70435 222.398733 
L 84.282255 222.66372 
L 84.474891 223.158758 
L 84.551945 223.026555 
L 84.898688 222.415114 
L 85.052796 222.068949 
L 85.245432 221.607252 
L 85.361013 221.844841 
L 85.669229 222.768091 
L 85.707756 222.740549 
L 85.78481 222.693002 
L 86.093026 220.88883 
L 86.131554 220.916662 
L 86.285662 221.398654 
L 86.555351 222.776934 
L 86.632405 222.608345 
L 86.863567 221.758735 
L 86.979148 221.882386 
L 87.210311 222.814913 
L 87.518527 224.081139 
L 87.86527 223.64249 
L 88.13496 223.097295 
L 88.327595 223.034963 
L 88.866974 223.590739 
L 88.982555 223.240226 
L 89.521933 221.053794 
L 89.714568 220.572527 
L 89.83015 220.760975 
L 89.984258 221.375171 
L 90.061312 221.154541 
L 90.21542 220.828671 
L 90.253947 220.83244 
L 90.408055 220.56354 
L 90.446582 220.612391 
L 90.60069 221.180779 
L 90.754799 221.770911 
L 90.793326 221.614355 
L 91.101542 220.368133 
L 91.448285 220.618914 
L 91.486812 220.523386 
L 91.717975 218.40523 
L 92.180299 215.59634 
L 92.449988 214.78065 
L 92.488516 214.813411 
L 92.681151 215.4882 
L 92.873786 216.291858 
L 94.183705 223.884863 
L 94.260759 223.53464 
L 94.800138 218.78633 
L 94.838665 218.825179 
L 95.146881 219.704362 
L 95.416571 220.941305 
L 96.533855 225.543785 
L 96.610909 225.587708 
L 96.687963 225.285612 
L 96.99618 223.557978 
L 97.111761 223.513186 
L 97.265869 223.792958 
L 97.342923 223.873556 
L 97.38145 223.82514 
L 97.535558 223.265159 
L 97.882301 221.567967 
L 98.229045 218.71356 
L 98.306099 218.745306 
L 98.460207 219.263538 
L 99.038113 221.730468 
L 99.192221 222.020098 
L 99.500437 223.429399 
L 99.808654 224.482823 
L 99.885708 224.607779 
L 99.924235 224.563276 
L 100.694776 222.979443 
L 101.041519 220.548319 
L 101.619425 216.976504 
L 101.696479 216.90069 
L 101.735006 216.940844 
L 101.927641 217.638247 
L 102.19733 218.66065 
L 102.428493 219.574043 
L 102.621128 218.979417 
L 102.659655 219.0029 
L 102.813763 219.49098 
L 103.083452 220.420029 
L 103.276087 220.632975 
L 103.545777 221.04988 
L 103.699885 221.141495 
L 103.931047 221.353572 
L 104.046628 221.495777 
L 104.200736 221.639288 
L 104.316318 221.744094 
L 104.431899 221.933846 
L 104.470426 221.887604 
L 104.701588 221.474613 
L 104.740115 221.50288 
L 104.93275 221.95646 
L 105.009804 221.725829 
L 105.318021 220.209402 
L 105.703291 219.322537 
L 105.818872 219.232807 
L 105.857399 219.263973 
L 105.934453 219.275715 
L 105.97298 219.225124 
L 106.127089 218.502353 
L 106.281197 218.179962 
L 106.396778 218.40668 
L 106.743521 219.797281 
L 106.782048 219.730454 
L 107.013211 217.69971 
L 107.359954 215.250756 
L 107.437008 215.3257 
L 107.783751 216.253444 
L 108.169022 218.749075 
L 108.246076 218.655866 
L 108.400184 218.484378 
L 108.554292 218.491191 
L 108.669873 218.599332 
L 108.862509 219.373418 
L 109.247779 220.981169 
L 109.517468 221.490704 
L 109.787158 221.73873 
L 109.825685 221.607541 
L 110.288009 220.10967 
L 110.519171 219.938762 
L 110.67328 220.274924 
L 110.788861 220.609927 
L 110.827388 220.503961 
L 111.020023 219.886431 
L 111.05855 219.898898 
L 111.212658 220.239119 
L 111.289712 220.076619 
L 111.983199 218.144882 
L 112.060253 218.20707 
L 112.137307 218.20678 
L 112.406997 217.453423 
L 112.522578 217.522424 
L 112.869321 218.514385 
L 113.061956 219.225704 
L 113.100483 219.215991 
L 113.4087 218.909836 
L 113.678389 217.756534 
L 113.948078 216.894457 
L 113.986605 216.931857 
L 114.140713 217.460236 
L 114.371876 218.150825 
L 114.641565 219.053056 
L 114.872727 219.808733 
L 115.026835 219.906146 
L 115.219471 220.525705 
L 115.412106 221.347048 
L 115.450633 221.277178 
L 115.604741 219.891215 
L 116.028539 216.629905 
L 116.182647 216.392895 
L 116.221174 216.425801 
L 116.375282 216.930842 
L 116.722025 218.095016 
L 117.222877 217.247 
L 117.261404 217.268889 
L 117.415512 217.147847 
L 117.454039 217.201192 
L 117.608147 217.542283 
L 117.685201 217.477631 
L 117.800783 217.472847 
L 117.916364 217.589395 
L 118.108999 215.854804 
L 118.340161 214.778766 
L 118.532796 214.83762 
L 118.648377 214.982 
L 118.841013 215.875533 
L 119.380391 218.692831 
L 119.573026 218.952164 
L 119.804189 218.885917 
L 119.958297 219.376172 
L 120.30504 220.485841 
L 120.767365 221.859627 
L 120.844419 221.814834 
L 120.96 221.346758 
L 121.268216 219.91122 
L 121.537906 218.9871 
L 121.884649 217.606211 
L 122.00023 217.629839 
L 122.154338 218.121253 
L 123.001933 222.22942 
L 123.078987 222.017343 
L 123.348677 220.189543 
L 123.733947 216.432035 
L 124.08069 215.004179 
L 124.196272 215.259598 
L 124.388907 215.713323 
L 124.73565 214.957936 
L 124.889758 214.971128 
L 125.082394 214.90691 
L 125.429137 213.751724 
L 125.467664 213.78376 
L 125.621772 214.388533 
L 126.199678 218.15358 
L 126.276732 218.041525 
L 126.469367 216.967807 
L 126.739056 215.842917 
L 126.777583 215.878867 
L 127.239908 216.174586 
L 127.548124 216.606856 
L 127.663705 216.671508 
L 127.817814 217.161473 
L 128.549827 220.179396 
L 128.626881 220.201429 
L 128.665409 220.157652 
L 128.78099 220.158811 
L 128.935098 220.580065 
L 129.204787 221.255144 
L 129.243314 221.320376 
L 129.281841 221.268335 
L 129.55153 220.642833 
L 129.590058 220.662982 
L 129.667112 220.7056 
L 129.705639 220.654574 
L 129.859747 220.073575 
L 130.322071 218.090957 
L 130.437652 218.31579 
L 130.707342 219.624489 
L 131.285247 222.640236 
L 131.51641 222.454978 
L 131.824626 221.833534 
L 132.209896 220.251731 
L 132.364005 219.973262 
L 132.402532 220.007908 
L 132.441059 219.916583 
L 132.980437 217.530107 
L 133.365708 215.351938 
L 133.442762 215.424563 
L 133.905086 216.891123 
L 133.98214 216.680061 
L 134.25183 215.928878 
L 134.290357 215.952507 
L 134.367411 216.01455 
L 134.560046 214.357222 
L 134.906789 211.692567 
L 135.060898 211.396124 
L 135.176479 211.608346 
L 135.446168 212.493761 
L 135.754384 214.847912 
L 136.679033 222.521224 
L 137.064304 223.66148 
L 137.102831 223.650173 
L 137.37252 222.944942 
L 137.526628 223.218917 
L 138.181588 224.847252 
L 138.489804 224.817101 
L 138.759494 224.955683 
L 138.952129 224.918138 
L 139.029183 224.859284 
L 139.144764 224.467747 
L 139.491507 222.869853 
L 139.799724 222.782877 
L 140.262048 219.87208 
L 140.416157 219.727845 
L 140.647319 218.846343 
L 141.071116 215.76029 
L 141.14817 215.730718 
L 141.186697 215.791021 
L 141.340806 216.411305 
L 141.957238 220.214186 
L 142.072819 220.181715 
L 142.226928 220.682407 
L 142.804833 223.608424 
L 142.84336 223.453317 
L 142.997468 222.070979 
L 143.421266 218.337969 
L 143.536847 218.22316 
L 143.768009 218.348551 
L 143.88359 218.355944 
L 144.500023 219.352399 
L 144.769712 220.822873 
L 144.846766 221.194116 
L 144.885293 221.163529 
L 145.116456 219.644203 
L 145.347618 218.855621 
L 145.540253 218.386385 
L 145.57878 218.428859 
L 145.732888 218.996377 
L 146.156686 221.872383 
L 146.657537 224.758972 
L 146.773119 224.948145 
L 146.811646 224.880883 
L 146.965754 224.164926 
L 147.196916 223.312416 
L 147.312497 223.20587 
L 147.428078 222.677201 
L 147.736295 221.110474 
L 147.851876 221.268335 
L 148.005984 221.70162 
L 148.044511 221.651464 
L 148.237146 220.747059 
L 148.429781 220.121701 
L 148.545362 220.263327 
L 148.776525 221.251085 
L 149.778228 226.486315 
L 149.816755 226.474863 
L 150.047917 226.4134 
L 150.279079 226.723325 
L 150.548769 227.131967 
L 150.625823 226.784498 
L 151.280783 222.671983 
L 151.396364 222.701555 
L 151.473418 222.868983 
L 151.511945 222.840716 
L 151.70458 222.04938 
L 151.897215 221.285005 
L 152.012796 221.461567 
L 152.321013 222.4989 
L 152.35954 222.407866 
L 152.937445 219.854975 
L 152.975972 219.886431 
L 153.39977 220.572962 
L 153.438297 220.540636 
L 153.862094 219.815836 
L 154.208838 219.838884 
L 155.056433 222.215939 
L 155.133487 222.033434 
L 155.48023 220.308265 
L 155.518757 220.322761 
L 155.634338 220.156637 
L 155.865501 219.278034 
L 156.058136 218.647748 
L 156.173717 218.630788 
L 156.289298 218.597737 
L 156.52046 219.088282 
L 156.558987 219.010728 
L 156.905731 217.612879 
L 157.098366 216.79168 
L 157.483636 212.231674 
L 157.56069 212.235443 
L 157.714799 212.856016 
L 158.21565 215.59721 
L 158.408285 215.272065 
L 158.446812 215.331643 
L 158.947664 217.016948 
L 159.679678 219.774522 
L 159.795259 220.048352 
L 159.833786 219.98341 
L 160.103475 219.418356 
L 160.219056 219.643478 
L 160.5658 220.624568 
L 160.681381 219.65493 
L 160.912543 217.657961 
L 160.989597 217.574754 
L 161.028124 217.612154 
L 161.182232 218.13517 
L 161.297814 218.659635 
L 161.336341 218.613538 
L 161.567503 218.146911 
L 161.760138 218.523372 
L 161.9913 219.350224 
L 162.106881 219.212657 
L 162.26099 218.603245 
L 162.492152 218.010214 
L 162.64626 218.288102 
L 162.684787 218.204026 
L 162.877422 217.80669 
L 162.915949 217.833218 
L 162.954476 217.756679 
L 163.185639 217.10146 
L 163.224166 217.121609 
L 163.455328 217.724353 
L 163.725017 218.673551 
L 163.802071 218.524822 
L 164.302923 216.869234 
L 164.34145 216.921999 
L 164.880829 218.279985 
L 164.919356 218.230408 
L 165.304626 217.29962 
L 165.574315 216.450589 
L 165.651369 216.487409 
L 165.805478 217.007526 
L 165.998113 218.071097 
L 166.075167 217.914975 
L 166.42191 216.894167 
L 166.6916 216.927508 
L 166.884235 216.621062 
L 166.999816 216.879961 
L 167.308032 218.411898 
L 167.46214 218.27897 
L 167.577722 218.480174 
L 167.808884 219.631882 
L 168.309735 222.597618 
L 168.348262 222.570801 
L 168.540898 222.436858 
L 168.695006 222.753595 
L 168.926168 223.132956 
L 169.080276 223.362862 
L 169.15733 223.493036 
L 169.195857 223.395333 
L 169.349965 223.170935 
L 169.504074 223.422441 
L 169.850817 223.955314 
L 170.081979 223.582042 
L 170.159033 223.663799 
L 170.390196 224.322352 
L 170.698412 225.210232 
L 170.85252 224.694755 
L 171.546007 221.870354 
L 171.661588 221.906159 
L 171.815696 222.255223 
L 171.854223 222.165492 
L 172.085386 221.382274 
L 172.239494 221.392131 
L 172.509183 221.099457 
L 172.663291 221.45055 
L 172.740345 221.627256 
L 172.778872 221.531727 
L 172.855926 221.430835 
L 172.894453 221.455044 
L 173.087089 221.891083 
L 173.164143 221.797004 
L 173.279724 221.723509 
L 173.318251 221.754676 
L 173.472359 222.133166 
L 174.011738 223.760052 
L 174.165846 223.832532 
L 174.358481 224.24045 
L 174.551116 224.78521 
L 174.589643 224.740127 
L 174.743751 224.351199 
L 174.936387 223.183257 
L 175.437238 219.883387 
L 176.092198 216.167628 
L 176.246306 215.656209 
L 176.400414 215.204803 
L 176.438941 215.222488 
L 176.554522 215.573581 
L 177.286536 218.818801 
L 177.479171 217.929906 
L 177.902969 215.492984 
L 178.01855 215.469645 
L 178.172658 215.888145 
L 178.442348 217.586351 
L 178.634983 218.347101 
L 178.789091 218.562367 
L 178.827618 218.619481 
L 178.866145 218.589329 
L 178.981726 218.127922 
L 179.251415 216.876917 
L 179.32847 216.928812 
L 179.482578 217.467194 
L 179.944902 219.350949 
L 179.983429 219.427488 
L 180.021956 219.362836 
L 180.137537 219.132784 
L 180.176064 219.156413 
L 180.330173 219.659714 
L 180.522808 220.084012 
L 180.638389 220.36422 
L 180.946605 222.036478 
L 181.100713 222.546447 
L 181.370403 222.290303 
L 181.909781 221.527668 
L 181.948308 221.580579 
L 182.140944 222.164768 
L 182.217998 222.296101 
L 182.256525 222.230724 
L 182.487687 221.527524 
L 182.795903 220.779385 
L 182.83443 220.818234 
L 183.296755 221.663206 
L 183.335282 221.608846 
L 183.759079 220.930868 
L 183.874661 221.183823 
L 184.837837 224.341922 
L 184.876364 224.261759 
L 185.068999 223.9701 
L 185.223107 224.232912 
L 185.338688 224.392368 
L 185.377215 224.358882 
L 185.646904 224.096795 
L 185.762486 224.069107 
L 185.955121 224.024604 
L 186.147756 224.405414 
L 186.687135 226.343964 
L 186.764189 226.578945 
L 186.802716 226.496317 
L 187.611784 222.46614 
L 187.727365 222.467734 
L 187.881473 222.853473 
L 188.074108 223.530291 
L 188.112635 223.454332 
L 188.652014 221.006972 
L 188.767595 221.136711 
L 189.037284 221.452434 
L 189.114338 221.351107 
L 189.461082 220.725605 
L 189.692244 220.712124 
L 189.884879 220.386688 
L 189.961933 220.381905 
L 190.193096 220.058209 
L 190.231623 220.094594 
L 190.385731 220.533388 
L 190.65542 221.57623 
L 190.963636 218.856201 
L 191.04069 218.923027 
L 191.233326 219.752633 
L 191.464488 220.398575 
L 191.657123 220.856069 
L 191.772704 221.198899 
L 191.811231 221.126274 
L 191.965339 220.138372 
L 192.312083 216.73993 
L 192.73588 214.319243 
L 192.851461 214.18182 
L 192.889988 214.231687 
L 193.121151 214.877918 
L 193.39084 216.55612 
L 194.0458 220.872014 
L 194.238435 222.025026 
L 194.276962 221.971681 
L 194.469597 221.652189 
L 194.585178 221.851219 
L 194.700759 222.113307 
L 194.739287 222.077067 
L 194.854868 222.053728 
L 194.970449 222.148242 
L 195.008976 222.084605 
L 195.702463 218.326372 
L 195.779517 218.360148 
L 195.895098 218.384356 
L 196.049206 218.83895 
L 196.318895 220.196066 
L 196.395949 220.004429 
L 196.473003 219.929195 
L 196.51153 219.96413 
L 196.704166 220.517587 
L 196.742693 220.396111 
L 196.935328 219.929195 
L 197.050909 220.160696 
L 197.859977 223.395188 
L 198.052612 224.159707 
L 198.091139 224.122308 
L 198.437883 223.187316 
L 198.669045 223.042066 
L 199.169896 219.175548 
L 199.208423 219.195552 
L 199.362532 219.271076 
L 199.51664 218.934479 
L 199.555167 218.948105 
L 199.593694 218.984925 
L 199.632221 218.907082 
L 199.863383 218.558308 
L 199.940437 218.506267 
L 200.248654 216.985637 
L 200.325708 217.102909 
L 200.441289 217.341659 
L 200.479816 217.247869 
L 200.865086 215.928878 
L 200.980667 215.949318 
L 201.365938 216.908518 
L 201.751208 219.674935 
L 202.097952 221.627546 
L 202.367641 222.475417 
L 202.560276 222.93639 
L 202.752911 223.200362 
L 203.176709 222.962917 
L 203.446398 221.346034 
L 203.870196 219.464888 
L 204.139885 218.755598 
L 204.33252 217.548372 
L 204.679264 215.627072 
L 204.756318 215.698247 
L 205.141588 216.932002 
L 205.37275 217.550546 
L 205.565386 217.766536 
L 205.603913 217.86047 
L 205.64244 217.840031 
L 205.835075 217.278601 
L 206.104764 215.693173 
L 206.258872 215.822043 
L 206.490035 216.062242 
L 206.759724 216.686584 
L 206.798251 216.670929 
L 207.183521 216.193865 
L 207.453211 216.153711 
L 207.607319 216.083551 
L 207.761427 216.201838 
L 207.838481 216.41174 
L 207.877008 216.361294 
L 208.069643 215.790876 
L 208.185224 216.025422 
L 208.801657 218.889976 
L 209.1484 220.81548 
L 209.263982 221.069305 
L 209.302509 221.012626 
L 210.265685 217.676661 
L 210.304212 217.688548 
L 210.419793 217.924978 
L 210.650955 218.524242 
L 210.689482 218.511631 
L 210.766536 218.417987 
L 210.920644 217.550546 
L 211.151807 216.424932 
L 211.344442 216.246631 
L 211.460023 216.147478 
L 211.49855 216.176325 
L 211.652658 216.629325 
L 212.423199 219.798876 
L 212.615834 220.266372 
L 212.962578 222.007921 
L 213.232267 223.058156 
L 213.501956 223.829198 
L 213.8487 225.141231 
L 213.887227 225.068316 
L 214.542186 222.434248 
L 214.696295 222.28407 
L 214.734822 222.310018 
L 214.88893 222.6456 
L 215.2742 224.303942 
L 215.813579 226.410646 
L 215.890633 226.41311 
L 216.198849 224.109551 
L 216.468539 222.845065 
L 216.58412 222.843905 
L 216.622647 222.870143 
L 216.661174 222.783167 
L 217.316133 217.360503 
L 217.431715 217.282225 
L 217.470242 217.327163 
L 217.62435 217.840031 
L 218.394891 222.326833 
L 218.780161 224.573568 
L 218.818688 224.514714 
L 219.088377 224.170869 
L 219.242486 224.330035 
L 219.396594 224.690551 
L 219.435121 224.638655 
L 219.589229 223.921393 
L 219.858918 223.211089 
L 220.013026 222.520934 
L 220.244189 220.10967 
L 220.783567 214.34751 
L 221.091784 212.870222 
L 221.515581 210.790916 
L 221.554108 210.829476 
L 221.631162 210.846436 
L 221.823797 210.626242 
L 222.05496 211.182453 
L 222.555811 212.628574 
L 222.632865 212.525218 
L 222.864028 211.895366 
L 223.48046 207.83982 
L 223.75015 206.604181 
L 224.058366 205.08616 
L 224.173947 204.933083 
L 224.251001 204.384409 
L 224.482163 202.308437 
L 224.559217 202.315685 
L 224.713326 203.014392 
L 224.983015 204.354257 
L 225.060069 204.238289 
L 225.252704 203.799205 
L 225.368285 203.759196 
L 225.637975 203.396217 
L 225.715029 203.448257 
L 225.869137 204.013166 
L 225.946191 204.278588 
L 225.984718 204.193642 
L 226.177353 203.76572 
L 226.21588 203.78413 
L 226.292934 203.723246 
L 226.639678 203.065273 
L 226.986421 202.738388 
L 227.024948 202.799561 
L 227.371692 203.508561 
L 227.487273 203.570169 
L 227.834016 202.098535 
L 228.142232 200.838687 
L 228.219287 200.829265 
L 228.257814 200.888119 
L 228.373395 201.154845 
L 228.411922 201.119185 
L 228.912773 199.187158 
L 229.837422 191.767236 
L 230.184166 190.863845 
L 230.723544 188.715828 
L 231.070288 186.779017 
L 231.30145 185.985361 
L 231.725247 183.073839 
L 232.149045 179.201523 
L 232.611369 175.815547 
L 232.804005 171.627218 
L 233.073694 161.862712 
L 233.189275 146.30778 
L 233.227802 77.197375 
L 233.266329 81.807683 
L 233.420437 183.773271 
L 233.574545 190.86399 
L 233.998343 193.883362 
L 234.268032 195.04739 
L 234.730357 197.251652 
L 234.768884 197.190334 
L 234.884465 196.568891 
L 235.192681 192.188779 
L 235.655006 183.643677 
L 236.502601 177.252246 
L 237.080506 172.356367 
L 237.311669 165.932174 
L 237.465777 155.528685 
L 237.504304 146.625967 
L 237.542831 73.304329 
L 237.581358 79.707937 
L 237.735466 183.828791 
L 237.889574 190.987351 
L 237.928101 191.007065 
L 238.043682 190.199493 
L 238.274845 186.325437 
L 238.85275 174.184022 
L 239.199494 170.389839 
L 239.50771 167.748378 
L 239.661818 164.307028 
L 239.777399 156.251891 
L 239.815926 148.431733 
L 239.89298 68.270158 
L 239.931507 137.279381 
L 240.124143 186.911655 
L 240.278251 189.102436 
L 240.393832 189.120266 
L 240.470886 188.992991 
L 240.702048 187.16519 
L 241.549643 173.239028 
L 241.85786 164.775104 
L 241.973441 155.693505 
L 242.011968 145.794621 
L 242.050495 59.252631 
L 242.089022 83.282361 
L 242.24313 185.457127 
L 242.397238 192.357948 
L 242.474292 192.717013 
L 242.512819 192.691066 
L 242.6284 192.210523 
L 243.013671 186.056971 
L 243.553049 170.963011 
L 243.745685 161.481033 
L 243.822739 150.445518 
L 243.899793 64.714144 
L 243.93832 139.531479 
L 244.130955 193.432536 
L 244.208009 193.951638 
L 244.246536 193.79972 
L 244.670334 191.258716 
L 245.980253 168.578854 
L 246.134361 159.920538 
L 246.211415 144.200641 
L 246.249942 51.166328 
L 246.28847 92.327575 
L 246.442578 188.437649 
L 246.519632 192.185735 
L 246.596686 191.879724 
L 247.174591 186.508087 
L 248.214822 179.181663 
L 248.445984 173.103201 
L 248.677146 161.574822 
L 248.7542 147.969746 
L 248.792727 57.878556 
L 248.831254 76.967903 
L 248.985362 188.902536 
L 249.100944 193.817985 
L 249.139471 193.648961 
L 249.486214 189.548188 
L 249.832957 186.229184 
L 250.680552 181.40564 
L 250.911715 176.882598 
L 251.258458 163.64543 
L 251.374039 150.509735 
L 251.451093 63.454732 
L 251.48962 137.505808 
L 251.682255 193.088401 
L 251.836364 195.194235 
L 251.874891 195.230185 
L 251.913418 195.146833 
L 252.183107 193.843932 
L 252.414269 192.751224 
L 252.491323 192.799641 
L 252.606904 192.936483 
L 252.838067 190.708013 
L 253.107756 186.65812 
L 253.724189 175.491852 
L 254.147986 168.693517 
L 254.340621 160.610983 
L 254.417675 148.970695 
L 254.49473 70.80174 
L 254.648838 184.567507 
L 254.764419 190.98938 
L 254.802946 190.93589 
L 254.995581 188.736702 
L 256.112865 171.017226 
L 256.344028 163.163728 
L 256.459609 150.483642 
L 256.536663 61.037524 
L 256.57519 132.141274 
L 256.767825 189.610231 
L 256.883406 190.832823 
L 256.921933 190.789335 
L 257.153096 190.096282 
L 257.345731 188.838174 
L 257.499839 186.826709 
L 258.65565 163.73574 
L 258.771231 155.572318 
L 258.809758 147.640542 
L 258.886812 73.895331 
L 259.040921 181.905897 
L 259.195029 190.153251 
L 259.387664 190.79064 
L 259.657353 190.831664 
L 259.849988 191.309742 
L 259.888516 191.248714 
L 260.389367 189.287405 
L 260.427894 189.309584 
L 260.504948 189.369887 
L 260.543475 189.321905 
L 260.813165 188.385319 
L 261.121381 186.940068 
L 261.352543 185.992029 
L 261.891922 182.140297 
L 262.161611 181.352004 
L 262.4313 181.043964 
L 262.70099 181.067883 
L 262.816571 181.125867 
L 262.970679 181.291411 
L 263.08626 180.977573 
L 263.240368 180.728532 
L 263.355949 180.926982 
L 263.548585 181.892125 
L 263.818274 183.002954 
L 264.165017 184.332962 
L 264.588815 187.852011 
L 265.590518 194.554236 
L 265.783153 194.876483 
L 266.091369 195.439797 
L 266.206951 195.697826 
L 267.324235 198.588183 
L 267.632451 199.888909 
L 267.670978 199.962549 
L 267.709505 199.935732 
L 267.825086 199.776131 
L 267.863613 199.81353 
L 267.979194 200.251309 
L 268.480046 202.830438 
L 268.711208 203.38375 
L 268.942371 205.263446 
L 270.021128 215.81291 
L 270.136709 215.982514 
L 270.329344 216.910837 
L 271.176939 222.041987 
L 271.29252 222.049235 
L 271.408101 221.657408 
L 271.600736 220.244483 
L 271.831899 218.345362 
L 271.908953 218.293031 
L 271.94748 218.339563 
L 272.101588 218.859535 
L 272.640967 221.011756 
L 272.872129 220.383789 
L 273.180345 216.751236 
L 273.411507 215.200599 
L 273.488562 215.290909 
L 273.681197 216.233439 
L 274.374684 220.287536 
L 274.6829 221.623777 
L 275.299333 224.327571 
L 275.800184 224.804199 
L 275.954292 224.919877 
L 275.992819 224.863778 
L 276.223982 224.144921 
L 276.917468 219.31036 
L 277.033049 219.144671 
L 277.071577 219.162936 
L 277.264212 219.577087 
L 277.302739 219.519103 
L 277.456847 218.286653 
L 277.649482 217.294981 
L 277.842117 217.225256 
L 277.919171 217.241926 
L 277.996226 216.95534 
L 278.304442 214.910969 
L 278.381496 214.979825 
L 278.535604 215.612576 
L 278.920875 218.560337 
L 279.229091 220.399155 
L 279.537307 220.642978 
L 279.691415 220.576151 
L 279.961105 219.607528 
L 280.076686 219.810472 
L 280.461956 220.523241 
L 280.8087 219.385595 
L 280.924281 219.573318 
L 281.19397 220.601664 
L 281.309551 220.421914 
L 281.425132 220.320587 
L 281.463659 220.349289 
L 281.617768 220.74329 
L 282.311254 223.040761 
L 282.426835 222.690828 
L 282.580944 221.855568 
L 283.351484 215.360345 
L 283.428539 215.374986 
L 283.582647 215.924964 
L 284.276133 219.345731 
L 284.507296 219.076105 
L 284.545823 219.122057 
L 284.738458 219.754808 
L 284.931093 220.417565 
L 284.96962 220.395676 
L 285.123728 220.410897 
L 285.277837 220.793156 
L 285.62458 222.454108 
L 285.778688 223.138899 
L 285.817215 223.127737 
L 286.27954 222.051699 
L 286.356594 222.141284 
L 286.66481 222.528907 
L 286.741864 222.636902 
L 286.780391 222.587181 
L 286.973026 221.636823 
L 287.281243 220.133588 
L 287.473878 219.665657 
L 287.550932 219.734658 
L 287.589459 219.652466 
L 287.70504 219.451551 
L 287.743567 219.476484 
L 287.782094 219.501563 
L 287.897675 218.819236 
L 288.822325 211.068804 
L 288.860852 211.131572 
L 288.976433 211.280446 
L 289.01496 211.245366 
L 289.169068 211.132007 
L 289.207595 211.175495 
L 289.438757 211.899425 
L 289.669919 213.131875 
L 290.016663 214.937932 
L 290.209298 215.291344 
L 290.401933 215.227127 
L 290.902785 214.088321 
L 291.018366 214.205449 
L 291.172474 214.519577 
L 291.403636 215.760725 
L 292.058596 219.724656 
L 292.251231 219.769594 
L 292.559448 220.597025 
L 292.636502 220.486421 
L 292.79061 220.471635 
L 293.098826 220.586588 
L 293.792313 222.831004 
L 293.869367 222.623421 
L 294.447273 220.427132 
L 294.524327 220.484681 
L 294.639908 219.738137 
L 294.87107 218.698629 
L 294.986651 218.905197 
L 295.294868 220.41655 
L 296.18099 224.65808 
L 296.296571 224.509206 
L 296.412152 224.5827 
L 296.874476 225.21893 
L 297.067112 225.446227 
L 297.144166 225.505806 
L 297.529436 222.885799 
L 297.722071 222.177814 
L 297.837652 222.288998 
L 298.068815 223.085119 
L 298.338504 224.064324 
L 298.377031 224.02214 
L 298.723774 223.154265 
L 298.954937 222.232319 
L 299.070518 222.37467 
L 299.30168 223.22515 
L 299.879586 225.850231 
L 299.918113 225.791087 
L 300.534545 222.396559 
L 300.727181 222.127658 
L 301.112451 222.330022 
L 301.266559 222.339444 
L 301.459194 222.859126 
L 301.767411 223.701054 
L 301.844465 223.603496 
L 302.0371 223.417802 
L 302.537952 223.08193 
L 302.769114 223.278785 
L 303.000276 224.002716 
L 303.115857 224.301623 
L 303.154384 224.261324 
L 303.34702 223.76875 
L 303.847871 221.814544 
L 303.963452 221.839477 
L 304.156087 222.37264 
L 304.348723 223.088888 
L 304.38725 223.030034 
L 304.618412 222.732141 
L 304.695466 222.826075 
L 304.733993 222.760698 
L 305.003682 221.234849 
L 305.42748 217.91512 
L 305.504534 217.995138 
L 305.889804 218.764151 
L 306.043913 219.246578 
L 306.390656 220.583979 
L 306.621818 220.606883 
L 306.814453 221.191216 
L 307.315305 223.882109 
L 307.623521 225.260678 
L 307.662048 225.245748 
L 307.854684 224.825653 
L 308.085846 224.360042 
L 308.201427 224.322497 
L 308.54817 223.62582 
L 308.933441 222.401052 
L 309.434292 217.266279 
L 309.472819 217.274397 
L 309.626928 217.295416 
L 309.703982 217.243376 
L 309.896617 215.917716 
L 310.089252 215.278298 
L 310.204833 215.512843 
L 310.975374 218.36986 
L 311.013901 218.336519 
L 311.206536 217.634333 
L 311.245063 217.644915 
L 311.360644 217.95252 
L 311.707388 219.502432 
L 311.745915 219.40125 
L 312.054131 218.486843 
L 312.246766 218.47945 
L 312.400875 218.576718 
L 312.516456 218.702253 
L 312.97878 219.750894 
L 313.094361 219.936443 
L 313.286997 220.509904 
L 313.364051 220.485841 
L 313.710794 220.484536 
L 313.941956 221.167008 
L 314.01901 220.97914 
L 314.2887 220.184469 
L 314.365754 220.192297 
L 314.481335 219.537223 
L 314.712497 218.530186 
L 314.789551 218.599332 
L 315.097768 219.055811 
L 315.213349 219.182796 
L 315.560092 220.162725 
L 315.675673 220.031246 
L 315.868308 219.917308 
L 316.022417 220.25376 
L 316.176525 220.41597 
L 316.292106 220.337257 
L 316.407687 220.291884 
L 316.446214 220.332908 
L 316.600322 220.75996 
L 316.831484 221.582173 
L 316.870012 221.555356 
L 317.062647 221.371112 
L 317.216755 221.678427 
L 317.370863 221.84774 
L 317.40939 221.825996 
L 317.679079 220.730678 
L 317.717606 220.744595 
L 317.871715 221.112793 
L 318.102877 221.913842 
L 318.141404 221.893403 
L 318.44962 221.462002 
L 318.488147 221.491573 
L 318.680783 221.93718 
L 318.911945 222.834483 
L 318.950472 222.794039 
L 319.643959 218.807059 
L 319.721013 218.889831 
L 320.453026 220.840848 
L 320.530081 220.77808 
L 320.684189 220.370888 
L 320.79977 218.933319 
L 321.030932 216.452184 
L 321.107986 216.310703 
L 321.146513 216.325489 
L 321.339148 216.582648 
L 321.493257 217.006946 
L 321.531784 216.970706 
L 321.801473 216.740364 
L 322.071162 217.014774 
L 322.186743 217.170751 
L 322.22527 217.151616 
L 322.302325 216.990855 
L 322.610541 215.863212 
L 322.726122 215.745069 
L 322.918757 214.875454 
L 323.072865 214.354468 
L 323.111392 214.370413 
L 323.226974 214.702662 
L 323.496663 216.499441 
L 323.958987 219.374723 
L 324.768055 221.080757 
L 325.384488 222.841876 
L 325.654177 222.820567 
L 325.769758 222.341184 
L 326.077975 220.940436 
L 326.347664 219.956882 
L 326.771461 218.012388 
L 326.92557 218.065444 
L 327.118205 217.62781 
L 327.580529 215.17987 
L 327.657583 215.164069 
L 327.69611 215.212486 
L 327.850219 215.443842 
L 327.927273 215.359331 
L 328.119908 215.107825 
L 328.158435 215.148559 
L 328.196962 215.140731 
L 328.428124 214.627862 
L 328.543705 214.810947 
L 328.582232 214.716143 
L 329.044557 213.093461 
L 329.237192 212.813978 
L 329.776571 210.309504 
L 329.815098 210.320811 
L 329.930679 210.569707 
L 330.161841 211.951321 
L 330.739747 215.756956 
L 331.664396 220.698352 
L 331.74145 220.498163 
L 332.12672 218.808654 
L 332.242301 218.80503 
L 332.39641 219.226573 
L 332.743153 221.14309 
L 333.012842 222.147083 
L 333.244005 222.865069 
L 333.475167 223.694386 
L 333.513694 223.659015 
L 333.860437 222.687638 
L 334.0916 222.08504 
L 334.168654 222.026041 
L 334.630978 220.230421 
L 334.669505 220.246367 
L 334.939194 219.179606 
L 335.13183 218.83866 
L 335.247411 219.09495 
L 335.671208 221.1241 
L 336.287641 223.865873 
L 336.326168 223.850652 
L 336.518803 223.84094 
L 336.634384 223.867903 
L 336.904074 223.318214 
L 337.173763 222.40946 
L 337.289344 222.533981 
L 337.520506 223.249503 
L 337.59756 223.052793 
L 337.905777 222.557899 
L 337.944304 222.607765 
L 338.136939 223.191954 
L 338.753372 225.800944 
L 338.830426 225.753542 
L 338.946007 225.124996 
L 339.523913 220.514398 
L 339.678021 220.435105 
L 339.832129 220.791562 
L 340.178872 222.471793 
L 340.487089 223.452302 
L 341.064994 223.96894 
L 341.296157 224.300028 
L 341.373211 224.123467 
L 341.527319 222.559349 
L 341.797008 220.258689 
L 342.066697 219.94514 
L 342.182278 220.130979 
L 342.567549 221.138596 
L 342.68313 220.853025 
L 342.798711 220.662547 
L 342.837238 220.677333 
L 343.222509 221.344004 
L 343.376617 221.892968 
L 343.415144 221.77758 
L 343.607779 219.96355 
L 343.877468 218.583096 
L 343.993049 218.502353 
L 344.031577 218.528591 
L 344.185685 218.754294 
L 344.416847 219.668122 
L 344.802117 221.215425 
L 344.840644 221.226007 
L 344.956226 220.606448 
L 345.264442 219.059724 
L 345.457077 218.892441 
L 345.495604 218.92984 
L 345.649712 219.410093 
L 345.996456 221.573766 
L 346.381726 223.575663 
L 346.535834 224.008949 
L 346.574361 223.991264 
L 346.689942 223.67699 
L 346.959632 223.072217 
L 347.075213 223.180357 
L 347.306375 223.831083 
L 347.7687 225.504501 
L 347.807227 225.414626 
L 347.961335 224.422085 
L 348.385132 220.196066 
L 348.539241 219.916438 
L 348.654822 220.144315 
L 348.924511 221.456203 
L 349.155673 222.344953 
L 349.425362 222.152156 
L 349.540944 222.076777 
L 349.579471 222.113887 
L 349.84916 222.411055 
L 349.964741 222.281605 
L 350.88939 220.293624 
L 351.004971 220.380165 
L 351.159079 220.546579 
L 351.313188 220.957251 
L 351.390242 220.900861 
L 351.467296 220.944349 
L 352.314891 222.944363 
L 352.700161 224.061714 
L 352.892796 224.491086 
L 353.316594 226.003164 
L 353.355121 225.900097 
L 354.087135 221.638418 
L 354.202716 221.482441 
L 354.973257 217.712031 
L 355.050311 217.82597 
L 355.281473 218.711386 
L 355.358527 218.584256 
L 355.628216 218.137054 
L 355.743797 218.421031 
L 356.013487 219.988628 
L 356.398757 221.982263 
L 356.514338 222.027925 
L 356.706974 221.605077 
L 356.899609 221.1054 
L 357.01519 221.297182 
L 357.708677 223.305458 
L 358.05542 222.811869 
L 358.209528 222.800997 
L 358.363636 223.067868 
L 358.517745 223.417512 
L 358.556272 223.365906 
L 358.980069 222.275082 
L 359.09565 222.313787 
L 359.288285 222.805056 
L 359.442394 222.968281 
L 359.712083 222.724748 
L 359.75061 222.762003 
L 359.943245 223.230224 
L 360.328516 224.419186 
L 360.367043 224.3325 
L 360.944948 221.566373 
L 361.407273 220.223753 
L 361.4458 220.275939 
L 361.676962 220.557306 
L 361.792543 220.325225 
L 362.023705 219.478514 
L 362.216341 219.750894 
L 362.447503 220.621089 
L 363.025409 223.865148 
L 363.063936 223.773244 
L 363.218044 221.306315 
L 363.487733 218.097335 
L 363.641841 217.583887 
L 363.680368 217.602876 
L 363.91153 217.926717 
L 364.027112 217.180318 
L 364.258274 215.805228 
L 364.335328 215.863067 
L 364.489436 216.490164 
L 364.720598 217.773349 
L 364.759125 217.757549 
L 365.028815 216.018174 
L 365.105869 216.090654 
L 365.182923 215.887565 
L 365.452612 214.928654 
L 365.60672 214.934743 
L 365.722301 215.10652 
L 366.184626 216.856188 
L 366.454315 218.012244 
L 366.531369 217.84293 
L 366.762532 216.905474 
L 366.955167 216.779359 
L 367.070748 216.974185 
L 367.30191 218.125022 
L 368.303613 224.188554 
L 368.650357 225.233716 
L 368.727411 225.405059 
L 368.765938 225.374762 
L 368.958573 225.254445 
L 369.151208 225.546974 
L 369.459425 226.044912 
L 369.960276 224.113465 
L 369.998803 224.124192 
L 370.152911 224.362506 
L 370.461128 225.049472 
L 370.499655 224.994532 
L 370.576709 224.64054 
L 371.385777 216.316356 
L 371.578412 214.888211 
L 371.809574 213.201891 
L 371.886628 213.154199 
L 371.925155 213.211168 
L 372.464534 214.967649 
L 373.04244 218.831412 
L 373.080967 218.808219 
L 373.235075 218.484088 
L 373.273602 218.501918 
L 373.312129 218.477565 
L 373.581818 217.55533 
L 373.581818 217.55533 
" style="fill:none;stroke:#ff0000;stroke-linecap:square;stroke-width:1.5;"/>
   </g>
   <g id="line2d_20">
    <path clip-path="url(#pcb3c15ffb1)" d="M 258.00069 201.264 
L 296.450679 201.264 
L 296.450679 201.264 
" style="fill:none;stroke:#000000;stroke-linecap:square;stroke-width:1.5;"/>
   </g>
   <g id="line2d_21">
    <path clip-path="url(#pcb3c15ffb1)" d="M 258.00069 179.52 
L 258.00069 178.0704 
L 258.00069 176.6208 
L 258.00069 175.1712 
L 258.00069 173.7216 
L 258.00069 172.272 
L 258.00069 170.8224 
L 258.00069 169.3728 
L 258.00069 167.9232 
L 258.00069 166.4736 
L 258.00069 165.024 
L 258.00069 163.5744 
L 258.00069 162.1248 
L 258.00069 160.6752 
L 258.00069 159.2256 
L 258.00069 157.776 
L 258.00069 156.3264 
L 258.00069 154.8768 
L 258.00069 153.4272 
L 258.00069 151.9776 
" style="fill:none;stroke:#000000;stroke-linecap:square;stroke-width:1.5;"/>
   </g>
   <g id="patch_3">
    <path d="M 54 252 
L 54 34.56 
" style="fill:none;stroke:#000000;stroke-linecap:square;stroke-linejoin:miter;stroke-width:0.8;"/>
   </g>
   <g id="patch_4">
    <path d="M 54 252 
L 388.8 252 
" style="fill:none;stroke:#000000;stroke-linecap:square;stroke-linejoin:miter;stroke-width:0.8;"/>
   </g>
   <g id="text_20">
    <!-- 500 ms -->
    <g transform="translate(258.00069 199.8144)scale(0.12 -0.12)">
     <use xlink:href="#DejaVuSans-35"/>
     <use x="63.623047" xlink:href="#DejaVuSans-30"/>
     <use x="127.246094" xlink:href="#DejaVuSans-30"/>
     <use x="190.869141" xlink:href="#DejaVuSans-20"/>
     <use x="222.65625" xlink:href="#DejaVuSans-6d"/>
     <use x="320.068359" xlink:href="#DejaVuSans-73"/>
    </g>
   </g>
   <g id="text_21">
    <!-- 20 mV -->
    <g transform="translate(261.853395 150.528)scale(0.12 -0.12)">
     <use xlink:href="#DejaVuSans-32"/>
     <use x="63.623047" xlink:href="#DejaVuSans-30"/>
     <use x="127.246094" xlink:href="#DejaVuSans-20"/>
     <use x="159.033203" xlink:href="#DejaVuSans-6d"/>
     <use x="256.445312" xlink:href="#DejaVuSans-56"/>
    </g>
   </g>
  </g>
 </g>
 <defs>
  <clipPath id="pcb3c15ffb1">
   <rect height="217.44" width="334.8" x="54" y="34.56"/>
  </clipPath>
 </defs>
</svg>
