<?xml version="1.0" encoding="utf-8" standalone="no"?>
<!DOCTYPE svg PUBLIC "-//W3C//DTD SVG 1.1//EN"
  "http://www.w3.org/Graphics/SVG/1.1/DTD/svg11.dtd">
<svg height="288pt" version="1.1" viewBox="0 0 432 288" width="432pt" xmlns="http://www.w3.org/2000/svg" xmlns:xlink="http://www.w3.org/1999/xlink">
 <metadata>
  <rdf:RDF xmlns:cc="http://creativecommons.org/ns#" xmlns:dc="http://purl.org/dc/elements/1.1/" xmlns:rdf="http://www.w3.org/1999/02/22-rdf-syntax-ns#">
   <cc:Work>
    <dc:type rdf:resource="http://purl.org/dc/dcmitype/StillImage"/>
    <dc:date>2021-07-05T14:41:37.592572</dc:date>
    <dc:format>image/svg+xml</dc:format>
    <dc:creator>
     <cc:Agent>
      <dc:title>Matplotlib v3.4.1, https://matplotlib.org/</dc:title>
     </cc:Agent>
    </dc:creator>
   </cc:Work>
  </rdf:RDF>
 </metadata>
 <defs>
  <style type="text/css">*{stroke-linecap:butt;stroke-linejoin:round;}</style>
 </defs>
 <g id="figure_1">
  <g id="patch_1">
   <path d="M 0 288 
L 432 288 
L 432 0 
L 0 0 
z
" style="fill:none;"/>
  </g>
  <g id="axes_1">
   <g id="patch_2">
    <path d="M 54 252 
L 388.8 252 
L 388.8 34.56 
L 54 34.56 
z
" style="fill:#ffffff;"/>
   </g>
   <g id="matplotlib.axis_1">
    <g id="xtick_1">
     <g id="line2d_1">
      <defs>
       <path d="M 0 0 
L 0 3.5 
" id="m23631dd57c" style="stroke:#000000;stroke-width:0.8;"/>
      </defs>
      <g>
       <use style="stroke:#000000;stroke-width:0.8;" x="65.365478" xlink:href="#m23631dd57c" y="252"/>
      </g>
     </g>
     <g id="text_1">
      <!-- 0 -->
      <g transform="translate(61.547978 268.118125)scale(0.12 -0.12)">
       <defs>
        <path d="M 2034 4250 
Q 1547 4250 1301 3770 
Q 1056 3291 1056 2328 
Q 1056 1369 1301 889 
Q 1547 409 2034 409 
Q 2525 409 2770 889 
Q 3016 1369 3016 2328 
Q 3016 3291 2770 3770 
Q 2525 4250 2034 4250 
z
M 2034 4750 
Q 2819 4750 3233 4129 
Q 3647 3509 3647 2328 
Q 3647 1150 3233 529 
Q 2819 -91 2034 -91 
Q 1250 -91 836 529 
Q 422 1150 422 2328 
Q 422 3509 836 4129 
Q 1250 4750 2034 4750 
z
" id="DejaVuSans-30" transform="scale(0.015625)"/>
       </defs>
       <use xlink:href="#DejaVuSans-30"/>
      </g>
     </g>
    </g>
    <g id="xtick_2">
     <g id="line2d_2">
      <g>
       <use style="stroke:#000000;stroke-width:0.8;" x="103.89252" xlink:href="#m23631dd57c" y="252"/>
      </g>
     </g>
     <g id="text_2">
      <!-- 500 -->
      <g transform="translate(92.44002 268.118125)scale(0.12 -0.12)">
       <defs>
        <path d="M 691 4666 
L 3169 4666 
L 3169 4134 
L 1269 4134 
L 1269 2991 
Q 1406 3038 1543 3061 
Q 1681 3084 1819 3084 
Q 2600 3084 3056 2656 
Q 3513 2228 3513 1497 
Q 3513 744 3044 326 
Q 2575 -91 1722 -91 
Q 1428 -91 1123 -41 
Q 819 9 494 109 
L 494 744 
Q 775 591 1075 516 
Q 1375 441 1709 441 
Q 2250 441 2565 725 
Q 2881 1009 2881 1497 
Q 2881 1984 2565 2268 
Q 2250 2553 1709 2553 
Q 1456 2553 1204 2497 
Q 953 2441 691 2322 
L 691 4666 
z
" id="DejaVuSans-35" transform="scale(0.015625)"/>
       </defs>
       <use xlink:href="#DejaVuSans-35"/>
       <use x="63.623047" xlink:href="#DejaVuSans-30"/>
       <use x="127.246094" xlink:href="#DejaVuSans-30"/>
      </g>
     </g>
    </g>
    <g id="xtick_3">
     <g id="line2d_3">
      <g>
       <use style="stroke:#000000;stroke-width:0.8;" x="142.419563" xlink:href="#m23631dd57c" y="252"/>
      </g>
     </g>
     <g id="text_3">
      <!-- 1000 -->
      <g transform="translate(127.149563 268.118125)scale(0.12 -0.12)">
       <defs>
        <path d="M 794 531 
L 1825 531 
L 1825 4091 
L 703 3866 
L 703 4441 
L 1819 4666 
L 2450 4666 
L 2450 531 
L 3481 531 
L 3481 0 
L 794 0 
L 794 531 
z
" id="DejaVuSans-31" transform="scale(0.015625)"/>
       </defs>
       <use xlink:href="#DejaVuSans-31"/>
       <use x="63.623047" xlink:href="#DejaVuSans-30"/>
       <use x="127.246094" xlink:href="#DejaVuSans-30"/>
       <use x="190.869141" xlink:href="#DejaVuSans-30"/>
      </g>
     </g>
    </g>
    <g id="xtick_4">
     <g id="line2d_4">
      <g>
       <use style="stroke:#000000;stroke-width:0.8;" x="180.946605" xlink:href="#m23631dd57c" y="252"/>
      </g>
     </g>
     <g id="text_4">
      <!-- 1500 -->
      <g transform="translate(165.676605 268.118125)scale(0.12 -0.12)">
       <use xlink:href="#DejaVuSans-31"/>
       <use x="63.623047" xlink:href="#DejaVuSans-35"/>
       <use x="127.246094" xlink:href="#DejaVuSans-30"/>
       <use x="190.869141" xlink:href="#DejaVuSans-30"/>
      </g>
     </g>
    </g>
    <g id="xtick_5">
     <g id="line2d_5">
      <g>
       <use style="stroke:#000000;stroke-width:0.8;" x="219.473648" xlink:href="#m23631dd57c" y="252"/>
      </g>
     </g>
     <g id="text_5">
      <!-- 2000 -->
      <g transform="translate(204.203648 268.118125)scale(0.12 -0.12)">
       <defs>
        <path d="M 1228 531 
L 3431 531 
L 3431 0 
L 469 0 
L 469 531 
Q 828 903 1448 1529 
Q 2069 2156 2228 2338 
Q 2531 2678 2651 2914 
Q 2772 3150 2772 3378 
Q 2772 3750 2511 3984 
Q 2250 4219 1831 4219 
Q 1534 4219 1204 4116 
Q 875 4013 500 3803 
L 500 4441 
Q 881 4594 1212 4672 
Q 1544 4750 1819 4750 
Q 2544 4750 2975 4387 
Q 3406 4025 3406 3419 
Q 3406 3131 3298 2873 
Q 3191 2616 2906 2266 
Q 2828 2175 2409 1742 
Q 1991 1309 1228 531 
z
" id="DejaVuSans-32" transform="scale(0.015625)"/>
       </defs>
       <use xlink:href="#DejaVuSans-32"/>
       <use x="63.623047" xlink:href="#DejaVuSans-30"/>
       <use x="127.246094" xlink:href="#DejaVuSans-30"/>
       <use x="190.869141" xlink:href="#DejaVuSans-30"/>
      </g>
     </g>
    </g>
    <g id="xtick_6">
     <g id="line2d_6">
      <g>
       <use style="stroke:#000000;stroke-width:0.8;" x="258.00069" xlink:href="#m23631dd57c" y="252"/>
      </g>
     </g>
     <g id="text_6">
      <!-- 2500 -->
      <g transform="translate(242.73069 268.118125)scale(0.12 -0.12)">
       <use xlink:href="#DejaVuSans-32"/>
       <use x="63.623047" xlink:href="#DejaVuSans-35"/>
       <use x="127.246094" xlink:href="#DejaVuSans-30"/>
       <use x="190.869141" xlink:href="#DejaVuSans-30"/>
      </g>
     </g>
    </g>
    <g id="xtick_7">
     <g id="line2d_7">
      <g>
       <use style="stroke:#000000;stroke-width:0.8;" x="296.527733" xlink:href="#m23631dd57c" y="252"/>
      </g>
     </g>
     <g id="text_7">
      <!-- 3000 -->
      <g transform="translate(281.257733 268.118125)scale(0.12 -0.12)">
       <defs>
        <path d="M 2597 2516 
Q 3050 2419 3304 2112 
Q 3559 1806 3559 1356 
Q 3559 666 3084 287 
Q 2609 -91 1734 -91 
Q 1441 -91 1130 -33 
Q 819 25 488 141 
L 488 750 
Q 750 597 1062 519 
Q 1375 441 1716 441 
Q 2309 441 2620 675 
Q 2931 909 2931 1356 
Q 2931 1769 2642 2001 
Q 2353 2234 1838 2234 
L 1294 2234 
L 1294 2753 
L 1863 2753 
Q 2328 2753 2575 2939 
Q 2822 3125 2822 3475 
Q 2822 3834 2567 4026 
Q 2313 4219 1838 4219 
Q 1578 4219 1281 4162 
Q 984 4106 628 3988 
L 628 4550 
Q 988 4650 1302 4700 
Q 1616 4750 1894 4750 
Q 2613 4750 3031 4423 
Q 3450 4097 3450 3541 
Q 3450 3153 3228 2886 
Q 3006 2619 2597 2516 
z
" id="DejaVuSans-33" transform="scale(0.015625)"/>
       </defs>
       <use xlink:href="#DejaVuSans-33"/>
       <use x="63.623047" xlink:href="#DejaVuSans-30"/>
       <use x="127.246094" xlink:href="#DejaVuSans-30"/>
       <use x="190.869141" xlink:href="#DejaVuSans-30"/>
      </g>
     </g>
    </g>
    <g id="xtick_8">
     <g id="line2d_8">
      <g>
       <use style="stroke:#000000;stroke-width:0.8;" x="335.054776" xlink:href="#m23631dd57c" y="252"/>
      </g>
     </g>
     <g id="text_8">
      <!-- 3500 -->
      <g transform="translate(319.784776 268.118125)scale(0.12 -0.12)">
       <use xlink:href="#DejaVuSans-33"/>
       <use x="63.623047" xlink:href="#DejaVuSans-35"/>
       <use x="127.246094" xlink:href="#DejaVuSans-30"/>
       <use x="190.869141" xlink:href="#DejaVuSans-30"/>
      </g>
     </g>
    </g>
    <g id="xtick_9">
     <g id="line2d_9">
      <g>
       <use style="stroke:#000000;stroke-width:0.8;" x="373.581818" xlink:href="#m23631dd57c" y="252"/>
      </g>
     </g>
     <g id="text_9">
      <!-- 4000 -->
      <g transform="translate(358.311818 268.118125)scale(0.12 -0.12)">
       <defs>
        <path d="M 2419 4116 
L 825 1625 
L 2419 1625 
L 2419 4116 
z
M 2253 4666 
L 3047 4666 
L 3047 1625 
L 3713 1625 
L 3713 1100 
L 3047 1100 
L 3047 0 
L 2419 0 
L 2419 1100 
L 313 1100 
L 313 1709 
L 2253 4666 
z
" id="DejaVuSans-34" transform="scale(0.015625)"/>
       </defs>
       <use xlink:href="#DejaVuSans-34"/>
       <use x="63.623047" xlink:href="#DejaVuSans-30"/>
       <use x="127.246094" xlink:href="#DejaVuSans-30"/>
       <use x="190.869141" xlink:href="#DejaVuSans-30"/>
      </g>
     </g>
    </g>
    <g id="text_10">
     <!-- Time(ms) -->
     <g transform="translate(193.067813 283.731875)scale(0.12 -0.12)">
      <defs>
       <path d="M -19 4666 
L 3928 4666 
L 3928 4134 
L 2272 4134 
L 2272 0 
L 1638 0 
L 1638 4134 
L -19 4134 
L -19 4666 
z
" id="DejaVuSans-54" transform="scale(0.015625)"/>
       <path d="M 603 3500 
L 1178 3500 
L 1178 0 
L 603 0 
L 603 3500 
z
M 603 4863 
L 1178 4863 
L 1178 4134 
L 603 4134 
L 603 4863 
z
" id="DejaVuSans-69" transform="scale(0.015625)"/>
       <path d="M 3328 2828 
Q 3544 3216 3844 3400 
Q 4144 3584 4550 3584 
Q 5097 3584 5394 3201 
Q 5691 2819 5691 2113 
L 5691 0 
L 5113 0 
L 5113 2094 
Q 5113 2597 4934 2840 
Q 4756 3084 4391 3084 
Q 3944 3084 3684 2787 
Q 3425 2491 3425 1978 
L 3425 0 
L 2847 0 
L 2847 2094 
Q 2847 2600 2669 2842 
Q 2491 3084 2119 3084 
Q 1678 3084 1418 2786 
Q 1159 2488 1159 1978 
L 1159 0 
L 581 0 
L 581 3500 
L 1159 3500 
L 1159 2956 
Q 1356 3278 1631 3431 
Q 1906 3584 2284 3584 
Q 2666 3584 2933 3390 
Q 3200 3197 3328 2828 
z
" id="DejaVuSans-6d" transform="scale(0.015625)"/>
       <path d="M 3597 1894 
L 3597 1613 
L 953 1613 
Q 991 1019 1311 708 
Q 1631 397 2203 397 
Q 2534 397 2845 478 
Q 3156 559 3463 722 
L 3463 178 
Q 3153 47 2828 -22 
Q 2503 -91 2169 -91 
Q 1331 -91 842 396 
Q 353 884 353 1716 
Q 353 2575 817 3079 
Q 1281 3584 2069 3584 
Q 2775 3584 3186 3129 
Q 3597 2675 3597 1894 
z
M 3022 2063 
Q 3016 2534 2758 2815 
Q 2500 3097 2075 3097 
Q 1594 3097 1305 2825 
Q 1016 2553 972 2059 
L 3022 2063 
z
" id="DejaVuSans-65" transform="scale(0.015625)"/>
       <path d="M 1984 4856 
Q 1566 4138 1362 3434 
Q 1159 2731 1159 2009 
Q 1159 1288 1364 580 
Q 1569 -128 1984 -844 
L 1484 -844 
Q 1016 -109 783 600 
Q 550 1309 550 2009 
Q 550 2706 781 3412 
Q 1013 4119 1484 4856 
L 1984 4856 
z
" id="DejaVuSans-28" transform="scale(0.015625)"/>
       <path d="M 2834 3397 
L 2834 2853 
Q 2591 2978 2328 3040 
Q 2066 3103 1784 3103 
Q 1356 3103 1142 2972 
Q 928 2841 928 2578 
Q 928 2378 1081 2264 
Q 1234 2150 1697 2047 
L 1894 2003 
Q 2506 1872 2764 1633 
Q 3022 1394 3022 966 
Q 3022 478 2636 193 
Q 2250 -91 1575 -91 
Q 1294 -91 989 -36 
Q 684 19 347 128 
L 347 722 
Q 666 556 975 473 
Q 1284 391 1588 391 
Q 1994 391 2212 530 
Q 2431 669 2431 922 
Q 2431 1156 2273 1281 
Q 2116 1406 1581 1522 
L 1381 1569 
Q 847 1681 609 1914 
Q 372 2147 372 2553 
Q 372 3047 722 3315 
Q 1072 3584 1716 3584 
Q 2034 3584 2315 3537 
Q 2597 3491 2834 3397 
z
" id="DejaVuSans-73" transform="scale(0.015625)"/>
       <path d="M 513 4856 
L 1013 4856 
Q 1481 4119 1714 3412 
Q 1947 2706 1947 2009 
Q 1947 1309 1714 600 
Q 1481 -109 1013 -844 
L 513 -844 
Q 928 -128 1133 580 
Q 1338 1288 1338 2009 
Q 1338 2731 1133 3434 
Q 928 4138 513 4856 
z
" id="DejaVuSans-29" transform="scale(0.015625)"/>
      </defs>
      <use xlink:href="#DejaVuSans-54"/>
      <use x="57.958984" xlink:href="#DejaVuSans-69"/>
      <use x="85.742188" xlink:href="#DejaVuSans-6d"/>
      <use x="183.154297" xlink:href="#DejaVuSans-65"/>
      <use x="244.677734" xlink:href="#DejaVuSans-28"/>
      <use x="283.691406" xlink:href="#DejaVuSans-6d"/>
      <use x="381.103516" xlink:href="#DejaVuSans-73"/>
      <use x="433.203125" xlink:href="#DejaVuSans-29"/>
     </g>
    </g>
   </g>
   <g id="matplotlib.axis_2">
    <g id="ytick_1">
     <g id="line2d_10">
      <defs>
       <path d="M 0 0 
L -3.5 0 
" id="m69caac33b7" style="stroke:#000000;stroke-width:0.8;"/>
      </defs>
      <g>
       <use style="stroke:#000000;stroke-width:0.8;" x="54" xlink:href="#m69caac33b7" y="237.504"/>
      </g>
     </g>
     <g id="text_11">
      <!-- -100 -->
      <g transform="translate(19.765625 242.063063)scale(0.12 -0.12)">
       <defs>
        <path d="M 313 2009 
L 1997 2009 
L 1997 1497 
L 313 1497 
L 313 2009 
z
" id="DejaVuSans-2d" transform="scale(0.015625)"/>
       </defs>
       <use xlink:href="#DejaVuSans-2d"/>
       <use x="36.083984" xlink:href="#DejaVuSans-31"/>
       <use x="99.707031" xlink:href="#DejaVuSans-30"/>
       <use x="163.330078" xlink:href="#DejaVuSans-30"/>
      </g>
     </g>
    </g>
    <g id="ytick_2">
     <g id="line2d_11">
      <g>
       <use style="stroke:#000000;stroke-width:0.8;" x="54" xlink:href="#m69caac33b7" y="208.512"/>
      </g>
     </g>
     <g id="text_12">
      <!-- -80 -->
      <g transform="translate(27.400625 213.071062)scale(0.12 -0.12)">
       <defs>
        <path d="M 2034 2216 
Q 1584 2216 1326 1975 
Q 1069 1734 1069 1313 
Q 1069 891 1326 650 
Q 1584 409 2034 409 
Q 2484 409 2743 651 
Q 3003 894 3003 1313 
Q 3003 1734 2745 1975 
Q 2488 2216 2034 2216 
z
M 1403 2484 
Q 997 2584 770 2862 
Q 544 3141 544 3541 
Q 544 4100 942 4425 
Q 1341 4750 2034 4750 
Q 2731 4750 3128 4425 
Q 3525 4100 3525 3541 
Q 3525 3141 3298 2862 
Q 3072 2584 2669 2484 
Q 3125 2378 3379 2068 
Q 3634 1759 3634 1313 
Q 3634 634 3220 271 
Q 2806 -91 2034 -91 
Q 1263 -91 848 271 
Q 434 634 434 1313 
Q 434 1759 690 2068 
Q 947 2378 1403 2484 
z
M 1172 3481 
Q 1172 3119 1398 2916 
Q 1625 2713 2034 2713 
Q 2441 2713 2670 2916 
Q 2900 3119 2900 3481 
Q 2900 3844 2670 4047 
Q 2441 4250 2034 4250 
Q 1625 4250 1398 4047 
Q 1172 3844 1172 3481 
z
" id="DejaVuSans-38" transform="scale(0.015625)"/>
       </defs>
       <use xlink:href="#DejaVuSans-2d"/>
       <use x="36.083984" xlink:href="#DejaVuSans-38"/>
       <use x="99.707031" xlink:href="#DejaVuSans-30"/>
      </g>
     </g>
    </g>
    <g id="ytick_3">
     <g id="line2d_12">
      <g>
       <use style="stroke:#000000;stroke-width:0.8;" x="54" xlink:href="#m69caac33b7" y="179.52"/>
      </g>
     </g>
     <g id="text_13">
      <!-- -60 -->
      <g transform="translate(27.400625 184.079062)scale(0.12 -0.12)">
       <defs>
        <path d="M 2113 2584 
Q 1688 2584 1439 2293 
Q 1191 2003 1191 1497 
Q 1191 994 1439 701 
Q 1688 409 2113 409 
Q 2538 409 2786 701 
Q 3034 994 3034 1497 
Q 3034 2003 2786 2293 
Q 2538 2584 2113 2584 
z
M 3366 4563 
L 3366 3988 
Q 3128 4100 2886 4159 
Q 2644 4219 2406 4219 
Q 1781 4219 1451 3797 
Q 1122 3375 1075 2522 
Q 1259 2794 1537 2939 
Q 1816 3084 2150 3084 
Q 2853 3084 3261 2657 
Q 3669 2231 3669 1497 
Q 3669 778 3244 343 
Q 2819 -91 2113 -91 
Q 1303 -91 875 529 
Q 447 1150 447 2328 
Q 447 3434 972 4092 
Q 1497 4750 2381 4750 
Q 2619 4750 2861 4703 
Q 3103 4656 3366 4563 
z
" id="DejaVuSans-36" transform="scale(0.015625)"/>
       </defs>
       <use xlink:href="#DejaVuSans-2d"/>
       <use x="36.083984" xlink:href="#DejaVuSans-36"/>
       <use x="99.707031" xlink:href="#DejaVuSans-30"/>
      </g>
     </g>
    </g>
    <g id="ytick_4">
     <g id="line2d_13">
      <g>
       <use style="stroke:#000000;stroke-width:0.8;" x="54" xlink:href="#m69caac33b7" y="150.528"/>
      </g>
     </g>
     <g id="text_14">
      <!-- -40 -->
      <g transform="translate(27.400625 155.087063)scale(0.12 -0.12)">
       <use xlink:href="#DejaVuSans-2d"/>
       <use x="36.083984" xlink:href="#DejaVuSans-34"/>
       <use x="99.707031" xlink:href="#DejaVuSans-30"/>
      </g>
     </g>
    </g>
    <g id="ytick_5">
     <g id="line2d_14">
      <g>
       <use style="stroke:#000000;stroke-width:0.8;" x="54" xlink:href="#m69caac33b7" y="121.536"/>
      </g>
     </g>
     <g id="text_15">
      <!-- -20 -->
      <g transform="translate(27.400625 126.095062)scale(0.12 -0.12)">
       <use xlink:href="#DejaVuSans-2d"/>
       <use x="36.083984" xlink:href="#DejaVuSans-32"/>
       <use x="99.707031" xlink:href="#DejaVuSans-30"/>
      </g>
     </g>
    </g>
    <g id="ytick_6">
     <g id="line2d_15">
      <g>
       <use style="stroke:#000000;stroke-width:0.8;" x="54" xlink:href="#m69caac33b7" y="92.544"/>
      </g>
     </g>
     <g id="text_16">
      <!-- 0 -->
      <g transform="translate(39.365 97.103062)scale(0.12 -0.12)">
       <use xlink:href="#DejaVuSans-30"/>
      </g>
     </g>
    </g>
    <g id="ytick_7">
     <g id="line2d_16">
      <g>
       <use style="stroke:#000000;stroke-width:0.8;" x="54" xlink:href="#m69caac33b7" y="63.552"/>
      </g>
     </g>
     <g id="text_17">
      <!-- 20 -->
      <g transform="translate(31.73 68.111063)scale(0.12 -0.12)">
       <use xlink:href="#DejaVuSans-32"/>
       <use x="63.623047" xlink:href="#DejaVuSans-30"/>
      </g>
     </g>
    </g>
    <g id="ytick_8">
     <g id="line2d_17">
      <g>
       <use style="stroke:#000000;stroke-width:0.8;" x="54" xlink:href="#m69caac33b7" y="34.56"/>
      </g>
     </g>
     <g id="text_18">
      <!-- 40 -->
      <g transform="translate(31.73 39.119062)scale(0.12 -0.12)">
       <use xlink:href="#DejaVuSans-34"/>
       <use x="63.623047" xlink:href="#DejaVuSans-30"/>
      </g>
     </g>
    </g>
    <g id="text_19">
     <!-- Membrane potential (mV) -->
     <g transform="translate(13.27 220.574062)rotate(-90)scale(0.12 -0.12)">
      <defs>
       <path d="M 628 4666 
L 1569 4666 
L 2759 1491 
L 3956 4666 
L 4897 4666 
L 4897 0 
L 4281 0 
L 4281 4097 
L 3078 897 
L 2444 897 
L 1241 4097 
L 1241 0 
L 628 0 
L 628 4666 
z
" id="DejaVuSans-4d" transform="scale(0.015625)"/>
       <path d="M 3116 1747 
Q 3116 2381 2855 2742 
Q 2594 3103 2138 3103 
Q 1681 3103 1420 2742 
Q 1159 2381 1159 1747 
Q 1159 1113 1420 752 
Q 1681 391 2138 391 
Q 2594 391 2855 752 
Q 3116 1113 3116 1747 
z
M 1159 2969 
Q 1341 3281 1617 3432 
Q 1894 3584 2278 3584 
Q 2916 3584 3314 3078 
Q 3713 2572 3713 1747 
Q 3713 922 3314 415 
Q 2916 -91 2278 -91 
Q 1894 -91 1617 61 
Q 1341 213 1159 525 
L 1159 0 
L 581 0 
L 581 4863 
L 1159 4863 
L 1159 2969 
z
" id="DejaVuSans-62" transform="scale(0.015625)"/>
       <path d="M 2631 2963 
Q 2534 3019 2420 3045 
Q 2306 3072 2169 3072 
Q 1681 3072 1420 2755 
Q 1159 2438 1159 1844 
L 1159 0 
L 581 0 
L 581 3500 
L 1159 3500 
L 1159 2956 
Q 1341 3275 1631 3429 
Q 1922 3584 2338 3584 
Q 2397 3584 2469 3576 
Q 2541 3569 2628 3553 
L 2631 2963 
z
" id="DejaVuSans-72" transform="scale(0.015625)"/>
       <path d="M 2194 1759 
Q 1497 1759 1228 1600 
Q 959 1441 959 1056 
Q 959 750 1161 570 
Q 1363 391 1709 391 
Q 2188 391 2477 730 
Q 2766 1069 2766 1631 
L 2766 1759 
L 2194 1759 
z
M 3341 1997 
L 3341 0 
L 2766 0 
L 2766 531 
Q 2569 213 2275 61 
Q 1981 -91 1556 -91 
Q 1019 -91 701 211 
Q 384 513 384 1019 
Q 384 1609 779 1909 
Q 1175 2209 1959 2209 
L 2766 2209 
L 2766 2266 
Q 2766 2663 2505 2880 
Q 2244 3097 1772 3097 
Q 1472 3097 1187 3025 
Q 903 2953 641 2809 
L 641 3341 
Q 956 3463 1253 3523 
Q 1550 3584 1831 3584 
Q 2591 3584 2966 3190 
Q 3341 2797 3341 1997 
z
" id="DejaVuSans-61" transform="scale(0.015625)"/>
       <path d="M 3513 2113 
L 3513 0 
L 2938 0 
L 2938 2094 
Q 2938 2591 2744 2837 
Q 2550 3084 2163 3084 
Q 1697 3084 1428 2787 
Q 1159 2491 1159 1978 
L 1159 0 
L 581 0 
L 581 3500 
L 1159 3500 
L 1159 2956 
Q 1366 3272 1645 3428 
Q 1925 3584 2291 3584 
Q 2894 3584 3203 3211 
Q 3513 2838 3513 2113 
z
" id="DejaVuSans-6e" transform="scale(0.015625)"/>
       <path id="DejaVuSans-20" transform="scale(0.015625)"/>
       <path d="M 1159 525 
L 1159 -1331 
L 581 -1331 
L 581 3500 
L 1159 3500 
L 1159 2969 
Q 1341 3281 1617 3432 
Q 1894 3584 2278 3584 
Q 2916 3584 3314 3078 
Q 3713 2572 3713 1747 
Q 3713 922 3314 415 
Q 2916 -91 2278 -91 
Q 1894 -91 1617 61 
Q 1341 213 1159 525 
z
M 3116 1747 
Q 3116 2381 2855 2742 
Q 2594 3103 2138 3103 
Q 1681 3103 1420 2742 
Q 1159 2381 1159 1747 
Q 1159 1113 1420 752 
Q 1681 391 2138 391 
Q 2594 391 2855 752 
Q 3116 1113 3116 1747 
z
" id="DejaVuSans-70" transform="scale(0.015625)"/>
       <path d="M 1959 3097 
Q 1497 3097 1228 2736 
Q 959 2375 959 1747 
Q 959 1119 1226 758 
Q 1494 397 1959 397 
Q 2419 397 2687 759 
Q 2956 1122 2956 1747 
Q 2956 2369 2687 2733 
Q 2419 3097 1959 3097 
z
M 1959 3584 
Q 2709 3584 3137 3096 
Q 3566 2609 3566 1747 
Q 3566 888 3137 398 
Q 2709 -91 1959 -91 
Q 1206 -91 779 398 
Q 353 888 353 1747 
Q 353 2609 779 3096 
Q 1206 3584 1959 3584 
z
" id="DejaVuSans-6f" transform="scale(0.015625)"/>
       <path d="M 1172 4494 
L 1172 3500 
L 2356 3500 
L 2356 3053 
L 1172 3053 
L 1172 1153 
Q 1172 725 1289 603 
Q 1406 481 1766 481 
L 2356 481 
L 2356 0 
L 1766 0 
Q 1100 0 847 248 
Q 594 497 594 1153 
L 594 3053 
L 172 3053 
L 172 3500 
L 594 3500 
L 594 4494 
L 1172 4494 
z
" id="DejaVuSans-74" transform="scale(0.015625)"/>
       <path d="M 603 4863 
L 1178 4863 
L 1178 0 
L 603 0 
L 603 4863 
z
" id="DejaVuSans-6c" transform="scale(0.015625)"/>
       <path d="M 1831 0 
L 50 4666 
L 709 4666 
L 2188 738 
L 3669 4666 
L 4325 4666 
L 2547 0 
L 1831 0 
z
" id="DejaVuSans-56" transform="scale(0.015625)"/>
      </defs>
      <use xlink:href="#DejaVuSans-4d"/>
      <use x="86.279297" xlink:href="#DejaVuSans-65"/>
      <use x="147.802734" xlink:href="#DejaVuSans-6d"/>
      <use x="245.214844" xlink:href="#DejaVuSans-62"/>
      <use x="308.691406" xlink:href="#DejaVuSans-72"/>
      <use x="349.804688" xlink:href="#DejaVuSans-61"/>
      <use x="411.083984" xlink:href="#DejaVuSans-6e"/>
      <use x="474.462891" xlink:href="#DejaVuSans-65"/>
      <use x="535.986328" xlink:href="#DejaVuSans-20"/>
      <use x="567.773438" xlink:href="#DejaVuSans-70"/>
      <use x="631.25" xlink:href="#DejaVuSans-6f"/>
      <use x="692.431641" xlink:href="#DejaVuSans-74"/>
      <use x="731.640625" xlink:href="#DejaVuSans-65"/>
      <use x="793.164062" xlink:href="#DejaVuSans-6e"/>
      <use x="856.542969" xlink:href="#DejaVuSans-74"/>
      <use x="895.751953" xlink:href="#DejaVuSans-69"/>
      <use x="923.535156" xlink:href="#DejaVuSans-61"/>
      <use x="984.814453" xlink:href="#DejaVuSans-6c"/>
      <use x="1012.597656" xlink:href="#DejaVuSans-20"/>
      <use x="1044.384766" xlink:href="#DejaVuSans-28"/>
      <use x="1083.398438" xlink:href="#DejaVuSans-6d"/>
      <use x="1180.810547" xlink:href="#DejaVuSans-56"/>
      <use x="1249.21875" xlink:href="#DejaVuSans-29"/>
     </g>
    </g>
   </g>
   <g id="line2d_18">
    <path clip-path="url(#pb2011a88cf)" d="M 69.218182 217.321219 
L 69.333763 217.135525 
L 69.37229 217.163213 
L 69.564925 217.550401 
L 69.641979 217.456902 
L 69.75756 217.524743 
L 70.104304 218.009489 
L 70.181358 218.033988 
L 70.451047 217.084644 
L 70.489574 217.110882 
L 70.643682 217.480095 
L 70.951899 218.162712 
L 71.106007 218.326082 
L 71.144534 218.256791 
L 71.414223 217.674197 
L 71.45275 217.689563 
L 71.606858 217.964987 
L 72.647089 220.568613 
L 72.76267 220.340446 
L 72.955305 219.591873 
L 73.14794 219.11075 
L 73.263521 219.009713 
L 73.456157 217.488068 
L 73.957008 213.545881 
L 74.265224 211.193035 
L 74.303751 211.214344 
L 74.45786 211.750551 
L 74.689022 212.403596 
L 74.997238 213.408749 
L 75.074292 213.3325 
L 75.382509 212.374314 
L 75.729252 211.172741 
L 75.844833 211.296682 
L 75.88336 211.335676 
L 75.921887 211.278707 
L 76.307158 210.201654 
L 76.422739 210.37981 
L 76.615374 211.144184 
L 76.692428 211.093448 
L 77.000644 210.34241 
L 77.308861 209.988273 
L 77.462969 210.43127 
L 77.809712 212.555369 
L 77.96382 213.143182 
L 78.426145 211.693147 
L 78.541726 211.885944 
L 78.734361 212.35373 
L 78.772888 212.326477 
L 78.965524 212.221092 
L 79.158159 212.542468 
L 79.235213 212.443895 
L 79.312267 212.469988 
L 79.543429 212.920524 
L 79.620483 212.853842 
L 80.082808 212.487528 
L 80.31397 212.074827 
L 80.506605 212.298645 
L 80.583659 212.205436 
L 80.699241 212.260086 
L 80.776295 212.310387 
L 80.814822 212.259216 
L 81.007457 212.02902 
L 81.045984 212.055402 
L 81.200092 211.902469 
L 81.508308 210.822083 
L 81.585362 210.920945 
L 81.777998 211.569786 
L 81.855052 211.461501 
L 82.00916 211.273778 
L 82.124741 211.510208 
L 82.548539 212.704823 
L 82.587066 212.690617 
L 82.702647 212.574359 
L 82.972336 211.532966 
L 83.126444 211.77331 
L 83.280552 212.007565 
L 83.434661 211.734026 
L 83.473188 211.775484 
L 83.781404 212.121794 
L 84.08962 213.685477 
L 84.590472 216.535971 
L 84.628999 216.529303 
L 84.706053 216.402463 
L 84.937215 215.936416 
L 84.975742 215.970192 
L 85.014269 215.912933 
L 85.206904 215.487765 
L 85.322486 215.594891 
L 85.630702 214.867771 
L 85.746283 215.023023 
L 86.015972 216.002953 
L 86.247135 216.476392 
L 86.324189 216.537276 
L 86.362716 216.488134 
L 86.555351 215.639683 
L 87.056203 212.631183 
L 87.09473 212.656406 
L 87.248838 213.013153 
L 87.595581 214.587853 
L 87.86527 215.452685 
L 87.942325 215.43529 
L 88.13496 215.285256 
L 88.250541 215.385858 
L 88.443176 214.931409 
L 88.597284 214.99896 
L 88.789919 214.368964 
L 89.098136 213.141588 
L 89.213717 213.177538 
L 89.406352 213.780136 
L 89.56046 214.323012 
L 89.598987 214.269666 
L 89.83015 213.195948 
L 90.061312 212.348656 
L 90.176893 212.575664 
L 90.369528 212.927482 
L 90.60069 213.195078 
L 90.831853 213.897554 
L 90.947434 214.197911 
L 90.985961 214.139057 
L 91.332704 212.641041 
L 91.371231 212.67815 
L 91.602394 213.177248 
L 91.679448 213.109406 
L 91.833556 212.446069 
L 92.103245 211.557175 
L 92.29588 211.404967 
L 92.912313 206.9157 
L 92.989367 206.874097 
L 93.027894 206.940344 
L 93.451692 208.516349 
L 93.798435 210.801353 
L 93.99107 211.728807 
L 94.145178 211.441062 
L 94.607503 209.651676 
L 94.800138 209.689075 
L 95.069827 209.021824 
L 95.185409 208.785684 
L 95.532152 207.922448 
L 95.647733 208.189754 
L 96.72649 211.738085 
L 96.880598 211.980023 
L 96.919125 212.057722 
L 96.957652 211.973645 
L 97.073234 211.772295 
L 97.111761 211.79056 
L 97.188815 211.767802 
L 97.497031 210.980524 
L 97.651139 210.718726 
L 97.76672 211.001108 
L 97.959356 211.441497 
L 98.151991 210.853249 
L 98.537261 209.18389 
L 98.691369 209.378571 
L 99.384856 206.291938 
L 99.46191 206.304404 
L 99.654545 206.805676 
L 99.693072 206.634913 
L 100.617722 201.469553 
L 100.694776 201.529132 
L 100.848884 202.101579 
L 101.195627 204.568943 
L 101.81206 208.854251 
L 102.312911 211.007776 
L 102.46702 211.307264 
L 102.775236 212.741208 
L 102.967871 213.074906 
L 103.044925 212.97068 
L 103.276087 212.403886 
L 103.391669 212.522608 
L 103.622831 212.806585 
L 103.931047 212.725552 
L 103.969574 212.766141 
L 104.008101 212.711636 
L 104.470426 210.272974 
L 105.163913 209.766484 
L 105.664764 207.15184 
L 106.050035 205.949397 
L 106.165616 206.173505 
L 106.358251 206.482995 
L 106.589413 206.370071 
L 106.897629 205.742249 
L 106.936157 205.785302 
L 107.090265 206.254103 
L 107.359954 207.38827 
L 107.398481 207.306658 
L 107.66817 206.170171 
L 107.783751 205.900401 
L 107.822278 205.913012 
L 107.93786 206.147268 
L 107.976387 206.105519 
L 108.32313 205.176325 
L 108.400184 205.287945 
L 108.7084 206.511262 
L 108.785455 206.287734 
L 109.055144 205.536116 
L 109.209252 205.670204 
L 109.401887 206.268164 
L 109.710104 207.650938 
L 109.787158 207.560193 
L 109.979793 206.467774 
L 110.249482 205.218219 
L 110.326536 205.275478 
L 110.480644 205.815599 
L 110.634753 206.274832 
L 110.711807 205.855028 
L 110.981496 204.305406 
L 111.289712 203.481018 
L 111.366766 203.611917 
L 111.752037 205.085436 
L 111.829091 204.927864 
L 112.09878 203.961996 
L 112.214361 204.174362 
L 113.331646 207.828079 
L 113.524281 208.578537 
L 113.832497 209.683422 
L 114.102186 210.244272 
L 114.217768 210.420978 
L 114.256295 210.309794 
L 114.44893 209.613551 
L 114.641565 208.743356 
L 114.718619 208.802935 
L 115.065362 209.577166 
L 115.10389 209.542666 
L 115.219471 209.509905 
L 115.373579 209.916228 
L 115.681795 210.931962 
L 115.797376 210.691908 
L 115.951484 210.466061 
L 115.990012 210.48563 
L 116.105593 210.65045 
L 116.14412 210.529698 
L 116.606444 208.507651 
L 116.722025 208.659714 
L 116.953188 209.682262 
L 117.531093 212.511881 
L 117.608147 212.610164 
L 118.031945 210.612036 
L 118.340161 210.107865 
L 118.378688 210.14164 
L 118.532796 210.59696 
L 118.956594 211.977704 
L 119.341864 213.917703 
L 119.650081 215.282937 
L 119.688608 215.274384 
L 119.804189 215.085356 
L 120.035351 213.172464 
L 120.420621 210.898476 
L 120.497675 210.942399 
L 120.844419 211.460631 
L 120.921473 211.334516 
L 121.152635 210.965013 
L 121.268216 210.910218 
L 121.61496 209.623263 
L 121.807595 209.189543 
L 121.923176 209.422929 
L 122.077284 209.720532 
L 122.424028 209.337692 
L 122.462555 209.383065 
L 122.578136 209.516283 
L 122.616663 209.450471 
L 122.886352 208.985874 
L 123.348677 206.947737 
L 123.425731 206.937444 
L 123.579839 207.449443 
L 123.69542 207.730086 
L 123.733947 207.708632 
L 123.926582 206.597223 
L 124.311853 204.6694 
L 124.427434 204.858573 
L 124.697123 206.025501 
L 125.159448 208.489821 
L 125.236502 208.380811 
L 125.429137 208.072626 
L 125.467664 208.091616 
L 125.621772 208.45851 
L 125.77588 208.744516 
L 126.04557 208.121913 
L 126.507894 206.259756 
L 126.777583 204.90438 
L 126.81611 204.945114 
L 127.008746 205.651504 
L 127.625178 207.515545 
L 127.702232 207.453937 
L 127.856341 207.187211 
L 127.894868 207.206055 
L 128.048976 207.623975 
L 128.395719 209.666461 
L 128.588354 210.181649 
L 128.742463 210.265146 
L 128.935098 210.400829 
L 129.089206 210.641028 
L 129.243314 211.027056 
L 129.281841 210.990091 
L 129.474476 210.392421 
L 130.20649 204.784788 
L 130.245017 204.799864 
L 130.437652 205.180819 
L 130.47618 205.108194 
L 130.745869 203.775432 
L 130.784396 203.784709 
L 131.092612 204.4163 
L 131.323774 205.172122 
L 131.362301 205.044267 
L 131.670518 204.123336 
L 131.747572 204.079268 
L 131.786099 204.130294 
L 132.055788 204.515453 
L 132.325478 204.94294 
L 132.364005 204.81726 
L 132.710748 203.736148 
L 132.787802 203.787319 
L 132.903383 203.945325 
L 133.250127 202.948435 
L 133.288654 202.973513 
L 133.442762 203.453041 
L 133.673924 204.064917 
L 133.828032 204.61736 
L 134.174776 205.936641 
L 134.521519 208.208889 
L 135.330587 213.622565 
L 135.638803 214.277494 
L 135.831438 214.488991 
L 135.94702 214.644678 
L 135.985547 214.564805 
L 136.293763 213.956698 
L 136.409344 213.72882 
L 136.640506 212.714825 
L 137.102831 208.94659 
L 137.449574 207.93187 
L 137.603682 208.063784 
L 137.873372 208.608108 
L 137.911899 208.581001 
L 138.836548 202.716499 
L 138.952129 202.847253 
L 139.183291 203.543351 
L 139.72267 205.395505 
L 140.146467 207.64108 
L 140.493211 209.767933 
L 140.531738 209.733143 
L 140.839954 208.170039 
L 140.917008 208.244259 
L 141.109643 208.938037 
L 141.80313 212.309227 
L 141.841657 212.20848 
L 142.303982 209.590792 
L 142.535144 208.581581 
L 142.650725 208.737703 
L 142.804833 209.192732 
L 142.881887 209.131559 
L 142.958941 209.182585 
L 143.228631 209.919707 
L 143.305685 209.748074 
L 143.421266 209.348129 
L 143.729482 207.526707 
L 144.15328 204.303666 
L 144.384442 203.352729 
L 144.731185 203.796161 
L 145.232037 205.221118 
L 145.270564 205.186618 
L 145.386145 204.020414 
L 146.195213 195.079716 
L 146.349321 194.294033 
L 146.387848 194.320706 
L 146.657537 194.880107 
L 146.927227 196.855766 
L 147.428078 200.399893 
L 148.083038 203.429992 
L 148.121565 203.314894 
L 148.815052 200.497741 
L 148.96916 200.406127 
L 149.123268 200.792155 
L 149.585593 201.819342 
L 149.893809 203.658304 
L 150.317606 206.134076 
L 150.394661 206.222212 
L 150.433188 206.111462 
L 150.66435 205.481321 
L 150.779931 205.705429 
L 151.04962 206.981367 
L 151.126674 206.71899 
L 151.357837 205.924319 
L 151.666053 206.15756 
L 151.935742 205.954326 
L 152.243959 205.910113 
L 152.436594 204.455439 
L 152.783337 201.349961 
L 152.860391 201.399248 
L 153.014499 201.993729 
L 153.39977 203.589448 
L 153.630932 203.400565 
L 153.669459 203.476814 
L 153.862094 204.332803 
L 154.208838 206.399208 
L 154.247365 206.389641 
L 154.594108 205.155161 
L 154.671162 205.225177 
L 154.748216 205.295772 
L 155.09496 204.131889 
L 155.364649 203.086002 
L 155.403176 203.107601 
L 155.557284 203.530305 
L 155.942555 205.264751 
L 156.019609 205.077028 
L 156.828677 198.405099 
L 157.136893 196.73284 
L 157.213947 196.883454 
L 157.522163 198.374802 
L 157.637745 198.045888 
L 157.753326 197.89339 
L 157.791853 197.941227 
L 158.177123 199.115838 
L 158.755029 202.011704 
L 158.909137 202.598937 
L 159.25588 205.205607 
L 159.641151 207.978257 
L 159.679678 207.907517 
L 160.026421 206.113202 
L 160.29611 204.68984 
L 160.527273 204.222199 
L 160.642854 204.439929 
L 160.796962 204.644612 
L 161.066651 203.353308 
L 161.105178 203.393897 
L 161.297814 203.87415 
L 161.336341 203.792682 
L 161.451922 203.661348 
L 161.490449 203.705706 
L 161.644557 204.283517 
L 162.26099 207.175759 
L 162.723314 208.559692 
L 162.838895 208.285428 
L 162.993003 208.073786 
L 163.147112 208.385885 
L 163.185639 208.260929 
L 163.455328 206.507203 
L 163.493855 206.521264 
L 163.609436 206.847714 
L 163.879125 207.595853 
L 164.071761 207.884468 
L 164.187342 208.197437 
L 164.264396 208.139163 
L 164.34145 208.213817 
L 164.572612 208.897884 
L 164.649666 208.717988 
L 164.765247 208.501563 
L 164.803774 208.523742 
L 164.99641 208.691171 
L 165.034937 208.648407 
L 165.304626 208.269772 
L 165.343153 208.321957 
L 165.497261 208.83671 
L 165.882532 211.21217 
L 166.498964 214.769778 
L 166.576018 214.796451 
L 166.653072 214.434051 
L 166.961289 212.691052 
L 167.153924 212.484194 
L 167.230978 212.448534 
L 167.500667 211.842601 
L 167.616249 211.908703 
L 167.770357 211.126933 
L 168.001519 210.037414 
L 168.078573 210.077858 
L 168.232681 210.39474 
L 168.271208 210.30443 
L 168.463843 209.121557 
L 168.656479 208.272526 
L 168.77206 208.472571 
L 169.118803 209.045888 
L 169.311438 208.567375 
L 169.349965 208.591438 
L 169.735236 209.468301 
L 169.927871 210.044372 
L 169.966398 210.029876 
L 170.043452 209.838094 
L 170.236087 207.441036 
L 170.46725 205.677597 
L 170.544304 205.628166 
L 170.582831 205.667595 
L 170.698412 205.779649 
L 170.813993 204.910614 
L 171.045155 203.541032 
L 171.160736 203.457825 
L 171.314845 203.120503 
L 171.468953 202.837396 
L 171.584534 203.065708 
L 171.815696 204.242058 
L 171.969804 205.026872 
L 172.008331 205.004838 
L 172.200967 204.602719 
L 172.239494 204.621564 
L 172.509183 204.873359 
L 172.701818 204.843207 
L 172.894453 204.623593 
L 173.010035 204.810156 
L 173.241197 205.854883 
L 173.58794 207.409434 
L 173.742048 207.490467 
L 173.934684 208.24078 
L 174.088792 208.976162 
L 174.127319 208.919628 
L 174.435535 207.546276 
L 174.551116 207.768645 
L 174.820806 209.102422 
L 175.475765 213.047508 
L 175.514292 212.903128 
L 176.400414 206.756389 
L 176.824212 202.490217 
L 176.939793 202.554869 
L 177.325063 201.40838 
L 177.402117 201.322564 
L 177.440644 201.367067 
L 177.594753 202.045189 
L 178.01855 205.614684 
L 178.326766 207.609914 
L 178.442348 207.773719 
L 178.480875 207.73168 
L 178.866145 206.741748 
L 178.981726 206.929327 
L 179.097307 207.107338 
L 179.135834 207.094726 
L 179.251415 206.988905 
L 179.366997 206.641001 
L 179.752267 204.09188 
L 179.790794 204.116088 
L 179.906375 204.333963 
L 179.983429 204.273804 
L 180.060483 204.369768 
L 180.561335 205.908084 
L 180.638389 205.762689 
L 181.062186 205.240833 
L 181.485984 206.090878 
L 182.564741 210.805702 
L 182.680322 210.931962 
L 182.83443 211.288274 
L 182.872957 211.148243 
L 183.219701 209.738796 
L 183.527917 208.98225 
L 183.643498 209.073575 
L 183.836133 209.450036 
L 184.259931 210.644507 
L 184.452566 210.348933 
L 184.606674 210.779899 
L 185.531323 214.41796 
L 185.608377 214.49218 
L 185.878067 213.9293 
L 186.032175 214.033526 
L 186.070702 213.96554 
L 186.494499 211.329443 
L 186.87977 211.535866 
L 186.995351 211.403517 
L 187.303567 210.887604 
L 187.457675 211.168682 
L 187.688838 211.960308 
L 187.804419 211.893047 
L 187.92 211.872753 
L 187.997054 211.607621 
L 188.343797 209.158087 
L 188.459379 209.326675 
L 189.114338 211.755625 
L 189.229919 212.17369 
L 189.268446 212.143973 
L 189.345501 211.620667 
L 189.769298 206.009845 
L 190.00046 205.235034 
L 190.308677 204.305696 
L 190.424258 204.311059 
L 190.578366 204.664037 
L 191.425961 208.44068 
L 191.541542 208.793512 
L 191.580069 208.731035 
L 191.811231 207.873451 
L 192.157975 206.027531 
L 192.389137 205.937076 
L 192.697353 204.853644 
L 192.774407 204.6536 
L 193.044097 203.357657 
L 193.082624 203.36621 
L 193.313786 203.421585 
L 193.77611 204.889015 
L 193.853165 204.853644 
L 194.084327 204.736952 
L 194.199908 204.773192 
L 194.546651 204.251916 
L 194.585178 204.308595 
L 194.739287 204.888145 
L 194.931922 205.41493 
L 195.201611 204.61736 
L 195.355719 203.065853 
L 195.779517 199.584204 
L 195.856571 199.587683 
L 195.972152 199.785118 
L 196.010679 199.718726 
L 196.087733 199.685096 
L 196.12626 199.746414 
L 196.357422 200.399459 
L 196.742693 197.759882 
L 197.089436 197.703058 
L 197.397652 197.940067 
L 197.628815 199.191942 
L 197.898504 200.226521 
L 197.975558 200.198399 
L 198.014085 200.24841 
L 198.322301 200.791865 
L 198.514937 199.671035 
L 198.669045 198.09155 
L 199.054315 192.724406 
L 199.131369 192.520593 
L 199.169896 192.534654 
L 199.246951 192.631632 
L 199.285478 192.573503 
L 199.439586 191.827539 
L 199.863383 189.036334 
L 200.248654 189.017924 
L 200.710978 188.847596 
L 200.749505 188.916017 
L 200.788032 188.872239 
L 201.019194 188.572607 
L 201.943843 187.051687 
L 202.059425 186.935719 
L 202.367641 187.58398 
L 203.407871 193.008818 
L 203.639033 194.190822 
L 203.94725 195.274833 
L 204.101358 195.308173 
L 204.178412 195.37645 
L 204.216939 195.312232 
L 204.486628 195.156545 
L 204.602209 195.489084 
L 205.257169 198.243324 
L 205.796548 199.452435 
L 205.912129 199.073075 
L 206.143291 198.380021 
L 206.258872 198.606593 
L 206.41298 199.032776 
L 206.451507 198.968848 
L 206.567089 198.815481 
L 206.605616 198.83534 
L 206.68267 198.959136 
L 206.721197 198.926955 
L 207.299102 197.647393 
L 207.607319 197.705812 
L 207.799954 198.219115 
L 207.877008 198.16693 
L 208.185224 198.068937 
L 208.339333 198.586154 
L 208.994292 201.493037 
L 209.071346 201.643795 
L 209.109873 201.606106 
L 209.225455 201.584652 
L 209.456617 200.642991 
L 209.495144 200.670969 
L 209.649252 201.061346 
L 209.918941 202.597487 
L 210.304212 204.637654 
L 211.88382 213.646193 
L 212.076456 214.153553 
L 212.15351 214.099338 
L 212.461726 213.099839 
L 213.155213 209.499612 
L 213.386375 209.231292 
L 213.424902 209.284637 
L 213.694591 209.94203 
L 213.771646 209.848676 
L 213.964281 209.554407 
L 214.118389 208.332105 
L 214.465132 205.517851 
L 214.542186 205.452474 
L 214.580713 205.494948 
L 214.811876 206.271063 
L 215.235673 207.821411 
L 215.505362 209.101552 
L 215.582417 209.450906 
L 215.620944 209.406548 
L 215.890633 206.598238 
L 216.121795 205.279392 
L 216.198849 205.239673 
L 216.237376 205.28664 
L 216.391484 205.826471 
L 217.007917 208.529395 
L 217.239079 209.52498 
L 217.701404 211.650239 
L 217.932566 211.327413 
L 218.163728 210.981684 
L 218.202255 211.019083 
L 218.356364 211.214924 
L 218.587526 210.601453 
L 218.703107 210.83078 
L 218.972796 211.859851 
L 219.011323 211.722574 
L 219.281013 210.900796 
L 219.396594 210.79541 
L 219.512175 210.281527 
L 220.090081 205.386517 
L 220.244189 205.333897 
L 220.35977 204.715932 
L 220.590932 201.350106 
L 220.899148 197.18613 
L 221.053257 196.710372 
L 221.168838 196.95202 
L 221.322946 197.493011 
L 221.4 197.466048 
L 221.477054 197.437636 
L 221.592635 197.298909 
L 221.631162 197.333265 
L 221.78527 197.925281 
L 222.748446 203.119488 
L 222.864028 203.374328 
L 222.902555 203.334464 
L 223.827204 199.88688 
L 224.212474 197.537078 
L 224.289528 197.502578 
L 224.328055 197.557953 
L 224.482163 197.909191 
L 224.713326 196.413783 
L 224.983015 194.723985 
L 225.060069 194.785883 
L 225.214177 195.369202 
L 225.329758 195.965712 
L 225.368285 195.946577 
L 225.522394 194.681366 
L 225.907664 191.975543 
L 225.984718 191.995837 
L 226.292934 192.880818 
L 226.48557 193.425143 
L 226.524097 193.368464 
L 226.909367 191.982501 
L 227.179056 190.904144 
L 227.294638 190.858626 
L 227.641381 189.620378 
L 227.91107 185.921289 
L 228.373395 179.805716 
L 228.681611 176.964355 
L 228.9513 171.463848 
L 229.105409 162.640858 
L 229.143936 156.006473 
L 229.22099 59.181891 
L 229.259517 148.263725 
L 229.413625 209.477434 
L 229.452152 209.146635 
L 229.953003 195.389641 
L 230.569436 185.15387 
L 230.839125 183.472624 
L 231.070288 182.088111 
L 231.571139 178.170422 
L 231.68672 178.076053 
L 231.802301 177.265727 
L 231.994937 173.254104 
L 232.149045 165.189979 
L 232.226099 143.017332 
L 232.264626 37.318879 
L 232.303153 103.671999 
L 232.457261 208.414007 
L 232.495788 208.849032 
L 232.919586 197.672181 
L 234.113924 186.518234 
L 234.460667 183.467841 
L 234.845938 178.183614 
L 235.192681 170.062955 
L 235.346789 162.405153 
L 235.385316 157.216744 
L 235.423843 135.943574 
L 235.462371 48.390634 
L 235.500898 129.412112 
L 235.655006 207.224175 
L 235.693533 207.267663 
L 236.309965 190.910667 
L 236.656709 186.802356 
L 236.849344 185.498005 
L 237.581358 177.401844 
L 237.773993 172.058909 
L 237.928101 163.333621 
L 237.966628 157.478397 
L 238.043682 50.529373 
L 238.082209 135.224138 
L 238.236318 209.349869 
L 238.313372 207.268968 
L 238.621588 198.099668 
L 239.353602 182.926415 
L 239.50771 181.828923 
L 239.970035 173.682316 
L 240.16267 166.737717 
L 240.239724 158.102305 
L 240.316778 47.396063 
L 240.355305 128.207784 
L 240.509413 208.412268 
L 240.54794 208.091761 
L 241.010265 193.804938 
L 241.357008 190.264 
L 241.626697 187.674145 
L 242.011968 180.069398 
L 242.397238 167.954801 
L 242.512819 155.739022 
L 242.589873 62.433489 
L 242.743982 207.308687 
L 242.782509 210.209482 
L 242.859563 208.633766 
L 243.206306 201.015104 
L 243.976847 192.871976 
L 244.092428 192.94837 
L 244.400644 193.668821 
L 244.439171 193.578366 
L 244.708861 191.883348 
L 245.017077 186.824389 
L 245.672037 174.256647 
L 245.826145 166.960086 
L 245.903199 153.768871 
L 245.941726 34.948783 
L 245.980253 76.849181 
L 246.134361 210.459972 
L 246.172888 211.03068 
L 246.712267 190.303719 
L 247.020483 185.981302 
L 247.290173 184.867429 
L 247.675443 182.780005 
L 247.945132 178.761424 
L 248.253349 168.922409 
L 248.36893 159.936484 
L 248.407457 148.003522 
L 248.445984 36.482894 
L 248.484511 97.731539 
L 248.638619 208.164821 
L 248.677146 208.987034 
L 248.715673 207.96724 
L 249.139471 195.069134 
L 249.678849 186.801486 
L 250.06412 180.916835 
L 250.564971 169.577194 
L 250.680552 158.887988 
L 250.719079 138.07956 
L 250.757606 43.571728 
L 250.796133 120.296302 
L 250.950242 209.974936 
L 250.988769 209.67139 
L 251.528147 191.476736 
L 252.52985 166.494764 
L 252.606904 159.865453 
L 252.645432 149.517919 
L 252.683959 37.861899 
L 252.722486 94.723908 
L 252.876594 207.273897 
L 252.915121 207.801696 
L 253.608608 185.013984 
L 254.263567 166.913409 
L 254.340621 160.244089 
L 254.379148 149.928156 
L 254.417675 36.736864 
L 254.456203 92.333518 
L 254.610311 207.514965 
L 254.648838 208.115969 
L 255.419379 184.702175 
L 256.074338 169.652573 
L 256.189919 161.300123 
L 256.228446 152.275928 
L 256.266974 37.696355 
L 256.305501 81.632281 
L 256.459609 207.894325 
L 256.498136 208.80366 
L 256.536663 207.258531 
L 256.96046 189.794765 
L 257.384258 179.023512 
L 257.769528 167.924505 
L 257.885109 159.241546 
L 257.923636 147.5914 
L 257.962163 38.652656 
L 258.00069 101.673726 
L 258.154799 206.926283 
L 258.193326 207.358843 
L 258.578596 198.20346 
L 259.040921 194.979694 
L 259.31061 193.898292 
L 259.657353 192.558137 
L 260.35084 189.888699 
L 260.466421 189.950887 
L 260.659056 190.469409 
L 260.928746 191.020547 
L 261.198435 191.017502 
L 261.275489 191.134195 
L 261.314016 191.106943 
L 262.354246 188.528249 
L 262.469827 188.70597 
L 262.739517 189.998144 
L 263.201841 191.544287 
L 263.317422 190.700475 
L 263.856801 185.582662 
L 264.39618 181.251112 
L 264.550288 181.233137 
L 264.704396 181.467248 
L 264.742923 181.409409 
L 264.897031 180.417737 
L 265.320829 175.246289 
L 265.551991 169.476591 
L 265.667572 159.715565 
L 265.706099 144.081339 
L 265.744626 37.220016 
L 265.783153 102.663658 
L 265.937261 207.259836 
L 265.975788 208.475615 
L 266.014315 207.992608 
L 266.284005 204.0913 
L 266.47664 203.739337 
L 266.630748 203.029033 
L 267.093072 200.88203 
L 267.170127 200.835063 
L 267.439816 199.847306 
L 267.478343 199.877892 
L 267.786559 200.233769 
L 267.940667 200.271169 
L 268.094776 200.658792 
L 268.402992 201.841086 
L 268.5571 202.295245 
L 268.788262 202.028519 
L 268.942371 202.346416 
L 269.019425 202.232333 
L 269.21206 202.007935 
L 269.327641 202.183191 
L 269.520276 203.061069 
L 270.406398 208.131335 
L 270.444925 208.096255 
L 270.868723 205.615409 
L 271.176939 205.977809 
L 271.908953 208.282093 
L 272.101588 208.325726 
L 272.217169 208.346601 
L 272.371277 208.595062 
L 272.563913 208.025079 
L 272.60244 208.049723 
L 272.756548 208.542152 
L 273.103291 209.502512 
L 273.334453 209.86926 
L 273.604143 211.057498 
L 273.681197 210.828606 
L 273.912359 209.279273 
L 274.143521 208.148585 
L 274.297629 208.243244 
L 274.490265 208.826853 
L 274.759954 209.995231 
L 274.798481 209.886946 
L 275.06817 209.229842 
L 275.183751 209.424958 
L 275.72313 211.380179 
L 275.877238 211.896526 
L 275.915765 211.842311 
L 276.223982 211.37322 
L 276.647779 209.519472 
L 276.724833 209.576586 
L 276.917468 210.121201 
L 277.341266 212.303864 
L 277.880644 214.884152 
L 278.188861 215.764349 
L 278.227388 215.678388 
L 278.574131 213.595312 
L 278.959402 211.35568 
L 279.074983 211.437293 
L 279.691415 213.02359 
L 279.76847 213.210588 
L 279.806997 213.116509 
L 280.577537 210.318057 
L 280.693119 209.865926 
L 280.962808 209.148374 
L 281.078389 209.407998 
L 281.271024 210.039299 
L 281.309551 209.987113 
L 281.84893 208.833666 
L 281.964511 208.886142 
L 282.041565 208.98457 
L 282.272727 208.415747 
L 282.311254 208.458655 
L 282.50389 209.088941 
L 282.696525 209.656459 
L 282.735052 209.623988 
L 282.850633 209.552813 
L 282.88916 209.588618 
L 283.081795 209.920576 
L 283.27443 210.496647 
L 283.312957 210.453304 
L 283.505593 210.179475 
L 283.54412 210.213685 
L 283.698228 210.486935 
L 283.736755 210.435619 
L 284.199079 209.134313 
L 284.622877 206.641146 
L 284.699931 206.753635 
L 284.892566 207.057761 
L 285.046674 207.581937 
L 285.085201 207.475971 
L 285.23931 207.122124 
L 285.277837 207.164742 
L 285.470472 207.278535 
L 285.586053 207.24273 
L 285.971323 206.480386 
L 286.27954 204.63403 
L 286.587756 201.184127 
L 286.741864 200.949872 
L 286.818918 201.021772 
L 286.857445 200.961324 
L 286.973026 200.308424 
L 287.242716 198.731114 
L 287.31977 198.811422 
L 287.512405 199.623633 
L 288.013257 203.251692 
L 289.207595 212.454912 
L 289.246122 212.352425 
L 289.438757 211.043436 
L 289.669919 209.584269 
L 289.785501 209.656169 
L 290.093717 209.59891 
L 290.209298 209.651965 
L 290.517514 210.508244 
L 290.594568 210.734237 
L 290.633096 210.66915 
L 290.787204 210.442867 
L 290.941312 210.756706 
L 290.979839 210.673644 
L 291.365109 208.852221 
L 291.442163 208.7651 
L 291.48069 208.789743 
L 291.634799 209.23709 
L 291.904488 210.007987 
L 292.097123 210.32516 
L 292.174177 210.226587 
L 292.405339 209.865781 
L 292.520921 210.023788 
L 292.983245 210.950517 
L 293.252934 210.892533 
L 293.407043 211.071124 
L 293.44557 211.002848 
L 293.984948 208.553024 
L 294.023475 208.600716 
L 294.293165 209.233031 
L 294.562854 210.066116 
L 294.601381 210.024803 
L 294.716962 209.56354 
L 294.986651 207.356234 
L 295.063705 207.338549 
L 295.217814 207.787925 
L 295.333395 208.016817 
L 295.371922 207.933465 
L 295.641611 207.168511 
L 295.718665 207.269838 
L 295.757192 207.179093 
L 295.949827 206.960203 
L 296.065409 206.977164 
L 296.219517 207.469303 
L 296.373625 207.836486 
L 296.527733 207.6621 
L 296.56626 207.695295 
L 296.643314 207.683264 
L 296.835949 207.294191 
L 296.874476 207.321878 
L 296.95153 207.375369 
L 297.259747 205.791101 
L 297.375328 206.072613 
L 297.645017 207.648183 
L 298.569666 213.794632 
L 298.64672 213.623145 
L 298.800829 212.118605 
L 299.070518 210.28689 
L 299.224626 209.882307 
L 299.263153 209.906515 
L 299.417261 210.329798 
L 299.532842 210.500271 
L 299.571369 210.465046 
L 299.725478 210.272539 
L 299.918113 209.883177 
L 300.149275 210.290079 
L 300.187802 210.207017 
L 300.6116 208.143222 
L 300.688654 208.232952 
L 301.035397 208.782785 
L 301.266559 208.967609 
L 301.497722 209.315803 
L 301.65183 209.663852 
L 302.537952 212.657276 
L 302.653533 212.834997 
L 302.69206 212.79006 
L 302.961749 212.432878 
L 303.308493 212.37185 
L 303.501128 211.720835 
L 303.655236 211.498756 
L 303.809344 211.855068 
L 303.924925 212.121069 
L 303.963452 212.090772 
L 304.156087 211.226086 
L 304.541358 209.114019 
L 304.888101 208.031313 
L 305.003682 208.181056 
L 305.234845 209.12982 
L 305.620115 210.64842 
L 305.928331 210.594495 
L 306.043913 210.574346 
L 306.275075 210.790336 
L 306.313602 210.749023 
L 306.544764 209.886221 
L 306.85298 207.924622 
L 307.546467 205.327809 
L 307.700575 205.282726 
L 308.355535 202.525587 
L 308.471116 202.22407 
L 308.81786 200.633424 
L 309.087549 200.784907 
L 309.241657 200.591386 
L 309.472819 199.398655 
L 309.742509 197.739877 
L 309.819563 197.769449 
L 309.973671 198.320877 
L 310.127779 199.052345 
L 310.166306 198.879553 
L 310.358941 198.012547 
L 310.397468 198.033711 
L 310.590104 198.590503 
L 310.667158 198.445688 
L 311.129482 197.080889 
L 311.168009 197.103793 
L 311.322117 197.349355 
L 311.514753 196.39146 
L 311.784442 194.853869 
L 311.822969 194.872424 
L 311.93855 195.103635 
L 312.285293 196.193734 
L 312.32382 196.149376 
L 312.554983 195.843221 
L 312.632037 195.816258 
L 312.747618 195.413269 
L 313.24847 192.842259 
L 313.364051 193.00128 
L 313.518159 193.092895 
L 313.63374 193.271051 
L 313.864902 194.170527 
L 313.941956 194.032525 
L 314.134591 193.374117 
L 314.404281 191.999896 
L 314.596916 192.186605 
L 315.020713 191.041131 
L 315.136295 190.967636 
L 315.251876 190.686269 
L 315.290403 190.698445 
L 315.405984 191.039971 
L 315.675673 192.918508 
L 316.330633 198.826788 
L 316.407687 198.719227 
L 316.561795 197.744226 
L 316.792957 196.091972 
L 316.870012 196.070228 
L 316.985593 196.386386 
L 317.255282 198.043714 
L 317.910242 203.935758 
L 318.179931 205.551047 
L 318.372566 206.739139 
L 318.411093 206.642016 
L 318.565201 205.811975 
L 319.027526 202.686637 
L 319.10458 202.515585 
L 319.258688 200.683725 
L 319.48985 198.629062 
L 319.566904 198.576876 
L 319.605432 198.630802 
L 319.75954 198.865347 
L 319.798067 198.83447 
L 319.952175 198.734738 
L 320.067756 199.016395 
L 320.722716 202.304088 
L 321.030932 204.669545 
L 321.069459 204.575901 
L 321.223567 204.260178 
L 321.262094 204.288011 
L 321.416203 203.94547 
L 321.45473 203.973882 
L 321.608838 204.495738 
L 322.263797 207.029784 
L 322.302325 206.970495 
L 322.572014 206.283385 
L 322.687595 206.443276 
L 322.726122 206.39312 
L 322.841703 205.728768 
L 323.149919 203.534508 
L 323.226974 203.579736 
L 323.496663 204.305261 
L 323.612244 204.230172 
L 323.766352 204.098693 
L 323.804879 204.132179 
L 323.958987 204.593586 
L 324.228677 205.724274 
L 324.267204 205.594245 
L 324.845109 202.832612 
L 324.883636 202.881754 
L 325.037745 203.424774 
L 325.384488 204.649686 
L 325.461542 204.7442 
L 325.500069 204.664182 
L 326.232083 200.874782 
L 326.347664 200.443092 
L 326.694407 198.593402 
L 326.848516 198.740246 
L 326.887043 198.809247 
L 326.92557 198.729519 
L 327.272313 196.928101 
L 327.426421 197.135249 
L 327.657583 198.018636 
L 328.004327 199.533612 
L 328.428124 198.277099 
L 328.505178 198.198821 
L 328.736341 197.522872 
L 328.774868 197.547371 
L 328.928976 197.965435 
L 329.429827 200.04851 
L 329.506881 199.990236 
L 329.622463 200.046916 
L 329.776571 200.152012 
L 329.930679 200.094898 
L 330.04626 200.145344 
L 330.238895 200.386267 
L 330.508585 200.507889 
L 330.547112 200.41265 
L 330.70122 200.143894 
L 330.739747 200.17825 
L 330.778274 200.248265 
L 330.816801 200.187092 
L 330.932382 200.059962 
L 331.047963 200.405982 
L 331.471761 202.02649 
L 331.625869 201.957779 
L 331.74145 202.051133 
L 331.895558 202.564726 
L 332.357883 204.356142 
L 333.012842 206.899175 
L 333.128423 207.022246 
L 333.166951 207.086608 
L 333.205478 207.029784 
L 333.43664 206.289328 
L 333.475167 206.311362 
L 333.629275 206.792484 
L 334.47687 210.464901 
L 334.592451 210.435329 
L 334.823613 209.940726 
L 334.939194 210.187883 
L 335.093303 210.7051 
L 335.13183 210.636389 
L 335.401519 209.622104 
L 335.786789 207.366381 
L 335.825316 207.404506 
L 335.979425 207.502788 
L 336.095006 207.648183 
L 336.326168 208.356603 
L 336.403222 208.203815 
L 336.749965 206.69913 
L 336.82702 206.821621 
L 337.250817 208.575927 
L 337.636087 210.773231 
L 337.674614 210.647261 
L 338.406628 206.762768 
L 338.483682 206.782627 
L 338.637791 207.349566 
L 339.023061 208.886287 
L 339.215696 209.367989 
L 339.523913 209.937537 
L 339.56244 209.857954 
L 339.832129 209.456414 
L 339.94771 209.429162 
L 340.140345 209.751408 
L 340.178872 209.555857 
L 340.294453 208.211208 
L 340.525616 205.796319 
L 340.60267 205.768342 
L 340.718251 206.141324 
L 341.026467 208.234112 
L 341.219102 209.180266 
L 341.450265 208.677979 
L 341.797008 207.572369 
L 341.951116 207.310282 
L 342.066697 207.250413 
L 342.220806 207.273462 
L 342.490495 207.184891 
L 342.68313 207.045005 
L 342.798711 207.22403 
L 342.991346 207.801696 
L 343.029873 207.711386 
L 343.222509 207.364207 
L 343.33809 207.628324 
L 343.646306 208.42024 
L 343.954522 208.736688 
L 344.185685 209.50918 
L 344.301266 210.012336 
L 344.339793 209.88912 
L 344.493901 208.441115 
L 344.725063 206.44719 
L 344.802117 206.457627 
L 344.994753 206.874387 
L 345.03328 206.80959 
L 345.264442 206.314551 
L 345.380023 206.538949 
L 345.649712 207.720953 
L 345.726766 207.551785 
L 345.996456 206.834523 
L 346.112037 206.744793 
L 346.227618 206.420662 
L 346.535834 205.310703 
L 346.574361 205.363179 
L 347.036686 206.740154 
L 347.576064 209.517877 
L 347.614591 209.502512 
L 347.807227 209.052846 
L 347.845754 209.09213 
L 347.999862 209.6179 
L 348.346605 210.877892 
L 348.423659 210.933557 
L 348.462186 210.893548 
L 348.770403 210.846436 
L 349.733579 213.789994 
L 350.465593 217.134221 
L 350.50412 217.125813 
L 350.619701 217.027095 
L 350.850863 216.169947 
L 351.197606 213.978152 
L 351.582877 213.832467 
L 351.621404 213.891466 
L 351.659931 213.83783 
L 351.852566 213.168405 
L 352.160783 210.932107 
L 352.623107 206.363983 
L 352.777215 206.085515 
L 352.854269 205.965198 
L 352.892796 205.990421 
L 353.046904 206.405151 
L 353.123959 206.293387 
L 353.393648 205.883875 
L 353.432175 205.914172 
L 353.586283 206.448639 
L 353.855972 207.669348 
L 353.894499 207.640356 
L 354.010081 207.672392 
L 354.164189 208.006524 
L 354.202716 207.888962 
L 354.356824 206.620562 
L 354.587986 205.246196 
L 354.93473 204.921341 
L 354.973257 204.969468 
L 355.050311 205.145449 
L 355.088838 205.01542 
L 355.281473 204.463122 
L 355.397054 204.540386 
L 355.551162 205.06746 
L 355.897906 206.313682 
L 356.013487 206.198873 
L 356.398757 205.162989 
L 356.552865 204.108115 
L 356.938136 201.857321 
L 357.01519 201.730481 
L 357.169298 201.257912 
L 357.207825 201.284874 
L 357.361933 201.6077 
L 357.40046 201.447519 
L 357.593096 200.591096 
L 357.631623 200.616899 
L 357.747204 201.013509 
L 358.093947 202.857255 
L 358.132474 202.809419 
L 358.325109 202.185801 
L 358.517745 201.549716 
L 358.594799 201.644665 
L 358.903015 202.683883 
L 358.941542 202.545012 
L 359.211231 201.331841 
L 359.249758 201.344163 
L 359.365339 201.644665 
L 359.519448 202.360043 
L 359.596502 202.185801 
L 359.712083 201.956184 
L 359.75061 201.981842 
L 359.866191 202.335979 
L 360.020299 203.036281 
L 360.058826 202.990039 
L 360.212934 202.815652 
L 360.328516 203.088322 
L 360.598205 204.713178 
L 360.906421 205.910838 
L 361.022002 205.37869 
L 361.4458 202.067948 
L 361.792543 198.270721 
L 361.985178 197.400091 
L 362.100759 197.687982 
L 362.524557 199.274569 
L 363.102463 202.631843 
L 363.256571 203.159497 
L 363.603314 205.614395 
L 363.834476 207.327822 
L 363.873003 207.163437 
L 364.219747 205.37579 
L 364.258274 205.384053 
L 364.489436 205.55844 
L 364.797652 206.523584 
L 365.259977 209.062413 
L 365.337031 208.80018 
L 365.529666 208.38661 
L 365.837883 208.751474 
L 365.914937 208.6026 
L 366.184626 207.884613 
L 366.223153 207.922013 
L 366.377261 208.413572 
L 366.801059 209.959281 
L 367.109275 210.228906 
L 367.263383 209.470186 
L 367.417491 208.980366 
L 367.456018 209.006604 
L 367.610127 209.523531 
L 367.879816 210.402713 
L 367.95687 210.520131 
L 367.995397 210.455044 
L 368.457722 208.650582 
L 368.573303 208.775972 
L 368.842992 208.911655 
L 369.228262 209.796056 
L 369.343843 209.650371 
L 369.382371 209.674869 
L 369.536479 210.12526 
L 369.729114 210.559125 
L 369.806168 210.472004 
L 370.422601 207.80532 
L 370.807871 205.268085 
L 371.424304 203.846172 
L 371.963682 203.332289 
L 372.079264 203.622354 
L 372.348953 205.227206 
L 372.849804 208.304997 
L 373.080967 208.599991 
L 373.119494 208.591293 
L 373.42771 206.887143 
L 373.504764 207.005866 
L 373.581818 207.276361 
L 373.581818 207.276361 
" style="fill:none;stroke:#000000;stroke-linecap:square;stroke-width:1.5;"/>
   </g>
   <g id="line2d_19">
    <path clip-path="url(#pb2011a88cf)" d="M 69.218182 217.321219 
L 69.333763 217.135525 
L 69.37229 217.163213 
L 69.564925 217.550401 
L 69.641979 217.456902 
L 69.75756 217.524743 
L 70.104304 218.009489 
L 70.181358 218.033988 
L 70.451047 217.084355 
L 70.489574 217.110302 
L 70.643682 217.478211 
L 70.913372 218.141403 
L 71.144534 218.247948 
L 71.183061 218.133865 
L 71.414223 217.660716 
L 71.529804 217.774944 
L 71.799494 218.56947 
L 72.261818 219.899188 
L 72.647089 220.534692 
L 72.724143 220.407418 
L 72.993832 219.379361 
L 73.186467 219.057115 
L 73.263521 218.965066 
L 73.456157 217.439507 
L 73.957008 213.484273 
L 74.265224 211.122585 
L 74.303751 211.142734 
L 74.45786 211.675172 
L 74.689022 212.322564 
L 74.997238 213.320323 
L 75.074292 213.24219 
L 75.382509 212.275596 
L 75.729252 211.064891 
L 75.844833 211.186077 
L 75.88336 211.224202 
L 75.921887 211.166363 
L 76.307158 210.078438 
L 76.422739 210.25326 
L 76.615374 211.012415 
L 76.692428 210.959795 
L 77.000644 210.200204 
L 77.308861 209.837369 
L 77.424442 210.119461 
L 77.694131 211.606171 
L 77.96382 212.978652 
L 78.426145 211.519485 
L 78.541726 211.710252 
L 78.734361 212.175574 
L 78.772888 212.147597 
L 78.965524 212.039167 
L 79.158159 212.357209 
L 79.235213 212.257042 
L 79.312267 212.281105 
L 79.543429 212.725552 
L 79.620483 212.656696 
L 80.082808 212.275017 
L 80.31397 211.852023 
L 80.506605 212.068159 
L 80.583659 211.971905 
L 80.699241 212.021916 
L 80.776295 212.068884 
L 80.814822 212.016263 
L 81.007457 211.777659 
L 81.045984 211.802302 
L 81.200092 211.643136 
L 81.508308 210.549123 
L 81.585362 210.644507 
L 81.777998 211.28581 
L 81.855052 211.174915 
L 82.00916 210.980814 
L 82.124741 211.212315 
L 82.548539 212.391999 
L 82.587066 212.376634 
L 82.702647 212.256752 
L 82.972336 211.204342 
L 83.126444 211.439032 
L 83.280552 211.668794 
L 83.434661 211.391051 
L 83.473188 211.431349 
L 83.781404 211.768671 
L 84.051093 213.09607 
L 84.628999 216.174586 
L 84.667526 216.147043 
L 85.168377 215.144065 
L 85.283959 215.2351 
L 85.322486 215.246842 
L 85.630702 214.518708 
L 85.746283 214.672655 
L 86.015972 215.65157 
L 86.247135 216.125589 
L 86.324189 216.186617 
L 86.362716 216.137476 
L 86.555351 215.286416 
L 87.056203 212.251968 
L 87.09473 212.275307 
L 87.248838 212.624805 
L 87.595581 214.187474 
L 87.86527 215.047087 
L 87.942325 215.027952 
L 88.13496 214.87241 
L 88.250541 214.970403 
L 88.443176 214.510735 
L 88.597284 214.573937 
L 88.789919 213.936548 
L 89.098136 212.691922 
L 89.213717 212.721204 
L 89.406352 213.314525 
L 89.56046 213.851892 
L 89.598987 213.797387 
L 89.83015 212.711926 
L 90.061312 211.849414 
L 90.176893 212.069608 
L 90.369528 212.412584 
L 90.60069 212.668148 
L 90.831853 213.360332 
L 90.947434 213.657355 
L 90.985961 213.597777 
L 91.332704 212.08222 
L 91.371231 212.117155 
L 91.602394 212.60741 
L 91.679448 212.536959 
L 91.833556 211.866374 
L 92.103245 210.95965 
L 92.29588 210.794975 
L 92.912313 206.249029 
L 92.989367 206.199308 
L 93.027894 206.261786 
L 93.413165 207.631658 
L 93.682854 209.21694 
L 93.99107 210.97748 
L 94.029597 210.923989 
L 94.183705 210.492154 
L 94.568976 208.859179 
L 94.723084 208.930934 
L 94.761611 208.986744 
L 94.800138 208.882083 
L 95.069827 208.205265 
L 95.185409 207.964051 
L 95.532152 207.080665 
L 95.647733 207.341158 
L 96.765017 210.892243 
L 96.919125 211.183613 
L 96.957652 211.100696 
L 97.073234 210.900651 
L 97.111761 210.919061 
L 97.188815 210.897027 
L 97.497031 210.106705 
L 97.651139 209.842878 
L 97.76672 210.123085 
L 97.959356 210.561444 
L 98.151991 209.966384 
L 98.537261 208.267308 
L 98.691369 208.451987 
L 99.423383 205.26852 
L 99.538964 205.485235 
L 99.654545 205.777475 
L 100.001289 203.727305 
L 100.540667 200.461936 
L 100.656249 200.323934 
L 100.694776 200.370901 
L 100.848884 200.924794 
L 101.195627 203.349684 
L 101.81206 207.559323 
L 102.312911 209.696468 
L 102.46702 210.001029 
L 102.775236 211.459617 
L 102.967871 211.817088 
L 103.044925 211.720835 
L 103.276087 211.171001 
L 103.391669 211.297551 
L 103.622831 211.602982 
L 103.931047 211.542389 
L 103.969574 211.585007 
L 104.008101 211.533256 
L 104.470426 209.093145 
L 105.163913 208.569984 
L 105.664764 205.919535 
L 106.050035 204.674329 
L 106.165616 204.883941 
L 106.319724 205.187342 
L 106.358251 205.172846 
L 106.589413 205.028466 
L 106.897629 204.350923 
L 106.936157 204.387598 
L 107.090265 204.833495 
L 107.359954 205.934756 
L 107.398481 205.84981 
L 107.66817 204.679692 
L 107.822278 204.401514 
L 107.93786 204.621274 
L 107.976387 204.576046 
L 108.32313 203.607133 
L 108.400184 203.708171 
L 108.7084 204.899162 
L 108.785455 204.668531 
L 109.055144 203.878209 
L 109.209252 203.992437 
L 109.401887 204.570393 
L 109.710104 205.930842 
L 109.787158 205.833719 
L 109.979793 204.716077 
L 110.249482 203.417816 
L 110.326536 203.462753 
L 110.480644 203.984174 
L 110.634753 204.43355 
L 110.711807 204.011282 
L 110.981496 202.425709 
L 111.289712 201.57088 
L 111.366766 201.693372 
L 111.597929 202.778252 
L 111.752037 203.137898 
L 111.829091 202.973368 
L 112.09878 201.954589 
L 112.214361 202.143617 
L 113.331646 205.625991 
L 113.524281 206.367462 
L 113.871024 207.635862 
L 114.063659 208.046678 
L 114.217768 208.297169 
L 114.256295 208.194828 
L 114.44893 207.537434 
L 114.641565 206.688838 
L 114.718619 206.75494 
L 115.065362 207.572514 
L 115.10389 207.543957 
L 115.219471 207.525837 
L 115.373579 207.949845 
L 115.681795 209.009793 
L 115.797376 208.783945 
L 115.951484 208.56781 
L 115.990012 208.589554 
L 116.105593 208.763071 
L 116.14412 208.647683 
L 116.606444 206.649699 
L 116.722025 206.803212 
L 116.953188 207.834022 
L 117.56962 210.797729 
L 117.608147 210.821793 
L 118.031945 208.857005 
L 118.340161 208.36704 
L 118.378688 208.40154 
L 118.532796 208.861064 
L 118.956594 210.268625 
L 119.303337 212.028295 
L 119.688608 213.681998 
L 119.804189 213.516889 
L 120.035351 211.62893 
L 120.420621 209.348999 
L 120.497675 209.390603 
L 120.844419 209.902456 
L 120.921473 209.774747 
L 121.152635 209.392342 
L 121.268216 209.330444 
L 121.61496 208.008554 
L 121.807595 207.549611 
L 121.923176 207.771254 
L 122.077284 208.060015 
L 122.424028 207.653692 
L 122.462555 207.69602 
L 122.578136 207.822135 
L 122.616663 207.754584 
L 122.886352 207.272882 
L 123.348677 205.175746 
L 123.425731 205.154292 
L 123.541312 205.472044 
L 123.69542 205.916491 
L 123.733947 205.891848 
L 123.926582 204.758116 
L 124.311853 202.76709 
L 124.427434 202.939013 
L 124.697123 204.072455 
L 125.159448 206.489083 
L 125.236502 206.371666 
L 125.467664 206.043766 
L 125.621772 206.39167 
L 125.77588 206.669558 
L 126.04557 206.039707 
L 126.507894 204.148414 
L 126.777583 202.757958 
L 126.81611 202.793473 
L 127.008746 203.480438 
L 127.586651 205.239818 
L 127.663705 205.26852 
L 127.702232 205.198359 
L 127.894868 204.916122 
L 128.010449 205.165164 
L 128.280138 206.557504 
L 128.588354 207.849243 
L 128.742463 207.931435 
L 128.935098 208.072916 
L 129.089206 208.322682 
L 129.243314 208.727556 
L 129.281841 208.696679 
L 129.474476 208.117999 
L 130.20649 202.403096 
L 130.283544 202.457891 
L 130.437652 202.759262 
L 130.47618 202.683013 
L 130.784396 201.30169 
L 131.054085 201.795713 
L 131.24672 202.40498 
L 131.323774 202.582266 
L 131.362301 202.448903 
L 131.670518 201.444765 
L 131.747572 201.376054 
L 131.786099 201.415048 
L 132.055788 201.73541 
L 132.325478 202.107957 
L 132.364005 201.977783 
L 132.710748 200.828685 
L 132.787802 200.859562 
L 132.903383 200.994084 
L 133.250127 199.938776 
L 133.288654 199.955736 
L 133.404235 200.244641 
L 133.712451 201.079756 
L 134.174776 202.834497 
L 134.482992 204.812766 
L 135.407641 211.048655 
L 135.67733 211.639802 
L 135.94702 212.136435 
L 136.024074 211.981763 
L 136.255236 211.609795 
L 136.370817 211.545578 
L 136.601979 210.861657 
L 137.179885 206.469948 
L 137.411047 205.75602 
L 137.603682 205.877062 
L 137.873372 206.397613 
L 137.911899 206.367607 
L 138.643913 201.219497 
L 138.836548 200.356985 
L 138.952129 200.468025 
L 139.183291 201.141799 
L 139.645616 202.653297 
L 139.953832 204.009542 
L 140.493211 207.148361 
L 140.570265 206.894536 
L 140.839954 205.457113 
L 140.917008 205.509444 
L 141.109643 206.170461 
L 141.80313 209.617465 
L 141.841657 209.524836 
L 142.303982 206.997023 
L 142.535144 205.987812 
L 142.650725 206.13654 
L 142.804833 206.579393 
L 142.881887 206.514306 
L 142.958941 206.558229 
L 143.113049 207.046744 
L 143.228631 207.280855 
L 143.421266 206.711597 
L 143.729482 204.893943 
L 144.15328 201.651333 
L 144.384442 200.695322 
L 144.731185 201.075552 
L 145.232037 202.367436 
L 145.270564 202.326992 
L 145.386145 201.147162 
L 146.079632 193.560971 
L 146.349321 191.293506 
L 146.541956 191.458181 
L 146.696064 192.04005 
L 147.004281 194.489294 
L 147.389551 197.109156 
L 148.083038 200.166073 
L 148.121565 200.046626 
L 148.853579 197.021021 
L 148.96916 196.958253 
L 149.007687 197.002756 
L 149.62412 198.467722 
L 150.00939 200.907108 
L 150.394661 202.633872 
L 150.66435 201.874861 
L 150.702877 201.909652 
L 150.856985 202.392948 
L 151.04962 203.380271 
L 151.088147 203.330115 
L 151.357837 202.358303 
L 151.666053 202.626334 
L 151.70458 202.584296 
L 151.974269 202.484708 
L 152.243959 202.475721 
L 152.398067 201.424471 
L 152.821864 197.926441 
L 152.860391 197.977902 
L 153.014499 198.579631 
L 153.39977 200.190861 
L 153.630932 199.976175 
L 153.669459 200.046191 
L 153.862094 200.878406 
L 154.208838 202.925821 
L 154.247365 202.917124 
L 154.594108 201.62495 
L 154.671162 201.680035 
L 154.748216 201.741353 
L 155.09496 200.543549 
L 155.364649 199.490994 
L 155.403176 199.511434 
L 155.557284 199.932542 
L 155.942555 201.677426 
L 156.019609 201.496371 
L 156.982785 193.575756 
L 157.136893 193.088691 
L 157.252474 193.377306 
L 157.522163 194.743989 
L 157.599217 194.56047 
L 157.753326 194.266636 
L 157.984488 194.675278 
L 158.177123 195.44632 
L 158.755029 198.314934 
L 158.909137 198.882162 
L 159.25588 201.464915 
L 159.641151 204.260903 
L 159.679678 204.198715 
L 160.026421 202.442235 
L 160.29611 201.050764 
L 160.527273 200.618638 
L 160.642854 200.854488 
L 160.796962 201.090918 
L 161.066651 199.836869 
L 161.143705 199.972116 
L 161.297814 200.375685 
L 161.336341 200.300596 
L 161.451922 200.179264 
L 161.490449 200.224782 
L 161.644557 200.806361 
L 162.26099 203.748759 
L 162.723314 205.195315 
L 162.761841 205.15835 
L 162.993003 204.752028 
L 163.147112 205.092539 
L 163.185639 204.980195 
L 163.455328 203.281698 
L 163.493855 203.300253 
L 163.609436 203.642939 
L 163.879125 204.447612 
L 164.110288 204.899887 
L 164.187342 205.103121 
L 164.225869 205.075143 
L 164.34145 205.145884 
L 164.572612 205.865755 
L 164.649666 205.702385 
L 164.765247 205.503355 
L 164.803774 205.530608 
L 164.99641 205.725289 
L 165.034937 205.688469 
L 165.304626 205.339985 
L 165.343153 205.39565 
L 165.535788 206.1219 
L 165.998113 209.210417 
L 166.498964 212.17224 
L 166.576018 212.237182 
L 166.614545 212.151946 
L 167.038343 210.135842 
L 167.308032 209.851865 
L 167.500667 209.539766 
L 167.616249 209.622539 
L 167.770357 208.859904 
L 168.001519 207.761107 
L 168.078573 207.796767 
L 168.232681 208.110316 
L 168.271208 208.020731 
L 168.463843 206.829884 
L 168.656479 205.95592 
L 168.733533 206.043766 
L 169.080276 206.690868 
L 169.15733 206.585772 
L 169.311438 206.188581 
L 169.349965 206.207136 
L 169.735236 207.048774 
L 169.927871 207.614698 
L 169.966398 207.598607 
L 170.043452 207.401027 
L 170.236087 204.971932 
L 170.46725 203.140797 
L 170.544304 203.07484 
L 170.582831 203.107456 
L 170.698412 203.202405 
L 170.813993 202.321338 
L 171.045155 200.911312 
L 171.199264 200.745188 
L 171.314845 200.437003 
L 171.468953 200.109828 
L 171.50748 200.135776 
L 171.661588 200.584138 
L 171.969804 202.119409 
L 172.046858 201.975029 
L 172.239494 201.605381 
L 172.509183 201.762952 
L 172.701818 201.67902 
L 172.894453 201.415193 
L 172.93298 201.437517 
L 173.087089 201.822096 
L 174.088792 205.680206 
L 174.127319 205.629325 
L 174.435535 204.243798 
L 174.551116 204.458194 
L 174.820806 205.796754 
L 175.475765 209.928984 
L 175.514292 209.805623 
L 176.361887 204.183494 
L 176.593049 201.317925 
L 176.824212 199.572172 
L 176.939793 199.629721 
L 177.325063 198.480043 
L 177.402117 198.387704 
L 177.440644 198.427568 
L 177.594753 199.084381 
L 178.01855 202.588789 
L 178.326766 204.541836 
L 178.442348 204.686651 
L 178.480875 204.639828 
L 178.866145 203.54741 
L 178.981726 203.710925 
L 179.097307 203.877919 
L 179.135834 203.863713 
L 179.251415 203.756007 
L 179.366997 203.409843 
L 179.752267 200.852604 
L 179.790794 200.873333 
L 179.906375 201.085554 
L 179.983429 201.026411 
L 180.060483 201.120055 
L 180.561335 202.63967 
L 180.638389 202.491811 
L 181.062186 201.931976 
L 181.177768 202.213633 
L 181.254822 202.403676 
L 181.331876 202.381932 
L 181.447457 202.608359 
L 181.948308 205.012086 
L 182.526214 207.578748 
L 182.641795 207.664419 
L 182.83443 208.143802 
L 182.872957 208.018411 
L 183.219701 206.688258 
L 183.527917 205.99245 
L 183.643498 206.105664 
L 183.836133 206.518655 
L 184.259931 207.789374 
L 184.414039 207.503803 
L 184.452566 207.524098 
L 184.606674 207.973474 
L 184.991945 210.204553 
L 185.18458 210.864846 
L 185.377215 211.397284 
L 185.608377 211.971615 
L 185.83954 211.46411 
L 185.878067 211.486289 
L 186.032175 211.631394 
L 186.070702 211.574135 
L 186.494499 208.981236 
L 186.918297 209.195486 
L 187.033878 208.974422 
L 187.26504 208.533744 
L 187.380621 208.634201 
L 187.573257 209.209692 
L 187.688838 209.601374 
L 187.765892 209.550928 
L 187.958527 209.431626 
L 188.074108 208.441549 
L 188.30527 206.797123 
L 188.382325 206.769871 
L 188.420852 206.823796 
L 188.844649 208.07538 
L 189.114338 209.316093 
L 189.229919 209.739666 
L 189.268446 209.711689 
L 189.345501 209.190558 
L 189.769298 203.475945 
L 190.038987 202.499494 
L 190.347204 201.659886 
L 190.462785 201.71874 
L 190.616893 202.150575 
L 191.541542 205.977229 
L 191.580069 205.911852 
L 191.811231 205.027162 
L 192.157975 203.14848 
L 192.389137 203.047588 
L 192.697353 201.937919 
L 192.774407 201.733525 
L 193.082624 200.411635 
L 193.313786 200.441207 
L 193.77611 201.843405 
L 193.853165 201.793974 
L 194.122854 201.653797 
L 194.238435 201.584217 
L 194.546651 201.075552 
L 194.585178 201.125563 
L 194.739287 201.682789 
L 194.931922 202.199282 
L 195.201611 201.378518 
L 195.355719 199.817299 
L 195.779517 196.263025 
L 195.856571 196.252878 
L 195.972152 196.436977 
L 196.010679 196.368991 
L 196.087733 196.327387 
L 196.12626 196.383197 
L 196.357422 197.002466 
L 196.78122 194.228366 
L 196.896801 194.189952 
L 197.050909 194.120951 
L 197.359125 194.210826 
L 197.513234 194.796175 
L 197.898504 196.506123 
L 198.014085 196.504528 
L 198.322301 196.96956 
L 198.514937 195.811764 
L 198.669045 194.189372 
L 199.054315 188.540861 
L 199.169896 188.280223 
L 199.208423 188.319217 
L 199.246951 188.352123 
L 199.285478 188.288196 
L 199.439586 187.497294 
L 199.90191 184.184233 
L 200.364235 183.674988 
L 200.672451 183.212421 
L 200.788032 183.176471 
L 201.288884 181.897199 
L 202.25206 179.298066 
L 202.290587 179.323289 
L 202.406168 179.620602 
L 203.215236 183.752107 
L 203.908723 188.495053 
L 204.178412 188.809327 
L 204.293993 188.757721 
L 204.33252 188.817879 
L 204.371047 188.774536 
L 204.486628 188.67118 
L 204.602209 189.004008 
L 204.871899 190.956764 
L 205.064534 191.644744 
L 205.334223 192.256331 
L 205.680967 193.331934 
L 205.835075 193.29178 
L 206.143291 192.281264 
L 206.220345 192.393318 
L 206.41298 192.980696 
L 206.490035 192.865308 
L 206.605616 192.82124 
L 206.721197 192.931264 
L 207.299102 191.813623 
L 207.607319 191.878565 
L 207.799954 192.390564 
L 207.877008 192.343886 
L 208.185224 192.228498 
L 208.339333 192.74615 
L 209.032819 196.020652 
L 209.225455 196.020652 
L 209.456617 195.106389 
L 209.495144 195.133207 
L 209.649252 195.534891 
L 209.918941 197.142932 
L 210.381266 199.859628 
L 211.11328 204.421229 
L 211.537077 206.931211 
L 212.114983 210.188462 
L 212.230564 210.040748 
L 212.577307 208.686677 
L 212.885524 206.890622 
L 213.347848 206.091313 
L 213.463429 206.285269 
L 213.694591 206.930196 
L 213.733119 206.89816 
L 213.964281 206.614764 
L 214.079862 205.851839 
L 214.465132 202.562987 
L 214.542186 202.488477 
L 214.580713 202.527471 
L 214.773349 203.178777 
L 215.351254 205.279102 
L 215.582417 206.451684 
L 215.620944 206.41182 
L 215.852106 204.070136 
L 216.083268 202.367146 
L 216.198849 202.225375 
L 216.237376 202.269588 
L 216.391484 202.804345 
L 217.007917 205.500891 
L 217.239079 206.491837 
L 217.701404 208.690301 
L 217.932566 208.408933 
L 218.163728 208.105097 
L 218.202255 208.14931 
L 218.356364 208.376752 
L 218.587526 207.811408 
L 218.703107 208.058565 
L 218.972796 209.140836 
L 219.011323 209.013852 
L 219.281013 208.228603 
L 219.396594 208.136264 
L 219.512175 207.635572 
L 220.090081 202.723022 
L 220.244189 202.664314 
L 220.35977 202.044755 
L 220.590932 198.650806 
L 220.899148 194.429136 
L 221.053257 193.937432 
L 221.168838 194.171107 
L 221.322946 194.70282 
L 221.4 194.66832 
L 221.477054 194.627441 
L 221.592635 194.465666 
L 221.631162 194.490454 
L 221.746743 194.845606 
L 222.401703 198.756627 
L 222.632865 199.634505 
L 222.864028 200.119106 
L 222.902555 200.067645 
L 223.865731 196.182282 
L 224.212474 194.128489 
L 224.289528 194.095003 
L 224.328055 194.151828 
L 224.482163 194.520461 
L 224.52069 194.352742 
L 224.828907 191.933505 
L 225.021542 191.303798 
L 225.137123 191.578353 
L 225.329758 192.533059 
L 225.406812 192.321997 
L 225.946191 188.426487 
L 225.984718 188.45258 
L 226.177353 189.032275 
L 226.48557 189.907544 
L 226.562624 189.748523 
L 226.947894 188.223108 
L 227.179056 187.338273 
L 227.294638 187.273476 
L 227.641381 185.967241 
L 227.91107 182.040999 
L 228.758665 164.536789 
L 228.835719 156.456429 
L 228.874246 136.787676 
L 228.912773 49.998095 
L 228.9513 130.592811 
L 229.105409 204.908149 
L 229.143936 205.352742 
L 229.875949 189.434684 
L 230.068585 186.723497 
L 230.723544 177.781205 
L 231.108815 174.796623 
L 231.339977 170.219656 
L 231.532612 163.115312 
L 231.609666 153.943837 
L 231.68672 63.382252 
L 231.725247 148.329392 
L 231.917883 203.300398 
L 232.804005 182.760291 
L 233.227802 179.105559 
L 233.574545 175.869907 
L 233.728654 174.376529 
L 233.998343 168.787452 
L 234.152451 161.43682 
L 234.229505 138.534155 
L 234.268032 47.746576 
L 234.306559 123.857534 
L 234.460667 202.840295 
L 234.499194 203.623949 
L 234.537722 202.914515 
L 234.961519 193.955262 
L 235.385316 189.738955 
L 235.616479 187.169104 
L 236.425547 172.930408 
L 236.733763 164.033633 
L 236.810817 157.6322 
L 236.849344 147.410345 
L 236.887871 45.161795 
L 236.926398 102.99895 
L 237.080506 202.847543 
L 237.119033 204.228722 
L 237.15756 203.667147 
L 237.889574 185.926507 
L 238.621588 173.106245 
L 238.814223 166.848467 
L 238.891277 160.47472 
L 238.929804 151.81394 
L 238.968331 45.3946 
L 239.006858 82.609601 
L 239.160967 204.96019 
L 239.199494 206.511552 
L 239.238021 205.729928 
L 239.623291 196.816627 
L 240.586467 177.102937 
L 240.856157 167.540361 
L 240.971738 155.428083 
L 241.048792 63.378338 
L 241.2029 206.273238 
L 241.241427 208.918178 
L 241.318481 207.288393 
L 241.896387 192.967214 
L 242.435765 180.909442 
L 242.89809 175.939198 
L 243.206306 171.610113 
L 243.398941 166.668861 
L 243.514522 156.567468 
L 243.553049 136.883785 
L 243.591577 49.823708 
L 243.630104 130.311154 
L 243.784212 204.567059 
L 243.822739 205.088045 
L 243.861266 204.433116 
L 244.130955 200.835353 
L 244.516226 198.65646 
L 244.824442 194.48799 
L 245.864672 172.412756 
L 245.980253 163.568022 
L 246.01878 156.413811 
L 246.095834 63.184526 
L 246.249942 210.190202 
L 246.28847 211.563118 
L 246.326997 209.97798 
L 246.712267 193.642438 
L 247.020483 188.130334 
L 247.290173 186.674501 
L 247.675443 184.350212 
L 247.983659 179.077437 
L 248.445984 164.653917 
L 248.523038 157.983148 
L 248.561565 147.52008 
L 248.600092 43.599706 
L 248.638619 104.292573 
L 248.792727 203.696429 
L 248.831254 204.203499 
L 249.370633 190.358369 
L 250.333809 172.365209 
L 250.487917 167.261458 
L 250.603498 154.031828 
L 250.680552 69.680329 
L 250.834661 204.346864 
L 250.873188 206.649844 
L 250.911715 205.97346 
L 251.528147 187.03806 
L 252.260161 167.764034 
L 252.375742 159.295181 
L 252.414269 149.997156 
L 252.452796 42.985365 
L 252.491323 93.227631 
L 252.645432 205.421308 
L 252.683959 206.03072 
L 253.377445 183.358686 
L 253.916824 166.604209 
L 254.032405 152.816628 
L 254.070932 61.571556 
L 254.109459 77.726914 
L 254.263567 204.623448 
L 254.302094 205.998539 
L 254.340621 204.830596 
L 254.687365 194.320126 
L 255.342325 177.316463 
L 255.727595 163.860986 
L 255.804649 153.06393 
L 255.843176 75.186924 
L 255.881703 76.193237 
L 256.035811 204.76 
L 256.074338 206.277587 
L 256.112865 205.003678 
L 256.536663 188.273265 
L 257.114568 168.226311 
L 257.23015 156.539636 
L 257.307204 55.633705 
L 257.345731 144.925296 
L 257.499839 208.241215 
L 257.538366 207.160683 
L 257.846582 196.755599 
L 258.617123 184.14089 
L 259.387664 178.277983 
L 259.772934 175.291227 
L 260.004097 172.345205 
L 260.196732 167.204488 
L 260.312313 158.521239 
L 260.35084 147.144489 
L 260.389367 39.712023 
L 260.427894 98.7954 
L 260.582002 202.988589 
L 260.659056 204.912063 
L 260.697583 204.522556 
L 261.0058 202.292201 
L 261.622232 199.255434 
L 262.392773 196.419582 
L 262.4313 196.449588 
L 262.585409 196.875336 
L 262.970679 198.065892 
L 263.201841 198.386254 
L 263.355949 196.903603 
L 263.74122 193.39876 
L 264.242071 189.260587 
L 264.319125 189.32408 
L 264.704396 190.041342 
L 264.78145 189.895657 
L 265.012612 188.474034 
L 265.629045 183.923305 
L 265.898734 181.791958 
L 266.284005 180.084619 
L 266.669275 178.852169 
L 267.016018 175.51635 
L 267.324235 171.658384 
L 267.555397 164.743068 
L 267.632451 157.948502 
L 267.670978 146.078018 
L 267.709505 40.808211 
L 267.748032 102.162821 
L 267.90214 201.816588 
L 267.979194 203.877919 
L 268.017722 203.54828 
L 268.248884 202.221026 
L 268.364465 202.250453 
L 268.480046 202.428464 
L 268.518573 202.395993 
L 269.21206 200.845211 
L 269.327641 200.930447 
L 269.520276 201.710912 
L 270.406398 206.688548 
L 270.444925 206.653758 
L 270.868723 204.16378 
L 271.138412 204.431231 
L 271.793372 206.580263 
L 271.986007 206.966436 
L 272.101588 206.946577 
L 272.217169 206.970495 
L 272.371277 207.22693 
L 272.563913 206.671443 
L 272.60244 206.698695 
L 272.756548 207.20562 
L 273.103291 208.211063 
L 273.334453 208.612457 
L 273.604143 209.847516 
L 273.681197 209.632686 
L 273.873832 208.333409 
L 274.143521 207.013838 
L 274.182048 207.022536 
L 274.336157 207.208085 
L 274.567319 208.107417 
L 274.759954 208.921077 
L 274.798481 208.813662 
L 275.06817 208.138148 
L 275.183751 208.319783 
L 275.72313 210.186433 
L 275.877238 210.67002 
L 275.915765 210.607397 
L 276.223982 210.053505 
L 276.686306 208.06074 
L 276.724833 208.091906 
L 276.878941 208.447638 
L 277.225685 210.027847 
L 277.957699 213.393383 
L 278.188861 214.054401 
L 278.227388 213.970179 
L 278.574131 211.862605 
L 278.959402 209.553393 
L 279.074983 209.6179 
L 279.652888 210.972841 
L 279.76847 211.31886 
L 279.806997 211.222317 
L 280.577537 208.303113 
L 280.693119 207.836776 
L 280.962808 207.073562 
L 281.078389 207.310716 
L 281.271024 207.912156 
L 281.309551 207.854461 
L 281.84893 206.593599 
L 281.925984 206.57461 
L 281.964511 206.624766 
L 282.041565 206.711887 
L 282.272727 206.105229 
L 282.311254 206.140454 
L 282.50389 206.73624 
L 282.696525 207.276796 
L 282.735052 207.240846 
L 282.850633 207.155754 
L 282.88916 207.186341 
L 283.081795 207.495251 
L 283.27443 208.056681 
L 283.312957 208.012033 
L 283.505593 207.719939 
L 283.54412 207.749945 
L 283.698228 208.013048 
L 283.736755 207.961152 
L 284.199079 206.635493 
L 284.622877 204.110145 
L 284.699931 204.214806 
L 284.892566 204.496898 
L 285.046674 205.001649 
L 285.085201 204.893798 
L 285.23931 204.521396 
L 285.277837 204.558071 
L 285.470472 204.643163 
L 285.586053 204.586193 
L 285.971323 203.757747 
L 286.27954 201.823836 
L 286.587756 198.247527 
L 286.741864 197.956013 
L 286.818918 198.007329 
L 286.857445 197.940502 
L 286.973026 197.27586 
L 287.242716 195.643321 
L 287.31977 195.705799 
L 287.512405 196.47858 
L 288.013257 199.967478 
L 289.207595 208.993847 
L 289.246122 208.905276 
L 289.40023 208.076395 
L 289.669919 206.231344 
L 289.746974 206.270049 
L 289.939609 206.369491 
L 290.093717 206.371666 
L 290.209298 206.452698 
L 290.556041 207.49902 
L 290.594568 207.613538 
L 290.633096 207.558598 
L 290.787204 207.365221 
L 290.941312 207.705877 
L 290.979839 207.632528 
L 291.365109 205.854448 
L 291.442163 205.767327 
L 291.48069 205.792116 
L 291.634799 206.244391 
L 291.904488 207.04544 
L 292.13565 207.356234 
L 292.174177 207.286363 
L 292.405339 206.926862 
L 292.520921 207.086898 
L 292.983245 208.035082 
L 293.252934 207.989854 
L 293.407043 208.182071 
L 293.44557 208.119013 
L 293.984948 205.693398 
L 294.023475 205.73993 
L 294.293165 206.366737 
L 294.562854 207.18837 
L 294.601381 207.144157 
L 294.716962 206.668109 
L 295.025178 204.36078 
L 295.102232 204.424853 
L 295.333395 205.003533 
L 295.371922 204.916267 
L 295.641611 204.097098 
L 295.718665 204.184074 
L 295.757192 204.09014 
L 295.949827 203.852696 
L 296.065409 203.859944 
L 296.219517 204.340776 
L 296.373625 204.70796 
L 296.527733 204.536472 
L 296.56626 204.569378 
L 296.643314 204.558796 
L 296.835949 204.168129 
L 296.874476 204.194366 
L 296.95153 204.248002 
L 297.259747 202.65779 
L 297.375328 202.929156 
L 297.645017 204.492984 
L 298.569666 210.797004 
L 298.608193 210.767433 
L 298.685247 210.430691 
L 299.109045 207.228524 
L 299.224626 207.018187 
L 299.263153 207.047179 
L 299.532842 207.684133 
L 299.686951 207.598027 
L 299.918113 207.09864 
L 300.149275 207.513516 
L 300.187802 207.431468 
L 300.418964 205.926204 
L 300.6116 205.316937 
L 300.727181 205.480017 
L 300.919816 205.737321 
L 301.690357 206.846989 
L 302.422371 209.612681 
L 302.576479 209.879553 
L 302.653533 209.99668 
L 302.69206 209.961745 
L 302.961749 209.656024 
L 303.308493 209.651531 
L 303.462601 209.183165 
L 303.616709 208.80337 
L 303.655236 208.817431 
L 303.809344 209.190993 
L 303.924925 209.475549 
L 303.963452 209.452356 
L 304.156087 208.606804 
L 304.541358 206.491258 
L 304.926628 205.393765 
L 305.003682 205.515677 
L 305.234845 206.441536 
L 305.620115 207.945351 
L 305.928331 207.852722 
L 306.043913 207.816627 
L 306.275075 208.016092 
L 306.313602 207.973764 
L 306.544764 207.105018 
L 306.85298 205.119066 
L 307.546467 202.439191 
L 307.700575 202.365986 
L 308.394062 199.328204 
L 308.509643 198.806783 
L 308.81786 197.327466 
L 309.087549 197.374578 
L 309.241657 197.146266 
L 309.472819 195.91918 
L 309.781036 194.163279 
L 309.896617 194.383039 
L 310.127779 195.411965 
L 310.166306 195.238013 
L 310.358941 194.32404 
L 310.397468 194.332303 
L 310.590104 194.849955 
L 310.667158 194.706155 
L 311.129482 193.29149 
L 311.206536 193.372668 
L 311.28359 193.546475 
L 311.322117 193.529949 
L 311.514753 192.540597 
L 311.822969 190.91835 
L 311.861496 190.95372 
L 312.015604 191.414258 
L 312.246766 192.140073 
L 312.285293 192.188199 
L 312.32382 192.145146 
L 312.59351 191.808259 
L 312.709091 191.535589 
L 312.901726 190.045836 
L 313.132888 188.728439 
L 313.286997 188.581595 
L 313.710794 189.256673 
L 313.864902 189.897396 
L 313.903429 189.854633 
L 314.096064 189.351477 
L 314.404281 187.615146 
L 314.442808 187.632831 
L 314.558389 187.792577 
L 314.596916 187.749089 
L 315.059241 186.475616 
L 315.097768 186.49533 
L 315.136295 186.401396 
L 315.290403 186.095965 
L 315.405984 186.40647 
L 315.637146 187.973777 
L 316.36916 194.420148 
L 316.446214 194.173137 
L 316.638849 192.580316 
L 316.831484 191.639816 
L 316.908539 191.707222 
L 317.062647 192.322722 
L 317.40939 194.889964 
L 318.372566 202.46079 
L 318.526674 201.916465 
L 319.027526 198.457284 
L 319.10458 198.285072 
L 319.258688 196.467129 
L 319.48985 194.390432 
L 319.566904 194.327374 
L 319.605432 194.376805 
L 319.75954 194.603813 
L 319.798067 194.571922 
L 319.952175 194.455374 
L 320.067756 194.717461 
L 320.684189 197.612023 
L 321.030932 200.313497 
L 321.069459 200.228696 
L 321.339148 199.739021 
L 321.416203 199.621603 
L 321.45473 199.65132 
L 321.608838 200.183033 
L 322.263797 202.817101 
L 322.302325 202.768105 
L 322.533487 202.114045 
L 322.572014 202.130716 
L 322.687595 202.31467 
L 322.726122 202.275531 
L 322.841703 201.64481 
L 323.149919 199.492444 
L 323.226974 199.545064 
L 323.53519 200.309583 
L 323.612244 200.264066 
L 323.766352 200.147808 
L 323.804879 200.182888 
L 323.958987 200.648935 
L 324.228677 201.802961 
L 324.267204 201.67902 
L 324.845109 198.923041 
L 324.883636 198.971313 
L 325.037745 199.513318 
L 325.384488 200.747508 
L 325.461542 200.841876 
L 325.500069 200.764033 
L 326.309137 196.682974 
L 326.694407 194.54177 
L 326.771461 194.578445 
L 326.887043 194.729493 
L 326.92557 194.647881 
L 327.272313 192.745716 
L 327.31084 192.752384 
L 327.464948 192.991568 
L 327.69611 193.952797 
L 328.004327 195.261931 
L 328.428124 193.928444 
L 328.505178 193.837554 
L 328.736341 193.12725 
L 328.774868 193.145805 
L 328.928976 193.553288 
L 329.429827 195.70029 
L 329.506881 195.650859 
L 329.622463 195.705509 
L 329.776571 195.804082 
L 329.892152 195.784657 
L 330.007733 195.709568 
L 330.04626 195.761463 
L 330.238895 195.97122 
L 330.547112 195.979773 
L 330.70122 195.712467 
L 330.739747 195.745808 
L 330.778274 195.815533 
L 330.816801 195.759579 
L 330.932382 195.643901 
L 331.047963 195.994414 
L 331.471761 197.67479 
L 331.625869 197.623475 
L 331.74145 197.723062 
L 331.895558 198.242744 
L 332.39641 200.25102 
L 333.051369 202.71476 
L 333.166951 202.904077 
L 333.205478 202.856241 
L 333.43664 202.139993 
L 333.475167 202.164202 
L 333.629275 202.664314 
L 334.47687 206.630854 
L 334.592451 206.656947 
L 334.785086 206.237433 
L 334.823613 206.259612 
L 334.977722 206.704204 
L 335.093303 207.131691 
L 335.13183 207.081535 
L 335.401519 206.160024 
L 335.786789 203.971708 
L 335.825316 204.014906 
L 336.017952 204.165664 
L 336.17206 204.56358 
L 336.326168 205.04963 
L 336.364695 205.006577 
L 336.518803 204.446162 
L 336.749965 203.441009 
L 336.865547 203.695559 
L 337.481979 206.772915 
L 337.636087 207.608464 
L 337.674614 207.494091 
L 338.445155 203.67425 
L 338.560736 203.928365 
L 339.254223 206.435448 
L 339.523913 206.960493 
L 339.870656 206.481255 
L 339.986237 206.552866 
L 340.140345 206.844525 
L 340.255926 205.985637 
L 340.525616 202.914949 
L 340.60267 202.883928 
L 340.718251 203.257925 
L 341.026467 205.363614 
L 341.219102 206.323829 
L 341.450265 205.816179 
L 341.797008 204.676938 
L 342.259333 204.358316 
L 342.413441 204.383684 
L 342.721657 204.14537 
L 342.875765 204.541111 
L 342.991346 204.860892 
L 343.029873 204.771017 
L 343.222509 204.401369 
L 343.33809 204.648816 
L 343.646306 205.422323 
L 343.954522 205.733987 
L 344.185685 206.506188 
L 344.301266 207.017172 
L 344.339793 206.901494 
L 344.493901 205.473204 
L 344.725063 203.467682 
L 344.802117 203.472466 
L 344.994753 203.89053 
L 345.03328 203.827038 
L 345.264442 203.31098 
L 345.302969 203.343596 
L 345.457077 203.81805 
L 345.649712 204.682882 
L 345.688239 204.628812 
L 346.112037 203.664248 
L 346.227618 203.333159 
L 346.535834 202.175219 
L 346.574361 202.221026 
L 347.036686 203.559007 
L 347.576064 206.334556 
L 347.614591 206.322524 
L 347.807227 205.88315 
L 347.845754 205.923449 
L 347.999862 206.460671 
L 348.346605 207.78836 
L 348.423659 207.864029 
L 348.462186 207.833732 
L 348.770403 207.857796 
L 349.695052 210.887749 
L 350.542647 214.794421 
L 350.619701 214.753688 
L 350.850863 213.992793 
L 351.197606 211.858257 
L 351.582877 211.745478 
L 351.621404 211.807086 
L 351.659931 211.75722 
L 351.852566 211.098521 
L 352.160783 208.847582 
L 352.623107 204.190018 
L 352.892796 203.765865 
L 352.931323 203.83559 
L 353.046904 204.146675 
L 353.085432 204.105941 
L 353.432175 203.551324 
L 353.547756 203.861538 
L 353.817445 205.197055 
L 353.933026 205.117617 
L 354.048608 205.21474 
L 354.164189 205.435514 
L 354.27977 204.85147 
L 354.587986 202.545301 
L 354.93473 202.156084 
L 354.973257 202.197542 
L 355.050311 202.360767 
L 355.088838 202.228419 
L 355.281473 201.648869 
L 355.397054 201.704388 
L 355.551162 202.202761 
L 355.859379 203.389548 
L 355.97496 203.319533 
L 356.090541 203.017291 
L 356.706974 199.846581 
L 356.976663 198.628192 
L 357.169298 198.019215 
L 357.246352 198.09387 
L 357.361933 198.323052 
L 357.40046 198.160551 
L 357.593096 197.274846 
L 357.631623 197.291951 
L 357.747204 197.664353 
L 358.093947 199.465771 
L 358.171001 199.329074 
L 358.402163 198.340012 
L 358.556272 198.047772 
L 358.671853 198.342911 
L 358.903015 199.065682 
L 359.249758 197.618401 
L 359.326812 197.74901 
L 359.519448 198.548464 
L 359.596502 198.365815 
L 359.712083 198.108656 
L 359.75061 198.122572 
L 359.866191 198.442209 
L 360.020299 199.112794 
L 360.058826 199.064522 
L 360.212934 198.857809 
L 360.251461 198.895354 
L 360.40557 199.438519 
L 360.867894 201.825865 
L 360.906421 201.818907 
L 361.022002 201.259796 
L 361.4458 197.820765 
L 361.792543 193.988168 
L 361.985178 193.050276 
L 362.062232 193.175812 
L 362.601611 195.338325 
L 363.063936 198.015881 
L 363.179517 198.23651 
L 363.410679 199.471135 
L 363.834476 202.691421 
L 363.91153 202.33279 
L 364.219747 200.806941 
L 364.296801 200.840862 
L 364.489436 201.033369 
L 364.797652 202.071282 
L 365.259977 204.782904 
L 365.337031 204.565609 
L 365.491139 204.218575 
L 365.529666 204.231621 
L 365.837883 204.70564 
L 365.914937 204.583294 
L 366.184626 203.936628 
L 366.223153 203.98345 
L 366.377261 204.520961 
L 366.801059 206.252364 
L 367.109275 206.66202 
L 367.263383 205.978969 
L 367.417491 205.543944 
L 367.533072 205.796754 
L 367.95687 207.266939 
L 368.072451 206.927442 
L 368.457722 205.464071 
L 368.496249 205.477987 
L 368.688884 205.567138 
L 368.804465 205.667015 
L 369.228262 206.64593 
L 369.305316 206.524453 
L 369.382371 206.531556 
L 369.536479 206.987456 
L 369.729114 207.446689 
L 369.806168 207.372759 
L 370.384074 205.104425 
L 370.807871 202.211604 
L 371.424304 200.726488 
L 371.963682 200.110698 
L 372.079264 200.377715 
L 372.348953 201.939514 
L 372.849804 204.973816 
L 373.080967 205.257068 
L 373.119494 205.246196 
L 373.42771 203.521317 
L 373.504764 203.634676 
L 373.581818 203.903577 
L 373.581818 203.903577 
" style="fill:none;stroke:#ff0000;stroke-linecap:square;stroke-width:1.5;"/>
   </g>
   <g id="line2d_20">
    <path clip-path="url(#pb2011a88cf)" d="M 258.00069 201.264 
L 296.450679 201.264 
L 296.450679 201.264 
" style="fill:none;stroke:#000000;stroke-linecap:square;stroke-width:1.5;"/>
   </g>
   <g id="line2d_21">
    <path clip-path="url(#pb2011a88cf)" d="M 258.00069 179.52 
L 258.00069 178.0704 
L 258.00069 176.6208 
L 258.00069 175.1712 
L 258.00069 173.7216 
L 258.00069 172.272 
L 258.00069 170.8224 
L 258.00069 169.3728 
L 258.00069 167.9232 
L 258.00069 166.4736 
L 258.00069 165.024 
L 258.00069 163.5744 
L 258.00069 162.1248 
L 258.00069 160.6752 
L 258.00069 159.2256 
L 258.00069 157.776 
L 258.00069 156.3264 
L 258.00069 154.8768 
L 258.00069 153.4272 
L 258.00069 151.9776 
" style="fill:none;stroke:#000000;stroke-linecap:square;stroke-width:1.5;"/>
   </g>
   <g id="patch_3">
    <path d="M 54 252 
L 54 34.56 
" style="fill:none;stroke:#000000;stroke-linecap:square;stroke-linejoin:miter;stroke-width:0.8;"/>
   </g>
   <g id="patch_4">
    <path d="M 54 252 
L 388.8 252 
" style="fill:none;stroke:#000000;stroke-linecap:square;stroke-linejoin:miter;stroke-width:0.8;"/>
   </g>
   <g id="text_20">
    <!-- 500 ms -->
    <g transform="translate(258.00069 199.8144)scale(0.12 -0.12)">
     <use xlink:href="#DejaVuSans-35"/>
     <use x="63.623047" xlink:href="#DejaVuSans-30"/>
     <use x="127.246094" xlink:href="#DejaVuSans-30"/>
     <use x="190.869141" xlink:href="#DejaVuSans-20"/>
     <use x="222.65625" xlink:href="#DejaVuSans-6d"/>
     <use x="320.068359" xlink:href="#DejaVuSans-73"/>
    </g>
   </g>
   <g id="text_21">
    <!-- 20 mV -->
    <g transform="translate(261.853395 150.528)scale(0.12 -0.12)">
     <use xlink:href="#DejaVuSans-32"/>
     <use x="63.623047" xlink:href="#DejaVuSans-30"/>
     <use x="127.246094" xlink:href="#DejaVuSans-20"/>
     <use x="159.033203" xlink:href="#DejaVuSans-6d"/>
     <use x="256.445312" xlink:href="#DejaVuSans-56"/>
    </g>
   </g>
  </g>
 </g>
 <defs>
  <clipPath id="pb2011a88cf">
   <rect height="217.44" width="334.8" x="54" y="34.56"/>
  </clipPath>
 </defs>
</svg>
