<?xml version="1.0" encoding="utf-8" standalone="no"?>
<!DOCTYPE svg PUBLIC "-//W3C//DTD SVG 1.1//EN"
  "http://www.w3.org/Graphics/SVG/1.1/DTD/svg11.dtd">
<svg height="288pt" version="1.1" viewBox="0 0 432 288" width="432pt" xmlns="http://www.w3.org/2000/svg" xmlns:xlink="http://www.w3.org/1999/xlink">
 <metadata>
  <rdf:RDF xmlns:cc="http://creativecommons.org/ns#" xmlns:dc="http://purl.org/dc/elements/1.1/" xmlns:rdf="http://www.w3.org/1999/02/22-rdf-syntax-ns#">
   <cc:Work>
    <dc:type rdf:resource="http://purl.org/dc/dcmitype/StillImage"/>
    <dc:date>2021-07-05T14:41:40.131430</dc:date>
    <dc:format>image/svg+xml</dc:format>
    <dc:creator>
     <cc:Agent>
      <dc:title>Matplotlib v3.4.1, https://matplotlib.org/</dc:title>
     </cc:Agent>
    </dc:creator>
   </cc:Work>
  </rdf:RDF>
 </metadata>
 <defs>
  <style type="text/css">*{stroke-linecap:butt;stroke-linejoin:round;}</style>
 </defs>
 <g id="figure_1">
  <g id="patch_1">
   <path d="M 0 288 
L 432 288 
L 432 0 
L 0 0 
z
" style="fill:none;"/>
  </g>
  <g id="axes_1">
   <g id="patch_2">
    <path d="M 54 252 
L 388.8 252 
L 388.8 34.56 
L 54 34.56 
z
" style="fill:#ffffff;"/>
   </g>
   <g id="matplotlib.axis_1">
    <g id="xtick_1">
     <g id="line2d_1">
      <defs>
       <path d="M 0 0 
L 0 3.5 
" id="m93e060ce2e" style="stroke:#000000;stroke-width:0.8;"/>
      </defs>
      <g>
       <use style="stroke:#000000;stroke-width:0.8;" x="65.365478" xlink:href="#m93e060ce2e" y="252"/>
      </g>
     </g>
     <g id="text_1">
      <!-- 0 -->
      <g transform="translate(61.547978 268.118125)scale(0.12 -0.12)">
       <defs>
        <path d="M 2034 4250 
Q 1547 4250 1301 3770 
Q 1056 3291 1056 2328 
Q 1056 1369 1301 889 
Q 1547 409 2034 409 
Q 2525 409 2770 889 
Q 3016 1369 3016 2328 
Q 3016 3291 2770 3770 
Q 2525 4250 2034 4250 
z
M 2034 4750 
Q 2819 4750 3233 4129 
Q 3647 3509 3647 2328 
Q 3647 1150 3233 529 
Q 2819 -91 2034 -91 
Q 1250 -91 836 529 
Q 422 1150 422 2328 
Q 422 3509 836 4129 
Q 1250 4750 2034 4750 
z
" id="DejaVuSans-30" transform="scale(0.015625)"/>
       </defs>
       <use xlink:href="#DejaVuSans-30"/>
      </g>
     </g>
    </g>
    <g id="xtick_2">
     <g id="line2d_2">
      <g>
       <use style="stroke:#000000;stroke-width:0.8;" x="103.89252" xlink:href="#m93e060ce2e" y="252"/>
      </g>
     </g>
     <g id="text_2">
      <!-- 500 -->
      <g transform="translate(92.44002 268.118125)scale(0.12 -0.12)">
       <defs>
        <path d="M 691 4666 
L 3169 4666 
L 3169 4134 
L 1269 4134 
L 1269 2991 
Q 1406 3038 1543 3061 
Q 1681 3084 1819 3084 
Q 2600 3084 3056 2656 
Q 3513 2228 3513 1497 
Q 3513 744 3044 326 
Q 2575 -91 1722 -91 
Q 1428 -91 1123 -41 
Q 819 9 494 109 
L 494 744 
Q 775 591 1075 516 
Q 1375 441 1709 441 
Q 2250 441 2565 725 
Q 2881 1009 2881 1497 
Q 2881 1984 2565 2268 
Q 2250 2553 1709 2553 
Q 1456 2553 1204 2497 
Q 953 2441 691 2322 
L 691 4666 
z
" id="DejaVuSans-35" transform="scale(0.015625)"/>
       </defs>
       <use xlink:href="#DejaVuSans-35"/>
       <use x="63.623047" xlink:href="#DejaVuSans-30"/>
       <use x="127.246094" xlink:href="#DejaVuSans-30"/>
      </g>
     </g>
    </g>
    <g id="xtick_3">
     <g id="line2d_3">
      <g>
       <use style="stroke:#000000;stroke-width:0.8;" x="142.419563" xlink:href="#m93e060ce2e" y="252"/>
      </g>
     </g>
     <g id="text_3">
      <!-- 1000 -->
      <g transform="translate(127.149563 268.118125)scale(0.12 -0.12)">
       <defs>
        <path d="M 794 531 
L 1825 531 
L 1825 4091 
L 703 3866 
L 703 4441 
L 1819 4666 
L 2450 4666 
L 2450 531 
L 3481 531 
L 3481 0 
L 794 0 
L 794 531 
z
" id="DejaVuSans-31" transform="scale(0.015625)"/>
       </defs>
       <use xlink:href="#DejaVuSans-31"/>
       <use x="63.623047" xlink:href="#DejaVuSans-30"/>
       <use x="127.246094" xlink:href="#DejaVuSans-30"/>
       <use x="190.869141" xlink:href="#DejaVuSans-30"/>
      </g>
     </g>
    </g>
    <g id="xtick_4">
     <g id="line2d_4">
      <g>
       <use style="stroke:#000000;stroke-width:0.8;" x="180.946605" xlink:href="#m93e060ce2e" y="252"/>
      </g>
     </g>
     <g id="text_4">
      <!-- 1500 -->
      <g transform="translate(165.676605 268.118125)scale(0.12 -0.12)">
       <use xlink:href="#DejaVuSans-31"/>
       <use x="63.623047" xlink:href="#DejaVuSans-35"/>
       <use x="127.246094" xlink:href="#DejaVuSans-30"/>
       <use x="190.869141" xlink:href="#DejaVuSans-30"/>
      </g>
     </g>
    </g>
    <g id="xtick_5">
     <g id="line2d_5">
      <g>
       <use style="stroke:#000000;stroke-width:0.8;" x="219.473648" xlink:href="#m93e060ce2e" y="252"/>
      </g>
     </g>
     <g id="text_5">
      <!-- 2000 -->
      <g transform="translate(204.203648 268.118125)scale(0.12 -0.12)">
       <defs>
        <path d="M 1228 531 
L 3431 531 
L 3431 0 
L 469 0 
L 469 531 
Q 828 903 1448 1529 
Q 2069 2156 2228 2338 
Q 2531 2678 2651 2914 
Q 2772 3150 2772 3378 
Q 2772 3750 2511 3984 
Q 2250 4219 1831 4219 
Q 1534 4219 1204 4116 
Q 875 4013 500 3803 
L 500 4441 
Q 881 4594 1212 4672 
Q 1544 4750 1819 4750 
Q 2544 4750 2975 4387 
Q 3406 4025 3406 3419 
Q 3406 3131 3298 2873 
Q 3191 2616 2906 2266 
Q 2828 2175 2409 1742 
Q 1991 1309 1228 531 
z
" id="DejaVuSans-32" transform="scale(0.015625)"/>
       </defs>
       <use xlink:href="#DejaVuSans-32"/>
       <use x="63.623047" xlink:href="#DejaVuSans-30"/>
       <use x="127.246094" xlink:href="#DejaVuSans-30"/>
       <use x="190.869141" xlink:href="#DejaVuSans-30"/>
      </g>
     </g>
    </g>
    <g id="xtick_6">
     <g id="line2d_6">
      <g>
       <use style="stroke:#000000;stroke-width:0.8;" x="258.00069" xlink:href="#m93e060ce2e" y="252"/>
      </g>
     </g>
     <g id="text_6">
      <!-- 2500 -->
      <g transform="translate(242.73069 268.118125)scale(0.12 -0.12)">
       <use xlink:href="#DejaVuSans-32"/>
       <use x="63.623047" xlink:href="#DejaVuSans-35"/>
       <use x="127.246094" xlink:href="#DejaVuSans-30"/>
       <use x="190.869141" xlink:href="#DejaVuSans-30"/>
      </g>
     </g>
    </g>
    <g id="xtick_7">
     <g id="line2d_7">
      <g>
       <use style="stroke:#000000;stroke-width:0.8;" x="296.527733" xlink:href="#m93e060ce2e" y="252"/>
      </g>
     </g>
     <g id="text_7">
      <!-- 3000 -->
      <g transform="translate(281.257733 268.118125)scale(0.12 -0.12)">
       <defs>
        <path d="M 2597 2516 
Q 3050 2419 3304 2112 
Q 3559 1806 3559 1356 
Q 3559 666 3084 287 
Q 2609 -91 1734 -91 
Q 1441 -91 1130 -33 
Q 819 25 488 141 
L 488 750 
Q 750 597 1062 519 
Q 1375 441 1716 441 
Q 2309 441 2620 675 
Q 2931 909 2931 1356 
Q 2931 1769 2642 2001 
Q 2353 2234 1838 2234 
L 1294 2234 
L 1294 2753 
L 1863 2753 
Q 2328 2753 2575 2939 
Q 2822 3125 2822 3475 
Q 2822 3834 2567 4026 
Q 2313 4219 1838 4219 
Q 1578 4219 1281 4162 
Q 984 4106 628 3988 
L 628 4550 
Q 988 4650 1302 4700 
Q 1616 4750 1894 4750 
Q 2613 4750 3031 4423 
Q 3450 4097 3450 3541 
Q 3450 3153 3228 2886 
Q 3006 2619 2597 2516 
z
" id="DejaVuSans-33" transform="scale(0.015625)"/>
       </defs>
       <use xlink:href="#DejaVuSans-33"/>
       <use x="63.623047" xlink:href="#DejaVuSans-30"/>
       <use x="127.246094" xlink:href="#DejaVuSans-30"/>
       <use x="190.869141" xlink:href="#DejaVuSans-30"/>
      </g>
     </g>
    </g>
    <g id="xtick_8">
     <g id="line2d_8">
      <g>
       <use style="stroke:#000000;stroke-width:0.8;" x="335.054776" xlink:href="#m93e060ce2e" y="252"/>
      </g>
     </g>
     <g id="text_8">
      <!-- 3500 -->
      <g transform="translate(319.784776 268.118125)scale(0.12 -0.12)">
       <use xlink:href="#DejaVuSans-33"/>
       <use x="63.623047" xlink:href="#DejaVuSans-35"/>
       <use x="127.246094" xlink:href="#DejaVuSans-30"/>
       <use x="190.869141" xlink:href="#DejaVuSans-30"/>
      </g>
     </g>
    </g>
    <g id="xtick_9">
     <g id="line2d_9">
      <g>
       <use style="stroke:#000000;stroke-width:0.8;" x="373.581818" xlink:href="#m93e060ce2e" y="252"/>
      </g>
     </g>
     <g id="text_9">
      <!-- 4000 -->
      <g transform="translate(358.311818 268.118125)scale(0.12 -0.12)">
       <defs>
        <path d="M 2419 4116 
L 825 1625 
L 2419 1625 
L 2419 4116 
z
M 2253 4666 
L 3047 4666 
L 3047 1625 
L 3713 1625 
L 3713 1100 
L 3047 1100 
L 3047 0 
L 2419 0 
L 2419 1100 
L 313 1100 
L 313 1709 
L 2253 4666 
z
" id="DejaVuSans-34" transform="scale(0.015625)"/>
       </defs>
       <use xlink:href="#DejaVuSans-34"/>
       <use x="63.623047" xlink:href="#DejaVuSans-30"/>
       <use x="127.246094" xlink:href="#DejaVuSans-30"/>
       <use x="190.869141" xlink:href="#DejaVuSans-30"/>
      </g>
     </g>
    </g>
    <g id="text_10">
     <!-- Time(ms) -->
     <g transform="translate(193.067813 283.731875)scale(0.12 -0.12)">
      <defs>
       <path d="M -19 4666 
L 3928 4666 
L 3928 4134 
L 2272 4134 
L 2272 0 
L 1638 0 
L 1638 4134 
L -19 4134 
L -19 4666 
z
" id="DejaVuSans-54" transform="scale(0.015625)"/>
       <path d="M 603 3500 
L 1178 3500 
L 1178 0 
L 603 0 
L 603 3500 
z
M 603 4863 
L 1178 4863 
L 1178 4134 
L 603 4134 
L 603 4863 
z
" id="DejaVuSans-69" transform="scale(0.015625)"/>
       <path d="M 3328 2828 
Q 3544 3216 3844 3400 
Q 4144 3584 4550 3584 
Q 5097 3584 5394 3201 
Q 5691 2819 5691 2113 
L 5691 0 
L 5113 0 
L 5113 2094 
Q 5113 2597 4934 2840 
Q 4756 3084 4391 3084 
Q 3944 3084 3684 2787 
Q 3425 2491 3425 1978 
L 3425 0 
L 2847 0 
L 2847 2094 
Q 2847 2600 2669 2842 
Q 2491 3084 2119 3084 
Q 1678 3084 1418 2786 
Q 1159 2488 1159 1978 
L 1159 0 
L 581 0 
L 581 3500 
L 1159 3500 
L 1159 2956 
Q 1356 3278 1631 3431 
Q 1906 3584 2284 3584 
Q 2666 3584 2933 3390 
Q 3200 3197 3328 2828 
z
" id="DejaVuSans-6d" transform="scale(0.015625)"/>
       <path d="M 3597 1894 
L 3597 1613 
L 953 1613 
Q 991 1019 1311 708 
Q 1631 397 2203 397 
Q 2534 397 2845 478 
Q 3156 559 3463 722 
L 3463 178 
Q 3153 47 2828 -22 
Q 2503 -91 2169 -91 
Q 1331 -91 842 396 
Q 353 884 353 1716 
Q 353 2575 817 3079 
Q 1281 3584 2069 3584 
Q 2775 3584 3186 3129 
Q 3597 2675 3597 1894 
z
M 3022 2063 
Q 3016 2534 2758 2815 
Q 2500 3097 2075 3097 
Q 1594 3097 1305 2825 
Q 1016 2553 972 2059 
L 3022 2063 
z
" id="DejaVuSans-65" transform="scale(0.015625)"/>
       <path d="M 1984 4856 
Q 1566 4138 1362 3434 
Q 1159 2731 1159 2009 
Q 1159 1288 1364 580 
Q 1569 -128 1984 -844 
L 1484 -844 
Q 1016 -109 783 600 
Q 550 1309 550 2009 
Q 550 2706 781 3412 
Q 1013 4119 1484 4856 
L 1984 4856 
z
" id="DejaVuSans-28" transform="scale(0.015625)"/>
       <path d="M 2834 3397 
L 2834 2853 
Q 2591 2978 2328 3040 
Q 2066 3103 1784 3103 
Q 1356 3103 1142 2972 
Q 928 2841 928 2578 
Q 928 2378 1081 2264 
Q 1234 2150 1697 2047 
L 1894 2003 
Q 2506 1872 2764 1633 
Q 3022 1394 3022 966 
Q 3022 478 2636 193 
Q 2250 -91 1575 -91 
Q 1294 -91 989 -36 
Q 684 19 347 128 
L 347 722 
Q 666 556 975 473 
Q 1284 391 1588 391 
Q 1994 391 2212 530 
Q 2431 669 2431 922 
Q 2431 1156 2273 1281 
Q 2116 1406 1581 1522 
L 1381 1569 
Q 847 1681 609 1914 
Q 372 2147 372 2553 
Q 372 3047 722 3315 
Q 1072 3584 1716 3584 
Q 2034 3584 2315 3537 
Q 2597 3491 2834 3397 
z
" id="DejaVuSans-73" transform="scale(0.015625)"/>
       <path d="M 513 4856 
L 1013 4856 
Q 1481 4119 1714 3412 
Q 1947 2706 1947 2009 
Q 1947 1309 1714 600 
Q 1481 -109 1013 -844 
L 513 -844 
Q 928 -128 1133 580 
Q 1338 1288 1338 2009 
Q 1338 2731 1133 3434 
Q 928 4138 513 4856 
z
" id="DejaVuSans-29" transform="scale(0.015625)"/>
      </defs>
      <use xlink:href="#DejaVuSans-54"/>
      <use x="57.958984" xlink:href="#DejaVuSans-69"/>
      <use x="85.742188" xlink:href="#DejaVuSans-6d"/>
      <use x="183.154297" xlink:href="#DejaVuSans-65"/>
      <use x="244.677734" xlink:href="#DejaVuSans-28"/>
      <use x="283.691406" xlink:href="#DejaVuSans-6d"/>
      <use x="381.103516" xlink:href="#DejaVuSans-73"/>
      <use x="433.203125" xlink:href="#DejaVuSans-29"/>
     </g>
    </g>
   </g>
   <g id="matplotlib.axis_2">
    <g id="ytick_1">
     <g id="line2d_10">
      <defs>
       <path d="M 0 0 
L -3.5 0 
" id="m3560dfe006" style="stroke:#000000;stroke-width:0.8;"/>
      </defs>
      <g>
       <use style="stroke:#000000;stroke-width:0.8;" x="54" xlink:href="#m3560dfe006" y="237.504"/>
      </g>
     </g>
     <g id="text_11">
      <!-- -100 -->
      <g transform="translate(19.765625 242.063063)scale(0.12 -0.12)">
       <defs>
        <path d="M 313 2009 
L 1997 2009 
L 1997 1497 
L 313 1497 
L 313 2009 
z
" id="DejaVuSans-2d" transform="scale(0.015625)"/>
       </defs>
       <use xlink:href="#DejaVuSans-2d"/>
       <use x="36.083984" xlink:href="#DejaVuSans-31"/>
       <use x="99.707031" xlink:href="#DejaVuSans-30"/>
       <use x="163.330078" xlink:href="#DejaVuSans-30"/>
      </g>
     </g>
    </g>
    <g id="ytick_2">
     <g id="line2d_11">
      <g>
       <use style="stroke:#000000;stroke-width:0.8;" x="54" xlink:href="#m3560dfe006" y="208.512"/>
      </g>
     </g>
     <g id="text_12">
      <!-- -80 -->
      <g transform="translate(27.400625 213.071062)scale(0.12 -0.12)">
       <defs>
        <path d="M 2034 2216 
Q 1584 2216 1326 1975 
Q 1069 1734 1069 1313 
Q 1069 891 1326 650 
Q 1584 409 2034 409 
Q 2484 409 2743 651 
Q 3003 894 3003 1313 
Q 3003 1734 2745 1975 
Q 2488 2216 2034 2216 
z
M 1403 2484 
Q 997 2584 770 2862 
Q 544 3141 544 3541 
Q 544 4100 942 4425 
Q 1341 4750 2034 4750 
Q 2731 4750 3128 4425 
Q 3525 4100 3525 3541 
Q 3525 3141 3298 2862 
Q 3072 2584 2669 2484 
Q 3125 2378 3379 2068 
Q 3634 1759 3634 1313 
Q 3634 634 3220 271 
Q 2806 -91 2034 -91 
Q 1263 -91 848 271 
Q 434 634 434 1313 
Q 434 1759 690 2068 
Q 947 2378 1403 2484 
z
M 1172 3481 
Q 1172 3119 1398 2916 
Q 1625 2713 2034 2713 
Q 2441 2713 2670 2916 
Q 2900 3119 2900 3481 
Q 2900 3844 2670 4047 
Q 2441 4250 2034 4250 
Q 1625 4250 1398 4047 
Q 1172 3844 1172 3481 
z
" id="DejaVuSans-38" transform="scale(0.015625)"/>
       </defs>
       <use xlink:href="#DejaVuSans-2d"/>
       <use x="36.083984" xlink:href="#DejaVuSans-38"/>
       <use x="99.707031" xlink:href="#DejaVuSans-30"/>
      </g>
     </g>
    </g>
    <g id="ytick_3">
     <g id="line2d_12">
      <g>
       <use style="stroke:#000000;stroke-width:0.8;" x="54" xlink:href="#m3560dfe006" y="179.52"/>
      </g>
     </g>
     <g id="text_13">
      <!-- -60 -->
      <g transform="translate(27.400625 184.079062)scale(0.12 -0.12)">
       <defs>
        <path d="M 2113 2584 
Q 1688 2584 1439 2293 
Q 1191 2003 1191 1497 
Q 1191 994 1439 701 
Q 1688 409 2113 409 
Q 2538 409 2786 701 
Q 3034 994 3034 1497 
Q 3034 2003 2786 2293 
Q 2538 2584 2113 2584 
z
M 3366 4563 
L 3366 3988 
Q 3128 4100 2886 4159 
Q 2644 4219 2406 4219 
Q 1781 4219 1451 3797 
Q 1122 3375 1075 2522 
Q 1259 2794 1537 2939 
Q 1816 3084 2150 3084 
Q 2853 3084 3261 2657 
Q 3669 2231 3669 1497 
Q 3669 778 3244 343 
Q 2819 -91 2113 -91 
Q 1303 -91 875 529 
Q 447 1150 447 2328 
Q 447 3434 972 4092 
Q 1497 4750 2381 4750 
Q 2619 4750 2861 4703 
Q 3103 4656 3366 4563 
z
" id="DejaVuSans-36" transform="scale(0.015625)"/>
       </defs>
       <use xlink:href="#DejaVuSans-2d"/>
       <use x="36.083984" xlink:href="#DejaVuSans-36"/>
       <use x="99.707031" xlink:href="#DejaVuSans-30"/>
      </g>
     </g>
    </g>
    <g id="ytick_4">
     <g id="line2d_13">
      <g>
       <use style="stroke:#000000;stroke-width:0.8;" x="54" xlink:href="#m3560dfe006" y="150.528"/>
      </g>
     </g>
     <g id="text_14">
      <!-- -40 -->
      <g transform="translate(27.400625 155.087063)scale(0.12 -0.12)">
       <use xlink:href="#DejaVuSans-2d"/>
       <use x="36.083984" xlink:href="#DejaVuSans-34"/>
       <use x="99.707031" xlink:href="#DejaVuSans-30"/>
      </g>
     </g>
    </g>
    <g id="ytick_5">
     <g id="line2d_14">
      <g>
       <use style="stroke:#000000;stroke-width:0.8;" x="54" xlink:href="#m3560dfe006" y="121.536"/>
      </g>
     </g>
     <g id="text_15">
      <!-- -20 -->
      <g transform="translate(27.400625 126.095062)scale(0.12 -0.12)">
       <use xlink:href="#DejaVuSans-2d"/>
       <use x="36.083984" xlink:href="#DejaVuSans-32"/>
       <use x="99.707031" xlink:href="#DejaVuSans-30"/>
      </g>
     </g>
    </g>
    <g id="ytick_6">
     <g id="line2d_15">
      <g>
       <use style="stroke:#000000;stroke-width:0.8;" x="54" xlink:href="#m3560dfe006" y="92.544"/>
      </g>
     </g>
     <g id="text_16">
      <!-- 0 -->
      <g transform="translate(39.365 97.103062)scale(0.12 -0.12)">
       <use xlink:href="#DejaVuSans-30"/>
      </g>
     </g>
    </g>
    <g id="ytick_7">
     <g id="line2d_16">
      <g>
       <use style="stroke:#000000;stroke-width:0.8;" x="54" xlink:href="#m3560dfe006" y="63.552"/>
      </g>
     </g>
     <g id="text_17">
      <!-- 20 -->
      <g transform="translate(31.73 68.111063)scale(0.12 -0.12)">
       <use xlink:href="#DejaVuSans-32"/>
       <use x="63.623047" xlink:href="#DejaVuSans-30"/>
      </g>
     </g>
    </g>
    <g id="ytick_8">
     <g id="line2d_17">
      <g>
       <use style="stroke:#000000;stroke-width:0.8;" x="54" xlink:href="#m3560dfe006" y="34.56"/>
      </g>
     </g>
     <g id="text_18">
      <!-- 40 -->
      <g transform="translate(31.73 39.119062)scale(0.12 -0.12)">
       <use xlink:href="#DejaVuSans-34"/>
       <use x="63.623047" xlink:href="#DejaVuSans-30"/>
      </g>
     </g>
    </g>
    <g id="text_19">
     <!-- Membrane potential (mV) -->
     <g transform="translate(13.27 220.574062)rotate(-90)scale(0.12 -0.12)">
      <defs>
       <path d="M 628 4666 
L 1569 4666 
L 2759 1491 
L 3956 4666 
L 4897 4666 
L 4897 0 
L 4281 0 
L 4281 4097 
L 3078 897 
L 2444 897 
L 1241 4097 
L 1241 0 
L 628 0 
L 628 4666 
z
" id="DejaVuSans-4d" transform="scale(0.015625)"/>
       <path d="M 3116 1747 
Q 3116 2381 2855 2742 
Q 2594 3103 2138 3103 
Q 1681 3103 1420 2742 
Q 1159 2381 1159 1747 
Q 1159 1113 1420 752 
Q 1681 391 2138 391 
Q 2594 391 2855 752 
Q 3116 1113 3116 1747 
z
M 1159 2969 
Q 1341 3281 1617 3432 
Q 1894 3584 2278 3584 
Q 2916 3584 3314 3078 
Q 3713 2572 3713 1747 
Q 3713 922 3314 415 
Q 2916 -91 2278 -91 
Q 1894 -91 1617 61 
Q 1341 213 1159 525 
L 1159 0 
L 581 0 
L 581 4863 
L 1159 4863 
L 1159 2969 
z
" id="DejaVuSans-62" transform="scale(0.015625)"/>
       <path d="M 2631 2963 
Q 2534 3019 2420 3045 
Q 2306 3072 2169 3072 
Q 1681 3072 1420 2755 
Q 1159 2438 1159 1844 
L 1159 0 
L 581 0 
L 581 3500 
L 1159 3500 
L 1159 2956 
Q 1341 3275 1631 3429 
Q 1922 3584 2338 3584 
Q 2397 3584 2469 3576 
Q 2541 3569 2628 3553 
L 2631 2963 
z
" id="DejaVuSans-72" transform="scale(0.015625)"/>
       <path d="M 2194 1759 
Q 1497 1759 1228 1600 
Q 959 1441 959 1056 
Q 959 750 1161 570 
Q 1363 391 1709 391 
Q 2188 391 2477 730 
Q 2766 1069 2766 1631 
L 2766 1759 
L 2194 1759 
z
M 3341 1997 
L 3341 0 
L 2766 0 
L 2766 531 
Q 2569 213 2275 61 
Q 1981 -91 1556 -91 
Q 1019 -91 701 211 
Q 384 513 384 1019 
Q 384 1609 779 1909 
Q 1175 2209 1959 2209 
L 2766 2209 
L 2766 2266 
Q 2766 2663 2505 2880 
Q 2244 3097 1772 3097 
Q 1472 3097 1187 3025 
Q 903 2953 641 2809 
L 641 3341 
Q 956 3463 1253 3523 
Q 1550 3584 1831 3584 
Q 2591 3584 2966 3190 
Q 3341 2797 3341 1997 
z
" id="DejaVuSans-61" transform="scale(0.015625)"/>
       <path d="M 3513 2113 
L 3513 0 
L 2938 0 
L 2938 2094 
Q 2938 2591 2744 2837 
Q 2550 3084 2163 3084 
Q 1697 3084 1428 2787 
Q 1159 2491 1159 1978 
L 1159 0 
L 581 0 
L 581 3500 
L 1159 3500 
L 1159 2956 
Q 1366 3272 1645 3428 
Q 1925 3584 2291 3584 
Q 2894 3584 3203 3211 
Q 3513 2838 3513 2113 
z
" id="DejaVuSans-6e" transform="scale(0.015625)"/>
       <path id="DejaVuSans-20" transform="scale(0.015625)"/>
       <path d="M 1159 525 
L 1159 -1331 
L 581 -1331 
L 581 3500 
L 1159 3500 
L 1159 2969 
Q 1341 3281 1617 3432 
Q 1894 3584 2278 3584 
Q 2916 3584 3314 3078 
Q 3713 2572 3713 1747 
Q 3713 922 3314 415 
Q 2916 -91 2278 -91 
Q 1894 -91 1617 61 
Q 1341 213 1159 525 
z
M 3116 1747 
Q 3116 2381 2855 2742 
Q 2594 3103 2138 3103 
Q 1681 3103 1420 2742 
Q 1159 2381 1159 1747 
Q 1159 1113 1420 752 
Q 1681 391 2138 391 
Q 2594 391 2855 752 
Q 3116 1113 3116 1747 
z
" id="DejaVuSans-70" transform="scale(0.015625)"/>
       <path d="M 1959 3097 
Q 1497 3097 1228 2736 
Q 959 2375 959 1747 
Q 959 1119 1226 758 
Q 1494 397 1959 397 
Q 2419 397 2687 759 
Q 2956 1122 2956 1747 
Q 2956 2369 2687 2733 
Q 2419 3097 1959 3097 
z
M 1959 3584 
Q 2709 3584 3137 3096 
Q 3566 2609 3566 1747 
Q 3566 888 3137 398 
Q 2709 -91 1959 -91 
Q 1206 -91 779 398 
Q 353 888 353 1747 
Q 353 2609 779 3096 
Q 1206 3584 1959 3584 
z
" id="DejaVuSans-6f" transform="scale(0.015625)"/>
       <path d="M 1172 4494 
L 1172 3500 
L 2356 3500 
L 2356 3053 
L 1172 3053 
L 1172 1153 
Q 1172 725 1289 603 
Q 1406 481 1766 481 
L 2356 481 
L 2356 0 
L 1766 0 
Q 1100 0 847 248 
Q 594 497 594 1153 
L 594 3053 
L 172 3053 
L 172 3500 
L 594 3500 
L 594 4494 
L 1172 4494 
z
" id="DejaVuSans-74" transform="scale(0.015625)"/>
       <path d="M 603 4863 
L 1178 4863 
L 1178 0 
L 603 0 
L 603 4863 
z
" id="DejaVuSans-6c" transform="scale(0.015625)"/>
       <path d="M 1831 0 
L 50 4666 
L 709 4666 
L 2188 738 
L 3669 4666 
L 4325 4666 
L 2547 0 
L 1831 0 
z
" id="DejaVuSans-56" transform="scale(0.015625)"/>
      </defs>
      <use xlink:href="#DejaVuSans-4d"/>
      <use x="86.279297" xlink:href="#DejaVuSans-65"/>
      <use x="147.802734" xlink:href="#DejaVuSans-6d"/>
      <use x="245.214844" xlink:href="#DejaVuSans-62"/>
      <use x="308.691406" xlink:href="#DejaVuSans-72"/>
      <use x="349.804688" xlink:href="#DejaVuSans-61"/>
      <use x="411.083984" xlink:href="#DejaVuSans-6e"/>
      <use x="474.462891" xlink:href="#DejaVuSans-65"/>
      <use x="535.986328" xlink:href="#DejaVuSans-20"/>
      <use x="567.773438" xlink:href="#DejaVuSans-70"/>
      <use x="631.25" xlink:href="#DejaVuSans-6f"/>
      <use x="692.431641" xlink:href="#DejaVuSans-74"/>
      <use x="731.640625" xlink:href="#DejaVuSans-65"/>
      <use x="793.164062" xlink:href="#DejaVuSans-6e"/>
      <use x="856.542969" xlink:href="#DejaVuSans-74"/>
      <use x="895.751953" xlink:href="#DejaVuSans-69"/>
      <use x="923.535156" xlink:href="#DejaVuSans-61"/>
      <use x="984.814453" xlink:href="#DejaVuSans-6c"/>
      <use x="1012.597656" xlink:href="#DejaVuSans-20"/>
      <use x="1044.384766" xlink:href="#DejaVuSans-28"/>
      <use x="1083.398438" xlink:href="#DejaVuSans-6d"/>
      <use x="1180.810547" xlink:href="#DejaVuSans-56"/>
      <use x="1249.21875" xlink:href="#DejaVuSans-29"/>
     </g>
    </g>
   </g>
   <g id="line2d_18">
    <path clip-path="url(#pec1bdeca78)" d="M 69.218182 179.543049 
L 69.641979 174.905053 
L 69.950196 169.062586 
L 70.142831 161.267072 
L 70.219885 153.467354 
L 70.335466 103.94206 
L 70.528101 201.996048 
L 70.759264 220.279128 
L 70.990426 223.767011 
L 71.106007 223.958503 
L 71.144534 223.903563 
L 71.298642 223.293281 
L 71.645386 220.706615 
L 73.648792 204.070571 
L 74.766076 197.229038 
L 76.461266 188.482587 
L 77.462969 182.736952 
L 78.040875 178.036334 
L 78.426145 173.042317 
L 78.695834 166.56304 
L 78.849942 157.822532 
L 78.926997 141.441617 
L 78.965524 99.641821 
L 79.004051 109.006237 
L 79.196686 202.672286 
L 79.427848 220.389008 
L 79.65901 223.769475 
L 79.774591 223.939658 
L 79.890173 223.633212 
L 80.159862 221.937325 
L 81.045984 214.002795 
L 82.124741 205.397534 
L 83.203498 198.548609 
L 84.590472 191.267993 
L 86.015972 183.629036 
L 86.632405 179.014235 
L 87.056203 174.080521 
L 87.325892 168.607701 
L 87.518527 160.133919 
L 87.595581 150.409278 
L 87.672635 90.773748 
L 87.711162 124.283282 
L 87.903797 204.490665 
L 88.13496 220.713283 
L 88.366122 223.802816 
L 88.443176 223.939078 
L 88.481703 223.91487 
L 88.635811 223.38968 
L 88.982555 220.883321 
L 91.101542 203.481598 
L 92.218826 196.792709 
L 95.262463 179.722509 
L 95.68626 175.232228 
L 95.994476 169.720414 
L 96.187112 162.851629 
L 96.302693 151.278748 
L 96.379747 92.433396 
L 96.418274 119.072695 
L 96.610909 203.868496 
L 96.842071 220.591227 
L 97.073234 223.781941 
L 97.150288 223.93328 
L 97.188815 223.914725 
L 97.304396 223.5861 
L 97.574085 221.866585 
L 98.498734 213.598501 
L 99.577491 205.093263 
L 100.656249 198.322472 
L 102.081749 190.908348 
L 103.430196 183.697892 
L 104.046628 179.133972 
L 104.470426 174.293612 
L 104.778642 167.911893 
L 104.971277 158.12144 
L 105.048331 142.933111 
L 105.086858 104.064116 
L 105.125386 105.150881 
L 105.318021 202.100129 
L 105.549183 220.262313 
L 105.780345 223.733235 
L 105.895926 223.922698 
L 105.934453 223.867468 
L 106.088562 223.257186 
L 106.435305 220.675594 
L 108.438711 204.10942 
L 109.555995 197.312825 
L 111.174131 189.049091 
L 112.252888 183.043688 
L 112.830794 178.54239 
L 113.216064 173.916861 
L 113.485754 168.318361 
L 113.678389 159.346932 
L 113.755443 147.872478 
L 113.832497 92.633875 
L 113.871024 135.685111 
L 114.063659 205.890398 
L 114.294822 220.969283 
L 114.525984 223.826879 
L 114.603038 223.929366 
L 114.641565 223.891966 
L 114.795673 223.331116 
L 115.142417 220.794171 
L 117.222877 203.684687 
L 118.340161 196.96869 
L 120.112405 187.94696 
L 121.037054 182.630987 
L 121.576433 178.313933 
L 121.961703 173.545474 
L 122.231392 167.610956 
L 122.385501 160.508931 
L 122.462555 151.50822 
L 122.539609 93.186028 
L 122.578136 117.591638 
L 122.770771 203.684687 
L 123.001933 220.552378 
L 123.233096 223.772664 
L 123.31015 223.928496 
L 123.348677 223.911826 
L 123.464258 223.587115 
L 123.733947 221.872673 
L 124.658596 213.608939 
L 125.737353 205.105295 
L 126.81611 198.336388 
L 128.241611 190.926902 
L 129.628585 183.48683 
L 130.245017 178.83028 
L 130.668815 173.792485 
L 130.938504 168.08541 
L 131.131139 158.662285 
L 131.208193 145.288131 
L 131.285247 98.786992 
L 131.477883 201.075407 
L 131.709045 220.075169 
L 131.940207 223.704243 
L 132.055788 223.925162 
L 132.094315 223.87747 
L 132.248423 223.287918 
L 132.595167 220.725315 
L 134.6371 203.89082 
L 135.754384 197.137134 
L 137.411047 188.696113 
L 138.451277 182.839729 
L 139.029183 178.243047 
L 139.414453 173.428926 
L 139.684143 167.383079 
L 139.838251 159.975043 
L 139.915305 149.938738 
L 139.992359 90.547466 
L 140.030886 126.80921 
L 140.223521 204.770727 
L 140.454684 220.756046 
L 140.685846 223.799916 
L 140.7629 223.929946 
L 140.801427 223.903273 
L 140.955535 223.37185 
L 141.302278 220.861577 
L 143.421266 203.481453 
L 144.53855 196.803726 
L 147.582186 179.798033 
L 148.005984 175.358053 
L 148.3142 169.956844 
L 148.506835 163.372326 
L 148.622417 153.129162 
L 148.699471 102.683372 
L 148.737998 106.320998 
L 148.930633 202.26234 
L 149.161795 220.29058 
L 149.392957 223.736279 
L 149.508539 223.920813 
L 149.62412 223.623935 
L 149.893809 221.941384 
L 150.741404 214.369399 
L 151.820161 205.711663 
L 152.898918 198.826643 
L 154.247365 191.735924 
L 155.788446 183.544524 
L 156.404879 178.915082 
L 156.828677 173.934981 
L 157.098366 168.353296 
L 157.291001 159.448114 
L 157.368055 148.224441 
L 157.445109 92.011417 
L 157.483636 134.413087 
L 157.676272 205.718621 
L 157.907434 220.935652 
L 158.138596 223.82224 
L 158.21565 223.928931 
L 158.254177 223.893271 
L 158.408285 223.337059 
L 158.755029 220.804463 
L 160.835489 203.693964 
L 161.952773 196.977098 
L 163.725017 187.956527 
L 164.649666 182.644613 
L 165.189045 178.334517 
L 165.574315 173.579829 
L 165.844005 167.678218 
L 165.998113 160.663458 
L 166.075167 151.935852 
L 166.152221 94.930187 
L 166.190748 114.735926 
L 166.383383 203.342871 
L 166.614545 220.488885 
L 166.845708 223.763966 
L 166.922762 223.927771 
L 166.961289 223.914145 
L 167.07687 223.596248 
L 167.346559 221.889634 
L 168.232681 213.968294 
L 169.311438 205.391591 
L 170.390196 198.568324 
L 171.777169 191.320904 
L 173.241197 183.502776 
L 173.857629 178.854054 
L 174.281427 173.832784 
L 174.551116 168.161659 
L 174.743751 158.891177 
L 174.820806 146.19645 
L 174.89786 96.418201 
L 174.936387 140.680142 
L 175.129022 206.607805 
L 175.360184 221.10627 
L 175.591346 223.84239 
L 175.6684 223.926901 
L 175.706928 223.882544 
L 175.861036 223.302269 
L 176.207779 220.747929 
L 178.249712 203.908505 
L 179.366997 197.15163 
L 181.023659 188.709739 
L 182.025362 183.110949 
L 182.603268 178.642412 
L 183.027066 173.474008 
L 183.296755 167.47194 
L 183.450863 160.185815 
L 183.527917 150.576852 
L 183.604971 91.008874 
L 183.643498 123.320168 
L 183.836133 204.358171 
L 184.067296 220.678493 
L 184.298458 223.789769 
L 184.375512 223.929656 
L 184.414039 223.906897 
L 184.568147 223.386056 
L 184.876364 221.211366 
L 187.226513 202.244509 
L 188.382325 195.584177 
L 191.04069 181.06049 
L 191.541542 176.361901 
L 191.888285 170.898359 
L 192.119448 163.517286 
L 192.235029 153.600717 
L 192.35061 102.974887 
L 192.543245 201.773824 
L 192.774407 220.200995 
L 193.00557 223.722653 
L 193.121151 223.922263 
L 193.159678 223.869497 
L 193.313786 223.266174 
L 193.660529 220.690959 
L 195.663936 204.124496 
L 196.78122 197.327031 
L 198.399356 189.065616 
L 199.478113 183.068041 
L 200.056018 178.579934 
L 200.441289 173.978759 
L 200.710978 168.434909 
L 200.903613 159.67831 
L 200.980667 148.995483 
L 201.057722 90.970169 
L 201.096249 131.298766 
L 201.288884 205.318531 
L 201.520046 220.859693 
L 201.751208 223.813108 
L 201.828262 223.929656 
L 201.866789 223.897909 
L 202.020898 223.352135 
L 202.367641 220.829106 
L 204.448101 203.713099 
L 205.565386 196.992754 
L 207.337629 187.971313 
L 208.262278 182.663892 
L 208.801657 178.362639 
L 209.186928 173.625926 
L 209.456617 167.767223 
L 209.610725 160.864663 
L 209.687779 152.475393 
L 209.764833 97.898532 
L 209.80336 110.984941 
L 209.995995 202.879434 
L 210.227158 220.403649 
L 210.45832 223.75237 
L 210.573901 223.917479 
L 210.689482 223.608569 
L 210.959171 221.912392 
L 211.845293 213.993952 
L 212.924051 205.412175 
L 214.002808 198.584849 
L 215.389781 191.335255 
L 216.853809 183.521186 
L 217.470242 178.880871 
L 217.894039 173.877867 
L 218.163728 168.246461 
L 218.356364 159.140943 
L 218.433418 147.136081 
L 218.510472 94.165233 
L 218.548999 138.077386 
L 218.741634 206.221922 
L 218.972796 221.03176 
L 219.203959 223.833402 
L 219.281013 223.927626 
L 219.31954 223.887037 
L 219.473648 223.317345 
L 219.820391 220.772572 
L 221.862325 203.92793 
L 222.979609 197.16743 
L 224.636272 188.72438 
L 225.676502 182.876984 
L 226.254407 178.298567 
L 226.639678 173.520685 
L 226.909367 167.563119 
L 227.063475 160.398761 
L 227.140529 151.196845 
L 227.217583 92.229437 
L 227.25611 119.584693 
L 227.448746 203.919812 
L 227.679908 220.5963 
L 227.91107 223.778752 
L 227.988124 223.929076 
L 228.026651 223.910231 
L 228.142232 223.580737 
L 228.411922 221.860932 
L 229.336571 213.596037 
L 230.415328 205.095293 
L 231.494085 198.328705 
L 232.881059 191.111581 
L 234.268032 183.7221 
L 234.884465 179.173256 
L 235.308262 174.361598 
L 235.616479 168.053084 
L 235.809114 158.564148 
L 235.886168 144.883548 
L 235.963222 99.872308 
L 236.155857 201.269943 
L 236.38702 220.11054 
L 236.618182 223.709751 
L 236.733763 223.924872 
L 236.77229 223.875731 
L 236.926398 223.282409 
L 237.273142 220.716327 
L 239.315075 203.883862 
L 240.432359 197.131625 
L 242.127549 188.495633 
L 243.129252 182.833786 
L 243.707158 178.234205 
L 244.092428 173.41443 
L 244.362117 167.354522 
L 244.516226 159.906477 
L 244.59328 149.725791 
L 244.670334 90.541957 
L 244.708861 127.892351 
L 244.901496 204.900177 
L 245.132658 220.7804 
L 245.36382 223.802816 
L 245.440875 223.929656 
L 245.479402 223.901823 
L 245.63351 223.367066 
L 245.980253 220.853749 
L 248.099241 203.47551 
L 249.216525 196.798942 
L 252.260161 179.791075 
L 252.683959 175.347181 
L 252.992175 169.937129 
L 253.18481 163.330142 
L 253.300391 152.988841 
L 253.377445 101.551235 
L 253.415972 107.327021 
L 253.608608 202.399762 
L 253.83977 220.315223 
L 254.070932 223.739468 
L 254.186513 223.919653 
L 254.302094 223.620166 
L 254.571784 221.934716 
L 255.419379 214.361861 
L 256.498136 205.705719 
L 257.576893 198.821859 
L 258.925339 191.731865 
L 260.466421 183.539306 
L 261.082854 178.907544 
L 261.506651 173.92237 
L 261.776341 168.329958 
L 261.968976 159.381722 
L 262.04603 147.995259 
L 262.123084 92.408462 
L 262.161611 135.250376 
L 262.354246 205.830675 
L 262.585409 220.957251 
L 262.816571 223.824995 
L 262.893625 223.929076 
L 262.932152 223.892256 
L 263.08626 223.333 
L 263.433003 220.79765 
L 265.513464 203.688746 
L 266.630748 196.972749 
L 268.402992 187.952468 
L 269.327641 182.639394 
L 269.86702 178.326979 
L 270.25229 173.567363 
L 270.521979 167.654009 
L 270.676087 160.608228 
L 270.753142 151.784223 
L 270.830196 94.251484 
L 270.868723 115.761808 
L 271.061358 203.466812 
L 271.29252 220.512224 
L 271.523682 223.767445 
L 271.600736 223.928351 
L 271.639264 223.91371 
L 271.754845 223.593204 
L 272.024534 221.883835 
L 272.949183 213.62155 
L 274.02794 205.115732 
L 275.106697 198.345085 
L 276.532198 190.93502 
L 277.919171 183.497992 
L 278.535604 178.846951 
L 278.959402 173.820898 
L 279.229091 168.13919 
L 279.421726 158.824351 
L 279.49878 145.936102 
L 279.575834 97.084872 
L 279.614361 141.327099 
L 279.806997 206.706668 
L 280.038159 221.124825 
L 280.269321 223.843984 
L 280.346375 223.925887 
L 280.384902 223.880514 
L 280.53901 223.29763 
L 280.885754 220.740826 
L 282.927687 203.903142 
L 284.044971 197.147281 
L 285.740161 188.510274 
L 286.741864 182.852775 
L 287.31977 178.262472 
L 287.70504 173.461252 
L 287.97473 167.446861 
L 288.128838 160.126526 
L 288.205892 150.39971 
L 288.282946 90.807959 
L 288.321473 124.324885 
L 288.514108 204.476314 
L 288.74527 220.700672 
L 288.976433 223.792813 
L 289.053487 223.929801 
L 289.092014 223.905882 
L 289.246122 223.381997 
L 289.592865 220.878538 
L 291.711853 203.494644 
L 292.829137 196.814598 
L 295.872773 179.815573 
L 296.335098 174.861855 
L 296.643314 169.035188 
L 296.835949 161.255185 
L 296.913003 153.473152 
L 297.028585 103.871319 
L 297.22122 201.910232 
L 297.452382 220.226363 
L 297.683544 223.727002 
L 297.799125 223.922408 
L 297.837652 223.868483 
L 297.991761 223.262405 
L 298.338504 220.684726 
L 300.34191 204.119422 
L 301.459194 197.322972 
L 303.07733 189.061847 
L 304.156087 183.063112 
L 304.733993 178.572686 
L 305.119264 173.967162 
L 305.388953 168.41331 
L 305.581588 159.617862 
L 305.658642 148.796598 
L 305.735696 91.190074 
L 305.774223 132.148522 
L 305.966858 205.425077 
L 306.198021 220.879552 
L 306.429183 223.815137 
L 306.506237 223.929221 
L 306.544764 223.896315 
L 306.698872 223.347786 
L 307.045616 220.822293 
L 309.126076 203.707881 
L 310.24336 196.988405 
L 312.015604 187.967254 
L 312.940253 182.658674 
L 313.479632 178.355101 
L 313.864902 173.61346 
L 314.134591 167.743305 
L 314.2887 160.810883 
L 314.365754 152.332897 
L 314.442808 97.028338 
L 314.481335 111.988644 
L 314.67397 203.005549 
L 314.905132 220.426697 
L 315.136295 223.755414 
L 315.251876 223.916464 
L 315.367457 223.605235 
L 315.637146 221.906159 
L 316.523268 213.986994 
L 317.602025 205.406522 
L 318.680783 198.580356 
L 320.067756 191.331341 
L 321.531784 183.516257 
L 322.148216 178.873623 
L 322.572014 173.86569 
L 322.841703 168.223557 
L 323.034338 159.073972 
L 323.111392 146.889504 
L 323.188446 94.728692 
L 323.226974 138.80465 
L 323.419609 206.327743 
L 323.650771 221.05249 
L 323.881933 223.836301 
L 323.958987 223.927771 
L 323.997514 223.886168 
L 324.151623 223.313576 
L 324.498366 220.766194 
L 326.540299 203.922856 
L 327.657583 197.163227 
L 329.352773 188.52506 
L 330.354476 182.872055 
L 330.932382 178.291029 
L 331.317652 173.508364 
L 331.587342 167.539056 
L 331.74145 160.342952 
L 331.818504 151.036955 
L 331.895558 91.831812 
L 331.934085 120.579989 
L 332.12672 204.03665 
L 332.357883 220.618044 
L 332.589045 223.781652 
L 332.666099 223.929221 
L 332.704626 223.909361 
L 332.820207 223.577403 
L 333.089896 221.854988 
L 334.053072 213.251902 
L 335.13183 204.821898 
L 336.210587 198.107061 
L 337.636087 190.725843 
L 338.984534 183.474799 
L 339.600967 178.81274 
L 340.024764 173.763348 
L 340.294453 168.030325 
L 340.487089 158.494422 
L 340.564143 144.590728 
L 340.641197 100.666254 
L 340.833832 201.404756 
L 341.064994 220.134458 
L 341.296157 223.713085 
L 341.411738 223.924002 
L 341.450265 223.873846 
L 341.604373 223.277916 
L 341.951116 220.709369 
L 343.993049 203.878644 
L 345.110334 197.127276 
L 346.805524 188.491719 
L 347.807227 182.828567 
L 348.385132 178.226522 
L 348.770403 173.401673 
L 349.040092 167.329154 
L 349.1942 159.845594 
L 349.271254 149.534154 
L 349.348308 90.590229 
L 349.386835 128.831257 
L 349.579471 205.01426 
L 349.810633 220.802144 
L 350.041795 223.80586 
L 350.118849 223.929946 
L 350.157376 223.900954 
L 350.311484 223.363297 
L 350.658228 220.847371 
L 352.738688 203.72745 
L 353.855972 197.00435 
L 355.589689 188.180055 
L 356.552865 182.678244 
L 357.130771 178.001544 
L 357.516041 173.025357 
L 357.785731 166.567244 
L 357.939839 157.871384 
L 358.016893 141.74067 
L 358.05542 100.523613 
L 358.093947 108.283032 
L 358.286582 202.528776 
L 358.517745 220.339141 
L 358.748907 223.743237 
L 358.864488 223.919219 
L 358.980069 223.617267 
L 359.249758 221.928918 
L 360.13588 214.012652 
L 361.214638 205.427106 
L 362.293395 198.596881 
L 363.680368 191.345692 
L 365.144396 183.534522 
L 365.760829 178.900586 
L 366.184626 173.910773 
L 366.454315 168.308069 
L 366.646951 159.319099 
L 366.724005 147.775934 
L 366.801059 92.821598 
L 366.839586 136.018519 
L 367.032221 205.933741 
L 367.263383 220.976386 
L 367.494545 223.826734 
L 367.5716 223.928206 
L 367.610127 223.890372 
L 367.764235 223.328507 
L 368.110978 220.790692 
L 370.191438 203.683382 
L 371.308723 196.968545 
L 373.080967 187.948409 
L 373.581818 185.247225 
L 373.581818 185.247225 
" style="fill:none;stroke:#000000;stroke-linecap:square;stroke-width:1.5;"/>
   </g>
   <g id="line2d_19">
    <path clip-path="url(#pec1bdeca78)" d="M 69.218182 179.543049 
L 69.641979 174.905053 
L 69.950196 169.062586 
L 70.142831 161.267072 
L 70.219885 153.467354 
L 70.335466 103.94206 
L 70.528101 201.996048 
L 70.759264 220.279128 
L 70.990426 223.767011 
L 71.106007 223.958503 
L 71.144534 223.903563 
L 71.298642 223.293281 
L 71.645386 220.706615 
L 73.648792 204.070571 
L 74.766076 197.229038 
L 76.461266 188.482587 
L 77.462969 182.736952 
L 78.040875 178.036334 
L 78.426145 173.042317 
L 78.695834 166.56304 
L 78.849942 157.822532 
L 78.926997 141.441617 
L 78.965524 99.641821 
L 79.004051 109.006237 
L 79.196686 202.672286 
L 79.427848 220.389008 
L 79.65901 223.769475 
L 79.774591 223.939658 
L 79.890173 223.633212 
L 80.159862 221.937325 
L 81.045984 214.002795 
L 82.124741 205.397534 
L 83.203498 198.548609 
L 84.590472 191.267993 
L 86.015972 183.629036 
L 86.632405 179.014235 
L 87.056203 174.080521 
L 87.325892 168.607701 
L 87.518527 160.133919 
L 87.595581 150.409278 
L 87.672635 90.773748 
L 87.711162 124.283282 
L 87.903797 204.490665 
L 88.13496 220.713283 
L 88.366122 223.802816 
L 88.443176 223.939078 
L 88.481703 223.91487 
L 88.635811 223.38968 
L 88.982555 220.883321 
L 91.101542 203.481598 
L 92.218826 196.792709 
L 95.262463 179.722509 
L 95.68626 175.232228 
L 95.994476 169.720414 
L 96.187112 162.851629 
L 96.302693 151.278748 
L 96.379747 92.433396 
L 96.418274 119.072695 
L 96.610909 203.868496 
L 96.842071 220.591227 
L 97.073234 223.781941 
L 97.150288 223.93328 
L 97.188815 223.914725 
L 97.304396 223.5861 
L 97.574085 221.866585 
L 98.498734 213.598501 
L 99.577491 205.093263 
L 100.656249 198.322472 
L 102.081749 190.908348 
L 103.430196 183.697892 
L 104.046628 179.133972 
L 104.470426 174.293612 
L 104.778642 167.911893 
L 104.971277 158.12144 
L 105.048331 142.933111 
L 105.086858 104.064116 
L 105.125386 105.150881 
L 105.318021 202.100129 
L 105.549183 220.262313 
L 105.780345 223.733235 
L 105.895926 223.922698 
L 105.934453 223.867468 
L 106.088562 223.257186 
L 106.435305 220.675594 
L 108.438711 204.10942 
L 109.555995 197.312825 
L 111.174131 189.049091 
L 112.252888 183.043688 
L 112.830794 178.54239 
L 113.216064 173.916861 
L 113.485754 168.318361 
L 113.678389 159.346932 
L 113.755443 147.872478 
L 113.832497 92.633875 
L 113.871024 135.685111 
L 114.063659 205.890398 
L 114.294822 220.969283 
L 114.525984 223.826879 
L 114.603038 223.929366 
L 114.641565 223.891966 
L 114.795673 223.331116 
L 115.142417 220.794171 
L 117.222877 203.684687 
L 118.340161 196.96869 
L 120.112405 187.94696 
L 121.037054 182.630987 
L 121.576433 178.313933 
L 121.961703 173.545474 
L 122.231392 167.610956 
L 122.385501 160.508931 
L 122.462555 151.50822 
L 122.539609 93.186028 
L 122.578136 117.591638 
L 122.770771 203.684687 
L 123.001933 220.552378 
L 123.233096 223.772664 
L 123.31015 223.928496 
L 123.348677 223.911826 
L 123.464258 223.587115 
L 123.733947 221.872673 
L 124.658596 213.608939 
L 125.737353 205.105295 
L 126.81611 198.336388 
L 128.241611 190.926902 
L 129.628585 183.48683 
L 130.245017 178.83028 
L 130.668815 173.792485 
L 130.938504 168.08541 
L 131.131139 158.662285 
L 131.208193 145.288131 
L 131.285247 98.786992 
L 131.477883 201.075407 
L 131.709045 220.075169 
L 131.940207 223.704243 
L 132.055788 223.925162 
L 132.094315 223.87747 
L 132.248423 223.287918 
L 132.595167 220.725315 
L 134.6371 203.89082 
L 135.754384 197.137134 
L 137.411047 188.696113 
L 138.451277 182.839729 
L 139.029183 178.243047 
L 139.414453 173.428926 
L 139.684143 167.383079 
L 139.838251 159.975043 
L 139.915305 149.938738 
L 139.992359 90.547466 
L 140.030886 126.80921 
L 140.223521 204.770727 
L 140.454684 220.756046 
L 140.685846 223.799916 
L 140.7629 223.929946 
L 140.801427 223.903273 
L 140.955535 223.37185 
L 141.302278 220.861577 
L 143.421266 203.481453 
L 144.53855 196.803726 
L 147.582186 179.798033 
L 148.005984 175.358053 
L 148.3142 169.956844 
L 148.506835 163.372326 
L 148.622417 153.129162 
L 148.699471 102.683372 
L 148.737998 106.320998 
L 148.930633 202.26234 
L 149.161795 220.29058 
L 149.392957 223.736279 
L 149.508539 223.920813 
L 149.62412 223.623935 
L 149.893809 221.941384 
L 150.741404 214.369399 
L 151.820161 205.711663 
L 152.898918 198.826643 
L 154.247365 191.735924 
L 155.788446 183.544524 
L 156.404879 178.915082 
L 156.828677 173.934981 
L 157.098366 168.353296 
L 157.291001 159.448114 
L 157.368055 148.224441 
L 157.445109 92.011417 
L 157.483636 134.413087 
L 157.676272 205.718621 
L 157.907434 220.935652 
L 158.138596 223.82224 
L 158.21565 223.928931 
L 158.254177 223.893271 
L 158.408285 223.337059 
L 158.755029 220.804463 
L 160.835489 203.693964 
L 161.952773 196.977098 
L 163.725017 187.956527 
L 164.649666 182.644613 
L 165.189045 178.334517 
L 165.574315 173.579829 
L 165.844005 167.678218 
L 165.998113 160.663458 
L 166.075167 151.935852 
L 166.152221 94.930187 
L 166.190748 114.735926 
L 166.383383 203.342871 
L 166.614545 220.488885 
L 166.845708 223.763966 
L 166.922762 223.927771 
L 166.961289 223.914145 
L 167.07687 223.596248 
L 167.346559 221.889634 
L 168.232681 213.968294 
L 169.311438 205.391591 
L 170.390196 198.568324 
L 171.777169 191.320904 
L 173.241197 183.502776 
L 173.857629 178.854054 
L 174.281427 173.832784 
L 174.551116 168.161659 
L 174.743751 158.891177 
L 174.820806 146.19645 
L 174.89786 96.418201 
L 174.936387 140.680142 
L 175.129022 206.607805 
L 175.360184 221.10627 
L 175.591346 223.84239 
L 175.6684 223.926901 
L 175.706928 223.882544 
L 175.861036 223.302269 
L 176.207779 220.747929 
L 178.249712 203.908505 
L 179.366997 197.15163 
L 181.023659 188.709739 
L 182.025362 183.110949 
L 182.603268 178.642412 
L 183.027066 173.474008 
L 183.296755 167.47194 
L 183.450863 160.185815 
L 183.527917 150.576852 
L 183.604971 91.008874 
L 183.643498 123.320168 
L 183.836133 204.358171 
L 184.067296 220.678493 
L 184.298458 223.789769 
L 184.375512 223.929656 
L 184.414039 223.906897 
L 184.568147 223.386056 
L 184.876364 221.211366 
L 187.226513 202.244509 
L 188.382325 195.584177 
L 191.04069 181.06049 
L 191.541542 176.361901 
L 191.888285 170.898359 
L 192.119448 163.517286 
L 192.235029 153.600717 
L 192.35061 102.974887 
L 192.543245 201.773824 
L 192.774407 220.200995 
L 193.00557 223.722653 
L 193.121151 223.922263 
L 193.159678 223.869497 
L 193.313786 223.266174 
L 193.660529 220.690959 
L 195.663936 204.124496 
L 196.78122 197.327031 
L 198.399356 189.065616 
L 199.478113 183.068041 
L 200.056018 178.579934 
L 200.441289 173.978759 
L 200.710978 168.434909 
L 200.903613 159.67831 
L 200.980667 148.995483 
L 201.057722 90.970169 
L 201.096249 131.298766 
L 201.288884 205.318531 
L 201.520046 220.859693 
L 201.751208 223.813108 
L 201.828262 223.929656 
L 201.866789 223.897909 
L 202.020898 223.352135 
L 202.367641 220.829106 
L 204.448101 203.713099 
L 205.565386 196.992754 
L 207.337629 187.971313 
L 208.262278 182.663892 
L 208.801657 178.362639 
L 209.186928 173.625926 
L 209.456617 167.767223 
L 209.610725 160.864663 
L 209.687779 152.475393 
L 209.764833 97.898532 
L 209.80336 110.984941 
L 209.995995 202.879434 
L 210.227158 220.403649 
L 210.45832 223.75237 
L 210.573901 223.917479 
L 210.689482 223.608569 
L 210.959171 221.912392 
L 211.845293 213.993952 
L 212.924051 205.412175 
L 214.002808 198.584849 
L 215.389781 191.335255 
L 216.853809 183.521186 
L 217.470242 178.880871 
L 217.894039 173.877867 
L 218.163728 168.246461 
L 218.356364 159.140943 
L 218.433418 147.136081 
L 218.510472 94.165233 
L 218.548999 138.077386 
L 218.741634 206.221922 
L 218.972796 221.03176 
L 219.203959 223.833402 
L 219.281013 223.927626 
L 219.31954 223.887037 
L 219.473648 223.317345 
L 219.820391 220.772572 
L 221.862325 203.92793 
L 222.979609 197.16743 
L 224.636272 188.72438 
L 225.676502 182.876984 
L 226.254407 178.298567 
L 226.639678 173.520685 
L 226.909367 167.563119 
L 227.063475 160.398761 
L 227.140529 151.196845 
L 227.217583 92.229437 
L 227.25611 119.584693 
L 227.448746 203.919812 
L 227.679908 220.5963 
L 227.91107 223.778752 
L 227.988124 223.929076 
L 228.026651 223.910231 
L 228.142232 223.580737 
L 228.411922 221.860932 
L 229.336571 213.596037 
L 230.415328 205.095293 
L 231.494085 198.328705 
L 232.881059 191.111581 
L 234.268032 183.7221 
L 234.884465 179.173256 
L 235.308262 174.361598 
L 235.616479 168.053084 
L 235.809114 158.564148 
L 235.886168 144.883548 
L 235.963222 99.872308 
L 236.155857 201.269943 
L 236.38702 220.11054 
L 236.618182 223.709751 
L 236.733763 223.924872 
L 236.77229 223.875731 
L 236.926398 223.282409 
L 237.273142 220.716327 
L 239.315075 203.883862 
L 240.432359 197.131625 
L 242.127549 188.495633 
L 243.129252 182.833786 
L 243.707158 178.234205 
L 244.092428 173.41443 
L 244.362117 167.354522 
L 244.516226 159.906477 
L 244.59328 149.725791 
L 244.670334 90.541957 
L 244.708861 127.892351 
L 244.901496 204.900177 
L 245.132658 220.7804 
L 245.36382 223.802816 
L 245.440875 223.929656 
L 245.479402 223.901823 
L 245.63351 223.367066 
L 245.980253 220.853749 
L 248.099241 203.47551 
L 249.216525 196.798942 
L 252.260161 179.791075 
L 252.683959 175.347181 
L 252.992175 169.937129 
L 253.18481 163.330142 
L 253.300391 152.988841 
L 253.377445 101.551235 
L 253.415972 107.327021 
L 253.608608 202.399762 
L 253.83977 220.315223 
L 254.070932 223.739468 
L 254.186513 223.919653 
L 254.302094 223.620166 
L 254.571784 221.934716 
L 255.419379 214.361861 
L 256.498136 205.705719 
L 257.576893 198.821859 
L 258.925339 191.731865 
L 260.466421 183.539306 
L 261.082854 178.907544 
L 261.506651 173.92237 
L 261.776341 168.329958 
L 261.968976 159.381722 
L 262.04603 147.995259 
L 262.123084 92.408462 
L 262.161611 135.250376 
L 262.354246 205.830675 
L 262.585409 220.957251 
L 262.816571 223.824995 
L 262.893625 223.929076 
L 262.932152 223.892256 
L 263.08626 223.333 
L 263.433003 220.79765 
L 265.513464 203.688746 
L 266.630748 196.972749 
L 268.402992 187.952468 
L 269.327641 182.639394 
L 269.86702 178.326979 
L 270.25229 173.567363 
L 270.521979 167.654009 
L 270.676087 160.608228 
L 270.753142 151.784223 
L 270.830196 94.251484 
L 270.868723 115.761808 
L 271.061358 203.466812 
L 271.29252 220.512224 
L 271.523682 223.767445 
L 271.600736 223.928351 
L 271.639264 223.91371 
L 271.754845 223.593204 
L 272.024534 221.883835 
L 272.949183 213.62155 
L 274.02794 205.115732 
L 275.106697 198.345085 
L 276.532198 190.93502 
L 277.919171 183.497992 
L 278.535604 178.846951 
L 278.959402 173.820898 
L 279.229091 168.13919 
L 279.421726 158.824351 
L 279.49878 145.936102 
L 279.575834 97.084872 
L 279.614361 141.327099 
L 279.806997 206.706668 
L 280.038159 221.124825 
L 280.269321 223.843984 
L 280.346375 223.925887 
L 280.384902 223.880514 
L 280.53901 223.29763 
L 280.885754 220.740826 
L 282.927687 203.903142 
L 284.044971 197.147281 
L 285.740161 188.510274 
L 286.741864 182.852775 
L 287.31977 178.262472 
L 287.70504 173.461252 
L 287.97473 167.446861 
L 288.128838 160.126526 
L 288.205892 150.39971 
L 288.282946 90.807959 
L 288.321473 124.324885 
L 288.514108 204.476314 
L 288.74527 220.700672 
L 288.976433 223.792813 
L 289.053487 223.929801 
L 289.092014 223.905882 
L 289.246122 223.381997 
L 289.592865 220.878538 
L 291.711853 203.494644 
L 292.829137 196.814598 
L 295.872773 179.815573 
L 296.335098 174.861855 
L 296.643314 169.035188 
L 296.835949 161.255185 
L 296.913003 153.473152 
L 297.028585 103.871319 
L 297.22122 201.910232 
L 297.452382 220.226363 
L 297.683544 223.727002 
L 297.799125 223.922408 
L 297.837652 223.868483 
L 297.991761 223.262405 
L 298.338504 220.684726 
L 300.34191 204.119422 
L 301.459194 197.322972 
L 303.07733 189.061847 
L 304.156087 183.063112 
L 304.733993 178.572686 
L 305.119264 173.967162 
L 305.388953 168.41331 
L 305.581588 159.617862 
L 305.658642 148.796598 
L 305.735696 91.190074 
L 305.774223 132.148522 
L 305.966858 205.425077 
L 306.198021 220.879552 
L 306.429183 223.815137 
L 306.506237 223.929221 
L 306.544764 223.896315 
L 306.698872 223.347786 
L 307.045616 220.822293 
L 309.126076 203.707881 
L 310.24336 196.988405 
L 312.015604 187.967254 
L 312.940253 182.658674 
L 313.479632 178.355101 
L 313.864902 173.61346 
L 314.134591 167.743305 
L 314.2887 160.810883 
L 314.365754 152.332897 
L 314.442808 97.028338 
L 314.481335 111.988644 
L 314.67397 203.005549 
L 314.905132 220.426697 
L 315.136295 223.755414 
L 315.251876 223.916464 
L 315.367457 223.605235 
L 315.637146 221.906159 
L 316.523268 213.986994 
L 317.602025 205.406522 
L 318.680783 198.580356 
L 320.067756 191.331341 
L 321.531784 183.516257 
L 322.148216 178.873623 
L 322.572014 173.86569 
L 322.841703 168.223557 
L 323.034338 159.073972 
L 323.111392 146.889504 
L 323.188446 94.728692 
L 323.226974 138.80465 
L 323.419609 206.327743 
L 323.650771 221.05249 
L 323.881933 223.836301 
L 323.958987 223.927771 
L 323.997514 223.886168 
L 324.151623 223.313576 
L 324.498366 220.766194 
L 326.540299 203.922856 
L 327.657583 197.163227 
L 329.352773 188.52506 
L 330.354476 182.872055 
L 330.932382 178.291029 
L 331.317652 173.508364 
L 331.587342 167.539056 
L 331.74145 160.342952 
L 331.818504 151.036955 
L 331.895558 91.831812 
L 331.934085 120.579989 
L 332.12672 204.03665 
L 332.357883 220.618044 
L 332.589045 223.781652 
L 332.666099 223.929221 
L 332.704626 223.909361 
L 332.820207 223.577403 
L 333.089896 221.854988 
L 334.053072 213.251902 
L 335.13183 204.821898 
L 336.210587 198.107061 
L 337.636087 190.725843 
L 338.984534 183.474799 
L 339.600967 178.81274 
L 340.024764 173.763348 
L 340.294453 168.030325 
L 340.487089 158.494422 
L 340.564143 144.590728 
L 340.641197 100.666254 
L 340.833832 201.404756 
L 341.064994 220.134458 
L 341.296157 223.713085 
L 341.411738 223.924002 
L 341.450265 223.873846 
L 341.604373 223.277916 
L 341.951116 220.709369 
L 343.993049 203.878644 
L 345.110334 197.127276 
L 346.805524 188.491719 
L 347.807227 182.828567 
L 348.385132 178.226522 
L 348.770403 173.401673 
L 349.040092 167.329154 
L 349.1942 159.845594 
L 349.271254 149.534154 
L 349.348308 90.590229 
L 349.386835 128.831257 
L 349.579471 205.01426 
L 349.810633 220.802144 
L 350.041795 223.80586 
L 350.118849 223.929946 
L 350.157376 223.900954 
L 350.311484 223.363297 
L 350.658228 220.847371 
L 352.738688 203.72745 
L 353.855972 197.00435 
L 355.589689 188.180055 
L 356.552865 182.678244 
L 357.130771 178.001544 
L 357.516041 173.025357 
L 357.785731 166.567244 
L 357.939839 157.871384 
L 358.016893 141.74067 
L 358.05542 100.523613 
L 358.093947 108.283032 
L 358.286582 202.528776 
L 358.517745 220.339141 
L 358.748907 223.743237 
L 358.864488 223.919219 
L 358.980069 223.617267 
L 359.249758 221.928918 
L 360.13588 214.012652 
L 361.214638 205.427106 
L 362.293395 198.596881 
L 363.680368 191.345692 
L 365.144396 183.534522 
L 365.760829 178.900586 
L 366.184626 173.910773 
L 366.454315 168.308069 
L 366.646951 159.319099 
L 366.724005 147.775934 
L 366.801059 92.821598 
L 366.839586 136.018519 
L 367.032221 205.933741 
L 367.263383 220.976386 
L 367.494545 223.826734 
L 367.5716 223.928206 
L 367.610127 223.890372 
L 367.764235 223.328507 
L 368.110978 220.790692 
L 370.191438 203.683382 
L 371.308723 196.968545 
L 373.080967 187.948409 
L 373.581818 185.247225 
L 373.581818 185.247225 
" style="fill:none;stroke:#ff0000;stroke-linecap:square;stroke-width:1.5;"/>
   </g>
   <g id="line2d_20">
    <path clip-path="url(#pec1bdeca78)" d="M 258.00069 201.264 
L 296.450679 201.264 
L 296.450679 201.264 
" style="fill:none;stroke:#000000;stroke-linecap:square;stroke-width:1.5;"/>
   </g>
   <g id="line2d_21">
    <path clip-path="url(#pec1bdeca78)" d="M 258.00069 179.52 
L 258.00069 178.0704 
L 258.00069 176.6208 
L 258.00069 175.1712 
L 258.00069 173.7216 
L 258.00069 172.272 
L 258.00069 170.8224 
L 258.00069 169.3728 
L 258.00069 167.9232 
L 258.00069 166.4736 
L 258.00069 165.024 
L 258.00069 163.5744 
L 258.00069 162.1248 
L 258.00069 160.6752 
L 258.00069 159.2256 
L 258.00069 157.776 
L 258.00069 156.3264 
L 258.00069 154.8768 
L 258.00069 153.4272 
L 258.00069 151.9776 
" style="fill:none;stroke:#000000;stroke-linecap:square;stroke-width:1.5;"/>
   </g>
   <g id="patch_3">
    <path d="M 54 252 
L 54 34.56 
" style="fill:none;stroke:#000000;stroke-linecap:square;stroke-linejoin:miter;stroke-width:0.8;"/>
   </g>
   <g id="patch_4">
    <path d="M 54 252 
L 388.8 252 
" style="fill:none;stroke:#000000;stroke-linecap:square;stroke-linejoin:miter;stroke-width:0.8;"/>
   </g>
   <g id="text_20">
    <!-- 500 ms -->
    <g transform="translate(258.00069 199.8144)scale(0.12 -0.12)">
     <use xlink:href="#DejaVuSans-35"/>
     <use x="63.623047" xlink:href="#DejaVuSans-30"/>
     <use x="127.246094" xlink:href="#DejaVuSans-30"/>
     <use x="190.869141" xlink:href="#DejaVuSans-20"/>
     <use x="222.65625" xlink:href="#DejaVuSans-6d"/>
     <use x="320.068359" xlink:href="#DejaVuSans-73"/>
    </g>
   </g>
   <g id="text_21">
    <!-- 20 mV -->
    <g transform="translate(261.853395 150.528)scale(0.12 -0.12)">
     <use xlink:href="#DejaVuSans-32"/>
     <use x="63.623047" xlink:href="#DejaVuSans-30"/>
     <use x="127.246094" xlink:href="#DejaVuSans-20"/>
     <use x="159.033203" xlink:href="#DejaVuSans-6d"/>
     <use x="256.445312" xlink:href="#DejaVuSans-56"/>
    </g>
   </g>
  </g>
 </g>
 <defs>
  <clipPath id="pec1bdeca78">
   <rect height="217.44" width="334.8" x="54" y="34.56"/>
  </clipPath>
 </defs>
</svg>
