<?xml version="1.0" encoding="utf-8" standalone="no"?>
<!DOCTYPE svg PUBLIC "-//W3C//DTD SVG 1.1//EN"
  "http://www.w3.org/Graphics/SVG/1.1/DTD/svg11.dtd">
<svg height="288pt" version="1.1" viewBox="0 0 432 288" width="432pt" xmlns="http://www.w3.org/2000/svg" xmlns:xlink="http://www.w3.org/1999/xlink">
 <metadata>
  <rdf:RDF xmlns:cc="http://creativecommons.org/ns#" xmlns:dc="http://purl.org/dc/elements/1.1/" xmlns:rdf="http://www.w3.org/1999/02/22-rdf-syntax-ns#">
   <cc:Work>
    <dc:type rdf:resource="http://purl.org/dc/dcmitype/StillImage"/>
    <dc:date>2021-07-05T14:41:37.960355</dc:date>
    <dc:format>image/svg+xml</dc:format>
    <dc:creator>
     <cc:Agent>
      <dc:title>Matplotlib v3.4.1, https://matplotlib.org/</dc:title>
     </cc:Agent>
    </dc:creator>
   </cc:Work>
  </rdf:RDF>
 </metadata>
 <defs>
  <style type="text/css">*{stroke-linecap:butt;stroke-linejoin:round;}</style>
 </defs>
 <g id="figure_1">
  <g id="patch_1">
   <path d="M 0 288 
L 432 288 
L 432 0 
L 0 0 
z
" style="fill:none;"/>
  </g>
  <g id="axes_1">
   <g id="patch_2">
    <path d="M 54 252 
L 388.8 252 
L 388.8 34.56 
L 54 34.56 
z
" style="fill:#ffffff;"/>
   </g>
   <g id="matplotlib.axis_1">
    <g id="xtick_1">
     <g id="line2d_1">
      <defs>
       <path d="M 0 0 
L 0 3.5 
" id="m79f8f5a3c8" style="stroke:#000000;stroke-width:0.8;"/>
      </defs>
      <g>
       <use style="stroke:#000000;stroke-width:0.8;" x="65.365478" xlink:href="#m79f8f5a3c8" y="252"/>
      </g>
     </g>
     <g id="text_1">
      <!-- 0 -->
      <g transform="translate(61.547978 268.118125)scale(0.12 -0.12)">
       <defs>
        <path d="M 2034 4250 
Q 1547 4250 1301 3770 
Q 1056 3291 1056 2328 
Q 1056 1369 1301 889 
Q 1547 409 2034 409 
Q 2525 409 2770 889 
Q 3016 1369 3016 2328 
Q 3016 3291 2770 3770 
Q 2525 4250 2034 4250 
z
M 2034 4750 
Q 2819 4750 3233 4129 
Q 3647 3509 3647 2328 
Q 3647 1150 3233 529 
Q 2819 -91 2034 -91 
Q 1250 -91 836 529 
Q 422 1150 422 2328 
Q 422 3509 836 4129 
Q 1250 4750 2034 4750 
z
" id="DejaVuSans-30" transform="scale(0.015625)"/>
       </defs>
       <use xlink:href="#DejaVuSans-30"/>
      </g>
     </g>
    </g>
    <g id="xtick_2">
     <g id="line2d_2">
      <g>
       <use style="stroke:#000000;stroke-width:0.8;" x="103.89252" xlink:href="#m79f8f5a3c8" y="252"/>
      </g>
     </g>
     <g id="text_2">
      <!-- 500 -->
      <g transform="translate(92.44002 268.118125)scale(0.12 -0.12)">
       <defs>
        <path d="M 691 4666 
L 3169 4666 
L 3169 4134 
L 1269 4134 
L 1269 2991 
Q 1406 3038 1543 3061 
Q 1681 3084 1819 3084 
Q 2600 3084 3056 2656 
Q 3513 2228 3513 1497 
Q 3513 744 3044 326 
Q 2575 -91 1722 -91 
Q 1428 -91 1123 -41 
Q 819 9 494 109 
L 494 744 
Q 775 591 1075 516 
Q 1375 441 1709 441 
Q 2250 441 2565 725 
Q 2881 1009 2881 1497 
Q 2881 1984 2565 2268 
Q 2250 2553 1709 2553 
Q 1456 2553 1204 2497 
Q 953 2441 691 2322 
L 691 4666 
z
" id="DejaVuSans-35" transform="scale(0.015625)"/>
       </defs>
       <use xlink:href="#DejaVuSans-35"/>
       <use x="63.623047" xlink:href="#DejaVuSans-30"/>
       <use x="127.246094" xlink:href="#DejaVuSans-30"/>
      </g>
     </g>
    </g>
    <g id="xtick_3">
     <g id="line2d_3">
      <g>
       <use style="stroke:#000000;stroke-width:0.8;" x="142.419563" xlink:href="#m79f8f5a3c8" y="252"/>
      </g>
     </g>
     <g id="text_3">
      <!-- 1000 -->
      <g transform="translate(127.149563 268.118125)scale(0.12 -0.12)">
       <defs>
        <path d="M 794 531 
L 1825 531 
L 1825 4091 
L 703 3866 
L 703 4441 
L 1819 4666 
L 2450 4666 
L 2450 531 
L 3481 531 
L 3481 0 
L 794 0 
L 794 531 
z
" id="DejaVuSans-31" transform="scale(0.015625)"/>
       </defs>
       <use xlink:href="#DejaVuSans-31"/>
       <use x="63.623047" xlink:href="#DejaVuSans-30"/>
       <use x="127.246094" xlink:href="#DejaVuSans-30"/>
       <use x="190.869141" xlink:href="#DejaVuSans-30"/>
      </g>
     </g>
    </g>
    <g id="xtick_4">
     <g id="line2d_4">
      <g>
       <use style="stroke:#000000;stroke-width:0.8;" x="180.946605" xlink:href="#m79f8f5a3c8" y="252"/>
      </g>
     </g>
     <g id="text_4">
      <!-- 1500 -->
      <g transform="translate(165.676605 268.118125)scale(0.12 -0.12)">
       <use xlink:href="#DejaVuSans-31"/>
       <use x="63.623047" xlink:href="#DejaVuSans-35"/>
       <use x="127.246094" xlink:href="#DejaVuSans-30"/>
       <use x="190.869141" xlink:href="#DejaVuSans-30"/>
      </g>
     </g>
    </g>
    <g id="xtick_5">
     <g id="line2d_5">
      <g>
       <use style="stroke:#000000;stroke-width:0.8;" x="219.473648" xlink:href="#m79f8f5a3c8" y="252"/>
      </g>
     </g>
     <g id="text_5">
      <!-- 2000 -->
      <g transform="translate(204.203648 268.118125)scale(0.12 -0.12)">
       <defs>
        <path d="M 1228 531 
L 3431 531 
L 3431 0 
L 469 0 
L 469 531 
Q 828 903 1448 1529 
Q 2069 2156 2228 2338 
Q 2531 2678 2651 2914 
Q 2772 3150 2772 3378 
Q 2772 3750 2511 3984 
Q 2250 4219 1831 4219 
Q 1534 4219 1204 4116 
Q 875 4013 500 3803 
L 500 4441 
Q 881 4594 1212 4672 
Q 1544 4750 1819 4750 
Q 2544 4750 2975 4387 
Q 3406 4025 3406 3419 
Q 3406 3131 3298 2873 
Q 3191 2616 2906 2266 
Q 2828 2175 2409 1742 
Q 1991 1309 1228 531 
z
" id="DejaVuSans-32" transform="scale(0.015625)"/>
       </defs>
       <use xlink:href="#DejaVuSans-32"/>
       <use x="63.623047" xlink:href="#DejaVuSans-30"/>
       <use x="127.246094" xlink:href="#DejaVuSans-30"/>
       <use x="190.869141" xlink:href="#DejaVuSans-30"/>
      </g>
     </g>
    </g>
    <g id="xtick_6">
     <g id="line2d_6">
      <g>
       <use style="stroke:#000000;stroke-width:0.8;" x="258.00069" xlink:href="#m79f8f5a3c8" y="252"/>
      </g>
     </g>
     <g id="text_6">
      <!-- 2500 -->
      <g transform="translate(242.73069 268.118125)scale(0.12 -0.12)">
       <use xlink:href="#DejaVuSans-32"/>
       <use x="63.623047" xlink:href="#DejaVuSans-35"/>
       <use x="127.246094" xlink:href="#DejaVuSans-30"/>
       <use x="190.869141" xlink:href="#DejaVuSans-30"/>
      </g>
     </g>
    </g>
    <g id="xtick_7">
     <g id="line2d_7">
      <g>
       <use style="stroke:#000000;stroke-width:0.8;" x="296.527733" xlink:href="#m79f8f5a3c8" y="252"/>
      </g>
     </g>
     <g id="text_7">
      <!-- 3000 -->
      <g transform="translate(281.257733 268.118125)scale(0.12 -0.12)">
       <defs>
        <path d="M 2597 2516 
Q 3050 2419 3304 2112 
Q 3559 1806 3559 1356 
Q 3559 666 3084 287 
Q 2609 -91 1734 -91 
Q 1441 -91 1130 -33 
Q 819 25 488 141 
L 488 750 
Q 750 597 1062 519 
Q 1375 441 1716 441 
Q 2309 441 2620 675 
Q 2931 909 2931 1356 
Q 2931 1769 2642 2001 
Q 2353 2234 1838 2234 
L 1294 2234 
L 1294 2753 
L 1863 2753 
Q 2328 2753 2575 2939 
Q 2822 3125 2822 3475 
Q 2822 3834 2567 4026 
Q 2313 4219 1838 4219 
Q 1578 4219 1281 4162 
Q 984 4106 628 3988 
L 628 4550 
Q 988 4650 1302 4700 
Q 1616 4750 1894 4750 
Q 2613 4750 3031 4423 
Q 3450 4097 3450 3541 
Q 3450 3153 3228 2886 
Q 3006 2619 2597 2516 
z
" id="DejaVuSans-33" transform="scale(0.015625)"/>
       </defs>
       <use xlink:href="#DejaVuSans-33"/>
       <use x="63.623047" xlink:href="#DejaVuSans-30"/>
       <use x="127.246094" xlink:href="#DejaVuSans-30"/>
       <use x="190.869141" xlink:href="#DejaVuSans-30"/>
      </g>
     </g>
    </g>
    <g id="xtick_8">
     <g id="line2d_8">
      <g>
       <use style="stroke:#000000;stroke-width:0.8;" x="335.054776" xlink:href="#m79f8f5a3c8" y="252"/>
      </g>
     </g>
     <g id="text_8">
      <!-- 3500 -->
      <g transform="translate(319.784776 268.118125)scale(0.12 -0.12)">
       <use xlink:href="#DejaVuSans-33"/>
       <use x="63.623047" xlink:href="#DejaVuSans-35"/>
       <use x="127.246094" xlink:href="#DejaVuSans-30"/>
       <use x="190.869141" xlink:href="#DejaVuSans-30"/>
      </g>
     </g>
    </g>
    <g id="xtick_9">
     <g id="line2d_9">
      <g>
       <use style="stroke:#000000;stroke-width:0.8;" x="373.581818" xlink:href="#m79f8f5a3c8" y="252"/>
      </g>
     </g>
     <g id="text_9">
      <!-- 4000 -->
      <g transform="translate(358.311818 268.118125)scale(0.12 -0.12)">
       <defs>
        <path d="M 2419 4116 
L 825 1625 
L 2419 1625 
L 2419 4116 
z
M 2253 4666 
L 3047 4666 
L 3047 1625 
L 3713 1625 
L 3713 1100 
L 3047 1100 
L 3047 0 
L 2419 0 
L 2419 1100 
L 313 1100 
L 313 1709 
L 2253 4666 
z
" id="DejaVuSans-34" transform="scale(0.015625)"/>
       </defs>
       <use xlink:href="#DejaVuSans-34"/>
       <use x="63.623047" xlink:href="#DejaVuSans-30"/>
       <use x="127.246094" xlink:href="#DejaVuSans-30"/>
       <use x="190.869141" xlink:href="#DejaVuSans-30"/>
      </g>
     </g>
    </g>
    <g id="text_10">
     <!-- Time(ms) -->
     <g transform="translate(193.067813 283.731875)scale(0.12 -0.12)">
      <defs>
       <path d="M -19 4666 
L 3928 4666 
L 3928 4134 
L 2272 4134 
L 2272 0 
L 1638 0 
L 1638 4134 
L -19 4134 
L -19 4666 
z
" id="DejaVuSans-54" transform="scale(0.015625)"/>
       <path d="M 603 3500 
L 1178 3500 
L 1178 0 
L 603 0 
L 603 3500 
z
M 603 4863 
L 1178 4863 
L 1178 4134 
L 603 4134 
L 603 4863 
z
" id="DejaVuSans-69" transform="scale(0.015625)"/>
       <path d="M 3328 2828 
Q 3544 3216 3844 3400 
Q 4144 3584 4550 3584 
Q 5097 3584 5394 3201 
Q 5691 2819 5691 2113 
L 5691 0 
L 5113 0 
L 5113 2094 
Q 5113 2597 4934 2840 
Q 4756 3084 4391 3084 
Q 3944 3084 3684 2787 
Q 3425 2491 3425 1978 
L 3425 0 
L 2847 0 
L 2847 2094 
Q 2847 2600 2669 2842 
Q 2491 3084 2119 3084 
Q 1678 3084 1418 2786 
Q 1159 2488 1159 1978 
L 1159 0 
L 581 0 
L 581 3500 
L 1159 3500 
L 1159 2956 
Q 1356 3278 1631 3431 
Q 1906 3584 2284 3584 
Q 2666 3584 2933 3390 
Q 3200 3197 3328 2828 
z
" id="DejaVuSans-6d" transform="scale(0.015625)"/>
       <path d="M 3597 1894 
L 3597 1613 
L 953 1613 
Q 991 1019 1311 708 
Q 1631 397 2203 397 
Q 2534 397 2845 478 
Q 3156 559 3463 722 
L 3463 178 
Q 3153 47 2828 -22 
Q 2503 -91 2169 -91 
Q 1331 -91 842 396 
Q 353 884 353 1716 
Q 353 2575 817 3079 
Q 1281 3584 2069 3584 
Q 2775 3584 3186 3129 
Q 3597 2675 3597 1894 
z
M 3022 2063 
Q 3016 2534 2758 2815 
Q 2500 3097 2075 3097 
Q 1594 3097 1305 2825 
Q 1016 2553 972 2059 
L 3022 2063 
z
" id="DejaVuSans-65" transform="scale(0.015625)"/>
       <path d="M 1984 4856 
Q 1566 4138 1362 3434 
Q 1159 2731 1159 2009 
Q 1159 1288 1364 580 
Q 1569 -128 1984 -844 
L 1484 -844 
Q 1016 -109 783 600 
Q 550 1309 550 2009 
Q 550 2706 781 3412 
Q 1013 4119 1484 4856 
L 1984 4856 
z
" id="DejaVuSans-28" transform="scale(0.015625)"/>
       <path d="M 2834 3397 
L 2834 2853 
Q 2591 2978 2328 3040 
Q 2066 3103 1784 3103 
Q 1356 3103 1142 2972 
Q 928 2841 928 2578 
Q 928 2378 1081 2264 
Q 1234 2150 1697 2047 
L 1894 2003 
Q 2506 1872 2764 1633 
Q 3022 1394 3022 966 
Q 3022 478 2636 193 
Q 2250 -91 1575 -91 
Q 1294 -91 989 -36 
Q 684 19 347 128 
L 347 722 
Q 666 556 975 473 
Q 1284 391 1588 391 
Q 1994 391 2212 530 
Q 2431 669 2431 922 
Q 2431 1156 2273 1281 
Q 2116 1406 1581 1522 
L 1381 1569 
Q 847 1681 609 1914 
Q 372 2147 372 2553 
Q 372 3047 722 3315 
Q 1072 3584 1716 3584 
Q 2034 3584 2315 3537 
Q 2597 3491 2834 3397 
z
" id="DejaVuSans-73" transform="scale(0.015625)"/>
       <path d="M 513 4856 
L 1013 4856 
Q 1481 4119 1714 3412 
Q 1947 2706 1947 2009 
Q 1947 1309 1714 600 
Q 1481 -109 1013 -844 
L 513 -844 
Q 928 -128 1133 580 
Q 1338 1288 1338 2009 
Q 1338 2731 1133 3434 
Q 928 4138 513 4856 
z
" id="DejaVuSans-29" transform="scale(0.015625)"/>
      </defs>
      <use xlink:href="#DejaVuSans-54"/>
      <use x="57.958984" xlink:href="#DejaVuSans-69"/>
      <use x="85.742188" xlink:href="#DejaVuSans-6d"/>
      <use x="183.154297" xlink:href="#DejaVuSans-65"/>
      <use x="244.677734" xlink:href="#DejaVuSans-28"/>
      <use x="283.691406" xlink:href="#DejaVuSans-6d"/>
      <use x="381.103516" xlink:href="#DejaVuSans-73"/>
      <use x="433.203125" xlink:href="#DejaVuSans-29"/>
     </g>
    </g>
   </g>
   <g id="matplotlib.axis_2">
    <g id="ytick_1">
     <g id="line2d_10">
      <defs>
       <path d="M 0 0 
L -3.5 0 
" id="m8c221a45de" style="stroke:#000000;stroke-width:0.8;"/>
      </defs>
      <g>
       <use style="stroke:#000000;stroke-width:0.8;" x="54" xlink:href="#m8c221a45de" y="237.504"/>
      </g>
     </g>
     <g id="text_11">
      <!-- -100 -->
      <g transform="translate(19.765625 242.063063)scale(0.12 -0.12)">
       <defs>
        <path d="M 313 2009 
L 1997 2009 
L 1997 1497 
L 313 1497 
L 313 2009 
z
" id="DejaVuSans-2d" transform="scale(0.015625)"/>
       </defs>
       <use xlink:href="#DejaVuSans-2d"/>
       <use x="36.083984" xlink:href="#DejaVuSans-31"/>
       <use x="99.707031" xlink:href="#DejaVuSans-30"/>
       <use x="163.330078" xlink:href="#DejaVuSans-30"/>
      </g>
     </g>
    </g>
    <g id="ytick_2">
     <g id="line2d_11">
      <g>
       <use style="stroke:#000000;stroke-width:0.8;" x="54" xlink:href="#m8c221a45de" y="208.512"/>
      </g>
     </g>
     <g id="text_12">
      <!-- -80 -->
      <g transform="translate(27.400625 213.071062)scale(0.12 -0.12)">
       <defs>
        <path d="M 2034 2216 
Q 1584 2216 1326 1975 
Q 1069 1734 1069 1313 
Q 1069 891 1326 650 
Q 1584 409 2034 409 
Q 2484 409 2743 651 
Q 3003 894 3003 1313 
Q 3003 1734 2745 1975 
Q 2488 2216 2034 2216 
z
M 1403 2484 
Q 997 2584 770 2862 
Q 544 3141 544 3541 
Q 544 4100 942 4425 
Q 1341 4750 2034 4750 
Q 2731 4750 3128 4425 
Q 3525 4100 3525 3541 
Q 3525 3141 3298 2862 
Q 3072 2584 2669 2484 
Q 3125 2378 3379 2068 
Q 3634 1759 3634 1313 
Q 3634 634 3220 271 
Q 2806 -91 2034 -91 
Q 1263 -91 848 271 
Q 434 634 434 1313 
Q 434 1759 690 2068 
Q 947 2378 1403 2484 
z
M 1172 3481 
Q 1172 3119 1398 2916 
Q 1625 2713 2034 2713 
Q 2441 2713 2670 2916 
Q 2900 3119 2900 3481 
Q 2900 3844 2670 4047 
Q 2441 4250 2034 4250 
Q 1625 4250 1398 4047 
Q 1172 3844 1172 3481 
z
" id="DejaVuSans-38" transform="scale(0.015625)"/>
       </defs>
       <use xlink:href="#DejaVuSans-2d"/>
       <use x="36.083984" xlink:href="#DejaVuSans-38"/>
       <use x="99.707031" xlink:href="#DejaVuSans-30"/>
      </g>
     </g>
    </g>
    <g id="ytick_3">
     <g id="line2d_12">
      <g>
       <use style="stroke:#000000;stroke-width:0.8;" x="54" xlink:href="#m8c221a45de" y="179.52"/>
      </g>
     </g>
     <g id="text_13">
      <!-- -60 -->
      <g transform="translate(27.400625 184.079062)scale(0.12 -0.12)">
       <defs>
        <path d="M 2113 2584 
Q 1688 2584 1439 2293 
Q 1191 2003 1191 1497 
Q 1191 994 1439 701 
Q 1688 409 2113 409 
Q 2538 409 2786 701 
Q 3034 994 3034 1497 
Q 3034 2003 2786 2293 
Q 2538 2584 2113 2584 
z
M 3366 4563 
L 3366 3988 
Q 3128 4100 2886 4159 
Q 2644 4219 2406 4219 
Q 1781 4219 1451 3797 
Q 1122 3375 1075 2522 
Q 1259 2794 1537 2939 
Q 1816 3084 2150 3084 
Q 2853 3084 3261 2657 
Q 3669 2231 3669 1497 
Q 3669 778 3244 343 
Q 2819 -91 2113 -91 
Q 1303 -91 875 529 
Q 447 1150 447 2328 
Q 447 3434 972 4092 
Q 1497 4750 2381 4750 
Q 2619 4750 2861 4703 
Q 3103 4656 3366 4563 
z
" id="DejaVuSans-36" transform="scale(0.015625)"/>
       </defs>
       <use xlink:href="#DejaVuSans-2d"/>
       <use x="36.083984" xlink:href="#DejaVuSans-36"/>
       <use x="99.707031" xlink:href="#DejaVuSans-30"/>
      </g>
     </g>
    </g>
    <g id="ytick_4">
     <g id="line2d_13">
      <g>
       <use style="stroke:#000000;stroke-width:0.8;" x="54" xlink:href="#m8c221a45de" y="150.528"/>
      </g>
     </g>
     <g id="text_14">
      <!-- -40 -->
      <g transform="translate(27.400625 155.087063)scale(0.12 -0.12)">
       <use xlink:href="#DejaVuSans-2d"/>
       <use x="36.083984" xlink:href="#DejaVuSans-34"/>
       <use x="99.707031" xlink:href="#DejaVuSans-30"/>
      </g>
     </g>
    </g>
    <g id="ytick_5">
     <g id="line2d_14">
      <g>
       <use style="stroke:#000000;stroke-width:0.8;" x="54" xlink:href="#m8c221a45de" y="121.536"/>
      </g>
     </g>
     <g id="text_15">
      <!-- -20 -->
      <g transform="translate(27.400625 126.095062)scale(0.12 -0.12)">
       <use xlink:href="#DejaVuSans-2d"/>
       <use x="36.083984" xlink:href="#DejaVuSans-32"/>
       <use x="99.707031" xlink:href="#DejaVuSans-30"/>
      </g>
     </g>
    </g>
    <g id="ytick_6">
     <g id="line2d_15">
      <g>
       <use style="stroke:#000000;stroke-width:0.8;" x="54" xlink:href="#m8c221a45de" y="92.544"/>
      </g>
     </g>
     <g id="text_16">
      <!-- 0 -->
      <g transform="translate(39.365 97.103062)scale(0.12 -0.12)">
       <use xlink:href="#DejaVuSans-30"/>
      </g>
     </g>
    </g>
    <g id="ytick_7">
     <g id="line2d_16">
      <g>
       <use style="stroke:#000000;stroke-width:0.8;" x="54" xlink:href="#m8c221a45de" y="63.552"/>
      </g>
     </g>
     <g id="text_17">
      <!-- 20 -->
      <g transform="translate(31.73 68.111063)scale(0.12 -0.12)">
       <use xlink:href="#DejaVuSans-32"/>
       <use x="63.623047" xlink:href="#DejaVuSans-30"/>
      </g>
     </g>
    </g>
    <g id="ytick_8">
     <g id="line2d_17">
      <g>
       <use style="stroke:#000000;stroke-width:0.8;" x="54" xlink:href="#m8c221a45de" y="34.56"/>
      </g>
     </g>
     <g id="text_18">
      <!-- 40 -->
      <g transform="translate(31.73 39.119062)scale(0.12 -0.12)">
       <use xlink:href="#DejaVuSans-34"/>
       <use x="63.623047" xlink:href="#DejaVuSans-30"/>
      </g>
     </g>
    </g>
    <g id="text_19">
     <!-- Membrane potential (mV) -->
     <g transform="translate(13.27 220.574062)rotate(-90)scale(0.12 -0.12)">
      <defs>
       <path d="M 628 4666 
L 1569 4666 
L 2759 1491 
L 3956 4666 
L 4897 4666 
L 4897 0 
L 4281 0 
L 4281 4097 
L 3078 897 
L 2444 897 
L 1241 4097 
L 1241 0 
L 628 0 
L 628 4666 
z
" id="DejaVuSans-4d" transform="scale(0.015625)"/>
       <path d="M 3116 1747 
Q 3116 2381 2855 2742 
Q 2594 3103 2138 3103 
Q 1681 3103 1420 2742 
Q 1159 2381 1159 1747 
Q 1159 1113 1420 752 
Q 1681 391 2138 391 
Q 2594 391 2855 752 
Q 3116 1113 3116 1747 
z
M 1159 2969 
Q 1341 3281 1617 3432 
Q 1894 3584 2278 3584 
Q 2916 3584 3314 3078 
Q 3713 2572 3713 1747 
Q 3713 922 3314 415 
Q 2916 -91 2278 -91 
Q 1894 -91 1617 61 
Q 1341 213 1159 525 
L 1159 0 
L 581 0 
L 581 4863 
L 1159 4863 
L 1159 2969 
z
" id="DejaVuSans-62" transform="scale(0.015625)"/>
       <path d="M 2631 2963 
Q 2534 3019 2420 3045 
Q 2306 3072 2169 3072 
Q 1681 3072 1420 2755 
Q 1159 2438 1159 1844 
L 1159 0 
L 581 0 
L 581 3500 
L 1159 3500 
L 1159 2956 
Q 1341 3275 1631 3429 
Q 1922 3584 2338 3584 
Q 2397 3584 2469 3576 
Q 2541 3569 2628 3553 
L 2631 2963 
z
" id="DejaVuSans-72" transform="scale(0.015625)"/>
       <path d="M 2194 1759 
Q 1497 1759 1228 1600 
Q 959 1441 959 1056 
Q 959 750 1161 570 
Q 1363 391 1709 391 
Q 2188 391 2477 730 
Q 2766 1069 2766 1631 
L 2766 1759 
L 2194 1759 
z
M 3341 1997 
L 3341 0 
L 2766 0 
L 2766 531 
Q 2569 213 2275 61 
Q 1981 -91 1556 -91 
Q 1019 -91 701 211 
Q 384 513 384 1019 
Q 384 1609 779 1909 
Q 1175 2209 1959 2209 
L 2766 2209 
L 2766 2266 
Q 2766 2663 2505 2880 
Q 2244 3097 1772 3097 
Q 1472 3097 1187 3025 
Q 903 2953 641 2809 
L 641 3341 
Q 956 3463 1253 3523 
Q 1550 3584 1831 3584 
Q 2591 3584 2966 3190 
Q 3341 2797 3341 1997 
z
" id="DejaVuSans-61" transform="scale(0.015625)"/>
       <path d="M 3513 2113 
L 3513 0 
L 2938 0 
L 2938 2094 
Q 2938 2591 2744 2837 
Q 2550 3084 2163 3084 
Q 1697 3084 1428 2787 
Q 1159 2491 1159 1978 
L 1159 0 
L 581 0 
L 581 3500 
L 1159 3500 
L 1159 2956 
Q 1366 3272 1645 3428 
Q 1925 3584 2291 3584 
Q 2894 3584 3203 3211 
Q 3513 2838 3513 2113 
z
" id="DejaVuSans-6e" transform="scale(0.015625)"/>
       <path id="DejaVuSans-20" transform="scale(0.015625)"/>
       <path d="M 1159 525 
L 1159 -1331 
L 581 -1331 
L 581 3500 
L 1159 3500 
L 1159 2969 
Q 1341 3281 1617 3432 
Q 1894 3584 2278 3584 
Q 2916 3584 3314 3078 
Q 3713 2572 3713 1747 
Q 3713 922 3314 415 
Q 2916 -91 2278 -91 
Q 1894 -91 1617 61 
Q 1341 213 1159 525 
z
M 3116 1747 
Q 3116 2381 2855 2742 
Q 2594 3103 2138 3103 
Q 1681 3103 1420 2742 
Q 1159 2381 1159 1747 
Q 1159 1113 1420 752 
Q 1681 391 2138 391 
Q 2594 391 2855 752 
Q 3116 1113 3116 1747 
z
" id="DejaVuSans-70" transform="scale(0.015625)"/>
       <path d="M 1959 3097 
Q 1497 3097 1228 2736 
Q 959 2375 959 1747 
Q 959 1119 1226 758 
Q 1494 397 1959 397 
Q 2419 397 2687 759 
Q 2956 1122 2956 1747 
Q 2956 2369 2687 2733 
Q 2419 3097 1959 3097 
z
M 1959 3584 
Q 2709 3584 3137 3096 
Q 3566 2609 3566 1747 
Q 3566 888 3137 398 
Q 2709 -91 1959 -91 
Q 1206 -91 779 398 
Q 353 888 353 1747 
Q 353 2609 779 3096 
Q 1206 3584 1959 3584 
z
" id="DejaVuSans-6f" transform="scale(0.015625)"/>
       <path d="M 1172 4494 
L 1172 3500 
L 2356 3500 
L 2356 3053 
L 1172 3053 
L 1172 1153 
Q 1172 725 1289 603 
Q 1406 481 1766 481 
L 2356 481 
L 2356 0 
L 1766 0 
Q 1100 0 847 248 
Q 594 497 594 1153 
L 594 3053 
L 172 3053 
L 172 3500 
L 594 3500 
L 594 4494 
L 1172 4494 
z
" id="DejaVuSans-74" transform="scale(0.015625)"/>
       <path d="M 603 4863 
L 1178 4863 
L 1178 0 
L 603 0 
L 603 4863 
z
" id="DejaVuSans-6c" transform="scale(0.015625)"/>
       <path d="M 1831 0 
L 50 4666 
L 709 4666 
L 2188 738 
L 3669 4666 
L 4325 4666 
L 2547 0 
L 1831 0 
z
" id="DejaVuSans-56" transform="scale(0.015625)"/>
      </defs>
      <use xlink:href="#DejaVuSans-4d"/>
      <use x="86.279297" xlink:href="#DejaVuSans-65"/>
      <use x="147.802734" xlink:href="#DejaVuSans-6d"/>
      <use x="245.214844" xlink:href="#DejaVuSans-62"/>
      <use x="308.691406" xlink:href="#DejaVuSans-72"/>
      <use x="349.804688" xlink:href="#DejaVuSans-61"/>
      <use x="411.083984" xlink:href="#DejaVuSans-6e"/>
      <use x="474.462891" xlink:href="#DejaVuSans-65"/>
      <use x="535.986328" xlink:href="#DejaVuSans-20"/>
      <use x="567.773438" xlink:href="#DejaVuSans-70"/>
      <use x="631.25" xlink:href="#DejaVuSans-6f"/>
      <use x="692.431641" xlink:href="#DejaVuSans-74"/>
      <use x="731.640625" xlink:href="#DejaVuSans-65"/>
      <use x="793.164062" xlink:href="#DejaVuSans-6e"/>
      <use x="856.542969" xlink:href="#DejaVuSans-74"/>
      <use x="895.751953" xlink:href="#DejaVuSans-69"/>
      <use x="923.535156" xlink:href="#DejaVuSans-61"/>
      <use x="984.814453" xlink:href="#DejaVuSans-6c"/>
      <use x="1012.597656" xlink:href="#DejaVuSans-20"/>
      <use x="1044.384766" xlink:href="#DejaVuSans-28"/>
      <use x="1083.398438" xlink:href="#DejaVuSans-6d"/>
      <use x="1180.810547" xlink:href="#DejaVuSans-56"/>
      <use x="1249.21875" xlink:href="#DejaVuSans-29"/>
     </g>
    </g>
   </g>
   <g id="line2d_18">
    <path clip-path="url(#pd5de011976)" d="M 69.218182 226.768987 
L 69.333763 226.766958 
L 69.719033 226.101881 
L 69.911669 226.081442 
L 70.142831 225.654245 
L 70.41252 225.921986 
L 70.451047 225.849071 
L 70.874845 224.544721 
L 71.106007 224.481663 
L 71.221588 224.146661 
L 71.414223 222.491652 
L 71.645386 221.37749 
L 71.760967 221.350672 
L 71.915075 221.764533 
L 72.146237 222.784182 
L 72.184764 222.681405 
L 72.454453 221.586232 
L 72.570035 221.54173 
L 72.724143 221.592756 
L 73.109413 221.342844 
L 73.417629 220.623843 
L 73.533211 220.469316 
L 73.725846 219.974422 
L 73.841427 220.282027 
L 74.650495 223.605235 
L 75.189873 226.243072 
L 75.652198 228.482704 
L 75.690725 228.426605 
L 75.88336 227.146463 
L 76.153049 226.17842 
L 76.307158 225.989972 
L 76.345685 226.011426 
L 76.499793 226.309754 
L 76.576847 226.462542 
L 76.615374 226.415865 
L 76.769482 226.283661 
L 77.000644 226.582859 
L 77.039171 226.48762 
L 77.154753 225.720926 
L 77.424442 224.224359 
L 77.540023 224.106507 
L 77.848239 222.475707 
L 78.079402 221.642622 
L 78.23351 221.592611 
L 78.580253 222.124904 
L 78.811415 223.066419 
L 78.965524 223.670467 
L 79.004051 223.660175 
L 79.235213 223.313286 
L 80.352497 213.959887 
L 80.468078 214.055415 
L 80.622186 214.713534 
L 81.123038 217.703044 
L 81.161565 217.672747 
L 81.508308 217.077541 
L 81.662417 216.762688 
L 81.932106 217.266714 
L 82.278849 218.791259 
L 82.471484 219.306012 
L 82.587066 219.266582 
L 82.702647 219.582885 
L 82.972336 221.297762 
L 83.550242 224.988588 
L 84.474891 228.359343 
L 84.513418 228.226415 
L 84.783107 226.654614 
L 84.975742 224.218851 
L 85.283959 220.790112 
L 85.553648 219.157572 
L 85.78481 217.769725 
L 85.861864 217.758419 
L 86.43977 218.960572 
L 86.863567 219.738717 
L 86.940621 219.560126 
L 87.441473 216.343899 
L 87.557054 216.526838 
L 87.749689 216.91852 
L 87.86527 216.690788 
L 87.942325 216.586272 
L 87.980852 216.61164 
L 88.096433 216.979838 
L 88.366122 218.900848 
L 88.712865 221.024077 
L 88.866974 221.064666 
L 89.059609 220.937536 
L 89.098136 220.97914 
L 89.252244 221.423877 
L 89.56046 223.077726 
L 89.637514 222.899715 
L 89.984258 222.063296 
L 90.061312 222.157955 
L 90.099839 222.055468 
L 90.408055 220.954352 
L 90.485109 220.965948 
L 90.639217 221.443012 
L 91.178596 223.651767 
L 91.371231 223.683659 
L 91.448285 223.839636 
L 91.525339 223.783536 
L 91.795029 223.561892 
L 92.180299 221.815124 
L 92.29588 221.980089 
L 92.681151 223.254577 
L 92.758205 223.120344 
L 92.873786 222.771135 
L 93.066421 220.808812 
L 93.374638 218.645284 
L 93.451692 218.649343 
L 93.528746 218.750235 
L 93.567273 218.670797 
L 93.721381 218.478 
L 93.836962 218.7685 
L 94.106651 220.413361 
L 94.376341 222.021692 
L 94.414868 222.015169 
L 94.530449 222.011835 
L 94.684557 221.514042 
L 94.723084 221.531582 
L 94.877192 222.038797 
L 95.069827 222.665315 
L 95.108354 222.632119 
L 95.30099 221.795844 
L 95.647733 220.59659 
L 95.763314 220.407273 
L 95.801841 220.4367 
L 96.033003 220.689075 
L 96.302693 221.859482 
L 96.456801 221.676397 
L 96.533855 221.676687 
L 96.649436 221.159615 
L 96.880598 220.359291 
L 96.957652 220.351463 
L 97.111761 220.129239 
L 97.227342 220.430466 
L 97.497031 222.046335 
L 97.728193 223.010754 
L 97.959356 223.982276 
L 98.151991 224.63793 
L 98.267572 224.304957 
L 98.498734 223.074682 
L 98.845478 221.229341 
L 98.961059 221.265291 
L 99.038113 221.337771 
L 99.07664 221.285295 
L 99.269275 219.450392 
L 99.577491 216.817918 
L 99.847181 215.649396 
L 99.962762 215.785078 
L 100.425086 216.036294 
L 101.041519 218.269113 
L 102.004695 223.747296 
L 102.081749 223.939368 
L 102.120276 223.920233 
L 102.312911 223.775418 
L 102.46702 224.043884 
L 102.659655 224.618361 
L 102.736709 224.507756 
L 102.890817 224.35033 
L 103.584304 222.161724 
L 103.699885 222.221302 
L 103.89252 222.887828 
L 103.969574 223.265304 
L 104.046628 223.193549 
L 104.277791 222.597328 
L 104.354845 222.732576 
L 104.817169 224.127671 
L 104.855696 224.107087 
L 105.626237 222.77186 
L 105.818872 222.138965 
L 105.934453 222.316541 
L 106.473832 224.22088 
L 106.550886 224.085198 
L 106.743521 223.709606 
L 106.859102 223.856741 
L 107.051738 224.381641 
L 107.090265 224.308871 
L 107.783751 221.691763 
L 107.899333 221.735831 
L 108.091968 222.400473 
L 108.400184 223.270812 
L 108.592819 223.338654 
L 108.785455 223.929656 
L 108.862509 224.265673 
L 108.901036 224.214212 
L 109.401887 222.743883 
L 109.517468 222.962772 
L 109.787158 224.154199 
L 110.442117 227.141824 
L 110.519171 227.178064 
L 110.557699 227.110078 
L 110.711807 226.219734 
L 110.942969 225.088466 
L 111.05855 225.060634 
L 111.212658 225.368964 
L 111.44382 225.983304 
L 111.482348 225.899372 
L 111.906145 224.173913 
L 112.329942 222.151576 
L 112.406997 222.116786 
L 112.445524 222.15665 
L 112.599632 222.616898 
L 113.061956 224.285388 
L 113.254591 224.689101 
L 113.447227 225.29083 
L 113.485754 225.249661 
L 113.755443 224.722732 
L 113.832497 224.740417 
L 114.371876 222.840281 
L 114.487457 222.832308 
L 114.641565 223.253707 
L 115.10389 224.938722 
L 115.335052 223.196883 
L 115.951484 217.842785 
L 116.028539 217.823506 
L 116.14412 217.728122 
L 116.490863 218.376093 
L 116.606444 218.26027 
L 116.683498 218.165901 
L 116.876133 216.997668 
L 117.222877 214.711069 
L 117.338458 214.522911 
L 117.376985 214.569733 
L 117.531093 215.226257 
L 118.22458 220.482072 
L 118.648377 223.876165 
L 118.686904 223.843549 
L 118.841013 223.283134 
L 119.072175 222.667344 
L 119.187756 222.253193 
L 119.457445 221.648855 
L 119.573026 221.86528 
L 119.842716 223.212973 
L 120.150932 224.627058 
L 120.30504 224.410488 
L 120.382094 223.954879 
L 120.613257 222.779253 
L 120.690311 222.829989 
L 120.882946 223.464769 
L 121.34527 225.701792 
L 121.422325 225.594086 
L 121.769068 224.53182 
L 121.884649 224.684607 
L 122.346974 225.643373 
L 122.385501 225.621629 
L 122.578136 225.129345 
L 123.001933 223.0612 
L 123.117514 222.738809 
L 123.425731 221.860207 
L 123.541312 221.661177 
L 123.579839 221.676108 
L 123.733947 222.081416 
L 123.811001 222.160274 
L 123.849528 222.097506 
L 124.273326 220.793591 
L 124.388907 221.03408 
L 124.581542 221.26848 
L 124.697123 221.346468 
L 124.889758 222.016329 
L 125.39061 225.118183 
L 125.968516 228.092037 
L 126.353786 229.197067 
L 126.469367 228.803356 
L 127.0858 226.024473 
L 127.162854 225.914158 
L 127.509597 224.395412 
L 127.817814 222.348722 
L 127.894868 222.327123 
L 127.933395 222.382063 
L 128.12603 223.0986 
L 128.858044 226.411661 
L 129.089206 227.022522 
L 129.358895 227.934176 
L 129.397422 227.884164 
L 129.975328 224.895524 
L 130.090909 225.01758 
L 130.437652 225.607133 
L 130.591761 225.553643 
L 130.977031 224.178697 
L 131.054085 224.274805 
L 131.323774 224.660834 
L 131.400829 224.672576 
L 131.670518 224.116654 
L 132.017261 221.857597 
L 132.094315 221.931527 
L 132.286951 222.686189 
L 132.441059 223.147596 
L 132.479586 223.123678 
L 132.595167 221.95617 
L 132.980437 217.412254 
L 133.173072 216.619178 
L 133.327181 216.261127 
L 133.365708 216.293453 
L 133.519816 216.660636 
L 133.750978 217.967451 
L 134.020667 219.069437 
L 134.136249 219.452131 
L 134.174776 219.385595 
L 134.6371 216.95505 
L 134.752681 216.686584 
L 135.022371 215.739996 
L 135.099425 215.819289 
L 135.253533 216.535101 
L 135.523222 218.071967 
L 135.561749 218.056456 
L 135.715857 218.0595 
L 135.869965 218.606 
L 136.101128 219.639275 
L 136.139655 219.561141 
L 136.255236 219.429807 
L 136.370817 219.777132 
L 137.025777 223.649738 
L 137.256939 224.829857 
L 137.295466 224.792603 
L 137.680736 224.098244 
L 137.719264 224.133759 
L 138.143061 224.573568 
L 138.528331 226.080137 
L 138.798021 226.822188 
L 138.952129 226.724919 
L 139.183291 226.457178 
L 139.337399 226.658238 
L 139.684143 227.526693 
L 139.72267 227.390141 
L 140.10794 225.287931 
L 140.223521 225.23763 
L 140.377629 225.550019 
L 140.839954 227.328823 
L 141.41786 229.163147 
L 141.880184 229.958832 
L 141.995765 229.806189 
L 142.149873 229.283898 
L 142.612198 226.343964 
L 142.727779 226.385423 
L 142.84336 226.559955 
L 142.881887 226.494578 
L 143.190104 224.734619 
L 143.49832 223.015538 
L 144.654131 220.620799 
L 144.692658 220.664432 
L 144.885293 221.081627 
L 144.92382 220.988852 
L 145.077929 220.686321 
L 145.116456 220.721836 
L 145.347618 221.112503 
L 145.501726 221.207887 
L 145.617307 221.257463 
L 145.771415 221.666395 
L 146.657537 225.810077 
L 147.042808 227.415799 
L 147.466605 228.165677 
L 147.659241 228.614618 
L 147.697768 228.574899 
L 147.813349 227.796464 
L 148.083038 225.847187 
L 148.198619 225.787463 
L 148.352727 226.083761 
L 148.468308 226.30468 
L 148.776525 225.407378 
L 148.930633 225.689905 
L 149.470012 227.181978 
L 149.62412 226.557201 
L 150.047917 223.98735 
L 150.163498 224.02417 
L 150.356133 224.244654 
L 150.394661 224.214357 
L 150.587296 224.124192 
L 150.702877 224.223635 
L 150.818458 223.543337 
L 151.203728 220.901586 
L 151.280783 220.758656 
L 151.31931 220.783879 
L 151.588999 221.518536 
L 151.935742 223.264869 
L 152.012796 222.898265 
L 152.205432 222.375395 
L 152.321013 222.524703 
L 152.35954 222.461791 
L 152.475121 222.380323 
L 152.590702 222.669808 
L 152.898918 223.857611 
L 152.937445 223.788755 
L 153.168608 223.136435 
L 153.207135 223.151655 
L 153.900621 224.169564 
L 154.208838 225.543495 
L 154.362946 226.175811 
L 154.401473 226.03462 
L 154.82527 223.630458 
L 155.326122 221.241083 
L 155.441703 220.974356 
L 155.48023 220.999579 
L 155.749919 220.665881 
L 155.788446 220.716327 
L 155.826974 220.781994 
L 155.865501 220.719806 
L 156.173717 219.926295 
L 156.289298 220.112134 
L 156.636041 220.893903 
L 157.17542 223.417367 
L 157.291001 223.625095 
L 157.329528 223.536814 
L 157.907434 220.137357 
L 157.945961 220.157362 
L 158.100069 220.595576 
L 159.294407 225.717302 
L 159.641151 225.77891 
L 159.949367 224.839135 
L 160.026421 224.897119 
L 160.142002 225.033816 
L 160.5658 223.078596 
L 160.604327 223.108312 
L 160.758435 223.247329 
L 161.143705 222.129252 
L 161.220759 222.261746 
L 161.259287 222.342054 
L 161.297814 222.304219 
L 161.374868 222.225506 
L 161.413395 222.256092 
L 161.567503 222.769686 
L 161.760138 223.196738 
L 161.914246 223.636692 
L 162.068354 224.002571 
L 162.106881 223.978217 
L 162.26099 223.809774 
L 162.64626 221.488384 
L 162.684787 221.512738 
L 163.108585 222.423231 
L 163.185639 222.269429 
L 163.378274 221.019729 
L 163.725017 218.834312 
L 164.071761 219.043054 
L 164.880829 220.744015 
L 164.919356 220.684146 
L 165.458734 217.796108 
L 165.535788 217.845829 
L 165.689896 217.996153 
L 165.882532 218.84156 
L 166.344856 221.583188 
L 166.6916 223.574649 
L 166.730127 223.634082 
L 166.768654 223.579867 
L 166.922762 223.502748 
L 167.07687 223.545077 
L 167.885938 221.137871 
L 168.001519 221.114532 
L 168.348262 221.495632 
L 168.656479 223.200507 
L 168.810587 223.995178 
L 168.849114 223.976623 
L 169.195857 223.629878 
L 169.311438 223.750485 
L 169.542601 224.561391 
L 169.619655 224.814202 
L 169.696709 224.760421 
L 169.850817 224.608503 
L 169.966398 224.513265 
L 170.004925 224.541532 
L 170.19756 224.901323 
L 170.274614 224.763031 
L 170.390196 224.787094 
L 170.505777 225.047732 
L 170.582831 224.941621 
L 170.698412 224.8574 
L 170.736939 224.899583 
L 170.891047 224.915239 
L 171.006628 225.00091 
L 171.314845 225.372877 
L 171.430426 225.082088 
L 171.89275 223.311111 
L 172.008331 223.434762 
L 172.239494 224.264658 
L 172.778872 226.306855 
L 173.010035 226.755361 
L 173.048562 226.701726 
L 173.356778 225.819789 
L 173.510886 226.058248 
L 173.819102 227.03238 
L 173.896157 226.913077 
L 174.050265 226.176101 
L 174.319954 224.455136 
L 174.62817 224.097374 
L 174.705224 224.215227 
L 175.051968 224.746215 
L 175.244603 225.113399 
L 175.360184 225.07339 
L 175.514292 224.922487 
L 175.552819 224.94597 
L 175.629873 224.861604 
L 175.899563 223.755124 
L 175.976617 223.784986 
L 176.015144 223.740483 
L 176.169252 223.6954 
L 176.32336 223.651767 
L 176.593049 223.092802 
L 176.939793 220.830266 
L 177.055374 220.722416 
L 177.286536 221.098732 
L 177.36359 220.976096 
L 177.479171 220.572962 
L 177.710334 219.567084 
L 177.825915 219.845843 
L 178.095604 221.536366 
L 178.866145 226.651135 
L 179.174361 226.532123 
L 179.405524 226.981933 
L 179.444051 227.081086 
L 179.482578 227.061227 
L 179.71374 226.689984 
L 179.867848 226.946418 
L 180.715443 229.357683 
L 180.792497 229.197357 
L 181.254822 226.362374 
L 181.370403 226.422968 
L 181.601565 227.020203 
L 181.832727 227.498571 
L 181.909781 227.308383 
L 182.295052 224.857545 
L 182.487687 224.63793 
L 182.603268 222.833323 
L 182.83443 219.913829 
L 183.027066 219.391103 
L 183.142647 219.612602 
L 184.182877 223.130056 
L 184.221404 223.105703 
L 184.568147 222.997708 
L 184.760783 223.668728 
L 185.300161 225.856754 
L 185.415742 225.107746 
L 185.685432 223.265304 
L 185.762486 223.199492 
L 185.801013 223.227469 
L 185.993648 223.716709 
L 186.109229 224.013153 
L 186.147756 223.980537 
L 186.417445 223.160933 
L 186.455972 223.180068 
L 186.610081 223.565081 
L 186.956824 224.481373 
L 187.110932 224.636046 
L 187.342094 225.301702 
L 187.650311 226.164794 
L 187.804419 226.331208 
L 187.92 226.510524 
L 187.958527 226.401224 
L 188.767595 221.846001 
L 188.96023 221.99328 
L 188.998757 221.930657 
L 189.114338 221.817444 
L 189.152865 221.842232 
L 189.769298 222.091998 
L 190.077514 221.283846 
L 190.154568 221.422283 
L 190.27015 221.706404 
L 190.308677 221.673208 
L 190.424258 221.384448 
L 190.578366 220.813016 
L 190.616893 220.822148 
L 190.65542 220.881002 
L 190.693947 220.791417 
L 190.886582 220.499322 
L 191.04069 220.257819 
L 191.079217 220.281592 
L 191.233326 220.770542 
L 191.657123 222.447295 
L 191.69565 222.491508 
L 191.734177 222.453383 
L 192.003867 222.026621 
L 192.157975 221.844696 
L 192.620299 220.811276 
L 192.73588 220.287536 
L 192.967043 219.447058 
L 193.082624 219.664643 
L 193.737583 222.508033 
L 194.315489 225.882702 
L 194.777814 224.326411 
L 194.931922 224.574148 
L 195.047503 224.708236 
L 195.08603 224.65634 
L 195.317192 224.406139 
L 195.548354 224.552984 
L 195.663936 223.726712 
L 195.972152 221.877312 
L 196.241841 221.019584 
L 196.318895 220.94406 
L 196.357422 220.971312 
L 196.51153 221.465481 
L 196.78122 222.369596 
L 196.819747 222.39105 
L 196.858274 222.307118 
L 197.127963 221.133232 
L 197.243544 221.314432 
L 197.474707 222.400328 
L 197.782923 223.647853 
L 197.937031 223.678295 
L 198.091139 223.736859 
L 198.283774 224.188989 
L 198.514937 224.690261 
L 198.707572 224.684607 
L 198.86168 224.806374 
L 199.362532 225.901547 
L 199.439586 225.777606 
L 199.632221 225.61612 
L 199.786329 225.904591 
L 200.248654 226.907424 
L 200.518343 227.083405 
L 200.633924 227.014549 
L 200.903613 226.511538 
L 201.057722 226.691868 
L 201.288884 227.13994 
L 201.327411 227.115442 
L 201.481519 226.907134 
L 201.712681 225.121952 
L 201.943843 223.728886 
L 202.020898 223.67815 
L 202.059425 223.711926 
L 202.213533 224.129266 
L 202.560276 225.590607 
L 202.598803 225.521027 
L 202.829965 224.92843 
L 202.945547 225.102527 
L 203.215236 226.110869 
L 203.369344 226.653599 
L 203.407871 226.59547 
L 203.561979 226.519656 
L 203.639033 226.568073 
L 204.024304 225.214581 
L 204.255466 224.236246 
L 204.563682 222.269139 
L 204.756318 221.502011 
L 204.833372 221.55985 
L 204.948953 221.889199 
L 205.026007 221.755691 
L 205.295696 220.785183 
L 205.334223 220.83244 
L 205.758021 222.063151 
L 206.220345 224.608213 
L 206.258872 224.548925 
L 206.41298 223.848043 
L 206.836778 222.067355 
L 206.990886 221.955011 
L 207.222048 221.654364 
L 207.299102 221.586377 
L 207.491738 221.186433 
L 207.530265 221.213685 
L 207.838481 221.730902 
L 208.185224 220.530199 
L 208.300806 220.758221 
L 208.531968 221.935876 
L 208.878711 223.484484 
L 208.994292 223.583926 
L 209.032819 223.550585 
L 209.186928 223.304443 
L 209.379563 222.249279 
L 209.649252 221.095978 
L 209.726306 221.126999 
L 210.073049 221.945008 
L 210.419793 223.816297 
L 210.535374 223.517244 
L 210.766536 222.748522 
L 210.882117 222.714891 
L 211.036226 222.64618 
L 211.575604 223.304878 
L 211.88382 224.459774 
L 211.922348 224.42223 
L 212.114983 223.86022 
L 212.230564 223.727871 
L 212.269091 223.75121 
L 212.423199 224.106652 
L 212.924051 225.958951 
L 213.039632 225.917782 
L 213.19374 226.014325 
L 213.424902 226.559085 
L 213.887227 227.644691 
L 213.964281 227.604247 
L 214.272497 226.148124 
L 214.542186 224.07679 
L 214.619241 224.001846 
L 214.657768 224.027939 
L 214.811876 224.42194 
L 214.965984 224.959017 
L 215.004511 224.813042 
L 215.428308 222.68039 
L 215.582417 222.869273 
L 215.736525 222.98814 
L 215.775052 222.909862 
L 215.92916 222.373365 
L 216.160322 221.633924 
L 216.275903 221.853828 
L 217.239079 224.940462 
L 217.701404 225.575821 
L 217.778458 225.441444 
L 217.932566 225.262853 
L 217.971093 225.283147 
L 218.163728 225.488121 
L 218.356364 223.675686 
L 218.548999 222.817378 
L 218.66458 222.891887 
L 218.857215 223.582332 
L 219.396594 225.68918 
L 219.627756 226.372667 
L 219.897445 227.244021 
L 219.935972 227.223872 
L 220.513878 226.27134 
L 220.629459 226.15943 
L 220.822094 225.704256 
L 221.091784 224.589079 
L 221.284419 224.483113 
L 221.438527 223.773534 
L 221.669689 223.151365 
L 221.746743 223.082364 
L 221.900852 222.055903 
L 222.555811 215.537196 
L 222.594338 215.562564 
L 222.709919 215.966423 
L 223.249298 218.523807 
L 223.518987 218.866783 
L 223.596041 218.786185 
L 223.865731 217.352531 
L 223.904258 217.358619 
L 224.058366 217.278891 
L 224.597745 214.290396 
L 224.828907 214.013667 
L 224.905961 214.16399 
L 225.368285 215.728834 
L 225.406812 215.699987 
L 225.599448 214.946629 
L 225.83061 214.045558 
L 225.907664 214.180951 
L 226.138826 214.732234 
L 226.331461 214.884732 
L 226.48557 215.115073 
L 226.716732 214.645113 
L 226.793786 214.747599 
L 226.986421 215.670995 
L 227.25611 216.772401 
L 227.294638 216.797044 
L 227.333165 216.732537 
L 227.487273 216.090799 
L 228.411922 207.759223 
L 228.643084 206.980932 
L 228.758665 207.010649 
L 228.912773 207.119079 
L 229.490679 205.742539 
L 229.567733 205.544669 
L 229.837422 203.245168 
L 230.530909 195.478646 
L 230.607963 195.581713 
L 230.762071 196.386386 
L 231.571139 201.654232 
L 231.840829 203.282133 
L 231.917883 203.105137 
L 232.264626 201.857756 
L 232.495788 202.210734 
L 232.688423 203.195882 
L 233.420437 208.007829 
L 233.6516 208.651017 
L 233.882762 209.812436 
L 234.460667 214.323301 
L 234.537722 214.14645 
L 234.845938 211.71982 
L 235.423843 207.702398 
L 235.539425 207.73226 
L 235.693533 207.82373 
L 235.809114 207.634702 
L 236.040276 206.133786 
L 236.309965 205.065431 
L 236.425547 204.892929 
L 236.464074 204.930183 
L 236.926398 205.792405 
L 236.964925 205.762254 
L 237.041979 205.499586 
L 237.350196 204.218575 
L 237.581358 203.523202 
L 237.658412 203.684107 
L 237.966628 205.34274 
L 238.313372 208.22237 
L 238.544534 209.973197 
L 238.583061 209.919417 
L 238.929804 208.436621 
L 239.353602 206.720149 
L 239.430656 206.473283 
L 239.661818 205.561774 
L 239.738872 205.633819 
L 239.970035 206.294982 
L 240.085616 206.638247 
L 240.124143 206.613749 
L 240.239724 206.380943 
L 240.470886 205.913882 
L 240.779102 205.690209 
L 240.894684 204.931198 
L 241.357008 198.637615 
L 241.742278 193.76058 
L 242.011968 192.819935 
L 242.127549 192.906766 
L 242.204603 192.865018 
L 242.320184 191.952204 
L 242.589873 189.857243 
L 242.89809 189.19521 
L 242.936617 189.240583 
L 242.975144 189.296392 
L 243.013671 189.210866 
L 243.28336 188.729454 
L 243.475995 188.561155 
L 243.630104 188.856004 
L 244.015374 189.818103 
L 244.477699 191.901758 
L 244.516226 191.853632 
L 244.708861 191.28162 
L 245.325293 187.424959 
L 245.440875 187.528315 
L 245.556456 187.861433 
L 245.594983 187.825338 
L 245.787618 186.816996 
L 246.057307 185.623396 
L 246.481105 183.277653 
L 247.05901 174.727767 
L 247.405754 165.622105 
L 247.521335 157.929803 
L 247.559862 150.475669 
L 247.598389 75.61818 
L 247.636916 88.834039 
L 247.791024 194.238804 
L 247.868078 196.077331 
L 247.906605 195.684924 
L 248.060713 194.966358 
L 248.137768 194.970127 
L 248.253349 195.394425 
L 248.638619 197.02305 
L 248.715673 197.011598 
L 249.02389 196.215043 
L 249.177998 195.215254 
L 249.563268 192.243719 
L 249.717376 192.150365 
L 250.025593 191.090997 
L 250.295282 189.970311 
L 250.333809 190.013509 
L 250.44939 190.089613 
L 250.603498 189.345824 
L 251.296985 185.467999 
L 251.605201 184.976584 
L 251.720783 184.619548 
L 251.990472 183.68673 
L 252.221634 183.666436 
L 252.337215 183.373327 
L 252.491323 182.334253 
L 252.722486 177.229632 
L 252.992175 168.373011 
L 253.107756 160.317584 
L 253.146283 153.328482 
L 253.223337 76.112059 
L 253.377445 198.081693 
L 253.415972 199.692489 
L 253.454499 199.011901 
L 253.762716 192.931119 
L 253.993878 191.486158 
L 254.070932 191.515295 
L 254.302094 191.852907 
L 254.379148 191.528052 
L 254.802946 189.010821 
L 254.995581 188.467076 
L 255.188216 188.522161 
L 255.342325 188.967188 
L 256.613717 195.380653 
L 257.268677 200.107654 
L 257.307204 200.112438 
L 257.538366 199.507085 
L 257.576893 199.562604 
L 257.808055 200.408156 
L 258.231853 202.326557 
L 258.385961 201.89733 
L 258.578596 201.387361 
L 258.617123 201.405626 
L 258.732704 201.775419 
L 259.387664 204.887275 
L 259.580299 204.518352 
L 259.657353 204.635335 
L 259.888516 205.771821 
L 260.196732 208.627388 
L 261.159908 218.87548 
L 261.352543 219.09408 
L 261.545178 219.714219 
L 261.583705 219.628837 
L 261.699287 219.460394 
L 261.737814 219.482283 
L 261.891922 219.935863 
L 262.084557 220.41655 
L 262.161611 220.172148 
L 262.816571 215.604458 
L 262.893625 215.528789 
L 262.932152 215.560825 
L 263.08626 216.100656 
L 263.625639 218.732985 
L 263.664166 218.702108 
L 264.049436 216.480886 
L 264.165017 216.331867 
L 264.203544 216.367962 
L 264.704396 216.983897 
L 264.78145 216.88257 
L 265.012612 216.816034 
L 265.089666 216.872713 
L 265.243774 217.458351 
L 265.860207 221.101631 
L 265.937261 220.964354 
L 266.052842 220.935362 
L 266.129896 220.956961 
L 266.515167 219.72712 
L 266.553694 219.74553 
L 266.630748 219.826853 
L 266.669275 219.742486 
L 266.823383 218.596432 
L 267.016018 217.607805 
L 267.093072 217.667094 
L 267.247181 218.255776 
L 267.632451 220.986823 
L 267.940667 222.61081 
L 267.979194 222.676042 
L 268.017722 222.648934 
L 268.094776 222.226231 
L 268.364465 220.464387 
L 268.441519 220.131994 
L 268.672681 218.989999 
L 268.865316 218.720373 
L 268.903843 218.757483 
L 268.942371 218.82315 
L 268.980898 218.793723 
L 269.096479 218.664419 
L 269.135006 218.722113 
L 269.250587 218.733999 
L 269.520276 218.864028 
L 269.558803 218.755888 
L 269.751438 218.384791 
L 269.789965 218.401896 
L 269.905547 218.687757 
L 270.175236 220.282752 
L 270.406398 221.355166 
L 270.483452 221.440548 
L 270.521979 221.382853 
L 270.945777 219.42198 
L 271.061358 219.686532 
L 271.870426 222.904499 
L 271.908953 222.868259 
L 272.255696 221.881516 
L 272.563913 220.1807 
L 273.026237 218.397257 
L 273.141818 218.139373 
L 273.411507 217.04623 
L 273.64267 215.855239 
L 273.719724 215.943954 
L 273.912359 216.860391 
L 274.02794 217.429359 
L 274.066467 217.418922 
L 274.182048 217.019268 
L 274.490265 215.628376 
L 274.605846 215.318452 
L 275.106697 212.824705 
L 275.145224 212.869208 
L 275.33786 213.06186 
L 275.453441 212.927916 
L 275.491968 212.977493 
L 275.646076 213.63938 
L 275.992819 215.138701 
L 276.069873 215.082022 
L 276.339563 214.285032 
L 276.416617 214.47261 
L 276.570725 214.773837 
L 276.955995 213.595747 
L 277.071577 213.85711 
L 277.379793 214.856319 
L 277.456847 214.667726 
L 277.572428 214.469566 
L 277.610955 214.534363 
L 277.80359 215.497188 
L 277.996226 215.800444 
L 278.07328 215.823637 
L 278.304442 215.483126 
L 278.342969 215.540531 
L 278.45855 215.496608 
L 278.535604 215.531543 
L 278.959402 216.680786 
L 279.190564 217.979193 
L 279.999632 223.238341 
L 280.192267 223.414033 
L 280.461956 223.445199 
L 280.847227 222.099536 
L 281.309551 218.879974 
L 281.502186 218.608899 
L 281.887457 216.414204 
L 282.157146 216.686149 
L 282.657998 218.818656 
L 282.812106 218.626874 
L 283.043268 218.938683 
L 283.27443 220.123586 
L 284.006444 224.382366 
L 284.276133 225.395926 
L 284.314661 225.387953 
L 284.468769 225.374037 
L 284.661404 225.160946 
L 284.815512 225.406943 
L 285.085201 226.014615 
L 285.123728 225.919377 
L 285.508999 224.720412 
L 285.62458 224.833626 
L 285.778688 225.190663 
L 285.817215 225.104701 
L 285.932796 224.012138 
L 286.356594 220.285796 
L 286.626283 218.936074 
L 286.703337 218.8749 
L 286.741864 218.907951 
L 287.127135 219.804384 
L 287.550932 221.893837 
L 287.627986 221.84687 
L 287.820621 222.037058 
L 288.013257 222.305959 
L 288.051784 222.194774 
L 288.244419 221.495777 
L 288.282946 221.508244 
L 288.437054 221.755111 
L 288.475581 221.722205 
L 288.591162 221.327044 
L 288.860852 220.27217 
L 289.053487 220.266661 
L 289.323176 219.546065 
L 289.361703 219.579261 
L 289.515811 220.056759 
L 290.170771 222.717065 
L 290.324879 223.101934 
L 290.787204 224.646048 
L 290.825731 224.635756 
L 290.902785 224.354968 
L 291.365109 219.867442 
L 291.403636 219.897738 
L 291.557745 220.388428 
L 291.904488 222.59182 
L 292.405339 225.439704 
L 292.482394 225.483192 
L 292.520921 225.431151 
L 292.867664 224.248713 
L 293.484097 220.176351 
L 293.561151 220.055165 
L 293.599678 220.078503 
L 293.753786 220.558466 
L 293.83084 220.741985 
L 293.869367 220.719516 
L 293.984948 220.687915 
L 294.100529 220.877958 
L 294.139056 220.804608 
L 294.331692 220.253905 
L 294.370219 220.285651 
L 294.524327 220.800549 
L 294.716962 221.285005 
L 294.794016 221.026542 
L 295.025178 219.901797 
L 295.102232 219.953693 
L 295.256341 220.519037 
L 295.680138 223.384751 
L 295.988354 224.660254 
L 296.142463 224.663008 
L 296.373625 224.459919 
L 296.527733 224.723892 
L 296.604787 224.83667 
L 296.643314 224.772163 
L 296.758895 224.641409 
L 296.797422 224.664603 
L 296.95153 224.996271 
L 296.990058 224.835511 
L 297.336801 222.976544 
L 297.452382 223.17195 
L 297.87618 224.716933 
L 297.953234 224.468472 
L 298.222923 223.449113 
L 298.492612 222.428015 
L 298.877883 218.56947 
L 299.109045 217.856412 
L 299.147572 217.897 
L 299.30168 218.510181 
L 299.841059 220.497003 
L 299.95664 220.647761 
L 300.149275 221.350817 
L 300.187802 221.052055 
L 300.34191 217.360938 
L 300.650127 211.542534 
L 301.150978 208.183086 
L 301.189505 208.207584 
L 301.305086 208.591873 
L 301.728884 210.353717 
L 301.882992 210.964723 
L 302.229735 212.990104 
L 302.846168 217.80843 
L 302.961749 217.694056 
L 303.000276 217.760883 
L 303.154384 218.504528 
L 303.655236 221.372126 
L 303.73229 221.289934 
L 303.847871 220.547594 
L 304.38725 216.696442 
L 304.541358 216.257068 
L 304.656939 216.542204 
L 304.926628 218.302019 
L 305.735696 224.359172 
L 305.81275 224.297564 
L 305.928331 224.188409 
L 305.966858 224.227838 
L 306.159494 224.78318 
L 306.46771 226.054624 
L 306.544764 225.933293 
L 306.660345 225.860233 
L 306.698872 225.891689 
L 306.891507 226.314683 
L 307.353832 227.737755 
L 307.430886 227.669914 
L 307.700575 225.777751 
L 308.008792 223.918059 
L 308.355535 223.302414 
L 308.509643 222.946827 
L 308.54817 222.963932 
L 308.702278 223.172964 
L 308.894914 222.040537 
L 309.049022 220.16432 
L 309.318711 216.659767 
L 309.395765 216.507849 
L 309.434292 216.532927 
L 309.703982 216.859812 
L 309.819563 216.991 
L 310.012198 216.103555 
L 310.24336 214.792682 
L 310.281887 214.804569 
L 310.397468 215.16146 
L 310.667158 217.154805 
L 311.245063 221.671904 
L 311.28359 221.780914 
L 311.322117 221.659002 
L 311.514753 219.983989 
L 311.707388 218.793578 
L 311.784442 218.845474 
L 312.169712 220.157362 
L 312.709091 222.599068 
L 313.017307 224.034027 
L 313.209942 223.64394 
L 314.250173 220.2555 
L 314.2887 220.27217 
L 314.404281 220.547739 
L 314.596916 221.320666 
L 314.67397 221.259927 
L 314.789551 221.214265 
L 314.828078 221.259203 
L 314.982186 221.737571 
L 315.251876 222.492232 
L 315.675673 223.863554 
L 315.752727 223.76904 
L 315.945362 222.765337 
L 316.215052 222.151141 
L 316.36916 222.005747 
L 316.523268 222.097506 
L 316.715903 222.623566 
L 316.75443 222.741419 
L 316.792957 222.71982 
L 317.02412 222.109683 
L 317.062647 222.137515 
L 317.139701 221.874703 
L 317.40939 220.500337 
L 317.524971 220.643992 
L 317.640552 220.852735 
L 317.679079 220.781269 
L 317.833188 220.573252 
L 317.948769 220.855054 
L 318.642255 223.336334 
L 319.143107 223.944442 
L 319.181634 223.87718 
L 319.335742 223.073087 
L 319.875121 220.115903 
L 320.183337 219.189319 
L 320.375972 218.414942 
L 320.645662 217.332816 
L 320.684189 217.372825 
L 320.761243 217.525033 
L 320.79977 217.44574 
L 320.876824 217.390365 
L 320.915351 217.456032 
L 321.18504 218.413058 
L 322.032635 222.475852 
L 322.148216 222.391195 
L 322.186743 222.4457 
L 322.379379 223.22631 
L 322.49496 223.58813 
L 322.533487 223.531596 
L 322.687595 223.335175 
L 322.726122 223.367646 
L 322.88023 223.780492 
L 323.226974 224.815796 
L 323.381082 224.56487 
L 323.766352 223.804845 
L 323.881933 223.572909 
L 324.113096 222.886813 
L 324.228677 223.014523 
L 324.613947 223.773824 
L 324.691001 223.579142 
L 324.999217 222.0114 
L 325.037745 222.038363 
L 325.191853 222.478171 
L 325.500069 223.988509 
L 325.538596 223.758603 
L 325.923867 221.280947 
L 326.232083 218.821555 
L 326.578826 216.461172 
L 326.694407 216.35941 
L 326.848516 216.736596 
L 327.31084 217.892072 
L 327.349367 217.843075 
L 327.580529 217.197568 
L 327.619056 217.259611 
L 327.69611 217.448059 
L 327.773165 217.406456 
L 327.927273 217.234968 
L 327.9658 217.279181 
L 328.235489 218.182282 
L 329.545409 223.780927 
L 329.892152 224.590528 
L 330.778274 227.870828 
L 330.816801 227.77472 
L 331.08649 226.385713 
L 331.510288 222.969151 
L 332.12672 220.953192 
L 332.39641 220.937246 
L 332.627572 220.131269 
L 332.704626 220.157796 
L 332.820207 220.083287 
L 333.128423 219.449667 
L 333.359586 219.086832 
L 333.43664 219.019716 
L 333.475167 219.063348 
L 333.552221 219.153079 
L 333.590748 219.07654 
L 333.82191 218.326372 
L 333.860437 218.357103 
L 334.399816 219.093935 
L 334.669505 219.396322 
L 334.746559 219.263393 
L 335.054776 217.844525 
L 335.093303 217.853077 
L 335.208884 217.492562 
L 335.555627 215.461092 
L 335.594154 215.487185 
L 335.786789 216.054704 
L 336.056479 217.48082 
L 336.249114 218.687757 
L 336.287641 218.587735 
L 336.441749 217.104649 
L 336.749965 214.125286 
L 336.904074 213.731865 
L 337.019655 214.006274 
L 337.559033 216.236628 
L 337.636087 215.891334 
L 337.905777 214.476814 
L 337.944304 214.542771 
L 338.291047 216.041222 
L 338.522209 216.955775 
L 338.637791 217.121029 
L 338.676318 217.058987 
L 338.90748 216.01455 
L 338.984534 216.090944 
L 339.138642 216.23054 
L 339.29275 216.341145 
L 339.485386 216.392171 
L 339.716548 215.400209 
L 339.793602 215.485156 
L 339.94771 216.206912 
L 340.718251 220.716327 
L 340.949413 220.852155 
L 341.142048 221.134247 
L 341.334684 221.3398 
L 341.450265 221.445186 
L 341.488792 221.402568 
L 341.565846 221.277033 
L 341.835535 220.294494 
L 341.874062 220.316528 
L 342.02817 220.74126 
L 342.143751 221.067276 
L 342.182278 221.053649 
L 342.68313 219.983989 
L 342.798711 220.166784 
L 343.029873 221.263116 
L 343.415144 223.09976 
L 343.877468 224.356708 
L 343.915995 224.325976 
L 344.147158 223.284874 
L 344.37832 221.922395 
L 344.455374 221.932252 
L 344.609482 222.378294 
L 345.341496 225.125576 
L 345.495604 225.162396 
L 345.880875 224.170579 
L 346.535834 221.63204 
L 346.805524 221.251665 
L 346.844051 221.295443 
L 346.998159 221.793525 
L 347.383429 223.903708 
L 347.460483 223.552615 
L 347.730173 221.986177 
L 347.922808 221.863686 
L 348.076916 222.17303 
L 348.15397 222.397573 
L 348.231024 222.313642 
L 348.539241 222.247685 
L 348.731876 222.780558 
L 348.80893 222.661111 
L 348.885984 222.720399 
L 349.078619 223.477815 
L 349.84916 227.043541 
L 349.926214 226.883506 
L 350.23443 225.893574 
L 350.350012 225.947354 
L 350.581174 226.486025 
L 350.812336 226.890174 
L 351.082025 227.147043 
L 351.120552 227.092393 
L 351.274661 226.806387 
L 351.891093 223.679165 
L 351.92962 223.701924 
L 352.006674 223.578128 
L 352.237837 223.06091 
L 352.353418 223.174704 
L 352.391945 223.08164 
L 352.661634 222.618492 
L 352.738688 222.60849 
L 352.777215 222.665604 
L 353.085432 223.375184 
L 353.123959 223.33242 
L 353.393648 222.763742 
L 353.432175 222.806071 
L 353.62481 223.408669 
L 354.010081 224.334529 
L 354.202716 224.319163 
L 354.356824 224.329455 
L 354.626513 224.699973 
L 354.66504 224.667502 
L 354.780621 224.376132 
L 355.088838 222.02981 
L 355.628216 217.949331 
L 355.666743 217.963392 
L 355.936433 218.437991 
L 356.013487 218.336664 
L 356.090541 218.42219 
L 356.475811 219.403135 
L 356.514338 219.36414 
L 356.938136 218.756468 
L 356.976663 218.793433 
L 357.246352 219.253101 
L 357.284879 219.210048 
L 357.593096 218.743422 
L 357.824258 218.009054 
L 357.862785 218.02645 
L 358.132474 218.555554 
L 358.209528 218.73342 
L 358.594799 216.878946 
L 358.671853 216.925768 
L 359.172704 218.691381 
L 359.365339 219.631592 
L 359.403867 219.599556 
L 359.519448 219.522582 
L 359.635029 219.81946 
L 360.13588 222.243626 
L 360.212934 222.604866 
L 360.251461 222.577324 
L 360.40557 222.392355 
L 360.444097 222.416128 
L 360.752313 222.642846 
L 360.867894 222.307843 
L 361.17611 220.519182 
L 361.4458 219.828592 
L 361.484327 219.847147 
L 361.599908 220.124746 
L 361.946651 221.663641 
L 362.023705 221.582028 
L 362.370449 219.437055 
L 362.717192 215.72521 
L 362.8713 215.242348 
L 362.986881 215.520526 
L 363.449206 217.597803 
L 363.487733 217.528077 
L 363.795949 217.231779 
L 363.91153 217.48198 
L 364.142693 218.925926 
L 364.682071 222.525573 
L 364.797652 222.318715 
L 365.182923 221.296892 
L 365.259977 221.211366 
L 365.375558 221.064376 
L 365.414085 221.095833 
L 365.568193 221.55811 
L 365.837883 222.352491 
L 366.069045 223.286758 
L 366.146099 223.463609 
L 366.184626 223.432733 
L 366.26168 223.146147 
L 366.685478 221.140915 
L 366.839586 220.875059 
L 366.878113 220.900861 
L 367.032221 221.310953 
L 367.147802 221.694807 
L 367.186329 221.61218 
L 367.456018 219.880633 
L 367.725708 217.930921 
L 367.995397 217.037098 
L 368.072451 216.995494 
L 368.496249 215.65215 
L 368.534776 215.679547 
L 368.650357 216.059342 
L 369.189735 218.379427 
L 369.228262 218.410449 
L 369.266789 218.308542 
L 369.536479 217.291502 
L 369.613533 217.283385 
L 369.806168 217.097256 
L 370.075857 217.107113 
L 370.384074 218.403346 
L 370.846398 220.946379 
L 370.923452 220.733723 
L 371.193142 219.962825 
L 371.231669 220.008053 
L 371.462831 220.602244 
L 371.539885 220.489755 
L 371.73252 219.735818 
L 372.002209 218.450458 
L 372.117791 217.912076 
L 372.464534 215.679982 
L 372.503061 215.695493 
L 372.618642 215.866111 
L 372.811277 216.740799 
L 373.003913 218.015723 
L 373.04244 217.929616 
L 373.350656 216.095148 
L 373.466237 216.366513 
L 373.581818 216.984187 
L 373.581818 216.984187 
" style="fill:none;stroke:#000000;stroke-linecap:square;stroke-width:1.5;"/>
   </g>
   <g id="line2d_19">
    <path clip-path="url(#pd5de011976)" d="M 69.218182 226.768987 
L 69.333763 226.766958 
L 69.719033 226.101881 
L 69.911669 226.081442 
L 70.142831 225.654245 
L 70.41252 225.921841 
L 70.451047 225.848926 
L 70.874845 224.542112 
L 71.106007 224.47717 
L 71.221588 224.141152 
L 71.414223 222.48397 
L 71.645386 221.367053 
L 71.760967 221.338786 
L 71.915075 221.750762 
L 72.146237 222.767946 
L 72.184764 222.664735 
L 72.454453 221.566083 
L 72.570035 221.520131 
L 72.724143 221.569272 
L 73.109413 221.314432 
L 73.417629 220.591227 
L 73.533211 220.435105 
L 73.725846 219.937602 
L 73.841427 220.243613 
L 74.650495 223.560153 
L 75.189873 226.197845 
L 75.652198 228.439796 
L 75.690725 228.383987 
L 75.88336 227.103845 
L 76.153049 226.133772 
L 76.307158 225.94373 
L 76.345685 225.964894 
L 76.499793 226.261917 
L 76.576847 226.41427 
L 76.615374 226.367303 
L 76.769482 226.23394 
L 77.000644 226.531978 
L 77.039171 226.436594 
L 77.154753 225.668886 
L 77.424442 224.168405 
L 77.540023 224.048668 
L 77.848239 222.412649 
L 78.079402 221.574491 
L 78.23351 221.52129 
L 78.580253 222.048075 
L 78.811415 222.987271 
L 78.965524 223.590739 
L 79.004051 223.580447 
L 79.235213 223.231963 
L 80.391024 213.831742 
L 80.506605 214.029902 
L 80.699241 215.097968 
L 81.123038 217.543878 
L 81.315673 217.261931 
L 81.662417 216.586852 
L 81.700944 216.638313 
L 82.201795 218.191124 
L 82.471484 219.113795 
L 82.587066 219.073641 
L 82.702647 219.389364 
L 82.972336 221.105545 
L 83.550242 224.816376 
L 84.474891 228.224676 
L 84.513418 228.092907 
L 84.783107 226.52357 
L 84.975742 224.082588 
L 85.283959 220.635005 
L 85.553648 218.985795 
L 85.78481 217.581857 
L 85.861864 217.565332 
L 86.285662 218.428569 
L 86.593878 219.036531 
L 86.863567 219.504752 
L 86.902094 219.461988 
L 87.09473 218.366381 
L 87.248838 217.170751 
L 87.441473 216.087465 
L 87.518527 216.155016 
L 87.749689 216.64759 
L 87.788216 216.615554 
L 87.942325 216.306209 
L 87.980852 216.329403 
L 88.096433 216.691658 
L 88.366122 218.60339 
L 88.712865 220.728649 
L 88.866974 220.772427 
L 89.059609 220.647616 
L 89.098136 220.689655 
L 89.252244 221.135842 
L 89.56046 222.797228 
L 89.637514 222.622261 
L 89.984258 221.791641 
L 90.061312 221.886879 
L 90.099839 221.784828 
L 90.408055 220.681102 
L 90.485109 220.690959 
L 90.639217 221.165558 
L 91.178596 223.377068 
L 91.371231 223.412873 
L 91.448285 223.570155 
L 91.525339 223.515795 
L 91.795029 223.29705 
L 92.180299 221.54144 
L 92.29588 221.70278 
L 92.681151 222.97205 
L 92.758205 222.837527 
L 92.873786 222.487304 
L 93.066421 220.518167 
L 93.374638 218.330866 
L 93.451692 218.328691 
L 93.528746 218.42422 
L 93.567273 218.342317 
L 93.721381 218.139228 
L 93.836962 218.42219 
L 94.106651 220.056035 
L 94.376341 221.665815 
L 94.414868 221.660162 
L 94.530449 221.659002 
L 94.684557 221.164109 
L 94.723084 221.182084 
L 94.877192 221.691763 
L 95.069827 222.323644 
L 95.108354 222.291608 
L 95.30099 221.457508 
L 95.647733 220.249991 
L 95.763314 220.056759 
L 95.801841 220.084882 
L 96.033003 220.331169 
L 96.302693 221.499546 
L 96.456801 221.317187 
L 96.533855 221.317332 
L 96.649436 220.799244 
L 96.880598 219.990223 
L 96.957652 219.979496 
L 97.111761 219.751764 
L 97.227342 220.048932 
L 97.497031 221.661612 
L 97.728193 222.632264 
L 97.959356 223.612918 
L 98.151991 224.279734 
L 98.267572 223.952704 
L 98.498734 222.725908 
L 98.845478 220.863752 
L 98.961059 220.892599 
L 99.038113 220.96102 
L 99.07664 220.906805 
L 99.269275 219.05929 
L 99.577491 216.389271 
L 99.847181 215.184944 
L 99.962762 215.305985 
L 100.193924 215.407457 
L 100.232451 215.512118 
L 100.270978 215.455874 
L 100.348032 215.361215 
L 100.386559 215.407167 
L 100.925938 217.04797 
L 101.311208 219.671601 
L 101.696479 221.9582 
L 102.081749 223.449693 
L 102.120276 223.435197 
L 102.312911 223.308502 
L 102.46702 223.589 
L 102.659655 224.179132 
L 102.736709 224.074906 
L 102.890817 223.927481 
L 103.584304 221.734236 
L 103.699885 221.790046 
L 103.89252 222.452948 
L 103.969574 222.830859 
L 104.046628 222.760553 
L 104.277791 222.166072 
L 104.354845 222.301465 
L 104.817169 223.706997 
L 104.855696 223.687428 
L 105.626237 222.342634 
L 105.818872 221.699446 
L 105.934453 221.871369 
L 106.473832 223.771069 
L 106.550886 223.636836 
L 106.743521 223.261535 
L 106.859102 223.408524 
L 107.051738 223.936034 
L 107.090265 223.863989 
L 107.783751 221.213395 
L 107.899333 221.249635 
L 108.091968 221.905144 
L 108.400184 222.772875 
L 108.592819 222.841441 
L 108.785455 223.434907 
L 108.862509 223.773534 
L 108.901036 223.724102 
L 109.401887 222.254498 
L 109.440414 222.297116 
L 109.633049 222.900005 
L 110.519171 226.744779 
L 110.557699 226.679692 
L 110.67328 226.109999 
L 110.942969 224.659674 
L 111.05855 224.628073 
L 111.212658 224.933359 
L 111.44382 225.549149 
L 111.482348 225.465797 
L 111.906145 223.730626 
L 112.329942 221.672194 
L 112.406997 221.63001 
L 112.445524 221.66654 
L 112.599632 222.115916 
L 113.100483 223.833982 
L 113.331646 224.444699 
L 113.447227 224.799851 
L 113.485754 224.760856 
L 113.755443 224.239435 
L 113.832497 224.25799 
L 114.410403 222.310452 
L 114.525984 222.389021 
L 114.718619 223.092947 
L 115.065362 224.406719 
L 115.10389 224.436871 
L 115.335052 222.693437 
L 115.951484 217.244825 
L 116.028539 217.211919 
L 116.14412 217.097256 
L 116.182647 217.150166 
L 116.490863 217.698115 
L 116.722025 217.297591 
L 117.338458 213.712005 
L 117.415512 213.843339 
L 117.608147 214.907925 
L 118.648377 223.076711 
L 118.763959 222.885799 
L 119.187756 221.542889 
L 119.457445 220.953772 
L 119.573026 221.173966 
L 119.842716 222.537315 
L 120.150932 223.987205 
L 120.30504 223.78687 
L 120.382094 223.337349 
L 120.613257 222.166217 
L 120.690311 222.216663 
L 120.882946 222.853618 
L 121.34527 225.123401 
L 121.422325 225.023669 
L 121.769068 223.974158 
L 121.884649 224.128251 
L 122.346974 225.101657 
L 122.385501 225.081508 
L 122.578136 224.591833 
L 123.04046 222.44773 
L 123.579839 221.059303 
L 123.69542 221.312258 
L 123.811001 221.527668 
L 123.849528 221.463161 
L 124.273326 220.12634 
L 124.388907 220.358131 
L 124.543015 220.596156 
L 124.581542 220.583109 
L 124.697123 220.655879 
L 124.889758 221.32139 
L 125.39061 224.45644 
L 125.968516 227.530897 
L 126.353786 228.701594 
L 126.43084 228.502709 
L 126.623475 227.160959 
L 126.893165 225.935757 
L 127.548124 223.51623 
L 127.856341 221.736991 
L 127.933395 221.794975 
L 128.12603 222.493247 
L 128.896571 225.909809 
L 129.204787 226.872924 
L 129.358895 227.408261 
L 129.397422 227.362743 
L 129.975328 224.369899 
L 130.013855 224.378452 
L 130.167963 224.684317 
L 130.399125 225.023669 
L 130.553234 225.063533 
L 130.630288 224.869866 
L 130.977031 223.617267 
L 131.015558 223.646114 
L 131.400829 224.099984 
L 131.670518 223.533625 
L 132.017261 221.238763 
L 132.094315 221.303995 
L 132.286951 222.043291 
L 132.441059 222.4989 
L 132.479586 222.474112 
L 132.595167 221.301386 
L 132.980437 216.689918 
L 133.2116 215.715207 
L 133.327181 215.461527 
L 133.365708 215.485881 
L 133.519816 215.822623 
L 133.750978 217.091603 
L 134.020667 218.16996 
L 134.136249 218.547291 
L 134.174776 218.47974 
L 134.6371 216.009186 
L 134.752681 215.730573 
L 135.022371 214.753688 
L 135.099425 214.823413 
L 135.253533 215.522121 
L 135.523222 217.046375 
L 135.561749 217.029995 
L 135.715857 217.02695 
L 135.869965 217.568521 
L 136.101128 218.609769 
L 136.139655 218.534679 
L 136.255236 218.410014 
L 136.370817 218.763716 
L 136.948723 222.295232 
L 137.256939 223.98619 
L 137.333993 223.894285 
L 137.680736 223.331261 
L 138.181588 223.963576 
L 138.875075 226.187843 
L 138.913602 226.16001 
L 139.183291 225.840808 
L 139.337399 226.051725 
L 139.684143 226.947288 
L 139.72267 226.814215 
L 140.10794 224.713599 
L 140.223521 224.658515 
L 140.377629 224.966265 
L 140.839954 226.756231 
L 141.41786 228.641725 
L 141.880184 229.47771 
L 141.995765 229.331445 
L 142.149873 228.811474 
L 142.612198 225.821384 
L 142.727779 225.850811 
L 142.84336 226.016645 
L 142.881887 225.948804 
L 143.190104 224.154199 
L 143.49832 222.385542 
L 144.654131 219.842219 
L 144.692658 219.881793 
L 144.885293 220.282897 
L 144.92382 220.187803 
L 145.077929 219.873385 
L 145.116456 219.905856 
L 145.347618 220.282027 
L 145.501726 220.372192 
L 145.617307 220.417275 
L 145.771415 220.822293 
L 146.580483 224.602705 
L 147.042808 226.732312 
L 147.505132 227.6473 
L 147.659241 228.029704 
L 147.697768 227.995494 
L 147.813349 227.229525 
L 148.083038 225.275319 
L 148.198619 225.209797 
L 148.352727 225.500877 
L 148.468308 225.720636 
L 148.776525 224.811592 
L 148.930633 225.088901 
L 149.470012 226.593006 
L 149.62412 225.971997 
L 150.047917 223.36895 
L 150.163498 223.392579 
L 150.356133 223.596393 
L 150.625823 223.499559 
L 150.702877 223.547541 
L 150.818458 222.861156 
L 151.203728 220.171713 
L 151.280783 220.018055 
L 151.31931 220.038204 
L 151.588999 220.745754 
L 151.935742 222.485129 
L 152.012796 222.121135 
L 152.205432 221.595945 
L 152.321013 221.744384 
L 152.35954 221.681616 
L 152.475121 221.598844 
L 152.590702 221.887459 
L 152.898918 223.087003 
L 152.937445 223.020612 
L 153.168608 222.3738 
L 153.207135 222.389021 
L 153.900621 223.420991 
L 154.208838 224.816086 
L 154.362946 225.466956 
L 154.401473 225.330549 
L 154.863797 222.769831 
L 155.249068 221.040603 
L 155.441703 220.205633 
L 155.518757 220.178526 
L 155.749919 219.861353 
L 155.826974 219.969204 
L 155.865501 219.903827 
L 156.173717 219.07683 
L 156.250771 219.151629 
L 156.404879 219.295429 
L 156.52046 219.490836 
L 156.751623 220.74387 
L 157.098366 222.404821 
L 157.291001 222.782007 
L 157.329528 222.697641 
L 157.907434 219.27383 
L 157.945961 219.289196 
L 158.061542 219.560706 
L 158.331231 221.027701 
L 158.639448 222.441351 
L 159.332934 224.937708 
L 159.52557 224.978731 
L 159.641151 225.028018 
L 159.949367 224.100998 
L 160.026421 224.159852 
L 160.142002 224.299304 
L 160.5658 222.328862 
L 160.604327 222.356115 
L 160.758435 222.487449 
L 161.143705 221.346034 
L 161.220759 221.473453 
L 161.259287 221.551732 
L 161.297814 221.512448 
L 161.374868 221.4304 
L 161.413395 221.459392 
L 161.567503 221.968927 
L 161.760138 222.399023 
L 161.914246 222.84347 
L 162.068354 223.218192 
L 162.106881 223.195868 
L 162.26099 223.033078 
L 162.64626 220.695743 
L 162.684787 220.717052 
L 163.108585 221.606672 
L 163.185639 221.45084 
L 163.378274 220.186064 
L 163.725017 217.943677 
L 164.071761 218.100669 
L 164.880829 219.74611 
L 164.919356 219.687111 
L 165.458734 216.764573 
L 165.574315 216.81183 
L 165.689896 216.93838 
L 165.882532 217.768856 
L 166.344856 220.5244 
L 166.730127 222.647484 
L 166.922762 222.553695 
L 167.07687 222.621102 
L 167.924465 220.201864 
L 168.194154 220.23738 
L 168.309735 220.449746 
L 168.540898 221.550572 
L 168.810587 223.102659 
L 168.887641 223.039601 
L 169.234384 222.791575 
L 169.388493 223.111356 
L 169.619655 223.994163 
L 169.735236 223.941977 
L 169.850817 223.812238 
L 169.966398 223.724972 
L 170.004925 223.755704 
L 170.19756 224.129411 
L 170.274614 223.996917 
L 170.390196 224.028084 
L 170.505777 224.29597 
L 170.582831 224.195367 
L 170.698412 224.116509 
L 170.891047 224.182321 
L 171.006628 224.271181 
L 171.314845 224.654021 
L 171.430426 224.365695 
L 171.89275 222.567756 
L 172.008331 222.682855 
L 172.239494 223.505213 
L 172.778872 225.581185 
L 173.010035 226.05274 
L 173.048562 226.002729 
L 173.356778 225.132824 
L 173.510886 225.374617 
L 173.819102 226.366143 
L 173.896157 226.25264 
L 174.050265 225.521316 
L 174.319954 223.784116 
L 174.62817 223.403016 
L 174.705224 223.515795 
L 175.051968 224.031563 
L 175.244603 224.399326 
L 175.360184 224.359897 
L 175.552819 224.230303 
L 175.629873 224.145356 
L 175.899563 223.02525 
L 175.976617 223.051198 
L 176.015144 223.004956 
L 176.169252 222.951611 
L 176.32336 222.90044 
L 176.593049 222.326108 
L 176.939793 220.015736 
L 177.055374 219.889331 
L 177.093901 219.931804 
L 177.286536 220.23738 
L 177.325063 220.18302 
L 177.479171 219.690735 
L 177.710334 218.651517 
L 177.825915 218.91462 
L 178.095604 220.588328 
L 178.866145 225.83559 
L 179.174361 225.775286 
L 179.405524 226.257568 
L 179.444051 226.36194 
L 179.482578 226.347444 
L 179.71374 225.99809 
L 179.867848 226.266121 
L 180.522808 228.320204 
L 180.715443 228.768276 
L 180.75397 228.713046 
L 180.831024 228.309042 
L 181.177768 225.897923 
L 181.293349 225.758761 
L 181.331876 225.777896 
L 181.485984 226.063032 
L 181.832727 226.890899 
L 181.871254 226.8477 
L 181.986835 226.008237 
L 182.256525 224.272051 
L 182.487687 223.96952 
L 182.603268 222.148387 
L 182.872957 218.969124 
L 183.027066 218.595273 
L 183.065593 218.618466 
L 183.258228 219.154093 
L 183.759079 220.511644 
L 184.182877 222.23029 
L 184.221404 222.208111 
L 184.568147 222.113887 
L 184.760783 222.795489 
L 185.300161 225.05701 
L 185.415742 224.321772 
L 185.685432 222.473388 
L 185.801013 222.42874 
L 185.993648 222.912036 
L 186.109229 223.208045 
L 186.147756 223.175864 
L 186.417445 222.349302 
L 186.494499 222.420477 
L 186.725662 223.193984 
L 186.956824 223.675831 
L 187.110932 223.835577 
L 187.342094 224.51341 
L 187.688838 225.430861 
L 187.92 225.775576 
L 187.958527 225.67019 
L 188.343797 222.618203 
L 188.613487 221.275728 
L 188.767595 221.043502 
L 188.96023 221.167733 
L 188.998757 221.101196 
L 189.152865 220.997405 
L 189.769298 221.210931 
L 190.077514 220.387848 
L 190.154568 220.522371 
L 190.27015 220.803448 
L 190.308677 220.769673 
L 190.424258 220.477143 
L 190.578366 219.896289 
L 190.616893 219.902957 
L 190.65542 219.959491 
L 190.693947 219.868456 
L 190.886582 219.568389 
L 191.04069 219.318623 
L 191.079217 219.340077 
L 191.194799 219.650871 
L 191.69565 221.560429 
L 191.811231 221.3211 
L 192.003867 221.102211 
L 192.157975 220.920141 
L 192.620299 219.867297 
L 192.73588 219.335583 
L 193.00557 218.135894 
L 193.082624 218.184456 
L 193.236732 218.708196 
L 193.352313 219.107706 
L 193.39084 219.082048 
L 193.467894 219.156123 
L 193.622002 219.816851 
L 194.315489 224.209573 
L 194.392543 223.855436 
L 194.623705 223.049748 
L 194.739287 223.196593 
L 195.08603 224.226244 
L 195.201611 224.156083 
L 195.355719 224.232767 
L 195.509827 224.440785 
L 195.548354 224.414547 
L 195.663936 223.593348 
L 195.972152 221.675528 
L 196.280368 220.645877 
L 196.357422 220.623698 
L 196.395949 220.678493 
L 196.550058 221.242532 
L 196.78122 221.881806 
L 196.858274 221.797729 
L 197.127963 220.54194 
L 197.205017 220.603983 
L 197.397652 221.308054 
L 197.82145 222.982487 
L 198.168193 223.125563 
L 198.630518 223.947051 
L 198.823153 223.989089 
L 199.015788 224.42252 
L 199.324005 225.12746 
L 199.401059 225.110645 
L 199.593694 224.858994 
L 199.632221 224.878854 
L 199.786329 225.172833 
L 200.248654 226.208572 
L 200.518343 226.402093 
L 200.633924 226.339036 
L 200.903613 225.839504 
L 201.057722 226.021284 
L 201.288884 226.477328 
L 201.365938 226.429056 
L 201.442992 226.377015 
L 201.5971 225.5074 
L 201.982371 222.97321 
L 202.097952 223.055112 
L 202.290587 223.71497 
L 202.560276 224.853196 
L 202.598803 224.78521 
L 202.829965 224.194788 
L 202.945547 224.369319 
L 203.215236 225.387518 
L 203.369344 225.943005 
L 203.407871 225.88821 
L 203.561979 225.822688 
L 203.639033 225.875889 
L 204.024304 224.520368 
L 204.255466 223.526087 
L 204.563682 221.514332 
L 204.756318 220.709804 
L 204.833372 220.754307 
L 204.948953 221.067276 
L 205.026007 220.92536 
L 205.295696 219.917888 
L 205.334223 219.959926 
L 205.758021 221.159615 
L 206.220345 223.739323 
L 206.258872 223.684528 
L 206.41298 222.993794 
L 206.836778 221.200639 
L 206.990886 221.080177 
L 207.222048 220.76286 
L 207.299102 220.689655 
L 207.491738 220.274344 
L 207.530265 220.298553 
L 207.838481 220.802144 
L 208.185224 219.58158 
L 208.300806 219.801485 
L 208.531968 220.974791 
L 208.878711 222.555435 
L 208.994292 222.669663 
L 209.032819 222.640671 
L 209.186928 222.408445 
L 209.379563 221.359515 
L 209.649252 220.187803 
L 209.726306 220.212156 
L 210.073049 221.012191 
L 210.419793 222.897251 
L 210.535374 222.612114 
L 210.766536 221.852234 
L 210.882117 221.820488 
L 211.036226 221.753226 
L 211.575604 222.417723 
L 211.88382 223.594798 
L 211.960875 223.49579 
L 212.230564 222.877681 
L 212.269091 222.901454 
L 212.423199 223.260665 
L 213.039632 225.129055 
L 213.19374 225.238355 
L 213.424902 225.804278 
L 213.887227 226.945259 
L 213.964281 226.912932 
L 214.272497 225.473045 
L 214.542186 223.378373 
L 214.657768 223.316475 
L 214.811876 223.697575 
L 214.965984 224.228853 
L 215.004511 224.082299 
L 215.428308 221.909493 
L 215.54389 222.041262 
L 215.736525 222.189991 
L 215.92916 221.561154 
L 216.160322 220.79591 
L 216.275903 221.003928 
L 217.277606 224.167825 
L 217.701404 224.794197 
L 217.739931 224.746795 
L 217.932566 224.495145 
L 217.971093 224.517034 
L 218.163728 224.731429 
L 218.356364 222.916385 
L 218.548999 222.037928 
L 218.66458 222.10113 
L 218.857215 222.779833 
L 219.396594 224.914079 
L 219.627756 225.620469 
L 219.897445 226.527339 
L 219.935972 226.512118 
L 220.552405 225.575532 
L 220.74504 225.278074 
L 220.899148 224.545881 
L 221.130311 223.863264 
L 221.284419 223.753674 
L 221.438527 223.031773 
L 221.669689 222.383512 
L 221.746743 222.306684 
L 221.900852 221.262682 
L 222.555811 214.560746 
L 222.632865 214.647867 
L 222.825501 215.626492 
L 223.287825 217.492707 
L 223.557514 217.730151 
L 223.634568 217.396598 
L 223.865731 216.19662 
L 224.058366 216.102396 
L 224.636272 212.981697 
L 224.828907 212.687138 
L 224.867434 212.710042 
L 224.983015 212.958793 
L 225.252704 213.565161 
L 225.368285 213.714759 
L 225.406812 213.658515 
L 225.637975 212.571315 
L 225.83061 211.815783 
L 225.907664 211.926533 
L 226.138826 212.433023 
L 226.331461 212.565372 
L 226.524097 212.872687 
L 226.716732 212.601322 
L 226.755259 212.642345 
L 226.909367 213.221171 
L 227.294638 214.883137 
L 227.410219 214.58191 
L 227.5258 213.829713 
L 228.180759 207.039641 
L 228.56603 205.170237 
L 228.681611 205.061662 
L 228.720138 205.08819 
L 228.912773 205.290989 
L 229.644787 203.047878 
L 229.99153 199.25355 
L 230.453855 193.170303 
L 230.569436 192.91097 
L 230.607963 192.958662 
L 230.762071 193.625043 
L 231.455558 197.537513 
L 231.725247 198.937392 
L 231.840829 199.370822 
L 231.879356 199.298632 
L 232.303153 197.444594 
L 232.34168 197.469962 
L 232.534315 197.565201 
L 232.688423 198.188529 
L 233.343383 201.55392 
L 233.536018 202.101144 
L 233.6516 202.171015 
L 233.805708 202.741867 
L 234.075397 204.911339 
L 234.499194 208.209179 
L 234.576249 207.96782 
L 235.038573 204.205383 
L 235.346789 202.328586 
L 235.500898 202.015473 
L 235.770587 202.163042 
L 235.847641 201.966041 
L 236.38702 199.458523 
L 236.464074 199.437649 
L 236.502601 199.496648 
L 236.695236 199.740325 
L 236.810817 199.862382 
L 236.926398 200.003573 
L 236.964925 199.944864 
L 237.080506 199.342845 
L 237.465777 197.349645 
L 237.619885 196.940278 
L 237.735466 197.195118 
L 238.120736 199.030891 
L 238.544534 202.322643 
L 238.621588 202.161302 
L 239.006858 200.316976 
L 239.276548 198.888685 
L 239.430656 198.45627 
L 239.700345 197.301663 
L 239.738872 197.309491 
L 239.931507 197.614197 
L 240.047089 197.920643 
L 240.124143 197.821345 
L 240.856157 195.770016 
L 241.2029 191.250888 
L 241.85786 180.93394 
L 242.397238 175.154095 
L 242.782509 164.916295 
L 242.89809 156.330604 
L 242.936617 146.623068 
L 242.975144 54.784674 
L 243.013671 112.701123 
L 243.167779 194.317082 
L 243.206306 195.018833 
L 243.244833 194.497992 
L 243.475995 191.671707 
L 243.591577 191.537329 
L 243.899793 191.929011 
L 244.130955 193.20089 
L 244.477699 195.207136 
L 244.670334 195.251204 
L 244.785915 194.635704 
L 245.094131 192.868207 
L 245.209712 192.888936 
L 245.325293 193.068976 
L 245.517929 194.069055 
L 245.594983 194.370862 
L 245.63351 194.354192 
L 245.826145 193.882927 
L 245.903199 193.765074 
L 245.941726 193.788703 
L 246.095834 193.948304 
L 246.134361 193.919747 
L 246.442578 193.79972 
L 247.251646 189.34191 
L 247.3287 189.388007 
L 247.983659 191.320034 
L 248.484511 193.594891 
L 248.677146 193.949028 
L 248.792727 193.612286 
L 249.216525 191.050263 
L 249.563268 187.992767 
L 249.755903 187.462793 
L 250.102647 184.966292 
L 250.372336 183.276348 
L 250.526444 182.339472 
L 250.796133 178.422363 
L 251.374039 166.080034 
L 251.48962 158.679536 
L 251.528147 152.285495 
L 251.605201 77.187952 
L 251.75931 193.070281 
L 251.797837 194.991001 
L 251.874891 194.099497 
L 252.067526 192.456375 
L 252.452796 191.743462 
L 252.568377 190.361848 
L 253.83977 166.47505 
L 253.955351 158.757234 
L 253.993878 152.111833 
L 254.070932 79.218987 
L 254.22504 193.90728 
L 254.263567 195.624911 
L 254.340621 194.270405 
L 254.610311 189.639223 
L 254.995581 186.770754 
L 255.188216 186.560272 
L 255.303797 186.738718 
L 255.612014 187.991752 
L 255.997284 189.255514 
L 256.151392 189.513977 
L 256.652244 191.435857 
L 257.268677 195.004047 
L 257.345731 194.808061 
L 257.576893 194.053255 
L 257.769528 194.357236 
L 258.231853 195.689853 
L 258.27038 195.597948 
L 258.65565 194.300556 
L 258.694177 194.355206 
L 258.848285 195.022892 
L 259.079448 195.90164 
L 259.349137 196.645429 
L 259.426191 196.474377 
L 259.657353 195.848439 
L 259.811461 196.19156 
L 260.004097 197.143802 
L 260.312313 200.03155 
L 261.314016 210.642477 
L 262.123084 215.35991 
L 262.200138 215.131164 
L 262.778044 212.284874 
L 262.855098 212.230949 
L 262.893625 212.267479 
L 263.047733 212.836012 
L 263.664166 216.434499 
L 263.702693 216.209666 
L 263.933855 215.047377 
L 264.12649 214.704256 
L 264.165017 214.730639 
L 264.704396 215.666646 
L 264.78145 215.589382 
L 264.897031 215.629971 
L 265.128193 215.740285 
L 265.320829 216.728623 
L 265.860207 220.006168 
L 266.014315 219.840914 
L 266.052842 219.875559 
L 266.129896 219.910205 
L 266.515167 218.711965 
L 266.553694 218.730665 
L 266.630748 218.812568 
L 266.669275 218.729071 
L 266.823383 217.581277 
L 267.016018 216.57569 
L 267.093072 216.627296 
L 267.247181 217.203077 
L 267.632451 219.931804 
L 267.940667 221.589856 
L 267.979194 221.660597 
L 268.017722 221.638853 
L 268.094776 221.226152 
L 268.364465 219.469381 
L 268.441519 219.135539 
L 268.672681 217.978323 
L 268.865316 217.688838 
L 268.903843 217.721744 
L 268.942371 217.783352 
L 268.980898 217.750446 
L 269.096479 217.610414 
L 269.135006 217.66434 
L 269.21206 217.693476 
L 269.250587 217.666079 
L 269.558803 217.659411 
L 269.789965 217.280196 
L 269.905547 217.554025 
L 270.175236 219.138728 
L 270.406398 220.224188 
L 270.483452 220.314498 
L 270.521979 220.259703 
L 270.945777 218.298105 
L 271.061358 218.558453 
L 271.870426 221.838608 
L 271.94748 221.731337 
L 272.255696 220.854184 
L 272.563913 219.142207 
L 273.026237 217.287588 
L 273.141818 217.00999 
L 273.411507 215.86727 
L 273.64267 214.6167 
L 273.719724 214.684832 
L 273.873832 215.321351 
L 274.02794 216.107179 
L 274.066467 216.091958 
L 274.182048 215.676648 
L 274.490265 214.219945 
L 274.605846 213.881463 
L 275.106697 211.21275 
L 275.145224 211.242901 
L 275.33786 211.371336 
L 275.453441 211.201733 
L 275.491968 211.238698 
L 275.646076 211.851878 
L 275.992819 213.280314 
L 276.069873 213.216387 
L 276.339563 212.398812 
L 276.416617 212.579143 
L 276.570725 212.873412 
L 276.955995 211.674447 
L 277.071577 211.921894 
L 277.379793 212.904868 
L 277.456847 212.719029 
L 277.572428 212.521884 
L 277.610955 212.585811 
L 277.80359 213.54907 
L 277.996226 213.865953 
L 278.07328 213.89393 
L 278.111807 213.821885 
L 278.265915 213.548925 
L 278.304442 213.5669 
L 278.381496 213.663588 
L 278.420023 213.630248 
L 278.497077 213.588644 
L 278.535604 213.633582 
L 278.959402 214.825588 
L 279.190564 216.159075 
L 280.038159 221.888619 
L 280.269321 222.143314 
L 280.423429 222.302045 
L 280.770173 221.397784 
L 280.962808 219.930499 
L 281.271024 217.834812 
L 281.540713 217.177999 
L 281.84893 215.255394 
L 281.925984 215.227127 
L 282.080092 215.319467 
L 282.157146 215.43384 
L 282.580944 217.218153 
L 282.657998 217.521989 
L 282.696525 217.440811 
L 282.812106 217.332091 
L 282.850633 217.366447 
L 283.004741 217.540109 
L 283.197376 218.357828 
L 284.276133 224.388164 
L 284.507296 224.357723 
L 284.661404 224.254801 
L 284.815512 224.52863 
L 285.085201 225.1824 
L 285.123728 225.092815 
L 285.508999 223.906462 
L 285.62458 224.019241 
L 285.778688 224.379032 
L 285.817215 224.294955 
L 285.932796 223.203986 
L 286.356594 219.418211 
L 286.626283 218.006155 
L 286.703337 217.927442 
L 286.741864 217.952085 
L 287.127135 218.785315 
L 287.550932 220.862882 
L 287.627986 220.820119 
L 287.820621 221.022193 
L 288.013257 221.30588 
L 288.051784 221.198319 
L 288.244419 220.508165 
L 288.282946 220.521356 
L 288.437054 220.773442 
L 288.475581 220.74213 
L 288.591162 220.349289 
L 288.860852 219.27499 
L 289.053487 219.252521 
L 289.323176 218.501339 
L 289.361703 218.529751 
L 289.515811 218.991593 
L 290.170771 221.673353 
L 290.363406 222.226376 
L 290.787204 223.693371 
L 290.864258 223.597117 
L 290.941312 223.030469 
L 291.288055 219.012468 
L 291.365109 218.907661 
L 291.403636 218.932305 
L 291.557745 219.404149 
L 291.904488 221.5958 
L 292.405339 224.520078 
L 292.482394 224.578642 
L 292.520921 224.533414 
L 292.829137 223.665394 
L 293.561151 219.117274 
L 293.638205 219.197436 
L 293.83084 219.767419 
L 293.907894 219.703347 
L 294.023475 219.747415 
L 294.100529 219.878893 
L 294.139056 219.803514 
L 294.331692 219.23875 
L 294.370219 219.267452 
L 294.524327 219.773363 
L 294.716962 220.255934 
L 294.794016 219.996891 
L 295.025178 218.856201 
L 295.102232 218.901718 
L 295.256341 219.458944 
L 295.641611 222.069239 
L 295.949827 223.632633 
L 296.142463 223.721493 
L 296.373625 223.550005 
L 296.527733 223.831228 
L 296.604787 223.953574 
L 296.643314 223.893996 
L 296.758895 223.775273 
L 296.797422 223.802091 
L 296.95153 224.149415 
L 296.990058 223.993728 
L 297.336801 222.13795 
L 297.452382 222.329442 
L 297.87618 223.886313 
L 297.953234 223.64191 
L 298.222923 222.619507 
L 298.492612 221.580289 
L 298.877883 217.640566 
L 299.109045 216.870394 
L 299.186099 216.986217 
L 300.149275 220.267676 
L 300.264856 218.523372 
L 300.650127 210.339366 
L 301.150978 206.776539 
L 301.189505 206.781757 
L 301.305086 207.106323 
L 301.690357 208.604484 
L 301.805938 208.834681 
L 302.191208 210.737861 
L 302.846168 215.825087 
L 302.884695 215.770147 
L 302.961749 215.74333 
L 303.07733 216.136316 
L 303.385547 218.524097 
L 303.616709 219.673775 
L 303.693763 219.72654 
L 303.73229 219.685227 
L 303.809344 219.329495 
L 304.38725 215.239014 
L 304.541358 214.786159 
L 304.656939 215.061873 
L 304.888101 216.506399 
L 305.774223 223.15325 
L 305.81275 223.092947 
L 305.928331 223.034528 
L 306.08244 223.415048 
L 306.46771 225.099918 
L 306.583291 224.962351 
L 306.698872 225.005114 
L 306.930035 225.596696 
L 307.353832 226.988892 
L 307.430886 226.934676 
L 307.700575 225.063388 
L 308.008792 223.177893 
L 308.355535 222.524703 
L 308.509643 222.150562 
L 308.54817 222.163173 
L 308.702278 222.357709 
L 308.894914 221.204263 
L 309.049022 219.300503 
L 309.318711 215.709554 
L 309.395765 215.532993 
L 309.434292 215.546329 
L 309.665455 215.791891 
L 309.85809 215.763624 
L 310.281887 213.597197 
L 310.320414 213.657065 
L 310.474522 214.350119 
L 310.821266 217.342093 
L 311.206536 220.157796 
L 311.28359 220.534982 
L 311.322117 220.423218 
L 311.514753 218.78662 
L 311.707388 217.606356 
L 311.784442 217.659411 
L 312.169712 218.988114 
L 312.709091 221.486935 
L 313.017307 222.993069 
L 313.209942 222.6456 
L 314.250173 219.278324 
L 314.327227 219.345441 
L 314.519862 220.079518 
L 314.596916 220.32566 
L 314.635443 220.30928 
L 314.789551 220.214766 
L 314.905132 220.441628 
L 315.675673 222.909282 
L 315.7142 222.894206 
L 315.829781 222.491363 
L 316.060944 221.53941 
L 316.137998 221.48563 
L 316.36916 221.064086 
L 316.523268 221.150483 
L 316.715903 221.671469 
L 316.75443 221.789466 
L 316.792957 221.768882 
L 317.02412 221.157731 
L 317.062647 221.185128 
L 317.139701 220.92246 
L 317.40939 219.53012 
L 317.524971 219.663918 
L 317.640552 219.864977 
L 317.679079 219.791917 
L 317.833188 219.575202 
L 317.948769 219.850771 
L 318.680783 222.426276 
L 319.143107 223.032353 
L 319.258688 222.659661 
L 320.029229 218.562802 
L 320.221864 218.074141 
L 320.645662 216.236918 
L 320.684189 216.268375 
L 320.761243 216.405072 
L 320.79977 216.319691 
L 320.876824 216.251414 
L 320.915351 216.310703 
L 321.146513 217.036373 
L 322.032635 221.351977 
L 322.071162 221.311678 
L 322.148216 221.293413 
L 322.186743 221.355891 
L 322.379379 222.178104 
L 322.49496 222.567901 
L 322.533487 222.520789 
L 322.687595 222.35539 
L 322.803176 222.565727 
L 323.226974 223.928061 
L 323.304028 223.853552 
L 323.881933 222.71982 
L 324.113096 222.022707 
L 324.228677 222.144473 
L 324.613947 222.900585 
L 324.691001 222.705324 
L 324.999217 221.117432 
L 325.037745 221.14106 
L 325.191853 221.571446 
L 325.500069 223.086568 
L 325.538596 222.859996 
L 325.962394 220.133878 
L 326.694407 215.281777 
L 326.732934 215.327729 
L 327.31084 216.694702 
L 327.349367 216.640922 
L 327.580529 215.95961 
L 327.619056 216.01542 
L 327.69611 216.19314 
L 327.773165 216.143564 
L 327.927273 215.956856 
L 327.9658 215.99701 
L 328.235489 216.880396 
L 329.66099 222.916385 
L 329.930679 223.732075 
L 330.778274 227.095582 
L 330.816801 227.008026 
L 331.08649 225.652215 
L 331.510288 222.188831 
L 332.12672 220.060383 
L 332.39641 220.002834 
L 332.704626 219.180041 
L 332.820207 219.091616 
L 333.128423 218.421611 
L 333.359586 218.029639 
L 333.43664 217.953825 
L 333.475167 217.993109 
L 333.552221 218.075011 
L 333.590748 217.995138 
L 333.82191 217.214529 
L 333.860437 217.239897 
L 334.361289 217.821766 
L 334.592451 218.155029 
L 334.708032 218.203156 
L 334.823613 217.567506 
L 335.054776 216.639037 
L 335.13183 216.583808 
L 335.247411 216.003968 
L 335.555627 214.180661 
L 335.632681 214.264593 
L 335.902371 215.209442 
L 336.249114 217.314261 
L 336.326168 216.978969 
L 336.904074 212.262695 
L 336.942601 212.296326 
L 337.096709 212.881674 
L 337.520506 214.565095 
L 337.559033 214.65526 
L 337.59756 214.567124 
L 337.905777 212.873267 
L 337.944304 212.93473 
L 338.291047 214.411582 
L 338.522209 215.333093 
L 338.637791 215.503711 
L 338.676318 215.444857 
L 338.90748 214.418975 
L 338.984534 214.498268 
L 339.138642 214.645982 
L 339.29275 214.766589 
L 339.485386 214.826458 
L 339.716548 213.83754 
L 339.793602 213.919878 
L 339.94771 214.639169 
L 340.718251 219.267742 
L 340.98794 219.596656 
L 341.142048 219.822504 
L 341.334684 220.081403 
L 341.450265 220.21636 
L 341.488792 220.183309 
L 341.565846 220.075169 
L 341.835535 219.1309 
L 341.874062 219.156123 
L 342.02817 219.593467 
L 342.182278 219.920497 
L 342.68313 218.854751 
L 342.798711 219.036096 
L 343.029873 220.137937 
L 343.453671 222.142299 
L 343.877468 223.371125 
L 343.954522 223.218192 
L 344.416847 220.965948 
L 344.493901 221.059158 
L 344.686536 221.796569 
L 345.225915 224.047363 
L 345.457077 224.345691 
L 345.572658 224.157678 
L 345.957929 222.9735 
L 346.304672 221.745253 
L 346.805524 220.341171 
L 346.844051 220.3806 
L 346.998159 220.865201 
L 347.383429 222.983502 
L 347.460483 222.640526 
L 347.730173 221.074234 
L 347.922808 220.943045 
L 348.076916 221.246011 
L 348.15397 221.469395 
L 348.231024 221.385753 
L 348.539241 221.319071 
L 348.731876 221.857163 
L 348.80893 221.741774 
L 348.885984 221.804397 
L 349.078619 222.574135 
L 349.84916 226.272354 
L 349.926214 226.12377 
L 350.23443 225.150219 
L 350.350012 225.205884 
L 350.581174 225.751948 
L 350.812336 226.169433 
L 351.082025 226.442102 
L 351.120552 226.389627 
L 351.274661 226.108984 
L 351.54435 224.00373 
L 351.814039 222.977558 
L 352.083728 222.539634 
L 352.237837 222.26537 
L 352.276364 222.28407 
L 352.353418 222.366842 
L 352.391945 222.270878 
L 352.700161 221.754966 
L 352.815742 221.912247 
L 353.085432 222.522239 
L 353.201013 222.237103 
L 353.393648 221.896302 
L 353.509229 222.109248 
L 354.048608 223.499124 
L 354.164189 223.508837 
L 354.318297 223.449548 
L 354.472405 223.730626 
L 354.626513 223.871237 
L 354.742094 223.734829 
L 354.973257 222.177959 
L 355.666743 216.9939 
L 355.936433 217.411964 
L 355.97496 217.340209 
L 356.052014 217.305708 
L 356.090541 217.368331 
L 356.475811 218.307237 
L 356.514338 218.265489 
L 356.938136 217.622011 
L 356.976663 217.655932 
L 357.246352 218.100959 
L 357.284879 218.055876 
L 357.593096 217.570695 
L 357.824258 216.815599 
L 357.862785 216.82908 
L 358.132474 217.33586 
L 358.209528 217.509957 
L 358.594799 215.627652 
L 358.671853 215.667226 
L 359.172704 217.419647 
L 359.365339 218.372904 
L 359.403867 218.345362 
L 359.519448 218.279695 
L 359.635029 218.58701 
L 360.13588 221.083946 
L 360.212934 221.462871 
L 360.289988 221.380969 
L 360.40557 221.291529 
L 360.444097 221.322115 
L 360.752313 221.59638 
L 360.867894 221.275003 
L 361.17611 219.490401 
L 361.4458 218.778647 
L 361.484327 218.793143 
L 361.599908 219.060739 
L 361.946651 220.594561 
L 362.023705 220.513963 
L 362.370449 218.348841 
L 362.717192 214.576692 
L 362.8713 214.05759 
L 362.909827 214.089916 
L 363.063936 214.691645 
L 363.410679 216.309398 
L 363.487733 216.246196 
L 363.795949 215.926124 
L 363.91153 216.167338 
L 364.142693 217.608675 
L 364.682071 221.308489 
L 364.797652 221.128884 
L 365.144396 220.14649 
L 365.182923 220.157796 
L 365.259977 220.079518 
L 365.375558 219.941516 
L 365.414085 219.975292 
L 365.568193 220.448441 
L 365.87641 221.382853 
L 366.146099 222.434393 
L 366.223153 222.333936 
L 366.801059 219.880488 
L 366.91664 219.94746 
L 367.147802 220.674724 
L 367.224856 220.411911 
L 367.456018 218.850547 
L 367.725708 216.858362 
L 367.995397 215.913223 
L 368.072451 215.857413 
L 368.496249 214.43579 
L 368.534776 214.454635 
L 368.650357 214.811382 
L 369.189735 217.080586 
L 369.228262 217.111897 
L 369.266789 217.01057 
L 369.536479 215.97773 
L 369.613533 215.963959 
L 369.806168 215.767683 
L 370.075857 215.761305 
L 370.384074 217.04594 
L 370.846398 219.640724 
L 370.923452 219.442709 
L 371.193142 218.707907 
L 371.231669 218.757048 
L 371.462831 219.380521 
L 371.539885 219.279049 
L 371.73252 218.541058 
L 372.002209 217.246565 
L 372.117791 216.66658 
L 372.503061 213.929155 
L 372.618642 213.995982 
L 372.77275 214.534218 
L 373.003913 215.947433 
L 373.04244 215.855819 
L 373.350656 213.988734 
L 373.466237 214.256185 
L 373.581818 214.878643 
L 373.581818 214.878643 
" style="fill:none;stroke:#ff0000;stroke-linecap:square;stroke-width:1.5;"/>
   </g>
   <g id="line2d_20">
    <path clip-path="url(#pd5de011976)" d="M 258.00069 201.264 
L 296.450679 201.264 
L 296.450679 201.264 
" style="fill:none;stroke:#000000;stroke-linecap:square;stroke-width:1.5;"/>
   </g>
   <g id="line2d_21">
    <path clip-path="url(#pd5de011976)" d="M 258.00069 179.52 
L 258.00069 178.0704 
L 258.00069 176.6208 
L 258.00069 175.1712 
L 258.00069 173.7216 
L 258.00069 172.272 
L 258.00069 170.8224 
L 258.00069 169.3728 
L 258.00069 167.9232 
L 258.00069 166.4736 
L 258.00069 165.024 
L 258.00069 163.5744 
L 258.00069 162.1248 
L 258.00069 160.6752 
L 258.00069 159.2256 
L 258.00069 157.776 
L 258.00069 156.3264 
L 258.00069 154.8768 
L 258.00069 153.4272 
L 258.00069 151.9776 
" style="fill:none;stroke:#000000;stroke-linecap:square;stroke-width:1.5;"/>
   </g>
   <g id="patch_3">
    <path d="M 54 252 
L 54 34.56 
" style="fill:none;stroke:#000000;stroke-linecap:square;stroke-linejoin:miter;stroke-width:0.8;"/>
   </g>
   <g id="patch_4">
    <path d="M 54 252 
L 388.8 252 
" style="fill:none;stroke:#000000;stroke-linecap:square;stroke-linejoin:miter;stroke-width:0.8;"/>
   </g>
   <g id="text_20">
    <!-- 500 ms -->
    <g transform="translate(258.00069 199.8144)scale(0.12 -0.12)">
     <use xlink:href="#DejaVuSans-35"/>
     <use x="63.623047" xlink:href="#DejaVuSans-30"/>
     <use x="127.246094" xlink:href="#DejaVuSans-30"/>
     <use x="190.869141" xlink:href="#DejaVuSans-20"/>
     <use x="222.65625" xlink:href="#DejaVuSans-6d"/>
     <use x="320.068359" xlink:href="#DejaVuSans-73"/>
    </g>
   </g>
   <g id="text_21">
    <!-- 20 mV -->
    <g transform="translate(261.853395 150.528)scale(0.12 -0.12)">
     <use xlink:href="#DejaVuSans-32"/>
     <use x="63.623047" xlink:href="#DejaVuSans-30"/>
     <use x="127.246094" xlink:href="#DejaVuSans-20"/>
     <use x="159.033203" xlink:href="#DejaVuSans-6d"/>
     <use x="256.445312" xlink:href="#DejaVuSans-56"/>
    </g>
   </g>
  </g>
 </g>
 <defs>
  <clipPath id="pd5de011976">
   <rect height="217.44" width="334.8" x="54" y="34.56"/>
  </clipPath>
 </defs>
</svg>
