<?xml version="1.0" encoding="utf-8" standalone="no"?>
<!DOCTYPE svg PUBLIC "-//W3C//DTD SVG 1.1//EN"
  "http://www.w3.org/Graphics/SVG/1.1/DTD/svg11.dtd">
<svg height="288pt" version="1.1" viewBox="0 0 432 288" width="432pt" xmlns="http://www.w3.org/2000/svg" xmlns:xlink="http://www.w3.org/1999/xlink">
 <metadata>
  <rdf:RDF xmlns:cc="http://creativecommons.org/ns#" xmlns:dc="http://purl.org/dc/elements/1.1/" xmlns:rdf="http://www.w3.org/1999/02/22-rdf-syntax-ns#">
   <cc:Work>
    <dc:type rdf:resource="http://purl.org/dc/dcmitype/StillImage"/>
    <dc:date>2021-07-20T17:33:30.513233</dc:date>
    <dc:format>image/svg+xml</dc:format>
    <dc:creator>
     <cc:Agent>
      <dc:title>Matplotlib v3.4.1, https://matplotlib.org/</dc:title>
     </cc:Agent>
    </dc:creator>
   </cc:Work>
  </rdf:RDF>
 </metadata>
 <defs>
  <style type="text/css">*{stroke-linecap:butt;stroke-linejoin:round;}</style>
 </defs>
 <g id="figure_1">
  <g id="patch_1">
   <path d="M 0 288 
L 432 288 
L 432 0 
L 0 0 
z
" style="fill:none;"/>
  </g>
  <g id="axes_1">
   <g id="patch_2">
    <path d="M 54 252 
L 388.8 252 
L 388.8 34.56 
L 54 34.56 
z
" style="fill:#ffffff;"/>
   </g>
   <g id="matplotlib.axis_1">
    <g id="xtick_1">
     <g id="line2d_1">
      <defs>
       <path d="M 0 0 
L 0 3.5 
" id="med17b3ec38" style="stroke:#000000;stroke-width:0.8;"/>
      </defs>
      <g>
       <use style="stroke:#000000;stroke-width:0.8;" x="65.365478" xlink:href="#med17b3ec38" y="252"/>
      </g>
     </g>
     <g id="text_1">
      <!-- 0 -->
      <g transform="translate(61.547978 268.118125)scale(0.12 -0.12)">
       <defs>
        <path d="M 2034 4250 
Q 1547 4250 1301 3770 
Q 1056 3291 1056 2328 
Q 1056 1369 1301 889 
Q 1547 409 2034 409 
Q 2525 409 2770 889 
Q 3016 1369 3016 2328 
Q 3016 3291 2770 3770 
Q 2525 4250 2034 4250 
z
M 2034 4750 
Q 2819 4750 3233 4129 
Q 3647 3509 3647 2328 
Q 3647 1150 3233 529 
Q 2819 -91 2034 -91 
Q 1250 -91 836 529 
Q 422 1150 422 2328 
Q 422 3509 836 4129 
Q 1250 4750 2034 4750 
z
" id="DejaVuSans-30" transform="scale(0.015625)"/>
       </defs>
       <use xlink:href="#DejaVuSans-30"/>
      </g>
     </g>
    </g>
    <g id="xtick_2">
     <g id="line2d_2">
      <g>
       <use style="stroke:#000000;stroke-width:0.8;" x="103.89252" xlink:href="#med17b3ec38" y="252"/>
      </g>
     </g>
     <g id="text_2">
      <!-- 500 -->
      <g transform="translate(92.44002 268.118125)scale(0.12 -0.12)">
       <defs>
        <path d="M 691 4666 
L 3169 4666 
L 3169 4134 
L 1269 4134 
L 1269 2991 
Q 1406 3038 1543 3061 
Q 1681 3084 1819 3084 
Q 2600 3084 3056 2656 
Q 3513 2228 3513 1497 
Q 3513 744 3044 326 
Q 2575 -91 1722 -91 
Q 1428 -91 1123 -41 
Q 819 9 494 109 
L 494 744 
Q 775 591 1075 516 
Q 1375 441 1709 441 
Q 2250 441 2565 725 
Q 2881 1009 2881 1497 
Q 2881 1984 2565 2268 
Q 2250 2553 1709 2553 
Q 1456 2553 1204 2497 
Q 953 2441 691 2322 
L 691 4666 
z
" id="DejaVuSans-35" transform="scale(0.015625)"/>
       </defs>
       <use xlink:href="#DejaVuSans-35"/>
       <use x="63.623047" xlink:href="#DejaVuSans-30"/>
       <use x="127.246094" xlink:href="#DejaVuSans-30"/>
      </g>
     </g>
    </g>
    <g id="xtick_3">
     <g id="line2d_3">
      <g>
       <use style="stroke:#000000;stroke-width:0.8;" x="142.419563" xlink:href="#med17b3ec38" y="252"/>
      </g>
     </g>
     <g id="text_3">
      <!-- 1000 -->
      <g transform="translate(127.149563 268.118125)scale(0.12 -0.12)">
       <defs>
        <path d="M 794 531 
L 1825 531 
L 1825 4091 
L 703 3866 
L 703 4441 
L 1819 4666 
L 2450 4666 
L 2450 531 
L 3481 531 
L 3481 0 
L 794 0 
L 794 531 
z
" id="DejaVuSans-31" transform="scale(0.015625)"/>
       </defs>
       <use xlink:href="#DejaVuSans-31"/>
       <use x="63.623047" xlink:href="#DejaVuSans-30"/>
       <use x="127.246094" xlink:href="#DejaVuSans-30"/>
       <use x="190.869141" xlink:href="#DejaVuSans-30"/>
      </g>
     </g>
    </g>
    <g id="xtick_4">
     <g id="line2d_4">
      <g>
       <use style="stroke:#000000;stroke-width:0.8;" x="180.946605" xlink:href="#med17b3ec38" y="252"/>
      </g>
     </g>
     <g id="text_4">
      <!-- 1500 -->
      <g transform="translate(165.676605 268.118125)scale(0.12 -0.12)">
       <use xlink:href="#DejaVuSans-31"/>
       <use x="63.623047" xlink:href="#DejaVuSans-35"/>
       <use x="127.246094" xlink:href="#DejaVuSans-30"/>
       <use x="190.869141" xlink:href="#DejaVuSans-30"/>
      </g>
     </g>
    </g>
    <g id="xtick_5">
     <g id="line2d_5">
      <g>
       <use style="stroke:#000000;stroke-width:0.8;" x="219.473648" xlink:href="#med17b3ec38" y="252"/>
      </g>
     </g>
     <g id="text_5">
      <!-- 2000 -->
      <g transform="translate(204.203648 268.118125)scale(0.12 -0.12)">
       <defs>
        <path d="M 1228 531 
L 3431 531 
L 3431 0 
L 469 0 
L 469 531 
Q 828 903 1448 1529 
Q 2069 2156 2228 2338 
Q 2531 2678 2651 2914 
Q 2772 3150 2772 3378 
Q 2772 3750 2511 3984 
Q 2250 4219 1831 4219 
Q 1534 4219 1204 4116 
Q 875 4013 500 3803 
L 500 4441 
Q 881 4594 1212 4672 
Q 1544 4750 1819 4750 
Q 2544 4750 2975 4387 
Q 3406 4025 3406 3419 
Q 3406 3131 3298 2873 
Q 3191 2616 2906 2266 
Q 2828 2175 2409 1742 
Q 1991 1309 1228 531 
z
" id="DejaVuSans-32" transform="scale(0.015625)"/>
       </defs>
       <use xlink:href="#DejaVuSans-32"/>
       <use x="63.623047" xlink:href="#DejaVuSans-30"/>
       <use x="127.246094" xlink:href="#DejaVuSans-30"/>
       <use x="190.869141" xlink:href="#DejaVuSans-30"/>
      </g>
     </g>
    </g>
    <g id="xtick_6">
     <g id="line2d_6">
      <g>
       <use style="stroke:#000000;stroke-width:0.8;" x="258.00069" xlink:href="#med17b3ec38" y="252"/>
      </g>
     </g>
     <g id="text_6">
      <!-- 2500 -->
      <g transform="translate(242.73069 268.118125)scale(0.12 -0.12)">
       <use xlink:href="#DejaVuSans-32"/>
       <use x="63.623047" xlink:href="#DejaVuSans-35"/>
       <use x="127.246094" xlink:href="#DejaVuSans-30"/>
       <use x="190.869141" xlink:href="#DejaVuSans-30"/>
      </g>
     </g>
    </g>
    <g id="xtick_7">
     <g id="line2d_7">
      <g>
       <use style="stroke:#000000;stroke-width:0.8;" x="296.527733" xlink:href="#med17b3ec38" y="252"/>
      </g>
     </g>
     <g id="text_7">
      <!-- 3000 -->
      <g transform="translate(281.257733 268.118125)scale(0.12 -0.12)">
       <defs>
        <path d="M 2597 2516 
Q 3050 2419 3304 2112 
Q 3559 1806 3559 1356 
Q 3559 666 3084 287 
Q 2609 -91 1734 -91 
Q 1441 -91 1130 -33 
Q 819 25 488 141 
L 488 750 
Q 750 597 1062 519 
Q 1375 441 1716 441 
Q 2309 441 2620 675 
Q 2931 909 2931 1356 
Q 2931 1769 2642 2001 
Q 2353 2234 1838 2234 
L 1294 2234 
L 1294 2753 
L 1863 2753 
Q 2328 2753 2575 2939 
Q 2822 3125 2822 3475 
Q 2822 3834 2567 4026 
Q 2313 4219 1838 4219 
Q 1578 4219 1281 4162 
Q 984 4106 628 3988 
L 628 4550 
Q 988 4650 1302 4700 
Q 1616 4750 1894 4750 
Q 2613 4750 3031 4423 
Q 3450 4097 3450 3541 
Q 3450 3153 3228 2886 
Q 3006 2619 2597 2516 
z
" id="DejaVuSans-33" transform="scale(0.015625)"/>
       </defs>
       <use xlink:href="#DejaVuSans-33"/>
       <use x="63.623047" xlink:href="#DejaVuSans-30"/>
       <use x="127.246094" xlink:href="#DejaVuSans-30"/>
       <use x="190.869141" xlink:href="#DejaVuSans-30"/>
      </g>
     </g>
    </g>
    <g id="xtick_8">
     <g id="line2d_8">
      <g>
       <use style="stroke:#000000;stroke-width:0.8;" x="335.054776" xlink:href="#med17b3ec38" y="252"/>
      </g>
     </g>
     <g id="text_8">
      <!-- 3500 -->
      <g transform="translate(319.784776 268.118125)scale(0.12 -0.12)">
       <use xlink:href="#DejaVuSans-33"/>
       <use x="63.623047" xlink:href="#DejaVuSans-35"/>
       <use x="127.246094" xlink:href="#DejaVuSans-30"/>
       <use x="190.869141" xlink:href="#DejaVuSans-30"/>
      </g>
     </g>
    </g>
    <g id="xtick_9">
     <g id="line2d_9">
      <g>
       <use style="stroke:#000000;stroke-width:0.8;" x="373.581818" xlink:href="#med17b3ec38" y="252"/>
      </g>
     </g>
     <g id="text_9">
      <!-- 4000 -->
      <g transform="translate(358.311818 268.118125)scale(0.12 -0.12)">
       <defs>
        <path d="M 2419 4116 
L 825 1625 
L 2419 1625 
L 2419 4116 
z
M 2253 4666 
L 3047 4666 
L 3047 1625 
L 3713 1625 
L 3713 1100 
L 3047 1100 
L 3047 0 
L 2419 0 
L 2419 1100 
L 313 1100 
L 313 1709 
L 2253 4666 
z
" id="DejaVuSans-34" transform="scale(0.015625)"/>
       </defs>
       <use xlink:href="#DejaVuSans-34"/>
       <use x="63.623047" xlink:href="#DejaVuSans-30"/>
       <use x="127.246094" xlink:href="#DejaVuSans-30"/>
       <use x="190.869141" xlink:href="#DejaVuSans-30"/>
      </g>
     </g>
    </g>
    <g id="text_10">
     <!-- Time(ms) -->
     <g transform="translate(193.067813 283.731875)scale(0.12 -0.12)">
      <defs>
       <path d="M -19 4666 
L 3928 4666 
L 3928 4134 
L 2272 4134 
L 2272 0 
L 1638 0 
L 1638 4134 
L -19 4134 
L -19 4666 
z
" id="DejaVuSans-54" transform="scale(0.015625)"/>
       <path d="M 603 3500 
L 1178 3500 
L 1178 0 
L 603 0 
L 603 3500 
z
M 603 4863 
L 1178 4863 
L 1178 4134 
L 603 4134 
L 603 4863 
z
" id="DejaVuSans-69" transform="scale(0.015625)"/>
       <path d="M 3328 2828 
Q 3544 3216 3844 3400 
Q 4144 3584 4550 3584 
Q 5097 3584 5394 3201 
Q 5691 2819 5691 2113 
L 5691 0 
L 5113 0 
L 5113 2094 
Q 5113 2597 4934 2840 
Q 4756 3084 4391 3084 
Q 3944 3084 3684 2787 
Q 3425 2491 3425 1978 
L 3425 0 
L 2847 0 
L 2847 2094 
Q 2847 2600 2669 2842 
Q 2491 3084 2119 3084 
Q 1678 3084 1418 2786 
Q 1159 2488 1159 1978 
L 1159 0 
L 581 0 
L 581 3500 
L 1159 3500 
L 1159 2956 
Q 1356 3278 1631 3431 
Q 1906 3584 2284 3584 
Q 2666 3584 2933 3390 
Q 3200 3197 3328 2828 
z
" id="DejaVuSans-6d" transform="scale(0.015625)"/>
       <path d="M 3597 1894 
L 3597 1613 
L 953 1613 
Q 991 1019 1311 708 
Q 1631 397 2203 397 
Q 2534 397 2845 478 
Q 3156 559 3463 722 
L 3463 178 
Q 3153 47 2828 -22 
Q 2503 -91 2169 -91 
Q 1331 -91 842 396 
Q 353 884 353 1716 
Q 353 2575 817 3079 
Q 1281 3584 2069 3584 
Q 2775 3584 3186 3129 
Q 3597 2675 3597 1894 
z
M 3022 2063 
Q 3016 2534 2758 2815 
Q 2500 3097 2075 3097 
Q 1594 3097 1305 2825 
Q 1016 2553 972 2059 
L 3022 2063 
z
" id="DejaVuSans-65" transform="scale(0.015625)"/>
       <path d="M 1984 4856 
Q 1566 4138 1362 3434 
Q 1159 2731 1159 2009 
Q 1159 1288 1364 580 
Q 1569 -128 1984 -844 
L 1484 -844 
Q 1016 -109 783 600 
Q 550 1309 550 2009 
Q 550 2706 781 3412 
Q 1013 4119 1484 4856 
L 1984 4856 
z
" id="DejaVuSans-28" transform="scale(0.015625)"/>
       <path d="M 2834 3397 
L 2834 2853 
Q 2591 2978 2328 3040 
Q 2066 3103 1784 3103 
Q 1356 3103 1142 2972 
Q 928 2841 928 2578 
Q 928 2378 1081 2264 
Q 1234 2150 1697 2047 
L 1894 2003 
Q 2506 1872 2764 1633 
Q 3022 1394 3022 966 
Q 3022 478 2636 193 
Q 2250 -91 1575 -91 
Q 1294 -91 989 -36 
Q 684 19 347 128 
L 347 722 
Q 666 556 975 473 
Q 1284 391 1588 391 
Q 1994 391 2212 530 
Q 2431 669 2431 922 
Q 2431 1156 2273 1281 
Q 2116 1406 1581 1522 
L 1381 1569 
Q 847 1681 609 1914 
Q 372 2147 372 2553 
Q 372 3047 722 3315 
Q 1072 3584 1716 3584 
Q 2034 3584 2315 3537 
Q 2597 3491 2834 3397 
z
" id="DejaVuSans-73" transform="scale(0.015625)"/>
       <path d="M 513 4856 
L 1013 4856 
Q 1481 4119 1714 3412 
Q 1947 2706 1947 2009 
Q 1947 1309 1714 600 
Q 1481 -109 1013 -844 
L 513 -844 
Q 928 -128 1133 580 
Q 1338 1288 1338 2009 
Q 1338 2731 1133 3434 
Q 928 4138 513 4856 
z
" id="DejaVuSans-29" transform="scale(0.015625)"/>
      </defs>
      <use xlink:href="#DejaVuSans-54"/>
      <use x="57.958984" xlink:href="#DejaVuSans-69"/>
      <use x="85.742188" xlink:href="#DejaVuSans-6d"/>
      <use x="183.154297" xlink:href="#DejaVuSans-65"/>
      <use x="244.677734" xlink:href="#DejaVuSans-28"/>
      <use x="283.691406" xlink:href="#DejaVuSans-6d"/>
      <use x="381.103516" xlink:href="#DejaVuSans-73"/>
      <use x="433.203125" xlink:href="#DejaVuSans-29"/>
     </g>
    </g>
   </g>
   <g id="matplotlib.axis_2">
    <g id="ytick_1">
     <g id="line2d_10">
      <defs>
       <path d="M 0 0 
L -3.5 0 
" id="m4777c77fff" style="stroke:#000000;stroke-width:0.8;"/>
      </defs>
      <g>
       <use style="stroke:#000000;stroke-width:0.8;" x="54" xlink:href="#m4777c77fff" y="237.504"/>
      </g>
     </g>
     <g id="text_11">
      <!-- -100 -->
      <g transform="translate(19.765625 242.063063)scale(0.12 -0.12)">
       <defs>
        <path d="M 313 2009 
L 1997 2009 
L 1997 1497 
L 313 1497 
L 313 2009 
z
" id="DejaVuSans-2d" transform="scale(0.015625)"/>
       </defs>
       <use xlink:href="#DejaVuSans-2d"/>
       <use x="36.083984" xlink:href="#DejaVuSans-31"/>
       <use x="99.707031" xlink:href="#DejaVuSans-30"/>
       <use x="163.330078" xlink:href="#DejaVuSans-30"/>
      </g>
     </g>
    </g>
    <g id="ytick_2">
     <g id="line2d_11">
      <g>
       <use style="stroke:#000000;stroke-width:0.8;" x="54" xlink:href="#m4777c77fff" y="208.512"/>
      </g>
     </g>
     <g id="text_12">
      <!-- -80 -->
      <g transform="translate(27.400625 213.071062)scale(0.12 -0.12)">
       <defs>
        <path d="M 2034 2216 
Q 1584 2216 1326 1975 
Q 1069 1734 1069 1313 
Q 1069 891 1326 650 
Q 1584 409 2034 409 
Q 2484 409 2743 651 
Q 3003 894 3003 1313 
Q 3003 1734 2745 1975 
Q 2488 2216 2034 2216 
z
M 1403 2484 
Q 997 2584 770 2862 
Q 544 3141 544 3541 
Q 544 4100 942 4425 
Q 1341 4750 2034 4750 
Q 2731 4750 3128 4425 
Q 3525 4100 3525 3541 
Q 3525 3141 3298 2862 
Q 3072 2584 2669 2484 
Q 3125 2378 3379 2068 
Q 3634 1759 3634 1313 
Q 3634 634 3220 271 
Q 2806 -91 2034 -91 
Q 1263 -91 848 271 
Q 434 634 434 1313 
Q 434 1759 690 2068 
Q 947 2378 1403 2484 
z
M 1172 3481 
Q 1172 3119 1398 2916 
Q 1625 2713 2034 2713 
Q 2441 2713 2670 2916 
Q 2900 3119 2900 3481 
Q 2900 3844 2670 4047 
Q 2441 4250 2034 4250 
Q 1625 4250 1398 4047 
Q 1172 3844 1172 3481 
z
" id="DejaVuSans-38" transform="scale(0.015625)"/>
       </defs>
       <use xlink:href="#DejaVuSans-2d"/>
       <use x="36.083984" xlink:href="#DejaVuSans-38"/>
       <use x="99.707031" xlink:href="#DejaVuSans-30"/>
      </g>
     </g>
    </g>
    <g id="ytick_3">
     <g id="line2d_12">
      <g>
       <use style="stroke:#000000;stroke-width:0.8;" x="54" xlink:href="#m4777c77fff" y="179.52"/>
      </g>
     </g>
     <g id="text_13">
      <!-- -60 -->
      <g transform="translate(27.400625 184.079062)scale(0.12 -0.12)">
       <defs>
        <path d="M 2113 2584 
Q 1688 2584 1439 2293 
Q 1191 2003 1191 1497 
Q 1191 994 1439 701 
Q 1688 409 2113 409 
Q 2538 409 2786 701 
Q 3034 994 3034 1497 
Q 3034 2003 2786 2293 
Q 2538 2584 2113 2584 
z
M 3366 4563 
L 3366 3988 
Q 3128 4100 2886 4159 
Q 2644 4219 2406 4219 
Q 1781 4219 1451 3797 
Q 1122 3375 1075 2522 
Q 1259 2794 1537 2939 
Q 1816 3084 2150 3084 
Q 2853 3084 3261 2657 
Q 3669 2231 3669 1497 
Q 3669 778 3244 343 
Q 2819 -91 2113 -91 
Q 1303 -91 875 529 
Q 447 1150 447 2328 
Q 447 3434 972 4092 
Q 1497 4750 2381 4750 
Q 2619 4750 2861 4703 
Q 3103 4656 3366 4563 
z
" id="DejaVuSans-36" transform="scale(0.015625)"/>
       </defs>
       <use xlink:href="#DejaVuSans-2d"/>
       <use x="36.083984" xlink:href="#DejaVuSans-36"/>
       <use x="99.707031" xlink:href="#DejaVuSans-30"/>
      </g>
     </g>
    </g>
    <g id="ytick_4">
     <g id="line2d_13">
      <g>
       <use style="stroke:#000000;stroke-width:0.8;" x="54" xlink:href="#m4777c77fff" y="150.528"/>
      </g>
     </g>
     <g id="text_14">
      <!-- -40 -->
      <g transform="translate(27.400625 155.087063)scale(0.12 -0.12)">
       <use xlink:href="#DejaVuSans-2d"/>
       <use x="36.083984" xlink:href="#DejaVuSans-34"/>
       <use x="99.707031" xlink:href="#DejaVuSans-30"/>
      </g>
     </g>
    </g>
    <g id="ytick_5">
     <g id="line2d_14">
      <g>
       <use style="stroke:#000000;stroke-width:0.8;" x="54" xlink:href="#m4777c77fff" y="121.536"/>
      </g>
     </g>
     <g id="text_15">
      <!-- -20 -->
      <g transform="translate(27.400625 126.095062)scale(0.12 -0.12)">
       <use xlink:href="#DejaVuSans-2d"/>
       <use x="36.083984" xlink:href="#DejaVuSans-32"/>
       <use x="99.707031" xlink:href="#DejaVuSans-30"/>
      </g>
     </g>
    </g>
    <g id="ytick_6">
     <g id="line2d_15">
      <g>
       <use style="stroke:#000000;stroke-width:0.8;" x="54" xlink:href="#m4777c77fff" y="92.544"/>
      </g>
     </g>
     <g id="text_16">
      <!-- 0 -->
      <g transform="translate(39.365 97.103062)scale(0.12 -0.12)">
       <use xlink:href="#DejaVuSans-30"/>
      </g>
     </g>
    </g>
    <g id="ytick_7">
     <g id="line2d_16">
      <g>
       <use style="stroke:#000000;stroke-width:0.8;" x="54" xlink:href="#m4777c77fff" y="63.552"/>
      </g>
     </g>
     <g id="text_17">
      <!-- 20 -->
      <g transform="translate(31.73 68.111063)scale(0.12 -0.12)">
       <use xlink:href="#DejaVuSans-32"/>
       <use x="63.623047" xlink:href="#DejaVuSans-30"/>
      </g>
     </g>
    </g>
    <g id="ytick_8">
     <g id="line2d_17">
      <g>
       <use style="stroke:#000000;stroke-width:0.8;" x="54" xlink:href="#m4777c77fff" y="34.56"/>
      </g>
     </g>
     <g id="text_18">
      <!-- 40 -->
      <g transform="translate(31.73 39.119062)scale(0.12 -0.12)">
       <use xlink:href="#DejaVuSans-34"/>
       <use x="63.623047" xlink:href="#DejaVuSans-30"/>
      </g>
     </g>
    </g>
    <g id="text_19">
     <!-- Membrane potential (mV) -->
     <g transform="translate(13.27 220.574062)rotate(-90)scale(0.12 -0.12)">
      <defs>
       <path d="M 628 4666 
L 1569 4666 
L 2759 1491 
L 3956 4666 
L 4897 4666 
L 4897 0 
L 4281 0 
L 4281 4097 
L 3078 897 
L 2444 897 
L 1241 4097 
L 1241 0 
L 628 0 
L 628 4666 
z
" id="DejaVuSans-4d" transform="scale(0.015625)"/>
       <path d="M 3116 1747 
Q 3116 2381 2855 2742 
Q 2594 3103 2138 3103 
Q 1681 3103 1420 2742 
Q 1159 2381 1159 1747 
Q 1159 1113 1420 752 
Q 1681 391 2138 391 
Q 2594 391 2855 752 
Q 3116 1113 3116 1747 
z
M 1159 2969 
Q 1341 3281 1617 3432 
Q 1894 3584 2278 3584 
Q 2916 3584 3314 3078 
Q 3713 2572 3713 1747 
Q 3713 922 3314 415 
Q 2916 -91 2278 -91 
Q 1894 -91 1617 61 
Q 1341 213 1159 525 
L 1159 0 
L 581 0 
L 581 4863 
L 1159 4863 
L 1159 2969 
z
" id="DejaVuSans-62" transform="scale(0.015625)"/>
       <path d="M 2631 2963 
Q 2534 3019 2420 3045 
Q 2306 3072 2169 3072 
Q 1681 3072 1420 2755 
Q 1159 2438 1159 1844 
L 1159 0 
L 581 0 
L 581 3500 
L 1159 3500 
L 1159 2956 
Q 1341 3275 1631 3429 
Q 1922 3584 2338 3584 
Q 2397 3584 2469 3576 
Q 2541 3569 2628 3553 
L 2631 2963 
z
" id="DejaVuSans-72" transform="scale(0.015625)"/>
       <path d="M 2194 1759 
Q 1497 1759 1228 1600 
Q 959 1441 959 1056 
Q 959 750 1161 570 
Q 1363 391 1709 391 
Q 2188 391 2477 730 
Q 2766 1069 2766 1631 
L 2766 1759 
L 2194 1759 
z
M 3341 1997 
L 3341 0 
L 2766 0 
L 2766 531 
Q 2569 213 2275 61 
Q 1981 -91 1556 -91 
Q 1019 -91 701 211 
Q 384 513 384 1019 
Q 384 1609 779 1909 
Q 1175 2209 1959 2209 
L 2766 2209 
L 2766 2266 
Q 2766 2663 2505 2880 
Q 2244 3097 1772 3097 
Q 1472 3097 1187 3025 
Q 903 2953 641 2809 
L 641 3341 
Q 956 3463 1253 3523 
Q 1550 3584 1831 3584 
Q 2591 3584 2966 3190 
Q 3341 2797 3341 1997 
z
" id="DejaVuSans-61" transform="scale(0.015625)"/>
       <path d="M 3513 2113 
L 3513 0 
L 2938 0 
L 2938 2094 
Q 2938 2591 2744 2837 
Q 2550 3084 2163 3084 
Q 1697 3084 1428 2787 
Q 1159 2491 1159 1978 
L 1159 0 
L 581 0 
L 581 3500 
L 1159 3500 
L 1159 2956 
Q 1366 3272 1645 3428 
Q 1925 3584 2291 3584 
Q 2894 3584 3203 3211 
Q 3513 2838 3513 2113 
z
" id="DejaVuSans-6e" transform="scale(0.015625)"/>
       <path id="DejaVuSans-20" transform="scale(0.015625)"/>
       <path d="M 1159 525 
L 1159 -1331 
L 581 -1331 
L 581 3500 
L 1159 3500 
L 1159 2969 
Q 1341 3281 1617 3432 
Q 1894 3584 2278 3584 
Q 2916 3584 3314 3078 
Q 3713 2572 3713 1747 
Q 3713 922 3314 415 
Q 2916 -91 2278 -91 
Q 1894 -91 1617 61 
Q 1341 213 1159 525 
z
M 3116 1747 
Q 3116 2381 2855 2742 
Q 2594 3103 2138 3103 
Q 1681 3103 1420 2742 
Q 1159 2381 1159 1747 
Q 1159 1113 1420 752 
Q 1681 391 2138 391 
Q 2594 391 2855 752 
Q 3116 1113 3116 1747 
z
" id="DejaVuSans-70" transform="scale(0.015625)"/>
       <path d="M 1959 3097 
Q 1497 3097 1228 2736 
Q 959 2375 959 1747 
Q 959 1119 1226 758 
Q 1494 397 1959 397 
Q 2419 397 2687 759 
Q 2956 1122 2956 1747 
Q 2956 2369 2687 2733 
Q 2419 3097 1959 3097 
z
M 1959 3584 
Q 2709 3584 3137 3096 
Q 3566 2609 3566 1747 
Q 3566 888 3137 398 
Q 2709 -91 1959 -91 
Q 1206 -91 779 398 
Q 353 888 353 1747 
Q 353 2609 779 3096 
Q 1206 3584 1959 3584 
z
" id="DejaVuSans-6f" transform="scale(0.015625)"/>
       <path d="M 1172 4494 
L 1172 3500 
L 2356 3500 
L 2356 3053 
L 1172 3053 
L 1172 1153 
Q 1172 725 1289 603 
Q 1406 481 1766 481 
L 2356 481 
L 2356 0 
L 1766 0 
Q 1100 0 847 248 
Q 594 497 594 1153 
L 594 3053 
L 172 3053 
L 172 3500 
L 594 3500 
L 594 4494 
L 1172 4494 
z
" id="DejaVuSans-74" transform="scale(0.015625)"/>
       <path d="M 603 4863 
L 1178 4863 
L 1178 0 
L 603 0 
L 603 4863 
z
" id="DejaVuSans-6c" transform="scale(0.015625)"/>
       <path d="M 1831 0 
L 50 4666 
L 709 4666 
L 2188 738 
L 3669 4666 
L 4325 4666 
L 2547 0 
L 1831 0 
z
" id="DejaVuSans-56" transform="scale(0.015625)"/>
      </defs>
      <use xlink:href="#DejaVuSans-4d"/>
      <use x="86.279297" xlink:href="#DejaVuSans-65"/>
      <use x="147.802734" xlink:href="#DejaVuSans-6d"/>
      <use x="245.214844" xlink:href="#DejaVuSans-62"/>
      <use x="308.691406" xlink:href="#DejaVuSans-72"/>
      <use x="349.804688" xlink:href="#DejaVuSans-61"/>
      <use x="411.083984" xlink:href="#DejaVuSans-6e"/>
      <use x="474.462891" xlink:href="#DejaVuSans-65"/>
      <use x="535.986328" xlink:href="#DejaVuSans-20"/>
      <use x="567.773438" xlink:href="#DejaVuSans-70"/>
      <use x="631.25" xlink:href="#DejaVuSans-6f"/>
      <use x="692.431641" xlink:href="#DejaVuSans-74"/>
      <use x="731.640625" xlink:href="#DejaVuSans-65"/>
      <use x="793.164062" xlink:href="#DejaVuSans-6e"/>
      <use x="856.542969" xlink:href="#DejaVuSans-74"/>
      <use x="895.751953" xlink:href="#DejaVuSans-69"/>
      <use x="923.535156" xlink:href="#DejaVuSans-61"/>
      <use x="984.814453" xlink:href="#DejaVuSans-6c"/>
      <use x="1012.597656" xlink:href="#DejaVuSans-20"/>
      <use x="1044.384766" xlink:href="#DejaVuSans-28"/>
      <use x="1083.398438" xlink:href="#DejaVuSans-6d"/>
      <use x="1180.810547" xlink:href="#DejaVuSans-56"/>
      <use x="1249.21875" xlink:href="#DejaVuSans-29"/>
     </g>
    </g>
   </g>
   <g id="line2d_18">
    <path clip-path="url(#p4c461c4f76)" d="M 69.218182 227.582938 
L 69.487871 227.146753 
L 69.564925 227.246196 
L 69.680506 227.333461 
L 69.719033 227.308383 
L 69.911669 227.001503 
L 69.950196 227.023827 
L 70.02725 227.097032 
L 70.065777 227.038903 
L 70.836318 223.35286 
L 70.913372 223.459985 
L 71.106007 224.488187 
L 71.876548 229.648038 
L 71.915075 229.54961 
L 72.338872 226.731153 
L 72.608562 224.285532 
L 72.685616 224.208124 
L 72.724143 224.249582 
L 73.302048 225.398825 
L 74.034062 229.253457 
L 74.149643 229.072692 
L 74.45786 228.185971 
L 74.650495 227.597144 
L 74.766076 227.690933 
L 74.997238 228.401817 
L 75.112819 228.559823 
L 75.151346 228.532571 
L 75.575144 227.979548 
L 75.88336 226.457613 
L 76.461266 221.185998 
L 76.576847 221.074958 
L 76.615374 221.106705 
L 77.077699 221.115112 
L 77.540023 222.66488 
L 77.617077 222.530792 
L 77.694131 222.432944 
L 77.732658 222.48252 
L 77.848239 222.768816 
L 77.925293 222.739679 
L 77.96382 222.75316 
L 78.272037 221.681181 
L 78.310564 221.717421 
L 78.349091 221.753661 
L 78.387618 221.675818 
L 78.657307 220.238684 
L 78.811415 218.568455 
L 79.119632 214.441734 
L 79.466375 212.817602 
L 79.543429 212.929076 
L 79.967227 214.00323 
L 80.082808 214.3665 
L 80.891876 218.700804 
L 80.930403 218.604115 
L 81.3542 216.765298 
L 81.392727 216.758774 
L 81.816525 215.277428 
L 81.893579 215.406877 
L 82.124741 216.052529 
L 82.163268 216.034119 
L 82.278849 215.879012 
L 82.471484 215.340051 
L 82.510012 215.394846 
L 82.779701 215.933227 
L 83.04939 216.59468 
L 83.203498 216.634979 
L 83.434661 217.206846 
L 84.051093 219.373418 
L 84.320783 220.366249 
L 84.513418 221.015525 
L 84.860161 222.217098 
L 84.898688 222.069384 
L 85.206904 220.70647 
L 85.438067 220.59949 
L 85.78481 219.1122 
L 86.015972 216.916491 
L 86.093026 216.863725 
L 86.131554 216.93635 
L 86.401243 218.184311 
L 86.670932 220.046322 
L 86.902094 221.135987 
L 86.979148 221.182519 
L 87.017675 221.136421 
L 87.133257 221.072929 
L 87.171784 221.113083 
L 87.595581 222.134471 
L 87.980852 223.795713 
L 88.019379 223.74947 
L 88.289068 223.246314 
L 88.558757 221.08902 
L 88.712865 220.981604 
L 89.098136 220.238104 
L 89.252244 219.960071 
L 89.56046 218.58498 
L 89.753096 218.398127 
L 89.868677 218.594113 
L 90.099839 219.501418 
L 90.176893 219.298474 
L 90.253947 219.231212 
L 90.292474 219.292095 
L 90.446582 220.005878 
L 90.908907 222.376264 
L 90.985961 222.297696 
L 91.140069 222.069529 
L 91.178596 222.095042 
L 91.371231 222.586311 
L 91.872083 224.143907 
L 92.064718 224.440205 
L 92.180299 224.585455 
L 92.989367 221.325449 
L 93.220529 220.643268 
L 93.33611 220.88796 
L 93.567273 222.183033 
L 94.029597 224.682288 
L 94.106651 224.740272 
L 94.145178 224.709975 
L 94.453395 224.442234 
L 94.684557 223.391129 
L 95.146881 219.695809 
L 95.416571 219.620285 
L 96.07153 220.948118 
L 96.187112 221.291529 
L 96.225639 221.165993 
L 96.456801 219.215122 
L 96.765017 216.950267 
L 96.919125 216.845316 
L 96.957652 216.879961 
L 96.99618 216.91852 
L 97.034707 216.834878 
L 97.188815 216.283596 
L 97.227342 216.295772 
L 97.342923 216.660057 
L 97.612612 218.668477 
L 97.843774 219.81801 
L 97.997883 219.813227 
L 98.151991 220.365379 
L 98.267572 220.865926 
L 98.306099 220.764744 
L 98.691369 219.60289 
L 98.806951 219.268177 
L 98.961059 218.664129 
L 98.999586 218.684423 
L 99.384856 219.501852 
L 99.423383 219.380956 
L 99.654545 218.842719 
L 99.770127 218.851707 
L 99.924235 219.391393 
L 100.386559 221.841072 
L 100.463613 221.779609 
L 100.579194 221.844116 
L 100.964465 222.795054 
L 101.002992 222.73678 
L 101.272681 222.01169 
L 101.311208 222.032854 
L 101.465316 222.436713 
L 101.696479 223.001477 
L 101.81206 223.275886 
L 102.235857 224.716209 
L 102.274384 224.696494 
L 102.312911 224.683303 
L 102.544074 224.04258 
L 102.582601 224.091576 
L 102.967871 224.631552 
L 103.121979 224.444988 
L 103.661358 221.59406 
L 103.738412 221.673788 
L 103.89252 222.094172 
L 103.931047 222.014734 
L 104.085155 221.34125 
L 104.316318 220.251006 
L 104.624534 220.601229 
L 104.894223 220.345085 
L 104.93275 220.392777 
L 105.086858 220.90782 
L 105.664764 223.303284 
L 105.818872 223.301834 
L 105.97298 223.102659 
L 106.204143 221.474033 
L 106.62794 218.325937 
L 106.743521 218.648183 
L 107.128792 221.042632 
L 107.244373 221.549268 
L 107.2829 221.500996 
L 107.398481 221.438953 
L 107.514062 221.733512 
L 107.783751 223.321693 
L 108.284603 226.207267 
L 108.669873 227.176905 
L 108.823982 227.147333 
L 109.209252 225.442023 
L 109.324833 224.805214 
L 109.748631 222.366117 
L 109.902739 222.216373 
L 110.365063 220.096044 
L 110.442117 220.246947 
L 110.634753 221.222093 
L 111.135604 223.987785 
L 111.289712 224.188119 
L 111.636456 224.101433 
L 111.71351 223.870947 
L 112.060253 222.098666 
L 112.09878 222.117656 
L 112.252888 222.554855 
L 112.984902 225.881687 
L 113.061956 225.809062 
L 113.177537 225.882267 
L 113.293119 226.166968 
L 113.331646 226.063757 
L 113.447227 225.879803 
L 113.485754 225.911839 
L 113.639862 226.112753 
L 113.755443 225.543785 
L 114.410403 221.353137 
L 114.487457 221.260072 
L 114.680092 219.514754 
L 114.872727 218.544682 
L 115.026835 218.682973 
L 115.142417 218.8965 
L 115.758849 220.728214 
L 115.87443 220.324211 
L 116.067066 219.720597 
L 116.182647 219.990368 
L 116.799079 222.746057 
L 116.876133 222.655022 
L 117.030242 222.361188 
L 117.18435 222.149837 
L 117.299931 222.319295 
L 117.338458 222.262036 
L 117.685201 220.872884 
L 117.723728 220.899412 
L 118.147526 221.085685 
L 118.455742 221.645811 
L 118.725432 221.323565 
L 118.802486 221.458088 
L 119.072175 222.298711 
L 119.110702 222.244931 
L 119.26481 221.429965 
L 119.457445 220.901296 
L 119.573026 220.720821 
L 119.996824 218.641515 
L 120.112405 218.946221 
L 121.075581 223.024236 
L 121.383797 223.245734 
L 121.653487 222.696336 
L 121.692014 222.745767 
L 122.192865 223.577258 
L 122.269919 223.633212 
L 122.308446 223.593638 
L 122.539609 223.345467 
L 123.348677 224.452961 
L 123.541312 224.868852 
L 123.579839 224.786659 
L 123.888055 224.131875 
L 124.08069 224.161447 
L 124.273326 224.661559 
L 124.658596 225.773692 
L 125.005339 226.218139 
L 125.043867 226.132468 
L 125.197975 224.754478 
L 125.544718 221.791786 
L 126.122624 218.903603 
L 126.353786 219.082628 
L 126.546421 220.027043 
L 126.777583 221.006392 
L 126.970219 220.683711 
L 127.008746 220.752857 
L 127.394016 222.218983 
L 127.856341 223.93212 
L 128.087503 223.667858 
L 128.12603 223.73251 
L 128.318665 224.429188 
L 128.549827 225.567124 
L 128.588354 225.466812 
L 128.896571 223.869932 
L 128.935098 223.916029 
L 129.089206 224.02185 
L 129.204787 224.1484 
L 129.435949 224.949884 
L 129.513003 224.825508 
L 129.667112 223.995757 
L 129.975328 222.44802 
L 130.052382 222.489333 
L 130.20649 223.02467 
L 130.47618 224.302348 
L 130.514707 224.280894 
L 130.745869 223.935309 
L 130.784396 223.971259 
L 130.938504 224.381206 
L 131.323774 225.54393 
L 131.477883 225.920536 
L 131.709045 226.719556 
L 131.747572 226.662587 
L 132.094315 225.863712 
L 132.171369 225.926915 
L 132.209896 225.820949 
L 132.402532 225.456519 
L 132.55664 225.772387 
L 132.749275 226.079847 
L 132.787802 226.076803 
L 132.94191 225.23647 
L 133.365708 223.093526 
L 133.442762 223.146437 
L 133.481289 223.016698 
L 133.59687 222.709382 
L 133.635397 222.725473 
L 133.750978 223.047284 
L 134.482992 226.093329 
L 134.521519 226.071585 
L 134.868262 225.177761 
L 134.906789 225.211247 
L 135.099425 225.700052 
L 135.369114 226.282501 
L 135.484695 226.187698 
L 135.638803 226.162764 
L 135.94702 226.227996 
L 136.139655 226.084051 
L 136.563452 225.822253 
L 136.833142 224.752884 
L 137.642209 216.854013 
L 137.757791 216.70079 
L 137.796318 216.727898 
L 138.02748 216.912722 
L 138.335696 218.276651 
L 138.41275 218.250993 
L 138.528331 217.17249 
L 138.759494 215.556621 
L 138.990656 215.335702 
L 139.029183 215.390352 
L 139.260345 216.349842 
L 140.339102 221.734526 
L 140.377629 221.714087 
L 140.7629 220.113439 
L 140.801427 220.138372 
L 140.955535 220.591372 
L 141.41786 222.327123 
L 141.456387 222.311757 
L 141.687549 221.469684 
L 141.726076 221.50491 
L 141.957238 221.820778 
L 142.072819 221.897027 
L 142.1884 222.0488 
L 142.226928 222.004007 
L 142.381036 221.83194 
L 142.419563 221.867745 
L 142.45809 221.913262 
L 142.496617 221.842956 
L 142.958941 219.543311 
L 143.190104 219.647827 
L 143.382739 217.926717 
L 143.690955 215.803778 
L 144.114753 213.882768 
L 144.191807 213.956553 
L 144.577077 215.173347 
L 144.615604 215.113623 
L 144.808239 214.084697 
L 144.846766 214.131664 
L 145.000875 214.9633 
L 146.272267 224.633581 
L 146.8887 226.01447 
L 146.965754 225.755137 
L 147.428078 222.421057 
L 147.543659 222.618203 
L 147.774822 223.714825 
L 148.275673 226.539371 
L 148.3142 226.48617 
L 148.506835 226.281777 
L 148.660944 226.414415 
L 148.853579 224.684317 
L 149.238849 221.625372 
L 149.315903 221.710608 
L 149.508539 222.543403 
L 149.855282 224.316989 
L 149.893809 224.269442 
L 150.124971 223.752949 
L 150.202025 223.793393 
L 150.356133 223.513041 
L 150.394661 223.557978 
L 150.433188 223.640171 
L 150.471715 223.553919 
L 150.587296 223.350396 
L 150.625823 223.396783 
L 150.741404 223.580737 
L 150.779931 223.556239 
L 150.856985 223.60683 
L 151.011093 224.13115 
L 151.242255 224.806519 
L 151.280783 224.87262 
L 151.31931 224.824639 
L 151.550472 224.38396 
L 151.666053 224.576902 
L 152.08985 225.649316 
L 152.128377 225.630181 
L 152.513648 224.705047 
L 152.590702 224.27814 
L 152.898918 221.649 
L 153.130081 221.000014 
L 153.168608 221.037559 
L 153.322716 221.592466 
L 153.669459 223.249503 
L 153.707986 223.237472 
L 153.823567 223.268928 
L 153.977675 223.652202 
L 154.170311 224.093026 
L 154.208838 224.080124 
L 154.517054 224.013443 
L 154.748216 224.254656 
L 154.82527 224.219866 
L 154.979379 224.098534 
L 155.09496 224.32902 
L 155.287595 224.785789 
L 155.48023 224.4921 
L 155.518757 224.526456 
L 155.826974 224.9293 
L 155.942555 224.704467 
L 156.058136 223.69772 
L 156.443406 219.96326 
L 156.674568 219.933253 
L 156.867204 220.847226 
L 157.406582 224.286692 
L 157.445109 224.056931 
L 158.138596 218.96898 
L 158.21565 219.00174 
L 158.600921 220.091695 
L 158.947664 221.879921 
L 159.063245 221.353572 
L 159.294407 220.351608 
L 159.409988 220.541216 
L 159.718205 221.843681 
L 159.872313 221.787147 
L 160.026421 222.272328 
L 160.29611 223.114111 
L 160.334638 223.099905 
L 160.604327 222.06402 
L 160.642854 222.081126 
L 160.989597 222.82767 
L 161.567503 225.088756 
L 161.60603 225.043528 
L 161.760138 224.422375 
L 162.029827 223.493616 
L 162.145409 223.693806 
L 162.376571 224.451367 
L 162.415098 224.397587 
L 162.569206 223.885878 
L 162.607733 223.899214 
L 162.723314 224.195657 
L 163.070058 226.082312 
L 163.147112 226.359475 
L 163.185639 226.309464 
L 163.30122 225.732378 
L 163.493855 225.030917 
L 163.647963 224.866532 
L 163.879125 224.543416 
L 164.071761 224.816811 
L 164.110288 224.657355 
L 164.457031 222.685609 
L 164.649666 221.887459 
L 164.72672 221.66567 
L 164.919356 221.101341 
L 164.957883 221.098007 
L 165.150518 220.488305 
L 165.189045 220.506135 
L 165.38168 220.94261 
L 165.497261 221.217309 
L 165.535788 221.128884 
L 165.689896 220.934492 
L 165.805478 221.202958 
L 166.075167 222.734605 
L 166.306329 223.736134 
L 166.768654 225.340116 
L 166.999816 226.084341 
L 167.308032 226.10826 
L 167.46214 226.363679 
L 167.500667 226.295113 
L 167.847411 224.609083 
L 168.232681 221.987627 
L 168.309735 222.058512 
L 168.695006 223.0641 
L 168.733533 223.023366 
L 168.926168 222.477446 
L 168.964695 222.518905 
L 169.118803 223.085264 
L 169.272911 223.651912 
L 169.311438 223.608134 
L 169.542601 223.093092 
L 169.658182 223.310097 
L 169.889344 223.707142 
L 170.004925 223.748166 
L 170.46725 224.625029 
L 170.929574 226.25322 
L 170.968101 226.32454 
L 171.006628 226.240173 
L 171.546007 223.608134 
L 171.931277 219.34602 
L 172.085386 218.898384 
L 172.200967 219.214542 
L 172.316548 219.514754 
L 172.355075 219.466772 
L 172.432129 219.416326 
L 172.470656 219.456335 
L 172.586237 219.538527 
L 172.624764 219.503012 
L 172.701818 219.418356 
L 172.894453 219.038705 
L 173.010035 219.207004 
L 173.20267 220.166204 
L 173.819102 223.826444 
L 174.204373 225.243283 
L 174.2429 225.182835 
L 174.435535 224.318293 
L 174.705224 222.358434 
L 174.782278 222.385687 
L 174.936387 222.89928 
L 175.129022 223.725552 
L 175.167549 223.651622 
L 175.706928 222.146213 
L 175.93809 221.798599 
L 176.130725 221.144249 
L 176.207779 221.262392 
L 176.361887 221.807441 
L 176.400414 221.762359 
L 176.708631 220.509035 
L 176.747158 220.545275 
L 176.901266 221.116707 
L 176.97832 221.344584 
L 177.055374 221.318056 
L 177.170955 221.428226 
L 177.286536 221.651174 
L 177.325063 221.610731 
L 177.594753 221.280367 
L 177.710334 221.521435 
L 177.941496 222.363653 
L 178.01855 222.283345 
L 178.134131 222.331907 
L 178.288239 222.86246 
L 178.519402 223.493761 
L 178.827618 224.399616 
L 179.174361 225.99606 
L 179.405524 227.020638 
L 179.444051 226.917136 
L 179.752267 225.45391 
L 179.867848 225.601479 
L 180.137537 226.614025 
L 180.176064 226.768552 
L 180.214591 226.710133 
L 180.638389 225.636995 
L 180.676916 225.666421 
L 180.792497 225.592202 
L 180.946605 225.586259 
L 181.139241 226.092604 
L 181.331876 226.57909 
L 181.370403 226.566043 
L 181.601565 226.309029 
L 182.06389 223.959517 
L 182.333579 223.543772 
L 182.44916 223.351845 
L 182.487687 223.369385 
L 182.641795 223.797742 
L 182.950012 224.997576 
L 182.988539 224.944086 
L 183.373809 223.690182 
L 183.450863 223.773679 
L 183.797606 224.480214 
L 183.836133 224.375988 
L 184.837837 221.049445 
L 184.914891 221.080177 
L 185.068999 221.679007 
L 185.300161 222.770411 
L 185.338688 222.710397 
L 185.646904 221.5052 
L 185.762486 221.436634 
L 185.801013 221.475338 
L 185.955121 221.962259 
L 186.918297 226.21582 
L 186.995351 226.309464 
L 187.033878 226.200744 
L 187.303567 224.543126 
L 187.53473 221.717856 
L 187.804419 219.690011 
L 187.997054 219.153224 
L 188.151162 219.578536 
L 188.420852 220.769528 
L 188.998757 223.863844 
L 189.306974 224.744331 
L 189.422555 224.687362 
L 189.730771 223.016698 
L 189.769298 223.059461 
L 189.884879 223.22399 
L 189.923406 223.17021 
L 190.038987 222.86449 
L 190.385731 221.402133 
L 190.539839 221.398074 
L 190.925109 222.224636 
L 191.117745 223.094541 
L 191.156272 223.063955 
L 191.464488 222.021547 
L 191.657123 221.437648 
L 191.811231 221.424022 
L 192.273556 220.216215 
L 192.312083 220.276374 
L 192.504718 221.067565 
L 192.697353 221.510708 
L 192.928516 221.559125 
L 193.159678 221.45142 
L 193.313786 221.966317 
L 194.122854 225.741946 
L 194.161381 225.72455 
L 194.354016 225.612496 
L 194.508124 225.941556 
L 194.777814 226.616054 
L 194.816341 226.543719 
L 195.124557 224.805359 
L 195.240138 224.874215 
L 195.895098 226.436594 
L 196.588585 229.173584 
L 196.627112 229.104293 
L 196.819747 228.725657 
L 196.973855 228.866558 
L 197.050909 228.942083 
L 197.089436 228.906712 
L 197.243544 228.130741 
L 197.667342 226.315987 
L 197.782923 226.421953 
L 197.975558 226.639248 
L 198.129666 226.694333 
L 198.399356 227.251559 
L 198.437883 227.15893 
L 198.553464 226.34324 
L 199.054315 220.32711 
L 199.285478 219.573173 
L 199.362532 219.516204 
L 199.401059 219.567664 
L 199.555167 220.203314 
L 199.940437 223.265304 
L 200.133072 224.251902 
L 200.402762 224.425419 
L 200.672451 224.00286 
L 200.865086 222.462516 
L 201.057722 221.818458 
L 201.173303 222.059672 
L 201.558573 223.141943 
L 201.712681 223.520868 
L 202.25206 225.542771 
L 202.290587 225.530594 
L 202.560276 225.57988 
L 202.791438 226.27018 
L 202.90702 226.130728 
L 202.945547 226.119276 
L 203.523452 223.077436 
L 203.870196 220.029072 
L 204.062831 219.860918 
L 204.178412 220.076909 
L 204.409574 221.448375 
L 204.98748 225.280103 
L 205.064534 225.393172 
L 205.103061 225.321562 
L 205.37275 224.325831 
L 205.603913 223.331116 
L 205.719494 223.202391 
L 206.104764 221.63059 
L 206.143291 221.66828 
L 206.490035 222.594429 
L 206.68267 223.300674 
L 206.759724 223.244285 
L 206.875305 223.211524 
L 207.029413 223.513476 
L 207.06794 223.415338 
L 207.260575 223.141363 
L 207.453211 223.367646 
L 207.491738 223.290672 
L 207.7229 222.938709 
L 207.838481 222.955235 
L 207.992589 223.443025 
L 208.223751 224.469342 
L 208.300806 224.40353 
L 208.416387 224.414547 
L 208.570495 224.677069 
L 208.647549 224.594587 
L 208.76313 224.378742 
L 209.1484 223.173979 
L 209.263982 222.99133 
L 209.302509 223.026845 
L 209.456617 223.239211 
L 209.495144 223.171515 
L 209.726306 222.855647 
L 209.841887 223.049748 
L 209.957468 223.221091 
L 209.995995 223.179778 
L 210.150104 223.119909 
L 210.304212 223.475496 
L 210.573901 224.183626 
L 210.650955 224.103173 
L 211.036226 223.076566 
L 211.267388 222.839556 
L 211.614131 220.749813 
L 211.652658 220.787068 
L 211.691185 220.712413 
L 211.845293 220.610217 
L 212.037929 220.504106 
L 212.076456 220.558901 
L 212.230564 221.109459 
L 212.53878 223.085699 
L 212.615834 222.837527 
L 212.80847 222.5205 
L 212.885524 222.516441 
L 213.078159 222.017488 
L 213.232267 220.574122 
L 213.57901 217.369926 
L 213.810173 215.519076 
L 214.118389 214.158337 
L 214.23397 214.055125 
L 214.272497 214.102237 
L 214.426605 214.694254 
L 214.580713 215.385423 
L 214.619241 215.309029 
L 215.043038 213.903932 
L 215.120092 214.010913 
L 215.2742 214.76485 
L 215.775052 217.557069 
L 216.083268 218.806914 
L 216.160322 218.632672 
L 216.622647 215.886405 
L 216.892336 215.025343 
L 216.930863 215.044767 
L 217.046444 215.111739 
L 217.431715 214.047443 
L 217.508769 214.172253 
L 218.125201 215.912498 
L 218.240783 215.9786 
L 218.394891 216.466535 
L 218.972796 219.851351 
L 219.281013 221.595945 
L 219.396594 221.740325 
L 219.550702 222.240582 
L 219.589229 222.102725 
L 220.783567 212.651478 
L 220.860621 212.729756 
L 221.01473 213.557333 
L 221.207365 214.5261 
L 221.245892 214.451591 
L 221.477054 213.510801 
L 221.515581 213.53124 
L 221.669689 214.049617 
L 221.823797 214.572343 
L 221.862325 214.554658 
L 221.977906 214.083538 
L 222.632865 211.28581 
L 222.709919 211.305959 
L 222.864028 211.942623 
L 222.902555 212.127737 
L 222.941082 212.105413 
L 223.172244 211.024302 
L 223.249298 211.065325 
L 223.48046 210.50491 
L 223.596041 210.215425 
L 223.634568 210.245722 
L 223.904258 211.06866 
L 224.212474 212.468538 
L 224.751853 213.081429 
L 224.79038 213.037941 
L 224.867434 212.851523 
L 225.445339 209.317688 
L 225.522394 209.261878 
L 225.560921 209.29029 
L 225.676502 209.482942 
L 225.83061 209.772282 
L 225.869137 209.751988 
L 226.177353 208.812647 
L 226.21588 208.880633 
L 226.408516 209.625583 
L 226.447043 209.496278 
L 226.678205 208.80308 
L 226.793786 208.958187 
L 226.986421 209.407998 
L 227.024948 209.347984 
L 227.333165 207.989419 
L 227.371692 208.034502 
L 227.410219 208.052332 
L 227.487273 207.567296 
L 227.988124 200.216664 
L 228.527503 191.203921 
L 228.874246 188.29153 
L 229.336571 186.452567 
L 229.413625 186.170475 
L 229.683314 183.096743 
L 229.953003 178.823322 
L 230.26122 168.683225 
L 230.376801 157.434329 
L 230.415328 139.263013 
L 230.453855 46.526593 
L 230.492382 119.907519 
L 230.64649 197.336309 
L 230.685017 197.563461 
L 231.571139 173.720585 
L 231.725247 163.626876 
L 231.802301 140.30948 
L 231.840829 42.640215 
L 231.879356 110.263186 
L 232.033464 196.17141 
L 232.071991 196.687323 
L 232.110518 195.84525 
L 233.112221 165.136634 
L 233.189275 155.244564 
L 233.266329 55.302906 
L 233.304856 134.299583 
L 233.458964 194.417974 
L 233.497491 194.459288 
L 233.959816 181.316779 
L 234.268032 169.807825 
L 234.383613 160.486462 
L 234.42214 151.879462 
L 234.460667 51.69978 
L 234.499194 72.942654 
L 234.653303 192.233717 
L 234.69183 194.323895 
L 234.768884 192.91039 
L 235.308262 173.243377 
L 235.462371 156.457879 
L 235.539425 50.70434 
L 235.577952 127.020852 
L 235.73206 196.808364 
L 235.770587 196.783286 
L 236.502601 174.876931 
L 236.656709 164.422561 
L 236.733763 138.654181 
L 236.77229 41.370511 
L 236.810817 108.325215 
L 236.964925 195.949187 
L 237.003452 195.938604 
L 237.773993 165.959862 
L 237.851047 154.976677 
L 237.928101 57.284364 
L 237.966628 137.757749 
L 238.120736 195.131902 
L 238.159264 195.06609 
L 238.506007 184.605197 
L 238.737169 172.693834 
L 238.85275 159.846319 
L 238.891277 141.36015 
L 238.929804 36.702074 
L 238.968331 97.982464 
L 239.12244 197.224255 
L 239.160967 197.465468 
L 239.89298 168.812385 
L 240.008562 151.999199 
L 240.047089 43.478519 
L 240.085616 72.876407 
L 240.239724 193.377596 
L 240.278251 194.735871 
L 240.316778 193.526615 
L 240.933211 161.327375 
L 240.971738 152.893312 
L 241.010265 56.065396 
L 241.048792 66.496572 
L 241.2029 191.515875 
L 241.241427 193.572422 
L 241.279954 192.979536 
L 241.973441 164.91383 
L 242.050495 149.107102 
L 242.089022 36.476806 
L 242.127549 82.096298 
L 242.281657 192.600031 
L 242.320184 193.986718 
L 242.358711 193.285112 
L 243.206306 162.314988 
L 243.244833 155.608703 
L 243.321887 52.590415 
L 243.360414 128.98332 
L 243.514522 192.47725 
L 243.553049 192.301993 
L 244.015374 173.7777 
L 244.169482 162.26918 
L 244.208009 154.835052 
L 244.285063 55.887385 
L 244.32359 134.01952 
L 244.477699 192.913579 
L 244.554753 191.049394 
L 245.094131 164.848164 
L 245.171185 137.777318 
L 245.209712 38.994906 
L 245.248239 101.845358 
L 245.402348 194.14255 
L 245.440875 194.581634 
L 245.749091 183.207637 
L 246.057307 168.34112 
L 246.134361 158.786226 
L 246.172888 140.265557 
L 246.211415 38.933588 
L 246.249942 101.405405 
L 246.404051 194.10747 
L 246.442578 194.458853 
L 247.136064 170.088612 
L 247.251646 158.619812 
L 247.290173 142.959348 
L 247.3287 38.92808 
L 247.367227 99.681685 
L 247.521335 192.849362 
L 247.559862 193.284532 
L 247.906605 180.348446 
L 248.176295 164.097416 
L 248.253349 137.266624 
L 248.291876 40.985352 
L 248.330403 106.06297 
L 248.484511 193.904671 
L 248.523038 194.253444 
L 248.869781 181.662364 
L 249.139471 165.82244 
L 249.216525 149.907571 
L 249.255052 34.420548 
L 249.293579 78.251669 
L 249.447687 193.111015 
L 249.486214 194.298382 
L 249.524741 193.210747 
L 250.141174 164.20802 
L 250.218228 138.31512 
L 250.256755 40.61324 
L 250.295282 105.148417 
L 250.44939 193.221764 
L 250.487917 193.254235 
L 251.065823 166.362126 
L 251.142877 156.872609 
L 251.181404 135.391857 
L 251.219931 44.587463 
L 251.258458 112.355973 
L 251.412566 191.763322 
L 251.451093 192.054836 
L 252.183107 169.995983 
L 252.298688 155.624214 
L 252.375742 53.232008 
L 252.414269 130.204173 
L 252.568377 193.828712 
L 252.606904 193.501682 
L 253.18481 168.926613 
L 253.300391 153.163663 
L 253.338918 54.298768 
L 253.377445 64.754733 
L 253.531554 191.247119 
L 253.570081 193.432971 
L 253.647135 191.53501 
L 254.147986 169.361928 
L 254.22504 159.736584 
L 254.263567 141.958545 
L 254.302094 36.013514 
L 254.340621 95.017308 
L 254.49473 194.648026 
L 254.533257 195.002598 
L 255.072635 171.322802 
L 255.188216 162.016805 
L 255.226743 154.625874 
L 255.303797 57.537175 
L 255.342325 136.835658 
L 255.496433 192.641054 
L 255.612014 188.52419 
L 255.997284 168.948937 
L 256.074338 158.113032 
L 256.151392 42.091687 
L 256.189919 108.955356 
L 256.344028 193.578801 
L 256.382555 193.243218 
L 256.844879 167.005748 
L 256.921933 154.123878 
L 256.96046 54.358347 
L 257.037514 138.949175 
L 257.191623 193.338892 
L 257.307204 189.447441 
L 257.846582 161.093844 
L 257.885109 150.646867 
L 257.923636 35.690543 
L 257.962163 74.3679 
L 258.116272 191.29713 
L 258.154799 192.743541 
L 258.193326 191.863924 
L 258.848285 165.066183 
L 258.925339 148.405786 
L 258.963867 35.454403 
L 259.002394 83.073038 
L 259.156502 192.042515 
L 259.195029 193.390498 
L 259.233556 192.679614 
L 259.849988 170.354179 
L 259.96557 158.025621 
L 260.004097 137.296921 
L 260.042624 41.468504 
L 260.081151 107.010283 
L 260.235259 194.046442 
L 260.273786 194.614685 
L 260.312313 193.728834 
L 260.967273 171.671721 
L 261.082854 161.29244 
L 261.121381 151.284981 
L 261.159908 36.559723 
L 261.198435 74.811913 
L 261.352543 194.419279 
L 261.39107 196.363192 
L 261.468124 195.022602 
L 262.469827 167.085331 
L 262.585409 153.276442 
L 262.662463 66.154177 
L 262.816571 191.77028 
L 262.893625 194.773416 
L 262.932152 194.050066 
L 263.355949 186.830333 
L 263.74122 179.252549 
L 264.049436 169.449194 
L 264.165017 160.341792 
L 264.203544 151.884971 
L 264.242071 54.09336 
L 264.280598 73.944472 
L 264.434707 192.38491 
L 264.473234 194.520316 
L 264.550288 193.250611 
L 265.551991 163.124879 
L 265.629045 150.047458 
L 265.667572 51.609325 
L 265.706099 81.016056 
L 265.860207 190.550441 
L 265.937261 193.022154 
L 265.975788 192.647578 
L 266.284005 190.13687 
L 266.592221 188.847161 
L 266.86191 188.379085 
L 267.054545 187.776342 
L 268.056249 182.963235 
L 268.210357 182.12754 
L 268.518573 180.427305 
L 269.327641 174.812424 
L 269.558803 170.136884 
L 269.751438 161.405653 
L 269.828493 146.465061 
L 269.86702 46.129692 
L 269.905547 94.302075 
L 270.059655 188.504621 
L 270.213763 191.874071 
L 270.483452 192.67657 
L 270.521979 192.793552 
L 270.560506 192.690051 
L 270.753142 192.111081 
L 270.791669 192.124707 
L 270.984304 192.492905 
L 271.215466 193.334108 
L 271.446628 194.801683 
L 274.143521 218.193588 
L 274.259102 217.611574 
L 274.6829 216.038758 
L 274.798481 216.427251 
L 275.06817 218.646878 
L 275.569022 222.689813 
L 275.800184 223.783246 
L 275.838711 223.625675 
L 275.992819 223.185721 
L 276.031346 223.212104 
L 276.185455 223.688587 
L 276.532198 224.848557 
L 276.840414 225.989392 
L 276.917468 225.76195 
L 277.456847 223.13513 
L 277.688009 222.84434 
L 278.034753 221.167878 
L 278.07328 221.206727 
L 278.304442 221.800338 
L 278.381496 221.634649 
L 278.535604 221.500416 
L 278.728239 221.601453 
L 278.920875 221.882531 
L 278.959402 221.817154 
L 279.229091 221.25065 
L 279.344672 221.315157 
L 280.038159 222.744898 
L 280.654591 225.120357 
L 280.962808 225.379691 
L 281.232497 225.511749 
L 281.463659 225.386649 
L 281.579241 225.521172 
L 281.84893 224.718093 
L 281.887457 224.748245 
L 282.080092 225.280103 
L 282.2342 225.485076 
L 282.311254 225.085712 
L 282.580944 223.62495 
L 282.657998 223.671047 
L 282.735052 223.75092 
L 282.966214 223.197753 
L 283.004741 223.229644 
L 283.158849 223.694965 
L 283.312957 224.273936 
L 283.351484 224.224214 
L 283.775282 223.122808 
L 283.813809 223.17253 
L 283.967917 223.690762 
L 284.122025 224.480649 
L 284.199079 224.442379 
L 284.276133 224.246538 
L 284.622877 222.991475 
L 285.008147 223.171225 
L 285.123728 223.288208 
L 285.277837 223.616252 
L 285.316364 223.559283 
L 285.431945 222.4644 
L 285.894269 215.895538 
L 286.125432 215.52357 
L 286.395121 214.914448 
L 286.703337 213.982645 
L 286.818918 214.036426 
L 286.973026 213.94829 
L 287.011554 213.997431 
L 287.165662 214.596551 
L 288.244419 220.809827 
L 288.321473 220.671535 
L 288.74527 217.870038 
L 289.092014 217.30049 
L 289.207595 217.027675 
L 289.246122 217.06609 
L 289.438757 217.678836 
L 289.708446 218.524097 
L 289.824028 218.632527 
L 290.209298 219.437055 
L 290.517514 219.424879 
L 290.671623 219.959926 
L 290.825731 220.214766 
L 291.056893 220.350883 
L 291.09542 220.281447 
L 291.827434 217.954839 
L 292.020069 217.524888 
L 292.13565 217.505898 
L 292.251231 217.853222 
L 292.559448 218.937088 
L 292.713556 219.514609 
L 292.906191 220.57876 
L 292.944718 220.502221 
L 293.368516 218.599476 
L 294.100529 214.020045 
L 294.177583 214.127026 
L 294.601381 215.990341 
L 295.217814 219.595497 
L 296.065409 227.027451 
L 296.18099 227.353176 
L 296.219517 227.325054 
L 296.450679 227.170816 
L 296.604787 227.35825 
L 296.913003 227.746018 
L 297.105639 227.935915 
L 297.452382 228.649843 
L 297.529436 228.436752 
L 297.953234 227.613524 
L 298.030288 227.492338 
L 298.299977 225.980405 
L 298.64672 223.820791 
L 298.800829 223.627559 
L 298.993464 223.093961 
L 299.031991 223.109762 
L 299.147572 223.38881 
L 299.571369 224.62097 
L 299.841059 225.915608 
L 299.95664 226.416444 
L 299.995167 226.362229 
L 300.149275 226.111304 
L 301.112451 220.271735 
L 301.343613 219.244259 
L 301.420667 219.349789 
L 301.613303 220.279273 
L 302.268262 223.744687 
L 302.383843 223.606105 
L 302.769114 222.66343 
L 302.807641 222.679666 
L 303.07733 222.741274 
L 303.192911 222.80694 
L 303.308493 222.82854 
L 303.424074 222.914791 
L 303.501128 223.127302 
L 303.578182 223.016408 
L 303.770817 222.39163 
L 304.11756 219.730164 
L 304.579885 217.06493 
L 304.656939 217.176839 
L 304.811047 217.97122 
L 305.234845 221.110184 
L 305.311899 221.082786 
L 305.388953 221.132797 
L 305.658642 221.856583 
L 305.735696 221.704955 
L 306.005386 220.18273 
L 306.429183 215.989327 
L 306.544764 215.794645 
L 306.583291 215.854659 
L 306.737399 216.592215 
L 307.161197 218.536999 
L 307.315305 218.771254 
L 307.430886 219.064508 
L 307.584994 219.606514 
L 307.623521 219.569839 
L 307.931738 217.860905 
L 308.008792 217.97035 
L 308.239954 219.089876 
L 308.933441 223.20848 
L 309.665455 228.178578 
L 309.85809 228.955709 
L 309.896617 228.911496 
L 310.281887 228.024341 
L 310.320414 228.043765 
L 310.513049 228.196553 
L 310.551577 228.111752 
L 310.705685 226.278588 
L 311.013901 223.589 
L 311.322117 220.50802 
L 311.591807 215.743909 
L 311.900023 210.979509 
L 312.786145 207.355364 
L 313.132888 207.407405 
L 313.364051 207.66065 
L 313.441105 207.458576 
L 313.63374 206.540254 
L 313.672267 206.561853 
L 313.787848 206.99166 
L 314.173119 208.922817 
L 314.250173 208.950214 
L 314.365754 209.431481 
L 315.136295 215.497622 
L 315.675673 221.094818 
L 315.98389 222.404676 
L 316.176525 222.494407 
L 316.831484 224.056786 
L 316.947066 223.454912 
L 317.370863 220.773732 
L 317.40939 220.813016 
L 317.486444 220.947828 
L 317.524971 220.85259 
L 317.833188 219.260494 
L 318.179931 217.145963 
L 318.411093 217.549531 
L 318.834891 218.708486 
L 319.220161 219.999355 
L 319.721013 222.411055 
L 319.913648 223.502604 
L 319.952175 223.456216 
L 320.183337 222.996838 
L 320.221864 223.030904 
L 320.375972 223.467668 
L 321.069459 226.386148 
L 321.107986 226.321931 
L 321.262094 225.83443 
L 321.570311 224.324817 
L 321.647365 224.165796 
L 321.994108 222.963642 
L 322.109689 222.985676 
L 322.302325 223.148611 
L 322.726122 222.344518 
L 323.804879 216.132837 
L 323.881933 216.248805 
L 324.074568 217.444435 
L 324.691001 223.799627 
L 324.999217 226.01679 
L 325.153326 225.971417 
L 325.23038 225.871975 
L 325.500069 224.200876 
L 325.885339 219.882662 
L 326.27061 216.117181 
L 326.309137 216.173136 
L 326.463245 216.950267 
L 326.964097 220.151708 
L 327.349367 220.448876 
L 327.503475 220.244193 
L 327.542002 220.277244 
L 327.69611 220.802289 
L 327.850219 221.594785 
L 327.888746 221.55782 
L 328.158435 220.535417 
L 328.235489 220.48961 
L 328.466651 219.828882 
L 328.505178 219.859614 
L 328.659287 220.406838 
L 329.00603 222.953785 
L 329.352773 224.956987 
L 329.429827 224.870591 
L 329.815098 222.883479 
L 329.892152 222.956829 
L 330.084787 223.673801 
L 330.393003 225.182255 
L 330.43153 225.020335 
L 330.662693 224.13318 
L 330.778274 224.264658 
L 331.125017 225.104991 
L 331.163544 225.050776 
L 331.279125 224.960321 
L 331.317652 224.994677 
L 331.779977 226.002874 
L 332.319356 227.350857 
L 332.473464 226.865241 
L 332.627572 225.949963 
L 332.820207 225.365774 
L 332.897261 225.3636 
L 332.974315 224.674315 
L 333.282532 221.767142 
L 333.552221 221.327479 
L 333.667802 221.394885 
L 333.860437 222.195934 
L 334.630978 226.345559 
L 334.746559 226.303666 
L 334.86214 225.984319 
L 335.324465 223.659885 
L 335.709735 222.217098 
L 335.825316 222.386556 
L 336.056479 222.751711 
L 336.403222 223.456651 
L 336.55733 223.436647 
L 336.711438 223.619296 
L 336.865547 224.015617 
L 336.904074 223.934584 
L 337.135236 222.591675 
L 337.520506 219.981815 
L 337.59756 219.933398 
L 337.636087 220.000805 
L 338.021358 221.489399 
L 338.406628 223.701199 
L 338.445155 223.671047 
L 338.753372 223.112661 
L 338.791899 223.131361 
L 339.138642 223.608714 
L 339.523913 222.02807 
L 339.600967 222.117076 
L 339.793602 222.889568 
L 339.986237 223.459405 
L 340.217399 222.912326 
L 340.255926 222.93726 
L 340.410035 223.383591 
L 340.679724 224.217836 
L 340.833832 224.239145 
L 341.026467 224.751579 
L 341.103521 224.528051 
L 341.257629 224.20276 
L 341.296157 224.231752 
L 341.450265 224.67359 
L 341.6429 225.355047 
L 341.681427 225.343016 
L 342.29786 224.061569 
L 342.606076 223.987495 
L 342.875765 223.67757 
L 343.029873 223.667568 
L 343.33809 223.041196 
L 343.646306 223.565661 
L 343.684833 223.658725 
L 343.72336 223.598857 
L 343.838941 223.392579 
L 343.877468 223.420846 
L 343.993049 223.631038 
L 344.031577 223.596393 
L 344.224212 223.206015 
L 344.339793 223.461 
L 344.802117 224.817246 
L 344.956226 225.0357 
L 344.994753 224.924371 
L 345.225915 224.447888 
L 345.380023 224.442379 
L 345.649712 223.834707 
L 345.80382 224.176378 
L 346.266145 225.404044 
L 346.381726 225.406508 
L 346.574361 224.209863 
L 346.766997 223.584071 
L 346.882578 223.337204 
L 347.11374 221.276453 
L 347.383429 220.068501 
L 347.576064 219.992397 
L 347.730173 218.763136 
L 348.15397 215.838858 
L 348.539241 213.994097 
L 348.616295 214.09412 
L 348.885984 214.620469 
L 348.924511 214.668306 
L 348.963038 214.623659 
L 349.117146 214.393607 
L 349.540944 215.10768 
L 349.772106 215.473124 
L 349.887687 215.582424 
L 350.041795 215.722745 
L 350.157376 215.904235 
L 350.350012 216.890253 
L 350.927917 220.678783 
L 351.043498 220.638629 
L 351.313188 220.605288 
L 351.390242 220.663707 
L 351.428769 220.620944 
L 351.659931 220.552957 
L 351.775512 220.818524 
L 352.430472 223.105993 
L 352.507526 223.057286 
L 352.661634 222.476867 
L 353.046904 220.030232 
L 353.085432 220.038929 
L 353.432175 220.453515 
L 353.62481 220.054295 
L 353.663337 220.103581 
L 353.817445 220.711979 
L 354.66504 225.370993 
L 354.857675 224.98424 
L 354.896203 225.016566 
L 355.050311 225.296049 
L 355.088838 225.206463 
L 355.204419 224.594297 
L 355.666743 220.992186 
L 355.859379 220.283187 
L 355.97496 220.498452 
L 356.437284 221.967622 
L 356.475811 221.945298 
L 356.861082 219.340222 
L 356.899609 219.392698 
L 357.053717 220.060963 
L 357.824258 223.580737 
L 358.05542 224.38686 
L 358.556272 226.366288 
L 358.864488 227.045861 
L 358.903015 226.977005 
L 359.365339 226.048246 
L 359.557975 225.79819 
L 359.712083 226.030416 
L 359.866191 226.43239 
L 359.904718 226.377885 
L 360.058826 226.248871 
L 360.13588 226.224228 
L 360.289988 226.050276 
L 360.328516 226.072599 
L 360.444097 226.07028 
L 360.521151 225.751078 
L 360.752313 224.542547 
L 360.867894 224.599806 
L 361.060529 225.240384 
L 361.17611 225.688165 
L 361.253165 225.657144 
L 361.330219 225.551758 
L 361.484327 225.315763 
L 361.522854 225.336927 
L 361.792543 225.321127 
L 361.946651 225.187619 
L 362.100759 225.518127 
L 362.293395 225.842838 
L 362.524557 225.772822 
L 362.717192 225.92561 
L 362.8713 225.642938 
L 363.372152 223.482309 
L 363.603314 222.547752 
L 363.680368 222.546447 
L 363.950058 221.88543 
L 364.142693 221.754531 
L 364.258274 221.77758 
L 364.527963 222.49919 
L 365.337031 224.940172 
L 365.375558 224.883927 
L 365.645247 224.376132 
L 365.760829 224.388164 
L 365.87641 224.543851 
L 365.914937 224.51254 
L 366.030518 224.553419 
L 366.223153 225.168629 
L 366.492842 226.244232 
L 366.531369 226.167548 
L 367.109275 225.019175 
L 367.147802 224.974817 
L 367.456018 223.370255 
L 367.5716 223.591464 
L 367.725708 223.844999 
L 368.188032 222.736345 
L 368.380667 222.226231 
L 368.496249 222.433379 
L 368.727411 222.849414 
L 368.842992 222.996548 
L 369.035627 223.701344 
L 369.536479 225.741801 
L 369.690587 225.88792 
L 369.998803 225.087886 
L 370.229965 223.96749 
L 370.499655 223.792379 
L 370.653763 222.68358 
L 370.846398 222.061846 
L 371.308723 222.842746 
L 371.578412 223.572764 
L 371.655466 223.392579 
L 372.271899 221.077423 
L 372.38748 221.30443 
L 373.080967 223.804265 
L 373.158021 223.75063 
L 373.273602 223.928786 
L 373.504764 224.654601 
L 373.581818 224.578352 
" style="fill:none;stroke:#000000;stroke-linecap:square;stroke-width:1.5;"/>
   </g>
   <g id="line2d_19">
    <path clip-path="url(#p4c461c4f76)" d="M 69.218182 227.582938 
L 69.487871 227.146753 
L 69.564925 227.246196 
L 69.680506 227.333461 
L 69.719033 227.308383 
L 69.911669 227.001503 
L 69.950196 227.023827 
L 70.02725 227.097032 
L 70.065777 227.038903 
L 70.836318 223.349961 
L 70.913372 223.456506 
L 71.106007 224.482823 
L 71.876548 229.636731 
L 71.915075 229.538013 
L 72.338872 226.715352 
L 72.608562 224.265528 
L 72.685616 224.18696 
L 72.724143 224.227838 
L 73.302048 225.369833 
L 74.034062 229.222145 
L 74.149643 229.041235 
L 74.45786 228.152485 
L 74.650495 227.561773 
L 74.766076 227.654403 
L 74.997238 228.363837 
L 75.112819 228.521264 
L 75.151346 228.493866 
L 75.575144 227.93809 
L 75.88336 226.412676 
L 76.461266 221.126709 
L 76.576847 221.012336 
L 76.615374 221.043067 
L 77.077699 221.041038 
L 77.540023 222.584137 
L 77.617077 222.449614 
L 77.694131 222.351186 
L 77.732658 222.400473 
L 77.848239 222.686044 
L 77.925293 222.656617 
L 77.96382 222.670098 
L 78.272037 221.594785 
L 78.310564 221.63059 
L 78.349091 221.66625 
L 78.387618 221.587972 
L 78.657307 220.146345 
L 78.811415 218.472202 
L 79.119632 214.332144 
L 79.466375 212.689167 
L 79.543429 212.796148 
L 79.9287 213.797966 
L 80.044281 214.03918 
L 80.468078 216.299976 
L 80.891876 218.508297 
L 81.007457 217.926282 
L 81.315673 216.604537 
L 81.431254 216.425656 
L 81.816525 215.051725 
L 81.893579 215.177116 
L 82.124741 215.812331 
L 82.163268 215.792616 
L 82.278849 215.63258 
L 82.471484 215.084631 
L 82.510012 215.137397 
L 82.779701 215.663457 
L 83.04939 216.316067 
L 83.203498 216.352162 
L 83.434661 216.91823 
L 84.012566 218.832717 
L 84.282255 220.010662 
L 84.474891 220.572237 
L 84.860161 221.950807 
L 85.361013 220.430611 
L 85.476594 220.196646 
L 85.630702 219.783655 
L 85.669229 219.81946 
L 85.707756 219.750024 
L 86.054499 216.573805 
L 86.093026 216.581053 
L 86.208608 216.948817 
L 86.979148 220.88622 
L 87.017675 220.840703 
L 87.133257 220.778805 
L 87.171784 220.819394 
L 87.595581 221.84977 
L 87.980852 223.526522 
L 88.019379 223.481729 
L 88.289068 222.984227 
L 88.558757 220.821713 
L 88.712865 220.709079 
L 89.136663 219.892955 
L 89.252244 219.659714 
L 89.56046 218.263024 
L 89.753096 218.060225 
L 89.868677 218.247079 
L 90.099839 219.140757 
L 90.176893 218.934624 
L 90.253947 218.863449 
L 90.292474 218.922592 
L 90.446582 219.630432 
L 90.908907 222.005892 
L 90.985961 221.929498 
L 91.140069 221.70394 
L 91.178596 221.729743 
L 91.371231 222.224201 
L 91.872083 223.798612 
L 92.103245 224.154634 
L 92.180299 224.253206 
L 92.95084 221.169037 
L 93.220529 220.287101 
L 93.33611 220.5244 
L 93.567273 221.81092 
L 94.029597 224.323077 
L 94.106651 224.38483 
L 94.145178 224.356273 
L 94.453395 224.098824 
L 94.684557 223.046994 
L 95.146881 219.310795 
L 95.416571 219.209033 
L 96.07153 220.499467 
L 96.187112 220.840993 
L 96.225639 220.715168 
L 96.456801 218.753859 
L 96.765017 216.455953 
L 96.919125 216.333607 
L 96.957652 216.363903 
L 96.99618 216.398259 
L 97.034707 216.310703 
L 97.227342 215.749418 
L 97.342923 216.100221 
L 97.612612 218.086463 
L 97.843774 219.232227 
L 97.997883 219.226718 
L 98.151991 219.779596 
L 98.267572 220.284347 
L 98.306099 220.185194 
L 98.691369 219.025369 
L 98.806951 218.688047 
L 98.961059 218.076751 
L 98.999586 218.094871 
L 99.384856 218.898384 
L 99.423383 218.776763 
L 99.654545 218.229394 
L 99.770127 218.231713 
L 99.924235 218.763861 
L 100.386559 221.223397 
L 100.463613 221.166138 
L 100.579194 221.236299 
L 100.964465 222.216663 
L 101.002992 222.161144 
L 101.272681 221.445331 
L 101.311208 221.467075 
L 101.465316 221.874268 
L 101.696479 222.450629 
L 101.81206 222.731561 
L 102.235857 224.211313 
L 102.274384 224.195367 
L 102.312911 224.185365 
L 102.544074 223.558848 
L 102.582601 223.609439 
L 102.967871 224.165071 
L 103.121979 223.984016 
L 103.661358 221.103371 
L 103.738412 221.176285 
L 103.89252 221.586232 
L 103.931047 221.50491 
L 104.085155 220.821278 
L 104.316318 219.709145 
L 104.624534 220.036755 
L 104.894223 219.760751 
L 104.93275 219.805399 
L 105.086858 220.311744 
L 105.664764 222.71953 
L 105.818872 222.725183 
L 105.97298 222.530502 
L 106.204143 220.896513 
L 106.62794 217.694346 
L 106.743521 218.000937 
L 107.128792 220.368568 
L 107.244373 220.875928 
L 107.2829 220.828381 
L 107.398481 220.767353 
L 107.514062 221.063796 
L 107.783751 222.668939 
L 108.284603 225.63424 
L 108.7084 226.689259 
L 108.785455 226.747533 
L 108.823982 226.659108 
L 109.209252 224.963076 
L 109.324833 224.324092 
L 109.748631 221.84716 
L 109.902739 221.681761 
L 110.365063 219.497649 
L 110.442117 219.637825 
L 110.634753 220.593401 
L 111.174131 223.51478 
L 111.328239 223.577403 
L 111.674983 223.440416 
L 111.867618 222.161144 
L 112.060253 221.4865 
L 112.175834 221.653639 
L 112.406997 222.749681 
L 112.792267 224.537328 
L 112.984902 225.304166 
L 113.061956 225.240674 
L 113.177537 225.32562 
L 113.293119 225.622354 
L 113.331646 225.523346 
L 113.447227 225.348814 
L 113.485754 225.383749 
L 113.639862 225.595681 
L 113.755443 225.031497 
L 114.44893 220.756916 
L 114.525984 220.432206 
L 114.911254 217.877431 
L 115.180944 218.310281 
L 115.643268 219.87498 
L 115.797376 219.887736 
L 116.067066 218.93187 
L 116.105593 218.970574 
L 116.259701 219.571143 
L 116.760552 221.944573 
L 116.837606 221.918191 
L 116.991715 221.709013 
L 117.18435 221.39532 
L 117.299931 221.568692 
L 117.338458 221.513028 
L 117.685201 220.116628 
L 117.723728 220.141561 
L 118.147526 220.312324 
L 118.455742 220.868535 
L 118.725432 220.538751 
L 118.802486 220.670665 
L 119.072175 221.512883 
L 119.110702 221.459972 
L 119.26481 220.643702 
L 119.457445 220.103002 
L 119.573026 219.915568 
L 119.996824 217.780163 
L 120.112405 218.068053 
L 121.114108 222.224636 
L 121.383797 222.433813 
L 121.422325 222.351186 
L 121.61496 221.890358 
L 121.653487 221.903695 
L 121.769068 222.158244 
L 122.038757 222.88116 
L 122.231392 222.86449 
L 122.308446 222.846949 
L 122.539609 222.605881 
L 123.348677 223.740193 
L 123.541312 224.167825 
L 123.579839 224.087662 
L 123.888055 223.432733 
L 124.08069 223.46042 
L 124.273326 223.961982 
L 124.658596 225.098178 
L 125.005339 225.567269 
L 125.043867 225.483917 
L 125.197975 224.106507 
L 125.544718 221.096268 
L 126.122624 218.071242 
L 126.353786 218.198952 
L 126.546421 219.11249 
L 126.777583 220.078068 
L 126.970219 219.749879 
L 127.008746 219.81801 
L 127.394016 221.298052 
L 127.856341 223.064534 
L 128.087503 222.827815 
L 128.12603 222.896236 
L 128.318665 223.614223 
L 128.549827 224.787674 
L 128.588354 224.69432 
L 128.896571 223.119039 
L 128.935098 223.166151 
L 129.089206 223.277771 
L 129.204787 223.40809 
L 129.435949 224.222765 
L 129.513003 224.104188 
L 129.667112 223.278495 
L 129.975328 221.709158 
L 130.052382 221.743514 
L 130.20649 222.269719 
L 130.47618 223.55044 
L 130.514707 223.530291 
L 130.745869 223.184271 
L 130.784396 223.220076 
L 130.938504 223.632053 
L 131.362301 224.881318 
L 131.554937 225.531029 
L 131.709045 226.041868 
L 131.747572 225.989392 
L 132.094315 225.20081 
L 132.171369 225.264737 
L 132.209896 225.159351 
L 132.402532 224.793182 
L 132.55664 225.108325 
L 132.749275 225.418685 
L 132.787802 225.416076 
L 132.94191 224.572408 
L 133.365708 222.374815 
L 133.442762 222.417433 
L 133.59687 221.961824 
L 133.635397 221.97342 
L 133.750978 222.28378 
L 134.482992 225.348524 
L 134.521519 225.330549 
L 134.868262 224.440785 
L 134.906789 224.47398 
L 135.099425 224.96554 
L 135.369114 225.56263 
L 135.484695 225.47406 
L 135.638803 225.455215 
L 135.94702 225.528999 
L 136.139655 225.384764 
L 136.563452 225.121662 
L 136.833142 224.043304 
L 137.680736 215.835379 
L 137.873372 215.711293 
L 137.950426 215.696363 
L 137.988953 215.757826 
L 138.143061 216.453924 
L 138.335696 217.165677 
L 138.41275 217.127408 
L 138.528331 216.03209 
L 138.759494 214.361716 
L 138.990656 214.086002 
L 139.029183 214.131664 
L 139.221818 214.87328 
L 140.030886 218.918099 
L 140.339102 220.496713 
L 140.377629 220.485986 
L 140.7629 218.937233 
L 140.801427 218.964486 
L 140.955535 219.428358 
L 141.41786 221.224412 
L 141.456387 221.216294 
L 141.687549 220.401909 
L 141.726076 220.440179 
L 141.995765 220.777645 
L 142.111346 220.942465 
L 142.1884 221.01625 
L 142.226928 220.974066 
L 142.381036 220.809102 
L 142.419563 220.846356 
L 142.45809 220.893468 
L 142.496617 220.825337 
L 142.958941 218.497425 
L 142.997468 218.509456 
L 143.190104 218.578747 
L 143.382739 216.834878 
L 143.729482 214.386939 
L 144.15328 212.573199 
L 144.268861 212.920813 
L 144.500023 213.740417 
L 144.615604 213.67736 
L 144.808239 212.604801 
L 144.846766 212.642055 
L 144.962348 213.163332 
L 145.270564 216.133127 
L 145.809942 220.54513 
L 146.23374 223.263999 
L 146.696064 224.789413 
L 146.8887 225.05614 
L 146.965754 224.819565 
L 147.428078 221.502011 
L 147.466605 221.528248 
L 147.620713 221.981683 
L 147.967457 224.037361 
L 148.275673 225.699907 
L 148.3142 225.654535 
L 148.506835 225.478408 
L 148.660944 225.630471 
L 148.853579 223.911536 
L 149.238849 220.794316 
L 149.315903 220.865926 
L 149.508539 221.674368 
L 149.855282 223.446504 
L 149.893809 223.400552 
L 150.124971 222.8829 
L 150.202025 222.922764 
L 150.356133 222.641396 
L 150.394661 222.685899 
L 150.433188 222.768091 
L 150.471715 222.682565 
L 150.587296 222.478896 
L 150.625823 222.524848 
L 150.741404 222.710397 
L 150.779931 222.686624 
L 150.856985 222.738229 
L 151.011093 223.267044 
L 151.242255 223.958648 
L 151.280783 224.027504 
L 151.31931 223.982421 
L 151.550472 223.547396 
L 151.666053 223.742077 
L 152.08985 224.835511 
L 152.128377 224.81942 
L 152.513648 223.899794 
L 152.590702 223.470567 
L 152.898918 220.796635 
L 153.130081 220.103871 
L 153.168608 220.134458 
L 153.322716 220.667186 
L 153.669459 222.312192 
L 153.707986 222.30016 
L 153.823567 222.331327 
L 153.977675 222.71779 
L 154.208838 223.160788 
L 154.517054 223.105413 
L 154.786743 223.370835 
L 154.979379 223.207175 
L 155.017906 223.254432 
L 155.287595 223.910231 
L 155.364649 223.751355 
L 155.48023 223.625675 
L 155.518757 223.66148 
L 155.826974 224.080269 
L 155.942555 223.861814 
L 156.058136 222.856082 
L 156.443406 219.046388 
L 156.636041 218.902733 
L 156.674568 218.96724 
L 156.828677 219.614921 
L 157.406582 223.318069 
L 157.445109 223.094396 
L 158.177123 217.919034 
L 158.292704 218.157204 
L 158.485339 218.471767 
L 158.677975 219.500403 
L 158.947664 220.7804 
L 159.063245 220.259703 
L 159.294407 219.245708 
L 159.371461 219.325581 
L 159.564097 220.12692 
L 159.718205 220.728214 
L 159.756732 220.679073 
L 159.872313 220.674579 
L 160.026421 221.162804 
L 160.29611 222.023432 
L 160.334638 222.013429 
L 160.604327 220.985373 
L 160.681381 221.062202 
L 161.105178 222.315671 
L 161.490449 223.95198 
L 161.567503 224.101868 
L 161.60603 224.064324 
L 161.760138 223.465639 
L 162.029827 222.546302 
L 162.145409 222.748667 
L 162.376571 223.520724 
L 162.415098 223.470422 
L 162.569206 222.966396 
L 162.607733 222.981037 
L 162.723314 223.282409 
L 163.070058 225.209508 
L 163.147112 225.501167 
L 163.185639 225.458114 
L 163.262693 225.169499 
L 163.493855 224.20218 
L 163.647963 224.039825 
L 163.879125 223.710041 
L 164.071761 223.979522 
L 164.110288 223.819921 
L 164.457031 221.822372 
L 164.649666 220.990447 
L 164.72672 220.756336 
L 164.919356 220.158086 
L 164.957883 220.148374 
L 165.150518 219.505476 
L 165.189045 219.516348 
L 165.343153 219.804674 
L 165.497261 220.187223 
L 165.535788 220.095899 
L 165.689896 219.886431 
L 165.805478 220.14475 
L 166.075167 221.673643 
L 166.344856 222.812159 
L 166.730127 224.178987 
L 167.038343 225.168339 
L 167.230978 225.109195 
L 167.46214 225.519867 
L 167.500667 225.456519 
L 167.847411 223.78571 
L 168.232681 221.106995 
L 168.309735 221.164834 
L 168.695006 222.134616 
L 168.733533 222.092868 
L 168.926168 221.534192 
L 168.964695 221.572896 
L 169.118803 222.132876 
L 169.272911 222.703294 
L 169.311438 222.661111 
L 169.542601 222.141429 
L 169.658182 222.35539 
L 169.889344 222.7549 
L 170.004925 222.796358 
L 170.46725 223.689457 
L 170.929574 225.382445 
L 170.968101 225.459853 
L 171.006628 225.381575 
L 171.546007 222.762148 
L 171.931277 218.407404 
L 172.085386 217.911061 
L 172.200967 218.196778 
L 172.316548 218.473941 
L 172.355075 218.419146 
L 172.432129 218.354204 
L 172.470656 218.38711 
L 172.586237 218.449733 
L 172.740345 218.159958 
L 172.894453 217.897725 
L 173.010035 218.047614 
L 173.20267 218.986955 
L 173.857629 222.860431 
L 174.204373 224.226969 
L 174.281427 224.078675 
L 174.474062 222.898845 
L 174.705224 221.382853 
L 174.782278 221.405032 
L 174.936387 221.913262 
L 175.129022 222.745767 
L 175.167549 222.674012 
L 175.745455 221.115692 
L 175.822509 221.047126 
L 176.130725 220.114743 
L 176.207779 220.224623 
L 176.361887 220.76054 
L 176.400414 220.714443 
L 176.708631 219.431257 
L 176.785685 219.543746 
L 177.093901 220.220274 
L 177.209482 220.431626 
L 177.286536 220.547594 
L 177.325063 220.507585 
L 177.594753 220.170698 
L 177.710334 220.407997 
L 177.941496 221.256738 
L 178.01855 221.180344 
L 178.134131 221.23311 
L 178.288239 221.772216 
L 178.519402 222.431639 
L 178.827618 223.382142 
L 179.174361 225.044543 
L 179.405524 226.128119 
L 179.444051 226.034475 
L 179.752267 224.605024 
L 179.867848 224.758537 
L 180.137537 225.793696 
L 180.176064 225.952862 
L 180.214591 225.899372 
L 180.638389 224.837395 
L 180.676916 224.866242 
L 180.792497 224.789703 
L 180.946605 224.778541 
L 181.139241 225.284017 
L 181.331876 225.78007 
L 181.370403 225.769053 
L 181.601565 225.518707 
L 182.102417 223.069028 
L 182.487687 222.472953 
L 182.603268 222.739099 
L 182.950012 224.092736 
L 182.988539 224.040115 
L 183.373809 222.759104 
L 183.450863 222.835643 
L 183.797606 223.531596 
L 183.836133 223.427224 
L 184.028769 222.331327 
L 184.259931 221.619573 
L 184.452566 221.386477 
L 184.722255 220.396546 
L 184.876364 219.967319 
L 184.914891 220.004719 
L 185.068999 220.586298 
L 185.300161 221.675383 
L 185.338688 221.617399 
L 185.685432 220.352333 
L 185.801013 220.359436 
L 185.955121 220.837079 
L 186.956824 225.325476 
L 186.995351 225.349974 
L 187.033878 225.250386 
L 187.303567 223.622196 
L 187.53473 220.776051 
L 187.804419 218.681669 
L 187.997054 218.091392 
L 188.112635 218.359713 
L 188.420852 219.629272 
L 189.037284 222.931026 
L 189.306974 223.696995 
L 189.422555 223.661625 
L 189.730771 222.008936 
L 189.807825 222.134761 
L 189.884879 222.219128 
L 189.923406 222.166217 
L 190.038987 221.860497 
L 190.385731 220.36277 
L 190.539839 220.341026 
L 190.925109 221.14019 
L 191.117745 222.015169 
L 191.156272 221.986902 
L 191.464488 220.943625 
L 191.657123 220.343635 
L 191.811231 220.318557 
L 192.273556 219.055376 
L 192.312083 219.109736 
L 192.504718 219.880778 
L 192.697353 220.316383 
L 192.812934 220.405533 
L 192.851461 220.347984 
L 193.159678 219.880778 
L 193.275259 220.156927 
L 193.930219 223.183981 
L 194.161381 224.200006 
L 194.354016 224.196237 
L 194.546651 224.74752 
L 194.777814 225.643953 
L 194.816341 225.629747 
L 195.124557 224.163476 
L 195.240138 224.27698 
L 195.972152 226.208572 
L 196.588585 228.640421 
L 196.627112 228.572 
L 196.858274 228.194524 
L 197.089436 228.358039 
L 197.243544 227.567572 
L 197.667342 225.668016 
L 197.782923 225.754267 
L 197.975558 225.948079 
L 198.129666 225.987073 
L 198.399356 226.532992 
L 198.437883 226.439493 
L 198.553464 225.615251 
L 199.054315 219.423574 
L 199.285478 218.585415 
L 199.362532 218.502498 
L 199.401059 218.541637 
L 199.555167 219.134379 
L 199.90191 221.815849 
L 200.1716 223.221961 
L 200.364235 223.393739 
L 200.55687 223.191954 
L 200.672451 222.971615 
L 200.826559 221.741629 
L 201.057722 220.758076 
L 201.173303 220.988707 
L 201.558573 222.074748 
L 201.712681 222.46353 
L 202.329114 224.572843 
L 202.521749 224.594587 
L 202.714384 225.113109 
L 202.791438 225.38143 
L 202.868493 225.289091 
L 202.984074 225.083102 
L 203.29229 223.517824 
L 203.369344 223.478395 
L 203.446398 223.148031 
L 203.908723 218.993913 
L 204.101358 218.872436 
L 204.139885 218.936364 
L 204.293993 219.588973 
L 205.064534 224.398166 
L 205.141588 224.23958 
L 205.37275 223.376633 
L 205.603913 222.380323 
L 205.719494 222.24812 
L 206.104764 220.630801 
L 206.181818 220.735027 
L 206.721197 222.259427 
L 206.798251 222.177379 
L 206.913832 222.237972 
L 207.029413 222.489623 
L 207.06794 222.393515 
L 207.260575 222.123744 
L 207.453211 222.354665 
L 207.491738 222.278851 
L 207.7229 221.927468 
L 207.838481 221.942979 
L 207.992589 222.433379 
L 208.223751 223.480135 
L 208.300806 223.422296 
L 208.416387 223.44259 
L 208.570495 223.718449 
L 208.647549 223.642345 
L 208.724603 223.560153 
L 209.263982 222.029085 
L 209.456617 222.268269 
L 209.495144 222.198978 
L 209.726306 221.86644 
L 209.841887 222.053438 
L 209.957468 222.221592 
L 209.995995 222.179264 
L 210.150104 222.113162 
L 210.304212 222.464835 
L 210.573901 223.182242 
L 210.650955 223.104253 
L 211.074753 222.010965 
L 211.267388 221.81295 
L 211.614131 219.670441 
L 211.652658 219.701172 
L 211.691185 219.621155 
L 211.845293 219.496634 
L 212.037929 219.363561 
L 212.076456 219.412702 
L 212.230564 219.94659 
L 212.53878 221.928918 
L 212.615834 221.690459 
L 212.80847 221.385173 
L 212.885524 221.384303 
L 213.078159 220.885496 
L 213.232267 219.426618 
L 213.57901 216.121965 
L 213.810173 214.187619 
L 214.118389 212.676701 
L 214.23397 212.513186 
L 214.272497 212.539714 
L 214.388078 212.868338 
L 214.580713 213.665183 
L 214.619241 213.570524 
L 215.081565 211.919575 
L 215.120092 211.975819 
L 215.2742 212.641331 
L 215.813579 215.475444 
L 216.083268 216.491178 
L 216.160322 216.324039 
L 216.622647 213.585745 
L 216.930863 212.613353 
L 217.046444 212.612194 
L 217.470242 211.234349 
L 217.547296 211.362783 
L 217.971093 212.356049 
L 218.163728 212.366486 
L 218.27931 212.430414 
L 218.471945 213.0981 
L 219.088377 216.315052 
L 219.203959 216.949832 
L 219.281013 216.91852 
L 219.396594 216.996944 
L 219.550702 217.487633 
L 219.589229 217.370216 
L 220.783567 208.793077 
L 220.860621 208.880488 
L 221.01473 209.722706 
L 221.207365 210.74134 
L 221.245892 210.681471 
L 221.477054 209.764744 
L 221.515581 209.780255 
L 221.669689 210.281672 
L 221.823797 210.807587 
L 221.862325 210.794395 
L 221.977906 210.338496 
L 222.671392 207.440456 
L 222.748446 207.541638 
L 222.902555 208.228023 
L 222.979609 208.005365 
L 223.210771 207.050948 
L 223.287825 206.983977 
L 223.596041 206.08334 
L 223.634568 206.096532 
L 223.904258 206.814373 
L 224.212474 208.137423 
L 224.443636 208.231502 
L 224.52069 208.262524 
L 224.751853 208.661309 
L 224.79038 208.616371 
L 224.867434 208.406759 
L 225.445339 204.497043 
L 225.599448 204.410067 
L 225.83061 204.722456 
L 225.869137 204.681867 
L 226.177353 203.562341 
L 226.254407 203.705561 
L 226.408516 204.223358 
L 226.447043 204.094199 
L 226.678205 203.392013 
L 226.793786 203.513054 
L 226.986421 203.89082 
L 227.063475 203.60003 
L 227.333165 202.275386 
L 227.410219 202.273646 
L 227.487273 201.737584 
L 227.949597 194.503211 
L 228.681611 181.128911 
L 229.452152 171.123337 
L 229.644787 162.083631 
L 229.721841 148.763402 
L 229.760368 52.677391 
L 229.798895 92.490655 
L 229.953003 191.095491 
L 229.99153 192.334319 
L 230.030058 191.870882 
L 230.376801 181.580606 
L 230.723544 164.360953 
L 230.800598 148.811094 
L 230.839125 38.34621 
L 230.877652 85.342532 
L 231.031761 192.76398 
L 231.070288 194.372457 
L 231.147342 193.277139 
L 231.648193 180.774629 
L 231.95641 166.553038 
L 232.033464 156.193617 
L 232.110518 51.384348 
L 232.149045 127.729996 
L 232.303153 195.275557 
L 232.34168 195.337455 
L 233.227802 169.829424 
L 233.38191 156.991332 
L 233.420437 140.777556 
L 233.458964 44.710969 
L 233.497491 111.169331 
L 233.6516 191.639526 
L 233.690127 191.992213 
L 234.306559 174.543958 
L 234.499194 164.49968 
L 234.576249 150.845172 
L 234.614776 46.206811 
L 234.653303 76.015081 
L 234.807411 190.692212 
L 234.845938 192.615541 
L 234.922992 191.307857 
L 235.308262 177.899637 
L 235.539425 161.614396 
L 235.577952 152.812425 
L 235.616479 47.090052 
L 235.655006 66.725899 
L 235.809114 192.408539 
L 235.847641 194.808206 
L 235.924695 193.643163 
L 236.541128 174.742553 
L 236.695236 163.258822 
L 236.733763 155.990673 
L 236.810817 53.215482 
L 236.849344 131.481996 
L 237.003452 195.0471 
L 237.080506 193.029257 
L 237.81252 162.542575 
L 237.851047 156.32524 
L 237.928101 48.860449 
L 237.966628 122.201656 
L 238.120736 193.511974 
L 238.159264 193.733038 
L 238.46748 184.729862 
L 238.737169 170.425644 
L 238.85275 149.191759 
L 238.891277 32.277605 
L 238.929804 79.755919 
L 239.083913 195.223807 
L 239.12244 196.288393 
L 239.160967 195.142919 
L 239.89298 161.436385 
L 239.931507 153.492142 
L 240.008562 64.578897 
L 240.16267 191.121729 
L 240.201197 193.152328 
L 240.239724 192.397812 
L 240.740575 166.178461 
L 240.817629 154.770979 
L 240.894684 56.054669 
L 240.933211 134.247832 
L 241.087319 192.609163 
L 241.164373 191.037797 
L 241.780806 165.609348 
L 241.85786 153.104229 
L 241.896387 61.79552 
L 241.934914 64.634126 
L 242.089022 190.272118 
L 242.127549 192.467247 
L 242.204603 190.757444 
L 242.89809 164.249624 
L 242.975144 151.544025 
L 243.013671 57.338435 
L 243.052198 71.873429 
L 243.206306 189.216954 
L 243.244833 191.121729 
L 243.28336 190.547542 
L 243.745685 171.082023 
L 243.861266 159.436807 
L 243.899793 145.460343 
L 243.93832 35.653288 
L 243.976847 89.552605 
L 244.130955 191.6978 
L 244.169482 192.71223 
L 244.208009 191.881609 
L 244.670334 172.990712 
L 244.824442 158.206096 
L 244.862969 138.947146 
L 244.901496 40.053839 
L 244.940023 103.256689 
L 245.094131 192.037876 
L 245.132658 192.110791 
L 245.710564 167.681262 
L 245.787618 157.833694 
L 245.826145 136.823192 
L 245.864672 41.467054 
L 245.903199 106.235907 
L 246.057307 191.675911 
L 246.095834 191.718529 
L 246.67374 167.083157 
L 246.750794 158.649674 
L 246.789321 145.736492 
L 246.827848 38.089776 
L 246.866375 91.714974 
L 247.020483 190.365037 
L 247.05901 191.288868 
L 247.097537 190.402727 
L 247.636916 168.659887 
L 247.752497 151.189163 
L 247.791024 40.274178 
L 247.829551 71.964464 
L 247.983659 190.005247 
L 248.022186 191.645324 
L 248.060713 190.884864 
L 248.638619 165.943916 
L 248.715673 153.96964 
L 248.792727 59.231757 
L 248.831254 137.749631 
L 248.985362 190.580738 
L 249.100944 186.873531 
L 249.524741 165.607029 
L 249.601795 151.357896 
L 249.640322 40.585407 
L 249.678849 70.124921 
L 249.832957 189.822017 
L 249.871484 191.818261 
L 249.910012 191.265964 
L 250.333809 173.149733 
L 250.487917 157.957345 
L 250.526444 136.138546 
L 250.564971 40.887939 
L 250.603498 105.025201 
L 250.757606 191.436002 
L 250.796133 191.605895 
L 251.451093 167.913198 
L 251.566674 153.494751 
L 251.643728 61.165089 
L 251.682255 139.803569 
L 251.836364 191.083894 
L 251.874891 191.090272 
L 252.298688 177.893549 
L 252.52985 165.150405 
L 252.606904 150.042674 
L 252.645432 37.488047 
L 252.683959 77.058793 
L 252.838067 190.4826 
L 252.876594 191.93249 
L 252.915121 191.143038 
L 253.493026 166.459684 
L 253.570081 154.210854 
L 253.647135 58.768755 
L 253.685662 137.775579 
L 253.83977 192.824864 
L 253.916824 191.043885 
L 254.379148 163.890558 
L 254.417675 156.928854 
L 254.49473 46.276102 
L 254.533257 116.82451 
L 254.687365 192.941556 
L 254.725892 192.562196 
L 255.342325 163.323909 
L 255.380852 157.035254 
L 255.457906 44.697923 
L 255.496433 113.095269 
L 255.650541 191.323078 
L 255.689068 191.195803 
L 255.997284 176.409303 
L 256.151392 163.444951 
L 256.189919 155.4765 
L 256.266974 52.599402 
L 256.305501 128.008899 
L 256.459609 192.096875 
L 256.57519 187.348565 
L 256.96046 163.868379 
L 257.037514 136.246541 
L 257.076041 40.99376 
L 257.114568 104.858787 
L 257.268677 190.953575 
L 257.307204 191.154345 
L 257.808055 169.836817 
L 257.923636 155.009873 
L 258.00069 54.153373 
L 258.039217 129.890625 
L 258.193326 190.973724 
L 258.231853 190.662205 
L 258.809758 169.165652 
L 258.925339 154.734014 
L 259.002394 55.56079 
L 259.040921 132.213464 
L 259.195029 191.470937 
L 259.233556 191.379902 
L 259.734407 175.046244 
L 259.927043 159.800221 
L 259.96557 147.499496 
L 260.004097 35.618208 
L 260.042624 85.409649 
L 260.196732 191.600966 
L 260.235259 192.986204 
L 260.273786 192.40303 
L 260.890219 172.528434 
L 261.044327 155.70974 
L 261.121381 53.251287 
L 261.159908 130.335652 
L 261.314016 194.516402 
L 261.352543 194.581489 
L 262.161611 173.646221 
L 262.354246 162.734067 
L 262.4313 142.131917 
L 262.469827 42.740093 
L 262.508354 106.993323 
L 262.662463 193.131019 
L 262.70099 194.263737 
L 262.778044 193.426013 
L 263.394476 181.607134 
L 263.74122 172.041224 
L 263.895328 163.354206 
L 263.972382 147.871753 
L 264.010909 41.003617 
L 264.049436 91.134699 
L 264.203544 192.316634 
L 264.242071 193.941636 
L 264.319125 192.667002 
L 265.012612 170.289672 
L 265.128193 161.79922 
L 265.16672 155.279644 
L 265.243774 53.937673 
L 265.282301 130.952892 
L 265.43641 193.950623 
L 265.474937 194.546988 
L 265.513464 194.146029 
L 265.975788 187.895934 
L 266.361059 185.629339 
L 267.054545 181.500733 
L 267.51687 175.010294 
L 267.786559 167.841588 
L 267.90214 160.453121 
L 267.940667 154.613553 
L 268.017722 54.765395 
L 268.056249 130.435239 
L 268.210357 190.927047 
L 268.248884 191.738388 
L 268.325938 191.090417 
L 268.634154 188.635085 
L 268.826789 188.07322 
L 269.096479 188.231516 
L 269.289114 188.137872 
L 269.635857 187.191718 
L 269.712911 187.284782 
L 269.944074 188.281672 
L 270.521979 190.77368 
L 270.560506 190.704679 
L 270.753142 190.213699 
L 270.791669 190.236603 
L 270.984304 190.639012 
L 271.215466 191.47746 
L 271.446628 192.875745 
L 272.33275 199.590582 
L 272.563913 200.918995 
L 274.143521 214.427963 
L 274.182048 214.377516 
L 274.413211 213.688956 
L 274.451738 213.655181 
L 274.644373 212.794408 
L 274.6829 212.821806 
L 274.798481 213.291766 
L 275.06817 215.725789 
L 275.607549 220.568468 
L 275.800184 221.742209 
L 275.838711 221.634069 
L 275.954292 221.348788 
L 275.992819 221.361689 
L 276.1084 221.671034 
L 276.840414 224.777092 
L 276.878941 224.74578 
L 278.034753 220.03545 
L 278.111807 220.14562 
L 278.304442 220.640223 
L 278.342969 220.574122 
L 278.535604 220.3245 
L 278.728239 220.413071 
L 278.920875 220.68835 
L 278.959402 220.622683 
L 279.229091 220.042118 
L 279.344672 220.099668 
L 279.999632 221.384593 
L 280.269321 222.896961 
L 280.53901 223.976478 
L 280.693119 224.11187 
L 280.924281 224.358302 
L 281.039862 224.482098 
L 281.155443 224.578642 
L 281.19397 224.559362 
L 281.540713 224.574003 
L 281.579241 224.592123 
L 281.84893 223.797452 
L 281.887457 223.827894 
L 282.080092 224.36584 
L 282.2342 224.578932 
L 282.311254 224.182466 
L 282.580944 222.698655 
L 282.657998 222.73736 
L 282.735052 222.811579 
L 282.966214 222.236378 
L 283.004741 222.2645 
L 283.158849 222.71982 
L 283.312957 223.299804 
L 283.351484 223.251098 
L 283.775282 222.127658 
L 283.813809 222.17477 
L 283.967917 222.688073 
L 284.160552 223.477091 
L 284.199079 223.452737 
L 284.237606 223.427224 
L 284.622877 221.999513 
L 284.661404 222.02836 
L 284.776985 222.234059 
L 284.815512 222.17535 
L 284.96962 222.168682 
L 285.085201 222.213474 
L 285.277837 222.60994 
L 285.316364 222.55326 
L 285.431945 221.453594 
L 285.932796 214.670336 
L 286.433648 213.420491 
L 286.741864 212.477526 
L 286.780391 212.510577 
L 287.011554 212.367646 
L 287.050081 212.44259 
L 287.204189 213.130571 
L 287.936203 217.325278 
L 288.128838 218.377978 
L 288.282946 219.063204 
L 288.36 218.617741 
L 288.668216 216.360714 
L 288.822325 216.12356 
L 288.860852 216.13936 
L 288.937906 216.092973 
L 289.092014 215.601559 
L 289.207595 215.318307 
L 289.246122 215.352807 
L 289.438757 215.950188 
L 289.708446 216.790376 
L 289.824028 216.896631 
L 290.247825 217.706523 
L 290.478987 217.691737 
L 290.594568 217.945707 
L 290.864258 218.598027 
L 291.018366 218.788069 
L 291.056893 218.734579 
L 291.172474 218.412768 
L 291.442163 217.672022 
L 291.673326 217.227865 
L 292.097123 215.830451 
L 292.13565 215.855384 
L 292.251231 216.188792 
L 292.597975 217.357459 
L 292.79061 218.328111 
L 292.906191 218.941582 
L 292.944718 218.874321 
L 293.329988 217.311362 
L 293.638205 215.735212 
L 293.792313 214.776881 
L 294.062002 212.365472 
L 294.139056 212.320824 
L 294.177583 212.390115 
L 294.370219 213.328296 
L 294.794016 214.827327 
L 294.909597 215.187988 
L 295.179287 217.326583 
L 296.142463 226.036649 
L 296.258044 226.069555 
L 296.450679 226.076658 
L 296.643314 226.429346 
L 296.913003 226.836394 
L 297.144166 227.150377 
L 297.452382 227.86329 
L 297.490909 227.77356 
L 297.87618 226.991936 
L 298.107342 226.39499 
L 298.299977 225.21777 
L 298.64672 222.987416 
L 298.800829 222.763163 
L 299.031991 222.200138 
L 299.147572 222.461211 
L 299.95664 225.512184 
L 299.995167 225.464347 
L 300.149275 225.233571 
L 301.035397 219.951518 
L 301.343613 218.185471 
L 301.420667 218.269258 
L 301.574776 218.922592 
L 302.268262 222.620957 
L 302.383843 222.497741 
L 302.769114 221.566808 
L 302.807641 221.582608 
L 303.07733 221.644796 
L 303.192911 221.710753 
L 303.34702 221.732352 
L 303.462601 221.915292 
L 303.501128 222.036333 
L 303.578182 221.929498 
L 303.770817 221.308489 
L 304.156087 218.329126 
L 304.579885 215.814795 
L 304.618412 215.83277 
L 304.733993 216.201548 
L 305.003682 218.269837 
L 305.273372 219.779886 
L 305.388953 219.819895 
L 305.658642 220.5805 
L 305.735696 220.440613 
L 306.005386 218.937233 
L 306.429183 214.660478 
L 306.544764 214.429847 
L 306.583291 214.478264 
L 306.737399 215.174507 
L 307.161197 217.054348 
L 307.315305 217.280051 
L 307.430886 217.568086 
L 307.584994 218.112556 
L 307.623521 218.078055 
L 307.931738 216.350712 
L 308.008792 216.451459 
L 308.239954 217.561418 
L 308.894914 221.46838 
L 309.703982 227.341724 
L 309.85809 228.017383 
L 309.896617 227.992015 
L 310.281887 227.214449 
L 310.320414 227.240252 
L 310.513049 227.421597 
L 310.551577 227.341144 
L 310.667158 226.038679 
L 311.013901 222.755625 
L 311.322117 219.579986 
L 311.591807 214.69179 
L 311.900023 209.728359 
L 312.786145 205.514082 
L 313.171415 205.324185 
L 313.286997 205.426816 
L 313.325524 205.391446 
L 313.441105 205.076158 
L 313.672267 203.959821 
L 313.787848 204.2725 
L 314.173119 205.8501 
L 314.250173 205.817194 
L 314.2887 205.880251 
L 314.712497 207.674856 
L 314.943659 209.576876 
L 315.945362 219.437345 
L 316.176525 219.987903 
L 316.831484 222.320745 
L 316.947066 221.81324 
L 317.370863 219.280644 
L 317.447917 219.409803 
L 317.486444 219.471846 
L 317.524971 219.382985 
L 317.833188 217.809444 
L 318.179931 215.639393 
L 318.411093 216.002083 
L 318.834891 217.116681 
L 319.258688 218.578747 
L 319.682486 220.657619 
L 319.913648 222.096781 
L 319.952175 222.06663 
L 320.183337 221.68379 
L 320.221864 221.728293 
L 320.375972 222.206081 
L 321.069459 225.352438 
L 321.146513 225.233716 
L 321.223567 225.077304 
L 321.724419 222.812159 
L 321.955581 222.041117 
L 322.071162 221.95878 
L 322.109689 221.994875 
L 322.302325 222.145488 
L 322.726122 221.302691 
L 323.804879 214.85255 
L 323.881933 214.94373 
L 324.036041 215.784498 
L 324.459839 220.008923 
L 324.999217 224.843484 
L 325.191853 224.87465 
L 325.307434 224.427738 
L 325.654177 221.808021 
L 326.193556 215.10855 
L 326.27061 214.948224 
L 326.309137 214.989683 
L 326.463245 215.715062 
L 327.002624 218.882873 
L 327.195259 218.996087 
L 327.349367 219.129015 
L 327.387894 219.060594 
L 327.503475 218.922882 
L 327.542002 218.954918 
L 327.69611 219.479529 
L 327.850219 220.283332 
L 327.888746 220.251151 
L 328.158435 219.241794 
L 328.235489 219.197147 
L 328.466651 218.527431 
L 328.505178 218.555409 
L 328.659287 219.095675 
L 329.00603 221.675673 
L 329.352773 223.78687 
L 329.429827 223.725697 
L 329.815098 221.794975 
L 329.930679 221.965013 
L 330.161841 223.02641 
L 330.393003 224.158113 
L 330.43153 224.003295 
L 330.662693 223.135855 
L 330.778274 223.273422 
L 331.125017 224.146371 
L 331.163544 224.09636 
L 331.279125 224.015907 
L 331.317652 224.053452 
L 331.779977 225.10818 
L 332.319356 226.532992 
L 332.473464 226.062887 
L 332.627572 225.150364 
L 332.820207 224.554723 
L 332.897261 224.54849 
L 332.974315 223.854276 
L 333.282532 220.878248 
L 333.590748 220.347839 
L 333.706329 220.50686 
L 333.898964 221.4146 
L 334.630978 225.416365 
L 334.746559 225.394476 
L 334.86214 225.09006 
L 335.324465 222.756784 
L 335.709735 221.250215 
L 335.825316 221.401553 
L 336.017952 221.673643 
L 336.518803 222.403082 
L 336.711438 222.603852 
L 336.865547 223.006405 
L 336.904074 222.927402 
L 337.135236 221.57478 
L 337.559033 218.826049 
L 337.636087 218.886932 
L 337.982831 220.092709 
L 338.406628 222.572685 
L 338.445155 222.547897 
L 338.753372 222.014879 
L 338.791899 222.035463 
L 339.138642 222.537025 
L 339.523913 220.950583 
L 339.600967 221.035239 
L 339.793602 221.805557 
L 339.986237 222.386122 
L 340.217399 221.844551 
L 340.255926 221.869484 
L 340.410035 222.31973 
L 340.679724 223.179778 
L 340.833832 223.214133 
L 341.026467 223.745846 
L 341.103521 223.531596 
L 341.257629 223.216452 
L 341.296157 223.247619 
L 341.450265 223.700474 
L 341.681427 224.396282 
L 342.336387 223.120489 
L 343.029873 222.685029 
L 343.33809 222.03068 
L 343.646306 222.532966 
L 343.684833 222.624871 
L 343.72336 222.564567 
L 343.838941 222.35568 
L 343.877468 222.383077 
L 343.993049 222.593124 
L 344.031577 222.559059 
L 344.224212 222.164623 
L 344.339793 222.418158 
L 344.802117 223.812093 
L 344.956226 224.048668 
L 344.994753 223.942122 
L 345.225915 223.479845 
L 345.380023 223.47738 
L 345.649712 222.858691 
L 345.765293 223.072362 
L 346.304672 224.473546 
L 346.381726 224.454411 
L 346.574361 223.261535 
L 346.766997 222.621682 
L 346.882578 222.366117 
L 347.075213 220.592966 
L 347.344902 219.036676 
L 347.614591 218.663404 
L 348.462186 212.633648 
L 348.577768 212.478685 
L 348.924511 212.976478 
L 348.963038 212.91632 
L 349.117146 212.621471 
L 349.155673 212.657276 
L 349.540944 213.180437 
L 349.772106 213.484998 
L 349.887687 213.56806 
L 349.964741 213.716354 
L 350.041795 213.682143 
L 350.157376 213.846818 
L 350.311484 214.549584 
L 350.966444 218.785605 
L 351.004971 218.776763 
L 351.120552 218.772124 
L 351.236133 218.794448 
L 351.313188 218.829963 
L 351.390242 218.918823 
L 351.428769 218.890991 
L 351.659931 218.901573 
L 351.775512 219.20106 
L 352.430472 221.713652 
L 352.507526 221.689734 
L 352.661634 221.147004 
L 353.085432 218.701818 
L 353.432175 219.091326 
L 353.62481 218.6779 
L 353.663337 218.723997 
L 353.817445 219.325146 
L 354.66504 224.173478 
L 354.703567 224.07592 
L 354.857675 223.847173 
L 355.050311 224.208704 
L 355.127365 223.997497 
L 355.281473 222.734171 
L 355.628216 220.188528 
L 355.859379 219.14844 
L 355.936433 219.234981 
L 356.167595 220.196791 
L 356.398757 220.686031 
L 356.437284 220.77779 
L 356.475811 220.755756 
L 356.861082 218.116905 
L 356.899609 218.163582 
L 357.053717 218.814742 
L 357.862785 222.500495 
L 358.093947 223.454912 
L 358.556272 225.375052 
L 358.864488 226.132468 
L 358.903015 226.07144 
L 359.442394 225.008013 
L 359.596502 224.955683 
L 359.75061 225.265172 
L 359.866191 225.569443 
L 359.904718 225.516968 
L 360.058826 225.392737 
L 360.13588 225.370993 
L 360.289988 225.200665 
L 360.328516 225.223859 
L 360.444097 225.224438 
L 360.521151 224.905526 
L 360.752313 223.677425 
L 360.867894 223.724247 
L 361.060529 224.356563 
L 361.214638 224.799271 
L 361.253165 224.778252 
L 361.330219 224.67475 
L 361.484327 224.43977 
L 361.522854 224.461079 
L 361.792543 224.447743 
L 361.946651 224.31293 
L 362.100759 224.644019 
L 362.293395 224.975397 
L 362.524557 224.907266 
L 362.717192 225.062953 
L 362.8713 224.779846 
L 363.333625 222.7923 
L 363.603314 221.59493 
L 363.641841 221.609861 
L 363.718895 221.420688 
L 363.988585 220.810551 
L 364.219747 220.699512 
L 364.335328 220.898977 
L 364.682071 221.732497 
L 364.83618 222.111857 
L 365.337031 223.91516 
L 365.375558 223.865004 
L 365.645247 223.383301 
L 365.760829 223.402871 
L 365.87641 223.56798 
L 365.914937 223.540003 
L 366.030518 223.58929 
L 366.223153 224.22175 
L 366.492842 225.338087 
L 366.531369 225.267636 
L 367.224856 223.484194 
L 367.456018 222.471503 
L 367.5716 222.68213 
L 367.725708 222.927402 
L 368.188032 221.77526 
L 368.380667 221.236299 
L 368.496249 221.428806 
L 368.688884 221.820923 
L 368.804465 221.898186 
L 368.958573 222.327993 
L 369.65206 224.950609 
L 369.690587 224.941332 
L 369.998803 224.170144 
L 370.268493 223.016843 
L 370.422601 223.031194 
L 370.538182 222.677781 
L 370.846398 221.076408 
L 371.308723 221.809036 
L 371.578412 222.5363 
L 371.655466 222.357854 
L 372.271899 219.988193 
L 372.38748 220.20085 
L 373.196548 222.697496 
L 373.350656 223.159338 
L 373.504764 223.62582 
L 373.543291 223.602916 
L 373.581818 223.561747 
L 373.581818 223.561747 
" style="fill:none;stroke:#ff0000;stroke-linecap:square;stroke-width:1.5;"/>
   </g>
   <g id="line2d_20">
    <path clip-path="url(#p4c461c4f76)" d="M 258.00069 201.264 
L 296.450679 201.264 
L 296.450679 201.264 
" style="fill:none;stroke:#000000;stroke-linecap:square;stroke-width:1.5;"/>
   </g>
   <g id="line2d_21">
    <path clip-path="url(#p4c461c4f76)" d="M 258.00069 179.52 
L 258.00069 178.0704 
L 258.00069 176.6208 
L 258.00069 175.1712 
L 258.00069 173.7216 
L 258.00069 172.272 
L 258.00069 170.8224 
L 258.00069 169.3728 
L 258.00069 167.9232 
L 258.00069 166.4736 
L 258.00069 165.024 
L 258.00069 163.5744 
L 258.00069 162.1248 
L 258.00069 160.6752 
L 258.00069 159.2256 
L 258.00069 157.776 
L 258.00069 156.3264 
L 258.00069 154.8768 
L 258.00069 153.4272 
L 258.00069 151.9776 
" style="fill:none;stroke:#000000;stroke-linecap:square;stroke-width:1.5;"/>
   </g>
   <g id="patch_3">
    <path d="M 54 252 
L 54 34.56 
" style="fill:none;stroke:#000000;stroke-linecap:square;stroke-linejoin:miter;stroke-width:0.8;"/>
   </g>
   <g id="patch_4">
    <path d="M 54 252 
L 388.8 252 
" style="fill:none;stroke:#000000;stroke-linecap:square;stroke-linejoin:miter;stroke-width:0.8;"/>
   </g>
   <g id="text_20">
    <!-- 500 ms -->
    <g transform="translate(258.00069 199.8144)scale(0.12 -0.12)">
     <use xlink:href="#DejaVuSans-35"/>
     <use x="63.623047" xlink:href="#DejaVuSans-30"/>
     <use x="127.246094" xlink:href="#DejaVuSans-30"/>
     <use x="190.869141" xlink:href="#DejaVuSans-20"/>
     <use x="222.65625" xlink:href="#DejaVuSans-6d"/>
     <use x="320.068359" xlink:href="#DejaVuSans-73"/>
    </g>
   </g>
   <g id="text_21">
    <!-- 20 mV -->
    <g transform="translate(261.853395 150.528)scale(0.12 -0.12)">
     <use xlink:href="#DejaVuSans-32"/>
     <use x="63.623047" xlink:href="#DejaVuSans-30"/>
     <use x="127.246094" xlink:href="#DejaVuSans-20"/>
     <use x="159.033203" xlink:href="#DejaVuSans-6d"/>
     <use x="256.445312" xlink:href="#DejaVuSans-56"/>
    </g>
   </g>
  </g>
 </g>
 <defs>
  <clipPath id="p4c461c4f76">
   <rect height="217.44" width="334.8" x="54" y="34.56"/>
  </clipPath>
 </defs>
</svg>
