<?xml version="1.0" encoding="utf-8" standalone="no"?>
<!DOCTYPE svg PUBLIC "-//W3C//DTD SVG 1.1//EN"
  "http://www.w3.org/Graphics/SVG/1.1/DTD/svg11.dtd">
<svg height="288pt" version="1.1" viewBox="0 0 432 288" width="432pt" xmlns="http://www.w3.org/2000/svg" xmlns:xlink="http://www.w3.org/1999/xlink">
 <metadata>
  <rdf:RDF xmlns:cc="http://creativecommons.org/ns#" xmlns:dc="http://purl.org/dc/elements/1.1/" xmlns:rdf="http://www.w3.org/1999/02/22-rdf-syntax-ns#">
   <cc:Work>
    <dc:type rdf:resource="http://purl.org/dc/dcmitype/StillImage"/>
    <dc:date>2021-07-05T15:15:19.725460</dc:date>
    <dc:format>image/svg+xml</dc:format>
    <dc:creator>
     <cc:Agent>
      <dc:title>Matplotlib v3.4.1, https://matplotlib.org/</dc:title>
     </cc:Agent>
    </dc:creator>
   </cc:Work>
  </rdf:RDF>
 </metadata>
 <defs>
  <style type="text/css">*{stroke-linecap:butt;stroke-linejoin:round;}</style>
 </defs>
 <g id="figure_1">
  <g id="patch_1">
   <path d="M 0 288 
L 432 288 
L 432 0 
L 0 0 
z
" style="fill:none;"/>
  </g>
  <g id="axes_1">
   <g id="patch_2">
    <path d="M 54 252 
L 388.8 252 
L 388.8 34.56 
L 54 34.56 
z
" style="fill:#ffffff;"/>
   </g>
   <g id="matplotlib.axis_1">
    <g id="xtick_1">
     <g id="line2d_1">
      <defs>
       <path d="M 0 0 
L 0 3.5 
" id="m28bf404850" style="stroke:#000000;stroke-width:0.8;"/>
      </defs>
      <g>
       <use style="stroke:#000000;stroke-width:0.8;" x="65.365478" xlink:href="#m28bf404850" y="252"/>
      </g>
     </g>
     <g id="text_1">
      <!-- 0 -->
      <g transform="translate(61.547978 268.118125)scale(0.12 -0.12)">
       <defs>
        <path d="M 2034 4250 
Q 1547 4250 1301 3770 
Q 1056 3291 1056 2328 
Q 1056 1369 1301 889 
Q 1547 409 2034 409 
Q 2525 409 2770 889 
Q 3016 1369 3016 2328 
Q 3016 3291 2770 3770 
Q 2525 4250 2034 4250 
z
M 2034 4750 
Q 2819 4750 3233 4129 
Q 3647 3509 3647 2328 
Q 3647 1150 3233 529 
Q 2819 -91 2034 -91 
Q 1250 -91 836 529 
Q 422 1150 422 2328 
Q 422 3509 836 4129 
Q 1250 4750 2034 4750 
z
" id="DejaVuSans-30" transform="scale(0.015625)"/>
       </defs>
       <use xlink:href="#DejaVuSans-30"/>
      </g>
     </g>
    </g>
    <g id="xtick_2">
     <g id="line2d_2">
      <g>
       <use style="stroke:#000000;stroke-width:0.8;" x="103.89252" xlink:href="#m28bf404850" y="252"/>
      </g>
     </g>
     <g id="text_2">
      <!-- 500 -->
      <g transform="translate(92.44002 268.118125)scale(0.12 -0.12)">
       <defs>
        <path d="M 691 4666 
L 3169 4666 
L 3169 4134 
L 1269 4134 
L 1269 2991 
Q 1406 3038 1543 3061 
Q 1681 3084 1819 3084 
Q 2600 3084 3056 2656 
Q 3513 2228 3513 1497 
Q 3513 744 3044 326 
Q 2575 -91 1722 -91 
Q 1428 -91 1123 -41 
Q 819 9 494 109 
L 494 744 
Q 775 591 1075 516 
Q 1375 441 1709 441 
Q 2250 441 2565 725 
Q 2881 1009 2881 1497 
Q 2881 1984 2565 2268 
Q 2250 2553 1709 2553 
Q 1456 2553 1204 2497 
Q 953 2441 691 2322 
L 691 4666 
z
" id="DejaVuSans-35" transform="scale(0.015625)"/>
       </defs>
       <use xlink:href="#DejaVuSans-35"/>
       <use x="63.623047" xlink:href="#DejaVuSans-30"/>
       <use x="127.246094" xlink:href="#DejaVuSans-30"/>
      </g>
     </g>
    </g>
    <g id="xtick_3">
     <g id="line2d_3">
      <g>
       <use style="stroke:#000000;stroke-width:0.8;" x="142.419563" xlink:href="#m28bf404850" y="252"/>
      </g>
     </g>
     <g id="text_3">
      <!-- 1000 -->
      <g transform="translate(127.149563 268.118125)scale(0.12 -0.12)">
       <defs>
        <path d="M 794 531 
L 1825 531 
L 1825 4091 
L 703 3866 
L 703 4441 
L 1819 4666 
L 2450 4666 
L 2450 531 
L 3481 531 
L 3481 0 
L 794 0 
L 794 531 
z
" id="DejaVuSans-31" transform="scale(0.015625)"/>
       </defs>
       <use xlink:href="#DejaVuSans-31"/>
       <use x="63.623047" xlink:href="#DejaVuSans-30"/>
       <use x="127.246094" xlink:href="#DejaVuSans-30"/>
       <use x="190.869141" xlink:href="#DejaVuSans-30"/>
      </g>
     </g>
    </g>
    <g id="xtick_4">
     <g id="line2d_4">
      <g>
       <use style="stroke:#000000;stroke-width:0.8;" x="180.946605" xlink:href="#m28bf404850" y="252"/>
      </g>
     </g>
     <g id="text_4">
      <!-- 1500 -->
      <g transform="translate(165.676605 268.118125)scale(0.12 -0.12)">
       <use xlink:href="#DejaVuSans-31"/>
       <use x="63.623047" xlink:href="#DejaVuSans-35"/>
       <use x="127.246094" xlink:href="#DejaVuSans-30"/>
       <use x="190.869141" xlink:href="#DejaVuSans-30"/>
      </g>
     </g>
    </g>
    <g id="xtick_5">
     <g id="line2d_5">
      <g>
       <use style="stroke:#000000;stroke-width:0.8;" x="219.473648" xlink:href="#m28bf404850" y="252"/>
      </g>
     </g>
     <g id="text_5">
      <!-- 2000 -->
      <g transform="translate(204.203648 268.118125)scale(0.12 -0.12)">
       <defs>
        <path d="M 1228 531 
L 3431 531 
L 3431 0 
L 469 0 
L 469 531 
Q 828 903 1448 1529 
Q 2069 2156 2228 2338 
Q 2531 2678 2651 2914 
Q 2772 3150 2772 3378 
Q 2772 3750 2511 3984 
Q 2250 4219 1831 4219 
Q 1534 4219 1204 4116 
Q 875 4013 500 3803 
L 500 4441 
Q 881 4594 1212 4672 
Q 1544 4750 1819 4750 
Q 2544 4750 2975 4387 
Q 3406 4025 3406 3419 
Q 3406 3131 3298 2873 
Q 3191 2616 2906 2266 
Q 2828 2175 2409 1742 
Q 1991 1309 1228 531 
z
" id="DejaVuSans-32" transform="scale(0.015625)"/>
       </defs>
       <use xlink:href="#DejaVuSans-32"/>
       <use x="63.623047" xlink:href="#DejaVuSans-30"/>
       <use x="127.246094" xlink:href="#DejaVuSans-30"/>
       <use x="190.869141" xlink:href="#DejaVuSans-30"/>
      </g>
     </g>
    </g>
    <g id="xtick_6">
     <g id="line2d_6">
      <g>
       <use style="stroke:#000000;stroke-width:0.8;" x="258.00069" xlink:href="#m28bf404850" y="252"/>
      </g>
     </g>
     <g id="text_6">
      <!-- 2500 -->
      <g transform="translate(242.73069 268.118125)scale(0.12 -0.12)">
       <use xlink:href="#DejaVuSans-32"/>
       <use x="63.623047" xlink:href="#DejaVuSans-35"/>
       <use x="127.246094" xlink:href="#DejaVuSans-30"/>
       <use x="190.869141" xlink:href="#DejaVuSans-30"/>
      </g>
     </g>
    </g>
    <g id="xtick_7">
     <g id="line2d_7">
      <g>
       <use style="stroke:#000000;stroke-width:0.8;" x="296.527733" xlink:href="#m28bf404850" y="252"/>
      </g>
     </g>
     <g id="text_7">
      <!-- 3000 -->
      <g transform="translate(281.257733 268.118125)scale(0.12 -0.12)">
       <defs>
        <path d="M 2597 2516 
Q 3050 2419 3304 2112 
Q 3559 1806 3559 1356 
Q 3559 666 3084 287 
Q 2609 -91 1734 -91 
Q 1441 -91 1130 -33 
Q 819 25 488 141 
L 488 750 
Q 750 597 1062 519 
Q 1375 441 1716 441 
Q 2309 441 2620 675 
Q 2931 909 2931 1356 
Q 2931 1769 2642 2001 
Q 2353 2234 1838 2234 
L 1294 2234 
L 1294 2753 
L 1863 2753 
Q 2328 2753 2575 2939 
Q 2822 3125 2822 3475 
Q 2822 3834 2567 4026 
Q 2313 4219 1838 4219 
Q 1578 4219 1281 4162 
Q 984 4106 628 3988 
L 628 4550 
Q 988 4650 1302 4700 
Q 1616 4750 1894 4750 
Q 2613 4750 3031 4423 
Q 3450 4097 3450 3541 
Q 3450 3153 3228 2886 
Q 3006 2619 2597 2516 
z
" id="DejaVuSans-33" transform="scale(0.015625)"/>
       </defs>
       <use xlink:href="#DejaVuSans-33"/>
       <use x="63.623047" xlink:href="#DejaVuSans-30"/>
       <use x="127.246094" xlink:href="#DejaVuSans-30"/>
       <use x="190.869141" xlink:href="#DejaVuSans-30"/>
      </g>
     </g>
    </g>
    <g id="xtick_8">
     <g id="line2d_8">
      <g>
       <use style="stroke:#000000;stroke-width:0.8;" x="335.054776" xlink:href="#m28bf404850" y="252"/>
      </g>
     </g>
     <g id="text_8">
      <!-- 3500 -->
      <g transform="translate(319.784776 268.118125)scale(0.12 -0.12)">
       <use xlink:href="#DejaVuSans-33"/>
       <use x="63.623047" xlink:href="#DejaVuSans-35"/>
       <use x="127.246094" xlink:href="#DejaVuSans-30"/>
       <use x="190.869141" xlink:href="#DejaVuSans-30"/>
      </g>
     </g>
    </g>
    <g id="xtick_9">
     <g id="line2d_9">
      <g>
       <use style="stroke:#000000;stroke-width:0.8;" x="373.581818" xlink:href="#m28bf404850" y="252"/>
      </g>
     </g>
     <g id="text_9">
      <!-- 4000 -->
      <g transform="translate(358.311818 268.118125)scale(0.12 -0.12)">
       <defs>
        <path d="M 2419 4116 
L 825 1625 
L 2419 1625 
L 2419 4116 
z
M 2253 4666 
L 3047 4666 
L 3047 1625 
L 3713 1625 
L 3713 1100 
L 3047 1100 
L 3047 0 
L 2419 0 
L 2419 1100 
L 313 1100 
L 313 1709 
L 2253 4666 
z
" id="DejaVuSans-34" transform="scale(0.015625)"/>
       </defs>
       <use xlink:href="#DejaVuSans-34"/>
       <use x="63.623047" xlink:href="#DejaVuSans-30"/>
       <use x="127.246094" xlink:href="#DejaVuSans-30"/>
       <use x="190.869141" xlink:href="#DejaVuSans-30"/>
      </g>
     </g>
    </g>
    <g id="text_10">
     <!-- Time(ms) -->
     <g transform="translate(193.067813 283.731875)scale(0.12 -0.12)">
      <defs>
       <path d="M -19 4666 
L 3928 4666 
L 3928 4134 
L 2272 4134 
L 2272 0 
L 1638 0 
L 1638 4134 
L -19 4134 
L -19 4666 
z
" id="DejaVuSans-54" transform="scale(0.015625)"/>
       <path d="M 603 3500 
L 1178 3500 
L 1178 0 
L 603 0 
L 603 3500 
z
M 603 4863 
L 1178 4863 
L 1178 4134 
L 603 4134 
L 603 4863 
z
" id="DejaVuSans-69" transform="scale(0.015625)"/>
       <path d="M 3328 2828 
Q 3544 3216 3844 3400 
Q 4144 3584 4550 3584 
Q 5097 3584 5394 3201 
Q 5691 2819 5691 2113 
L 5691 0 
L 5113 0 
L 5113 2094 
Q 5113 2597 4934 2840 
Q 4756 3084 4391 3084 
Q 3944 3084 3684 2787 
Q 3425 2491 3425 1978 
L 3425 0 
L 2847 0 
L 2847 2094 
Q 2847 2600 2669 2842 
Q 2491 3084 2119 3084 
Q 1678 3084 1418 2786 
Q 1159 2488 1159 1978 
L 1159 0 
L 581 0 
L 581 3500 
L 1159 3500 
L 1159 2956 
Q 1356 3278 1631 3431 
Q 1906 3584 2284 3584 
Q 2666 3584 2933 3390 
Q 3200 3197 3328 2828 
z
" id="DejaVuSans-6d" transform="scale(0.015625)"/>
       <path d="M 3597 1894 
L 3597 1613 
L 953 1613 
Q 991 1019 1311 708 
Q 1631 397 2203 397 
Q 2534 397 2845 478 
Q 3156 559 3463 722 
L 3463 178 
Q 3153 47 2828 -22 
Q 2503 -91 2169 -91 
Q 1331 -91 842 396 
Q 353 884 353 1716 
Q 353 2575 817 3079 
Q 1281 3584 2069 3584 
Q 2775 3584 3186 3129 
Q 3597 2675 3597 1894 
z
M 3022 2063 
Q 3016 2534 2758 2815 
Q 2500 3097 2075 3097 
Q 1594 3097 1305 2825 
Q 1016 2553 972 2059 
L 3022 2063 
z
" id="DejaVuSans-65" transform="scale(0.015625)"/>
       <path d="M 1984 4856 
Q 1566 4138 1362 3434 
Q 1159 2731 1159 2009 
Q 1159 1288 1364 580 
Q 1569 -128 1984 -844 
L 1484 -844 
Q 1016 -109 783 600 
Q 550 1309 550 2009 
Q 550 2706 781 3412 
Q 1013 4119 1484 4856 
L 1984 4856 
z
" id="DejaVuSans-28" transform="scale(0.015625)"/>
       <path d="M 2834 3397 
L 2834 2853 
Q 2591 2978 2328 3040 
Q 2066 3103 1784 3103 
Q 1356 3103 1142 2972 
Q 928 2841 928 2578 
Q 928 2378 1081 2264 
Q 1234 2150 1697 2047 
L 1894 2003 
Q 2506 1872 2764 1633 
Q 3022 1394 3022 966 
Q 3022 478 2636 193 
Q 2250 -91 1575 -91 
Q 1294 -91 989 -36 
Q 684 19 347 128 
L 347 722 
Q 666 556 975 473 
Q 1284 391 1588 391 
Q 1994 391 2212 530 
Q 2431 669 2431 922 
Q 2431 1156 2273 1281 
Q 2116 1406 1581 1522 
L 1381 1569 
Q 847 1681 609 1914 
Q 372 2147 372 2553 
Q 372 3047 722 3315 
Q 1072 3584 1716 3584 
Q 2034 3584 2315 3537 
Q 2597 3491 2834 3397 
z
" id="DejaVuSans-73" transform="scale(0.015625)"/>
       <path d="M 513 4856 
L 1013 4856 
Q 1481 4119 1714 3412 
Q 1947 2706 1947 2009 
Q 1947 1309 1714 600 
Q 1481 -109 1013 -844 
L 513 -844 
Q 928 -128 1133 580 
Q 1338 1288 1338 2009 
Q 1338 2731 1133 3434 
Q 928 4138 513 4856 
z
" id="DejaVuSans-29" transform="scale(0.015625)"/>
      </defs>
      <use xlink:href="#DejaVuSans-54"/>
      <use x="57.958984" xlink:href="#DejaVuSans-69"/>
      <use x="85.742188" xlink:href="#DejaVuSans-6d"/>
      <use x="183.154297" xlink:href="#DejaVuSans-65"/>
      <use x="244.677734" xlink:href="#DejaVuSans-28"/>
      <use x="283.691406" xlink:href="#DejaVuSans-6d"/>
      <use x="381.103516" xlink:href="#DejaVuSans-73"/>
      <use x="433.203125" xlink:href="#DejaVuSans-29"/>
     </g>
    </g>
   </g>
   <g id="matplotlib.axis_2">
    <g id="ytick_1">
     <g id="line2d_10">
      <defs>
       <path d="M 0 0 
L -3.5 0 
" id="mba3aeec944" style="stroke:#000000;stroke-width:0.8;"/>
      </defs>
      <g>
       <use style="stroke:#000000;stroke-width:0.8;" x="54" xlink:href="#mba3aeec944" y="237.504"/>
      </g>
     </g>
     <g id="text_11">
      <!-- -100 -->
      <g transform="translate(19.765625 242.063063)scale(0.12 -0.12)">
       <defs>
        <path d="M 313 2009 
L 1997 2009 
L 1997 1497 
L 313 1497 
L 313 2009 
z
" id="DejaVuSans-2d" transform="scale(0.015625)"/>
       </defs>
       <use xlink:href="#DejaVuSans-2d"/>
       <use x="36.083984" xlink:href="#DejaVuSans-31"/>
       <use x="99.707031" xlink:href="#DejaVuSans-30"/>
       <use x="163.330078" xlink:href="#DejaVuSans-30"/>
      </g>
     </g>
    </g>
    <g id="ytick_2">
     <g id="line2d_11">
      <g>
       <use style="stroke:#000000;stroke-width:0.8;" x="54" xlink:href="#mba3aeec944" y="208.512"/>
      </g>
     </g>
     <g id="text_12">
      <!-- -80 -->
      <g transform="translate(27.400625 213.071062)scale(0.12 -0.12)">
       <defs>
        <path d="M 2034 2216 
Q 1584 2216 1326 1975 
Q 1069 1734 1069 1313 
Q 1069 891 1326 650 
Q 1584 409 2034 409 
Q 2484 409 2743 651 
Q 3003 894 3003 1313 
Q 3003 1734 2745 1975 
Q 2488 2216 2034 2216 
z
M 1403 2484 
Q 997 2584 770 2862 
Q 544 3141 544 3541 
Q 544 4100 942 4425 
Q 1341 4750 2034 4750 
Q 2731 4750 3128 4425 
Q 3525 4100 3525 3541 
Q 3525 3141 3298 2862 
Q 3072 2584 2669 2484 
Q 3125 2378 3379 2068 
Q 3634 1759 3634 1313 
Q 3634 634 3220 271 
Q 2806 -91 2034 -91 
Q 1263 -91 848 271 
Q 434 634 434 1313 
Q 434 1759 690 2068 
Q 947 2378 1403 2484 
z
M 1172 3481 
Q 1172 3119 1398 2916 
Q 1625 2713 2034 2713 
Q 2441 2713 2670 2916 
Q 2900 3119 2900 3481 
Q 2900 3844 2670 4047 
Q 2441 4250 2034 4250 
Q 1625 4250 1398 4047 
Q 1172 3844 1172 3481 
z
" id="DejaVuSans-38" transform="scale(0.015625)"/>
       </defs>
       <use xlink:href="#DejaVuSans-2d"/>
       <use x="36.083984" xlink:href="#DejaVuSans-38"/>
       <use x="99.707031" xlink:href="#DejaVuSans-30"/>
      </g>
     </g>
    </g>
    <g id="ytick_3">
     <g id="line2d_12">
      <g>
       <use style="stroke:#000000;stroke-width:0.8;" x="54" xlink:href="#mba3aeec944" y="179.52"/>
      </g>
     </g>
     <g id="text_13">
      <!-- -60 -->
      <g transform="translate(27.400625 184.079062)scale(0.12 -0.12)">
       <defs>
        <path d="M 2113 2584 
Q 1688 2584 1439 2293 
Q 1191 2003 1191 1497 
Q 1191 994 1439 701 
Q 1688 409 2113 409 
Q 2538 409 2786 701 
Q 3034 994 3034 1497 
Q 3034 2003 2786 2293 
Q 2538 2584 2113 2584 
z
M 3366 4563 
L 3366 3988 
Q 3128 4100 2886 4159 
Q 2644 4219 2406 4219 
Q 1781 4219 1451 3797 
Q 1122 3375 1075 2522 
Q 1259 2794 1537 2939 
Q 1816 3084 2150 3084 
Q 2853 3084 3261 2657 
Q 3669 2231 3669 1497 
Q 3669 778 3244 343 
Q 2819 -91 2113 -91 
Q 1303 -91 875 529 
Q 447 1150 447 2328 
Q 447 3434 972 4092 
Q 1497 4750 2381 4750 
Q 2619 4750 2861 4703 
Q 3103 4656 3366 4563 
z
" id="DejaVuSans-36" transform="scale(0.015625)"/>
       </defs>
       <use xlink:href="#DejaVuSans-2d"/>
       <use x="36.083984" xlink:href="#DejaVuSans-36"/>
       <use x="99.707031" xlink:href="#DejaVuSans-30"/>
      </g>
     </g>
    </g>
    <g id="ytick_4">
     <g id="line2d_13">
      <g>
       <use style="stroke:#000000;stroke-width:0.8;" x="54" xlink:href="#mba3aeec944" y="150.528"/>
      </g>
     </g>
     <g id="text_14">
      <!-- -40 -->
      <g transform="translate(27.400625 155.087063)scale(0.12 -0.12)">
       <use xlink:href="#DejaVuSans-2d"/>
       <use x="36.083984" xlink:href="#DejaVuSans-34"/>
       <use x="99.707031" xlink:href="#DejaVuSans-30"/>
      </g>
     </g>
    </g>
    <g id="ytick_5">
     <g id="line2d_14">
      <g>
       <use style="stroke:#000000;stroke-width:0.8;" x="54" xlink:href="#mba3aeec944" y="121.536"/>
      </g>
     </g>
     <g id="text_15">
      <!-- -20 -->
      <g transform="translate(27.400625 126.095062)scale(0.12 -0.12)">
       <use xlink:href="#DejaVuSans-2d"/>
       <use x="36.083984" xlink:href="#DejaVuSans-32"/>
       <use x="99.707031" xlink:href="#DejaVuSans-30"/>
      </g>
     </g>
    </g>
    <g id="ytick_6">
     <g id="line2d_15">
      <g>
       <use style="stroke:#000000;stroke-width:0.8;" x="54" xlink:href="#mba3aeec944" y="92.544"/>
      </g>
     </g>
     <g id="text_16">
      <!-- 0 -->
      <g transform="translate(39.365 97.103062)scale(0.12 -0.12)">
       <use xlink:href="#DejaVuSans-30"/>
      </g>
     </g>
    </g>
    <g id="ytick_7">
     <g id="line2d_16">
      <g>
       <use style="stroke:#000000;stroke-width:0.8;" x="54" xlink:href="#mba3aeec944" y="63.552"/>
      </g>
     </g>
     <g id="text_17">
      <!-- 20 -->
      <g transform="translate(31.73 68.111063)scale(0.12 -0.12)">
       <use xlink:href="#DejaVuSans-32"/>
       <use x="63.623047" xlink:href="#DejaVuSans-30"/>
      </g>
     </g>
    </g>
    <g id="ytick_8">
     <g id="line2d_17">
      <g>
       <use style="stroke:#000000;stroke-width:0.8;" x="54" xlink:href="#mba3aeec944" y="34.56"/>
      </g>
     </g>
     <g id="text_18">
      <!-- 40 -->
      <g transform="translate(31.73 39.119062)scale(0.12 -0.12)">
       <use xlink:href="#DejaVuSans-34"/>
       <use x="63.623047" xlink:href="#DejaVuSans-30"/>
      </g>
     </g>
    </g>
    <g id="text_19">
     <!-- Membrane potential (mV) -->
     <g transform="translate(13.27 220.574062)rotate(-90)scale(0.12 -0.12)">
      <defs>
       <path d="M 628 4666 
L 1569 4666 
L 2759 1491 
L 3956 4666 
L 4897 4666 
L 4897 0 
L 4281 0 
L 4281 4097 
L 3078 897 
L 2444 897 
L 1241 4097 
L 1241 0 
L 628 0 
L 628 4666 
z
" id="DejaVuSans-4d" transform="scale(0.015625)"/>
       <path d="M 3116 1747 
Q 3116 2381 2855 2742 
Q 2594 3103 2138 3103 
Q 1681 3103 1420 2742 
Q 1159 2381 1159 1747 
Q 1159 1113 1420 752 
Q 1681 391 2138 391 
Q 2594 391 2855 752 
Q 3116 1113 3116 1747 
z
M 1159 2969 
Q 1341 3281 1617 3432 
Q 1894 3584 2278 3584 
Q 2916 3584 3314 3078 
Q 3713 2572 3713 1747 
Q 3713 922 3314 415 
Q 2916 -91 2278 -91 
Q 1894 -91 1617 61 
Q 1341 213 1159 525 
L 1159 0 
L 581 0 
L 581 4863 
L 1159 4863 
L 1159 2969 
z
" id="DejaVuSans-62" transform="scale(0.015625)"/>
       <path d="M 2631 2963 
Q 2534 3019 2420 3045 
Q 2306 3072 2169 3072 
Q 1681 3072 1420 2755 
Q 1159 2438 1159 1844 
L 1159 0 
L 581 0 
L 581 3500 
L 1159 3500 
L 1159 2956 
Q 1341 3275 1631 3429 
Q 1922 3584 2338 3584 
Q 2397 3584 2469 3576 
Q 2541 3569 2628 3553 
L 2631 2963 
z
" id="DejaVuSans-72" transform="scale(0.015625)"/>
       <path d="M 2194 1759 
Q 1497 1759 1228 1600 
Q 959 1441 959 1056 
Q 959 750 1161 570 
Q 1363 391 1709 391 
Q 2188 391 2477 730 
Q 2766 1069 2766 1631 
L 2766 1759 
L 2194 1759 
z
M 3341 1997 
L 3341 0 
L 2766 0 
L 2766 531 
Q 2569 213 2275 61 
Q 1981 -91 1556 -91 
Q 1019 -91 701 211 
Q 384 513 384 1019 
Q 384 1609 779 1909 
Q 1175 2209 1959 2209 
L 2766 2209 
L 2766 2266 
Q 2766 2663 2505 2880 
Q 2244 3097 1772 3097 
Q 1472 3097 1187 3025 
Q 903 2953 641 2809 
L 641 3341 
Q 956 3463 1253 3523 
Q 1550 3584 1831 3584 
Q 2591 3584 2966 3190 
Q 3341 2797 3341 1997 
z
" id="DejaVuSans-61" transform="scale(0.015625)"/>
       <path d="M 3513 2113 
L 3513 0 
L 2938 0 
L 2938 2094 
Q 2938 2591 2744 2837 
Q 2550 3084 2163 3084 
Q 1697 3084 1428 2787 
Q 1159 2491 1159 1978 
L 1159 0 
L 581 0 
L 581 3500 
L 1159 3500 
L 1159 2956 
Q 1366 3272 1645 3428 
Q 1925 3584 2291 3584 
Q 2894 3584 3203 3211 
Q 3513 2838 3513 2113 
z
" id="DejaVuSans-6e" transform="scale(0.015625)"/>
       <path id="DejaVuSans-20" transform="scale(0.015625)"/>
       <path d="M 1159 525 
L 1159 -1331 
L 581 -1331 
L 581 3500 
L 1159 3500 
L 1159 2969 
Q 1341 3281 1617 3432 
Q 1894 3584 2278 3584 
Q 2916 3584 3314 3078 
Q 3713 2572 3713 1747 
Q 3713 922 3314 415 
Q 2916 -91 2278 -91 
Q 1894 -91 1617 61 
Q 1341 213 1159 525 
z
M 3116 1747 
Q 3116 2381 2855 2742 
Q 2594 3103 2138 3103 
Q 1681 3103 1420 2742 
Q 1159 2381 1159 1747 
Q 1159 1113 1420 752 
Q 1681 391 2138 391 
Q 2594 391 2855 752 
Q 3116 1113 3116 1747 
z
" id="DejaVuSans-70" transform="scale(0.015625)"/>
       <path d="M 1959 3097 
Q 1497 3097 1228 2736 
Q 959 2375 959 1747 
Q 959 1119 1226 758 
Q 1494 397 1959 397 
Q 2419 397 2687 759 
Q 2956 1122 2956 1747 
Q 2956 2369 2687 2733 
Q 2419 3097 1959 3097 
z
M 1959 3584 
Q 2709 3584 3137 3096 
Q 3566 2609 3566 1747 
Q 3566 888 3137 398 
Q 2709 -91 1959 -91 
Q 1206 -91 779 398 
Q 353 888 353 1747 
Q 353 2609 779 3096 
Q 1206 3584 1959 3584 
z
" id="DejaVuSans-6f" transform="scale(0.015625)"/>
       <path d="M 1172 4494 
L 1172 3500 
L 2356 3500 
L 2356 3053 
L 1172 3053 
L 1172 1153 
Q 1172 725 1289 603 
Q 1406 481 1766 481 
L 2356 481 
L 2356 0 
L 1766 0 
Q 1100 0 847 248 
Q 594 497 594 1153 
L 594 3053 
L 172 3053 
L 172 3500 
L 594 3500 
L 594 4494 
L 1172 4494 
z
" id="DejaVuSans-74" transform="scale(0.015625)"/>
       <path d="M 603 4863 
L 1178 4863 
L 1178 0 
L 603 0 
L 603 4863 
z
" id="DejaVuSans-6c" transform="scale(0.015625)"/>
       <path d="M 1831 0 
L 50 4666 
L 709 4666 
L 2188 738 
L 3669 4666 
L 4325 4666 
L 2547 0 
L 1831 0 
z
" id="DejaVuSans-56" transform="scale(0.015625)"/>
      </defs>
      <use xlink:href="#DejaVuSans-4d"/>
      <use x="86.279297" xlink:href="#DejaVuSans-65"/>
      <use x="147.802734" xlink:href="#DejaVuSans-6d"/>
      <use x="245.214844" xlink:href="#DejaVuSans-62"/>
      <use x="308.691406" xlink:href="#DejaVuSans-72"/>
      <use x="349.804688" xlink:href="#DejaVuSans-61"/>
      <use x="411.083984" xlink:href="#DejaVuSans-6e"/>
      <use x="474.462891" xlink:href="#DejaVuSans-65"/>
      <use x="535.986328" xlink:href="#DejaVuSans-20"/>
      <use x="567.773438" xlink:href="#DejaVuSans-70"/>
      <use x="631.25" xlink:href="#DejaVuSans-6f"/>
      <use x="692.431641" xlink:href="#DejaVuSans-74"/>
      <use x="731.640625" xlink:href="#DejaVuSans-65"/>
      <use x="793.164062" xlink:href="#DejaVuSans-6e"/>
      <use x="856.542969" xlink:href="#DejaVuSans-74"/>
      <use x="895.751953" xlink:href="#DejaVuSans-69"/>
      <use x="923.535156" xlink:href="#DejaVuSans-61"/>
      <use x="984.814453" xlink:href="#DejaVuSans-6c"/>
      <use x="1012.597656" xlink:href="#DejaVuSans-20"/>
      <use x="1044.384766" xlink:href="#DejaVuSans-28"/>
      <use x="1083.398438" xlink:href="#DejaVuSans-6d"/>
      <use x="1180.810547" xlink:href="#DejaVuSans-56"/>
      <use x="1249.21875" xlink:href="#DejaVuSans-29"/>
     </g>
    </g>
   </g>
   <g id="line2d_18">
    <path clip-path="url(#pa4354cbf61)" d="M 69.218182 227.582938 
L 69.487871 227.146753 
L 69.564925 227.246196 
L 69.680506 227.333461 
L 69.719033 227.308383 
L 69.911669 227.001503 
L 69.950196 227.023827 
L 70.02725 227.097032 
L 70.065777 227.038903 
L 70.836318 223.35286 
L 70.913372 223.459985 
L 71.106007 224.488187 
L 71.876548 229.648038 
L 71.915075 229.54961 
L 72.338872 226.731153 
L 72.608562 224.285532 
L 72.685616 224.208124 
L 72.724143 224.249582 
L 73.302048 225.398825 
L 74.034062 229.253457 
L 74.149643 229.072692 
L 74.45786 228.185971 
L 74.650495 227.597144 
L 74.766076 227.690933 
L 74.997238 228.401817 
L 75.112819 228.559823 
L 75.151346 228.532571 
L 75.575144 227.979548 
L 75.88336 226.457613 
L 76.461266 221.185998 
L 76.576847 221.074958 
L 76.615374 221.106705 
L 77.077699 221.115112 
L 77.540023 222.66488 
L 77.617077 222.530792 
L 77.694131 222.432944 
L 77.732658 222.48252 
L 77.848239 222.768816 
L 77.925293 222.739679 
L 77.96382 222.75316 
L 78.272037 221.681181 
L 78.310564 221.717421 
L 78.349091 221.753661 
L 78.387618 221.675818 
L 78.657307 220.238684 
L 78.811415 218.568455 
L 79.119632 214.441734 
L 79.466375 212.817602 
L 79.543429 212.929076 
L 79.967227 214.00323 
L 80.082808 214.3665 
L 80.891876 218.700804 
L 80.930403 218.604115 
L 81.3542 216.765298 
L 81.392727 216.758774 
L 81.816525 215.277428 
L 81.893579 215.406877 
L 82.124741 216.052529 
L 82.163268 216.034119 
L 82.278849 215.879012 
L 82.471484 215.340051 
L 82.510012 215.394846 
L 82.779701 215.933227 
L 83.04939 216.59468 
L 83.203498 216.634979 
L 83.434661 217.206846 
L 84.051093 219.373418 
L 84.320783 220.366249 
L 84.513418 221.015525 
L 84.860161 222.217098 
L 84.898688 222.069384 
L 85.206904 220.70647 
L 85.438067 220.59949 
L 85.78481 219.1122 
L 86.015972 216.916491 
L 86.093026 216.863725 
L 86.131554 216.93635 
L 86.401243 218.184311 
L 86.670932 220.046322 
L 86.902094 221.135987 
L 86.979148 221.182519 
L 87.017675 221.136421 
L 87.133257 221.072929 
L 87.171784 221.113083 
L 87.595581 222.134471 
L 87.980852 223.795713 
L 88.019379 223.74947 
L 88.289068 223.246314 
L 88.558757 221.08902 
L 88.712865 220.981604 
L 89.098136 220.238104 
L 89.252244 219.960071 
L 89.56046 218.58498 
L 89.753096 218.398127 
L 89.868677 218.594113 
L 90.099839 219.501418 
L 90.176893 219.298474 
L 90.253947 219.231212 
L 90.292474 219.292095 
L 90.446582 220.005878 
L 90.908907 222.376264 
L 90.985961 222.297696 
L 91.140069 222.069529 
L 91.178596 222.095042 
L 91.371231 222.586311 
L 91.872083 224.143907 
L 92.064718 224.440205 
L 92.180299 224.585455 
L 92.989367 221.325449 
L 93.220529 220.643268 
L 93.33611 220.88796 
L 93.567273 222.183033 
L 94.029597 224.682288 
L 94.106651 224.740272 
L 94.145178 224.709975 
L 94.453395 224.442234 
L 94.684557 223.391129 
L 95.146881 219.695809 
L 95.416571 219.620285 
L 96.07153 220.948118 
L 96.187112 221.291529 
L 96.225639 221.165993 
L 96.456801 219.215122 
L 96.765017 216.950267 
L 96.919125 216.845316 
L 96.957652 216.879961 
L 96.99618 216.91852 
L 97.034707 216.834878 
L 97.188815 216.283596 
L 97.227342 216.295772 
L 97.342923 216.660057 
L 97.612612 218.668477 
L 97.843774 219.81801 
L 97.997883 219.813227 
L 98.151991 220.365379 
L 98.267572 220.865926 
L 98.306099 220.764744 
L 98.691369 219.60289 
L 98.806951 219.268177 
L 98.961059 218.664129 
L 98.999586 218.684423 
L 99.384856 219.501852 
L 99.423383 219.380956 
L 99.654545 218.842719 
L 99.770127 218.851707 
L 99.924235 219.391393 
L 100.386559 221.841072 
L 100.463613 221.779609 
L 100.579194 221.844116 
L 100.964465 222.795054 
L 101.002992 222.73678 
L 101.272681 222.01169 
L 101.311208 222.032854 
L 101.465316 222.436713 
L 101.696479 223.001477 
L 101.81206 223.275886 
L 102.235857 224.716209 
L 102.274384 224.696494 
L 102.312911 224.683303 
L 102.544074 224.04258 
L 102.582601 224.091576 
L 102.967871 224.631552 
L 103.121979 224.444988 
L 103.661358 221.59406 
L 103.738412 221.673788 
L 103.89252 222.094172 
L 103.931047 222.014734 
L 104.085155 221.34125 
L 104.316318 220.251006 
L 104.624534 220.601229 
L 104.894223 220.345085 
L 104.93275 220.392777 
L 105.086858 220.90782 
L 105.664764 223.303284 
L 105.818872 223.301834 
L 105.97298 223.102659 
L 106.204143 221.474033 
L 106.62794 218.325937 
L 106.743521 218.648183 
L 107.128792 221.042632 
L 107.244373 221.549268 
L 107.2829 221.500996 
L 107.398481 221.438953 
L 107.514062 221.733512 
L 107.783751 223.321693 
L 108.284603 226.207267 
L 108.669873 227.176905 
L 108.823982 227.147333 
L 109.209252 225.442023 
L 109.324833 224.805214 
L 109.748631 222.366117 
L 109.902739 222.216373 
L 110.365063 220.096044 
L 110.442117 220.246947 
L 110.634753 221.222093 
L 111.135604 223.987785 
L 111.289712 224.188119 
L 111.636456 224.101433 
L 111.71351 223.870947 
L 112.060253 222.098666 
L 112.09878 222.117656 
L 112.252888 222.554855 
L 112.984902 225.881687 
L 113.061956 225.809062 
L 113.177537 225.882267 
L 113.293119 226.166968 
L 113.331646 226.063757 
L 113.447227 225.879803 
L 113.485754 225.911839 
L 113.639862 226.112753 
L 113.755443 225.543785 
L 114.410403 221.353137 
L 114.487457 221.260072 
L 114.680092 219.514754 
L 114.872727 218.544682 
L 115.026835 218.682973 
L 115.142417 218.8965 
L 115.758849 220.728214 
L 115.87443 220.324211 
L 116.067066 219.720597 
L 116.182647 219.990368 
L 116.799079 222.746057 
L 116.876133 222.655022 
L 117.030242 222.361188 
L 117.18435 222.149837 
L 117.299931 222.319295 
L 117.338458 222.262036 
L 117.685201 220.872884 
L 117.723728 220.899412 
L 118.147526 221.085685 
L 118.455742 221.645811 
L 118.725432 221.323565 
L 118.802486 221.458088 
L 119.072175 222.298711 
L 119.110702 222.244931 
L 119.26481 221.429965 
L 119.457445 220.901296 
L 119.573026 220.720821 
L 119.996824 218.641515 
L 120.112405 218.946221 
L 121.075581 223.024236 
L 121.383797 223.245734 
L 121.653487 222.696336 
L 121.692014 222.745767 
L 122.192865 223.577258 
L 122.269919 223.633212 
L 122.308446 223.593638 
L 122.539609 223.345467 
L 123.348677 224.452961 
L 123.541312 224.868852 
L 123.579839 224.786659 
L 123.888055 224.131875 
L 124.08069 224.161447 
L 124.273326 224.661559 
L 124.658596 225.773692 
L 125.005339 226.218139 
L 125.043867 226.132468 
L 125.197975 224.754478 
L 125.544718 221.791786 
L 126.122624 218.903603 
L 126.353786 219.082628 
L 126.546421 220.027043 
L 126.777583 221.006392 
L 126.970219 220.683711 
L 127.008746 220.752857 
L 127.394016 222.218983 
L 127.856341 223.93212 
L 128.087503 223.667858 
L 128.12603 223.73251 
L 128.318665 224.429188 
L 128.549827 225.567124 
L 128.588354 225.466812 
L 128.896571 223.869932 
L 128.935098 223.916029 
L 129.089206 224.02185 
L 129.204787 224.1484 
L 129.435949 224.949884 
L 129.513003 224.825508 
L 129.667112 223.995757 
L 129.975328 222.44802 
L 130.052382 222.489333 
L 130.20649 223.02467 
L 130.47618 224.302348 
L 130.514707 224.280894 
L 130.745869 223.935309 
L 130.784396 223.971259 
L 130.938504 224.381206 
L 131.323774 225.54393 
L 131.477883 225.920536 
L 131.709045 226.719556 
L 131.747572 226.662587 
L 132.094315 225.863712 
L 132.171369 225.926915 
L 132.209896 225.820949 
L 132.402532 225.456519 
L 132.55664 225.772387 
L 132.749275 226.079847 
L 132.787802 226.076803 
L 132.94191 225.23647 
L 133.365708 223.093526 
L 133.442762 223.146437 
L 133.481289 223.016698 
L 133.59687 222.709382 
L 133.635397 222.725473 
L 133.750978 223.047284 
L 134.482992 226.093329 
L 134.521519 226.071585 
L 134.868262 225.177761 
L 134.906789 225.211247 
L 135.099425 225.700052 
L 135.369114 226.282501 
L 135.484695 226.187698 
L 135.638803 226.162764 
L 135.94702 226.227996 
L 136.139655 226.084051 
L 136.563452 225.822253 
L 136.833142 224.752884 
L 137.642209 216.854013 
L 137.757791 216.70079 
L 137.796318 216.727898 
L 138.02748 216.912722 
L 138.335696 218.276651 
L 138.41275 218.250993 
L 138.528331 217.17249 
L 138.759494 215.556621 
L 138.990656 215.335702 
L 139.029183 215.390352 
L 139.260345 216.349842 
L 140.339102 221.734526 
L 140.377629 221.714087 
L 140.7629 220.113439 
L 140.801427 220.138372 
L 140.955535 220.591372 
L 141.41786 222.327123 
L 141.456387 222.311757 
L 141.687549 221.469684 
L 141.726076 221.50491 
L 141.957238 221.820778 
L 142.072819 221.897027 
L 142.1884 222.0488 
L 142.226928 222.004007 
L 142.381036 221.83194 
L 142.419563 221.867745 
L 142.45809 221.913262 
L 142.496617 221.842956 
L 142.958941 219.543311 
L 143.190104 219.647827 
L 143.382739 217.926717 
L 143.690955 215.803778 
L 144.114753 213.882768 
L 144.191807 213.956553 
L 144.577077 215.173347 
L 144.615604 215.113623 
L 144.808239 214.084697 
L 144.846766 214.131664 
L 145.000875 214.9633 
L 146.272267 224.633581 
L 146.8887 226.01447 
L 146.965754 225.755137 
L 147.428078 222.421057 
L 147.543659 222.618203 
L 147.774822 223.714825 
L 148.275673 226.539371 
L 148.3142 226.48617 
L 148.506835 226.281777 
L 148.660944 226.414415 
L 148.853579 224.684317 
L 149.238849 221.625372 
L 149.315903 221.710608 
L 149.508539 222.543403 
L 149.855282 224.316989 
L 149.893809 224.269442 
L 150.124971 223.752949 
L 150.202025 223.793393 
L 150.356133 223.513041 
L 150.394661 223.557978 
L 150.433188 223.640171 
L 150.471715 223.553919 
L 150.587296 223.350396 
L 150.625823 223.396783 
L 150.741404 223.580737 
L 150.779931 223.556239 
L 150.856985 223.60683 
L 151.011093 224.13115 
L 151.242255 224.806519 
L 151.280783 224.87262 
L 151.31931 224.824639 
L 151.550472 224.38396 
L 151.666053 224.576902 
L 152.08985 225.649316 
L 152.128377 225.630181 
L 152.513648 224.705047 
L 152.590702 224.27814 
L 152.898918 221.649 
L 153.130081 221.000014 
L 153.168608 221.037559 
L 153.322716 221.592466 
L 153.669459 223.249503 
L 153.707986 223.237472 
L 153.823567 223.268928 
L 153.977675 223.652202 
L 154.170311 224.093026 
L 154.208838 224.080124 
L 154.517054 224.013443 
L 154.748216 224.254656 
L 154.82527 224.219866 
L 154.979379 224.098534 
L 155.09496 224.32902 
L 155.287595 224.785789 
L 155.48023 224.4921 
L 155.518757 224.526456 
L 155.826974 224.9293 
L 155.942555 224.704467 
L 156.058136 223.69772 
L 156.443406 219.96326 
L 156.674568 219.933253 
L 156.867204 220.847226 
L 157.406582 224.286692 
L 157.445109 224.056931 
L 158.138596 218.96898 
L 158.21565 219.00174 
L 158.600921 220.091695 
L 158.947664 221.879921 
L 159.063245 221.353572 
L 159.294407 220.351608 
L 159.409988 220.541216 
L 159.718205 221.843681 
L 159.872313 221.787147 
L 160.026421 222.272328 
L 160.29611 223.114111 
L 160.334638 223.099905 
L 160.604327 222.06402 
L 160.642854 222.081126 
L 160.989597 222.82767 
L 161.567503 225.088756 
L 161.60603 225.043528 
L 161.760138 224.422375 
L 162.029827 223.493616 
L 162.145409 223.693806 
L 162.376571 224.451367 
L 162.415098 224.397587 
L 162.569206 223.885878 
L 162.607733 223.899214 
L 162.723314 224.195657 
L 163.070058 226.082312 
L 163.147112 226.359475 
L 163.185639 226.309464 
L 163.30122 225.732378 
L 163.493855 225.030917 
L 163.647963 224.866532 
L 163.879125 224.543416 
L 164.071761 224.816811 
L 164.110288 224.657355 
L 164.457031 222.685609 
L 164.649666 221.887459 
L 164.72672 221.66567 
L 164.919356 221.101341 
L 164.957883 221.098007 
L 165.150518 220.488305 
L 165.189045 220.506135 
L 165.38168 220.94261 
L 165.497261 221.217309 
L 165.535788 221.128884 
L 165.689896 220.934492 
L 165.805478 221.202958 
L 166.075167 222.734605 
L 166.306329 223.736134 
L 166.768654 225.340116 
L 166.999816 226.084341 
L 167.308032 226.10826 
L 167.46214 226.363679 
L 167.500667 226.295113 
L 167.847411 224.609083 
L 168.232681 221.987627 
L 168.309735 222.058512 
L 168.695006 223.0641 
L 168.733533 223.023366 
L 168.926168 222.477446 
L 168.964695 222.518905 
L 169.118803 223.085264 
L 169.272911 223.651912 
L 169.311438 223.608134 
L 169.542601 223.093092 
L 169.658182 223.310097 
L 169.889344 223.707142 
L 170.004925 223.748166 
L 170.46725 224.625029 
L 170.929574 226.25322 
L 170.968101 226.32454 
L 171.006628 226.240173 
L 171.546007 223.608134 
L 171.931277 219.34602 
L 172.085386 218.898384 
L 172.200967 219.214542 
L 172.316548 219.514754 
L 172.355075 219.466772 
L 172.432129 219.416326 
L 172.470656 219.456335 
L 172.586237 219.538527 
L 172.624764 219.503012 
L 172.701818 219.418356 
L 172.894453 219.038705 
L 173.010035 219.207004 
L 173.20267 220.166204 
L 173.819102 223.826444 
L 174.204373 225.243283 
L 174.2429 225.182835 
L 174.435535 224.318293 
L 174.705224 222.358434 
L 174.782278 222.385687 
L 174.936387 222.89928 
L 175.129022 223.725552 
L 175.167549 223.651622 
L 175.706928 222.146213 
L 175.93809 221.798599 
L 176.130725 221.144249 
L 176.207779 221.262392 
L 176.361887 221.807441 
L 176.400414 221.762359 
L 176.708631 220.509035 
L 176.747158 220.545275 
L 176.901266 221.116707 
L 176.97832 221.344584 
L 177.055374 221.318056 
L 177.170955 221.428226 
L 177.286536 221.651174 
L 177.325063 221.610731 
L 177.594753 221.280367 
L 177.710334 221.521435 
L 177.941496 222.363653 
L 178.01855 222.283345 
L 178.134131 222.331907 
L 178.288239 222.86246 
L 178.519402 223.493761 
L 178.827618 224.399616 
L 179.174361 225.99606 
L 179.405524 227.020638 
L 179.444051 226.917136 
L 179.752267 225.45391 
L 179.867848 225.601479 
L 180.137537 226.614025 
L 180.176064 226.768552 
L 180.214591 226.710133 
L 180.638389 225.636995 
L 180.676916 225.666421 
L 180.792497 225.592202 
L 180.946605 225.586259 
L 181.139241 226.092604 
L 181.331876 226.57909 
L 181.370403 226.566043 
L 181.601565 226.309029 
L 182.06389 223.959517 
L 182.333579 223.543772 
L 182.44916 223.351845 
L 182.487687 223.369385 
L 182.641795 223.797742 
L 182.950012 224.997576 
L 182.988539 224.944086 
L 183.373809 223.690182 
L 183.450863 223.773679 
L 183.797606 224.480214 
L 183.836133 224.375988 
L 184.837837 221.049445 
L 184.914891 221.080177 
L 185.068999 221.679007 
L 185.300161 222.770411 
L 185.338688 222.710397 
L 185.646904 221.5052 
L 185.762486 221.436634 
L 185.801013 221.475338 
L 185.955121 221.962259 
L 186.918297 226.21582 
L 186.995351 226.309464 
L 187.033878 226.200744 
L 187.303567 224.543126 
L 187.53473 221.717856 
L 187.804419 219.690011 
L 187.997054 219.153224 
L 188.151162 219.578536 
L 188.420852 220.769528 
L 188.998757 223.863844 
L 189.306974 224.744331 
L 189.422555 224.687362 
L 189.730771 223.016698 
L 189.769298 223.059461 
L 189.884879 223.22399 
L 189.923406 223.17021 
L 190.038987 222.86449 
L 190.385731 221.402133 
L 190.539839 221.398074 
L 190.925109 222.224636 
L 191.117745 223.094541 
L 191.156272 223.063955 
L 191.464488 222.021547 
L 191.657123 221.437648 
L 191.811231 221.424022 
L 192.273556 220.216215 
L 192.312083 220.276374 
L 192.504718 221.067565 
L 192.697353 221.510708 
L 192.928516 221.559125 
L 193.159678 221.45142 
L 193.313786 221.966317 
L 194.122854 225.741946 
L 194.161381 225.72455 
L 194.354016 225.612496 
L 194.508124 225.941556 
L 194.777814 226.616054 
L 194.816341 226.543719 
L 195.124557 224.805359 
L 195.240138 224.874215 
L 195.895098 226.436594 
L 196.588585 229.173584 
L 196.627112 229.104293 
L 196.819747 228.725657 
L 196.973855 228.866558 
L 197.050909 228.942083 
L 197.089436 228.906712 
L 197.243544 228.130741 
L 197.667342 226.315987 
L 197.782923 226.421953 
L 197.975558 226.639248 
L 198.129666 226.694333 
L 198.399356 227.251559 
L 198.437883 227.15893 
L 198.553464 226.34324 
L 199.054315 220.32711 
L 199.285478 219.573173 
L 199.362532 219.516204 
L 199.401059 219.567664 
L 199.555167 220.203314 
L 199.940437 223.265304 
L 200.133072 224.251902 
L 200.402762 224.425419 
L 200.672451 224.00286 
L 200.865086 222.462516 
L 201.057722 221.818458 
L 201.173303 222.059672 
L 201.558573 223.141943 
L 201.712681 223.520868 
L 202.25206 225.542771 
L 202.290587 225.530594 
L 202.560276 225.57988 
L 202.791438 226.27018 
L 202.90702 226.130728 
L 202.945547 226.119276 
L 203.523452 223.077436 
L 203.870196 220.029072 
L 204.062831 219.860918 
L 204.178412 220.076909 
L 204.409574 221.448375 
L 204.98748 225.280103 
L 205.064534 225.393172 
L 205.103061 225.321562 
L 205.37275 224.325831 
L 205.603913 223.331116 
L 205.719494 223.202391 
L 206.104764 221.63059 
L 206.143291 221.66828 
L 206.490035 222.594429 
L 206.68267 223.300674 
L 206.759724 223.244285 
L 206.875305 223.211524 
L 207.029413 223.513476 
L 207.06794 223.415338 
L 207.260575 223.141363 
L 207.453211 223.367646 
L 207.491738 223.290672 
L 207.7229 222.938709 
L 207.838481 222.955235 
L 207.992589 223.443025 
L 208.223751 224.469342 
L 208.300806 224.40353 
L 208.416387 224.414547 
L 208.570495 224.677069 
L 208.647549 224.594587 
L 208.76313 224.378742 
L 209.1484 223.173979 
L 209.263982 222.99133 
L 209.302509 223.026845 
L 209.456617 223.239211 
L 209.495144 223.171515 
L 209.726306 222.855647 
L 209.841887 223.049748 
L 209.957468 223.221091 
L 209.995995 223.179778 
L 210.150104 223.119909 
L 210.304212 223.475496 
L 210.573901 224.183626 
L 210.650955 224.103173 
L 211.036226 223.076566 
L 211.267388 222.839556 
L 211.614131 220.749813 
L 211.652658 220.787068 
L 211.691185 220.712413 
L 211.845293 220.610217 
L 212.037929 220.504106 
L 212.076456 220.558901 
L 212.230564 221.109459 
L 212.53878 223.085699 
L 212.615834 222.837527 
L 212.80847 222.5205 
L 212.885524 222.516441 
L 213.078159 222.017488 
L 213.232267 220.574122 
L 213.57901 217.369926 
L 213.810173 215.519076 
L 214.118389 214.158337 
L 214.23397 214.055125 
L 214.272497 214.102237 
L 214.426605 214.694254 
L 214.580713 215.385423 
L 214.619241 215.309029 
L 215.043038 213.903932 
L 215.120092 214.010913 
L 215.2742 214.76485 
L 215.775052 217.557069 
L 216.083268 218.806914 
L 216.160322 218.632672 
L 216.622647 215.886405 
L 216.892336 215.025343 
L 216.930863 215.044767 
L 217.046444 215.111739 
L 217.431715 214.047443 
L 217.508769 214.172253 
L 218.125201 215.912498 
L 218.240783 215.9786 
L 218.394891 216.466535 
L 218.972796 219.851351 
L 219.281013 221.595945 
L 219.396594 221.740325 
L 219.550702 222.240582 
L 219.589229 222.102725 
L 220.783567 212.651478 
L 220.860621 212.729756 
L 221.01473 213.557333 
L 221.207365 214.5261 
L 221.245892 214.451591 
L 221.477054 213.510801 
L 221.515581 213.53124 
L 221.669689 214.049617 
L 221.823797 214.572343 
L 221.862325 214.554658 
L 221.977906 214.083538 
L 222.632865 211.28581 
L 222.709919 211.305959 
L 222.864028 211.942623 
L 222.902555 212.127737 
L 222.941082 212.105413 
L 223.172244 211.024302 
L 223.249298 211.065325 
L 223.48046 210.50491 
L 223.596041 210.215425 
L 223.634568 210.245722 
L 223.904258 211.06866 
L 224.212474 212.468538 
L 224.751853 213.081429 
L 224.79038 213.037941 
L 224.867434 212.851523 
L 225.445339 209.317688 
L 225.522394 209.261878 
L 225.560921 209.29029 
L 225.676502 209.482942 
L 225.83061 209.772282 
L 225.869137 209.751988 
L 226.177353 208.812647 
L 226.21588 208.880633 
L 226.408516 209.625583 
L 226.447043 209.496278 
L 226.678205 208.80308 
L 226.793786 208.958187 
L 226.986421 209.407998 
L 227.024948 209.347984 
L 227.333165 207.989419 
L 227.371692 208.034502 
L 227.410219 208.052332 
L 227.487273 207.567296 
L 227.988124 200.216664 
L 228.527503 191.203921 
L 228.874246 188.29153 
L 229.336571 186.452567 
L 229.413625 186.170475 
L 229.683314 183.096743 
L 229.953003 178.823322 
L 230.26122 168.683225 
L 230.376801 157.434329 
L 230.415328 139.263013 
L 230.453855 46.526593 
L 230.492382 119.907519 
L 230.64649 197.336309 
L 230.685017 197.563461 
L 231.571139 173.720585 
L 231.725247 163.626876 
L 231.802301 140.30948 
L 231.840829 42.640215 
L 231.879356 110.263186 
L 232.033464 196.17141 
L 232.071991 196.687323 
L 232.110518 195.84525 
L 233.112221 165.136634 
L 233.189275 155.244564 
L 233.266329 55.302906 
L 233.304856 134.299583 
L 233.458964 194.417974 
L 233.497491 194.459288 
L 233.959816 181.316779 
L 234.268032 169.807825 
L 234.383613 160.486462 
L 234.42214 151.879462 
L 234.460667 51.69978 
L 234.499194 72.942654 
L 234.653303 192.233717 
L 234.69183 194.323895 
L 234.768884 192.91039 
L 235.308262 173.243377 
L 235.462371 156.457879 
L 235.539425 50.70434 
L 235.577952 127.020852 
L 235.73206 196.808364 
L 235.770587 196.783286 
L 236.502601 174.876931 
L 236.656709 164.422561 
L 236.733763 138.654181 
L 236.77229 41.370511 
L 236.810817 108.325215 
L 236.964925 195.949187 
L 237.003452 195.938604 
L 237.773993 165.959862 
L 237.851047 154.976677 
L 237.928101 57.284364 
L 237.966628 137.757749 
L 238.120736 195.131902 
L 238.159264 195.06609 
L 238.506007 184.605197 
L 238.737169 172.693834 
L 238.85275 159.846319 
L 238.891277 141.36015 
L 238.929804 36.702074 
L 238.968331 97.982464 
L 239.12244 197.224255 
L 239.160967 197.465468 
L 239.89298 168.812385 
L 240.008562 151.999199 
L 240.047089 43.478519 
L 240.085616 72.876407 
L 240.239724 193.377596 
L 240.278251 194.735871 
L 240.316778 193.526615 
L 240.933211 161.327375 
L 240.971738 152.893312 
L 241.010265 56.065396 
L 241.048792 66.496572 
L 241.2029 191.515875 
L 241.241427 193.572422 
L 241.279954 192.979536 
L 241.973441 164.91383 
L 242.050495 149.107102 
L 242.089022 36.476806 
L 242.127549 82.096298 
L 242.281657 192.600031 
L 242.320184 193.986718 
L 242.358711 193.285112 
L 243.206306 162.314988 
L 243.244833 155.608703 
L 243.321887 52.590415 
L 243.360414 128.98332 
L 243.514522 192.47725 
L 243.553049 192.301993 
L 244.015374 173.7777 
L 244.169482 162.26918 
L 244.208009 154.835052 
L 244.285063 55.887385 
L 244.32359 134.01952 
L 244.477699 192.913579 
L 244.554753 191.049394 
L 245.094131 164.848164 
L 245.171185 137.777318 
L 245.209712 38.994906 
L 245.248239 101.845358 
L 245.402348 194.14255 
L 245.440875 194.581634 
L 245.749091 183.207637 
L 246.057307 168.34112 
L 246.134361 158.786226 
L 246.172888 140.265557 
L 246.211415 38.933588 
L 246.249942 101.405405 
L 246.404051 194.10747 
L 246.442578 194.458853 
L 247.136064 170.088612 
L 247.251646 158.619812 
L 247.290173 142.959348 
L 247.3287 38.92808 
L 247.367227 99.681685 
L 247.521335 192.849362 
L 247.559862 193.284532 
L 247.906605 180.348446 
L 248.176295 164.097416 
L 248.253349 137.266624 
L 248.291876 40.985352 
L 248.330403 106.06297 
L 248.484511 193.904671 
L 248.523038 194.253444 
L 248.869781 181.662364 
L 249.139471 165.82244 
L 249.216525 149.907571 
L 249.255052 34.420548 
L 249.293579 78.251669 
L 249.447687 193.111015 
L 249.486214 194.298382 
L 249.524741 193.210747 
L 250.141174 164.20802 
L 250.218228 138.31512 
L 250.256755 40.61324 
L 250.295282 105.148417 
L 250.44939 193.221764 
L 250.487917 193.254235 
L 251.065823 166.362126 
L 251.142877 156.872609 
L 251.181404 135.391857 
L 251.219931 44.587463 
L 251.258458 112.355973 
L 251.412566 191.763322 
L 251.451093 192.054836 
L 252.183107 169.995983 
L 252.298688 155.624214 
L 252.375742 53.232008 
L 252.414269 130.204173 
L 252.568377 193.828712 
L 252.606904 193.501682 
L 253.18481 168.926613 
L 253.300391 153.163663 
L 253.338918 54.298768 
L 253.377445 64.754733 
L 253.531554 191.247119 
L 253.570081 193.432971 
L 253.647135 191.53501 
L 254.147986 169.361928 
L 254.22504 159.736584 
L 254.263567 141.958545 
L 254.302094 36.013514 
L 254.340621 95.017308 
L 254.49473 194.648026 
L 254.533257 195.002598 
L 255.072635 171.322802 
L 255.188216 162.016805 
L 255.226743 154.625874 
L 255.303797 57.537175 
L 255.342325 136.835658 
L 255.496433 192.641054 
L 255.612014 188.52419 
L 255.997284 168.948937 
L 256.074338 158.113032 
L 256.151392 42.091687 
L 256.189919 108.955356 
L 256.344028 193.578801 
L 256.382555 193.243218 
L 256.844879 167.005748 
L 256.921933 154.123878 
L 256.96046 54.358347 
L 257.037514 138.949175 
L 257.191623 193.338892 
L 257.307204 189.447441 
L 257.846582 161.093844 
L 257.885109 150.646867 
L 257.923636 35.690543 
L 257.962163 74.3679 
L 258.116272 191.29713 
L 258.154799 192.743541 
L 258.193326 191.863924 
L 258.848285 165.066183 
L 258.925339 148.405786 
L 258.963867 35.454403 
L 259.002394 83.073038 
L 259.156502 192.042515 
L 259.195029 193.390498 
L 259.233556 192.679614 
L 259.849988 170.354179 
L 259.96557 158.025621 
L 260.004097 137.296921 
L 260.042624 41.468504 
L 260.081151 107.010283 
L 260.235259 194.046442 
L 260.273786 194.614685 
L 260.312313 193.728834 
L 260.967273 171.671721 
L 261.082854 161.29244 
L 261.121381 151.284981 
L 261.159908 36.559723 
L 261.198435 74.811913 
L 261.352543 194.419279 
L 261.39107 196.363192 
L 261.468124 195.022602 
L 262.469827 167.085331 
L 262.585409 153.276442 
L 262.662463 66.154177 
L 262.816571 191.77028 
L 262.893625 194.773416 
L 262.932152 194.050066 
L 263.355949 186.830333 
L 263.74122 179.252549 
L 264.049436 169.449194 
L 264.165017 160.341792 
L 264.203544 151.884971 
L 264.242071 54.09336 
L 264.280598 73.944472 
L 264.434707 192.38491 
L 264.473234 194.520316 
L 264.550288 193.250611 
L 265.551991 163.124879 
L 265.629045 150.047458 
L 265.667572 51.609325 
L 265.706099 81.016056 
L 265.860207 190.550441 
L 265.937261 193.022154 
L 265.975788 192.647578 
L 266.284005 190.13687 
L 266.592221 188.847161 
L 266.86191 188.379085 
L 267.054545 187.776342 
L 268.056249 182.963235 
L 268.210357 182.12754 
L 268.518573 180.427305 
L 269.327641 174.812424 
L 269.558803 170.136884 
L 269.751438 161.405653 
L 269.828493 146.465061 
L 269.86702 46.129692 
L 269.905547 94.302075 
L 270.059655 188.504621 
L 270.213763 191.874071 
L 270.483452 192.67657 
L 270.521979 192.793552 
L 270.560506 192.690051 
L 270.753142 192.111081 
L 270.791669 192.124707 
L 270.984304 192.492905 
L 271.215466 193.334108 
L 271.446628 194.801683 
L 274.143521 218.193588 
L 274.259102 217.611574 
L 274.6829 216.038758 
L 274.798481 216.427251 
L 275.06817 218.646878 
L 275.569022 222.689813 
L 275.800184 223.783246 
L 275.838711 223.625675 
L 275.992819 223.185721 
L 276.031346 223.212104 
L 276.185455 223.688587 
L 276.532198 224.848557 
L 276.840414 225.989392 
L 276.917468 225.76195 
L 277.456847 223.13513 
L 277.688009 222.84434 
L 278.034753 221.167878 
L 278.07328 221.206727 
L 278.304442 221.800338 
L 278.381496 221.634649 
L 278.535604 221.500416 
L 278.728239 221.601453 
L 278.920875 221.882531 
L 278.959402 221.817154 
L 279.229091 221.25065 
L 279.344672 221.315157 
L 280.038159 222.744898 
L 280.654591 225.120357 
L 280.962808 225.379691 
L 281.232497 225.511749 
L 281.463659 225.386649 
L 281.579241 225.521172 
L 281.84893 224.718093 
L 281.887457 224.748245 
L 282.080092 225.280103 
L 282.2342 225.485076 
L 282.311254 225.085712 
L 282.580944 223.62495 
L 282.657998 223.671047 
L 282.735052 223.75092 
L 282.966214 223.197753 
L 283.004741 223.229644 
L 283.158849 223.694965 
L 283.312957 224.273936 
L 283.351484 224.224214 
L 283.775282 223.122808 
L 283.813809 223.17253 
L 283.967917 223.690762 
L 284.122025 224.480649 
L 284.199079 224.442379 
L 284.276133 224.246538 
L 284.622877 222.991475 
L 285.008147 223.171225 
L 285.123728 223.288208 
L 285.277837 223.616252 
L 285.316364 223.559283 
L 285.431945 222.4644 
L 285.894269 215.895538 
L 286.125432 215.52357 
L 286.395121 214.914448 
L 286.703337 213.982645 
L 286.818918 214.036426 
L 286.973026 213.94829 
L 287.011554 213.997431 
L 287.165662 214.596551 
L 288.244419 220.809827 
L 288.321473 220.671535 
L 288.74527 217.870038 
L 289.092014 217.30049 
L 289.207595 217.027675 
L 289.246122 217.06609 
L 289.438757 217.678836 
L 289.708446 218.524097 
L 289.824028 218.632527 
L 290.209298 219.437055 
L 290.517514 219.424879 
L 290.671623 219.959926 
L 290.825731 220.214766 
L 291.056893 220.350883 
L 291.09542 220.281447 
L 291.827434 217.954839 
L 292.020069 217.524888 
L 292.13565 217.505898 
L 292.251231 217.853222 
L 292.559448 218.937088 
L 292.713556 219.514609 
L 292.906191 220.57876 
L 292.944718 220.502221 
L 293.368516 218.599476 
L 294.100529 214.020045 
L 294.177583 214.127026 
L 294.601381 215.990341 
L 295.217814 219.595497 
L 296.065409 227.027451 
L 296.18099 227.353176 
L 296.219517 227.325054 
L 296.450679 227.170816 
L 296.604787 227.35825 
L 296.913003 227.746018 
L 297.105639 227.935915 
L 297.452382 228.649843 
L 297.529436 228.436752 
L 297.953234 227.613524 
L 298.030288 227.492338 
L 298.299977 225.980405 
L 298.64672 223.820791 
L 298.800829 223.627559 
L 298.993464 223.093961 
L 299.031991 223.109762 
L 299.147572 223.38881 
L 299.571369 224.62097 
L 299.841059 225.915608 
L 299.95664 226.416444 
L 299.995167 226.362229 
L 300.149275 226.111304 
L 301.112451 220.271735 
L 301.343613 219.244259 
L 301.420667 219.349789 
L 301.613303 220.279273 
L 302.268262 223.744687 
L 302.383843 223.606105 
L 302.769114 222.66343 
L 302.807641 222.679666 
L 303.07733 222.741274 
L 303.192911 222.80694 
L 303.308493 222.82854 
L 303.424074 222.914791 
L 303.501128 223.127302 
L 303.578182 223.016408 
L 303.770817 222.39163 
L 304.11756 219.730164 
L 304.579885 217.06493 
L 304.656939 217.176839 
L 304.811047 217.97122 
L 305.234845 221.110184 
L 305.311899 221.082786 
L 305.388953 221.132797 
L 305.658642 221.856583 
L 305.735696 221.704955 
L 306.005386 220.18273 
L 306.429183 215.989327 
L 306.544764 215.794645 
L 306.583291 215.854659 
L 306.737399 216.592215 
L 307.161197 218.536999 
L 307.315305 218.771254 
L 307.430886 219.064508 
L 307.584994 219.606514 
L 307.623521 219.569839 
L 307.931738 217.860905 
L 308.008792 217.97035 
L 308.239954 219.089876 
L 308.933441 223.20848 
L 309.665455 228.178578 
L 309.85809 228.955709 
L 309.896617 228.911496 
L 310.281887 228.024341 
L 310.320414 228.043765 
L 310.513049 228.196553 
L 310.551577 228.111752 
L 310.705685 226.278588 
L 311.013901 223.589 
L 311.322117 220.50802 
L 311.591807 215.743909 
L 311.900023 210.979509 
L 312.786145 207.355364 
L 313.132888 207.407405 
L 313.364051 207.66065 
L 313.441105 207.458576 
L 313.63374 206.540254 
L 313.672267 206.561853 
L 313.787848 206.99166 
L 314.173119 208.922817 
L 314.250173 208.950214 
L 314.365754 209.431481 
L 315.136295 215.497622 
L 315.675673 221.094818 
L 315.98389 222.404676 
L 316.176525 222.494407 
L 316.831484 224.056786 
L 316.947066 223.454912 
L 317.370863 220.773732 
L 317.40939 220.813016 
L 317.486444 220.947828 
L 317.524971 220.85259 
L 317.833188 219.260494 
L 318.179931 217.145963 
L 318.411093 217.549531 
L 318.834891 218.708486 
L 319.220161 219.999355 
L 319.721013 222.411055 
L 319.913648 223.502604 
L 319.952175 223.456216 
L 320.183337 222.996838 
L 320.221864 223.030904 
L 320.375972 223.467668 
L 321.069459 226.386148 
L 321.107986 226.321931 
L 321.262094 225.83443 
L 321.570311 224.324817 
L 321.647365 224.165796 
L 321.994108 222.963642 
L 322.109689 222.985676 
L 322.302325 223.148611 
L 322.726122 222.344518 
L 323.804879 216.132837 
L 323.881933 216.248805 
L 324.074568 217.444435 
L 324.691001 223.799627 
L 324.999217 226.01679 
L 325.153326 225.971417 
L 325.23038 225.871975 
L 325.500069 224.200876 
L 325.885339 219.882662 
L 326.27061 216.117181 
L 326.309137 216.173136 
L 326.463245 216.950267 
L 326.964097 220.151708 
L 327.349367 220.448876 
L 327.503475 220.244193 
L 327.542002 220.277244 
L 327.69611 220.802289 
L 327.850219 221.594785 
L 327.888746 221.55782 
L 328.158435 220.535417 
L 328.235489 220.48961 
L 328.466651 219.828882 
L 328.505178 219.859614 
L 328.659287 220.406838 
L 329.00603 222.953785 
L 329.352773 224.956987 
L 329.429827 224.870591 
L 329.815098 222.883479 
L 329.892152 222.956829 
L 330.084787 223.673801 
L 330.393003 225.182255 
L 330.43153 225.020335 
L 330.662693 224.13318 
L 330.778274 224.264658 
L 331.125017 225.104991 
L 331.163544 225.050776 
L 331.279125 224.960321 
L 331.317652 224.994677 
L 331.779977 226.002874 
L 332.319356 227.350857 
L 332.473464 226.865241 
L 332.627572 225.949963 
L 332.820207 225.365774 
L 332.897261 225.3636 
L 332.974315 224.674315 
L 333.282532 221.767142 
L 333.552221 221.327479 
L 333.667802 221.394885 
L 333.860437 222.195934 
L 334.630978 226.345559 
L 334.746559 226.303666 
L 334.86214 225.984319 
L 335.324465 223.659885 
L 335.709735 222.217098 
L 335.825316 222.386556 
L 336.056479 222.751711 
L 336.403222 223.456651 
L 336.55733 223.436647 
L 336.711438 223.619296 
L 336.865547 224.015617 
L 336.904074 223.934584 
L 337.135236 222.591675 
L 337.520506 219.981815 
L 337.59756 219.933398 
L 337.636087 220.000805 
L 338.021358 221.489399 
L 338.406628 223.701199 
L 338.445155 223.671047 
L 338.753372 223.112661 
L 338.791899 223.131361 
L 339.138642 223.608714 
L 339.523913 222.02807 
L 339.600967 222.117076 
L 339.793602 222.889568 
L 339.986237 223.459405 
L 340.217399 222.912326 
L 340.255926 222.93726 
L 340.410035 223.383591 
L 340.679724 224.217836 
L 340.833832 224.239145 
L 341.026467 224.751579 
L 341.103521 224.528051 
L 341.257629 224.20276 
L 341.296157 224.231752 
L 341.450265 224.67359 
L 341.6429 225.355047 
L 341.681427 225.343016 
L 342.29786 224.061569 
L 342.606076 223.987495 
L 342.875765 223.67757 
L 343.029873 223.667568 
L 343.33809 223.041196 
L 343.646306 223.565661 
L 343.684833 223.658725 
L 343.72336 223.598857 
L 343.838941 223.392579 
L 343.877468 223.420846 
L 343.993049 223.631038 
L 344.031577 223.596393 
L 344.224212 223.206015 
L 344.339793 223.461 
L 344.802117 224.817246 
L 344.956226 225.0357 
L 344.994753 224.924371 
L 345.225915 224.447888 
L 345.380023 224.442379 
L 345.649712 223.834707 
L 345.80382 224.176378 
L 346.266145 225.404044 
L 346.381726 225.406508 
L 346.574361 224.209863 
L 346.766997 223.584071 
L 346.882578 223.337204 
L 347.11374 221.276453 
L 347.383429 220.068501 
L 347.576064 219.992397 
L 347.730173 218.763136 
L 348.15397 215.838858 
L 348.539241 213.994097 
L 348.616295 214.09412 
L 348.885984 214.620469 
L 348.924511 214.668306 
L 348.963038 214.623659 
L 349.117146 214.393607 
L 349.540944 215.10768 
L 349.772106 215.473124 
L 349.887687 215.582424 
L 350.041795 215.722745 
L 350.157376 215.904235 
L 350.350012 216.890253 
L 350.927917 220.678783 
L 351.043498 220.638629 
L 351.313188 220.605288 
L 351.390242 220.663707 
L 351.428769 220.620944 
L 351.659931 220.552957 
L 351.775512 220.818524 
L 352.430472 223.105993 
L 352.507526 223.057286 
L 352.661634 222.476867 
L 353.046904 220.030232 
L 353.085432 220.038929 
L 353.432175 220.453515 
L 353.62481 220.054295 
L 353.663337 220.103581 
L 353.817445 220.711979 
L 354.66504 225.370993 
L 354.857675 224.98424 
L 354.896203 225.016566 
L 355.050311 225.296049 
L 355.088838 225.206463 
L 355.204419 224.594297 
L 355.666743 220.992186 
L 355.859379 220.283187 
L 355.97496 220.498452 
L 356.437284 221.967622 
L 356.475811 221.945298 
L 356.861082 219.340222 
L 356.899609 219.392698 
L 357.053717 220.060963 
L 357.824258 223.580737 
L 358.05542 224.38686 
L 358.556272 226.366288 
L 358.864488 227.045861 
L 358.903015 226.977005 
L 359.365339 226.048246 
L 359.557975 225.79819 
L 359.712083 226.030416 
L 359.866191 226.43239 
L 359.904718 226.377885 
L 360.058826 226.248871 
L 360.13588 226.224228 
L 360.289988 226.050276 
L 360.328516 226.072599 
L 360.444097 226.07028 
L 360.521151 225.751078 
L 360.752313 224.542547 
L 360.867894 224.599806 
L 361.060529 225.240384 
L 361.17611 225.688165 
L 361.253165 225.657144 
L 361.330219 225.551758 
L 361.484327 225.315763 
L 361.522854 225.336927 
L 361.792543 225.321127 
L 361.946651 225.187619 
L 362.100759 225.518127 
L 362.293395 225.842838 
L 362.524557 225.772822 
L 362.717192 225.92561 
L 362.8713 225.642938 
L 363.372152 223.482309 
L 363.603314 222.547752 
L 363.680368 222.546447 
L 363.950058 221.88543 
L 364.142693 221.754531 
L 364.258274 221.77758 
L 364.527963 222.49919 
L 365.337031 224.940172 
L 365.375558 224.883927 
L 365.645247 224.376132 
L 365.760829 224.388164 
L 365.87641 224.543851 
L 365.914937 224.51254 
L 366.030518 224.553419 
L 366.223153 225.168629 
L 366.492842 226.244232 
L 366.531369 226.167548 
L 367.109275 225.019175 
L 367.147802 224.974817 
L 367.456018 223.370255 
L 367.5716 223.591464 
L 367.725708 223.844999 
L 368.188032 222.736345 
L 368.380667 222.226231 
L 368.496249 222.433379 
L 368.727411 222.849414 
L 368.842992 222.996548 
L 369.035627 223.701344 
L 369.536479 225.741801 
L 369.690587 225.88792 
L 369.998803 225.087886 
L 370.229965 223.96749 
L 370.499655 223.792379 
L 370.653763 222.68358 
L 370.846398 222.061846 
L 371.308723 222.842746 
L 371.578412 223.572764 
L 371.655466 223.392579 
L 372.271899 221.077423 
L 372.38748 221.30443 
L 373.080967 223.804265 
L 373.158021 223.75063 
L 373.273602 223.928786 
L 373.504764 224.654601 
L 373.581818 224.578352 
" style="fill:none;stroke:#000000;stroke-linecap:square;stroke-width:1.5;"/>
   </g>
   <g id="line2d_19">
    <path clip-path="url(#pa4354cbf61)" d="M 69.218182 227.582938 
L 69.487871 227.146753 
L 69.564925 227.246196 
L 69.680506 227.333461 
L 69.719033 227.308383 
L 69.911669 227.001503 
L 69.950196 227.023827 
L 70.02725 227.097032 
L 70.065777 227.038903 
L 70.836318 223.349961 
L 70.913372 223.456506 
L 71.106007 224.482823 
L 71.876548 229.636731 
L 71.915075 229.538013 
L 72.338872 226.715352 
L 72.608562 224.265528 
L 72.685616 224.18696 
L 72.724143 224.227838 
L 73.302048 225.369833 
L 74.034062 229.222145 
L 74.149643 229.041235 
L 74.45786 228.152485 
L 74.650495 227.561773 
L 74.766076 227.654403 
L 74.997238 228.363837 
L 75.112819 228.521264 
L 75.151346 228.493866 
L 75.575144 227.93809 
L 75.88336 226.412676 
L 76.461266 221.126709 
L 76.576847 221.012336 
L 76.615374 221.043067 
L 77.077699 221.041038 
L 77.540023 222.584137 
L 77.617077 222.449614 
L 77.694131 222.351186 
L 77.732658 222.400473 
L 77.848239 222.686044 
L 77.925293 222.656617 
L 77.96382 222.670098 
L 78.272037 221.594785 
L 78.310564 221.63059 
L 78.349091 221.66625 
L 78.387618 221.587972 
L 78.657307 220.146345 
L 78.811415 218.472202 
L 79.119632 214.332144 
L 79.466375 212.689167 
L 79.543429 212.796148 
L 79.9287 213.797966 
L 80.044281 214.03918 
L 80.468078 216.299976 
L 80.891876 218.508297 
L 81.007457 217.926282 
L 81.315673 216.604537 
L 81.431254 216.425656 
L 81.816525 215.051725 
L 81.893579 215.177116 
L 82.124741 215.812331 
L 82.163268 215.792616 
L 82.278849 215.63258 
L 82.471484 215.084631 
L 82.510012 215.137397 
L 82.779701 215.663457 
L 83.04939 216.316067 
L 83.203498 216.352162 
L 83.434661 216.91823 
L 84.012566 218.832717 
L 84.282255 220.010662 
L 84.474891 220.572237 
L 84.860161 221.950807 
L 85.361013 220.430611 
L 85.476594 220.196646 
L 85.630702 219.783655 
L 85.669229 219.81946 
L 85.707756 219.750024 
L 86.054499 216.573805 
L 86.093026 216.581053 
L 86.208608 216.948817 
L 86.979148 220.88622 
L 87.017675 220.840703 
L 87.133257 220.778805 
L 87.171784 220.819394 
L 87.595581 221.84977 
L 87.980852 223.526522 
L 88.019379 223.481729 
L 88.289068 222.984227 
L 88.558757 220.821713 
L 88.712865 220.709079 
L 89.136663 219.892955 
L 89.252244 219.659714 
L 89.56046 218.263024 
L 89.753096 218.060225 
L 89.868677 218.247079 
L 90.099839 219.140757 
L 90.176893 218.934624 
L 90.253947 218.863449 
L 90.292474 218.922592 
L 90.446582 219.630432 
L 90.908907 222.005892 
L 90.985961 221.929498 
L 91.140069 221.70394 
L 91.178596 221.729743 
L 91.371231 222.224201 
L 91.872083 223.798612 
L 92.103245 224.154634 
L 92.180299 224.253206 
L 92.95084 221.169037 
L 93.220529 220.287101 
L 93.33611 220.5244 
L 93.567273 221.81092 
L 94.029597 224.323077 
L 94.106651 224.38483 
L 94.145178 224.356273 
L 94.453395 224.098824 
L 94.684557 223.046994 
L 95.146881 219.310795 
L 95.416571 219.209033 
L 96.07153 220.499467 
L 96.187112 220.840993 
L 96.225639 220.715168 
L 96.456801 218.753859 
L 96.765017 216.455953 
L 96.919125 216.333607 
L 96.957652 216.363903 
L 96.99618 216.398259 
L 97.034707 216.310703 
L 97.227342 215.749418 
L 97.342923 216.100221 
L 97.612612 218.086463 
L 97.843774 219.232227 
L 97.997883 219.226718 
L 98.151991 219.779596 
L 98.267572 220.284347 
L 98.306099 220.185194 
L 98.691369 219.025369 
L 98.806951 218.688047 
L 98.961059 218.076751 
L 98.999586 218.094871 
L 99.384856 218.898384 
L 99.423383 218.776763 
L 99.654545 218.229394 
L 99.770127 218.231713 
L 99.924235 218.763861 
L 100.386559 221.223397 
L 100.463613 221.166138 
L 100.579194 221.236299 
L 100.964465 222.216663 
L 101.002992 222.161144 
L 101.272681 221.445331 
L 101.311208 221.467075 
L 101.465316 221.874268 
L 101.696479 222.450629 
L 101.81206 222.731561 
L 102.235857 224.211313 
L 102.274384 224.195367 
L 102.312911 224.185365 
L 102.544074 223.558848 
L 102.582601 223.609439 
L 102.967871 224.165071 
L 103.121979 223.984016 
L 103.661358 221.103371 
L 103.738412 221.176285 
L 103.89252 221.586232 
L 103.931047 221.50491 
L 104.085155 220.821278 
L 104.316318 219.709145 
L 104.624534 220.036755 
L 104.894223 219.760751 
L 104.93275 219.805399 
L 105.086858 220.311744 
L 105.664764 222.71953 
L 105.818872 222.725183 
L 105.97298 222.530502 
L 106.204143 220.896513 
L 106.62794 217.694346 
L 106.743521 218.000937 
L 107.128792 220.368568 
L 107.244373 220.875928 
L 107.2829 220.828381 
L 107.398481 220.767353 
L 107.514062 221.063796 
L 107.783751 222.668939 
L 108.284603 225.63424 
L 108.7084 226.689259 
L 108.785455 226.747533 
L 108.823982 226.659108 
L 109.209252 224.963076 
L 109.324833 224.324092 
L 109.748631 221.84716 
L 109.902739 221.681761 
L 110.365063 219.497649 
L 110.442117 219.637825 
L 110.634753 220.593401 
L 111.174131 223.51478 
L 111.328239 223.577403 
L 111.674983 223.440416 
L 111.867618 222.161144 
L 112.060253 221.4865 
L 112.175834 221.653639 
L 112.406997 222.749681 
L 112.792267 224.537328 
L 112.984902 225.304166 
L 113.061956 225.240674 
L 113.177537 225.32562 
L 113.293119 225.622354 
L 113.331646 225.523346 
L 113.447227 225.348814 
L 113.485754 225.383749 
L 113.639862 225.595681 
L 113.755443 225.031497 
L 114.44893 220.756916 
L 114.525984 220.432206 
L 114.911254 217.877431 
L 115.180944 218.310281 
L 115.643268 219.87498 
L 115.797376 219.887736 
L 116.067066 218.93187 
L 116.105593 218.970574 
L 116.259701 219.571143 
L 116.760552 221.944573 
L 116.837606 221.918191 
L 116.991715 221.709013 
L 117.18435 221.39532 
L 117.299931 221.568692 
L 117.338458 221.513028 
L 117.685201 220.116628 
L 117.723728 220.141561 
L 118.147526 220.312324 
L 118.455742 220.868535 
L 118.725432 220.538751 
L 118.802486 220.670665 
L 119.072175 221.512883 
L 119.110702 221.459972 
L 119.26481 220.643702 
L 119.457445 220.103002 
L 119.573026 219.915568 
L 119.996824 217.780163 
L 120.112405 218.068053 
L 121.114108 222.224636 
L 121.383797 222.433813 
L 121.422325 222.351186 
L 121.61496 221.890358 
L 121.653487 221.903695 
L 121.769068 222.158244 
L 122.038757 222.88116 
L 122.231392 222.86449 
L 122.308446 222.846949 
L 122.539609 222.605881 
L 123.348677 223.740193 
L 123.541312 224.167825 
L 123.579839 224.087662 
L 123.888055 223.432733 
L 124.08069 223.46042 
L 124.273326 223.961982 
L 124.658596 225.098178 
L 125.005339 225.567269 
L 125.043867 225.483917 
L 125.197975 224.106507 
L 125.544718 221.096268 
L 126.122624 218.071242 
L 126.353786 218.198952 
L 126.546421 219.11249 
L 126.777583 220.078068 
L 126.970219 219.749879 
L 127.008746 219.81801 
L 127.394016 221.298052 
L 127.856341 223.064534 
L 128.087503 222.827815 
L 128.12603 222.896236 
L 128.318665 223.614223 
L 128.549827 224.787674 
L 128.588354 224.69432 
L 128.896571 223.119039 
L 128.935098 223.166151 
L 129.089206 223.277771 
L 129.204787 223.40809 
L 129.435949 224.222765 
L 129.513003 224.104188 
L 129.667112 223.278495 
L 129.975328 221.709158 
L 130.052382 221.743514 
L 130.20649 222.269719 
L 130.47618 223.55044 
L 130.514707 223.530291 
L 130.745869 223.184271 
L 130.784396 223.220076 
L 130.938504 223.632053 
L 131.362301 224.881318 
L 131.554937 225.531029 
L 131.709045 226.041868 
L 131.747572 225.989392 
L 132.094315 225.20081 
L 132.171369 225.264737 
L 132.209896 225.159351 
L 132.402532 224.793182 
L 132.55664 225.108325 
L 132.749275 225.418685 
L 132.787802 225.416076 
L 132.94191 224.572408 
L 133.365708 222.374815 
L 133.442762 222.417433 
L 133.59687 221.961824 
L 133.635397 221.97342 
L 133.750978 222.28378 
L 134.482992 225.348524 
L 134.521519 225.330549 
L 134.868262 224.440785 
L 134.906789 224.47398 
L 135.099425 224.96554 
L 135.369114 225.56263 
L 135.484695 225.47406 
L 135.638803 225.455215 
L 135.94702 225.528999 
L 136.139655 225.384764 
L 136.563452 225.121662 
L 136.833142 224.043304 
L 137.680736 215.835379 
L 137.873372 215.711293 
L 137.950426 215.696363 
L 137.988953 215.757826 
L 138.143061 216.453924 
L 138.335696 217.165677 
L 138.41275 217.127408 
L 138.528331 216.03209 
L 138.759494 214.361716 
L 138.990656 214.086002 
L 139.029183 214.131664 
L 139.221818 214.87328 
L 140.030886 218.918099 
L 140.339102 220.496713 
L 140.377629 220.485986 
L 140.7629 218.937233 
L 140.801427 218.964486 
L 140.955535 219.428358 
L 141.41786 221.224412 
L 141.456387 221.216294 
L 141.687549 220.401909 
L 141.726076 220.440179 
L 141.995765 220.777645 
L 142.111346 220.942465 
L 142.1884 221.01625 
L 142.226928 220.974066 
L 142.381036 220.809102 
L 142.419563 220.846356 
L 142.45809 220.893468 
L 142.496617 220.825337 
L 142.958941 218.497425 
L 142.997468 218.509456 
L 143.190104 218.578747 
L 143.382739 216.834878 
L 143.729482 214.386939 
L 144.15328 212.573199 
L 144.268861 212.920813 
L 144.500023 213.740417 
L 144.615604 213.67736 
L 144.808239 212.604801 
L 144.846766 212.642055 
L 144.962348 213.163332 
L 145.270564 216.132837 
L 145.809942 220.542085 
L 146.23374 223.256461 
L 146.696064 224.776367 
L 146.8887 225.040919 
L 146.965754 224.803475 
L 147.428078 221.478382 
L 147.466605 221.503895 
L 147.620713 221.954866 
L 147.967457 224.006195 
L 148.275673 225.666566 
L 148.3142 225.620904 
L 148.506835 225.443328 
L 148.660944 225.594231 
L 148.853579 223.873266 
L 149.238849 220.749233 
L 149.315903 220.819539 
L 149.508539 221.624647 
L 149.855282 223.393159 
L 149.893809 223.346916 
L 150.124971 222.826655 
L 150.202025 222.865649 
L 150.356133 222.582687 
L 150.394661 222.626755 
L 150.433188 222.708658 
L 150.471715 222.622696 
L 150.587296 222.417723 
L 150.625823 222.463385 
L 150.741404 222.647774 
L 150.779931 222.623711 
L 150.856985 222.674592 
L 151.011093 223.202246 
L 151.242255 223.892691 
L 151.280783 223.961547 
L 151.31931 223.916319 
L 151.550472 223.479555 
L 151.666053 223.673221 
L 152.08985 224.764045 
L 152.128377 224.74781 
L 152.513648 223.822385 
L 152.590702 223.391564 
L 152.898918 220.707195 
L 153.130081 220.005009 
L 153.168608 220.034001 
L 153.322716 220.561075 
L 153.669459 222.197094 
L 153.707986 222.184192 
L 153.823567 222.212749 
L 153.977675 222.596169 
L 154.170311 223.046849 
L 154.208838 223.035977 
L 154.517054 222.975384 
L 154.786743 223.236747 
L 154.979379 223.069753 
L 155.017906 223.116285 
L 155.287595 223.767735 
L 155.364649 223.607555 
L 155.48023 223.479265 
L 155.518757 223.514345 
L 155.826974 223.926612 
L 155.942555 223.705837 
L 156.058136 222.696771 
L 156.443406 218.860549 
L 156.636041 218.702253 
L 156.674568 218.764006 
L 156.828677 219.401395 
L 157.406582 223.090192 
L 157.445109 222.866664 
L 158.177123 217.653178 
L 158.292704 217.883084 
L 158.446812 218.104728 
L 158.562394 218.488147 
L 158.947664 220.480043 
L 158.986191 220.37973 
L 159.294407 218.933609 
L 159.371461 219.009713 
L 159.564097 219.803369 
L 159.718205 220.401764 
L 159.756732 220.352043 
L 159.872313 220.344795 
L 160.026421 220.829541 
L 160.29611 221.688429 
L 160.334638 221.678572 
L 160.604327 220.645732 
L 160.681381 220.720531 
L 161.105178 221.965883 
L 161.490449 223.611034 
L 161.567503 223.763676 
L 161.60603 223.727581 
L 161.760138 223.131796 
L 162.029827 222.207676 
L 162.145409 222.407286 
L 162.376571 223.177313 
L 162.415098 223.127157 
L 162.569206 222.621392 
L 162.607733 222.635163 
L 162.723314 222.93494 
L 163.070058 224.866967 
L 163.147112 225.161961 
L 163.185639 225.120502 
L 163.262693 224.834061 
L 163.493855 223.865148 
L 163.647963 223.699459 
L 163.879125 223.360833 
L 163.994707 223.542757 
L 164.033234 223.649738 
L 164.071761 223.62321 
L 164.418504 221.780479 
L 164.649666 220.589487 
L 164.72672 220.347259 
L 164.919356 219.726685 
L 164.957883 219.712624 
L 165.189045 219.053056 
L 165.343153 219.323697 
L 165.497261 219.692185 
L 165.535788 219.597671 
L 165.689896 219.374143 
L 165.805478 219.622314 
L 166.03664 220.871145 
L 166.344856 222.277547 
L 166.730127 223.6609 
L 167.038343 224.67533 
L 167.230978 224.629088 
L 167.46214 225.053531 
L 167.500667 224.992212 
L 167.847411 223.324013 
L 168.232681 220.607317 
L 168.309735 220.656314 
L 168.695006 221.597104 
L 168.733533 221.553616 
L 168.926168 220.983054 
L 168.964695 221.019004 
L 169.118803 221.571156 
L 169.272911 222.1394 
L 169.311438 222.097071 
L 169.542601 221.568547 
L 169.658182 221.777145 
L 169.889344 222.171436 
L 170.004925 222.20985 
L 170.46725 223.099325 
L 170.929574 224.81855 
L 170.968101 224.898713 
L 171.006628 224.823189 
L 171.546007 222.198398 
L 171.931277 217.773639 
L 172.085386 217.240476 
L 172.16244 217.365722 
L 172.316548 217.759433 
L 172.355075 217.69855 
L 172.432129 217.620996 
L 172.470656 217.647379 
L 172.586237 217.691737 
L 172.740345 217.377464 
L 172.93298 217.097836 
L 173.048562 217.337455 
L 173.279724 218.687612 
L 173.742048 221.461567 
L 174.165846 223.413743 
L 174.2429 223.391564 
L 174.397008 222.838252 
L 174.743751 220.586298 
L 174.820806 220.693714 
L 175.013441 221.517521 
L 175.129022 221.946748 
L 175.167549 221.875428 
L 175.745455 220.286811 
L 175.822509 220.212591 
L 176.130725 219.250782 
L 176.207779 219.352399 
L 176.361887 219.876719 
L 176.400414 219.828882 
L 176.708631 218.51366 
L 176.785685 218.616582 
L 177.093901 219.272236 
L 177.209482 219.477499 
L 177.286536 219.591583 
L 177.325063 219.550704 
L 177.594753 219.200481 
L 177.710334 219.430967 
L 177.941496 220.276954 
L 178.01855 220.201284 
L 178.134131 220.25347 
L 178.288239 220.794606 
L 178.519402 221.470409 
L 178.827618 222.450339 
L 179.174361 224.161737 
L 179.405524 225.29286 
L 179.444051 225.207478 
L 179.752267 223.80528 
L 179.867848 223.962707 
L 180.137537 225.013956 
L 180.176064 225.176602 
L 180.253119 225.023234 
L 180.638389 224.068527 
L 180.715443 224.099259 
L 180.946605 223.994888 
L 181.100713 224.358302 
L 181.370403 224.98308 
L 181.601565 224.732444 
L 182.102417 222.212749 
L 182.487687 221.555791 
L 182.526214 221.604062 
L 182.680322 222.120845 
L 182.950012 223.145712 
L 182.988539 223.092222 
L 183.373809 221.766128 
L 183.48939 221.909493 
L 183.797606 222.499915 
L 183.951715 221.825271 
L 184.221404 220.604853 
L 184.645201 219.604339 
L 184.876364 218.774153 
L 184.914891 218.80387 
L 185.068999 219.361531 
L 185.300161 220.438294 
L 185.338688 220.38118 
L 185.685432 219.091471 
L 185.801013 219.083933 
L 185.955121 219.54563 
L 186.995351 224.210298 
L 187.110932 223.767735 
L 187.380621 221.725684 
L 187.765892 217.755519 
L 187.997054 216.840387 
L 188.112635 217.074062 
L 188.420852 218.273606 
L 189.075811 221.773231 
L 189.268446 222.336545 
L 189.384028 222.433668 
L 189.422555 222.382063 
L 189.730771 220.74416 
L 189.807825 220.86926 
L 189.884879 220.954207 
L 189.923406 220.901586 
L 190.038987 220.593256 
L 190.385731 219.044939 
L 190.539839 218.997102 
L 190.925109 219.74524 
L 191.117745 220.61529 
L 191.156272 220.587603 
L 191.387434 219.772058 
L 191.69565 218.501918 
L 191.811231 218.412768 
L 192.273556 217.024341 
L 192.312083 217.072178 
L 192.466191 217.638827 
L 192.697353 218.253022 
L 192.928516 218.298974 
L 193.159678 218.193154 
L 193.313786 218.717039 
L 194.161381 222.905223 
L 194.199908 222.887538 
L 194.315489 222.886668 
L 194.469597 223.229934 
L 194.816341 224.468762 
L 194.854868 224.217256 
L 195.08603 223.048589 
L 195.201611 223.06207 
L 195.394246 223.587695 
L 195.625409 223.957198 
L 195.856571 224.611548 
L 196.588585 227.622802 
L 196.665639 227.44624 
L 196.858274 227.222857 
L 197.050909 227.324474 
L 197.16649 226.830595 
L 197.628815 224.180726 
L 197.744396 224.161157 
L 198.399356 225.067882 
L 198.437883 224.983805 
L 198.553464 224.179712 
L 199.092842 217.597368 
L 199.362532 216.789796 
L 199.439586 216.886339 
L 199.632221 217.814228 
L 200.287181 221.627546 
L 200.441289 221.579564 
L 200.710978 221.055099 
L 201.057722 219.001161 
L 201.173303 219.216716 
L 201.558573 220.310004 
L 201.789735 220.788952 
L 202.290587 222.348722 
L 202.560276 222.524558 
L 202.945547 223.294151 
L 203.484925 220.932753 
L 203.870196 217.235983 
L 204.101358 216.990565 
L 204.216939 217.287444 
L 204.448101 218.758498 
L 205.026007 222.576744 
L 205.064534 222.630524 
L 205.103061 222.583702 
L 205.334223 222.000963 
L 205.603913 220.734882 
L 205.719494 220.606158 
L 206.104764 218.942452 
L 206.181818 219.032327 
L 206.721197 220.523531 
L 206.798251 220.443078 
L 206.913832 220.503236 
L 207.029413 220.757786 
L 207.06794 220.664432 
L 207.260575 220.39843 
L 207.453211 220.63254 
L 207.491738 220.558176 
L 207.7229 220.203459 
L 207.838481 220.214911 
L 207.992589 220.704731 
L 208.223751 221.776565 
L 208.300806 221.729308 
L 208.416387 221.761489 
L 208.570495 222.055758 
L 208.647549 221.988351 
L 208.724603 221.912972 
L 209.263982 220.350013 
L 209.302509 220.377846 
L 209.41809 220.592676 
L 209.495144 220.496713 
L 209.726306 220.129239 
L 209.841887 220.299857 
L 209.957468 220.458299 
L 209.995995 220.413216 
L 210.150104 220.332473 
L 210.304212 220.673129 
L 210.573901 221.397929 
L 210.650955 221.322695 
L 211.074753 220.198385 
L 211.267388 219.980365 
L 211.614131 217.749576 
L 211.652658 217.769001 
L 211.691185 217.679125 
L 211.88382 217.470383 
L 212.037929 217.331656 
L 212.076456 217.370361 
L 212.230564 217.869458 
L 212.53878 219.843088 
L 212.654361 219.49359 
L 212.80847 219.323987 
L 212.885524 219.325581 
L 213.078159 218.82199 
L 213.232267 217.335425 
L 213.57901 213.862184 
L 213.8487 211.484695 
L 214.156916 209.887236 
L 214.272497 209.72778 
L 214.311024 209.759961 
L 214.465132 210.259493 
L 214.580713 210.551877 
L 214.850403 209.29232 
L 215.081565 208.199031 
L 215.158619 208.253101 
L 215.312727 208.858164 
L 215.659471 210.318057 
L 215.852106 211.114902 
L 216.044741 211.778819 
L 216.121795 211.698801 
L 216.198849 211.283345 
L 216.58412 208.895129 
L 216.96939 207.398852 
L 217.084971 207.13633 
L 217.508769 205.312008 
L 217.62435 205.476393 
L 217.816985 205.759789 
L 218.086674 205.497992 
L 218.27931 205.307369 
L 218.433418 205.640922 
L 219.011323 208.13264 
L 219.242486 209.307106 
L 219.281013 209.287971 
L 219.396594 209.360596 
L 219.550702 209.802724 
L 219.589229 209.677333 
L 220.398297 202.350765 
L 220.706513 200.12273 
L 220.822094 199.802513 
L 220.860621 199.827012 
L 220.976203 200.227681 
L 221.207365 201.254288 
L 221.245892 201.161948 
L 221.554108 199.817734 
L 221.592635 199.858613 
L 221.78527 200.224927 
L 221.862325 200.10374 
L 222.170541 198.40104 
L 222.671392 194.881701 
L 222.786974 194.774141 
L 222.902555 194.998539 
L 222.941082 194.877207 
L 223.634568 190.397653 
L 223.865731 189.970891 
L 223.904258 190.007276 
L 224.058366 190.249214 
L 224.096893 190.219932 
L 224.212474 190.051054 
L 224.79038 187.793447 
L 224.944488 186.111186 
L 225.984718 169.87929 
L 226.138826 162.489809 
L 226.21588 152.116472 
L 226.292934 71.26967 
L 226.447043 188.071335 
L 226.524097 190.802237 
L 226.562624 190.430124 
L 227.410219 178.049816 
L 227.602854 172.102832 
L 227.756962 162.705945 
L 227.834016 139.465668 
L 227.872543 44.802729 
L 227.91107 112.536158 
L 228.065178 191.38947 
L 228.103705 191.637786 
L 228.488976 178.330313 
L 228.758665 165.202301 
L 228.835719 155.619575 
L 228.912773 49.529004 
L 228.9513 121.248254 
L 229.105409 190.621907 
L 229.143936 191.093316 
L 229.182463 190.5013 
L 230.030058 170.869077 
L 230.184166 157.142815 
L 230.222693 139.565545 
L 230.26122 43.970368 
L 230.299747 110.275507 
L 230.453855 190.296616 
L 230.492382 190.549572 
L 231.031761 175.178303 
L 231.262923 163.271868 
L 231.339977 148.951125 
L 231.378504 46.281611 
L 231.417031 83.717965 
L 231.571139 188.013641 
L 231.609666 189.301031 
L 231.648193 188.759895 
L 232.149045 172.802264 
L 232.303153 162.7935 
L 232.380207 141.186343 
L 232.418734 42.219686 
L 232.457261 103.932058 
L 232.611369 189.41323 
L 232.649896 190.239212 
L 232.688423 189.658502 
L 233.497491 168.516521 
L 233.613072 156.972342 
L 233.6516 139.627588 
L 233.690127 43.952828 
L 233.728654 108.515838 
L 233.882762 188.987628 
L 233.921289 189.646181 
L 233.959816 189.017779 
L 234.576249 171.263078 
L 234.730357 156.986838 
L 234.768884 137.546977 
L 234.807411 44.020959 
L 234.845938 109.929778 
L 235.000046 190.268639 
L 235.038573 190.892982 
L 235.0771 190.078017 
L 235.462371 174.328548 
L 235.655006 158.694467 
L 235.693533 145.266097 
L 235.73206 38.04049 
L 235.770587 92.545595 
L 235.924695 190.307778 
L 235.963222 191.494276 
L 236.001749 191.003006 
L 236.502601 176.358277 
L 236.695236 163.944918 
L 236.77229 139.042674 
L 236.810817 41.232219 
L 236.849344 105.340634 
L 237.003452 191.143038 
L 237.041979 191.26263 
L 237.658412 167.627482 
L 237.773993 150.720942 
L 237.81252 48.075925 
L 237.851047 75.071826 
L 238.005155 188.79686 
L 238.043682 190.510432 
L 238.120736 189.074893 
L 238.583061 173.281936 
L 238.698642 163.19214 
L 238.737169 155.500273 
L 238.814223 53.323332 
L 238.85275 129.547649 
L 239.006858 191.94945 
L 239.083913 190.078162 
L 239.623291 164.140904 
L 239.700345 148.341423 
L 239.738872 39.334403 
L 239.777399 84.272148 
L 239.931507 189.122295 
L 239.970035 190.057867 
L 240.008562 189.112293 
L 240.393832 171.641134 
L 240.509413 159.103254 
L 240.54794 143.285653 
L 240.586467 36.591035 
L 240.624994 93.258798 
L 240.779102 190.756864 
L 240.817629 191.451223 
L 240.856157 190.464045 
L 241.434062 166.20238 
L 241.511116 155.719163 
L 241.58817 49.877633 
L 241.626697 122.179188 
L 241.780806 189.792156 
L 241.819333 189.765048 
L 242.24313 174.981012 
L 242.435765 163.637748 
L 242.512819 146.279802 
L 242.551346 39.185529 
L 242.589873 90.376703 
L 242.743982 188.355457 
L 242.782509 189.434974 
L 242.821036 188.864701 
L 243.321887 173.508074 
L 243.475995 159.819211 
L 243.514522 147.839137 
L 243.553049 36.076137 
L 243.591577 83.787401 
L 243.745685 189.070835 
L 243.784212 189.951322 
L 243.822739 188.96197 
L 244.32359 166.74598 
L 244.400644 156.839558 
L 244.439171 135.212251 
L 244.477699 44.146495 
L 244.516226 110.368861 
L 244.670334 188.667991 
L 244.708861 188.697852 
L 245.055604 173.625781 
L 245.209712 158.658082 
L 245.248239 142.828884 
L 245.286766 37.281914 
L 245.325293 93.861976 
L 245.479402 189.417144 
L 245.517929 190.198478 
L 245.556456 189.302191 
L 246.01878 168.21196 
L 246.134361 149.651282 
L 246.172888 39.691149 
L 246.211415 76.873679 
L 246.365524 187.768369 
L 246.404051 189.137661 
L 246.442578 188.389233 
L 247.020483 164.301519 
L 247.097537 151.519671 
L 247.136064 64.954778 
L 247.174591 69.068308 
L 247.3287 185.506848 
L 247.367227 187.20317 
L 247.405754 186.643189 
L 247.791024 170.859655 
L 247.906605 160.591268 
L 247.945132 151.487345 
L 247.983659 50.59475 
L 248.022186 67.819767 
L 248.176295 186.122783 
L 248.214822 188.056984 
L 248.291876 186.364866 
L 248.792727 164.157864 
L 248.869781 148.303879 
L 248.908308 39.309904 
L 248.946835 80.982135 
L 249.100944 185.981447 
L 249.139471 187.025594 
L 249.177998 186.13467 
L 249.563268 168.08773 
L 249.678849 151.589397 
L 249.717376 55.755326 
L 249.755903 66.638053 
L 249.910012 185.391025 
L 249.948539 187.509325 
L 250.025593 185.938684 
L 250.372336 169.810144 
L 250.487917 156.921606 
L 250.526444 135.134118 
L 250.564971 42.564981 
L 250.603498 105.996578 
L 250.757606 186.94978 
L 250.796133 187.213462 
L 251.258458 171.444568 
L 251.412566 160.863358 
L 251.451093 154.191284 
L 251.528147 53.675585 
L 251.566674 125.566758 
L 251.720783 186.029429 
L 251.75931 186.370955 
L 251.990472 180.723893 
L 252.260161 170.510881 
L 252.375742 161.050791 
L 252.414269 153.40734 
L 252.491323 58.943432 
L 252.52985 134.425553 
L 252.683959 187.008344 
L 252.722486 186.726831 
L 253.107756 171.266702 
L 253.261864 157.477817 
L 253.300391 142.321669 
L 253.338918 40.125739 
L 253.377445 97.069941 
L 253.531554 185.953325 
L 253.570081 186.71538 
L 253.608608 185.945497 
L 254.032405 169.514716 
L 254.147986 153.149167 
L 254.22504 60.223139 
L 254.263567 136.480796 
L 254.417675 187.584995 
L 254.49473 185.494236 
L 254.88 164.095966 
L 254.957054 147.734476 
L 254.995581 38.107026 
L 255.034108 81.265967 
L 255.188216 185.934915 
L 255.226743 187.156493 
L 255.26527 186.315435 
L 255.689068 165.738363 
L 255.766122 155.623634 
L 255.843176 46.82579 
L 255.881703 113.52696 
L 256.035811 184.908308 
L 256.074338 184.624332 
L 256.382555 168.676557 
L 256.498136 152.312168 
L 256.57519 61.59649 
L 256.613717 136.123905 
L 256.767825 184.844816 
L 256.844879 182.787978 
L 257.23015 161.857929 
L 257.307204 138.031723 
L 257.345731 43.43735 
L 257.384258 103.908574 
L 257.538366 182.970918 
L 257.576893 183.497412 
L 257.61542 182.699118 
L 257.885109 171.653311 
L 258.039217 159.240821 
L 258.077745 149.757972 
L 258.116272 49.451016 
L 258.154799 71.655844 
L 258.308907 182.023894 
L 258.347434 183.935337 
L 258.424488 182.887566 
L 258.809758 170.054547 
L 258.963867 155.515929 
L 259.002394 134.293785 
L 259.040921 46.004302 
L 259.079448 109.770322 
L 259.233556 183.852854 
L 259.272083 184.5217 
L 259.31061 183.907939 
L 259.734407 169.959743 
L 259.849988 160.315554 
L 259.888516 152.176485 
L 259.96557 62.676876 
L 260.004097 137.102095 
L 260.158205 185.561643 
L 260.196732 185.71733 
L 260.543475 177.630736 
L 260.73611 170.587275 
L 260.851692 161.104427 
L 260.890219 153.134381 
L 260.967273 59.98178 
L 261.0058 135.179925 
L 261.159908 186.947895 
L 261.198435 187.044004 
L 261.776341 173.643901 
L 261.968976 162.173362 
L 262.04603 139.20242 
L 262.084557 43.878754 
L 262.123084 106.818501 
L 262.277192 187.611522 
L 262.315719 188.774971 
L 262.392773 188.139032 
L 262.970679 178.457733 
L 263.278895 166.29095 
L 263.394476 151.008542 
L 263.433003 62.93737 
L 263.47153 74.542722 
L 263.625639 187.374078 
L 263.702693 189.827961 
L 263.74122 189.39511 
L 264.165017 181.079045 
L 264.39618 173.001294 
L 264.550288 161.001505 
L 264.588815 152.295642 
L 264.627342 52.839746 
L 264.665869 69.168765 
L 264.819977 190.37359 
L 264.858504 192.717593 
L 264.935558 191.763467 
L 265.551991 178.706629 
L 265.860207 169.950466 
L 266.014315 160.372958 
L 266.052842 154.365816 
L 266.129896 55.662552 
L 266.168423 130.798219 
L 266.322532 189.442947 
L 266.361059 190.142669 
L 266.399586 189.90102 
L 267.709505 172.930263 
L 267.940667 164.102054 
L 268.017722 156.229277 
L 268.056249 143.106338 
L 268.094776 46.785926 
L 268.133303 107.259324 
L 268.287411 187.736768 
L 268.325938 188.976176 
L 268.402992 188.541296 
L 268.865316 184.393265 
L 269.057952 183.72268 
L 269.481749 181.167325 
L 269.789965 179.097442 
L 270.059655 178.328719 
L 270.599033 174.97304 
L 270.90725 168.353296 
L 271.061358 161.103557 
L 271.138412 148.498415 
L 271.176939 64.681673 
L 271.215466 84.920844 
L 271.369574 184.319336 
L 271.523682 188.682632 
L 271.831899 190.621762 
L 271.908953 190.491732 
L 272.063061 190.214714 
L 272.101588 190.23066 
L 272.33275 190.687428 
L 272.448331 190.549137 
L 272.525386 190.598568 
L 273.064764 192.074116 
L 274.104994 198.20288 
L 274.143521 198.277389 
L 274.182048 198.224769 
L 274.644373 196.422191 
L 274.721427 196.486118 
L 274.875535 197.326162 
L 275.183751 200.639947 
L 275.800184 207.387255 
L 276.031346 208.358197 
L 276.532198 213.340618 
L 276.955995 216.867784 
L 276.994522 216.850679 
L 277.148631 216.77617 
L 277.225685 216.819223 
L 277.264212 216.765298 
L 277.41832 216.602652 
L 277.688009 216.964618 
L 277.726536 216.838647 
L 277.996226 215.799429 
L 278.034753 215.830161 
L 278.188861 216.384488 
L 278.304442 216.745728 
L 278.342969 216.723549 
L 278.497077 216.637588 
L 278.689712 216.834009 
L 278.920875 217.291068 
L 278.997929 217.147992 
L 279.229091 216.792115 
L 279.344672 216.88431 
L 279.999632 218.373774 
L 280.269321 220.007618 
L 280.53901 221.271959 
L 280.693119 221.508099 
L 280.924281 221.898766 
L 281.078389 222.190571 
L 281.232497 222.24783 
L 281.463659 222.22826 
L 281.579241 222.408156 
L 281.617768 222.292477 
L 281.84893 221.661322 
L 281.964511 221.862816 
L 282.2342 222.498611 
L 282.311254 222.113307 
L 282.580944 220.59717 
L 282.657998 220.622538 
L 282.735052 220.6869 
L 282.966214 220.070096 
L 283.004741 220.09039 
L 283.158849 220.523096 
L 283.312957 221.101631 
L 283.351484 221.054374 
L 283.775282 219.879328 
L 283.852336 219.999065 
L 284.044971 220.812291 
L 284.160552 221.221078 
L 284.199079 221.202523 
L 284.237606 221.182664 
L 284.622877 219.741036 
L 284.661404 219.76394 
L 284.776985 219.957462 
L 284.815512 219.896868 
L 284.96962 219.880488 
L 285.085201 219.917308 
L 285.277837 220.30696 
L 285.316364 220.250281 
L 285.431945 219.140322 
L 285.932796 211.996114 
L 286.472175 210.063362 
L 286.780391 208.935863 
L 287.011554 208.541137 
L 287.050081 208.571579 
L 287.204189 209.080243 
L 288.282946 214.475509 
L 288.36 214.05759 
L 288.668216 211.796939 
L 288.860852 211.538475 
L 288.976433 211.398444 
L 289.092014 210.958635 
L 289.207595 210.643202 
L 289.246122 210.665671 
L 289.438757 211.206372 
L 289.669919 212.004521 
L 289.708446 211.994519 
L 289.824028 212.078451 
L 290.247825 212.872107 
L 290.478987 212.900374 
L 290.594568 213.16971 
L 290.864258 213.900888 
L 291.018366 214.135433 
L 291.056893 214.093395 
L 291.172474 213.799996 
L 291.442163 213.082879 
L 291.673326 212.652058 
L 292.097123 211.205937 
L 292.13565 211.221592 
L 292.251231 211.525573 
L 292.597975 212.670178 
L 292.79061 213.661849 
L 292.906191 214.319243 
L 292.944718 214.274305 
L 293.329988 212.857611 
L 293.676732 211.116206 
L 293.792313 210.279207 
L 294.100529 207.627454 
L 294.177583 207.647024 
L 294.331692 208.25658 
L 294.716962 209.659938 
L 294.87107 209.833455 
L 295.063705 211.002703 
L 295.52603 215.772032 
L 296.18099 222.225796 
L 296.720368 223.780637 
L 297.067112 224.590093 
L 297.452382 225.786883 
L 297.529436 225.643518 
L 298.184396 224.285243 
L 298.377031 222.727792 
L 298.64672 221.047851 
L 298.800829 220.763874 
L 299.031991 220.109815 
L 299.147572 220.332473 
L 299.95664 223.413163 
L 300.072221 223.313141 
L 300.187802 222.996838 
L 300.496018 221.425907 
L 300.688654 220.739086 
L 301.035397 217.769291 
L 301.343613 215.806677 
L 301.420667 215.843787 
L 301.574776 216.417539 
L 302.306789 220.035595 
L 302.422371 219.841059 
L 302.769114 219.015222 
L 302.807641 219.029138 
L 303.07733 219.087702 
L 303.192911 219.152354 
L 303.34702 219.177287 
L 303.462601 219.362691 
L 303.501128 219.485762 
L 303.578182 219.386899 
L 303.770817 218.774153 
L 304.156087 215.692594 
L 304.618412 212.933135 
L 304.733993 213.233492 
L 304.965155 214.857334 
L 305.273372 216.677162 
L 305.388953 216.723694 
L 305.658642 217.531991 
L 305.735696 217.411964 
L 306.005386 215.945694 
L 306.46771 211.352781 
L 306.544764 211.214199 
L 306.583291 211.238843 
L 306.698872 211.630669 
L 307.12267 213.428753 
L 307.315305 213.760857 
L 307.430886 214.025988 
L 307.584994 214.558716 
L 307.623521 214.525666 
L 307.931738 212.745122 
L 308.008792 212.82369 
L 308.201427 213.702873 
L 308.81786 217.287733 
L 309.896617 225.728464 
L 310.012198 225.510155 
L 310.204833 225.253575 
L 310.358941 225.414771 
L 310.513049 225.636125 
L 310.551577 225.572487 
L 310.667158 224.301623 
L 311.013901 220.94145 
L 311.322117 217.604761 
L 311.591807 212.487818 
L 311.93855 206.89758 
L 312.824672 201.69946 
L 313.441105 200.241162 
L 313.710794 198.601375 
L 313.787848 198.688931 
L 313.864902 198.808233 
L 313.903429 198.776486 
L 313.980483 198.835195 
L 314.173119 199.404888 
L 314.211646 199.293124 
L 314.2887 199.184404 
L 314.327227 199.223543 
L 314.866605 200.729677 
L 315.213349 204.049116 
L 315.752727 209.215636 
L 316.870012 215.755506 
L 317.02412 215.25351 
L 317.293809 213.867982 
L 317.370863 213.936983 
L 317.486444 214.294744 
L 317.563498 214.173848 
L 317.756133 213.578642 
L 318.179931 211.058947 
L 318.256985 211.179409 
L 318.565201 211.796214 
L 318.911945 213.061425 
L 319.566904 215.935692 
L 319.952175 218.520908 
L 320.029229 218.427264 
L 320.14481 218.362757 
L 320.260391 218.612813 
L 320.491554 219.821634 
L 321.069459 223.014523 
L 321.223567 222.884929 
L 321.84 220.334358 
L 322.071162 219.997616 
L 322.302325 220.184324 
L 322.340852 220.123876 
L 322.726122 219.31123 
L 323.843406 212.501299 
L 323.92046 212.683369 
L 324.113096 213.937708 
L 324.652474 219.619125 
L 325.037745 222.711557 
L 325.191853 222.839991 
L 325.23038 222.799113 
L 325.461542 221.683211 
L 325.962394 216.186472 
L 326.27061 212.935164 
L 326.347664 213.042435 
L 326.540299 214.167035 
L 326.92557 216.596999 
L 327.349367 216.875032 
L 327.387894 216.806756 
L 327.503475 216.665855 
L 327.542002 216.696152 
L 327.69611 217.219167 
L 327.850219 218.039351 
L 327.888746 218.014853 
L 328.158435 217.033619 
L 328.235489 216.99332 
L 328.466651 216.318676 
L 328.543705 216.416234 
L 328.736341 217.341659 
L 329.3913 221.822372 
L 329.429827 221.779754 
L 329.622463 220.613261 
L 329.815098 219.974422 
L 329.930679 220.162145 
L 330.161841 221.271234 
L 330.393003 222.477591 
L 330.43153 222.3364 
L 330.662693 221.517086 
L 330.778274 221.671904 
L 331.125017 222.613709 
L 331.163544 222.57225 
L 331.279125 222.513686 
L 331.317652 222.557899 
L 331.779977 223.704098 
L 332.319356 225.268071 
L 332.357883 225.207478 
L 332.627572 223.934294 
L 332.820207 223.335465 
L 332.897261 223.328072 
L 332.974315 222.632264 
L 333.282532 219.579406 
L 333.590748 218.959122 
L 333.667802 219.005509 
L 333.82191 219.533889 
L 334.168654 221.894562 
L 334.553924 224.056496 
L 334.785086 224.043449 
L 334.86214 223.815717 
L 335.362992 221.292108 
L 335.748262 219.934268 
L 336.17206 220.599055 
L 336.865547 221.653059 
L 336.904074 221.577245 
L 337.135236 220.219115 
L 337.559033 217.381957 
L 337.636087 217.424576 
L 337.982831 218.578312 
L 338.406628 221.090034 
L 338.483682 220.99842 
L 338.753372 220.574556 
L 338.791899 220.59833 
L 339.138642 221.137871 
L 339.177169 221.000739 
L 339.523913 219.558532 
L 339.639494 219.737412 
L 339.986237 221.009436 
L 340.063291 220.785473 
L 340.217399 220.480332 
L 340.255926 220.506135 
L 340.410035 220.964064 
L 340.679724 221.859917 
L 340.833832 221.914277 
L 341.026467 222.475852 
L 341.103521 222.276097 
L 341.257629 221.981248 
L 341.373211 222.197239 
L 341.681427 223.228629 
L 341.719954 223.146727 
L 342.02817 222.532966 
L 342.374914 221.972696 
L 343.029873 221.543469 
L 343.33809 220.86897 
L 343.607779 221.278627 
L 343.684833 221.446201 
L 343.72336 221.386622 
L 343.838941 221.17817 
L 343.877468 221.205712 
L 343.993049 221.418659 
L 344.031577 221.386332 
L 344.224212 220.994361 
L 344.339793 221.249635 
L 344.802117 222.697061 
L 344.956226 222.958134 
L 344.994753 222.858111 
L 345.225915 222.420767 
L 345.380023 222.42729 
L 345.649712 221.806861 
L 345.765293 222.019373 
L 346.304672 223.455492 
L 346.381726 223.444909 
L 346.535834 222.545723 
L 346.766997 221.61392 
L 346.882578 221.352847 
L 347.075213 219.556502 
L 347.344902 217.940343 
L 347.614591 217.507638 
L 348.500713 211.020243 
L 348.577768 210.935586 
L 348.616295 210.975305 
L 348.770403 211.28291 
L 348.847457 211.24928 
L 348.963038 211.199848 
L 349.117146 210.836144 
L 349.155673 210.854409 
L 349.502417 211.165203 
L 349.810633 211.433814 
L 349.887687 211.498321 
L 349.964741 211.626321 
L 350.003268 211.584717 
L 350.118849 211.640962 
L 350.272957 212.163977 
L 350.658228 215.050711 
L 351.004971 216.734421 
L 351.120552 216.77617 
L 351.390242 217.038837 
L 351.54435 217.106678 
L 351.659931 217.133641 
L 351.775512 217.476761 
L 352.430472 220.277099 
L 352.507526 220.286376 
L 352.661634 219.80018 
L 353.085432 217.404861 
L 353.123959 217.455887 
L 353.393648 217.80698 
L 353.470702 217.693332 
L 353.62481 217.393554 
L 353.740391 217.668398 
L 354.010081 219.377042 
L 354.66504 223.095556 
L 354.857675 222.833323 
L 355.050311 223.249358 
L 355.127365 223.058156 
L 355.281473 221.821357 
L 355.628216 219.270641 
L 355.859379 218.205765 
L 355.936433 218.283609 
L 356.129068 219.07451 
L 356.398757 219.714799 
L 356.437284 219.806413 
L 356.475811 219.785249 
L 356.861082 217.130017 
L 356.899609 217.17307 
L 357.053717 217.813358 
L 357.939839 221.828026 
L 358.286582 223.709461 
L 358.517745 224.49471 
L 358.864488 225.422599 
L 358.941542 225.279378 
L 359.403867 224.436436 
L 359.557975 224.285388 
L 359.712083 224.523557 
L 359.866191 224.940317 
L 359.904718 224.890596 
L 360.058826 224.774917 
L 360.13588 224.757667 
L 360.289988 224.595022 
L 360.328516 224.619955 
L 360.444097 224.626044 
L 360.521151 224.309741 
L 360.752313 223.076131 
L 360.867894 223.119039 
L 361.060529 223.75063 
L 361.214638 224.199281 
L 361.253165 224.179857 
L 361.330219 224.079544 
L 361.484327 223.848913 
L 361.522854 223.871382 
L 361.792543 223.866163 
L 361.946651 223.734105 
L 362.100759 224.068962 
L 362.293395 224.408748 
L 362.524557 224.346561 
L 362.717192 224.507901 
L 362.755719 224.465718 
L 362.909827 224.089402 
L 363.91153 220.340011 
L 364.142693 220.085896 
L 364.258274 220.084012 
L 364.489436 220.67168 
L 365.22145 222.793749 
L 365.337031 223.286613 
L 365.375558 223.240516 
L 365.645247 222.777659 
L 365.760829 222.803461 
L 365.953464 222.938999 
L 366.069045 223.086423 
L 366.300207 224.033157 
L 366.492842 224.794487 
L 366.531369 224.72824 
L 367.224856 222.97176 
L 367.456018 221.951532 
L 367.5716 222.158679 
L 367.725708 222.402647 
L 368.188032 221.237169 
L 368.380667 220.687045 
L 368.496249 220.874044 
L 368.688884 221.262392 
L 368.804465 221.337916 
L 368.958573 221.767722 
L 369.690587 224.43832 
L 369.998803 223.689747 
L 370.268493 222.53775 
L 370.422601 222.552391 
L 370.538182 222.198978 
L 370.846398 220.583979 
L 371.308723 221.300951 
L 371.578412 222.02981 
L 371.655466 221.853249 
L 372.271899 219.465902 
L 372.38748 219.672905 
L 373.196548 222.188686 
L 373.350656 222.660531 
L 373.504764 223.140204 
L 373.543291 223.120489 
L 373.581818 223.082509 
L 373.581818 223.082509 
" style="fill:none;stroke:#ff0000;stroke-linecap:square;stroke-width:1.5;"/>
   </g>
   <g id="line2d_20">
    <path clip-path="url(#pa4354cbf61)" d="M 258.00069 201.264 
L 296.450679 201.264 
L 296.450679 201.264 
" style="fill:none;stroke:#000000;stroke-linecap:square;stroke-width:1.5;"/>
   </g>
   <g id="line2d_21">
    <path clip-path="url(#pa4354cbf61)" d="M 258.00069 179.52 
L 258.00069 178.0704 
L 258.00069 176.6208 
L 258.00069 175.1712 
L 258.00069 173.7216 
L 258.00069 172.272 
L 258.00069 170.8224 
L 258.00069 169.3728 
L 258.00069 167.9232 
L 258.00069 166.4736 
L 258.00069 165.024 
L 258.00069 163.5744 
L 258.00069 162.1248 
L 258.00069 160.6752 
L 258.00069 159.2256 
L 258.00069 157.776 
L 258.00069 156.3264 
L 258.00069 154.8768 
L 258.00069 153.4272 
L 258.00069 151.9776 
" style="fill:none;stroke:#000000;stroke-linecap:square;stroke-width:1.5;"/>
   </g>
   <g id="patch_3">
    <path d="M 54 252 
L 54 34.56 
" style="fill:none;stroke:#000000;stroke-linecap:square;stroke-linejoin:miter;stroke-width:0.8;"/>
   </g>
   <g id="patch_4">
    <path d="M 54 252 
L 388.8 252 
" style="fill:none;stroke:#000000;stroke-linecap:square;stroke-linejoin:miter;stroke-width:0.8;"/>
   </g>
   <g id="text_20">
    <!-- 500 ms -->
    <g transform="translate(258.00069 199.8144)scale(0.12 -0.12)">
     <use xlink:href="#DejaVuSans-35"/>
     <use x="63.623047" xlink:href="#DejaVuSans-30"/>
     <use x="127.246094" xlink:href="#DejaVuSans-30"/>
     <use x="190.869141" xlink:href="#DejaVuSans-20"/>
     <use x="222.65625" xlink:href="#DejaVuSans-6d"/>
     <use x="320.068359" xlink:href="#DejaVuSans-73"/>
    </g>
   </g>
   <g id="text_21">
    <!-- 20 mV -->
    <g transform="translate(261.853395 150.528)scale(0.12 -0.12)">
     <use xlink:href="#DejaVuSans-32"/>
     <use x="63.623047" xlink:href="#DejaVuSans-30"/>
     <use x="127.246094" xlink:href="#DejaVuSans-20"/>
     <use x="159.033203" xlink:href="#DejaVuSans-6d"/>
     <use x="256.445312" xlink:href="#DejaVuSans-56"/>
    </g>
   </g>
  </g>
 </g>
 <defs>
  <clipPath id="pa4354cbf61">
   <rect height="217.44" width="334.8" x="54" y="34.56"/>
  </clipPath>
 </defs>
</svg>
