<?xml version="1.0" encoding="utf-8" standalone="no"?>
<!DOCTYPE svg PUBLIC "-//W3C//DTD SVG 1.1//EN"
  "http://www.w3.org/Graphics/SVG/1.1/DTD/svg11.dtd">
<svg height="288pt" version="1.1" viewBox="0 0 432 288" width="432pt" xmlns="http://www.w3.org/2000/svg" xmlns:xlink="http://www.w3.org/1999/xlink">
 <metadata>
  <rdf:RDF xmlns:cc="http://creativecommons.org/ns#" xmlns:dc="http://purl.org/dc/elements/1.1/" xmlns:rdf="http://www.w3.org/1999/02/22-rdf-syntax-ns#">
   <cc:Work>
    <dc:type rdf:resource="http://purl.org/dc/dcmitype/StillImage"/>
    <dc:date>2021-07-05T15:15:19.406730</dc:date>
    <dc:format>image/svg+xml</dc:format>
    <dc:creator>
     <cc:Agent>
      <dc:title>Matplotlib v3.4.1, https://matplotlib.org/</dc:title>
     </cc:Agent>
    </dc:creator>
   </cc:Work>
  </rdf:RDF>
 </metadata>
 <defs>
  <style type="text/css">*{stroke-linecap:butt;stroke-linejoin:round;}</style>
 </defs>
 <g id="figure_1">
  <g id="patch_1">
   <path d="M 0 288 
L 432 288 
L 432 0 
L 0 0 
z
" style="fill:none;"/>
  </g>
  <g id="axes_1">
   <g id="patch_2">
    <path d="M 54 252 
L 388.8 252 
L 388.8 34.56 
L 54 34.56 
z
" style="fill:#ffffff;"/>
   </g>
   <g id="matplotlib.axis_1">
    <g id="xtick_1">
     <g id="line2d_1">
      <defs>
       <path d="M 0 0 
L 0 3.5 
" id="m26f2ca2955" style="stroke:#000000;stroke-width:0.8;"/>
      </defs>
      <g>
       <use style="stroke:#000000;stroke-width:0.8;" x="65.365478" xlink:href="#m26f2ca2955" y="252"/>
      </g>
     </g>
     <g id="text_1">
      <!-- 0 -->
      <g transform="translate(61.547978 268.118125)scale(0.12 -0.12)">
       <defs>
        <path d="M 2034 4250 
Q 1547 4250 1301 3770 
Q 1056 3291 1056 2328 
Q 1056 1369 1301 889 
Q 1547 409 2034 409 
Q 2525 409 2770 889 
Q 3016 1369 3016 2328 
Q 3016 3291 2770 3770 
Q 2525 4250 2034 4250 
z
M 2034 4750 
Q 2819 4750 3233 4129 
Q 3647 3509 3647 2328 
Q 3647 1150 3233 529 
Q 2819 -91 2034 -91 
Q 1250 -91 836 529 
Q 422 1150 422 2328 
Q 422 3509 836 4129 
Q 1250 4750 2034 4750 
z
" id="DejaVuSans-30" transform="scale(0.015625)"/>
       </defs>
       <use xlink:href="#DejaVuSans-30"/>
      </g>
     </g>
    </g>
    <g id="xtick_2">
     <g id="line2d_2">
      <g>
       <use style="stroke:#000000;stroke-width:0.8;" x="103.89252" xlink:href="#m26f2ca2955" y="252"/>
      </g>
     </g>
     <g id="text_2">
      <!-- 500 -->
      <g transform="translate(92.44002 268.118125)scale(0.12 -0.12)">
       <defs>
        <path d="M 691 4666 
L 3169 4666 
L 3169 4134 
L 1269 4134 
L 1269 2991 
Q 1406 3038 1543 3061 
Q 1681 3084 1819 3084 
Q 2600 3084 3056 2656 
Q 3513 2228 3513 1497 
Q 3513 744 3044 326 
Q 2575 -91 1722 -91 
Q 1428 -91 1123 -41 
Q 819 9 494 109 
L 494 744 
Q 775 591 1075 516 
Q 1375 441 1709 441 
Q 2250 441 2565 725 
Q 2881 1009 2881 1497 
Q 2881 1984 2565 2268 
Q 2250 2553 1709 2553 
Q 1456 2553 1204 2497 
Q 953 2441 691 2322 
L 691 4666 
z
" id="DejaVuSans-35" transform="scale(0.015625)"/>
       </defs>
       <use xlink:href="#DejaVuSans-35"/>
       <use x="63.623047" xlink:href="#DejaVuSans-30"/>
       <use x="127.246094" xlink:href="#DejaVuSans-30"/>
      </g>
     </g>
    </g>
    <g id="xtick_3">
     <g id="line2d_3">
      <g>
       <use style="stroke:#000000;stroke-width:0.8;" x="142.419563" xlink:href="#m26f2ca2955" y="252"/>
      </g>
     </g>
     <g id="text_3">
      <!-- 1000 -->
      <g transform="translate(127.149563 268.118125)scale(0.12 -0.12)">
       <defs>
        <path d="M 794 531 
L 1825 531 
L 1825 4091 
L 703 3866 
L 703 4441 
L 1819 4666 
L 2450 4666 
L 2450 531 
L 3481 531 
L 3481 0 
L 794 0 
L 794 531 
z
" id="DejaVuSans-31" transform="scale(0.015625)"/>
       </defs>
       <use xlink:href="#DejaVuSans-31"/>
       <use x="63.623047" xlink:href="#DejaVuSans-30"/>
       <use x="127.246094" xlink:href="#DejaVuSans-30"/>
       <use x="190.869141" xlink:href="#DejaVuSans-30"/>
      </g>
     </g>
    </g>
    <g id="xtick_4">
     <g id="line2d_4">
      <g>
       <use style="stroke:#000000;stroke-width:0.8;" x="180.946605" xlink:href="#m26f2ca2955" y="252"/>
      </g>
     </g>
     <g id="text_4">
      <!-- 1500 -->
      <g transform="translate(165.676605 268.118125)scale(0.12 -0.12)">
       <use xlink:href="#DejaVuSans-31"/>
       <use x="63.623047" xlink:href="#DejaVuSans-35"/>
       <use x="127.246094" xlink:href="#DejaVuSans-30"/>
       <use x="190.869141" xlink:href="#DejaVuSans-30"/>
      </g>
     </g>
    </g>
    <g id="xtick_5">
     <g id="line2d_5">
      <g>
       <use style="stroke:#000000;stroke-width:0.8;" x="219.473648" xlink:href="#m26f2ca2955" y="252"/>
      </g>
     </g>
     <g id="text_5">
      <!-- 2000 -->
      <g transform="translate(204.203648 268.118125)scale(0.12 -0.12)">
       <defs>
        <path d="M 1228 531 
L 3431 531 
L 3431 0 
L 469 0 
L 469 531 
Q 828 903 1448 1529 
Q 2069 2156 2228 2338 
Q 2531 2678 2651 2914 
Q 2772 3150 2772 3378 
Q 2772 3750 2511 3984 
Q 2250 4219 1831 4219 
Q 1534 4219 1204 4116 
Q 875 4013 500 3803 
L 500 4441 
Q 881 4594 1212 4672 
Q 1544 4750 1819 4750 
Q 2544 4750 2975 4387 
Q 3406 4025 3406 3419 
Q 3406 3131 3298 2873 
Q 3191 2616 2906 2266 
Q 2828 2175 2409 1742 
Q 1991 1309 1228 531 
z
" id="DejaVuSans-32" transform="scale(0.015625)"/>
       </defs>
       <use xlink:href="#DejaVuSans-32"/>
       <use x="63.623047" xlink:href="#DejaVuSans-30"/>
       <use x="127.246094" xlink:href="#DejaVuSans-30"/>
       <use x="190.869141" xlink:href="#DejaVuSans-30"/>
      </g>
     </g>
    </g>
    <g id="xtick_6">
     <g id="line2d_6">
      <g>
       <use style="stroke:#000000;stroke-width:0.8;" x="258.00069" xlink:href="#m26f2ca2955" y="252"/>
      </g>
     </g>
     <g id="text_6">
      <!-- 2500 -->
      <g transform="translate(242.73069 268.118125)scale(0.12 -0.12)">
       <use xlink:href="#DejaVuSans-32"/>
       <use x="63.623047" xlink:href="#DejaVuSans-35"/>
       <use x="127.246094" xlink:href="#DejaVuSans-30"/>
       <use x="190.869141" xlink:href="#DejaVuSans-30"/>
      </g>
     </g>
    </g>
    <g id="xtick_7">
     <g id="line2d_7">
      <g>
       <use style="stroke:#000000;stroke-width:0.8;" x="296.527733" xlink:href="#m26f2ca2955" y="252"/>
      </g>
     </g>
     <g id="text_7">
      <!-- 3000 -->
      <g transform="translate(281.257733 268.118125)scale(0.12 -0.12)">
       <defs>
        <path d="M 2597 2516 
Q 3050 2419 3304 2112 
Q 3559 1806 3559 1356 
Q 3559 666 3084 287 
Q 2609 -91 1734 -91 
Q 1441 -91 1130 -33 
Q 819 25 488 141 
L 488 750 
Q 750 597 1062 519 
Q 1375 441 1716 441 
Q 2309 441 2620 675 
Q 2931 909 2931 1356 
Q 2931 1769 2642 2001 
Q 2353 2234 1838 2234 
L 1294 2234 
L 1294 2753 
L 1863 2753 
Q 2328 2753 2575 2939 
Q 2822 3125 2822 3475 
Q 2822 3834 2567 4026 
Q 2313 4219 1838 4219 
Q 1578 4219 1281 4162 
Q 984 4106 628 3988 
L 628 4550 
Q 988 4650 1302 4700 
Q 1616 4750 1894 4750 
Q 2613 4750 3031 4423 
Q 3450 4097 3450 3541 
Q 3450 3153 3228 2886 
Q 3006 2619 2597 2516 
z
" id="DejaVuSans-33" transform="scale(0.015625)"/>
       </defs>
       <use xlink:href="#DejaVuSans-33"/>
       <use x="63.623047" xlink:href="#DejaVuSans-30"/>
       <use x="127.246094" xlink:href="#DejaVuSans-30"/>
       <use x="190.869141" xlink:href="#DejaVuSans-30"/>
      </g>
     </g>
    </g>
    <g id="xtick_8">
     <g id="line2d_8">
      <g>
       <use style="stroke:#000000;stroke-width:0.8;" x="335.054776" xlink:href="#m26f2ca2955" y="252"/>
      </g>
     </g>
     <g id="text_8">
      <!-- 3500 -->
      <g transform="translate(319.784776 268.118125)scale(0.12 -0.12)">
       <use xlink:href="#DejaVuSans-33"/>
       <use x="63.623047" xlink:href="#DejaVuSans-35"/>
       <use x="127.246094" xlink:href="#DejaVuSans-30"/>
       <use x="190.869141" xlink:href="#DejaVuSans-30"/>
      </g>
     </g>
    </g>
    <g id="xtick_9">
     <g id="line2d_9">
      <g>
       <use style="stroke:#000000;stroke-width:0.8;" x="373.581818" xlink:href="#m26f2ca2955" y="252"/>
      </g>
     </g>
     <g id="text_9">
      <!-- 4000 -->
      <g transform="translate(358.311818 268.118125)scale(0.12 -0.12)">
       <defs>
        <path d="M 2419 4116 
L 825 1625 
L 2419 1625 
L 2419 4116 
z
M 2253 4666 
L 3047 4666 
L 3047 1625 
L 3713 1625 
L 3713 1100 
L 3047 1100 
L 3047 0 
L 2419 0 
L 2419 1100 
L 313 1100 
L 313 1709 
L 2253 4666 
z
" id="DejaVuSans-34" transform="scale(0.015625)"/>
       </defs>
       <use xlink:href="#DejaVuSans-34"/>
       <use x="63.623047" xlink:href="#DejaVuSans-30"/>
       <use x="127.246094" xlink:href="#DejaVuSans-30"/>
       <use x="190.869141" xlink:href="#DejaVuSans-30"/>
      </g>
     </g>
    </g>
    <g id="text_10">
     <!-- Time(ms) -->
     <g transform="translate(193.067813 283.731875)scale(0.12 -0.12)">
      <defs>
       <path d="M -19 4666 
L 3928 4666 
L 3928 4134 
L 2272 4134 
L 2272 0 
L 1638 0 
L 1638 4134 
L -19 4134 
L -19 4666 
z
" id="DejaVuSans-54" transform="scale(0.015625)"/>
       <path d="M 603 3500 
L 1178 3500 
L 1178 0 
L 603 0 
L 603 3500 
z
M 603 4863 
L 1178 4863 
L 1178 4134 
L 603 4134 
L 603 4863 
z
" id="DejaVuSans-69" transform="scale(0.015625)"/>
       <path d="M 3328 2828 
Q 3544 3216 3844 3400 
Q 4144 3584 4550 3584 
Q 5097 3584 5394 3201 
Q 5691 2819 5691 2113 
L 5691 0 
L 5113 0 
L 5113 2094 
Q 5113 2597 4934 2840 
Q 4756 3084 4391 3084 
Q 3944 3084 3684 2787 
Q 3425 2491 3425 1978 
L 3425 0 
L 2847 0 
L 2847 2094 
Q 2847 2600 2669 2842 
Q 2491 3084 2119 3084 
Q 1678 3084 1418 2786 
Q 1159 2488 1159 1978 
L 1159 0 
L 581 0 
L 581 3500 
L 1159 3500 
L 1159 2956 
Q 1356 3278 1631 3431 
Q 1906 3584 2284 3584 
Q 2666 3584 2933 3390 
Q 3200 3197 3328 2828 
z
" id="DejaVuSans-6d" transform="scale(0.015625)"/>
       <path d="M 3597 1894 
L 3597 1613 
L 953 1613 
Q 991 1019 1311 708 
Q 1631 397 2203 397 
Q 2534 397 2845 478 
Q 3156 559 3463 722 
L 3463 178 
Q 3153 47 2828 -22 
Q 2503 -91 2169 -91 
Q 1331 -91 842 396 
Q 353 884 353 1716 
Q 353 2575 817 3079 
Q 1281 3584 2069 3584 
Q 2775 3584 3186 3129 
Q 3597 2675 3597 1894 
z
M 3022 2063 
Q 3016 2534 2758 2815 
Q 2500 3097 2075 3097 
Q 1594 3097 1305 2825 
Q 1016 2553 972 2059 
L 3022 2063 
z
" id="DejaVuSans-65" transform="scale(0.015625)"/>
       <path d="M 1984 4856 
Q 1566 4138 1362 3434 
Q 1159 2731 1159 2009 
Q 1159 1288 1364 580 
Q 1569 -128 1984 -844 
L 1484 -844 
Q 1016 -109 783 600 
Q 550 1309 550 2009 
Q 550 2706 781 3412 
Q 1013 4119 1484 4856 
L 1984 4856 
z
" id="DejaVuSans-28" transform="scale(0.015625)"/>
       <path d="M 2834 3397 
L 2834 2853 
Q 2591 2978 2328 3040 
Q 2066 3103 1784 3103 
Q 1356 3103 1142 2972 
Q 928 2841 928 2578 
Q 928 2378 1081 2264 
Q 1234 2150 1697 2047 
L 1894 2003 
Q 2506 1872 2764 1633 
Q 3022 1394 3022 966 
Q 3022 478 2636 193 
Q 2250 -91 1575 -91 
Q 1294 -91 989 -36 
Q 684 19 347 128 
L 347 722 
Q 666 556 975 473 
Q 1284 391 1588 391 
Q 1994 391 2212 530 
Q 2431 669 2431 922 
Q 2431 1156 2273 1281 
Q 2116 1406 1581 1522 
L 1381 1569 
Q 847 1681 609 1914 
Q 372 2147 372 2553 
Q 372 3047 722 3315 
Q 1072 3584 1716 3584 
Q 2034 3584 2315 3537 
Q 2597 3491 2834 3397 
z
" id="DejaVuSans-73" transform="scale(0.015625)"/>
       <path d="M 513 4856 
L 1013 4856 
Q 1481 4119 1714 3412 
Q 1947 2706 1947 2009 
Q 1947 1309 1714 600 
Q 1481 -109 1013 -844 
L 513 -844 
Q 928 -128 1133 580 
Q 1338 1288 1338 2009 
Q 1338 2731 1133 3434 
Q 928 4138 513 4856 
z
" id="DejaVuSans-29" transform="scale(0.015625)"/>
      </defs>
      <use xlink:href="#DejaVuSans-54"/>
      <use x="57.958984" xlink:href="#DejaVuSans-69"/>
      <use x="85.742188" xlink:href="#DejaVuSans-6d"/>
      <use x="183.154297" xlink:href="#DejaVuSans-65"/>
      <use x="244.677734" xlink:href="#DejaVuSans-28"/>
      <use x="283.691406" xlink:href="#DejaVuSans-6d"/>
      <use x="381.103516" xlink:href="#DejaVuSans-73"/>
      <use x="433.203125" xlink:href="#DejaVuSans-29"/>
     </g>
    </g>
   </g>
   <g id="matplotlib.axis_2">
    <g id="ytick_1">
     <g id="line2d_10">
      <defs>
       <path d="M 0 0 
L -3.5 0 
" id="ma01a555830" style="stroke:#000000;stroke-width:0.8;"/>
      </defs>
      <g>
       <use style="stroke:#000000;stroke-width:0.8;" x="54" xlink:href="#ma01a555830" y="237.504"/>
      </g>
     </g>
     <g id="text_11">
      <!-- -100 -->
      <g transform="translate(19.765625 242.063063)scale(0.12 -0.12)">
       <defs>
        <path d="M 313 2009 
L 1997 2009 
L 1997 1497 
L 313 1497 
L 313 2009 
z
" id="DejaVuSans-2d" transform="scale(0.015625)"/>
       </defs>
       <use xlink:href="#DejaVuSans-2d"/>
       <use x="36.083984" xlink:href="#DejaVuSans-31"/>
       <use x="99.707031" xlink:href="#DejaVuSans-30"/>
       <use x="163.330078" xlink:href="#DejaVuSans-30"/>
      </g>
     </g>
    </g>
    <g id="ytick_2">
     <g id="line2d_11">
      <g>
       <use style="stroke:#000000;stroke-width:0.8;" x="54" xlink:href="#ma01a555830" y="208.512"/>
      </g>
     </g>
     <g id="text_12">
      <!-- -80 -->
      <g transform="translate(27.400625 213.071062)scale(0.12 -0.12)">
       <defs>
        <path d="M 2034 2216 
Q 1584 2216 1326 1975 
Q 1069 1734 1069 1313 
Q 1069 891 1326 650 
Q 1584 409 2034 409 
Q 2484 409 2743 651 
Q 3003 894 3003 1313 
Q 3003 1734 2745 1975 
Q 2488 2216 2034 2216 
z
M 1403 2484 
Q 997 2584 770 2862 
Q 544 3141 544 3541 
Q 544 4100 942 4425 
Q 1341 4750 2034 4750 
Q 2731 4750 3128 4425 
Q 3525 4100 3525 3541 
Q 3525 3141 3298 2862 
Q 3072 2584 2669 2484 
Q 3125 2378 3379 2068 
Q 3634 1759 3634 1313 
Q 3634 634 3220 271 
Q 2806 -91 2034 -91 
Q 1263 -91 848 271 
Q 434 634 434 1313 
Q 434 1759 690 2068 
Q 947 2378 1403 2484 
z
M 1172 3481 
Q 1172 3119 1398 2916 
Q 1625 2713 2034 2713 
Q 2441 2713 2670 2916 
Q 2900 3119 2900 3481 
Q 2900 3844 2670 4047 
Q 2441 4250 2034 4250 
Q 1625 4250 1398 4047 
Q 1172 3844 1172 3481 
z
" id="DejaVuSans-38" transform="scale(0.015625)"/>
       </defs>
       <use xlink:href="#DejaVuSans-2d"/>
       <use x="36.083984" xlink:href="#DejaVuSans-38"/>
       <use x="99.707031" xlink:href="#DejaVuSans-30"/>
      </g>
     </g>
    </g>
    <g id="ytick_3">
     <g id="line2d_12">
      <g>
       <use style="stroke:#000000;stroke-width:0.8;" x="54" xlink:href="#ma01a555830" y="179.52"/>
      </g>
     </g>
     <g id="text_13">
      <!-- -60 -->
      <g transform="translate(27.400625 184.079062)scale(0.12 -0.12)">
       <defs>
        <path d="M 2113 2584 
Q 1688 2584 1439 2293 
Q 1191 2003 1191 1497 
Q 1191 994 1439 701 
Q 1688 409 2113 409 
Q 2538 409 2786 701 
Q 3034 994 3034 1497 
Q 3034 2003 2786 2293 
Q 2538 2584 2113 2584 
z
M 3366 4563 
L 3366 3988 
Q 3128 4100 2886 4159 
Q 2644 4219 2406 4219 
Q 1781 4219 1451 3797 
Q 1122 3375 1075 2522 
Q 1259 2794 1537 2939 
Q 1816 3084 2150 3084 
Q 2853 3084 3261 2657 
Q 3669 2231 3669 1497 
Q 3669 778 3244 343 
Q 2819 -91 2113 -91 
Q 1303 -91 875 529 
Q 447 1150 447 2328 
Q 447 3434 972 4092 
Q 1497 4750 2381 4750 
Q 2619 4750 2861 4703 
Q 3103 4656 3366 4563 
z
" id="DejaVuSans-36" transform="scale(0.015625)"/>
       </defs>
       <use xlink:href="#DejaVuSans-2d"/>
       <use x="36.083984" xlink:href="#DejaVuSans-36"/>
       <use x="99.707031" xlink:href="#DejaVuSans-30"/>
      </g>
     </g>
    </g>
    <g id="ytick_4">
     <g id="line2d_13">
      <g>
       <use style="stroke:#000000;stroke-width:0.8;" x="54" xlink:href="#ma01a555830" y="150.528"/>
      </g>
     </g>
     <g id="text_14">
      <!-- -40 -->
      <g transform="translate(27.400625 155.087063)scale(0.12 -0.12)">
       <use xlink:href="#DejaVuSans-2d"/>
       <use x="36.083984" xlink:href="#DejaVuSans-34"/>
       <use x="99.707031" xlink:href="#DejaVuSans-30"/>
      </g>
     </g>
    </g>
    <g id="ytick_5">
     <g id="line2d_14">
      <g>
       <use style="stroke:#000000;stroke-width:0.8;" x="54" xlink:href="#ma01a555830" y="121.536"/>
      </g>
     </g>
     <g id="text_15">
      <!-- -20 -->
      <g transform="translate(27.400625 126.095062)scale(0.12 -0.12)">
       <use xlink:href="#DejaVuSans-2d"/>
       <use x="36.083984" xlink:href="#DejaVuSans-32"/>
       <use x="99.707031" xlink:href="#DejaVuSans-30"/>
      </g>
     </g>
    </g>
    <g id="ytick_6">
     <g id="line2d_15">
      <g>
       <use style="stroke:#000000;stroke-width:0.8;" x="54" xlink:href="#ma01a555830" y="92.544"/>
      </g>
     </g>
     <g id="text_16">
      <!-- 0 -->
      <g transform="translate(39.365 97.103062)scale(0.12 -0.12)">
       <use xlink:href="#DejaVuSans-30"/>
      </g>
     </g>
    </g>
    <g id="ytick_7">
     <g id="line2d_16">
      <g>
       <use style="stroke:#000000;stroke-width:0.8;" x="54" xlink:href="#ma01a555830" y="63.552"/>
      </g>
     </g>
     <g id="text_17">
      <!-- 20 -->
      <g transform="translate(31.73 68.111063)scale(0.12 -0.12)">
       <use xlink:href="#DejaVuSans-32"/>
       <use x="63.623047" xlink:href="#DejaVuSans-30"/>
      </g>
     </g>
    </g>
    <g id="ytick_8">
     <g id="line2d_17">
      <g>
       <use style="stroke:#000000;stroke-width:0.8;" x="54" xlink:href="#ma01a555830" y="34.56"/>
      </g>
     </g>
     <g id="text_18">
      <!-- 40 -->
      <g transform="translate(31.73 39.119062)scale(0.12 -0.12)">
       <use xlink:href="#DejaVuSans-34"/>
       <use x="63.623047" xlink:href="#DejaVuSans-30"/>
      </g>
     </g>
    </g>
    <g id="text_19">
     <!-- Membrane potential (mV) -->
     <g transform="translate(13.27 220.574062)rotate(-90)scale(0.12 -0.12)">
      <defs>
       <path d="M 628 4666 
L 1569 4666 
L 2759 1491 
L 3956 4666 
L 4897 4666 
L 4897 0 
L 4281 0 
L 4281 4097 
L 3078 897 
L 2444 897 
L 1241 4097 
L 1241 0 
L 628 0 
L 628 4666 
z
" id="DejaVuSans-4d" transform="scale(0.015625)"/>
       <path d="M 3116 1747 
Q 3116 2381 2855 2742 
Q 2594 3103 2138 3103 
Q 1681 3103 1420 2742 
Q 1159 2381 1159 1747 
Q 1159 1113 1420 752 
Q 1681 391 2138 391 
Q 2594 391 2855 752 
Q 3116 1113 3116 1747 
z
M 1159 2969 
Q 1341 3281 1617 3432 
Q 1894 3584 2278 3584 
Q 2916 3584 3314 3078 
Q 3713 2572 3713 1747 
Q 3713 922 3314 415 
Q 2916 -91 2278 -91 
Q 1894 -91 1617 61 
Q 1341 213 1159 525 
L 1159 0 
L 581 0 
L 581 4863 
L 1159 4863 
L 1159 2969 
z
" id="DejaVuSans-62" transform="scale(0.015625)"/>
       <path d="M 2631 2963 
Q 2534 3019 2420 3045 
Q 2306 3072 2169 3072 
Q 1681 3072 1420 2755 
Q 1159 2438 1159 1844 
L 1159 0 
L 581 0 
L 581 3500 
L 1159 3500 
L 1159 2956 
Q 1341 3275 1631 3429 
Q 1922 3584 2338 3584 
Q 2397 3584 2469 3576 
Q 2541 3569 2628 3553 
L 2631 2963 
z
" id="DejaVuSans-72" transform="scale(0.015625)"/>
       <path d="M 2194 1759 
Q 1497 1759 1228 1600 
Q 959 1441 959 1056 
Q 959 750 1161 570 
Q 1363 391 1709 391 
Q 2188 391 2477 730 
Q 2766 1069 2766 1631 
L 2766 1759 
L 2194 1759 
z
M 3341 1997 
L 3341 0 
L 2766 0 
L 2766 531 
Q 2569 213 2275 61 
Q 1981 -91 1556 -91 
Q 1019 -91 701 211 
Q 384 513 384 1019 
Q 384 1609 779 1909 
Q 1175 2209 1959 2209 
L 2766 2209 
L 2766 2266 
Q 2766 2663 2505 2880 
Q 2244 3097 1772 3097 
Q 1472 3097 1187 3025 
Q 903 2953 641 2809 
L 641 3341 
Q 956 3463 1253 3523 
Q 1550 3584 1831 3584 
Q 2591 3584 2966 3190 
Q 3341 2797 3341 1997 
z
" id="DejaVuSans-61" transform="scale(0.015625)"/>
       <path d="M 3513 2113 
L 3513 0 
L 2938 0 
L 2938 2094 
Q 2938 2591 2744 2837 
Q 2550 3084 2163 3084 
Q 1697 3084 1428 2787 
Q 1159 2491 1159 1978 
L 1159 0 
L 581 0 
L 581 3500 
L 1159 3500 
L 1159 2956 
Q 1366 3272 1645 3428 
Q 1925 3584 2291 3584 
Q 2894 3584 3203 3211 
Q 3513 2838 3513 2113 
z
" id="DejaVuSans-6e" transform="scale(0.015625)"/>
       <path id="DejaVuSans-20" transform="scale(0.015625)"/>
       <path d="M 1159 525 
L 1159 -1331 
L 581 -1331 
L 581 3500 
L 1159 3500 
L 1159 2969 
Q 1341 3281 1617 3432 
Q 1894 3584 2278 3584 
Q 2916 3584 3314 3078 
Q 3713 2572 3713 1747 
Q 3713 922 3314 415 
Q 2916 -91 2278 -91 
Q 1894 -91 1617 61 
Q 1341 213 1159 525 
z
M 3116 1747 
Q 3116 2381 2855 2742 
Q 2594 3103 2138 3103 
Q 1681 3103 1420 2742 
Q 1159 2381 1159 1747 
Q 1159 1113 1420 752 
Q 1681 391 2138 391 
Q 2594 391 2855 752 
Q 3116 1113 3116 1747 
z
" id="DejaVuSans-70" transform="scale(0.015625)"/>
       <path d="M 1959 3097 
Q 1497 3097 1228 2736 
Q 959 2375 959 1747 
Q 959 1119 1226 758 
Q 1494 397 1959 397 
Q 2419 397 2687 759 
Q 2956 1122 2956 1747 
Q 2956 2369 2687 2733 
Q 2419 3097 1959 3097 
z
M 1959 3584 
Q 2709 3584 3137 3096 
Q 3566 2609 3566 1747 
Q 3566 888 3137 398 
Q 2709 -91 1959 -91 
Q 1206 -91 779 398 
Q 353 888 353 1747 
Q 353 2609 779 3096 
Q 1206 3584 1959 3584 
z
" id="DejaVuSans-6f" transform="scale(0.015625)"/>
       <path d="M 1172 4494 
L 1172 3500 
L 2356 3500 
L 2356 3053 
L 1172 3053 
L 1172 1153 
Q 1172 725 1289 603 
Q 1406 481 1766 481 
L 2356 481 
L 2356 0 
L 1766 0 
Q 1100 0 847 248 
Q 594 497 594 1153 
L 594 3053 
L 172 3053 
L 172 3500 
L 594 3500 
L 594 4494 
L 1172 4494 
z
" id="DejaVuSans-74" transform="scale(0.015625)"/>
       <path d="M 603 4863 
L 1178 4863 
L 1178 0 
L 603 0 
L 603 4863 
z
" id="DejaVuSans-6c" transform="scale(0.015625)"/>
       <path d="M 1831 0 
L 50 4666 
L 709 4666 
L 2188 738 
L 3669 4666 
L 4325 4666 
L 2547 0 
L 1831 0 
z
" id="DejaVuSans-56" transform="scale(0.015625)"/>
      </defs>
      <use xlink:href="#DejaVuSans-4d"/>
      <use x="86.279297" xlink:href="#DejaVuSans-65"/>
      <use x="147.802734" xlink:href="#DejaVuSans-6d"/>
      <use x="245.214844" xlink:href="#DejaVuSans-62"/>
      <use x="308.691406" xlink:href="#DejaVuSans-72"/>
      <use x="349.804688" xlink:href="#DejaVuSans-61"/>
      <use x="411.083984" xlink:href="#DejaVuSans-6e"/>
      <use x="474.462891" xlink:href="#DejaVuSans-65"/>
      <use x="535.986328" xlink:href="#DejaVuSans-20"/>
      <use x="567.773438" xlink:href="#DejaVuSans-70"/>
      <use x="631.25" xlink:href="#DejaVuSans-6f"/>
      <use x="692.431641" xlink:href="#DejaVuSans-74"/>
      <use x="731.640625" xlink:href="#DejaVuSans-65"/>
      <use x="793.164062" xlink:href="#DejaVuSans-6e"/>
      <use x="856.542969" xlink:href="#DejaVuSans-74"/>
      <use x="895.751953" xlink:href="#DejaVuSans-69"/>
      <use x="923.535156" xlink:href="#DejaVuSans-61"/>
      <use x="984.814453" xlink:href="#DejaVuSans-6c"/>
      <use x="1012.597656" xlink:href="#DejaVuSans-20"/>
      <use x="1044.384766" xlink:href="#DejaVuSans-28"/>
      <use x="1083.398438" xlink:href="#DejaVuSans-6d"/>
      <use x="1180.810547" xlink:href="#DejaVuSans-56"/>
      <use x="1249.21875" xlink:href="#DejaVuSans-29"/>
     </g>
    </g>
   </g>
   <g id="line2d_18">
    <path clip-path="url(#p8265e2a59b)" d="M 69.218182 224.604155 
L 69.295236 224.638655 
L 69.333763 224.555448 
L 69.680506 223.569865 
L 69.950196 223.242835 
L 69.988723 223.295166 
L 70.181358 223.941687 
L 70.874845 226.330483 
L 71.106007 225.844577 
L 71.414223 224.655325 
L 71.491277 224.64025 
L 71.529804 224.697364 
L 71.799494 225.344465 
L 71.838021 225.285467 
L 72.223291 224.025329 
L 72.261818 224.066643 
L 72.570035 224.648512 
L 72.608562 224.554723 
L 72.878251 223.633357 
L 72.993832 223.749615 
L 73.032359 223.69482 
L 73.14794 223.650608 
L 73.494684 224.435131 
L 73.687319 225.07455 
L 73.725846 225.00149 
L 73.957008 224.518628 
L 73.995535 224.554723 
L 74.149643 224.988444 
L 74.226697 224.761001 
L 74.419333 223.978072 
L 74.496387 224.058235 
L 74.84313 224.865662 
L 74.881657 224.825219 
L 75.035765 224.755638 
L 75.189873 225.112819 
L 75.343982 225.39955 
L 75.421036 225.167179 
L 75.806306 223.68018 
L 75.921887 223.49724 
L 76.153049 222.884349 
L 76.499793 223.308792 
L 76.692428 223.56943 
L 76.769482 223.523768 
L 77.19328 222.933346 
L 77.270334 222.89754 
L 77.462969 221.717421 
L 77.771185 220.187658 
L 77.886766 220.241438 
L 78.079402 221.007842 
L 78.426145 222.37206 
L 78.503199 222.440047 
L 78.61878 221.764823 
L 78.849942 220.707195 
L 78.965524 220.659213 
L 79.081105 220.438439 
L 79.27374 219.914409 
L 79.312267 219.941806 
L 79.466375 220.45221 
L 79.851646 221.991685 
L 80.275443 222.712716 
L 80.352497 222.562393 
L 80.622186 221.490414 
L 80.853349 220.251586 
L 80.930403 220.285796 
L 81.084511 220.836789 
L 82.00916 225.316053 
L 82.124741 225.315763 
L 82.933809 222.42961 
L 83.010863 222.529777 
L 83.203498 223.324593 
L 83.550242 224.609228 
L 83.665823 224.78521 
L 83.70435 224.701278 
L 83.935512 224.177827 
L 84.051093 224.309741 
L 84.08962 224.393528 
L 84.128147 224.345836 
L 84.436364 223.78716 
L 84.551945 223.866888 
L 84.628999 223.95198 
L 84.667526 223.907332 
L 84.783107 223.379967 
L 85.322486 219.858454 
L 85.39954 219.76278 
L 85.438067 219.786554 
L 85.592175 220.257674 
L 85.938918 222.50035 
L 86.632405 227.003388 
L 86.670932 227.069344 
L 86.709459 226.971351 
L 87.634108 220.87129 
L 87.711162 220.932463 
L 88.057906 222.032564 
L 88.366122 223.599437 
L 88.789919 225.656709 
L 88.944028 225.8353 
L 89.136663 226.105215 
L 89.367825 225.522041 
L 89.637514 224.638365 
L 90.138366 221.308779 
L 90.253947 221.28631 
L 90.408055 221.692053 
L 90.485109 221.851074 
L 90.523636 221.724234 
L 90.677745 221.34212 
L 90.716272 221.359805 
L 90.831853 221.652479 
L 91.140069 223.390839 
L 91.717975 226.679837 
L 91.795029 226.596775 
L 92.218826 225.72484 
L 92.334407 225.471595 
L 92.912313 222.418158 
L 93.027894 222.348142 
L 93.066421 222.39134 
L 93.490219 223.02525 
L 93.644327 222.632844 
L 93.836962 221.517811 
L 94.068124 220.243613 
L 94.145178 220.312034 
L 94.337814 221.124245 
L 95.185409 226.085211 
L 95.223936 225.880382 
L 95.416571 225.293294 
L 95.532152 225.443618 
L 95.68626 225.793841 
L 95.724787 225.645837 
L 95.955949 224.847108 
L 96.07153 224.959886 
L 96.148585 225.078754 
L 96.187112 225.03918 
L 96.572382 224.508481 
L 97.034707 224.300173 
L 97.38145 223.33561 
L 97.612612 223.050328 
L 97.728193 222.789545 
L 97.920829 222.48281 
L 97.997883 222.441061 
L 98.537261 219.932239 
L 98.652842 219.843668 
L 98.691369 219.875124 
L 98.806951 220.088651 
L 98.845478 219.982395 
L 98.999586 219.645798 
L 99.038113 219.667252 
L 99.115167 219.720597 
L 99.153694 219.6558 
L 99.384856 219.114374 
L 99.423383 219.132639 
L 99.538964 219.401975 
L 99.693072 219.841349 
L 99.7316 219.829607 
L 99.885708 219.773652 
L 100.078343 219.615066 
L 100.232451 220.067196 
L 100.579194 222.280446 
L 100.964465 224.642134 
L 101.002992 224.583135 
L 101.1571 224.131295 
L 101.696479 220.468156 
L 101.773533 220.566729 
L 101.966168 221.301821 
L 102.85229 225.450431 
L 102.929344 225.27184 
L 103.276087 223.961837 
L 103.391669 224.112885 
L 103.622831 224.781876 
L 103.699885 224.662863 
L 104.046628 223.589869 
L 104.239264 223.215873 
L 104.277791 223.239791 
L 104.740115 223.747731 
L 105.048331 222.833468 
L 105.240967 222.471503 
L 105.356548 222.62835 
L 105.934453 223.905157 
L 106.127089 224.265238 
L 106.358251 225.151813 
L 106.435305 224.995402 
L 106.782048 223.552905 
L 106.859102 223.611179 
L 107.051738 224.201891 
L 107.321427 225.141376 
L 107.552589 224.437451 
L 107.591116 224.45934 
L 107.745224 224.836525 
L 107.93786 225.204289 
L 108.130495 225.550164 
L 108.246076 225.83385 
L 108.284603 225.757021 
L 108.361657 225.212842 
L 108.746928 220.495118 
L 108.823982 220.430321 
L 108.862509 220.476564 
L 109.093671 221.207597 
L 109.209252 221.076553 
L 109.324833 221.136132 
L 109.36336 221.226876 
L 109.401887 221.178895 
L 109.517468 220.94232 
L 109.555995 220.959425 
L 109.902739 221.189332 
L 110.056847 221.660307 
L 110.442117 223.956328 
L 110.865915 226.37832 
L 110.904442 226.295983 
L 111.559402 223.04569 
L 111.597929 223.056562 
L 111.71351 223.317924 
L 112.137307 224.750999 
L 112.175834 224.701568 
L 112.36847 224.62126 
L 112.561105 224.63909 
L 112.676686 224.836815 
L 112.715213 224.768394 
L 112.869321 224.493985 
L 112.907848 224.515729 
L 113.447227 225.436225 
L 113.639862 225.766154 
L 113.909551 225.494354 
L 113.948078 225.531464 
L 114.140713 225.856899 
L 114.179241 225.706575 
L 114.525984 224.643004 
L 114.641565 224.607199 
L 115.219471 225.439849 
L 115.450633 225.967213 
L 115.604741 226.06941 
L 115.758849 226.368463 
L 115.797376 226.264961 
L 116.067066 225.522041 
L 116.259701 225.520592 
L 116.413809 224.92901 
L 116.799079 221.841362 
L 117.030242 220.633265 
L 117.107296 220.678928 
L 117.261404 221.21267 
L 117.454039 221.656103 
L 117.608147 221.77729 
L 118.031945 222.922764 
L 118.301634 223.760777 
L 118.494269 223.525507 
L 118.532796 223.559573 
L 118.686904 223.963286 
L 118.918067 224.464413 
L 119.110702 224.940897 
L 119.226283 225.216611 
L 119.457445 224.545156 
L 119.495972 224.556173 
L 119.91977 225.12659 
L 119.996824 225.279378 
L 120.035351 225.197621 
L 120.150932 224.406429 
L 120.497675 221.129028 
L 120.690311 220.70705 
L 120.844419 220.681972 
L 121.075581 220.039654 
L 121.653487 216.639762 
L 121.692014 216.706299 
L 121.846122 217.441391 
L 122.231392 219.396177 
L 122.693717 221.341395 
L 122.847825 221.620733 
L 122.886352 221.549992 
L 122.963406 221.475628 
L 123.001933 221.504475 
L 123.156041 221.993425 
L 123.233096 222.254788 
L 123.271623 222.17361 
L 123.772474 219.859614 
L 124.311853 218.769515 
L 124.427434 218.564976 
L 124.465961 218.594838 
L 124.620069 219.119303 
L 124.966812 220.400604 
L 125.043867 220.34378 
L 125.236502 220.203024 
L 125.352083 220.206793 
L 125.852934 220.915792 
L 125.968516 221.340525 
L 126.04557 221.264711 
L 126.122624 221.289934 
L 126.276732 221.833099 
L 127.0858 225.59916 
L 127.162854 225.549729 
L 127.432543 225.062953 
L 127.548124 225.118763 
L 127.702232 223.800061 
L 128.357192 217.304984 
L 128.434246 217.204671 
L 128.472773 217.233373 
L 128.626881 217.760303 
L 128.703936 217.936574 
L 128.742463 217.84467 
L 128.858044 217.576784 
L 128.896571 217.606935 
L 129.050679 218.236207 
L 129.435949 219.888896 
L 129.628585 220.330879 
L 129.667112 220.285506 
L 129.936801 218.448573 
L 130.013855 218.523662 
L 130.360598 219.567954 
L 130.707342 221.743224 
L 130.784396 221.607396 
L 131.24672 220.176061 
L 131.285247 220.230711 
L 131.439356 220.805188 
L 131.631991 221.802658 
L 131.670518 221.739455 
L 132.017261 220.402344 
L 132.055788 220.452065 
L 132.171369 220.788952 
L 132.209896 220.731403 
L 132.864856 216.987086 
L 133.173072 216.763268 
L 133.288654 217.036373 
L 133.481289 217.823361 
L 133.519816 217.772915 
L 133.59687 217.453133 
L 133.750978 216.921275 
L 133.866559 217.240332 
L 134.136249 219.172068 
L 134.868262 224.807388 
L 135.060898 225.340986 
L 135.137952 225.248792 
L 135.407641 224.031128 
L 135.754384 222.051844 
L 136.139655 220.621379 
L 136.255236 220.461053 
L 136.563452 218.850982 
L 136.679033 218.812278 
L 136.71756 218.854026 
L 136.833142 219.082773 
L 136.871669 218.977097 
L 136.98725 218.84098 
L 137.102831 219.170474 
L 137.565155 221.442432 
L 137.642209 221.2679 
L 137.796318 220.902311 
L 137.834845 220.917532 
L 137.988953 221.324869 
L 138.335696 223.257186 
L 138.528331 224.180436 
L 138.566858 224.099114 
L 138.798021 223.084829 
L 139.029183 222.42845 
L 139.45298 221.749167 
L 139.72267 220.410462 
L 140.069413 219.215556 
L 140.223521 218.89534 
L 140.262048 218.925926 
L 140.300575 218.998116 
L 140.339102 218.922882 
L 140.454684 218.670942 
L 140.493211 218.707327 
L 140.647319 219.314999 
L 141.071116 222.474112 
L 141.340806 224.38599 
L 141.41786 224.35062 
L 141.533441 224.490796 
L 141.764603 225.245168 
L 141.841657 225.046283 
L 142.072819 224.518773 
L 142.1884 224.67504 
L 142.45809 225.591187 
L 142.804833 226.946998 
L 142.881887 226.870169 
L 143.113049 226.112608 
L 143.344212 224.679099 
L 144.191807 219.156558 
L 144.268861 219.05842 
L 144.307388 219.096544 
L 144.461496 219.664353 
L 144.885293 221.136711 
L 144.962348 221.078003 
L 145.077929 220.666751 
L 145.309091 219.622169 
L 145.463199 219.553168 
L 145.501726 219.576797 
L 145.771415 217.815823 
L 145.964051 217.129292 
L 146.041105 217.22598 
L 146.464902 218.750815 
L 146.811646 220.110395 
L 147.312497 221.552312 
L 147.351024 221.528393 
L 147.851876 219.940212 
L 147.890403 219.972683 
L 148.083038 220.009502 
L 148.237146 220.024578 
L 148.391254 220.460763 
L 149.315903 224.973948 
L 149.816755 227.48364 
L 150.124971 227.345638 
L 150.510242 225.710489 
L 150.856985 223.028729 
L 150.934039 222.920009 
L 150.972566 222.942913 
L 151.126674 223.373879 
L 151.627526 225.171528 
L 151.70458 225.065272 
L 151.974269 224.157388 
L 152.74481 220.095174 
L 152.937445 219.635651 
L 153.091554 219.282963 
L 153.130081 219.31094 
L 153.284189 219.828012 
L 153.553878 221.25123 
L 153.630932 221.175851 
L 153.746513 221.147583 
L 153.900621 221.624067 
L 154.208838 222.994954 
L 154.247365 222.834193 
L 154.709689 219.78148 
L 154.786743 219.812647 
L 155.249068 220.874914 
L 155.634338 222.39366 
L 155.826974 222.527458 
L 155.942555 222.268849 
L 156.212244 221.34038 
L 156.327825 221.549992 
L 156.751623 223.357354 
L 156.867204 223.71555 
L 156.905731 223.629299 
L 157.17542 222.940449 
L 157.483636 222.835932 
L 157.83038 220.838239 
L 157.907434 220.963339 
L 158.100069 221.823097 
L 158.562394 224.3296 
L 158.600921 224.278864 
L 158.755029 224.152749 
L 159.024718 224.282778 
L 159.178826 224.234072 
L 159.332934 224.033012 
L 159.371461 224.064034 
L 159.795259 224.608358 
L 159.987894 224.513265 
L 160.103475 224.483983 
L 160.450219 224.039535 
L 160.527273 224.154779 
L 160.758435 224.965685 
L 160.835489 225.173123 
L 160.912543 225.139492 
L 161.105178 225.085132 
L 161.413395 224.437161 
L 161.644557 223.706417 
L 161.9913 221.783813 
L 162.106881 221.997484 
L 162.26099 222.292043 
L 162.299517 222.218403 
L 162.723314 220.887525 
L 162.800368 220.965079 
L 162.993003 221.68437 
L 163.68649 224.761291 
L 163.994707 225.166744 
L 164.225869 225.764269 
L 164.765247 221.596959 
L 164.803774 221.603628 
L 164.919356 221.8834 
L 165.227572 223.579142 
L 165.497261 224.705627 
L 165.689896 224.870881 
L 165.766951 224.821884 
L 165.959586 224.586614 
L 165.998113 224.611548 
L 166.152221 224.940897 
L 166.42191 225.476089 
L 166.653072 225.823848 
L 166.6916 225.789927 
L 167.192451 225.067592 
L 167.308032 225.072665 
L 167.46214 225.397521 
L 167.924465 226.556621 
L 168.1171 226.845671 
L 168.579425 228.076816 
L 168.617952 227.960993 
L 168.77206 226.84944 
L 169.041749 224.697509 
L 169.195857 224.634741 
L 169.42702 224.850876 
L 169.696709 225.667726 
L 170.351669 228.207425 
L 170.428723 228.109287 
L 170.736939 227.51988 
L 170.891047 227.632659 
L 171.122209 228.003756 
L 171.160736 227.909098 
L 171.777169 224.067078 
L 172.008331 223.811803 
L 172.123913 223.990974 
L 172.393602 225.061793 
L 172.586237 225.812541 
L 172.624764 225.78094 
L 172.740345 225.811526 
L 172.894453 225.912419 
L 172.971507 225.603364 
L 173.164143 224.967859 
L 173.279724 225.117603 
L 173.395305 225.41825 
L 173.433832 225.384039 
L 173.664994 224.919443 
L 173.703521 224.935533 
L 173.857629 225.254735 
L 174.2429 226.861182 
L 174.589643 228.15466 
L 174.62817 228.108563 
L 174.820806 227.965632 
L 175.013441 228.197423 
L 175.6684 229.287957 
L 175.976617 229.040365 
L 176.400414 225.881107 
L 176.554522 225.794131 
L 176.862739 225.662508 
L 177.170955 224.804054 
L 177.440644 224.271326 
L 177.556226 224.425129 
L 177.787388 225.259664 
L 178.057077 226.076368 
L 178.365293 226.937866 
L 178.712037 227.966502 
L 178.750564 227.951136 
L 178.981726 227.773995 
L 179.251415 226.191901 
L 179.32847 225.76311 
L 179.983429 220.577601 
L 180.09901 220.695453 
L 180.291646 221.537671 
L 180.75397 223.691631 
L 181.023659 223.813978 
L 181.177768 224.027794 
L 181.254822 223.40751 
L 181.485984 220.99726 
L 181.563038 220.926809 
L 181.601565 220.982184 
L 181.909781 222.069819 
L 182.140944 222.725908 
L 182.372106 223.644084 
L 182.988539 226.376146 
L 183.219701 226.742025 
L 183.335282 226.83103 
L 183.373809 226.77522 
L 183.643498 226.402528 
L 183.797606 226.633015 
L 184.14435 227.235613 
L 184.259931 227.150957 
L 184.52962 225.602784 
L 184.722255 224.787529 
L 184.837837 224.851456 
L 185.068999 225.472755 
L 185.107526 225.375197 
L 185.338688 224.110856 
L 185.646904 221.66741 
L 185.685432 221.694083 
L 185.801013 221.899781 
L 185.83954 221.836433 
L 185.916594 221.659002 
L 186.263337 220.346679 
L 186.378918 220.070676 
L 186.725662 217.563302 
L 186.764189 217.570405 
L 186.87977 217.918164 
L 187.149459 219.841204 
L 187.611784 223.147452 
L 187.804419 223.510431 
L 187.997054 223.794988 
L 188.112635 223.941108 
L 188.151162 223.856161 
L 188.266743 223.676266 
L 188.30527 223.693661 
L 188.613487 224.00315 
L 188.806122 223.529566 
L 189.229919 224.086792 
L 189.306974 223.955314 
L 189.422555 223.994598 
L 189.576663 224.03997 
L 189.692244 224.131005 
L 189.884879 224.71012 
L 190.154568 225.686136 
L 190.193096 225.675699 
L 190.501312 224.941187 
L 190.963636 221.911957 
L 191.079217 221.817733 
L 191.194799 222.063441 
L 191.811231 223.979667 
L 192.003867 224.169275 
L 192.427664 221.99444 
L 192.543245 222.222317 
L 192.774407 223.090772 
L 192.851461 222.993649 
L 192.928516 223.065694 
L 193.044097 223.296325 
L 193.082624 223.27951 
L 193.159678 223.031339 
L 193.506421 221.652479 
L 193.814638 221.046981 
L 194.0458 220.059948 
L 194.276962 219.187579 
L 194.623705 219.157428 
L 194.739287 219.140467 
L 194.893395 219.63797 
L 195.625409 223.352715 
L 195.663936 223.291542 
L 195.856571 222.402212 
L 196.280368 218.428859 
L 196.588585 215.332513 
L 196.742693 214.742091 
L 196.78122 214.755572 
L 196.896801 215.106375 
L 196.973855 215.345559 
L 197.012382 215.318742 
L 197.127963 215.283661 
L 197.243544 215.606342 
L 197.82145 217.914251 
L 197.898504 217.999922 
L 198.052612 218.148361 
L 198.168193 218.40581 
L 198.591991 220.340446 
L 198.669045 220.274199 
L 198.86168 220.152143 
L 199.439586 215.356286 
L 199.478113 215.410646 
L 199.632221 216.064561 
L 199.940437 217.365867 
L 200.094545 217.846119 
L 200.402762 219.984424 
L 200.903613 223.244865 
L 201.057722 223.133825 
L 201.21183 223.497385 
L 201.635627 225.496383 
L 202.25206 228.040576 
L 202.483222 228.493721 
L 202.63733 228.364997 
L 202.752911 227.530317 
L 203.099655 225.168629 
L 203.523452 224.12999 
L 203.870196 222.583557 
L 204.062831 222.57399 
L 204.178412 222.705468 
L 204.602209 223.759908 
L 204.679264 223.711201 
L 204.948953 223.327782 
L 204.98748 223.378373 
L 205.180115 223.979812 
L 205.334223 224.578352 
L 205.37275 224.525586 
L 206.066237 221.30588 
L 206.143291 221.242242 
L 206.297399 220.877668 
L 206.335926 220.909269 
L 206.490035 221.418948 
L 206.605616 221.911523 
L 206.644143 221.765113 
L 207.144994 219.265713 
L 207.222048 219.336743 
L 207.260575 219.414297 
L 207.299102 219.372113 
L 207.568792 217.976148 
L 207.684373 218.288537 
L 208.185224 221.260797 
L 208.878711 225.426513 
L 208.917238 225.389258 
L 209.071346 224.625899 
L 209.302509 223.808179 
L 209.41809 223.852972 
L 209.533671 224.048378 
L 209.572198 223.921973 
L 209.918941 222.652123 
L 210.034522 222.802447 
L 210.111577 223.016843 
L 210.150104 222.983357 
L 210.304212 222.30045 
L 210.612428 220.864332 
L 210.650955 220.885931 
L 211.074753 221.748877 
L 211.190334 222.287839 
L 211.228861 222.237103 
L 211.421496 220.787358 
L 211.845293 218.892151 
L 212.346145 219.001306 
L 212.53878 219.812212 
L 212.769942 220.876943 
L 212.80847 220.837224 
L 212.962578 220.838819 
L 213.309321 220.889989 
L 213.501956 221.63146 
L 213.964281 223.612193 
L 214.118389 223.800061 
L 214.272497 223.848478 
L 214.503659 224.243059 
L 214.542186 224.161882 
L 214.811876 223.619586 
L 214.927457 223.792668 
L 215.197146 224.808693 
L 215.2742 225.052661 
L 215.312727 225.00207 
L 215.54389 223.935889 
L 215.582417 223.950095 
L 215.736525 224.337573 
L 216.044741 225.284162 
L 216.083268 225.27155 
L 216.468539 222.73504 
L 216.58412 222.850428 
L 216.815282 223.687283 
L 216.892336 223.428384 
L 217.701404 217.793499 
L 217.778458 217.885114 
L 217.971093 218.792708 
L 218.934269 224.634741 
L 219.627756 226.162764 
L 219.743337 226.477038 
L 219.781864 226.425287 
L 219.974499 225.073245 
L 220.35977 222.061701 
L 220.783567 216.70311 
L 220.976203 215.920326 
L 221.168838 215.345704 
L 221.245892 215.17871 
L 221.477054 214.756297 
L 221.708216 214.396651 
L 222.44023 210.06974 
L 222.517284 210.149758 
L 222.864028 211.262616 
L 222.941082 211.166942 
L 223.056663 210.998644 
L 223.09519 211.021548 
L 223.133717 211.014589 
L 223.48046 209.206503 
L 223.557514 209.336243 
L 223.75015 210.510708 
L 224.405109 215.964539 
L 224.443636 215.898582 
L 224.559217 215.717527 
L 224.597745 215.752317 
L 224.867434 216.448125 
L 224.905961 216.363034 
L 225.060069 215.934097 
L 225.098596 215.945114 
L 225.214177 216.274173 
L 225.406812 217.06464 
L 225.445339 217.010135 
L 225.522394 216.971721 
L 225.560921 217.020717 
L 225.637975 217.166257 
L 226.023245 216.057603 
L 226.100299 216.100221 
L 226.408516 216.62802 
L 226.447043 216.582068 
L 226.524097 216.510313 
L 226.562624 216.53945 
L 226.87084 217.190755 
L 226.909367 217.077107 
L 227.063475 216.614829 
L 227.102002 216.63034 
L 227.179056 216.663391 
L 227.371692 216.317226 
L 227.487273 216.579314 
L 227.756962 218.00659 
L 227.795489 217.775379 
L 228.065178 215.97599 
L 228.142232 216.078477 
L 228.450449 216.746743 
L 228.488976 216.803277 
L 228.527503 216.773705 
L 228.720138 214.87067 
L 229.143936 210.66683 
L 229.22099 210.681761 
L 229.375098 211.266385 
L 229.99153 214.191823 
L 230.376801 215.588657 
L 230.415328 215.564159 
L 230.530909 215.536762 
L 230.685017 216.067025 
L 230.954707 216.982883 
L 231.108815 217.420662 
L 231.147342 217.330497 
L 231.262923 216.714852 
L 231.571139 213.85827 
L 231.68672 213.91205 
L 232.071991 214.411872 
L 232.110518 214.343886 
L 232.187572 213.837685 
L 232.611369 209.480188 
L 232.765478 209.18215 
L 232.842532 209.21752 
L 232.881059 209.154608 
L 233.073694 208.554038 
L 233.112221 208.56549 
L 233.304856 208.658265 
L 233.420437 208.899623 
L 233.844235 210.809906 
L 233.882762 210.661177 
L 234.42214 206.142049 
L 234.576249 204.952507 
L 235.115627 200.555725 
L 235.462371 200.059237 
L 235.616479 199.784248 
L 235.655006 199.805123 
L 235.963222 200.415404 
L 236.11733 200.817233 
L 236.232911 200.752726 
L 236.464074 200.789401 
L 236.964925 201.553775 
L 237.119033 201.485789 
L 237.273142 201.2985 
L 237.465777 201.383737 
L 237.581358 201.5545 
L 237.773993 202.505872 
L 238.082209 203.912419 
L 238.390426 204.842772 
L 238.737169 207.105018 
L 239.045386 208.955723 
L 239.12244 208.860919 
L 239.430656 207.232873 
L 239.546237 207.277811 
L 239.700345 207.019202 
L 240.201197 204.818129 
L 240.54794 205.310848 
L 240.663521 205.477117 
L 240.779102 205.244457 
L 241.164373 203.133984 
L 241.2029 203.153844 
L 241.318481 203.148915 
L 241.511116 202.923357 
L 241.742278 201.841521 
L 241.896387 201.926757 
L 242.050495 202.338733 
L 242.320184 203.743831 
L 242.397238 203.45565 
L 242.936617 200.653284 
L 243.052198 200.554421 
L 243.167779 200.619508 
L 243.398941 201.031629 
L 243.475995 200.915806 
L 243.668631 198.561656 
L 243.976847 196.271433 
L 244.169482 195.757694 
L 244.285063 195.79147 
L 244.477699 195.624476 
L 244.631807 195.632739 
L 244.824442 195.462411 
L 245.055604 194.239238 
L 245.479402 190.289803 
L 245.826145 189.64792 
L 245.941726 189.495132 
L 246.057307 188.379085 
L 246.404051 184.725514 
L 247.020483 175.93282 
L 247.444281 168.280381 
L 247.598389 157.891388 
L 247.636916 148.506968 
L 247.675443 49.644972 
L 247.71397 102.52899 
L 247.868078 197.324422 
L 247.906605 198.525271 
L 247.945132 198.057775 
L 248.523038 186.740748 
L 249.177998 175.518669 
L 249.370633 167.965963 
L 249.486214 155.457655 
L 249.563268 63.004921 
L 249.601795 149.600981 
L 249.755903 200.979878 
L 249.79443 200.553261 
L 250.179701 192.121953 
L 250.44939 190.436213 
L 250.642025 190.143249 
L 251.065823 190.069754 
L 251.219931 189.890583 
L 251.335512 189.525429 
L 251.75931 186.655946 
L 251.951945 185.688048 
L 252.183107 184.970061 
L 252.298688 185.003257 
L 252.491323 185.501774 
L 252.568377 185.7369 
L 252.606904 185.689063 
L 252.838067 185.287379 
L 252.953648 185.277811 
L 253.069229 184.774075 
L 253.415972 182.730574 
L 253.531554 182.172913 
L 254.186513 176.890136 
L 254.417675 172.474799 
L 254.687365 163.803002 
L 254.764419 157.791656 
L 254.802946 149.771889 
L 254.841473 64.487427 
L 254.88 91.522757 
L 255.034108 193.863502 
L 255.072635 195.766682 
L 255.149689 195.189886 
L 255.573487 189.198689 
L 255.804649 186.236287 
L 256.112865 179.430415 
L 256.459609 166.385319 
L 256.57519 154.687482 
L 256.652244 65.341241 
L 256.806352 197.570854 
L 256.844879 200.369162 
L 256.921933 199.486356 
L 257.345731 191.922198 
L 257.692474 188.968638 
L 257.923636 188.050606 
L 258.347434 185.20997 
L 258.732704 183.445372 
L 259.349137 179.219788 
L 259.69588 177.768448 
L 260.119678 176.900863 
L 260.389367 175.232808 
L 260.697583 171.667952 
L 260.928746 165.537158 
L 261.044327 157.391276 
L 261.082854 148.437967 
L 261.121381 53.793728 
L 261.159908 94.891482 
L 261.314016 193.155517 
L 261.468124 196.414943 
L 261.545178 196.671957 
L 261.737814 198.698208 
L 263.124787 217.013469 
L 263.47153 219.371968 
L 263.548585 219.423284 
L 263.587112 219.378057 
L 263.856801 219.05755 
L 264.165017 218.811263 
L 264.319125 218.454516 
L 264.357652 218.494525 
L 264.511761 219.088282 
L 264.897031 222.021112 
L 265.320829 224.697944 
L 265.706099 224.914804 
L 265.860207 224.932344 
L 266.091369 225.389113 
L 266.129896 225.238355 
L 266.553694 222.573555 
L 266.630748 222.62574 
L 266.823383 223.271827 
L 267.016018 224.074906 
L 267.054545 224.013153 
L 268.17183 220.473084 
L 268.210357 220.495118 
L 268.287411 220.487001 
L 268.402992 220.409882 
L 268.441519 220.455834 
L 268.595627 220.979865 
L 269.481749 225.516968 
L 269.520276 225.444923 
L 269.751438 224.626478 
L 269.86702 224.761726 
L 269.982601 224.831742 
L 270.098182 224.537328 
L 270.329344 223.471002 
L 270.676087 222.37438 
L 270.791669 222.502959 
L 271.022831 223.129621 
L 271.061358 222.944073 
L 271.369574 220.86984 
L 271.485155 220.785763 
L 271.677791 220.396111 
L 271.716318 220.416985 
L 271.870426 220.848821 
L 271.986007 221.241228 
L 272.024534 221.064956 
L 272.255696 220.285071 
L 272.371277 220.30696 
L 272.448331 220.357261 
L 272.486858 220.279563 
L 272.679494 219.636085 
L 272.833602 219.290791 
L 272.949183 219.5278 
L 273.180345 220.76141 
L 273.835305 224.49442 
L 274.837008 228.483719 
L 275.029643 228.111462 
L 275.414914 226.329758 
L 275.530495 226.351068 
L 275.72313 226.717236 
L 275.915765 227.017884 
L 275.992819 226.948448 
L 276.146928 225.079044 
L 276.416617 222.949581 
L 276.724833 222.15491 
L 276.801887 222.19347 
L 276.955995 222.703294 
L 277.302739 223.871237 
L 277.688009 224.541097 
L 277.765063 224.643294 
L 277.80359 224.615896 
L 277.919171 224.629523 
L 278.111807 224.980181 
L 278.188861 224.832467 
L 278.304442 224.796227 
L 278.381496 224.837105 
L 278.497077 224.398166 
L 278.766766 223.217177 
L 278.882348 223.315895 
L 279.11351 224.171739 
L 279.652888 226.321496 
L 280.693119 229.147056 
L 280.770173 228.986005 
L 281.309551 224.188119 
L 281.733349 218.905197 
L 281.84893 218.648038 
L 281.887457 218.664274 
L 282.080092 218.819236 
L 282.311254 219.82062 
L 282.388308 220.18302 
L 282.426835 220.116773 
L 282.696525 218.866058 
L 282.812106 219.135249 
L 283.235903 220.654719 
L 283.312957 220.509469 
L 283.621174 219.292965 
L 283.698228 219.106836 
L 284.353188 214.316343 
L 284.391715 214.323301 
L 284.468769 214.344756 
L 284.507296 214.271116 
L 284.738458 213.868707 
L 284.776985 213.931185 
L 284.96962 214.827907 
L 285.316364 217.142773 
L 285.971323 221.526509 
L 286.703337 224.037361 
L 286.973026 225.017436 
L 287.050081 224.920167 
L 287.204189 224.477025 
L 287.589459 222.714601 
L 288.013257 223.127882 
L 288.090311 223.288788 
L 288.128838 223.257041 
L 288.244419 223.247474 
L 288.514108 223.649013 
L 288.591162 223.833837 
L 288.629689 223.769765 
L 288.783797 223.589724 
L 288.937906 223.916319 
L 289.246122 224.850587 
L 289.284649 224.807823 
L 289.515811 224.634306 
L 289.708446 224.942781 
L 289.746974 224.814347 
L 290.016663 223.989959 
L 290.132244 223.878485 
L 290.286352 223.831663 
L 290.324879 223.853407 
L 290.787204 222.490783 
L 290.864258 222.366117 
L 291.249528 221.08902 
L 291.634799 220.47236 
L 291.75038 220.692699 
L 291.827434 220.881147 
L 291.865961 220.782864 
L 292.020069 220.430466 
L 292.058596 220.445542 
L 292.174177 220.72575 
L 292.443867 222.21043 
L 292.675029 223.143828 
L 292.944718 223.121359 
L 293.214407 221.313852 
L 293.44557 219.857439 
L 293.522624 219.869471 
L 293.715259 220.086186 
L 293.907894 219.791772 
L 294.023475 219.522582 
L 294.062002 219.554618 
L 294.21611 220.131704 
L 294.986651 224.075485 
L 295.063705 224.023155 
L 295.256341 223.860655 
L 295.795719 224.674605 
L 295.834246 224.758682 
L 295.872773 224.699538 
L 296.335098 222.794039 
L 296.412152 222.878841 
L 296.643314 223.172964 
L 296.758895 223.314011 
L 296.874476 223.49898 
L 297.259747 222.721414 
L 297.529436 222.304944 
L 297.683544 222.689813 
L 298.839356 227.096452 
L 298.91641 226.935546 
L 299.378734 224.306407 
L 299.494315 224.429768 
L 299.764005 225.114704 
L 299.879586 225.053096 
L 300.072221 225.094554 
L 300.187802 224.849427 
L 300.34191 223.674671 
L 300.573072 222.578484 
L 300.688654 222.68126 
L 300.919816 223.571315 
L 301.112451 224.531095 
L 301.150978 224.482533 
L 302.306789 220.510194 
L 302.345316 220.548609 
L 302.499425 220.998854 
L 302.653533 221.569997 
L 302.69206 221.546948 
L 302.846168 221.405177 
L 302.884695 221.440837 
L 303.192911 222.115771 
L 303.231438 222.017923 
L 303.770817 219.861933 
L 303.886398 220.131269 
L 304.271669 221.365603 
L 304.310196 221.391551 
L 304.348723 221.32168 
L 304.579885 219.479094 
L 304.926628 216.084276 
L 305.003682 216.060067 
L 305.119264 216.414349 
L 305.388953 218.291726 
L 305.620115 220.047482 
L 305.658642 219.940356 
L 305.851277 219.454451 
L 305.966858 219.505476 
L 306.313602 218.872726 
L 306.429183 219.115099 
L 306.930035 220.872884 
L 307.199724 220.358566 
L 307.238251 220.411187 
L 307.392359 220.935652 
L 307.931738 223.594943 
L 308.008792 223.522898 
L 308.124373 223.567691 
L 308.317008 224.178407 
L 308.779333 225.717592 
L 309.010495 226.199729 
L 309.049022 226.099997 
L 310.089252 221.565068 
L 310.204833 221.801353 
L 310.474522 223.176154 
L 310.590104 223.613788 
L 310.936847 221.544919 
L 310.975374 221.561154 
L 311.129482 221.972986 
L 311.476226 223.893561 
L 311.822969 225.451736 
L 312.015604 225.665407 
L 312.054131 225.520737 
L 312.32382 224.899438 
L 312.439402 224.588934 
L 312.709091 223.693081 
L 312.863199 223.703953 
L 313.24847 221.639433 
L 313.63374 222.274792 
L 313.980483 224.232912 
L 314.67397 227.958239 
L 314.982186 228.837566 
L 315.059241 228.575044 
L 315.444511 226.861182 
L 315.637146 226.625042 
L 315.791254 226.702306 
L 316.137998 225.732088 
L 316.176525 225.752528 
L 316.292106 225.802539 
L 316.638849 225.149639 
L 316.908539 223.742367 
L 317.40939 221.044662 
L 317.602025 220.602824 
L 317.756133 220.282897 
L 317.871715 220.546289 
L 318.141404 222.123454 
L 318.526674 224.415852 
L 318.565201 224.396862 
L 318.71931 224.394397 
L 318.834891 224.463688 
L 318.988999 224.40382 
L 319.143107 224.737373 
L 319.374269 225.211247 
L 319.566904 225.120357 
L 319.798067 224.961336 
L 319.875121 224.851166 
L 320.067756 223.818326 
L 320.375972 222.283635 
L 320.530081 222.032129 
L 320.915351 220.852735 
L 320.992405 220.971892 
L 321.223567 221.361399 
L 321.339148 221.454609 
L 321.531784 222.137225 
L 322.417906 226.209587 
L 322.533487 226.163779 
L 322.687595 226.150443 
L 322.88023 226.545604 
L 323.265501 227.377384 
L 323.458136 227.534956 
L 323.804879 228.255697 
L 324.074568 228.695506 
L 324.151623 228.659556 
L 324.228677 228.310347 
L 324.498366 226.441088 
L 325.037745 224.825508 
L 325.076272 224.842759 
L 325.23038 225.116298 
L 325.61565 226.292359 
L 325.692704 226.119856 
L 326.000921 224.917848 
L 326.732934 222.060831 
L 326.92557 222.041117 
L 327.31084 221.114822 
L 327.426421 221.252679 
L 327.619056 220.739086 
L 327.657583 220.76112 
L 327.811692 221.246156 
L 328.158435 222.378004 
L 328.389597 223.24385 
L 328.582232 224.201891 
L 328.620759 224.137383 
L 328.813395 223.732945 
L 328.851922 223.749325 
L 329.275719 224.228128 
L 329.314246 224.188119 
L 329.468354 224.097229 
L 329.622463 224.468907 
L 330.04626 226.450365 
L 330.238895 227.243006 
L 331.125017 221.222963 
L 331.433234 219.021455 
L 331.548815 218.852287 
L 331.664396 219.159602 
L 332.858734 224.627348 
L 332.935788 224.582411 
L 333.089896 224.227693 
L 333.205478 223.798612 
L 333.552221 222.412939 
L 333.706329 222.344518 
L 334.014545 222.89986 
L 334.245708 223.776288 
L 334.47687 224.528051 
L 334.515397 224.512975 
L 334.785086 223.587985 
L 334.900667 223.738019 
L 335.13183 224.47427 
L 335.208884 224.321628 
L 335.401519 224.065483 
L 335.5171 223.991699 
L 335.671208 223.977492 
L 335.863843 224.515439 
L 336.133533 225.646417 
L 336.17206 225.504211 
L 336.403222 224.680548 
L 336.672911 224.324092 
L 336.904074 224.031418 
L 337.058182 223.863844 
L 337.096709 223.892256 
L 337.250817 224.275965 
L 337.790196 225.666711 
L 337.86725 225.487541 
L 338.25252 223.224715 
L 338.368101 223.366486 
L 338.599264 224.306842 
L 339.254223 227.549887 
L 339.29275 227.526403 
L 339.56244 227.218798 
L 340.101818 225.502472 
L 340.294453 225.467826 
L 340.448562 225.47261 
L 340.641197 225.875599 
L 340.756778 225.764124 
L 340.872359 225.800799 
L 341.064994 226.28743 
L 341.257629 226.858138 
L 341.296157 226.826101 
L 341.527319 226.547923 
L 341.797008 225.840084 
L 341.912589 225.939526 
L 342.182278 226.510813 
L 342.220806 226.333817 
L 342.644603 223.675106 
L 342.721657 223.741063 
L 342.875765 224.049538 
L 342.914292 223.957053 
L 343.222509 222.911167 
L 343.492198 223.117445 
L 343.761887 222.591675 
L 344.031577 221.302111 
L 344.108631 221.370822 
L 344.301266 222.13998 
L 344.648009 223.488542 
L 344.725063 223.808034 
L 344.802117 223.689312 
L 344.994753 222.536735 
L 345.187388 221.708868 
L 345.264442 221.784972 
L 345.457077 222.559639 
L 345.765293 223.685108 
L 345.957929 224.235231 
L 345.996456 224.18754 
L 346.112037 224.234362 
L 346.45878 225.122532 
L 346.574361 225.025408 
L 346.689942 224.876389 
L 346.882578 224.648512 
L 346.959632 224.600241 
L 347.421956 223.574359 
L 347.614591 223.557833 
L 348.308078 221.003783 
L 348.385132 220.951887 
L 348.423659 220.986823 
L 348.577768 221.470554 
L 348.924511 223.130201 
L 349.001565 223.024091 
L 349.309781 222.326543 
L 349.810633 222.560943 
L 349.964741 223.028729 
L 350.003268 222.870288 
L 350.427066 220.917242 
L 350.696755 220.922171 
L 350.88939 221.530568 
L 351.274661 223.563922 
L 351.313188 223.39026 
L 351.659931 221.583188 
L 351.698458 221.590436 
L 351.814039 221.839332 
L 352.083728 223.2079 
L 352.623107 225.914303 
L 352.700161 225.875019 
L 353.046904 224.876534 
L 353.201013 225.171238 
L 353.586283 226.698247 
L 353.933026 227.920839 
L 354.048608 227.137186 
L 354.626513 223.232543 
L 354.742094 223.055402 
L 354.780621 223.086278 
L 354.857675 223.194129 
L 354.896203 223.158903 
L 355.165892 222.767946 
L 355.204419 222.818392 
L 355.242946 222.876521 
L 355.281473 222.823031 
L 355.936433 220.848096 
L 356.013487 220.921736 
L 356.244649 221.52274 
L 356.283176 221.472584 
L 356.552865 221.133087 
L 356.745501 220.993056 
L 356.938136 220.018925 
L 356.976663 220.031246 
L 357.130771 220.249266 
L 357.477514 218.792998 
L 357.708677 218.096465 
L 357.978366 218.251283 
L 358.132474 218.871276 
L 358.787434 223.015248 
L 358.864488 222.888553 
L 359.134177 222.113307 
L 359.172704 222.130992 
L 359.326812 222.503829 
L 359.596502 223.197463 
L 359.75061 223.580302 
L 359.943245 223.830213 
L 360.097353 224.176668 
L 360.482624 225.887051 
L 360.636732 225.687151 
L 360.752313 225.77949 
L 360.944948 226.30497 
L 361.022002 226.101301 
L 361.214638 225.880092 
L 361.484327 225.755282 
L 361.715489 225.113979 
L 362.331922 221.126129 
L 362.524557 220.899992 
L 362.794246 220.866651 
L 362.948354 221.26964 
L 363.179517 221.762069 
L 363.295098 221.876152 
L 363.333625 221.825126 
L 363.564787 221.323275 
L 363.603314 221.356616 
L 363.950058 222.13737 
L 364.296801 223.975318 
L 364.605017 225.456374 
L 364.643544 225.422889 
L 365.414085 223.740483 
L 365.568193 223.689457 
L 365.722301 223.865004 
L 365.760829 223.789044 
L 365.991991 223.332565 
L 366.107572 223.495356 
L 366.146099 223.595523 
L 366.184626 223.512171 
L 366.338734 223.232253 
L 366.454315 223.491732 
L 366.878113 225.293004 
L 366.993694 225.190083 
L 367.109275 225.005259 
L 367.340437 224.484852 
L 367.456018 224.663008 
L 368.34214 226.813345 
L 368.419194 226.789716 
L 368.688884 225.910099 
L 368.881519 225.618585 
L 369.074154 225.685411 
L 369.189735 225.280973 
L 369.382371 224.793327 
L 369.497952 224.774772 
L 369.690587 223.636257 
L 369.883222 222.930736 
L 370.03733 223.090772 
L 370.345547 223.207755 
L 370.461128 223.25994 
L 370.653763 223.923132 
L 370.923452 224.675765 
L 371.116087 225.14645 
L 371.693993 227.548147 
L 371.771047 227.354771 
L 372.233372 224.609808 
L 372.426007 224.532109 
L 372.541588 224.520078 
L 372.695696 224.849282 
L 373.581818 227.487119 
L 373.581818 227.487119 
" style="fill:none;stroke:#000000;stroke-linecap:square;stroke-width:1.5;"/>
   </g>
   <g id="line2d_19">
    <path clip-path="url(#p8265e2a59b)" d="M 69.218182 224.604155 
L 69.295236 224.638655 
L 69.333763 224.555448 
L 69.680506 223.569865 
L 69.950196 223.242835 
L 69.988723 223.295166 
L 70.181358 223.941687 
L 70.874845 226.329034 
L 71.106007 225.842113 
L 71.414223 224.651122 
L 71.491277 224.635756 
L 71.529804 224.69258 
L 71.799494 225.338087 
L 71.838021 225.278798 
L 72.223291 224.016052 
L 72.261818 224.05722 
L 72.570035 224.63706 
L 72.608562 224.542981 
L 72.878251 223.619876 
L 72.993832 223.735119 
L 73.032359 223.680035 
L 73.14794 223.635242 
L 73.494684 224.417736 
L 73.687319 225.05614 
L 73.725846 224.98308 
L 73.957008 224.499059 
L 73.995535 224.535009 
L 74.149643 224.968004 
L 74.226697 224.740127 
L 74.419333 223.956183 
L 74.496387 224.035911 
L 74.84313 224.841889 
L 74.881657 224.801155 
L 75.035765 224.730995 
L 75.189873 225.087596 
L 75.343982 225.373747 
L 75.421036 225.141086 
L 75.806306 223.650898 
L 75.921887 223.466943 
L 76.153049 222.851878 
L 76.499793 223.273712 
L 76.692428 223.533335 
L 76.769482 223.487383 
L 77.19328 222.894206 
L 77.270334 222.857966 
L 77.462969 221.676397 
L 77.771185 220.143011 
L 77.886766 220.195486 
L 78.079402 220.95986 
L 78.426145 222.322339 
L 78.503199 222.39018 
L 78.61878 221.714522 
L 78.849942 220.655154 
L 78.965524 220.606158 
L 79.081105 220.384514 
L 79.27374 219.858309 
L 79.312267 219.885272 
L 79.466375 220.393791 
L 79.851646 221.929788 
L 80.275443 222.648209 
L 80.352497 222.497596 
L 80.622186 221.423442 
L 80.853349 220.18099 
L 80.930403 220.213896 
L 81.084511 220.76228 
L 82.00916 225.240529 
L 82.124741 225.240819 
L 82.933809 222.349157 
L 83.010863 222.448164 
L 83.203498 223.240661 
L 83.550242 224.524282 
L 83.665823 224.700263 
L 83.70435 224.616476 
L 83.935512 224.092011 
L 84.051093 224.2232 
L 84.08962 224.306842 
L 84.128147 224.25886 
L 84.436364 223.697865 
L 84.551945 223.776433 
L 84.628999 223.8608 
L 84.667526 223.815862 
L 84.783107 223.287193 
L 85.322486 219.751908 
L 85.39954 219.653771 
L 85.438067 219.676239 
L 85.592175 220.143156 
L 85.938918 222.380758 
L 86.632405 226.896262 
L 86.670932 226.963234 
L 86.709459 226.866545 
L 87.634108 220.757496 
L 87.711162 220.816205 
L 88.057906 221.908188 
L 88.366122 223.471872 
L 88.789919 225.533203 
L 88.944028 225.713968 
L 89.136663 225.986203 
L 89.367825 225.403609 
L 89.637514 224.516744 
L 90.138366 221.168892 
L 90.253947 221.14193 
L 90.408055 221.542599 
L 90.485109 221.699591 
L 90.523636 221.572171 
L 90.677745 221.186288 
L 90.716272 221.202958 
L 90.831853 221.493168 
L 91.140069 223.229064 
L 91.717975 226.531543 
L 91.795029 226.45109 
L 92.218826 225.584374 
L 92.334407 225.331129 
L 92.912313 222.263775 
L 93.027894 222.189701 
L 93.066421 222.231594 
L 93.490219 222.857242 
L 93.644327 222.462226 
L 93.836962 221.342265 
L 94.068124 220.059804 
L 94.145178 220.125325 
L 94.337814 220.931883 
L 95.185409 225.907925 
L 95.223936 225.704836 
L 95.416571 225.123256 
L 95.532152 225.275899 
L 95.68626 225.629167 
L 95.724787 225.481887 
L 95.955949 224.683593 
L 96.07153 224.796082 
L 96.148585 224.914949 
L 96.187112 224.875375 
L 96.572382 224.341342 
L 97.034707 224.126511 
L 97.38145 223.152815 
L 97.612612 222.861735 
L 97.728193 222.597763 
L 97.920829 222.285519 
L 97.997883 222.241741 
L 98.537261 219.709435 
L 98.691369 219.644638 
L 98.806951 219.853091 
L 98.845478 219.745385 
L 98.999586 219.402555 
L 99.038113 219.422269 
L 99.115167 219.472426 
L 99.153694 219.406034 
L 99.384856 218.853446 
L 99.423383 218.869827 
L 99.538964 219.134089 
L 99.654545 219.579116 
L 99.7316 219.556647 
L 99.885708 219.497649 
L 100.078343 219.333989 
L 100.232451 219.782205 
L 100.579194 221.995454 
L 100.964465 224.375263 
L 101.002992 224.318873 
L 101.1571 223.875151 
L 101.696479 220.204908 
L 101.773533 220.300582 
L 101.966168 221.029876 
L 102.85229 225.19936 
L 102.929344 225.023814 
L 103.276087 223.71584 
L 103.391669 223.866743 
L 103.622831 224.537618 
L 103.699885 224.41962 
L 104.046628 223.342858 
L 104.239264 222.965672 
L 104.277791 222.98901 
L 104.740115 223.494196 
L 105.048331 222.576454 
L 105.240967 222.208401 
L 105.356548 222.361913 
L 105.934453 223.634227 
L 106.127089 223.995178 
L 106.358251 224.885812 
L 106.435305 224.732154 
L 106.782048 223.290962 
L 106.859102 223.348366 
L 107.051738 223.938063 
L 107.321427 224.880883 
L 107.552589 224.179712 
L 107.591116 224.201891 
L 107.745224 224.579946 
L 107.93786 224.950319 
L 108.130495 225.298223 
L 108.246076 225.583794 
L 108.284603 225.50769 
L 108.361657 224.963945 
L 108.746928 220.223898 
L 108.823982 220.152868 
L 108.862509 220.196211 
L 109.093671 220.913473 
L 109.209252 220.776776 
L 109.324833 220.830411 
L 109.36336 220.919271 
L 109.401887 220.869985 
L 109.517468 220.629206 
L 109.555995 220.644862 
L 109.864212 220.81461 
L 110.01832 221.175271 
L 110.326536 222.864635 
L 110.865915 226.082022 
L 110.904442 226.003019 
L 111.559402 222.759828 
L 111.597929 222.769831 
L 111.71351 223.029164 
L 112.137307 224.464123 
L 112.175834 224.415417 
L 112.36847 224.336848 
L 112.561105 224.355838 
L 112.676686 224.554288 
L 112.715213 224.486447 
L 112.869321 224.212908 
L 112.907848 224.234507 
L 113.447227 225.159206 
L 113.639862 225.493339 
L 113.909551 225.224873 
L 113.948078 225.262128 
L 114.140713 225.589593 
L 114.179241 225.439849 
L 114.525984 224.372943 
L 114.641565 224.334094 
L 115.219471 225.158772 
L 115.450633 225.687731 
L 115.604741 225.791377 
L 115.758849 226.092749 
L 115.797376 225.989972 
L 116.067066 225.246182 
L 116.259701 225.243283 
L 116.413809 224.648367 
L 116.799079 221.538106 
L 117.030242 220.309135 
L 117.107296 220.348274 
L 117.261404 220.871 
L 117.454039 221.305155 
L 117.608147 221.419528 
L 118.031945 222.557319 
L 118.301634 223.399682 
L 118.494269 223.168326 
L 118.532796 223.202971 
L 118.686904 223.609439 
L 118.918067 224.117379 
L 119.110702 224.599806 
L 119.226283 224.880448 
L 119.457445 224.215952 
L 119.495972 224.227693 
L 119.91977 224.804779 
L 119.996824 224.959017 
L 120.035351 224.878129 
L 120.150932 224.088097 
L 120.497675 220.794026 
L 120.690311 220.357261 
L 120.844419 220.322036 
L 121.075581 219.665077 
L 121.653487 216.21184 
L 121.692014 216.274608 
L 121.846122 216.995639 
L 122.231392 218.933174 
L 122.693717 220.88622 
L 122.847825 221.172372 
L 122.886352 221.103516 
L 122.963406 221.03263 
L 123.001933 221.062927 
L 123.156041 221.557965 
L 123.233096 221.822952 
L 123.271623 221.743804 
L 123.772474 219.423719 
L 124.311853 218.310571 
L 124.427434 218.099509 
L 124.465961 218.127197 
L 124.620069 218.644124 
L 124.966812 219.920207 
L 125.043867 219.864108 
L 125.236502 219.723641 
L 125.352083 219.7277 
L 125.852934 220.438439 
L 125.968516 220.864766 
L 126.04557 220.791417 
L 126.122624 220.818814 
L 126.276732 221.366763 
L 127.0858 225.198346 
L 127.124327 225.222119 
L 127.162854 225.157322 
L 127.432543 224.689536 
L 127.548124 224.750564 
L 127.702232 223.435342 
L 128.357192 216.880686 
L 128.434246 216.769501 
L 128.472773 216.79284 
L 128.588354 217.120884 
L 128.703936 217.469948 
L 128.742463 217.374854 
L 128.858044 217.096966 
L 128.896571 217.123784 
L 129.012152 217.525178 
L 129.513003 219.736108 
L 129.667112 219.776552 
L 129.936801 217.940343 
L 130.013855 218.013403 
L 130.360598 219.052332 
L 130.707342 221.239053 
L 130.784396 221.108299 
L 131.24672 219.689141 
L 131.285247 219.743646 
L 131.439356 220.318847 
L 131.631991 221.320956 
L 131.670518 221.259492 
L 132.017261 219.919337 
L 132.055788 219.968044 
L 132.171369 220.302467 
L 132.209896 220.245062 
L 132.864856 216.460882 
L 133.173072 216.208071 
L 133.288654 216.470739 
L 133.481289 217.24497 
L 133.519816 217.192785 
L 133.59687 216.869959 
L 133.750978 216.328968 
L 133.866559 216.640777 
L 134.136249 218.564976 
L 134.906789 224.400341 
L 135.060898 224.853486 
L 135.137952 224.774048 
L 135.407641 223.584361 
L 135.754384 221.606962 
L 136.139655 220.159971 
L 136.255236 219.992977 
L 136.563452 218.358118 
L 136.679033 218.309122 
L 136.71756 218.347391 
L 136.833142 218.566426 
L 136.871669 218.45843 
L 136.98725 218.314195 
L 137.102831 218.636151 
L 137.565155 220.904196 
L 137.642209 220.732273 
L 137.796318 220.368568 
L 137.834845 220.384079 
L 137.988953 220.792866 
L 138.335696 222.741129 
L 138.528331 223.683079 
L 138.566858 223.60596 
L 138.798021 222.610085 
L 139.029183 221.959649 
L 139.45298 221.278337 
L 139.72267 219.931949 
L 140.069413 218.712835 
L 140.223521 218.378992 
L 140.262048 218.406245 
L 140.300575 218.475246 
L 140.339102 218.397257 
L 140.454684 218.137199 
L 140.493211 218.170685 
L 140.647319 218.768645 
L 141.071116 221.929063 
L 141.340806 223.868193 
L 141.41786 223.843549 
L 141.533441 223.998512 
L 141.764603 224.781441 
L 141.841657 224.591543 
L 142.072819 224.080559 
L 142.1884 224.242479 
L 142.45809 225.173412 
L 142.804833 226.554736 
L 142.881887 226.484286 
L 143.074522 225.910099 
L 143.344212 224.300318 
L 144.191807 218.683843 
L 144.268861 218.576283 
L 144.307388 218.609624 
L 144.461496 219.160617 
L 144.885293 220.606593 
L 144.962348 220.54484 
L 145.077929 220.128225 
L 145.309091 219.067987 
L 145.463199 218.987679 
L 145.501726 219.008554 
L 145.771415 217.224966 
L 145.964051 216.516546 
L 146.041105 216.603957 
L 146.464902 218.090957 
L 146.811646 219.442419 
L 147.312497 220.895353 
L 147.351024 220.874189 
L 147.851876 219.300648 
L 147.890403 219.332249 
L 148.083038 219.36559 
L 148.237146 219.374723 
L 148.391254 219.805254 
L 149.277376 224.139413 
L 149.816755 226.991066 
L 150.124971 226.9038 
L 150.510242 225.295759 
L 150.856985 222.596024 
L 150.934039 222.48136 
L 150.972566 222.501365 
L 151.126674 222.922908 
L 151.627526 224.718093 
L 151.70458 224.614157 
L 151.974269 223.709027 
L 152.74481 219.573463 
L 152.937445 219.088572 
L 153.091554 218.7153 
L 153.130081 218.738203 
L 153.284189 219.2373 
L 153.553878 220.644282 
L 153.630932 220.568033 
L 153.746513 220.537302 
L 153.900621 221.011901 
L 154.208838 222.392645 
L 154.247365 222.234204 
L 154.748216 219.1496 
L 154.863797 219.355008 
L 155.017906 219.549109 
L 155.133487 219.751329 
L 155.826974 221.869629 
L 155.865501 221.825561 
L 156.019609 221.191506 
L 156.212244 220.682262 
L 156.327825 220.88941 
L 156.674568 222.42874 
L 156.867204 223.071492 
L 156.905731 222.98814 
L 157.17542 222.309293 
L 157.483636 222.209415 
L 157.83038 220.19911 
L 157.907434 220.319137 
L 158.100069 221.170052 
L 158.562394 223.69482 
L 158.600921 223.647129 
L 158.755029 223.531016 
L 159.024718 223.676121 
L 159.178826 223.633647 
L 159.332934 223.436212 
L 159.371461 223.467813 
L 159.795259 224.023735 
L 159.987894 223.93183 
L 160.103475 223.903708 
L 160.450219 223.451433 
L 160.527273 223.564936 
L 160.758435 224.376277 
L 160.835489 224.586324 
L 160.912543 224.555448 
L 161.105178 224.506596 
L 161.413395 223.853842 
L 161.644557 223.109472 
L 161.9913 221.144539 
L 162.106881 221.344294 
L 162.26099 221.624357 
L 162.299517 221.547238 
L 162.723314 220.166059 
L 162.838895 220.322036 
L 163.070058 221.346613 
L 163.570909 223.617847 
L 163.763544 224.079834 
L 163.917652 224.262194 
L 164.225869 225.073535 
L 164.803774 220.899847 
L 164.919356 221.169617 
L 165.227572 222.855502 
L 165.497261 223.998222 
L 165.728423 224.182176 
L 165.998113 223.93125 
L 166.152221 224.264658 
L 166.42191 224.812027 
L 166.653072 225.169933 
L 166.6916 225.137462 
L 167.192451 224.412952 
L 167.308032 224.415707 
L 167.46214 224.739402 
L 167.962992 225.953007 
L 168.194154 226.412241 
L 168.579425 227.48422 
L 168.617952 227.371731 
L 168.77206 226.265541 
L 169.041749 224.091141 
L 169.195857 224.011413 
L 169.42702 224.204645 
L 169.658182 224.862618 
L 170.351669 227.585547 
L 170.428723 227.494802 
L 170.736939 226.915832 
L 170.891047 227.030785 
L 171.122209 227.408406 
L 171.160736 227.315052 
L 171.815696 223.339524 
L 172.008331 223.123968 
L 172.123913 223.288353 
L 172.355075 224.155068 
L 172.586237 225.095134 
L 172.624764 225.065272 
L 172.740345 225.100208 
L 172.894453 225.207623 
L 172.971507 224.901323 
L 173.164143 224.263644 
L 173.279724 224.410778 
L 173.395305 224.71099 
L 173.433832 224.677214 
L 173.703521 224.221025 
L 173.857629 224.536313 
L 174.2429 226.156096 
L 174.589643 227.487409 
L 174.62817 227.446095 
L 174.820806 227.31998 
L 175.013441 227.564093 
L 175.6684 228.69884 
L 175.976617 228.459076 
L 176.400414 225.263143 
L 176.554522 225.155872 
L 176.862739 224.990473 
L 177.170955 224.091866 
L 177.440644 223.522753 
L 177.556226 223.663364 
L 177.787388 224.483693 
L 178.057077 225.303297 
L 178.365293 226.179435 
L 178.712037 227.244601 
L 178.750564 227.233439 
L 178.981726 227.076882 
L 179.251415 225.49131 
L 179.32847 225.058169 
L 179.983429 219.729585 
L 180.09901 219.81888 
L 180.291646 220.623408 
L 180.75397 222.756204 
L 181.023659 222.880435 
L 181.177768 223.09744 
L 181.254822 222.480636 
L 181.485984 220.051541 
L 181.563038 219.970073 
L 181.601565 220.020084 
L 181.871254 220.903906 
L 182.217998 221.950662 
L 182.526214 223.525797 
L 182.950012 225.443328 
L 183.10412 225.650621 
L 183.335282 225.975911 
L 183.643498 225.568718 
L 183.682025 225.602929 
L 183.874661 226.002729 
L 184.105823 226.443697 
L 184.259931 226.355271 
L 184.52962 224.798401 
L 184.760783 223.940963 
L 184.876364 224.087227 
L 185.068999 224.617346 
L 185.107526 224.518773 
L 185.338688 223.237182 
L 185.646904 220.740681 
L 185.685432 220.759815 
L 185.801013 220.945799 
L 185.83954 220.877088 
L 185.916594 220.68864 
L 186.263337 219.300793 
L 186.378918 218.997827 
L 186.764189 216.389561 
L 186.87977 216.706009 
L 187.149459 218.579327 
L 187.650311 221.962114 
L 187.842946 222.435553 
L 188.112635 222.784182 
L 188.266743 222.541954 
L 188.30527 222.563988 
L 188.613487 222.903774 
L 188.806122 222.44454 
L 189.229919 223.023076 
L 189.306974 222.896236 
L 189.422555 222.940014 
L 189.576663 222.990895 
L 189.692244 223.083524 
L 189.884879 223.668728 
L 190.193096 224.663443 
L 190.501312 223.939658 
L 190.963636 220.846212 
L 191.079217 220.731403 
L 191.117745 220.772862 
L 191.348907 221.4333 
L 191.618596 222.145488 
L 192.003867 222.424971 
L 192.389137 220.283477 
L 192.427664 220.292754 
L 192.543245 220.536867 
L 192.774407 221.450115 
L 192.889988 221.395175 
L 193.082624 221.717276 
L 193.121151 221.659002 
L 193.583475 220.079518 
L 193.699056 219.953258 
L 194.084327 218.328836 
L 194.276962 217.68217 
L 194.739287 217.801182 
L 194.931922 218.702398 
L 195.625409 222.522384 
L 195.779517 222.126933 
L 196.12626 219.409658 
L 196.704166 213.609373 
L 196.78122 213.527471 
L 196.819747 213.574148 
L 196.973855 213.982935 
L 197.012382 213.904657 
L 197.16649 213.695625 
L 197.282071 213.978297 
L 197.937031 215.847411 
L 198.20672 216.291278 
L 198.591991 218.107917 
L 198.669045 218.064429 
L 198.86168 217.997748 
L 199.439586 213.24103 
L 199.51664 213.38628 
L 199.709275 214.427093 
L 199.90191 215.164214 
L 200.017491 215.381075 
L 200.210127 216.361439 
L 200.903613 221.346758 
L 201.019194 221.284426 
L 201.134776 221.492008 
L 201.404465 222.694596 
L 202.097952 225.895893 
L 202.483222 226.983238 
L 202.63733 226.915542 
L 202.752911 226.121451 
L 203.099655 223.821805 
L 203.523452 222.797953 
L 203.870196 221.211366 
L 204.024304 221.192086 
L 204.139885 221.234704 
L 204.293993 221.656683 
L 204.563682 222.360899 
L 204.679264 222.320745 
L 204.948953 221.951097 
L 204.98748 222.003282 
L 205.180115 222.617768 
L 205.334223 223.236312 
L 205.37275 223.19007 
L 206.066237 219.938182 
L 206.143291 219.862078 
L 206.297399 219.472716 
L 206.335926 219.497939 
L 206.490035 219.985729 
L 206.605616 220.469895 
L 206.644143 220.322471 
L 207.144994 217.739864 
L 207.222048 217.794369 
L 207.260575 217.864239 
L 207.299102 217.815533 
L 207.568792 216.35883 
L 207.684373 216.641647 
L 208.069643 218.919983 
L 208.531968 221.951676 
L 208.878711 223.927336 
L 208.955765 223.804265 
L 209.341036 222.385687 
L 209.379563 222.403807 
L 209.533671 222.651833 
L 209.572198 222.529342 
L 209.918941 221.247896 
L 210.034522 221.389812 
L 210.111577 221.601163 
L 210.150104 221.567822 
L 210.304212 220.880132 
L 210.612428 219.391103 
L 210.650955 219.404584 
L 211.036226 220.043858 
L 211.190334 220.738651 
L 211.228861 220.68922 
L 211.421496 219.233242 
L 211.845293 217.244825 
L 212.346145 217.237722 
L 212.53878 218.016592 
L 212.769942 219.07741 
L 212.80847 219.04001 
L 212.962578 219.048852 
L 213.309321 219.114809 
L 213.501956 219.870486 
L 214.002808 222.055033 
L 214.156916 222.174045 
L 214.311024 222.321614 
L 214.503659 222.705468 
L 214.542186 222.632844 
L 214.811876 222.117366 
L 214.927457 222.296681 
L 215.197146 223.341843 
L 215.2742 223.600162 
L 215.312727 223.557978 
L 215.54389 222.524558 
L 215.582417 222.541809 
L 215.736525 222.943203 
L 216.083268 223.927771 
L 216.507066 221.37662 
L 216.622647 221.574346 
L 216.815282 222.297116 
L 216.853809 222.238987 
L 217.007917 221.005668 
L 217.431715 217.664195 
L 217.739931 216.146463 
L 217.855512 216.438993 
L 218.125201 218.131401 
L 218.548999 220.618334 
L 219.126904 223.420701 
L 219.743337 225.094844 
L 219.820391 224.894944 
L 220.35977 220.690959 
L 220.783567 215.140731 
L 220.976203 214.258939 
L 221.168838 213.581976 
L 221.284419 213.234507 
L 221.592635 212.758313 
L 221.669689 212.591754 
L 221.939379 210.2708 
L 222.324649 207.961587 
L 222.478757 207.567731 
L 222.594338 207.849823 
L 222.825501 208.517798 
L 222.902555 208.481558 
L 223.249298 207.326952 
L 223.518987 206.058842 
L 223.634568 206.414284 
L 223.865731 208.153804 
L 224.366582 211.89899 
L 224.405109 211.961033 
L 224.443636 211.877536 
L 224.559217 211.651834 
L 224.597745 211.673723 
L 224.867434 212.339089 
L 224.944488 212.120924 
L 225.060069 211.857387 
L 225.098596 211.873332 
L 225.214177 212.219787 
L 225.406812 213.073311 
L 225.445339 213.039101 
L 225.522394 213.038666 
L 225.637975 213.288577 
L 225.676502 213.155504 
L 225.946191 212.415918 
L 226.061772 212.365327 
L 226.408516 212.82456 
L 226.447043 212.780347 
L 226.524097 212.732365 
L 226.562624 212.778463 
L 226.87084 213.602705 
L 226.909367 213.513265 
L 227.063475 213.122453 
L 227.102002 213.15159 
L 227.179056 213.213198 
L 227.371692 212.927482 
L 227.487273 213.216097 
L 227.756962 214.729334 
L 227.795489 214.521607 
L 228.065178 212.815428 
L 228.142232 212.929656 
L 228.450449 213.647933 
L 228.527503 213.676635 
L 228.681611 212.227035 
L 229.182463 207.383921 
L 229.259517 207.485103 
L 229.452152 208.423284 
L 229.953003 211.161579 
L 230.376801 212.887618 
L 230.415328 212.849638 
L 230.530909 212.776143 
L 230.64649 213.074036 
L 231.070288 214.553933 
L 231.147342 214.45536 
L 231.262923 213.852181 
L 231.571139 211.076052 
L 231.68672 211.127368 
L 232.071991 211.623566 
L 232.110518 211.561668 
L 232.187572 211.069964 
L 232.649896 206.217428 
L 232.842532 205.93954 
L 232.99664 205.286785 
L 233.112221 205.072389 
L 233.150748 205.095293 
L 233.189275 205.14226 
L 233.227802 205.084421 
L 233.38191 204.90525 
L 233.497491 205.174441 
L 233.844235 206.127263 
L 233.921289 205.474943 
L 234.268032 202.058381 
L 234.730357 198.451051 
L 235.0771 195.489663 
L 235.462371 194.811975 
L 235.655006 194.464071 
L 235.809114 194.767473 
L 236.11733 195.283385 
L 236.155857 195.240767 
L 236.464074 194.949687 
L 236.618182 194.93925 
L 236.733763 195.008976 
L 236.926398 195.180464 
L 237.080506 195.060002 
L 237.311669 194.587142 
L 237.388723 194.591346 
L 237.542831 194.438848 
L 237.658412 194.696297 
L 238.236318 196.487858 
L 238.428953 197.036387 
L 238.737169 198.783734 
L 239.045386 200.244496 
L 239.12244 200.079967 
L 239.546237 198.199546 
L 239.700345 197.926006 
L 240.201197 195.546923 
L 240.239724 195.555185 
L 240.432359 195.64796 
L 240.509413 195.698841 
L 240.624994 195.900335 
L 240.663521 195.868154 
L 240.779102 195.563448 
L 241.2029 193.191178 
L 241.357008 193.146965 
L 241.511116 193.052451 
L 241.780806 191.907557 
L 241.934914 191.89625 
L 242.089022 192.257925 
L 242.320184 193.289316 
L 242.358711 193.191612 
L 242.705455 190.796438 
L 242.975144 189.46759 
L 243.167779 189.154187 
L 243.398941 189.303495 
L 243.475995 189.107075 
L 243.668631 186.449813 
L 244.092428 182.099418 
L 244.708861 179.037863 
L 244.862969 177.985888 
L 245.094131 174.526563 
L 245.36382 165.482653 
L 245.479402 154.465404 
L 245.556456 63.107698 
L 245.594983 146.716712 
L 245.787618 198.052411 
L 246.01878 194.355061 
L 246.404051 188.268336 
L 247.251646 177.415906 
L 247.405754 175.432853 
L 247.71397 165.940872 
L 247.829551 157.141075 
L 247.868078 147.090564 
L 247.906605 49.677878 
L 247.945132 107.352244 
L 248.099241 195.668544 
L 248.137768 196.692541 
L 248.176295 196.130966 
L 248.600092 187.852736 
L 249.139471 178.130413 
L 249.370633 169.854212 
L 249.486214 160.707526 
L 249.524741 152.41335 
L 249.563268 51.914466 
L 249.601795 82.21676 
L 249.755903 199.465771 
L 249.79443 200.833469 
L 249.832957 200.060107 
L 250.179701 192.073246 
L 250.487917 189.844631 
L 250.757606 189.266386 
L 251.219931 188.210497 
L 251.335512 187.604999 
L 251.913418 182.517628 
L 252.221634 180.687653 
L 252.452796 180.342358 
L 252.568377 180.294521 
L 252.915121 178.067646 
L 253.107756 175.846714 
L 253.493026 167.601824 
L 253.647135 157.990251 
L 253.685662 149.666793 
L 253.724189 59.572558 
L 253.762716 91.76513 
L 253.916824 193.842628 
L 253.993878 195.871488 
L 254.032405 195.432694 
L 254.764419 186.464454 
L 255.419379 179.001768 
L 255.804649 172.388403 
L 255.958757 165.994507 
L 256.074338 150.00136 
L 256.112865 47.316335 
L 256.151392 93.555966 
L 256.305501 196.821556 
L 256.344028 197.659425 
L 256.382555 196.703993 
L 256.690771 189.06924 
L 257.499839 177.729164 
L 258.039217 165.36973 
L 258.154799 153.626085 
L 258.231853 67.886594 
L 258.385961 193.666791 
L 258.463015 196.753425 
L 258.501542 196.18895 
L 258.848285 191.869142 
L 259.040921 190.965462 
L 259.426191 190.8824 
L 259.580299 191.31496 
L 259.849988 193.020125 
L 260.273786 195.70261 
L 260.928746 199.562315 
L 261.314016 203.90807 
L 262.392773 217.106388 
L 263.240368 221.33951 
L 263.394476 221.494328 
L 263.510058 221.192231 
L 264.357652 217.751171 
L 264.434707 217.811329 
L 264.588815 218.377833 
L 264.974085 220.997115 
L 265.320829 222.856227 
L 265.706099 223.020612 
L 265.860207 223.035687 
L 266.091369 223.58726 
L 266.129896 223.456796 
L 266.361059 221.584783 
L 266.553694 220.801709 
L 266.630748 220.83389 
L 266.784856 221.274568 
L 267.016018 222.226956 
L 267.054545 222.165058 
L 268.325938 218.227364 
L 268.441519 218.212868 
L 268.595627 218.698629 
L 268.942371 220.925505 
L 269.250587 222.440627 
L 269.481749 223.458681 
L 269.520276 223.409394 
L 269.751438 222.697061 
L 270.021128 222.950161 
L 270.059655 222.845065 
L 270.483452 221.111923 
L 270.714614 220.563684 
L 270.830196 220.77866 
L 271.022831 221.296022 
L 271.138412 220.318702 
L 271.369574 218.984055 
L 271.485155 218.87519 
L 271.716318 218.453212 
L 271.831899 218.708052 
L 271.986007 219.234111 
L 272.024534 219.056825 
L 272.255696 218.247079 
L 272.371277 218.248818 
L 272.448331 218.287668 
L 272.679494 217.5346 
L 272.833602 217.159444 
L 272.949183 217.375289 
L 273.180345 218.58846 
L 273.950886 223.060331 
L 274.798481 227.000488 
L 274.914062 226.957725 
L 275.029643 226.728543 
L 275.414914 224.968439 
L 275.530495 224.984385 
L 275.72313 225.349539 
L 275.954292 225.657579 
L 275.992819 225.596116 
L 276.146928 223.724392 
L 276.416617 221.521 
L 276.724833 220.626307 
L 276.801887 220.641963 
L 276.955995 221.115257 
L 277.302739 222.255223 
L 277.649482 222.796503 
L 277.765063 223.043805 
L 277.80359 223.020612 
L 277.919171 223.044965 
L 278.111807 223.416062 
L 278.188861 223.278495 
L 278.304442 223.253562 
L 278.381496 223.301834 
L 278.420023 223.220946 
L 278.612658 222.140414 
L 278.805293 221.659147 
L 278.920875 221.842377 
L 279.190564 222.983792 
L 279.614361 224.720847 
L 280.307848 226.877272 
L 280.731646 227.909532 
L 280.847227 227.137186 
L 281.463659 220.086911 
L 281.694822 217.604906 
L 281.887457 217.093922 
L 282.080092 217.153356 
L 282.272727 217.896276 
L 282.388308 218.401751 
L 282.426835 218.327387 
L 282.696525 216.998828 
L 282.735052 217.02898 
L 282.88916 217.587946 
L 283.158849 218.652387 
L 283.235903 218.690656 
L 283.27443 218.650792 
L 283.390012 218.055442 
L 283.621174 217.284979 
L 283.698228 217.086094 
L 284.430242 212.056852 
L 284.507296 211.946972 
L 284.738458 211.42758 
L 284.776985 211.469184 
L 284.931093 212.084974 
L 285.316364 214.47174 
L 286.00985 219.091616 
L 286.356594 220.277533 
L 286.934499 222.569206 
L 287.011554 222.608345 
L 287.050081 222.560364 
L 287.204189 222.183178 
L 287.589459 220.524835 
L 288.013257 221.016684 
L 288.090311 221.19571 
L 288.167365 221.151497 
L 288.282946 221.243547 
L 288.552635 221.768012 
L 288.591162 221.861221 
L 288.629689 221.808601 
L 288.783797 221.66857 
L 288.937906 222.032274 
L 289.246122 223.058736 
L 289.284649 223.028004 
L 289.477284 222.879131 
L 289.631392 223.125997 
L 289.708446 223.258781 
L 289.746974 223.139044 
L 290.016663 222.336255 
L 290.132244 222.227825 
L 290.286352 222.179409 
L 290.324879 222.201298 
L 290.787204 220.811856 
L 290.864258 220.680377 
L 291.326582 219.076105 
L 291.519217 218.732695 
L 291.673326 218.670362 
L 291.827434 219.016236 
L 291.865961 218.914764 
L 292.058596 218.552509 
L 292.174177 218.817496 
L 292.443867 220.295653 
L 292.675029 221.261522 
L 292.944718 221.286745 
L 293.17588 219.841349 
L 293.484097 217.981657 
L 293.83084 218.073417 
L 293.907894 217.86337 
L 294.023475 217.571565 
L 294.062002 217.595918 
L 294.21611 218.149376 
L 294.601381 220.937826 
L 294.794016 221.561009 
L 295.025178 222.257397 
L 295.063705 222.215649 
L 295.217814 222.075327 
L 295.256341 222.10345 
L 295.834246 223.105703 
L 295.9113 222.902614 
L 296.335098 221.14309 
L 296.450679 221.304285 
L 296.56626 221.529408 
L 296.604787 221.513752 
L 296.720368 221.568402 
L 296.874476 221.831795 
L 296.913003 221.722205 
L 297.144166 221.282251 
L 297.529436 220.585284 
L 297.567963 220.63341 
L 297.760598 221.28631 
L 298.26145 223.230079 
L 298.723774 225.21719 
L 298.839356 225.604668 
L 298.877883 225.568139 
L 298.954937 225.21777 
L 299.30168 222.913341 
L 299.417261 222.848399 
L 299.571369 223.135275 
L 299.764005 223.628139 
L 299.802532 223.595378 
L 299.918113 223.595523 
L 300.072221 223.614803 
L 300.187802 223.370835 
L 300.34191 222.185352 
L 300.573072 221.035529 
L 300.688654 221.111923 
L 300.881289 221.785117 
L 301.112451 222.931026 
L 301.189505 222.75461 
L 301.459194 221.864266 
L 301.536249 221.898476 
L 302.306789 218.75009 
L 302.345316 218.776908 
L 302.499425 219.189754 
L 302.653533 219.737992 
L 302.69206 219.71103 
L 302.846168 219.550124 
L 302.884695 219.580856 
L 303.192911 220.233611 
L 303.231438 220.135473 
L 303.770817 217.915555 
L 303.886398 218.163727 
L 304.310196 219.396756 
L 304.38725 219.116984 
L 304.695466 215.934532 
L 304.926628 213.922777 
L 305.003682 213.861024 
L 305.042209 213.915964 
L 305.196318 214.554803 
L 305.620115 217.685794 
L 305.735696 217.269903 
L 305.851277 217.106388 
L 305.889804 217.154225 
L 305.966858 217.163793 
L 306.313602 216.550177 
L 306.352129 216.589316 
L 306.506237 217.1377 
L 306.85298 218.556278 
L 306.930035 218.622815 
L 306.968562 218.552944 
L 307.161197 218.132125 
L 307.199724 218.150245 
L 307.315305 218.421756 
L 307.584994 219.882952 
L 307.931738 221.564923 
L 307.970265 221.55782 
L 308.085846 221.548108 
L 308.239954 221.968782 
L 308.971968 224.524282 
L 309.010495 224.609953 
L 309.049022 224.525876 
L 310.089252 220.004719 
L 310.127779 220.040379 
L 310.281887 220.516283 
L 310.590104 222.017198 
L 310.628631 221.765693 
L 310.89832 219.967029 
L 310.975374 219.943256 
L 311.013901 219.994427 
L 311.206536 220.684146 
L 311.977077 224.175363 
L 312.015604 224.169999 
L 312.32382 223.465349 
L 312.400875 223.317345 
L 312.747618 222.26479 
L 312.824672 222.35423 
L 312.863199 222.266964 
L 313.24847 220.14562 
L 313.63374 220.728214 
L 313.941956 222.443526 
L 314.712497 226.796095 
L 314.982186 227.634543 
L 315.020713 227.572356 
L 315.637146 225.133983 
L 315.829781 224.955248 
L 316.137998 224.012138 
L 316.330633 224.02098 
L 316.638849 223.467088 
L 316.908539 222.094462 
L 317.447917 219.322392 
L 317.563498 219.100023 
L 317.756133 218.575993 
L 317.871715 218.82373 
L 318.102877 220.118947 
L 318.526674 222.773455 
L 318.565201 222.766932 
L 318.71931 222.808825 
L 318.834891 222.910152 
L 318.873418 222.879131 
L 318.988999 222.886958 
L 319.143107 223.253272 
L 319.374269 223.781072 
L 319.566904 223.727292 
L 319.798067 223.595958 
L 319.875121 223.493036 
L 320.067756 222.46324 
L 320.375972 220.881582 
L 320.530081 220.59978 
L 320.915351 219.335148 
L 320.992405 219.436765 
L 321.223567 219.786989 
L 321.339148 219.862948 
L 321.531784 220.529764 
L 321.994108 223.4049 
L 322.263797 224.444119 
L 322.49496 224.833771 
L 322.533487 224.805069 
L 322.687595 224.834496 
L 322.88023 225.277349 
L 323.265501 226.205963 
L 323.496663 226.466456 
L 324.113096 227.676002 
L 324.19015 227.565977 
L 324.768055 224.389324 
L 325.037745 223.716564 
L 325.153326 223.815572 
L 325.384488 224.465138 
L 325.577123 225.161671 
L 325.654177 225.082523 
L 325.885339 224.20305 
L 326.347664 222.015894 
L 326.578826 220.822293 
L 326.887043 220.862737 
L 327.31084 219.759012 
L 327.426421 219.881213 
L 327.619056 219.345151 
L 327.657583 219.362256 
L 327.773165 219.663918 
L 328.235489 221.190057 
L 328.582232 222.835353 
L 328.697814 222.557754 
L 328.813395 222.407866 
L 328.851922 222.429175 
L 329.275719 222.957989 
L 329.314246 222.922329 
L 329.468354 222.84405 
L 329.622463 223.227324 
L 330.04626 225.276914 
L 330.238895 226.119132 
L 330.277422 225.892849 
L 330.70122 222.928852 
L 330.970909 221.850639 
L 331.510288 217.522279 
L 331.587342 217.562433 
L 331.74145 218.15068 
L 332.165247 220.108945 
L 332.319356 220.32537 
L 332.550518 221.50549 
L 332.897261 223.275741 
L 333.012842 223.13455 
L 333.244005 222.313352 
L 333.513694 221.175271 
L 333.744856 221.127289 
L 334.207181 222.331037 
L 334.47687 223.29647 
L 334.515397 223.287338 
L 334.785086 222.388876 
L 334.823613 222.40888 
L 334.977722 222.782297 
L 335.13183 223.300964 
L 335.170357 223.255882 
L 335.401519 222.907253 
L 335.5171 222.836222 
L 335.671208 222.823321 
L 335.825316 223.221526 
L 336.133533 224.53124 
L 336.17206 224.396137 
L 336.403222 223.595378 
L 336.634384 223.355324 
L 336.865547 223.016263 
L 337.058182 222.788965 
L 337.096709 222.816218 
L 337.250817 223.198043 
L 337.790196 224.619955 
L 337.86725 224.448178 
L 338.25252 222.167377 
L 338.368101 222.297841 
L 338.599264 223.229789 
L 339.254223 226.574306 
L 339.331277 226.533572 
L 339.56244 226.303956 
L 340.101818 224.596617 
L 340.294453 224.554433 
L 340.448562 224.554288 
L 340.641197 224.956842 
L 340.756778 224.847832 
L 340.872359 224.885522 
L 341.064994 225.377806 
L 341.257629 225.964169 
L 341.296157 225.935902 
L 341.527319 225.674684 
L 341.797008 224.962496 
L 341.912589 225.058749 
L 342.182278 225.63395 
L 342.220806 225.458694 
L 342.644603 222.766932 
L 342.760184 222.906963 
L 342.875765 223.118749 
L 342.914292 223.023946 
L 343.222509 221.93979 
L 343.492198 222.120265 
L 343.761887 221.572896 
L 344.031577 220.246512 
L 344.108631 220.303771 
L 344.262739 220.852735 
L 344.725063 222.730836 
L 344.802117 222.620522 
L 344.994753 221.475193 
L 345.187388 220.633555 
L 345.264442 220.703861 
L 345.457077 221.471714 
L 345.765293 222.616028 
L 345.957929 223.187316 
L 346.034983 223.125273 
L 346.150564 223.295456 
L 346.45878 224.139123 
L 346.497307 224.117959 
L 346.998159 223.553195 
L 347.383429 222.638207 
L 347.49901 222.664445 
L 347.537537 222.734605 
L 347.576064 222.704889 
L 347.730173 221.937905 
L 348.076916 220.455109 
L 348.15397 220.383209 
L 348.385132 219.89136 
L 348.423659 219.921512 
L 348.577768 220.389877 
L 348.924511 222.053438 
L 349.001565 221.952981 
L 349.309781 221.266161 
L 349.810633 221.497517 
L 349.964741 221.967187 
L 350.003268 221.8115 
L 350.427066 219.838595 
L 350.696755 219.814821 
L 350.850863 220.248252 
L 351.197606 222.178104 
L 351.274661 222.470053 
L 351.313188 222.302915 
L 351.659931 220.513093 
L 351.698458 220.519762 
L 351.814039 220.767353 
L 352.083728 222.146793 
L 352.623107 224.957567 
L 352.700161 224.936403 
L 353.008377 223.968215 
L 353.085432 224.0233 
L 353.278067 224.547475 
L 353.933026 227.146173 
L 353.971554 227.022812 
L 354.66504 222.333501 
L 354.742094 222.253483 
L 354.780621 222.278706 
L 354.857675 222.376844 
L 354.896203 222.33727 
L 355.165892 221.913262 
L 355.204419 221.959069 
L 355.242946 222.01314 
L 355.281473 221.956025 
L 355.936433 219.906001 
L 356.013487 219.970073 
L 356.244649 220.553247 
L 356.283176 220.501062 
L 356.552865 220.142141 
L 356.745501 219.993122 
L 356.938136 219.009278 
L 356.976663 219.018701 
L 357.130771 219.227153 
L 357.477514 217.738414 
L 357.708677 217.004627 
L 357.939839 217.071598 
L 358.05542 217.340934 
L 358.286582 218.767775 
L 358.787434 221.906884 
L 358.864488 221.795265 
L 359.134177 221.051765 
L 359.172704 221.072349 
L 359.326812 221.457943 
L 359.635029 222.249279 
L 360.251461 223.869062 
L 360.521151 225.008593 
L 360.559678 224.934084 
L 360.675259 224.850876 
L 360.713786 224.889871 
L 360.906421 225.397666 
L 360.944948 225.512329 
L 360.983475 225.442023 
L 361.17611 225.127895 
L 361.484327 225.014681 
L 361.715489 224.376277 
L 362.331922 220.304496 
L 362.524557 220.046177 
L 362.794246 219.973552 
L 362.948354 220.359436 
L 363.179517 220.838819 
L 363.295098 220.948698 
L 363.333625 220.896658 
L 363.564787 220.383354 
L 363.603314 220.414666 
L 363.950058 221.190202 
L 364.296801 223.053952 
L 364.605017 224.590093 
L 364.643544 224.563856 
L 365.452612 222.874347 
L 365.568193 222.867389 
L 365.722301 223.043805 
L 365.760829 222.968571 
L 365.991991 222.510207 
L 366.107572 222.671983 
L 366.146099 222.772295 
L 366.184626 222.690248 
L 366.338734 222.412649 
L 366.454315 222.674012 
L 366.878113 224.509351 
L 366.993694 224.418316 
L 367.109275 224.242624 
L 367.340437 223.730626 
L 367.456018 223.911681 
L 368.380667 226.150733 
L 368.496249 225.931263 
L 369.65206 222.576309 
L 369.883222 221.563474 
L 369.998803 221.689879 
L 370.268493 221.9927 
L 370.345547 221.897172 
L 370.461128 221.974435 
L 370.653763 222.687204 
L 370.923452 223.5329 
L 371.116087 224.073311 
L 371.693993 226.687085 
L 371.771047 226.473414 
L 372.233372 223.329666 
L 372.618642 223.27835 
L 372.849804 224.104332 
L 373.158021 225.030917 
L 373.581818 226.398904 
L 373.581818 226.398904 
" style="fill:none;stroke:#ff0000;stroke-linecap:square;stroke-width:1.5;"/>
   </g>
   <g id="line2d_20">
    <path clip-path="url(#p8265e2a59b)" d="M 258.00069 201.264 
L 296.450679 201.264 
L 296.450679 201.264 
" style="fill:none;stroke:#000000;stroke-linecap:square;stroke-width:1.5;"/>
   </g>
   <g id="line2d_21">
    <path clip-path="url(#p8265e2a59b)" d="M 258.00069 179.52 
L 258.00069 178.0704 
L 258.00069 176.6208 
L 258.00069 175.1712 
L 258.00069 173.7216 
L 258.00069 172.272 
L 258.00069 170.8224 
L 258.00069 169.3728 
L 258.00069 167.9232 
L 258.00069 166.4736 
L 258.00069 165.024 
L 258.00069 163.5744 
L 258.00069 162.1248 
L 258.00069 160.6752 
L 258.00069 159.2256 
L 258.00069 157.776 
L 258.00069 156.3264 
L 258.00069 154.8768 
L 258.00069 153.4272 
L 258.00069 151.9776 
" style="fill:none;stroke:#000000;stroke-linecap:square;stroke-width:1.5;"/>
   </g>
   <g id="patch_3">
    <path d="M 54 252 
L 54 34.56 
" style="fill:none;stroke:#000000;stroke-linecap:square;stroke-linejoin:miter;stroke-width:0.8;"/>
   </g>
   <g id="patch_4">
    <path d="M 54 252 
L 388.8 252 
" style="fill:none;stroke:#000000;stroke-linecap:square;stroke-linejoin:miter;stroke-width:0.8;"/>
   </g>
   <g id="text_20">
    <!-- 500 ms -->
    <g transform="translate(258.00069 199.8144)scale(0.12 -0.12)">
     <use xlink:href="#DejaVuSans-35"/>
     <use x="63.623047" xlink:href="#DejaVuSans-30"/>
     <use x="127.246094" xlink:href="#DejaVuSans-30"/>
     <use x="190.869141" xlink:href="#DejaVuSans-20"/>
     <use x="222.65625" xlink:href="#DejaVuSans-6d"/>
     <use x="320.068359" xlink:href="#DejaVuSans-73"/>
    </g>
   </g>
   <g id="text_21">
    <!-- 20 mV -->
    <g transform="translate(261.853395 150.528)scale(0.12 -0.12)">
     <use xlink:href="#DejaVuSans-32"/>
     <use x="63.623047" xlink:href="#DejaVuSans-30"/>
     <use x="127.246094" xlink:href="#DejaVuSans-20"/>
     <use x="159.033203" xlink:href="#DejaVuSans-6d"/>
     <use x="256.445312" xlink:href="#DejaVuSans-56"/>
    </g>
   </g>
  </g>
 </g>
 <defs>
  <clipPath id="p8265e2a59b">
   <rect height="217.44" width="334.8" x="54" y="34.56"/>
  </clipPath>
 </defs>
</svg>
