<?xml version="1.0" encoding="utf-8" standalone="no"?>
<!DOCTYPE svg PUBLIC "-//W3C//DTD SVG 1.1//EN"
  "http://www.w3.org/Graphics/SVG/1.1/DTD/svg11.dtd">
<svg height="288pt" version="1.1" viewBox="0 0 432 288" width="432pt" xmlns="http://www.w3.org/2000/svg" xmlns:xlink="http://www.w3.org/1999/xlink">
 <metadata>
  <rdf:RDF xmlns:cc="http://creativecommons.org/ns#" xmlns:dc="http://purl.org/dc/elements/1.1/" xmlns:rdf="http://www.w3.org/1999/02/22-rdf-syntax-ns#">
   <cc:Work>
    <dc:type rdf:resource="http://purl.org/dc/dcmitype/StillImage"/>
    <dc:date>2021-07-05T15:15:19.095871</dc:date>
    <dc:format>image/svg+xml</dc:format>
    <dc:creator>
     <cc:Agent>
      <dc:title>Matplotlib v3.4.1, https://matplotlib.org/</dc:title>
     </cc:Agent>
    </dc:creator>
   </cc:Work>
  </rdf:RDF>
 </metadata>
 <defs>
  <style type="text/css">*{stroke-linecap:butt;stroke-linejoin:round;}</style>
 </defs>
 <g id="figure_1">
  <g id="patch_1">
   <path d="M 0 288 
L 432 288 
L 432 0 
L 0 0 
z
" style="fill:none;"/>
  </g>
  <g id="axes_1">
   <g id="patch_2">
    <path d="M 54 252 
L 388.8 252 
L 388.8 34.56 
L 54 34.56 
z
" style="fill:#ffffff;"/>
   </g>
   <g id="matplotlib.axis_1">
    <g id="xtick_1">
     <g id="line2d_1">
      <defs>
       <path d="M 0 0 
L 0 3.5 
" id="m805c35d2e6" style="stroke:#000000;stroke-width:0.8;"/>
      </defs>
      <g>
       <use style="stroke:#000000;stroke-width:0.8;" x="65.365478" xlink:href="#m805c35d2e6" y="252"/>
      </g>
     </g>
     <g id="text_1">
      <!-- 0 -->
      <g transform="translate(61.547978 268.118125)scale(0.12 -0.12)">
       <defs>
        <path d="M 2034 4250 
Q 1547 4250 1301 3770 
Q 1056 3291 1056 2328 
Q 1056 1369 1301 889 
Q 1547 409 2034 409 
Q 2525 409 2770 889 
Q 3016 1369 3016 2328 
Q 3016 3291 2770 3770 
Q 2525 4250 2034 4250 
z
M 2034 4750 
Q 2819 4750 3233 4129 
Q 3647 3509 3647 2328 
Q 3647 1150 3233 529 
Q 2819 -91 2034 -91 
Q 1250 -91 836 529 
Q 422 1150 422 2328 
Q 422 3509 836 4129 
Q 1250 4750 2034 4750 
z
" id="DejaVuSans-30" transform="scale(0.015625)"/>
       </defs>
       <use xlink:href="#DejaVuSans-30"/>
      </g>
     </g>
    </g>
    <g id="xtick_2">
     <g id="line2d_2">
      <g>
       <use style="stroke:#000000;stroke-width:0.8;" x="103.89252" xlink:href="#m805c35d2e6" y="252"/>
      </g>
     </g>
     <g id="text_2">
      <!-- 500 -->
      <g transform="translate(92.44002 268.118125)scale(0.12 -0.12)">
       <defs>
        <path d="M 691 4666 
L 3169 4666 
L 3169 4134 
L 1269 4134 
L 1269 2991 
Q 1406 3038 1543 3061 
Q 1681 3084 1819 3084 
Q 2600 3084 3056 2656 
Q 3513 2228 3513 1497 
Q 3513 744 3044 326 
Q 2575 -91 1722 -91 
Q 1428 -91 1123 -41 
Q 819 9 494 109 
L 494 744 
Q 775 591 1075 516 
Q 1375 441 1709 441 
Q 2250 441 2565 725 
Q 2881 1009 2881 1497 
Q 2881 1984 2565 2268 
Q 2250 2553 1709 2553 
Q 1456 2553 1204 2497 
Q 953 2441 691 2322 
L 691 4666 
z
" id="DejaVuSans-35" transform="scale(0.015625)"/>
       </defs>
       <use xlink:href="#DejaVuSans-35"/>
       <use x="63.623047" xlink:href="#DejaVuSans-30"/>
       <use x="127.246094" xlink:href="#DejaVuSans-30"/>
      </g>
     </g>
    </g>
    <g id="xtick_3">
     <g id="line2d_3">
      <g>
       <use style="stroke:#000000;stroke-width:0.8;" x="142.419563" xlink:href="#m805c35d2e6" y="252"/>
      </g>
     </g>
     <g id="text_3">
      <!-- 1000 -->
      <g transform="translate(127.149563 268.118125)scale(0.12 -0.12)">
       <defs>
        <path d="M 794 531 
L 1825 531 
L 1825 4091 
L 703 3866 
L 703 4441 
L 1819 4666 
L 2450 4666 
L 2450 531 
L 3481 531 
L 3481 0 
L 794 0 
L 794 531 
z
" id="DejaVuSans-31" transform="scale(0.015625)"/>
       </defs>
       <use xlink:href="#DejaVuSans-31"/>
       <use x="63.623047" xlink:href="#DejaVuSans-30"/>
       <use x="127.246094" xlink:href="#DejaVuSans-30"/>
       <use x="190.869141" xlink:href="#DejaVuSans-30"/>
      </g>
     </g>
    </g>
    <g id="xtick_4">
     <g id="line2d_4">
      <g>
       <use style="stroke:#000000;stroke-width:0.8;" x="180.946605" xlink:href="#m805c35d2e6" y="252"/>
      </g>
     </g>
     <g id="text_4">
      <!-- 1500 -->
      <g transform="translate(165.676605 268.118125)scale(0.12 -0.12)">
       <use xlink:href="#DejaVuSans-31"/>
       <use x="63.623047" xlink:href="#DejaVuSans-35"/>
       <use x="127.246094" xlink:href="#DejaVuSans-30"/>
       <use x="190.869141" xlink:href="#DejaVuSans-30"/>
      </g>
     </g>
    </g>
    <g id="xtick_5">
     <g id="line2d_5">
      <g>
       <use style="stroke:#000000;stroke-width:0.8;" x="219.473648" xlink:href="#m805c35d2e6" y="252"/>
      </g>
     </g>
     <g id="text_5">
      <!-- 2000 -->
      <g transform="translate(204.203648 268.118125)scale(0.12 -0.12)">
       <defs>
        <path d="M 1228 531 
L 3431 531 
L 3431 0 
L 469 0 
L 469 531 
Q 828 903 1448 1529 
Q 2069 2156 2228 2338 
Q 2531 2678 2651 2914 
Q 2772 3150 2772 3378 
Q 2772 3750 2511 3984 
Q 2250 4219 1831 4219 
Q 1534 4219 1204 4116 
Q 875 4013 500 3803 
L 500 4441 
Q 881 4594 1212 4672 
Q 1544 4750 1819 4750 
Q 2544 4750 2975 4387 
Q 3406 4025 3406 3419 
Q 3406 3131 3298 2873 
Q 3191 2616 2906 2266 
Q 2828 2175 2409 1742 
Q 1991 1309 1228 531 
z
" id="DejaVuSans-32" transform="scale(0.015625)"/>
       </defs>
       <use xlink:href="#DejaVuSans-32"/>
       <use x="63.623047" xlink:href="#DejaVuSans-30"/>
       <use x="127.246094" xlink:href="#DejaVuSans-30"/>
       <use x="190.869141" xlink:href="#DejaVuSans-30"/>
      </g>
     </g>
    </g>
    <g id="xtick_6">
     <g id="line2d_6">
      <g>
       <use style="stroke:#000000;stroke-width:0.8;" x="258.00069" xlink:href="#m805c35d2e6" y="252"/>
      </g>
     </g>
     <g id="text_6">
      <!-- 2500 -->
      <g transform="translate(242.73069 268.118125)scale(0.12 -0.12)">
       <use xlink:href="#DejaVuSans-32"/>
       <use x="63.623047" xlink:href="#DejaVuSans-35"/>
       <use x="127.246094" xlink:href="#DejaVuSans-30"/>
       <use x="190.869141" xlink:href="#DejaVuSans-30"/>
      </g>
     </g>
    </g>
    <g id="xtick_7">
     <g id="line2d_7">
      <g>
       <use style="stroke:#000000;stroke-width:0.8;" x="296.527733" xlink:href="#m805c35d2e6" y="252"/>
      </g>
     </g>
     <g id="text_7">
      <!-- 3000 -->
      <g transform="translate(281.257733 268.118125)scale(0.12 -0.12)">
       <defs>
        <path d="M 2597 2516 
Q 3050 2419 3304 2112 
Q 3559 1806 3559 1356 
Q 3559 666 3084 287 
Q 2609 -91 1734 -91 
Q 1441 -91 1130 -33 
Q 819 25 488 141 
L 488 750 
Q 750 597 1062 519 
Q 1375 441 1716 441 
Q 2309 441 2620 675 
Q 2931 909 2931 1356 
Q 2931 1769 2642 2001 
Q 2353 2234 1838 2234 
L 1294 2234 
L 1294 2753 
L 1863 2753 
Q 2328 2753 2575 2939 
Q 2822 3125 2822 3475 
Q 2822 3834 2567 4026 
Q 2313 4219 1838 4219 
Q 1578 4219 1281 4162 
Q 984 4106 628 3988 
L 628 4550 
Q 988 4650 1302 4700 
Q 1616 4750 1894 4750 
Q 2613 4750 3031 4423 
Q 3450 4097 3450 3541 
Q 3450 3153 3228 2886 
Q 3006 2619 2597 2516 
z
" id="DejaVuSans-33" transform="scale(0.015625)"/>
       </defs>
       <use xlink:href="#DejaVuSans-33"/>
       <use x="63.623047" xlink:href="#DejaVuSans-30"/>
       <use x="127.246094" xlink:href="#DejaVuSans-30"/>
       <use x="190.869141" xlink:href="#DejaVuSans-30"/>
      </g>
     </g>
    </g>
    <g id="xtick_8">
     <g id="line2d_8">
      <g>
       <use style="stroke:#000000;stroke-width:0.8;" x="335.054776" xlink:href="#m805c35d2e6" y="252"/>
      </g>
     </g>
     <g id="text_8">
      <!-- 3500 -->
      <g transform="translate(319.784776 268.118125)scale(0.12 -0.12)">
       <use xlink:href="#DejaVuSans-33"/>
       <use x="63.623047" xlink:href="#DejaVuSans-35"/>
       <use x="127.246094" xlink:href="#DejaVuSans-30"/>
       <use x="190.869141" xlink:href="#DejaVuSans-30"/>
      </g>
     </g>
    </g>
    <g id="xtick_9">
     <g id="line2d_9">
      <g>
       <use style="stroke:#000000;stroke-width:0.8;" x="373.581818" xlink:href="#m805c35d2e6" y="252"/>
      </g>
     </g>
     <g id="text_9">
      <!-- 4000 -->
      <g transform="translate(358.311818 268.118125)scale(0.12 -0.12)">
       <defs>
        <path d="M 2419 4116 
L 825 1625 
L 2419 1625 
L 2419 4116 
z
M 2253 4666 
L 3047 4666 
L 3047 1625 
L 3713 1625 
L 3713 1100 
L 3047 1100 
L 3047 0 
L 2419 0 
L 2419 1100 
L 313 1100 
L 313 1709 
L 2253 4666 
z
" id="DejaVuSans-34" transform="scale(0.015625)"/>
       </defs>
       <use xlink:href="#DejaVuSans-34"/>
       <use x="63.623047" xlink:href="#DejaVuSans-30"/>
       <use x="127.246094" xlink:href="#DejaVuSans-30"/>
       <use x="190.869141" xlink:href="#DejaVuSans-30"/>
      </g>
     </g>
    </g>
    <g id="text_10">
     <!-- Time(ms) -->
     <g transform="translate(193.067813 283.731875)scale(0.12 -0.12)">
      <defs>
       <path d="M -19 4666 
L 3928 4666 
L 3928 4134 
L 2272 4134 
L 2272 0 
L 1638 0 
L 1638 4134 
L -19 4134 
L -19 4666 
z
" id="DejaVuSans-54" transform="scale(0.015625)"/>
       <path d="M 603 3500 
L 1178 3500 
L 1178 0 
L 603 0 
L 603 3500 
z
M 603 4863 
L 1178 4863 
L 1178 4134 
L 603 4134 
L 603 4863 
z
" id="DejaVuSans-69" transform="scale(0.015625)"/>
       <path d="M 3328 2828 
Q 3544 3216 3844 3400 
Q 4144 3584 4550 3584 
Q 5097 3584 5394 3201 
Q 5691 2819 5691 2113 
L 5691 0 
L 5113 0 
L 5113 2094 
Q 5113 2597 4934 2840 
Q 4756 3084 4391 3084 
Q 3944 3084 3684 2787 
Q 3425 2491 3425 1978 
L 3425 0 
L 2847 0 
L 2847 2094 
Q 2847 2600 2669 2842 
Q 2491 3084 2119 3084 
Q 1678 3084 1418 2786 
Q 1159 2488 1159 1978 
L 1159 0 
L 581 0 
L 581 3500 
L 1159 3500 
L 1159 2956 
Q 1356 3278 1631 3431 
Q 1906 3584 2284 3584 
Q 2666 3584 2933 3390 
Q 3200 3197 3328 2828 
z
" id="DejaVuSans-6d" transform="scale(0.015625)"/>
       <path d="M 3597 1894 
L 3597 1613 
L 953 1613 
Q 991 1019 1311 708 
Q 1631 397 2203 397 
Q 2534 397 2845 478 
Q 3156 559 3463 722 
L 3463 178 
Q 3153 47 2828 -22 
Q 2503 -91 2169 -91 
Q 1331 -91 842 396 
Q 353 884 353 1716 
Q 353 2575 817 3079 
Q 1281 3584 2069 3584 
Q 2775 3584 3186 3129 
Q 3597 2675 3597 1894 
z
M 3022 2063 
Q 3016 2534 2758 2815 
Q 2500 3097 2075 3097 
Q 1594 3097 1305 2825 
Q 1016 2553 972 2059 
L 3022 2063 
z
" id="DejaVuSans-65" transform="scale(0.015625)"/>
       <path d="M 1984 4856 
Q 1566 4138 1362 3434 
Q 1159 2731 1159 2009 
Q 1159 1288 1364 580 
Q 1569 -128 1984 -844 
L 1484 -844 
Q 1016 -109 783 600 
Q 550 1309 550 2009 
Q 550 2706 781 3412 
Q 1013 4119 1484 4856 
L 1984 4856 
z
" id="DejaVuSans-28" transform="scale(0.015625)"/>
       <path d="M 2834 3397 
L 2834 2853 
Q 2591 2978 2328 3040 
Q 2066 3103 1784 3103 
Q 1356 3103 1142 2972 
Q 928 2841 928 2578 
Q 928 2378 1081 2264 
Q 1234 2150 1697 2047 
L 1894 2003 
Q 2506 1872 2764 1633 
Q 3022 1394 3022 966 
Q 3022 478 2636 193 
Q 2250 -91 1575 -91 
Q 1294 -91 989 -36 
Q 684 19 347 128 
L 347 722 
Q 666 556 975 473 
Q 1284 391 1588 391 
Q 1994 391 2212 530 
Q 2431 669 2431 922 
Q 2431 1156 2273 1281 
Q 2116 1406 1581 1522 
L 1381 1569 
Q 847 1681 609 1914 
Q 372 2147 372 2553 
Q 372 3047 722 3315 
Q 1072 3584 1716 3584 
Q 2034 3584 2315 3537 
Q 2597 3491 2834 3397 
z
" id="DejaVuSans-73" transform="scale(0.015625)"/>
       <path d="M 513 4856 
L 1013 4856 
Q 1481 4119 1714 3412 
Q 1947 2706 1947 2009 
Q 1947 1309 1714 600 
Q 1481 -109 1013 -844 
L 513 -844 
Q 928 -128 1133 580 
Q 1338 1288 1338 2009 
Q 1338 2731 1133 3434 
Q 928 4138 513 4856 
z
" id="DejaVuSans-29" transform="scale(0.015625)"/>
      </defs>
      <use xlink:href="#DejaVuSans-54"/>
      <use x="57.958984" xlink:href="#DejaVuSans-69"/>
      <use x="85.742188" xlink:href="#DejaVuSans-6d"/>
      <use x="183.154297" xlink:href="#DejaVuSans-65"/>
      <use x="244.677734" xlink:href="#DejaVuSans-28"/>
      <use x="283.691406" xlink:href="#DejaVuSans-6d"/>
      <use x="381.103516" xlink:href="#DejaVuSans-73"/>
      <use x="433.203125" xlink:href="#DejaVuSans-29"/>
     </g>
    </g>
   </g>
   <g id="matplotlib.axis_2">
    <g id="ytick_1">
     <g id="line2d_10">
      <defs>
       <path d="M 0 0 
L -3.5 0 
" id="mbd552c7559" style="stroke:#000000;stroke-width:0.8;"/>
      </defs>
      <g>
       <use style="stroke:#000000;stroke-width:0.8;" x="54" xlink:href="#mbd552c7559" y="237.504"/>
      </g>
     </g>
     <g id="text_11">
      <!-- -100 -->
      <g transform="translate(19.765625 242.063063)scale(0.12 -0.12)">
       <defs>
        <path d="M 313 2009 
L 1997 2009 
L 1997 1497 
L 313 1497 
L 313 2009 
z
" id="DejaVuSans-2d" transform="scale(0.015625)"/>
       </defs>
       <use xlink:href="#DejaVuSans-2d"/>
       <use x="36.083984" xlink:href="#DejaVuSans-31"/>
       <use x="99.707031" xlink:href="#DejaVuSans-30"/>
       <use x="163.330078" xlink:href="#DejaVuSans-30"/>
      </g>
     </g>
    </g>
    <g id="ytick_2">
     <g id="line2d_11">
      <g>
       <use style="stroke:#000000;stroke-width:0.8;" x="54" xlink:href="#mbd552c7559" y="208.512"/>
      </g>
     </g>
     <g id="text_12">
      <!-- -80 -->
      <g transform="translate(27.400625 213.071062)scale(0.12 -0.12)">
       <defs>
        <path d="M 2034 2216 
Q 1584 2216 1326 1975 
Q 1069 1734 1069 1313 
Q 1069 891 1326 650 
Q 1584 409 2034 409 
Q 2484 409 2743 651 
Q 3003 894 3003 1313 
Q 3003 1734 2745 1975 
Q 2488 2216 2034 2216 
z
M 1403 2484 
Q 997 2584 770 2862 
Q 544 3141 544 3541 
Q 544 4100 942 4425 
Q 1341 4750 2034 4750 
Q 2731 4750 3128 4425 
Q 3525 4100 3525 3541 
Q 3525 3141 3298 2862 
Q 3072 2584 2669 2484 
Q 3125 2378 3379 2068 
Q 3634 1759 3634 1313 
Q 3634 634 3220 271 
Q 2806 -91 2034 -91 
Q 1263 -91 848 271 
Q 434 634 434 1313 
Q 434 1759 690 2068 
Q 947 2378 1403 2484 
z
M 1172 3481 
Q 1172 3119 1398 2916 
Q 1625 2713 2034 2713 
Q 2441 2713 2670 2916 
Q 2900 3119 2900 3481 
Q 2900 3844 2670 4047 
Q 2441 4250 2034 4250 
Q 1625 4250 1398 4047 
Q 1172 3844 1172 3481 
z
" id="DejaVuSans-38" transform="scale(0.015625)"/>
       </defs>
       <use xlink:href="#DejaVuSans-2d"/>
       <use x="36.083984" xlink:href="#DejaVuSans-38"/>
       <use x="99.707031" xlink:href="#DejaVuSans-30"/>
      </g>
     </g>
    </g>
    <g id="ytick_3">
     <g id="line2d_12">
      <g>
       <use style="stroke:#000000;stroke-width:0.8;" x="54" xlink:href="#mbd552c7559" y="179.52"/>
      </g>
     </g>
     <g id="text_13">
      <!-- -60 -->
      <g transform="translate(27.400625 184.079062)scale(0.12 -0.12)">
       <defs>
        <path d="M 2113 2584 
Q 1688 2584 1439 2293 
Q 1191 2003 1191 1497 
Q 1191 994 1439 701 
Q 1688 409 2113 409 
Q 2538 409 2786 701 
Q 3034 994 3034 1497 
Q 3034 2003 2786 2293 
Q 2538 2584 2113 2584 
z
M 3366 4563 
L 3366 3988 
Q 3128 4100 2886 4159 
Q 2644 4219 2406 4219 
Q 1781 4219 1451 3797 
Q 1122 3375 1075 2522 
Q 1259 2794 1537 2939 
Q 1816 3084 2150 3084 
Q 2853 3084 3261 2657 
Q 3669 2231 3669 1497 
Q 3669 778 3244 343 
Q 2819 -91 2113 -91 
Q 1303 -91 875 529 
Q 447 1150 447 2328 
Q 447 3434 972 4092 
Q 1497 4750 2381 4750 
Q 2619 4750 2861 4703 
Q 3103 4656 3366 4563 
z
" id="DejaVuSans-36" transform="scale(0.015625)"/>
       </defs>
       <use xlink:href="#DejaVuSans-2d"/>
       <use x="36.083984" xlink:href="#DejaVuSans-36"/>
       <use x="99.707031" xlink:href="#DejaVuSans-30"/>
      </g>
     </g>
    </g>
    <g id="ytick_4">
     <g id="line2d_13">
      <g>
       <use style="stroke:#000000;stroke-width:0.8;" x="54" xlink:href="#mbd552c7559" y="150.528"/>
      </g>
     </g>
     <g id="text_14">
      <!-- -40 -->
      <g transform="translate(27.400625 155.087063)scale(0.12 -0.12)">
       <use xlink:href="#DejaVuSans-2d"/>
       <use x="36.083984" xlink:href="#DejaVuSans-34"/>
       <use x="99.707031" xlink:href="#DejaVuSans-30"/>
      </g>
     </g>
    </g>
    <g id="ytick_5">
     <g id="line2d_14">
      <g>
       <use style="stroke:#000000;stroke-width:0.8;" x="54" xlink:href="#mbd552c7559" y="121.536"/>
      </g>
     </g>
     <g id="text_15">
      <!-- -20 -->
      <g transform="translate(27.400625 126.095062)scale(0.12 -0.12)">
       <use xlink:href="#DejaVuSans-2d"/>
       <use x="36.083984" xlink:href="#DejaVuSans-32"/>
       <use x="99.707031" xlink:href="#DejaVuSans-30"/>
      </g>
     </g>
    </g>
    <g id="ytick_6">
     <g id="line2d_15">
      <g>
       <use style="stroke:#000000;stroke-width:0.8;" x="54" xlink:href="#mbd552c7559" y="92.544"/>
      </g>
     </g>
     <g id="text_16">
      <!-- 0 -->
      <g transform="translate(39.365 97.103062)scale(0.12 -0.12)">
       <use xlink:href="#DejaVuSans-30"/>
      </g>
     </g>
    </g>
    <g id="ytick_7">
     <g id="line2d_16">
      <g>
       <use style="stroke:#000000;stroke-width:0.8;" x="54" xlink:href="#mbd552c7559" y="63.552"/>
      </g>
     </g>
     <g id="text_17">
      <!-- 20 -->
      <g transform="translate(31.73 68.111063)scale(0.12 -0.12)">
       <use xlink:href="#DejaVuSans-32"/>
       <use x="63.623047" xlink:href="#DejaVuSans-30"/>
      </g>
     </g>
    </g>
    <g id="ytick_8">
     <g id="line2d_17">
      <g>
       <use style="stroke:#000000;stroke-width:0.8;" x="54" xlink:href="#mbd552c7559" y="34.56"/>
      </g>
     </g>
     <g id="text_18">
      <!-- 40 -->
      <g transform="translate(31.73 39.119062)scale(0.12 -0.12)">
       <use xlink:href="#DejaVuSans-34"/>
       <use x="63.623047" xlink:href="#DejaVuSans-30"/>
      </g>
     </g>
    </g>
    <g id="text_19">
     <!-- Membrane potential (mV) -->
     <g transform="translate(13.27 220.574062)rotate(-90)scale(0.12 -0.12)">
      <defs>
       <path d="M 628 4666 
L 1569 4666 
L 2759 1491 
L 3956 4666 
L 4897 4666 
L 4897 0 
L 4281 0 
L 4281 4097 
L 3078 897 
L 2444 897 
L 1241 4097 
L 1241 0 
L 628 0 
L 628 4666 
z
" id="DejaVuSans-4d" transform="scale(0.015625)"/>
       <path d="M 3116 1747 
Q 3116 2381 2855 2742 
Q 2594 3103 2138 3103 
Q 1681 3103 1420 2742 
Q 1159 2381 1159 1747 
Q 1159 1113 1420 752 
Q 1681 391 2138 391 
Q 2594 391 2855 752 
Q 3116 1113 3116 1747 
z
M 1159 2969 
Q 1341 3281 1617 3432 
Q 1894 3584 2278 3584 
Q 2916 3584 3314 3078 
Q 3713 2572 3713 1747 
Q 3713 922 3314 415 
Q 2916 -91 2278 -91 
Q 1894 -91 1617 61 
Q 1341 213 1159 525 
L 1159 0 
L 581 0 
L 581 4863 
L 1159 4863 
L 1159 2969 
z
" id="DejaVuSans-62" transform="scale(0.015625)"/>
       <path d="M 2631 2963 
Q 2534 3019 2420 3045 
Q 2306 3072 2169 3072 
Q 1681 3072 1420 2755 
Q 1159 2438 1159 1844 
L 1159 0 
L 581 0 
L 581 3500 
L 1159 3500 
L 1159 2956 
Q 1341 3275 1631 3429 
Q 1922 3584 2338 3584 
Q 2397 3584 2469 3576 
Q 2541 3569 2628 3553 
L 2631 2963 
z
" id="DejaVuSans-72" transform="scale(0.015625)"/>
       <path d="M 2194 1759 
Q 1497 1759 1228 1600 
Q 959 1441 959 1056 
Q 959 750 1161 570 
Q 1363 391 1709 391 
Q 2188 391 2477 730 
Q 2766 1069 2766 1631 
L 2766 1759 
L 2194 1759 
z
M 3341 1997 
L 3341 0 
L 2766 0 
L 2766 531 
Q 2569 213 2275 61 
Q 1981 -91 1556 -91 
Q 1019 -91 701 211 
Q 384 513 384 1019 
Q 384 1609 779 1909 
Q 1175 2209 1959 2209 
L 2766 2209 
L 2766 2266 
Q 2766 2663 2505 2880 
Q 2244 3097 1772 3097 
Q 1472 3097 1187 3025 
Q 903 2953 641 2809 
L 641 3341 
Q 956 3463 1253 3523 
Q 1550 3584 1831 3584 
Q 2591 3584 2966 3190 
Q 3341 2797 3341 1997 
z
" id="DejaVuSans-61" transform="scale(0.015625)"/>
       <path d="M 3513 2113 
L 3513 0 
L 2938 0 
L 2938 2094 
Q 2938 2591 2744 2837 
Q 2550 3084 2163 3084 
Q 1697 3084 1428 2787 
Q 1159 2491 1159 1978 
L 1159 0 
L 581 0 
L 581 3500 
L 1159 3500 
L 1159 2956 
Q 1366 3272 1645 3428 
Q 1925 3584 2291 3584 
Q 2894 3584 3203 3211 
Q 3513 2838 3513 2113 
z
" id="DejaVuSans-6e" transform="scale(0.015625)"/>
       <path id="DejaVuSans-20" transform="scale(0.015625)"/>
       <path d="M 1159 525 
L 1159 -1331 
L 581 -1331 
L 581 3500 
L 1159 3500 
L 1159 2969 
Q 1341 3281 1617 3432 
Q 1894 3584 2278 3584 
Q 2916 3584 3314 3078 
Q 3713 2572 3713 1747 
Q 3713 922 3314 415 
Q 2916 -91 2278 -91 
Q 1894 -91 1617 61 
Q 1341 213 1159 525 
z
M 3116 1747 
Q 3116 2381 2855 2742 
Q 2594 3103 2138 3103 
Q 1681 3103 1420 2742 
Q 1159 2381 1159 1747 
Q 1159 1113 1420 752 
Q 1681 391 2138 391 
Q 2594 391 2855 752 
Q 3116 1113 3116 1747 
z
" id="DejaVuSans-70" transform="scale(0.015625)"/>
       <path d="M 1959 3097 
Q 1497 3097 1228 2736 
Q 959 2375 959 1747 
Q 959 1119 1226 758 
Q 1494 397 1959 397 
Q 2419 397 2687 759 
Q 2956 1122 2956 1747 
Q 2956 2369 2687 2733 
Q 2419 3097 1959 3097 
z
M 1959 3584 
Q 2709 3584 3137 3096 
Q 3566 2609 3566 1747 
Q 3566 888 3137 398 
Q 2709 -91 1959 -91 
Q 1206 -91 779 398 
Q 353 888 353 1747 
Q 353 2609 779 3096 
Q 1206 3584 1959 3584 
z
" id="DejaVuSans-6f" transform="scale(0.015625)"/>
       <path d="M 1172 4494 
L 1172 3500 
L 2356 3500 
L 2356 3053 
L 1172 3053 
L 1172 1153 
Q 1172 725 1289 603 
Q 1406 481 1766 481 
L 2356 481 
L 2356 0 
L 1766 0 
Q 1100 0 847 248 
Q 594 497 594 1153 
L 594 3053 
L 172 3053 
L 172 3500 
L 594 3500 
L 594 4494 
L 1172 4494 
z
" id="DejaVuSans-74" transform="scale(0.015625)"/>
       <path d="M 603 4863 
L 1178 4863 
L 1178 0 
L 603 0 
L 603 4863 
z
" id="DejaVuSans-6c" transform="scale(0.015625)"/>
       <path d="M 1831 0 
L 50 4666 
L 709 4666 
L 2188 738 
L 3669 4666 
L 4325 4666 
L 2547 0 
L 1831 0 
z
" id="DejaVuSans-56" transform="scale(0.015625)"/>
      </defs>
      <use xlink:href="#DejaVuSans-4d"/>
      <use x="86.279297" xlink:href="#DejaVuSans-65"/>
      <use x="147.802734" xlink:href="#DejaVuSans-6d"/>
      <use x="245.214844" xlink:href="#DejaVuSans-62"/>
      <use x="308.691406" xlink:href="#DejaVuSans-72"/>
      <use x="349.804688" xlink:href="#DejaVuSans-61"/>
      <use x="411.083984" xlink:href="#DejaVuSans-6e"/>
      <use x="474.462891" xlink:href="#DejaVuSans-65"/>
      <use x="535.986328" xlink:href="#DejaVuSans-20"/>
      <use x="567.773438" xlink:href="#DejaVuSans-70"/>
      <use x="631.25" xlink:href="#DejaVuSans-6f"/>
      <use x="692.431641" xlink:href="#DejaVuSans-74"/>
      <use x="731.640625" xlink:href="#DejaVuSans-65"/>
      <use x="793.164062" xlink:href="#DejaVuSans-6e"/>
      <use x="856.542969" xlink:href="#DejaVuSans-74"/>
      <use x="895.751953" xlink:href="#DejaVuSans-69"/>
      <use x="923.535156" xlink:href="#DejaVuSans-61"/>
      <use x="984.814453" xlink:href="#DejaVuSans-6c"/>
      <use x="1012.597656" xlink:href="#DejaVuSans-20"/>
      <use x="1044.384766" xlink:href="#DejaVuSans-28"/>
      <use x="1083.398438" xlink:href="#DejaVuSans-6d"/>
      <use x="1180.810547" xlink:href="#DejaVuSans-56"/>
      <use x="1249.21875" xlink:href="#DejaVuSans-29"/>
     </g>
    </g>
   </g>
   <g id="line2d_18">
    <path clip-path="url(#p77c9e7d895)" d="M 69.218182 215.148414 
L 69.410817 214.173558 
L 69.564925 214.131664 
L 69.75756 213.45789 
L 69.796087 213.472386 
L 69.911669 213.764916 
L 70.219885 215.45254 
L 70.874845 218.970719 
L 70.951899 219.073641 
L 70.990426 219.037546 
L 71.106007 218.60513 
L 71.45275 214.192837 
L 71.876548 209.430901 
L 72.223291 208.268612 
L 72.49298 206.99108 
L 72.531507 207.050078 
L 72.685616 207.755164 
L 73.494684 212.398812 
L 73.995535 214.925755 
L 74.303751 214.053531 
L 74.380806 214.16718 
L 74.611968 214.994611 
L 75.151346 217.469223 
L 75.189873 217.421387 
L 76.191577 212.191955 
L 76.384212 212.200507 
L 76.808009 210.120476 
L 76.92359 210.380389 
L 77.617077 212.856161 
L 77.771185 212.815283 
L 77.96382 212.333436 
L 78.387618 212.653507 
L 78.503199 212.811079 
L 78.734361 213.725341 
L 79.004051 214.667436 
L 79.158159 214.892849 
L 79.466375 215.52531 
L 79.736064 215.059988 
L 79.774591 215.10594 
L 79.967227 215.629101 
L 80.468078 217.284979 
L 80.506605 217.234243 
L 80.814822 216.221698 
L 81.123038 214.909955 
L 81.238619 214.887486 
L 81.392727 215.14421 
L 81.469781 215.278878 
L 81.508308 215.190452 
L 81.816525 214.411727 
L 82.00916 214.233426 
L 82.163268 214.486526 
L 82.355903 215.058828 
L 82.39443 215.007513 
L 82.548539 214.255315 
L 83.164971 211.036768 
L 83.280552 211.125629 
L 83.588769 211.530357 
L 83.627296 211.447005 
L 83.819931 211.02923 
L 83.858458 211.048365 
L 84.051093 211.506874 
L 84.397837 212.737294 
L 84.628999 213.340328 
L 84.783107 213.522397 
L 85.12985 212.354745 
L 85.245432 212.003652 
L 85.39954 211.674882 
L 85.438067 211.698656 
L 85.592175 212.038442 
L 85.630702 211.910442 
L 85.823337 211.372641 
L 85.900391 211.366262 
L 86.054499 211.071704 
L 86.093026 211.101565 
L 86.670932 211.989735 
L 86.747986 211.993359 
L 86.902094 211.215504 
L 87.171784 210.060608 
L 87.248838 210.024223 
L 87.287365 210.076263 
L 87.595581 210.815994 
L 87.711162 211.135921 
L 87.749689 211.061991 
L 87.903797 210.738151 
L 87.942325 210.751777 
L 88.057906 211.019373 
L 88.52023 212.499415 
L 88.635811 211.990605 
L 88.828446 211.373365 
L 88.944028 211.546883 
L 89.021082 211.749972 
L 89.059609 211.728517 
L 89.252244 211.067065 
L 89.714568 208.742776 
L 89.753096 208.753793 
L 89.945731 208.797426 
L 90.061312 208.757997 
L 90.21542 208.643334 
L 90.369528 208.929195 
L 90.408055 208.74814 
L 90.60069 208.147136 
L 90.639217 208.136988 
L 90.754799 207.258821 
L 90.947434 206.314406 
L 91.063015 206.587656 
L 91.640921 209.687046 
L 91.872083 210.696837 
L 91.91061 210.680602 
L 92.026191 210.695967 
L 92.257353 211.181438 
L 92.29588 211.105769 
L 92.527043 209.711399 
L 92.719678 208.899478 
L 92.835259 209.131414 
L 93.104948 210.569852 
L 93.490219 213.006195 
L 93.528746 212.895011 
L 93.798435 211.466865 
L 94.068124 211.380468 
L 94.299287 210.952402 
L 94.453395 210.946893 
L 94.64603 210.333132 
L 94.877192 209.328125 
L 94.992773 209.334648 
L 95.185409 209.592242 
L 95.378044 210.123085 
L 95.416571 210.043068 
L 95.878895 207.457271 
L 95.994476 207.642675 
L 96.379747 208.563606 
L 96.842071 209.097493 
L 97.111761 210.351397 
L 97.188815 210.158311 
L 97.419977 209.606593 
L 97.535558 209.790982 
L 97.805247 210.951822 
L 97.920829 211.312482 
L 97.959356 211.296247 
L 98.074937 210.754096 
L 98.575788 207.38972 
L 98.691369 207.220696 
L 98.729896 207.259691 
L 99.346329 208.704507 
L 99.423383 208.507941 
L 99.7316 207.709646 
L 99.847181 207.584401 
L 100.001289 207.327822 
L 100.039816 207.360148 
L 100.155397 207.437846 
L 100.193924 207.391604 
L 100.309505 207.17141 
L 100.617722 206.016659 
L 100.656249 206.036953 
L 101.002992 206.800602 
L 101.966168 210.494763 
L 102.312911 211.822886 
L 102.389965 211.888698 
L 102.428493 211.850139 
L 102.582601 211.497596 
L 103.121979 209.87129 
L 103.391669 209.056325 
L 103.468723 208.71103 
L 103.699885 207.560917 
L 103.776939 207.610639 
L 103.931047 208.116259 
L 104.624534 210.901376 
L 104.817169 211.003572 
L 105.009804 211.536156 
L 105.125386 211.985532 
L 105.20244 211.915951 
L 105.510656 211.750841 
L 105.549183 211.817233 
L 105.780345 212.64452 
L 106.165616 214.139782 
L 106.396778 212.676266 
L 106.782048 211.130412 
L 106.897629 211.225796 
L 107.090265 211.497596 
L 107.205846 211.047205 
L 107.475535 209.873609 
L 107.591116 209.97885 
L 107.783751 210.307909 
L 107.822278 210.24978 
L 107.93786 209.92478 
L 108.554292 207.672972 
L 108.669873 207.538594 
L 108.7084 207.561642 
L 108.862509 207.948251 
L 109.170725 209.581805 
L 109.440414 210.757865 
L 109.671577 211.13853 
L 110.095374 211.994954 
L 110.249482 212.352425 
L 110.365063 212.745557 
L 110.40359 212.663364 
L 110.827388 210.643782 
L 110.942969 210.592756 
L 111.097077 210.241083 
L 111.135604 210.274279 
L 111.44382 210.473019 
L 111.559402 210.511433 
L 111.790564 211.042132 
L 111.829091 210.93921 
L 112.137307 209.821714 
L 112.252888 210.041618 
L 112.792267 211.662126 
L 113.13901 210.804542 
L 113.370173 210.688864 
L 113.524281 210.977045 
L 113.832497 212.270813 
L 114.102186 213.071137 
L 114.179241 213.227259 
L 114.217768 213.199282 
L 114.564511 212.13571 
L 114.949781 209.894194 
L 115.065362 210.084816 
L 115.335052 210.782798 
L 115.373579 210.765403 
L 115.450633 210.666106 
L 115.681795 210.207452 
L 115.87443 210.243692 
L 116.298228 209.141416 
L 116.413809 209.068646 
L 116.606444 208.890636 
L 116.760552 209.2555 
L 117.18435 210.61508 
L 117.222877 210.600729 
L 117.338458 209.824468 
L 117.56962 208.451407 
L 117.646674 208.444449 
L 117.685201 208.504317 
L 117.877837 209.22013 
L 118.108999 209.934348 
L 118.301634 210.584058 
L 118.571323 211.399603 
L 118.763959 211.360319 
L 118.918067 211.731127 
L 119.187756 212.357934 
L 119.26481 212.391999 
L 119.303337 212.345032 
L 119.418918 212.096716 
L 119.765662 210.534772 
L 119.881243 210.108589 
L 120.189459 208.982685 
L 120.266513 208.993267 
L 120.420621 209.462938 
L 120.805892 211.761713 
L 121.152635 213.399906 
L 121.306743 213.740852 
L 121.769068 215.028387 
L 121.846122 215.152618 
L 121.884649 215.028242 
L 122.346974 211.993649 
L 122.385501 212.017423 
L 122.539609 212.437662 
L 122.809298 213.630828 
L 122.886352 213.552839 
L 123.04046 213.505727 
L 123.271623 213.051277 
L 123.387204 213.225519 
L 123.464258 213.370189 
L 123.502785 213.342647 
L 123.618366 212.505068 
L 123.926582 210.48737 
L 124.042163 210.320231 
L 124.08069 210.361835 
L 124.35038 210.741775 
L 124.465961 210.70278 
L 125.082394 207.489742 
L 125.197975 207.759513 
L 125.467664 209.263038 
L 125.852934 211.233044 
L 126.084097 212.247474 
L 126.276732 212.993438 
L 126.469367 211.60907 
L 126.931692 206.514451 
L 127.124327 206.06667 
L 127.586651 204.144065 
L 127.740759 204.231911 
L 127.894868 204.773627 
L 128.010449 205.200244 
L 128.048976 205.155596 
L 128.203084 204.733618 
L 128.5113 203.09354 
L 128.549827 203.116589 
L 128.665409 203.487252 
L 128.973625 205.623382 
L 129.782693 211.479186 
L 129.82122 211.512817 
L 129.859747 211.459907 
L 129.975328 211.403517 
L 130.322071 212.039312 
L 130.591761 213.085053 
L 130.899977 213.997141 
L 130.977031 214.07426 
L 131.015558 214.017726 
L 131.208193 212.949371 
L 131.439356 211.993939 
L 131.51641 211.812304 
L 131.940207 209.746189 
L 132.094315 209.620219 
L 132.286951 209.317398 
L 132.441059 209.705746 
L 132.518113 209.820119 
L 132.55664 209.742565 
L 132.710748 209.516573 
L 132.749275 209.545565 
L 132.787802 209.604708 
L 132.826329 209.557307 
L 132.94191 208.962246 
L 133.59687 203.722522 
L 133.673924 203.789493 
L 134.097722 205.095583 
L 134.405938 206.98992 
L 134.983843 210.478382 
L 135.369114 212.413453 
L 135.715857 213.873056 
L 135.792911 213.824639 
L 135.94702 212.705113 
L 136.370817 208.182796 
L 136.486398 207.999566 
L 136.524925 208.035661 
L 136.833142 208.385885 
L 136.871669 208.300503 
L 137.37252 206.414719 
L 137.488101 206.322814 
L 137.526628 206.360214 
L 137.834845 207.104004 
L 138.258642 208.449522 
L 138.643913 207.168076 
L 138.875075 206.420807 
L 139.298872 206.028255 
L 139.414453 205.892573 
L 139.45298 205.942149 
L 139.953832 206.906278 
L 140.069413 206.734935 
L 140.262048 206.301795 
L 140.339102 206.406746 
L 140.608792 207.252732 
L 140.647319 207.177788 
L 141.14817 205.223292 
L 141.340806 204.554012 
L 141.610495 204.695058 
L 141.880184 205.201548 
L 142.111346 205.173281 
L 142.226928 205.140955 
L 142.650725 204.340921 
L 142.804833 204.079413 
L 142.920414 204.322076 
L 143.267158 205.495527 
L 143.305685 205.481611 
L 143.421266 205.443197 
L 143.459793 205.489294 
L 143.613901 206.000423 
L 143.922117 207.073997 
L 144.114753 207.610784 
L 144.731185 209.87158 
L 145.039402 210.119751 
L 145.270564 209.645732 
L 145.617307 208.036821 
L 145.732888 208.205989 
L 146.156686 208.680588 
L 146.503429 209.293189 
L 146.927227 209.954787 
L 147.042808 209.898977 
L 147.235443 209.478013 
L 147.389551 209.480768 
L 147.582186 209.45453 
L 147.774822 209.845487 
L 147.851876 209.682842 
L 148.198619 208.469092 
L 148.468308 208.193958 
L 148.622417 208.519393 
L 148.930633 209.963629 
L 149.62412 213.379467 
L 149.701174 213.175218 
L 150.317606 210.544049 
L 150.394661 210.462437 
L 151.203728 208.09466 
L 151.31931 208.247883 
L 151.473418 208.636376 
L 151.511945 208.562446 
L 151.666053 208.326161 
L 151.70458 208.343122 
L 151.743107 208.390668 
L 151.781634 208.346021 
L 151.935742 208.112925 
L 152.282486 208.73002 
L 152.398067 208.960216 
L 152.436594 208.897159 
L 152.667756 207.812568 
L 153.053026 206.219892 
L 153.284189 205.477987 
L 153.322716 205.492918 
L 153.438297 205.563514 
L 153.476824 205.531767 
L 153.553878 205.35941 
L 153.862094 204.040129 
L 154.247365 204.609532 
L 154.555581 206.02869 
L 154.632635 205.949687 
L 154.748216 206.012455 
L 155.056433 206.770161 
L 155.403176 208.430677 
L 155.518757 208.370229 
L 155.711392 208.292096 
L 156.019609 207.866348 
L 156.13519 207.084724 
L 156.366352 206.056088 
L 156.481933 206.23033 
L 156.713096 207.270852 
L 157.098366 208.926006 
L 157.445109 209.70676 
L 157.637745 209.680668 
L 157.791853 210.126854 
L 158.061542 211.124469 
L 158.100069 211.059817 
L 159.024718 206.37442 
L 159.101772 206.285704 
L 159.564097 203.592492 
L 159.91084 201.280815 
L 160.064948 200.843616 
L 160.180529 201.147017 
L 160.29611 201.438967 
L 160.334638 201.348657 
L 160.450219 201.230369 
L 160.5658 201.552905 
L 160.95107 203.280394 
L 161.028124 203.151524 
L 161.220759 202.840585 
L 161.336341 203.084553 
L 161.721611 204.156532 
L 161.837192 204.348749 
L 162.068354 205.426381 
L 162.376571 207.109367 
L 162.415098 207.067184 
L 162.569206 207.001082 
L 162.723314 207.396823 
L 162.993003 208.064364 
L 163.339747 206.3189 
L 163.416801 206.480676 
L 163.570909 206.68246 
L 163.725017 206.796253 
L 163.994707 206.273818 
L 164.033234 206.303534 
L 164.187342 206.710727 
L 164.34145 207.067184 
L 164.534085 205.963023 
L 164.919356 203.461014 
L 164.99641 203.317793 
L 165.034937 203.336348 
L 165.073464 203.36592 
L 165.227572 202.592558 
L 165.38168 202.270602 
L 165.497261 202.524427 
L 165.766951 204.038824 
L 166.113694 205.729348 
L 166.190748 205.889819 
L 166.229275 205.77704 
L 166.460437 205.240398 
L 166.576018 205.417394 
L 166.807181 206.514306 
L 166.999816 207.041671 
L 167.346559 208.030153 
L 167.539194 208.54969 
L 167.577722 208.47431 
L 168.001519 205.868654 
L 168.1171 205.705429 
L 168.155627 205.747178 
L 168.425316 205.416814 
L 168.463843 205.471029 
L 168.656479 206.136685 
L 168.77206 206.405586 
L 168.810587 206.379493 
L 168.926168 206.350356 
L 169.041749 206.606211 
L 169.388493 207.554684 
L 169.465547 207.235772 
L 169.773763 205.294613 
L 169.927871 205.156901 
L 170.428723 201.864279 
L 170.582831 201.611904 
L 170.698412 201.903998 
L 171.276318 204.225098 
L 171.314845 204.215676 
L 171.468953 204.169143 
L 171.584534 204.112464 
L 171.700115 204.36165 
L 172.123913 205.583518 
L 172.778872 206.796978 
L 172.93298 207.298975 
L 172.971507 207.210259 
L 173.433832 205.675278 
L 173.664994 204.647511 
L 173.742048 204.708974 
L 173.896157 205.255474 
L 174.281427 207.732985 
L 174.666697 209.967833 
L 174.743751 209.956961 
L 174.859333 209.536142 
L 175.090495 208.49417 
L 175.206076 208.670731 
L 175.437238 209.723141 
L 175.591346 210.259493 
L 175.629873 210.200349 
L 176.015144 208.902957 
L 176.092198 208.976452 
L 176.284833 209.662548 
L 176.862739 213.072007 
L 177.055374 213.702583 
L 177.170955 213.742447 
L 177.36359 213.320033 
L 177.402117 213.345836 
L 177.787388 212.457521 
L 177.902969 212.53377 
L 177.980023 212.640461 
L 178.01855 212.516375 
L 178.211185 211.916241 
L 178.326766 212.047719 
L 178.557929 212.532611 
L 178.596456 212.490137 
L 178.789091 212.318795 
L 178.943199 212.567691 
L 179.212888 213.078675 
L 179.32847 213.164636 
L 179.71374 213.718528 
L 179.752267 213.730415 
L 179.829321 213.3483 
L 180.253119 210.166139 
L 180.75397 207.518589 
L 180.792497 207.541203 
L 181.139241 207.919404 
L 181.7942 206.39225 
L 182.06389 206.249174 
L 182.372106 207.08023 
L 182.410633 206.978903 
L 182.526214 206.330932 
L 182.83443 204.031286 
L 182.911484 203.98084 
L 182.950012 204.021429 
L 183.412336 204.726515 
L 183.450863 204.698102 
L 183.874661 204.293374 
L 184.028769 204.75942 
L 184.491093 206.515321 
L 184.568147 206.670138 
L 184.606674 206.623316 
L 184.760783 205.83082 
L 185.107526 202.501089 
L 185.454269 198.074155 
L 185.608377 198.014432 
L 185.762486 198.340302 
L 186.032175 199.743949 
L 186.455972 201.838621 
L 186.610081 202.047799 
L 186.802716 202.964381 
L 187.419148 206.342674 
L 187.496203 206.06464 
L 187.727365 205.229816 
L 187.842946 205.265766 
L 187.997054 205.475668 
L 188.035581 205.453199 
L 188.151162 205.252719 
L 188.30527 205.005852 
L 188.343797 205.038758 
L 188.767595 205.639908 
L 188.844649 205.588012 
L 189.075811 205.293163 
L 189.191392 205.428846 
L 189.384028 205.670784 
L 189.461082 205.728913 
L 189.499609 205.66658 
L 189.692244 205.235179 
L 189.730771 205.256053 
L 190.038987 205.799798 
L 190.385731 206.917005 
L 190.809528 205.220538 
L 190.886582 205.308819 
L 191.079217 206.071019 
L 191.464488 207.649198 
L 191.772704 207.848518 
L 191.965339 207.298395 
L 192.003867 207.340433 
L 192.157975 207.900124 
L 192.427664 209.244773 
L 192.504718 209.167364 
L 192.851461 208.226864 
L 192.889988 208.25774 
L 193.044097 208.367185 
L 193.121151 208.183376 
L 193.622002 206.494012 
L 193.930219 206.291213 
L 194.007273 205.710068 
L 194.43107 200.969151 
L 194.662232 200.372061 
L 194.777814 199.506795 
L 195.008976 198.029508 
L 195.08603 198.062268 
L 195.240138 198.63747 
L 195.432773 199.436779 
L 195.4713 199.424313 
L 195.586881 199.458523 
L 195.74099 199.958635 
L 196.087733 202.270022 
L 196.51153 204.385859 
L 196.588585 204.45457 
L 196.627112 204.379335 
L 196.742693 204.210602 
L 196.78122 204.260758 
L 196.935328 204.875968 
L 197.127963 205.550467 
L 197.243544 205.584678 
L 197.397652 206.061451 
L 197.744396 207.182282 
L 198.052612 208.066683 
L 198.245247 208.408354 
L 198.514937 209.671825 
L 198.86168 211.468604 
L 198.900207 211.440627 
L 199.015788 211.150997 
L 199.401059 209.25463 
L 199.51664 209.174902 
L 199.978964 207.372759 
L 200.518343 204.07376 
L 200.826559 202.285388 
L 200.94214 202.157244 
L 201.057722 202.418027 
L 201.288884 203.107021 
L 201.327411 203.09354 
L 201.520046 202.920893 
L 201.558573 202.955973 
L 201.712681 203.378532 
L 202.020898 205.129793 
L 202.136479 205.512488 
L 202.175006 205.43276 
L 202.521749 204.339326 
L 202.63733 204.476024 
L 202.829965 205.275188 
L 203.716087 210.121056 
L 203.754614 210.071915 
L 203.94725 209.868826 
L 204.101358 210.224702 
L 204.255466 210.76033 
L 204.293993 210.644362 
L 204.486628 210.07003 
L 204.525155 210.08786 
L 204.640736 210.139176 
L 204.910426 209.313629 
L 205.257169 208.200191 
L 205.37275 208.325292 
L 205.565386 208.613617 
L 205.64244 208.531425 
L 205.835075 208.340222 
L 205.989183 208.418211 
L 206.220345 208.949924 
L 206.258872 208.847148 
L 206.451507 208.298619 
L 206.567089 208.493735 
L 206.721197 208.604195 
L 207.06794 208.604919 
L 207.260575 207.068488 
L 207.645846 204.897857 
L 207.877008 203.845738 
L 207.992589 203.478989 
L 208.031116 203.490876 
L 208.185224 203.963445 
L 208.416387 204.366144 
L 208.686076 203.479279 
L 208.840184 203.230817 
L 208.955765 203.4571 
L 209.186928 204.040999 
L 209.225455 203.996641 
L 209.379563 203.410423 
L 209.649252 202.184931 
L 209.687779 202.175798 
L 209.841887 200.910298 
L 210.034522 200.003428 
L 210.45832 199.179185 
L 210.496847 199.242243 
L 211.421496 202.037652 
L 211.768239 203.886326 
L 211.806766 203.858204 
L 212.192037 202.452237 
L 212.307618 202.599372 
L 212.654361 203.290541 
L 212.846997 203.402305 
L 212.962578 203.576402 
L 213.155213 204.205963 
L 213.19374 204.047377 
L 213.617537 201.141074 
L 213.925754 200.462661 
L 213.964281 200.48542 
L 214.195443 200.706484 
L 214.426605 200.438308 
L 214.465132 200.491943 
L 214.619241 201.042646 
L 214.965984 203.409553 
L 216.083268 211.588051 
L 216.121795 211.580803 
L 216.237376 210.024223 
L 217.084971 198.001385 
L 217.239079 197.497649 
L 217.354661 197.734514 
L 217.585823 199.057419 
L 218.240783 203.083828 
L 218.356364 203.29431 
L 218.66458 203.923436 
L 218.818688 204.014181 
L 218.972796 204.56126 
L 219.627756 207.430888 
L 219.820391 207.525402 
L 220.013026 207.387835 
L 220.167135 206.388191 
L 220.35977 205.648315 
L 220.475351 205.61106 
L 220.629459 204.9599 
L 220.822094 204.161316 
L 220.937675 204.428187 
L 221.168838 205.24866 
L 221.207365 205.217639 
L 221.4 205.073694 
L 221.708216 205.275768 
L 222.093487 206.766102 
L 222.170541 206.550981 
L 222.363176 204.784499 
L 223.018136 198.716618 
L 223.711623 195.08421 
L 224.559217 191.908137 
L 224.751853 191.89596 
L 224.828907 191.554289 
L 225.445339 185.749511 
L 226.061772 179.487674 
L 226.447043 176.421915 
L 226.755259 171.966714 
L 226.909367 166.457509 
L 226.986421 158.926403 
L 227.024948 145.250731 
L 227.063475 35.631979 
L 227.102002 91.725411 
L 227.25611 201.554065 
L 227.294638 203.866757 
L 227.371692 202.989604 
L 227.679908 197.602455 
L 227.872543 197.04117 
L 227.988124 197.255856 
L 228.180759 197.884113 
L 228.219287 197.812792 
L 228.758665 195.942518 
L 228.835719 196.089508 
L 228.9513 196.497135 
L 229.028354 196.363337 
L 229.336571 194.662087 
L 229.760368 190.772955 
L 229.875949 190.646985 
L 229.914476 190.680615 
L 229.99153 190.482455 
L 230.26122 188.843537 
L 230.530909 183.841113 
L 231.031761 168.949517 
L 231.147342 155.609283 
L 231.224396 56.211516 
L 231.262923 142.023487 
L 231.417031 206.17278 
L 231.455558 205.707024 
L 231.917883 192.621485 
L 232.34168 186.92992 
L 232.649896 182.894959 
L 233.266329 170.173704 
L 233.38191 161.086307 
L 233.420437 151.169593 
L 233.458964 34.897612 
L 233.497491 74.265124 
L 233.6516 202.183916 
L 233.690127 204.743765 
L 233.767181 203.761371 
L 234.345086 187.935798 
L 234.768884 173.179884 
L 234.922992 161.131244 
L 234.961519 149.309176 
L 235.000046 32.150185 
L 235.038573 82.671499 
L 235.192681 206.579248 
L 235.231208 207.921143 
L 235.269735 206.991515 
L 235.693533 194.705865 
L 236.810817 171.047668 
L 236.964925 159.459855 
L 237.003452 146.154992 
L 237.041979 35.450779 
L 237.080506 92.766659 
L 237.234614 204.087821 
L 237.273142 205.454649 
L 237.311669 204.72666 
L 237.773993 193.087531 
L 238.46748 179.270524 
L 238.698642 167.825932 
L 238.775696 157.452594 
L 238.85275 47.670907 
L 238.891277 126.37491 
L 239.045386 208.00609 
L 239.083913 207.7527 
L 239.661818 191.011269 
L 240.316778 172.792261 
L 240.470886 160.713614 
L 240.509413 148.255607 
L 240.54794 33.154903 
L 240.586467 87.039869 
L 240.740575 205.79371 
L 240.779102 206.721309 
L 240.817629 205.652954 
L 241.2029 194.66745 
L 241.780806 186.312971 
L 242.474292 173.381669 
L 242.666928 164.730601 
L 242.743982 152.3961 
L 242.782509 45.488969 
L 242.821036 69.894725 
L 242.975144 201.42882 
L 243.013671 204.332223 
L 243.090725 203.277784 
L 243.398941 197.657685 
L 243.899793 194.354772 
L 244.362117 192.325187 
L 244.439171 192.362731 
L 244.516226 192.338958 
L 244.631807 191.813913 
L 244.940023 189.30393 
L 245.787618 175.188015 
L 246.01878 166.463598 
L 246.095834 158.379613 
L 246.134361 141.750237 
L 246.172888 38.977221 
L 246.211415 104.127754 
L 246.365524 204.65128 
L 246.404051 206.204382 
L 246.481105 205.671944 
L 247.636916 192.097164 
L 247.791024 191.253932 
L 248.099241 189.076488 
L 248.253349 188.641898 
L 248.985362 184.485025 
L 249.370633 181.000476 
L 249.563268 180.30061 
L 249.832957 178.465126 
L 250.025593 173.437768 
L 250.218228 163.383343 
L 250.256755 157.508259 
L 250.333809 42.924627 
L 250.372336 113.412587 
L 250.526444 203.993742 
L 250.564971 205.345204 
L 250.642025 204.495303 
L 251.181404 195.920774 
L 251.451093 194.119356 
L 251.643728 192.579736 
L 251.874891 189.299581 
L 252.452796 173.360795 
L 252.606904 167.236669 
L 252.683959 159.281265 
L 252.722486 144.726846 
L 252.761013 36.846454 
L 252.79954 98.311958 
L 252.953648 204.932938 
L 252.992175 205.967807 
L 253.030702 205.17937 
L 253.415972 196.305933 
L 253.878297 189.471214 
L 254.533257 171.915833 
L 254.687365 161.245473 
L 254.725892 151.907874 
L 254.764419 36.877476 
L 254.802946 73.946502 
L 254.957054 204.677518 
L 254.995581 207.148361 
L 255.072635 205.12211 
L 255.53496 189.225507 
L 256.344028 164.227735 
L 256.421082 142.202657 
L 256.459609 37.537768 
L 256.498136 100.761782 
L 256.652244 204.336427 
L 256.690771 205.216044 
L 256.729298 204.222924 
L 257.307204 185.866639 
L 258.00069 170.583941 
L 258.116272 160.67607 
L 258.154799 148.471018 
L 258.193326 32.781631 
L 258.231853 83.253079 
L 258.385961 203.843998 
L 258.424488 205.63092 
L 258.463015 204.882492 
L 258.809758 196.730231 
L 259.117975 194.891848 
L 259.541772 193.34411 
L 259.734407 191.109262 
L 260.697583 173.066381 
L 260.851692 166.122507 
L 260.928746 156.186659 
L 261.0058 51.177345 
L 261.044327 131.630869 
L 261.198435 205.34158 
L 261.236962 205.978969 
L 261.275489 205.468565 
L 261.622232 200.813899 
L 261.891922 199.256884 
L 262.04603 199.165994 
L 262.200138 199.478238 
L 262.277192 199.56072 
L 262.315719 199.515492 
L 262.4313 199.519841 
L 262.585409 199.981539 
L 263.240368 203.221685 
L 263.317422 203.057445 
L 263.625639 202.02678 
L 263.856801 201.575519 
L 264.010909 201.455492 
L 264.12649 201.686124 
L 264.357652 202.851022 
L 264.665869 204.249596 
L 265.089666 205.332157 
L 265.128193 205.208217 
L 265.667572 203.236036 
L 266.052842 201.399828 
L 266.284005 201.310967 
L 266.438113 201.146582 
L 266.592221 201.415483 
L 266.823383 201.812239 
L 267.054545 202.213923 
L 267.439816 203.380416 
L 267.940667 205.10544 
L 268.480046 205.566268 
L 268.518573 205.525389 
L 268.634154 205.376805 
L 268.788262 203.957212 
L 269.019425 202.456006 
L 269.327641 201.95285 
L 269.366168 201.98909 
L 269.558803 202.557043 
L 269.982601 203.956052 
L 270.059655 203.807323 
L 270.213763 203.623949 
L 270.560506 204.16233 
L 270.791669 204.65215 
L 270.830196 204.584889 
L 270.90725 204.302652 
L 271.176939 202.660255 
L 271.331047 202.398747 
L 271.485155 201.960243 
L 271.523682 201.98822 
L 271.677791 202.500654 
L 271.831899 202.922197 
L 272.178642 202.26176 
L 272.217169 202.293071 
L 272.409804 202.389324 
L 272.525386 202.561247 
L 272.679494 202.951189 
L 272.718021 202.880159 
L 272.872129 202.330906 
L 273.026237 201.20906 
L 273.488562 196.265489 
L 273.527089 196.274767 
L 273.681197 196.49815 
L 273.719724 196.435672 
L 274.143521 195.8999 
L 274.259102 196.002532 
L 274.490265 196.573964 
L 274.567319 196.507862 
L 274.759954 195.106679 
L 274.991116 194.344479 
L 275.106697 194.295338 
L 275.491968 194.937946 
L 275.72313 196.072548 
L 276.031346 197.410238 
L 276.339563 197.023485 
L 276.455144 197.094371 
L 276.647779 197.669282 
L 276.724833 197.795252 
L 276.76336 197.695665 
L 276.994522 197.196132 
L 277.033049 197.234257 
L 277.187158 197.792208 
L 277.41832 198.846792 
L 277.456847 198.825773 
L 277.649482 198.588038 
L 277.919171 197.854251 
L 278.034753 197.917888 
L 278.265915 198.229552 
L 278.766766 200.037638 
L 278.920875 200.815494 
L 278.997929 200.778674 
L 279.11351 200.838108 
L 279.267618 201.249504 
L 279.306145 201.154555 
L 279.460253 200.793895 
L 279.49878 200.825061 
L 279.652888 201.394319 
L 279.999632 203.968809 
L 280.269321 205.457113 
L 280.53901 206.640421 
L 280.577537 206.588236 
L 280.693119 206.006076 
L 280.962808 204.673024 
L 281.039862 204.746664 
L 281.232497 205.533942 
L 281.463659 206.257437 
L 281.964511 207.684858 
L 282.003038 207.634702 
L 282.118619 207.242585 
L 282.426835 204.944389 
L 282.657998 202.987719 
L 282.735052 202.971629 
L 283.043268 203.321707 
L 283.197376 203.601625 
L 283.235903 203.516244 
L 283.428539 202.968875 
L 283.467066 202.982066 
L 283.582647 203.25691 
L 283.92939 204.43529 
L 284.160552 203.453186 
L 284.276133 203.703677 
L 284.353188 203.829067 
L 284.391715 203.72948 
L 284.776985 202.055627 
L 285.277837 202.417157 
L 285.354891 202.501958 
L 285.817215 201.294297 
L 285.894269 201.205726 
L 286.086904 199.918191 
L 286.433648 198.089376 
L 286.472175 198.103147 
L 286.549229 198.216796 
L 286.587756 198.124456 
L 286.818918 197.379217 
L 286.973026 197.436911 
L 287.127135 197.74872 
L 287.165662 197.694215 
L 287.435351 196.998552 
L 287.473878 197.032763 
L 287.627986 197.520553 
L 288.244419 200.077647 
L 288.514108 199.299357 
L 288.591162 199.442723 
L 288.783797 199.731048 
L 288.822325 199.644072 
L 289.631392 195.234099 
L 289.746974 195.540254 
L 290.016663 197.351675 
L 290.247825 198.506136 
L 290.478987 199.41431 
L 290.633096 199.732788 
L 290.748677 200.037783 
L 291.326582 203.189504 
L 292.058596 207.593099 
L 292.174177 207.526127 
L 292.289758 207.57063 
L 292.713556 208.677254 
L 293.060299 210.495343 
L 293.44557 212.268348 
L 293.83084 212.985031 
L 294.100529 213.826089 
L 294.447273 215.137542 
L 294.4858 215.055349 
L 294.639908 214.102962 
L 294.909597 212.912261 
L 295.025178 212.948066 
L 295.140759 213.13347 
L 295.179287 213.087952 
L 295.52603 211.610375 
L 295.603084 211.661981 
L 295.795719 212.196158 
L 295.988354 212.84094 
L 296.026881 212.75324 
L 296.373625 211.968136 
L 296.489206 211.906818 
L 296.643314 212.277336 
L 296.797422 212.785131 
L 296.835949 212.704388 
L 297.067112 212.188186 
L 297.182693 212.393739 
L 297.298274 212.700184 
L 297.375328 212.638866 
L 297.490909 212.711781 
L 297.683544 213.35004 
L 297.914707 213.898424 
L 297.991761 213.960177 
L 298.030288 213.900743 
L 298.145869 213.009819 
L 298.531139 208.902522 
L 298.762301 207.707037 
L 298.877883 207.342463 
L 299.532842 204.857703 
L 299.648423 204.884811 
L 299.802532 205.415364 
L 300.072221 206.375145 
L 300.149275 206.418053 
L 300.534545 205.046296 
L 300.6116 205.126894 
L 300.765708 205.344769 
L 300.881289 204.59663 
L 301.150978 203.090206 
L 301.228032 203.140072 
L 301.613303 204.312074 
L 301.767411 204.733328 
L 301.805938 204.715788 
L 301.921519 204.766379 
L 302.152681 205.017014 
L 302.306789 204.934532 
L 302.345316 204.984543 
L 302.537952 205.443632 
L 302.576479 205.400579 
L 302.923222 203.827763 
L 303.038803 204.075209 
L 303.539655 206.386741 
L 304.310196 210.54289 
L 304.38725 210.715682 
L 304.425777 210.695098 
L 304.579885 210.199334 
L 304.733993 208.861354 
L 305.042209 206.787846 
L 305.350426 207.295206 
L 305.620115 208.643914 
L 306.46771 214.158772 
L 306.583291 214.080348 
L 306.698872 214.205449 
L 307.161197 215.073904 
L 307.199724 215.097098 
L 307.430886 214.63598 
L 307.546467 214.776012 
L 307.584994 214.649172 
L 307.739102 214.297499 
L 307.777629 214.312864 
L 307.931738 214.637865 
L 308.047319 214.917058 
L 308.085846 214.849941 
L 308.201427 214.731654 
L 308.239954 214.753688 
L 308.432589 215.175521 
L 308.663751 215.392092 
L 308.894914 215.870894 
L 309.280184 217.051449 
L 309.318711 216.980273 
L 310.24336 213.429043 
L 310.281887 213.4576 
L 310.744212 214.251836 
L 310.975374 214.700632 
L 311.090955 214.63685 
L 311.168009 214.397666 
L 311.514753 212.512751 
L 311.822969 211.548912 
L 311.861496 211.57602 
L 311.93855 211.658212 
L 311.977077 211.556595 
L 312.285293 211.037928 
L 312.59351 210.362849 
L 312.670564 210.46983 
L 312.747618 210.659582 
L 312.786145 210.630735 
L 313.017307 210.065391 
L 313.055834 210.10685 
L 313.171415 210.341685 
L 313.209942 210.302691 
L 313.518159 209.785184 
L 313.787848 209.675739 
L 313.826375 209.735317 
L 313.864902 209.70647 
L 313.980483 209.571513 
L 314.01901 209.606738 
L 314.2887 210.272974 
L 314.365754 210.129609 
L 314.596916 209.954932 
L 314.712497 210.121926 
L 314.943659 211.078807 
L 315.675673 214.487831 
L 315.7142 214.607423 
L 315.752727 214.532624 
L 316.215052 212.142378 
L 316.253579 212.183837 
L 316.831484 213.497174 
L 317.178228 214.815586 
L 317.216755 214.752093 
L 317.40939 214.398826 
L 317.486444 214.439414 
L 317.524971 214.34838 
L 317.679079 213.625899 
L 317.910242 212.935599 
L 318.06435 212.873846 
L 318.218458 211.946102 
L 318.488147 209.30783 
L 318.642255 208.927455 
L 318.680783 208.94862 
L 319.10458 209.432061 
L 319.143107 209.420174 
L 319.258688 208.54998 
L 319.48985 207.157494 
L 319.566904 207.145607 
L 319.605432 207.204171 
L 319.798067 207.940713 
L 320.298918 210.667555 
L 320.375972 210.590871 
L 320.684189 209.325516 
L 320.761243 209.376107 
L 320.838297 209.025738 
L 321.030932 208.22353 
L 321.300621 208.245419 
L 321.493257 209.079373 
L 321.955581 211.902904 
L 322.032635 211.730257 
L 322.417906 210.620298 
L 322.533487 210.772071 
L 322.957284 211.656617 
L 322.995811 211.640817 
L 323.265501 210.906739 
L 323.458136 211.014589 
L 323.881933 208.565345 
L 323.958987 208.540122 
L 324.113096 207.73139 
L 324.344258 206.920339 
L 324.459839 207.019347 
L 324.613947 207.288248 
L 324.652474 207.263315 
L 324.768055 207.317095 
L 324.96069 207.78749 
L 325.037745 207.694426 
L 325.307434 207.159523 
L 325.345961 207.193444 
L 325.500069 207.591214 
L 325.538596 207.51482 
L 325.808285 206.564607 
L 325.923867 206.619402 
L 326.116502 207.382182 
L 326.617353 210.805267 
L 327.426421 215.931488 
L 327.580529 216.599028 
L 327.619056 216.588736 
L 327.69611 216.23025 
L 328.042854 214.09267 
L 328.158435 213.977572 
L 328.196962 214.001925 
L 328.35107 214.316923 
L 328.466651 214.537552 
L 328.505178 214.474495 
L 328.620759 214.227483 
L 329.00603 212.761647 
L 329.121611 212.222686 
L 329.429827 210.683501 
L 329.583936 210.295443 
L 329.622463 210.30559 
L 329.738044 210.554052 
L 330.04626 212.051778 
L 330.354476 213.087807 
L 330.393003 213.082009 
L 330.624166 212.320679 
L 330.662693 212.335175 
L 330.816801 212.696125 
L 330.970909 212.872687 
L 331.394707 212.177169 
L 331.433234 212.222831 
L 331.510288 212.168036 
L 331.74145 211.852313 
L 331.857031 211.976399 
L 332.12672 212.84181 
L 332.242301 212.621471 
L 332.589045 211.980458 
L 332.743153 212.309227 
L 332.820207 212.421426 
L 332.858734 212.368951 
L 333.051369 212.203551 
L 333.205478 212.499415 
L 333.321059 212.629009 
L 333.744856 211.804042 
L 333.976018 210.995455 
L 334.053072 211.100986 
L 334.284235 212.095556 
L 334.669505 213.832032 
L 334.86214 213.884797 
L 335.054776 214.303732 
L 335.170357 214.681643 
L 335.247411 214.551324 
L 335.362992 214.447677 
L 335.401519 214.483337 
L 335.555627 214.804714 
L 335.594154 214.733393 
L 335.863843 214.027293 
L 335.902371 214.046138 
L 336.056479 214.369109 
L 336.133533 214.566689 
L 336.17206 214.482323 
L 336.287641 214.296919 
L 336.326168 214.312864 
L 336.480276 214.665552 
L 336.55733 214.775142 
L 336.595857 214.7447 
L 337.327871 213.698379 
L 337.520506 213.683158 
L 337.674614 213.909586 
L 337.713142 213.814927 
L 337.86725 212.422876 
L 338.25252 208.806269 
L 338.599264 209.183455 
L 338.90748 211.037493 
L 339.254223 212.749471 
L 339.716548 214.885746 
L 339.755075 214.840229 
L 340.217399 212.869498 
L 340.294453 212.924292 
L 340.410035 213.016777 
L 340.448562 212.961547 
L 340.641197 212.599582 
L 340.679724 212.615093 
L 340.833832 212.940093 
L 340.910886 212.773824 
L 341.180575 212.289223 
L 341.219102 212.315171 
L 341.373211 212.737729 
L 341.527319 213.414402 
L 341.565846 213.371349 
L 342.451968 207.411029 
L 342.529022 207.525112 
L 342.721657 208.215267 
L 342.798711 208.102198 
L 343.299563 206.776104 
L 343.33809 206.835393 
L 343.530725 207.058921 
L 343.646306 207.33594 
L 344.185685 209.948119 
L 344.493901 211.111423 
L 344.648009 211.707353 
L 344.686536 211.624436 
L 344.994753 210.1615 
L 345.302969 209.673564 
L 345.41855 209.389588 
L 345.611185 209.07227 
L 345.726766 209.304786 
L 346.45878 212.235588 
L 346.844051 213.907991 
L 346.921105 213.931764 
L 346.998159 213.679099 
L 347.306375 212.452593 
L 347.653119 212.509852 
L 347.999862 213.093461 
L 348.192497 212.711056 
L 348.269551 212.801511 
L 348.500713 213.639815 
L 348.731876 214.32678 
L 348.847457 214.189938 
L 348.963038 214.127171 
L 349.001565 214.160511 
L 349.1942 214.626848 
L 349.733579 216.2662 
L 349.84916 215.268441 
L 350.118849 213.339748 
L 350.23443 213.357143 
L 350.311484 213.471806 
L 350.350012 213.407009 
L 350.619701 212.830793 
L 350.735282 212.927192 
L 351.236133 211.831294 
L 351.54435 211.510788 
L 351.659931 211.55703 
L 352.045201 212.218627 
L 352.122255 212.156004 
L 352.276364 212.122954 
L 352.700161 212.912261 
L 353.663337 216.251849 
L 353.817445 216.48335 
L 354.010081 216.368687 
L 354.27977 215.019399 
L 354.472405 214.452026 
L 354.587986 214.520737 
L 354.742094 214.732958 
L 354.780621 214.676279 
L 355.127365 214.164715 
L 355.204419 214.268941 
L 355.435581 214.498993 
L 355.589689 214.736582 
L 355.743797 215.083617 
L 355.782325 214.949094 
L 356.475811 212.206306 
L 356.629919 212.024091 
L 356.668446 212.048879 
L 356.822555 212.438966 
L 357.01519 213.234217 
L 357.053717 213.098679 
L 357.246352 212.431284 
L 357.361933 212.617267 
L 357.631623 213.847543 
L 357.785731 214.360121 
L 357.824258 214.347655 
L 357.939839 214.476669 
L 358.209528 214.956487 
L 358.363636 214.843563 
L 358.633326 214.231832 
L 358.671853 214.257345 
L 358.825961 214.598291 
L 359.09565 215.364839 
L 359.134177 215.234665 
L 359.326812 212.988655 
L 359.789137 208.814821 
L 359.904718 208.886722 
L 360.212934 209.409447 
L 360.251461 209.369438 
L 360.40557 209.035451 
L 360.559678 207.318689 
L 360.752313 206.133786 
L 360.829367 206.180608 
L 361.17611 207.083274 
L 361.253165 206.976584 
L 361.599908 205.688614 
L 361.715489 205.484076 
L 361.754016 205.506544 
L 361.83107 205.471754 
L 362.293395 203.932569 
L 362.524557 203.362876 
L 362.563084 203.425354 
L 362.717192 204.076369 
L 363.256571 206.654048 
L 363.295098 206.739284 
L 363.372152 206.660716 
L 363.564787 206.767551 
L 363.757422 207.469013 
L 363.950058 208.640724 
L 364.027112 208.411108 
L 364.18122 208.029428 
L 364.296801 208.343556 
L 364.643544 209.531794 
L 364.797652 209.74358 
L 365.182923 210.866005 
L 365.22145 210.813965 
L 365.375558 210.258768 
L 365.722301 208.199176 
L 365.914937 207.58614 
L 366.26168 204.824073 
L 366.646951 200.581383 
L 366.762532 200.245221 
L 366.801059 200.256673 
L 366.91664 200.581818 
L 367.147802 201.939514 
L 367.224856 201.642346 
L 367.494545 200.518906 
L 367.610127 200.762728 
L 367.841289 202.074326 
L 368.303613 204.771597 
L 368.419194 204.333673 
L 368.573303 202.619666 
L 368.881519 199.692779 
L 368.958573 199.664511 
L 369.074154 200.031985 
L 369.883222 204.268151 
L 369.921749 204.185089 
L 370.075857 203.870526 
L 370.191438 204.135078 
L 370.384074 204.855674 
L 370.461128 204.811171 
L 370.576709 204.904815 
L 370.769344 205.709198 
L 371.424304 209.869985 
L 371.501358 209.737202 
L 371.771047 208.52838 
L 372.194845 206.1377 
L 373.158021 199.824112 
L 373.350656 199.719306 
L 373.504764 199.476063 
L 373.581818 199.07003 
L 373.581818 199.07003 
" style="fill:none;stroke:#000000;stroke-linecap:square;stroke-width:1.5;"/>
   </g>
   <g id="line2d_19">
    <path clip-path="url(#p77c9e7d895)" d="M 69.218182 215.148414 
L 69.410817 214.173558 
L 69.564925 214.131664 
L 69.75756 213.45789 
L 69.796087 213.472386 
L 69.911669 213.764916 
L 70.219885 215.45254 
L 70.874845 218.957818 
L 70.951899 219.05784 
L 70.990426 219.02015 
L 71.106007 218.583096 
L 71.45275 214.153118 
L 71.876548 209.365235 
L 72.261818 207.940568 
L 72.49298 206.884534 
L 72.608562 207.210839 
L 73.571738 212.682934 
L 73.995535 214.724116 
L 74.303751 213.836236 
L 74.380806 213.946116 
L 74.611968 214.763835 
L 75.151346 217.225401 
L 75.189873 217.177129 
L 76.191577 211.891887 
L 76.384212 211.888118 
L 76.808009 209.776341 
L 76.846536 209.813306 
L 77.000644 210.37894 
L 77.462969 212.390695 
L 77.655604 212.454912 
L 77.771185 212.417077 
L 77.96382 211.925228 
L 78.387618 212.22689 
L 78.503199 212.379243 
L 78.734361 213.286258 
L 79.004051 214.225308 
L 79.158159 214.446952 
L 79.466375 215.068686 
L 79.736064 214.588723 
L 79.774591 214.632356 
L 79.967227 215.144935 
L 80.468078 216.783273 
L 80.506605 216.731377 
L 80.814822 215.701146 
L 81.123038 214.358092 
L 81.277146 214.357947 
L 81.469781 214.693094 
L 81.508308 214.60148 
L 81.855052 213.709976 
L 82.00916 213.586905 
L 82.163268 213.8229 
L 82.355903 214.377806 
L 82.39443 214.323591 
L 82.548539 213.556898 
L 83.164971 210.249346 
L 83.280552 210.320956 
L 83.588769 210.685095 
L 83.627296 210.59696 
L 83.819931 210.149903 
L 83.858458 210.163094 
L 84.012566 210.496212 
L 84.397837 211.787081 
L 84.628999 212.37272 
L 84.783107 212.543772 
L 85.12985 211.344663 
L 85.245432 210.982698 
L 85.39954 210.637259 
L 85.438067 210.656973 
L 85.592175 210.983423 
L 85.630702 210.853394 
L 85.823337 210.296892 
L 85.861864 210.311533 
L 85.938918 210.173242 
L 86.054499 209.971892 
L 86.093026 209.997405 
L 86.709459 210.851075 
L 86.786513 210.714232 
L 87.248838 208.810328 
L 87.325892 208.921222 
L 87.595581 209.567744 
L 87.711162 209.879263 
L 87.749689 209.803014 
L 87.942325 209.47149 
L 88.057906 209.725605 
L 88.52023 211.170421 
L 88.635811 210.654509 
L 88.828446 210.014365 
L 88.944028 210.175706 
L 89.021082 210.372852 
L 89.059609 210.349223 
L 89.252244 209.66994 
L 89.753096 207.268823 
L 89.907204 207.292596 
L 90.138366 207.087913 
L 90.253947 207.117195 
L 90.369528 207.327242 
L 90.947434 204.576191 
L 91.024488 204.689115 
L 91.217123 205.635559 
L 91.717975 208.24194 
L 91.872083 208.782785 
L 91.91061 208.762926 
L 92.026191 208.764665 
L 92.180299 209.143156 
L 92.257353 209.230277 
L 92.29588 209.153593 
L 92.527043 207.737624 
L 92.719678 206.894246 
L 92.835259 207.109222 
L 93.104948 208.525916 
L 93.490219 210.970377 
L 93.528746 210.864846 
L 93.836962 209.43728 
L 93.99107 209.501352 
L 94.64603 208.252377 
L 94.877192 207.216348 
L 94.992773 207.205186 
L 95.185409 207.436252 
L 95.378044 207.945061 
L 95.416571 207.862434 
L 95.878895 205.171107 
L 95.994476 205.329838 
L 96.379747 206.181623 
L 96.842071 206.598963 
L 97.111761 207.802566 
L 97.188815 207.603246 
L 97.419977 207.00688 
L 97.535558 207.16938 
L 97.76672 208.101328 
L 97.920829 208.663628 
L 97.959356 208.647393 
L 98.074937 208.101908 
L 98.614315 204.523716 
L 98.691369 204.440798 
L 98.729896 204.471095 
L 99.346329 205.805017 
L 99.423383 205.59526 
L 99.7316 204.716367 
L 99.847181 204.563 
L 100.001289 204.267426 
L 100.039816 204.289315 
L 100.155397 204.339761 
L 100.309505 204.034041 
L 100.656249 202.76912 
L 100.925938 203.253431 
L 101.118573 203.85632 
L 101.349735 204.513713 
L 101.503843 204.976281 
L 102.351438 208.368924 
L 102.46702 208.29601 
L 102.890817 207.198952 
L 103.353142 205.643387 
L 103.430196 205.491468 
L 103.738412 204.062163 
L 103.853993 204.291924 
L 104.54748 207.180252 
L 104.701588 207.379283 
L 104.855696 207.55077 
L 105.086858 208.360952 
L 105.125386 208.498084 
L 105.20244 208.449377 
L 105.549183 208.409223 
L 105.780345 209.278404 
L 106.165616 210.897462 
L 106.358251 209.729519 
L 106.743521 208.00377 
L 106.859102 207.973619 
L 107.090265 208.29514 
L 107.128792 208.215557 
L 107.514062 206.597368 
L 107.591116 206.686519 
L 107.783751 206.982382 
L 107.822278 206.91802 
L 107.976387 206.383552 
L 108.631346 203.907491 
L 108.746928 203.924886 
L 108.901036 204.354692 
L 109.247779 206.23004 
L 109.440414 206.887288 
L 109.671577 207.22403 
L 110.133901 208.11452 
L 110.365063 208.829752 
L 110.442117 208.542442 
L 110.788861 206.806836 
L 111.097077 206.357749 
L 111.174131 206.436028 
L 111.482348 206.571276 
L 111.597929 206.667239 
L 111.790564 207.126037 
L 111.829091 207.023841 
L 112.137307 205.850389 
L 112.252888 206.051014 
L 112.792267 207.665144 
L 112.830794 207.539898 
L 113.100483 206.820027 
L 113.370173 206.642306 
L 113.524281 206.923528 
L 113.832497 208.23933 
L 114.140713 209.186934 
L 114.217768 209.236945 
L 114.564511 208.200626 
L 114.949781 205.932002 
L 114.988308 205.95592 
L 115.142417 206.367462 
L 115.335052 206.796398 
L 115.373579 206.777409 
L 115.450633 206.672748 
L 115.681795 206.167707 
L 115.720322 206.188291 
L 115.87443 206.160604 
L 116.336755 204.929604 
L 116.452336 204.749273 
L 116.606444 204.583294 
L 116.722025 204.770437 
L 117.18435 206.147992 
L 117.222877 206.126248 
L 117.338458 205.327519 
L 117.608147 203.806888 
L 117.685201 203.857479 
L 117.877837 204.523136 
L 118.108999 205.207347 
L 118.301634 205.828645 
L 118.571323 206.648539 
L 118.763959 206.607371 
L 118.918067 206.979773 
L 119.187756 207.657171 
L 119.26481 207.711966 
L 119.303337 207.674711 
L 119.418918 207.452052 
L 119.804189 205.837053 
L 120.227986 204.34382 
L 120.266513 204.368898 
L 120.420621 204.830596 
L 120.805892 207.150971 
L 121.152635 208.883822 
L 121.306743 209.278838 
L 121.846122 210.984873 
L 121.923176 210.638998 
L 122.346974 207.996087 
L 122.385501 208.024355 
L 122.539609 208.470396 
L 122.809298 209.729664 
L 122.924879 209.676464 
L 123.001933 209.718937 
L 123.04046 209.656749 
L 123.271623 209.215926 
L 123.387204 209.394516 
L 123.464258 209.546435 
L 123.502785 209.523096 
L 123.618366 208.689431 
L 123.965109 206.465165 
L 124.042163 206.385147 
L 124.08069 206.415588 
L 124.311853 206.761318 
L 124.35038 206.73624 
L 124.465961 206.666514 
L 124.658596 204.77957 
L 124.966812 203.385924 
L 125.082394 203.201245 
L 125.120921 203.234151 
L 125.275029 203.725856 
L 125.660299 206.134366 
L 125.852934 206.708698 
L 126.084097 207.689497 
L 126.276732 208.447783 
L 126.43084 207.439441 
L 126.584948 205.143564 
L 126.854638 202.054612 
L 127.316962 199.853829 
L 127.548124 199.184694 
L 127.740759 199.195856 
L 127.894868 199.668715 
L 128.010449 200.04967 
L 128.048976 199.991106 
L 128.203084 199.490994 
L 128.549827 197.611443 
L 128.665409 197.894985 
L 128.935098 199.565359 
L 129.82122 205.56018 
L 129.975328 205.482046 
L 130.283544 206.133061 
L 130.514707 207.021666 
L 130.938504 208.67421 
L 131.015558 208.683778 
L 131.169666 208.008989 
L 131.439356 206.860326 
L 131.51641 206.706523 
L 131.978734 204.668531 
L 132.094315 204.544445 
L 132.286951 204.216545 
L 132.402532 204.451525 
L 132.518113 204.691869 
L 132.55664 204.613881 
L 132.710748 204.364839 
L 132.749275 204.385279 
L 132.787802 204.436015 
L 132.826329 204.384409 
L 132.94191 203.778621 
L 133.635397 198.106046 
L 133.750978 198.325081 
L 134.444465 201.249939 
L 134.983843 204.249016 
L 135.29206 205.68673 
L 135.754384 207.786765 
L 135.831438 207.600202 
L 135.985547 206.202497 
L 136.33229 202.408604 
L 136.486398 202.020111 
L 136.833142 202.413533 
L 136.871669 202.331775 
L 137.449574 200.08446 
L 137.565155 200.094753 
L 137.834845 200.585587 
L 138.258642 201.758169 
L 138.605386 200.636033 
L 138.875075 199.532018 
L 139.45298 198.886946 
L 139.530035 199.007118 
L 139.684143 199.079308 
L 139.953832 199.70684 
L 140.030886 199.593046 
L 140.300575 199.056694 
L 140.339102 199.118157 
L 140.608792 199.899781 
L 140.647319 199.823098 
L 141.109643 198.076185 
L 141.340806 196.923028 
L 141.610495 196.918969 
L 141.880184 197.275716 
L 142.419563 196.504238 
L 142.804833 195.455163 
L 142.881887 195.527643 
L 143.267158 196.66065 
L 143.382739 196.555119 
L 143.49832 196.628034 
L 143.690955 197.336889 
L 143.88359 197.853526 
L 144.076226 198.243324 
L 145.000875 201.183837 
L 145.19351 201.15441 
L 145.347618 200.417724 
L 145.617307 199.312114 
L 145.732888 199.483746 
L 146.079632 199.905 
L 146.272267 200.169987 
L 146.811646 201.339959 
L 147.042808 201.285599 
L 147.235443 200.895947 
L 147.428078 200.895947 
L 147.582186 200.931027 
L 147.813349 201.357644 
L 147.851876 201.251968 
L 148.237146 199.970232 
L 148.468308 199.746414 
L 148.622417 200.06837 
L 148.930633 201.547397 
L 149.62412 205.309399 
L 149.662647 205.290264 
L 149.816755 204.454425 
L 150.086444 203.221395 
L 150.356133 202.715774 
L 150.471715 202.421506 
L 150.741404 201.495211 
L 150.934039 201.086714 
L 151.242255 200.258412 
L 151.31931 200.368872 
L 151.473418 200.726488 
L 151.511945 200.652559 
L 151.70458 200.388732 
L 151.743107 200.422797 
L 151.781634 200.370177 
L 151.935742 200.093738 
L 151.974269 200.129253 
L 152.282486 200.591096 
L 152.398067 200.797229 
L 152.436594 200.728953 
L 152.667756 199.586958 
L 153.091554 197.680299 
L 153.322716 196.98594 
L 153.438297 197.007829 
L 153.553878 196.758063 
L 153.862094 195.206991 
L 153.900621 195.215544 
L 154.016203 195.373985 
L 154.05473 195.322524 
L 154.131784 195.275847 
L 154.170311 195.316581 
L 154.324419 195.86395 
L 154.555581 196.786476 
L 154.594108 196.730666 
L 154.709689 196.614843 
L 154.748216 196.641371 
L 155.017906 197.039866 
L 155.249068 198.040524 
L 155.403176 198.63544 
L 155.441703 198.610362 
L 155.942555 197.930645 
L 156.096663 197.189609 
L 156.366352 195.598963 
L 156.443406 195.613314 
L 156.597514 196.041961 
L 157.368055 198.891875 
L 157.483636 198.913764 
L 157.637745 198.901297 
L 157.791853 199.339366 
L 158.061542 200.421492 
L 158.100069 200.379454 
L 159.602624 192.516099 
L 159.949367 190.037428 
L 160.064948 189.689814 
L 160.103475 189.700831 
L 160.29611 190.085989 
L 160.334638 189.980169 
L 160.450219 189.773456 
L 160.488746 189.797519 
L 160.681381 190.363443 
L 160.95107 191.385556 
L 161.028124 191.212184 
L 161.259287 190.658292 
L 161.374868 190.840796 
L 161.60603 191.544722 
L 161.683084 191.476011 
L 161.798665 191.459775 
L 161.952773 191.827104 
L 162.26099 193.502552 
L 162.376571 193.848716 
L 162.415098 193.789138 
L 162.607733 193.572567 
L 162.838895 193.974976 
L 162.993003 194.221988 
L 163.339747 192.297064 
L 163.416801 192.399261 
L 163.570909 192.556108 
L 163.725017 192.650767 
L 164.033234 191.992358 
L 164.071761 192.0228 
L 164.264396 192.515954 
L 164.34145 192.614382 
L 164.495558 191.746361 
L 165.304626 187.052412 
L 165.420207 186.881359 
L 165.458734 186.919338 
L 165.612842 187.432352 
L 166.190748 190.132522 
L 166.229275 190.021337 
L 166.498964 189.295812 
L 166.614545 189.457298 
L 166.807181 190.318215 
L 166.999816 190.858481 
L 167.308032 191.710846 
L 167.539194 192.398246 
L 167.577722 192.346351 
L 168.1171 189.32234 
L 168.194154 189.28697 
L 168.386789 188.94356 
L 168.502371 189.073589 
L 168.77206 189.950307 
L 168.887641 189.885365 
L 169.003222 190.006696 
L 169.388493 191.049249 
L 169.42702 190.993874 
L 170.236087 185.470898 
L 170.505777 183.871699 
L 170.621358 183.640198 
L 170.659885 183.667451 
L 170.813993 184.209021 
L 171.199264 185.88186 
L 171.391899 185.773719 
L 171.661588 185.370151 
L 171.700115 185.418277 
L 171.854223 185.932161 
L 172.008331 186.27963 
L 172.200967 186.318044 
L 172.509183 186.587235 
L 172.663291 186.633332 
L 172.817399 187.097349 
L 172.93298 187.435251 
L 172.971507 187.363351 
L 173.356778 186.0432 
L 173.780575 183.56163 
L 173.896157 183.784143 
L 174.127319 185.001517 
L 174.743751 188.861802 
L 174.782278 188.806572 
L 174.89786 188.259204 
L 175.129022 187.345956 
L 175.244603 187.570064 
L 175.475765 188.817879 
L 175.629873 189.302916 
L 175.822509 188.767288 
L 176.015144 188.227167 
L 176.053671 188.246882 
L 176.169252 188.545065 
L 176.438941 190.142524 
L 177.170955 194.911853 
L 177.286536 194.824007 
L 177.325063 194.864016 
L 177.402117 195.052319 
L 177.479171 194.95969 
L 177.556226 194.935191 
L 177.594753 194.992161 
L 177.63328 195.049855 
L 177.710334 194.979404 
L 177.825915 195.03014 
L 177.980023 195.487634 
L 178.057077 195.336006 
L 178.172658 195.149442 
L 178.211185 195.171621 
L 178.365293 195.615199 
L 178.634983 196.348116 
L 178.789091 196.418277 
L 178.981726 196.990579 
L 179.251415 197.769304 
L 179.444051 198.369149 
L 179.675213 198.915793 
L 179.752267 199.066841 
L 179.790794 199.006828 
L 179.906375 198.046903 
L 180.176064 196.06182 
L 180.3687 194.886485 
L 180.676916 193.036215 
L 180.792497 192.956342 
L 180.831024 192.996351 
L 181.139241 193.344255 
L 181.601565 192.012653 
L 182.06389 190.733961 
L 182.179471 190.849349 
L 182.333579 191.036782 
L 182.410633 190.800352 
L 182.564741 189.399749 
L 182.911484 186.066394 
L 183.10412 185.788505 
L 183.219701 185.830109 
L 183.373809 185.977243 
L 183.412336 185.924333 
L 183.759079 185.082115 
L 183.913188 184.726528 
L 183.951715 184.73682 
L 184.105823 185.085449 
L 184.259931 185.670943 
L 184.336985 185.616728 
L 184.452566 185.67906 
L 184.568147 185.76966 
L 184.683728 185.278971 
L 184.953418 182.501827 
L 185.146053 179.039603 
L 185.993648 153.107128 
L 186.032175 146.210076 
L 186.109229 85.690871 
L 186.263337 180.708527 
L 186.417445 188.322116 
L 186.648608 189.941464 
L 187.419148 193.769858 
L 187.457675 193.700857 
L 187.804419 192.359107 
L 188.074108 192.376792 
L 188.343797 191.844644 
L 188.382325 191.892336 
L 188.690541 192.334319 
L 188.883176 192.102093 
L 189.114338 191.801881 
L 189.229919 191.962207 
L 189.422555 192.074841 
L 189.499609 191.998447 
L 189.730771 191.464704 
L 189.769298 191.485723 
L 189.961933 191.628219 
L 190.193096 192.421005 
L 190.385731 192.842984 
L 190.616893 191.592414 
L 190.848055 190.775274 
L 190.963636 190.9543 
L 191.194799 192.047443 
L 191.425961 192.884297 
L 191.580069 192.991133 
L 191.657123 193.053321 
L 191.69565 193.007223 
L 191.811231 192.78384 
L 191.965339 192.295615 
L 192.003867 192.309096 
L 192.119448 192.606699 
L 192.466191 194.061517 
L 192.504718 193.996285 
L 193.044097 192.650622 
L 193.159678 192.213567 
L 194.0458 187.92826 
L 194.43107 182.325846 
L 195.278665 175.355299 
L 195.394246 175.320509 
L 195.586881 174.234179 
L 195.856571 173.26976 
L 195.972152 173.304405 
L 196.473003 174.224321 
L 196.550058 174.099656 
L 196.665639 173.548808 
L 196.935328 172.406668 
L 197.089436 172.395506 
L 197.397652 171.473995 
L 197.474707 171.508931 
L 197.82145 171.532994 
L 198.360829 172.191402 
L 198.553464 173.594905 
L 199.015788 177.900797 
L 199.054315 177.881082 
L 199.246951 177.106126 
L 199.51664 176.409303 
L 199.863383 175.00928 
L 200.364235 169.317135 
L 200.55687 162.553447 
L 200.672451 149.239306 
L 200.749505 70.242049 
L 200.788032 140.418924 
L 200.980667 188.875284 
L 201.173303 191.51515 
L 201.288884 191.9135 
L 201.327411 191.891756 
L 201.712681 191.177828 
L 201.751208 191.210879 
L 201.905316 191.552985 
L 202.097952 192.189649 
L 202.136479 192.124997 
L 202.367641 190.742803 
L 202.598803 189.890148 
L 202.714384 189.986692 
L 202.90702 190.727582 
L 203.716087 194.840677 
L 203.754614 194.807192 
L 203.94725 194.604538 
L 204.062831 194.805597 
L 204.255466 195.477052 
L 204.293993 195.384422 
L 204.525155 194.823862 
L 204.640736 194.871119 
L 204.871899 194.19633 
L 205.295696 192.821095 
L 205.411277 193.004179 
L 205.565386 193.208863 
L 205.64244 193.140152 
L 205.835075 192.914594 
L 206.02771 192.988379 
L 206.220345 193.368464 
L 206.258872 193.263803 
L 206.490035 192.606409 
L 206.759724 192.737163 
L 207.106467 192.321563 
L 207.915535 186.73118 
L 208.069643 186.368635 
L 208.339333 186.791918 
L 208.416387 186.689287 
L 208.686076 185.206056 
L 208.917238 184.371811 
L 209.225455 184.263961 
L 209.41809 182.909455 
L 211.190334 163.936365 
L 211.382969 156.326835 
L 211.460023 146.978509 
L 211.537077 79.57008 
L 211.575604 133.69394 
L 211.768239 177.808312 
L 211.960875 180.541533 
L 212.654361 183.634545 
L 212.885524 184.076818 
L 213.078159 184.691013 
L 213.155213 184.897726 
L 213.19374 184.750012 
L 214.041335 178.162595 
L 214.272497 177.485631 
L 214.542186 176.631382 
L 214.657768 176.753583 
L 214.850403 177.465482 
L 215.197146 179.799048 
L 216.121795 187.45772 
L 216.160322 187.303192 
L 216.468539 182.58286 
L 217.316133 159.240966 
L 217.431715 150.323316 
L 217.470242 142.642176 
L 217.547296 104.17762 
L 217.701404 175.505333 
L 217.894039 182.078544 
L 218.202255 184.441392 
L 218.66458 185.186486 
L 218.857215 185.08168 
L 219.011323 185.505253 
L 219.31954 187.417131 
L 219.512175 187.976966 
L 219.935972 187.866797 
L 220.013026 187.704007 
L 220.167135 186.658845 
L 220.398297 185.677611 
L 220.513878 185.481915 
L 220.860621 183.990856 
L 220.937675 184.163649 
L 221.207365 185.037612 
L 221.245892 185.002387 
L 221.631162 184.838003 
L 221.746743 185.056457 
L 222.093487 186.46112 
L 222.170541 186.308767 
L 222.324649 184.912077 
L 223.172244 173.077398 
L 223.634568 162.37964 
L 223.788677 152.700226 
L 223.865731 124.184709 
L 223.904258 86.096904 
L 223.942785 142.346313 
L 224.13542 180.212039 
L 224.212474 181.005405 
L 224.251001 180.963222 
L 224.443636 179.949082 
L 224.905961 176.370889 
L 225.252704 169.012574 
L 225.483867 158.356275 
L 225.560921 146.459698 
L 225.637975 83.419203 
L 225.792083 179.601033 
L 225.907664 183.078043 
L 225.946191 182.810157 
L 226.947894 172.573952 
L 227.179056 164.990224 
L 227.294638 156.007198 
L 227.333165 148.940688 
L 227.410219 72.659112 
L 227.448746 141.759515 
L 227.641381 185.853302 
L 227.679908 185.915345 
L 228.065178 183.891414 
L 228.180759 183.794725 
L 228.450449 181.961996 
L 229.143936 176.332909 
L 229.413625 171.328745 
L 229.721841 160.545461 
L 229.837422 150.678613 
L 229.875949 141.470464 
L 229.914476 91.534499 
L 229.953003 108.455969 
L 230.107112 177.144396 
L 230.184166 179.73831 
L 230.222693 179.662641 
L 230.376801 176.937103 
L 230.64649 167.369308 
L 230.800598 154.047484 
L 230.839125 142.070164 
L 230.877652 57.608205 
L 230.91618 99.424961 
L 231.070288 183.450445 
L 231.108815 184.933676 
L 231.185869 183.747613 
L 231.763774 161.00252 
L 231.879356 141.718201 
L 231.917883 72.540825 
L 231.95641 100.956174 
L 232.110518 180.452383 
L 232.187572 182.319757 
L 232.226099 181.93025 
L 232.765478 172.328679 
L 233.112221 162.525759 
L 233.266329 149.617796 
L 233.304856 137.189071 
L 233.343383 77.63037 
L 233.38191 115.725568 
L 233.536018 174.360584 
L 233.613072 175.760897 
L 233.6516 175.397193 
L 233.959816 169.527907 
L 234.152451 160.378757 
L 234.229505 150.543511 
L 234.268032 133.180492 
L 234.306559 61.476753 
L 234.345086 117.44117 
L 234.499194 178.075329 
L 234.537722 179.244286 
L 234.614776 178.510933 
L 234.884465 170.229804 
L 235.115627 156.591387 
L 235.192681 136.920315 
L 235.231208 64.061969 
L 235.269735 110.063286 
L 235.423843 177.830201 
L 235.500898 179.779044 
L 235.539425 179.560299 
L 235.847641 174.164598 
L 236.078803 166.760186 
L 236.271438 154.265504 
L 236.348493 127.067674 
L 236.38702 73.058042 
L 236.425547 131.130178 
L 236.579655 177.503172 
L 236.656709 178.968572 
L 236.695236 178.714747 
L 237.15756 172.042963 
L 237.350196 165.856215 
L 237.504304 154.272752 
L 237.542831 146.03395 
L 237.619885 80.945026 
L 237.773993 177.512159 
L 237.889574 181.210813 
L 237.928101 180.984821 
L 238.236318 177.388798 
L 238.428953 172.002229 
L 238.621588 160.11493 
L 238.698642 143.966096 
L 238.737169 59.610683 
L 238.775696 93.543934 
L 238.929804 184.351662 
L 239.006858 186.139019 
L 239.045386 185.587881 
L 239.661818 172.116893 
L 239.89298 160.979616 
L 239.970035 152.226206 
L 240.008562 140.064207 
L 240.047089 66.346684 
L 240.085616 111.399527 
L 240.239724 181.274451 
L 240.278251 182.013312 
L 240.316778 181.562052 
L 240.624994 172.270116 
L 240.856157 160.76551 
L 240.971738 141.235629 
L 241.010265 74.02449 
L 241.048792 102.140642 
L 241.2029 179.330537 
L 241.279954 181.192404 
L 241.318481 180.878275 
L 241.703751 174.505544 
L 242.011968 164.753215 
L 242.166076 153.117131 
L 242.204603 144.988788 
L 242.281657 86.009928 
L 242.435765 176.300004 
L 242.551346 179.572041 
L 242.589873 179.351267 
L 242.859563 176.436121 
L 243.090725 170.993598 
L 243.360414 159.828924 
L 243.475995 143.999436 
L 243.553049 89.556229 
L 243.707158 175.058711 
L 243.861266 178.925374 
L 244.015374 178.189267 
L 244.631807 171.829872 
L 244.862969 166.251521 
L 245.017077 156.96147 
L 245.094131 139.481613 
L 245.132658 69.145282 
L 245.171185 109.107999 
L 245.325293 178.586748 
L 245.402348 180.474417 
L 245.440875 180.201457 
L 245.710564 175.017687 
L 246.095834 164.268034 
L 246.249942 154.699949 
L 246.326997 138.431523 
L 246.365524 85.852936 
L 246.404051 109.543024 
L 246.558159 173.491838 
L 246.67374 176.588764 
L 246.712267 176.569774 
L 246.943429 175.368056 
L 247.097537 174.146333 
L 247.3287 169.548781 
L 247.559862 159.851537 
L 247.675443 144.460264 
L 247.752497 86.373198 
L 247.906605 172.731668 
L 248.022186 176.299714 
L 248.060713 176.245644 
L 248.291876 174.929552 
L 248.638619 170.539003 
L 248.869781 165.528026 
L 249.02389 157.886604 
L 249.100944 147.389326 
L 249.177998 74.836846 
L 249.216525 130.512503 
L 249.370633 174.999712 
L 249.524741 177.542601 
L 249.640322 177.414746 
L 249.79443 176.960731 
L 249.948539 174.564687 
L 250.333809 164.632318 
L 250.487917 151.594471 
L 250.526444 140.096533 
L 250.564971 73.409715 
L 250.603498 105.332951 
L 250.757606 177.220644 
L 250.873188 180.076356 
L 250.911715 180.042726 
L 251.065823 178.999159 
L 251.682255 172.036875 
L 251.874891 165.525996 
L 251.990472 155.375462 
L 252.028999 146.063667 
L 252.067526 83.094782 
L 252.106053 85.885262 
L 252.260161 181.237341 
L 252.337215 183.166759 
L 252.375742 182.625478 
L 252.683959 174.795609 
L 252.992175 162.141615 
L 253.107756 147.603722 
L 253.18481 75.332464 
L 253.223337 139.05659 
L 253.377445 180.327427 
L 253.415972 181.09731 
L 253.493026 180.755784 
L 253.724189 177.358646 
L 253.955351 170.519144 
L 254.147986 157.734252 
L 254.22504 134.268562 
L 254.263567 59.774052 
L 254.302094 120.479532 
L 254.456203 182.583585 
L 254.49473 183.553222 
L 254.533257 183.351293 
L 254.88 175.426764 
L 255.111162 168.543339 
L 255.26527 157.648 
L 255.342325 134.707356 
L 255.380852 60.660483 
L 255.419379 120.765972 
L 255.573487 182.027373 
L 255.612014 182.881622 
L 255.650541 182.633306 
L 256.035811 173.666225 
L 256.266974 164.643335 
L 256.382555 154.597607 
L 256.421082 146.501446 
L 256.498136 81.022724 
L 256.652244 178.015895 
L 256.729298 180.474707 
L 256.767825 179.995904 
L 257.076041 171.206544 
L 257.268677 159.474206 
L 257.345731 144.673935 
L 257.384258 78.220357 
L 257.422785 88.222452 
L 257.576893 180.349461 
L 257.653947 182.832771 
L 257.692474 182.538937 
L 258.039217 176.308846 
L 258.347434 164.603616 
L 258.463015 155.090181 
L 258.501542 147.571686 
L 258.578596 76.21614 
L 258.617123 140.459223 
L 258.771231 181.073681 
L 258.848285 181.962431 
L 258.886812 181.734699 
L 259.618826 175.29804 
L 259.811461 169.33714 
L 259.96557 159.820226 
L 260.042624 144.748735 
L 260.081151 71.055709 
L 260.119678 94.436308 
L 260.273786 183.608162 
L 260.35084 185.332171 
L 260.389367 184.861196 
L 260.928746 173.446176 
L 261.236962 162.997604 
L 261.39107 150.606278 
L 261.429597 141.356961 
L 261.468124 98.404733 
L 261.506651 103.808262 
L 261.660759 174.459156 
L 261.776341 176.897384 
L 261.814868 176.697629 
L 262.161611 174.850693 
L 262.277192 174.442921 
L 263.278895 167.159986 
L 263.47153 161.719637 
L 263.625639 149.416012 
L 263.664166 138.735214 
L 263.702693 88.595 
L 263.74122 109.486925 
L 263.895328 170.239371 
L 264.049436 174.070519 
L 264.434707 175.7867 
L 264.742923 176.835776 
L 265.012612 177.024514 
L 265.089666 176.871146 
L 265.397883 174.387546 
L 265.629045 170.437676 
L 265.860207 163.000648 
L 266.014315 149.577497 
L 266.052842 136.428176 
L 266.091369 75.052257 
L 266.129896 121.347697 
L 266.284005 176.395242 
L 266.438113 179.15789 
L 266.592221 179.110778 
L 267.054545 177.959506 
L 267.401289 177.333423 
L 267.555397 177.308345 
L 267.632451 177.296748 
L 267.979194 176.605289 
L 268.480046 174.167642 
L 268.711208 171.860604 
L 268.980898 164.491417 
L 269.173533 153.35559 
L 269.250587 131.908323 
L 269.289114 81.273215 
L 269.327641 131.455033 
L 269.481749 174.327823 
L 269.674384 178.130993 
L 269.905547 178.785343 
L 269.982601 178.806217 
L 270.25229 177.076554 
L 270.945777 173.094648 
L 271.562209 161.441459 
L 271.754845 153.656817 
L 271.870426 137.589305 
L 271.908953 112.364961 
L 271.94748 116.50009 
L 272.101588 157.559865 
L 272.217169 160.108261 
L 272.255696 159.945036 
L 272.371277 157.660322 
L 272.525386 148.004101 
L 272.60244 130.360585 
L 272.640967 109.006092 
L 272.679494 118.867866 
L 272.833602 148.017438 
L 272.872129 148.155295 
L 272.949183 144.752939 
L 273.103291 129.957886 
L 273.141818 131.858167 
L 273.218872 133.44113 
L 273.257399 132.709952 
L 273.488562 129.391817 
L 273.873832 127.17161 
L 274.104994 126.767316 
L 274.259102 126.786161 
L 274.721427 127.394848 
L 275.029643 128.458275 
L 275.607549 131.349937 
L 276.262509 136.155071 
L 276.570725 139.916058 
L 276.801887 146.083961 
L 276.994522 158.444845 
L 277.41832 190.685979 
L 277.649482 194.037309 
L 277.765063 193.99614 
L 277.842117 193.765799 
L 278.150334 192.674395 
L 278.342969 192.32968 
L 278.574131 192.281699 
L 278.689712 192.2601 
L 278.84382 192.655405 
L 278.920875 192.78326 
L 278.959402 192.685267 
L 279.152037 192.348525 
L 279.267618 192.41999 
L 279.537307 191.563422 
L 279.652888 191.848993 
L 279.922578 193.393397 
L 280.269321 195.059132 
L 280.53901 195.836698 
L 280.577537 195.734356 
L 280.731646 194.637009 
L 281.001335 193.173782 
L 281.078389 193.238145 
L 281.271024 193.990777 
L 281.463659 194.402608 
L 281.656295 195.132192 
L 281.810403 195.413414 
L 281.964511 195.531267 
L 282.003038 195.461106 
L 282.157146 194.755731 
L 282.388308 193.061438 
L 282.657998 190.218628 
L 282.735052 190.110488 
L 282.773579 190.145568 
L 282.850633 190.235153 
L 282.88916 190.213264 
L 283.043268 190.278641 
L 283.197376 190.474917 
L 283.235903 190.37301 
L 283.505593 189.588777 
L 283.621174 189.811435 
L 283.890863 190.530582 
L 283.92939 190.496371 
L 284.199079 189.180424 
L 284.353188 189.289434 
L 284.468769 188.551008 
L 284.776985 186.820331 
L 285.162255 186.465179 
L 285.393418 186.432997 
L 285.855742 184.727253 
L 285.971323 184.083196 
L 286.472175 180.180293 
L 286.587756 179.957054 
L 286.973026 177.988353 
L 287.204189 177.348644 
L 287.589459 175.154964 
L 287.97473 174.893457 
L 288.205892 175.324278 
L 288.244419 175.256002 
L 288.437054 173.635204 
L 288.976433 167.900441 
L 289.207595 159.017003 
L 289.323176 143.251153 
L 289.40023 97.933758 
L 289.554338 172.99535 
L 289.746974 177.631751 
L 290.247825 181.468697 
L 290.556041 182.358317 
L 290.671623 182.2725 
L 290.787204 182.435146 
L 291.288055 184.316871 
L 292.097123 188.307185 
L 292.13565 188.2521 
L 292.289758 188.091775 
L 292.328285 188.119172 
L 292.752083 188.888475 
L 293.060299 190.48347 
L 293.484097 192.597711 
L 294.023475 194.35941 
L 294.4858 196.654852 
L 294.524327 196.588605 
L 294.909597 195.031155 
L 294.986651 195.091893 
L 295.179287 195.495172 
L 295.217814 195.375145 
L 295.52603 194.155162 
L 295.641611 194.286785 
L 295.872773 195.150167 
L 295.988354 195.55707 
L 296.026881 195.505174 
L 296.450679 194.713113 
L 296.56626 194.843722 
L 296.797422 195.607516 
L 296.874476 195.424866 
L 297.067112 195.043042 
L 297.182693 195.220473 
L 297.298274 195.525179 
L 297.375328 195.481256 
L 297.490909 195.550981 
L 297.683544 196.184602 
L 297.914707 196.795463 
L 297.991761 196.872582 
L 298.030288 196.827499 
L 298.145869 195.986296 
L 298.608193 190.774115 
L 298.91641 189.299871 
L 299.686951 185.820107 
L 299.802532 186.047549 
L 300.033694 186.613328 
L 300.149275 186.489677 
L 300.958343 181.850377 
L 301.228032 179.903419 
L 301.38214 179.847755 
L 301.574776 179.957344 
L 301.728884 180.224796 
L 301.767411 180.161448 
L 302.422371 178.793026 
L 302.537952 178.755626 
L 302.615006 178.320311 
L 303.07733 174.765892 
L 303.269965 174.641371 
L 303.424074 174.801987 
L 303.616709 175.468658 
L 304.425777 179.627415 
L 304.502831 179.500865 
L 304.656939 178.596605 
L 305.273372 172.298673 
L 305.42748 172.096164 
L 305.543061 172.37898 
L 305.774223 173.854238 
L 306.275075 179.136726 
L 306.660345 182.386149 
L 307.276778 185.801552 
L 307.392359 186.037547 
L 308.663751 191.08114 
L 309.049022 193.233216 
L 309.318711 194.808641 
L 309.357238 194.796175 
L 309.549873 194.437689 
L 310.089252 193.084052 
L 310.204833 193.03665 
L 310.358941 193.369768 
L 311.090955 195.428635 
L 311.168009 195.288894 
L 311.630334 193.130729 
L 311.822969 192.680918 
L 311.93855 192.799061 
L 311.977077 192.722087 
L 312.632037 191.484419 
L 312.786145 191.652137 
L 313.017307 191.005181 
L 313.055834 191.020692 
L 313.171415 191.200007 
L 313.209942 191.159563 
L 313.556686 190.494342 
L 313.787848 190.281975 
L 313.864902 190.279656 
L 314.01901 190.134551 
L 314.2887 190.744543 
L 314.365754 190.608715 
L 314.635443 190.327928 
L 314.751024 190.491588 
L 314.982186 191.452817 
L 315.7142 195.039563 
L 315.752727 195.013035 
L 315.945362 193.865242 
L 316.176525 192.739627 
L 316.253579 192.78413 
L 316.446214 193.409052 
L 316.985593 195.192205 
L 317.216755 196.04428 
L 317.370863 195.874097 
L 317.40939 195.903814 
L 317.486444 196.014419 
L 317.524971 195.970786 
L 317.640552 195.607951 
L 317.910242 194.770807 
L 318.06435 194.766893 
L 318.218458 193.966279 
L 318.526674 190.97184 
L 318.680783 190.59219 
L 318.71931 190.616543 
L 318.988999 190.847029 
L 319.143107 190.818327 
L 319.258688 189.95654 
L 319.528377 188.141641 
L 319.605432 188.07351 
L 319.643959 188.101197 
L 319.798067 188.519697 
L 320.298918 190.827895 
L 320.375972 190.716565 
L 321.223567 187.247383 
L 321.300621 187.267677 
L 321.45473 187.723431 
L 321.801473 189.790851 
L 321.955581 190.670323 
L 321.994108 190.6451 
L 322.186743 189.977559 
L 322.456433 189.234784 
L 322.572014 189.384963 
L 322.957284 190.161659 
L 322.995811 190.166007 
L 323.304028 189.403808 
L 323.458136 189.445121 
L 323.997514 186.734079 
L 324.459839 184.849599 
L 324.613947 184.922369 
L 324.806582 184.761464 
L 324.96069 184.925703 
L 324.999217 184.853368 
L 325.191853 184.096242 
L 325.423015 183.576561 
L 325.500069 183.612656 
L 325.654177 182.6723 
L 325.962394 181.373024 
L 326.077975 181.521173 
L 326.309137 182.585324 
L 326.848516 186.592019 
L 327.657583 192.685267 
L 327.69611 192.60148 
L 328.042854 191.464994 
L 328.158435 191.590384 
L 328.35107 192.362731 
L 328.582232 193.078254 
L 328.774868 192.754703 
L 329.198665 191.642715 
L 329.468354 190.747007 
L 329.583936 190.596539 
L 329.622463 190.632489 
L 329.776571 191.141298 
L 330.393003 194.219959 
L 330.43153 194.099642 
L 330.624166 193.647947 
L 330.739747 193.848281 
L 330.970909 194.460592 
L 331.009436 194.432615 
L 331.317652 193.982659 
L 331.433234 194.08906 
L 331.510288 194.095728 
L 331.548815 194.047456 
L 331.74145 193.92714 
L 331.895558 194.202129 
L 332.165247 195.169737 
L 332.242301 195.056233 
L 332.550518 194.592216 
L 332.589045 194.619613 
L 332.743153 195.034489 
L 332.858734 195.207281 
L 332.897261 195.174375 
L 333.051369 195.180464 
L 333.244005 195.679271 
L 333.321059 195.772335 
L 333.359586 195.744793 
L 333.976018 194.43392 
L 334.053072 194.546409 
L 334.245708 195.39457 
L 334.746559 197.729585 
L 334.900667 197.929775 
L 335.13183 198.724301 
L 335.208884 198.903616 
L 335.247411 198.868101 
L 335.362992 198.899412 
L 335.594154 199.465481 
L 335.671208 199.290225 
L 335.825316 199.047852 
L 335.863843 199.067421 
L 336.017952 199.441853 
L 336.133533 199.883256 
L 336.210587 199.820053 
L 336.326168 199.8863 
L 336.595857 200.632699 
L 336.711438 200.531517 
L 336.865547 200.551232 
L 336.981128 200.48658 
L 337.404925 200.107944 
L 337.559033 200.245221 
L 337.674614 200.491218 
L 337.713142 200.42874 
L 337.86725 199.140771 
L 338.25252 195.378624 
L 338.560736 195.570841 
L 338.791899 196.751685 
L 339.331277 199.588407 
L 339.716548 201.483759 
L 339.793602 201.343438 
L 340.217399 199.675238 
L 340.294453 199.744384 
L 340.410035 199.876733 
L 340.448562 199.842087 
L 340.641197 199.547384 
L 340.679724 199.571012 
L 340.833832 199.94008 
L 340.910886 199.822663 
L 341.180575 199.423443 
L 341.219102 199.45374 
L 341.373211 199.901231 
L 341.527319 200.632409 
L 341.565846 200.618493 
L 341.719954 199.07003 
L 342.02817 197.281369 
L 342.490495 194.372892 
L 342.529022 194.423483 
L 342.721657 195.025936 
L 342.798711 194.897502 
L 343.33809 193.029112 
L 343.453671 193.116958 
L 343.569252 193.114784 
L 343.72336 193.545025 
L 344.493901 196.558743 
L 344.648009 197.104228 
L 344.686536 197.032328 
L 345.03328 195.346878 
L 345.572658 194.239818 
L 345.649712 194.269825 
L 345.80382 194.726884 
L 346.921105 199.557531 
L 346.959632 199.522451 
L 347.306375 198.271881 
L 347.383429 198.304207 
L 347.614591 198.413507 
L 347.999862 199.343135 
L 348.076916 199.225862 
L 348.192497 199.130334 
L 348.308078 199.383579 
L 348.770403 201.223411 
L 348.885984 201.157889 
L 349.001565 201.260521 
L 349.1942 201.89646 
L 349.733579 204.275834 
L 349.772106 204.155372 
L 350.157376 201.66264 
L 350.195903 201.687138 
L 350.311484 201.910956 
L 350.350012 201.87892 
L 350.581174 201.419252 
L 350.619701 201.44462 
L 350.735282 201.594799 
L 350.773809 201.511737 
L 351.043498 201.025541 
L 351.120552 200.9361 
L 351.390242 200.474693 
L 351.659931 200.199994 
L 351.814039 200.513542 
L 351.968147 200.696047 
L 352.083728 200.659662 
L 352.276364 200.484115 
L 352.546053 200.862026 
L 352.738688 201.294587 
L 353.547756 204.522846 
L 353.855972 205.526114 
L 353.971554 205.65078 
L 354.010081 205.59642 
L 354.202716 204.929604 
L 354.472405 204.024618 
L 354.587986 204.150299 
L 354.742094 204.465152 
L 354.819148 204.412096 
L 354.93473 204.310769 
L 355.088838 204.086081 
L 355.127365 204.10739 
L 355.628216 204.939316 
L 355.743797 205.234309 
L 355.782325 205.123995 
L 356.591392 202.24277 
L 356.706974 202.29626 
L 356.899609 202.933939 
L 357.01519 203.419555 
L 357.053717 203.300978 
L 357.246352 202.633727 
L 357.284879 202.648368 
L 357.438987 203.071361 
L 357.939839 204.79827 
L 358.248055 205.41348 
L 358.402163 205.277942 
L 358.633326 204.848426 
L 358.748907 205.042092 
L 359.09565 206.212355 
L 359.134177 206.104649 
L 359.326812 203.859509 
L 359.789137 199.388942 
L 359.904718 199.404308 
L 360.212934 199.801644 
L 360.251461 199.740905 
L 360.40557 199.298342 
L 360.559678 197.444014 
L 360.79084 195.894827 
L 360.867894 195.938315 
L 361.137583 196.466114 
L 361.17611 196.427989 
L 361.330219 195.939184 
L 362.100759 192.617571 
L 362.524557 191.112161 
L 362.601611 191.149271 
L 362.794246 191.848703 
L 363.295098 193.633885 
L 363.333625 193.571553 
L 363.52626 193.41746 
L 363.641841 193.556767 
L 363.834476 194.32259 
L 363.950058 194.999409 
L 364.027112 194.791536 
L 364.18122 194.364049 
L 364.219747 194.401014 
L 364.373855 194.959545 
L 364.643544 195.751316 
L 364.797652 195.947447 
L 365.182923 197.144382 
L 365.259977 197.046679 
L 365.337031 196.845619 
L 366.300207 190.253853 
L 366.646951 185.975504 
L 366.839586 185.350146 
L 366.955167 185.632818 
L 367.147802 186.665658 
L 367.224856 186.389364 
L 367.533072 184.75494 
L 367.610127 184.769581 
L 367.764235 185.236498 
L 368.303613 187.985084 
L 368.380667 187.72952 
L 368.496249 186.776263 
L 369.035627 180.968295 
L 369.151208 181.228644 
L 369.536479 182.642293 
L 369.883222 184.59244 
L 370.114384 184.123495 
L 370.191438 184.23149 
L 370.384074 184.794804 
L 370.461128 184.727543 
L 370.576709 184.728413 
L 370.730817 185.214029 
L 371.039033 187.419015 
L 371.462831 190.26632 
L 371.655466 189.855068 
L 372.040736 187.511645 
L 372.77275 181.498559 
L 373.196548 176.813307 
L 373.581818 173.390656 
L 373.581818 173.390656 
" style="fill:none;stroke:#ff0000;stroke-linecap:square;stroke-width:1.5;"/>
   </g>
   <g id="line2d_20">
    <path clip-path="url(#p77c9e7d895)" d="M 258.00069 201.264 
L 296.450679 201.264 
L 296.450679 201.264 
" style="fill:none;stroke:#000000;stroke-linecap:square;stroke-width:1.5;"/>
   </g>
   <g id="line2d_21">
    <path clip-path="url(#p77c9e7d895)" d="M 258.00069 179.52 
L 258.00069 178.0704 
L 258.00069 176.6208 
L 258.00069 175.1712 
L 258.00069 173.7216 
L 258.00069 172.272 
L 258.00069 170.8224 
L 258.00069 169.3728 
L 258.00069 167.9232 
L 258.00069 166.4736 
L 258.00069 165.024 
L 258.00069 163.5744 
L 258.00069 162.1248 
L 258.00069 160.6752 
L 258.00069 159.2256 
L 258.00069 157.776 
L 258.00069 156.3264 
L 258.00069 154.8768 
L 258.00069 153.4272 
L 258.00069 151.9776 
" style="fill:none;stroke:#000000;stroke-linecap:square;stroke-width:1.5;"/>
   </g>
   <g id="patch_3">
    <path d="M 54 252 
L 54 34.56 
" style="fill:none;stroke:#000000;stroke-linecap:square;stroke-linejoin:miter;stroke-width:0.8;"/>
   </g>
   <g id="patch_4">
    <path d="M 54 252 
L 388.8 252 
" style="fill:none;stroke:#000000;stroke-linecap:square;stroke-linejoin:miter;stroke-width:0.8;"/>
   </g>
   <g id="text_20">
    <!-- 500 ms -->
    <g transform="translate(258.00069 199.8144)scale(0.12 -0.12)">
     <use xlink:href="#DejaVuSans-35"/>
     <use x="63.623047" xlink:href="#DejaVuSans-30"/>
     <use x="127.246094" xlink:href="#DejaVuSans-30"/>
     <use x="190.869141" xlink:href="#DejaVuSans-20"/>
     <use x="222.65625" xlink:href="#DejaVuSans-6d"/>
     <use x="320.068359" xlink:href="#DejaVuSans-73"/>
    </g>
   </g>
   <g id="text_21">
    <!-- 20 mV -->
    <g transform="translate(261.853395 150.528)scale(0.12 -0.12)">
     <use xlink:href="#DejaVuSans-32"/>
     <use x="63.623047" xlink:href="#DejaVuSans-30"/>
     <use x="127.246094" xlink:href="#DejaVuSans-20"/>
     <use x="159.033203" xlink:href="#DejaVuSans-6d"/>
     <use x="256.445312" xlink:href="#DejaVuSans-56"/>
    </g>
   </g>
  </g>
 </g>
 <defs>
  <clipPath id="p77c9e7d895">
   <rect height="217.44" width="334.8" x="54" y="34.56"/>
  </clipPath>
 </defs>
</svg>
