<?xml version="1.0" encoding="utf-8" standalone="no"?>
<!DOCTYPE svg PUBLIC "-//W3C//DTD SVG 1.1//EN"
  "http://www.w3.org/Graphics/SVG/1.1/DTD/svg11.dtd">
<!-- Created with matplotlib (https://matplotlib.org/) -->
<svg height="288pt" version="1.1" viewBox="0 0 432 288" width="432pt" xmlns="http://www.w3.org/2000/svg" xmlns:xlink="http://www.w3.org/1999/xlink">
 <metadata>
  <rdf:RDF xmlns:cc="http://creativecommons.org/ns#" xmlns:dc="http://purl.org/dc/elements/1.1/" xmlns:rdf="http://www.w3.org/1999/02/22-rdf-syntax-ns#">
   <cc:Work>
    <dc:type rdf:resource="http://purl.org/dc/dcmitype/StillImage"/>
    <dc:date>2022-06-27T18:33:55.544703</dc:date>
    <dc:format>image/svg+xml</dc:format>
    <dc:creator>
     <cc:Agent>
      <dc:title>Matplotlib v3.3.4, https://matplotlib.org/</dc:title>
     </cc:Agent>
    </dc:creator>
   </cc:Work>
  </rdf:RDF>
 </metadata>
 <defs>
  <style type="text/css">*{stroke-linecap:butt;stroke-linejoin:round;}</style>
 </defs>
 <g id="figure_1">
  <g id="patch_1">
   <path d="M 0 288 
L 432 288 
L 432 0 
L 0 0 
z
" style="fill:none;"/>
  </g>
  <g id="axes_1">
   <g id="patch_2">
    <path d="M 54 252 
L 388.8 252 
L 388.8 34.56 
L 54 34.56 
z
" style="fill:#ffffff;"/>
   </g>
   <g id="matplotlib.axis_1">
    <g id="xtick_1">
     <g id="line2d_1">
      <defs>
       <path d="M 0 0 
L 0 3.5 
" id="m74293a91c3" style="stroke:#000000;stroke-width:0.8;"/>
      </defs>
      <g>
       <use style="stroke:#000000;stroke-width:0.8;" x="69.218182" xlink:href="#m74293a91c3" y="252"/>
      </g>
     </g>
     <g id="text_1">
      <!-- 0 -->
      <g transform="translate(66.036932 266.598437)scale(0.1 -0.1)">
       <defs>
        <path d="M 31.78125 66.40625 
Q 24.171875 66.40625 20.328125 58.90625 
Q 16.5 51.421875 16.5 36.375 
Q 16.5 21.390625 20.328125 13.890625 
Q 24.171875 6.390625 31.78125 6.390625 
Q 39.453125 6.390625 43.28125 13.890625 
Q 47.125 21.390625 47.125 36.375 
Q 47.125 51.421875 43.28125 58.90625 
Q 39.453125 66.40625 31.78125 66.40625 
z
M 31.78125 74.21875 
Q 44.046875 74.21875 50.515625 64.515625 
Q 56.984375 54.828125 56.984375 36.375 
Q 56.984375 17.96875 50.515625 8.265625 
Q 44.046875 -1.421875 31.78125 -1.421875 
Q 19.53125 -1.421875 13.0625 8.265625 
Q 6.59375 17.96875 6.59375 36.375 
Q 6.59375 54.828125 13.0625 64.515625 
Q 19.53125 74.21875 31.78125 74.21875 
z
" id="DejaVuSans-48"/>
       </defs>
       <use xlink:href="#DejaVuSans-48"/>
      </g>
     </g>
    </g>
    <g id="xtick_2">
     <g id="line2d_2">
      <g>
       <use style="stroke:#000000;stroke-width:0.8;" x="119.937001" xlink:href="#m74293a91c3" y="252"/>
      </g>
     </g>
     <g id="text_2">
      <!-- 500 -->
      <g transform="translate(110.393251 266.598437)scale(0.1 -0.1)">
       <defs>
        <path d="M 10.796875 72.90625 
L 49.515625 72.90625 
L 49.515625 64.59375 
L 19.828125 64.59375 
L 19.828125 46.734375 
Q 21.96875 47.46875 24.109375 47.828125 
Q 26.265625 48.1875 28.421875 48.1875 
Q 40.625 48.1875 47.75 41.5 
Q 54.890625 34.8125 54.890625 23.390625 
Q 54.890625 11.625 47.5625 5.09375 
Q 40.234375 -1.421875 26.90625 -1.421875 
Q 22.3125 -1.421875 17.546875 -0.640625 
Q 12.796875 0.140625 7.71875 1.703125 
L 7.71875 11.625 
Q 12.109375 9.234375 16.796875 8.0625 
Q 21.484375 6.890625 26.703125 6.890625 
Q 35.15625 6.890625 40.078125 11.328125 
Q 45.015625 15.765625 45.015625 23.390625 
Q 45.015625 31 40.078125 35.4375 
Q 35.15625 39.890625 26.703125 39.890625 
Q 22.75 39.890625 18.8125 39.015625 
Q 14.890625 38.140625 10.796875 36.28125 
z
" id="DejaVuSans-53"/>
       </defs>
       <use xlink:href="#DejaVuSans-53"/>
       <use x="63.623047" xlink:href="#DejaVuSans-48"/>
       <use x="127.246094" xlink:href="#DejaVuSans-48"/>
      </g>
     </g>
    </g>
    <g id="xtick_3">
     <g id="line2d_3">
      <g>
       <use style="stroke:#000000;stroke-width:0.8;" x="170.655821" xlink:href="#m74293a91c3" y="252"/>
      </g>
     </g>
     <g id="text_3">
      <!-- 1000 -->
      <g transform="translate(157.930821 266.598437)scale(0.1 -0.1)">
       <defs>
        <path d="M 12.40625 8.296875 
L 28.515625 8.296875 
L 28.515625 63.921875 
L 10.984375 60.40625 
L 10.984375 69.390625 
L 28.421875 72.90625 
L 38.28125 72.90625 
L 38.28125 8.296875 
L 54.390625 8.296875 
L 54.390625 0 
L 12.40625 0 
z
" id="DejaVuSans-49"/>
       </defs>
       <use xlink:href="#DejaVuSans-49"/>
       <use x="63.623047" xlink:href="#DejaVuSans-48"/>
       <use x="127.246094" xlink:href="#DejaVuSans-48"/>
       <use x="190.869141" xlink:href="#DejaVuSans-48"/>
      </g>
     </g>
    </g>
    <g id="xtick_4">
     <g id="line2d_4">
      <g>
       <use style="stroke:#000000;stroke-width:0.8;" x="221.374641" xlink:href="#m74293a91c3" y="252"/>
      </g>
     </g>
     <g id="text_4">
      <!-- 1500 -->
      <g transform="translate(208.649641 266.598437)scale(0.1 -0.1)">
       <use xlink:href="#DejaVuSans-49"/>
       <use x="63.623047" xlink:href="#DejaVuSans-53"/>
       <use x="127.246094" xlink:href="#DejaVuSans-48"/>
       <use x="190.869141" xlink:href="#DejaVuSans-48"/>
      </g>
     </g>
    </g>
    <g id="xtick_5">
     <g id="line2d_5">
      <g>
       <use style="stroke:#000000;stroke-width:0.8;" x="272.09346" xlink:href="#m74293a91c3" y="252"/>
      </g>
     </g>
     <g id="text_5">
      <!-- 2000 -->
      <g transform="translate(259.36846 266.598437)scale(0.1 -0.1)">
       <defs>
        <path d="M 19.1875 8.296875 
L 53.609375 8.296875 
L 53.609375 0 
L 7.328125 0 
L 7.328125 8.296875 
Q 12.9375 14.109375 22.625 23.890625 
Q 32.328125 33.6875 34.8125 36.53125 
Q 39.546875 41.84375 41.421875 45.53125 
Q 43.3125 49.21875 43.3125 52.78125 
Q 43.3125 58.59375 39.234375 62.25 
Q 35.15625 65.921875 28.609375 65.921875 
Q 23.96875 65.921875 18.8125 64.3125 
Q 13.671875 62.703125 7.8125 59.421875 
L 7.8125 69.390625 
Q 13.765625 71.78125 18.9375 73 
Q 24.125 74.21875 28.421875 74.21875 
Q 39.75 74.21875 46.484375 68.546875 
Q 53.21875 62.890625 53.21875 53.421875 
Q 53.21875 48.921875 51.53125 44.890625 
Q 49.859375 40.875 45.40625 35.40625 
Q 44.1875 33.984375 37.640625 27.21875 
Q 31.109375 20.453125 19.1875 8.296875 
z
" id="DejaVuSans-50"/>
       </defs>
       <use xlink:href="#DejaVuSans-50"/>
       <use x="63.623047" xlink:href="#DejaVuSans-48"/>
       <use x="127.246094" xlink:href="#DejaVuSans-48"/>
       <use x="190.869141" xlink:href="#DejaVuSans-48"/>
      </g>
     </g>
    </g>
    <g id="xtick_6">
     <g id="line2d_6">
      <g>
       <use style="stroke:#000000;stroke-width:0.8;" x="322.81228" xlink:href="#m74293a91c3" y="252"/>
      </g>
     </g>
     <g id="text_6">
      <!-- 2500 -->
      <g transform="translate(310.08728 266.598437)scale(0.1 -0.1)">
       <use xlink:href="#DejaVuSans-50"/>
       <use x="63.623047" xlink:href="#DejaVuSans-53"/>
       <use x="127.246094" xlink:href="#DejaVuSans-48"/>
       <use x="190.869141" xlink:href="#DejaVuSans-48"/>
      </g>
     </g>
    </g>
    <g id="xtick_7">
     <g id="line2d_7">
      <g>
       <use style="stroke:#000000;stroke-width:0.8;" x="373.531099" xlink:href="#m74293a91c3" y="252"/>
      </g>
     </g>
     <g id="text_7">
      <!-- 3000 -->
      <g transform="translate(360.806099 266.598437)scale(0.1 -0.1)">
       <defs>
        <path d="M 40.578125 39.3125 
Q 47.65625 37.796875 51.625 33 
Q 55.609375 28.21875 55.609375 21.1875 
Q 55.609375 10.40625 48.1875 4.484375 
Q 40.765625 -1.421875 27.09375 -1.421875 
Q 22.515625 -1.421875 17.65625 -0.515625 
Q 12.796875 0.390625 7.625 2.203125 
L 7.625 11.71875 
Q 11.71875 9.328125 16.59375 8.109375 
Q 21.484375 6.890625 26.8125 6.890625 
Q 36.078125 6.890625 40.9375 10.546875 
Q 45.796875 14.203125 45.796875 21.1875 
Q 45.796875 27.640625 41.28125 31.265625 
Q 36.765625 34.90625 28.71875 34.90625 
L 20.21875 34.90625 
L 20.21875 43.015625 
L 29.109375 43.015625 
Q 36.375 43.015625 40.234375 45.921875 
Q 44.09375 48.828125 44.09375 54.296875 
Q 44.09375 59.90625 40.109375 62.90625 
Q 36.140625 65.921875 28.71875 65.921875 
Q 24.65625 65.921875 20.015625 65.03125 
Q 15.375 64.15625 9.8125 62.3125 
L 9.8125 71.09375 
Q 15.4375 72.65625 20.34375 73.4375 
Q 25.25 74.21875 29.59375 74.21875 
Q 40.828125 74.21875 47.359375 69.109375 
Q 53.90625 64.015625 53.90625 55.328125 
Q 53.90625 49.265625 50.4375 45.09375 
Q 46.96875 40.921875 40.578125 39.3125 
z
" id="DejaVuSans-51"/>
       </defs>
       <use xlink:href="#DejaVuSans-51"/>
       <use x="63.623047" xlink:href="#DejaVuSans-48"/>
       <use x="127.246094" xlink:href="#DejaVuSans-48"/>
       <use x="190.869141" xlink:href="#DejaVuSans-48"/>
      </g>
     </g>
    </g>
    <g id="text_8">
     <!-- Time(ms) -->
     <g transform="translate(197.789844 280.276563)scale(0.1 -0.1)">
      <defs>
       <path d="M -0.296875 72.90625 
L 61.375 72.90625 
L 61.375 64.59375 
L 35.5 64.59375 
L 35.5 0 
L 25.59375 0 
L 25.59375 64.59375 
L -0.296875 64.59375 
z
" id="DejaVuSans-84"/>
       <path d="M 9.421875 54.6875 
L 18.40625 54.6875 
L 18.40625 0 
L 9.421875 0 
z
M 9.421875 75.984375 
L 18.40625 75.984375 
L 18.40625 64.59375 
L 9.421875 64.59375 
z
" id="DejaVuSans-105"/>
       <path d="M 52 44.1875 
Q 55.375 50.25 60.0625 53.125 
Q 64.75 56 71.09375 56 
Q 79.640625 56 84.28125 50.015625 
Q 88.921875 44.046875 88.921875 33.015625 
L 88.921875 0 
L 79.890625 0 
L 79.890625 32.71875 
Q 79.890625 40.578125 77.09375 44.375 
Q 74.3125 48.1875 68.609375 48.1875 
Q 61.625 48.1875 57.5625 43.546875 
Q 53.515625 38.921875 53.515625 30.90625 
L 53.515625 0 
L 44.484375 0 
L 44.484375 32.71875 
Q 44.484375 40.625 41.703125 44.40625 
Q 38.921875 48.1875 33.109375 48.1875 
Q 26.21875 48.1875 22.15625 43.53125 
Q 18.109375 38.875 18.109375 30.90625 
L 18.109375 0 
L 9.078125 0 
L 9.078125 54.6875 
L 18.109375 54.6875 
L 18.109375 46.1875 
Q 21.1875 51.21875 25.484375 53.609375 
Q 29.78125 56 35.6875 56 
Q 41.65625 56 45.828125 52.96875 
Q 50 49.953125 52 44.1875 
z
" id="DejaVuSans-109"/>
       <path d="M 56.203125 29.59375 
L 56.203125 25.203125 
L 14.890625 25.203125 
Q 15.484375 15.921875 20.484375 11.0625 
Q 25.484375 6.203125 34.421875 6.203125 
Q 39.59375 6.203125 44.453125 7.46875 
Q 49.3125 8.734375 54.109375 11.28125 
L 54.109375 2.78125 
Q 49.265625 0.734375 44.1875 -0.34375 
Q 39.109375 -1.421875 33.890625 -1.421875 
Q 20.796875 -1.421875 13.15625 6.1875 
Q 5.515625 13.8125 5.515625 26.8125 
Q 5.515625 40.234375 12.765625 48.109375 
Q 20.015625 56 32.328125 56 
Q 43.359375 56 49.78125 48.890625 
Q 56.203125 41.796875 56.203125 29.59375 
z
M 47.21875 32.234375 
Q 47.125 39.59375 43.09375 43.984375 
Q 39.0625 48.390625 32.421875 48.390625 
Q 24.90625 48.390625 20.390625 44.140625 
Q 15.875 39.890625 15.1875 32.171875 
z
" id="DejaVuSans-101"/>
       <path d="M 31 75.875 
Q 24.46875 64.65625 21.28125 53.65625 
Q 18.109375 42.671875 18.109375 31.390625 
Q 18.109375 20.125 21.3125 9.0625 
Q 24.515625 -2 31 -13.1875 
L 23.1875 -13.1875 
Q 15.875 -1.703125 12.234375 9.375 
Q 8.59375 20.453125 8.59375 31.390625 
Q 8.59375 42.28125 12.203125 53.3125 
Q 15.828125 64.359375 23.1875 75.875 
z
" id="DejaVuSans-40"/>
       <path d="M 44.28125 53.078125 
L 44.28125 44.578125 
Q 40.484375 46.53125 36.375 47.5 
Q 32.28125 48.484375 27.875 48.484375 
Q 21.1875 48.484375 17.84375 46.4375 
Q 14.5 44.390625 14.5 40.28125 
Q 14.5 37.15625 16.890625 35.375 
Q 19.28125 33.59375 26.515625 31.984375 
L 29.59375 31.296875 
Q 39.15625 29.25 43.1875 25.515625 
Q 47.21875 21.78125 47.21875 15.09375 
Q 47.21875 7.46875 41.1875 3.015625 
Q 35.15625 -1.421875 24.609375 -1.421875 
Q 20.21875 -1.421875 15.453125 -0.5625 
Q 10.6875 0.296875 5.421875 2 
L 5.421875 11.28125 
Q 10.40625 8.6875 15.234375 7.390625 
Q 20.0625 6.109375 24.8125 6.109375 
Q 31.15625 6.109375 34.5625 8.28125 
Q 37.984375 10.453125 37.984375 14.40625 
Q 37.984375 18.0625 35.515625 20.015625 
Q 33.0625 21.96875 24.703125 23.78125 
L 21.578125 24.515625 
Q 13.234375 26.265625 9.515625 29.90625 
Q 5.8125 33.546875 5.8125 39.890625 
Q 5.8125 47.609375 11.28125 51.796875 
Q 16.75 56 26.8125 56 
Q 31.78125 56 36.171875 55.265625 
Q 40.578125 54.546875 44.28125 53.078125 
z
" id="DejaVuSans-115"/>
       <path d="M 8.015625 75.875 
L 15.828125 75.875 
Q 23.140625 64.359375 26.78125 53.3125 
Q 30.421875 42.28125 30.421875 31.390625 
Q 30.421875 20.453125 26.78125 9.375 
Q 23.140625 -1.703125 15.828125 -13.1875 
L 8.015625 -13.1875 
Q 14.5 -2 17.703125 9.0625 
Q 20.90625 20.125 20.90625 31.390625 
Q 20.90625 42.671875 17.703125 53.65625 
Q 14.5 64.65625 8.015625 75.875 
z
" id="DejaVuSans-41"/>
      </defs>
      <use xlink:href="#DejaVuSans-84"/>
      <use x="57.958984" xlink:href="#DejaVuSans-105"/>
      <use x="85.742188" xlink:href="#DejaVuSans-109"/>
      <use x="183.154297" xlink:href="#DejaVuSans-101"/>
      <use x="244.677734" xlink:href="#DejaVuSans-40"/>
      <use x="283.691406" xlink:href="#DejaVuSans-109"/>
      <use x="381.103516" xlink:href="#DejaVuSans-115"/>
      <use x="433.203125" xlink:href="#DejaVuSans-41"/>
     </g>
    </g>
   </g>
   <g id="matplotlib.axis_2">
    <g id="ytick_1">
     <g id="line2d_8">
      <defs>
       <path d="M 0 0 
L -3.5 0 
" id="m0dab82ef40" style="stroke:#000000;stroke-width:0.8;"/>
      </defs>
      <g>
       <use style="stroke:#000000;stroke-width:0.8;" x="54" xlink:href="#m0dab82ef40" y="252"/>
      </g>
     </g>
     <g id="text_9">
      <!-- −100 -->
      <g transform="translate(19.532812 255.799219)scale(0.1 -0.1)">
       <defs>
        <path d="M 10.59375 35.5 
L 73.1875 35.5 
L 73.1875 27.203125 
L 10.59375 27.203125 
z
" id="DejaVuSans-8722"/>
       </defs>
       <use xlink:href="#DejaVuSans-8722"/>
       <use x="83.789062" xlink:href="#DejaVuSans-49"/>
       <use x="147.412109" xlink:href="#DejaVuSans-48"/>
       <use x="211.035156" xlink:href="#DejaVuSans-48"/>
      </g>
     </g>
    </g>
    <g id="ytick_2">
     <g id="line2d_9">
      <g>
       <use style="stroke:#000000;stroke-width:0.8;" x="54" xlink:href="#m0dab82ef40" y="220.937143"/>
      </g>
     </g>
     <g id="text_10">
      <!-- −80 -->
      <g transform="translate(25.895312 224.736362)scale(0.1 -0.1)">
       <defs>
        <path d="M 31.78125 34.625 
Q 24.75 34.625 20.71875 30.859375 
Q 16.703125 27.09375 16.703125 20.515625 
Q 16.703125 13.921875 20.71875 10.15625 
Q 24.75 6.390625 31.78125 6.390625 
Q 38.8125 6.390625 42.859375 10.171875 
Q 46.921875 13.96875 46.921875 20.515625 
Q 46.921875 27.09375 42.890625 30.859375 
Q 38.875 34.625 31.78125 34.625 
z
M 21.921875 38.8125 
Q 15.578125 40.375 12.03125 44.71875 
Q 8.5 49.078125 8.5 55.328125 
Q 8.5 64.0625 14.71875 69.140625 
Q 20.953125 74.21875 31.78125 74.21875 
Q 42.671875 74.21875 48.875 69.140625 
Q 55.078125 64.0625 55.078125 55.328125 
Q 55.078125 49.078125 51.53125 44.71875 
Q 48 40.375 41.703125 38.8125 
Q 48.828125 37.15625 52.796875 32.3125 
Q 56.78125 27.484375 56.78125 20.515625 
Q 56.78125 9.90625 50.3125 4.234375 
Q 43.84375 -1.421875 31.78125 -1.421875 
Q 19.734375 -1.421875 13.25 4.234375 
Q 6.78125 9.90625 6.78125 20.515625 
Q 6.78125 27.484375 10.78125 32.3125 
Q 14.796875 37.15625 21.921875 38.8125 
z
M 18.3125 54.390625 
Q 18.3125 48.734375 21.84375 45.5625 
Q 25.390625 42.390625 31.78125 42.390625 
Q 38.140625 42.390625 41.71875 45.5625 
Q 45.3125 48.734375 45.3125 54.390625 
Q 45.3125 60.0625 41.71875 63.234375 
Q 38.140625 66.40625 31.78125 66.40625 
Q 25.390625 66.40625 21.84375 63.234375 
Q 18.3125 60.0625 18.3125 54.390625 
z
" id="DejaVuSans-56"/>
       </defs>
       <use xlink:href="#DejaVuSans-8722"/>
       <use x="83.789062" xlink:href="#DejaVuSans-56"/>
       <use x="147.412109" xlink:href="#DejaVuSans-48"/>
      </g>
     </g>
    </g>
    <g id="ytick_3">
     <g id="line2d_10">
      <g>
       <use style="stroke:#000000;stroke-width:0.8;" x="54" xlink:href="#m0dab82ef40" y="189.874286"/>
      </g>
     </g>
     <g id="text_11">
      <!-- −60 -->
      <g transform="translate(25.895312 193.673504)scale(0.1 -0.1)">
       <defs>
        <path d="M 33.015625 40.375 
Q 26.375 40.375 22.484375 35.828125 
Q 18.609375 31.296875 18.609375 23.390625 
Q 18.609375 15.53125 22.484375 10.953125 
Q 26.375 6.390625 33.015625 6.390625 
Q 39.65625 6.390625 43.53125 10.953125 
Q 47.40625 15.53125 47.40625 23.390625 
Q 47.40625 31.296875 43.53125 35.828125 
Q 39.65625 40.375 33.015625 40.375 
z
M 52.59375 71.296875 
L 52.59375 62.3125 
Q 48.875 64.0625 45.09375 64.984375 
Q 41.3125 65.921875 37.59375 65.921875 
Q 27.828125 65.921875 22.671875 59.328125 
Q 17.53125 52.734375 16.796875 39.40625 
Q 19.671875 43.65625 24.015625 45.921875 
Q 28.375 48.1875 33.59375 48.1875 
Q 44.578125 48.1875 50.953125 41.515625 
Q 57.328125 34.859375 57.328125 23.390625 
Q 57.328125 12.15625 50.6875 5.359375 
Q 44.046875 -1.421875 33.015625 -1.421875 
Q 20.359375 -1.421875 13.671875 8.265625 
Q 6.984375 17.96875 6.984375 36.375 
Q 6.984375 53.65625 15.1875 63.9375 
Q 23.390625 74.21875 37.203125 74.21875 
Q 40.921875 74.21875 44.703125 73.484375 
Q 48.484375 72.75 52.59375 71.296875 
z
" id="DejaVuSans-54"/>
       </defs>
       <use xlink:href="#DejaVuSans-8722"/>
       <use x="83.789062" xlink:href="#DejaVuSans-54"/>
       <use x="147.412109" xlink:href="#DejaVuSans-48"/>
      </g>
     </g>
    </g>
    <g id="ytick_4">
     <g id="line2d_11">
      <g>
       <use style="stroke:#000000;stroke-width:0.8;" x="54" xlink:href="#m0dab82ef40" y="158.811429"/>
      </g>
     </g>
     <g id="text_12">
      <!-- −40 -->
      <g transform="translate(25.895312 162.610647)scale(0.1 -0.1)">
       <defs>
        <path d="M 37.796875 64.3125 
L 12.890625 25.390625 
L 37.796875 25.390625 
z
M 35.203125 72.90625 
L 47.609375 72.90625 
L 47.609375 25.390625 
L 58.015625 25.390625 
L 58.015625 17.1875 
L 47.609375 17.1875 
L 47.609375 0 
L 37.796875 0 
L 37.796875 17.1875 
L 4.890625 17.1875 
L 4.890625 26.703125 
z
" id="DejaVuSans-52"/>
       </defs>
       <use xlink:href="#DejaVuSans-8722"/>
       <use x="83.789062" xlink:href="#DejaVuSans-52"/>
       <use x="147.412109" xlink:href="#DejaVuSans-48"/>
      </g>
     </g>
    </g>
    <g id="ytick_5">
     <g id="line2d_12">
      <g>
       <use style="stroke:#000000;stroke-width:0.8;" x="54" xlink:href="#m0dab82ef40" y="127.748571"/>
      </g>
     </g>
     <g id="text_13">
      <!-- −20 -->
      <g transform="translate(25.895312 131.54779)scale(0.1 -0.1)">
       <use xlink:href="#DejaVuSans-8722"/>
       <use x="83.789062" xlink:href="#DejaVuSans-50"/>
       <use x="147.412109" xlink:href="#DejaVuSans-48"/>
      </g>
     </g>
    </g>
    <g id="ytick_6">
     <g id="line2d_13">
      <g>
       <use style="stroke:#000000;stroke-width:0.8;" x="54" xlink:href="#m0dab82ef40" y="96.685714"/>
      </g>
     </g>
     <g id="text_14">
      <!-- 0 -->
      <g transform="translate(40.6375 100.484933)scale(0.1 -0.1)">
       <use xlink:href="#DejaVuSans-48"/>
      </g>
     </g>
    </g>
    <g id="ytick_7">
     <g id="line2d_14">
      <g>
       <use style="stroke:#000000;stroke-width:0.8;" x="54" xlink:href="#m0dab82ef40" y="65.622857"/>
      </g>
     </g>
     <g id="text_15">
      <!-- 20 -->
      <g transform="translate(34.275 69.422076)scale(0.1 -0.1)">
       <use xlink:href="#DejaVuSans-50"/>
       <use x="63.623047" xlink:href="#DejaVuSans-48"/>
      </g>
     </g>
    </g>
    <g id="ytick_8">
     <g id="line2d_15">
      <g>
       <use style="stroke:#000000;stroke-width:0.8;" x="54" xlink:href="#m0dab82ef40" y="34.56"/>
      </g>
     </g>
     <g id="text_16">
      <!-- 40 -->
      <g transform="translate(34.275 38.359219)scale(0.1 -0.1)">
       <use xlink:href="#DejaVuSans-52"/>
       <use x="63.623047" xlink:href="#DejaVuSans-48"/>
      </g>
     </g>
    </g>
    <g id="text_17">
     <!-- Membrane potential (mV) -->
     <g transform="translate(13.453125 207.691719)rotate(-90)scale(0.1 -0.1)">
      <defs>
       <path d="M 9.8125 72.90625 
L 24.515625 72.90625 
L 43.109375 23.296875 
L 61.8125 72.90625 
L 76.515625 72.90625 
L 76.515625 0 
L 66.890625 0 
L 66.890625 64.015625 
L 48.09375 14.015625 
L 38.1875 14.015625 
L 19.390625 64.015625 
L 19.390625 0 
L 9.8125 0 
z
" id="DejaVuSans-77"/>
       <path d="M 48.6875 27.296875 
Q 48.6875 37.203125 44.609375 42.84375 
Q 40.53125 48.484375 33.40625 48.484375 
Q 26.265625 48.484375 22.1875 42.84375 
Q 18.109375 37.203125 18.109375 27.296875 
Q 18.109375 17.390625 22.1875 11.75 
Q 26.265625 6.109375 33.40625 6.109375 
Q 40.53125 6.109375 44.609375 11.75 
Q 48.6875 17.390625 48.6875 27.296875 
z
M 18.109375 46.390625 
Q 20.953125 51.265625 25.265625 53.625 
Q 29.59375 56 35.59375 56 
Q 45.5625 56 51.78125 48.09375 
Q 58.015625 40.1875 58.015625 27.296875 
Q 58.015625 14.40625 51.78125 6.484375 
Q 45.5625 -1.421875 35.59375 -1.421875 
Q 29.59375 -1.421875 25.265625 0.953125 
Q 20.953125 3.328125 18.109375 8.203125 
L 18.109375 0 
L 9.078125 0 
L 9.078125 75.984375 
L 18.109375 75.984375 
z
" id="DejaVuSans-98"/>
       <path d="M 41.109375 46.296875 
Q 39.59375 47.171875 37.8125 47.578125 
Q 36.03125 48 33.890625 48 
Q 26.265625 48 22.1875 43.046875 
Q 18.109375 38.09375 18.109375 28.8125 
L 18.109375 0 
L 9.078125 0 
L 9.078125 54.6875 
L 18.109375 54.6875 
L 18.109375 46.1875 
Q 20.953125 51.171875 25.484375 53.578125 
Q 30.03125 56 36.53125 56 
Q 37.453125 56 38.578125 55.875 
Q 39.703125 55.765625 41.0625 55.515625 
z
" id="DejaVuSans-114"/>
       <path d="M 34.28125 27.484375 
Q 23.390625 27.484375 19.1875 25 
Q 14.984375 22.515625 14.984375 16.5 
Q 14.984375 11.71875 18.140625 8.90625 
Q 21.296875 6.109375 26.703125 6.109375 
Q 34.1875 6.109375 38.703125 11.40625 
Q 43.21875 16.703125 43.21875 25.484375 
L 43.21875 27.484375 
z
M 52.203125 31.203125 
L 52.203125 0 
L 43.21875 0 
L 43.21875 8.296875 
Q 40.140625 3.328125 35.546875 0.953125 
Q 30.953125 -1.421875 24.3125 -1.421875 
Q 15.921875 -1.421875 10.953125 3.296875 
Q 6 8.015625 6 15.921875 
Q 6 25.140625 12.171875 29.828125 
Q 18.359375 34.515625 30.609375 34.515625 
L 43.21875 34.515625 
L 43.21875 35.40625 
Q 43.21875 41.609375 39.140625 45 
Q 35.0625 48.390625 27.6875 48.390625 
Q 23 48.390625 18.546875 47.265625 
Q 14.109375 46.140625 10.015625 43.890625 
L 10.015625 52.203125 
Q 14.9375 54.109375 19.578125 55.046875 
Q 24.21875 56 28.609375 56 
Q 40.484375 56 46.34375 49.84375 
Q 52.203125 43.703125 52.203125 31.203125 
z
" id="DejaVuSans-97"/>
       <path d="M 54.890625 33.015625 
L 54.890625 0 
L 45.90625 0 
L 45.90625 32.71875 
Q 45.90625 40.484375 42.875 44.328125 
Q 39.84375 48.1875 33.796875 48.1875 
Q 26.515625 48.1875 22.3125 43.546875 
Q 18.109375 38.921875 18.109375 30.90625 
L 18.109375 0 
L 9.078125 0 
L 9.078125 54.6875 
L 18.109375 54.6875 
L 18.109375 46.1875 
Q 21.34375 51.125 25.703125 53.5625 
Q 30.078125 56 35.796875 56 
Q 45.21875 56 50.046875 50.171875 
Q 54.890625 44.34375 54.890625 33.015625 
z
" id="DejaVuSans-110"/>
       <path id="DejaVuSans-32"/>
       <path d="M 18.109375 8.203125 
L 18.109375 -20.796875 
L 9.078125 -20.796875 
L 9.078125 54.6875 
L 18.109375 54.6875 
L 18.109375 46.390625 
Q 20.953125 51.265625 25.265625 53.625 
Q 29.59375 56 35.59375 56 
Q 45.5625 56 51.78125 48.09375 
Q 58.015625 40.1875 58.015625 27.296875 
Q 58.015625 14.40625 51.78125 6.484375 
Q 45.5625 -1.421875 35.59375 -1.421875 
Q 29.59375 -1.421875 25.265625 0.953125 
Q 20.953125 3.328125 18.109375 8.203125 
z
M 48.6875 27.296875 
Q 48.6875 37.203125 44.609375 42.84375 
Q 40.53125 48.484375 33.40625 48.484375 
Q 26.265625 48.484375 22.1875 42.84375 
Q 18.109375 37.203125 18.109375 27.296875 
Q 18.109375 17.390625 22.1875 11.75 
Q 26.265625 6.109375 33.40625 6.109375 
Q 40.53125 6.109375 44.609375 11.75 
Q 48.6875 17.390625 48.6875 27.296875 
z
" id="DejaVuSans-112"/>
       <path d="M 30.609375 48.390625 
Q 23.390625 48.390625 19.1875 42.75 
Q 14.984375 37.109375 14.984375 27.296875 
Q 14.984375 17.484375 19.15625 11.84375 
Q 23.34375 6.203125 30.609375 6.203125 
Q 37.796875 6.203125 41.984375 11.859375 
Q 46.1875 17.53125 46.1875 27.296875 
Q 46.1875 37.015625 41.984375 42.703125 
Q 37.796875 48.390625 30.609375 48.390625 
z
M 30.609375 56 
Q 42.328125 56 49.015625 48.375 
Q 55.71875 40.765625 55.71875 27.296875 
Q 55.71875 13.875 49.015625 6.21875 
Q 42.328125 -1.421875 30.609375 -1.421875 
Q 18.84375 -1.421875 12.171875 6.21875 
Q 5.515625 13.875 5.515625 27.296875 
Q 5.515625 40.765625 12.171875 48.375 
Q 18.84375 56 30.609375 56 
z
" id="DejaVuSans-111"/>
       <path d="M 18.3125 70.21875 
L 18.3125 54.6875 
L 36.8125 54.6875 
L 36.8125 47.703125 
L 18.3125 47.703125 
L 18.3125 18.015625 
Q 18.3125 11.328125 20.140625 9.421875 
Q 21.96875 7.515625 27.59375 7.515625 
L 36.8125 7.515625 
L 36.8125 0 
L 27.59375 0 
Q 17.1875 0 13.234375 3.875 
Q 9.28125 7.765625 9.28125 18.015625 
L 9.28125 47.703125 
L 2.6875 47.703125 
L 2.6875 54.6875 
L 9.28125 54.6875 
L 9.28125 70.21875 
z
" id="DejaVuSans-116"/>
       <path d="M 9.421875 75.984375 
L 18.40625 75.984375 
L 18.40625 0 
L 9.421875 0 
z
" id="DejaVuSans-108"/>
       <path d="M 28.609375 0 
L 0.78125 72.90625 
L 11.078125 72.90625 
L 34.1875 11.53125 
L 57.328125 72.90625 
L 67.578125 72.90625 
L 39.796875 0 
z
" id="DejaVuSans-86"/>
      </defs>
      <use xlink:href="#DejaVuSans-77"/>
      <use x="86.279297" xlink:href="#DejaVuSans-101"/>
      <use x="147.802734" xlink:href="#DejaVuSans-109"/>
      <use x="245.214844" xlink:href="#DejaVuSans-98"/>
      <use x="308.691406" xlink:href="#DejaVuSans-114"/>
      <use x="349.804688" xlink:href="#DejaVuSans-97"/>
      <use x="411.083984" xlink:href="#DejaVuSans-110"/>
      <use x="474.462891" xlink:href="#DejaVuSans-101"/>
      <use x="535.986328" xlink:href="#DejaVuSans-32"/>
      <use x="567.773438" xlink:href="#DejaVuSans-112"/>
      <use x="631.25" xlink:href="#DejaVuSans-111"/>
      <use x="692.431641" xlink:href="#DejaVuSans-116"/>
      <use x="731.640625" xlink:href="#DejaVuSans-101"/>
      <use x="793.164062" xlink:href="#DejaVuSans-110"/>
      <use x="856.542969" xlink:href="#DejaVuSans-116"/>
      <use x="895.751953" xlink:href="#DejaVuSans-105"/>
      <use x="923.535156" xlink:href="#DejaVuSans-97"/>
      <use x="984.814453" xlink:href="#DejaVuSans-108"/>
      <use x="1012.597656" xlink:href="#DejaVuSans-32"/>
      <use x="1044.384766" xlink:href="#DejaVuSans-40"/>
      <use x="1083.398438" xlink:href="#DejaVuSans-109"/>
      <use x="1180.810547" xlink:href="#DejaVuSans-86"/>
      <use x="1249.21875" xlink:href="#DejaVuSans-41"/>
     </g>
    </g>
   </g>
   <g id="line2d_16">
    <path clip-path="url(#pb62703be57)" d="M 69.218182 230.256 
L 69.370364 238.465012 
L 69.674727 240.022487 
L 70.029818 240.815866 
L 70.334182 241.14116 
L 70.435636 240.929607 
L 70.841455 239.904045 
L 71.196545 239.48209 
L 71.399455 239.552678 
L 71.703818 239.669839 
L 72.058909 239.823837 
L 72.819818 240.507678 
L 72.870545 240.420241 
L 73.022727 239.777627 
L 73.225636 239.239192 
L 73.377818 239.212316 
L 73.783636 239.388989 
L 74.138727 239.029829 
L 74.443091 238.969757 
L 74.747455 238.765894 
L 75.051818 238.383145 
L 75.254727 238.300855 
L 75.457636 238.505693 
L 75.914182 239.059044 
L 76.167818 239.177519 
L 76.675091 239.800735 
L 77.030182 240.156857 
L 77.283818 239.932348 
L 77.638909 239.419943 
L 78.399818 239.216128 
L 78.653455 238.659224 
L 78.805636 238.717095 
L 78.957818 238.816291 
L 79.465091 238.360888 
L 79.617273 238.382504 
L 79.921636 238.7738 
L 80.073818 238.871205 
L 80.378182 238.909467 
L 80.733273 239.292991 
L 81.088364 239.662077 
L 81.392727 239.386625 
L 81.646364 239.373806 
L 82.407273 237.96271 
L 82.458 237.989233 
L 82.914545 238.233359 
L 83.117455 238.269954 
L 83.827636 238.821074 
L 84.081273 238.717428 
L 84.284182 238.658953 
L 84.537818 237.991352 
L 84.740727 237.587403 
L 85.095818 236.647318 
L 85.298727 236.231868 
L 85.603091 235.13317 
L 85.755273 235.21364 
L 86.008909 235.811915 
L 87.175636 239.105834 
L 87.277091 239.222175 
L 87.327818 239.158795 
L 87.581455 238.927153 
L 87.784364 238.927964 
L 88.240909 237.402401 
L 88.443818 237.247887 
L 88.646727 237.417644 
L 89.103273 238.264167 
L 89.813455 239.484105 
L 90.371455 240.037182 
L 91.030909 240.373408 
L 91.233818 240.373658 
L 91.690364 239.817121 
L 91.994727 239.853152 
L 92.552727 239.996448 
L 92.857091 239.509182 
L 93.262909 239.268876 
L 93.516545 238.889793 
L 93.770182 238.651299 
L 94.023818 238.60881 
L 94.125273 238.505389 
L 94.328182 237.787998 
L 94.581818 237.19611 
L 94.734 237.268877 
L 94.886182 237.384015 
L 95.089091 237.150161 
L 95.241273 237.297299 
L 95.647091 238.170186 
L 95.900727 238.523538 
L 96.205091 238.681752 
L 96.763091 239.367042 
L 97.473273 240.089874 
L 97.980545 240.369358 
L 98.183455 240.128465 
L 98.690727 239.289055 
L 98.944364 239.33508 
L 99.451636 239.772794 
L 99.806727 240.036374 
L 100.415455 239.716611 
L 100.516909 239.581275 
L 100.872 238.512451 
L 101.227091 238.182601 
L 101.43 238.13195 
L 101.683636 238.254782 
L 101.937273 237.809323 
L 102.140182 237.477359 
L 102.292364 237.585395 
L 102.698182 238.348001 
L 103.357636 239.535243 
L 103.459091 239.536591 
L 103.763455 239.340119 
L 104.067818 239.489671 
L 105.437455 240.456218 
L 106.350545 240.694641 
L 106.756364 240.687496 
L 106.959273 239.566686 
L 107.314364 238.093732 
L 107.517273 237.902311 
L 107.720182 238.046765 
L 108.176727 238.825937 
L 108.430364 239.194173 
L 108.481091 239.156453 
L 108.734727 239.032645 
L 108.988364 239.212831 
L 109.394182 239.620651 
L 110.002909 238.553458 
L 110.307273 238.850343 
L 110.459455 238.945512 
L 110.763818 238.790333 
L 111.017455 238.990634 
L 111.169636 239.05136 
L 111.474 238.942205 
L 111.778364 239.164001 
L 111.930545 239.304522 
L 111.981273 239.225187 
L 112.234909 238.898489 
L 112.437818 238.974738 
L 112.945091 239.559279 
L 113.198727 239.829013 
L 113.249455 239.780925 
L 114.264 238.406616 
L 114.466909 238.548984 
L 114.720545 238.795545 
L 114.974182 238.568002 
L 115.126364 238.587044 
L 115.481455 238.136105 
L 115.684364 238.043262 
L 115.887273 238.193895 
L 116.445273 238.746018 
L 117.003273 238.072941 
L 117.256909 238.251031 
L 117.307636 238.137034 
L 117.612 237.244656 
L 117.764182 237.331638 
L 118.271455 237.895352 
L 118.728 237.299413 
L 118.930909 237.516487 
L 119.793273 238.732592 
L 120.046909 238.859358 
L 120.807818 239.461005 
L 121.112182 239.397571 
L 121.518 239.635439 
L 122.076 239.959718 
L 122.228182 239.643947 
L 122.532545 238.797985 
L 122.735455 238.773369 
L 123.192 239.013903 
L 123.699273 238.36537 
L 123.851455 238.435875 
L 124.815273 236.525673 
L 124.866 236.558262 
L 125.119636 237.021939 
L 126.032727 238.552936 
L 126.590727 238.7181 
L 126.945818 237.923323 
L 127.148727 238.039398 
L 127.300909 238.161875 
L 127.503818 237.898466 
L 127.656 237.990583 
L 128.315455 238.680313 
L 128.518364 238.732606 
L 128.822727 238.472466 
L 129.583636 238.540232 
L 129.837273 238.41876 
L 130.090909 238.608778 
L 130.395273 238.958201 
L 130.496727 238.419029 
L 130.801091 236.921116 
L 131.105455 235.984734 
L 131.562 235.431388 
L 131.714182 235.56707 
L 132.018545 236.375876 
L 132.576545 238.059343 
L 132.627273 238.009745 
L 132.931636 237.478032 
L 133.083818 237.574865 
L 133.438909 238.192269 
L 133.946182 239.017323 
L 134.554909 239.268254 
L 134.859273 238.875347 
L 135.062182 238.920739 
L 135.315818 239.037591 
L 135.873818 238.530046 
L 136.076727 238.443888 
L 136.228909 238.107592 
L 136.482545 237.757889 
L 136.685455 237.860237 
L 136.888364 238.103958 
L 136.939091 238.049963 
L 137.344909 237.070392 
L 137.497091 237.116137 
L 137.750727 237.496826 
L 138.917455 239.608179 
L 139.475455 240.090659 
L 140.185636 240.394121 
L 141.149455 240.558527 
L 141.250909 240.401841 
L 141.656727 239.343599 
L 141.859636 239.275884 
L 142.164 239.456816 
L 142.874182 240.090897 
L 142.924909 240.030692 
L 143.229273 239.643482 
L 143.432182 239.561984 
L 143.736545 239.340106 
L 143.990182 239.257291 
L 144.243818 239.060124 
L 144.497455 239.165396 
L 145.106182 239.759349 
L 145.156909 239.680538 
L 145.410545 239.430546 
L 145.613455 239.404878 
L 145.917818 239.057789 
L 146.120727 239.142983 
L 146.729455 239.808623 
L 147.186 240.158884 
L 147.541091 239.652431 
L 147.794727 239.709468 
L 148.099091 239.833537 
L 148.454182 239.592108 
L 148.657091 239.544321 
L 148.910727 238.900587 
L 149.113636 238.940714 
L 149.519455 239.310921 
L 149.570182 239.24458 
L 149.823818 239.098716 
L 150.077455 239.279563 
L 150.229636 239.376921 
L 150.584727 239.117115 
L 150.686182 239.044084 
L 150.990545 238.662456 
L 151.193455 238.776681 
L 151.802182 239.588339 
L 152.461636 240.249926 
L 152.867455 240.454686 
L 153.628364 239.09508 
L 153.780545 238.985496 
L 154.135636 238.532977 
L 154.490727 237.376852 
L 154.642909 237.31915 
L 154.845818 237.520335 
L 155.353091 238.53689 
L 156.012545 239.670023 
L 156.418364 240.057352 
L 157.077818 239.730011 
L 157.585091 238.612446 
L 157.788 238.708706 
L 158.295273 239.340512 
L 158.751818 239.820475 
L 159.411273 239.723389 
L 160.222909 240.227688 
L 160.476545 240.321092 
L 160.882364 239.616414 
L 161.136 239.649298 
L 161.846182 239.927063 
L 161.998364 239.735292 
L 162.302727 239.015318 
L 162.505636 238.998101 
L 162.860727 239.327823 
L 162.962182 239.366545 
L 163.215818 238.953783 
L 163.520182 238.030462 
L 163.621636 237.919905 
L 164.078182 236.774121 
L 164.382545 236.163345 
L 164.585455 235.906346 
L 164.737636 236.079458 
L 165.092727 237.031627 
L 165.802909 238.942443 
L 165.904364 238.818071 
L 166.208727 238.210733 
L 166.411636 238.219752 
L 166.513091 238.276194 
L 166.918909 237.219154 
L 167.121818 237.467868 
L 167.578364 238.094662 
L 167.832 238.11614 
L 168.136364 238.472818 
L 169.201636 239.939667 
L 169.252364 239.981793 
L 169.303091 239.915402 
L 169.607455 239.399289 
L 169.861091 239.421375 
L 169.962545 239.324959 
L 170.266909 238.965518 
L 170.622 238.873464 
L 171.078545 238.635662 
L 171.940909 234.877242 
L 172.093091 234.94251 
L 172.194545 235.081431 
L 172.803273 233.707319 
L 173.056909 233.447861 
L 173.412 233.826852 
L 174.274364 235.27896 
L 174.325091 235.242876 
L 174.629455 234.73489 
L 174.832364 234.715419 
L 174.984545 234.735006 
L 175.187455 235.13386 
L 175.491818 235.695707 
L 175.644 235.866484 
L 175.694727 235.827297 
L 175.846909 235.406535 
L 176.100545 234.953863 
L 176.455636 235.04941 
L 176.810727 234.744625 
L 177.013636 234.839144 
L 177.267273 235.332778 
L 178.028182 237.089908 
L 178.180364 237.004286 
L 178.484727 236.427875 
L 178.738364 236.321032 
L 178.941273 236.107859 
L 179.296364 235.156716 
L 179.448545 235.209513 
L 180.158727 235.863101 
L 180.310909 235.65466 
L 180.666 235.075015 
L 180.818182 235.208934 
L 181.021091 235.580444 
L 181.071818 235.442825 
L 181.477636 234.143448 
L 181.680545 233.934692 
L 181.832727 234.081697 
L 182.137091 234.893505 
L 182.695091 236.424813 
L 183.100909 237.05001 
L 183.456 236.781084 
L 183.811091 236.233428 
L 184.318364 235.888588 
L 184.521273 235.941643 
L 184.774909 236.303764 
L 184.977818 236.474942 
L 185.231455 236.419701 
L 185.434364 235.494007 
L 186.043091 233.093411 
L 186.195273 233.102057 
L 186.702545 233.718212 
L 187.311273 232.739129 
L 187.615636 231.635722 
L 187.767818 231.74917 
L 187.970727 231.872452 
L 188.224364 232.026524 
L 188.427273 232.514104 
L 188.985273 234.334916 
L 189.036 234.24227 
L 189.340364 233.739752 
L 189.492545 233.687558 
L 189.644727 233.659311 
L 190.101273 234.029549 
L 190.507091 233.758705 
L 190.912909 234.090329 
L 190.963636 234.025735 
L 191.420182 233.521534 
L 192.028909 232.785337 
L 192.181091 232.243582 
L 192.384 231.788148 
L 192.536182 231.945833 
L 192.739091 232.178243 
L 193.195636 232.499418 
L 193.550727 232.455585 
L 193.753636 232.376192 
L 193.905818 232.355723 
L 194.108727 232.250203 
L 194.210182 232.291206 
L 194.717455 231.270155 
L 194.971091 231.580884 
L 195.376909 232.373316 
L 195.478364 232.306929 
L 195.681273 232.288028 
L 195.833455 232.353765 
L 196.087091 232.189169 
L 196.29 232.43679 
L 196.492909 232.732421 
L 196.543636 232.694063 
L 196.949455 232.00257 
L 197.101636 232.194629 
L 197.406 233.081018 
L 197.964 234.835584 
L 198.166909 234.889788 
L 198.572727 234.210773 
L 198.877091 233.466155 
L 199.029273 233.379398 
L 199.638 231.973061 
L 200.043818 230.335883 
L 200.196 230.445608 
L 200.601818 231.423635 
L 200.855455 231.882319 
L 201.007636 231.757382 
L 201.261273 232.006505 
L 201.312 231.874049 
L 201.464182 231.702701 
L 201.616364 231.966164 
L 202.022182 232.957482 
L 202.225091 232.950272 
L 202.377273 232.322579 
L 202.630909 231.585429 
L 202.783091 231.553239 
L 202.986 231.826336 
L 203.138182 231.977165 
L 203.594727 231.47217 
L 204.355636 228.132121 
L 204.507818 227.980983 
L 204.761455 228.130447 
L 204.913636 228.332589 
L 205.623818 230.337524 
L 205.826727 231.367507 
L 205.877455 231.337546 
L 206.131091 231.005664 
L 206.283273 230.795479 
L 206.536909 230.426975 
L 206.689091 230.455373 
L 206.892 230.856044 
L 207.297818 232.455394 
L 208.058727 235.450768 
L 208.515273 235.963184 
L 208.616727 235.507868 
L 208.971818 233.485043 
L 209.276182 233.079963 
L 209.479091 232.796597 
L 210.037091 231.522821 
L 210.290727 230.276011 
L 210.493636 229.575895 
L 210.595091 229.567198 
L 210.747273 229.843107 
L 212.116909 233.516665 
L 212.218364 233.564947 
L 212.421273 233.429306 
L 212.725636 233.941275 
L 213.03 234.353692 
L 213.435818 233.633237 
L 213.790909 233.725887 
L 214.704 232.811152 
L 214.906909 232.856836 
L 215.059091 233.058627 
L 215.109818 232.940112 
L 215.515636 230.193142 
L 215.769273 229.098568 
L 216.022909 228.6799 
L 216.175091 228.803706 
L 216.428727 229.152357 
L 216.631636 229.108941 
L 216.733091 229.19274 
L 216.936 229.830262 
L 218.001273 234.177751 
L 218.407091 234.481188 
L 218.812909 234.903315 
L 218.914364 234.789837 
L 219.523091 233.194494 
L 219.878182 233.023742 
L 220.131818 232.737183 
L 220.284 232.85261 
L 220.486909 233.009103 
L 221.044909 233.231532 
L 221.4 233.538016 
L 221.602909 233.265041 
L 221.856545 232.839512 
L 222.110182 232.808676 
L 222.262364 232.723784 
L 222.414545 232.940141 
L 222.871091 233.859164 
L 223.074 233.937419 
L 223.327636 234.371739 
L 223.682727 234.977671 
L 223.885636 234.958594 
L 224.088545 235.186368 
L 224.545091 236.197734 
L 225.356727 237.901026 
L 225.559636 238.061202 
L 225.914727 238.077389 
L 226.371273 238.421556 
L 226.624909 238.585407 
L 226.726364 238.409429 
L 227.030727 237.751932 
L 227.284364 237.535495 
L 227.588727 236.645358 
L 227.740909 236.469638 
L 227.943818 236.295603 
L 228.451091 236.458713 
L 228.603273 236.463964 
L 228.907636 235.766684 
L 229.059818 235.865632 
L 229.364182 236.474487 
L 230.023636 237.857019 
L 230.530909 238.129667 
L 230.784545 238.08608 
L 231.088909 238.284409 
L 231.444 238.511066 
L 231.596182 238.471612 
L 231.900545 237.774107 
L 232.56 237.570335 
L 232.864364 236.842217 
L 233.016545 236.860204 
L 233.270182 237.195336 
L 234.538364 239.277867 
L 234.842727 239.455168 
L 235.299273 239.147077 
L 235.552909 238.947704 
L 236.212364 237.333463 
L 236.263091 237.353973 
L 236.668909 237.528008 
L 236.871818 237.662834 
L 237.328364 238.354817 
L 237.429818 238.497062 
L 237.480545 238.458225 
L 237.734182 238.272597 
L 237.987818 238.259197 
L 238.241455 238.161848 
L 238.748727 238.262324 
L 239.053091 238.020425 
L 240.321273 238.092954 
L 240.727091 238.370772 
L 241.082182 238.130358 
L 241.335818 238.240766 
L 241.843091 238.819827 
L 242.096727 239.063893 
L 242.248909 238.638096 
L 242.502545 238.121484 
L 242.705455 238.111144 
L 243.009818 238.420352 
L 244.125818 239.736219 
L 244.785273 240.108598 
L 245.647636 240.336618 
L 245.901273 240.072989 
L 246.053455 239.508784 
L 246.307091 238.976495 
L 246.51 238.97777 
L 246.865091 239.292474 
L 247.778182 240.138529 
L 248.031818 240.211143 
L 248.691273 239.958442 
L 249.3 239.970395 
L 249.655091 238.133846 
L 249.959455 237.090811 
L 250.111636 237.044304 
L 250.872545 237.403992 
L 251.024727 237.316436 
L 251.227636 237.546113 
L 251.329091 237.687083 
L 251.532 237.406127 
L 251.684182 237.538267 
L 252.343636 238.410171 
L 252.445091 238.196085 
L 252.901636 236.695148 
L 253.053818 236.746674 
L 253.307455 237.186224 
L 253.713273 237.837621 
L 254.322 238.113745 
L 254.626364 238.462134 
L 254.778545 237.956012 
L 254.981455 237.615998 
L 255.184364 237.683715 
L 255.539455 238.185077 
L 255.945273 238.784884 
L 256.503273 238.127752 
L 256.858364 238.216476 
L 257.162727 237.660124 
L 257.416364 236.936234 
L 257.568545 236.996528 
L 257.872909 237.535863 
L 257.974364 237.610183 
L 258.481636 237.084364 
L 258.887455 236.308267 
L 259.039636 236.322947 
L 259.293273 235.874482 
L 259.496182 236.047903 
L 259.648364 236.198181 
L 259.902 235.899708 
L 260.46 236.366721 
L 260.865818 237.197592 
L 260.916545 237.147148 
L 261.119455 237.072251 
L 261.322364 237.279262 
L 261.931091 238.445217 
L 262.539818 239.367843 
L 262.894909 239.676189 
L 263.503636 239.290678 
L 264.010909 239.603242 
L 264.924 240.130319 
L 265.025455 240.091548 
L 265.482 239.610572 
L 265.786364 239.661905 
L 265.938545 239.655021 
L 266.395091 238.946141 
L 266.648727 238.98512 
L 267.105273 239.374228 
L 267.967636 240.083936 
L 268.728545 240.402644 
L 269.895273 240.611367 
L 272.178 240.762882 
L 272.786727 239.813593 
L 273.091091 239.589391 
L 273.395455 239.685512 
L 274.714364 240.471473 
L 275.221636 239.895124 
L 275.526 238.991805 
L 275.728909 238.93205 
L 276.033273 239.199469 
L 277.098545 240.353079 
L 277.2 240.357966 
L 277.555091 240.074 
L 277.859455 239.99451 
L 278.671091 238.714378 
L 279.533455 239.027379 
L 280.294364 239.874662 
L 280.345091 239.827524 
L 280.649455 239.61014 
L 281.004545 239.599386 
L 282.069818 237.923094 
L 282.272727 238.129035 
L 283.185818 239.415932 
L 283.490182 239.506855 
L 284.251091 240.008006 
L 284.859818 238.678688 
L 285.062727 238.629534 
L 285.316364 238.872248 
L 286.026545 239.822273 
L 286.838182 238.171187 
L 287.041091 238.189071 
L 287.446909 238.415164 
L 288.106364 238.708778 
L 288.36 238.884528 
L 288.613636 239.009137 
L 288.867273 238.912621 
L 288.968727 238.889774 
L 289.273091 238.565749 
L 289.476 238.701174 
L 291.048545 240.420616 
L 291.200727 240.282053 
L 291.961636 239.4592 
L 292.215273 239.532513 
L 293.026909 240.194014 
L 293.737091 240.578644 
L 294.142909 240.655063 
L 294.853091 239.85274 
L 295.106727 239.789777 
L 295.512545 239.992213 
L 295.766182 240.142802 
L 296.121273 239.517996 
L 296.374909 239.463197 
L 297.186545 238.477184 
L 297.389455 238.531087 
L 297.744545 238.969245 
L 298.606909 240.087761 
L 299.215636 240.50663 
L 299.976545 240.750127 
L 300.078 240.705601 
L 300.433091 240.044206 
L 300.686727 239.996026 
L 301.143273 240.058612 
L 301.447636 239.65473 
L 301.752 239.503442 
L 302.005636 239.453719 
L 302.107091 239.460061 
L 302.462182 238.881917 
L 302.817273 238.5154 
L 303.273818 237.79347 
L 303.527455 238.0766 
L 304.288364 238.874353 
L 305.1 239.972892 
L 305.708727 240.414019 
L 306.165273 240.571965 
L 306.621818 239.85307 
L 306.926182 239.94504 
L 307.179818 240.017002 
L 307.433455 239.687858 
L 308.143636 238.575827 
L 308.397273 238.416641 
L 308.650909 238.616679 
L 309.259636 239.284539 
L 309.665455 238.987271 
L 309.919091 239.085973 
L 310.477091 239.639258 
L 311.238 240.28961 
L 311.948182 240.603385 
L 312.912 240.787112 
L 313.013455 240.646032 
L 313.47 239.228724 
L 313.723636 238.874737 
L 313.926545 238.906163 
L 314.281636 239.280242 
L 314.586 239.512034 
L 314.839636 239.313908 
L 315.296182 238.258117 
L 315.549818 238.009328 
L 315.752727 238.140333 
L 316.209273 238.892286 
L 316.564364 239.333973 
L 317.122364 239.274934 
L 317.376 238.663678 
L 317.832545 237.85877 
L 318.035455 238.022933 
L 318.593455 239.031323 
L 318.847091 239.280693 
L 319.202182 239.295968 
L 319.405091 239.32387 
L 319.760182 239.243636 
L 320.166 239.298934 
L 320.622545 238.458142 
L 320.825455 238.401641 
L 321.079091 238.588058 
L 322.753091 240.382981 
L 323.006727 240.40421 
L 323.361818 239.881387 
L 323.615455 239.868303 
L 324.224182 239.994184 
L 324.477818 239.827865 
L 324.782182 239.272846 
L 324.985091 239.274512 
L 325.390909 239.623048 
L 325.847455 240.021801 
L 326.050364 239.659935 
L 326.659091 238.659846 
L 326.862 238.745537 
L 327.318545 239.331198 
L 327.470727 239.536187 
L 327.775091 239.021759 
L 327.978 239.128003 
L 328.485273 239.547507 
L 329.347636 239.071805 
L 329.956364 239.756207 
L 330.463636 240.184701 
L 331.021636 239.837139 
L 331.478182 240.088934 
L 331.630364 240.145975 
L 331.833273 239.566028 
L 332.137636 238.70731 
L 332.340545 238.622839 
L 332.594182 238.831699 
L 333.963818 240.398685 
L 334.268182 240.516121 
L 334.420364 240.065039 
L 334.724727 239.358218 
L 334.927636 239.306534 
L 335.079818 239.252145 
L 335.485636 238.595384 
L 335.688545 238.686224 
L 336.094364 238.953513 
L 336.348 238.97753 
L 336.703091 239.29528 
L 336.804545 239.33604 
L 337.108909 238.954669 
L 337.362545 238.938716 
L 337.920545 238.075043 
L 338.072727 238.032664 
L 338.275636 237.876629 
L 338.478545 238.040745 
L 339.036545 239.043722 
L 339.645273 239.92795 
L 339.898909 240.079139 
L 340.101818 239.439982 
L 340.406182 238.72436 
L 340.609091 238.68441 
L 341.623636 239.100836 
L 341.826545 238.620581 
L 341.978727 238.62741 
L 342.283091 238.980096 
L 343.196182 240.114617 
L 343.703455 240.410764 
L 343.957091 240.284452 
L 344.616545 238.871258 
L 344.819455 238.913391 
L 345.225273 239.348879 
L 345.986182 240.14869 
L 346.442727 239.771003 
L 346.797818 239.94708 
L 347.406545 240.2919 
L 347.508 240.156389 
L 348.218182 238.11445 
L 348.421091 238.215478 
L 348.826909 238.836084 
L 349.080545 239.240332 
L 349.131273 239.20777 
L 349.384909 239.048513 
L 349.638545 239.239097 
L 350.805273 240.382308 
L 351.109636 240.495217 
L 351.464727 239.82735 
L 351.718364 239.85471 
L 351.921273 239.874996 
L 352.327091 239.803889 
L 352.783636 240.065285 
L 352.986545 240.118012 
L 353.138727 239.934227 
L 353.493818 239.234647 
L 353.899636 238.876908 
L 354.305455 239.009201 
L 354.457636 238.350987 
L 354.711273 237.568515 
L 354.914182 237.525048 
L 355.167818 237.857962 
L 356.233091 239.649408 
L 356.436 239.457177 
L 357.044727 238.695762 
L 357.957818 239.19882 
L 359.124545 240.306175 
L 359.682545 240.532682 
L 360.595636 240.220726 
L 361.153636 240.334587 
L 361.965273 239.130054 
L 362.218909 238.654359 
L 362.472545 238.501065 
L 362.675455 238.2847 
L 362.878364 238.411703 
L 363.182727 238.657765 
L 363.487091 238.600616 
L 363.639273 238.142429 
L 363.994364 236.549406 
L 364.146545 236.501066 
L 364.400182 236.605521 
L 364.552364 236.700919 
L 364.907455 237.35859 
L 364.958182 237.244638 
L 365.262545 236.649128 
L 365.465455 236.334934 
L 365.617636 236.429565 
L 366.530727 238.013485 
L 366.784364 238.313451 
L 367.190182 238.27817 
L 367.545273 238.671319 
L 367.748182 238.890479 
L 368.001818 238.562205 
L 368.255455 238.31616 
L 368.458364 238.088705 
L 368.712 237.91371 
L 368.914909 238.028781 
L 369.320727 238.599848 
L 369.878727 239.340074 
L 370.081636 239.20175 
L 370.436727 238.752399 
L 370.690364 238.815099 
L 371.197636 239.313362 
L 371.552727 239.586373 
L 372.06 239.470039 
L 372.161455 239.452991 
L 372.618 238.857112 
L 372.871636 238.683777 
L 373.023818 238.63105 
L 373.328182 238.329479 
L 373.531091 238.436084 
L 373.581818 238.487405 
L 373.581818 238.487405 
" style="fill:none;stroke:#000000;stroke-linecap:square;stroke-width:1.5;"/>
   </g>
   <g id="line2d_17">
    <path clip-path="url(#pb62703be57)" d="M 69.218182 230.256 
L 69.370364 238.465012 
L 69.674727 240.022487 
L 70.029818 240.815866 
L 70.334182 241.14116 
L 70.435636 240.929607 
L 70.841455 239.904045 
L 71.196545 239.48209 
L 71.399455 239.552678 
L 71.703818 239.669839 
L 72.058909 239.823837 
L 72.819818 240.507678 
L 72.870545 240.420241 
L 73.022727 239.777627 
L 73.225636 239.239192 
L 73.377818 239.212316 
L 73.783636 239.388989 
L 74.138727 239.029829 
L 74.443091 238.969757 
L 74.747455 238.765894 
L 75.051818 238.383145 
L 75.254727 238.300855 
L 75.457636 238.505693 
L 75.914182 239.058561 
L 76.167818 239.175057 
L 76.675091 239.793069 
L 77.030182 240.145491 
L 77.283818 239.918122 
L 77.638909 239.400592 
L 78.399818 239.184941 
L 78.653455 238.623609 
L 78.805636 238.67899 
L 78.957818 238.776025 
L 79.465091 238.312964 
L 79.617273 238.33202 
L 79.921636 238.719305 
L 80.073818 238.815311 
L 80.378182 238.850312 
L 80.733273 239.230541 
L 81.088364 239.598036 
L 81.392727 239.320272 
L 81.646364 239.30494 
L 82.458 237.900495 
L 82.914545 238.135517 
L 83.117455 238.169075 
L 83.827636 238.715623 
L 84.081273 238.6076 
L 84.284182 238.545443 
L 84.537818 237.871799 
L 84.740727 237.462532 
L 85.095818 236.502713 
L 85.298727 236.071192 
L 85.603091 234.940355 
L 85.755273 235.00628 
L 86.008909 235.590429 
L 87.226364 239.025353 
L 87.327818 238.994664 
L 87.581455 238.768764 
L 87.784364 238.770962 
L 88.240909 237.229969 
L 88.443818 237.060442 
L 88.646727 237.216085 
L 89.052545 237.944368 
L 89.864182 239.340147 
L 90.422182 239.87386 
L 91.081636 240.194825 
L 91.233818 240.177647 
L 91.690364 239.608527 
L 91.994727 239.633921 
L 92.552727 239.766711 
L 92.857091 239.269245 
L 93.262909 239.013674 
L 93.516545 238.621491 
L 93.770182 238.365985 
L 94.023818 238.309223 
L 94.125273 238.200028 
L 94.328182 237.466024 
L 94.581818 236.843158 
L 94.734 236.899549 
L 94.886182 237.002959 
L 95.089091 236.754482 
L 95.241273 236.89356 
L 95.647091 237.76609 
L 95.900727 238.130031 
L 96.255818 238.346382 
L 97.929818 240.034389 
L 98.031273 240.014271 
L 98.284909 239.579913 
L 98.64 238.967725 
L 98.893636 238.944576 
L 99.299455 239.24499 
L 99.806727 239.650079 
L 100.567636 238.9625 
L 100.872 238.061648 
L 101.531455 237.68627 
L 101.632909 237.760843 
L 101.683636 237.710785 
L 101.937273 237.240793 
L 102.140182 236.880166 
L 102.292364 236.970189 
L 102.647455 237.609927 
L 103.408364 238.985801 
L 103.864909 238.79101 
L 104.270727 239.090017 
L 105.234545 239.819665 
L 105.995455 240.091791 
L 106.756364 240.151336 
L 106.959273 239.010778 
L 107.314364 237.440584 
L 107.517273 237.185782 
L 107.720182 237.281578 
L 108.075273 237.836671 
L 108.430364 238.408118 
L 108.481091 238.373377 
L 108.734727 238.256256 
L 108.988364 238.442951 
L 109.394182 238.875138 
L 110.002909 237.75552 
L 110.256545 237.96587 
L 110.459455 238.11908 
L 110.763818 237.943185 
L 111.017455 238.130582 
L 111.169636 238.188719 
L 111.474 238.062861 
L 111.778364 238.269803 
L 111.930545 238.409195 
L 111.981273 238.329114 
L 112.234909 237.984135 
L 112.437818 238.044486 
L 112.894364 238.562017 
L 113.198727 238.909235 
L 113.249455 238.863497 
L 114.314727 237.359452 
L 114.568364 237.570926 
L 114.720545 237.679966 
L 115.024909 237.431357 
L 115.126364 237.42996 
L 115.481455 236.924703 
L 115.735091 236.800898 
L 115.988727 237.037138 
L 116.394545 237.458307 
L 116.496 237.38521 
L 116.901818 236.703317 
L 117.104727 236.768282 
L 117.256909 236.855091 
L 117.409091 236.27411 
L 117.612 235.763165 
L 117.764182 235.811196 
L 118.271455 236.344452 
L 118.778727 235.696716 
L 119.032364 236.030741 
L 119.742545 237.184004 
L 120.046909 237.357324 
L 120.858545 238.062042 
L 121.162909 238.061319 
L 121.568727 238.350532 
L 122.076 238.675034 
L 122.228182 238.356006 
L 122.532545 237.42994 
L 122.735455 237.342234 
L 122.989091 237.521821 
L 123.141273 237.551787 
L 123.293455 237.297097 
L 123.597818 236.739584 
L 123.952909 236.490891 
L 124.612364 234.761785 
L 124.815273 234.34715 
L 124.967455 234.42573 
L 125.829818 235.849292 
L 126.134182 236.346344 
L 126.438545 236.527611 
L 126.590727 236.587029 
L 126.945818 235.742678 
L 127.098 235.771274 
L 127.300909 235.923336 
L 127.554545 235.625218 
L 127.757455 235.826527 
L 128.214 236.388602 
L 128.569091 236.429561 
L 128.822727 236.220842 
L 129.583636 236.250194 
L 129.837273 236.085904 
L 130.090909 236.247511 
L 130.395273 236.618527 
L 130.496727 236.076437 
L 130.851818 234.085201 
L 131.156182 232.94449 
L 131.663455 231.922689 
L 131.815636 232.079217 
L 132.12 232.912643 
L 132.627273 234.527697 
L 132.931636 234.126735 
L 133.134545 234.34599 
L 133.591091 235.402793 
L 133.996909 236.19568 
L 134.504182 236.653509 
L 134.707091 236.104721 
L 135.011455 235.589787 
L 135.468 235.30955 
L 136.178182 234.515874 
L 136.482545 233.884863 
L 136.685455 233.904258 
L 136.888364 234.118327 
L 136.939091 234.061933 
L 137.446364 232.772425 
L 137.598545 232.831778 
L 137.852182 233.236304 
L 138.511636 234.942496 
L 139.221818 236.501098 
L 139.830545 237.303186 
L 140.439273 237.745804 
L 141.149455 237.993397 
L 141.250909 237.842456 
L 141.707455 236.537422 
L 141.961091 236.406048 
L 142.265455 236.551676 
L 142.924909 237.080284 
L 143.229273 236.673582 
L 143.432182 236.566026 
L 143.787273 236.250958 
L 143.939455 236.191886 
L 144.294545 235.801408 
L 144.548182 235.881348 
L 145.004727 236.387055 
L 145.106182 236.449984 
L 145.461273 236.088431 
L 145.613455 236.034388 
L 145.968545 235.547629 
L 146.222182 235.635848 
L 146.678727 236.146158 
L 147.186 236.686612 
L 147.591818 236.125983 
L 147.845455 236.168111 
L 148.099091 236.23996 
L 148.555636 235.87893 
L 148.657091 235.78819 
L 148.910727 234.954636 
L 149.113636 234.835266 
L 149.367273 234.997669 
L 149.519455 235.051913 
L 149.823818 234.720672 
L 150.026727 234.786791 
L 150.229636 234.912921 
L 150.280364 234.847554 
L 150.584727 234.556442 
L 150.686182 234.448287 
L 151.041273 233.828599 
L 151.244182 233.869894 
L 151.548545 234.226666 
L 152.867455 236.224541 
L 152.918182 236.146954 
L 154.186364 233.333982 
L 154.592182 231.401223 
L 154.845818 231.003579 
L 155.048727 231.027278 
L 155.302364 231.352398 
L 155.758909 232.402925 
L 156.519818 234.145727 
L 157.077818 234.283713 
L 157.280727 233.548657 
L 157.585091 232.797558 
L 157.838727 232.663794 
L 158.092364 232.79875 
L 158.548909 233.380848 
L 158.802545 233.636616 
L 159.411273 233.621413 
L 159.867818 233.984288 
L 160.476545 234.589876 
L 160.527273 234.499469 
L 160.882364 233.79121 
L 161.136 233.683609 
L 161.491091 233.821354 
L 161.744727 233.928283 
L 161.947636 233.756889 
L 162.657818 232.128235 
L 163.012909 232.014084 
L 163.266545 231.091503 
L 164.230364 223.852689 
L 164.534727 218.424575 
L 164.737636 211.729942 
L 164.889818 197.738581 
L 164.940545 180.608256 
L 164.986398 -1 
M 165.24693 -1 
L 165.247068 289 
M 165.40331 289 
L 165.40351 -1 
M 165.462339 -1 
L 165.462405 289 
M 165.544821 289 
L 165.544905 -1 
M 165.605298 -1 
L 165.607065 289 
M 165.698775 289 
L 165.700719 -1 
M 165.904502 -1 
L 165.904684 289 
M 166.005364 289 
L 166.005546 -1 
M 166.056604 -1 
L 166.056731 289 
M 166.157788 289 
L 166.157914 -1 
M 166.411731 -1 
L 166.415678 289 
M 166.508274 289 
L 166.512155 -1 
M 166.514936 -1 
L 166.52259 289 
M 166.604396 289 
L 166.61193 -1 
M 166.615166 -1 
L 166.616955 289 
M 166.713718 289 
L 166.715512 -1 
M 166.716016 -1 
L 166.716077 289 
M 166.817384 289 
L 166.817445 -1 
M 167.020015 -1 
L 167.020364 3.331766 
L 167.0214 -1 
M 167.172545 -1 
L 167.172545 289 
L 167.172545 289 
" style="fill:none;stroke:#ff0000;stroke-linecap:square;stroke-width:1.5;"/>
   </g>
   <g id="line2d_18">
    <path clip-path="url(#pb62703be57)" d="M 322.81228 213.171429 
L 373.429662 213.171429 
L 373.429662 213.171429 
" style="fill:none;stroke:#000000;stroke-linecap:square;stroke-width:1.5;"/>
   </g>
   <g id="line2d_19">
    <path clip-path="url(#pb62703be57)" d="M 322.81228 189.874286 
L 322.81228 188.321143 
L 322.81228 186.768 
L 322.81228 185.214857 
L 322.81228 183.661714 
L 322.81228 182.108571 
L 322.81228 180.555429 
L 322.81228 179.002286 
L 322.81228 177.449143 
L 322.81228 175.896 
L 322.81228 174.342857 
L 322.81228 172.789714 
L 322.81228 171.236571 
L 322.81228 169.683429 
L 322.81228 168.130286 
L 322.81228 166.577143 
L 322.81228 165.024 
L 322.81228 163.470857 
L 322.81228 161.917714 
L 322.81228 160.364571 
" style="fill:none;stroke:#000000;stroke-linecap:square;stroke-width:1.5;"/>
   </g>
   <g id="patch_3">
    <path d="M 54 252 
L 54 34.56 
" style="fill:none;stroke:#000000;stroke-linecap:square;stroke-linejoin:miter;stroke-width:0.8;"/>
   </g>
   <g id="patch_4">
    <path d="M 54 252 
L 388.8 252 
" style="fill:none;stroke:#000000;stroke-linecap:square;stroke-linejoin:miter;stroke-width:0.8;"/>
   </g>
   <g id="text_18">
    <!-- 500 ms -->
    <g transform="translate(322.81228 211.618286)scale(0.1 -0.1)">
     <use xlink:href="#DejaVuSans-53"/>
     <use x="63.623047" xlink:href="#DejaVuSans-48"/>
     <use x="127.246094" xlink:href="#DejaVuSans-48"/>
     <use x="190.869141" xlink:href="#DejaVuSans-32"/>
     <use x="222.65625" xlink:href="#DejaVuSans-109"/>
     <use x="320.068359" xlink:href="#DejaVuSans-115"/>
    </g>
   </g>
   <g id="text_19">
    <!-- 20 mV -->
    <g transform="translate(327.884162 158.811429)scale(0.1 -0.1)">
     <use xlink:href="#DejaVuSans-50"/>
     <use x="63.623047" xlink:href="#DejaVuSans-48"/>
     <use x="127.246094" xlink:href="#DejaVuSans-32"/>
     <use x="159.033203" xlink:href="#DejaVuSans-109"/>
     <use x="256.445312" xlink:href="#DejaVuSans-86"/>
    </g>
   </g>
  </g>
 </g>
 <defs>
  <clipPath id="pb62703be57">
   <rect height="217.44" width="334.8" x="54" y="34.56"/>
  </clipPath>
 </defs>
</svg>
