<?xml version="1.0" encoding="utf-8" standalone="no"?>
<!DOCTYPE svg PUBLIC "-//W3C//DTD SVG 1.1//EN"
  "http://www.w3.org/Graphics/SVG/1.1/DTD/svg11.dtd">
<svg xmlns:xlink="http://www.w3.org/1999/xlink" width="432pt" height="288pt" viewBox="0 0 432 288" xmlns="http://www.w3.org/2000/svg" version="1.1">
 <metadata>
  <rdf:RDF xmlns:dc="http://purl.org/dc/elements/1.1/" xmlns:cc="http://creativecommons.org/ns#" xmlns:rdf="http://www.w3.org/1999/02/22-rdf-syntax-ns#">
   <cc:Work>
    <dc:type rdf:resource="http://purl.org/dc/dcmitype/StillImage"/>
    <dc:date>2022-07-12T18:39:06.194427</dc:date>
    <dc:format>image/svg+xml</dc:format>
    <dc:creator>
     <cc:Agent>
      <dc:title>Matplotlib v3.5.2, https://matplotlib.org/</dc:title>
     </cc:Agent>
    </dc:creator>
   </cc:Work>
  </rdf:RDF>
 </metadata>
 <defs>
  <style type="text/css">*{stroke-linejoin: round; stroke-linecap: butt}</style>
 </defs>
 <g id="figure_1">
  <g id="patch_1">
   <path d="M 0 288 
L 432 288 
L 432 0 
L 0 0 
L 0 288 
z
" style="fill: none"/>
  </g>
  <g id="axes_1">
   <g id="patch_2">
    <path d="M 54 252 
L 388.8 252 
L 388.8 34.56 
L 54 34.56 
z
" style="fill: #ffffff"/>
   </g>
   <g id="matplotlib.axis_1">
    <g id="xtick_1">
     <g id="line2d_1">
      <defs>
       <path id="m2cbe7ad903" d="M 0 0 
L 0 3.5 
" style="stroke: #000000; stroke-width: 0.8"/>
      </defs>
      <g>
       <use xlink:href="#m2cbe7ad903" x="69.218182" y="252" style="stroke: #000000; stroke-width: 0.8"/>
      </g>
     </g>
     <g id="text_1">
      <!-- 0 -->
      <g transform="translate(66.036932 266.598437)scale(0.1 -0.1)">
       <defs>
        <path id="DejaVuSans-30" d="M 2034 4250 
Q 1547 4250 1301 3770 
Q 1056 3291 1056 2328 
Q 1056 1369 1301 889 
Q 1547 409 2034 409 
Q 2525 409 2770 889 
Q 3016 1369 3016 2328 
Q 3016 3291 2770 3770 
Q 2525 4250 2034 4250 
z
M 2034 4750 
Q 2819 4750 3233 4129 
Q 3647 3509 3647 2328 
Q 3647 1150 3233 529 
Q 2819 -91 2034 -91 
Q 1250 -91 836 529 
Q 422 1150 422 2328 
Q 422 3509 836 4129 
Q 1250 4750 2034 4750 
z
" transform="scale(0.015625)"/>
       </defs>
       <use xlink:href="#DejaVuSans-30"/>
      </g>
     </g>
    </g>
    <g id="xtick_2">
     <g id="line2d_2">
      <g>
       <use xlink:href="#m2cbe7ad903" x="119.945032" y="252" style="stroke: #000000; stroke-width: 0.8"/>
      </g>
     </g>
     <g id="text_2">
      <!-- 10000 -->
      <g transform="translate(104.038782 266.598437)scale(0.1 -0.1)">
       <defs>
        <path id="DejaVuSans-31" d="M 794 531 
L 1825 531 
L 1825 4091 
L 703 3866 
L 703 4441 
L 1819 4666 
L 2450 4666 
L 2450 531 
L 3481 531 
L 3481 0 
L 794 0 
L 794 531 
z
" transform="scale(0.015625)"/>
       </defs>
       <use xlink:href="#DejaVuSans-31"/>
       <use xlink:href="#DejaVuSans-30" x="63.623047"/>
       <use xlink:href="#DejaVuSans-30" x="127.246094"/>
       <use xlink:href="#DejaVuSans-30" x="190.869141"/>
       <use xlink:href="#DejaVuSans-30" x="254.492188"/>
      </g>
     </g>
    </g>
    <g id="xtick_3">
     <g id="line2d_3">
      <g>
       <use xlink:href="#m2cbe7ad903" x="170.671882" y="252" style="stroke: #000000; stroke-width: 0.8"/>
      </g>
     </g>
     <g id="text_3">
      <!-- 20000 -->
      <g transform="translate(154.765632 266.598437)scale(0.1 -0.1)">
       <defs>
        <path id="DejaVuSans-32" d="M 1228 531 
L 3431 531 
L 3431 0 
L 469 0 
L 469 531 
Q 828 903 1448 1529 
Q 2069 2156 2228 2338 
Q 2531 2678 2651 2914 
Q 2772 3150 2772 3378 
Q 2772 3750 2511 3984 
Q 2250 4219 1831 4219 
Q 1534 4219 1204 4116 
Q 875 4013 500 3803 
L 500 4441 
Q 881 4594 1212 4672 
Q 1544 4750 1819 4750 
Q 2544 4750 2975 4387 
Q 3406 4025 3406 3419 
Q 3406 3131 3298 2873 
Q 3191 2616 2906 2266 
Q 2828 2175 2409 1742 
Q 1991 1309 1228 531 
z
" transform="scale(0.015625)"/>
       </defs>
       <use xlink:href="#DejaVuSans-32"/>
       <use xlink:href="#DejaVuSans-30" x="63.623047"/>
       <use xlink:href="#DejaVuSans-30" x="127.246094"/>
       <use xlink:href="#DejaVuSans-30" x="190.869141"/>
       <use xlink:href="#DejaVuSans-30" x="254.492188"/>
      </g>
     </g>
    </g>
    <g id="xtick_4">
     <g id="line2d_4">
      <g>
       <use xlink:href="#m2cbe7ad903" x="221.398732" y="252" style="stroke: #000000; stroke-width: 0.8"/>
      </g>
     </g>
     <g id="text_4">
      <!-- 30000 -->
      <g transform="translate(205.492482 266.598437)scale(0.1 -0.1)">
       <defs>
        <path id="DejaVuSans-33" d="M 2597 2516 
Q 3050 2419 3304 2112 
Q 3559 1806 3559 1356 
Q 3559 666 3084 287 
Q 2609 -91 1734 -91 
Q 1441 -91 1130 -33 
Q 819 25 488 141 
L 488 750 
Q 750 597 1062 519 
Q 1375 441 1716 441 
Q 2309 441 2620 675 
Q 2931 909 2931 1356 
Q 2931 1769 2642 2001 
Q 2353 2234 1838 2234 
L 1294 2234 
L 1294 2753 
L 1863 2753 
Q 2328 2753 2575 2939 
Q 2822 3125 2822 3475 
Q 2822 3834 2567 4026 
Q 2313 4219 1838 4219 
Q 1578 4219 1281 4162 
Q 984 4106 628 3988 
L 628 4550 
Q 988 4650 1302 4700 
Q 1616 4750 1894 4750 
Q 2613 4750 3031 4423 
Q 3450 4097 3450 3541 
Q 3450 3153 3228 2886 
Q 3006 2619 2597 2516 
z
" transform="scale(0.015625)"/>
       </defs>
       <use xlink:href="#DejaVuSans-33"/>
       <use xlink:href="#DejaVuSans-30" x="63.623047"/>
       <use xlink:href="#DejaVuSans-30" x="127.246094"/>
       <use xlink:href="#DejaVuSans-30" x="190.869141"/>
       <use xlink:href="#DejaVuSans-30" x="254.492188"/>
      </g>
     </g>
    </g>
    <g id="xtick_5">
     <g id="line2d_5">
      <g>
       <use xlink:href="#m2cbe7ad903" x="272.125582" y="252" style="stroke: #000000; stroke-width: 0.8"/>
      </g>
     </g>
     <g id="text_5">
      <!-- 40000 -->
      <g transform="translate(256.219332 266.598437)scale(0.1 -0.1)">
       <defs>
        <path id="DejaVuSans-34" d="M 2419 4116 
L 825 1625 
L 2419 1625 
L 2419 4116 
z
M 2253 4666 
L 3047 4666 
L 3047 1625 
L 3713 1625 
L 3713 1100 
L 3047 1100 
L 3047 0 
L 2419 0 
L 2419 1100 
L 313 1100 
L 313 1709 
L 2253 4666 
z
" transform="scale(0.015625)"/>
       </defs>
       <use xlink:href="#DejaVuSans-34"/>
       <use xlink:href="#DejaVuSans-30" x="63.623047"/>
       <use xlink:href="#DejaVuSans-30" x="127.246094"/>
       <use xlink:href="#DejaVuSans-30" x="190.869141"/>
       <use xlink:href="#DejaVuSans-30" x="254.492188"/>
      </g>
     </g>
    </g>
    <g id="xtick_6">
     <g id="line2d_6">
      <g>
       <use xlink:href="#m2cbe7ad903" x="322.852432" y="252" style="stroke: #000000; stroke-width: 0.8"/>
      </g>
     </g>
     <g id="text_6">
      <!-- 50000 -->
      <g transform="translate(306.946182 266.598437)scale(0.1 -0.1)">
       <defs>
        <path id="DejaVuSans-35" d="M 691 4666 
L 3169 4666 
L 3169 4134 
L 1269 4134 
L 1269 2991 
Q 1406 3038 1543 3061 
Q 1681 3084 1819 3084 
Q 2600 3084 3056 2656 
Q 3513 2228 3513 1497 
Q 3513 744 3044 326 
Q 2575 -91 1722 -91 
Q 1428 -91 1123 -41 
Q 819 9 494 109 
L 494 744 
Q 775 591 1075 516 
Q 1375 441 1709 441 
Q 2250 441 2565 725 
Q 2881 1009 2881 1497 
Q 2881 1984 2565 2268 
Q 2250 2553 1709 2553 
Q 1456 2553 1204 2497 
Q 953 2441 691 2322 
L 691 4666 
z
" transform="scale(0.015625)"/>
       </defs>
       <use xlink:href="#DejaVuSans-35"/>
       <use xlink:href="#DejaVuSans-30" x="63.623047"/>
       <use xlink:href="#DejaVuSans-30" x="127.246094"/>
       <use xlink:href="#DejaVuSans-30" x="190.869141"/>
       <use xlink:href="#DejaVuSans-30" x="254.492188"/>
      </g>
     </g>
    </g>
    <g id="xtick_7">
     <g id="line2d_7">
      <g>
       <use xlink:href="#m2cbe7ad903" x="373.579282" y="252" style="stroke: #000000; stroke-width: 0.8"/>
      </g>
     </g>
     <g id="text_7">
      <!-- 60000 -->
      <g transform="translate(357.673032 266.598437)scale(0.1 -0.1)">
       <defs>
        <path id="DejaVuSans-36" d="M 2113 2584 
Q 1688 2584 1439 2293 
Q 1191 2003 1191 1497 
Q 1191 994 1439 701 
Q 1688 409 2113 409 
Q 2538 409 2786 701 
Q 3034 994 3034 1497 
Q 3034 2003 2786 2293 
Q 2538 2584 2113 2584 
z
M 3366 4563 
L 3366 3988 
Q 3128 4100 2886 4159 
Q 2644 4219 2406 4219 
Q 1781 4219 1451 3797 
Q 1122 3375 1075 2522 
Q 1259 2794 1537 2939 
Q 1816 3084 2150 3084 
Q 2853 3084 3261 2657 
Q 3669 2231 3669 1497 
Q 3669 778 3244 343 
Q 2819 -91 2113 -91 
Q 1303 -91 875 529 
Q 447 1150 447 2328 
Q 447 3434 972 4092 
Q 1497 4750 2381 4750 
Q 2619 4750 2861 4703 
Q 3103 4656 3366 4563 
z
" transform="scale(0.015625)"/>
       </defs>
       <use xlink:href="#DejaVuSans-36"/>
       <use xlink:href="#DejaVuSans-30" x="63.623047"/>
       <use xlink:href="#DejaVuSans-30" x="127.246094"/>
       <use xlink:href="#DejaVuSans-30" x="190.869141"/>
       <use xlink:href="#DejaVuSans-30" x="254.492188"/>
      </g>
     </g>
    </g>
    <g id="text_8">
     <!-- Time(ms) -->
     <g transform="translate(197.789844 280.276563)scale(0.1 -0.1)">
      <defs>
       <path id="DejaVuSans-54" d="M -19 4666 
L 3928 4666 
L 3928 4134 
L 2272 4134 
L 2272 0 
L 1638 0 
L 1638 4134 
L -19 4134 
L -19 4666 
z
" transform="scale(0.015625)"/>
       <path id="DejaVuSans-69" d="M 603 3500 
L 1178 3500 
L 1178 0 
L 603 0 
L 603 3500 
z
M 603 4863 
L 1178 4863 
L 1178 4134 
L 603 4134 
L 603 4863 
z
" transform="scale(0.015625)"/>
       <path id="DejaVuSans-6d" d="M 3328 2828 
Q 3544 3216 3844 3400 
Q 4144 3584 4550 3584 
Q 5097 3584 5394 3201 
Q 5691 2819 5691 2113 
L 5691 0 
L 5113 0 
L 5113 2094 
Q 5113 2597 4934 2840 
Q 4756 3084 4391 3084 
Q 3944 3084 3684 2787 
Q 3425 2491 3425 1978 
L 3425 0 
L 2847 0 
L 2847 2094 
Q 2847 2600 2669 2842 
Q 2491 3084 2119 3084 
Q 1678 3084 1418 2786 
Q 1159 2488 1159 1978 
L 1159 0 
L 581 0 
L 581 3500 
L 1159 3500 
L 1159 2956 
Q 1356 3278 1631 3431 
Q 1906 3584 2284 3584 
Q 2666 3584 2933 3390 
Q 3200 3197 3328 2828 
z
" transform="scale(0.015625)"/>
       <path id="DejaVuSans-65" d="M 3597 1894 
L 3597 1613 
L 953 1613 
Q 991 1019 1311 708 
Q 1631 397 2203 397 
Q 2534 397 2845 478 
Q 3156 559 3463 722 
L 3463 178 
Q 3153 47 2828 -22 
Q 2503 -91 2169 -91 
Q 1331 -91 842 396 
Q 353 884 353 1716 
Q 353 2575 817 3079 
Q 1281 3584 2069 3584 
Q 2775 3584 3186 3129 
Q 3597 2675 3597 1894 
z
M 3022 2063 
Q 3016 2534 2758 2815 
Q 2500 3097 2075 3097 
Q 1594 3097 1305 2825 
Q 1016 2553 972 2059 
L 3022 2063 
z
" transform="scale(0.015625)"/>
       <path id="DejaVuSans-28" d="M 1984 4856 
Q 1566 4138 1362 3434 
Q 1159 2731 1159 2009 
Q 1159 1288 1364 580 
Q 1569 -128 1984 -844 
L 1484 -844 
Q 1016 -109 783 600 
Q 550 1309 550 2009 
Q 550 2706 781 3412 
Q 1013 4119 1484 4856 
L 1984 4856 
z
" transform="scale(0.015625)"/>
       <path id="DejaVuSans-73" d="M 2834 3397 
L 2834 2853 
Q 2591 2978 2328 3040 
Q 2066 3103 1784 3103 
Q 1356 3103 1142 2972 
Q 928 2841 928 2578 
Q 928 2378 1081 2264 
Q 1234 2150 1697 2047 
L 1894 2003 
Q 2506 1872 2764 1633 
Q 3022 1394 3022 966 
Q 3022 478 2636 193 
Q 2250 -91 1575 -91 
Q 1294 -91 989 -36 
Q 684 19 347 128 
L 347 722 
Q 666 556 975 473 
Q 1284 391 1588 391 
Q 1994 391 2212 530 
Q 2431 669 2431 922 
Q 2431 1156 2273 1281 
Q 2116 1406 1581 1522 
L 1381 1569 
Q 847 1681 609 1914 
Q 372 2147 372 2553 
Q 372 3047 722 3315 
Q 1072 3584 1716 3584 
Q 2034 3584 2315 3537 
Q 2597 3491 2834 3397 
z
" transform="scale(0.015625)"/>
       <path id="DejaVuSans-29" d="M 513 4856 
L 1013 4856 
Q 1481 4119 1714 3412 
Q 1947 2706 1947 2009 
Q 1947 1309 1714 600 
Q 1481 -109 1013 -844 
L 513 -844 
Q 928 -128 1133 580 
Q 1338 1288 1338 2009 
Q 1338 2731 1133 3434 
Q 928 4138 513 4856 
z
" transform="scale(0.015625)"/>
      </defs>
      <use xlink:href="#DejaVuSans-54"/>
      <use xlink:href="#DejaVuSans-69" x="57.958984"/>
      <use xlink:href="#DejaVuSans-6d" x="85.742188"/>
      <use xlink:href="#DejaVuSans-65" x="183.154297"/>
      <use xlink:href="#DejaVuSans-28" x="244.677734"/>
      <use xlink:href="#DejaVuSans-6d" x="283.691406"/>
      <use xlink:href="#DejaVuSans-73" x="381.103516"/>
      <use xlink:href="#DejaVuSans-29" x="433.203125"/>
     </g>
    </g>
   </g>
   <g id="matplotlib.axis_2">
    <g id="ytick_1">
     <g id="line2d_8">
      <defs>
       <path id="m88ad091e63" d="M 0 0 
L -3.5 0 
" style="stroke: #000000; stroke-width: 0.8"/>
      </defs>
      <g>
       <use xlink:href="#m88ad091e63" x="54" y="252" style="stroke: #000000; stroke-width: 0.8"/>
      </g>
     </g>
     <g id="text_9">
      <!-- −100 -->
      <g transform="translate(19.532812 255.799219)scale(0.1 -0.1)">
       <defs>
        <path id="DejaVuSans-2212" d="M 678 2272 
L 4684 2272 
L 4684 1741 
L 678 1741 
L 678 2272 
z
" transform="scale(0.015625)"/>
       </defs>
       <use xlink:href="#DejaVuSans-2212"/>
       <use xlink:href="#DejaVuSans-31" x="83.789062"/>
       <use xlink:href="#DejaVuSans-30" x="147.412109"/>
       <use xlink:href="#DejaVuSans-30" x="211.035156"/>
      </g>
     </g>
    </g>
    <g id="ytick_2">
     <g id="line2d_9">
      <g>
       <use xlink:href="#m88ad091e63" x="54" y="208.512" style="stroke: #000000; stroke-width: 0.8"/>
      </g>
     </g>
     <g id="text_10">
      <!-- −90 -->
      <g transform="translate(25.895312 212.311219)scale(0.1 -0.1)">
       <defs>
        <path id="DejaVuSans-39" d="M 703 97 
L 703 672 
Q 941 559 1184 500 
Q 1428 441 1663 441 
Q 2288 441 2617 861 
Q 2947 1281 2994 2138 
Q 2813 1869 2534 1725 
Q 2256 1581 1919 1581 
Q 1219 1581 811 2004 
Q 403 2428 403 3163 
Q 403 3881 828 4315 
Q 1253 4750 1959 4750 
Q 2769 4750 3195 4129 
Q 3622 3509 3622 2328 
Q 3622 1225 3098 567 
Q 2575 -91 1691 -91 
Q 1453 -91 1209 -44 
Q 966 3 703 97 
z
M 1959 2075 
Q 2384 2075 2632 2365 
Q 2881 2656 2881 3163 
Q 2881 3666 2632 3958 
Q 2384 4250 1959 4250 
Q 1534 4250 1286 3958 
Q 1038 3666 1038 3163 
Q 1038 2656 1286 2365 
Q 1534 2075 1959 2075 
z
" transform="scale(0.015625)"/>
       </defs>
       <use xlink:href="#DejaVuSans-2212"/>
       <use xlink:href="#DejaVuSans-39" x="83.789062"/>
       <use xlink:href="#DejaVuSans-30" x="147.412109"/>
      </g>
     </g>
    </g>
    <g id="ytick_3">
     <g id="line2d_10">
      <g>
       <use xlink:href="#m88ad091e63" x="54" y="165.024" style="stroke: #000000; stroke-width: 0.8"/>
      </g>
     </g>
     <g id="text_11">
      <!-- −80 -->
      <g transform="translate(25.895312 168.823219)scale(0.1 -0.1)">
       <defs>
        <path id="DejaVuSans-38" d="M 2034 2216 
Q 1584 2216 1326 1975 
Q 1069 1734 1069 1313 
Q 1069 891 1326 650 
Q 1584 409 2034 409 
Q 2484 409 2743 651 
Q 3003 894 3003 1313 
Q 3003 1734 2745 1975 
Q 2488 2216 2034 2216 
z
M 1403 2484 
Q 997 2584 770 2862 
Q 544 3141 544 3541 
Q 544 4100 942 4425 
Q 1341 4750 2034 4750 
Q 2731 4750 3128 4425 
Q 3525 4100 3525 3541 
Q 3525 3141 3298 2862 
Q 3072 2584 2669 2484 
Q 3125 2378 3379 2068 
Q 3634 1759 3634 1313 
Q 3634 634 3220 271 
Q 2806 -91 2034 -91 
Q 1263 -91 848 271 
Q 434 634 434 1313 
Q 434 1759 690 2068 
Q 947 2378 1403 2484 
z
M 1172 3481 
Q 1172 3119 1398 2916 
Q 1625 2713 2034 2713 
Q 2441 2713 2670 2916 
Q 2900 3119 2900 3481 
Q 2900 3844 2670 4047 
Q 2441 4250 2034 4250 
Q 1625 4250 1398 4047 
Q 1172 3844 1172 3481 
z
" transform="scale(0.015625)"/>
       </defs>
       <use xlink:href="#DejaVuSans-2212"/>
       <use xlink:href="#DejaVuSans-38" x="83.789062"/>
       <use xlink:href="#DejaVuSans-30" x="147.412109"/>
      </g>
     </g>
    </g>
    <g id="ytick_4">
     <g id="line2d_11">
      <g>
       <use xlink:href="#m88ad091e63" x="54" y="121.536" style="stroke: #000000; stroke-width: 0.8"/>
      </g>
     </g>
     <g id="text_12">
      <!-- −70 -->
      <g transform="translate(25.895312 125.335219)scale(0.1 -0.1)">
       <defs>
        <path id="DejaVuSans-37" d="M 525 4666 
L 3525 4666 
L 3525 4397 
L 1831 0 
L 1172 0 
L 2766 4134 
L 525 4134 
L 525 4666 
z
" transform="scale(0.015625)"/>
       </defs>
       <use xlink:href="#DejaVuSans-2212"/>
       <use xlink:href="#DejaVuSans-37" x="83.789062"/>
       <use xlink:href="#DejaVuSans-30" x="147.412109"/>
      </g>
     </g>
    </g>
    <g id="ytick_5">
     <g id="line2d_12">
      <g>
       <use xlink:href="#m88ad091e63" x="54" y="78.048" style="stroke: #000000; stroke-width: 0.8"/>
      </g>
     </g>
     <g id="text_13">
      <!-- −60 -->
      <g transform="translate(25.895312 81.847219)scale(0.1 -0.1)">
       <use xlink:href="#DejaVuSans-2212"/>
       <use xlink:href="#DejaVuSans-36" x="83.789062"/>
       <use xlink:href="#DejaVuSans-30" x="147.412109"/>
      </g>
     </g>
    </g>
    <g id="ytick_6">
     <g id="line2d_13">
      <g>
       <use xlink:href="#m88ad091e63" x="54" y="34.56" style="stroke: #000000; stroke-width: 0.8"/>
      </g>
     </g>
     <g id="text_14">
      <!-- −50 -->
      <g transform="translate(25.895312 38.359219)scale(0.1 -0.1)">
       <use xlink:href="#DejaVuSans-2212"/>
       <use xlink:href="#DejaVuSans-35" x="83.789062"/>
       <use xlink:href="#DejaVuSans-30" x="147.412109"/>
      </g>
     </g>
    </g>
    <g id="text_15">
     <!-- Membrane potential (mV) -->
     <g transform="translate(13.453125 207.691719)rotate(-90)scale(0.1 -0.1)">
      <defs>
       <path id="DejaVuSans-4d" d="M 628 4666 
L 1569 4666 
L 2759 1491 
L 3956 4666 
L 4897 4666 
L 4897 0 
L 4281 0 
L 4281 4097 
L 3078 897 
L 2444 897 
L 1241 4097 
L 1241 0 
L 628 0 
L 628 4666 
z
" transform="scale(0.015625)"/>
       <path id="DejaVuSans-62" d="M 3116 1747 
Q 3116 2381 2855 2742 
Q 2594 3103 2138 3103 
Q 1681 3103 1420 2742 
Q 1159 2381 1159 1747 
Q 1159 1113 1420 752 
Q 1681 391 2138 391 
Q 2594 391 2855 752 
Q 3116 1113 3116 1747 
z
M 1159 2969 
Q 1341 3281 1617 3432 
Q 1894 3584 2278 3584 
Q 2916 3584 3314 3078 
Q 3713 2572 3713 1747 
Q 3713 922 3314 415 
Q 2916 -91 2278 -91 
Q 1894 -91 1617 61 
Q 1341 213 1159 525 
L 1159 0 
L 581 0 
L 581 4863 
L 1159 4863 
L 1159 2969 
z
" transform="scale(0.015625)"/>
       <path id="DejaVuSans-72" d="M 2631 2963 
Q 2534 3019 2420 3045 
Q 2306 3072 2169 3072 
Q 1681 3072 1420 2755 
Q 1159 2438 1159 1844 
L 1159 0 
L 581 0 
L 581 3500 
L 1159 3500 
L 1159 2956 
Q 1341 3275 1631 3429 
Q 1922 3584 2338 3584 
Q 2397 3584 2469 3576 
Q 2541 3569 2628 3553 
L 2631 2963 
z
" transform="scale(0.015625)"/>
       <path id="DejaVuSans-61" d="M 2194 1759 
Q 1497 1759 1228 1600 
Q 959 1441 959 1056 
Q 959 750 1161 570 
Q 1363 391 1709 391 
Q 2188 391 2477 730 
Q 2766 1069 2766 1631 
L 2766 1759 
L 2194 1759 
z
M 3341 1997 
L 3341 0 
L 2766 0 
L 2766 531 
Q 2569 213 2275 61 
Q 1981 -91 1556 -91 
Q 1019 -91 701 211 
Q 384 513 384 1019 
Q 384 1609 779 1909 
Q 1175 2209 1959 2209 
L 2766 2209 
L 2766 2266 
Q 2766 2663 2505 2880 
Q 2244 3097 1772 3097 
Q 1472 3097 1187 3025 
Q 903 2953 641 2809 
L 641 3341 
Q 956 3463 1253 3523 
Q 1550 3584 1831 3584 
Q 2591 3584 2966 3190 
Q 3341 2797 3341 1997 
z
" transform="scale(0.015625)"/>
       <path id="DejaVuSans-6e" d="M 3513 2113 
L 3513 0 
L 2938 0 
L 2938 2094 
Q 2938 2591 2744 2837 
Q 2550 3084 2163 3084 
Q 1697 3084 1428 2787 
Q 1159 2491 1159 1978 
L 1159 0 
L 581 0 
L 581 3500 
L 1159 3500 
L 1159 2956 
Q 1366 3272 1645 3428 
Q 1925 3584 2291 3584 
Q 2894 3584 3203 3211 
Q 3513 2838 3513 2113 
z
" transform="scale(0.015625)"/>
       <path id="DejaVuSans-20" transform="scale(0.015625)"/>
       <path id="DejaVuSans-70" d="M 1159 525 
L 1159 -1331 
L 581 -1331 
L 581 3500 
L 1159 3500 
L 1159 2969 
Q 1341 3281 1617 3432 
Q 1894 3584 2278 3584 
Q 2916 3584 3314 3078 
Q 3713 2572 3713 1747 
Q 3713 922 3314 415 
Q 2916 -91 2278 -91 
Q 1894 -91 1617 61 
Q 1341 213 1159 525 
z
M 3116 1747 
Q 3116 2381 2855 2742 
Q 2594 3103 2138 3103 
Q 1681 3103 1420 2742 
Q 1159 2381 1159 1747 
Q 1159 1113 1420 752 
Q 1681 391 2138 391 
Q 2594 391 2855 752 
Q 3116 1113 3116 1747 
z
" transform="scale(0.015625)"/>
       <path id="DejaVuSans-6f" d="M 1959 3097 
Q 1497 3097 1228 2736 
Q 959 2375 959 1747 
Q 959 1119 1226 758 
Q 1494 397 1959 397 
Q 2419 397 2687 759 
Q 2956 1122 2956 1747 
Q 2956 2369 2687 2733 
Q 2419 3097 1959 3097 
z
M 1959 3584 
Q 2709 3584 3137 3096 
Q 3566 2609 3566 1747 
Q 3566 888 3137 398 
Q 2709 -91 1959 -91 
Q 1206 -91 779 398 
Q 353 888 353 1747 
Q 353 2609 779 3096 
Q 1206 3584 1959 3584 
z
" transform="scale(0.015625)"/>
       <path id="DejaVuSans-74" d="M 1172 4494 
L 1172 3500 
L 2356 3500 
L 2356 3053 
L 1172 3053 
L 1172 1153 
Q 1172 725 1289 603 
Q 1406 481 1766 481 
L 2356 481 
L 2356 0 
L 1766 0 
Q 1100 0 847 248 
Q 594 497 594 1153 
L 594 3053 
L 172 3053 
L 172 3500 
L 594 3500 
L 594 4494 
L 1172 4494 
z
" transform="scale(0.015625)"/>
       <path id="DejaVuSans-6c" d="M 603 4863 
L 1178 4863 
L 1178 0 
L 603 0 
L 603 4863 
z
" transform="scale(0.015625)"/>
       <path id="DejaVuSans-56" d="M 1831 0 
L 50 4666 
L 709 4666 
L 2188 738 
L 3669 4666 
L 4325 4666 
L 2547 0 
L 1831 0 
z
" transform="scale(0.015625)"/>
      </defs>
      <use xlink:href="#DejaVuSans-4d"/>
      <use xlink:href="#DejaVuSans-65" x="86.279297"/>
      <use xlink:href="#DejaVuSans-6d" x="147.802734"/>
      <use xlink:href="#DejaVuSans-62" x="245.214844"/>
      <use xlink:href="#DejaVuSans-72" x="308.691406"/>
      <use xlink:href="#DejaVuSans-61" x="349.804688"/>
      <use xlink:href="#DejaVuSans-6e" x="411.083984"/>
      <use xlink:href="#DejaVuSans-65" x="474.462891"/>
      <use xlink:href="#DejaVuSans-20" x="535.986328"/>
      <use xlink:href="#DejaVuSans-70" x="567.773438"/>
      <use xlink:href="#DejaVuSans-6f" x="631.25"/>
      <use xlink:href="#DejaVuSans-74" x="692.431641"/>
      <use xlink:href="#DejaVuSans-65" x="731.640625"/>
      <use xlink:href="#DejaVuSans-6e" x="793.164062"/>
      <use xlink:href="#DejaVuSans-74" x="856.542969"/>
      <use xlink:href="#DejaVuSans-69" x="895.751953"/>
      <use xlink:href="#DejaVuSans-61" x="923.535156"/>
      <use xlink:href="#DejaVuSans-6c" x="984.814453"/>
      <use xlink:href="#DejaVuSans-20" x="1012.597656"/>
      <use xlink:href="#DejaVuSans-28" x="1044.384766"/>
      <use xlink:href="#DejaVuSans-6d" x="1083.398438"/>
      <use xlink:href="#DejaVuSans-56" x="1180.810547"/>
      <use xlink:href="#DejaVuSans-29" x="1249.21875"/>
     </g>
    </g>
   </g>
   <g id="line2d_14">
    <path d="M 69.218182 178.0704 
L 69.319636 174.579025 
L 69.352609 174.662313 
L 69.522545 175.981537 
L 69.918218 178.704003 
L 69.943582 178.658035 
L 70.067864 177.851304 
L 70.384909 176.28622 
L 70.641082 175.580683 
L 71.039291 172.723905 
L 71.145818 172.672716 
L 71.178791 172.701879 
L 71.336045 173.058494 
L 71.670845 174.502061 
L 72.862936 179.905469 
L 72.9441 180.105618 
L 72.989755 179.959217 
L 73.147009 178.364011 
L 73.3626 173.947467 
L 73.639064 170.62726 
L 73.798855 170.286581 
L 73.819145 170.295768 
L 73.935818 170.511581 
L 74.181845 171.553904 
L 74.602882 173.879387 
L 74.6739 173.540304 
L 75.110155 170.756664 
L 75.211609 170.868559 
L 75.3993 171.444557 
L 75.452564 171.135657 
L 75.860918 168.180655 
L 75.865991 168.18168 
L 75.959836 168.322324 
L 76.155136 169.138563 
L 76.725818 172.832324 
L 77.162073 175.365259 
L 77.200118 175.239776 
L 77.364982 173.507753 
L 77.613545 172.061927 
L 77.712464 172.019102 
L 77.747973 172.052833 
L 77.9103 172.436199 
L 78.293291 174.064054 
L 79.282473 178.231724 
L 79.896273 179.854836 
L 80.040845 180.125805 
L 80.071282 179.969852 
L 80.233609 177.393725 
L 80.522755 174.533127 
L 80.718055 174.189045 
L 80.847409 174.335619 
L 81.108655 175.069303 
L 81.395264 175.997243 
L 81.451064 175.861528 
L 81.5931 174.749382 
L 82.252555 165.468827 
L 82.663445 161.998925 
L 82.747145 162.118598 
L 82.762364 162.131654 
L 82.797873 161.994144 
L 83.180864 159.232525 
L 83.282318 159.425889 
L 83.472545 160.499415 
L 83.979818 165.037511 
L 84.641809 170.611743 
L 84.667173 170.493496 
L 84.778773 168.410166 
L 85.100891 163.552744 
L 85.461055 160.934453 
L 85.658891 160.237598 
L 85.663964 160.23872 
L 85.755273 160.383484 
L 85.942964 161.230727 
L 86.3919 164.562707 
L 87.411518 171.928657 
L 87.454636 172.133896 
L 87.497755 171.811444 
L 88.337291 162.463499 
L 88.4007 162.461031 
L 88.438745 162.517628 
L 88.593464 163.079744 
L 88.654336 163.358444 
L 88.692382 163.037031 
L 89.197118 156.385405 
L 89.235164 156.416726 
L 89.351836 156.798817 
L 89.610545 158.592438 
L 90.888873 169.261437 
L 90.949745 168.920809 
L 91.335273 166.250231 
L 91.436727 166.320119 
L 91.611736 166.860075 
L 92.042918 169.118908 
L 92.996591 173.924492 
L 93.138627 174.449068 
L 93.176673 174.205231 
L 93.341536 170.816973 
L 93.633218 166.926367 
L 93.8133 166.48051 
L 93.823445 166.483216 
L 93.932509 166.643608 
L 94.158245 167.483352 
L 95.013 172.016273 
L 95.730791 174.992793 
L 95.784055 175.118984 
L 95.827173 174.941959 
L 95.928627 173.152929 
L 96.319227 166.435677 
L 96.537355 165.664141 
L 96.651491 165.723368 
L 96.829036 166.190973 
L 97.206955 167.959494 
L 98.485282 174.234243 
L 98.490355 174.23035 
L 98.536009 173.915626 
L 99.040745 169.498884 
L 99.149809 169.525294 
L 99.162491 169.541767 
L 99.342573 169.984351 
L 99.794045 171.859283 
L 100.694455 175.386249 
L 100.714745 175.397859 
L 100.752791 175.273719 
L 100.894827 173.784068 
L 101.2068 171.371266 
L 101.404636 171.095073 
L 101.546673 171.238788 
L 101.810455 171.911322 
L 103.469236 177.146939 
L 103.519964 176.985504 
L 103.684827 175.31014 
L 103.859836 172.11597 
L 104.176882 166.612577 
L 104.374718 165.974564 
L 104.4711 166.10164 
L 104.668936 166.857011 
L 105.214255 170.118476 
L 106.038573 174.5305 
L 106.680273 176.816126 
L 107.301682 178.254702 
L 107.948455 179.214398 
L 108.678927 179.90499 
L 108.694145 179.908236 
L 108.716973 179.806294 
L 108.833645 177.956617 
L 109.163373 173.881494 
L 109.378964 173.307561 
L 109.505782 173.380105 
L 109.683327 173.711002 
L 109.731518 173.510742 
L 109.969936 170.857849 
L 110.210891 169.691006 
L 110.312345 169.67259 
L 110.342782 169.704335 
L 110.512718 170.107097 
L 110.895709 171.734177 
L 111.552627 174.708531 
L 111.593209 174.538857 
L 111.692127 172.719513 
L 112.090336 165.456122 
L 112.285636 164.872836 
L 112.288173 164.873239 
L 112.389627 165.009092 
L 112.59 165.769818 
L 112.686382 166.255967 
L 112.726964 165.888815 
L 113.097273 161.937657 
L 113.168291 161.993681 
L 113.178436 162.015649 
L 113.330618 162.650722 
L 113.718682 165.492163 
L 114.667282 172.243727 
L 115.308982 175.238082 
L 115.641245 176.269874 
L 115.679291 176.205236 
L 115.7985 175.447019 
L 116.201782 173.005676 
L 116.397082 172.83565 
L 116.561945 173.006977 
L 116.868845 173.726941 
L 117.404018 175.201442 
L 117.469964 175.10894 
L 117.690627 174.288696 
L 118.000064 173.526137 
L 118.195364 173.496499 
L 118.405882 173.706464 
L 118.428709 173.527708 
L 118.958809 167.491948 
L 118.999391 167.515074 
L 119.133818 167.82063 
L 119.326582 168.485591 
L 119.392527 168.311526 
L 119.836391 166.787404 
L 119.846536 166.790654 
L 119.978427 166.965195 
L 120.221918 167.756707 
L 120.8205 170.689499 
L 121.758955 174.926771 
L 122.4387 177.012242 
L 122.722773 177.602562 
L 122.763355 177.527872 
L 122.887636 176.710513 
L 123.290918 174.219578 
L 123.4989 173.99246 
L 123.663764 174.12152 
L 123.952909 174.705232 
L 125.642127 178.801482 
L 125.685245 178.745153 
L 125.8146 178.194135 
L 126.367527 175.637104 
L 126.611018 175.424321 
L 126.829145 175.518225 
L 127.156336 175.949232 
L 127.526645 176.568681 
L 127.584982 176.451006 
L 127.734627 175.517381 
L 128.211464 172.553503 
L 128.490464 172.097607 
L 128.736491 172.054683 
L 128.997736 172.258631 
L 129.365509 172.874067 
L 129.994527 174.440362 
L 131.493518 178.224682 
L 132.048982 179.194218 
L 132.066736 179.141462 
L 132.160582 178.005343 
L 132.561327 173.621596 
L 132.962073 170.127365 
L 133.101573 169.966929 
L 133.129473 169.984332 
L 133.271509 170.260405 
L 133.565727 171.44103 
L 133.9893 173.479333 
L 134.040027 173.201761 
L 134.187136 170.138232 
L 134.514327 164.907731 
L 134.689336 164.38858 
L 134.702018 164.393303 
L 134.803473 164.581177 
L 135.016527 165.57542 
L 135.6354 169.916273 
L 136.429282 174.756857 
L 137.060836 177.314139 
L 137.664491 178.888231 
L 138.280827 179.903886 
L 138.9555 180.597215 
L 139.521109 180.935265 
L 139.531255 180.920389 
L 139.630173 180.527241 
L 140.297236 177.21875 
L 140.469709 176.817228 
L 140.738564 174.698601 
L 141.045464 173.250857 
L 141.283882 172.973069 
L 141.476645 173.052587 
L 141.742964 173.456516 
L 142.202045 174.631989 
L 143.493055 178.348475 
L 143.518418 178.197284 
L 143.718791 174.600683 
L 143.962282 172.665642 
L 144.081491 172.543055 
L 144.117 172.56793 
L 144.269182 172.88231 
L 144.408682 173.313406 
L 144.454336 173.082654 
L 144.936245 169.318844 
L 144.961609 169.329082 
L 145.083355 169.548406 
L 145.347136 170.608696 
L 146.838518 177.33195 
L 147.457391 178.862897 
L 148.030609 179.75945 
L 148.035682 179.755267 
L 148.091482 179.519106 
L 148.299464 177.170542 
L 149.516918 164.622632 
L 149.605691 164.567628 
L 149.648809 164.612026 
L 149.798455 165.03815 
L 150.123109 166.794363 
L 151.505427 174.826353 
L 152.010164 176.631883 
L 152.027918 176.582555 
L 152.1243 175.500588 
L 152.4591 172.341216 
L 152.639182 172.068043 
L 152.646791 172.070634 
L 152.781218 172.24524 
L 153.060218 173.075542 
L 154.460291 177.679344 
L 155.112136 178.909698 
L 155.794418 179.738259 
L 156.5883 180.350793 
L 157.635818 180.864001 
L 157.826045 180.827688 
L 157.828582 180.821131 
L 157.963009 180.139578 
L 158.203964 177.752264 
L 158.673191 171.60163 
L 158.893855 171.027813 
L 159.023209 171.095766 
L 159.226118 171.552989 
L 159.667445 173.230127 
L 160.780909 177.463155 
L 160.902655 177.786978 
L 160.9407 177.58963 
L 161.125855 174.763473 
L 161.389636 172.544482 
L 161.536745 172.355191 
L 161.562109 172.368339 
L 161.671173 172.484476 
L 161.709218 172.345695 
L 162.254536 169.483641 
L 162.305264 169.512482 
L 162.465055 169.819415 
L 162.789709 171.044507 
L 163.449164 173.988137 
L 163.520182 173.791575 
L 163.776355 172.011717 
L 164.240509 167.325248 
L 164.359718 167.228306 
L 164.392691 167.253042 
L 164.542336 167.571319 
L 164.849236 168.867428 
L 164.945618 169.306529 
L 164.993809 169.038763 
L 165.871391 159.108226 
L 166.107273 157.266963 
L 166.160536 157.249715 
L 166.206191 157.317726 
L 166.3533 157.925125 
L 166.685564 160.466883 
L 167.565682 167.279827 
L 168.141436 168.562679 
L 168.369709 169.372512 
L 168.428045 169.178035 
L 169.224464 165.150116 
L 169.440055 164.804916 
L 169.582091 164.927952 
L 169.8408 165.528064 
L 170.335391 167.325143 
L 171.393055 171.921142 
L 171.459 171.524785 
L 172.405064 162.424906 
L 172.651091 161.51839 
L 172.757618 161.584676 
L 172.864145 161.771278 
L 172.914873 161.641155 
L 173.325764 159.818665 
L 173.417073 159.939109 
L 173.597155 160.643466 
L 174.020727 163.338035 
L 174.112036 162.763946 
L 174.406255 160.921313 
L 174.492491 161.007449 
L 174.654818 161.650691 
L 175.042882 164.338336 
L 175.796182 169.646447 
L 175.824082 169.536553 
L 175.912855 167.815405 
L 176.288236 160.781248 
L 176.483536 160.181351 
L 176.486073 160.18185 
L 176.584991 160.32074 
L 176.716882 160.644242 
L 176.770145 160.490175 
L 176.8437 159.363111 
L 177.099873 149.78726 
L 177.378873 144.262064 
L 177.551345 143.599175 
L 177.566564 143.605412 
L 177.657873 143.807869 
L 177.850636 144.925975 
L 178.2666 148.945919 
L 178.730755 153.801427 
L 178.799236 153.593985 
L 179.030045 152.899415 
L 179.057945 152.917996 
L 179.167009 153.207423 
L 179.387673 154.586842 
L 179.978645 159.784302 
L 180.113073 159.471377 
L 180.222136 159.36263 
L 180.262718 159.403462 
L 180.397145 159.822412 
L 180.681218 161.616966 
L 181.771855 169.699179 
L 181.820045 169.386823 
L 181.959545 166.379419 
L 182.352682 157.647559 
L 182.677336 153.985659 
L 182.804155 153.742192 
L 182.839664 153.769349 
L 182.961409 154.111248 
L 183.209973 155.633151 
L 183.856745 161.419817 
L 184.140818 163.818753 
L 184.191545 163.507741 
L 184.658236 158.626475 
L 184.7115 158.676635 
L 184.851 159.148399 
L 185.020936 159.811582 
L 185.081809 159.711123 
L 185.228918 158.962777 
L 185.756482 154.488856 
L 185.817355 154.546525 
L 185.961927 155.033895 
L 186.261218 157.003734 
L 186.431155 158.241597 
L 186.484418 157.918187 
L 186.732982 153.85462 
L 187.2783 143.457853 
L 187.349318 143.553412 
L 187.491355 144.309702 
L 187.803327 147.455052 
L 189.477327 165.953874 
L 190.172291 170.735027 
L 190.547673 172.558251 
L 190.583182 172.421414 
L 190.720145 170.577235 
L 191.006755 167.908534 
L 191.146255 167.715246 
L 191.174155 167.731274 
L 191.313655 167.997884 
L 191.615482 169.178915 
L 192.269864 172.22314 
L 192.333273 171.991121 
L 192.541255 169.866139 
L 193.002873 164.515545 
L 193.127155 164.358867 
L 193.162664 164.384718 
L 193.302164 164.70765 
L 193.327527 164.744275 
L 193.365573 164.581806 
L 193.515218 162.471054 
L 193.766318 160.40992 
L 193.832264 160.366538 
L 193.880455 160.426183 
L 194.027564 160.843165 
L 194.0859 160.602918 
L 194.410555 158.78341 
L 194.4486 158.813809 
L 194.570345 159.184959 
L 194.8392 160.902544 
L 195.929836 169.408814 
L 195.993245 168.966726 
L 196.259564 163.895534 
L 196.523345 161.483572 
L 196.640018 161.32088 
L 196.678064 161.350572 
L 196.812491 161.697687 
L 197.094027 163.1834 
L 197.821964 168.097979 
L 197.900591 167.63006 
L 198.253145 165.177915 
L 198.341918 165.224478 
L 198.352064 165.241752 
L 198.519464 165.778928 
L 198.562582 165.882353 
L 198.613309 165.700422 
L 199.011518 163.403068 
L 199.064782 163.444309 
L 199.209355 163.838074 
L 199.3311 164.226361 
L 199.389436 164.09284 
L 199.592345 162.773765 
L 200.092009 157.862437 
L 200.145273 157.910085 
L 200.282236 158.354814 
L 200.578991 160.251234 
L 201.415991 166.324688 
L 201.466718 166.180852 
L 201.575782 164.592215 
L 201.8979 160.621155 
L 201.963845 159.733944 
L 202.230164 149.801601 
L 202.473655 146.011003 
L 202.559891 145.816083 
L 202.613155 145.876163 
L 202.707 145.940468 
L 202.750118 145.892757 
L 202.932736 145.704663 
L 202.973318 145.753286 
L 203.102673 146.211261 
L 203.368991 148.190208 
L 204.208527 156.272733 
L 204.327736 155.796315 
L 204.512891 153.822021 
L 204.763991 152.278502 
L 204.822327 152.285113 
L 204.8553 152.339717 
L 204.997336 152.915117 
L 205.319455 154.116299 
L 205.456418 154.319672 
L 205.644109 155.141266 
L 205.730345 155.542267 
L 205.773464 155.253429 
L 206.379655 149.055267 
L 206.453209 149.028536 
L 206.493791 149.078791 
L 206.635827 149.558161 
L 206.952873 151.602937 
L 208.013073 160.461741 
L 208.1754 161.575975 
L 208.226127 161.309548 
L 208.682673 157.447953 
L 208.7334 157.491696 
L 208.857682 157.754925 
L 208.916018 157.573833 
L 209.293936 155.751539 
L 209.354809 155.813574 
L 209.499382 156.313696 
L 209.552645 156.479837 
L 209.613518 156.321024 
L 210.006655 155.131059 
L 210.115718 155.213661 
L 210.280582 155.739661 
L 210.592555 157.646037 
L 211.624855 165.5467 
L 211.721236 165.107007 
L 212.406055 159.321356 
L 212.931082 152.135304 
L 212.933618 152.135535 
L 213.014782 152.259772 
L 213.184718 153.074271 
L 213.445964 154.745734 
L 213.529664 154.579531 
L 213.724964 154.282289 
L 213.750327 154.294871 
L 213.788373 154.24858 
L 213.801055 154.197426 
L 213.938018 152.969776 
L 214.168827 151.792223 
L 214.249991 151.88393 
L 214.310864 152.014183 
L 214.353982 151.859444 
L 214.513773 149.954423 
L 214.757264 148.324426 
L 214.818136 148.311995 
L 214.858718 148.371269 
L 215.003291 148.928012 
L 215.305118 151.166292 
L 217.471173 169.377764 
L 218.115409 172.3427 
L 218.465427 172.867699 
L 218.909291 173.867323 
L 219.368373 174.968355 
L 219.408955 174.83379 
L 219.553527 173.145843 
L 219.847745 170.795611 
L 220.040509 170.536023 
L 220.185082 170.687885 
L 220.466618 171.400613 
L 222.244609 176.5381 
L 222.964936 177.699985 
L 223.200818 177.976468 
L 223.231255 177.878518 
L 223.355536 176.509303 
L 223.733455 172.9872 
L 223.976945 172.368382 
L 224.136736 172.389053 
L 224.349791 172.720523 
L 224.793655 173.921865 
L 224.920473 174.261311 
L 224.968664 174.106202 
L 225.189327 172.125298 
L 225.876682 166.583267 
L 226.0035 166.639764 
L 226.191191 167.084231 
L 226.576718 168.699418 
L 227.210809 171.741911 
L 227.271682 171.505454 
L 227.799245 168.688883 
L 228.265936 166.500869 
L 228.268473 166.50135 
L 228.385145 166.64231 
L 228.603273 167.360666 
L 229.120691 170.039369 
L 230.094655 174.826498 
L 230.756645 176.993011 
L 231.395809 178.363734 
L 232.065409 179.291491 
L 232.828855 179.971595 
L 233.653173 180.445809 
L 233.658245 180.435444 
L 233.721655 179.947354 
L 234.218782 175.482633 
L 234.416618 175.273487 
L 234.578945 175.430091 
L 234.901064 176.137684 
L 236.202218 179.213807 
L 236.874355 180.146191 
L 237.404455 180.612948 
L 237.422209 180.584695 
L 237.508445 180.095727 
L 238.1958 175.21514 
L 238.479873 174.460867 
L 238.840036 172.108727 
L 238.971927 172.034803 
L 238.994755 172.051435 
L 239.121573 172.200471 
L 239.162155 172.060562 
L 239.327018 170.478973 
L 239.616164 168.616608 
L 239.7303 168.5305 
L 239.765809 168.559901 
L 239.917991 168.909226 
L 240.245182 170.358279 
L 240.306055 170.541169 
L 240.356782 170.375641 
L 240.798109 168.119404 
L 240.8463 168.149155 
L 240.993409 168.466862 
L 241.305382 169.795052 
L 242.746036 176.473 
L 243.382664 178.189528 
L 244.016755 179.292215 
L 244.704109 180.052495 
L 245.525891 180.625212 
L 246.644427 181.117774 
L 248.409736 181.628586 
L 251.291045 182.213838 
L 251.369673 182.188247 
L 251.377282 182.131728 
L 251.483809 180.065558 
L 252.115364 168.432146 
L 252.199064 168.354046 
L 252.244718 168.40293 
L 252.394364 168.873521 
L 252.762136 170.968065 
L 253.713273 176.294527 
L 254.157136 177.956179 
L 254.174891 177.843426 
L 254.286491 174.982022 
L 254.570564 169.997794 
L 254.750645 169.443622 
L 254.758255 169.445482 
L 254.836882 169.46481 
L 254.859709 169.368135 
L 255.011891 167.81999 
L 255.265527 166.286697 
L 255.341618 166.268209 
L 255.379664 166.315155 
L 255.534382 166.791874 
L 255.886936 168.777163 
L 257.018155 175.314395 
L 257.347882 176.596335 
L 257.380855 176.431285 
L 257.5863 173.517518 
L 257.845009 171.678472 
L 257.971827 171.55597 
L 258.0048 171.578036 
L 258.156982 171.877551 
L 258.504464 173.186143 
L 259.562127 177.237271 
L 260.198755 178.762484 
L 260.835382 179.736854 
L 261.469473 180.346804 
L 261.474545 180.339917 
L 261.525273 179.98867 
L 262.062982 175.045185 
L 262.210091 175.01367 
L 262.2177 175.01973 
L 262.402855 175.320715 
L 262.844182 176.587541 
L 263.747127 179.046681 
L 264.391364 180.164797 
L 265.055891 180.885755 
L 265.826945 181.391336 
L 266.866855 181.792024 
L 268.066555 182.041026 
L 268.140109 181.446022 
L 269.070955 171.413163 
L 269.180018 171.369971 
L 269.210455 171.397816 
L 269.372782 171.75737 
L 269.732945 173.233737 
L 270.679009 177.311167 
L 270.6993 177.247872 
L 270.805827 175.926881 
L 271.122873 172.849244 
L 271.267445 171.895931 
L 271.409482 168.922087 
L 271.736673 163.429305 
L 271.899 162.945047 
L 271.919291 162.954028 
L 272.023282 163.175056 
L 272.218582 163.929132 
L 272.294673 163.709887 
L 272.609182 162.63774 
L 272.632009 162.649735 
L 272.743609 162.883288 
L 272.969345 164.006284 
L 273.595827 168.665225 
L 274.131 172.268571 
L 274.166509 172.142978 
L 274.620518 169.261804 
L 274.699145 169.33817 
L 274.881764 169.871225 
L 275.350991 172.137 
L 276.213355 176.002154 
L 276.849982 177.873179 
L 277.476464 179.060376 
L 278.143527 179.862774 
L 278.927264 180.455549 
L 279.059155 180.469082 
L 279.081982 180.420135 
L 279.213873 179.738435 
L 279.711 177.079021 
L 279.9621 176.763779 
L 280.020436 176.635507 
L 280.142182 175.277447 
L 280.509955 171.647195 
L 280.705255 171.315047 
L 280.832073 171.462551 
L 281.075564 172.183139 
L 282.848482 178.52324 
L 282.878918 178.459718 
L 282.982909 177.565061 
L 283.406482 171.400297 
L 284.060864 159.06255 
L 284.068473 159.063692 
L 284.154709 159.203167 
L 284.334791 160.047709 
L 284.758364 163.367522 
L 285.871827 172.060938 
L 286.447582 174.986528 
L 286.455191 174.9809 
L 286.510991 174.705574 
L 287.523 167.331136 
L 287.632064 167.446139 
L 287.832436 168.09433 
L 288.321955 170.52615 
L 288.433555 170.162461 
L 288.669436 169.617559 
L 288.781036 169.757081 
L 289.0017 170.501067 
L 290.873536 178.024731 
L 291.500018 179.214526 
L 292.164545 180.013983 
L 292.940673 180.598465 
L 293.972973 181.083181 
L 294.891136 181.346089 
L 294.898745 181.321733 
L 294.995127 180.504809 
L 295.269055 176.192164 
L 296.095909 150.191344 
L 296.139027 150.184723 
L 296.179609 150.256762 
L 296.273455 150.567588 
L 296.331791 150.356261 
L 296.544845 149.550099 
L 296.580355 149.582347 
L 296.689418 149.973486 
L 296.846673 150.539744 
L 296.887255 150.439869 
L 297.003927 149.26732 
L 297.293073 147.015921 
L 297.338727 147.022309 
L 297.374236 147.088827 
L 297.5112 147.761539 
L 297.807955 150.604063 
L 298.748945 161.483513 
L 298.817427 160.822903 
L 299.195345 152.151016 
L 299.448982 148.856726 
L 299.532682 148.708563 
L 299.583409 148.77684 
L 299.717836 149.38956 
L 300.014591 152.033828 
L 301.703809 168.704661 
L 302.368336 172.592578 
L 302.731036 174.078288 
L 302.766545 173.948277 
L 302.908582 172.222167 
L 303.210409 169.598563 
L 303.3702 169.377809 
L 303.387955 169.385973 
L 303.524918 169.601283 
L 303.611155 169.781665 
L 303.659345 169.65223 
L 303.849573 168.175067 
L 304.110818 167.013529 
L 304.209736 167.012998 
L 304.2351 167.042955 
L 304.4025 167.471129 
L 304.775345 169.19363 
L 305.924318 174.617748 
L 306.586309 176.620817 
L 306.974373 177.447713 
L 306.999736 177.357665 
L 307.126555 175.69387 
L 307.816445 167.255635 
L 307.958482 167.040313 
L 307.986382 167.056511 
L 308.118273 167.31903 
L 308.397273 168.496727 
L 308.468291 168.766481 
L 308.521555 168.579802 
L 308.985709 165.909685 
L 309.049118 165.963757 
L 309.206373 166.410275 
L 309.556391 168.243074 
L 310.089027 171.278405 
L 310.147364 171.106503 
L 310.243745 169.9876 
L 310.687609 161.76856 
L 310.809355 161.531589 
L 310.8474 161.563064 
L 310.976755 161.935608 
L 311.263364 163.60793 
L 312.2982 170.577205 
L 312.361609 170.456708 
L 312.972873 167.962015 
L 313.307673 164.87742 
L 313.424345 164.739841 
L 313.462391 164.76906 
L 313.604427 165.111113 
L 313.911327 166.577778 
L 314.616436 170.598898 
L 314.687455 170.333018 
L 315.131318 168.23408 
L 315.286036 167.699948 
L 315.6183 166.710416 
L 315.755264 166.758529 
L 315.950564 167.160499 
L 316.0926 167.543702 
L 316.143327 167.389373 
L 316.247318 166.257357 
L 316.708936 159.478934 
L 316.843364 159.239735 
L 316.876336 159.261707 
L 317.003155 159.565342 
L 317.200991 160.445344 
L 317.2644 160.104159 
L 317.604273 158.081512 
L 317.698118 158.164054 
L 317.860445 158.755804 
L 318.207927 161.06276 
L 319.684091 171.547857 
L 320.206582 173.878102 
L 320.226873 173.856044 
L 320.315645 173.417733 
L 320.756973 171.108873 
L 320.924373 170.741172 
L 321.370773 167.228862 
L 321.730936 164.246229 
L 321.878045 164.061217 
L 321.903409 164.075632 
L 322.040373 164.330991 
L 322.311764 165.424993 
L 322.585691 166.764861 
L 322.6491 166.543156 
L 323.054918 164.597885 
L 323.070136 164.602347 
L 323.222318 164.707308 
L 323.260364 164.57682 
L 323.694082 162.635392 
L 323.770173 162.71033 
L 323.945182 163.233104 
L 324.3231 165.228997 
L 325.570991 172.279976 
L 325.593818 172.229076 
L 325.682591 171.355174 
L 326.070655 167.593733 
L 326.2482 167.343885 
L 326.258345 167.34776 
L 326.392773 167.532996 
L 326.654018 168.371997 
L 326.818882 169.062972 
L 326.856927 168.73471 
L 327.265282 164.360186 
L 327.331227 164.369394 
L 327.3642 164.420158 
L 327.523991 164.976868 
L 327.929809 167.427647 
L 328.875873 172.942457 
L 329.535327 175.491705 
L 329.659609 175.826726 
L 329.705264 175.677401 
L 329.928464 173.636522 
L 330.580309 168.90124 
L 330.762927 168.782688 
L 330.925255 168.992902 
L 331.224545 169.831589 
L 331.630364 171.375887 
L 331.670945 170.97727 
L 332.074227 166.079518 
L 332.147782 166.040076 
L 332.193436 166.092834 
L 332.350691 166.585266 
L 332.721 168.523507 
L 332.802164 168.036833 
L 333.114136 166.195641 
L 333.202909 166.18416 
L 333.235882 166.223507 
L 333.398209 166.673864 
L 333.760909 168.505637 
L 334.1997 170.940009 
L 334.258036 170.725145 
L 334.760236 167.777456 
L 334.803355 167.802794 
L 334.945391 168.102425 
L 335.252291 169.401873 
L 335.924427 172.77678 
L 335.980227 172.485994 
L 336.507791 168.700303 
L 336.619391 168.817122 
L 336.832445 169.478101 
L 337.474145 172.48927 
L 337.796264 173.868628 
L 337.836845 173.675512 
L 338.070191 170.694442 
L 338.186864 168.347801 
L 338.554636 161.193867 
L 338.737255 160.57569 
L 338.7474 160.579027 
L 338.843782 160.753285 
L 338.995964 161.245172 
L 339.061909 161.071917 
L 339.295255 159.533487 
L 339.470264 155.891131 
L 339.769555 150.64174 
L 340.218491 148.557248 
L 340.292045 148.646547 
L 340.434082 149.350202 
L 340.758736 152.350144 
L 341.045345 154.243522 
L 341.283764 154.662725 
L 341.5095 155.857367 
L 342.019309 160.108888 
L 342.414982 163.349895 
L 342.468245 163.142649 
L 342.947618 160.007594 
L 343.0161 160.075988 
L 343.170818 160.381412 
L 343.231691 160.246896 
L 343.604536 158.976226 
L 343.673018 159.050358 
L 343.817591 159.493304 
L 343.8531 159.163822 
L 344.248773 154.539819 
L 344.251309 154.540024 
L 344.3274 154.664292 
L 344.492264 155.510396 
L 344.9133 159.163791 
L 345.083236 160.536468 
L 345.141573 160.294718 
L 345.587973 157.345383 
L 345.641236 157.393275 
L 345.780736 157.835937 
L 346.080027 159.705173 
L 346.881518 165.64012 
L 346.955073 165.376499 
L 347.398936 163.271565 
L 347.406545 163.273512 
L 347.520682 163.43047 
L 347.741345 164.221998 
L 348.324709 167.414985 
L 349.080545 171.182467 
L 349.095764 171.167186 
L 349.169318 170.775328 
L 349.653764 167.781679 
L 349.780582 167.825532 
L 349.965736 168.254134 
L 350.384236 169.930261 
L 351.482482 174.311327 
L 352.174909 176.138027 
L 352.867336 177.364302 
L 353.628245 178.266776 
L 354.543873 179.002182 
L 354.967445 179.244289 
L 354.990273 179.176074 
L 355.112018 178.104922 
L 355.492473 175.222326 
L 355.733427 174.743346 
L 355.903364 174.77905 
L 356.146855 175.126093 
L 356.425855 175.660221 
L 356.481655 175.527568 
L 356.684564 174.249204 
L 357.016827 172.769619 
L 357.222273 172.606077 
L 357.397282 172.762277 
L 357.704182 173.40486 
L 357.800564 173.633911 
L 357.841145 173.461339 
L 358.181018 170.011566 
L 358.898809 160.992451 
L 358.908955 160.994815 
L 359.010409 161.15352 
L 359.213318 162.011494 
L 359.687618 165.240549 
L 360.113727 167.570835 
L 360.210109 167.539768 
L 360.222791 167.497427 
L 360.324245 166.570265 
L 360.714845 163.102603 
L 360.834055 162.98018 
L 360.869564 163.007698 
L 361.0116 163.337838 
L 361.305818 164.714897 
L 362.761691 172.972589 
L 362.827636 172.631627 
L 363.213164 170.356804 
L 363.324764 170.365254 
L 363.342518 170.385689 
L 363.411 170.476254 
L 363.451582 170.348466 
L 363.854864 168.473218 
L 363.905591 168.507331 
L 364.057773 168.853221 
L 364.402718 170.332132 
L 365.437555 174.859067 
L 365.500964 174.748126 
L 365.678509 173.756428 
L 366.031064 172.21024 
L 366.259336 171.995351 
L 366.348109 171.90129 
L 366.469855 169.983298 
L 366.766609 166.678016 
L 366.934009 166.361383 
L 366.949227 166.367563 
L 367.070973 166.564346 
L 367.322073 167.504356 
L 369.148255 175.84035 
L 369.176155 175.584285 
L 369.323264 171.032575 
L 369.607336 165.381407 
L 369.797564 164.695535 
L 369.8001 164.695905 
L 369.893945 164.829198 
L 370.089245 165.621193 
L 370.649782 169.147455 
L 370.768991 169.722317 
L 370.827327 169.584486 
L 371.225536 168.194035 
L 371.268655 168.221684 
L 371.415764 168.532434 
L 371.730273 169.846214 
L 373.0086 175.542458 
L 373.581818 177.138347 
L 373.581818 177.138347 
" clip-path="url(#pb728d59062)" style="fill: none; stroke: #000000; stroke-width: 1.5; stroke-linecap: square"/>
   </g>
   <g id="line2d_15">
    <path d="M 69.218182 178.0704 
L 69.362755 172.547597 
L 69.532691 172.160615 
L 69.722918 172.249124 
L 69.890318 172.368576 
L 69.920755 172.267271 
L 70.057718 170.871646 
L 70.425491 167.823393 
L 70.661373 166.343403 
L 71.039291 162.886613 
L 71.226982 162.612458 
L 71.232055 162.614196 
L 71.366482 162.786979 
L 71.627727 163.586705 
L 72.941564 168.666894 
L 73.010045 168.385696 
L 73.197736 166.090161 
L 73.684718 158.754379 
L 73.821682 158.53738 
L 73.852118 158.555794 
L 73.984009 158.833744 
L 74.268082 160.083787 
L 74.602882 161.840343 
L 74.663755 161.578693 
L 75.135518 158.535379 
L 75.160882 158.545381 
L 75.282627 158.762555 
L 75.396764 159.111511 
L 75.442418 158.890143 
L 75.876136 155.715852 
L 75.914182 155.738672 
L 76.038464 156.040333 
L 76.312391 157.434367 
L 77.162073 162.63668 
L 77.225482 162.337629 
L 77.6871 159.298987 
L 77.796164 159.412995 
L 78.009218 160.07106 
L 78.640773 163.029022 
L 79.427045 166.190853 
L 80.040845 167.856024 
L 80.048455 167.845742 
L 80.101718 167.372321 
L 80.593773 162.120793 
L 80.740882 161.98705 
L 80.761173 161.998554 
L 80.915891 162.248283 
L 81.2583 163.339571 
L 81.395264 163.727275 
L 81.445991 163.614479 
L 81.585491 162.590371 
L 81.755427 158.433603 
L 82.044573 153.964576 
L 82.4022 150.86256 
L 82.645691 149.210501 
L 82.706564 149.195998 
L 82.749682 149.254811 
L 82.762364 149.254866 
L 82.790264 149.150435 
L 82.944982 147.4787 
L 83.1834 146.084218 
L 83.249345 146.120044 
L 83.269636 146.160116 
L 83.419282 146.783955 
L 83.764227 149.421894 
L 84.641809 156.689414 
L 84.679855 156.445767 
L 84.847255 153.01042 
L 85.128791 149.381679 
L 85.364673 147.69552 
L 85.628455 145.964665 
L 85.696936 145.946235 
L 85.737518 145.999948 
L 85.887164 146.515487 
L 86.216891 148.644562 
L 87.454636 157.536554 
L 87.487609 157.354797 
L 88.025318 150.704641 
L 88.291636 148.059603 
L 88.390555 147.918684 
L 88.436209 147.961604 
L 88.573173 148.38905 
L 88.654336 148.74912 
L 88.692382 148.437633 
L 89.214873 141.586075 
L 89.260527 141.624845 
L 89.384809 142.046566 
L 89.661273 143.970173 
L 90.891409 153.997063 
L 90.944673 153.731744 
L 91.3581 151.100491 
L 91.459555 151.22823 
L 91.659927 151.96088 
L 92.1951 155.032271 
L 93.110727 159.861553 
L 93.141164 159.958868 
L 93.181745 159.690689 
L 93.361827 156.081469 
L 93.648436 152.51954 
L 93.820909 152.125694 
L 93.836127 152.131201 
L 93.950264 152.319156 
L 94.191218 153.267008 
L 95.786591 161.07588 
L 95.842391 160.785506 
L 95.974282 158.102833 
L 96.314155 152.494011 
L 96.539891 151.610317 
L 96.651491 151.639031 
L 96.661636 151.652293 
L 96.836645 152.088918 
L 97.204418 153.7457 
L 98.487818 160.066729 
L 98.513182 159.974537 
L 98.645073 158.302367 
L 98.944364 155.634107 
L 99.101618 155.404238 
L 99.121909 155.414003 
L 99.256336 155.638827 
L 99.540409 156.660979 
L 100.714745 161.588916 
L 100.7604 161.440175 
L 100.922727 159.72289 
L 101.222018 157.575362 
L 101.417318 157.335837 
L 101.561891 157.497932 
L 101.835818 158.228315 
L 103.474309 163.726906 
L 103.540255 163.464214 
L 103.7736 160.963907 
L 104.326527 152.616734 
L 104.407691 152.576481 
L 104.450809 152.623921 
L 104.605527 153.076134 
L 104.968227 155.002391 
L 106.129882 161.306038 
L 106.840064 163.876227 
L 107.537564 165.608917 
L 108.2655 166.842569 
L 108.694145 167.373987 
L 108.716973 167.284071 
L 108.826036 165.645032 
L 109.170982 161.386166 
L 109.389109 160.791975 
L 109.521 160.85794 
L 109.683327 161.137109 
L 109.728982 160.954401 
L 109.919209 158.761526 
L 110.188064 156.991787 
L 110.319955 156.877888 
L 110.347855 156.896538 
L 110.500036 157.185129 
L 110.822155 158.392 
L 111.552627 161.598653 
L 111.603355 161.340328 
L 111.722564 158.853301 
L 112.082727 152.21911 
L 112.293245 151.443015 
L 112.392164 151.528848 
L 112.569709 152.102177 
L 112.686382 152.640022 
L 112.724427 152.312679 
L 113.117564 148.182902 
L 113.201264 148.262869 
L 113.358518 148.893451 
L 113.751655 151.642056 
L 114.758591 158.537829 
L 115.468773 161.85612 
L 115.648855 162.413354 
L 115.699582 162.305369 
L 115.8543 161.223429 
L 116.194173 159.346347 
L 116.3844 159.189923 
L 116.546727 159.371763 
L 116.853627 160.131939 
L 117.411627 161.756855 
L 117.477573 161.661052 
L 117.700773 160.824184 
L 118.005136 160.085018 
L 118.192827 160.066876 
L 118.405882 160.292206 
L 118.431245 160.089588 
L 118.976564 154.025738 
L 118.994318 154.030295 
L 119.105918 154.204057 
L 119.324045 154.878056 
L 119.400136 154.655824 
L 119.854145 152.976646 
L 119.978427 153.086937 
L 120.191482 153.669557 
L 120.6531 155.739095 
L 121.944109 161.576255 
L 122.702482 163.955654 
L 122.735455 163.97128 
L 122.778573 163.875162 
L 122.923145 162.884607 
L 123.280773 160.831084 
L 123.483682 160.629766 
L 123.648545 160.78041 
L 123.9453 161.431797 
L 125.649736 166.006495 
L 125.715682 165.894266 
L 125.885618 165.023185 
L 126.314264 163.022501 
L 126.565364 162.728953 
L 126.783491 162.783047 
L 127.092927 163.135061 
L 127.529182 163.82458 
L 127.590055 163.687705 
L 127.744773 162.661574 
L 128.181027 159.895044 
L 128.485391 159.330656 
L 128.787218 159.177513 
L 129.066218 159.283352 
L 129.416236 159.68559 
L 129.936191 160.670341 
L 131.118136 163.541244 
L 132.051518 165.614845 
L 132.069273 165.561855 
L 132.168191 164.40493 
L 132.581618 160.049814 
L 132.957 156.827653 
L 133.0965 156.656157 
L 133.1244 156.672718 
L 133.2639 156.941795 
L 133.555582 158.114365 
L 133.9893 160.224194 
L 134.042564 159.932326 
L 134.194745 156.758182 
L 134.524473 151.511925 
L 134.699482 150.98705 
L 134.7147 150.992406 
L 134.816155 151.179571 
L 135.031745 152.174327 
L 135.6912 156.690845 
L 136.523127 161.623639 
L 137.220627 164.492274 
L 137.8953 166.380014 
L 138.585191 167.679299 
L 139.328345 168.616119 
L 139.523645 168.758083 
L 139.556618 168.700157 
L 139.6809 168.070439 
L 140.193245 165.312263 
L 140.528045 164.300004 
L 141.083509 160.784572 
L 141.370118 160.353123 
L 141.613609 160.328353 
L 141.895145 160.552706 
L 142.361836 161.265198 
L 143.493055 163.209239 
L 143.513345 163.096454 
L 143.650309 160.528198 
L 143.931845 157.235684 
L 144.132218 156.805052 
L 144.259036 156.922283 
L 144.406145 157.219339 
L 144.446727 157.021117 
L 144.999655 152.592922 
L 145.042773 152.61518 
L 145.192418 152.897449 
L 145.532291 154.142347 
L 146.592491 158.109491 
L 147.226582 159.589382 
L 147.845455 160.500305 
L 148.030609 160.673432 
L 148.063582 160.588206 
L 148.175182 159.557373 
L 149.552427 143.947526 
L 149.666564 143.844395 
L 149.702073 143.871513 
L 149.849182 144.202185 
L 150.1713 145.615479 
L 151.518109 151.923438 
L 152.010164 153.454419 
L 152.035527 153.362692 
L 152.167418 151.749549 
L 152.481927 148.950468 
L 152.679764 148.63487 
L 152.814191 148.778372 
L 153.083045 149.486457 
L 154.582036 153.919157 
L 155.297291 155.16799 
L 156.053127 156.052694 
L 156.905345 156.708574 
L 157.790536 157.126475 
L 157.876773 156.885587 
L 158.105045 155.298629 
L 158.277518 152.583564 
L 158.657973 147.556128 
L 158.898927 146.701181 
L 159.053645 146.695357 
L 159.246409 147.012477 
L 159.659836 148.23017 
L 160.900118 152.021373 
L 160.910264 152.008892 
L 160.966064 151.553563 
L 161.475873 146.44337 
L 161.592545 146.400378 
L 161.620445 146.42427 
L 161.6661 146.456485 
L 161.699073 146.360113 
L 161.856327 145.035464 
L 162.163227 143.269399 
L 162.323018 143.128954 
L 162.340773 143.138567 
L 162.490418 143.371352 
L 162.789709 144.35228 
L 163.449164 146.990056 
L 163.520182 146.783468 
L 163.771282 144.973922 
L 164.273482 139.817106 
L 164.397764 139.728153 
L 164.4282 139.751275 
L 164.582918 140.06715 
L 164.905036 141.350481 
L 164.945618 141.487341 
L 164.991273 141.250027 
L 165.665945 133.855951 
L 166.180827 128.627589 
L 166.244236 128.697951 
L 166.393882 129.263388 
L 166.731218 131.622075 
L 167.550464 137.343762 
L 168.116073 138.215617 
L 168.372245 139.069791 
L 168.433118 138.869853 
L 169.229536 134.963884 
L 169.414691 134.765689 
L 169.417227 134.766636 
L 169.577018 134.95048 
L 169.919427 135.773296 
L 170.601709 138.067712 
L 171.393055 141.025059 
L 171.443782 140.782442 
L 172.029682 134.526831 
L 172.422818 130.949163 
L 172.661236 130.056243 
L 172.762691 130.129437 
L 172.866682 130.315893 
L 172.919945 130.186357 
L 173.348591 128.311572 
L 173.447509 128.443557 
L 173.637736 129.185065 
L 174.020727 131.474593 
L 174.101891 131.017776 
L 174.434155 128.899638 
L 174.522927 128.990755 
L 174.690327 129.630112 
L 175.078391 132.210867 
L 175.798718 137.22674 
L 175.834227 137.050086 
L 175.943291 134.741912 
L 176.280627 128.653903 
L 176.478464 128.010287 
L 176.574845 128.135067 
L 176.721955 128.509607 
L 176.777755 128.343335 
L 176.853845 127.097001 
L 177.531055 111.870101 
L 177.586855 111.858185 
L 177.629973 111.922865 
L 177.774545 112.506168 
L 178.083982 114.890223 
L 178.723145 120.891101 
L 178.811918 120.553817 
L 179.098527 119.511216 
L 179.1036 119.512427 
L 179.197445 119.65828 
L 179.377527 120.474313 
L 179.7732 123.556374 
L 179.976109 125.014806 
L 180.036982 124.904981 
L 180.244964 124.508109 
L 180.280473 124.535513 
L 180.407291 124.868766 
L 180.660927 126.31289 
L 181.510609 133.071999 
L 181.776927 134.928113 
L 181.825118 134.643322 
L 181.959545 131.912959 
L 182.342536 123.947199 
L 182.695091 119.895066 
L 182.824445 119.651248 
L 182.859955 119.679182 
L 182.9817 120.019663 
L 183.227727 121.519507 
L 183.833918 126.997892 
L 184.145891 129.697446 
L 184.196618 129.40252 
L 184.678527 124.567166 
L 184.736864 124.619843 
L 184.8789 125.081315 
L 185.020936 125.556729 
L 185.076736 125.471225 
L 185.223845 124.766177 
L 185.741264 120.398336 
L 185.8275 120.515612 
L 185.997436 121.254994 
L 186.365209 124.077327 
L 186.436227 124.51038 
L 186.489491 124.196457 
L 186.722836 120.435339 
L 187.346782 108.761657 
L 187.362 108.767311 
L 187.4457 108.964844 
L 187.625782 110.122381 
L 188.029064 114.517687 
L 189.335291 129.112734 
L 190.240773 136.503099 
L 190.560355 138.540659 
L 190.608545 138.326746 
L 191.087918 134.542624 
L 191.164009 134.624197 
L 191.333945 135.190407 
L 191.719473 137.436201 
L 192.287618 140.985642 
L 192.343418 140.82982 
L 192.528573 139.314937 
L 193.040918 134.19983 
L 193.117009 134.189624 
L 193.152518 134.234564 
L 193.309773 134.715835 
L 193.3326 134.752897 
L 193.375718 134.571523 
L 193.550727 132.234706 
L 193.784073 130.658365 
L 193.842409 130.649031 
L 193.882991 130.70698 
L 194.0301 131.128996 
L 194.090973 130.890102 
L 194.413091 129.173852 
L 194.451136 129.203117 
L 194.570345 129.55767 
L 194.829055 131.191189 
L 195.934909 140.050231 
L 196.011 139.445756 
L 196.622264 132.091868 
L 196.713573 132.182333 
L 196.880973 132.792156 
L 197.256355 135.203234 
L 197.827036 139.239028 
L 197.885373 138.976343 
L 198.281045 136.448458 
L 198.306409 136.459882 
L 198.420545 136.694501 
L 198.567655 137.199805 
L 198.623455 136.990947 
L 199.019127 134.819024 
L 199.054636 134.840317 
L 199.181455 135.127389 
L 199.336173 135.618077 
L 199.397045 135.474318 
L 199.599955 134.140518 
L 200.102155 129.252616 
L 200.130055 129.266802 
L 200.239118 129.52327 
L 200.469927 130.781121 
L 201.147136 136.17849 
L 201.421064 137.672222 
L 201.441355 137.653552 
L 201.497155 137.272791 
L 201.996818 130.113206 
L 202.478727 117.249137 
L 202.575109 117.003315 
L 202.625836 117.045877 
L 202.712073 117.062201 
L 202.747582 117.016966 
L 202.922591 116.820691 
L 202.965709 116.875425 
L 203.092527 117.365094 
L 203.379136 119.615659 
L 204.205991 127.201319 
L 204.284618 126.936245 
L 204.434264 125.580392 
L 204.776673 122.664577 
L 204.845155 122.61754 
L 204.893345 122.679081 
L 205.032845 123.211891 
L 205.3017 124.057609 
L 205.448809 124.189222 
L 205.613673 124.773904 
L 205.730345 125.302512 
L 205.773464 125.033867 
L 206.412627 118.799188 
L 206.415164 118.799535 
L 206.503936 118.926625 
L 206.684018 119.707719 
L 207.140564 122.958255 
L 208.172864 130.779961 
L 208.223591 130.540225 
L 208.720718 126.206233 
L 208.796809 126.293088 
L 208.852609 126.366862 
L 208.898264 126.252257 
L 209.0961 124.885832 
L 209.306618 124.217868 
L 209.311691 124.218892 
L 209.403 124.359365 
L 209.560255 124.895389 
L 209.636345 124.686766 
L 210.001582 123.693535 
L 210.118255 123.757511 
L 210.272973 124.226317 
L 210.564655 125.981414 
L 211.566518 134.084191 
L 211.635 134.367131 
L 211.6908 134.205328 
L 212.154955 131.3091 
L 212.540482 125.85687 
L 212.827091 121.884998 
L 212.933618 121.655906 
L 212.979273 121.702291 
L 213.106091 122.167866 
L 213.463718 124.460599 
L 213.608291 124.244175 
L 213.856855 123.707879 
L 214.2018 121.545865 
L 214.290573 121.671688 
L 214.310864 121.683435 
L 214.346373 121.569614 
L 214.470655 120.153811 
L 214.7598 117.706356 
L 214.838427 117.639126 
L 214.884082 117.690966 
L 215.023582 118.173721 
L 215.307655 120.135254 
L 216.157336 128.195183 
L 217.240364 137.358725 
L 218.150918 143.323123 
L 219.383591 148.544723 
L 219.462218 148.117187 
L 219.890864 145.079307 
L 220.002464 145.065562 
L 220.025291 145.088405 
L 220.197764 145.461653 
L 220.573145 146.933805 
L 222.051845 153.046814 
L 222.924355 155.578445 
L 223.205891 156.223669 
L 223.246473 156.084985 
L 223.411336 154.303011 
L 223.756282 151.560813 
L 223.987091 151.091985 
L 224.1342 151.158089 
L 224.362473 151.586967 
L 224.872282 153.141543 
L 224.925545 153.255641 
L 224.973736 153.099107 
L 225.196936 151.162706 
L 225.894436 145.451738 
L 226.021255 145.504974 
L 226.208945 145.937594 
L 226.604618 147.535368 
L 227.210809 150.326297 
L 227.271682 150.102437 
L 228.161945 145.005368 
L 228.288764 144.899245 
L 228.3192 144.921894 
L 228.466309 145.231249 
L 228.7656 146.500311 
L 230.891073 156.73609 
L 231.677345 158.993101 
L 232.483909 160.656002 
L 233.356418 161.954811 
L 233.653173 162.299907 
L 233.683609 162.190645 
L 233.825645 160.575763 
L 234.157909 157.752863 
L 234.376036 157.339376 
L 234.523145 157.422914 
L 234.776782 157.909623 
L 236.925082 162.827036 
L 237.406991 163.448708 
L 237.437427 163.393483 
L 237.541418 162.700367 
L 238.14 158.151247 
L 238.378418 157.815673 
L 238.424073 157.677997 
L 238.657418 155.637526 
L 238.900909 154.68773 
L 239.035336 154.683838 
L 239.045482 154.693694 
L 239.1165 154.752946 
L 239.152009 154.648219 
L 239.2839 153.431542 
L 239.626309 150.811005 
L 239.765809 150.656785 
L 239.793709 150.673769 
L 239.935745 150.942235 
L 240.2325 152.097702 
L 240.303518 152.316843 
L 240.354245 152.152706 
L 240.831082 149.63751 
L 240.886882 149.675841 
L 241.046673 150.033703 
L 241.384009 151.46664 
L 242.948945 158.661973 
L 243.704782 160.896963 
L 244.468227 162.488781 
L 245.287473 163.694227 
L 246.218318 164.668736 
L 247.352073 165.526837 
L 248.833309 166.357416 
L 250.844645 167.217999 
L 251.3646 167.3945 
L 251.377282 167.32015 
L 251.481273 165.373289 
L 252.138191 153.364805 
L 252.2295 153.276942 
L 252.275155 153.32202 
L 252.4248 153.754278 
L 252.792573 155.683163 
L 253.784291 160.829611 
L 254.157136 162.212092 
L 254.1825 162.005899 
L 254.362582 157.383681 
L 254.621291 153.993368 
L 254.770936 153.660079 
L 254.7963 153.672252 
L 254.8242 153.671159 
L 254.8521 153.58252 
L 254.976382 152.361854 
L 255.265527 150.2723 
L 255.3543 150.210406 
L 255.397418 150.25278 
L 255.547064 150.669831 
L 255.881864 152.423219 
L 257.170336 159.525663 
L 257.347882 160.221317 
L 257.391 159.985153 
L 257.961682 155.288287 
L 257.964218 155.288551 
L 258.080891 155.417914 
L 258.309164 156.113307 
L 260.274845 163.225097 
L 260.997709 164.609785 
L 261.472009 165.261398 
L 261.494836 165.191525 
L 261.593755 164.006316 
L 261.936164 160.469816 
L 262.144145 160.061494 
L 262.281109 160.161304 
L 262.529673 160.707857 
L 264.401509 165.544513 
L 265.139591 166.560397 
L 265.966445 167.322255 
L 266.991136 167.955549 
L 268.061482 168.397581 
L 268.066555 168.385363 
L 268.137573 167.841762 
L 269.1369 157.385129 
L 269.261182 157.419386 
L 269.263718 157.422593 
L 269.446336 157.840801 
L 269.867373 159.511498 
L 270.679009 162.793118 
L 270.704373 162.703423 
L 270.831191 161.077293 
L 271.135555 158.263657 
L 271.272518 157.256827 
L 271.427236 153.854929 
L 271.746818 148.486465 
L 271.921827 147.942508 
L 271.934509 147.946655 
L 272.033427 148.124666 
L 272.213509 148.749887 
L 272.287064 148.541811 
L 272.634545 147.264551 
L 272.662445 147.280381 
L 272.781655 147.540103 
L 273.022609 148.73424 
L 273.798736 154.226534 
L 274.131 156.302506 
L 274.179191 156.098814 
L 274.625591 153.297608 
L 274.648418 153.306109 
L 274.770164 153.51473 
L 275.026336 154.517272 
L 276.784036 162.40095 
L 277.489145 164.196007 
L 278.219618 165.470315 
L 279.010964 166.416182 
L 279.071836 166.388257 
L 279.092127 166.3427 
L 279.226555 165.646624 
L 279.713536 163.082648 
L 279.964636 162.774369 
L 280.020436 162.650047 
L 280.139645 161.343353 
L 280.527709 157.456566 
L 280.728082 157.095247 
L 280.857436 157.224815 
L 281.098391 157.879231 
L 281.821255 160.751266 
L 282.663327 163.622017 
L 282.853555 164.095267 
L 282.896673 163.965743 
L 283.041245 162.525884 
L 283.4217 156.705018 
L 284.010136 144.317856 
L 284.093836 144.226572 
L 284.142027 144.281061 
L 284.284064 144.774262 
L 284.603645 146.883465 
L 286.140682 157.860461 
L 286.450118 159.332502 
L 286.495773 159.190003 
L 286.668245 157.456179 
L 286.942173 155.767235 
L 287.025873 155.253562 
L 287.479882 151.8864 
L 287.576264 151.886178 
L 287.601627 151.916579 
L 287.766491 152.347298 
L 288.121582 154.05134 
L 288.324491 155.046903 
L 288.385364 154.90743 
L 288.674509 154.18357 
L 288.692264 154.191724 
L 288.819082 154.405488 
L 289.077791 155.395826 
L 290.863391 163.235031 
L 291.5685 164.988418 
L 292.296436 166.224909 
L 293.095391 167.151505 
L 294.041455 167.904646 
L 294.883527 168.377603 
L 294.898745 168.34135 
L 294.990055 167.613597 
L 295.263982 163.458976 
L 295.6698 145.37179 
L 295.953873 137.444953 
L 296.1441 136.384288 
L 296.149173 136.385257 
L 296.225264 136.531368 
L 296.268382 136.647921 
L 296.319109 136.477398 
L 296.567673 135.442544 
L 296.608255 135.480688 
L 296.727464 135.907045 
L 296.831455 136.147054 
L 296.874573 136.065249 
L 296.973491 135.130123 
L 297.320973 132.049849 
L 297.369164 132.051703 
L 297.407209 132.119328 
L 297.546709 132.772251 
L 297.853609 135.526109 
L 298.746409 144.911586 
L 298.807282 144.400945 
L 299.086282 138.143646 
L 299.448982 131.698305 
L 299.555509 131.44941 
L 299.598627 131.497497 
L 299.722909 131.996651 
L 299.9943 134.231965 
L 301.942227 152.479542 
L 302.713282 156.961009 
L 302.736109 157.00627 
L 302.7843 156.809459 
L 303.020182 154.138704 
L 303.263673 152.892592 
L 303.362591 152.867062 
L 303.395564 152.901096 
L 303.562964 153.307512 
L 303.618764 153.42177 
L 303.669491 153.286855 
L 303.890155 151.704789 
L 304.128573 150.888504 
L 304.237636 150.959099 
L 304.415182 151.46949 
L 304.818464 153.480339 
L 306.002945 159.444142 
L 306.756245 162.052512 
L 306.976909 162.641272 
L 307.014955 162.463881 
L 307.370045 158.36581 
L 307.879855 152.550923 
L 307.981309 152.487847 
L 308.019355 152.522278 
L 308.174073 152.898348 
L 308.468291 154.119606 
L 308.544382 153.781659 
L 309.003464 151.130477 
L 309.107455 151.252784 
L 309.305291 151.947807 
L 309.807491 154.772658 
L 310.091564 156.272737 
L 310.144827 156.124744 
L 310.241209 155.076828 
L 310.712973 146.526504 
L 310.829645 146.322018 
L 310.870227 146.35613 
L 311.002118 146.73408 
L 311.296336 148.420131 
L 312.303273 155.029456 
L 312.364145 154.913385 
L 312.9678 152.50008 
L 313.320355 149.270767 
L 313.437027 149.140151 
L 313.475073 149.169592 
L 313.617109 149.507917 
L 313.921473 150.945632 
L 314.618973 154.929762 
L 314.695064 154.643863 
L 315.133855 152.599203 
L 315.296182 152.019562 
L 315.613227 151.086837 
L 315.747655 151.139421 
L 315.945491 151.560176 
L 316.0926 151.973699 
L 316.1484 151.806965 
L 316.249855 150.687755 
L 316.721618 143.76592 
L 316.863655 143.504528 
L 316.894091 143.523099 
L 317.018373 143.800711 
L 317.200991 144.552171 
L 317.261864 144.23683 
L 317.624564 142.082401 
L 317.720945 142.1609 
L 317.883273 142.721679 
L 318.228218 144.900985 
L 319.881927 156.201877 
L 320.216727 157.736045 
L 320.262382 157.638402 
L 320.437391 156.523316 
L 320.729073 155.288796 
L 320.9472 154.821884 
L 321.424036 150.940424 
L 321.741082 148.508698 
L 321.885655 148.332458 
L 321.911018 148.346733 
L 322.047982 148.599125 
L 322.319373 149.675266 
L 322.585691 150.947521 
L 322.6491 150.730071 
L 323.072673 148.684889 
L 323.087891 148.689313 
L 323.219782 148.747617 
L 323.250218 148.649639 
L 323.448055 147.315976 
L 323.683936 146.521453 
L 323.790464 146.604723 
L 323.973082 147.162955 
L 324.371291 149.268699 
L 325.573527 156.181916 
L 325.611573 156.05736 
L 325.746 154.464529 
L 326.060509 151.658994 
L 326.243127 151.37425 
L 326.250736 151.376706 
L 326.380091 151.546761 
L 326.626118 152.334791 
L 326.821418 153.171213 
L 326.859464 152.836016 
L 327.265282 148.618964 
L 327.331227 148.616363 
L 327.369273 148.670454 
L 327.529064 149.217743 
L 327.917127 151.559158 
L 328.987473 157.975516 
L 329.664682 160.770042 
L 329.669755 160.767766 
L 329.720482 160.571745 
L 330.0426 157.772281 
L 330.534655 154.163227 
L 330.737564 153.920725 
L 330.887209 154.071921 
L 331.153527 154.742115 
L 331.630364 156.497113 
L 331.676018 156.032596 
L 332.071691 151.203017 
L 332.160464 151.12564 
L 332.206118 151.171114 
L 332.3583 151.610651 
L 332.721 153.433739 
L 332.8047 152.947162 
L 333.121745 151.108267 
L 333.213055 151.091795 
L 333.246027 151.129318 
L 333.405818 151.559106 
L 333.7533 153.291773 
L 334.202236 155.816785 
L 334.263109 155.594884 
L 334.765309 152.70716 
L 334.805891 152.730765 
L 334.945391 153.023471 
L 335.242145 154.293885 
L 335.926964 157.868745 
L 335.987836 157.545045 
L 336.497645 153.890593 
L 336.606709 153.975617 
L 336.796936 154.523214 
L 337.273773 156.770643 
L 337.796264 159.246011 
L 337.836845 159.077176 
L 338.029609 156.651382 
L 338.212227 153.180972 
L 338.559709 146.541649 
L 338.755009 145.838445 
L 338.757545 145.838874 
L 338.848855 145.972717 
L 338.993427 146.39007 
L 339.059373 146.214638 
L 339.290182 144.668025 
L 339.467727 140.997559 
L 339.777164 135.364325 
L 340.248927 132.929713 
L 340.325018 133.049669 
L 340.484809 133.878726 
L 340.880482 137.44877 
L 341.060564 137.965991 
L 341.2584 138.110751 
L 341.430873 138.728687 
L 341.758064 140.928014 
L 342.414982 146.196503 
L 342.488536 145.847158 
L 342.9603 142.738558 
L 342.972982 142.741827 
L 343.074436 142.904373 
L 343.165745 143.059123 
L 343.216473 142.972788 
L 343.421918 142.006059 
L 343.604536 141.634917 
L 343.622291 141.643238 
L 343.733891 141.85492 
L 343.817591 142.154384 
L 343.850564 141.884466 
L 344.261455 137.271237 
L 344.274136 137.276003 
L 344.360373 137.462935 
L 344.553136 138.564821 
L 345.085773 143.085083 
L 345.189764 142.455223 
L 345.570218 139.828598 
L 345.641236 139.843042 
L 345.669136 139.886807 
L 345.821318 140.42599 
L 346.151045 142.610486 
L 346.886591 148.148495 
L 346.952536 147.938715 
L 347.398936 145.862994 
L 347.434445 145.881796 
L 347.566336 146.149464 
L 347.832655 147.317287 
L 349.088155 154.483888 
L 349.189609 154.008328 
L 349.623327 151.452109 
L 349.734927 151.46527 
L 349.750145 151.483614 
L 349.922618 151.897686 
L 350.300536 153.527442 
L 351.672709 159.697994 
L 352.456445 162.098787 
L 353.242718 163.818986 
L 354.082255 165.133787 
L 354.964909 166.126935 
L 354.967445 166.124564 
L 355.023245 165.881242 
L 355.708064 161.710577 
L 355.888145 161.70041 
L 356.111345 161.977298 
L 356.425855 162.562024 
L 356.486727 162.410426 
L 356.699782 161.023476 
L 357.032045 159.504217 
L 357.242564 159.317866 
L 357.420109 159.461192 
L 357.727009 160.067524 
L 357.800564 160.22491 
L 357.838609 160.071362 
L 358.056736 157.676067 
L 358.310373 154.156037 
L 358.771991 147.343501 
L 358.936855 146.979717 
L 358.957145 146.988653 
L 359.071282 147.203537 
L 359.304627 148.244084 
L 360.121336 152.844837 
L 360.217718 152.742064 
L 360.3141 151.888594 
L 360.737673 148.022129 
L 360.856882 147.90455 
L 360.892391 147.931256 
L 361.036964 148.258521 
L 361.336255 149.619709 
L 362.764227 157.647578 
L 362.842855 157.227565 
L 363.197945 155.216447 
L 363.304473 155.206141 
L 363.329836 155.23343 
L 363.413536 155.354331 
L 363.456655 155.218466 
L 363.849791 153.480482 
L 363.892909 153.50727 
L 364.037482 153.821766 
L 364.351991 155.174118 
L 365.450236 160.339405 
L 365.483209 160.301866 
L 365.599882 159.800767 
L 366.046282 157.838022 
L 366.259336 157.7138 
L 366.3405 157.689403 
L 366.350645 157.621152 
L 366.48 155.604272 
L 366.776755 152.377325 
L 366.956836 152.029785 
L 366.964445 152.032141 
L 367.083655 152.19661 
L 367.322073 153.006547 
L 368.0145 156.438085 
L 368.973245 160.687173 
L 369.150791 161.315147 
L 369.178691 161.041027 
L 369.333409 156.363321 
L 369.617482 150.94563 
L 369.807709 150.282812 
L 369.810245 150.283216 
L 369.904091 150.415511 
L 370.099391 151.198775 
L 370.654855 154.663158 
L 370.771527 155.210061 
L 370.829864 155.073977 
L 371.235682 153.663225 
L 371.281336 153.692933 
L 371.430982 154.014395 
L 371.748027 155.356951 
L 373.186145 161.931476 
L 373.581818 163.184912 
L 373.581818 163.184912 
" clip-path="url(#pb728d59062)" style="fill: none; stroke: #ff0000; stroke-width: 1.5; stroke-linecap: square"/>
   </g>
   <g id="line2d_16">
    <path d="M 81.899894 143.28 
L 84.431164 143.28 
L 84.431164 143.28 
" clip-path="url(#pb728d59062)" style="fill: none; stroke: #000000; stroke-width: 1.5; stroke-linecap: square"/>
   </g>
   <g id="line2d_17">
    <path d="M 81.899894 165.024 
L 81.899894 160.6752 
L 81.899894 156.3264 
L 81.899894 151.9776 
L 81.899894 147.6288 
" clip-path="url(#pb728d59062)" style="fill: none; stroke: #000000; stroke-width: 1.5; stroke-linecap: square"/>
   </g>
   <g id="patch_3">
    <path d="M 54 252 
L 54 34.56 
" style="fill: none; stroke: #000000; stroke-width: 0.8; stroke-linejoin: miter; stroke-linecap: square"/>
   </g>
   <g id="patch_4">
    <path d="M 54 252 
L 388.8 252 
" style="fill: none; stroke: #000000; stroke-width: 0.8; stroke-linejoin: miter; stroke-linecap: square"/>
   </g>
   <g id="text_16">
    <!-- 500 ms -->
    <g transform="translate(81.899894 138.9312)scale(0.1 -0.1)">
     <use xlink:href="#DejaVuSans-35"/>
     <use xlink:href="#DejaVuSans-30" x="63.623047"/>
     <use xlink:href="#DejaVuSans-30" x="127.246094"/>
     <use xlink:href="#DejaVuSans-20" x="190.869141"/>
     <use xlink:href="#DejaVuSans-6d" x="222.65625"/>
     <use xlink:href="#DejaVuSans-73" x="320.068359"/>
    </g>
   </g>
   <g id="text_17">
    <!-- 5 mV -->
    <g transform="translate(82.153529 156.3264)scale(0.1 -0.1)">
     <use xlink:href="#DejaVuSans-35"/>
     <use xlink:href="#DejaVuSans-20" x="63.623047"/>
     <use xlink:href="#DejaVuSans-6d" x="95.410156"/>
     <use xlink:href="#DejaVuSans-56" x="192.822266"/>
    </g>
   </g>
  </g>
 </g>
 <defs>
  <clipPath id="pb728d59062">
   <rect x="54" y="34.56" width="334.8" height="217.44"/>
  </clipPath>
 </defs>
</svg>
