<?xml version="1.0" encoding="utf-8" standalone="no"?>
<!DOCTYPE svg PUBLIC "-//W3C//DTD SVG 1.1//EN"
  "http://www.w3.org/Graphics/SVG/1.1/DTD/svg11.dtd">
<svg xmlns:xlink="http://www.w3.org/1999/xlink" width="460.8pt" height="345.6pt" viewBox="0 0 460.8 345.6" xmlns="http://www.w3.org/2000/svg" version="1.1">
 <metadata>
  <rdf:RDF xmlns:dc="http://purl.org/dc/elements/1.1/" xmlns:cc="http://creativecommons.org/ns#" xmlns:rdf="http://www.w3.org/1999/02/22-rdf-syntax-ns#">
   <cc:Work>
    <dc:type rdf:resource="http://purl.org/dc/dcmitype/StillImage"/>
    <dc:date>2023-02-10T16:40:39.094239</dc:date>
    <dc:format>image/svg+xml</dc:format>
    <dc:creator>
     <cc:Agent>
      <dc:title>Matplotlib v3.6.3, https://matplotlib.org/</dc:title>
     </cc:Agent>
    </dc:creator>
   </cc:Work>
  </rdf:RDF>
 </metadata>
 <defs>
  <style type="text/css">*{stroke-linejoin: round; stroke-linecap: butt}</style>
 </defs>
 <g id="figure_1">
  <g id="patch_1">
   <path d="M 0 345.6 
L 460.8 345.6 
L 460.8 0 
L 0 0 
z
" style="fill: #ffffff"/>
  </g>
  <g id="axes_1">
   <g id="patch_2">
    <path d="M 57.6 307.584 
L 414.72 307.584 
L 414.72 41.472 
L 57.6 41.472 
z
" style="fill: #ffffff"/>
   </g>
   <g id="matplotlib.axis_1">
    <g id="xtick_1">
     <g id="line2d_1">
      <defs>
       <path id="m8ab8bba262" d="M 0 0 
L 0 3.5 
" style="stroke: #000000; stroke-width: 0.8"/>
      </defs>
      <g>
       <use xlink:href="#m8ab8bba262" x="73.832727" y="307.584" style="stroke: #000000; stroke-width: 0.8"/>
      </g>
     </g>
     <g id="text_1">
      <!-- 0 -->
      <g transform="translate(70.651477 322.182437) scale(0.1 -0.1)">
       <defs>
        <path id="DejaVuSans-30" d="M 2034 4250 
Q 1547 4250 1301 3770 
Q 1056 3291 1056 2328 
Q 1056 1369 1301 889 
Q 1547 409 2034 409 
Q 2525 409 2770 889 
Q 3016 1369 3016 2328 
Q 3016 3291 2770 3770 
Q 2525 4250 2034 4250 
z
M 2034 4750 
Q 2819 4750 3233 4129 
Q 3647 3509 3647 2328 
Q 3647 1150 3233 529 
Q 2819 -91 2034 -91 
Q 1250 -91 836 529 
Q 422 1150 422 2328 
Q 422 3509 836 4129 
Q 1250 4750 2034 4750 
z
" transform="scale(0.015625)"/>
       </defs>
       <use xlink:href="#DejaVuSans-30"/>
      </g>
     </g>
    </g>
    <g id="xtick_2">
     <g id="line2d_2">
      <g>
       <use xlink:href="#m8ab8bba262" x="127.941367" y="307.584" style="stroke: #000000; stroke-width: 0.8"/>
      </g>
     </g>
     <g id="text_2">
      <!-- 10000 -->
      <g transform="translate(112.035117 322.182437) scale(0.1 -0.1)">
       <defs>
        <path id="DejaVuSans-31" d="M 794 531 
L 1825 531 
L 1825 4091 
L 703 3866 
L 703 4441 
L 1819 4666 
L 2450 4666 
L 2450 531 
L 3481 531 
L 3481 0 
L 794 0 
L 794 531 
z
" transform="scale(0.015625)"/>
       </defs>
       <use xlink:href="#DejaVuSans-31"/>
       <use xlink:href="#DejaVuSans-30" x="63.623047"/>
       <use xlink:href="#DejaVuSans-30" x="127.246094"/>
       <use xlink:href="#DejaVuSans-30" x="190.869141"/>
       <use xlink:href="#DejaVuSans-30" x="254.492188"/>
      </g>
     </g>
    </g>
    <g id="xtick_3">
     <g id="line2d_3">
      <g>
       <use xlink:href="#m8ab8bba262" x="182.050007" y="307.584" style="stroke: #000000; stroke-width: 0.8"/>
      </g>
     </g>
     <g id="text_3">
      <!-- 20000 -->
      <g transform="translate(166.143757 322.182437) scale(0.1 -0.1)">
       <defs>
        <path id="DejaVuSans-32" d="M 1228 531 
L 3431 531 
L 3431 0 
L 469 0 
L 469 531 
Q 828 903 1448 1529 
Q 2069 2156 2228 2338 
Q 2531 2678 2651 2914 
Q 2772 3150 2772 3378 
Q 2772 3750 2511 3984 
Q 2250 4219 1831 4219 
Q 1534 4219 1204 4116 
Q 875 4013 500 3803 
L 500 4441 
Q 881 4594 1212 4672 
Q 1544 4750 1819 4750 
Q 2544 4750 2975 4387 
Q 3406 4025 3406 3419 
Q 3406 3131 3298 2873 
Q 3191 2616 2906 2266 
Q 2828 2175 2409 1742 
Q 1991 1309 1228 531 
z
" transform="scale(0.015625)"/>
       </defs>
       <use xlink:href="#DejaVuSans-32"/>
       <use xlink:href="#DejaVuSans-30" x="63.623047"/>
       <use xlink:href="#DejaVuSans-30" x="127.246094"/>
       <use xlink:href="#DejaVuSans-30" x="190.869141"/>
       <use xlink:href="#DejaVuSans-30" x="254.492188"/>
      </g>
     </g>
    </g>
    <g id="xtick_4">
     <g id="line2d_4">
      <g>
       <use xlink:href="#m8ab8bba262" x="236.158647" y="307.584" style="stroke: #000000; stroke-width: 0.8"/>
      </g>
     </g>
     <g id="text_4">
      <!-- 30000 -->
      <g transform="translate(220.252397 322.182437) scale(0.1 -0.1)">
       <defs>
        <path id="DejaVuSans-33" d="M 2597 2516 
Q 3050 2419 3304 2112 
Q 3559 1806 3559 1356 
Q 3559 666 3084 287 
Q 2609 -91 1734 -91 
Q 1441 -91 1130 -33 
Q 819 25 488 141 
L 488 750 
Q 750 597 1062 519 
Q 1375 441 1716 441 
Q 2309 441 2620 675 
Q 2931 909 2931 1356 
Q 2931 1769 2642 2001 
Q 2353 2234 1838 2234 
L 1294 2234 
L 1294 2753 
L 1863 2753 
Q 2328 2753 2575 2939 
Q 2822 3125 2822 3475 
Q 2822 3834 2567 4026 
Q 2313 4219 1838 4219 
Q 1578 4219 1281 4162 
Q 984 4106 628 3988 
L 628 4550 
Q 988 4650 1302 4700 
Q 1616 4750 1894 4750 
Q 2613 4750 3031 4423 
Q 3450 4097 3450 3541 
Q 3450 3153 3228 2886 
Q 3006 2619 2597 2516 
z
" transform="scale(0.015625)"/>
       </defs>
       <use xlink:href="#DejaVuSans-33"/>
       <use xlink:href="#DejaVuSans-30" x="63.623047"/>
       <use xlink:href="#DejaVuSans-30" x="127.246094"/>
       <use xlink:href="#DejaVuSans-30" x="190.869141"/>
       <use xlink:href="#DejaVuSans-30" x="254.492188"/>
      </g>
     </g>
    </g>
    <g id="xtick_5">
     <g id="line2d_5">
      <g>
       <use xlink:href="#m8ab8bba262" x="290.267287" y="307.584" style="stroke: #000000; stroke-width: 0.8"/>
      </g>
     </g>
     <g id="text_5">
      <!-- 40000 -->
      <g transform="translate(274.361037 322.182437) scale(0.1 -0.1)">
       <defs>
        <path id="DejaVuSans-34" d="M 2419 4116 
L 825 1625 
L 2419 1625 
L 2419 4116 
z
M 2253 4666 
L 3047 4666 
L 3047 1625 
L 3713 1625 
L 3713 1100 
L 3047 1100 
L 3047 0 
L 2419 0 
L 2419 1100 
L 313 1100 
L 313 1709 
L 2253 4666 
z
" transform="scale(0.015625)"/>
       </defs>
       <use xlink:href="#DejaVuSans-34"/>
       <use xlink:href="#DejaVuSans-30" x="63.623047"/>
       <use xlink:href="#DejaVuSans-30" x="127.246094"/>
       <use xlink:href="#DejaVuSans-30" x="190.869141"/>
       <use xlink:href="#DejaVuSans-30" x="254.492188"/>
      </g>
     </g>
    </g>
    <g id="xtick_6">
     <g id="line2d_6">
      <g>
       <use xlink:href="#m8ab8bba262" x="344.375927" y="307.584" style="stroke: #000000; stroke-width: 0.8"/>
      </g>
     </g>
     <g id="text_6">
      <!-- 50000 -->
      <g transform="translate(328.469677 322.182437) scale(0.1 -0.1)">
       <defs>
        <path id="DejaVuSans-35" d="M 691 4666 
L 3169 4666 
L 3169 4134 
L 1269 4134 
L 1269 2991 
Q 1406 3038 1543 3061 
Q 1681 3084 1819 3084 
Q 2600 3084 3056 2656 
Q 3513 2228 3513 1497 
Q 3513 744 3044 326 
Q 2575 -91 1722 -91 
Q 1428 -91 1123 -41 
Q 819 9 494 109 
L 494 744 
Q 775 591 1075 516 
Q 1375 441 1709 441 
Q 2250 441 2565 725 
Q 2881 1009 2881 1497 
Q 2881 1984 2565 2268 
Q 2250 2553 1709 2553 
Q 1456 2553 1204 2497 
Q 953 2441 691 2322 
L 691 4666 
z
" transform="scale(0.015625)"/>
       </defs>
       <use xlink:href="#DejaVuSans-35"/>
       <use xlink:href="#DejaVuSans-30" x="63.623047"/>
       <use xlink:href="#DejaVuSans-30" x="127.246094"/>
       <use xlink:href="#DejaVuSans-30" x="190.869141"/>
       <use xlink:href="#DejaVuSans-30" x="254.492188"/>
      </g>
     </g>
    </g>
    <g id="xtick_7">
     <g id="line2d_7">
      <g>
       <use xlink:href="#m8ab8bba262" x="398.484567" y="307.584" style="stroke: #000000; stroke-width: 0.8"/>
      </g>
     </g>
     <g id="text_7">
      <!-- 60000 -->
      <g transform="translate(382.578317 322.182437) scale(0.1 -0.1)">
       <defs>
        <path id="DejaVuSans-36" d="M 2113 2584 
Q 1688 2584 1439 2293 
Q 1191 2003 1191 1497 
Q 1191 994 1439 701 
Q 1688 409 2113 409 
Q 2538 409 2786 701 
Q 3034 994 3034 1497 
Q 3034 2003 2786 2293 
Q 2538 2584 2113 2584 
z
M 3366 4563 
L 3366 3988 
Q 3128 4100 2886 4159 
Q 2644 4219 2406 4219 
Q 1781 4219 1451 3797 
Q 1122 3375 1075 2522 
Q 1259 2794 1537 2939 
Q 1816 3084 2150 3084 
Q 2853 3084 3261 2657 
Q 3669 2231 3669 1497 
Q 3669 778 3244 343 
Q 2819 -91 2113 -91 
Q 1303 -91 875 529 
Q 447 1150 447 2328 
Q 447 3434 972 4092 
Q 1497 4750 2381 4750 
Q 2619 4750 2861 4703 
Q 3103 4656 3366 4563 
z
" transform="scale(0.015625)"/>
       </defs>
       <use xlink:href="#DejaVuSans-36"/>
       <use xlink:href="#DejaVuSans-30" x="63.623047"/>
       <use xlink:href="#DejaVuSans-30" x="127.246094"/>
       <use xlink:href="#DejaVuSans-30" x="190.869141"/>
       <use xlink:href="#DejaVuSans-30" x="254.492188"/>
      </g>
     </g>
    </g>
    <g id="text_8">
     <!-- Time(ms) -->
     <g transform="translate(212.549844 335.860562) scale(0.1 -0.1)">
      <defs>
       <path id="DejaVuSans-54" d="M -19 4666 
L 3928 4666 
L 3928 4134 
L 2272 4134 
L 2272 0 
L 1638 0 
L 1638 4134 
L -19 4134 
L -19 4666 
z
" transform="scale(0.015625)"/>
       <path id="DejaVuSans-69" d="M 603 3500 
L 1178 3500 
L 1178 0 
L 603 0 
L 603 3500 
z
M 603 4863 
L 1178 4863 
L 1178 4134 
L 603 4134 
L 603 4863 
z
" transform="scale(0.015625)"/>
       <path id="DejaVuSans-6d" d="M 3328 2828 
Q 3544 3216 3844 3400 
Q 4144 3584 4550 3584 
Q 5097 3584 5394 3201 
Q 5691 2819 5691 2113 
L 5691 0 
L 5113 0 
L 5113 2094 
Q 5113 2597 4934 2840 
Q 4756 3084 4391 3084 
Q 3944 3084 3684 2787 
Q 3425 2491 3425 1978 
L 3425 0 
L 2847 0 
L 2847 2094 
Q 2847 2600 2669 2842 
Q 2491 3084 2119 3084 
Q 1678 3084 1418 2786 
Q 1159 2488 1159 1978 
L 1159 0 
L 581 0 
L 581 3500 
L 1159 3500 
L 1159 2956 
Q 1356 3278 1631 3431 
Q 1906 3584 2284 3584 
Q 2666 3584 2933 3390 
Q 3200 3197 3328 2828 
z
" transform="scale(0.015625)"/>
       <path id="DejaVuSans-65" d="M 3597 1894 
L 3597 1613 
L 953 1613 
Q 991 1019 1311 708 
Q 1631 397 2203 397 
Q 2534 397 2845 478 
Q 3156 559 3463 722 
L 3463 178 
Q 3153 47 2828 -22 
Q 2503 -91 2169 -91 
Q 1331 -91 842 396 
Q 353 884 353 1716 
Q 353 2575 817 3079 
Q 1281 3584 2069 3584 
Q 2775 3584 3186 3129 
Q 3597 2675 3597 1894 
z
M 3022 2063 
Q 3016 2534 2758 2815 
Q 2500 3097 2075 3097 
Q 1594 3097 1305 2825 
Q 1016 2553 972 2059 
L 3022 2063 
z
" transform="scale(0.015625)"/>
       <path id="DejaVuSans-28" d="M 1984 4856 
Q 1566 4138 1362 3434 
Q 1159 2731 1159 2009 
Q 1159 1288 1364 580 
Q 1569 -128 1984 -844 
L 1484 -844 
Q 1016 -109 783 600 
Q 550 1309 550 2009 
Q 550 2706 781 3412 
Q 1013 4119 1484 4856 
L 1984 4856 
z
" transform="scale(0.015625)"/>
       <path id="DejaVuSans-73" d="M 2834 3397 
L 2834 2853 
Q 2591 2978 2328 3040 
Q 2066 3103 1784 3103 
Q 1356 3103 1142 2972 
Q 928 2841 928 2578 
Q 928 2378 1081 2264 
Q 1234 2150 1697 2047 
L 1894 2003 
Q 2506 1872 2764 1633 
Q 3022 1394 3022 966 
Q 3022 478 2636 193 
Q 2250 -91 1575 -91 
Q 1294 -91 989 -36 
Q 684 19 347 128 
L 347 722 
Q 666 556 975 473 
Q 1284 391 1588 391 
Q 1994 391 2212 530 
Q 2431 669 2431 922 
Q 2431 1156 2273 1281 
Q 2116 1406 1581 1522 
L 1381 1569 
Q 847 1681 609 1914 
Q 372 2147 372 2553 
Q 372 3047 722 3315 
Q 1072 3584 1716 3584 
Q 2034 3584 2315 3537 
Q 2597 3491 2834 3397 
z
" transform="scale(0.015625)"/>
       <path id="DejaVuSans-29" d="M 513 4856 
L 1013 4856 
Q 1481 4119 1714 3412 
Q 1947 2706 1947 2009 
Q 1947 1309 1714 600 
Q 1481 -109 1013 -844 
L 513 -844 
Q 928 -128 1133 580 
Q 1338 1288 1338 2009 
Q 1338 2731 1133 3434 
Q 928 4138 513 4856 
z
" transform="scale(0.015625)"/>
      </defs>
      <use xlink:href="#DejaVuSans-54"/>
      <use xlink:href="#DejaVuSans-69" x="57.958984"/>
      <use xlink:href="#DejaVuSans-6d" x="85.742188"/>
      <use xlink:href="#DejaVuSans-65" x="183.154297"/>
      <use xlink:href="#DejaVuSans-28" x="244.677734"/>
      <use xlink:href="#DejaVuSans-6d" x="283.691406"/>
      <use xlink:href="#DejaVuSans-73" x="381.103516"/>
      <use xlink:href="#DejaVuSans-29" x="433.203125"/>
     </g>
    </g>
   </g>
   <g id="matplotlib.axis_2">
    <g id="ytick_1">
     <g id="line2d_8">
      <defs>
       <path id="md621c55547" d="M 0 0 
L -3.5 0 
" style="stroke: #000000; stroke-width: 0.8"/>
      </defs>
      <g>
       <use xlink:href="#md621c55547" x="57.6" y="307.584" style="stroke: #000000; stroke-width: 0.8"/>
      </g>
     </g>
     <g id="text_9">
      <!-- −100 -->
      <g transform="translate(23.132812 311.383219) scale(0.1 -0.1)">
       <defs>
        <path id="DejaVuSans-2212" d="M 678 2272 
L 4684 2272 
L 4684 1741 
L 678 1741 
L 678 2272 
z
" transform="scale(0.015625)"/>
       </defs>
       <use xlink:href="#DejaVuSans-2212"/>
       <use xlink:href="#DejaVuSans-31" x="83.789062"/>
       <use xlink:href="#DejaVuSans-30" x="147.412109"/>
       <use xlink:href="#DejaVuSans-30" x="211.035156"/>
      </g>
     </g>
    </g>
    <g id="ytick_2">
     <g id="line2d_9">
      <g>
       <use xlink:href="#md621c55547" x="57.6" y="269.568" style="stroke: #000000; stroke-width: 0.8"/>
      </g>
     </g>
     <g id="text_10">
      <!-- −80 -->
      <g transform="translate(29.495313 273.367219) scale(0.1 -0.1)">
       <defs>
        <path id="DejaVuSans-38" d="M 2034 2216 
Q 1584 2216 1326 1975 
Q 1069 1734 1069 1313 
Q 1069 891 1326 650 
Q 1584 409 2034 409 
Q 2484 409 2743 651 
Q 3003 894 3003 1313 
Q 3003 1734 2745 1975 
Q 2488 2216 2034 2216 
z
M 1403 2484 
Q 997 2584 770 2862 
Q 544 3141 544 3541 
Q 544 4100 942 4425 
Q 1341 4750 2034 4750 
Q 2731 4750 3128 4425 
Q 3525 4100 3525 3541 
Q 3525 3141 3298 2862 
Q 3072 2584 2669 2484 
Q 3125 2378 3379 2068 
Q 3634 1759 3634 1313 
Q 3634 634 3220 271 
Q 2806 -91 2034 -91 
Q 1263 -91 848 271 
Q 434 634 434 1313 
Q 434 1759 690 2068 
Q 947 2378 1403 2484 
z
M 1172 3481 
Q 1172 3119 1398 2916 
Q 1625 2713 2034 2713 
Q 2441 2713 2670 2916 
Q 2900 3119 2900 3481 
Q 2900 3844 2670 4047 
Q 2441 4250 2034 4250 
Q 1625 4250 1398 4047 
Q 1172 3844 1172 3481 
z
" transform="scale(0.015625)"/>
       </defs>
       <use xlink:href="#DejaVuSans-2212"/>
       <use xlink:href="#DejaVuSans-38" x="83.789062"/>
       <use xlink:href="#DejaVuSans-30" x="147.412109"/>
      </g>
     </g>
    </g>
    <g id="ytick_3">
     <g id="line2d_10">
      <g>
       <use xlink:href="#md621c55547" x="57.6" y="231.552" style="stroke: #000000; stroke-width: 0.8"/>
      </g>
     </g>
     <g id="text_11">
      <!-- −60 -->
      <g transform="translate(29.495313 235.351219) scale(0.1 -0.1)">
       <use xlink:href="#DejaVuSans-2212"/>
       <use xlink:href="#DejaVuSans-36" x="83.789062"/>
       <use xlink:href="#DejaVuSans-30" x="147.412109"/>
      </g>
     </g>
    </g>
    <g id="ytick_4">
     <g id="line2d_11">
      <g>
       <use xlink:href="#md621c55547" x="57.6" y="193.536" style="stroke: #000000; stroke-width: 0.8"/>
      </g>
     </g>
     <g id="text_12">
      <!-- −40 -->
      <g transform="translate(29.495313 197.335219) scale(0.1 -0.1)">
       <use xlink:href="#DejaVuSans-2212"/>
       <use xlink:href="#DejaVuSans-34" x="83.789062"/>
       <use xlink:href="#DejaVuSans-30" x="147.412109"/>
      </g>
     </g>
    </g>
    <g id="ytick_5">
     <g id="line2d_12">
      <g>
       <use xlink:href="#md621c55547" x="57.6" y="155.52" style="stroke: #000000; stroke-width: 0.8"/>
      </g>
     </g>
     <g id="text_13">
      <!-- −20 -->
      <g transform="translate(29.495313 159.319219) scale(0.1 -0.1)">
       <use xlink:href="#DejaVuSans-2212"/>
       <use xlink:href="#DejaVuSans-32" x="83.789062"/>
       <use xlink:href="#DejaVuSans-30" x="147.412109"/>
      </g>
     </g>
    </g>
    <g id="ytick_6">
     <g id="line2d_13">
      <g>
       <use xlink:href="#md621c55547" x="57.6" y="117.504" style="stroke: #000000; stroke-width: 0.8"/>
      </g>
     </g>
     <g id="text_14">
      <!-- 0 -->
      <g transform="translate(44.2375 121.303219) scale(0.1 -0.1)">
       <use xlink:href="#DejaVuSans-30"/>
      </g>
     </g>
    </g>
    <g id="ytick_7">
     <g id="line2d_14">
      <g>
       <use xlink:href="#md621c55547" x="57.6" y="79.488" style="stroke: #000000; stroke-width: 0.8"/>
      </g>
     </g>
     <g id="text_15">
      <!-- 20 -->
      <g transform="translate(37.875 83.287219) scale(0.1 -0.1)">
       <use xlink:href="#DejaVuSans-32"/>
       <use xlink:href="#DejaVuSans-30" x="63.623047"/>
      </g>
     </g>
    </g>
    <g id="ytick_8">
     <g id="line2d_15">
      <g>
       <use xlink:href="#md621c55547" x="57.6" y="41.472" style="stroke: #000000; stroke-width: 0.8"/>
      </g>
     </g>
     <g id="text_16">
      <!-- 40 -->
      <g transform="translate(37.875 45.271219) scale(0.1 -0.1)">
       <use xlink:href="#DejaVuSans-34"/>
       <use xlink:href="#DejaVuSans-30" x="63.623047"/>
      </g>
     </g>
    </g>
    <g id="text_17">
     <!-- Membrane potential (mV) -->
     <g transform="translate(17.053125 238.939719) rotate(-90) scale(0.1 -0.1)">
      <defs>
       <path id="DejaVuSans-4d" d="M 628 4666 
L 1569 4666 
L 2759 1491 
L 3956 4666 
L 4897 4666 
L 4897 0 
L 4281 0 
L 4281 4097 
L 3078 897 
L 2444 897 
L 1241 4097 
L 1241 0 
L 628 0 
L 628 4666 
z
" transform="scale(0.015625)"/>
       <path id="DejaVuSans-62" d="M 3116 1747 
Q 3116 2381 2855 2742 
Q 2594 3103 2138 3103 
Q 1681 3103 1420 2742 
Q 1159 2381 1159 1747 
Q 1159 1113 1420 752 
Q 1681 391 2138 391 
Q 2594 391 2855 752 
Q 3116 1113 3116 1747 
z
M 1159 2969 
Q 1341 3281 1617 3432 
Q 1894 3584 2278 3584 
Q 2916 3584 3314 3078 
Q 3713 2572 3713 1747 
Q 3713 922 3314 415 
Q 2916 -91 2278 -91 
Q 1894 -91 1617 61 
Q 1341 213 1159 525 
L 1159 0 
L 581 0 
L 581 4863 
L 1159 4863 
L 1159 2969 
z
" transform="scale(0.015625)"/>
       <path id="DejaVuSans-72" d="M 2631 2963 
Q 2534 3019 2420 3045 
Q 2306 3072 2169 3072 
Q 1681 3072 1420 2755 
Q 1159 2438 1159 1844 
L 1159 0 
L 581 0 
L 581 3500 
L 1159 3500 
L 1159 2956 
Q 1341 3275 1631 3429 
Q 1922 3584 2338 3584 
Q 2397 3584 2469 3576 
Q 2541 3569 2628 3553 
L 2631 2963 
z
" transform="scale(0.015625)"/>
       <path id="DejaVuSans-61" d="M 2194 1759 
Q 1497 1759 1228 1600 
Q 959 1441 959 1056 
Q 959 750 1161 570 
Q 1363 391 1709 391 
Q 2188 391 2477 730 
Q 2766 1069 2766 1631 
L 2766 1759 
L 2194 1759 
z
M 3341 1997 
L 3341 0 
L 2766 0 
L 2766 531 
Q 2569 213 2275 61 
Q 1981 -91 1556 -91 
Q 1019 -91 701 211 
Q 384 513 384 1019 
Q 384 1609 779 1909 
Q 1175 2209 1959 2209 
L 2766 2209 
L 2766 2266 
Q 2766 2663 2505 2880 
Q 2244 3097 1772 3097 
Q 1472 3097 1187 3025 
Q 903 2953 641 2809 
L 641 3341 
Q 956 3463 1253 3523 
Q 1550 3584 1831 3584 
Q 2591 3584 2966 3190 
Q 3341 2797 3341 1997 
z
" transform="scale(0.015625)"/>
       <path id="DejaVuSans-6e" d="M 3513 2113 
L 3513 0 
L 2938 0 
L 2938 2094 
Q 2938 2591 2744 2837 
Q 2550 3084 2163 3084 
Q 1697 3084 1428 2787 
Q 1159 2491 1159 1978 
L 1159 0 
L 581 0 
L 581 3500 
L 1159 3500 
L 1159 2956 
Q 1366 3272 1645 3428 
Q 1925 3584 2291 3584 
Q 2894 3584 3203 3211 
Q 3513 2838 3513 2113 
z
" transform="scale(0.015625)"/>
       <path id="DejaVuSans-20" transform="scale(0.015625)"/>
       <path id="DejaVuSans-70" d="M 1159 525 
L 1159 -1331 
L 581 -1331 
L 581 3500 
L 1159 3500 
L 1159 2969 
Q 1341 3281 1617 3432 
Q 1894 3584 2278 3584 
Q 2916 3584 3314 3078 
Q 3713 2572 3713 1747 
Q 3713 922 3314 415 
Q 2916 -91 2278 -91 
Q 1894 -91 1617 61 
Q 1341 213 1159 525 
z
M 3116 1747 
Q 3116 2381 2855 2742 
Q 2594 3103 2138 3103 
Q 1681 3103 1420 2742 
Q 1159 2381 1159 1747 
Q 1159 1113 1420 752 
Q 1681 391 2138 391 
Q 2594 391 2855 752 
Q 3116 1113 3116 1747 
z
" transform="scale(0.015625)"/>
       <path id="DejaVuSans-6f" d="M 1959 3097 
Q 1497 3097 1228 2736 
Q 959 2375 959 1747 
Q 959 1119 1226 758 
Q 1494 397 1959 397 
Q 2419 397 2687 759 
Q 2956 1122 2956 1747 
Q 2956 2369 2687 2733 
Q 2419 3097 1959 3097 
z
M 1959 3584 
Q 2709 3584 3137 3096 
Q 3566 2609 3566 1747 
Q 3566 888 3137 398 
Q 2709 -91 1959 -91 
Q 1206 -91 779 398 
Q 353 888 353 1747 
Q 353 2609 779 3096 
Q 1206 3584 1959 3584 
z
" transform="scale(0.015625)"/>
       <path id="DejaVuSans-74" d="M 1172 4494 
L 1172 3500 
L 2356 3500 
L 2356 3053 
L 1172 3053 
L 1172 1153 
Q 1172 725 1289 603 
Q 1406 481 1766 481 
L 2356 481 
L 2356 0 
L 1766 0 
Q 1100 0 847 248 
Q 594 497 594 1153 
L 594 3053 
L 172 3053 
L 172 3500 
L 594 3500 
L 594 4494 
L 1172 4494 
z
" transform="scale(0.015625)"/>
       <path id="DejaVuSans-6c" d="M 603 4863 
L 1178 4863 
L 1178 0 
L 603 0 
L 603 4863 
z
" transform="scale(0.015625)"/>
       <path id="DejaVuSans-56" d="M 1831 0 
L 50 4666 
L 709 4666 
L 2188 738 
L 3669 4666 
L 4325 4666 
L 2547 0 
L 1831 0 
z
" transform="scale(0.015625)"/>
      </defs>
      <use xlink:href="#DejaVuSans-4d"/>
      <use xlink:href="#DejaVuSans-65" x="86.279297"/>
      <use xlink:href="#DejaVuSans-6d" x="147.802734"/>
      <use xlink:href="#DejaVuSans-62" x="245.214844"/>
      <use xlink:href="#DejaVuSans-72" x="308.691406"/>
      <use xlink:href="#DejaVuSans-61" x="349.804688"/>
      <use xlink:href="#DejaVuSans-6e" x="411.083984"/>
      <use xlink:href="#DejaVuSans-65" x="474.462891"/>
      <use xlink:href="#DejaVuSans-20" x="535.986328"/>
      <use xlink:href="#DejaVuSans-70" x="567.773438"/>
      <use xlink:href="#DejaVuSans-6f" x="631.25"/>
      <use xlink:href="#DejaVuSans-74" x="692.431641"/>
      <use xlink:href="#DejaVuSans-65" x="731.640625"/>
      <use xlink:href="#DejaVuSans-6e" x="793.164062"/>
      <use xlink:href="#DejaVuSans-74" x="856.542969"/>
      <use xlink:href="#DejaVuSans-69" x="895.751953"/>
      <use xlink:href="#DejaVuSans-61" x="923.535156"/>
      <use xlink:href="#DejaVuSans-6c" x="984.814453"/>
      <use xlink:href="#DejaVuSans-20" x="1012.597656"/>
      <use xlink:href="#DejaVuSans-28" x="1044.384766"/>
      <use xlink:href="#DejaVuSans-6d" x="1083.398438"/>
      <use xlink:href="#DejaVuSans-56" x="1180.810547"/>
      <use xlink:href="#DejaVuSans-29" x="1249.21875"/>
     </g>
    </g>
   </g>
   <g id="line2d_16">
    <path d="M 73.832727 280.9728 
L 73.978822 282.998264 
L 74.427927 286.06521 
L 74.914909 287.994913 
L 74.944669 288.010754 
L 74.993367 287.914288 
L 75.48576 286.754223 
L 75.675142 286.85653 
L 75.704902 286.868154 
L 75.740073 286.771593 
L 75.832058 285.629433 
L 76.638284 273.202255 
L 76.719447 273.226393 
L 76.741091 273.26013 
L 76.900713 273.782489 
L 77.236189 275.821206 
L 77.59872 278.216529 
L 77.663651 278.073628 
L 77.996422 277.267747 
L 78.001833 277.269497 
L 78.126284 277.436217 
L 78.356247 278.223668 
L 78.561862 278.553764 
L 78.656553 278.59087 
L 78.694429 278.528868 
L 79.070487 277.774984 
L 79.132713 277.81717 
L 79.305862 277.795328 
L 79.492538 277.828407 
L 79.671098 278.180582 
L 79.984931 279.406429 
L 80.880436 283.830139 
L 80.972422 283.526878 
L 81.483753 280.835306 
L 81.916625 276.884178 
L 82.051898 276.750925 
L 82.078953 276.768803 
L 82.227753 277.056264 
L 82.368436 277.138385 
L 82.381964 277.131821 
L 82.492887 276.953012 
L 82.728262 275.945816 
L 83.0448 274.408589 
L 83.142196 274.420654 
L 83.16384 274.4486 
L 83.328873 274.897651 
L 83.572364 275.82329 
L 83.661644 275.732617 
L 83.805033 275.741981 
L 84.248727 276.10477 
L 84.289309 275.971593 
L 84.565265 275.157714 
L 84.578793 275.162423 
L 84.695127 275.346136 
L 84.841222 275.60447 
L 84.881804 275.524923 
L 85.079302 274.329947 
L 85.279505 273.85892 
L 85.284916 273.8603 
L 85.393135 274.012622 
L 85.601455 274.80423 
L 85.78272 275.117885 
L 85.90176 275.116677 
L 85.920698 275.069062 
L 86.055971 274.345718 
L 86.835142 269.656365 
L 87.043462 269.292241 
L 87.048873 269.293972 
L 87.165207 269.459088 
L 87.368116 270.238781 
L 87.763113 272.826627 
L 88.731665 279.284035 
L 88.774953 279.274055 
L 88.810124 279.2113 
L 89.213236 278.023295 
L 89.878778 274.043672 
L 90.09792 273.078666 
L 90.417164 271.515297 
L 90.641716 271.161495 
L 90.763462 270.155332 
L 91.061062 268.037904 
L 91.144931 267.988421 
L 91.188218 268.035885 
L 91.334313 268.482445 
L 91.91328 270.894634 
L 91.983622 270.805883 
L 92.167593 270.639382 
L 92.191942 270.65838 
L 92.278516 270.73034 
L 92.324509 270.644728 
L 92.873716 269.435319 
L 92.898065 269.450234 
L 93.027927 269.70955 
L 93.514909 270.965309 
L 93.544669 270.948797 
L 93.693469 270.699129 
L 94.992087 265.030196 
L 95.108422 265.107921 
L 95.192291 265.204027 
L 95.240989 265.120258 
L 95.830778 263.786889 
L 95.952524 263.913394 
L 96.206836 264.173881 
L 96.277178 264.078898 
L 96.628887 262.779782 
L 96.70464 262.865577 
L 96.866967 263.440089 
L 97.391825 265.728216 
L 97.424291 265.627727 
L 97.540625 264.372556 
L 97.843636 261.267656 
L 97.943738 261.129161 
L 97.989731 261.17248 
L 98.125004 261.59845 
L 98.403665 263.381542 
L 99.35328 269.917595 
L 99.567011 271.065388 
L 99.640058 270.95418 
L 99.805091 270.79121 
L 99.832145 270.811388 
L 99.970124 271.107308 
L 100.237964 272.332253 
L 100.532858 273.373095 
L 100.630255 273.262328 
L 101.119942 270.52875 
L 101.176756 270.569718 
L 101.655622 271.362717 
L 101.842298 271.75224 
L 101.907229 271.618425 
L 102.12096 270.386337 
L 102.453731 267.192394 
L 102.959651 258.935804 
L 103.268073 258.237063 
L 103.378996 258.324425 
L 103.673891 258.945086 
L 104.079709 260.42411 
L 104.171695 260.269264 
L 104.761484 258.899749 
L 104.834531 258.988085 
L 104.915695 259.110897 
L 104.961687 259.000829 
L 105.535244 256.560347 
L 105.638051 256.725154 
L 106.195375 258.677503 
L 106.547084 260.581155 
L 106.633658 260.499992 
L 106.774342 260.452912 
L 106.798691 260.477581 
L 106.939375 260.462746 
L 107.101702 260.483649 
L 107.250502 260.794228 
L 107.32896 260.61829 
L 107.450705 260.476886 
L 107.488582 260.512754 
L 107.810531 260.973928 
L 107.872756 260.8858 
L 108.278575 259.837944 
L 108.500422 259.322019 
L 108.505833 259.323498 
L 108.60864 259.47558 
L 109.071273 260.368302 
L 109.257949 260.585234 
L 109.509556 261.468741 
L 109.945135 263.376332 
L 111.365498 271.21327 
L 111.692858 272.088143 
L 111.741556 271.7519 
L 112.160902 268.278829 
L 112.247476 268.254515 
L 112.282647 268.293767 
L 112.434153 268.716085 
L 112.742575 270.38089 
L 112.950895 271.001899 
L 113.140276 271.160624 
L 113.207913 271.154163 
L 113.240378 271.103179 
L 113.345891 270.618871 
L 113.770647 266.231789 
L 114.317149 260.652881 
L 114.528175 260.088634 
L 114.582284 259.993593 
L 114.833891 259.173186 
L 114.871767 259.196898 
L 115.009745 259.154407 
L 115.196422 258.997359 
L 115.515665 256.405315 
L 115.84032 254.097248 
L 116.151447 252.842526 
L 116.278604 252.452839 
L 116.70336 249.844501 
L 116.754764 249.894382 
L 116.927913 250.388572 
L 117.00096 250.121912 
L 117.198458 249.587842 
L 117.222807 249.60179 
L 117.32832 249.856425 
L 117.53664 251.090641 
L 117.98304 255.40251 
L 118.134545 256.324077 
L 118.175127 256.151663 
L 118.843375 251.605123 
L 118.859607 251.61211 
L 118.954298 251.818755 
L 119.184262 253.051295 
L 119.67936 256.523971 
L 120.085178 259.160535 
L 120.436887 259.058974 
L 120.553222 259.085671 
L 120.564044 259.101269 
L 120.710138 259.532354 
L 120.977978 261.169356 
L 121.502836 264.306614 
L 121.730095 264.436471 
L 121.876189 264.774073 
L 122.133207 266.068175 
L 122.977309 270.6752 
L 123.099055 270.954584 
L 123.136931 270.775352 
L 123.247855 268.758662 
L 123.889047 255.765364 
L 124.408495 253.244392 
L 124.443665 253.269284 
L 124.562705 253.597771 
L 124.803491 255.070299 
L 125.212015 257.354793 
L 125.523142 257.890805 
L 125.653004 257.82269 
L 125.793687 257.862094 
L 125.937076 258.279696 
L 126.618851 260.732306 
L 126.781178 260.876777 
L 126.819055 260.899145 
L 126.854225 260.791384 
L 127.051724 259.069132 
L 127.422371 257.056513 
L 127.430487 257.05849 
L 127.522473 257.21079 
L 128.298938 259.799189 
L 128.715578 262.56593 
L 128.818385 262.326235 
L 129.040233 261.86691 
L 129.061876 261.878286 
L 129.175505 262.113993 
L 129.389236 263.203381 
L 129.892451 266.145402 
L 129.941149 266.112026 
L 130.3632 265.667434 
L 130.425425 265.758113 
L 130.609396 266.361697 
L 130.782545 266.822976 
L 130.812305 266.776223 
L 130.944873 266.029647 
L 131.483258 263.003924 
L 131.542778 263.064688 
L 131.694284 263.572117 
L 131.894487 263.881443 
L 131.986473 263.973929 
L 132.037876 263.889667 
L 132.162327 263.358651 
L 132.543796 260.842694 
L 132.633076 260.933622 
L 132.792698 261.564759 
L 133.36896 264.468051 
L 133.423069 264.396867 
L 133.552931 264.280059 
L 133.590807 264.319795 
L 133.72608 264.732037 
L 133.999331 266.447893 
L 134.199535 267.126615 
L 134.342924 267.256193 
L 134.965178 268.76216 
L 134.994938 268.836419 
L 135.054458 268.671776 
L 135.178909 267.531945 
L 135.557673 264.086532 
L 135.995956 263.061158 
L 136.104175 263.152305 
L 136.271913 263.698475 
L 136.580335 265.624603 
L 136.710196 266.311917 
L 136.767011 266.212545 
L 137.015913 265.705537 
L 137.051084 265.733013 
L 137.180945 266.062206 
L 137.432553 267.45489 
L 137.546182 268.017966 
L 137.597585 267.846913 
L 137.824844 265.875195 
L 138.141382 263.956368 
L 138.241484 263.885969 
L 138.282065 263.924166 
L 138.766342 264.68748 
L 138.823156 264.508925 
L 139.191098 262.933078 
L 139.234385 262.964623 
L 139.364247 263.311333 
L 139.61856 264.773726 
L 139.91616 266.110539 
L 140.156945 267.150808 
L 140.592524 270.271453 
L 141.149847 274.604553 
L 141.209367 274.369394 
L 141.479913 271.784837 
L 141.750458 270.11345 
L 141.861382 270.031327 
L 141.896553 270.060381 
L 142.061585 270.244296 
L 142.110284 270.147745 
L 142.291549 269.246696 
L 142.870516 266.605823 
L 142.984145 266.675197 
L 143.154589 267.156883 
L 143.471127 268.849329 
L 143.830953 271.053582 
L 143.906705 270.941205 
L 143.987869 270.297846 
L 144.282764 268.381058 
L 144.366633 268.343837 
L 144.407215 268.387959 
L 144.55872 268.829833 
L 144.867142 270.568123 
L 145.194502 272.427377 
L 145.237789 272.311441 
L 145.359535 271.158549 
L 145.716655 268.088947 
L 145.843811 267.938553 
L 145.876276 267.961379 
L 146.011549 268.266805 
L 146.265862 269.231622 
L 146.352436 269.026509 
L 146.64192 268.294286 
L 146.658153 268.301201 
L 146.774487 268.503229 
L 146.993629 269.445237 
L 147.499549 271.63158 
L 147.615884 271.749449 
L 147.661876 271.66195 
L 147.975709 270.977884 
L 148.013585 271.003494 
L 148.246255 271.084641 
L 148.424815 271.092774 
L 148.581731 271.441281 
L 148.719709 271.769582 
L 148.765702 271.670734 
L 148.914502 270.553126 
L 149.598982 265.767563 
L 149.712611 265.631306 
L 149.753193 265.664715 
L 149.888465 266.026786 
L 149.991273 266.367025 
L 150.056204 266.241924 
L 150.250996 265.909304 
L 150.280756 265.930022 
L 150.402502 266.217678 
L 150.640582 267.48942 
L 151.208727 272.076375 
L 151.885091 276.936407 
L 151.933789 276.959679 
L 151.971665 276.866731 
L 152.336902 275.747226 
L 152.377484 275.772494 
L 152.526284 276.075703 
L 152.875287 276.767838 
L 153.064669 276.663078 
L 153.197236 275.979705 
L 153.657164 272.664893 
L 153.868189 271.323245 
L 154.279418 265.426064 
L 154.547258 262.735813 
L 154.655476 262.57267 
L 154.696058 262.608781 
L 154.82592 262.997803 
L 155.091055 264.647762 
L 155.973033 270.54744 
L 156.132655 270.755391 
L 156.189469 270.650261 
L 156.495185 269.736883 
L 156.535767 269.767099 
L 156.67104 270.102281 
L 156.93888 271.148172 
L 157.02816 270.987461 
L 157.317644 270.485963 
L 157.32576 270.489657 
L 157.452916 270.685293 
L 157.677469 271.550029 
L 158.134691 274.399516 
L 158.372771 275.280192 
L 158.570269 275.507795 
L 158.719069 275.809169 
L 158.773178 275.683193 
L 158.973382 274.407292 
L 159.757964 269.456525 
L 159.841833 269.544048 
L 160.017687 270.113549 
L 160.263884 270.703837 
L 160.434327 270.976583 
L 160.675113 271.903552 
L 161.162095 274.880635 
L 161.405585 276.231944 
L 161.456989 276.121998 
L 161.676131 274.803023 
L 161.846575 272.611703 
L 162.479651 264.857732 
L 162.663622 264.155879 
L 162.89088 263.594687 
L 162.896291 263.596359 
L 162.999098 263.75746 
L 163.250705 264.429767 
L 163.299404 264.263086 
L 163.5456 263.438582 
L 163.567244 263.450296 
L 163.675462 263.692928 
L 163.908131 264.529697 
L 163.997411 264.42302 
L 164.292305 263.702069 
L 164.644015 261.782759 
L 164.657542 261.787445 
L 164.754938 261.96796 
L 164.949731 262.92505 
L 165.222982 264.752132 
L 165.317673 264.592807 
L 165.536815 263.978821 
L 165.761367 263.393871 
L 166.021091 263.516617 
L 166.191535 264.035445 
L 166.664989 265.673779 
L 166.675811 265.65577 
L 166.800262 264.926611 
L 166.965295 264.494401 
L 166.989644 264.50804 
L 167.097862 264.76269 
L 167.322415 266.004291 
L 167.779636 268.426178 
L 167.974429 268.925284 
L 168.058298 269.075104 
L 168.106996 268.984421 
L 168.875345 266.083295 
L 169.094487 265.509094 
L 169.197295 265.635317 
L 169.383971 266.337483 
L 170.796218 272.927163 
L 170.934196 273.124377 
L 171.158749 273.942272 
L 171.331898 274.567514 
L 171.383302 274.483033 
L 171.515869 273.754391 
L 171.954153 270.937385 
L 172.067782 270.890515 
L 172.097542 270.91798 
L 172.251753 271.275075 
L 172.527709 272.144069 
L 172.584524 272.002602 
L 172.757673 270.683374 
L 173.066095 268.996115 
L 173.509789 268.32875 
L 173.54496 268.360784 
L 173.691055 268.72264 
L 173.967011 270.137052 
L 174.483753 272.698817 
L 174.597382 272.599463 
L 174.878749 272.383406 
L 175.030255 272.595814 
L 175.168233 272.944058 
L 175.230458 272.783783 
L 175.712029 271.431644 
L 175.820247 271.416699 
L 175.844596 271.44306 
L 176.001513 271.829591 
L 176.309935 273.312749 
L 176.577775 274.184269 
L 176.796916 274.661497 
L 176.859142 274.525635 
L 177.570676 271.882927 
L 177.814167 271.101678 
L 177.925091 271.173448 
L 178.495942 272.337501 
L 178.823302 273.753549 
L 179.618705 278.230167 
L 179.699869 277.782564 
L 180.146269 274.562489 
L 180.265309 274.510848 
L 180.292364 274.533926 
L 180.44928 274.863932 
L 180.754996 276.135397 
L 182.129367 282.45656 
L 182.207825 282.334996 
L 182.454022 281.19188 
L 183.225076 277.023131 
L 183.452335 274.609894 
L 183.760756 265.050168 
L 184.107055 258.109868 
L 184.566982 253.046968 
L 185.457076 248.32078 
L 185.605876 247.974572 
L 185.789847 245.491872 
L 186.119913 242.379137 
L 186.439156 240.747277 
L 186.509498 240.725689 
L 186.55008 240.779051 
L 186.747578 241.367467 
L 187.916335 246.213447 
L 187.986676 245.914363 
L 188.189585 243.795914 
L 188.803724 234.826203 
L 189.304233 228.525414 
L 189.574778 227.618899 
L 189.669469 227.540809 
L 189.715462 227.583193 
L 189.826385 227.526002 
L 189.940015 227.506072 
L 189.964364 227.539782 
L 190.086109 227.976796 
L 190.291724 229.731834 
L 190.735418 234.185915 
L 190.784116 234.050185 
L 190.876102 233.009074 
L 191.49024 224.441998 
L 191.798662 223.27925 
L 192.120611 222.310448 
L 192.396567 218.841889 
L 192.878138 210.38083 
L 193.051287 201.928727 
L 193.148684 184.599805 
L 193.194676 120.292769 
L 193.219025 78.092135 
L 193.289367 168.026574 
L 193.443578 223.834832 
L 193.681658 245.353907 
L 193.968436 254.300008 
L 194.144291 256.36194 
L 194.182167 256.231297 
L 194.915345 252.333808 
L 195.034385 252.169858 
L 195.074967 252.205989 
L 195.102022 252.232274 
L 195.134487 252.11018 
L 195.459142 249.272952 
L 195.994822 241.531649 
L 196.373585 237.72657 
L 196.530502 237.334724 
L 196.557556 237.350551 
L 196.663069 237.616653 
L 196.719884 237.757586 
L 196.779404 237.631661 
L 196.898444 236.874115 
L 197.150051 235.585031 
L 197.225804 235.697038 
L 197.371898 236.475657 
L 197.653265 239.441768 
L 198.00768 242.507958 
L 198.091549 242.725143 
L 198.140247 242.589152 
L 198.408087 241.691929 
L 198.451375 241.709229 
L 198.54336 241.623669 
L 198.786851 240.850143 
L 199.073629 238.889843 
L 199.501091 235.541407 
L 199.952902 233.094835 
L 200.504815 228.064987 
L 200.872756 218.026238 
L 201.081076 205.172744 
L 201.170356 183.701586 
L 201.208233 87.477907 
L 201.224465 61.581728 
L 201.294807 161.243316 
L 201.443607 237.215105 
L 201.630284 252.796893 
L 201.892713 257.202266 
L 202.068567 257.679044 
L 202.201135 257.560079 
L 202.417571 256.660647 
L 202.715171 253.56358 
L 203.072291 245.120793 
L 203.580916 233.423777 
L 203.924509 228.293141 
L 204.173411 227.156337 
L 204.246458 227.171804 
L 204.273513 227.215159 
L 204.392553 227.433469 
L 204.449367 227.320329 
L 204.579229 226.497036 
L 204.968815 221.668154 
L 205.401687 211.225057 
L 205.59648 201.303864 
L 205.691171 183.145882 
L 205.737164 113.620108 
L 205.758807 82.374379 
L 205.826444 173.012111 
L 205.98336 227.512009 
L 206.205207 243.904097 
L 206.643491 258.525532 
L 207.062836 265.913522 
L 207.433484 269.273546 
L 207.728378 269.515162 
L 207.982691 269.516818 
L 208.169367 269.833723 
L 208.315462 270.170156 
L 208.361455 270.016389 
L 208.469673 268.563904 
L 208.845731 263.68882 
L 209.194735 261.46498 
L 210.044247 248.478994 
L 210.455476 246.166693 
L 210.609687 245.980358 
L 210.634036 245.995865 
L 210.755782 246.251673 
L 210.974924 247.361849 
L 211.299578 249.534906 
L 211.375331 249.282689 
L 211.859607 247.106752 
L 211.989469 247.129466 
L 211.99488 247.136073 
L 212.159913 247.524312 
L 212.443985 248.867138 
L 212.627956 249.77074 
L 212.684771 249.631371 
L 212.876858 248.282362 
L 213.174458 246.76447 
L 213.258327 246.742404 
L 213.296204 246.787798 
L 213.439593 247.237454 
L 213.707433 248.698471 
L 213.821062 248.459556 
L 214.105135 248.021977 
L 214.305338 247.585448 
L 214.689513 245.9345 
L 215.593135 238.204419 
L 215.622895 238.21871 
L 215.733818 238.465455 
L 215.942138 239.607217 
L 216.618502 243.695043 
L 216.788945 243.94857 
L 216.861993 243.833988 
L 216.9648 243.768678 
L 217.002676 243.812057 
L 217.132538 244.246804 
L 217.386851 246.064515 
L 217.898182 249.601863 
L 218.325644 251.996028 
L 218.387869 251.845211 
L 219.061527 249.369654 
L 219.16704 249.320385 
L 219.202211 249.355558 
L 219.359127 249.759537 
L 219.948916 251.569614 
L 220.135593 251.944404 
L 220.249222 251.80491 
L 220.3872 251.197631 
L 220.546822 249.772299 
L 220.9824 244.10156 
L 221.152844 242.599439 
L 221.499142 239.978841 
L 221.615476 239.855503 
L 221.653353 239.88712 
L 221.945542 240.443088 
L 222.237731 241.468809 
L 222.621905 243.537936 
L 222.905978 244.645527 
L 222.911389 244.643837 
L 222.965498 244.464607 
L 223.365905 242.76369 
L 223.39296 242.777151 
L 223.506589 243.017469 
L 223.714909 244.10332 
L 223.885353 244.765359 
L 223.923229 244.735549 
L 224.036858 244.396845 
L 224.277644 242.207066 
L 225.070342 232.586762 
L 225.814342 220.916004 
L 225.992902 220.456561 
L 226.009135 220.464281 
L 226.103825 220.670016 
L 226.274269 221.711228 
L 227.058851 229.406307 
L 227.513367 233.462644 
L 227.691927 233.746314 
L 227.735215 233.621824 
L 227.897542 231.978873 
L 228.254662 229.306366 
L 228.554967 226.888163 
L 229.718313 215.258134 
L 229.932044 208.028391 
L 230.064611 195.434521 
L 230.126836 163.67363 
L 230.167418 71.695187 
L 230.235055 159.7942 
L 230.38656 226.129011 
L 230.611113 247.929348 
L 230.938473 258.918213 
L 231.206313 261.977341 
L 231.539084 263.773318 
L 231.555316 263.766214 
L 231.639185 263.559681 
L 231.75552 262.265913 
L 232.456233 253.676687 
L 232.902633 252.665205 
L 232.908044 252.667326 
L 232.991913 252.588071 
L 233.430196 251.943828 
L 233.549236 252.009995 
L 233.790022 252.459386 
L 234.060567 253.182725 
L 234.125498 253.114688 
L 234.325702 252.932186 
L 234.355462 252.95936 
L 234.490735 253.302812 
L 234.745047 254.716736 
L 234.818095 254.967887 
L 234.874909 254.81969 
L 235.38624 251.984474 
L 235.708189 250.187491 
L 235.800175 250.15585 
L 235.835345 250.192969 
L 235.98144 250.593151 
L 236.246575 252.091226 
L 236.698385 256.103732 
L 237.353105 261.616414 
L 237.40992 261.714836 
L 237.464029 261.61639 
L 238.002415 259.618309 
L 238.254022 258.71775 
L 238.351418 258.804104 
L 238.516451 259.380637 
L 238.781585 260.618973 
L 238.862749 260.525056 
L 239.071069 260.351778 
L 239.087302 260.363567 
L 239.22528 260.629857 
L 239.46336 261.681675 
L 239.712262 262.441127 
L 239.942225 263.140345 
L 240.293935 265.116471 
L 240.648349 267.0634 
L 240.688931 267.010035 
L 240.856669 266.302459 
L 241.30848 264.658205 
L 241.527622 264.538992 
L 241.760291 264.337788 
L 241.90368 264.538404 
L 242.139055 265.343084 
L 242.404189 266.405892 
L 242.455593 266.247758 
L 242.999389 262.475541 
L 243.42144 258.462901 
L 243.71904 257.242069 
L 243.83808 257.197397 
L 243.865135 257.222755 
L 244.013935 257.569766 
L 244.281775 258.876554 
L 244.812044 262.797189 
L 245.220567 265.612474 
L 245.261149 265.570953 
L 245.391011 265.081847 
L 245.837411 262.370152 
L 246.105251 259.336314 
L 246.787025 250.953179 
L 246.954764 250.753678 
L 246.979113 250.769097 
L 247.295651 251.186604 
L 247.330822 251.227316 
L 247.384931 251.11192 
L 247.506676 250.281558 
L 248.155985 243.451621 
L 248.164102 243.453626 
L 248.250676 243.608008 
L 248.431942 244.543152 
L 248.699782 245.288877 
L 248.908102 245.852336 
L 248.940567 245.715071 
L 249.1056 243.394843 
L 249.781964 235.373669 
L 249.925353 235.020068 
L 249.957818 235.045571 
L 250.068742 235.388061 
L 250.279767 236.921864 
L 250.672058 241.709063 
L 251.670371 255.369222 
L 251.729891 255.142664 
L 252.054545 253.816867 
L 252.057251 253.817411 
L 252.154647 253.957083 
L 252.335913 254.733044 
L 252.687622 257.419081 
L 253.193542 260.964087 
L 253.282822 261.005171 
L 253.315287 260.936867 
L 253.466793 260.023422 
L 253.970007 257.112034 
L 254.145862 256.883698 
L 254.162095 256.891596 
L 254.286545 257.10107 
L 254.459695 257.687249 
L 254.546269 257.489138 
L 254.678836 257.328438 
L 254.714007 257.357724 
L 254.843869 257.702747 
L 255.100887 259.158961 
L 255.495884 261.148572 
L 255.644684 261.370568 
L 255.850298 262.206354 
L 256.245295 263.733863 
L 256.580771 264.528372 
L 256.667345 264.312401 
L 256.854022 263.078602 
L 257.132684 259.410285 
L 257.435695 256.676149 
L 257.622371 256.406081 
L 257.714356 256.120634 
L 258.136407 254.640005 
L 258.404247 254.392592 
L 258.42048 254.405174 
L 258.555753 254.678973 
L 258.785716 255.765496 
L 258.972393 256.841274 
L 259.029207 256.571734 
L 260.14656 249.151788 
L 260.538851 246.551806 
L 260.904087 242.228596 
L 260.996073 242.089591 
L 261.047476 242.136017 
L 261.347782 242.63209 
L 261.588567 243.963835 
L 262.17024 248.081075 
L 263.444509 258.7419 
L 263.601425 258.924341 
L 263.733993 259.172457 
L 263.945018 260.178826 
L 264.37248 263.556361 
L 265.481716 272.447074 
L 265.903767 273.68883 
L 265.963287 273.653079 
L 266.112087 273.393427 
L 266.233833 272.595365 
L 266.666705 269.768501 
L 266.883142 268.942074 
L 267.164509 266.07904 
L 267.681251 261.402531 
L 268.084364 258.714001 
L 268.411724 256.92154 
L 268.427956 256.927572 
L 268.5984 257.173517 
L 268.790487 257.488256 
L 268.898705 257.74715 
L 268.941993 257.609997 
L 269.098909 255.994474 
L 269.61024 251.483129 
L 269.66976 251.487785 
L 269.704931 251.54312 
L 269.767156 251.591007 
L 269.823971 251.534055 
L 269.915956 251.511265 
L 269.948422 251.555337 
L 270.080989 252.029279 
L 270.968378 257.224378 
L 271.344436 260.242166 
L 271.390429 260.208018 
L 271.623098 260.007031 
L 271.655564 260.042442 
L 271.801658 260.443962 
L 272.015389 260.855756 
L 272.161484 260.961999 
L 272.334633 261.488031 
L 273.473629 266.880727 
L 274.672145 276.429706 
L 274.774953 276.253984 
L 274.923753 276.139414 
L 274.948102 276.156961 
L 275.099607 276.444932 
L 275.41344 277.634727 
L 275.559535 278.253195 
L 275.616349 278.047812 
L 275.773265 275.709842 
L 276.211549 269.937014 
L 276.430691 269.299797 
L 276.538909 269.385779 
L 276.720175 269.931402 
L 277.231505 271.790618 
L 277.261265 271.706038 
L 277.642735 270.039275 
L 277.702255 270.088602 
L 277.85376 270.500719 
L 278.173004 271.291003 
L 278.375913 271.856408 
L 278.700567 272.681528 
L 278.857484 272.849554 
L 279.07392 273.516376 
L 280.050589 277.015864 
L 280.440175 277.182862 
L 280.694487 277.864068 
L 281.208524 280.034636 
L 281.479069 281.016677 
L 281.522356 280.969763 
L 281.606225 280.384781 
L 281.949818 278.167459 
L 282.087796 278.07879 
L 282.10944 278.093414 
L 282.285295 278.386935 
L 282.320465 278.412546 
L 282.355636 278.303164 
L 282.509847 276.82922 
L 283.654255 266.132873 
L 283.816582 266.10117 
L 284.092538 265.77692 
L 284.298153 265.390526 
L 284.322502 265.40506 
L 284.441542 265.655512 
L 284.671505 266.781254 
L 285.545367 272.050432 
L 285.596771 271.866719 
L 286.919738 263.748669 
L 287.052305 263.529549 
L 287.087476 263.555995 
L 287.225455 263.904671 
L 287.425658 264.368204 
L 287.468945 264.286973 
L 287.577164 263.621424 
L 287.890996 261.915696 
L 287.969455 261.941801 
L 287.991098 261.977405 
L 288.142604 262.509306 
L 288.44832 264.577495 
L 289.449338 273.079455 
L 289.587316 272.9367 
L 289.714473 272.980092 
L 289.8768 273.407428 
L 290.003956 273.825818 
L 290.066182 273.689575 
L 290.260975 272.614851 
L 291.034735 265.188762 
L 291.202473 264.846378 
L 291.221411 264.855372 
L 291.33504 265.075979 
L 291.491956 265.667469 
L 291.567709 265.437361 
L 291.765207 264.977214 
L 291.786851 264.988849 
L 291.897775 265.229171 
L 292.116916 266.375104 
L 293.03136 271.760766 
L 293.218036 271.966674 
L 293.385775 272.285799 
L 293.645498 273.390897 
L 293.718545 273.647849 
L 293.778065 273.514452 
L 293.932276 272.499934 
L 294.273164 270.595313 
L 294.359738 270.212575 
L 295.214662 259.537386 
L 295.44192 257.942622 
L 296.120989 256.996632 
L 296.148044 257.020972 
L 296.283316 257.354533 
L 296.591738 258.081265 
L 296.745949 258.191932 
L 296.786531 258.157323 
L 296.913687 258.155818 
L 296.92992 258.178272 
L 297.067898 258.602619 
L 297.330327 260.293091 
L 297.779433 263.50864 
L 297.833542 263.40958 
L 298.106793 262.769768 
L 298.144669 262.797604 
L 298.277236 263.123451 
L 298.526138 264.457735 
L 299.164625 268.159394 
L 299.183564 268.154132 
L 299.308015 267.985118 
L 299.957324 265.886874 
L 299.992495 265.909857 
L 300.563345 266.651301 
L 300.628276 266.786001 
L 300.685091 266.677124 
L 301.485905 264.559124 
L 301.596829 264.509261 
L 301.629295 264.541455 
L 301.772684 264.919625 
L 302.043229 266.404503 
L 302.538327 269.005155 
L 302.711476 269.48851 
L 302.844044 269.897949 
L 302.903564 269.807095 
L 303.055069 269.136968 
L 303.588044 264.624936 
L 303.807185 264.428745 
L 303.820713 264.43759 
L 303.955985 264.683888 
L 304.759505 266.903116 
L 304.794676 266.75958 
L 305.186967 264.45304 
L 305.224844 264.478176 
L 305.349295 264.800122 
L 305.600902 266.211973 
L 306.104116 268.942113 
L 306.51264 270.657376 
L 306.574865 270.483261 
L 306.729076 268.889959 
L 307.527185 258.80033 
L 308.127796 256.160671 
L 308.614778 250.708294 
L 308.750051 250.590685 
L 308.771695 250.602047 
L 308.915084 250.832177 
L 308.928611 250.849753 
L 308.971898 250.695453 
L 309.461585 247.130667 
L 309.702371 245.616701 
L 309.75648 245.629012 
L 309.788945 245.688747 
L 309.929629 246.322954 
L 310.224524 248.916435 
L 310.538356 250.86509 
L 310.554589 250.863406 
L 310.592465 250.766521 
L 310.825135 250.188438 
L 310.863011 250.217164 
L 310.984756 250.552159 
L 311.217425 251.993469 
L 311.739578 257.007471 
L 311.912727 257.956635 
L 311.947898 257.865418 
L 312.497105 254.877996 
L 312.754124 253.475573 
L 312.824465 253.467302 
L 312.862342 253.520409 
L 313.005731 254.032112 
L 313.284393 256.028951 
L 313.576582 257.988864 
L 313.609047 257.920573 
L 313.879593 257.052891 
L 313.939113 257.120717 
L 314.085207 257.658475 
L 314.377396 259.775319 
L 314.802153 262.525257 
L 314.972596 263.175755 
L 315.302662 265.537665 
L 315.895156 269.578327 
L 316.052073 269.81906 
L 316.111593 269.755437 
L 316.295564 269.640183 
L 316.317207 269.659644 
L 316.463302 269.982891 
L 316.741964 271.265775 
L 317.323636 274.675294 
L 317.418327 274.455776 
L 317.788975 272.649381 
L 318.286778 268.711312 
L 318.676364 265.211058 
L 318.811636 265.035096 
L 318.841396 265.053809 
L 319.01184 265.084909 
L 319.022662 265.068304 
L 319.128175 264.581837 
L 319.404131 263.629705 
L 319.504233 263.71809 
L 319.674676 264.294543 
L 320.012858 266.395708 
L 320.115665 266.93532 
L 320.17248 266.732408 
L 320.881309 263.174712 
L 320.913775 263.191338 
L 321.038225 263.445001 
L 321.327709 264.127991 
L 321.365585 264.113309 
L 321.544145 264.156204 
L 321.709178 264.539524 
L 321.806575 264.809886 
L 321.866095 264.685058 
L 322.288145 263.2654 
L 322.350371 263.318731 
L 322.504582 263.736081 
L 322.542458 263.835822 
L 322.58304 263.624838 
L 322.683142 261.271142 
L 323.183651 248.740159 
L 323.56512 246.010942 
L 323.578647 246.016338 
L 323.924945 246.12356 
L 324.092684 246.116004 
L 324.225251 246.153798 
L 324.2496 246.12921 
L 324.490385 246.026318 
L 324.604015 245.971197 
L 324.752815 245.962671 
L 324.763636 245.975828 
L 324.90432 246.34464 
L 325.139695 247.720067 
L 325.556335 251.729952 
L 325.991913 255.325312 
L 326.284102 256.087377 
L 326.573585 257.849416 
L 327.095738 261.79958 
L 327.206662 261.774523 
L 327.322996 261.927358 
L 327.512378 262.659494 
L 327.785629 263.596472 
L 327.799156 263.580807 
L 327.885731 263.127373 
L 328.345658 260.620248 
L 328.44576 260.714674 
L 328.616204 261.315238 
L 328.783942 262.102325 
L 328.843462 261.886444 
L 329.192465 259.973355 
L 329.214109 259.984177 
L 329.319622 260.217137 
L 329.536058 261.376477 
L 329.760611 262.724435 
L 329.817425 262.566058 
L 330.136669 260.597025 
L 330.445091 257.840836 
L 330.526255 257.761358 
L 330.574953 257.815337 
L 330.712931 258.294951 
L 330.997004 260.266876 
L 331.581382 265.38079 
L 331.678778 265.08272 
L 331.960145 263.447552 
L 332.793425 254.135799 
L 332.944931 254.006338 
L 332.953047 254.00917 
L 333.172189 254.202893 
L 333.353455 254.799583 
L 334.730531 261.719751 
L 334.941556 262.346499 
L 335.120116 262.619787 
L 335.155287 262.699384 
L 335.193164 262.512655 
L 335.539462 260.516763 
L 335.547578 260.518474 
L 335.642269 260.667291 
L 335.896582 261.037208 
L 336.058909 261.442965 
L 336.159011 261.771124 
L 336.207709 261.587156 
L 336.402502 259.531732 
L 336.68928 257.361988 
L 337.035578 256.51756 
L 337.049105 256.523147 
L 337.16544 256.718181 
L 337.371055 257.618312 
L 337.801222 259.917177 
L 337.868858 259.860258 
L 338.312553 259.28485 
L 338.399127 259.388083 
L 338.718371 259.949812 
L 338.818473 260.232266 
L 338.875287 260.089841 
L 339.354153 257.74094 
L 339.473193 255.789739 
L 339.759971 252.442269 
L 340.000756 251.955787 
L 340.092742 252.03499 
L 340.165789 252.141768 
L 340.222604 252.059525 
L 340.384931 251.867198 
L 340.420102 251.901121 
L 340.547258 252.281646 
L 340.785338 253.862263 
L 341.321018 259.305011 
L 341.596975 260.873889 
L 341.948684 263.216137 
L 342.340975 265.459811 
L 343.160727 267.784902 
L 343.247302 267.9317 
L 343.298705 267.867985 
L 343.658531 267.251635 
L 343.707229 267.293697 
L 343.869556 267.67286 
L 344.021062 268.060506 
L 344.083287 268.006661 
L 344.356538 267.523185 
L 345.149236 261.791642 
L 345.495535 257.260579 
L 345.709265 256.805107 
L 345.8256 256.866834 
L 346.155665 257.523597 
L 346.24224 257.366439 
L 346.363985 256.463109 
L 346.753571 251.811151 
L 347.083636 247.489672 
L 347.191855 247.274981 
L 347.235142 247.320665 
L 347.359593 247.787123 
L 347.446167 248.079712 
L 347.502982 247.961064 
L 347.716713 247.407922 
L 347.762705 247.454777 
L 347.887156 247.901513 
L 348.133353 249.392908 
L 348.190167 248.932828 
L 348.739375 242.643034 
L 348.747491 242.644739 
L 348.828655 242.792204 
L 348.993687 243.697955 
L 349.678167 249.682706 
L 350.31936 254.710907 
L 350.792815 257.237026 
L 351.393425 260.261073 
L 351.769484 261.955289 
L 351.861469 261.567282 
L 352.040029 259.255054 
L 352.410676 254.087019 
L 352.664989 253.24241 
L 352.816495 252.974692 
L 352.84896 252.997734 
L 352.965295 253.300028 
L 353.189847 254.645696 
L 353.663302 259.143997 
L 355.245993 274.67043 
L 355.273047 274.708114 
L 355.321745 274.553578 
L 355.814138 272.188277 
L 355.860131 272.214476 
L 356.008931 272.511271 
L 356.192902 273.031839 
L 356.268655 272.930818 
L 356.349818 272.551527 
L 356.706938 270.319714 
L 356.796218 270.332617 
L 356.820567 270.366042 
L 356.982895 270.8401 
L 357.250735 271.468095 
L 357.480698 271.583567 
L 357.680902 272.062539 
L 358.013673 273.552396 
L 359.12832 279.178292 
L 359.15808 279.117992 
L 359.296058 278.158882 
L 359.918313 272.891098 
L 360.121222 272.535665 
L 360.242967 272.68147 
L 360.386356 273.044006 
L 360.445876 272.864366 
L 360.762415 271.874729 
L 360.76512 271.875367 
L 360.876044 272.019198 
L 361.084364 272.76081 
L 361.384669 274.261793 
L 361.455011 273.980979 
L 361.852713 271.998707 
L 361.920349 271.785334 
L 362.098909 269.996639 
L 362.380276 268.201902 
L 362.4912 268.1179 
L 362.526371 268.148054 
L 362.683287 268.474676 
L 362.721164 268.231096 
L 363.454342 260.936523 
L 363.475985 260.944339 
L 363.65184 261.202694 
L 363.922385 261.790956 
L 364.00896 261.545114 
L 364.552756 259.488522 
L 364.609571 259.54852 
L 364.750255 260.043849 
L 365.039738 262.059953 
L 365.629527 266.096931 
L 365.726924 266.210234 
L 365.759389 266.112986 
L 366.849687 260.696361 
L 366.911913 260.756094 
L 367.060713 261.220408 
L 367.212218 261.934179 
L 367.274444 261.671443 
L 367.631564 259.92637 
L 367.815535 259.910956 
L 367.856116 259.816684 
L 368.426967 257.649473 
L 368.432378 257.650875 
L 368.529775 257.802255 
L 368.71104 258.61845 
L 370.261265 267.324822 
L 370.502051 268.516254 
L 371.072902 272.442117 
L 371.186531 272.127056 
L 371.797964 270.045137 
L 371.935942 269.581172 
L 372.0144 268.741361 
L 372.320116 265.846484 
L 372.406691 265.757639 
L 372.452684 265.805908 
L 372.650182 266.129773 
L 372.715113 266.037696 
L 372.955898 265.768219 
L 372.972131 265.779087 
L 373.058705 265.809769 
L 373.093876 265.743392 
L 373.534865 264.323103 
L 373.732364 263.726805 
L 373.74048 263.729321 
L 373.837876 263.891213 
L 374.032669 264.766944 
L 374.441193 267.846844 
L 374.589993 268.745861 
L 374.649513 268.688268 
L 374.828073 268.633317 
L 374.909236 268.540799 
L 375.014749 267.844629 
L 375.450327 264.777931 
L 375.596422 264.153299 
L 375.788509 263.710754 
L 375.804742 263.717455 
L 375.91296 263.916094 
L 376.3296 265.172345 
L 376.399942 265.033388 
L 376.708364 264.225812 
L 376.74624 264.252593 
L 376.876102 264.566137 
L 377.122298 265.87676 
L 377.660684 270.246849 
L 377.974516 272.561129 
L 378.023215 272.476676 
L 378.134138 271.652223 
L 378.507491 269.0967 
L 378.699578 268.452865 
L 378.989062 266.909179 
L 379.06752 266.925534 
L 379.091869 266.961804 
L 379.24608 267.465374 
L 380.339084 272.718412 
L 380.431069 272.393124 
L 380.750313 271.277205 
L 380.858531 271.369035 
L 381.039796 271.938055 
L 381.066851 272.011816 
L 381.107433 271.764908 
L 381.56736 265.207268 
L 381.897425 262.245183 
L 382.349236 261.146965 
L 382.465571 261.156596 
L 382.481804 261.177216 
L 382.630604 261.582655 
L 382.895738 263.08854 
L 383.455767 267.854199 
L 384.500073 276.478914 
L 384.546065 276.557981 
L 384.589353 276.412759 
L 385.476742 271.977667 
L 385.601193 272.059541 
L 385.787869 272.556376 
L 385.928553 273.103924 
L 385.982662 272.868737 
L 386.318138 271.305878 
L 386.521047 271.190498 
L 386.664436 271.170995 
L 386.677964 271.184787 
L 386.756422 271.209466 
L 386.783476 271.147014 
L 386.902516 270.195875 
L 387.194705 268.442129 
L 387.28128 268.405304 
L 387.321862 268.449487 
L 387.397615 268.551712 
L 387.446313 268.44591 
L 387.589702 267.452265 
L 387.903535 265.769605 
L 388.000931 265.729203 
L 388.036102 265.764571 
L 388.184902 266.15485 
L 388.249833 266.275355 
L 388.301236 266.157472 
L 388.498735 264.885276 
L 388.937018 262.289407 
L 389.034415 262.269749 
L 389.064175 262.302348 
L 389.102051 262.342005 
L 389.139927 262.22006 
L 389.253556 261.048827 
L 389.664785 256.960491 
L 389.767593 256.818805 
L 389.81088 256.86001 
L 389.940742 257.274334 
L 390.251869 259.253565 
L 390.814604 262.321294 
L 390.920116 262.157093 
L 391.063505 262.032441 
L 391.093265 262.058249 
L 391.223127 262.391597 
L 391.466618 263.777457 
L 392.443287 269.979172 
L 392.537978 270.16516 
L 392.586676 270.127613 
L 392.670545 269.856406 
L 393.041193 268.439303 
L 393.149411 268.56285 
L 393.341498 269.23504 
L 393.969164 272.146441 
L 394.042211 271.996673 
L 394.39392 271.197627 
L 394.399331 271.199438 
L 394.526487 271.368507 
L 395.219084 272.93504 
L 395.308364 272.851297 
L 395.551855 272.440319 
L 395.849455 270.740699 
L 396.688145 263.430432 
L 396.74496 263.472502 
L 396.888349 263.86298 
L 397.183244 265.479775 
L 397.348276 265.965533 
L 397.383447 265.942663 
L 397.632349 265.519816 
L 398.308713 261.141729 
L 398.32224 261.145259 
L 398.427753 261.311033 
L 398.487273 261.501232 
L 398.487273 261.501232 
" clip-path="url(#p328643e4f0)" style="fill: none; stroke: #000000; stroke-width: 1.5; stroke-linecap: square"/>
   </g>
   <g id="line2d_17">
    <path d="M 73.832727 280.9728 
L 73.970705 281.937016 
L 74.490153 283.823031 
L 74.925731 284.762092 
L 74.941964 284.746701 
L 75.03936 284.377973 
L 75.420829 283.034584 
L 75.637265 282.921201 
L 75.734662 282.839642 
L 75.818531 281.863285 
L 76.221644 273.029942 
L 76.508422 268.982086 
L 76.700509 268.44281 
L 76.70592 268.443882 
L 76.808727 268.589725 
L 77.008931 269.380056 
L 77.460742 272.29257 
L 77.596015 272.977225 
L 77.650124 272.865848 
L 78.023476 271.87882 
L 78.042415 271.887143 
L 78.174982 272.093765 
L 78.634909 273.012244 
L 78.659258 272.991697 
L 78.786415 272.63968 
L 79.059665 272.081405 
L 79.608873 272.215413 
L 79.855069 272.98726 
L 80.377222 275.546405 
L 80.883142 278.057028 
L 80.937251 277.926442 
L 81.43776 275.646055 
L 81.7056 272.427614 
L 81.959913 271.047689 
L 82.076247 270.981625 
L 82.108713 271.008609 
L 82.398196 271.265203 
L 82.438778 271.212844 
L 82.606516 270.682141 
L 82.771549 269.694144 
L 83.050211 268.396319 
L 83.150313 268.388799 
L 83.177367 268.419981 
L 83.339695 268.838821 
L 83.572364 269.669171 
L 83.656233 269.576364 
L 83.813149 269.560385 
L 84.251433 269.833988 
L 84.292015 269.691857 
L 84.573382 268.860393 
L 84.581498 268.862631 
L 84.695127 269.023678 
L 84.841222 269.263398 
L 84.881804 269.183133 
L 85.073891 268.015275 
L 85.284916 267.485732 
L 85.390429 267.612686 
L 85.587927 268.315058 
L 85.780015 268.681465 
L 85.907171 268.664341 
L 85.920698 268.629012 
L 86.055971 267.906226 
L 86.864902 262.982486 
L 87.054284 262.69437 
L 87.065105 262.698824 
L 87.184145 262.884851 
L 87.397876 263.739419 
L 87.819927 266.541915 
L 88.726255 272.53017 
L 88.769542 272.540246 
L 88.815535 272.469593 
L 89.215942 271.350065 
L 89.881484 267.438332 
L 90.09792 266.481906 
L 90.422575 264.89948 
L 90.639011 264.546409 
L 90.763462 263.533305 
L 91.066473 261.361632 
L 91.153047 261.305169 
L 91.196335 261.3502 
L 91.342429 261.783642 
L 91.910575 264.054491 
L 91.9728 263.976918 
L 92.18112 263.75758 
L 92.205469 263.775793 
L 92.275811 263.816748 
L 92.319098 263.734628 
L 92.889949 262.36626 
L 92.935942 262.403221 
L 93.082036 262.758972 
L 93.474327 263.744102 
L 93.593367 263.663262 
L 93.712407 263.340276 
L 94.754007 258.033134 
L 95.024553 257.500245 
L 95.138182 257.621471 
L 95.194996 257.659267 
L 95.240989 257.580465 
L 95.847011 256.249453 
L 95.971462 256.402895 
L 96.187898 256.611926 
L 96.279884 256.504261 
L 96.639709 255.189364 
L 96.70464 255.25653 
L 96.858851 255.757628 
L 97.38912 257.99267 
L 97.429702 257.861232 
L 97.554153 256.437989 
L 97.851753 253.451289 
L 97.959971 253.294752 
L 98.003258 253.333801 
L 98.135825 253.732342 
L 98.406371 255.405753 
L 99.342458 261.648169 
L 99.569716 262.807878 
L 99.642764 262.694394 
L 99.813207 262.529057 
L 99.837556 262.546578 
L 99.975535 262.830265 
L 100.237964 263.997012 
L 100.267724 264.121007 
L 100.316422 263.837586 
L 100.638371 259.858237 
L 101.003607 256.088768 
L 101.133469 255.897391 
L 101.16864 255.921721 
L 101.306618 256.240459 
L 101.874764 257.702717 
L 101.915345 257.647452 
L 102.096611 256.946785 
L 102.432087 254.645811 
L 103.062458 245.901417 
L 103.216669 245.846709 
L 103.235607 245.865601 
L 103.376291 246.20503 
L 103.806458 247.972061 
L 104.109469 249.16823 
L 104.120291 249.164602 
L 104.361076 248.922719 
L 104.807476 248.410785 
L 104.821004 248.421753 
L 104.9184 248.509749 
L 104.958982 248.40631 
L 105.521716 246.171176 
L 105.613702 246.309721 
L 105.889658 247.372002 
L 106.184553 248.614988 
L 106.576844 250.765003 
L 106.649891 250.731675 
L 106.787869 250.78756 
L 106.963724 250.85221 
L 107.101702 250.94625 
L 107.255913 251.303598 
L 107.342487 251.148796 
L 107.442589 251.078009 
L 107.483171 251.120764 
L 107.824058 251.68322 
L 107.899811 251.582722 
L 108.243404 250.773476 
L 108.497716 249.992107 
L 108.595113 250.093394 
L 109.547433 252.395272 
L 109.958662 254.308883 
L 111.28704 261.784612 
L 111.692858 262.276092 
L 111.725324 262.091388 
L 112.223127 258.392226 
L 112.231244 258.393925 
L 112.336756 258.544798 
L 112.53696 259.331125 
L 113.026647 261.281607 
L 113.22144 261.416402 
L 113.264727 261.332875 
L 113.37024 260.738193 
L 114.027665 253.852153 
L 114.38208 250.785119 
L 114.771665 249.786858 
L 114.844713 249.774379 
L 114.888 249.817079 
L 115.150429 249.912988 
L 115.169367 249.867835 
L 115.293818 249.058188 
L 116.056756 243.883104 
L 116.335418 242.96716 
L 116.706065 240.788423 
L 116.789935 240.904174 
L 116.927913 241.331887 
L 116.992844 241.145355 
L 117.193047 240.648372 
L 117.222807 240.668138 
L 117.333731 240.963249 
L 117.544756 242.308647 
L 118.139956 247.862411 
L 118.237353 247.161684 
L 118.616116 244.275044 
L 118.848785 243.345121 
L 118.854196 243.346268 
L 118.940771 243.494158 
L 119.122036 244.405356 
L 119.687476 248.474214 
L 120.087884 251.167534 
L 120.388189 251.151559 
L 120.547811 251.056077 
L 120.57216 251.079027 
L 120.707433 251.412526 
L 120.950924 252.738356 
L 121.52448 255.92032 
L 121.922182 256.432175 
L 122.222487 258.011521 
L 122.912378 261.532547 
L 123.099055 261.907468 
L 123.142342 261.688009 
L 123.264087 259.404682 
L 123.880931 246.971125 
L 124.384145 244.510349 
L 124.47072 244.604732 
L 124.624931 245.252766 
L 125.501498 249.713078 
L 125.647593 249.735027 
L 125.785571 249.807505 
L 125.937076 250.269677 
L 126.61344 252.795069 
L 126.832582 252.942005 
L 126.867753 252.778807 
L 127.433193 249.09602 
L 127.50624 249.185359 
L 127.668567 249.823476 
L 127.903942 250.386245 
L 128.096029 250.824284 
L 128.358458 252.171834 
L 128.718284 254.486379 
L 128.799447 254.324774 
L 129.045644 253.809077 
L 129.072698 253.825802 
L 129.191738 254.092536 
L 129.416291 255.276418 
L 129.892451 257.971437 
L 129.922211 257.95406 
L 130.149469 257.593979 
L 130.355084 257.386674 
L 130.365905 257.392822 
L 130.495767 257.610532 
L 130.782545 258.420948 
L 130.844771 258.238069 
L 131.234356 255.649884 
L 131.467025 254.533032 
L 131.542778 254.548373 
L 131.569833 254.589894 
L 131.981062 255.317602 
L 132.035171 255.23728 
L 132.162327 254.718977 
L 132.546502 252.263348 
L 132.635782 252.360965 
L 132.795404 253.005552 
L 133.36896 255.842876 
L 133.409542 255.798856 
L 133.558342 255.660112 
L 133.596218 255.700623 
L 133.734196 256.116936 
L 134.010153 257.819734 
L 134.199535 258.408894 
L 134.348335 258.541534 
L 134.994938 259.941931 
L 135.062575 259.729617 
L 135.200553 258.37074 
L 135.549556 255.262282 
L 135.952669 254.318649 
L 136.071709 254.371908 
L 136.22592 254.82602 
L 136.507287 256.502244 
L 136.718313 257.785303 
L 136.777833 257.688301 
L 137.013207 257.273727 
L 137.045673 257.297679 
L 137.172829 257.600791 
L 137.41632 258.890581 
L 137.546182 259.557065 
L 137.600291 259.384301 
L 137.827549 257.453736 
L 138.141382 255.582956 
L 138.238778 255.519223 
L 138.27936 255.559204 
L 138.769047 256.438401 
L 138.842095 256.193804 
L 139.20192 254.807405 
L 139.210036 254.809887 
L 139.312844 254.973315 
L 139.504931 255.815766 
L 140.037905 258.267105 
L 140.349033 260.01219 
L 141.144436 265.76951 
L 141.233716 265.30578 
L 141.853265 260.936515 
L 141.866793 260.940383 
L 142.023709 261.132834 
L 142.066996 261.132206 
L 142.104873 261.061249 
L 142.2672 260.306815 
L 142.865105 257.589672 
L 142.98144 257.657884 
L 143.176233 258.182443 
L 143.48736 259.757792 
L 143.830953 261.769688 
L 143.906705 261.664129 
L 143.987869 261.046252 
L 144.288175 259.147367 
L 144.372044 259.114286 
L 144.412625 259.159192 
L 144.564131 259.600318 
L 144.875258 261.345487 
L 145.194502 263.137439 
L 145.237789 263.032044 
L 145.356829 261.953443 
L 145.727476 258.795671 
L 145.86816 258.604574 
L 145.89792 258.623189 
L 146.027782 258.898614 
L 146.268567 259.755798 
L 146.352436 259.570536 
L 146.636509 258.896344 
L 146.658153 258.907122 
L 146.777193 259.129851 
L 147.004451 260.141422 
L 147.496844 262.303004 
L 147.618589 262.428467 
L 147.664582 262.342684 
L 148.016291 261.605542 
L 148.046051 261.624772 
L 148.205673 261.621157 
L 148.42752 261.565906 
L 148.579025 261.889908 
L 148.722415 262.230371 
L 148.768407 262.133006 
L 148.922618 261.019327 
L 149.601687 256.543158 
L 149.7072 256.437395 
L 149.747782 256.473432 
L 149.88576 256.854671 
L 149.991273 257.208045 
L 150.056204 257.081733 
L 150.261818 256.722762 
L 150.288873 256.740989 
L 150.410618 257.01672 
L 150.648698 258.243152 
L 151.252015 262.889503 
L 151.876975 267.021638 
L 151.958138 266.923654 
L 152.374778 265.446955 
L 152.437004 265.495087 
L 152.604742 265.888306 
L 152.832 266.257214 
L 153.078196 266.07968 
L 153.202647 265.38781 
L 153.662575 262.059041 
L 153.865484 260.695647 
L 154.306473 254.290411 
L 154.560785 252.04098 
L 154.652771 251.935506 
L 154.698764 251.984684 
L 154.836742 252.444649 
L 155.126225 254.359339 
L 155.843171 259.179789 
L 156.065018 259.727912 
L 156.140771 259.675557 
L 156.211113 259.433062 
L 156.524945 258.405735 
L 156.630458 258.537287 
L 156.825251 259.246739 
L 156.928058 259.52527 
L 156.979462 259.460513 
L 157.35552 258.68639 
L 157.420451 258.748188 
L 157.590895 259.19389 
L 157.912844 260.791077 
L 158.391709 262.971049 
L 158.578385 263.106925 
L 158.716364 263.313264 
L 158.765062 263.200634 
L 158.938211 262.081484 
L 159.763375 256.730326 
L 159.790429 256.741829 
L 159.912175 256.970595 
L 160.372102 257.976275 
L 160.534429 258.247256 
L 160.791447 259.215836 
L 161.405585 262.480148 
L 161.508393 262.09823 
L 161.773527 259.837773 
L 162.501295 250.955825 
L 162.687971 250.257761 
L 162.877353 249.884038 
L 162.896291 249.893823 
L 163.007215 250.11826 
L 163.256116 250.886044 
L 163.30752 250.729579 
L 163.5456 250.031151 
L 163.57536 250.049255 
L 163.691695 250.330708 
L 163.916247 251.097026 
L 163.992 251.023139 
L 164.281484 250.416672 
L 164.64672 248.506175 
L 164.700829 248.557265 
L 164.838807 249.013103 
L 165.120175 250.893537 
L 165.228393 251.483748 
L 165.293324 251.406877 
L 165.534109 250.804661 
L 165.7776 250.098535 
L 166.012975 250.111747 
L 166.16448 250.481482 
L 166.664989 252.166153 
L 166.702865 252.039613 
L 166.981527 250.986074 
L 167.008582 251.001489 
L 167.122211 251.264066 
L 167.35488 252.505653 
L 167.757993 254.461127 
L 167.939258 254.696544 
L 168.050182 254.867586 
L 168.093469 254.791097 
L 168.290967 253.818855 
L 168.526342 253.247035 
L 168.642676 253.074801 
L 168.829353 251.911204 
L 169.072844 251.087972 
L 169.172945 251.17532 
L 169.340684 251.748133 
L 169.673455 253.849056 
L 169.995404 255.413494 
L 170.3904 257.066667 
L 170.755636 258.42047 
L 170.907142 258.519741 
L 171.096524 259.022888 
L 171.329193 259.817232 
L 171.391418 259.697762 
L 171.532102 258.835245 
L 171.959564 255.948952 
L 172.08672 255.858305 
L 172.11648 255.881263 
L 172.262575 256.191968 
L 172.527709 256.974997 
L 172.584524 256.847393 
L 172.749556 255.659084 
L 173.066095 253.947083 
L 173.526022 253.339827 
L 173.542255 253.351652 
L 173.672116 253.614235 
L 173.915607 254.727592 
L 174.494575 257.511113 
L 174.508102 257.506602 
L 174.659607 257.30711 
L 174.894982 257.145469 
L 175.046487 257.343499 
L 175.168233 257.625508 
L 175.230458 257.473968 
L 175.77696 255.956185 
L 175.896 256.01952 
L 176.071855 256.488778 
L 176.748218 258.558232 
L 176.786095 258.579657 
L 176.829382 258.4917 
L 177.137804 257.155164 
L 177.416465 256.415408 
L 177.56256 255.631545 
L 177.811462 254.835386 
L 177.922385 254.91121 
L 178.420189 255.984495 
L 178.725905 257.179514 
L 179.350865 260.450286 
L 179.621411 261.750185 
L 179.661993 261.630577 
L 179.837847 259.974131 
L 180.119215 258.346545 
L 180.246371 258.252627 
L 180.276131 258.274244 
L 180.424931 258.575397 
L 180.714415 259.779429 
L 182.096902 266.223429 
L 182.191593 266.194757 
L 182.207825 266.159627 
L 182.408029 265.361085 
L 183.138502 262.040681 
L 183.471273 258.650944 
L 184.364073 239.76571 
L 184.824 237.138181 
L 185.440844 234.712106 
L 185.605876 234.466866 
L 185.757382 232.572015 
L 186.149673 228.382575 
L 186.498676 226.428026 
L 186.566313 226.456401 
L 186.590662 226.498771 
L 186.755695 227.087676 
L 187.196684 229.935843 
L 187.943389 235.661928 
L 188.03808 235.371485 
L 188.167942 234.31372 
L 188.787491 223.93472 
L 189.217658 212.570715 
L 189.431389 201.865884 
L 189.531491 183.601663 
L 189.577484 116.262179 
L 189.599127 81.459943 
L 189.666764 170.599464 
L 189.82368 230.2149 
L 190.034705 247.869273 
L 190.362065 256.694136 
L 190.624495 259.439549 
L 190.689425 259.629908 
L 190.735418 259.433041 
L 190.857164 257.541897 
L 191.338735 248.575984 
L 191.660684 247.126299 
L 192.104378 245.756668 
L 192.604887 242.163866 
L 192.899782 241.739579 
L 193.362415 241.176612 
L 193.532858 241.183615 
L 193.684364 241.407931 
L 193.730356 241.263147 
L 194.084771 238.998833 
L 194.217338 236.979543 
L 194.623156 230.671058 
L 195.432087 224.465018 
L 195.697222 219.767121 
L 195.929891 212.504978 
L 196.100335 199.917895 
L 196.176087 175.030489 
L 196.224785 71.176168 
L 196.292422 167.232652 
L 196.443927 234.954688 
L 196.63872 251.32071 
L 196.849745 254.561221 
L 196.879505 254.555994 
L 196.925498 254.480376 
L 197.074298 254.351243 
L 197.104058 254.376351 
L 197.250153 254.713619 
L 197.645149 256.407228 
L 197.775011 256.665511 
L 197.807476 256.649797 
L 197.953571 256.417848 
L 198.091549 255.433021 
L 199.152087 241.774778 
L 199.520029 237.428889 
L 200.32896 229.406963 
L 200.634676 222.75808 
L 200.897105 212.81353 
L 201.051316 197.854839 
L 201.110836 166.749399 
L 201.148713 65.809578 
L 201.219055 169.525512 
L 201.367855 240.683872 
L 201.546415 254.537761 
L 201.773673 256.972878 
L 201.844015 257.104343 
L 201.898124 257.019296 
L 202.009047 256.350483 
L 202.425687 251.955768 
L 202.842327 244.512669 
L 203.153455 234.57716 
L 203.902865 205.697195 
L 204.016495 187.551147 
L 204.059782 133.213013 
L 204.086836 75.790103 
L 204.157178 182.942446 
L 204.319505 242.365664 
L 204.49536 251.921221 
L 204.627927 252.568102 
L 204.654982 252.552724 
L 204.903884 252.151505 
L 204.985047 251.442755 
L 205.309702 249.072148 
L 205.531549 248.665566 
L 205.612713 248.426961 
L 206.124044 246.381822 
L 206.248495 246.503993 
L 206.456815 247.11614 
L 206.8464 249.091063 
L 207.38208 252.048148 
L 207.447011 251.974266 
L 207.869062 251.065351 
L 208.134196 250.712953 
L 208.353338 250.59327 
L 208.466967 249.068954 
L 208.883607 243.324579 
L 209.186618 241.068563 
L 209.492335 233.810617 
L 209.876509 226.773302 
L 210.739549 218.615533 
L 210.855884 218.449095 
L 210.896465 218.48729 
L 211.0128 218.882806 
L 211.207593 220.498474 
L 211.378036 221.483484 
L 211.405091 221.465135 
L 211.534953 221.113802 
L 211.800087 220.632859 
L 211.883956 220.781648 
L 212.035462 221.616635 
L 212.281658 224.437083 
L 212.91744 232.192222 
L 213.139287 233.074315 
L 213.388189 235.335738 
L 213.888698 239.85515 
L 214.194415 240.16039 
L 214.210647 240.146849 
L 214.340509 239.846224 
L 214.654342 238.524122 
L 214.927593 235.5409 
L 215.755462 226.198334 
L 215.825804 226.190189 
L 215.860975 226.23945 
L 215.996247 226.734585 
L 216.234327 228.613994 
L 216.461585 229.795729 
L 216.78624 230.500896 
L 216.829527 230.448223 
L 216.986444 230.292821 
L 217.02432 230.333834 
L 217.148771 230.743268 
L 217.373324 232.427143 
L 218.331055 240.622892 
L 218.36352 240.640276 
L 218.409513 240.548299 
L 219.156218 238.523056 
L 219.264436 238.653771 
L 219.921862 240.406535 
L 220.124771 240.907479 
L 220.227578 240.792621 
L 220.343913 240.344737 
L 220.544116 238.656315 
L 221.234007 228.479238 
L 221.599244 224.824859 
L 221.812975 224.346185 
L 221.959069 224.332908 
L 221.969891 224.344988 
L 222.105164 224.684082 
L 222.318895 225.811948 
L 222.689542 229.28695 
L 222.97632 231.268402 
L 222.987142 231.264995 
L 223.127825 231.059026 
L 223.249571 231.005305 
L 223.279331 231.036333 
L 223.409193 231.410041 
L 223.625629 232.870223 
L 223.982749 235.079079 
L 224.031447 234.986094 
L 224.174836 233.997729 
L 224.634764 229.085353 
L 225.024349 220.571892 
L 225.235375 211.117485 
L 225.362531 194.634769 
L 225.411229 146.830568 
L 225.440989 58.505717 
L 225.516742 164.149381 
L 225.665542 238.179399 
L 225.857629 256.167798 
L 226.136291 261.961239 
L 226.498822 265.486023 
L 226.569164 265.396577 
L 226.950633 264.745862 
L 227.0832 264.50477 
L 227.626996 260.736944 
L 227.867782 256.201676 
L 228.211375 251.12259 
L 228.968902 244.618806 
L 229.848175 240.231381 
L 230.175535 238.669171 
L 230.26752 238.646053 
L 230.299985 238.684806 
L 230.440669 239.11129 
L 230.746385 239.956185 
L 231.006109 240.691246 
L 231.076451 240.627982 
L 231.273949 240.523268 
L 231.290182 240.53864 
L 231.501207 240.832874 
L 231.574255 240.69345 
L 231.687884 240.028072 
L 231.980073 235.72724 
L 232.429178 229.621777 
L 232.821469 227.552505 
L 233.127185 227.043971 
L 233.51136 226.882875 
L 233.530298 226.91557 
L 233.727796 227.51744 
L 234.512378 231.517222 
L 234.901964 234.713805 
L 234.991244 234.56212 
L 235.440349 233.032713 
L 235.762298 231.420388 
L 235.854284 231.389369 
L 235.889455 231.428842 
L 236.027433 231.839451 
L 236.265513 233.3801 
L 236.668625 237.695453 
L 237.344989 244.729178 
L 237.418036 244.89852 
L 237.472145 244.801878 
L 237.691287 243.774222 
L 238.370356 240.775769 
L 238.410938 240.800426 
L 238.5408 241.092453 
L 238.765353 241.895444 
L 238.849222 241.758137 
L 239.160349 241.245707 
L 239.168465 241.249406 
L 239.298327 241.444171 
L 240.123491 243.767922 
L 240.65376 246.548977 
L 240.751156 246.310815 
L 241.316596 244.264666 
L 241.362589 244.293298 
L 241.468102 244.309212 
L 241.497862 244.275064 
L 241.752175 244.133573 
L 241.900975 244.384048 
L 242.14176 245.321734 
L 242.417716 246.603975 
L 242.474531 246.442188 
L 243.023738 243.150203 
L 243.483665 239.195589 
L 243.751505 238.332153 
L 243.862429 238.395162 
L 244.01664 238.874474 
L 244.289891 240.593954 
L 244.84992 245.870387 
L 245.269265 249.11217 
L 245.277382 249.110087 
L 245.366662 248.949985 
L 245.672378 247.755184 
L 245.975389 245.609064 
L 246.316276 240.012297 
L 246.632815 236.049695 
L 246.870895 235.366485 
L 246.960175 235.368507 
L 246.987229 235.405546 
L 247.26048 236.062624 
L 247.363287 236.323789 
L 247.420102 236.243982 
L 247.503971 235.78785 
L 247.685236 232.908911 
L 248.028829 228.704275 
L 248.223622 227.967151 
L 248.237149 227.972595 
L 248.315607 228.16051 
L 248.762007 230.544204 
L 248.921629 231.327542 
L 248.970327 231.076328 
L 249.251695 227.557487 
L 249.557411 222.239432 
L 250.607127 198.82619 
L 250.726167 185.619361 
L 250.793804 147.067854 
L 250.828975 112.96797 
L 250.888495 166.00546 
L 251.050822 209.174746 
L 251.36736 238.290149 
L 251.713658 254.216021 
L 252.003142 257.301318 
L 253.155665 266.470947 
L 253.174604 266.461024 
L 253.285527 266.191796 
L 253.4208 265.10466 
L 253.991651 260.616945 
L 254.199971 260.24804 
L 254.316305 260.389937 
L 254.451578 260.760138 
L 254.516509 260.574162 
L 254.711302 260.167885 
L 254.732945 260.179552 
L 254.84928 260.415418 
L 255.081949 261.516062 
L 255.41472 263.262319 
L 255.479651 263.228251 
L 255.636567 263.262543 
L 255.793484 263.658852 
L 256.269644 264.979772 
L 256.440087 265.303978 
L 256.551011 265.394663 
L 256.586182 265.352655 
L 256.697105 264.877679 
L 256.908131 262.988472 
L 257.592611 256.182076 
L 257.687302 255.942953 
L 258.201338 254.173752 
L 258.398836 254.04624 
L 258.409658 254.054473 
L 258.542225 254.311402 
L 258.769484 255.354829 
L 258.972393 256.517136 
L 259.029207 256.240232 
L 260.14656 248.675369 
L 260.538851 246.037797 
L 260.906793 241.651582 
L 261.001484 241.508892 
L 261.050182 241.548614 
L 261.347782 241.976397 
L 261.583156 243.185054 
L 262.235171 247.37335 
L 262.873658 251.742628 
L 263.328175 254.541781 
L 263.476975 255.321057 
L 263.5392 255.254519 
L 263.715055 255.121987 
L 263.739404 255.142482 
L 263.880087 255.457088 
L 264.145222 256.726745 
L 264.821585 261.402286 
L 265.41408 264.853261 
L 265.855069 265.599551 
L 265.903767 265.542296 
L 266.106676 264.990595 
L 266.250065 263.858113 
L 266.680233 260.620477 
L 266.90208 259.485826 
L 267.215913 256.040296 
L 267.924742 249.334542 
L 268.414429 247.026986 
L 268.457716 247.06488 
L 268.904116 247.929344 
L 268.966342 247.65819 
L 269.285585 244.346296 
L 269.585891 241.820254 
L 269.658938 241.757628 
L 269.707636 241.815047 
L 269.772567 241.851979 
L 269.826676 241.80392 
L 269.921367 241.802808 
L 269.948422 241.844187 
L 270.083695 242.344345 
L 270.976495 247.740589 
L 271.349847 250.657485 
L 271.390429 250.630317 
L 271.642036 250.422519 
L 271.677207 250.463894 
L 271.828713 250.89074 
L 272.004567 251.152306 
L 272.166895 251.22798 
L 272.331927 251.67337 
L 272.613295 253.212682 
L 272.805382 253.706674 
L 272.989353 254.013027 
L 273.2112 254.975294 
L 273.811811 259.031645 
L 274.677556 265.348691 
L 274.731665 265.283946 
L 274.912931 265.117985 
L 274.93728 265.135943 
L 275.08608 265.426139 
L 275.380975 266.595946 
L 275.564945 267.444442 
L 275.624465 267.225183 
L 275.805731 264.60179 
L 276.214255 259.591743 
L 276.42528 259.037804 
L 276.530793 259.145409 
L 276.717469 259.761725 
L 277.234211 261.82453 
L 277.269382 261.721513 
L 277.637324 260.243675 
L 277.677905 260.270264 
L 277.813178 260.581605 
L 278.624815 262.959691 
L 278.935942 262.964306 
L 279.138851 263.555317 
L 280.080349 266.777263 
L 280.38336 266.994988 
L 280.624145 267.654642 
L 281.06784 269.663797 
L 281.506124 271.584721 
L 281.538589 271.523899 
L 281.665745 270.553139 
L 281.944407 269.087989 
L 282.068858 269.028335 
L 282.095913 269.049947 
L 282.263651 269.376849 
L 282.309644 269.419385 
L 282.34752 269.30896 
L 282.485498 267.891407 
L 283.464873 257.65395 
L 283.684015 256.83629 
L 284.095244 256.61437 
L 284.295447 256.274716 
L 284.319796 256.289377 
L 284.441542 256.543896 
L 284.674211 257.67156 
L 285.545367 262.780949 
L 285.588655 262.652185 
L 286.110807 258.991368 
L 286.581556 255.771812 
L 287.052305 253.862748 
L 287.098298 253.902458 
L 287.263331 254.347072 
L 287.428364 254.723915 
L 287.479767 254.628741 
L 287.593396 253.915437 
L 287.890996 252.418168 
L 287.97216 252.451909 
L 287.991098 252.484354 
L 288.145309 253.034368 
L 288.453731 255.141089 
L 289.427695 263.322126 
L 289.538618 263.107154 
L 289.709062 262.915122 
L 289.730705 262.928614 
L 289.865978 263.187298 
L 290.001251 263.57749 
L 290.066182 263.436301 
L 290.26368 262.359656 
L 291.010385 255.399391 
L 291.18624 254.999732 
L 291.202473 255.006222 
L 291.310691 255.205975 
L 291.497367 255.940671 
L 291.589353 255.697156 
L 291.75168 255.419728 
L 291.78144 255.44047 
L 291.90048 255.734049 
L 292.135855 257.053971 
L 292.933964 261.91919 
L 293.174749 262.550919 
L 293.353309 262.810297 
L 293.583273 263.667774 
L 293.721251 264.246817 
L 293.786182 264.104657 
L 293.910633 263.230609 
L 294.286691 260.761302 
L 294.362444 260.345059 
L 295.512262 248.475165 
L 295.780102 248.233805 
L 296.123695 247.832286 
L 296.145338 247.850378 
L 296.2752 248.147074 
L 296.624204 248.966275 
L 296.745949 249.040566 
L 296.78112 249.016432 
L 296.919098 249.032068 
L 296.927215 249.043965 
L 297.065193 249.462916 
L 297.327622 251.138464 
L 297.779433 254.348948 
L 297.833542 254.255514 
L 298.147375 253.57097 
L 298.171724 253.584441 
L 298.296175 253.821061 
L 298.518022 254.832753 
L 299.159215 258.288532 
L 299.210618 258.263466 
L 299.321542 258.052562 
L 299.962735 255.983886 
L 300.073658 256.122268 
L 300.252218 256.232683 
L 300.422662 256.352706 
L 300.636393 256.821925 
L 300.720262 256.61965 
L 301.250531 254.955662 
L 301.337105 254.997526 
L 301.480495 254.74884 
L 301.599535 254.694646 
L 301.629295 254.723591 
L 301.769978 255.07974 
L 302.081105 256.660639 
L 302.530211 258.769551 
L 302.692538 259.153759 
L 302.846749 259.611636 
L 302.908975 259.516194 
L 303.057775 258.867999 
L 303.585338 254.541368 
L 303.799069 254.387324 
L 303.809891 254.395359 
L 303.945164 254.650406 
L 304.759505 256.878649 
L 304.78656 256.782277 
L 305.192378 254.406572 
L 305.268131 254.492655 
L 305.430458 255.090074 
L 305.771345 257.393408 
L 306.068945 258.717667 
L 306.515345 260.552416 
L 306.582982 260.341431 
L 306.75072 258.513971 
L 307.527185 248.349491 
L 308.168378 245.104089 
L 308.574196 240.527101 
L 308.739229 240.257608 
L 308.752756 240.262271 
L 308.885324 240.445339 
L 308.931316 240.544879 
L 308.977309 240.392344 
L 309.448058 237.239869 
L 309.710487 235.444401 
L 309.759185 235.441414 
L 309.799767 235.511023 
L 309.93504 236.151679 
L 310.208291 238.771393 
L 310.551884 241.407769 
L 310.581644 241.397677 
L 310.61952 241.325489 
L 310.79808 241.074284 
L 310.833251 241.104359 
L 310.957702 241.4542 
L 311.18496 242.908875 
L 311.666531 247.757575 
L 311.918138 249.51596 
L 311.939782 249.476565 
L 312.391593 247.713257 
L 312.748713 245.159812 
L 312.824465 245.118965 
L 312.867753 245.169709 
L 313.005731 245.642384 
L 313.26816 247.501725 
L 313.579287 249.679133 
L 313.617164 249.602204 
L 313.882298 248.826996 
L 313.936407 248.87734 
L 314.074385 249.288704 
L 314.331404 250.916547 
L 314.823796 253.921261 
L 315.002356 254.596778 
L 315.354065 257.0187 
L 315.878924 260.330315 
L 316.049367 260.531989 
L 316.108887 260.451747 
L 316.311796 260.271051 
L 316.33344 260.287725 
L 316.476829 260.581562 
L 316.744669 261.757184 
L 317.329047 265.125031 
L 317.431855 264.890689 
L 317.799796 263.146487 
L 318.224553 259.843978 
L 318.676364 255.508866 
L 318.811636 255.32221 
L 318.844102 255.342017 
L 319.014545 255.385096 
L 319.030778 255.356757 
L 319.163345 254.736816 
L 319.409542 254.026236 
L 319.520465 254.133416 
L 319.690909 254.658677 
L 320.012858 256.538872 
L 320.115665 257.053491 
L 320.17248 256.86329 
L 320.88672 253.347666 
L 320.935418 253.381305 
L 321.073396 253.719139 
L 321.335825 254.293355 
L 321.346647 254.290099 
L 321.554967 254.338259 
L 321.728116 254.749405 
L 321.806575 254.944046 
L 321.866095 254.824875 
L 322.323316 253.34653 
L 322.382836 253.396879 
L 322.542458 253.775483 
L 322.588451 253.5088 
L 322.70208 250.727991 
L 323.175535 238.996449 
L 323.575942 235.96981 
L 323.584058 235.972239 
L 323.757207 236.182277 
L 324.282065 236.673909 
L 324.468742 236.770491 
L 324.644596 236.846707 
L 324.774458 236.970788 
L 324.939491 237.546955 
L 325.20192 239.427014 
L 325.680785 244.803401 
L 325.989207 247.283157 
L 326.365265 248.583724 
L 326.741324 251.26016 
L 327.087622 253.751444 
L 327.147142 253.720949 
L 327.295942 253.753574 
L 327.450153 254.155096 
L 327.782924 255.197496 
L 327.818095 255.110422 
L 327.980422 253.909046 
L 328.313193 251.979802 
L 328.405178 251.935297 
L 328.443055 251.974063 
L 328.586444 252.374337 
L 328.783942 253.241598 
L 328.848873 252.999186 
L 329.197876 251.137774 
L 329.211404 251.142232 
L 329.3088 251.319794 
L 329.525236 252.302881 
L 329.757905 253.605876 
L 329.820131 253.435044 
L 330.139375 251.448715 
L 330.450502 248.698895 
L 330.534371 248.613138 
L 330.583069 248.666302 
L 330.721047 249.144583 
L 331.002415 251.105236 
L 331.578676 256.123966 
L 331.670662 255.823631 
L 331.968262 253.92683 
L 332.823185 244.320932 
L 332.993629 244.182506 
L 333.164073 244.287494 
L 333.3264 244.75292 
L 333.634822 246.520628 
L 335.041658 252.778616 
L 335.155287 252.978991 
L 335.193164 252.79558 
L 335.547578 250.802763 
L 335.555695 250.804579 
L 335.653091 250.958535 
L 335.901993 251.300402 
L 336.067025 251.731629 
L 336.161716 252.035872 
L 336.210415 251.859489 
L 336.399796 249.961609 
L 336.700102 247.67782 
L 337.043695 246.796021 
L 337.0464 246.796835 
L 337.154618 246.950638 
L 337.341295 247.711195 
L 337.801222 250.24477 
L 337.895913 250.156138 
L 338.317964 249.590399 
L 338.404538 249.687992 
L 338.702138 250.200076 
L 338.821178 250.544467 
L 338.883404 250.398981 
L 339.262167 248.613267 
L 339.413673 247.459473 
L 339.789731 242.950739 
L 340.030516 242.544525 
L 340.046749 242.554775 
L 340.192844 242.722876 
L 340.265891 242.606377 
L 340.382225 242.534257 
L 340.417396 242.572701 
L 340.547258 242.981054 
L 340.785338 244.627934 
L 342.208407 256.121801 
L 342.708916 257.426861 
L 342.903709 257.505981 
L 343.074153 258.009918 
L 343.23648 258.444656 
L 343.282473 258.394647 
L 343.669353 257.687793 
L 343.7424 257.76878 
L 343.923665 258.286395 
L 344.026473 258.486857 
L 344.077876 258.451017 
L 344.348422 258.041111 
L 345.114065 252.985422 
L 345.544233 247.775061 
L 345.744436 247.52699 
L 345.749847 247.529286 
L 345.860771 247.706459 
L 346.166487 248.431519 
L 346.220596 248.376667 
L 346.296349 248.048939 
L 346.553367 245.4878 
L 347.202676 238.259298 
L 347.275724 238.368612 
L 347.454284 239.027668 
L 347.543564 238.811135 
L 347.714007 238.460738 
L 347.749178 238.490535 
L 347.862807 238.850429 
L 348.136058 240.591998 
L 348.2064 239.992806 
L 348.766429 233.518759 
L 348.844887 233.610229 
L 348.982865 234.288819 
L 349.256116 236.995305 
L 350.346415 247.130843 
L 351.750545 254.137614 
L 351.774895 254.137103 
L 351.812771 254.04545 
L 351.931811 253.062379 
L 352.145542 249.379412 
L 352.453964 245.807644 
L 352.775913 244.782968 
L 352.84896 244.770187 
L 352.886836 244.821155 
L 353.02752 245.319421 
L 353.298065 247.283195 
L 354.209804 256.447009 
L 355.22976 265.531975 
L 355.270342 265.640458 
L 355.327156 265.462033 
L 355.819549 263.111258 
L 355.849309 263.124843 
L 355.984582 263.359599 
L 356.201018 263.966788 
L 356.287593 263.860642 
L 356.347113 263.56648 
L 356.715055 261.404095 
L 356.817862 261.458684 
L 356.823273 261.467674 
L 356.991011 261.980718 
L 357.177687 262.443019 
L 357.210153 262.42743 
L 357.502342 262.362302 
L 357.675491 262.721964 
L 357.96768 263.948422 
L 358.600756 267.814963 
L 359.057978 270.058829 
L 359.136436 270.217836 
L 359.182429 270.086425 
L 359.350167 268.751171 
L 359.745164 265.317457 
L 360.045469 264.050026 
L 360.159098 264.045301 
L 360.178036 264.065805 
L 360.340364 264.4409 
L 360.389062 264.552087 
L 360.440465 264.398499 
L 360.800291 263.082811 
L 360.811113 263.08604 
L 360.927447 263.256456 
L 361.149295 264.090626 
L 361.387375 265.24309 
L 361.4496 265.018307 
L 361.882473 263.006995 
L 361.969047 262.482591 
L 362.423564 259.340009 
L 362.518255 259.359234 
L 362.537193 259.38532 
L 362.683287 259.722656 
L 362.723869 259.47328 
L 363.454342 252.427146 
L 363.47328 252.434679 
L 363.627491 252.678541 
L 363.927796 253.363818 
L 364.017076 253.129997 
L 364.552756 251.269176 
L 364.612276 251.338584 
L 364.758371 251.876563 
L 365.055971 254.000458 
L 365.616 257.850492 
L 365.724218 257.989078 
L 365.756684 257.905311 
L 366.506095 253.80604 
L 366.860509 252.21638 
L 366.963316 252.278398 
L 366.966022 252.283209 
L 367.122938 252.797574 
L 367.212218 253.154929 
L 367.266327 252.945749 
L 367.655913 251.137901 
L 367.899404 250.818204 
L 368.261935 249.277039 
L 368.426967 248.987112 
L 368.456727 249.004526 
L 368.575767 249.24524 
L 368.784087 250.301379 
L 370.061062 258.021773 
L 370.236916 258.300613 
L 370.456058 259.25945 
L 370.915985 262.514713 
L 371.075607 263.408158 
L 371.129716 263.3237 
L 371.608582 261.665464 
L 372.144262 257.835598 
L 372.366109 256.670226 
L 372.439156 256.700886 
L 372.4608 256.739311 
L 372.658298 257.095546 
L 372.720524 257.025117 
L 372.945076 256.838014 
L 372.964015 256.852797 
L 373.064116 256.913044 
L 373.104698 256.842411 
L 373.56192 255.4658 
L 373.726953 255.07201 
L 373.748596 255.083252 
L 373.85952 255.322126 
L 374.081367 256.459511 
L 374.579171 260.055493 
L 374.709033 259.86008 
L 374.971462 259.351571 
L 375.642415 255.126433 
L 375.785804 254.901548 
L 375.815564 254.921764 
L 375.937309 255.210663 
L 376.324189 256.392342 
L 376.364771 256.339992 
L 376.71648 255.421354 
L 376.816582 255.574284 
L 377.008669 256.373802 
L 377.390138 259.126001 
L 377.979927 263.793625 
L 378.042153 263.652963 
L 378.201775 262.314784 
L 378.510196 260.452943 
L 378.702284 259.822703 
L 378.991767 258.347348 
L 379.078342 258.331368 
L 379.110807 258.370765 
L 379.256902 258.807332 
L 380.268742 263.602799 
L 380.341789 263.876894 
L 380.398604 263.737012 
L 380.766545 262.550966 
L 380.7936 262.565012 
L 380.920756 262.806317 
L 381.069556 263.326317 
L 381.112844 263.045983 
L 382.054342 253.40876 
L 382.387113 252.665508 
L 382.498036 252.763017 
L 382.665775 253.320384 
L 382.971491 255.278059 
L 383.761484 262.274103 
L 384.5136 268.063098 
L 384.548771 268.119004 
L 384.592058 267.9787 
L 385.541673 263.39449 
L 385.549789 263.396684 
L 385.67424 263.554489 
L 385.890676 264.280017 
L 385.928553 264.406569 
L 385.982662 264.19072 
L 386.318138 262.725245 
L 386.531869 262.639193 
L 386.677964 262.663331 
L 386.759127 262.695859 
L 386.786182 262.631441 
L 386.910633 261.657233 
L 387.200116 259.992736 
L 387.286691 259.961829 
L 387.324567 260.003687 
L 387.40032 260.098444 
L 387.449018 259.992283 
L 387.595113 259.008474 
L 387.90624 257.405144 
L 388.003636 257.372818 
L 388.036102 257.406996 
L 388.184902 257.801268 
L 388.252538 257.930528 
L 388.303942 257.819162 
L 388.498735 256.623467 
L 388.966778 253.91034 
L 389.064175 253.910629 
L 389.091229 253.940847 
L 389.120989 253.89417 
L 389.134516 253.839616 
L 389.242735 252.814969 
L 389.672902 248.651711 
L 389.764887 248.542694 
L 389.81088 248.589282 
L 389.943447 249.032499 
L 390.319505 251.409952 
L 390.809193 254.136138 
L 390.925527 253.915459 
L 391.079738 253.741866 
L 391.109498 253.764141 
L 391.236655 254.069142 
L 391.474735 255.355998 
L 392.408116 260.970828 
L 392.535273 261.320512 
L 392.57856 261.288139 
L 392.670545 261.005675 
L 393.065542 259.471938 
L 393.176465 259.552595 
L 393.349615 260.077815 
L 393.971869 262.80549 
L 394.06656 262.594645 
L 394.377687 261.932887 
L 394.499433 262.068745 
L 394.713164 262.750822 
L 395.129804 263.788736 
L 395.202851 263.865764 
L 395.25696 263.813067 
L 395.568087 263.186685 
L 395.884625 261.283086 
L 396.674618 254.637132 
L 396.77472 254.766127 
L 396.958691 255.48809 
L 397.367215 257.436555 
L 397.42944 257.38749 
L 397.648582 256.973326 
L 398.246487 252.703045 
L 398.338473 252.667932 
L 398.373644 252.706831 
L 398.487273 253.005945 
L 398.487273 253.005945 
" clip-path="url(#p328643e4f0)" style="fill: none; stroke: #ff0000; stroke-width: 1.5; stroke-linecap: square"/>
   </g>
   <g id="line2d_18">
    <path d="M 87.359887 260.064 
L 90.059908 260.064 
L 90.059908 260.064 
" clip-path="url(#p328643e4f0)" style="fill: none; stroke: #000000; stroke-width: 1.5; stroke-linecap: square"/>
   </g>
   <g id="line2d_19">
    <path d="M 87.359887 231.552 
L 87.359887 229.6512 
L 87.359887 227.7504 
L 87.359887 225.8496 
L 87.359887 223.9488 
L 87.359887 222.048 
L 87.359887 220.1472 
L 87.359887 218.2464 
L 87.359887 216.3456 
L 87.359887 214.4448 
L 87.359887 212.544 
L 87.359887 210.6432 
L 87.359887 208.7424 
L 87.359887 206.8416 
L 87.359887 204.9408 
L 87.359887 203.04 
L 87.359887 201.1392 
L 87.359887 199.2384 
L 87.359887 197.3376 
L 87.359887 195.4368 
" clip-path="url(#p328643e4f0)" style="fill: none; stroke: #000000; stroke-width: 1.5; stroke-linecap: square"/>
   </g>
   <g id="patch_3">
    <path d="M 57.6 307.584 
L 57.6 41.472 
" style="fill: none; stroke: #000000; stroke-width: 0.8; stroke-linejoin: miter; stroke-linecap: square"/>
   </g>
   <g id="patch_4">
    <path d="M 57.6 307.584 
L 414.72 307.584 
" style="fill: none; stroke: #000000; stroke-width: 0.8; stroke-linejoin: miter; stroke-linecap: square"/>
   </g>
   <g id="text_18">
    <!-- 500 ms -->
    <g transform="translate(87.359887 258.1632) scale(0.1 -0.1)">
     <use xlink:href="#DejaVuSans-35"/>
     <use xlink:href="#DejaVuSans-30" x="63.623047"/>
     <use xlink:href="#DejaVuSans-30" x="127.246094"/>
     <use xlink:href="#DejaVuSans-20" x="190.869141"/>
     <use xlink:href="#DejaVuSans-6d" x="222.65625"/>
     <use xlink:href="#DejaVuSans-73" x="320.068359"/>
    </g>
   </g>
   <g id="text_19">
    <!-- 20 mV -->
    <g transform="translate(87.63043 193.536) scale(0.1 -0.1)">
     <use xlink:href="#DejaVuSans-32"/>
     <use xlink:href="#DejaVuSans-30" x="63.623047"/>
     <use xlink:href="#DejaVuSans-20" x="127.246094"/>
     <use xlink:href="#DejaVuSans-6d" x="159.033203"/>
     <use xlink:href="#DejaVuSans-56" x="256.445312"/>
    </g>
   </g>
  </g>
 </g>
 <defs>
  <clipPath id="p328643e4f0">
   <rect x="57.6" y="41.472" width="357.12" height="266.112"/>
  </clipPath>
 </defs>
</svg>
