<?xml version="1.0" encoding="utf-8" standalone="no"?>
<!DOCTYPE svg PUBLIC "-//W3C//DTD SVG 1.1//EN"
  "http://www.w3.org/Graphics/SVG/1.1/DTD/svg11.dtd">
<svg height="288pt" version="1.1" viewBox="0 0 432 288" width="432pt" xmlns="http://www.w3.org/2000/svg" xmlns:xlink="http://www.w3.org/1999/xlink">
 <metadata>
  <rdf:RDF xmlns:cc="http://creativecommons.org/ns#" xmlns:dc="http://purl.org/dc/elements/1.1/" xmlns:rdf="http://www.w3.org/1999/02/22-rdf-syntax-ns#">
   <cc:Work>
    <dc:type rdf:resource="http://purl.org/dc/dcmitype/StillImage"/>
    <dc:date>2021-07-08T13:58:07.967406</dc:date>
    <dc:format>image/svg+xml</dc:format>
    <dc:creator>
     <cc:Agent>
      <dc:title>Matplotlib v3.4.1, https://matplotlib.org/</dc:title>
     </cc:Agent>
    </dc:creator>
   </cc:Work>
  </rdf:RDF>
 </metadata>
 <defs>
  <style type="text/css">*{stroke-linecap:butt;stroke-linejoin:round;}</style>
 </defs>
 <g id="figure_1">
  <g id="patch_1">
   <path d="M 0 288 
L 432 288 
L 432 0 
L 0 0 
z
" style="fill:none;"/>
  </g>
  <g id="axes_1">
   <g id="patch_2">
    <path d="M 54 252 
L 388.8 252 
L 388.8 34.56 
L 54 34.56 
z
" style="fill:#ffffff;"/>
   </g>
   <g id="matplotlib.axis_1">
    <g id="xtick_1">
     <g id="line2d_1">
      <defs>
       <path d="M 0 0 
L 0 3.5 
" id="m34113ba0b4" style="stroke:#000000;stroke-width:0.8;"/>
      </defs>
      <g>
       <use style="stroke:#000000;stroke-width:0.8;" x="69.218182" xlink:href="#m34113ba0b4" y="252"/>
      </g>
     </g>
     <g id="text_1">
      <!-- 0 -->
      <g transform="translate(66.036932 266.598437)scale(0.1 -0.1)">
       <defs>
        <path d="M 2034 4250 
Q 1547 4250 1301 3770 
Q 1056 3291 1056 2328 
Q 1056 1369 1301 889 
Q 1547 409 2034 409 
Q 2525 409 2770 889 
Q 3016 1369 3016 2328 
Q 3016 3291 2770 3770 
Q 2525 4250 2034 4250 
z
M 2034 4750 
Q 2819 4750 3233 4129 
Q 3647 3509 3647 2328 
Q 3647 1150 3233 529 
Q 2819 -91 2034 -91 
Q 1250 -91 836 529 
Q 422 1150 422 2328 
Q 422 3509 836 4129 
Q 1250 4750 2034 4750 
z
" id="DejaVuSans-30" transform="scale(0.015625)"/>
       </defs>
       <use xlink:href="#DejaVuSans-30"/>
      </g>
     </g>
    </g>
    <g id="xtick_2">
     <g id="line2d_2">
      <g>
       <use style="stroke:#000000;stroke-width:0.8;" x="119.937001" xlink:href="#m34113ba0b4" y="252"/>
      </g>
     </g>
     <g id="text_2">
      <!-- 500 -->
      <g transform="translate(110.393251 266.598437)scale(0.1 -0.1)">
       <defs>
        <path d="M 691 4666 
L 3169 4666 
L 3169 4134 
L 1269 4134 
L 1269 2991 
Q 1406 3038 1543 3061 
Q 1681 3084 1819 3084 
Q 2600 3084 3056 2656 
Q 3513 2228 3513 1497 
Q 3513 744 3044 326 
Q 2575 -91 1722 -91 
Q 1428 -91 1123 -41 
Q 819 9 494 109 
L 494 744 
Q 775 591 1075 516 
Q 1375 441 1709 441 
Q 2250 441 2565 725 
Q 2881 1009 2881 1497 
Q 2881 1984 2565 2268 
Q 2250 2553 1709 2553 
Q 1456 2553 1204 2497 
Q 953 2441 691 2322 
L 691 4666 
z
" id="DejaVuSans-35" transform="scale(0.015625)"/>
       </defs>
       <use xlink:href="#DejaVuSans-35"/>
       <use x="63.623047" xlink:href="#DejaVuSans-30"/>
       <use x="127.246094" xlink:href="#DejaVuSans-30"/>
      </g>
     </g>
    </g>
    <g id="xtick_3">
     <g id="line2d_3">
      <g>
       <use style="stroke:#000000;stroke-width:0.8;" x="170.655821" xlink:href="#m34113ba0b4" y="252"/>
      </g>
     </g>
     <g id="text_3">
      <!-- 1000 -->
      <g transform="translate(157.930821 266.598437)scale(0.1 -0.1)">
       <defs>
        <path d="M 794 531 
L 1825 531 
L 1825 4091 
L 703 3866 
L 703 4441 
L 1819 4666 
L 2450 4666 
L 2450 531 
L 3481 531 
L 3481 0 
L 794 0 
L 794 531 
z
" id="DejaVuSans-31" transform="scale(0.015625)"/>
       </defs>
       <use xlink:href="#DejaVuSans-31"/>
       <use x="63.623047" xlink:href="#DejaVuSans-30"/>
       <use x="127.246094" xlink:href="#DejaVuSans-30"/>
       <use x="190.869141" xlink:href="#DejaVuSans-30"/>
      </g>
     </g>
    </g>
    <g id="xtick_4">
     <g id="line2d_4">
      <g>
       <use style="stroke:#000000;stroke-width:0.8;" x="221.374641" xlink:href="#m34113ba0b4" y="252"/>
      </g>
     </g>
     <g id="text_4">
      <!-- 1500 -->
      <g transform="translate(208.649641 266.598437)scale(0.1 -0.1)">
       <use xlink:href="#DejaVuSans-31"/>
       <use x="63.623047" xlink:href="#DejaVuSans-35"/>
       <use x="127.246094" xlink:href="#DejaVuSans-30"/>
       <use x="190.869141" xlink:href="#DejaVuSans-30"/>
      </g>
     </g>
    </g>
    <g id="xtick_5">
     <g id="line2d_5">
      <g>
       <use style="stroke:#000000;stroke-width:0.8;" x="272.09346" xlink:href="#m34113ba0b4" y="252"/>
      </g>
     </g>
     <g id="text_5">
      <!-- 2000 -->
      <g transform="translate(259.36846 266.598437)scale(0.1 -0.1)">
       <defs>
        <path d="M 1228 531 
L 3431 531 
L 3431 0 
L 469 0 
L 469 531 
Q 828 903 1448 1529 
Q 2069 2156 2228 2338 
Q 2531 2678 2651 2914 
Q 2772 3150 2772 3378 
Q 2772 3750 2511 3984 
Q 2250 4219 1831 4219 
Q 1534 4219 1204 4116 
Q 875 4013 500 3803 
L 500 4441 
Q 881 4594 1212 4672 
Q 1544 4750 1819 4750 
Q 2544 4750 2975 4387 
Q 3406 4025 3406 3419 
Q 3406 3131 3298 2873 
Q 3191 2616 2906 2266 
Q 2828 2175 2409 1742 
Q 1991 1309 1228 531 
z
" id="DejaVuSans-32" transform="scale(0.015625)"/>
       </defs>
       <use xlink:href="#DejaVuSans-32"/>
       <use x="63.623047" xlink:href="#DejaVuSans-30"/>
       <use x="127.246094" xlink:href="#DejaVuSans-30"/>
       <use x="190.869141" xlink:href="#DejaVuSans-30"/>
      </g>
     </g>
    </g>
    <g id="xtick_6">
     <g id="line2d_6">
      <g>
       <use style="stroke:#000000;stroke-width:0.8;" x="322.81228" xlink:href="#m34113ba0b4" y="252"/>
      </g>
     </g>
     <g id="text_6">
      <!-- 2500 -->
      <g transform="translate(310.08728 266.598437)scale(0.1 -0.1)">
       <use xlink:href="#DejaVuSans-32"/>
       <use x="63.623047" xlink:href="#DejaVuSans-35"/>
       <use x="127.246094" xlink:href="#DejaVuSans-30"/>
       <use x="190.869141" xlink:href="#DejaVuSans-30"/>
      </g>
     </g>
    </g>
    <g id="xtick_7">
     <g id="line2d_7">
      <g>
       <use style="stroke:#000000;stroke-width:0.8;" x="373.531099" xlink:href="#m34113ba0b4" y="252"/>
      </g>
     </g>
     <g id="text_7">
      <!-- 3000 -->
      <g transform="translate(360.806099 266.598437)scale(0.1 -0.1)">
       <defs>
        <path d="M 2597 2516 
Q 3050 2419 3304 2112 
Q 3559 1806 3559 1356 
Q 3559 666 3084 287 
Q 2609 -91 1734 -91 
Q 1441 -91 1130 -33 
Q 819 25 488 141 
L 488 750 
Q 750 597 1062 519 
Q 1375 441 1716 441 
Q 2309 441 2620 675 
Q 2931 909 2931 1356 
Q 2931 1769 2642 2001 
Q 2353 2234 1838 2234 
L 1294 2234 
L 1294 2753 
L 1863 2753 
Q 2328 2753 2575 2939 
Q 2822 3125 2822 3475 
Q 2822 3834 2567 4026 
Q 2313 4219 1838 4219 
Q 1578 4219 1281 4162 
Q 984 4106 628 3988 
L 628 4550 
Q 988 4650 1302 4700 
Q 1616 4750 1894 4750 
Q 2613 4750 3031 4423 
Q 3450 4097 3450 3541 
Q 3450 3153 3228 2886 
Q 3006 2619 2597 2516 
z
" id="DejaVuSans-33" transform="scale(0.015625)"/>
       </defs>
       <use xlink:href="#DejaVuSans-33"/>
       <use x="63.623047" xlink:href="#DejaVuSans-30"/>
       <use x="127.246094" xlink:href="#DejaVuSans-30"/>
       <use x="190.869141" xlink:href="#DejaVuSans-30"/>
      </g>
     </g>
    </g>
    <g id="text_8">
     <!-- Time(ms) -->
     <g transform="translate(197.789844 280.276563)scale(0.1 -0.1)">
      <defs>
       <path d="M -19 4666 
L 3928 4666 
L 3928 4134 
L 2272 4134 
L 2272 0 
L 1638 0 
L 1638 4134 
L -19 4134 
L -19 4666 
z
" id="DejaVuSans-54" transform="scale(0.015625)"/>
       <path d="M 603 3500 
L 1178 3500 
L 1178 0 
L 603 0 
L 603 3500 
z
M 603 4863 
L 1178 4863 
L 1178 4134 
L 603 4134 
L 603 4863 
z
" id="DejaVuSans-69" transform="scale(0.015625)"/>
       <path d="M 3328 2828 
Q 3544 3216 3844 3400 
Q 4144 3584 4550 3584 
Q 5097 3584 5394 3201 
Q 5691 2819 5691 2113 
L 5691 0 
L 5113 0 
L 5113 2094 
Q 5113 2597 4934 2840 
Q 4756 3084 4391 3084 
Q 3944 3084 3684 2787 
Q 3425 2491 3425 1978 
L 3425 0 
L 2847 0 
L 2847 2094 
Q 2847 2600 2669 2842 
Q 2491 3084 2119 3084 
Q 1678 3084 1418 2786 
Q 1159 2488 1159 1978 
L 1159 0 
L 581 0 
L 581 3500 
L 1159 3500 
L 1159 2956 
Q 1356 3278 1631 3431 
Q 1906 3584 2284 3584 
Q 2666 3584 2933 3390 
Q 3200 3197 3328 2828 
z
" id="DejaVuSans-6d" transform="scale(0.015625)"/>
       <path d="M 3597 1894 
L 3597 1613 
L 953 1613 
Q 991 1019 1311 708 
Q 1631 397 2203 397 
Q 2534 397 2845 478 
Q 3156 559 3463 722 
L 3463 178 
Q 3153 47 2828 -22 
Q 2503 -91 2169 -91 
Q 1331 -91 842 396 
Q 353 884 353 1716 
Q 353 2575 817 3079 
Q 1281 3584 2069 3584 
Q 2775 3584 3186 3129 
Q 3597 2675 3597 1894 
z
M 3022 2063 
Q 3016 2534 2758 2815 
Q 2500 3097 2075 3097 
Q 1594 3097 1305 2825 
Q 1016 2553 972 2059 
L 3022 2063 
z
" id="DejaVuSans-65" transform="scale(0.015625)"/>
       <path d="M 1984 4856 
Q 1566 4138 1362 3434 
Q 1159 2731 1159 2009 
Q 1159 1288 1364 580 
Q 1569 -128 1984 -844 
L 1484 -844 
Q 1016 -109 783 600 
Q 550 1309 550 2009 
Q 550 2706 781 3412 
Q 1013 4119 1484 4856 
L 1984 4856 
z
" id="DejaVuSans-28" transform="scale(0.015625)"/>
       <path d="M 2834 3397 
L 2834 2853 
Q 2591 2978 2328 3040 
Q 2066 3103 1784 3103 
Q 1356 3103 1142 2972 
Q 928 2841 928 2578 
Q 928 2378 1081 2264 
Q 1234 2150 1697 2047 
L 1894 2003 
Q 2506 1872 2764 1633 
Q 3022 1394 3022 966 
Q 3022 478 2636 193 
Q 2250 -91 1575 -91 
Q 1294 -91 989 -36 
Q 684 19 347 128 
L 347 722 
Q 666 556 975 473 
Q 1284 391 1588 391 
Q 1994 391 2212 530 
Q 2431 669 2431 922 
Q 2431 1156 2273 1281 
Q 2116 1406 1581 1522 
L 1381 1569 
Q 847 1681 609 1914 
Q 372 2147 372 2553 
Q 372 3047 722 3315 
Q 1072 3584 1716 3584 
Q 2034 3584 2315 3537 
Q 2597 3491 2834 3397 
z
" id="DejaVuSans-73" transform="scale(0.015625)"/>
       <path d="M 513 4856 
L 1013 4856 
Q 1481 4119 1714 3412 
Q 1947 2706 1947 2009 
Q 1947 1309 1714 600 
Q 1481 -109 1013 -844 
L 513 -844 
Q 928 -128 1133 580 
Q 1338 1288 1338 2009 
Q 1338 2731 1133 3434 
Q 928 4138 513 4856 
z
" id="DejaVuSans-29" transform="scale(0.015625)"/>
      </defs>
      <use xlink:href="#DejaVuSans-54"/>
      <use x="57.958984" xlink:href="#DejaVuSans-69"/>
      <use x="85.742188" xlink:href="#DejaVuSans-6d"/>
      <use x="183.154297" xlink:href="#DejaVuSans-65"/>
      <use x="244.677734" xlink:href="#DejaVuSans-28"/>
      <use x="283.691406" xlink:href="#DejaVuSans-6d"/>
      <use x="381.103516" xlink:href="#DejaVuSans-73"/>
      <use x="433.203125" xlink:href="#DejaVuSans-29"/>
     </g>
    </g>
   </g>
   <g id="matplotlib.axis_2">
    <g id="ytick_1">
     <g id="line2d_8">
      <defs>
       <path d="M 0 0 
L -3.5 0 
" id="m90cf151eff" style="stroke:#000000;stroke-width:0.8;"/>
      </defs>
      <g>
       <use style="stroke:#000000;stroke-width:0.8;" x="54" xlink:href="#m90cf151eff" y="252"/>
      </g>
     </g>
     <g id="text_9">
      <!-- −100 -->
      <g transform="translate(19.532812 255.799219)scale(0.1 -0.1)">
       <defs>
        <path d="M 678 2272 
L 4684 2272 
L 4684 1741 
L 678 1741 
L 678 2272 
z
" id="DejaVuSans-2212" transform="scale(0.015625)"/>
       </defs>
       <use xlink:href="#DejaVuSans-2212"/>
       <use x="83.789062" xlink:href="#DejaVuSans-31"/>
       <use x="147.412109" xlink:href="#DejaVuSans-30"/>
       <use x="211.035156" xlink:href="#DejaVuSans-30"/>
      </g>
     </g>
    </g>
    <g id="ytick_2">
     <g id="line2d_9">
      <g>
       <use style="stroke:#000000;stroke-width:0.8;" x="54" xlink:href="#m90cf151eff" y="215.76"/>
      </g>
     </g>
     <g id="text_10">
      <!-- −95 -->
      <g transform="translate(25.895312 219.559219)scale(0.1 -0.1)">
       <defs>
        <path d="M 703 97 
L 703 672 
Q 941 559 1184 500 
Q 1428 441 1663 441 
Q 2288 441 2617 861 
Q 2947 1281 2994 2138 
Q 2813 1869 2534 1725 
Q 2256 1581 1919 1581 
Q 1219 1581 811 2004 
Q 403 2428 403 3163 
Q 403 3881 828 4315 
Q 1253 4750 1959 4750 
Q 2769 4750 3195 4129 
Q 3622 3509 3622 2328 
Q 3622 1225 3098 567 
Q 2575 -91 1691 -91 
Q 1453 -91 1209 -44 
Q 966 3 703 97 
z
M 1959 2075 
Q 2384 2075 2632 2365 
Q 2881 2656 2881 3163 
Q 2881 3666 2632 3958 
Q 2384 4250 1959 4250 
Q 1534 4250 1286 3958 
Q 1038 3666 1038 3163 
Q 1038 2656 1286 2365 
Q 1534 2075 1959 2075 
z
" id="DejaVuSans-39" transform="scale(0.015625)"/>
       </defs>
       <use xlink:href="#DejaVuSans-2212"/>
       <use x="83.789062" xlink:href="#DejaVuSans-39"/>
       <use x="147.412109" xlink:href="#DejaVuSans-35"/>
      </g>
     </g>
    </g>
    <g id="ytick_3">
     <g id="line2d_10">
      <g>
       <use style="stroke:#000000;stroke-width:0.8;" x="54" xlink:href="#m90cf151eff" y="179.52"/>
      </g>
     </g>
     <g id="text_11">
      <!-- −90 -->
      <g transform="translate(25.895312 183.319219)scale(0.1 -0.1)">
       <use xlink:href="#DejaVuSans-2212"/>
       <use x="83.789062" xlink:href="#DejaVuSans-39"/>
       <use x="147.412109" xlink:href="#DejaVuSans-30"/>
      </g>
     </g>
    </g>
    <g id="ytick_4">
     <g id="line2d_11">
      <g>
       <use style="stroke:#000000;stroke-width:0.8;" x="54" xlink:href="#m90cf151eff" y="143.28"/>
      </g>
     </g>
     <g id="text_12">
      <!-- −85 -->
      <g transform="translate(25.895312 147.079219)scale(0.1 -0.1)">
       <defs>
        <path d="M 2034 2216 
Q 1584 2216 1326 1975 
Q 1069 1734 1069 1313 
Q 1069 891 1326 650 
Q 1584 409 2034 409 
Q 2484 409 2743 651 
Q 3003 894 3003 1313 
Q 3003 1734 2745 1975 
Q 2488 2216 2034 2216 
z
M 1403 2484 
Q 997 2584 770 2862 
Q 544 3141 544 3541 
Q 544 4100 942 4425 
Q 1341 4750 2034 4750 
Q 2731 4750 3128 4425 
Q 3525 4100 3525 3541 
Q 3525 3141 3298 2862 
Q 3072 2584 2669 2484 
Q 3125 2378 3379 2068 
Q 3634 1759 3634 1313 
Q 3634 634 3220 271 
Q 2806 -91 2034 -91 
Q 1263 -91 848 271 
Q 434 634 434 1313 
Q 434 1759 690 2068 
Q 947 2378 1403 2484 
z
M 1172 3481 
Q 1172 3119 1398 2916 
Q 1625 2713 2034 2713 
Q 2441 2713 2670 2916 
Q 2900 3119 2900 3481 
Q 2900 3844 2670 4047 
Q 2441 4250 2034 4250 
Q 1625 4250 1398 4047 
Q 1172 3844 1172 3481 
z
" id="DejaVuSans-38" transform="scale(0.015625)"/>
       </defs>
       <use xlink:href="#DejaVuSans-2212"/>
       <use x="83.789062" xlink:href="#DejaVuSans-38"/>
       <use x="147.412109" xlink:href="#DejaVuSans-35"/>
      </g>
     </g>
    </g>
    <g id="ytick_5">
     <g id="line2d_12">
      <g>
       <use style="stroke:#000000;stroke-width:0.8;" x="54" xlink:href="#m90cf151eff" y="107.04"/>
      </g>
     </g>
     <g id="text_13">
      <!-- −80 -->
      <g transform="translate(25.895312 110.839219)scale(0.1 -0.1)">
       <use xlink:href="#DejaVuSans-2212"/>
       <use x="83.789062" xlink:href="#DejaVuSans-38"/>
       <use x="147.412109" xlink:href="#DejaVuSans-30"/>
      </g>
     </g>
    </g>
    <g id="ytick_6">
     <g id="line2d_13">
      <g>
       <use style="stroke:#000000;stroke-width:0.8;" x="54" xlink:href="#m90cf151eff" y="70.8"/>
      </g>
     </g>
     <g id="text_14">
      <!-- −75 -->
      <g transform="translate(25.895312 74.599219)scale(0.1 -0.1)">
       <defs>
        <path d="M 525 4666 
L 3525 4666 
L 3525 4397 
L 1831 0 
L 1172 0 
L 2766 4134 
L 525 4134 
L 525 4666 
z
" id="DejaVuSans-37" transform="scale(0.015625)"/>
       </defs>
       <use xlink:href="#DejaVuSans-2212"/>
       <use x="83.789062" xlink:href="#DejaVuSans-37"/>
       <use x="147.412109" xlink:href="#DejaVuSans-35"/>
      </g>
     </g>
    </g>
    <g id="ytick_7">
     <g id="line2d_14">
      <g>
       <use style="stroke:#000000;stroke-width:0.8;" x="54" xlink:href="#m90cf151eff" y="34.56"/>
      </g>
     </g>
     <g id="text_15">
      <!-- −70 -->
      <g transform="translate(25.895312 38.359219)scale(0.1 -0.1)">
       <use xlink:href="#DejaVuSans-2212"/>
       <use x="83.789062" xlink:href="#DejaVuSans-37"/>
       <use x="147.412109" xlink:href="#DejaVuSans-30"/>
      </g>
     </g>
    </g>
    <g id="text_16">
     <!-- Membrane potential (mV) -->
     <g transform="translate(13.453125 207.691719)rotate(-90)scale(0.1 -0.1)">
      <defs>
       <path d="M 628 4666 
L 1569 4666 
L 2759 1491 
L 3956 4666 
L 4897 4666 
L 4897 0 
L 4281 0 
L 4281 4097 
L 3078 897 
L 2444 897 
L 1241 4097 
L 1241 0 
L 628 0 
L 628 4666 
z
" id="DejaVuSans-4d" transform="scale(0.015625)"/>
       <path d="M 3116 1747 
Q 3116 2381 2855 2742 
Q 2594 3103 2138 3103 
Q 1681 3103 1420 2742 
Q 1159 2381 1159 1747 
Q 1159 1113 1420 752 
Q 1681 391 2138 391 
Q 2594 391 2855 752 
Q 3116 1113 3116 1747 
z
M 1159 2969 
Q 1341 3281 1617 3432 
Q 1894 3584 2278 3584 
Q 2916 3584 3314 3078 
Q 3713 2572 3713 1747 
Q 3713 922 3314 415 
Q 2916 -91 2278 -91 
Q 1894 -91 1617 61 
Q 1341 213 1159 525 
L 1159 0 
L 581 0 
L 581 4863 
L 1159 4863 
L 1159 2969 
z
" id="DejaVuSans-62" transform="scale(0.015625)"/>
       <path d="M 2631 2963 
Q 2534 3019 2420 3045 
Q 2306 3072 2169 3072 
Q 1681 3072 1420 2755 
Q 1159 2438 1159 1844 
L 1159 0 
L 581 0 
L 581 3500 
L 1159 3500 
L 1159 2956 
Q 1341 3275 1631 3429 
Q 1922 3584 2338 3584 
Q 2397 3584 2469 3576 
Q 2541 3569 2628 3553 
L 2631 2963 
z
" id="DejaVuSans-72" transform="scale(0.015625)"/>
       <path d="M 2194 1759 
Q 1497 1759 1228 1600 
Q 959 1441 959 1056 
Q 959 750 1161 570 
Q 1363 391 1709 391 
Q 2188 391 2477 730 
Q 2766 1069 2766 1631 
L 2766 1759 
L 2194 1759 
z
M 3341 1997 
L 3341 0 
L 2766 0 
L 2766 531 
Q 2569 213 2275 61 
Q 1981 -91 1556 -91 
Q 1019 -91 701 211 
Q 384 513 384 1019 
Q 384 1609 779 1909 
Q 1175 2209 1959 2209 
L 2766 2209 
L 2766 2266 
Q 2766 2663 2505 2880 
Q 2244 3097 1772 3097 
Q 1472 3097 1187 3025 
Q 903 2953 641 2809 
L 641 3341 
Q 956 3463 1253 3523 
Q 1550 3584 1831 3584 
Q 2591 3584 2966 3190 
Q 3341 2797 3341 1997 
z
" id="DejaVuSans-61" transform="scale(0.015625)"/>
       <path d="M 3513 2113 
L 3513 0 
L 2938 0 
L 2938 2094 
Q 2938 2591 2744 2837 
Q 2550 3084 2163 3084 
Q 1697 3084 1428 2787 
Q 1159 2491 1159 1978 
L 1159 0 
L 581 0 
L 581 3500 
L 1159 3500 
L 1159 2956 
Q 1366 3272 1645 3428 
Q 1925 3584 2291 3584 
Q 2894 3584 3203 3211 
Q 3513 2838 3513 2113 
z
" id="DejaVuSans-6e" transform="scale(0.015625)"/>
       <path id="DejaVuSans-20" transform="scale(0.015625)"/>
       <path d="M 1159 525 
L 1159 -1331 
L 581 -1331 
L 581 3500 
L 1159 3500 
L 1159 2969 
Q 1341 3281 1617 3432 
Q 1894 3584 2278 3584 
Q 2916 3584 3314 3078 
Q 3713 2572 3713 1747 
Q 3713 922 3314 415 
Q 2916 -91 2278 -91 
Q 1894 -91 1617 61 
Q 1341 213 1159 525 
z
M 3116 1747 
Q 3116 2381 2855 2742 
Q 2594 3103 2138 3103 
Q 1681 3103 1420 2742 
Q 1159 2381 1159 1747 
Q 1159 1113 1420 752 
Q 1681 391 2138 391 
Q 2594 391 2855 752 
Q 3116 1113 3116 1747 
z
" id="DejaVuSans-70" transform="scale(0.015625)"/>
       <path d="M 1959 3097 
Q 1497 3097 1228 2736 
Q 959 2375 959 1747 
Q 959 1119 1226 758 
Q 1494 397 1959 397 
Q 2419 397 2687 759 
Q 2956 1122 2956 1747 
Q 2956 2369 2687 2733 
Q 2419 3097 1959 3097 
z
M 1959 3584 
Q 2709 3584 3137 3096 
Q 3566 2609 3566 1747 
Q 3566 888 3137 398 
Q 2709 -91 1959 -91 
Q 1206 -91 779 398 
Q 353 888 353 1747 
Q 353 2609 779 3096 
Q 1206 3584 1959 3584 
z
" id="DejaVuSans-6f" transform="scale(0.015625)"/>
       <path d="M 1172 4494 
L 1172 3500 
L 2356 3500 
L 2356 3053 
L 1172 3053 
L 1172 1153 
Q 1172 725 1289 603 
Q 1406 481 1766 481 
L 2356 481 
L 2356 0 
L 1766 0 
Q 1100 0 847 248 
Q 594 497 594 1153 
L 594 3053 
L 172 3053 
L 172 3500 
L 594 3500 
L 594 4494 
L 1172 4494 
z
" id="DejaVuSans-74" transform="scale(0.015625)"/>
       <path d="M 603 4863 
L 1178 4863 
L 1178 0 
L 603 0 
L 603 4863 
z
" id="DejaVuSans-6c" transform="scale(0.015625)"/>
       <path d="M 1831 0 
L 50 4666 
L 709 4666 
L 2188 738 
L 3669 4666 
L 4325 4666 
L 2547 0 
L 1831 0 
z
" id="DejaVuSans-56" transform="scale(0.015625)"/>
      </defs>
      <use xlink:href="#DejaVuSans-4d"/>
      <use x="86.279297" xlink:href="#DejaVuSans-65"/>
      <use x="147.802734" xlink:href="#DejaVuSans-6d"/>
      <use x="245.214844" xlink:href="#DejaVuSans-62"/>
      <use x="308.691406" xlink:href="#DejaVuSans-72"/>
      <use x="349.804688" xlink:href="#DejaVuSans-61"/>
      <use x="411.083984" xlink:href="#DejaVuSans-6e"/>
      <use x="474.462891" xlink:href="#DejaVuSans-65"/>
      <use x="535.986328" xlink:href="#DejaVuSans-20"/>
      <use x="567.773438" xlink:href="#DejaVuSans-70"/>
      <use x="631.25" xlink:href="#DejaVuSans-6f"/>
      <use x="692.431641" xlink:href="#DejaVuSans-74"/>
      <use x="731.640625" xlink:href="#DejaVuSans-65"/>
      <use x="793.164062" xlink:href="#DejaVuSans-6e"/>
      <use x="856.542969" xlink:href="#DejaVuSans-74"/>
      <use x="895.751953" xlink:href="#DejaVuSans-69"/>
      <use x="923.535156" xlink:href="#DejaVuSans-61"/>
      <use x="984.814453" xlink:href="#DejaVuSans-6c"/>
      <use x="1012.597656" xlink:href="#DejaVuSans-20"/>
      <use x="1044.384766" xlink:href="#DejaVuSans-28"/>
      <use x="1083.398438" xlink:href="#DejaVuSans-6d"/>
      <use x="1180.810547" xlink:href="#DejaVuSans-56"/>
      <use x="1249.21875" xlink:href="#DejaVuSans-29"/>
     </g>
    </g>
   </g>
   <g id="line2d_15">
    <path clip-path="url(#p23cb8aaf64)" d="M 69.218182 150.528 
L 69.370364 189.388877 
L 69.674727 197.00435 
L 70.029818 200.853038 
L 70.384909 202.589659 
L 70.689273 203.255026 
L 71.196545 199.612906 
L 71.348727 199.794106 
L 71.500909 200.161579 
L 71.551636 200.137661 
L 71.653091 199.426632 
L 72.058909 195.685214 
L 72.160364 195.605486 
L 72.312545 195.920774 
L 72.667636 197.603035 
L 73.377818 200.898701 
L 73.682182 201.705403 
L 74.088 198.627178 
L 74.189455 198.61993 
L 74.392364 199.029442 
L 75.660545 202.468618 
L 75.762 202.528051 
L 75.863455 201.370546 
L 76.421455 189.874493 
L 76.827273 187.805189 
L 76.878 187.739232 
L 76.928727 187.801565 
L 77.080909 188.553182 
L 77.537455 192.763546 
L 78.146182 197.618981 
L 78.653455 199.946314 
L 78.704182 200.014445 
L 78.856364 198.941016 
L 79.11 197.831347 
L 79.211455 197.799456 
L 79.363636 196.955064 
L 79.972364 191.116075 
L 80.124545 190.693517 
L 80.226 190.850074 
L 80.428909 191.822755 
L 80.733273 193.773192 
L 80.784 193.547054 
L 81.544909 189.077938 
L 81.646364 189.219274 
L 81.9 190.257912 
L 81.950727 190.003507 
L 82.102909 189.496872 
L 82.153636 189.514267 
L 82.305818 190.007131 
L 82.660909 192.454781 
L 83.269636 196.3716 
L 83.675455 195.898306 
L 83.726182 195.947592 
L 83.878364 196.02732 
L 84.132 195.374275 
L 84.69 190.053518 
L 84.740727 190.10353 
L 84.892909 190.613064 
L 85.248 192.512765 
L 85.298727 192.413467 
L 85.552364 191.977138 
L 85.704545 192.318518 
L 85.856727 192.834576 
L 85.907455 192.748325 
L 86.211818 192.024974 
L 86.364 192.204725 
L 86.719091 189.707064 
L 86.871273 190.162963 
L 87.277091 192.725131 
L 87.936545 196.596288 
L 88.038 197.031168 
L 88.088727 196.937669 
L 88.393091 194.366803 
L 88.494545 194.202998 
L 88.900364 193.125946 
L 89.052545 193.394122 
L 89.407636 194.798784 
L 89.509091 195.221342 
L 89.559818 195.016949 
L 90.016364 190.548557 
L 90.117818 190.649304 
L 90.320727 191.481374 
L 91.132364 196.348406 
L 91.183091 196.327387 
L 91.487455 192.52871 
L 91.639636 189.320021 
L 92.248364 177.67031 
L 92.400545 177.098443 
L 92.502 177.361546 
L 92.704909 179.098891 
L 93.262909 184.503725 
L 94.683273 195.793934 
L 94.835455 195.072034 
L 95.190545 193.354258 
L 95.342727 193.283952 
L 95.494909 193.510814 
L 95.85 194.642227 
L 95.900727 194.785738 
L 95.951455 194.745874 
L 96.408 193.623158 
L 96.560182 193.864517 
L 96.915273 195.077107 
L 97.422545 196.867363 
L 97.777636 194.717606 
L 98.132727 191.616912 
L 98.234182 191.617637 
L 98.386364 191.952494 
L 98.690727 185.854027 
L 98.792182 185.581502 
L 98.842909 185.651808 
L 98.995091 186.406325 
L 99.451636 190.510142 
L 99.857455 193.341211 
L 100.111091 193.18393 
L 100.364727 193.516613 
L 100.415455 193.402819 
L 100.669091 192.933149 
L 100.872 193.009253 
L 101.227091 191.123323 
L 101.734364 188.798165 
L 101.886545 188.50607 
L 101.988 188.645957 
L 102.190909 189.527314 
L 102.393818 190.677571 
L 102.444545 190.648579 
L 102.647455 190.171661 
L 102.951818 188.025528 
L 103.053273 188.103806 
L 103.256182 189.041698 
L 104.169273 195.261931 
L 104.270727 195.08508 
L 104.524364 194.39652 
L 104.676545 194.331288 
L 105.031636 192.18443 
L 105.133091 192.189504 
L 105.285273 192.547555 
L 105.691091 194.334187 
L 105.792545 194.190677 
L 106.198364 192.893285 
L 106.553455 188.570578 
L 106.654909 188.463307 
L 106.807091 188.912683 
L 107.162182 191.286403 
L 107.923091 196.322314 
L 108.126 197.154384 
L 108.176727 197.087702 
L 108.633273 195.743923 
L 108.785455 195.883085 
L 109.089818 196.644125 
L 110.002909 199.125115 
L 110.510182 199.878907 
L 110.662364 199.059883 
L 110.763818 198.179251 
L 111.118909 193.412966 
L 111.524727 191.552405 
L 111.575455 191.566176 
L 111.727636 191.903208 
L 111.981273 192.890386 
L 112.032 192.801235 
L 112.336364 191.764046 
L 112.945091 185.067619 
L 113.046545 184.904539 
L 113.148 185.139374 
L 113.249455 185.401752 
L 113.452364 184.913237 
L 113.503091 184.997314 
L 113.655273 185.782272 
L 114.111818 190.044821 
L 114.365455 191.664024 
L 114.517636 191.969165 
L 114.822 188.437214 
L 114.923455 188.526365 
L 115.126364 189.549058 
L 116.039455 195.887434 
L 116.090182 195.870038 
L 116.496 194.75747 
L 116.546727 194.800958 
L 116.597455 194.550178 
L 116.851091 191.277706 
L 116.952545 191.176234 
L 117.104727 191.62561 
L 117.459818 193.563 
L 117.561273 193.412966 
L 117.814909 192.93025 
L 118.017818 193.14479 
L 118.068545 193.012877 
L 118.372909 192.029323 
L 118.474364 192.112675 
L 118.677273 192.757747 
L 118.930909 193.871765 
L 118.981636 193.700712 
L 119.286 192.554803 
L 119.387455 192.633806 
L 119.590364 193.273805 
L 120.351273 196.57237 
L 120.402 196.51801 
L 120.554182 195.39167 
L 120.706364 191.686493 
L 121.010727 183.8688 
L 121.213636 182.803344 
L 121.315091 182.912064 
L 121.365818 182.812766 
L 121.670182 180.491957 
L 121.720909 180.509352 
L 122.126727 181.521173 
L 122.431091 184.298606 
L 122.938364 189.41352 
L 122.989091 189.388877 
L 123.141273 189.372206 
L 123.293455 189.825206 
L 123.75 192.085133 
L 123.851455 191.891611 
L 124.054364 191.464704 
L 124.358727 189.563554 
L 124.510909 189.372931 
L 124.764545 188.535787 
L 124.866 188.613341 
L 125.068909 189.372931 
L 125.677636 193.281778 
L 126.083455 195.472123 
L 126.134182 195.425736 
L 126.337091 194.152987 
L 126.641455 190.963142 
L 126.793636 190.164413 
L 127.199455 182.610547 
L 127.300909 182.461963 
L 127.402364 182.766379 
L 127.656 184.713917 
L 128.061818 188.258189 
L 128.112545 188.237894 
L 128.366182 186.941952 
L 128.670545 185.393054 
L 128.772 185.493077 
L 128.974909 186.430243 
L 129.532909 190.858771 
L 129.634364 190.413019 
L 129.938727 188.098733 
L 130.040182 187.992912 
L 130.090909 188.048722 
L 130.141636 188.16469 
L 130.192364 188.100182 
L 130.446 187.023854 
L 130.547455 187.107931 
L 130.750364 187.974792 
L 131.105455 190.087584 
L 131.156182 190.06729 
L 131.308364 189.99336 
L 131.460545 190.244141 
L 131.764909 191.540083 
L 132.830182 196.641226 
L 133.033091 197.069582 
L 133.134545 196.085304 
L 133.844727 185.123429 
L 133.946182 185.257517 
L 134.149091 186.406325 
L 135.062182 193.952942 
L 135.112909 193.723181 
L 135.366545 192.587419 
L 135.518727 192.69324 
L 135.873818 190.813834 
L 135.924545 190.859496 
L 136.076727 191.348011 
L 136.228909 192.126446 
L 136.279636 192.061214 
L 136.584 190.50217 
L 136.685455 190.636258 
L 136.939091 191.78579 
L 137.953636 197.105098 
L 138.410182 198.344506 
L 138.511636 198.02197 
L 138.917455 196.407115 
L 139.069636 196.360728 
L 139.272545 196.607885 
L 139.779818 197.794382 
L 140.49 199.231661 
L 141.098727 199.956461 
L 141.149455 200.000674 
L 141.250909 199.104096 
L 141.555273 196.257082 
L 141.656727 196.004126 
L 142.011818 192.308371 
L 142.113273 192.359832 
L 142.316182 193.096954 
L 143.127818 197.310216 
L 143.178545 197.172504 
L 143.482909 194.507414 
L 143.635091 194.41609 
L 144.294545 181.447968 
L 144.497455 180.225955 
L 144.548182 180.2448 
L 144.700364 180.963077 
L 145.004727 184.157995 
L 145.309091 187.224624 
L 145.461273 187.105032 
L 145.613455 187.617466 
L 145.867091 188.731483 
L 146.019273 188.677848 
L 146.171455 189.025027 
L 146.475818 190.739179 
L 147.033818 194.375501 
L 147.693273 191.399472 
L 147.896182 191.321918 
L 148.200545 190.458682 
L 148.302 190.572475 
L 148.504909 191.205226 
L 148.606364 190.295602 
L 149.012182 185.953325 
L 149.215091 185.272738 
L 149.468727 184.736386 
L 149.519455 184.771901 
L 149.671636 185.302454 
L 149.976 187.633411 
L 150.889091 195.072758 
L 151.345636 197.176128 
L 151.396364 197.248608 
L 151.447091 197.187 
L 151.65 196.419437 
L 152.208 187.07749 
L 152.360182 186.830333 
L 152.512364 187.310875 
L 152.816727 189.422942 
L 153.273273 192.307646 
L 153.476182 192.234442 
L 153.679091 192.427963 
L 153.983455 190.454333 
L 154.338545 189.162739 
L 154.44 189.312773 
L 154.744364 190.488398 
L 154.845818 190.37533 
L 154.998 188.997485 
L 155.200909 187.65443 
L 155.302364 187.656605 
L 155.454545 188.207453 
L 155.758909 189.956395 
L 155.809636 189.851299 
L 156.215455 187.673275 
L 156.316909 187.812437 
L 156.418364 188.144395 
L 156.469091 188.106706 
L 156.672 186.343992 
L 156.925636 182.314829 
L 157.027091 182.114784 
L 157.432909 182.935258 
L 157.483636 182.888146 
L 157.635818 180.250598 
L 158.092364 173.309189 
L 158.193818 172.702531 
L 158.244545 172.714128 
L 158.396727 173.698406 
L 158.599636 175.756838 
L 159.056182 171.552274 
L 159.106909 171.653021 
L 159.259091 172.720651 
L 159.614182 177.696403 
L 159.918545 181.283438 
L 160.070727 181.773403 
L 160.324364 183.909389 
L 160.628727 185.997538 
L 160.831636 186.666528 
L 160.882364 186.523742 
L 161.136 185.126328 
L 161.237455 185.193734 
L 161.440364 186.064944 
L 161.694 187.843603 
L 161.744727 187.795766 
L 161.947636 185.416973 
L 162.404182 179.677282 
L 162.505636 179.443171 
L 162.556364 179.517826 
L 162.708545 180.316555 
L 163.165091 183.144725 
L 163.570909 184.948752 
L 163.621636 184.788571 
L 163.875273 183.85068 
L 164.027455 184.024632 
L 164.128909 184.180464 
L 164.179636 184.129728 
L 164.331818 183.286061 
L 164.686909 179.920814 
L 164.788364 179.722219 
L 164.889818 178.864056 
L 165.143455 175.964131 
L 165.194182 175.877155 
L 165.244909 175.938763 
L 165.397091 176.813597 
L 165.752182 180.873202 
L 166.411636 188.169038 
L 166.766727 188.674949 
L 167.071091 189.965818 
L 167.527636 192.232267 
L 167.578364 192.18733 
L 167.629091 192.041645 
L 167.882727 188.36256 
L 168.339273 180.979022 
L 168.440727 181.052227 
L 168.643636 182.21843 
L 169.353818 187.426118 
L 169.506 187.740682 
L 169.810364 189.140995 
L 170.114727 190.763822 
L 170.165455 190.686994 
L 170.419091 190.133246 
L 170.469818 190.15499 
L 170.571273 189.330168 
L 170.824909 187.718938 
L 170.926364 187.754453 
L 171.129273 188.500272 
L 171.484364 190.584797 
L 171.535091 190.397074 
L 171.636545 188.804688 
L 172.143818 175.42488 
L 172.397455 172.287946 
L 172.701818 168.55595 
L 173.361273 156.167669 
L 173.462727 155.596526 
L 173.513455 155.689301 
L 173.665636 157.247621 
L 173.817818 159.639461 
L 173.868545 159.629314 
L 173.97 159.474931 
L 174.071455 160.108406 
L 174.528 164.612314 
L 174.730909 163.44611 
L 174.832364 163.88389 
L 175.035273 166.451856 
L 175.491818 172.275624 
L 175.745455 173.425157 
L 175.897636 172.936642 
L 175.948364 172.973606 
L 176.100545 173.764363 
L 176.557091 178.139256 
L 176.658545 177.828317 
L 176.810727 177.578986 
L 176.912182 177.825418 
L 177.115091 179.115562 
L 177.470182 181.245749 
L 177.673091 181.887922 
L 178.738364 187.107931 
L 178.839818 186.810763 
L 179.042727 186.238896 
L 179.144182 186.367186 
L 179.347091 187.161566 
L 179.600727 188.350963 
L 179.651455 188.201654 
L 179.803636 187.011533 
L 179.955818 185.293032 
L 180.412364 171.796531 
L 180.513818 170.397667 
L 181.021091 161.940701 
L 181.325455 158.963947 
L 181.376182 159.066869 
L 181.528364 160.412822 
L 181.832727 163.33739 
L 182.086364 166.846872 
L 182.34 169.213344 
L 182.441455 168.521885 
L 182.593636 167.491219 
L 182.644364 167.508614 
L 182.796545 168.499416 
L 183.253091 172.387243 
L 183.658909 175.24513 
L 183.709636 175.148731 
L 184.014 173.246856 
L 184.470545 169.077082 
L 184.724182 162.961944 
L 184.977818 159.013958 
L 185.079273 158.677651 
L 185.13 158.775499 
L 185.282182 159.958373 
L 185.586545 164.912381 
L 186.246 176.137358 
L 186.296727 176.330155 
L 186.347455 176.079374 
L 186.804 169.540954 
L 186.905455 169.964962 
L 187.260545 173.367173 
L 187.311273 172.959835 
L 187.717091 168.52261 
L 187.767818 168.523334 
L 187.869273 168.885734 
L 188.122909 171.291346 
L 189.238909 185.152421 
L 189.289636 185.024131 
L 189.441818 180.221606 
L 189.898364 165.838675 
L 190.050545 164.666674 
L 190.101273 164.689867 
L 190.405636 165.477 
L 190.557818 165.024 
L 190.760727 163.014854 
L 191.166545 154.636891 
L 191.420182 147.844066 
L 191.572364 146.466946 
L 191.673818 145.365974 
L 191.724545 145.413811 
L 191.927455 147.433829 
L 192.485455 153.874402 
L 193.043455 159.182837 
L 193.094182 159.077016 
L 193.144909 159.00816 
L 193.195636 159.058171 
L 193.347818 160.026504 
L 193.652182 164.489822 
L 194.058 169.245235 
L 194.717455 176.920867 
L 194.768182 176.805624 
L 195.021818 175.764811 
L 195.072545 175.780757 
L 195.224727 176.33233 
L 195.275455 176.49541 
L 195.326182 176.419306 
L 195.478364 175.920643 
L 195.884182 171.309466 
L 195.985636 171.590688 
L 196.239273 172.971432 
L 196.29 172.832995 
L 196.543636 169.06476 
L 197.152364 159.347366 
L 197.507455 156.246672 
L 197.659636 155.658134 
L 197.761091 156.097363 
L 197.964 156.952627 
L 198.319091 155.076845 
L 198.420545 155.680603 
L 198.724909 160.127976 
L 199.587273 172.413336 
L 199.638 172.329984 
L 199.739455 171.432682 
L 200.094545 166.50839 
L 200.145273 166.50839 
L 200.246727 166.94327 
L 200.398909 168.202973 
L 200.449636 168.174706 
L 200.703273 167.231741 
L 200.804727 167.39772 
L 201.007636 168.687864 
L 201.159818 168.625531 
L 201.261273 168.97416 
L 201.464182 170.781086 
L 201.667091 172.250256 
L 201.819273 172.221989 
L 201.920727 172.251706 
L 202.072909 172.681512 
L 202.326545 174.46452 
L 202.833818 178.547318 
L 202.884545 178.586458 
L 203.138182 178.008792 
L 203.188909 178.066776 
L 203.341091 178.667635 
L 203.442545 179.045981 
L 203.493273 178.74084 
L 203.899091 170.957213 
L 203.949818 170.964461 
L 204.051273 171.321062 
L 204.102 171.250032 
L 204.355636 169.942493 
L 205.065818 158.395704 
L 205.116545 158.508048 
L 205.471636 156.174192 
L 205.522364 156.292334 
L 205.674545 157.582478 
L 206.486182 167.377426 
L 206.638364 167.736202 
L 206.841273 169.351781 
L 207.297818 176.00472 
L 208.008 185.356814 
L 208.210909 186.853526 
L 208.312364 183.827486 
L 208.667455 172.896053 
L 209.124 165.800986 
L 209.326909 164.635507 
L 209.428364 164.889912 
L 209.529818 165.307397 
L 209.580545 165.183456 
L 209.834182 164.257886 
L 210.037091 164.80511 
L 210.087818 164.575349 
L 210.290727 163.694717 
L 210.392182 164.037547 
L 210.595091 166.118448 
L 210.899455 168.890808 
L 211.000909 169.19015 
L 211.051636 169.15536 
L 211.558909 166.614211 
L 211.609636 166.672195 
L 211.711091 166.856294 
L 211.761818 166.793962 
L 211.812545 166.615661 
L 211.964727 163.545408 
L 212.573455 149.838715 
L 212.624182 149.988749 
L 212.776364 151.476038 
L 213.080727 154.825339 
L 213.435818 157.19761 
L 213.486545 156.76128 
L 213.993818 147.886829 
L 214.044545 147.873782 
L 214.146 148.428979 
L 214.704 154.442645 
L 214.805455 154.257821 
L 214.957636 154.251298 
L 215.769273 144.605659 
L 215.82 144.76439 
L 216.022909 145.811726 
L 216.225818 148.438402 
L 216.276545 148.126738 
L 216.479455 147.112742 
L 216.530182 147.134486 
L 216.783818 148.19197 
L 217.138909 150.609178 
L 217.291091 149.503133 
L 217.646182 143.456126 
L 217.899818 138.040421 
L 217.950545 137.84545 
L 218.001273 137.903434 
L 218.204182 139.663248 
L 218.457818 143.212594 
L 219.066545 153.812794 
L 219.117273 153.759158 
L 219.269455 152.73719 
L 219.523091 150.935338 
L 219.573818 150.864307 
L 219.726 150.180096 
L 219.776727 150.220685 
L 219.928909 151.286141 
L 220.233273 156.366264 
L 220.537636 162.339341 
L 220.588364 162.288605 
L 220.689818 162.749578 
L 220.892727 164.251363 
L 221.044909 163.057618 
L 221.907273 153.589555 
L 222.008727 153.370666 
L 222.110182 153.851933 
L 222.313091 156.301032 
L 222.871091 167.141141 
L 223.429091 176.42293 
L 223.987091 179.951981 
L 224.088545 179.838912 
L 224.240727 179.054678 
L 224.494364 177.926165 
L 224.595818 177.989222 
L 224.900182 178.718371 
L 224.950909 178.698077 
L 225.103091 178.789402 
L 225.306 179.488109 
L 225.711818 182.201035 
L 226.472727 187.383355 
L 226.574182 187.184035 
L 226.827818 186.637536 
L 226.98 186.702043 
L 227.182909 186.91441 
L 227.538 186.746981 
L 227.639455 186.804965 
L 227.842364 185.62644 
L 228.096 184.834234 
L 228.197455 184.914686 
L 228.400364 185.540914 
L 228.958364 188.494474 
L 229.567091 191.284229 
L 229.668545 190.348512 
L 230.023636 184.923384 
L 230.125091 184.803792 
L 230.277273 185.203882 
L 230.936727 187.85665 
L 231.139636 188.222674 
L 231.444 189.333067 
L 231.596182 189.873768 
L 231.646909 189.767947 
L 231.951273 188.821358 
L 232.052727 188.895288 
L 232.255636 189.497597 
L 233.625273 195.022747 
L 233.777455 194.031946 
L 234.183273 190.28183 
L 234.487636 187.570354 
L 234.589091 187.407274 
L 234.639818 187.429018 
L 234.792 187.805914 
L 234.893455 188.208902 
L 234.944182 188.007408 
L 235.197818 186.778147 
L 235.299273 186.870922 
L 236.110909 189.145344 
L 236.161636 189.095333 
L 236.618182 186.249768 
L 236.719636 186.395453 
L 237.074727 187.669651 
L 237.176182 187.579051 
L 237.277636 187.58195 
L 237.379091 187.739232 
L 237.429818 187.695744 
L 237.582 186.741907 
L 238.038545 182.134354 
L 238.292182 179.896171 
L 238.393636 179.656987 
L 238.799455 177.379666 
L 238.850182 177.397786 
L 238.951636 177.557966 
L 239.205273 175.690882 
L 239.306727 176.017042 
L 239.560364 178.308859 
L 239.661818 179.30256 
L 239.712545 179.187317 
L 240.219818 175.977178 
L 240.321273 176.13156 
L 240.524182 177.515928 
L 240.676364 178.642267 
L 240.727091 178.592981 
L 240.828545 178.600229 
L 240.980727 179.225006 
L 241.031455 179.134406 
L 241.589455 175.762637 
L 241.640182 175.812648 
L 241.792364 176.56499 
L 241.995273 177.49056 
L 242.096727 177.621749 
L 242.248909 178.424102 
L 243.060545 184.078267 
L 243.364909 180.836962 
L 243.669273 178.556741 
L 243.872182 177.650016 
L 243.973636 177.855134 
L 244.176545 179.259072 
L 244.937455 185.73371 
L 245.495455 189.086635 
L 245.647636 189.843326 
L 245.698364 189.820858 
L 246.104182 186.750605 
L 246.205636 186.80279 
L 246.408545 187.498598 
L 246.966545 190.831954 
L 247.423091 193.303522 
L 247.473818 193.266557 
L 247.930364 187.610218 
L 248.640545 180.095491 
L 248.792727 179.834563 
L 248.894182 180.041856 
L 249.097091 181.226179 
L 249.604364 186.258466 
L 250.263818 192.06049 
L 250.365273 192.696139 
L 250.416 192.536683 
L 250.669636 191.097955 
L 250.771091 191.076936 
L 250.923273 191.409619 
L 251.075455 191.766221 
L 251.430545 189.906384 
L 251.582727 190.238342 
L 251.887091 191.51544 
L 252.140727 188.131349 
L 252.445091 183.183864 
L 252.749455 181.895894 
L 252.952364 181.037731 
L 253.053818 180.850733 
L 253.256727 180.323803 
L 253.358182 180.583282 
L 253.561091 182.02056 
L 254.068364 186.986165 
L 254.169818 186.793368 
L 254.372727 186.717264 
L 254.524909 186.831058 
L 254.727818 187.451486 
L 255.082909 189.554856 
L 255.285818 190.854422 
L 255.640909 183.653534 
L 255.843818 182.244523 
L 255.945273 182.467037 
L 256.148182 183.94273 
L 256.300364 184.944403 
L 256.452545 184.600848 
L 256.503273 184.64796 
L 256.655455 185.317675 
L 257.061273 188.800339 
L 257.467091 191.995982 
L 257.619273 191.644454 
L 257.67 191.524138 
L 257.822182 188.684371 
L 258.075818 185.205331 
L 258.177273 184.917586 
L 258.228 184.943678 
L 258.380182 185.507573 
L 258.735273 188.236445 
L 259.039636 190.350686 
L 259.344 190.327493 
L 259.546909 190.957344 
L 260.46 195.154661 
L 260.510727 194.963314 
L 260.713636 192.654826 
L 261.525273 180.345547 
L 261.576 180.350621 
L 261.728182 181.047878 
L 262.184727 183.726739 
L 262.489091 184.970496 
L 262.539818 184.618968 
L 262.793455 182.049552 
L 262.844182 181.968374 
L 262.894909 182.008963 
L 263.047091 182.685202 
L 263.402182 185.903314 
L 264.163091 192.720782 
L 264.416727 194.23489 
L 264.467455 194.139941 
L 264.873273 190.895011 
L 265.076182 187.07459 
L 265.431273 181.325477 
L 265.532727 180.97105 
L 265.583455 180.982646 
L 265.735636 181.592203 
L 266.04 184.314552 
L 266.395091 187.202155 
L 266.547273 187.500048 
L 266.598 187.373208 
L 266.851636 186.31645 
L 266.953091 186.45996 
L 267.156 187.430467 
L 267.409636 188.79889 
L 267.460364 188.689445 
L 267.612545 188.446637 
L 267.714 188.57855 
L 267.916909 189.240293 
L 268.221273 187.718213 
L 268.272 187.760976 
L 268.424182 188.281382 
L 268.880727 191.250163 
L 269.032909 192.064114 
L 269.388 190.911682 
L 269.438727 190.95517 
L 269.641636 191.537184 
L 270.301091 194.528434 
L 270.351818 194.243587 
L 270.656182 192.756298 
L 270.757636 192.731654 
L 270.909818 193.005629 
L 271.062 193.324541 
L 271.670727 188.540136 
L 271.822909 188.923555 
L 272.127273 190.649304 
L 272.279455 191.214648 
L 272.583818 190.602192 
L 272.736 190.886314 
L 273.040364 192.213422 
L 273.344727 193.632581 
L 273.496909 192.170659 
L 273.801273 189.145344 
L 273.902727 188.976466 
L 273.953455 189.011981 
L 274.105636 189.46933 
L 274.308545 189.879566 
L 274.511455 190.081061 
L 274.765091 190.884864 
L 275.018727 191.905382 
L 275.272364 189.441062 
L 275.323091 189.391776 
L 275.373818 189.445411 
L 275.576727 190.28473 
L 276.794182 196.93187 
L 276.844909 197.008699 
L 276.997091 196.213594 
L 277.555091 193.426013 
L 277.707273 193.284677 
L 278.417455 187.45801 
L 278.518909 187.761701 
L 278.772545 185.264765 
L 278.823273 185.287234 
L 278.975455 186.002611 
L 279.229091 187.314499 
L 279.381273 187.54571 
L 279.482727 187.068067 
L 279.634909 184.79292 
L 279.888545 181.684978 
L 279.99 181.568285 
L 280.192909 181.795872 
L 280.345091 182.152474 
L 280.598727 183.836184 
L 280.801636 184.819738 
L 280.953818 185.100235 
L 281.156727 186.1338 
L 282.120545 192.251112 
L 282.222 192.355483 
L 282.323455 191.517614 
L 282.678545 186.921658 
L 282.78 186.705667 
L 282.830727 186.736834 
L 282.982909 187.231872 
L 283.338 189.570802 
L 283.693091 191.732155 
L 284.048182 190.95372 
L 284.251091 189.521515 
L 284.555455 187.163741 
L 284.656909 187.102133 
L 284.809091 187.521067 
L 285.164182 189.72301 
L 285.975818 194.844446 
L 286.483091 196.726027 
L 286.635273 197.099299 
L 286.686 197.046389 
L 287.091818 194.93867 
L 287.446909 191.837976 
L 287.599091 191.691566 
L 287.700545 191.762597 
L 288.055636 189.541085 
L 288.106364 189.5766 
L 288.258545 190.039747 
L 288.664364 192.206899 
L 288.765818 192.079334 
L 288.968727 191.745926 
L 289.070182 191.811883 
L 289.273091 192.344611 
L 289.881818 195.052464 
L 289.983273 195.455453 
L 290.034 195.361229 
L 290.439818 193.591992 
L 290.541273 193.643453 
L 290.744182 194.118197 
L 291.15 195.608386 
L 291.200727 195.423562 
L 291.505091 193.321642 
L 291.606545 193.23829 
L 291.657273 193.281053 
L 291.860182 193.809432 
L 292.367455 195.774365 
L 292.519636 194.36173 
L 293.128364 183.546989 
L 293.229818 183.733987 
L 293.838545 186.230198 
L 294.041455 186.066394 
L 294.092182 186.143947 
L 294.295091 187.035451 
L 294.802364 191.016778 
L 295.461818 195.427186 
L 295.614 196.13604 
L 295.664727 196.028045 
L 296.019818 193.786238 
L 296.121273 193.746374 
L 296.172 193.585469 
L 296.425636 188.505346 
L 296.679273 185.13865 
L 296.780727 184.998763 
L 296.932909 185.548886 
L 297.592364 188.911958 
L 297.846 188.334293 
L 297.998182 188.79744 
L 298.657636 191.60749 
L 298.911273 192.351134 
L 299.215636 193.679693 
L 299.266364 193.48907 
L 299.570727 192.070637 
L 299.672182 192.086582 
L 299.824364 192.447533 
L 299.976545 192.951994 
L 300.027273 192.870091 
L 300.331636 191.977138 
L 300.433091 192.098179 
L 300.636 192.646128 
L 300.686727 192.433762 
L 301.143273 189.833904 
L 301.194 189.570802 
L 301.447636 186.397627 
L 301.549091 186.320074 
L 301.701273 186.925282 
L 301.904182 188.317622 
L 301.954909 188.153093 
L 302.157818 187.652256 
L 302.259273 187.83853 
L 302.512909 188.79599 
L 302.563636 188.615515 
L 302.766545 188.131349 
L 302.918727 188.602469 
L 303.324545 191.31757 
L 303.730364 193.857994 
L 303.933273 191.298 
L 304.288364 188.485051 
L 304.694182 186.746256 
L 304.795636 186.864398 
L 304.998545 187.742131 
L 305.150727 188.607542 
L 305.201455 188.477078 
L 305.505818 185.178514 
L 305.759455 183.484656 
L 305.860909 183.516547 
L 306.013091 184.227576 
L 306.469636 187.702267 
L 306.571091 187.596446 
L 306.672545 187.668926 
L 306.824727 188.211077 
L 307.179818 190.11875 
L 307.230545 190.016554 
L 307.382727 189.459907 
L 307.687091 187.96392 
L 307.788545 188.094384 
L 307.991455 189.008357 
L 308.092909 189.551957 
L 308.295818 187.685597 
L 308.600182 182.571408 
L 308.701636 182.369914 
L 308.803091 182.659109 
L 309.006 183.86735 
L 309.208909 182.23655 
L 309.310364 182.549664 
L 309.564 184.771176 
L 310.020545 189.720835 
L 310.071273 189.664301 
L 310.223455 187.776922 
L 310.527818 183.286786 
L 310.629273 183.104136 
L 310.730727 183.355642 
L 310.984364 185.132126 
L 311.745273 192.135869 
L 311.796 191.633582 
L 312.252545 184.481981 
L 312.404727 184.094213 
L 312.556909 184.68275 
L 312.912 187.668202 
L 313.672909 193.923226 
L 313.723636 194.055864 
L 313.774364 193.939896 
L 313.875818 193.31077 
L 314.433818 185.949701 
L 314.788909 177.744965 
L 314.890364 177.36227 
L 314.941091 177.420979 
L 315.093273 178.320456 
L 315.448364 182.532269 
L 316.209273 191.373379 
L 316.361455 192.338088 
L 316.818 189.90276 
L 317.020909 188.63581 
L 317.274545 187.102133 
L 317.426727 186.02653 
L 317.731091 182.61997 
L 318.035455 181.663234 
L 318.086182 181.745136 
L 318.238364 182.461963 
L 318.593455 185.664854 
L 319.151455 190.602192 
L 319.354364 190.97329 
L 319.405091 190.897186 
L 320.064545 186.047549 
L 320.216727 185.610494 
L 320.267455 185.629339 
L 320.419636 186.073642 
L 320.673273 187.388429 
L 320.724 187.252166 
L 320.876182 186.473731 
L 321.738545 176.56789 
L 321.84 176.794752 
L 322.042909 178.276968 
L 322.905273 185.980867 
L 323.108182 186.998486 
L 323.311091 185.384357 
L 324.021273 181.218206 
L 324.122727 181.317504 
L 324.325636 182.487331 
L 324.985091 188.923555 
L 325.543091 193.141166 
L 325.746 194.055864 
L 325.898182 193.048392 
L 326.405455 187.916083 
L 326.608364 187.31015 
L 326.709818 187.466707 
L 326.912727 188.367634 
L 327.115636 189.153317 
L 327.369273 188.974291 
L 327.572182 189.278707 
L 327.724364 188.211802 
L 327.978 186.687547 
L 328.079455 186.581002 
L 328.130182 186.625214 
L 328.231636 186.762202 
L 328.333091 186.378058 
L 328.688182 184.26599 
L 328.789636 184.358765 
L 328.992545 185.291582 
L 329.398364 188.485776 
L 329.449091 188.443738 
L 329.804182 185.075592 
L 329.905636 185.085739 
L 329.956364 185.187211 
L 330.007091 185.111107 
L 330.260727 184.21163 
L 330.362182 184.366013 
L 330.615818 185.329997 
L 330.666545 185.274912 
L 330.818727 184.997314 
L 331.123091 183.578155 
L 331.224545 183.820238 
L 331.478182 185.459736 
L 331.833273 187.901587 
L 332.036182 187.71169 
L 332.188364 188.020454 
L 332.492727 189.584573 
L 332.746364 190.776869 
L 333.050727 190.127448 
L 333.202909 190.400698 
L 333.507273 191.677795 
L 334.065273 194.160235 
L 334.420364 192.150365 
L 334.521818 192.198202 
L 334.724727 192.737453 
L 336.145091 197.592163 
L 336.703091 198.4554 
L 336.956727 198.705456 
L 337.058182 198.279274 
L 337.464 196.016448 
L 337.616182 195.896131 
L 337.768364 196.02587 
L 338.123455 196.774589 
L 338.782909 198.206794 
L 338.833636 198.006024 
L 338.985818 194.729928 
L 339.239455 191.313946 
L 339.391636 191.000107 
L 339.543818 191.318294 
L 339.898909 193.076659 
L 340.254 195.001003 
L 340.304727 194.956066 
L 340.609091 193.297723 
L 341.37 182.3286 
L 341.420727 182.408328 
L 341.522182 182.559811 
L 341.572909 182.517773 
L 341.674364 182.480083 
L 341.775818 182.699698 
L 342.029455 184.144224 
L 342.130909 183.932582 
L 342.232364 183.819514 
L 342.333818 184.100011 
L 342.587455 186.021456 
L 342.993273 189.634584 
L 343.348364 187.531939 
L 343.449818 187.689946 
L 343.652727 188.661178 
L 344.565818 193.873939 
L 344.718 193.923226 
L 344.971636 193.010702 
L 345.073091 191.779267 
L 345.478909 185.131402 
L 345.631091 183.495528 
L 345.834 182.154648 
L 345.935455 182.313379 
L 346.138364 183.639038 
L 346.493455 186.807139 
L 346.544182 186.688272 
L 347.000727 185.62499 
L 347.051455 185.722114 
L 347.254364 186.762926 
L 348.218182 194.145014 
L 348.268909 193.792037 
L 348.522545 192.624384 
L 348.624 192.572198 
L 349.080545 188.971392 
L 349.131273 188.759026 
L 349.841455 179.768606 
L 349.942909 180.104914 
L 350.196545 182.43732 
L 351.211091 193.203499 
L 351.414 194.027597 
L 351.464727 194.060938 
L 351.667636 191.929301 
L 351.921273 190.631909 
L 352.022727 190.665974 
L 352.225636 191.264659 
L 352.682182 193.516613 
L 352.783636 193.299898 
L 353.088 192.458405 
L 353.240182 192.5664 
L 353.493818 193.279603 
L 354.254727 195.910627 
L 354.305455 195.875112 
L 354.711273 195.477197 
L 354.914182 195.652598 
L 355.167818 196.122994 
L 355.218545 196.087478 
L 355.725818 194.463926 
L 355.776545 194.487845 
L 355.979455 194.845171 
L 356.030182 194.979259 
L 356.080909 194.882136 
L 356.233091 193.687666 
L 356.486727 186.357763 
L 356.791091 179.067725 
L 356.994 177.952982 
L 357.095455 178.23348 
L 357.298364 179.880226 
L 358.465091 191.926402 
L 358.668 192.22212 
L 358.972364 193.262208 
L 359.124545 193.831901 
L 359.175273 193.811606 
L 359.378182 193.241189 
L 359.581091 191.648078 
L 359.936182 188.496648 
L 360.088364 188.099458 
L 360.240545 184.660282 
L 360.494182 179.290963 
L 360.595636 178.977125 
L 360.646364 179.080046 
L 360.697091 179.299661 
L 360.747818 179.204712 
L 360.9 178.679232 
L 361.001455 179.025686 
L 361.255091 181.472611 
L 362.320364 193.407893 
L 362.523273 194.66687 
L 362.878364 192.172834 
L 362.929091 192.20255 
L 363.081273 192.588144 
L 363.588545 194.917651 
L 363.892909 196.08168 
L 364.450909 194.224742 
L 364.501636 194.118197 
L 364.907455 189.691843 
L 365.008909 189.564278 
L 365.059636 189.607766 
L 365.211818 190.048445 
L 365.465455 191.378453 
L 365.516182 191.342213 
L 365.769818 189.854198 
L 365.922 189.900586 
L 366.277091 189.816509 
L 366.48 190.371706 
L 366.885818 192.448258 
L 367.646727 196.199822 
L 367.900364 196.985506 
L 368.154 193.814506 
L 368.407636 189.724459 
L 368.509091 189.445411 
L 368.559818 189.480926 
L 368.712 190.023802 
L 369.219273 193.386874 
L 369.625091 195.676517 
L 370.081636 192.291701 
L 370.335273 190.837752 
L 370.436727 190.603642 
L 370.690364 189.949872 
L 370.791818 190.060766 
L 370.994727 190.823981 
L 371.502 193.692739 
L 371.603455 193.539082 
L 371.857091 193.193352 
L 372.06 193.45283 
L 372.465818 191.936549 
L 372.567273 191.848123 
L 372.871636 191.365406 
L 373.074545 191.528486 
L 373.429636 189.549782 
L 373.531091 189.725184 
L 373.581818 189.900586 
L 373.581818 189.900586 
" style="fill:none;stroke:#000000;stroke-linecap:square;stroke-width:1.5;"/>
   </g>
   <g id="line2d_16">
    <path clip-path="url(#p23cb8aaf64)" d="M 69.218182 150.528 
L 69.370364 189.388877 
L 69.674727 197.00435 
L 70.029818 200.853038 
L 70.384909 202.589659 
L 70.689273 203.255026 
L 71.196545 199.612906 
L 71.348727 199.794106 
L 71.500909 200.161579 
L 71.551636 200.137661 
L 71.653091 199.426632 
L 72.058909 195.685214 
L 72.160364 195.605486 
L 72.312545 195.920774 
L 72.667636 197.603035 
L 73.377818 200.898701 
L 73.682182 201.705403 
L 74.088 198.627178 
L 74.189455 198.61993 
L 74.392364 199.029442 
L 75.660545 202.468618 
L 75.762 202.528051 
L 75.863455 201.368371 
L 76.421455 189.815059 
L 76.878 187.616741 
L 76.979455 187.833456 
L 77.233091 189.636758 
L 78.196909 197.628403 
L 78.653455 199.610006 
L 78.704182 199.672339 
L 78.907091 198.193747 
L 79.11 197.43923 
L 79.211455 197.394293 
L 79.363636 196.530331 
L 79.972364 190.596394 
L 80.124545 190.149917 
L 80.226 190.291978 
L 80.428909 191.239291 
L 80.733273 193.158562 
L 80.784 192.92735 
L 81.544909 188.352413 
L 81.595636 188.377781 
L 81.747818 188.876443 
L 81.9 189.490349 
L 82.102909 188.704666 
L 82.153636 188.715538 
L 82.305818 189.191731 
L 82.660909 191.612563 
L 83.269636 195.504014 
L 83.675455 195.001728 
L 83.726182 195.04739 
L 83.878364 195.116971 
L 84.132 194.441458 
L 84.69 189.033 
L 84.740727 189.076488 
L 84.892909 189.568627 
L 85.248 191.44151 
L 85.298727 191.339314 
L 85.552364 190.879066 
L 85.704545 191.209574 
L 85.856727 191.71621 
L 85.907455 191.626334 
L 86.211818 190.875442 
L 86.364 191.042146 
L 86.719091 188.497373 
L 86.871273 188.938776 
L 87.277091 191.478475 
L 87.936545 195.28295 
L 88.038 195.706234 
L 88.088727 195.605486 
L 88.393091 192.967214 
L 88.545273 192.582346 
L 88.849636 191.609664 
L 88.951091 191.649528 
L 89.154 192.148915 
L 89.509091 193.592717 
L 89.559818 193.38035 
L 90.016364 188.780045 
L 90.117818 188.855424 
L 90.320727 189.645456 
L 91.132364 194.426962 
L 91.183091 194.400869 
L 91.487455 190.530437 
L 91.639636 187.263763 
L 92.248364 175.279195 
L 92.400545 174.631949 
L 92.451273 174.679061 
L 92.603455 175.524178 
L 94.632545 193.228142 
L 94.683273 193.267282 
L 94.784727 192.870091 
L 95.190545 190.775419 
L 95.342727 190.684094 
L 95.494909 190.893562 
L 95.799273 191.812608 
L 95.900727 192.138768 
L 95.951455 192.09528 
L 96.408 190.910957 
L 96.560182 191.13637 
L 96.915273 192.328666 
L 97.422545 194.116022 
L 97.777636 191.922053 
L 98.132727 188.725685 
L 98.234182 188.704666 
L 98.386364 189.015605 
L 98.690727 182.78015 
L 98.792182 182.461963 
L 98.842909 182.512699 
L 98.995091 183.215755 
L 99.451636 187.241294 
L 99.857455 190.060042 
L 100.111091 189.872318 
L 100.364727 190.173835 
L 100.415455 190.050619 
L 100.669091 189.528763 
L 100.872 189.565728 
L 101.277818 187.263038 
L 101.734364 185.061821 
L 101.886545 184.714642 
L 101.937273 184.737835 
L 102.089455 185.15677 
L 102.393818 186.783946 
L 102.495273 186.647683 
L 102.647455 186.229474 
L 102.951818 183.97752 
L 103.053273 184.026082 
L 103.256182 184.924109 
L 104.169273 191.175509 
L 104.270727 191.000832 
L 104.524364 190.290528 
L 104.676545 190.211525 
L 105.031636 187.971893 
L 105.133091 187.954498 
L 105.285273 188.286456 
L 105.691091 190.04772 
L 105.792545 189.896237 
L 106.198364 188.534338 
L 106.553455 184.046376 
L 106.654909 183.899966 
L 106.705636 183.966648 
L 106.908545 184.849454 
L 108.126 192.659174 
L 108.176727 192.597566 
L 108.633273 191.22697 
L 108.785455 191.355984 
L 109.089818 192.11195 
L 110.053636 194.738626 
L 110.510182 195.383698 
L 110.662364 194.534232 
L 110.763818 193.620259 
L 111.118909 188.627837 
L 111.575455 186.517944 
L 111.727636 186.792643 
L 111.981273 187.712414 
L 112.032 187.608768 
L 112.336364 186.466483 
L 112.945091 179.347498 
L 113.046545 179.11991 
L 113.097273 179.165573 
L 113.249455 179.52145 
L 113.452364 178.936536 
L 113.503091 178.999594 
L 113.655273 179.741064 
L 114.061091 183.509299 
L 114.365455 185.690222 
L 114.517636 186.014933 
L 114.822 182.389483 
L 114.923455 182.454715 
L 115.126364 183.454939 
L 116.090182 189.951322 
L 116.140909 189.786792 
L 116.445273 188.826432 
L 116.546727 188.867021 
L 116.597455 188.613341 
L 116.851091 185.221277 
L 116.952545 185.08284 
L 117.104727 185.495251 
L 117.459818 187.415246 
L 117.561273 187.257965 
L 117.814909 186.729586 
L 118.017818 186.918758 
L 118.068545 186.778872 
L 118.372909 185.719939 
L 118.474364 185.783722 
L 118.677273 186.410674 
L 118.930909 187.534114 
L 118.981636 187.361611 
L 119.286 186.162792 
L 119.387455 186.228749 
L 119.590364 186.860774 
L 120.351273 190.271683 
L 120.402 190.222397 
L 120.554182 189.083736 
L 120.706364 185.288683 
L 121.010727 177.096269 
L 121.213636 175.830768 
L 121.315091 175.865558 
L 121.416545 175.304563 
L 121.670182 173.152632 
L 121.771636 173.216414 
L 121.974545 173.30339 
L 122.126727 173.918746 
L 122.431091 176.65559 
L 122.938364 181.921987 
L 122.989091 181.908216 
L 123.141273 181.912565 
L 123.293455 182.388034 
L 123.75 184.753781 
L 123.851455 184.568232 
L 124.054364 184.137701 
L 124.358727 182.135803 
L 124.510909 181.898794 
L 124.815273 180.95148 
L 124.916727 181.116734 
L 125.170364 182.293085 
L 126.083455 188.01828 
L 126.134182 187.98349 
L 126.337091 186.706392 
L 126.641455 183.373037 
L 126.793636 182.504726 
L 127.199455 174.468869 
L 127.300909 174.223886 
L 127.351636 174.287669 
L 127.503818 175.022616 
L 127.858909 178.384238 
L 128.061818 179.868629 
L 128.112545 179.853408 
L 128.366182 178.521226 
L 128.670545 176.858534 
L 128.772 176.92884 
L 128.974909 177.839914 
L 129.482182 181.996642 
L 129.532909 182.414851 
L 129.583636 182.397456 
L 130.040182 179.499706 
L 130.141636 179.659162 
L 130.192364 179.590306 
L 130.446 178.443672 
L 130.547455 178.50673 
L 130.699636 179.077872 
L 131.105455 181.543642 
L 131.206909 181.489282 
L 131.359091 181.515374 
L 131.562 182.090866 
L 132.018545 184.576205 
L 132.779455 188.434315 
L 133.033091 189.128674 
L 133.083818 188.903261 
L 133.236 185.748206 
L 133.540364 179.371416 
L 133.794 176.606304 
L 133.895455 176.44105 
L 133.996909 176.678059 
L 134.250545 178.355971 
L 135.062182 185.258966 
L 135.112909 185.041526 
L 135.366545 183.901416 
L 135.518727 184.008686 
L 135.873818 182.02201 
L 135.924545 182.05535 
L 136.076727 182.519222 
L 136.228909 183.296208 
L 136.279636 183.228802 
L 136.584 181.555963 
L 136.685455 181.660334 
L 136.888364 182.501827 
L 138.156545 189.113453 
L 138.410182 189.77592 
L 138.511636 189.464981 
L 138.917455 187.78417 
L 139.069636 187.712414 
L 139.272545 187.940726 
L 139.729091 189.01488 
L 140.49 190.677571 
L 141.098727 191.473402 
L 141.149455 191.522688 
L 141.250909 190.613064 
L 141.555273 187.603694 
L 141.656727 187.305802 
L 142.011818 183.315778 
L 142.113273 183.30853 
L 142.265455 183.753557 
L 142.722 186.219326 
L 143.127818 188.319797 
L 143.178545 188.195131 
L 143.482909 185.435818 
L 143.635091 185.309702 
L 144.345273 170.863714 
L 144.548182 169.88016 
L 144.649636 170.16863 
L 144.852545 171.801605 
L 145.309091 176.701978 
L 145.359818 176.627323 
L 145.461273 176.593258 
L 145.613455 177.128885 
L 145.867091 178.313933 
L 146.019273 178.276243 
L 146.171455 178.641542 
L 146.475818 180.439771 
L 147.033818 184.363114 
L 147.084545 184.112333 
L 147.338182 183.00049 
L 147.490364 182.180016 
L 147.744 181.287787 
L 147.845455 181.33055 
L 148.251273 180.237552 
L 148.302 180.307858 
L 148.504909 180.91524 
L 148.606364 179.970101 
L 149.062909 174.908822 
L 149.316545 174.141984 
L 149.519455 173.754941 
L 149.620909 173.99485 
L 149.823818 175.219037 
L 151.345636 187.019506 
L 151.396364 187.122427 
L 151.447091 187.085462 
L 151.65 186.368635 
L 152.208 176.45917 
L 152.360182 176.0772 
L 152.461636 176.269272 
L 152.664545 177.360096 
L 153.273273 181.572634 
L 153.324 181.551614 
L 153.476182 181.540742 
L 153.679091 181.778477 
L 154.034182 179.458392 
L 154.287818 178.349448 
L 154.389273 178.349448 
L 154.541455 178.782878 
L 154.744364 179.617848 
L 154.795091 179.580158 
L 154.845818 179.50043 
L 154.998 178.0704 
L 155.200909 176.617901 
L 155.302364 176.58311 
L 155.454545 177.107866 
L 155.758909 178.901021 
L 155.809636 178.801723 
L 156.215455 176.491786 
L 156.266182 176.51063 
L 156.418364 176.915069 
L 156.469091 176.867957 
L 156.672 174.995074 
L 156.976364 170.420136 
L 157.027091 170.34983 
L 157.077818 170.409264 
L 157.23 170.502038 
L 157.331455 170.593363 
L 157.432909 170.903578 
L 157.483636 170.831822 
L 157.635818 168.03047 
L 158.092364 160.327296 
L 158.244545 159.502474 
L 158.346 159.91561 
L 158.599636 162.300926 
L 158.650364 161.747904 
L 159.056182 157.597699 
L 159.157636 157.852829 
L 159.360545 159.785146 
L 160.070727 168.12107 
L 160.375091 171.083328 
L 160.628727 172.912723 
L 160.831636 173.746243 
L 160.882364 173.637523 
L 161.136 172.285771 
L 161.237455 172.369123 
L 161.440364 173.301216 
L 161.694 175.214688 
L 161.744727 175.192944 
L 161.947636 172.788782 
L 162.454909 166.414166 
L 162.505636 166.323566 
L 162.556364 166.360531 
L 162.708545 167.083882 
L 163.165091 169.913501 
L 163.570909 171.846542 
L 163.621636 171.697234 
L 163.875273 170.760067 
L 164.027455 170.945616 
L 164.128909 171.11232 
L 164.179636 171.065208 
L 164.331818 170.191824 
L 164.686909 166.54463 
L 164.788364 166.277179 
L 164.889818 165.335664 
L 165.194182 161.96317 
L 165.244909 161.974766 
L 165.397091 162.745954 
L 165.701455 166.153238 
L 166.462364 174.977678 
L 166.716 175.5336 
L 167.020364 176.988274 
L 167.578364 179.970101 
L 167.629091 179.851234 
L 167.882727 176.104742 
L 168.39 168.003653 
L 168.491455 168.184853 
L 168.694364 169.467749 
L 169.353818 174.381893 
L 169.556727 174.924043 
L 169.911818 176.913619 
L 170.114727 178.067501 
L 170.165455 178.013141 
L 170.419091 177.515203 
L 170.469818 177.547094 
L 170.571273 176.717923 
L 170.824909 175.008845 
L 170.926364 175.016818 
L 171.078545 175.500259 
L 171.484364 177.929789 
L 171.535091 177.752213 
L 171.636545 176.133734 
L 172.143818 161.7624 
L 172.397455 158.044901 
L 172.701818 153.625795 
L 173.412 138.664474 
L 173.513455 138.323093 
L 173.614909 138.953669 
L 173.817818 141.752846 
L 173.919273 141.45133 
L 173.97 141.378125 
L 174.071455 141.892733 
L 174.477273 146.296618 
L 174.528 146.290094 
L 174.730909 145.015896 
L 174.832364 145.422509 
L 175.035273 148.04411 
L 175.542545 154.723142 
L 175.745455 155.832086 
L 175.796182 155.669731 
L 175.897636 155.470411 
L 175.948364 155.547965 
L 176.100545 156.480058 
L 176.557091 161.509445 
L 176.658545 161.307226 
L 176.76 161.145595 
L 176.810727 161.18256 
L 176.962909 161.795741 
L 178.180364 169.433683 
L 178.535455 171.410213 
L 178.738364 172.805453 
L 178.789091 172.785158 
L 179.042727 172.14661 
L 179.194909 172.498862 
L 179.499273 174.181123 
L 179.600727 174.59281 
L 179.651455 174.466694 
L 179.803636 173.288894 
L 179.955818 171.508786 
L 180.463091 156.292334 
L 181.224 142.173955 
L 181.376182 141.44843 
L 181.477636 141.985507 
L 182.34 150.838214 
L 182.390727 150.675859 
L 182.593636 149.074051 
L 182.644364 149.083474 
L 182.745818 149.616202 
L 183.658909 157.59625 
L 183.709636 157.548413 
L 183.963273 156.240149 
L 184.572 149.480664 
L 185.079273 139.795886 
L 185.13 139.795886 
L 185.231455 140.284402 
L 185.434364 142.773365 
L 185.941636 153.047405 
L 186.246 157.637563 
L 186.296727 157.917336 
L 186.347455 157.749907 
L 186.804 151.249901 
L 186.905455 151.68623 
L 187.260545 155.324726 
L 187.311273 154.945656 
L 187.767818 150.261998 
L 187.869273 150.581635 
L 188.072182 152.379139 
L 188.528727 159.150221 
L 189.188182 168.590016 
L 189.238909 168.806731 
L 189.289636 168.777014 
L 189.441818 164.046245 
L 189.949091 147.989026 
L 190.101273 147.135936 
L 190.354909 147.509933 
L 190.456364 147.252629 
L 190.557818 146.744544 
L 190.811455 143.401766 
L 191.724545 123.53065 
L 191.826 124.041634 
L 192.079636 127.095216 
L 192.333273 130.082117 
L 192.434727 130.281437 
L 192.586909 131.693347 
L 192.992727 135.727584 
L 193.043455 135.803688 
L 193.094182 135.700766 
L 193.144909 135.632635 
L 193.195636 135.685546 
L 193.347818 136.706064 
L 193.652182 141.538306 
L 194.159455 148.651493 
L 194.768182 156.745334 
L 195.021818 156.219854 
L 195.123273 156.519197 
L 195.326182 157.401278 
L 195.376909 157.313578 
L 195.478364 157.100486 
L 195.884182 152.524824 
L 195.985636 152.810395 
L 196.239273 154.283189 
L 196.29 154.157074 
L 196.543636 150.243154 
L 197.253818 137.95127 
L 197.659636 134.50847 
L 197.710364 134.551234 
L 197.964 135.311549 
L 198.319091 132.822586 
L 198.369818 132.955949 
L 198.522 134.459909 
L 199.638 151.319482 
L 199.688727 151.194816 
L 200.094545 145.882757 
L 200.196 146.084976 
L 200.449636 147.813624 
L 200.500364 147.691858 
L 200.703273 146.95981 
L 200.754 146.996774 
L 200.906182 147.749117 
L 201.058364 148.531901 
L 201.159818 148.519579 
L 201.261273 148.909522 
L 201.464182 150.874454 
L 201.667091 152.584982 
L 202.072909 153.346747 
L 202.326545 155.360966 
L 202.884545 160.271486 
L 203.138182 159.940253 
L 203.188909 160.041725 
L 203.442545 161.276059 
L 203.493273 161.010058 
L 203.949818 152.858232 
L 204.000545 152.979274 
L 204.051273 153.152501 
L 204.102 153.051029 
L 204.355636 151.525325 
L 205.065818 138.233942 
L 205.116545 138.236842 
L 205.522364 135.061493 
L 205.623818 135.576826 
L 205.826727 138.198427 
L 206.283273 144.409238 
L 206.587636 146.048736 
L 206.790545 147.106219 
L 207.044182 150.070651 
L 208.210909 167.556451 
L 208.261636 166.786714 
L 208.718182 152.644416 
L 209.326909 143.409014 
L 209.377636 143.358278 
L 209.428364 143.440181 
L 209.529818 143.676466 
L 209.834182 142.068859 
L 209.935636 142.272528 
L 209.986364 142.388496 
L 210.037091 142.364578 
L 210.290727 140.965714 
L 210.341455 141.025147 
L 210.493636 142.063786 
L 211.000909 146.77571 
L 211.051636 146.787307 
L 211.356 145.148534 
L 211.558909 144.36575 
L 211.711091 144.649872 
L 211.761818 144.60131 
L 211.812545 144.432432 
L 211.964727 141.174456 
L 212.624182 125.100566 
L 212.725636 125.684755 
L 213.232909 130.058923 
L 213.435818 131.359214 
L 213.486545 130.925059 
L 214.044545 120.881506 
L 214.095273 120.90325 
L 214.196727 121.494686 
L 214.704 126.132682 
L 214.754727 126.021787 
L 215.008364 125.026637 
L 215.769273 114.544579 
L 215.921455 114.81203 
L 216.073636 115.791235 
L 216.225818 117.682963 
L 216.276545 117.290846 
L 216.479455 115.857192 
L 216.530182 115.784712 
L 216.580909 115.86299 
L 216.783818 116.509512 
L 217.138909 118.899902 
L 217.291091 117.819226 
L 217.595455 113.116723 
L 217.950545 104.986642 
L 218.001273 104.911987 
L 218.102727 105.428045 
L 218.407091 108.43669 
L 219.117273 120.638698 
L 219.168 120.502435 
L 219.320182 119.331883 
L 219.523091 118.118568 
L 219.573818 118.057685 
L 219.726 117.35028 
L 219.776727 117.373474 
L 219.928909 118.383845 
L 220.182545 122.375318 
L 220.740545 131.82816 
L 220.892727 133.495925 
L 220.943455 133.421995 
L 221.095636 132.380458 
L 221.552182 128.817341 
L 221.958 124.695403 
L 222.059455 124.896173 
L 222.211636 126.35592 
L 222.566727 133.010309 
L 223.581273 153.966451 
L 224.139273 158.819712 
L 224.443636 157.928933 
L 224.545091 158.0478 
L 224.748 159.039326 
L 224.950909 159.534365 
L 225.103091 159.811238 
L 225.306 160.734634 
L 225.711818 163.97449 
L 226.523455 170.432458 
L 226.878545 170.083104 
L 227.335091 170.545526 
L 227.487273 170.549875 
L 227.639455 170.69701 
L 227.791636 169.856966 
L 228.045273 168.711058 
L 228.146727 168.669019 
L 228.298909 168.971986 
L 228.603273 170.402016 
L 229.567091 175.917744 
L 229.668545 175.032763 
L 230.023636 169.37135 
L 230.125091 169.195224 
L 230.175818 169.245235 
L 230.328 169.770715 
L 230.886 172.262578 
L 231.088909 172.609757 
L 231.393273 173.752766 
L 231.596182 174.634848 
L 231.646909 174.552221 
L 231.951273 173.654918 
L 232.052727 173.746968 
L 232.255636 174.413059 
L 232.915091 177.94501 
L 233.574545 180.826814 
L 233.625273 180.935534 
L 233.726727 180.40788 
L 234.183273 176.11199 
L 234.487636 173.085226 
L 234.639818 172.825747 
L 234.741273 172.97868 
L 234.893455 173.507784 
L 234.944182 173.291794 
L 235.197818 171.924821 
L 235.299273 171.984254 
L 235.958727 173.746243 
L 236.110909 174.344203 
L 236.161636 174.310138 
L 236.364545 172.511184 
L 236.618182 171.308741 
L 236.719636 171.424709 
L 236.922545 172.316938 
L 237.074727 172.704706 
L 237.277636 172.605408 
L 237.379091 172.763414 
L 237.429818 172.719926 
L 237.582 171.716078 
L 238.038545 166.642478 
L 238.292182 164.013629 
L 238.393636 163.649054 
L 238.850182 160.69332 
L 238.951636 160.728835 
L 239.205273 158.477606 
L 239.256 158.514571 
L 239.408182 159.344467 
L 239.661818 161.849376 
L 239.712545 161.729059 
L 240.270545 158.123904 
L 240.372 158.439192 
L 240.879273 160.87307 
L 240.980727 161.407973 
L 241.031455 161.336942 
L 241.589455 157.825286 
L 241.640182 157.857902 
L 241.792364 158.596474 
L 241.995273 159.562632 
L 242.096727 159.703243 
L 242.248909 160.551259 
L 243.060545 166.994006 
L 243.314182 164.461555 
L 243.618545 161.821109 
L 243.872182 160.378032 
L 243.973636 160.545461 
L 244.176545 161.952298 
L 245.140364 170.499139 
L 245.698364 174.218813 
L 246.154909 171.246408 
L 246.307091 171.610982 
L 246.611455 173.301216 
L 247.473818 178.751712 
L 247.828909 174.444226 
L 248.589818 164.829754 
L 248.792727 164.049869 
L 248.894182 164.146267 
L 249.046364 164.837002 
L 249.350727 167.534707 
L 250.365273 177.695678 
L 250.416 177.594206 
L 250.669636 176.284493 
L 250.771091 176.306237 
L 250.974 176.909995 
L 251.075455 177.145555 
L 251.430545 175.251653 
L 251.532 175.42343 
L 251.785636 176.558467 
L 251.887091 176.949134 
L 252.140727 173.441102 
L 252.445091 168.047866 
L 253.256727 164.259336 
L 253.307455 164.299925 
L 253.459636 164.98921 
L 253.764 167.960165 
L 254.068364 171.086227 
L 254.119091 171.028243 
L 254.271273 170.930395 
L 254.474182 171.063758 
L 254.626364 171.43703 
L 254.88 172.769938 
L 255.285818 175.748866 
L 255.691636 167.630381 
L 255.843818 166.680893 
L 255.894545 166.694664 
L 256.046727 167.41584 
L 256.300364 169.297421 
L 256.351091 169.148837 
L 256.452545 168.937195 
L 256.503273 168.981408 
L 256.655455 169.672142 
L 257.010545 172.913448 
L 257.467091 177.115114 
L 257.517818 177.101342 
L 257.67 176.796202 
L 257.822182 173.924544 
L 258.075818 170.193998 
L 258.228 169.820002 
L 258.329455 170.083104 
L 258.583091 171.76609 
L 259.090364 175.478515 
L 259.293273 175.493736 
L 259.496182 176.093146 
L 259.952727 178.611826 
L 260.46 181.157323 
L 260.561455 180.613723 
L 260.865818 176.014142 
L 261.576 164.863819 
L 261.626727 164.922528 
L 261.778909 165.715459 
L 262.134 167.733302 
L 262.286182 168.205872 
L 262.489091 169.072733 
L 262.641273 167.228842 
L 262.844182 165.856795 
L 262.945636 165.999581 
L 263.148545 167.294798 
L 263.757273 173.781758 
L 264.366 179.119186 
L 264.416727 179.454768 
L 264.467455 179.418528 
L 264.822545 176.775907 
L 264.974727 174.492062 
L 265.482 165.519763 
L 265.583455 165.274781 
L 265.634182 165.33059 
L 265.786364 166.040894 
L 266.141455 169.48297 
L 266.395091 171.426883 
L 266.547273 171.796531 
L 266.598 171.687811 
L 266.851636 170.63975 
L 266.953091 170.796307 
L 267.156 171.841469 
L 267.409636 173.376595 
L 267.460364 173.289619 
L 267.612545 173.091749 
L 267.714 173.257003 
L 267.916909 174.017318 
L 267.967636 173.751317 
L 268.221273 172.493064 
L 268.322727 172.659768 
L 268.525636 173.68391 
L 269.032909 177.283992 
L 269.083636 177.124536 
L 269.337273 176.248978 
L 269.438727 176.306237 
L 269.641636 176.967254 
L 270.301091 180.413678 
L 270.351818 180.15275 
L 270.656182 178.693003 
L 270.757636 178.677058 
L 270.909818 178.980749 
L 271.062 179.335901 
L 271.670727 174.122414 
L 271.772182 174.270274 
L 271.975091 175.167576 
L 272.279455 176.737493 
L 272.583818 176.0772 
L 272.736 176.351174 
L 273.040364 177.740616 
L 273.344727 179.310533 
L 273.446182 178.569062 
L 273.801273 174.597158 
L 273.953455 174.378269 
L 274.105636 174.79068 
L 274.308545 175.175549 
L 274.511455 175.354574 
L 274.714364 175.963406 
L 275.018727 177.297038 
L 275.272364 174.739944 
L 275.323091 174.676162 
L 275.373818 174.71965 
L 275.526 175.282819 
L 275.982545 178.382789 
L 276.642 182.385859 
L 276.844909 183.177341 
L 276.997091 182.432246 
L 277.605818 179.418528 
L 277.707273 179.31923 
L 278.417455 172.878658 
L 278.468182 172.955486 
L 278.518909 173.122915 
L 278.823273 170.325912 
L 278.924727 170.656421 
L 279.330545 172.425658 
L 279.381273 172.45465 
L 279.482727 171.949464 
L 279.634909 169.540229 
L 279.888545 166.078584 
L 279.99 165.855346 
L 280.040727 165.929275 
L 280.345091 166.208323 
L 280.548 167.443382 
L 280.801636 168.928498 
L 280.953818 169.250309 
L 281.156727 170.383171 
L 281.714727 175.585786 
L 281.968364 177.255 
L 282.222 177.725395 
L 282.272727 177.54347 
L 282.830727 171.803054 
L 282.982909 172.237934 
L 283.287273 174.213014 
L 283.693091 176.975952 
L 283.743818 176.901298 
L 284.149636 175.78583 
L 284.656909 172.076304 
L 284.758364 172.25533 
L 285.012 173.567942 
L 286.381636 182.34527 
L 286.635273 183.214306 
L 286.686 183.191112 
L 287.041091 181.492181 
L 287.599091 177.499258 
L 287.649818 177.538397 
L 287.700545 177.529699 
L 288.106364 175.030589 
L 288.258545 175.437926 
L 288.715091 177.649291 
L 288.765818 177.54637 
L 288.968727 177.212962 
L 289.070182 177.284717 
L 289.273091 177.855134 
L 289.780364 180.360043 
L 289.983273 181.354469 
L 290.034 181.288512 
L 290.439818 179.529422 
L 290.541273 179.583782 
L 290.744182 180.090418 
L 291.15 181.737163 
L 291.200727 181.570459 
L 291.555818 179.323579 
L 291.657273 179.346048 
L 291.860182 179.888923 
L 292.367455 182.050277 
L 292.418182 181.704547 
L 292.570364 179.600453 
L 293.128364 168.785712 
L 293.229818 168.846595 
L 293.838545 171.078254 
L 293.889273 171.026069 
L 294.041455 170.872411 
L 294.142909 171.078254 
L 294.345818 172.18285 
L 295.005273 177.894998 
L 295.614 182.077094 
L 295.664727 182.012587 
L 296.019818 179.799773 
L 296.121273 179.762808 
L 296.172 179.599728 
L 296.374909 175.537949 
L 296.679273 170.426659 
L 296.780727 170.152685 
L 296.831455 170.199797 
L 297.085091 171.245683 
L 297.440182 173.093923 
L 297.592364 173.825246 
L 297.846 173.23091 
L 297.998182 173.709278 
L 298.708364 176.968704 
L 299.012727 178.187093 
L 299.215636 179.232254 
L 299.266364 179.067725 
L 299.570727 177.655814 
L 299.672182 177.673934 
L 299.824364 178.055904 
L 299.976545 178.603128 
L 300.027273 178.530648 
L 300.331636 177.615226 
L 300.433091 177.737717 
L 300.636 178.321181 
L 300.686727 178.109539 
L 301.549091 171.360926 
L 301.599818 171.453701 
L 301.802727 172.552498 
L 301.904182 173.27005 
L 301.954909 173.100446 
L 302.157818 172.540176 
L 302.259273 172.712678 
L 302.512909 173.705654 
L 302.563636 173.526629 
L 302.766545 173.024342 
L 302.918727 173.515757 
L 303.273818 176.051107 
L 303.730364 179.393885 
L 303.882545 177.54637 
L 304.186909 174.708778 
L 304.592727 172.104571 
L 304.744909 171.892205 
L 304.897091 172.287946 
L 305.150727 173.709278 
L 305.201455 173.583163 
L 305.353636 171.648672 
L 305.708727 168.35808 
L 305.810182 168.084106 
L 305.860909 168.117446 
L 306.013091 168.762518 
L 306.469636 172.34448 
L 306.621818 172.27345 
L 306.774 172.691659 
L 307.078364 174.721099 
L 307.179818 175.067554 
L 307.230545 174.986376 
L 307.332 174.764587 
L 307.687091 172.910549 
L 307.737818 172.933742 
L 307.89 173.409211 
L 308.092909 174.550771 
L 308.143636 174.175325 
L 308.346545 171.409488 
L 308.600182 167.104176 
L 308.701636 166.787438 
L 308.752364 166.835275 
L 308.904545 167.567323 
L 309.006 168.120346 
L 309.208909 166.31052 
L 309.310364 166.566374 
L 309.564 168.785712 
L 310.020545 174.116616 
L 310.071273 174.110818 
L 310.223455 172.250981 
L 310.527818 167.478898 
L 310.629273 167.221594 
L 310.68 167.27233 
L 310.832182 167.957266 
L 311.187273 171.232637 
L 311.745273 176.890426 
L 311.846727 175.398787 
L 312.252545 168.997354 
L 312.404727 168.487094 
L 312.506182 168.751646 
L 312.759818 170.583941 
L 313.723636 179.317781 
L 313.774364 179.248925 
L 313.875818 178.681406 
L 314.383091 172.595261 
L 314.839636 161.542061 
L 314.941091 161.318098 
L 315.042545 161.677598 
L 315.296182 164.131046 
L 316.361455 177.133234 
L 316.868727 174.759514 
L 316.970182 174.202867 
L 317.325273 171.81755 
L 317.426727 170.881109 
L 317.731091 167.079533 
L 318.035455 165.779242 
L 318.086182 165.814757 
L 318.238364 166.432286 
L 318.542727 169.111872 
L 319.202182 175.286443 
L 319.354364 175.664064 
L 319.405091 175.627099 
L 320.115273 170.380997 
L 320.267455 170.109922 
L 320.368909 170.312866 
L 320.673273 171.832771 
L 320.774727 171.465298 
L 320.876182 170.87821 
L 321.789273 159.720638 
L 321.890727 160.035202 
L 322.093636 161.657304 
L 322.905273 169.352506 
L 323.108182 170.591189 
L 323.260364 169.479346 
L 323.514 168.255883 
L 323.666182 167.015026 
L 324.072 164.645654 
L 324.173455 164.905133 
L 324.376364 166.319942 
L 325.746 179.122085 
L 325.796727 178.979299 
L 325.948909 177.619574 
L 326.405455 172.95911 
L 326.608364 172.244458 
L 326.709818 172.368398 
L 326.912727 173.261352 
L 327.115636 174.093422 
L 327.369273 173.921645 
L 327.572182 174.252154 
L 327.673636 173.628826 
L 327.978 171.493565 
L 328.079455 171.344256 
L 328.130182 171.372523 
L 328.231636 171.487766 
L 328.333091 171.070282 
L 328.688182 168.677717 
L 328.789636 168.707434 
L 328.941818 169.2822 
L 329.296909 171.995851 
L 329.398364 172.912723 
L 329.449091 172.899677 
L 329.854909 169.316266 
L 329.956364 169.438757 
L 330.007091 169.348157 
L 330.260727 168.313867 
L 330.311455 168.329088 
L 330.463636 168.837173 
L 330.615818 169.369901 
L 330.818727 169.003877 
L 331.123091 167.441933 
L 331.224545 167.660098 
L 331.427455 168.910378 
L 331.833273 172.002374 
L 331.884 171.958886 
L 332.036182 171.884232 
L 332.188364 172.249531 
L 332.492727 173.995574 
L 332.746364 175.39009 
L 333.050727 174.849389 
L 333.101455 174.913896 
L 333.304364 175.577813 
L 333.913091 178.927114 
L 334.065273 179.52145 
L 334.420364 177.549994 
L 334.521818 177.607978 
L 334.724727 178.193616 
L 336.348 184.348618 
L 336.906 185.320574 
L 336.956727 185.367686 
L 337.058182 184.960349 
L 337.464 182.577206 
L 337.666909 182.432971 
L 337.869818 182.701872 
L 338.377091 184.005787 
L 338.782909 184.956 
L 338.833636 184.765378 
L 338.985818 181.378387 
L 339.239455 177.626822 
L 339.391636 177.168749 
L 339.493091 177.264422 
L 339.696 178.005893 
L 340.254 181.150075 
L 340.355455 180.903643 
L 340.609091 179.425051 
L 341.065636 170.37085 
L 341.319273 167.311469 
L 341.420727 167.199125 
L 341.522182 167.224493 
L 341.725091 166.987483 
L 341.877273 167.528909 
L 342.029455 168.418963 
L 342.080182 168.331987 
L 342.232364 168.006552 
L 342.333818 168.259507 
L 342.536727 169.7352 
L 342.993273 174.173875 
L 343.044 173.839018 
L 343.297636 172.159656 
L 343.399091 172.170528 
L 343.551273 172.727899 
L 343.906364 175.290792 
L 344.464364 179.108314 
L 344.718 179.454043 
L 344.920909 178.803173 
L 345.022364 178.287115 
L 345.732545 167.126645 
L 345.884727 166.592467 
L 345.986182 166.859194 
L 346.189091 168.330538 
L 346.493455 171.117394 
L 346.544182 171.007949 
L 347.000727 169.93597 
L 347.051455 170.034542 
L 347.254364 171.127541 
L 347.812364 176.320733 
L 348.218182 179.496806 
L 348.522545 178.117512 
L 348.624 178.100842 
L 349.384909 169.468474 
L 349.841455 164.018702 
L 349.942909 164.236142 
L 350.145818 165.882888 
L 351.464727 179.491733 
L 351.616909 177.984149 
L 351.870545 176.178672 
L 351.972 176.07575 
L 352.022727 176.119963 
L 352.225636 176.734594 
L 352.682182 179.160499 
L 352.783636 178.972051 
L 353.088 178.111714 
L 353.189455 178.14433 
L 353.392364 178.600229 
L 353.848909 180.502829 
L 354.254727 181.919088 
L 354.406909 181.785 
L 354.660545 181.56756 
L 354.863455 181.707446 
L 355.218545 182.286562 
L 355.269273 182.118408 
L 355.675091 180.592704 
L 355.827273 180.640541 
L 356.030182 181.083394 
L 356.080909 180.98772 
L 356.233091 179.73889 
L 356.436 173.917296 
L 356.791091 163.777344 
L 356.994 162.194381 
L 357.044727 162.184234 
L 357.146182 162.52344 
L 357.399818 164.830478 
L 358.465091 176.728795 
L 358.718727 177.394886 
L 359.175273 179.259072 
L 359.226 179.17572 
L 359.428909 178.498757 
L 359.682545 175.849613 
L 359.936182 173.787557 
L 360.088364 173.307739 
L 360.240545 169.663445 
L 360.494182 163.725158 
L 360.595636 163.238818 
L 360.646364 163.271434 
L 360.697091 163.431614 
L 360.747818 163.278682 
L 360.9 162.553882 
L 360.950727 162.607517 
L 361.102909 163.52004 
L 361.458 167.88841 
L 362.269636 177.984149 
L 362.523273 180.04548 
L 362.878364 177.736992 
L 362.929091 177.784104 
L 363.132 178.444397 
L 363.892909 182.197411 
L 363.943636 182.013312 
L 364.298727 180.360043 
L 364.501636 180.225955 
L 364.958182 175.268323 
L 365.059636 175.213963 
L 365.211818 175.581437 
L 365.465455 176.882453 
L 365.516182 176.846938 
L 365.820545 175.195118 
L 365.972727 175.20599 
L 366.226364 175.008845 
L 366.378545 175.250928 
L 366.632182 176.299714 
L 367.900364 183.05485 
L 368.154 179.841086 
L 368.407636 175.45967 
L 368.559818 175.089298 
L 368.712 175.561142 
L 369.067091 177.894274 
L 369.625091 181.584955 
L 370.030909 178.814045 
L 370.284545 176.674435 
L 370.487455 176.061979 
L 370.690364 175.511131 
L 370.791818 175.58941 
L 370.994727 176.338853 
L 371.502 179.43085 
L 371.603455 179.314157 
L 371.857091 179.011915 
L 372.06 179.317781 
L 372.465818 177.744965 
L 372.567273 177.647117 
L 372.922364 177.112939 
L 373.074545 177.244853 
L 373.429636 175.10017 
L 373.531091 175.252378 
L 373.581818 175.42343 
L 373.581818 175.42343 
" style="fill:none;stroke:#800080;stroke-linecap:square;stroke-width:1.5;"/>
   </g>
   <g id="line2d_17">
    <path clip-path="url(#p23cb8aaf64)" d="M 322.81228 70.8 
L 373.429662 70.8 
L 373.429662 70.8 
" style="fill:none;stroke:#000000;stroke-linecap:square;stroke-width:1.5;"/>
   </g>
   <g id="line2d_18">
    <path clip-path="url(#p23cb8aaf64)" d="M 322.81228 107.04 
L 322.81228 99.792 
L 322.81228 92.544 
L 322.81228 85.296 
L 322.81228 78.048 
" style="fill:none;stroke:#000000;stroke-linecap:square;stroke-width:1.5;"/>
   </g>
   <g id="patch_3">
    <path d="M 54 252 
L 54 34.56 
" style="fill:none;stroke:#000000;stroke-linecap:square;stroke-linejoin:miter;stroke-width:0.8;"/>
   </g>
   <g id="patch_4">
    <path d="M 54 252 
L 388.8 252 
" style="fill:none;stroke:#000000;stroke-linecap:square;stroke-linejoin:miter;stroke-width:0.8;"/>
   </g>
   <g id="text_17">
    <!-- 500 ms -->
    <g transform="translate(322.81228 63.552)scale(0.1 -0.1)">
     <use xlink:href="#DejaVuSans-35"/>
     <use x="63.623047" xlink:href="#DejaVuSans-30"/>
     <use x="127.246094" xlink:href="#DejaVuSans-30"/>
     <use x="190.869141" xlink:href="#DejaVuSans-20"/>
     <use x="222.65625" xlink:href="#DejaVuSans-6d"/>
     <use x="320.068359" xlink:href="#DejaVuSans-73"/>
    </g>
   </g>
   <g id="text_18">
    <!-- 5 mV -->
    <g transform="translate(327.884162 92.544)scale(0.1 -0.1)">
     <use xlink:href="#DejaVuSans-35"/>
     <use x="63.623047" xlink:href="#DejaVuSans-20"/>
     <use x="95.410156" xlink:href="#DejaVuSans-6d"/>
     <use x="192.822266" xlink:href="#DejaVuSans-56"/>
    </g>
   </g>
  </g>
 </g>
 <defs>
  <clipPath id="p23cb8aaf64">
   <rect height="217.44" width="334.8" x="54" y="34.56"/>
  </clipPath>
 </defs>
</svg>
