<?xml version="1.0" encoding="utf-8" standalone="no"?>
<!DOCTYPE svg PUBLIC "-//W3C//DTD SVG 1.1//EN"
  "http://www.w3.org/Graphics/SVG/1.1/DTD/svg11.dtd">
<svg height="288pt" version="1.1" viewBox="0 0 432 288" width="432pt" xmlns="http://www.w3.org/2000/svg" xmlns:xlink="http://www.w3.org/1999/xlink">
 <metadata>
  <rdf:RDF xmlns:cc="http://creativecommons.org/ns#" xmlns:dc="http://purl.org/dc/elements/1.1/" xmlns:rdf="http://www.w3.org/1999/02/22-rdf-syntax-ns#">
   <cc:Work>
    <dc:type rdf:resource="http://purl.org/dc/dcmitype/StillImage"/>
    <dc:date>2021-07-08T13:58:08.619521</dc:date>
    <dc:format>image/svg+xml</dc:format>
    <dc:creator>
     <cc:Agent>
      <dc:title>Matplotlib v3.4.1, https://matplotlib.org/</dc:title>
     </cc:Agent>
    </dc:creator>
   </cc:Work>
  </rdf:RDF>
 </metadata>
 <defs>
  <style type="text/css">*{stroke-linecap:butt;stroke-linejoin:round;}</style>
 </defs>
 <g id="figure_1">
  <g id="patch_1">
   <path d="M 0 288 
L 432 288 
L 432 0 
L 0 0 
z
" style="fill:none;"/>
  </g>
  <g id="axes_1">
   <g id="patch_2">
    <path d="M 54 252 
L 388.8 252 
L 388.8 34.56 
L 54 34.56 
z
" style="fill:#ffffff;"/>
   </g>
   <g id="matplotlib.axis_1">
    <g id="xtick_1">
     <g id="line2d_1">
      <defs>
       <path d="M 0 0 
L 0 3.5 
" id="m004226bcbc" style="stroke:#000000;stroke-width:0.8;"/>
      </defs>
      <g>
       <use style="stroke:#000000;stroke-width:0.8;" x="69.218182" xlink:href="#m004226bcbc" y="252"/>
      </g>
     </g>
     <g id="text_1">
      <!-- 0 -->
      <g transform="translate(66.036932 266.598437)scale(0.1 -0.1)">
       <defs>
        <path d="M 2034 4250 
Q 1547 4250 1301 3770 
Q 1056 3291 1056 2328 
Q 1056 1369 1301 889 
Q 1547 409 2034 409 
Q 2525 409 2770 889 
Q 3016 1369 3016 2328 
Q 3016 3291 2770 3770 
Q 2525 4250 2034 4250 
z
M 2034 4750 
Q 2819 4750 3233 4129 
Q 3647 3509 3647 2328 
Q 3647 1150 3233 529 
Q 2819 -91 2034 -91 
Q 1250 -91 836 529 
Q 422 1150 422 2328 
Q 422 3509 836 4129 
Q 1250 4750 2034 4750 
z
" id="DejaVuSans-30" transform="scale(0.015625)"/>
       </defs>
       <use xlink:href="#DejaVuSans-30"/>
      </g>
     </g>
    </g>
    <g id="xtick_2">
     <g id="line2d_2">
      <g>
       <use style="stroke:#000000;stroke-width:0.8;" x="119.937001" xlink:href="#m004226bcbc" y="252"/>
      </g>
     </g>
     <g id="text_2">
      <!-- 500 -->
      <g transform="translate(110.393251 266.598437)scale(0.1 -0.1)">
       <defs>
        <path d="M 691 4666 
L 3169 4666 
L 3169 4134 
L 1269 4134 
L 1269 2991 
Q 1406 3038 1543 3061 
Q 1681 3084 1819 3084 
Q 2600 3084 3056 2656 
Q 3513 2228 3513 1497 
Q 3513 744 3044 326 
Q 2575 -91 1722 -91 
Q 1428 -91 1123 -41 
Q 819 9 494 109 
L 494 744 
Q 775 591 1075 516 
Q 1375 441 1709 441 
Q 2250 441 2565 725 
Q 2881 1009 2881 1497 
Q 2881 1984 2565 2268 
Q 2250 2553 1709 2553 
Q 1456 2553 1204 2497 
Q 953 2441 691 2322 
L 691 4666 
z
" id="DejaVuSans-35" transform="scale(0.015625)"/>
       </defs>
       <use xlink:href="#DejaVuSans-35"/>
       <use x="63.623047" xlink:href="#DejaVuSans-30"/>
       <use x="127.246094" xlink:href="#DejaVuSans-30"/>
      </g>
     </g>
    </g>
    <g id="xtick_3">
     <g id="line2d_3">
      <g>
       <use style="stroke:#000000;stroke-width:0.8;" x="170.655821" xlink:href="#m004226bcbc" y="252"/>
      </g>
     </g>
     <g id="text_3">
      <!-- 1000 -->
      <g transform="translate(157.930821 266.598437)scale(0.1 -0.1)">
       <defs>
        <path d="M 794 531 
L 1825 531 
L 1825 4091 
L 703 3866 
L 703 4441 
L 1819 4666 
L 2450 4666 
L 2450 531 
L 3481 531 
L 3481 0 
L 794 0 
L 794 531 
z
" id="DejaVuSans-31" transform="scale(0.015625)"/>
       </defs>
       <use xlink:href="#DejaVuSans-31"/>
       <use x="63.623047" xlink:href="#DejaVuSans-30"/>
       <use x="127.246094" xlink:href="#DejaVuSans-30"/>
       <use x="190.869141" xlink:href="#DejaVuSans-30"/>
      </g>
     </g>
    </g>
    <g id="xtick_4">
     <g id="line2d_4">
      <g>
       <use style="stroke:#000000;stroke-width:0.8;" x="221.374641" xlink:href="#m004226bcbc" y="252"/>
      </g>
     </g>
     <g id="text_4">
      <!-- 1500 -->
      <g transform="translate(208.649641 266.598437)scale(0.1 -0.1)">
       <use xlink:href="#DejaVuSans-31"/>
       <use x="63.623047" xlink:href="#DejaVuSans-35"/>
       <use x="127.246094" xlink:href="#DejaVuSans-30"/>
       <use x="190.869141" xlink:href="#DejaVuSans-30"/>
      </g>
     </g>
    </g>
    <g id="xtick_5">
     <g id="line2d_5">
      <g>
       <use style="stroke:#000000;stroke-width:0.8;" x="272.09346" xlink:href="#m004226bcbc" y="252"/>
      </g>
     </g>
     <g id="text_5">
      <!-- 2000 -->
      <g transform="translate(259.36846 266.598437)scale(0.1 -0.1)">
       <defs>
        <path d="M 1228 531 
L 3431 531 
L 3431 0 
L 469 0 
L 469 531 
Q 828 903 1448 1529 
Q 2069 2156 2228 2338 
Q 2531 2678 2651 2914 
Q 2772 3150 2772 3378 
Q 2772 3750 2511 3984 
Q 2250 4219 1831 4219 
Q 1534 4219 1204 4116 
Q 875 4013 500 3803 
L 500 4441 
Q 881 4594 1212 4672 
Q 1544 4750 1819 4750 
Q 2544 4750 2975 4387 
Q 3406 4025 3406 3419 
Q 3406 3131 3298 2873 
Q 3191 2616 2906 2266 
Q 2828 2175 2409 1742 
Q 1991 1309 1228 531 
z
" id="DejaVuSans-32" transform="scale(0.015625)"/>
       </defs>
       <use xlink:href="#DejaVuSans-32"/>
       <use x="63.623047" xlink:href="#DejaVuSans-30"/>
       <use x="127.246094" xlink:href="#DejaVuSans-30"/>
       <use x="190.869141" xlink:href="#DejaVuSans-30"/>
      </g>
     </g>
    </g>
    <g id="xtick_6">
     <g id="line2d_6">
      <g>
       <use style="stroke:#000000;stroke-width:0.8;" x="322.81228" xlink:href="#m004226bcbc" y="252"/>
      </g>
     </g>
     <g id="text_6">
      <!-- 2500 -->
      <g transform="translate(310.08728 266.598437)scale(0.1 -0.1)">
       <use xlink:href="#DejaVuSans-32"/>
       <use x="63.623047" xlink:href="#DejaVuSans-35"/>
       <use x="127.246094" xlink:href="#DejaVuSans-30"/>
       <use x="190.869141" xlink:href="#DejaVuSans-30"/>
      </g>
     </g>
    </g>
    <g id="xtick_7">
     <g id="line2d_7">
      <g>
       <use style="stroke:#000000;stroke-width:0.8;" x="373.531099" xlink:href="#m004226bcbc" y="252"/>
      </g>
     </g>
     <g id="text_7">
      <!-- 3000 -->
      <g transform="translate(360.806099 266.598437)scale(0.1 -0.1)">
       <defs>
        <path d="M 2597 2516 
Q 3050 2419 3304 2112 
Q 3559 1806 3559 1356 
Q 3559 666 3084 287 
Q 2609 -91 1734 -91 
Q 1441 -91 1130 -33 
Q 819 25 488 141 
L 488 750 
Q 750 597 1062 519 
Q 1375 441 1716 441 
Q 2309 441 2620 675 
Q 2931 909 2931 1356 
Q 2931 1769 2642 2001 
Q 2353 2234 1838 2234 
L 1294 2234 
L 1294 2753 
L 1863 2753 
Q 2328 2753 2575 2939 
Q 2822 3125 2822 3475 
Q 2822 3834 2567 4026 
Q 2313 4219 1838 4219 
Q 1578 4219 1281 4162 
Q 984 4106 628 3988 
L 628 4550 
Q 988 4650 1302 4700 
Q 1616 4750 1894 4750 
Q 2613 4750 3031 4423 
Q 3450 4097 3450 3541 
Q 3450 3153 3228 2886 
Q 3006 2619 2597 2516 
z
" id="DejaVuSans-33" transform="scale(0.015625)"/>
       </defs>
       <use xlink:href="#DejaVuSans-33"/>
       <use x="63.623047" xlink:href="#DejaVuSans-30"/>
       <use x="127.246094" xlink:href="#DejaVuSans-30"/>
       <use x="190.869141" xlink:href="#DejaVuSans-30"/>
      </g>
     </g>
    </g>
    <g id="text_8">
     <!-- Time(ms) -->
     <g transform="translate(197.789844 280.276563)scale(0.1 -0.1)">
      <defs>
       <path d="M -19 4666 
L 3928 4666 
L 3928 4134 
L 2272 4134 
L 2272 0 
L 1638 0 
L 1638 4134 
L -19 4134 
L -19 4666 
z
" id="DejaVuSans-54" transform="scale(0.015625)"/>
       <path d="M 603 3500 
L 1178 3500 
L 1178 0 
L 603 0 
L 603 3500 
z
M 603 4863 
L 1178 4863 
L 1178 4134 
L 603 4134 
L 603 4863 
z
" id="DejaVuSans-69" transform="scale(0.015625)"/>
       <path d="M 3328 2828 
Q 3544 3216 3844 3400 
Q 4144 3584 4550 3584 
Q 5097 3584 5394 3201 
Q 5691 2819 5691 2113 
L 5691 0 
L 5113 0 
L 5113 2094 
Q 5113 2597 4934 2840 
Q 4756 3084 4391 3084 
Q 3944 3084 3684 2787 
Q 3425 2491 3425 1978 
L 3425 0 
L 2847 0 
L 2847 2094 
Q 2847 2600 2669 2842 
Q 2491 3084 2119 3084 
Q 1678 3084 1418 2786 
Q 1159 2488 1159 1978 
L 1159 0 
L 581 0 
L 581 3500 
L 1159 3500 
L 1159 2956 
Q 1356 3278 1631 3431 
Q 1906 3584 2284 3584 
Q 2666 3584 2933 3390 
Q 3200 3197 3328 2828 
z
" id="DejaVuSans-6d" transform="scale(0.015625)"/>
       <path d="M 3597 1894 
L 3597 1613 
L 953 1613 
Q 991 1019 1311 708 
Q 1631 397 2203 397 
Q 2534 397 2845 478 
Q 3156 559 3463 722 
L 3463 178 
Q 3153 47 2828 -22 
Q 2503 -91 2169 -91 
Q 1331 -91 842 396 
Q 353 884 353 1716 
Q 353 2575 817 3079 
Q 1281 3584 2069 3584 
Q 2775 3584 3186 3129 
Q 3597 2675 3597 1894 
z
M 3022 2063 
Q 3016 2534 2758 2815 
Q 2500 3097 2075 3097 
Q 1594 3097 1305 2825 
Q 1016 2553 972 2059 
L 3022 2063 
z
" id="DejaVuSans-65" transform="scale(0.015625)"/>
       <path d="M 1984 4856 
Q 1566 4138 1362 3434 
Q 1159 2731 1159 2009 
Q 1159 1288 1364 580 
Q 1569 -128 1984 -844 
L 1484 -844 
Q 1016 -109 783 600 
Q 550 1309 550 2009 
Q 550 2706 781 3412 
Q 1013 4119 1484 4856 
L 1984 4856 
z
" id="DejaVuSans-28" transform="scale(0.015625)"/>
       <path d="M 2834 3397 
L 2834 2853 
Q 2591 2978 2328 3040 
Q 2066 3103 1784 3103 
Q 1356 3103 1142 2972 
Q 928 2841 928 2578 
Q 928 2378 1081 2264 
Q 1234 2150 1697 2047 
L 1894 2003 
Q 2506 1872 2764 1633 
Q 3022 1394 3022 966 
Q 3022 478 2636 193 
Q 2250 -91 1575 -91 
Q 1294 -91 989 -36 
Q 684 19 347 128 
L 347 722 
Q 666 556 975 473 
Q 1284 391 1588 391 
Q 1994 391 2212 530 
Q 2431 669 2431 922 
Q 2431 1156 2273 1281 
Q 2116 1406 1581 1522 
L 1381 1569 
Q 847 1681 609 1914 
Q 372 2147 372 2553 
Q 372 3047 722 3315 
Q 1072 3584 1716 3584 
Q 2034 3584 2315 3537 
Q 2597 3491 2834 3397 
z
" id="DejaVuSans-73" transform="scale(0.015625)"/>
       <path d="M 513 4856 
L 1013 4856 
Q 1481 4119 1714 3412 
Q 1947 2706 1947 2009 
Q 1947 1309 1714 600 
Q 1481 -109 1013 -844 
L 513 -844 
Q 928 -128 1133 580 
Q 1338 1288 1338 2009 
Q 1338 2731 1133 3434 
Q 928 4138 513 4856 
z
" id="DejaVuSans-29" transform="scale(0.015625)"/>
      </defs>
      <use xlink:href="#DejaVuSans-54"/>
      <use x="57.958984" xlink:href="#DejaVuSans-69"/>
      <use x="85.742188" xlink:href="#DejaVuSans-6d"/>
      <use x="183.154297" xlink:href="#DejaVuSans-65"/>
      <use x="244.677734" xlink:href="#DejaVuSans-28"/>
      <use x="283.691406" xlink:href="#DejaVuSans-6d"/>
      <use x="381.103516" xlink:href="#DejaVuSans-73"/>
      <use x="433.203125" xlink:href="#DejaVuSans-29"/>
     </g>
    </g>
   </g>
   <g id="matplotlib.axis_2">
    <g id="ytick_1">
     <g id="line2d_8">
      <defs>
       <path d="M 0 0 
L -3.5 0 
" id="m7a688d5841" style="stroke:#000000;stroke-width:0.8;"/>
      </defs>
      <g>
       <use style="stroke:#000000;stroke-width:0.8;" x="54" xlink:href="#m7a688d5841" y="252"/>
      </g>
     </g>
     <g id="text_9">
      <!-- −100 -->
      <g transform="translate(19.532812 255.799219)scale(0.1 -0.1)">
       <defs>
        <path d="M 678 2272 
L 4684 2272 
L 4684 1741 
L 678 1741 
L 678 2272 
z
" id="DejaVuSans-2212" transform="scale(0.015625)"/>
       </defs>
       <use xlink:href="#DejaVuSans-2212"/>
       <use x="83.789062" xlink:href="#DejaVuSans-31"/>
       <use x="147.412109" xlink:href="#DejaVuSans-30"/>
       <use x="211.035156" xlink:href="#DejaVuSans-30"/>
      </g>
     </g>
    </g>
    <g id="ytick_2">
     <g id="line2d_9">
      <g>
       <use style="stroke:#000000;stroke-width:0.8;" x="54" xlink:href="#m7a688d5841" y="215.76"/>
      </g>
     </g>
     <g id="text_10">
      <!-- −95 -->
      <g transform="translate(25.895312 219.559219)scale(0.1 -0.1)">
       <defs>
        <path d="M 703 97 
L 703 672 
Q 941 559 1184 500 
Q 1428 441 1663 441 
Q 2288 441 2617 861 
Q 2947 1281 2994 2138 
Q 2813 1869 2534 1725 
Q 2256 1581 1919 1581 
Q 1219 1581 811 2004 
Q 403 2428 403 3163 
Q 403 3881 828 4315 
Q 1253 4750 1959 4750 
Q 2769 4750 3195 4129 
Q 3622 3509 3622 2328 
Q 3622 1225 3098 567 
Q 2575 -91 1691 -91 
Q 1453 -91 1209 -44 
Q 966 3 703 97 
z
M 1959 2075 
Q 2384 2075 2632 2365 
Q 2881 2656 2881 3163 
Q 2881 3666 2632 3958 
Q 2384 4250 1959 4250 
Q 1534 4250 1286 3958 
Q 1038 3666 1038 3163 
Q 1038 2656 1286 2365 
Q 1534 2075 1959 2075 
z
" id="DejaVuSans-39" transform="scale(0.015625)"/>
       </defs>
       <use xlink:href="#DejaVuSans-2212"/>
       <use x="83.789062" xlink:href="#DejaVuSans-39"/>
       <use x="147.412109" xlink:href="#DejaVuSans-35"/>
      </g>
     </g>
    </g>
    <g id="ytick_3">
     <g id="line2d_10">
      <g>
       <use style="stroke:#000000;stroke-width:0.8;" x="54" xlink:href="#m7a688d5841" y="179.52"/>
      </g>
     </g>
     <g id="text_11">
      <!-- −90 -->
      <g transform="translate(25.895312 183.319219)scale(0.1 -0.1)">
       <use xlink:href="#DejaVuSans-2212"/>
       <use x="83.789062" xlink:href="#DejaVuSans-39"/>
       <use x="147.412109" xlink:href="#DejaVuSans-30"/>
      </g>
     </g>
    </g>
    <g id="ytick_4">
     <g id="line2d_11">
      <g>
       <use style="stroke:#000000;stroke-width:0.8;" x="54" xlink:href="#m7a688d5841" y="143.28"/>
      </g>
     </g>
     <g id="text_12">
      <!-- −85 -->
      <g transform="translate(25.895312 147.079219)scale(0.1 -0.1)">
       <defs>
        <path d="M 2034 2216 
Q 1584 2216 1326 1975 
Q 1069 1734 1069 1313 
Q 1069 891 1326 650 
Q 1584 409 2034 409 
Q 2484 409 2743 651 
Q 3003 894 3003 1313 
Q 3003 1734 2745 1975 
Q 2488 2216 2034 2216 
z
M 1403 2484 
Q 997 2584 770 2862 
Q 544 3141 544 3541 
Q 544 4100 942 4425 
Q 1341 4750 2034 4750 
Q 2731 4750 3128 4425 
Q 3525 4100 3525 3541 
Q 3525 3141 3298 2862 
Q 3072 2584 2669 2484 
Q 3125 2378 3379 2068 
Q 3634 1759 3634 1313 
Q 3634 634 3220 271 
Q 2806 -91 2034 -91 
Q 1263 -91 848 271 
Q 434 634 434 1313 
Q 434 1759 690 2068 
Q 947 2378 1403 2484 
z
M 1172 3481 
Q 1172 3119 1398 2916 
Q 1625 2713 2034 2713 
Q 2441 2713 2670 2916 
Q 2900 3119 2900 3481 
Q 2900 3844 2670 4047 
Q 2441 4250 2034 4250 
Q 1625 4250 1398 4047 
Q 1172 3844 1172 3481 
z
" id="DejaVuSans-38" transform="scale(0.015625)"/>
       </defs>
       <use xlink:href="#DejaVuSans-2212"/>
       <use x="83.789062" xlink:href="#DejaVuSans-38"/>
       <use x="147.412109" xlink:href="#DejaVuSans-35"/>
      </g>
     </g>
    </g>
    <g id="ytick_5">
     <g id="line2d_12">
      <g>
       <use style="stroke:#000000;stroke-width:0.8;" x="54" xlink:href="#m7a688d5841" y="107.04"/>
      </g>
     </g>
     <g id="text_13">
      <!-- −80 -->
      <g transform="translate(25.895312 110.839219)scale(0.1 -0.1)">
       <use xlink:href="#DejaVuSans-2212"/>
       <use x="83.789062" xlink:href="#DejaVuSans-38"/>
       <use x="147.412109" xlink:href="#DejaVuSans-30"/>
      </g>
     </g>
    </g>
    <g id="ytick_6">
     <g id="line2d_13">
      <g>
       <use style="stroke:#000000;stroke-width:0.8;" x="54" xlink:href="#m7a688d5841" y="70.8"/>
      </g>
     </g>
     <g id="text_14">
      <!-- −75 -->
      <g transform="translate(25.895312 74.599219)scale(0.1 -0.1)">
       <defs>
        <path d="M 525 4666 
L 3525 4666 
L 3525 4397 
L 1831 0 
L 1172 0 
L 2766 4134 
L 525 4134 
L 525 4666 
z
" id="DejaVuSans-37" transform="scale(0.015625)"/>
       </defs>
       <use xlink:href="#DejaVuSans-2212"/>
       <use x="83.789062" xlink:href="#DejaVuSans-37"/>
       <use x="147.412109" xlink:href="#DejaVuSans-35"/>
      </g>
     </g>
    </g>
    <g id="ytick_7">
     <g id="line2d_14">
      <g>
       <use style="stroke:#000000;stroke-width:0.8;" x="54" xlink:href="#m7a688d5841" y="34.56"/>
      </g>
     </g>
     <g id="text_15">
      <!-- −70 -->
      <g transform="translate(25.895312 38.359219)scale(0.1 -0.1)">
       <use xlink:href="#DejaVuSans-2212"/>
       <use x="83.789062" xlink:href="#DejaVuSans-37"/>
       <use x="147.412109" xlink:href="#DejaVuSans-30"/>
      </g>
     </g>
    </g>
    <g id="text_16">
     <!-- Membrane potential (mV) -->
     <g transform="translate(13.453125 207.691719)rotate(-90)scale(0.1 -0.1)">
      <defs>
       <path d="M 628 4666 
L 1569 4666 
L 2759 1491 
L 3956 4666 
L 4897 4666 
L 4897 0 
L 4281 0 
L 4281 4097 
L 3078 897 
L 2444 897 
L 1241 4097 
L 1241 0 
L 628 0 
L 628 4666 
z
" id="DejaVuSans-4d" transform="scale(0.015625)"/>
       <path d="M 3116 1747 
Q 3116 2381 2855 2742 
Q 2594 3103 2138 3103 
Q 1681 3103 1420 2742 
Q 1159 2381 1159 1747 
Q 1159 1113 1420 752 
Q 1681 391 2138 391 
Q 2594 391 2855 752 
Q 3116 1113 3116 1747 
z
M 1159 2969 
Q 1341 3281 1617 3432 
Q 1894 3584 2278 3584 
Q 2916 3584 3314 3078 
Q 3713 2572 3713 1747 
Q 3713 922 3314 415 
Q 2916 -91 2278 -91 
Q 1894 -91 1617 61 
Q 1341 213 1159 525 
L 1159 0 
L 581 0 
L 581 4863 
L 1159 4863 
L 1159 2969 
z
" id="DejaVuSans-62" transform="scale(0.015625)"/>
       <path d="M 2631 2963 
Q 2534 3019 2420 3045 
Q 2306 3072 2169 3072 
Q 1681 3072 1420 2755 
Q 1159 2438 1159 1844 
L 1159 0 
L 581 0 
L 581 3500 
L 1159 3500 
L 1159 2956 
Q 1341 3275 1631 3429 
Q 1922 3584 2338 3584 
Q 2397 3584 2469 3576 
Q 2541 3569 2628 3553 
L 2631 2963 
z
" id="DejaVuSans-72" transform="scale(0.015625)"/>
       <path d="M 2194 1759 
Q 1497 1759 1228 1600 
Q 959 1441 959 1056 
Q 959 750 1161 570 
Q 1363 391 1709 391 
Q 2188 391 2477 730 
Q 2766 1069 2766 1631 
L 2766 1759 
L 2194 1759 
z
M 3341 1997 
L 3341 0 
L 2766 0 
L 2766 531 
Q 2569 213 2275 61 
Q 1981 -91 1556 -91 
Q 1019 -91 701 211 
Q 384 513 384 1019 
Q 384 1609 779 1909 
Q 1175 2209 1959 2209 
L 2766 2209 
L 2766 2266 
Q 2766 2663 2505 2880 
Q 2244 3097 1772 3097 
Q 1472 3097 1187 3025 
Q 903 2953 641 2809 
L 641 3341 
Q 956 3463 1253 3523 
Q 1550 3584 1831 3584 
Q 2591 3584 2966 3190 
Q 3341 2797 3341 1997 
z
" id="DejaVuSans-61" transform="scale(0.015625)"/>
       <path d="M 3513 2113 
L 3513 0 
L 2938 0 
L 2938 2094 
Q 2938 2591 2744 2837 
Q 2550 3084 2163 3084 
Q 1697 3084 1428 2787 
Q 1159 2491 1159 1978 
L 1159 0 
L 581 0 
L 581 3500 
L 1159 3500 
L 1159 2956 
Q 1366 3272 1645 3428 
Q 1925 3584 2291 3584 
Q 2894 3584 3203 3211 
Q 3513 2838 3513 2113 
z
" id="DejaVuSans-6e" transform="scale(0.015625)"/>
       <path id="DejaVuSans-20" transform="scale(0.015625)"/>
       <path d="M 1159 525 
L 1159 -1331 
L 581 -1331 
L 581 3500 
L 1159 3500 
L 1159 2969 
Q 1341 3281 1617 3432 
Q 1894 3584 2278 3584 
Q 2916 3584 3314 3078 
Q 3713 2572 3713 1747 
Q 3713 922 3314 415 
Q 2916 -91 2278 -91 
Q 1894 -91 1617 61 
Q 1341 213 1159 525 
z
M 3116 1747 
Q 3116 2381 2855 2742 
Q 2594 3103 2138 3103 
Q 1681 3103 1420 2742 
Q 1159 2381 1159 1747 
Q 1159 1113 1420 752 
Q 1681 391 2138 391 
Q 2594 391 2855 752 
Q 3116 1113 3116 1747 
z
" id="DejaVuSans-70" transform="scale(0.015625)"/>
       <path d="M 1959 3097 
Q 1497 3097 1228 2736 
Q 959 2375 959 1747 
Q 959 1119 1226 758 
Q 1494 397 1959 397 
Q 2419 397 2687 759 
Q 2956 1122 2956 1747 
Q 2956 2369 2687 2733 
Q 2419 3097 1959 3097 
z
M 1959 3584 
Q 2709 3584 3137 3096 
Q 3566 2609 3566 1747 
Q 3566 888 3137 398 
Q 2709 -91 1959 -91 
Q 1206 -91 779 398 
Q 353 888 353 1747 
Q 353 2609 779 3096 
Q 1206 3584 1959 3584 
z
" id="DejaVuSans-6f" transform="scale(0.015625)"/>
       <path d="M 1172 4494 
L 1172 3500 
L 2356 3500 
L 2356 3053 
L 1172 3053 
L 1172 1153 
Q 1172 725 1289 603 
Q 1406 481 1766 481 
L 2356 481 
L 2356 0 
L 1766 0 
Q 1100 0 847 248 
Q 594 497 594 1153 
L 594 3053 
L 172 3053 
L 172 3500 
L 594 3500 
L 594 4494 
L 1172 4494 
z
" id="DejaVuSans-74" transform="scale(0.015625)"/>
       <path d="M 603 4863 
L 1178 4863 
L 1178 0 
L 603 0 
L 603 4863 
z
" id="DejaVuSans-6c" transform="scale(0.015625)"/>
       <path d="M 1831 0 
L 50 4666 
L 709 4666 
L 2188 738 
L 3669 4666 
L 4325 4666 
L 2547 0 
L 1831 0 
z
" id="DejaVuSans-56" transform="scale(0.015625)"/>
      </defs>
      <use xlink:href="#DejaVuSans-4d"/>
      <use x="86.279297" xlink:href="#DejaVuSans-65"/>
      <use x="147.802734" xlink:href="#DejaVuSans-6d"/>
      <use x="245.214844" xlink:href="#DejaVuSans-62"/>
      <use x="308.691406" xlink:href="#DejaVuSans-72"/>
      <use x="349.804688" xlink:href="#DejaVuSans-61"/>
      <use x="411.083984" xlink:href="#DejaVuSans-6e"/>
      <use x="474.462891" xlink:href="#DejaVuSans-65"/>
      <use x="535.986328" xlink:href="#DejaVuSans-20"/>
      <use x="567.773438" xlink:href="#DejaVuSans-70"/>
      <use x="631.25" xlink:href="#DejaVuSans-6f"/>
      <use x="692.431641" xlink:href="#DejaVuSans-74"/>
      <use x="731.640625" xlink:href="#DejaVuSans-65"/>
      <use x="793.164062" xlink:href="#DejaVuSans-6e"/>
      <use x="856.542969" xlink:href="#DejaVuSans-74"/>
      <use x="895.751953" xlink:href="#DejaVuSans-69"/>
      <use x="923.535156" xlink:href="#DejaVuSans-61"/>
      <use x="984.814453" xlink:href="#DejaVuSans-6c"/>
      <use x="1012.597656" xlink:href="#DejaVuSans-20"/>
      <use x="1044.384766" xlink:href="#DejaVuSans-28"/>
      <use x="1083.398438" xlink:href="#DejaVuSans-6d"/>
      <use x="1180.810547" xlink:href="#DejaVuSans-56"/>
      <use x="1249.21875" xlink:href="#DejaVuSans-29"/>
     </g>
    </g>
   </g>
   <g id="line2d_15">
    <path clip-path="url(#pe57d6ae37b)" d="M 69.218182 157.776 
L 69.522545 186.905712 
L 69.826909 200.311613 
L 70.334182 211.967846 
L 70.689273 216.59497 
L 70.790727 216.335491 
L 70.993636 215.86872 
L 71.095091 216.017304 
L 71.298 216.902285 
L 71.399455 217.292952 
L 71.805273 215.148994 
L 71.906727 215.272934 
L 72.109636 216.139795 
L 72.718364 220.130544 
L 72.769091 219.6558 
L 73.073455 216.187632 
L 73.174909 216.025277 
L 73.225636 216.073838 
L 73.377818 216.571051 
L 73.783636 218.909256 
L 73.834364 218.791838 
L 74.290909 216.139795 
L 74.443091 216.516691 
L 74.493818 216.709488 
L 74.544545 216.690643 
L 74.950364 214.98084 
L 75.001091 215.009832 
L 75.153273 215.340341 
L 75.305455 213.534139 
L 75.508364 211.993939 
L 75.711273 211.780848 
L 75.964909 210.966898 
L 76.066364 211.070544 
L 76.269273 211.996114 
L 76.776545 216.138346 
L 77.131636 218.935349 
L 77.182364 218.734579 
L 77.385273 213.882768 
L 77.638909 208.645363 
L 77.740364 208.34747 
L 77.791091 208.411253 
L 77.892545 208.392408 
L 78.095455 208.023485 
L 78.146182 208.067698 
L 78.298364 208.630142 
L 78.399818 209.057774 
L 78.602727 207.286363 
L 79.008545 202.071427 
L 79.160727 201.440851 
L 79.262182 201.643795 
L 79.465091 203.197766 
L 79.921636 208.883098 
L 79.972364 208.682328 
L 80.530364 198.727925 
L 80.834727 193.552853 
L 81.139091 192.414192 
L 81.240545 192.641779 
L 81.342 192.947645 
L 81.392727 192.884587 
L 81.494182 192.807758 
L 81.646364 193.137542 
L 81.849273 192.169934 
L 81.950727 192.598291 
L 82.255091 194.474074 
L 82.356545 194.819078 
L 82.559455 196.827499 
L 83.066727 202.346126 
L 83.168182 202.691131 
L 83.421818 200.258702 
L 83.472545 200.260877 
L 83.675455 200.813899 
L 83.726182 200.75519 
L 83.878364 199.643347 
L 84.132 196.168656 
L 84.284182 193.070861 
L 84.537818 188.147294 
L 84.588545 188.034226 
L 84.639273 188.134248 
L 84.791455 189.398299 
L 85.146545 195.318466 
L 85.603091 203.605104 
L 85.653818 203.143406 
L 85.958182 199.496213 
L 86.008909 199.439678 
L 86.059636 199.531003 
L 86.211818 200.491363 
L 86.465455 202.065629 
L 86.516182 201.975754 
L 86.871273 199.750618 
L 86.972727 200.070254 
L 87.175636 201.73657 
L 88.240909 213.93133 
L 88.342364 213.681274 
L 88.646727 212.786146 
L 88.748182 212.85935 
L 88.951091 213.473981 
L 89.458364 216.174586 
L 90.117818 219.279629 
L 90.168545 219.370229 
L 90.320727 218.305498 
L 90.675818 215.982514 
L 90.828 215.836104 
L 90.980182 216.050645 
L 91.284545 217.072613 
L 91.436727 217.704638 
L 91.487455 217.676371 
L 91.842545 213.146371 
L 91.944 212.976043 
L 91.994727 213.018806 
L 92.146909 213.49645 
L 92.603455 216.191981 
L 93.262909 219.684067 
L 93.618 220.90608 
L 93.668727 220.763294 
L 94.125273 216.061517 
L 94.226727 215.966568 
L 94.277455 216.005707 
L 94.429636 216.367382 
L 94.531091 214.943875 
L 94.784727 211.519195 
L 94.886182 211.367712 
L 94.987636 211.619942 
L 95.190545 212.651333 
L 95.241273 212.619442 
L 95.545636 211.703294 
L 95.647091 211.848254 
L 95.85 212.565082 
L 95.900727 212.316475 
L 96.154364 209.584704 
L 96.408 206.286139 
L 96.509455 206.037533 
L 96.560182 206.098416 
L 96.712364 206.655787 
L 96.763091 206.526773 
L 97.016727 205.482336 
L 97.118182 205.700501 
L 97.321091 207.039931 
L 98.234182 215.771597 
L 98.284909 215.407022 
L 98.589273 213.252192 
L 98.741455 213.217402 
L 99.147273 210.655234 
L 99.198 210.70452 
L 99.350182 211.251744 
L 99.705273 213.739982 
L 100.364727 218.161262 
L 100.669091 215.799864 
L 100.821273 213.157968 
L 101.074909 210.142075 
L 101.176364 210.050026 
L 101.328545 210.588552 
L 101.734364 213.499349 
L 101.835818 213.032578 
L 102.596727 199.259203 
L 102.901091 197.894405 
L 103.205455 193.597066 
L 103.509818 186.625214 
L 103.662 185.720664 
L 103.763455 186.042475 
L 103.966364 188.340816 
L 104.22 191.84305 
L 104.270727 191.64373 
L 104.321455 191.542258 
L 104.372182 191.62416 
L 104.524364 192.917928 
L 104.879455 199.049011 
L 105.640364 211.851154 
L 105.792545 213.645034 
L 105.843273 213.574003 
L 106.350545 207.747336 
L 106.502727 206.307158 
L 106.756364 202.544722 
L 107.060727 201.495936 
L 107.162182 201.692357 
L 107.365091 203.010768 
L 107.973818 209.293334 
L 108.075273 208.878024 
L 108.278182 208.306157 
L 108.379636 208.498229 
L 108.582545 209.610072 
L 110.002909 219.373853 
L 110.510182 220.88651 
L 110.560909 220.949568 
L 110.662364 220.23709 
L 110.966727 215.188133 
L 111.271091 211.867824 
L 111.423273 211.640962 
L 111.575455 212.020032 
L 111.879818 213.734909 
L 112.032 214.71049 
L 112.082727 214.679323 
L 112.234909 213.00576 
L 113.198727 198.124891 
L 113.452364 192.693965 
L 113.503091 192.485947 
L 113.553818 192.504067 
L 113.756727 192.787464 
L 113.858182 193.043318 
L 114.061091 194.759645 
L 114.466909 201.17485 
L 115.075636 210.176866 
L 115.177091 209.520922 
L 115.633636 198.766339 
L 115.684364 198.675739 
L 115.735091 198.750394 
L 115.887273 199.72235 
L 115.988727 200.261602 
L 116.191636 198.540926 
L 116.242364 198.553248 
L 116.394545 199.508534 
L 116.749636 204.250901 
L 117.206182 210.623342 
L 117.510545 207.692251 
L 117.561273 207.735739 
L 117.713455 208.458365 
L 118.17 212.546962 
L 118.829455 217.669848 
L 118.981636 218.416392 
L 119.032364 218.33304 
L 119.235273 216.687744 
L 120.148364 201.73512 
L 120.249818 201.514781 
L 120.351273 201.815573 
L 120.503455 202.879579 
L 120.554182 202.832467 
L 120.655636 201.678586 
L 120.96 197.98283 
L 121.010727 197.96471 
L 121.112182 198.351754 
L 121.365818 200.941464 
L 122.025273 210.085541 
L 122.076 209.604274 
L 122.786182 195.40979 
L 123.293455 190.418818 
L 123.344182 190.471728 
L 123.496364 191.475576 
L 123.902182 196.575994 
L 123.952909 196.108498 
L 124.206545 193.933373 
L 124.308 194.21677 
L 124.510909 196.160683 
L 125.018182 202.495435 
L 125.068909 202.465718 
L 125.170364 202.546896 
L 125.322545 203.246328 
L 125.626909 206.13828 
L 126.235636 212.827459 
L 126.286364 212.648434 
L 126.844364 205.635994 
L 126.945818 205.529448 
L 127.098 206.069424 
L 127.402364 208.485182 
L 127.808182 212.056272 
L 127.960364 206.134656 
L 128.214 198.419885 
L 128.619818 194.971286 
L 128.670545 195.002453 
L 128.772 195.28585 
L 128.822727 195.13944 
L 129.177818 192.868642 
L 129.279273 193.226693 
L 129.482182 195.177854 
L 130.040182 203.933438 
L 130.648909 211.983067 
L 130.801091 212.323723 
L 131.054727 212.362862 
L 131.206909 212.573054 
L 131.308364 212.189635 
L 131.460545 210.724814 
L 132.018545 197.408789 
L 132.12 197.22324 
L 132.322909 192.556978 
L 132.627273 187.101408 
L 132.728727 186.628838 
L 132.779455 186.678125 
L 132.931636 187.773298 
L 133.134545 189.043872 
L 133.286727 189.01343 
L 133.438909 189.713587 
L 133.489636 189.579499 
L 133.641818 187.31015 
L 134.047636 178.709674 
L 134.098364 178.546594 
L 134.149091 178.595155 
L 134.504182 180.797098 
L 135.112909 185.848229 
L 135.163636 185.669928 
L 135.417273 184.378334 
L 135.670909 185.035003 
L 135.721636 184.987166 
L 135.975273 183.853579 
L 136.026 183.955776 
L 136.178182 185.118355 
L 137.091273 193.585469 
L 137.344909 195.795384 
L 137.750727 188.901811 
L 137.852182 189.41497 
L 138.258 192.198926 
L 138.460909 193.742026 
L 138.866727 199.591162 
L 139.627636 210.178315 
L 139.830545 211.63009 
L 139.932 209.966674 
L 140.692909 192.80051 
L 140.794364 192.692515 
L 140.946545 193.478923 
L 141.250909 196.995653 
L 141.352364 196.436832 
L 141.453818 195.986731 
L 141.504545 196.009925 
L 141.656727 196.913026 
L 142.062545 200.296392 
L 142.113273 200.297842 
L 142.214727 199.558546 
L 142.620545 193.555752 
L 143.077091 179.708448 
L 143.178545 179.375765 
L 143.28 179.831664 
L 143.482909 182.416301 
L 143.990182 193.132469 
L 144.598909 205.022088 
L 144.852545 203.462318 
L 144.903273 203.519578 
L 145.055455 204.298738 
L 145.309091 206.308608 
L 145.359818 206.129582 
L 145.613455 205.082246 
L 145.714909 205.254749 
L 145.917818 206.385437 
L 146.526545 211.656907 
L 146.628 211.386557 
L 147.338182 206.125234 
L 147.591818 201.752515 
L 148.149818 198.175627 
L 148.251273 198.245933 
L 148.403455 198.988128 
L 148.707818 202.001122 
L 149.823818 214.389403 
L 149.925273 214.878643 
L 150.077455 213.810288 
L 150.787636 208.314854 
L 150.838364 208.376462 
L 150.990545 208.941082 
L 151.396364 211.635888 
L 151.497818 211.311902 
L 152.157273 207.709646 
L 152.360182 207.427699 
L 152.461636 205.876627 
L 152.766 198.931594 
L 152.867455 198.724301 
L 152.968909 199.14541 
L 153.222545 201.740194 
L 154.084909 212.079466 
L 154.237091 211.933781 
L 154.389273 211.843906 
L 154.541455 212.064245 
L 154.795091 213.02243 
L 156.316909 220.079808 
L 156.672 220.856794 
L 156.722727 220.698787 
L 156.925636 216.35796 
L 157.331455 208.237301 
L 157.534364 207.257371 
L 157.686545 207.392184 
L 157.889455 206.132482 
L 158.041636 205.664986 
L 158.143091 205.844736 
L 158.346 206.747837 
L 158.802545 200.413085 
L 158.853273 200.46527 
L 159.462 202.941912 
L 159.512727 203.277494 
L 159.563455 203.251402 
L 159.817091 201.906173 
L 159.918545 202.180872 
L 160.121455 203.307936 
L 160.172182 203.089046 
L 160.273636 202.333805 
L 160.578 198.921446 
L 160.628727 198.891005 
L 160.730182 199.236734 
L 160.933091 201.076277 
L 162.404182 217.598093 
L 162.911455 219.959491 
L 163.418727 221.270654 
L 163.926 222.010675 
L 164.484 222.494842 
L 164.534727 222.449904 
L 164.686909 220.558176 
L 164.991273 217.228445 
L 165.194182 216.77472 
L 165.346364 216.987086 
L 165.549273 217.594469 
L 165.6 217.541558 
L 165.701455 216.64788 
L 166.107273 209.591952 
L 166.208727 209.29261 
L 166.259455 209.306381 
L 166.411636 209.823163 
L 166.766727 211.897541 
L 166.817455 211.770701 
L 167.071091 211.237973 
L 167.172545 211.395979 
L 167.375455 212.281685 
L 167.476909 212.89704 
L 167.527636 212.818762 
L 167.882727 210.685675 
L 167.984182 210.824112 
L 168.187091 211.820712 
L 168.288545 212.344742 
L 168.339273 212.126578 
L 169.100182 204.909744 
L 169.303091 203.180371 
L 169.556727 202.966555 
L 169.708909 200.995099 
L 170.013273 195.846845 
L 170.571273 191.964091 
L 170.622 192.029323 
L 170.774182 192.98461 
L 171.382909 198.393067 
L 171.484364 198.822149 
L 171.585818 197.575493 
L 171.890182 193.805083 
L 172.498909 188.403874 
L 172.549636 188.458234 
L 172.651091 187.413797 
L 173.412 172.185024 
L 173.767091 168.642202 
L 173.817818 168.682066 
L 173.97 169.488043 
L 174.172909 170.807179 
L 174.223636 170.653522 
L 175.086 160.525891 
L 175.187455 160.613592 
L 175.390364 160.686797 
L 175.491818 161.197781 
L 175.694727 163.95637 
L 175.846909 165.87419 
L 175.897636 165.776342 
L 176.049818 163.445386 
L 176.303455 160.399051 
L 176.607818 158.928432 
L 176.658545 158.82841 
L 176.709273 158.930606 
L 176.912182 160.341067 
L 176.962909 160.293955 
L 177.064364 158.906688 
L 177.571636 142.166707 
L 177.673091 141.81373 
L 177.774545 142.71683 
L 178.078909 146.166154 
L 178.281818 146.574216 
L 178.434 148.429704 
L 179.397818 166.831651 
L 179.448545 166.447507 
L 179.803636 161.011507 
L 179.905091 161.278234 
L 180.057273 163.229395 
L 180.970364 182.696798 
L 181.224 186.804965 
L 181.274727 187.100683 
L 181.325455 186.849902 
L 181.629818 184.8654 
L 181.731273 184.581278 
L 181.782 184.610995 
L 181.934182 185.416248 
L 182.289273 188.48795 
L 182.441455 185.131402 
L 182.847273 177.640594 
L 182.898 177.591307 
L 182.999455 178.069675 
L 183.253091 180.997142 
L 183.354545 180.571685 
L 183.608182 177.534048 
L 183.760364 176.560642 
L 184.014 177.45577 
L 184.166182 178.427002 
L 184.216909 178.292914 
L 184.470545 172.161106 
L 184.724182 161.980565 
L 185.028545 153.112637 
L 185.13 152.795899 
L 185.231455 153.526498 
L 185.890909 161.210827 
L 185.941636 161.181835 
L 186.144545 159.24517 
L 186.499636 154.221581 
L 186.601091 154.832587 
L 186.804 158.226101 
L 187.159091 165.834326 
L 187.209818 165.750974 
L 187.362 163.17576 
L 187.615636 159.410424 
L 187.666364 159.345917 
L 187.717091 159.399552 
L 187.92 160.058395 
L 188.122909 160.629538 
L 188.325818 159.939528 
L 188.376545 160.046074 
L 188.680909 160.817261 
L 188.883818 163.173586 
L 188.934545 163.778069 
L 188.985273 163.559904 
L 189.238909 160.823059 
L 189.391091 161.679773 
L 189.999818 156.58008 
L 190.101273 156.967123 
L 190.456364 160.472256 
L 190.507091 160.235246 
L 190.760727 157.943429 
L 190.862182 157.733237 
L 190.912909 157.778899 
L 191.014364 158.423971 
L 191.318727 162.563304 
L 191.369455 162.187133 
L 191.470909 160.283083 
L 191.927455 145.876958 
L 192.079636 145.07533 
L 192.231818 144.951389 
L 192.586909 146.049461 
L 192.789818 149.140008 
L 193.449273 161.701517 
L 193.5 162.218299 
L 193.550727 161.832706 
L 193.753636 159.905462 
L 193.804364 159.998237 
L 194.007273 162.032026 
L 194.463818 165.89231 
L 194.717455 168.72193 
L 194.768182 169.141589 
L 194.818909 168.995904 
L 195.174 162.750302 
L 195.224727 162.763349 
L 195.275455 162.845251 
L 195.427636 162.26831 
L 195.478364 162.328469 
L 195.579818 162.56113 
L 195.833455 160.812187 
L 195.884182 160.904962 
L 196.036364 162.348038 
L 196.340727 168.826301 
L 197.101636 186.291082 
L 197.304545 188.25384 
L 197.608909 189.44976 
L 197.659636 189.422942 
L 197.761091 189.457008 
L 197.862545 189.775195 
L 197.913273 189.707789 
L 198.166909 188.27341 
L 198.268364 188.606818 
L 198.471273 190.552906 
L 199.08 199.90355 
L 199.587273 205.985347 
L 199.688727 204.758986 
L 200.449636 185.930856 
L 200.804727 175.506058 
L 200.956909 174.763138 
L 201.312 175.89455 
L 201.413455 175.808299 
L 201.514909 175.969205 
L 201.667091 177.006394 
L 201.971455 181.574083 
L 202.225091 185.093712 
L 202.326545 185.39233 
L 202.529455 186.372984 
L 202.681636 185.366237 
L 202.833818 184.583453 
L 202.884545 184.600848 
L 203.036727 185.034278 
L 203.087455 185.008186 
L 203.138182 184.924109 
L 203.442545 182.959901 
L 203.493273 183.058474 
L 203.645455 184.209456 
L 204.203455 189.917981 
L 204.254182 190.201378 
L 204.304909 190.075262 
L 204.710727 187.334794 
L 204.812182 187.633411 
L 204.964364 187.816061 
L 205.065818 187.721112 
L 205.218 187.053571 
L 205.522364 185.457562 
L 205.826727 186.195408 
L 205.978909 186.64116 
L 206.029636 186.547661 
L 206.131091 186.143947 
L 206.334 183.092539 
L 206.587636 179.619298 
L 206.638364 179.567112 
L 206.739818 180.039682 
L 206.942727 182.672155 
L 207.855818 198.087926 
L 207.906545 198.029218 
L 208.464545 193.58257 
L 208.718182 190.834128 
L 208.768909 190.800787 
L 208.870364 191.176958 
L 209.073273 193.204224 
L 209.580545 199.322261 
L 209.631273 199.315013 
L 209.732727 199.409962 
L 209.884909 200.091998 
L 209.986364 200.5392 
L 210.037091 200.427581 
L 210.899455 190.687718 
L 211.000909 190.341264 
L 211.051636 190.358659 
L 211.203818 191.059541 
L 211.660364 193.482547 
L 211.711091 193.45573 
L 211.863273 193.011427 
L 212.167636 191.234942 
L 212.319818 191.552405 
L 212.370545 191.417592 
L 212.573455 190.739179 
L 212.674909 191.000832 
L 212.979273 192.454056 
L 213.182182 191.880014 
L 213.283636 191.736504 
L 213.334364 191.781442 
L 213.486545 192.42144 
L 213.740182 194.878512 
L 213.841636 195.959914 
L 213.892364 195.904104 
L 213.993818 195.137266 
L 214.146 191.874941 
L 214.602545 180.283214 
L 214.805455 178.634294 
L 214.906909 179.173546 
L 215.262 181.982146 
L 215.464909 182.317003 
L 215.617091 183.167194 
L 215.870727 186.662904 
L 216.428727 194.73935 
L 216.580909 195.533006 
L 216.885273 198.941741 
L 217.189636 201.857611 
L 217.443273 202.979602 
L 217.494 202.681709 
L 217.646182 196.979707 
L 218.102727 173.962958 
L 218.305636 170.638301 
L 218.356364 170.529581 
L 218.407091 170.66077 
L 218.559273 172.220539 
L 218.863636 178.600954 
L 219.573818 193.876838 
L 219.624545 193.908005 
L 219.726 192.287352 
L 220.588364 163.256938 
L 220.689818 162.777845 
L 220.740545 162.948898 
L 221.095636 166.198176 
L 221.146364 165.810408 
L 221.349273 164.283254 
L 221.450727 164.776843 
L 221.653636 167.946394 
L 222.110182 180.22668 
L 222.617455 192.570749 
L 222.871091 196.012824 
L 222.921818 195.924398 
L 223.074 195.55475 
L 223.175455 195.849019 
L 223.378364 197.545051 
L 224.950909 214.338667 
L 225.458182 216.663826 
L 225.965455 218.051818 
L 226.574182 219.052766 
L 226.726364 219.22237 
L 226.777091 219.170909 
L 226.929273 218.303323 
L 227.132182 216.351437 
L 227.538 210.567533 
L 227.740909 210.101486 
L 227.893091 210.427646 
L 228.197455 211.982342 
L 228.704727 215.18016 
L 228.755455 215.043173 
L 229.059818 210.61537 
L 229.161273 210.404453 
L 229.212 210.450115 
L 229.364182 210.978494 
L 229.77 213.524717 
L 229.820727 213.182611 
L 230.125091 209.883322 
L 230.226545 209.825338 
L 230.378727 210.326174 
L 230.784545 212.835432 
L 230.835273 212.720914 
L 231.038182 207.648038 
L 231.342545 202.625899 
L 231.444 202.301189 
L 231.494727 202.325832 
L 231.646909 202.971629 
L 231.951273 205.798349 
L 232.915091 215.41572 
L 232.965818 215.101157 
L 233.422364 207.469013 
L 233.523818 207.361742 
L 233.676 207.880699 
L 233.878909 208.923686 
L 234.031091 207.918389 
L 234.487636 204.274819 
L 234.589091 204.498058 
L 234.792 205.787477 
L 235.502182 212.926032 
L 236.060182 217.219747 
L 236.110909 217.379928 
L 236.161636 217.310347 
L 236.313818 215.570102 
L 236.821091 208.81859 
L 237.074727 206.95368 
L 237.176182 206.957304 
L 237.328364 207.546566 
L 237.683455 210.391406 
L 238.190727 214.581475 
L 238.292182 213.432667 
L 238.647273 207.376963 
L 238.799455 206.966002 
L 238.900909 207.22403 
L 239.154545 208.733064 
L 239.205273 208.40183 
L 239.458909 206.766682 
L 239.560364 206.8812 
L 239.763273 208.038706 
L 240.219818 211.853328 
L 240.270545 211.442366 
L 240.93 200.817523 
L 241.132909 199.224413 
L 241.183636 199.189622 
L 241.234364 199.284571 
L 241.386545 200.197819 
L 242.046 205.448995 
L 242.401091 207.288538 
L 242.502545 207.195038 
L 242.654727 207.163147 
L 242.806909 207.584981 
L 242.959091 208.333699 
L 243.009818 208.206859 
L 243.364909 206.290488 
L 243.466364 206.528947 
L 243.770727 208.126406 
L 243.872182 208.016237 
L 244.024364 207.93361 
L 244.125818 208.130755 
L 244.176545 208.069872 
L 244.531636 204.885101 
L 244.683818 205.064126 
L 244.734545 205.009766 
L 244.937455 204.839438 
L 245.089636 205.256198 
L 245.292545 205.858507 
L 245.394 205.750512 
L 245.495455 205.275768 
L 245.850545 203.210813 
L 245.952 203.234006 
L 246.307091 200.630525 
L 246.408545 200.81245 
L 246.560727 199.866586 
L 246.712909 199.222963 
L 246.763636 199.257029 
L 246.915818 200.036914 
L 247.220182 203.464493 
L 247.676727 208.483008 
L 247.930364 208.540992 
L 248.133273 209.343346 
L 248.234727 209.920286 
L 248.285455 209.802144 
L 248.589818 207.358118 
L 248.742 200.895802 
L 248.995636 192.834576 
L 249.249273 190.907333 
L 249.3 190.921829 
L 249.401455 191.342938 
L 249.604364 193.45283 
L 250.162364 199.866586 
L 250.314545 200.52108 
L 250.618909 203.60003 
L 250.821818 205.617874 
L 250.872545 205.607002 
L 251.024727 205.456968 
L 251.126182 205.652664 
L 251.329091 206.797848 
L 251.836364 210.83136 
L 251.887091 210.692923 
L 252.140727 210.10656 
L 252.242182 210.248621 
L 252.495818 211.245946 
L 252.546545 211.0488 
L 252.952364 206.835538 
L 253.206 204.485736 
L 253.510364 203.885602 
L 253.611818 204.055205 
L 253.814727 205.099642 
L 254.271273 209.32885 
L 255.032182 216.14052 
L 255.488727 218.720083 
L 255.590182 217.255262 
L 255.843818 213.731285 
L 255.894545 213.504422 
L 256.351091 207.330576 
L 256.655455 206.598528 
L 256.756909 206.773205 
L 256.909091 207.301584 
L 256.959818 207.084144 
L 257.264182 205.309109 
L 257.365636 205.485235 
L 257.568545 206.773205 
L 258.126545 211.150997 
L 258.380182 211.090838 
L 258.532364 211.433669 
L 258.633818 211.649659 
L 259.039636 209.102712 
L 259.141091 209.208533 
L 259.344 210.137726 
L 259.749818 213.20363 
L 259.800545 213.173914 
L 260.155636 210.634939 
L 260.257091 210.769027 
L 260.46 211.727938 
L 261.829636 219.868166 
L 262.134 220.70821 
L 262.235455 220.443658 
L 262.692 217.269034 
L 263.402182 207.48061 
L 263.960182 190.28473 
L 264.366 182.820739 
L 264.416727 182.803344 
L 264.518182 183.345494 
L 264.721091 186.117854 
L 265.482 198.157507 
L 265.989273 203.017291 
L 266.242909 204.445147 
L 266.547273 206.170171 
L 266.750182 206.053478 
L 266.851636 206.231054 
L 266.902364 206.149152 
L 267.054545 203.261549 
L 267.308182 199.277323 
L 267.409636 198.998275 
L 267.460364 199.083077 
L 267.612545 200.004298 
L 267.967636 204.216835 
L 268.373455 208.744661 
L 268.880727 210.480557 
L 268.931455 210.388507 
L 269.286545 207.819816 
L 269.388 207.964051 
L 269.590909 209.012837 
L 270.250364 214.422019 
L 270.301091 214.412597 
L 270.808364 208.18584 
L 271.011273 207.603826 
L 271.163455 208.07857 
L 271.467818 210.241373 
L 272.431636 217.656077 
L 272.634545 218.634557 
L 272.685273 218.543232 
L 273.192545 215.260613 
L 273.294 215.34324 
L 273.496909 215.912208 
L 273.852 217.457482 
L 273.902727 217.078411 
L 274.207091 213.042725 
L 274.460727 211.988866 
L 274.917273 203.829067 
L 274.968 203.809498 
L 275.069455 204.132034 
L 275.170909 204.393686 
L 275.424545 203.644243 
L 275.526 203.92619 
L 275.576727 203.789928 
L 275.830364 202.179422 
L 275.931818 202.399037 
L 276.134727 203.966779 
L 277.098545 214.677149 
L 277.2 214.545235 
L 277.504364 213.884942 
L 277.656545 214.103107 
L 277.910182 215.093909 
L 278.975455 220.160986 
L 279.076909 218.652677 
L 279.330545 208.523597 
L 279.634909 200.845066 
L 279.787091 200.254354 
L 279.888545 200.605882 
L 280.142182 203.010043 
L 280.953818 212.836157 
L 281.004545 212.6796 
L 281.258182 211.812014 
L 281.308909 211.813464 
L 281.410364 211.0488 
L 281.714727 208.577232 
L 281.816182 208.611298 
L 281.968364 209.268691 
L 282.374182 212.096136 
L 282.424909 211.987416 
L 282.678545 211.35829 
L 282.78 211.458312 
L 282.982909 212.238922 
L 283.490182 215.645482 
L 284.098909 219.266582 
L 284.149636 219.36443 
L 284.200364 219.223819 
L 284.707636 216.442762 
L 284.809091 216.460882 
L 285.012 216.889238 
L 285.519273 218.874466 
L 285.823636 220.021824 
L 286.432364 210.140626 
L 286.584545 208.78525 
L 287.142545 192.849072 
L 287.244 191.856096 
L 287.599091 184.116682 
L 287.700545 184.492853 
L 287.903455 187.376107 
L 288.664364 203.248502 
L 288.765818 202.73172 
L 288.816545 202.628798 
L 288.867273 202.69403 
L 289.019455 203.668162 
L 289.628182 208.76423 
L 289.881818 209.871 
L 290.084727 210.48563 
L 290.338364 210.37691 
L 290.490545 210.666106 
L 290.744182 211.787371 
L 291.048545 213.58415 
L 291.099273 213.522542 
L 291.454364 211.451064 
L 291.758727 208.643189 
L 291.860182 208.525046 
L 291.961636 208.742486 
L 292.215273 210.228326 
L 293.229818 217.961942 
L 293.280545 217.936574 
L 293.382 217.254538 
L 294.244364 200.964658 
L 294.345818 201.250229 
L 294.447273 201.67931 
L 294.548727 200.460197 
L 295.157455 187.646458 
L 295.208182 187.826933 
L 295.918364 193.638379 
L 296.476364 201.596683 
L 296.831455 203.881253 
L 296.882182 203.849362 
L 296.983636 203.850086 
L 297.135818 204.349474 
L 297.389455 206.334701 
L 297.592364 207.781402 
L 297.846 207.241426 
L 297.896727 207.305208 
L 298.048909 207.916214 
L 298.404 210.748733 
L 298.962 215.134498 
L 299.063455 215.004034 
L 299.215636 214.306776 
L 299.317091 212.864424 
L 299.773636 199.529554 
L 299.875091 199.068581 
L 299.925818 199.080178 
L 300.027273 199.190347 
L 300.078 199.157731 
L 300.230182 199.106995 
L 300.382364 199.641898 
L 300.585273 200.956685 
L 300.636 200.729822 
L 300.788182 200.047786 
L 300.838909 200.073154 
L 300.991091 200.873333 
L 301.447636 204.887275 
L 301.498364 204.860458 
L 301.599818 203.129635 
L 301.802727 200.096347 
L 301.954909 199.183099 
L 302.056364 198.162581 
L 302.360727 194.462477 
L 302.411455 194.504515 
L 302.563636 195.509088 
L 302.766545 196.647024 
L 302.868 196.871712 
L 303.070909 197.516784 
L 303.172364 197.436331 
L 303.223091 197.492141 
L 303.375273 198.232162 
L 303.679636 201.635822 
L 303.984 204.675634 
L 304.136182 204.519077 
L 304.237636 204.729994 
L 304.440545 206.041157 
L 305.150727 213.212328 
L 305.201455 213.071717 
L 305.455091 207.531346 
L 305.911636 199.678862 
L 306.063818 199.294718 
L 306.165273 199.657118 
L 306.368182 201.17195 
L 306.469636 200.942914 
L 306.621818 200.671838 
L 306.774 201.066854 
L 306.824727 200.958134 
L 307.027636 200.579064 
L 307.129091 200.866085 
L 307.382727 202.781731 
L 307.484182 202.294666 
L 307.636364 201.521304 
L 307.687091 201.547397 
L 307.839273 202.350475 
L 308.143636 203.82037 
L 308.397273 205.256923 
L 308.498727 205.752686 
L 308.650909 204.195816 
L 308.955273 200.347128 
L 309.006 200.258702 
L 309.056727 200.313787 
L 309.208909 201.150206 
L 309.564 205.196765 
L 310.172727 212.328797 
L 310.223455 212.283134 
L 310.324909 211.775774 
L 310.730727 204.903221 
L 310.781455 204.849586 
L 310.933636 203.270246 
L 311.136545 198.555422 
L 311.440909 193.160011 
L 311.643818 192.069912 
L 311.745273 192.389549 
L 311.948182 194.331288 
L 312.607636 201.778608 
L 312.810545 203.11224 
L 313.368545 209.465112 
L 313.672909 212.494051 
L 313.723636 212.333146 
L 314.028 210.643637 
L 314.129455 210.59725 
L 314.332364 209.52672 
L 314.535273 208.888896 
L 314.586 208.884547 
L 314.687455 208.410528 
L 315.194727 201.655392 
L 315.245455 201.713376 
L 315.397636 202.501234 
L 315.752727 206.254973 
L 316.057091 209.502802 
L 316.107818 209.457864 
L 316.361455 208.684502 
L 316.412182 208.705522 
L 316.564364 209.148374 
L 316.868727 211.077067 
L 317.020909 212.224426 
L 317.071636 212.202682 
L 317.477455 210.055099 
L 317.629636 210.440693 
L 317.781818 211.220578 
L 317.883273 209.493379 
L 318.187636 203.062229 
L 318.339818 202.547621 
L 318.441273 202.862184 
L 318.745636 204.745939 
L 318.847091 204.598805 
L 318.948545 204.564739 
L 319.100727 205.01484 
L 319.354364 206.836987 
L 319.760182 210.515347 
L 319.810909 210.502301 
L 320.115273 209.766629 
L 320.267455 210.10656 
L 320.470364 211.017634 
L 320.825455 207.4248 
L 320.926909 207.530621 
L 321.129818 208.612747 
L 322.195091 216.730507 
L 322.245818 216.366658 
L 322.398 213.817536 
L 322.803818 202.867982 
L 322.956 202.220011 
L 323.057455 202.498334 
L 323.260364 204.085646 
L 323.666182 207.875626 
L 323.716909 207.850258 
L 323.869091 207.737189 
L 323.970545 207.892296 
L 324.173455 208.820765 
L 324.680727 212.287483 
L 324.731455 212.198333 
L 325.035818 211.501075 
L 325.137273 211.626466 
L 325.340182 212.355614 
L 325.593818 213.62184 
L 326.202545 204.549518 
L 326.304 204.737242 
L 326.506909 206.104214 
L 327.369273 214.356787 
L 327.42 214.221974 
L 327.825818 211.827235 
L 328.079455 210.165994 
L 328.180909 210.074669 
L 328.282364 210.261667 
L 328.536 211.543838 
L 329.854909 219.748574 
L 330.159273 220.68719 
L 330.21 220.669795 
L 330.362182 219.985584 
L 330.565091 218.360582 
L 331.173818 208.617096 
L 331.275273 208.542442 
L 331.427455 208.999066 
L 331.528909 209.420899 
L 331.579636 209.187514 
L 331.934727 201.40896 
L 332.086909 201.04801 
L 332.391273 195.053189 
L 332.898545 187.168814 
L 333.101455 186.27731 
L 333.202909 186.28021 
L 333.304364 186.529541 
L 333.355091 186.509246 
L 333.456545 186.437491 
L 333.507273 186.507072 
L 333.659455 187.400026 
L 333.913091 190.912406 
L 334.420364 198.214042 
L 335.029091 205.28664 
L 335.130545 205.211986 
L 335.232 204.994546 
L 335.536364 201.723523 
L 335.739273 197.444304 
L 336.094364 189.512093 
L 336.297273 187.939277 
L 336.348 188.01828 
L 336.601636 186.723787 
L 336.652364 186.891216 
L 336.804545 188.350963 
L 337.514727 197.11452 
L 337.869818 201.968506 
L 338.326364 208.45764 
L 338.377091 208.322102 
L 338.58 207.599477 
L 338.630727 207.616147 
L 338.782909 208.139453 
L 339.087273 209.683277 
L 339.188727 209.180266 
L 339.949636 203.102093 
L 340.000364 203.157178 
L 340.152545 203.829792 
L 340.507636 207.112411 
L 340.710545 208.238026 
L 340.964182 208.507651 
L 341.217818 209.497728 
L 341.319273 209.29116 
L 341.572909 208.53157 
L 341.674364 208.659134 
L 341.877273 209.567309 
L 341.928 209.813741 
L 341.978727 209.796346 
L 342.080182 208.491706 
L 342.384545 202.999896 
L 342.536727 201.89965 
L 342.841091 199.214266 
L 343.094727 198.048062 
L 343.196182 198.398866 
L 343.500545 200.633424 
L 343.602 200.492088 
L 343.703455 200.462371 
L 343.855636 201.088598 
L 344.16 204.135658 
L 344.870182 211.92001 
L 345.174545 211.347418 
L 345.225273 211.377859 
L 345.377455 211.739534 
L 345.681818 213.276835 
L 346.290545 216.945773 
L 346.341273 216.779794 
L 346.645636 213.454411 
L 347.000727 208.706246 
L 347.102182 208.475035 
L 347.152909 208.509101 
L 347.305091 209.049802 
L 347.710909 211.942478 
L 347.812364 211.662706 
L 348.066 210.679877 
L 348.167455 210.592901 
L 348.624 208.324277 
L 349.029818 203.029613 
L 349.384909 197.686387 
L 349.435636 197.700883 
L 349.587818 198.572093 
L 349.942909 203.11224 
L 350.196545 204.998894 
L 350.500909 206.659411 
L 350.602364 207.126907 
L 351.160364 203.960981 
L 351.261818 203.836315 
L 351.363273 204.05593 
L 351.566182 205.318531 
L 351.819818 207.321154 
L 352.073455 205.109789 
L 352.124182 205.130808 
L 352.276364 205.84981 
L 352.682182 209.817365 
L 352.885091 211.690248 
L 353.037273 209.044728 
L 353.290909 205.547568 
L 353.696727 202.74984 
L 353.747455 202.795502 
L 353.899636 203.482613 
L 354.153273 205.39681 
L 354.204 205.10689 
L 354.457636 204.021139 
L 354.559091 203.621774 
L 354.812727 202.770134 
L 354.863455 202.673011 
L 355.015636 200.911747 
L 355.269273 198.551798 
L 355.32 198.474245 
L 355.370727 198.519907 
L 355.421455 198.675739 
L 355.472182 198.652546 
L 355.725818 197.215992 
L 355.827273 197.487792 
L 356.030182 199.21644 
L 356.791091 207.428424 
L 356.892545 207.523373 
L 357.044727 208.029283 
L 357.349091 210.074669 
L 357.602727 211.817088 
L 358.059273 207.878525 
L 358.465091 203.829067 
L 358.566545 203.881253 
L 358.718727 204.604603 
L 359.073818 207.906792 
L 359.276727 209.017186 
L 359.479636 208.691026 
L 359.834727 203.689906 
L 359.936182 202.812898 
L 360.189818 200.831294 
L 360.291273 201.095122 
L 360.494182 202.777382 
L 360.697091 204.27047 
L 360.950727 204.877853 
L 361.052182 205.37869 
L 361.102909 205.260547 
L 361.660909 201.421282 
L 361.711636 201.49956 
L 361.863818 202.291042 
L 362.218909 206.009266 
L 363.081273 215.341066 
L 363.334909 217.055218 
L 363.385636 216.910258 
L 363.791455 214.159642 
L 363.892909 214.07629 
L 364.095818 212.708592 
L 364.349455 209.794896 
L 364.603091 208.121333 
L 364.755273 208.051752 
L 365.110364 205.028611 
L 365.161091 205.064851 
L 365.313273 205.746163 
L 365.566909 207.66036 
L 365.617636 207.293611 
L 365.871273 205.779504 
L 365.972727 206.038982 
L 366.226364 207.980722 
L 366.378545 208.854106 
L 366.784364 208.441694 
L 367.190182 205.180094 
L 367.748182 191.396573 
L 367.849636 191.797387 
L 368.052545 194.171107 
L 368.154 195.261206 
L 368.204727 195.06841 
L 368.509091 192.22357 
L 368.610545 192.62221 
L 368.813455 194.900981 
L 369.371455 201.848189 
L 369.523636 202.726646 
L 369.980182 195.638827 
L 370.081636 195.81133 
L 370.284545 197.616806 
L 370.538182 199.720176 
L 370.690364 200.05141 
L 370.893273 201.443026 
L 371.299091 205.643242 
L 371.349818 204.965554 
L 371.857091 195.95484 
L 371.958545 196.112122 
L 372.516545 194.266781 
L 372.567273 194.379125 
L 372.719455 195.367027 
L 373.074545 200.071704 
L 373.581818 207.865478 
L 373.581818 207.865478 
" style="fill:none;stroke:#000000;stroke-linecap:square;stroke-width:1.5;"/>
   </g>
   <g id="line2d_16">
    <path clip-path="url(#pe57d6ae37b)" d="M 69.218182 157.776 
L 69.522545 186.905712 
L 69.826909 200.311613 
L 70.334182 211.967846 
L 70.689273 216.59497 
L 70.790727 216.335491 
L 70.993636 215.86872 
L 71.095091 216.017304 
L 71.298 216.902285 
L 71.399455 217.292952 
L 71.805273 215.148994 
L 71.906727 215.272934 
L 72.109636 216.139795 
L 72.718364 220.130544 
L 72.769091 219.6558 
L 73.073455 216.187632 
L 73.174909 216.025277 
L 73.225636 216.073838 
L 73.377818 216.571051 
L 73.783636 218.909256 
L 73.834364 218.791838 
L 74.290909 216.139795 
L 74.443091 216.516691 
L 74.493818 216.709488 
L 74.544545 216.690643 
L 74.950364 214.98084 
L 75.001091 215.009832 
L 75.153273 215.340341 
L 75.305455 213.534139 
L 75.508364 211.993939 
L 75.711273 211.780848 
L 75.964909 210.955301 
L 76.066364 211.045901 
L 76.269273 211.935955 
L 76.776545 215.966568 
L 77.131636 218.680219 
L 77.182364 218.467128 
L 77.385273 213.562406 
L 77.638909 208.245998 
L 77.740364 207.91549 
L 77.791091 207.963326 
L 77.892545 207.913315 
L 78.095455 207.48061 
L 78.146182 207.508152 
L 78.298364 208.02421 
L 78.399818 208.42285 
L 78.602727 206.58983 
L 79.059273 200.874782 
L 79.160727 200.543549 
L 79.211455 200.568917 
L 79.363636 201.294442 
L 79.668 204.59953 
L 79.921636 207.774878 
L 79.972364 207.564686 
L 80.530364 197.419661 
L 80.834727 192.101078 
L 81.139091 190.823256 
L 81.240545 191.00663 
L 81.342 191.272632 
L 81.392727 191.18928 
L 81.494182 191.073312 
L 81.595636 191.383526 
L 81.646364 191.347286 
L 81.849273 190.307923 
L 81.950727 190.702214 
L 82.255091 192.496819 
L 82.356545 192.815731 
L 82.559455 194.779939 
L 83.066727 200.244206 
L 83.168182 200.579789 
L 83.472545 198.098074 
L 83.675455 198.614131 
L 83.726182 198.545275 
L 83.878364 197.398642 
L 84.132 193.83625 
L 84.334909 189.054019 
L 84.537818 185.60687 
L 84.588545 185.466984 
L 84.639273 185.540914 
L 84.791455 186.736834 
L 85.146545 192.561326 
L 85.603091 200.857387 
L 85.653818 200.402938 
L 85.958182 196.737624 
L 86.008909 196.674566 
L 86.059636 196.758643 
L 86.211818 197.701608 
L 86.465455 199.258478 
L 86.516182 199.164979 
L 86.871273 196.868813 
L 86.972727 197.166706 
L 87.175636 198.803304 
L 88.240909 210.935731 
L 88.342364 210.676978 
L 88.646727 209.70792 
L 88.748182 209.749234 
L 88.951091 210.303706 
L 89.407636 212.609294 
L 90.117818 215.894813 
L 90.168545 215.97889 
L 90.320727 214.882267 
L 90.675818 212.416498 
L 90.878727 212.219352 
L 91.030909 212.464334 
L 91.386 213.666053 
L 91.436727 213.867547 
L 91.487455 213.827683 
L 91.893273 208.974422 
L 91.994727 208.928035 
L 92.146909 209.336098 
L 92.502 211.275662 
L 93.262909 215.340341 
L 93.618 216.554381 
L 93.668727 216.410146 
L 94.125273 211.527168 
L 94.277455 211.399603 
L 94.429636 211.70112 
L 94.531091 210.241373 
L 94.784727 206.660136 
L 94.886182 206.44632 
L 94.936909 206.503579 
L 95.089091 207.105888 
L 95.190545 207.588605 
L 95.241273 207.539318 
L 95.545636 206.491982 
L 95.596364 206.513002 
L 95.748545 206.918165 
L 95.85 207.247224 
L 96.052909 205.746888 
L 96.509455 200.313787 
L 96.560182 200.33843 
L 96.712364 200.803752 
L 96.763091 200.64792 
L 97.016727 199.45345 
L 97.118182 199.617254 
L 97.321091 200.879131 
L 97.929818 207.188515 
L 98.234182 209.752858 
L 98.64 207.24505 
L 98.690727 207.297235 
L 98.741455 207.216782 
L 99.147273 204.463267 
L 99.198 204.482837 
L 99.350182 204.948883 
L 99.705273 207.31463 
L 100.364727 211.717066 
L 100.618364 209.59775 
L 100.719818 208.704797 
L 101.074909 203.279669 
L 101.176364 203.093395 
L 101.227091 203.155728 
L 101.379273 203.774707 
L 101.734364 206.234678 
L 101.785091 206.197714 
L 101.886545 204.657514 
L 102.546 191.452382 
L 102.799636 190.190506 
L 103.104 186.867298 
L 103.205455 184.363114 
L 103.509818 176.754888 
L 103.712727 175.504608 
L 103.814182 175.960507 
L 104.017091 178.403808 
L 104.169273 180.945682 
L 104.22 180.934085 
L 104.321455 180.577483 
L 104.372182 180.629669 
L 104.524364 181.850957 
L 104.879455 188.002334 
L 105.741818 203.036861 
L 105.843273 203.685557 
L 106.401273 197.737123 
L 106.502727 196.635427 
L 106.756364 192.67512 
L 107.111455 191.331341 
L 107.212909 191.60604 
L 107.415818 193.036795 
L 107.973818 198.871435 
L 108.075273 198.482942 
L 108.278182 197.914699 
L 108.379636 198.103872 
L 108.582545 199.230936 
L 110.155091 210.505925 
L 110.560909 211.701845 
L 110.662364 211.002413 
L 110.966727 205.771531 
L 111.271091 202.045334 
L 111.423273 201.619877 
L 111.474 201.631474 
L 111.626182 202.000397 
L 111.930545 203.636995 
L 112.032 204.234955 
L 112.082727 204.187843 
L 112.234909 202.422955 
L 113.148 187.45656 
L 113.503091 179.398958 
L 113.706 179.201088 
L 113.807455 179.100341 
L 113.908909 179.356195 
L 114.111818 181.14935 
L 114.568364 188.570578 
L 115.075636 196.372325 
L 115.177091 195.845395 
L 115.633636 184.90019 
L 115.684364 184.750157 
L 115.735091 184.769002 
L 115.887273 185.599622 
L 115.988727 186.077266 
L 116.242364 184.176115 
L 116.343818 184.610995 
L 116.597455 187.463808 
L 117.206182 196.496266 
L 117.256909 195.994704 
L 117.510545 193.796386 
L 117.612 194.031221 
L 117.865636 195.923674 
L 118.981636 205.639618 
L 119.032364 205.600478 
L 119.235273 204.029837 
L 120.249818 187.280434 
L 120.300545 187.274635 
L 120.402 187.608768 
L 120.503455 188.229197 
L 120.554182 188.12555 
L 120.706364 185.835907 
L 120.96 182.613446 
L 121.010727 182.506901 
L 121.061455 182.554738 
L 121.213636 183.43537 
L 121.518 187.160842 
L 122.025273 194.540755 
L 122.076 194.126894 
L 122.989091 176.521502 
L 123.293455 173.033765 
L 123.344182 172.953312 
L 123.394909 173.03159 
L 123.547091 174.070229 
L 123.902182 178.223333 
L 123.952909 177.72757 
L 124.206545 175.276296 
L 124.257273 175.284994 
L 124.358727 175.737269 
L 124.612364 178.603128 
L 125.018182 183.762254 
L 125.119636 183.811541 
L 125.271818 184.368187 
L 125.525455 186.663629 
L 126.235636 195.528658 
L 126.286364 195.451104 
L 126.895091 188.459683 
L 126.996545 188.493024 
L 127.148727 189.160565 
L 127.503818 192.213422 
L 127.808182 195.005352 
L 127.960364 189.119976 
L 128.264727 180.19044 
L 128.670545 176.274346 
L 128.772 176.315659 
L 128.873455 175.55027 
L 129.177818 172.880832 
L 129.228545 172.877208 
L 129.33 173.258453 
L 129.532909 175.230634 
L 130.040182 183.390432 
L 130.699636 193.035346 
L 130.953273 193.648526 
L 131.206909 194.292874 
L 131.257636 194.229816 
L 131.409818 193.373102 
L 131.511273 191.238566 
L 131.967818 178.553842 
L 132.221455 175.397338 
L 132.678 165.483523 
L 132.779455 165.047194 
L 132.830182 165.106627 
L 132.982364 166.168459 
L 133.083818 166.630157 
L 133.134545 166.534483 
L 133.286727 166.192378 
L 133.337455 166.228618 
L 133.438909 166.612762 
L 133.489636 166.411267 
L 133.641818 163.919405 
L 134.098364 153.701899 
L 134.149091 153.569261 
L 134.199818 153.634493 
L 134.91 157.473758 
L 135.112909 158.768976 
L 135.265091 157.693373 
L 135.417273 156.941755 
L 135.468 156.988867 
L 135.670909 157.295458 
L 135.772364 156.892469 
L 135.975273 155.759606 
L 136.026 155.796571 
L 136.178182 156.800419 
L 136.736182 163.071389 
L 136.939091 165.000806 
L 137.142 166.064088 
L 137.344909 168.23124 
L 137.750727 161.58265 
L 137.801455 161.745005 
L 138.004364 163.789666 
L 138.207273 164.802211 
L 138.359455 165.626309 
L 138.613091 168.713232 
L 139.830545 188.207453 
L 139.881273 187.803739 
L 140.134909 181.262419 
L 140.591455 169.743898 
L 140.794364 168.32184 
L 140.845091 168.346483 
L 140.997273 169.113322 
L 141.250909 171.855965 
L 141.352364 171.252206 
L 141.504545 170.717304 
L 141.606 171.141312 
L 142.113273 175.10017 
L 142.164 174.884904 
L 142.468364 170.897054 
L 142.620545 167.931173 
L 143.077091 152.203013 
L 143.229273 151.310059 
L 143.330727 151.681157 
L 143.533636 154.04328 
L 143.939455 162.25309 
L 144.598909 176.976677 
L 144.649636 176.917243 
L 144.801818 176.310586 
L 144.903273 176.611378 
L 145.156909 178.99597 
L 145.309091 180.636917 
L 145.359818 180.610099 
L 145.562727 180.064325 
L 145.613455 180.104189 
L 145.765636 180.713746 
L 146.07 183.35999 
L 146.577273 188.352413 
L 146.628 188.197306 
L 146.932364 186.312101 
L 147.236727 184.280486 
L 147.287455 184.164518 
L 147.744 176.83969 
L 148.200545 173.422258 
L 148.302 173.446176 
L 148.454182 174.125314 
L 148.758545 177.081773 
L 149.925273 191.29655 
L 149.976 191.199427 
L 150.381818 188.41547 
L 150.686182 185.42567 
L 150.787636 185.227075 
L 150.838364 185.256792 
L 150.990545 185.752555 
L 151.294909 187.872595 
L 151.396364 188.531438 
L 151.447091 188.492299 
L 151.903636 186.04175 
L 152.208 184.210906 
L 152.309455 184.124654 
L 152.410909 183.411451 
L 152.867455 174.12024 
L 152.918182 174.150682 
L 153.070364 174.982752 
L 153.374727 178.532822 
L 154.135636 187.851576 
L 154.44 188.105256 
L 154.642909 188.832955 
L 155.048727 191.35236 
L 156.114 198.191573 
L 156.672 200.298566 
L 156.722727 200.19347 
L 156.874909 197.163082 
L 157.382182 186.055522 
L 157.585091 184.927733 
L 157.686545 184.779149 
L 158.092364 182.088691 
L 158.143091 182.115509 
L 158.346 182.691 
L 158.853273 175.203091 
L 158.904 175.266149 
L 159.208364 175.956883 
L 159.309818 176.067053 
L 159.462 176.667912 
L 159.512727 176.954933 
L 159.563455 176.891875 
L 159.817091 175.295866 
L 159.867818 175.327032 
L 160.02 176.081549 
L 160.121455 176.522952 
L 160.273636 175.504608 
L 160.578 171.717528 
L 160.628727 171.608083 
L 160.679455 171.645048 
L 160.831636 172.47277 
L 161.136 176.134459 
L 162.353455 192.613512 
L 162.911455 196.840546 
L 163.418727 199.187448 
L 163.976727 200.742869 
L 164.484 201.616253 
L 164.534727 201.607555 
L 164.686909 199.752792 
L 165.042 195.825101 
L 165.244909 195.385147 
L 165.397091 195.569246 
L 165.549273 195.961363 
L 165.6 195.888883 
L 165.701455 194.935771 
L 166.158 186.654206 
L 166.310182 186.343992 
L 166.462364 186.794818 
L 166.766727 188.340091 
L 166.817455 188.191507 
L 167.071091 187.516718 
L 167.172545 187.628338 
L 167.375455 188.482152 
L 167.476909 189.117077 
L 167.527636 189.060542 
L 167.933455 186.772349 
L 168.034909 186.994862 
L 168.288545 188.296603 
L 168.339273 188.083512 
L 168.998727 182.00099 
L 169.303091 177.804398 
L 169.607455 176.51353 
L 169.759636 173.305565 
L 170.064 167.88696 
L 170.469818 163.144594 
L 170.622 162.418344 
L 170.672727 162.453859 
L 170.824909 163.325794 
L 171.433636 167.706485 
L 171.484364 167.88696 
L 171.585818 166.633056 
L 171.940909 161.987813 
L 172.143818 159.875021 
L 172.448182 156.3264 
L 172.600364 155.669006 
L 172.752545 151.862357 
L 173.209091 139.814006 
L 173.817818 130.947528 
L 173.919273 130.868525 
L 174.122182 131.409226 
L 174.172909 131.384582 
L 174.274364 130.227077 
L 174.578727 125.236104 
L 174.680182 124.09092 
L 175.086 116.839296 
L 175.441091 115.296922 
L 175.491818 115.352006 
L 175.644 116.451528 
L 175.846909 118.430957 
L 175.948364 117.508286 
L 176.455636 109.146994 
L 176.709273 107.56693 
L 176.76 107.662603 
L 176.912182 108.127925 
L 177.013636 107.202355 
L 177.115091 104.097312 
L 177.571636 87.09133 
L 177.723818 86.007029 
L 178.078909 87.821928 
L 178.129636 87.582019 
L 178.281818 86.921726 
L 178.332545 86.994206 
L 178.484727 88.367702 
L 179.397818 102.494779 
L 179.448545 102.115709 
L 179.854364 96.145531 
L 179.905091 96.286867 
L 180.057273 97.965504 
L 180.666 110.666899 
L 181.325455 125.30351 
L 181.376182 125.260022 
L 181.426909 125.24915 
L 181.731273 125.97685 
L 181.934182 127.947581 
L 182.289273 133.109606 
L 182.34 132.75228 
L 182.847273 124.129334 
L 182.898 124.104691 
L 182.999455 124.632346 
L 183.303818 127.874376 
L 183.354545 127.606925 
L 183.557455 125.549942 
L 183.760364 123.830717 
L 183.963273 124.526525 
L 184.166182 125.805072 
L 184.216909 125.722445 
L 184.419818 121.018493 
L 184.673455 111.472152 
L 185.028545 98.358346 
L 185.180727 97.312459 
L 185.282182 97.85316 
L 185.840182 101.965675 
L 185.890909 101.87435 
L 185.992364 101.087218 
L 186.246 96.2586 
L 186.499636 92.069981 
L 186.550364 91.977206 
L 186.601091 92.106946 
L 186.753273 93.639173 
L 187.159091 101.000966 
L 187.260545 100.31748 
L 187.717091 93.05136 
L 187.869273 92.946989 
L 188.122909 92.986853 
L 188.325818 92.162755 
L 188.376545 92.196096 
L 188.478 92.192472 
L 188.630182 92.049686 
L 188.731636 92.348304 
L 188.934545 93.980554 
L 188.985273 93.589886 
L 189.238909 89.62813 
L 189.391091 89.452728 
L 190.101273 79.55051 
L 190.152 79.577328 
L 190.304182 80.010034 
L 190.354909 79.952774 
L 190.456364 79.917259 
L 190.963636 73.926062 
L 191.014364 74.010864 
L 191.166545 75.424949 
L 191.318727 76.628842 
L 191.420182 75.326376 
L 191.572364 69.621475 
L 191.978182 55.290005 
L 192.333273 50.825237 
L 192.688364 48.18769 
L 192.789818 48.615322 
L 193.144909 50.595475 
L 193.449273 52.093637 
L 193.5 52.041451 
L 193.855091 47.091067 
L 193.905818 47.204136 
L 194.058 47.774554 
L 194.108727 47.762957 
L 194.210182 47.727442 
L 194.311636 48.045629 
L 194.463818 49.548139 
L 194.768182 52.733635 
L 194.818909 52.739434 
L 195.174 47.651338 
L 195.224727 47.707147 
L 195.275455 47.848483 
L 195.326182 47.764406 
L 195.427636 47.619446 
L 195.579818 48.207259 
L 195.630545 48.010114 
L 195.833455 46.983072 
L 195.934909 47.371565 
L 196.137818 50.244672 
L 196.492909 59.666347 
L 197.304545 82.354037 
L 198.065455 94.561118 
L 198.268364 97.81837 
L 198.674182 109.147718 
L 199.688727 140.627232 
L 199.739455 140.530834 
L 199.891636 139.103702 
L 200.297455 134.154768 
L 200.398909 132.437717 
L 200.855455 120.57709 
L 200.956909 120.21179 
L 201.007636 120.315437 
L 201.261273 121.06343 
L 201.464182 120.79453 
L 201.514909 120.854688 
L 201.667091 121.691832 
L 201.920727 125.175221 
L 202.275818 130.310429 
L 202.529455 132.220277 
L 202.630909 131.942678 
L 202.833818 131.102635 
L 202.935273 131.428795 
L 203.138182 131.980368 
L 203.442545 130.50395 
L 203.493273 130.659782 
L 203.645455 132.015158 
L 204.304909 139.803134 
L 204.406364 139.425514 
L 204.66 138.098405 
L 204.761455 138.363682 
L 205.015091 139.13052 
L 205.116545 139.043544 
L 205.268727 138.202051 
L 205.522364 136.877842 
L 205.674545 137.2098 
L 205.978909 137.88169 
L 206.029636 137.788915 
L 206.131091 137.376504 
L 206.334 134.235221 
L 206.587636 130.284336 
L 206.638364 130.116182 
L 206.689091 130.153872 
L 206.841273 131.301955 
L 207.145636 136.64663 
L 207.855818 150.751238 
L 207.906545 150.978826 
L 207.957273 150.920842 
L 208.109455 150.714274 
L 208.210909 150.965054 
L 208.261636 150.899822 
L 208.363091 150.314909 
L 208.718182 146.569142 
L 208.768909 146.57639 
L 208.870364 147.035189 
L 209.073273 149.309611 
L 209.682 157.290384 
L 209.884909 158.729112 
L 210.037091 159.599597 
L 210.138545 158.160144 
L 210.392182 154.818091 
L 211.051636 149.819146 
L 211.153091 150.052531 
L 211.660364 152.263896 
L 211.711091 152.219683 
L 211.863273 151.696378 
L 212.167636 149.619826 
L 212.218364 149.632872 
L 212.319818 149.799576 
L 212.624182 148.786306 
L 212.674909 148.928366 
L 212.979273 150.306936 
L 213.03 150.219235 
L 213.334364 149.451672 
L 213.435818 149.698829 
L 213.638727 151.171622 
L 213.892364 153.459091 
L 213.943091 153.258322 
L 214.095273 151.181045 
L 214.704 134.956397 
L 214.856182 134.108381 
L 214.957636 134.584574 
L 215.262 135.919656 
L 215.312727 135.982714 
L 215.363455 135.909509 
L 215.464909 135.749328 
L 215.515636 135.789192 
L 215.617091 136.236394 
L 215.82 138.566626 
L 217.088182 157.615819 
L 217.443273 160.923082 
L 217.494 160.849152 
L 217.595455 158.261616 
L 218.305636 125.819568 
L 218.457818 125.125934 
L 218.559273 125.709398 
L 218.762182 128.594827 
L 219.218727 139.387099 
L 219.573818 145.982054 
L 219.624545 146.179925 
L 219.675273 145.893629 
L 219.827455 141.065011 
L 220.588364 113.402294 
L 220.740545 112.043294 
L 220.791273 112.11505 
L 220.994182 113.443608 
L 221.095636 113.286326 
L 221.4 109.951522 
L 221.450727 110.032699 
L 221.602909 111.429389 
L 221.907273 117.771389 
L 222.921818 142.688563 
L 223.124727 143.89463 
L 223.378364 147.599808 
L 225.306 181.682078 
L 225.864 186.379507 
L 226.422 189.364958 
L 226.777091 190.554355 
L 226.878545 190.243416 
L 227.132182 188.104531 
L 227.588727 181.316779 
L 227.791636 180.719544 
L 227.893091 180.810869 
L 228.096 181.515374 
L 228.552545 184.364563 
L 228.704727 185.427845 
L 228.755455 185.357539 
L 229.110545 180.797098 
L 229.212 180.745637 
L 229.364182 181.22473 
L 229.719273 183.54119 
L 229.77 183.889819 
L 229.820727 183.597 
L 230.125091 180.236102 
L 230.226545 180.109262 
L 230.328 180.329602 
L 230.581636 181.757458 
L 230.784545 183.115008 
L 230.835273 183.030931 
L 230.987455 179.343149 
L 231.342545 171.858139 
L 231.545455 171.067382 
L 231.646909 171.32976 
L 231.849818 172.716302 
L 232.357091 178.490059 
L 232.915091 184.748707 
L 232.965818 184.574755 
L 233.473091 176.825194 
L 233.574545 176.835341 
L 233.726727 177.470266 
L 233.878909 178.203038 
L 234.031091 177.1644 
L 234.538364 172.83372 
L 234.639818 173.076528 
L 234.842727 174.404362 
L 235.35 179.99112 
L 236.110909 187.96537 
L 236.161636 188.046547 
L 236.263091 187.334794 
L 237.125455 177.043358 
L 237.226909 177.024514 
L 237.379091 177.570288 
L 237.683455 179.943283 
L 238.190727 184.694347 
L 238.241455 184.467485 
L 238.799455 176.659939 
L 238.850182 176.671536 
L 239.002364 177.207888 
L 239.154545 178.082722 
L 239.509636 175.851787 
L 239.560364 175.911221 
L 239.712545 176.596882 
L 240.067636 179.859206 
L 240.219818 181.063099 
L 240.321273 179.783102 
L 240.879273 169.910602 
L 241.183636 166.545355 
L 241.234364 166.482298 
L 241.285091 166.54463 
L 241.437273 167.357131 
L 242.046 171.76609 
L 242.451818 173.743344 
L 242.553273 173.694058 
L 242.654727 173.770886 
L 242.806909 174.292742 
L 242.959091 175.185696 
L 243.009818 175.119014 
L 243.364909 173.290344 
L 243.466364 173.525904 
L 243.821455 175.295141 
L 243.922909 175.229909 
L 244.024364 175.280645 
L 244.176545 175.531426 
L 244.531636 172.348104 
L 244.582364 172.403914 
L 244.683818 172.482192 
L 244.988182 172.104571 
L 245.140364 172.580765 
L 245.292545 172.875758 
L 245.444727 172.496688 
L 246.712909 164.015803 
L 246.763636 163.954195 
L 246.814364 164.020877 
L 246.966545 164.891362 
L 247.270909 168.579144 
L 247.727455 173.913672 
L 247.930364 174.456547 
L 248.184 176.120688 
L 248.285455 176.525126 
L 248.589818 174.509458 
L 248.742 168.042067 
L 249.046364 158.238422 
L 249.3 155.882098 
L 249.350727 155.823389 
L 249.401455 155.899493 
L 249.553636 156.841008 
L 249.858 160.933229 
L 250.060909 163.175035 
L 250.213091 163.466405 
L 250.365273 164.396323 
L 250.669636 168.073234 
L 250.872545 169.883059 
L 251.024727 170.022221 
L 251.176909 170.67889 
L 251.481273 173.515032 
L 251.887091 177.236155 
L 252.09 177.11149 
L 252.242182 177.502157 
L 252.495818 178.931462 
L 252.546545 178.826366 
L 252.901636 175.748141 
L 253.206 172.230686 
L 253.561091 171.193498 
L 253.662545 171.353678 
L 253.865455 172.416235 
L 254.271273 176.396112 
L 255.438 188.587248 
L 255.488727 188.97719 
L 255.539455 188.70684 
L 256.198909 178.693003 
L 256.554 176.840414 
L 256.706182 176.519328 
L 256.756909 176.543246 
L 256.909091 176.832442 
L 257.112 175.075526 
L 257.314909 174.168802 
L 257.416364 174.367397 
L 257.619273 175.690157 
L 258.177273 179.901245 
L 258.329455 179.896896 
L 258.481636 180.183917 
L 258.633818 180.645614 
L 258.836727 178.999594 
L 259.039636 178.05228 
L 259.141091 178.115338 
L 259.293273 178.726344 
L 259.648364 181.521173 
L 259.800545 182.501827 
L 260.155636 180.183917 
L 260.206364 180.223056 
L 260.358545 180.775354 
L 260.713636 183.404203 
L 261.728182 191.277706 
L 262.184727 193.289026 
L 262.286182 192.917928 
L 262.692 190.025976 
L 263.351455 179.955605 
L 264.467455 146.844566 
L 264.518182 146.857613 
L 264.619636 147.386717 
L 264.873273 150.80125 
L 265.329818 157.504925 
L 265.684909 161.700067 
L 265.938545 164.199902 
L 266.242909 166.431562 
L 266.598 169.040117 
L 266.750182 169.309018 
L 266.902364 169.713456 
L 267.003818 168.238488 
L 267.308182 162.918456 
L 267.409636 162.52489 
L 267.460364 162.55823 
L 267.612545 163.377979 
L 267.916909 167.028072 
L 268.474909 173.858587 
L 268.83 176.027914 
L 268.931455 176.501208 
L 269.286545 174.607306 
L 269.438727 175.122638 
L 269.743091 177.591307 
L 270.301091 183.141101 
L 270.859091 177.094094 
L 271.011273 176.702702 
L 271.112727 176.886077 
L 271.315636 177.993571 
L 271.822909 182.649686 
L 272.634545 189.623712 
L 272.685273 189.648355 
L 272.888182 187.961021 
L 273.141818 186.773074 
L 273.243273 186.773074 
L 273.395455 187.097784 
L 273.750545 188.674224 
L 273.852 189.217099 
L 273.902727 188.88949 
L 274.257818 184.508074 
L 274.41 184.097837 
L 274.511455 182.251046 
L 274.866545 174.312312 
L 275.018727 173.716526 
L 275.120182 173.913672 
L 275.170909 173.780309 
L 275.475273 172.378546 
L 275.526 172.441603 
L 275.627455 171.684187 
L 275.881091 170.017872 
L 275.982545 170.283874 
L 276.185455 171.893654 
L 276.743455 179.183693 
L 277.149273 183.54409 
L 277.250727 183.492629 
L 277.453636 183.349118 
L 277.605818 183.641213 
L 277.859455 184.837858 
L 278.975455 192.254011 
L 279.026182 191.914805 
L 279.178364 187.687046 
L 279.634909 171.236261 
L 279.837818 169.794634 
L 279.939273 169.97076 
L 280.142182 171.449352 
L 280.598727 177.339077 
L 280.953818 181.60525 
L 281.004545 181.551614 
L 281.258182 181.031208 
L 281.308909 181.089917 
L 281.410364 180.436872 
L 281.714727 177.966029 
L 281.816182 177.966754 
L 281.968364 178.611101 
L 282.374182 181.746586 
L 282.475636 181.552339 
L 282.678545 181.161672 
L 282.78 181.280539 
L 282.982909 182.139427 
L 283.388727 185.238672 
L 284.149636 191.146517 
L 284.200364 191.105928 
L 284.758364 188.549558 
L 284.809091 188.574202 
L 284.961273 188.853974 
L 285.265636 190.010755 
L 285.823636 192.700488 
L 286.686 176.179397 
L 287.041091 163.196054 
L 287.396182 154.278115 
L 287.599091 149.756813 
L 287.700545 149.500958 
L 287.802 150.119938 
L 288.055636 153.971525 
L 288.664364 166.693939 
L 288.765818 166.433736 
L 288.816545 166.441709 
L 288.918 166.933848 
L 289.171636 169.960613 
L 289.577455 174.479741 
L 290.287636 177.879053 
L 290.490545 178.502381 
L 290.794909 180.387586 
L 291.099273 182.38151 
L 291.352909 181.357368 
L 291.454364 180.59053 
L 291.809455 177.430402 
L 291.910909 177.411557 
L 292.063091 177.957331 
L 292.367455 180.311482 
L 293.280545 188.709014 
L 293.331273 188.635085 
L 293.432727 187.324646 
L 294.295091 169.909877 
L 294.447273 170.072232 
L 294.548727 168.576245 
L 295.208182 152.619048 
L 295.258909 152.724869 
L 295.411091 153.776554 
L 295.512545 153.50113 
L 295.614 153.340949 
L 295.715455 153.740314 
L 295.918364 156.088666 
L 296.577818 165.216072 
L 296.882182 167.395546 
L 297.034364 167.780414 
L 297.237273 169.22929 
L 297.643091 172.875758 
L 297.693818 172.817774 
L 297.795273 172.767763 
L 297.896727 172.985203 
L 298.099636 174.260126 
L 298.556182 179.236603 
L 299.012727 183.586853 
L 299.114182 183.603523 
L 299.215636 183.247646 
L 299.317091 181.950254 
L 299.824364 166.936747 
L 300.027273 166.202525 
L 300.280909 165.42119 
L 300.331636 165.453082 
L 300.483818 166.064813 
L 300.585273 166.472875 
L 300.838909 165.177658 
L 300.889636 165.25956 
L 301.041818 166.196726 
L 301.498364 169.948291 
L 301.599818 168.329813 
L 301.853455 165.084158 
L 302.056364 163.211275 
L 302.360727 158.961773 
L 302.411455 158.893642 
L 302.462182 158.993664 
L 303.020182 161.168789 
L 303.223091 161.02093 
L 303.324545 161.375357 
L 303.527455 163.198229 
L 304.085455 168.93647 
L 304.186909 169.164058 
L 304.389818 170.575968 
L 304.846364 176.423654 
L 305.201455 180.528922 
L 305.404364 176.699078 
L 305.911636 166.685966 
L 306.114545 165.836501 
L 306.216 166.150339 
L 306.368182 167.070835 
L 306.418909 166.957766 
L 306.621818 166.211947 
L 306.672545 166.248187 
L 306.774 166.416341 
L 307.027636 165.643704 
L 307.078364 165.683568 
L 307.230545 166.359082 
L 307.382727 167.614435 
L 307.433455 167.522386 
L 307.636364 166.374302 
L 307.687091 166.391698 
L 307.839273 167.204198 
L 308.143636 168.836448 
L 308.397273 170.446954 
L 308.498727 171.060859 
L 308.600182 170.346206 
L 309.056727 165.413942 
L 309.158182 165.772718 
L 309.411818 168.17543 
L 310.223455 178.911168 
L 310.324909 178.679957 
L 310.781455 171.949464 
L 310.933636 170.278075 
L 311.136545 165.200851 
L 311.491636 157.907189 
L 311.694545 156.468461 
L 311.745273 156.477883 
L 311.846727 156.877973 
L 312.049636 158.867549 
L 312.556909 164.564477 
L 312.709091 165.357408 
L 313.013455 168.748022 
L 313.723636 178.224782 
L 313.774364 178.051555 
L 313.977273 177.396336 
L 314.078727 177.515203 
L 314.129455 177.590582 
L 314.180182 177.514478 
L 314.535273 176.376542 
L 314.586 176.399736 
L 314.687455 175.972829 
L 314.890364 171.99875 
L 315.144 168.572621 
L 315.245455 168.335611 
L 315.296182 168.408816 
L 315.448364 169.216968 
L 315.752727 172.467696 
L 316.107818 176.168525 
L 316.361455 175.674211 
L 316.412182 175.737269 
L 316.564364 176.323632 
L 316.868727 178.680682 
L 317.071636 180.199862 
L 317.426727 178.416854 
L 317.528182 178.519051 
L 317.731091 179.450419 
L 317.781818 179.768606 
L 317.883273 178.132733 
L 318.238364 170.761517 
L 318.390545 170.323013 
L 318.492 170.623805 
L 318.745636 171.894379 
L 318.796364 171.78421 
L 318.948545 171.517483 
L 318.999273 171.550099 
L 319.151455 172.07413 
L 319.405091 174.04921 
L 319.810909 177.687706 
L 319.861636 177.59928 
L 320.064545 177.18107 
L 320.115273 177.205714 
L 320.267455 177.646392 
L 320.470364 178.752437 
L 320.876182 175.232083 
L 320.977636 175.490837 
L 321.231273 177.211512 
L 322.195091 186.232373 
L 322.245818 185.992464 
L 322.398 183.679627 
L 322.854545 171.188424 
L 323.006727 170.488267 
L 323.108182 170.683963 
L 323.311091 172.098048 
L 323.666182 175.20744 
L 323.716909 175.182797 
L 323.919818 175.085674 
L 324.072 175.558968 
L 324.376364 177.741341 
L 324.680727 180.186091 
L 324.731455 180.17087 
L 325.035818 179.722219 
L 325.188 180.08027 
L 325.492364 181.800946 
L 325.593818 182.404704 
L 326.253273 173.004773 
L 326.354727 173.243957 
L 326.557636 174.656592 
L 327.115636 180.98627 
L 327.369273 183.431746 
L 327.42 183.407102 
L 327.724364 182.332949 
L 328.130182 179.57291 
L 328.231636 179.580883 
L 328.383818 180.074472 
L 328.688182 182.126381 
L 330.007091 192.22067 
L 330.21 193.009978 
L 330.311455 192.775867 
L 330.514364 191.599517 
L 330.666545 188.79744 
L 331.072364 180.286838 
L 331.275273 179.016264 
L 331.376727 178.962629 
L 331.528909 179.24965 
L 331.579636 178.924214 
L 331.985455 169.681565 
L 332.086909 169.15681 
L 332.391273 161.989262 
L 332.949273 150.812846 
L 333.253636 148.846464 
L 333.405818 148.167326 
L 333.558 147.722299 
L 333.659455 148.025266 
L 333.862364 150.053256 
L 335.079818 166.622909 
L 335.232 166.818605 
L 335.434909 165.469027 
L 335.688545 161.494224 
L 336.195818 149.907571 
L 336.601636 147.142459 
L 336.652364 147.17435 
L 336.804545 148.286918 
L 337.108909 153.470688 
L 337.311818 155.695099 
L 337.514727 157.272989 
L 337.869818 162.936576 
L 338.377091 171.479069 
L 338.427818 171.471096 
L 338.529273 171.502987 
L 338.681455 172.10747 
L 339.087273 175.448798 
L 339.188727 175.208165 
L 339.594545 172.203869 
L 339.898909 169.129267 
L 340.000364 168.996629 
L 340.101818 169.254658 
L 340.304727 170.639026 
L 340.761273 174.160829 
L 340.964182 174.565992 
L 341.268545 175.859035 
L 341.319273 175.744517 
L 341.572909 175.13496 
L 341.674364 175.312536 
L 341.877273 176.372194 
L 341.978727 176.7114 
L 342.080182 175.492286 
L 342.435273 169.301045 
L 342.587455 167.533982 
L 342.993273 163.459882 
L 343.145455 163.04892 
L 343.246909 163.393925 
L 343.500545 164.994283 
L 343.551273 164.902234 
L 343.703455 164.610864 
L 343.804909 164.829754 
L 344.007818 166.349659 
L 344.464364 172.482192 
L 344.920909 177.720322 
L 345.123818 177.81527 
L 345.276 178.249426 
L 345.580364 180.136805 
L 346.290545 186.15337 
L 346.392 185.793144 
L 346.696364 182.279314 
L 347.000727 178.000094 
L 347.152909 177.536947 
L 347.254364 177.696403 
L 347.457273 178.750987 
L 347.710909 180.703598 
L 347.761636 180.686928 
L 348.624 176.74764 
L 348.877636 172.656869 
L 349.435636 164.034648 
L 349.537091 164.191205 
L 349.74 165.846648 
L 350.247273 170.704258 
L 350.500909 172.314038 
L 350.602364 172.909099 
L 351.261818 169.890307 
L 351.363273 170.086728 
L 351.566182 171.354403 
L 351.819818 173.562144 
L 352.073455 171.529805 
L 352.124182 171.56532 
L 352.276364 172.352453 
L 352.631455 176.18447 
L 352.885091 179.143104 
L 352.935818 178.74084 
L 353.392364 172.19952 
L 353.696727 169.696786 
L 353.747455 169.648224 
L 353.798182 169.706208 
L 353.950364 170.410714 
L 354.153273 171.833496 
L 354.204 171.541402 
L 354.457636 170.318664 
L 354.609818 169.519934 
L 355.015636 166.660598 
L 355.32 163.4838 
L 355.472182 163.336666 
L 355.776545 161.34709 
L 355.878 161.662378 
L 356.080909 163.443211 
L 356.892545 172.264752 
L 357.146182 173.859312 
L 357.602727 178.254499 
L 357.653455 178.040683 
L 358.160727 173.609256 
L 358.465091 170.489717 
L 358.566545 170.390419 
L 358.668 170.678165 
L 358.921636 172.579315 
L 359.276727 175.544472 
L 359.479636 175.38864 
L 359.885455 170.009899 
L 360.189818 167.057789 
L 360.240545 167.055614 
L 360.342 167.433235 
L 360.9 170.607859 
L 361.052182 171.327586 
L 361.102909 171.236261 
L 361.660909 167.010677 
L 361.762364 167.147664 
L 361.965273 168.52116 
L 362.371091 173.605632 
L 363.334909 185.904763 
L 363.385636 185.945352 
L 363.791455 184.031155 
L 363.842182 184.061597 
L 363.892909 184.062322 
L 364.045091 183.194736 
L 364.298727 180.368016 
L 364.603091 177.518102 
L 364.755273 177.18397 
L 365.161091 173.379494 
L 365.262545 173.567218 
L 365.465455 174.87983 
L 365.566909 175.507507 
L 365.871273 173.460672 
L 365.922 173.50271 
L 366.074182 174.236208 
L 366.378545 176.557742 
L 366.429273 176.534549 
L 366.632182 176.323632 
L 366.733636 176.429453 
L 366.885818 175.537224 
L 367.190182 172.816325 
L 367.798909 157.03453 
L 367.900364 157.337496 
L 368.154 159.632938 
L 368.204727 159.341568 
L 368.559818 155.622619 
L 368.661273 156.060398 
L 368.864182 158.340619 
L 369.371455 164.743502 
L 369.523636 165.805334 
L 369.777273 161.118778 
L 369.980182 158.836382 
L 370.030909 158.78927 
L 370.132364 159.162542 
L 370.335273 161.224598 
L 370.538182 162.766973 
L 370.690364 163.148218 
L 370.893273 164.649278 
L 371.299091 169.554 
L 371.349818 169.006776 
L 371.907818 159.629314 
L 371.958545 159.64236 
L 372.516545 156.848981 
L 372.618 157.022208 
L 372.770182 158.11883 
L 373.074545 162.34079 
L 373.581818 171.396442 
L 373.581818 171.396442 
" style="fill:none;stroke:#800080;stroke-linecap:square;stroke-width:1.5;"/>
   </g>
   <g id="line2d_17">
    <path clip-path="url(#pe57d6ae37b)" d="M 322.81228 70.8 
L 373.429662 70.8 
L 373.429662 70.8 
" style="fill:none;stroke:#000000;stroke-linecap:square;stroke-width:1.5;"/>
   </g>
   <g id="line2d_18">
    <path clip-path="url(#pe57d6ae37b)" d="M 322.81228 107.04 
L 322.81228 99.792 
L 322.81228 92.544 
L 322.81228 85.296 
L 322.81228 78.048 
" style="fill:none;stroke:#000000;stroke-linecap:square;stroke-width:1.5;"/>
   </g>
   <g id="patch_3">
    <path d="M 54 252 
L 54 34.56 
" style="fill:none;stroke:#000000;stroke-linecap:square;stroke-linejoin:miter;stroke-width:0.8;"/>
   </g>
   <g id="patch_4">
    <path d="M 54 252 
L 388.8 252 
" style="fill:none;stroke:#000000;stroke-linecap:square;stroke-linejoin:miter;stroke-width:0.8;"/>
   </g>
   <g id="text_17">
    <!-- 500 ms -->
    <g transform="translate(322.81228 63.552)scale(0.1 -0.1)">
     <use xlink:href="#DejaVuSans-35"/>
     <use x="63.623047" xlink:href="#DejaVuSans-30"/>
     <use x="127.246094" xlink:href="#DejaVuSans-30"/>
     <use x="190.869141" xlink:href="#DejaVuSans-20"/>
     <use x="222.65625" xlink:href="#DejaVuSans-6d"/>
     <use x="320.068359" xlink:href="#DejaVuSans-73"/>
    </g>
   </g>
   <g id="text_18">
    <!-- 5 mV -->
    <g transform="translate(327.884162 92.544)scale(0.1 -0.1)">
     <use xlink:href="#DejaVuSans-35"/>
     <use x="63.623047" xlink:href="#DejaVuSans-20"/>
     <use x="95.410156" xlink:href="#DejaVuSans-6d"/>
     <use x="192.822266" xlink:href="#DejaVuSans-56"/>
    </g>
   </g>
  </g>
 </g>
 <defs>
  <clipPath id="pe57d6ae37b">
   <rect height="217.44" width="334.8" x="54" y="34.56"/>
  </clipPath>
 </defs>
</svg>
