<?xml version="1.0" encoding="utf-8" standalone="no"?>
<!DOCTYPE svg PUBLIC "-//W3C//DTD SVG 1.1//EN"
  "http://www.w3.org/Graphics/SVG/1.1/DTD/svg11.dtd">
<svg height="288pt" version="1.1" viewBox="0 0 432 288" width="432pt" xmlns="http://www.w3.org/2000/svg" xmlns:xlink="http://www.w3.org/1999/xlink">
 <metadata>
  <rdf:RDF xmlns:cc="http://creativecommons.org/ns#" xmlns:dc="http://purl.org/dc/elements/1.1/" xmlns:rdf="http://www.w3.org/1999/02/22-rdf-syntax-ns#">
   <cc:Work>
    <dc:type rdf:resource="http://purl.org/dc/dcmitype/StillImage"/>
    <dc:date>2021-07-08T13:58:09.572277</dc:date>
    <dc:format>image/svg+xml</dc:format>
    <dc:creator>
     <cc:Agent>
      <dc:title>Matplotlib v3.4.1, https://matplotlib.org/</dc:title>
     </cc:Agent>
    </dc:creator>
   </cc:Work>
  </rdf:RDF>
 </metadata>
 <defs>
  <style type="text/css">*{stroke-linecap:butt;stroke-linejoin:round;}</style>
 </defs>
 <g id="figure_1">
  <g id="patch_1">
   <path d="M 0 288 
L 432 288 
L 432 0 
L 0 0 
z
" style="fill:none;"/>
  </g>
  <g id="axes_1">
   <g id="patch_2">
    <path d="M 54 252 
L 388.8 252 
L 388.8 34.56 
L 54 34.56 
z
" style="fill:#ffffff;"/>
   </g>
   <g id="matplotlib.axis_1">
    <g id="xtick_1">
     <g id="line2d_1">
      <defs>
       <path d="M 0 0 
L 0 3.5 
" id="m5f4f5ec536" style="stroke:#000000;stroke-width:0.8;"/>
      </defs>
      <g>
       <use style="stroke:#000000;stroke-width:0.8;" x="69.218182" xlink:href="#m5f4f5ec536" y="252"/>
      </g>
     </g>
     <g id="text_1">
      <!-- 0 -->
      <g transform="translate(66.036932 266.598437)scale(0.1 -0.1)">
       <defs>
        <path d="M 2034 4250 
Q 1547 4250 1301 3770 
Q 1056 3291 1056 2328 
Q 1056 1369 1301 889 
Q 1547 409 2034 409 
Q 2525 409 2770 889 
Q 3016 1369 3016 2328 
Q 3016 3291 2770 3770 
Q 2525 4250 2034 4250 
z
M 2034 4750 
Q 2819 4750 3233 4129 
Q 3647 3509 3647 2328 
Q 3647 1150 3233 529 
Q 2819 -91 2034 -91 
Q 1250 -91 836 529 
Q 422 1150 422 2328 
Q 422 3509 836 4129 
Q 1250 4750 2034 4750 
z
" id="DejaVuSans-30" transform="scale(0.015625)"/>
       </defs>
       <use xlink:href="#DejaVuSans-30"/>
      </g>
     </g>
    </g>
    <g id="xtick_2">
     <g id="line2d_2">
      <g>
       <use style="stroke:#000000;stroke-width:0.8;" x="119.937001" xlink:href="#m5f4f5ec536" y="252"/>
      </g>
     </g>
     <g id="text_2">
      <!-- 500 -->
      <g transform="translate(110.393251 266.598437)scale(0.1 -0.1)">
       <defs>
        <path d="M 691 4666 
L 3169 4666 
L 3169 4134 
L 1269 4134 
L 1269 2991 
Q 1406 3038 1543 3061 
Q 1681 3084 1819 3084 
Q 2600 3084 3056 2656 
Q 3513 2228 3513 1497 
Q 3513 744 3044 326 
Q 2575 -91 1722 -91 
Q 1428 -91 1123 -41 
Q 819 9 494 109 
L 494 744 
Q 775 591 1075 516 
Q 1375 441 1709 441 
Q 2250 441 2565 725 
Q 2881 1009 2881 1497 
Q 2881 1984 2565 2268 
Q 2250 2553 1709 2553 
Q 1456 2553 1204 2497 
Q 953 2441 691 2322 
L 691 4666 
z
" id="DejaVuSans-35" transform="scale(0.015625)"/>
       </defs>
       <use xlink:href="#DejaVuSans-35"/>
       <use x="63.623047" xlink:href="#DejaVuSans-30"/>
       <use x="127.246094" xlink:href="#DejaVuSans-30"/>
      </g>
     </g>
    </g>
    <g id="xtick_3">
     <g id="line2d_3">
      <g>
       <use style="stroke:#000000;stroke-width:0.8;" x="170.655821" xlink:href="#m5f4f5ec536" y="252"/>
      </g>
     </g>
     <g id="text_3">
      <!-- 1000 -->
      <g transform="translate(157.930821 266.598437)scale(0.1 -0.1)">
       <defs>
        <path d="M 794 531 
L 1825 531 
L 1825 4091 
L 703 3866 
L 703 4441 
L 1819 4666 
L 2450 4666 
L 2450 531 
L 3481 531 
L 3481 0 
L 794 0 
L 794 531 
z
" id="DejaVuSans-31" transform="scale(0.015625)"/>
       </defs>
       <use xlink:href="#DejaVuSans-31"/>
       <use x="63.623047" xlink:href="#DejaVuSans-30"/>
       <use x="127.246094" xlink:href="#DejaVuSans-30"/>
       <use x="190.869141" xlink:href="#DejaVuSans-30"/>
      </g>
     </g>
    </g>
    <g id="xtick_4">
     <g id="line2d_4">
      <g>
       <use style="stroke:#000000;stroke-width:0.8;" x="221.374641" xlink:href="#m5f4f5ec536" y="252"/>
      </g>
     </g>
     <g id="text_4">
      <!-- 1500 -->
      <g transform="translate(208.649641 266.598437)scale(0.1 -0.1)">
       <use xlink:href="#DejaVuSans-31"/>
       <use x="63.623047" xlink:href="#DejaVuSans-35"/>
       <use x="127.246094" xlink:href="#DejaVuSans-30"/>
       <use x="190.869141" xlink:href="#DejaVuSans-30"/>
      </g>
     </g>
    </g>
    <g id="xtick_5">
     <g id="line2d_5">
      <g>
       <use style="stroke:#000000;stroke-width:0.8;" x="272.09346" xlink:href="#m5f4f5ec536" y="252"/>
      </g>
     </g>
     <g id="text_5">
      <!-- 2000 -->
      <g transform="translate(259.36846 266.598437)scale(0.1 -0.1)">
       <defs>
        <path d="M 1228 531 
L 3431 531 
L 3431 0 
L 469 0 
L 469 531 
Q 828 903 1448 1529 
Q 2069 2156 2228 2338 
Q 2531 2678 2651 2914 
Q 2772 3150 2772 3378 
Q 2772 3750 2511 3984 
Q 2250 4219 1831 4219 
Q 1534 4219 1204 4116 
Q 875 4013 500 3803 
L 500 4441 
Q 881 4594 1212 4672 
Q 1544 4750 1819 4750 
Q 2544 4750 2975 4387 
Q 3406 4025 3406 3419 
Q 3406 3131 3298 2873 
Q 3191 2616 2906 2266 
Q 2828 2175 2409 1742 
Q 1991 1309 1228 531 
z
" id="DejaVuSans-32" transform="scale(0.015625)"/>
       </defs>
       <use xlink:href="#DejaVuSans-32"/>
       <use x="63.623047" xlink:href="#DejaVuSans-30"/>
       <use x="127.246094" xlink:href="#DejaVuSans-30"/>
       <use x="190.869141" xlink:href="#DejaVuSans-30"/>
      </g>
     </g>
    </g>
    <g id="xtick_6">
     <g id="line2d_6">
      <g>
       <use style="stroke:#000000;stroke-width:0.8;" x="322.81228" xlink:href="#m5f4f5ec536" y="252"/>
      </g>
     </g>
     <g id="text_6">
      <!-- 2500 -->
      <g transform="translate(310.08728 266.598437)scale(0.1 -0.1)">
       <use xlink:href="#DejaVuSans-32"/>
       <use x="63.623047" xlink:href="#DejaVuSans-35"/>
       <use x="127.246094" xlink:href="#DejaVuSans-30"/>
       <use x="190.869141" xlink:href="#DejaVuSans-30"/>
      </g>
     </g>
    </g>
    <g id="xtick_7">
     <g id="line2d_7">
      <g>
       <use style="stroke:#000000;stroke-width:0.8;" x="373.531099" xlink:href="#m5f4f5ec536" y="252"/>
      </g>
     </g>
     <g id="text_7">
      <!-- 3000 -->
      <g transform="translate(360.806099 266.598437)scale(0.1 -0.1)">
       <defs>
        <path d="M 2597 2516 
Q 3050 2419 3304 2112 
Q 3559 1806 3559 1356 
Q 3559 666 3084 287 
Q 2609 -91 1734 -91 
Q 1441 -91 1130 -33 
Q 819 25 488 141 
L 488 750 
Q 750 597 1062 519 
Q 1375 441 1716 441 
Q 2309 441 2620 675 
Q 2931 909 2931 1356 
Q 2931 1769 2642 2001 
Q 2353 2234 1838 2234 
L 1294 2234 
L 1294 2753 
L 1863 2753 
Q 2328 2753 2575 2939 
Q 2822 3125 2822 3475 
Q 2822 3834 2567 4026 
Q 2313 4219 1838 4219 
Q 1578 4219 1281 4162 
Q 984 4106 628 3988 
L 628 4550 
Q 988 4650 1302 4700 
Q 1616 4750 1894 4750 
Q 2613 4750 3031 4423 
Q 3450 4097 3450 3541 
Q 3450 3153 3228 2886 
Q 3006 2619 2597 2516 
z
" id="DejaVuSans-33" transform="scale(0.015625)"/>
       </defs>
       <use xlink:href="#DejaVuSans-33"/>
       <use x="63.623047" xlink:href="#DejaVuSans-30"/>
       <use x="127.246094" xlink:href="#DejaVuSans-30"/>
       <use x="190.869141" xlink:href="#DejaVuSans-30"/>
      </g>
     </g>
    </g>
    <g id="text_8">
     <!-- Time(ms) -->
     <g transform="translate(197.789844 280.276563)scale(0.1 -0.1)">
      <defs>
       <path d="M -19 4666 
L 3928 4666 
L 3928 4134 
L 2272 4134 
L 2272 0 
L 1638 0 
L 1638 4134 
L -19 4134 
L -19 4666 
z
" id="DejaVuSans-54" transform="scale(0.015625)"/>
       <path d="M 603 3500 
L 1178 3500 
L 1178 0 
L 603 0 
L 603 3500 
z
M 603 4863 
L 1178 4863 
L 1178 4134 
L 603 4134 
L 603 4863 
z
" id="DejaVuSans-69" transform="scale(0.015625)"/>
       <path d="M 3328 2828 
Q 3544 3216 3844 3400 
Q 4144 3584 4550 3584 
Q 5097 3584 5394 3201 
Q 5691 2819 5691 2113 
L 5691 0 
L 5113 0 
L 5113 2094 
Q 5113 2597 4934 2840 
Q 4756 3084 4391 3084 
Q 3944 3084 3684 2787 
Q 3425 2491 3425 1978 
L 3425 0 
L 2847 0 
L 2847 2094 
Q 2847 2600 2669 2842 
Q 2491 3084 2119 3084 
Q 1678 3084 1418 2786 
Q 1159 2488 1159 1978 
L 1159 0 
L 581 0 
L 581 3500 
L 1159 3500 
L 1159 2956 
Q 1356 3278 1631 3431 
Q 1906 3584 2284 3584 
Q 2666 3584 2933 3390 
Q 3200 3197 3328 2828 
z
" id="DejaVuSans-6d" transform="scale(0.015625)"/>
       <path d="M 3597 1894 
L 3597 1613 
L 953 1613 
Q 991 1019 1311 708 
Q 1631 397 2203 397 
Q 2534 397 2845 478 
Q 3156 559 3463 722 
L 3463 178 
Q 3153 47 2828 -22 
Q 2503 -91 2169 -91 
Q 1331 -91 842 396 
Q 353 884 353 1716 
Q 353 2575 817 3079 
Q 1281 3584 2069 3584 
Q 2775 3584 3186 3129 
Q 3597 2675 3597 1894 
z
M 3022 2063 
Q 3016 2534 2758 2815 
Q 2500 3097 2075 3097 
Q 1594 3097 1305 2825 
Q 1016 2553 972 2059 
L 3022 2063 
z
" id="DejaVuSans-65" transform="scale(0.015625)"/>
       <path d="M 1984 4856 
Q 1566 4138 1362 3434 
Q 1159 2731 1159 2009 
Q 1159 1288 1364 580 
Q 1569 -128 1984 -844 
L 1484 -844 
Q 1016 -109 783 600 
Q 550 1309 550 2009 
Q 550 2706 781 3412 
Q 1013 4119 1484 4856 
L 1984 4856 
z
" id="DejaVuSans-28" transform="scale(0.015625)"/>
       <path d="M 2834 3397 
L 2834 2853 
Q 2591 2978 2328 3040 
Q 2066 3103 1784 3103 
Q 1356 3103 1142 2972 
Q 928 2841 928 2578 
Q 928 2378 1081 2264 
Q 1234 2150 1697 2047 
L 1894 2003 
Q 2506 1872 2764 1633 
Q 3022 1394 3022 966 
Q 3022 478 2636 193 
Q 2250 -91 1575 -91 
Q 1294 -91 989 -36 
Q 684 19 347 128 
L 347 722 
Q 666 556 975 473 
Q 1284 391 1588 391 
Q 1994 391 2212 530 
Q 2431 669 2431 922 
Q 2431 1156 2273 1281 
Q 2116 1406 1581 1522 
L 1381 1569 
Q 847 1681 609 1914 
Q 372 2147 372 2553 
Q 372 3047 722 3315 
Q 1072 3584 1716 3584 
Q 2034 3584 2315 3537 
Q 2597 3491 2834 3397 
z
" id="DejaVuSans-73" transform="scale(0.015625)"/>
       <path d="M 513 4856 
L 1013 4856 
Q 1481 4119 1714 3412 
Q 1947 2706 1947 2009 
Q 1947 1309 1714 600 
Q 1481 -109 1013 -844 
L 513 -844 
Q 928 -128 1133 580 
Q 1338 1288 1338 2009 
Q 1338 2731 1133 3434 
Q 928 4138 513 4856 
z
" id="DejaVuSans-29" transform="scale(0.015625)"/>
      </defs>
      <use xlink:href="#DejaVuSans-54"/>
      <use x="57.958984" xlink:href="#DejaVuSans-69"/>
      <use x="85.742188" xlink:href="#DejaVuSans-6d"/>
      <use x="183.154297" xlink:href="#DejaVuSans-65"/>
      <use x="244.677734" xlink:href="#DejaVuSans-28"/>
      <use x="283.691406" xlink:href="#DejaVuSans-6d"/>
      <use x="381.103516" xlink:href="#DejaVuSans-73"/>
      <use x="433.203125" xlink:href="#DejaVuSans-29"/>
     </g>
    </g>
   </g>
   <g id="matplotlib.axis_2">
    <g id="ytick_1">
     <g id="line2d_8">
      <defs>
       <path d="M 0 0 
L -3.5 0 
" id="me1a6c04259" style="stroke:#000000;stroke-width:0.8;"/>
      </defs>
      <g>
       <use style="stroke:#000000;stroke-width:0.8;" x="54" xlink:href="#me1a6c04259" y="252"/>
      </g>
     </g>
     <g id="text_9">
      <!-- −100 -->
      <g transform="translate(19.532812 255.799219)scale(0.1 -0.1)">
       <defs>
        <path d="M 678 2272 
L 4684 2272 
L 4684 1741 
L 678 1741 
L 678 2272 
z
" id="DejaVuSans-2212" transform="scale(0.015625)"/>
       </defs>
       <use xlink:href="#DejaVuSans-2212"/>
       <use x="83.789062" xlink:href="#DejaVuSans-31"/>
       <use x="147.412109" xlink:href="#DejaVuSans-30"/>
       <use x="211.035156" xlink:href="#DejaVuSans-30"/>
      </g>
     </g>
    </g>
    <g id="ytick_2">
     <g id="line2d_9">
      <g>
       <use style="stroke:#000000;stroke-width:0.8;" x="54" xlink:href="#me1a6c04259" y="215.76"/>
      </g>
     </g>
     <g id="text_10">
      <!-- −95 -->
      <g transform="translate(25.895312 219.559219)scale(0.1 -0.1)">
       <defs>
        <path d="M 703 97 
L 703 672 
Q 941 559 1184 500 
Q 1428 441 1663 441 
Q 2288 441 2617 861 
Q 2947 1281 2994 2138 
Q 2813 1869 2534 1725 
Q 2256 1581 1919 1581 
Q 1219 1581 811 2004 
Q 403 2428 403 3163 
Q 403 3881 828 4315 
Q 1253 4750 1959 4750 
Q 2769 4750 3195 4129 
Q 3622 3509 3622 2328 
Q 3622 1225 3098 567 
Q 2575 -91 1691 -91 
Q 1453 -91 1209 -44 
Q 966 3 703 97 
z
M 1959 2075 
Q 2384 2075 2632 2365 
Q 2881 2656 2881 3163 
Q 2881 3666 2632 3958 
Q 2384 4250 1959 4250 
Q 1534 4250 1286 3958 
Q 1038 3666 1038 3163 
Q 1038 2656 1286 2365 
Q 1534 2075 1959 2075 
z
" id="DejaVuSans-39" transform="scale(0.015625)"/>
       </defs>
       <use xlink:href="#DejaVuSans-2212"/>
       <use x="83.789062" xlink:href="#DejaVuSans-39"/>
       <use x="147.412109" xlink:href="#DejaVuSans-35"/>
      </g>
     </g>
    </g>
    <g id="ytick_3">
     <g id="line2d_10">
      <g>
       <use style="stroke:#000000;stroke-width:0.8;" x="54" xlink:href="#me1a6c04259" y="179.52"/>
      </g>
     </g>
     <g id="text_11">
      <!-- −90 -->
      <g transform="translate(25.895312 183.319219)scale(0.1 -0.1)">
       <use xlink:href="#DejaVuSans-2212"/>
       <use x="83.789062" xlink:href="#DejaVuSans-39"/>
       <use x="147.412109" xlink:href="#DejaVuSans-30"/>
      </g>
     </g>
    </g>
    <g id="ytick_4">
     <g id="line2d_11">
      <g>
       <use style="stroke:#000000;stroke-width:0.8;" x="54" xlink:href="#me1a6c04259" y="143.28"/>
      </g>
     </g>
     <g id="text_12">
      <!-- −85 -->
      <g transform="translate(25.895312 147.079219)scale(0.1 -0.1)">
       <defs>
        <path d="M 2034 2216 
Q 1584 2216 1326 1975 
Q 1069 1734 1069 1313 
Q 1069 891 1326 650 
Q 1584 409 2034 409 
Q 2484 409 2743 651 
Q 3003 894 3003 1313 
Q 3003 1734 2745 1975 
Q 2488 2216 2034 2216 
z
M 1403 2484 
Q 997 2584 770 2862 
Q 544 3141 544 3541 
Q 544 4100 942 4425 
Q 1341 4750 2034 4750 
Q 2731 4750 3128 4425 
Q 3525 4100 3525 3541 
Q 3525 3141 3298 2862 
Q 3072 2584 2669 2484 
Q 3125 2378 3379 2068 
Q 3634 1759 3634 1313 
Q 3634 634 3220 271 
Q 2806 -91 2034 -91 
Q 1263 -91 848 271 
Q 434 634 434 1313 
Q 434 1759 690 2068 
Q 947 2378 1403 2484 
z
M 1172 3481 
Q 1172 3119 1398 2916 
Q 1625 2713 2034 2713 
Q 2441 2713 2670 2916 
Q 2900 3119 2900 3481 
Q 2900 3844 2670 4047 
Q 2441 4250 2034 4250 
Q 1625 4250 1398 4047 
Q 1172 3844 1172 3481 
z
" id="DejaVuSans-38" transform="scale(0.015625)"/>
       </defs>
       <use xlink:href="#DejaVuSans-2212"/>
       <use x="83.789062" xlink:href="#DejaVuSans-38"/>
       <use x="147.412109" xlink:href="#DejaVuSans-35"/>
      </g>
     </g>
    </g>
    <g id="ytick_5">
     <g id="line2d_12">
      <g>
       <use style="stroke:#000000;stroke-width:0.8;" x="54" xlink:href="#me1a6c04259" y="107.04"/>
      </g>
     </g>
     <g id="text_13">
      <!-- −80 -->
      <g transform="translate(25.895312 110.839219)scale(0.1 -0.1)">
       <use xlink:href="#DejaVuSans-2212"/>
       <use x="83.789062" xlink:href="#DejaVuSans-38"/>
       <use x="147.412109" xlink:href="#DejaVuSans-30"/>
      </g>
     </g>
    </g>
    <g id="ytick_6">
     <g id="line2d_13">
      <g>
       <use style="stroke:#000000;stroke-width:0.8;" x="54" xlink:href="#me1a6c04259" y="70.8"/>
      </g>
     </g>
     <g id="text_14">
      <!-- −75 -->
      <g transform="translate(25.895312 74.599219)scale(0.1 -0.1)">
       <defs>
        <path d="M 525 4666 
L 3525 4666 
L 3525 4397 
L 1831 0 
L 1172 0 
L 2766 4134 
L 525 4134 
L 525 4666 
z
" id="DejaVuSans-37" transform="scale(0.015625)"/>
       </defs>
       <use xlink:href="#DejaVuSans-2212"/>
       <use x="83.789062" xlink:href="#DejaVuSans-37"/>
       <use x="147.412109" xlink:href="#DejaVuSans-35"/>
      </g>
     </g>
    </g>
    <g id="ytick_7">
     <g id="line2d_14">
      <g>
       <use style="stroke:#000000;stroke-width:0.8;" x="54" xlink:href="#me1a6c04259" y="34.56"/>
      </g>
     </g>
     <g id="text_15">
      <!-- −70 -->
      <g transform="translate(25.895312 38.359219)scale(0.1 -0.1)">
       <use xlink:href="#DejaVuSans-2212"/>
       <use x="83.789062" xlink:href="#DejaVuSans-37"/>
       <use x="147.412109" xlink:href="#DejaVuSans-30"/>
      </g>
     </g>
    </g>
    <g id="text_16">
     <!-- Membrane potential (mV) -->
     <g transform="translate(13.453125 207.691719)rotate(-90)scale(0.1 -0.1)">
      <defs>
       <path d="M 628 4666 
L 1569 4666 
L 2759 1491 
L 3956 4666 
L 4897 4666 
L 4897 0 
L 4281 0 
L 4281 4097 
L 3078 897 
L 2444 897 
L 1241 4097 
L 1241 0 
L 628 0 
L 628 4666 
z
" id="DejaVuSans-4d" transform="scale(0.015625)"/>
       <path d="M 3116 1747 
Q 3116 2381 2855 2742 
Q 2594 3103 2138 3103 
Q 1681 3103 1420 2742 
Q 1159 2381 1159 1747 
Q 1159 1113 1420 752 
Q 1681 391 2138 391 
Q 2594 391 2855 752 
Q 3116 1113 3116 1747 
z
M 1159 2969 
Q 1341 3281 1617 3432 
Q 1894 3584 2278 3584 
Q 2916 3584 3314 3078 
Q 3713 2572 3713 1747 
Q 3713 922 3314 415 
Q 2916 -91 2278 -91 
Q 1894 -91 1617 61 
Q 1341 213 1159 525 
L 1159 0 
L 581 0 
L 581 4863 
L 1159 4863 
L 1159 2969 
z
" id="DejaVuSans-62" transform="scale(0.015625)"/>
       <path d="M 2631 2963 
Q 2534 3019 2420 3045 
Q 2306 3072 2169 3072 
Q 1681 3072 1420 2755 
Q 1159 2438 1159 1844 
L 1159 0 
L 581 0 
L 581 3500 
L 1159 3500 
L 1159 2956 
Q 1341 3275 1631 3429 
Q 1922 3584 2338 3584 
Q 2397 3584 2469 3576 
Q 2541 3569 2628 3553 
L 2631 2963 
z
" id="DejaVuSans-72" transform="scale(0.015625)"/>
       <path d="M 2194 1759 
Q 1497 1759 1228 1600 
Q 959 1441 959 1056 
Q 959 750 1161 570 
Q 1363 391 1709 391 
Q 2188 391 2477 730 
Q 2766 1069 2766 1631 
L 2766 1759 
L 2194 1759 
z
M 3341 1997 
L 3341 0 
L 2766 0 
L 2766 531 
Q 2569 213 2275 61 
Q 1981 -91 1556 -91 
Q 1019 -91 701 211 
Q 384 513 384 1019 
Q 384 1609 779 1909 
Q 1175 2209 1959 2209 
L 2766 2209 
L 2766 2266 
Q 2766 2663 2505 2880 
Q 2244 3097 1772 3097 
Q 1472 3097 1187 3025 
Q 903 2953 641 2809 
L 641 3341 
Q 956 3463 1253 3523 
Q 1550 3584 1831 3584 
Q 2591 3584 2966 3190 
Q 3341 2797 3341 1997 
z
" id="DejaVuSans-61" transform="scale(0.015625)"/>
       <path d="M 3513 2113 
L 3513 0 
L 2938 0 
L 2938 2094 
Q 2938 2591 2744 2837 
Q 2550 3084 2163 3084 
Q 1697 3084 1428 2787 
Q 1159 2491 1159 1978 
L 1159 0 
L 581 0 
L 581 3500 
L 1159 3500 
L 1159 2956 
Q 1366 3272 1645 3428 
Q 1925 3584 2291 3584 
Q 2894 3584 3203 3211 
Q 3513 2838 3513 2113 
z
" id="DejaVuSans-6e" transform="scale(0.015625)"/>
       <path id="DejaVuSans-20" transform="scale(0.015625)"/>
       <path d="M 1159 525 
L 1159 -1331 
L 581 -1331 
L 581 3500 
L 1159 3500 
L 1159 2969 
Q 1341 3281 1617 3432 
Q 1894 3584 2278 3584 
Q 2916 3584 3314 3078 
Q 3713 2572 3713 1747 
Q 3713 922 3314 415 
Q 2916 -91 2278 -91 
Q 1894 -91 1617 61 
Q 1341 213 1159 525 
z
M 3116 1747 
Q 3116 2381 2855 2742 
Q 2594 3103 2138 3103 
Q 1681 3103 1420 2742 
Q 1159 2381 1159 1747 
Q 1159 1113 1420 752 
Q 1681 391 2138 391 
Q 2594 391 2855 752 
Q 3116 1113 3116 1747 
z
" id="DejaVuSans-70" transform="scale(0.015625)"/>
       <path d="M 1959 3097 
Q 1497 3097 1228 2736 
Q 959 2375 959 1747 
Q 959 1119 1226 758 
Q 1494 397 1959 397 
Q 2419 397 2687 759 
Q 2956 1122 2956 1747 
Q 2956 2369 2687 2733 
Q 2419 3097 1959 3097 
z
M 1959 3584 
Q 2709 3584 3137 3096 
Q 3566 2609 3566 1747 
Q 3566 888 3137 398 
Q 2709 -91 1959 -91 
Q 1206 -91 779 398 
Q 353 888 353 1747 
Q 353 2609 779 3096 
Q 1206 3584 1959 3584 
z
" id="DejaVuSans-6f" transform="scale(0.015625)"/>
       <path d="M 1172 4494 
L 1172 3500 
L 2356 3500 
L 2356 3053 
L 1172 3053 
L 1172 1153 
Q 1172 725 1289 603 
Q 1406 481 1766 481 
L 2356 481 
L 2356 0 
L 1766 0 
Q 1100 0 847 248 
Q 594 497 594 1153 
L 594 3053 
L 172 3053 
L 172 3500 
L 594 3500 
L 594 4494 
L 1172 4494 
z
" id="DejaVuSans-74" transform="scale(0.015625)"/>
       <path d="M 603 4863 
L 1178 4863 
L 1178 0 
L 603 0 
L 603 4863 
z
" id="DejaVuSans-6c" transform="scale(0.015625)"/>
       <path d="M 1831 0 
L 50 4666 
L 709 4666 
L 2188 738 
L 3669 4666 
L 4325 4666 
L 2547 0 
L 1831 0 
z
" id="DejaVuSans-56" transform="scale(0.015625)"/>
      </defs>
      <use xlink:href="#DejaVuSans-4d"/>
      <use x="86.279297" xlink:href="#DejaVuSans-65"/>
      <use x="147.802734" xlink:href="#DejaVuSans-6d"/>
      <use x="245.214844" xlink:href="#DejaVuSans-62"/>
      <use x="308.691406" xlink:href="#DejaVuSans-72"/>
      <use x="349.804688" xlink:href="#DejaVuSans-61"/>
      <use x="411.083984" xlink:href="#DejaVuSans-6e"/>
      <use x="474.462891" xlink:href="#DejaVuSans-65"/>
      <use x="535.986328" xlink:href="#DejaVuSans-20"/>
      <use x="567.773438" xlink:href="#DejaVuSans-70"/>
      <use x="631.25" xlink:href="#DejaVuSans-6f"/>
      <use x="692.431641" xlink:href="#DejaVuSans-74"/>
      <use x="731.640625" xlink:href="#DejaVuSans-65"/>
      <use x="793.164062" xlink:href="#DejaVuSans-6e"/>
      <use x="856.542969" xlink:href="#DejaVuSans-74"/>
      <use x="895.751953" xlink:href="#DejaVuSans-69"/>
      <use x="923.535156" xlink:href="#DejaVuSans-61"/>
      <use x="984.814453" xlink:href="#DejaVuSans-6c"/>
      <use x="1012.597656" xlink:href="#DejaVuSans-20"/>
      <use x="1044.384766" xlink:href="#DejaVuSans-28"/>
      <use x="1083.398438" xlink:href="#DejaVuSans-6d"/>
      <use x="1180.810547" xlink:href="#DejaVuSans-56"/>
      <use x="1249.21875" xlink:href="#DejaVuSans-29"/>
     </g>
    </g>
   </g>
   <g id="line2d_15">
    <path clip-path="url(#p6049269e21)" d="M 69.218182 150.528 
L 69.370364 188.040024 
L 69.421091 188.335742 
L 69.471818 188.19803 
L 69.573273 188.025528 
L 69.674727 188.335018 
L 70.587818 193.467326 
L 70.638545 193.427462 
L 70.841455 193.117248 
L 70.942909 193.237565 
L 71.145818 193.992806 
L 71.399455 194.834299 
L 71.450182 194.794435 
L 71.602364 193.028822 
L 71.805273 191.579947 
L 71.906727 191.578498 
L 72.058909 192.09383 
L 72.515455 195.008976 
L 72.819818 196.555699 
L 73.225636 196.067909 
L 73.479273 196.517285 
L 73.53 196.410739 
L 73.682182 195.66637 
L 73.885091 192.2946 
L 74.138727 189.030826 
L 74.290909 187.65733 
L 74.696727 183.579605 
L 74.747455 183.716592 
L 75.406909 187.447138 
L 76.472182 196.164307 
L 76.979455 198.278549 
L 77.334545 199.158456 
L 77.385273 199.045387 
L 78.095455 192.073536 
L 78.247636 191.67852 
L 78.552 189.637483 
L 78.653455 189.652704 
L 78.805636 190.162238 
L 79.414364 192.720058 
L 79.566545 192.865742 
L 79.870909 193.565174 
L 79.921636 193.344835 
L 80.226 187.564555 
L 80.733273 180.822466 
L 81.088364 179.822966 
L 81.139091 179.917915 
L 81.291273 180.756509 
L 81.646364 184.554461 
L 82.052182 188.731483 
L 82.356545 189.098232 
L 82.660909 190.55508 
L 82.762364 190.175285 
L 82.965273 189.320021 
L 83.066727 189.396125 
L 83.269636 190.205002 
L 84.233455 195.359779 
L 84.284182 195.247435 
L 84.385636 194.518286 
L 84.791455 187.936378 
L 84.943636 187.567454 
L 85.045091 187.736333 
L 85.298727 188.990237 
L 85.349455 189.294653 
L 85.400182 189.229421 
L 85.653818 188.174837 
L 85.755273 188.360386 
L 86.008909 189.694742 
L 86.617636 193.599965 
L 86.719091 192.098904 
L 87.175636 182.858429 
L 87.48 179.890373 
L 87.733636 179.606251 
L 87.885818 180.162898 
L 87.987273 180.631843 
L 88.038 180.541243 
L 88.139455 180.349171 
L 88.190182 180.385411 
L 88.342364 180.971774 
L 88.393091 180.832613 
L 88.545273 180.340474 
L 88.596 180.400632 
L 88.646727 180.374539 
L 89.255455 177.70945 
L 89.762727 170.312866 
L 89.864182 170.477395 
L 90.117818 171.36455 
L 90.371455 174.091973 
L 90.574364 175.455322 
L 90.726545 176.221435 
L 91.030909 179.75701 
L 91.842545 189.3954 
L 91.893273 189.454109 
L 91.944 189.401923 
L 92.146909 189.19463 
L 92.299091 189.425842 
L 92.603455 190.603642 
L 93.313636 193.632581 
L 93.770182 191.677795 
L 93.922364 191.815507 
L 94.226727 192.697589 
L 94.886182 194.958965 
L 94.936909 194.943019 
L 95.190545 193.974686 
L 95.342727 193.52676 
L 95.596364 188.940226 
L 95.748545 188.517667 
L 95.85 188.698867 
L 95.900727 188.872094 
L 95.951455 188.809037 
L 96.103636 186.724512 
L 96.357273 183.984043 
L 96.458727 183.88837 
L 96.610909 184.41385 
L 96.966 187.091261 
L 97.726909 192.801235 
L 98.234182 195.061886 
L 98.437091 195.677966 
L 98.538545 194.473349 
L 98.792182 192.028598 
L 98.893636 191.919154 
L 98.944364 191.959742 
L 99.147273 192.485947 
L 100.415455 196.762992 
L 100.973455 197.661744 
L 101.531455 198.171278 
L 101.785091 196.018622 
L 102.190909 190.321694 
L 102.292364 189.687494 
L 102.546 188.011032 
L 102.647455 188.063942 
L 102.850364 188.750328 
L 102.901091 188.632186 
L 103.104 188.03785 
L 103.205455 188.158891 
L 103.408364 189.011256 
L 104.778 196.365802 
L 105.285273 197.574768 
L 105.843273 198.330734 
L 106.502727 198.840269 
L 107.415818 199.270075 
L 107.466545 199.238184 
L 107.669455 197.948765 
L 107.973818 196.565846 
L 108.176727 196.430309 
L 108.328909 196.514386 
L 108.481091 195.972235 
L 108.785455 195.061886 
L 108.937636 195.087254 
L 109.191273 195.582293 
L 109.242 195.71928 
L 109.292727 195.676517 
L 110.053636 188.307475 
L 110.155091 187.990738 
L 110.205818 188.003059 
L 110.358 188.516218 
L 110.763818 191.402371 
L 111.423273 195.760594 
L 111.930545 197.732774 
L 112.133455 198.235061 
L 112.184182 198.18505 
L 112.539273 196.407115 
L 112.995818 194.14139 
L 113.148 194.164584 
L 113.350909 194.426237 
L 113.503091 192.679469 
L 113.807455 189.824482 
L 113.908909 189.64908 
L 113.959636 189.672274 
L 114.111818 190.068014 
L 114.416182 191.550955 
L 114.466909 191.39005 
L 114.720545 190.448534 
L 114.771273 190.405771 
L 114.923455 188.523466 
L 115.38 183.177341 
L 115.582909 182.904816 
L 115.887273 181.09644 
L 115.938 181.109486 
L 116.090182 181.707446 
L 116.394545 184.425446 
L 117.307636 193.057814 
L 117.409091 193.606488 
L 117.459818 193.562275 
L 117.865636 192.027874 
L 118.220727 187.562381 
L 118.525091 186.65783 
L 118.626545 186.729586 
L 118.829455 187.450037 
L 119.286 190.491298 
L 119.996182 194.835749 
L 120.097636 195.115522 
L 120.706364 190.186157 
L 121.112182 184.179014 
L 121.213636 184.049275 
L 121.315091 184.311653 
L 121.568727 186.004786 
L 122.380364 192.67657 
L 122.583273 190.206451 
L 123.039818 184.499376 
L 123.242727 183.689774 
L 123.344182 183.912288 
L 123.597818 185.549611 
L 124.460182 192.697589 
L 124.510909 192.476525 
L 125.068909 190.014379 
L 125.170364 190.039022 
L 125.373273 190.546382 
L 125.779091 192.320693 
L 125.880545 192.148915 
L 126.134182 191.664749 
L 126.286364 191.67997 
L 126.438545 191.332066 
L 126.641455 188.799614 
L 126.844364 187.529765 
L 126.945818 187.533389 
L 126.996545 187.641384 
L 127.047273 187.605869 
L 127.503818 184.856702 
L 127.656 185.270563 
L 127.960364 187.235496 
L 128.924182 194.039194 
L 129.076364 194.657448 
L 129.177818 193.325266 
L 129.532909 187.452211 
L 129.735818 186.836131 
L 129.837273 187.030378 
L 129.989455 187.445688 
L 130.040182 187.38408 
L 130.243091 187.162291 
L 130.395273 187.525416 
L 130.496727 187.964645 
L 130.547455 187.841429 
L 130.801091 186.492576 
L 130.902545 186.604195 
L 131.105455 187.591373 
L 132.12 194.25011 
L 132.475091 191.158114 
L 132.576545 191.240016 
L 132.678 191.419042 
L 132.728727 191.379902 
L 133.033091 190.951546 
L 133.185273 191.061715 
L 133.540364 190.294877 
L 133.591091 190.329667 
L 133.743273 190.654378 
L 134.098364 192.182256 
L 134.301273 193.190453 
L 134.352 192.969389 
L 134.656364 191.360333 
L 134.757818 191.402371 
L 134.960727 191.984386 
L 135.569455 194.770517 
L 135.620182 194.713258 
L 135.975273 189.667925 
L 136.279636 186.255566 
L 136.381091 186.18816 
L 136.533273 186.710741 
L 136.888364 189.23087 
L 137.649273 194.464651 
L 138.105818 196.235338 
L 138.207273 195.997603 
L 138.613091 194.7408 
L 138.765273 194.70456 
L 139.069636 194.961139 
L 139.120364 194.832125 
L 139.526182 193.675344 
L 139.627636 193.570973 
L 140.084182 192.00323 
L 140.287091 192.114125 
L 140.439273 191.24364 
L 140.946545 187.372483 
L 141.098727 187.049947 
L 141.200182 187.126051 
L 141.352364 186.556358 
L 141.758182 184.449365 
L 141.808909 184.53779 
L 142.011818 185.558309 
L 142.316182 187.325371 
L 142.468364 185.945352 
L 142.823455 183.467261 
L 142.975636 183.099062 
L 143.077091 183.271565 
L 143.229273 183.714418 
L 143.28 183.615845 
L 143.432182 183.466536 
L 143.584364 183.889819 
L 143.838 185.058197 
L 143.888727 184.969771 
L 144.142364 184.408051 
L 144.243818 184.512422 
L 144.446727 185.332896 
L 144.598909 185.722114 
L 144.801818 185.734435 
L 144.954 186.154819 
L 145.258364 187.887816 
L 145.410545 188.748154 
L 145.461273 188.558981 
L 145.917818 185.729362 
L 146.019273 185.801117 
L 146.222182 186.540413 
L 146.628 189.017779 
L 146.729455 188.838754 
L 146.932364 188.532163 
L 147.033818 188.573477 
L 147.388909 186.69552 
L 147.439636 186.746981 
L 147.591818 187.255066 
L 147.997636 188.878618 
L 148.251273 189.193906 
L 148.657091 187.627613 
L 148.707818 187.697194 
L 148.758545 187.618915 
L 149.062909 186.159893 
L 149.164364 186.267163 
L 149.367273 187.131125 
L 149.874545 189.507019 
L 150.026727 189.507744 
L 150.381818 186.854976 
L 150.432545 186.873821 
L 150.584727 187.324646 
L 150.838364 188.287181 
L 150.889091 188.257464 
L 151.193455 187.955947 
L 151.447091 187.340592 
L 151.548545 187.342042 
L 151.65 186.143222 
L 152.106545 179.782378 
L 152.157273 179.722944 
L 152.208 179.785277 
L 152.360182 180.538344 
L 152.715273 183.999264 
L 153.476182 191.330616 
L 153.679091 192.674395 
L 153.729818 192.648302 
L 154.034182 191.123323 
L 154.135636 191.097955 
L 154.287818 191.368306 
L 154.642909 192.707011 
L 154.947273 193.74565 
L 155.099455 193.303522 
L 155.454545 188.444462 
L 155.556 188.356762 
L 155.708182 188.753227 
L 156.063273 190.731206 
L 156.164727 191.311046 
L 156.215455 191.288578 
L 156.418364 189.305525 
L 156.672 187.829832 
L 156.773455 187.81896 
L 156.925636 188.222674 
L 157.128545 188.86847 
L 157.179273 188.81701 
L 157.382182 188.656104 
L 157.534364 188.918482 
L 157.838727 190.2108 
L 158.650364 194.197925 
L 159.005455 191.985835 
L 159.106909 191.542982 
L 159.918545 184.885694 
L 160.02 184.999488 
L 160.222909 185.968546 
L 161.744727 195.551126 
L 162.201273 196.754294 
L 162.252 196.644125 
L 162.708545 189.285955 
L 162.860727 188.653205 
L 163.266545 180.889147 
L 163.520182 180.058526 
L 163.621636 180.309307 
L 164.230364 183.244747 
L 164.281091 183.179515 
L 164.433273 182.94323 
L 164.534727 183.195461 
L 164.788364 184.924109 
L 165.498545 191.058091 
L 165.549273 190.9356 
L 166.005818 188.050896 
L 166.158 188.18136 
L 166.614545 184.2312 
L 166.766727 183.72384 
L 166.868182 183.944179 
L 167.121818 185.587301 
L 168.187091 193.786963 
L 168.643636 195.559099 
L 168.745091 195.24961 
L 168.998727 193.699262 
L 169.252364 187.062994 
L 169.506 183.126605 
L 169.658182 182.732314 
L 169.759636 183.003389 
L 170.013273 184.737835 
L 170.266909 186.291806 
L 170.317636 186.291806 
L 170.622 183.378835 
L 171.433636 174.37392 
L 171.585818 173.99485 
L 171.687273 174.117341 
L 171.839455 174.8994 
L 171.940909 175.540123 
L 171.991636 175.268323 
L 172.194545 172.784434 
L 172.397455 171.40224 
L 172.701818 172.190822 
L 172.904727 173.816549 
L 173.056909 174.785606 
L 173.259818 173.313538 
L 173.462727 172.231411 
L 173.564182 172.408987 
L 173.665636 171.653021 
L 173.919273 166.51129 
L 174.223636 160.247568 
L 174.274364 160.159867 
L 174.325091 160.293955 
L 174.477273 161.723261 
L 174.883091 166.463453 
L 174.933818 166.52941 
L 175.086 166.206874 
L 175.288909 166.817155 
L 175.339636 166.748299 
L 175.491818 166.167734 
L 175.542545 166.180781 
L 175.644 166.596816 
L 175.897636 169.347432 
L 176.049818 170.640475 
L 176.100545 170.576693 
L 176.151273 170.47812 
L 176.506364 166.355458 
L 176.557091 166.49317 
L 177.115091 170.239661 
L 177.571636 174.86461 
L 177.774545 175.411834 
L 177.876 175.403861 
L 178.180364 168.397944 
L 178.434 165.613987 
L 178.484727 165.631382 
L 178.586182 165.972763 
L 178.890545 163.960718 
L 178.992 164.233968 
L 179.144182 164.46373 
L 179.194909 164.407195 
L 179.296364 164.251363 
L 179.347091 164.310797 
L 179.448545 164.53476 
L 179.651455 162.327019 
L 179.752909 161.089786 
L 180.158727 154.706472 
L 180.209455 154.591954 
L 180.260182 154.654286 
L 180.615273 156.510499 
L 180.970364 160.35049 
L 181.021091 160.243219 
L 181.122545 160.034477 
L 181.173273 160.104782 
L 181.325455 160.380931 
L 181.426909 160.603445 
L 181.579091 161.787768 
L 181.934182 167.331763 
L 182.187818 170.002651 
L 182.34 170.081654 
L 182.441455 170.241835 
L 182.593636 171.141312 
L 182.796545 173.198294 
L 182.847273 173.172926 
L 182.999455 171.834946 
L 183.253091 169.390195 
L 183.303818 169.385846 
L 183.405273 169.772165 
L 183.608182 171.56532 
L 183.709636 171.321787 
L 183.760364 171.251482 
L 183.811091 171.356578 
L 183.861818 171.464573 
L 183.963273 170.343307 
L 184.216909 167.589792 
L 184.419818 166.823678 
L 184.521273 167.154912 
L 184.927091 170.69556 
L 185.383636 174.600782 
L 185.738727 171.289896 
L 185.789455 171.315989 
L 185.941636 172.078478 
L 186.601091 176.881728 
L 187.311273 178.519776 
L 187.514182 178.428451 
L 187.564909 178.481362 
L 187.615636 178.326254 
L 187.717091 175.923542 
L 187.970727 170.107022 
L 188.528727 166.306171 
L 188.680909 166.500418 
L 188.731636 166.32864 
L 189.289636 159.2256 
L 189.441818 160.121453 
L 189.746182 162.316872 
L 190.202727 167.122296 
L 190.253455 167.254934 
L 190.304182 167.129544 
L 190.507091 165.635006 
L 190.557818 165.672696 
L 190.608545 165.852446 
L 190.659273 165.691541 
L 190.811455 165.00588 
L 190.912909 165.434962 
L 190.963636 165.251587 
L 191.065091 164.33544 
L 191.420182 159.468408 
L 191.521636 159.755429 
L 191.673818 160.760726 
L 191.724545 160.739707 
L 191.978182 160.245394 
L 192.079636 160.589674 
L 192.282545 162.4872 
L 192.739091 168.82775 
L 192.789818 168.653798 
L 193.043455 167.958715 
L 193.144909 168.152237 
L 193.195636 168.292123 
L 193.246364 168.147163 
L 193.347818 167.425262 
L 193.601455 164.2086 
L 193.652182 164.15424 
L 193.702909 164.260061 
L 193.855091 165.326242 
L 194.159455 168.12397 
L 194.210182 168.052214 
L 194.311636 167.797085 
L 194.362364 167.815205 
L 194.514545 168.567547 
L 194.666727 168.9198 
L 194.717455 168.934296 
L 194.768182 168.787886 
L 195.478364 161.604394 
L 195.529091 161.662378 
L 195.579818 161.852275 
L 195.630545 161.632661 
L 195.782727 160.678099 
L 195.884182 161.114429 
L 196.036364 161.784144 
L 196.188545 161.731958 
L 196.29 161.09196 
L 196.492909 155.769029 
L 196.797273 147.46717 
L 196.949455 146.765563 
L 197.101636 147.690408 
L 197.253818 146.727874 
L 197.355273 146.989526 
L 197.406 146.939515 
L 197.507455 146.698882 
L 197.659636 145.420334 
L 197.710364 145.493539 
L 197.811818 145.964659 
L 197.862545 145.940741 
L 197.964 145.682712 
L 198.014727 145.733448 
L 198.116182 146.390117 
L 198.369818 150.625123 
L 198.978545 160.063469 
L 199.282909 164.428214 
L 199.333636 163.955645 
L 199.587273 161.411597 
L 199.688727 160.382381 
L 199.891636 158.234074 
L 200.043818 157.93908 
L 200.094545 157.968797 
L 200.196 158.257992 
L 200.246727 158.166667 
L 200.348182 158.01011 
L 200.449636 158.394254 
L 200.855455 160.83973 
L 200.956909 160.670126 
L 201.007636 160.732459 
L 201.514909 162.208152 
L 201.920727 164.563027 
L 202.275818 169.315541 
L 202.630909 173.185248 
L 202.681636 173.307739 
L 202.732364 173.264976 
L 202.935273 171.226838 
L 203.188909 168.191376 
L 204.000545 154.798522 
L 204.152727 153.128582 
L 205.015091 138.490522 
L 205.065818 138.37093 
L 205.116545 138.444859 
L 205.319455 139.677744 
L 205.573091 143.355379 
L 206.029636 154.752134 
L 206.435455 163.403347 
L 206.739818 166.496069 
L 206.993455 167.370178 
L 207.247091 169.558349 
L 208.160182 179.573635 
L 208.210909 179.543194 
L 208.464545 178.404533 
L 208.819636 175.271947 
L 208.870364 175.308912 
L 209.022545 175.936589 
L 209.377636 177.551443 
L 209.529818 177.929789 
L 209.631273 178.352347 
L 209.682 178.32263 
L 209.834182 177.30936 
L 210.24 172.587288 
L 210.341455 172.711954 
L 210.544364 174.013694 
L 210.747273 175.550995 
L 210.798 175.46112 
L 211.000909 173.2686 
L 211.305273 169.340909 
L 211.660364 168.332712 
L 211.812545 168.869064 
L 211.914 169.198123 
L 211.964727 169.092302 
L 212.116909 168.860366 
L 212.269091 169.036493 
L 212.421273 167.99713 
L 212.674909 165.757498 
L 212.776364 166.131494 
L 213.03 168.844421 
L 213.435818 173.35775 
L 213.588 173.799154 
L 213.638727 173.785382 
L 213.689455 173.773061 
L 213.841636 172.934467 
L 214.044545 169.124194 
L 214.348909 165.118949 
L 214.653273 163.661376 
L 214.704 163.675872 
L 214.754727 163.691093 
L 214.906909 163.329418 
L 214.957636 163.397549 
L 215.160545 164.26151 
L 216.175091 150.87228 
L 216.682364 142.327613 
L 216.733091 142.172506 
L 216.783818 142.189901 
L 217.189636 143.884483 
L 217.443273 148.422456 
L 217.849091 155.40083 
L 218.457818 163.966517 
L 218.61 164.713786 
L 218.965091 166.856294 
L 219.523091 161.505096 
L 219.878182 158.163768 
L 219.979636 158.069544 
L 220.081091 158.463835 
L 220.334727 160.562131 
L 220.436182 160.25989 
L 220.588364 160.40195 
L 220.689818 159.649608 
L 221.602909 152.070374 
L 221.653636 151.93991 
L 221.704364 151.974701 
L 221.856545 152.979274 
L 222.262364 156.487306 
L 222.516 158.255818 
L 222.566727 158.063021 
L 222.718909 157.725989 
L 222.820364 158.08259 
L 223.023273 160.099709 
L 223.530545 168.66612 
L 224.240727 179.614224 
L 224.291455 179.913566 
L 224.342182 179.713522 
L 224.849455 174.256502 
L 224.950909 174.351451 
L 225.153818 175.389365 
L 225.610364 179.605526 
L 226.371273 186.156994 
L 226.929273 189.127224 
L 227.233636 190.070189 
L 227.385818 189.578774 
L 227.690182 188.77787 
L 227.842364 188.811211 
L 228.096 189.291754 
L 228.603273 190.821082 
L 228.654 190.68047 
L 228.856909 187.774022 
L 229.110545 184.493578 
L 229.262727 184.205832 
L 229.414909 184.586352 
L 229.77 186.60347 
L 230.429455 190.596394 
L 230.480182 190.542758 
L 230.886 185.767051 
L 231.291818 177.794976 
L 231.494727 176.349 
L 231.646909 175.628549 
L 231.748364 175.843814 
L 232.255636 178.010966 
L 232.813636 182.371363 
L 232.965818 182.85263 
L 233.270182 184.948027 
L 234.183273 191.744477 
L 234.386182 192.733104 
L 234.436909 192.63743 
L 234.842727 190.726133 
L 234.944182 190.762373 
L 235.147091 191.214648 
L 236.263091 195.006077 
L 236.313818 194.935046 
L 236.618182 189.561379 
L 236.871818 187.096334 
L 237.024 186.796267 
L 237.125455 186.938328 
L 237.328364 187.74793 
L 237.480545 188.311099 
L 237.784909 187.194907 
L 237.937091 187.576877 
L 238.292182 189.613565 
L 238.444364 190.610165 
L 238.748727 187.684872 
L 238.850182 187.880568 
L 239.002364 188.59957 
L 239.053091 188.57855 
L 239.205273 185.167642 
L 239.408182 182.94468 
L 239.458909 182.913514 
L 239.560364 183.21648 
L 239.814 185.121979 
L 240.777818 193.082458 
L 241.285091 195.348907 
L 241.792364 196.647749 
L 242.198182 197.218891 
L 243.263455 191.559653 
L 243.364909 191.055192 
L 244.125818 184.632014 
L 244.328727 183.830386 
L 244.430182 183.965198 
L 244.633091 185.055298 
L 245.038909 187.798666 
L 245.394 184.072469 
L 245.495455 184.192786 
L 245.698364 185.293757 
L 246.154909 188.874269 
L 246.205636 188.648131 
L 246.408545 187.924056 
L 246.51 188.119027 
L 246.763636 189.405547 
L 247.727455 194.832125 
L 247.879636 195.392395 
L 247.930364 195.301795 
L 248.285455 192.98171 
L 248.437636 192.949819 
L 248.640545 193.393397 
L 249.097091 194.871264 
L 249.147818 194.639328 
L 249.452182 193.306421 
L 249.655091 192.913579 
L 250.010182 191.421941 
L 250.111636 191.430638 
L 250.263818 191.73143 
L 250.618909 193.12812 
L 250.720364 193.36223 
L 250.872545 191.306698 
L 251.176909 187.818235 
L 251.430545 186.282384 
L 251.532 186.286008 
L 251.684182 186.80279 
L 251.988545 188.461858 
L 252.039273 188.202379 
L 252.242182 187.571078 
L 252.343636 187.625438 
L 252.597273 185.939554 
L 252.698727 186.039576 
L 252.901636 187.097784 
L 253.611818 191.953944 
L 253.662545 191.84305 
L 254.169818 189.653429 
L 254.220545 189.691843 
L 254.423455 190.078886 
L 254.474182 190.022352 
L 254.727818 189.633859 
L 254.88 189.808536 
L 255.133636 190.71816 
L 255.235091 191.07911 
L 255.285818 191.007355 
L 255.590182 190.331117 
L 255.742364 190.565227 
L 256.046727 191.755349 
L 257.010545 195.88381 
L 257.314909 196.67964 
L 257.416364 196.20707 
L 257.771455 194.151538 
L 257.923636 194.03267 
L 258.075818 194.210246 
L 258.228 194.511038 
L 258.430909 192.119923 
L 259.141091 183.00049 
L 259.344 181.275466 
L 259.394727 181.283438 
L 259.546909 181.982146 
L 259.902 185.51917 
L 260.662909 192.915029 
L 261.170182 195.746098 
L 261.677455 197.329786 
L 261.931091 197.794382 
L 261.981818 197.745096 
L 262.184727 196.852867 
L 262.489091 195.848294 
L 262.539818 195.795384 
L 262.641273 194.802408 
L 262.894909 192.240965 
L 263.047091 192.001056 
L 263.199273 192.31127 
L 263.605091 194.081957 
L 264.264545 196.752845 
L 264.315273 196.907227 
L 264.366 196.796333 
L 264.873273 190.484774 
L 264.974727 190.57465 
L 265.126909 190.812384 
L 265.431273 190.306474 
L 265.583455 190.608715 
L 265.887818 191.613288 
L 265.938545 191.521238 
L 266.141455 191.229144 
L 266.242909 191.326267 
L 266.445818 191.959742 
L 267.612545 197.165256 
L 267.663273 196.913026 
L 268.018364 194.680642 
L 268.170545 194.582069 
L 268.322727 194.811106 
L 268.525636 195.37645 
L 268.576364 195.251784 
L 268.931455 193.296274 
L 268.982182 193.268731 
L 269.388 190.95372 
L 269.489455 191.09868 
L 269.743091 192.156163 
L 270.351818 195.299621 
L 270.706909 193.286126 
L 270.808364 193.357882 
L 271.011273 193.953667 
L 271.975091 197.719728 
L 272.025818 197.667542 
L 272.380909 194.192126 
L 273.141818 180.289738 
L 273.192545 180.320179 
L 273.243273 180.3354 
L 273.446182 178.52485 
L 273.496909 178.55964 
L 273.649091 179.545368 
L 274.105636 185.417698 
L 274.714364 192.306197 
L 274.866545 193.121597 
L 275.170909 191.730706 
L 275.424545 190.241242 
L 275.678182 187.977691 
L 275.779636 187.816786 
L 275.830364 187.864622 
L 275.982545 188.37923 
L 276.388364 190.78919 
L 276.439091 190.22747 
L 276.743455 186.951374 
L 276.844909 186.864398 
L 276.997091 187.34639 
L 277.352182 189.799114 
L 278.062364 194.563224 
L 278.163818 194.278378 
L 278.417455 193.562275 
L 278.569636 193.641278 
L 278.823273 194.282726 
L 279.99 197.830622 
L 280.446545 198.549624 
L 280.548 198.354653 
L 280.700182 197.42111 
L 281.156727 190.82543 
L 281.308909 190.608715 
L 281.461091 190.913856 
L 281.765455 192.301123 
L 282.069818 189.227246 
L 282.171273 189.43164 
L 282.424909 190.887763 
L 283.185818 195.757694 
L 283.236545 195.777989 
L 283.540909 193.813056 
L 283.642364 193.764494 
L 283.743818 193.909454 
L 284.149636 191.751 
L 284.200364 191.796662 
L 284.403273 192.415642 
L 284.809091 194.365354 
L 284.859818 194.14429 
L 285.417818 191.08056 
L 285.519273 190.950821 
L 285.57 190.978363 
L 285.722182 191.349461 
L 286.077273 193.115798 
L 286.381636 194.565398 
L 286.787455 193.431811 
L 286.838182 193.49052 
L 287.041091 194.037744 
L 287.396182 195.401818 
L 287.446909 195.342384 
L 287.852727 194.055139 
L 288.004909 194.229816 
L 288.309273 195.160459 
L 288.410727 195.419938 
L 288.461455 195.345283 
L 288.867273 194.326214 
L 289.019455 194.469725 
L 289.323818 195.285125 
L 289.983273 197.305142 
L 290.084727 196.807205 
L 290.592 192.562051 
L 290.744182 192.567125 
L 290.947091 193.107826 
L 291.302182 194.611786 
L 291.352909 194.582794 
L 291.961636 191.82493 
L 292.266 189.203328 
L 292.367455 189.038798 
L 292.418182 189.07069 
L 292.570364 189.511368 
L 292.925455 191.600966 
L 293.179091 192.936048 
L 293.280545 192.304747 
L 293.838545 185.632238 
L 293.94 185.703269 
L 294.142909 186.728136 
L 294.751636 190.481875 
L 294.954545 190.735555 
L 295.614 182.13073 
L 295.664727 182.197411 
L 295.715455 182.135078 
L 295.918364 181.634966 
L 296.019818 181.461014 
L 296.222727 180.683304 
L 296.425636 179.345323 
L 296.476364 179.365618 
L 296.628545 180.106363 
L 296.780727 181.116734 
L 296.932909 180.285389 
L 296.983636 180.314381 
L 297.135818 181.181966 
L 297.592364 186.229474 
L 298.201091 192.069912 
L 298.708364 194.964038 
L 299.215636 196.592664 
L 299.621455 197.288472 
L 299.773636 196.649923 
L 300.128727 195.280051 
L 300.230182 195.057538 
L 300.991091 189.995534 
L 301.092545 189.981038 
L 301.244727 190.367357 
L 301.447636 191.140718 
L 301.498364 190.98851 
L 301.752 190.154266 
L 301.802727 190.114402 
L 301.904182 189.285955 
L 302.411455 177.758736 
L 302.665091 173.720875 
L 302.715818 173.559245 
L 302.766545 173.579539 
L 302.918727 174.476117 
L 303.933273 183.726739 
L 304.440545 186.376608 
L 305.556545 194.32259 
L 306.063818 196.175179 
L 306.571091 197.245709 
L 306.875455 197.662469 
L 306.976909 197.00725 
L 307.281273 194.624107 
L 307.484182 194.283451 
L 307.585636 194.353757 
L 307.687091 193.714483 
L 307.991455 191.830003 
L 308.092909 191.672722 
L 308.600182 186.768725 
L 308.853818 184.205832 
L 308.904545 184.146398 
L 308.955273 184.192786 
L 309.107455 184.810315 
L 309.208909 185.475682 
L 309.259636 185.433643 
L 309.462545 184.863226 
L 309.564 185.069794 
L 309.766909 186.265714 
L 310.223455 189.119251 
L 310.274182 189.026477 
L 310.832182 184.693622 
L 310.933636 184.751606 
L 311.035091 183.658608 
L 311.288727 180.670982 
L 311.390182 180.558638 
L 311.542364 181.224005 
L 311.897455 184.663906 
L 312.658364 192.06049 
L 313.165636 194.953891 
L 313.419273 195.771466 
L 313.571455 194.886485 
L 313.825091 193.749274 
L 313.977273 193.705786 
L 314.180182 194.066011 
L 315.245455 196.955064 
L 315.296182 196.77169 
L 315.752727 194.602363 
L 315.904909 194.627731 
L 316.158545 195.110448 
L 317.274545 197.747995 
L 317.426727 195.651149 
L 317.731091 191.932925 
L 317.934 191.490797 
L 318.086182 191.772744 
L 318.289091 192.514939 
L 318.339818 192.309821 
L 318.644182 190.613064 
L 318.745636 190.713811 
L 318.897818 191.066789 
L 318.948545 190.98996 
L 319.202182 190.41012 
L 319.557273 185.035003 
L 319.810909 181.951704 
L 319.861636 181.895894 
L 319.912364 181.966925 
L 320.064545 182.744635 
L 320.419636 185.181413 
L 320.470364 185.169091 
L 320.571818 185.279261 
L 320.724 185.935205 
L 321.028364 187.58195 
L 321.129818 186.438216 
L 321.586364 179.149627 
L 321.637091 179.118461 
L 321.687818 179.214859 
L 321.84 180.094766 
L 322.245818 184.494302 
L 322.956 191.736504 
L 323.463273 194.782838 
L 323.970545 196.507862 
L 324.427091 197.381971 
L 324.528545 196.672392 
L 325.441636 185.016158 
L 325.593818 184.410226 
L 325.695273 184.600848 
L 325.898182 185.821411 
L 326.202545 187.671826 
L 326.963455 187.589923 
L 327.064909 187.307976 
L 327.572182 184.854528 
L 327.673636 184.663906 
L 327.724364 184.687824 
L 327.825818 184.837858 
L 328.688182 171.936418 
L 328.738909 172.031366 
L 328.891091 173.243232 
L 329.652 182.115509 
L 329.702727 182.057525 
L 330.007091 181.137029 
L 330.362182 177.447797 
L 330.463636 177.52825 
L 330.615818 178.366118 
L 330.920182 179.98967 
L 331.173818 181.53277 
L 331.376727 182.875824 
L 331.427455 182.846107 
L 331.528909 182.81639 
L 331.681091 183.277363 
L 331.985455 185.411899 
L 332.239091 187.321747 
L 332.289818 187.098509 
L 332.442 184.401528 
L 332.695636 181.140653 
L 333.050727 178.828541 
L 333.101455 178.784328 
L 333.304364 177.447072 
L 333.355091 177.453595 
L 333.507273 178.170422 
L 333.862364 181.867627 
L 334.471091 188.214701 
L 334.572545 188.25239 
L 334.674 187.984939 
L 334.876909 186.112781 
L 335.181273 182.45544 
L 335.434909 179.057578 
L 335.536364 178.852459 
L 335.587091 178.930013 
L 335.739273 179.692502 
L 336.398727 184.007237 
L 336.601636 184.965422 
L 337.413273 190.547107 
L 337.464 190.181808 
L 337.666909 186.816562 
L 338.275636 177.117288 
L 338.326364 177.045533 
L 338.377091 177.107866 
L 338.478545 177.233981 
L 338.529273 177.194117 
L 338.630727 177.231806 
L 338.732182 177.567389 
L 338.782909 177.456494 
L 339.138 174.742118 
L 339.188727 174.876206 
L 339.391636 176.451922 
L 340.051091 182.791022 
L 340.101818 182.922211 
L 340.355455 181.934309 
L 340.406182 181.950254 
L 340.558364 182.487331 
L 340.913455 185.295931 
L 341.217818 187.50947 
L 341.268545 187.447862 
L 341.522182 183.728914 
L 342.080182 172.126315 
L 342.232364 171.18335 
L 342.283091 171.197122 
L 342.435273 172.000925 
L 343.449818 180.532546 
L 343.500545 180.520949 
L 343.652727 179.288789 
L 343.804909 178.643717 
L 343.906364 178.595155 
L 344.210727 178.110264 
L 344.362909 177.739891 
L 344.464364 177.94356 
L 344.667273 179.259072 
L 345.377455 186.686098 
L 345.884727 190.733381 
L 345.935455 190.684094 
L 346.290545 189.43164 
L 346.392 189.514267 
L 346.493455 189.671549 
L 346.544182 189.583848 
L 346.899273 188.640883 
L 347.051455 188.873544 
L 347.355818 190.044821 
L 347.609455 191.163912 
L 347.660182 191.127672 
L 348.167455 189.422218 
L 348.674727 184.565333 
L 348.776182 184.439942 
L 348.877636 184.653034 
L 349.029818 185.199533 
L 349.080545 185.15677 
L 349.283455 184.965422 
L 349.435636 185.348842 
L 349.74 187.086912 
L 350.145818 189.712862 
L 350.196545 189.538186 
L 350.703818 186.785395 
L 350.856 187.07459 
L 351.109636 187.98349 
L 351.667636 184.752331 
L 351.769091 184.888594 
L 351.972 185.755454 
L 352.631455 190.311547 
L 353.138727 193.070136 
L 353.240182 193.07521 
L 353.290909 192.920102 
L 353.747455 188.353862 
L 353.848909 188.34589 
L 354.051818 188.835854 
L 354.609818 183.791246 
L 354.660545 183.883296 
L 354.863455 184.898016 
L 355.573636 190.499995 
L 355.624364 190.26516 
L 356.283818 182.827262 
L 356.436 183.358541 
L 356.537455 183.724565 
L 356.689636 182.36629 
L 357.044727 177.862382 
L 357.146182 177.560141 
L 357.196909 177.643493 
L 357.349091 178.563264 
L 357.552 179.762083 
L 357.653455 179.857032 
L 357.805636 180.477461 
L 358.11 183.107035 
L 358.972364 191.021126 
L 359.124545 191.15159 
L 359.378182 191.122598 
L 359.581091 191.445134 
L 359.986909 192.721507 
L 360.697091 194.925624 
L 360.849273 194.570472 
L 361.204364 193.705786 
L 361.356545 193.716658 
L 361.559455 193.969613 
L 361.660909 193.140442 
L 362.066727 188.077714 
L 362.218909 187.861723 
L 362.371091 188.233546 
L 362.726182 190.111502 
L 363.537818 194.373326 
L 363.892909 195.554026 
L 363.943636 195.48372 
L 364.349455 192.904882 
L 364.552364 191.53501 
L 365.364 177.968928 
L 365.465455 178.176946 
L 365.871273 180.024461 
L 365.972727 179.734541 
L 366.378545 176.975227 
L 366.48 176.855635 
L 366.530727 176.91072 
L 366.682909 177.593482 
L 366.987273 180.59053 
L 367.951091 190.974014 
L 368.154 191.766221 
L 368.306182 191.621986 
L 368.356909 191.451658 
L 368.813455 184.252219 
L 368.914909 184.298606 
L 369.117818 185.294482 
L 369.320727 185.786621 
L 369.472909 185.86055 
L 369.726545 185.738784 
L 369.878727 186.101184 
L 370.030909 186.78757 
L 370.081636 186.720888 
L 370.335273 185.795318 
L 370.436727 185.926507 
L 370.538182 186.164242 
L 370.588909 186.118579 
L 370.842545 185.429294 
L 371.197636 183.631066 
L 371.502 181.052952 
L 371.603455 180.765931 
L 371.806364 179.920814 
L 371.907818 180.067224 
L 372.110727 181.280539 
L 373.074545 189.071414 
L 373.176 188.40025 
L 373.581818 183.535392 
L 373.581818 183.535392 
" style="fill:none;stroke:#000000;stroke-linecap:square;stroke-width:1.5;"/>
   </g>
   <g id="line2d_16">
    <path clip-path="url(#p6049269e21)" d="M 69.218182 150.528 
L 69.370364 188.040024 
L 69.421091 188.335742 
L 69.471818 188.19803 
L 69.573273 188.025528 
L 69.674727 188.335018 
L 70.587818 193.467326 
L 70.638545 193.427462 
L 70.841455 193.117248 
L 70.942909 193.237565 
L 71.145818 193.992806 
L 71.399455 194.834299 
L 71.450182 194.794435 
L 71.602364 193.028822 
L 71.805273 191.579947 
L 71.906727 191.578498 
L 72.058909 192.09383 
L 72.515455 195.008976 
L 72.819818 196.555699 
L 73.225636 196.067909 
L 73.479273 196.517285 
L 73.53 196.410739 
L 73.682182 195.66637 
L 73.885091 192.2946 
L 74.138727 189.030826 
L 74.290909 187.65733 
L 74.696727 183.579605 
L 74.747455 183.716592 
L 75.406909 187.447138 
L 76.421455 195.84757 
L 76.928727 198.050237 
L 77.334545 199.060608 
L 77.385273 198.943915 
L 78.095455 191.911906 
L 78.247636 191.503843 
L 78.552 189.435264 
L 78.653455 189.442512 
L 78.805636 189.939725 
L 79.414364 192.454781 
L 79.566545 192.591043 
L 79.870909 193.270181 
L 79.921636 193.046942 
L 80.226 187.236221 
L 80.733273 180.433973 
L 81.088364 179.396784 
L 81.139091 179.486659 
L 81.291273 180.311482 
L 81.646364 184.08769 
L 82.052182 188.25239 
L 82.356545 188.606818 
L 82.660909 190.052069 
L 82.762364 189.66865 
L 82.965273 188.801789 
L 83.066727 188.872094 
L 83.269636 189.671549 
L 84.233455 194.802408 
L 84.284182 194.688614 
L 84.385636 193.955117 
L 84.791455 187.332619 
L 84.943636 186.9492 
L 85.045091 187.109381 
L 85.298727 188.348789 
L 85.349455 188.65103 
L 85.400182 188.583624 
L 85.653818 187.51237 
L 85.755273 187.69212 
L 86.008909 189.017054 
L 86.617636 192.916478 
L 86.719091 191.411069 
L 87.175636 182.113334 
L 87.530727 179.001043 
L 87.733636 178.761134 
L 87.885818 179.292413 
L 87.987273 179.745413 
L 88.038 179.64684 
L 88.139455 179.438098 
L 88.190182 179.46709 
L 88.342364 180.030984 
L 88.393091 179.884574 
L 88.545273 179.368517 
L 88.596 179.421427 
L 88.646727 179.387362 
L 89.255455 176.6208 
L 89.813455 169.085779 
L 89.864182 169.232914 
L 90.067091 169.77289 
L 90.27 171.47327 
L 90.574364 174.102845 
L 90.726545 174.853738 
L 91.030909 178.375541 
L 91.842545 188.051621 
L 91.893273 188.111779 
L 91.944 188.060318 
L 92.146909 187.850126 
L 92.299091 188.076989 
L 92.603455 189.248266 
L 93.313636 192.269957 
L 93.770182 190.276757 
L 93.922364 190.402872 
L 94.176 191.092157 
L 94.886182 193.509365 
L 94.936909 193.49197 
L 95.190545 192.506242 
L 95.342727 192.044544 
L 95.596364 187.406549 
L 95.748545 186.957898 
L 95.85 187.124602 
L 95.900727 187.29203 
L 95.951455 187.22245 
L 96.103636 185.108933 
L 96.357273 182.306856 
L 96.458727 182.191613 
L 96.610909 182.693899 
L 96.966 185.347392 
L 97.726909 191.087808 
L 98.234182 193.378176 
L 98.437091 194.004403 
L 98.538545 192.796162 
L 98.792182 190.31952 
L 98.893636 190.196304 
L 98.944364 190.23037 
L 99.147273 190.732656 
L 100.466182 195.022747 
L 101.024182 195.843221 
L 101.531455 196.254907 
L 101.785091 194.061662 
L 102.190909 188.232821 
L 102.292364 187.568904 
L 102.546 185.813438 
L 102.647455 185.840256 
L 102.850364 186.488952 
L 102.901091 186.361387 
L 103.104 185.725738 
L 103.205455 185.829384 
L 103.408364 186.658555 
L 104.828727 194.197925 
L 105.336 195.353256 
L 105.894 196.067184 
L 106.553455 196.537579 
L 107.415818 196.905053 
L 107.466545 196.870987 
L 107.669455 195.559099 
L 107.973818 194.129794 
L 108.176727 193.968888 
L 108.328909 194.038469 
L 108.481091 193.478923 
L 108.785455 192.525811 
L 108.937636 192.535234 
L 109.140545 192.887486 
L 109.242 193.148414 
L 109.292727 193.103477 
L 110.053636 185.548886 
L 110.205818 185.206781 
L 110.358 185.689498 
L 110.713091 188.14657 
L 111.423273 192.92735 
L 111.930545 194.924174 
L 112.133455 195.431534 
L 112.184182 195.380798 
L 112.539273 193.560101 
L 112.995818 191.192179 
L 113.148 191.18783 
L 113.350909 191.420491 
L 113.503091 189.633134 
L 113.807455 186.664354 
L 113.959636 186.466483 
L 114.111818 186.829608 
L 114.416182 188.279933 
L 114.466909 188.113229 
L 114.720545 187.129675 
L 114.771273 187.080389 
L 114.923455 185.157494 
L 115.38 179.618573 
L 115.582909 179.275742 
L 115.938 177.342701 
L 116.039455 177.631171 
L 116.293091 179.556965 
L 117.409091 189.998434 
L 117.459818 189.964368 
L 117.865636 188.450261 
L 118.271455 183.635414 
L 118.525091 182.903366 
L 118.626545 182.954102 
L 118.778727 183.412176 
L 119.133818 185.590925 
L 120.046909 191.418317 
L 120.097636 191.476301 
L 120.706364 186.489677 
L 121.112182 180.283939 
L 121.213636 180.114336 
L 121.315091 180.346272 
L 121.568727 182.000266 
L 122.380364 188.748878 
L 122.583273 186.257016 
L 123.039818 180.362942 
L 123.242727 179.464915 
L 123.344182 179.654813 
L 123.547091 180.842035 
L 124.460182 188.505346 
L 124.561636 188.015381 
L 125.119636 185.766326 
L 125.271818 185.977243 
L 125.525455 186.920208 
L 125.779091 188.070466 
L 125.829818 188.033501 
L 126.134182 187.395677 
L 126.286364 187.401475 
L 126.438545 187.037626 
L 126.641455 184.44719 
L 126.844364 183.10776 
L 126.945818 183.085291 
L 126.996545 183.182414 
L 127.047273 183.137477 
L 127.503818 180.222331 
L 127.554545 180.283214 
L 127.706727 180.838411 
L 128.061818 183.357816 
L 128.924182 189.551232 
L 129.076364 190.20935 
L 129.177818 188.880792 
L 129.532909 182.87075 
L 129.735818 182.184365 
L 129.837273 182.353243 
L 129.989455 182.743186 
L 130.040182 182.67288 
L 130.243091 182.413402 
L 130.395273 182.760581 
L 130.496727 183.19691 
L 130.547455 183.070795 
L 130.801091 181.674106 
L 130.902545 181.771954 
L 131.105455 182.752608 
L 132.12 189.635309 
L 132.475091 186.524467 
L 132.525818 186.53099 
L 132.678 186.781771 
L 132.728727 186.741182 
L 133.033091 186.291806 
L 133.185273 186.392554 
L 133.540364 185.569906 
L 133.591091 185.597448 
L 133.743273 185.905488 
L 134.098364 187.429018 
L 134.301273 188.45171 
L 134.352 188.231371 
L 134.656364 186.578102 
L 134.757818 186.607819 
L 134.960727 187.178237 
L 135.569455 190.004957 
L 135.620182 189.951322 
L 135.924545 185.503224 
L 136.330364 181.086293 
L 136.431818 181.17037 
L 136.634727 182.142326 
L 138.055091 191.239291 
L 138.105818 191.316845 
L 138.156545 191.249438 
L 138.714545 189.760699 
L 138.866727 189.851299 
L 139.018909 190.055693 
L 139.069636 190.017278 
L 139.729091 188.0364 
L 140.033455 186.916584 
L 140.185636 186.952824 
L 140.236364 187.026754 
L 140.287091 186.973118 
L 140.439273 186.071467 
L 140.946545 182.001715 
L 141.098727 181.624094 
L 141.149455 181.64004 
L 141.200182 181.671206 
L 141.352364 181.055126 
L 141.758182 178.797374 
L 141.808909 178.873478 
L 141.961091 179.537395 
L 142.316182 181.655261 
L 142.468364 180.252773 
L 142.823455 177.664512 
L 142.975636 177.250651 
L 143.077091 177.40141 
L 143.229273 177.826867 
L 143.432182 177.547819 
L 143.533636 177.758011 
L 143.838 179.143104 
L 143.888727 179.055403 
L 144.142364 178.479912 
L 144.243818 178.580659 
L 144.446727 179.412005 
L 144.598909 179.817168 
L 144.801818 179.827315 
L 144.954 180.249149 
L 145.258364 182.014037 
L 145.410545 182.905541 
L 145.461273 182.719992 
L 145.917818 179.786726 
L 146.019273 179.837462 
L 146.222182 180.553565 
L 146.628 183.064997 
L 146.729455 182.893219 
L 146.932364 182.588078 
L 147.033818 182.631566 
L 147.388909 180.691277 
L 147.439636 180.736214 
L 147.591818 181.233427 
L 148.048364 182.948304 
L 148.251273 183.204883 
L 149.113636 180.043306 
L 149.265818 180.46224 
L 149.570182 182.303232 
L 149.823818 183.415075 
L 150.026727 183.426672 
L 150.381818 180.699974 
L 150.432545 180.709397 
L 150.584727 181.146451 
L 150.838364 182.114784 
L 150.889091 182.085067 
L 151.193455 181.771229 
L 151.447091 181.122533 
L 151.548545 181.113835 
L 151.65 179.889648 
L 152.106545 173.228736 
L 152.157273 173.14031 
L 152.208 173.178 
L 152.360182 173.878157 
L 152.715273 177.338352 
L 153.526909 185.417698 
L 153.729818 186.486778 
L 154.034182 185.021232 
L 154.135636 185.00891 
L 154.287818 185.30173 
L 154.642909 186.711466 
L 154.947273 187.825483 
L 155.048727 187.623989 
L 155.099455 187.400026 
L 155.454545 182.408328 
L 155.556 182.29091 
L 155.708182 182.660558 
L 156.063273 184.64796 
L 156.164727 185.242296 
L 156.215455 185.224176 
L 156.418364 183.19836 
L 156.672 181.630618 
L 156.773455 181.590754 
L 156.925636 181.965475 
L 157.128545 182.593877 
L 157.432909 182.390208 
L 157.635818 182.938882 
L 158.092364 185.322024 
L 158.650364 188.070466 
L 159.056182 185.71559 
L 159.563455 181.690776 
L 159.817091 178.656763 
L 159.969273 178.332053 
L 160.070727 178.555291 
L 160.324364 180.020837 
L 161.541818 188.513318 
L 162.049091 190.305024 
L 162.201273 190.68337 
L 162.252 190.585522 
L 162.708545 183.008462 
L 162.860727 182.312654 
L 163.266545 174.148507 
L 163.520182 173.12219 
L 163.621636 173.314262 
L 164.230364 176.127211 
L 164.281091 176.058355 
L 164.433273 175.803226 
L 164.534727 176.051107 
L 164.788364 177.81527 
L 165.498545 184.297882 
L 165.549273 184.197859 
L 166.005818 181.310256 
L 166.056545 181.318954 
L 166.158 181.436371 
L 166.665273 177.006394 
L 166.766727 176.76431 
L 166.817455 176.816496 
L 166.969636 177.469541 
L 167.375455 180.905818 
L 168.085636 186.631738 
L 168.592909 189.103306 
L 168.643636 189.185933 
L 168.694364 189.099682 
L 168.948 187.796491 
L 169.049455 186.359213 
L 169.506 176.25985 
L 169.658182 175.73437 
L 169.759636 175.939488 
L 169.962545 177.168749 
L 170.266909 179.125709 
L 170.317636 179.12281 
L 170.622 176.106917 
L 171.433636 166.417066 
L 171.636545 165.912605 
L 171.738 166.139467 
L 171.940909 167.313643 
L 171.991636 167.024448 
L 172.194545 164.422416 
L 172.397455 162.901061 
L 172.701818 163.57585 
L 172.904727 165.183456 
L 173.056909 166.169184 
L 173.259818 164.671022 
L 173.462727 163.532362 
L 173.564182 163.694717 
L 173.665636 162.914832 
L 173.868545 158.924083 
L 174.274364 150.749789 
L 174.375818 151.108565 
L 174.578727 153.634493 
L 174.883091 156.772152 
L 174.933818 156.830136 
L 175.086 156.47281 
L 175.288909 157.064971 
L 175.339636 156.993941 
L 175.542545 156.393806 
L 175.644 156.804768 
L 175.897636 159.619166 
L 176.049818 160.986864 
L 176.100545 160.941202 
L 176.151273 160.857125 
L 176.506364 156.676478 
L 176.557091 156.810566 
L 177.064364 160.047523 
L 177.673091 166.10975 
L 177.876 166.307621 
L 178.129636 160.397602 
L 178.383273 156.39888 
L 178.484727 156.193037 
L 178.586182 156.480782 
L 178.890545 154.243325 
L 178.992 154.455691 
L 179.144182 154.604275 
L 179.296364 154.307107 
L 179.347091 154.340448 
L 179.448545 154.522373 
L 179.651455 152.184168 
L 179.803636 149.809723 
L 180.108 144.310666 
L 180.209455 143.810554 
L 180.260182 143.819976 
L 180.615273 145.402214 
L 180.970364 149.171174 
L 181.021091 149.056656 
L 181.122545 148.826894 
L 181.173273 148.887778 
L 181.325455 149.15233 
L 181.426909 149.36977 
L 181.579091 150.572938 
L 181.883455 155.36749 
L 182.187818 159.270538 
L 182.542909 160.286707 
L 182.847273 162.971366 
L 182.898 162.674923 
L 183.050182 160.949899 
L 183.253091 159.293006 
L 183.303818 159.293006 
L 183.405273 159.69672 
L 183.608182 161.563805 
L 183.709636 161.353613 
L 183.760364 161.294904 
L 183.861818 161.536987 
L 183.963273 160.423694 
L 184.216909 157.578854 
L 184.419818 156.734462 
L 184.521273 157.035254 
L 184.876364 160.117104 
L 185.383636 164.757274 
L 185.738727 161.468131 
L 185.840182 161.650781 
L 186.043091 163.234469 
L 186.398182 166.081483 
L 186.753273 167.68909 
L 186.905455 168.130493 
L 187.209818 169.204646 
L 187.311273 169.361203 
L 187.362 169.339459 
L 187.514182 169.33656 
L 187.564909 169.404691 
L 187.615636 169.26263 
L 187.717091 166.843973 
L 187.970727 160.798416 
L 188.528727 156.535867 
L 188.579455 156.57863 
L 188.680909 156.625742 
L 188.731636 156.422074 
L 189.289636 148.705128 
L 189.340364 148.834142 
L 189.746182 151.531123 
L 190.253455 156.569208 
L 190.304182 156.457589 
L 190.507091 154.952904 
L 190.557818 154.989869 
L 190.608545 155.171794 
L 190.659273 155.013787 
L 190.811455 154.31363 
L 190.912909 154.747786 
L 190.963636 154.565136 
L 191.065091 153.629419 
L 191.420182 148.472467 
L 191.470909 148.495661 
L 191.673818 149.629248 
L 191.775273 149.446598 
L 191.978182 148.958083 
L 192.079636 149.26105 
L 192.282545 151.131034 
L 192.739091 157.72309 
L 192.840545 157.402003 
L 193.043455 156.974371 
L 193.144909 157.204133 
L 193.195636 157.365038 
L 193.246364 157.237474 
L 193.347818 156.537317 
L 193.601455 153.257597 
L 193.652182 153.19309 
L 193.702909 153.290938 
L 193.855091 154.357843 
L 194.159455 157.253419 
L 194.210182 157.19616 
L 194.311636 156.956976 
L 194.362364 156.983069 
L 194.514545 157.776 
L 194.717455 158.205082 
L 194.768182 158.068819 
L 195.478364 150.515678 
L 195.529091 150.539597 
L 195.579818 150.699778 
L 195.782727 149.383541 
L 195.833455 149.474866 
L 196.036364 150.380866 
L 196.087091 150.330854 
L 196.188545 150.25765 
L 196.29 149.561117 
L 196.492909 144.007699 
L 196.797273 135.099907 
L 196.949455 134.125051 
L 197.050909 134.543261 
L 197.101636 134.833181 
L 197.253818 133.659005 
L 197.355273 133.797442 
L 197.507455 133.323422 
L 197.659636 131.844106 
L 197.710364 131.855702 
L 197.811818 132.2268 
L 197.862545 132.152146 
L 198.014727 131.794094 
L 198.116182 132.368861 
L 198.319091 135.465206 
L 198.877091 144.895579 
L 199.282909 151.316582 
L 199.333636 150.923016 
L 199.587273 148.621776 
L 199.688727 147.66504 
L 199.891636 145.565294 
L 200.043818 145.300742 
L 200.094545 145.338432 
L 200.196 145.647197 
L 200.246727 145.56457 
L 200.348182 145.413811 
L 200.449636 145.808827 
L 200.855455 148.364472 
L 200.956909 148.218787 
L 201.007636 148.291992 
L 201.514909 149.923517 
L 201.920727 152.477712 
L 202.275818 157.585378 
L 202.630909 161.941426 
L 202.732364 162.12625 
L 202.884545 160.707816 
L 203.239636 156.182165 
L 203.544 149.065354 
L 203.797636 144.182376 
L 204.051273 142.218168 
L 204.507818 134.212027 
L 205.015091 124.173547 
L 205.116545 123.868406 
L 205.167273 123.956832 
L 205.319455 124.627272 
L 205.522364 126.941558 
L 205.877455 134.74548 
L 206.536909 150.177922 
L 206.739818 152.031235 
L 206.942727 152.61325 
L 207.145636 154.158523 
L 207.551455 159.614093 
L 208.160182 167.34336 
L 208.210909 167.426712 
L 208.261636 167.340461 
L 208.515273 166.321392 
L 208.768909 163.967966 
L 208.870364 163.805611 
L 208.921091 163.859971 
L 209.073273 164.500694 
L 209.326909 165.639355 
L 209.479091 165.927101 
L 209.682 166.620734 
L 209.834182 165.696614 
L 210.24 161.028902 
L 210.341455 161.185459 
L 210.544364 162.602443 
L 210.747273 164.313696 
L 210.798 164.260786 
L 211.000909 162.129149 
L 211.305273 158.12173 
L 211.660364 157.049026 
L 211.812545 157.590451 
L 211.914 157.860077 
L 212.167636 157.090339 
L 212.218364 157.144699 
L 212.319818 156.746784 
L 212.421273 155.827013 
L 212.674909 153.347472 
L 212.776364 153.68233 
L 212.979273 155.74656 
L 213.486545 161.65513 
L 213.689455 162.105955 
L 213.841636 161.402174 
L 213.993818 158.671853 
L 214.298182 153.324278 
L 214.602545 151.173072 
L 214.906909 150.517128 
L 215.008364 150.739642 
L 215.160545 151.410806 
L 216.022909 139.652376 
L 216.327273 133.299504 
L 216.682364 126.822691 
L 216.783818 126.371866 
L 216.834545 126.402307 
L 216.885273 126.497256 
L 217.037455 126.129782 
L 217.088182 126.229805 
L 217.240364 127.501829 
L 217.544727 133.316174 
L 217.849091 138.07956 
L 218.559273 148.749341 
L 218.965091 152.263171 
L 219.015818 151.96093 
L 219.269455 150.087322 
L 219.523091 147.728098 
L 219.878182 144.465773 
L 219.979636 144.246883 
L 220.030364 144.306317 
L 220.182545 145.173902 
L 220.334727 146.345904 
L 220.385455 146.122666 
L 220.436182 145.990752 
L 220.486909 146.056709 
L 220.588364 146.10817 
L 220.689818 145.36235 
L 221.653636 137.089483 
L 221.704364 137.078611 
L 221.805818 137.53741 
L 222.516 143.457576 
L 222.566727 143.295946 
L 222.668182 143.023421 
L 222.718909 143.041541 
L 222.820364 143.463374 
L 223.023273 145.67184 
L 223.479818 154.094016 
L 224.291455 168.370402 
L 224.342182 168.292123 
L 224.849455 163.417843 
L 224.950909 163.582373 
L 225.153818 164.758723 
L 225.610364 169.364827 
L 226.422 177.14483 
L 226.98 180.524573 
L 227.233636 181.454491 
L 227.385818 181.036282 
L 227.690182 180.310757 
L 227.842364 180.37164 
L 228.096 180.902918 
L 228.603273 182.573582 
L 228.654 182.446742 
L 228.856909 179.506229 
L 229.110545 176.067778 
L 229.262727 175.707552 
L 229.364182 175.874981 
L 229.617818 177.07235 
L 230.429455 182.288736 
L 230.480182 182.256845 
L 230.886 177.402134 
L 231.291818 169.008226 
L 231.494727 167.370902 
L 231.646909 166.509115 
L 231.697636 166.518538 
L 232.154182 167.821003 
L 232.458545 170.817326 
L 232.712182 173.026517 
L 232.915091 173.50561 
L 233.168727 175.129162 
L 234.386182 184.660282 
L 234.436909 184.596499 
L 234.842727 182.774352 
L 234.944182 182.825813 
L 235.147091 183.317952 
L 235.908 186.33167 
L 236.263091 187.483378 
L 236.313818 187.427568 
L 236.567455 182.79972 
L 236.871818 179.277917 
L 237.024 178.887974 
L 237.125455 178.984373 
L 237.328364 179.73889 
L 237.480545 180.288288 
L 237.784909 179.092368 
L 237.886364 179.279366 
L 238.14 180.533995 
L 238.444364 182.58083 
L 238.748727 179.606251 
L 238.850182 179.794699 
L 239.002364 180.521674 
L 239.053091 180.502829 
L 239.154545 178.329154 
L 239.357455 174.869683 
L 239.458909 174.580488 
L 239.509636 174.658042 
L 239.661818 175.447349 
L 240.118364 179.680906 
L 240.777818 185.109658 
L 241.285091 187.662403 
L 241.792364 189.175786 
L 242.198182 189.867245 
L 242.401091 188.132074 
L 242.654727 186.82381 
L 242.857636 186.36936 
L 243.162 184.10581 
L 243.314182 183.807917 
L 243.618545 180.926112 
L 243.973636 177.209338 
L 244.075091 176.844763 
L 244.328727 175.560418 
L 244.430182 175.649568 
L 244.633091 176.69473 
L 245.038909 179.506229 
L 245.444727 175.650293 
L 245.495455 175.74959 
L 245.698364 176.840414 
L 246.154909 180.57241 
L 246.205636 180.362218 
L 246.408545 179.667859 
L 246.51 179.88385 
L 246.763636 181.253722 
L 247.778182 187.415246 
L 247.879636 187.832006 
L 247.930364 187.763875 
L 248.336182 185.382182 
L 248.437636 185.40755 
L 248.640545 185.857651 
L 249.097091 187.40075 
L 249.147818 187.170989 
L 249.452182 185.801842 
L 249.655091 185.385082 
L 250.010182 183.787622 
L 250.111636 183.772402 
L 250.263818 184.052174 
L 250.618909 185.461186 
L 250.720364 185.709792 
L 250.872545 183.615845 
L 251.176909 179.951256 
L 251.430545 178.258848 
L 251.532 178.21391 
L 251.684182 178.682856 
L 251.988545 180.329602 
L 252.039273 180.06505 
L 252.242182 179.399683 
L 252.343636 179.448245 
L 252.597273 177.687706 
L 252.698727 177.768158 
L 252.901636 178.824917 
L 253.611818 183.949978 
L 253.662545 183.853579 
L 254.169818 181.628443 
L 254.220545 181.661784 
L 254.423455 182.048102 
L 254.474182 181.990118 
L 254.778545 181.600176 
L 254.930727 181.888646 
L 255.235091 183.078043 
L 255.336545 182.849731 
L 255.590182 182.339472 
L 255.742364 182.58228 
L 256.046727 183.828936 
L 257.112 188.664802 
L 257.314909 189.238118 
L 257.365636 189.113453 
L 257.872909 186.56868 
L 258.025091 186.656381 
L 258.228 187.048498 
L 258.380182 185.259691 
L 259.394727 173.01492 
L 259.496182 173.332382 
L 259.749818 175.454597 
L 260.865818 186.410674 
L 261.373091 188.961245 
L 261.880364 190.407946 
L 261.931091 190.477526 
L 261.981818 190.439837 
L 262.184727 189.55848 
L 262.489091 188.521291 
L 262.539818 188.463307 
L 262.641273 187.443514 
L 262.945636 184.559534 
L 263.047091 184.445741 
L 263.097818 184.489229 
L 263.300727 185.077042 
L 264.315273 189.491074 
L 264.366 189.392501 
L 264.873273 182.826538 
L 264.974727 182.881622 
L 265.076182 183.115733 
L 265.126909 183.084566 
L 265.431273 182.498203 
L 265.583455 182.78015 
L 265.887818 183.795595 
L 265.938545 183.703546 
L 266.141455 183.403478 
L 266.242909 183.500602 
L 266.445818 184.154371 
L 267.105273 187.648632 
L 267.612545 189.770846 
L 267.764727 188.662627 
L 268.018364 187.27536 
L 268.170545 187.165915 
L 268.322727 187.394227 
L 268.525636 187.976966 
L 268.576364 187.855925 
L 268.931455 185.833733 
L 268.982182 185.799667 
L 269.388 183.349118 
L 269.489455 183.475234 
L 269.692364 184.263091 
L 270.351818 187.843603 
L 270.402545 187.485552 
L 270.656182 185.88157 
L 270.757636 185.833008 
L 270.909818 186.149021 
L 271.315636 187.869696 
L 271.975091 190.501445 
L 272.025818 190.460856 
L 272.380909 186.910786 
L 273.192545 172.059634 
L 273.243273 172.029192 
L 273.496909 169.991054 
L 273.598364 170.465074 
L 273.852 173.247581 
L 274.815818 185.022682 
L 274.866545 185.059646 
L 275.221636 183.568733 
L 275.424545 182.289461 
L 275.678182 179.93531 
L 275.779636 179.743963 
L 275.830364 179.779478 
L 275.982545 180.276691 
L 276.388364 182.748259 
L 276.439091 182.187264 
L 276.743455 178.793026 
L 276.844909 178.675608 
L 276.946364 178.914792 
L 277.2 180.431798 
L 278.062364 186.750605 
L 278.113091 186.684648 
L 278.417455 185.830109 
L 278.569636 185.932306 
L 278.823273 186.62449 
L 280.091455 190.748602 
L 280.446545 191.363957 
L 280.497273 191.326267 
L 280.649455 190.702939 
L 280.750909 189.280882 
L 281.055273 183.999989 
L 281.258182 183.077318 
L 281.359636 183.090365 
L 281.511818 183.477408 
L 281.765455 184.674053 
L 282.069818 181.487107 
L 282.171273 181.672656 
L 282.424909 183.136027 
L 283.236545 188.295154 
L 283.591636 186.267163 
L 283.693091 186.323698 
L 283.743818 186.416472 
L 284.149636 184.153646 
L 284.200364 184.189886 
L 284.352545 184.587802 
L 284.809091 186.792643 
L 284.859818 186.575203 
L 285.417818 183.38101 
L 285.57 183.236774 
L 285.722182 183.585403 
L 286.077273 185.377109 
L 286.381636 186.909336 
L 286.787455 185.785896 
L 286.838182 185.847504 
L 287.041091 186.415747 
L 287.396182 187.8552 
L 287.446909 187.805189 
L 287.852727 186.499099 
L 288.004909 186.672326 
L 288.309273 187.631962 
L 288.410727 187.908835 
L 288.461455 187.83853 
L 288.867273 186.795542 
L 289.019455 186.936878 
L 289.323818 187.778371 
L 289.983273 189.949872 
L 290.084727 189.460632 
L 290.642727 184.969046 
L 290.744182 185.000213 
L 290.947091 185.518445 
L 291.302182 187.058645 
L 291.403636 186.833232 
L 291.708 185.701819 
L 291.758727 185.691672 
L 291.860182 185.233598 
L 292.367455 181.231253 
L 292.418182 181.246474 
L 292.570364 181.655986 
L 292.925455 183.774576 
L 293.179091 185.190835 
L 293.280545 184.571131 
L 293.838545 177.605078 
L 293.94 177.631171 
L 294.092182 178.277693 
L 294.498 181.589304 
L 294.700909 182.403979 
L 294.954545 182.748984 
L 295.614 173.68681 
L 295.664727 173.722325 
L 295.766182 173.39544 
L 296.070545 172.593086 
L 296.222727 171.905251 
L 296.425636 170.44043 
L 296.476364 170.435357 
L 296.577818 170.798482 
L 296.780727 172.132114 
L 296.831455 171.769714 
L 296.932909 171.25728 
L 296.983636 171.273226 
L 297.135818 172.130664 
L 297.541636 176.739667 
L 298.251818 184.108709 
L 298.759091 187.235496 
L 299.266364 189.050395 
L 299.621455 189.765773 
L 299.773636 189.149693 
L 300.128727 187.760976 
L 300.230182 187.529765 
L 301.041818 182.098114 
L 301.143273 182.176392 
L 301.346182 182.881622 
L 301.447636 183.223003 
L 301.853455 181.851682 
L 302.005636 178.980749 
L 302.614364 165.184181 
L 302.766545 164.47895 
L 302.868 164.863094 
L 303.121636 167.570947 
L 303.426 170.504938 
L 303.578182 171.16523 
L 305.708727 187.165915 
L 306.216 188.994586 
L 306.723273 190.066565 
L 306.875455 190.293427 
L 306.976909 189.644731 
L 307.332 187.00356 
L 307.534909 186.801341 
L 307.585636 186.844104 
L 307.687091 186.178738 
L 307.991455 184.157995 
L 308.092909 183.966648 
L 308.600182 178.75896 
L 308.853818 175.959058 
L 308.955273 175.87788 
L 309.107455 176.425829 
L 309.208909 177.065827 
L 309.259636 177.012192 
L 309.462545 176.371469 
L 309.564 176.555568 
L 309.766909 177.750038 
L 310.223455 180.740563 
L 310.274182 180.66011 
L 310.832182 176.176498 
L 310.882909 176.194618 
L 310.933636 176.207664 
L 311.035091 175.071902 
L 311.288727 171.888581 
L 311.390182 171.714629 
L 311.491636 172.027018 
L 311.745273 174.106469 
L 312.912 185.556134 
L 313.368545 187.900138 
L 313.419273 187.973342 
L 313.571455 187.135474 
L 313.825091 186.017107 
L 313.977273 185.983766 
L 314.180182 186.368635 
L 314.890364 188.659728 
L 315.245455 189.525864 
L 315.397636 188.674949 
L 315.702 187.205054 
L 315.854182 187.114454 
L 316.057091 187.399301 
L 316.513636 188.676398 
L 317.223818 190.478976 
L 317.274545 190.494922 
L 317.426727 188.36256 
L 317.731091 184.446466 
L 317.934 183.900691 
L 318.035455 184.013035 
L 318.289091 184.845106 
L 318.339818 184.63129 
L 318.644182 182.822914 
L 318.745636 182.899018 
L 318.897818 183.23315 
L 318.948545 183.147624 
L 319.202182 182.518498 
L 319.557273 176.920142 
L 319.810909 173.579539 
L 319.861636 173.48459 
L 319.912364 173.52083 
L 320.064545 174.225336 
L 320.419636 176.630222 
L 320.470364 176.613552 
L 320.571818 176.717923 
L 320.724 177.38329 
L 321.028364 179.106864 
L 321.129818 177.958056 
L 321.586364 170.29547 
L 321.637091 170.229514 
L 321.687818 170.296195 
L 321.84 171.115944 
L 322.195091 174.933466 
L 323.006727 183.748483 
L 323.514 187.031102 
L 324.021273 188.952547 
L 324.427091 189.867245 
L 324.528545 189.174336 
L 325.543091 176.259125 
L 325.644545 176.176498 
L 325.796727 176.766485 
L 326.304 179.340974 
L 326.456182 179.401858 
L 326.709818 179.259797 
L 326.862 179.327203 
L 327.014182 179.214859 
L 327.673636 176.210563 
L 327.775091 176.313485 
L 327.825818 176.360597 
L 328.282364 167.737651 
L 328.637455 162.793066 
L 328.688182 162.609691 
L 328.738909 162.654629 
L 328.891091 163.758499 
L 329.296909 169.794634 
L 329.601273 172.729349 
L 329.652 172.793131 
L 329.702727 172.749643 
L 329.956364 172.361875 
L 330.412909 168.006552 
L 330.463636 168.088454 
L 330.615818 168.90168 
L 330.920182 170.540453 
L 331.173818 172.135738 
L 331.376727 173.561419 
L 331.427455 173.547648 
L 331.528909 173.544024 
L 331.681091 174.049934 
L 331.985455 176.328706 
L 332.239091 178.403083 
L 332.289818 178.203763 
L 332.442 175.500984 
L 332.746364 171.649397 
L 333 169.622131 
L 333.101455 169.523558 
L 333.355091 168.042792 
L 333.456545 168.387072 
L 333.710182 170.645549 
L 334.572545 179.364893 
L 334.623273 179.331552 
L 334.775455 178.402358 
L 335.232 172.480742 
L 335.485636 169.758394 
L 335.536364 169.693162 
L 335.587091 169.746072 
L 335.739273 170.46 
L 336.500182 175.331381 
L 336.855273 177.884851 
L 337.413273 182.035056 
L 337.565455 180.357869 
L 338.275636 168.097152 
L 338.326364 167.983358 
L 338.377091 168.009451 
L 338.478545 168.072509 
L 338.630727 167.981909 
L 338.732182 168.274728 
L 338.782909 168.144264 
L 339.138 165.201576 
L 339.188727 165.31247 
L 339.340909 166.338787 
L 339.746727 171.508786 
L 339.949636 173.144659 
L 340.101818 173.649845 
L 340.152545 173.479517 
L 340.355455 172.717027 
L 340.456909 172.855464 
L 340.659818 174.004272 
L 341.217818 178.684306 
L 341.268545 178.647341 
L 341.522182 174.893602 
L 342.130909 162.093634 
L 342.283091 161.47393 
L 342.384545 161.805888 
L 342.587455 163.678046 
L 342.891818 166.321392 
L 342.993273 166.643203 
L 343.196182 168.367502 
L 343.500545 170.770214 
L 343.602 170.059186 
L 343.804909 168.924149 
L 343.906364 168.885734 
L 344.210727 168.405192 
L 344.362909 168.01525 
L 344.464364 168.212395 
L 344.667273 169.551826 
L 345.225273 175.768435 
L 345.884727 181.983595 
L 345.935455 181.975622 
L 346.290545 180.874651 
L 346.442727 181.105862 
L 346.493455 181.179792 
L 346.544182 181.105862 
L 346.899273 180.188266 
L 347.051455 180.433973 
L 347.355818 181.668307 
L 347.609455 182.8722 
L 347.660182 182.849006 
L 348.167455 181.151525 
L 348.674727 176.049658 
L 348.776182 175.87933 
L 348.826909 175.932965 
L 349.029818 176.582386 
L 349.131273 176.426554 
L 349.283455 176.299714 
L 349.435636 176.670811 
L 349.74 178.455269 
L 350.145818 181.25952 
L 350.196545 181.102238 
L 350.703818 178.336402 
L 350.805273 178.482086 
L 351.008182 179.290238 
L 351.109636 179.578709 
L 351.667636 176.201141 
L 351.769091 176.313485 
L 351.972 177.16295 
L 352.479273 180.797822 
L 353.138727 184.93788 
L 353.240182 184.984267 
L 353.290909 184.845106 
L 353.747455 180.144778 
L 353.848909 180.109987 
L 354.051818 180.573859 
L 354.609818 175.201642 
L 354.660545 175.271222 
L 354.812727 175.91557 
L 355.218545 179.124984 
L 355.573636 182.045928 
L 355.624364 181.831387 
L 356.283818 174.087624 
L 356.334545 174.167352 
L 356.537455 174.919694 
L 356.689636 173.501986 
L 357.044727 168.722654 
L 357.146182 168.347933 
L 357.196909 168.402293 
L 357.349091 169.26553 
L 357.552 170.44333 
L 357.653455 170.522333 
L 357.805636 171.134789 
L 358.11 173.842642 
L 359.023091 182.58083 
L 359.226 182.664907 
L 359.428909 182.831611 
L 359.682545 183.47161 
L 360.697091 187.107206 
L 360.798545 186.944851 
L 361.204364 185.95115 
L 361.356545 185.97217 
L 361.559455 186.247594 
L 361.660909 185.411899 
L 362.117455 179.923714 
L 362.218909 179.819342 
L 362.269636 179.873702 
L 362.472545 180.576758 
L 363.081273 184.215979 
L 363.69 187.160842 
L 363.892909 187.858824 
L 363.943636 187.804464 
L 364.400182 184.892218 
L 364.603091 182.899018 
L 365.364 169.26263 
L 365.414727 169.248859 
L 365.516182 169.614883 
L 365.769818 170.633227 
L 365.871273 171.001426 
L 365.922 170.905752 
L 366.023455 170.209944 
L 366.277091 167.9232 
L 366.48 167.482522 
L 366.530727 167.514413 
L 366.682909 168.147888 
L 366.987273 171.164506 
L 368.052545 183.072245 
L 368.204727 183.28751 
L 368.356909 183.092539 
L 368.864182 175.651018 
L 368.965636 175.856861 
L 369.371455 177.225283 
L 369.472909 177.226733 
L 369.726545 177.085397 
L 369.878727 177.449246 
L 370.030909 178.155926 
L 370.081636 178.095768 
L 370.335273 177.154253 
L 370.436727 177.285442 
L 370.538182 177.531149 
L 370.588909 177.486936 
L 370.842545 176.78388 
L 371.197636 174.912446 
L 371.502 172.167629 
L 371.603455 171.83567 
L 371.806364 170.891256 
L 371.907818 171.002875 
L 372.110727 172.195896 
L 372.618 177.56159 
L 372.922364 180.00924 
L 373.074545 180.510077 
L 373.125273 180.354245 
L 373.277455 178.25015 
L 373.531091 175.066104 
L 373.581818 174.921869 
L 373.581818 174.921869 
" style="fill:none;stroke:#800080;stroke-linecap:square;stroke-width:1.5;"/>
   </g>
   <g id="line2d_17">
    <path clip-path="url(#p6049269e21)" d="M 322.81228 70.8 
L 373.429662 70.8 
L 373.429662 70.8 
" style="fill:none;stroke:#000000;stroke-linecap:square;stroke-width:1.5;"/>
   </g>
   <g id="line2d_18">
    <path clip-path="url(#p6049269e21)" d="M 322.81228 107.04 
L 322.81228 99.792 
L 322.81228 92.544 
L 322.81228 85.296 
L 322.81228 78.048 
" style="fill:none;stroke:#000000;stroke-linecap:square;stroke-width:1.5;"/>
   </g>
   <g id="patch_3">
    <path d="M 54 252 
L 54 34.56 
" style="fill:none;stroke:#000000;stroke-linecap:square;stroke-linejoin:miter;stroke-width:0.8;"/>
   </g>
   <g id="patch_4">
    <path d="M 54 252 
L 388.8 252 
" style="fill:none;stroke:#000000;stroke-linecap:square;stroke-linejoin:miter;stroke-width:0.8;"/>
   </g>
   <g id="text_17">
    <!-- 500 ms -->
    <g transform="translate(322.81228 63.552)scale(0.1 -0.1)">
     <use xlink:href="#DejaVuSans-35"/>
     <use x="63.623047" xlink:href="#DejaVuSans-30"/>
     <use x="127.246094" xlink:href="#DejaVuSans-30"/>
     <use x="190.869141" xlink:href="#DejaVuSans-20"/>
     <use x="222.65625" xlink:href="#DejaVuSans-6d"/>
     <use x="320.068359" xlink:href="#DejaVuSans-73"/>
    </g>
   </g>
   <g id="text_18">
    <!-- 5 mV -->
    <g transform="translate(327.884162 92.544)scale(0.1 -0.1)">
     <use xlink:href="#DejaVuSans-35"/>
     <use x="63.623047" xlink:href="#DejaVuSans-20"/>
     <use x="95.410156" xlink:href="#DejaVuSans-6d"/>
     <use x="192.822266" xlink:href="#DejaVuSans-56"/>
    </g>
   </g>
  </g>
 </g>
 <defs>
  <clipPath id="p6049269e21">
   <rect height="217.44" width="334.8" x="54" y="34.56"/>
  </clipPath>
 </defs>
</svg>
