<?xml version="1.0" encoding="utf-8" standalone="no"?>
<!DOCTYPE svg PUBLIC "-//W3C//DTD SVG 1.1//EN"
  "http://www.w3.org/Graphics/SVG/1.1/DTD/svg11.dtd">
<svg xmlns:xlink="http://www.w3.org/1999/xlink" width="432pt" height="288pt" viewBox="0 0 432 288" xmlns="http://www.w3.org/2000/svg" version="1.1">
 <metadata>
  <rdf:RDF xmlns:dc="http://purl.org/dc/elements/1.1/" xmlns:cc="http://creativecommons.org/ns#" xmlns:rdf="http://www.w3.org/1999/02/22-rdf-syntax-ns#">
   <cc:Work>
    <dc:type rdf:resource="http://purl.org/dc/dcmitype/StillImage"/>
    <dc:date>2022-07-12T18:39:06.822273</dc:date>
    <dc:format>image/svg+xml</dc:format>
    <dc:creator>
     <cc:Agent>
      <dc:title>Matplotlib v3.5.2, https://matplotlib.org/</dc:title>
     </cc:Agent>
    </dc:creator>
   </cc:Work>
  </rdf:RDF>
 </metadata>
 <defs>
  <style type="text/css">*{stroke-linejoin: round; stroke-linecap: butt}</style>
 </defs>
 <g id="figure_1">
  <g id="patch_1">
   <path d="M 0 288 
L 432 288 
L 432 0 
L 0 0 
L 0 288 
z
" style="fill: none"/>
  </g>
  <g id="axes_1">
   <g id="patch_2">
    <path d="M 54 252 
L 388.8 252 
L 388.8 34.56 
L 54 34.56 
z
" style="fill: #ffffff"/>
   </g>
   <g id="matplotlib.axis_1">
    <g id="xtick_1">
     <g id="line2d_1">
      <defs>
       <path id="m4632dd3966" d="M 0 0 
L 0 3.5 
" style="stroke: #000000; stroke-width: 0.8"/>
      </defs>
      <g>
       <use xlink:href="#m4632dd3966" x="69.218182" y="252" style="stroke: #000000; stroke-width: 0.8"/>
      </g>
     </g>
     <g id="text_1">
      <!-- 0 -->
      <g transform="translate(66.036932 266.598437)scale(0.1 -0.1)">
       <defs>
        <path id="DejaVuSans-30" d="M 2034 4250 
Q 1547 4250 1301 3770 
Q 1056 3291 1056 2328 
Q 1056 1369 1301 889 
Q 1547 409 2034 409 
Q 2525 409 2770 889 
Q 3016 1369 3016 2328 
Q 3016 3291 2770 3770 
Q 2525 4250 2034 4250 
z
M 2034 4750 
Q 2819 4750 3233 4129 
Q 3647 3509 3647 2328 
Q 3647 1150 3233 529 
Q 2819 -91 2034 -91 
Q 1250 -91 836 529 
Q 422 1150 422 2328 
Q 422 3509 836 4129 
Q 1250 4750 2034 4750 
z
" transform="scale(0.015625)"/>
       </defs>
       <use xlink:href="#DejaVuSans-30"/>
      </g>
     </g>
    </g>
    <g id="xtick_2">
     <g id="line2d_2">
      <g>
       <use xlink:href="#m4632dd3966" x="119.945032" y="252" style="stroke: #000000; stroke-width: 0.8"/>
      </g>
     </g>
     <g id="text_2">
      <!-- 10000 -->
      <g transform="translate(104.038782 266.598437)scale(0.1 -0.1)">
       <defs>
        <path id="DejaVuSans-31" d="M 794 531 
L 1825 531 
L 1825 4091 
L 703 3866 
L 703 4441 
L 1819 4666 
L 2450 4666 
L 2450 531 
L 3481 531 
L 3481 0 
L 794 0 
L 794 531 
z
" transform="scale(0.015625)"/>
       </defs>
       <use xlink:href="#DejaVuSans-31"/>
       <use xlink:href="#DejaVuSans-30" x="63.623047"/>
       <use xlink:href="#DejaVuSans-30" x="127.246094"/>
       <use xlink:href="#DejaVuSans-30" x="190.869141"/>
       <use xlink:href="#DejaVuSans-30" x="254.492188"/>
      </g>
     </g>
    </g>
    <g id="xtick_3">
     <g id="line2d_3">
      <g>
       <use xlink:href="#m4632dd3966" x="170.671882" y="252" style="stroke: #000000; stroke-width: 0.8"/>
      </g>
     </g>
     <g id="text_3">
      <!-- 20000 -->
      <g transform="translate(154.765632 266.598437)scale(0.1 -0.1)">
       <defs>
        <path id="DejaVuSans-32" d="M 1228 531 
L 3431 531 
L 3431 0 
L 469 0 
L 469 531 
Q 828 903 1448 1529 
Q 2069 2156 2228 2338 
Q 2531 2678 2651 2914 
Q 2772 3150 2772 3378 
Q 2772 3750 2511 3984 
Q 2250 4219 1831 4219 
Q 1534 4219 1204 4116 
Q 875 4013 500 3803 
L 500 4441 
Q 881 4594 1212 4672 
Q 1544 4750 1819 4750 
Q 2544 4750 2975 4387 
Q 3406 4025 3406 3419 
Q 3406 3131 3298 2873 
Q 3191 2616 2906 2266 
Q 2828 2175 2409 1742 
Q 1991 1309 1228 531 
z
" transform="scale(0.015625)"/>
       </defs>
       <use xlink:href="#DejaVuSans-32"/>
       <use xlink:href="#DejaVuSans-30" x="63.623047"/>
       <use xlink:href="#DejaVuSans-30" x="127.246094"/>
       <use xlink:href="#DejaVuSans-30" x="190.869141"/>
       <use xlink:href="#DejaVuSans-30" x="254.492188"/>
      </g>
     </g>
    </g>
    <g id="xtick_4">
     <g id="line2d_4">
      <g>
       <use xlink:href="#m4632dd3966" x="221.398732" y="252" style="stroke: #000000; stroke-width: 0.8"/>
      </g>
     </g>
     <g id="text_4">
      <!-- 30000 -->
      <g transform="translate(205.492482 266.598437)scale(0.1 -0.1)">
       <defs>
        <path id="DejaVuSans-33" d="M 2597 2516 
Q 3050 2419 3304 2112 
Q 3559 1806 3559 1356 
Q 3559 666 3084 287 
Q 2609 -91 1734 -91 
Q 1441 -91 1130 -33 
Q 819 25 488 141 
L 488 750 
Q 750 597 1062 519 
Q 1375 441 1716 441 
Q 2309 441 2620 675 
Q 2931 909 2931 1356 
Q 2931 1769 2642 2001 
Q 2353 2234 1838 2234 
L 1294 2234 
L 1294 2753 
L 1863 2753 
Q 2328 2753 2575 2939 
Q 2822 3125 2822 3475 
Q 2822 3834 2567 4026 
Q 2313 4219 1838 4219 
Q 1578 4219 1281 4162 
Q 984 4106 628 3988 
L 628 4550 
Q 988 4650 1302 4700 
Q 1616 4750 1894 4750 
Q 2613 4750 3031 4423 
Q 3450 4097 3450 3541 
Q 3450 3153 3228 2886 
Q 3006 2619 2597 2516 
z
" transform="scale(0.015625)"/>
       </defs>
       <use xlink:href="#DejaVuSans-33"/>
       <use xlink:href="#DejaVuSans-30" x="63.623047"/>
       <use xlink:href="#DejaVuSans-30" x="127.246094"/>
       <use xlink:href="#DejaVuSans-30" x="190.869141"/>
       <use xlink:href="#DejaVuSans-30" x="254.492188"/>
      </g>
     </g>
    </g>
    <g id="xtick_5">
     <g id="line2d_5">
      <g>
       <use xlink:href="#m4632dd3966" x="272.125582" y="252" style="stroke: #000000; stroke-width: 0.8"/>
      </g>
     </g>
     <g id="text_5">
      <!-- 40000 -->
      <g transform="translate(256.219332 266.598437)scale(0.1 -0.1)">
       <defs>
        <path id="DejaVuSans-34" d="M 2419 4116 
L 825 1625 
L 2419 1625 
L 2419 4116 
z
M 2253 4666 
L 3047 4666 
L 3047 1625 
L 3713 1625 
L 3713 1100 
L 3047 1100 
L 3047 0 
L 2419 0 
L 2419 1100 
L 313 1100 
L 313 1709 
L 2253 4666 
z
" transform="scale(0.015625)"/>
       </defs>
       <use xlink:href="#DejaVuSans-34"/>
       <use xlink:href="#DejaVuSans-30" x="63.623047"/>
       <use xlink:href="#DejaVuSans-30" x="127.246094"/>
       <use xlink:href="#DejaVuSans-30" x="190.869141"/>
       <use xlink:href="#DejaVuSans-30" x="254.492188"/>
      </g>
     </g>
    </g>
    <g id="xtick_6">
     <g id="line2d_6">
      <g>
       <use xlink:href="#m4632dd3966" x="322.852432" y="252" style="stroke: #000000; stroke-width: 0.8"/>
      </g>
     </g>
     <g id="text_6">
      <!-- 50000 -->
      <g transform="translate(306.946182 266.598437)scale(0.1 -0.1)">
       <defs>
        <path id="DejaVuSans-35" d="M 691 4666 
L 3169 4666 
L 3169 4134 
L 1269 4134 
L 1269 2991 
Q 1406 3038 1543 3061 
Q 1681 3084 1819 3084 
Q 2600 3084 3056 2656 
Q 3513 2228 3513 1497 
Q 3513 744 3044 326 
Q 2575 -91 1722 -91 
Q 1428 -91 1123 -41 
Q 819 9 494 109 
L 494 744 
Q 775 591 1075 516 
Q 1375 441 1709 441 
Q 2250 441 2565 725 
Q 2881 1009 2881 1497 
Q 2881 1984 2565 2268 
Q 2250 2553 1709 2553 
Q 1456 2553 1204 2497 
Q 953 2441 691 2322 
L 691 4666 
z
" transform="scale(0.015625)"/>
       </defs>
       <use xlink:href="#DejaVuSans-35"/>
       <use xlink:href="#DejaVuSans-30" x="63.623047"/>
       <use xlink:href="#DejaVuSans-30" x="127.246094"/>
       <use xlink:href="#DejaVuSans-30" x="190.869141"/>
       <use xlink:href="#DejaVuSans-30" x="254.492188"/>
      </g>
     </g>
    </g>
    <g id="xtick_7">
     <g id="line2d_7">
      <g>
       <use xlink:href="#m4632dd3966" x="373.579282" y="252" style="stroke: #000000; stroke-width: 0.8"/>
      </g>
     </g>
     <g id="text_7">
      <!-- 60000 -->
      <g transform="translate(357.673032 266.598437)scale(0.1 -0.1)">
       <defs>
        <path id="DejaVuSans-36" d="M 2113 2584 
Q 1688 2584 1439 2293 
Q 1191 2003 1191 1497 
Q 1191 994 1439 701 
Q 1688 409 2113 409 
Q 2538 409 2786 701 
Q 3034 994 3034 1497 
Q 3034 2003 2786 2293 
Q 2538 2584 2113 2584 
z
M 3366 4563 
L 3366 3988 
Q 3128 4100 2886 4159 
Q 2644 4219 2406 4219 
Q 1781 4219 1451 3797 
Q 1122 3375 1075 2522 
Q 1259 2794 1537 2939 
Q 1816 3084 2150 3084 
Q 2853 3084 3261 2657 
Q 3669 2231 3669 1497 
Q 3669 778 3244 343 
Q 2819 -91 2113 -91 
Q 1303 -91 875 529 
Q 447 1150 447 2328 
Q 447 3434 972 4092 
Q 1497 4750 2381 4750 
Q 2619 4750 2861 4703 
Q 3103 4656 3366 4563 
z
" transform="scale(0.015625)"/>
       </defs>
       <use xlink:href="#DejaVuSans-36"/>
       <use xlink:href="#DejaVuSans-30" x="63.623047"/>
       <use xlink:href="#DejaVuSans-30" x="127.246094"/>
       <use xlink:href="#DejaVuSans-30" x="190.869141"/>
       <use xlink:href="#DejaVuSans-30" x="254.492188"/>
      </g>
     </g>
    </g>
    <g id="text_8">
     <!-- Time(ms) -->
     <g transform="translate(197.789844 280.276563)scale(0.1 -0.1)">
      <defs>
       <path id="DejaVuSans-54" d="M -19 4666 
L 3928 4666 
L 3928 4134 
L 2272 4134 
L 2272 0 
L 1638 0 
L 1638 4134 
L -19 4134 
L -19 4666 
z
" transform="scale(0.015625)"/>
       <path id="DejaVuSans-69" d="M 603 3500 
L 1178 3500 
L 1178 0 
L 603 0 
L 603 3500 
z
M 603 4863 
L 1178 4863 
L 1178 4134 
L 603 4134 
L 603 4863 
z
" transform="scale(0.015625)"/>
       <path id="DejaVuSans-6d" d="M 3328 2828 
Q 3544 3216 3844 3400 
Q 4144 3584 4550 3584 
Q 5097 3584 5394 3201 
Q 5691 2819 5691 2113 
L 5691 0 
L 5113 0 
L 5113 2094 
Q 5113 2597 4934 2840 
Q 4756 3084 4391 3084 
Q 3944 3084 3684 2787 
Q 3425 2491 3425 1978 
L 3425 0 
L 2847 0 
L 2847 2094 
Q 2847 2600 2669 2842 
Q 2491 3084 2119 3084 
Q 1678 3084 1418 2786 
Q 1159 2488 1159 1978 
L 1159 0 
L 581 0 
L 581 3500 
L 1159 3500 
L 1159 2956 
Q 1356 3278 1631 3431 
Q 1906 3584 2284 3584 
Q 2666 3584 2933 3390 
Q 3200 3197 3328 2828 
z
" transform="scale(0.015625)"/>
       <path id="DejaVuSans-65" d="M 3597 1894 
L 3597 1613 
L 953 1613 
Q 991 1019 1311 708 
Q 1631 397 2203 397 
Q 2534 397 2845 478 
Q 3156 559 3463 722 
L 3463 178 
Q 3153 47 2828 -22 
Q 2503 -91 2169 -91 
Q 1331 -91 842 396 
Q 353 884 353 1716 
Q 353 2575 817 3079 
Q 1281 3584 2069 3584 
Q 2775 3584 3186 3129 
Q 3597 2675 3597 1894 
z
M 3022 2063 
Q 3016 2534 2758 2815 
Q 2500 3097 2075 3097 
Q 1594 3097 1305 2825 
Q 1016 2553 972 2059 
L 3022 2063 
z
" transform="scale(0.015625)"/>
       <path id="DejaVuSans-28" d="M 1984 4856 
Q 1566 4138 1362 3434 
Q 1159 2731 1159 2009 
Q 1159 1288 1364 580 
Q 1569 -128 1984 -844 
L 1484 -844 
Q 1016 -109 783 600 
Q 550 1309 550 2009 
Q 550 2706 781 3412 
Q 1013 4119 1484 4856 
L 1984 4856 
z
" transform="scale(0.015625)"/>
       <path id="DejaVuSans-73" d="M 2834 3397 
L 2834 2853 
Q 2591 2978 2328 3040 
Q 2066 3103 1784 3103 
Q 1356 3103 1142 2972 
Q 928 2841 928 2578 
Q 928 2378 1081 2264 
Q 1234 2150 1697 2047 
L 1894 2003 
Q 2506 1872 2764 1633 
Q 3022 1394 3022 966 
Q 3022 478 2636 193 
Q 2250 -91 1575 -91 
Q 1294 -91 989 -36 
Q 684 19 347 128 
L 347 722 
Q 666 556 975 473 
Q 1284 391 1588 391 
Q 1994 391 2212 530 
Q 2431 669 2431 922 
Q 2431 1156 2273 1281 
Q 2116 1406 1581 1522 
L 1381 1569 
Q 847 1681 609 1914 
Q 372 2147 372 2553 
Q 372 3047 722 3315 
Q 1072 3584 1716 3584 
Q 2034 3584 2315 3537 
Q 2597 3491 2834 3397 
z
" transform="scale(0.015625)"/>
       <path id="DejaVuSans-29" d="M 513 4856 
L 1013 4856 
Q 1481 4119 1714 3412 
Q 1947 2706 1947 2009 
Q 1947 1309 1714 600 
Q 1481 -109 1013 -844 
L 513 -844 
Q 928 -128 1133 580 
Q 1338 1288 1338 2009 
Q 1338 2731 1133 3434 
Q 928 4138 513 4856 
z
" transform="scale(0.015625)"/>
      </defs>
      <use xlink:href="#DejaVuSans-54"/>
      <use xlink:href="#DejaVuSans-69" x="57.958984"/>
      <use xlink:href="#DejaVuSans-6d" x="85.742188"/>
      <use xlink:href="#DejaVuSans-65" x="183.154297"/>
      <use xlink:href="#DejaVuSans-28" x="244.677734"/>
      <use xlink:href="#DejaVuSans-6d" x="283.691406"/>
      <use xlink:href="#DejaVuSans-73" x="381.103516"/>
      <use xlink:href="#DejaVuSans-29" x="433.203125"/>
     </g>
    </g>
   </g>
   <g id="matplotlib.axis_2">
    <g id="ytick_1">
     <g id="line2d_8">
      <defs>
       <path id="m85e0ab2ffa" d="M 0 0 
L -3.5 0 
" style="stroke: #000000; stroke-width: 0.8"/>
      </defs>
      <g>
       <use xlink:href="#m85e0ab2ffa" x="54" y="252" style="stroke: #000000; stroke-width: 0.8"/>
      </g>
     </g>
     <g id="text_9">
      <!-- −100 -->
      <g transform="translate(19.532812 255.799219)scale(0.1 -0.1)">
       <defs>
        <path id="DejaVuSans-2212" d="M 678 2272 
L 4684 2272 
L 4684 1741 
L 678 1741 
L 678 2272 
z
" transform="scale(0.015625)"/>
       </defs>
       <use xlink:href="#DejaVuSans-2212"/>
       <use xlink:href="#DejaVuSans-31" x="83.789062"/>
       <use xlink:href="#DejaVuSans-30" x="147.412109"/>
       <use xlink:href="#DejaVuSans-30" x="211.035156"/>
      </g>
     </g>
    </g>
    <g id="ytick_2">
     <g id="line2d_9">
      <g>
       <use xlink:href="#m85e0ab2ffa" x="54" y="220.937143" style="stroke: #000000; stroke-width: 0.8"/>
      </g>
     </g>
     <g id="text_10">
      <!-- −80 -->
      <g transform="translate(25.895312 224.736362)scale(0.1 -0.1)">
       <defs>
        <path id="DejaVuSans-38" d="M 2034 2216 
Q 1584 2216 1326 1975 
Q 1069 1734 1069 1313 
Q 1069 891 1326 650 
Q 1584 409 2034 409 
Q 2484 409 2743 651 
Q 3003 894 3003 1313 
Q 3003 1734 2745 1975 
Q 2488 2216 2034 2216 
z
M 1403 2484 
Q 997 2584 770 2862 
Q 544 3141 544 3541 
Q 544 4100 942 4425 
Q 1341 4750 2034 4750 
Q 2731 4750 3128 4425 
Q 3525 4100 3525 3541 
Q 3525 3141 3298 2862 
Q 3072 2584 2669 2484 
Q 3125 2378 3379 2068 
Q 3634 1759 3634 1313 
Q 3634 634 3220 271 
Q 2806 -91 2034 -91 
Q 1263 -91 848 271 
Q 434 634 434 1313 
Q 434 1759 690 2068 
Q 947 2378 1403 2484 
z
M 1172 3481 
Q 1172 3119 1398 2916 
Q 1625 2713 2034 2713 
Q 2441 2713 2670 2916 
Q 2900 3119 2900 3481 
Q 2900 3844 2670 4047 
Q 2441 4250 2034 4250 
Q 1625 4250 1398 4047 
Q 1172 3844 1172 3481 
z
" transform="scale(0.015625)"/>
       </defs>
       <use xlink:href="#DejaVuSans-2212"/>
       <use xlink:href="#DejaVuSans-38" x="83.789062"/>
       <use xlink:href="#DejaVuSans-30" x="147.412109"/>
      </g>
     </g>
    </g>
    <g id="ytick_3">
     <g id="line2d_10">
      <g>
       <use xlink:href="#m85e0ab2ffa" x="54" y="189.874286" style="stroke: #000000; stroke-width: 0.8"/>
      </g>
     </g>
     <g id="text_11">
      <!-- −60 -->
      <g transform="translate(25.895312 193.673504)scale(0.1 -0.1)">
       <use xlink:href="#DejaVuSans-2212"/>
       <use xlink:href="#DejaVuSans-36" x="83.789062"/>
       <use xlink:href="#DejaVuSans-30" x="147.412109"/>
      </g>
     </g>
    </g>
    <g id="ytick_4">
     <g id="line2d_11">
      <g>
       <use xlink:href="#m85e0ab2ffa" x="54" y="158.811429" style="stroke: #000000; stroke-width: 0.8"/>
      </g>
     </g>
     <g id="text_12">
      <!-- −40 -->
      <g transform="translate(25.895312 162.610647)scale(0.1 -0.1)">
       <use xlink:href="#DejaVuSans-2212"/>
       <use xlink:href="#DejaVuSans-34" x="83.789062"/>
       <use xlink:href="#DejaVuSans-30" x="147.412109"/>
      </g>
     </g>
    </g>
    <g id="ytick_5">
     <g id="line2d_12">
      <g>
       <use xlink:href="#m85e0ab2ffa" x="54" y="127.748571" style="stroke: #000000; stroke-width: 0.8"/>
      </g>
     </g>
     <g id="text_13">
      <!-- −20 -->
      <g transform="translate(25.895312 131.54779)scale(0.1 -0.1)">
       <use xlink:href="#DejaVuSans-2212"/>
       <use xlink:href="#DejaVuSans-32" x="83.789062"/>
       <use xlink:href="#DejaVuSans-30" x="147.412109"/>
      </g>
     </g>
    </g>
    <g id="ytick_6">
     <g id="line2d_13">
      <g>
       <use xlink:href="#m85e0ab2ffa" x="54" y="96.685714" style="stroke: #000000; stroke-width: 0.8"/>
      </g>
     </g>
     <g id="text_14">
      <!-- 0 -->
      <g transform="translate(40.6375 100.484933)scale(0.1 -0.1)">
       <use xlink:href="#DejaVuSans-30"/>
      </g>
     </g>
    </g>
    <g id="ytick_7">
     <g id="line2d_14">
      <g>
       <use xlink:href="#m85e0ab2ffa" x="54" y="65.622857" style="stroke: #000000; stroke-width: 0.8"/>
      </g>
     </g>
     <g id="text_15">
      <!-- 20 -->
      <g transform="translate(34.275 69.422076)scale(0.1 -0.1)">
       <use xlink:href="#DejaVuSans-32"/>
       <use xlink:href="#DejaVuSans-30" x="63.623047"/>
      </g>
     </g>
    </g>
    <g id="ytick_8">
     <g id="line2d_15">
      <g>
       <use xlink:href="#m85e0ab2ffa" x="54" y="34.56" style="stroke: #000000; stroke-width: 0.8"/>
      </g>
     </g>
     <g id="text_16">
      <!-- 40 -->
      <g transform="translate(34.275 38.359219)scale(0.1 -0.1)">
       <use xlink:href="#DejaVuSans-34"/>
       <use xlink:href="#DejaVuSans-30" x="63.623047"/>
      </g>
     </g>
    </g>
    <g id="text_17">
     <!-- Membrane potential (mV) -->
     <g transform="translate(13.453125 207.691719)rotate(-90)scale(0.1 -0.1)">
      <defs>
       <path id="DejaVuSans-4d" d="M 628 4666 
L 1569 4666 
L 2759 1491 
L 3956 4666 
L 4897 4666 
L 4897 0 
L 4281 0 
L 4281 4097 
L 3078 897 
L 2444 897 
L 1241 4097 
L 1241 0 
L 628 0 
L 628 4666 
z
" transform="scale(0.015625)"/>
       <path id="DejaVuSans-62" d="M 3116 1747 
Q 3116 2381 2855 2742 
Q 2594 3103 2138 3103 
Q 1681 3103 1420 2742 
Q 1159 2381 1159 1747 
Q 1159 1113 1420 752 
Q 1681 391 2138 391 
Q 2594 391 2855 752 
Q 3116 1113 3116 1747 
z
M 1159 2969 
Q 1341 3281 1617 3432 
Q 1894 3584 2278 3584 
Q 2916 3584 3314 3078 
Q 3713 2572 3713 1747 
Q 3713 922 3314 415 
Q 2916 -91 2278 -91 
Q 1894 -91 1617 61 
Q 1341 213 1159 525 
L 1159 0 
L 581 0 
L 581 4863 
L 1159 4863 
L 1159 2969 
z
" transform="scale(0.015625)"/>
       <path id="DejaVuSans-72" d="M 2631 2963 
Q 2534 3019 2420 3045 
Q 2306 3072 2169 3072 
Q 1681 3072 1420 2755 
Q 1159 2438 1159 1844 
L 1159 0 
L 581 0 
L 581 3500 
L 1159 3500 
L 1159 2956 
Q 1341 3275 1631 3429 
Q 1922 3584 2338 3584 
Q 2397 3584 2469 3576 
Q 2541 3569 2628 3553 
L 2631 2963 
z
" transform="scale(0.015625)"/>
       <path id="DejaVuSans-61" d="M 2194 1759 
Q 1497 1759 1228 1600 
Q 959 1441 959 1056 
Q 959 750 1161 570 
Q 1363 391 1709 391 
Q 2188 391 2477 730 
Q 2766 1069 2766 1631 
L 2766 1759 
L 2194 1759 
z
M 3341 1997 
L 3341 0 
L 2766 0 
L 2766 531 
Q 2569 213 2275 61 
Q 1981 -91 1556 -91 
Q 1019 -91 701 211 
Q 384 513 384 1019 
Q 384 1609 779 1909 
Q 1175 2209 1959 2209 
L 2766 2209 
L 2766 2266 
Q 2766 2663 2505 2880 
Q 2244 3097 1772 3097 
Q 1472 3097 1187 3025 
Q 903 2953 641 2809 
L 641 3341 
Q 956 3463 1253 3523 
Q 1550 3584 1831 3584 
Q 2591 3584 2966 3190 
Q 3341 2797 3341 1997 
z
" transform="scale(0.015625)"/>
       <path id="DejaVuSans-6e" d="M 3513 2113 
L 3513 0 
L 2938 0 
L 2938 2094 
Q 2938 2591 2744 2837 
Q 2550 3084 2163 3084 
Q 1697 3084 1428 2787 
Q 1159 2491 1159 1978 
L 1159 0 
L 581 0 
L 581 3500 
L 1159 3500 
L 1159 2956 
Q 1366 3272 1645 3428 
Q 1925 3584 2291 3584 
Q 2894 3584 3203 3211 
Q 3513 2838 3513 2113 
z
" transform="scale(0.015625)"/>
       <path id="DejaVuSans-20" transform="scale(0.015625)"/>
       <path id="DejaVuSans-70" d="M 1159 525 
L 1159 -1331 
L 581 -1331 
L 581 3500 
L 1159 3500 
L 1159 2969 
Q 1341 3281 1617 3432 
Q 1894 3584 2278 3584 
Q 2916 3584 3314 3078 
Q 3713 2572 3713 1747 
Q 3713 922 3314 415 
Q 2916 -91 2278 -91 
Q 1894 -91 1617 61 
Q 1341 213 1159 525 
z
M 3116 1747 
Q 3116 2381 2855 2742 
Q 2594 3103 2138 3103 
Q 1681 3103 1420 2742 
Q 1159 2381 1159 1747 
Q 1159 1113 1420 752 
Q 1681 391 2138 391 
Q 2594 391 2855 752 
Q 3116 1113 3116 1747 
z
" transform="scale(0.015625)"/>
       <path id="DejaVuSans-6f" d="M 1959 3097 
Q 1497 3097 1228 2736 
Q 959 2375 959 1747 
Q 959 1119 1226 758 
Q 1494 397 1959 397 
Q 2419 397 2687 759 
Q 2956 1122 2956 1747 
Q 2956 2369 2687 2733 
Q 2419 3097 1959 3097 
z
M 1959 3584 
Q 2709 3584 3137 3096 
Q 3566 2609 3566 1747 
Q 3566 888 3137 398 
Q 2709 -91 1959 -91 
Q 1206 -91 779 398 
Q 353 888 353 1747 
Q 353 2609 779 3096 
Q 1206 3584 1959 3584 
z
" transform="scale(0.015625)"/>
       <path id="DejaVuSans-74" d="M 1172 4494 
L 1172 3500 
L 2356 3500 
L 2356 3053 
L 1172 3053 
L 1172 1153 
Q 1172 725 1289 603 
Q 1406 481 1766 481 
L 2356 481 
L 2356 0 
L 1766 0 
Q 1100 0 847 248 
Q 594 497 594 1153 
L 594 3053 
L 172 3053 
L 172 3500 
L 594 3500 
L 594 4494 
L 1172 4494 
z
" transform="scale(0.015625)"/>
       <path id="DejaVuSans-6c" d="M 603 4863 
L 1178 4863 
L 1178 0 
L 603 0 
L 603 4863 
z
" transform="scale(0.015625)"/>
       <path id="DejaVuSans-56" d="M 1831 0 
L 50 4666 
L 709 4666 
L 2188 738 
L 3669 4666 
L 4325 4666 
L 2547 0 
L 1831 0 
z
" transform="scale(0.015625)"/>
      </defs>
      <use xlink:href="#DejaVuSans-4d"/>
      <use xlink:href="#DejaVuSans-65" x="86.279297"/>
      <use xlink:href="#DejaVuSans-6d" x="147.802734"/>
      <use xlink:href="#DejaVuSans-62" x="245.214844"/>
      <use xlink:href="#DejaVuSans-72" x="308.691406"/>
      <use xlink:href="#DejaVuSans-61" x="349.804688"/>
      <use xlink:href="#DejaVuSans-6e" x="411.083984"/>
      <use xlink:href="#DejaVuSans-65" x="474.462891"/>
      <use xlink:href="#DejaVuSans-20" x="535.986328"/>
      <use xlink:href="#DejaVuSans-70" x="567.773438"/>
      <use xlink:href="#DejaVuSans-6f" x="631.25"/>
      <use xlink:href="#DejaVuSans-74" x="692.431641"/>
      <use xlink:href="#DejaVuSans-65" x="731.640625"/>
      <use xlink:href="#DejaVuSans-6e" x="793.164062"/>
      <use xlink:href="#DejaVuSans-74" x="856.542969"/>
      <use xlink:href="#DejaVuSans-69" x="895.751953"/>
      <use xlink:href="#DejaVuSans-61" x="923.535156"/>
      <use xlink:href="#DejaVuSans-6c" x="984.814453"/>
      <use xlink:href="#DejaVuSans-20" x="1012.597656"/>
      <use xlink:href="#DejaVuSans-28" x="1044.384766"/>
      <use xlink:href="#DejaVuSans-6d" x="1083.398438"/>
      <use xlink:href="#DejaVuSans-56" x="1180.810547"/>
      <use xlink:href="#DejaVuSans-29" x="1249.21875"/>
     </g>
    </g>
   </g>
   <g id="line2d_16">
    <path d="M 69.218182 230.256 
L 69.268909 229.529696 
L 69.337391 229.91275 
L 69.941045 234.259597 
L 69.948655 234.258591 
L 70.179464 234.333107 
L 70.415345 234.788707 
L 70.529482 235.02801 
L 70.587818 234.925842 
L 70.942909 234.279892 
L 71.100164 234.437379 
L 71.417209 235.164723 
L 72.378491 237.434919 
L 72.421609 237.426528 
L 72.457118 237.358992 
L 73.053164 236.152628 
L 73.415864 236.158193 
L 73.803927 235.369193 
L 73.986545 235.42441 
L 74.270618 235.80844 
L 74.762673 236.607259 
L 74.815936 236.527168 
L 74.950364 235.807203 
L 75.247118 233.093251 
L 75.523582 231.544105 
L 75.703664 231.398394 
L 75.7062 231.399541 
L 75.863455 231.595608 
L 76.165282 232.417086 
L 77.623691 236.843872 
L 78.163936 237.611997 
L 78.737155 238.049343 
L 78.790418 237.966475 
L 78.792955 237.957857 
L 79.409291 236.190452 
L 79.629955 236.309021 
L 79.987582 236.643081 
L 80.043382 236.543996 
L 80.928573 234.763804 
L 81.121336 234.779742 
L 81.374973 235.082579 
L 82.016673 236.330006 
L 82.706564 237.423923 
L 82.873964 237.547034 
L 82.909473 237.500724 
L 83.089555 236.948083 
L 83.472545 235.173172 
L 84.002645 232.290708 
L 84.157364 232.301362 
L 84.317155 232.520667 
L 84.365345 232.352851 
L 84.915736 229.891394 
L 84.969 229.927764 
L 85.128791 230.281438 
L 85.504173 231.800508 
L 86.409655 235.390878 
L 86.962582 236.689104 
L 87.497755 237.412432 
L 88.083655 237.837927 
L 88.8471 238.103554 
L 89.625764 238.172365 
L 89.800773 237.558805 
L 90.155864 236.624078 
L 90.406964 236.482507 
L 90.678355 236.605015 
L 90.9954 236.84828 
L 91.041055 236.74854 
L 91.289618 235.659674 
L 91.708118 233.707781 
L 91.895809 233.622293 
L 92.086036 233.833599 
L 92.476636 234.688855 
L 92.806364 235.299326 
L 92.834264 235.283331 
L 93.174136 234.895562 
L 93.721991 233.54384 
L 93.820909 233.335881 
L 94.181073 232.560932 
L 94.333255 232.651524 
L 94.579282 233.137997 
L 95.621727 235.821967 
L 95.720645 235.730822 
L 96.149291 235.360343 
L 96.395318 235.474862 
L 96.801136 235.965547 
L 96.968536 236.165204 
L 97.016727 236.087053 
L 97.531609 235.147292 
L 97.706618 235.039123 
L 98.1657 233.971872 
L 98.338173 234.07691 
L 98.637464 234.593153 
L 99.913255 237.02824 
L 100.511836 237.592416 
L 100.5651 237.579487 
L 100.593 237.52103 
L 100.694455 236.913574 
L 101.133245 234.192492 
L 101.348836 233.958275 
L 101.523845 234.08011 
L 101.838355 234.645313 
L 102.299973 235.439035 
L 102.320264 235.428136 
L 102.812318 235.251231 
L 103.109073 235.529688 
L 103.700045 236.209554 
L 103.748236 236.162857 
L 104.240291 235.775063 
L 104.608064 235.682105 
L 105.018955 234.749759 
L 105.214255 234.764604 
L 105.4755 235.068744 
L 107.248418 237.627796 
L 107.334655 237.622802 
L 107.360018 237.57553 
L 107.618727 236.705064 
L 107.900264 236.223533 
L 108.126 236.21097 
L 108.450655 236.466636 
L 109.340918 237.346161 
L 109.384036 237.273176 
L 110.086609 235.863034 
L 110.347855 236.016088 
L 110.928682 236.70083 
L 111.717491 237.496999 
L 112.425136 237.889702 
L 113.310327 238.117842 
L 113.383882 237.864249 
L 113.837891 236.150555 
L 114.050945 236.069736 
L 114.307118 236.254066 
L 116.080036 237.951181 
L 116.452882 238.006245 
L 116.6634 237.428359 
L 117.013418 236.73866 
L 117.269591 236.651325 
L 117.469964 236.569889 
L 117.655118 235.705799 
L 118.055864 233.706088 
L 118.243555 233.604967 
L 118.426173 233.809873 
L 118.804091 234.659047 
L 119.724791 236.718776 
L 119.778055 236.567755 
L 120.196555 235.183381 
L 120.3741 235.202611 
L 120.640418 235.528813 
L 121.426691 236.787442 
L 121.4901 236.665849 
L 122.007518 235.484698 
L 122.207891 235.583779 
L 122.5782 236.088415 
L 123.131127 236.902934 
L 123.169173 236.825394 
L 123.3036 235.952519 
L 123.658691 234.016911 
L 123.864136 233.825058 
L 124.036609 233.972885 
L 124.287709 234.380377 
L 124.351118 234.234529 
L 124.817809 232.991696 
L 124.972527 233.130385 
L 125.076518 233.269003 
L 125.127245 233.166624 
L 125.294645 232.328911 
L 125.5914 230.635445 
L 125.705536 230.591229 
L 125.733436 230.615632 
L 125.900836 230.964114 
L 126.281291 231.733713 
L 126.474055 231.809262 
L 126.689645 232.235314 
L 127.199455 233.903508 
L 127.940073 236.044773 
L 128.500609 237.020124 
L 129.066218 237.576361 
L 129.2742 237.642388 
L 129.294491 237.60725 
L 129.418773 237.106907 
L 130.052864 231.790597 
L 130.192364 231.826138 
L 130.392736 232.208189 
L 130.859427 233.714677 
L 131.660918 236.102196 
L 131.714182 236.133876 
L 131.764909 236.067961 
L 132.244282 235.406857 
L 132.467482 235.536328 
L 132.885982 236.109165 
L 133.720445 237.238976 
L 133.730591 237.226499 
L 133.804145 236.875453 
L 134.349464 233.522624 
L 134.509255 233.522014 
L 134.717236 233.833071 
L 135.252409 235.175777 
L 135.9702 236.725458 
L 136.201009 237.012302 
L 136.241591 236.964224 
L 136.883291 236.102427 
L 137.159755 236.274386 
L 137.928273 237.146251 
L 138.643527 237.745284 
L 139.391755 238.075294 
L 140.4621 238.281486 
L 142.214727 238.38443 
L 142.333936 237.654995 
L 142.643373 236.283855 
L 142.813309 235.713384 
L 143.145573 234.713455 
L 143.338336 234.664013 
L 143.556464 234.894987 
L 144.045982 235.839383 
L 144.743482 237.038566 
L 144.748555 237.035729 
L 144.8424 236.832217 
L 145.240609 235.178049 
L 145.529755 233.628538 
L 145.7073 233.521882 
L 145.882309 233.738083 
L 146.277982 234.685326 
L 147.1302 236.639899 
L 147.231655 236.759364 
L 147.277309 236.681069 
L 147.411736 235.912462 
L 148.271564 230.431006 
L 148.296927 230.439146 
L 148.446573 230.638683 
L 148.733182 231.488757 
L 150.026727 235.751521 
L 150.237245 235.611786 
L 150.513709 235.552623 
L 150.797782 235.755715 
L 151.241645 236.311032 
L 151.284764 236.113297 
L 151.459773 234.244179 
L 151.723555 232.484439 
L 151.883345 232.340609 
L 151.898564 232.348309 
L 152.058355 232.575302 
L 152.418518 233.584046 
L 153.341755 236.145452 
L 153.557345 236.462055 
L 153.600464 236.425068 
L 154.145782 235.945624 
L 154.429855 236.129356 
L 154.543991 236.203069 
L 154.582036 236.127474 
L 155.051264 234.444902 
L 155.297291 232.782207 
L 155.556 231.922664 
L 155.733545 231.898374 
L 156.248427 231.733246 
L 156.565473 231.026618 
L 156.6999 231.154892 
L 156.943391 231.786814 
L 157.524218 233.822725 
L 157.595236 233.560896 
L 158.013736 231.636657 
L 158.155773 231.67171 
L 158.356145 232.057147 
L 158.835518 233.606111 
L 159.621791 235.922133 
L 160.184864 236.920729 
L 160.230518 236.941568 
L 160.276173 236.862221 
L 160.8291 235.752501 
L 161.054836 235.847962 
L 161.4708 236.333506 
L 162.421936 237.424395 
L 162.627382 237.528925 
L 162.657818 237.476138 
L 162.883555 236.683193 
L 163.180309 236.08525 
L 163.413655 236.032487 
L 163.614027 236.118401 
L 163.639391 235.992647 
L 164.019845 234.33053 
L 164.1771 234.347442 
L 164.407909 234.687191 
L 165.9348 237.389779 
L 166.551136 237.841165 
L 167.322191 238.117921 
L 168.580227 238.30171 
L 169.272655 238.254169 
L 169.9524 236.236 
L 170.183209 236.340225 
L 170.660045 236.877503 
L 171.106445 237.35594 
L 171.139418 237.297521 
L 171.248482 236.671707 
L 171.786191 232.272002 
L 172.0449 231.553823 
L 172.831173 225.01507 
L 172.957991 224.877125 
L 172.990964 224.901238 
L 173.130464 225.211824 
L 173.412 226.504507 
L 174.259145 231.391755 
L 174.365673 231.204116 
L 174.522927 230.398553 
L 174.824755 229.256897 
L 174.969327 229.252789 
L 174.9744 229.257687 
L 175.134191 229.422253 
L 175.192527 229.322597 
L 175.443627 229.029929 
L 175.4487 229.032388 
L 175.593273 229.232575 
L 175.862127 230.078872 
L 176.894427 233.64712 
L 177.219082 233.890255 
L 177.2622 233.82293 
L 178.193045 232.280354 
L 178.398491 232.505512 
L 178.560818 232.697335 
L 178.611545 232.643827 
L 178.956491 232.357146 
L 179.144182 232.54976 
L 179.473909 233.2842 
L 180.194236 235.180175 
L 180.255109 235.064953 
L 180.354027 234.346457 
L 180.965291 229.379492 
L 181.120009 229.313511 
L 181.130155 229.320427 
L 181.282336 229.298941 
L 181.566409 229.158544 
L 181.741418 229.403112 
L 182.043245 230.29382 
L 183.0375 233.983978 
L 183.138955 233.830903 
L 183.377373 233.087307 
L 183.592964 231.816843 
L 183.983564 228.643943 
L 184.211836 228.161737 
L 184.346264 228.242927 
L 184.546636 228.454975 
L 184.597364 228.406678 
L 184.8231 228.319987 
L 184.985427 228.594747 
L 185.287255 229.649609 
L 185.540891 230.51024 
L 185.591618 230.455102 
L 185.723509 229.999394 
L 185.972073 226.618395 
L 186.375355 221.307387 
L 186.682255 219.766106 
L 186.796391 219.705511 
L 186.826827 219.732509 
L 186.973936 220.076251 
L 187.126118 220.53212 
L 187.179382 220.382537 
L 187.465991 218.175455 
L 188.079791 214.472622 
L 188.242118 214.523829 
L 188.275091 214.544929 
L 188.308064 214.438588 
L 188.706273 213.020974 
L 188.8407 213.160368 
L 188.893964 213.215791 
L 188.939618 213.112345 
L 189.380945 211.748816 
L 189.416455 211.767551 
L 189.568636 212.027688 
L 189.827345 212.999045 
L 189.936409 213.30196 
L 189.9846 213.218121 
L 190.136782 212.355076 
L 191.270536 203.171414 
L 191.399891 203.226974 
L 191.577436 203.650181 
L 191.790491 204.313653 
L 191.864045 204.22916 
L 192.028909 204.125875 
L 192.051736 204.143966 
L 192.231818 204.171519 
L 192.239427 204.162086 
L 192.371318 203.787026 
L 192.840545 202.031095 
L 192.893809 202.067778 
L 193.043455 202.406692 
L 193.309773 203.672696 
L 193.794218 207.248015 
L 194.7834 214.602436 
L 195.366764 218.131054 
L 195.929836 221.428616 
L 196.274782 222.390263 
L 196.995109 224.70793 
L 197.066127 224.420777 
L 197.406 222.924259 
L 197.522673 222.980751 
L 198.085745 223.628697 
L 198.273436 223.656 
L 198.440836 224.066668 
L 198.765491 225.595679 
L 199.579664 229.509353 
L 199.754673 229.540612 
L 200.033673 229.479487 
L 200.122445 229.425337 
L 200.130055 229.410501 
L 200.368473 228.669758 
L 200.967055 226.710637 
L 201.208009 226.493615 
L 201.365264 226.64582 
L 201.616364 227.275496 
L 202.039936 228.265101 
L 202.045009 228.262969 
L 202.123636 228.09558 
L 202.544673 226.900163 
L 202.564964 226.908611 
L 202.709536 227.118582 
L 202.980927 228.001562 
L 203.680964 230.366572 
L 203.744373 230.346949 
L 203.772273 230.296552 
L 204.0741 229.859668 
L 204.091855 229.869734 
L 204.162873 229.894758 
L 204.198382 229.81006 
L 204.5205 229.102056 
L 204.538255 229.109803 
L 204.685364 229.323613 
L 204.758918 229.415681 
L 204.812182 229.336651 
L 205.065818 228.50899 
L 205.319455 227.63069 
L 205.438664 227.688733 
L 205.628891 228.066862 
L 205.6923 227.857452 
L 206.369509 224.725067 
L 206.481109 224.835332 
L 206.681482 225.459368 
L 207.135491 227.785167 
L 207.876109 231.559058 
L 207.906545 231.496774 
L 208.302218 229.576685 
L 208.809491 226.399888 
L 209.131609 225.474487 
L 209.266036 225.528357 
L 209.453727 225.946919 
L 209.813891 227.411818 
L 210.293264 229.666643 
L 210.364282 229.511219 
L 210.772636 227.681108 
L 211.267227 225.135406 
L 211.465064 224.979328 
L 211.619782 225.168338 
L 211.883564 225.925593 
L 212.312209 227.506401 
L 212.380691 227.332017 
L 213.390164 223.047425 
L 213.590536 222.947382 
L 213.823882 221.409378 
L 214.057227 220.722515 
L 214.249991 220.553358 
L 214.501091 220.21901 
L 214.622836 220.021148 
L 214.8993 219.369535 
L 215.031191 217.413477 
L 215.4852 209.72895 
L 216.251182 204.267566 
L 216.370391 204.364338 
L 216.558082 204.904362 
L 216.900491 206.707652 
L 217.336745 208.471783 
L 217.648718 209.55184 
L 218.057073 211.964513 
L 218.823055 217.307736 
L 218.924509 217.233965 
L 219.053864 217.287382 
L 219.358227 217.831374 
L 219.459682 217.710466 
L 219.611864 217.667256 
L 219.627082 217.681405 
L 219.829991 218.051349 
L 220.294145 218.973605 
L 220.3119 218.963579 
L 220.540173 218.658718 
L 220.707573 217.821421 
L 221.224991 215.71805 
L 221.341664 215.808809 
L 221.526818 216.133346 
L 221.590227 216.015477 
L 222.003655 214.742341 
L 222.077209 214.813745 
L 222.247145 215.298773 
L 222.564191 217.013057 
L 223.274373 222.380715 
L 224.321891 229.864409 
L 224.491827 230.000411 
L 224.6922 230.171796 
L 224.963591 230.792549 
L 226.0314 234.010348 
L 226.1151 233.763652 
L 226.432145 232.879491 
L 226.599545 232.90131 
L 226.759336 233.073936 
L 226.799918 232.932806 
L 227.152473 231.761104 
L 227.294509 231.830878 
L 227.499955 232.130846 
L 227.570973 231.995009 
L 227.898164 231.474565 
L 228.172091 230.686521 
L 228.613418 229.18896 
L 228.747845 229.294631 
L 228.981191 229.850579 
L 229.564555 231.998911 
L 230.345755 234.541033 
L 230.931655 235.732045 
L 231.515018 236.437296 
L 232.177009 236.88989 
L 232.384991 236.953154 
L 232.407818 236.890361 
L 232.623409 235.709589 
L 233.097709 233.073216 
L 233.3412 232.473411 
L 233.716582 230.584646 
L 233.891591 230.501992 
L 234.061527 230.731098 
L 234.391255 231.636076 
L 235.735527 235.636938 
L 236.285918 236.489132 
L 236.367082 236.390089 
L 236.914936 235.415193 
L 237.150818 235.518514 
L 237.625118 236.042793 
L 238.254136 236.675714 
L 238.269355 236.660942 
L 238.393636 236.349823 
L 239.053091 233.90216 
L 239.245855 233.920005 
L 239.316873 233.959818 
L 239.349845 233.859436 
L 240.011836 231.348349 
L 240.029591 231.354124 
L 240.196991 231.543792 
L 240.290836 231.670905 
L 240.341564 231.58219 
L 240.711873 230.919147 
L 240.714409 230.920172 
L 240.838691 230.919714 
L 240.858982 230.867474 
L 241.186173 230.251613 
L 241.191245 230.253538 
L 241.333282 230.432396 
L 241.609745 231.23647 
L 242.984455 235.698247 
L 243.544991 236.607579 
L 244.130891 237.14759 
L 244.843609 237.494839 
L 245.376245 237.588495 
L 245.383855 237.564262 
L 245.586764 236.437517 
L 245.860691 235.626451 
L 246.071209 235.544379 
L 246.322309 235.727471 
L 248.237264 237.607787 
L 249.107236 237.891016 
L 250.580864 238.102441 
L 254.568027 238.385163 
L 255.607936 238.337993 
L 256.229345 236.232163 
L 256.444936 236.322998 
L 256.876118 236.822998 
L 257.459482 237.499167 
L 257.487382 237.438068 
L 257.593909 236.617043 
L 258.0885 232.208524 
L 258.281264 231.997849 
L 258.430909 232.161291 
L 258.714982 232.891162 
L 258.895064 233.278961 
L 258.943255 233.248329 
L 259.234936 233.142545 
L 259.437845 233.400365 
L 259.683873 233.776517 
L 259.739673 233.723643 
L 260.120127 233.073813 
L 260.421955 232.322408 
L 260.569064 232.374839 
L 260.787191 232.782763 
L 261.342655 234.456222 
L 262.057909 236.312675 
L 262.344518 236.761792 
L 262.382564 236.713366 
L 262.585473 236.067639 
L 262.899982 235.445121 
L 263.977936 233.276829 
L 264.236645 232.399549 
L 264.381218 232.423833 
L 264.584127 232.794752 
L 264.888491 233.517076 
L 264.962045 233.428056 
L 265.261336 233.133514 
L 265.436345 233.301359 
L 265.768609 234.01231 
L 265.852309 234.203783 
L 265.9005 234.061448 
L 266.227691 233.058494 
L 266.331682 232.648582 
L 266.884609 230.299481 
L 267.0723 230.073852 
L 267.077373 230.075827 
L 267.216873 230.255969 
L 267.488264 231.066435 
L 268.540855 234.858582 
L 268.614409 234.768399 
L 268.847755 234.109061 
L 269.238355 232.708365 
L 269.408291 232.69284 
L 269.6112 232.973552 
L 269.8344 233.367098 
L 269.900345 233.29288 
L 270.204709 233.023328 
L 270.384791 233.204186 
L 270.739882 233.775869 
L 270.823582 233.686621 
L 271.054391 233.212022 
L 271.3968 232.239328 
L 271.556591 232.263888 
L 271.769645 232.60454 
L 272.256627 233.922574 
L 273.065727 235.9346 
L 273.3219 236.293064 
L 273.357409 236.258898 
L 273.590755 235.742519 
L 274.014327 234.638009 
L 274.2984 233.725963 
L 274.481018 233.684546 
L 274.691536 233.933994 
L 275.168373 234.949661 
L 275.591945 235.857631 
L 275.627455 235.733155 
L 276.020591 232.996771 
L 276.248864 232.276676 
L 276.385827 232.319147 
L 276.606491 232.738419 
L 276.743455 232.782796 
L 276.7536 232.77675 
L 277.009773 232.747897 
L 277.222827 233.048922 
L 277.681909 234.196303 
L 278.536664 236.203967 
L 279.122564 237.02338 
L 279.284891 237.142831 
L 279.322936 237.078719 
L 279.979855 235.775798 
L 280.428791 235.767862 
L 280.908164 234.86957 
L 281.364709 232.911126 
L 281.542255 232.870038 
L 281.737555 233.120131 
L 282.130691 234.077543 
L 282.460418 234.936209 
L 282.516218 234.831598 
L 283.335464 232.697233 
L 283.343073 232.699992 
L 283.507936 232.885689 
L 283.842736 233.687529 
L 284.415955 235.258856 
L 284.459073 235.098539 
L 284.798945 233.842282 
L 284.948591 233.878217 
L 285.184473 234.254268 
L 285.724718 235.457998 
L 285.785591 235.232426 
L 286.381636 232.607178 
L 286.556645 232.549801 
L 286.744336 232.79975 
L 287.142545 233.803401 
L 287.523 234.55285 
L 287.999836 234.505464 
L 288.309273 234.889398 
L 288.476673 235.15465 
L 288.519791 235.015643 
L 288.8901 233.766567 
L 289.042282 233.824151 
L 289.255336 234.084426 
L 289.321282 233.959473 
L 289.661155 233.398207 
L 289.831091 233.497666 
L 289.9224 233.594702 
L 289.965518 233.491303 
L 290.325682 232.624407 
L 290.472791 232.758429 
L 290.7594 233.41171 
L 291.109418 234.225802 
L 291.157609 234.188343 
L 291.525382 233.948675 
L 291.748582 234.175226 
L 292.207664 235.047574 
L 292.791027 236.147147 
L 292.829073 236.093537 
L 293.427655 235.037611 
L 293.668609 235.23958 
L 294.244364 236.11844 
L 294.645109 236.661064 
L 294.680618 236.605278 
L 295.302027 235.429978 
L 295.550591 235.624553 
L 296.250627 236.587273 
L 296.955736 237.335928 
L 297.645627 237.743818 
L 298.548573 238.002967 
L 298.774309 237.933961 
L 299.405864 236.116496 
L 299.6316 236.190872 
L 300.047564 236.627928 
L 301.008845 237.621384 
L 301.716491 238.007013 
L 302.642264 238.241058 
L 303.819136 238.32249 
L 303.948491 237.876192 
L 304.354309 236.581636 
L 304.602873 236.414095 
L 304.711936 236.307259 
L 304.838755 235.316652 
L 305.285155 231.70628 
L 305.480455 231.478464 
L 305.627564 231.643199 
L 305.904027 232.380503 
L 306.495 234.221821 
L 306.566018 234.17638 
L 306.870382 233.785494 
L 307.200109 233.066115 
L 307.354827 233.132056 
L 307.593245 233.555637 
L 309.302755 237.21465 
L 309.3687 237.24735 
L 309.409282 237.167164 
L 309.873436 235.456552 
L 310.441582 232.059982 
L 310.692682 230.606073 
L 310.816964 230.532582 
L 310.844864 230.553818 
L 311.007191 230.86581 
L 311.255755 231.320679 
L 311.286191 231.308566 
L 311.491636 231.345506 
L 311.697082 231.701566 
L 312.003982 232.30541 
L 312.054709 232.276655 
L 312.280445 232.263227 
L 312.478282 232.569941 
L 312.901855 233.756263 
L 313.749 236.007758 
L 314.0559 236.453174 
L 314.0838 236.432491 
L 314.309536 236.052785 
L 314.616436 235.747084 
L 314.862464 235.798097 
L 315.247991 236.085282 
L 315.298718 235.937756 
L 315.894764 233.973049 
L 316.074845 234.06688 
L 316.3716 234.540245 
L 317.774209 237.074105 
L 318.005018 237.275862 
L 318.043064 237.209943 
L 318.284018 236.306612 
L 318.705055 234.679416 
L 318.900355 234.610377 
L 319.115945 234.82224 
L 319.275736 235.016826 
L 319.326464 234.933514 
L 319.854027 233.872469 
L 319.869245 233.879473 
L 320.074691 234.113183 
L 320.526164 235.065267 
L 320.845745 235.724078 
L 320.896473 235.639549 
L 320.982709 235.112056 
L 321.4215 231.935438 
L 321.6168 231.744174 
L 321.774055 231.905197 
L 322.068273 232.608638 
L 322.783527 234.670469 
L 322.859618 234.578559 
L 323.217245 234.166439 
L 323.412545 234.303717 
L 323.770173 234.901989 
L 324.693409 236.550022 
L 324.7137 236.521361 
L 324.848127 235.945455 
L 325.1322 235.130891 
L 325.324964 235.09269 
L 325.570991 235.33203 
L 326.210155 236.225375 
L 326.288782 236.111815 
L 326.575391 235.320898 
L 327.562036 228.069878 
L 327.691391 228.115532 
L 327.775091 228.109432 
L 327.802991 228.073279 
L 328.054091 227.858546 
L 328.071845 227.872387 
L 328.2291 228.164012 
L 328.274755 228.208775 
L 328.333091 228.128623 
L 328.553755 227.894464 
L 328.571509 227.906162 
L 328.716082 228.163153 
L 328.918991 228.778972 
L 329.005227 228.619852 
L 329.175164 228.43331 
L 329.197991 228.447753 
L 329.337491 228.70881 
L 329.636782 229.868436 
L 330.177027 231.825779 
L 330.428127 231.954081 
L 330.691909 232.446331 
L 331.447745 234.549291 
L 331.691236 235.067835 
L 331.739427 235.01594 
L 332.221336 234.443835 
L 332.449609 234.613382 
L 332.890936 235.206781 
L 332.9721 235.051154 
L 333.266318 233.961141 
L 333.745691 231.13219 
L 333.946064 230.879338 
L 334.179409 230.827792 
L 334.323982 230.051733 
L 334.630882 228.778254 
L 334.760236 228.769643 
L 334.772918 228.782087 
L 334.945391 229.12776 
L 335.305555 230.466928 
L 336.449455 234.88512 
L 337.012527 236.119101 
L 337.567991 236.828497 
L 338.191936 237.266716 
L 339.0264 237.564377 
L 340.416327 237.79708 
L 340.494955 237.60587 
L 341.0631 235.820299 
L 341.189918 235.624394 
L 341.605882 234.410576 
L 341.684509 234.238865 
L 342.0954 232.890655 
L 342.239973 232.984352 
L 342.498682 233.50543 
L 343.1556 235.270165 
L 343.219009 235.023374 
L 343.513227 234.031058 
L 343.667945 234.051627 
L 343.898755 234.399678 
L 345.397745 237.092856 
L 345.671673 237.312781 
L 345.704645 237.257783 
L 345.937991 236.425074 
L 346.468091 234.427573 
L 346.660855 234.401076 
L 346.891664 234.650699 
L 347.436982 235.678706 
L 348.185209 236.904174 
L 348.796473 237.489841 
L 349.384909 237.769326 
L 349.493973 237.498443 
L 349.950518 236.297272 
L 350.188936 236.224368 
L 350.480618 236.404236 
L 350.640409 236.502792 
L 350.678455 236.43463 
L 351.216164 234.859491 
L 351.7488 232.594729 
L 351.946636 232.453059 
L 352.045555 232.334111 
L 352.344845 231.976557 
L 352.504636 232.158448 
L 352.53 232.189043 
L 352.573118 232.059153 
L 352.895236 231.102649 
L 353.022055 231.230518 
L 353.268082 231.89345 
L 353.686582 233.163584 
L 353.749991 233.125116 
L 354.013773 233.058378 
L 354.224291 233.311319 
L 354.404373 233.663527 
L 354.452564 233.494779 
L 354.754391 232.537793 
L 354.888818 232.612924 
L 355.035927 232.781349 
L 355.094264 232.699914 
L 355.385945 232.404884 
L 355.685236 232.391185 
L 355.997209 231.870049 
L 356.146855 231.996155 
L 356.410636 232.595026 
L 357.288218 235.101685 
L 357.371918 234.984978 
L 357.742227 234.496643 
L 358.046591 234.350755 
L 358.442264 233.445644 
L 358.607127 233.513107 
L 358.868373 233.933553 
L 360.413018 236.850588 
L 361.029355 237.359661 
L 361.237336 237.426742 
L 361.260164 237.375706 
L 361.518873 236.311515 
L 361.939909 234.564258 
L 362.188473 233.708499 
L 362.353336 233.693461 
L 362.563855 233.983514 
L 363.172582 235.359493 
L 363.664636 236.244164 
L 363.682391 236.233188 
L 363.908127 235.908198 
L 364.182055 235.726077 
L 364.433155 235.832823 
L 364.565045 235.862165 
L 364.592945 235.817803 
L 365.1408 235.006207 
L 365.376682 235.183696 
L 365.868736 235.914938 
L 366.713345 237.071416 
L 367.311927 237.527902 
L 367.441282 237.399828 
L 368.027182 236.638528 
L 368.3214 236.667982 
L 368.785555 236.984335 
L 369.726545 237.639456 
L 369.734155 237.628801 
L 369.871118 237.201256 
L 370.238891 236.247294 
L 370.477309 236.141075 
L 370.743627 236.292618 
L 371.410691 237.021674 
L 371.463955 236.801033 
L 371.841873 235.237671 
L 372.027027 235.189909 
L 372.2553 235.424192 
L 373.581818 237.372043 
L 373.581818 237.372043 
" clip-path="url(#pbb8a4c31a7)" style="fill: none; stroke: #000000; stroke-width: 1.5; stroke-linecap: square"/>
   </g>
   <g id="line2d_17">
    <path d="M 69.218182 230.256 
L 69.291736 229.219447 
L 69.347536 229.379097 
L 69.870027 232.14591 
L 69.999382 231.966811 
L 70.217509 231.824626 
L 70.397591 232.012244 
L 70.524409 232.202117 
L 70.577673 232.09363 
L 70.978418 231.222978 
L 71.138209 231.360523 
L 71.442573 232.002773 
L 72.408927 234.2665 
L 72.4419 234.229475 
L 72.606764 233.701558 
L 72.911127 233.028422 
L 73.108964 233.016073 
L 73.360064 233.119525 
L 73.393036 233.044091 
L 73.862264 232.111539 
L 74.052491 232.207545 
L 74.377145 232.688336 
L 74.765209 233.311773 
L 74.810864 233.251312 
L 74.927536 232.673484 
L 75.214145 230.07246 
L 75.513436 228.053257 
L 75.721418 227.765619 
L 75.871064 227.885175 
L 76.127236 228.453212 
L 76.743573 230.523501 
L 77.580573 233.047757 
L 78.179155 234.184592 
L 78.749836 234.823071 
L 78.808173 234.694941 
L 79.353491 233.036874 
L 79.561473 233.073197 
L 79.893736 233.417635 
L 79.977436 233.45431 
L 80.018018 233.398551 
L 80.629282 231.994876 
L 80.961545 231.35472 
L 81.161918 231.354914 
L 81.410482 231.629665 
L 81.930436 232.626151 
L 82.813091 234.202231 
L 82.886645 234.215465 
L 82.924691 234.162275 
L 83.122527 233.54926 
L 83.444645 232.032111 
L 84.088882 228.588021 
L 84.241064 228.64907 
L 84.314618 228.727146 
L 84.350127 228.614952 
L 84.946173 225.854048 
L 85.032409 225.933954 
L 85.232782 226.454073 
L 85.742591 228.586113 
L 86.597345 231.871175 
L 87.201 233.350262 
L 87.779291 234.213148 
L 88.395627 234.74378 
L 89.146391 235.08936 
L 89.638445 235.132566 
L 89.864182 234.314713 
L 90.206591 233.491467 
L 90.4653 233.353253 
L 90.746836 233.472852 
L 90.997936 233.634506 
L 91.035982 233.552072 
L 91.269327 232.548792 
L 91.763918 230.204049 
L 91.954145 230.138504 
L 92.157055 230.360916 
L 92.562873 231.220298 
L 92.8089 231.610649 
L 92.8368 231.594312 
L 93.169064 231.20697 
L 94.1481 228.632547 
L 94.3155 228.627587 
L 94.515873 228.921351 
L 94.921691 230.007705 
L 95.642018 231.868347 
L 95.649627 231.865571 
L 95.860145 231.656045 
L 96.151827 231.505702 
L 96.400391 231.645047 
L 96.801136 232.180147 
L 96.973609 232.40782 
L 97.024336 232.327368 
L 97.529073 231.442497 
L 97.709155 231.326267 
L 98.180918 230.21124 
L 98.355927 230.307468 
L 98.645073 230.789914 
L 100.306391 233.992079 
L 100.557491 234.224359 
L 100.595536 234.16082 
L 100.694455 233.589209 
L 101.161145 230.713361 
L 101.384345 230.454624 
L 101.564427 230.555525 
L 101.866255 231.048527 
L 102.305045 231.754046 
L 102.330409 231.739185 
L 102.807245 231.546225 
L 103.088782 231.798542 
L 103.715264 232.555686 
L 103.778673 232.493078 
L 104.230145 232.145679 
L 104.615673 232.032293 
L 105.031636 231.074883 
L 105.232009 231.071772 
L 105.483109 231.342211 
L 106.018282 232.337727 
L 106.895864 233.843478 
L 107.324509 234.286457 
L 107.347336 234.259433 
L 107.496982 233.807917 
L 107.849536 232.950645 
L 108.085418 232.86223 
L 108.364418 233.028344 
L 109.056845 233.803381 
L 109.343455 234.056514 
L 109.378964 234.002929 
L 109.581873 233.311848 
L 109.898918 232.60439 
L 110.137336 232.522124 
L 110.4138 232.693158 
L 111.002236 233.397904 
L 111.8925 234.352833 
L 112.643264 234.824965 
L 113.325545 235.034934 
L 113.330618 235.022882 
L 113.472655 234.338494 
L 113.809991 233.102802 
L 114.043336 232.929009 
L 114.281755 233.041996 
L 114.771273 233.594943 
L 115.707191 234.585485 
L 116.402155 234.997685 
L 116.506145 234.837874 
L 117.150382 233.531337 
L 117.513082 233.249826 
L 117.715991 232.049752 
L 118.0584 230.315245 
L 118.263845 230.128104 
L 118.438855 230.271982 
L 118.758436 230.897388 
L 119.727327 233.156869 
L 119.778055 233.025291 
L 120.211773 231.694419 
L 120.391855 231.727264 
L 120.668318 232.072026 
L 121.429227 233.327125 
L 121.497709 233.195233 
L 122.015127 232.001946 
L 122.2155 232.079213 
L 122.557909 232.514334 
L 123.133664 233.384406 
L 123.179318 233.277558 
L 123.336573 232.187432 
L 123.676445 230.36725 
L 123.892036 230.135914 
L 124.067045 230.257243 
L 124.285173 230.560927 
L 124.343509 230.429561 
L 124.868536 229.003392 
L 125.035936 229.169997 
L 125.071445 229.192669 
L 125.119636 229.098849 
L 125.289573 228.254263 
L 125.604082 226.383966 
L 125.733436 226.315179 
L 125.7588 226.334165 
L 125.923664 226.639055 
L 126.228027 227.248148 
L 126.266073 227.23057 
L 126.481664 227.245062 
L 126.6795 227.580283 
L 127.075173 228.80453 
L 128.140445 232.129782 
L 128.749173 233.283784 
L 129.261518 233.845553 
L 129.264055 233.843769 
L 129.368045 233.624055 
L 129.446673 233.029293 
L 129.959018 227.981286 
L 130.164464 227.707098 
L 130.314109 227.835893 
L 130.582964 228.442488 
L 131.719255 231.801516 
L 131.830855 231.63598 
L 132.178336 231.184097 
L 132.388855 231.247375 
L 132.7059 231.632645 
L 133.722982 233.239368 
L 133.776245 233.083361 
L 133.948718 231.560804 
L 134.260691 229.647728 
L 134.471209 229.386322 
L 134.636073 229.504356 
L 134.930291 230.064976 
L 136.206082 232.886304 
L 136.244127 232.85019 
L 136.9467 232.055921 
L 137.251064 232.289441 
L 139.305518 234.307579 
L 140.185636 234.621858 
L 140.938936 234.694158 
L 142.179218 234.54983 
L 142.232482 234.436543 
L 143.208982 230.16418 
L 143.432182 230.036706 
L 143.657918 230.187156 
L 144.0891 230.812482 
L 144.746018 231.788334 
L 144.781527 231.743531 
L 144.951464 231.176674 
L 145.271045 229.54164 
L 145.557655 228.015926 
L 145.760564 227.831451 
L 145.940645 227.980644 
L 146.2932 228.641159 
L 147.231655 230.541494 
L 147.262091 230.507409 
L 147.358473 230.079423 
L 147.741464 226.921835 
L 148.1067 223.810849 
L 148.337509 223.31545 
L 148.487155 223.371366 
L 148.707818 223.773579 
L 149.174509 225.199463 
L 150.036873 227.732627 
L 150.249927 227.652776 
L 150.521318 227.653043 
L 150.815536 227.917883 
L 151.241645 228.541438 
L 151.289836 228.336229 
L 151.457236 226.626449 
L 151.7337 224.753708 
L 151.929 224.533723 
L 152.086255 224.6854 
L 152.395691 225.376185 
L 153.5751 228.333076 
L 153.610609 228.310293 
L 154.201582 227.934656 
L 154.576964 228.110992 
L 154.617545 227.981649 
L 155.167936 225.501395 
L 155.533173 223.432638 
L 155.796955 223.076259 
L 156.347345 222.004254 
L 156.600982 221.41026 
L 156.745555 221.46429 
L 156.958609 221.870334 
L 157.420227 223.349009 
L 157.526755 223.622891 
L 157.574945 223.490145 
L 158.120264 221.337046 
L 158.130409 221.339872 
L 158.285127 221.50896 
L 158.574273 222.23793 
L 160.245736 227.366733 
L 160.316755 227.26559 
L 160.755545 226.579627 
L 160.971136 226.65247 
L 161.308473 227.059184 
L 162.627382 229.016297 
L 162.683182 228.926555 
L 163.352782 227.560623 
L 163.649536 227.438104 
L 164.017309 225.781431 
L 164.202464 225.721231 
L 164.418055 225.948759 
L 164.905036 226.881843 
L 165.914509 228.733957 
L 166.634836 229.588726 
L 167.395745 230.151213 
L 168.321518 230.550707 
L 169.257436 230.737831 
L 169.389327 230.119364 
L 169.7571 228.696115 
L 170.015809 228.432921 
L 170.264373 228.483109 
L 170.6778 228.845914 
L 171.111518 229.281217 
L 171.1521 229.193223 
L 171.266236 228.418927 
L 171.786191 223.682577 
L 172.065191 222.35498 
L 172.793127 214.76946 
L 173.0214 214.05795 
L 173.145682 214.115891 
L 173.333373 214.569097 
L 173.721436 216.219317 
L 174.254073 218.687875 
L 174.320018 218.591714 
L 174.467127 217.962423 
L 174.872945 216.11159 
L 175.032736 216.07647 
L 175.035273 216.07846 
L 175.124045 216.104256 
L 175.159555 216.040435 
L 175.512109 215.473512 
L 175.524791 215.479896 
L 175.682045 215.699051 
L 175.968655 216.570523 
L 177.056755 220.222559 
L 177.2343 220.439529 
L 177.274882 220.404796 
L 177.789764 219.649385 
L 178.091591 219.217401 
L 178.269136 219.284085 
L 178.614082 219.639678 
L 178.692709 219.546687 
L 178.948882 219.408214 
L 179.134036 219.586019 
L 179.428255 220.245074 
L 180.044591 222.306238 
L 180.217064 222.787851 
L 180.270327 222.709631 
L 180.374318 221.992315 
L 181.033773 217.102043 
L 181.6146 216.388962 
L 181.774391 216.498062 
L 182.012809 217.000747 
L 182.469355 218.591751 
L 183.067936 220.797335 
L 183.128809 220.752874 
L 183.311427 220.406943 
L 183.562527 219.387946 
L 184.105309 215.339564 
L 184.328509 215.002447 
L 184.604973 214.876157 
L 184.876364 214.56477 
L 185.026009 214.72566 
L 185.282182 215.414904 
L 185.535818 216.155254 
L 185.591618 216.083532 
L 185.726045 215.566443 
L 185.982218 212.080416 
L 186.438764 205.873209 
L 186.771027 203.917861 
L 186.953645 203.72338 
L 186.961255 203.726759 
L 187.121045 203.822541 
L 187.156555 203.705694 
L 187.293518 202.446773 
L 188.021455 195.826028 
L 188.483073 193.582304 
L 188.797582 192.105821 
L 188.970055 191.394358 
L 189.723355 186.137717 
L 189.994745 184.732729 
L 190.192582 181.181972 
L 190.415782 172.451899 
L 190.529918 158.221774 
L 190.573036 113.132208 
L 190.603473 41.93778 
L 190.679564 131.38599 
L 190.834282 196.29718 
L 191.024509 212.16982 
L 191.252782 215.426523 
L 191.486127 216.213551 
L 191.729618 216.495977 
L 191.762591 216.439184 
L 191.922382 215.636935 
L 192.528573 211.956927 
L 192.838009 210.119969 
L 193.038382 209.898598 
L 193.185491 210.054844 
L 193.441664 210.733512 
L 193.943864 212.820968 
L 194.534836 215.052793 
L 195.194291 215.707236 
L 195.544309 216.6938 
L 195.772582 217.271175 
L 195.8157 217.237824 
L 196.619727 216.417811 
L 196.804882 216.566456 
L 196.926627 216.679106 
L 196.972282 216.615362 
L 197.055982 216.194515 
L 197.471945 213.619252 
L 197.649491 213.518586 
L 197.756018 213.408394 
L 198.311482 212.630874 
L 198.443373 212.741982 
L 198.658964 213.310754 
L 199.100291 215.244118 
L 199.541618 216.869901 
L 199.762282 216.893038 
L 200.259409 216.322061 
L 200.5587 214.981486 
L 201.000027 213.297712 
L 201.291709 212.765264 
L 201.466718 212.801853 
L 201.715282 213.169569 
L 202.006964 213.489343 
L 202.034864 213.462949 
L 202.133782 213.154094 
L 202.613155 211.357503 
L 202.755191 211.417895 
L 202.963173 211.837694 
L 203.353773 213.229499 
L 203.602336 213.793969 
L 203.749445 213.836732 
L 203.777345 213.790424 
L 204.063955 213.425147 
L 204.081709 213.436155 
L 204.170482 213.48049 
L 204.211064 213.394346 
L 204.505282 212.874763 
L 204.517964 212.880542 
L 204.66 213.085703 
L 204.769064 213.263743 
L 204.824864 213.192415 
L 205.060745 212.506977 
L 205.324527 211.638214 
L 205.448809 211.692279 
L 205.631427 212.031902 
L 205.6923 211.839201 
L 206.514082 208.026958 
L 206.519155 208.028131 
L 206.658655 208.179744 
L 206.892 208.840724 
L 207.323182 210.861308 
L 207.888791 213.841761 
L 207.957273 213.665246 
L 208.464545 211.159066 
L 208.748618 209.877255 
L 209.217845 208.486631 
L 209.354809 208.590702 
L 209.5704 209.125556 
L 209.971145 210.832482 
L 210.300873 212.363173 
L 210.364282 212.236292 
L 210.696545 210.722117 
L 211.051636 208.042297 
L 211.424482 206.18628 
L 211.655291 205.909567 
L 211.822691 206.011151 
L 212.061109 206.479708 
L 212.3046 207.044446 
L 212.355327 206.955682 
L 212.507509 206.051351 
L 213.324218 201.169028 
L 213.717355 199.024682 
L 214.125709 195.965981 
L 214.359055 194.554244 
L 214.965245 190.17271 
L 215.183373 184.020096 
L 215.442082 171.563779 
L 215.535927 155.017438 
L 215.5689 97.284506 
L 215.594264 37.757958 
L 215.672891 132.114369 
L 215.825073 199.868053 
L 216.002618 213.155467 
L 216.200455 214.901647 
L 216.410973 215.137078 
L 216.662073 215.456309 
L 217.197245 216.270971 
L 217.209927 216.262569 
L 217.669009 216.038908 
L 217.889673 216.460516 
L 218.267591 217.753568 
L 218.767255 219.590225 
L 218.810373 219.501287 
L 219.748827 216.506029 
L 219.982173 216.346726 
L 220.126745 216.272768 
L 220.377845 215.46736 
L 220.689818 213.566256 
L 221.278255 209.583799 
L 221.671391 208.41669 
L 222.056918 206.308228 
L 222.244609 206.158351 
L 222.247145 206.159555 
L 222.396791 206.356183 
L 222.650427 207.136366 
L 223.117118 209.427121 
L 224.575527 216.953844 
L 224.806336 217.480387 
L 225.207082 219.082848 
L 226.0593 222.987278 
L 226.140464 222.865061 
L 226.376345 222.630244 
L 226.5336 222.815481 
L 226.764409 223.349604 
L 226.835427 223.149445 
L 227.101745 222.552329 
L 227.236173 222.649003 
L 227.517709 223.183901 
L 227.624236 223.019365 
L 227.893091 222.776897 
L 228.088391 222.28313 
L 228.258327 221.55556 
L 228.572836 220.39964 
L 228.732627 220.385473 
L 228.917782 220.689715 
L 229.275409 221.800977 
L 231.314645 228.83941 
L 232.017218 230.209502 
L 232.379918 230.704206 
L 232.415427 230.638076 
L 232.620873 229.667509 
L 233.148436 226.929591 
L 233.3133 226.525289 
L 233.797745 224.000405 
L 233.9829 223.925908 
L 234.168055 224.152066 
L 234.507927 224.997606 
L 236.323964 230.18629 
L 236.356936 230.160804 
L 236.562382 229.740852 
L 236.831236 229.449602 
L 237.044291 229.522564 
L 237.394309 229.936005 
L 238.269355 231.152831 
L 238.322618 231.088651 
L 238.436755 230.685268 
L 238.992218 228.369689 
L 239.223027 228.21767 
L 239.349845 228.12381 
L 240.093 225.203105 
L 240.361855 225.160448 
L 240.714409 224.350603 
L 240.861518 224.213945 
L 241.211536 223.442391 
L 241.351036 223.570735 
L 241.597064 224.189602 
L 242.231155 226.584286 
L 243.121418 229.609776 
L 243.788482 231.126729 
L 244.435255 232.072857 
L 245.132755 232.706934 
L 245.363564 232.836502 
L 245.394 232.757496 
L 246.033164 230.801733 
L 246.2589 230.892769 
L 246.672327 231.362942 
L 247.905 232.820372 
L 248.696345 233.366453 
L 249.670309 233.756254 
L 251.174373 234.09269 
L 254.2104 234.505623 
L 255.607936 234.553277 
L 256.277536 232.31834 
L 256.508345 232.399706 
L 256.934455 232.850388 
L 257.462018 233.45898 
L 257.494991 233.374419 
L 257.611664 232.384675 
L 258.083427 227.91808 
L 258.306627 227.512479 
L 258.456273 227.595213 
L 258.694691 228.063191 
L 258.884918 228.434123 
L 258.940718 228.386679 
L 259.257764 228.190294 
L 259.453064 228.402552 
L 259.681336 228.712464 
L 259.7346 228.658355 
L 260.115055 227.965276 
L 260.437173 227.110197 
L 260.589355 227.151216 
L 260.802409 227.530788 
L 261.266564 228.931193 
L 262.255745 231.828109 
L 262.3572 231.967932 
L 262.407927 231.902706 
L 263.983009 228.420852 
L 264.249327 227.485735 
L 264.404045 227.486014 
L 264.601882 227.809813 
L 264.888491 228.440528 
L 264.962045 228.349723 
L 265.274018 228.029581 
L 265.449027 228.196835 
L 265.768609 228.891749 
L 265.854845 229.092833 
L 265.905573 228.943225 
L 266.220082 228.03342 
L 266.308855 227.738173 
L 267.0165 224.814338 
L 267.163609 224.813953 
L 267.166145 224.816403 
L 267.348764 225.154028 
L 267.726682 226.436262 
L 268.558609 229.462079 
L 268.6068 229.424252 
L 268.817318 229.000277 
L 269.309373 227.431188 
L 269.469164 227.49439 
L 269.707582 227.9032 
L 269.836936 228.094709 
L 269.8902 228.041708 
L 270.225 227.765889 
L 270.412691 227.979951 
L 270.747491 228.532319 
L 270.821045 228.462508 
L 271.046782 228.039581 
L 271.417091 226.993434 
L 271.579418 227.022578 
L 271.797545 227.371746 
L 272.254091 228.629149 
L 273.291464 231.453709 
L 273.370091 231.443727 
L 273.397991 231.40714 
L 273.955991 230.34517 
L 274.295864 229.1273 
L 274.486091 229.060232 
L 274.691536 229.279607 
L 275.099891 230.122889 
L 275.591945 231.272726 
L 275.6376 231.111815 
L 276.327491 227.75879 
L 276.365536 227.774186 
L 276.538009 228.011458 
L 276.705409 228.18596 
L 276.738382 228.164164 
L 277.037673 228.067062 
L 277.245655 228.341356 
L 277.656545 229.342728 
L 278.810591 232.210018 
L 279.287427 232.931461 
L 279.307718 232.911822 
L 279.439609 232.535028 
L 279.779482 231.748455 
L 280.000145 231.699377 
L 280.411036 231.7191 
L 280.895482 230.803271 
L 281.420509 228.504624 
L 281.603127 228.472386 
L 281.808573 228.727704 
L 282.201709 229.655817 
L 282.462955 230.325399 
L 282.523827 230.212871 
L 283.355755 228.113558 
L 283.358291 228.11443 
L 283.525691 228.29323 
L 283.847809 229.046347 
L 284.415955 230.682749 
L 284.474291 230.463212 
L 284.781191 229.3981 
L 284.933373 229.420837 
L 285.159109 229.773333 
L 285.727255 231.110445 
L 285.798273 230.843416 
L 286.401927 228.251105 
L 286.584545 228.17715 
L 286.772236 228.402898 
L 287.142545 229.282085 
L 287.533145 230.038452 
L 287.999836 229.997458 
L 288.296591 230.369295 
L 288.476673 230.673544 
L 288.522327 230.53487 
L 288.8901 229.347617 
L 289.042282 229.402444 
L 289.257873 229.661845 
L 289.323818 229.538133 
L 289.673836 228.96218 
L 289.846309 229.055878 
L 289.9224 229.12627 
L 289.965518 229.022538 
L 290.335827 228.117336 
L 290.485473 228.241529 
L 290.761936 228.849039 
L 291.114491 229.670863 
L 291.167755 229.629972 
L 291.520309 229.409011 
L 291.7359 229.627385 
L 292.144255 230.435943 
L 292.798636 231.853584 
L 292.8519 231.770931 
L 293.356636 230.852997 
L 293.564618 230.959251 
L 293.919709 231.453991 
L 294.650182 232.662701 
L 294.705982 232.561582 
L 295.218327 231.495383 
L 295.428845 231.571948 
L 295.7814 231.996757 
L 297.145964 233.798623 
L 297.876436 234.31252 
L 298.731191 234.639345 
L 298.797136 234.466013 
L 299.317091 232.730363 
L 299.545364 232.669115 
L 299.831973 232.861235 
L 300.765355 233.918709 
L 301.521191 234.529203 
L 302.340436 234.898743 
L 303.491945 235.153166 
L 303.8445 235.098802 
L 304.044873 234.269867 
L 304.389818 233.260101 
L 304.651064 233.069038 
L 304.711936 232.94584 
L 304.841291 231.899665 
L 305.310518 227.899813 
L 305.523573 227.577694 
L 305.670682 227.691118 
L 305.921782 228.249573 
L 306.502609 229.905956 
L 306.598991 229.84127 
L 306.862773 229.514209 
L 307.217864 228.731888 
L 307.375118 228.803652 
L 307.616073 229.237709 
L 308.234945 230.9682 
L 309.016145 232.864425 
L 309.3687 233.422586 
L 309.404209 233.37315 
L 309.609655 232.626285 
L 310.294473 229.979199 
L 310.751018 226.536863 
L 310.880373 226.515446 
L 310.895591 226.529127 
L 311.073136 226.863212 
L 311.212636 227.068414 
L 311.258291 227.039579 
L 311.511927 226.977119 
L 311.702155 227.245316 
L 311.993836 227.761216 
L 312.054709 227.717921 
L 312.290591 227.663783 
L 312.478282 227.929074 
L 312.840982 228.921426 
L 314.012782 232.264083 
L 314.126918 232.248905 
L 314.1396 232.235434 
L 314.712818 231.75545 
L 314.989282 231.936398 
L 315.240382 232.173077 
L 315.2835 232.078301 
L 315.488945 231.017837 
L 315.7857 230.063038 
L 315.986073 229.976096 
L 316.194055 230.168842 
L 316.582118 230.904903 
L 317.804645 233.33193 
L 318.010091 233.568855 
L 318.053209 233.49782 
L 318.2967 232.617252 
L 318.7152 230.997877 
L 318.920645 230.896776 
L 319.131164 231.074171 
L 319.275736 231.225362 
L 319.323927 231.143893 
L 319.889536 229.953724 
L 319.909827 229.963219 
L 320.120345 230.202841 
L 320.561673 231.132748 
L 320.850818 231.74428 
L 320.904082 231.654734 
L 320.987782 231.119931 
L 321.434182 227.873711 
L 321.642164 227.631992 
L 321.801955 227.765814 
L 322.080955 228.367801 
L 322.791136 230.36537 
L 322.892591 230.233643 
L 323.202027 229.906285 
L 323.389718 230.028563 
L 323.711836 230.573462 
L 324.698482 232.611382 
L 324.754282 232.478356 
L 325.193073 231.269285 
L 325.380764 231.315701 
L 325.680055 231.686568 
L 326.212691 232.482171 
L 326.273564 232.408742 
L 326.560173 231.723626 
L 326.993891 227.679206 
L 327.605155 223.651111 
L 327.914591 223.209801 
L 328.107355 223.047285 
L 328.112427 223.049944 
L 328.292509 223.182282 
L 328.345773 223.058237 
L 328.589264 222.720529 
L 328.5918 222.721579 
L 328.726227 222.900691 
L 328.916455 223.38781 
L 328.997618 223.222439 
L 329.192918 222.964401 
L 329.210673 222.973774 
L 329.347636 223.202448 
L 329.626636 224.215689 
L 330.212536 226.295599 
L 330.443345 226.507823 
L 330.735027 227.175921 
L 331.539055 229.817696 
L 331.714064 230.204484 
L 331.762255 230.165468 
L 332.178218 229.845768 
L 332.403955 230.046336 
L 332.822455 230.788267 
L 332.890936 230.848442 
L 332.941664 230.787027 
L 333.218127 230.047772 
L 333.885191 226.513395 
L 334.042445 226.50796 
L 334.105855 226.505845 
L 334.138827 226.445243 
L 334.275791 225.826245 
L 334.663855 223.968878 
L 334.805891 223.945744 
L 334.816036 223.954654 
L 334.991045 224.273845 
L 335.341064 225.48433 
L 336.893318 231.316068 
L 337.512191 232.619841 
L 338.128527 233.424226 
L 338.813345 233.95576 
L 339.685855 234.339891 
L 340.454373 234.475994 
L 340.606555 233.826154 
L 340.961645 232.60306 
L 341.266009 231.907115 
L 341.585591 230.937206 
L 341.702264 230.624796 
L 342.077645 229.206227 
L 342.237436 229.220013 
L 342.453027 229.551457 
L 342.972982 230.883969 
L 343.1556 231.358506 
L 343.203791 231.204048 
L 343.530982 230.165148 
L 343.683164 230.209713 
L 343.929191 230.601998 
L 345.605727 233.773883 
L 345.676745 233.814156 
L 345.719864 233.738598 
L 345.9735 232.806866 
L 346.437655 230.916711 
L 346.658318 230.773572 
L 346.8663 230.921634 
L 347.236609 231.52505 
L 348.494645 233.704735 
L 349.156636 234.343738 
L 349.402664 234.442867 
L 349.425491 234.403618 
L 349.6284 233.723556 
L 349.955591 232.978224 
L 350.201618 232.878621 
L 350.485691 233.031078 
L 350.640409 233.118134 
L 350.678455 233.049628 
L 351.1908 231.531667 
L 351.809673 228.783894 
L 352.408255 227.997502 
L 352.535073 228.105744 
L 352.573118 227.970849 
L 352.907918 226.908086 
L 353.037273 227.011518 
L 353.270618 227.581871 
L 353.694191 228.804348 
L 353.765209 228.761623 
L 354.016309 228.712737 
L 354.226827 228.967334 
L 354.404373 229.322543 
L 354.4551 229.15279 
L 354.754391 228.245282 
L 354.888818 228.318582 
L 355.038464 228.485314 
L 355.094264 228.408733 
L 355.396091 228.103329 
L 355.677627 228.083036 
L 356.0175 227.486099 
L 356.169682 227.611618 
L 356.433464 228.203212 
L 357.3009 230.798 
L 357.417573 230.644338 
L 357.727009 230.333413 
L 358.0542 230.212956 
L 358.454945 229.311778 
L 358.622345 229.377995 
L 358.881055 229.792606 
L 359.659718 231.656743 
L 360.385118 233.04554 
L 361.031891 233.822158 
L 361.232264 233.957629 
L 361.265236 233.894575 
L 361.544236 232.809688 
L 361.894255 231.443352 
L 362.168182 230.236018 
L 362.355873 230.132819 
L 362.548636 230.331695 
L 362.962064 231.169586 
L 363.674782 232.585777 
L 363.697609 232.570958 
L 364.349455 232.160255 
L 364.587873 232.213625 
L 364.605627 232.179004 
L 365.123045 231.334769 
L 365.343709 231.457856 
L 365.7267 231.988988 
L 367.012636 233.892032 
L 367.382945 234.122266 
L 367.601073 233.764307 
L 367.978991 233.30449 
L 368.270673 233.275699 
L 368.651127 233.492482 
L 369.731618 234.36453 
L 369.784882 234.248449 
L 370.378391 232.853135 
L 370.614273 232.863165 
L 370.954145 233.145894 
L 371.410691 233.670923 
L 371.451273 233.528335 
L 371.887527 231.84891 
L 372.072682 231.841382 
L 372.328855 232.123257 
L 373.581818 234.050101 
L 373.581818 234.050101 
" clip-path="url(#pbb8a4c31a7)" style="fill: none; stroke: #ff0000; stroke-width: 1.5; stroke-linecap: square"/>
   </g>
   <g id="line2d_18">
    <path d="M 81.899894 213.171429 
L 84.431164 213.171429 
L 84.431164 213.171429 
" clip-path="url(#pbb8a4c31a7)" style="fill: none; stroke: #000000; stroke-width: 1.5; stroke-linecap: square"/>
   </g>
   <g id="line2d_19">
    <path d="M 81.899894 189.874286 
L 81.899894 188.321143 
L 81.899894 186.768 
L 81.899894 185.214857 
L 81.899894 183.661714 
L 81.899894 182.108571 
L 81.899894 180.555429 
L 81.899894 179.002286 
L 81.899894 177.449143 
L 81.899894 175.896 
L 81.899894 174.342857 
L 81.899894 172.789714 
L 81.899894 171.236571 
L 81.899894 169.683429 
L 81.899894 168.130286 
L 81.899894 166.577143 
L 81.899894 165.024 
L 81.899894 163.470857 
L 81.899894 161.917714 
L 81.899894 160.364571 
" clip-path="url(#pbb8a4c31a7)" style="fill: none; stroke: #000000; stroke-width: 1.5; stroke-linecap: square"/>
   </g>
   <g id="patch_3">
    <path d="M 54 252 
L 54 34.56 
" style="fill: none; stroke: #000000; stroke-width: 0.8; stroke-linejoin: miter; stroke-linecap: square"/>
   </g>
   <g id="patch_4">
    <path d="M 54 252 
L 388.8 252 
" style="fill: none; stroke: #000000; stroke-width: 0.8; stroke-linejoin: miter; stroke-linecap: square"/>
   </g>
   <g id="text_18">
    <!-- 500 ms -->
    <g transform="translate(81.899894 211.618286)scale(0.1 -0.1)">
     <use xlink:href="#DejaVuSans-35"/>
     <use xlink:href="#DejaVuSans-30" x="63.623047"/>
     <use xlink:href="#DejaVuSans-30" x="127.246094"/>
     <use xlink:href="#DejaVuSans-20" x="190.869141"/>
     <use xlink:href="#DejaVuSans-6d" x="222.65625"/>
     <use xlink:href="#DejaVuSans-73" x="320.068359"/>
    </g>
   </g>
   <g id="text_19">
    <!-- 20 mV -->
    <g transform="translate(82.153529 158.811429)scale(0.1 -0.1)">
     <use xlink:href="#DejaVuSans-32"/>
     <use xlink:href="#DejaVuSans-30" x="63.623047"/>
     <use xlink:href="#DejaVuSans-20" x="127.246094"/>
     <use xlink:href="#DejaVuSans-6d" x="159.033203"/>
     <use xlink:href="#DejaVuSans-56" x="256.445312"/>
    </g>
   </g>
  </g>
 </g>
 <defs>
  <clipPath id="pbb8a4c31a7">
   <rect x="54" y="34.56" width="334.8" height="217.44"/>
  </clipPath>
 </defs>
</svg>
