<?xml version="1.0" encoding="utf-8" standalone="no"?>
<!DOCTYPE svg PUBLIC "-//W3C//DTD SVG 1.1//EN"
  "http://www.w3.org/Graphics/SVG/1.1/DTD/svg11.dtd">
<svg xmlns:xlink="http://www.w3.org/1999/xlink" width="432pt" height="288pt" viewBox="0 0 432 288" xmlns="http://www.w3.org/2000/svg" version="1.1">
 <metadata>
  <rdf:RDF xmlns:dc="http://purl.org/dc/elements/1.1/" xmlns:cc="http://creativecommons.org/ns#" xmlns:rdf="http://www.w3.org/1999/02/22-rdf-syntax-ns#">
   <cc:Work>
    <dc:type rdf:resource="http://purl.org/dc/dcmitype/StillImage"/>
    <dc:date>2022-07-12T18:39:06.471086</dc:date>
    <dc:format>image/svg+xml</dc:format>
    <dc:creator>
     <cc:Agent>
      <dc:title>Matplotlib v3.5.2, https://matplotlib.org/</dc:title>
     </cc:Agent>
    </dc:creator>
   </cc:Work>
  </rdf:RDF>
 </metadata>
 <defs>
  <style type="text/css">*{stroke-linejoin: round; stroke-linecap: butt}</style>
 </defs>
 <g id="figure_1">
  <g id="patch_1">
   <path d="M 0 288 
L 432 288 
L 432 0 
L 0 0 
L 0 288 
z
" style="fill: none"/>
  </g>
  <g id="axes_1">
   <g id="patch_2">
    <path d="M 54 252 
L 388.8 252 
L 388.8 34.56 
L 54 34.56 
z
" style="fill: #ffffff"/>
   </g>
   <g id="matplotlib.axis_1">
    <g id="xtick_1">
     <g id="line2d_1">
      <defs>
       <path id="m07b35c4830" d="M 0 0 
L 0 3.5 
" style="stroke: #000000; stroke-width: 0.8"/>
      </defs>
      <g>
       <use xlink:href="#m07b35c4830" x="69.218182" y="252" style="stroke: #000000; stroke-width: 0.8"/>
      </g>
     </g>
     <g id="text_1">
      <!-- 0 -->
      <g transform="translate(66.036932 266.598437)scale(0.1 -0.1)">
       <defs>
        <path id="DejaVuSans-30" d="M 2034 4250 
Q 1547 4250 1301 3770 
Q 1056 3291 1056 2328 
Q 1056 1369 1301 889 
Q 1547 409 2034 409 
Q 2525 409 2770 889 
Q 3016 1369 3016 2328 
Q 3016 3291 2770 3770 
Q 2525 4250 2034 4250 
z
M 2034 4750 
Q 2819 4750 3233 4129 
Q 3647 3509 3647 2328 
Q 3647 1150 3233 529 
Q 2819 -91 2034 -91 
Q 1250 -91 836 529 
Q 422 1150 422 2328 
Q 422 3509 836 4129 
Q 1250 4750 2034 4750 
z
" transform="scale(0.015625)"/>
       </defs>
       <use xlink:href="#DejaVuSans-30"/>
      </g>
     </g>
    </g>
    <g id="xtick_2">
     <g id="line2d_2">
      <g>
       <use xlink:href="#m07b35c4830" x="119.945032" y="252" style="stroke: #000000; stroke-width: 0.8"/>
      </g>
     </g>
     <g id="text_2">
      <!-- 10000 -->
      <g transform="translate(104.038782 266.598437)scale(0.1 -0.1)">
       <defs>
        <path id="DejaVuSans-31" d="M 794 531 
L 1825 531 
L 1825 4091 
L 703 3866 
L 703 4441 
L 1819 4666 
L 2450 4666 
L 2450 531 
L 3481 531 
L 3481 0 
L 794 0 
L 794 531 
z
" transform="scale(0.015625)"/>
       </defs>
       <use xlink:href="#DejaVuSans-31"/>
       <use xlink:href="#DejaVuSans-30" x="63.623047"/>
       <use xlink:href="#DejaVuSans-30" x="127.246094"/>
       <use xlink:href="#DejaVuSans-30" x="190.869141"/>
       <use xlink:href="#DejaVuSans-30" x="254.492188"/>
      </g>
     </g>
    </g>
    <g id="xtick_3">
     <g id="line2d_3">
      <g>
       <use xlink:href="#m07b35c4830" x="170.671882" y="252" style="stroke: #000000; stroke-width: 0.8"/>
      </g>
     </g>
     <g id="text_3">
      <!-- 20000 -->
      <g transform="translate(154.765632 266.598437)scale(0.1 -0.1)">
       <defs>
        <path id="DejaVuSans-32" d="M 1228 531 
L 3431 531 
L 3431 0 
L 469 0 
L 469 531 
Q 828 903 1448 1529 
Q 2069 2156 2228 2338 
Q 2531 2678 2651 2914 
Q 2772 3150 2772 3378 
Q 2772 3750 2511 3984 
Q 2250 4219 1831 4219 
Q 1534 4219 1204 4116 
Q 875 4013 500 3803 
L 500 4441 
Q 881 4594 1212 4672 
Q 1544 4750 1819 4750 
Q 2544 4750 2975 4387 
Q 3406 4025 3406 3419 
Q 3406 3131 3298 2873 
Q 3191 2616 2906 2266 
Q 2828 2175 2409 1742 
Q 1991 1309 1228 531 
z
" transform="scale(0.015625)"/>
       </defs>
       <use xlink:href="#DejaVuSans-32"/>
       <use xlink:href="#DejaVuSans-30" x="63.623047"/>
       <use xlink:href="#DejaVuSans-30" x="127.246094"/>
       <use xlink:href="#DejaVuSans-30" x="190.869141"/>
       <use xlink:href="#DejaVuSans-30" x="254.492188"/>
      </g>
     </g>
    </g>
    <g id="xtick_4">
     <g id="line2d_4">
      <g>
       <use xlink:href="#m07b35c4830" x="221.398732" y="252" style="stroke: #000000; stroke-width: 0.8"/>
      </g>
     </g>
     <g id="text_4">
      <!-- 30000 -->
      <g transform="translate(205.492482 266.598437)scale(0.1 -0.1)">
       <defs>
        <path id="DejaVuSans-33" d="M 2597 2516 
Q 3050 2419 3304 2112 
Q 3559 1806 3559 1356 
Q 3559 666 3084 287 
Q 2609 -91 1734 -91 
Q 1441 -91 1130 -33 
Q 819 25 488 141 
L 488 750 
Q 750 597 1062 519 
Q 1375 441 1716 441 
Q 2309 441 2620 675 
Q 2931 909 2931 1356 
Q 2931 1769 2642 2001 
Q 2353 2234 1838 2234 
L 1294 2234 
L 1294 2753 
L 1863 2753 
Q 2328 2753 2575 2939 
Q 2822 3125 2822 3475 
Q 2822 3834 2567 4026 
Q 2313 4219 1838 4219 
Q 1578 4219 1281 4162 
Q 984 4106 628 3988 
L 628 4550 
Q 988 4650 1302 4700 
Q 1616 4750 1894 4750 
Q 2613 4750 3031 4423 
Q 3450 4097 3450 3541 
Q 3450 3153 3228 2886 
Q 3006 2619 2597 2516 
z
" transform="scale(0.015625)"/>
       </defs>
       <use xlink:href="#DejaVuSans-33"/>
       <use xlink:href="#DejaVuSans-30" x="63.623047"/>
       <use xlink:href="#DejaVuSans-30" x="127.246094"/>
       <use xlink:href="#DejaVuSans-30" x="190.869141"/>
       <use xlink:href="#DejaVuSans-30" x="254.492188"/>
      </g>
     </g>
    </g>
    <g id="xtick_5">
     <g id="line2d_5">
      <g>
       <use xlink:href="#m07b35c4830" x="272.125582" y="252" style="stroke: #000000; stroke-width: 0.8"/>
      </g>
     </g>
     <g id="text_5">
      <!-- 40000 -->
      <g transform="translate(256.219332 266.598437)scale(0.1 -0.1)">
       <defs>
        <path id="DejaVuSans-34" d="M 2419 4116 
L 825 1625 
L 2419 1625 
L 2419 4116 
z
M 2253 4666 
L 3047 4666 
L 3047 1625 
L 3713 1625 
L 3713 1100 
L 3047 1100 
L 3047 0 
L 2419 0 
L 2419 1100 
L 313 1100 
L 313 1709 
L 2253 4666 
z
" transform="scale(0.015625)"/>
       </defs>
       <use xlink:href="#DejaVuSans-34"/>
       <use xlink:href="#DejaVuSans-30" x="63.623047"/>
       <use xlink:href="#DejaVuSans-30" x="127.246094"/>
       <use xlink:href="#DejaVuSans-30" x="190.869141"/>
       <use xlink:href="#DejaVuSans-30" x="254.492188"/>
      </g>
     </g>
    </g>
    <g id="xtick_6">
     <g id="line2d_6">
      <g>
       <use xlink:href="#m07b35c4830" x="322.852432" y="252" style="stroke: #000000; stroke-width: 0.8"/>
      </g>
     </g>
     <g id="text_6">
      <!-- 50000 -->
      <g transform="translate(306.946182 266.598437)scale(0.1 -0.1)">
       <defs>
        <path id="DejaVuSans-35" d="M 691 4666 
L 3169 4666 
L 3169 4134 
L 1269 4134 
L 1269 2991 
Q 1406 3038 1543 3061 
Q 1681 3084 1819 3084 
Q 2600 3084 3056 2656 
Q 3513 2228 3513 1497 
Q 3513 744 3044 326 
Q 2575 -91 1722 -91 
Q 1428 -91 1123 -41 
Q 819 9 494 109 
L 494 744 
Q 775 591 1075 516 
Q 1375 441 1709 441 
Q 2250 441 2565 725 
Q 2881 1009 2881 1497 
Q 2881 1984 2565 2268 
Q 2250 2553 1709 2553 
Q 1456 2553 1204 2497 
Q 953 2441 691 2322 
L 691 4666 
z
" transform="scale(0.015625)"/>
       </defs>
       <use xlink:href="#DejaVuSans-35"/>
       <use xlink:href="#DejaVuSans-30" x="63.623047"/>
       <use xlink:href="#DejaVuSans-30" x="127.246094"/>
       <use xlink:href="#DejaVuSans-30" x="190.869141"/>
       <use xlink:href="#DejaVuSans-30" x="254.492188"/>
      </g>
     </g>
    </g>
    <g id="xtick_7">
     <g id="line2d_7">
      <g>
       <use xlink:href="#m07b35c4830" x="373.579282" y="252" style="stroke: #000000; stroke-width: 0.8"/>
      </g>
     </g>
     <g id="text_7">
      <!-- 60000 -->
      <g transform="translate(357.673032 266.598437)scale(0.1 -0.1)">
       <defs>
        <path id="DejaVuSans-36" d="M 2113 2584 
Q 1688 2584 1439 2293 
Q 1191 2003 1191 1497 
Q 1191 994 1439 701 
Q 1688 409 2113 409 
Q 2538 409 2786 701 
Q 3034 994 3034 1497 
Q 3034 2003 2786 2293 
Q 2538 2584 2113 2584 
z
M 3366 4563 
L 3366 3988 
Q 3128 4100 2886 4159 
Q 2644 4219 2406 4219 
Q 1781 4219 1451 3797 
Q 1122 3375 1075 2522 
Q 1259 2794 1537 2939 
Q 1816 3084 2150 3084 
Q 2853 3084 3261 2657 
Q 3669 2231 3669 1497 
Q 3669 778 3244 343 
Q 2819 -91 2113 -91 
Q 1303 -91 875 529 
Q 447 1150 447 2328 
Q 447 3434 972 4092 
Q 1497 4750 2381 4750 
Q 2619 4750 2861 4703 
Q 3103 4656 3366 4563 
z
" transform="scale(0.015625)"/>
       </defs>
       <use xlink:href="#DejaVuSans-36"/>
       <use xlink:href="#DejaVuSans-30" x="63.623047"/>
       <use xlink:href="#DejaVuSans-30" x="127.246094"/>
       <use xlink:href="#DejaVuSans-30" x="190.869141"/>
       <use xlink:href="#DejaVuSans-30" x="254.492188"/>
      </g>
     </g>
    </g>
    <g id="text_8">
     <!-- Time(ms) -->
     <g transform="translate(197.789844 280.276563)scale(0.1 -0.1)">
      <defs>
       <path id="DejaVuSans-54" d="M -19 4666 
L 3928 4666 
L 3928 4134 
L 2272 4134 
L 2272 0 
L 1638 0 
L 1638 4134 
L -19 4134 
L -19 4666 
z
" transform="scale(0.015625)"/>
       <path id="DejaVuSans-69" d="M 603 3500 
L 1178 3500 
L 1178 0 
L 603 0 
L 603 3500 
z
M 603 4863 
L 1178 4863 
L 1178 4134 
L 603 4134 
L 603 4863 
z
" transform="scale(0.015625)"/>
       <path id="DejaVuSans-6d" d="M 3328 2828 
Q 3544 3216 3844 3400 
Q 4144 3584 4550 3584 
Q 5097 3584 5394 3201 
Q 5691 2819 5691 2113 
L 5691 0 
L 5113 0 
L 5113 2094 
Q 5113 2597 4934 2840 
Q 4756 3084 4391 3084 
Q 3944 3084 3684 2787 
Q 3425 2491 3425 1978 
L 3425 0 
L 2847 0 
L 2847 2094 
Q 2847 2600 2669 2842 
Q 2491 3084 2119 3084 
Q 1678 3084 1418 2786 
Q 1159 2488 1159 1978 
L 1159 0 
L 581 0 
L 581 3500 
L 1159 3500 
L 1159 2956 
Q 1356 3278 1631 3431 
Q 1906 3584 2284 3584 
Q 2666 3584 2933 3390 
Q 3200 3197 3328 2828 
z
" transform="scale(0.015625)"/>
       <path id="DejaVuSans-65" d="M 3597 1894 
L 3597 1613 
L 953 1613 
Q 991 1019 1311 708 
Q 1631 397 2203 397 
Q 2534 397 2845 478 
Q 3156 559 3463 722 
L 3463 178 
Q 3153 47 2828 -22 
Q 2503 -91 2169 -91 
Q 1331 -91 842 396 
Q 353 884 353 1716 
Q 353 2575 817 3079 
Q 1281 3584 2069 3584 
Q 2775 3584 3186 3129 
Q 3597 2675 3597 1894 
z
M 3022 2063 
Q 3016 2534 2758 2815 
Q 2500 3097 2075 3097 
Q 1594 3097 1305 2825 
Q 1016 2553 972 2059 
L 3022 2063 
z
" transform="scale(0.015625)"/>
       <path id="DejaVuSans-28" d="M 1984 4856 
Q 1566 4138 1362 3434 
Q 1159 2731 1159 2009 
Q 1159 1288 1364 580 
Q 1569 -128 1984 -844 
L 1484 -844 
Q 1016 -109 783 600 
Q 550 1309 550 2009 
Q 550 2706 781 3412 
Q 1013 4119 1484 4856 
L 1984 4856 
z
" transform="scale(0.015625)"/>
       <path id="DejaVuSans-73" d="M 2834 3397 
L 2834 2853 
Q 2591 2978 2328 3040 
Q 2066 3103 1784 3103 
Q 1356 3103 1142 2972 
Q 928 2841 928 2578 
Q 928 2378 1081 2264 
Q 1234 2150 1697 2047 
L 1894 2003 
Q 2506 1872 2764 1633 
Q 3022 1394 3022 966 
Q 3022 478 2636 193 
Q 2250 -91 1575 -91 
Q 1294 -91 989 -36 
Q 684 19 347 128 
L 347 722 
Q 666 556 975 473 
Q 1284 391 1588 391 
Q 1994 391 2212 530 
Q 2431 669 2431 922 
Q 2431 1156 2273 1281 
Q 2116 1406 1581 1522 
L 1381 1569 
Q 847 1681 609 1914 
Q 372 2147 372 2553 
Q 372 3047 722 3315 
Q 1072 3584 1716 3584 
Q 2034 3584 2315 3537 
Q 2597 3491 2834 3397 
z
" transform="scale(0.015625)"/>
       <path id="DejaVuSans-29" d="M 513 4856 
L 1013 4856 
Q 1481 4119 1714 3412 
Q 1947 2706 1947 2009 
Q 1947 1309 1714 600 
Q 1481 -109 1013 -844 
L 513 -844 
Q 928 -128 1133 580 
Q 1338 1288 1338 2009 
Q 1338 2731 1133 3434 
Q 928 4138 513 4856 
z
" transform="scale(0.015625)"/>
      </defs>
      <use xlink:href="#DejaVuSans-54"/>
      <use xlink:href="#DejaVuSans-69" x="57.958984"/>
      <use xlink:href="#DejaVuSans-6d" x="85.742188"/>
      <use xlink:href="#DejaVuSans-65" x="183.154297"/>
      <use xlink:href="#DejaVuSans-28" x="244.677734"/>
      <use xlink:href="#DejaVuSans-6d" x="283.691406"/>
      <use xlink:href="#DejaVuSans-73" x="381.103516"/>
      <use xlink:href="#DejaVuSans-29" x="433.203125"/>
     </g>
    </g>
   </g>
   <g id="matplotlib.axis_2">
    <g id="ytick_1">
     <g id="line2d_8">
      <defs>
       <path id="m37525e39a0" d="M 0 0 
L -3.5 0 
" style="stroke: #000000; stroke-width: 0.8"/>
      </defs>
      <g>
       <use xlink:href="#m37525e39a0" x="54" y="252" style="stroke: #000000; stroke-width: 0.8"/>
      </g>
     </g>
     <g id="text_9">
      <!-- −100 -->
      <g transform="translate(19.532812 255.799219)scale(0.1 -0.1)">
       <defs>
        <path id="DejaVuSans-2212" d="M 678 2272 
L 4684 2272 
L 4684 1741 
L 678 1741 
L 678 2272 
z
" transform="scale(0.015625)"/>
       </defs>
       <use xlink:href="#DejaVuSans-2212"/>
       <use xlink:href="#DejaVuSans-31" x="83.789062"/>
       <use xlink:href="#DejaVuSans-30" x="147.412109"/>
       <use xlink:href="#DejaVuSans-30" x="211.035156"/>
      </g>
     </g>
    </g>
    <g id="ytick_2">
     <g id="line2d_9">
      <g>
       <use xlink:href="#m37525e39a0" x="54" y="208.512" style="stroke: #000000; stroke-width: 0.8"/>
      </g>
     </g>
     <g id="text_10">
      <!-- −90 -->
      <g transform="translate(25.895312 212.311219)scale(0.1 -0.1)">
       <defs>
        <path id="DejaVuSans-39" d="M 703 97 
L 703 672 
Q 941 559 1184 500 
Q 1428 441 1663 441 
Q 2288 441 2617 861 
Q 2947 1281 2994 2138 
Q 2813 1869 2534 1725 
Q 2256 1581 1919 1581 
Q 1219 1581 811 2004 
Q 403 2428 403 3163 
Q 403 3881 828 4315 
Q 1253 4750 1959 4750 
Q 2769 4750 3195 4129 
Q 3622 3509 3622 2328 
Q 3622 1225 3098 567 
Q 2575 -91 1691 -91 
Q 1453 -91 1209 -44 
Q 966 3 703 97 
z
M 1959 2075 
Q 2384 2075 2632 2365 
Q 2881 2656 2881 3163 
Q 2881 3666 2632 3958 
Q 2384 4250 1959 4250 
Q 1534 4250 1286 3958 
Q 1038 3666 1038 3163 
Q 1038 2656 1286 2365 
Q 1534 2075 1959 2075 
z
" transform="scale(0.015625)"/>
       </defs>
       <use xlink:href="#DejaVuSans-2212"/>
       <use xlink:href="#DejaVuSans-39" x="83.789062"/>
       <use xlink:href="#DejaVuSans-30" x="147.412109"/>
      </g>
     </g>
    </g>
    <g id="ytick_3">
     <g id="line2d_10">
      <g>
       <use xlink:href="#m37525e39a0" x="54" y="165.024" style="stroke: #000000; stroke-width: 0.8"/>
      </g>
     </g>
     <g id="text_11">
      <!-- −80 -->
      <g transform="translate(25.895312 168.823219)scale(0.1 -0.1)">
       <defs>
        <path id="DejaVuSans-38" d="M 2034 2216 
Q 1584 2216 1326 1975 
Q 1069 1734 1069 1313 
Q 1069 891 1326 650 
Q 1584 409 2034 409 
Q 2484 409 2743 651 
Q 3003 894 3003 1313 
Q 3003 1734 2745 1975 
Q 2488 2216 2034 2216 
z
M 1403 2484 
Q 997 2584 770 2862 
Q 544 3141 544 3541 
Q 544 4100 942 4425 
Q 1341 4750 2034 4750 
Q 2731 4750 3128 4425 
Q 3525 4100 3525 3541 
Q 3525 3141 3298 2862 
Q 3072 2584 2669 2484 
Q 3125 2378 3379 2068 
Q 3634 1759 3634 1313 
Q 3634 634 3220 271 
Q 2806 -91 2034 -91 
Q 1263 -91 848 271 
Q 434 634 434 1313 
Q 434 1759 690 2068 
Q 947 2378 1403 2484 
z
M 1172 3481 
Q 1172 3119 1398 2916 
Q 1625 2713 2034 2713 
Q 2441 2713 2670 2916 
Q 2900 3119 2900 3481 
Q 2900 3844 2670 4047 
Q 2441 4250 2034 4250 
Q 1625 4250 1398 4047 
Q 1172 3844 1172 3481 
z
" transform="scale(0.015625)"/>
       </defs>
       <use xlink:href="#DejaVuSans-2212"/>
       <use xlink:href="#DejaVuSans-38" x="83.789062"/>
       <use xlink:href="#DejaVuSans-30" x="147.412109"/>
      </g>
     </g>
    </g>
    <g id="ytick_4">
     <g id="line2d_11">
      <g>
       <use xlink:href="#m37525e39a0" x="54" y="121.536" style="stroke: #000000; stroke-width: 0.8"/>
      </g>
     </g>
     <g id="text_12">
      <!-- −70 -->
      <g transform="translate(25.895312 125.335219)scale(0.1 -0.1)">
       <defs>
        <path id="DejaVuSans-37" d="M 525 4666 
L 3525 4666 
L 3525 4397 
L 1831 0 
L 1172 0 
L 2766 4134 
L 525 4134 
L 525 4666 
z
" transform="scale(0.015625)"/>
       </defs>
       <use xlink:href="#DejaVuSans-2212"/>
       <use xlink:href="#DejaVuSans-37" x="83.789062"/>
       <use xlink:href="#DejaVuSans-30" x="147.412109"/>
      </g>
     </g>
    </g>
    <g id="ytick_5">
     <g id="line2d_12">
      <g>
       <use xlink:href="#m37525e39a0" x="54" y="78.048" style="stroke: #000000; stroke-width: 0.8"/>
      </g>
     </g>
     <g id="text_13">
      <!-- −60 -->
      <g transform="translate(25.895312 81.847219)scale(0.1 -0.1)">
       <use xlink:href="#DejaVuSans-2212"/>
       <use xlink:href="#DejaVuSans-36" x="83.789062"/>
       <use xlink:href="#DejaVuSans-30" x="147.412109"/>
      </g>
     </g>
    </g>
    <g id="ytick_6">
     <g id="line2d_13">
      <g>
       <use xlink:href="#m37525e39a0" x="54" y="34.56" style="stroke: #000000; stroke-width: 0.8"/>
      </g>
     </g>
     <g id="text_14">
      <!-- −50 -->
      <g transform="translate(25.895312 38.359219)scale(0.1 -0.1)">
       <use xlink:href="#DejaVuSans-2212"/>
       <use xlink:href="#DejaVuSans-35" x="83.789062"/>
       <use xlink:href="#DejaVuSans-30" x="147.412109"/>
      </g>
     </g>
    </g>
    <g id="text_15">
     <!-- Membrane potential (mV) -->
     <g transform="translate(13.453125 207.691719)rotate(-90)scale(0.1 -0.1)">
      <defs>
       <path id="DejaVuSans-4d" d="M 628 4666 
L 1569 4666 
L 2759 1491 
L 3956 4666 
L 4897 4666 
L 4897 0 
L 4281 0 
L 4281 4097 
L 3078 897 
L 2444 897 
L 1241 4097 
L 1241 0 
L 628 0 
L 628 4666 
z
" transform="scale(0.015625)"/>
       <path id="DejaVuSans-62" d="M 3116 1747 
Q 3116 2381 2855 2742 
Q 2594 3103 2138 3103 
Q 1681 3103 1420 2742 
Q 1159 2381 1159 1747 
Q 1159 1113 1420 752 
Q 1681 391 2138 391 
Q 2594 391 2855 752 
Q 3116 1113 3116 1747 
z
M 1159 2969 
Q 1341 3281 1617 3432 
Q 1894 3584 2278 3584 
Q 2916 3584 3314 3078 
Q 3713 2572 3713 1747 
Q 3713 922 3314 415 
Q 2916 -91 2278 -91 
Q 1894 -91 1617 61 
Q 1341 213 1159 525 
L 1159 0 
L 581 0 
L 581 4863 
L 1159 4863 
L 1159 2969 
z
" transform="scale(0.015625)"/>
       <path id="DejaVuSans-72" d="M 2631 2963 
Q 2534 3019 2420 3045 
Q 2306 3072 2169 3072 
Q 1681 3072 1420 2755 
Q 1159 2438 1159 1844 
L 1159 0 
L 581 0 
L 581 3500 
L 1159 3500 
L 1159 2956 
Q 1341 3275 1631 3429 
Q 1922 3584 2338 3584 
Q 2397 3584 2469 3576 
Q 2541 3569 2628 3553 
L 2631 2963 
z
" transform="scale(0.015625)"/>
       <path id="DejaVuSans-61" d="M 2194 1759 
Q 1497 1759 1228 1600 
Q 959 1441 959 1056 
Q 959 750 1161 570 
Q 1363 391 1709 391 
Q 2188 391 2477 730 
Q 2766 1069 2766 1631 
L 2766 1759 
L 2194 1759 
z
M 3341 1997 
L 3341 0 
L 2766 0 
L 2766 531 
Q 2569 213 2275 61 
Q 1981 -91 1556 -91 
Q 1019 -91 701 211 
Q 384 513 384 1019 
Q 384 1609 779 1909 
Q 1175 2209 1959 2209 
L 2766 2209 
L 2766 2266 
Q 2766 2663 2505 2880 
Q 2244 3097 1772 3097 
Q 1472 3097 1187 3025 
Q 903 2953 641 2809 
L 641 3341 
Q 956 3463 1253 3523 
Q 1550 3584 1831 3584 
Q 2591 3584 2966 3190 
Q 3341 2797 3341 1997 
z
" transform="scale(0.015625)"/>
       <path id="DejaVuSans-6e" d="M 3513 2113 
L 3513 0 
L 2938 0 
L 2938 2094 
Q 2938 2591 2744 2837 
Q 2550 3084 2163 3084 
Q 1697 3084 1428 2787 
Q 1159 2491 1159 1978 
L 1159 0 
L 581 0 
L 581 3500 
L 1159 3500 
L 1159 2956 
Q 1366 3272 1645 3428 
Q 1925 3584 2291 3584 
Q 2894 3584 3203 3211 
Q 3513 2838 3513 2113 
z
" transform="scale(0.015625)"/>
       <path id="DejaVuSans-20" transform="scale(0.015625)"/>
       <path id="DejaVuSans-70" d="M 1159 525 
L 1159 -1331 
L 581 -1331 
L 581 3500 
L 1159 3500 
L 1159 2969 
Q 1341 3281 1617 3432 
Q 1894 3584 2278 3584 
Q 2916 3584 3314 3078 
Q 3713 2572 3713 1747 
Q 3713 922 3314 415 
Q 2916 -91 2278 -91 
Q 1894 -91 1617 61 
Q 1341 213 1159 525 
z
M 3116 1747 
Q 3116 2381 2855 2742 
Q 2594 3103 2138 3103 
Q 1681 3103 1420 2742 
Q 1159 2381 1159 1747 
Q 1159 1113 1420 752 
Q 1681 391 2138 391 
Q 2594 391 2855 752 
Q 3116 1113 3116 1747 
z
" transform="scale(0.015625)"/>
       <path id="DejaVuSans-6f" d="M 1959 3097 
Q 1497 3097 1228 2736 
Q 959 2375 959 1747 
Q 959 1119 1226 758 
Q 1494 397 1959 397 
Q 2419 397 2687 759 
Q 2956 1122 2956 1747 
Q 2956 2369 2687 2733 
Q 2419 3097 1959 3097 
z
M 1959 3584 
Q 2709 3584 3137 3096 
Q 3566 2609 3566 1747 
Q 3566 888 3137 398 
Q 2709 -91 1959 -91 
Q 1206 -91 779 398 
Q 353 888 353 1747 
Q 353 2609 779 3096 
Q 1206 3584 1959 3584 
z
" transform="scale(0.015625)"/>
       <path id="DejaVuSans-74" d="M 1172 4494 
L 1172 3500 
L 2356 3500 
L 2356 3053 
L 1172 3053 
L 1172 1153 
Q 1172 725 1289 603 
Q 1406 481 1766 481 
L 2356 481 
L 2356 0 
L 1766 0 
Q 1100 0 847 248 
Q 594 497 594 1153 
L 594 3053 
L 172 3053 
L 172 3500 
L 594 3500 
L 594 4494 
L 1172 4494 
z
" transform="scale(0.015625)"/>
       <path id="DejaVuSans-6c" d="M 603 4863 
L 1178 4863 
L 1178 0 
L 603 0 
L 603 4863 
z
" transform="scale(0.015625)"/>
       <path id="DejaVuSans-56" d="M 1831 0 
L 50 4666 
L 709 4666 
L 2188 738 
L 3669 4666 
L 4325 4666 
L 2547 0 
L 1831 0 
z
" transform="scale(0.015625)"/>
      </defs>
      <use xlink:href="#DejaVuSans-4d"/>
      <use xlink:href="#DejaVuSans-65" x="86.279297"/>
      <use xlink:href="#DejaVuSans-6d" x="147.802734"/>
      <use xlink:href="#DejaVuSans-62" x="245.214844"/>
      <use xlink:href="#DejaVuSans-72" x="308.691406"/>
      <use xlink:href="#DejaVuSans-61" x="349.804688"/>
      <use xlink:href="#DejaVuSans-6e" x="411.083984"/>
      <use xlink:href="#DejaVuSans-65" x="474.462891"/>
      <use xlink:href="#DejaVuSans-20" x="535.986328"/>
      <use xlink:href="#DejaVuSans-70" x="567.773438"/>
      <use xlink:href="#DejaVuSans-6f" x="631.25"/>
      <use xlink:href="#DejaVuSans-74" x="692.431641"/>
      <use xlink:href="#DejaVuSans-65" x="731.640625"/>
      <use xlink:href="#DejaVuSans-6e" x="793.164062"/>
      <use xlink:href="#DejaVuSans-74" x="856.542969"/>
      <use xlink:href="#DejaVuSans-69" x="895.751953"/>
      <use xlink:href="#DejaVuSans-61" x="923.535156"/>
      <use xlink:href="#DejaVuSans-6c" x="984.814453"/>
      <use xlink:href="#DejaVuSans-20" x="1012.597656"/>
      <use xlink:href="#DejaVuSans-28" x="1044.384766"/>
      <use xlink:href="#DejaVuSans-6d" x="1083.398438"/>
      <use xlink:href="#DejaVuSans-56" x="1180.810547"/>
      <use xlink:href="#DejaVuSans-29" x="1249.21875"/>
     </g>
    </g>
   </g>
   <g id="line2d_14">
    <path d="M 69.218182 178.0704 
L 69.319636 174.579025 
L 69.352609 174.662313 
L 69.522545 175.981537 
L 69.829445 178.237855 
L 69.870027 178.014564 
L 70.0983 174.675667 
L 70.471145 169.104751 
L 70.580209 168.913665 
L 70.623327 168.952863 
L 70.757755 169.364567 
L 71.069727 171.218816 
L 71.843318 176.306831 
L 71.888973 176.11151 
L 72.809673 169.374244 
L 72.835036 169.384752 
L 72.951709 169.607051 
L 73.192664 170.67173 
L 74.909782 179.484748 
L 75.100009 180.00082 
L 75.135518 179.827488 
L 75.323209 177.168424 
L 75.5946 175.015922 
L 75.762 174.804693 
L 75.774682 174.810008 
L 75.916718 175.00834 
L 76.218545 175.917595 
L 76.872927 178.133216 
L 76.928727 178.044825 
L 77.126564 177.182003 
L 77.451218 176.177526 
L 77.646518 176.109623 
L 77.849427 176.322658 
L 78.224809 177.113726 
L 78.620482 178.134012 
L 78.650918 177.89112 
L 79.175945 172.183786 
L 79.2774 172.286804 
L 79.480309 172.931057 
L 80.185418 176.143139 
L 80.261509 175.677332 
L 80.418764 172.943811 
L 80.910818 164.834594 
L 81.131482 163.73266 
L 81.212645 163.765051 
L 81.2304 163.794354 
L 81.390191 164.330238 
L 81.735136 166.451864 
L 81.938045 167.622971 
L 81.993845 167.504237 
L 82.379373 166.105311 
L 82.452927 166.183884 
L 82.620327 166.727774 
L 82.9881 168.869344 
L 84.114245 175.569986 
L 84.725509 177.8394 
L 84.755945 177.697797 
L 84.918273 175.28384 
L 86.052027 159.968171 
L 86.107827 159.941778 
L 86.156018 160.011205 
L 86.303127 160.619259 
L 86.643 163.21428 
L 87.799582 172.353336 
L 87.824945 172.393843 
L 87.873136 172.237307 
L 88.005027 170.781275 
L 88.474255 164.573538 
L 88.585855 164.426353 
L 88.626436 164.460194 
L 88.7634 164.827751 
L 89.057618 166.403409 
L 89.567427 169.651456 
L 89.635909 169.400253 
L 90.031582 167.612633 
L 90.143182 167.715292 
L 90.343555 168.306242 
L 90.807709 170.55098 
L 91.812109 175.257828 
L 92.469027 177.282763 
L 93.105655 178.564724 
L 93.668727 179.319573 
L 93.678873 179.284923 
L 93.754964 177.867843 
L 94.074545 172.924632 
L 94.279991 172.323302 
L 94.396664 172.413618 
L 94.612255 172.976352 
L 95.198155 175.184015 
L 95.241273 174.724638 
L 95.636945 169.712991 
L 95.728255 169.6341 
L 95.771373 169.676014 
L 95.923555 170.094857 
L 96.316691 172.020493 
L 97.199345 176.148706 
L 97.825827 178.041442 
L 98.442164 179.235888 
L 99.096545 180.035758 
L 99.859991 180.617015 
L 100.872 181.094677 
L 102.452155 181.570812 
L 103.294227 181.690887 
L 103.2993 181.668696 
L 103.413436 180.572643 
L 103.798964 177.199847 
L 104.029773 176.724197 
L 104.189564 176.775935 
L 104.430518 177.167405 
L 104.988518 178.550301 
L 105.034173 178.218646 
L 105.536373 173.199599 
L 105.637827 173.204655 
L 105.660655 173.23153 
L 105.8661 173.664482 
L 105.929509 173.413561 
L 106.441855 170.481561 
L 106.469755 170.493213 
L 106.601645 170.719873 
L 106.8705 171.739829 
L 108.437973 178.455978 
L 108.940173 179.611605 
L 108.957927 179.583018 
L 109.028945 178.960853 
L 109.4373 175.070616 
L 109.607236 174.897299 
L 109.617382 174.901867 
L 109.7721 175.108874 
L 110.101827 176.026406 
L 111.273627 179.452979 
L 111.902645 180.544562 
L 112.551955 181.241922 
L 112.972991 181.528651 
L 112.993282 181.472706 
L 113.0922 180.500399 
L 113.213945 177.248905 
L 113.520845 170.913205 
L 113.919055 166.096759 
L 114.142255 164.472555 
L 114.200591 164.453982 
L 114.243709 164.514013 
L 114.393355 165.076619 
L 114.778882 167.422367 
L 114.882873 167.050273 
L 115.179627 166.028386 
L 115.278545 166.15092 
L 115.448482 166.619068 
L 115.514427 166.428334 
L 115.889809 164.899684 
L 115.930391 164.92843 
L 116.064818 165.261047 
L 116.333673 166.568838 
L 116.397082 166.089926 
L 116.496 163.406631 
L 116.805436 156.014199 
L 116.950009 155.446915 
L 116.980445 155.469742 
L 117.084436 155.810174 
L 117.315245 157.137865 
L 117.396409 156.80323 
L 117.789545 154.559259 
L 117.814909 154.572073 
L 117.921436 154.817546 
L 118.139564 156.0244 
L 118.662055 160.504945 
L 119.154109 164.827298 
L 119.2023 164.50013 
L 119.565 161.679908 
L 119.6487 161.785562 
L 119.818636 162.503362 
L 120.257427 165.609872 
L 120.797673 169.067959 
L 120.8205 169.054799 
L 120.937173 168.765625 
L 121.233927 168.185055 
L 121.373427 168.284594 
L 121.424155 168.343825 
L 121.457127 168.226838 
L 121.599164 166.651218 
L 121.906064 164.159606 
L 122.025273 164.019552 
L 122.063318 164.047768 
L 122.202818 164.376508 
L 122.314418 164.7256 
L 122.370218 164.561006 
L 122.710091 163.262785 
L 122.743064 163.281341 
L 122.869882 163.556739 
L 123.131127 164.790727 
L 124.414527 172.355787 
L 124.490618 171.999075 
L 124.878682 167.798559 
L 125.611691 153.28081 
L 125.6751 153.208698 
L 125.728364 153.283625 
L 125.8704 153.927554 
L 126.200127 156.723213 
L 126.253391 157.004007 
L 126.314264 156.768961 
L 126.593264 155.508332 
L 126.621164 155.525881 
L 126.727691 155.809431 
L 126.955964 157.208851 
L 127.775209 164.349068 
L 128.538655 169.744775 
L 129.205718 172.974813 
L 129.837273 175.016401 
L 129.862636 175.021352 
L 129.900682 174.920863 
L 130.040182 173.8319 
L 130.410491 171.331184 
L 130.605791 171.111483 
L 130.757973 171.269139 
L 131.044582 171.972414 
L 132.8175 176.926612 
L 133.527682 178.014517 
L 133.890382 178.415192 
L 133.913209 178.329065 
L 134.009591 176.812599 
L 134.537155 168.744395 
L 134.762891 167.541428 
L 134.844055 167.534772 
L 134.877027 167.575679 
L 135.039355 168.04064 
L 135.427418 170.012391 
L 135.8028 172.078735 
L 135.843382 171.759454 
L 136.266955 167.64893 
L 136.358264 167.706964 
L 136.363336 167.716078 
L 136.533273 168.269363 
L 136.997427 170.788614 
L 137.821745 174.877939 
L 138.458373 176.96061 
L 139.084855 178.291354 
L 139.746845 179.19366 
L 139.899027 179.342348 
L 139.921855 179.234156 
L 140.030918 177.293927 
L 140.332745 173.277912 
L 140.543264 172.695388 
L 140.667545 172.77296 
L 140.883136 173.276005 
L 141.616145 175.831147 
L 141.930655 176.787494 
L 141.963627 176.627534 
L 142.141173 174.082267 
L 142.623082 167.085838 
L 142.7778 166.795826 
L 142.800627 166.806396 
L 142.922373 167.030009 
L 143.178545 168.089151 
L 143.779664 171.263875 
L 143.863364 171.009265 
L 144.317373 169.218964 
L 144.319909 169.219533 
L 144.441655 169.363299 
L 144.672464 170.078981 
L 144.974291 171.402382 
L 145.017409 170.99629 
L 145.402936 166.650158 
L 145.476491 166.608551 
L 145.522145 166.660332 
L 145.676864 167.14311 
L 146.064927 169.28792 
L 146.245009 170.157971 
L 146.300809 170.043881 
L 146.744673 168.492073 
L 146.813155 168.547257 
L 146.993236 168.966965 
L 147.289991 170.019476 
L 147.358473 169.772402 
L 147.8556 167.193148 
L 147.875891 167.19974 
L 148.002709 167.391648 
L 148.253809 168.287445 
L 148.393309 168.91861 
L 148.431355 168.611591 
L 148.854927 164.202301 
L 148.9437 164.294387 
L 149.116173 164.954181 
L 149.359664 166.353834 
L 149.415464 165.942205 
L 149.783236 162.695215 
L 149.859327 162.744538 
L 149.872009 162.769281 
L 150.0318 163.37324 
L 150.435082 166.015379 
L 151.386218 172.047109 
L 152.0406 174.79409 
L 152.674691 176.55305 
L 153.329073 177.741636 
L 154.051936 178.602708 
L 154.926982 179.293743 
L 156.111464 179.93072 
L 156.185018 179.942887 
L 156.202773 179.856601 
L 156.306764 178.194703 
L 156.608591 174.521114 
L 156.821645 173.976452 
L 156.951 174.050978 
L 157.1742 174.536031 
L 157.407545 175.237683 
L 157.448127 174.977693 
L 157.580018 172.065953 
L 158.127873 159.983797 
L 158.221718 159.831304 
L 158.269909 159.882531 
L 158.406873 160.372425 
L 158.713773 162.495919 
L 158.957264 164.27997 
L 159.0156 164.073367 
L 159.330109 162.601749 
L 159.363082 162.622519 
L 159.482291 162.918513 
L 159.741 164.302329 
L 159.946445 164.901144 
L 160.281245 164.984415 
L 160.491764 165.59597 
L 160.910264 167.657341 
L 161.384564 170.218211 
L 161.440364 169.987405 
L 161.838573 167.66663 
L 161.856327 167.672649 
L 161.973 167.866152 
L 162.219027 168.825026 
L 162.688255 171.251375 
L 162.751664 170.856853 
L 163.137191 168.022306 
L 163.238645 167.981569 
L 163.274155 168.015659 
L 163.436482 168.404245 
L 163.794109 169.984179 
L 164.965909 175.328983 
L 165.617755 177.205286 
L 166.261991 178.417335 
L 166.954418 179.25918 
L 167.771127 179.899683 
L 167.935991 179.962176 
L 167.961355 179.893803 
L 168.072955 179.005484 
L 168.519355 175.367665 
L 168.745091 174.997741 
L 168.912491 175.07 
L 169.176273 175.500639 
L 169.861091 177.196747 
L 170.127409 177.831937 
L 170.150236 177.624531 
L 170.868027 168.339349 
L 171.073473 167.579584 
L 171.167318 167.686284 
L 171.355009 168.368114 
L 171.717709 170.252828 
L 171.796336 169.944486 
L 171.892718 168.542662 
L 172.367018 160.937329 
L 172.6308 159.380893 
L 172.706891 159.353673 
L 172.747473 159.402459 
L 172.894582 159.872567 
L 173.206555 161.789072 
L 173.696073 165.332914 
L 173.767091 165.045626 
L 174.056236 162.23139 
L 174.418936 158.619399 
L 174.515318 158.508416 
L 174.558436 158.551128 
L 174.604091 158.640205 
L 174.631991 158.476371 
L 175.007373 154.948006 
L 175.070782 155.030864 
L 175.106291 155.063102 
L 175.149409 154.949305 
L 175.458845 153.491466 
L 175.542545 153.63291 
L 175.712482 154.502174 
L 176.105618 157.959517 
L 176.4252 160.839111 
L 176.481 160.586761 
L 176.876673 158.043396 
L 176.907109 158.060148 
L 177.021245 158.328708 
L 177.257127 159.588104 
L 177.891218 164.305933 
L 178.002818 163.850731 
L 178.314791 162.633926 
L 178.416245 162.721076 
L 178.591255 163.294765 
L 178.743436 163.979242 
L 178.794164 163.711308 
L 179.182227 161.019319 
L 179.197445 161.024443 
L 179.2989 161.214096 
L 179.511955 162.215487 
L 179.681891 162.986389 
L 179.737691 162.895923 
L 179.8011 162.416953 
L 179.993864 156.76066 
L 180.2754 151.880608 
L 180.417436 151.43873 
L 180.447873 151.46203 
L 180.556936 151.794679 
L 180.797891 153.419343 
L 181.619673 161.202049 
L 182.459209 167.909095 
L 183.156709 171.803521 
L 183.265773 172.213969 
L 183.3165 172.035378 
L 183.864355 168.98647 
L 183.912545 169.01152 
L 184.0419 169.168579 
L 184.082482 169.019144 
L 184.252418 167.239631 
L 184.513664 165.628659 
L 184.617655 165.565956 
L 184.653164 165.597706 
L 184.807882 165.966572 
L 185.140145 167.473185 
L 186.382964 173.64788 
L 186.403255 173.556918 
L 186.545291 171.452942 
L 186.806536 169.221518 
L 187.050027 168.193706 
L 187.392436 164.842754 
L 187.493891 164.744206 
L 187.534473 164.779762 
L 187.681582 165.161448 
L 188.011309 166.789483 
L 188.244655 168.068809 
L 188.295382 167.796231 
L 188.7291 164.686957 
L 188.734173 164.687799 
L 188.835627 164.826872 
L 189.041073 165.603769 
L 189.624436 168.986858 
L 190.329545 172.592684 
L 190.342227 172.583957 
L 190.413245 172.290418 
L 190.890082 169.970572 
L 191.004218 169.815979 
L 191.077773 168.30545 
L 191.526709 157.631014 
L 191.681427 157.154527 
L 191.704255 157.167316 
L 191.808245 157.419984 
L 192.033982 158.69828 
L 192.728945 164.135961 
L 192.840545 163.637234 
L 193.122082 162.506088 
L 193.221 162.590362 
L 193.396009 163.164269 
L 193.5837 164.075482 
L 193.634427 163.734494 
L 193.814509 160.07167 
L 194.182282 151.891881 
L 194.385191 151.08198 
L 194.471427 151.203673 
L 194.593173 151.62489 
L 194.646436 151.372541 
L 194.988845 149.286278 
L 195.021818 149.309326 
L 195.179073 149.612064 
L 195.255164 149.442753 
L 195.465682 148.99744 
L 195.498655 149.024449 
L 195.615327 149.359593 
L 195.848673 150.870724 
L 196.4853 156.950083 
L 196.7085 158.54658 
L 196.751618 158.487346 
L 197.101636 157.602754 
L 197.185336 157.704771 
L 197.367955 158.319213 
L 197.586082 159.284933 
L 197.654564 159.10249 
L 197.948782 158.162862 
L 197.974145 158.1769 
L 198.093355 158.429793 
L 198.334309 159.594661 
L 199.026736 164.451868 
L 199.896709 169.818827 
L 200.104691 170.759893 
L 200.152882 170.554194 
L 200.639864 167.510326 
L 200.657618 167.515408 
L 200.784436 167.695011 
L 201.048218 168.563575 
L 202.765336 175.004115 
L 203.259927 176.072905 
L 203.282755 176.030534 
L 203.366455 175.367804 
L 203.967573 166.978906 
L 204.223745 164.958961 
L 204.350564 164.815408 
L 204.383536 164.837724 
L 204.525573 165.134429 
L 204.824864 166.394527 
L 205.847018 171.660561 
L 205.912964 171.314334 
L 206.346682 168.272468 
L 206.468427 168.322289 
L 206.653582 168.771296 
L 207.099982 170.596643 
L 207.353618 171.607143 
L 207.406882 171.4696 
L 207.863427 169.598982 
L 207.909082 169.625069 
L 208.071409 169.923859 
L 208.421427 171.152944 
L 209.108782 173.895501 
L 209.1519 173.66328 
L 209.679464 169.454335 
L 209.687073 169.455548 
L 209.806282 169.600388 
L 210.049773 170.356625 
L 211.315418 175.135927 
L 211.378827 175.033625 
L 211.576664 174.140206 
L 211.733918 172.304449 
L 212.083936 168.971975 
L 212.347718 167.327543 
L 212.657155 165.908205 
L 212.809336 165.837532 
L 212.822018 165.846074 
L 212.986882 166.108459 
L 213.298855 167.111267 
L 213.742718 168.994153 
L 213.801055 168.652594 
L 214.161218 166.09049 
L 214.249991 166.11224 
L 214.270282 166.141282 
L 214.437682 166.625767 
L 214.835891 168.638516 
L 214.934809 169.125683 
L 214.988073 168.891434 
L 215.350773 167.020711 
L 215.452227 167.138614 
L 215.655136 167.840053 
L 216.279082 171.12887 
L 217.050136 174.592593 
L 217.260655 175.254939 
L 217.311382 175.140209 
L 217.737491 173.873416 
L 217.742564 173.874842 
L 217.811045 173.832273 
L 217.823727 173.786465 
L 217.9404 172.829919 
L 218.153455 167.121714 
L 218.417236 163.682765 
L 218.564345 163.351048 
L 218.589709 163.365293 
L 218.706382 163.62247 
L 218.960018 164.859343 
L 219.898473 170.625477 
L 219.992318 170.361397 
L 220.220591 168.870926 
L 220.710109 162.345246 
L 220.798882 162.262143 
L 220.844536 162.30788 
L 220.989109 162.742417 
L 221.039836 162.877603 
L 221.080418 162.678685 
L 221.1768 160.592289 
L 221.536964 153.098792 
L 221.663782 152.718607 
L 221.701827 152.753442 
L 221.8185 153.165093 
L 222.079745 155.098699 
L 222.5997 159.74043 
L 222.685936 159.553221 
L 222.9345 159.002606 
L 222.957327 159.015509 
L 223.074 159.259379 
L 223.302273 160.387676 
L 223.6041 162.43082 
L 223.672582 162.012024 
L 224.014991 159.684673 
L 224.103764 159.761263 
L 224.261018 160.358909 
L 224.623718 162.836819 
L 225.247664 167.42881 
L 225.298391 167.199707 
L 225.704209 164.476388 
L 225.732109 164.489926 
L 225.851318 164.734249 
L 226.112564 165.911821 
L 227.801782 174.562651 
L 228.453627 176.397313 
L 228.471382 176.416136 
L 228.501818 176.263979 
L 228.661609 173.686408 
L 228.922855 171.38802 
L 229.090255 171.149988 
L 229.102936 171.155154 
L 229.2399 171.35116 
L 229.529045 172.260161 
L 230.916436 177.042606 
L 231.573355 178.361846 
L 232.258173 179.253661 
L 233.046982 179.914676 
L 234.071673 180.470232 
L 235.507255 180.985564 
L 235.555445 180.698314 
L 235.763427 177.345822 
L 236.039891 174.866796 
L 236.245336 174.505962 
L 236.384836 174.619284 
L 236.646082 175.207806 
L 238.289645 179.474413 
L 238.766482 180.126263 
L 238.786773 180.092952 
L 238.8654 179.514053 
L 239.344773 175.486682 
L 239.555291 175.218454 
L 239.644064 175.119874 
L 239.788636 173.353019 
L 240.087927 170.815782 
L 240.237573 170.614148 
L 240.2604 170.626527 
L 240.397364 170.871219 
L 240.689045 171.967627 
L 241.936936 177.116252 
L 241.949618 177.104364 
L 242.0181 176.755249 
L 242.604 172.95484 
L 242.751109 171.492467 
L 243.0504 169.365907 
L 243.172145 169.249166 
L 243.207655 169.275156 
L 243.354764 169.593133 
L 243.481582 170.024193 
L 243.5247 169.775735 
L 243.641373 167.346984 
L 243.963491 161.697021 
L 244.113136 161.267812 
L 244.1385 161.283309 
L 244.247564 161.55643 
L 244.488518 162.914108 
L 245.188555 168.101949 
L 245.277327 167.641377 
L 245.599445 165.861652 
L 245.703436 165.92757 
L 245.875909 166.453454 
L 246.281727 168.594499 
L 247.339391 174.140616 
L 247.993773 176.376418 
L 248.6304 177.804617 
L 249.3 178.779648 
L 250.063445 179.500062 
L 251.032336 180.098178 
L 252.429873 180.680943 
L 254.491936 181.29384 
L 254.532518 181.048605 
L 254.763327 177.375142 
L 254.885073 174.239891 
L 255.171682 169.178112 
L 255.361909 168.565447 
L 255.364445 168.565856 
L 255.463364 168.701388 
L 255.668809 169.485954 
L 256.376455 173.491636 
L 257.0841 176.726333 
L 257.6979 178.559035 
L 258.304091 179.707885 
L 258.948327 180.46772 
L 259.602709 180.935589 
L 259.607782 180.929107 
L 259.666118 180.629944 
L 259.978091 176.913084 
L 260.181 172.018118 
L 260.437173 169.040259 
L 260.586818 168.745162 
L 260.612182 168.758027 
L 260.736464 169.002833 
L 261.005318 170.153921 
L 261.725645 174.047675 
L 261.768764 173.544314 
L 262.359736 163.24017 
L 262.443436 163.361385 
L 262.618445 164.150074 
L 263.080064 167.567771 
L 263.950036 173.559051 
L 264.581591 176.427941 
L 264.645 176.626239 
L 264.685582 176.419874 
L 264.929073 172.975006 
L 265.177636 171.433563 
L 265.301918 171.345388 
L 265.332355 171.367918 
L 265.492145 171.682003 
L 265.618964 172.059117 
L 265.659545 171.844512 
L 266.113555 168.435616 
L 266.141455 168.448657 
L 266.225155 168.518584 
L 266.2632 168.405678 
L 266.367191 167.374841 
L 266.648727 160.088922 
L 266.902364 157.119552 
L 267.011427 156.923365 
L 267.054545 156.962253 
L 267.168682 157.148798 
L 267.224482 157.033636 
L 267.549136 156.051839 
L 267.612545 156.122963 
L 267.762191 156.655102 
L 268.066555 158.751292 
L 268.332873 160.718215 
L 268.396282 160.539089 
L 268.693036 159.468408 
L 268.723473 159.488097 
L 268.842682 159.77642 
L 269.088709 161.094854 
L 269.892736 166.89797 
L 269.999264 166.412402 
L 270.1971 164.18439 
L 270.562336 160.168924 
L 270.696764 159.934412 
L 270.729736 159.955996 
L 270.856555 160.257684 
L 271.120336 161.602945 
L 273.207764 173.938646 
L 273.859609 175.894689 
L 274.2426 176.713177 
L 274.265427 176.602023 
L 274.407464 174.275065 
L 274.686464 171.452818 
L 274.874155 171.126291 
L 274.876691 171.126909 
L 275.006045 171.27585 
L 275.272364 172.023405 
L 275.356064 172.250777 
L 275.404255 172.097628 
L 275.579264 170.423983 
L 275.876018 168.500567 
L 276.010445 168.378424 
L 276.038345 168.396241 
L 276.187991 168.676919 
L 276.5025 169.863033 
L 277.369936 173.713789 
L 277.418127 173.457427 
L 277.854382 170.277569 
L 277.971055 170.333358 
L 278.161282 170.799584 
L 278.663482 172.813138 
L 279.513164 175.920083 
L 280.175155 177.528295 
L 280.844755 178.594437 
L 281.585373 179.360777 
L 281.745164 179.466623 
L 281.773064 179.384621 
L 281.874518 178.326065 
L 282.549191 167.312305 
L 282.982909 157.669471 
L 283.221327 155.953176 
L 283.472427 153.091553 
L 283.518082 153.055296 
L 283.568809 153.138585 
L 283.708309 153.862814 
L 283.832591 154.622939 
L 283.898536 154.436686 
L 284.1192 153.734588 
L 284.154709 153.762625 
L 284.263773 154.053403 
L 284.306891 153.808796 
L 284.629009 151.405099 
L 284.667055 151.442295 
L 284.778655 151.873185 
L 285.027218 153.934598 
L 285.133745 154.651879 
L 285.192082 154.487962 
L 285.407673 153.766727 
L 285.450791 153.811219 
L 285.572536 154.266631 
L 285.841391 156.35093 
L 286.822964 165.467993 
L 286.888909 165.089373 
L 287.462127 159.439272 
L 287.515391 159.481528 
L 287.654891 159.885798 
L 287.954182 161.597466 
L 288.456382 165.025455 
L 288.532473 164.778749 
L 288.882491 163.508998 
L 288.991555 163.639921 
L 289.194464 164.34239 
L 289.666227 166.991997 
L 290.698527 172.612883 
L 291.058691 173.988388 
L 291.099273 173.876107 
L 291.256527 172.481294 
L 291.571036 170.454866 
L 291.746045 170.278762 
L 291.753655 170.281975 
L 291.9033 170.4759 
L 292.202591 171.324449 
L 292.621091 172.833419 
L 292.661673 172.519947 
L 293.351564 164.887872 
L 294.013555 159.621605 
L 294.059209 159.659352 
L 294.1911 160.054101 
L 294.477709 161.779893 
L 296.121273 172.810541 
L 296.139027 172.818569 
L 296.179609 172.705901 
L 296.428173 171.027611 
L 296.656445 170.412211 
L 296.788336 170.282613 
L 297.262636 164.570051 
L 297.288 164.580943 
L 297.397064 164.814946 
L 297.643091 166.010321 
L 297.777518 166.658966 
L 297.833318 166.483867 
L 298.381173 162.840678 
L 298.619591 161.08846 
L 298.680464 161.063748 
L 298.726118 161.123876 
L 298.860545 161.256291 
L 298.901127 161.220964 
L 299.169982 161.043268 
L 299.187736 161.061288 
L 299.342455 161.411329 
L 299.555509 162.32268 
L 299.598627 161.902648 
L 300.159164 154.901602 
L 300.240327 154.781634 
L 300.291055 154.845781 
L 300.430555 155.422535 
L 300.752673 157.944097 
L 302.1147 169.298737 
L 302.7843 172.819443 
L 303.423464 175.064685 
L 304.070236 176.566647 
L 304.4025 177.122511 
L 304.427864 177.007087 
L 304.544536 174.96121 
L 304.838755 171.301829 
L 305.0442 170.798376 
L 305.165945 170.896437 
L 305.391682 171.466021 
L 307.337073 177.337535 
L 307.988918 178.308056 
L 307.993991 178.301202 
L 308.044718 177.903773 
L 308.5317 173.300802 
L 308.683882 173.213173 
L 308.696564 173.220927 
L 308.869036 173.47463 
L 309.272318 174.578207 
L 309.373773 174.870409 
L 309.409282 174.642983 
L 310.461873 163.449539 
L 310.479627 163.455866 
L 310.581082 163.654241 
L 310.804282 164.719743 
L 312.610173 174.834396 
L 313.201145 176.528303 
L 313.208755 176.518891 
L 313.264555 176.077503 
L 313.710955 172.052906 
L 313.847918 171.966092 
L 313.870745 171.981046 
L 314.038145 172.258509 
L 314.433818 173.466564 
L 315.433145 176.465406 
L 316.117964 177.805608 
L 316.828145 178.721129 
L 317.649927 179.416974 
L 318.725345 180.023717 
L 319.316318 180.25732 
L 319.334073 180.189943 
L 319.4406 178.997784 
L 319.846418 174.679739 
L 320.067082 174.192887 
L 320.209118 174.265398 
L 320.445 174.727013 
L 321.251564 177.054142 
L 321.974427 178.694933 
L 322.641491 179.680342 
L 323.361818 180.354431 
L 324.247009 180.870491 
L 325.520264 181.335597 
L 325.809409 181.395579 
L 325.822091 181.328077 
L 325.915936 179.74889 
L 326.238055 175.25115 
L 326.456182 174.602643 
L 326.588073 174.662091 
L 326.803664 175.116034 
L 327.201873 176.337334 
L 327.262745 176.0662 
L 327.635591 172.580048 
L 327.929809 168.70836 
L 328.0617 168.440733 
L 328.094673 168.461418 
L 328.221491 168.762025 
L 328.515709 170.192215 
L 329.687509 176.229725 
L 330.303845 178.138876 
L 330.912573 179.340346 
L 331.556809 180.137104 
L 332.307573 180.711263 
L 332.670273 180.908315 
L 332.682955 180.833333 
L 332.794555 178.391025 
L 333.078627 174.288878 
L 333.281536 173.732171 
L 333.398209 173.829543 
L 333.517418 174.044338 
L 333.563073 173.893744 
L 333.801491 171.895417 
L 334.042445 170.982761 
L 334.161655 171.018042 
L 334.166727 171.024711 
L 334.346809 171.457338 
L 334.767845 173.206177 
L 335.024018 174.362402 
L 335.059527 174.064021 
L 335.488173 169.284277 
L 335.5668 169.318863 
L 335.584555 169.348699 
L 335.751955 169.903808 
L 336.223718 172.500476 
L 337.004918 176.358336 
L 337.1571 176.915401 
L 337.187536 176.638995 
L 337.387909 171.893783 
L 338.014391 157.379746 
L 338.019464 157.380339 
L 338.095555 157.513429 
L 338.262955 158.405486 
L 338.6916 162.238476 
L 339.6402 170.373609 
L 340.096745 172.993421 
L 340.124645 172.95208 
L 340.248927 172.282795 
L 340.581191 170.846557 
L 340.743518 170.783401 
L 340.751127 170.788612 
L 340.9236 171.053759 
L 341.263473 172.083625 
L 342.323673 175.830223 
L 342.369327 175.640963 
L 342.574773 173.287146 
L 342.853773 171.424277 
L 343.005955 171.272558 
L 343.026245 171.283348 
L 343.175891 171.520804 
L 343.325536 171.919534 
L 343.363582 171.70521 
L 343.870855 167.395816 
L 343.903827 167.411547 
L 344.028109 167.663981 
L 344.2995 168.847417 
L 345.298827 173.954639 
L 345.357164 173.807038 
L 345.587973 172.247716 
L 345.846682 171.331074 
L 345.988718 171.347568 
L 346.173873 171.710127 
L 346.328591 172.120565 
L 346.379318 171.956194 
L 346.800355 169.934002 
L 346.835864 169.95237 
L 346.980436 170.218885 
L 347.302555 171.40688 
L 347.343136 171.485958 
L 347.393864 171.323821 
L 347.880845 168.72705 
L 347.939182 168.767839 
L 348.104045 169.135572 
L 348.466745 170.627798 
L 349.615718 175.497112 
L 349.6563 175.400556 
L 349.790727 174.157853 
L 350.2701 170.260354 
L 350.541491 169.208445 
L 350.686064 169.180125 
L 350.696209 169.188658 
L 350.868682 169.493672 
L 351.208555 170.650176 
L 352.968791 177.275332 
L 353.278227 177.973782 
L 353.308664 177.845475 
L 353.483673 175.630145 
L 353.767745 173.519442 
L 353.968118 173.23854 
L 354.112691 173.376532 
L 354.386618 174.03562 
L 354.505827 174.314359 
L 354.556555 174.199747 
L 354.736636 172.984586 
L 355.015636 171.79893 
L 355.157673 171.763504 
L 355.170355 171.773728 
L 355.3479 172.08041 
L 355.723282 173.284308 
L 356.988927 177.516787 
L 357.645845 178.868285 
L 358.312909 179.750799 
L 358.914027 180.264417 
L 358.926709 180.239618 
L 358.997727 179.634303 
L 359.472027 175.02858 
L 359.614064 174.258238 
L 360.075682 171.023413 
L 360.199964 170.97504 
L 360.225327 170.996146 
L 360.392727 171.325181 
L 360.750355 172.640921 
L 360.978627 173.607638 
L 361.014136 173.292708 
L 361.201827 168.542641 
L 361.468145 164.818649 
L 361.605109 164.494416 
L 361.638082 164.515969 
L 361.757291 164.818782 
L 362.031218 166.244095 
L 362.0997 165.709044 
L 362.429427 163.072545 
L 362.4903 163.067662 
L 362.528345 163.12371 
L 362.677991 163.677615 
L 363.033082 166.074827 
L 364.078064 173.191559 
L 364.714691 175.971021 
L 365.325955 177.70498 
L 365.9499 178.838441 
L 366.632182 179.627062 
L 367.448891 180.227004 
L 368.559818 180.751773 
L 369.655527 181.107728 
L 369.665673 181.067476 
L 369.751909 179.897221 
L 370.104464 175.628085 
L 370.317518 175.118202 
L 370.451945 175.194915 
L 370.685291 175.680901 
L 372.440455 180.022252 
L 372.618 180.257426 
L 372.6459 180.135488 
L 372.795545 178.080297 
L 373.0923 175.380211 
L 373.292673 175.031858 
L 373.429636 175.154496 
L 373.581818 175.475943 
L 373.581818 175.475943 
" clip-path="url(#p5719e66bff)" style="fill: none; stroke: #000000; stroke-width: 1.5; stroke-linecap: square"/>
   </g>
   <g id="line2d_15">
    <path d="M 69.218182 178.0704 
L 69.362755 172.547597 
L 69.532691 172.160615 
L 69.722918 172.249124 
L 69.816764 172.320353 
L 69.839591 172.206894 
L 69.966409 170.110681 
L 70.623327 159.93527 
L 70.701955 159.932234 
L 70.734927 159.974512 
L 70.899791 160.458366 
L 71.300536 162.519222 
L 71.840782 165.369831 
L 71.881364 165.204358 
L 72.426682 160.192305 
L 72.743727 157.824664 
L 72.852791 157.718495 
L 72.893373 157.751987 
L 73.037945 158.112572 
L 73.352455 159.644262 
L 74.668827 166.507817 
L 75.100009 167.93694 
L 75.127909 167.83678 
L 75.254727 166.177218 
L 75.5667 163.127341 
L 75.764536 162.782502 
L 75.896427 162.923903 
L 76.155136 163.626468 
L 76.875464 166.066296 
L 76.951555 165.915963 
L 77.638909 163.962304 
L 77.646518 163.96484 
L 77.844355 164.155927 
L 78.204518 164.886621 
L 78.620482 165.948034 
L 78.653455 165.680416 
L 79.175945 159.940058 
L 79.282473 160.012368 
L 79.470164 160.547517 
L 80.020555 163.041329 
L 80.185418 163.718957 
L 80.233609 163.514693 
L 80.368036 161.626719 
L 80.959009 151.791152 
L 81.166991 151.006446 
L 81.260836 151.100175 
L 81.435845 151.720111 
L 81.823909 154.108065 
L 81.935509 154.598184 
L 81.988773 154.483418 
L 82.407273 152.843647 
L 82.498582 152.953718 
L 82.683736 153.601852 
L 83.112382 156.127695 
L 84.190336 162.399857 
L 84.728045 164.56993 
L 84.748336 164.503382 
L 84.854864 163.126622 
L 85.565045 153.727342 
L 85.661427 151.912617 
L 85.986082 146.862731 
L 86.115436 146.536151 
L 86.150945 146.563679 
L 86.267618 146.914001 
L 86.526327 148.565047 
L 87.827482 158.400736 
L 87.883282 158.197975 
L 88.020245 156.580017 
L 88.459036 150.627601 
L 88.590927 150.394905 
L 88.6239 150.416434 
L 88.750718 150.71844 
L 89.019573 152.07744 
L 89.567427 155.548298 
L 89.646055 155.241593 
L 90.029045 153.444352 
L 90.143182 153.517718 
L 90.328336 154.015342 
L 90.729082 155.881807 
L 92.017555 162.067239 
L 92.745491 164.396481 
L 93.463282 165.982628 
L 93.671264 166.338034 
L 93.691555 166.190681 
L 93.884318 162.299634 
L 94.143027 159.777437 
L 94.3155 159.498906 
L 94.325645 159.502578 
L 94.457536 159.684155 
L 94.741609 160.562199 
L 95.198155 162.304466 
L 95.233664 161.986673 
L 95.680064 156.78696 
L 95.758691 156.775 
L 95.7942 156.818282 
L 95.959064 157.289971 
L 96.395318 159.423033 
L 97.2729 163.437967 
L 97.955182 165.542455 
L 98.637464 166.960912 
L 99.362864 167.971998 
L 100.187182 168.741707 
L 101.209336 169.384283 
L 102.611945 169.988705 
L 103.286618 170.172151 
L 103.2993 170.125346 
L 103.4109 169.083392 
L 103.814182 165.552915 
L 104.050064 165.059843 
L 104.214927 165.101803 
L 104.458418 165.471602 
L 104.988518 166.71615 
L 105.034173 166.391969 
L 105.554127 161.244384 
L 105.663191 161.24876 
L 105.680945 161.268769 
L 105.863564 161.611251 
L 105.9219 161.396307 
L 106.469755 158.155845 
L 106.530627 158.19708 
L 106.692955 158.561583 
L 107.048045 160.042631 
L 108.278182 165.380423 
L 108.937636 167.200086 
L 108.955391 167.186459 
L 108.975682 167.104678 
L 109.089818 165.75485 
L 109.399255 162.905046 
L 109.594555 162.606846 
L 109.734055 162.751593 
L 110.010518 163.454965 
L 111.577991 167.952564 
L 112.260273 169.051641 
L 112.967918 169.788593 
L 113.0085 169.657124 
L 113.125173 168.213707 
L 113.6781 158.098851 
L 113.738973 157.537918 
L 114.149864 152.273696 
L 114.220882 152.224464 
L 114.269073 152.282803 
L 114.418718 152.802556 
L 114.773809 154.78494 
L 114.870191 154.440173 
L 115.204991 153.146998 
L 115.306445 153.264611 
L 115.443409 153.58838 
L 115.501745 153.430599 
L 115.912636 151.625864 
L 115.983655 151.69631 
L 116.148518 152.206485 
L 116.333673 153.093366 
L 116.386936 152.735548 
L 116.485855 150.320907 
L 116.820655 142.192138 
L 116.975373 141.591568 
L 116.9982 141.605639 
L 117.097118 141.884069 
L 117.310173 142.985842 
L 117.3888 142.663097 
L 117.817445 140.032274 
L 117.852955 140.055855 
L 117.972164 140.369584 
L 118.218191 141.795341 
L 118.897936 147.491884 
L 119.154109 149.553442 
L 119.204836 149.206649 
L 119.572609 146.31968 
L 119.658845 146.404117 
L 119.821173 147.036366 
L 120.2067 149.669915 
L 120.807818 153.626927 
L 120.833182 153.610027 
L 120.967609 153.280533 
L 121.218709 152.883958 
L 121.355673 153.017193 
L 121.426691 153.131214 
L 121.464736 152.992103 
L 121.627064 151.218563 
L 121.918745 149.075796 
L 122.030345 148.968213 
L 122.068391 148.999879 
L 122.212964 149.358733 
L 122.314418 149.67947 
L 122.370218 149.527713 
L 122.722773 148.20845 
L 122.758282 148.229982 
L 122.887636 148.514624 
L 123.153955 149.768456 
L 124.4196 157.37482 
L 124.508373 156.917293 
L 124.904045 152.458299 
L 125.6472 138.332843 
L 125.697927 138.308657 
L 125.746118 138.383314 
L 125.890691 139.036145 
L 126.253391 141.862428 
L 126.362455 141.292544 
L 126.611018 140.263821 
L 126.613555 140.264186 
L 126.699791 140.393068 
L 126.872264 141.181363 
L 127.278082 144.346905 
L 128.434664 153.387698 
L 129.208255 157.63878 
L 129.865173 160.186774 
L 129.870245 160.184361 
L 129.928582 160.002951 
L 130.141636 158.269629 
L 130.433318 156.779722 
L 130.595645 156.675842 
L 130.605791 156.681733 
L 130.768118 156.918149 
L 131.100382 157.895329 
L 132.746482 163.191967 
L 133.530218 164.79369 
L 133.892918 165.355108 
L 133.918282 165.247756 
L 134.032418 163.418214 
L 134.5752 155.520393 
L 134.793327 154.585927 
L 134.897318 154.646582 
L 134.899855 154.65086 
L 135.074864 155.174487 
L 135.508582 157.375701 
L 135.8028 158.940576 
L 135.843382 158.632402 
L 136.282173 154.459232 
L 136.381091 154.530285 
L 136.553564 155.083224 
L 137.017718 157.556047 
L 137.892764 161.869309 
L 138.587727 164.206896 
L 139.282691 165.801771 
L 139.899027 166.784484 
L 139.911709 166.751695 
L 139.980191 165.841363 
L 140.360645 160.661161 
L 140.5737 160.129146 
L 140.708127 160.197486 
L 140.941473 160.664086 
L 141.928118 163.233937 
L 141.971236 162.979326 
L 142.179218 159.620728 
L 142.602791 152.865969 
L 142.818382 152.181331 
L 142.932518 152.259707 
L 143.130355 152.789128 
L 143.662991 155.06734 
L 143.766982 155.391781 
L 143.820245 155.264806 
L 144.0054 153.981449 
L 144.297082 152.640453 
L 144.436582 152.587349 
L 144.454336 152.601028 
L 144.624273 152.898914 
L 144.974291 154.015851 
L 145.017409 153.587713 
L 145.425764 148.774249 
L 145.529755 148.675084 
L 145.570336 148.709059 
L 145.719982 149.075256 
L 146.085218 150.722721 
L 146.2374 151.316592 
L 146.290664 151.194311 
L 146.529082 149.745619 
L 146.764964 149.098443 
L 146.894318 149.158058 
L 147.097227 149.598676 
L 147.282382 150.118922 
L 147.335645 149.960454 
L 147.528409 148.280682 
L 147.815018 146.712219 
L 147.951982 146.622104 
L 147.974809 146.637649 
L 148.132064 146.918207 
L 148.393309 147.77485 
L 148.433891 147.417098 
L 148.870145 142.6088 
L 148.9437 142.594661 
L 148.981745 142.641358 
L 149.141536 143.120726 
L 149.359664 144.139915 
L 149.410391 143.767186 
L 149.823818 140.03848 
L 149.910055 140.087534 
L 149.9202 140.105569 
L 150.085064 140.658069 
L 150.503564 143.067706 
L 151.434409 148.195004 
L 152.142055 150.858075 
L 152.852236 152.706642 
L 153.585245 154.019957 
L 154.371518 154.983735 
L 155.259245 155.721362 
L 156.182482 156.2358 
L 156.187555 156.224341 
L 156.243355 155.679434 
L 156.689755 150.465543 
L 156.887591 150.167646 
L 157.032164 150.298894 
L 157.316236 150.952209 
L 157.407545 151.190757 
L 157.443055 150.988592 
L 157.559727 148.595499 
L 158.183673 134.987481 
L 158.2623 134.906108 
L 158.310491 134.960234 
L 158.455064 135.463234 
L 158.794936 137.666211 
L 158.952191 138.62614 
L 159.007991 138.426637 
L 159.383373 136.493421 
L 159.418882 136.513843 
L 159.548236 136.802918 
L 159.900791 138.047034 
L 159.999709 137.929137 
L 160.273636 137.678183 
L 160.418209 137.891336 
L 160.679455 138.774981 
L 161.384564 142.1158 
L 161.468264 141.646182 
L 161.815745 139.428666 
L 161.907055 139.431687 
L 161.934955 139.466272 
L 162.104891 139.919257 
L 162.500564 141.773468 
L 162.690791 142.706351 
L 162.738982 142.461335 
L 163.210745 139.356319 
L 163.324882 139.422733 
L 163.5075 139.912305 
L 163.923464 141.831714 
L 165.024245 146.877548 
L 165.800373 149.358681 
L 166.591718 151.171293 
L 167.433791 152.558729 
L 167.933455 153.16858 
L 167.961355 153.116464 
L 168.060273 152.435588 
L 168.5574 148.631671 
L 168.770455 148.386658 
L 168.942927 148.50088 
L 169.244755 149.036002 
L 170.127409 151.159944 
L 170.160382 150.812569 
L 170.642291 144.431477 
L 171.091227 140.638972 
L 171.190145 140.717472 
L 171.367691 141.285634 
L 171.717709 142.949116 
L 171.796336 142.638995 
L 171.895255 141.197967 
L 172.4076 132.766224 
L 172.661236 131.290454 
L 172.734791 131.267406 
L 172.775373 131.316816 
L 172.925018 131.793021 
L 173.264891 133.80655 
L 173.691 136.591441 
L 173.751873 136.377913 
L 173.992827 134.088129 
L 174.520391 128.772975 
L 174.637064 128.580196 
L 175.042882 124.802653 
L 175.075855 124.817215 
L 175.121509 124.764124 
L 175.131655 124.727881 
L 175.2813 123.642272 
L 175.486745 122.866675 
L 175.496891 122.869566 
L 175.585664 123.033876 
L 175.770818 123.983948 
L 176.222291 127.78877 
L 176.422664 129.367553 
L 176.478464 129.134141 
L 176.907109 126.351361 
L 176.945155 126.37516 
L 177.069436 126.681996 
L 177.323073 128.044576 
L 177.893755 132.140061 
L 177.992673 131.784156 
L 178.347764 130.378594 
L 178.449218 130.487736 
L 178.631836 131.129796 
L 178.743436 131.624484 
L 178.7967 131.370562 
L 179.194909 128.739179 
L 179.212664 128.746308 
L 179.316655 128.949029 
L 179.534782 129.99528 
L 179.6895 130.648954 
L 179.740227 130.575532 
L 179.8011 130.142017 
L 179.973573 125.239018 
L 180.280473 119.332948 
L 180.4428 118.737348 
L 180.463091 118.748504 
L 180.559473 118.993078 
L 180.772527 120.299589 
L 181.4193 126.188958 
L 182.362827 133.836154 
L 183.248018 139.251496 
L 183.275918 139.296515 
L 183.326645 139.143889 
L 183.823773 136.682408 
L 183.892255 136.738518 
L 184.049509 137.042405 
L 184.100236 136.849838 
L 184.566927 133.971323 
L 184.637945 134.035301 
L 184.802809 134.517442 
L 185.165509 136.436264 
L 186.3855 143.416462 
L 186.410864 143.301498 
L 186.611236 140.708793 
L 186.847118 139.386474 
L 187.014518 138.99674 
L 187.481209 135.208011 
L 187.483745 135.208319 
L 187.5852 135.340155 
L 187.785573 136.085389 
L 188.247191 138.671299 
L 188.325818 138.147231 
L 188.685982 135.429239 
L 188.767145 135.407959 
L 188.805191 135.452655 
L 188.962445 135.910916 
L 189.315 137.793127 
L 190.339691 143.634697 
L 190.372664 143.580995 
L 190.499482 142.843692 
L 190.824136 141.325646 
L 191.029582 140.889711 
L 191.158936 137.017167 
L 191.488664 129.286191 
L 191.694109 128.312273 
L 191.777809 128.416333 
L 191.942673 129.126416 
L 192.335809 132.061327 
L 192.728945 135.025388 
L 192.784745 134.873077 
L 193.170273 133.248496 
L 193.215927 133.280048 
L 193.355427 133.613996 
L 193.586236 134.612858 
L 193.6395 134.231999 
L 193.819582 130.517361 
L 194.192427 122.126074 
L 194.415627 121.00402 
L 194.489182 121.015331 
L 194.517082 121.057757 
L 194.585564 121.206313 
L 194.626145 121.045289 
L 195.039573 118.238009 
L 195.125809 118.33012 
L 195.171464 118.312421 
L 195.199364 118.251279 
L 195.501191 117.368728 
L 195.582355 117.49433 
L 195.749755 118.263453 
L 196.1226 121.279528 
L 196.7085 126.204838 
L 196.759227 126.121137 
L 197.134609 125.041604 
L 197.215773 125.132652 
L 197.395855 125.705645 
L 197.586082 126.479033 
L 197.649491 126.327117 
L 197.961464 125.314333 
L 197.999509 125.339879 
L 198.128864 125.654995 
L 198.387573 127.009857 
L 199.128191 132.519075 
L 200.114836 139.097505 
L 200.155418 138.96093 
L 200.604355 136.405201 
L 200.675373 136.47128 
L 200.845309 136.961114 
L 201.225764 138.903922 
L 202.613155 146.271315 
L 203.272609 148.795847 
L 203.295436 148.760549 
L 203.379136 148.152205 
L 203.911773 141.199988 
L 204.193309 138.417661 
L 204.350564 138.151559 
L 204.370855 138.160977 
L 204.497673 138.382471 
L 204.756382 139.395908 
L 205.682155 144.40266 
L 205.852091 145.166603 
L 205.900282 144.970067 
L 206.3898 141.90351 
L 206.422773 141.91745 
L 206.559736 142.152779 
L 206.843809 143.195781 
L 207.361227 145.552751 
L 207.434782 145.331089 
L 207.838064 143.811764 
L 207.959809 143.948091 
L 208.188082 144.640111 
L 208.801882 147.450248 
L 209.113855 148.843894 
L 209.156973 148.618897 
L 209.679464 144.68271 
L 209.694682 144.687056 
L 209.816427 144.863952 
L 210.067527 145.731336 
L 211.333173 151.14279 
L 211.416873 150.988729 
L 211.617245 149.998079 
L 212.472 142.894569 
L 212.712955 142.225552 
L 212.852455 142.271692 
L 213.055364 142.67292 
L 213.461182 144.069691 
L 213.742718 145.194822 
L 213.790909 144.957611 
L 214.214482 142.153917 
L 214.318473 142.24744 
L 214.5087 142.834173 
L 214.937345 144.920354 
L 215.021045 144.455995 
L 215.325409 142.859653 
L 215.416718 142.882014 
L 215.437009 142.911016 
L 215.604409 143.394611 
L 215.995009 145.377708 
L 217.184564 151.490437 
L 217.273336 151.752122 
L 217.329136 151.632759 
L 217.686764 150.740633 
L 217.694373 150.743259 
L 217.813582 150.781229 
L 217.838945 150.693277 
L 217.953082 149.671674 
L 218.506009 140.522648 
L 218.587173 140.463866 
L 218.632827 140.512748 
L 218.782473 140.972673 
L 219.127418 142.938192 
L 219.903545 147.656282 
L 219.9492 147.578897 
L 220.180009 146.560022 
L 220.342336 143.603745 
L 220.651773 139.603467 
L 220.801418 139.255522 
L 220.829318 139.270807 
L 220.945991 139.534068 
L 221.039836 139.829799 
L 221.082955 139.619821 
L 221.181873 137.473793 
L 221.547109 129.901513 
L 221.679 129.495536 
L 221.714509 129.524506 
L 221.828645 129.901295 
L 222.082282 131.691025 
L 222.5997 136.104635 
L 222.6834 135.913833 
L 222.967473 135.197957 
L 222.9903 135.209748 
L 223.106973 135.441826 
L 223.335245 136.522802 
L 223.606636 138.25249 
L 223.670045 137.883114 
L 224.040355 135.431404 
L 224.129127 135.514416 
L 224.288918 136.11555 
L 224.649082 138.554601 
L 225.252736 143.044633 
L 225.308536 142.779674 
L 225.694064 140.332529 
L 225.709282 140.337264 
L 225.813273 140.515259 
L 226.0314 141.450388 
L 226.632518 145.337282 
L 227.578582 150.904357 
L 228.377536 154.318541 
L 228.473918 154.633446 
L 228.5145 154.41641 
L 229.042064 150.033558 
L 229.1562 150.154409 
L 229.376864 150.820251 
L 230.066755 153.913515 
L 230.903755 157.123918 
L 231.669736 159.212144 
L 232.466155 160.759288 
L 233.3412 161.981834 
L 234.360818 163.023068 
L 235.507255 163.89837 
L 235.512327 163.891102 
L 235.565591 163.532698 
L 236.2149 157.418317 
L 236.359473 157.455321 
L 236.572527 157.838767 
L 237.127991 159.448175 
L 238.043618 161.868234 
L 238.766482 163.183896 
L 238.8096 163.07197 
L 238.936418 161.783335 
L 239.291509 158.764692 
L 239.524855 158.276582 
L 239.651673 158.103825 
L 239.844436 155.683068 
L 240.125973 153.60083 
L 240.270545 153.436582 
L 240.295909 153.451095 
L 240.440482 153.709177 
L 240.749918 154.838221 
L 241.939473 159.657171 
L 241.969909 159.60122 
L 242.076436 158.804601 
L 242.4924 155.753257 
L 242.664873 154.978597 
L 243.098591 151.696757 
L 243.205118 151.650379 
L 243.238091 151.681258 
L 243.397882 152.052174 
L 243.481582 152.3206 
L 243.522164 152.103043 
L 243.631227 149.953739 
L 243.981245 143.68959 
L 244.141036 143.227682 
L 244.161327 143.237884 
L 244.267855 143.47289 
L 244.498664 144.66542 
L 245.188555 149.479624 
L 245.279864 148.993355 
L 245.612127 147.094002 
L 245.708509 147.129705 
L 245.721191 147.148835 
L 245.891127 147.641468 
L 246.274118 149.606109 
L 247.552445 156.371467 
L 248.310818 159.097177 
L 249.069191 161.030556 
L 249.868145 162.478113 
L 250.755873 163.631988 
L 251.800855 164.62242 
L 253.112155 165.549988 
L 254.494473 166.306219 
L 254.502082 166.288234 
L 254.565491 165.670121 
L 254.882536 159.42508 
L 255.179291 154.062304 
L 255.3822 153.341192 
L 255.481118 153.440472 
L 255.673882 154.080405 
L 256.226809 156.968468 
L 257.0562 160.809472 
L 257.751164 163.020024 
L 258.446127 164.52548 
L 259.184209 165.609127 
L 259.605245 166.046725 
L 259.633145 165.978754 
L 259.732064 165.061269 
L 260.112518 158.819637 
L 260.399127 154.322338 
L 260.602036 153.689693 
L 260.706027 153.793871 
L 260.903864 154.423748 
L 261.446645 157.144841 
L 261.725645 158.527825 
L 261.758618 158.229565 
L 261.913336 153.730189 
L 262.207555 148.116574 
L 262.3851 147.478911 
L 262.397782 147.48352 
L 262.491627 147.665247 
L 262.697073 148.681135 
L 263.399645 153.808433 
L 264.175773 158.511983 
L 264.647536 160.575615 
L 264.675436 160.476527 
L 264.799718 158.835311 
L 265.111691 155.743535 
L 265.291773 155.439597 
L 265.299382 155.44213 
L 265.4262 155.612482 
L 265.618964 156.159829 
L 265.667155 155.890584 
L 266.126236 152.512484 
L 266.128773 152.512762 
L 266.265736 152.427546 
L 266.372264 151.302138 
L 267.026645 140.485996 
L 267.036791 140.488329 
L 267.194045 140.577915 
L 267.232091 140.455042 
L 267.579573 139.289542 
L 267.627764 139.331764 
L 267.764727 139.734165 
L 268.041191 141.401323 
L 268.3278 143.372776 
L 268.393745 143.173954 
L 268.726009 141.838715 
L 268.753909 141.853238 
L 268.870582 142.10189 
L 269.109 143.265301 
L 269.765918 147.967206 
L 269.892736 148.649222 
L 269.948536 148.495955 
L 270.121009 147.072201 
L 270.661255 141.502921 
L 270.737345 141.499431 
L 270.770318 141.543356 
L 270.925036 142.030655 
L 271.259836 143.992913 
L 272.979491 154.957607 
L 273.770836 158.287301 
L 274.245136 159.800633 
L 274.2705 159.676548 
L 274.4379 157.129224 
L 274.704218 154.877785 
L 274.861473 154.664935 
L 274.881764 154.674183 
L 275.0238 154.897014 
L 275.361136 155.944169 
L 275.437227 155.604565 
L 276.0003 152.101675 
L 276.116973 152.219175 
L 276.3351 152.860825 
L 276.910855 155.475319 
L 277.372473 157.508024 
L 277.413055 157.32173 
L 277.889891 154.185002 
L 277.894964 154.185745 
L 278.014173 154.323962 
L 278.250055 155.045933 
L 280.309582 162.513285 
L 281.073027 164.027543 
L 281.745164 164.974375 
L 281.757845 164.957006 
L 281.823791 164.530506 
L 282.252436 158.909659 
L 283.109727 142.640661 
L 283.1148 142.64138 
L 283.132555 142.6348 
L 283.1427 142.558073 
L 283.299955 139.652126 
L 283.515545 137.986088 
L 283.5612 137.99907 
L 283.594173 138.064985 
L 283.736209 138.75831 
L 283.827518 139.220749 
L 283.888391 139.036476 
L 284.154709 138.048495 
L 284.190218 138.075189 
L 284.261236 138.212461 
L 284.294209 138.048132 
L 284.656909 135.217598 
L 284.725391 135.322091 
L 284.875036 136.075861 
L 285.128673 137.95656 
L 285.212373 137.649253 
L 285.433036 136.859243 
L 285.4584 136.875248 
L 285.562391 137.157435 
L 285.785591 138.582871 
L 286.498309 145.204506 
L 286.8255 147.74628 
L 286.866082 147.589525 
L 286.997973 145.801497 
L 287.347991 141.805115 
L 287.479882 141.566994 
L 287.512855 141.590592 
L 287.637136 141.904433 
L 287.900918 143.32311 
L 288.458918 147.160525 
L 288.550227 146.852099 
L 288.874882 145.699628 
L 288.981409 145.80409 
L 289.1691 146.418718 
L 289.572382 148.684515 
L 290.939482 156.633435 
L 291.0663 157.12216 
L 291.119564 156.952556 
L 291.385882 154.762474 
L 291.634445 153.84937 
L 291.766336 153.86798 
L 291.771409 153.873683 
L 291.954027 154.255041 
L 292.359845 155.748309 
L 292.621091 156.82255 
L 292.661673 156.544854 
L 293.453018 148.269818 
L 293.622955 146.699047 
L 293.945073 143.625231 
L 294.033845 143.533597 
L 294.0795 143.580962 
L 294.221536 144.0326 
L 294.536045 145.95808 
L 296.121273 156.540746 
L 296.1441 156.557495 
L 296.189755 156.431405 
L 296.6742 154.374786 
L 296.740145 154.423106 
L 296.768045 154.456596 
L 296.7858 154.320345 
L 297.270245 148.700626 
L 297.331118 148.757634 
L 297.4833 149.250984 
L 297.780055 150.745288 
L 297.858682 150.436498 
L 298.190945 149.010262 
L 298.241673 148.919572 
L 298.393855 146.833887 
L 298.632273 145.181355 
L 298.695682 145.161138 
L 298.741336 145.219609 
L 298.8504 145.291184 
L 298.888445 145.253529 
L 299.1852 144.970093 
L 299.218173 145.003132 
L 299.375427 145.379207 
L 299.555509 146.136684 
L 299.596091 145.76989 
L 300.212427 138.383645 
L 300.270764 138.352332 
L 300.316418 138.416237 
L 300.458455 138.98738 
L 300.785645 141.448411 
L 302.213618 152.891166 
L 302.989745 157.088882 
L 303.743045 160.00547 
L 304.405036 161.852223 
L 304.417718 161.823489 
L 304.483664 161.008929 
L 304.861582 156.239879 
L 305.056882 155.878752 
L 305.1837 156.024385 
L 305.437336 156.756367 
L 307.291418 162.94697 
L 307.988918 164.313688 
L 307.999064 164.298247 
L 308.062473 163.729562 
L 308.493655 159.525801 
L 308.676273 159.326808 
L 308.678809 159.327753 
L 308.830991 159.505662 
L 309.153109 160.319863 
L 309.373773 160.976422 
L 309.409282 160.760046 
L 309.622336 157.120962 
L 309.881045 154.962383 
L 310.0104 154.255638 
L 310.411145 149.272374 
L 310.497382 149.189224 
L 310.543036 149.235001 
L 310.690145 149.68196 
L 311.035091 151.631684 
L 312.204355 158.430148 
L 312.932291 161.269116 
L 313.203682 162.073903 
L 313.239191 161.914443 
L 313.459855 159.20001 
L 313.710955 157.748585 
L 313.847918 157.659065 
L 313.870745 157.674009 
L 314.035609 157.950247 
L 314.416064 159.141306 
L 315.552355 162.734656 
L 316.3158 164.374224 
L 317.119827 165.587336 
L 318.030382 166.559499 
L 319.141309 167.413581 
L 319.313782 167.508498 
L 319.339145 167.415566 
L 319.455818 166.07123 
L 319.854027 161.86603 
L 320.079764 161.330773 
L 320.226873 161.385501 
L 320.457682 161.799832 
L 321.109527 163.603542 
L 321.969355 165.681971 
L 322.717582 166.926532 
L 323.511464 167.824432 
L 324.444845 168.540683 
L 325.659764 169.180494 
L 325.806873 169.23002 
L 325.824627 169.140719 
L 325.926082 167.407734 
L 326.245664 163.024435 
L 326.468864 162.321419 
L 326.608364 162.35954 
L 326.818882 162.758578 
L 327.201873 163.846088 
L 327.262745 163.573759 
L 327.630518 160.131265 
L 327.937418 155.968478 
L 328.087064 155.642748 
L 328.112427 155.65554 
L 328.234173 155.903163 
L 328.505564 157.095523 
L 329.870127 163.666615 
L 330.542264 165.623572 
L 331.224545 166.956109 
L 331.955018 167.908429 
L 332.670273 168.548599 
L 332.677882 168.520992 
L 332.7489 167.201166 
L 333.076091 162.025225 
L 333.286609 161.375423 
L 333.408355 161.448379 
L 333.514882 161.6159 
L 333.558 161.484253 
L 333.740618 159.893901 
L 334.019618 158.388834 
L 334.1439 158.319439 
L 334.1718 158.340926 
L 334.334127 158.65938 
L 334.689218 159.975561 
L 335.024018 161.413685 
L 335.062064 161.08605 
L 335.490709 156.281432 
L 335.564264 156.279729 
L 335.597236 156.323981 
L 335.759564 156.823333 
L 336.188209 159.083497 
L 337.060718 163.398064 
L 337.1571 163.759754 
L 337.190073 163.464877 
L 337.392982 158.731983 
L 338.034682 143.887097 
L 338.110773 143.99286 
L 338.270564 144.764534 
L 338.671309 148.11144 
L 339.673173 156.282251 
L 340.099282 158.687313 
L 340.137327 158.618337 
L 340.307264 157.657118 
L 340.601482 156.55944 
L 340.753664 156.532079 
L 340.758736 156.53624 
L 340.933745 156.831931 
L 341.283764 157.964866 
L 342.326209 161.906411 
L 342.376936 161.689031 
L 342.635645 158.864915 
L 342.894355 157.519496 
L 343.021173 157.455102 
L 343.046536 157.474408 
L 343.2114 157.784604 
L 343.325536 158.101257 
L 343.363582 157.899082 
L 343.886073 153.53662 
L 343.926655 153.558746 
L 344.061082 153.850754 
L 344.3553 155.160817 
L 345.301364 159.98352 
L 345.357164 159.854096 
L 345.557536 158.52306 
L 345.836536 157.395272 
L 345.970964 157.376457 
L 345.983645 157.387984 
L 346.158655 157.71765 
L 346.331127 158.179591 
L 346.381855 158.01304 
L 346.807964 155.988704 
L 346.840936 156.004408 
L 346.982973 156.254746 
L 347.289873 157.367126 
L 347.343136 157.499505 
L 347.393864 157.344915 
L 347.893527 154.683241 
L 347.962009 154.736149 
L 348.137018 155.150184 
L 348.525082 156.781819 
L 349.623327 161.541745 
L 349.636009 161.527637 
L 349.704491 161.137712 
L 350.460327 155.543508 
L 350.655627 155.321805 
L 350.797664 155.489984 
L 351.061445 156.235428 
L 351.715827 158.94997 
L 352.760809 162.985794 
L 353.278227 164.460158 
L 353.306127 164.368047 
L 353.443091 162.745802 
L 353.749991 160.229753 
L 353.957973 159.877381 
L 354.097473 159.99005 
L 354.348573 160.568067 
L 354.508364 160.967465 
L 354.559091 160.850855 
L 354.739173 159.632141 
L 355.020709 158.413578 
L 355.165282 158.372464 
L 355.177964 158.382448 
L 355.355509 158.685054 
L 355.728355 159.870044 
L 357.166473 164.70713 
L 357.899482 166.288571 
L 358.647709 167.392192 
L 358.916564 167.682894 
L 358.944464 167.59087 
L 359.061136 166.242064 
L 359.418764 162.727116 
L 359.677473 161.089697 
L 360.040173 158.397033 
L 360.207573 158.211808 
L 360.220255 158.217515 
L 360.364827 158.42345 
L 360.653973 159.32008 
L 360.978627 160.602631 
L 361.016673 160.25344 
L 361.222118 155.072767 
L 361.488436 151.520358 
L 361.630473 151.197441 
L 361.660909 151.21619 
L 361.780118 151.498799 
L 362.031218 152.704664 
L 362.094627 152.226056 
L 362.449718 149.35385 
L 362.515664 149.349635 
L 362.551173 149.400227 
L 362.700818 149.922003 
L 363.050836 152.159391 
L 364.189664 159.611225 
L 364.892236 162.668778 
L 365.579591 164.722751 
L 366.2847 166.160345 
L 367.043073 167.21579 
L 367.913045 168.046826 
L 368.993536 168.763372 
L 369.655527 169.089347 
L 369.670745 169.021948 
L 369.774736 167.523053 
L 370.109536 163.606985 
L 370.3302 163.047003 
L 370.4697 163.108035 
L 370.697973 163.54475 
L 371.537509 165.909246 
L 372.285736 167.560911 
L 372.618 168.094789 
L 372.6459 167.982166 
L 372.787936 166.090226 
L 373.094836 163.232676 
L 373.302818 162.839073 
L 373.439782 162.944884 
L 373.581818 163.222634 
L 373.581818 163.222634 
" clip-path="url(#p5719e66bff)" style="fill: none; stroke: #ff0000; stroke-width: 1.5; stroke-linecap: square"/>
   </g>
   <g id="line2d_16">
    <path d="M 81.899894 143.28 
L 84.431164 143.28 
L 84.431164 143.28 
" clip-path="url(#p5719e66bff)" style="fill: none; stroke: #000000; stroke-width: 1.5; stroke-linecap: square"/>
   </g>
   <g id="line2d_17">
    <path d="M 81.899894 165.024 
L 81.899894 160.6752 
L 81.899894 156.3264 
L 81.899894 151.9776 
L 81.899894 147.6288 
" clip-path="url(#p5719e66bff)" style="fill: none; stroke: #000000; stroke-width: 1.5; stroke-linecap: square"/>
   </g>
   <g id="patch_3">
    <path d="M 54 252 
L 54 34.56 
" style="fill: none; stroke: #000000; stroke-width: 0.8; stroke-linejoin: miter; stroke-linecap: square"/>
   </g>
   <g id="patch_4">
    <path d="M 54 252 
L 388.8 252 
" style="fill: none; stroke: #000000; stroke-width: 0.8; stroke-linejoin: miter; stroke-linecap: square"/>
   </g>
   <g id="text_16">
    <!-- 500 ms -->
    <g transform="translate(81.899894 138.9312)scale(0.1 -0.1)">
     <use xlink:href="#DejaVuSans-35"/>
     <use xlink:href="#DejaVuSans-30" x="63.623047"/>
     <use xlink:href="#DejaVuSans-30" x="127.246094"/>
     <use xlink:href="#DejaVuSans-20" x="190.869141"/>
     <use xlink:href="#DejaVuSans-6d" x="222.65625"/>
     <use xlink:href="#DejaVuSans-73" x="320.068359"/>
    </g>
   </g>
   <g id="text_17">
    <!-- 5 mV -->
    <g transform="translate(82.153529 156.3264)scale(0.1 -0.1)">
     <use xlink:href="#DejaVuSans-35"/>
     <use xlink:href="#DejaVuSans-20" x="63.623047"/>
     <use xlink:href="#DejaVuSans-6d" x="95.410156"/>
     <use xlink:href="#DejaVuSans-56" x="192.822266"/>
    </g>
   </g>
  </g>
 </g>
 <defs>
  <clipPath id="p5719e66bff">
   <rect x="54" y="34.56" width="334.8" height="217.44"/>
  </clipPath>
 </defs>
</svg>
