<?xml version="1.0" encoding="utf-8" standalone="no"?>
<!DOCTYPE svg PUBLIC "-//W3C//DTD SVG 1.1//EN"
  "http://www.w3.org/Graphics/SVG/1.1/DTD/svg11.dtd">
<svg height="288pt" version="1.1" viewBox="0 0 432 288" width="432pt" xmlns="http://www.w3.org/2000/svg" xmlns:xlink="http://www.w3.org/1999/xlink">
 <metadata>
  <rdf:RDF xmlns:cc="http://creativecommons.org/ns#" xmlns:dc="http://purl.org/dc/elements/1.1/" xmlns:rdf="http://www.w3.org/1999/02/22-rdf-syntax-ns#">
   <cc:Work>
    <dc:type rdf:resource="http://purl.org/dc/dcmitype/StillImage"/>
    <dc:date>2021-09-03T12:01:53.131348</dc:date>
    <dc:format>image/svg+xml</dc:format>
    <dc:creator>
     <cc:Agent>
      <dc:title>Matplotlib v3.4.1, https://matplotlib.org/</dc:title>
     </cc:Agent>
    </dc:creator>
   </cc:Work>
  </rdf:RDF>
 </metadata>
 <defs>
  <style type="text/css">*{stroke-linecap:butt;stroke-linejoin:round;}</style>
 </defs>
 <g id="figure_1">
  <g id="patch_1">
   <path d="M 0 288 
L 432 288 
L 432 0 
L 0 0 
z
" style="fill:none;"/>
  </g>
  <g id="axes_1">
   <g id="patch_2">
    <path d="M 54 252 
L 388.8 252 
L 388.8 34.56 
L 54 34.56 
z
" style="fill:#ffffff;"/>
   </g>
   <g id="matplotlib.axis_1">
    <g id="xtick_1">
     <g id="line2d_1">
      <defs>
       <path d="M 0 0 
L 0 3.5 
" id="me0a6ba8d96" style="stroke:#000000;stroke-width:0.8;"/>
      </defs>
      <g>
       <use style="stroke:#000000;stroke-width:0.8;" x="69.218182" xlink:href="#me0a6ba8d96" y="252"/>
      </g>
     </g>
     <g id="text_1">
      <!-- 0 -->
      <g transform="translate(66.036932 266.598437)scale(0.1 -0.1)">
       <defs>
        <path d="M 2034 4250 
Q 1547 4250 1301 3770 
Q 1056 3291 1056 2328 
Q 1056 1369 1301 889 
Q 1547 409 2034 409 
Q 2525 409 2770 889 
Q 3016 1369 3016 2328 
Q 3016 3291 2770 3770 
Q 2525 4250 2034 4250 
z
M 2034 4750 
Q 2819 4750 3233 4129 
Q 3647 3509 3647 2328 
Q 3647 1150 3233 529 
Q 2819 -91 2034 -91 
Q 1250 -91 836 529 
Q 422 1150 422 2328 
Q 422 3509 836 4129 
Q 1250 4750 2034 4750 
z
" id="DejaVuSans-30" transform="scale(0.015625)"/>
       </defs>
       <use xlink:href="#DejaVuSans-30"/>
      </g>
     </g>
    </g>
    <g id="xtick_2">
     <g id="line2d_2">
      <g>
       <use style="stroke:#000000;stroke-width:0.8;" x="119.937001" xlink:href="#me0a6ba8d96" y="252"/>
      </g>
     </g>
     <g id="text_2">
      <!-- 500 -->
      <g transform="translate(110.393251 266.598437)scale(0.1 -0.1)">
       <defs>
        <path d="M 691 4666 
L 3169 4666 
L 3169 4134 
L 1269 4134 
L 1269 2991 
Q 1406 3038 1543 3061 
Q 1681 3084 1819 3084 
Q 2600 3084 3056 2656 
Q 3513 2228 3513 1497 
Q 3513 744 3044 326 
Q 2575 -91 1722 -91 
Q 1428 -91 1123 -41 
Q 819 9 494 109 
L 494 744 
Q 775 591 1075 516 
Q 1375 441 1709 441 
Q 2250 441 2565 725 
Q 2881 1009 2881 1497 
Q 2881 1984 2565 2268 
Q 2250 2553 1709 2553 
Q 1456 2553 1204 2497 
Q 953 2441 691 2322 
L 691 4666 
z
" id="DejaVuSans-35" transform="scale(0.015625)"/>
       </defs>
       <use xlink:href="#DejaVuSans-35"/>
       <use x="63.623047" xlink:href="#DejaVuSans-30"/>
       <use x="127.246094" xlink:href="#DejaVuSans-30"/>
      </g>
     </g>
    </g>
    <g id="xtick_3">
     <g id="line2d_3">
      <g>
       <use style="stroke:#000000;stroke-width:0.8;" x="170.655821" xlink:href="#me0a6ba8d96" y="252"/>
      </g>
     </g>
     <g id="text_3">
      <!-- 1000 -->
      <g transform="translate(157.930821 266.598437)scale(0.1 -0.1)">
       <defs>
        <path d="M 794 531 
L 1825 531 
L 1825 4091 
L 703 3866 
L 703 4441 
L 1819 4666 
L 2450 4666 
L 2450 531 
L 3481 531 
L 3481 0 
L 794 0 
L 794 531 
z
" id="DejaVuSans-31" transform="scale(0.015625)"/>
       </defs>
       <use xlink:href="#DejaVuSans-31"/>
       <use x="63.623047" xlink:href="#DejaVuSans-30"/>
       <use x="127.246094" xlink:href="#DejaVuSans-30"/>
       <use x="190.869141" xlink:href="#DejaVuSans-30"/>
      </g>
     </g>
    </g>
    <g id="xtick_4">
     <g id="line2d_4">
      <g>
       <use style="stroke:#000000;stroke-width:0.8;" x="221.374641" xlink:href="#me0a6ba8d96" y="252"/>
      </g>
     </g>
     <g id="text_4">
      <!-- 1500 -->
      <g transform="translate(208.649641 266.598437)scale(0.1 -0.1)">
       <use xlink:href="#DejaVuSans-31"/>
       <use x="63.623047" xlink:href="#DejaVuSans-35"/>
       <use x="127.246094" xlink:href="#DejaVuSans-30"/>
       <use x="190.869141" xlink:href="#DejaVuSans-30"/>
      </g>
     </g>
    </g>
    <g id="xtick_5">
     <g id="line2d_5">
      <g>
       <use style="stroke:#000000;stroke-width:0.8;" x="272.09346" xlink:href="#me0a6ba8d96" y="252"/>
      </g>
     </g>
     <g id="text_5">
      <!-- 2000 -->
      <g transform="translate(259.36846 266.598437)scale(0.1 -0.1)">
       <defs>
        <path d="M 1228 531 
L 3431 531 
L 3431 0 
L 469 0 
L 469 531 
Q 828 903 1448 1529 
Q 2069 2156 2228 2338 
Q 2531 2678 2651 2914 
Q 2772 3150 2772 3378 
Q 2772 3750 2511 3984 
Q 2250 4219 1831 4219 
Q 1534 4219 1204 4116 
Q 875 4013 500 3803 
L 500 4441 
Q 881 4594 1212 4672 
Q 1544 4750 1819 4750 
Q 2544 4750 2975 4387 
Q 3406 4025 3406 3419 
Q 3406 3131 3298 2873 
Q 3191 2616 2906 2266 
Q 2828 2175 2409 1742 
Q 1991 1309 1228 531 
z
" id="DejaVuSans-32" transform="scale(0.015625)"/>
       </defs>
       <use xlink:href="#DejaVuSans-32"/>
       <use x="63.623047" xlink:href="#DejaVuSans-30"/>
       <use x="127.246094" xlink:href="#DejaVuSans-30"/>
       <use x="190.869141" xlink:href="#DejaVuSans-30"/>
      </g>
     </g>
    </g>
    <g id="xtick_6">
     <g id="line2d_6">
      <g>
       <use style="stroke:#000000;stroke-width:0.8;" x="322.81228" xlink:href="#me0a6ba8d96" y="252"/>
      </g>
     </g>
     <g id="text_6">
      <!-- 2500 -->
      <g transform="translate(310.08728 266.598437)scale(0.1 -0.1)">
       <use xlink:href="#DejaVuSans-32"/>
       <use x="63.623047" xlink:href="#DejaVuSans-35"/>
       <use x="127.246094" xlink:href="#DejaVuSans-30"/>
       <use x="190.869141" xlink:href="#DejaVuSans-30"/>
      </g>
     </g>
    </g>
    <g id="xtick_7">
     <g id="line2d_7">
      <g>
       <use style="stroke:#000000;stroke-width:0.8;" x="373.531099" xlink:href="#me0a6ba8d96" y="252"/>
      </g>
     </g>
     <g id="text_7">
      <!-- 3000 -->
      <g transform="translate(360.806099 266.598437)scale(0.1 -0.1)">
       <defs>
        <path d="M 2597 2516 
Q 3050 2419 3304 2112 
Q 3559 1806 3559 1356 
Q 3559 666 3084 287 
Q 2609 -91 1734 -91 
Q 1441 -91 1130 -33 
Q 819 25 488 141 
L 488 750 
Q 750 597 1062 519 
Q 1375 441 1716 441 
Q 2309 441 2620 675 
Q 2931 909 2931 1356 
Q 2931 1769 2642 2001 
Q 2353 2234 1838 2234 
L 1294 2234 
L 1294 2753 
L 1863 2753 
Q 2328 2753 2575 2939 
Q 2822 3125 2822 3475 
Q 2822 3834 2567 4026 
Q 2313 4219 1838 4219 
Q 1578 4219 1281 4162 
Q 984 4106 628 3988 
L 628 4550 
Q 988 4650 1302 4700 
Q 1616 4750 1894 4750 
Q 2613 4750 3031 4423 
Q 3450 4097 3450 3541 
Q 3450 3153 3228 2886 
Q 3006 2619 2597 2516 
z
" id="DejaVuSans-33" transform="scale(0.015625)"/>
       </defs>
       <use xlink:href="#DejaVuSans-33"/>
       <use x="63.623047" xlink:href="#DejaVuSans-30"/>
       <use x="127.246094" xlink:href="#DejaVuSans-30"/>
       <use x="190.869141" xlink:href="#DejaVuSans-30"/>
      </g>
     </g>
    </g>
    <g id="text_8">
     <!-- Time(ms) -->
     <g transform="translate(197.789844 280.276563)scale(0.1 -0.1)">
      <defs>
       <path d="M -19 4666 
L 3928 4666 
L 3928 4134 
L 2272 4134 
L 2272 0 
L 1638 0 
L 1638 4134 
L -19 4134 
L -19 4666 
z
" id="DejaVuSans-54" transform="scale(0.015625)"/>
       <path d="M 603 3500 
L 1178 3500 
L 1178 0 
L 603 0 
L 603 3500 
z
M 603 4863 
L 1178 4863 
L 1178 4134 
L 603 4134 
L 603 4863 
z
" id="DejaVuSans-69" transform="scale(0.015625)"/>
       <path d="M 3328 2828 
Q 3544 3216 3844 3400 
Q 4144 3584 4550 3584 
Q 5097 3584 5394 3201 
Q 5691 2819 5691 2113 
L 5691 0 
L 5113 0 
L 5113 2094 
Q 5113 2597 4934 2840 
Q 4756 3084 4391 3084 
Q 3944 3084 3684 2787 
Q 3425 2491 3425 1978 
L 3425 0 
L 2847 0 
L 2847 2094 
Q 2847 2600 2669 2842 
Q 2491 3084 2119 3084 
Q 1678 3084 1418 2786 
Q 1159 2488 1159 1978 
L 1159 0 
L 581 0 
L 581 3500 
L 1159 3500 
L 1159 2956 
Q 1356 3278 1631 3431 
Q 1906 3584 2284 3584 
Q 2666 3584 2933 3390 
Q 3200 3197 3328 2828 
z
" id="DejaVuSans-6d" transform="scale(0.015625)"/>
       <path d="M 3597 1894 
L 3597 1613 
L 953 1613 
Q 991 1019 1311 708 
Q 1631 397 2203 397 
Q 2534 397 2845 478 
Q 3156 559 3463 722 
L 3463 178 
Q 3153 47 2828 -22 
Q 2503 -91 2169 -91 
Q 1331 -91 842 396 
Q 353 884 353 1716 
Q 353 2575 817 3079 
Q 1281 3584 2069 3584 
Q 2775 3584 3186 3129 
Q 3597 2675 3597 1894 
z
M 3022 2063 
Q 3016 2534 2758 2815 
Q 2500 3097 2075 3097 
Q 1594 3097 1305 2825 
Q 1016 2553 972 2059 
L 3022 2063 
z
" id="DejaVuSans-65" transform="scale(0.015625)"/>
       <path d="M 1984 4856 
Q 1566 4138 1362 3434 
Q 1159 2731 1159 2009 
Q 1159 1288 1364 580 
Q 1569 -128 1984 -844 
L 1484 -844 
Q 1016 -109 783 600 
Q 550 1309 550 2009 
Q 550 2706 781 3412 
Q 1013 4119 1484 4856 
L 1984 4856 
z
" id="DejaVuSans-28" transform="scale(0.015625)"/>
       <path d="M 2834 3397 
L 2834 2853 
Q 2591 2978 2328 3040 
Q 2066 3103 1784 3103 
Q 1356 3103 1142 2972 
Q 928 2841 928 2578 
Q 928 2378 1081 2264 
Q 1234 2150 1697 2047 
L 1894 2003 
Q 2506 1872 2764 1633 
Q 3022 1394 3022 966 
Q 3022 478 2636 193 
Q 2250 -91 1575 -91 
Q 1294 -91 989 -36 
Q 684 19 347 128 
L 347 722 
Q 666 556 975 473 
Q 1284 391 1588 391 
Q 1994 391 2212 530 
Q 2431 669 2431 922 
Q 2431 1156 2273 1281 
Q 2116 1406 1581 1522 
L 1381 1569 
Q 847 1681 609 1914 
Q 372 2147 372 2553 
Q 372 3047 722 3315 
Q 1072 3584 1716 3584 
Q 2034 3584 2315 3537 
Q 2597 3491 2834 3397 
z
" id="DejaVuSans-73" transform="scale(0.015625)"/>
       <path d="M 513 4856 
L 1013 4856 
Q 1481 4119 1714 3412 
Q 1947 2706 1947 2009 
Q 1947 1309 1714 600 
Q 1481 -109 1013 -844 
L 513 -844 
Q 928 -128 1133 580 
Q 1338 1288 1338 2009 
Q 1338 2731 1133 3434 
Q 928 4138 513 4856 
z
" id="DejaVuSans-29" transform="scale(0.015625)"/>
      </defs>
      <use xlink:href="#DejaVuSans-54"/>
      <use x="57.958984" xlink:href="#DejaVuSans-69"/>
      <use x="85.742188" xlink:href="#DejaVuSans-6d"/>
      <use x="183.154297" xlink:href="#DejaVuSans-65"/>
      <use x="244.677734" xlink:href="#DejaVuSans-28"/>
      <use x="283.691406" xlink:href="#DejaVuSans-6d"/>
      <use x="381.103516" xlink:href="#DejaVuSans-73"/>
      <use x="433.203125" xlink:href="#DejaVuSans-29"/>
     </g>
    </g>
   </g>
   <g id="matplotlib.axis_2">
    <g id="ytick_1">
     <g id="line2d_8">
      <defs>
       <path d="M 0 0 
L -3.5 0 
" id="md27085349a" style="stroke:#000000;stroke-width:0.8;"/>
      </defs>
      <g>
       <use style="stroke:#000000;stroke-width:0.8;" x="54" xlink:href="#md27085349a" y="252"/>
      </g>
     </g>
     <g id="text_9">
      <!-- −100 -->
      <g transform="translate(19.532812 255.799219)scale(0.1 -0.1)">
       <defs>
        <path d="M 678 2272 
L 4684 2272 
L 4684 1741 
L 678 1741 
L 678 2272 
z
" id="DejaVuSans-2212" transform="scale(0.015625)"/>
       </defs>
       <use xlink:href="#DejaVuSans-2212"/>
       <use x="83.789062" xlink:href="#DejaVuSans-31"/>
       <use x="147.412109" xlink:href="#DejaVuSans-30"/>
       <use x="211.035156" xlink:href="#DejaVuSans-30"/>
      </g>
     </g>
    </g>
    <g id="ytick_2">
     <g id="line2d_9">
      <g>
       <use style="stroke:#000000;stroke-width:0.8;" x="54" xlink:href="#md27085349a" y="215.76"/>
      </g>
     </g>
     <g id="text_10">
      <!-- −95 -->
      <g transform="translate(25.895312 219.559219)scale(0.1 -0.1)">
       <defs>
        <path d="M 703 97 
L 703 672 
Q 941 559 1184 500 
Q 1428 441 1663 441 
Q 2288 441 2617 861 
Q 2947 1281 2994 2138 
Q 2813 1869 2534 1725 
Q 2256 1581 1919 1581 
Q 1219 1581 811 2004 
Q 403 2428 403 3163 
Q 403 3881 828 4315 
Q 1253 4750 1959 4750 
Q 2769 4750 3195 4129 
Q 3622 3509 3622 2328 
Q 3622 1225 3098 567 
Q 2575 -91 1691 -91 
Q 1453 -91 1209 -44 
Q 966 3 703 97 
z
M 1959 2075 
Q 2384 2075 2632 2365 
Q 2881 2656 2881 3163 
Q 2881 3666 2632 3958 
Q 2384 4250 1959 4250 
Q 1534 4250 1286 3958 
Q 1038 3666 1038 3163 
Q 1038 2656 1286 2365 
Q 1534 2075 1959 2075 
z
" id="DejaVuSans-39" transform="scale(0.015625)"/>
       </defs>
       <use xlink:href="#DejaVuSans-2212"/>
       <use x="83.789062" xlink:href="#DejaVuSans-39"/>
       <use x="147.412109" xlink:href="#DejaVuSans-35"/>
      </g>
     </g>
    </g>
    <g id="ytick_3">
     <g id="line2d_10">
      <g>
       <use style="stroke:#000000;stroke-width:0.8;" x="54" xlink:href="#md27085349a" y="179.52"/>
      </g>
     </g>
     <g id="text_11">
      <!-- −90 -->
      <g transform="translate(25.895312 183.319219)scale(0.1 -0.1)">
       <use xlink:href="#DejaVuSans-2212"/>
       <use x="83.789062" xlink:href="#DejaVuSans-39"/>
       <use x="147.412109" xlink:href="#DejaVuSans-30"/>
      </g>
     </g>
    </g>
    <g id="ytick_4">
     <g id="line2d_11">
      <g>
       <use style="stroke:#000000;stroke-width:0.8;" x="54" xlink:href="#md27085349a" y="143.28"/>
      </g>
     </g>
     <g id="text_12">
      <!-- −85 -->
      <g transform="translate(25.895312 147.079219)scale(0.1 -0.1)">
       <defs>
        <path d="M 2034 2216 
Q 1584 2216 1326 1975 
Q 1069 1734 1069 1313 
Q 1069 891 1326 650 
Q 1584 409 2034 409 
Q 2484 409 2743 651 
Q 3003 894 3003 1313 
Q 3003 1734 2745 1975 
Q 2488 2216 2034 2216 
z
M 1403 2484 
Q 997 2584 770 2862 
Q 544 3141 544 3541 
Q 544 4100 942 4425 
Q 1341 4750 2034 4750 
Q 2731 4750 3128 4425 
Q 3525 4100 3525 3541 
Q 3525 3141 3298 2862 
Q 3072 2584 2669 2484 
Q 3125 2378 3379 2068 
Q 3634 1759 3634 1313 
Q 3634 634 3220 271 
Q 2806 -91 2034 -91 
Q 1263 -91 848 271 
Q 434 634 434 1313 
Q 434 1759 690 2068 
Q 947 2378 1403 2484 
z
M 1172 3481 
Q 1172 3119 1398 2916 
Q 1625 2713 2034 2713 
Q 2441 2713 2670 2916 
Q 2900 3119 2900 3481 
Q 2900 3844 2670 4047 
Q 2441 4250 2034 4250 
Q 1625 4250 1398 4047 
Q 1172 3844 1172 3481 
z
" id="DejaVuSans-38" transform="scale(0.015625)"/>
       </defs>
       <use xlink:href="#DejaVuSans-2212"/>
       <use x="83.789062" xlink:href="#DejaVuSans-38"/>
       <use x="147.412109" xlink:href="#DejaVuSans-35"/>
      </g>
     </g>
    </g>
    <g id="ytick_5">
     <g id="line2d_12">
      <g>
       <use style="stroke:#000000;stroke-width:0.8;" x="54" xlink:href="#md27085349a" y="107.04"/>
      </g>
     </g>
     <g id="text_13">
      <!-- −80 -->
      <g transform="translate(25.895312 110.839219)scale(0.1 -0.1)">
       <use xlink:href="#DejaVuSans-2212"/>
       <use x="83.789062" xlink:href="#DejaVuSans-38"/>
       <use x="147.412109" xlink:href="#DejaVuSans-30"/>
      </g>
     </g>
    </g>
    <g id="ytick_6">
     <g id="line2d_13">
      <g>
       <use style="stroke:#000000;stroke-width:0.8;" x="54" xlink:href="#md27085349a" y="70.8"/>
      </g>
     </g>
     <g id="text_14">
      <!-- −75 -->
      <g transform="translate(25.895312 74.599219)scale(0.1 -0.1)">
       <defs>
        <path d="M 525 4666 
L 3525 4666 
L 3525 4397 
L 1831 0 
L 1172 0 
L 2766 4134 
L 525 4134 
L 525 4666 
z
" id="DejaVuSans-37" transform="scale(0.015625)"/>
       </defs>
       <use xlink:href="#DejaVuSans-2212"/>
       <use x="83.789062" xlink:href="#DejaVuSans-37"/>
       <use x="147.412109" xlink:href="#DejaVuSans-35"/>
      </g>
     </g>
    </g>
    <g id="ytick_7">
     <g id="line2d_14">
      <g>
       <use style="stroke:#000000;stroke-width:0.8;" x="54" xlink:href="#md27085349a" y="34.56"/>
      </g>
     </g>
     <g id="text_15">
      <!-- −70 -->
      <g transform="translate(25.895312 38.359219)scale(0.1 -0.1)">
       <use xlink:href="#DejaVuSans-2212"/>
       <use x="83.789062" xlink:href="#DejaVuSans-37"/>
       <use x="147.412109" xlink:href="#DejaVuSans-30"/>
      </g>
     </g>
    </g>
    <g id="text_16">
     <!-- Membrane potential (mV) -->
     <g transform="translate(13.453125 207.691719)rotate(-90)scale(0.1 -0.1)">
      <defs>
       <path d="M 628 4666 
L 1569 4666 
L 2759 1491 
L 3956 4666 
L 4897 4666 
L 4897 0 
L 4281 0 
L 4281 4097 
L 3078 897 
L 2444 897 
L 1241 4097 
L 1241 0 
L 628 0 
L 628 4666 
z
" id="DejaVuSans-4d" transform="scale(0.015625)"/>
       <path d="M 3116 1747 
Q 3116 2381 2855 2742 
Q 2594 3103 2138 3103 
Q 1681 3103 1420 2742 
Q 1159 2381 1159 1747 
Q 1159 1113 1420 752 
Q 1681 391 2138 391 
Q 2594 391 2855 752 
Q 3116 1113 3116 1747 
z
M 1159 2969 
Q 1341 3281 1617 3432 
Q 1894 3584 2278 3584 
Q 2916 3584 3314 3078 
Q 3713 2572 3713 1747 
Q 3713 922 3314 415 
Q 2916 -91 2278 -91 
Q 1894 -91 1617 61 
Q 1341 213 1159 525 
L 1159 0 
L 581 0 
L 581 4863 
L 1159 4863 
L 1159 2969 
z
" id="DejaVuSans-62" transform="scale(0.015625)"/>
       <path d="M 2631 2963 
Q 2534 3019 2420 3045 
Q 2306 3072 2169 3072 
Q 1681 3072 1420 2755 
Q 1159 2438 1159 1844 
L 1159 0 
L 581 0 
L 581 3500 
L 1159 3500 
L 1159 2956 
Q 1341 3275 1631 3429 
Q 1922 3584 2338 3584 
Q 2397 3584 2469 3576 
Q 2541 3569 2628 3553 
L 2631 2963 
z
" id="DejaVuSans-72" transform="scale(0.015625)"/>
       <path d="M 2194 1759 
Q 1497 1759 1228 1600 
Q 959 1441 959 1056 
Q 959 750 1161 570 
Q 1363 391 1709 391 
Q 2188 391 2477 730 
Q 2766 1069 2766 1631 
L 2766 1759 
L 2194 1759 
z
M 3341 1997 
L 3341 0 
L 2766 0 
L 2766 531 
Q 2569 213 2275 61 
Q 1981 -91 1556 -91 
Q 1019 -91 701 211 
Q 384 513 384 1019 
Q 384 1609 779 1909 
Q 1175 2209 1959 2209 
L 2766 2209 
L 2766 2266 
Q 2766 2663 2505 2880 
Q 2244 3097 1772 3097 
Q 1472 3097 1187 3025 
Q 903 2953 641 2809 
L 641 3341 
Q 956 3463 1253 3523 
Q 1550 3584 1831 3584 
Q 2591 3584 2966 3190 
Q 3341 2797 3341 1997 
z
" id="DejaVuSans-61" transform="scale(0.015625)"/>
       <path d="M 3513 2113 
L 3513 0 
L 2938 0 
L 2938 2094 
Q 2938 2591 2744 2837 
Q 2550 3084 2163 3084 
Q 1697 3084 1428 2787 
Q 1159 2491 1159 1978 
L 1159 0 
L 581 0 
L 581 3500 
L 1159 3500 
L 1159 2956 
Q 1366 3272 1645 3428 
Q 1925 3584 2291 3584 
Q 2894 3584 3203 3211 
Q 3513 2838 3513 2113 
z
" id="DejaVuSans-6e" transform="scale(0.015625)"/>
       <path id="DejaVuSans-20" transform="scale(0.015625)"/>
       <path d="M 1159 525 
L 1159 -1331 
L 581 -1331 
L 581 3500 
L 1159 3500 
L 1159 2969 
Q 1341 3281 1617 3432 
Q 1894 3584 2278 3584 
Q 2916 3584 3314 3078 
Q 3713 2572 3713 1747 
Q 3713 922 3314 415 
Q 2916 -91 2278 -91 
Q 1894 -91 1617 61 
Q 1341 213 1159 525 
z
M 3116 1747 
Q 3116 2381 2855 2742 
Q 2594 3103 2138 3103 
Q 1681 3103 1420 2742 
Q 1159 2381 1159 1747 
Q 1159 1113 1420 752 
Q 1681 391 2138 391 
Q 2594 391 2855 752 
Q 3116 1113 3116 1747 
z
" id="DejaVuSans-70" transform="scale(0.015625)"/>
       <path d="M 1959 3097 
Q 1497 3097 1228 2736 
Q 959 2375 959 1747 
Q 959 1119 1226 758 
Q 1494 397 1959 397 
Q 2419 397 2687 759 
Q 2956 1122 2956 1747 
Q 2956 2369 2687 2733 
Q 2419 3097 1959 3097 
z
M 1959 3584 
Q 2709 3584 3137 3096 
Q 3566 2609 3566 1747 
Q 3566 888 3137 398 
Q 2709 -91 1959 -91 
Q 1206 -91 779 398 
Q 353 888 353 1747 
Q 353 2609 779 3096 
Q 1206 3584 1959 3584 
z
" id="DejaVuSans-6f" transform="scale(0.015625)"/>
       <path d="M 1172 4494 
L 1172 3500 
L 2356 3500 
L 2356 3053 
L 1172 3053 
L 1172 1153 
Q 1172 725 1289 603 
Q 1406 481 1766 481 
L 2356 481 
L 2356 0 
L 1766 0 
Q 1100 0 847 248 
Q 594 497 594 1153 
L 594 3053 
L 172 3053 
L 172 3500 
L 594 3500 
L 594 4494 
L 1172 4494 
z
" id="DejaVuSans-74" transform="scale(0.015625)"/>
       <path d="M 603 4863 
L 1178 4863 
L 1178 0 
L 603 0 
L 603 4863 
z
" id="DejaVuSans-6c" transform="scale(0.015625)"/>
       <path d="M 1831 0 
L 50 4666 
L 709 4666 
L 2188 738 
L 3669 4666 
L 4325 4666 
L 2547 0 
L 1831 0 
z
" id="DejaVuSans-56" transform="scale(0.015625)"/>
      </defs>
      <use xlink:href="#DejaVuSans-4d"/>
      <use x="86.279297" xlink:href="#DejaVuSans-65"/>
      <use x="147.802734" xlink:href="#DejaVuSans-6d"/>
      <use x="245.214844" xlink:href="#DejaVuSans-62"/>
      <use x="308.691406" xlink:href="#DejaVuSans-72"/>
      <use x="349.804688" xlink:href="#DejaVuSans-61"/>
      <use x="411.083984" xlink:href="#DejaVuSans-6e"/>
      <use x="474.462891" xlink:href="#DejaVuSans-65"/>
      <use x="535.986328" xlink:href="#DejaVuSans-20"/>
      <use x="567.773438" xlink:href="#DejaVuSans-70"/>
      <use x="631.25" xlink:href="#DejaVuSans-6f"/>
      <use x="692.431641" xlink:href="#DejaVuSans-74"/>
      <use x="731.640625" xlink:href="#DejaVuSans-65"/>
      <use x="793.164062" xlink:href="#DejaVuSans-6e"/>
      <use x="856.542969" xlink:href="#DejaVuSans-74"/>
      <use x="895.751953" xlink:href="#DejaVuSans-69"/>
      <use x="923.535156" xlink:href="#DejaVuSans-61"/>
      <use x="984.814453" xlink:href="#DejaVuSans-6c"/>
      <use x="1012.597656" xlink:href="#DejaVuSans-20"/>
      <use x="1044.384766" xlink:href="#DejaVuSans-28"/>
      <use x="1083.398438" xlink:href="#DejaVuSans-6d"/>
      <use x="1180.810547" xlink:href="#DejaVuSans-56"/>
      <use x="1249.21875" xlink:href="#DejaVuSans-29"/>
     </g>
    </g>
   </g>
   <g id="line2d_15">
    <path clip-path="url(#pd23ec18687)" d="M 69.218182 157.776 
L 69.522545 186.925282 
L 69.928364 207.055152 
L 70.334182 217.427765 
L 70.74 222.4644 
L 71.145818 224.816376 
L 71.247273 225.169354 
L 71.298 225.095424 
L 71.450182 222.168682 
L 71.856 211.866374 
L 72.109636 209.88767 
L 72.261818 209.990592 
L 72.363273 208.394582 
L 72.819818 194.977085 
L 73.073455 191.815507 
L 73.124182 191.794488 
L 73.225636 192.323592 
L 73.479273 195.867864 
L 73.834364 201.000173 
L 74.290909 202.185221 
L 74.493818 203.665262 
L 74.544545 203.465942 
L 74.747455 202.635322 
L 74.848909 203.009318 
L 75.102545 205.521475 
L 75.406909 209.059949 
L 75.457636 208.830912 
L 75.711273 205.878802 
L 75.964909 200.072429 
L 76.066364 199.70713 
L 76.117091 199.820198 
L 76.218545 200.146358 
L 76.32 199.355602 
L 76.522909 195.216269 
L 76.776545 191.097955 
L 76.878 190.889213 
L 76.979455 191.348736 
L 77.233091 194.437109 
L 78.349091 212.600597 
L 78.399818 212.51797 
L 78.805636 208.11191 
L 79.11 204.597355 
L 79.211455 204.524875 
L 79.363636 205.19604 
L 79.718727 208.645363 
L 80.023091 211.966397 
L 80.073818 211.851154 
L 80.428909 205.820818 
L 80.885455 192.518563 
L 81.240545 189.256238 
L 81.291273 189.270734 
L 81.595636 190.873267 
L 81.646364 190.776144 
L 81.747818 189.047496 
L 82.052182 181.956053 
L 82.153636 181.212408 
L 82.356545 179.418528 
L 82.458 180.001267 
L 82.660909 183.298382 
L 82.965273 188.07409 
L 83.168182 188.840928 
L 83.371091 190.956619 
L 83.624727 192.971563 
L 83.827636 194.420438 
L 84.182727 199.56217 
L 84.385636 201.584362 
L 84.436364 201.739469 
L 84.791455 198.995376 
L 84.842182 199.090325 
L 84.994364 199.999224 
L 85.349455 204.092894 
L 86.211818 214.084262 
L 86.719091 217.500245 
L 87.124909 219.153514 
L 87.226364 218.340288 
L 87.581455 212.011334 
L 88.038 201.548846 
L 88.139455 201.780782 
L 88.342364 203.442024 
L 88.849636 208.842509 
L 88.900364 208.743936 
L 89.103273 208.393858 
L 89.255455 208.551139 
L 89.712 205.947658 
L 89.965636 203.4384 
L 90.016364 203.392013 
L 90.067091 203.471741 
L 90.219273 204.292214 
L 90.472909 206.402107 
L 90.523636 206.382538 
L 90.675818 205.17647 
L 91.081636 201.025541 
L 91.132364 200.958859 
L 91.183091 201.000898 
L 91.335273 201.678586 
L 91.639636 204.616925 
L 91.791818 205.910693 
L 91.944 203.018741 
L 92.197636 199.338206 
L 92.248364 199.282397 
L 92.349818 199.640448 
L 92.603455 202.201891 
L 93.313636 211.319875 
L 93.770182 202.554869 
L 93.871636 202.765786 
L 94.074545 204.304536 
L 95.292 216.276782 
L 95.342727 216.230395 
L 95.799273 214.887341 
L 95.85 214.90836 
L 96.002182 215.16349 
L 96.052909 215.297578 
L 96.154364 214.360411 
L 96.458727 211.415549 
L 96.560182 211.305379 
L 96.661636 211.352491 
L 96.864545 210.367488 
L 97.219636 208.51345 
L 97.473273 206.688403 
L 97.524 206.639842 
L 97.625455 206.016514 
L 97.879091 204.261048 
L 97.980545 204.329904 
L 98.132727 205.129358 
L 98.538545 208.964275 
L 98.589273 208.713494 
L 99.857455 187.071691 
L 100.415455 181.843709 
L 100.516909 182.166245 
L 100.719818 184.616069 
L 101.227091 195.259757 
L 101.937273 208.881648 
L 102.140182 210.688574 
L 102.444545 210.046402 
L 102.495273 210.085541 
L 102.647455 208.271366 
L 102.850364 206.57171 
L 102.901091 206.493432 
L 102.951818 206.526773 
L 103.104 207.132706 
L 103.459091 210.040603 
L 103.864909 213.595022 
L 103.915636 213.568205 
L 104.169273 211.714166 
L 104.524364 207.913315 
L 104.879455 201.077002 
L 105.082364 199.853539 
L 105.386727 198.145186 
L 105.488182 198.316238 
L 105.741818 199.512883 
L 105.792545 199.47012 
L 105.843273 199.319362 
L 106.198364 195.965712 
L 106.553455 196.599912 
L 106.756364 196.423061 
L 106.857818 196.69921 
L 107.060727 198.20317 
L 107.517273 204.01679 
L 108.328909 213.785645 
L 108.836182 217.460381 
L 109.343455 219.597091 
L 109.850727 220.799534 
L 109.901455 220.866216 
L 109.952182 220.79591 
L 110.155091 219.349934 
L 110.256545 218.420741 
L 110.611636 210.182664 
L 110.763818 209.629642 
L 110.865273 209.79707 
L 111.068182 210.846581 
L 111.981273 217.451683 
L 112.032 217.273382 
L 112.336364 213.434117 
L 112.539273 207.86113 
L 112.792909 203.118038 
L 113.097273 201.599582 
L 113.198727 201.659741 
L 113.350909 202.401936 
L 113.655273 205.409856 
L 114.466909 214.253141 
L 114.619091 213.392803 
L 114.822 212.499125 
L 114.923455 212.509272 
L 115.024909 212.754254 
L 115.075636 212.701344 
L 115.481455 209.92391 
L 115.532182 209.931883 
L 115.684364 210.385608 
L 116.039455 212.782522 
L 116.445273 215.717237 
L 116.597455 214.51117 
L 117.358364 205.193141 
L 117.764182 197.792933 
L 117.814909 197.65667 
L 117.865636 197.681314 
L 118.017818 198.522806 
L 118.322182 202.165651 
L 118.423636 201.79093 
L 118.575818 201.119765 
L 118.677273 201.4452 
L 118.930909 203.928365 
L 119.387455 208.70987 
L 119.488909 208.14815 
L 119.793273 206.036808 
L 119.894727 206.024486 
L 120.046909 206.586206 
L 120.402 209.211432 
L 120.452727 208.727266 
L 120.706364 206.66376 
L 120.807818 206.768131 
L 121.010727 207.944482 
L 122.278909 218.012678 
L 122.329636 217.935125 
L 122.938364 215.478053 
L 123.090545 215.703466 
L 123.445636 216.697891 
L 123.496364 216.510893 
L 123.902182 214.495224 
L 124.003636 214.495224 
L 124.155818 214.802539 
L 124.409455 215.808562 
L 124.460182 215.499072 
L 124.764545 211.354666 
L 124.866 211.043002 
L 125.170364 206.822491 
L 125.424 203.00352 
L 125.525455 202.755638 
L 125.576182 202.847688 
L 125.728364 203.748614 
L 126.134182 208.282963 
L 126.489273 212.143248 
L 126.54 211.932331 
L 126.793636 209.223754 
L 127.199455 202.341778 
L 127.453091 196.780387 
L 127.605273 196.425235 
L 127.757455 196.53613 
L 127.858909 196.718779 
L 128.011091 193.585469 
L 128.366182 180.31728 
L 128.467636 179.89907 
L 128.569091 180.505003 
L 128.822727 184.699421 
L 129.228545 191.166811 
L 129.786545 197.992978 
L 129.938727 198.884482 
L 130.243091 202.465718 
L 130.395273 204.053755 
L 130.446 203.992872 
L 130.598182 203.76601 
L 130.699636 203.979826 
L 130.902545 205.264171 
L 130.953273 205.247501 
L 131.562 195.859891 
L 131.663455 195.369202 
L 131.714182 195.403992 
L 131.866364 196.33681 
L 132.221455 201.060331 
L 133.083818 212.82456 
L 133.591091 216.847925 
L 133.794 217.911931 
L 133.844727 217.710437 
L 134.098364 213.109406 
L 135.163636 195.88381 
L 135.214364 195.943243 
L 135.265091 196.133866 
L 135.518727 193.623883 
L 135.569455 193.686216 
L 135.721636 194.871989 
L 136.076727 198.751843 
L 136.127455 198.694584 
L 136.330364 198.232162 
L 136.431818 198.47497 
L 136.634727 199.985453 
L 137.040545 204.332803 
L 137.142 204.166824 
L 137.243455 202.443974 
L 137.649273 192.776592 
L 137.750727 192.500443 
L 137.852182 192.894734 
L 138.055091 195.039418 
L 138.156545 196.317965 
L 138.207273 195.970061 
L 138.663818 186.996312 
L 139.018909 179.304734 
L 139.120364 178.72417 
L 139.171091 178.772731 
L 139.323273 180.058526 
L 139.627636 185.839531 
L 139.932 191.793038 
L 139.982727 191.753174 
L 140.134909 191.582846 
L 140.287091 191.854646 
L 140.337818 191.830728 
L 140.439273 191.864794 
L 140.591455 192.552629 
L 140.845091 195.362678 
L 142.265455 214.41912 
L 142.519091 216.13907 
L 142.569818 216.089784 
L 143.077091 212.936904 
L 143.127818 212.959373 
L 143.28 213.293506 
L 143.381455 213.644309 
L 143.432182 213.483403 
L 143.584364 210.519696 
L 143.939455 200.895802 
L 144.091636 200.019518 
L 144.193091 200.205067 
L 144.294545 200.470344 
L 144.548182 199.640448 
L 144.649636 199.926744 
L 144.852545 201.530002 
L 145.765636 211.887394 
L 145.867091 211.796794 
L 145.968545 210.90239 
L 146.577273 202.605605 
L 146.628 202.470067 
L 147.033818 195.422837 
L 147.084545 195.456902 
L 147.236727 196.367251 
L 147.896182 202.488912 
L 148.048364 199.889054 
L 148.302 196.236787 
L 148.403455 196.022246 
L 148.504909 196.37305 
L 148.707818 198.230712 
L 149.418 207.393634 
L 149.468727 207.124008 
L 149.874545 203.902997 
L 149.976 204.000845 
L 150.128182 204.704626 
L 150.178909 204.615475 
L 150.483273 203.268072 
L 150.584727 203.563066 
L 150.838364 205.48596 
L 151.294909 209.873174 
L 151.345636 209.540491 
L 151.599273 208.301083 
L 151.700727 208.448942 
L 151.903636 209.493379 
L 152.461636 213.373958 
L 152.512364 213.23987 
L 152.816727 212.37301 
L 152.867455 212.316475 
L 153.324 208.94688 
L 153.374727 208.972248 
L 153.526909 209.452066 
L 153.882 211.877971 
L 154.135636 213.771874 
L 154.186364 213.716064 
L 154.592182 212.042501 
L 154.744364 212.368661 
L 155.048727 213.887842 
L 155.150182 214.404624 
L 155.200909 214.319822 
L 155.353091 213.122453 
L 155.809636 207.874176 
L 155.911091 207.872726 
L 156.063273 208.448942 
L 156.418364 211.153171 
L 156.621273 212.557834 
L 157.280727 202.658515 
L 157.382182 202.409184 
L 157.432909 202.449773 
L 157.585091 202.825944 
L 157.737273 201.474917 
L 157.889455 198.517008 
L 158.143091 194.45088 
L 158.244545 194.289974 
L 158.346 194.765443 
L 158.599636 197.703782 
L 159.005455 203.388389 
L 159.056182 203.320982 
L 159.157636 203.218786 
L 159.208364 203.286192 
L 159.360545 204.026938 
L 159.715636 207.635717 
L 160.375091 214.58365 
L 160.425818 214.586549 
L 160.933091 211.883045 
L 161.237455 209.678203 
L 161.288182 209.536867 
L 161.643273 204.847411 
L 161.744727 205.053979 
L 161.947636 206.53837 
L 163.012909 216.690643 
L 163.063636 216.474653 
L 163.469455 213.953798 
L 163.570909 213.976992 
L 163.773818 214.574952 
L 163.926 215.098982 
L 163.976727 215.038824 
L 164.128909 214.414046 
L 164.889818 204.425578 
L 164.940545 204.471965 
L 165.042 204.872779 
L 165.092727 204.750288 
L 165.346364 201.48289 
L 165.397091 201.485064 
L 165.549273 202.356274 
L 165.955091 207.33275 
L 166.665273 215.475878 
L 167.121818 218.409869 
L 167.324727 215.504146 
L 167.679818 210.910363 
L 167.832 210.490704 
L 167.933455 210.61247 
L 168.136364 211.493827 
L 168.643636 215.046797 
L 168.694364 214.830806 
L 169.353818 207.11531 
L 169.708909 197.347181 
L 169.810364 197.160907 
L 170.064 193.588368 
L 170.114727 193.616635 
L 170.266909 194.815454 
L 170.774182 200.999448 
L 170.824909 200.648645 
L 171.078545 198.804754 
L 171.129273 198.833746 
L 171.281455 199.653494 
L 171.585818 203.25865 
L 171.687273 204.18277 
L 171.738 203.90952 
L 172.296 197.327611 
L 172.397455 196.323763 
L 172.600364 184.01521 
L 172.955455 166.690315 
L 173.310545 160.362086 
L 173.361273 160.153344 
L 173.412 160.229448 
L 173.564182 161.859523 
L 174.122182 167.665896 
L 174.325091 168.551602 
L 174.528 170.972434 
L 175.441091 186.274411 
L 175.491818 186.014208 
L 175.593273 185.838806 
L 175.694727 186.427344 
L 175.948364 190.141219 
L 176.404909 197.412413 
L 176.810727 194.575546 
L 177.064364 189.691118 
L 177.318 186.383131 
L 177.419455 186.262814 
L 177.520909 186.69552 
L 177.825273 189.585298 
L 177.876 189.432365 
L 177.977455 187.373208 
L 178.332545 177.104242 
L 178.586182 173.765813 
L 178.941273 171.673315 
L 178.992 171.713179 
L 179.144182 172.440878 
L 179.194909 172.387243 
L 179.499273 167.673144 
L 179.600727 168.168907 
L 179.803636 171.392818 
L 180.158727 179.147453 
L 180.209455 179.02931 
L 180.666 176.688206 
L 180.767455 176.784605 
L 180.919636 177.185419 
L 180.970364 177.036835 
L 181.071818 174.684859 
L 181.528364 160.395427 
L 181.629818 159.883718 
L 181.680545 160.020706 
L 182.086364 162.843077 
L 182.137091 162.764798 
L 182.289273 162.388627 
L 182.34 162.475603 
L 182.695091 164.760173 
L 182.948727 169.20972 
L 183.303818 175.95181 
L 183.405273 175.199467 
L 183.557455 171.339907 
L 183.963273 158.652283 
L 184.014 158.467459 
L 184.064727 158.563133 
L 184.267636 159.935179 
L 184.825636 148.331131 
L 184.876364 148.306488 
L 184.977818 149.089272 
L 185.282182 151.92179 
L 185.535818 153.027835 
L 185.586545 152.709648 
L 185.789455 149.648093 
L 186.398182 141.07081 
L 186.448909 141.095453 
L 186.550364 142.032619 
L 186.804 147.906398 
L 187.108364 155.437795 
L 187.260545 154.354944 
L 187.615636 148.136885 
L 187.666364 148.291267 
L 187.818545 150.175022 
L 188.173636 155.789323 
L 188.275091 156.093739 
L 188.427273 157.775275 
L 188.934545 164.923978 
L 189.036 163.462056 
L 189.492545 156.003864 
L 189.644727 155.108011 
L 189.796909 155.033357 
L 189.898364 155.483458 
L 190.862182 164.823955 
L 190.963636 164.786266 
L 191.065091 165.024 
L 191.217273 166.47215 
L 191.775273 175.460395 
L 191.876727 175.18787 
L 192.028909 172.659043 
L 192.333273 168.150787 
L 192.384 168.060187 
L 192.434727 168.162384 
L 192.586909 169.452528 
L 192.891273 174.946512 
L 194.108727 200.055034 
L 194.362364 200.065181 
L 194.565273 201.053083 
L 194.920364 203.405784 
L 194.971091 203.261549 
L 195.072545 202.408459 
L 195.376909 194.919826 
L 195.782727 177.297038 
L 195.985636 174.79213 
L 196.087091 175.010294 
L 196.137818 174.801552 
L 196.239273 174.386242 
L 196.29 174.429005 
L 196.442182 175.654642 
L 196.797273 178.453094 
L 196.848 178.645891 
L 197.000182 176.72952 
L 197.152364 175.572014 
L 197.253818 175.76771 
L 197.304545 175.610429 
L 197.710364 172.079203 
L 197.862545 168.115997 
L 198.116182 163.720085 
L 198.166909 163.766472 
L 198.319091 165.230568 
L 198.471273 166.685966 
L 198.572727 166.100328 
L 199.08 160.427318 
L 199.181455 160.918733 
L 199.232182 161.251416 
L 199.282909 161.196331 
L 199.435091 158.966846 
L 199.739455 154.669507 
L 199.790182 154.69705 
L 199.891636 155.470411 
L 200.398909 161.01803 
L 200.551091 160.913659 
L 200.601818 160.804214 
L 200.956909 156.786648 
L 201.058364 157.224427 
L 201.109091 157.1418 
L 201.210545 153.376464 
L 201.819273 119.681237 
L 202.123636 116.831323 
L 202.275818 116.456602 
L 202.478727 117.04079 
L 202.630909 115.346208 
L 202.833818 109.421693 
L 203.188909 102.11136 
L 203.290364 101.909141 
L 203.442545 101.423525 
L 203.746909 102.441869 
L 204.000545 104.714117 
L 204.051273 104.532192 
L 204.254182 103.571107 
L 204.304909 103.713168 
L 204.355636 103.693598 
L 204.457091 103.628366 
L 204.558545 104.172691 
L 205.015091 110.355235 
L 205.674545 126.160949 
L 205.877455 129.597226 
L 206.536909 143.959862 
L 207.094909 154.20491 
L 207.196364 153.91499 
L 207.348545 151.606502 
L 207.602182 148.474642 
L 207.652909 148.557269 
L 207.805091 150.072101 
L 207.855818 150.704851 
L 207.906545 150.459869 
L 208.160182 148.157904 
L 208.210909 148.113691 
L 208.312364 147.001848 
L 208.566 142.039867 
L 208.616727 142.112347 
L 208.768909 144.032342 
L 209.073273 147.969456 
L 209.124 147.985402 
L 209.276182 145.219565 
L 209.479091 143.02632 
L 209.580545 142.392845 
L 209.732727 139.780666 
L 210.087818 133.391554 
L 210.189273 133.15092 
L 210.290727 133.762651 
L 210.493636 137.121374 
L 210.899455 149.130586 
L 211.254545 158.518195 
L 211.356 157.530293 
L 211.660364 150.857784 
L 212.066182 138.570974 
L 212.421273 134.289581 
L 212.674909 131.82671 
L 212.725636 131.833958 
L 212.776364 132.068794 
L 212.877818 130.547438 
L 213.131455 125.476738 
L 213.334364 125.23248 
L 213.435818 125.788402 
L 213.638727 129.386309 
L 213.790909 131.490403 
L 213.943091 128.826038 
L 214.146 126.663235 
L 214.247455 126.395059 
L 214.298182 126.472613 
L 214.399636 127.210459 
L 214.602545 130.961299 
L 215.414182 149.398037 
L 215.718545 153.592454 
L 215.769273 153.854107 
L 215.82 153.835987 
L 215.870727 153.788875 
L 215.921455 153.846134 
L 216.022909 154.46004 
L 216.225818 157.66583 
L 216.580909 166.080758 
L 216.682364 165.382776 
L 216.936 163.090234 
L 217.037455 163.446835 
L 217.189636 165.107352 
L 217.291091 164.739154 
L 217.341818 164.591294 
L 217.392545 164.666674 
L 217.544727 166.053216 
L 218.001273 170.401291 
L 218.102727 170.693386 
L 218.305636 172.822848 
L 218.559273 174.797928 
L 218.660727 174.48119 
L 218.812909 171.327586 
L 219.015818 169.059686 
L 219.066545 168.97561 
L 219.168 167.675318 
L 219.523091 160.537488 
L 219.624545 160.576627 
L 219.827455 158.289158 
L 219.928909 158.815363 
L 220.182545 160.243944 
L 220.334727 160.047523 
L 220.436182 160.389629 
L 220.639091 162.794515 
L 220.791273 164.44271 
L 220.943455 164.075237 
L 220.994182 164.139019 
L 221.146364 165.230568 
L 221.501455 168.75817 
L 221.552182 168.786437 
L 221.856545 167.917402 
L 222.313091 160.110581 
L 222.363818 160.341792 
L 222.516 162.146544 
L 222.769636 164.647829 
L 222.972545 167.514413 
L 223.429091 178.659662 
L 224.088545 193.911629 
L 224.798727 200.4486 
L 225.103091 202.712875 
L 225.153818 202.593283 
L 225.356727 198.696758 
L 225.559636 196.49989 
L 225.661091 196.397693 
L 225.762545 196.6434 
L 226.117636 193.94207 
L 226.168364 194.071085 
L 226.371273 195.550402 
L 226.726364 199.518682 
L 226.777091 199.399814 
L 226.98 198.70908 
L 227.081455 198.886656 
L 227.284364 199.731048 
L 227.335091 199.520856 
L 227.588727 198.61993 
L 227.690182 198.833021 
L 227.943818 200.078227 
L 228.045273 199.984003 
L 228.197455 199.901376 
L 228.349636 200.354376 
L 228.552545 200.906674 
L 228.806182 200.744318 
L 228.958364 201.171226 
L 229.212 202.788979 
L 229.465636 204.828566 
L 229.516364 204.775656 
L 229.820727 203.863858 
L 229.922182 204.029837 
L 230.125091 205.003968 
L 230.683091 209.428147 
L 230.784545 210.047126 
L 230.835273 209.910139 
L 231.241091 208.050302 
L 231.342545 208.20541 
L 231.596182 209.318702 
L 232.915091 216.532637 
L 232.965818 216.674698 
L 233.067273 215.811461 
L 233.777455 205.858507 
L 233.878909 205.998394 
L 233.980364 206.455018 
L 234.234 201.71555 
L 234.690545 191.833627 
L 234.842727 190.976189 
L 234.944182 191.232768 
L 235.147091 193.138267 
L 235.603636 199.534627 
L 235.654364 198.992477 
L 235.958727 195.673618 
L 236.110909 194.903155 
L 236.313818 194.220394 
L 236.466 194.767618 
L 236.516727 194.717606 
L 236.668909 194.368978 
L 236.719636 194.420438 
L 236.871818 195.23149 
L 237.176182 198.839544 
L 237.987818 209.415826 
L 238.038545 209.483232 
L 238.190727 207.203736 
L 238.444364 204.250901 
L 238.545818 204.041434 
L 238.596545 204.097243 
L 238.748727 204.746664 
L 238.850182 205.356221 
L 238.900909 205.110514 
L 239.357455 199.752067 
L 239.458909 200.043437 
L 239.661818 201.650318 
L 241.183636 216.721085 
L 241.690909 218.823005 
L 241.893818 219.316594 
L 241.995273 219.012178 
L 242.553273 216.235469 
L 242.705455 216.263011 
L 242.806909 216.331867 
L 243.212727 210.99589 
L 243.314182 210.950952 
L 243.466364 211.419173 
L 243.922909 213.958147 
L 244.125818 210.150773 
L 244.379455 207.137054 
L 244.480909 206.88265 
L 244.531636 206.906568 
L 244.633091 206.872502 
L 244.937455 206.247 
L 245.038909 206.432549 
L 245.140364 206.844235 
L 245.191091 206.744938 
L 246.002727 198.725026 
L 246.053455 198.844618 
L 246.205636 199.83252 
L 246.662182 203.301413 
L 246.865091 204.242928 
L 247.270909 206.747112 
L 247.321636 206.730442 
L 247.473818 206.629694 
L 247.626 204.27047 
L 247.981091 192.283728 
L 248.133273 191.687942 
L 248.285455 191.631408 
L 248.386909 191.893061 
L 248.640545 193.790587 
L 248.742 193.446307 
L 248.995636 192.175008 
L 249.097091 192.476525 
L 249.3 193.422389 
L 249.401455 193.392672 
L 249.502909 193.672445 
L 249.756545 195.578669 
L 249.807273 195.008976 
L 250.111636 191.593718 
L 250.213091 190.413019 
L 250.466727 186.571579 
L 250.517455 186.448363 
L 250.568182 186.528091 
L 250.720364 187.742131 
L 252.343636 208.798296 
L 252.445091 208.616371 
L 252.597273 208.396032 
L 252.698727 208.550414 
L 252.901636 209.485406 
L 252.952364 209.800694 
L 253.307455 205.590331 
L 253.358182 205.638893 
L 253.510364 206.366592 
L 253.916182 210.056549 
L 254.169818 212.162093 
L 254.322 209.703571 
L 254.626364 205.547568 
L 254.727818 205.150378 
L 255.032182 200.333357 
L 255.082909 200.334082 
L 255.438 201.529277 
L 255.539455 199.812226 
L 255.843818 193.466602 
L 255.945273 193.252786 
L 256.046727 193.732603 
L 256.300364 196.756469 
L 256.756909 202.166376 
L 256.959818 203.11079 
L 257.314909 206.551416 
L 257.517818 208.664933 
L 257.568545 208.610573 
L 257.872909 207.591504 
L 258.025091 208.068422 
L 258.075818 208.303982 
L 258.126545 208.188739 
L 258.430909 206.476037 
L 258.532364 206.592005 
L 258.735273 207.672682 
L 258.938182 208.778726 
L 259.242545 208.36849 
L 259.293273 208.446043 
L 259.496182 209.244773 
L 259.952727 212.505648 
L 260.713636 217.574899 
L 261.220909 219.610138 
L 261.728182 220.822728 
L 262.286182 221.599714 
L 262.387636 221.613485 
L 262.539818 220.63428 
L 262.945636 217.782192 
L 263.148545 217.472702 
L 263.300727 217.597368 
L 263.605091 218.345362 
L 264.721091 221.458378 
L 265.279091 222.291173 
L 265.938545 222.863765 
L 266.293636 223.034093 
L 266.445818 221.046691 
L 266.598 217.151616 
L 266.851636 210.99299 
L 267.003818 210.211656 
L 267.105273 210.339946 
L 267.308182 211.440192 
L 268.474909 219.683342 
L 268.627091 218.841125 
L 268.931455 217.257437 
L 269.083636 217.143643 
L 269.235818 217.376304 
L 269.540182 218.411318 
L 269.844545 219.482573 
L 269.895273 219.309346 
L 270.047455 216.218074 
L 270.351818 211.162594 
L 270.453273 208.263394 
L 270.706909 200.745043 
L 270.859091 199.882531 
L 270.960545 200.246381 
L 271.873636 207.75241 
L 271.975091 208.560562 
L 272.025818 208.211933 
L 272.380909 204.084197 
L 272.431636 204.047232 
L 272.482364 204.138557 
L 273.040364 206.541269 
L 273.091091 206.243376 
L 273.344727 203.187619 
L 273.395455 203.137608 
L 273.446182 203.24053 
L 273.649091 204.610402 
L 273.699818 204.445872 
L 274.207091 200.84869 
L 274.257818 200.850139 
L 274.562182 199.247606 
L 274.663636 199.639723 
L 274.917273 202.251178 
L 275.881091 214.151669 
L 276.084 213.640685 
L 276.185455 212.358514 
L 276.439091 205.012666 
L 276.692727 199.908624 
L 277.047818 196.557874 
L 277.149273 196.874611 
L 277.352182 198.850416 
L 277.808727 205.269245 
L 277.859455 204.83219 
L 278.163818 199.312114 
L 278.417455 198.520632 
L 278.569636 195.635928 
L 278.874 189.717211 
L 278.975455 189.419318 
L 279.026182 189.454834 
L 279.127636 188.989512 
L 279.330545 186.644059 
L 279.533455 184.287734 
L 279.584182 184.252944 
L 279.685636 184.757405 
L 279.888545 187.447138 
L 280.598727 201.218338 
L 280.700182 200.589211 
L 280.903091 199.568693 
L 281.004545 199.706405 
L 281.156727 200.302915 
L 281.410364 198.76199 
L 281.461091 198.821424 
L 281.613273 199.704955 
L 281.765455 200.601533 
L 281.968364 200.157955 
L 282.069818 200.455848 
L 282.272727 202.090997 
L 283.794545 217.648104 
L 283.946727 218.282304 
L 284.048182 217.493722 
L 284.606182 211.908413 
L 284.809091 211.10171 
L 284.910545 211.126354 
L 285.062727 211.55616 
L 285.265636 212.461435 
L 285.417818 210.958925 
L 285.620727 209.702122 
L 285.722182 209.747784 
L 285.925091 210.645811 
L 286.686 216.047746 
L 286.990364 211.446715 
L 287.091818 211.247395 
L 287.142545 211.306829 
L 287.345455 212.178038 
L 288.004909 216.658752 
L 288.055636 216.41377 
L 288.410727 213.26089 
L 288.512182 213.172464 
L 288.664364 213.509496 
L 289.019455 215.349763 
L 289.374545 217.240766 
L 289.526727 215.918731 
L 290.236909 209.479608 
L 290.338364 209.589778 
L 290.541273 210.308779 
L 290.896364 208.385885 
L 290.947091 208.42285 
L 291.099273 208.959926 
L 291.454364 211.582253 
L 292.266 217.719134 
L 292.722545 219.663048 
L 293.331273 215.169288 
L 293.483455 215.449786 
L 293.838545 216.895037 
L 294.396545 219.315144 
L 294.498 218.715734 
L 294.903818 213.771149 
L 295.614 201.701779 
L 295.867636 199.528104 
L 296.273455 193.041869 
L 296.425636 191.98656 
L 296.527091 192.367805 
L 296.73 194.798059 
L 298.048909 215.278733 
L 298.150364 214.463333 
L 298.404 212.400552 
L 298.505455 212.352715 
L 298.657636 212.615093 
L 298.759091 211.031405 
L 299.114182 199.525205 
L 299.418545 192.588144 
L 300.128727 186.520843 
L 300.585273 179.001043 
L 300.636 179.08657 
L 300.788182 180.635467 
L 301.244727 189.256963 
L 301.346182 188.65248 
L 301.599818 187.979866 
L 301.650545 187.902312 
L 301.701273 187.940726 
L 301.853455 188.806138 
L 302.157818 192.983885 
L 302.918727 205.199664 
L 302.969455 205.166323 
L 303.121636 205.12356 
L 303.172364 205.19459 
L 303.375273 203.489861 
L 303.628909 201.224861 
L 303.831818 200.183323 
L 304.136182 199.067856 
L 304.186909 199.131638 
L 304.339091 199.865136 
L 304.643455 202.899149 
L 305.252182 209.917387 
L 305.302909 209.768078 
L 305.404364 208.62217 
L 305.911636 195.354706 
L 306.013091 195.036518 
L 306.063818 195.10465 
L 306.165273 195.555475 
L 306.418909 192.521462 
L 306.469636 192.571474 
L 306.621818 193.736227 
L 306.976909 199.211366 
L 307.433455 206.039707 
L 307.89 202.815072 
L 308.042182 202.520078 
L 308.194364 203.062954 
L 308.498727 205.626571 
L 309.158182 212.347642 
L 309.208909 212.216453 
L 309.766909 205.114862 
L 309.817636 205.175021 
L 309.969818 205.835314 
L 310.324909 208.858454 
L 310.933636 214.36621 
L 310.984364 214.25749 
L 311.846727 200.953786 
L 311.897455 200.968282 
L 312.049636 201.79093 
L 312.709091 206.753635 
L 312.962727 208.05755 
L 313.114909 208.928035 
L 313.165636 208.883822 
L 313.47 208.052477 
L 313.571455 208.242374 
L 313.774364 209.268691 
L 314.078727 211.498901 
L 314.129455 211.450339 
L 314.332364 210.17904 
L 314.586 205.726594 
L 315.245455 185.343768 
L 315.296182 185.24592 
L 315.346909 185.342318 
L 315.499091 186.581726 
L 316.412182 197.139163 
L 316.716545 199.34473 
L 317.020909 201.369821 
L 317.223818 202.335254 
L 317.274545 202.151155 
L 317.426727 200.354376 
L 317.680364 194.265331 
L 318.086182 188.546659 
L 318.187636 188.07119 
L 318.238364 188.220499 
L 318.390545 189.722285 
L 318.796364 197.115245 
L 319.405091 207.603826 
L 319.455818 207.728491 
L 319.506545 207.702398 
L 319.658727 207.585706 
L 319.861636 207.893746 
L 320.216727 206.338325 
L 320.267455 206.383987 
L 320.419636 206.939184 
L 320.571818 207.694426 
L 320.622545 207.627019 
L 320.876182 207.047904 
L 320.977636 207.210259 
L 321.180545 208.168445 
L 321.738545 212.548411 
L 321.84 212.004811 
L 322.398 207.745162 
L 322.651636 206.792774 
L 322.905273 205.169947 
L 323.006727 204.642293 
L 323.463273 199.620878 
L 323.564727 199.789032 
L 323.767636 201.20964 
L 324.274909 207.38856 
L 324.376364 208.547515 
L 324.427091 208.507651 
L 324.782182 206.160024 
L 325.188 198.176352 
L 325.898182 194.640778 
L 325.999636 194.945194 
L 326.050364 195.287299 
L 326.101091 195.267005 
L 326.304 194.502341 
L 326.405455 194.874163 
L 326.608364 196.912301 
L 327.267818 204.606053 
L 327.42 205.021363 
L 327.673636 206.610125 
L 328.333091 211.437293 
L 328.434545 209.809392 
L 328.840364 201.361848 
L 328.992545 200.877682 
L 329.094 201.162528 
L 329.296909 202.675186 
L 329.753455 207.349421 
L 329.804182 207.241426 
L 330.057818 206.109288 
L 330.362182 203.386939 
L 330.615818 201.20819 
L 330.717273 201.282845 
L 330.768 201.398813 
L 331.072364 199.79628 
L 331.123091 199.874558 
L 331.275273 200.732722 
L 331.731818 205.026437 
L 331.833273 204.90467 
L 331.934727 204.993821 
L 332.137636 205.514952 
L 332.188364 205.403333 
L 332.391273 205.027162 
L 332.492727 205.23083 
L 332.695636 206.383987 
L 333.253636 211.586602 
L 333.811636 216.097757 
L 333.862364 216.062242 
L 334.369636 213.4044 
L 334.420364 213.459485 
L 334.521818 212.578128 
L 334.826182 209.487581 
L 334.927636 209.468736 
L 335.079818 210.021034 
L 335.485636 212.93473 
L 336.195818 217.790165 
L 336.703091 219.901507 
L 336.906 220.429886 
L 337.007455 219.510115 
L 338.174182 198.630802 
L 338.275636 198.901877 
L 338.427818 199.608557 
L 338.478545 199.492589 
L 338.833636 195.546778 
L 339.239455 196.321589 
L 339.442364 197.805254 
L 339.848182 203.013667 
L 339.949636 202.707802 
L 340.101818 202.166376 
L 340.203273 202.439626 
L 340.406182 204.043608 
L 340.862727 208.867152 
L 340.913455 208.780176 
L 341.167091 208.198162 
L 341.319273 208.606949 
L 341.623636 210.592176 
L 341.826545 212.221526 
L 341.877273 212.075117 
L 342.384545 205.545394 
L 342.486 205.688904 
L 342.790364 206.869603 
L 342.841091 206.852208 
L 343.044 206.686229 
L 343.348364 205.098192 
L 343.652727 201.667714 
L 343.754182 201.548846 
L 343.855636 201.882979 
L 344.109273 203.816021 
L 344.210727 203.556542 
L 344.362909 203.151379 
L 344.413636 203.186894 
L 344.515091 203.392013 
L 344.819455 202.099694 
L 344.920909 202.276546 
L 345.174545 203.521752 
L 345.225273 203.378242 
L 345.276 203.18617 
L 345.377455 201.032064 
L 345.631091 197.108722 
L 345.681818 197.090602 
L 345.783273 197.534904 
L 346.036909 200.292043 
L 346.797818 210.184838 
L 346.899273 208.922237 
L 347.051455 204.403109 
L 347.508 189.329443 
L 347.609455 188.830781 
L 347.660182 188.890214 
L 347.812364 189.99191 
L 348.116727 194.610336 
L 348.674727 204.419054 
L 348.725455 204.121886 
L 348.928364 203.02019 
L 349.029818 203.316634 
L 349.283455 205.435224 
L 349.942909 212.107733 
L 349.993636 211.86565 
L 350.754545 202.556318 
L 350.856 202.597632 
L 350.906727 202.637496 
L 351.058909 202.101869 
L 351.211091 201.744542 
L 351.312545 201.928642 
L 351.464727 202.697654 
L 351.515455 202.67881 
L 351.769091 201.543048 
L 351.819818 201.581462 
L 351.972 202.299739 
L 352.327091 205.895472 
L 352.834364 211.184338 
L 352.885091 211.06547 
L 353.240182 204.225533 
L 353.544545 197.898029 
L 353.747455 196.254182 
L 353.798182 196.237512 
L 353.899636 196.597738 
L 354.102545 198.465547 
L 354.305455 200.484115 
L 354.508364 198.584414 
L 354.609818 198.748944 
L 354.660545 198.785184 
L 354.711273 198.70908 
L 354.762 198.588038 
L 354.964909 191.784341 
L 355.269273 183.204883 
L 355.472182 180.814493 
L 355.522909 180.832613 
L 355.624364 181.49363 
L 355.878 185.610494 
L 356.486727 198.969283 
L 356.537455 198.857664 
L 356.841818 195.90048 
L 356.892545 195.922224 
L 357.044727 196.784736 
L 357.247636 198.225638 
L 357.298364 198.213317 
L 357.399818 198.277824 
L 357.552 198.951888 
L 357.856364 202.063454 
L 358.921636 214.286482 
L 359.276727 216.315922 
L 359.378182 215.957146 
L 359.479636 213.995837 
L 359.986909 200.312338 
L 360.443455 195.922224 
L 360.544909 196.091827 
L 360.747818 197.762491 
L 361.356545 204.111014 
L 361.559455 204.975701 
L 361.863818 207.188515 
L 362.320364 200.456573 
L 362.371091 200.534851 
L 362.472545 200.814624 
L 362.624727 195.957739 
L 362.878364 189.896237 
L 362.979818 189.464981 
L 363.030545 189.562104 
L 363.182727 190.77252 
L 363.588545 194.956066 
L 363.639273 195.003178 
L 363.69 194.927798 
L 363.892909 194.232715 
L 364.146545 192.442459 
L 364.197273 192.470726 
L 364.349455 193.341936 
L 364.653818 197.345731 
L 364.806 198.985229 
L 364.856727 198.923621 
L 364.958182 198.867086 
L 365.059636 199.185274 
L 365.262545 200.864635 
L 365.617636 203.688456 
L 365.871273 204.878578 
L 366.124909 206.160749 
L 366.277091 205.860682 
L 366.429273 203.802974 
L 367.088727 193.892059 
L 367.190182 194.134142 
L 367.393091 196.117195 
L 368.306182 207.117485 
L 368.458364 207.519024 
L 368.712 209.074445 
L 368.762727 209.470186 
L 368.813455 209.179541 
L 369.574364 196.28245 
L 369.726545 195.599688 
L 369.777273 195.654048 
L 369.878727 195.200323 
L 370.233818 190.118026 
L 370.335273 190.434763 
L 370.538182 192.722232 
L 370.842545 196.950715 
L 370.893273 196.783286 
L 370.994727 196.695586 
L 371.096182 197.160182 
L 371.349818 200.019518 
L 371.806364 206.504304 
L 371.857091 206.22743 
L 372.06 205.043832 
L 372.161455 205.239528 
L 372.364364 206.639117 
L 373.581818 217.214674 
L 373.581818 217.214674 
" style="fill:none;stroke:#000000;stroke-linecap:square;stroke-width:1.5;"/>
   </g>
   <g id="line2d_16">
    <path clip-path="url(#pd23ec18687)" d="M 69.218182 157.776 
L 69.522545 186.925282 
L 69.928364 207.055152 
L 70.334182 217.427765 
L 70.74 222.4644 
L 71.145818 224.816376 
L 71.247273 225.169354 
L 71.298 225.095424 
L 71.450182 222.168682 
L 71.856 211.866374 
L 72.109636 209.88767 
L 72.261818 209.990592 
L 72.363273 208.394582 
L 72.819818 194.977085 
L 73.073455 191.815507 
L 73.124182 191.794488 
L 73.225636 192.323592 
L 73.479273 195.867864 
L 73.834364 201.000173 
L 74.290909 202.185221 
L 74.493818 203.665262 
L 74.544545 203.465942 
L 74.747455 202.635322 
L 74.848909 203.009318 
L 75.102545 205.521475 
L 75.406909 209.059949 
L 75.457636 208.830912 
L 75.711273 205.878802 
L 75.964909 200.070254 
L 76.066364 199.701331 
L 76.117091 199.812226 
L 76.218545 200.133312 
L 76.32 199.336757 
L 76.522909 195.183653 
L 76.776545 191.04287 
L 76.878 190.824706 
L 76.979455 191.274806 
L 77.233091 194.339261 
L 78.349091 212.420846 
L 78.399818 212.33532 
L 78.805636 207.899544 
L 79.11 204.355272 
L 79.211455 204.27192 
L 79.363636 204.929314 
L 79.668 207.785026 
L 80.023091 211.656182 
L 80.073818 211.538765 
L 80.428909 205.48451 
L 80.885455 192.124272 
L 81.240545 188.807587 
L 81.291273 188.814835 
L 81.595636 190.377504 
L 81.646364 190.274582 
L 81.747818 188.535062 
L 82.052182 181.396507 
L 82.153636 180.634742 
L 82.356545 178.806797 
L 82.458 179.37359 
L 82.660909 182.642438 
L 82.965273 187.389154 
L 83.168182 188.134973 
L 83.371091 190.233994 
L 83.624727 192.235891 
L 83.827636 193.678243 
L 84.182727 198.8178 
L 84.385636 200.845066 
L 84.436364 201.000898 
L 84.791455 198.253181 
L 84.842182 198.345955 
L 84.994364 199.249781 
L 85.349455 203.339827 
L 86.211818 213.372509 
L 86.719091 216.818933 
L 87.124909 218.488872 
L 87.226364 217.678546 
L 87.581455 211.328573 
L 88.038 200.767512 
L 88.088727 200.802302 
L 88.240909 201.635822 
L 88.596 205.600478 
L 88.849636 207.922013 
L 89.103273 207.44437 
L 89.154 207.49873 
L 89.204727 207.614698 
L 89.255455 207.582806 
L 89.712 204.905395 
L 89.965636 202.346851 
L 90.016364 202.290317 
L 90.067091 202.360622 
L 90.219273 203.154278 
L 90.472909 205.23228 
L 90.523636 205.207637 
L 90.675818 203.98345 
L 91.081636 199.75859 
L 91.183091 199.712928 
L 91.335273 200.363074 
L 91.639636 203.262274 
L 91.791818 204.545894 
L 91.944 201.648144 
L 92.197636 197.932094 
L 92.248364 197.866862 
L 92.299091 197.968334 
L 92.451273 199.007698 
L 92.857091 204.220459 
L 93.313636 209.856504 
L 93.770182 201.058157 
L 93.871636 201.251678 
L 94.074545 202.760712 
L 95.292 214.760501 
L 95.342727 214.717738 
L 95.799273 213.357288 
L 95.85 213.374683 
L 96.002182 213.62039 
L 96.052909 213.753029 
L 96.154364 212.811514 
L 96.458727 209.830411 
L 96.560182 209.705021 
L 96.610909 209.756482 
L 96.661636 209.738362 
L 96.864545 208.721467 
L 97.219636 206.803646 
L 97.473273 204.931488 
L 97.574727 204.658238 
L 97.929818 202.396138 
L 98.031273 202.654166 
L 98.234182 204.09072 
L 98.538545 207.068198 
L 98.589273 206.818142 
L 99.400909 190.04917 
L 99.654545 186.138149 
L 99.756 185.502499 
L 100.415455 179.097442 
L 100.516909 179.362718 
L 100.719818 181.721218 
L 101.176364 191.155939 
L 101.937273 206.13828 
L 102.140182 208.035082 
L 102.444545 207.482784 
L 102.495273 207.530621 
L 102.647455 205.736741 
L 102.850364 204.034186 
L 102.951818 203.982 
L 103.104 204.577061 
L 103.459091 207.47771 
L 103.864909 211.069094 
L 103.915636 211.048075 
L 104.169273 209.202734 
L 104.524364 205.354046 
L 104.879455 198.38292 
L 105.133091 196.78981 
L 105.386727 195.194525 
L 105.437455 195.198874 
L 105.538909 195.553301 
L 105.741818 196.436832 
L 105.843273 196.216493 
L 106.198364 192.742526 
L 106.553455 193.268731 
L 106.756364 193.042594 
L 106.857818 193.296998 
L 107.060727 194.772691 
L 107.517273 200.614579 
L 108.328909 210.66683 
L 108.836182 214.545235 
L 109.343455 216.834878 
L 109.850727 218.13372 
L 109.901455 218.20765 
L 109.952182 218.143142 
L 110.155091 216.699341 
L 110.256545 215.757101 
L 110.611636 207.393634 
L 110.763818 206.766682 
L 110.865273 206.887723 
L 111.068182 207.86113 
L 111.981273 214.398101 
L 112.032 214.224874 
L 112.336364 210.358066 
L 112.539273 204.701726 
L 112.792909 199.783958 
L 113.148 198.00095 
L 113.249455 198.180701 
L 113.452364 199.491864 
L 113.908909 204.679982 
L 114.466909 210.55811 
L 114.568364 210.092789 
L 114.822 208.864253 
L 114.923455 208.878749 
L 115.024909 209.12663 
L 115.075636 209.075894 
L 115.532182 206.247725 
L 115.582909 206.324554 
L 115.785818 207.218957 
L 116.445273 212.02728 
L 116.496 211.785197 
L 116.800364 208.194538 
L 117.459818 198.660518 
L 117.764182 193.511539 
L 117.865636 193.312219 
L 117.967091 193.687666 
L 118.220727 196.248384 
L 118.322182 197.574043 
L 118.372909 197.561722 
L 118.575818 196.505688 
L 118.677273 196.821701 
L 118.880182 198.691685 
L 119.387455 204.21901 
L 119.488909 203.687731 
L 119.793273 201.586536 
L 119.894727 201.564792 
L 120.046909 202.114915 
L 120.402 204.75971 
L 120.452727 204.285691 
L 120.706364 202.233058 
L 120.807818 202.332355 
L 121.010727 203.508706 
L 122.278909 213.93133 
L 122.329636 213.868997 
L 122.938364 211.417723 
L 123.090545 211.624291 
L 123.445636 212.589725 
L 123.496364 212.399102 
L 123.902182 210.284861 
L 124.003636 210.255869 
L 124.155818 210.526944 
L 124.409455 211.496726 
L 124.460182 211.186512 
L 124.764545 206.987021 
L 124.866 206.64564 
L 125.170364 202.299014 
L 125.424 198.305366 
L 125.525455 197.982106 
L 125.576182 198.039365 
L 125.728364 198.848966 
L 126.083455 202.651267 
L 126.489273 207.186341 
L 126.54 206.98847 
L 126.793636 204.30671 
L 127.199455 197.326162 
L 127.453091 191.55313 
L 127.605273 191.055917 
L 127.757455 191.038522 
L 127.858909 191.145067 
L 128.011091 187.900138 
L 128.366182 174.190546 
L 128.467636 173.623752 
L 128.518364 173.749867 
L 128.670545 175.301664 
L 129.735818 191.100854 
L 129.888 191.824205 
L 130.141636 194.556701 
L 130.395273 197.681314 
L 130.446 197.65667 
L 130.598182 197.517509 
L 130.699636 197.776262 
L 130.953273 199.153382 
L 131.612727 189.41352 
L 131.714182 189.253339 
L 131.866364 190.120925 
L 132.170727 194.01455 
L 133.185273 208.104662 
L 133.692545 212.089613 
L 133.794 212.639736 
L 133.844727 212.467958 
L 134.047636 208.885997 
L 134.605636 199.853539 
L 134.707091 198.869986 
L 135.214364 189.821582 
L 135.265091 189.95712 
L 135.518727 187.207954 
L 135.569455 187.223899 
L 135.721636 188.287906 
L 136.076727 192.026424 
L 136.127455 191.956843 
L 136.330364 191.427014 
L 136.381091 191.481374 
L 136.533273 192.22067 
L 136.837636 195.48517 
L 137.091273 197.530555 
L 137.142 197.38632 
L 137.243455 195.686664 
L 137.649273 185.751106 
L 137.750727 185.375659 
L 137.801455 185.453213 
L 137.953636 186.500549 
L 138.156545 188.941675 
L 138.207273 188.587973 
L 138.613091 180.992794 
L 139.018909 171.111595 
L 139.171091 170.323738 
L 139.272545 170.865163 
L 139.475455 173.772336 
L 139.932 182.929459 
L 140.033455 182.811317 
L 140.134909 182.786674 
L 140.337818 183.08819 
L 140.439273 183.141101 
L 140.591455 183.855754 
L 140.845091 186.753504 
L 142.417636 208.772203 
L 142.569818 209.499902 
L 142.823455 207.437122 
L 143.026364 206.636218 
L 143.127818 206.644915 
L 143.28 207.007315 
L 143.381455 207.378413 
L 143.432182 207.229829 
L 143.584364 204.275544 
L 143.939455 194.392896 
L 144.142364 193.334688 
L 144.294545 193.625333 
L 144.548182 192.607714 
L 144.598909 192.663523 
L 144.751091 193.428912 
L 145.055455 196.669493 
L 145.765636 204.94091 
L 145.867091 204.913368 
L 145.968545 204.069701 
L 147.084545 187.900862 
L 147.186 188.300952 
L 147.439636 190.949371 
L 147.794727 194.36028 
L 147.896182 194.637154 
L 148.048364 192.017002 
L 148.302 188.189333 
L 148.403455 187.89289 
L 148.454182 187.968994 
L 148.606364 188.888765 
L 148.961455 193.349909 
L 149.418 199.32516 
L 149.519455 198.6366 
L 149.874545 195.961363 
L 149.976 196.057762 
L 150.128182 196.767341 
L 150.178909 196.686163 
L 150.483273 195.335861 
L 150.584727 195.620707 
L 150.838364 197.556648 
L 151.294909 202.157678 
L 151.345636 201.859786 
L 151.599273 200.725474 
L 151.700727 200.898701 
L 151.903636 201.998222 
L 152.461636 206.141179 
L 152.512364 206.027386 
L 152.968909 204.184219 
L 153.273273 201.731496 
L 153.374727 201.66119 
L 153.526909 202.100419 
L 153.831273 204.124786 
L 154.135636 206.523149 
L 154.186364 206.490533 
L 154.592182 204.877853 
L 154.744364 205.21416 
L 155.048727 206.7906 
L 155.150182 207.338549 
L 155.200909 207.266794 
L 155.353091 206.076672 
L 155.809636 200.621102 
L 155.911091 200.569642 
L 156.063273 201.092222 
L 156.367636 203.326056 
L 156.621273 205.223582 
L 157.331455 194.77559 
L 157.432909 194.65165 
L 157.585091 194.906779 
L 157.737273 193.441234 
L 157.889455 190.346338 
L 158.143091 185.963472 
L 158.244545 185.672827 
L 158.295273 185.782272 
L 158.447455 186.882518 
L 158.802545 191.958293 
L 159.005455 194.48857 
L 159.056182 194.445806 
L 159.157636 194.384923 
L 159.259091 194.6502 
L 159.462 196.159958 
L 160.172182 204.61475 
L 160.425818 206.689128 
L 160.882364 204.772757 
L 161.237455 201.980827 
L 161.288182 201.828619 
L 161.643273 196.993478 
L 161.694 197.006525 
L 161.846182 197.714654 
L 162.201273 201.254578 
L 162.962182 209.024434 
L 163.012909 209.156347 
L 163.114364 208.609848 
L 163.418727 206.634043 
L 163.520182 206.532571 
L 163.570909 206.573885 
L 163.723091 206.976149 
L 163.926 207.721968 
L 163.976727 207.666158 
L 164.128909 207.034858 
L 164.585455 199.491139 
L 164.839091 196.610784 
L 164.940545 196.483944 
L 165.042 196.803581 
L 165.092727 196.651373 
L 165.346364 193.232491 
L 165.397091 193.201325 
L 165.498545 193.609387 
L 165.752182 196.211419 
L 166.868182 209.393357 
L 167.121818 210.968347 
L 167.324727 208.18584 
L 167.679818 203.51233 
L 167.882727 203.012218 
L 168.034909 203.394912 
L 168.339273 205.210536 
L 168.643636 207.443645 
L 168.694364 207.242875 
L 169.353818 199.381694 
L 169.708909 189.169987 
L 169.861091 187.887816 
L 170.064 184.912512 
L 170.114727 184.869749 
L 170.216182 185.390155 
L 170.469818 188.756851 
L 170.723455 191.797387 
L 170.774182 191.832902 
L 171.129273 189.562829 
L 171.18 189.702715 
L 171.382909 191.300174 
L 171.687273 194.871264 
L 171.738 194.619034 
L 172.448182 184.833509 
L 173.107636 152.022538 
L 173.412 147.749842 
L 173.513455 148.347802 
L 174.071455 153.396034 
L 174.274364 153.751186 
L 174.426545 154.837661 
L 174.680182 158.840731 
L 175.390364 171.490666 
L 175.441091 171.587064 
L 175.542545 171.285547 
L 175.593273 171.355853 
L 175.745455 172.675714 
L 176.100545 179.368517 
L 176.404909 184.393555 
L 176.557091 183.518722 
L 176.861455 181.494355 
L 177.419455 173.754941 
L 177.520909 174.114442 
L 177.825273 176.894774 
L 177.876 176.744741 
L 177.977455 174.694282 
L 178.332545 164.179608 
L 178.586182 160.433842 
L 178.992 157.654234 
L 179.093455 157.936181 
L 179.144182 158.089838 
L 179.194909 157.947778 
L 179.499273 152.688629 
L 179.55 152.714722 
L 179.702182 154.123008 
L 180.006545 160.543286 
L 180.158727 163.420742 
L 180.209455 163.32072 
L 180.666 161.033976 
L 180.767455 161.124576 
L 180.919636 161.518142 
L 180.970364 161.36376 
L 181.071818 159.001637 
L 181.579091 143.272752 
L 181.680545 142.992254 
L 181.782 143.630078 
L 181.984909 144.835421 
L 182.035636 144.924571 
L 182.086364 144.870211 
L 182.34 144.043939 
L 182.390727 144.209194 
L 182.745818 146.388667 
L 182.999455 151.210037 
L 183.303818 156.984518 
L 183.354545 156.85043 
L 183.456 155.506651 
L 183.658909 148.179648 
L 183.963273 138.984835 
L 184.064727 138.565901 
L 184.216909 139.501618 
L 184.267636 139.403045 
L 184.876364 126.589306 
L 184.977818 127.106813 
L 185.180727 129.483432 
L 185.231455 129.355867 
L 185.282182 129.337747 
L 185.535818 130.030656 
L 185.688 128.165746 
L 186.347455 116.645774 
L 186.448909 116.057237 
L 186.499636 116.236987 
L 186.651818 118.257005 
L 187.108364 128.952878 
L 187.209818 128.307806 
L 187.311273 126.779203 
L 187.615636 121.333056 
L 187.666364 121.414958 
L 187.818545 123.105192 
L 188.224364 128.773128 
L 188.376545 129.984269 
L 188.934545 138.644904 
L 188.985273 138.326717 
L 189.594 129.801619 
L 189.796909 129.753782 
L 189.898364 130.21693 
L 190.659273 138.35281 
L 190.862182 140.393846 
L 191.014364 140.659848 
L 191.166545 141.877512 
L 191.420182 146.596685 
L 191.826 152.981448 
L 191.876727 152.876352 
L 192.028909 150.796901 
L 192.333273 146.753966 
L 192.384 146.702506 
L 192.485455 147.154781 
L 192.688364 149.841614 
L 193.094182 159.191534 
L 194.108727 183.543365 
L 194.463818 185.39233 
L 194.971091 189.816509 
L 195.021818 189.727358 
L 195.224727 186.64261 
L 195.326182 184.529093 
L 195.934909 161.824008 
L 196.239273 160.605619 
L 196.29 160.550534 
L 196.391455 161.008608 
L 196.746545 163.351162 
L 196.848 163.944773 
L 197.000182 161.885616 
L 197.203091 160.524442 
L 197.253818 160.593298 
L 197.355273 159.933005 
L 197.761091 155.45809 
L 198.116182 147.13811 
L 198.166909 147.059107 
L 198.268364 147.605606 
L 198.471273 149.361072 
L 198.572727 148.629749 
L 199.08 141.969562 
L 199.130727 141.976085 
L 199.232182 142.494317 
L 199.282909 142.358054 
L 199.435091 139.900258 
L 199.790182 134.838979 
L 199.891636 135.36156 
L 200.398909 140.102477 
L 200.551091 139.859669 
L 200.601818 139.705286 
L 200.956909 134.917982 
L 201.007636 134.971618 
L 201.058364 135.066566 
L 201.109091 134.860723 
L 201.210545 130.899691 
L 201.87 93.055709 
L 202.326545 87.762494 
L 202.428 87.566074 
L 202.529455 86.494094 
L 202.732364 81.048672 
L 203.138182 68.556744 
L 203.493273 64.940717 
L 203.645455 64.056461 
L 203.848364 63.26208 
L 203.899091 63.360653 
L 203.949818 63.24541 
L 204.051273 62.13864 
L 204.406364 57.747802 
L 204.609273 56.477227 
L 204.66 56.48665 
L 204.913636 55.113154 
L 204.964364 55.214626 
L 205.116545 56.435914 
L 205.420909 60.695563 
L 205.471636 60.157037 
L 205.826727 55.493674 
L 205.928182 55.845926 
L 206.181818 58.059466 
L 206.283273 57.909432 
L 206.384727 57.711562 
L 206.435455 57.79129 
L 206.638364 59.16696 
L 206.841273 61.176106 
L 207.145636 64.809528 
L 207.196364 64.750819 
L 207.297818 63.938318 
L 207.551455 61.181179 
L 207.602182 61.234814 
L 207.703636 62.037168 
L 207.906545 64.651522 
L 207.957273 64.412338 
L 208.058727 63.831773 
L 208.109455 63.865114 
L 208.261636 64.397842 
L 208.363091 62.838072 
L 208.566 60.602064 
L 208.667455 61.48777 
L 209.124 69.282994 
L 209.174727 69.092371 
L 209.428364 66.567893 
L 209.529818 66.736046 
L 209.631273 66.243182 
L 209.732727 64.697184 
L 210.087818 59.23799 
L 210.189273 58.952419 
L 210.290727 59.464128 
L 210.493636 62.598163 
L 210.848727 72.717096 
L 211.305273 85.105378 
L 211.508182 82.859222 
L 211.711091 77.796494 
L 212.015455 68.858986 
L 212.725636 61.208722 
L 212.776364 61.300046 
L 212.877818 59.675045 
L 213.182182 53.792568 
L 213.385091 53.07864 
L 213.486545 53.614992 
L 213.790909 57.336115 
L 213.841636 56.635958 
L 214.196727 50.223653 
L 214.348909 49.359691 
L 214.450364 49.705421 
L 214.653273 52.566931 
L 215.870727 71.794426 
L 216.022909 73.101965 
L 216.276545 78.719165 
L 216.631636 88.922174 
L 216.682364 88.88231 
L 216.834545 88.287974 
L 216.885273 88.319866 
L 216.986727 88.944643 
L 217.544727 96.728995 
L 218.61 118.512134 
L 218.660727 118.887581 
L 218.711455 118.871635 
L 218.914364 116.837846 
L 218.965091 116.917574 
L 219.117273 117.806179 
L 219.218727 116.472547 
L 219.472364 113.008003 
L 219.523091 113.039894 
L 219.624545 113.690765 
L 219.776727 112.594867 
L 219.827455 112.719533 
L 220.689818 120.77351 
L 220.842 121.915795 
L 220.943455 122.065104 
L 221.095636 123.297989 
L 221.653636 129.884971 
L 221.805818 130.357541 
L 221.856545 130.164744 
L 222.008727 127.166246 
L 222.262364 123.777082 
L 222.363818 124.247477 
L 222.566727 127.45979 
L 223.124727 137.467104 
L 224.545091 175.996747 
L 225.153818 184.736386 
L 225.255273 183.554237 
L 225.508909 180.452818 
L 225.559636 180.332501 
L 225.610364 180.357869 
L 225.762545 181.010914 
L 225.813273 180.707947 
L 226.066909 178.916242 
L 226.168364 179.17717 
L 226.371273 180.910166 
L 226.726364 185.397403 
L 226.827818 185.203157 
L 226.98 184.966872 
L 227.081455 185.259691 
L 227.284364 186.328046 
L 227.335091 186.172939 
L 227.588727 185.447414 
L 227.690182 185.702544 
L 227.994545 187.073866 
L 228.045273 187.020955 
L 228.197455 186.98544 
L 228.349636 187.478304 
L 228.552545 188.108155 
L 228.806182 188.028427 
L 228.958364 188.499547 
L 229.212 190.226021 
L 229.465636 192.450432 
L 229.516364 192.443184 
L 229.820727 191.719834 
L 229.972909 192.129346 
L 230.226545 193.773917 
L 230.784545 198.633701 
L 230.835273 198.554698 
L 231.241091 196.930421 
L 231.393273 197.291371 
L 231.697636 198.999725 
L 232.864364 206.41008 
L 232.965818 206.824666 
L 233.016545 206.599253 
L 233.371636 202.006195 
L 233.676 196.312891 
L 233.828182 195.875837 
L 233.929636 196.114296 
L 233.980364 196.341883 
L 234.234 191.456006 
L 234.741273 180.239726 
L 234.893455 179.583782 
L 234.994909 179.921539 
L 235.197818 181.887197 
L 235.603636 187.458734 
L 235.654364 186.928906 
L 235.958727 183.534667 
L 236.110909 182.697523 
L 236.313818 181.901693 
L 236.466 182.38296 
L 236.516727 182.316278 
L 236.668909 181.902418 
L 236.719636 181.929235 
L 236.871818 182.682302 
L 237.176182 186.303403 
L 238.038545 197.986454 
L 238.14 196.795608 
L 238.444364 193.013602 
L 238.545818 192.799786 
L 238.596545 192.852696 
L 238.748727 193.501392 
L 238.850182 194.123995 
L 238.900909 193.889885 
L 239.357455 188.340091 
L 239.458909 188.574202 
L 239.661818 190.112952 
L 240.219818 197.094226 
L 240.879273 204.333528 
L 241.437273 208.161922 
L 241.893818 210.011611 
L 241.995273 209.784749 
L 242.553273 207.111686 
L 242.705455 207.128357 
L 242.806909 207.194314 
L 243.212727 201.685109 
L 243.314182 201.57204 
L 243.466364 201.956184 
L 243.770727 203.735568 
L 243.922909 204.440798 
L 244.125818 200.567467 
L 244.379455 197.300794 
L 244.531636 196.922448 
L 244.633091 196.807205 
L 244.937455 195.952666 
L 245.038909 196.075157 
L 245.140364 196.436832 
L 245.191091 196.321589 
L 245.749091 189.435264 
L 245.952 187.580501 
L 246.002727 187.507296 
L 246.053455 187.571078 
L 246.205636 188.430691 
L 246.662182 191.840875 
L 246.865091 192.804859 
L 247.321636 195.550402 
L 247.473818 195.549677 
L 247.626 193.25641 
L 247.981091 180.97105 
L 248.184 180.041856 
L 248.336182 179.898346 
L 248.437636 180.210734 
L 248.640545 181.625544 
L 248.691273 181.530595 
L 248.995636 179.611325 
L 249.046364 179.639592 
L 249.655091 181.891546 
L 249.756545 182.6004 
L 250.263818 176.217086 
L 250.517455 173.097547 
L 250.568182 173.12509 
L 250.720364 174.208666 
L 251.836364 189.118526 
L 252.343636 196.720229 
L 252.445091 196.725302 
L 252.597273 196.736899 
L 252.749455 197.253682 
L 252.952364 198.578616 
L 253.307455 194.6502 
L 253.358182 194.713982 
L 253.510364 195.487344 
L 253.916182 199.376621 
L 254.169818 201.689458 
L 254.322 199.324435 
L 254.626364 195.057538 
L 254.727818 194.603088 
L 255.032182 189.57515 
L 255.082909 189.533112 
L 255.235091 190.158614 
L 255.387273 190.531886 
L 255.438 190.489848 
L 255.590182 187.197806 
L 255.843818 181.988669 
L 255.945273 181.629893 
L 255.996 181.729915 
L 256.148182 182.849006 
L 256.503273 188.052346 
L 256.706182 190.131072 
L 256.909091 190.962418 
L 257.213455 193.807982 
L 257.568545 197.368925 
L 257.822182 196.560048 
L 257.872909 196.597738 
L 258.025091 197.165981 
L 258.075818 197.434157 
L 258.126545 197.353704 
L 258.430909 195.738125 
L 258.481636 195.757694 
L 258.633818 196.312891 
L 258.938182 198.186499 
L 258.988909 198.139387 
L 259.191818 197.814677 
L 259.242545 197.841494 
L 259.394727 198.255355 
L 259.699091 200.155781 
L 260.967273 209.317253 
L 261.525273 211.42932 
L 262.083273 212.667278 
L 262.387636 213.026054 
L 262.539818 212.078016 
L 262.945636 209.121557 
L 263.148545 208.72799 
L 263.300727 208.80047 
L 263.554364 209.344795 
L 265.126909 213.613867 
L 265.735636 214.385779 
L 266.293636 214.806888 
L 266.445818 212.82311 
L 266.598 208.877299 
L 266.851636 202.450498 
L 267.054545 201.424181 
L 267.156 201.616253 
L 267.409636 203.105717 
L 268.474909 210.825562 
L 268.627091 210.030456 
L 268.931455 208.401106 
L 269.083636 208.253971 
L 269.235818 208.467062 
L 269.540182 209.521646 
L 269.844545 210.6864 
L 269.895273 210.528394 
L 270.047455 207.432048 
L 270.808364 190.170211 
L 270.859091 190.015829 
L 270.909818 190.042646 
L 271.062 190.936325 
L 271.417091 193.460078 
L 271.670727 195.124219 
L 271.975091 198.012547 
L 272.025818 197.678414 
L 272.431636 193.336862 
L 272.533091 193.584019 
L 273.040364 195.751896 
L 273.141818 194.600189 
L 273.344727 192.417091 
L 273.395455 192.357658 
L 273.446182 192.451157 
L 273.649091 193.807258 
L 273.699818 193.649976 
L 274.41 188.622763 
L 274.562182 188.057419 
L 274.663636 188.377056 
L 274.866545 190.255013 
L 275.526 200.007197 
L 275.881091 203.697154 
L 276.084 203.386214 
L 276.185455 202.177248 
L 276.439091 194.788637 
L 276.743455 188.684371 
L 277.047818 185.414798 
L 277.098545 185.426395 
L 277.2 185.876496 
L 277.453636 188.703941 
L 277.808727 193.783339 
L 277.859455 193.385424 
L 278.163818 187.940002 
L 278.417455 187.094885 
L 278.569636 184.128278 
L 278.924727 177.420979 
L 279.127636 176.6208 
L 279.381273 172.94389 
L 279.584182 171.068107 
L 279.685636 171.408763 
L 279.888545 173.863661 
L 280.345091 183.452765 
L 280.598727 188.040024 
L 280.750909 187.243469 
L 280.903091 186.743357 
L 281.004545 186.952099 
L 281.156727 187.663128 
L 281.410364 186.293981 
L 281.461091 186.378058 
L 281.613273 187.338418 
L 281.765455 188.335742 
L 281.968364 187.997986 
L 282.069818 188.334293 
L 282.272727 190.072363 
L 282.932182 199.039589 
L 283.540909 205.724419 
L 283.946727 208.501853 
L 284.048182 207.827789 
L 284.656909 202.010544 
L 284.859818 201.408235 
L 284.961273 201.503184 
L 285.164182 202.244654 
L 285.265636 202.662139 
L 285.417818 201.133536 
L 285.620727 199.794106 
L 285.722182 199.799904 
L 285.874364 200.35945 
L 286.229455 202.907122 
L 286.686 206.307158 
L 287.041091 201.640171 
L 287.142545 201.648869 
L 287.294727 202.219286 
L 287.751273 205.379414 
L 288.004909 207.162422 
L 288.055636 206.945707 
L 288.410727 203.80225 
L 288.512182 203.686282 
L 288.562909 203.734118 
L 288.715091 204.183494 
L 289.120909 206.475312 
L 289.374545 207.85823 
L 289.526727 206.586931 
L 290.287636 199.784683 
L 290.389091 199.975306 
L 290.541273 200.452224 
L 290.896364 198.336533 
L 290.947091 198.344506 
L 291.099273 198.812726 
L 291.403636 200.978429 
L 292.468909 209.364365 
L 292.722545 210.483456 
L 292.925455 208.158298 
L 293.179091 206.220182 
L 293.331273 206.020138 
L 293.483455 206.278891 
L 293.787818 207.503078 
L 294.396545 210.368213 
L 294.447273 210.219629 
L 294.802364 206.665934 
L 295.766182 190.967491 
L 296.172 183.965198 
L 296.425636 180.660835 
L 296.476364 180.672432 
L 296.577818 181.235602 
L 296.831455 184.675502 
L 298.048909 204.702451 
L 298.099636 204.557491 
L 298.404 202.222186 
L 298.505455 202.233058 
L 298.657636 202.572264 
L 298.759091 201.024091 
L 299.063455 191.211024 
L 299.367818 182.124931 
L 299.722909 178.787227 
L 299.824364 177.866006 
L 300.382364 168.316766 
L 300.585273 165.390024 
L 300.636 165.367555 
L 300.737455 166.021325 
L 300.991091 170.357078 
L 301.244727 174.966806 
L 301.549091 173.903525 
L 301.650545 173.675938 
L 301.701273 173.716526 
L 301.853455 174.594259 
L 302.107091 178.022563 
L 303.020182 192.426514 
L 303.172364 192.772243 
L 303.223091 192.577997 
L 303.933273 187.642109 
L 304.136182 186.875995 
L 304.237636 187.061544 
L 304.440545 188.45461 
L 304.897091 194.066736 
L 305.252182 198.410462 
L 305.302909 198.335083 
L 305.404364 197.31529 
L 305.962364 183.363614 
L 306.063818 183.210682 
L 306.165273 183.536842 
L 306.469636 180.255672 
L 306.571091 180.799272 
L 306.824727 184.078267 
L 307.433455 193.902931 
L 307.484182 193.531109 
L 307.89 191.097955 
L 307.991455 190.823981 
L 308.042182 190.839926 
L 308.194364 191.409619 
L 308.498727 194.069635 
L 309.158182 201.370546 
L 309.208909 201.303139 
L 309.411818 197.576218 
L 309.665455 194.48712 
L 309.766909 194.23199 
L 309.817636 194.26823 
L 309.969818 194.870539 
L 310.274182 197.397917 
L 310.933636 203.863133 
L 310.984364 203.808048 
L 311.643818 192.533784 
L 311.846727 190.176734 
L 311.897455 190.141219 
L 311.998909 190.496371 
L 312.252545 192.85632 
L 312.556909 195.251059 
L 312.861273 196.470898 
L 313.114909 198.060384 
L 313.165636 198.03864 
L 313.47 197.255131 
L 313.571455 197.451552 
L 313.774364 198.517008 
L 314.078727 200.896526 
L 314.180182 200.674013 
L 314.332364 199.691909 
L 314.586 195.164808 
L 315.245455 173.440378 
L 315.346909 173.168578 
L 315.448364 173.617954 
L 315.651273 176.069227 
L 316.006364 180.33685 
L 316.26 182.896843 
L 316.564364 185.107483 
L 317.223818 189.849125 
L 317.325273 189.378005 
L 317.528182 185.973619 
L 317.832545 179.764258 
L 317.934 178.861882 
L 318.187636 175.184246 
L 318.289091 175.56984 
L 318.492 178.136357 
L 319.608 195.601862 
L 319.760182 195.982382 
L 319.861636 196.239686 
L 320.216727 194.851694 
L 320.318182 195.037968 
L 320.571818 196.31579 
L 320.673273 196.130242 
L 320.876182 195.788861 
L 320.977636 195.981658 
L 321.180545 197.010874 
L 321.687818 201.355325 
L 321.738545 201.77136 
L 321.789273 201.701054 
L 322.905273 194.200824 
L 323.006727 193.594166 
L 323.463273 188.03495 
L 323.514 188.004509 
L 323.564727 188.091485 
L 323.716909 188.927904 
L 324.072 192.891835 
L 324.427091 196.910851 
L 324.782182 194.843722 
L 325.188 186.765826 
L 325.898182 182.543141 
L 325.948909 182.575032 
L 326.050364 183.07007 
L 326.101091 183.023683 
L 326.304 182.151024 
L 326.405455 182.468486 
L 326.608364 184.447915 
L 327.318545 192.757747 
L 327.521455 193.789862 
L 327.927273 197.534179 
L 328.282364 200.544274 
L 328.333091 200.599358 
L 328.434545 199.072205 
L 328.840364 190.423166 
L 328.992545 189.765048 
L 329.094 189.946248 
L 329.296909 191.311771 
L 329.753455 196.017898 
L 329.854909 195.79031 
L 330.057818 194.914752 
L 330.362182 192.179357 
L 330.615818 189.854198 
L 330.666545 189.799114 
L 330.717273 189.864346 
L 330.768 189.953496 
L 331.072364 188.174112 
L 331.123091 188.21905 
L 331.275273 188.99531 
L 331.579636 192.360557 
L 331.731818 193.346285 
L 331.884 193.306421 
L 332.036182 193.817405 
L 332.137636 194.025422 
L 332.391273 193.591267 
L 332.442 193.661573 
L 332.594182 194.296498 
L 332.898545 196.854317 
L 333.862364 205.784578 
L 334.318909 203.307211 
L 334.420364 203.38404 
L 334.521818 202.520803 
L 334.826182 199.357051 
L 334.927636 199.304866 
L 335.079818 199.822373 
L 335.434909 202.365696 
L 336.297273 208.717843 
L 336.855273 211.203907 
L 336.906 211.3206 
L 337.007455 210.462437 
L 337.717636 194.897357 
L 338.072727 188.551008 
L 338.224909 188.132798 
L 338.427818 188.749603 
L 338.478545 188.577826 
L 338.833636 184.161619 
L 338.884364 184.177565 
L 339.036545 184.387032 
L 339.188727 184.37616 
L 339.340909 184.99079 
L 339.594545 187.571078 
L 339.898909 191.066064 
L 340.101818 190.322419 
L 340.203273 190.628285 
L 340.406182 192.324317 
L 340.862727 197.559547 
L 340.964182 197.397192 
L 341.116364 197.116694 
L 341.167091 197.14931 
L 341.319273 197.645074 
L 341.623636 199.817299 
L 341.826545 201.603931 
L 341.877273 201.501734 
L 342.435273 194.790086 
L 342.536727 195.059712 
L 342.790364 195.972235 
L 343.044 195.751171 
L 343.348364 194.08993 
L 343.703455 190.276032 
L 343.754182 190.236168 
L 343.804909 190.312997 
L 343.957091 191.108827 
L 344.109273 192.319243 
L 344.16 192.25691 
L 344.362909 191.610389 
L 344.413636 191.632858 
L 344.515091 191.817682 
L 344.819455 190.434763 
L 344.920909 190.572475 
L 345.174545 191.780717 
L 345.225273 191.635757 
L 345.276 191.438611 
L 345.377455 189.279432 
L 345.631091 185.208955 
L 345.681818 185.15387 
L 345.783273 185.531491 
L 346.036909 188.208178 
L 346.797818 198.726475 
L 346.848545 198.407563 
L 347.000727 195.048115 
L 347.558727 176.854186 
L 347.660182 176.546146 
L 347.761636 176.94696 
L 347.964545 179.193115 
L 348.522545 189.21275 
L 348.674727 191.743752 
L 348.725455 191.527037 
L 348.928364 190.693517 
L 349.080545 191.458181 
L 349.435636 195.339485 
L 349.942909 201.067579 
L 349.993636 200.897251 
L 350.805273 191.468328 
L 350.906727 191.519064 
L 351.058909 190.893562 
L 351.211091 190.42824 
L 351.261818 190.443461 
L 351.414 190.993584 
L 351.464727 191.247989 
L 351.515455 191.216098 
L 351.769091 190.000608 
L 351.819818 190.023077 
L 351.972 190.709462 
L 352.276364 193.761595 
L 352.834364 200.119541 
L 352.885091 200.058658 
L 353.189455 194.864016 
L 353.595273 186.042475 
L 353.798182 184.741459 
L 353.899636 184.965422 
L 354.102545 186.631738 
L 354.305455 188.572752 
L 354.508364 186.652757 
L 354.559091 186.665078 
L 354.660545 186.823085 
L 354.762 186.600571 
L 354.914182 181.782826 
L 355.32 169.543853 
L 355.522909 167.659373 
L 355.624364 168.10295 
L 355.827273 170.863714 
L 356.385273 183.452765 
L 356.486727 185.308978 
L 356.537455 185.274912 
L 356.841818 182.593152 
L 356.892545 182.638814 
L 357.044727 183.574531 
L 357.298364 185.17489 
L 357.399818 185.297381 
L 357.552 186.046824 
L 357.856364 189.362784 
L 359.073818 204.59808 
L 359.276727 205.836038 
L 359.327455 205.790376 
L 359.428909 205.072099 
L 360.240545 186.593323 
L 360.443455 184.59215 
L 360.494182 184.526194 
L 360.544909 184.604472 
L 360.697091 185.536565 
L 361.052182 190.042646 
L 361.305818 192.183706 
L 361.508727 192.899083 
L 361.863818 195.618533 
L 361.914545 194.815454 
L 362.218909 189.275808 
L 362.320364 188.966318 
L 362.371091 189.033725 
L 362.472545 189.299002 
L 362.624727 184.409501 
L 362.878364 177.991397 
L 362.979818 177.385464 
L 363.030545 177.399235 
L 363.132 177.924715 
L 363.385636 181.166746 
L 363.588545 182.295984 
L 363.639273 182.319178 
L 363.842182 181.796597 
L 364.197273 179.392435 
L 364.248 179.520725 
L 364.400182 180.639816 
L 364.958182 185.844605 
L 365.110364 186.557808 
L 366.124909 194.110224 
L 366.277091 193.919602 
L 366.429273 191.940173 
L 366.885818 184.023182 
L 367.088727 181.629893 
L 367.139455 181.605974 
L 367.240909 182.043754 
L 367.494545 184.969046 
L 368.255455 195.069134 
L 368.407636 195.451829 
L 368.661273 197.038416 
L 368.762727 197.9118 
L 368.813455 197.682038 
L 369.625091 184.207282 
L 369.929455 182.228578 
L 370.233818 177.602179 
L 370.284545 177.59928 
L 370.386 178.116787 
L 370.639636 181.452317 
L 370.842545 184.047101 
L 370.944 183.802843 
L 370.994727 183.838358 
L 371.146909 184.761754 
L 371.451273 188.885866 
L 371.806364 194.34361 
L 371.857091 194.150813 
L 372.06 193.231042 
L 372.161455 193.530384 
L 372.415091 195.651149 
L 373.581818 207.234902 
L 373.581818 207.234902 
" style="fill:none;stroke:#800080;stroke-linecap:square;stroke-width:1.5;"/>
   </g>
   <g id="line2d_17">
    <path clip-path="url(#pd23ec18687)" d="M 322.81228 70.8 
L 373.429662 70.8 
L 373.429662 70.8 
" style="fill:none;stroke:#000000;stroke-linecap:square;stroke-width:1.5;"/>
   </g>
   <g id="line2d_18">
    <path clip-path="url(#pd23ec18687)" d="M 322.81228 107.04 
L 322.81228 99.792 
L 322.81228 92.544 
L 322.81228 85.296 
L 322.81228 78.048 
" style="fill:none;stroke:#000000;stroke-linecap:square;stroke-width:1.5;"/>
   </g>
   <g id="patch_3">
    <path d="M 54 252 
L 54 34.56 
" style="fill:none;stroke:#000000;stroke-linecap:square;stroke-linejoin:miter;stroke-width:0.8;"/>
   </g>
   <g id="patch_4">
    <path d="M 54 252 
L 388.8 252 
" style="fill:none;stroke:#000000;stroke-linecap:square;stroke-linejoin:miter;stroke-width:0.8;"/>
   </g>
   <g id="text_17">
    <!-- 500 ms -->
    <g transform="translate(322.81228 63.552)scale(0.1 -0.1)">
     <use xlink:href="#DejaVuSans-35"/>
     <use x="63.623047" xlink:href="#DejaVuSans-30"/>
     <use x="127.246094" xlink:href="#DejaVuSans-30"/>
     <use x="190.869141" xlink:href="#DejaVuSans-20"/>
     <use x="222.65625" xlink:href="#DejaVuSans-6d"/>
     <use x="320.068359" xlink:href="#DejaVuSans-73"/>
    </g>
   </g>
   <g id="text_18">
    <!-- 5 mV -->
    <g transform="translate(327.884162 92.544)scale(0.1 -0.1)">
     <use xlink:href="#DejaVuSans-35"/>
     <use x="63.623047" xlink:href="#DejaVuSans-20"/>
     <use x="95.410156" xlink:href="#DejaVuSans-6d"/>
     <use x="192.822266" xlink:href="#DejaVuSans-56"/>
    </g>
   </g>
  </g>
 </g>
 <defs>
  <clipPath id="pd23ec18687">
   <rect height="217.44" width="334.8" x="54" y="34.56"/>
  </clipPath>
 </defs>
</svg>
