<?xml version="1.0" encoding="utf-8" standalone="no"?>
<!DOCTYPE svg PUBLIC "-//W3C//DTD SVG 1.1//EN"
  "http://www.w3.org/Graphics/SVG/1.1/DTD/svg11.dtd">
<svg height="288pt" version="1.1" viewBox="0 0 432 288" width="432pt" xmlns="http://www.w3.org/2000/svg" xmlns:xlink="http://www.w3.org/1999/xlink">
 <metadata>
  <rdf:RDF xmlns:cc="http://creativecommons.org/ns#" xmlns:dc="http://purl.org/dc/elements/1.1/" xmlns:rdf="http://www.w3.org/1999/02/22-rdf-syntax-ns#">
   <cc:Work>
    <dc:type rdf:resource="http://purl.org/dc/dcmitype/StillImage"/>
    <dc:date>2021-09-03T11:18:13.380441</dc:date>
    <dc:format>image/svg+xml</dc:format>
    <dc:creator>
     <cc:Agent>
      <dc:title>Matplotlib v3.4.1, https://matplotlib.org/</dc:title>
     </cc:Agent>
    </dc:creator>
   </cc:Work>
  </rdf:RDF>
 </metadata>
 <defs>
  <style type="text/css">*{stroke-linecap:butt;stroke-linejoin:round;}</style>
 </defs>
 <g id="figure_1">
  <g id="patch_1">
   <path d="M 0 288 
L 432 288 
L 432 0 
L 0 0 
z
" style="fill:none;"/>
  </g>
  <g id="axes_1">
   <g id="patch_2">
    <path d="M 54 252 
L 388.8 252 
L 388.8 34.56 
L 54 34.56 
z
" style="fill:#ffffff;"/>
   </g>
   <g id="matplotlib.axis_1">
    <g id="xtick_1">
     <g id="line2d_1">
      <defs>
       <path d="M 0 0 
L 0 3.5 
" id="m9238e1c8f3" style="stroke:#000000;stroke-width:0.8;"/>
      </defs>
      <g>
       <use style="stroke:#000000;stroke-width:0.8;" x="69.218182" xlink:href="#m9238e1c8f3" y="252"/>
      </g>
     </g>
     <g id="text_1">
      <!-- 0 -->
      <g transform="translate(66.036932 266.598437)scale(0.1 -0.1)">
       <defs>
        <path d="M 2034 4250 
Q 1547 4250 1301 3770 
Q 1056 3291 1056 2328 
Q 1056 1369 1301 889 
Q 1547 409 2034 409 
Q 2525 409 2770 889 
Q 3016 1369 3016 2328 
Q 3016 3291 2770 3770 
Q 2525 4250 2034 4250 
z
M 2034 4750 
Q 2819 4750 3233 4129 
Q 3647 3509 3647 2328 
Q 3647 1150 3233 529 
Q 2819 -91 2034 -91 
Q 1250 -91 836 529 
Q 422 1150 422 2328 
Q 422 3509 836 4129 
Q 1250 4750 2034 4750 
z
" id="DejaVuSans-30" transform="scale(0.015625)"/>
       </defs>
       <use xlink:href="#DejaVuSans-30"/>
      </g>
     </g>
    </g>
    <g id="xtick_2">
     <g id="line2d_2">
      <g>
       <use style="stroke:#000000;stroke-width:0.8;" x="119.937001" xlink:href="#m9238e1c8f3" y="252"/>
      </g>
     </g>
     <g id="text_2">
      <!-- 500 -->
      <g transform="translate(110.393251 266.598437)scale(0.1 -0.1)">
       <defs>
        <path d="M 691 4666 
L 3169 4666 
L 3169 4134 
L 1269 4134 
L 1269 2991 
Q 1406 3038 1543 3061 
Q 1681 3084 1819 3084 
Q 2600 3084 3056 2656 
Q 3513 2228 3513 1497 
Q 3513 744 3044 326 
Q 2575 -91 1722 -91 
Q 1428 -91 1123 -41 
Q 819 9 494 109 
L 494 744 
Q 775 591 1075 516 
Q 1375 441 1709 441 
Q 2250 441 2565 725 
Q 2881 1009 2881 1497 
Q 2881 1984 2565 2268 
Q 2250 2553 1709 2553 
Q 1456 2553 1204 2497 
Q 953 2441 691 2322 
L 691 4666 
z
" id="DejaVuSans-35" transform="scale(0.015625)"/>
       </defs>
       <use xlink:href="#DejaVuSans-35"/>
       <use x="63.623047" xlink:href="#DejaVuSans-30"/>
       <use x="127.246094" xlink:href="#DejaVuSans-30"/>
      </g>
     </g>
    </g>
    <g id="xtick_3">
     <g id="line2d_3">
      <g>
       <use style="stroke:#000000;stroke-width:0.8;" x="170.655821" xlink:href="#m9238e1c8f3" y="252"/>
      </g>
     </g>
     <g id="text_3">
      <!-- 1000 -->
      <g transform="translate(157.930821 266.598437)scale(0.1 -0.1)">
       <defs>
        <path d="M 794 531 
L 1825 531 
L 1825 4091 
L 703 3866 
L 703 4441 
L 1819 4666 
L 2450 4666 
L 2450 531 
L 3481 531 
L 3481 0 
L 794 0 
L 794 531 
z
" id="DejaVuSans-31" transform="scale(0.015625)"/>
       </defs>
       <use xlink:href="#DejaVuSans-31"/>
       <use x="63.623047" xlink:href="#DejaVuSans-30"/>
       <use x="127.246094" xlink:href="#DejaVuSans-30"/>
       <use x="190.869141" xlink:href="#DejaVuSans-30"/>
      </g>
     </g>
    </g>
    <g id="xtick_4">
     <g id="line2d_4">
      <g>
       <use style="stroke:#000000;stroke-width:0.8;" x="221.374641" xlink:href="#m9238e1c8f3" y="252"/>
      </g>
     </g>
     <g id="text_4">
      <!-- 1500 -->
      <g transform="translate(208.649641 266.598437)scale(0.1 -0.1)">
       <use xlink:href="#DejaVuSans-31"/>
       <use x="63.623047" xlink:href="#DejaVuSans-35"/>
       <use x="127.246094" xlink:href="#DejaVuSans-30"/>
       <use x="190.869141" xlink:href="#DejaVuSans-30"/>
      </g>
     </g>
    </g>
    <g id="xtick_5">
     <g id="line2d_5">
      <g>
       <use style="stroke:#000000;stroke-width:0.8;" x="272.09346" xlink:href="#m9238e1c8f3" y="252"/>
      </g>
     </g>
     <g id="text_5">
      <!-- 2000 -->
      <g transform="translate(259.36846 266.598437)scale(0.1 -0.1)">
       <defs>
        <path d="M 1228 531 
L 3431 531 
L 3431 0 
L 469 0 
L 469 531 
Q 828 903 1448 1529 
Q 2069 2156 2228 2338 
Q 2531 2678 2651 2914 
Q 2772 3150 2772 3378 
Q 2772 3750 2511 3984 
Q 2250 4219 1831 4219 
Q 1534 4219 1204 4116 
Q 875 4013 500 3803 
L 500 4441 
Q 881 4594 1212 4672 
Q 1544 4750 1819 4750 
Q 2544 4750 2975 4387 
Q 3406 4025 3406 3419 
Q 3406 3131 3298 2873 
Q 3191 2616 2906 2266 
Q 2828 2175 2409 1742 
Q 1991 1309 1228 531 
z
" id="DejaVuSans-32" transform="scale(0.015625)"/>
       </defs>
       <use xlink:href="#DejaVuSans-32"/>
       <use x="63.623047" xlink:href="#DejaVuSans-30"/>
       <use x="127.246094" xlink:href="#DejaVuSans-30"/>
       <use x="190.869141" xlink:href="#DejaVuSans-30"/>
      </g>
     </g>
    </g>
    <g id="xtick_6">
     <g id="line2d_6">
      <g>
       <use style="stroke:#000000;stroke-width:0.8;" x="322.81228" xlink:href="#m9238e1c8f3" y="252"/>
      </g>
     </g>
     <g id="text_6">
      <!-- 2500 -->
      <g transform="translate(310.08728 266.598437)scale(0.1 -0.1)">
       <use xlink:href="#DejaVuSans-32"/>
       <use x="63.623047" xlink:href="#DejaVuSans-35"/>
       <use x="127.246094" xlink:href="#DejaVuSans-30"/>
       <use x="190.869141" xlink:href="#DejaVuSans-30"/>
      </g>
     </g>
    </g>
    <g id="xtick_7">
     <g id="line2d_7">
      <g>
       <use style="stroke:#000000;stroke-width:0.8;" x="373.531099" xlink:href="#m9238e1c8f3" y="252"/>
      </g>
     </g>
     <g id="text_7">
      <!-- 3000 -->
      <g transform="translate(360.806099 266.598437)scale(0.1 -0.1)">
       <defs>
        <path d="M 2597 2516 
Q 3050 2419 3304 2112 
Q 3559 1806 3559 1356 
Q 3559 666 3084 287 
Q 2609 -91 1734 -91 
Q 1441 -91 1130 -33 
Q 819 25 488 141 
L 488 750 
Q 750 597 1062 519 
Q 1375 441 1716 441 
Q 2309 441 2620 675 
Q 2931 909 2931 1356 
Q 2931 1769 2642 2001 
Q 2353 2234 1838 2234 
L 1294 2234 
L 1294 2753 
L 1863 2753 
Q 2328 2753 2575 2939 
Q 2822 3125 2822 3475 
Q 2822 3834 2567 4026 
Q 2313 4219 1838 4219 
Q 1578 4219 1281 4162 
Q 984 4106 628 3988 
L 628 4550 
Q 988 4650 1302 4700 
Q 1616 4750 1894 4750 
Q 2613 4750 3031 4423 
Q 3450 4097 3450 3541 
Q 3450 3153 3228 2886 
Q 3006 2619 2597 2516 
z
" id="DejaVuSans-33" transform="scale(0.015625)"/>
       </defs>
       <use xlink:href="#DejaVuSans-33"/>
       <use x="63.623047" xlink:href="#DejaVuSans-30"/>
       <use x="127.246094" xlink:href="#DejaVuSans-30"/>
       <use x="190.869141" xlink:href="#DejaVuSans-30"/>
      </g>
     </g>
    </g>
    <g id="text_8">
     <!-- Time(ms) -->
     <g transform="translate(197.789844 280.276563)scale(0.1 -0.1)">
      <defs>
       <path d="M -19 4666 
L 3928 4666 
L 3928 4134 
L 2272 4134 
L 2272 0 
L 1638 0 
L 1638 4134 
L -19 4134 
L -19 4666 
z
" id="DejaVuSans-54" transform="scale(0.015625)"/>
       <path d="M 603 3500 
L 1178 3500 
L 1178 0 
L 603 0 
L 603 3500 
z
M 603 4863 
L 1178 4863 
L 1178 4134 
L 603 4134 
L 603 4863 
z
" id="DejaVuSans-69" transform="scale(0.015625)"/>
       <path d="M 3328 2828 
Q 3544 3216 3844 3400 
Q 4144 3584 4550 3584 
Q 5097 3584 5394 3201 
Q 5691 2819 5691 2113 
L 5691 0 
L 5113 0 
L 5113 2094 
Q 5113 2597 4934 2840 
Q 4756 3084 4391 3084 
Q 3944 3084 3684 2787 
Q 3425 2491 3425 1978 
L 3425 0 
L 2847 0 
L 2847 2094 
Q 2847 2600 2669 2842 
Q 2491 3084 2119 3084 
Q 1678 3084 1418 2786 
Q 1159 2488 1159 1978 
L 1159 0 
L 581 0 
L 581 3500 
L 1159 3500 
L 1159 2956 
Q 1356 3278 1631 3431 
Q 1906 3584 2284 3584 
Q 2666 3584 2933 3390 
Q 3200 3197 3328 2828 
z
" id="DejaVuSans-6d" transform="scale(0.015625)"/>
       <path d="M 3597 1894 
L 3597 1613 
L 953 1613 
Q 991 1019 1311 708 
Q 1631 397 2203 397 
Q 2534 397 2845 478 
Q 3156 559 3463 722 
L 3463 178 
Q 3153 47 2828 -22 
Q 2503 -91 2169 -91 
Q 1331 -91 842 396 
Q 353 884 353 1716 
Q 353 2575 817 3079 
Q 1281 3584 2069 3584 
Q 2775 3584 3186 3129 
Q 3597 2675 3597 1894 
z
M 3022 2063 
Q 3016 2534 2758 2815 
Q 2500 3097 2075 3097 
Q 1594 3097 1305 2825 
Q 1016 2553 972 2059 
L 3022 2063 
z
" id="DejaVuSans-65" transform="scale(0.015625)"/>
       <path d="M 1984 4856 
Q 1566 4138 1362 3434 
Q 1159 2731 1159 2009 
Q 1159 1288 1364 580 
Q 1569 -128 1984 -844 
L 1484 -844 
Q 1016 -109 783 600 
Q 550 1309 550 2009 
Q 550 2706 781 3412 
Q 1013 4119 1484 4856 
L 1984 4856 
z
" id="DejaVuSans-28" transform="scale(0.015625)"/>
       <path d="M 2834 3397 
L 2834 2853 
Q 2591 2978 2328 3040 
Q 2066 3103 1784 3103 
Q 1356 3103 1142 2972 
Q 928 2841 928 2578 
Q 928 2378 1081 2264 
Q 1234 2150 1697 2047 
L 1894 2003 
Q 2506 1872 2764 1633 
Q 3022 1394 3022 966 
Q 3022 478 2636 193 
Q 2250 -91 1575 -91 
Q 1294 -91 989 -36 
Q 684 19 347 128 
L 347 722 
Q 666 556 975 473 
Q 1284 391 1588 391 
Q 1994 391 2212 530 
Q 2431 669 2431 922 
Q 2431 1156 2273 1281 
Q 2116 1406 1581 1522 
L 1381 1569 
Q 847 1681 609 1914 
Q 372 2147 372 2553 
Q 372 3047 722 3315 
Q 1072 3584 1716 3584 
Q 2034 3584 2315 3537 
Q 2597 3491 2834 3397 
z
" id="DejaVuSans-73" transform="scale(0.015625)"/>
       <path d="M 513 4856 
L 1013 4856 
Q 1481 4119 1714 3412 
Q 1947 2706 1947 2009 
Q 1947 1309 1714 600 
Q 1481 -109 1013 -844 
L 513 -844 
Q 928 -128 1133 580 
Q 1338 1288 1338 2009 
Q 1338 2731 1133 3434 
Q 928 4138 513 4856 
z
" id="DejaVuSans-29" transform="scale(0.015625)"/>
      </defs>
      <use xlink:href="#DejaVuSans-54"/>
      <use x="57.958984" xlink:href="#DejaVuSans-69"/>
      <use x="85.742188" xlink:href="#DejaVuSans-6d"/>
      <use x="183.154297" xlink:href="#DejaVuSans-65"/>
      <use x="244.677734" xlink:href="#DejaVuSans-28"/>
      <use x="283.691406" xlink:href="#DejaVuSans-6d"/>
      <use x="381.103516" xlink:href="#DejaVuSans-73"/>
      <use x="433.203125" xlink:href="#DejaVuSans-29"/>
     </g>
    </g>
   </g>
   <g id="matplotlib.axis_2">
    <g id="ytick_1">
     <g id="line2d_8">
      <defs>
       <path d="M 0 0 
L -3.5 0 
" id="m7679c96ce7" style="stroke:#000000;stroke-width:0.8;"/>
      </defs>
      <g>
       <use style="stroke:#000000;stroke-width:0.8;" x="54" xlink:href="#m7679c96ce7" y="252"/>
      </g>
     </g>
     <g id="text_9">
      <!-- −100 -->
      <g transform="translate(19.532812 255.799219)scale(0.1 -0.1)">
       <defs>
        <path d="M 678 2272 
L 4684 2272 
L 4684 1741 
L 678 1741 
L 678 2272 
z
" id="DejaVuSans-2212" transform="scale(0.015625)"/>
       </defs>
       <use xlink:href="#DejaVuSans-2212"/>
       <use x="83.789062" xlink:href="#DejaVuSans-31"/>
       <use x="147.412109" xlink:href="#DejaVuSans-30"/>
       <use x="211.035156" xlink:href="#DejaVuSans-30"/>
      </g>
     </g>
    </g>
    <g id="ytick_2">
     <g id="line2d_9">
      <g>
       <use style="stroke:#000000;stroke-width:0.8;" x="54" xlink:href="#m7679c96ce7" y="220.937143"/>
      </g>
     </g>
     <g id="text_10">
      <!-- −80 -->
      <g transform="translate(25.895312 224.736362)scale(0.1 -0.1)">
       <defs>
        <path d="M 2034 2216 
Q 1584 2216 1326 1975 
Q 1069 1734 1069 1313 
Q 1069 891 1326 650 
Q 1584 409 2034 409 
Q 2484 409 2743 651 
Q 3003 894 3003 1313 
Q 3003 1734 2745 1975 
Q 2488 2216 2034 2216 
z
M 1403 2484 
Q 997 2584 770 2862 
Q 544 3141 544 3541 
Q 544 4100 942 4425 
Q 1341 4750 2034 4750 
Q 2731 4750 3128 4425 
Q 3525 4100 3525 3541 
Q 3525 3141 3298 2862 
Q 3072 2584 2669 2484 
Q 3125 2378 3379 2068 
Q 3634 1759 3634 1313 
Q 3634 634 3220 271 
Q 2806 -91 2034 -91 
Q 1263 -91 848 271 
Q 434 634 434 1313 
Q 434 1759 690 2068 
Q 947 2378 1403 2484 
z
M 1172 3481 
Q 1172 3119 1398 2916 
Q 1625 2713 2034 2713 
Q 2441 2713 2670 2916 
Q 2900 3119 2900 3481 
Q 2900 3844 2670 4047 
Q 2441 4250 2034 4250 
Q 1625 4250 1398 4047 
Q 1172 3844 1172 3481 
z
" id="DejaVuSans-38" transform="scale(0.015625)"/>
       </defs>
       <use xlink:href="#DejaVuSans-2212"/>
       <use x="83.789062" xlink:href="#DejaVuSans-38"/>
       <use x="147.412109" xlink:href="#DejaVuSans-30"/>
      </g>
     </g>
    </g>
    <g id="ytick_3">
     <g id="line2d_10">
      <g>
       <use style="stroke:#000000;stroke-width:0.8;" x="54" xlink:href="#m7679c96ce7" y="189.874286"/>
      </g>
     </g>
     <g id="text_11">
      <!-- −60 -->
      <g transform="translate(25.895312 193.673504)scale(0.1 -0.1)">
       <defs>
        <path d="M 2113 2584 
Q 1688 2584 1439 2293 
Q 1191 2003 1191 1497 
Q 1191 994 1439 701 
Q 1688 409 2113 409 
Q 2538 409 2786 701 
Q 3034 994 3034 1497 
Q 3034 2003 2786 2293 
Q 2538 2584 2113 2584 
z
M 3366 4563 
L 3366 3988 
Q 3128 4100 2886 4159 
Q 2644 4219 2406 4219 
Q 1781 4219 1451 3797 
Q 1122 3375 1075 2522 
Q 1259 2794 1537 2939 
Q 1816 3084 2150 3084 
Q 2853 3084 3261 2657 
Q 3669 2231 3669 1497 
Q 3669 778 3244 343 
Q 2819 -91 2113 -91 
Q 1303 -91 875 529 
Q 447 1150 447 2328 
Q 447 3434 972 4092 
Q 1497 4750 2381 4750 
Q 2619 4750 2861 4703 
Q 3103 4656 3366 4563 
z
" id="DejaVuSans-36" transform="scale(0.015625)"/>
       </defs>
       <use xlink:href="#DejaVuSans-2212"/>
       <use x="83.789062" xlink:href="#DejaVuSans-36"/>
       <use x="147.412109" xlink:href="#DejaVuSans-30"/>
      </g>
     </g>
    </g>
    <g id="ytick_4">
     <g id="line2d_11">
      <g>
       <use style="stroke:#000000;stroke-width:0.8;" x="54" xlink:href="#m7679c96ce7" y="158.811429"/>
      </g>
     </g>
     <g id="text_12">
      <!-- −40 -->
      <g transform="translate(25.895312 162.610647)scale(0.1 -0.1)">
       <defs>
        <path d="M 2419 4116 
L 825 1625 
L 2419 1625 
L 2419 4116 
z
M 2253 4666 
L 3047 4666 
L 3047 1625 
L 3713 1625 
L 3713 1100 
L 3047 1100 
L 3047 0 
L 2419 0 
L 2419 1100 
L 313 1100 
L 313 1709 
L 2253 4666 
z
" id="DejaVuSans-34" transform="scale(0.015625)"/>
       </defs>
       <use xlink:href="#DejaVuSans-2212"/>
       <use x="83.789062" xlink:href="#DejaVuSans-34"/>
       <use x="147.412109" xlink:href="#DejaVuSans-30"/>
      </g>
     </g>
    </g>
    <g id="ytick_5">
     <g id="line2d_12">
      <g>
       <use style="stroke:#000000;stroke-width:0.8;" x="54" xlink:href="#m7679c96ce7" y="127.748571"/>
      </g>
     </g>
     <g id="text_13">
      <!-- −20 -->
      <g transform="translate(25.895312 131.54779)scale(0.1 -0.1)">
       <use xlink:href="#DejaVuSans-2212"/>
       <use x="83.789062" xlink:href="#DejaVuSans-32"/>
       <use x="147.412109" xlink:href="#DejaVuSans-30"/>
      </g>
     </g>
    </g>
    <g id="ytick_6">
     <g id="line2d_13">
      <g>
       <use style="stroke:#000000;stroke-width:0.8;" x="54" xlink:href="#m7679c96ce7" y="96.685714"/>
      </g>
     </g>
     <g id="text_14">
      <!-- 0 -->
      <g transform="translate(40.6375 100.484933)scale(0.1 -0.1)">
       <use xlink:href="#DejaVuSans-30"/>
      </g>
     </g>
    </g>
    <g id="ytick_7">
     <g id="line2d_14">
      <g>
       <use style="stroke:#000000;stroke-width:0.8;" x="54" xlink:href="#m7679c96ce7" y="65.622857"/>
      </g>
     </g>
     <g id="text_15">
      <!-- 20 -->
      <g transform="translate(34.275 69.422076)scale(0.1 -0.1)">
       <use xlink:href="#DejaVuSans-32"/>
       <use x="63.623047" xlink:href="#DejaVuSans-30"/>
      </g>
     </g>
    </g>
    <g id="ytick_8">
     <g id="line2d_15">
      <g>
       <use style="stroke:#000000;stroke-width:0.8;" x="54" xlink:href="#m7679c96ce7" y="34.56"/>
      </g>
     </g>
     <g id="text_16">
      <!-- 40 -->
      <g transform="translate(34.275 38.359219)scale(0.1 -0.1)">
       <use xlink:href="#DejaVuSans-34"/>
       <use x="63.623047" xlink:href="#DejaVuSans-30"/>
      </g>
     </g>
    </g>
    <g id="text_17">
     <!-- Membrane potential (mV) -->
     <g transform="translate(13.453125 207.691719)rotate(-90)scale(0.1 -0.1)">
      <defs>
       <path d="M 628 4666 
L 1569 4666 
L 2759 1491 
L 3956 4666 
L 4897 4666 
L 4897 0 
L 4281 0 
L 4281 4097 
L 3078 897 
L 2444 897 
L 1241 4097 
L 1241 0 
L 628 0 
L 628 4666 
z
" id="DejaVuSans-4d" transform="scale(0.015625)"/>
       <path d="M 3116 1747 
Q 3116 2381 2855 2742 
Q 2594 3103 2138 3103 
Q 1681 3103 1420 2742 
Q 1159 2381 1159 1747 
Q 1159 1113 1420 752 
Q 1681 391 2138 391 
Q 2594 391 2855 752 
Q 3116 1113 3116 1747 
z
M 1159 2969 
Q 1341 3281 1617 3432 
Q 1894 3584 2278 3584 
Q 2916 3584 3314 3078 
Q 3713 2572 3713 1747 
Q 3713 922 3314 415 
Q 2916 -91 2278 -91 
Q 1894 -91 1617 61 
Q 1341 213 1159 525 
L 1159 0 
L 581 0 
L 581 4863 
L 1159 4863 
L 1159 2969 
z
" id="DejaVuSans-62" transform="scale(0.015625)"/>
       <path d="M 2631 2963 
Q 2534 3019 2420 3045 
Q 2306 3072 2169 3072 
Q 1681 3072 1420 2755 
Q 1159 2438 1159 1844 
L 1159 0 
L 581 0 
L 581 3500 
L 1159 3500 
L 1159 2956 
Q 1341 3275 1631 3429 
Q 1922 3584 2338 3584 
Q 2397 3584 2469 3576 
Q 2541 3569 2628 3553 
L 2631 2963 
z
" id="DejaVuSans-72" transform="scale(0.015625)"/>
       <path d="M 2194 1759 
Q 1497 1759 1228 1600 
Q 959 1441 959 1056 
Q 959 750 1161 570 
Q 1363 391 1709 391 
Q 2188 391 2477 730 
Q 2766 1069 2766 1631 
L 2766 1759 
L 2194 1759 
z
M 3341 1997 
L 3341 0 
L 2766 0 
L 2766 531 
Q 2569 213 2275 61 
Q 1981 -91 1556 -91 
Q 1019 -91 701 211 
Q 384 513 384 1019 
Q 384 1609 779 1909 
Q 1175 2209 1959 2209 
L 2766 2209 
L 2766 2266 
Q 2766 2663 2505 2880 
Q 2244 3097 1772 3097 
Q 1472 3097 1187 3025 
Q 903 2953 641 2809 
L 641 3341 
Q 956 3463 1253 3523 
Q 1550 3584 1831 3584 
Q 2591 3584 2966 3190 
Q 3341 2797 3341 1997 
z
" id="DejaVuSans-61" transform="scale(0.015625)"/>
       <path d="M 3513 2113 
L 3513 0 
L 2938 0 
L 2938 2094 
Q 2938 2591 2744 2837 
Q 2550 3084 2163 3084 
Q 1697 3084 1428 2787 
Q 1159 2491 1159 1978 
L 1159 0 
L 581 0 
L 581 3500 
L 1159 3500 
L 1159 2956 
Q 1366 3272 1645 3428 
Q 1925 3584 2291 3584 
Q 2894 3584 3203 3211 
Q 3513 2838 3513 2113 
z
" id="DejaVuSans-6e" transform="scale(0.015625)"/>
       <path id="DejaVuSans-20" transform="scale(0.015625)"/>
       <path d="M 1159 525 
L 1159 -1331 
L 581 -1331 
L 581 3500 
L 1159 3500 
L 1159 2969 
Q 1341 3281 1617 3432 
Q 1894 3584 2278 3584 
Q 2916 3584 3314 3078 
Q 3713 2572 3713 1747 
Q 3713 922 3314 415 
Q 2916 -91 2278 -91 
Q 1894 -91 1617 61 
Q 1341 213 1159 525 
z
M 3116 1747 
Q 3116 2381 2855 2742 
Q 2594 3103 2138 3103 
Q 1681 3103 1420 2742 
Q 1159 2381 1159 1747 
Q 1159 1113 1420 752 
Q 1681 391 2138 391 
Q 2594 391 2855 752 
Q 3116 1113 3116 1747 
z
" id="DejaVuSans-70" transform="scale(0.015625)"/>
       <path d="M 1959 3097 
Q 1497 3097 1228 2736 
Q 959 2375 959 1747 
Q 959 1119 1226 758 
Q 1494 397 1959 397 
Q 2419 397 2687 759 
Q 2956 1122 2956 1747 
Q 2956 2369 2687 2733 
Q 2419 3097 1959 3097 
z
M 1959 3584 
Q 2709 3584 3137 3096 
Q 3566 2609 3566 1747 
Q 3566 888 3137 398 
Q 2709 -91 1959 -91 
Q 1206 -91 779 398 
Q 353 888 353 1747 
Q 353 2609 779 3096 
Q 1206 3584 1959 3584 
z
" id="DejaVuSans-6f" transform="scale(0.015625)"/>
       <path d="M 1172 4494 
L 1172 3500 
L 2356 3500 
L 2356 3053 
L 1172 3053 
L 1172 1153 
Q 1172 725 1289 603 
Q 1406 481 1766 481 
L 2356 481 
L 2356 0 
L 1766 0 
Q 1100 0 847 248 
Q 594 497 594 1153 
L 594 3053 
L 172 3053 
L 172 3500 
L 594 3500 
L 594 4494 
L 1172 4494 
z
" id="DejaVuSans-74" transform="scale(0.015625)"/>
       <path d="M 603 4863 
L 1178 4863 
L 1178 0 
L 603 0 
L 603 4863 
z
" id="DejaVuSans-6c" transform="scale(0.015625)"/>
       <path d="M 1831 0 
L 50 4666 
L 709 4666 
L 2188 738 
L 3669 4666 
L 4325 4666 
L 2547 0 
L 1831 0 
z
" id="DejaVuSans-56" transform="scale(0.015625)"/>
      </defs>
      <use xlink:href="#DejaVuSans-4d"/>
      <use x="86.279297" xlink:href="#DejaVuSans-65"/>
      <use x="147.802734" xlink:href="#DejaVuSans-6d"/>
      <use x="245.214844" xlink:href="#DejaVuSans-62"/>
      <use x="308.691406" xlink:href="#DejaVuSans-72"/>
      <use x="349.804688" xlink:href="#DejaVuSans-61"/>
      <use x="411.083984" xlink:href="#DejaVuSans-6e"/>
      <use x="474.462891" xlink:href="#DejaVuSans-65"/>
      <use x="535.986328" xlink:href="#DejaVuSans-20"/>
      <use x="567.773438" xlink:href="#DejaVuSans-70"/>
      <use x="631.25" xlink:href="#DejaVuSans-6f"/>
      <use x="692.431641" xlink:href="#DejaVuSans-74"/>
      <use x="731.640625" xlink:href="#DejaVuSans-65"/>
      <use x="793.164062" xlink:href="#DejaVuSans-6e"/>
      <use x="856.542969" xlink:href="#DejaVuSans-74"/>
      <use x="895.751953" xlink:href="#DejaVuSans-69"/>
      <use x="923.535156" xlink:href="#DejaVuSans-61"/>
      <use x="984.814453" xlink:href="#DejaVuSans-6c"/>
      <use x="1012.597656" xlink:href="#DejaVuSans-20"/>
      <use x="1044.384766" xlink:href="#DejaVuSans-28"/>
      <use x="1083.398438" xlink:href="#DejaVuSans-6d"/>
      <use x="1180.810547" xlink:href="#DejaVuSans-56"/>
      <use x="1249.21875" xlink:href="#DejaVuSans-29"/>
     </g>
    </g>
   </g>
   <g id="line2d_16">
    <path clip-path="url(#p366b69664c)" d="M 69.218182 230.256 
L 69.268909 229.12205 
L 69.319636 229.151249 
L 70.283455 233.816735 
L 70.537091 233.720596 
L 70.841455 233.69528 
L 71.044364 233.745912 
L 71.602364 232.615845 
L 71.805273 232.741495 
L 72.211091 233.377972 
L 72.363273 233.601936 
L 73.225636 231.107278 
L 73.428545 231.253273 
L 73.783636 231.940849 
L 74.899636 234.29355 
L 75.204 234.654035 
L 75.406909 233.978573 
L 76.066364 232.007169 
L 76.32 231.755249 
L 76.522909 231.289772 
L 77.080909 229.623094 
L 77.233091 229.70246 
L 77.486727 230.168092 
L 78.298364 232.463793 
L 78.856364 233.691241 
L 79.008545 233.613274 
L 79.515818 233.015935 
L 79.769455 233.039698 
L 80.124545 233.322215 
L 80.530364 233.764084 
L 80.682545 233.201846 
L 80.936182 232.458201 
L 81.139091 232.386291 
L 81.392727 232.626096 
L 83.117455 234.878464 
L 83.827636 235.245471 
L 84.639273 235.446603 
L 84.740727 235.339437 
L 84.892909 234.661645 
L 85.603091 230.237362 
L 85.806 230.179275 
L 86.008909 230.424205 
L 86.465455 231.484381 
L 87.327818 233.546023 
L 87.429273 233.457959 
L 87.885818 232.041027 
L 88.139455 231.062858 
L 88.342364 230.967184 
L 88.545273 231.201553 
L 89.052545 232.304129 
L 89.813455 233.829316 
L 89.914909 233.703977 
L 90.117818 232.656227 
L 90.472909 231.104016 
L 90.675818 230.90568 
L 90.878727 231.023408 
L 90.929455 231.066119 
L 90.980182 230.976037 
L 91.335273 230.160482 
L 91.639636 230.059683 
L 91.791818 229.36403 
L 92.096182 227.813683 
L 92.248364 227.722824 
L 92.400545 227.923179 
L 92.755636 228.955398 
L 93.922364 232.705306 
L 94.176 233.233375 
L 94.226727 233.177462 
L 94.683273 231.994433 
L 94.886182 232.04227 
L 95.241273 232.492836 
L 95.545636 232.887645 
L 96.154364 232.063548 
L 96.408 232.291083 
L 97.168909 233.457959 
L 97.879091 234.323526 
L 98.082 234.489867 
L 98.132727 234.427742 
L 98.690727 232.929891 
L 98.893636 232.927872 
L 99.198 233.184917 
L 99.705273 233.718732 
L 100.111091 232.746465 
L 100.263273 232.018196 
L 100.618364 230.535876 
L 100.922727 229.450851 
L 101.074909 229.380804 
L 101.277818 229.644528 
L 101.43 229.913843 
L 102.038727 227.953932 
L 102.190909 228.097131 
L 102.495273 228.904144 
L 103.814182 233.059268 
L 104.270727 230.557465 
L 104.575091 228.591186 
L 104.778 228.252446 
L 104.930182 228.333986 
L 105.183818 228.834098 
L 105.538909 229.488437 
L 105.843273 229.604301 
L 106.147636 230.067293 
L 106.908545 231.8722 
L 107.669455 233.370207 
L 108.278182 234.103135 
L 108.481091 234.161067 
L 108.886909 233.073401 
L 109.394182 231.282317 
L 109.597091 231.239605 
L 109.850727 231.498359 
L 110.205818 232.00313 
L 110.256545 231.936501 
L 110.611636 231.44959 
L 110.763818 231.42738 
L 111.220364 229.778564 
L 111.524727 228.62784 
L 111.676909 228.610911 
L 111.879818 228.941265 
L 112.387091 230.450764 
L 113.097273 232.408967 
L 113.249455 232.325252 
L 113.655273 231.991948 
L 113.908909 232.102532 
L 114.314727 232.584316 
L 115.582909 234.21201 
L 116.242364 234.667392 
L 116.293091 234.653258 
L 116.749636 232.623145 
L 116.952545 232.572357 
L 117.256909 232.860621 
L 118.17 234.067568 
L 118.220727 234.003423 
L 119.083091 231.276415 
L 119.488909 229.554601 
L 119.641091 229.53674 
L 119.844 229.844107 
L 120.351273 231.245197 
L 121.162909 233.317555 
L 121.213636 233.270184 
L 121.568727 231.939917 
L 121.771636 231.900157 
L 122.025273 232.201777 
L 122.431091 232.907836 
L 122.481818 232.875997 
L 123.293455 231.164278 
L 123.547091 230.988307 
L 123.648545 231.015176 
L 124.155818 229.626977 
L 124.206545 229.660836 
L 124.460182 230.091988 
L 126.032727 233.801204 
L 126.083455 233.737214 
L 126.489273 232.286734 
L 126.692182 232.25738 
L 126.742909 232.244955 
L 127.250182 230.872287 
L 127.453091 231.054781 
L 128.011091 232.00282 
L 128.061818 231.945975 
L 128.416909 231.618572 
L 128.619818 231.720148 
L 128.974909 232.222589 
L 130.243091 234.224125 
L 130.902545 234.767103 
L 131.206909 234.861379 
L 131.967818 233.240053 
L 132.221455 233.320972 
L 132.728727 233.797321 
L 133.489636 234.495925 
L 133.641818 234.211855 
L 134.149091 232.531044 
L 134.352 230.968116 
L 134.605636 229.499153 
L 134.808545 229.264318 
L 134.960727 229.406431 
L 135.265091 230.095716 
L 136.533273 233.357937 
L 137.142 234.206108 
L 137.243455 234.278019 
L 137.750727 232.338765 
L 137.953636 232.369206 
L 138.308727 232.787002 
L 139.424727 234.243384 
L 139.830545 234.539102 
L 140.033455 233.871561 
L 140.337818 233.100581 
L 140.49 232.869163 
L 140.895818 231.05913 
L 141.048 231.000111 
L 141.250909 231.206989 
L 141.453818 231.410762 
L 141.910364 230.8639 
L 142.113273 231.06379 
L 142.366909 231.327669 
L 142.823455 231.237742 
L 143.127818 231.576948 
L 143.888727 232.965613 
L 144.649636 234.106862 
L 145.309091 234.684787 
L 146.07 235.035797 
L 146.780182 235.181016 
L 146.983091 234.23888 
L 147.591818 231.893013 
L 147.794727 231.731175 
L 147.997636 231.842225 
L 148.352727 232.376661 
L 148.809273 233.234462 
L 148.86 233.180723 
L 149.215091 231.849835 
L 149.367273 231.799979 
L 149.570182 231.998626 
L 150.128182 233.027583 
L 150.838364 234.169143 
L 151.447091 234.76555 
L 152.055818 235.104757 
L 152.157273 234.807951 
L 152.512364 233.324234 
L 152.715273 233.11751 
L 152.918182 233.183364 
L 153.121091 233.33992 
L 153.324 232.709034 
L 153.577636 232.182674 
L 153.780545 231.97067 
L 154.135636 231.252962 
L 154.338545 231.286821 
L 154.642909 231.710984 
L 154.896545 232.09197 
L 155.403818 231.339007 
L 155.556 231.377059 
L 156.012545 230.633724 
L 156.215455 230.808919 
L 156.621273 231.63224 
L 156.773455 231.89177 
L 157.179273 230.960661 
L 157.331455 231.043754 
L 157.483636 231.228889 
L 157.534364 231.176237 
L 157.889455 230.290169 
L 158.193818 229.012399 
L 158.346 228.955088 
L 158.548909 229.249253 
L 158.954727 230.367205 
L 159.005455 230.2633 
L 159.411273 227.529147 
L 159.817091 225.129075 
L 159.969273 225.104536 
L 160.172182 225.543765 
L 160.578 227.172701 
L 161.643273 231.592169 
L 161.744727 231.889751 
L 161.795455 231.776837 
L 162.099818 230.785466 
L 162.252 230.099288 
L 162.657818 227.971793 
L 162.81 227.873634 
L 162.962182 228.032365 
L 163.266545 228.779272 
L 163.368 228.988169 
L 163.418727 228.953379 
L 163.723091 228.614328 
L 163.875273 228.755509 
L 164.179636 229.45318 
L 165.549273 233.037058 
L 166.158 233.882433 
L 166.563818 234.144914 
L 166.665273 233.821239 
L 167.375455 228.996246 
L 167.578364 228.943284 
L 167.781273 229.200173 
L 168.085636 229.610514 
L 168.187091 229.519344 
L 168.694364 227.323822 
L 168.846545 227.334383 
L 169.049455 227.63445 
L 169.455273 228.751781 
L 169.810364 229.882003 
L 169.861091 229.776079 
L 170.165455 229.066137 
L 170.317636 229.183555 
L 170.520545 229.469954 
L 170.571273 229.41109 
L 170.875636 229.055265 
L 171.027818 229.162743 
L 171.18 229.352071 
L 171.230727 229.291498 
L 171.535091 228.869509 
L 171.687273 228.930237 
L 171.940909 229.35145 
L 172.245273 229.981404 
L 172.296 229.896758 
L 172.651091 228.843883 
L 173.107636 226.34441 
L 173.361273 225.467816 
L 173.716364 225.122708 
L 173.919273 223.864662 
L 174.223636 222.330467 
L 174.375818 222.223145 
L 174.528 222.43546 
L 174.832364 223.44376 
L 175.491818 226.212548 
L 175.542545 226.19888 
L 175.745455 226.223109 
L 175.948364 226.574896 
L 176.404909 228.049139 
L 177.064364 230.08065 
L 177.165818 229.874548 
L 177.368727 228.611066 
L 177.723818 226.702254 
L 177.825273 226.391781 
L 178.535455 222.26772 
L 178.687636 222.190219 
L 178.890545 222.297851 
L 179.144182 221.994367 
L 179.347091 221.683428 
L 180.006545 218.621407 
L 180.310909 218.47976 
L 180.513818 218.817569 
L 180.818182 219.90772 
L 181.325455 221.760775 
L 181.579091 221.818241 
L 181.883455 221.917021 
L 182.137091 222.032885 
L 182.441455 221.320459 
L 182.695091 219.062655 
L 182.999455 217.070128 
L 183.202364 216.047228 
L 183.506727 214.894175 
L 183.709636 214.604669 
L 183.912545 213.649641 
L 184.267636 211.428802 
L 184.825636 210.108631 
L 185.028545 210.386643 
L 185.13 210.454205 
L 185.282182 210.057998 
L 185.586545 208.774792 
L 186.043091 205.702986 
L 186.195273 205.652353 
L 186.347455 205.794932 
L 186.398182 205.741504 
L 186.601091 205.575162 
L 186.753273 205.774896 
L 187.159091 206.469772 
L 187.412727 207.212951 
L 187.818545 209.328021 
L 188.579455 213.576799 
L 188.833091 214.53105 
L 189.086727 215.292711 
L 189.391091 216.29542 
L 189.644727 217.029435 
L 189.898364 217.562163 
L 190.253455 219.057219 
L 190.608545 220.456135 
L 190.912909 220.952364 
L 190.963636 220.838052 
L 191.318727 219.965341 
L 191.470909 220.069868 
L 191.673818 220.321011 
L 191.876727 220.232637 
L 192.028909 220.438584 
L 192.231818 220.67373 
L 192.333273 220.468404 
L 192.637636 219.546148 
L 192.891273 219.036407 
L 192.992727 218.481779 
L 193.347818 216.23112 
L 193.5 216.149425 
L 193.652182 216.451666 
L 193.956545 217.13536 
L 194.159455 217.291295 
L 194.362364 217.852291 
L 194.768182 219.819967 
L 195.072545 220.990571 
L 195.529091 220.976903 
L 195.782727 221.586357 
L 196.239273 222.869563 
L 196.442182 222.966635 
L 196.645091 223.372781 
L 197.355273 225.118048 
L 197.608909 225.500898 
L 197.862545 226.047449 
L 197.964 225.574361 
L 198.268364 223.793994 
L 198.420545 223.604821 
L 198.572727 223.750816 
L 198.826364 224.435908 
L 199.282909 225.744741 
L 199.536545 225.804227 
L 199.688727 225.943233 
L 200.094545 225.363134 
L 200.297455 225.684169 
L 200.703273 226.927304 
L 201.312 228.96363 
L 201.362727 228.918433 
L 201.667091 228.599418 
L 201.971455 228.587303 
L 202.326545 227.887768 
L 202.478727 227.919141 
L 202.732364 228.299351 
L 202.935273 228.651293 
L 203.138182 227.736802 
L 203.442545 226.763603 
L 203.594727 226.701477 
L 203.797636 226.927925 
L 204.051273 227.39216 
L 204.102 227.355195 
L 204.304909 226.877604 
L 204.609273 225.115563 
L 204.761455 225.015851 
L 204.913636 225.237951 
L 205.065818 225.47993 
L 205.116545 225.456633 
L 205.420909 225.261248 
L 205.978909 222.359045 
L 206.181818 222.395855 
L 206.435455 222.26741 
L 206.638364 222.628049 
L 206.841273 223.264061 
L 206.892 223.236571 
L 207.044182 222.077771 
L 207.399273 219.558263 
L 207.957273 217.256505 
L 208.109455 217.286015 
L 208.312364 217.803367 
L 208.718182 219.706122 
L 209.022545 220.978612 
L 209.073273 221.006258 
L 209.225455 220.53814 
L 209.631273 219.001461 
L 209.732727 219.031592 
L 209.935636 219.506698 
L 210.341455 221.35587 
L 211.914 229.256863 
L 212.370545 230.627046 
L 212.522727 230.625027 
L 212.979273 230.395783 
L 213.131455 230.34018 
L 213.689455 229.74191 
L 213.943091 229.780428 
L 215.008364 225.241368 
L 215.059091 225.25752 
L 215.414182 224.324081 
L 215.464909 224.341943 
L 215.617091 224.586718 
L 215.972182 225.793355 
L 216.175091 226.596951 
L 216.225818 226.579866 
L 216.479455 226.318628 
L 216.733091 226.369105 
L 216.834545 225.745363 
L 217.138909 223.897588 
L 217.341818 223.401981 
L 217.595455 222.89255 
L 217.747636 222.976109 
L 218.001273 223.588358 
L 218.559273 225.387984 
L 218.61 225.354902 
L 218.812909 224.018889 
L 219.168 221.158155 
L 219.421636 220.576658 
L 219.726 219.828975 
L 219.878182 220.030263 
L 220.284 220.817861 
L 220.385455 220.727313 
L 220.639091 219.86066 
L 221.704364 214.983791 
L 221.907273 213.266947 
L 222.160909 212.062019 
L 222.363818 211.942427 
L 222.566727 212.044623 
L 222.871091 211.714736 
L 223.074 211.741139 
L 223.327636 211.571847 
L 223.479818 211.713959 
L 223.733455 212.411631 
L 224.139273 214.371542 
L 225.255273 220.167095 
L 225.711818 220.753406 
L 225.914727 220.840537 
L 226.117636 221.251033 
L 226.624909 222.536259 
L 226.827818 222.57167 
L 227.132182 222.927495 
L 227.182909 222.856827 
L 227.436545 222.636126 
L 227.588727 222.539054 
L 227.842364 222.359822 
L 227.994545 222.4951 
L 228.248182 223.088401 
L 228.755455 224.99535 
L 229.262727 226.793423 
L 229.820727 226.695109 
L 230.074364 226.599125 
L 230.277273 226.711573 
L 230.683091 225.845074 
L 230.835273 225.955347 
L 231.088909 226.503141 
L 231.849818 228.702391 
L 231.900545 228.656729 
L 232.154182 228.4747 
L 232.255636 228.482 
L 232.813636 227.542193 
L 233.016545 227.799239 
L 233.168727 228.01963 
L 233.422364 226.7226 
L 233.878909 223.746157 
L 234.031091 223.761067 
L 234.994909 225.37851 
L 235.705091 228.071971 
L 236.060182 229.108227 
L 236.313818 229.087105 
L 236.973273 228.457616 
L 237.226909 228.768244 
L 237.734182 229.859793 
L 238.748727 232.12909 
L 238.850182 232.040406 
L 239.306727 231.174373 
L 239.509636 231.214134 
L 239.864727 231.616243 
L 240.625636 232.669118 
L 241.234364 231.450522 
L 241.488 231.54837 
L 241.640182 231.651499 
L 241.690909 231.582229 
L 242.553273 229.738182 
L 242.756182 229.673261 
L 243.009818 229.90996 
L 243.466364 230.786398 
L 243.922909 231.621989 
L 244.075091 231.156357 
L 244.531636 229.291964 
L 244.785273 229.072971 
L 244.988182 229.212288 
L 245.343273 229.83836 
L 246.611455 232.671137 
L 246.662182 232.629513 
L 246.865091 231.849835 
L 247.220182 230.336142 
L 247.423091 230.136874 
L 247.626 230.2633 
L 247.778182 230.390813 
L 248.285455 229.713332 
L 248.539091 230.063721 
L 249.097091 230.970912 
L 249.452182 230.963612 
L 249.756545 231.274706 
L 250.416 232.408035 
L 250.821818 233.057093 
L 250.974 232.567232 
L 251.278364 231.840982 
L 251.379818 231.679145 
L 251.785636 230.255845 
L 251.937818 230.253049 
L 252.191455 230.588683 
L 252.952364 232.281609 
L 253.662545 233.537636 
L 253.865455 233.644181 
L 254.169818 233.070605 
L 254.474182 232.698628 
L 254.626364 232.567853 
L 255.082909 230.852096 
L 255.235091 230.818393 
L 255.336545 230.829576 
L 255.742364 229.580072 
L 255.894545 229.648411 
L 256.148182 230.112334 
L 257.720727 233.607993 
L 258.278727 234.211389 
L 258.329455 234.214185 
L 258.532364 233.3174 
L 258.786 232.605905 
L 258.988909 232.499204 
L 259.242545 232.652189 
L 259.851273 233.422548 
L 260.662909 234.309392 
L 260.916545 234.418112 
L 261.525273 232.785138 
L 261.728182 232.807037 
L 262.083273 233.136925 
L 262.438364 233.522881 
L 262.489091 233.47085 
L 262.996364 232.700336 
L 263.25 232.784206 
L 263.706545 233.290686 
L 264.771818 234.508816 
L 265.482 234.954102 
L 266.395091 235.240501 
L 267.866182 235.440391 
L 267.967636 235.348755 
L 268.474909 233.389 
L 268.677818 233.312275 
L 268.931455 233.402978 
L 269.489455 231.99319 
L 269.692364 232.102221 
L 269.844545 232.153785 
L 270.098182 231.573065 
L 270.656182 229.542176 
L 270.859091 229.765673 
L 271.264909 230.766363 
L 271.366364 230.887197 
L 271.721455 230.407431 
L 271.924364 230.617261 
L 272.330182 231.508299 
L 272.583818 231.992258 
L 273.141818 231.350034 
L 273.395455 231.674641 
L 273.547636 231.829955 
L 274.105636 231.49898 
L 274.359273 231.7509 
L 274.41 231.6793 
L 274.765091 230.844641 
L 274.917273 230.881761 
L 275.170909 231.138962 
L 275.221636 231.074506 
L 275.576727 230.615242 
L 275.779636 230.778011 
L 276.134727 231.469781 
L 276.844909 233.029758 
L 276.946364 232.541139 
L 277.504364 228.65999 
L 277.707273 227.505539 
L 277.960909 226.67088 
L 278.113091 226.739219 
L 278.366727 227.36001 
L 279.127636 230.269202 
L 279.837818 232.468607 
L 280.142182 233.002888 
L 280.345091 232.706859 
L 280.598727 232.221968 
L 280.852364 230.150386 
L 281.308909 226.954174 
L 281.511818 226.685325 
L 281.664 226.842037 
L 281.765455 226.914879 
L 282.069818 226.734715 
L 282.272727 227.030433 
L 282.627818 228.105052 
L 283.743818 231.895342 
L 283.896 231.443067 
L 284.504727 229.530061 
L 284.656909 229.33918 
L 285.265636 227.171614 
L 285.417818 227.242903 
L 285.671455 227.709933 
L 285.975818 228.213307 
L 286.077273 228.151647 
L 286.280182 227.328792 
L 286.838182 225.432715 
L 287.041091 225.278643 
L 287.244 225.356611 
L 287.599091 224.352815 
L 287.751273 224.492753 
L 288.004909 225.195861 
L 288.715091 228.168576 
L 289.526727 231.211028 
L 290.135455 232.717576 
L 290.693455 233.573668 
L 290.896364 233.730847 
L 291.251455 232.232219 
L 291.606545 230.688706 
L 291.860182 230.091056 
L 292.519636 227.764138 
L 292.671818 227.806072 
L 292.925455 228.283509 
L 293.534182 230.185332 
L 293.737091 230.820723 
L 293.787818 230.787641 
L 294.142909 229.994606 
L 294.295091 230.060925 
L 294.599455 230.586043 
L 295.258909 232.097096 
L 295.309636 232.065877 
L 295.563273 230.985977 
L 295.867636 229.54699 
L 296.070545 229.383289 
L 296.324182 229.503192 
L 296.679273 228.849784 
L 296.831455 228.928529 
L 297.085091 229.385308 
L 298.911273 233.501758 
L 299.52 234.100029 
L 299.976545 234.359559 
L 300.128727 233.886627 
L 300.483818 232.896653 
L 300.585273 232.441427 
L 301.041818 229.539691 
L 301.396909 228.551115 
L 301.802727 227.285614 
L 302.005636 227.001079 
L 302.157818 227.098461 
L 302.411455 227.656349 
L 302.817273 228.70441 
L 302.868 228.678317 
L 303.070909 228.42003 
L 303.375273 227.811508 
L 303.527455 227.824555 
L 303.730364 228.122137 
L 304.136182 229.232013 
L 305.252182 232.435991 
L 305.860909 233.488556 
L 306.469636 234.113386 
L 307.179818 234.519377 
L 307.687091 234.657296 
L 307.89 234.075489 
L 308.143636 233.019352 
L 308.448 231.482362 
L 308.650909 231.217551 
L 308.853818 231.305769 
L 309.107455 231.605371 
L 309.158182 231.488264 
L 309.665455 229.073282 
L 309.817636 229.052159 
L 310.020545 229.327531 
L 310.274182 229.770177 
L 310.629273 229.207473 
L 310.781455 229.202814 
L 311.136545 227.645012 
L 311.796 224.34303 
L 311.948182 224.295038 
L 312.151091 224.600852 
L 312.506182 225.745052 
L 312.759818 226.398459 
L 313.064182 226.704118 
L 313.368545 227.453043 
L 313.47 227.748917 
L 313.520727 227.661785 
L 313.926545 225.372608 
L 314.078727 225.349777 
L 314.281636 225.762913 
L 314.738182 227.467177 
L 315.702 231.05649 
L 316.310727 232.517531 
L 316.919455 233.414627 
L 317.578909 233.976554 
L 318.339818 234.339523 
L 318.441273 233.943627 
L 319.455818 228.406983 
L 319.658727 228.372659 
L 319.963091 227.636625 
L 320.115273 227.691916 
L 320.368909 228.223557 
L 320.470364 228.310533 
L 320.825455 228.080047 
L 321.028364 228.384773 
L 321.484909 229.681958 
L 321.637091 230.033745 
L 321.687818 229.972551 
L 322.093636 228.471749 
L 322.803818 225.500743 
L 322.905273 225.546405 
L 322.956 225.418271 
L 323.412545 221.179278 
L 323.615455 220.840537 
L 323.767636 220.960129 
L 324.021273 221.584803 
L 324.680727 223.496256 
L 324.883636 223.809991 
L 325.188 224.289446 
L 325.441636 224.107263 
L 325.593818 223.636971 
L 326.050364 220.499157 
L 326.709818 213.529583 
L 326.862 213.412166 
L 327.014182 213.607706 
L 327.318545 214.576557 
L 328.180909 218.115393 
L 328.231636 218.087281 
L 328.434545 217.571482 
L 328.688182 216.818053 
L 328.840364 216.854707 
L 329.043273 217.360565 
L 329.449091 219.262078 
L 329.804182 220.973952 
L 329.854909 220.925184 
L 330.21 219.895139 
L 330.362182 220.062413 
L 330.615818 220.504282 
L 330.818727 220.518416 
L 331.021636 220.93559 
L 331.376727 222.396321 
L 332.188364 226.366775 
L 332.239091 226.353263 
L 332.442 226.221556 
L 332.594182 226.388519 
L 332.898545 227.170837 
L 333.811636 229.993364 
L 333.862364 229.970377 
L 334.369636 229.422273 
L 335.282727 225.410505 
L 335.739273 224.062998 
L 335.891455 224.047311 
L 336.094364 224.32812 
L 336.348 224.899366 
L 336.398727 224.848112 
L 336.652364 224.598522 
L 336.804545 224.761602 
L 337.108909 225.592067 
L 338.377091 230.082203 
L 338.427818 229.972707 
L 339.138 227.805607 
L 339.340909 227.949117 
L 339.696 228.632655 
L 339.898909 229.012243 
L 340.304727 228.215947 
L 340.507636 228.400305 
L 340.862727 229.169111 
L 342.130909 232.142292 
L 342.486 232.631066 
L 342.638182 232.369672 
L 343.145455 230.986754 
L 343.449818 229.753869 
L 343.652727 229.642664 
L 343.855636 229.839136 
L 344.312182 230.747725 
L 345.276 232.692571 
L 345.478909 232.94946 
L 345.631091 232.415024 
L 345.935455 231.531596 
L 346.138364 231.446329 
L 346.392 231.630221 
L 347.051455 232.519706 
L 347.102182 232.447174 
L 347.609455 231.37038 
L 347.812364 231.442446 
L 348.167455 231.897361 
L 348.319636 232.055627 
L 348.725455 230.64646 
L 348.877636 230.667893 
L 349.131273 231.021233 
L 350.145818 232.932376 
L 350.196545 232.890907 
L 350.348727 232.518463 
L 350.551636 230.284578 
L 350.856 228.235361 
L 351.058909 228.016523 
L 351.211091 228.174323 
L 351.515455 228.913774 
L 352.428545 231.645597 
L 352.479273 231.613602 
L 352.631455 230.741668 
L 352.935818 229.232479 
L 353.138727 229.098753 
L 353.341636 229.350207 
L 353.798182 230.490214 
L 354.762 232.879103 
L 355.370727 233.793749 
L 355.979455 234.333621 
L 356.740364 234.702493 
L 357.856364 234.97072 
L 358.312909 234.949598 
L 358.566545 234.248664 
L 359.023091 231.225627 
L 359.226 230.983337 
L 359.428909 231.088951 
L 359.784 231.662526 
L 360.747818 233.447398 
L 360.9 233.061131 
L 361.204364 231.497116 
L 361.610182 229.533167 
L 361.813091 229.293983 
L 361.965273 229.368534 
L 362.218909 229.795027 
L 362.827636 231.114577 
L 362.878364 231.078544 
L 363.233455 230.902418 
L 363.385636 230.841069 
L 363.842182 230.20164 
L 364.045091 230.314864 
L 364.450909 230.637452 
L 364.704545 230.555757 
L 364.907455 229.509249 
L 365.211818 227.349914 
L 365.364 227.15251 
L 365.516182 227.312173 
L 365.820545 228.17572 
L 366.530727 230.788883 
L 366.581455 230.691657 
L 366.835091 229.929219 
L 366.987273 229.94941 
L 367.240909 230.412557 
L 367.697455 231.406724 
L 367.748182 231.369914 
L 368.103273 231.143932 
L 368.356909 231.340094 
L 368.813455 232.11682 
L 369.219273 232.780012 
L 369.422182 232.444689 
L 369.726545 232.084204 
L 369.929455 232.109521 
L 370.233818 232.40322 
L 371.146909 233.660023 
L 371.197636 233.582987 
L 371.654182 232.614137 
L 371.857091 232.602178 
L 372.06 232.60808 
L 372.465818 230.768537 
L 372.719455 229.755422 
L 372.871636 229.646236 
L 373.023818 229.777477 
L 373.328182 230.424361 
L 373.581818 231.117839 
L 373.581818 231.117839 
" style="fill:none;stroke:#000000;stroke-linecap:square;stroke-width:1.5;"/>
   </g>
   <g id="line2d_17">
    <path clip-path="url(#p366b69664c)" d="M 69.218182 230.256 
L 69.319636 228.656263 
L 69.370364 228.712021 
L 70.232727 231.195651 
L 70.283455 231.173907 
L 71.145818 230.205833 
L 71.500909 229.236672 
L 71.703818 229.154356 
L 71.957455 229.359681 
L 72.363273 229.954535 
L 72.414 229.789281 
L 72.921273 227.899416 
L 73.174909 227.337023 
L 73.377818 227.341061 
L 73.631455 227.689897 
L 74.290909 229.187438 
L 75.102545 230.7923 
L 75.204 230.901176 
L 75.356182 230.465674 
L 75.711273 229.572307 
L 77.182364 225.527767 
L 77.385273 225.735112 
L 77.740364 226.542125 
L 78.907091 229.542486 
L 79.059273 229.417924 
L 79.515818 228.916725 
L 79.769455 228.934431 
L 80.124545 229.221762 
L 80.530364 229.701373 
L 80.581091 229.593274 
L 80.986909 228.389122 
L 81.189818 228.393471 
L 81.494182 228.75613 
L 83.117455 231.168316 
L 83.827636 231.696074 
L 84.639273 232.028291 
L 84.740727 231.932928 
L 84.892909 231.257467 
L 85.653818 226.380132 
L 85.856727 226.291137 
L 86.059636 226.484814 
L 86.465455 227.30565 
L 87.378545 229.395559 
L 87.733636 228.711555 
L 87.885818 227.983286 
L 88.139455 226.986013 
L 88.342364 226.857879 
L 88.545273 227.062117 
L 88.951091 227.898174 
L 89.864182 229.787106 
L 89.965636 229.544816 
L 90.625091 226.812527 
L 90.828 226.803674 
L 90.929455 226.871391 
L 91.132364 226.253861 
L 91.386 225.845851 
L 91.588909 225.808731 
L 91.741091 225.298523 
L 92.146909 223.170407 
L 92.299091 223.116668 
L 92.502 223.424346 
L 92.907818 224.641389 
L 94.125273 228.524712 
L 94.176 228.636072 
L 94.226727 228.608581 
L 94.683273 227.59733 
L 94.886182 227.684151 
L 95.241273 228.195756 
L 95.545636 228.651603 
L 95.748545 228.225576 
L 96.002182 227.875498 
L 96.205091 227.912152 
L 96.509455 228.260988 
L 98.082 230.627046 
L 98.132727 230.580141 
L 98.741455 229.104034 
L 98.995091 229.169111 
L 99.400909 229.600574 
L 99.705273 229.903903 
L 99.958909 229.226111 
L 100.212545 228.506074 
L 100.618364 226.623354 
L 100.973455 225.336886 
L 101.125636 225.287807 
L 101.328545 225.542211 
L 101.43 225.671433 
L 102.038727 223.537104 
L 102.190909 223.612742 
L 102.444545 224.158361 
L 103.104 226.413991 
L 103.814182 228.591652 
L 104.270727 226.255881 
L 104.625818 224.03908 
L 104.828727 223.758116 
L 104.980909 223.844937 
L 105.234545 224.318645 
L 105.488182 224.75803 
L 105.944727 224.887251 
L 106.249091 225.399944 
L 107.01 227.302078 
L 107.872364 229.204988 
L 108.430364 230.027067 
L 108.531818 229.918191 
L 108.937636 228.799618 
L 109.343455 227.235292 
L 109.546364 227.062894 
L 109.749273 227.15981 
L 110.104364 227.674987 
L 110.205818 227.743791 
L 110.865273 226.761273 
L 111.524727 224.176688 
L 111.676909 224.09872 
L 111.879818 224.355921 
L 112.285636 225.446227 
L 113.148 227.83962 
L 113.350909 227.671104 
L 113.655273 227.499327 
L 113.908909 227.630723 
L 114.314727 228.160344 
L 115.887273 230.474217 
L 116.293091 230.803017 
L 116.749636 228.857861 
L 116.952545 228.79589 
L 117.206182 229.001682 
L 118.17 230.29809 
L 118.271455 230.104724 
L 119.641091 225.455391 
L 119.691818 225.48226 
L 119.894727 225.775804 
L 120.402 227.101256 
L 121.162909 229.109159 
L 121.213636 229.079494 
L 121.619455 227.799705 
L 121.771636 227.815857 
L 122.025273 228.127418 
L 122.481818 228.842951 
L 123.496364 226.828835 
L 123.699273 226.637488 
L 124.054364 225.304115 
L 124.206545 225.266063 
L 124.409455 225.512702 
L 124.815273 226.479378 
L 125.982 229.396646 
L 126.032727 229.492941 
L 126.083455 229.45318 
L 126.54 228.105052 
L 126.793636 227.971637 
L 127.148727 226.794355 
L 127.300909 226.753352 
L 127.503818 226.966909 
L 128.011091 227.805141 
L 128.061818 227.749383 
L 128.416909 227.397907 
L 128.619818 227.478049 
L 128.974909 227.963406 
L 130.648909 230.698646 
L 131.206909 231.121101 
L 131.460545 230.316728 
L 131.815636 229.57153 
L 132.069273 229.472595 
L 132.373636 229.622162 
L 133.083818 230.346082 
L 133.540364 230.681251 
L 133.946182 229.718302 
L 134.149091 228.739667 
L 134.352 227.123621 
L 134.656364 225.382393 
L 134.859273 225.175048 
L 135.062182 225.374783 
L 135.417273 226.178379 
L 136.736182 229.446813 
L 137.243455 230.210182 
L 137.801455 228.36101 
L 138.004364 228.445035 
L 138.410182 228.967202 
L 139.526182 230.490214 
L 139.830545 230.750831 
L 139.982727 230.306477 
L 140.337818 229.326755 
L 140.49 229.06272 
L 140.895818 227.095044 
L 141.098727 226.94765 
L 141.301636 227.095665 
L 141.403091 227.18699 
L 141.453818 227.140395 
L 141.961091 226.32981 
L 142.164 226.46804 
L 142.366909 226.552531 
L 142.874182 226.21379 
L 143.127818 226.392712 
L 143.635091 227.128747 
L 144.751091 228.794959 
L 145.410545 229.382202 
L 146.120727 229.719234 
L 146.780182 229.830749 
L 146.983091 228.874479 
L 147.642545 226.065465 
L 147.896182 225.790714 
L 148.149818 225.873341 
L 148.555636 226.359786 
L 148.809273 226.743567 
L 148.86 226.681752 
L 149.265818 225.207509 
L 149.468727 225.184989 
L 149.773091 225.535688 
L 151.396364 227.892583 
L 152.055818 228.376076 
L 152.157273 228.104587 
L 152.563091 226.492269 
L 152.816727 226.283682 
L 153.171818 226.27048 
L 153.628364 224.964442 
L 153.780545 224.695593 
L 154.186364 223.689001 
L 154.389273 223.652503 
L 154.642909 223.883455 
L 154.896545 224.1551 
L 155.454545 223.162952 
L 155.556 223.122725 
L 156.063273 222.114736 
L 156.266182 222.21833 
L 156.621273 222.794236 
L 156.773455 223.015869 
L 157.23 222.012384 
L 157.432909 222.159 
L 157.534364 222.132908 
L 157.889455 221.153651 
L 158.193818 219.745727 
L 158.396727 219.592276 
L 158.599636 219.826801 
L 158.954727 220.651209 
L 159.005455 220.545285 
L 159.309818 218.410179 
L 159.918545 214.712768 
L 160.070727 214.730163 
L 160.273636 215.122642 
L 160.730182 216.702965 
L 161.744727 220.54047 
L 161.795455 220.469492 
L 162.099818 219.695405 
L 162.252 219.093562 
L 162.657818 216.889342 
L 162.860727 216.691782 
L 163.063636 216.902388 
L 163.368 217.521937 
L 163.418727 217.477828 
L 163.773818 217.027106 
L 163.976727 217.242682 
L 164.331818 218.110268 
L 166.158 223.152546 
L 166.563818 223.825057 
L 166.665273 223.607151 
L 166.918909 221.232706 
L 167.274 218.824713 
L 167.527636 218.283288 
L 167.730545 218.27956 
L 168.085636 218.476809 
L 168.187091 218.286083 
L 168.795818 215.158985 
L 169.049455 214.994042 
L 169.303091 215.160073 
L 169.658182 215.716098 
L 169.810364 215.997372 
L 170.266909 214.962979 
L 170.571273 215.129631 
L 170.875636 214.707487 
L 171.027818 214.778 
L 171.18 214.952728 
L 171.230727 214.902096 
L 171.585818 214.493464 
L 171.788727 214.661203 
L 172.093091 215.325016 
L 172.245273 215.630364 
L 172.296 215.575072 
L 172.600364 214.974627 
L 173.412 210.886289 
L 173.665636 210.520058 
L 173.868545 209.327245 
L 174.274364 206.601479 
L 174.477273 206.234471 
L 174.629455 206.291472 
L 174.883091 206.79469 
L 175.491818 208.60348 
L 175.593273 208.498177 
L 175.796182 208.402969 
L 175.999091 208.62802 
L 176.354182 209.561303 
L 177.115091 211.924721 
L 177.267273 211.455516 
L 178.535455 204.169568 
L 178.738364 203.956011 
L 178.839818 203.94312 
L 179.093455 203.490223 
L 179.397818 202.326764 
L 180.057273 197.227019 
L 180.463091 195.597307 
L 180.716727 195.347095 
L 180.919636 195.490761 
L 181.376182 195.956548 
L 181.731273 196.245588 
L 182.187818 196.78748 
L 182.238545 196.734052 
L 182.441455 196.433208 
L 182.593636 195.339174 
L 183.456 187.739801 
L 183.912545 184.489695 
L 184.369091 176.800395 
L 184.572 169.440517 
L 184.673455 158.754739 
L 184.774909 55.468564 
L 184.825636 115.114997 
L 185.028545 193.193197 
L 185.231455 209.276768 
L 185.485091 213.9553 
L 185.535818 214.112012 
L 185.586545 214.093374 
L 185.789455 212.890154 
L 186.043091 211.934661 
L 186.195273 211.854519 
L 186.347455 211.896298 
L 186.702545 211.329091 
L 187.006909 211.358445 
L 187.260545 211.250657 
L 187.463455 211.425385 
L 187.767818 212.067765 
L 188.376545 213.986207 
L 188.478 213.794239 
L 188.731636 213.450684 
L 188.985273 213.458605 
L 189.289636 213.105886 
L 189.594 213.031335 
L 189.898364 212.53961 
L 190.050545 212.554676 
L 190.253455 212.819176 
L 190.507091 213.252037 
L 190.557818 213.203268 
L 190.963636 212.547065 
L 191.420182 210.531552 
L 191.775273 209.975216 
L 192.028909 209.662879 
L 192.181091 209.612402 
L 192.333273 209.131238 
L 192.739091 207.287502 
L 192.992727 205.993113 
L 193.398545 202.822993 
L 193.601455 202.447598 
L 193.753636 202.548242 
L 193.855091 202.597011 
L 194.311636 202.082765 
L 194.514545 202.378328 
L 194.869636 203.435242 
L 195.021818 203.697102 
L 195.174 203.421574 
L 195.579818 202.589556 
L 195.782727 202.622172 
L 196.036364 203.016359 
L 196.137818 203.111412 
L 196.188545 203.071185 
L 196.543636 202.692374 
L 196.695818 202.806685 
L 196.949455 203.334909 
L 197.152364 203.710614 
L 197.558182 203.7701 
L 197.862545 204.217249 
L 197.913273 204.087562 
L 198.420545 201.321415 
L 198.572727 201.226673 
L 198.724909 201.388044 
L 199.029273 202.208414 
L 199.282909 202.720641 
L 199.536545 202.732134 
L 199.688727 202.841165 
L 200.094545 202.263706 
L 200.145273 202.300205 
L 200.348182 202.663951 
L 200.703273 203.856144 
L 201.464182 206.559078 
L 201.667091 206.723867 
L 201.971455 207.155485 
L 202.022182 207.096 
L 202.326545 206.797175 
L 202.478727 206.926707 
L 202.732364 207.512708 
L 202.935273 208.099951 
L 202.986 208.042485 
L 203.544 206.758812 
L 203.696182 206.903565 
L 204.102 207.73869 
L 204.203455 207.621894 
L 204.304909 207.349317 
L 204.66 205.533072 
L 204.812182 205.48011 
L 205.167273 205.75921 
L 205.420909 205.559786 
L 205.623818 203.949022 
L 205.877455 202.545912 
L 206.080364 202.326609 
L 206.334 201.888778 
L 206.536909 201.808946 
L 206.739818 202.150172 
L 206.841273 202.403955 
L 206.892 202.367767 
L 207.044182 201.182098 
L 207.754364 194.572388 
L 208.109455 192.076798 
L 208.363091 191.514249 
L 208.515273 191.541895 
L 208.718182 191.907971 
L 209.022545 192.581258 
L 209.124 192.401404 
L 209.377636 190.862706 
L 209.783455 188.453005 
L 209.986364 188.074193 
L 210.138545 188.133679 
L 210.341455 188.611891 
L 210.645818 190.031464 
L 211.203818 194.002695 
L 212.421273 202.957651 
L 212.776364 203.920288 
L 213.334364 204.929987 
L 213.588 205.238285 
L 213.943091 206.077604 
L 213.993818 205.993734 
L 214.247455 205.632163 
L 214.348909 205.648005 
L 214.551818 204.825771 
L 214.856182 203.623949 
L 215.008364 203.65672 
L 215.059091 203.716361 
L 215.109818 203.634976 
L 215.363455 203.126943 
L 215.515636 203.245759 
L 215.769273 203.999809 
L 216.327273 205.98162 
L 216.530182 206.110375 
L 216.682364 206.256215 
L 216.783818 206.067974 
L 217.189636 203.745871 
L 217.747636 202.430824 
L 217.798364 202.458936 
L 218.001273 202.80684 
L 218.356364 204.01969 
L 218.559273 204.505979 
L 218.61 204.499145 
L 218.762182 203.829896 
L 219.269455 200.106546 
L 219.827455 198.611646 
L 219.979636 198.846947 
L 220.182545 199.181494 
L 220.334727 199.150897 
L 220.486909 198.722696 
L 220.892727 196.530745 
L 221.907273 188.291788 
L 222.871091 173.475582 
L 223.023273 163.932296 
L 223.074 153.804251 
L 223.124727 72.088436 
L 223.175455 74.429332 
L 223.327636 175.995712 
L 223.581273 207.290143 
L 223.834909 214.556055 
L 224.139273 217.561232 
L 224.595818 219.517104 
L 225.052364 220.999579 
L 225.407455 220.461105 
L 225.508909 220.432527 
L 226.117636 219.396736 
L 226.320545 219.613865 
L 226.472727 219.814531 
L 226.523455 219.761414 
L 226.98 218.985774 
L 227.081455 218.926133 
L 228.045273 216.740861 
L 228.248182 216.925064 
L 228.603273 217.724777 
L 229.262727 219.558263 
L 229.313455 219.529374 
L 229.617818 219.43572 
L 229.820727 219.209271 
L 230.074364 219.01606 
L 230.277273 219.069333 
L 230.733818 218.132167 
L 230.886 218.261388 
L 231.190364 218.955177 
L 231.849818 220.905925 
L 231.900545 220.876415 
L 232.154182 220.750921 
L 232.306364 220.697027 
L 232.712182 219.891878 
L 232.864364 219.944374 
L 233.168727 220.364654 
L 233.219455 220.168027 
L 233.473091 218.67996 
L 233.828182 216.061517 
L 234.031091 215.806025 
L 234.183273 215.969105 
L 234.386182 216.132806 
L 234.690545 216.064778 
L 234.893455 216.307224 
L 235.248545 217.199505 
L 236.161636 219.777256 
L 236.364545 219.705656 
L 236.871818 219.089679 
L 237.074727 219.224026 
L 237.379091 219.746814 
L 237.987818 221.354006 
L 238.799455 223.586805 
L 238.850182 223.556518 
L 239.306727 223.044292 
L 239.509636 223.209857 
L 239.915455 223.936106 
L 240.625636 225.408641 
L 240.676364 225.328965 
L 241.132909 224.495393 
L 241.335818 224.500519 
L 241.690909 224.697457 
L 242.705455 222.67278 
L 242.908364 222.729314 
L 243.212727 223.138568 
L 243.922909 224.544317 
L 243.973636 224.474736 
L 244.176545 223.594104 
L 244.582364 221.961907 
L 244.836 221.666499 
L 245.038909 221.735148 
L 245.343273 222.164592 
L 245.901273 223.447798 
L 246.662182 225.248357 
L 246.814364 224.85215 
L 247.321636 223.102535 
L 247.524545 223.103311 
L 247.778182 223.351969 
L 247.828909 223.280059 
L 248.184 222.682875 
L 248.336182 222.747176 
L 248.589818 223.163418 
L 249.097091 224.05135 
L 249.452182 224.091731 
L 249.756545 224.459205 
L 250.365273 225.701719 
L 250.821818 226.676316 
L 250.872545 226.606114 
L 251.278364 225.693643 
L 251.379818 225.565353 
L 251.785636 224.190667 
L 251.937818 224.176999 
L 252.191455 224.495083 
L 252.749455 225.762758 
L 253.713273 227.880623 
L 253.865455 227.993226 
L 254.068364 227.686791 
L 254.474182 227.123 
L 254.626364 226.98679 
L 255.133636 225.159517 
L 255.387273 224.90418 
L 255.691636 223.805642 
L 255.843818 223.731713 
L 256.046727 223.946978 
L 256.452545 224.870167 
L 257.720727 227.936847 
L 258.329455 228.872616 
L 258.481636 228.302923 
L 258.786 227.424465 
L 258.988909 227.339664 
L 259.242545 227.51082 
L 259.800545 228.270152 
L 260.815091 229.581004 
L 260.916545 229.601195 
L 261.626727 227.978161 
L 261.880364 228.098374 
L 262.489091 228.646478 
L 262.539818 228.552824 
L 262.945636 227.868975 
L 263.199273 227.883108 
L 263.554364 228.222625 
L 265.431273 230.441135 
L 266.242909 230.906922 
L 267.308182 231.252031 
L 267.916909 231.378456 
L 268.018364 231.057111 
L 268.373455 229.460946 
L 268.627091 229.165538 
L 268.982182 229.028085 
L 269.388 227.699061 
L 269.590909 227.600902 
L 269.844545 227.648118 
L 270.098182 226.983839 
L 270.656182 224.661424 
L 270.808364 224.721686 
L 271.062 225.147092 
L 271.366364 225.743965 
L 271.721455 225.216517 
L 271.924364 225.400565 
L 272.330182 226.283371 
L 272.583818 226.800878 
L 272.786727 226.416165 
L 273.040364 226.158033 
L 273.243273 226.298903 
L 273.598364 226.667308 
L 274.004182 226.337421 
L 274.207091 226.457634 
L 274.359273 226.621956 
L 274.41 226.554239 
L 274.765091 225.717717 
L 274.917273 225.745363 
L 275.170909 225.997282 
L 275.221636 225.934535 
L 275.576727 225.455546 
L 275.779636 225.604648 
L 276.134727 226.301698 
L 276.844909 228.011243 
L 276.895636 227.885127 
L 278.011636 221.315023 
L 278.163818 221.373731 
L 278.417455 221.926029 
L 279.026182 224.087538 
L 279.99 227.290895 
L 280.192909 227.557259 
L 280.548 227.162295 
L 280.700182 226.407623 
L 281.359636 221.436634 
L 281.562545 221.176948 
L 281.816182 221.166231 
L 282.069818 220.884957 
L 282.222 220.98265 
L 282.475636 221.50637 
L 283.033636 223.395768 
L 283.743818 225.881884 
L 283.794545 225.831096 
L 284.149636 224.548666 
L 284.454 223.816514 
L 284.656909 223.590687 
L 285.367091 221.118395 
L 285.57 221.292347 
L 285.975818 221.864835 
L 286.026545 221.829579 
L 286.128 221.62037 
L 286.990364 218.217279 
L 287.294727 217.751957 
L 287.599091 216.568773 
L 287.751273 216.50292 
L 287.954182 216.775031 
L 288.309273 217.799794 
L 289.171636 221.26703 
L 290.338364 225.665376 
L 290.896364 227.192115 
L 291.048545 226.782396 
L 292.621091 221.997473 
L 292.671818 222.01782 
L 292.874727 222.297851 
L 293.280545 223.398719 
L 293.787818 224.873739 
L 294.142909 224.184299 
L 294.295091 224.274847 
L 294.599455 224.856188 
L 295.309636 226.582507 
L 295.360364 226.451577 
L 295.664727 224.997835 
L 295.918364 224.135375 
L 296.121273 224.072006 
L 296.324182 224.158672 
L 296.679273 223.470008 
L 296.831455 223.51272 
L 297.085091 223.913431 
L 297.643091 225.403516 
L 298.657636 228.00503 
L 299.367818 229.219588 
L 299.976545 229.889303 
L 300.128727 229.482069 
L 300.686727 227.229856 
L 301.041818 225.046293 
L 301.396909 223.867613 
L 301.853455 222.171891 
L 302.056364 221.847906 
L 302.208545 221.901489 
L 302.462182 222.368053 
L 302.817273 223.120862 
L 303.020182 222.898141 
L 303.476727 222.00788 
L 303.628909 222.101845 
L 303.882545 222.585959 
L 304.440545 224.294882 
L 305.556545 227.636625 
L 306.266727 229.044704 
L 306.926182 229.892099 
L 307.636364 230.469402 
L 307.737818 230.388638 
L 308.092909 229.231547 
L 308.498727 227.172701 
L 308.701636 226.948893 
L 308.904545 227.034316 
L 309.107455 227.226905 
L 309.208909 226.804451 
L 309.614727 224.573516 
L 309.817636 224.370055 
L 310.020545 224.546336 
L 310.274182 224.897191 
L 310.68 224.235708 
L 310.781455 224.18259 
L 311.136545 222.510011 
L 311.846727 218.609292 
L 312.049636 218.493583 
L 312.252545 218.74892 
L 312.912 219.901197 
L 313.114909 220.081361 
L 313.419273 220.763657 
L 313.47 220.887132 
L 313.520727 220.796428 
L 313.977273 218.337803 
L 314.129455 218.355664 
L 314.332364 218.774236 
L 314.788909 220.45862 
L 316.209273 225.957832 
L 316.919455 227.800481 
L 317.629636 229.03026 
L 318.339818 229.81848 
L 318.441273 229.483311 
L 319.05 225.679509 
L 319.354364 224.02417 
L 319.557273 223.828008 
L 319.658727 223.719754 
L 320.013818 222.779947 
L 320.166 222.828716 
L 320.470364 223.23098 
L 320.521091 223.158292 
L 320.774727 222.858381 
L 320.926909 222.942716 
L 321.180545 223.430403 
L 321.637091 224.657386 
L 321.687818 224.599298 
L 322.042909 223.192462 
L 322.245818 222.112251 
L 322.651636 219.894363 
L 322.854545 219.60144 
L 322.905273 219.598955 
L 322.956 219.441777 
L 323.463273 214.628121 
L 323.716909 214.167925 
L 323.869091 214.226013 
L 324.122727 214.623772 
L 324.528545 215.407178 
L 324.579273 215.367573 
L 324.832909 215.227479 
L 325.188 215.279199 
L 325.492364 214.635732 
L 325.695273 213.427852 
L 326.151818 208.868291 
L 326.557636 203.166859 
L 326.862 201.755673 
L 327.064909 201.539631 
L 327.267818 201.645555 
L 327.572182 202.175798 
L 328.028727 203.068234 
L 328.231636 202.887914 
L 328.485273 201.712962 
L 328.789636 200.630732 
L 328.941818 200.64471 
L 329.144727 201.090773 
L 329.550545 202.822682 
L 329.804182 203.815917 
L 329.905636 203.534954 
L 330.260727 202.296478 
L 330.412909 202.283587 
L 330.565091 202.356274 
L 330.920182 202.06304 
L 331.123091 202.426631 
L 331.478182 203.754257 
L 332.340545 207.35786 
L 332.492727 207.522182 
L 332.746364 208.277475 
L 333.253636 210.712959 
L 333.963818 214.062001 
L 334.369636 214.82273 
L 334.420364 214.720844 
L 334.927636 213.400672 
L 335.029091 213.255298 
L 335.587091 211.574487 
L 335.840727 211.332507 
L 336.043636 211.530223 
L 336.348 212.199316 
L 336.449455 212.101313 
L 336.652364 211.984051 
L 336.804545 212.16903 
L 337.108909 213.076842 
L 337.768364 216.093512 
L 338.427818 218.907962 
L 338.58 218.543905 
L 338.935091 217.626153 
L 339.138 217.572259 
L 339.340909 217.825421 
L 339.696 218.753113 
L 339.898909 219.319079 
L 339.949636 219.258661 
L 340.203273 218.862921 
L 340.355455 218.955799 
L 340.609091 219.504213 
L 341.167091 221.426849 
L 342.435273 225.782793 
L 342.587455 225.88002 
L 343.044 225.45741 
L 343.500545 223.81931 
L 343.652727 223.812632 
L 343.906364 224.140811 
L 344.413636 225.331139 
L 345.478909 227.823312 
L 345.580364 227.581643 
L 345.935455 226.597883 
L 346.138364 226.551444 
L 346.392 226.775096 
L 347.051455 227.790696 
L 347.152909 227.610998 
L 347.558727 226.72757 
L 347.761636 226.740927 
L 348.066 227.083706 
L 348.319636 227.4167 
L 348.725455 226.056302 
L 348.877636 226.068572 
L 349.131273 226.407778 
L 350.145818 228.440842 
L 350.247273 228.348585 
L 350.348727 228.072902 
L 350.500909 226.47301 
L 350.805273 223.887493 
L 351.008182 223.393904 
L 351.160364 223.398564 
L 351.363273 223.697854 
L 351.819818 224.937573 
L 352.428545 226.706137 
L 352.479273 226.686412 
L 352.631455 225.852219 
L 352.935818 224.328741 
L 353.138727 224.161623 
L 353.341636 224.382946 
L 353.747455 225.353194 
L 355.066364 228.775234 
L 355.725818 229.841156 
L 356.436 230.565231 
L 357.247636 231.056024 
L 358.211455 231.393522 
L 358.312909 231.330309 
L 358.566545 230.620367 
L 359.073818 227.306892 
L 359.276727 227.062117 
L 359.479636 227.125796 
L 359.784 227.521381 
L 360.747818 229.249874 
L 360.798545 229.185574 
L 361.001455 228.468177 
L 361.762364 224.882747 
L 361.965273 224.831649 
L 362.168182 225.061048 
L 362.574 225.962026 
L 362.827636 226.350312 
L 363.537818 225.699389 
L 363.842182 225.291534 
L 364.045091 225.360028 
L 364.450909 225.634313 
L 364.704545 225.52171 
L 364.907455 224.462622 
L 365.211818 222.248306 
L 365.414727 221.99561 
L 365.566909 222.181521 
L 365.871273 223.030313 
L 366.530727 225.459118 
L 366.581455 225.383014 
L 366.835091 224.717337 
L 366.987273 224.774959 
L 367.240909 225.296815 
L 367.748182 226.417252 
L 368.103273 226.279954 
L 368.356909 226.5151 
L 368.813455 227.378803 
L 369.219273 228.163451 
L 369.27 228.129126 
L 369.828 227.568442 
L 370.081636 227.742238 
L 370.538182 228.411488 
L 371.146909 229.381736 
L 371.197636 229.321319 
L 371.704909 228.407139 
L 371.958545 228.493493 
L 372.009273 228.53139 
L 372.06 228.451093 
L 372.415091 226.951067 
L 372.719455 225.525903 
L 372.922364 225.36127 
L 373.125273 225.574827 
L 373.531091 226.5078 
L 373.581818 226.644166 
L 373.581818 226.644166 
" style="fill:none;stroke:#800080;stroke-linecap:square;stroke-width:1.5;"/>
   </g>
   <g id="line2d_18">
    <path clip-path="url(#p366b69664c)" d="M 322.81228 213.171429 
L 373.429662 213.171429 
L 373.429662 213.171429 
" style="fill:none;stroke:#000000;stroke-linecap:square;stroke-width:1.5;"/>
   </g>
   <g id="line2d_19">
    <path clip-path="url(#p366b69664c)" d="M 322.81228 189.874286 
L 322.81228 188.321143 
L 322.81228 186.768 
L 322.81228 185.214857 
L 322.81228 183.661714 
L 322.81228 182.108571 
L 322.81228 180.555429 
L 322.81228 179.002286 
L 322.81228 177.449143 
L 322.81228 175.896 
L 322.81228 174.342857 
L 322.81228 172.789714 
L 322.81228 171.236571 
L 322.81228 169.683429 
L 322.81228 168.130286 
L 322.81228 166.577143 
L 322.81228 165.024 
L 322.81228 163.470857 
L 322.81228 161.917714 
L 322.81228 160.364571 
" style="fill:none;stroke:#000000;stroke-linecap:square;stroke-width:1.5;"/>
   </g>
   <g id="patch_3">
    <path d="M 54 252 
L 54 34.56 
" style="fill:none;stroke:#000000;stroke-linecap:square;stroke-linejoin:miter;stroke-width:0.8;"/>
   </g>
   <g id="patch_4">
    <path d="M 54 252 
L 388.8 252 
" style="fill:none;stroke:#000000;stroke-linecap:square;stroke-linejoin:miter;stroke-width:0.8;"/>
   </g>
   <g id="text_18">
    <!-- 500 ms -->
    <g transform="translate(322.81228 211.618286)scale(0.1 -0.1)">
     <use xlink:href="#DejaVuSans-35"/>
     <use x="63.623047" xlink:href="#DejaVuSans-30"/>
     <use x="127.246094" xlink:href="#DejaVuSans-30"/>
     <use x="190.869141" xlink:href="#DejaVuSans-20"/>
     <use x="222.65625" xlink:href="#DejaVuSans-6d"/>
     <use x="320.068359" xlink:href="#DejaVuSans-73"/>
    </g>
   </g>
   <g id="text_19">
    <!-- 20 mV -->
    <g transform="translate(327.884162 158.811429)scale(0.1 -0.1)">
     <use xlink:href="#DejaVuSans-32"/>
     <use x="63.623047" xlink:href="#DejaVuSans-30"/>
     <use x="127.246094" xlink:href="#DejaVuSans-20"/>
     <use x="159.033203" xlink:href="#DejaVuSans-6d"/>
     <use x="256.445312" xlink:href="#DejaVuSans-56"/>
    </g>
   </g>
  </g>
 </g>
 <defs>
  <clipPath id="p366b69664c">
   <rect height="217.44" width="334.8" x="54" y="34.56"/>
  </clipPath>
 </defs>
</svg>
