<?xml version="1.0" encoding="utf-8" standalone="no"?>
<!DOCTYPE svg PUBLIC "-//W3C//DTD SVG 1.1//EN"
  "http://www.w3.org/Graphics/SVG/1.1/DTD/svg11.dtd">
<svg height="288pt" version="1.1" viewBox="0 0 432 288" width="432pt" xmlns="http://www.w3.org/2000/svg" xmlns:xlink="http://www.w3.org/1999/xlink">
 <metadata>
  <rdf:RDF xmlns:cc="http://creativecommons.org/ns#" xmlns:dc="http://purl.org/dc/elements/1.1/" xmlns:rdf="http://www.w3.org/1999/02/22-rdf-syntax-ns#">
   <cc:Work>
    <dc:type rdf:resource="http://purl.org/dc/dcmitype/StillImage"/>
    <dc:date>2021-09-03T12:01:55.658521</dc:date>
    <dc:format>image/svg+xml</dc:format>
    <dc:creator>
     <cc:Agent>
      <dc:title>Matplotlib v3.4.1, https://matplotlib.org/</dc:title>
     </cc:Agent>
    </dc:creator>
   </cc:Work>
  </rdf:RDF>
 </metadata>
 <defs>
  <style type="text/css">*{stroke-linecap:butt;stroke-linejoin:round;}</style>
 </defs>
 <g id="figure_1">
  <g id="patch_1">
   <path d="M 0 288 
L 432 288 
L 432 0 
L 0 0 
z
" style="fill:none;"/>
  </g>
  <g id="axes_1">
   <g id="patch_2">
    <path d="M 54 252 
L 388.8 252 
L 388.8 34.56 
L 54 34.56 
z
" style="fill:#ffffff;"/>
   </g>
   <g id="matplotlib.axis_1">
    <g id="xtick_1">
     <g id="line2d_1">
      <defs>
       <path d="M 0 0 
L 0 3.5 
" id="me966a9cd6a" style="stroke:#000000;stroke-width:0.8;"/>
      </defs>
      <g>
       <use style="stroke:#000000;stroke-width:0.8;" x="69.218182" xlink:href="#me966a9cd6a" y="252"/>
      </g>
     </g>
     <g id="text_1">
      <!-- 0 -->
      <g transform="translate(66.036932 266.598437)scale(0.1 -0.1)">
       <defs>
        <path d="M 2034 4250 
Q 1547 4250 1301 3770 
Q 1056 3291 1056 2328 
Q 1056 1369 1301 889 
Q 1547 409 2034 409 
Q 2525 409 2770 889 
Q 3016 1369 3016 2328 
Q 3016 3291 2770 3770 
Q 2525 4250 2034 4250 
z
M 2034 4750 
Q 2819 4750 3233 4129 
Q 3647 3509 3647 2328 
Q 3647 1150 3233 529 
Q 2819 -91 2034 -91 
Q 1250 -91 836 529 
Q 422 1150 422 2328 
Q 422 3509 836 4129 
Q 1250 4750 2034 4750 
z
" id="DejaVuSans-30" transform="scale(0.015625)"/>
       </defs>
       <use xlink:href="#DejaVuSans-30"/>
      </g>
     </g>
    </g>
    <g id="xtick_2">
     <g id="line2d_2">
      <g>
       <use style="stroke:#000000;stroke-width:0.8;" x="119.937001" xlink:href="#me966a9cd6a" y="252"/>
      </g>
     </g>
     <g id="text_2">
      <!-- 500 -->
      <g transform="translate(110.393251 266.598437)scale(0.1 -0.1)">
       <defs>
        <path d="M 691 4666 
L 3169 4666 
L 3169 4134 
L 1269 4134 
L 1269 2991 
Q 1406 3038 1543 3061 
Q 1681 3084 1819 3084 
Q 2600 3084 3056 2656 
Q 3513 2228 3513 1497 
Q 3513 744 3044 326 
Q 2575 -91 1722 -91 
Q 1428 -91 1123 -41 
Q 819 9 494 109 
L 494 744 
Q 775 591 1075 516 
Q 1375 441 1709 441 
Q 2250 441 2565 725 
Q 2881 1009 2881 1497 
Q 2881 1984 2565 2268 
Q 2250 2553 1709 2553 
Q 1456 2553 1204 2497 
Q 953 2441 691 2322 
L 691 4666 
z
" id="DejaVuSans-35" transform="scale(0.015625)"/>
       </defs>
       <use xlink:href="#DejaVuSans-35"/>
       <use x="63.623047" xlink:href="#DejaVuSans-30"/>
       <use x="127.246094" xlink:href="#DejaVuSans-30"/>
      </g>
     </g>
    </g>
    <g id="xtick_3">
     <g id="line2d_3">
      <g>
       <use style="stroke:#000000;stroke-width:0.8;" x="170.655821" xlink:href="#me966a9cd6a" y="252"/>
      </g>
     </g>
     <g id="text_3">
      <!-- 1000 -->
      <g transform="translate(157.930821 266.598437)scale(0.1 -0.1)">
       <defs>
        <path d="M 794 531 
L 1825 531 
L 1825 4091 
L 703 3866 
L 703 4441 
L 1819 4666 
L 2450 4666 
L 2450 531 
L 3481 531 
L 3481 0 
L 794 0 
L 794 531 
z
" id="DejaVuSans-31" transform="scale(0.015625)"/>
       </defs>
       <use xlink:href="#DejaVuSans-31"/>
       <use x="63.623047" xlink:href="#DejaVuSans-30"/>
       <use x="127.246094" xlink:href="#DejaVuSans-30"/>
       <use x="190.869141" xlink:href="#DejaVuSans-30"/>
      </g>
     </g>
    </g>
    <g id="xtick_4">
     <g id="line2d_4">
      <g>
       <use style="stroke:#000000;stroke-width:0.8;" x="221.374641" xlink:href="#me966a9cd6a" y="252"/>
      </g>
     </g>
     <g id="text_4">
      <!-- 1500 -->
      <g transform="translate(208.649641 266.598437)scale(0.1 -0.1)">
       <use xlink:href="#DejaVuSans-31"/>
       <use x="63.623047" xlink:href="#DejaVuSans-35"/>
       <use x="127.246094" xlink:href="#DejaVuSans-30"/>
       <use x="190.869141" xlink:href="#DejaVuSans-30"/>
      </g>
     </g>
    </g>
    <g id="xtick_5">
     <g id="line2d_5">
      <g>
       <use style="stroke:#000000;stroke-width:0.8;" x="272.09346" xlink:href="#me966a9cd6a" y="252"/>
      </g>
     </g>
     <g id="text_5">
      <!-- 2000 -->
      <g transform="translate(259.36846 266.598437)scale(0.1 -0.1)">
       <defs>
        <path d="M 1228 531 
L 3431 531 
L 3431 0 
L 469 0 
L 469 531 
Q 828 903 1448 1529 
Q 2069 2156 2228 2338 
Q 2531 2678 2651 2914 
Q 2772 3150 2772 3378 
Q 2772 3750 2511 3984 
Q 2250 4219 1831 4219 
Q 1534 4219 1204 4116 
Q 875 4013 500 3803 
L 500 4441 
Q 881 4594 1212 4672 
Q 1544 4750 1819 4750 
Q 2544 4750 2975 4387 
Q 3406 4025 3406 3419 
Q 3406 3131 3298 2873 
Q 3191 2616 2906 2266 
Q 2828 2175 2409 1742 
Q 1991 1309 1228 531 
z
" id="DejaVuSans-32" transform="scale(0.015625)"/>
       </defs>
       <use xlink:href="#DejaVuSans-32"/>
       <use x="63.623047" xlink:href="#DejaVuSans-30"/>
       <use x="127.246094" xlink:href="#DejaVuSans-30"/>
       <use x="190.869141" xlink:href="#DejaVuSans-30"/>
      </g>
     </g>
    </g>
    <g id="xtick_6">
     <g id="line2d_6">
      <g>
       <use style="stroke:#000000;stroke-width:0.8;" x="322.81228" xlink:href="#me966a9cd6a" y="252"/>
      </g>
     </g>
     <g id="text_6">
      <!-- 2500 -->
      <g transform="translate(310.08728 266.598437)scale(0.1 -0.1)">
       <use xlink:href="#DejaVuSans-32"/>
       <use x="63.623047" xlink:href="#DejaVuSans-35"/>
       <use x="127.246094" xlink:href="#DejaVuSans-30"/>
       <use x="190.869141" xlink:href="#DejaVuSans-30"/>
      </g>
     </g>
    </g>
    <g id="xtick_7">
     <g id="line2d_7">
      <g>
       <use style="stroke:#000000;stroke-width:0.8;" x="373.531099" xlink:href="#me966a9cd6a" y="252"/>
      </g>
     </g>
     <g id="text_7">
      <!-- 3000 -->
      <g transform="translate(360.806099 266.598437)scale(0.1 -0.1)">
       <defs>
        <path d="M 2597 2516 
Q 3050 2419 3304 2112 
Q 3559 1806 3559 1356 
Q 3559 666 3084 287 
Q 2609 -91 1734 -91 
Q 1441 -91 1130 -33 
Q 819 25 488 141 
L 488 750 
Q 750 597 1062 519 
Q 1375 441 1716 441 
Q 2309 441 2620 675 
Q 2931 909 2931 1356 
Q 2931 1769 2642 2001 
Q 2353 2234 1838 2234 
L 1294 2234 
L 1294 2753 
L 1863 2753 
Q 2328 2753 2575 2939 
Q 2822 3125 2822 3475 
Q 2822 3834 2567 4026 
Q 2313 4219 1838 4219 
Q 1578 4219 1281 4162 
Q 984 4106 628 3988 
L 628 4550 
Q 988 4650 1302 4700 
Q 1616 4750 1894 4750 
Q 2613 4750 3031 4423 
Q 3450 4097 3450 3541 
Q 3450 3153 3228 2886 
Q 3006 2619 2597 2516 
z
" id="DejaVuSans-33" transform="scale(0.015625)"/>
       </defs>
       <use xlink:href="#DejaVuSans-33"/>
       <use x="63.623047" xlink:href="#DejaVuSans-30"/>
       <use x="127.246094" xlink:href="#DejaVuSans-30"/>
       <use x="190.869141" xlink:href="#DejaVuSans-30"/>
      </g>
     </g>
    </g>
    <g id="text_8">
     <!-- Time(ms) -->
     <g transform="translate(197.789844 280.276563)scale(0.1 -0.1)">
      <defs>
       <path d="M -19 4666 
L 3928 4666 
L 3928 4134 
L 2272 4134 
L 2272 0 
L 1638 0 
L 1638 4134 
L -19 4134 
L -19 4666 
z
" id="DejaVuSans-54" transform="scale(0.015625)"/>
       <path d="M 603 3500 
L 1178 3500 
L 1178 0 
L 603 0 
L 603 3500 
z
M 603 4863 
L 1178 4863 
L 1178 4134 
L 603 4134 
L 603 4863 
z
" id="DejaVuSans-69" transform="scale(0.015625)"/>
       <path d="M 3328 2828 
Q 3544 3216 3844 3400 
Q 4144 3584 4550 3584 
Q 5097 3584 5394 3201 
Q 5691 2819 5691 2113 
L 5691 0 
L 5113 0 
L 5113 2094 
Q 5113 2597 4934 2840 
Q 4756 3084 4391 3084 
Q 3944 3084 3684 2787 
Q 3425 2491 3425 1978 
L 3425 0 
L 2847 0 
L 2847 2094 
Q 2847 2600 2669 2842 
Q 2491 3084 2119 3084 
Q 1678 3084 1418 2786 
Q 1159 2488 1159 1978 
L 1159 0 
L 581 0 
L 581 3500 
L 1159 3500 
L 1159 2956 
Q 1356 3278 1631 3431 
Q 1906 3584 2284 3584 
Q 2666 3584 2933 3390 
Q 3200 3197 3328 2828 
z
" id="DejaVuSans-6d" transform="scale(0.015625)"/>
       <path d="M 3597 1894 
L 3597 1613 
L 953 1613 
Q 991 1019 1311 708 
Q 1631 397 2203 397 
Q 2534 397 2845 478 
Q 3156 559 3463 722 
L 3463 178 
Q 3153 47 2828 -22 
Q 2503 -91 2169 -91 
Q 1331 -91 842 396 
Q 353 884 353 1716 
Q 353 2575 817 3079 
Q 1281 3584 2069 3584 
Q 2775 3584 3186 3129 
Q 3597 2675 3597 1894 
z
M 3022 2063 
Q 3016 2534 2758 2815 
Q 2500 3097 2075 3097 
Q 1594 3097 1305 2825 
Q 1016 2553 972 2059 
L 3022 2063 
z
" id="DejaVuSans-65" transform="scale(0.015625)"/>
       <path d="M 1984 4856 
Q 1566 4138 1362 3434 
Q 1159 2731 1159 2009 
Q 1159 1288 1364 580 
Q 1569 -128 1984 -844 
L 1484 -844 
Q 1016 -109 783 600 
Q 550 1309 550 2009 
Q 550 2706 781 3412 
Q 1013 4119 1484 4856 
L 1984 4856 
z
" id="DejaVuSans-28" transform="scale(0.015625)"/>
       <path d="M 2834 3397 
L 2834 2853 
Q 2591 2978 2328 3040 
Q 2066 3103 1784 3103 
Q 1356 3103 1142 2972 
Q 928 2841 928 2578 
Q 928 2378 1081 2264 
Q 1234 2150 1697 2047 
L 1894 2003 
Q 2506 1872 2764 1633 
Q 3022 1394 3022 966 
Q 3022 478 2636 193 
Q 2250 -91 1575 -91 
Q 1294 -91 989 -36 
Q 684 19 347 128 
L 347 722 
Q 666 556 975 473 
Q 1284 391 1588 391 
Q 1994 391 2212 530 
Q 2431 669 2431 922 
Q 2431 1156 2273 1281 
Q 2116 1406 1581 1522 
L 1381 1569 
Q 847 1681 609 1914 
Q 372 2147 372 2553 
Q 372 3047 722 3315 
Q 1072 3584 1716 3584 
Q 2034 3584 2315 3537 
Q 2597 3491 2834 3397 
z
" id="DejaVuSans-73" transform="scale(0.015625)"/>
       <path d="M 513 4856 
L 1013 4856 
Q 1481 4119 1714 3412 
Q 1947 2706 1947 2009 
Q 1947 1309 1714 600 
Q 1481 -109 1013 -844 
L 513 -844 
Q 928 -128 1133 580 
Q 1338 1288 1338 2009 
Q 1338 2731 1133 3434 
Q 928 4138 513 4856 
z
" id="DejaVuSans-29" transform="scale(0.015625)"/>
      </defs>
      <use xlink:href="#DejaVuSans-54"/>
      <use x="57.958984" xlink:href="#DejaVuSans-69"/>
      <use x="85.742188" xlink:href="#DejaVuSans-6d"/>
      <use x="183.154297" xlink:href="#DejaVuSans-65"/>
      <use x="244.677734" xlink:href="#DejaVuSans-28"/>
      <use x="283.691406" xlink:href="#DejaVuSans-6d"/>
      <use x="381.103516" xlink:href="#DejaVuSans-73"/>
      <use x="433.203125" xlink:href="#DejaVuSans-29"/>
     </g>
    </g>
   </g>
   <g id="matplotlib.axis_2">
    <g id="ytick_1">
     <g id="line2d_8">
      <defs>
       <path d="M 0 0 
L -3.5 0 
" id="mabc7f89c36" style="stroke:#000000;stroke-width:0.8;"/>
      </defs>
      <g>
       <use style="stroke:#000000;stroke-width:0.8;" x="54" xlink:href="#mabc7f89c36" y="252"/>
      </g>
     </g>
     <g id="text_9">
      <!-- −100 -->
      <g transform="translate(19.532812 255.799219)scale(0.1 -0.1)">
       <defs>
        <path d="M 678 2272 
L 4684 2272 
L 4684 1741 
L 678 1741 
L 678 2272 
z
" id="DejaVuSans-2212" transform="scale(0.015625)"/>
       </defs>
       <use xlink:href="#DejaVuSans-2212"/>
       <use x="83.789062" xlink:href="#DejaVuSans-31"/>
       <use x="147.412109" xlink:href="#DejaVuSans-30"/>
       <use x="211.035156" xlink:href="#DejaVuSans-30"/>
      </g>
     </g>
    </g>
    <g id="ytick_2">
     <g id="line2d_9">
      <g>
       <use style="stroke:#000000;stroke-width:0.8;" x="54" xlink:href="#mabc7f89c36" y="215.76"/>
      </g>
     </g>
     <g id="text_10">
      <!-- −95 -->
      <g transform="translate(25.895312 219.559219)scale(0.1 -0.1)">
       <defs>
        <path d="M 703 97 
L 703 672 
Q 941 559 1184 500 
Q 1428 441 1663 441 
Q 2288 441 2617 861 
Q 2947 1281 2994 2138 
Q 2813 1869 2534 1725 
Q 2256 1581 1919 1581 
Q 1219 1581 811 2004 
Q 403 2428 403 3163 
Q 403 3881 828 4315 
Q 1253 4750 1959 4750 
Q 2769 4750 3195 4129 
Q 3622 3509 3622 2328 
Q 3622 1225 3098 567 
Q 2575 -91 1691 -91 
Q 1453 -91 1209 -44 
Q 966 3 703 97 
z
M 1959 2075 
Q 2384 2075 2632 2365 
Q 2881 2656 2881 3163 
Q 2881 3666 2632 3958 
Q 2384 4250 1959 4250 
Q 1534 4250 1286 3958 
Q 1038 3666 1038 3163 
Q 1038 2656 1286 2365 
Q 1534 2075 1959 2075 
z
" id="DejaVuSans-39" transform="scale(0.015625)"/>
       </defs>
       <use xlink:href="#DejaVuSans-2212"/>
       <use x="83.789062" xlink:href="#DejaVuSans-39"/>
       <use x="147.412109" xlink:href="#DejaVuSans-35"/>
      </g>
     </g>
    </g>
    <g id="ytick_3">
     <g id="line2d_10">
      <g>
       <use style="stroke:#000000;stroke-width:0.8;" x="54" xlink:href="#mabc7f89c36" y="179.52"/>
      </g>
     </g>
     <g id="text_11">
      <!-- −90 -->
      <g transform="translate(25.895312 183.319219)scale(0.1 -0.1)">
       <use xlink:href="#DejaVuSans-2212"/>
       <use x="83.789062" xlink:href="#DejaVuSans-39"/>
       <use x="147.412109" xlink:href="#DejaVuSans-30"/>
      </g>
     </g>
    </g>
    <g id="ytick_4">
     <g id="line2d_11">
      <g>
       <use style="stroke:#000000;stroke-width:0.8;" x="54" xlink:href="#mabc7f89c36" y="143.28"/>
      </g>
     </g>
     <g id="text_12">
      <!-- −85 -->
      <g transform="translate(25.895312 147.079219)scale(0.1 -0.1)">
       <defs>
        <path d="M 2034 2216 
Q 1584 2216 1326 1975 
Q 1069 1734 1069 1313 
Q 1069 891 1326 650 
Q 1584 409 2034 409 
Q 2484 409 2743 651 
Q 3003 894 3003 1313 
Q 3003 1734 2745 1975 
Q 2488 2216 2034 2216 
z
M 1403 2484 
Q 997 2584 770 2862 
Q 544 3141 544 3541 
Q 544 4100 942 4425 
Q 1341 4750 2034 4750 
Q 2731 4750 3128 4425 
Q 3525 4100 3525 3541 
Q 3525 3141 3298 2862 
Q 3072 2584 2669 2484 
Q 3125 2378 3379 2068 
Q 3634 1759 3634 1313 
Q 3634 634 3220 271 
Q 2806 -91 2034 -91 
Q 1263 -91 848 271 
Q 434 634 434 1313 
Q 434 1759 690 2068 
Q 947 2378 1403 2484 
z
M 1172 3481 
Q 1172 3119 1398 2916 
Q 1625 2713 2034 2713 
Q 2441 2713 2670 2916 
Q 2900 3119 2900 3481 
Q 2900 3844 2670 4047 
Q 2441 4250 2034 4250 
Q 1625 4250 1398 4047 
Q 1172 3844 1172 3481 
z
" id="DejaVuSans-38" transform="scale(0.015625)"/>
       </defs>
       <use xlink:href="#DejaVuSans-2212"/>
       <use x="83.789062" xlink:href="#DejaVuSans-38"/>
       <use x="147.412109" xlink:href="#DejaVuSans-35"/>
      </g>
     </g>
    </g>
    <g id="ytick_5">
     <g id="line2d_12">
      <g>
       <use style="stroke:#000000;stroke-width:0.8;" x="54" xlink:href="#mabc7f89c36" y="107.04"/>
      </g>
     </g>
     <g id="text_13">
      <!-- −80 -->
      <g transform="translate(25.895312 110.839219)scale(0.1 -0.1)">
       <use xlink:href="#DejaVuSans-2212"/>
       <use x="83.789062" xlink:href="#DejaVuSans-38"/>
       <use x="147.412109" xlink:href="#DejaVuSans-30"/>
      </g>
     </g>
    </g>
    <g id="ytick_6">
     <g id="line2d_13">
      <g>
       <use style="stroke:#000000;stroke-width:0.8;" x="54" xlink:href="#mabc7f89c36" y="70.8"/>
      </g>
     </g>
     <g id="text_14">
      <!-- −75 -->
      <g transform="translate(25.895312 74.599219)scale(0.1 -0.1)">
       <defs>
        <path d="M 525 4666 
L 3525 4666 
L 3525 4397 
L 1831 0 
L 1172 0 
L 2766 4134 
L 525 4134 
L 525 4666 
z
" id="DejaVuSans-37" transform="scale(0.015625)"/>
       </defs>
       <use xlink:href="#DejaVuSans-2212"/>
       <use x="83.789062" xlink:href="#DejaVuSans-37"/>
       <use x="147.412109" xlink:href="#DejaVuSans-35"/>
      </g>
     </g>
    </g>
    <g id="ytick_7">
     <g id="line2d_14">
      <g>
       <use style="stroke:#000000;stroke-width:0.8;" x="54" xlink:href="#mabc7f89c36" y="34.56"/>
      </g>
     </g>
     <g id="text_15">
      <!-- −70 -->
      <g transform="translate(25.895312 38.359219)scale(0.1 -0.1)">
       <use xlink:href="#DejaVuSans-2212"/>
       <use x="83.789062" xlink:href="#DejaVuSans-37"/>
       <use x="147.412109" xlink:href="#DejaVuSans-30"/>
      </g>
     </g>
    </g>
    <g id="text_16">
     <!-- Membrane potential (mV) -->
     <g transform="translate(13.453125 207.691719)rotate(-90)scale(0.1 -0.1)">
      <defs>
       <path d="M 628 4666 
L 1569 4666 
L 2759 1491 
L 3956 4666 
L 4897 4666 
L 4897 0 
L 4281 0 
L 4281 4097 
L 3078 897 
L 2444 897 
L 1241 4097 
L 1241 0 
L 628 0 
L 628 4666 
z
" id="DejaVuSans-4d" transform="scale(0.015625)"/>
       <path d="M 3116 1747 
Q 3116 2381 2855 2742 
Q 2594 3103 2138 3103 
Q 1681 3103 1420 2742 
Q 1159 2381 1159 1747 
Q 1159 1113 1420 752 
Q 1681 391 2138 391 
Q 2594 391 2855 752 
Q 3116 1113 3116 1747 
z
M 1159 2969 
Q 1341 3281 1617 3432 
Q 1894 3584 2278 3584 
Q 2916 3584 3314 3078 
Q 3713 2572 3713 1747 
Q 3713 922 3314 415 
Q 2916 -91 2278 -91 
Q 1894 -91 1617 61 
Q 1341 213 1159 525 
L 1159 0 
L 581 0 
L 581 4863 
L 1159 4863 
L 1159 2969 
z
" id="DejaVuSans-62" transform="scale(0.015625)"/>
       <path d="M 2631 2963 
Q 2534 3019 2420 3045 
Q 2306 3072 2169 3072 
Q 1681 3072 1420 2755 
Q 1159 2438 1159 1844 
L 1159 0 
L 581 0 
L 581 3500 
L 1159 3500 
L 1159 2956 
Q 1341 3275 1631 3429 
Q 1922 3584 2338 3584 
Q 2397 3584 2469 3576 
Q 2541 3569 2628 3553 
L 2631 2963 
z
" id="DejaVuSans-72" transform="scale(0.015625)"/>
       <path d="M 2194 1759 
Q 1497 1759 1228 1600 
Q 959 1441 959 1056 
Q 959 750 1161 570 
Q 1363 391 1709 391 
Q 2188 391 2477 730 
Q 2766 1069 2766 1631 
L 2766 1759 
L 2194 1759 
z
M 3341 1997 
L 3341 0 
L 2766 0 
L 2766 531 
Q 2569 213 2275 61 
Q 1981 -91 1556 -91 
Q 1019 -91 701 211 
Q 384 513 384 1019 
Q 384 1609 779 1909 
Q 1175 2209 1959 2209 
L 2766 2209 
L 2766 2266 
Q 2766 2663 2505 2880 
Q 2244 3097 1772 3097 
Q 1472 3097 1187 3025 
Q 903 2953 641 2809 
L 641 3341 
Q 956 3463 1253 3523 
Q 1550 3584 1831 3584 
Q 2591 3584 2966 3190 
Q 3341 2797 3341 1997 
z
" id="DejaVuSans-61" transform="scale(0.015625)"/>
       <path d="M 3513 2113 
L 3513 0 
L 2938 0 
L 2938 2094 
Q 2938 2591 2744 2837 
Q 2550 3084 2163 3084 
Q 1697 3084 1428 2787 
Q 1159 2491 1159 1978 
L 1159 0 
L 581 0 
L 581 3500 
L 1159 3500 
L 1159 2956 
Q 1366 3272 1645 3428 
Q 1925 3584 2291 3584 
Q 2894 3584 3203 3211 
Q 3513 2838 3513 2113 
z
" id="DejaVuSans-6e" transform="scale(0.015625)"/>
       <path id="DejaVuSans-20" transform="scale(0.015625)"/>
       <path d="M 1159 525 
L 1159 -1331 
L 581 -1331 
L 581 3500 
L 1159 3500 
L 1159 2969 
Q 1341 3281 1617 3432 
Q 1894 3584 2278 3584 
Q 2916 3584 3314 3078 
Q 3713 2572 3713 1747 
Q 3713 922 3314 415 
Q 2916 -91 2278 -91 
Q 1894 -91 1617 61 
Q 1341 213 1159 525 
z
M 3116 1747 
Q 3116 2381 2855 2742 
Q 2594 3103 2138 3103 
Q 1681 3103 1420 2742 
Q 1159 2381 1159 1747 
Q 1159 1113 1420 752 
Q 1681 391 2138 391 
Q 2594 391 2855 752 
Q 3116 1113 3116 1747 
z
" id="DejaVuSans-70" transform="scale(0.015625)"/>
       <path d="M 1959 3097 
Q 1497 3097 1228 2736 
Q 959 2375 959 1747 
Q 959 1119 1226 758 
Q 1494 397 1959 397 
Q 2419 397 2687 759 
Q 2956 1122 2956 1747 
Q 2956 2369 2687 2733 
Q 2419 3097 1959 3097 
z
M 1959 3584 
Q 2709 3584 3137 3096 
Q 3566 2609 3566 1747 
Q 3566 888 3137 398 
Q 2709 -91 1959 -91 
Q 1206 -91 779 398 
Q 353 888 353 1747 
Q 353 2609 779 3096 
Q 1206 3584 1959 3584 
z
" id="DejaVuSans-6f" transform="scale(0.015625)"/>
       <path d="M 1172 4494 
L 1172 3500 
L 2356 3500 
L 2356 3053 
L 1172 3053 
L 1172 1153 
Q 1172 725 1289 603 
Q 1406 481 1766 481 
L 2356 481 
L 2356 0 
L 1766 0 
Q 1100 0 847 248 
Q 594 497 594 1153 
L 594 3053 
L 172 3053 
L 172 3500 
L 594 3500 
L 594 4494 
L 1172 4494 
z
" id="DejaVuSans-74" transform="scale(0.015625)"/>
       <path d="M 603 4863 
L 1178 4863 
L 1178 0 
L 603 0 
L 603 4863 
z
" id="DejaVuSans-6c" transform="scale(0.015625)"/>
       <path d="M 1831 0 
L 50 4666 
L 709 4666 
L 2188 738 
L 3669 4666 
L 4325 4666 
L 2547 0 
L 1831 0 
z
" id="DejaVuSans-56" transform="scale(0.015625)"/>
      </defs>
      <use xlink:href="#DejaVuSans-4d"/>
      <use x="86.279297" xlink:href="#DejaVuSans-65"/>
      <use x="147.802734" xlink:href="#DejaVuSans-6d"/>
      <use x="245.214844" xlink:href="#DejaVuSans-62"/>
      <use x="308.691406" xlink:href="#DejaVuSans-72"/>
      <use x="349.804688" xlink:href="#DejaVuSans-61"/>
      <use x="411.083984" xlink:href="#DejaVuSans-6e"/>
      <use x="474.462891" xlink:href="#DejaVuSans-65"/>
      <use x="535.986328" xlink:href="#DejaVuSans-20"/>
      <use x="567.773438" xlink:href="#DejaVuSans-70"/>
      <use x="631.25" xlink:href="#DejaVuSans-6f"/>
      <use x="692.431641" xlink:href="#DejaVuSans-74"/>
      <use x="731.640625" xlink:href="#DejaVuSans-65"/>
      <use x="793.164062" xlink:href="#DejaVuSans-6e"/>
      <use x="856.542969" xlink:href="#DejaVuSans-74"/>
      <use x="895.751953" xlink:href="#DejaVuSans-69"/>
      <use x="923.535156" xlink:href="#DejaVuSans-61"/>
      <use x="984.814453" xlink:href="#DejaVuSans-6c"/>
      <use x="1012.597656" xlink:href="#DejaVuSans-20"/>
      <use x="1044.384766" xlink:href="#DejaVuSans-28"/>
      <use x="1083.398438" xlink:href="#DejaVuSans-6d"/>
      <use x="1180.810547" xlink:href="#DejaVuSans-56"/>
      <use x="1249.21875" xlink:href="#DejaVuSans-29"/>
     </g>
    </g>
   </g>
   <g id="line2d_15">
    <path clip-path="url(#pfe1b88781a)" d="M 69.218182 150.528 
L 69.370364 188.053795 
L 69.421091 188.348064 
L 69.471818 188.208902 
L 69.573273 188.034226 
L 69.674727 188.342266 
L 70.587818 193.468776 
L 70.638545 193.428912 
L 70.841455 193.117973 
L 70.942909 193.23829 
L 71.145818 193.993531 
L 71.399455 194.834299 
L 71.450182 194.794435 
L 71.602364 193.028822 
L 71.805273 191.579947 
L 71.906727 191.578498 
L 72.058909 192.09383 
L 72.515455 195.008976 
L 72.819818 196.555699 
L 73.225636 196.067909 
L 73.479273 196.517285 
L 73.53 196.410739 
L 73.682182 195.66637 
L 73.885091 192.2946 
L 74.138727 189.030826 
L 74.290909 187.65733 
L 74.696727 183.579605 
L 74.747455 183.716592 
L 75.406909 187.447138 
L 76.472182 196.164307 
L 76.979455 198.278549 
L 77.334545 199.158456 
L 77.385273 199.045387 
L 78.095455 192.073536 
L 78.247636 191.67852 
L 78.552 189.637483 
L 78.653455 189.652704 
L 78.805636 190.162238 
L 79.414364 192.720058 
L 79.566545 192.865742 
L 79.870909 193.565174 
L 79.921636 193.344835 
L 80.226 187.564555 
L 80.733273 180.822466 
L 81.088364 179.822966 
L 81.139091 179.917915 
L 81.291273 180.756509 
L 81.646364 184.554461 
L 82.052182 188.731483 
L 82.356545 189.098232 
L 82.660909 190.55508 
L 82.762364 190.175285 
L 82.965273 189.320021 
L 83.066727 189.396125 
L 83.269636 190.205002 
L 84.233455 195.359779 
L 84.284182 195.247435 
L 84.385636 194.518286 
L 84.791455 187.936378 
L 84.943636 187.567454 
L 85.045091 187.736333 
L 85.298727 188.990237 
L 85.349455 189.294653 
L 85.400182 189.229421 
L 85.653818 188.174837 
L 85.755273 188.360386 
L 86.008909 189.694742 
L 86.617636 193.599965 
L 86.719091 192.098904 
L 87.175636 182.858429 
L 87.48 179.890373 
L 87.733636 179.606251 
L 87.885818 180.162898 
L 87.987273 180.631843 
L 88.038 180.541243 
L 88.139455 180.349171 
L 88.190182 180.385411 
L 88.342364 180.971774 
L 88.393091 180.832613 
L 88.545273 180.340474 
L 88.596 180.400632 
L 88.646727 180.374539 
L 89.255455 177.70945 
L 89.762727 170.312866 
L 89.864182 170.477395 
L 90.117818 171.36455 
L 90.371455 174.091973 
L 90.574364 175.455322 
L 90.726545 176.221435 
L 91.030909 179.75701 
L 91.842545 189.3954 
L 91.893273 189.454109 
L 91.944 189.401923 
L 92.146909 189.19463 
L 92.299091 189.425842 
L 92.603455 190.603642 
L 93.313636 193.632581 
L 93.770182 191.677795 
L 93.922364 191.815507 
L 94.226727 192.697589 
L 94.886182 194.958965 
L 94.936909 194.943019 
L 95.190545 193.974686 
L 95.342727 193.52676 
L 95.596364 188.940226 
L 95.748545 188.517667 
L 95.85 188.698867 
L 95.900727 188.872094 
L 95.951455 188.809037 
L 96.103636 186.724512 
L 96.357273 183.984043 
L 96.458727 183.88837 
L 96.610909 184.41385 
L 96.966 187.091261 
L 97.726909 192.801235 
L 98.234182 195.061886 
L 98.437091 195.677966 
L 98.538545 194.473349 
L 98.792182 192.028598 
L 98.893636 191.919154 
L 98.944364 191.959742 
L 99.147273 192.485947 
L 100.415455 196.762992 
L 100.973455 197.661744 
L 101.531455 198.171278 
L 101.785091 196.018622 
L 102.190909 190.321694 
L 102.292364 189.687494 
L 102.546 188.011032 
L 102.647455 188.063942 
L 102.850364 188.750328 
L 102.901091 188.632186 
L 103.104 188.03785 
L 103.205455 188.158891 
L 103.408364 189.011256 
L 104.778 196.365802 
L 105.285273 197.574768 
L 105.843273 198.330734 
L 106.502727 198.840269 
L 107.415818 199.270075 
L 107.466545 199.238184 
L 107.669455 197.948765 
L 107.973818 196.565846 
L 108.176727 196.430309 
L 108.328909 196.514386 
L 108.481091 195.972235 
L 108.785455 195.061886 
L 108.937636 195.087254 
L 109.191273 195.582293 
L 109.242 195.71928 
L 109.292727 195.676517 
L 110.053636 188.307475 
L 110.155091 187.990738 
L 110.205818 188.003059 
L 110.358 188.516218 
L 110.763818 191.402371 
L 111.423273 195.760594 
L 111.930545 197.732774 
L 112.133455 198.235061 
L 112.184182 198.18505 
L 112.539273 196.407115 
L 112.995818 194.14139 
L 113.148 194.164584 
L 113.350909 194.426237 
L 113.503091 192.679469 
L 113.807455 189.824482 
L 113.908909 189.64908 
L 113.959636 189.672274 
L 114.111818 190.068014 
L 114.416182 191.550955 
L 114.466909 191.39005 
L 114.720545 190.448534 
L 114.771273 190.405771 
L 114.923455 188.523466 
L 115.38 183.177341 
L 115.582909 182.904816 
L 115.887273 181.09644 
L 115.938 181.109486 
L 116.090182 181.707446 
L 116.394545 184.425446 
L 117.307636 193.057814 
L 117.409091 193.606488 
L 117.459818 193.562275 
L 117.865636 192.027874 
L 118.220727 187.562381 
L 118.525091 186.65783 
L 118.626545 186.729586 
L 118.829455 187.450037 
L 119.286 190.491298 
L 119.996182 194.835749 
L 120.097636 195.115522 
L 120.706364 190.186157 
L 121.112182 184.179014 
L 121.213636 184.049275 
L 121.315091 184.311653 
L 121.568727 186.004786 
L 122.380364 192.67657 
L 122.583273 190.206451 
L 123.039818 184.499376 
L 123.242727 183.689774 
L 123.344182 183.912288 
L 123.597818 185.549611 
L 124.460182 192.697589 
L 124.510909 192.476525 
L 125.068909 190.014379 
L 125.170364 190.039022 
L 125.373273 190.546382 
L 125.779091 192.320693 
L 125.880545 192.148915 
L 126.134182 191.664749 
L 126.286364 191.67997 
L 126.438545 191.332066 
L 126.641455 188.799614 
L 126.844364 187.529765 
L 126.945818 187.533389 
L 126.996545 187.641384 
L 127.047273 187.605869 
L 127.503818 184.856702 
L 127.656 185.270563 
L 127.960364 187.235496 
L 128.924182 194.039194 
L 129.076364 194.657448 
L 129.177818 193.325266 
L 129.532909 187.452211 
L 129.735818 186.836131 
L 129.837273 187.030378 
L 129.989455 187.445688 
L 130.040182 187.38408 
L 130.243091 187.162291 
L 130.395273 187.525416 
L 130.496727 187.964645 
L 130.547455 187.841429 
L 130.801091 186.492576 
L 130.902545 186.604195 
L 131.105455 187.591373 
L 132.12 194.25011 
L 132.475091 191.158114 
L 132.576545 191.240016 
L 132.678 191.419042 
L 132.728727 191.379902 
L 133.033091 190.951546 
L 133.185273 191.061715 
L 133.540364 190.294877 
L 133.591091 190.329667 
L 133.743273 190.654378 
L 134.098364 192.182256 
L 134.301273 193.190453 
L 134.352 192.969389 
L 134.656364 191.360333 
L 134.757818 191.402371 
L 134.960727 191.984386 
L 135.569455 194.770517 
L 135.620182 194.713258 
L 135.975273 189.667925 
L 136.279636 186.255566 
L 136.381091 186.18816 
L 136.533273 186.710741 
L 136.888364 189.23087 
L 137.649273 194.464651 
L 138.105818 196.235338 
L 138.207273 195.997603 
L 138.613091 194.7408 
L 138.765273 194.70456 
L 139.069636 194.961139 
L 139.120364 194.832125 
L 139.526182 193.675344 
L 139.627636 193.570973 
L 140.084182 192.00323 
L 140.287091 192.114125 
L 140.439273 191.24364 
L 140.946545 187.372483 
L 141.098727 187.049947 
L 141.200182 187.126051 
L 141.352364 186.556358 
L 141.758182 184.449365 
L 141.808909 184.53779 
L 142.011818 185.558309 
L 142.316182 187.325371 
L 142.468364 185.945352 
L 142.823455 183.467261 
L 142.975636 183.099062 
L 143.077091 183.271565 
L 143.229273 183.714418 
L 143.28 183.615845 
L 143.432182 183.466536 
L 143.584364 183.889819 
L 143.838 185.058197 
L 143.888727 184.969771 
L 144.142364 184.408051 
L 144.243818 184.512422 
L 144.446727 185.332896 
L 144.598909 185.722114 
L 144.801818 185.734435 
L 144.954 186.154819 
L 145.258364 187.887816 
L 145.410545 188.748154 
L 145.461273 188.558981 
L 145.917818 185.729362 
L 146.019273 185.801117 
L 146.222182 186.540413 
L 146.628 189.017779 
L 146.729455 188.838754 
L 146.932364 188.532163 
L 147.033818 188.573477 
L 147.388909 186.69552 
L 147.439636 186.746981 
L 147.591818 187.255066 
L 147.997636 188.878618 
L 148.251273 189.193906 
L 148.657091 187.627613 
L 148.707818 187.697194 
L 148.758545 187.618915 
L 149.062909 186.159893 
L 149.164364 186.267163 
L 149.367273 187.131125 
L 149.874545 189.507019 
L 150.026727 189.507744 
L 150.381818 186.854976 
L 150.432545 186.873821 
L 150.584727 187.324646 
L 150.838364 188.287181 
L 150.889091 188.257464 
L 151.193455 187.955947 
L 151.447091 187.340592 
L 151.548545 187.342042 
L 151.65 186.143222 
L 152.106545 179.782378 
L 152.157273 179.722944 
L 152.208 179.785277 
L 152.360182 180.538344 
L 152.715273 183.999264 
L 153.476182 191.330616 
L 153.679091 192.674395 
L 153.729818 192.648302 
L 154.034182 191.123323 
L 154.135636 191.097955 
L 154.287818 191.368306 
L 154.642909 192.707011 
L 154.947273 193.74565 
L 155.099455 193.303522 
L 155.454545 188.444462 
L 155.556 188.356762 
L 155.708182 188.753227 
L 156.063273 190.731206 
L 156.164727 191.311046 
L 156.215455 191.288578 
L 156.418364 189.305525 
L 156.672 187.829832 
L 156.773455 187.81896 
L 156.925636 188.222674 
L 157.128545 188.86847 
L 157.179273 188.81701 
L 157.382182 188.656104 
L 157.534364 188.918482 
L 157.838727 190.2108 
L 158.650364 194.197925 
L 159.005455 191.985835 
L 159.106909 191.542982 
L 159.918545 184.885694 
L 160.02 184.999488 
L 160.222909 185.968546 
L 161.744727 195.551126 
L 162.201273 196.754294 
L 162.252 196.644125 
L 162.708545 189.285955 
L 162.860727 188.653205 
L 163.266545 180.889147 
L 163.520182 180.058526 
L 163.621636 180.309307 
L 164.230364 183.244747 
L 164.281091 183.179515 
L 164.433273 182.94323 
L 164.534727 183.195461 
L 164.788364 184.924109 
L 165.498545 191.058091 
L 165.549273 190.9356 
L 166.005818 188.050896 
L 166.158 188.18136 
L 166.614545 184.2312 
L 166.766727 183.72384 
L 166.868182 183.944179 
L 167.121818 185.587301 
L 168.187091 193.786963 
L 168.643636 195.559099 
L 168.745091 195.24961 
L 168.998727 193.699262 
L 169.252364 187.062994 
L 169.506 183.126605 
L 169.658182 182.732314 
L 169.759636 183.003389 
L 170.013273 184.737835 
L 170.266909 186.291806 
L 170.317636 186.291806 
L 170.622 183.378835 
L 171.433636 174.37392 
L 171.585818 173.99485 
L 171.687273 174.117341 
L 171.839455 174.8994 
L 171.940909 175.540123 
L 171.991636 175.268323 
L 172.194545 172.784434 
L 172.397455 171.40224 
L 172.701818 172.190822 
L 172.904727 173.816549 
L 173.056909 174.785606 
L 173.259818 173.313538 
L 173.462727 172.231411 
L 173.564182 172.408987 
L 173.665636 171.653021 
L 173.919273 166.51129 
L 174.223636 160.247568 
L 174.274364 160.159867 
L 174.325091 160.293955 
L 174.477273 161.723261 
L 174.883091 166.463453 
L 174.933818 166.52941 
L 175.086 166.206874 
L 175.288909 166.817155 
L 175.339636 166.748299 
L 175.491818 166.167734 
L 175.542545 166.180781 
L 175.644 166.596816 
L 175.897636 169.347432 
L 176.049818 170.640475 
L 176.100545 170.576693 
L 176.151273 170.47812 
L 176.506364 166.355458 
L 176.557091 166.49317 
L 177.115091 170.239661 
L 177.571636 174.86461 
L 177.774545 175.411834 
L 177.876 175.403861 
L 178.180364 168.397944 
L 178.434 165.613987 
L 178.484727 165.631382 
L 178.586182 165.972763 
L 178.890545 163.960718 
L 178.992 164.233968 
L 179.144182 164.46373 
L 179.194909 164.407195 
L 179.296364 164.251363 
L 179.347091 164.310797 
L 179.448545 164.53476 
L 179.651455 162.327019 
L 179.752909 161.089786 
L 180.158727 154.706472 
L 180.209455 154.591954 
L 180.260182 154.654286 
L 180.615273 156.510499 
L 180.970364 160.35049 
L 181.021091 160.243219 
L 181.122545 160.034477 
L 181.173273 160.104782 
L 181.325455 160.380931 
L 181.426909 160.603445 
L 181.579091 161.787768 
L 181.934182 167.331763 
L 182.187818 170.002651 
L 182.34 170.081654 
L 182.441455 170.241835 
L 182.593636 171.141312 
L 182.796545 173.198294 
L 182.847273 173.172926 
L 182.999455 171.834946 
L 183.253091 169.390195 
L 183.303818 169.385846 
L 183.405273 169.772165 
L 183.608182 171.56532 
L 183.709636 171.321787 
L 183.760364 171.251482 
L 183.811091 171.356578 
L 183.861818 171.464573 
L 183.963273 170.343307 
L 184.216909 167.589792 
L 184.419818 166.823678 
L 184.521273 167.154912 
L 184.927091 170.69556 
L 185.383636 174.600782 
L 185.738727 171.289896 
L 185.789455 171.315989 
L 185.941636 172.078478 
L 186.601091 176.881728 
L 187.311273 178.519776 
L 187.514182 178.428451 
L 187.564909 178.481362 
L 187.615636 178.326254 
L 187.717091 175.923542 
L 187.970727 170.107022 
L 188.528727 166.306171 
L 188.680909 166.500418 
L 188.731636 166.32864 
L 189.289636 159.2256 
L 189.441818 160.121453 
L 189.746182 162.316872 
L 190.202727 167.122296 
L 190.253455 167.254934 
L 190.304182 167.129544 
L 190.507091 165.635006 
L 190.557818 165.672696 
L 190.608545 165.852446 
L 190.659273 165.691541 
L 190.811455 165.00588 
L 190.912909 165.434962 
L 190.963636 165.251587 
L 191.065091 164.33544 
L 191.420182 159.468408 
L 191.521636 159.755429 
L 191.673818 160.760726 
L 191.724545 160.739707 
L 191.978182 160.245394 
L 192.079636 160.589674 
L 192.282545 162.4872 
L 192.739091 168.82775 
L 192.789818 168.653798 
L 193.043455 167.958715 
L 193.144909 168.152237 
L 193.195636 168.292123 
L 193.246364 168.147163 
L 193.347818 167.425262 
L 193.601455 164.2086 
L 193.652182 164.15424 
L 193.702909 164.260061 
L 193.855091 165.326242 
L 194.159455 168.12397 
L 194.210182 168.052214 
L 194.311636 167.797085 
L 194.362364 167.815205 
L 194.514545 168.567547 
L 194.666727 168.9198 
L 194.717455 168.934296 
L 194.768182 168.787886 
L 195.478364 161.604394 
L 195.529091 161.662378 
L 195.579818 161.852275 
L 195.630545 161.632661 
L 195.782727 160.678099 
L 195.884182 161.114429 
L 196.036364 161.784144 
L 196.188545 161.731958 
L 196.29 161.09196 
L 196.492909 155.769029 
L 196.797273 147.46717 
L 196.949455 146.765563 
L 197.101636 147.690408 
L 197.253818 146.727874 
L 197.355273 146.989526 
L 197.406 146.939515 
L 197.507455 146.698882 
L 197.659636 145.420334 
L 197.710364 145.493539 
L 197.811818 145.964659 
L 197.862545 145.940741 
L 197.964 145.682712 
L 198.014727 145.733448 
L 198.116182 146.390117 
L 198.369818 150.625123 
L 198.978545 160.063469 
L 199.282909 164.428214 
L 199.333636 163.955645 
L 199.587273 161.411597 
L 199.688727 160.382381 
L 199.891636 158.234074 
L 200.043818 157.93908 
L 200.094545 157.968797 
L 200.196 158.257992 
L 200.246727 158.166667 
L 200.348182 158.01011 
L 200.449636 158.394254 
L 200.855455 160.83973 
L 200.956909 160.670126 
L 201.007636 160.732459 
L 201.514909 162.208152 
L 201.920727 164.563027 
L 202.275818 169.315541 
L 202.630909 173.185248 
L 202.681636 173.307739 
L 202.732364 173.264976 
L 202.935273 171.226838 
L 203.188909 168.191376 
L 204.000545 154.798522 
L 204.152727 153.128582 
L 205.015091 138.490522 
L 205.065818 138.37093 
L 205.116545 138.444859 
L 205.319455 139.677744 
L 205.573091 143.355379 
L 206.029636 154.752134 
L 206.435455 163.403347 
L 206.739818 166.496069 
L 206.993455 167.370178 
L 207.247091 169.558349 
L 208.160182 179.573635 
L 208.210909 179.543194 
L 208.464545 178.404533 
L 208.819636 175.271947 
L 208.870364 175.308912 
L 209.022545 175.936589 
L 209.326909 177.499258 
L 209.631273 177.83629 
L 209.682 177.682632 
L 209.884909 175.569115 
L 210.189273 171.417461 
L 210.290727 171.279024 
L 210.392182 171.608083 
L 210.645818 173.711453 
L 210.747273 174.313037 
L 210.798 174.242006 
L 211.000909 172.130664 
L 211.305273 168.336336 
L 211.609636 167.475274 
L 211.660364 167.498467 
L 211.914 168.484195 
L 212.015455 168.292848 
L 212.116909 168.231965 
L 212.269091 168.4668 
L 212.421273 167.481072 
L 212.624182 165.357408 
L 212.674909 165.318269 
L 212.776364 165.720533 
L 213.03 168.497242 
L 213.435818 173.099722 
L 213.638727 173.565043 
L 213.689455 173.561419 
L 213.841636 172.746744 
L 214.044545 168.964013 
L 214.348909 164.991384 
L 214.653273 163.559179 
L 214.704 163.577299 
L 214.754727 163.596144 
L 214.906909 163.244616 
L 214.957636 163.315646 
L 215.160545 164.191205 
L 216.175091 150.838214 
L 216.682364 142.302245 
L 216.733091 142.147862 
L 216.783818 142.165982 
L 217.189636 143.864189 
L 217.443273 148.405061 
L 217.849091 155.387784 
L 218.457818 163.958544 
L 218.711455 165.195778 
L 218.965091 166.116998 
L 219.928909 156.952627 
L 219.979636 156.98017 
L 220.131818 157.77745 
L 220.334727 159.584376 
L 220.385455 159.40825 
L 220.436182 159.320549 
L 220.486909 159.424195 
L 220.588364 159.521318 
L 220.689818 158.809565 
L 221.602909 151.54127 
L 221.653636 151.424578 
L 221.704364 151.473864 
L 221.856545 152.518301 
L 222.262364 156.12853 
L 222.516 157.954301 
L 222.566727 157.771651 
L 222.718909 157.464336 
L 222.820364 157.839058 
L 223.023273 159.889517 
L 223.530545 168.524784 
L 224.240727 179.53812 
L 224.291455 179.840362 
L 224.342182 179.643941 
L 224.849455 174.211565 
L 224.950909 174.310138 
L 225.153818 175.354574 
L 225.610364 179.581608 
L 226.371273 186.144672 
L 226.929273 189.119976 
L 227.233636 190.06439 
L 227.385818 189.573701 
L 227.690182 188.774246 
L 227.842364 188.808312 
L 228.096 189.288854 
L 228.603273 190.819632 
L 228.654 190.679021 
L 228.856909 187.772573 
L 229.110545 184.492128 
L 229.262727 184.204382 
L 229.414909 184.585627 
L 229.77 186.602746 
L 230.429455 190.596394 
L 230.480182 190.542034 
L 230.886 185.767051 
L 231.291818 177.794976 
L 231.494727 176.349 
L 231.646909 175.627824 
L 231.748364 175.84309 
L 232.255636 178.010242 
L 232.813636 182.370638 
L 232.965818 182.85263 
L 233.270182 184.948027 
L 234.183273 191.743752 
L 234.386182 192.733104 
L 234.436909 192.63743 
L 234.842727 190.726133 
L 234.944182 190.762373 
L 235.147091 191.214648 
L 236.263091 195.006077 
L 236.313818 194.935046 
L 236.618182 189.561379 
L 236.871818 187.096334 
L 237.024 186.796267 
L 237.125455 186.938328 
L 237.328364 187.74793 
L 237.480545 188.311099 
L 237.784909 187.194182 
L 237.937091 187.576877 
L 238.292182 189.613565 
L 238.444364 190.610165 
L 238.748727 187.684872 
L 238.850182 187.880568 
L 239.002364 188.59957 
L 239.053091 188.57855 
L 239.205273 185.167642 
L 239.408182 182.94468 
L 239.458909 182.913514 
L 239.560364 183.21648 
L 239.814 185.121979 
L 240.777818 193.082458 
L 241.285091 195.348907 
L 241.792364 196.647749 
L 242.198182 197.218891 
L 243.263455 191.559653 
L 243.364909 191.055192 
L 244.125818 184.632014 
L 244.328727 183.830386 
L 244.430182 183.965198 
L 244.633091 185.055298 
L 245.038909 187.798666 
L 245.394 184.072469 
L 245.495455 184.192786 
L 245.698364 185.293757 
L 246.154909 188.874269 
L 246.205636 188.648131 
L 246.408545 187.924056 
L 246.51 188.119027 
L 246.763636 189.405547 
L 247.727455 194.832125 
L 247.879636 195.392395 
L 247.930364 195.301795 
L 248.285455 192.98171 
L 248.437636 192.949819 
L 248.640545 193.393397 
L 249.097091 194.871264 
L 249.147818 194.639328 
L 249.452182 193.306421 
L 249.655091 192.913579 
L 250.010182 191.421941 
L 250.111636 191.430638 
L 250.263818 191.73143 
L 250.618909 193.12812 
L 250.720364 193.36223 
L 250.872545 191.306698 
L 251.176909 187.818235 
L 251.430545 186.282384 
L 251.532 186.286008 
L 251.684182 186.80279 
L 251.988545 188.461858 
L 252.039273 188.202379 
L 252.242182 187.571078 
L 252.343636 187.625438 
L 252.597273 185.939554 
L 252.698727 186.039576 
L 252.901636 187.097059 
L 253.611818 191.953944 
L 253.662545 191.84305 
L 254.169818 189.653429 
L 254.220545 189.691843 
L 254.423455 190.078886 
L 254.474182 190.022352 
L 254.727818 189.633859 
L 254.88 189.808536 
L 255.133636 190.71816 
L 255.235091 191.07911 
L 255.285818 191.007355 
L 255.590182 190.331117 
L 255.742364 190.565227 
L 256.046727 191.755349 
L 257.010545 195.88381 
L 257.314909 196.67964 
L 257.416364 196.20707 
L 257.771455 194.151538 
L 257.923636 194.03267 
L 258.075818 194.210246 
L 258.228 194.511038 
L 258.430909 192.119198 
L 259.141091 183.00049 
L 259.344 181.275466 
L 259.394727 181.283438 
L 259.546909 181.982146 
L 259.902 185.51917 
L 260.662909 192.915029 
L 261.170182 195.746098 
L 261.677455 197.329786 
L 261.931091 197.794382 
L 261.981818 197.744371 
L 262.184727 196.852867 
L 262.489091 195.848294 
L 262.539818 195.795384 
L 262.641273 194.802408 
L 262.894909 192.240965 
L 263.047091 192.001056 
L 263.199273 192.31127 
L 263.605091 194.081957 
L 264.264545 196.752845 
L 264.315273 196.907227 
L 264.366 196.796333 
L 264.873273 190.484774 
L 264.974727 190.57465 
L 265.126909 190.812384 
L 265.431273 190.306474 
L 265.583455 190.608715 
L 265.887818 191.613288 
L 265.938545 191.521238 
L 266.141455 191.229144 
L 266.242909 191.326267 
L 266.445818 191.959742 
L 267.612545 197.165256 
L 267.663273 196.913026 
L 268.018364 194.680642 
L 268.170545 194.582069 
L 268.322727 194.811106 
L 268.525636 195.37645 
L 268.576364 195.251784 
L 268.931455 193.296274 
L 268.982182 193.268731 
L 269.388 190.95372 
L 269.489455 191.09868 
L 269.743091 192.156163 
L 270.351818 195.299621 
L 270.706909 193.286126 
L 270.808364 193.357882 
L 271.011273 193.953667 
L 271.975091 197.719728 
L 272.025818 197.667542 
L 272.380909 194.192126 
L 273.141818 180.289738 
L 273.192545 180.320179 
L 273.243273 180.3354 
L 273.446182 178.52485 
L 273.496909 178.55964 
L 273.649091 179.545368 
L 274.054909 184.725514 
L 274.714364 192.306197 
L 274.866545 193.121597 
L 275.170909 191.730706 
L 275.424545 190.241242 
L 275.678182 187.977691 
L 275.779636 187.816786 
L 275.830364 187.864622 
L 275.982545 188.37923 
L 276.388364 190.78919 
L 276.439091 190.22747 
L 276.743455 186.951374 
L 276.844909 186.864398 
L 276.997091 187.34639 
L 277.352182 189.799114 
L 278.062364 194.563224 
L 278.163818 194.278378 
L 278.417455 193.562275 
L 278.569636 193.641278 
L 278.823273 194.282726 
L 279.99 197.830622 
L 280.446545 198.549624 
L 280.548 198.354653 
L 280.700182 197.42111 
L 281.156727 190.82543 
L 281.308909 190.608715 
L 281.461091 190.913856 
L 281.765455 192.301123 
L 282.069818 189.227246 
L 282.171273 189.43164 
L 282.424909 190.887763 
L 283.185818 195.757694 
L 283.236545 195.777989 
L 283.540909 193.813056 
L 283.642364 193.764494 
L 283.743818 193.909454 
L 284.149636 191.751 
L 284.200364 191.796662 
L 284.403273 192.415642 
L 284.809091 194.365354 
L 284.859818 194.14429 
L 285.417818 191.08056 
L 285.519273 190.950821 
L 285.57 190.978363 
L 285.722182 191.349461 
L 286.077273 193.115798 
L 286.381636 194.565398 
L 286.787455 193.431811 
L 286.838182 193.49052 
L 287.041091 194.037744 
L 287.396182 195.401818 
L 287.446909 195.342384 
L 287.852727 194.055139 
L 288.004909 194.229816 
L 288.309273 195.160459 
L 288.410727 195.419938 
L 288.461455 195.344558 
L 288.867273 194.326214 
L 289.019455 194.469725 
L 289.323818 195.285125 
L 289.983273 197.305142 
L 290.084727 196.807205 
L 290.592 192.562051 
L 290.744182 192.567125 
L 290.947091 193.107826 
L 291.302182 194.611786 
L 291.352909 194.582794 
L 291.961636 191.82493 
L 292.266 189.203328 
L 292.367455 189.038798 
L 292.418182 189.07069 
L 292.570364 189.511368 
L 292.925455 191.600966 
L 293.179091 192.936048 
L 293.280545 192.304747 
L 293.838545 185.632238 
L 293.94 185.703269 
L 294.142909 186.728136 
L 294.751636 190.481875 
L 294.954545 190.735555 
L 295.614 182.13073 
L 295.664727 182.197411 
L 295.715455 182.135078 
L 295.918364 181.634966 
L 296.019818 181.461014 
L 296.222727 180.683304 
L 296.425636 179.345323 
L 296.476364 179.365618 
L 296.628545 180.106363 
L 296.780727 181.116734 
L 296.932909 180.285389 
L 296.983636 180.314381 
L 297.135818 181.181966 
L 297.592364 186.229474 
L 298.201091 192.069912 
L 298.708364 194.964038 
L 299.215636 196.592664 
L 299.621455 197.288472 
L 299.773636 196.649923 
L 300.128727 195.280051 
L 300.230182 195.057538 
L 300.991091 189.995534 
L 301.092545 189.981038 
L 301.244727 190.367357 
L 301.447636 191.140718 
L 301.498364 190.98851 
L 301.752 190.154266 
L 301.802727 190.114402 
L 301.904182 189.285955 
L 302.411455 177.758736 
L 302.665091 173.720875 
L 302.715818 173.559245 
L 302.766545 173.579539 
L 302.918727 174.476117 
L 303.933273 183.726739 
L 304.440545 186.376608 
L 305.556545 194.32259 
L 306.063818 196.175179 
L 306.571091 197.245709 
L 306.875455 197.662469 
L 306.976909 197.00725 
L 307.281273 194.624107 
L 307.484182 194.283451 
L 307.585636 194.353757 
L 307.687091 193.714483 
L 307.991455 191.830003 
L 308.092909 191.672722 
L 308.600182 186.768725 
L 308.853818 184.205832 
L 308.904545 184.146398 
L 308.955273 184.192786 
L 309.107455 184.810315 
L 309.208909 185.475682 
L 309.259636 185.433643 
L 309.462545 184.863226 
L 309.564 185.069794 
L 309.766909 186.265714 
L 310.223455 189.119251 
L 310.274182 189.026477 
L 310.832182 184.693622 
L 310.933636 184.751606 
L 311.035091 183.658608 
L 311.288727 180.670982 
L 311.390182 180.558638 
L 311.542364 181.224005 
L 311.897455 184.663906 
L 312.658364 192.06049 
L 313.165636 194.953891 
L 313.419273 195.771466 
L 313.571455 194.886485 
L 313.825091 193.749274 
L 313.977273 193.705786 
L 314.180182 194.066011 
L 315.245455 196.955064 
L 315.296182 196.77169 
L 315.752727 194.602363 
L 315.904909 194.627731 
L 316.158545 195.110448 
L 317.274545 197.747995 
L 317.426727 195.651149 
L 317.731091 191.932925 
L 317.934 191.490797 
L 318.086182 191.772744 
L 318.289091 192.514939 
L 318.339818 192.309821 
L 318.644182 190.613064 
L 318.745636 190.713811 
L 318.897818 191.066789 
L 318.948545 190.98996 
L 319.202182 190.41012 
L 319.557273 185.035003 
L 319.810909 181.951704 
L 319.861636 181.895894 
L 319.912364 181.966925 
L 320.064545 182.744635 
L 320.419636 185.181413 
L 320.470364 185.169091 
L 320.571818 185.279261 
L 320.724 185.935205 
L 321.028364 187.58195 
L 321.129818 186.438216 
L 321.586364 179.149627 
L 321.637091 179.118461 
L 321.687818 179.214859 
L 321.84 180.094766 
L 322.245818 184.494302 
L 322.956 191.736504 
L 323.463273 194.782838 
L 323.970545 196.507862 
L 324.427091 197.381971 
L 324.528545 196.672392 
L 325.441636 185.016158 
L 325.593818 184.410226 
L 325.695273 184.600848 
L 325.898182 185.821411 
L 326.202545 187.671826 
L 326.963455 187.589923 
L 327.064909 187.307976 
L 327.572182 184.854528 
L 327.673636 184.663906 
L 327.724364 184.687824 
L 327.825818 184.837858 
L 328.688182 171.936418 
L 328.738909 172.031366 
L 328.891091 173.243232 
L 329.652 182.115509 
L 329.702727 182.057525 
L 329.956364 181.62192 
L 330.412909 177.431126 
L 330.463636 177.52825 
L 330.615818 178.366118 
L 330.920182 179.98967 
L 331.173818 181.53277 
L 331.376727 182.875824 
L 331.427455 182.846107 
L 331.528909 182.81639 
L 331.681091 183.277363 
L 331.985455 185.411899 
L 332.239091 187.321747 
L 332.289818 187.098509 
L 332.442 184.401528 
L 332.695636 181.140653 
L 333.050727 178.828541 
L 333.101455 178.784328 
L 333.304364 177.447072 
L 333.355091 177.453595 
L 333.507273 178.170422 
L 333.862364 181.867627 
L 334.471091 188.214701 
L 334.572545 188.25239 
L 334.674 187.984939 
L 334.876909 186.112781 
L 335.181273 182.45544 
L 335.434909 179.057578 
L 335.536364 178.852459 
L 335.587091 178.930013 
L 335.739273 179.692502 
L 336.398727 184.007237 
L 336.601636 184.965422 
L 337.413273 190.547107 
L 337.464 190.181808 
L 337.666909 186.816562 
L 338.275636 177.117288 
L 338.326364 177.045533 
L 338.377091 177.107866 
L 338.478545 177.233981 
L 338.529273 177.194117 
L 338.630727 177.231806 
L 338.732182 177.567389 
L 338.782909 177.456494 
L 339.138 174.742118 
L 339.188727 174.876206 
L 339.391636 176.451922 
L 340.051091 182.791022 
L 340.101818 182.922211 
L 340.355455 181.934309 
L 340.406182 181.950254 
L 340.558364 182.487331 
L 340.913455 185.295931 
L 341.217818 187.50947 
L 341.268545 187.447862 
L 341.522182 183.728914 
L 342.080182 172.126315 
L 342.232364 171.18335 
L 342.283091 171.197122 
L 342.435273 172.000925 
L 343.449818 180.532546 
L 343.500545 180.520949 
L 343.652727 179.288789 
L 343.804909 178.643717 
L 343.906364 178.595155 
L 344.210727 178.110264 
L 344.362909 177.739891 
L 344.464364 177.94356 
L 344.667273 179.259072 
L 345.377455 186.686098 
L 345.884727 190.733381 
L 345.935455 190.684094 
L 346.290545 189.43164 
L 346.392 189.514267 
L 346.493455 189.671549 
L 346.544182 189.583848 
L 346.899273 188.640883 
L 347.051455 188.873544 
L 347.355818 190.044821 
L 347.609455 191.163912 
L 347.660182 191.127672 
L 348.167455 189.422218 
L 348.674727 184.565333 
L 348.776182 184.439942 
L 348.877636 184.653034 
L 349.029818 185.199533 
L 349.080545 185.15677 
L 349.283455 184.965422 
L 349.435636 185.348842 
L 349.74 187.086912 
L 350.145818 189.712862 
L 350.196545 189.538186 
L 350.703818 186.785395 
L 350.856 187.07459 
L 351.109636 187.98349 
L 351.667636 184.752331 
L 351.769091 184.888594 
L 351.972 185.755454 
L 352.631455 190.311547 
L 353.138727 193.070136 
L 353.240182 193.07521 
L 353.290909 192.920102 
L 353.747455 188.353862 
L 353.848909 188.34589 
L 354.051818 188.835854 
L 354.609818 183.791246 
L 354.660545 183.883296 
L 354.863455 184.898016 
L 355.573636 190.499995 
L 355.624364 190.26516 
L 356.283818 182.827262 
L 356.436 183.358541 
L 356.537455 183.724565 
L 356.689636 182.36629 
L 357.044727 177.862382 
L 357.146182 177.560141 
L 357.196909 177.643493 
L 357.349091 178.563264 
L 357.552 179.762083 
L 357.653455 179.857032 
L 357.805636 180.477461 
L 358.11 183.107035 
L 358.972364 191.021126 
L 359.124545 191.15159 
L 359.378182 191.122598 
L 359.581091 191.445134 
L 359.986909 192.721507 
L 360.697091 194.925624 
L 360.849273 194.570472 
L 361.204364 193.705786 
L 361.356545 193.716658 
L 361.559455 193.969613 
L 361.660909 193.140442 
L 362.066727 188.077714 
L 362.218909 187.861723 
L 362.371091 188.233546 
L 362.726182 190.111502 
L 363.537818 194.373326 
L 363.892909 195.554026 
L 363.943636 195.48372 
L 364.349455 192.904882 
L 364.552364 191.53501 
L 365.364 177.968928 
L 365.465455 178.176946 
L 365.871273 180.024461 
L 365.972727 179.734541 
L 366.378545 176.975227 
L 366.48 176.855635 
L 366.530727 176.91072 
L 366.682909 177.593482 
L 366.987273 180.59053 
L 367.951091 190.974014 
L 368.154 191.766221 
L 368.306182 191.621986 
L 368.356909 191.451658 
L 368.813455 184.252219 
L 368.914909 184.298606 
L 369.117818 185.294482 
L 369.320727 185.786621 
L 369.472909 185.86055 
L 369.726545 185.738784 
L 369.878727 186.101184 
L 370.030909 186.78757 
L 370.081636 186.720888 
L 370.335273 185.795318 
L 370.436727 185.926507 
L 370.538182 186.164242 
L 370.588909 186.118579 
L 370.842545 185.429294 
L 371.197636 183.631066 
L 371.502 181.052952 
L 371.603455 180.765931 
L 371.806364 179.920814 
L 371.907818 180.067224 
L 372.110727 181.280539 
L 373.074545 189.071414 
L 373.176 188.40025 
L 373.581818 183.535392 
L 373.581818 183.535392 
" style="fill:none;stroke:#000000;stroke-linecap:square;stroke-width:1.5;"/>
   </g>
   <g id="line2d_16">
    <path clip-path="url(#pfe1b88781a)" d="M 69.218182 150.528 
L 69.370364 188.053795 
L 69.421091 188.348064 
L 69.471818 188.208902 
L 69.573273 188.034226 
L 69.674727 188.342266 
L 70.587818 193.468776 
L 70.638545 193.428912 
L 70.841455 193.117973 
L 70.942909 193.23829 
L 71.145818 193.993531 
L 71.399455 194.834299 
L 71.450182 194.794435 
L 71.602364 193.028822 
L 71.805273 191.579947 
L 71.906727 191.578498 
L 72.058909 192.09383 
L 72.515455 195.008976 
L 72.819818 196.555699 
L 73.225636 196.067909 
L 73.479273 196.517285 
L 73.53 196.410739 
L 73.682182 195.66637 
L 73.885091 192.2946 
L 74.138727 189.030826 
L 74.290909 187.65733 
L 74.696727 183.579605 
L 74.747455 183.716592 
L 75.406909 187.447138 
L 76.421455 195.841046 
L 76.928727 198.035741 
L 77.334545 199.040314 
L 77.385273 198.922171 
L 78.095455 191.87784 
L 78.247636 191.466878 
L 78.552 189.393226 
L 78.653455 189.397574 
L 78.805636 189.892613 
L 79.414364 192.398971 
L 79.566545 192.532334 
L 79.870909 193.207848 
L 79.921636 192.983885 
L 80.226 187.16664 
L 80.733273 180.351346 
L 81.088364 179.306184 
L 81.139091 179.395334 
L 81.291273 180.217258 
L 81.646364 183.988392 
L 82.052182 188.150194 
L 82.356545 188.502446 
L 82.660909 189.945523 
L 82.762364 189.561379 
L 82.965273 188.691619 
L 83.066727 188.7612 
L 83.269636 189.55848 
L 84.233455 194.684266 
L 84.284182 194.569747 
L 84.385636 193.835525 
L 84.791455 187.20433 
L 84.943636 186.818011 
L 85.045091 186.976742 
L 85.248 187.902312 
L 85.349455 188.514043 
L 85.400182 188.445912 
L 85.653818 187.371034 
L 85.755273 187.550059 
L 86.008909 188.872819 
L 86.617636 192.770794 
L 86.719091 191.264659 
L 87.175636 181.954603 
L 87.530727 178.829266 
L 87.733636 178.580659 
L 87.835091 178.853184 
L 87.987273 179.556965 
L 88.038 179.456942 
L 88.139455 179.244576 
L 88.190182 179.271394 
L 88.342364 179.830939 
L 88.393091 179.68308 
L 88.545273 179.161224 
L 88.596 179.21196 
L 88.646727 179.17717 
L 89.255455 176.387414 
L 89.813455 168.821952 
L 89.864182 168.966187 
L 90.067091 169.497466 
L 90.27 171.190598 
L 90.574364 173.812925 
L 90.726545 174.560918 
L 91.030909 178.079098 
L 91.842545 187.762426 
L 91.893273 187.823309 
L 91.944 187.771848 
L 92.146909 187.561656 
L 92.299091 187.787794 
L 92.603455 188.956896 
L 93.313636 191.977138 
L 93.770182 189.975965 
L 93.922364 190.099181 
L 94.176 190.784842 
L 94.886182 193.197701 
L 94.936909 193.179581 
L 95.190545 192.190229 
L 95.342727 191.725632 
L 95.596364 187.07604 
L 95.748545 186.62159 
L 95.85 186.785395 
L 95.900727 186.951374 
L 95.951455 186.880344 
L 96.103636 184.761029 
L 96.357273 181.944456 
L 96.458727 181.825589 
L 96.610909 182.322802 
L 96.966 184.970496 
L 97.777636 191.002282 
L 98.284909 193.184654 
L 98.437091 193.642003 
L 98.538545 192.433762 
L 98.792182 189.949872 
L 98.893636 189.823032 
L 98.944364 189.856373 
L 99.147273 190.353586 
L 100.466182 194.623382 
L 101.024182 195.435158 
L 101.531455 195.838872 
L 101.785091 193.636205 
L 102.190909 187.778371 
L 102.292364 187.108656 
L 102.546 185.335795 
L 102.647455 185.356814 
L 102.850364 185.996813 
L 102.901091 185.867074 
L 103.104 185.222726 
L 103.205455 185.322024 
L 103.408364 186.145397 
L 104.879455 193.836974 
L 105.386727 194.932147 
L 105.944727 195.607661 
L 106.654909 196.079506 
L 107.466545 196.35203 
L 107.669455 195.035794 
L 107.973818 193.595616 
L 108.176727 193.429637 
L 108.328909 193.496318 
L 108.481091 192.932424 
L 108.785455 191.970614 
L 108.937636 191.977138 
L 109.140545 192.325766 
L 109.242 192.58597 
L 109.292727 192.540307 
L 110.053636 184.944403 
L 110.205818 184.5936 
L 110.358 185.069069 
L 110.713091 187.518168 
L 111.423273 192.303298 
L 111.930545 194.30447 
L 112.133455 194.812555 
L 112.184182 194.761819 
L 112.539273 192.931699 
L 112.995818 190.542758 
L 113.148 190.531886 
L 113.350909 190.758749 
L 113.503091 188.961245 
L 113.807455 185.967096 
L 113.959636 185.759803 
L 114.111818 186.114955 
L 114.416182 187.557307 
L 114.466909 187.389154 
L 114.720545 186.395453 
L 114.771273 186.344717 
L 114.923455 184.413125 
L 115.38 178.830715 
L 115.582909 178.473389 
L 115.938 176.509906 
L 116.039455 176.792578 
L 116.293091 178.710398 
L 117.409091 189.19463 
L 117.459818 189.162739 
L 117.865636 187.653706 
L 118.271455 182.814216 
L 118.525091 182.067672 
L 118.626545 182.114784 
L 118.778727 182.567784 
L 119.083091 184.381958 
L 120.046909 190.603642 
L 120.097636 190.663075 
L 120.706364 185.66413 
L 121.112182 179.415629 
L 121.213636 179.237328 
L 121.264364 179.306909 
L 121.416545 179.980248 
L 121.822364 183.39623 
L 122.380364 187.871146 
L 122.583273 185.37276 
L 123.039818 179.438822 
L 123.242727 178.52195 
L 123.344182 178.7046 
L 123.547091 179.8824 
L 124.460182 187.56383 
L 124.561636 187.07604 
L 125.119636 184.813939 
L 125.271818 185.021232 
L 125.525455 185.962022 
L 125.779091 187.11373 
L 125.829818 187.076765 
L 126.134182 186.433867 
L 126.286364 186.438216 
L 126.438545 186.070742 
L 126.641455 183.466536 
L 126.844364 182.111885 
L 126.945818 182.084342 
L 126.996545 182.178566 
L 127.047273 182.131454 
L 127.503818 179.178619 
L 127.554545 179.236603 
L 127.706727 179.784552 
L 128.061818 182.300333 
L 128.924182 188.534338 
L 129.076364 189.201154 
L 129.177818 187.874045 
L 129.532909 181.834286 
L 129.735818 181.13268 
L 129.837273 181.296485 
L 129.989455 181.680629 
L 130.040182 181.608149 
L 130.243091 181.339973 
L 130.395273 181.682803 
L 130.496727 182.117683 
L 130.547455 181.990843 
L 130.801091 180.582557 
L 130.902545 180.676781 
L 131.105455 181.655986 
L 132.12 188.587973 
L 132.170727 188.057419 
L 132.424364 185.55251 
L 132.525818 185.479306 
L 132.678 185.730086 
L 132.728727 185.689498 
L 133.033091 185.236498 
L 133.185273 185.33652 
L 133.540364 184.502275 
L 133.591091 184.527643 
L 133.743273 184.832059 
L 134.098364 186.353414 
L 134.301273 187.379006 
L 134.352 187.157942 
L 134.656364 185.493077 
L 134.757818 185.520619 
L 134.960727 186.087413 
L 135.569455 188.922106 
L 135.620182 188.869195 
L 135.924545 184.398629 
L 136.330364 179.931686 
L 136.431818 180.007066 
L 136.634727 180.966701 
L 138.105818 190.193405 
L 138.207273 189.970166 
L 138.613091 188.693069 
L 138.765273 188.644507 
L 138.968182 188.872094 
L 139.069636 188.888765 
L 139.729091 186.887592 
L 140.033455 185.752555 
L 140.185636 185.783722 
L 140.236364 185.856202 
L 140.287091 185.801117 
L 140.439273 184.891493 
L 140.946545 180.780427 
L 141.098727 180.390485 
L 141.149455 180.403531 
L 141.200182 180.432523 
L 141.352364 179.805571 
L 141.758182 177.512304 
L 141.808909 177.584784 
L 141.961091 178.242902 
L 142.316182 180.359318 
L 142.468364 178.951032 
L 142.823455 176.337403 
L 142.975636 175.913395 
L 143.077091 176.05908 
L 143.229273 176.480189 
L 143.432182 176.193168 
L 143.533636 176.401186 
L 143.838 177.787728 
L 143.888727 177.699302 
L 144.142364 177.120187 
L 144.193091 177.141931 
L 144.345273 177.54637 
L 144.598909 178.465416 
L 144.649636 178.438598 
L 144.801818 178.476288 
L 144.954 178.898122 
L 145.258364 180.670982 
L 145.410545 181.568285 
L 145.461273 181.383461 
L 145.917818 178.426277 
L 146.019273 178.471214 
L 146.171455 178.943059 
L 146.526545 181.07687 
L 146.628 181.697299 
L 146.678727 181.662509 
L 146.932364 181.220381 
L 147.033818 181.263869 
L 147.388909 179.309083 
L 147.439636 179.351846 
L 147.591818 179.846885 
L 148.048364 181.56611 
L 148.251273 181.824864 
L 149.113636 178.631395 
L 149.265818 179.045256 
L 149.570182 180.888422 
L 149.823818 182.008963 
L 150.026727 182.024184 
L 150.381818 179.28299 
L 150.432545 179.290963 
L 150.584727 179.724394 
L 150.838364 180.693451 
L 150.889091 180.66301 
L 151.193455 180.346272 
L 151.447091 179.690328 
L 151.548545 179.678731 
L 151.65 178.44947 
L 152.106545 171.722602 
L 152.157273 171.628378 
L 152.208 171.659544 
L 152.360182 172.347379 
L 152.715273 175.803226 
L 153.577636 184.342094 
L 153.729818 185.056747 
L 154.034182 183.604973 
L 154.135636 183.597 
L 154.287818 183.895618 
L 154.642909 185.323474 
L 154.947273 186.455611 
L 155.048727 186.257741 
L 155.099455 186.035227 
L 155.454545 181.016712 
L 155.556 180.894221 
L 155.708182 181.25807 
L 156.063273 183.247646 
L 156.164727 183.844157 
L 156.215455 183.827486 
L 156.418364 181.790798 
L 156.672 180.202037 
L 156.773455 180.156374 
L 156.925636 180.523848 
L 157.128545 181.146451 
L 157.432909 180.93191 
L 157.635818 181.47841 
L 158.041636 183.57888 
L 158.650364 186.649858 
L 159.056182 184.289184 
L 159.563455 180.22813 
L 159.867818 176.936813 
L 159.969273 176.814322 
L 160.070727 177.028138 
L 160.324364 178.481362 
L 161.592545 187.27681 
L 162.099818 189.017779 
L 162.201273 189.269285 
L 162.252 189.174336 
L 162.708545 181.54944 
L 162.860727 180.840586 
L 163.266545 172.587288 
L 163.520182 171.517483 
L 163.621636 171.697234 
L 164.230364 174.48119 
L 164.281091 174.410885 
L 164.433273 174.150682 
L 164.534727 174.396389 
L 164.737636 175.722048 
L 165.498545 182.719992 
L 165.549273 182.624318 
L 166.005818 179.741064 
L 166.056545 179.750486 
L 166.158 179.868629 
L 166.665273 175.399512 
L 166.766727 175.149456 
L 166.817455 175.198018 
L 166.969636 175.845264 
L 167.324727 178.814045 
L 168.085636 185.090088 
L 168.592909 187.610942 
L 168.643636 187.696469 
L 168.694364 187.613842 
L 168.948 186.312826 
L 169.049455 184.870474 
L 169.506 174.673262 
L 169.658182 174.12024 
L 169.759636 174.310138 
L 169.962545 175.519104 
L 170.266909 177.465917 
L 170.317636 177.461568 
L 170.622 174.418133 
L 171.433636 164.575349 
L 171.636545 164.034648 
L 171.738 164.247014 
L 171.940909 165.402346 
L 171.991636 165.108077 
L 172.194545 162.474878 
L 172.397455 160.918008 
L 172.701818 161.56163 
L 172.904727 163.160539 
L 173.056909 164.146992 
L 173.259818 162.639408 
L 173.462727 161.485526 
L 173.564182 161.642808 
L 173.665636 160.8564 
L 173.868545 156.83231 
L 174.274364 148.537699 
L 174.325091 148.606555 
L 174.477273 149.883653 
L 174.883091 154.483234 
L 174.933818 154.538318 
L 175.086 154.16867 
L 175.288909 154.75141 
L 175.339636 154.678205 
L 175.542545 154.066474 
L 175.644 154.475261 
L 175.846909 156.622843 
L 176.049818 158.682 
L 176.100545 158.639962 
L 176.151273 158.558784 
L 176.506364 154.365816 
L 176.557091 154.499179 
L 177.064364 157.755706 
L 177.673091 163.904909 
L 177.876 164.127422 
L 178.129636 158.204357 
L 178.383273 154.164322 
L 178.484727 153.945432 
L 178.586182 154.223755 
L 178.890545 151.93991 
L 178.992 152.139955 
L 179.144182 152.269694 
L 179.347091 151.97905 
L 179.448545 152.150827 
L 179.651455 149.780006 
L 179.803636 147.374395 
L 180.108 141.784013 
L 180.260182 141.25201 
L 180.615273 142.763218 
L 180.970364 146.501011 
L 181.021091 146.382869 
L 181.122545 146.14296 
L 181.173273 146.200219 
L 181.325455 146.456074 
L 181.426909 146.669165 
L 181.579091 147.872333 
L 181.883455 152.697326 
L 182.187818 156.664157 
L 182.542909 157.737586 
L 182.847273 160.484578 
L 182.898 160.196832 
L 183.050182 158.487754 
L 183.253091 156.839558 
L 183.303818 156.842458 
L 183.405273 157.253419 
L 183.608182 159.142248 
L 183.709636 158.942203 
L 183.760364 158.886394 
L 183.861818 159.137174 
L 183.963273 158.027506 
L 184.216909 155.164546 
L 184.419818 154.303483 
L 184.521273 154.597752 
L 184.876364 157.682501 
L 185.383636 162.383554 
L 185.738727 159.103834 
L 185.840182 159.289382 
L 186.043091 160.886842 
L 186.398182 163.77372 
L 186.753273 165.423365 
L 186.905455 165.881438 
L 187.209818 166.993282 
L 187.362 167.143315 
L 187.514182 167.154187 
L 187.564909 167.226667 
L 187.615636 167.08823 
L 187.717091 164.668123 
L 187.970727 158.574005 
L 188.528727 154.205635 
L 188.579455 154.239701 
L 188.680909 154.270142 
L 188.731636 154.058501 
L 189.289636 146.200219 
L 189.340364 146.318362 
L 189.746182 148.960258 
L 190.253455 154.007765 
L 190.304182 153.89832 
L 190.507091 152.388562 
L 190.557818 152.424077 
L 190.608545 152.606002 
L 190.659273 152.44727 
L 190.811455 151.742765 
L 190.912909 152.17692 
L 190.963636 151.993546 
L 191.065091 151.05203 
L 191.420182 145.825498 
L 191.470909 145.839269 
L 191.673818 146.948938 
L 191.775273 146.753966 
L 191.978182 146.237909 
L 192.079636 146.530003 
L 192.282545 148.39129 
L 192.739091 155.028283 
L 192.840545 154.716619 
L 193.043455 154.300584 
L 193.195636 154.702848 
L 193.246364 154.578907 
L 193.347818 153.883099 
L 193.601455 150.588883 
L 193.652182 150.522202 
L 193.702909 150.6186 
L 193.855091 151.686955 
L 194.159455 154.604275 
L 194.210182 154.55064 
L 194.311636 154.315805 
L 194.362364 154.343347 
L 194.514545 155.146426 
L 194.717455 155.590003 
L 194.768182 155.45664 
L 195.478364 147.824496 
L 195.529091 147.839717 
L 195.579818 147.994099 
L 195.782727 146.643797 
L 195.884182 147.009821 
L 196.036364 147.611405 
L 196.188545 147.468619 
L 196.29 146.756866 
L 196.492909 141.146914 
L 196.797273 132.105758 
L 196.949455 131.075093 
L 197.050909 131.462136 
L 197.101636 131.73901 
L 197.253818 130.516997 
L 197.355273 130.624267 
L 197.507455 130.101686 
L 197.710364 128.564386 
L 197.811818 128.906491 
L 197.862545 128.818066 
L 198.014727 128.414352 
L 198.116182 128.963026 
L 198.319091 132.026755 
L 198.877091 141.486845 
L 199.282909 148.033238 
L 199.333636 147.657067 
L 199.587273 145.412362 
L 199.638 145.197821 
L 199.942364 142.297171 
L 200.043818 142.145688 
L 200.094545 142.187726 
L 200.196 142.507363 
L 200.246727 142.429085 
L 200.348182 142.28485 
L 200.449636 142.686389 
L 200.855455 145.276099 
L 200.956909 145.136213 
L 201.007636 145.212317 
L 201.514909 146.877907 
L 201.920727 149.47849 
L 202.275818 154.670232 
L 202.630909 159.142248 
L 202.732364 159.353165 
L 202.884545 157.9572 
L 203.239636 153.433723 
L 203.544 146.25168 
L 203.797636 141.279552 
L 204.051273 139.228368 
L 204.507818 131.01421 
L 205.015091 120.68291 
L 205.116545 120.316162 
L 205.167273 120.375595 
L 205.319455 120.956885 
L 205.522364 123.15013 
L 205.826727 129.47111 
L 206.638364 147.82812 
L 207.45 156.185064 
L 208.160182 165.824904 
L 208.210909 165.912605 
L 208.261636 165.827803 
L 208.515273 164.780467 
L 208.768909 162.419069 
L 208.819636 162.372682 
L 208.870364 162.440813 
L 209.022545 163.169237 
L 209.377636 165.052267 
L 209.529818 165.527736 
L 209.682 166.024224 
L 209.834182 165.059515 
L 210.290727 160.128701 
L 210.392182 160.431667 
L 210.645818 162.504595 
L 210.747273 163.101106 
L 210.798 163.017029 
L 211.000909 160.74913 
L 211.305273 156.515573 
L 211.660364 155.216731 
L 211.812545 155.679154 
L 211.914 155.979946 
L 211.964727 155.858179 
L 212.116909 155.572608 
L 212.269091 155.713219 
L 212.421273 154.619496 
L 212.674909 152.19504 
L 212.776364 152.524099 
L 212.979273 154.551365 
L 213.486545 160.31135 
L 213.638727 160.657805 
L 213.689455 160.677374 
L 213.841636 159.898939 
L 214.044545 156.031406 
L 214.348909 151.739141 
L 214.704 149.937288 
L 214.754727 149.905397 
L 214.906909 149.395138 
L 214.957636 149.418331 
L 215.160545 150.159077 
L 216.022909 137.671498 
L 216.378 130.187938 
L 216.733091 124.547544 
L 216.834545 124.388813 
L 216.885273 124.45332 
L 217.037455 123.974952 
L 217.088182 124.033661 
L 217.240364 125.175946 
L 217.494 129.598675 
L 217.849091 135.324595 
L 218.559273 145.85304 
L 218.965091 149.377742 
L 219.015818 149.077675 
L 219.269455 147.196094 
L 219.523091 144.810778 
L 219.878182 141.502066 
L 219.979636 141.385373 
L 220.081091 141.765168 
L 220.334727 143.917099 
L 220.436182 143.631528 
L 220.588364 143.809104 
L 220.689818 143.069808 
L 221.704364 134.412797 
L 221.805818 134.81651 
L 222.516 140.461978 
L 222.566727 140.285126 
L 222.718909 139.985784 
L 222.820364 140.38225 
L 223.023273 142.558099 
L 223.479818 151.012166 
L 224.291455 165.629933 
L 224.342182 165.575573 
L 224.849455 160.81871 
L 224.900182 160.865098 
L 225.052364 161.484802 
L 225.356727 164.110027 
L 226.574182 175.999646 
L 227.132182 179.111938 
L 227.233636 179.377214 
L 227.284364 179.310533 
L 227.740909 178.276243 
L 227.893091 178.426277 
L 228.197455 179.209061 
L 228.603273 180.606475 
L 228.654 180.482534 
L 228.856909 177.534048 
L 229.110545 174.060082 
L 229.262727 173.683186 
L 229.364182 173.842642 
L 229.617818 175.032038 
L 230.429455 180.302784 
L 230.480182 180.275966 
L 230.886 175.404586 
L 231.291818 166.919352 
L 231.494727 165.23999 
L 231.697636 164.347037 
L 232.154182 165.597317 
L 232.458545 168.596539 
L 232.712182 170.827474 
L 232.915091 171.320338 
L 233.168727 172.969258 
L 234.386182 182.721442 
L 234.436909 182.665632 
L 234.842727 180.870302 
L 234.944182 180.927562 
L 235.147091 181.431298 
L 235.908 184.508074 
L 236.263091 185.691672 
L 236.313818 185.640211 
L 236.567455 180.994243 
L 236.871818 177.426053 
L 237.024 177.017266 
L 237.074727 177.030312 
L 237.226909 177.39851 
L 237.480545 178.390762 
L 237.784909 177.173098 
L 237.886364 177.355747 
L 238.14 178.609651 
L 238.444364 180.670982 
L 238.748727 177.683357 
L 238.850182 177.86963 
L 239.002364 178.598054 
L 239.053091 178.580659 
L 239.154545 176.397562 
L 239.408182 172.664117 
L 239.458909 172.598885 
L 239.509636 172.67064 
L 239.661818 173.4498 
L 240.118364 177.694954 
L 240.777818 183.205608 
L 241.285091 185.826485 
L 241.792364 187.393502 
L 242.198182 188.116128 
L 242.401091 186.380957 
L 242.654727 185.061821 
L 242.857636 184.602298 
L 243.162 182.311205 
L 243.314182 182.003165 
L 243.618545 179.084395 
L 243.973636 175.306013 
L 244.075091 174.927667 
L 244.328727 173.605632 
L 244.430182 173.68391 
L 244.582364 174.374645 
L 245.038909 177.536222 
L 245.089636 177.041909 
L 245.343273 173.787557 
L 245.444727 173.646221 
L 245.546182 173.923819 
L 245.799818 175.631448 
L 246.154909 178.59443 
L 246.205636 178.387862 
L 246.408545 177.699302 
L 246.51 177.919642 
L 246.763636 179.309083 
L 247.828909 185.819237 
L 247.879636 186.028704 
L 247.930364 185.966371 
L 248.336182 183.588302 
L 248.437636 183.61367 
L 248.640545 184.06667 
L 249.097091 185.62499 
L 249.147818 185.395954 
L 249.452182 184.019558 
L 249.655091 183.597 
L 250.010182 181.977072 
L 250.111636 181.957502 
L 250.263818 182.232202 
L 250.618909 183.643387 
L 250.720364 183.894893 
L 250.872545 181.791523 
L 251.176909 178.085621 
L 251.430545 176.358422 
L 251.532 176.303338 
L 251.684182 176.762136 
L 251.988545 178.405982 
L 252.039273 178.139981 
L 252.242182 177.464467 
L 252.343636 177.510854 
L 252.597273 175.730746 
L 252.698727 175.806125 
L 252.901636 176.860709 
L 253.611818 182.043029 
L 253.662545 181.94953 
L 254.169818 179.725118 
L 254.220545 179.759184 
L 254.423455 180.146952 
L 254.474182 180.088968 
L 254.778545 179.693227 
L 254.930727 179.981698 
L 255.235091 181.180517 
L 255.336545 180.953654 
L 255.590182 180.441946 
L 255.742364 180.686928 
L 256.046727 181.945906 
L 257.112 186.875995 
L 257.314909 187.468157 
L 257.365636 187.347115 
L 257.872909 184.798718 
L 258.025091 184.886419 
L 258.228 185.281435 
L 258.380182 183.484656 
L 259.394727 171.065933 
L 259.496182 171.369624 
L 259.749818 173.474443 
L 260.916545 184.874822 
L 261.423818 187.356538 
L 261.880364 188.662627 
L 261.981818 188.701042 
L 262.184727 187.824034 
L 262.489091 186.783221 
L 262.539818 186.723787 
L 262.641273 185.69892 
L 262.945636 182.779426 
L 263.047091 182.656934 
L 263.097818 182.696798 
L 263.300727 183.275914 
L 264.315273 187.72981 
L 264.366 187.634136 
L 264.873273 181.009464 
L 264.974727 181.057301 
L 265.076182 181.285613 
L 265.126909 181.251547 
L 265.431273 180.646339 
L 265.583455 180.923938 
L 265.887818 181.941557 
L 265.938545 181.849507 
L 266.141455 181.54799 
L 266.242909 181.645838 
L 266.445818 182.303957 
L 267.105273 185.84388 
L 267.612545 188.013206 
L 267.764727 186.909336 
L 268.018364 185.516995 
L 268.170545 185.406101 
L 268.322727 185.635862 
L 268.525636 186.222226 
L 268.576364 186.101909 
L 268.931455 184.065221 
L 268.982182 184.029706 
L 269.388 181.548715 
L 269.489455 181.670482 
L 269.692364 182.45689 
L 270.351818 186.075091 
L 270.402545 185.719214 
L 270.656182 184.112333 
L 270.757636 184.063046 
L 270.909818 184.381958 
L 271.315636 186.11713 
L 271.975091 188.788742 
L 272.025818 188.751053 
L 272.380909 185.185037 
L 273.192545 170.113546 
L 273.243273 170.072232 
L 273.496909 167.971037 
L 273.598364 168.426936 
L 273.852 171.189874 
L 274.815818 183.086016 
L 274.866545 183.131678 
L 275.221636 181.667582 
L 275.424545 180.39121 
L 275.678182 178.018939 
L 275.779636 177.821794 
L 275.830364 177.855134 
L 275.982545 178.348723 
L 276.388364 180.834787 
L 276.439091 180.273792 
L 276.743455 176.854186 
L 276.844909 176.73097 
L 276.946364 176.967254 
L 277.2 178.48716 
L 278.062364 184.890043 
L 278.113091 184.82916 
L 278.417455 183.989842 
L 278.569636 184.098562 
L 278.823273 184.804517 
L 280.091455 189.019229 
L 280.446545 189.657053 
L 280.497273 189.621538 
L 280.649455 189.001109 
L 280.750909 187.573978 
L 281.055273 182.244523 
L 281.258182 181.29576 
L 281.359636 181.299384 
L 281.511818 181.677005 
L 281.765455 182.867851 
L 282.069818 179.652638 
L 282.171273 179.832389 
L 282.424909 181.296485 
L 283.236545 186.51432 
L 283.591636 184.485605 
L 283.693091 184.542139 
L 283.743818 184.635638 
L 284.149636 182.350344 
L 284.200364 182.38441 
L 284.352545 182.779426 
L 284.809091 184.996589 
L 284.859818 184.779874 
L 285.417818 181.555963 
L 285.57 181.403755 
L 285.722182 181.74876 
L 286.026545 183.248371 
L 286.381636 185.095162 
L 286.787455 183.971722 
L 286.838182 184.032605 
L 287.041091 184.605197 
L 287.396182 186.062045 
L 287.446909 186.013483 
L 287.852727 184.704494 
L 288.004909 184.878446 
L 288.309273 185.846054 
L 288.410727 186.126552 
L 288.461455 186.056971 
L 288.867273 185.009635 
L 289.019455 185.150246 
L 289.323818 185.998262 
L 289.983273 188.203829 
L 290.084727 187.716763 
L 290.642727 183.180965 
L 290.744182 183.207058 
L 290.947091 183.720216 
L 291.302182 185.266939 
L 291.403636 185.043701 
L 291.708 183.907214 
L 291.758727 183.896342 
L 291.860182 183.436094 
L 292.367455 179.386637 
L 292.418182 179.398234 
L 292.570364 179.801222 
L 292.874727 181.571909 
L 293.179091 183.356366 
L 293.280545 182.738837 
L 293.838545 175.704653 
L 293.94 175.719874 
L 294.092182 176.356248 
L 294.498 179.672208 
L 294.700909 180.49703 
L 294.954545 180.851458 
L 295.614 171.684912 
L 295.664727 171.713179 
L 295.766182 171.371798 
L 296.070545 170.528856 
L 296.222727 169.821451 
L 296.425636 168.325464 
L 296.476364 168.314592 
L 296.577818 168.66757 
L 296.780727 169.993954 
L 296.831455 169.62793 
L 296.932909 169.106798 
L 296.983636 169.11912 
L 297.135818 169.971485 
L 297.541636 174.60948 
L 298.251818 182.108261 
L 298.759091 185.329997 
L 299.266364 187.215202 
L 299.621455 187.966819 
L 299.773636 187.357262 
L 300.128727 185.968546 
L 300.230182 185.73661 
L 301.041818 180.234653 
L 301.143273 180.305683 
L 301.346182 181.002941 
L 301.447636 181.343597 
L 301.853455 179.95488 
L 302.005636 177.064378 
L 302.665091 162.625637 
L 302.766545 162.331368 
L 302.868 162.692318 
L 303.070909 164.69639 
L 303.426 168.297922 
L 303.578182 168.958214 
L 305.810182 185.754005 
L 306.317455 187.45801 
L 306.824727 188.461858 
L 306.875455 188.536512 
L 306.976909 187.88999 
L 307.332 185.229974 
L 307.534909 185.019058 
L 307.585636 185.059646 
L 307.687091 184.389206 
L 307.991455 182.337298 
L 308.092909 182.137978 
L 308.600182 176.860709 
L 308.853818 174.007896 
L 308.955273 173.910773 
L 309.107455 174.442051 
L 309.208909 175.075526 
L 309.259636 175.018267 
L 309.462545 174.358699 
L 309.564 174.536275 
L 309.766909 175.727122 
L 310.223455 178.743014 
L 310.274182 178.664736 
L 310.832182 174.147058 
L 310.882909 174.162278 
L 310.933636 174.17315 
L 311.035091 173.027966 
L 311.288727 169.800432 
L 311.390182 169.613434 
L 311.491636 169.915675 
L 311.745273 171.987878 
L 312.962727 183.930408 
L 313.419273 186.104808 
L 313.571455 185.279261 
L 313.825091 184.168867 
L 313.977273 184.139875 
L 314.180182 184.531992 
L 314.839636 186.706392 
L 315.245455 187.756627 
L 315.397636 186.908611 
L 315.702 185.432918 
L 315.854182 185.340869 
L 316.006364 185.524243 
L 316.361455 186.452712 
L 317.223818 188.755402 
L 317.274545 188.773522 
L 317.426727 186.633187 
L 317.731091 182.673605 
L 317.934 182.104637 
L 318.035455 182.209008 
L 318.289091 183.030206 
L 318.339818 182.814216 
L 318.644182 180.976848 
L 318.745636 181.047154 
L 318.897818 181.375488 
L 318.948545 181.287787 
L 319.202182 180.645614 
L 319.557273 174.996523 
L 319.810909 171.596486 
L 319.861636 171.49284 
L 319.912364 171.520382 
L 320.064545 172.207493 
L 320.419636 174.600782 
L 320.470364 174.581938 
L 320.571818 174.68341 
L 320.724 175.348051 
L 321.028364 177.086122 
L 321.129818 175.934414 
L 321.586364 168.187027 
L 321.637091 168.113098 
L 321.687818 168.172531 
L 321.84 168.978509 
L 322.195091 172.79748 
L 323.057455 182.155373 
L 323.564727 185.369136 
L 324.072 187.25869 
L 324.427091 188.07119 
L 324.528545 187.38263 
L 325.543091 174.326808 
L 325.644545 174.22896 
L 325.796727 174.802277 
L 326.304 177.367344 
L 326.456182 177.428227 
L 326.709818 177.284717 
L 326.862 177.352848 
L 327.014182 177.240504 
L 327.724364 174.217363 
L 327.775091 174.305789 
L 327.825818 174.351451 
L 328.231636 166.85557 
L 328.536 161.83343 
L 328.688182 160.402675 
L 328.738909 160.434566 
L 328.891091 161.511619 
L 329.246182 166.715683 
L 329.550545 170.291846 
L 329.652 170.562197 
L 329.702727 170.521608 
L 329.956364 170.145437 
L 330.412909 165.754598 
L 330.463636 165.832877 
L 330.615818 166.640304 
L 330.920182 168.279077 
L 331.173818 169.883059 
L 331.376727 171.326136 
L 331.427455 171.315264 
L 331.528909 171.316714 
L 331.681091 171.832046 
L 331.985455 174.141984 
L 332.239091 176.254051 
L 332.289818 176.06053 
L 332.442 173.357026 
L 332.746364 169.476446 
L 333 167.41729 
L 333.101455 167.310019 
L 333.355091 165.796637 
L 333.456545 166.132219 
L 333.710182 168.386347 
L 334.572545 177.226733 
L 334.623273 177.19919 
L 334.775455 176.283043 
L 335.232 170.341858 
L 335.485636 167.58037 
L 335.536364 167.508614 
L 335.587091 167.555726 
L 335.739273 168.258782 
L 336.500182 173.159155 
L 336.855273 175.75104 
L 337.413273 179.990395 
L 337.565455 178.32408 
L 338.275636 165.947395 
L 338.377091 165.842299 
L 338.478545 165.890861 
L 338.630727 165.779242 
L 338.732182 166.061189 
L 338.782909 165.925651 
L 339.138 162.927154 
L 339.188727 163.03225 
L 339.340909 164.048419 
L 339.746727 169.240162 
L 339.949636 170.902853 
L 340.101818 171.424709 
L 340.152545 171.258005 
L 340.355455 170.504938 
L 340.456909 170.648448 
L 340.659818 171.811752 
L 341.217818 176.565715 
L 341.268545 176.534549 
L 341.522182 172.774286 
L 342.130909 159.820661 
L 342.283091 159.161818 
L 342.384545 159.473482 
L 342.587455 161.318098 
L 342.891818 163.948397 
L 342.993273 164.265859 
L 343.196182 165.993782 
L 343.500545 168.424762 
L 343.602 167.718082 
L 343.804909 166.58232 
L 343.906364 166.545355 
L 344.058545 166.478674 
L 344.109273 166.467077 
L 344.362909 165.671971 
L 344.413636 165.723432 
L 344.565818 166.409093 
L 344.870182 169.323514 
L 345.884727 179.868629 
L 345.935455 179.870078 
L 346.290545 178.809696 
L 346.442727 179.054678 
L 346.493455 179.134406 
L 346.544182 179.063376 
L 346.899273 178.157376 
L 347.051455 178.408157 
L 347.355818 179.659162 
L 347.609455 180.883349 
L 347.660182 180.864504 
L 348.167455 179.17427 
L 348.674727 174.020218 
L 348.776182 173.839742 
L 348.826909 173.889029 
L 349.029818 174.530477 
L 349.131273 174.370296 
L 349.283455 174.236933 
L 349.435636 174.605131 
L 349.74 176.399011 
L 350.145818 179.240952 
L 350.196545 179.088019 
L 350.703818 176.319283 
L 350.805273 176.464968 
L 351.008182 177.278918 
L 351.109636 177.571738 
L 351.667636 174.158654 
L 351.769091 174.265925 
L 351.972 175.110317 
L 352.479273 178.770557 
L 353.138727 182.986718 
L 353.240182 183.043978 
L 353.290909 182.90844 
L 353.747455 178.182744 
L 353.848909 178.143605 
L 354.051818 178.601678 
L 354.609818 173.155531 
L 354.660545 173.220038 
L 354.812727 173.854963 
L 355.218545 177.070176 
L 355.573636 180.024461 
L 355.624364 179.814269 
L 356.283818 172.003824 
L 356.334545 172.079203 
L 356.537455 172.820674 
L 356.689636 171.389194 
L 357.044727 166.543906 
L 357.146182 166.151064 
L 357.196909 166.198901 
L 357.349091 167.047642 
L 357.552 168.217469 
L 357.653455 168.292123 
L 357.805636 168.900955 
L 358.11 171.623304 
L 359.023091 180.520949 
L 359.226 180.634742 
L 359.428909 180.825365 
L 359.682545 181.492906 
L 360.697091 185.235048 
L 360.798545 185.079941 
L 361.204364 184.098562 
L 361.356545 184.12393 
L 361.559455 184.405877 
L 361.660909 183.569458 
L 362.117455 178.024013 
L 362.218909 177.90877 
L 362.269636 177.959506 
L 362.472545 178.652414 
L 363.030545 182.007514 
L 363.69 185.307528 
L 363.892909 186.022906 
L 363.943636 185.97217 
L 364.450909 182.690275 
L 364.603091 181.041355 
L 365.364 167.207098 
L 365.414727 167.181005 
L 365.516182 167.527459 
L 365.769818 168.511013 
L 365.871273 168.868339 
L 365.922 168.767592 
L 366.023455 168.059462 
L 366.277091 165.73068 
L 366.48 165.262459 
L 366.530727 165.287827 
L 366.682909 165.906806 
L 366.987273 168.920525 
L 368.052545 181.013088 
L 368.204727 181.255896 
L 368.306182 181.221106 
L 368.356909 181.081219 
L 368.864182 173.599109 
L 368.965636 173.799154 
L 369.371455 175.161778 
L 369.472909 175.161778 
L 369.726545 175.016093 
L 369.878727 175.381392 
L 370.030909 176.091696 
L 370.081636 176.032987 
L 370.335273 175.087848 
L 370.436727 175.219037 
L 370.538182 175.465469 
L 370.588909 175.421981 
L 370.842545 174.716026 
L 371.197636 172.828646 
L 371.502 170.046864 
L 371.603455 169.704758 
L 371.806364 168.736426 
L 371.907818 168.840072 
L 372.06 169.633003 
L 372.415091 173.124365 
L 372.922364 177.930514 
L 373.074545 178.453094 
L 373.125273 178.303786 
L 373.277455 176.20549 
L 373.531091 173.005498 
L 373.581818 172.859088 
L 373.581818 172.859088 
" style="fill:none;stroke:#800080;stroke-linecap:square;stroke-width:1.5;"/>
   </g>
   <g id="line2d_17">
    <path clip-path="url(#pfe1b88781a)" d="M 322.81228 70.8 
L 373.429662 70.8 
L 373.429662 70.8 
" style="fill:none;stroke:#000000;stroke-linecap:square;stroke-width:1.5;"/>
   </g>
   <g id="line2d_18">
    <path clip-path="url(#pfe1b88781a)" d="M 322.81228 107.04 
L 322.81228 99.792 
L 322.81228 92.544 
L 322.81228 85.296 
L 322.81228 78.048 
" style="fill:none;stroke:#000000;stroke-linecap:square;stroke-width:1.5;"/>
   </g>
   <g id="patch_3">
    <path d="M 54 252 
L 54 34.56 
" style="fill:none;stroke:#000000;stroke-linecap:square;stroke-linejoin:miter;stroke-width:0.8;"/>
   </g>
   <g id="patch_4">
    <path d="M 54 252 
L 388.8 252 
" style="fill:none;stroke:#000000;stroke-linecap:square;stroke-linejoin:miter;stroke-width:0.8;"/>
   </g>
   <g id="text_17">
    <!-- 500 ms -->
    <g transform="translate(322.81228 63.552)scale(0.1 -0.1)">
     <use xlink:href="#DejaVuSans-35"/>
     <use x="63.623047" xlink:href="#DejaVuSans-30"/>
     <use x="127.246094" xlink:href="#DejaVuSans-30"/>
     <use x="190.869141" xlink:href="#DejaVuSans-20"/>
     <use x="222.65625" xlink:href="#DejaVuSans-6d"/>
     <use x="320.068359" xlink:href="#DejaVuSans-73"/>
    </g>
   </g>
   <g id="text_18">
    <!-- 5 mV -->
    <g transform="translate(327.884162 92.544)scale(0.1 -0.1)">
     <use xlink:href="#DejaVuSans-35"/>
     <use x="63.623047" xlink:href="#DejaVuSans-20"/>
     <use x="95.410156" xlink:href="#DejaVuSans-6d"/>
     <use x="192.822266" xlink:href="#DejaVuSans-56"/>
    </g>
   </g>
  </g>
 </g>
 <defs>
  <clipPath id="pfe1b88781a">
   <rect height="217.44" width="334.8" x="54" y="34.56"/>
  </clipPath>
 </defs>
</svg>
