<?xml version="1.0" encoding="utf-8" standalone="no"?>
<!DOCTYPE svg PUBLIC "-//W3C//DTD SVG 1.1//EN"
  "http://www.w3.org/Graphics/SVG/1.1/DTD/svg11.dtd">
<svg xmlns:xlink="http://www.w3.org/1999/xlink" width="432pt" height="288pt" viewBox="0 0 432 288" xmlns="http://www.w3.org/2000/svg" version="1.1">
 <metadata>
  <rdf:RDF xmlns:dc="http://purl.org/dc/elements/1.1/" xmlns:cc="http://creativecommons.org/ns#" xmlns:rdf="http://www.w3.org/1999/02/22-rdf-syntax-ns#">
   <cc:Work>
    <dc:type rdf:resource="http://purl.org/dc/dcmitype/StillImage"/>
    <dc:date>2022-06-29T17:30:28.378697</dc:date>
    <dc:format>image/svg+xml</dc:format>
    <dc:creator>
     <cc:Agent>
      <dc:title>Matplotlib v3.5.2, https://matplotlib.org/</dc:title>
     </cc:Agent>
    </dc:creator>
   </cc:Work>
  </rdf:RDF>
 </metadata>
 <defs>
  <style type="text/css">*{stroke-linejoin: round; stroke-linecap: butt}</style>
 </defs>
 <g id="figure_1">
  <g id="patch_1">
   <path d="M 0 288 
L 432 288 
L 432 0 
L 0 0 
L 0 288 
z
" style="fill: none"/>
  </g>
  <g id="axes_1">
   <g id="patch_2">
    <path d="M 54 252 
L 388.8 252 
L 388.8 34.56 
L 54 34.56 
z
" style="fill: #ffffff"/>
   </g>
   <g id="matplotlib.axis_1">
    <g id="xtick_1">
     <g id="line2d_1">
      <defs>
       <path id="mf35ddd08a7" d="M 0 0 
L 0 3.5 
" style="stroke: #000000; stroke-width: 0.8"/>
      </defs>
      <g>
       <use xlink:href="#mf35ddd08a7" x="69.218182" y="252" style="stroke: #000000; stroke-width: 0.8"/>
      </g>
     </g>
     <g id="text_1">
      <!-- 0 -->
      <g transform="translate(66.036932 266.598437)scale(0.1 -0.1)">
       <defs>
        <path id="DejaVuSans-30" d="M 2034 4250 
Q 1547 4250 1301 3770 
Q 1056 3291 1056 2328 
Q 1056 1369 1301 889 
Q 1547 409 2034 409 
Q 2525 409 2770 889 
Q 3016 1369 3016 2328 
Q 3016 3291 2770 3770 
Q 2525 4250 2034 4250 
z
M 2034 4750 
Q 2819 4750 3233 4129 
Q 3647 3509 3647 2328 
Q 3647 1150 3233 529 
Q 2819 -91 2034 -91 
Q 1250 -91 836 529 
Q 422 1150 422 2328 
Q 422 3509 836 4129 
Q 1250 4750 2034 4750 
z
" transform="scale(0.015625)"/>
       </defs>
       <use xlink:href="#DejaVuSans-30"/>
      </g>
     </g>
    </g>
    <g id="xtick_2">
     <g id="line2d_2">
      <g>
       <use xlink:href="#mf35ddd08a7" x="119.945032" y="252" style="stroke: #000000; stroke-width: 0.8"/>
      </g>
     </g>
     <g id="text_2">
      <!-- 10000 -->
      <g transform="translate(104.038782 266.598437)scale(0.1 -0.1)">
       <defs>
        <path id="DejaVuSans-31" d="M 794 531 
L 1825 531 
L 1825 4091 
L 703 3866 
L 703 4441 
L 1819 4666 
L 2450 4666 
L 2450 531 
L 3481 531 
L 3481 0 
L 794 0 
L 794 531 
z
" transform="scale(0.015625)"/>
       </defs>
       <use xlink:href="#DejaVuSans-31"/>
       <use xlink:href="#DejaVuSans-30" x="63.623047"/>
       <use xlink:href="#DejaVuSans-30" x="127.246094"/>
       <use xlink:href="#DejaVuSans-30" x="190.869141"/>
       <use xlink:href="#DejaVuSans-30" x="254.492188"/>
      </g>
     </g>
    </g>
    <g id="xtick_3">
     <g id="line2d_3">
      <g>
       <use xlink:href="#mf35ddd08a7" x="170.671882" y="252" style="stroke: #000000; stroke-width: 0.8"/>
      </g>
     </g>
     <g id="text_3">
      <!-- 20000 -->
      <g transform="translate(154.765632 266.598437)scale(0.1 -0.1)">
       <defs>
        <path id="DejaVuSans-32" d="M 1228 531 
L 3431 531 
L 3431 0 
L 469 0 
L 469 531 
Q 828 903 1448 1529 
Q 2069 2156 2228 2338 
Q 2531 2678 2651 2914 
Q 2772 3150 2772 3378 
Q 2772 3750 2511 3984 
Q 2250 4219 1831 4219 
Q 1534 4219 1204 4116 
Q 875 4013 500 3803 
L 500 4441 
Q 881 4594 1212 4672 
Q 1544 4750 1819 4750 
Q 2544 4750 2975 4387 
Q 3406 4025 3406 3419 
Q 3406 3131 3298 2873 
Q 3191 2616 2906 2266 
Q 2828 2175 2409 1742 
Q 1991 1309 1228 531 
z
" transform="scale(0.015625)"/>
       </defs>
       <use xlink:href="#DejaVuSans-32"/>
       <use xlink:href="#DejaVuSans-30" x="63.623047"/>
       <use xlink:href="#DejaVuSans-30" x="127.246094"/>
       <use xlink:href="#DejaVuSans-30" x="190.869141"/>
       <use xlink:href="#DejaVuSans-30" x="254.492188"/>
      </g>
     </g>
    </g>
    <g id="xtick_4">
     <g id="line2d_4">
      <g>
       <use xlink:href="#mf35ddd08a7" x="221.398732" y="252" style="stroke: #000000; stroke-width: 0.8"/>
      </g>
     </g>
     <g id="text_4">
      <!-- 30000 -->
      <g transform="translate(205.492482 266.598437)scale(0.1 -0.1)">
       <defs>
        <path id="DejaVuSans-33" d="M 2597 2516 
Q 3050 2419 3304 2112 
Q 3559 1806 3559 1356 
Q 3559 666 3084 287 
Q 2609 -91 1734 -91 
Q 1441 -91 1130 -33 
Q 819 25 488 141 
L 488 750 
Q 750 597 1062 519 
Q 1375 441 1716 441 
Q 2309 441 2620 675 
Q 2931 909 2931 1356 
Q 2931 1769 2642 2001 
Q 2353 2234 1838 2234 
L 1294 2234 
L 1294 2753 
L 1863 2753 
Q 2328 2753 2575 2939 
Q 2822 3125 2822 3475 
Q 2822 3834 2567 4026 
Q 2313 4219 1838 4219 
Q 1578 4219 1281 4162 
Q 984 4106 628 3988 
L 628 4550 
Q 988 4650 1302 4700 
Q 1616 4750 1894 4750 
Q 2613 4750 3031 4423 
Q 3450 4097 3450 3541 
Q 3450 3153 3228 2886 
Q 3006 2619 2597 2516 
z
" transform="scale(0.015625)"/>
       </defs>
       <use xlink:href="#DejaVuSans-33"/>
       <use xlink:href="#DejaVuSans-30" x="63.623047"/>
       <use xlink:href="#DejaVuSans-30" x="127.246094"/>
       <use xlink:href="#DejaVuSans-30" x="190.869141"/>
       <use xlink:href="#DejaVuSans-30" x="254.492188"/>
      </g>
     </g>
    </g>
    <g id="xtick_5">
     <g id="line2d_5">
      <g>
       <use xlink:href="#mf35ddd08a7" x="272.125582" y="252" style="stroke: #000000; stroke-width: 0.8"/>
      </g>
     </g>
     <g id="text_5">
      <!-- 40000 -->
      <g transform="translate(256.219332 266.598437)scale(0.1 -0.1)">
       <defs>
        <path id="DejaVuSans-34" d="M 2419 4116 
L 825 1625 
L 2419 1625 
L 2419 4116 
z
M 2253 4666 
L 3047 4666 
L 3047 1625 
L 3713 1625 
L 3713 1100 
L 3047 1100 
L 3047 0 
L 2419 0 
L 2419 1100 
L 313 1100 
L 313 1709 
L 2253 4666 
z
" transform="scale(0.015625)"/>
       </defs>
       <use xlink:href="#DejaVuSans-34"/>
       <use xlink:href="#DejaVuSans-30" x="63.623047"/>
       <use xlink:href="#DejaVuSans-30" x="127.246094"/>
       <use xlink:href="#DejaVuSans-30" x="190.869141"/>
       <use xlink:href="#DejaVuSans-30" x="254.492188"/>
      </g>
     </g>
    </g>
    <g id="xtick_6">
     <g id="line2d_6">
      <g>
       <use xlink:href="#mf35ddd08a7" x="322.852432" y="252" style="stroke: #000000; stroke-width: 0.8"/>
      </g>
     </g>
     <g id="text_6">
      <!-- 50000 -->
      <g transform="translate(306.946182 266.598437)scale(0.1 -0.1)">
       <defs>
        <path id="DejaVuSans-35" d="M 691 4666 
L 3169 4666 
L 3169 4134 
L 1269 4134 
L 1269 2991 
Q 1406 3038 1543 3061 
Q 1681 3084 1819 3084 
Q 2600 3084 3056 2656 
Q 3513 2228 3513 1497 
Q 3513 744 3044 326 
Q 2575 -91 1722 -91 
Q 1428 -91 1123 -41 
Q 819 9 494 109 
L 494 744 
Q 775 591 1075 516 
Q 1375 441 1709 441 
Q 2250 441 2565 725 
Q 2881 1009 2881 1497 
Q 2881 1984 2565 2268 
Q 2250 2553 1709 2553 
Q 1456 2553 1204 2497 
Q 953 2441 691 2322 
L 691 4666 
z
" transform="scale(0.015625)"/>
       </defs>
       <use xlink:href="#DejaVuSans-35"/>
       <use xlink:href="#DejaVuSans-30" x="63.623047"/>
       <use xlink:href="#DejaVuSans-30" x="127.246094"/>
       <use xlink:href="#DejaVuSans-30" x="190.869141"/>
       <use xlink:href="#DejaVuSans-30" x="254.492188"/>
      </g>
     </g>
    </g>
    <g id="xtick_7">
     <g id="line2d_7">
      <g>
       <use xlink:href="#mf35ddd08a7" x="373.579282" y="252" style="stroke: #000000; stroke-width: 0.8"/>
      </g>
     </g>
     <g id="text_7">
      <!-- 60000 -->
      <g transform="translate(357.673032 266.598437)scale(0.1 -0.1)">
       <defs>
        <path id="DejaVuSans-36" d="M 2113 2584 
Q 1688 2584 1439 2293 
Q 1191 2003 1191 1497 
Q 1191 994 1439 701 
Q 1688 409 2113 409 
Q 2538 409 2786 701 
Q 3034 994 3034 1497 
Q 3034 2003 2786 2293 
Q 2538 2584 2113 2584 
z
M 3366 4563 
L 3366 3988 
Q 3128 4100 2886 4159 
Q 2644 4219 2406 4219 
Q 1781 4219 1451 3797 
Q 1122 3375 1075 2522 
Q 1259 2794 1537 2939 
Q 1816 3084 2150 3084 
Q 2853 3084 3261 2657 
Q 3669 2231 3669 1497 
Q 3669 778 3244 343 
Q 2819 -91 2113 -91 
Q 1303 -91 875 529 
Q 447 1150 447 2328 
Q 447 3434 972 4092 
Q 1497 4750 2381 4750 
Q 2619 4750 2861 4703 
Q 3103 4656 3366 4563 
z
" transform="scale(0.015625)"/>
       </defs>
       <use xlink:href="#DejaVuSans-36"/>
       <use xlink:href="#DejaVuSans-30" x="63.623047"/>
       <use xlink:href="#DejaVuSans-30" x="127.246094"/>
       <use xlink:href="#DejaVuSans-30" x="190.869141"/>
       <use xlink:href="#DejaVuSans-30" x="254.492188"/>
      </g>
     </g>
    </g>
    <g id="text_8">
     <!-- Time(ms) -->
     <g transform="translate(197.789844 280.276563)scale(0.1 -0.1)">
      <defs>
       <path id="DejaVuSans-54" d="M -19 4666 
L 3928 4666 
L 3928 4134 
L 2272 4134 
L 2272 0 
L 1638 0 
L 1638 4134 
L -19 4134 
L -19 4666 
z
" transform="scale(0.015625)"/>
       <path id="DejaVuSans-69" d="M 603 3500 
L 1178 3500 
L 1178 0 
L 603 0 
L 603 3500 
z
M 603 4863 
L 1178 4863 
L 1178 4134 
L 603 4134 
L 603 4863 
z
" transform="scale(0.015625)"/>
       <path id="DejaVuSans-6d" d="M 3328 2828 
Q 3544 3216 3844 3400 
Q 4144 3584 4550 3584 
Q 5097 3584 5394 3201 
Q 5691 2819 5691 2113 
L 5691 0 
L 5113 0 
L 5113 2094 
Q 5113 2597 4934 2840 
Q 4756 3084 4391 3084 
Q 3944 3084 3684 2787 
Q 3425 2491 3425 1978 
L 3425 0 
L 2847 0 
L 2847 2094 
Q 2847 2600 2669 2842 
Q 2491 3084 2119 3084 
Q 1678 3084 1418 2786 
Q 1159 2488 1159 1978 
L 1159 0 
L 581 0 
L 581 3500 
L 1159 3500 
L 1159 2956 
Q 1356 3278 1631 3431 
Q 1906 3584 2284 3584 
Q 2666 3584 2933 3390 
Q 3200 3197 3328 2828 
z
" transform="scale(0.015625)"/>
       <path id="DejaVuSans-65" d="M 3597 1894 
L 3597 1613 
L 953 1613 
Q 991 1019 1311 708 
Q 1631 397 2203 397 
Q 2534 397 2845 478 
Q 3156 559 3463 722 
L 3463 178 
Q 3153 47 2828 -22 
Q 2503 -91 2169 -91 
Q 1331 -91 842 396 
Q 353 884 353 1716 
Q 353 2575 817 3079 
Q 1281 3584 2069 3584 
Q 2775 3584 3186 3129 
Q 3597 2675 3597 1894 
z
M 3022 2063 
Q 3016 2534 2758 2815 
Q 2500 3097 2075 3097 
Q 1594 3097 1305 2825 
Q 1016 2553 972 2059 
L 3022 2063 
z
" transform="scale(0.015625)"/>
       <path id="DejaVuSans-28" d="M 1984 4856 
Q 1566 4138 1362 3434 
Q 1159 2731 1159 2009 
Q 1159 1288 1364 580 
Q 1569 -128 1984 -844 
L 1484 -844 
Q 1016 -109 783 600 
Q 550 1309 550 2009 
Q 550 2706 781 3412 
Q 1013 4119 1484 4856 
L 1984 4856 
z
" transform="scale(0.015625)"/>
       <path id="DejaVuSans-73" d="M 2834 3397 
L 2834 2853 
Q 2591 2978 2328 3040 
Q 2066 3103 1784 3103 
Q 1356 3103 1142 2972 
Q 928 2841 928 2578 
Q 928 2378 1081 2264 
Q 1234 2150 1697 2047 
L 1894 2003 
Q 2506 1872 2764 1633 
Q 3022 1394 3022 966 
Q 3022 478 2636 193 
Q 2250 -91 1575 -91 
Q 1294 -91 989 -36 
Q 684 19 347 128 
L 347 722 
Q 666 556 975 473 
Q 1284 391 1588 391 
Q 1994 391 2212 530 
Q 2431 669 2431 922 
Q 2431 1156 2273 1281 
Q 2116 1406 1581 1522 
L 1381 1569 
Q 847 1681 609 1914 
Q 372 2147 372 2553 
Q 372 3047 722 3315 
Q 1072 3584 1716 3584 
Q 2034 3584 2315 3537 
Q 2597 3491 2834 3397 
z
" transform="scale(0.015625)"/>
       <path id="DejaVuSans-29" d="M 513 4856 
L 1013 4856 
Q 1481 4119 1714 3412 
Q 1947 2706 1947 2009 
Q 1947 1309 1714 600 
Q 1481 -109 1013 -844 
L 513 -844 
Q 928 -128 1133 580 
Q 1338 1288 1338 2009 
Q 1338 2731 1133 3434 
Q 928 4138 513 4856 
z
" transform="scale(0.015625)"/>
      </defs>
      <use xlink:href="#DejaVuSans-54"/>
      <use xlink:href="#DejaVuSans-69" x="57.958984"/>
      <use xlink:href="#DejaVuSans-6d" x="85.742188"/>
      <use xlink:href="#DejaVuSans-65" x="183.154297"/>
      <use xlink:href="#DejaVuSans-28" x="244.677734"/>
      <use xlink:href="#DejaVuSans-6d" x="283.691406"/>
      <use xlink:href="#DejaVuSans-73" x="381.103516"/>
      <use xlink:href="#DejaVuSans-29" x="433.203125"/>
     </g>
    </g>
   </g>
   <g id="matplotlib.axis_2">
    <g id="ytick_1">
     <g id="line2d_8">
      <defs>
       <path id="m8fb0a8092d" d="M 0 0 
L -3.5 0 
" style="stroke: #000000; stroke-width: 0.8"/>
      </defs>
      <g>
       <use xlink:href="#m8fb0a8092d" x="54" y="252" style="stroke: #000000; stroke-width: 0.8"/>
      </g>
     </g>
     <g id="text_9">
      <!-- −100 -->
      <g transform="translate(19.532812 255.799219)scale(0.1 -0.1)">
       <defs>
        <path id="DejaVuSans-2212" d="M 678 2272 
L 4684 2272 
L 4684 1741 
L 678 1741 
L 678 2272 
z
" transform="scale(0.015625)"/>
       </defs>
       <use xlink:href="#DejaVuSans-2212"/>
       <use xlink:href="#DejaVuSans-31" x="83.789062"/>
       <use xlink:href="#DejaVuSans-30" x="147.412109"/>
       <use xlink:href="#DejaVuSans-30" x="211.035156"/>
      </g>
     </g>
    </g>
    <g id="ytick_2">
     <g id="line2d_9">
      <g>
       <use xlink:href="#m8fb0a8092d" x="54" y="208.512" style="stroke: #000000; stroke-width: 0.8"/>
      </g>
     </g>
     <g id="text_10">
      <!-- −90 -->
      <g transform="translate(25.895312 212.311219)scale(0.1 -0.1)">
       <defs>
        <path id="DejaVuSans-39" d="M 703 97 
L 703 672 
Q 941 559 1184 500 
Q 1428 441 1663 441 
Q 2288 441 2617 861 
Q 2947 1281 2994 2138 
Q 2813 1869 2534 1725 
Q 2256 1581 1919 1581 
Q 1219 1581 811 2004 
Q 403 2428 403 3163 
Q 403 3881 828 4315 
Q 1253 4750 1959 4750 
Q 2769 4750 3195 4129 
Q 3622 3509 3622 2328 
Q 3622 1225 3098 567 
Q 2575 -91 1691 -91 
Q 1453 -91 1209 -44 
Q 966 3 703 97 
z
M 1959 2075 
Q 2384 2075 2632 2365 
Q 2881 2656 2881 3163 
Q 2881 3666 2632 3958 
Q 2384 4250 1959 4250 
Q 1534 4250 1286 3958 
Q 1038 3666 1038 3163 
Q 1038 2656 1286 2365 
Q 1534 2075 1959 2075 
z
" transform="scale(0.015625)"/>
       </defs>
       <use xlink:href="#DejaVuSans-2212"/>
       <use xlink:href="#DejaVuSans-39" x="83.789062"/>
       <use xlink:href="#DejaVuSans-30" x="147.412109"/>
      </g>
     </g>
    </g>
    <g id="ytick_3">
     <g id="line2d_10">
      <g>
       <use xlink:href="#m8fb0a8092d" x="54" y="165.024" style="stroke: #000000; stroke-width: 0.8"/>
      </g>
     </g>
     <g id="text_11">
      <!-- −80 -->
      <g transform="translate(25.895312 168.823219)scale(0.1 -0.1)">
       <defs>
        <path id="DejaVuSans-38" d="M 2034 2216 
Q 1584 2216 1326 1975 
Q 1069 1734 1069 1313 
Q 1069 891 1326 650 
Q 1584 409 2034 409 
Q 2484 409 2743 651 
Q 3003 894 3003 1313 
Q 3003 1734 2745 1975 
Q 2488 2216 2034 2216 
z
M 1403 2484 
Q 997 2584 770 2862 
Q 544 3141 544 3541 
Q 544 4100 942 4425 
Q 1341 4750 2034 4750 
Q 2731 4750 3128 4425 
Q 3525 4100 3525 3541 
Q 3525 3141 3298 2862 
Q 3072 2584 2669 2484 
Q 3125 2378 3379 2068 
Q 3634 1759 3634 1313 
Q 3634 634 3220 271 
Q 2806 -91 2034 -91 
Q 1263 -91 848 271 
Q 434 634 434 1313 
Q 434 1759 690 2068 
Q 947 2378 1403 2484 
z
M 1172 3481 
Q 1172 3119 1398 2916 
Q 1625 2713 2034 2713 
Q 2441 2713 2670 2916 
Q 2900 3119 2900 3481 
Q 2900 3844 2670 4047 
Q 2441 4250 2034 4250 
Q 1625 4250 1398 4047 
Q 1172 3844 1172 3481 
z
" transform="scale(0.015625)"/>
       </defs>
       <use xlink:href="#DejaVuSans-2212"/>
       <use xlink:href="#DejaVuSans-38" x="83.789062"/>
       <use xlink:href="#DejaVuSans-30" x="147.412109"/>
      </g>
     </g>
    </g>
    <g id="ytick_4">
     <g id="line2d_11">
      <g>
       <use xlink:href="#m8fb0a8092d" x="54" y="121.536" style="stroke: #000000; stroke-width: 0.8"/>
      </g>
     </g>
     <g id="text_12">
      <!-- −70 -->
      <g transform="translate(25.895312 125.335219)scale(0.1 -0.1)">
       <defs>
        <path id="DejaVuSans-37" d="M 525 4666 
L 3525 4666 
L 3525 4397 
L 1831 0 
L 1172 0 
L 2766 4134 
L 525 4134 
L 525 4666 
z
" transform="scale(0.015625)"/>
       </defs>
       <use xlink:href="#DejaVuSans-2212"/>
       <use xlink:href="#DejaVuSans-37" x="83.789062"/>
       <use xlink:href="#DejaVuSans-30" x="147.412109"/>
      </g>
     </g>
    </g>
    <g id="ytick_5">
     <g id="line2d_12">
      <g>
       <use xlink:href="#m8fb0a8092d" x="54" y="78.048" style="stroke: #000000; stroke-width: 0.8"/>
      </g>
     </g>
     <g id="text_13">
      <!-- −60 -->
      <g transform="translate(25.895312 81.847219)scale(0.1 -0.1)">
       <use xlink:href="#DejaVuSans-2212"/>
       <use xlink:href="#DejaVuSans-36" x="83.789062"/>
       <use xlink:href="#DejaVuSans-30" x="147.412109"/>
      </g>
     </g>
    </g>
    <g id="ytick_6">
     <g id="line2d_13">
      <g>
       <use xlink:href="#m8fb0a8092d" x="54" y="34.56" style="stroke: #000000; stroke-width: 0.8"/>
      </g>
     </g>
     <g id="text_14">
      <!-- −50 -->
      <g transform="translate(25.895312 38.359219)scale(0.1 -0.1)">
       <use xlink:href="#DejaVuSans-2212"/>
       <use xlink:href="#DejaVuSans-35" x="83.789062"/>
       <use xlink:href="#DejaVuSans-30" x="147.412109"/>
      </g>
     </g>
    </g>
    <g id="text_15">
     <!-- Membrane potential (mV) -->
     <g transform="translate(13.453125 207.691719)rotate(-90)scale(0.1 -0.1)">
      <defs>
       <path id="DejaVuSans-4d" d="M 628 4666 
L 1569 4666 
L 2759 1491 
L 3956 4666 
L 4897 4666 
L 4897 0 
L 4281 0 
L 4281 4097 
L 3078 897 
L 2444 897 
L 1241 4097 
L 1241 0 
L 628 0 
L 628 4666 
z
" transform="scale(0.015625)"/>
       <path id="DejaVuSans-62" d="M 3116 1747 
Q 3116 2381 2855 2742 
Q 2594 3103 2138 3103 
Q 1681 3103 1420 2742 
Q 1159 2381 1159 1747 
Q 1159 1113 1420 752 
Q 1681 391 2138 391 
Q 2594 391 2855 752 
Q 3116 1113 3116 1747 
z
M 1159 2969 
Q 1341 3281 1617 3432 
Q 1894 3584 2278 3584 
Q 2916 3584 3314 3078 
Q 3713 2572 3713 1747 
Q 3713 922 3314 415 
Q 2916 -91 2278 -91 
Q 1894 -91 1617 61 
Q 1341 213 1159 525 
L 1159 0 
L 581 0 
L 581 4863 
L 1159 4863 
L 1159 2969 
z
" transform="scale(0.015625)"/>
       <path id="DejaVuSans-72" d="M 2631 2963 
Q 2534 3019 2420 3045 
Q 2306 3072 2169 3072 
Q 1681 3072 1420 2755 
Q 1159 2438 1159 1844 
L 1159 0 
L 581 0 
L 581 3500 
L 1159 3500 
L 1159 2956 
Q 1341 3275 1631 3429 
Q 1922 3584 2338 3584 
Q 2397 3584 2469 3576 
Q 2541 3569 2628 3553 
L 2631 2963 
z
" transform="scale(0.015625)"/>
       <path id="DejaVuSans-61" d="M 2194 1759 
Q 1497 1759 1228 1600 
Q 959 1441 959 1056 
Q 959 750 1161 570 
Q 1363 391 1709 391 
Q 2188 391 2477 730 
Q 2766 1069 2766 1631 
L 2766 1759 
L 2194 1759 
z
M 3341 1997 
L 3341 0 
L 2766 0 
L 2766 531 
Q 2569 213 2275 61 
Q 1981 -91 1556 -91 
Q 1019 -91 701 211 
Q 384 513 384 1019 
Q 384 1609 779 1909 
Q 1175 2209 1959 2209 
L 2766 2209 
L 2766 2266 
Q 2766 2663 2505 2880 
Q 2244 3097 1772 3097 
Q 1472 3097 1187 3025 
Q 903 2953 641 2809 
L 641 3341 
Q 956 3463 1253 3523 
Q 1550 3584 1831 3584 
Q 2591 3584 2966 3190 
Q 3341 2797 3341 1997 
z
" transform="scale(0.015625)"/>
       <path id="DejaVuSans-6e" d="M 3513 2113 
L 3513 0 
L 2938 0 
L 2938 2094 
Q 2938 2591 2744 2837 
Q 2550 3084 2163 3084 
Q 1697 3084 1428 2787 
Q 1159 2491 1159 1978 
L 1159 0 
L 581 0 
L 581 3500 
L 1159 3500 
L 1159 2956 
Q 1366 3272 1645 3428 
Q 1925 3584 2291 3584 
Q 2894 3584 3203 3211 
Q 3513 2838 3513 2113 
z
" transform="scale(0.015625)"/>
       <path id="DejaVuSans-20" transform="scale(0.015625)"/>
       <path id="DejaVuSans-70" d="M 1159 525 
L 1159 -1331 
L 581 -1331 
L 581 3500 
L 1159 3500 
L 1159 2969 
Q 1341 3281 1617 3432 
Q 1894 3584 2278 3584 
Q 2916 3584 3314 3078 
Q 3713 2572 3713 1747 
Q 3713 922 3314 415 
Q 2916 -91 2278 -91 
Q 1894 -91 1617 61 
Q 1341 213 1159 525 
z
M 3116 1747 
Q 3116 2381 2855 2742 
Q 2594 3103 2138 3103 
Q 1681 3103 1420 2742 
Q 1159 2381 1159 1747 
Q 1159 1113 1420 752 
Q 1681 391 2138 391 
Q 2594 391 2855 752 
Q 3116 1113 3116 1747 
z
" transform="scale(0.015625)"/>
       <path id="DejaVuSans-6f" d="M 1959 3097 
Q 1497 3097 1228 2736 
Q 959 2375 959 1747 
Q 959 1119 1226 758 
Q 1494 397 1959 397 
Q 2419 397 2687 759 
Q 2956 1122 2956 1747 
Q 2956 2369 2687 2733 
Q 2419 3097 1959 3097 
z
M 1959 3584 
Q 2709 3584 3137 3096 
Q 3566 2609 3566 1747 
Q 3566 888 3137 398 
Q 2709 -91 1959 -91 
Q 1206 -91 779 398 
Q 353 888 353 1747 
Q 353 2609 779 3096 
Q 1206 3584 1959 3584 
z
" transform="scale(0.015625)"/>
       <path id="DejaVuSans-74" d="M 1172 4494 
L 1172 3500 
L 2356 3500 
L 2356 3053 
L 1172 3053 
L 1172 1153 
Q 1172 725 1289 603 
Q 1406 481 1766 481 
L 2356 481 
L 2356 0 
L 1766 0 
Q 1100 0 847 248 
Q 594 497 594 1153 
L 594 3053 
L 172 3053 
L 172 3500 
L 594 3500 
L 594 4494 
L 1172 4494 
z
" transform="scale(0.015625)"/>
       <path id="DejaVuSans-6c" d="M 603 4863 
L 1178 4863 
L 1178 0 
L 603 0 
L 603 4863 
z
" transform="scale(0.015625)"/>
       <path id="DejaVuSans-56" d="M 1831 0 
L 50 4666 
L 709 4666 
L 2188 738 
L 3669 4666 
L 4325 4666 
L 2547 0 
L 1831 0 
z
" transform="scale(0.015625)"/>
      </defs>
      <use xlink:href="#DejaVuSans-4d"/>
      <use xlink:href="#DejaVuSans-65" x="86.279297"/>
      <use xlink:href="#DejaVuSans-6d" x="147.802734"/>
      <use xlink:href="#DejaVuSans-62" x="245.214844"/>
      <use xlink:href="#DejaVuSans-72" x="308.691406"/>
      <use xlink:href="#DejaVuSans-61" x="349.804688"/>
      <use xlink:href="#DejaVuSans-6e" x="411.083984"/>
      <use xlink:href="#DejaVuSans-65" x="474.462891"/>
      <use xlink:href="#DejaVuSans-20" x="535.986328"/>
      <use xlink:href="#DejaVuSans-70" x="567.773438"/>
      <use xlink:href="#DejaVuSans-6f" x="631.25"/>
      <use xlink:href="#DejaVuSans-74" x="692.431641"/>
      <use xlink:href="#DejaVuSans-65" x="731.640625"/>
      <use xlink:href="#DejaVuSans-6e" x="793.164062"/>
      <use xlink:href="#DejaVuSans-74" x="856.542969"/>
      <use xlink:href="#DejaVuSans-69" x="895.751953"/>
      <use xlink:href="#DejaVuSans-61" x="923.535156"/>
      <use xlink:href="#DejaVuSans-6c" x="984.814453"/>
      <use xlink:href="#DejaVuSans-20" x="1012.597656"/>
      <use xlink:href="#DejaVuSans-28" x="1044.384766"/>
      <use xlink:href="#DejaVuSans-6d" x="1083.398438"/>
      <use xlink:href="#DejaVuSans-56" x="1180.810547"/>
      <use xlink:href="#DejaVuSans-29" x="1249.21875"/>
     </g>
    </g>
   </g>
   <g id="line2d_14">
    <path d="M 69.218182 191.1168 
L 69.357682 210.423305 
L 69.613855 214.059338 
L 69.786327 214.596295 
L 69.788864 214.595989 
L 70.055182 214.446866 
L 70.260627 213.416095 
L 70.509191 212.789589 
L 70.648691 212.844164 
L 70.856673 213.262542 
L 71.5491 215.420636 
L 71.954918 216.384755 
L 71.982818 216.337158 
L 72.1071 215.608912 
L 72.391173 214.43597 
L 72.573791 213.976395 
L 72.852791 213.463245 
L 73.0278 213.506912 
L 73.126718 213.619899 
L 73.141936 213.472023 
L 73.568045 208.146075 
L 73.649209 208.114883 
L 73.689791 208.161111 
L 73.849582 208.623471 
L 74.240182 210.62629 
L 74.453236 211.526544 
L 74.503964 211.47735 
L 74.803255 211.171396 
L 74.818473 211.18107 
L 74.970655 211.147817 
L 75.269945 211.004414 
L 75.450027 211.253864 
L 75.779755 212.186344 
L 76.735964 215.102551 
L 76.758791 215.076645 
L 76.893218 214.58143 
L 77.618618 211.764812 
L 77.666809 211.789719 
L 77.849427 212.072699 
L 78.252709 213.225099 
L 79.056736 215.397012 
L 79.614736 216.278186 
L 80.195564 216.792045 
L 80.910818 217.118754 
L 82.034427 217.359231 
L 84.684927 217.641585 
L 85.4154 217.596185 
L 85.567582 216.310216 
L 85.920136 214.160951 
L 86.247327 212.71391 
L 86.417264 212.652497 
L 86.597345 212.905163 
L 87.000627 213.96952 
L 87.791973 215.927885 
L 88.349973 216.728827 
L 88.938409 217.193512 
L 89.433 217.378416 
L 89.443145 217.355698 
L 89.557282 216.726377 
L 89.932664 214.870148 
L 90.138109 214.710126 
L 90.330873 214.863446 
L 90.767127 215.592848 
L 91.520427 216.726462 
L 91.852691 217.032582 
L 91.878055 216.964653 
L 92.012482 215.834442 
L 92.570482 211.721926 
L 92.699836 211.675728 
L 92.720127 211.691904 
L 92.890064 212.001579 
L 93.300955 213.353015 
L 94.039036 215.574856 
L 94.576745 216.519329 
L 95.127136 217.056345 
L 95.786591 217.384251 
L 96.778309 217.60387 
L 97.206955 217.564126 
L 97.369282 216.061749 
L 97.640673 214.629876 
L 97.838509 214.463298 
L 98.021127 214.619197 
L 98.145409 214.767957 
L 98.188527 214.668389 
L 98.690727 213.271355 
L 98.858127 213.43517 
L 99.195464 214.165469 
L 100.123773 216.195425 
L 100.519445 216.696564 
L 100.542273 216.65704 
L 100.666555 215.967633 
L 100.773082 214.493148 
L 101.143391 209.142181 
L 101.533991 205.846336 
L 101.919518 203.922311 
L 102.231491 201.323039 
L 102.302509 201.27598 
L 102.3507 201.327629 
L 102.695645 201.963898 
L 102.949282 203.431429 
L 104.450809 213.496873 
L 104.547191 213.710914 
L 104.600455 213.639297 
L 105.079827 212.745255 
L 105.105191 212.75874 
L 105.3081 213.019984 
L 105.8103 214.156891 
L 106.502727 215.512771 
L 106.505264 215.511639 
L 106.543309 215.305406 
L 106.959273 212.553774 
L 107.106382 212.553479 
L 107.306755 212.888368 
L 108.843791 216.063795 
L 108.909736 215.949715 
L 109.1583 214.756444 
L 109.969936 211.681272 
L 110.119582 211.77263 
L 110.370682 212.272697 
L 110.411264 212.35893 
L 110.449309 212.174826 
L 110.817082 210.104722 
L 110.895709 209.970931 
L 111.580527 206.780574 
L 111.649009 206.843448 
L 111.813873 207.316631 
L 112.077655 208.502756 
L 112.158818 208.236304 
L 112.4226 206.459375 
L 112.663555 205.54676 
L 112.833491 205.464348 
L 112.8411 205.469631 
L 112.990745 205.722877 
L 113.251991 206.70673 
L 114.061091 210.591316 
L 114.170155 210.508327 
L 114.3756 210.47548 
L 114.5709 210.735181 
L 114.969109 211.715025 
L 115.047736 211.430485 
L 115.377464 210.245177 
L 115.514427 210.282793 
L 115.712264 210.674997 
L 116.260118 212.448147 
L 116.528973 213.208691 
L 116.5797 213.115655 
L 117.1098 211.772542 
L 117.122482 211.777332 
L 117.307636 211.908277 
L 117.348218 211.756879 
L 117.609464 209.89237 
L 117.934118 207.849771 
L 118.091373 207.703666 
L 118.109127 207.713444 
L 118.2537 207.946354 
L 118.535236 208.923382 
L 119.790736 213.729689 
L 120.336055 214.787563 
L 120.909273 215.433438 
L 121.477418 215.803198 
L 121.485027 215.78471 
L 121.550973 215.08509 
L 121.840118 212.526672 
L 122.035418 212.265642 
L 122.190136 212.403223 
L 122.517327 213.085252 
L 123.438027 215.019633 
L 124.029 215.720043 
L 124.302927 215.8943 
L 124.330827 215.843238 
L 124.483009 215.151221 
L 124.850782 213.796995 
L 125.084127 213.609813 
L 125.292109 213.730034 
L 125.670027 214.277324 
L 126.654136 215.7195 
L 127.311055 216.256807 
L 127.366855 216.271345 
L 127.394755 216.178485 
L 128.023773 213.581846 
L 128.201318 213.690727 
L 128.533582 214.23416 
L 129.510082 215.874526 
L 129.991991 216.306534 
L 130.002136 216.295123 
L 130.103591 215.964338 
L 130.539845 214.482942 
L 130.747827 214.077779 
L 131.019218 211.575794 
L 131.293145 210.031494 
L 131.435182 209.928906 
L 131.458009 209.943977 
L 131.562 210.036463 
L 131.605118 209.929685 
L 131.7294 208.914917 
L 132.163118 205.7099 
L 132.322909 205.41806 
L 132.345736 205.429409 
L 132.464945 205.661263 
L 132.7059 206.745656 
L 133.778782 212.663156 
L 133.847264 212.529446 
L 134.217573 211.725256 
L 134.372291 211.829687 
L 134.638609 212.356475 
L 135.972736 215.355525 
L 136.561173 215.985744 
L 136.627118 215.991826 
L 136.660091 215.923891 
L 136.850318 215.052143 
L 137.190191 213.96019 
L 137.550355 213.343057 
L 137.7558 213.352679 
L 137.897836 213.469039 
L 137.925736 213.333671 
L 138.329018 211.06017 
L 138.468518 211.10855 
L 138.521782 211.000415 
L 138.914918 209.723988 
L 138.952964 209.744461 
L 139.107682 210.016222 
L 139.439945 211.171457 
L 139.873664 212.623369 
L 139.906636 212.587947 
L 140.051209 212.092053 
L 140.370791 210.333816 
L 140.642182 208.883296 
L 140.753782 208.839238 
L 140.784218 208.866078 
L 140.949082 209.21838 
L 141.324464 210.68715 
L 142.171609 213.897226 
L 142.719464 215.118872 
L 143.269855 215.831004 
L 143.688355 216.141669 
L 143.708645 216.099406 
L 143.845609 215.326741 
L 144.213382 212.239373 
L 144.687682 205.640679 
L 144.7866 205.531968 
L 144.829718 205.569091 
L 144.885518 205.579705 
L 144.928636 205.517222 
L 145.161982 205.234793 
L 145.189882 205.257076 
L 145.329382 205.566129 
L 145.354745 205.625659 
L 145.392791 205.421603 
L 145.783391 202.406262 
L 145.811291 202.422408 
L 145.920355 202.698755 
L 146.156236 204.064019 
L 146.846127 208.316935 
L 146.858809 208.30762 
L 146.985627 207.97028 
L 147.188536 207.721928 
L 147.193609 207.724045 
L 147.328036 207.908807 
L 147.378764 207.958495 
L 147.432027 207.874782 
L 147.746536 207.3247 
L 147.769364 207.337999 
L 147.913936 207.587487 
L 148.195473 208.629881 
L 148.428818 209.594562 
L 148.494764 209.459979 
L 148.796591 208.116208 
L 149.088273 206.851841 
L 149.199873 206.847306 
L 149.220164 206.869515 
L 149.369809 207.109652 
L 149.433218 206.966823 
L 149.6691 206.538164 
L 149.684318 206.545249 
L 149.811136 206.751919 
L 150.064773 207.70521 
L 150.323482 208.820646 
L 150.386891 208.679598 
L 150.782564 207.638683 
L 150.916991 207.788425 
L 151.157945 208.48378 
L 152.791364 214.052469 
L 153.321464 214.806546 
L 153.389945 214.680493 
L 153.894682 212.55539 
L 154.262455 210.945398 
L 154.429855 210.904117 
L 154.612473 211.176089 
L 154.985318 212.17533 
L 155.036045 211.832181 
L 155.327727 209.987764 
L 155.434255 209.95928 
L 155.462155 209.985319 
L 155.606727 210.154054 
L 155.662527 210.054259 
L 156.004936 209.421207 
L 156.022691 209.430524 
L 156.172336 209.660606 
L 156.4767 210.648594 
L 156.892664 212.150414 
L 156.953536 212.050274 
L 157.179273 211.157332 
L 157.554655 209.416963 
L 157.691618 209.400707 
L 157.701764 209.410058 
L 157.876773 209.74229 
L 158.259764 211.078303 
L 159.106909 213.9337 
L 159.662373 215.036607 
L 159.812018 215.226817 
L 159.847527 215.121105 
L 160.106236 213.171177 
L 160.334509 210.504158 
L 160.623655 208.336485 
L 160.765691 208.169975 
L 160.791055 208.185356 
L 160.930555 208.451401 
L 161.222236 209.611572 
L 162.188591 213.76706 
L 162.206345 213.729096 
L 162.290045 212.916303 
L 162.660355 209.486398 
L 162.812536 209.29626 
L 162.832827 209.306664 
L 162.972327 209.540065 
L 163.017982 209.600133 
L 163.071245 209.500671 
L 163.3959 208.850702 
L 163.411118 208.857543 
L 163.550618 209.065234 
L 163.819473 209.969605 
L 164.022382 210.663228 
L 164.080718 210.585149 
L 164.395227 210.103361 
L 164.415518 210.115231 
L 164.572773 210.3658 
L 164.9025 211.422909 
L 165.828273 214.423917 
L 166.170682 215.069014 
L 166.203655 215.029172 
L 166.371055 214.458007 
L 166.708391 213.608323 
L 166.918909 213.551156 
L 167.119282 213.648766 
L 167.149718 213.52748 
L 167.355164 211.836082 
L 167.689964 209.324875 
L 167.826927 209.197416 
L 167.854827 209.214975 
L 168.004473 209.488701 
L 168.331664 210.675528 
L 169.272655 214.142721 
L 169.4781 214.612493 
L 169.521218 214.498975 
L 170.031027 212.440007 
L 170.058927 212.45024 
L 170.236473 212.666646 
L 170.662582 213.653299 
L 171.2358 214.871018 
L 171.258627 214.847865 
L 171.3753 214.454465 
L 171.471682 213.530985 
L 171.847064 210.093178 
L 172.136209 208.927238 
L 172.255418 208.926153 
L 172.270636 208.942517 
L 172.894582 209.865729 
L 173.373955 211.432866 
L 174.000436 213.432652 
L 174.033409 213.389343 
L 174.241391 212.647602 
L 174.474736 212.289948 
L 174.677645 212.152906 
L 175.042882 209.57164 
L 175.3092 207.873135 
L 175.413191 207.801511 
L 175.451236 207.834388 
L 175.613564 208.051903 
L 175.679509 207.94877 
L 175.920464 207.718171 
L 176.016845 207.618219 
L 176.270482 207.300114 
L 176.290773 207.31294 
L 176.435345 207.566836 
L 176.557091 207.760761 
L 176.607818 207.713434 
L 176.894427 207.486515 
L 176.907109 207.497154 
L 177.0669 207.796537 
L 177.267273 208.455116 
L 177.328145 208.202366 
L 177.576709 207.415793 
L 177.685773 207.507637 
L 177.881073 208.078021 
L 178.215873 209.561222 
L 178.289427 209.211139 
L 178.540527 208.307335 
L 178.713 208.127367 
L 179.0199 207.181612 
L 179.022436 207.182167 
L 179.136573 207.324837 
L 179.357236 208.061808 
L 179.646382 209.412674 
L 179.697109 209.027633 
L 179.932991 207.690586 
L 180.021764 207.725448 
L 180.036982 207.74876 
L 180.214527 208.264715 
L 180.762382 210.812518 
L 181.406618 213.272366 
L 181.946864 214.512751 
L 182.497255 215.246104 
L 183.133882 215.72463 
L 183.237873 215.741042 
L 183.2607 215.676683 
L 183.433173 214.578683 
L 183.5955 212.888845 
L 183.920155 207.1266 
L 184.260027 203.992066 
L 184.396991 202.313951 
L 184.696282 199.317571 
L 184.840855 199.008029 
L 184.871291 199.027541 
L 184.982891 199.314358 
L 185.208627 200.661183 
L 185.921345 206.907778 
L 186.438764 210.377814 
L 186.451445 210.370634 
L 186.557973 210.08736 
L 186.781173 209.769837 
L 186.918136 209.921308 
L 188.084864 211.880834 
L 188.095009 211.869028 
L 188.173636 211.49763 
L 188.521118 209.940035 
L 188.670764 209.93601 
L 188.855918 210.25962 
L 189.282027 211.585816 
L 190.075909 213.887453 
L 190.250918 214.230057 
L 190.281355 214.086803 
L 190.704927 211.10858 
L 190.732827 211.117876 
L 190.882473 211.329597 
L 191.052409 211.629291 
L 191.110745 211.549987 
L 191.486127 211.019767 
L 191.534318 210.91763 
L 191.739764 209.475041 
L 192.016227 207.07336 
L 192.239427 204.587957 
L 192.490527 200.891023 
L 192.576764 200.743357 
L 192.627491 200.801683 
L 192.734018 200.85403 
L 192.769527 200.830322 
L 192.936927 200.843785 
L 193.0815 201.229719 
L 193.342745 202.713615 
L 193.730809 205.043032 
L 193.763782 204.892183 
L 194.131555 202.354756 
L 194.154382 202.365177 
L 194.260909 202.595579 
L 194.537373 203.145535 
L 194.674336 203.288356 
L 194.717455 203.313103 
L 194.768182 203.234106 
L 194.983773 202.949756 
L 195.011673 202.970193 
L 195.1461 203.261208 
L 195.440318 204.597549 
L 195.678736 205.516494 
L 195.744682 205.43584 
L 195.924764 205.310059 
L 195.942518 205.323428 
L 196.087091 205.600275 
L 196.368627 206.738357 
L 196.508127 207.237551 
L 196.566464 207.164014 
L 196.675527 206.693403 
L 196.984964 204.774942 
L 197.068664 204.785787 
L 197.094027 204.820344 
L 197.256355 205.294136 
L 197.639345 207.283035 
L 198.491564 211.552214 
L 198.813682 212.339099 
L 199.845982 213.945924 
L 199.868809 213.90899 
L 200.008309 213.234567 
L 200.332964 212.072904 
L 200.551091 211.954524 
L 200.738782 211.821269 
L 200.842773 210.972514 
L 201.715282 200.818163 
L 201.776155 200.841124 
L 201.801518 200.887465 
L 201.968918 201.394379 
L 202.083055 201.254209 
L 202.1769 201.289843 
L 202.192118 201.315042 
L 202.351909 201.84473 
L 202.9581 204.20547 
L 203.252318 205.817909 
L 203.310655 205.787214 
L 203.554145 205.763675 
L 203.7114 206.05961 
L 203.797636 206.307546 
L 203.835682 206.081486 
L 204.145118 203.462466 
L 204.180627 203.487995 
L 204.299836 203.831765 
L 204.601664 205.56521 
L 204.713264 205.979564 
L 204.766527 205.930938 
L 204.949145 205.817217 
L 204.969436 205.835353 
L 205.387936 206.122989 
L 205.5807 206.039065 
L 205.961155 203.033548 
L 206.262982 199.506158 
L 206.450673 199.133103 
L 206.460818 199.136968 
L 206.567345 199.313328 
L 206.767718 200.189513 
L 207.094909 202.287418 
L 207.214118 202.11908 
L 207.305427 202.144812 
L 207.323182 202.171568 
L 207.480436 202.66063 
L 207.817773 204.613203 
L 208.809491 210.474025 
L 209.169655 211.72127 
L 209.202627 211.682261 
L 209.380173 211.071756 
L 209.603373 209.930062 
L 209.867155 206.879972 
L 210.0447 206.681192 
L 210.130936 206.228405 
L 210.846191 201.363009 
L 211.008518 200.926183 
L 211.424482 198.112558 
L 211.427018 198.112878 
L 211.518327 198.241307 
L 211.693336 198.996043 
L 213.925336 211.324143 
L 214.2855 211.870122 
L 214.305791 211.84197 
L 214.417391 211.31372 
L 214.726827 210.172735 
L 214.873936 209.815485 
L 214.988073 208.374865 
L 215.406573 201.382587 
L 215.693182 198.768943 
L 215.771809 198.694395 
L 215.82 198.751514 
L 215.9595 199.258827 
L 216.466773 201.439245 
L 216.487064 201.413755 
L 216.621491 200.837639 
L 217.012091 199.471453 
L 217.055209 199.505109 
L 217.184564 199.863386 
L 217.448345 201.401312 
L 218.625218 209.411208 
L 218.663264 209.284195 
L 218.795155 207.637518 
L 219.107127 204.720263 
L 219.221264 203.89146 
L 219.525627 200.298068 
L 219.573818 200.290371 
L 219.616936 200.359629 
L 219.769118 201.003857 
L 220.159718 203.904505 
L 220.499591 206.121771 
L 220.537636 206.091763 
L 220.834391 205.8287 
L 220.854682 205.845957 
L 221.029691 206.172631 
L 221.361955 207.213636 
L 221.468482 207.032482 
L 221.704364 206.788519 
L 221.848936 206.974501 
L 222.110182 207.768994 
L 223.337782 212.115567 
L 223.365682 212.083044 
L 223.456991 211.591614 
L 223.832373 209.635558 
L 224.025136 209.507274 
L 224.200145 209.697818 
L 224.545091 210.490362 
L 224.958518 211.594883 
L 224.996564 211.394041 
L 225.544418 207.465176 
L 225.663627 207.540367 
L 225.858927 208.037787 
L 226.371273 210.154537 
L 226.475264 210.569156 
L 226.515845 210.307955 
L 226.777091 208.860117 
L 226.883618 208.870253 
L 226.901373 208.890816 
L 227.089064 209.317053 
L 227.657209 211.38684 
L 228.314127 213.349917 
L 228.869591 214.354631 
L 228.912709 214.325358 
L 228.935536 214.266767 
L 229.196782 213.066165 
L 229.4631 212.486029 
L 229.645718 212.491134 
L 229.891745 212.786957 
L 231.4998 215.2146 
L 231.515018 215.199331 
L 231.624082 214.857927 
L 232.024827 213.646465 
L 232.248027 213.550023 
L 232.557464 213.517665 
L 233.011473 212.263124 
L 233.176336 212.326118 
L 233.432509 212.740042 
L 234.880773 215.478148 
L 235.101436 215.696753 
L 235.1268 215.589042 
L 235.611245 212.859989 
L 235.773573 212.885315 
L 236.065255 213.221715 
L 236.141345 213.054542 
L 236.331573 212.190048 
L 236.706955 209.223207 
L 236.8287 209.14374 
L 236.859136 209.166599 
L 237.018927 209.483316 
L 237.277636 210.362936 
L 237.328364 210.047661 
L 237.754473 206.238237 
L 237.815345 206.047564 
L 238.122245 204.534051 
L 238.157755 204.557597 
L 238.2795 204.872061 
L 238.553427 206.3576 
L 239.0886 209.105662 
L 239.3397 209.342066 
L 239.623773 210.05768 
L 241.191245 214.627982 
L 241.579309 215.168743 
L 241.597064 215.106166 
L 242.127164 212.114989 
L 242.152527 212.1225 
L 242.325 212.319236 
L 242.720673 213.214218 
L 243.527236 214.930969 
L 244.118209 215.667326 
L 244.772591 216.128743 
L 245.665391 216.46804 
L 246.185345 216.542645 
L 246.192955 216.512737 
L 246.380645 215.159479 
L 246.682473 212.368458 
L 247.017273 206.833653 
L 247.250618 205.680713 
L 247.329245 205.684469 
L 247.359682 205.72574 
L 247.516936 206.21043 
L 247.874564 208.222365 
L 248.724245 212.901102 
L 249.251809 214.589685 
L 249.561245 215.213585 
L 249.591682 215.124596 
L 250.038082 213.430309 
L 250.271427 213.234025 
L 250.733045 212.120995 
L 250.895373 212.210413 
L 251.159155 212.685751 
L 251.285973 212.969071 
L 251.326555 212.790612 
L 251.709545 210.828821 
L 251.833827 210.891912 
L 252.041809 211.360771 
L 253.228827 214.858005 
L 253.274482 214.637827 
L 253.550945 211.677141 
L 253.852773 207.238503 
L 254.020173 206.837987 
L 254.035391 206.843579 
L 254.146991 207.03405 
L 254.382873 207.99843 
L 255.159 211.796501 
L 255.230018 211.732452 
L 255.820991 211.011074 
L 255.8565 211.040369 
L 256.089845 211.414316 
L 256.602191 212.777988 
L 257.398609 214.702338 
L 257.469627 214.805138 
L 257.510209 214.689134 
L 258.045382 212.308866 
L 258.085964 212.325735 
L 258.271118 212.572457 
L 258.750491 213.639559 
L 258.839264 213.413202 
L 259.242545 212.234953 
L 259.394727 212.297815 
L 259.638218 212.724994 
L 261.063655 215.657775 
L 261.664773 216.209525 
L 262.400318 216.574251 
L 262.565182 216.569681 
L 262.577864 216.528432 
L 262.8036 215.25139 
L 263.097818 214.306761 
L 263.3058 214.20677 
L 263.529 214.38486 
L 263.561973 214.401419 
L 263.594945 214.301632 
L 264.066709 212.317232 
L 264.097145 212.328508 
L 264.264545 212.550139 
L 264.655145 213.55261 
L 265.438882 215.43524 
L 266.001955 216.221195 
L 266.605609 216.689161 
L 267.384273 216.998261 
L 268.170545 217.155427 
L 268.178155 217.117311 
L 268.472373 214.192949 
L 268.860436 211.61926 
L 268.999936 211.525709 
L 269.022764 211.540642 
L 269.185091 211.818008 
L 269.565545 213.042856 
L 270.3366 215.371816 
L 270.876845 216.317165 
L 271.432309 216.858714 
L 272.101909 217.194501 
L 272.368227 217.235061 
L 272.383445 217.174451 
L 272.5407 215.772051 
L 272.812091 214.375009 
L 273.007391 214.221922 
L 273.192545 214.393661 
L 273.616118 215.192212 
L 274.374491 216.494489 
L 274.896982 216.98771 
L 274.983218 216.786837 
L 275.482882 215.393072 
L 275.701009 215.362614 
L 275.974936 215.55753 
L 276.005373 215.379262 
L 276.636927 211.084209 
L 276.827155 210.780076 
L 276.829691 210.780835 
L 276.959045 210.940786 
L 277.022455 211.080811 
L 277.052891 210.88214 
L 277.349645 208.904157 
L 277.448564 208.971548 
L 277.626109 209.515876 
L 278.194255 212.28939 
L 278.643191 214.113502 
L 278.671091 214.031475 
L 279.061691 212.524429 
L 279.079445 212.530215 
L 279.231627 212.721109 
L 279.4041 213.106592 
L 279.444682 212.903426 
L 279.797236 210.915335 
L 279.913909 210.981945 
L 280.116818 211.48285 
L 281.562545 215.731928 
L 282.034309 216.323983 
L 282.044455 216.305493 
L 282.135764 215.64954 
L 282.4173 214.197154 
L 282.610064 214.066045 
L 282.726736 213.92752 
L 283.213718 213.174411 
L 283.406482 213.30217 
L 283.733673 213.853843 
L 283.880782 214.122136 
L 283.921364 213.986277 
L 284.086227 212.227109 
L 284.380445 210.171703 
L 284.570673 209.336056 
L 284.9562 206.340141 
L 285.042436 206.300725 
L 285.083018 206.343454 
L 285.2352 206.768004 
L 285.577609 208.550701 
L 285.648627 208.834595 
L 285.706964 208.66991 
L 286.049373 207.58352 
L 286.051909 207.584134 
L 286.171118 207.732132 
L 286.396855 208.474041 
L 286.614982 209.378343 
L 286.680927 209.195335 
L 286.9371 208.52892 
L 286.944709 208.531076 
L 287.061382 208.692042 
L 287.302336 209.517136 
L 287.596555 210.497729 
L 287.6346 210.450697 
L 287.741127 209.843709 
L 288.045491 208.450261 
L 288.162164 208.435494 
L 288.182455 208.455747 
L 288.349855 208.816691 
L 288.720164 210.28111 
L 289.567309 213.542281 
L 289.607891 213.389389 
L 289.973127 211.872141 
L 290.087264 211.624726 
L 290.434745 209.208156 
L 290.5362 209.223944 
L 290.553955 209.246079 
L 290.734036 209.688685 
L 291.251455 211.774462 
L 291.583718 212.919171 
L 291.626836 212.849626 
L 291.781555 212.066387 
L 292.309118 209.029566 
L 292.438473 209.08316 
L 292.631236 209.5217 
L 293.108073 211.337264 
L 293.595055 213.029613 
L 293.630564 212.982526 
L 293.836009 212.231407 
L 293.929855 211.551818 
L 294.264655 206.106245 
L 294.475173 205.127844 
L 294.571555 205.200747 
L 294.738955 205.766964 
L 295.149845 208.171104 
L 295.905682 212.2636 
L 296.222727 213.294493 
L 296.258236 213.25006 
L 296.458609 212.565243 
L 296.717318 212.109375 
L 296.884718 212.164662 
L 297.097773 212.396952 
L 297.153573 212.276814 
L 297.501055 210.828493 
L 298.492773 203.258593 
L 298.538427 203.292903 
L 298.670318 203.665744 
L 298.954391 205.305079 
L 300.057709 212.128488 
L 300.293591 212.855064 
L 300.334173 212.816969 
L 300.529473 212.313258 
L 300.709555 210.67742 
L 300.960655 209.469301 
L 301.0824 209.434707 
L 301.105227 209.454676 
L 301.2777 209.791796 
L 301.6962 211.243795 
L 302.426673 213.569093 
L 302.492618 213.472188 
L 303.045545 212.174052 
L 303.2307 212.331182 
L 303.588327 213.007694 
L 303.938345 213.742975 
L 303.984 213.612036 
L 304.425327 211.973218 
L 304.574973 212.077125 
L 304.859045 212.634007 
L 305.952218 214.936624 
L 306.5508 215.608974 
L 307.240691 216.046307 
L 308.181682 216.368581 
L 308.229873 216.14162 
L 308.704173 213.322858 
L 308.917227 212.947313 
L 309.333191 207.691007 
L 309.602045 206.374773 
L 309.690818 206.388708 
L 309.713645 206.420103 
L 309.875973 206.891783 
L 310.248818 208.840158 
L 311.073136 212.991642 
L 311.106109 213.107585 
L 311.136545 212.827821 
L 311.428227 210.21963 
L 311.511927 210.191333 
L 311.549973 210.231009 
L 311.727518 210.671974 
L 312.052173 211.705949 
L 312.125727 211.604386 
L 312.452918 211.164189 
L 312.610173 211.349806 
L 312.919609 212.153522 
L 313.931618 214.899168 
L 314.494691 215.73678 
L 315.098345 216.243452 
L 315.717218 216.507622 
L 315.722291 216.498552 
L 315.811064 216.056356 
L 316.194055 214.190553 
L 316.409645 214.007243 
L 316.607482 214.137851 
L 317.003155 214.747591 
L 317.279618 215.215398 
L 317.304982 215.067787 
L 317.655 212.692068 
L 317.804645 212.666712 
L 317.809718 212.670748 
L 318.005018 212.975188 
L 318.654327 214.609305 
L 318.732955 214.758762 
L 318.781145 214.629185 
L 318.923182 213.442528 
L 319.270664 210.974541 
L 319.471036 210.746359 
L 319.7475 210.731863 
L 319.947873 210.979431 
L 319.988455 210.774383 
L 320.3334 208.941745 
L 320.571818 208.720144 
L 320.8356 208.177636 
L 320.954809 208.310055 
L 321.1704 208.981264 
L 321.2262 209.177867 
L 321.279464 208.964911 
L 321.695427 207.128235 
L 321.7842 206.479536 
L 322.116464 204.489274 
L 322.512136 203.011948 
L 322.608518 203.118828 
L 322.780991 203.766054 
L 323.166518 206.305543 
L 323.562191 208.397058 
L 323.8209 208.619335 
L 324.066927 209.356736 
L 325.213364 213.566618 
L 325.274236 213.498107 
L 325.756145 212.381027 
L 326.037682 208.850931 
L 326.357264 207.832898 
L 326.481545 207.900741 
L 326.669236 208.374291 
L 327.087736 210.201464 
L 327.886691 213.480412 
L 327.899373 213.497968 
L 327.939955 213.308705 
L 328.300118 211.426923 
L 328.429473 211.474005 
L 328.642527 211.902728 
L 329.020445 212.989299 
L 329.068636 212.72092 
L 329.367927 208.96905 
L 329.7357 202.384103 
L 329.913245 201.845465 
L 329.925927 201.849464 
L 330.024845 202.028062 
L 330.151664 202.289792 
L 330.207464 202.233789 
L 330.341891 202.155761 
L 330.374864 202.194166 
L 330.511827 202.617893 
L 330.800973 204.419154 
L 331.5492 209.107066 
L 331.805373 209.030482 
L 332.487655 206.14561 
L 332.520627 206.161937 
L 332.655055 206.413596 
L 332.923909 207.509132 
L 333.519955 210.408518 
L 333.598582 210.29448 
L 333.857291 210.008525 
L 334.027227 209.953968 
L 334.471091 209.264201 
L 334.552255 209.104259 
L 334.920027 208.196043 
L 334.937782 208.203763 
L 335.077282 208.411348 
L 335.356282 209.332138 
L 335.602309 210.187352 
L 335.663182 210.103335 
L 335.959936 209.729396 
L 336.1248 209.81108 
L 336.162845 209.703177 
L 336.507791 208.904711 
L 336.644755 209.039287 
L 336.893318 209.68346 
L 337.661836 212.357869 
L 337.7151 212.009468 
L 338.014391 209.948851 
L 338.128527 209.912276 
L 338.156427 209.936697 
L 338.336509 210.290717 
L 338.876755 212.040389 
L 339.538745 213.812176 
L 340.106891 214.729664 
L 340.360527 214.986094 
L 340.3935 214.908504 
L 340.598945 213.711224 
L 340.875409 212.832431 
L 341.070709 212.763317 
L 341.2863 212.975498 
L 341.801182 213.903392 
L 342.562091 215.103351 
L 343.208864 215.711651 
L 343.979918 216.122893 
L 344.730682 216.31297 
L 344.733218 216.306443 
L 344.849891 215.657213 
L 345.1923 214.081902 
L 345.412964 213.884194 
L 345.6108 214.007455 
L 345.702109 214.108037 
L 345.732545 213.982001 
L 345.841609 212.309354 
L 346.176409 207.922188 
L 346.379318 207.393304 
L 346.485845 207.509442 
L 346.686218 208.164813 
L 347.269582 211.136047 
L 347.908745 213.785565 
L 348.441382 215.111327 
L 348.974018 215.874226 
L 349.141418 216.009448 
L 349.174391 215.934485 
L 349.3215 214.981992 
L 349.610645 213.695589 
L 349.798336 213.592911 
L 349.996173 213.791207 
L 350.488227 214.715219 
L 351.213627 215.89533 
L 351.824891 216.471654 
L 352.540145 216.834121 
L 353.602882 217.099588 
L 353.646 216.967033 
L 354.252191 213.964767 
L 354.257264 213.965768 
L 354.434809 214.119761 
L 354.833018 214.858953 
L 355.046073 215.216613 
L 355.094264 215.147883 
L 355.200791 214.625762 
L 355.672555 211.353189 
L 355.819664 211.295731 
L 355.832345 211.304869 
L 356.004818 211.587638 
L 356.474045 212.848624 
L 356.593255 212.683582 
L 356.841818 212.473896 
L 357.014291 212.640004 
L 357.341482 213.350909 
L 357.519027 213.795772 
L 357.559609 213.611208 
L 357.917236 211.83114 
L 358.056736 211.853291 
L 358.252036 212.222051 
L 358.8912 214.139766 
L 358.985045 214.307751 
L 359.035773 214.225465 
L 359.555727 212.94203 
L 359.606455 212.971533 
L 359.822045 213.283134 
L 360.522082 214.827378 
L 360.605782 214.575078 
L 360.905073 212.649795 
L 361.4301 209.032754 
L 361.5417 209.036542 
L 361.559455 209.056752 
L 361.731927 209.459807 
L 362.137745 211.140524 
L 362.642482 213.18483 
L 362.683064 213.097725 
L 363.114245 211.934326 
L 363.2715 212.067834 
L 363.563182 212.695455 
L 364.707082 215.366981 
L 365.006373 215.725227 
L 365.039345 215.683075 
L 365.1966 215.147659 
L 365.536473 214.242269 
L 365.741918 214.185118 
L 365.980336 214.396727 
L 366.269482 214.723968 
L 366.320209 214.65201 
L 366.830018 213.894767 
L 367.045609 214.082244 
L 367.124236 214.153872 
L 367.169891 214.062964 
L 367.677164 212.875646 
L 367.854709 213.016353 
L 367.956164 213.123562 
L 367.999282 213.035424 
L 368.422855 212.056413 
L 368.425391 212.057242 
L 368.590255 212.23274 
L 368.914909 212.996545 
L 369.926918 215.468922 
L 370.4976 216.237287 
L 371.113936 216.70012 
L 371.915427 217.009412 
L 372.625609 217.087913 
L 372.765109 216.344888 
L 373.125273 214.764413 
L 373.345936 214.573438 
L 373.424564 214.47984 
L 373.581818 213.227621 
L 373.581818 213.227621 
" clip-path="url(#p2b42a52329)" style="fill: none; stroke: #000000; stroke-width: 1.5; stroke-linecap: square"/>
   </g>
   <g id="line2d_15">
    <path d="M 69.218182 191.1168 
L 69.357682 210.423305 
L 69.613855 214.059338 
L 69.786327 214.596295 
L 69.788864 214.595989 
L 70.055182 214.446866 
L 70.260627 213.416095 
L 70.509191 212.789589 
L 70.648691 212.844164 
L 70.856673 213.262542 
L 71.5491 215.420636 
L 71.954918 216.384755 
L 71.982818 216.337158 
L 72.1071 215.608912 
L 72.391173 214.43597 
L 72.573791 213.976395 
L 72.852791 213.463245 
L 73.0278 213.506912 
L 73.126718 213.619899 
L 73.141936 213.472023 
L 73.568045 208.146075 
L 73.649209 208.114883 
L 73.689791 208.161111 
L 73.849582 208.623471 
L 74.240182 210.62629 
L 74.453236 211.526544 
L 74.503964 211.47735 
L 74.803255 211.171396 
L 74.818473 211.18107 
L 74.970655 211.147817 
L 75.269945 211.004414 
L 75.450027 211.253864 
L 75.779755 212.186344 
L 76.702991 214.889371 
L 76.735964 214.910498 
L 76.784155 214.809087 
L 77.080909 213.443918 
L 77.514627 211.385318 
L 77.6871 211.333774 
L 77.869718 211.590802 
L 78.278073 212.664375 
L 79.044055 214.5397 
L 79.579227 215.280612 
L 80.124545 215.668029 
L 80.784 215.855423 
L 81.806155 215.887822 
L 84.750873 215.665738 
L 85.4154 215.506801 
L 85.567582 214.180333 
L 85.935355 211.809913 
L 86.254936 210.343302 
L 86.435018 210.255143 
L 86.612564 210.485218 
L 87.000627 211.457594 
L 87.715882 213.126125 
L 88.228227 213.773931 
L 88.738036 214.074925 
L 89.344227 214.166659 
L 89.455827 214.062205 
L 89.623227 212.922836 
L 89.950418 211.307943 
L 90.171082 211.076796 
L 90.368918 211.179207 
L 90.784882 211.731922 
L 91.520427 212.611885 
L 91.852691 212.826151 
L 91.872982 212.773101 
L 91.987118 211.807895 
L 92.573018 207.027403 
L 92.727736 206.912762 
L 92.742955 206.921255 
L 92.902745 207.159098 
L 93.257836 208.198919 
L 94.079618 210.53134 
L 94.602109 211.357932 
L 95.1246 211.786992 
L 95.730791 211.992734 
L 96.608373 212.033496 
L 97.204418 211.911219 
L 97.343918 210.565856 
L 97.633064 208.736587 
L 97.851191 208.449741 
L 98.028736 208.544936 
L 98.142873 208.649936 
L 98.183455 208.552123 
L 98.741455 206.891814 
L 98.921536 207.049455 
L 99.291845 207.760118 
L 100.098409 209.248063 
L 100.516909 209.663851 
L 100.532127 209.641489 
L 100.625973 209.14704 
L 100.768009 207.397514 
L 101.181436 200.857995 
L 101.551745 197.357188 
L 101.914445 195.04538 
L 102.251782 191.782601 
L 102.4065 191.686883 
L 102.624627 191.771243 
L 102.784418 192.287336 
L 103.0761 194.162758 
L 104.362036 203.267093 
L 104.552264 203.907389 
L 104.600455 203.848189 
L 105.105191 202.909983 
L 105.148309 202.937685 
L 105.374045 203.263525 
L 106.505264 205.62447 
L 106.553455 205.317131 
L 106.946591 202.398774 
L 107.116527 202.295655 
L 107.1216 202.298371 
L 107.299145 202.526843 
L 107.7354 203.571838 
L 108.476018 205.166972 
L 108.853936 205.651812 
L 108.881836 205.614335 
L 109.003582 205.095867 
L 109.921745 200.612802 
L 110.101827 200.543197 
L 110.304736 200.788749 
L 110.408727 200.982033 
L 110.444236 200.816502 
L 110.880491 198.159699 
L 111.2508 195.829214 
L 111.547555 193.9901 
L 111.654082 193.92087 
L 111.692127 193.954199 
L 111.844309 194.319265 
L 112.075118 195.230747 
L 112.146136 194.972367 
L 112.412455 192.891937 
L 112.683845 191.482485 
L 112.894364 191.229916 
L 113.026255 191.388705 
L 113.249455 192.099573 
L 113.726291 194.554419 
L 114.061091 195.981676 
L 114.091527 195.968149 
L 114.421255 195.870759 
L 114.634309 196.210423 
L 114.969109 197.078313 
L 115.037591 196.841613 
L 115.415509 195.382794 
L 115.555009 195.427255 
L 115.757918 195.832477 
L 116.280409 197.544424 
L 116.531509 198.287842 
L 116.582236 198.190272 
L 117.152918 196.630508 
L 117.170673 196.637432 
L 117.302564 196.706898 
L 117.333 196.60355 
L 117.546055 195.085453 
L 118.0026 191.678472 
L 118.164927 191.533414 
L 118.180145 191.541427 
L 118.327255 191.768597 
L 118.603718 192.705947 
L 120.102709 198.476928 
L 120.670855 199.538856 
L 121.2669 200.197698 
L 121.477418 200.350658 
L 121.500245 200.247728 
L 121.677791 197.897107 
L 121.928891 196.413824 
L 122.126727 196.216978 
L 122.304273 196.356691 
L 122.674582 197.018009 
L 123.5547 198.556614 
L 124.130455 199.108418 
L 124.305464 199.168046 
L 124.330827 199.113551 
L 124.477936 198.358095 
L 124.8939 196.470581 
L 125.155145 196.129019 
L 125.365664 196.172002 
L 125.680173 196.518415 
L 127.006691 198.177871 
L 127.364318 198.399844 
L 127.387145 198.33581 
L 127.536791 197.176633 
L 127.861445 195.413349 
L 128.092255 195.107853 
L 128.277409 195.186221 
L 128.591918 195.63235 
L 129.8043 197.513745 
L 129.994527 197.657469 
L 130.030036 197.592985 
L 130.189827 196.841769 
L 130.542382 195.534632 
L 130.755436 194.951093 
L 131.024291 192.055651 
L 131.318509 189.997635 
L 131.503664 189.771111 
L 131.508736 189.773052 
L 131.564536 189.746675 
L 131.584827 189.686813 
L 131.683745 188.914861 
L 132.249355 183.862089 
L 132.391391 183.652312 
L 132.419291 183.669603 
L 132.546109 183.940495 
L 132.799745 185.136467 
L 133.786391 190.956908 
L 133.872627 190.767845 
L 134.217573 189.971747 
L 134.372291 190.042308 
L 134.608173 190.473515 
L 135.303136 192.415624 
L 135.962591 193.867854 
L 136.535809 194.622956 
L 136.624582 194.665245 
L 136.660091 194.594661 
L 136.827491 193.765733 
L 137.223164 192.165823 
L 137.598545 191.286985 
L 137.821745 191.217665 
L 137.902909 191.232698 
L 137.920664 191.134795 
L 138.420327 188.151669 
L 138.514173 188.01512 
L 138.985936 186.111234 
L 139.034127 186.138056 
L 139.196455 186.431344 
L 139.533791 187.613444 
L 139.873664 188.74069 
L 139.911709 188.696946 
L 140.056282 188.142943 
L 140.363182 186.228113 
L 140.659936 184.24436 
L 140.799436 184.11975 
L 140.8248 184.135713 
L 140.974445 184.407291 
L 141.278809 185.536272 
L 142.597718 190.866075 
L 143.188691 192.184604 
L 143.688355 192.879153 
L 143.703573 192.857958 
L 143.799955 192.374438 
L 144.188018 189.054652 
L 144.461945 182.935135 
L 144.725727 180.289808 
L 145.182273 178.897625 
L 145.286264 178.878426 
L 145.314164 178.9083 
L 145.352209 178.950425 
L 145.377573 178.830822 
L 145.537364 176.498334 
L 145.785927 174.573085 
L 145.862018 174.514864 
L 145.907673 174.567209 
L 146.049709 175.051008 
L 146.374364 177.160715 
L 146.848664 179.78863 
L 146.866418 179.772078 
L 147.023673 179.306996 
L 147.206291 179.090602 
L 147.218973 179.09641 
L 147.401591 179.265584 
L 147.459927 179.111451 
L 147.774436 178.453368 
L 147.898718 178.608239 
L 148.119382 179.340943 
L 148.433891 180.756487 
L 148.515055 180.566142 
L 148.796591 179.121715 
L 149.248064 176.348209 
L 149.4459 175.853256 
L 149.714755 174.990823 
L 149.821282 175.087397 
L 150.006436 175.673396 
L 150.331091 177.17314 
L 150.417327 176.936035 
L 150.759736 175.939276 
L 150.881482 176.033483 
L 151.074245 176.563778 
L 151.4547 178.403517 
L 152.644255 184.378079 
L 153.278345 186.338856 
L 153.349364 186.431573 
L 153.400091 186.344196 
L 153.623291 185.343987 
L 154.422245 182.283455 
L 154.462827 182.30237 
L 154.6353 182.558404 
L 154.987855 183.570721 
L 155.041118 183.183721 
L 155.345482 181.092626 
L 155.457082 181.039282 
L 155.487518 181.064686 
L 155.601655 181.167795 
L 155.647309 181.082366 
L 156.035373 180.17648 
L 156.0861 180.211909 
L 156.256036 180.534581 
L 156.600982 181.79023 
L 156.897736 182.918578 
L 156.958609 182.815269 
L 157.169127 181.913491 
L 157.610455 179.522522 
L 157.749955 179.488458 
L 157.765173 179.501393 
L 157.935109 179.815267 
L 158.280055 181.029316 
L 158.916682 183.166793 
L 159.2388 183.485195 
L 159.786655 184.498565 
L 159.817091 184.528208 
L 159.855136 184.407641 
L 160.116382 182.329271 
L 160.339582 179.383304 
L 160.643945 176.69315 
L 160.808809 176.427785 
L 160.826564 176.435492 
L 160.950845 176.639684 
L 161.196873 177.579731 
L 162.193664 182.755538 
L 162.272291 182.196916 
L 162.731373 177.891983 
L 162.858191 177.791299 
L 162.888627 177.813415 
L 163.020518 177.990279 
L 163.076318 177.849974 
L 163.436482 176.931702 
L 163.441555 176.933232 
L 163.568373 177.094948 
L 163.799182 177.850372 
L 164.027455 178.703735 
L 164.0934 178.605887 
L 164.4003 178.084824 
L 164.420591 178.095902 
L 164.565164 178.331368 
L 164.8467 179.31951 
L 166.188436 184.67245 
L 166.211264 184.654684 
L 166.335545 184.307254 
L 166.728682 183.311894 
L 166.926518 183.284699 
L 167.114209 183.424538 
L 167.149718 183.293999 
L 167.334873 181.676044 
L 167.743227 178.102684 
L 167.905555 177.922812 
L 167.920773 177.930082 
L 168.062809 178.143494 
L 168.346882 179.073845 
L 169.483173 183.444214 
L 169.528827 183.320012 
L 170.074145 180.976497 
L 170.099509 180.98456 
L 170.271982 181.183418 
L 170.634682 182.034855 
L 171.240873 183.553302 
L 171.286527 183.485685 
L 171.415882 182.852935 
L 172.189473 176.05565 
L 172.3518 175.994133 
L 172.564855 175.954926 
L 172.750009 176.034647 
L 172.968136 176.441221 
L 173.348591 177.717532 
L 174.013118 180.287118 
L 174.0816 180.144661 
L 174.489955 179.157033 
L 174.675109 179.036883 
L 175.004836 176.576293 
L 175.321882 173.811342 
L 175.463918 173.618571 
L 175.491818 173.635094 
L 175.575518 173.702516 
L 175.6161 173.597775 
L 176.077718 171.267557 
L 176.328818 170.568622 
L 176.442955 170.654297 
L 176.5368 170.75219 
L 176.587527 170.687361 
L 176.907109 170.217033 
L 176.945155 170.248194 
L 177.099873 170.591261 
L 177.269809 171.228833 
L 177.333218 170.972229 
L 177.584318 170.168053 
L 177.688309 170.28002 
L 177.878536 170.933266 
L 178.220945 172.794233 
L 178.309718 172.39237 
L 178.558282 171.576214 
L 178.702855 171.378758 
L 179.042727 170.133828 
L 179.057945 170.138712 
L 179.174618 170.314421 
L 179.400355 171.16987 
L 179.648918 172.486673 
L 179.699645 172.106217 
L 179.948209 170.634231 
L 180.031909 170.666868 
L 180.049664 170.694866 
L 180.2196 171.218692 
L 180.635564 173.410873 
L 181.3635 176.981729 
L 182.093973 179.611381 
L 182.745818 181.167972 
L 183.075545 181.561794 
L 183.235336 181.659213 
L 183.265773 181.577525 
L 183.430636 180.442392 
L 183.600573 178.429349 
L 183.965809 170.944884 
L 184.830709 159.855297 
L 184.957527 159.630135 
L 184.993036 159.658142 
L 185.114782 160.001197 
L 185.358273 161.507627 
L 185.989827 167.269797 
L 186.466664 171.054547 
L 186.502173 171.024832 
L 186.735518 170.809964 
L 186.765955 170.838655 
L 186.953645 171.235811 
L 188.095009 174.191062 
L 188.127982 174.122101 
L 188.3106 173.023405 
L 188.551555 172.311393 
L 188.7012 172.326654 
L 188.876209 172.668184 
L 189.218618 173.941901 
L 190.255991 178.334729 
L 190.294036 178.134443 
L 190.71 175.135542 
L 190.872327 175.209508 
L 191.0448 175.403743 
L 191.098064 175.307135 
L 191.836145 173.031925 
L 192.219136 169.325163 
L 192.528573 163.722437 
L 192.8025 162.783328 
L 193.035845 162.282627 
L 193.038382 162.28335 
L 193.144909 162.433999 
L 193.337673 163.210193 
L 193.702909 165.219486 
L 193.771391 164.942483 
L 194.177209 161.580479 
L 194.265982 161.664686 
L 194.433382 161.994164 
L 194.5044 161.917629 
L 194.844273 161.216911 
L 195.052255 160.804251 
L 195.059864 160.806944 
L 195.171464 160.980765 
L 195.374373 161.822034 
L 195.835991 163.733239 
L 195.970418 163.910248 
L 196.208836 164.717697 
L 196.523345 166.158823 
L 196.609582 166.026396 
L 196.678064 165.626044 
L 197.010327 163.363285 
L 197.088955 163.363181 
L 197.121927 163.407251 
L 197.281718 163.899993 
L 197.624127 165.845125 
L 198.864409 173.145424 
L 199.455382 175.433152 
L 199.856127 176.50346 
L 199.901782 176.413207 
L 200.495291 174.650646 
L 200.525727 174.663542 
L 200.708345 174.779423 
L 200.746391 174.666186 
L 200.842773 173.811117 
L 201.8142 160.63539 
L 201.859855 160.672612 
L 201.946091 160.823351 
L 201.999355 160.692131 
L 202.227627 160.182101 
L 202.252991 160.196261 
L 202.509164 160.267985 
L 202.625836 160.3389 
L 202.788164 160.83717 
L 203.107745 162.693432 
L 203.249782 163.322013 
L 203.305582 163.286816 
L 203.490736 163.265793 
L 203.493273 163.268664 
L 203.647991 163.619953 
L 203.802709 164.2137 
L 203.845827 163.92325 
L 204.183164 160.950053 
L 204.200918 160.957502 
L 204.299836 161.172684 
L 204.525573 162.341824 
L 204.7158 163.301526 
L 204.774136 163.236338 
L 204.961827 163.066547 
L 204.987191 163.08714 
L 205.339745 163.30113 
L 205.497 163.316515 
L 205.532509 163.342835 
L 205.565482 163.226923 
L 205.862236 160.939078 
L 206.022027 158.165394 
L 206.290882 155.007788 
L 206.509009 154.445946 
L 206.610464 154.573066 
L 206.790545 155.274738 
L 207.097445 157.16063 
L 207.216655 156.931396 
L 207.305427 156.895428 
L 207.343473 156.93818 
L 207.488045 157.375183 
L 207.782264 159.145787 
L 209.210236 168.939135 
L 209.2914 168.828934 
L 209.590691 167.929039 
L 209.900127 164.152902 
L 210.166445 163.088166 
L 210.529145 160.491843 
L 210.638209 159.536699 
L 210.896918 157.990806 
L 210.988227 157.66992 
L 211.249473 154.482932 
L 211.477745 153.384231 
L 211.553836 153.413963 
L 211.574127 153.448577 
L 211.723773 153.989917 
L 212.608964 159.077206 
L 214.318473 170.624411 
L 214.346373 170.590469 
L 214.513773 169.968003 
L 214.782627 169.412524 
L 214.851109 169.231661 
L 214.970318 167.937211 
L 215.642455 155.439737 
L 215.852973 154.557433 
L 215.941745 154.645125 
L 216.423655 155.971091 
L 216.4617 156.048367 
L 216.514964 155.892531 
L 217.078036 152.991952 
L 217.174418 153.130188 
L 217.3545 153.911904 
L 217.727345 156.745817 
L 218.635364 164.106662 
L 218.668336 163.99734 
L 218.787545 162.506586 
L 219.127418 158.980864 
L 219.218727 158.191772 
L 219.566209 153.575611 
L 219.616936 153.558049 
L 219.662591 153.626174 
L 219.8097 154.236032 
L 220.149573 156.825687 
L 220.5072 159.430465 
L 220.552855 159.388902 
L 220.816636 159.117218 
L 220.842 159.138323 
L 220.996718 159.457999 
L 221.273182 160.655455 
L 221.387318 161.000701 
L 221.440582 160.958154 
L 221.676464 160.820131 
L 221.686609 160.829339 
L 221.838791 161.137993 
L 222.145691 162.415513 
L 222.789927 166.191444 
L 223.406264 169.441601 
L 223.434164 169.411206 
L 223.609173 168.834169 
L 223.839982 168.483112 
L 224.012455 168.594876 
L 224.2458 169.008668 
L 224.644009 170.291314 
L 224.961055 171.457592 
L 225.004173 171.227601 
L 225.6129 166.524433 
L 225.734645 166.600926 
L 225.929945 167.096407 
L 226.475264 169.262154 
L 226.536136 168.779485 
L 226.794845 167.16078 
L 226.903909 167.115454 
L 226.934345 167.142371 
L 227.101745 167.499082 
L 227.472055 168.939547 
L 228.676827 173.78024 
L 228.892418 174.199418 
L 228.922855 174.15813 
L 229.052209 173.567777 
L 229.4073 172.20996 
L 229.600064 172.116082 
L 229.785218 172.315059 
L 230.1327 173.092757 
L 231.515018 176.481415 
L 231.5277 176.472542 
L 231.621545 176.217822 
L 232.207445 174.377831 
L 232.395136 174.394965 
L 232.499127 174.436144 
L 232.5321 174.359138 
L 233.097709 172.764499 
L 233.1459 172.791107 
L 233.3412 173.085133 
L 233.7318 174.175765 
L 234.979691 177.792178 
L 235.101436 177.957069 
L 235.1268 177.848206 
L 235.694945 174.37647 
L 235.844591 174.442603 
L 236.060182 174.720894 
L 236.123591 174.594242 
L 236.321427 173.704621 
L 236.785582 169.694185 
L 236.909864 169.634307 
L 236.935227 169.654517 
L 237.097555 169.974046 
L 237.277636 170.551231 
L 237.323291 170.281119 
L 238.030936 163.176878 
L 238.190727 162.778321 
L 238.213555 162.789629 
L 238.325155 163.025311 
L 238.561036 164.179094 
L 239.134255 166.992593 
L 239.3397 167.194661 
L 239.732836 168.111779 
L 240.095536 169.402604 
L 241.566627 175.119502 
L 241.584382 175.153936 
L 241.619891 174.953616 
L 242.028245 172.109713 
L 242.180427 172.070588 
L 242.188036 172.076338 
L 242.373191 172.367898 
L 242.773936 173.520028 
L 243.907691 176.818891 
L 244.366773 177.592476 
L 244.871509 177.742653 
L 245.437118 178.315972 
L 246.172664 179.161737 
L 246.208173 179.048927 
L 246.608918 176.370379 
L 246.7611 172.561125 
L 247.100973 166.885949 
L 247.334318 165.718095 
L 247.418018 165.711052 
L 247.450991 165.752688 
L 247.608245 166.219174 
L 247.937973 168.05419 
L 249.043827 174.511692 
L 249.568855 176.446607 
L 249.584073 176.420498 
L 249.705818 175.693854 
L 249.994964 174.589737 
L 250.393173 173.202584 
L 250.712755 172.082496 
L 250.8903 172.030437 
L 251.072918 172.279138 
L 251.288509 172.789209 
L 251.334164 172.568254 
L 251.729836 170.325842 
L 251.854118 170.373556 
L 252.044345 170.809809 
L 252.495818 172.558131 
L 253.2339 175.368608 
L 253.256727 175.303607 
L 253.472318 173.635811 
L 253.586455 171.166824 
L 253.880673 166.454345 
L 254.083582 165.816201 
L 254.185036 165.918835 
L 254.372727 166.540849 
L 254.808982 168.955973 
L 255.184364 170.702905 
L 255.207191 170.693738 
L 255.356836 170.469857 
L 255.722073 169.961962 
L 255.879327 170.083687 
L 256.120282 170.627686 
L 257.479773 174.567698 
L 257.522891 174.443791 
L 258.025091 172.188465 
L 258.070745 172.211123 
L 258.240682 172.484167 
L 258.600845 173.590492 
L 258.763173 174.050073 
L 258.816436 173.961545 
L 259.290736 172.712135 
L 259.346536 172.749588 
L 259.546909 173.101194 
L 259.978091 174.398287 
L 260.9343 177.195479 
L 261.583609 178.402752 
L 262.255745 179.196671 
L 262.549964 179.425018 
L 262.5804 179.351141 
L 262.752873 178.285704 
L 263.097818 176.721921 
L 263.3337 176.460209 
L 263.531536 176.545018 
L 263.561973 176.550194 
L 263.592409 176.45251 
L 263.795318 174.794013 
L 264.041345 173.86632 
L 264.1986 173.853564 
L 264.391364 174.164034 
L 265.106618 175.48599 
L 265.416055 175.928927 
L 267.698782 179.812407 
L 268.168009 180.300379 
L 268.185764 180.209834 
L 269.045591 173.506668 
L 269.174945 173.634631 
L 269.4159 174.283822 
L 271.254764 180.146713 
L 271.825445 180.892713 
L 272.005527 180.963579 
L 272.028355 180.936784 
L 272.388518 180.282454 
L 272.6244 177.775563 
L 272.893255 176.436426 
L 273.091091 176.278588 
L 273.271173 176.446377 
L 273.621191 177.158461 
L 274.866545 179.841511 
L 274.917273 179.852834 
L 274.957855 179.780547 
L 275.188664 178.863989 
L 275.493027 178.15441 
L 275.711155 178.093393 
L 275.954645 178.293994 
L 275.969864 178.302212 
L 275.997764 178.175329 
L 276.903245 172.077815 
L 276.913391 172.079814 
L 277.027527 172.173288 
L 277.047818 172.01825 
L 277.413055 169.238233 
L 277.517045 169.309216 
L 277.694591 169.841091 
L 278.130845 172.044683 
L 278.648264 174.690287 
L 278.693918 174.524607 
L 279.046473 173.073149 
L 279.289964 172.97388 
L 279.4041 173.095578 
L 279.434536 172.941336 
L 279.870791 170.217521 
L 279.875864 170.218409 
L 279.992536 170.359549 
L 280.225882 171.098207 
L 281.014691 174.698546 
L 281.757845 177.438668 
L 282.039382 178.206193 
L 282.077427 178.07068 
L 282.518755 176.044088 
L 282.757173 175.798545 
L 283.241618 174.803531 
L 283.424236 174.868913 
L 283.682945 175.263048 
L 283.883318 175.662069 
L 283.9239 175.513172 
L 284.073545 173.713969 
L 284.405809 170.705427 
L 284.575745 169.557852 
L 284.996782 165.299297 
L 285.121064 165.151855 
L 285.156573 165.178294 
L 285.296073 165.505332 
L 285.582682 166.880252 
L 285.648627 167.127767 
L 285.704427 166.945731 
L 286.105173 165.334657 
L 286.110245 165.335742 
L 286.226918 165.483523 
L 286.442509 166.224497 
L 286.620055 166.976801 
L 286.680927 166.796119 
L 286.962464 165.947768 
L 286.972609 165.95092 
L 287.086745 166.121819 
L 287.315018 166.978329 
L 287.6067 168.091708 
L 287.647282 168.024447 
L 287.771564 167.193625 
L 288.068318 165.705611 
L 288.179918 165.66531 
L 288.210355 165.693818 
L 288.367609 166.052276 
L 288.687191 167.464194 
L 289.574918 172.104308 
L 289.635791 171.858706 
L 289.955373 170.615032 
L 290.092336 170.337634 
L 290.460109 167.56471 
L 290.556491 167.560054 
L 290.584391 167.592348 
L 290.754327 168.018911 
L 291.142391 169.745479 
L 291.598936 171.838559 
L 291.6522 171.739616 
L 291.809455 170.831323 
L 292.316727 167.349466 
L 292.438473 167.311358 
L 292.4613 167.331587 
L 292.621091 167.66205 
L 292.940673 168.95217 
L 293.615345 172.15667 
L 293.691436 172.012189 
L 293.927318 170.926555 
L 294.373718 162.880923 
L 294.596918 161.775577 
L 294.680618 161.779289 
L 294.708518 161.81606 
L 294.868309 162.28518 
L 295.210718 164.143112 
L 296.253164 170.212427 
L 296.2836 170.186375 
L 296.476364 169.701868 
L 296.699564 169.46777 
L 296.854282 169.616084 
L 297.110455 170.112075 
L 297.186545 169.949014 
L 297.518809 168.497864 
L 298.216309 161.344977 
L 298.469945 159.136283 
L 298.576473 159.001597 
L 298.617055 159.036911 
L 298.764164 159.434551 
L 299.050773 160.852886 
L 299.814218 166.337855 
L 300.341782 169.230058 
L 300.463527 169.118771 
L 300.557373 168.825634 
L 301.044355 166.026021 
L 301.059573 166.030535 
L 301.186391 166.21035 
L 301.434955 167.057295 
L 302.304927 171.243859 
L 302.462182 171.764162 
L 302.515445 171.68553 
L 303.015109 170.658385 
L 303.037936 170.670108 
L 303.218018 170.911696 
L 303.555355 171.823156 
L 303.948491 173.083863 
L 304.004291 172.905348 
L 304.407573 171.333263 
L 304.542 171.410367 
L 304.767736 171.889798 
L 305.371391 173.87381 
L 306.028309 175.707255 
L 306.685227 176.943378 
L 307.372582 177.77543 
L 308.176609 178.398884 
L 308.214655 178.285351 
L 308.387127 176.548332 
L 308.673736 174.832999 
L 308.934982 173.819939 
L 309.325582 167.592919 
L 309.645164 165.142782 
L 309.769445 165.018064 
L 309.802418 165.042484 
L 309.944455 165.3573 
L 310.2336 166.666437 
L 311.108645 171.617567 
L 311.156836 171.08715 
L 311.428227 168.559957 
L 311.517 168.496397 
L 311.560118 168.537608 
L 311.724982 168.962539 
L 312.062318 170.168101 
L 312.148555 170.041309 
L 312.445309 169.640301 
L 312.589882 169.827282 
L 312.8562 170.633685 
L 314.667164 176.992125 
L 315.3672 178.295812 
L 315.717218 178.759852 
L 315.750191 178.68934 
L 315.8973 177.73033 
L 316.219418 176.221385 
L 316.807855 174.725302 
L 316.833218 174.735895 
L 317.079245 174.986983 
L 317.279618 175.324653 
L 317.310055 175.134986 
L 317.672755 172.404291 
L 317.814791 172.341657 
L 317.832545 172.354004 
L 318.010091 172.64074 
L 318.398155 173.799687 
L 318.740564 174.902261 
L 318.793827 174.755196 
L 318.933327 173.480606 
L 319.3011 170.527527 
L 319.547127 170.106512 
L 319.785545 169.989361 
L 319.952945 170.128978 
L 319.983382 169.961533 
L 320.399345 167.535309 
L 320.505873 167.424823 
L 320.929445 166.226191 
L 320.957345 166.237243 
L 321.112064 166.440001 
L 321.223664 166.726117 
L 321.269318 166.525725 
L 322.585691 157.843009 
L 322.605982 157.851339 
L 322.712509 158.058361 
L 322.920491 159.071517 
L 323.760027 163.669061 
L 323.980691 164.437403 
L 324.439773 167.068993 
L 325.2438 171.403659 
L 325.352864 171.343381 
L 325.659764 171.122346 
L 325.730782 171.171894 
L 325.743464 171.057016 
L 326.182255 166.226603 
L 326.418136 165.646094 
L 326.534809 165.731366 
L 326.719964 166.245117 
L 327.092809 168.086251 
L 327.904445 172.578855 
L 327.955173 172.35383 
L 328.295045 170.663222 
L 328.416791 170.731383 
L 328.6197 171.200863 
L 329.015373 172.319851 
L 329.048345 172.15968 
L 329.2056 169.845233 
L 329.464309 164.117322 
L 329.768673 158.218422 
L 329.9868 157.191022 
L 330.225218 156.90573 
L 330.402764 156.539313 
L 330.4332 156.559567 
L 330.549873 156.852632 
L 330.788291 158.206008 
L 331.678555 163.737474 
L 331.780009 163.818415 
L 331.812982 163.715599 
L 332.507945 160.579527 
L 332.563745 160.624501 
L 332.713391 161.018797 
L 333.010145 162.568447 
L 333.552927 165.795102 
L 333.626482 165.726361 
L 333.837 165.63728 
L 334.012009 165.743474 
L 334.052591 165.674925 
L 334.455873 165.083852 
L 334.5345 164.987042 
L 334.930173 163.903936 
L 335.006264 163.979299 
L 335.188882 164.483554 
L 335.6226 166.332434 
L 335.744345 166.14035 
L 335.939645 165.992722 
L 335.944718 165.99568 
L 336.122264 166.168236 
L 336.175527 166.02074 
L 336.528082 165.138343 
L 336.657436 165.274444 
L 336.883173 165.92626 
L 337.395518 168.269343 
L 337.666909 169.545233 
L 337.712564 169.291923 
L 338.0499 167.045223 
L 338.156427 167.066812 
L 338.171645 167.086003 
L 338.354264 167.527009 
L 338.760082 168.465326 
L 339.155755 169.685847 
L 340.370673 173.652104 
L 340.385891 173.637313 
L 340.474664 173.25985 
L 340.860191 171.666171 
L 341.047882 171.590081 
L 341.238109 171.805059 
L 341.605882 172.637164 
L 342.937473 175.829834 
L 343.523373 176.659571 
L 344.274136 176.726127 
L 344.725609 177.047228 
L 344.766191 176.920778 
L 345.435791 174.315204 
L 345.615873 174.437139 
L 345.704645 174.544887 
L 345.735082 174.407295 
L 345.839073 172.674515 
L 346.211918 166.851384 
L 346.4478 165.944391 
L 346.556864 165.923227 
L 346.584764 165.95228 
L 346.744555 166.338728 
L 347.069209 167.843558 
L 348.4566 174.787169 
L 349.118591 176.785917 
L 349.1541 176.817352 
L 349.199755 176.70784 
L 349.410273 175.340882 
L 349.661373 174.532134 
L 349.821164 174.530542 
L 350.026609 174.839329 
L 350.495836 176.058656 
L 351.269427 177.920189 
L 352.096282 178.446785 
L 353.572445 179.718542 
L 353.615564 179.730811 
L 353.643464 179.637199 
L 353.790573 178.219528 
L 354.089864 176.25972 
L 354.305455 175.96856 
L 354.475391 176.068311 
L 354.779755 176.579455 
L 355.048609 177.080322 
L 355.101873 176.993547 
L 355.203327 176.415732 
L 355.7385 172.077992 
L 355.900827 171.97619 
L 355.910973 171.982034 
L 356.0733 172.219999 
L 356.471509 173.253289 
L 356.583109 173.071271 
L 356.862109 172.71929 
L 357.016827 172.852647 
L 357.280609 173.451625 
L 357.521564 174.177875 
L 357.569755 173.941268 
L 357.937527 171.945042 
L 358.069418 171.938998 
L 358.079564 171.948786 
L 358.259645 172.294763 
L 358.665464 173.687071 
L 358.997727 174.8066 
L 359.048455 174.725932 
L 359.395936 173.432488 
L 359.710445 172.784614 
L 359.860091 172.866161 
L 360.101045 173.332417 
L 360.532227 174.51918 
L 360.608318 174.312823 
L 360.864491 172.700979 
L 361.490973 167.765895 
L 361.600036 167.794668 
L 361.610182 167.808208 
L 361.780118 168.246591 
L 362.137745 169.933825 
L 362.655164 172.645431 
L 362.718573 172.489771 
L 363.0762 171.539695 
L 363.218236 171.624648 
L 363.443973 172.108474 
L 363.994364 173.980625 
L 364.813609 176.486595 
L 365.021591 176.875284 
L 365.067245 176.815791 
L 365.2524 176.155693 
L 365.566909 175.37408 
L 365.762209 175.341578 
L 365.987945 175.582494 
L 366.272018 175.984226 
L 366.327818 175.904887 
L 366.873136 175.02281 
L 367.083655 175.240215 
L 367.124236 175.265046 
L 367.169891 175.171768 
L 367.897827 173.178153 
L 367.994209 172.91636 
L 368.448218 171.088862 
L 368.587718 171.158719 
L 368.800773 171.605579 
L 369.275073 173.25419 
L 370.282009 176.641606 
L 370.984582 178.221181 
L 371.715055 179.332003 
L 372.313636 179.904406 
L 372.623073 179.657563 
L 372.760036 178.820731 
L 373.145564 176.753383 
L 373.3713 176.489927 
L 373.424564 176.381996 
L 373.581818 174.960765 
L 373.581818 174.960765 
" clip-path="url(#p2b42a52329)" style="fill: none; stroke: #ff0000; stroke-width: 1.5; stroke-linecap: square"/>
   </g>
   <g id="line2d_16">
    <path d="M 81.899894 143.28 
L 84.431164 143.28 
L 84.431164 143.28 
" clip-path="url(#p2b42a52329)" style="fill: none; stroke: #000000; stroke-width: 1.5; stroke-linecap: square"/>
   </g>
   <g id="line2d_17">
    <path d="M 81.899894 165.024 
L 81.899894 160.6752 
L 81.899894 156.3264 
L 81.899894 151.9776 
L 81.899894 147.6288 
" clip-path="url(#p2b42a52329)" style="fill: none; stroke: #000000; stroke-width: 1.5; stroke-linecap: square"/>
   </g>
   <g id="patch_3">
    <path d="M 54 252 
L 54 34.56 
" style="fill: none; stroke: #000000; stroke-width: 0.8; stroke-linejoin: miter; stroke-linecap: square"/>
   </g>
   <g id="patch_4">
    <path d="M 54 252 
L 388.8 252 
" style="fill: none; stroke: #000000; stroke-width: 0.8; stroke-linejoin: miter; stroke-linecap: square"/>
   </g>
   <g id="text_16">
    <!-- 500 ms -->
    <g transform="translate(81.899894 138.9312)scale(0.1 -0.1)">
     <use xlink:href="#DejaVuSans-35"/>
     <use xlink:href="#DejaVuSans-30" x="63.623047"/>
     <use xlink:href="#DejaVuSans-30" x="127.246094"/>
     <use xlink:href="#DejaVuSans-20" x="190.869141"/>
     <use xlink:href="#DejaVuSans-6d" x="222.65625"/>
     <use xlink:href="#DejaVuSans-73" x="320.068359"/>
    </g>
   </g>
   <g id="text_17">
    <!-- 5 mV -->
    <g transform="translate(82.153529 156.3264)scale(0.1 -0.1)">
     <use xlink:href="#DejaVuSans-35"/>
     <use xlink:href="#DejaVuSans-20" x="63.623047"/>
     <use xlink:href="#DejaVuSans-6d" x="95.410156"/>
     <use xlink:href="#DejaVuSans-56" x="192.822266"/>
    </g>
   </g>
  </g>
 </g>
 <defs>
  <clipPath id="p2b42a52329">
   <rect x="54" y="34.56" width="334.8" height="217.44"/>
  </clipPath>
 </defs>
</svg>
