<?xml version="1.0" encoding="utf-8" standalone="no"?>
<!DOCTYPE svg PUBLIC "-//W3C//DTD SVG 1.1//EN"
  "http://www.w3.org/Graphics/SVG/1.1/DTD/svg11.dtd">
<svg height="288pt" version="1.1" viewBox="0 0 432 288" width="432pt" xmlns="http://www.w3.org/2000/svg" xmlns:xlink="http://www.w3.org/1999/xlink">
 <metadata>
  <rdf:RDF xmlns:cc="http://creativecommons.org/ns#" xmlns:dc="http://purl.org/dc/elements/1.1/" xmlns:rdf="http://www.w3.org/1999/02/22-rdf-syntax-ns#">
   <cc:Work>
    <dc:type rdf:resource="http://purl.org/dc/dcmitype/StillImage"/>
    <dc:date>2021-07-08T12:23:24.489645</dc:date>
    <dc:format>image/svg+xml</dc:format>
    <dc:creator>
     <cc:Agent>
      <dc:title>Matplotlib v3.4.1, https://matplotlib.org/</dc:title>
     </cc:Agent>
    </dc:creator>
   </cc:Work>
  </rdf:RDF>
 </metadata>
 <defs>
  <style type="text/css">*{stroke-linecap:butt;stroke-linejoin:round;}</style>
 </defs>
 <g id="figure_1">
  <g id="patch_1">
   <path d="M 0 288 
L 432 288 
L 432 0 
L 0 0 
z
" style="fill:none;"/>
  </g>
  <g id="axes_1">
   <g id="patch_2">
    <path d="M 54 252 
L 388.8 252 
L 388.8 34.56 
L 54 34.56 
z
" style="fill:#ffffff;"/>
   </g>
   <g id="matplotlib.axis_1">
    <g id="xtick_1">
     <g id="line2d_1">
      <defs>
       <path d="M 0 0 
L 0 3.5 
" id="mc01f04f467" style="stroke:#000000;stroke-width:0.8;"/>
      </defs>
      <g>
       <use style="stroke:#000000;stroke-width:0.8;" x="69.218182" xlink:href="#mc01f04f467" y="252"/>
      </g>
     </g>
     <g id="text_1">
      <!-- 0 -->
      <g transform="translate(66.036932 266.598437)scale(0.1 -0.1)">
       <defs>
        <path d="M 2034 4250 
Q 1547 4250 1301 3770 
Q 1056 3291 1056 2328 
Q 1056 1369 1301 889 
Q 1547 409 2034 409 
Q 2525 409 2770 889 
Q 3016 1369 3016 2328 
Q 3016 3291 2770 3770 
Q 2525 4250 2034 4250 
z
M 2034 4750 
Q 2819 4750 3233 4129 
Q 3647 3509 3647 2328 
Q 3647 1150 3233 529 
Q 2819 -91 2034 -91 
Q 1250 -91 836 529 
Q 422 1150 422 2328 
Q 422 3509 836 4129 
Q 1250 4750 2034 4750 
z
" id="DejaVuSans-30" transform="scale(0.015625)"/>
       </defs>
       <use xlink:href="#DejaVuSans-30"/>
      </g>
     </g>
    </g>
    <g id="xtick_2">
     <g id="line2d_2">
      <g>
       <use style="stroke:#000000;stroke-width:0.8;" x="119.937001" xlink:href="#mc01f04f467" y="252"/>
      </g>
     </g>
     <g id="text_2">
      <!-- 500 -->
      <g transform="translate(110.393251 266.598437)scale(0.1 -0.1)">
       <defs>
        <path d="M 691 4666 
L 3169 4666 
L 3169 4134 
L 1269 4134 
L 1269 2991 
Q 1406 3038 1543 3061 
Q 1681 3084 1819 3084 
Q 2600 3084 3056 2656 
Q 3513 2228 3513 1497 
Q 3513 744 3044 326 
Q 2575 -91 1722 -91 
Q 1428 -91 1123 -41 
Q 819 9 494 109 
L 494 744 
Q 775 591 1075 516 
Q 1375 441 1709 441 
Q 2250 441 2565 725 
Q 2881 1009 2881 1497 
Q 2881 1984 2565 2268 
Q 2250 2553 1709 2553 
Q 1456 2553 1204 2497 
Q 953 2441 691 2322 
L 691 4666 
z
" id="DejaVuSans-35" transform="scale(0.015625)"/>
       </defs>
       <use xlink:href="#DejaVuSans-35"/>
       <use x="63.623047" xlink:href="#DejaVuSans-30"/>
       <use x="127.246094" xlink:href="#DejaVuSans-30"/>
      </g>
     </g>
    </g>
    <g id="xtick_3">
     <g id="line2d_3">
      <g>
       <use style="stroke:#000000;stroke-width:0.8;" x="170.655821" xlink:href="#mc01f04f467" y="252"/>
      </g>
     </g>
     <g id="text_3">
      <!-- 1000 -->
      <g transform="translate(157.930821 266.598437)scale(0.1 -0.1)">
       <defs>
        <path d="M 794 531 
L 1825 531 
L 1825 4091 
L 703 3866 
L 703 4441 
L 1819 4666 
L 2450 4666 
L 2450 531 
L 3481 531 
L 3481 0 
L 794 0 
L 794 531 
z
" id="DejaVuSans-31" transform="scale(0.015625)"/>
       </defs>
       <use xlink:href="#DejaVuSans-31"/>
       <use x="63.623047" xlink:href="#DejaVuSans-30"/>
       <use x="127.246094" xlink:href="#DejaVuSans-30"/>
       <use x="190.869141" xlink:href="#DejaVuSans-30"/>
      </g>
     </g>
    </g>
    <g id="xtick_4">
     <g id="line2d_4">
      <g>
       <use style="stroke:#000000;stroke-width:0.8;" x="221.374641" xlink:href="#mc01f04f467" y="252"/>
      </g>
     </g>
     <g id="text_4">
      <!-- 1500 -->
      <g transform="translate(208.649641 266.598437)scale(0.1 -0.1)">
       <use xlink:href="#DejaVuSans-31"/>
       <use x="63.623047" xlink:href="#DejaVuSans-35"/>
       <use x="127.246094" xlink:href="#DejaVuSans-30"/>
       <use x="190.869141" xlink:href="#DejaVuSans-30"/>
      </g>
     </g>
    </g>
    <g id="xtick_5">
     <g id="line2d_5">
      <g>
       <use style="stroke:#000000;stroke-width:0.8;" x="272.09346" xlink:href="#mc01f04f467" y="252"/>
      </g>
     </g>
     <g id="text_5">
      <!-- 2000 -->
      <g transform="translate(259.36846 266.598437)scale(0.1 -0.1)">
       <defs>
        <path d="M 1228 531 
L 3431 531 
L 3431 0 
L 469 0 
L 469 531 
Q 828 903 1448 1529 
Q 2069 2156 2228 2338 
Q 2531 2678 2651 2914 
Q 2772 3150 2772 3378 
Q 2772 3750 2511 3984 
Q 2250 4219 1831 4219 
Q 1534 4219 1204 4116 
Q 875 4013 500 3803 
L 500 4441 
Q 881 4594 1212 4672 
Q 1544 4750 1819 4750 
Q 2544 4750 2975 4387 
Q 3406 4025 3406 3419 
Q 3406 3131 3298 2873 
Q 3191 2616 2906 2266 
Q 2828 2175 2409 1742 
Q 1991 1309 1228 531 
z
" id="DejaVuSans-32" transform="scale(0.015625)"/>
       </defs>
       <use xlink:href="#DejaVuSans-32"/>
       <use x="63.623047" xlink:href="#DejaVuSans-30"/>
       <use x="127.246094" xlink:href="#DejaVuSans-30"/>
       <use x="190.869141" xlink:href="#DejaVuSans-30"/>
      </g>
     </g>
    </g>
    <g id="xtick_6">
     <g id="line2d_6">
      <g>
       <use style="stroke:#000000;stroke-width:0.8;" x="322.81228" xlink:href="#mc01f04f467" y="252"/>
      </g>
     </g>
     <g id="text_6">
      <!-- 2500 -->
      <g transform="translate(310.08728 266.598437)scale(0.1 -0.1)">
       <use xlink:href="#DejaVuSans-32"/>
       <use x="63.623047" xlink:href="#DejaVuSans-35"/>
       <use x="127.246094" xlink:href="#DejaVuSans-30"/>
       <use x="190.869141" xlink:href="#DejaVuSans-30"/>
      </g>
     </g>
    </g>
    <g id="xtick_7">
     <g id="line2d_7">
      <g>
       <use style="stroke:#000000;stroke-width:0.8;" x="373.531099" xlink:href="#mc01f04f467" y="252"/>
      </g>
     </g>
     <g id="text_7">
      <!-- 3000 -->
      <g transform="translate(360.806099 266.598437)scale(0.1 -0.1)">
       <defs>
        <path d="M 2597 2516 
Q 3050 2419 3304 2112 
Q 3559 1806 3559 1356 
Q 3559 666 3084 287 
Q 2609 -91 1734 -91 
Q 1441 -91 1130 -33 
Q 819 25 488 141 
L 488 750 
Q 750 597 1062 519 
Q 1375 441 1716 441 
Q 2309 441 2620 675 
Q 2931 909 2931 1356 
Q 2931 1769 2642 2001 
Q 2353 2234 1838 2234 
L 1294 2234 
L 1294 2753 
L 1863 2753 
Q 2328 2753 2575 2939 
Q 2822 3125 2822 3475 
Q 2822 3834 2567 4026 
Q 2313 4219 1838 4219 
Q 1578 4219 1281 4162 
Q 984 4106 628 3988 
L 628 4550 
Q 988 4650 1302 4700 
Q 1616 4750 1894 4750 
Q 2613 4750 3031 4423 
Q 3450 4097 3450 3541 
Q 3450 3153 3228 2886 
Q 3006 2619 2597 2516 
z
" id="DejaVuSans-33" transform="scale(0.015625)"/>
       </defs>
       <use xlink:href="#DejaVuSans-33"/>
       <use x="63.623047" xlink:href="#DejaVuSans-30"/>
       <use x="127.246094" xlink:href="#DejaVuSans-30"/>
       <use x="190.869141" xlink:href="#DejaVuSans-30"/>
      </g>
     </g>
    </g>
    <g id="text_8">
     <!-- Time(ms) -->
     <g transform="translate(197.789844 280.276563)scale(0.1 -0.1)">
      <defs>
       <path d="M -19 4666 
L 3928 4666 
L 3928 4134 
L 2272 4134 
L 2272 0 
L 1638 0 
L 1638 4134 
L -19 4134 
L -19 4666 
z
" id="DejaVuSans-54" transform="scale(0.015625)"/>
       <path d="M 603 3500 
L 1178 3500 
L 1178 0 
L 603 0 
L 603 3500 
z
M 603 4863 
L 1178 4863 
L 1178 4134 
L 603 4134 
L 603 4863 
z
" id="DejaVuSans-69" transform="scale(0.015625)"/>
       <path d="M 3328 2828 
Q 3544 3216 3844 3400 
Q 4144 3584 4550 3584 
Q 5097 3584 5394 3201 
Q 5691 2819 5691 2113 
L 5691 0 
L 5113 0 
L 5113 2094 
Q 5113 2597 4934 2840 
Q 4756 3084 4391 3084 
Q 3944 3084 3684 2787 
Q 3425 2491 3425 1978 
L 3425 0 
L 2847 0 
L 2847 2094 
Q 2847 2600 2669 2842 
Q 2491 3084 2119 3084 
Q 1678 3084 1418 2786 
Q 1159 2488 1159 1978 
L 1159 0 
L 581 0 
L 581 3500 
L 1159 3500 
L 1159 2956 
Q 1356 3278 1631 3431 
Q 1906 3584 2284 3584 
Q 2666 3584 2933 3390 
Q 3200 3197 3328 2828 
z
" id="DejaVuSans-6d" transform="scale(0.015625)"/>
       <path d="M 3597 1894 
L 3597 1613 
L 953 1613 
Q 991 1019 1311 708 
Q 1631 397 2203 397 
Q 2534 397 2845 478 
Q 3156 559 3463 722 
L 3463 178 
Q 3153 47 2828 -22 
Q 2503 -91 2169 -91 
Q 1331 -91 842 396 
Q 353 884 353 1716 
Q 353 2575 817 3079 
Q 1281 3584 2069 3584 
Q 2775 3584 3186 3129 
Q 3597 2675 3597 1894 
z
M 3022 2063 
Q 3016 2534 2758 2815 
Q 2500 3097 2075 3097 
Q 1594 3097 1305 2825 
Q 1016 2553 972 2059 
L 3022 2063 
z
" id="DejaVuSans-65" transform="scale(0.015625)"/>
       <path d="M 1984 4856 
Q 1566 4138 1362 3434 
Q 1159 2731 1159 2009 
Q 1159 1288 1364 580 
Q 1569 -128 1984 -844 
L 1484 -844 
Q 1016 -109 783 600 
Q 550 1309 550 2009 
Q 550 2706 781 3412 
Q 1013 4119 1484 4856 
L 1984 4856 
z
" id="DejaVuSans-28" transform="scale(0.015625)"/>
       <path d="M 2834 3397 
L 2834 2853 
Q 2591 2978 2328 3040 
Q 2066 3103 1784 3103 
Q 1356 3103 1142 2972 
Q 928 2841 928 2578 
Q 928 2378 1081 2264 
Q 1234 2150 1697 2047 
L 1894 2003 
Q 2506 1872 2764 1633 
Q 3022 1394 3022 966 
Q 3022 478 2636 193 
Q 2250 -91 1575 -91 
Q 1294 -91 989 -36 
Q 684 19 347 128 
L 347 722 
Q 666 556 975 473 
Q 1284 391 1588 391 
Q 1994 391 2212 530 
Q 2431 669 2431 922 
Q 2431 1156 2273 1281 
Q 2116 1406 1581 1522 
L 1381 1569 
Q 847 1681 609 1914 
Q 372 2147 372 2553 
Q 372 3047 722 3315 
Q 1072 3584 1716 3584 
Q 2034 3584 2315 3537 
Q 2597 3491 2834 3397 
z
" id="DejaVuSans-73" transform="scale(0.015625)"/>
       <path d="M 513 4856 
L 1013 4856 
Q 1481 4119 1714 3412 
Q 1947 2706 1947 2009 
Q 1947 1309 1714 600 
Q 1481 -109 1013 -844 
L 513 -844 
Q 928 -128 1133 580 
Q 1338 1288 1338 2009 
Q 1338 2731 1133 3434 
Q 928 4138 513 4856 
z
" id="DejaVuSans-29" transform="scale(0.015625)"/>
      </defs>
      <use xlink:href="#DejaVuSans-54"/>
      <use x="57.958984" xlink:href="#DejaVuSans-69"/>
      <use x="85.742188" xlink:href="#DejaVuSans-6d"/>
      <use x="183.154297" xlink:href="#DejaVuSans-65"/>
      <use x="244.677734" xlink:href="#DejaVuSans-28"/>
      <use x="283.691406" xlink:href="#DejaVuSans-6d"/>
      <use x="381.103516" xlink:href="#DejaVuSans-73"/>
      <use x="433.203125" xlink:href="#DejaVuSans-29"/>
     </g>
    </g>
   </g>
   <g id="matplotlib.axis_2">
    <g id="ytick_1">
     <g id="line2d_8">
      <defs>
       <path d="M 0 0 
L -3.5 0 
" id="m824f54d409" style="stroke:#000000;stroke-width:0.8;"/>
      </defs>
      <g>
       <use style="stroke:#000000;stroke-width:0.8;" x="54" xlink:href="#m824f54d409" y="252"/>
      </g>
     </g>
     <g id="text_9">
      <!-- −100 -->
      <g transform="translate(19.532812 255.799219)scale(0.1 -0.1)">
       <defs>
        <path d="M 678 2272 
L 4684 2272 
L 4684 1741 
L 678 1741 
L 678 2272 
z
" id="DejaVuSans-2212" transform="scale(0.015625)"/>
       </defs>
       <use xlink:href="#DejaVuSans-2212"/>
       <use x="83.789062" xlink:href="#DejaVuSans-31"/>
       <use x="147.412109" xlink:href="#DejaVuSans-30"/>
       <use x="211.035156" xlink:href="#DejaVuSans-30"/>
      </g>
     </g>
    </g>
    <g id="ytick_2">
     <g id="line2d_9">
      <g>
       <use style="stroke:#000000;stroke-width:0.8;" x="54" xlink:href="#m824f54d409" y="220.937143"/>
      </g>
     </g>
     <g id="text_10">
      <!-- −80 -->
      <g transform="translate(25.895312 224.736362)scale(0.1 -0.1)">
       <defs>
        <path d="M 2034 2216 
Q 1584 2216 1326 1975 
Q 1069 1734 1069 1313 
Q 1069 891 1326 650 
Q 1584 409 2034 409 
Q 2484 409 2743 651 
Q 3003 894 3003 1313 
Q 3003 1734 2745 1975 
Q 2488 2216 2034 2216 
z
M 1403 2484 
Q 997 2584 770 2862 
Q 544 3141 544 3541 
Q 544 4100 942 4425 
Q 1341 4750 2034 4750 
Q 2731 4750 3128 4425 
Q 3525 4100 3525 3541 
Q 3525 3141 3298 2862 
Q 3072 2584 2669 2484 
Q 3125 2378 3379 2068 
Q 3634 1759 3634 1313 
Q 3634 634 3220 271 
Q 2806 -91 2034 -91 
Q 1263 -91 848 271 
Q 434 634 434 1313 
Q 434 1759 690 2068 
Q 947 2378 1403 2484 
z
M 1172 3481 
Q 1172 3119 1398 2916 
Q 1625 2713 2034 2713 
Q 2441 2713 2670 2916 
Q 2900 3119 2900 3481 
Q 2900 3844 2670 4047 
Q 2441 4250 2034 4250 
Q 1625 4250 1398 4047 
Q 1172 3844 1172 3481 
z
" id="DejaVuSans-38" transform="scale(0.015625)"/>
       </defs>
       <use xlink:href="#DejaVuSans-2212"/>
       <use x="83.789062" xlink:href="#DejaVuSans-38"/>
       <use x="147.412109" xlink:href="#DejaVuSans-30"/>
      </g>
     </g>
    </g>
    <g id="ytick_3">
     <g id="line2d_10">
      <g>
       <use style="stroke:#000000;stroke-width:0.8;" x="54" xlink:href="#m824f54d409" y="189.874286"/>
      </g>
     </g>
     <g id="text_11">
      <!-- −60 -->
      <g transform="translate(25.895312 193.673504)scale(0.1 -0.1)">
       <defs>
        <path d="M 2113 2584 
Q 1688 2584 1439 2293 
Q 1191 2003 1191 1497 
Q 1191 994 1439 701 
Q 1688 409 2113 409 
Q 2538 409 2786 701 
Q 3034 994 3034 1497 
Q 3034 2003 2786 2293 
Q 2538 2584 2113 2584 
z
M 3366 4563 
L 3366 3988 
Q 3128 4100 2886 4159 
Q 2644 4219 2406 4219 
Q 1781 4219 1451 3797 
Q 1122 3375 1075 2522 
Q 1259 2794 1537 2939 
Q 1816 3084 2150 3084 
Q 2853 3084 3261 2657 
Q 3669 2231 3669 1497 
Q 3669 778 3244 343 
Q 2819 -91 2113 -91 
Q 1303 -91 875 529 
Q 447 1150 447 2328 
Q 447 3434 972 4092 
Q 1497 4750 2381 4750 
Q 2619 4750 2861 4703 
Q 3103 4656 3366 4563 
z
" id="DejaVuSans-36" transform="scale(0.015625)"/>
       </defs>
       <use xlink:href="#DejaVuSans-2212"/>
       <use x="83.789062" xlink:href="#DejaVuSans-36"/>
       <use x="147.412109" xlink:href="#DejaVuSans-30"/>
      </g>
     </g>
    </g>
    <g id="ytick_4">
     <g id="line2d_11">
      <g>
       <use style="stroke:#000000;stroke-width:0.8;" x="54" xlink:href="#m824f54d409" y="158.811429"/>
      </g>
     </g>
     <g id="text_12">
      <!-- −40 -->
      <g transform="translate(25.895312 162.610647)scale(0.1 -0.1)">
       <defs>
        <path d="M 2419 4116 
L 825 1625 
L 2419 1625 
L 2419 4116 
z
M 2253 4666 
L 3047 4666 
L 3047 1625 
L 3713 1625 
L 3713 1100 
L 3047 1100 
L 3047 0 
L 2419 0 
L 2419 1100 
L 313 1100 
L 313 1709 
L 2253 4666 
z
" id="DejaVuSans-34" transform="scale(0.015625)"/>
       </defs>
       <use xlink:href="#DejaVuSans-2212"/>
       <use x="83.789062" xlink:href="#DejaVuSans-34"/>
       <use x="147.412109" xlink:href="#DejaVuSans-30"/>
      </g>
     </g>
    </g>
    <g id="ytick_5">
     <g id="line2d_12">
      <g>
       <use style="stroke:#000000;stroke-width:0.8;" x="54" xlink:href="#m824f54d409" y="127.748571"/>
      </g>
     </g>
     <g id="text_13">
      <!-- −20 -->
      <g transform="translate(25.895312 131.54779)scale(0.1 -0.1)">
       <use xlink:href="#DejaVuSans-2212"/>
       <use x="83.789062" xlink:href="#DejaVuSans-32"/>
       <use x="147.412109" xlink:href="#DejaVuSans-30"/>
      </g>
     </g>
    </g>
    <g id="ytick_6">
     <g id="line2d_13">
      <g>
       <use style="stroke:#000000;stroke-width:0.8;" x="54" xlink:href="#m824f54d409" y="96.685714"/>
      </g>
     </g>
     <g id="text_14">
      <!-- 0 -->
      <g transform="translate(40.6375 100.484933)scale(0.1 -0.1)">
       <use xlink:href="#DejaVuSans-30"/>
      </g>
     </g>
    </g>
    <g id="ytick_7">
     <g id="line2d_14">
      <g>
       <use style="stroke:#000000;stroke-width:0.8;" x="54" xlink:href="#m824f54d409" y="65.622857"/>
      </g>
     </g>
     <g id="text_15">
      <!-- 20 -->
      <g transform="translate(34.275 69.422076)scale(0.1 -0.1)">
       <use xlink:href="#DejaVuSans-32"/>
       <use x="63.623047" xlink:href="#DejaVuSans-30"/>
      </g>
     </g>
    </g>
    <g id="ytick_8">
     <g id="line2d_15">
      <g>
       <use style="stroke:#000000;stroke-width:0.8;" x="54" xlink:href="#m824f54d409" y="34.56"/>
      </g>
     </g>
     <g id="text_16">
      <!-- 40 -->
      <g transform="translate(34.275 38.359219)scale(0.1 -0.1)">
       <use xlink:href="#DejaVuSans-34"/>
       <use x="63.623047" xlink:href="#DejaVuSans-30"/>
      </g>
     </g>
    </g>
    <g id="text_17">
     <!-- Membrane potential (mV) -->
     <g transform="translate(13.453125 207.691719)rotate(-90)scale(0.1 -0.1)">
      <defs>
       <path d="M 628 4666 
L 1569 4666 
L 2759 1491 
L 3956 4666 
L 4897 4666 
L 4897 0 
L 4281 0 
L 4281 4097 
L 3078 897 
L 2444 897 
L 1241 4097 
L 1241 0 
L 628 0 
L 628 4666 
z
" id="DejaVuSans-4d" transform="scale(0.015625)"/>
       <path d="M 3116 1747 
Q 3116 2381 2855 2742 
Q 2594 3103 2138 3103 
Q 1681 3103 1420 2742 
Q 1159 2381 1159 1747 
Q 1159 1113 1420 752 
Q 1681 391 2138 391 
Q 2594 391 2855 752 
Q 3116 1113 3116 1747 
z
M 1159 2969 
Q 1341 3281 1617 3432 
Q 1894 3584 2278 3584 
Q 2916 3584 3314 3078 
Q 3713 2572 3713 1747 
Q 3713 922 3314 415 
Q 2916 -91 2278 -91 
Q 1894 -91 1617 61 
Q 1341 213 1159 525 
L 1159 0 
L 581 0 
L 581 4863 
L 1159 4863 
L 1159 2969 
z
" id="DejaVuSans-62" transform="scale(0.015625)"/>
       <path d="M 2631 2963 
Q 2534 3019 2420 3045 
Q 2306 3072 2169 3072 
Q 1681 3072 1420 2755 
Q 1159 2438 1159 1844 
L 1159 0 
L 581 0 
L 581 3500 
L 1159 3500 
L 1159 2956 
Q 1341 3275 1631 3429 
Q 1922 3584 2338 3584 
Q 2397 3584 2469 3576 
Q 2541 3569 2628 3553 
L 2631 2963 
z
" id="DejaVuSans-72" transform="scale(0.015625)"/>
       <path d="M 2194 1759 
Q 1497 1759 1228 1600 
Q 959 1441 959 1056 
Q 959 750 1161 570 
Q 1363 391 1709 391 
Q 2188 391 2477 730 
Q 2766 1069 2766 1631 
L 2766 1759 
L 2194 1759 
z
M 3341 1997 
L 3341 0 
L 2766 0 
L 2766 531 
Q 2569 213 2275 61 
Q 1981 -91 1556 -91 
Q 1019 -91 701 211 
Q 384 513 384 1019 
Q 384 1609 779 1909 
Q 1175 2209 1959 2209 
L 2766 2209 
L 2766 2266 
Q 2766 2663 2505 2880 
Q 2244 3097 1772 3097 
Q 1472 3097 1187 3025 
Q 903 2953 641 2809 
L 641 3341 
Q 956 3463 1253 3523 
Q 1550 3584 1831 3584 
Q 2591 3584 2966 3190 
Q 3341 2797 3341 1997 
z
" id="DejaVuSans-61" transform="scale(0.015625)"/>
       <path d="M 3513 2113 
L 3513 0 
L 2938 0 
L 2938 2094 
Q 2938 2591 2744 2837 
Q 2550 3084 2163 3084 
Q 1697 3084 1428 2787 
Q 1159 2491 1159 1978 
L 1159 0 
L 581 0 
L 581 3500 
L 1159 3500 
L 1159 2956 
Q 1366 3272 1645 3428 
Q 1925 3584 2291 3584 
Q 2894 3584 3203 3211 
Q 3513 2838 3513 2113 
z
" id="DejaVuSans-6e" transform="scale(0.015625)"/>
       <path id="DejaVuSans-20" transform="scale(0.015625)"/>
       <path d="M 1159 525 
L 1159 -1331 
L 581 -1331 
L 581 3500 
L 1159 3500 
L 1159 2969 
Q 1341 3281 1617 3432 
Q 1894 3584 2278 3584 
Q 2916 3584 3314 3078 
Q 3713 2572 3713 1747 
Q 3713 922 3314 415 
Q 2916 -91 2278 -91 
Q 1894 -91 1617 61 
Q 1341 213 1159 525 
z
M 3116 1747 
Q 3116 2381 2855 2742 
Q 2594 3103 2138 3103 
Q 1681 3103 1420 2742 
Q 1159 2381 1159 1747 
Q 1159 1113 1420 752 
Q 1681 391 2138 391 
Q 2594 391 2855 752 
Q 3116 1113 3116 1747 
z
" id="DejaVuSans-70" transform="scale(0.015625)"/>
       <path d="M 1959 3097 
Q 1497 3097 1228 2736 
Q 959 2375 959 1747 
Q 959 1119 1226 758 
Q 1494 397 1959 397 
Q 2419 397 2687 759 
Q 2956 1122 2956 1747 
Q 2956 2369 2687 2733 
Q 2419 3097 1959 3097 
z
M 1959 3584 
Q 2709 3584 3137 3096 
Q 3566 2609 3566 1747 
Q 3566 888 3137 398 
Q 2709 -91 1959 -91 
Q 1206 -91 779 398 
Q 353 888 353 1747 
Q 353 2609 779 3096 
Q 1206 3584 1959 3584 
z
" id="DejaVuSans-6f" transform="scale(0.015625)"/>
       <path d="M 1172 4494 
L 1172 3500 
L 2356 3500 
L 2356 3053 
L 1172 3053 
L 1172 1153 
Q 1172 725 1289 603 
Q 1406 481 1766 481 
L 2356 481 
L 2356 0 
L 1766 0 
Q 1100 0 847 248 
Q 594 497 594 1153 
L 594 3053 
L 172 3053 
L 172 3500 
L 594 3500 
L 594 4494 
L 1172 4494 
z
" id="DejaVuSans-74" transform="scale(0.015625)"/>
       <path d="M 603 4863 
L 1178 4863 
L 1178 0 
L 603 0 
L 603 4863 
z
" id="DejaVuSans-6c" transform="scale(0.015625)"/>
       <path d="M 1831 0 
L 50 4666 
L 709 4666 
L 2188 738 
L 3669 4666 
L 4325 4666 
L 2547 0 
L 1831 0 
z
" id="DejaVuSans-56" transform="scale(0.015625)"/>
      </defs>
      <use xlink:href="#DejaVuSans-4d"/>
      <use x="86.279297" xlink:href="#DejaVuSans-65"/>
      <use x="147.802734" xlink:href="#DejaVuSans-6d"/>
      <use x="245.214844" xlink:href="#DejaVuSans-62"/>
      <use x="308.691406" xlink:href="#DejaVuSans-72"/>
      <use x="349.804688" xlink:href="#DejaVuSans-61"/>
      <use x="411.083984" xlink:href="#DejaVuSans-6e"/>
      <use x="474.462891" xlink:href="#DejaVuSans-65"/>
      <use x="535.986328" xlink:href="#DejaVuSans-20"/>
      <use x="567.773438" xlink:href="#DejaVuSans-70"/>
      <use x="631.25" xlink:href="#DejaVuSans-6f"/>
      <use x="692.431641" xlink:href="#DejaVuSans-74"/>
      <use x="731.640625" xlink:href="#DejaVuSans-65"/>
      <use x="793.164062" xlink:href="#DejaVuSans-6e"/>
      <use x="856.542969" xlink:href="#DejaVuSans-74"/>
      <use x="895.751953" xlink:href="#DejaVuSans-69"/>
      <use x="923.535156" xlink:href="#DejaVuSans-61"/>
      <use x="984.814453" xlink:href="#DejaVuSans-6c"/>
      <use x="1012.597656" xlink:href="#DejaVuSans-20"/>
      <use x="1044.384766" xlink:href="#DejaVuSans-28"/>
      <use x="1083.398438" xlink:href="#DejaVuSans-6d"/>
      <use x="1180.810547" xlink:href="#DejaVuSans-56"/>
      <use x="1249.21875" xlink:href="#DejaVuSans-29"/>
     </g>
    </g>
   </g>
   <g id="line2d_16">
    <path clip-path="url(#pabfe69492d)" d="M 69.218182 230.256 
L 69.268909 229.52975 
L 69.319636 229.767381 
L 70.080545 235.59788 
L 70.537091 237.276982 
L 70.993636 238.15777 
L 71.145818 238.326441 
L 71.196545 238.283264 
L 71.348727 237.793247 
L 71.957455 234.430848 
L 72.109636 234.535685 
L 72.414 235.122928 
L 73.479273 237.413193 
L 74.037273 238.057437 
L 74.646 238.427706 
L 75.406909 238.634429 
L 75.457636 238.604298 
L 75.711273 237.412882 
L 76.015636 236.615654 
L 76.269273 236.501809 
L 76.675091 234.667236 
L 76.827273 234.663819 
L 76.928727 234.768812 
L 77.030182 233.903556 
L 77.334545 231.278434 
L 77.486727 231.129332 
L 77.638909 231.377059 
L 77.943273 232.406482 
L 78.044727 232.194478 
L 78.247636 231.768451 
L 78.399818 231.920659 
L 78.957818 233.036902 
L 79.11 232.617398 
L 79.363636 232.013381 
L 79.515818 232.031242 
L 79.617273 232.155338 
L 79.972364 231.007255 
L 80.023091 231.026514 
L 80.226 231.423032 
L 80.733273 233.285871 
L 81.443455 235.648512 
L 82.001455 236.792712 
L 82.559455 237.444411 
L 83.168182 237.821048 
L 83.726182 237.984439 
L 83.878364 237.736557 
L 84.334909 236.798148 
L 84.588545 236.671878 
L 84.943636 236.617673 
L 85.349455 235.233823 
L 85.552364 235.189092 
L 85.806 235.450486 
L 86.008909 235.620089 
L 86.566909 235.132713 
L 86.719091 235.166261 
L 87.226364 234.180171 
L 87.429273 234.291686 
L 87.784364 234.877066 
L 88.443818 236.221622 
L 88.951091 234.616449 
L 89.001818 234.635708 
L 89.255455 234.951772 
L 90.320727 236.831852 
L 90.371455 236.730121 
L 91.335273 233.300005 
L 91.386 233.325787 
L 91.588909 233.627407 
L 91.842545 234.211544 
L 91.893273 234.144448 
L 92.248364 233.377662 
L 92.349818 233.419131 
L 92.451273 232.955518 
L 92.603455 231.315709 
L 92.907818 228.21253 
L 93.06 227.950049 
L 93.212182 228.167023 
L 93.516545 229.318212 
L 94.784727 234.80997 
L 95.342727 236.125172 
L 95.900727 236.882329 
L 96.509455 237.330876 
L 97.016727 237.540861 
L 97.118182 237.168573 
L 97.473273 235.606267 
L 97.574727 235.11392 
L 98.132727 231.107744 
L 98.234182 230.883936 
L 98.589273 229.6978 
L 98.944364 228.529526 
L 99.096545 228.67459 
L 99.350182 229.44324 
L 99.908182 231.351432 
L 100.161818 231.336521 
L 100.364727 231.62758 
L 100.618364 232.036212 
L 100.973455 231.856824 
L 101.176364 232.085913 
L 101.582182 233.02075 
L 101.835818 233.69062 
L 101.886545 233.665149 
L 102.343091 232.794457 
L 102.546 232.961575 
L 102.951818 233.756784 
L 103.915636 235.701474 
L 104.524364 236.440925 
L 105.031636 236.768328 
L 105.183818 236.419647 
L 105.437455 233.517445 
L 105.741818 231.289151 
L 105.944727 230.982094 
L 106.096909 231.107744 
L 106.401273 231.835702 
L 106.553455 232.293257 
L 106.604182 232.262505 
L 106.908545 231.660196 
L 107.060727 231.782273 
L 107.365091 232.512561 
L 107.872364 233.872493 
L 108.075273 233.474423 
L 108.633273 231.421944 
L 108.785455 231.588131 
L 109.140545 232.493147 
L 109.901455 234.627631 
L 110.002909 233.855719 
L 110.358 230.062323 
L 110.713091 228.626753 
L 110.966727 227.174875 
L 111.118909 227.045188 
L 111.271091 227.291982 
L 111.626182 227.980801 
L 111.879818 228.420185 
L 112.234909 229.642819 
L 112.336364 229.881693 
L 112.59 229.381115 
L 112.742182 229.540778 
L 113.046545 230.500154 
L 114.264 234.844916 
L 114.568364 235.452195 
L 115.177091 234.111832 
L 115.430727 234.336262 
L 116.140909 235.492266 
L 116.851091 236.417628 
L 117.510545 236.930631 
L 118.322182 237.278691 
L 119.133818 237.477493 
L 119.235273 237.161584 
L 119.641091 235.467881 
L 119.844 235.064841 
L 120.046909 233.734108 
L 120.402 230.598934 
L 120.604909 230.219191 
L 120.757091 230.335521 
L 121.010727 230.95507 
L 122.177455 234.877066 
L 122.278909 234.679196 
L 122.583273 234.127053 
L 122.786182 234.196479 
L 123.141273 234.725013 
L 124.257273 236.592202 
L 124.358727 236.654638 
L 124.967455 235.083323 
L 125.170364 235.179618 
L 125.576182 235.693864 
L 126.337091 236.691137 
L 126.489273 236.353328 
L 126.844364 234.957208 
L 127.148727 233.536238 
L 127.351636 233.402201 
L 127.554545 233.624456 
L 128.011091 234.630116 
L 128.569091 235.812213 
L 128.721273 235.612479 
L 129.076364 235.126656 
L 129.279273 235.13846 
L 129.583636 235.420511 
L 130.344545 236.495596 
L 130.395273 236.382061 
L 130.801091 234.85175 
L 131.004 234.820376 
L 131.257636 235.102116 
L 132.322909 236.763047 
L 132.373636 236.620158 
L 132.728727 235.119512 
L 132.931636 234.791643 
L 133.794 229.00836 
L 133.996909 228.584663 
L 134.149091 228.772127 
L 134.453455 229.839913 
L 135.366545 233.813008 
L 135.417273 233.77713 
L 135.772364 233.321593 
L 135.975273 233.491818 
L 136.381091 234.310324 
L 137.294182 236.191335 
L 137.852182 236.846606 
L 138.460909 235.005821 
L 139.018909 234.422772 
L 139.272545 234.611479 
L 139.729091 235.326545 
L 140.692909 236.828124 
L 141.352364 237.409155 
L 142.113273 237.755816 
L 142.265455 237.721958 
L 142.417636 237.03376 
L 142.823455 234.923194 
L 143.077091 234.597345 
L 143.229273 234.572339 
L 143.685818 233.154009 
L 143.838 233.270806 
L 144.142364 233.919864 
L 144.345273 234.46657 
L 144.396 234.407706 
L 144.700364 233.416646 
L 144.852545 233.452368 
L 145.106182 233.913185 
L 146.425091 236.828745 
L 146.678727 237.146674 
L 146.780182 236.772987 
L 147.084545 235.47192 
L 147.287455 235.311325 
L 147.490364 235.442721 
L 147.946909 236.027479 
L 147.997636 235.870456 
L 148.352727 234.712588 
L 148.555636 234.689136 
L 148.707818 234.840256 
L 149.164364 233.360111 
L 149.215091 233.384962 
L 149.367273 233.400959 
L 149.519455 231.860707 
L 149.823818 229.427088 
L 150.280364 228.402324 
L 150.432545 228.651448 
L 150.736909 229.750141 
L 150.939818 230.430263 
L 150.990545 230.406965 
L 151.193455 230.387551 
L 151.345636 230.614931 
L 151.396364 230.548146 
L 151.65 230.072108 
L 151.802182 230.192476 
L 152.005091 230.566473 
L 152.309455 229.881848 
L 152.410909 229.820033 
L 152.715273 229.444638 
L 152.867455 229.609737 
L 153.171818 230.462723 
L 154.642909 235.38075 
L 155.200909 236.32708 
L 155.809636 236.916653 
L 156.519818 237.283505 
L 157.331455 237.500635 
L 157.483636 236.924264 
L 158.244545 233.432643 
L 158.396727 233.477684 
L 158.650364 233.85836 
L 158.954727 234.524347 
L 159.005455 234.488314 
L 159.411273 233.473801 
L 159.563455 233.569941 
L 159.867818 234.129072 
L 159.969273 234.357384 
L 160.02 234.254877 
L 160.679455 231.712537 
L 160.831636 231.817064 
L 161.136 232.52188 
L 161.592545 233.814716 
L 161.896909 232.740097 
L 162.049091 232.780944 
L 162.302727 233.277795 
L 162.404182 233.495235 
L 162.81 232.429623 
L 163.012909 232.711674 
L 163.266545 233.358092 
L 163.317273 233.283541 
L 164.027455 230.823674 
L 164.128909 230.852562 
L 164.281091 229.945061 
L 164.534727 228.204143 
L 164.686909 228.077717 
L 164.839091 228.383376 
L 165.194182 229.858085 
L 166.208727 234.303024 
L 166.766727 235.774161 
L 167.324727 236.640504 
L 167.933455 237.159409 
L 168.694364 237.490229 
L 168.795818 237.516011 
L 168.948 236.836356 
L 169.252364 235.589027 
L 169.455273 235.376091 
L 169.658182 235.443963 
L 169.861091 235.594773 
L 169.911818 235.514786 
L 170.419091 234.028429 
L 170.672727 232.693502 
L 170.824909 232.555894 
L 171.027818 232.680456 
L 171.382909 231.963681 
L 172.042364 232.201622 
L 172.296 232.591772 
L 172.346727 232.508989 
L 172.549636 231.54806 
L 172.752545 229.298798 
L 173.056909 226.210995 
L 173.361273 225.370434 
L 173.564182 225.001718 
L 173.716364 225.229564 
L 173.97 226.256191 
L 174.730909 229.722961 
L 175.339636 231.919727 
L 175.694727 233.09996 
L 175.897636 232.675952 
L 176.303455 231.817375 
L 176.455636 231.844244 
L 176.557091 231.84968 
L 176.912182 230.814976 
L 177.064364 230.902729 
L 177.318 231.458133 
L 177.368727 231.316641 
L 177.977455 228.287081 
L 178.383273 224.775269 
L 178.535455 224.648844 
L 178.586182 224.65692 
L 178.890545 223.838103 
L 179.042727 224.175756 
L 179.347091 225.659318 
L 179.499273 226.494443 
L 179.55 226.441947 
L 180.057273 224.715473 
L 180.209455 224.781637 
L 180.412364 225.287807 
L 180.716727 226.158343 
L 180.868909 226.162226 
L 181.021091 226.410729 
L 181.325455 227.522624 
L 182.898 234.320109 
L 182.999455 234.354589 
L 183.253091 233.75228 
L 184.014 228.371261 
L 184.419818 223.148042 
L 184.876364 221.207079 
L 185.332909 221.671779 
L 185.535818 222.209322 
L 185.890909 223.712609 
L 185.992364 223.61911 
L 186.601091 222.208701 
L 186.702545 222.128559 
L 186.956182 220.564078 
L 187.260545 219.012178 
L 187.362 218.971019 
L 187.514182 219.26767 
L 187.818545 220.380341 
L 187.869273 220.288861 
L 188.325818 218.475101 
L 188.478 218.448076 
L 188.630182 218.834498 
L 188.731636 219.052404 
L 188.934545 218.887616 
L 189.137455 219.022584 
L 189.340364 219.543508 
L 189.594 220.168803 
L 190.050545 220.089437 
L 190.354909 220.657422 
L 190.507091 219.644462 
L 191.369455 210.647261 
L 191.572364 210.351387 
L 191.724545 210.6221 
L 192.028909 211.87968 
L 192.637636 215.678667 
L 193.195636 219.008605 
L 193.297091 218.597799 
L 193.601455 216.915279 
L 193.702909 216.894157 
L 193.855091 217.225287 
L 194.159455 218.663497 
L 194.920364 223.787937 
L 195.224727 225.314365 
L 195.529091 225.993244 
L 195.782727 226.794045 
L 196.239273 224.672141 
L 196.391455 224.884145 
L 196.695818 225.984547 
L 196.898727 226.640905 
L 196.949455 226.610774 
L 197.710364 223.9973 
L 197.811818 223.999164 
L 197.964 224.281525 
L 198.268364 225.445295 
L 198.826364 228.078804 
L 198.877091 228.021183 
L 199.029273 227.216189 
L 199.638 223.292018 
L 199.891636 222.52694 
L 200.043818 222.577417 
L 200.246727 223.057338 
L 200.652545 224.441344 
L 200.703273 224.296436 
L 200.855455 223.177551 
L 201.312 219.377787 
L 201.464182 219.225269 
L 201.616364 219.481693 
L 201.768545 219.927445 
L 201.819273 219.849011 
L 202.174364 218.836207 
L 202.326545 219.007052 
L 202.580182 219.899177 
L 203.188909 222.297541 
L 203.645455 223.024412 
L 203.746909 223.069763 
L 203.848364 222.460155 
L 204.304909 218.088368 
L 204.406364 217.989744 
L 204.457091 218.024068 
L 205.065818 218.956886 
L 205.116545 218.87255 
L 205.319455 217.866269 
L 205.776 214.463643 
L 205.877455 214.403226 
L 205.928182 214.448889 
L 206.131091 215.010971 
L 206.587636 216.4731 
L 206.790545 216.870394 
L 207.094909 218.220075 
L 207.247091 219.094339 
L 207.297818 219.078497 
L 207.652909 218.106074 
L 207.805091 218.342928 
L 208.261636 219.560282 
L 208.616727 218.749386 
L 208.870364 218.273969 
L 209.174727 217.263183 
L 209.276182 217.298284 
L 209.479091 217.611087 
L 209.935636 215.800278 
L 210.087818 216.031231 
L 210.341455 217.026484 
L 211.153091 220.712714 
L 211.305273 220.873309 
L 211.558909 220.83215 
L 212.015455 221.281319 
L 212.421273 221.078945 
L 212.624182 221.44207 
L 212.979273 222.797497 
L 213.182182 223.437237 
L 213.283636 223.402447 
L 213.435818 222.842073 
L 213.740182 221.779412 
L 213.892364 221.758445 
L 214.095273 222.154496 
L 214.399636 223.077218 
L 214.450364 223.034973 
L 214.551818 222.866302 
L 214.957636 221.774132 
L 215.109818 221.972157 
L 215.363455 222.859934 
L 215.972182 226.166264 
L 216.936 231.188973 
L 217.088182 231.56297 
L 217.595455 231.382495 
L 217.747636 229.957175 
L 218.102727 227.343236 
L 218.356364 226.736112 
L 218.457818 226.686101 
L 218.863636 225.829698 
L 219.117273 226.142967 
L 219.168 226.061272 
L 219.421636 224.783967 
L 219.827455 221.813426 
L 220.030364 221.199624 
L 220.131818 221.260352 
L 220.334727 220.334523 
L 220.588364 219.576124 
L 220.689818 219.65813 
L 220.892727 220.302684 
L 221.501455 222.597453 
L 221.755091 223.282078 
L 222.211636 225.409418 
L 223.530545 231.950324 
L 224.139273 233.810367 
L 224.697273 234.885142 
L 225.306 235.601141 
L 225.407455 235.610305 
L 225.610364 234.967925 
L 225.914727 234.256741 
L 226.320545 233.778683 
L 226.624909 233.086137 
L 226.827818 233.023545 
L 227.081455 233.256517 
L 227.588727 234.163863 
L 228.451091 235.641057 
L 229.110545 236.339505 
L 229.465636 236.588319 
L 229.617818 235.723218 
L 229.922182 234.504001 
L 230.125091 234.365771 
L 230.226545 234.312343 
L 230.378727 233.355607 
L 231.291818 225.879088 
L 231.494727 225.414388 
L 231.646909 225.606046 
L 231.900545 226.491803 
L 232.306364 228.018232 
L 232.458545 227.797841 
L 232.712182 227.174409 
L 232.864364 227.22908 
L 233.067273 227.702633 
L 233.219455 228.185661 
L 233.270182 228.084862 
L 233.473091 227.63942 
L 233.574545 227.699216 
L 233.777455 227.996954 
L 233.878909 227.648273 
L 234.538364 223.699718 
L 234.690545 223.714318 
L 234.893455 224.252482 
L 235.299273 226.221867 
L 236.567455 232.758734 
L 236.770364 233.464638 
L 236.821091 233.324544 
L 237.125455 232.319816 
L 237.277636 232.348239 
L 237.531273 232.766811 
L 238.190727 234.289201 
L 238.241455 234.218223 
L 238.444364 233.432022 
L 238.799455 230.9925 
L 238.951636 230.827557 
L 239.103818 230.959418 
L 239.408182 231.667496 
L 240.169091 233.748086 
L 240.219818 233.721217 
L 240.676364 233.380302 
L 240.93 233.571028 
L 241.335818 234.132955 
L 241.386545 233.97469 
L 241.741636 232.834062 
L 241.893818 232.795855 
L 242.096727 232.997297 
L 242.451818 233.542916 
L 243.212727 231.374108 
L 243.415636 231.527092 
L 243.770727 232.249769 
L 245.140364 235.506399 
L 245.241818 235.482015 
L 245.749091 234.468123 
L 245.952 234.391398 
L 246.053455 234.060113 
L 246.51 230.896671 
L 246.662182 230.847126 
L 246.865091 231.172665 
L 247.169455 231.992569 
L 247.220182 231.964612 
L 247.423091 231.395075 
L 247.778182 230.436475 
L 247.930364 230.436941 
L 248.082545 230.432282 
L 248.437636 229.920987 
L 248.589818 230.072108 
L 248.742 230.312379 
L 249.097091 229.612688 
L 249.147818 229.642043 
L 249.350727 230.021631 
L 249.807273 231.597605 
L 250.162364 232.905506 
L 250.213091 232.825985 
L 250.416 231.774663 
L 250.669636 230.385687 
L 250.821818 230.260038 
L 250.974 230.463655 
L 251.329091 231.527869 
L 252.343636 234.776733 
L 252.495818 234.7977 
L 253.003091 234.287648 
L 253.611818 232.006858 
L 253.966909 230.488505 
L 254.119091 230.390502 
L 254.271273 230.531993 
L 254.575636 231.255447 
L 256.148182 235.751951 
L 256.604727 236.346184 
L 256.756909 235.433402 
L 257.416364 230.643509 
L 257.568545 230.702684 
L 257.822182 231.274085 
L 257.923636 231.405792 
L 258.228 230.863589 
L 258.380182 231.013312 
L 258.684545 231.821568 
L 258.735273 231.986822 
L 258.786 231.887111 
L 259.039636 231.102773 
L 259.191818 231.186177 
L 259.445455 231.813647 
L 259.800545 232.902866 
L 259.851273 232.778925 
L 260.104909 232.179257 
L 260.257091 232.220726 
L 260.510727 232.696764 
L 260.764364 233.377196 
L 260.815091 233.350327 
L 261.220909 232.480411 
L 261.373091 232.599071 
L 261.677455 233.20138 
L 262.894909 235.880862 
L 263.097818 236.166951 
L 263.148545 236.085256 
L 263.554364 234.549819 
L 263.757273 234.4689 
L 263.858727 234.428363 
L 264.264545 233.002733 
L 264.416727 233.012363 
L 264.670364 233.394591 
L 264.974727 234.042252 
L 265.025455 233.967856 
L 265.380545 233.195478 
L 265.532727 233.231356 
L 265.786364 233.602402 
L 265.887818 233.73737 
L 266.395091 231.403928 
L 266.800909 228.327773 
L 267.003818 228.033919 
L 267.156 228.250737 
L 268.322727 231.452541 
L 269.337273 234.851594 
L 269.641636 235.554702 
L 269.692364 235.534356 
L 270.148909 234.141187 
L 270.351818 234.222572 
L 270.706909 234.763531 
L 270.859091 235.045271 
L 270.909818 234.97072 
L 271.264909 233.523968 
L 271.417091 233.522415 
L 271.670727 233.892529 
L 272.127273 234.771142 
L 272.178 234.702493 
L 272.533091 234.123792 
L 272.736 234.179394 
L 273.040364 234.575135 
L 273.953455 236.109795 
L 274.460727 234.369033 
L 274.663636 234.459115 
L 275.018727 234.986097 
L 276.033273 236.561139 
L 276.692727 237.136889 
L 277.402909 237.473455 
L 277.504364 237.336157 
L 278.062364 235.961315 
L 278.316 235.887696 
L 278.468182 235.84778 
L 278.721818 234.873804 
L 279.076909 232.72441 
L 279.279818 232.538033 
L 279.482727 232.789797 
L 279.939273 233.972671 
L 280.750909 236.007443 
L 281.308909 236.86571 
L 281.714727 237.235203 
L 281.866909 236.51004 
L 282.323455 234.10826 
L 282.577091 233.809901 
L 282.78 233.927785 
L 283.135091 234.510214 
L 283.642364 235.431849 
L 284.098909 234.465328 
L 284.301818 234.536928 
L 284.606182 234.717403 
L 284.809091 234.479617 
L 285.265636 232.644734 
L 285.417818 232.44764 
L 285.772909 231.052452 
L 286.077273 230.101618 
L 286.229455 230.121032 
L 286.432364 230.483691 
L 286.888909 231.961817 
L 287.091818 232.521414 
L 287.244 231.778701 
L 287.548364 230.135942 
L 287.700545 229.977056 
L 287.852727 230.124915 
L 288.157091 230.921056 
L 288.36 231.243488 
L 288.715091 231.521345 
L 289.070182 232.235947 
L 290.287636 235.124792 
L 290.439818 234.371052 
L 290.794909 232.668031 
L 290.947091 232.102221 
L 291.505091 229.487971 
L 291.708 229.262144 
L 291.860182 229.49263 
L 291.961636 229.719544 
L 292.012364 229.679163 
L 292.316727 228.780204 
L 292.621091 226.224818 
L 292.773273 226.013901 
L 292.925455 226.265044 
L 293.229818 227.482397 
L 294.498 233.429071 
L 295.512545 231.729467 
L 295.715455 231.967408 
L 296.172 233.006616 
L 296.831455 234.507107 
L 297.237273 233.373313 
L 297.389455 233.380768 
L 297.643091 233.687824 
L 297.896727 234.079527 
L 297.947455 234.029516 
L 298.353273 233.478616 
L 298.556182 233.544159 
L 298.860545 233.944404 
L 300.078 236.026858 
L 300.128727 235.917361 
L 300.585273 234.536772 
L 300.788182 234.510524 
L 301.092545 234.816027 
L 301.701273 235.742477 
L 301.752 235.677866 
L 302.208545 234.398387 
L 302.411455 234.415317 
L 302.512909 234.354899 
L 302.969455 233.491507 
L 303.172364 233.603333 
L 303.273818 233.664838 
L 303.476727 233.192061 
L 303.730364 232.867299 
L 303.933273 233.024943 
L 304.288364 233.753056 
L 305.353636 236.095351 
L 305.962364 236.853285 
L 306.621818 237.310064 
L 307.332 237.571303 
L 307.433455 237.404651 
L 307.737818 235.801031 
L 308.295818 232.669739 
L 308.498727 232.502932 
L 308.752364 232.644889 
L 309.513273 230.567871 
L 309.969818 229.889303 
L 310.172727 230.186885 
L 310.578545 231.43204 
L 311.339455 233.882899 
L 311.745273 233.509058 
L 311.948182 233.661266 
L 312.151091 233.846556 
L 312.556909 232.685737 
L 312.709091 232.589287 
L 313.064182 231.563591 
L 313.216364 231.570425 
L 313.571455 230.463811 
L 313.723636 230.591634 
L 314.028 231.419459 
L 314.586 233.285405 
L 314.636727 233.128693 
L 314.890364 232.469695 
L 315.042545 232.502311 
L 315.296182 232.95676 
L 316.361455 235.42284 
L 316.513636 234.978952 
L 316.919455 232.436613 
L 317.325273 231.382495 
L 317.528182 230.935345 
L 317.578909 230.932083 
L 317.984727 229.591876 
L 318.035455 229.637694 
L 318.289091 230.033124 
L 318.339818 230.000042 
L 318.542727 229.905922 
L 318.694909 230.061081 
L 318.999273 230.837031 
L 319.354364 231.754783 
L 319.709455 231.855116 
L 319.810909 231.864435 
L 320.267455 231.290238 
L 320.470364 231.575084 
L 320.926909 232.810609 
L 321.84 235.266594 
L 322.448727 236.258431 
L 323.057455 236.832939 
L 323.311091 236.973964 
L 323.463273 236.421356 
L 323.818364 235.169057 
L 324.325636 233.850904 
L 324.528545 233.85603 
L 324.782182 234.142429 
L 325.492364 235.47223 
L 326.202545 236.564556 
L 326.608364 236.935912 
L 326.811273 236.26542 
L 327.115636 235.511214 
L 327.369273 235.390535 
L 327.622909 235.541811 
L 328.231636 236.274584 
L 328.586727 236.610063 
L 328.789636 236.231407 
L 329.144727 235.6847 
L 329.398364 235.666684 
L 329.753455 235.947181 
L 330.159273 236.404271 
L 330.311455 235.127433 
L 330.615818 232.92228 
L 330.818727 232.5809 
L 330.970909 232.670516 
L 331.123091 232.797408 
L 331.224545 232.609633 
L 331.731818 230.706256 
L 331.884 230.839826 
L 332.188364 231.344753 
L 332.239091 231.288685 
L 332.340545 230.671932 
L 332.594182 229.143018 
L 332.746364 228.996246 
L 332.847818 229.108538 
L 332.898545 229.022649 
L 333.152182 228.182554 
L 333.253636 228.194203 
L 333.456545 228.649274 
L 333.811636 229.86321 
L 333.862364 229.71473 
L 334.420364 228.241263 
L 334.572545 228.471905 
L 334.876909 229.584421 
L 335.942182 233.978262 
L 335.992909 233.958071 
L 336.246545 232.970738 
L 336.550909 231.426604 
L 336.753818 231.262126 
L 336.956727 231.527869 
L 337.362545 232.602954 
L 338.326364 235.152904 
L 338.935091 236.118804 
L 339.543818 236.685545 
L 340.152545 237.01621 
L 340.254 236.795974 
L 340.406182 235.659384 
L 340.710545 232.965768 
L 340.913455 232.539741 
L 341.065636 232.598295 
L 341.420727 233.138944 
L 341.471455 233.061908 
L 341.674364 232.147728 
L 341.978727 231.1503 
L 342.130909 231.111937 
L 342.232364 231.096716 
L 342.536727 229.946925 
L 342.688909 229.994761 
L 342.942545 230.621144 
L 344.312182 235.104601 
L 344.667273 233.653189 
L 344.870182 233.475199 
L 345.022364 232.268097 
L 345.529636 228.481224 
L 345.783273 227.946011 
L 346.189091 226.802742 
L 346.341273 226.990051 
L 346.645636 227.652622 
L 346.747091 227.338111 
L 347.558727 221.227115 
L 347.863091 218.715217 
L 348.015273 218.522627 
L 348.167455 218.822384 
L 348.471818 220.290259 
L 349.131273 223.685584 
L 349.334182 224.335109 
L 349.841455 226.209597 
L 349.993636 226.380598 
L 350.247273 226.765311 
L 350.450182 226.809731 
L 350.653091 227.244611 
L 351.058909 228.880537 
L 352.124182 233.344269 
L 352.580727 234.585696 
L 352.631455 234.5405 
L 353.037273 233.17156 
L 353.189455 233.173268 
L 353.443091 233.478771 
L 354.457636 235.323284 
L 354.508364 235.282126 
L 354.863455 233.604887 
L 355.066364 233.537791 
L 355.32 233.847332 
L 356.030182 235.166106 
L 356.080909 234.996503 
L 356.233091 233.721838 
L 356.537455 231.558621 
L 356.740364 231.382029 
L 356.943273 231.687842 
L 357.450545 233.152145 
L 357.957818 234.468279 
L 358.414364 233.622592 
L 358.617273 233.789089 
L 359.073818 234.635708 
L 359.936182 236.182172 
L 360.544909 236.837598 
L 361.255091 237.266887 
L 361.508727 237.331032 
L 361.660909 236.778423 
L 362.269636 233.286337 
L 362.421818 233.286026 
L 362.675455 233.629892 
L 362.776909 233.824656 
L 362.827636 233.761909 
L 363.182727 232.808746 
L 363.334909 232.881277 
L 363.588545 233.354831 
L 364.958182 236.410018 
L 365.414727 236.869127 
L 365.617636 236.37383 
L 365.972727 235.703027 
L 366.327818 235.398301 
L 366.682909 234.195547 
L 366.885818 234.169143 
L 367.139455 234.495769 
L 368.712 237.105049 
L 368.914909 237.276206 
L 369.016364 236.659297 
L 369.422182 233.503466 
L 369.625091 233.199516 
L 369.777273 233.289288 
L 370.030909 233.697143 
L 370.081636 233.618244 
L 370.436727 232.925853 
L 370.588909 233.021992 
L 370.893273 233.622437 
L 371.400545 234.740389 
L 372.110727 233.611099 
L 372.364364 233.251547 
L 372.567273 233.384651 
L 372.922364 234.062443 
L 373.531091 235.486209 
L 373.581818 235.447846 
" style="fill:none;stroke:#000000;stroke-linecap:square;stroke-width:1.5;"/>
   </g>
   <g id="line2d_17">
    <path clip-path="url(#pabfe69492d)" d="M 69.218182 230.256 
L 69.319636 229.26292 
L 69.674727 231.327669 
L 70.182 233.550682 
L 70.689273 234.839169 
L 71.145818 235.481549 
L 71.247273 235.312412 
L 71.399455 234.595171 
L 71.754545 231.751055 
L 71.957455 231.371467 
L 72.109636 231.408898 
L 72.363273 231.788486 
L 74.037273 234.950219 
L 74.646 235.442565 
L 75.406909 235.753194 
L 75.457636 235.728654 
L 75.660545 234.782635 
L 75.964909 233.751348 
L 76.218545 233.542916 
L 76.269273 233.496167 
L 76.675091 231.553496 
L 76.827273 231.494787 
L 76.928727 231.565765 
L 77.030182 230.685444 
L 77.334545 227.939021 
L 77.486727 227.697663 
L 77.638909 227.856084 
L 77.943273 228.742307 
L 78.044727 228.505919 
L 78.247636 228.023668 
L 78.399818 228.127728 
L 78.653455 228.782999 
L 78.856364 229.16383 
L 78.957818 229.142707 
L 79.11 228.699596 
L 79.414364 227.97785 
L 79.566545 228.027085 
L 79.617273 228.079581 
L 80.023091 226.859277 
L 80.073818 226.901211 
L 80.276727 227.339508 
L 80.784 229.216016 
L 81.646364 232.172889 
L 82.255091 233.487158 
L 82.863818 234.273204 
L 83.523273 234.750795 
L 83.776909 234.790245 
L 84.030545 234.204866 
L 84.385636 233.567611 
L 84.69 233.451902 
L 84.892909 233.505641 
L 85.095818 232.629824 
L 85.349455 231.91165 
L 85.552364 231.813647 
L 85.806 232.022545 
L 86.008909 232.168851 
L 86.566909 231.59015 
L 86.719091 231.603507 
L 87.277091 230.518015 
L 87.48 230.640248 
L 87.835091 231.223919 
L 88.443818 232.516755 
L 88.494545 232.356936 
L 88.798909 231.082893 
L 89.001818 231.003838 
L 89.255455 231.318039 
L 90.320727 233.342871 
L 90.371455 233.255274 
L 90.980182 230.84169 
L 91.233818 229.822052 
L 91.386 229.756665 
L 91.588909 229.996004 
L 91.842545 230.525781 
L 91.893273 230.455113 
L 92.248364 229.637539 
L 92.349818 229.657108 
L 92.451273 229.181846 
L 92.603455 227.525575 
L 92.907818 224.263664 
L 93.110727 223.868079 
L 93.262909 224.076976 
L 93.567273 225.124882 
L 95.190545 231.608632 
L 95.799273 232.903953 
L 96.408 233.691707 
L 97.016727 234.159825 
L 97.118182 233.817823 
L 97.777636 229.72498 
L 98.082 227.608357 
L 98.335636 226.603163 
L 98.842909 224.466505 
L 99.045818 224.239746 
L 99.198 224.454235 
L 99.502364 225.402584 
L 99.908182 226.562937 
L 100.161818 226.496618 
L 100.364727 226.756614 
L 100.618364 227.159965 
L 100.973455 226.979335 
L 101.176364 227.202211 
L 101.531455 228.025221 
L 101.886545 228.891098 
L 102.343091 228.103344 
L 102.546 228.286149 
L 102.951818 229.143328 
L 104.169273 231.918639 
L 104.828727 232.848972 
L 105.031636 233.006616 
L 105.183818 232.705462 
L 105.437455 229.826401 
L 105.741818 227.438599 
L 105.944727 226.994555 
L 106.096909 227.022978 
L 106.350545 227.464536 
L 106.553455 227.990275 
L 106.604182 227.948185 
L 106.959273 227.27614 
L 107.111455 227.437667 
L 107.415818 228.190786 
L 107.872364 229.443862 
L 107.923091 229.377853 
L 108.126 228.865627 
L 108.531818 227.043169 
L 108.684 227.00667 
L 108.886909 227.301922 
L 109.343455 228.598175 
L 109.901455 230.214531 
L 110.002909 229.492009 
L 110.358 225.712747 
L 110.713091 224.134753 
L 111.017455 222.372557 
L 111.169636 222.253897 
L 111.321818 222.46792 
L 111.575455 222.794857 
L 111.778364 222.920506 
L 112.032 223.452302 
L 112.336364 224.340234 
L 112.387091 224.204955 
L 112.59 223.815738 
L 112.742182 223.950085 
L 112.995818 224.693574 
L 114.568364 230.701597 
L 114.619091 230.615242 
L 115.024909 229.693762 
L 115.227818 229.74952 
L 115.532182 230.177722 
L 117.155455 232.927095 
L 117.865636 233.562486 
L 118.728 234.021129 
L 119.184545 234.09832 
L 119.742545 231.979678 
L 119.894727 231.425827 
L 120.097636 229.626356 
L 120.402 226.872478 
L 120.655636 226.266131 
L 120.807818 226.334625 
L 121.061455 226.847473 
L 121.619455 228.692296 
L 122.177455 230.488816 
L 122.329636 230.203038 
L 122.583273 229.861346 
L 122.786182 229.9696 
L 123.141273 230.56725 
L 124.358727 232.885471 
L 124.561636 232.121791 
L 124.815273 231.488729 
L 125.018182 231.406413 
L 125.271818 231.594343 
L 125.880545 232.481654 
L 126.337091 233.106483 
L 126.489273 232.796631 
L 126.793636 231.771246 
L 127.148727 229.894739 
L 127.351636 229.679784 
L 127.554545 229.828575 
L 127.909636 230.50559 
L 128.619818 231.944422 
L 129.228545 231.299091 
L 129.482182 231.475683 
L 129.989455 232.20038 
L 130.344545 232.762928 
L 130.395273 232.664303 
L 130.801091 231.182139 
L 131.004 231.137719 
L 131.257636 231.40517 
L 132.322909 233.174821 
L 132.373636 233.046066 
L 132.779455 231.502087 
L 132.931636 231.235412 
L 133.895455 224.623993 
L 134.047636 224.434821 
L 134.199818 224.616694 
L 134.504182 225.597814 
L 135.366545 229.244127 
L 135.468 229.147988 
L 135.721636 228.841242 
L 135.873818 228.90958 
L 136.127455 229.330482 
L 137.852182 233.049793 
L 138.105818 231.92889 
L 138.359455 231.409675 
L 138.562364 231.166297 
L 138.917455 230.665874 
L 139.120364 230.66137 
L 139.424727 230.956312 
L 140.033455 232.008566 
L 140.794364 233.210233 
L 141.403091 233.763152 
L 142.062545 234.051726 
L 142.265455 234.017557 
L 142.417636 233.295967 
L 142.874182 230.743221 
L 143.127818 230.325891 
L 143.229273 230.225092 
L 143.685818 228.462431 
L 143.838 228.457771 
L 144.091636 228.804433 
L 144.345273 229.354711 
L 144.396 229.282179 
L 144.700364 228.198707 
L 144.852545 228.169042 
L 145.055455 228.431212 
L 145.613455 229.722651 
L 146.374364 231.301886 
L 146.678727 231.749347 
L 146.780182 231.405947 
L 147.084545 230.104413 
L 147.287455 229.88542 
L 147.490364 229.948633 
L 147.946909 230.411004 
L 147.997636 230.248856 
L 148.403455 228.901038 
L 148.606364 228.853512 
L 148.707818 228.914395 
L 149.265818 227.211063 
L 149.367273 227.133406 
L 149.519455 225.510993 
L 149.823818 222.699805 
L 150.331091 220.938851 
L 150.483273 221.055026 
L 150.736909 221.69197 
L 150.939818 222.171891 
L 151.244182 221.937522 
L 151.345636 222.021858 
L 151.396364 221.923855 
L 151.700727 221.241093 
L 151.852909 221.33366 
L 152.005091 221.507768 
L 152.360182 220.62698 
L 152.816727 219.881627 
L 152.867455 219.913311 
L 153.070364 220.249877 
L 153.476182 221.505593 
L 155.048727 226.780688 
L 155.758909 228.280092 
L 156.469091 229.25795 
L 157.179273 229.874237 
L 157.331455 229.964786 
L 157.382182 229.88045 
L 157.686545 228.400926 
L 158.143091 225.771766 
L 158.396727 225.482105 
L 158.599636 225.595174 
L 158.954727 226.134891 
L 159.005455 226.083637 
L 159.411273 224.913033 
L 159.563455 224.930739 
L 159.817091 225.269169 
L 159.969273 225.564732 
L 160.02 225.463001 
L 160.730182 222.630845 
L 160.882364 222.688467 
L 161.136 223.135306 
L 161.592545 224.267392 
L 161.947636 223.195102 
L 162.099818 223.289688 
L 162.404182 223.886406 
L 162.454909 223.720685 
L 162.708545 222.871893 
L 162.860727 222.847664 
L 163.063636 223.151459 
L 163.266545 223.648154 
L 163.317273 223.581835 
L 164.078182 221.008587 
L 164.128909 220.978612 
L 164.281091 220.027778 
L 164.585455 217.947188 
L 164.737636 217.803211 
L 164.889818 218.021117 
L 165.194182 219.014663 
L 167.071091 226.111438 
L 167.781273 227.695799 
L 168.491455 228.747588 
L 168.795818 229.073903 
L 168.897273 228.771351 
L 169.303091 227.237156 
L 169.506 227.072523 
L 169.759636 227.18233 
L 169.861091 227.225508 
L 170.013273 226.825729 
L 170.520545 224.72386 
L 170.774182 223.806108 
L 170.926364 223.753767 
L 171.027818 223.727675 
L 171.433636 222.713628 
L 171.636545 222.574 
L 171.940909 222.36386 
L 172.143818 222.519795 
L 172.296 222.631622 
L 172.448182 222.083207 
L 172.651091 220.4858 
L 173.158364 214.971832 
L 173.665636 213.361533 
L 173.716364 213.389645 
L 173.919273 213.822195 
L 174.325091 215.539661 
L 174.629455 216.368418 
L 175.035273 217.375942 
L 175.694727 219.764209 
L 175.796182 219.669623 
L 176.100545 219.029262 
L 176.354182 218.758705 
L 176.557091 218.821296 
L 176.962909 217.846233 
L 177.115091 217.99782 
L 177.318 218.458016 
L 177.368727 218.339201 
L 177.977455 215.425971 
L 178.434 211.343845 
L 178.687636 210.467252 
L 178.890545 209.776724 
L 178.992 209.779831 
L 179.144182 210.08114 
L 179.499273 211.455361 
L 179.55 211.365434 
L 180.209455 208.671042 
L 180.361636 208.698998 
L 180.564545 209.073927 
L 180.666 209.198023 
L 180.970364 208.938182 
L 181.122545 209.133568 
L 181.426909 210.066696 
L 182.086364 213.156052 
L 183.050182 217.548496 
L 183.253091 217.483264 
L 183.912545 214.402605 
L 184.166182 210.571312 
L 184.521273 206.615613 
L 184.825636 204.567483 
L 185.028545 204.249865 
L 185.535818 203.774138 
L 185.738727 204.148911 
L 185.890909 204.443076 
L 186.043091 203.973872 
L 186.956182 198.800198 
L 187.362 195.566088 
L 187.564909 195.131364 
L 187.717091 195.204517 
L 187.767818 195.246762 
L 187.818545 195.152486 
L 187.970727 194.206467 
L 188.630182 190.120459 
L 188.731636 189.784203 
L 189.441818 186.029015 
L 189.644727 184.748138 
L 190.050545 179.641559 
L 190.304182 173.937176 
L 190.456364 163.270657 
L 190.507091 148.42199 
L 190.557818 46.257029 
L 190.608545 90.92138 
L 190.760727 183.868748 
L 190.963636 207.598131 
L 191.166545 211.441227 
L 191.318727 211.674975 
L 191.876727 211.293679 
L 192.130364 211.662861 
L 192.536182 212.750061 
L 193.144909 214.448112 
L 193.195636 214.376046 
L 193.347818 213.020929 
L 193.652182 210.583893 
L 193.855091 210.158021 
L 194.007273 210.220302 
L 194.260909 210.751632 
L 194.717455 212.376685 
L 195.224727 214.024259 
L 195.478364 214.030627 
L 195.681273 214.381637 
L 195.732 214.514276 
L 195.782727 214.481815 
L 196.239273 211.876263 
L 196.391455 211.855295 
L 196.594364 212.239232 
L 196.898727 213.022172 
L 196.949455 212.96222 
L 197.862545 209.4633 
L 198.014727 209.621565 
L 198.268364 210.324984 
L 198.826364 212.558248 
L 198.927818 212.348263 
L 199.181455 210.451099 
L 199.840909 205.832363 
L 200.094545 205.219648 
L 200.246727 205.221201 
L 200.449636 205.510551 
L 200.601818 205.779866 
L 200.703273 205.450134 
L 200.855455 204.033357 
L 201.413455 197.790344 
L 201.717818 196.631234 
L 201.819273 196.13749 
L 202.478727 191.137767 
L 202.833818 190.172179 
L 202.986 189.872111 
L 203.442545 187.708117 
L 203.746909 185.066221 
L 203.949818 180.571581 
L 204.152727 169.317042 
L 204.203455 161.521042 
L 204.304909 49.547984 
L 204.355636 118.253743 
L 204.558545 205.395774 
L 204.761455 215.938042 
L 204.964364 217.774167 
L 205.065818 217.885994 
L 205.218 217.106316 
L 205.471636 214.028763 
L 205.776 211.030266 
L 206.029636 210.250277 
L 206.181818 210.259441 
L 206.435455 210.491636 
L 206.892 209.901597 
L 207.094909 210.228844 
L 207.247091 210.633127 
L 207.297818 210.485423 
L 207.754364 208.336805 
L 207.906545 208.313508 
L 208.109455 208.458727 
L 208.261636 208.187238 
L 209.326909 202.736017 
L 209.479091 202.437348 
L 210.087818 198.50743 
L 210.290727 198.386906 
L 210.493636 198.669423 
L 210.950182 199.78489 
L 211.051636 199.723231 
L 211.254545 199.652873 
L 212.116909 197.136471 
L 212.674909 194.922932 
L 212.928545 194.638396 
L 213.131455 194.622865 
L 213.334364 193.8275 
L 214.551818 184.254549 
L 214.805455 179.468229 
L 215.008364 172.23928 
L 215.109818 162.89635 
L 215.160545 144.675188 
L 215.211273 44.131709 
L 215.262 97.924035 
L 215.414182 187.39081 
L 215.617091 210.783627 
L 215.870727 217.006604 
L 216.175091 219.469733 
L 217.088182 223.502158 
L 217.595455 223.796324 
L 217.696909 223.087624 
L 218.052 220.396028 
L 218.356364 219.444573 
L 218.457818 219.338182 
L 218.863636 218.238402 
L 219.015818 218.352403 
L 219.117273 218.36576 
L 219.269455 217.769197 
L 219.523091 215.818761 
L 219.979636 212.774911 
L 220.233273 212.105507 
L 220.588364 210.332749 
L 220.740545 210.276526 
L 220.892727 210.571933 
L 221.450727 212.02055 
L 221.653636 212.106904 
L 221.907273 212.600183 
L 222.313091 214.087472 
L 223.124727 218.237625 
L 224.443636 224.761602 
L 225.204545 227.450869 
L 225.407455 227.927528 
L 225.458182 227.906405 
L 226.016182 227.184194 
L 226.219091 227.192115 
L 226.777091 226.184125 
L 226.98 226.265976 
L 227.335091 226.758012 
L 229.465636 230.471732 
L 229.617818 229.705566 
L 229.922182 228.546145 
L 230.125091 228.388812 
L 230.226545 228.32389 
L 230.378727 227.35535 
L 231.444 218.27956 
L 231.596182 218.086194 
L 231.748364 218.234208 
L 232.002 218.928774 
L 232.255636 219.705035 
L 232.306364 219.651296 
L 232.458545 219.302771 
L 232.762909 218.37337 
L 232.915091 218.368089 
L 233.118 218.737116 
L 233.219455 218.975679 
L 233.270182 218.854534 
L 233.523818 218.297577 
L 233.676 218.465782 
L 233.777455 218.510512 
L 233.878909 218.136671 
L 234.589091 213.519333 
L 234.741273 213.459537 
L 234.893455 213.717048 
L 235.197818 214.799122 
L 235.958727 218.683067 
L 236.770364 222.900471 
L 236.821091 222.86304 
L 237.074727 222.402533 
L 237.226909 222.575553 
L 237.531273 223.459913 
L 238.241455 225.91714 
L 238.292182 225.83327 
L 238.444364 225.408486 
L 238.799455 223.264993 
L 238.951636 223.13717 
L 239.103818 223.289844 
L 239.408182 224.036439 
L 240.219818 226.420824 
L 240.270545 226.397838 
L 240.625636 226.255881 
L 240.879273 226.475806 
L 241.335818 227.263715 
L 241.386545 227.134959 
L 241.741636 226.101498 
L 241.893818 226.071367 
L 242.096727 226.281197 
L 242.451818 226.87807 
L 242.502545 226.737665 
L 243.162 224.671675 
L 243.364909 224.67183 
L 243.618545 225.020977 
L 244.075091 226.142967 
L 245.241818 229.145192 
L 245.799818 228.405741 
L 245.952 228.392229 
L 246.053455 228.093715 
L 246.51 224.894861 
L 246.662182 224.77325 
L 246.814364 224.916761 
L 247.169455 225.723308 
L 247.270909 225.585389 
L 247.524545 224.644805 
L 247.828909 223.859381 
L 248.133273 223.594881 
L 248.437636 222.986204 
L 248.589818 223.039477 
L 248.742 223.20178 
L 249.147818 222.383274 
L 249.3 222.570273 
L 249.604364 223.423414 
L 250.162364 225.562868 
L 250.263818 225.365464 
L 250.416 224.620732 
L 250.669636 223.335506 
L 250.821818 223.224146 
L 250.974 223.433043 
L 251.329091 224.529252 
L 252.445091 228.44488 
L 252.749455 228.413351 
L 252.952364 228.371882 
L 253.459636 226.900901 
L 254.119091 224.094527 
L 254.271273 224.133511 
L 254.524909 224.564663 
L 254.981455 225.933448 
L 256.300364 230.090901 
L 256.604727 230.716817 
L 256.706182 230.297003 
L 257.061273 227.027016 
L 257.314909 225.335177 
L 257.517818 225.064931 
L 257.67 225.209062 
L 257.923636 225.623907 
L 258.278727 224.988671 
L 258.430909 225.159672 
L 258.735273 225.95923 
L 258.786 225.864023 
L 259.039636 225.096925 
L 259.191818 225.166972 
L 259.445455 225.777979 
L 259.800545 226.908045 
L 259.851273 226.804606 
L 260.104909 226.272655 
L 260.257091 226.331363 
L 260.510727 226.836445 
L 260.815091 227.559744 
L 261.220909 226.764845 
L 261.423818 226.960852 
L 261.778909 227.765225 
L 263.097818 231.047326 
L 263.148545 230.999334 
L 263.605091 229.587217 
L 263.909455 229.32924 
L 264.213818 228.167333 
L 264.416727 228.073058 
L 264.619636 228.310533 
L 264.974727 229.021251 
L 265.025455 228.950117 
L 265.380545 228.15584 
L 265.532727 228.168731 
L 265.786364 228.513063 
L 265.887818 228.646633 
L 266.344364 226.800102 
L 266.851636 222.817067 
L 267.054545 222.538123 
L 267.206727 222.721083 
L 267.714 223.579349 
L 268.018364 224.220642 
L 268.576364 226.132406 
L 269.641636 229.886352 
L 269.692364 229.914464 
L 270.148909 228.855065 
L 270.351818 229.020164 
L 270.757636 229.802793 
L 270.859091 230.030018 
L 270.909818 229.980628 
L 271.264909 228.661854 
L 271.417091 228.673503 
L 271.670727 229.056818 
L 272.127273 229.993985 
L 272.178 229.935121 
L 272.583818 229.363564 
L 272.786727 229.475235 
L 273.141818 230.018369 
L 273.953455 231.56328 
L 274.511455 229.906698 
L 274.714364 230.046481 
L 275.120182 230.699112 
L 276.236182 232.541605 
L 276.946364 233.257759 
L 277.453636 233.53981 
L 277.656545 232.978193 
L 278.011636 232.096164 
L 278.265273 231.907767 
L 278.468182 231.838031 
L 278.721818 230.812491 
L 279.127636 228.384929 
L 279.330545 228.221228 
L 279.533455 228.445191 
L 279.939273 229.40612 
L 281.055273 232.182518 
L 281.664 233.125431 
L 281.714727 233.163949 
L 281.866909 232.503708 
L 282.374182 229.907475 
L 282.627818 229.611446 
L 282.830727 229.701528 
L 283.185818 230.229286 
L 283.642364 231.034901 
L 284.098909 230.083912 
L 284.301818 230.136719 
L 284.606182 230.300575 
L 284.809091 230.039803 
L 285.316364 227.994158 
L 285.468545 227.610221 
L 286.229455 224.89921 
L 286.381636 225.038527 
L 286.686 225.758409 
L 287.091818 226.956659 
L 287.244 226.240349 
L 287.599091 224.432336 
L 287.751273 224.321752 
L 287.903455 224.480172 
L 288.512182 225.433025 
L 288.765818 225.662891 
L 289.120909 226.408865 
L 290.287636 229.684909 
L 290.338364 229.567026 
L 291.708 223.698941 
L 291.860182 223.846645 
L 291.961636 224.025567 
L 292.012364 223.96748 
L 292.316727 222.963839 
L 292.671818 220.107765 
L 292.824 219.953693 
L 292.976182 220.192721 
L 293.280545 221.302908 
L 294.498 227.11306 
L 294.599455 226.953397 
L 294.853091 226.609687 
L 295.005273 226.570392 
L 295.461818 225.896017 
L 295.664727 226.094354 
L 296.019818 226.886612 
L 296.831455 229.105121 
L 296.882182 228.962387 
L 297.186545 228.207249 
L 297.338727 228.192805 
L 297.592364 228.502812 
L 297.896727 229.05744 
L 297.947455 229.024668 
L 298.404 228.54133 
L 298.606909 228.667445 
L 298.962 229.231702 
L 300.078 231.50131 
L 300.128727 231.418217 
L 300.585273 230.151008 
L 300.788182 230.131749 
L 301.041818 230.378077 
L 301.701273 231.460152 
L 301.752 231.409364 
L 302.208545 230.169024 
L 302.411455 230.173994 
L 302.512909 230.110315 
L 302.969455 229.172372 
L 303.172364 229.244904 
L 303.273818 229.291809 
L 303.476727 228.787814 
L 303.730364 228.394403 
L 303.882545 228.446433 
L 304.136182 228.838136 
L 304.795636 230.473285 
L 305.607273 232.236412 
L 306.266727 233.15665 
L 306.976909 233.757716 
L 307.382727 233.930425 
L 307.534909 233.392727 
L 307.89 230.987841 
L 308.245091 228.863918 
L 308.498727 228.394714 
L 308.803091 228.198707 
L 309.411818 225.977247 
L 309.564 225.713057 
L 309.919091 224.834134 
L 310.071273 224.843763 
L 310.274182 225.160604 
L 310.68 226.374075 
L 311.339455 228.547698 
L 311.390182 228.510578 
L 311.694545 228.306961 
L 311.897455 228.460256 
L 312.151091 228.775389 
L 312.556909 227.715058 
L 312.709091 227.633052 
L 313.064182 226.609687 
L 313.216364 226.594776 
L 313.622182 225.435976 
L 313.774364 225.611171 
L 314.078727 226.454372 
L 314.586 228.181001 
L 314.636727 228.045878 
L 314.890364 227.465158 
L 315.042545 227.522935 
L 315.296182 228.016213 
L 316.361455 230.864211 
L 316.412182 230.798979 
L 316.513636 230.486176 
L 316.970182 227.854996 
L 317.223818 227.338887 
L 317.528182 226.304805 
L 317.578909 226.281041 
L 317.984727 224.784899 
L 318.035455 224.804779 
L 318.289091 225.082326 
L 318.339818 225.027811 
L 318.593455 224.837706 
L 318.745636 224.984012 
L 319.05 225.723619 
L 319.354364 226.437132 
L 319.861636 226.425328 
L 320.216727 225.871167 
L 320.368909 225.980198 
L 320.622545 226.497239 
L 321.282 228.584352 
L 322.144364 231.067517 
L 322.803818 232.323388 
L 323.311091 232.947131 
L 323.412545 232.688222 
L 324.021273 230.535255 
L 324.325636 229.838671 
L 324.528545 229.779496 
L 324.782182 230.002527 
L 325.289455 230.90071 
L 326.354727 232.801756 
L 326.608364 233.091418 
L 326.760545 232.663216 
L 327.115636 231.738164 
L 327.369273 231.592169 
L 327.622909 231.719837 
L 328.130182 232.32432 
L 328.586727 232.850525 
L 328.738909 232.60808 
L 329.144727 231.924541 
L 329.398364 231.881364 
L 329.702727 232.09166 
L 330.159273 232.622679 
L 330.311455 231.375505 
L 330.615818 229.095336 
L 330.818727 228.657661 
L 330.970909 228.67692 
L 331.123091 228.743394 
L 331.275273 228.256639 
L 331.630364 226.480154 
L 331.833273 226.363979 
L 332.036182 226.658611 
L 332.137636 226.813925 
L 332.188364 226.786589 
L 332.289818 226.501432 
L 332.644909 224.271585 
L 332.797091 224.162089 
L 332.847818 224.201849 
L 332.949273 223.835618 
L 333.202909 223.059047 
L 333.304364 223.088401 
L 333.507273 223.519243 
L 333.811636 224.426123 
L 334.420364 222.694679 
L 334.471091 222.716113 
L 334.623273 223.00127 
L 334.978364 224.350796 
L 335.992909 228.613551 
L 336.195818 228.078338 
L 336.652364 226.210839 
L 336.804545 226.230564 
L 337.007455 226.560297 
L 337.464 227.863694 
L 338.529273 230.928666 
L 339.188727 232.16854 
L 339.848182 232.961575 
L 340.203273 233.188955 
L 340.355455 232.528248 
L 340.761273 229.018922 
L 340.964182 228.676298 
L 341.116364 228.736871 
L 341.420727 229.105121 
L 341.471455 229.015349 
L 341.674364 228.030812 
L 341.978727 226.841415 
L 342.283091 226.356369 
L 342.536727 225.337663 
L 342.688909 225.300698 
L 342.891818 225.665065 
L 343.348364 227.209821 
L 344.312182 230.454802 
L 344.667273 229.198931 
L 344.870182 229.079339 
L 345.022364 227.915258 
L 345.529636 223.98969 
L 345.834 223.071006 
L 346.189091 221.821036 
L 346.341273 221.876639 
L 346.594909 222.353143 
L 346.645636 222.321614 
L 346.797818 221.577038 
L 348.015273 211.617199 
L 348.167455 211.638011 
L 348.370364 212.182853 
L 348.776182 214.189669 
L 349.029818 215.14392 
L 349.182 215.270035 
L 349.384909 215.846717 
L 349.841455 217.246254 
L 349.993636 217.384018 
L 350.247273 217.743571 
L 350.450182 217.782554 
L 350.653091 218.219609 
L 351.008182 219.712024 
L 352.631455 227.720339 
L 352.682182 227.594534 
L 352.935818 227.010863 
L 353.088 227.050624 
L 353.341636 227.499482 
L 354.508364 230.442067 
L 354.559091 230.169335 
L 354.812727 229.087571 
L 355.015636 228.97621 
L 355.218545 229.201571 
L 355.725818 230.238605 
L 356.030182 230.876481 
L 356.131636 230.475925 
L 356.638909 227.156393 
L 356.791091 227.144589 
L 356.994 227.4591 
L 357.501273 228.877275 
L 357.957818 230.09028 
L 358.414364 229.321008 
L 358.617273 229.501949 
L 359.023091 230.291412 
L 360.139091 232.534305 
L 360.798545 233.349239 
L 361.458 233.856962 
L 361.508727 233.852302 
L 361.660909 233.331223 
L 362.320364 229.619677 
L 362.472545 229.61362 
L 362.726182 229.914464 
L 362.776909 229.99414 
L 362.827636 229.920211 
L 363.182727 228.872616 
L 363.334909 228.898087 
L 363.588545 229.310602 
L 365.414727 233.178083 
L 365.617636 232.736059 
L 365.972727 232.071158 
L 366.327818 231.7436 
L 366.682909 230.480429 
L 366.885818 230.405257 
L 367.139455 230.685755 
L 367.748182 231.903885 
L 368.559818 233.333087 
L 368.914909 233.761754 
L 369.016364 233.1815 
L 369.422182 229.974105 
L 369.625091 229.580693 
L 369.777273 229.605078 
L 370.030909 229.924559 
L 370.081636 229.834166 
L 370.436727 229.036317 
L 370.588909 229.084309 
L 370.842545 229.50226 
L 371.400545 230.730951 
L 371.451273 230.666651 
L 371.806364 230.230063 
L 371.907818 230.193564 
L 372.465818 229.204988 
L 372.668727 229.433611 
L 373.125273 230.436941 
L 373.531091 231.448658 
L 373.581818 231.426759 
" style="fill:none;stroke:#800080;stroke-linecap:square;stroke-width:1.5;"/>
   </g>
   <g id="line2d_18">
    <path clip-path="url(#pabfe69492d)" d="M 322.81228 213.171429 
L 373.429662 213.171429 
L 373.429662 213.171429 
" style="fill:none;stroke:#000000;stroke-linecap:square;stroke-width:1.5;"/>
   </g>
   <g id="line2d_19">
    <path clip-path="url(#pabfe69492d)" d="M 322.81228 189.874286 
L 322.81228 188.321143 
L 322.81228 186.768 
L 322.81228 185.214857 
L 322.81228 183.661714 
L 322.81228 182.108571 
L 322.81228 180.555429 
L 322.81228 179.002286 
L 322.81228 177.449143 
L 322.81228 175.896 
L 322.81228 174.342857 
L 322.81228 172.789714 
L 322.81228 171.236571 
L 322.81228 169.683429 
L 322.81228 168.130286 
L 322.81228 166.577143 
L 322.81228 165.024 
L 322.81228 163.470857 
L 322.81228 161.917714 
L 322.81228 160.364571 
" style="fill:none;stroke:#000000;stroke-linecap:square;stroke-width:1.5;"/>
   </g>
   <g id="patch_3">
    <path d="M 54 252 
L 54 34.56 
" style="fill:none;stroke:#000000;stroke-linecap:square;stroke-linejoin:miter;stroke-width:0.8;"/>
   </g>
   <g id="patch_4">
    <path d="M 54 252 
L 388.8 252 
" style="fill:none;stroke:#000000;stroke-linecap:square;stroke-linejoin:miter;stroke-width:0.8;"/>
   </g>
   <g id="text_18">
    <!-- 500 ms -->
    <g transform="translate(322.81228 211.618286)scale(0.1 -0.1)">
     <use xlink:href="#DejaVuSans-35"/>
     <use x="63.623047" xlink:href="#DejaVuSans-30"/>
     <use x="127.246094" xlink:href="#DejaVuSans-30"/>
     <use x="190.869141" xlink:href="#DejaVuSans-20"/>
     <use x="222.65625" xlink:href="#DejaVuSans-6d"/>
     <use x="320.068359" xlink:href="#DejaVuSans-73"/>
    </g>
   </g>
   <g id="text_19">
    <!-- 20 mV -->
    <g transform="translate(327.884162 158.811429)scale(0.1 -0.1)">
     <use xlink:href="#DejaVuSans-32"/>
     <use x="63.623047" xlink:href="#DejaVuSans-30"/>
     <use x="127.246094" xlink:href="#DejaVuSans-20"/>
     <use x="159.033203" xlink:href="#DejaVuSans-6d"/>
     <use x="256.445312" xlink:href="#DejaVuSans-56"/>
    </g>
   </g>
  </g>
 </g>
 <defs>
  <clipPath id="pabfe69492d">
   <rect height="217.44" width="334.8" x="54" y="34.56"/>
  </clipPath>
 </defs>
</svg>
