<?xml version="1.0" encoding="utf-8" standalone="no"?>
<!DOCTYPE svg PUBLIC "-//W3C//DTD SVG 1.1//EN"
  "http://www.w3.org/Graphics/SVG/1.1/DTD/svg11.dtd">
<svg xmlns:xlink="http://www.w3.org/1999/xlink" width="432pt" height="288pt" viewBox="0 0 432 288" xmlns="http://www.w3.org/2000/svg" version="1.1">
 <metadata>
  <rdf:RDF xmlns:dc="http://purl.org/dc/elements/1.1/" xmlns:cc="http://creativecommons.org/ns#" xmlns:rdf="http://www.w3.org/1999/02/22-rdf-syntax-ns#">
   <cc:Work>
    <dc:type rdf:resource="http://purl.org/dc/dcmitype/StillImage"/>
    <dc:date>2022-07-12T18:39:04.895990</dc:date>
    <dc:format>image/svg+xml</dc:format>
    <dc:creator>
     <cc:Agent>
      <dc:title>Matplotlib v3.5.2, https://matplotlib.org/</dc:title>
     </cc:Agent>
    </dc:creator>
   </cc:Work>
  </rdf:RDF>
 </metadata>
 <defs>
  <style type="text/css">*{stroke-linejoin: round; stroke-linecap: butt}</style>
 </defs>
 <g id="figure_1">
  <g id="patch_1">
   <path d="M 0 288 
L 432 288 
L 432 0 
L 0 0 
L 0 288 
z
" style="fill: none"/>
  </g>
  <g id="axes_1">
   <g id="patch_2">
    <path d="M 54 252 
L 388.8 252 
L 388.8 34.56 
L 54 34.56 
z
" style="fill: #ffffff"/>
   </g>
   <g id="matplotlib.axis_1">
    <g id="xtick_1">
     <g id="line2d_1">
      <defs>
       <path id="me06da0d575" d="M 0 0 
L 0 3.5 
" style="stroke: #000000; stroke-width: 0.8"/>
      </defs>
      <g>
       <use xlink:href="#me06da0d575" x="69.218182" y="252" style="stroke: #000000; stroke-width: 0.8"/>
      </g>
     </g>
     <g id="text_1">
      <!-- 0 -->
      <g transform="translate(66.036932 266.598437)scale(0.1 -0.1)">
       <defs>
        <path id="DejaVuSans-30" d="M 2034 4250 
Q 1547 4250 1301 3770 
Q 1056 3291 1056 2328 
Q 1056 1369 1301 889 
Q 1547 409 2034 409 
Q 2525 409 2770 889 
Q 3016 1369 3016 2328 
Q 3016 3291 2770 3770 
Q 2525 4250 2034 4250 
z
M 2034 4750 
Q 2819 4750 3233 4129 
Q 3647 3509 3647 2328 
Q 3647 1150 3233 529 
Q 2819 -91 2034 -91 
Q 1250 -91 836 529 
Q 422 1150 422 2328 
Q 422 3509 836 4129 
Q 1250 4750 2034 4750 
z
" transform="scale(0.015625)"/>
       </defs>
       <use xlink:href="#DejaVuSans-30"/>
      </g>
     </g>
    </g>
    <g id="xtick_2">
     <g id="line2d_2">
      <g>
       <use xlink:href="#me06da0d575" x="119.945032" y="252" style="stroke: #000000; stroke-width: 0.8"/>
      </g>
     </g>
     <g id="text_2">
      <!-- 10000 -->
      <g transform="translate(104.038782 266.598437)scale(0.1 -0.1)">
       <defs>
        <path id="DejaVuSans-31" d="M 794 531 
L 1825 531 
L 1825 4091 
L 703 3866 
L 703 4441 
L 1819 4666 
L 2450 4666 
L 2450 531 
L 3481 531 
L 3481 0 
L 794 0 
L 794 531 
z
" transform="scale(0.015625)"/>
       </defs>
       <use xlink:href="#DejaVuSans-31"/>
       <use xlink:href="#DejaVuSans-30" x="63.623047"/>
       <use xlink:href="#DejaVuSans-30" x="127.246094"/>
       <use xlink:href="#DejaVuSans-30" x="190.869141"/>
       <use xlink:href="#DejaVuSans-30" x="254.492188"/>
      </g>
     </g>
    </g>
    <g id="xtick_3">
     <g id="line2d_3">
      <g>
       <use xlink:href="#me06da0d575" x="170.671882" y="252" style="stroke: #000000; stroke-width: 0.8"/>
      </g>
     </g>
     <g id="text_3">
      <!-- 20000 -->
      <g transform="translate(154.765632 266.598437)scale(0.1 -0.1)">
       <defs>
        <path id="DejaVuSans-32" d="M 1228 531 
L 3431 531 
L 3431 0 
L 469 0 
L 469 531 
Q 828 903 1448 1529 
Q 2069 2156 2228 2338 
Q 2531 2678 2651 2914 
Q 2772 3150 2772 3378 
Q 2772 3750 2511 3984 
Q 2250 4219 1831 4219 
Q 1534 4219 1204 4116 
Q 875 4013 500 3803 
L 500 4441 
Q 881 4594 1212 4672 
Q 1544 4750 1819 4750 
Q 2544 4750 2975 4387 
Q 3406 4025 3406 3419 
Q 3406 3131 3298 2873 
Q 3191 2616 2906 2266 
Q 2828 2175 2409 1742 
Q 1991 1309 1228 531 
z
" transform="scale(0.015625)"/>
       </defs>
       <use xlink:href="#DejaVuSans-32"/>
       <use xlink:href="#DejaVuSans-30" x="63.623047"/>
       <use xlink:href="#DejaVuSans-30" x="127.246094"/>
       <use xlink:href="#DejaVuSans-30" x="190.869141"/>
       <use xlink:href="#DejaVuSans-30" x="254.492188"/>
      </g>
     </g>
    </g>
    <g id="xtick_4">
     <g id="line2d_4">
      <g>
       <use xlink:href="#me06da0d575" x="221.398732" y="252" style="stroke: #000000; stroke-width: 0.8"/>
      </g>
     </g>
     <g id="text_4">
      <!-- 30000 -->
      <g transform="translate(205.492482 266.598437)scale(0.1 -0.1)">
       <defs>
        <path id="DejaVuSans-33" d="M 2597 2516 
Q 3050 2419 3304 2112 
Q 3559 1806 3559 1356 
Q 3559 666 3084 287 
Q 2609 -91 1734 -91 
Q 1441 -91 1130 -33 
Q 819 25 488 141 
L 488 750 
Q 750 597 1062 519 
Q 1375 441 1716 441 
Q 2309 441 2620 675 
Q 2931 909 2931 1356 
Q 2931 1769 2642 2001 
Q 2353 2234 1838 2234 
L 1294 2234 
L 1294 2753 
L 1863 2753 
Q 2328 2753 2575 2939 
Q 2822 3125 2822 3475 
Q 2822 3834 2567 4026 
Q 2313 4219 1838 4219 
Q 1578 4219 1281 4162 
Q 984 4106 628 3988 
L 628 4550 
Q 988 4650 1302 4700 
Q 1616 4750 1894 4750 
Q 2613 4750 3031 4423 
Q 3450 4097 3450 3541 
Q 3450 3153 3228 2886 
Q 3006 2619 2597 2516 
z
" transform="scale(0.015625)"/>
       </defs>
       <use xlink:href="#DejaVuSans-33"/>
       <use xlink:href="#DejaVuSans-30" x="63.623047"/>
       <use xlink:href="#DejaVuSans-30" x="127.246094"/>
       <use xlink:href="#DejaVuSans-30" x="190.869141"/>
       <use xlink:href="#DejaVuSans-30" x="254.492188"/>
      </g>
     </g>
    </g>
    <g id="xtick_5">
     <g id="line2d_5">
      <g>
       <use xlink:href="#me06da0d575" x="272.125582" y="252" style="stroke: #000000; stroke-width: 0.8"/>
      </g>
     </g>
     <g id="text_5">
      <!-- 40000 -->
      <g transform="translate(256.219332 266.598437)scale(0.1 -0.1)">
       <defs>
        <path id="DejaVuSans-34" d="M 2419 4116 
L 825 1625 
L 2419 1625 
L 2419 4116 
z
M 2253 4666 
L 3047 4666 
L 3047 1625 
L 3713 1625 
L 3713 1100 
L 3047 1100 
L 3047 0 
L 2419 0 
L 2419 1100 
L 313 1100 
L 313 1709 
L 2253 4666 
z
" transform="scale(0.015625)"/>
       </defs>
       <use xlink:href="#DejaVuSans-34"/>
       <use xlink:href="#DejaVuSans-30" x="63.623047"/>
       <use xlink:href="#DejaVuSans-30" x="127.246094"/>
       <use xlink:href="#DejaVuSans-30" x="190.869141"/>
       <use xlink:href="#DejaVuSans-30" x="254.492188"/>
      </g>
     </g>
    </g>
    <g id="xtick_6">
     <g id="line2d_6">
      <g>
       <use xlink:href="#me06da0d575" x="322.852432" y="252" style="stroke: #000000; stroke-width: 0.8"/>
      </g>
     </g>
     <g id="text_6">
      <!-- 50000 -->
      <g transform="translate(306.946182 266.598437)scale(0.1 -0.1)">
       <defs>
        <path id="DejaVuSans-35" d="M 691 4666 
L 3169 4666 
L 3169 4134 
L 1269 4134 
L 1269 2991 
Q 1406 3038 1543 3061 
Q 1681 3084 1819 3084 
Q 2600 3084 3056 2656 
Q 3513 2228 3513 1497 
Q 3513 744 3044 326 
Q 2575 -91 1722 -91 
Q 1428 -91 1123 -41 
Q 819 9 494 109 
L 494 744 
Q 775 591 1075 516 
Q 1375 441 1709 441 
Q 2250 441 2565 725 
Q 2881 1009 2881 1497 
Q 2881 1984 2565 2268 
Q 2250 2553 1709 2553 
Q 1456 2553 1204 2497 
Q 953 2441 691 2322 
L 691 4666 
z
" transform="scale(0.015625)"/>
       </defs>
       <use xlink:href="#DejaVuSans-35"/>
       <use xlink:href="#DejaVuSans-30" x="63.623047"/>
       <use xlink:href="#DejaVuSans-30" x="127.246094"/>
       <use xlink:href="#DejaVuSans-30" x="190.869141"/>
       <use xlink:href="#DejaVuSans-30" x="254.492188"/>
      </g>
     </g>
    </g>
    <g id="xtick_7">
     <g id="line2d_7">
      <g>
       <use xlink:href="#me06da0d575" x="373.579282" y="252" style="stroke: #000000; stroke-width: 0.8"/>
      </g>
     </g>
     <g id="text_7">
      <!-- 60000 -->
      <g transform="translate(357.673032 266.598437)scale(0.1 -0.1)">
       <defs>
        <path id="DejaVuSans-36" d="M 2113 2584 
Q 1688 2584 1439 2293 
Q 1191 2003 1191 1497 
Q 1191 994 1439 701 
Q 1688 409 2113 409 
Q 2538 409 2786 701 
Q 3034 994 3034 1497 
Q 3034 2003 2786 2293 
Q 2538 2584 2113 2584 
z
M 3366 4563 
L 3366 3988 
Q 3128 4100 2886 4159 
Q 2644 4219 2406 4219 
Q 1781 4219 1451 3797 
Q 1122 3375 1075 2522 
Q 1259 2794 1537 2939 
Q 1816 3084 2150 3084 
Q 2853 3084 3261 2657 
Q 3669 2231 3669 1497 
Q 3669 778 3244 343 
Q 2819 -91 2113 -91 
Q 1303 -91 875 529 
Q 447 1150 447 2328 
Q 447 3434 972 4092 
Q 1497 4750 2381 4750 
Q 2619 4750 2861 4703 
Q 3103 4656 3366 4563 
z
" transform="scale(0.015625)"/>
       </defs>
       <use xlink:href="#DejaVuSans-36"/>
       <use xlink:href="#DejaVuSans-30" x="63.623047"/>
       <use xlink:href="#DejaVuSans-30" x="127.246094"/>
       <use xlink:href="#DejaVuSans-30" x="190.869141"/>
       <use xlink:href="#DejaVuSans-30" x="254.492188"/>
      </g>
     </g>
    </g>
    <g id="text_8">
     <!-- Time(ms) -->
     <g transform="translate(197.789844 280.276563)scale(0.1 -0.1)">
      <defs>
       <path id="DejaVuSans-54" d="M -19 4666 
L 3928 4666 
L 3928 4134 
L 2272 4134 
L 2272 0 
L 1638 0 
L 1638 4134 
L -19 4134 
L -19 4666 
z
" transform="scale(0.015625)"/>
       <path id="DejaVuSans-69" d="M 603 3500 
L 1178 3500 
L 1178 0 
L 603 0 
L 603 3500 
z
M 603 4863 
L 1178 4863 
L 1178 4134 
L 603 4134 
L 603 4863 
z
" transform="scale(0.015625)"/>
       <path id="DejaVuSans-6d" d="M 3328 2828 
Q 3544 3216 3844 3400 
Q 4144 3584 4550 3584 
Q 5097 3584 5394 3201 
Q 5691 2819 5691 2113 
L 5691 0 
L 5113 0 
L 5113 2094 
Q 5113 2597 4934 2840 
Q 4756 3084 4391 3084 
Q 3944 3084 3684 2787 
Q 3425 2491 3425 1978 
L 3425 0 
L 2847 0 
L 2847 2094 
Q 2847 2600 2669 2842 
Q 2491 3084 2119 3084 
Q 1678 3084 1418 2786 
Q 1159 2488 1159 1978 
L 1159 0 
L 581 0 
L 581 3500 
L 1159 3500 
L 1159 2956 
Q 1356 3278 1631 3431 
Q 1906 3584 2284 3584 
Q 2666 3584 2933 3390 
Q 3200 3197 3328 2828 
z
" transform="scale(0.015625)"/>
       <path id="DejaVuSans-65" d="M 3597 1894 
L 3597 1613 
L 953 1613 
Q 991 1019 1311 708 
Q 1631 397 2203 397 
Q 2534 397 2845 478 
Q 3156 559 3463 722 
L 3463 178 
Q 3153 47 2828 -22 
Q 2503 -91 2169 -91 
Q 1331 -91 842 396 
Q 353 884 353 1716 
Q 353 2575 817 3079 
Q 1281 3584 2069 3584 
Q 2775 3584 3186 3129 
Q 3597 2675 3597 1894 
z
M 3022 2063 
Q 3016 2534 2758 2815 
Q 2500 3097 2075 3097 
Q 1594 3097 1305 2825 
Q 1016 2553 972 2059 
L 3022 2063 
z
" transform="scale(0.015625)"/>
       <path id="DejaVuSans-28" d="M 1984 4856 
Q 1566 4138 1362 3434 
Q 1159 2731 1159 2009 
Q 1159 1288 1364 580 
Q 1569 -128 1984 -844 
L 1484 -844 
Q 1016 -109 783 600 
Q 550 1309 550 2009 
Q 550 2706 781 3412 
Q 1013 4119 1484 4856 
L 1984 4856 
z
" transform="scale(0.015625)"/>
       <path id="DejaVuSans-73" d="M 2834 3397 
L 2834 2853 
Q 2591 2978 2328 3040 
Q 2066 3103 1784 3103 
Q 1356 3103 1142 2972 
Q 928 2841 928 2578 
Q 928 2378 1081 2264 
Q 1234 2150 1697 2047 
L 1894 2003 
Q 2506 1872 2764 1633 
Q 3022 1394 3022 966 
Q 3022 478 2636 193 
Q 2250 -91 1575 -91 
Q 1294 -91 989 -36 
Q 684 19 347 128 
L 347 722 
Q 666 556 975 473 
Q 1284 391 1588 391 
Q 1994 391 2212 530 
Q 2431 669 2431 922 
Q 2431 1156 2273 1281 
Q 2116 1406 1581 1522 
L 1381 1569 
Q 847 1681 609 1914 
Q 372 2147 372 2553 
Q 372 3047 722 3315 
Q 1072 3584 1716 3584 
Q 2034 3584 2315 3537 
Q 2597 3491 2834 3397 
z
" transform="scale(0.015625)"/>
       <path id="DejaVuSans-29" d="M 513 4856 
L 1013 4856 
Q 1481 4119 1714 3412 
Q 1947 2706 1947 2009 
Q 1947 1309 1714 600 
Q 1481 -109 1013 -844 
L 513 -844 
Q 928 -128 1133 580 
Q 1338 1288 1338 2009 
Q 1338 2731 1133 3434 
Q 928 4138 513 4856 
z
" transform="scale(0.015625)"/>
      </defs>
      <use xlink:href="#DejaVuSans-54"/>
      <use xlink:href="#DejaVuSans-69" x="57.958984"/>
      <use xlink:href="#DejaVuSans-6d" x="85.742188"/>
      <use xlink:href="#DejaVuSans-65" x="183.154297"/>
      <use xlink:href="#DejaVuSans-28" x="244.677734"/>
      <use xlink:href="#DejaVuSans-6d" x="283.691406"/>
      <use xlink:href="#DejaVuSans-73" x="381.103516"/>
      <use xlink:href="#DejaVuSans-29" x="433.203125"/>
     </g>
    </g>
   </g>
   <g id="matplotlib.axis_2">
    <g id="ytick_1">
     <g id="line2d_8">
      <defs>
       <path id="m824e5cb522" d="M 0 0 
L -3.5 0 
" style="stroke: #000000; stroke-width: 0.8"/>
      </defs>
      <g>
       <use xlink:href="#m824e5cb522" x="54" y="252" style="stroke: #000000; stroke-width: 0.8"/>
      </g>
     </g>
     <g id="text_9">
      <!-- −100 -->
      <g transform="translate(19.532812 255.799219)scale(0.1 -0.1)">
       <defs>
        <path id="DejaVuSans-2212" d="M 678 2272 
L 4684 2272 
L 4684 1741 
L 678 1741 
L 678 2272 
z
" transform="scale(0.015625)"/>
       </defs>
       <use xlink:href="#DejaVuSans-2212"/>
       <use xlink:href="#DejaVuSans-31" x="83.789062"/>
       <use xlink:href="#DejaVuSans-30" x="147.412109"/>
       <use xlink:href="#DejaVuSans-30" x="211.035156"/>
      </g>
     </g>
    </g>
    <g id="ytick_2">
     <g id="line2d_9">
      <g>
       <use xlink:href="#m824e5cb522" x="54" y="208.512" style="stroke: #000000; stroke-width: 0.8"/>
      </g>
     </g>
     <g id="text_10">
      <!-- −90 -->
      <g transform="translate(25.895312 212.311219)scale(0.1 -0.1)">
       <defs>
        <path id="DejaVuSans-39" d="M 703 97 
L 703 672 
Q 941 559 1184 500 
Q 1428 441 1663 441 
Q 2288 441 2617 861 
Q 2947 1281 2994 2138 
Q 2813 1869 2534 1725 
Q 2256 1581 1919 1581 
Q 1219 1581 811 2004 
Q 403 2428 403 3163 
Q 403 3881 828 4315 
Q 1253 4750 1959 4750 
Q 2769 4750 3195 4129 
Q 3622 3509 3622 2328 
Q 3622 1225 3098 567 
Q 2575 -91 1691 -91 
Q 1453 -91 1209 -44 
Q 966 3 703 97 
z
M 1959 2075 
Q 2384 2075 2632 2365 
Q 2881 2656 2881 3163 
Q 2881 3666 2632 3958 
Q 2384 4250 1959 4250 
Q 1534 4250 1286 3958 
Q 1038 3666 1038 3163 
Q 1038 2656 1286 2365 
Q 1534 2075 1959 2075 
z
" transform="scale(0.015625)"/>
       </defs>
       <use xlink:href="#DejaVuSans-2212"/>
       <use xlink:href="#DejaVuSans-39" x="83.789062"/>
       <use xlink:href="#DejaVuSans-30" x="147.412109"/>
      </g>
     </g>
    </g>
    <g id="ytick_3">
     <g id="line2d_10">
      <g>
       <use xlink:href="#m824e5cb522" x="54" y="165.024" style="stroke: #000000; stroke-width: 0.8"/>
      </g>
     </g>
     <g id="text_11">
      <!-- −80 -->
      <g transform="translate(25.895312 168.823219)scale(0.1 -0.1)">
       <defs>
        <path id="DejaVuSans-38" d="M 2034 2216 
Q 1584 2216 1326 1975 
Q 1069 1734 1069 1313 
Q 1069 891 1326 650 
Q 1584 409 2034 409 
Q 2484 409 2743 651 
Q 3003 894 3003 1313 
Q 3003 1734 2745 1975 
Q 2488 2216 2034 2216 
z
M 1403 2484 
Q 997 2584 770 2862 
Q 544 3141 544 3541 
Q 544 4100 942 4425 
Q 1341 4750 2034 4750 
Q 2731 4750 3128 4425 
Q 3525 4100 3525 3541 
Q 3525 3141 3298 2862 
Q 3072 2584 2669 2484 
Q 3125 2378 3379 2068 
Q 3634 1759 3634 1313 
Q 3634 634 3220 271 
Q 2806 -91 2034 -91 
Q 1263 -91 848 271 
Q 434 634 434 1313 
Q 434 1759 690 2068 
Q 947 2378 1403 2484 
z
M 1172 3481 
Q 1172 3119 1398 2916 
Q 1625 2713 2034 2713 
Q 2441 2713 2670 2916 
Q 2900 3119 2900 3481 
Q 2900 3844 2670 4047 
Q 2441 4250 2034 4250 
Q 1625 4250 1398 4047 
Q 1172 3844 1172 3481 
z
" transform="scale(0.015625)"/>
       </defs>
       <use xlink:href="#DejaVuSans-2212"/>
       <use xlink:href="#DejaVuSans-38" x="83.789062"/>
       <use xlink:href="#DejaVuSans-30" x="147.412109"/>
      </g>
     </g>
    </g>
    <g id="ytick_4">
     <g id="line2d_11">
      <g>
       <use xlink:href="#m824e5cb522" x="54" y="121.536" style="stroke: #000000; stroke-width: 0.8"/>
      </g>
     </g>
     <g id="text_12">
      <!-- −70 -->
      <g transform="translate(25.895312 125.335219)scale(0.1 -0.1)">
       <defs>
        <path id="DejaVuSans-37" d="M 525 4666 
L 3525 4666 
L 3525 4397 
L 1831 0 
L 1172 0 
L 2766 4134 
L 525 4134 
L 525 4666 
z
" transform="scale(0.015625)"/>
       </defs>
       <use xlink:href="#DejaVuSans-2212"/>
       <use xlink:href="#DejaVuSans-37" x="83.789062"/>
       <use xlink:href="#DejaVuSans-30" x="147.412109"/>
      </g>
     </g>
    </g>
    <g id="ytick_5">
     <g id="line2d_12">
      <g>
       <use xlink:href="#m824e5cb522" x="54" y="78.048" style="stroke: #000000; stroke-width: 0.8"/>
      </g>
     </g>
     <g id="text_13">
      <!-- −60 -->
      <g transform="translate(25.895312 81.847219)scale(0.1 -0.1)">
       <use xlink:href="#DejaVuSans-2212"/>
       <use xlink:href="#DejaVuSans-36" x="83.789062"/>
       <use xlink:href="#DejaVuSans-30" x="147.412109"/>
      </g>
     </g>
    </g>
    <g id="ytick_6">
     <g id="line2d_13">
      <g>
       <use xlink:href="#m824e5cb522" x="54" y="34.56" style="stroke: #000000; stroke-width: 0.8"/>
      </g>
     </g>
     <g id="text_14">
      <!-- −50 -->
      <g transform="translate(25.895312 38.359219)scale(0.1 -0.1)">
       <use xlink:href="#DejaVuSans-2212"/>
       <use xlink:href="#DejaVuSans-35" x="83.789062"/>
       <use xlink:href="#DejaVuSans-30" x="147.412109"/>
      </g>
     </g>
    </g>
    <g id="text_15">
     <!-- Membrane potential (mV) -->
     <g transform="translate(13.453125 207.691719)rotate(-90)scale(0.1 -0.1)">
      <defs>
       <path id="DejaVuSans-4d" d="M 628 4666 
L 1569 4666 
L 2759 1491 
L 3956 4666 
L 4897 4666 
L 4897 0 
L 4281 0 
L 4281 4097 
L 3078 897 
L 2444 897 
L 1241 4097 
L 1241 0 
L 628 0 
L 628 4666 
z
" transform="scale(0.015625)"/>
       <path id="DejaVuSans-62" d="M 3116 1747 
Q 3116 2381 2855 2742 
Q 2594 3103 2138 3103 
Q 1681 3103 1420 2742 
Q 1159 2381 1159 1747 
Q 1159 1113 1420 752 
Q 1681 391 2138 391 
Q 2594 391 2855 752 
Q 3116 1113 3116 1747 
z
M 1159 2969 
Q 1341 3281 1617 3432 
Q 1894 3584 2278 3584 
Q 2916 3584 3314 3078 
Q 3713 2572 3713 1747 
Q 3713 922 3314 415 
Q 2916 -91 2278 -91 
Q 1894 -91 1617 61 
Q 1341 213 1159 525 
L 1159 0 
L 581 0 
L 581 4863 
L 1159 4863 
L 1159 2969 
z
" transform="scale(0.015625)"/>
       <path id="DejaVuSans-72" d="M 2631 2963 
Q 2534 3019 2420 3045 
Q 2306 3072 2169 3072 
Q 1681 3072 1420 2755 
Q 1159 2438 1159 1844 
L 1159 0 
L 581 0 
L 581 3500 
L 1159 3500 
L 1159 2956 
Q 1341 3275 1631 3429 
Q 1922 3584 2338 3584 
Q 2397 3584 2469 3576 
Q 2541 3569 2628 3553 
L 2631 2963 
z
" transform="scale(0.015625)"/>
       <path id="DejaVuSans-61" d="M 2194 1759 
Q 1497 1759 1228 1600 
Q 959 1441 959 1056 
Q 959 750 1161 570 
Q 1363 391 1709 391 
Q 2188 391 2477 730 
Q 2766 1069 2766 1631 
L 2766 1759 
L 2194 1759 
z
M 3341 1997 
L 3341 0 
L 2766 0 
L 2766 531 
Q 2569 213 2275 61 
Q 1981 -91 1556 -91 
Q 1019 -91 701 211 
Q 384 513 384 1019 
Q 384 1609 779 1909 
Q 1175 2209 1959 2209 
L 2766 2209 
L 2766 2266 
Q 2766 2663 2505 2880 
Q 2244 3097 1772 3097 
Q 1472 3097 1187 3025 
Q 903 2953 641 2809 
L 641 3341 
Q 956 3463 1253 3523 
Q 1550 3584 1831 3584 
Q 2591 3584 2966 3190 
Q 3341 2797 3341 1997 
z
" transform="scale(0.015625)"/>
       <path id="DejaVuSans-6e" d="M 3513 2113 
L 3513 0 
L 2938 0 
L 2938 2094 
Q 2938 2591 2744 2837 
Q 2550 3084 2163 3084 
Q 1697 3084 1428 2787 
Q 1159 2491 1159 1978 
L 1159 0 
L 581 0 
L 581 3500 
L 1159 3500 
L 1159 2956 
Q 1366 3272 1645 3428 
Q 1925 3584 2291 3584 
Q 2894 3584 3203 3211 
Q 3513 2838 3513 2113 
z
" transform="scale(0.015625)"/>
       <path id="DejaVuSans-20" transform="scale(0.015625)"/>
       <path id="DejaVuSans-70" d="M 1159 525 
L 1159 -1331 
L 581 -1331 
L 581 3500 
L 1159 3500 
L 1159 2969 
Q 1341 3281 1617 3432 
Q 1894 3584 2278 3584 
Q 2916 3584 3314 3078 
Q 3713 2572 3713 1747 
Q 3713 922 3314 415 
Q 2916 -91 2278 -91 
Q 1894 -91 1617 61 
Q 1341 213 1159 525 
z
M 3116 1747 
Q 3116 2381 2855 2742 
Q 2594 3103 2138 3103 
Q 1681 3103 1420 2742 
Q 1159 2381 1159 1747 
Q 1159 1113 1420 752 
Q 1681 391 2138 391 
Q 2594 391 2855 752 
Q 3116 1113 3116 1747 
z
" transform="scale(0.015625)"/>
       <path id="DejaVuSans-6f" d="M 1959 3097 
Q 1497 3097 1228 2736 
Q 959 2375 959 1747 
Q 959 1119 1226 758 
Q 1494 397 1959 397 
Q 2419 397 2687 759 
Q 2956 1122 2956 1747 
Q 2956 2369 2687 2733 
Q 2419 3097 1959 3097 
z
M 1959 3584 
Q 2709 3584 3137 3096 
Q 3566 2609 3566 1747 
Q 3566 888 3137 398 
Q 2709 -91 1959 -91 
Q 1206 -91 779 398 
Q 353 888 353 1747 
Q 353 2609 779 3096 
Q 1206 3584 1959 3584 
z
" transform="scale(0.015625)"/>
       <path id="DejaVuSans-74" d="M 1172 4494 
L 1172 3500 
L 2356 3500 
L 2356 3053 
L 1172 3053 
L 1172 1153 
Q 1172 725 1289 603 
Q 1406 481 1766 481 
L 2356 481 
L 2356 0 
L 1766 0 
Q 1100 0 847 248 
Q 594 497 594 1153 
L 594 3053 
L 172 3053 
L 172 3500 
L 594 3500 
L 594 4494 
L 1172 4494 
z
" transform="scale(0.015625)"/>
       <path id="DejaVuSans-6c" d="M 603 4863 
L 1178 4863 
L 1178 0 
L 603 0 
L 603 4863 
z
" transform="scale(0.015625)"/>
       <path id="DejaVuSans-56" d="M 1831 0 
L 50 4666 
L 709 4666 
L 2188 738 
L 3669 4666 
L 4325 4666 
L 2547 0 
L 1831 0 
z
" transform="scale(0.015625)"/>
      </defs>
      <use xlink:href="#DejaVuSans-4d"/>
      <use xlink:href="#DejaVuSans-65" x="86.279297"/>
      <use xlink:href="#DejaVuSans-6d" x="147.802734"/>
      <use xlink:href="#DejaVuSans-62" x="245.214844"/>
      <use xlink:href="#DejaVuSans-72" x="308.691406"/>
      <use xlink:href="#DejaVuSans-61" x="349.804688"/>
      <use xlink:href="#DejaVuSans-6e" x="411.083984"/>
      <use xlink:href="#DejaVuSans-65" x="474.462891"/>
      <use xlink:href="#DejaVuSans-20" x="535.986328"/>
      <use xlink:href="#DejaVuSans-70" x="567.773438"/>
      <use xlink:href="#DejaVuSans-6f" x="631.25"/>
      <use xlink:href="#DejaVuSans-74" x="692.431641"/>
      <use xlink:href="#DejaVuSans-65" x="731.640625"/>
      <use xlink:href="#DejaVuSans-6e" x="793.164062"/>
      <use xlink:href="#DejaVuSans-74" x="856.542969"/>
      <use xlink:href="#DejaVuSans-69" x="895.751953"/>
      <use xlink:href="#DejaVuSans-61" x="923.535156"/>
      <use xlink:href="#DejaVuSans-6c" x="984.814453"/>
      <use xlink:href="#DejaVuSans-20" x="1012.597656"/>
      <use xlink:href="#DejaVuSans-28" x="1044.384766"/>
      <use xlink:href="#DejaVuSans-6d" x="1083.398438"/>
      <use xlink:href="#DejaVuSans-56" x="1180.810547"/>
      <use xlink:href="#DejaVuSans-29" x="1249.21875"/>
     </g>
    </g>
   </g>
   <g id="line2d_14">
    <path d="M 69.218182 191.1168 
L 69.370364 200.749843 
L 69.727991 210.291857 
L 70.133809 215.803735 
L 70.453391 217.856122 
L 70.461 217.853736 
L 70.4889 217.729271 
L 70.679127 214.389245 
L 70.925155 212.442455 
L 71.006318 211.332304 
L 71.407064 204.632246 
L 71.498373 204.463419 
L 71.546564 204.517961 
L 71.675918 205.032221 
L 71.9676 207.327596 
L 72.977073 215.652922 
L 73.004973 215.696972 
L 73.053164 215.524714 
L 73.256073 213.459426 
L 73.677109 210.501928 
L 73.847045 210.15055 
L 73.8648 210.158112 
L 73.968791 210.183095 
L 74.001764 210.115711 
L 74.293445 209.564733 
L 74.331491 209.592995 
L 74.374609 209.641655 
L 74.402509 209.516747 
L 74.600345 207.132756 
L 74.879345 204.142624 
L 74.930073 204.109948 
L 74.978264 204.185928 
L 75.1203 204.857502 
L 75.574309 207.099586 
L 75.673227 207.296466 
L 75.729027 207.156637 
L 76.210936 204.921535 
L 76.725818 198.234728 
L 76.779082 198.301866 
L 76.910973 198.920134 
L 77.060618 199.448557 
L 77.098664 199.355657 
L 77.357373 198.225738 
L 77.430927 198.359622 
L 77.524773 198.764787 
L 77.578036 198.465497 
L 77.758118 196.091896 
L 78.014291 194.121139 
L 78.059945 194.143075 
L 78.085309 194.199083 
L 78.214664 194.896485 
L 78.562145 196.718008 
L 78.937527 198.603896 
L 79.330664 202.587388 
L 80.238682 211.664231 
L 80.715518 214.503949 
L 80.7282 214.481827 
L 80.8119 213.784571 
L 81.085827 212.070894 
L 81.182209 212.039762 
L 81.215182 212.072606 
L 81.385118 212.47133 
L 81.856882 214.070793 
L 81.958336 213.923685 
L 82.173927 213.202404 
L 82.777582 209.831196 
L 82.939909 209.6604 
L 82.957664 209.669897 
L 83.097164 209.901915 
L 83.147891 209.985338 
L 83.198618 209.860899 
L 83.5461 208.625872 
L 83.594291 208.66368 
L 83.738864 209.033909 
L 84.058445 210.619889 
L 84.268964 211.764523 
L 84.324764 211.508134 
L 84.649418 209.922209 
L 84.651955 209.922561 
L 84.750873 210.051832 
L 84.958855 210.812125 
L 85.032409 211.112509 
L 85.0806 210.875659 
L 85.846582 205.015496 
L 85.937891 205.093253 
L 86.095145 205.686172 
L 86.462918 208.176255 
L 86.645536 208.742474 
L 86.653145 208.739945 
L 86.711482 208.576715 
L 87.147736 206.416282 
L 87.233973 206.516996 
L 87.411518 207.144014 
L 87.830018 209.661623 
L 87.868064 209.817977 
L 87.9264 209.576482 
L 88.215545 208.306646 
L 88.225691 208.309985 
L 88.327145 208.484713 
L 88.550345 209.453916 
L 89.072836 212.381813 
L 89.146391 212.076388 
L 89.453291 210.782444 
L 89.554745 210.63253 
L 89.9073 209.954179 
L 89.917445 209.958765 
L 90.056945 210.159467 
L 90.315655 211.022196 
L 91.340345 215.214625 
L 91.406291 215.051602 
L 91.520427 214.061304 
L 92.157055 204.194686 
L 92.377718 203.306178 
L 92.649109 202.558422 
L 92.682082 202.582925 
L 92.801291 202.902534 
L 92.852018 203.073375 
L 92.907818 202.884278 
L 93.113264 202.239604 
L 93.1437 202.261382 
L 93.1995 202.331175 
L 93.2274 202.190967 
L 93.615464 198.981383 
L 93.694091 199.109663 
L 93.744818 199.279606 
L 93.782864 199.041806 
L 94.264773 194.894435 
L 94.282527 194.902293 
L 94.366227 195.118847 
L 94.546309 196.367876 
L 94.812627 198.91098 
L 94.911545 198.699511 
L 94.969882 198.657274 
L 95.018073 198.731942 
L 95.149964 199.391801 
L 95.469545 200.872287 
L 95.507591 200.954916 
L 95.553245 200.78526 
L 96.042764 198.395115 
L 96.116318 198.311011 
L 96.167045 198.379092 
L 96.298936 198.962763 
L 96.590618 201.511482 
L 97.450445 209.234508 
L 97.704082 209.196176 
L 97.762418 208.80124 
L 98.089609 206.56981 
L 98.180918 206.655215 
L 98.350855 207.272008 
L 98.475136 207.578213 
L 98.518255 207.544871 
L 98.853055 206.963835 
L 99.248727 205.109398 
L 99.350182 205.232464 
L 99.540409 205.938393 
L 99.989345 208.699225 
L 100.192255 209.94903 
L 100.253127 209.718606 
L 100.557491 208.572786 
L 100.664018 208.683625 
L 100.861855 209.327896 
L 101.216945 210.720384 
L 101.287964 210.652418 
L 101.572036 210.440118 
L 101.734364 210.686593 
L 102.038727 211.656622 
L 102.165545 212.060101 
L 102.221345 211.930901 
L 103.035518 209.129438 
L 103.152191 209.24108 
L 103.357636 209.853957 
L 103.9131 212.470428 
L 104.585236 215.133095 
L 105.133091 216.455123 
L 105.688555 217.244343 
L 105.937118 217.468275 
L 105.965018 217.38316 
L 106.109591 216.103531 
L 106.411418 214.210591 
L 106.601645 214.030139 
L 106.659982 213.900982 
L 107.152036 212.199478 
L 107.179936 212.211219 
L 107.334655 212.432906 
L 107.649164 213.373744 
L 108.202091 215.246846 
L 108.257891 215.109001 
L 108.762627 212.406738 
L 108.904664 210.239049 
L 109.181127 207.435053 
L 109.285118 207.288953 
L 109.328236 207.328367 
L 109.4652 207.731874 
L 109.589482 208.318151 
L 109.624991 207.975788 
L 110.020664 203.097958 
L 110.094218 203.195103 
L 110.248936 203.938867 
L 110.647145 207.273742 
L 110.829764 208.086076 
L 110.847518 208.081801 
L 111.037745 208.129758 
L 111.101155 208.164272 
L 111.144273 208.092709 
L 111.443564 207.402878 
L 111.506973 207.472368 
L 111.671836 207.991578 
L 112.052291 210.129604 
L 112.889291 214.650528 
L 113.302718 216.026849 
L 113.325545 215.970341 
L 113.414318 214.967585 
L 113.541136 211.196297 
L 114.099136 196.584078 
L 114.362918 195.556414 
L 114.568364 195.331076 
L 114.624164 195.211929 
L 115.121291 192.768367 
L 115.227818 193.064299 
L 115.420582 194.632095 
L 115.915173 201.049815 
L 116.227145 204.835898 
L 116.290555 204.660003 
L 116.417373 204.391935 
L 116.460491 204.435817 
L 116.506145 204.530134 
L 116.541655 204.368906 
L 116.797827 203.011678 
L 116.835873 203.046075 
L 116.955082 203.457318 
L 117.142773 204.628895 
L 117.216327 204.212999 
L 117.409091 203.383536 
L 117.431918 203.395991 
L 117.5283 203.65425 
L 117.7515 205.061254 
L 118.187755 207.619521 
L 118.190291 207.619085 
L 118.248627 207.483911 
L 118.631618 206.097622 
L 118.689955 206.148158 
L 118.842136 206.573821 
L 118.885255 206.657949 
L 118.946127 206.53439 
L 119.501591 205.12856 
L 119.506664 205.130415 
L 119.6208 205.301534 
L 119.828782 206.127871 
L 120.079882 206.877648 
L 120.090027 206.872462 
L 120.173727 206.654261 
L 120.498382 205.76178 
L 120.5136 205.767688 
L 120.630273 205.958461 
L 120.853473 206.866245 
L 121.500245 210.813269 
L 122.154627 214.053736 
L 122.697409 215.698627 
L 123.235118 216.660824 
L 123.602891 217.04274 
L 123.628255 217.009978 
L 123.752536 216.545065 
L 124.191327 214.933897 
L 124.399309 214.835674 
L 124.612364 215.019725 
L 125.046082 215.773158 
L 125.933809 217.248566 
L 125.964245 217.256981 
L 126.002291 217.170181 
L 126.212809 215.990278 
L 126.507027 215.003766 
L 126.699791 214.928321 
L 126.857045 215.043026 
L 126.887482 214.902562 
L 127.298373 211.219154 
L 127.7676 205.144177 
L 127.838618 205.066181 
L 127.889345 205.129735 
L 128.064355 205.683716 
L 128.170882 205.477818 
L 128.252045 205.038992 
L 128.566555 202.568263 
L 128.759318 202.616524 
L 128.901355 202.964046 
L 129.1068 204.025099 
L 129.1626 203.538607 
L 129.454282 201.122755 
L 129.540518 201.22401 
L 129.862636 202.031857 
L 130.128955 203.680833 
L 131.663455 214.665252 
L 132.1758 216.284467 
L 132.690682 217.222074 
L 132.774382 217.282871 
L 132.8175 217.213632 
L 132.987436 216.487366 
L 133.342527 215.290352 
L 133.550509 215.184888 
L 133.646891 215.172815 
L 133.659573 215.11651 
L 133.768636 213.894321 
L 134.384973 205.693794 
L 134.504182 205.518442 
L 134.542227 205.547742 
L 134.671582 205.888364 
L 134.940436 207.368099 
L 135.729245 212.772601 
L 135.790118 212.314578 
L 136.066582 210.491499 
L 136.140136 210.499994 
L 136.170573 210.543487 
L 136.317682 210.825108 
L 136.3887 210.711022 
L 136.672773 210.300524 
L 136.682918 210.305643 
L 136.819882 210.514827 
L 136.972064 210.966845 
L 137.012645 210.71216 
L 137.339836 208.541666 
L 137.428609 208.662732 
L 137.618836 209.432986 
L 139.100073 216.583608 
L 139.521109 217.401914 
L 139.528718 217.398079 
L 139.622564 217.205379 
L 140.205927 215.68727 
L 140.393618 215.773221 
L 140.703055 216.228207 
L 141.849491 218.112808 
L 141.862173 218.095668 
L 141.938264 217.65148 
L 142.549527 211.589054 
L 143.031436 202.314706 
L 143.092309 202.25826 
L 143.143036 202.331892 
L 143.285073 202.966277 
L 143.617336 205.723266 
L 144.543109 213.439618 
L 145.0656 215.93575 
L 145.154373 216.162087 
L 145.202564 216.021395 
L 145.357282 214.535744 
L 145.826509 208.100349 
L 146.118191 204.893158 
L 146.414945 203.606432 
L 146.521473 203.520054 
L 146.780182 202.597765 
L 146.838518 202.669627 
L 146.978018 203.250567 
L 147.264627 205.27424 
L 147.376227 204.936829 
L 147.490364 204.749238 
L 147.533482 204.795792 
L 147.6603 205.255839 
L 147.959591 207.404898 
L 148.847318 213.833798 
L 149.161827 215.22558 
L 149.199873 215.107897 
L 149.542282 212.549677 
L 149.953173 208.433166 
L 150.358991 204.842538 
L 150.417327 204.538001 
L 150.706473 202.54494 
L 150.714082 202.547098 
L 150.795245 202.706095 
L 150.975327 203.703755 
L 151.487673 208.242871 
L 152.157273 213.290138 
L 152.679764 215.660745 
L 153.179427 216.974658 
L 153.362045 217.287624 
L 153.392482 217.170504 
L 153.5751 215.059907 
L 153.816055 213.756987 
L 153.947945 213.69324 
L 153.970773 213.709686 
L 154.148318 214.012886 
L 154.650518 215.295719 
L 154.749436 215.158848 
L 155.1096 214.688311 
L 155.289682 214.802816 
L 155.591509 215.282331 
L 155.657455 215.073985 
L 156.108927 213.347246 
L 156.243355 213.4617 
L 156.491918 214.06239 
L 157.110791 215.943115 
L 157.181809 215.798015 
L 157.6485 214.558219 
L 157.808291 214.718892 
L 157.869164 214.820988 
L 157.891991 214.663812 
L 158.064464 211.439941 
L 158.510864 205.472752 
L 158.599636 205.347019 
L 158.647827 205.401269 
L 158.784791 205.90078 
L 159.104373 208.122235 
L 159.193145 208.68562 
L 159.259091 208.489685 
L 159.469609 207.901798 
L 159.497509 207.919223 
L 159.611645 208.19874 
L 159.865282 209.571724 
L 160.917873 215.714069 
L 161.430218 217.281485 
L 161.904518 218.103261 
L 161.907055 218.101514 
L 161.955245 217.903709 
L 162.082064 215.846011 
L 162.396573 211.913635 
L 162.576655 211.523804 
L 162.584264 211.526056 
L 162.700936 211.691495 
L 162.944427 212.537118 
L 163.520182 214.974491 
L 163.588664 214.812294 
L 163.999555 213.58697 
L 164.007164 213.589267 
L 164.154273 213.759735 
L 164.255727 213.789629 
L 164.2887 213.75878 
L 164.390155 213.487185 
L 164.872064 210.443458 
L 164.932936 210.49118 
L 165.090191 210.90424 
L 165.463036 212.683397 
L 166.178291 215.870376 
L 166.261991 215.841037 
L 166.282282 215.811535 
L 166.741364 214.882078 
L 167.322191 208.928205 
L 167.421109 209.041285 
L 167.537782 209.381784 
L 167.578364 209.12137 
L 168.126218 204.606251 
L 168.326591 204.060233 
L 168.346882 204.070892 
L 168.448336 204.301538 
L 168.656318 205.469682 
L 169.320845 210.450262 
L 169.437518 210.284285 
L 169.5897 210.172852 
L 169.615064 210.193126 
L 169.7571 210.498371 
L 169.881382 210.807291 
L 169.942255 210.71792 
L 170.233936 210.225608 
L 170.261836 210.244029 
L 170.406409 210.525675 
L 170.556055 210.905463 
L 170.619464 210.80531 
L 170.906073 210.283092 
L 170.933973 210.301328 
L 171.076009 210.580384 
L 171.372764 211.788228 
L 171.550309 212.531535 
L 171.603573 212.353129 
L 171.814091 210.357434 
L 172.138745 205.671659 
L 172.590218 200.562617 
L 172.6866 200.441517 
L 172.732255 200.485904 
L 172.869218 200.921027 
L 172.9656 201.350989 
L 173.0214 201.111531 
L 173.171045 199.418038 
L 173.503309 195.156371 
L 173.541355 195.153763 
L 173.581936 195.234508 
L 173.7189 196.000577 
L 173.9979 197.290224 
L 174.162764 197.391253 
L 174.1932 197.255116 
L 174.456982 195.946866 
L 174.510245 196.015502 
L 174.6396 196.613193 
L 174.997227 199.382514 
L 175.098682 198.933371 
L 175.288909 196.595623 
L 175.605955 193.85476 
L 175.7556 193.258181 
L 176.161418 188.684932 
L 176.212145 188.752326 
L 176.336427 189.388558 
L 176.496218 190.469104 
L 176.562164 190.232399 
L 176.833555 188.989672 
L 176.8716 189.027852 
L 176.9832 189.461232 
L 177.525982 191.99309 
L 177.609682 191.888336 
L 177.754255 191.317047 
L 177.881073 188.899247 
L 178.253918 181.080072 
L 178.335082 180.874151 
L 178.385809 180.958544 
L 178.510091 181.706905 
L 178.624227 182.292756 
L 178.680027 182.220855 
L 178.849964 182.094706 
L 178.865182 182.104218 
L 178.997073 182.340472 
L 179.2989 183.225589 
L 180.105464 187.741082 
L 180.143509 187.573028 
L 180.242427 185.844373 
L 180.937391 169.906675 
L 181.388864 166.070618 
L 181.437055 166.031035 
L 181.487782 166.116036 
L 181.622209 166.838225 
L 182.137091 170.386983 
L 182.192891 170.327492 
L 182.258836 170.046517 
L 182.509936 168.675884 
L 182.545445 168.710782 
L 182.651973 169.137648 
L 182.867564 171.138018 
L 183.301282 175.008189 
L 183.392591 175.078647 
L 183.417955 175.001121 
L 183.499118 173.25642 
L 183.783191 168.65377 
L 183.856745 168.514447 
L 183.907473 168.595394 
L 184.039364 169.316283 
L 184.315827 172.325 
L 184.592291 175.433142 
L 184.650627 175.294199 
L 184.777445 174.378729 
L 185.320227 165.947447 
L 185.3253 165.948674 
L 185.386173 166.103548 
L 185.535818 166.639196 
L 185.591618 166.532976 
L 185.804673 166.258473 
L 185.934027 166.087931 
L 185.979682 166.157577 
L 186.167373 166.855453 
L 186.246 166.534682 
L 186.393109 164.780788 
L 186.593482 163.407652 
L 186.6087 163.416097 
L 186.682255 163.659206 
L 187.121045 166.681416 
L 187.346782 168.034791 
L 187.476136 168.4713 
L 187.544618 168.361504 
L 187.663827 168.206483 
L 187.706945 168.262488 
L 187.803327 168.583981 
L 187.8642 168.347256 
L 187.978336 168.030587 
L 188.023991 168.103386 
L 188.1432 168.799805 
L 188.571845 171.293306 
L 188.696127 171.729642 
L 189.256664 175.564481 
L 189.626973 179.11064 
L 189.840027 179.230146 
L 190.058155 179.570054 
L 190.157073 179.687828 
L 190.294036 180.359512 
L 190.545136 182.970749 
L 191.141182 190.855231 
L 191.229955 190.395791 
L 192.051736 182.99909 
L 192.1608 183.28265 
L 192.934391 187.217448 
L 193.000336 186.889944 
L 193.144909 184.011848 
L 193.439127 179.75741 
L 193.515218 179.605299 
L 193.568482 179.688064 
L 193.6953 180.390922 
L 193.961618 183.389421 
L 194.1138 184.970273 
L 194.167064 184.700512 
L 194.6439 180.539247 
L 194.735209 180.717746 
L 194.793545 180.887716 
L 194.854418 180.743432 
L 194.996455 180.426827 
L 195.039573 180.481227 
L 195.156245 181.019195 
L 195.381982 182.028361 
L 195.404809 181.981053 
L 195.605182 181.254279 
L 195.6762 181.395696 
L 195.823309 182.359809 
L 196.135282 186.220552 
L 196.997645 197.170112 
L 197.078809 197.234396 
L 197.121927 197.131403 
L 197.357809 196.53767 
L 197.403464 196.583325 
L 197.662173 197.164913 
L 197.773773 196.997095 
L 197.976682 196.430566 
L 198.4941 192.543727 
L 198.506782 192.548082 
L 198.595555 192.732341 
L 198.783245 193.782696 
L 198.963327 195.021179 
L 199.041955 194.868843 
L 199.148482 194.732985 
L 199.194136 194.786187 
L 199.204282 194.77829 
L 199.224573 194.686668 
L 199.605027 191.519933 
L 199.939827 187.834736 
L 200.026064 187.69268 
L 200.074255 187.7544 
L 200.201073 188.321337 
L 200.406518 189.378842 
L 200.459782 189.284888 
L 200.655082 188.890142 
L 200.6982 188.936716 
L 200.819945 189.384796 
L 201.055827 191.305273 
L 201.157282 192.224626 
L 201.210545 191.796329 
L 201.839564 184.633765 
L 201.984136 182.845904 
L 202.194655 181.05787 
L 202.199727 181.059223 
L 202.265673 181.219166 
L 202.499018 182.630734 
L 203.186373 187.254835 
L 203.204127 187.241948 
L 203.3208 186.884874 
L 203.440009 186.689592 
L 203.483127 186.737374 
L 203.602336 187.209888 
L 204.218673 191.538581 
L 204.469773 192.643408 
L 204.644782 193.23358 
L 204.708191 193.095673 
L 204.878127 192.091479 
L 205.321991 188.655666 
L 205.504609 188.282359 
L 205.532509 188.300263 
L 205.550264 188.306736 
L 205.575627 188.190113 
L 205.707518 186.306592 
L 206.039782 181.766047 
L 206.080364 181.739308 
L 206.128555 181.829842 
L 206.262982 182.627639 
L 206.339073 182.811058 
L 206.399945 182.791773 
L 206.481109 182.903128 
L 206.613 183.641082 
L 206.9478 186.617447 
L 207.041645 186.232798 
L 207.150709 185.96194 
L 207.196364 186.022192 
L 207.313036 186.605557 
L 207.751827 189.789273 
L 207.822845 189.536413 
L 208.020682 188.606292 
L 208.061264 188.655603 
L 208.177936 189.194517 
L 208.418891 190.530344 
L 208.467082 190.318177 
L 209.088491 185.618176 
L 209.159509 185.711041 
L 209.293936 186.143496 
L 209.372564 185.947863 
L 209.575473 184.982528 
L 209.704827 182.299498 
L 210.0168 177.63212 
L 210.655964 170.867175 
L 210.833509 168.593442 
L 211.026273 167.415634 
L 211.038955 167.420602 
L 211.077 167.416906 
L 211.102364 167.340078 
L 211.226645 166.262615 
L 211.505645 164.49224 
L 211.569055 163.99552 
L 212.000236 159.993535 
L 212.033209 159.978561 
L 212.0814 160.062109 
L 212.261482 160.838607 
L 212.421273 161.805063 
L 212.484682 161.530396 
L 212.690127 160.544963 
L 212.730709 160.598148 
L 212.839773 161.166482 
L 213.045218 162.542152 
L 213.095945 162.242251 
L 213.276027 161.169846 
L 213.316609 161.230179 
L 213.425673 161.895422 
L 213.659018 165.011316 
L 214.047082 169.685539 
L 214.049618 169.684476 
L 214.092736 169.517895 
L 214.277891 167.420095 
L 214.490945 166.36885 
L 214.567036 165.9454 
L 214.833355 163.476053 
L 214.8714 163.524946 
L 214.975391 164.093913 
L 215.477591 167.290372 
L 215.695718 169.233712 
L 216.299373 177.746466 
L 216.550473 180.801057 
L 216.606273 180.567246 
L 216.7965 179.719654 
L 216.837082 179.771177 
L 216.948682 180.323253 
L 217.189636 182.909406 
L 217.980982 191.957822 
L 218.008882 192.030185 
L 218.067218 191.824847 
L 218.305636 189.754823 
L 218.599855 186.996593 
L 218.729209 186.991851 
L 218.904218 186.859611 
L 218.947336 186.938197 
L 219.086836 187.601334 
L 219.345545 189.044561 
L 219.401345 188.98744 
L 219.540845 188.877249 
L 219.576355 188.918706 
L 219.700636 189.346065 
L 219.898473 190.038127 
L 219.936518 189.99688 
L 220.078555 189.827282 
L 220.126745 189.883094 
L 220.3677 190.49049 
L 220.565536 190.98247 
L 220.608655 190.968414 
L 220.738009 191.04792 
L 221.017009 191.719376 
L 221.252891 193.041009 
L 221.681536 197.019073 
L 222.729055 206.749738 
L 222.827973 207.117692 
L 222.881236 207.042281 
L 223.170382 206.510866 
L 223.205891 206.535764 
L 223.360609 206.845786 
L 223.700482 208.159021 
L 223.878027 208.778412 
L 223.933827 208.705432 
L 224.3295 208.033576 
L 224.354864 208.049148 
L 224.522264 208.315213 
L 224.621182 208.518436 
L 224.669373 208.376557 
L 225.052364 206.668444 
L 225.105627 206.707741 
L 225.275564 207.063146 
L 225.341509 206.839977 
L 225.663627 205.669359 
L 225.673773 205.672366 
L 225.782836 205.838278 
L 226.006036 206.703752 
L 226.061836 206.909833 
L 226.1151 206.688859 
L 226.434682 205.24133 
L 226.772018 204.960546 
L 226.794845 204.983297 
L 226.820209 204.998802 
L 226.855718 204.885623 
L 226.949564 203.849964 
L 227.439082 193.561214 
L 227.466982 193.584259 
L 227.5659 193.952943 
L 227.7891 195.85265 
L 228.950755 207.009761 
L 229.087718 207.136479 
L 229.283018 207.733801 
L 229.785218 210.172332 
L 229.876527 209.716335 
L 230.256982 207.755496 
L 230.515691 206.856277 
L 230.617145 206.942692 
L 230.794691 207.51085 
L 231.246164 209.933394 
L 231.428782 210.785785 
L 231.487118 210.667748 
L 231.854891 209.662599 
L 231.887864 209.680789 
L 232.034973 209.9448 
L 232.352018 211.094648 
L 232.527027 211.572001 
L 232.570145 211.532723 
L 232.653845 211.163337 
L 233.024155 207.626593 
L 233.478164 200.726697 
L 233.528891 200.713398 
L 233.572009 200.780651 
L 233.716582 201.403001 
L 234.053918 204.094492 
L 234.627136 208.296739 
L 234.690545 208.303692 
L 234.726055 208.243587 
L 235.124264 207.351297 
L 235.197818 207.423891 
L 235.380436 207.906288 
L 235.765964 209.710837 
L 235.857273 209.952544 
L 235.910536 209.879158 
L 236.204755 209.342242 
L 236.245336 209.372385 
L 236.402591 209.702203 
L 236.752609 211.090933 
L 237.249736 213.207315 
L 237.297927 213.047045 
L 237.691064 211.470116 
L 237.820418 211.559608 
L 238.046155 212.089136 
L 238.604155 213.909435 
L 238.680245 213.649305 
L 238.8933 211.823325 
L 239.405645 205.672929 
L 239.593336 205.26802 
L 239.844436 203.696071 
L 240.057491 203.0367 
L 240.060027 203.037219 
L 240.153873 203.177056 
L 240.333955 203.97205 
L 240.473455 204.76663 
L 240.534327 204.499095 
L 240.904636 202.237523 
L 240.935073 202.256211 
L 241.072036 202.552645 
L 241.145591 202.338497 
L 241.343427 201.841994 
L 241.373864 201.865368 
L 241.485464 202.183654 
L 241.718809 203.688342 
L 243.096055 213.828883 
L 243.610936 215.605376 
L 243.755509 215.948401 
L 243.783409 215.754963 
L 244.412427 210.048534 
L 244.653382 209.647811 
L 245.013545 208.218652 
L 245.130218 208.283344 
L 245.348345 208.731046 
L 245.442191 208.570857 
L 245.670464 208.312723 
L 245.678073 208.316786 
L 245.8125 208.527972 
L 246.058527 209.438297 
L 246.243682 210.301121 
L 246.304555 210.070166 
L 246.408545 208.7463 
L 247.230327 195.715388 
L 247.245545 195.722933 
L 247.324173 195.963531 
L 247.509327 197.452872 
L 248.110445 204.867418 
L 248.508655 208.341887 
L 248.896718 209.270635 
L 249.163036 210.273795 
L 249.231518 210.169877 
L 249.507982 209.718797 
L 249.530809 209.732921 
L 249.670309 209.877061 
L 249.721036 209.747818 
L 250.172509 207.646733 
L 250.819282 199.241849 
L 251.126182 197.436793 
L 251.367136 196.012914 
L 251.4204 196.090619 
L 251.552291 196.786342 
L 251.859191 199.905102 
L 252.328418 204.140127 
L 252.513573 204.453819 
L 252.5643 204.419852 
L 252.749455 204.407882 
L 252.896564 204.764665 
L 253.353109 205.995345 
L 253.490073 206.12517 
L 253.682836 206.718264 
L 254.215473 208.469086 
L 254.438673 208.798941 
L 254.486864 208.596335 
L 254.699918 206.270095 
L 255.022036 204.162614 
L 255.222409 203.718308 
L 255.232555 203.721432 
L 255.339082 203.887482 
L 255.4659 204.07742 
L 255.514091 204.040115 
L 255.724609 203.941699 
L 255.739827 203.957808 
L 255.8844 204.303361 
L 256.036582 204.734596 
L 256.102527 204.670484 
L 256.406891 204.091435 
L 257.035909 201.184965 
L 257.132291 201.346924 
L 257.317445 202.265374 
L 257.779064 206.014733 
L 258.141764 208.201528 
L 258.260973 208.316686 
L 258.301555 208.229437 
L 258.699764 206.789107 
L 258.798682 206.914398 
L 258.999055 207.621501 
L 259.189282 208.444366 
L 259.2603 208.315688 
L 259.506327 207.893226 
L 259.526618 207.904111 
L 259.655973 208.135662 
L 259.711773 208.286648 
L 259.749818 208.090886 
L 259.955264 205.504612 
L 260.274845 202.179563 
L 260.386445 202.001909 
L 260.427027 202.037952 
L 260.556382 202.43107 
L 260.830309 204.151454 
L 261.251345 207.011616 
L 261.312218 206.960589 
L 261.545564 206.817584 
L 261.555709 206.826221 
L 261.705355 207.115323 
L 261.920945 207.394464 
L 262.032545 207.286526 
L 262.276036 205.963468 
L 262.453582 205.625208 
L 262.471336 205.632974 
L 262.588009 205.841471 
L 262.778236 206.487182 
L 262.854327 206.272926 
L 263.356527 203.526382 
L 263.620309 201.159466 
L 263.764882 201.160768 
L 263.927209 201.230804 
L 264.079391 201.685187 
L 264.350782 203.358417 
L 265.025455 207.626103 
L 265.251191 208.112288 
L 265.294309 207.881217 
L 265.611355 205.992294 
L 265.616427 205.99312 
L 265.710273 206.132607 
L 265.908109 206.95941 
L 266.065364 207.331942 
L 266.088191 207.325259 
L 266.298709 207.360578 
L 266.471182 207.771835 
L 266.800909 209.280448 
L 266.996209 209.697261 
L 267.300573 209.841478 
L 267.533918 210.403691 
L 267.6303 210.696951 
L 267.673418 210.481175 
L 267.805309 208.196779 
L 268.142645 202.175013 
L 268.388673 201.061193 
L 268.561145 200.657782 
L 268.720936 200.437589 
L 268.751373 200.459543 
L 268.873118 200.760829 
L 269.068418 201.584943 
L 269.159727 201.416441 
L 269.291618 201.25328 
L 269.329664 201.289342 
L 269.453945 201.678033 
L 269.710118 203.398702 
L 271.0062 213.107893 
L 271.140627 213.632718 
L 271.183745 213.425208 
L 271.767109 207.510224 
L 272.013136 205.371807 
L 272.084155 205.317604 
L 272.132345 205.376298 
L 272.281991 205.906178 
L 272.672591 207.262895 
L 272.865355 207.660953 
L 273.162109 208.940012 
L 274.412536 214.832464 
L 274.453118 214.926787 
L 274.4937 214.746997 
L 275.094818 209.246818 
L 275.3865 205.871191 
L 275.472736 205.754712 
L 275.520927 205.805272 
L 275.660427 206.280146 
L 275.997764 208.425991 
L 276.862664 213.844488 
L 277.3953 215.792303 
L 277.438418 215.898118 
L 277.476464 215.709788 
L 277.933009 212.77468 
L 278.077582 212.603631 
L 278.668555 207.944055 
L 279.084518 207.46761 
L 279.132709 207.523555 
L 279.302645 207.995394 
L 279.4599 208.53122 
L 279.523309 208.413458 
L 279.774409 207.902311 
L 279.804845 207.92342 
L 279.9342 208.213282 
L 280.053409 208.640619 
L 280.1016 208.391982 
L 280.3806 204.996079 
L 280.606336 203.626887 
L 280.672282 203.671007 
L 280.6875 203.702724 
L 280.7991 204.01588 
L 280.867582 203.846063 
L 281.012155 203.583943 
L 281.0502 203.615585 
L 281.268327 203.69624 
L 281.400218 203.891781 
L 281.598055 204.704562 
L 282.006409 207.575049 
L 282.237218 209.226463 
L 282.293018 208.958315 
L 282.630355 207.171093 
L 282.741955 206.58198 
L 283.000664 205.606126 
L 283.066609 205.50947 
L 283.376045 203.946578 
L 283.444527 204.03989 
L 283.599245 204.712792 
L 283.9797 206.309219 
L 284.025355 206.38196 
L 284.055791 206.222507 
L 284.839527 200.578827 
L 284.905473 200.512878 
L 284.9562 200.582773 
L 285.133745 201.290223 
L 285.169255 201.363953 
L 285.217445 201.195202 
L 285.445718 198.964761 
L 285.661309 196.454869 
L 285.838855 195.560357 
L 285.854073 195.568132 
L 285.937773 195.793517 
L 286.125464 197.118095 
L 286.335982 198.046061 
L 286.432364 198.18364 
L 286.587082 198.944518 
L 286.914273 201.949944 
L 287.898382 211.209588 
L 288.060709 211.917287 
L 288.106364 211.871844 
L 288.413264 211.138223 
L 288.770891 210.217698 
L 288.900245 210.308843 
L 289.110764 210.828285 
L 289.288309 211.403246 
L 289.333964 211.191495 
L 289.541945 208.450732 
L 289.805727 206.573045 
L 289.902109 206.494911 
L 289.942691 206.533032 
L 290.087264 206.925833 
L 290.404309 208.588112 
L 290.7594 210.221681 
L 290.782227 210.214772 
L 291.043473 210.223153 
L 291.238773 210.627751 
L 291.266673 210.650445 
L 291.314864 210.535535 
L 291.467045 209.468608 
L 292.103673 201.269082 
L 292.266 201.154364 
L 292.415645 200.539793 
L 292.8519 195.370287 
L 292.933064 195.529033 
L 293.095391 196.542648 
L 293.480918 200.174843 
L 293.541791 199.426723 
L 293.962827 193.381469 
L 294.071891 193.007463 
L 294.117545 193.070248 
L 294.236755 193.69699 
L 294.508145 196.597214 
L 295.677409 210.084613 
L 296.047718 212.472577 
L 296.078155 212.360142 
L 296.549918 208.525301 
L 296.907545 203.303853 
L 296.996318 203.168707 
L 297.044509 203.22242 
L 297.181473 203.723818 
L 297.409745 204.317832 
L 297.569536 204.539492 
L 297.780055 205.345844 
L 297.863755 205.626363 
L 297.922091 205.50093 
L 298.1529 204.907446 
L 298.193482 204.942675 
L 298.322836 205.321391 
L 298.611982 207.034353 
L 299.651891 213.506101 
L 299.725445 213.738984 
L 299.781245 213.589589 
L 300.055173 211.776896 
L 300.658827 207.264919 
L 300.790718 207.051523 
L 300.823691 207.073064 
L 300.953045 207.370618 
L 301.234582 208.723248 
L 301.396909 209.079769 
L 301.414664 209.074631 
L 301.513582 208.920907 
L 301.906718 206.432442 
L 302.0031 206.568421 
L 302.302391 207.513192 
L 302.431745 207.365303 
L 302.566173 207.344713 
L 302.583927 207.363827 
L 302.736109 207.727724 
L 303.060764 208.982887 
L 303.103882 208.623532 
L 303.524918 204.205149 
L 303.5934 204.224106 
L 303.6213 204.270087 
L 303.778555 204.836622 
L 304.141255 207.181949 
L 304.542 209.872933 
L 304.600336 209.743861 
L 304.886945 208.987916 
L 304.914845 209.004413 
L 305.0442 209.266461 
L 305.328273 210.479564 
L 305.541327 211.552781 
L 305.589518 211.233986 
L 305.888809 209.36134 
L 305.987727 209.433215 
L 306.066355 209.550025 
L 306.119618 209.446622 
L 306.449345 208.71441 
L 306.477245 208.731072 
L 306.670009 208.804732 
L 306.695373 208.772787 
L 306.943936 208.624678 
L 307.096118 208.879689 
L 307.370045 209.876877 
L 307.507009 210.503918 
L 307.552664 210.206138 
L 307.857027 208.174835 
L 307.948336 208.260053 
L 308.123345 208.891844 
L 308.6991 212.078363 
L 308.785336 211.507002 
L 309.363627 205.395642 
L 309.432109 205.467745 
L 309.586827 206.016483 
L 309.946991 208.325972 
L 310.816964 213.788079 
L 311.1264 214.986241 
L 311.161909 214.891979 
L 311.281118 213.673324 
L 311.618455 210.754414 
L 311.724982 210.048012 
L 312.039491 208.028482 
L 312.120655 208.004096 
L 312.1587 208.048302 
L 312.313418 208.502644 
L 312.676118 210.445982 
L 313.508045 214.75787 
L 314.043218 216.391114 
L 314.162427 216.634429 
L 314.197936 216.485759 
L 314.438891 213.979798 
L 314.768618 209.773634 
L 314.882755 209.605909 
L 314.9208 209.635447 
L 315.0603 209.987546 
L 315.402709 211.632192 
L 316.224491 215.455638 
L 316.759664 216.908478 
L 317.289764 217.742883 
L 317.454627 217.915363 
L 317.477455 217.807057 
L 318.0177 214.414804 
L 318.159736 214.528127 
L 318.4362 215.129316 
L 318.563018 215.425267 
L 318.613745 215.29542 
L 318.763391 214.132484 
L 318.935864 210.254165 
L 319.242764 205.053937 
L 319.394945 204.594046 
L 319.420309 204.608539 
L 319.526836 204.875656 
L 319.760182 206.222099 
L 319.848955 206.531503 
L 319.907291 206.481238 
L 320.046791 206.419063 
L 320.074691 206.450418 
L 320.214191 206.849328 
L 320.320718 207.126321 
L 320.379055 207.063886 
L 320.551527 206.910044 
L 320.5845 206.942159 
L 320.721464 207.309422 
L 321.0309 208.735208 
L 321.160255 208.588738 
L 321.289609 208.583166 
L 321.304827 208.600336 
L 321.459545 208.973273 
L 321.525491 209.186248 
L 321.573682 208.984589 
L 321.842536 207.748893 
L 321.862827 207.757816 
L 321.969355 207.981598 
L 322.210309 209.158473 
L 323.316164 215.083064 
L 323.379573 214.975755 
L 324.018736 212.614806 
L 324.262227 212.140438 
L 324.399191 212.226586 
L 324.619855 212.721545 
L 325.015527 213.927569 
L 325.094155 213.772905 
L 325.467 212.951739 
L 325.611573 213.108254 
L 325.8018 213.506382 
L 325.8576 213.335006 
L 326.253273 211.670867 
L 326.283709 211.686053 
L 326.423209 211.937683 
L 326.740255 213.100252 
L 327.250064 215.073764 
L 327.300791 215.000251 
L 327.592473 213.969575 
L 328.054091 210.532369 
L 328.059164 210.533229 
L 328.165691 210.672136 
L 328.383818 211.436028 
L 328.934209 213.838237 
L 329.017909 213.740431 
L 329.284227 213.500514 
L 329.444018 213.708679 
L 329.611418 214.094129 
L 329.654536 213.901274 
L 330.0426 211.953117 
L 330.159273 212.02819 
L 330.357109 212.538494 
L 331.052073 215.28191 
L 331.645582 217.022557 
L 331.955018 217.600893 
L 331.987991 217.527366 
L 332.140173 216.455928 
L 332.769191 212.37202 
L 332.794555 212.380389 
L 332.934055 212.58301 
L 333.218127 213.495201 
L 333.692427 215.338521 
L 333.735545 215.073603 
L 334.354418 209.804502 
L 334.377245 209.813407 
L 334.488845 210.023997 
L 334.734873 211.093278 
L 335.465345 214.843297 
L 335.528755 214.70844 
L 335.937109 213.544532 
L 335.959936 213.554614 
L 336.112118 213.778524 
L 336.441845 214.774951 
L 336.561055 215.14257 
L 336.611782 214.97161 
L 337.015064 213.280049 
L 337.108909 212.688721 
L 337.278845 208.951125 
L 337.786118 196.454337 
L 337.890109 196.152881 
L 337.935764 196.212735 
L 338.057509 196.797955 
L 338.331436 199.472286 
L 338.729645 202.845657 
L 338.978209 204.491089 
L 339.396709 208.144529 
L 339.480409 207.755534 
L 339.665564 207.127282 
L 339.688391 207.139876 
L 339.792382 207.393222 
L 340.013045 208.448593 
L 340.096745 208.106332 
L 340.297118 207.444218 
L 340.317409 207.453945 
L 340.4214 207.678916 
L 340.591336 208.186303 
L 340.662355 208.104744 
L 340.862727 207.928164 
L 340.885555 207.946885 
L 341.025055 208.252806 
L 341.1468 208.503144 
L 341.197527 208.448588 
L 341.410582 208.221519 
L 341.443555 208.25258 
L 341.588127 208.614108 
L 341.897564 210.14577 
L 342.326209 212.330531 
L 342.379473 212.277504 
L 342.473318 211.922273 
L 342.719345 209.030306 
L 342.998345 206.089196 
L 343.084582 205.978244 
L 343.132773 206.029965 
L 343.345827 206.179442 
L 343.492936 206.323175 
L 343.680627 206.926788 
L 344.045864 209.041604 
L 344.499873 211.548215 
L 344.532845 211.530103 
L 344.816918 211.379697 
L 344.834673 211.400782 
L 344.999536 211.701504 
L 345.0528 211.511027 
L 345.306436 209.192201 
L 345.534709 208.332831 
L 345.641236 208.398553 
L 345.770591 208.660691 
L 345.831464 208.510771 
L 346.105391 207.752139 
L 346.135827 207.770826 
L 346.260109 208.048984 
L 346.4757 209.017737 
L 346.5315 208.608166 
L 347.193491 199.974283 
L 347.2569 199.923625 
L 347.305091 199.991931 
L 347.442055 200.585303 
L 347.746418 203.130709 
L 348.821836 212.574513 
L 349.346864 215.112857 
L 349.808482 216.381448 
L 349.869355 216.239825 
L 350.422282 214.339441 
L 350.440036 214.345242 
L 350.589682 214.349444 
L 350.607436 214.301015 
L 350.774836 213.420129 
L 351.223773 209.109732 
L 351.315082 209.130925 
L 351.335373 209.154202 
L 351.604227 209.294718 
L 351.774164 209.576322 
L 352.048091 210.571116 
L 352.347382 211.724157 
L 352.405718 211.673868 
L 352.6974 211.470684 
L 352.699936 211.472648 
L 352.8648 211.745559 
L 353.070245 212.287728 
L 353.131118 212.118997 
L 353.861591 209.262755 
L 353.996018 209.03751 
L 354.254727 208.703597 
L 354.437345 208.654803 
L 354.658009 208.593141 
L 354.8178 208.886091 
L 355.000418 209.077858 
L 355.008027 209.07477 
L 355.266736 209.079862 
L 355.449355 209.453586 
L 355.611682 209.965889 
L 355.664945 209.75517 
L 355.997209 208.117279 
L 356.0175 208.125815 
L 356.126564 208.335847 
L 356.164609 208.441215 
L 356.207727 208.238525 
L 356.486727 206.874389 
L 356.499409 206.878475 
L 356.595791 207.054333 
L 356.811382 208.052265 
L 356.897618 208.234824 
L 356.950882 208.182042 
L 357.1614 207.962962 
L 357.196909 207.996591 
L 357.341482 208.3642 
L 357.650918 209.917293 
L 358.614736 214.88732 
L 359.149909 216.449503 
L 359.680009 217.353131 
L 360.265909 217.92269 
L 360.712309 218.180265 
L 360.7326 218.133046 
L 360.884782 217.220694 
L 361.196755 214.466597 
L 361.549309 210.466009 
L 361.797873 209.900615 
L 362.097164 209.358414 
L 362.213836 209.299734 
L 362.218909 209.280972 
L 362.533418 208.369575 
L 362.563855 208.387402 
L 362.695745 208.655537 
L 362.982355 209.59312 
L 363.083809 209.492851 
L 363.400855 208.959546 
L 363.674782 208.141749 
L 363.778773 208.250101 
L 363.966464 208.89057 
L 364.435691 211.536868 
L 365.150945 215.122808 
L 365.630318 216.589018 
L 365.643 216.572491 
L 365.719091 216.057593 
L 365.952436 212.814608 
L 366.439418 206.286685 
L 366.624573 205.833201 
L 366.637255 205.837723 
L 366.743782 206.02268 
L 367.027855 207.00528 
L 367.154673 206.867124 
L 367.2612 206.876346 
L 367.281491 206.904209 
L 367.4007 207.202292 
L 367.451427 206.968895 
L 368.057618 202.644893 
L 368.154 202.8036 
L 368.336618 203.722711 
L 368.793164 207.508673 
L 369.193909 210.625261 
L 369.234491 210.450781 
L 369.680891 206.912902 
L 369.774736 207.04166 
L 369.964964 207.823206 
L 370.299764 209.689477 
L 370.393609 209.516308 
L 370.6092 209.229548 
L 370.621882 209.235958 
L 370.753773 209.450198 
L 370.791818 209.550043 
L 370.824791 209.338832 
L 371.149445 207.013251 
L 371.159591 207.015869 
L 371.296555 207.200542 
L 371.502 207.465245 
L 371.552727 207.367511 
L 371.666864 206.700614 
L 372.034636 202.960539 
L 372.265445 202.636222 
L 372.3669 202.597776 
L 372.402409 202.637176 
L 372.541909 203.054968 
L 372.8691 204.637881 
L 372.932509 204.278404 
L 373.434709 198.190889 
L 373.581818 195.867832 
L 373.581818 195.867832 
" clip-path="url(#p75b74b982b)" style="fill: none; stroke: #000000; stroke-width: 1.5; stroke-linecap: square"/>
   </g>
   <g id="line2d_15">
    <path d="M 69.218182 191.1168 
L 69.3729 199.514416 
L 69.7356 208.087161 
L 70.149027 213.144122 
L 70.448318 214.937411 
L 70.466073 214.927641 
L 70.493973 214.741873 
L 71.125527 205.164983 
L 71.399455 201.265297 
L 71.511055 201.004759 
L 71.554173 201.04792 
L 71.678455 201.5065 
L 71.952382 203.57721 
L 73.004973 212.261123 
L 73.020191 212.244159 
L 73.091209 211.805036 
L 73.737982 206.820328 
L 73.859727 206.673988 
L 73.895236 206.7008 
L 73.951036 206.711349 
L 73.991618 206.641147 
L 74.303591 206.02411 
L 74.351782 206.066886 
L 74.374609 206.086837 
L 74.402509 205.959277 
L 74.600345 203.53635 
L 74.881882 200.432863 
L 74.935145 200.38915 
L 74.985873 200.465639 
L 75.127909 201.131769 
L 75.569236 203.284504 
L 75.673227 203.486894 
L 75.731564 203.336839 
L 76.210936 201.061871 
L 76.735964 194.160091 
L 76.789227 194.230564 
L 76.931264 194.888677 
L 77.060618 195.276307 
L 77.1012 195.163756 
L 77.362445 193.975947 
L 77.430927 194.089956 
L 77.522236 194.476273 
L 77.5755 194.189453 
L 77.747973 191.889299 
L 78.016827 189.667211 
L 78.057409 189.670661 
L 78.092918 189.73991 
L 78.222273 190.434095 
L 78.549464 192.098909 
L 78.917236 193.853746 
L 79.272327 197.378951 
L 80.342673 208.385027 
L 80.718055 210.701007 
L 80.748491 210.592528 
L 81.1467 208.353144 
L 81.2025 208.392966 
L 81.364827 208.770608 
L 81.861955 210.525745 
L 81.976091 210.358553 
L 82.176464 209.674187 
L 82.790264 206.210965 
L 82.950055 206.047782 
L 82.967809 206.057384 
L 83.107309 206.290178 
L 83.147891 206.343675 
L 83.196082 206.225524 
L 83.553709 204.924092 
L 83.606973 204.969298 
L 83.756618 205.37218 
L 84.088882 207.069029 
L 84.268964 208.060167 
L 84.324764 207.812441 
L 84.651955 206.224757 
L 84.654491 206.225189 
L 84.753409 206.357872 
L 84.961391 207.130845 
L 85.032409 207.425615 
L 85.083136 207.171229 
L 85.851655 201.161987 
L 85.932818 201.210503 
L 85.9455 201.234511 
L 86.100218 201.808116 
L 86.452773 204.185348 
L 86.648073 204.84091 
L 86.650609 204.840246 
L 86.706409 204.703242 
L 86.919464 203.184023 
L 87.142664 202.477943 
L 87.241582 202.586297 
L 87.421664 203.238403 
L 87.840164 205.811326 
L 87.8706 205.906196 
L 87.928936 205.659571 
L 88.213009 204.418169 
L 88.225691 204.422013 
L 88.327145 204.599265 
L 88.547809 205.57275 
L 89.075373 208.622655 
L 89.151464 208.303144 
L 89.453291 207.067877 
L 89.554745 206.922479 
L 89.9073 206.2381 
L 89.919982 206.243693 
L 90.059482 206.44665 
L 90.318191 207.323046 
L 91.342882 211.686841 
L 91.418973 211.482015 
L 91.5255 210.467774 
L 92.154518 200.508008 
L 92.385327 199.458982 
L 92.661791 198.630582 
L 92.684618 198.643589 
L 92.793682 198.892427 
L 92.849482 199.077684 
L 92.905282 198.887478 
L 93.120873 198.169358 
L 93.148773 198.187246 
L 93.1995 198.237174 
L 93.224864 198.112195 
L 93.623073 194.737789 
L 93.716918 194.909803 
L 93.744818 194.994269 
L 93.782864 194.747966 
L 94.274918 190.406051 
L 94.292673 190.41472 
L 94.378909 190.644601 
L 94.561527 191.930183 
L 94.812627 194.311244 
L 94.906473 194.109824 
L 94.972418 194.055614 
L 95.018073 194.125919 
L 95.147427 194.763029 
L 95.479691 196.315402 
L 95.507591 196.366825 
L 95.555782 196.185748 
L 96.037691 193.803825 
L 96.118855 193.697623 
L 96.167045 193.759803 
L 96.2964 194.319478 
L 96.577936 196.770905 
L 97.478345 204.974434 
L 97.714227 204.995394 
L 97.726909 204.935307 
L 97.901918 203.208323 
L 98.102291 202.462077 
L 98.104827 202.462437 
L 98.196136 202.592117 
L 98.485282 203.513967 
L 98.6121 203.356397 
L 98.868273 202.824202 
L 99.236045 201.033886 
L 99.3375 201.119273 
L 99.507436 201.688222 
L 99.880282 203.904005 
L 100.194791 205.939439 
L 100.2582 205.694563 
L 100.554955 204.607823 
L 100.658945 204.715358 
L 100.854245 205.356964 
L 101.222018 206.843673 
L 101.295573 206.778249 
L 101.564427 206.600797 
L 101.724218 206.84492 
L 102.020973 207.808589 
L 102.168082 208.303068 
L 102.223882 208.173605 
L 103.045664 205.36209 
L 103.162336 205.483216 
L 103.370318 206.121669 
L 103.920709 208.782168 
L 104.620745 211.678238 
L 105.181282 213.110568 
L 105.746891 213.975984 
L 105.937118 214.165808 
L 105.967555 214.072187 
L 106.119736 212.711041 
L 106.419027 210.860991 
L 106.616864 210.66378 
L 106.695491 210.366092 
L 107.096236 208.770502 
L 107.235736 208.804282 
L 107.4285 209.187631 
L 107.877436 210.722842 
L 108.204627 211.807334 
L 108.252818 211.697326 
L 108.7119 209.398005 
L 108.9072 206.713951 
L 109.1862 203.828173 
L 109.295264 203.665177 
L 109.335845 203.699567 
L 109.470273 204.078674 
L 109.589482 204.623385 
L 109.624991 204.278369 
L 110.028273 199.250734 
L 110.104364 199.349949 
L 110.259082 200.090575 
L 110.649682 203.357345 
L 110.834836 204.164978 
L 110.847518 204.162543 
L 111.040282 204.224904 
L 111.101155 204.259478 
L 111.146809 204.184078 
L 111.443564 203.497932 
L 111.506973 203.566504 
L 111.6693 204.07808 
L 112.034536 206.158082 
L 112.940018 211.239351 
L 113.305255 212.524279 
L 113.333155 212.435791 
L 113.432073 211.185176 
L 113.634982 204.282879 
L 114.030655 193.383558 
L 114.264 191.923821 
L 114.535391 191.179369 
L 114.639382 190.924256 
L 115.1289 188.289025 
L 115.192309 188.394823 
L 115.331809 189.206347 
L 115.636173 192.602329 
L 116.232218 200.291244 
L 116.313382 200.064482 
L 116.4123 199.910239 
L 116.460491 199.967814 
L 116.506145 200.074721 
L 116.544191 199.907013 
L 116.795291 198.611443 
L 116.8308 198.642608 
L 116.944936 199.027399 
L 117.145309 200.288007 
L 117.2214 199.852879 
L 117.409091 199.083449 
L 117.431918 199.097486 
L 117.530836 199.374284 
L 117.759109 200.862307 
L 118.192827 203.471631 
L 118.195364 203.470814 
L 118.256236 203.319995 
L 118.631618 201.992359 
L 118.677273 202.027247 
L 118.816773 202.381197 
L 118.885255 202.566887 
L 118.946127 202.448594 
L 119.506664 201.025087 
L 119.519345 201.031022 
L 119.636018 201.228966 
L 119.861755 202.174314 
L 120.079882 202.777755 
L 120.100173 202.762051 
L 120.201627 202.436324 
L 120.505991 201.602501 
L 120.615055 201.732866 
L 120.810355 202.421672 
L 121.261827 205.052064 
L 122.086145 209.548457 
L 122.639073 211.38662 
L 123.166636 212.420972 
L 123.600355 212.897401 
L 123.613036 212.88543 
L 123.711955 212.580643 
L 124.275027 210.537086 
L 124.477936 210.500031 
L 124.718891 210.734388 
L 125.299718 211.720106 
L 125.959173 212.680137 
L 125.969318 212.671129 
L 126.047945 212.37512 
L 126.547609 210.230505 
L 126.742909 210.162173 
L 126.857045 210.218213 
L 126.882409 210.104811 
L 127.095464 207.946864 
L 127.4049 204.513266 
L 127.853836 199.590222 
L 127.935 199.699726 
L 128.054209 200.038941 
L 128.125227 199.891547 
L 128.259655 199.164088 
L 128.566555 196.534203 
L 128.782145 196.440194 
L 128.784682 196.442288 
L 128.9115 196.699906 
L 129.104264 197.605782 
L 129.160064 197.132175 
L 129.464427 194.494558 
L 129.565882 194.573153 
L 129.8322 195.050487 
L 130.0554 196.177227 
L 130.506873 199.922682 
L 131.361627 206.64311 
L 131.919627 209.345136 
L 132.442118 210.862386 
L 132.776918 211.431552 
L 132.804818 211.400894 
L 132.926564 210.97123 
L 133.378036 209.378116 
L 133.586018 209.288618 
L 133.644355 209.26047 
L 133.657036 209.20719 
L 133.761027 208.069935 
L 134.448382 198.900841 
L 134.552373 198.799218 
L 134.592955 198.836493 
L 134.732455 199.222762 
L 135.0216 200.83397 
L 135.729245 205.74787 
L 135.795191 205.270436 
L 136.066582 203.568237 
L 136.142673 203.585536 
L 136.168036 203.623663 
L 136.320218 203.922606 
L 136.393773 203.805631 
L 136.682918 203.394991 
L 136.690527 203.398813 
L 136.827491 203.604076 
L 136.972064 204.026204 
L 137.012645 203.773932 
L 137.347445 201.538719 
L 137.438755 201.657694 
L 137.626445 202.402979 
L 138.265609 206.278359 
L 138.897164 209.294152 
L 139.439945 210.879971 
L 139.533791 210.982021 
L 139.579445 210.927688 
L 139.744309 210.371265 
L 140.109545 209.347014 
L 140.312455 209.287818 
L 140.543264 209.491246 
L 141.048 210.328119 
L 141.813982 211.456475 
L 141.852027 211.479188 
L 141.885 211.381826 
L 142.037182 210.073715 
L 142.574891 203.910802 
L 143.064409 194.268255 
L 143.137964 194.182691 
L 143.188691 194.244682 
L 143.328191 194.79044 
L 143.6427 197.138639 
L 144.751091 205.817615 
L 145.159445 207.623222 
L 145.182273 207.588239 
L 145.271045 206.985589 
L 145.527218 203.399773 
L 146.047173 196.172487 
L 146.480891 193.828433 
L 146.589955 193.222679 
L 146.815691 192.369739 
L 146.825836 192.373041 
L 146.914609 192.543556 
L 147.099764 193.529815 
L 147.262091 194.613519 
L 147.335645 194.400247 
L 147.503045 193.991611 
L 147.538555 194.022951 
L 147.655227 194.395444 
L 147.916473 196.164812 
L 149.100955 204.89437 
L 149.1669 205.158469 
L 149.2227 204.949397 
L 149.605691 201.769246 
L 149.950636 198.450309 
L 150.389427 194.239993 
L 150.741982 191.541484 
L 150.848509 191.749377 
L 151.046345 192.869119 
L 151.604345 197.754032 
L 152.324673 203.187583 
L 152.882673 205.825704 
L 153.364582 207.215742 
L 153.374727 207.200846 
L 153.438136 206.69739 
L 153.800836 203.771651 
L 153.958091 203.64261 
L 153.973309 203.650829 
L 154.135636 203.885788 
L 154.508482 204.928925 
L 154.647982 205.181827 
L 154.6911 205.145466 
L 155.241491 204.554849 
L 155.261782 204.571339 
L 155.505273 204.932283 
L 155.588973 205.059455 
L 155.634627 204.953673 
L 155.885727 203.492911 
L 156.114 202.960359 
L 156.248427 203.034035 
L 156.466555 203.504677 
L 157.1184 205.543764 
L 157.217318 205.287954 
L 157.605382 204.157333 
L 157.752491 204.223965 
L 157.869164 204.399736 
L 157.891991 204.245798 
L 158.051782 201.223408 
L 158.521009 194.359265 
L 158.640218 194.12133 
L 158.6808 194.155944 
L 158.807618 194.542274 
L 159.086618 196.281812 
L 159.193145 196.950827 
L 159.259091 196.747331 
L 159.482291 196.099658 
L 159.505118 196.112805 
L 159.614182 196.361467 
L 159.847527 197.591003 
L 161.242527 205.965282 
L 161.782773 207.558663 
L 161.909591 207.79786 
L 161.950173 207.669999 
L 162.051627 206.203356 
L 162.416864 201.367003 
L 162.612164 200.930856 
L 162.7263 201.063797 
L 162.952036 201.776142 
L 163.522718 204.203302 
L 163.611491 203.966066 
L 163.984336 202.803131 
L 164.113691 202.899485 
L 164.250655 202.992991 
L 164.286164 202.960225 
L 164.390155 202.679417 
L 164.9025 199.364419 
L 164.968445 199.420084 
L 165.133309 199.866694 
L 165.506155 201.68796 
L 166.226482 205.026158 
L 166.335545 204.920927 
L 166.754045 204.027147 
L 167.309509 197.86723 
L 167.395745 197.852145 
L 167.428718 197.890814 
L 167.537782 198.136147 
L 167.573291 197.909508 
L 168.237818 192.252362 
L 168.364636 192.027894 
L 168.402682 192.058931 
L 168.524427 192.42041 
L 168.778064 194.047863 
L 169.3386 198.237877 
L 169.412155 198.166598 
L 169.579555 198.070065 
L 169.602382 198.091681 
L 169.746955 198.432558 
L 169.891527 198.837806 
L 169.954936 198.754313 
L 170.226327 198.363748 
L 170.254227 198.383663 
L 170.396264 198.672026 
L 170.563664 199.1285 
L 170.629609 199.026641 
L 170.903536 198.559707 
L 170.931436 198.577956 
L 171.070936 198.85679 
L 171.3474 200.031166 
L 171.555382 200.996362 
L 171.608645 200.819219 
L 171.811555 198.914074 
L 172.105773 194.486738 
L 172.615582 187.903797 
L 172.7424 187.689965 
L 172.777909 187.716848 
L 172.904727 188.052884 
L 172.960527 188.246888 
L 173.011255 188.026008 
L 173.168509 186.167609 
L 173.521064 181.30852 
L 173.564182 181.282425 
L 173.612373 181.363243 
L 173.751873 182.088893 
L 173.959855 182.893739 
L 173.980145 182.886918 
L 174.190664 182.661126 
L 174.482345 181.041556 
L 174.533073 181.102099 
L 174.659891 181.658997 
L 174.999764 184.168599 
L 175.096145 183.734203 
L 175.273691 181.515911 
L 175.621173 178.173197 
L 175.7556 177.461707 
L 176.194391 172.234168 
L 176.237509 172.283182 
L 176.354182 172.809183 
L 176.491145 173.606082 
L 176.552018 173.378936 
L 176.866527 171.721107 
L 176.914718 171.777917 
L 177.036464 172.302209 
L 177.356045 173.614918 
L 177.523445 174.133893 
L 177.579245 174.061358 
L 177.741573 173.453484 
L 177.873464 171.064752 
L 178.284355 162.136116 
L 178.370591 161.913849 
L 178.421318 161.991314 
L 178.550673 162.710605 
L 178.606473 162.853866 
L 178.664809 162.737609 
L 178.931127 162.26081 
L 179.230418 162.486262 
L 179.385136 163.210285 
L 179.808709 165.33001 
L 180.102927 166.479763 
L 180.158727 166.156638 
L 180.270327 163.748318 
L 180.901882 147.657927 
L 181.404082 142.024661 
L 181.495391 141.854019 
L 181.543582 141.909817 
L 181.675473 142.441956 
L 182.081291 144.140996 
L 182.106655 144.151963 
L 182.147236 144.051792 
L 182.281664 143.138677 
L 182.575882 141.045846 
L 182.634218 141.075982 
L 182.657045 141.123587 
L 182.794009 141.775648 
L 183.303818 145.055155 
L 183.377373 145.00422 
L 183.423027 144.837032 
L 183.544773 141.961738 
L 183.816164 137.888557 
L 183.915082 137.66543 
L 183.960736 137.721158 
L 184.085018 138.260529 
L 184.343727 140.584358 
L 184.579609 142.764228 
L 184.635409 142.594439 
L 184.779982 141.311015 
L 185.3532 131.55921 
L 185.419145 131.657848 
L 185.5206 131.827479 
L 185.566255 131.723265 
L 185.964464 130.666789 
L 185.969536 130.668646 
L 186.058309 130.838327 
L 186.154691 131.111375 
L 186.210491 130.950713 
L 186.339845 129.643703 
L 186.616309 127.169432 
L 186.677182 127.277079 
L 187.014518 128.929344 
L 187.468527 131.511424 
L 187.471064 131.510736 
L 187.544618 131.358578 
L 187.699336 131.06681 
L 187.739918 131.112105 
L 187.798255 131.249458 
L 187.841373 131.084205 
L 188.001164 130.49454 
L 188.046818 130.560328 
L 188.1711 131.222162 
L 188.592136 133.272725 
L 188.716418 133.729594 
L 189.274418 137.680282 
L 189.642191 141.393183 
L 189.852709 141.712935 
L 190.083518 142.203856 
L 190.200191 142.564662 
L 190.380273 144.035006 
L 190.712536 148.966709 
L 191.1843 156.303086 
L 191.235027 156.195013 
L 191.536855 155.505836 
L 191.615482 155.123452 
L 191.836145 152.382914 
L 192.011155 151.50107 
L 192.031445 151.515805 
L 192.117682 151.816263 
L 192.307909 153.515083 
L 192.957218 158.414662 
L 192.977509 158.388658 
L 193.030773 157.973135 
L 193.497464 152.056959 
L 193.586236 152.279097 
L 193.7511 153.603591 
L 194.126482 158.341245 
L 194.230473 157.661627 
L 194.633755 154.572628 
L 194.638827 154.573853 
L 194.714918 154.723898 
L 194.803691 155.018548 
L 194.874709 154.883315 
L 194.9787 154.736567 
L 195.024355 154.796741 
L 195.141027 155.348401 
L 195.389591 156.696564 
L 195.427636 156.602695 
L 195.589964 156.146577 
L 195.638155 156.21639 
L 195.757364 156.838207 
L 195.998318 159.551059 
L 196.571536 169.219456 
L 197.005255 175.051996 
L 197.203091 175.486409 
L 197.312155 175.609291 
L 197.456727 176.259583 
L 197.781382 177.614045 
L 197.918345 177.866617 
L 197.966536 177.680864 
L 198.463664 174.690946 
L 198.5499 174.847795 
L 198.719836 175.808312 
L 198.988691 177.839889 
L 199.087609 177.768233 
L 199.173845 177.867154 
L 199.201745 177.932444 
L 199.244864 177.750981 
L 199.676045 174.065658 
L 199.970264 171.466561 
L 200.033673 171.407275 
L 200.0844 171.482485 
L 200.216291 172.11365 
L 200.409055 173.094431 
L 200.459782 173.013841 
L 200.657618 172.628073 
L 200.703273 172.679317 
L 200.827555 173.154361 
L 201.0609 175.126058 
L 201.159818 176.044188 
L 201.215618 175.599189 
L 202.143927 164.521536 
L 202.209873 164.3769 
L 202.265673 164.475229 
L 202.463509 165.457567 
L 202.745045 167.986812 
L 203.006291 169.712239 
L 203.193982 170.143456 
L 203.270073 169.964628 
L 203.440009 169.598412 
L 203.480591 169.640838 
L 203.594727 170.078299 
L 203.873727 172.357017 
L 204.621955 176.822542 
L 204.662536 176.861042 
L 204.7158 176.768279 
L 204.867982 176.021534 
L 205.382864 172.347433 
L 205.644109 171.291441 
L 206.085436 165.446298 
L 206.156455 165.585161 
L 206.486182 166.403961 
L 206.610464 167.04369 
L 206.9478 169.981069 
L 207.054327 169.557979 
L 207.155782 169.338749 
L 207.201436 169.403088 
L 207.320645 170.015094 
L 207.759436 173.280783 
L 207.830455 173.03512 
L 208.013073 172.265287 
L 208.053655 172.317309 
L 208.167791 172.865744 
L 208.423964 174.455157 
L 208.477227 174.214483 
L 209.091027 169.675281 
L 209.154436 169.750285 
L 209.296473 170.198263 
L 209.380173 169.996721 
L 209.565327 169.158605 
L 209.664245 167.337541 
L 210.047236 160.981008 
L 210.587482 154.534263 
L 212.068718 140.662008 
L 212.167636 140.788089 
L 212.3325 141.422123 
L 212.413664 141.755293 
L 212.464391 141.533389 
L 212.730709 139.934015 
L 212.7789 140.005728 
L 212.961518 140.84489 
L 213.040145 141.228725 
L 213.088336 140.929907 
L 213.309 139.414751 
L 213.344509 139.459714 
L 213.4485 140.00745 
L 213.669164 142.641516 
L 214.036936 146.662969 
L 214.044545 146.659802 
L 214.092736 146.443793 
L 214.295645 143.923711 
L 214.523918 142.640894 
L 214.597473 141.815283 
L 214.853645 139.490072 
L 214.856182 139.490391 
L 214.917055 139.618999 
L 215.054018 140.616691 
L 215.315264 142.144447 
L 215.563827 143.2199 
L 215.804782 145.78378 
L 216.558082 156.071453 
L 216.641782 155.71841 
L 216.781282 155.257526 
L 216.8244 155.314288 
L 216.936 155.896994 
L 217.166809 158.553738 
L 218.039318 170.311658 
L 218.084973 170.235115 
L 218.277736 169.342433 
L 218.594782 167.027338 
L 218.607464 167.032195 
L 218.691164 167.228673 
L 219.0843 168.679285 
L 219.436855 170.844052 
L 219.566209 171.084999 
L 219.738682 172.064144 
L 219.966955 172.903022 
L 220.081091 172.998657 
L 220.296682 173.793293 
L 220.770982 175.411399 
L 221.113391 176.962056 
L 221.438045 179.905446 
L 222.893918 195.846011 
L 222.995373 195.801773 
L 223.119655 195.882807 
L 223.289591 196.387691 
L 223.657364 198.364928 
L 223.916073 199.565272 
L 223.961727 199.532187 
L 224.278773 199.294961 
L 224.293991 199.308997 
L 224.466464 199.641675 
L 224.628791 200.09573 
L 224.684591 199.92403 
L 225.034609 198.478314 
L 225.067582 198.49597 
L 225.196936 198.759126 
L 225.275564 198.966201 
L 225.331364 198.818853 
L 225.661091 197.666926 
L 225.6966 197.690083 
L 225.828491 197.992062 
L 226.064373 198.993366 
L 226.135391 198.650518 
L 226.409318 197.424314 
L 226.898836 196.780698 
L 226.967318 195.5186 
L 227.3985 185.428502 
L 227.461909 185.338867 
L 227.512636 185.420666 
L 227.647064 186.125964 
L 227.951427 189.18148 
L 228.884809 198.891232 
L 229.105473 199.21497 
L 229.346427 200.222843 
L 229.790291 202.736019 
L 229.868918 202.403025 
L 230.315318 200.241096 
L 230.530909 199.701945 
L 230.533445 199.702496 
L 230.637436 199.842255 
L 230.840345 200.607243 
L 231.436391 203.90293 
L 231.5556 203.560952 
L 231.829527 202.903212 
L 231.9462 203.01857 
L 232.159255 203.651115 
L 232.539709 205.012541 
L 232.600582 204.918936 
L 232.709645 204.167935 
L 233.0901 199.475458 
L 233.404609 194.141369 
L 233.531427 193.796173 
L 233.569473 193.828919 
L 233.688682 194.225626 
L 233.952464 196.073772 
L 234.677864 201.343132 
L 234.682936 201.34181 
L 234.766636 201.190349 
L 235.111582 200.471691 
L 235.1268 200.478961 
L 235.258691 200.687601 
L 235.499645 201.587047 
L 235.864882 203.278551 
L 235.943509 203.150142 
L 236.189536 202.757563 
L 236.209827 202.768607 
L 236.344255 203.001374 
L 236.618182 204.038486 
L 237.252273 207.029719 
L 237.323291 206.751299 
L 237.647945 205.433168 
L 237.782373 205.471805 
L 237.975136 205.880834 
L 238.4469 207.566993 
L 238.606691 208.076879 
L 238.657418 207.951509 
L 238.842573 206.668534 
L 239.012509 203.822282 
L 239.324482 199.903718 
L 239.631382 198.959581 
L 239.836827 197.49372 
L 240.0651 196.658739 
L 240.156409 196.759657 
L 240.321273 197.41458 
L 240.473455 198.254286 
L 240.534327 197.982756 
L 240.914782 195.608642 
L 240.947755 195.630442 
L 241.0695 195.881889 
L 241.135445 195.695882 
L 241.3485 195.112158 
L 241.384009 195.139778 
L 241.498145 195.479665 
L 241.736564 197.065196 
L 243.238091 208.547992 
L 243.755509 210.429599 
L 243.758045 210.426329 
L 243.806236 209.985576 
L 244.313509 204.783237 
L 244.496127 204.507568 
L 244.506273 204.51111 
L 244.564609 204.496704 
L 244.587436 204.430402 
L 244.797955 203.232938 
L 245.038909 202.551507 
L 245.153045 202.632462 
L 245.343273 203.012168 
L 245.424436 202.878077 
L 245.678073 202.547359 
L 245.688218 202.552762 
L 245.822645 202.768335 
L 246.066136 203.68689 
L 246.246218 204.536409 
L 246.307091 204.302755 
L 246.406009 203.050906 
L 247.243009 189.507466 
L 247.273445 189.534492 
L 247.372364 189.940975 
L 247.603173 192.076154 
L 248.610109 202.330983 
L 248.851064 203.053026 
L 249.173182 204.39373 
L 249.256882 204.268785 
L 249.492764 203.95331 
L 249.510518 203.96384 
L 249.677918 204.156253 
L 249.733718 204.002515 
L 250.182655 201.820621 
L 250.7787 193.618877 
L 251.346845 189.666775 
L 251.389964 189.646216 
L 251.435618 189.726692 
L 251.570045 190.44312 
L 251.879482 193.594474 
L 252.338564 197.718395 
L 252.533864 198.061191 
L 252.571909 198.043118 
L 252.744382 198.075056 
L 252.896564 198.475806 
L 253.370864 199.866454 
L 253.515436 200.082455 
L 253.7361 200.921852 
L 254.177427 202.560207 
L 254.438673 203.002809 
L 254.491936 202.779395 
L 254.743036 200.097129 
L 255.090518 198.05305 
L 255.237627 197.838527 
L 255.265527 197.856078 
L 255.498873 198.129563 
L 255.590182 198.018294 
L 255.732218 197.990691 
L 255.747436 198.00669 
L 255.892009 198.354922 
L 256.036582 198.75637 
L 256.099991 198.69589 
L 256.401818 198.12657 
L 257.043518 195.071815 
L 257.144973 195.248514 
L 257.3352 196.221903 
L 257.794282 200.058437 
L 258.151909 202.289515 
L 258.263509 202.439362 
L 258.309164 202.346879 
L 258.692155 201.022367 
L 258.780927 201.128248 
L 258.966082 201.762799 
L 259.194355 202.797163 
L 259.272982 202.658542 
L 259.498718 202.315306 
L 259.519009 202.326737 
L 259.648364 202.565289 
L 259.711773 202.749582 
L 259.752355 202.54363 
L 259.955264 199.991068 
L 260.282455 196.52563 
L 260.396591 196.335888 
L 260.437173 196.370193 
L 260.563991 196.746366 
L 260.830309 198.400639 
L 261.258955 201.324183 
L 261.319827 201.27865 
L 261.543027 201.178398 
L 261.550636 201.18553 
L 261.702818 201.495559 
L 261.928555 201.824118 
L 262.032545 201.732737 
L 262.235455 200.604741 
L 262.453582 200.065998 
L 262.557573 200.19958 
L 262.780773 200.932594 
L 262.869545 200.657302 
L 263.364136 197.835703 
L 263.622845 195.509287 
L 263.795318 195.459751 
L 263.937355 195.52041 
L 264.087 195.962604 
L 264.353318 197.607794 
L 265.050818 202.089123 
L 265.251191 202.596318 
L 265.296845 202.359047 
L 265.608818 200.535051 
L 265.613891 200.535835 
L 265.7052 200.670258 
L 265.897964 201.48176 
L 266.085655 201.941194 
L 266.093264 201.939689 
L 266.296173 202.004441 
L 266.471182 202.445233 
L 266.800909 204.028868 
L 267.001282 204.504145 
L 267.305645 204.719638 
L 267.551673 205.382478 
L 267.632836 205.637454 
L 267.673418 205.434143 
L 267.802773 203.232015 
L 268.150255 196.93895 
L 268.401355 195.743708 
L 268.7463 194.997576 
L 268.842682 195.161293 
L 269.068418 196.033523 
L 269.182555 195.792154 
L 269.299227 195.66096 
L 269.339809 195.701383 
L 269.466627 196.113324 
L 269.725336 197.89333 
L 271.115264 208.620147 
L 271.143164 208.688226 
L 271.186282 208.487516 
L 271.749355 202.946675 
L 272.008064 200.4581 
L 272.089227 200.371652 
L 272.137418 200.42492 
L 272.281991 200.916119 
L 272.677664 202.258636 
L 272.865355 202.65012 
L 273.1545 203.917477 
L 274.453118 210.389824 
L 274.473409 210.344411 
L 274.579936 209.379146 
L 274.874155 207.457222 
L 275.1354 203.995648 
L 275.396645 201.230649 
L 275.485418 201.11582 
L 275.533609 201.168273 
L 275.675645 201.65357 
L 276.012982 203.80275 
L 276.936218 209.676049 
L 277.440955 211.587246 
L 277.448564 211.573864 
L 277.519582 210.994112 
L 277.849309 208.618875 
L 277.986273 208.508686 
L 278.011636 208.524339 
L 278.042073 208.540057 
L 278.0649 208.442468 
L 278.384482 205.275761 
L 278.681236 203.507284 
L 279.102273 202.943273 
L 279.1809 203.05814 
L 279.378736 203.729722 
L 279.457364 203.938478 
L 279.5157 203.838402 
L 279.779482 203.277608 
L 279.817527 203.307076 
L 279.954491 203.643365 
L 280.053409 203.999829 
L 280.099064 203.775159 
L 280.347627 200.748543 
L 280.593655 198.886484 
L 280.649455 198.869506 
L 280.692573 198.93465 
L 280.796564 199.213613 
L 280.862509 199.048543 
L 281.017227 198.738625 
L 281.055273 198.766031 
L 281.250573 198.797933 
L 281.379927 198.93124 
L 281.554936 199.548278 
L 281.884664 201.72269 
L 282.239755 204.400758 
L 282.300627 204.092904 
L 282.622745 202.411137 
L 282.714055 201.990307 
L 283.005736 200.809001 
L 283.008273 200.80948 
L 283.053927 200.767028 
L 283.064073 200.720668 
L 283.381118 199.101496 
L 283.459745 199.222351 
L 283.627145 200.013234 
L 283.961945 201.431245 
L 284.025355 201.537483 
L 284.055791 201.381474 
L 284.875036 195.511569 
L 284.925764 195.50612 
L 284.966345 195.575083 
L 285.169255 196.294887 
L 285.237736 195.967523 
L 285.618191 191.775307 
L 285.838855 190.249912 
L 285.909873 190.346838 
L 286.051909 191.107898 
L 286.366418 192.631708 
L 286.467873 192.856953 
L 286.650491 193.959304 
L 287.066455 198.19909 
L 287.911064 206.391733 
L 288.075927 207.121674 
L 288.116509 207.091343 
L 288.405655 206.542023 
L 288.7785 205.679714 
L 288.910391 205.808302 
L 289.136127 206.43469 
L 289.288309 206.956357 
L 289.333964 206.754663 
L 289.526727 204.206313 
L 289.800655 202.081076 
L 289.907182 201.969845 
L 289.947764 202.004725 
L 290.0898 202.379149 
L 290.394164 203.963205 
L 290.772082 205.711496 
L 290.789836 205.70725 
L 291.035864 205.742085 
L 291.226091 206.150214 
L 291.266673 206.209741 
L 291.3174 206.092436 
L 291.469582 205.007988 
L 292.106209 196.614503 
L 292.271073 196.426633 
L 292.420718 195.703685 
L 292.862045 190.336431 
L 292.917845 190.409247 
L 293.049736 191.052659 
L 293.338882 193.839602 
L 293.480918 194.962886 
L 293.516427 194.659367 
L 294.0795 187.592483 
L 294.087109 187.594943 
L 294.158127 187.766922 
L 294.317918 188.911252 
L 294.708518 193.749231 
L 295.596245 204.383003 
L 296.050255 207.776458 
L 296.070545 207.725879 
L 296.212582 206.511313 
L 296.648836 201.838067 
L 296.907545 198.738801 
L 297.003927 198.578695 
L 297.049582 198.627436 
L 297.184009 199.104467 
L 297.407209 199.658403 
L 297.564464 199.851904 
L 297.764836 200.58217 
L 297.863755 200.940629 
L 297.922091 200.817321 
L 298.1529 200.215896 
L 298.196018 200.253073 
L 298.325373 200.638094 
L 298.611982 202.368688 
L 299.717836 209.47186 
L 299.738127 209.472931 
L 299.776173 209.372767 
L 300.014591 207.951951 
L 300.762818 202.787343 
L 300.854127 202.82856 
L 300.866809 202.849192 
L 301.031673 203.365715 
L 301.401982 204.763161 
L 301.465391 204.736082 
L 301.513582 204.60583 
L 301.911791 202.061226 
L 302.010709 202.202399 
L 302.299855 203.116577 
L 302.424136 202.972005 
L 302.563636 202.932467 
L 302.583927 202.952902 
L 302.733573 203.305177 
L 303.060764 204.5941 
L 303.106418 204.204347 
L 303.524918 199.726558 
L 303.590864 199.725004 
L 303.626373 199.776192 
L 303.778555 200.304206 
L 304.120964 202.490796 
L 304.544536 205.411706 
L 304.610482 205.263336 
L 304.879336 204.587252 
L 304.9047 204.600692 
L 305.028982 204.843209 
L 305.2953 205.986047 
L 305.541327 207.287418 
L 305.592055 206.95964 
L 305.886273 205.142707 
L 305.980118 205.203336 
L 305.985191 205.212451 
L 306.066355 205.339091 
L 306.119618 205.239253 
L 306.451882 204.501919 
L 306.482318 204.520889 
L 306.659864 204.597648 
L 306.6903 204.560021 
L 306.946473 204.393916 
L 306.949009 204.395828 
L 307.101191 204.655236 
L 307.375118 205.672167 
L 307.509545 206.29054 
L 307.552664 206.0012 
L 307.8621 203.961956 
L 307.950873 204.049474 
L 308.123345 204.675963 
L 308.6433 207.718326 
L 308.701636 207.954018 
L 308.752364 207.723065 
L 308.914691 205.454634 
L 309.249491 201.413364 
L 309.378845 201.167673 
L 309.414355 201.195175 
L 309.541173 201.541249 
L 309.8151 203.10171 
L 311.047773 210.781633 
L 311.128936 211.033708 
L 311.177127 210.86501 
L 311.341991 208.991992 
L 311.633673 206.773399 
L 311.717373 206.178523 
L 312.049636 203.994097 
L 312.1308 203.972417 
L 312.168845 204.017219 
L 312.323564 204.472086 
L 312.681191 206.397717 
L 313.571455 211.117692 
L 314.121845 212.844886 
L 314.162427 212.924067 
L 314.200473 212.767652 
L 314.441427 210.251474 
L 314.771155 205.999719 
L 314.890364 205.810097 
L 314.928409 205.837224 
L 315.065373 206.170333 
L 315.390027 207.703699 
L 316.290436 211.951426 
L 316.838291 213.458584 
L 317.381073 214.339398 
L 317.454627 214.420592 
L 317.479991 214.296533 
L 318.007555 210.880398 
L 318.147055 210.960819 
L 318.393082 211.456506 
L 318.563018 211.865029 
L 318.616282 211.725215 
L 318.765927 210.530145 
L 318.940936 206.495527 
L 319.250373 201.172796 
L 319.410164 200.675805 
L 319.432991 200.687796 
L 319.536982 200.933181 
L 319.762718 202.18756 
L 319.846418 202.463867 
L 319.904755 202.406221 
L 320.051864 202.31712 
L 320.079764 202.346481 
L 320.214191 202.718101 
L 320.320718 202.986626 
L 320.376518 202.92433 
L 320.554064 202.751896 
L 320.587036 202.783073 
L 320.724 203.149841 
L 321.033436 204.583254 
L 321.165327 204.443319 
L 321.297218 204.456942 
L 321.304827 204.466358 
L 321.462082 204.857899 
L 321.528027 205.067602 
L 321.576218 204.855228 
L 321.845073 203.635583 
L 321.860291 203.641763 
L 321.961745 203.841294 
L 322.187482 204.919628 
L 323.323773 211.278836 
L 323.361818 211.233661 
L 323.529218 210.604074 
L 324.181064 208.453902 
L 324.340855 208.404381 
L 324.348464 208.410101 
L 324.5184 208.686617 
L 324.863345 209.77694 
L 325.015527 210.190004 
L 325.068791 210.113111 
L 325.477145 209.223314 
L 325.527873 209.259043 
L 325.715564 209.603319 
L 325.8018 209.783729 
L 325.849991 209.653187 
L 326.255809 207.9262 
L 326.316682 207.971394 
L 326.484082 208.362417 
L 326.907655 210.089874 
L 327.255136 211.405413 
L 327.303327 211.335381 
L 327.589936 210.355372 
L 328.0617 206.820446 
L 328.084527 206.828752 
L 328.203736 207.033554 
L 328.459909 208.035655 
L 328.936745 210.129944 
L 329.000155 210.069448 
L 329.294373 209.822904 
L 329.296909 209.82465 
L 329.466845 210.082366 
L 329.611418 210.433143 
L 329.654536 210.244924 
L 330.050209 208.272081 
L 330.166882 208.353136 
L 330.367255 208.88119 
L 331.006418 211.486059 
L 331.6329 213.487535 
L 331.957555 214.154403 
L 331.990527 214.077876 
L 332.147782 212.972724 
L 332.781873 208.832908 
L 332.809773 208.843029 
L 332.951809 209.055925 
L 333.240955 209.997027 
L 333.692427 211.782817 
L 333.738082 211.499382 
L 334.362027 206.149207 
L 334.382318 206.155936 
L 334.491382 206.349748 
L 334.727264 207.348322 
L 335.467882 211.218657 
L 335.543973 211.039573 
L 335.934573 209.951366 
L 336.069 210.102775 
L 336.332782 210.833979 
L 336.563591 211.596452 
L 336.616855 211.403648 
L 337.002382 209.766033 
L 337.096227 209.290261 
L 337.243336 206.453214 
L 337.839382 192.156922 
L 337.905327 192.053 
L 337.958591 192.134543 
L 338.093018 192.838121 
L 338.392309 195.867349 
L 338.716964 198.421892 
L 338.952845 199.913218 
L 339.399245 203.865154 
L 339.495627 203.413223 
L 339.660491 202.909749 
L 339.690927 202.929899 
L 339.802527 203.238362 
L 340.015582 204.300768 
L 340.094209 203.992963 
L 340.294582 203.337982 
L 340.317409 203.349898 
L 340.423936 203.59341 
L 340.596409 204.113081 
L 340.662355 204.041074 
L 340.862727 203.876905 
L 340.885555 203.896675 
L 341.025055 204.21062 
L 341.149336 204.470958 
L 341.200064 204.417149 
L 341.408045 204.199955 
L 341.443555 204.233468 
L 341.588127 204.601629 
L 341.892491 206.139428 
L 342.333818 208.451547 
L 342.384545 208.403808 
L 342.473318 208.073693 
L 342.714273 205.272987 
L 343.003418 202.153007 
L 343.092191 202.037052 
L 343.140382 202.087788 
L 343.333145 202.186571 
L 343.485327 202.2937 
L 343.660336 202.804832 
L 343.982455 204.593867 
L 344.510018 207.611212 
L 344.5506 207.58598 
L 344.8017 207.479 
L 344.809309 207.48714 
L 345.002073 207.84437 
L 345.060409 207.615137 
L 345.570218 204.435327 
L 345.631091 204.48258 
L 345.773127 204.747862 
L 345.834 204.586585 
L 346.110464 203.807594 
L 346.138364 203.824122 
L 346.260109 204.089614 
L 346.4757 205.05722 
L 346.5315 204.652293 
L 347.213782 195.738709 
L 347.269582 195.709202 
L 347.317773 195.781178 
L 347.457273 196.394479 
L 347.766709 199.000807 
L 348.890318 208.981284 
L 349.425491 211.627518 
L 349.811018 212.764412 
L 349.833845 212.74228 
L 349.930227 212.341872 
L 350.303073 210.838093 
L 350.470473 210.817205 
L 350.569391 210.847955 
L 350.602364 210.776526 
L 350.767227 209.967718 
L 351.271964 205.421927 
L 351.639736 205.58229 
L 351.812209 205.90937 
L 352.106427 207.058644 
L 352.349918 207.959699 
L 352.400645 207.920299 
L 352.702473 207.723876 
L 352.705009 207.726048 
L 352.872409 208.019934 
L 353.070245 208.559045 
L 353.133655 208.384148 
L 353.8692 205.477134 
L 354.011236 205.202958 
L 354.2598 204.872625 
L 354.432273 204.807313 
L 354.660545 204.719305 
L 354.8178 205.000461 
L 354.997882 205.189257 
L 355.008027 205.184943 
L 355.269273 205.18392 
L 355.449355 205.554035 
L 355.611682 206.073313 
L 355.667482 205.849562 
L 355.999745 204.205196 
L 356.0175 204.211616 
L 356.124027 204.406451 
L 356.164609 204.517811 
L 356.207727 204.314997 
L 356.4918 202.919399 
L 356.504482 202.923853 
L 356.6034 203.10961 
L 356.902691 204.262677 
L 357.029509 204.073395 
L 357.163936 203.990169 
L 357.191836 204.015196 
L 357.331336 204.352442 
L 357.620482 205.788522 
L 358.716191 211.58321 
L 359.258973 213.16664 
L 359.801755 214.104363 
L 360.400336 214.705584 
L 360.714845 214.899327 
L 360.740209 214.83044 
L 360.940582 213.59819 
L 361.171391 211.568327 
L 361.577209 206.894646 
L 361.977955 205.838485 
L 362.130136 205.731533 
L 362.150427 205.744288 
L 362.1834 205.725305 
L 362.208764 205.654768 
L 362.543564 204.628858 
L 362.594291 204.668124 
L 362.743936 205.03863 
L 362.979818 205.800166 
L 363.053373 205.732274 
L 363.405927 205.114315 
L 363.679855 204.286547 
L 363.783845 204.394549 
L 363.969 205.027699 
L 364.4154 207.582566 
L 365.183918 211.615947 
L 365.632855 213.085825 
L 365.650609 213.051953 
L 365.746991 212.300257 
L 366.000627 208.37903 
L 366.348109 203.270062 
L 366.596673 202.097869 
L 366.677836 202.108668 
L 366.705736 202.149138 
L 366.860455 202.648225 
L 367.020245 203.154614 
L 367.073509 203.10412 
L 367.248518 202.971602 
L 367.278955 203.003712 
L 367.4007 203.2905 
L 367.448891 203.071442 
L 367.829345 199.616553 
L 368.055082 198.569004 
L 368.138782 198.661362 
L 368.2935 199.31943 
L 368.638445 201.996376 
L 369.193909 206.605049 
L 369.2421 206.383451 
L 369.683427 202.916436 
L 369.746836 202.981181 
L 369.901555 203.507399 
L 370.304836 205.73672 
L 370.434191 205.482647 
L 370.6092 205.30932 
L 370.626955 205.32018 
L 370.763918 205.567513 
L 370.791818 205.643399 
L 370.824791 205.436748 
L 371.151982 203.096311 
L 371.162127 203.098916 
L 371.3067 203.287297 
L 371.502 203.530435 
L 371.552727 203.431024 
L 371.666864 202.756974 
L 372.039709 198.907716 
L 372.235009 198.584633 
L 372.3669 198.463571 
L 372.399873 198.491457 
L 372.526691 198.822754 
L 372.8691 200.443347 
L 372.940118 200.005895 
L 373.490509 192.965563 
L 373.581818 191.466333 
L 373.581818 191.466333 
" clip-path="url(#p75b74b982b)" style="fill: none; stroke: #ff0000; stroke-width: 1.5; stroke-linecap: square"/>
   </g>
   <g id="line2d_16">
    <path d="M 81.899894 143.28 
L 84.431164 143.28 
L 84.431164 143.28 
" clip-path="url(#p75b74b982b)" style="fill: none; stroke: #000000; stroke-width: 1.5; stroke-linecap: square"/>
   </g>
   <g id="line2d_17">
    <path d="M 81.899894 165.024 
L 81.899894 160.6752 
L 81.899894 156.3264 
L 81.899894 151.9776 
L 81.899894 147.6288 
" clip-path="url(#p75b74b982b)" style="fill: none; stroke: #000000; stroke-width: 1.5; stroke-linecap: square"/>
   </g>
   <g id="patch_3">
    <path d="M 54 252 
L 54 34.56 
" style="fill: none; stroke: #000000; stroke-width: 0.8; stroke-linejoin: miter; stroke-linecap: square"/>
   </g>
   <g id="patch_4">
    <path d="M 54 252 
L 388.8 252 
" style="fill: none; stroke: #000000; stroke-width: 0.8; stroke-linejoin: miter; stroke-linecap: square"/>
   </g>
   <g id="text_16">
    <!-- 500 ms -->
    <g transform="translate(81.899894 138.9312)scale(0.1 -0.1)">
     <use xlink:href="#DejaVuSans-35"/>
     <use xlink:href="#DejaVuSans-30" x="63.623047"/>
     <use xlink:href="#DejaVuSans-30" x="127.246094"/>
     <use xlink:href="#DejaVuSans-20" x="190.869141"/>
     <use xlink:href="#DejaVuSans-6d" x="222.65625"/>
     <use xlink:href="#DejaVuSans-73" x="320.068359"/>
    </g>
   </g>
   <g id="text_17">
    <!-- 5 mV -->
    <g transform="translate(82.153529 156.3264)scale(0.1 -0.1)">
     <use xlink:href="#DejaVuSans-35"/>
     <use xlink:href="#DejaVuSans-20" x="63.623047"/>
     <use xlink:href="#DejaVuSans-6d" x="95.410156"/>
     <use xlink:href="#DejaVuSans-56" x="192.822266"/>
    </g>
   </g>
  </g>
 </g>
 <defs>
  <clipPath id="p75b74b982b">
   <rect x="54" y="34.56" width="334.8" height="217.44"/>
  </clipPath>
 </defs>
</svg>
