<?xml version="1.0" encoding="utf-8" standalone="no"?>
<!DOCTYPE svg PUBLIC "-//W3C//DTD SVG 1.1//EN"
  "http://www.w3.org/Graphics/SVG/1.1/DTD/svg11.dtd">
<svg xmlns:xlink="http://www.w3.org/1999/xlink" width="460.8pt" height="345.6pt" viewBox="0 0 460.8 345.6" xmlns="http://www.w3.org/2000/svg" version="1.1">
 <metadata>
  <rdf:RDF xmlns:dc="http://purl.org/dc/elements/1.1/" xmlns:cc="http://creativecommons.org/ns#" xmlns:rdf="http://www.w3.org/1999/02/22-rdf-syntax-ns#">
   <cc:Work>
    <dc:type rdf:resource="http://purl.org/dc/dcmitype/StillImage"/>
    <dc:date>2023-02-10T16:40:36.403410</dc:date>
    <dc:format>image/svg+xml</dc:format>
    <dc:creator>
     <cc:Agent>
      <dc:title>Matplotlib v3.6.3, https://matplotlib.org/</dc:title>
     </cc:Agent>
    </dc:creator>
   </cc:Work>
  </rdf:RDF>
 </metadata>
 <defs>
  <style type="text/css">*{stroke-linejoin: round; stroke-linecap: butt}</style>
 </defs>
 <g id="figure_1">
  <g id="patch_1">
   <path d="M 0 345.6 
L 460.8 345.6 
L 460.8 0 
L 0 0 
z
" style="fill: #ffffff"/>
  </g>
  <g id="axes_1">
   <g id="patch_2">
    <path d="M 57.6 307.584 
L 414.72 307.584 
L 414.72 41.472 
L 57.6 41.472 
z
" style="fill: #ffffff"/>
   </g>
   <g id="matplotlib.axis_1">
    <g id="xtick_1">
     <g id="line2d_1">
      <defs>
       <path id="mede826b982" d="M 0 0 
L 0 3.5 
" style="stroke: #000000; stroke-width: 0.8"/>
      </defs>
      <g>
       <use xlink:href="#mede826b982" x="73.832727" y="307.584" style="stroke: #000000; stroke-width: 0.8"/>
      </g>
     </g>
     <g id="text_1">
      <!-- 0 -->
      <g transform="translate(70.651477 322.182437) scale(0.1 -0.1)">
       <defs>
        <path id="DejaVuSans-30" d="M 2034 4250 
Q 1547 4250 1301 3770 
Q 1056 3291 1056 2328 
Q 1056 1369 1301 889 
Q 1547 409 2034 409 
Q 2525 409 2770 889 
Q 3016 1369 3016 2328 
Q 3016 3291 2770 3770 
Q 2525 4250 2034 4250 
z
M 2034 4750 
Q 2819 4750 3233 4129 
Q 3647 3509 3647 2328 
Q 3647 1150 3233 529 
Q 2819 -91 2034 -91 
Q 1250 -91 836 529 
Q 422 1150 422 2328 
Q 422 3509 836 4129 
Q 1250 4750 2034 4750 
z
" transform="scale(0.015625)"/>
       </defs>
       <use xlink:href="#DejaVuSans-30"/>
      </g>
     </g>
    </g>
    <g id="xtick_2">
     <g id="line2d_2">
      <g>
       <use xlink:href="#mede826b982" x="127.941367" y="307.584" style="stroke: #000000; stroke-width: 0.8"/>
      </g>
     </g>
     <g id="text_2">
      <!-- 10000 -->
      <g transform="translate(112.035117 322.182437) scale(0.1 -0.1)">
       <defs>
        <path id="DejaVuSans-31" d="M 794 531 
L 1825 531 
L 1825 4091 
L 703 3866 
L 703 4441 
L 1819 4666 
L 2450 4666 
L 2450 531 
L 3481 531 
L 3481 0 
L 794 0 
L 794 531 
z
" transform="scale(0.015625)"/>
       </defs>
       <use xlink:href="#DejaVuSans-31"/>
       <use xlink:href="#DejaVuSans-30" x="63.623047"/>
       <use xlink:href="#DejaVuSans-30" x="127.246094"/>
       <use xlink:href="#DejaVuSans-30" x="190.869141"/>
       <use xlink:href="#DejaVuSans-30" x="254.492188"/>
      </g>
     </g>
    </g>
    <g id="xtick_3">
     <g id="line2d_3">
      <g>
       <use xlink:href="#mede826b982" x="182.050007" y="307.584" style="stroke: #000000; stroke-width: 0.8"/>
      </g>
     </g>
     <g id="text_3">
      <!-- 20000 -->
      <g transform="translate(166.143757 322.182437) scale(0.1 -0.1)">
       <defs>
        <path id="DejaVuSans-32" d="M 1228 531 
L 3431 531 
L 3431 0 
L 469 0 
L 469 531 
Q 828 903 1448 1529 
Q 2069 2156 2228 2338 
Q 2531 2678 2651 2914 
Q 2772 3150 2772 3378 
Q 2772 3750 2511 3984 
Q 2250 4219 1831 4219 
Q 1534 4219 1204 4116 
Q 875 4013 500 3803 
L 500 4441 
Q 881 4594 1212 4672 
Q 1544 4750 1819 4750 
Q 2544 4750 2975 4387 
Q 3406 4025 3406 3419 
Q 3406 3131 3298 2873 
Q 3191 2616 2906 2266 
Q 2828 2175 2409 1742 
Q 1991 1309 1228 531 
z
" transform="scale(0.015625)"/>
       </defs>
       <use xlink:href="#DejaVuSans-32"/>
       <use xlink:href="#DejaVuSans-30" x="63.623047"/>
       <use xlink:href="#DejaVuSans-30" x="127.246094"/>
       <use xlink:href="#DejaVuSans-30" x="190.869141"/>
       <use xlink:href="#DejaVuSans-30" x="254.492188"/>
      </g>
     </g>
    </g>
    <g id="xtick_4">
     <g id="line2d_4">
      <g>
       <use xlink:href="#mede826b982" x="236.158647" y="307.584" style="stroke: #000000; stroke-width: 0.8"/>
      </g>
     </g>
     <g id="text_4">
      <!-- 30000 -->
      <g transform="translate(220.252397 322.182437) scale(0.1 -0.1)">
       <defs>
        <path id="DejaVuSans-33" d="M 2597 2516 
Q 3050 2419 3304 2112 
Q 3559 1806 3559 1356 
Q 3559 666 3084 287 
Q 2609 -91 1734 -91 
Q 1441 -91 1130 -33 
Q 819 25 488 141 
L 488 750 
Q 750 597 1062 519 
Q 1375 441 1716 441 
Q 2309 441 2620 675 
Q 2931 909 2931 1356 
Q 2931 1769 2642 2001 
Q 2353 2234 1838 2234 
L 1294 2234 
L 1294 2753 
L 1863 2753 
Q 2328 2753 2575 2939 
Q 2822 3125 2822 3475 
Q 2822 3834 2567 4026 
Q 2313 4219 1838 4219 
Q 1578 4219 1281 4162 
Q 984 4106 628 3988 
L 628 4550 
Q 988 4650 1302 4700 
Q 1616 4750 1894 4750 
Q 2613 4750 3031 4423 
Q 3450 4097 3450 3541 
Q 3450 3153 3228 2886 
Q 3006 2619 2597 2516 
z
" transform="scale(0.015625)"/>
       </defs>
       <use xlink:href="#DejaVuSans-33"/>
       <use xlink:href="#DejaVuSans-30" x="63.623047"/>
       <use xlink:href="#DejaVuSans-30" x="127.246094"/>
       <use xlink:href="#DejaVuSans-30" x="190.869141"/>
       <use xlink:href="#DejaVuSans-30" x="254.492188"/>
      </g>
     </g>
    </g>
    <g id="xtick_5">
     <g id="line2d_5">
      <g>
       <use xlink:href="#mede826b982" x="290.267287" y="307.584" style="stroke: #000000; stroke-width: 0.8"/>
      </g>
     </g>
     <g id="text_5">
      <!-- 40000 -->
      <g transform="translate(274.361037 322.182437) scale(0.1 -0.1)">
       <defs>
        <path id="DejaVuSans-34" d="M 2419 4116 
L 825 1625 
L 2419 1625 
L 2419 4116 
z
M 2253 4666 
L 3047 4666 
L 3047 1625 
L 3713 1625 
L 3713 1100 
L 3047 1100 
L 3047 0 
L 2419 0 
L 2419 1100 
L 313 1100 
L 313 1709 
L 2253 4666 
z
" transform="scale(0.015625)"/>
       </defs>
       <use xlink:href="#DejaVuSans-34"/>
       <use xlink:href="#DejaVuSans-30" x="63.623047"/>
       <use xlink:href="#DejaVuSans-30" x="127.246094"/>
       <use xlink:href="#DejaVuSans-30" x="190.869141"/>
       <use xlink:href="#DejaVuSans-30" x="254.492188"/>
      </g>
     </g>
    </g>
    <g id="xtick_6">
     <g id="line2d_6">
      <g>
       <use xlink:href="#mede826b982" x="344.375927" y="307.584" style="stroke: #000000; stroke-width: 0.8"/>
      </g>
     </g>
     <g id="text_6">
      <!-- 50000 -->
      <g transform="translate(328.469677 322.182437) scale(0.1 -0.1)">
       <defs>
        <path id="DejaVuSans-35" d="M 691 4666 
L 3169 4666 
L 3169 4134 
L 1269 4134 
L 1269 2991 
Q 1406 3038 1543 3061 
Q 1681 3084 1819 3084 
Q 2600 3084 3056 2656 
Q 3513 2228 3513 1497 
Q 3513 744 3044 326 
Q 2575 -91 1722 -91 
Q 1428 -91 1123 -41 
Q 819 9 494 109 
L 494 744 
Q 775 591 1075 516 
Q 1375 441 1709 441 
Q 2250 441 2565 725 
Q 2881 1009 2881 1497 
Q 2881 1984 2565 2268 
Q 2250 2553 1709 2553 
Q 1456 2553 1204 2497 
Q 953 2441 691 2322 
L 691 4666 
z
" transform="scale(0.015625)"/>
       </defs>
       <use xlink:href="#DejaVuSans-35"/>
       <use xlink:href="#DejaVuSans-30" x="63.623047"/>
       <use xlink:href="#DejaVuSans-30" x="127.246094"/>
       <use xlink:href="#DejaVuSans-30" x="190.869141"/>
       <use xlink:href="#DejaVuSans-30" x="254.492188"/>
      </g>
     </g>
    </g>
    <g id="xtick_7">
     <g id="line2d_7">
      <g>
       <use xlink:href="#mede826b982" x="398.484567" y="307.584" style="stroke: #000000; stroke-width: 0.8"/>
      </g>
     </g>
     <g id="text_7">
      <!-- 60000 -->
      <g transform="translate(382.578317 322.182437) scale(0.1 -0.1)">
       <defs>
        <path id="DejaVuSans-36" d="M 2113 2584 
Q 1688 2584 1439 2293 
Q 1191 2003 1191 1497 
Q 1191 994 1439 701 
Q 1688 409 2113 409 
Q 2538 409 2786 701 
Q 3034 994 3034 1497 
Q 3034 2003 2786 2293 
Q 2538 2584 2113 2584 
z
M 3366 4563 
L 3366 3988 
Q 3128 4100 2886 4159 
Q 2644 4219 2406 4219 
Q 1781 4219 1451 3797 
Q 1122 3375 1075 2522 
Q 1259 2794 1537 2939 
Q 1816 3084 2150 3084 
Q 2853 3084 3261 2657 
Q 3669 2231 3669 1497 
Q 3669 778 3244 343 
Q 2819 -91 2113 -91 
Q 1303 -91 875 529 
Q 447 1150 447 2328 
Q 447 3434 972 4092 
Q 1497 4750 2381 4750 
Q 2619 4750 2861 4703 
Q 3103 4656 3366 4563 
z
" transform="scale(0.015625)"/>
       </defs>
       <use xlink:href="#DejaVuSans-36"/>
       <use xlink:href="#DejaVuSans-30" x="63.623047"/>
       <use xlink:href="#DejaVuSans-30" x="127.246094"/>
       <use xlink:href="#DejaVuSans-30" x="190.869141"/>
       <use xlink:href="#DejaVuSans-30" x="254.492188"/>
      </g>
     </g>
    </g>
    <g id="text_8">
     <!-- Time(ms) -->
     <g transform="translate(212.549844 335.860562) scale(0.1 -0.1)">
      <defs>
       <path id="DejaVuSans-54" d="M -19 4666 
L 3928 4666 
L 3928 4134 
L 2272 4134 
L 2272 0 
L 1638 0 
L 1638 4134 
L -19 4134 
L -19 4666 
z
" transform="scale(0.015625)"/>
       <path id="DejaVuSans-69" d="M 603 3500 
L 1178 3500 
L 1178 0 
L 603 0 
L 603 3500 
z
M 603 4863 
L 1178 4863 
L 1178 4134 
L 603 4134 
L 603 4863 
z
" transform="scale(0.015625)"/>
       <path id="DejaVuSans-6d" d="M 3328 2828 
Q 3544 3216 3844 3400 
Q 4144 3584 4550 3584 
Q 5097 3584 5394 3201 
Q 5691 2819 5691 2113 
L 5691 0 
L 5113 0 
L 5113 2094 
Q 5113 2597 4934 2840 
Q 4756 3084 4391 3084 
Q 3944 3084 3684 2787 
Q 3425 2491 3425 1978 
L 3425 0 
L 2847 0 
L 2847 2094 
Q 2847 2600 2669 2842 
Q 2491 3084 2119 3084 
Q 1678 3084 1418 2786 
Q 1159 2488 1159 1978 
L 1159 0 
L 581 0 
L 581 3500 
L 1159 3500 
L 1159 2956 
Q 1356 3278 1631 3431 
Q 1906 3584 2284 3584 
Q 2666 3584 2933 3390 
Q 3200 3197 3328 2828 
z
" transform="scale(0.015625)"/>
       <path id="DejaVuSans-65" d="M 3597 1894 
L 3597 1613 
L 953 1613 
Q 991 1019 1311 708 
Q 1631 397 2203 397 
Q 2534 397 2845 478 
Q 3156 559 3463 722 
L 3463 178 
Q 3153 47 2828 -22 
Q 2503 -91 2169 -91 
Q 1331 -91 842 396 
Q 353 884 353 1716 
Q 353 2575 817 3079 
Q 1281 3584 2069 3584 
Q 2775 3584 3186 3129 
Q 3597 2675 3597 1894 
z
M 3022 2063 
Q 3016 2534 2758 2815 
Q 2500 3097 2075 3097 
Q 1594 3097 1305 2825 
Q 1016 2553 972 2059 
L 3022 2063 
z
" transform="scale(0.015625)"/>
       <path id="DejaVuSans-28" d="M 1984 4856 
Q 1566 4138 1362 3434 
Q 1159 2731 1159 2009 
Q 1159 1288 1364 580 
Q 1569 -128 1984 -844 
L 1484 -844 
Q 1016 -109 783 600 
Q 550 1309 550 2009 
Q 550 2706 781 3412 
Q 1013 4119 1484 4856 
L 1984 4856 
z
" transform="scale(0.015625)"/>
       <path id="DejaVuSans-73" d="M 2834 3397 
L 2834 2853 
Q 2591 2978 2328 3040 
Q 2066 3103 1784 3103 
Q 1356 3103 1142 2972 
Q 928 2841 928 2578 
Q 928 2378 1081 2264 
Q 1234 2150 1697 2047 
L 1894 2003 
Q 2506 1872 2764 1633 
Q 3022 1394 3022 966 
Q 3022 478 2636 193 
Q 2250 -91 1575 -91 
Q 1294 -91 989 -36 
Q 684 19 347 128 
L 347 722 
Q 666 556 975 473 
Q 1284 391 1588 391 
Q 1994 391 2212 530 
Q 2431 669 2431 922 
Q 2431 1156 2273 1281 
Q 2116 1406 1581 1522 
L 1381 1569 
Q 847 1681 609 1914 
Q 372 2147 372 2553 
Q 372 3047 722 3315 
Q 1072 3584 1716 3584 
Q 2034 3584 2315 3537 
Q 2597 3491 2834 3397 
z
" transform="scale(0.015625)"/>
       <path id="DejaVuSans-29" d="M 513 4856 
L 1013 4856 
Q 1481 4119 1714 3412 
Q 1947 2706 1947 2009 
Q 1947 1309 1714 600 
Q 1481 -109 1013 -844 
L 513 -844 
Q 928 -128 1133 580 
Q 1338 1288 1338 2009 
Q 1338 2731 1133 3434 
Q 928 4138 513 4856 
z
" transform="scale(0.015625)"/>
      </defs>
      <use xlink:href="#DejaVuSans-54"/>
      <use xlink:href="#DejaVuSans-69" x="57.958984"/>
      <use xlink:href="#DejaVuSans-6d" x="85.742188"/>
      <use xlink:href="#DejaVuSans-65" x="183.154297"/>
      <use xlink:href="#DejaVuSans-28" x="244.677734"/>
      <use xlink:href="#DejaVuSans-6d" x="283.691406"/>
      <use xlink:href="#DejaVuSans-73" x="381.103516"/>
      <use xlink:href="#DejaVuSans-29" x="433.203125"/>
     </g>
    </g>
   </g>
   <g id="matplotlib.axis_2">
    <g id="ytick_1">
     <g id="line2d_8">
      <defs>
       <path id="mae12208ddf" d="M 0 0 
L -3.5 0 
" style="stroke: #000000; stroke-width: 0.8"/>
      </defs>
      <g>
       <use xlink:href="#mae12208ddf" x="57.6" y="307.584" style="stroke: #000000; stroke-width: 0.8"/>
      </g>
     </g>
     <g id="text_9">
      <!-- −100 -->
      <g transform="translate(23.132812 311.383219) scale(0.1 -0.1)">
       <defs>
        <path id="DejaVuSans-2212" d="M 678 2272 
L 4684 2272 
L 4684 1741 
L 678 1741 
L 678 2272 
z
" transform="scale(0.015625)"/>
       </defs>
       <use xlink:href="#DejaVuSans-2212"/>
       <use xlink:href="#DejaVuSans-31" x="83.789062"/>
       <use xlink:href="#DejaVuSans-30" x="147.412109"/>
       <use xlink:href="#DejaVuSans-30" x="211.035156"/>
      </g>
     </g>
    </g>
    <g id="ytick_2">
     <g id="line2d_9">
      <g>
       <use xlink:href="#mae12208ddf" x="57.6" y="269.568" style="stroke: #000000; stroke-width: 0.8"/>
      </g>
     </g>
     <g id="text_10">
      <!-- −80 -->
      <g transform="translate(29.495313 273.367219) scale(0.1 -0.1)">
       <defs>
        <path id="DejaVuSans-38" d="M 2034 2216 
Q 1584 2216 1326 1975 
Q 1069 1734 1069 1313 
Q 1069 891 1326 650 
Q 1584 409 2034 409 
Q 2484 409 2743 651 
Q 3003 894 3003 1313 
Q 3003 1734 2745 1975 
Q 2488 2216 2034 2216 
z
M 1403 2484 
Q 997 2584 770 2862 
Q 544 3141 544 3541 
Q 544 4100 942 4425 
Q 1341 4750 2034 4750 
Q 2731 4750 3128 4425 
Q 3525 4100 3525 3541 
Q 3525 3141 3298 2862 
Q 3072 2584 2669 2484 
Q 3125 2378 3379 2068 
Q 3634 1759 3634 1313 
Q 3634 634 3220 271 
Q 2806 -91 2034 -91 
Q 1263 -91 848 271 
Q 434 634 434 1313 
Q 434 1759 690 2068 
Q 947 2378 1403 2484 
z
M 1172 3481 
Q 1172 3119 1398 2916 
Q 1625 2713 2034 2713 
Q 2441 2713 2670 2916 
Q 2900 3119 2900 3481 
Q 2900 3844 2670 4047 
Q 2441 4250 2034 4250 
Q 1625 4250 1398 4047 
Q 1172 3844 1172 3481 
z
" transform="scale(0.015625)"/>
       </defs>
       <use xlink:href="#DejaVuSans-2212"/>
       <use xlink:href="#DejaVuSans-38" x="83.789062"/>
       <use xlink:href="#DejaVuSans-30" x="147.412109"/>
      </g>
     </g>
    </g>
    <g id="ytick_3">
     <g id="line2d_10">
      <g>
       <use xlink:href="#mae12208ddf" x="57.6" y="231.552" style="stroke: #000000; stroke-width: 0.8"/>
      </g>
     </g>
     <g id="text_11">
      <!-- −60 -->
      <g transform="translate(29.495313 235.351219) scale(0.1 -0.1)">
       <use xlink:href="#DejaVuSans-2212"/>
       <use xlink:href="#DejaVuSans-36" x="83.789062"/>
       <use xlink:href="#DejaVuSans-30" x="147.412109"/>
      </g>
     </g>
    </g>
    <g id="ytick_4">
     <g id="line2d_11">
      <g>
       <use xlink:href="#mae12208ddf" x="57.6" y="193.536" style="stroke: #000000; stroke-width: 0.8"/>
      </g>
     </g>
     <g id="text_12">
      <!-- −40 -->
      <g transform="translate(29.495313 197.335219) scale(0.1 -0.1)">
       <use xlink:href="#DejaVuSans-2212"/>
       <use xlink:href="#DejaVuSans-34" x="83.789062"/>
       <use xlink:href="#DejaVuSans-30" x="147.412109"/>
      </g>
     </g>
    </g>
    <g id="ytick_5">
     <g id="line2d_12">
      <g>
       <use xlink:href="#mae12208ddf" x="57.6" y="155.52" style="stroke: #000000; stroke-width: 0.8"/>
      </g>
     </g>
     <g id="text_13">
      <!-- −20 -->
      <g transform="translate(29.495313 159.319219) scale(0.1 -0.1)">
       <use xlink:href="#DejaVuSans-2212"/>
       <use xlink:href="#DejaVuSans-32" x="83.789062"/>
       <use xlink:href="#DejaVuSans-30" x="147.412109"/>
      </g>
     </g>
    </g>
    <g id="ytick_6">
     <g id="line2d_13">
      <g>
       <use xlink:href="#mae12208ddf" x="57.6" y="117.504" style="stroke: #000000; stroke-width: 0.8"/>
      </g>
     </g>
     <g id="text_14">
      <!-- 0 -->
      <g transform="translate(44.2375 121.303219) scale(0.1 -0.1)">
       <use xlink:href="#DejaVuSans-30"/>
      </g>
     </g>
    </g>
    <g id="ytick_7">
     <g id="line2d_14">
      <g>
       <use xlink:href="#mae12208ddf" x="57.6" y="79.488" style="stroke: #000000; stroke-width: 0.8"/>
      </g>
     </g>
     <g id="text_15">
      <!-- 20 -->
      <g transform="translate(37.875 83.287219) scale(0.1 -0.1)">
       <use xlink:href="#DejaVuSans-32"/>
       <use xlink:href="#DejaVuSans-30" x="63.623047"/>
      </g>
     </g>
    </g>
    <g id="ytick_8">
     <g id="line2d_15">
      <g>
       <use xlink:href="#mae12208ddf" x="57.6" y="41.472" style="stroke: #000000; stroke-width: 0.8"/>
      </g>
     </g>
     <g id="text_16">
      <!-- 40 -->
      <g transform="translate(37.875 45.271219) scale(0.1 -0.1)">
       <use xlink:href="#DejaVuSans-34"/>
       <use xlink:href="#DejaVuSans-30" x="63.623047"/>
      </g>
     </g>
    </g>
    <g id="text_17">
     <!-- Membrane potential (mV) -->
     <g transform="translate(17.053125 238.939719) rotate(-90) scale(0.1 -0.1)">
      <defs>
       <path id="DejaVuSans-4d" d="M 628 4666 
L 1569 4666 
L 2759 1491 
L 3956 4666 
L 4897 4666 
L 4897 0 
L 4281 0 
L 4281 4097 
L 3078 897 
L 2444 897 
L 1241 4097 
L 1241 0 
L 628 0 
L 628 4666 
z
" transform="scale(0.015625)"/>
       <path id="DejaVuSans-62" d="M 3116 1747 
Q 3116 2381 2855 2742 
Q 2594 3103 2138 3103 
Q 1681 3103 1420 2742 
Q 1159 2381 1159 1747 
Q 1159 1113 1420 752 
Q 1681 391 2138 391 
Q 2594 391 2855 752 
Q 3116 1113 3116 1747 
z
M 1159 2969 
Q 1341 3281 1617 3432 
Q 1894 3584 2278 3584 
Q 2916 3584 3314 3078 
Q 3713 2572 3713 1747 
Q 3713 922 3314 415 
Q 2916 -91 2278 -91 
Q 1894 -91 1617 61 
Q 1341 213 1159 525 
L 1159 0 
L 581 0 
L 581 4863 
L 1159 4863 
L 1159 2969 
z
" transform="scale(0.015625)"/>
       <path id="DejaVuSans-72" d="M 2631 2963 
Q 2534 3019 2420 3045 
Q 2306 3072 2169 3072 
Q 1681 3072 1420 2755 
Q 1159 2438 1159 1844 
L 1159 0 
L 581 0 
L 581 3500 
L 1159 3500 
L 1159 2956 
Q 1341 3275 1631 3429 
Q 1922 3584 2338 3584 
Q 2397 3584 2469 3576 
Q 2541 3569 2628 3553 
L 2631 2963 
z
" transform="scale(0.015625)"/>
       <path id="DejaVuSans-61" d="M 2194 1759 
Q 1497 1759 1228 1600 
Q 959 1441 959 1056 
Q 959 750 1161 570 
Q 1363 391 1709 391 
Q 2188 391 2477 730 
Q 2766 1069 2766 1631 
L 2766 1759 
L 2194 1759 
z
M 3341 1997 
L 3341 0 
L 2766 0 
L 2766 531 
Q 2569 213 2275 61 
Q 1981 -91 1556 -91 
Q 1019 -91 701 211 
Q 384 513 384 1019 
Q 384 1609 779 1909 
Q 1175 2209 1959 2209 
L 2766 2209 
L 2766 2266 
Q 2766 2663 2505 2880 
Q 2244 3097 1772 3097 
Q 1472 3097 1187 3025 
Q 903 2953 641 2809 
L 641 3341 
Q 956 3463 1253 3523 
Q 1550 3584 1831 3584 
Q 2591 3584 2966 3190 
Q 3341 2797 3341 1997 
z
" transform="scale(0.015625)"/>
       <path id="DejaVuSans-6e" d="M 3513 2113 
L 3513 0 
L 2938 0 
L 2938 2094 
Q 2938 2591 2744 2837 
Q 2550 3084 2163 3084 
Q 1697 3084 1428 2787 
Q 1159 2491 1159 1978 
L 1159 0 
L 581 0 
L 581 3500 
L 1159 3500 
L 1159 2956 
Q 1366 3272 1645 3428 
Q 1925 3584 2291 3584 
Q 2894 3584 3203 3211 
Q 3513 2838 3513 2113 
z
" transform="scale(0.015625)"/>
       <path id="DejaVuSans-20" transform="scale(0.015625)"/>
       <path id="DejaVuSans-70" d="M 1159 525 
L 1159 -1331 
L 581 -1331 
L 581 3500 
L 1159 3500 
L 1159 2969 
Q 1341 3281 1617 3432 
Q 1894 3584 2278 3584 
Q 2916 3584 3314 3078 
Q 3713 2572 3713 1747 
Q 3713 922 3314 415 
Q 2916 -91 2278 -91 
Q 1894 -91 1617 61 
Q 1341 213 1159 525 
z
M 3116 1747 
Q 3116 2381 2855 2742 
Q 2594 3103 2138 3103 
Q 1681 3103 1420 2742 
Q 1159 2381 1159 1747 
Q 1159 1113 1420 752 
Q 1681 391 2138 391 
Q 2594 391 2855 752 
Q 3116 1113 3116 1747 
z
" transform="scale(0.015625)"/>
       <path id="DejaVuSans-6f" d="M 1959 3097 
Q 1497 3097 1228 2736 
Q 959 2375 959 1747 
Q 959 1119 1226 758 
Q 1494 397 1959 397 
Q 2419 397 2687 759 
Q 2956 1122 2956 1747 
Q 2956 2369 2687 2733 
Q 2419 3097 1959 3097 
z
M 1959 3584 
Q 2709 3584 3137 3096 
Q 3566 2609 3566 1747 
Q 3566 888 3137 398 
Q 2709 -91 1959 -91 
Q 1206 -91 779 398 
Q 353 888 353 1747 
Q 353 2609 779 3096 
Q 1206 3584 1959 3584 
z
" transform="scale(0.015625)"/>
       <path id="DejaVuSans-74" d="M 1172 4494 
L 1172 3500 
L 2356 3500 
L 2356 3053 
L 1172 3053 
L 1172 1153 
Q 1172 725 1289 603 
Q 1406 481 1766 481 
L 2356 481 
L 2356 0 
L 1766 0 
Q 1100 0 847 248 
Q 594 497 594 1153 
L 594 3053 
L 172 3053 
L 172 3500 
L 594 3500 
L 594 4494 
L 1172 4494 
z
" transform="scale(0.015625)"/>
       <path id="DejaVuSans-6c" d="M 603 4863 
L 1178 4863 
L 1178 0 
L 603 0 
L 603 4863 
z
" transform="scale(0.015625)"/>
       <path id="DejaVuSans-56" d="M 1831 0 
L 50 4666 
L 709 4666 
L 2188 738 
L 3669 4666 
L 4325 4666 
L 2547 0 
L 1831 0 
z
" transform="scale(0.015625)"/>
      </defs>
      <use xlink:href="#DejaVuSans-4d"/>
      <use xlink:href="#DejaVuSans-65" x="86.279297"/>
      <use xlink:href="#DejaVuSans-6d" x="147.802734"/>
      <use xlink:href="#DejaVuSans-62" x="245.214844"/>
      <use xlink:href="#DejaVuSans-72" x="308.691406"/>
      <use xlink:href="#DejaVuSans-61" x="349.804688"/>
      <use xlink:href="#DejaVuSans-6e" x="411.083984"/>
      <use xlink:href="#DejaVuSans-65" x="474.462891"/>
      <use xlink:href="#DejaVuSans-20" x="535.986328"/>
      <use xlink:href="#DejaVuSans-70" x="567.773438"/>
      <use xlink:href="#DejaVuSans-6f" x="631.25"/>
      <use xlink:href="#DejaVuSans-74" x="692.431641"/>
      <use xlink:href="#DejaVuSans-65" x="731.640625"/>
      <use xlink:href="#DejaVuSans-6e" x="793.164062"/>
      <use xlink:href="#DejaVuSans-74" x="856.542969"/>
      <use xlink:href="#DejaVuSans-69" x="895.751953"/>
      <use xlink:href="#DejaVuSans-61" x="923.535156"/>
      <use xlink:href="#DejaVuSans-6c" x="984.814453"/>
      <use xlink:href="#DejaVuSans-20" x="1012.597656"/>
      <use xlink:href="#DejaVuSans-28" x="1044.384766"/>
      <use xlink:href="#DejaVuSans-6d" x="1083.398438"/>
      <use xlink:href="#DejaVuSans-56" x="1180.810547"/>
      <use xlink:href="#DejaVuSans-29" x="1249.21875"/>
     </g>
    </g>
   </g>
   <g id="line2d_16">
    <path d="M 73.832727 280.9728 
L 74.062691 285.267927 
L 74.279127 286.541648 
L 74.601076 286.916991 
L 74.630836 286.887271 
L 74.744465 286.552486 
L 75.174633 283.689943 
L 75.699491 279.527595 
L 75.794182 279.476641 
L 75.832058 279.515198 
L 76.116131 280.119892 
L 76.346095 280.853071 
L 77.514851 285.43073 
L 77.758342 285.49346 
L 77.972073 285.90182 
L 78.667375 287.413435 
L 79.560175 288.170609 
L 79.80096 288.149243 
L 79.963287 288.11738 
L 80.060684 287.908523 
L 80.582836 284.798923 
L 81.077935 281.125047 
L 81.191564 281.200728 
L 81.610909 281.74592 
L 82.084364 283.671334 
L 82.21152 283.508831 
L 82.511825 283.108744 
L 82.622749 283.010513 
L 82.795898 282.93273 
L 82.809425 282.943903 
L 82.906822 283.017713 
L 82.952815 282.927071 
L 83.123258 282.132682 
L 83.385687 281.373687 
L 83.504727 281.436895 
L 83.683287 281.900013 
L 84.094516 282.958997 
L 84.17568 283.073354 
L 84.202735 282.942567 
L 84.432698 279.556027 
L 84.773585 276.859024 
L 85.084713 276.042075 
L 85.320087 275.577824 
L 85.341731 275.590006 
L 85.460771 275.829795 
L 86.277818 278.374073 
L 86.331927 278.223866 
L 86.532131 277.63185 
L 86.570007 277.664402 
L 86.916305 278.096256 
L 86.937949 278.01266 
L 87.822633 272.483938 
L 88.001193 272.288443 
L 88.030953 272.31393 
L 88.160815 272.646722 
L 88.404305 274.028763 
L 89.1456 278.518952 
L 89.508131 279.586663 
L 89.570356 279.451743 
L 89.83008 278.976653 
L 89.838196 278.97986 
L 89.959942 279.15956 
L 90.649833 280.466831 
L 90.709353 280.369952 
L 91.093527 278.945775 
L 91.166575 279.016074 
L 91.250444 279.152528 
L 91.299142 279.026103 
L 91.49664 278.466895 
L 91.539927 278.498981 
L 91.680611 278.452035 
L 91.980916 278.295338 
L 92.124305 278.378717 
L 92.205469 278.462991 
L 92.267695 278.398036 
L 92.516596 277.97377 
L 92.765498 276.052053 
L 93.617716 267.43116 
L 94.020829 265.446191 
L 94.126342 265.632136 
L 94.315724 266.599086 
L 94.88928 269.872779 
L 94.908218 269.859928 
L 95.029964 269.522204 
L 95.408727 268.767674 
L 95.552116 268.905394 
L 95.673862 269.005112 
L 95.719855 268.92858 
L 95.833484 268.376555 
L 96.066153 265.746858 
L 96.274473 264.557167 
L 96.46656 264.585389 
L 96.582895 264.874266 
L 97.229498 267.825514 
L 97.429702 268.395438 
L 97.646138 268.71509 
L 97.708364 268.839439 
L 97.754356 268.69991 
L 98.065484 268.018538 
L 98.160175 268.062002 
L 98.170996 268.080179 
L 98.238633 268.153861 
L 98.292742 268.081021 
L 98.465891 267.890008 
L 98.501062 267.922026 
L 98.568698 268.000181 
L 98.614691 267.89152 
L 98.852771 267.156985 
L 98.912291 267.229126 
L 99.123316 267.84992 
L 99.466909 269.8215 
L 99.878138 272.550601 
L 100.879156 280.454814 
L 100.938676 280.320658 
L 101.203811 279.391197 
L 101.506822 277.928323 
L 101.73408 277.590601 
L 101.744902 277.59573 
L 101.928873 277.576473 
L 102.080378 277.655901 
L 102.315753 277.960637 
L 102.386095 277.896812 
L 102.580887 277.569127 
L 102.762153 277.361366 
L 102.781091 277.370732 
L 102.867665 277.286375 
L 102.970473 276.939795 
L 103.287011 275.603756 
L 103.392524 275.676216 
L 103.560262 276.196429 
L 103.78752 277.017426 
L 103.852451 276.965835 
L 104.006662 276.942399 
L 104.017484 276.954207 
L 104.44224 277.566114 
L 104.50176 277.367092 
L 104.704669 275.661661 
L 105.221411 271.477178 
L 105.581236 270.427072 
L 105.732742 270.304289 
L 105.762502 270.327054 
L 106.16832 270.595509 
L 106.192669 270.555245 
L 106.357702 269.943846 
L 106.625542 269.223151 
L 106.666124 269.057944 
L 107.266735 264.139305 
L 107.347898 264.283267 
L 107.515636 265.211192 
L 107.886284 267.124949 
L 108.064844 267.329213 
L 108.273164 267.538215 
L 108.635695 268.168033 
L 108.779084 268.560432 
L 109.019869 269.367576 
L 109.082095 269.338348 
L 109.155142 269.189596 
L 109.850444 265.331471 
L 110.023593 264.674121 
L 110.272495 263.932131 
L 110.407767 263.918583 
L 110.424 263.937814 
L 110.561978 264.313587 
L 110.805469 265.773784 
L 111.514298 270.325249 
L 111.798371 271.411705 
L 111.982342 271.959177 
L 112.006691 271.950744 
L 112.169018 271.992987 
L 112.320524 272.448628 
L 112.607302 274.180617 
L 112.823738 274.925845 
L 113.286371 275.899101 
L 113.494691 276.096533 
L 113.892393 276.742157 
L 114.030371 276.918807 
L 114.241396 277.659292 
L 114.682385 280.222029 
L 115.258647 283.218196 
L 115.337105 283.126267 
L 115.480495 282.460191 
L 115.688815 280.53776 
L 116.186618 276.22119 
L 116.592436 274.312563 
L 116.689833 274.338474 
L 116.706065 274.361746 
L 116.865687 274.826754 
L 117.168698 276.458967 
L 117.263389 275.990235 
L 117.368902 275.766031 
L 117.414895 275.819197 
L 117.487942 275.922196 
L 117.542051 275.830425 
L 117.815302 274.816148 
L 118.045265 273.877043 
L 118.3104 273.691827 
L 118.345571 273.740741 
L 118.502487 274.239749 
L 118.813615 276.147453 
L 118.997585 277.345841 
L 119.030051 276.931226 
L 119.241076 275.360377 
L 119.533265 274.690866 
L 119.660422 274.60574 
L 120.15552 273.066371 
L 120.582982 270.006543 
L 120.748015 269.597493 
L 120.772364 269.610178 
L 120.877876 269.850158 
L 121.234996 271.541398 
L 121.621876 272.831516 
L 121.846429 273.792918 
L 122.211665 275.234177 
L 122.336116 275.204728 
L 122.338822 275.201715 
L 122.422691 274.933191 
L 122.563375 273.596153 
L 123.04224 268.631768 
L 123.331724 267.682021 
L 123.512989 267.457083 
L 123.5184 267.458882 
L 123.6672 267.628971 
L 123.848465 268.296013 
L 124.170415 270.516414 
L 124.443665 271.859024 
L 124.830545 273.11975 
L 125.141673 273.924608 
L 125.358109 274.674376 
L 125.496087 275.133743 
L 125.555607 275.074056 
L 125.755811 274.909728 
L 125.78016 274.931092 
L 125.920844 275.25494 
L 126.180567 276.541868 
L 126.797411 279.805761 
L 126.802822 279.738103 
L 127.11936 275.5941 
L 127.192407 275.373835 
L 127.368262 274.82353 
L 127.414255 274.837052 
L 127.830895 275.003866 
L 128.093324 275.342975 
L 128.247535 275.468155 
L 128.4288 276.025551 
L 128.804858 278.125974 
L 128.96448 278.809777 
L 129.002356 278.550243 
L 129.329716 276.259888 
L 129.492044 276.157038 
L 129.659782 276.261991 
L 129.905978 276.611471 
L 129.960087 276.552394 
L 130.344262 276.1911 
L 130.471418 276.400633 
L 130.741964 277.377925 
L 130.833949 277.063514 
L 131.150487 275.903387 
L 131.369629 275.719716 
L 131.412916 275.778556 
L 131.875549 276.393417 
L 131.921542 276.283687 
L 132.113629 274.710221 
L 132.665542 271.250699 
L 132.92256 270.444704 
L 133.044305 269.246256 
L 133.304029 267.22571 
L 133.450124 266.869161 
L 133.485295 266.89685 
L 133.598924 267.2487 
L 133.837004 268.887937 
L 134.391622 272.70679 
L 134.553949 272.877256 
L 134.76768 272.890028 
L 134.892131 272.963544 
L 135.257367 273.781283 
L 135.552262 275.669402 
L 135.925615 277.668077 
L 136.171811 278.064907 
L 136.204276 277.991307 
L 136.350371 277.038447 
L 136.680436 275.071906 
L 136.758895 275.065621 
L 136.794065 275.111746 
L 136.869818 275.190327 
L 136.921222 275.119578 
L 137.040262 274.637735 
L 137.562415 272.371128 
L 137.768029 272.008911 
L 138.298298 271.724559 
L 138.406516 271.802135 
L 138.560727 272.32607 
L 139.145105 274.595031 
L 139.212742 274.68811 
L 139.264145 274.601277 
L 139.399418 273.908589 
L 139.540102 271.475893 
L 139.872873 267.505264 
L 140.054138 267.178996 
L 140.170473 266.621399 
L 140.508655 265.054164 
L 140.627695 264.939861 
L 140.665571 264.977002 
L 140.792727 265.371857 
L 141.04704 267.074666 
L 141.31488 268.246042 
L 141.3744 268.355775 
L 141.423098 268.234554 
L 141.542138 267.224574 
L 141.85056 264.825994 
L 141.912785 264.795626 
L 141.958778 264.857321 
L 142.099462 265.405676 
L 142.391651 267.643248 
L 143.068015 272.858128 
L 143.625338 274.561809 
L 143.736262 274.712921 
L 143.776844 274.56997 
L 144.58848 270.631543 
L 144.612829 270.646401 
L 144.969949 271.16045 
L 145.056524 270.975109 
L 145.18368 270.831116 
L 145.221556 270.864422 
L 145.351418 271.224869 
L 145.611142 272.756841 
L 145.857338 273.706589 
L 146.117062 273.842856 
L 146.306444 274.525156 
L 146.55264 275.47777 
L 146.595927 275.402351 
L 146.823185 274.978149 
L 146.855651 275.001872 
L 146.985513 275.309033 
L 147.35616 276.494037 
L 147.412975 276.42092 
L 147.856669 275.329318 
L 148.227316 273.407692 
L 148.327418 273.49395 
L 148.495156 274.065199 
L 148.884742 275.358967 
L 148.974022 275.421723 
L 148.99296 275.30667 
L 149.268916 273.326947 
L 149.309498 273.365874 
L 149.431244 273.811784 
L 149.731549 275.977618 
L 150.894895 284.776012 
L 150.954415 284.85558 
L 151.005818 284.770672 
L 151.525265 283.051596 
L 152.152931 279.279338 
L 152.250327 278.666071 
L 152.607447 274.569761 
L 152.715665 274.424439 
L 152.756247 274.45929 
L 153.594938 275.780196 
L 153.638225 275.820313 
L 153.697745 275.744735 
L 153.841135 275.232967 
L 154.11168 274.618869 
L 154.222604 274.638819 
L 154.236131 274.657043 
L 154.593251 274.992559 
L 154.663593 274.960905 
L 154.679825 274.905529 
L 154.793455 273.964861 
L 155.564509 265.913384 
L 155.967622 262.855957 
L 156.167825 262.33 
L 156.197585 262.351942 
L 156.281455 262.476939 
L 156.330153 262.34423 
L 156.460015 262.018522 
L 156.508713 262.087188 
L 156.635869 262.714888 
L 156.944291 265.648861 
L 157.35552 268.978262 
L 157.715345 270.241833 
L 157.777571 270.105792 
L 157.994007 269.727113 
L 158.004829 269.731462 
L 158.110342 269.91179 
L 158.302429 270.809674 
L 158.697425 273.971227 
L 159.325091 278.67319 
L 159.763375 279.669373 
L 159.79584 279.646868 
L 159.901353 279.352252 
L 160.177309 278.736842 
L 160.288233 278.642063 
L 160.434327 277.256822 
L 160.783331 274.971719 
L 161.129629 274.031123 
L 161.245964 273.961222 
L 161.278429 273.990069 
L 161.448873 274.282693 
L 161.497571 274.087903 
L 161.692364 272.140788 
L 161.946676 270.621502 
L 162.130647 270.424764 
L 162.154996 270.442532 
L 162.309207 270.753649 
L 162.409309 270.80252 
L 162.449891 270.770093 
L 162.601396 270.752738 
L 162.614924 270.769789 
L 162.755607 271.155518 
L 163.018036 272.675525 
L 163.583476 276.004532 
L 163.591593 276.002376 
L 163.645702 275.854512 
L 164.189498 273.843569 
L 164.303127 273.822383 
L 164.327476 273.847805 
L 164.49792 273.985504 
L 164.541207 273.936568 
L 164.757644 273.469063 
L 164.892916 273.352767 
L 164.922676 273.376183 
L 165.055244 273.684999 
L 165.306851 274.967343 
L 165.48 275.974471 
L 165.542225 275.765583 
L 166.121193 272.080206 
L 166.202356 272.128772 
L 166.46208 272.071052 
L 166.586531 272.138409 
L 166.740742 272.606119 
L 167.02752 274.351498 
L 167.243956 275.18246 
L 167.249367 275.181302 
L 167.335942 275.033549 
L 167.465804 274.437306 
L 167.730938 273.529188 
L 167.812102 273.422904 
L 168.09888 271.744348 
L 168.190865 271.825703 
L 168.456 272.339739 
L 168.534458 272.28677 
L 168.713018 272.04708 
L 168.915927 270.971137 
L 169.275753 266.944124 
L 169.892596 262.429577 
L 169.979171 262.53433 
L 170.138793 263.211676 
L 170.647418 266.382442 
L 170.750225 266.148035 
L 170.909847 264.854643 
L 171.656553 255.430592 
L 171.78912 255.127892 
L 171.826996 255.15918 
L 172.062371 255.573874 
L 172.276102 256.938994 
L 172.514182 257.883392 
L 172.687331 258.303618 
L 172.909178 259.635238 
L 174.22944 269.117828 
L 174.375535 269.759509 
L 174.43776 269.551946 
L 174.713716 267.585423 
L 175.016727 264.523292 
L 175.222342 262.485319 
L 175.53888 258.600628 
L 175.728262 258.290016 
L 175.890589 258.318017 
L 175.893295 258.323224 
L 176.201716 258.803398 
L 176.242298 258.77649 
L 176.412742 258.786738 
L 176.629178 258.878087 
L 176.642705 258.862536 
L 176.737396 258.550707 
L 177.527389 254.385011 
L 177.538211 254.387472 
L 177.65184 254.310127 
L 177.787113 254.251035 
L 177.819578 254.2777 
L 178.025193 254.243316 
L 178.279505 253.923555 
L 178.385018 253.913289 
L 178.409367 253.944748 
L 178.54464 254.368418 
L 178.793542 256.050853 
L 179.491549 261.056826 
L 179.602473 261.304109 
L 179.802676 262.082982 
L 179.900073 261.971398 
L 180.043462 261.977858 
L 180.0624 261.969861 
L 180.100276 261.887913 
L 180.47904 261.341125 
L 180.489862 261.347772 
L 180.59808 261.574248 
L 181.304204 264.371321 
L 181.999505 269.223236 
L 182.297105 270.929672 
L 182.302516 270.927417 
L 182.38368 270.736583 
L 182.513542 269.617124 
L 182.911244 266.566251 
L 183.290007 264.468588 
L 183.349527 264.529267 
L 183.768873 264.991284 
L 183.914967 265.134966 
L 184.46688 266.608577 
L 184.680611 267.079689 
L 184.732015 267.085018 
L 184.76448 267.010798 
L 185.208175 265.273047 
L 185.432727 264.690704 
L 185.435433 264.691368 
L 185.74656 264.75051 
L 185.762793 264.684084 
L 185.849367 263.676865 
L 186.276829 257.606807 
L 186.558196 256.823759 
L 186.63936 256.84455 
L 186.661004 256.87841 
L 186.774633 257.180722 
L 186.812509 256.934428 
L 187.17504 254.305929 
L 187.248087 254.255148 
L 187.304902 254.297496 
L 187.683665 254.547129 
L 188.487185 256.751064 
L 188.498007 256.742537 
L 188.576465 256.453518 
L 188.947113 254.804082 
L 188.987695 254.833491 
L 189.204131 255.144162 
L 189.274473 255.033467 
L 189.425978 254.888933 
L 189.458444 254.916701 
L 189.642415 255.322114 
L 189.810153 255.371876 
L 190.010356 255.494019 
L 190.06176 255.506275 
L 190.094225 255.425368 
L 190.294429 254.173299 
L 190.743535 252.055236 
L 190.80576 252.125295 
L 190.995142 252.761812 
L 191.809484 256.26053 
L 191.896058 256.114525 
L 191.982633 256.076956 
L 192.028625 256.107591 
L 192.136844 256.116211 
L 192.161193 256.071104 
L 192.247767 255.53651 
L 192.553484 253.817877 
L 192.637353 253.923825 
L 192.796975 254.642555 
L 193.313716 257.708584 
L 193.375942 257.523852 
L 194.761135 250.560985 
L 194.909935 250.451292 
L 195.459142 247.861943 
L 195.497018 247.89372 
L 195.594415 248.063181 
L 195.648524 247.934031 
L 195.854138 246.698421 
L 196.149033 242.809643 
L 196.627898 236.297131 
L 196.752349 235.979434 
L 196.790225 236.015891 
L 196.90656 236.44072 
L 197.23392 238.850574 
L 197.59104 241.640933 
L 197.791244 242.496358 
L 197.875113 242.412381 
L 198.094255 242.162606 
L 198.113193 242.174375 
L 198.307985 242.349885 
L 198.359389 242.231074 
L 198.535244 241.309649 
L 198.938356 239.114505 
L 199.057396 238.338383 
L 199.309004 237.008054 
L 199.547084 236.471823 
L 199.863622 235.242921 
L 199.969135 234.156004 
L 200.56704 227.525962 
L 200.631971 227.484585 
L 200.677964 227.545993 
L 200.699607 227.561986 
L 200.756422 227.465932 
L 200.951215 227.311304 
L 201.045905 227.33322 
L 201.075665 227.263613 
L 201.192 226.545559 
L 202.117265 217.629389 
L 202.363462 208.62389 
L 202.485207 195.788385 
L 202.5312 160.644657 
L 202.56096 96.079264 
L 202.631302 191.194094 
L 202.826095 247.176256 
L 202.920785 248.593443 
L 202.966778 248.496241 
L 203.131811 247.442993 
L 203.518691 245.053934 
L 203.613382 244.995208 
L 203.653964 245.035894 
L 203.889338 245.336238 
L 203.92992 245.256926 
L 204.241047 244.68529 
L 204.533236 243.941178 
L 204.847069 242.817408 
L 204.88224 242.844848 
L 204.998575 243.1863 
L 205.098676 243.613457 
L 205.141964 243.342303 
L 205.423331 241.717321 
L 205.547782 241.743535 
L 205.591069 241.710192 
L 205.610007 241.653095 
L 205.823738 241.029664 
L 205.877847 241.100838 
L 206.010415 241.701146 
L 206.467636 245.40571 
L 207.043898 251.40825 
L 207.11424 251.288157 
L 207.533585 250.277107 
L 207.574167 250.301122 
L 207.687796 250.575923 
L 207.971869 251.219284 
L 208.047622 251.338874 
L 208.112553 251.249624 
L 208.264058 251.216739 
L 208.396625 251.150249 
L 208.518371 251.087463 
L 208.550836 251.124308 
L 208.710458 251.57773 
L 208.953949 252.945682 
L 209.419287 256.864232 
L 209.522095 256.372459 
L 210.084829 253.118446 
L 210.160582 252.990027 
L 210.574516 251.243272 
L 210.615098 251.270824 
L 210.831535 251.494201 
L 210.874822 251.418675 
L 211.134545 250.480576 
L 211.326633 250.166011 
L 211.407796 249.864942 
L 212.119331 245.653709 
L 212.200495 245.766083 
L 212.416931 246.619865 
L 212.719942 248.429457 
L 212.995898 250.001889 
L 213.022953 249.946766 
L 213.123055 248.989762 
L 213.374662 247.41772 
L 213.9888 243.830773 
L 214.37568 241.561626 
L 214.535302 239.914779 
L 214.897833 235.922487 
L 214.987113 235.807731 
L 215.035811 235.860841 
L 215.252247 236.49694 
L 215.441629 236.77353 
L 215.585018 236.675838 
L 215.693236 236.284568 
L 216.169396 233.972583 
L 216.19104 233.98188 
L 216.372305 234.239231 
L 216.540044 234.376786 
L 216.558982 234.366769 
L 216.721309 234.154887 
L 217.327331 232.404155 
L 217.960407 228.226627 
L 218.306705 227.349021 
L 218.444684 225.713795 
L 218.680058 220.525632 
L 218.904611 209.913493 
L 219.002007 194.177213 
L 219.037178 136.282041 
L 219.061527 85.375145 
L 219.134575 191.648943 
L 219.323956 253.353435 
L 219.380771 254.325791 
L 219.445702 253.874225 
L 219.656727 250.0986 
L 219.981382 245.29937 
L 220.384495 239.634721 
L 220.765964 235.459232 
L 220.909353 235.096288 
L 220.944524 235.105605 
L 221.090618 235.019441 
L 221.242124 234.785388 
L 221.434211 234.599233 
L 221.623593 234.654212 
L 221.764276 235.118341 
L 222.197149 236.907368 
L 222.229615 236.852852 
L 222.397353 235.989472 
L 223.18464 231.151479 
L 223.42272 230.742392 
L 223.649978 230.478685 
L 224.410211 225.404643 
L 224.767331 222.458029 
L 225.097396 217.941667 
L 225.514036 206.980171 
L 225.662836 196.347608 
L 225.725062 173.715485 
L 225.765644 100.712818 
L 225.825164 183.314054 
L 226.001018 239.784724 
L 226.16064 244.175642 
L 226.1904 244.19441 
L 226.239098 244.095772 
L 226.463651 243.006181 
L 226.81536 239.381587 
L 227.123782 236.553982 
L 227.794735 234.479683 
L 228.151855 232.102776 
L 228.473804 230.09711 
L 228.568495 229.656661 
L 228.768698 228.860094 
L 228.795753 228.880022 
L 228.89856 229.197684 
L 229.120407 230.785213 
L 229.675025 234.620215 
L 229.877935 234.865033 
L 229.929338 234.792762 
L 230.105193 234.594483 
L 230.140364 234.627827 
L 230.26752 234.996439 
L 230.5056 236.546018 
L 230.811316 237.978695 
L 230.924945 238.252932 
L 230.976349 238.178272 
L 231.087273 237.549614 
L 231.460625 235.541514 
L 231.625658 234.372577 
L 231.896204 233.155435 
L 231.977367 233.174851 
L 232.001716 233.212758 
L 232.153222 233.732104 
L 232.20192 233.94713 
L 232.253324 233.66876 
L 232.483287 232.786557 
L 232.491404 232.788531 
L 232.580684 232.943543 
L 232.756538 233.829437 
L 233.092015 236.46055 
L 233.159651 235.867651 
L 233.430196 233.872155 
L 233.508655 233.915335 
L 233.524887 233.94002 
L 233.814371 234.209423 
L 234.049745 233.981386 
L 234.185018 233.516042 
L 234.590836 231.345459 
L 234.958778 228.585249 
L 235.288844 225.93748 
L 235.459287 224.045172 
L 235.946269 219.126801 
L 236.376436 216.295165 
L 237.028451 209.238792 
L 237.215127 203.969167 
L 237.342284 193.121246 
L 237.399098 166.81254 
L 237.434269 104.88645 
L 237.496495 181.850199 
L 237.675055 233.079185 
L 237.859025 238.969009 
L 238.27296 243.824317 
L 238.703127 247.12327 
L 239.363258 250.286144 
L 239.706851 252.059562 
L 240.437324 254.765237 
L 240.53472 254.424528 
L 240.721396 253.903399 
L 240.748451 253.920353 
L 240.851258 254.2035 
L 241.143447 254.990878 
L 241.265193 255.210549 
L 241.378822 255.604478 
L 241.438342 255.410798 
L 242.05248 252.722753 
L 242.122822 252.829103 
L 242.271622 253.575943 
L 242.653091 256.064828 
L 242.723433 255.982236 
L 242.864116 255.86097 
L 242.899287 255.897583 
L 243.023738 256.293278 
L 243.250996 257.93693 
L 243.884073 262.792082 
L 244.0464 262.892325 
L 244.170851 263.185066 
L 244.376465 264.390714 
L 244.779578 268.378335 
L 245.225978 272.164817 
L 245.315258 272.085181 
L 245.461353 272.001697 
L 245.488407 272.027797 
L 245.648029 272.259083 
L 245.726487 272.155923 
L 245.907753 272.092005 
L 245.999738 272.185904 
L 246.432611 273.409531 
L 247.14144 276.901192 
L 247.195549 276.941649 
L 247.246953 276.871792 
L 247.357876 276.382366 
L 248.039651 272.998711 
L 248.296669 272.92763 
L 248.372422 272.977251 
L 248.402182 272.884286 
L 248.705193 270.805348 
L 249.081251 268.902635 
L 249.097484 268.908282 
L 249.200291 269.100934 
L 249.4032 270.081189 
L 249.852305 273.15778 
L 249.941585 272.792665 
L 250.634182 268.401164 
L 250.704524 268.478264 
L 250.858735 269.034573 
L 251.502633 272.846944 
L 251.870575 274.749493 
L 251.96256 274.949183 
L 252.011258 274.837795 
L 252.522589 272.474391 
L 252.671389 271.932615 
L 252.701149 271.953505 
L 252.852655 272.338799 
L 253.345047 274.204243 
L 254.494865 278.049394 
L 254.538153 277.997311 
L 254.778938 277.698425 
L 254.808698 277.721113 
L 255.306502 278.385955 
L 255.56352 279.272528 
L 256.112727 282.185147 
L 256.534778 284.270651 
L 256.580771 284.198801 
L 256.716044 283.499172 
L 257.208436 279.685888 
L 257.389702 279.238913 
L 258.872291 269.399047 
L 259.234822 266.849838 
L 259.605469 265.737109 
L 259.646051 265.770942 
L 259.773207 266.131382 
L 260.365702 268.396887 
L 260.406284 268.321978 
L 260.80128 267.022377 
L 260.89056 267.149715 
L 261.315316 268.53552 
L 261.875345 270.660557 
L 261.888873 270.648076 
L 261.994385 270.262382 
L 262.419142 268.400263 
L 262.611229 267.934127 
L 262.630167 267.942425 
L 262.722153 268.012397 
L 262.776262 267.912872 
L 262.889891 267.827951 
L 262.927767 267.867458 
L 263.436393 268.851211 
L 263.961251 270.82548 
L 264.077585 271.129125 
L 264.118167 270.957652 
L 264.234502 269.028909 
L 264.588916 263.769039 
L 265.05696 261.116561 
L 265.059665 261.116947 
L 265.211171 261.042127 
L 265.395142 260.775211 
L 265.435724 260.815468 
L 265.56288 261.213535 
L 266.650473 265.816474 
L 266.664 265.810533 
L 266.888553 265.527516 
L 267.05088 265.086515 
L 267.573033 260.008542 
L 267.67584 259.949404 
L 267.713716 259.998814 
L 267.843578 260.488432 
L 268.149295 262.810921 
L 268.490182 264.122898 
L 268.690385 264.392509 
L 268.749905 264.430847 
L 268.804015 264.371854 
L 268.920349 264.318967 
L 268.952815 264.356078 
L 269.334284 264.738577 
L 269.3424 264.727847 
L 269.415447 264.28886 
L 269.534487 262.313421 
L 269.84832 258.237262 
L 269.989004 257.794482 
L 270.021469 257.823129 
L 270.129687 258.200572 
L 270.362356 260.015559 
L 270.876393 263.9452 
L 271.133411 264.851615 
L 271.268684 264.993477 
L 271.433716 265.700109 
L 271.758371 266.973973 
L 272.277818 267.492147 
L 272.461789 267.516667 
L 272.667404 267.912208 
L 272.759389 267.797424 
L 272.875724 267.542474 
L 273.059695 267.107389 
L 273.084044 267.122694 
L 273.192262 267.388032 
L 273.408698 268.657415 
L 274.333964 274.786485 
L 274.734371 275.723073 
L 274.864233 275.602923 
L 275.004916 275.638339 
L 275.194298 275.989289 
L 275.261935 275.806057 
L 275.583884 274.913431 
L 275.594705 274.917229 
L 275.727273 275.102524 
L 275.819258 275.186728 
L 275.867956 275.12879 
L 275.992407 274.727295 
L 276.436102 272.593938 
L 276.639011 272.692619 
L 276.809455 273.167327 
L 277.066473 274.258443 
L 277.153047 274.08139 
L 277.337018 273.817206 
L 277.361367 273.833078 
L 277.485818 274.096576 
L 277.723898 275.242967 
L 277.945745 276.342086 
L 278.00256 276.263094 
L 278.170298 275.623368 
L 278.800669 271.229349 
L 278.881833 271.323181 
L 279.082036 271.55985 
L 279.10368 271.538802 
L 279.19296 271.190485 
L 279.514909 269.994662 
L 279.517615 269.995226 
L 279.696175 270.160026 
L 279.831447 270.35 
L 280.023535 271.142103 
L 280.369833 272.935912 
L 280.415825 272.704393 
L 280.599796 271.923048 
L 280.629556 271.945636 
L 280.735069 272.289664 
L 280.997498 273.392556 
L 281.057018 273.321794 
L 281.362735 272.499079 
L 281.660335 272.003396 
L 281.868655 271.641481 
L 282.039098 271.439389 
L 282.066153 271.454098 
L 282.409745 271.79018 
L 282.439505 271.869319 
L 282.482793 271.681207 
L 283.064465 268.663562 
L 283.172684 268.217287 
L 283.500044 266.789398 
L 283.673193 266.842272 
L 283.819287 267.337061 
L 284.095244 269.239098 
L 284.944756 275.459555 
L 285.364102 278.449553 
L 285.853789 281.446286 
L 286.154095 282.883372 
L 286.208204 282.593566 
L 287.455418 271.086346 
L 287.512233 271.134288 
L 287.652916 271.562533 
L 287.939695 273.307893 
L 288.729687 278.321377 
L 288.837905 278.197025 
L 288.975884 277.416774 
L 289.173382 275.172324 
L 289.957964 266.100318 
L 289.979607 266.112917 
L 290.074298 266.381303 
L 290.288029 267.836621 
L 291.113193 274.41412 
L 291.159185 274.398431 
L 291.256582 274.23322 
L 291.524422 273.802097 
L 291.535244 273.807376 
L 291.805789 274.10657 
L 292.271127 275.311008 
L 292.314415 275.132703 
L 293.03136 269.811722 
L 293.293789 268.106035 
L 293.353309 268.103554 
L 293.391185 268.161951 
L 293.515636 268.407257 
L 293.575156 268.295958 
L 293.780771 268.006507 
L 293.794298 268.012443 
L 294.005324 268.15546 
L 294.040495 268.02741 
L 294.327273 267.199003 
L 294.516655 267.173071 
L 294.524771 267.184151 
L 294.665455 267.586638 
L 295.201135 270.350271 
L 295.487913 271.503459 
L 295.647535 271.658354 
L 295.891025 271.817798 
L 296.018182 271.894388 
L 296.180509 272.370165 
L 296.626909 273.771401 
L 296.783825 273.906232 
L 297.127418 274.791951 
L 297.481833 275.860278 
L 297.552175 275.511967 
L 298.242065 270.869264 
L 298.523433 269.822088 
L 298.618124 269.9306 
L 298.785862 270.592546 
L 299.124044 273.022859 
L 299.454109 274.873242 
L 299.657018 275.769031 
L 299.724655 275.5826 
L 300.003316 273.829031 
L 300.26304 271.356788 
L 300.336087 271.284213 
L 300.384785 271.346223 
L 300.528175 271.904242 
L 301.00704 275.124324 
L 301.147724 275.745526 
L 301.196422 275.624599 
L 301.648233 273.553346 
L 302.094633 271.084769 
L 302.321891 270.369027 
L 302.549149 270.070303 
L 302.605964 270.146403 
L 302.765585 270.7141 
L 303.076713 272.828849 
L 303.355375 274.189943 
L 303.588044 274.920191 
L 304.258996 277.436734 
L 304.413207 277.880107 
L 304.472727 277.719168 
L 304.72704 275.992479 
L 305.484567 268.782786 
L 305.825455 267.521039 
L 305.88768 267.544359 
L 305.97696 267.383677 
L 306.139287 267.171225 
L 306.171753 267.196016 
L 306.296204 267.511694 
L 306.480175 268.058955 
L 306.523462 267.948358 
L 307.243113 265.569575 
L 307.270167 265.587103 
L 307.427084 265.579961 
L 307.592116 265.565035 
L 307.919476 265.621137 
L 308.016873 265.184618 
L 308.225193 263.463704 
L 308.474095 261.622785 
L 308.709469 260.973138 
L 308.74464 261.001457 
L 308.860975 261.340731 
L 309.090938 262.849304 
L 309.139636 263.151763 
L 309.218095 262.990556 
L 309.586036 262.475854 
L 309.648262 262.568182 
L 310.170415 263.862288 
L 310.657396 266.396363 
L 310.752087 266.342033 
L 310.79808 266.194137 
L 311.101091 264.923317 
L 311.12544 264.936608 
L 311.258007 265.21281 
L 311.755811 265.876917 
L 311.812625 265.733069 
L 312.015535 265.276808 
L 312.042589 265.294929 
L 312.156218 265.573105 
L 312.288785 266.020131 
L 312.353716 265.897317 
L 312.548509 264.887863 
L 312.778473 264.278342 
L 312.938095 263.973762 
L 313.276276 263.261266 
L 313.514356 263.27744 
L 313.641513 263.474002 
L 313.692916 263.386328 
L 313.860655 262.607858 
L 314.074385 262.123152 
L 314.182604 261.862087 
L 314.244829 261.186193 
L 314.48832 259.144184 
L 314.534313 259.147805 
L 314.569484 259.211856 
L 314.710167 259.871116 
L 315.178211 263.046081 
L 315.259375 262.736659 
L 315.64896 259.569214 
L 316.117004 253.951655 
L 316.693265 250.714517 
L 316.942167 249.447788 
L 317.026036 249.528329 
L 317.174836 250.151163 
L 317.591476 253.257232 
L 317.916131 255.187446 
L 317.943185 254.915163 
L 318.219142 252.628505 
L 318.32736 252.449265 
L 318.370647 252.492431 
L 318.692596 253.278195 
L 319.084887 255.689691 
L 319.406836 258.181121 
L 320.221178 264.844142 
L 320.491724 265.595411 
L 320.518778 265.634129 
L 320.570182 265.484871 
L 320.954356 264.116497 
L 321.227607 264.183419 
L 321.354764 264.400711 
L 321.768698 265.911601 
L 322.028422 266.796909 
L 322.069004 266.62667 
L 322.377425 265.237169 
L 322.453178 265.061248 
L 322.607389 263.302797 
L 322.894167 260.869978 
L 322.967215 260.811408 
L 323.013207 260.867487 
L 323.240465 261.458457 
L 323.308102 261.207138 
L 323.465018 259.581175 
L 323.846487 255.286725 
L 323.911418 255.235113 
L 323.962822 255.300056 
L 324.184669 255.882859 
L 324.541789 256.95802 
L 324.782575 258.233042 
L 325.894516 264.027882 
L 326.132596 264.864641 
L 326.221876 264.550692 
L 326.42208 264.066339 
L 326.441018 264.076098 
L 326.546531 264.301508 
L 327.0768 266.519278 
L 327.458269 268.813731 
L 327.504262 268.658581 
L 327.73152 267.803148 
L 327.766691 267.831588 
L 328.026415 268.401892 
L 328.421411 270.215779 
L 328.840756 273.277213 
L 329.352087 276.743764 
L 329.365615 276.738859 
L 329.452189 276.543876 
L 329.768727 275.101834 
L 329.909411 273.465288 
L 330.212422 270.802307 
L 330.520844 270.184347 
L 331.021353 268.775094 
L 331.270255 266.672119 
L 332.038604 259.63009 
L 332.157644 259.429846 
L 332.198225 259.467249 
L 332.598633 259.976925 
L 332.625687 259.933992 
L 332.766371 259.256981 
L 332.977396 258.680949 
L 332.988218 258.685021 
L 333.085615 258.862912 
L 333.155956 259.044877 
L 333.20736 258.888893 
L 333.421091 258.382294 
L 333.434618 258.38802 
L 333.532015 258.585366 
L 333.721396 259.614741 
L 334.043345 261.137544 
L 334.330124 261.368857 
L 334.400465 261.509555 
L 334.451869 261.378864 
L 334.673716 260.652316 
L 334.719709 260.686478 
L 335.025425 260.913394 
L 335.076829 260.80764 
L 335.531345 259.409426 
L 335.626036 259.569831 
L 335.804596 260.457475 
L 336.167127 263.63718 
L 336.732567 268.259489 
L 337.068044 270.044191 
L 337.184378 269.98077 
L 337.270953 269.768236 
L 337.844509 267.296027 
L 337.947316 267.414602 
L 338.093411 267.837333 
L 338.155636 267.611867 
L 338.409949 266.822341 
L 338.566865 266.713785 
L 339.013265 265.931865 
L 339.251345 265.243457 
L 339.283811 265.264973 
L 339.400145 265.567367 
L 339.84384 266.882008 
L 339.957469 267.089415 
L 340.295651 268.331985 
L 340.37952 268.016011 
L 340.898967 264.587666 
L 341.109993 263.94933 
L 341.193862 264.074609 
L 341.39136 264.29988 
L 341.499578 264.42946 
L 341.667316 265.108619 
L 342.76032 270.635516 
L 342.827956 270.653945 
L 342.863127 270.576821 
L 343.401513 269.284913 
L 343.50432 269.3141 
L 343.517847 269.334268 
L 343.536785 269.355078 
L 343.574662 269.228579 
L 343.669353 268.227647 
L 343.92096 265.629516 
L 343.964247 265.611627 
L 344.01024 265.690206 
L 344.150924 266.388912 
L 345.092422 272.078696 
L 345.295331 272.955341 
L 345.698444 275.92774 
L 346.255767 279.650922 
L 346.442444 279.925856 
L 346.694051 280.249249 
L 346.89696 280.778251 
L 347.248669 281.622854 
L 347.538153 282.398295 
L 347.757295 282.855793 
L 347.778938 282.838748 
L 347.857396 282.563651 
L 348.517527 278.374782 
L 349.031564 273.910191 
L 349.123549 273.878069 
L 349.15872 273.915123 
L 349.310225 274.32153 
L 349.610531 275.906603 
L 350.094807 278.293324 
L 350.224669 278.440111 
L 350.262545 278.32193 
L 350.34912 277.400128 
L 350.925382 269.099211 
L 351.179695 268.557031 
L 351.214865 268.584694 
L 351.342022 268.91959 
L 351.872291 270.583902 
L 351.874996 270.582878 
L 351.923695 270.421424 
L 352.340335 268.594188 
L 352.49184 268.277053 
L 352.762385 266.954605 
L 352.808378 267.000633 
L 352.93824 267.459579 
L 353.243956 269.218883 
L 353.349469 268.994613 
L 353.479331 268.831997 
L 353.517207 268.866259 
L 353.655185 269.256583 
L 353.814807 269.678298 
L 353.871622 269.607457 
L 353.996073 269.159171 
L 354.166516 267.457386 
L 354.391069 266.154622 
L 354.472233 266.247977 
L 354.759011 267.145236 
L 355.024145 268.677111 
L 355.089076 268.141976 
L 355.519244 264.433583 
L 355.662633 264.457098 
L 355.754618 264.565794 
L 355.819549 264.469831 
L 356.019753 264.369412 
L 356.184785 264.39157 
L 356.325469 264.803912 
L 357.288611 269.504745 
L 357.90816 273.306663 
L 358.159767 273.323958 
L 358.29504 273.43981 
L 358.549353 273.982375 
L 358.649455 273.86628 
L 358.782022 273.486917 
L 359.106676 272.320223 
L 359.206778 272.428157 
L 359.244655 272.474412 
L 359.304175 272.380917 
L 359.482735 271.801839 
L 360.026531 268.284755 
L 360.213207 268.045711 
L 360.234851 268.059143 
L 360.8544 268.512505 
L 360.876044 268.471806 
L 360.995084 267.862495 
L 361.341382 266.342206 
L 361.490182 265.455065 
L 361.855418 263.217224 
L 362.077265 263.172761 
L 362.296407 263.174972 
L 362.445207 263.603932 
L 362.864553 265.145196 
L 362.905135 265.073607 
L 363.064756 264.849277 
L 363.099927 264.879289 
L 363.254138 265.216914 
L 363.329891 265.002523 
L 363.581498 264.483208 
L 363.765469 263.637152 
L 363.973789 261.466407 
L 364.230807 259.911737 
L 364.287622 259.915884 
L 364.322793 259.973581 
L 364.463476 260.552262 
L 364.844945 262.144458 
L 364.847651 262.143564 
L 364.90176 261.982254 
L 365.413091 260.006641 
L 365.472611 260.074987 
L 365.613295 260.620109 
L 366.316713 263.891137 
L 366.462807 264.130636 
L 366.660305 264.324027 
L 367.095884 264.46982 
L 367.233862 264.516507 
L 367.255505 264.485423 
L 367.37184 263.992416 
L 367.626153 263.173291 
L 367.634269 263.175432 
L 367.72896 263.330228 
L 367.910225 264.17992 
L 368.543302 267.65586 
L 368.570356 267.638721 
L 368.689396 267.334713 
L 368.908538 266.945429 
L 368.924771 266.953601 
L 369.0384 267.164783 
L 369.24672 268.144411 
L 369.622778 269.77664 
L 370.512873 274.184609 
L 370.531811 274.17775 
L 370.594036 274.004556 
L 370.926807 272.703472 
L 370.945745 272.711856 
L 371.056669 272.925424 
L 371.154065 273.043305 
L 371.194647 272.98929 
L 371.354269 272.346875 
L 371.616698 270.41224 
L 372.057687 267.210029 
L 372.128029 267.228772 
L 372.155084 267.273746 
L 372.398575 268.025297 
L 372.555491 268.412969 
L 372.620422 268.308716 
L 372.820625 268.008924 
L 372.855796 268.037257 
L 373.066822 268.475429 
L 373.2048 268.690868 
L 373.256204 268.606389 
L 373.388771 267.961168 
L 373.675549 266.710627 
L 373.767535 266.797986 
L 373.927156 267.401846 
L 374.2464 269.676088 
L 374.665745 273.275687 
L 374.746909 273.007596 
L 375.012044 271.314651 
L 375.266356 270.565745 
L 375.363753 270.689312 
L 375.539607 271.391118 
L 375.880495 273.615605 
L 375.975185 273.145492 
L 376.186211 272.506789 
L 376.364771 272.385178 
L 376.394531 272.416734 
L 376.535215 272.800514 
L 376.624495 272.946206 
L 376.675898 272.912384 
L 377.0736 272.410289 
L 377.181818 271.657688 
L 377.771607 266.945501 
L 377.78784 266.951124 
L 377.947462 267.182283 
L 378.131433 267.821453 
L 378.437149 269.874834 
L 378.916015 273.271281 
L 378.953891 273.195152 
L 379.089164 272.268527 
L 380.014429 263.45564 
L 380.401309 262.823133 
L 380.479767 262.977851 
L 380.650211 263.893402 
L 381.112844 267.448781 
L 381.191302 267.012121 
L 381.402327 266.087598 
L 381.421265 266.0965 
L 381.513251 266.327296 
L 381.713455 267.604384 
L 382.514269 273.288795 
L 382.99584 273.47421 
L 383.209571 274.426109 
L 383.593745 276.398422 
L 383.642444 276.291419 
L 384.105076 274.927641 
L 384.232233 274.819567 
L 384.264698 274.845917 
L 384.402676 275.175026 
L 384.673222 276.526906 
L 385.238662 279.313488 
L 385.617425 281.119162 
L 385.858211 281.733538 
L 386.521047 283.138148 
L 386.569745 283.02102 
L 386.761833 281.852865 
L 386.883578 279.50116 
L 387.262342 273.843626 
L 387.541004 271.459753 
L 387.635695 271.354248 
L 387.678982 271.397444 
L 387.814255 271.820009 
L 387.930589 272.067174 
L 387.976582 272.048511 
L 388.111855 272.110131 
L 388.26336 272.571991 
L 388.677295 274.13221 
L 388.725993 274.111899 
L 388.874793 274.16174 
L 389.031709 274.588473 
L 389.424 276.135299 
L 389.518691 276.060601 
L 389.648553 276.095171 
L 389.651258 276.09903 
L 389.805469 276.520741 
L 390.305978 278.927185 
L 390.741556 281.138605 
L 390.855185 281.590984 
L 390.909295 281.487558 
L 391.293469 279.899012 
L 391.585658 278.382538 
L 391.869731 278.265683 
L 391.872436 278.268652 
L 392.015825 278.329896 
L 392.029353 278.293489 
L 392.129455 277.261272 
L 392.402705 275.374782 
L 392.470342 275.355027 
L 392.510924 275.408313 
L 392.662429 275.927885 
L 392.881571 276.550629 
L 392.903215 276.537154 
L 393.146705 276.128733 
L 393.273862 275.323724 
L 393.525469 270.0138 
L 393.855535 265.329041 
L 394.053033 263.270136 
L 394.42368 259.760104 
L 394.610356 259.31316 
L 394.715869 259.434287 
L 394.856553 259.472563 
L 394.956655 259.57243 
L 395.10816 260.193256 
L 395.248844 260.871051 
L 395.311069 260.716645 
L 395.454458 260.470299 
L 395.492335 260.504256 
L 395.611375 260.876314 
L 395.684422 261.234506 
L 395.73312 260.946754 
L 395.965789 259.786784 
L 395.984727 259.798237 
L 396.074007 260.056232 
L 396.201164 260.392405 
L 396.241745 260.3111 
L 396.414895 259.245652 
L 396.736844 257.599163 
L 396.818007 257.698032 
L 397.083142 258.669347 
L 397.356393 259.47176 
L 397.716218 260.589953 
L 397.840669 260.791268 
L 398.249193 262.309101 
L 398.403404 262.507528 
L 398.487273 262.508121 
L 398.487273 262.508121 
" clip-path="url(#p67501d6cec)" style="fill: none; stroke: #000000; stroke-width: 1.5; stroke-linecap: square"/>
   </g>
   <g id="line2d_17">
    <path d="M 73.832727 280.9728 
L 74.062691 284.790425 
L 74.271011 285.843362 
L 74.603782 286.000343 
L 74.614604 285.98536 
L 74.739055 285.596126 
L 75.174633 282.523985 
L 75.702196 278.184315 
L 75.802298 278.118754 
L 75.840175 278.155062 
L 76.162124 278.788676 
L 76.397498 279.611867 
L 77.428276 283.86574 
L 77.574371 283.890996 
L 77.761047 283.974622 
L 77.974778 284.39428 
L 78.675491 285.957962 
L 79.538531 286.784102 
L 79.798255 286.759676 
L 79.965993 286.733807 
L 80.060684 286.529614 
L 80.57472 283.471711 
L 81.08064 279.648151 
L 81.19968 279.716226 
L 81.575738 280.089336 
L 81.876044 281.405482 
L 82.081658 282.10293 
L 82.116829 282.081814 
L 82.27104 281.79282 
L 82.501004 281.523188 
L 82.611927 281.439484 
L 82.795898 281.342041 
L 82.809425 281.352876 
L 82.906822 281.424978 
L 82.952815 281.333934 
L 83.120553 280.548206 
L 83.388393 279.75582 
L 83.510138 279.820129 
L 83.688698 280.285134 
L 84.089105 281.308057 
L 84.17568 281.432649 
L 84.202735 281.302897 
L 84.421876 278.051353 
L 84.760058 275.248472 
L 85.060364 274.412096 
L 85.325498 273.850581 
L 85.363375 273.878802 
L 85.495942 274.203042 
L 85.890938 275.225248 
L 86.104669 275.917469 
L 86.275113 276.558015 
L 86.329222 276.41812 
L 86.532131 275.808696 
L 86.572713 275.843291 
L 86.916305 276.256412 
L 86.935244 276.190511 
L 87.286953 273.140651 
L 87.654895 270.782933 
L 87.998487 270.37992 
L 88.104 270.541543 
L 88.293382 271.367225 
L 88.688378 274.329579 
L 89.034676 276.168108 
L 89.508131 277.584649 
L 89.521658 277.57182 
L 89.697513 277.098862 
L 89.838196 276.98888 
L 89.865251 277.008605 
L 90.116858 277.412964 
L 90.317062 277.853571 
L 90.6336 278.504617 
L 90.66336 278.516552 
L 90.709353 278.428128 
L 91.093527 277.020787 
L 91.166575 277.092238 
L 91.250444 277.230759 
L 91.299142 277.107804 
L 91.493935 276.560261 
L 91.539927 276.59466 
L 91.680611 276.553107 
L 91.989033 276.39681 
L 92.129716 276.487705 
L 92.205469 276.562766 
L 92.264989 276.500524 
L 92.516596 276.071335 
L 92.765498 274.145588 
L 93.268713 269.576738 
L 93.455389 269.244855 
L 93.663709 268.856119 
L 94.056 266.836617 
L 94.11552 266.896247 
L 94.258909 267.390504 
L 94.551098 269.382284 
L 94.775651 270.501738 
L 94.802705 270.492659 
L 94.940684 270.304422 
L 95.470953 268.705579 
L 95.700916 268.637258 
L 95.828073 267.966106 
L 96.233891 265.424701 
L 96.242007 265.426468 
L 96.4368 265.61841 
L 96.55584 265.839671 
L 97.167273 268.102252 
L 97.375593 268.814885 
L 97.421585 268.799386 
L 97.619084 268.848764 
L 97.903156 268.981292 
L 98.146647 268.740642 
L 98.203462 268.815403 
L 98.241338 268.80792 
L 98.279215 268.735827 
L 98.501062 268.361432 
L 98.538938 268.389564 
L 98.568698 268.377036 
L 98.595753 268.301613 
L 98.879825 267.234642 
L 98.969105 267.32041 
L 99.147665 267.767018 
L 99.53184 269.654526 
L 99.88896 271.854357 
L 100.473338 275.421794 
L 100.673542 275.803276 
L 100.752 275.938878 
L 100.808815 275.861243 
L 101.187578 274.790167 
L 101.498705 273.30843 
L 101.70432 273.052095 
L 101.725964 273.065692 
L 102.164247 273.582247 
L 102.361745 273.834522 
L 102.521367 273.691676 
L 103.308655 270.121392 
L 103.368175 270.173752 
L 103.516975 270.605233 
L 103.903855 271.727782 
L 104.0256 271.866662 
L 104.447651 272.828825 
L 104.515287 272.629648 
L 104.766895 270.848054 
L 105.261993 266.941463 
L 105.554182 266.154658 
L 105.72192 266.035673 
L 105.754385 266.068209 
L 106.041164 266.584858 
L 106.171025 266.730644 
L 106.206196 266.692712 
L 106.357702 266.218615 
L 106.61472 265.641411 
L 106.666124 265.492271 
L 107.253207 260.934377 
L 107.342487 261.110479 
L 107.521047 262.164558 
L 107.880873 264.097237 
L 108.064844 264.342358 
L 108.357033 264.624117 
L 108.513949 264.750103 
L 108.532887 264.740864 
L 108.676276 264.791668 
L 108.819665 265.232366 
L 109.014458 265.817895 
L 109.057745 265.797527 
L 109.157847 265.618907 
L 109.774691 262.192735 
L 109.958662 261.849624 
L 110.310371 260.873124 
L 110.434822 260.945347 
L 110.586327 261.42275 
L 110.856873 263.181989 
L 111.419607 266.824911 
L 112.022924 268.604435 
L 112.169018 268.694699 
L 112.32864 269.21095 
L 112.639767 271.158669 
L 112.902196 271.993718 
L 113.16192 272.553546 
L 113.946502 273.821675 
L 114.087185 274.039945 
L 114.314444 274.91591 
L 114.796015 277.888864 
L 115.272175 280.350727 
L 115.350633 280.263664 
L 115.494022 279.629756 
L 115.680698 277.969998 
L 116.181207 273.75707 
L 116.592436 271.880257 
L 116.697949 271.880671 
L 116.719593 271.90682 
L 116.873804 272.317366 
L 117.168698 273.833079 
L 117.263389 273.364387 
L 117.368902 273.139068 
L 117.414895 273.191086 
L 117.53664 273.405825 
L 117.606982 273.329817 
L 117.780131 272.952173 
L 118.04256 271.826819 
L 118.315811 271.665579 
L 118.345571 271.708779 
L 118.502487 272.206314 
L 118.810909 274.088291 
L 118.997585 275.305268 
L 119.030051 274.896618 
L 119.241076 273.339683 
L 119.535971 272.659445 
L 119.660422 272.567004 
L 120.158225 270.975221 
L 120.596509 267.779423 
L 120.764247 267.362164 
L 120.785891 267.373955 
L 120.891404 267.611875 
L 121.321571 269.551929 
L 121.708451 270.702158 
L 121.978996 272.193582 
L 122.252247 273.317504 
L 122.35776 273.235527 
L 122.457862 272.761332 
L 122.628305 270.696626 
L 123.034124 266.548169 
L 123.315491 265.568762 
L 123.515695 265.271656 
L 123.664495 265.421247 
L 123.840349 266.031733 
L 124.151476 268.089584 
L 124.443665 269.540635 
L 124.8576 270.791705 
L 125.138967 271.354775 
L 125.33376 271.944088 
L 125.496087 272.491277 
L 125.558313 272.42375 
L 125.755811 272.257154 
L 125.78016 272.278224 
L 125.918138 272.593627 
L 126.175156 273.869452 
L 126.797411 277.268334 
L 126.805527 277.150487 
L 127.092305 273.202971 
L 127.230284 272.787847 
L 127.362851 272.455406 
L 127.408844 272.476717 
L 127.844422 272.739841 
L 128.096029 273.072439 
L 128.266473 273.217933 
L 128.447738 273.737486 
L 128.807564 275.658071 
L 128.96448 276.310297 
L 129.002356 276.053824 
L 129.329716 273.789601 
L 129.492044 273.692102 
L 129.659782 273.804572 
L 129.908684 274.167824 
L 129.962793 274.110743 
L 130.344262 273.77443 
L 130.471418 273.987757 
L 130.741964 274.975444 
L 130.833949 274.669906 
L 131.153193 273.515073 
L 131.369629 273.332122 
L 131.410211 273.385142 
L 131.715927 273.69481 
L 131.937775 273.565528 
L 132.854924 268.086909 
L 133.0416 266.548056 
L 133.312145 264.337656 
L 133.460945 263.9647 
L 133.493411 263.988934 
L 133.604335 264.316259 
L 133.837004 265.862265 
L 134.394327 269.586859 
L 134.553949 269.735748 
L 134.764975 269.73466 
L 134.905658 269.778029 
L 135.057164 270.196852 
L 135.330415 271.759222 
L 136.006778 275.75235 
L 136.171811 275.985647 
L 136.198865 275.93023 
L 136.334138 275.091383 
L 136.696669 272.880199 
L 136.777833 272.887589 
L 136.804887 272.924768 
L 136.864407 272.971377 
L 136.915811 272.896701 
L 137.040262 272.374231 
L 137.59488 269.814615 
L 137.822138 269.404322 
L 137.973644 269.222859 
L 138.008815 269.246759 
L 138.171142 269.190504 
L 138.441687 269.175962 
L 138.447098 269.18863 
L 138.625658 269.908741 
L 138.96384 271.14704 
L 139.199215 271.787257 
L 139.253324 271.694188 
L 139.396713 270.913362 
L 139.521164 268.752521 
L 139.870167 264.317322 
L 140.06496 263.877625 
L 140.186705 263.203307 
L 140.516771 261.635921 
L 140.638516 261.504317 
L 140.676393 261.539284 
L 140.800844 261.910427 
L 141.068684 263.606053 
L 141.312175 264.471517 
L 141.371695 264.561977 
L 141.417687 264.445599 
L 141.534022 263.478981 
L 141.861382 260.85695 
L 141.926313 260.826788 
L 141.972305 260.889408 
L 142.115695 261.445128 
L 142.410589 263.674008 
L 143.062604 268.587031 
L 143.584756 270.132481 
L 143.738967 270.320833 
L 143.782255 270.15914 
L 144.577658 266.362824 
L 144.656116 266.458464 
L 144.959127 266.929835 
L 145.032175 266.810016 
L 145.180975 266.618195 
L 145.218851 266.650824 
L 145.348713 267.008315 
L 145.603025 268.50773 
L 145.851927 269.487006 
L 146.125178 269.592074 
L 146.311855 270.268861 
L 146.555345 271.21762 
L 146.601338 271.140236 
L 146.815069 270.7815 
L 146.847535 270.806287 
L 146.977396 271.120779 
L 147.364276 272.43858 
L 147.431913 272.355694 
L 147.859375 271.406398 
L 148.238138 269.415025 
L 148.33824 269.501504 
L 148.505978 270.074608 
L 148.884742 271.325056 
L 148.974022 271.39904 
L 148.995665 271.265034 
L 149.266211 269.389679 
L 149.298676 269.416326 
L 149.4096 269.784013 
L 149.67744 271.649843 
L 150.949004 281.271518 
L 151.003113 281.231261 
L 151.022051 281.191037 
L 151.546909 279.658905 
L 152.161047 275.983509 
L 152.253033 275.32058 
L 152.607447 271.173839 
L 152.726487 270.988729 
L 152.764364 271.015799 
L 153.318982 271.779187 
L 153.638225 272.120198 
L 153.659869 272.097411 
L 153.78432 271.729562 
L 154.130618 270.655306 
L 154.236131 270.649003 
L 154.26048 270.678061 
L 154.512087 270.84681 
L 154.67712 270.748524 
L 154.790749 269.811719 
L 155.653789 260.590727 
L 156.116422 257.507448 
L 156.197585 257.437396 
L 156.243578 257.491335 
L 156.273338 257.512131 
L 156.316625 257.402496 
L 156.470836 256.955781 
L 156.52224 257.027897 
L 156.654807 257.671958 
L 156.976756 260.630962 
L 157.344698 263.366631 
L 157.71264 264.493968 
L 157.766749 264.378462 
L 158.007535 263.909203 
L 158.018356 263.91364 
L 158.126575 264.101226 
L 158.321367 265.013317 
L 158.713658 268.149689 
L 159.34944 272.950079 
L 159.790429 274.12178 
L 159.8256 274.088329 
L 160.009571 273.573551 
L 160.169193 273.416661 
L 160.190836 273.429424 
L 160.258473 273.462112 
L 160.288233 273.377215 
L 160.415389 272.191935 
L 160.769804 269.719149 
L 161.118807 268.714427 
L 161.248669 268.61358 
L 161.278429 268.637516 
L 161.448873 268.913968 
L 161.497571 268.720472 
L 161.686953 266.825915 
L 161.952087 265.16013 
L 162.144175 264.919317 
L 162.165818 264.93316 
L 162.517527 265.09728 
L 162.641978 265.147763 
L 162.793484 265.599404 
L 163.074851 267.290822 
L 163.559127 270.038333 
L 163.60512 270.01216 
L 163.624058 269.956781 
L 164.278778 267.680571 
L 164.324771 267.711834 
L 164.503331 267.83604 
L 164.543913 267.78833 
L 164.760349 267.320616 
L 164.895622 267.20673 
L 164.925382 267.230161 
L 165.057949 267.537844 
L 165.306851 268.80475 
L 165.482705 269.826957 
L 165.544931 269.616588 
L 166.129309 265.848181 
L 166.213178 265.884332 
L 166.635229 265.991258 
L 166.827316 266.775322 
L 167.249367 268.938583 
L 167.314298 268.853068 
L 167.454982 268.293791 
L 167.733644 267.33361 
L 167.858095 267.183208 
L 168.015011 267.077326 
L 168.036655 267.094324 
L 168.171927 267.382853 
L 168.450589 268.152892 
L 168.510109 268.114505 
L 168.707607 267.807888 
L 168.915927 266.554835 
L 169.31904 261.663594 
L 169.925062 256.831232 
L 170.014342 256.931739 
L 170.176669 257.590564 
L 170.636596 260.179611 
L 170.720465 260.011654 
L 170.861149 259.089744 
L 171.004538 256.737414 
L 171.450938 249.899927 
L 171.75936 248.117936 
L 171.913571 248.068164 
L 172.019084 248.185253 
L 172.173295 248.824889 
L 172.538531 250.327929 
L 172.684625 250.584997 
L 172.882124 251.53613 
L 173.701876 257.593575 
L 174.202385 261.212174 
L 174.375535 261.944898 
L 174.435055 261.746547 
L 174.711011 259.752296 
L 175.027549 256.459106 
L 175.227753 254.313506 
L 175.546996 250.294929 
L 175.755316 249.849256 
L 175.871651 249.796032 
L 175.904116 249.836237 
L 176.177367 250.171776 
L 176.209833 250.144946 
L 176.477673 250.022925 
L 176.664349 249.878626 
L 176.772567 249.289448 
L 177.454342 244.760129 
L 177.746531 244.21878 
L 178.201047 243.523306 
L 178.412073 243.20582 
L 178.439127 243.225961 
L 178.558167 243.513656 
L 178.777309 244.75647 
L 179.518604 249.371375 
L 179.634938 249.638055 
L 179.791855 250.172799 
L 179.867607 250.068979 
L 180.067811 249.931702 
L 180.357295 249.827906 
L 180.489862 249.707376 
L 180.525033 249.738011 
L 180.665716 250.100094 
L 181.258211 252.142064 
L 181.885876 255.921504 
L 182.302516 258.604619 
L 182.318749 258.594395 
L 182.408029 258.34314 
L 182.573062 256.871064 
L 183.100625 253.197144 
L 183.281891 252.651968 
L 183.298124 252.658415 
L 183.430691 252.883831 
L 183.779695 253.357077 
L 183.933905 253.585081 
L 184.718487 255.483459 
L 184.740131 255.45939 
L 184.878109 254.969909 
L 185.443549 253.062541 
L 185.457076 253.067685 
L 185.733033 253.105409 
L 185.735738 253.100474 
L 185.803375 252.714905 
L 185.941353 250.196047 
L 186.255185 246.098475 
L 186.531142 245.291341 
L 186.631244 245.234045 
L 186.66912 245.274229 
L 186.774633 245.50457 
L 186.809804 245.291073 
L 187.210211 242.458415 
L 187.496989 242.170742 
L 187.632262 242.100113 
L 187.659316 242.127174 
L 188.357324 243.223673 
L 188.470953 243.466019 
L 188.519651 243.374509 
L 188.671156 242.39212 
L 188.974167 240.853742 
L 189.133789 240.857616 
L 189.22848 240.720404 
L 189.517964 240.079881 
L 189.547724 240.097848 
L 189.682996 240.079628 
L 189.691113 240.068289 
L 190.126691 239.225307 
L 190.886924 234.058858 
L 190.946444 234.097242 
L 191.095244 234.444421 
L 191.744553 236.534444 
L 191.801367 236.494677 
L 192.142255 236.13045 
L 192.239651 235.567447 
L 192.642764 232.929131 
L 192.732044 233.008135 
L 192.916015 233.666488 
L 193.311011 235.499756 
L 193.397585 235.171759 
L 194.030662 230.102125 
L 194.409425 223.841687 
L 194.907229 213.211403 
L 195.110138 202.286126 
L 195.188596 183.201689 
L 195.237295 92.603867 
L 195.29952 181.698114 
L 195.464553 240.018284 
L 195.618764 244.877762 
L 195.643113 244.885101 
L 195.689105 244.79016 
L 195.846022 243.955985 
L 196.084102 240.700417 
L 196.792931 228.519179 
L 196.879505 228.363043 
L 196.928204 228.429036 
L 197.052655 229.017472 
L 197.550458 233.189707 
L 197.834531 235.270126 
L 198.340451 236.211957 
L 198.437847 236.039056 
L 198.575825 235.290392 
L 199.28736 231.379888 
L 199.595782 230.412127 
L 200.047593 226.492441 
L 200.542691 215.014834 
L 200.845702 204.331415 
L 200.951215 190.884706 
L 200.994502 146.869138 
L 201.018851 103.101793 
L 201.089193 190.12051 
L 201.283985 239.460805 
L 201.440902 241.669657 
L 201.476073 241.670325 
L 201.516655 241.596693 
L 201.743913 240.705557 
L 202.02528 238.674454 
L 202.520378 233.792327 
L 203.526807 228.000128 
L 203.637731 228.118822 
L 203.875811 228.476388 
L 203.905571 228.425995 
L 204.038138 227.719164 
L 204.489949 224.052587 
L 204.760495 218.813577 
L 205.047273 209.180043 
L 205.160902 196.87268 
L 205.206895 163.372501 
L 205.23936 90.02874 
L 205.306996 184.411999 
L 205.480145 242.420688 
L 205.607302 246.35662 
L 205.631651 246.300149 
L 205.758807 245.246975 
L 206.040175 243.591043 
L 206.194385 243.411219 
L 206.229556 243.443711 
L 206.354007 243.804275 
L 206.581265 245.297637 
L 207.022255 248.908664 
L 207.095302 248.7271 
L 207.587695 246.920073 
L 207.633687 246.957576 
L 208.0368 247.497335 
L 208.082793 247.413995 
L 208.315462 247.139905 
L 208.564364 246.837803 
L 208.642822 246.973213 
L 208.845731 247.702383 
L 209.132509 249.744508 
L 209.419287 252.063874 
L 209.478807 251.849252 
L 209.835927 248.940919 
L 210.065891 248.031128 
L 210.171404 247.801376 
L 210.574516 246.061503 
L 210.588044 246.06648 
L 210.788247 246.308483 
L 210.828829 246.346251 
L 210.885644 246.257584 
L 211.451084 244.602897 
L 212.048989 240.992716 
L 212.122036 240.946093 
L 212.168029 241.003136 
L 212.308713 241.519388 
L 212.706415 243.920563 
L 213.004015 245.844892 
L 213.03648 245.754195 
L 214.462255 237.025121 
L 214.675985 233.617149 
L 214.954647 231.012057 
L 215.06016 230.865797 
L 215.106153 230.897834 
L 215.349644 231.18297 
L 215.436218 231.047743 
L 215.603956 230.562074 
L 215.777105 229.205589 
L 216.331724 224.813284 
L 216.621207 223.173632 
L 216.872815 220.103064 
L 217.175825 213.445103 
L 217.330036 204.506291 
L 217.405789 184.323127 
L 217.451782 88.821031 
L 217.516713 182.132183 
L 217.681745 244.208334 
L 217.838662 249.692698 
L 217.954996 249.95293 
L 217.992873 249.927051 
L 218.193076 249.543649 
L 218.331055 248.837117 
L 218.596189 245.334292 
L 219.407825 233.252386 
L 219.683782 230.877821 
L 219.946211 229.160729 
L 220.195113 227.195076 
L 220.408844 223.040369 
L 220.806545 212.0329 
L 220.998633 200.794777 
L 221.07168 180.520143 
L 221.114967 99.952862 
L 221.174487 183.408589 
L 221.342225 242.474471 
L 221.48832 246.755606 
L 221.493731 246.754282 
L 221.553251 246.591325 
L 222.237731 243.120209 
L 223.222516 234.100039 
L 223.460596 233.625902 
L 223.617513 233.399529 
L 223.744669 232.454721 
L 224.090967 230.419546 
L 224.223535 229.464754 
L 224.564422 226.973716 
L 224.926953 223.691218 
L 225.081164 221.126879 
L 225.668247 207.279333 
L 225.814342 196.78137 
L 225.876567 172.271938 
L 225.914444 97.995612 
L 225.976669 183.145559 
L 226.149818 239.062996 
L 226.306735 243.214644 
L 226.396015 243.32052 
L 226.439302 243.273321 
L 226.54752 242.596862 
L 226.839709 239.307402 
L 227.150836 236.145341 
L 227.551244 233.770834 
L 228.141033 228.823143 
L 228.725411 222.448708 
L 228.933731 221.732705 
L 229.028422 221.831659 
L 229.288145 222.644955 
L 229.52352 223.414173 
L 229.591156 223.292741 
L 229.796771 222.276757 
L 229.980742 220.435217 
L 230.5056 211.958752 
L 230.68416 205.816672 
L 230.795084 193.347284 
L 230.838371 159.166506 
L 230.870836 92.323255 
L 230.938473 184.993403 
L 231.122444 239.667045 
L 231.284771 243.303767 
L 231.444393 243.897379 
L 231.476858 243.839667 
L 231.593193 242.993554 
L 232.015244 240.070999 
L 232.131578 239.971679 
L 232.166749 240.000493 
L 232.193804 240.03474 
L 232.218153 239.892146 
L 232.542807 237.830576 
L 232.545513 237.831032 
L 232.629382 237.963564 
L 232.79712 238.784603 
L 233.092015 241.000489 
L 233.15424 240.45054 
L 233.416669 238.501046 
L 233.495127 238.589477 
L 233.873891 239.157802 
L 234.098444 238.998908 
L 234.377105 237.97094 
L 234.977716 235.038976 
L 235.221207 233.84915 
L 235.38624 232.974873 
L 235.792058 230.569851 
L 235.924625 230.614979 
L 236.54688 231.23526 
L 236.747084 232.198573 
L 237.307113 235.084368 
L 237.482967 235.155618 
L 237.512727 235.094865 
L 237.785978 234.513701 
L 237.837382 234.568218 
L 237.97536 235.028523 
L 238.224262 236.803004 
L 238.768058 240.705676 
L 239.817775 244.233208 
L 240.426502 245.276259 
L 240.469789 245.141667 
L 240.786327 243.865073 
L 240.829615 243.903442 
L 241.056873 244.257539 
L 241.12992 244.172353 
L 241.251665 244.107059 
L 241.284131 244.14307 
L 241.370705 244.278913 
L 241.408582 244.145179 
L 241.84416 241.159118 
L 242.103884 239.703464 
L 242.166109 239.723212 
L 242.193164 239.772047 
L 242.333847 240.357564 
L 242.623331 241.738893 
L 242.669324 241.671253 
L 242.953396 241.010751 
L 243.015622 241.087188 
L 243.161716 241.633903 
L 243.908422 245.792093 
L 244.030167 245.676412 
L 244.143796 245.714272 
L 244.151913 245.727201 
L 244.295302 246.190952 
L 244.55232 247.939721 
L 245.250327 253.646153 
L 245.32608 253.590653 
L 245.464058 253.578934 
L 245.480291 253.599308 
L 246.053847 254.624272 
L 246.39744 256.172886 
L 247.263185 261.576588 
L 247.282124 261.565908 
L 247.390342 261.283169 
L 247.996364 259.68005 
L 248.00448 259.683295 
L 248.12352 259.871083 
L 248.383244 260.403702 
L 248.448175 260.192579 
L 249.01632 257.905268 
L 249.073135 257.962544 
L 249.213818 258.443406 
L 249.49248 260.363528 
L 249.865833 263.290731 
L 249.930764 263.110498 
L 250.08768 261.871746 
L 250.428567 259.934977 
L 250.599011 259.521655 
L 250.620655 259.532289 
L 250.726167 259.762334 
L 250.934487 260.88455 
L 251.96256 267.291802 
L 251.989615 267.2814 
L 252.024785 267.199732 
L 252.322385 266.512848 
L 252.357556 266.538224 
L 252.384611 266.563565 
L 252.40896 266.435147 
L 252.649745 265.038981 
L 252.684916 265.06829 
L 252.820189 265.491083 
L 253.483025 268.375494 
L 253.829324 269.539961 
L 254.102575 270.836656 
L 254.527331 272.971868 
L 254.565207 272.950124 
L 254.757295 272.918314 
L 254.762705 272.924742 
L 254.922327 273.300254 
L 255.225338 273.841216 
L 255.468829 274.655251 
L 255.912524 277.102206 
L 256.5456 280.753189 
L 256.599709 280.670512 
L 256.72416 280.035787 
L 257.194909 276.510451 
L 257.400524 275.854019 
L 257.857745 273.298145 
L 258.049833 272.207518 
L 258.56928 268.7615 
L 258.761367 267.455667 
L 259.299753 263.547437 
L 259.61088 262.632133 
L 259.643345 262.653949 
L 259.762385 262.948723 
L 260.365702 265.113345 
L 260.417105 264.993334 
L 260.809396 263.646681 
L 260.874327 263.717013 
L 261.023127 264.238259 
L 261.282851 264.911153 
L 261.869935 267.039939 
L 261.9024 266.97794 
L 262.056611 266.112251 
L 262.351505 264.820061 
L 262.61664 263.994715 
L 262.649105 264.015485 
L 262.711331 264.074334 
L 262.76544 263.982597 
L 262.887185 263.876884 
L 262.925062 263.913794 
L 263.422865 264.844965 
L 264.031593 267.089645 
L 264.077585 267.190517 
L 264.118167 267.025749 
L 264.234502 265.133331 
L 264.588916 259.927652 
L 264.994735 257.549072 
L 265.024495 257.56215 
L 265.200349 257.694999 
L 265.254458 257.60657 
L 265.389731 257.490335 
L 265.424902 257.5251 
L 265.552058 257.903494 
L 266.647767 262.385566 
L 266.666705 262.374029 
L 267.002182 261.920129 
L 267.058996 261.47998 
L 267.537862 256.397984 
L 267.694778 256.258503 
L 267.743476 256.342741 
L 267.892276 257.017307 
L 268.514531 260.284038 
L 268.752611 260.508211 
L 268.787782 260.469594 
L 268.923055 260.38785 
L 268.95552 260.423605 
L 269.334284 260.771515 
L 269.339695 260.765479 
L 269.40192 260.432035 
L 269.518255 258.702773 
L 269.845615 254.376406 
L 269.986298 253.927008 
L 270.018764 253.953995 
L 270.126982 254.326527 
L 270.359651 256.129266 
L 270.819578 259.512764 
L 271.141527 260.642167 
L 271.265978 260.744467 
L 271.420189 261.341499 
L 271.771898 262.659666 
L 272.315695 263.130734 
L 272.459084 263.181491 
L 272.670109 263.595247 
L 272.772916 263.487449 
L 272.862196 263.318564 
L 273.054284 262.863004 
L 273.084044 262.88395 
L 273.197673 263.185853 
L 273.44928 264.68048 
L 274.31232 270.307578 
L 274.628858 271.252031 
L 274.753309 271.390051 
L 274.793891 271.366115 
L 274.975156 271.376174 
L 275.134778 271.759866 
L 275.197004 271.853992 
L 275.248407 271.752283 
L 275.567651 270.954891 
L 275.605527 270.981284 
L 275.849018 271.312766 
L 275.943709 271.194009 
L 276.076276 270.874669 
L 276.387404 269.944287 
L 276.392815 269.945693 
L 276.630895 270.139316 
L 276.814865 270.677932 
L 277.066473 271.756235 
L 277.147636 271.591205 
L 277.342429 271.291441 
L 277.366778 271.306491 
L 277.491229 271.5641 
L 277.729309 272.694733 
L 277.94304 273.742892 
L 277.999855 273.665758 
L 278.170298 273.005235 
L 278.833135 268.390563 
L 278.908887 268.469845 
L 278.990051 268.605271 
L 279.071215 268.544069 
L 279.149673 268.350444 
L 279.525731 266.840546 
L 279.57984 266.890178 
L 279.991069 267.75315 
L 280.369833 269.677576 
L 280.426647 269.371486 
L 280.599796 268.676971 
L 280.629556 268.698481 
L 280.735069 269.036266 
L 280.997498 270.132356 
L 281.059724 270.0592 
L 281.381673 269.209444 
L 281.48448 269.115847 
L 281.525062 269.154566 
L 281.768553 269.420392 
L 281.806429 269.379288 
L 282.04992 269.135141 
L 282.090502 269.163309 
L 282.442211 269.447879 
L 282.477382 269.26587 
L 283.072582 265.845558 
L 283.175389 265.368278 
L 283.502749 263.897548 
L 283.675898 263.933824 
L 283.819287 264.40459 
L 284.092538 266.240655 
L 284.958284 272.450127 
L 285.38304 275.533671 
L 285.872727 278.595064 
L 286.1568 280.043719 
L 286.208204 279.750078 
L 287.428364 268.849367 
L 287.504116 268.862853 
L 287.531171 268.903618 
L 287.685382 269.420726 
L 288.00192 271.434608 
L 288.699927 275.886977 
L 288.829789 275.775467 
L 288.962356 275.060878 
L 289.167971 272.777392 
L 289.960669 263.380602 
L 289.987724 263.398233 
L 290.087825 263.703675 
L 290.315084 265.301041 
L 291.110487 271.530357 
L 291.134836 271.523545 
L 291.508189 271.489702 
L 291.800378 271.913082 
L 292.271127 273.141509 
L 292.311709 272.978988 
L 292.985367 268.024408 
L 293.318138 265.73828 
L 293.402007 265.820597 
L 293.515636 266.02529 
L 293.56704 265.930262 
L 293.794298 265.595629 
L 293.80512 265.599861 
L 294.002618 265.615706 
L 294.016145 265.571664 
L 294.427375 264.362167 
L 294.54912 264.417494 
L 294.695215 264.873247 
L 295.634007 268.626246 
L 296.099345 269.525968 
L 296.713484 271.11325 
L 296.848756 271.329478 
L 297.481833 273.075905 
L 297.538647 272.834655 
L 298.455796 266.973856 
L 298.553193 266.883046 
L 298.59648 266.925116 
L 298.734458 267.342882 
L 299.007709 269.044856 
L 299.532567 272.198215 
L 299.657018 272.720671 
L 299.716538 272.577338 
L 299.992495 271.010961 
L 300.260335 268.425553 
L 300.333382 268.352567 
L 300.38208 268.414427 
L 300.522764 268.959201 
L 300.942109 271.841185 
L 301.147724 272.884817 
L 301.201833 272.754158 
L 301.821382 270.11437 
L 302.384116 267.334164 
L 302.541033 267.135535 
L 302.573498 267.16098 
L 302.700655 267.482977 
L 302.944145 268.853007 
L 303.404073 271.320432 
L 303.62592 272.119016 
L 304.183244 274.312562 
L 304.415913 274.976257 
L 304.491665 274.73764 
L 304.748684 272.7869 
L 305.324945 266.605419 
L 305.722647 264.682116 
L 305.82816 264.569984 
L 305.874153 264.596954 
L 305.949905 264.506668 
L 306.141993 264.241826 
L 306.177164 264.272571 
L 306.307025 264.621073 
L 306.480175 265.12211 
L 306.523462 265.012692 
L 307.25664 262.548981 
L 307.299927 262.565899 
L 307.432495 262.48775 
L 307.605644 262.443961 
L 307.94112 262.397208 
L 308.160262 261.16792 
L 308.509265 258.345839 
L 308.709469 257.841994 
L 308.736524 257.859139 
L 308.844742 258.132041 
L 309.058473 259.419195 
L 309.139636 259.973887 
L 309.218095 259.812953 
L 309.591447 259.256334 
L 309.664495 259.362604 
L 310.186647 260.613282 
L 310.651985 262.989056 
L 310.733149 262.93858 
L 310.803491 262.741 
L 311.103796 261.481258 
L 311.120029 261.486662 
L 311.236364 261.679251 
L 311.680058 262.218972 
L 311.80992 262.077324 
L 312.01824 261.595258 
L 312.045295 261.613078 
L 312.158924 261.888872 
L 312.288785 262.317867 
L 312.353716 262.197092 
L 312.545804 261.20906 
L 312.781178 260.571669 
L 312.946211 260.235615 
L 313.281687 259.529343 
L 313.525178 259.556455 
L 313.641513 259.726051 
L 313.690211 259.645605 
L 313.849833 258.916135 
L 314.082502 258.32038 
L 314.198836 257.959996 
L 314.515375 255.292788 
L 314.615476 255.511208 
L 314.810269 256.735536 
L 315.178211 259.118486 
L 315.207971 259.067024 
L 315.348655 258.216189 
L 315.662487 255.447598 
L 316.111593 250.091688 
L 316.725731 246.611165 
L 316.952989 245.634779 
L 317.036858 245.740708 
L 317.19648 246.456559 
L 317.916131 251.226587 
L 317.97024 250.586269 
L 318.229964 248.585961 
L 318.338182 248.409846 
L 318.381469 248.452689 
L 318.606022 249.059563 
L 318.846807 250.614141 
L 319.999331 259.223792 
L 320.386211 261.249336 
L 320.518778 261.556553 
L 320.572887 261.383555 
L 320.94624 259.985647 
L 321.192436 260.031651 
L 321.319593 260.177786 
L 321.492742 260.832345 
L 322.031127 263.641542 
L 322.085236 263.366273 
L 322.363898 262.073276 
L 322.464 261.761056 
L 322.675025 259.088335 
L 322.921222 257.39779 
L 322.983447 257.376306 
L 323.026735 257.436401 
L 323.23776 257.954448 
L 323.29728 257.759254 
L 323.454196 256.238014 
L 323.851898 251.794563 
L 323.911418 251.759812 
L 323.960116 251.825165 
L 324.187375 252.448191 
L 324.5472 253.547865 
L 324.801513 254.893902 
L 325.853935 260.093818 
L 326.021673 260.511263 
L 326.129891 260.868585 
L 326.184 260.70406 
L 326.430196 259.99418 
L 326.45184 260.006052 
L 326.560058 260.246691 
L 326.968582 262.10169 
L 327.460975 265.329071 
L 327.534022 265.017264 
L 327.73152 264.352225 
L 327.755869 264.367212 
L 327.956073 264.744262 
L 328.150865 265.48553 
L 328.608087 267.996475 
L 329.352087 273.414241 
L 329.435956 273.247619 
L 329.747084 271.793916 
L 329.901295 270.136531 
L 330.207011 267.423685 
L 330.455913 266.997034 
L 330.566836 267.010081 
L 330.583069 267.031431 
L 330.693993 267.165699 
L 330.742691 267.077266 
L 331.072756 265.823156 
L 331.454225 262.031574 
L 331.989905 257.134987 
L 332.157644 256.715654 
L 332.184698 256.733023 
L 332.601338 257.219634 
L 332.652742 257.084148 
L 332.982807 255.889042 
L 333.039622 255.946007 
L 333.158662 256.222491 
L 333.226298 256.052944 
L 333.41568 255.733279 
L 333.431913 255.741612 
L 333.53472 255.958831 
L 333.732218 257.037642 
L 334.035229 258.410252 
L 334.330124 258.552618 
L 334.39776 258.672585 
L 334.446458 258.550888 
L 334.681833 257.73485 
L 334.738647 257.758629 
L 335.068713 257.706635 
L 335.536756 256.125908 
L 335.636858 256.297317 
L 335.818124 257.209388 
L 336.194182 260.493375 
L 336.821847 265.685494 
L 337.092393 266.871806 
L 337.108625 266.866591 
L 337.252015 266.674716 
L 337.392698 265.69244 
L 337.687593 264.342825 
L 337.876975 264.021953 
L 337.895913 264.031153 
L 338.012247 264.248485 
L 338.090705 264.46089 
L 338.142109 264.295414 
L 338.426182 263.389985 
L 338.569571 263.264515 
L 339.083607 262.345788 
L 339.240524 262.0568 
L 339.272989 262.079166 
L 339.389324 262.378913 
L 339.862778 263.797123 
L 339.989935 264.093944 
L 340.295651 265.112771 
L 340.352465 264.920017 
L 340.798865 262.022415 
L 341.080233 260.74681 
L 341.091055 260.75064 
L 341.18304 260.92798 
L 341.415709 261.311691 
L 341.54016 261.574202 
L 341.751185 262.684536 
L 342.576349 267.616046 
L 342.79008 267.850127 
L 342.833367 267.824424 
L 342.857716 267.764185 
L 343.436684 266.31792 
L 343.588189 266.197665 
L 343.674764 265.177341 
L 343.92096 262.705148 
L 343.964247 262.687821 
L 344.01024 262.766453 
L 344.150924 263.463255 
L 345.092422 269.138832 
L 345.295331 270.017292 
L 345.693033 272.969383 
L 346.266589 276.874031 
L 346.461382 277.251507 
L 346.675113 277.508704 
L 346.850967 277.850995 
L 347.765411 280.184259 
L 347.773527 280.180284 
L 347.843869 279.996927 
L 348.439069 276.727863 
L 349.118138 271.473875 
L 349.137076 271.479445 
L 349.256116 271.661636 
L 349.472553 272.508794 
L 350.221964 275.753361 
L 350.25984 275.745842 
L 350.2896 275.672709 
L 350.362647 274.83282 
L 350.930793 267.046268 
L 351.179695 266.516175 
L 351.217571 266.545285 
L 351.344727 266.879127 
L 351.858764 268.46292 
L 351.893935 268.428438 
L 351.910167 268.365736 
L 352.705571 265.007364 
L 352.765091 265.001854 
L 352.802967 265.059006 
L 352.946356 265.613586 
L 353.241251 267.337104 
L 353.335942 267.13585 
L 353.50368 266.886236 
L 353.53344 266.906804 
L 353.674124 267.224125 
L 353.806691 267.490118 
L 353.8608 267.404989 
L 354.006895 266.79559 
L 354.193571 264.797844 
L 354.404596 263.730385 
L 354.488465 263.840849 
L 354.713018 264.583879 
L 355.024145 266.453827 
L 355.094487 265.869916 
L 355.524655 262.175219 
L 355.670749 262.184919 
L 355.673455 262.187975 
L 355.751913 262.271497 
L 355.808727 262.182014 
L 356.022458 262.030888 
L 356.179375 262.021602 
L 356.190196 262.035812 
L 356.328175 262.426567 
L 356.861149 264.197316 
L 357.123578 265.631157 
L 357.935215 270.296351 
L 358.322095 270.435028 
L 358.549353 270.925955 
L 358.627811 270.845001 
L 358.776611 270.47773 
L 359.109382 269.317913 
L 359.212189 269.447652 
L 359.244655 269.486273 
L 359.309585 269.393135 
L 359.477324 268.896842 
L 360.064407 265.349868 
L 360.213207 265.218989 
L 360.240262 265.240067 
L 360.716422 265.590072 
L 360.897687 265.418892 
L 361.444189 262.802165 
L 361.914938 260.255416 
L 362.320756 260.327692 
L 362.488495 260.911515 
L 362.861847 262.240562 
L 362.869964 262.236192 
L 363.089105 261.955558 
L 363.159447 262.082765 
L 363.251433 262.294173 
L 363.305542 262.166485 
L 363.868276 259.789182 
L 364.201047 257.062266 
L 364.268684 257.011404 
L 364.317382 257.074597 
L 364.45536 257.623535 
L 364.844945 259.254799 
L 364.853062 259.249147 
L 364.936931 258.945954 
L 365.415796 257.099621 
L 365.488844 257.199367 
L 365.64576 257.882788 
L 366.36 261.525442 
L 366.787462 261.826105 
L 367.066124 261.71576 
L 367.258211 261.649267 
L 367.396189 260.976746 
L 367.634269 260.229975 
L 367.636975 260.230543 
L 367.72896 260.36687 
L 367.904815 261.15439 
L 368.527069 264.536961 
L 368.567651 264.498603 
L 368.71104 264.028272 
L 368.924771 263.60846 
L 368.935593 263.61288 
L 369.043811 263.795633 
L 369.241309 264.678083 
L 370.328902 270.462121 
L 370.523695 270.775425 
L 370.58592 270.655831 
L 370.918691 269.404673 
L 370.961978 269.438508 
L 371.167593 269.799248 
L 371.24064 269.635792 
L 371.494953 268.382414 
L 372.046865 264.464469 
L 372.090153 264.496172 
L 372.217309 264.85003 
L 372.555491 265.931114 
L 372.585251 265.902524 
L 372.834153 265.540852 
L 372.893673 265.617833 
L 373.2048 266.185532 
L 373.267025 266.066029 
L 373.402298 265.338107 
L 373.675549 264.151041 
L 373.77024 264.233686 
L 373.927156 264.81573 
L 374.243695 267.032968 
L 374.660335 270.487537 
L 374.736087 270.228177 
L 375.274473 267.591214 
L 375.358342 267.693738 
L 375.52608 268.331113 
L 375.880495 270.643415 
L 375.983302 270.146264 
L 376.188916 269.580407 
L 376.381004 269.401514 
L 376.413469 269.434369 
L 376.551447 269.80906 
L 376.794938 270.327491 
L 376.840931 270.347022 
L 376.89504 270.285265 
L 377.13312 269.777849 
L 377.390138 267.017396 
L 377.695855 264.74014 
L 377.782429 264.649956 
L 377.828422 264.697844 
L 378.066502 265.228161 
L 378.320815 266.652787 
L 378.916015 270.880063 
L 378.989062 270.633426 
L 379.135156 269.226883 
L 379.638371 263.563945 
L 379.792582 262.397433 
L 380.011724 261.218835 
L 380.284975 260.798558 
L 380.390487 260.654287 
L 380.433775 260.699622 
L 380.558225 261.144083 
L 380.815244 263.083097 
L 381.112844 265.208964 
L 381.153425 265.044424 
L 381.410444 263.799938 
L 381.445615 263.830689 
L 381.559244 264.21724 
L 381.808145 266.054134 
L 382.465571 270.982169 
L 382.738822 271.028881 
L 382.890327 270.973281 
L 382.911971 270.996278 
L 383.052655 271.352623 
L 383.315084 272.763082 
L 383.593745 274.075394 
L 383.618095 274.045843 
L 383.745251 273.461849 
L 383.975215 272.86646 
L 384.313396 272.926145 
L 384.527127 273.773338 
L 385.679651 279.149495 
L 386.385775 280.67417 
L 386.521047 280.946568 
L 386.569745 280.839013 
L 386.756422 279.748264 
L 386.837585 278.365333 
L 387.300218 271.602907 
L 387.559942 269.681495 
L 387.641105 269.617156 
L 387.687098 269.667376 
L 387.830487 270.136499 
L 387.925178 270.3004 
L 387.973876 270.276086 
L 388.11456 270.319949 
L 388.26336 270.751414 
L 388.666473 272.239783 
L 388.720582 272.205214 
L 388.901847 272.160441 
L 388.912669 272.172993 
L 389.061469 272.542319 
L 389.415884 273.795511 
L 389.497047 273.716847 
L 389.629615 273.683834 
L 389.651258 273.707495 
L 389.797353 274.079679 
L 390.089542 275.587197 
L 390.85248 279.202383 
L 390.876829 279.169844 
L 391.125731 278.314014 
L 391.279942 277.452542 
L 391.558604 276.299329 
L 391.810211 276.252304 
L 392.021236 276.39139 
L 392.045585 276.262355 
L 392.451404 273.424355 
L 392.497396 273.46072 
L 392.629964 273.847505 
L 392.881571 274.602322 
L 392.914036 274.574552 
L 393.141295 274.07746 
L 393.276567 273.129041 
L 393.568756 266.851046 
L 393.869062 262.964659 
L 394.044916 261.131067 
L 394.407447 257.662888 
L 394.599535 257.124319 
L 394.707753 257.231471 
L 394.856553 257.288046 
L 394.956655 257.385587 
L 395.10816 257.995536 
L 395.246138 258.642509 
L 395.305658 258.485724 
L 395.46528 258.168737 
L 395.500451 258.1977 
L 395.616785 258.542462 
L 395.684422 258.853365 
L 395.73312 258.558934 
L 395.968495 257.362719 
L 395.987433 257.372249 
L 396.074007 257.606099 
L 396.198458 257.914851 
L 396.23904 257.835991 
L 396.406778 256.803528 
L 396.739549 255.070692 
L 396.820713 255.171936 
L 397.088553 256.148373 
L 397.534953 257.692276 
L 397.732451 257.977083 
L 397.851491 258.157882 
L 398.251898 259.526967 
L 398.368233 259.684446 
L 398.400698 259.67413 
L 398.487273 259.652077 
L 398.487273 259.652077 
" clip-path="url(#p67501d6cec)" style="fill: none; stroke: #ff0000; stroke-width: 1.5; stroke-linecap: square"/>
   </g>
   <g id="line2d_18">
    <path d="M 87.359887 260.064 
L 90.059908 260.064 
L 90.059908 260.064 
" clip-path="url(#p67501d6cec)" style="fill: none; stroke: #000000; stroke-width: 1.5; stroke-linecap: square"/>
   </g>
   <g id="line2d_19">
    <path d="M 87.359887 231.552 
L 87.359887 229.6512 
L 87.359887 227.7504 
L 87.359887 225.8496 
L 87.359887 223.9488 
L 87.359887 222.048 
L 87.359887 220.1472 
L 87.359887 218.2464 
L 87.359887 216.3456 
L 87.359887 214.4448 
L 87.359887 212.544 
L 87.359887 210.6432 
L 87.359887 208.7424 
L 87.359887 206.8416 
L 87.359887 204.9408 
L 87.359887 203.04 
L 87.359887 201.1392 
L 87.359887 199.2384 
L 87.359887 197.3376 
L 87.359887 195.4368 
" clip-path="url(#p67501d6cec)" style="fill: none; stroke: #000000; stroke-width: 1.5; stroke-linecap: square"/>
   </g>
   <g id="patch_3">
    <path d="M 57.6 307.584 
L 57.6 41.472 
" style="fill: none; stroke: #000000; stroke-width: 0.8; stroke-linejoin: miter; stroke-linecap: square"/>
   </g>
   <g id="patch_4">
    <path d="M 57.6 307.584 
L 414.72 307.584 
" style="fill: none; stroke: #000000; stroke-width: 0.8; stroke-linejoin: miter; stroke-linecap: square"/>
   </g>
   <g id="text_18">
    <!-- 500 ms -->
    <g transform="translate(87.359887 258.1632) scale(0.1 -0.1)">
     <use xlink:href="#DejaVuSans-35"/>
     <use xlink:href="#DejaVuSans-30" x="63.623047"/>
     <use xlink:href="#DejaVuSans-30" x="127.246094"/>
     <use xlink:href="#DejaVuSans-20" x="190.869141"/>
     <use xlink:href="#DejaVuSans-6d" x="222.65625"/>
     <use xlink:href="#DejaVuSans-73" x="320.068359"/>
    </g>
   </g>
   <g id="text_19">
    <!-- 20 mV -->
    <g transform="translate(87.63043 193.536) scale(0.1 -0.1)">
     <use xlink:href="#DejaVuSans-32"/>
     <use xlink:href="#DejaVuSans-30" x="63.623047"/>
     <use xlink:href="#DejaVuSans-20" x="127.246094"/>
     <use xlink:href="#DejaVuSans-6d" x="159.033203"/>
     <use xlink:href="#DejaVuSans-56" x="256.445312"/>
    </g>
   </g>
  </g>
 </g>
 <defs>
  <clipPath id="p67501d6cec">
   <rect x="57.6" y="41.472" width="357.12" height="266.112"/>
  </clipPath>
 </defs>
</svg>
