<?xml version="1.0" encoding="utf-8" standalone="no"?>
<!DOCTYPE svg PUBLIC "-//W3C//DTD SVG 1.1//EN"
  "http://www.w3.org/Graphics/SVG/1.1/DTD/svg11.dtd">
<svg xmlns:xlink="http://www.w3.org/1999/xlink" width="432pt" height="288pt" viewBox="0 0 432 288" xmlns="http://www.w3.org/2000/svg" version="1.1">
 <metadata>
  <rdf:RDF xmlns:dc="http://purl.org/dc/elements/1.1/" xmlns:cc="http://creativecommons.org/ns#" xmlns:rdf="http://www.w3.org/1999/02/22-rdf-syntax-ns#">
   <cc:Work>
    <dc:type rdf:resource="http://purl.org/dc/dcmitype/StillImage"/>
    <dc:date>2022-06-29T17:30:28.318601</dc:date>
    <dc:format>image/svg+xml</dc:format>
    <dc:creator>
     <cc:Agent>
      <dc:title>Matplotlib v3.5.2, https://matplotlib.org/</dc:title>
     </cc:Agent>
    </dc:creator>
   </cc:Work>
  </rdf:RDF>
 </metadata>
 <defs>
  <style type="text/css">*{stroke-linejoin: round; stroke-linecap: butt}</style>
 </defs>
 <g id="figure_1">
  <g id="patch_1">
   <path d="M 0 288 
L 432 288 
L 432 0 
L 0 0 
L 0 288 
z
" style="fill: none"/>
  </g>
  <g id="axes_1">
   <g id="patch_2">
    <path d="M 54 252 
L 388.8 252 
L 388.8 34.56 
L 54 34.56 
z
" style="fill: #ffffff"/>
   </g>
   <g id="matplotlib.axis_1">
    <g id="xtick_1">
     <g id="line2d_1">
      <defs>
       <path id="m4a6203ce7d" d="M 0 0 
L 0 3.5 
" style="stroke: #000000; stroke-width: 0.8"/>
      </defs>
      <g>
       <use xlink:href="#m4a6203ce7d" x="69.218182" y="252" style="stroke: #000000; stroke-width: 0.8"/>
      </g>
     </g>
     <g id="text_1">
      <!-- 0 -->
      <g transform="translate(66.036932 266.598437)scale(0.1 -0.1)">
       <defs>
        <path id="DejaVuSans-30" d="M 2034 4250 
Q 1547 4250 1301 3770 
Q 1056 3291 1056 2328 
Q 1056 1369 1301 889 
Q 1547 409 2034 409 
Q 2525 409 2770 889 
Q 3016 1369 3016 2328 
Q 3016 3291 2770 3770 
Q 2525 4250 2034 4250 
z
M 2034 4750 
Q 2819 4750 3233 4129 
Q 3647 3509 3647 2328 
Q 3647 1150 3233 529 
Q 2819 -91 2034 -91 
Q 1250 -91 836 529 
Q 422 1150 422 2328 
Q 422 3509 836 4129 
Q 1250 4750 2034 4750 
z
" transform="scale(0.015625)"/>
       </defs>
       <use xlink:href="#DejaVuSans-30"/>
      </g>
     </g>
    </g>
    <g id="xtick_2">
     <g id="line2d_2">
      <g>
       <use xlink:href="#m4a6203ce7d" x="119.945032" y="252" style="stroke: #000000; stroke-width: 0.8"/>
      </g>
     </g>
     <g id="text_2">
      <!-- 10000 -->
      <g transform="translate(104.038782 266.598437)scale(0.1 -0.1)">
       <defs>
        <path id="DejaVuSans-31" d="M 794 531 
L 1825 531 
L 1825 4091 
L 703 3866 
L 703 4441 
L 1819 4666 
L 2450 4666 
L 2450 531 
L 3481 531 
L 3481 0 
L 794 0 
L 794 531 
z
" transform="scale(0.015625)"/>
       </defs>
       <use xlink:href="#DejaVuSans-31"/>
       <use xlink:href="#DejaVuSans-30" x="63.623047"/>
       <use xlink:href="#DejaVuSans-30" x="127.246094"/>
       <use xlink:href="#DejaVuSans-30" x="190.869141"/>
       <use xlink:href="#DejaVuSans-30" x="254.492188"/>
      </g>
     </g>
    </g>
    <g id="xtick_3">
     <g id="line2d_3">
      <g>
       <use xlink:href="#m4a6203ce7d" x="170.671882" y="252" style="stroke: #000000; stroke-width: 0.8"/>
      </g>
     </g>
     <g id="text_3">
      <!-- 20000 -->
      <g transform="translate(154.765632 266.598437)scale(0.1 -0.1)">
       <defs>
        <path id="DejaVuSans-32" d="M 1228 531 
L 3431 531 
L 3431 0 
L 469 0 
L 469 531 
Q 828 903 1448 1529 
Q 2069 2156 2228 2338 
Q 2531 2678 2651 2914 
Q 2772 3150 2772 3378 
Q 2772 3750 2511 3984 
Q 2250 4219 1831 4219 
Q 1534 4219 1204 4116 
Q 875 4013 500 3803 
L 500 4441 
Q 881 4594 1212 4672 
Q 1544 4750 1819 4750 
Q 2544 4750 2975 4387 
Q 3406 4025 3406 3419 
Q 3406 3131 3298 2873 
Q 3191 2616 2906 2266 
Q 2828 2175 2409 1742 
Q 1991 1309 1228 531 
z
" transform="scale(0.015625)"/>
       </defs>
       <use xlink:href="#DejaVuSans-32"/>
       <use xlink:href="#DejaVuSans-30" x="63.623047"/>
       <use xlink:href="#DejaVuSans-30" x="127.246094"/>
       <use xlink:href="#DejaVuSans-30" x="190.869141"/>
       <use xlink:href="#DejaVuSans-30" x="254.492188"/>
      </g>
     </g>
    </g>
    <g id="xtick_4">
     <g id="line2d_4">
      <g>
       <use xlink:href="#m4a6203ce7d" x="221.398732" y="252" style="stroke: #000000; stroke-width: 0.8"/>
      </g>
     </g>
     <g id="text_4">
      <!-- 30000 -->
      <g transform="translate(205.492482 266.598437)scale(0.1 -0.1)">
       <defs>
        <path id="DejaVuSans-33" d="M 2597 2516 
Q 3050 2419 3304 2112 
Q 3559 1806 3559 1356 
Q 3559 666 3084 287 
Q 2609 -91 1734 -91 
Q 1441 -91 1130 -33 
Q 819 25 488 141 
L 488 750 
Q 750 597 1062 519 
Q 1375 441 1716 441 
Q 2309 441 2620 675 
Q 2931 909 2931 1356 
Q 2931 1769 2642 2001 
Q 2353 2234 1838 2234 
L 1294 2234 
L 1294 2753 
L 1863 2753 
Q 2328 2753 2575 2939 
Q 2822 3125 2822 3475 
Q 2822 3834 2567 4026 
Q 2313 4219 1838 4219 
Q 1578 4219 1281 4162 
Q 984 4106 628 3988 
L 628 4550 
Q 988 4650 1302 4700 
Q 1616 4750 1894 4750 
Q 2613 4750 3031 4423 
Q 3450 4097 3450 3541 
Q 3450 3153 3228 2886 
Q 3006 2619 2597 2516 
z
" transform="scale(0.015625)"/>
       </defs>
       <use xlink:href="#DejaVuSans-33"/>
       <use xlink:href="#DejaVuSans-30" x="63.623047"/>
       <use xlink:href="#DejaVuSans-30" x="127.246094"/>
       <use xlink:href="#DejaVuSans-30" x="190.869141"/>
       <use xlink:href="#DejaVuSans-30" x="254.492188"/>
      </g>
     </g>
    </g>
    <g id="xtick_5">
     <g id="line2d_5">
      <g>
       <use xlink:href="#m4a6203ce7d" x="272.125582" y="252" style="stroke: #000000; stroke-width: 0.8"/>
      </g>
     </g>
     <g id="text_5">
      <!-- 40000 -->
      <g transform="translate(256.219332 266.598437)scale(0.1 -0.1)">
       <defs>
        <path id="DejaVuSans-34" d="M 2419 4116 
L 825 1625 
L 2419 1625 
L 2419 4116 
z
M 2253 4666 
L 3047 4666 
L 3047 1625 
L 3713 1625 
L 3713 1100 
L 3047 1100 
L 3047 0 
L 2419 0 
L 2419 1100 
L 313 1100 
L 313 1709 
L 2253 4666 
z
" transform="scale(0.015625)"/>
       </defs>
       <use xlink:href="#DejaVuSans-34"/>
       <use xlink:href="#DejaVuSans-30" x="63.623047"/>
       <use xlink:href="#DejaVuSans-30" x="127.246094"/>
       <use xlink:href="#DejaVuSans-30" x="190.869141"/>
       <use xlink:href="#DejaVuSans-30" x="254.492188"/>
      </g>
     </g>
    </g>
    <g id="xtick_6">
     <g id="line2d_6">
      <g>
       <use xlink:href="#m4a6203ce7d" x="322.852432" y="252" style="stroke: #000000; stroke-width: 0.8"/>
      </g>
     </g>
     <g id="text_6">
      <!-- 50000 -->
      <g transform="translate(306.946182 266.598437)scale(0.1 -0.1)">
       <defs>
        <path id="DejaVuSans-35" d="M 691 4666 
L 3169 4666 
L 3169 4134 
L 1269 4134 
L 1269 2991 
Q 1406 3038 1543 3061 
Q 1681 3084 1819 3084 
Q 2600 3084 3056 2656 
Q 3513 2228 3513 1497 
Q 3513 744 3044 326 
Q 2575 -91 1722 -91 
Q 1428 -91 1123 -41 
Q 819 9 494 109 
L 494 744 
Q 775 591 1075 516 
Q 1375 441 1709 441 
Q 2250 441 2565 725 
Q 2881 1009 2881 1497 
Q 2881 1984 2565 2268 
Q 2250 2553 1709 2553 
Q 1456 2553 1204 2497 
Q 953 2441 691 2322 
L 691 4666 
z
" transform="scale(0.015625)"/>
       </defs>
       <use xlink:href="#DejaVuSans-35"/>
       <use xlink:href="#DejaVuSans-30" x="63.623047"/>
       <use xlink:href="#DejaVuSans-30" x="127.246094"/>
       <use xlink:href="#DejaVuSans-30" x="190.869141"/>
       <use xlink:href="#DejaVuSans-30" x="254.492188"/>
      </g>
     </g>
    </g>
    <g id="xtick_7">
     <g id="line2d_7">
      <g>
       <use xlink:href="#m4a6203ce7d" x="373.579282" y="252" style="stroke: #000000; stroke-width: 0.8"/>
      </g>
     </g>
     <g id="text_7">
      <!-- 60000 -->
      <g transform="translate(357.673032 266.598437)scale(0.1 -0.1)">
       <defs>
        <path id="DejaVuSans-36" d="M 2113 2584 
Q 1688 2584 1439 2293 
Q 1191 2003 1191 1497 
Q 1191 994 1439 701 
Q 1688 409 2113 409 
Q 2538 409 2786 701 
Q 3034 994 3034 1497 
Q 3034 2003 2786 2293 
Q 2538 2584 2113 2584 
z
M 3366 4563 
L 3366 3988 
Q 3128 4100 2886 4159 
Q 2644 4219 2406 4219 
Q 1781 4219 1451 3797 
Q 1122 3375 1075 2522 
Q 1259 2794 1537 2939 
Q 1816 3084 2150 3084 
Q 2853 3084 3261 2657 
Q 3669 2231 3669 1497 
Q 3669 778 3244 343 
Q 2819 -91 2113 -91 
Q 1303 -91 875 529 
Q 447 1150 447 2328 
Q 447 3434 972 4092 
Q 1497 4750 2381 4750 
Q 2619 4750 2861 4703 
Q 3103 4656 3366 4563 
z
" transform="scale(0.015625)"/>
       </defs>
       <use xlink:href="#DejaVuSans-36"/>
       <use xlink:href="#DejaVuSans-30" x="63.623047"/>
       <use xlink:href="#DejaVuSans-30" x="127.246094"/>
       <use xlink:href="#DejaVuSans-30" x="190.869141"/>
       <use xlink:href="#DejaVuSans-30" x="254.492188"/>
      </g>
     </g>
    </g>
    <g id="text_8">
     <!-- Time(ms) -->
     <g transform="translate(197.789844 280.276563)scale(0.1 -0.1)">
      <defs>
       <path id="DejaVuSans-54" d="M -19 4666 
L 3928 4666 
L 3928 4134 
L 2272 4134 
L 2272 0 
L 1638 0 
L 1638 4134 
L -19 4134 
L -19 4666 
z
" transform="scale(0.015625)"/>
       <path id="DejaVuSans-69" d="M 603 3500 
L 1178 3500 
L 1178 0 
L 603 0 
L 603 3500 
z
M 603 4863 
L 1178 4863 
L 1178 4134 
L 603 4134 
L 603 4863 
z
" transform="scale(0.015625)"/>
       <path id="DejaVuSans-6d" d="M 3328 2828 
Q 3544 3216 3844 3400 
Q 4144 3584 4550 3584 
Q 5097 3584 5394 3201 
Q 5691 2819 5691 2113 
L 5691 0 
L 5113 0 
L 5113 2094 
Q 5113 2597 4934 2840 
Q 4756 3084 4391 3084 
Q 3944 3084 3684 2787 
Q 3425 2491 3425 1978 
L 3425 0 
L 2847 0 
L 2847 2094 
Q 2847 2600 2669 2842 
Q 2491 3084 2119 3084 
Q 1678 3084 1418 2786 
Q 1159 2488 1159 1978 
L 1159 0 
L 581 0 
L 581 3500 
L 1159 3500 
L 1159 2956 
Q 1356 3278 1631 3431 
Q 1906 3584 2284 3584 
Q 2666 3584 2933 3390 
Q 3200 3197 3328 2828 
z
" transform="scale(0.015625)"/>
       <path id="DejaVuSans-65" d="M 3597 1894 
L 3597 1613 
L 953 1613 
Q 991 1019 1311 708 
Q 1631 397 2203 397 
Q 2534 397 2845 478 
Q 3156 559 3463 722 
L 3463 178 
Q 3153 47 2828 -22 
Q 2503 -91 2169 -91 
Q 1331 -91 842 396 
Q 353 884 353 1716 
Q 353 2575 817 3079 
Q 1281 3584 2069 3584 
Q 2775 3584 3186 3129 
Q 3597 2675 3597 1894 
z
M 3022 2063 
Q 3016 2534 2758 2815 
Q 2500 3097 2075 3097 
Q 1594 3097 1305 2825 
Q 1016 2553 972 2059 
L 3022 2063 
z
" transform="scale(0.015625)"/>
       <path id="DejaVuSans-28" d="M 1984 4856 
Q 1566 4138 1362 3434 
Q 1159 2731 1159 2009 
Q 1159 1288 1364 580 
Q 1569 -128 1984 -844 
L 1484 -844 
Q 1016 -109 783 600 
Q 550 1309 550 2009 
Q 550 2706 781 3412 
Q 1013 4119 1484 4856 
L 1984 4856 
z
" transform="scale(0.015625)"/>
       <path id="DejaVuSans-73" d="M 2834 3397 
L 2834 2853 
Q 2591 2978 2328 3040 
Q 2066 3103 1784 3103 
Q 1356 3103 1142 2972 
Q 928 2841 928 2578 
Q 928 2378 1081 2264 
Q 1234 2150 1697 2047 
L 1894 2003 
Q 2506 1872 2764 1633 
Q 3022 1394 3022 966 
Q 3022 478 2636 193 
Q 2250 -91 1575 -91 
Q 1294 -91 989 -36 
Q 684 19 347 128 
L 347 722 
Q 666 556 975 473 
Q 1284 391 1588 391 
Q 1994 391 2212 530 
Q 2431 669 2431 922 
Q 2431 1156 2273 1281 
Q 2116 1406 1581 1522 
L 1381 1569 
Q 847 1681 609 1914 
Q 372 2147 372 2553 
Q 372 3047 722 3315 
Q 1072 3584 1716 3584 
Q 2034 3584 2315 3537 
Q 2597 3491 2834 3397 
z
" transform="scale(0.015625)"/>
       <path id="DejaVuSans-29" d="M 513 4856 
L 1013 4856 
Q 1481 4119 1714 3412 
Q 1947 2706 1947 2009 
Q 1947 1309 1714 600 
Q 1481 -109 1013 -844 
L 513 -844 
Q 928 -128 1133 580 
Q 1338 1288 1338 2009 
Q 1338 2731 1133 3434 
Q 928 4138 513 4856 
z
" transform="scale(0.015625)"/>
      </defs>
      <use xlink:href="#DejaVuSans-54"/>
      <use xlink:href="#DejaVuSans-69" x="57.958984"/>
      <use xlink:href="#DejaVuSans-6d" x="85.742188"/>
      <use xlink:href="#DejaVuSans-65" x="183.154297"/>
      <use xlink:href="#DejaVuSans-28" x="244.677734"/>
      <use xlink:href="#DejaVuSans-6d" x="283.691406"/>
      <use xlink:href="#DejaVuSans-73" x="381.103516"/>
      <use xlink:href="#DejaVuSans-29" x="433.203125"/>
     </g>
    </g>
   </g>
   <g id="matplotlib.axis_2">
    <g id="ytick_1">
     <g id="line2d_8">
      <defs>
       <path id="m850528e9a9" d="M 0 0 
L -3.5 0 
" style="stroke: #000000; stroke-width: 0.8"/>
      </defs>
      <g>
       <use xlink:href="#m850528e9a9" x="54" y="252" style="stroke: #000000; stroke-width: 0.8"/>
      </g>
     </g>
     <g id="text_9">
      <!-- −100 -->
      <g transform="translate(19.532812 255.799219)scale(0.1 -0.1)">
       <defs>
        <path id="DejaVuSans-2212" d="M 678 2272 
L 4684 2272 
L 4684 1741 
L 678 1741 
L 678 2272 
z
" transform="scale(0.015625)"/>
       </defs>
       <use xlink:href="#DejaVuSans-2212"/>
       <use xlink:href="#DejaVuSans-31" x="83.789062"/>
       <use xlink:href="#DejaVuSans-30" x="147.412109"/>
       <use xlink:href="#DejaVuSans-30" x="211.035156"/>
      </g>
     </g>
    </g>
    <g id="ytick_2">
     <g id="line2d_9">
      <g>
       <use xlink:href="#m850528e9a9" x="54" y="208.512" style="stroke: #000000; stroke-width: 0.8"/>
      </g>
     </g>
     <g id="text_10">
      <!-- −90 -->
      <g transform="translate(25.895312 212.311219)scale(0.1 -0.1)">
       <defs>
        <path id="DejaVuSans-39" d="M 703 97 
L 703 672 
Q 941 559 1184 500 
Q 1428 441 1663 441 
Q 2288 441 2617 861 
Q 2947 1281 2994 2138 
Q 2813 1869 2534 1725 
Q 2256 1581 1919 1581 
Q 1219 1581 811 2004 
Q 403 2428 403 3163 
Q 403 3881 828 4315 
Q 1253 4750 1959 4750 
Q 2769 4750 3195 4129 
Q 3622 3509 3622 2328 
Q 3622 1225 3098 567 
Q 2575 -91 1691 -91 
Q 1453 -91 1209 -44 
Q 966 3 703 97 
z
M 1959 2075 
Q 2384 2075 2632 2365 
Q 2881 2656 2881 3163 
Q 2881 3666 2632 3958 
Q 2384 4250 1959 4250 
Q 1534 4250 1286 3958 
Q 1038 3666 1038 3163 
Q 1038 2656 1286 2365 
Q 1534 2075 1959 2075 
z
" transform="scale(0.015625)"/>
       </defs>
       <use xlink:href="#DejaVuSans-2212"/>
       <use xlink:href="#DejaVuSans-39" x="83.789062"/>
       <use xlink:href="#DejaVuSans-30" x="147.412109"/>
      </g>
     </g>
    </g>
    <g id="ytick_3">
     <g id="line2d_10">
      <g>
       <use xlink:href="#m850528e9a9" x="54" y="165.024" style="stroke: #000000; stroke-width: 0.8"/>
      </g>
     </g>
     <g id="text_11">
      <!-- −80 -->
      <g transform="translate(25.895312 168.823219)scale(0.1 -0.1)">
       <defs>
        <path id="DejaVuSans-38" d="M 2034 2216 
Q 1584 2216 1326 1975 
Q 1069 1734 1069 1313 
Q 1069 891 1326 650 
Q 1584 409 2034 409 
Q 2484 409 2743 651 
Q 3003 894 3003 1313 
Q 3003 1734 2745 1975 
Q 2488 2216 2034 2216 
z
M 1403 2484 
Q 997 2584 770 2862 
Q 544 3141 544 3541 
Q 544 4100 942 4425 
Q 1341 4750 2034 4750 
Q 2731 4750 3128 4425 
Q 3525 4100 3525 3541 
Q 3525 3141 3298 2862 
Q 3072 2584 2669 2484 
Q 3125 2378 3379 2068 
Q 3634 1759 3634 1313 
Q 3634 634 3220 271 
Q 2806 -91 2034 -91 
Q 1263 -91 848 271 
Q 434 634 434 1313 
Q 434 1759 690 2068 
Q 947 2378 1403 2484 
z
M 1172 3481 
Q 1172 3119 1398 2916 
Q 1625 2713 2034 2713 
Q 2441 2713 2670 2916 
Q 2900 3119 2900 3481 
Q 2900 3844 2670 4047 
Q 2441 4250 2034 4250 
Q 1625 4250 1398 4047 
Q 1172 3844 1172 3481 
z
" transform="scale(0.015625)"/>
       </defs>
       <use xlink:href="#DejaVuSans-2212"/>
       <use xlink:href="#DejaVuSans-38" x="83.789062"/>
       <use xlink:href="#DejaVuSans-30" x="147.412109"/>
      </g>
     </g>
    </g>
    <g id="ytick_4">
     <g id="line2d_11">
      <g>
       <use xlink:href="#m850528e9a9" x="54" y="121.536" style="stroke: #000000; stroke-width: 0.8"/>
      </g>
     </g>
     <g id="text_12">
      <!-- −70 -->
      <g transform="translate(25.895312 125.335219)scale(0.1 -0.1)">
       <defs>
        <path id="DejaVuSans-37" d="M 525 4666 
L 3525 4666 
L 3525 4397 
L 1831 0 
L 1172 0 
L 2766 4134 
L 525 4134 
L 525 4666 
z
" transform="scale(0.015625)"/>
       </defs>
       <use xlink:href="#DejaVuSans-2212"/>
       <use xlink:href="#DejaVuSans-37" x="83.789062"/>
       <use xlink:href="#DejaVuSans-30" x="147.412109"/>
      </g>
     </g>
    </g>
    <g id="ytick_5">
     <g id="line2d_12">
      <g>
       <use xlink:href="#m850528e9a9" x="54" y="78.048" style="stroke: #000000; stroke-width: 0.8"/>
      </g>
     </g>
     <g id="text_13">
      <!-- −60 -->
      <g transform="translate(25.895312 81.847219)scale(0.1 -0.1)">
       <use xlink:href="#DejaVuSans-2212"/>
       <use xlink:href="#DejaVuSans-36" x="83.789062"/>
       <use xlink:href="#DejaVuSans-30" x="147.412109"/>
      </g>
     </g>
    </g>
    <g id="ytick_6">
     <g id="line2d_13">
      <g>
       <use xlink:href="#m850528e9a9" x="54" y="34.56" style="stroke: #000000; stroke-width: 0.8"/>
      </g>
     </g>
     <g id="text_14">
      <!-- −50 -->
      <g transform="translate(25.895312 38.359219)scale(0.1 -0.1)">
       <use xlink:href="#DejaVuSans-2212"/>
       <use xlink:href="#DejaVuSans-35" x="83.789062"/>
       <use xlink:href="#DejaVuSans-30" x="147.412109"/>
      </g>
     </g>
    </g>
    <g id="text_15">
     <!-- Membrane potential (mV) -->
     <g transform="translate(13.453125 207.691719)rotate(-90)scale(0.1 -0.1)">
      <defs>
       <path id="DejaVuSans-4d" d="M 628 4666 
L 1569 4666 
L 2759 1491 
L 3956 4666 
L 4897 4666 
L 4897 0 
L 4281 0 
L 4281 4097 
L 3078 897 
L 2444 897 
L 1241 4097 
L 1241 0 
L 628 0 
L 628 4666 
z
" transform="scale(0.015625)"/>
       <path id="DejaVuSans-62" d="M 3116 1747 
Q 3116 2381 2855 2742 
Q 2594 3103 2138 3103 
Q 1681 3103 1420 2742 
Q 1159 2381 1159 1747 
Q 1159 1113 1420 752 
Q 1681 391 2138 391 
Q 2594 391 2855 752 
Q 3116 1113 3116 1747 
z
M 1159 2969 
Q 1341 3281 1617 3432 
Q 1894 3584 2278 3584 
Q 2916 3584 3314 3078 
Q 3713 2572 3713 1747 
Q 3713 922 3314 415 
Q 2916 -91 2278 -91 
Q 1894 -91 1617 61 
Q 1341 213 1159 525 
L 1159 0 
L 581 0 
L 581 4863 
L 1159 4863 
L 1159 2969 
z
" transform="scale(0.015625)"/>
       <path id="DejaVuSans-72" d="M 2631 2963 
Q 2534 3019 2420 3045 
Q 2306 3072 2169 3072 
Q 1681 3072 1420 2755 
Q 1159 2438 1159 1844 
L 1159 0 
L 581 0 
L 581 3500 
L 1159 3500 
L 1159 2956 
Q 1341 3275 1631 3429 
Q 1922 3584 2338 3584 
Q 2397 3584 2469 3576 
Q 2541 3569 2628 3553 
L 2631 2963 
z
" transform="scale(0.015625)"/>
       <path id="DejaVuSans-61" d="M 2194 1759 
Q 1497 1759 1228 1600 
Q 959 1441 959 1056 
Q 959 750 1161 570 
Q 1363 391 1709 391 
Q 2188 391 2477 730 
Q 2766 1069 2766 1631 
L 2766 1759 
L 2194 1759 
z
M 3341 1997 
L 3341 0 
L 2766 0 
L 2766 531 
Q 2569 213 2275 61 
Q 1981 -91 1556 -91 
Q 1019 -91 701 211 
Q 384 513 384 1019 
Q 384 1609 779 1909 
Q 1175 2209 1959 2209 
L 2766 2209 
L 2766 2266 
Q 2766 2663 2505 2880 
Q 2244 3097 1772 3097 
Q 1472 3097 1187 3025 
Q 903 2953 641 2809 
L 641 3341 
Q 956 3463 1253 3523 
Q 1550 3584 1831 3584 
Q 2591 3584 2966 3190 
Q 3341 2797 3341 1997 
z
" transform="scale(0.015625)"/>
       <path id="DejaVuSans-6e" d="M 3513 2113 
L 3513 0 
L 2938 0 
L 2938 2094 
Q 2938 2591 2744 2837 
Q 2550 3084 2163 3084 
Q 1697 3084 1428 2787 
Q 1159 2491 1159 1978 
L 1159 0 
L 581 0 
L 581 3500 
L 1159 3500 
L 1159 2956 
Q 1366 3272 1645 3428 
Q 1925 3584 2291 3584 
Q 2894 3584 3203 3211 
Q 3513 2838 3513 2113 
z
" transform="scale(0.015625)"/>
       <path id="DejaVuSans-20" transform="scale(0.015625)"/>
       <path id="DejaVuSans-70" d="M 1159 525 
L 1159 -1331 
L 581 -1331 
L 581 3500 
L 1159 3500 
L 1159 2969 
Q 1341 3281 1617 3432 
Q 1894 3584 2278 3584 
Q 2916 3584 3314 3078 
Q 3713 2572 3713 1747 
Q 3713 922 3314 415 
Q 2916 -91 2278 -91 
Q 1894 -91 1617 61 
Q 1341 213 1159 525 
z
M 3116 1747 
Q 3116 2381 2855 2742 
Q 2594 3103 2138 3103 
Q 1681 3103 1420 2742 
Q 1159 2381 1159 1747 
Q 1159 1113 1420 752 
Q 1681 391 2138 391 
Q 2594 391 2855 752 
Q 3116 1113 3116 1747 
z
" transform="scale(0.015625)"/>
       <path id="DejaVuSans-6f" d="M 1959 3097 
Q 1497 3097 1228 2736 
Q 959 2375 959 1747 
Q 959 1119 1226 758 
Q 1494 397 1959 397 
Q 2419 397 2687 759 
Q 2956 1122 2956 1747 
Q 2956 2369 2687 2733 
Q 2419 3097 1959 3097 
z
M 1959 3584 
Q 2709 3584 3137 3096 
Q 3566 2609 3566 1747 
Q 3566 888 3137 398 
Q 2709 -91 1959 -91 
Q 1206 -91 779 398 
Q 353 888 353 1747 
Q 353 2609 779 3096 
Q 1206 3584 1959 3584 
z
" transform="scale(0.015625)"/>
       <path id="DejaVuSans-74" d="M 1172 4494 
L 1172 3500 
L 2356 3500 
L 2356 3053 
L 1172 3053 
L 1172 1153 
Q 1172 725 1289 603 
Q 1406 481 1766 481 
L 2356 481 
L 2356 0 
L 1766 0 
Q 1100 0 847 248 
Q 594 497 594 1153 
L 594 3053 
L 172 3053 
L 172 3500 
L 594 3500 
L 594 4494 
L 1172 4494 
z
" transform="scale(0.015625)"/>
       <path id="DejaVuSans-6c" d="M 603 4863 
L 1178 4863 
L 1178 0 
L 603 0 
L 603 4863 
z
" transform="scale(0.015625)"/>
       <path id="DejaVuSans-56" d="M 1831 0 
L 50 4666 
L 709 4666 
L 2188 738 
L 3669 4666 
L 4325 4666 
L 2547 0 
L 1831 0 
z
" transform="scale(0.015625)"/>
      </defs>
      <use xlink:href="#DejaVuSans-4d"/>
      <use xlink:href="#DejaVuSans-65" x="86.279297"/>
      <use xlink:href="#DejaVuSans-6d" x="147.802734"/>
      <use xlink:href="#DejaVuSans-62" x="245.214844"/>
      <use xlink:href="#DejaVuSans-72" x="308.691406"/>
      <use xlink:href="#DejaVuSans-61" x="349.804688"/>
      <use xlink:href="#DejaVuSans-6e" x="411.083984"/>
      <use xlink:href="#DejaVuSans-65" x="474.462891"/>
      <use xlink:href="#DejaVuSans-20" x="535.986328"/>
      <use xlink:href="#DejaVuSans-70" x="567.773438"/>
      <use xlink:href="#DejaVuSans-6f" x="631.25"/>
      <use xlink:href="#DejaVuSans-74" x="692.431641"/>
      <use xlink:href="#DejaVuSans-65" x="731.640625"/>
      <use xlink:href="#DejaVuSans-6e" x="793.164062"/>
      <use xlink:href="#DejaVuSans-74" x="856.542969"/>
      <use xlink:href="#DejaVuSans-69" x="895.751953"/>
      <use xlink:href="#DejaVuSans-61" x="923.535156"/>
      <use xlink:href="#DejaVuSans-6c" x="984.814453"/>
      <use xlink:href="#DejaVuSans-20" x="1012.597656"/>
      <use xlink:href="#DejaVuSans-28" x="1044.384766"/>
      <use xlink:href="#DejaVuSans-6d" x="1083.398438"/>
      <use xlink:href="#DejaVuSans-56" x="1180.810547"/>
      <use xlink:href="#DejaVuSans-29" x="1249.21875"/>
     </g>
    </g>
   </g>
   <g id="line2d_14">
    <path d="M 69.218182 178.0704 
L 69.319636 174.511539 
L 69.347536 174.577241 
L 69.497182 175.716287 
L 69.591027 176.4031 
L 69.646827 176.089563 
L 70.052645 173.269396 
L 70.151564 173.305782 
L 70.164245 173.3247 
L 70.339255 173.820187 
L 70.793264 175.987511 
L 71.090018 177.368652 
L 71.133136 177.172415 
L 71.252345 175.000362 
L 71.6328 168.703079 
L 71.833173 168.100952 
L 71.932091 168.222658 
L 72.127391 168.934615 
L 72.185727 169.152511 
L 72.236455 168.933516 
L 72.660027 166.195385 
L 72.703145 166.225691 
L 72.8325 166.576042 
L 73.114036 168.148541 
L 74.488745 176.580664 
L 74.678973 177.272649 
L 74.727164 177.135404 
L 74.8971 175.607295 
L 75.209073 173.619136 
L 75.389155 173.439968 
L 75.394227 173.442143 
L 75.546409 173.636129 
L 75.564164 173.647395 
L 75.597136 173.533047 
L 75.718882 171.981876 
L 76.000418 169.453184 
L 76.1247 169.301687 
L 76.157673 169.324954 
L 76.299709 169.63672 
L 76.388482 169.870963 
L 76.439209 169.712027 
L 76.6827 167.680574 
L 76.9059 166.926688 
L 77.025109 166.779295 
L 77.233091 165.551462 
L 77.367518 164.178555 
L 77.702318 160.110509 
L 77.829136 159.882602 
L 77.864645 159.90983 
L 77.991464 160.251061 
L 78.255245 161.750087 
L 80.226 174.662973 
L 80.852482 176.738802 
L 81.478964 178.087186 
L 82.146027 179.014037 
L 82.917082 179.705949 
L 83.147891 179.847051 
L 83.170718 179.764163 
L 83.277245 178.453907 
L 83.642482 174.446483 
L 83.863145 173.935024 
L 84.002645 174.001621 
L 84.230918 174.446341 
L 84.882764 176.394274 
L 85.663964 178.381996 
L 85.988618 178.981347 
L 86.008909 178.864956 
L 86.145873 176.169794 
L 86.424873 172.741221 
L 86.612564 172.339697 
L 86.6151 172.340219 
L 86.734309 172.481782 
L 86.982873 173.228863 
L 88.443818 178.194216 
L 89.077909 179.368656 
L 89.744973 180.150976 
L 90.523636 180.719418 
L 90.696109 180.763747 
L 90.718936 180.706829 
L 90.835609 179.933825 
L 91.264255 175.068811 
L 91.591445 169.966239 
L 91.796891 169.336749 
L 91.903418 169.441849 
L 92.103791 170.072729 
L 92.339673 171.118488 
L 92.395473 170.804641 
L 92.796218 168.068011 
L 92.8926 168.08974 
L 92.910355 168.113942 
L 93.077755 168.570831 
L 93.458209 170.420403 
L 94.307891 174.691802 
L 94.338327 174.621598 
L 94.457536 173.600968 
L 94.855745 168.177058 
L 95.144891 164.035433 
L 95.322436 163.553241 
L 95.335118 163.557629 
L 95.439109 163.736542 
L 95.6547 164.676674 
L 96.230455 168.511605 
L 97.085209 173.635975 
L 97.734518 176.249539 
L 98.353391 177.877559 
L 98.822618 178.695746 
L 98.842909 178.652198 
L 98.924073 177.874958 
L 99.230973 172.050069 
L 99.535336 167.431623 
L 99.743318 166.760209 
L 99.847309 166.85583 
L 100.037536 167.453086 
L 100.501691 169.849811 
L 101.036864 172.66559 
L 101.074909 172.450615 
L 101.326009 168.7486 
L 101.7648 161.296415 
L 101.843427 161.209507 
L 101.891618 161.266134 
L 102.036191 161.788284 
L 102.381136 164.088557 
L 102.609409 165.628329 
L 102.667745 165.414239 
L 103.0482 163.532155 
L 103.071027 163.542317 
L 103.1877 163.764011 
L 103.431191 164.832141 
L 104.181955 169.399642 
L 104.242827 168.685156 
L 104.600455 164.209335 
L 104.6943 164.091393 
L 104.739955 164.135013 
L 104.881991 164.562591 
L 105.2244 166.482054 
L 106.299818 172.604958 
L 106.959273 175.031863 
L 107.197691 175.686831 
L 107.223055 175.490099 
L 107.377773 171.770857 
L 107.715109 165.139713 
L 107.925627 164.271739 
L 108.024545 164.349455 
L 108.197018 164.909953 
L 108.6003 167.169826 
L 109.627527 172.930959 
L 109.6326 172.925749 
L 109.685864 172.580235 
L 109.952182 168.754245 
L 110.855127 153.714784 
L 110.875418 153.723188 
L 110.974336 153.942534 
L 111.182318 155.086832 
L 111.694664 159.492122 
L 112.767545 168.379001 
L 113.462509 172.326328 
L 113.726291 173.428431 
L 113.7618 173.212659 
L 114.685036 163.635434 
L 114.735764 163.67226 
L 114.804245 163.783863 
L 114.834682 163.631868 
L 115.293764 159.850439 
L 115.369855 159.939959 
L 115.534718 160.561533 
L 115.7148 161.4632 
L 115.780745 161.26044 
L 116.118082 159.958462 
L 116.138373 159.967766 
L 116.252509 160.186627 
L 116.430055 160.863618 
L 116.490927 160.566495 
L 116.863773 158.286335 
L 116.881527 158.292969 
L 116.980445 158.495239 
L 117.183355 159.458446 
L 117.254373 159.050186 
L 117.563809 157.254209 
L 117.647509 157.377122 
L 117.817445 158.171046 
L 118.233409 161.477025 
L 119.237809 169.261829 
L 119.909945 172.758096 
L 120.551645 174.992139 
L 121.200955 176.489351 
L 121.898455 177.556044 
L 122.702482 178.380512 
L 122.907927 178.544336 
L 122.925682 178.431494 
L 123.0525 175.73242 
L 123.341645 171.625465 
L 123.547091 171.052643 
L 123.663764 171.149911 
L 123.884427 171.736567 
L 125.218555 176.384276 
L 125.276891 176.073029 
L 125.426536 173.556732 
L 125.8146 165.30624 
L 126.017509 164.551614 
L 126.111355 164.652646 
L 126.293973 165.308284 
L 126.750518 168.018914 
L 127.691509 173.339571 
L 128.348427 175.810812 
L 128.979982 177.37277 
L 129.6369 178.428423 
L 130.372445 179.195117 
L 131.285536 179.817924 
L 131.648236 179.982408 
L 131.668527 179.916206 
L 131.775055 178.863594 
L 131.919627 175.512477 
L 132.256964 169.130872 
L 132.470018 168.262932 
L 132.571473 168.340803 
L 132.749018 168.904487 
L 133.182736 171.231158 
L 134.116118 176.032877 
L 134.745136 178.128906 
L 135.351327 179.419339 
L 135.982882 180.260141 
L 136.700673 180.847643 
L 137.626445 181.306368 
L 139.034127 181.732645 
L 140.659936 182.020174 
L 140.743636 181.18965 
L 141.210327 176.233743 
L 141.430991 175.795028 
L 141.580636 175.86963 
L 141.826664 176.326221 
L 142.095518 177.017492 
L 142.133564 176.769093 
L 142.650982 171.996669 
L 142.760045 172.108727 
L 142.975636 172.76857 
L 144.586227 178.734061 
L 144.611591 178.679679 
L 144.7029 177.798336 
L 144.819573 174.432839 
L 145.179736 162.950081 
L 145.390255 161.622567 
L 145.448591 161.638699 
L 145.479027 161.692421 
L 145.631209 162.307105 
L 145.988836 164.913209 
L 146.772573 170.740668 
L 146.803009 170.715385 
L 146.972945 170.257882 
L 147.322964 169.022811 
L 147.703418 166.069162 
L 147.815018 165.978812 
L 147.850527 166.008005 
L 147.997636 166.353079 
L 148.304536 167.774084 
L 149.915127 176.01545 
L 150.419864 177.509916 
L 150.437618 177.461389 
L 150.531464 176.369772 
L 150.873873 172.953553 
L 151.114827 171.612879 
L 151.4547 169.003322 
L 151.619564 168.799189 
L 151.634782 168.806017 
L 151.771745 169.013521 
L 152.0406 169.927114 
L 152.829409 173.430478 
L 152.918182 173.123393 
L 153.476182 170.362313 
L 153.605536 170.47965 
L 153.838882 171.08364 
L 154.115345 172.019597 
L 154.178755 171.827838 
L 154.706318 169.68884 
L 154.840745 169.809424 
L 155.076627 170.412258 
L 155.644773 172.655133 
L 156.585764 176.10303 
L 157.262973 177.769817 
L 157.930036 178.848373 
L 158.657973 179.61023 
L 159.215973 180.001444 
L 159.236264 179.953841 
L 159.327573 179.17712 
L 159.672518 173.752369 
L 159.979418 168.935094 
L 160.179791 168.334899 
L 160.253345 168.000064 
L 160.428355 165.911096 
L 160.806273 159.582 
L 161.049764 157.921671 
L 161.316082 156.002604 
L 161.369345 155.994375 
L 161.409927 156.057845 
L 161.551964 156.65773 
L 161.866473 159.185038 
L 163.218355 170.810404 
L 163.865127 174.241739 
L 164.481464 176.389672 
L 164.615891 176.701465 
L 164.661545 176.577529 
L 164.808655 175.219792 
L 165.148527 172.755848 
L 165.351436 172.480391 
L 165.468109 172.501563 
L 165.483327 172.394008 
L 165.589855 170.399231 
L 165.988064 163.195878 
L 166.173218 162.634668 
L 166.180827 162.636807 
L 166.279745 162.795787 
L 166.485191 163.674851 
L 167.030509 167.300263 
L 167.603727 170.914807 
L 167.641773 170.79375 
L 167.834536 168.961767 
L 168.080564 167.775055 
L 168.169336 167.773574 
L 168.199773 167.811336 
L 168.367173 168.273621 
L 168.686755 169.679586 
L 168.757773 169.344879 
L 169.153445 166.97652 
L 169.259973 167.059943 
L 169.447664 167.615531 
L 169.888991 169.799077 
L 170.685409 173.76531 
L 170.713309 173.678244 
L 170.794473 172.504557 
L 171.283991 164.315632 
L 171.418418 164.062371 
L 171.451391 164.083292 
L 171.578209 164.38205 
L 171.852136 165.74256 
L 172.052509 166.300426 
L 172.060118 166.297203 
L 172.115918 166.125802 
L 172.306145 164.422295 
L 172.592755 162.803322 
L 172.704355 162.73574 
L 172.737327 162.764239 
L 172.886973 163.112386 
L 173.013791 163.499453 
L 173.069591 163.346364 
L 173.510918 160.6304 
L 173.860936 158.554207 
L 173.949709 158.608755 
L 173.957318 158.622768 
L 174.114573 159.169993 
L 174.451909 161.331452 
L 175.859591 171.266954 
L 175.887491 171.237961 
L 176.011773 170.747964 
L 176.420127 168.2361 
L 176.965445 162.509771 
L 177.125236 162.308815 
L 177.145527 162.318773 
L 177.282491 162.545283 
L 177.5412 163.508873 
L 178.063691 166.282804 
L 178.160073 165.893507 
L 178.492336 164.496118 
L 178.603936 164.559303 
L 178.776409 165.037422 
L 179.136573 166.840568 
L 180.447873 173.84459 
L 180.458018 173.838005 
L 180.529036 173.580177 
L 181.109864 170.946926 
L 181.218927 170.789379 
L 181.393936 166.914275 
L 181.776927 160.313959 
L 181.954473 158.468313 
L 182.233473 155.991372 
L 182.299418 155.943073 
L 182.347609 156.005104 
L 182.492182 156.559432 
L 182.816836 158.90331 
L 183.047645 160.846659 
L 183.100909 160.400208 
L 183.417955 157.667194 
L 183.478827 157.69965 
L 183.501655 157.745823 
L 183.6513 158.392532 
L 183.831382 159.216812 
L 183.889718 159.141169 
L 184.219445 158.704302 
L 184.2651 158.546821 
L 184.450255 156.624385 
L 184.681064 155.459512 
L 184.757155 155.492557 
L 184.777445 155.527973 
L 184.9347 156.095307 
L 185.274573 158.348869 
L 186.030409 164.105752 
L 186.101427 163.891124 
L 186.514855 162.184358 
L 186.537682 162.194632 
L 186.661964 162.418765 
L 186.755809 162.706114 
L 186.796391 162.493758 
L 187.2783 156.985782 
L 187.521791 154.848089 
L 187.580127 154.810714 
L 187.628318 154.877404 
L 187.772891 155.468452 
L 188.107691 158.012386 
L 188.427273 160.56951 
L 188.490682 160.400605 
L 188.835627 159.096398 
L 188.876209 159.124888 
L 189.005564 159.458076 
L 189.041073 159.594414 
L 189.071509 159.314945 
L 189.449427 155.127543 
L 189.4545 155.128407 
L 189.533127 155.269557 
L 189.642191 155.711508 
L 189.692918 155.425944 
L 190.030255 153.03694 
L 190.053082 153.049713 
L 190.149464 153.304019 
L 190.362518 154.657625 
L 190.390418 154.851582 
L 190.433536 154.367777 
L 190.798773 149.569994 
L 190.912909 149.312562 
L 191.232491 147.780924 
L 191.283218 147.834805 
L 191.412573 148.333841 
L 191.683964 150.480158 
L 192.008618 153.466479 
L 192.074564 153.180689 
L 192.378927 151.583392 
L 192.401755 151.595311 
L 192.503209 151.838895 
L 192.721336 153.091486 
L 193.309773 158.187181 
L 194.146773 164.775458 
L 194.151845 164.772917 
L 194.205109 164.56804 
L 194.661655 160.946512 
L 195.037036 154.249515 
L 195.199364 152.966044 
L 195.640691 147.331472 
L 196.1505 140.826572 
L 196.361018 139.698346 
L 196.437109 139.794836 
L 196.586755 140.511752 
L 196.908873 143.401051 
L 197.865082 152.29906 
L 198.146618 153.409789 
L 198.570191 156.261191 
L 198.664036 156.690485 
L 198.719836 156.567147 
L 199.102827 155.149957 
L 199.168773 155.215582 
L 199.328564 155.710873 
L 199.660827 157.63348 
L 200.122445 160.629549 
L 200.190927 160.471887 
L 201.071045 157.17846 
L 201.126845 157.220716 
L 201.281564 157.592461 
L 201.585927 159.034301 
L 202.105882 162.027698 
L 202.189582 161.831333 
L 202.263136 160.815099 
L 202.800845 152.462494 
L 203.538927 143.979299 
L 203.604873 143.947982 
L 203.650527 144.00797 
L 203.792564 144.537048 
L 204.094391 146.716216 
L 205.141909 155.429881 
L 205.212927 155.398843 
L 205.410764 155.409894 
L 205.573091 155.764472 
L 205.628891 155.947134 
L 205.656791 155.700988 
L 206.037245 148.088078 
L 206.280736 145.476338 
L 206.349218 145.398439 
L 206.399945 145.467041 
L 206.539445 146.061899 
L 206.564809 146.20285 
L 206.600318 145.792897 
L 207.067009 138.429016 
L 207.130418 138.372379 
L 207.181145 138.443122 
L 207.318109 139.046362 
L 207.609791 141.573396 
L 208.555855 151.614795 
L 208.652236 151.236774 
L 209.253355 148.095608 
L 209.2635 148.098378 
L 209.370027 148.263699 
L 209.567864 149.102222 
L 209.973682 152.009578 
L 210.308482 154.684593 
L 210.371891 154.379234 
L 210.719373 152.51563 
L 210.810682 152.621986 
L 210.980618 153.294245 
L 211.241864 154.867861 
L 211.317955 154.50574 
L 211.683191 152.574822 
L 211.779573 152.663227 
L 211.944436 153.255305 
L 212.299527 155.554636 
L 212.679982 158.318905 
L 212.743391 158.055596 
L 213.111164 156.15881 
L 213.126382 156.164022 
L 213.227836 156.346946 
L 213.435818 157.306321 
L 213.983673 161.217156 
L 214.929736 167.461398 
L 214.939882 167.472429 
L 214.970318 167.305162 
L 215.114891 164.703586 
L 215.251855 159.695654 
L 215.579045 148.552108 
L 215.789564 147.075199 
L 215.842827 147.099116 
L 215.868191 147.149793 
L 216.012764 147.806422 
L 216.347564 150.621538 
L 217.866845 164.268019 
L 218.059609 165.532392 
L 218.102727 165.142298 
L 218.485718 161.117315 
L 218.5542 161.097098 
L 218.597318 161.151804 
L 218.757109 161.671292 
L 219.157855 163.948635 
L 220.180009 169.641227 
L 220.892727 172.351231 
L 221.450727 173.814129 
L 221.468482 173.79583 
L 221.549645 173.427368 
L 222.059455 169.0795 
L 222.726518 160.290089 
L 222.893918 159.946104 
L 222.911673 159.95386 
L 223.028345 160.162199 
L 223.264227 161.158355 
L 223.878027 165.018698 
L 224.819018 170.435944 
L 225.2223 172.150245 
L 225.255273 171.997557 
L 225.442964 169.372697 
L 225.704209 167.428242 
L 225.828491 167.3014 
L 225.861464 167.32344 
L 226.011109 167.625906 
L 226.345909 168.93669 
L 226.718755 170.518537 
L 226.774555 170.376766 
L 227.294509 168.10421 
L 227.373136 168.166499 
L 227.563364 168.604745 
L 228.002155 170.324009 
L 228.230427 171.26392 
L 228.2634 170.976123 
L 228.433336 166.434317 
L 228.722482 161.645057 
L 228.9051 158.561842 
L 229.321064 152.855989 
L 229.432664 152.651859 
L 229.473245 152.689164 
L 229.600064 153.095664 
L 229.871455 154.887955 
L 230.672945 161.706271 
L 230.756645 161.088654 
L 231.243627 155.119285 
L 231.309573 155.127911 
L 231.340009 155.175277 
L 231.378055 155.22723 
L 231.4161 155.085245 
L 231.560673 153.305074 
L 231.986782 148.633313 
L 232.067945 148.559089 
L 232.1136 148.610096 
L 232.250564 149.078685 
L 232.537173 151.031588 
L 233.531427 160.133706 
L 233.896664 162.918634 
L 233.947391 162.809452 
L 234.287264 161.14996 
L 234.665182 155.825502 
L 234.751418 155.71617 
L 234.799609 155.76991 
L 234.941645 156.272017 
L 235.2663 158.447286 
L 236.679055 168.555714 
L 236.907327 169.681381 
L 236.952982 169.446516 
L 237.176182 166.182885 
L 237.4425 164.163778 
L 237.587073 163.993325 
L 237.612436 164.007937 
L 237.754473 164.266935 
L 238.043618 165.370666 
L 238.766482 168.94336 
L 238.827355 168.47585 
L 239.258536 164.299511 
L 239.344773 164.263666 
L 239.385355 164.307104 
L 239.545145 164.74407 
L 239.923064 166.599297 
L 240.285764 168.464185 
L 240.339027 168.273039 
L 240.795573 165.837918 
L 240.823473 165.84986 
L 240.960436 166.078371 
L 241.241973 167.08959 
L 243.040255 174.407668 
L 243.732682 175.984633 
L 244.463155 177.111615 
L 245.0034 177.714463 
L 245.018618 177.638401 
L 245.125145 175.636005 
L 245.429509 171.428361 
L 245.634955 170.877665 
L 245.754164 170.972666 
L 245.977364 171.543247 
L 247.841591 177.217614 
L 248.531482 178.275642 
L 249.3 179.051207 
L 250.256209 179.69204 
L 251.608091 180.312874 
L 252.642927 180.66142 
L 252.655609 180.613942 
L 252.7317 179.628595 
L 253.594064 163.612388 
L 253.703127 163.453529 
L 253.743709 163.489451 
L 253.878136 163.876095 
L 254.172355 165.561355 
L 255.653591 174.872867 
L 256.277536 177.126099 
L 256.886264 178.542241 
L 257.444264 179.356699 
L 257.449336 179.352733 
L 257.520355 179.121245 
L 258.217855 176.012971 
L 258.397936 176.056303 
L 258.656645 176.410212 
L 259.262836 177.731383 
L 260.150564 179.48196 
L 260.792264 180.297303 
L 260.7948 180.295296 
L 260.845527 180.083651 
L 261.023073 177.871285 
L 261.855 168.587721 
L 262.151755 167.034665 
L 262.235455 167.032398 
L 262.265891 167.071443 
L 262.423145 167.536551 
L 262.765555 169.417981 
L 263.470664 173.676955 
L 263.526464 173.550287 
L 263.838436 171.876062 
L 264.343173 167.383285 
L 264.444627 167.472263 
L 264.627245 168.055264 
L 265.058427 170.368724 
L 265.408445 171.78231 
L 265.948691 172.226797 
L 266.072973 172.484208 
L 266.118627 172.346675 
L 266.331682 170.576549 
L 266.592927 169.446661 
L 266.719745 169.418086 
L 266.740036 169.436397 
L 266.942945 169.723956 
L 267.008891 169.569956 
L 267.480655 168.170308 
L 267.513627 168.186969 
L 267.665809 168.436917 
L 267.954955 169.437729 
L 268.693036 172.76673 
L 268.789418 172.47457 
L 269.180018 170.046362 
L 269.489455 165.898372 
L 269.935855 161.443971 
L 270.014482 161.553803 
L 270.184418 162.29111 
L 270.607991 165.388636 
L 271.589564 172.352731 
L 272.238873 175.395259 
L 272.796873 177.069273 
L 272.867891 177.040323 
L 272.890718 176.999456 
L 273.083482 176.331949 
L 273.451255 175.325085 
L 273.694745 175.193758 
L 273.938236 175.329782 
L 274.308545 175.839185 
L 275.143009 177.482318 
L 275.262218 177.684984 
L 275.305336 177.567052 
L 275.449909 176.267473 
L 275.794855 173.781428 
L 275.997764 173.509475 
L 276.147409 173.640643 
L 276.368073 174.070394 
L 276.413727 173.868047 
L 276.565909 171.7121 
L 276.903245 168.010145 
L 277.106155 167.575342 
L 277.225364 167.692 
L 277.3674 167.98695 
L 277.418127 167.823514 
L 277.636255 165.914152 
L 277.874673 164.924019 
L 277.973591 164.973318 
L 277.9812 164.985763 
L 278.1486 165.49803 
L 278.298245 166.211969 
L 278.336291 165.842229 
L 278.737036 160.965145 
L 278.792836 160.979881 
L 278.823273 161.033948 
L 278.972918 161.648028 
L 279.343227 164.362405 
L 279.495409 165.297984 
L 279.551209 165.153654 
L 279.809918 163.483877 
L 280.225882 158.601038 
L 280.281682 158.586923 
L 280.3248 158.649476 
L 280.471909 159.225236 
L 280.811782 161.677276 
L 282.034309 170.850916 
L 282.495927 173.060272 
L 282.521291 173.030122 
L 282.615136 172.546211 
L 283.091973 169.841116 
L 283.236545 169.822989 
L 283.244155 169.829634 
L 283.424236 170.147074 
L 283.802155 171.376319 
L 285.105845 175.812326 
L 285.795736 177.294021 
L 286.505918 178.309205 
L 286.959927 178.726727 
L 286.982755 178.695532 
L 287.096891 178.251079 
L 287.713227 174.224514 
L 288.065782 168.734864 
L 288.266155 168.207584 
L 288.377755 168.330661 
L 288.595882 169.018586 
L 289.214755 171.974923 
L 290.039073 175.435863 
L 290.640191 177.119695 
L 290.645264 177.116772 
L 290.7036 176.9107 
L 290.825345 175.553183 
L 291.938809 158.298524 
L 292.012364 158.133623 
L 292.149327 155.479929 
L 292.438473 151.621081 
L 292.539927 151.411468 
L 292.585582 151.460869 
L 292.7124 151.949918 
L 292.9914 154.121883 
L 293.993264 163.927807 
L 294.066818 163.132915 
L 294.350891 160.3644 
L 294.411764 160.326761 
L 294.459955 160.393837 
L 294.6096 160.989382 
L 294.987518 163.667904 
L 295.966555 170.477905 
L 296.633618 173.560298 
L 297.280391 175.556213 
L 297.942382 176.911061 
L 298.665245 177.89561 
L 299.514927 178.675592 
L 300.334173 179.181294 
L 300.341782 179.168764 
L 300.428018 178.758832 
L 301.097618 174.665014 
L 301.272627 174.656835 
L 301.493291 174.938935 
L 301.980273 176.021163 
L 302.987209 178.17407 
L 303.705 179.177178 
L 304.478591 179.880408 
L 305.439873 180.444244 
L 306.728345 180.939007 
L 306.771464 180.600972 
L 307.326927 174.785508 
L 307.466427 174.722553 
L 307.484182 174.735297 
L 307.656655 175.022313 
L 308.059936 176.248758 
L 309.008536 179.056189 
L 309.645164 180.24549 
L 310.291936 180.99982 
L 311.030018 181.518279 
L 311.149227 181.569359 
L 311.166982 181.476357 
L 311.278582 179.527669 
L 311.499245 172.779403 
L 311.877164 164.15596 
L 312.092755 162.765285 
L 312.151091 162.779129 
L 312.181527 162.832185 
L 312.331173 163.433075 
L 312.470673 164.16529 
L 312.529009 163.905867 
L 312.833373 162.171185 
L 312.861273 162.18755 
L 312.9678 162.463706 
L 313.206218 163.863009 
L 313.282309 164.139209 
L 313.338109 164.01183 
L 313.393909 163.146612 
L 313.817482 155.664068 
L 313.8885 155.574464 
L 313.939227 155.645228 
L 314.078727 156.263543 
L 314.400845 158.953256 
L 315.704536 170.482049 
L 316.351309 174.050142 
L 316.965109 176.273233 
L 317.581445 177.716906 
L 318.235827 178.703758 
L 318.984055 179.431975 
L 319.128627 179.53071 
L 319.153991 179.432465 
L 319.2732 177.865772 
L 319.625755 174.066773 
L 319.851491 173.490745 
L 319.993527 173.541492 
L 320.176145 173.835596 
L 320.211655 173.640117 
L 320.774727 169.379795 
L 320.777264 169.380094 
L 320.896473 169.509827 
L 321.122209 170.185317 
L 321.431645 171.392016 
L 321.502664 171.204691 
L 321.959209 169.698571 
L 322.093636 169.807111 
L 322.319373 170.365456 
L 322.573009 171.15466 
L 322.638955 171.020813 
L 323.027018 170.007242 
L 323.049845 170.017796 
L 323.194418 170.242654 
L 323.481027 171.209805 
L 324.244473 174.359242 
L 324.3231 174.184856 
L 324.815155 172.7595 
L 324.967336 172.862924 
L 325.218436 173.379287 
L 325.647082 174.572764 
L 325.720636 174.400728 
L 326.344582 172.266282 
L 326.362336 172.272428 
L 326.534809 172.467168 
L 326.854391 173.241215 
L 327.772555 176.100169 
L 327.848645 175.828822 
L 328.464982 172.514128 
L 328.609555 172.621048 
L 328.883482 173.122258 
L 328.9545 172.927036 
L 329.218282 171.196986 
L 329.788964 165.04102 
L 329.887882 165.12598 
L 330.062891 165.703506 
L 330.468709 168.003075 
L 331.254982 172.638873 
L 331.287955 172.491714 
L 331.526373 169.616982 
L 331.752109 168.585381 
L 331.845955 168.61383 
L 331.861173 168.635707 
L 331.9956 168.94725 
L 332.038718 168.710134 
L 332.127491 166.788452 
L 332.647445 154.02764 
L 332.842745 152.961771 
L 332.845282 152.962007 
L 332.921373 153.08961 
L 333.086236 153.959978 
L 333.489518 157.602171 
L 334.164191 163.815371 
L 334.209845 163.716604 
L 334.597909 162.313641 
L 334.666391 162.379442 
L 334.831255 162.864869 
L 335.188882 164.781229 
L 336.479891 172.007841 
L 337.167245 174.491219 
L 337.839382 176.128662 
L 338.544491 177.281445 
L 339.343445 178.164514 
L 340.330091 178.916093 
L 341.674364 179.646471 
L 343.594391 180.422815 
L 345.950673 181.139216 
L 346.021691 180.945905 
L 346.209382 179.464774 
L 346.5594 177.364997 
L 346.800355 176.992455 
L 346.985509 177.048513 
L 347.264509 177.428297 
L 348.976555 180.417746 
L 349.006991 180.257212 
L 349.182 177.529106 
L 349.897255 168.365917 
L 350.013927 168.251353 
L 350.049436 168.278485 
L 350.196545 168.612468 
L 350.513591 170.022272 
L 350.954918 172.121934 
L 351.013255 172.04286 
L 351.485018 171.044405 
L 351.538282 171.081812 
L 351.606764 171.142358 
L 351.639736 171.040479 
L 351.764018 169.74499 
L 352.058236 167.461082 
L 352.261145 166.67405 
L 352.583264 165.379802 
L 352.6974 165.441176 
L 352.869873 165.92674 
L 353.232573 167.76842 
L 354.564164 174.888951 
L 355.210936 177.02101 
L 355.842491 178.378537 
L 356.507018 179.297752 
L 357.267927 179.972043 
L 357.846218 180.309398 
L 357.863973 180.265337 
L 357.960355 179.477455 
L 358.394073 175.877114 
L 358.622345 175.483205 
L 358.784673 175.552824 
L 359.043382 175.981228 
L 359.844873 177.945536 
L 359.943791 178.162668 
L 359.974227 177.974982 
L 360.567736 172.479151 
L 360.582955 172.48302 
L 360.709773 172.655757 
L 360.976091 173.509648 
L 362.363482 178.457981 
L 362.563855 178.89097 
L 362.6019 178.764335 
L 362.738864 177.18536 
L 363.050836 174.525951 
L 363.248673 174.231953 
L 363.388173 174.376753 
L 363.504845 174.575782 
L 363.553036 174.453236 
L 364.100891 172.298921 
L 364.151618 172.327192 
L 364.324091 172.625266 
L 364.674109 173.783402 
L 364.897309 174.586078 
L 364.9455 174.40915 
L 365.445164 171.402579 
L 365.498427 171.43448 
L 365.660755 171.762459 
L 366.015845 173.111387 
L 367.185109 177.718369 
L 367.816664 179.242578 
L 368.443145 180.202026 
L 369.127964 180.852289 
L 369.9675 181.335346 
L 371.164664 181.748435 
L 371.649109 181.802843 
L 371.656718 181.770894 
L 371.758173 180.731863 
L 372.186818 176.356007 
L 373.158245 166.846664 
L 373.206436 166.882863 
L 373.345936 167.264193 
L 373.581818 168.469084 
L 373.581818 168.469084 
" clip-path="url(#pe7fa78ac22)" style="fill: none; stroke: #000000; stroke-width: 1.5; stroke-linecap: square"/>
   </g>
   <g id="line2d_15">
    <path d="M 69.218182 178.0704 
L 69.319636 174.511539 
L 69.347536 174.577241 
L 69.497182 175.716287 
L 69.591027 176.4031 
L 69.646827 176.089563 
L 70.052645 173.269396 
L 70.151564 173.305782 
L 70.164245 173.3247 
L 70.339255 173.820187 
L 70.793264 175.987511 
L 71.090018 177.368652 
L 71.133136 177.172415 
L 71.252345 175.000362 
L 71.6328 168.703079 
L 71.833173 168.100952 
L 71.932091 168.222658 
L 72.127391 168.934615 
L 72.185727 169.152511 
L 72.236455 168.933516 
L 72.660027 166.195385 
L 72.703145 166.225691 
L 72.8325 166.576042 
L 73.114036 168.148541 
L 74.488745 176.580664 
L 74.678973 177.272649 
L 74.727164 177.135404 
L 74.8971 175.607295 
L 75.209073 173.619136 
L 75.389155 173.439968 
L 75.394227 173.442143 
L 75.546409 173.636129 
L 75.564164 173.647395 
L 75.597136 173.533047 
L 75.718882 171.981876 
L 76.000418 169.437292 
L 76.132309 169.267342 
L 76.162745 169.286803 
L 76.302245 169.57028 
L 76.385945 169.776094 
L 76.434136 169.631129 
L 76.6269 167.935336 
L 76.883073 166.689791 
L 77.060618 166.303478 
L 77.3523 164.018965 
L 77.720073 159.459316 
L 77.844355 159.25092 
L 77.879864 159.276898 
L 78.006682 159.602297 
L 78.273 161.044643 
L 80.144836 172.679234 
L 80.7561 174.608244 
L 81.354682 175.803899 
L 81.973555 176.564956 
L 82.668518 177.069974 
L 83.147891 177.271704 
L 83.163109 177.223542 
L 83.249345 176.281552 
L 83.670382 171.574068 
L 83.891045 171.098281 
L 84.038155 171.163892 
L 84.279109 171.603416 
L 85.207418 174.064701 
L 85.899845 175.424163 
L 85.988618 175.555779 
L 86.011445 175.408416 
L 86.176309 172.1189 
L 86.445164 169.105452 
L 86.632855 168.741009 
L 86.635391 168.741605 
L 86.759673 168.888001 
L 87.020918 169.643883 
L 88.192718 173.356805 
L 88.768473 174.354296 
L 89.336618 174.917069 
L 89.950418 175.215873 
L 90.668209 175.314907 
L 90.736691 175.129765 
L 90.899018 173.737477 
L 91.292155 168.566088 
L 91.606664 163.739029 
L 91.819718 163.02056 
L 91.933855 163.091459 
L 92.126618 163.598039 
L 92.337136 164.389917 
L 92.387864 164.11242 
L 92.8368 160.917581 
L 92.9484 160.95254 
L 92.956009 160.962883 
L 93.131018 161.404437 
L 93.536836 163.19199 
L 94.305355 166.616896 
L 94.335791 166.546392 
L 94.452464 165.529514 
L 94.855745 159.846907 
L 95.1525 155.404411 
L 95.352873 154.814799 
L 95.454327 154.947874 
L 95.6547 155.704177 
L 96.161973 158.751041 
L 97.090282 163.956727 
L 97.767491 166.535151 
L 98.409191 168.157663 
L 98.822618 168.858811 
L 98.845445 168.804313 
L 98.931682 167.927334 
L 99.243655 161.785477 
L 99.553091 157.040749 
L 99.771218 156.264376 
L 99.885355 156.326818 
L 100.070509 156.805844 
L 100.527055 158.780172 
L 101.034327 161.013569 
L 101.072373 160.802277 
L 101.310791 157.204419 
L 101.861182 148.687754 
L 101.949955 148.776612 
L 102.119891 149.415392 
L 102.604336 152.309389 
L 102.700718 151.784658 
L 103.045664 149.753376 
L 103.136973 149.750767 
L 103.164873 149.784016 
L 103.329736 150.220875 
L 103.700045 151.995103 
L 104.179418 154.586365 
L 104.22 154.237951 
L 104.686691 148.911473 
L 104.762782 148.921527 
L 104.790682 148.961439 
L 104.953009 149.466437 
L 105.366436 151.691513 
L 106.307427 156.554757 
L 107.007464 159.01147 
L 107.197691 159.528454 
L 107.225591 159.308207 
L 107.385382 155.481053 
L 107.727791 148.754198 
L 107.943382 147.813075 
L 108.0423 147.864936 
L 108.047373 147.873241 
L 108.217309 148.381881 
L 108.620591 150.483703 
L 109.627527 155.723879 
L 109.635136 155.713719 
L 109.696009 155.275031 
L 109.975009 151.075428 
L 110.8881 135.48289 
L 110.903318 135.487561 
L 110.9997 135.669433 
L 111.205145 136.673157 
L 111.760609 140.864636 
L 112.734573 147.662355 
L 113.500555 151.505676 
L 113.726291 152.379038 
L 113.764336 152.145203 
L 114.3756 144.123167 
L 114.624164 142.235255 
L 114.733227 142.134521 
L 114.771273 142.166364 
L 114.801709 142.19792 
L 114.829609 142.072565 
L 114.997009 139.840822 
L 115.258255 137.907263 
L 115.349564 137.832737 
L 115.392682 137.876769 
L 115.539791 138.312081 
L 115.709727 139.03271 
L 115.773136 138.832488 
L 116.163736 137.158664 
L 116.186564 137.168703 
L 116.305773 137.38702 
L 116.424982 137.76801 
L 116.475709 137.560901 
L 116.899282 134.851272 
L 116.952545 134.899025 
L 117.092045 135.34425 
L 117.180818 135.738414 
L 117.234082 135.48547 
L 117.601855 133.224571 
L 117.622145 133.233978 
L 117.7236 133.454126 
L 117.939191 134.589694 
L 118.656982 140.122632 
L 119.476227 145.43109 
L 120.237136 148.969609 
L 121.000582 151.512105 
L 121.7691 153.337307 
L 122.426018 154.35115 
L 122.907927 154.862882 
L 122.920609 154.805193 
L 123.011918 153.094562 
L 123.346718 147.884005 
L 123.564845 147.149473 
L 123.691664 147.198029 
L 123.894573 147.630037 
L 124.617436 149.973573 
L 125.216018 151.545266 
L 125.233773 151.515376 
L 125.309864 150.865116 
L 125.459509 147.686589 
L 125.8146 139.992695 
L 126.035264 138.899084 
L 126.118964 138.908077 
L 126.146864 138.946077 
L 126.314264 139.435958 
L 126.727691 141.530208 
L 127.694045 146.259702 
L 128.421982 148.709166 
L 129.157527 150.437288 
L 129.931118 151.705184 
L 130.785873 152.684867 
L 131.643164 153.379837 
L 131.653309 153.364171 
L 131.721791 152.930375 
L 131.871436 150.367216 
L 132.289936 142.175528 
L 132.497918 141.414262 
L 132.599373 141.501801 
L 132.784527 142.089308 
L 133.304482 144.740821 
L 134.080609 148.193836 
L 134.737527 150.153204 
L 135.3843 151.420835 
L 136.048827 152.253976 
L 136.774227 152.812284 
L 137.639127 153.191927 
L 138.826145 153.453341 
L 140.652327 153.614567 
L 140.718273 153.101147 
L 141.337145 147.010332 
L 141.540055 146.808678 
L 141.715064 146.95161 
L 142.062545 147.60712 
L 142.095518 147.664093 
L 142.125955 147.494482 
L 142.323791 144.404797 
L 142.585036 142.334755 
L 142.729609 142.16369 
L 142.754973 142.177222 
L 142.902082 142.427127 
L 143.236882 143.561124 
L 144.307227 147.271375 
L 144.588764 147.948407 
L 144.626809 147.826181 
L 144.738409 146.466052 
L 144.855082 142.153354 
L 145.189882 131.718527 
L 145.410545 130.104134 
L 145.471418 130.08145 
L 145.514536 130.140082 
L 145.661645 130.681113 
L 146.024345 133.095294 
L 146.757355 137.848975 
L 146.775109 137.837753 
L 146.874027 137.551074 
L 147.350864 135.210094 
L 147.718636 132.050847 
L 147.860673 131.87189 
L 147.888573 131.888048 
L 148.028073 132.152975 
L 148.319755 133.306467 
L 150.026727 140.845734 
L 150.4224 142.001534 
L 150.455373 141.856564 
L 150.632918 139.566718 
L 150.916991 137.355511 
L 151.081855 136.485297 
L 151.497818 133.179791 
L 151.652536 133.016182 
L 151.672827 133.026949 
L 151.8174 133.264614 
L 152.111618 134.28891 
L 152.829409 137.28246 
L 152.895355 137.098023 
L 153.098264 135.471523 
L 153.397555 133.891206 
L 153.5472 133.79474 
L 153.564955 133.805902 
L 153.727282 134.068286 
L 154.064618 135.144522 
L 154.115345 135.245473 
L 154.168609 135.107633 
L 154.759582 132.604989 
L 154.820455 132.641392 
L 155.000536 132.973229 
L 155.373382 134.241553 
L 156.765845 139.228123 
L 157.547045 141.060051 
L 158.353609 142.40384 
L 159.208364 143.408308 
L 159.251482 143.311214 
L 159.370691 142.15831 
L 159.702955 136.647929 
L 160.007318 132.121291 
L 160.451182 128.485884 
L 160.806273 122.381086 
L 161.097955 119.881353 
L 161.354127 118.133836 
L 161.412464 118.118078 
L 161.455582 118.180544 
L 161.600155 118.752132 
L 161.932418 121.215006 
L 163.012909 129.428129 
L 163.750991 133.202904 
L 164.532191 136.08272 
L 164.6235 136.301059 
L 164.671691 136.170095 
L 164.828945 134.783436 
L 165.158673 132.566855 
L 165.338755 132.370405 
L 165.346364 132.373665 
L 165.4605 132.477135 
L 165.4884 132.322259 
L 165.597464 130.354219 
L 166.0185 122.874855 
L 166.201118 122.329383 
L 166.211264 122.332349 
L 166.310182 122.495592 
L 166.518164 123.392213 
L 167.1903 127.714432 
L 167.606264 130.065437 
L 167.649382 129.916517 
L 167.880191 127.782541 
L 168.121145 126.762212 
L 168.220064 126.790102 
L 168.235282 126.811775 
L 168.405218 127.28695 
L 168.689291 128.505301 
L 168.757773 128.207609 
L 169.188955 125.717831 
L 169.300555 125.81033 
L 169.498391 126.380711 
L 169.962545 128.582393 
L 170.687945 132.019223 
L 170.718382 131.920388 
L 170.804618 130.665638 
L 171.306818 122.294226 
L 171.443782 122.031428 
L 171.474218 122.051289 
L 171.5985 122.345957 
L 171.8775 123.740488 
L 172.052509 124.162204 
L 172.067727 124.151184 
L 172.133673 123.881139 
L 172.701818 120.350832 
L 172.755082 120.387092 
L 172.904727 120.736886 
L 173.016327 121.05029 
L 173.069591 120.913682 
L 173.2725 119.46586 
L 173.921809 115.46453 
L 173.954782 115.483263 
L 174.076527 115.760107 
L 174.335236 117.039825 
L 175.862127 126.599005 
L 175.971191 126.291029 
L 176.402373 123.846479 
L 176.998418 118.050293 
L 177.102409 118.009167 
L 177.135382 118.039892 
L 177.295173 118.412232 
L 177.619827 119.86228 
L 178.066227 122.247377 
L 178.137245 122.019017 
L 178.576036 120.248066 
L 178.692709 120.386875 
L 178.905764 121.094568 
L 179.415573 123.793277 
L 180.432655 128.903112 
L 180.458018 128.915156 
L 180.501136 128.817967 
L 180.668536 127.758462 
L 181.013482 126.071046 
L 181.183418 125.968414 
L 181.191027 125.972787 
L 181.198636 125.974669 
L 181.216391 125.863402 
L 181.353355 123.139357 
L 181.858091 114.536706 
L 182.327318 110.172665 
L 182.357755 110.189721 
L 182.469355 110.472986 
L 182.710309 111.848966 
L 183.047645 114.411269 
L 183.111055 113.885154 
L 183.453464 110.878221 
L 183.521945 110.847365 
L 183.565064 110.902763 
L 183.709636 111.413024 
L 183.813627 111.716489 
L 183.866891 111.633779 
L 184.293 110.204012 
L 184.764764 106.731359 
L 184.858609 106.84594 
L 185.038691 107.541201 
L 185.439436 110.1934 
L 186.030409 114.271281 
L 186.083673 114.139438 
L 186.306873 112.636882 
L 186.550364 111.815101 
L 186.661964 111.882677 
L 186.755809 112.075613 
L 186.793855 111.894822 
L 187.209818 107.538894 
L 187.531936 103.857038 
L 187.6131 103.75474 
L 187.661291 103.811823 
L 187.798255 104.336965 
L 188.100082 106.594128 
L 188.439955 109.331726 
L 188.503364 109.181812 
L 188.876209 107.829539 
L 188.929473 107.875961 
L 189.041073 108.163074 
L 189.071509 107.91575 
L 189.497618 103.495315 
L 189.507764 103.498203 
L 189.594 103.666988 
L 189.639655 103.805052 
L 189.685309 103.588843 
L 190.070836 100.829792 
L 190.121564 100.881567 
L 190.248382 101.365228 
L 190.392955 102.31484 
L 190.438609 101.839729 
L 190.862182 96.569515 
L 191.027045 95.226922 
L 191.280682 93.923832 
L 191.359309 94.009466 
L 191.501345 94.656891 
L 191.800636 97.298393 
L 192.016227 99.235675 
L 192.074564 99.032127 
L 192.455018 97.039014 
L 192.498136 97.071534 
L 192.627491 97.430898 
L 192.8862 98.951972 
L 193.591309 104.894536 
L 194.154382 109.154458 
L 194.192427 109.071869 
L 194.329391 108.01287 
L 194.742818 103.189193 
L 195.049718 97.918386 
L 195.316036 94.859934 
L 195.567136 91.006171 
L 195.950127 85.274628 
L 196.421891 78.49057 
L 196.548709 78.241679 
L 196.586755 78.272612 
L 196.7085 78.635997 
L 196.951991 80.230445 
L 197.499845 85.659905 
L 197.806745 87.763314 
L 198.189736 88.958931 
L 198.539755 91.275286 
L 198.681791 92.044156 
L 198.735055 91.944868 
L 199.148482 90.441809 
L 199.2474 90.578659 
L 199.432555 91.318571 
L 199.795255 93.868362 
L 200.155418 96.466869 
L 200.211218 96.377699 
L 200.619573 94.864703 
L 201.098945 92.615892 
L 201.104018 92.617108 
L 201.208009 92.762992 
L 201.398236 93.524638 
L 201.778691 96.167159 
L 202.154073 98.717448 
L 202.197191 98.656798 
L 202.273282 97.735491 
L 203.531318 78.025134 
L 203.693645 77.517084 
L 203.716473 77.528862 
L 203.815391 77.772268 
L 204.0183 79.007937 
L 204.4647 83.418003 
L 205.146982 89.704667 
L 205.3296 89.713325 
L 205.4691 89.844233 
L 205.628891 90.294207 
L 205.6644 90.000842 
L 205.945936 84.247817 
L 206.3619 76.400896 
L 206.541982 75.783046 
L 206.554664 75.787697 
L 206.562273 75.789094 
L 206.577491 75.679461 
L 206.684018 72.911604 
L 207.214118 59.685688 
L 207.482973 57.443598 
L 207.574282 57.333542 
L 207.619936 57.383168 
L 207.746755 57.841263 
L 207.982636 59.693203 
L 208.416355 65.18141 
L 208.616727 67.020192 
L 208.6497 66.978631 
L 208.781591 66.387538 
L 209.002255 64.496699 
L 209.405536 61.575617 
L 209.552645 61.377332 
L 209.580545 61.3955 
L 209.702291 61.670132 
L 209.912809 62.818233 
L 210.260291 66.15683 
L 210.346527 66.70106 
L 210.404864 66.545456 
L 210.876627 64.40579 
L 210.957791 64.512748 
L 211.112509 65.175855 
L 211.262155 66.033314 
L 211.3281 65.811377 
L 211.566518 63.761321 
L 211.865809 62.119126 
L 211.954582 62.071042 
L 211.995164 62.116036 
L 212.129591 62.546679 
L 212.362936 64.192268 
L 212.758609 67.883912 
L 212.857527 67.710031 
L 213.045218 67.413843 
L 213.078191 67.442526 
L 213.192327 67.786716 
L 213.390164 69.250625 
L 213.750327 73.918928 
L 214.970318 92.305729 
L 215.041336 91.872746 
L 215.198591 89.018415 
L 215.858045 68.946905 
L 216.012764 68.390728 
L 216.038127 68.408094 
L 216.134509 68.706926 
L 216.329809 70.215273 
L 216.725482 75.383349 
L 218.074827 94.35363 
L 218.100191 94.267602 
L 218.320855 92.17468 
L 218.508545 91.5633 
L 218.518691 91.56663 
L 218.61 91.736058 
L 218.792618 92.677757 
L 219.175609 96.084438 
L 220.580755 109.173839 
L 221.4558 115.000345 
L 221.503991 115.069922 
L 221.557255 114.96829 
L 221.739873 113.950513 
L 222.150764 110.827793 
L 222.779782 103.624702 
L 222.873627 103.532823 
L 222.916745 103.576238 
L 223.056245 104.003686 
L 223.353 105.804622 
L 225.163964 118.081672 
L 225.229909 118.365363 
L 225.2781 118.104954 
L 225.810736 114.042931 
L 225.820882 114.045069 
L 225.929945 114.198045 
L 226.145536 114.995073 
L 226.736509 118.074167 
L 226.837964 117.750398 
L 227.253927 116.124906 
L 227.3706 116.226902 
L 227.573509 116.813727 
L 228.057955 119.092005 
L 228.232964 119.922184 
L 228.268473 119.633069 
L 228.435873 115.4643 
L 228.757991 109.906174 
L 229.460564 100.257331 
L 229.468173 100.259082 
L 229.554409 100.411703 
L 229.734491 101.320168 
L 230.183427 105.052605 
L 230.675482 109.020262 
L 230.7186 108.88225 
L 230.822591 107.240988 
L 231.203045 101.689788 
L 231.558136 99.082697 
L 232.037509 92.961025 
L 232.133891 92.83547 
L 232.179545 92.882013 
L 232.313973 93.332269 
L 232.590436 95.213596 
L 233.901736 106.408061 
L 234.013336 106.043612 
L 234.310091 104.044172 
L 234.682936 98.481848 
L 234.8199 98.15832 
L 234.852873 98.181514 
L 234.967009 98.49594 
L 235.207964 99.971436 
L 236.181927 108.247315 
L 236.914936 113.200296 
L 236.925082 113.189995 
L 236.983418 112.781301 
L 237.569318 107.537524 
L 237.678382 107.605121 
L 237.850855 108.110904 
L 238.218627 110.041521 
L 238.771555 113.342804 
L 238.827355 113.019122 
L 239.332091 108.975047 
L 239.431009 109.079487 
L 239.613627 109.728518 
L 240.047345 112.31641 
L 240.298445 113.748914 
L 240.351709 113.579736 
L 240.800645 111.428232 
L 240.838691 111.447917 
L 240.980727 111.717422 
L 241.262264 112.843244 
L 243.616009 123.771499 
L 244.638164 126.834791 
L 245.005936 127.768984 
L 245.033836 127.592338 
L 245.2545 123.844309 
L 245.515745 121.724206 
L 245.652709 121.553799 
L 245.683145 121.57206 
L 245.825182 121.845711 
L 246.139691 123.06374 
L 247.390118 128.19507 
L 248.206827 130.46674 
L 249.003245 132.021591 
L 249.954382 133.392887 
L 251.088136 134.634504 
L 252.513573 135.855655 
L 252.640391 135.939408 
L 252.665755 135.847707 
L 252.749455 134.65076 
L 253.583918 118.488624 
L 253.725955 118.166689 
L 253.756391 118.185227 
L 253.8756 118.473326 
L 254.136845 119.839637 
L 255.516627 127.843008 
L 256.249636 130.467858 
L 257.061273 132.567844 
L 257.454409 133.336591 
L 257.494991 133.268318 
L 257.634491 132.502347 
L 258.025091 130.609737 
L 258.228 130.450915 
L 258.403009 130.617138 
L 258.7302 131.315749 
L 260.368691 135.198156 
L 260.797336 135.831283 
L 260.827773 135.756258 
L 260.929227 134.795124 
L 261.862609 124.268497 
L 262.156827 122.773789 
L 262.240527 122.774177 
L 262.270964 122.814093 
L 262.430755 123.291889 
L 262.798527 125.28615 
L 263.468127 128.972049 
L 263.506173 128.904653 
L 263.671036 128.008715 
L 263.906918 125.946724 
L 264.262009 122.069566 
L 264.411655 121.818547 
L 264.437018 121.831396 
L 264.563836 122.068872 
L 264.832691 123.165992 
L 265.421127 125.579964 
L 265.431273 125.577181 
L 265.821873 125.559329 
L 266.078045 126.000728 
L 266.136382 125.779069 
L 266.707064 122.741155 
L 266.724818 122.746054 
L 266.861782 122.923943 
L 266.9328 122.995029 
L 266.980991 122.918609 
L 267.150927 122.153027 
L 267.447682 121.211588 
L 267.582109 121.252267 
L 267.7698 121.659469 
L 268.175618 123.208267 
L 268.6905 125.311163 
L 268.748836 125.192111 
L 269.131827 123.371131 
L 269.897809 113.450883 
L 269.9739 113.376934 
L 270.022091 113.433149 
L 270.164127 113.94111 
L 270.491318 116.147675 
L 271.599709 123.884444 
L 272.307355 127.092485 
L 272.845064 128.71964 
L 272.850136 128.717858 
L 272.943982 128.556562 
L 273.512127 127.288031 
L 273.727718 127.380699 
L 274.067591 127.816484 
L 274.714364 129.0779 
L 275.267291 130.221206 
L 275.310409 130.10435 
L 275.454982 128.850487 
L 275.810073 126.302506 
L 276.007909 126.062357 
L 276.157555 126.220438 
L 276.370609 126.672689 
L 276.4188 126.467321 
L 276.570982 124.370082 
L 276.915927 120.582672 
L 277.121373 120.139897 
L 277.245655 120.247111 
L 277.3674 120.462195 
L 277.415591 120.319423 
L 277.582991 118.837978 
L 277.872136 117.098639 
L 277.971055 117.040345 
L 278.0091 117.076404 
L 278.161282 117.467996 
L 278.298245 118.042784 
L 278.336291 117.712729 
L 278.795373 112.42373 
L 278.863855 112.45128 
L 278.886682 112.491799 
L 279.0414 113.078738 
L 279.409173 115.585972 
L 279.495409 115.959202 
L 279.551209 115.822825 
L 279.797236 114.239974 
L 280.317191 108.464488 
L 280.322264 108.465419 
L 280.4085 108.602274 
L 280.588582 109.441183 
L 281.047664 112.965077 
L 281.950609 119.450537 
L 282.503536 122.238665 
L 282.526364 122.216304 
L 282.615136 121.802198 
L 283.140164 118.932503 
L 283.269518 118.991972 
L 283.467355 119.444176 
L 283.9239 121.197336 
L 285.0678 125.526649 
L 285.965673 128.011027 
L 286.929491 130.044894 
L 286.985291 130.057182 
L 287.025873 129.988793 
L 287.175518 129.316319 
L 287.611773 127.451753 
L 287.657427 127.178474 
L 287.890773 122.754492 
L 288.154555 120.375484 
L 288.3042 120.152811 
L 288.329564 120.165965 
L 288.463991 120.408493 
L 288.753136 121.510922 
L 290.196327 127.544895 
L 290.6478 128.825824 
L 290.683309 128.753402 
L 290.789836 127.950893 
L 291.084055 122.545428 
L 291.545673 113.311623 
L 291.857645 109.849652 
L 292.075773 108.47069 
L 292.499345 102.363688 
L 292.588118 102.224474 
L 292.636309 102.279543 
L 292.7682 102.790308 
L 293.062418 105.037057 
L 293.993264 113.208519 
L 294.038918 112.854315 
L 294.449809 108.959148 
L 294.518291 108.959459 
L 294.5538 109.010704 
L 294.708518 109.541583 
L 295.063609 111.761533 
L 296.189755 118.960231 
L 296.991245 122.506525 
L 297.886582 125.480044 
L 298.8783 128.019499 
L 299.963864 130.198256 
L 300.341782 130.800192 
L 300.382364 130.72047 
L 300.506645 129.912604 
L 300.965727 126.867796 
L 301.163564 126.678955 
L 301.328427 126.837028 
L 301.648009 127.536744 
L 303.428536 131.873972 
L 304.488736 133.666977 
L 305.673218 135.246772 
L 306.581236 136.057868 
L 306.728345 136.159212 
L 306.751173 136.062833 
L 306.872918 134.32182 
L 307.205182 130.647127 
L 307.418236 130.14354 
L 307.545055 130.236313 
L 307.775864 130.785088 
L 309.378845 135.252077 
L 310.122 136.396038 
L 310.999582 137.337373 
L 311.149227 137.460137 
L 311.169518 137.363779 
L 311.283655 135.496219 
L 311.4891 129.397476 
L 311.889845 119.713773 
L 312.110509 118.145514 
L 312.163773 118.140392 
L 312.204355 118.205047 
L 312.351464 118.809308 
L 312.473209 119.43073 
L 312.531545 119.198985 
L 312.863809 117.412433 
L 312.891709 117.429003 
L 313.005845 117.706639 
L 313.277236 118.965032 
L 313.3584 118.622715 
L 313.490291 115.305972 
L 313.799727 109.626438 
L 313.954445 109.106087 
L 313.979809 109.122481 
L 314.0838 109.410446 
L 314.312073 110.866888 
L 316.041873 123.724052 
L 316.820536 127.105251 
L 317.556082 129.413675 
L 318.377864 131.279699 
L 319.131164 132.558789 
L 319.143845 132.534767 
L 319.214864 131.910546 
L 319.722136 126.849149 
L 319.919973 126.593347 
L 320.067082 126.747984 
L 320.176145 126.951909 
L 320.211655 126.786096 
L 320.455145 123.853482 
L 320.716391 122.378413 
L 320.845745 122.288324 
L 320.873645 122.308205 
L 321.028364 122.604392 
L 321.360627 123.843412 
L 321.434182 124.031247 
L 321.487445 123.915659 
L 322.027691 122.079724 
L 322.083491 122.113948 
L 322.261036 122.436213 
L 322.575545 123.333307 
L 322.656709 123.150155 
L 323.059991 122.068983 
L 323.062527 122.069689 
L 323.194418 122.224656 
L 323.440445 122.954197 
L 324.252082 126.199827 
L 324.353536 125.940673 
L 324.782182 124.651547 
L 324.924218 124.720438 
L 325.139809 125.163739 
L 325.657227 126.784891 
L 325.753609 126.526115 
L 326.298927 124.559601 
L 326.4435 124.67499 
L 326.697136 125.244312 
L 327.343909 127.413627 
L 327.777627 128.799642 
L 327.823282 128.6995 
L 327.962782 127.636769 
L 328.310264 125.430585 
L 328.497955 125.264814 
L 328.657745 125.451303 
L 328.886018 125.893497 
L 328.946891 125.750851 
L 329.175164 124.374752 
L 329.276618 123.048422 
L 329.690045 117.632888 
L 329.854909 117.291534 
L 329.872664 117.299465 
L 329.989336 117.51061 
L 330.232827 118.533035 
L 331.254982 124.053996 
L 331.320927 123.614937 
L 331.777473 119.731194 
L 331.868782 119.709668 
L 331.901755 119.74524 
L 331.9956 119.913838 
L 332.031109 119.75326 
L 332.117345 118.173916 
L 332.761582 102.819749 
L 332.901082 102.364168 
L 332.931518 102.388978 
L 333.040582 102.7453 
L 333.284073 104.497748 
L 334.164191 112.329182 
L 334.247891 112.036742 
L 334.696827 110.064907 
L 334.808427 110.186137 
L 335.0088 110.842985 
L 335.475491 113.340153 
L 336.634609 119.438755 
L 337.585745 123.185195 
L 338.640873 126.455248 
L 339.787309 129.298191 
L 340.629382 130.901253 
L 341.659145 132.382401 
L 342.8766 133.742247 
L 344.373055 135.072024 
L 345.970964 136.217658 
L 346.049591 135.939884 
L 346.353955 133.52619 
L 346.648173 132.295167 
L 346.863764 132.11825 
L 347.059064 132.249983 
L 347.414155 132.826276 
L 348.976555 135.709497 
L 348.996845 135.647753 
L 349.095764 134.385812 
L 349.899791 123.226978 
L 350.041827 123.011297 
L 350.069727 123.026791 
L 350.201618 123.284303 
L 350.488227 124.463356 
L 350.952382 126.567513 
L 351.010718 126.479497 
L 351.723436 124.302581 
L 352.101355 121.055495 
L 352.273827 120.081474 
L 352.6137 118.37375 
L 352.722764 118.34986 
L 352.750664 118.378033 
L 352.915527 118.75978 
L 353.270618 120.28511 
L 354.642791 126.506732 
L 355.477255 129.102719 
L 356.375127 131.186122 
L 357.361773 132.922779 
L 357.848755 133.608425 
L 357.881727 133.524478 
L 358.006009 132.44841 
L 358.391536 129.488751 
L 358.6122 129.122157 
L 358.764382 129.213953 
L 359.023091 129.714417 
L 359.943791 132.208436 
L 359.994518 131.832394 
L 360.5094 126.693063 
L 360.615927 126.649708 
L 360.6489 126.6804 
L 360.813764 127.053907 
L 361.211973 128.666106 
L 362.140282 132.291592 
L 362.568927 133.481799 
L 362.6019 133.392098 
L 362.721109 132.200209 
L 363.060982 129.376702 
L 363.248673 129.125635 
L 363.251209 129.126477 
L 363.390709 129.294281 
L 363.509918 129.513949 
L 363.560645 129.389757 
L 364.126255 127.193048 
L 364.189664 127.23389 
L 364.374818 127.585538 
L 364.783173 128.968175 
L 364.897309 129.323956 
L 364.9455 129.160652 
L 365.158555 127.087668 
L 365.409655 125.899604 
L 365.536473 125.859097 
L 365.5593 125.878376 
L 365.731773 126.209863 
L 366.104618 127.531862 
L 367.266273 131.756203 
L 368.024645 133.602509 
L 368.848964 135.037361 
L 369.797564 136.244365 
L 370.956682 137.352693 
L 371.633891 137.869081 
L 371.659255 137.803619 
L 371.755636 136.90446 
L 372.341536 130.769447 
L 373.181073 122.642956 
L 373.234336 122.683161 
L 373.376373 123.074915 
L 373.581818 124.084142 
L 373.581818 124.084142 
" clip-path="url(#pe7fa78ac22)" style="fill: none; stroke: #ff0000; stroke-width: 1.5; stroke-linecap: square"/>
   </g>
   <g id="line2d_16">
    <path d="M 81.899894 143.28 
L 84.431164 143.28 
L 84.431164 143.28 
" clip-path="url(#pe7fa78ac22)" style="fill: none; stroke: #000000; stroke-width: 1.5; stroke-linecap: square"/>
   </g>
   <g id="line2d_17">
    <path d="M 81.899894 165.024 
L 81.899894 160.6752 
L 81.899894 156.3264 
L 81.899894 151.9776 
L 81.899894 147.6288 
" clip-path="url(#pe7fa78ac22)" style="fill: none; stroke: #000000; stroke-width: 1.5; stroke-linecap: square"/>
   </g>
   <g id="patch_3">
    <path d="M 54 252 
L 54 34.56 
" style="fill: none; stroke: #000000; stroke-width: 0.8; stroke-linejoin: miter; stroke-linecap: square"/>
   </g>
   <g id="patch_4">
    <path d="M 54 252 
L 388.8 252 
" style="fill: none; stroke: #000000; stroke-width: 0.8; stroke-linejoin: miter; stroke-linecap: square"/>
   </g>
   <g id="text_16">
    <!-- 500 ms -->
    <g transform="translate(81.899894 138.9312)scale(0.1 -0.1)">
     <use xlink:href="#DejaVuSans-35"/>
     <use xlink:href="#DejaVuSans-30" x="63.623047"/>
     <use xlink:href="#DejaVuSans-30" x="127.246094"/>
     <use xlink:href="#DejaVuSans-20" x="190.869141"/>
     <use xlink:href="#DejaVuSans-6d" x="222.65625"/>
     <use xlink:href="#DejaVuSans-73" x="320.068359"/>
    </g>
   </g>
   <g id="text_17">
    <!-- 5 mV -->
    <g transform="translate(82.153529 156.3264)scale(0.1 -0.1)">
     <use xlink:href="#DejaVuSans-35"/>
     <use xlink:href="#DejaVuSans-20" x="63.623047"/>
     <use xlink:href="#DejaVuSans-6d" x="95.410156"/>
     <use xlink:href="#DejaVuSans-56" x="192.822266"/>
    </g>
   </g>
  </g>
 </g>
 <defs>
  <clipPath id="pe7fa78ac22">
   <rect x="54" y="34.56" width="334.8" height="217.44"/>
  </clipPath>
 </defs>
</svg>
