<?xml version="1.0" encoding="utf-8" standalone="no"?>
<!DOCTYPE svg PUBLIC "-//W3C//DTD SVG 1.1//EN"
  "http://www.w3.org/Graphics/SVG/1.1/DTD/svg11.dtd">
<svg height="288pt" version="1.1" viewBox="0 0 432 288" width="432pt" xmlns="http://www.w3.org/2000/svg" xmlns:xlink="http://www.w3.org/1999/xlink">
 <metadata>
  <rdf:RDF xmlns:cc="http://creativecommons.org/ns#" xmlns:dc="http://purl.org/dc/elements/1.1/" xmlns:rdf="http://www.w3.org/1999/02/22-rdf-syntax-ns#">
   <cc:Work>
    <dc:type rdf:resource="http://purl.org/dc/dcmitype/StillImage"/>
    <dc:date>2021-09-03T12:01:54.551276</dc:date>
    <dc:format>image/svg+xml</dc:format>
    <dc:creator>
     <cc:Agent>
      <dc:title>Matplotlib v3.4.1, https://matplotlib.org/</dc:title>
     </cc:Agent>
    </dc:creator>
   </cc:Work>
  </rdf:RDF>
 </metadata>
 <defs>
  <style type="text/css">*{stroke-linecap:butt;stroke-linejoin:round;}</style>
 </defs>
 <g id="figure_1">
  <g id="patch_1">
   <path d="M 0 288 
L 432 288 
L 432 0 
L 0 0 
z
" style="fill:none;"/>
  </g>
  <g id="axes_1">
   <g id="patch_2">
    <path d="M 54 252 
L 388.8 252 
L 388.8 34.56 
L 54 34.56 
z
" style="fill:#ffffff;"/>
   </g>
   <g id="matplotlib.axis_1">
    <g id="xtick_1">
     <g id="line2d_1">
      <defs>
       <path d="M 0 0 
L 0 3.5 
" id="mcb49b5053c" style="stroke:#000000;stroke-width:0.8;"/>
      </defs>
      <g>
       <use style="stroke:#000000;stroke-width:0.8;" x="69.218182" xlink:href="#mcb49b5053c" y="252"/>
      </g>
     </g>
     <g id="text_1">
      <!-- 0 -->
      <g transform="translate(66.036932 266.598437)scale(0.1 -0.1)">
       <defs>
        <path d="M 2034 4250 
Q 1547 4250 1301 3770 
Q 1056 3291 1056 2328 
Q 1056 1369 1301 889 
Q 1547 409 2034 409 
Q 2525 409 2770 889 
Q 3016 1369 3016 2328 
Q 3016 3291 2770 3770 
Q 2525 4250 2034 4250 
z
M 2034 4750 
Q 2819 4750 3233 4129 
Q 3647 3509 3647 2328 
Q 3647 1150 3233 529 
Q 2819 -91 2034 -91 
Q 1250 -91 836 529 
Q 422 1150 422 2328 
Q 422 3509 836 4129 
Q 1250 4750 2034 4750 
z
" id="DejaVuSans-30" transform="scale(0.015625)"/>
       </defs>
       <use xlink:href="#DejaVuSans-30"/>
      </g>
     </g>
    </g>
    <g id="xtick_2">
     <g id="line2d_2">
      <g>
       <use style="stroke:#000000;stroke-width:0.8;" x="119.937001" xlink:href="#mcb49b5053c" y="252"/>
      </g>
     </g>
     <g id="text_2">
      <!-- 500 -->
      <g transform="translate(110.393251 266.598437)scale(0.1 -0.1)">
       <defs>
        <path d="M 691 4666 
L 3169 4666 
L 3169 4134 
L 1269 4134 
L 1269 2991 
Q 1406 3038 1543 3061 
Q 1681 3084 1819 3084 
Q 2600 3084 3056 2656 
Q 3513 2228 3513 1497 
Q 3513 744 3044 326 
Q 2575 -91 1722 -91 
Q 1428 -91 1123 -41 
Q 819 9 494 109 
L 494 744 
Q 775 591 1075 516 
Q 1375 441 1709 441 
Q 2250 441 2565 725 
Q 2881 1009 2881 1497 
Q 2881 1984 2565 2268 
Q 2250 2553 1709 2553 
Q 1456 2553 1204 2497 
Q 953 2441 691 2322 
L 691 4666 
z
" id="DejaVuSans-35" transform="scale(0.015625)"/>
       </defs>
       <use xlink:href="#DejaVuSans-35"/>
       <use x="63.623047" xlink:href="#DejaVuSans-30"/>
       <use x="127.246094" xlink:href="#DejaVuSans-30"/>
      </g>
     </g>
    </g>
    <g id="xtick_3">
     <g id="line2d_3">
      <g>
       <use style="stroke:#000000;stroke-width:0.8;" x="170.655821" xlink:href="#mcb49b5053c" y="252"/>
      </g>
     </g>
     <g id="text_3">
      <!-- 1000 -->
      <g transform="translate(157.930821 266.598437)scale(0.1 -0.1)">
       <defs>
        <path d="M 794 531 
L 1825 531 
L 1825 4091 
L 703 3866 
L 703 4441 
L 1819 4666 
L 2450 4666 
L 2450 531 
L 3481 531 
L 3481 0 
L 794 0 
L 794 531 
z
" id="DejaVuSans-31" transform="scale(0.015625)"/>
       </defs>
       <use xlink:href="#DejaVuSans-31"/>
       <use x="63.623047" xlink:href="#DejaVuSans-30"/>
       <use x="127.246094" xlink:href="#DejaVuSans-30"/>
       <use x="190.869141" xlink:href="#DejaVuSans-30"/>
      </g>
     </g>
    </g>
    <g id="xtick_4">
     <g id="line2d_4">
      <g>
       <use style="stroke:#000000;stroke-width:0.8;" x="221.374641" xlink:href="#mcb49b5053c" y="252"/>
      </g>
     </g>
     <g id="text_4">
      <!-- 1500 -->
      <g transform="translate(208.649641 266.598437)scale(0.1 -0.1)">
       <use xlink:href="#DejaVuSans-31"/>
       <use x="63.623047" xlink:href="#DejaVuSans-35"/>
       <use x="127.246094" xlink:href="#DejaVuSans-30"/>
       <use x="190.869141" xlink:href="#DejaVuSans-30"/>
      </g>
     </g>
    </g>
    <g id="xtick_5">
     <g id="line2d_5">
      <g>
       <use style="stroke:#000000;stroke-width:0.8;" x="272.09346" xlink:href="#mcb49b5053c" y="252"/>
      </g>
     </g>
     <g id="text_5">
      <!-- 2000 -->
      <g transform="translate(259.36846 266.598437)scale(0.1 -0.1)">
       <defs>
        <path d="M 1228 531 
L 3431 531 
L 3431 0 
L 469 0 
L 469 531 
Q 828 903 1448 1529 
Q 2069 2156 2228 2338 
Q 2531 2678 2651 2914 
Q 2772 3150 2772 3378 
Q 2772 3750 2511 3984 
Q 2250 4219 1831 4219 
Q 1534 4219 1204 4116 
Q 875 4013 500 3803 
L 500 4441 
Q 881 4594 1212 4672 
Q 1544 4750 1819 4750 
Q 2544 4750 2975 4387 
Q 3406 4025 3406 3419 
Q 3406 3131 3298 2873 
Q 3191 2616 2906 2266 
Q 2828 2175 2409 1742 
Q 1991 1309 1228 531 
z
" id="DejaVuSans-32" transform="scale(0.015625)"/>
       </defs>
       <use xlink:href="#DejaVuSans-32"/>
       <use x="63.623047" xlink:href="#DejaVuSans-30"/>
       <use x="127.246094" xlink:href="#DejaVuSans-30"/>
       <use x="190.869141" xlink:href="#DejaVuSans-30"/>
      </g>
     </g>
    </g>
    <g id="xtick_6">
     <g id="line2d_6">
      <g>
       <use style="stroke:#000000;stroke-width:0.8;" x="322.81228" xlink:href="#mcb49b5053c" y="252"/>
      </g>
     </g>
     <g id="text_6">
      <!-- 2500 -->
      <g transform="translate(310.08728 266.598437)scale(0.1 -0.1)">
       <use xlink:href="#DejaVuSans-32"/>
       <use x="63.623047" xlink:href="#DejaVuSans-35"/>
       <use x="127.246094" xlink:href="#DejaVuSans-30"/>
       <use x="190.869141" xlink:href="#DejaVuSans-30"/>
      </g>
     </g>
    </g>
    <g id="xtick_7">
     <g id="line2d_7">
      <g>
       <use style="stroke:#000000;stroke-width:0.8;" x="373.531099" xlink:href="#mcb49b5053c" y="252"/>
      </g>
     </g>
     <g id="text_7">
      <!-- 3000 -->
      <g transform="translate(360.806099 266.598437)scale(0.1 -0.1)">
       <defs>
        <path d="M 2597 2516 
Q 3050 2419 3304 2112 
Q 3559 1806 3559 1356 
Q 3559 666 3084 287 
Q 2609 -91 1734 -91 
Q 1441 -91 1130 -33 
Q 819 25 488 141 
L 488 750 
Q 750 597 1062 519 
Q 1375 441 1716 441 
Q 2309 441 2620 675 
Q 2931 909 2931 1356 
Q 2931 1769 2642 2001 
Q 2353 2234 1838 2234 
L 1294 2234 
L 1294 2753 
L 1863 2753 
Q 2328 2753 2575 2939 
Q 2822 3125 2822 3475 
Q 2822 3834 2567 4026 
Q 2313 4219 1838 4219 
Q 1578 4219 1281 4162 
Q 984 4106 628 3988 
L 628 4550 
Q 988 4650 1302 4700 
Q 1616 4750 1894 4750 
Q 2613 4750 3031 4423 
Q 3450 4097 3450 3541 
Q 3450 3153 3228 2886 
Q 3006 2619 2597 2516 
z
" id="DejaVuSans-33" transform="scale(0.015625)"/>
       </defs>
       <use xlink:href="#DejaVuSans-33"/>
       <use x="63.623047" xlink:href="#DejaVuSans-30"/>
       <use x="127.246094" xlink:href="#DejaVuSans-30"/>
       <use x="190.869141" xlink:href="#DejaVuSans-30"/>
      </g>
     </g>
    </g>
    <g id="text_8">
     <!-- Time(ms) -->
     <g transform="translate(197.789844 280.276563)scale(0.1 -0.1)">
      <defs>
       <path d="M -19 4666 
L 3928 4666 
L 3928 4134 
L 2272 4134 
L 2272 0 
L 1638 0 
L 1638 4134 
L -19 4134 
L -19 4666 
z
" id="DejaVuSans-54" transform="scale(0.015625)"/>
       <path d="M 603 3500 
L 1178 3500 
L 1178 0 
L 603 0 
L 603 3500 
z
M 603 4863 
L 1178 4863 
L 1178 4134 
L 603 4134 
L 603 4863 
z
" id="DejaVuSans-69" transform="scale(0.015625)"/>
       <path d="M 3328 2828 
Q 3544 3216 3844 3400 
Q 4144 3584 4550 3584 
Q 5097 3584 5394 3201 
Q 5691 2819 5691 2113 
L 5691 0 
L 5113 0 
L 5113 2094 
Q 5113 2597 4934 2840 
Q 4756 3084 4391 3084 
Q 3944 3084 3684 2787 
Q 3425 2491 3425 1978 
L 3425 0 
L 2847 0 
L 2847 2094 
Q 2847 2600 2669 2842 
Q 2491 3084 2119 3084 
Q 1678 3084 1418 2786 
Q 1159 2488 1159 1978 
L 1159 0 
L 581 0 
L 581 3500 
L 1159 3500 
L 1159 2956 
Q 1356 3278 1631 3431 
Q 1906 3584 2284 3584 
Q 2666 3584 2933 3390 
Q 3200 3197 3328 2828 
z
" id="DejaVuSans-6d" transform="scale(0.015625)"/>
       <path d="M 3597 1894 
L 3597 1613 
L 953 1613 
Q 991 1019 1311 708 
Q 1631 397 2203 397 
Q 2534 397 2845 478 
Q 3156 559 3463 722 
L 3463 178 
Q 3153 47 2828 -22 
Q 2503 -91 2169 -91 
Q 1331 -91 842 396 
Q 353 884 353 1716 
Q 353 2575 817 3079 
Q 1281 3584 2069 3584 
Q 2775 3584 3186 3129 
Q 3597 2675 3597 1894 
z
M 3022 2063 
Q 3016 2534 2758 2815 
Q 2500 3097 2075 3097 
Q 1594 3097 1305 2825 
Q 1016 2553 972 2059 
L 3022 2063 
z
" id="DejaVuSans-65" transform="scale(0.015625)"/>
       <path d="M 1984 4856 
Q 1566 4138 1362 3434 
Q 1159 2731 1159 2009 
Q 1159 1288 1364 580 
Q 1569 -128 1984 -844 
L 1484 -844 
Q 1016 -109 783 600 
Q 550 1309 550 2009 
Q 550 2706 781 3412 
Q 1013 4119 1484 4856 
L 1984 4856 
z
" id="DejaVuSans-28" transform="scale(0.015625)"/>
       <path d="M 2834 3397 
L 2834 2853 
Q 2591 2978 2328 3040 
Q 2066 3103 1784 3103 
Q 1356 3103 1142 2972 
Q 928 2841 928 2578 
Q 928 2378 1081 2264 
Q 1234 2150 1697 2047 
L 1894 2003 
Q 2506 1872 2764 1633 
Q 3022 1394 3022 966 
Q 3022 478 2636 193 
Q 2250 -91 1575 -91 
Q 1294 -91 989 -36 
Q 684 19 347 128 
L 347 722 
Q 666 556 975 473 
Q 1284 391 1588 391 
Q 1994 391 2212 530 
Q 2431 669 2431 922 
Q 2431 1156 2273 1281 
Q 2116 1406 1581 1522 
L 1381 1569 
Q 847 1681 609 1914 
Q 372 2147 372 2553 
Q 372 3047 722 3315 
Q 1072 3584 1716 3584 
Q 2034 3584 2315 3537 
Q 2597 3491 2834 3397 
z
" id="DejaVuSans-73" transform="scale(0.015625)"/>
       <path d="M 513 4856 
L 1013 4856 
Q 1481 4119 1714 3412 
Q 1947 2706 1947 2009 
Q 1947 1309 1714 600 
Q 1481 -109 1013 -844 
L 513 -844 
Q 928 -128 1133 580 
Q 1338 1288 1338 2009 
Q 1338 2731 1133 3434 
Q 928 4138 513 4856 
z
" id="DejaVuSans-29" transform="scale(0.015625)"/>
      </defs>
      <use xlink:href="#DejaVuSans-54"/>
      <use x="57.958984" xlink:href="#DejaVuSans-69"/>
      <use x="85.742188" xlink:href="#DejaVuSans-6d"/>
      <use x="183.154297" xlink:href="#DejaVuSans-65"/>
      <use x="244.677734" xlink:href="#DejaVuSans-28"/>
      <use x="283.691406" xlink:href="#DejaVuSans-6d"/>
      <use x="381.103516" xlink:href="#DejaVuSans-73"/>
      <use x="433.203125" xlink:href="#DejaVuSans-29"/>
     </g>
    </g>
   </g>
   <g id="matplotlib.axis_2">
    <g id="ytick_1">
     <g id="line2d_8">
      <defs>
       <path d="M 0 0 
L -3.5 0 
" id="m407cf7727a" style="stroke:#000000;stroke-width:0.8;"/>
      </defs>
      <g>
       <use style="stroke:#000000;stroke-width:0.8;" x="54" xlink:href="#m407cf7727a" y="252"/>
      </g>
     </g>
     <g id="text_9">
      <!-- −100 -->
      <g transform="translate(19.532812 255.799219)scale(0.1 -0.1)">
       <defs>
        <path d="M 678 2272 
L 4684 2272 
L 4684 1741 
L 678 1741 
L 678 2272 
z
" id="DejaVuSans-2212" transform="scale(0.015625)"/>
       </defs>
       <use xlink:href="#DejaVuSans-2212"/>
       <use x="83.789062" xlink:href="#DejaVuSans-31"/>
       <use x="147.412109" xlink:href="#DejaVuSans-30"/>
       <use x="211.035156" xlink:href="#DejaVuSans-30"/>
      </g>
     </g>
    </g>
    <g id="ytick_2">
     <g id="line2d_9">
      <g>
       <use style="stroke:#000000;stroke-width:0.8;" x="54" xlink:href="#m407cf7727a" y="215.76"/>
      </g>
     </g>
     <g id="text_10">
      <!-- −95 -->
      <g transform="translate(25.895312 219.559219)scale(0.1 -0.1)">
       <defs>
        <path d="M 703 97 
L 703 672 
Q 941 559 1184 500 
Q 1428 441 1663 441 
Q 2288 441 2617 861 
Q 2947 1281 2994 2138 
Q 2813 1869 2534 1725 
Q 2256 1581 1919 1581 
Q 1219 1581 811 2004 
Q 403 2428 403 3163 
Q 403 3881 828 4315 
Q 1253 4750 1959 4750 
Q 2769 4750 3195 4129 
Q 3622 3509 3622 2328 
Q 3622 1225 3098 567 
Q 2575 -91 1691 -91 
Q 1453 -91 1209 -44 
Q 966 3 703 97 
z
M 1959 2075 
Q 2384 2075 2632 2365 
Q 2881 2656 2881 3163 
Q 2881 3666 2632 3958 
Q 2384 4250 1959 4250 
Q 1534 4250 1286 3958 
Q 1038 3666 1038 3163 
Q 1038 2656 1286 2365 
Q 1534 2075 1959 2075 
z
" id="DejaVuSans-39" transform="scale(0.015625)"/>
       </defs>
       <use xlink:href="#DejaVuSans-2212"/>
       <use x="83.789062" xlink:href="#DejaVuSans-39"/>
       <use x="147.412109" xlink:href="#DejaVuSans-35"/>
      </g>
     </g>
    </g>
    <g id="ytick_3">
     <g id="line2d_10">
      <g>
       <use style="stroke:#000000;stroke-width:0.8;" x="54" xlink:href="#m407cf7727a" y="179.52"/>
      </g>
     </g>
     <g id="text_11">
      <!-- −90 -->
      <g transform="translate(25.895312 183.319219)scale(0.1 -0.1)">
       <use xlink:href="#DejaVuSans-2212"/>
       <use x="83.789062" xlink:href="#DejaVuSans-39"/>
       <use x="147.412109" xlink:href="#DejaVuSans-30"/>
      </g>
     </g>
    </g>
    <g id="ytick_4">
     <g id="line2d_11">
      <g>
       <use style="stroke:#000000;stroke-width:0.8;" x="54" xlink:href="#m407cf7727a" y="143.28"/>
      </g>
     </g>
     <g id="text_12">
      <!-- −85 -->
      <g transform="translate(25.895312 147.079219)scale(0.1 -0.1)">
       <defs>
        <path d="M 2034 2216 
Q 1584 2216 1326 1975 
Q 1069 1734 1069 1313 
Q 1069 891 1326 650 
Q 1584 409 2034 409 
Q 2484 409 2743 651 
Q 3003 894 3003 1313 
Q 3003 1734 2745 1975 
Q 2488 2216 2034 2216 
z
M 1403 2484 
Q 997 2584 770 2862 
Q 544 3141 544 3541 
Q 544 4100 942 4425 
Q 1341 4750 2034 4750 
Q 2731 4750 3128 4425 
Q 3525 4100 3525 3541 
Q 3525 3141 3298 2862 
Q 3072 2584 2669 2484 
Q 3125 2378 3379 2068 
Q 3634 1759 3634 1313 
Q 3634 634 3220 271 
Q 2806 -91 2034 -91 
Q 1263 -91 848 271 
Q 434 634 434 1313 
Q 434 1759 690 2068 
Q 947 2378 1403 2484 
z
M 1172 3481 
Q 1172 3119 1398 2916 
Q 1625 2713 2034 2713 
Q 2441 2713 2670 2916 
Q 2900 3119 2900 3481 
Q 2900 3844 2670 4047 
Q 2441 4250 2034 4250 
Q 1625 4250 1398 4047 
Q 1172 3844 1172 3481 
z
" id="DejaVuSans-38" transform="scale(0.015625)"/>
       </defs>
       <use xlink:href="#DejaVuSans-2212"/>
       <use x="83.789062" xlink:href="#DejaVuSans-38"/>
       <use x="147.412109" xlink:href="#DejaVuSans-35"/>
      </g>
     </g>
    </g>
    <g id="ytick_5">
     <g id="line2d_12">
      <g>
       <use style="stroke:#000000;stroke-width:0.8;" x="54" xlink:href="#m407cf7727a" y="107.04"/>
      </g>
     </g>
     <g id="text_13">
      <!-- −80 -->
      <g transform="translate(25.895312 110.839219)scale(0.1 -0.1)">
       <use xlink:href="#DejaVuSans-2212"/>
       <use x="83.789062" xlink:href="#DejaVuSans-38"/>
       <use x="147.412109" xlink:href="#DejaVuSans-30"/>
      </g>
     </g>
    </g>
    <g id="ytick_6">
     <g id="line2d_13">
      <g>
       <use style="stroke:#000000;stroke-width:0.8;" x="54" xlink:href="#m407cf7727a" y="70.8"/>
      </g>
     </g>
     <g id="text_14">
      <!-- −75 -->
      <g transform="translate(25.895312 74.599219)scale(0.1 -0.1)">
       <defs>
        <path d="M 525 4666 
L 3525 4666 
L 3525 4397 
L 1831 0 
L 1172 0 
L 2766 4134 
L 525 4134 
L 525 4666 
z
" id="DejaVuSans-37" transform="scale(0.015625)"/>
       </defs>
       <use xlink:href="#DejaVuSans-2212"/>
       <use x="83.789062" xlink:href="#DejaVuSans-37"/>
       <use x="147.412109" xlink:href="#DejaVuSans-35"/>
      </g>
     </g>
    </g>
    <g id="ytick_7">
     <g id="line2d_14">
      <g>
       <use style="stroke:#000000;stroke-width:0.8;" x="54" xlink:href="#m407cf7727a" y="34.56"/>
      </g>
     </g>
     <g id="text_15">
      <!-- −70 -->
      <g transform="translate(25.895312 38.359219)scale(0.1 -0.1)">
       <use xlink:href="#DejaVuSans-2212"/>
       <use x="83.789062" xlink:href="#DejaVuSans-37"/>
       <use x="147.412109" xlink:href="#DejaVuSans-30"/>
      </g>
     </g>
    </g>
    <g id="text_16">
     <!-- Membrane potential (mV) -->
     <g transform="translate(13.453125 207.691719)rotate(-90)scale(0.1 -0.1)">
      <defs>
       <path d="M 628 4666 
L 1569 4666 
L 2759 1491 
L 3956 4666 
L 4897 4666 
L 4897 0 
L 4281 0 
L 4281 4097 
L 3078 897 
L 2444 897 
L 1241 4097 
L 1241 0 
L 628 0 
L 628 4666 
z
" id="DejaVuSans-4d" transform="scale(0.015625)"/>
       <path d="M 3116 1747 
Q 3116 2381 2855 2742 
Q 2594 3103 2138 3103 
Q 1681 3103 1420 2742 
Q 1159 2381 1159 1747 
Q 1159 1113 1420 752 
Q 1681 391 2138 391 
Q 2594 391 2855 752 
Q 3116 1113 3116 1747 
z
M 1159 2969 
Q 1341 3281 1617 3432 
Q 1894 3584 2278 3584 
Q 2916 3584 3314 3078 
Q 3713 2572 3713 1747 
Q 3713 922 3314 415 
Q 2916 -91 2278 -91 
Q 1894 -91 1617 61 
Q 1341 213 1159 525 
L 1159 0 
L 581 0 
L 581 4863 
L 1159 4863 
L 1159 2969 
z
" id="DejaVuSans-62" transform="scale(0.015625)"/>
       <path d="M 2631 2963 
Q 2534 3019 2420 3045 
Q 2306 3072 2169 3072 
Q 1681 3072 1420 2755 
Q 1159 2438 1159 1844 
L 1159 0 
L 581 0 
L 581 3500 
L 1159 3500 
L 1159 2956 
Q 1341 3275 1631 3429 
Q 1922 3584 2338 3584 
Q 2397 3584 2469 3576 
Q 2541 3569 2628 3553 
L 2631 2963 
z
" id="DejaVuSans-72" transform="scale(0.015625)"/>
       <path d="M 2194 1759 
Q 1497 1759 1228 1600 
Q 959 1441 959 1056 
Q 959 750 1161 570 
Q 1363 391 1709 391 
Q 2188 391 2477 730 
Q 2766 1069 2766 1631 
L 2766 1759 
L 2194 1759 
z
M 3341 1997 
L 3341 0 
L 2766 0 
L 2766 531 
Q 2569 213 2275 61 
Q 1981 -91 1556 -91 
Q 1019 -91 701 211 
Q 384 513 384 1019 
Q 384 1609 779 1909 
Q 1175 2209 1959 2209 
L 2766 2209 
L 2766 2266 
Q 2766 2663 2505 2880 
Q 2244 3097 1772 3097 
Q 1472 3097 1187 3025 
Q 903 2953 641 2809 
L 641 3341 
Q 956 3463 1253 3523 
Q 1550 3584 1831 3584 
Q 2591 3584 2966 3190 
Q 3341 2797 3341 1997 
z
" id="DejaVuSans-61" transform="scale(0.015625)"/>
       <path d="M 3513 2113 
L 3513 0 
L 2938 0 
L 2938 2094 
Q 2938 2591 2744 2837 
Q 2550 3084 2163 3084 
Q 1697 3084 1428 2787 
Q 1159 2491 1159 1978 
L 1159 0 
L 581 0 
L 581 3500 
L 1159 3500 
L 1159 2956 
Q 1366 3272 1645 3428 
Q 1925 3584 2291 3584 
Q 2894 3584 3203 3211 
Q 3513 2838 3513 2113 
z
" id="DejaVuSans-6e" transform="scale(0.015625)"/>
       <path id="DejaVuSans-20" transform="scale(0.015625)"/>
       <path d="M 1159 525 
L 1159 -1331 
L 581 -1331 
L 581 3500 
L 1159 3500 
L 1159 2969 
Q 1341 3281 1617 3432 
Q 1894 3584 2278 3584 
Q 2916 3584 3314 3078 
Q 3713 2572 3713 1747 
Q 3713 922 3314 415 
Q 2916 -91 2278 -91 
Q 1894 -91 1617 61 
Q 1341 213 1159 525 
z
M 3116 1747 
Q 3116 2381 2855 2742 
Q 2594 3103 2138 3103 
Q 1681 3103 1420 2742 
Q 1159 2381 1159 1747 
Q 1159 1113 1420 752 
Q 1681 391 2138 391 
Q 2594 391 2855 752 
Q 3116 1113 3116 1747 
z
" id="DejaVuSans-70" transform="scale(0.015625)"/>
       <path d="M 1959 3097 
Q 1497 3097 1228 2736 
Q 959 2375 959 1747 
Q 959 1119 1226 758 
Q 1494 397 1959 397 
Q 2419 397 2687 759 
Q 2956 1122 2956 1747 
Q 2956 2369 2687 2733 
Q 2419 3097 1959 3097 
z
M 1959 3584 
Q 2709 3584 3137 3096 
Q 3566 2609 3566 1747 
Q 3566 888 3137 398 
Q 2709 -91 1959 -91 
Q 1206 -91 779 398 
Q 353 888 353 1747 
Q 353 2609 779 3096 
Q 1206 3584 1959 3584 
z
" id="DejaVuSans-6f" transform="scale(0.015625)"/>
       <path d="M 1172 4494 
L 1172 3500 
L 2356 3500 
L 2356 3053 
L 1172 3053 
L 1172 1153 
Q 1172 725 1289 603 
Q 1406 481 1766 481 
L 2356 481 
L 2356 0 
L 1766 0 
Q 1100 0 847 248 
Q 594 497 594 1153 
L 594 3053 
L 172 3053 
L 172 3500 
L 594 3500 
L 594 4494 
L 1172 4494 
z
" id="DejaVuSans-74" transform="scale(0.015625)"/>
       <path d="M 603 4863 
L 1178 4863 
L 1178 0 
L 603 0 
L 603 4863 
z
" id="DejaVuSans-6c" transform="scale(0.015625)"/>
       <path d="M 1831 0 
L 50 4666 
L 709 4666 
L 2188 738 
L 3669 4666 
L 4325 4666 
L 2547 0 
L 1831 0 
z
" id="DejaVuSans-56" transform="scale(0.015625)"/>
      </defs>
      <use xlink:href="#DejaVuSans-4d"/>
      <use x="86.279297" xlink:href="#DejaVuSans-65"/>
      <use x="147.802734" xlink:href="#DejaVuSans-6d"/>
      <use x="245.214844" xlink:href="#DejaVuSans-62"/>
      <use x="308.691406" xlink:href="#DejaVuSans-72"/>
      <use x="349.804688" xlink:href="#DejaVuSans-61"/>
      <use x="411.083984" xlink:href="#DejaVuSans-6e"/>
      <use x="474.462891" xlink:href="#DejaVuSans-65"/>
      <use x="535.986328" xlink:href="#DejaVuSans-20"/>
      <use x="567.773438" xlink:href="#DejaVuSans-70"/>
      <use x="631.25" xlink:href="#DejaVuSans-6f"/>
      <use x="692.431641" xlink:href="#DejaVuSans-74"/>
      <use x="731.640625" xlink:href="#DejaVuSans-65"/>
      <use x="793.164062" xlink:href="#DejaVuSans-6e"/>
      <use x="856.542969" xlink:href="#DejaVuSans-74"/>
      <use x="895.751953" xlink:href="#DejaVuSans-69"/>
      <use x="923.535156" xlink:href="#DejaVuSans-61"/>
      <use x="984.814453" xlink:href="#DejaVuSans-6c"/>
      <use x="1012.597656" xlink:href="#DejaVuSans-20"/>
      <use x="1044.384766" xlink:href="#DejaVuSans-28"/>
      <use x="1083.398438" xlink:href="#DejaVuSans-6d"/>
      <use x="1180.810547" xlink:href="#DejaVuSans-56"/>
      <use x="1249.21875" xlink:href="#DejaVuSans-29"/>
     </g>
    </g>
   </g>
   <g id="line2d_15">
    <path clip-path="url(#p00ea0a0ebd)" d="M 69.218182 157.776 
L 69.522545 186.444014 
L 69.928364 201.71845 
L 70.283455 209.652835 
L 70.435636 207.529896 
L 70.74 201.688008 
L 70.790727 201.561893 
L 70.841455 201.625675 
L 70.993636 202.665763 
L 71.348727 207.532795 
L 72.109636 217.773494 
L 72.312545 219.505042 
L 72.363273 219.378202 
L 72.769091 217.159589 
L 72.870545 217.237867 
L 73.073455 217.91483 
L 73.428545 219.665222 
L 73.479273 219.604339 
L 73.935818 217.833653 
L 74.088 218.06269 
L 74.392364 219.256435 
L 74.544545 219.760896 
L 74.595273 219.723931 
L 74.696727 219.351384 
L 75.305455 214.392302 
L 75.457636 214.74673 
L 75.762 216.434789 
L 75.863455 216.83053 
L 76.522909 205.473638 
L 76.776545 204.103042 
L 76.928727 203.847912 
L 77.030182 204.108115 
L 77.233091 205.534522 
L 77.791091 212.053373 
L 78.298364 216.842851 
L 78.399818 216.695717 
L 78.653455 216.288379 
L 78.805636 216.450734 
L 79.008545 217.012454 
L 79.414364 212.677426 
L 79.515818 212.805715 
L 79.718727 213.817536 
L 79.972364 215.05477 
L 80.327455 214.387229 
L 80.733273 210.176866 
L 80.834727 210.308054 
L 81.037636 211.381483 
L 82.305818 220.592242 
L 82.407273 219.547805 
L 83.016 206.094067 
L 83.320364 203.260824 
L 83.523273 201.382867 
L 83.624727 201.761213 
L 83.726182 202.288867 
L 83.776909 202.093896 
L 84.132 199.253405 
L 84.182727 199.296168 
L 84.334909 200.099971 
L 84.639273 203.60003 
L 84.943636 207.2436 
L 84.994364 207.059501 
L 85.400182 204.067526 
L 85.501636 204.38209 
L 85.755273 206.46444 
L 86.008909 208.293835 
L 86.211818 208.697549 
L 86.262545 208.54679 
L 86.414727 205.878802 
L 87.429273 182.481533 
L 87.936545 178.761134 
L 88.038 179.339525 
L 88.240909 182.444568 
L 88.494545 185.725738 
L 88.596 185.701094 
L 88.748182 185.26549 
L 88.849636 185.032104 
L 88.900364 185.071243 
L 89.052545 185.917085 
L 89.306182 189.256963 
L 89.509091 191.729256 
L 89.610545 191.603141 
L 89.712 191.980762 
L 89.914909 194.239238 
L 90.675818 205.569312 
L 90.726545 204.90757 
L 91.132364 197.510986 
L 91.233818 197.388494 
L 91.386 198.143011 
L 91.690364 201.549571 
L 91.893273 203.228208 
L 91.994727 203.356498 
L 92.096182 203.028888 
L 92.197636 202.251178 
L 92.603455 196.112122 
L 92.654182 196.109947 
L 92.755636 196.485394 
L 93.06 198.599635 
L 93.110727 198.518458 
L 93.212182 198.427858 
L 93.313636 198.65327 
L 93.516545 200.079677 
L 93.973091 205.693253 
L 94.531091 211.967122 
L 94.886182 210.109459 
L 94.936909 210.132653 
L 95.089091 210.567533 
L 95.444182 212.693371 
L 96.052909 216.605842 
L 96.103636 216.334042 
L 96.255818 211.004587 
L 96.763091 183.271565 
L 96.864545 182.738112 
L 96.915273 182.85553 
L 97.067455 184.306579 
L 97.422545 191.091432 
L 98.132727 204.87133 
L 98.893636 210.07177 
L 99.045818 208.016237 
L 99.350182 204.355997 
L 99.451636 204.191467 
L 99.553091 204.429202 
L 99.756 205.714272 
L 100.212545 210.147149 
L 100.263273 209.674579 
L 100.516909 206.613024 
L 100.567636 206.560838 
L 100.618364 206.636942 
L 100.719818 206.743488 
L 100.922727 206.168722 
L 101.328545 203.187619 
L 101.582182 199.057709 
L 102.190909 186.965146 
L 102.241636 186.903538 
L 102.292364 187.007184 
L 102.444545 188.148019 
L 102.748909 192.812832 
L 102.951818 195.203222 
L 103.104 195.86279 
L 103.357636 198.495989 
L 104.118545 209.374512 
L 104.169273 209.290435 
L 104.372182 204.847411 
L 104.575091 201.976478 
L 104.778 201.116866 
L 104.980909 199.310664 
L 105.031636 199.267901 
L 105.082364 199.365749 
L 105.234545 200.308714 
L 105.640364 205.095293 
L 106.299818 212.428094 
L 106.401273 212.531741 
L 106.452 212.493326 
L 106.604182 212.375184 
L 106.705636 211.365538 
L 107.01 207.595128 
L 107.111455 207.460315 
L 107.212909 207.689352 
L 107.466545 209.09329 
L 107.517273 208.704797 
L 107.770909 206.510102 
L 107.821636 206.439797 
L 107.872364 206.478936 
L 108.024545 207.100814 
L 108.379636 210.023933 
L 109.140545 216.236918 
L 109.647818 218.749075 
L 110.155091 220.236365 
L 110.713091 221.173531 
L 111.068182 221.543179 
L 111.169636 220.972762 
L 111.321818 218.125022 
L 111.879818 203.507256 
L 112.032 202.87523 
L 112.082727 202.906397 
L 112.184182 202.308437 
L 112.437818 200.618203 
L 112.539273 200.82912 
L 112.742182 202.436726 
L 113.097273 206.781178 
L 113.148 206.399933 
L 113.756727 192.425064 
L 113.807455 192.47725 
L 113.959636 193.463702 
L 115.278545 208.76423 
L 115.887273 215.328019 
L 116.140909 216.969691 
L 116.293091 215.837554 
L 116.546727 214.227773 
L 116.698909 213.975542 
L 117.104727 209.483232 
L 117.155455 209.481058 
L 117.256909 208.434446 
L 117.510545 206.141904 
L 117.561273 206.13973 
L 117.713455 206.729717 
L 118.068545 209.834035 
L 118.880182 216.976939 
L 119.387455 219.594192 
L 119.539636 220.087056 
L 119.590364 219.948619 
L 119.742545 218.55048 
L 119.894727 214.205304 
L 120.148364 209.560061 
L 120.300545 209.148374 
L 120.452727 209.654285 
L 120.655636 210.242098 
L 120.757091 210.194986 
L 120.858545 209.400605 
L 121.467273 202.40411 
L 121.568727 202.625174 
L 121.619455 202.847688 
L 122.076 197.289922 
L 122.177455 197.681314 
L 122.431091 200.311613 
L 122.735455 204.701726 
L 122.786182 204.424853 
L 123.192 199.700606 
L 123.242727 199.798454 
L 123.394909 200.806651 
L 123.800727 205.97375 
L 124.510909 214.680048 
L 124.815273 216.987811 
L 124.916727 216.429715 
L 125.424 209.894918 
L 126.032727 190.877616 
L 126.184909 190.002058 
L 126.286364 190.416643 
L 126.489273 192.89111 
L 127.199455 205.246776 
L 127.300909 204.898872 
L 127.402364 204.738691 
L 127.554545 202.486738 
L 127.808182 199.481717 
L 127.858909 199.369373 
L 127.909636 199.39619 
L 128.061818 200.149258 
L 128.315455 202.427304 
L 128.366182 201.906898 
L 128.822727 197.065958 
L 128.873455 197.11307 
L 129.025636 198.134314 
L 129.177818 199.03669 
L 129.33 199.059158 
L 129.482182 199.789757 
L 129.786545 203.099194 
L 130.040182 206.33615 
L 130.090909 205.978824 
L 130.192364 204.54517 
L 130.446 199.747718 
L 130.547455 199.505635 
L 131.054727 201.006696 
L 131.105455 200.744318 
L 131.460545 197.29717 
L 131.714182 193.613011 
L 132.069273 192.526536 
L 132.170727 192.878789 
L 133.134545 198.89028 
L 133.185273 198.909125 
L 133.489636 197.055811 
L 133.540364 197.136989 
L 133.692545 198.067632 
L 134.047636 202.519354 
L 134.91 213.545011 
L 135.417273 217.284254 
L 135.772364 218.759947 
L 135.873818 218.344637 
L 136.279636 216.052094 
L 136.381091 215.690419 
L 136.837636 211.359014 
L 136.939091 211.334371 
L 137.040545 211.490203 
L 137.192727 210.645811 
L 137.446364 209.581805 
L 137.547818 209.647762 
L 137.750727 210.43127 
L 138.258 214.008883 
L 138.359455 214.63656 
L 138.613091 210.665381 
L 138.866727 208.27789 
L 139.069636 207.738638 
L 139.526182 200.843616 
L 139.830545 199.28892 
L 139.932 199.509984 
L 140.134909 200.973355 
L 140.642182 207.274042 
L 140.946545 210.05075 
L 141.301636 210.55811 
L 141.352364 210.748008 
L 141.403091 210.697997 
L 141.808909 206.470238 
L 142.113273 198.151709 
L 142.214727 197.67479 
L 142.265455 197.737848 
L 142.417636 198.754018 
L 142.772727 203.470291 
L 143.330727 210.834984 
L 143.635091 209.921736 
L 143.736545 210.055099 
L 143.939455 210.95675 
L 145.512 220.159536 
L 146.019273 221.35908 
L 146.374364 221.888184 
L 146.425091 221.688139 
L 146.881636 216.298526 
L 146.983091 215.619389 
L 147.338182 212.341843 
L 147.439636 212.215003 
L 147.490364 212.267914 
L 147.642545 212.766576 
L 148.048364 215.277283 
L 148.758545 219.448507 
L 149.265818 221.246736 
L 149.773091 222.295522 
L 149.874545 221.385173 
L 150.280364 213.399326 
L 150.736909 206.08537 
L 151.142727 204.636494 
L 151.193455 204.664037 
L 151.345636 205.256923 
L 151.65 207.943032 
L 151.700727 208.382986 
L 151.751455 208.322827 
L 152.208 206.160749 
L 152.258727 206.017963 
L 152.715273 196.941293 
L 152.766 196.96956 
L 152.918182 197.864688 
L 153.222545 201.73367 
L 154.084909 213.685622 
L 154.135636 213.711715 
L 154.490727 212.493326 
L 154.541455 212.540438 
L 154.795091 213.197107 
L 154.845818 213.07824 
L 154.947273 212.289658 
L 155.251636 205.301861 
L 155.708182 202.376568 
L 155.758909 202.480939 
L 155.911091 203.350699 
L 156.266182 207.176918 
L 157.077818 215.922355 
L 157.585091 219.122347 
L 157.990909 220.663272 
L 158.041636 220.611811 
L 158.701091 214.192258 
L 158.954727 211.810565 
L 159.106909 211.39453 
L 159.766364 205.063402 
L 159.867818 205.274318 
L 160.02 205.920115 
L 160.070727 205.829515 
L 160.222909 204.553867 
L 160.476545 202.63967 
L 160.527273 202.577338 
L 160.578 202.622275 
L 160.730182 203.307211 
L 161.034545 206.225981 
L 161.592545 211.812014 
L 161.846182 211.345968 
L 161.896909 211.377134 
L 161.998364 211.502525 
L 162.049091 211.41265 
L 162.150545 209.97972 
L 162.454909 204.773482 
L 162.860727 203.261549 
L 162.962182 203.150654 
L 163.063636 203.399986 
L 163.266545 204.735067 
L 163.875273 211.227826 
L 164.484 216.595694 
L 164.940545 218.928101 
L 165.042 217.813358 
L 165.447818 210.278338 
L 165.650727 209.676029 
L 165.802909 210.131203 
L 166.158 212.542613 
L 166.259455 212.899939 
L 166.665273 211.434394 
L 166.817455 211.798243 
L 166.868182 211.751856 
L 167.020364 210.44939 
L 167.476909 203.624674 
L 167.781273 202.22291 
L 167.832 202.201166 
L 168.187091 199.812226 
L 168.440727 198.649646 
L 168.542182 198.918547 
L 168.745091 200.489189 
L 169.303091 207.668333 
L 169.962545 214.977216 
L 170.114727 216.180384 
L 170.165455 215.956421 
L 170.469818 211.519195 
L 170.571273 211.348142 
L 170.622 211.410475 
L 170.824909 212.241821 
L 171.027818 213.35004 
L 171.585818 207.906792 
L 172.093091 192.937498 
L 172.397455 191.845949 
L 172.448182 191.812608 
L 172.549636 192.16631 
L 172.752545 194.250835 
L 173.361273 204.521251 
L 173.462727 205.983173 
L 173.513455 205.844011 
L 173.716364 204.990197 
L 173.817818 205.235179 
L 173.97 206.015064 
L 174.020727 205.880251 
L 174.122182 203.80225 
L 174.477273 194.435659 
L 174.832364 190.161514 
L 175.187455 187.814611 
L 175.288909 188.16179 
L 175.491818 190.442011 
L 175.897636 196.791259 
L 175.948364 196.341883 
L 176.455636 180.041856 
L 176.861455 165.480624 
L 177.013636 164.789165 
L 177.064364 164.808734 
L 177.165818 165.357408 
L 177.368727 168.439258 
L 177.774545 175.424155 
L 177.876 175.803226 
L 177.926727 175.714075 
L 178.028182 175.379942 
L 178.180364 173.702755 
L 178.383273 172.123416 
L 178.484727 172.595986 
L 178.687636 175.556794 
L 178.890545 178.416854 
L 179.042727 176.883178 
L 179.245636 175.162502 
L 179.296364 175.234982 
L 179.448545 176.596882 
L 179.955818 183.752832 
L 180.006545 183.59555 
L 180.108 183.196186 
L 180.158727 183.241123 
L 180.310909 184.456613 
L 180.513818 186.402701 
L 180.767455 184.780598 
L 180.868909 185.253168 
L 181.071818 187.744306 
L 181.579091 194.390722 
L 181.832727 194.575546 
L 181.984909 195.418488 
L 182.238545 197.679864 
L 182.289273 197.267453 
L 182.644364 193.056365 
L 182.695091 193.049842 
L 182.796545 193.284677 
L 182.847273 193.161461 
L 183.050182 192.693965 
L 183.151636 193.049117 
L 183.456 195.50184 
L 183.506727 195.14089 
L 183.811091 192.322867 
L 183.861818 192.346061 
L 184.014 193.186829 
L 184.267636 196.068634 
L 184.369091 195.75407 
L 184.521273 193.402094 
L 184.774909 185.33652 
L 185.13 177.260798 
L 185.180727 177.07235 
L 185.231455 177.109315 
L 185.383636 178.336402 
L 185.535818 180.145502 
L 185.586545 179.941834 
L 185.789455 176.936813 
L 185.941636 175.622026 
L 185.992364 175.645944 
L 186.093818 176.056906 
L 186.296727 174.671088 
L 186.398182 175.440826 
L 186.702545 179.526523 
L 186.753273 179.163398 
L 187.159091 174.317386 
L 187.209818 174.515256 
L 187.362 176.119963 
L 187.869273 184.234099 
L 188.478 168.525509 
L 188.731636 160.575902 
L 188.833091 159.990989 
L 188.883818 160.164216 
L 189.137455 161.384779 
L 189.340364 164.802211 
L 189.847636 174.242731 
L 189.898364 174.202867 
L 190.71 166.288051 
L 190.760727 166.362706 
L 190.912909 167.478173 
L 191.166545 171.954538 
L 191.572364 179.625096 
L 191.724545 179.107589 
L 191.775273 179.145278 
L 191.876727 179.749762 
L 192.434727 186.692621 
L 192.942 195.352531 
L 193.144909 197.356603 
L 193.246364 196.052688 
L 193.5 190.094832 
L 194.210182 173.714352 
L 194.362364 172.83372 
L 194.463818 173.32441 
L 194.666727 175.190045 
L 194.717455 174.815323 
L 194.971091 173.159155 
L 195.174 171.500088 
L 195.326182 169.804781 
L 195.376909 169.808405 
L 195.478364 170.548426 
L 195.884182 175.292242 
L 195.934909 175.22556 
L 196.036364 174.61093 
L 196.391455 169.543128 
L 196.492909 170.201971 
L 196.746545 174.675437 
L 197.101636 180.615173 
L 197.152364 181.082669 
L 197.203091 180.889147 
L 197.355273 176.40191 
L 197.608909 170.093251 
L 197.710364 168.803107 
L 198.014727 164.896435 
L 198.166909 163.86287 
L 198.623455 155.643638 
L 198.978545 141.79561 
L 199.08 141.264331 
L 199.181455 141.633254 
L 199.282909 141.307819 
L 199.333636 141.411466 
L 199.485818 143.36915 
L 199.790182 152.290714 
L 200.398909 171.32831 
L 200.449636 171.581266 
L 200.500364 171.476894 
L 200.551091 171.519658 
L 200.652545 172.325635 
L 200.804727 174.178224 
L 200.855455 174.086174 
L 201.058364 172.840243 
L 201.109091 172.925045 
L 201.312 174.503659 
L 201.413455 174.224611 
L 201.514909 173.004773 
L 201.768545 168.849494 
L 201.920727 168.608136 
L 201.971455 168.675542 
L 202.072909 167.377426 
L 202.428 161.649331 
L 202.478727 161.56163 
L 202.580182 162.046522 
L 203.493273 172.520606 
L 204.609273 193.749998 
L 204.812182 194.911128 
L 205.015091 195.951216 
L 205.370182 199.63465 
L 205.978909 206.291213 
L 206.131091 205.666435 
L 206.283273 202.773034 
L 206.587636 197.13264 
L 206.739818 196.604986 
L 206.841273 196.865914 
L 207.044182 198.338707 
L 207.196364 199.827446 
L 207.247091 199.708579 
L 207.906545 191.034173 
L 207.957273 191.118974 
L 208.109455 192.043094 
L 208.464545 196.490467 
L 209.225455 206.760158 
L 209.631273 201.686558 
L 209.884909 194.582069 
L 210.493636 177.431126 
L 210.848727 171.265978 
L 210.950182 171.020995 
L 211.051636 171.519658 
L 211.254545 174.211565 
L 211.457455 177.642043 
L 211.508182 177.418805 
L 211.660364 175.126987 
L 211.964727 169.806955 
L 212.015455 169.765642 
L 212.319818 170.91155 
L 213.080727 176.65559 
L 213.131455 176.581661 
L 213.182182 176.524402 
L 213.435818 175.403861 
L 213.537273 175.947461 
L 213.943091 181.216757 
L 214.298182 187.075315 
L 214.551818 190.342714 
L 214.653273 190.506518 
L 214.805455 191.692291 
L 215.211273 197.76539 
L 215.464909 200.966107 
L 215.617091 198.764165 
L 215.972182 192.78239 
L 216.022909 192.644678 
L 216.073636 192.665698 
L 216.225818 193.494869 
L 217.138909 201.581462 
L 217.189636 201.46477 
L 217.443273 200.691408 
L 217.544727 200.940014 
L 217.798364 202.027214 
L 217.849091 201.937339 
L 218.052 201.370546 
L 218.305636 197.898754 
L 218.508545 189.852024 
L 218.812909 178.464691 
L 219.370909 166.733803 
L 219.726 159.127027 
L 219.776727 158.994389 
L 219.827455 159.127752 
L 220.182545 161.408698 
L 220.892727 174.190546 
L 220.994182 176.164901 
L 221.044909 175.885853 
L 221.197091 173.519381 
L 221.552182 163.644706 
L 221.602909 163.481626 
L 221.653636 163.618613 
L 221.805818 165.010954 
L 221.856545 164.69639 
L 222.160909 162.003034 
L 222.211636 161.879818 
L 222.262364 161.98129 
L 222.414545 163.524389 
L 222.566727 164.785541 
L 222.668182 163.188806 
L 222.871091 159.613368 
L 222.921818 159.580027 
L 223.023273 160.391803 
L 223.276909 165.753874 
L 224.545091 199.68611 
L 224.595818 199.499112 
L 224.697273 197.365301 
L 225.356727 173.449075 
L 225.458182 173.191046 
L 225.559636 173.454149 
L 225.762545 171.281198 
L 225.864 171.78276 
L 226.269818 177.657989 
L 226.726364 185.510472 
L 227.081455 190.689893 
L 227.284364 191.73143 
L 227.588727 195.341659 
L 228.654 209.367989 
L 229.161273 213.102883 
L 229.668545 215.357736 
L 229.77 215.665776 
L 229.820727 215.505595 
L 230.074364 208.080019 
L 230.581636 192.959242 
L 230.683091 192.809208 
L 230.936727 190.91603 
L 230.987455 190.950096 
L 231.190364 191.893061 
L 231.241091 191.697365 
L 231.444 191.104478 
L 231.697636 188.261088 
L 231.799091 188.774246 
L 232.052727 192.211248 
L 232.357091 197.07683 
L 232.407818 196.719504 
L 232.56 196.161408 
L 232.661455 196.62528 
L 232.915091 199.456349 
L 233.320909 204.732893 
L 233.371636 204.527774 
L 233.980364 201.127013 
L 234.031091 201.207466 
L 234.234 202.299739 
L 234.284727 202.24103 
L 234.436909 198.98088 
L 234.944182 186.383131 
L 234.994909 186.44184 
L 235.147091 187.623989 
L 235.552909 191.741578 
L 235.908 192.318518 
L 236.110909 194.015275 
L 236.313818 195.455453 
L 236.466 193.752898 
L 236.821091 190.13977 
L 236.871818 190.096282 
L 236.922545 190.187606 
L 237.074727 191.15449 
L 237.379091 195.10175 
L 237.886364 202.690406 
L 237.937091 202.291766 
L 238.14 199.689734 
L 238.647273 193.965989 
L 238.748727 194.284176 
L 238.951636 196.265779 
L 239.915455 207.759658 
L 240.067636 207.869102 
L 240.270545 208.556938 
L 240.372 209.028058 
L 240.422727 208.822939 
L 240.625636 206.000568 
L 241.234364 191.254512 
L 241.285091 191.126947 
L 241.335818 191.193629 
L 241.488 192.27648 
L 241.843091 197.469672 
L 242.502545 207.384936 
L 242.604 206.229605 
L 243.009818 198.640949 
L 243.314182 196.69631 
L 243.466364 196.257806 
L 243.567818 196.57092 
L 243.770727 198.285072 
L 244.430182 207.171845 
L 244.785273 211.055323 
L 244.836 210.978494 
L 245.191091 209.56441 
L 245.292545 209.705021 
L 245.495455 210.531293 
L 246.053455 213.868997 
L 246.104182 213.650832 
L 246.459273 211.733011 
L 246.560727 211.714166 
L 246.712909 212.051198 
L 246.865091 212.562182 
L 246.915818 212.536814 
L 247.321636 211.433669 
L 247.372364 211.474982 
L 247.575273 212.038877 
L 247.981091 214.186459 
L 248.792727 218.335214 
L 248.843455 218.380152 
L 248.944909 217.997458 
L 249.147818 215.286706 
L 249.705818 207.875626 
L 249.908727 207.20736 
L 250.010182 207.416102 
L 250.213091 208.536643 
L 250.568182 210.426197 
L 250.771091 210.529118 
L 250.974 211.106784 
L 251.024727 211.257542 
L 251.075455 211.145923 
L 251.430545 209.429597 
L 251.532 209.521646 
L 251.734909 210.363864 
L 252.242182 214.071941 
L 252.698727 216.977664 
L 252.901636 213.830582 
L 253.104545 206.816693 
L 253.408909 199.497662 
L 253.561091 198.690235 
L 253.662545 198.90695 
L 253.865455 200.528328 
L 254.068364 201.912696 
L 254.271273 202.578787 
L 254.524909 204.595906 
L 255.539455 215.317872 
L 255.590182 215.046797 
L 256.351091 205.160525 
L 256.604727 200.24783 
L 256.706182 199.8144 
L 256.756909 199.829621 
L 256.909091 200.560944 
L 257.213455 203.80225 
L 257.619273 208.598251 
L 257.67 208.336598 
L 257.872909 207.42335 
L 257.974364 207.539318 
L 258.278727 208.80337 
L 258.380182 208.733064 
L 258.532364 208.746835 
L 258.786 209.273765 
L 258.836727 209.171568 
L 259.141091 208.278614 
L 259.496182 200.771861 
L 259.749818 195.48517 
L 259.902 194.394346 
L 260.003455 192.669322 
L 260.257091 187.402925 
L 260.307818 187.360886 
L 260.409273 187.969718 
L 260.662909 191.886538 
L 261.626727 208.761331 
L 261.829636 208.704072 
L 261.931091 207.856781 
L 262.184727 205.473638 
L 262.387636 205.003243 
L 262.641273 203.110066 
L 262.692 203.07745 
L 262.742727 203.156453 
L 262.894909 203.936338 
L 263.25 207.469738 
L 263.655818 211.453238 
L 264.010909 209.806493 
L 264.061636 209.857954 
L 264.163091 210.089165 
L 264.568909 206.228155 
L 264.619636 206.297011 
L 264.721091 206.131757 
L 264.924 205.697602 
L 265.025455 205.832414 
L 265.228364 206.802197 
L 265.684909 210.708144 
L 266.344364 215.907134 
L 266.445818 215.565029 
L 266.648727 213.779846 
L 266.953091 211.379309 
L 267.105273 211.099536 
L 267.257455 211.291608 
L 267.308182 211.108958 
L 267.714 208.045229 
L 267.815455 208.161197 
L 268.018364 209.148374 
L 268.677818 214.411872 
L 268.779273 213.926256 
L 269.083636 212.189635 
L 269.185091 212.194709 
L 269.337273 212.620891 
L 269.692364 214.593797 
L 270.504 219.050592 
L 270.808364 220.01965 
L 270.909818 218.49612 
L 271.366364 209.225203 
L 272.178 198.514834 
L 272.330182 198.093725 
L 272.380909 198.110395 
L 272.431636 198.031392 
L 272.736 195.617083 
L 272.837455 195.95484 
L 273.040364 197.937168 
L 273.243273 200.535576 
L 273.294 200.319586 
L 273.649091 197.352254 
L 273.801273 197.056536 
L 273.852 197.082629 
L 274.004182 197.65667 
L 274.257818 200.03184 
L 275.728909 216.923304 
L 275.881091 217.648829 
L 276.439091 212.871672 
L 276.692727 209.70937 
L 277.250727 207.649488 
L 277.301455 207.738638 
L 277.504364 208.707696 
L 278.163818 213.646483 
L 278.265273 213.454411 
L 278.518909 213.045624 
L 278.569636 213.083314 
L 278.620364 212.976043 
L 279.026182 208.317029 
L 279.736364 192.090931 
L 279.837818 191.453107 
L 279.888545 191.516165 
L 280.040727 192.759922 
L 280.395818 198.682262 
L 280.750909 204.179146 
L 280.852364 203.529725 
L 281.258182 198.498163 
L 281.308909 198.468446 
L 281.410364 198.782285 
L 281.613273 200.496437 
L 282.272727 209.320152 
L 282.881455 215.782469 
L 282.982909 216.187632 
L 283.084364 213.85885 
L 283.490182 201.345902 
L 283.794545 194.26968 
L 284.048182 188.374882 
L 284.149636 188.040749 
L 284.251091 188.56333 
L 284.504727 192.161962 
L 284.961273 198.83447 
L 285.062727 199.090325 
L 285.265636 200.867534 
L 285.417818 202.528051 
L 285.468545 202.276546 
L 285.823636 198.149534 
L 285.874364 198.150259 
L 285.975818 198.551798 
L 286.787455 203.714549 
L 286.990364 203.389838 
L 287.041091 203.452896 
L 287.193273 204.103766 
L 287.497636 206.777554 
L 288.36 214.832256 
L 288.512182 213.252192 
L 288.664364 210.329798 
L 288.968727 204.251626 
L 289.222364 202.092446 
L 289.425273 200.66749 
L 289.476 200.668214 
L 289.577455 201.024091 
L 289.831091 203.299238 
L 290.389091 208.772203 
L 290.744182 209.9616 
L 291.200727 212.829634 
L 291.708 216.094858 
L 291.809455 215.367883 
L 292.468909 204.361795 
L 292.570364 204.445872 
L 292.773273 205.554816 
L 293.331273 210.774826 
L 293.382 210.228326 
L 293.635636 208.109736 
L 293.737091 208.271366 
L 293.94 209.462213 
L 294.802364 216.46668 
L 294.853091 216.431165 
L 295.309636 213.797242 
L 295.360364 213.812462 
L 295.512545 214.145146 
L 295.918364 215.905685 
L 295.969091 215.715787 
L 296.374909 213.578352 
L 296.476364 213.614592 
L 296.679273 214.098758 
L 297.034364 209.412926 
L 297.186545 208.656235 
L 297.440182 207.71617 
L 297.541636 207.908966 
L 297.592364 208.109011 
L 297.643091 207.998117 
L 297.947455 204.901046 
L 298.048909 205.086595 
L 298.150364 205.354046 
L 298.201091 205.33955 
L 298.302545 205.225757 
L 298.404 204.286416 
L 298.657636 201.875006 
L 298.708364 201.84384 
L 298.759091 201.941688 
L 298.911273 202.835366 
L 299.164909 205.343174 
L 299.215636 204.890899 
L 299.52 199.698432 
L 299.925818 184.79292 
L 300.128727 182.8722 
L 300.230182 183.28896 
L 300.433091 185.956224 
L 301.244727 199.312838 
L 301.295455 199.536802 
L 301.346182 199.441853 
L 301.549091 198.566294 
L 301.599818 198.610507 
L 301.752 199.419384 
L 302.056364 202.925242 
L 302.969455 214.195157 
L 303.020182 214.260389 
L 303.121636 212.53319 
L 303.527455 200.253629 
L 303.882545 197.034067 
L 304.186909 189.284506 
L 304.288364 188.86992 
L 304.339091 188.991686 
L 304.491273 190.315171 
L 304.744909 192.394622 
L 304.897091 193.312219 
L 305.962364 203.31301 
L 306.013091 203.136883 
L 306.317455 202.106218 
L 306.774 200.434104 
L 306.824727 200.465995 
L 306.976909 201.062506 
L 307.281273 203.822544 
L 307.534909 205.882426 
L 307.788545 205.564238 
L 307.89 205.726594 
L 307.940727 205.654114 
L 308.143636 204.83219 
L 308.498727 201.567691 
L 308.600182 201.476366 
L 308.701636 200.676187 
L 309.056727 196.549901 
L 309.158182 196.620206 
L 309.411818 195.515611 
L 309.513273 195.693912 
L 309.665455 196.220117 
L 309.817636 196.02732 
L 309.919091 196.30057 
L 310.122 197.958912 
L 310.629273 205.110514 
L 311.187273 212.214278 
L 311.238 212.375909 
L 311.288727 212.344742 
L 311.643818 211.677926 
L 311.846727 211.988141 
L 312.049636 207.276941 
L 312.404727 199.38097 
L 312.556909 198.922896 
L 312.658364 199.291094 
L 312.810545 200.188397 
L 312.861273 200.044886 
L 313.064182 199.442578 
L 313.165636 199.789757 
L 313.419273 202.13376 
L 314.383091 213.559507 
L 314.433818 213.214502 
L 314.738182 210.418949 
L 314.788909 210.349368 
L 314.991818 206.732616 
L 315.651273 193.270906 
L 315.752727 193.555027 
L 315.955636 195.445306 
L 316.513636 204.071875 
L 317.173091 212.857176 
L 317.578909 216.03035 
L 317.832545 209.712269 
L 318.390545 190.938499 
L 318.441273 190.813834 
L 318.492 190.902984 
L 318.644182 192.125722 
L 318.999273 197.820475 
L 319.455818 204.411082 
L 319.760182 206.04913 
L 320.064545 208.505477 
L 320.216727 204.645917 
L 320.470364 200.275373 
L 320.724 199.531003 
L 320.825455 199.690459 
L 321.028364 200.944363 
L 321.434182 205.61425 
L 321.890727 210.916162 
L 321.941455 210.759605 
L 322.195091 209.736912 
L 322.296545 209.874624 
L 322.499455 210.815414 
L 322.651636 211.283635 
L 323.006727 210.5958 
L 323.158909 210.945154 
L 323.463273 212.576678 
L 324.224182 217.524163 
L 324.274909 217.487923 
L 324.731455 213.358013 
L 324.832909 213.390629 
L 324.934364 213.582701 
L 325.086545 212.316475 
L 325.238727 209.594126 
L 325.593818 202.009819 
L 325.746 201.414034 
L 325.847455 201.688733 
L 326.050364 202.862184 
L 326.101091 202.764336 
L 326.304 202.368595 
L 326.405455 202.668662 
L 326.608364 204.192192 
L 326.760545 205.461317 
L 326.811273 205.235179 
L 327.014182 202.909296 
L 327.217091 201.331406 
L 327.267818 201.28212 
L 327.318545 201.35605 
L 327.470727 202.175074 
L 327.876545 204.678533 
L 328.079455 205.520026 
L 328.485273 208.080744 
L 328.536 207.998117 
L 328.738909 207.729941 
L 328.789636 207.790099 
L 328.891091 206.8812 
L 329.144727 204.437899 
L 329.195455 204.366869 
L 329.246182 204.413981 
L 329.398364 205.110514 
L 329.753455 208.432272 
L 330.565091 216.038323 
L 330.666545 216.679046 
L 330.717273 216.621787 
L 330.869455 215.069266 
L 331.579636 205.404058 
L 331.985455 201.421282 
L 332.137636 201.853987 
L 332.442 199.877458 
L 332.492727 199.949213 
L 332.594182 200.19347 
L 332.746364 196.762267 
L 333.202909 185.946802 
L 333.253636 185.908387 
L 333.355091 186.400526 
L 333.608727 189.696192 
L 334.521818 200.047061 
L 334.572545 200.186947 
L 334.623273 200.010821 
L 334.927636 198.584414 
L 335.029091 198.339432 
L 335.232 197.742922 
L 335.333455 197.940792 
L 335.536364 199.351978 
L 335.992909 204.974251 
L 336.703091 213.163766 
L 337.210364 216.764573 
L 337.666909 218.662824 
L 337.717636 218.646878 
L 337.819091 218.160538 
L 337.971273 215.637509 
L 338.58 200.348578 
L 338.681455 199.948488 
L 338.833636 197.896579 
L 339.138 193.49197 
L 339.188727 193.444133 
L 339.290182 193.826827 
L 339.493091 195.927298 
L 339.949636 201.038587 
L 340.254 199.057709 
L 340.304727 199.066406 
L 340.406182 199.416485 
L 340.659818 201.666264 
L 341.167091 207.666883 
L 341.217818 207.600202 
L 341.420727 207.053702 
L 341.471455 207.071822 
L 341.623636 207.549466 
L 341.775818 208.245274 
L 342.130909 205.347523 
L 342.232364 205.586707 
L 342.486 207.383486 
L 343.602 216.7566 
L 344.007818 218.62151 
L 344.058545 218.319994 
L 344.667273 207.907517 
L 344.768727 208.054651 
L 344.971636 209.104162 
L 345.326727 211.944653 
L 345.377455 211.927258 
L 345.884727 204.86843 
L 345.935455 204.903221 
L 346.087636 205.543219 
L 346.239818 206.384712 
L 346.290545 206.313682 
L 346.544182 205.733842 
L 346.645636 205.962878 
L 346.848545 207.176918 
L 347.051455 208.509101 
L 347.355818 206.797123 
L 347.457273 207.008765 
L 347.660182 208.266293 
L 348.421091 214.861973 
L 349.232727 203.631922 
L 349.283455 203.595682 
L 349.334182 203.67251 
L 349.486364 204.437174 
L 349.892182 206.88265 
L 350.095091 207.322603 
L 350.145818 207.11531 
L 350.450182 204.675634 
L 350.551636 204.728544 
L 350.703818 205.436674 
L 350.906727 206.813069 
L 350.957455 206.50068 
L 351.211091 205.083696 
L 351.312545 205.39681 
L 351.616909 207.167496 
L 351.718364 207.091392 
L 351.819818 207.065299 
L 351.972 207.44292 
L 352.225636 209.03603 
L 353.088 216.071664 
L 353.747455 207.282739 
L 353.848909 207.508152 
L 354.102545 209.176642 
L 354.508364 212.320099 
L 354.609818 211.120555 
L 355.015636 202.96728 
L 355.167818 202.560667 
L 355.269273 202.884653 
L 355.522909 204.440074 
L 355.573636 204.211762 
L 355.776545 202.667938 
L 356.030182 198.398866 
L 356.080909 198.332184 
L 356.182364 198.720677 
L 356.436 201.453898 
L 357.095455 209.672405 
L 357.399818 208.7838 
L 357.856364 202.109117 
L 358.008545 201.540874 
L 358.11 201.840941 
L 358.312909 203.494934 
L 359.733273 217.888013 
L 359.885455 218.520038 
L 359.936182 218.450458 
L 360.494182 216.314472 
L 360.544909 216.328968 
L 360.697091 216.556555 
L 361.001455 217.525613 
L 362.016 221.030021 
L 362.371091 221.735976 
L 362.472545 221.108299 
L 363.081273 211.414824 
L 363.182727 211.569931 
L 363.385636 212.53609 
L 363.588545 213.808114 
L 363.639273 213.553709 
L 363.943636 211.690248 
L 364.045091 211.757654 
L 364.248 212.582477 
L 364.856727 216.810235 
L 365.364 219.718858 
L 365.414727 219.641304 
L 365.617636 213.938578 
L 365.922 206.187566 
L 366.124909 205.103266 
L 366.226364 205.348248 
L 366.429273 206.751461 
L 366.987273 212.40925 
L 367.038 212.141074 
L 367.291636 210.411701 
L 367.393091 210.492878 
L 367.596 211.475707 
L 368.204727 215.927429 
L 368.661273 206.98992 
L 368.712 206.892797 
L 368.762727 206.921064 
L 368.914909 207.574109 
L 369.168545 209.39988 
L 369.219273 209.378136 
L 369.422182 208.949054 
L 369.472909 208.975147 
L 369.625091 209.45424 
L 369.929455 211.57283 
L 370.487455 216.137621 
L 370.538182 215.985413 
L 371.045455 203.041934 
L 371.146909 202.875955 
L 371.248364 203.20284 
L 371.502 205.340275 
L 371.603455 205.870829 
L 371.654182 205.823717 
L 371.806364 205.657013 
L 371.907818 205.853434 
L 372.110727 207.0624 
L 372.516545 210.925584 
L 372.567273 210.464611 
L 372.820909 208.417051 
L 372.922364 208.534469 
L 373.125273 209.729664 
L 373.581818 213.891466 
L 373.581818 213.891466 
" style="fill:none;stroke:#000000;stroke-linecap:square;stroke-width:1.5;"/>
   </g>
   <g id="line2d_16">
    <path clip-path="url(#p00ea0a0ebd)" d="M 69.218182 157.776 
L 69.522545 186.444014 
L 69.928364 201.71845 
L 70.283455 209.652835 
L 70.435636 207.529896 
L 70.74 201.688008 
L 70.790727 201.561893 
L 70.841455 201.625675 
L 70.993636 202.665763 
L 71.348727 207.532795 
L 72.109636 217.773494 
L 72.312545 219.505042 
L 72.363273 219.378202 
L 72.769091 217.159589 
L 72.870545 217.237867 
L 73.073455 217.91483 
L 73.428545 219.665222 
L 73.479273 219.604339 
L 73.935818 217.833653 
L 74.088 218.06269 
L 74.392364 219.256435 
L 74.544545 219.760896 
L 74.595273 219.723931 
L 74.696727 219.351384 
L 75.305455 214.392302 
L 75.457636 214.74673 
L 75.762 216.434789 
L 75.863455 216.825456 
L 76.573636 204.790877 
L 76.878 203.405784 
L 76.979455 203.428978 
L 77.131636 204.095794 
L 77.436 206.945707 
L 78.298364 215.663602 
L 78.450545 215.321496 
L 78.704182 214.934453 
L 78.856364 215.125075 
L 79.008545 215.496898 
L 79.465091 210.927758 
L 79.617273 211.366987 
L 79.972364 213.039826 
L 80.023091 212.936904 
L 80.327455 212.203406 
L 80.733273 207.740088 
L 80.834727 207.809669 
L 81.037636 208.774378 
L 81.697091 214.092235 
L 82.255091 217.537934 
L 82.305818 217.666949 
L 82.407273 216.600043 
L 83.016 202.669387 
L 83.320364 199.575216 
L 83.523273 197.51461 
L 83.624727 197.812502 
L 83.726182 198.271301 
L 83.827636 197.537803 
L 84.132 194.904605 
L 84.182727 194.90533 
L 84.284182 195.26483 
L 84.537818 197.645798 
L 84.943636 202.541822 
L 84.994364 202.351925 
L 85.400182 199.201944 
L 85.501636 199.474469 
L 85.704545 200.979154 
L 86.008909 203.286917 
L 86.211818 203.658739 
L 86.262545 203.500733 
L 86.414727 200.784182 
L 87.48 175.603906 
L 87.733636 173.523005 
L 87.936545 171.416011 
L 88.038 171.796531 
L 88.240909 174.563093 
L 88.494545 177.530424 
L 88.596 177.378941 
L 88.900364 176.31421 
L 88.951091 176.40191 
L 89.103273 177.382565 
L 89.509091 182.320627 
L 89.661273 182.192338 
L 89.813455 183.283162 
L 90.168545 188.680747 
L 90.675818 195.997603 
L 90.828 192.781666 
L 91.132364 187.660229 
L 91.233818 187.428293 
L 91.335273 187.72836 
L 91.538182 189.41497 
L 91.944 192.937498 
L 91.994727 192.950544 
L 92.096182 192.562776 
L 92.197636 191.701714 
L 92.603455 184.938605 
L 92.654182 184.855978 
L 92.704909 184.910338 
L 92.857091 185.719939 
L 93.009273 186.894115 
L 93.06 186.874546 
L 93.212182 186.567955 
L 93.262909 186.590424 
L 93.415091 187.192733 
L 93.668727 189.590371 
L 94.531091 200.270299 
L 94.581818 200.028216 
L 94.886182 198.570643 
L 94.987636 198.698208 
L 95.190545 199.573042 
L 95.900727 204.47124 
L 96.052909 205.41203 
L 96.103636 205.164149 
L 96.255818 199.780334 
L 96.763091 170.053387 
L 96.915273 169.017648 
L 97.016727 169.474997 
L 97.219636 172.085002 
L 97.777636 183.607872 
L 98.183455 190.289078 
L 98.893636 195.789586 
L 99.045818 193.785514 
L 99.350182 189.862171 
L 99.451636 189.578774 
L 99.502364 189.596894 
L 99.654545 190.141944 
L 99.958909 192.5664 
L 100.212545 195.100301 
L 100.263273 194.638603 
L 100.516909 191.429189 
L 100.567636 191.334965 
L 100.618364 191.37048 
L 100.669091 191.439336 
L 100.719818 191.400197 
L 100.922727 190.62756 
L 101.277818 187.556582 
L 101.480727 184.319626 
L 101.835818 174.501485 
L 102.190909 167.708659 
L 102.292364 167.349883 
L 102.343091 167.41729 
L 102.495273 168.419688 
L 102.799636 172.796755 
L 102.951818 174.101395 
L 103.104 174.62905 
L 103.306909 176.517154 
L 103.814182 184.223952 
L 104.169273 188.990962 
L 104.321455 186.080165 
L 104.575091 181.882123 
L 104.778 180.91669 
L 105.031636 178.756786 
L 105.133091 178.942334 
L 105.336 180.476011 
L 105.894 187.635586 
L 106.350545 192.40187 
L 106.502727 192.479424 
L 106.604182 192.490296 
L 106.654909 192.270682 
L 107.060727 187.373933 
L 107.162182 187.343491 
L 107.314364 187.871146 
L 107.466545 188.731483 
L 107.872364 185.796043 
L 107.923091 185.883744 
L 108.126 186.951374 
L 108.633273 191.647354 
L 109.343455 197.526206 
L 109.901455 200.410186 
L 110.408727 201.955459 
L 110.865273 202.688232 
L 111.068182 202.873056 
L 111.169636 202.277995 
L 111.321818 199.25413 
L 111.930545 181.628443 
L 112.539273 176.841139 
L 112.640727 177.168024 
L 112.894364 179.381563 
L 113.097273 181.73064 
L 113.148 181.337074 
L 113.452364 170.815152 
L 113.706 165.65965 
L 113.807455 165.175483 
L 113.858182 165.189254 
L 114.010364 166.019875 
L 114.365455 168.454478 
L 114.619091 170.610034 
L 115.075636 177.051331 
L 115.938 188.983714 
L 116.140909 190.821806 
L 116.191636 190.727582 
L 116.648182 188.595946 
L 116.698909 188.492299 
L 117.155455 183.601349 
L 117.307636 181.582056 
L 117.510545 179.612774 
L 117.612 179.524349 
L 117.764182 180.11651 
L 118.068545 182.688826 
L 119.184545 192.94692 
L 119.539636 194.924174 
L 119.590364 194.860392 
L 119.742545 193.573147 
L 119.894727 189.14172 
L 120.148364 183.871699 
L 120.351273 183.055574 
L 120.503455 183.452765 
L 120.604909 183.602798 
L 120.655636 183.550613 
L 120.807818 183.07152 
L 121.213636 176.51063 
L 121.467273 173.683186 
L 121.518 173.580264 
L 121.568727 173.606357 
L 121.619455 173.700581 
L 122.126727 166.606963 
L 122.228182 166.920802 
L 122.431091 168.717581 
L 122.735455 172.855464 
L 122.786182 172.597435 
L 123.192 167.36148 
L 123.242727 167.368003 
L 123.344182 167.781864 
L 123.597818 170.353454 
L 124.815273 186.434592 
L 124.866 186.409224 
L 124.967455 185.593099 
L 125.474727 177.501432 
L 125.829818 161.482627 
L 126.235636 155.187014 
L 126.286364 155.20151 
L 126.387818 155.716843 
L 126.641455 158.938579 
L 127.199455 168.507389 
L 127.300909 168.307344 
L 127.402364 168.254434 
L 127.503818 167.051266 
L 127.808182 162.769872 
L 127.909636 162.529238 
L 127.960364 162.608966 
L 128.112545 163.477277 
L 128.315455 165.275506 
L 128.366182 164.772494 
L 128.873455 159.44159 
L 128.924182 159.572054 
L 129.177818 161.033251 
L 129.279273 160.912934 
L 129.380727 161.022379 
L 129.532909 161.905186 
L 129.837273 165.53136 
L 130.040182 168.387797 
L 130.090909 168.138466 
L 130.192364 166.860643 
L 130.496727 161.68847 
L 130.547455 161.603669 
L 130.598182 161.682672 
L 130.851818 162.257438 
L 131.054727 162.651005 
L 131.359091 160.485302 
L 131.866364 152.732117 
L 132.12 151.386888 
L 132.221455 151.65144 
L 132.525818 152.699501 
L 132.728727 153.978048 
L 133.033091 156.30828 
L 133.185273 156.352493 
L 133.489636 154.328126 
L 133.540364 154.362917 
L 133.692545 155.197162 
L 133.996909 159.038602 
L 135.417273 179.843986 
L 135.823091 182.787398 
L 135.975273 182.140152 
L 136.279636 180.867403 
L 136.381091 180.543418 
L 136.939091 175.403861 
L 137.040545 175.403861 
L 137.192727 174.324634 
L 137.497091 172.648896 
L 137.598545 172.661942 
L 137.750727 173.117842 
L 138.055091 175.031314 
L 138.359455 177.397061 
L 138.511636 175.22556 
L 138.866727 170.591914 
L 139.069636 169.665619 
L 139.678364 159.29953 
L 139.881273 158.052149 
L 139.982727 158.096362 
L 140.134909 158.858126 
L 140.439273 162.025502 
L 140.997273 168.155136 
L 141.250909 168.820502 
L 141.403091 169.355405 
L 141.808909 165.318994 
L 142.164 155.714669 
L 142.265455 155.31168 
L 142.316182 155.375462 
L 142.468364 156.32785 
L 142.823455 160.965845 
L 143.381455 168.529133 
L 143.584364 168.218918 
L 143.635091 168.266755 
L 143.787273 168.798758 
L 144.091636 171.102173 
L 145.410545 182.573582 
L 145.968545 185.252443 
L 146.374364 186.527366 
L 146.425091 186.397627 
L 147.338182 175.438651 
L 147.541091 174.916795 
L 147.693273 175.229184 
L 147.997636 176.804899 
L 149.316545 184.661731 
L 149.773091 186.248318 
L 149.823818 186.08089 
L 150.128182 181.631342 
L 150.635455 168.8292 
L 150.939818 165.635006 
L 151.244182 163.63021 
L 151.345636 163.710662 
L 151.497818 164.418067 
L 151.700727 166.003205 
L 151.751455 165.896659 
L 152.309455 161.429717 
L 152.664545 152.241427 
L 152.816727 151.589107 
L 152.918182 151.90512 
L 153.121091 153.71857 
L 153.628364 161.318822 
L 154.135636 168.637128 
L 154.186364 168.633504 
L 154.389273 168.312418 
L 154.44 168.348658 
L 154.592182 168.821952 
L 154.795091 169.822901 
L 154.845818 169.806955 
L 154.896545 169.688813 
L 154.998 167.661547 
L 155.251636 161.921131 
L 155.758909 157.773101 
L 155.809636 157.84703 
L 155.961818 158.624016 
L 156.266182 161.7624 
L 157.635818 177.515928 
L 158.041636 180.097666 
L 158.193818 178.653864 
L 158.498182 175.95181 
L 158.599636 175.300939 
L 159.056182 170.420861 
L 159.157636 169.383672 
L 159.766364 161.197056 
L 159.867818 160.983965 
L 159.918545 161.026003 
L 160.02 161.112979 
L 160.121455 160.429493 
L 160.578 155.681328 
L 160.679455 155.704522 
L 160.831636 156.407578 
L 161.136 159.354614 
L 161.592545 164.35356 
L 161.643273 164.349211 
L 161.846182 164.289053 
L 162.049091 164.62681 
L 162.150545 163.282306 
L 162.505636 157.12223 
L 163.012909 154.55209 
L 163.114364 154.724592 
L 163.317273 155.949504 
L 163.723091 160.408474 
L 164.889818 173.808576 
L 164.940545 174.086899 
L 164.991273 174.004997 
L 165.143455 171.113045 
L 165.498545 165.217522 
L 165.701455 164.636957 
L 165.853636 165.060965 
L 166.158 167.10925 
L 166.259455 167.531083 
L 166.665273 165.999581 
L 166.716 166.051042 
L 166.817455 166.33009 
L 166.868182 166.290226 
L 167.020364 164.928326 
L 167.578364 155.750909 
L 168.440727 148.123838 
L 168.542182 147.948437 
L 168.643636 148.202117 
L 168.846545 149.700278 
L 169.303091 155.594352 
L 170.165455 166.896883 
L 170.469818 163.334491 
L 170.520545 163.26781 
L 170.571273 163.309848 
L 170.723455 163.90201 
L 171.027818 166.004654 
L 171.078545 165.667622 
L 171.382909 163.144594 
L 171.484364 163.01413 
L 171.636545 158.688523 
L 172.143818 142.063061 
L 172.549636 138.889886 
L 172.600364 138.970339 
L 172.752545 139.933598 
L 173.056909 143.993203 
L 173.513455 150.971578 
L 173.564182 150.764285 
L 173.665636 150.496834 
L 173.716364 150.533798 
L 173.868545 151.302086 
L 173.97 152.027611 
L 174.020727 152.007317 
L 174.122182 150.125011 
L 174.528 138.815232 
L 175.086 130.601798 
L 175.288909 129.531269 
L 175.390364 129.984269 
L 175.593273 132.305803 
L 175.897636 136.677797 
L 175.948364 136.25089 
L 176.252727 125.573861 
L 176.607818 109.678272 
L 176.912182 99.281741 
L 177.165818 97.226933 
L 177.267273 97.619774 
L 177.470182 100.263845 
L 177.723818 103.169568 
L 177.825273 103.410926 
L 177.977455 102.538992 
L 178.129636 100.600152 
L 178.434 96.62245 
L 178.484727 96.677534 
L 178.636909 97.962605 
L 178.890545 101.018362 
L 179.042727 99.171571 
L 179.296364 96.468067 
L 179.347091 96.516629 
L 179.499273 97.761835 
L 179.955818 103.485581 
L 180.108 102.927485 
L 180.158727 102.94633 
L 180.260182 103.558061 
L 180.513818 106.250693 
L 180.564545 105.946277 
L 180.767455 104.863426 
L 180.868909 105.365712 
L 181.071818 108.05472 
L 181.629818 116.776963 
L 181.883455 118.222939 
L 182.137091 121.470768 
L 182.238545 122.825419 
L 182.289273 122.722498 
L 182.644364 119.552222 
L 182.695091 119.606582 
L 182.796545 119.979854 
L 182.847273 119.947963 
L 182.999455 119.693558 
L 183.100909 119.937091 
L 183.303818 121.725173 
L 183.456 123.263923 
L 183.506727 123.060254 
L 183.811091 120.650294 
L 183.861818 120.688709 
L 184.014 121.600507 
L 184.318364 124.930238 
L 184.369091 124.836014 
L 184.470545 123.851736 
L 184.673455 118.610707 
L 185.13 104.872848 
L 185.282182 104.116882 
L 185.383636 104.590901 
L 185.535818 105.775949 
L 185.637273 104.759054 
L 186.043091 99.134606 
L 186.093818 99.062126 
L 186.296727 96.879754 
L 186.347455 96.923966 
L 186.499636 98.353997 
L 186.651818 100.401557 
L 186.702545 100.33705 
L 186.854727 98.03436 
L 187.159091 93.309389 
L 187.209818 93.241258 
L 187.311273 93.666715 
L 187.514182 96.265848 
L 187.869273 101.227104 
L 188.376545 89.701334 
L 188.833091 74.204386 
L 189.086727 73.415078 
L 189.188182 73.774579 
L 189.391091 76.381685 
L 189.847636 82.346064 
L 189.898364 82.161965 
L 190.456364 73.896346 
L 190.71 70.87248 
L 190.811455 70.571688 
L 190.862182 70.649966 
L 191.014364 71.797325 
L 191.268 76.154822 
L 191.572364 81.01823 
L 191.775273 80.40505 
L 191.826 80.544211 
L 191.978182 81.947424 
L 192.739091 94.548072 
L 193.195636 103.67113 
L 193.398545 101.680829 
L 194.413091 82.275758 
L 194.463818 82.437389 
L 194.666727 83.723184 
L 195.174 78.514771 
L 195.376909 75.94608 
L 195.427636 75.945355 
L 195.529091 76.58173 
L 195.833455 79.143173 
L 195.884182 79.375109 
L 195.934909 79.201882 
L 196.036364 78.398078 
L 196.442182 72.197414 
L 196.543636 72.790301 
L 196.746545 75.869251 
L 197.152364 81.74593 
L 197.203091 81.619814 
L 197.304545 79.457736 
L 197.608909 70.72607 
L 197.761091 68.285669 
L 198.065455 64.120968 
L 198.217636 62.060362 
L 198.724909 46.836662 
L 199.029273 35.190576 
L 199.384364 32.094955 
L 199.435091 32.179032 
L 199.587273 33.692414 
L 199.891636 40.189522 
L 200.398909 50.782474 
L 200.449636 50.835384 
L 200.551091 50.454864 
L 200.601818 50.553437 
L 200.804727 52.307453 
L 200.906182 51.835608 
L 201.058364 50.947003 
L 201.109091 50.97817 
L 201.210545 51.584827 
L 201.312 52.39008 
L 201.362727 52.305278 
L 201.464182 51.909538 
L 201.920727 46.040107 
L 201.971455 46.000243 
L 202.072909 44.685456 
L 202.428 38.23981 
L 202.529455 37.889731 
L 202.630909 38.344906 
L 203.138182 42.258826 
L 203.290364 42.927816 
L 203.493273 45.391411 
L 204.355636 62.385072 
L 204.964364 74.856706 
L 205.420909 85.356883 
L 206.181818 103.068096 
L 206.232545 102.963 
L 206.536909 100.870502 
L 206.587636 100.95313 
L 206.739818 102.035981 
L 207.044182 106.789944 
L 207.247091 110.243616 
L 207.297818 110.105904 
L 207.855818 104.983018 
L 207.957273 105.151171 
L 208.109455 106.29708 
L 208.413818 110.767646 
L 209.225455 127.218432 
L 209.377636 126.953155 
L 209.479091 127.212634 
L 209.529818 127.434422 
L 209.580545 127.392384 
L 209.682 126.77413 
L 209.884909 122.626099 
L 211.000909 93.389117 
L 211.051636 93.259378 
L 211.102364 93.28837 
L 211.254545 94.146533 
L 211.457455 95.954184 
L 211.609636 93.406512 
L 212.066182 83.244816 
L 212.319818 82.185883 
L 212.573455 82.309824 
L 212.827091 83.021578 
L 212.928545 83.244816 
L 213.03 83.705064 
L 213.080727 83.543434 
L 213.283636 82.095283 
L 213.486545 81.006634 
L 213.588 81.49225 
L 214.044545 86.667322 
L 214.399636 93.46812 
L 214.602545 95.551195 
L 214.754727 96.985574 
L 215.059091 102.67163 
L 215.515636 111.888912 
L 215.617091 111.173534 
L 215.972182 107.32847 
L 216.073636 107.594472 
L 216.276545 109.681896 
L 217.138909 121.112717 
L 217.189636 121.124314 
L 217.392545 120.832944 
L 217.544727 121.441051 
L 217.798364 122.621026 
L 218.052 122.147006 
L 218.254909 119.558746 
L 218.457818 112.652126 
L 218.812909 98.050306 
L 219.320182 86.773142 
L 219.726 73.853582 
L 219.979636 72.003168 
L 220.081091 71.643667 
L 220.131818 71.667586 
L 220.537636 73.325203 
L 220.740545 75.805469 
L 220.994182 80.227474 
L 221.044909 79.831733 
L 221.247818 75.057475 
L 221.602909 64.85809 
L 221.653636 64.624704 
L 221.704364 64.658045 
L 221.805818 65.004499 
L 222.110182 60.508565 
L 222.313091 58.953869 
L 222.414545 59.326416 
L 222.516 59.577922 
L 222.566727 59.487322 
L 222.718909 55.845202 
L 222.921818 52.085664 
L 222.972545 51.939979 
L 223.023273 52.058846 
L 223.175455 53.660654 
L 223.479818 60.280978 
L 224.291455 84.789365 
L 224.595818 92.047512 
L 224.646545 92.170003 
L 224.798727 88.014725 
L 225.356727 70.308586 
L 225.458182 69.772234 
L 225.508909 69.807749 
L 225.559636 69.771509 
L 225.813273 67.186147 
L 225.914727 67.752216 
L 226.675636 77.184763 
L 227.132182 83.897861 
L 227.335091 85.833802 
L 227.690182 92.272925 
L 228.704727 117.208219 
L 229.719273 139.213872 
L 229.820727 140.720006 
L 229.871455 140.45183 
L 230.175818 133.126277 
L 230.480182 123.469766 
L 230.784545 121.183022 
L 230.987455 119.897227 
L 231.088909 120.203093 
L 231.139636 120.50316 
L 231.190364 120.472718 
L 231.444 119.323186 
L 231.697636 116.019547 
L 231.748364 116.055062 
L 231.900545 117.179227 
L 232.204909 122.017267 
L 232.357091 124.401134 
L 232.407818 124.19819 
L 232.509273 123.887251 
L 232.56 123.972778 
L 232.712182 125.14043 
L 233.067273 130.775026 
L 233.371636 135.252115 
L 233.473091 135.268786 
L 233.625273 135.482602 
L 233.929636 134.023579 
L 233.980364 134.085912 
L 234.132545 134.865797 
L 234.284727 135.799339 
L 234.386182 134.1294 
L 235.045636 118.038115 
L 235.147091 118.492565 
L 235.552909 121.446125 
L 235.603636 121.400462 
L 235.857273 121.069954 
L 235.958727 121.377994 
L 236.161636 123.019666 
L 236.313818 123.837965 
L 236.415273 122.868907 
L 236.871818 117.595987 
L 236.922545 117.544526 
L 236.973273 117.626429 
L 237.125455 118.568669 
L 237.429818 122.621026 
L 237.886364 130.517722 
L 237.987818 130.14445 
L 238.190727 128.030933 
L 238.444364 125.112888 
L 238.647273 123.54587 
L 238.748727 123.842314 
L 238.951636 125.879002 
L 239.408182 133.727136 
L 239.864727 140.770742 
L 240.219818 143.092277 
L 240.422727 144.603485 
L 240.574909 143.601811 
L 240.879273 135.626837 
L 241.285091 125.764483 
L 241.386545 125.533997 
L 241.488 125.920315 
L 241.690909 127.935984 
L 242.198182 136.244366 
L 242.502545 141.269405 
L 242.553273 141.202723 
L 242.705455 138.376728 
L 243.009818 133.137874 
L 243.517091 130.019784 
L 243.567818 130.130678 
L 243.72 131.075093 
L 244.024364 134.844778 
L 244.886727 147.496886 
L 244.937455 147.436728 
L 245.089636 147.385267 
L 245.241818 147.879581 
L 245.495455 149.74884 
L 246.104182 155.553763 
L 246.154909 155.423299 
L 246.408545 154.807219 
L 246.51 154.926086 
L 246.712909 155.769754 
L 246.915818 156.763454 
L 246.966545 156.735912 
L 247.270909 156.2358 
L 247.423091 156.522821 
L 247.676727 157.797744 
L 248.234727 162.220474 
L 248.894182 166.933848 
L 248.995636 166.501867 
L 249.350727 161.488426 
L 249.908727 154.312181 
L 250.010182 154.181717 
L 250.060909 154.236077 
L 250.213091 154.779677 
L 250.517455 156.27349 
L 250.568182 156.263342 
L 250.771091 156.172742 
L 250.923273 156.468461 
L 251.024727 156.806942 
L 251.075455 156.709094 
L 251.481273 154.807219 
L 251.582727 154.9674 
L 251.785636 155.953853 
L 252.191455 159.425645 
L 252.698727 164.189755 
L 252.850909 162.477778 
L 253.003091 158.87987 
L 253.408909 145.858114 
L 253.611818 143.965661 
L 253.662545 143.875061 
L 253.713273 143.908402 
L 253.865455 144.608558 
L 254.068364 145.36235 
L 254.220545 145.344955 
L 254.372727 145.862462 
L 254.626364 148.012944 
L 255.235091 156.01691 
L 255.539455 159.96852 
L 255.590182 159.941702 
L 255.793091 157.749182 
L 256.148182 153.971525 
L 256.249636 153.550416 
L 256.706182 143.651822 
L 256.807636 143.356104 
L 256.858364 143.395243 
L 257.010545 144.092501 
L 257.314909 147.167102 
L 257.619273 150.797626 
L 257.67 150.625848 
L 257.872909 149.922067 
L 257.974364 150.118488 
L 258.481636 151.95803 
L 258.633818 152.426976 
L 258.786 152.929262 
L 258.836727 152.896646 
L 259.141091 152.230555 
L 259.445455 146.006698 
L 259.800545 137.109778 
L 259.952727 134.864347 
L 260.358545 126.279816 
L 260.46 126.66396 
L 260.662909 129.091315 
L 261.170182 139.039195 
L 261.626727 147.104045 
L 261.829636 147.886829 
L 261.880364 147.819422 
L 262.235455 145.4544 
L 262.286182 145.495714 
L 262.336909 145.557322 
L 262.692 143.330011 
L 262.742727 143.384371 
L 262.894909 144.122942 
L 263.199273 147.303365 
L 263.655818 153.136555 
L 263.706545 153.086544 
L 263.960182 152.408856 
L 264.061636 152.640067 
L 264.163091 153.089443 
L 264.315273 151.10929 
L 264.518182 149.479939 
L 264.721091 149.319758 
L 264.974727 148.684109 
L 265.076182 148.849363 
L 265.279091 149.916994 
L 265.684909 153.849758 
L 266.395091 161.207203 
L 266.496545 160.989763 
L 266.699455 159.321998 
L 267.003818 157.28531 
L 267.156 157.150498 
L 267.257455 157.315027 
L 267.358909 156.659808 
L 267.714 153.475037 
L 267.815455 153.384437 
L 267.916909 153.606226 
L 268.119818 154.732565 
L 268.576364 158.932056 
L 268.728545 159.899664 
L 269.134364 158.317426 
L 269.286545 158.732011 
L 269.590909 160.704917 
L 270.808364 170.507837 
L 270.859091 170.205595 
L 271.518545 156.750408 
L 272.127273 144.414312 
L 272.837455 137.222846 
L 272.938909 137.522189 
L 273.141818 139.29215 
L 273.243273 140.269181 
L 273.294 139.98071 
L 273.750545 135.509419 
L 273.902727 135.147744 
L 274.004182 135.355037 
L 274.207091 136.797389 
L 274.562182 141.488294 
L 275.881091 161.511619 
L 275.931818 161.473205 
L 276.236182 160.20263 
L 276.337636 160.31135 
L 276.489818 158.235523 
L 276.743455 155.902392 
L 276.895636 155.439245 
L 277.250727 153.456192 
L 277.352182 153.546792 
L 277.555091 154.522373 
L 277.960909 158.225376 
L 278.214545 159.756154 
L 278.518909 159.561182 
L 278.569636 159.645259 
L 278.620364 159.593074 
L 278.975455 155.76613 
L 279.279818 147.853488 
L 279.584182 139.705286 
L 279.837818 133.751054 
L 279.939273 133.40315 
L 279.99 133.522742 
L 280.142182 134.725186 
L 280.497273 140.260483 
L 280.750909 143.983056 
L 280.801636 143.898254 
L 280.953818 141.823152 
L 281.258182 137.849798 
L 281.359636 137.696866 
L 281.461091 138.047669 
L 281.664 139.851696 
L 282.120545 146.641622 
L 282.982909 159.871397 
L 283.033636 159.614093 
L 284.200364 128.560037 
L 284.251091 128.562211 
L 284.352545 129.062323 
L 284.606182 132.268838 
L 284.910545 136.461082 
L 284.961273 136.43064 
L 285.062727 136.59227 
L 285.214909 137.729482 
L 285.417818 140.105376 
L 285.468545 139.946645 
L 285.874364 135.549283 
L 285.975818 135.804413 
L 286.178727 137.577274 
L 286.432364 139.305197 
L 286.686 140.819304 
L 286.787455 141.236789 
L 286.838182 141.203448 
L 286.990364 141.116472 
L 287.142545 141.675293 
L 287.396182 143.98668 
L 288.004909 152.487859 
L 288.36 157.041053 
L 288.410727 156.972922 
L 288.562909 155.606674 
L 288.715091 152.132707 
L 289.019455 146.670614 
L 289.120909 145.883482 
L 289.476 142.038418 
L 289.526727 141.989856 
L 289.577455 142.060162 
L 289.729636 142.858891 
L 290.034 146.152382 
L 290.389091 149.592283 
L 290.744182 151.370218 
L 291.200727 155.424024 
L 291.758727 160.683898 
L 291.860182 159.509722 
L 292.468909 148.523203 
L 292.570364 148.311562 
L 292.621091 148.358674 
L 292.773273 148.983451 
L 293.077636 151.655064 
L 293.331273 154.304933 
L 293.382 153.872952 
L 293.635636 151.969627 
L 293.737091 152.189242 
L 293.94 153.58883 
L 294.548727 160.272211 
L 294.853091 163.180109 
L 294.903818 163.035874 
L 295.258909 161.465957 
L 295.360364 161.54351 
L 295.563273 162.282082 
L 295.918364 164.405746 
L 295.969091 164.307898 
L 296.425636 162.283531 
L 296.527091 162.403848 
L 296.679273 162.810461 
L 297.135818 157.191811 
L 297.490909 155.103662 
L 297.592364 155.215282 
L 297.643091 155.026109 
L 297.947455 151.191917 
L 298.048909 151.102042 
L 298.150364 151.139006 
L 298.302545 150.675134 
L 298.454727 148.623226 
L 298.708364 146.010322 
L 298.759091 145.936392 
L 298.809818 145.984229 
L 298.962 146.726424 
L 299.164909 148.511606 
L 299.215636 148.057157 
L 299.52 142.295722 
L 299.976545 123.463968 
L 300.179455 120.70393 
L 300.230182 120.591586 
L 300.280909 120.66769 
L 300.433091 121.815773 
L 300.737455 126.732091 
L 301.143273 133.16904 
L 301.295455 133.772798 
L 301.346182 133.730035 
L 301.549091 132.966821 
L 301.599818 133.021906 
L 301.752 133.903262 
L 302.056364 137.91503 
L 303.020182 154.381762 
L 303.070909 154.05995 
L 303.172364 151.66956 
L 303.578182 141.25201 
L 303.831818 139.142117 
L 304.339091 127.208285 
L 304.389818 127.213358 
L 304.491273 127.705498 
L 304.694182 128.817341 
L 304.795636 128.862278 
L 304.947818 129.574757 
L 305.962364 139.141392 
L 306.114545 138.852197 
L 306.216 138.856546 
L 306.520364 138.083184 
L 306.774 137.190955 
L 306.875455 137.33809 
L 307.078364 138.623885 
L 307.585636 143.522808 
L 307.687091 143.475696 
L 307.788545 143.601086 
L 307.940727 143.904053 
L 308.143636 143.274202 
L 308.549455 139.750949 
L 308.650909 139.384925 
L 309.361091 131.82961 
L 309.513273 131.418648 
L 309.614727 131.665805 
L 309.665455 131.558534 
L 309.868364 130.981594 
L 309.969818 131.238898 
L 310.172727 132.932755 
L 310.578545 139.131245 
L 311.339455 150.777331 
L 311.643818 151.691304 
L 311.846727 152.84736 
L 311.998909 150.21996 
L 312.455455 139.49292 
L 312.607636 138.894235 
L 312.709091 139.131245 
L 312.810545 139.431312 
L 313.114909 138.0252 
L 313.165636 138.13247 
L 313.317818 139.073261 
L 313.672909 143.447429 
L 314.383091 154.176643 
L 314.433818 154.121558 
L 314.738182 152.463941 
L 314.788909 152.528448 
L 314.941091 150.278669 
L 315.194727 143.790259 
L 315.549818 134.29393 
L 315.752727 133.032778 
L 315.854182 133.29588 
L 316.057091 135.010032 
L 316.513636 141.802133 
L 317.578909 158.387006 
L 317.781818 154.89347 
L 318.086182 141.928973 
L 318.339818 132.812438 
L 318.542727 131.275862 
L 318.644182 131.62884 
L 318.847091 133.655381 
L 319.658727 143.540203 
L 319.963091 146.553197 
L 320.064545 147.604882 
L 320.166 145.750118 
L 320.470364 139.935048 
L 320.724 138.924677 
L 320.825455 138.94932 
L 320.977636 139.617586 
L 321.231273 142.094952 
L 321.941455 151.507205 
L 322.042909 151.254974 
L 322.144364 151.174522 
L 322.245818 151.418779 
L 322.448727 152.703125 
L 322.702364 154.09909 
L 322.956 154.016462 
L 323.108182 154.459315 
L 323.361818 156.075619 
L 324.021273 162.380654 
L 324.274909 164.512291 
L 324.731455 161.186184 
L 324.832909 161.273885 
L 324.934364 161.533363 
L 325.035818 160.864373 
L 325.188 158.88132 
L 325.746 146.779334 
L 325.847455 146.534352 
L 325.898182 146.587262 
L 325.999636 146.940965 
L 326.050364 146.898202 
L 326.354727 145.49064 
L 326.405455 145.533403 
L 326.557636 146.21689 
L 326.760545 147.733171 
L 326.811273 147.493262 
L 327.014182 144.925296 
L 327.267818 142.64725 
L 327.318545 142.599413 
L 327.369273 142.671168 
L 327.521455 143.491642 
L 327.825818 145.352203 
L 328.028727 146.055259 
L 328.282364 148.037587 
L 328.485273 149.447323 
L 328.789636 149.418331 
L 328.840364 149.232782 
L 329.195455 145.895803 
L 329.296909 145.995826 
L 329.449091 146.832245 
L 329.804182 150.597581 
L 330.717273 161.631211 
L 330.768 161.499298 
L 330.920182 160.010558 
L 332.036182 144.754243 
L 332.137636 144.710755 
L 332.543455 141.419438 
L 332.594182 141.298397 
L 332.746364 137.315621 
L 333.253636 122.289792 
L 333.355091 121.962182 
L 333.405818 122.066554 
L 333.608727 123.626323 
L 334.116 128.33245 
L 334.420364 131.643336 
L 334.572545 132.084739 
L 334.724727 131.099011 
L 334.927636 130.229976 
L 335.029091 129.90744 
L 335.282727 129.03768 
L 335.384182 129.299333 
L 335.587091 130.890994 
L 335.992909 136.678522 
L 337.464 159.424195 
L 337.768364 162.10523 
L 337.819091 162.09001 
L 337.920545 161.34709 
L 338.123455 155.808893 
L 338.478545 144.831797 
L 338.935091 137.157614 
L 339.188727 133.124827 
L 339.290182 132.849403 
L 339.340909 132.932755 
L 339.493091 133.864123 
L 339.949636 137.904883 
L 340.304727 135.403598 
L 340.355455 135.449986 
L 340.507636 136.233494 
L 340.812 139.743701 
L 341.217818 144.901378 
L 341.268545 144.893405 
L 341.37 144.869486 
L 341.471455 145.07533 
L 341.674364 146.319811 
L 341.775818 147.03084 
L 341.826545 146.693083 
L 342.080182 144.750619 
L 342.130909 144.742646 
L 342.232364 145.066632 
L 342.486 147.193195 
L 344.007818 164.633333 
L 344.058545 164.585496 
L 344.210727 161.042674 
L 344.515091 154.942032 
L 344.718 153.96935 
L 344.819455 154.075896 
L 345.022364 155.028283 
L 345.377455 157.502026 
L 345.580364 153.224981 
L 345.834 149.778557 
L 345.986182 149.456021 
L 346.138364 149.990923 
L 346.239818 150.3468 
L 346.290545 150.215611 
L 346.594909 149.191469 
L 346.696364 149.410358 
L 346.899273 150.659914 
L 347.051455 151.631146 
L 347.355818 149.914094 
L 347.406545 149.955408 
L 347.558727 150.620774 
L 347.863091 153.438072 
L 348.421091 159.838056 
L 348.471818 159.247344 
L 349.029818 150.294614 
L 349.283455 148.016568 
L 349.334182 147.949162 
L 349.384909 147.987576 
L 349.537091 148.629024 
L 349.841455 150.233006 
L 350.095091 150.492485 
L 350.196545 149.668387 
L 350.500909 147.144634 
L 350.602364 147.201893 
L 350.754545 147.907123 
L 350.906727 148.863134 
L 350.957455 148.557994 
L 351.211091 146.956186 
L 351.312545 147.21059 
L 351.667636 149.090722 
L 351.718364 149.055931 
L 351.819818 149.047234 
L 351.972 149.463994 
L 352.225636 151.30571 
L 352.834364 158.241322 
L 353.088 161.081088 
L 353.341636 157.310678 
L 353.646 153.259046 
L 353.747455 152.944483 
L 353.798182 152.95753 
L 353.950364 153.514176 
L 354.254727 156.046627 
L 354.508364 158.154346 
L 354.609818 157.047576 
L 355.117091 146.804702 
L 355.218545 146.52203 
L 355.269273 146.552472 
L 355.421455 147.17725 
L 355.472182 147.496162 
L 355.522909 147.448325 
L 355.776545 145.175352 
L 356.030182 140.03797 
L 356.131636 139.692965 
L 356.182364 139.782115 
L 356.334545 140.786688 
L 356.689636 145.430482 
L 357.146182 150.875904 
L 357.298364 150.844013 
L 357.349091 150.930264 
L 357.399818 150.695429 
L 357.907091 143.688062 
L 358.059273 143.28 
L 358.160727 143.639501 
L 358.414364 145.974806 
L 359.124545 156.086491 
L 359.834727 164.888462 
L 359.986909 165.482074 
L 360.139091 165.183456 
L 360.392727 164.837002 
L 360.544909 165.045019 
L 360.798545 165.972763 
L 361.356545 169.218418 
L 362.269636 174.28187 
L 362.371091 174.692832 
L 362.421818 174.636298 
L 362.523273 173.406312 
L 362.929091 164.259336 
L 363.132 163.193155 
L 363.233455 163.205477 
L 363.385636 163.670074 
L 363.588545 164.690592 
L 363.639273 164.402846 
L 363.994364 161.90881 
L 364.095818 161.9436 
L 364.248 162.45241 
L 364.603091 164.851498 
L 365.414727 171.057235 
L 365.566909 167.372352 
L 365.972727 155.6922 
L 366.175636 154.13533 
L 366.277091 154.100539 
L 366.429273 154.670957 
L 366.733636 157.169342 
L 366.987273 159.640186 
L 367.038 159.410424 
L 367.342364 157.534642 
L 367.443818 157.747733 
L 367.646727 158.960323 
L 368.204727 164.062915 
L 368.255455 163.018478 
L 368.610545 155.234851 
L 368.762727 154.557163 
L 368.864182 154.709371 
L 369.067091 155.924861 
L 369.168545 156.503976 
L 369.219273 156.461938 
L 369.472909 155.848757 
L 369.574364 156.027058 
L 369.777273 157.116432 
L 370.233818 161.428992 
L 370.538182 164.037547 
L 371.146909 149.441525 
L 371.248364 149.380642 
L 371.400545 150.032237 
L 371.603455 151.202064 
L 371.654182 151.084646 
L 371.857091 150.641794 
L 371.958545 150.833866 
L 372.161455 152.095742 
L 372.516545 155.831362 
L 372.567273 155.495054 
L 372.820909 153.717845 
L 372.922364 153.892522 
L 373.125273 155.282688 
L 373.581818 160.469357 
L 373.581818 160.469357 
" style="fill:none;stroke:#800080;stroke-linecap:square;stroke-width:1.5;"/>
   </g>
   <g id="line2d_17">
    <path clip-path="url(#p00ea0a0ebd)" d="M 322.81228 70.8 
L 373.429662 70.8 
L 373.429662 70.8 
" style="fill:none;stroke:#000000;stroke-linecap:square;stroke-width:1.5;"/>
   </g>
   <g id="line2d_18">
    <path clip-path="url(#p00ea0a0ebd)" d="M 322.81228 107.04 
L 322.81228 99.792 
L 322.81228 92.544 
L 322.81228 85.296 
L 322.81228 78.048 
" style="fill:none;stroke:#000000;stroke-linecap:square;stroke-width:1.5;"/>
   </g>
   <g id="patch_3">
    <path d="M 54 252 
L 54 34.56 
" style="fill:none;stroke:#000000;stroke-linecap:square;stroke-linejoin:miter;stroke-width:0.8;"/>
   </g>
   <g id="patch_4">
    <path d="M 54 252 
L 388.8 252 
" style="fill:none;stroke:#000000;stroke-linecap:square;stroke-linejoin:miter;stroke-width:0.8;"/>
   </g>
   <g id="text_17">
    <!-- 500 ms -->
    <g transform="translate(322.81228 63.552)scale(0.1 -0.1)">
     <use xlink:href="#DejaVuSans-35"/>
     <use x="63.623047" xlink:href="#DejaVuSans-30"/>
     <use x="127.246094" xlink:href="#DejaVuSans-30"/>
     <use x="190.869141" xlink:href="#DejaVuSans-20"/>
     <use x="222.65625" xlink:href="#DejaVuSans-6d"/>
     <use x="320.068359" xlink:href="#DejaVuSans-73"/>
    </g>
   </g>
   <g id="text_18">
    <!-- 5 mV -->
    <g transform="translate(327.884162 92.544)scale(0.1 -0.1)">
     <use xlink:href="#DejaVuSans-35"/>
     <use x="63.623047" xlink:href="#DejaVuSans-20"/>
     <use x="95.410156" xlink:href="#DejaVuSans-6d"/>
     <use x="192.822266" xlink:href="#DejaVuSans-56"/>
    </g>
   </g>
  </g>
 </g>
 <defs>
  <clipPath id="p00ea0a0ebd">
   <rect height="217.44" width="334.8" x="54" y="34.56"/>
  </clipPath>
 </defs>
</svg>
