<?xml version="1.0" encoding="utf-8" standalone="no"?>
<!DOCTYPE svg PUBLIC "-//W3C//DTD SVG 1.1//EN"
  "http://www.w3.org/Graphics/SVG/1.1/DTD/svg11.dtd">
<svg xmlns:xlink="http://www.w3.org/1999/xlink" width="460.8pt" height="345.6pt" viewBox="0 0 460.8 345.6" xmlns="http://www.w3.org/2000/svg" version="1.1">
 <metadata>
  <rdf:RDF xmlns:dc="http://purl.org/dc/elements/1.1/" xmlns:cc="http://creativecommons.org/ns#" xmlns:rdf="http://www.w3.org/1999/02/22-rdf-syntax-ns#">
   <cc:Work>
    <dc:type rdf:resource="http://purl.org/dc/dcmitype/StillImage"/>
    <dc:date>2023-02-10T16:40:38.759958</dc:date>
    <dc:format>image/svg+xml</dc:format>
    <dc:creator>
     <cc:Agent>
      <dc:title>Matplotlib v3.6.3, https://matplotlib.org/</dc:title>
     </cc:Agent>
    </dc:creator>
   </cc:Work>
  </rdf:RDF>
 </metadata>
 <defs>
  <style type="text/css">*{stroke-linejoin: round; stroke-linecap: butt}</style>
 </defs>
 <g id="figure_1">
  <g id="patch_1">
   <path d="M 0 345.6 
L 460.8 345.6 
L 460.8 0 
L 0 0 
z
" style="fill: #ffffff"/>
  </g>
  <g id="axes_1">
   <g id="patch_2">
    <path d="M 57.6 307.584 
L 414.72 307.584 
L 414.72 41.472 
L 57.6 41.472 
z
" style="fill: #ffffff"/>
   </g>
   <g id="matplotlib.axis_1">
    <g id="xtick_1">
     <g id="line2d_1">
      <defs>
       <path id="ma8f01cb05f" d="M 0 0 
L 0 3.5 
" style="stroke: #000000; stroke-width: 0.8"/>
      </defs>
      <g>
       <use xlink:href="#ma8f01cb05f" x="73.832727" y="307.584" style="stroke: #000000; stroke-width: 0.8"/>
      </g>
     </g>
     <g id="text_1">
      <!-- 0 -->
      <g transform="translate(70.651477 322.182437) scale(0.1 -0.1)">
       <defs>
        <path id="DejaVuSans-30" d="M 2034 4250 
Q 1547 4250 1301 3770 
Q 1056 3291 1056 2328 
Q 1056 1369 1301 889 
Q 1547 409 2034 409 
Q 2525 409 2770 889 
Q 3016 1369 3016 2328 
Q 3016 3291 2770 3770 
Q 2525 4250 2034 4250 
z
M 2034 4750 
Q 2819 4750 3233 4129 
Q 3647 3509 3647 2328 
Q 3647 1150 3233 529 
Q 2819 -91 2034 -91 
Q 1250 -91 836 529 
Q 422 1150 422 2328 
Q 422 3509 836 4129 
Q 1250 4750 2034 4750 
z
" transform="scale(0.015625)"/>
       </defs>
       <use xlink:href="#DejaVuSans-30"/>
      </g>
     </g>
    </g>
    <g id="xtick_2">
     <g id="line2d_2">
      <g>
       <use xlink:href="#ma8f01cb05f" x="127.941367" y="307.584" style="stroke: #000000; stroke-width: 0.8"/>
      </g>
     </g>
     <g id="text_2">
      <!-- 10000 -->
      <g transform="translate(112.035117 322.182437) scale(0.1 -0.1)">
       <defs>
        <path id="DejaVuSans-31" d="M 794 531 
L 1825 531 
L 1825 4091 
L 703 3866 
L 703 4441 
L 1819 4666 
L 2450 4666 
L 2450 531 
L 3481 531 
L 3481 0 
L 794 0 
L 794 531 
z
" transform="scale(0.015625)"/>
       </defs>
       <use xlink:href="#DejaVuSans-31"/>
       <use xlink:href="#DejaVuSans-30" x="63.623047"/>
       <use xlink:href="#DejaVuSans-30" x="127.246094"/>
       <use xlink:href="#DejaVuSans-30" x="190.869141"/>
       <use xlink:href="#DejaVuSans-30" x="254.492188"/>
      </g>
     </g>
    </g>
    <g id="xtick_3">
     <g id="line2d_3">
      <g>
       <use xlink:href="#ma8f01cb05f" x="182.050007" y="307.584" style="stroke: #000000; stroke-width: 0.8"/>
      </g>
     </g>
     <g id="text_3">
      <!-- 20000 -->
      <g transform="translate(166.143757 322.182437) scale(0.1 -0.1)">
       <defs>
        <path id="DejaVuSans-32" d="M 1228 531 
L 3431 531 
L 3431 0 
L 469 0 
L 469 531 
Q 828 903 1448 1529 
Q 2069 2156 2228 2338 
Q 2531 2678 2651 2914 
Q 2772 3150 2772 3378 
Q 2772 3750 2511 3984 
Q 2250 4219 1831 4219 
Q 1534 4219 1204 4116 
Q 875 4013 500 3803 
L 500 4441 
Q 881 4594 1212 4672 
Q 1544 4750 1819 4750 
Q 2544 4750 2975 4387 
Q 3406 4025 3406 3419 
Q 3406 3131 3298 2873 
Q 3191 2616 2906 2266 
Q 2828 2175 2409 1742 
Q 1991 1309 1228 531 
z
" transform="scale(0.015625)"/>
       </defs>
       <use xlink:href="#DejaVuSans-32"/>
       <use xlink:href="#DejaVuSans-30" x="63.623047"/>
       <use xlink:href="#DejaVuSans-30" x="127.246094"/>
       <use xlink:href="#DejaVuSans-30" x="190.869141"/>
       <use xlink:href="#DejaVuSans-30" x="254.492188"/>
      </g>
     </g>
    </g>
    <g id="xtick_4">
     <g id="line2d_4">
      <g>
       <use xlink:href="#ma8f01cb05f" x="236.158647" y="307.584" style="stroke: #000000; stroke-width: 0.8"/>
      </g>
     </g>
     <g id="text_4">
      <!-- 30000 -->
      <g transform="translate(220.252397 322.182437) scale(0.1 -0.1)">
       <defs>
        <path id="DejaVuSans-33" d="M 2597 2516 
Q 3050 2419 3304 2112 
Q 3559 1806 3559 1356 
Q 3559 666 3084 287 
Q 2609 -91 1734 -91 
Q 1441 -91 1130 -33 
Q 819 25 488 141 
L 488 750 
Q 750 597 1062 519 
Q 1375 441 1716 441 
Q 2309 441 2620 675 
Q 2931 909 2931 1356 
Q 2931 1769 2642 2001 
Q 2353 2234 1838 2234 
L 1294 2234 
L 1294 2753 
L 1863 2753 
Q 2328 2753 2575 2939 
Q 2822 3125 2822 3475 
Q 2822 3834 2567 4026 
Q 2313 4219 1838 4219 
Q 1578 4219 1281 4162 
Q 984 4106 628 3988 
L 628 4550 
Q 988 4650 1302 4700 
Q 1616 4750 1894 4750 
Q 2613 4750 3031 4423 
Q 3450 4097 3450 3541 
Q 3450 3153 3228 2886 
Q 3006 2619 2597 2516 
z
" transform="scale(0.015625)"/>
       </defs>
       <use xlink:href="#DejaVuSans-33"/>
       <use xlink:href="#DejaVuSans-30" x="63.623047"/>
       <use xlink:href="#DejaVuSans-30" x="127.246094"/>
       <use xlink:href="#DejaVuSans-30" x="190.869141"/>
       <use xlink:href="#DejaVuSans-30" x="254.492188"/>
      </g>
     </g>
    </g>
    <g id="xtick_5">
     <g id="line2d_5">
      <g>
       <use xlink:href="#ma8f01cb05f" x="290.267287" y="307.584" style="stroke: #000000; stroke-width: 0.8"/>
      </g>
     </g>
     <g id="text_5">
      <!-- 40000 -->
      <g transform="translate(274.361037 322.182437) scale(0.1 -0.1)">
       <defs>
        <path id="DejaVuSans-34" d="M 2419 4116 
L 825 1625 
L 2419 1625 
L 2419 4116 
z
M 2253 4666 
L 3047 4666 
L 3047 1625 
L 3713 1625 
L 3713 1100 
L 3047 1100 
L 3047 0 
L 2419 0 
L 2419 1100 
L 313 1100 
L 313 1709 
L 2253 4666 
z
" transform="scale(0.015625)"/>
       </defs>
       <use xlink:href="#DejaVuSans-34"/>
       <use xlink:href="#DejaVuSans-30" x="63.623047"/>
       <use xlink:href="#DejaVuSans-30" x="127.246094"/>
       <use xlink:href="#DejaVuSans-30" x="190.869141"/>
       <use xlink:href="#DejaVuSans-30" x="254.492188"/>
      </g>
     </g>
    </g>
    <g id="xtick_6">
     <g id="line2d_6">
      <g>
       <use xlink:href="#ma8f01cb05f" x="344.375927" y="307.584" style="stroke: #000000; stroke-width: 0.8"/>
      </g>
     </g>
     <g id="text_6">
      <!-- 50000 -->
      <g transform="translate(328.469677 322.182437) scale(0.1 -0.1)">
       <defs>
        <path id="DejaVuSans-35" d="M 691 4666 
L 3169 4666 
L 3169 4134 
L 1269 4134 
L 1269 2991 
Q 1406 3038 1543 3061 
Q 1681 3084 1819 3084 
Q 2600 3084 3056 2656 
Q 3513 2228 3513 1497 
Q 3513 744 3044 326 
Q 2575 -91 1722 -91 
Q 1428 -91 1123 -41 
Q 819 9 494 109 
L 494 744 
Q 775 591 1075 516 
Q 1375 441 1709 441 
Q 2250 441 2565 725 
Q 2881 1009 2881 1497 
Q 2881 1984 2565 2268 
Q 2250 2553 1709 2553 
Q 1456 2553 1204 2497 
Q 953 2441 691 2322 
L 691 4666 
z
" transform="scale(0.015625)"/>
       </defs>
       <use xlink:href="#DejaVuSans-35"/>
       <use xlink:href="#DejaVuSans-30" x="63.623047"/>
       <use xlink:href="#DejaVuSans-30" x="127.246094"/>
       <use xlink:href="#DejaVuSans-30" x="190.869141"/>
       <use xlink:href="#DejaVuSans-30" x="254.492188"/>
      </g>
     </g>
    </g>
    <g id="xtick_7">
     <g id="line2d_7">
      <g>
       <use xlink:href="#ma8f01cb05f" x="398.484567" y="307.584" style="stroke: #000000; stroke-width: 0.8"/>
      </g>
     </g>
     <g id="text_7">
      <!-- 60000 -->
      <g transform="translate(382.578317 322.182437) scale(0.1 -0.1)">
       <defs>
        <path id="DejaVuSans-36" d="M 2113 2584 
Q 1688 2584 1439 2293 
Q 1191 2003 1191 1497 
Q 1191 994 1439 701 
Q 1688 409 2113 409 
Q 2538 409 2786 701 
Q 3034 994 3034 1497 
Q 3034 2003 2786 2293 
Q 2538 2584 2113 2584 
z
M 3366 4563 
L 3366 3988 
Q 3128 4100 2886 4159 
Q 2644 4219 2406 4219 
Q 1781 4219 1451 3797 
Q 1122 3375 1075 2522 
Q 1259 2794 1537 2939 
Q 1816 3084 2150 3084 
Q 2853 3084 3261 2657 
Q 3669 2231 3669 1497 
Q 3669 778 3244 343 
Q 2819 -91 2113 -91 
Q 1303 -91 875 529 
Q 447 1150 447 2328 
Q 447 3434 972 4092 
Q 1497 4750 2381 4750 
Q 2619 4750 2861 4703 
Q 3103 4656 3366 4563 
z
" transform="scale(0.015625)"/>
       </defs>
       <use xlink:href="#DejaVuSans-36"/>
       <use xlink:href="#DejaVuSans-30" x="63.623047"/>
       <use xlink:href="#DejaVuSans-30" x="127.246094"/>
       <use xlink:href="#DejaVuSans-30" x="190.869141"/>
       <use xlink:href="#DejaVuSans-30" x="254.492188"/>
      </g>
     </g>
    </g>
    <g id="text_8">
     <!-- Time(ms) -->
     <g transform="translate(212.549844 335.860562) scale(0.1 -0.1)">
      <defs>
       <path id="DejaVuSans-54" d="M -19 4666 
L 3928 4666 
L 3928 4134 
L 2272 4134 
L 2272 0 
L 1638 0 
L 1638 4134 
L -19 4134 
L -19 4666 
z
" transform="scale(0.015625)"/>
       <path id="DejaVuSans-69" d="M 603 3500 
L 1178 3500 
L 1178 0 
L 603 0 
L 603 3500 
z
M 603 4863 
L 1178 4863 
L 1178 4134 
L 603 4134 
L 603 4863 
z
" transform="scale(0.015625)"/>
       <path id="DejaVuSans-6d" d="M 3328 2828 
Q 3544 3216 3844 3400 
Q 4144 3584 4550 3584 
Q 5097 3584 5394 3201 
Q 5691 2819 5691 2113 
L 5691 0 
L 5113 0 
L 5113 2094 
Q 5113 2597 4934 2840 
Q 4756 3084 4391 3084 
Q 3944 3084 3684 2787 
Q 3425 2491 3425 1978 
L 3425 0 
L 2847 0 
L 2847 2094 
Q 2847 2600 2669 2842 
Q 2491 3084 2119 3084 
Q 1678 3084 1418 2786 
Q 1159 2488 1159 1978 
L 1159 0 
L 581 0 
L 581 3500 
L 1159 3500 
L 1159 2956 
Q 1356 3278 1631 3431 
Q 1906 3584 2284 3584 
Q 2666 3584 2933 3390 
Q 3200 3197 3328 2828 
z
" transform="scale(0.015625)"/>
       <path id="DejaVuSans-65" d="M 3597 1894 
L 3597 1613 
L 953 1613 
Q 991 1019 1311 708 
Q 1631 397 2203 397 
Q 2534 397 2845 478 
Q 3156 559 3463 722 
L 3463 178 
Q 3153 47 2828 -22 
Q 2503 -91 2169 -91 
Q 1331 -91 842 396 
Q 353 884 353 1716 
Q 353 2575 817 3079 
Q 1281 3584 2069 3584 
Q 2775 3584 3186 3129 
Q 3597 2675 3597 1894 
z
M 3022 2063 
Q 3016 2534 2758 2815 
Q 2500 3097 2075 3097 
Q 1594 3097 1305 2825 
Q 1016 2553 972 2059 
L 3022 2063 
z
" transform="scale(0.015625)"/>
       <path id="DejaVuSans-28" d="M 1984 4856 
Q 1566 4138 1362 3434 
Q 1159 2731 1159 2009 
Q 1159 1288 1364 580 
Q 1569 -128 1984 -844 
L 1484 -844 
Q 1016 -109 783 600 
Q 550 1309 550 2009 
Q 550 2706 781 3412 
Q 1013 4119 1484 4856 
L 1984 4856 
z
" transform="scale(0.015625)"/>
       <path id="DejaVuSans-73" d="M 2834 3397 
L 2834 2853 
Q 2591 2978 2328 3040 
Q 2066 3103 1784 3103 
Q 1356 3103 1142 2972 
Q 928 2841 928 2578 
Q 928 2378 1081 2264 
Q 1234 2150 1697 2047 
L 1894 2003 
Q 2506 1872 2764 1633 
Q 3022 1394 3022 966 
Q 3022 478 2636 193 
Q 2250 -91 1575 -91 
Q 1294 -91 989 -36 
Q 684 19 347 128 
L 347 722 
Q 666 556 975 473 
Q 1284 391 1588 391 
Q 1994 391 2212 530 
Q 2431 669 2431 922 
Q 2431 1156 2273 1281 
Q 2116 1406 1581 1522 
L 1381 1569 
Q 847 1681 609 1914 
Q 372 2147 372 2553 
Q 372 3047 722 3315 
Q 1072 3584 1716 3584 
Q 2034 3584 2315 3537 
Q 2597 3491 2834 3397 
z
" transform="scale(0.015625)"/>
       <path id="DejaVuSans-29" d="M 513 4856 
L 1013 4856 
Q 1481 4119 1714 3412 
Q 1947 2706 1947 2009 
Q 1947 1309 1714 600 
Q 1481 -109 1013 -844 
L 513 -844 
Q 928 -128 1133 580 
Q 1338 1288 1338 2009 
Q 1338 2731 1133 3434 
Q 928 4138 513 4856 
z
" transform="scale(0.015625)"/>
      </defs>
      <use xlink:href="#DejaVuSans-54"/>
      <use xlink:href="#DejaVuSans-69" x="57.958984"/>
      <use xlink:href="#DejaVuSans-6d" x="85.742188"/>
      <use xlink:href="#DejaVuSans-65" x="183.154297"/>
      <use xlink:href="#DejaVuSans-28" x="244.677734"/>
      <use xlink:href="#DejaVuSans-6d" x="283.691406"/>
      <use xlink:href="#DejaVuSans-73" x="381.103516"/>
      <use xlink:href="#DejaVuSans-29" x="433.203125"/>
     </g>
    </g>
   </g>
   <g id="matplotlib.axis_2">
    <g id="ytick_1">
     <g id="line2d_8">
      <defs>
       <path id="m990e44eefe" d="M 0 0 
L -3.5 0 
" style="stroke: #000000; stroke-width: 0.8"/>
      </defs>
      <g>
       <use xlink:href="#m990e44eefe" x="57.6" y="307.584" style="stroke: #000000; stroke-width: 0.8"/>
      </g>
     </g>
     <g id="text_9">
      <!-- −100 -->
      <g transform="translate(23.132812 311.383219) scale(0.1 -0.1)">
       <defs>
        <path id="DejaVuSans-2212" d="M 678 2272 
L 4684 2272 
L 4684 1741 
L 678 1741 
L 678 2272 
z
" transform="scale(0.015625)"/>
       </defs>
       <use xlink:href="#DejaVuSans-2212"/>
       <use xlink:href="#DejaVuSans-31" x="83.789062"/>
       <use xlink:href="#DejaVuSans-30" x="147.412109"/>
       <use xlink:href="#DejaVuSans-30" x="211.035156"/>
      </g>
     </g>
    </g>
    <g id="ytick_2">
     <g id="line2d_9">
      <g>
       <use xlink:href="#m990e44eefe" x="57.6" y="269.568" style="stroke: #000000; stroke-width: 0.8"/>
      </g>
     </g>
     <g id="text_10">
      <!-- −80 -->
      <g transform="translate(29.495313 273.367219) scale(0.1 -0.1)">
       <defs>
        <path id="DejaVuSans-38" d="M 2034 2216 
Q 1584 2216 1326 1975 
Q 1069 1734 1069 1313 
Q 1069 891 1326 650 
Q 1584 409 2034 409 
Q 2484 409 2743 651 
Q 3003 894 3003 1313 
Q 3003 1734 2745 1975 
Q 2488 2216 2034 2216 
z
M 1403 2484 
Q 997 2584 770 2862 
Q 544 3141 544 3541 
Q 544 4100 942 4425 
Q 1341 4750 2034 4750 
Q 2731 4750 3128 4425 
Q 3525 4100 3525 3541 
Q 3525 3141 3298 2862 
Q 3072 2584 2669 2484 
Q 3125 2378 3379 2068 
Q 3634 1759 3634 1313 
Q 3634 634 3220 271 
Q 2806 -91 2034 -91 
Q 1263 -91 848 271 
Q 434 634 434 1313 
Q 434 1759 690 2068 
Q 947 2378 1403 2484 
z
M 1172 3481 
Q 1172 3119 1398 2916 
Q 1625 2713 2034 2713 
Q 2441 2713 2670 2916 
Q 2900 3119 2900 3481 
Q 2900 3844 2670 4047 
Q 2441 4250 2034 4250 
Q 1625 4250 1398 4047 
Q 1172 3844 1172 3481 
z
" transform="scale(0.015625)"/>
       </defs>
       <use xlink:href="#DejaVuSans-2212"/>
       <use xlink:href="#DejaVuSans-38" x="83.789062"/>
       <use xlink:href="#DejaVuSans-30" x="147.412109"/>
      </g>
     </g>
    </g>
    <g id="ytick_3">
     <g id="line2d_10">
      <g>
       <use xlink:href="#m990e44eefe" x="57.6" y="231.552" style="stroke: #000000; stroke-width: 0.8"/>
      </g>
     </g>
     <g id="text_11">
      <!-- −60 -->
      <g transform="translate(29.495313 235.351219) scale(0.1 -0.1)">
       <use xlink:href="#DejaVuSans-2212"/>
       <use xlink:href="#DejaVuSans-36" x="83.789062"/>
       <use xlink:href="#DejaVuSans-30" x="147.412109"/>
      </g>
     </g>
    </g>
    <g id="ytick_4">
     <g id="line2d_11">
      <g>
       <use xlink:href="#m990e44eefe" x="57.6" y="193.536" style="stroke: #000000; stroke-width: 0.8"/>
      </g>
     </g>
     <g id="text_12">
      <!-- −40 -->
      <g transform="translate(29.495313 197.335219) scale(0.1 -0.1)">
       <use xlink:href="#DejaVuSans-2212"/>
       <use xlink:href="#DejaVuSans-34" x="83.789062"/>
       <use xlink:href="#DejaVuSans-30" x="147.412109"/>
      </g>
     </g>
    </g>
    <g id="ytick_5">
     <g id="line2d_12">
      <g>
       <use xlink:href="#m990e44eefe" x="57.6" y="155.52" style="stroke: #000000; stroke-width: 0.8"/>
      </g>
     </g>
     <g id="text_13">
      <!-- −20 -->
      <g transform="translate(29.495313 159.319219) scale(0.1 -0.1)">
       <use xlink:href="#DejaVuSans-2212"/>
       <use xlink:href="#DejaVuSans-32" x="83.789062"/>
       <use xlink:href="#DejaVuSans-30" x="147.412109"/>
      </g>
     </g>
    </g>
    <g id="ytick_6">
     <g id="line2d_13">
      <g>
       <use xlink:href="#m990e44eefe" x="57.6" y="117.504" style="stroke: #000000; stroke-width: 0.8"/>
      </g>
     </g>
     <g id="text_14">
      <!-- 0 -->
      <g transform="translate(44.2375 121.303219) scale(0.1 -0.1)">
       <use xlink:href="#DejaVuSans-30"/>
      </g>
     </g>
    </g>
    <g id="ytick_7">
     <g id="line2d_14">
      <g>
       <use xlink:href="#m990e44eefe" x="57.6" y="79.488" style="stroke: #000000; stroke-width: 0.8"/>
      </g>
     </g>
     <g id="text_15">
      <!-- 20 -->
      <g transform="translate(37.875 83.287219) scale(0.1 -0.1)">
       <use xlink:href="#DejaVuSans-32"/>
       <use xlink:href="#DejaVuSans-30" x="63.623047"/>
      </g>
     </g>
    </g>
    <g id="ytick_8">
     <g id="line2d_15">
      <g>
       <use xlink:href="#m990e44eefe" x="57.6" y="41.472" style="stroke: #000000; stroke-width: 0.8"/>
      </g>
     </g>
     <g id="text_16">
      <!-- 40 -->
      <g transform="translate(37.875 45.271219) scale(0.1 -0.1)">
       <use xlink:href="#DejaVuSans-34"/>
       <use xlink:href="#DejaVuSans-30" x="63.623047"/>
      </g>
     </g>
    </g>
    <g id="text_17">
     <!-- Membrane potential (mV) -->
     <g transform="translate(17.053125 238.939719) rotate(-90) scale(0.1 -0.1)">
      <defs>
       <path id="DejaVuSans-4d" d="M 628 4666 
L 1569 4666 
L 2759 1491 
L 3956 4666 
L 4897 4666 
L 4897 0 
L 4281 0 
L 4281 4097 
L 3078 897 
L 2444 897 
L 1241 4097 
L 1241 0 
L 628 0 
L 628 4666 
z
" transform="scale(0.015625)"/>
       <path id="DejaVuSans-62" d="M 3116 1747 
Q 3116 2381 2855 2742 
Q 2594 3103 2138 3103 
Q 1681 3103 1420 2742 
Q 1159 2381 1159 1747 
Q 1159 1113 1420 752 
Q 1681 391 2138 391 
Q 2594 391 2855 752 
Q 3116 1113 3116 1747 
z
M 1159 2969 
Q 1341 3281 1617 3432 
Q 1894 3584 2278 3584 
Q 2916 3584 3314 3078 
Q 3713 2572 3713 1747 
Q 3713 922 3314 415 
Q 2916 -91 2278 -91 
Q 1894 -91 1617 61 
Q 1341 213 1159 525 
L 1159 0 
L 581 0 
L 581 4863 
L 1159 4863 
L 1159 2969 
z
" transform="scale(0.015625)"/>
       <path id="DejaVuSans-72" d="M 2631 2963 
Q 2534 3019 2420 3045 
Q 2306 3072 2169 3072 
Q 1681 3072 1420 2755 
Q 1159 2438 1159 1844 
L 1159 0 
L 581 0 
L 581 3500 
L 1159 3500 
L 1159 2956 
Q 1341 3275 1631 3429 
Q 1922 3584 2338 3584 
Q 2397 3584 2469 3576 
Q 2541 3569 2628 3553 
L 2631 2963 
z
" transform="scale(0.015625)"/>
       <path id="DejaVuSans-61" d="M 2194 1759 
Q 1497 1759 1228 1600 
Q 959 1441 959 1056 
Q 959 750 1161 570 
Q 1363 391 1709 391 
Q 2188 391 2477 730 
Q 2766 1069 2766 1631 
L 2766 1759 
L 2194 1759 
z
M 3341 1997 
L 3341 0 
L 2766 0 
L 2766 531 
Q 2569 213 2275 61 
Q 1981 -91 1556 -91 
Q 1019 -91 701 211 
Q 384 513 384 1019 
Q 384 1609 779 1909 
Q 1175 2209 1959 2209 
L 2766 2209 
L 2766 2266 
Q 2766 2663 2505 2880 
Q 2244 3097 1772 3097 
Q 1472 3097 1187 3025 
Q 903 2953 641 2809 
L 641 3341 
Q 956 3463 1253 3523 
Q 1550 3584 1831 3584 
Q 2591 3584 2966 3190 
Q 3341 2797 3341 1997 
z
" transform="scale(0.015625)"/>
       <path id="DejaVuSans-6e" d="M 3513 2113 
L 3513 0 
L 2938 0 
L 2938 2094 
Q 2938 2591 2744 2837 
Q 2550 3084 2163 3084 
Q 1697 3084 1428 2787 
Q 1159 2491 1159 1978 
L 1159 0 
L 581 0 
L 581 3500 
L 1159 3500 
L 1159 2956 
Q 1366 3272 1645 3428 
Q 1925 3584 2291 3584 
Q 2894 3584 3203 3211 
Q 3513 2838 3513 2113 
z
" transform="scale(0.015625)"/>
       <path id="DejaVuSans-20" transform="scale(0.015625)"/>
       <path id="DejaVuSans-70" d="M 1159 525 
L 1159 -1331 
L 581 -1331 
L 581 3500 
L 1159 3500 
L 1159 2969 
Q 1341 3281 1617 3432 
Q 1894 3584 2278 3584 
Q 2916 3584 3314 3078 
Q 3713 2572 3713 1747 
Q 3713 922 3314 415 
Q 2916 -91 2278 -91 
Q 1894 -91 1617 61 
Q 1341 213 1159 525 
z
M 3116 1747 
Q 3116 2381 2855 2742 
Q 2594 3103 2138 3103 
Q 1681 3103 1420 2742 
Q 1159 2381 1159 1747 
Q 1159 1113 1420 752 
Q 1681 391 2138 391 
Q 2594 391 2855 752 
Q 3116 1113 3116 1747 
z
" transform="scale(0.015625)"/>
       <path id="DejaVuSans-6f" d="M 1959 3097 
Q 1497 3097 1228 2736 
Q 959 2375 959 1747 
Q 959 1119 1226 758 
Q 1494 397 1959 397 
Q 2419 397 2687 759 
Q 2956 1122 2956 1747 
Q 2956 2369 2687 2733 
Q 2419 3097 1959 3097 
z
M 1959 3584 
Q 2709 3584 3137 3096 
Q 3566 2609 3566 1747 
Q 3566 888 3137 398 
Q 2709 -91 1959 -91 
Q 1206 -91 779 398 
Q 353 888 353 1747 
Q 353 2609 779 3096 
Q 1206 3584 1959 3584 
z
" transform="scale(0.015625)"/>
       <path id="DejaVuSans-74" d="M 1172 4494 
L 1172 3500 
L 2356 3500 
L 2356 3053 
L 1172 3053 
L 1172 1153 
Q 1172 725 1289 603 
Q 1406 481 1766 481 
L 2356 481 
L 2356 0 
L 1766 0 
Q 1100 0 847 248 
Q 594 497 594 1153 
L 594 3053 
L 172 3053 
L 172 3500 
L 594 3500 
L 594 4494 
L 1172 4494 
z
" transform="scale(0.015625)"/>
       <path id="DejaVuSans-6c" d="M 603 4863 
L 1178 4863 
L 1178 0 
L 603 0 
L 603 4863 
z
" transform="scale(0.015625)"/>
       <path id="DejaVuSans-56" d="M 1831 0 
L 50 4666 
L 709 4666 
L 2188 738 
L 3669 4666 
L 4325 4666 
L 2547 0 
L 1831 0 
z
" transform="scale(0.015625)"/>
      </defs>
      <use xlink:href="#DejaVuSans-4d"/>
      <use xlink:href="#DejaVuSans-65" x="86.279297"/>
      <use xlink:href="#DejaVuSans-6d" x="147.802734"/>
      <use xlink:href="#DejaVuSans-62" x="245.214844"/>
      <use xlink:href="#DejaVuSans-72" x="308.691406"/>
      <use xlink:href="#DejaVuSans-61" x="349.804688"/>
      <use xlink:href="#DejaVuSans-6e" x="411.083984"/>
      <use xlink:href="#DejaVuSans-65" x="474.462891"/>
      <use xlink:href="#DejaVuSans-20" x="535.986328"/>
      <use xlink:href="#DejaVuSans-70" x="567.773438"/>
      <use xlink:href="#DejaVuSans-6f" x="631.25"/>
      <use xlink:href="#DejaVuSans-74" x="692.431641"/>
      <use xlink:href="#DejaVuSans-65" x="731.640625"/>
      <use xlink:href="#DejaVuSans-6e" x="793.164062"/>
      <use xlink:href="#DejaVuSans-74" x="856.542969"/>
      <use xlink:href="#DejaVuSans-69" x="895.751953"/>
      <use xlink:href="#DejaVuSans-61" x="923.535156"/>
      <use xlink:href="#DejaVuSans-6c" x="984.814453"/>
      <use xlink:href="#DejaVuSans-20" x="1012.597656"/>
      <use xlink:href="#DejaVuSans-28" x="1044.384766"/>
      <use xlink:href="#DejaVuSans-6d" x="1083.398438"/>
      <use xlink:href="#DejaVuSans-56" x="1180.810547"/>
      <use xlink:href="#DejaVuSans-29" x="1249.21875"/>
     </g>
    </g>
   </g>
   <g id="line2d_16">
    <path d="M 73.832727 280.9728 
L 73.976116 282.197496 
L 74.181731 282.713393 
L 74.679535 282.94475 
L 74.998778 282.739206 
L 75.212509 282.899174 
L 75.531753 283.116976 
L 75.888873 283.089379 
L 76.045789 283.04715 
L 76.208116 282.713454 
L 76.327156 281.958326 
L 76.722153 279.453067 
L 76.868247 278.861647 
L 77.138793 277.611736 
L 77.249716 277.617965 
L 77.268655 277.639449 
L 77.44992 278.052599 
L 77.861149 279.684385 
L 78.061353 280.48153 
L 78.126284 280.357125 
L 78.350836 280.011089 
L 78.364364 280.017104 
L 78.507753 280.22536 
L 78.856756 280.72905 
L 78.978502 280.682035 
L 79.130007 280.30435 
L 80.266298 276.806465 
L 80.45568 276.171917 
L 80.93184 273.471683 
L 81.067113 273.476894 
L 81.072524 273.482514 
L 81.245673 273.833714 
L 81.43776 274.33717 
L 81.502691 274.237047 
L 82.046487 273.184724 
L 82.18176 273.250636 
L 82.368436 273.688452 
L 82.725556 275.219084 
L 83.025862 276.682922 
L 83.101615 276.551648 
L 83.266647 276.376743 
L 83.290996 276.393044 
L 83.656233 276.87172 
L 83.810444 277.112374 
L 83.842909 276.94199 
L 84.262255 274.654917 
L 84.362356 274.358076 
L 84.62208 273.80048 
L 84.705949 273.553074 
L 85.138822 271.699692 
L 85.176698 271.720773 
L 85.290327 271.828956 
L 85.344436 271.728757 
L 85.479709 271.094691 
L 85.750255 270.212922 
L 86.053265 269.912216 
L 86.166895 269.841651 
L 86.413091 269.109558 
L 86.653876 267.152662 
L 87.148975 263.911397 
L 88.13376 261.351767 
L 88.136465 261.352715 
L 88.2528 261.514918 
L 88.463825 262.293744 
L 89.716451 268.39607 
L 89.789498 268.181656 
L 90.208844 266.750053 
L 90.327884 266.884758 
L 90.536204 267.556595 
L 90.890618 268.579152 
L 91.031302 268.712422 
L 91.223389 269.3238 
L 91.634618 271.570862 
L 91.878109 272.372928 
L 92.113484 272.895509 
L 92.465193 274.053273 
L 92.565295 273.961677 
L 92.768204 273.909901 
L 92.919709 273.834479 
L 93.174022 272.889877 
L 93.217309 272.01042 
L 93.652887 261.510159 
L 94.015418 258.539226 
L 94.191273 258.236782 
L 94.2048 258.242219 
L 94.326545 258.434772 
L 94.578153 259.379537 
L 94.694487 259.716277 
L 94.74048 259.572964 
L 95.492596 255.781394 
L 95.652218 255.66471 
L 95.687389 255.695958 
L 95.836189 255.712987 
L 95.847011 255.702367 
L 96.009338 255.403736 
L 96.382691 253.156964 
L 96.482793 253.249063 
L 96.658647 253.839842 
L 97.042822 256.052407 
L 97.126691 255.480555 
L 97.38912 254.171367 
L 97.494633 254.241312 
L 97.646138 254.245538 
L 97.773295 254.02634 
L 97.968087 253.652085 
L 97.989731 253.664229 
L 98.108771 253.909125 
L 98.34144 255.030743 
L 98.841949 258.7893 
L 99.17472 261.407147 
L 99.242356 261.197134 
L 99.583244 260.013553 
L 99.585949 260.014173 
L 99.796975 260.189483 
L 99.989062 260.626955 
L 100.33536 262.068839 
L 100.451695 261.790368 
L 100.800698 260.971351 
L 101.16864 260.745689 
L 101.320145 260.958859 
L 101.458124 261.158623 
L 101.509527 261.112566 
L 101.698909 260.711259 
L 101.955927 260.040116 
L 101.958633 260.040762 
L 102.12096 259.975918 
L 102.24 259.412999 
L 102.594415 257.913393 
L 102.632291 257.93667 
L 102.843316 258.310054 
L 103.124684 258.84573 
L 103.186909 258.793982 
L 103.289716 258.56506 
L 103.498036 258.229433 
L 103.514269 258.237819 
L 103.636015 258.459456 
L 104.009367 259.315516 
L 104.039127 259.297539 
L 104.279913 258.94367 
L 104.626211 258.104534 
L 105.30528 254.198145 
L 105.316102 254.2011 
L 105.418909 254.369193 
L 105.435142 254.405269 
L 105.478429 254.226932 
L 105.886953 252.56894 
L 105.992465 252.516899 
L 106.027636 252.549301 
L 106.368524 253.068989 
L 106.709411 254.262559 
L 106.782458 254.118702 
L 107.128756 252.90551 
L 107.215331 253.019609 
L 107.393891 253.733942 
L 107.916044 256.349017 
L 107.978269 256.094911 
L 108.3408 254.354171 
L 108.513949 254.367596 
L 108.654633 254.742575 
L 108.908945 256.203552 
L 109.379695 258.784324 
L 109.493324 258.830553 
L 109.512262 258.726978 
L 109.880204 256.814798 
L 109.980305 256.912449 
L 110.196742 257.560384 
L 110.561978 259.423689 
L 110.881222 260.820808 
L 110.897455 260.797942 
L 110.992145 260.227686 
L 111.276218 258.939691 
L 111.373615 258.953442 
L 111.392553 258.978323 
L 111.552175 259.419284 
L 111.944465 260.504229 
L 112.12032 260.946471 
L 112.41792 262.4376 
L 112.888669 264.622606 
L 113.386473 266.023639 
L 113.63808 266.322126 
L 113.675956 266.178593 
L 114.230575 262.09635 
L 114.487593 260.094499 
L 115.055738 258.499528 
L 115.485905 256.249573 
L 115.591418 256.319817 
L 115.748335 256.554571 
L 115.783505 256.448042 
L 116.037818 255.447831 
L 116.081105 255.484329 
L 116.208262 255.877563 
L 116.925207 259.610734 
L 117.290444 261.413869 
L 117.404073 261.558231 
L 117.455476 261.451627 
L 117.5664 260.61217 
L 117.831535 258.906648 
L 117.899171 258.90827 
L 117.934342 258.96001 
L 118.091258 259.505096 
L 118.286051 260.129348 
L 118.326633 260.09618 
L 118.483549 259.637867 
L 118.659404 259.406269 
L 118.678342 259.416305 
L 118.865018 259.683689 
L 119.122036 260.387233 
L 119.462924 262.143683 
L 119.774051 263.661471 
L 119.811927 263.610617 
L 119.922851 263.08044 
L 120.377367 260.621865 
L 120.794007 260.077811 
L 120.864349 260.071337 
L 120.883287 259.994611 
L 121.291811 257.256565 
L 121.646225 255.331468 
L 121.735505 255.341275 
L 121.759855 255.373699 
L 121.922182 255.840799 
L 122.130502 256.136507 
L 122.133207 256.135146 
L 122.187316 255.968218 
L 122.311767 254.69311 
L 122.752756 249.137548 
L 123.112582 247.089142 
L 123.323607 246.680648 
L 123.331724 246.683735 
L 123.439942 246.858314 
L 123.558982 247.167095 
L 123.621207 247.041403 
L 123.807884 246.701233 
L 123.843055 246.722618 
L 124.108189 246.832664 
L 124.129833 246.802571 
L 124.259695 246.721943 
L 124.29216 246.757901 
L 124.422022 247.164932 
L 124.982051 250.299509 
L 125.439273 252.783698 
L 125.650298 253.114971 
L 125.931665 253.586206 
L 126.461935 254.531258 
L 126.505222 254.480519 
L 126.773062 254.115485 
L 126.813644 254.152637 
L 126.97056 254.532444 
L 127.584698 256.544061 
L 127.646924 256.478426 
L 127.779491 256.421211 
L 127.806545 256.450077 
L 127.949935 256.831332 
L 128.234007 257.765605 
L 128.293527 257.722263 
L 128.720989 257.386585 
L 128.745338 257.414218 
L 128.877905 257.59671 
L 128.915782 257.455698 
L 129.253964 255.950073 
L 129.278313 255.961369 
L 129.700364 256.436251 
L 129.922211 257.458252 
L 130.409193 259.679593 
L 130.904291 261.895016 
L 130.966516 261.593617 
L 131.185658 259.05657 
L 131.456204 257.217315 
L 131.561716 256.722976 
L 131.813324 255.975053 
L 131.943185 255.689521 
L 132.121745 254.591614 
L 132.338182 254.005848 
L 132.519447 253.919075 
L 132.708829 253.682389 
L 132.730473 253.695958 
L 132.868451 253.955083 
L 133.122764 255.008711 
L 133.228276 255.551743 
L 133.282385 255.25407 
L 133.590807 253.515201 
L 133.680087 253.636827 
L 133.858647 254.395026 
L 134.621585 258.074715 
L 134.867782 258.960938 
L 135.097745 259.876351 
L 135.15456 259.787309 
L 135.235724 259.048992 
L 135.657775 255.014962 
L 135.903971 254.132955 
L 136.163695 253.441659 
L 136.280029 253.534003 
L 136.542458 253.735558 
L 136.550575 253.728777 
L 136.661498 253.467567 
L 137.075433 250.755021 
L 137.151185 250.83941 
L 137.313513 251.43106 
L 137.643578 253.654218 
L 137.946589 255.17938 
L 138.173847 255.915958 
L 138.633775 257.432417 
L 138.763636 257.645071 
L 139.063942 258.330865 
L 139.123462 258.288903 
L 139.383185 257.916284 
L 139.634793 257.364487 
L 139.64832 257.369834 
L 139.894516 257.477155 
L 139.921571 257.404007 
L 140.184 256.621282 
L 140.235404 256.669938 
L 140.378793 257.113193 
L 141.339229 261.85449 
L 142.553978 268.33175 
L 142.886749 269.761097 
L 142.938153 269.683447 
L 143.330444 268.634228 
L 143.403491 268.701203 
L 143.587462 269.162893 
L 143.852596 269.895533 
L 143.906705 269.869598 
L 144.060916 269.662591 
L 144.298996 269.426474 
L 144.301702 269.42784 
L 144.442385 269.627457 
L 144.691287 270.463777 
L 144.929367 271.395983 
L 144.997004 271.280489 
L 145.830284 269.016584 
L 145.906036 269.084455 
L 146.095418 269.548698 
L 146.200931 269.778891 
L 146.257745 269.707792 
L 146.425484 269.141444 
L 146.647331 266.615738 
L 147.14784 262.10196 
L 147.310167 261.868458 
L 147.329105 261.877922 
L 147.423796 261.928868 
L 147.464378 261.837501 
L 147.95136 260.462408 
L 148.035229 260.565232 
L 148.2192 261.191637 
L 148.492451 262.229385 
L 148.541149 262.158046 
L 148.746764 261.253022 
L 149.036247 259.860752 
L 149.17152 259.762997 
L 149.198575 259.784512 
L 149.336553 260.088784 
L 149.523229 260.814907 
L 149.598982 260.583823 
L 149.799185 260.093067 
L 149.823535 260.102856 
L 149.926342 260.028664 
L 150.240175 259.514937 
L 150.286167 259.556793 
L 150.437673 259.942594 
L 150.71904 261.402602 
L 151.449513 265.337641 
L 151.917556 266.114654 
L 152.288204 267.974226 
L 152.934807 271.443535 
L 152.983505 271.388416 
L 153.15936 270.801638 
L 153.448844 268.867971 
L 154.035927 265.330439 
L 154.163084 265.281399 
L 154.187433 265.302064 
L 154.785338 265.762563 
L 155.099171 265.298957 
L 155.402182 264.490162 
L 155.515811 264.395707 
L 155.789062 264.137792 
L 155.935156 263.918544 
L 156.202996 263.688087 
L 156.376145 263.766363 
L 156.52224 263.723421 
L 156.708916 263.730967 
L 156.873949 264.061233 
L 157.152611 265.224398 
L 157.745105 268.882398 
L 158.110342 271.058107 
L 158.161745 270.930192 
L 158.640611 269.347116 
L 158.778589 269.469608 
L 159.003142 270.044751 
L 159.422487 271.850524 
L 160.158371 274.945988 
L 160.209775 274.875914 
L 160.217891 274.852439 
L 160.396451 273.95974 
L 160.907782 267.41951 
L 161.686953 254.879345 
L 161.776233 254.798067 
L 161.822225 254.845539 
L 161.857396 254.843926 
L 161.897978 254.765143 
L 162.054895 253.797729 
L 162.344378 251.813423 
L 162.347084 251.813864 
L 162.425542 251.945558 
L 162.495884 252.021345 
L 162.536465 251.931513 
L 162.793484 251.075142 
L 162.853004 251.143481 
L 163.264233 252.246899 
L 163.572655 254.595855 
L 163.802618 255.69029 
L 164.11104 255.585308 
L 164.359942 255.339849 
L 164.844218 253.570244 
L 165.022778 253.157034 
L 165.041716 253.165091 
L 165.149935 253.376358 
L 165.358255 254.399473 
L 165.80736 257.990166 
L 166.299753 261.177905 
L 166.735331 262.691825 
L 166.930124 263.037782 
L 167.187142 264.074478 
L 167.576727 266.393356 
L 167.655185 265.916033 
L 167.971724 262.197229 
L 168.683258 252.147633 
L 168.983564 250.510747 
L 169.337978 249.429354 
L 169.359622 249.440029 
L 169.473251 249.668564 
L 169.684276 250.725794 
L 170.525673 255.529858 
L 170.528378 255.529076 
L 170.587898 255.373327 
L 171.166865 253.125359 
L 171.172276 253.126765 
L 171.299433 253.279745 
L 171.364364 253.372834 
L 171.413062 253.259995 
L 171.702545 252.458018 
L 171.737716 252.481616 
L 171.816175 252.564667 
L 171.862167 252.458876 
L 172.130007 251.825523 
L 172.162473 251.846116 
L 172.23552 251.921848 
L 172.278807 251.8116 
L 172.603462 250.729552 
L 172.654865 250.775191 
L 172.792844 251.184946 
L 173.063389 252.833801 
L 173.628829 256.531602 
L 173.658589 256.47834 
L 173.939956 255.75972 
L 173.994065 255.809254 
L 174.061702 255.919044 
L 174.104989 255.790541 
L 174.332247 255.085372 
L 174.364713 255.107715 
L 174.483753 255.412954 
L 174.748887 256.868711 
L 175.005905 257.59781 
L 175.292684 258.274261 
L 175.325149 258.261193 
L 175.490182 258.063757 
L 175.958225 255.870597 
L 176.063738 255.947852 
L 176.531782 256.858591 
L 176.856436 258.85678 
L 177.459753 263.349033 
L 177.540916 263.110288 
L 178.122589 259.950427 
L 178.328204 259.154133 
L 178.431011 259.035922 
L 178.636625 258.675164 
L 178.674502 258.708839 
L 178.807069 259.083828 
L 179.08032 260.685201 
L 179.296756 261.891153 
L 179.356276 261.861564 
L 179.480727 261.918925 
L 179.632233 262.397671 
L 180.054284 263.834361 
L 180.0624 263.826899 
L 180.146269 263.470448 
L 180.381644 262.829855 
L 180.525033 262.968262 
L 180.668422 263.037435 
L 180.700887 262.985178 
L 181.047185 262.430458 
L 181.079651 262.452669 
L 181.147287 262.469737 
L 181.182458 262.400492 
L 181.712727 260.945882 
L 181.796596 261.031349 
L 181.810124 261.040897 
L 181.853411 260.912057 
L 182.386385 257.882384 
L 182.77056 254.622963 
L 183.195316 253.348911 
L 183.482095 253.325624 
L 183.4848 253.314924 
L 183.606545 252.346217 
L 184.404655 245.022484 
L 184.504756 245.017044 
L 184.529105 245.045305 
L 184.683316 245.450522 
L 185.197353 247.181488 
L 185.237935 247.124123 
L 185.402967 246.450565 
L 185.708684 245.363188 
L 185.898065 245.32235 
L 186.284945 245.77073 
L 186.366109 245.85167 
L 186.406691 245.755166 
L 186.52032 244.808294 
L 187.083055 239.776971 
L 187.207505 239.677133 
L 187.237265 239.694476 
L 187.891985 240.004883 
L 188.011025 239.668408 
L 189.523375 227.624039 
L 191.097949 204.407536 
L 191.233222 194.679095 
L 191.317091 170.596864 
L 191.373905 104.210857 
L 191.436131 164.783473 
L 191.590342 207.396896 
L 191.809484 219.257094 
L 192.358691 232.542918 
L 193.062109 241.413926 
L 193.089164 241.45941 
L 193.135156 241.298392 
L 193.535564 238.550707 
L 193.96032 233.801492 
L 194.241687 228.94009 
L 194.52576 226.279513 
L 194.723258 225.764747 
L 194.73408 225.768913 
L 194.828771 225.95049 
L 195.023564 226.96926 
L 195.521367 229.281607 
L 195.694516 229.474839 
L 195.713455 229.466116 
L 195.86496 229.268142 
L 196.165265 228.659769 
L 196.181498 228.666058 
L 196.438516 228.660962 
L 196.627898 228.5384 
L 196.649542 228.556391 
L 196.714473 228.537505 
L 196.738822 228.48925 
L 196.868684 227.832441 
L 198.018502 221.04316 
L 198.140247 220.597402 
L 198.416204 218.550175 
L 198.597469 215.431433 
L 198.797673 208.187178 
L 198.938356 194.33782 
L 199.000582 163.183557 
L 199.043869 78.308541 
L 199.111505 160.83597 
L 199.263011 218.578937 
L 199.46592 231.777213 
L 200.199098 250.923375 
L 200.602211 256.540673 
L 200.98368 259.089149 
L 201.01344 259.08703 
L 201.051316 259.007015 
L 201.240698 258.064002 
L 201.873775 254.197625 
L 202.155142 253.028403 
L 203.269789 243.060861 
L 203.710778 238.781838 
L 203.919098 238.39459 
L 204.032727 238.138624 
L 204.216698 236.11675 
L 204.522415 233.923781 
L 204.719913 233.006045 
L 205.26912 227.706582 
L 206.199796 213.75175 
L 206.448698 207.529999 
L 206.621847 197.099883 
L 206.716538 175.345489 
L 206.781469 101.820635 
L 206.840989 167.025053 
L 206.9952 213.480149 
L 207.192698 223.671549 
L 207.47136 227.068321 
L 208.569775 240.762137 
L 208.894429 242.220155 
L 209.275898 243.675714 
L 209.476102 244.081296 
L 209.538327 243.943404 
L 209.906269 242.232502 
L 210.352669 238.973618 
L 210.482531 238.865561 
L 210.512291 238.886898 
L 210.652975 239.182246 
L 210.909993 240.350497 
L 211.545775 243.35514 
L 211.740567 243.771226 
L 211.805498 243.633654 
L 212.159913 242.107858 
L 212.360116 240.132285 
L 212.746996 235.985667 
L 213.050007 233.845917 
L 213.380073 232.12153 
L 213.5424 231.924862 
L 213.564044 231.936988 
L 213.688495 232.17691 
L 213.864349 233.070969 
L 214.61376 237.588947 
L 214.648931 237.547132 
L 214.854545 236.811508 
L 215.038516 236.62947 
L 215.438924 236.169844 
L 215.490327 236.231136 
L 215.652655 236.70402 
L 215.936727 238.401306 
L 216.937745 244.997341 
L 217.051375 244.883668 
L 217.208291 243.205463 
L 217.503185 241.142769 
L 217.646575 240.980843 
L 217.673629 240.997402 
L 217.808902 241.262272 
L 218.079447 242.415634 
L 218.993891 246.207226 
L 219.599913 247.92855 
L 219.708131 248.244828 
L 219.764945 248.168643 
L 220.116655 247.599761 
L 220.132887 247.608256 
L 220.281687 247.82963 
L 220.522473 248.696375 
L 220.741615 249.191474 
L 220.882298 249.104689 
L 221.014865 248.414856 
L 221.545135 243.533093 
L 221.858967 242.681848 
L 221.986124 241.381751 
L 222.935738 230.745348 
L 223.108887 230.801851 
L 223.187345 230.852735 
L 223.227927 230.764576 
L 223.763607 229.28721 
L 223.815011 229.315906 
L 224.055796 229.363112 
L 224.264116 229.410071 
L 224.426444 229.779805 
L 224.650996 230.949873 
L 225.50592 237.670176 
L 225.811636 239.427817 
L 225.852218 239.414043 
L 225.881978 239.344334 
L 225.995607 238.502256 
L 226.409542 235.400151 
L 226.482589 235.391897 
L 226.51776 235.439909 
L 226.723375 236.051377 
L 226.983098 237.275484 
L 227.786618 241.856551 
L 227.813673 241.823572 
L 228.032815 241.374743 
L 228.097745 241.461605 
L 228.257367 242.086914 
L 228.592844 244.504101 
L 228.836335 246.058402 
L 228.879622 246.006633 
L 229.320611 245.26077 
L 229.347665 245.278122 
L 229.509993 245.559239 
L 229.748073 246.508074 
L 230.164713 249.259776 
L 230.8032 253.286981 
L 231.079156 254.508368 
L 231.154909 254.317162 
L 231.679767 252.619731 
L 231.861033 252.526104 
L 232.072058 252.481551 
L 232.345309 252.213425 
L 232.791709 250.779389 
L 232.932393 250.000883 
L 233.787316 241.689947 
L 233.806255 241.695612 
L 233.914473 241.883551 
L 234.663884 244.367675 
L 234.763985 244.574633 
L 234.812684 244.49526 
L 234.896553 243.789424 
L 235.494458 237.684596 
L 235.59456 237.61741 
L 235.632436 237.653159 
L 235.77312 238.034338 
L 236.111302 239.105194 
L 236.151884 239.090609 
L 236.192465 238.964691 
L 236.549585 237.690863 
L 236.790371 237.761585 
L 236.944582 238.182691 
L 237.196189 239.672846 
L 238.773469 250.702931 
L 239.468771 253.106934 
L 239.590516 253.291246 
L 239.801542 254.133969 
L 240.139724 255.303772 
L 240.458967 256.770611 
L 240.699753 257.692583 
L 240.734924 257.651226 
L 240.86208 257.134914 
L 241.289542 255.204197 
L 241.373411 254.994337 
L 241.660189 254.285336 
L 241.662895 254.286093 
L 241.787345 254.441944 
L 242.336553 255.5336 
L 243.039971 258.571373 
L 243.12384 258.382877 
L 243.269935 258.188729 
L 243.3024 258.213741 
L 243.434967 258.537866 
L 244.452218 261.798972 
L 244.644305 262.311614 
L 245.315258 264.391023 
L 245.629091 265.423996 
L 246.013265 266.755666 
L 246.037615 266.663806 
L 246.405556 264.659526 
L 246.451549 264.690077 
L 246.594938 265.0283 
L 246.906065 266.468379 
L 247.742051 270.700128 
L 247.782633 270.680448 
L 247.904378 270.434637 
L 248.318313 269.504663 
L 248.458996 269.627312 
L 248.607796 269.788507 
L 248.642967 269.714274 
L 248.77824 268.858577 
L 249.538473 262.71283 
L 249.733265 262.28526 
L 249.865833 262.134703 
L 250.171549 261.037507 
L 250.41504 260.480803 
L 250.550313 260.54766 
L 250.964247 261.071875 
L 251.348422 261.700342 
L 251.418764 261.617146 
L 251.716364 261.343142 
L 251.719069 261.344834 
L 251.867869 261.572225 
L 252.057251 262.097645 
L 252.105949 261.880325 
L 252.227695 259.710559 
L 252.563171 252.752092 
L 252.711971 252.283591 
L 252.739025 252.299679 
L 252.847244 252.58259 
L 253.082618 253.982899 
L 253.577716 257.546987 
L 253.645353 257.342437 
L 253.826618 256.885093 
L 253.856378 256.905006 
L 253.970007 257.200163 
L 254.243258 258.308197 
L 254.308189 258.081375 
L 254.508393 257.522906 
L 254.532742 257.536031 
L 254.749178 257.72348 
L 254.792465 257.614257 
L 255.149585 255.931105 
L 255.374138 255.106552 
L 255.466124 255.218838 
L 255.641978 255.923556 
L 256.064029 257.597104 
L 256.323753 258.380353 
L 256.683578 260.344295 
L 257.514153 266.146155 
L 257.644015 265.871302 
L 258.009251 264.960079 
L 258.109353 265.085691 
L 258.225687 265.307607 
L 258.277091 265.18745 
L 258.620684 264.14748 
L 258.653149 264.166341 
L 258.788422 264.434285 
L 258.999447 264.713687 
L 259.142836 264.828586 
L 259.334924 265.386052 
L 259.702865 267.28881 
L 259.978822 268.473752 
L 260.005876 268.437623 
L 260.119505 267.827569 
L 260.463098 264.178167 
L 260.803985 260.806906 
L 260.982545 260.45555 
L 260.996073 260.460298 
L 261.115113 260.646681 
L 261.244975 261.034133 
L 261.315316 260.862672 
L 261.458705 260.646481 
L 261.493876 260.673386 
L 261.623738 261.007959 
L 261.899695 262.487045 
L 262.808727 269.107273 
L 263.696116 274.696463 
L 264.115462 275.84399 
L 264.137105 275.840333 
L 264.169571 275.745416 
L 264.331898 274.498524 
L 265.341033 266.8528 
L 265.516887 266.641557 
L 265.527709 266.646014 
L 265.665687 266.840323 
L 265.876713 267.208687 
L 265.914589 267.134825 
L 266.047156 266.283231 
L 266.599069 262.684385 
L 266.699171 262.564582 
L 266.926429 262.033836 
L 266.953484 262.050089 
L 267.077935 262.319653 
L 267.329542 263.533549 
L 267.946385 267.911978 
L 268.335971 270.008672 
L 268.414429 269.889223 
L 268.958225 268.409785 
L 269.025862 268.459356 
L 269.542604 268.86669 
L 269.731985 268.960651 
L 269.783389 268.937554 
L 269.813149 268.883008 
L 270.091811 268.525308 
L 270.099927 268.529559 
L 270.248727 268.574908 
L 270.281193 268.511104 
L 270.475985 267.816536 
L 270.962967 264.478878 
L 271.704262 259.974337 
L 272.142545 256.761235 
L 272.415796 256.246021 
L 272.421207 256.248043 
L 272.707985 256.324649 
L 272.729629 256.267102 
L 272.900073 255.352548 
L 273.165207 254.505647 
L 273.554793 254.205025 
L 273.603491 254.289998 
L 273.77664 254.957404 
L 274.120233 257.351856 
L 274.964335 264.142176 
L 275.021149 263.84473 
L 275.489193 260.818305 
L 275.586589 260.845029 
L 275.602822 260.86864 
L 275.762444 261.338877 
L 276.016756 262.383404 
L 276.116858 262.341709 
L 276.284596 262.228735 
L 276.587607 261.256482 
L 276.614662 261.265318 
L 276.749935 261.188896 
L 276.914967 261.169198 
L 276.920378 261.175182 
L 277.069178 261.519953 
L 277.220684 262.127263 
L 277.282909 261.862065 
L 277.610269 260.430639 
L 277.707665 260.54091 
L 278.324509 262.194845 
L 279.109091 266.639179 
L 279.725935 269.685207 
L 280.386065 273.198335 
L 280.726953 274.477649 
L 281.124655 275.416422 
L 281.184175 275.348572 
L 281.48448 274.609398 
L 281.906531 271.998029 
L 282.190604 271.419353 
L 282.388102 270.82371 
L 282.934604 267.465213 
L 283.048233 267.011213 
L 283.9248 261.222469 
L 283.965382 261.245066 
L 284.097949 261.53494 
L 284.354967 262.757858 
L 284.517295 263.667393 
L 284.590342 263.494126 
L 284.733731 263.261566 
L 284.768902 263.290653 
L 284.901469 263.573315 
L 284.977222 263.39 
L 285.126022 263.171433 
L 285.158487 263.195795 
L 285.212596 263.194678 
L 285.250473 263.135664 
L 285.434444 262.938693 
L 285.464204 262.96244 
L 285.572422 263.053112 
L 285.613004 262.965634 
L 285.945775 262.102602 
L 285.991767 262.137462 
L 286.137862 262.486626 
L 286.400291 263.004401 
L 286.54368 263.306396 
L 286.800698 264.497461 
L 287.455418 267.914941 
L 287.504116 267.905678 
L 287.590691 267.777472 
L 287.804422 266.835057 
L 288.245411 264.498684 
L 288.353629 264.429825 
L 288.3888 264.461343 
L 288.534895 264.823185 
L 288.821673 266.26723 
L 289.048931 266.917313 
L 289.224785 267.209583 
L 289.289716 267.140892 
L 289.470982 267.0374 
L 289.48992 267.054347 
L 289.633309 267.368299 
L 289.903855 268.626452 
L 290.139229 269.329046 
L 290.274502 269.555139 
L 290.331316 269.426872 
L 290.628916 268.826312 
L 290.631622 268.827203 
L 290.758778 268.990898 
L 290.975215 269.569742 
L 291.072611 269.414719 
L 291.170007 268.670422 
L 291.362095 265.256157 
L 291.654284 261.948459 
L 291.830138 261.567686 
L 291.843665 261.572959 
L 291.957295 261.765904 
L 292.176436 262.691122 
L 292.563316 264.189769 
L 292.695884 264.526211 
L 292.961018 265.976445 
L 293.277556 267.534336 
L 293.304611 267.516099 
L 293.556218 267.233514 
L 293.613033 267.310456 
L 294.164945 268.484183 
L 294.25152 268.285211 
L 294.535593 267.702848 
L 294.538298 267.70377 
L 294.662749 267.870911 
L 294.819665 268.09998 
L 294.865658 268.053473 
L 295.138909 267.431146 
L 295.793629 264.359357 
L 296.012771 263.26186 
L 296.599855 259.792474 
L 296.791942 258.726653 
L 297.067898 257.214248 
L 297.205876 257.22614 
L 297.303273 257.127245 
L 297.462895 256.07847 
L 297.944465 251.713728 
L 297.968815 251.725698 
L 298.068916 251.977558 
L 298.688465 254.887912 
L 298.977949 256.028888 
L 299.091578 256.326264 
L 299.494691 257.506646 
L 299.551505 257.374748 
L 300.149411 255.002719 
L 300.265745 255.081254 
L 300.447011 255.025865 
L 300.47136 255.064769 
L 300.622865 255.590324 
L 300.890705 256.326901 
L 301.134196 256.951856 
L 301.426385 258.494292 
L 301.786211 260.574664 
L 301.834909 260.459575 
L 301.978298 259.252656 
L 302.400349 254.93407 
L 302.511273 254.851128 
L 302.546444 254.880975 
L 302.687127 255.22552 
L 302.944145 256.565107 
L 303.333731 258.966329 
L 303.406778 258.875437 
L 303.598865 258.668703 
L 303.62592 258.690576 
L 303.758487 258.999928 
L 304.010095 260.286391 
L 305.027345 266.076122 
L 305.122036 266.268695 
L 305.170735 266.133261 
L 305.517033 265.167114 
L 305.646895 264.843849 
L 305.925556 264.180083 
L 306.039185 264.327283 
L 306.090589 264.425406 
L 306.147404 264.299362 
L 306.317847 264.010238 
L 306.350313 264.033059 
L 306.599215 264.369529 
L 306.634385 264.189703 
L 307.25664 260.205076 
L 307.413556 259.792289 
L 307.719273 258.618982 
L 307.800436 258.445541 
L 308.035811 257.972085 
L 308.054749 257.981364 
L 308.176495 258.203026 
L 308.403753 259.191908 
L 309.090938 262.400586 
L 309.42912 263.749679 
L 309.510284 263.603354 
L 309.891753 262.769516 
L 309.902575 262.774193 
L 310.037847 262.970369 
L 310.838662 265.119199 
L 311.425745 268.761769 
L 311.72064 270.136831 
L 311.739578 270.124879 
L 311.885673 269.800695 
L 311.980364 269.209555 
L 312.272553 267.764361 
L 312.437585 267.734453 
L 312.664844 267.951197 
L 312.91104 268.553227 
L 313.303331 270.218668 
L 314.031098 273.279859 
L 314.271884 273.656391 
L 314.33952 273.500052 
L 314.407156 272.917397 
L 314.980713 266.011687 
L 315.159273 265.896617 
L 315.164684 265.899626 
L 315.313484 265.93126 
L 315.340538 265.882943 
L 315.535331 265.705872 
L 315.554269 265.719078 
L 315.657076 265.757284 
L 315.694953 265.699831 
L 315.895156 265.108929 
L 316.444364 262.415576 
L 316.606691 262.234244 
L 316.625629 262.24456 
L 316.760902 262.479918 
L 317.456204 264.678913 
L 317.945891 267.726649 
L 318.11904 268.824166 
L 318.183971 268.619338 
L 318.495098 267.648033 
L 318.53568 267.405172 
L 319.212044 261.257994 
L 319.471767 259.964926 
L 319.566458 259.947043 
L 319.598924 259.983079 
L 319.758545 260.401395 
L 320.075084 261.983488 
L 320.810967 267.070237 
L 321.36288 270.746569 
L 321.400756 270.589491 
L 321.825513 266.544037 
L 322.290851 261.250624 
L 322.361193 261.242084 
L 322.399069 261.291827 
L 322.555985 261.79747 
L 322.891462 263.799773 
L 323.692276 269.334553 
L 323.754502 269.062292 
L 324.065629 267.764794 
L 324.171142 267.851937 
L 324.355113 268.418528 
L 324.752815 270.530009 
L 325.258735 273.014359 
L 325.274967 273.004261 
L 325.38048 272.72178 
L 326.36256 269.348135 
L 326.457251 269.439936 
L 326.795433 269.702934 
L 326.80896 269.680015 
L 326.965876 269.018208 
L 327.082211 267.865911 
L 327.379811 265.568294 
L 327.504262 265.441005 
L 327.536727 265.464567 
L 327.680116 265.777049 
L 327.966895 267.057689 
L 328.075113 267.447975 
L 328.140044 267.398738 
L 328.272611 267.396927 
L 328.286138 267.413575 
L 328.440349 267.811878 
L 328.756887 269.394173 
L 328.913804 270.155616 
L 328.978735 270.047985 
L 329.04096 269.5467 
L 329.465716 265.069232 
L 329.560407 264.99558 
L 329.603695 265.033817 
L 329.801193 265.262058 
L 329.84448 265.157221 
L 330.014924 264.001764 
L 330.271942 261.361615 
L 330.967244 255.949339 
L 331.056524 255.922137 
L 331.0944 255.961802 
L 331.256727 256.376538 
L 331.543505 257.824053 
L 331.938502 259.602346 
L 332.163055 259.963087 
L 332.209047 259.767553 
L 332.512058 258.540451 
L 332.517469 258.541568 
L 332.617571 258.687184 
L 332.809658 259.476804 
L 333.212771 261.118283 
L 333.223593 261.113699 
L 333.274996 260.907395 
L 333.640233 259.14877 
L 333.648349 259.150503 
L 333.753862 259.299704 
L 334.227316 260.747033 
L 334.446458 261.406538 
L 334.48704 261.296989 
L 334.99296 259.625528 
L 335.112 259.771194 
L 335.314909 260.470794 
L 335.926342 262.767678 
L 336.045382 262.795974 
L 336.072436 262.769975 
L 336.205004 262.474662 
L 336.562124 259.071197 
L 337.027462 252.163867 
L 337.170851 251.880867 
L 337.200611 251.898979 
L 337.319651 252.174776 
L 337.625367 252.841942 
L 337.852625 253.008035 
L 337.982487 253.172429 
L 338.166458 253.892769 
L 338.507345 256.336282 
L 338.983505 260.358458 
L 339.080902 260.256094 
L 339.170182 260.301269 
L 339.181004 260.320919 
L 339.332509 260.867057 
L 339.681513 263.177365 
L 341.210095 273.921901 
L 341.6592 275.623721 
L 341.981149 276.674302 
L 342.010909 276.661571 
L 342.132655 276.472163 
L 342.776553 272.146432 
L 342.933469 272.010401 
L 342.952407 272.021001 
L 343.101207 272.258761 
L 343.331171 272.757953 
L 343.398807 272.688571 
L 343.699113 272.447495 
L 343.86144 272.677621 
L 344.12928 273.429593 
L 344.175273 273.098868 
L 344.562153 269.610459 
L 344.713658 268.626503 
L 345.192524 265.704825 
L 345.28992 265.687337 
L 345.31968 265.720287 
L 345.476596 266.129092 
L 345.785018 267.685532 
L 346.042036 268.606711 
L 346.047447 268.604567 
L 346.115084 268.422801 
L 346.756276 265.790345 
L 346.848262 265.903859 
L 347.037644 266.569685 
L 347.567913 268.811236 
L 347.619316 268.755843 
L 347.773527 267.799231 
L 348.252393 265.600546 
L 348.363316 265.69158 
L 348.674444 266.02382 
L 348.825949 266.077854 
L 348.993687 266.485522 
L 349.12896 266.783723 
L 349.185775 266.754712 
L 349.315636 266.56128 
L 349.756625 264.037108 
L 349.786385 264.050937 
L 349.908131 264.296517 
L 350.013644 264.635234 
L 350.08128 264.484568 
L 350.384291 263.945706 
L 350.470865 263.940837 
L 350.500625 263.979054 
L 350.654836 264.440364 
L 351.452945 267.309727 
L 351.50976 267.346588 
L 351.550342 267.262079 
L 351.753251 266.170486 
L 352.207767 262.761162 
L 352.25376 262.792375 
L 352.389033 263.129853 
L 352.545949 263.505021 
L 352.591942 263.450688 
L 352.770502 262.927603 
L 352.976116 262.340805 
L 352.986938 262.344299 
L 353.089745 262.516815 
L 353.300771 263.43303 
L 353.790458 266.793744 
L 354.033949 267.819316 
L 354.036655 267.818927 
L 354.147578 267.682511 
L 354.350487 267.523436 
L 354.364015 267.532775 
L 354.518225 267.80074 
L 354.69408 268.060063 
L 354.740073 268.036633 
L 354.905105 268.079261 
L 355.083665 268.468277 
L 355.386676 269.045004 
L 355.808727 269.097258 
L 356.035985 269.63898 
L 356.401222 270.874876 
L 356.501324 270.770246 
L 356.682589 270.702414 
L 356.690705 270.709308 
L 356.844916 270.999305 
L 357.131695 272.120724 
L 357.867578 275.227787 
L 357.891927 275.217114 
L 358.246342 275.113903 
L 358.457367 275.506174 
L 358.846953 276.796735 
L 359.006575 277.283305 
L 359.063389 277.196822 
L 359.144553 276.711455 
L 359.994065 269.138873 
L 360.426938 267.209291 
L 360.938269 260.403408 
L 361.127651 260.0761 
L 361.184465 259.866836 
L 361.295389 258.599797 
L 362.058327 249.609816 
L 362.250415 248.950998 
L 362.258531 248.952935 
L 362.350516 249.10914 
L 362.585891 250.151311 
L 363.305542 253.089454 
L 363.603142 253.936098 
L 364.639331 258.794226 
L 364.682618 258.719288 
L 364.93152 258.366465 
L 365.055971 258.287174 
L 365.337338 257.959431 
L 365.361687 257.978765 
L 365.40768 258.002396 
L 365.448262 257.917085 
L 365.751273 257.361523 
L 365.873018 257.26336 
L 365.908189 257.295561 
L 366.046167 257.658125 
L 366.327535 259.167441 
L 366.649484 261.203365 
L 366.719825 260.999223 
L 366.903796 259.490498 
L 367.28256 255.500054 
L 367.388073 255.371677 
L 367.428655 255.406765 
L 367.572044 255.798319 
L 367.991389 257.654693 
L 368.432378 260.562885 
L 368.516247 260.042419 
L 369.36576 253.867467 
L 369.498327 253.096359 
L 369.798633 249.243443 
L 370.361367 243.263894 
L 370.542633 242.82158 
L 370.577804 242.848601 
L 370.694138 243.186367 
L 371.327215 246.446765 
L 372.498676 254.510741 
L 373.459113 259.119998 
L 373.840582 260.289224 
L 373.935273 260.129721 
L 374.230167 259.693014 
L 374.362735 259.871333 
L 374.589993 260.646758 
L 374.860538 261.520348 
L 374.884887 261.456472 
L 375.25824 259.577672 
L 375.358342 259.711391 
L 375.471971 260.036877 
L 375.528785 259.832732 
L 375.788509 258.92635 
L 375.802036 258.931126 
L 375.907549 259.11688 
L 376.188916 260.17596 
L 376.27008 259.830313 
L 376.86528 256.177376 
L 377.3712 254.157566 
L 377.409076 254.187093 
L 377.533527 254.539286 
L 378.012393 257.003097 
L 378.066502 257.119401 
L 378.136844 257.071135 
L 378.247767 257.123865 
L 378.250473 257.128565 
L 378.399273 257.618537 
L 379.478749 263.159611 
L 379.800698 265.213083 
L 379.860218 265.040448 
L 380.363433 263.265756 
L 380.471651 263.37278 
L 380.563636 263.538263 
L 380.620451 263.425551 
L 380.896407 262.838538 
L 380.923462 262.854683 
L 381.053324 263.113922 
L 381.304931 264.235022 
L 381.721571 266.786496 
L 381.813556 266.459406 
L 382.046225 264.644383 
L 382.446633 261.244017 
L 382.527796 261.241202 
L 382.562967 261.279926 
L 382.865978 261.834313 
L 383.020189 262.063747 
L 383.05536 261.984869 
L 383.363782 260.865889 
L 383.431418 260.936139 
L 383.593745 261.459798 
L 383.931927 263.474537 
L 384.218705 264.69721 
L 384.559593 265.948778 
L 385.103389 267.989138 
L 385.403695 269.11853 
L 385.474036 268.866892 
L 385.8528 267.342764 
L 385.969135 267.044566 
L 386.420945 264.614931 
L 386.886284 261.466329 
L 387.164945 260.995422 
L 387.292102 261.109069 
L 387.324567 260.939753 
L 387.660044 259.417046 
L 387.933295 258.989724 
L 387.946822 258.996502 
L 388.073978 259.206971 
L 388.298531 260.116211 
L 388.514967 261.300153 
L 388.593425 261.086712 
L 388.736815 260.83391 
L 388.771985 260.861572 
L 388.926196 261.228658 
L 389.775709 263.565992 
L 389.778415 263.564853 
L 389.859578 263.393848 
L 390.089542 262.361812 
L 390.308684 261.837352 
L 390.414196 261.968868 
L 390.603578 262.126613 
L 390.717207 261.97639 
L 391.022924 261.086947 
L 391.049978 261.100555 
L 391.177135 261.344124 
L 391.196073 261.394874 
L 391.250182 261.216716 
L 391.531549 260.323607 
L 391.56672 260.348356 
L 391.693876 260.663678 
L 391.988771 261.822569 
L 392.094284 261.71316 
L 392.28096 261.649082 
L 392.286371 261.653655 
L 392.437876 261.937297 
L 392.992495 263.649044 
L 393.098007 263.46866 
L 393.398313 263.016562 
L 393.476771 262.994013 
L 393.493004 262.929897 
L 393.777076 261.98629 
L 393.809542 262.005327 
L 393.936698 262.283546 
L 394.196422 263.517666 
L 394.4832 264.917581 
L 394.540015 264.888838 
L 394.699636 264.915377 
L 394.853847 265.313391 
L 395.151447 266.84347 
L 395.79264 270.683307 
L 395.88192 270.666076 
L 396.011782 270.794189 
L 396.220102 271.427559 
L 396.682735 273.729935 
L 396.780131 274.129253 
L 396.839651 273.984915 
L 397.345571 272.365879 
L 397.380742 272.386001 
L 397.524131 272.662705 
L 397.824436 273.84931 
L 398.335767 276.332426 
L 398.416931 276.133129 
L 398.487273 275.610137 
L 398.487273 275.610137 
" clip-path="url(#p0c4e585826)" style="fill: none; stroke: #000000; stroke-width: 1.5; stroke-linecap: square"/>
   </g>
   <g id="line2d_17">
    <path d="M 73.832727 280.9728 
L 73.954473 281.238724 
L 74.054575 281.297307 
L 74.095156 281.253917 
L 74.663302 280.249007 
L 75.063709 279.421332 
L 75.290967 279.384211 
L 75.466822 279.333516 
L 76.205411 278.356316 
L 76.337978 277.423407 
L 76.727564 274.77291 
L 76.879069 274.035622 
L 77.149615 272.729941 
L 77.268655 272.709578 
L 77.290298 272.729995 
L 77.468858 273.092819 
L 77.861149 274.520223 
L 78.058647 275.263851 
L 78.123578 275.138224 
L 78.364364 274.743856 
L 78.37248 274.746962 
L 78.513164 274.931836 
L 78.845935 275.363118 
L 78.970385 275.320891 
L 79.121891 274.944679 
L 80.350167 271.058404 
L 80.447564 270.627855 
L 80.964305 267.717864 
L 81.102284 267.751121 
L 81.286255 268.13855 
L 81.435055 268.487542 
L 81.491869 268.404556 
L 82.114124 267.209382 
L 82.252102 267.363138 
L 82.484771 268.052776 
L 82.977164 270.377921 
L 83.025862 270.521208 
L 83.093498 270.407947 
L 83.274764 270.200208 
L 83.296407 270.213786 
L 83.704931 270.696554 
L 83.810444 270.859957 
L 83.840204 270.712549 
L 84.286604 268.335968 
L 84.77088 266.839404 
L 85.09824 265.344077 
L 85.209164 265.372317 
L 85.219985 265.386625 
L 85.279505 265.439575 
L 85.330909 265.355945 
L 85.458065 264.807106 
L 85.758371 263.736194 
L 86.072204 263.362638 
L 86.172305 263.244041 
L 86.432029 262.335511 
L 87.500684 255.736333 
L 88.131055 254.509679 
L 88.244684 254.639007 
L 88.442182 255.303442 
L 89.440495 260.2899 
L 89.713745 261.250301 
L 89.729978 261.234855 
L 89.827375 260.839401 
L 90.181789 259.54184 
L 90.303535 259.601646 
L 90.479389 260.053492 
L 90.933905 261.258072 
L 91.071884 261.445104 
L 91.293731 262.241758 
L 92.037731 265.16958 
L 92.327215 266.17271 
L 92.467898 266.513881 
L 92.513891 266.483418 
L 92.77632 266.38708 
L 92.922415 266.309315 
L 93.360698 265.205882 
L 93.458095 265.258436 
L 93.560902 265.074017 
L 93.763811 264.137122 
L 94.275142 261.632192 
L 94.399593 261.709269 
L 94.675549 262.213923 
L 94.729658 262.013242 
L 95.086778 258.53725 
L 95.411433 255.912606 
L 95.903825 254.484253 
L 96.144611 254.105381 
L 96.282589 254.195444 
L 96.469265 254.675079 
L 96.791215 256.245613 
L 97.040116 257.706867 
L 97.09152 257.378466 
L 97.459462 254.96984 
L 97.648844 254.540907 
L 97.922095 254.024325 
L 98.038429 254.166528 
L 98.238633 254.860472 
L 98.636335 257.213327 
L 99.166604 260.819546 
L 99.23424 260.54151 
L 99.658996 258.470733 
L 99.91872 258.300888 
L 100.06752 258.515871 
L 100.313716 259.218644 
L 100.39488 258.999057 
L 100.941382 257.104915 
L 101.122647 257.118541 
L 101.31744 257.382751 
L 101.444596 257.560882 
L 101.496 257.504633 
L 101.690793 256.998856 
L 101.985687 256.033889 
L 102.083084 255.909077 
L 102.194007 255.442117 
L 102.637702 253.314036 
L 102.643113 253.315189 
L 102.821673 253.478151 
L 103.111156 253.859248 
L 103.173382 253.779231 
L 103.322182 253.357159 
L 103.527796 253.005108 
L 103.538618 253.009275 
L 103.654953 253.189531 
L 103.990429 253.801998 
L 104.006662 253.792544 
L 104.1744 253.522415 
L 104.618095 252.401681 
L 105.310691 248.882735 
L 105.343156 248.901877 
L 105.435142 249.076093 
L 105.481135 248.887318 
L 105.905891 247.14845 
L 105.978938 247.123289 
L 106.01952 247.172733 
L 106.400989 247.977016 
L 106.709411 249.075816 
L 106.758109 249.002783 
L 106.885265 248.417861 
L 107.126051 247.644181 
L 107.131462 247.645706 
L 107.226153 247.800843 
L 107.434473 248.731521 
L 107.916044 251.12082 
L 107.964742 250.954247 
L 108.411142 248.945329 
L 108.543709 248.982214 
L 108.546415 248.986197 
L 108.692509 249.405402 
L 108.968465 251.03525 
L 109.355345 253.032929 
L 109.493324 253.042572 
L 109.506851 252.973318 
L 109.861265 251.083564 
L 109.88832 251.096956 
L 110.015476 251.34659 
L 110.329309 252.55762 
L 110.878516 255.141066 
L 110.935331 254.933551 
L 111.34656 253.034914 
L 111.454778 253.146144 
L 111.64416 253.763611 
L 111.901178 254.394015 
L 112.136553 255.198142 
L 112.550487 257.586089 
L 112.823738 258.653327 
L 113.435171 260.008659 
L 113.646196 260.121695 
L 113.675956 259.980287 
L 114.230575 255.664919 
L 114.493004 253.517329 
L 115.071971 251.638797 
L 115.485905 249.455782 
L 115.580596 249.492992 
L 115.594124 249.514406 
L 115.75104 249.736784 
L 115.783505 249.638108 
L 116.040524 248.668688 
L 116.083811 248.706997 
L 116.213673 249.114672 
L 116.944145 252.959715 
L 117.285033 254.59688 
L 117.404073 254.733404 
L 117.458182 254.625275 
L 117.582633 253.988644 
L 117.818007 253.038659 
L 117.909993 253.146463 
L 118.085847 253.831435 
L 118.291462 254.546299 
L 118.329338 254.512886 
L 118.478138 254.053058 
L 118.686458 253.729121 
L 118.691869 253.730903 
L 118.881251 253.921283 
L 119.111215 254.440293 
L 119.419636 255.830299 
L 119.76864 257.449368 
L 119.811927 257.381821 
L 119.930967 256.74554 
L 120.396305 254.000294 
L 120.850822 253.258969 
L 120.907636 252.991669 
L 121.670575 248.255573 
L 121.776087 248.323404 
L 121.94112 248.838061 
L 122.157556 249.621524 
L 122.206255 249.502921 
L 122.311767 248.539266 
L 122.828509 242.306117 
L 123.163985 240.468158 
L 123.33984 240.157021 
L 123.361484 240.167897 
L 123.475113 240.39567 
L 123.558982 240.596059 
L 123.618502 240.492345 
L 123.805178 240.171321 
L 123.843055 240.19688 
L 124.154182 240.322371 
L 124.2624 240.313378 
L 124.286749 240.346538 
L 124.419316 240.786414 
L 124.957702 243.984263 
L 125.460916 246.888939 
L 125.696291 247.241674 
L 126.072349 247.882849 
L 126.461935 248.517048 
L 126.529571 248.411475 
L 126.778473 248.056144 
L 126.800116 248.06936 
L 126.938095 248.323499 
L 127.581993 250.269357 
L 127.695622 250.127361 
L 127.80384 250.119778 
L 127.828189 250.149426 
L 127.979695 250.568537 
L 128.223185 251.317422 
L 128.274589 251.280607 
L 128.739927 250.833043 
L 128.783215 250.884949 
L 128.877905 250.983702 
L 128.907665 250.885279 
L 129.267491 249.280423 
L 129.316189 249.31714 
L 129.535331 249.427498 
L 129.657076 249.550112 
L 129.835636 250.163079 
L 130.896175 254.635473 
L 130.909702 254.628705 
L 130.934051 254.536024 
L 131.074735 253.146017 
L 131.448087 249.676504 
L 131.648291 248.635521 
L 132.367942 245.95867 
L 132.378764 245.962179 
L 132.484276 245.891421 
L 132.722356 245.534296 
L 132.754822 245.558329 
L 132.900916 245.864365 
L 133.171462 247.056276 
L 133.228276 247.335619 
L 133.282385 247.067082 
L 133.596218 245.381604 
L 133.598924 245.381963 
L 133.688204 245.509127 
L 133.869469 246.285047 
L 134.613469 249.88167 
L 134.85696 250.704677 
L 135.176204 252.272302 
L 135.241135 251.946268 
L 135.820102 248.299005 
L 135.917498 247.921016 
L 136.185338 247.126247 
L 136.326022 247.180569 
L 136.550575 247.171392 
L 136.669615 246.786853 
L 137.102487 243.840748 
L 137.126836 243.851273 
L 137.23776 244.080261 
L 137.456902 245.172717 
L 138.052102 248.263121 
L 138.330764 249.418361 
L 138.506618 250.084659 
L 138.563433 250.059576 
L 138.712233 250.110552 
L 138.925964 250.60374 
L 139.047709 250.754463 
L 139.096407 250.712394 
L 139.38048 250.205351 
L 139.659142 249.526776 
L 139.664553 249.528514 
L 139.902633 249.520163 
L 139.905338 249.513019 
L 140.202938 248.603745 
L 140.294924 248.737683 
L 140.484305 249.511382 
L 140.900945 251.161969 
L 141.141731 252.270124 
L 142.218502 257.83579 
L 142.756887 260.007435 
L 142.878633 260.311266 
L 142.92192 260.255306 
L 143.084247 259.563298 
L 143.327738 258.986344 
L 143.449484 259.074227 
L 143.649687 259.592291 
L 143.839069 260.036939 
L 143.885062 260.009825 
L 144.069033 259.729802 
L 144.315229 259.446827 
L 144.453207 259.617241 
L 144.693993 260.363759 
L 144.929367 261.226021 
L 144.994298 261.115931 
L 145.562444 259.220481 
L 145.816756 258.632425 
L 145.941207 258.718864 
L 146.149527 259.242429 
L 146.206342 259.290054 
L 146.260451 259.218619 
L 146.425484 258.666741 
L 146.644625 256.218811 
L 147.142429 251.730351 
L 147.299345 251.496682 
L 147.320989 251.50752 
L 147.429207 251.58209 
L 147.4752 251.486422 
L 147.948655 250.264245 
L 148.032524 250.370251 
L 148.216495 251.003453 
L 148.500567 252.093021 
L 148.549265 252.017967 
L 148.75488 251.124334 
L 149.044364 249.757287 
L 149.182342 249.6493 
L 149.209396 249.669542 
L 149.347375 249.965157 
L 149.525935 250.625977 
L 149.598982 250.416636 
L 149.810007 249.933275 
L 149.828945 249.938662 
L 149.929047 249.849063 
L 150.248291 249.321282 
L 150.288873 249.355655 
L 150.437673 249.712443 
L 150.713629 251.083819 
L 151.430575 254.772839 
L 151.601018 254.813153 
L 151.757935 254.933071 
L 151.963549 255.473882 
L 152.353135 257.264891 
L 152.92128 259.929049 
L 152.959156 259.890486 
L 153.105251 259.402561 
L 153.343331 257.86255 
L 154.065687 253.130903 
L 154.192844 253.098779 
L 154.211782 253.11519 
L 154.73664 253.478957 
L 154.847564 253.373083 
L 155.169513 252.683668 
L 155.402182 252.174384 
L 155.521222 252.058893 
L 155.826938 251.724033 
L 156.286865 251.244244 
L 156.570938 251.20995 
L 156.733265 251.25168 
L 156.906415 251.6175 
L 157.209425 252.893895 
L 158.107636 257.91932 
L 158.215855 257.483543 
L 158.57568 256.00367 
L 158.748829 255.95246 
L 158.919273 256.214644 
L 159.219578 257.172036 
L 160.163782 260.778886 
L 160.223302 260.656791 
L 160.404567 259.672793 
L 160.940247 252.684531 
L 161.735651 240.907917 
L 161.822225 241.004184 
L 161.87904 241.030309 
L 161.916916 240.951462 
L 162.081949 240.000472 
L 162.333556 238.540433 
L 162.336262 238.540708 
L 162.412015 238.667601 
L 162.506705 238.839615 
L 162.552698 238.747264 
L 162.777251 238.168861 
L 162.825949 238.220058 
L 163.126255 238.99973 
L 163.339985 240.196287 
L 163.900015 243.526488 
L 164.257135 243.502693 
L 164.346415 243.351861 
L 164.790109 241.889639 
L 165.025484 241.181536 
L 165.120175 241.310931 
L 165.296029 242.059139 
L 165.650444 244.756601 
L 166.251055 249.082067 
L 166.708276 250.560106 
L 166.90848 250.725019 
L 167.119505 251.304026 
L 167.495564 253.127255 
L 167.574022 253.518849 
L 167.628131 253.255122 
L 167.993367 251.247493 
L 168.193571 250.023511 
L 168.420829 247.318558 
L 168.867229 241.63497 
L 169.356916 238.965761 
L 169.435375 238.966917 
L 169.465135 239.00864 
L 169.608524 239.489572 
L 169.887185 241.375666 
L 170.325469 244.089136 
L 170.528378 244.633254 
L 170.587898 244.483079 
L 170.809745 242.936544 
L 171.061353 242.064202 
L 171.239913 241.942076 
L 171.250735 241.94919 
L 171.369775 242.05335 
L 171.413062 241.933187 
L 171.732305 240.978564 
L 171.764771 240.997049 
L 171.813469 241.017293 
L 171.851345 240.930176 
L 172.157062 240.139771 
L 172.200349 240.171864 
L 172.232815 240.185669 
L 172.273396 240.087989 
L 172.616989 238.905596 
L 172.684625 238.979414 
L 172.836131 239.513788 
L 173.133731 241.560223 
L 173.661295 245.006752 
L 173.99136 246.427383 
L 174.086051 246.82659 
L 174.150982 246.696612 
L 174.321425 246.42766 
L 174.353891 246.452626 
L 174.483753 246.776731 
L 175.214225 249.056744 
L 175.327855 248.903556 
L 175.50912 248.306268 
L 175.936582 245.54541 
L 176.109731 245.406755 
L 176.40192 245.432961 
L 176.577775 245.949617 
L 176.897018 247.729707 
L 177.451636 251.374523 
L 177.521978 251.167141 
L 178.060364 247.979728 
L 178.314676 246.296325 
L 178.517585 245.763512 
L 178.66368 245.550066 
L 178.696145 245.574538 
L 178.823302 245.894485 
L 179.085731 247.306399 
L 179.294051 248.386102 
L 179.356276 248.348716 
L 179.491549 248.374935 
L 179.49696 248.382738 
L 179.648465 248.812257 
L 179.948771 249.97573 
L 180.040756 249.947394 
L 180.170618 250.054683 
L 180.362705 250.613576 
L 180.679244 251.595381 
L 180.71712 251.560138 
L 181.266327 250.547018 
L 181.688378 249.023229 
L 181.883171 248.67704 
L 182.483782 244.178262 
L 182.803025 241.627974 
L 183.168262 240.327225 
L 183.295418 240.376912 
L 183.433396 240.390227 
L 183.446924 240.374498 
L 183.525382 240.065525 
L 183.706647 238.058236 
L 184.234211 231.865172 
L 184.472291 231.029448 
L 184.575098 231.102077 
L 184.732015 231.624816 
L 185.235229 233.716712 
L 185.278516 233.680734 
L 185.405673 233.342837 
L 185.708684 232.585174 
L 185.862895 232.66026 
L 186.095564 233.15743 
L 186.409396 234.151218 
L 186.49056 233.823346 
L 186.744873 231.278754 
L 187.091171 228.708768 
L 187.218327 228.582838 
L 187.250793 228.600375 
L 187.708015 229.029949 
L 187.975855 229.376649 
L 187.989382 229.356759 
L 188.081367 228.828774 
L 189.4368 217.764776 
L 189.742516 209.857573 
L 189.907549 199.305175 
L 189.999535 176.73798 
L 190.059055 88.087714 
L 190.123985 163.712408 
L 190.278196 218.395567 
L 190.483811 231.969453 
L 190.919389 240.9207 
L 191.141236 242.652873 
L 191.168291 242.586308 
L 191.319796 241.395226 
L 191.590342 239.959727 
L 191.744553 239.655288 
L 191.933935 238.372187 
L 193.451695 222.022384 
L 193.743884 214.538022 
L 194.000902 203.947481 
L 194.119942 188.251455 
L 194.176756 142.1218 
L 194.209222 91.317437 
L 194.274153 169.226264 
L 194.428364 220.101352 
L 194.620451 230.570181 
L 195.142604 239.105761 
L 195.451025 241.735966 
L 195.624175 242.125937 
L 195.651229 242.108495 
L 195.800029 241.795028 
L 195.989411 240.759186 
L 196.665775 236.29665 
L 196.865978 234.124324 
L 197.756073 223.53538 
L 198.151069 219.976984 
L 198.459491 214.097621 
L 198.656989 205.189231 
L 198.776029 188.736315 
L 198.827433 143.28067 
L 198.859898 83.100228 
L 198.927535 167.760887 
L 199.081745 222.806899 
L 199.271127 233.274037 
L 199.652596 238.723712 
L 200.41824 249.325109 
L 200.778065 251.464556 
L 200.970153 251.991654 
L 201.010735 251.932375 
L 201.137891 251.271963 
L 201.454429 248.380102 
L 201.998225 244.396915 
L 202.136204 243.315971 
L 203.24544 230.599064 
L 203.867695 223.070787 
L 204.100364 221.259893 
L 204.598167 211.891541 
L 204.82272 204.83878 
L 204.976931 192.371616 
L 205.055389 164.772292 
L 205.106793 109.068499 
L 205.163607 165.699165 
L 205.320524 211.0867 
L 205.518022 220.88918 
L 205.831855 225.177174 
L 206.394589 230.24226 
L 206.654313 230.746436 
L 206.78688 230.92529 
L 206.957324 231.674029 
L 207.130473 232.532201 
L 207.187287 232.411726 
L 207.273862 231.653299 
L 207.974575 223.995524 
L 208.237004 223.18961 
L 208.594124 221.840385 
L 208.81056 221.361103 
L 208.813265 221.36175 
L 208.918778 221.50553 
L 209.13792 222.34549 
L 209.725004 223.926267 
L 209.890036 223.817482 
L 210.155171 222.055812 
L 210.395956 221.294689 
L 210.485236 221.41089 
L 210.634036 222.101566 
L 210.891055 224.566017 
L 211.881251 235.278866 
L 212.016524 235.349184 
L 212.051695 235.310881 
L 212.178851 234.962284 
L 212.327651 233.86503 
L 212.860625 228.509119 
L 213.628975 223.380924 
L 213.726371 223.490066 
L 213.888698 224.137961 
L 214.418967 227.730707 
L 214.638109 228.900677 
L 214.689513 228.830287 
L 215.352349 227.503176 
L 215.460567 227.497617 
L 215.484916 227.527156 
L 215.628305 227.935222 
L 215.860975 229.396659 
L 216.304669 233.984302 
L 216.748364 237.839395 
L 216.926924 238.20888 
L 217.045964 238.122324 
L 217.17312 236.79214 
L 217.546473 233.512028 
L 217.765615 233.061313 
L 217.88736 233.165105 
L 218.128145 233.80637 
L 218.853207 236.264751 
L 219.13728 237.026748 
L 219.46464 237.836733 
L 219.710836 238.665447 
L 219.783884 238.542965 
L 220.154531 237.827546 
L 220.165353 237.832403 
L 220.303331 238.029939 
L 220.541411 238.853901 
L 220.738909 239.233206 
L 220.876887 239.119524 
L 221.01216 238.378514 
L 221.693935 231.689969 
L 221.929309 230.067087 
L 222.318895 223.401022 
L 222.819404 207.546183 
L 223.011491 195.003934 
L 223.103476 170.709116 
L 223.160291 108.47061 
L 223.217105 164.669675 
L 223.374022 213.665906 
L 223.579636 225.560268 
L 224.109905 237.328151 
L 224.778153 247.437637 
L 225.075753 249.64121 
L 225.551913 251.885297 
L 225.687185 252.077354 
L 225.725062 252.035037 
L 225.83328 251.588541 
L 225.98208 249.918431 
L 226.433891 244.755585 
L 226.625978 244.459562 
L 226.891113 244.420989 
L 227.367273 245.312634 
L 227.616175 246.155415 
L 227.764975 246.485517 
L 227.789324 246.435506 
L 228.116684 245.166118 
L 228.211375 245.293824 
L 228.400756 246.025572 
L 228.811985 248.278657 
L 228.901265 248.022686 
L 229.328727 246.599619 
L 229.477527 246.613535 
L 229.64256 246.958814 
L 229.926633 248.170874 
L 230.887069 252.681457 
L 231.073745 253.221577 
L 231.13056 253.029387 
L 231.777164 250.505835 
L 232.415651 249.294615 
L 232.79712 247.685742 
L 232.94592 246.600902 
L 233.817076 237.038111 
L 233.909062 237.068795 
L 233.925295 237.093614 
L 234.547549 238.382193 
L 234.753164 238.981371 
L 234.804567 238.896191 
L 234.885731 238.24779 
L 235.627025 230.397391 
L 235.716305 230.418962 
L 235.737949 230.451148 
L 235.902982 230.96182 
L 236.065309 231.29222 
L 236.095069 231.276719 
L 236.192465 231.068224 
L 236.633455 229.153742 
L 236.803898 229.05813 
L 236.822836 229.074439 
L 236.949993 229.368687 
L 237.161018 230.556562 
L 237.783273 236.053181 
L 239.033193 245.144331 
L 239.322676 246.300617 
L 239.368669 246.273887 
L 239.558051 246.262121 
L 239.714967 246.63509 
L 240.715985 249.882029 
L 240.761978 249.817799 
L 240.886429 249.261211 
L 241.324713 247.166307 
L 241.714298 246.002503 
L 241.787345 246.054919 
L 242.279738 246.576235 
L 242.561105 247.783666 
L 242.939869 249.209132 
L 243.037265 249.424842 
L 243.09408 249.300604 
L 243.294284 248.936406 
L 243.321338 248.952321 
L 243.448495 249.21131 
L 243.889484 250.213671 
L 244.151913 251.144185 
L 244.371055 251.616753 
L 244.541498 251.770955 
L 244.752524 252.378073 
L 245.109644 253.316805 
L 245.482996 253.95024 
L 245.867171 255.302862 
L 246.026793 255.971977 
L 246.083607 255.754046 
L 246.36768 254.74961 
L 246.475898 254.876582 
L 246.689629 255.591356 
L 247.222604 258.365509 
L 247.704175 260.444827 
L 247.815098 260.333327 
L 247.993658 259.718948 
L 248.307491 258.896612 
L 248.458996 258.930292 
L 248.607796 259.01781 
L 248.637556 258.951844 
L 248.791767 258.054252 
L 249.708916 252.918435 
L 249.882065 252.685613 
L 250.220247 251.369009 
L 250.458327 250.907788 
L 250.677469 250.984639 
L 250.86144 251.179684 
L 251.343011 251.848984 
L 251.39712 251.78514 
L 251.740713 251.408706 
L 251.75424 251.418113 
L 251.911156 251.682615 
L 252.057251 252.060948 
L 252.103244 251.876651 
L 252.222284 249.931501 
L 252.582109 242.672938 
L 252.725498 242.242204 
L 252.755258 242.261078 
L 252.863476 242.557119 
L 253.096145 243.994169 
L 253.583127 247.618856 
L 253.650764 247.439169 
L 253.826618 247.056033 
L 253.859084 247.078963 
L 253.978124 247.392279 
L 254.273018 248.929097 
L 254.429935 248.731041 
L 254.527331 248.819566 
L 254.746473 249.206495 
L 254.792465 249.117614 
L 255.098182 247.802082 
L 255.382255 246.457862 
L 255.476945 246.536137 
L 255.639273 247.108773 
L 256.066735 248.645537 
L 256.315636 249.270145 
L 256.645702 250.854645 
L 257.411345 255.968958 
L 257.511447 256.397859 
L 257.568262 256.295496 
L 257.928087 255.522988 
L 257.952436 255.535431 
L 258.103942 255.772517 
L 258.228393 256.03295 
L 258.279796 255.911541 
L 258.65856 254.737718 
L 258.691025 254.75508 
L 258.834415 255.017245 
L 258.929105 255.095051 
L 258.975098 255.068444 
L 259.150953 255.087585 
L 259.321396 255.460509 
L 259.637935 256.814034 
L 259.976116 258.18204 
L 260.005876 258.136969 
L 260.124916 257.46215 
L 260.517207 253.041561 
L 260.833745 250.233732 
L 260.996073 249.962029 
L 261.015011 249.970636 
L 261.139462 250.187048 
L 261.244975 250.499071 
L 261.315316 250.35062 
L 261.458705 250.164151 
L 261.491171 250.190256 
L 261.621033 250.519699 
L 261.894284 251.966395 
L 263.953135 264.448762 
L 264.128989 264.840577 
L 264.177687 264.713673 
L 264.369775 263.25642 
L 265.078604 258.563892 
L 265.373498 258.180868 
L 265.514182 258.33524 
L 265.784727 259.076585 
L 265.882124 259.232511 
L 265.928116 259.133627 
L 266.076916 258.115502 
L 266.577425 254.575235 
L 266.742458 254.211984 
L 266.942662 253.781608 
L 266.956189 253.786989 
L 267.069818 253.979933 
L 267.294371 254.921851 
L 267.827345 258.374261 
L 268.325149 261.097735 
L 268.327855 261.097201 
L 268.409018 260.959205 
L 268.71744 259.629988 
L 268.950109 259.253241 
L 269.090793 259.350511 
L 269.418153 259.625241 
L 269.713047 259.620881 
L 269.769862 259.62777 
L 269.810444 259.560863 
L 270.105338 259.17805 
L 270.110749 259.180882 
L 270.251433 259.19921 
L 270.275782 259.151528 
L 270.47328 258.475025 
L 270.992727 255.004861 
L 271.739433 250.499199 
L 272.072204 248.003886 
L 272.399564 247.402408 
L 272.421207 247.41574 
L 272.697164 247.64707 
L 272.743156 247.548951 
L 272.983942 246.413268 
L 273.205789 246.021256 
L 273.208495 246.022134 
L 273.365411 245.96394 
L 273.511505 245.832081 
L 273.543971 245.86166 
L 273.676538 246.214423 
L 273.928145 247.661288 
L 274.517935 252.70992 
L 274.964335 255.914292 
L 274.977862 255.890837 
L 275.069847 255.170675 
L 275.448611 252.532817 
L 275.567651 252.429694 
L 275.602822 252.458791 
L 275.743505 252.797079 
L 276.016756 254.158265 
L 276.287302 255.620322 
L 276.352233 255.53994 
L 276.541615 255.352336 
L 276.565964 255.371151 
L 276.790516 255.442806 
L 276.942022 255.504899 
L 277.10976 255.928964 
L 277.220684 256.344058 
L 277.274793 256.119475 
L 277.653556 254.382496 
L 277.756364 254.501816 
L 277.999855 254.771816 
L 278.167593 255.005859 
L 278.392145 255.805728 
L 280.6512 265.902106 
L 281.121949 266.886765 
L 281.165236 266.842527 
L 281.587287 266.313114 
L 281.619753 266.339413 
L 282.085091 266.640482 
L 282.225775 266.572453 
L 282.366458 266.255542 
L 283.500044 257.738342 
L 283.843636 255.101181 
L 283.976204 254.947986 
L 284.008669 254.970123 
L 284.146647 255.27036 
L 284.417193 256.521869 
L 284.514589 256.993445 
L 284.582225 256.822501 
L 284.752669 256.493629 
L 284.785135 256.516481 
L 284.896058 256.710792 
L 284.958284 256.55284 
L 285.177425 256.200888 
L 285.261295 256.065135 
L 285.458793 255.803622 
L 285.483142 255.816799 
L 285.572422 255.838545 
L 285.602182 255.77014 
L 285.970124 254.733655 
L 286.032349 254.78859 
L 286.191971 255.21154 
L 286.494982 256.775898 
L 287.414836 262.494819 
L 287.512233 262.436025 
L 287.609629 262.193705 
L 287.847709 260.816969 
L 288.285993 258.295714 
L 288.399622 258.220017 
L 288.434793 258.249225 
L 288.583593 258.593571 
L 289.200436 260.359657 
L 289.219375 260.347328 
L 289.527796 260.052167 
L 289.587316 260.141046 
L 289.784815 260.772158 
L 290.1744 261.951954 
L 290.271796 262.072932 
L 290.320495 261.959136 
L 290.658676 261.198409 
L 290.661382 261.199252 
L 290.791244 261.360079 
L 290.969804 261.788611 
L 291.053673 261.657133 
L 291.129425 261.24356 
L 291.332335 258.551 
L 291.646167 255.660592 
L 291.803084 255.391509 
L 291.827433 255.403647 
L 291.949178 255.635298 
L 292.187258 256.683146 
L 292.549789 258.077423 
L 292.668829 258.2856 
L 292.890676 259.261153 
L 293.266735 261.037264 
L 293.310022 260.990124 
L 293.577862 260.561856 
L 293.629265 260.611432 
L 294.159535 261.393427 
L 294.219055 261.264423 
L 294.568058 260.418871 
L 294.586996 260.427553 
L 294.75744 260.665672 
L 294.830487 260.660613 
L 294.862953 260.612116 
L 295.14432 259.857927 
L 295.744931 256.845786 
L 295.966778 256.517429 
L 296.031709 256.340814 
L 296.797353 252.59654 
L 297.07872 250.992305 
L 297.373615 250.414707 
L 297.58464 248.258625 
L 297.957993 245.14415 
L 297.963404 245.145056 
L 298.047273 245.287667 
L 298.220422 246.166856 
L 298.493673 247.261781 
L 298.729047 248.496894 
L 298.969833 249.370059 
L 299.083462 249.636191 
L 299.491985 250.749263 
L 299.494691 250.748418 
L 299.556916 250.584953 
L 300.162938 248.054624 
L 300.257629 248.101736 
L 300.457833 248.008289 
L 300.487593 248.05635 
L 300.647215 248.616119 
L 300.906938 249.234524 
L 301.142313 249.829195 
L 301.434502 251.340953 
L 301.786211 253.300118 
L 301.832204 253.196632 
L 301.970182 252.089189 
L 302.446342 247.508408 
L 302.538327 247.491831 
L 302.570793 247.528822 
L 302.722298 247.952554 
L 303.00096 249.534605 
L 303.339142 251.574454 
L 303.395956 251.517178 
L 303.606982 251.307302 
L 303.636742 251.335033 
L 303.777425 251.685507 
L 304.045265 253.090823 
L 304.951593 258.238146 
L 305.122036 258.510696 
L 305.168029 258.375787 
L 305.546793 257.238753 
L 305.671244 256.817491 
L 305.930967 256.188608 
L 306.041891 256.311838 
L 306.090589 256.393543 
L 306.144698 256.273618 
L 306.328669 255.957851 
L 306.358429 255.978733 
L 306.599215 256.261019 
L 306.628975 256.123639 
L 307.324276 251.979625 
L 307.389207 251.748159 
L 307.754444 250.363123 
L 308.046633 249.763249 
L 308.116975 249.844389 
L 308.287418 250.384457 
L 308.622895 252.34628 
L 308.934022 253.724726 
L 309.117993 254.242373 
L 309.42912 255.406374 
L 309.494051 255.300264 
L 309.90528 254.359606 
L 309.945862 254.386108 
L 310.100073 254.686432 
L 310.400378 255.212624 
L 310.573527 255.535918 
L 310.841367 256.638089 
L 311.447389 260.332046 
L 311.72064 261.525271 
L 311.739578 261.513231 
L 311.882967 261.191851 
L 311.974953 260.641286 
L 312.280669 259.114449 
L 312.456524 259.071383 
L 312.67296 259.263712 
L 312.913745 259.836933 
L 313.29792 261.43924 
L 314.036509 264.509344 
L 314.274589 264.882901 
L 314.342225 264.734 
L 314.407156 264.191199 
L 314.99424 257.43164 
L 315.161978 257.349718 
L 315.170095 257.355118 
L 315.310778 257.405614 
L 315.345949 257.351245 
L 315.52992 257.21885 
L 315.546153 257.230982 
L 315.667898 257.286333 
L 315.70848 257.229036 
L 315.900567 256.687963 
L 316.430836 254.193447 
L 316.595869 253.999019 
L 316.614807 254.008779 
L 316.747375 254.235895 
L 317.402095 256.308058 
L 317.845789 258.928574 
L 318.11904 260.680536 
L 318.186676 260.477541 
L 318.508625 259.495145 
L 318.716945 258.946103 
L 318.990196 258.649998 
L 319.120058 258.35018 
L 319.539404 256.284367 
L 319.653033 256.365218 
L 319.839709 256.881907 
L 320.213062 258.706422 
L 321.403462 265.537377 
L 321.500858 265.414585 
L 321.790342 264.609935 
L 321.901265 263.04282 
L 322.236742 258.961732 
L 322.390953 258.66762 
L 322.412596 258.678188 
L 322.534342 258.907767 
L 322.783244 259.968841 
L 323.435258 264.0202 
L 323.686865 265.127715 
L 323.708509 265.071057 
L 323.914124 263.599794 
L 324.133265 262.98623 
L 324.2496 263.07259 
L 324.447098 263.611063 
L 324.87456 265.57384 
L 325.245207 266.955466 
L 325.253324 266.952234 
L 325.329076 266.76697 
L 326.054138 263.641938 
L 326.319273 262.549022 
L 326.459956 262.561244 
L 326.990225 262.968336 
L 327.030807 262.79693 
L 327.471796 260.669639 
L 327.482618 260.67223 
L 327.601658 260.82896 
L 327.828916 261.595086 
L 328.066996 262.588336 
L 328.14816 262.490876 
L 328.294255 262.422493 
L 328.315898 262.441846 
L 328.467404 262.769789 
L 328.778531 264.106986 
L 328.905687 264.631323 
L 328.967913 264.507683 
L 329.043665 263.891418 
L 329.473833 259.082242 
L 329.603695 258.948638 
L 329.633455 258.96339 
L 329.803898 259.024129 
L 329.830953 258.953247 
L 329.968931 258.021076 
L 331.00512 250.379277 
L 331.021353 250.384393 
L 331.140393 250.566404 
L 331.367651 251.414287 
L 332.073775 254.325306 
L 332.160349 254.417422 
L 332.190109 254.317569 
L 332.536407 252.840019 
L 332.576989 252.865995 
L 332.706851 253.175151 
L 333.23712 255.177333 
L 333.310167 254.911612 
L 333.613178 253.831403 
L 333.718691 253.937472 
L 334.046051 254.835225 
L 334.443753 255.946663 
L 334.511389 255.697007 
L 334.965905 253.838305 
L 335.087651 253.851403 
L 335.098473 253.864296 
L 335.2608 254.254921 
L 335.5584 255.677357 
L 335.791069 256.383019 
L 336.050793 256.40083 
L 336.207709 255.993479 
L 336.591884 252.162412 
L 337.005818 246.241132 
L 337.173556 245.8403 
L 337.192495 245.848929 
L 337.300713 246.061847 
L 337.687593 246.909403 
L 337.882385 246.984719 
L 338.012247 247.205418 
L 338.212451 248.099435 
L 338.607447 251.12452 
L 339.09984 254.460494 
L 339.24864 254.922149 
L 339.559767 256.822779 
L 341.288553 268.308805 
L 341.9568 271.269973 
L 342.083956 271.182622 
L 342.138065 270.99074 
L 342.67104 267.244706 
L 342.890182 266.894123 
L 343.02816 267.011626 
L 343.32576 267.587676 
L 343.423156 267.44057 
L 343.726167 267.076692 
L 343.880378 267.224138 
L 344.123869 267.769818 
L 344.167156 267.516318 
L 344.643316 263.226997 
L 345.246633 259.365381 
L 345.360262 259.422498 
L 345.530705 259.887976 
L 346.039331 261.925338 
L 346.120495 261.698325 
L 346.769804 258.903081 
L 346.848262 258.983084 
L 347.024116 259.525969 
L 347.559796 261.673948 
L 347.624727 261.587092 
L 347.846575 260.182574 
L 348.225338 258.369061 
L 348.333556 258.379167 
L 348.352495 258.402514 
L 348.701498 258.706721 
L 348.842182 258.779371 
L 349.018036 259.22613 
L 349.12896 259.42823 
L 349.180364 259.401428 
L 349.315636 259.204002 
L 349.764742 256.6822 
L 349.797207 256.699447 
L 349.921658 256.960567 
L 350.013644 257.246459 
L 350.08128 257.104568 
L 350.224669 256.897166 
L 350.262545 256.929658 
L 350.395113 257.299001 
L 350.681891 258.92299 
L 351.190516 261.60891 
L 351.498938 262.187312 
L 351.512465 262.176639 
L 351.590924 261.890077 
L 351.829004 259.939737 
L 352.126604 257.305739 
L 352.248349 257.157375 
L 352.28352 257.183434 
L 352.421498 257.50567 
L 352.627113 257.78737 
L 352.708276 257.89393 
L 352.756975 257.783563 
L 352.943651 257.455557 
L 352.973411 257.475627 
L 353.100567 257.76425 
L 353.365702 259.059114 
L 354.015011 262.786111 
L 354.085353 262.704109 
L 354.404596 262.237074 
L 354.431651 262.255558 
L 354.710313 262.644537 
L 354.997091 263.342014 
L 355.389382 264.285031 
L 355.397498 264.282102 
L 355.873658 264.202279 
L 356.100916 264.686941 
L 356.382284 265.501133 
L 356.463447 265.392386 
L 356.71776 265.129366 
L 356.720465 265.130846 
L 356.86656 265.343567 
L 357.131695 266.220631 
L 357.854051 268.926085 
L 357.894633 268.896835 
L 358.257164 268.658969 
L 358.451956 268.952605 
L 358.795549 269.959738 
L 359.003869 270.602482 
L 359.066095 270.505928 
L 359.147258 270.004592 
L 359.999476 262.374789 
L 360.43776 260.301096 
L 360.91392 253.822016 
L 361.108713 253.361223 
L 361.114124 253.362445 
L 361.162822 253.264428 
L 361.265629 252.337173 
L 362.058327 243.090008 
L 362.250415 242.425907 
L 362.258531 242.428159 
L 362.347811 242.584658 
L 362.566953 243.601789 
L 363.329891 246.99126 
L 363.586909 247.791133 
L 364.636625 252.731531 
L 364.688029 252.637669 
L 364.939636 252.25227 
L 365.053265 252.146657 
L 365.353571 251.739673 
L 365.37792 251.757328 
L 365.40768 251.754338 
L 365.442851 251.67714 
L 365.664698 251.19245 
L 365.707985 251.228736 
L 365.843258 251.599873 
L 366.124625 253.177834 
L 366.652189 256.871838 
L 366.736058 256.588232 
L 366.917324 254.883109 
L 367.287971 250.669924 
L 367.425949 250.434254 
L 367.455709 250.453234 
L 367.596393 250.756237 
L 367.942691 252.003913 
L 368.408029 254.778061 
L 368.432378 254.877023 
L 368.483782 254.608157 
L 369.690415 244.099943 
L 370.43712 235.959014 
L 370.569687 235.705616 
L 370.607564 235.737364 
L 370.726604 236.103072 
L 371.346153 239.470722 
L 371.89536 244.936413 
L 372.339055 248.442215 
L 373.391476 253.926546 
L 373.824349 254.958279 
L 373.910924 254.788772 
L 374.284276 254.012097 
L 374.416844 254.166106 
L 374.644102 254.864597 
L 374.855127 255.335385 
L 374.868655 255.317747 
L 374.947113 254.775012 
L 375.236596 253.162774 
L 375.323171 253.160554 
L 375.352931 253.19806 
L 375.471971 253.456313 
L 375.523375 253.261975 
L 375.810153 252.202771 
L 375.820975 252.20609 
L 375.926487 252.375254 
L 376.186211 253.251239 
L 376.259258 252.969577 
L 376.765178 250.201361 
L 376.889629 249.971602 
L 377.203462 248.886682 
L 377.373905 248.433606 
L 377.392844 248.442694 
L 377.498356 248.663536 
L 377.766196 249.935917 
L 378.063796 251.257884 
L 378.136844 251.193529 
L 378.242356 251.199126 
L 378.264 251.22918 
L 378.4128 251.684822 
L 379.581556 257.245708 
L 379.846691 258.742877 
L 379.911622 258.679317 
L 380.165935 258.186811 
L 380.368844 257.845353 
L 380.37696 257.848086 
L 380.498705 258.018054 
L 380.560931 258.119882 
L 380.61504 258.014327 
L 380.928873 257.277075 
L 380.961338 257.296436 
L 381.099316 257.570094 
L 381.367156 258.717885 
L 381.718865 260.682156 
L 381.797324 260.405657 
L 382.038109 258.474214 
L 382.387113 255.600134 
L 382.481804 255.528902 
L 382.522385 255.56662 
L 382.879505 256.226325 
L 383.017484 256.391934 
L 383.052655 256.313394 
L 383.388131 255.044294 
L 383.461178 255.121548 
L 383.631622 255.665701 
L 383.994153 257.74302 
L 384.432436 259.753253 
L 385.122327 262.337759 
L 385.400989 263.250812 
L 385.46592 263.016824 
L 385.909615 261.091696 
L 386.071942 260.268668 
L 387.01344 254.833358 
L 387.159535 254.900078 
L 387.286691 255.139346 
L 387.329978 254.957078 
L 387.66816 253.545146 
L 387.949527 253.094576 
L 387.957644 253.098126 
L 388.0848 253.290624 
L 388.306647 254.139736 
L 388.512262 255.213182 
L 388.59072 254.999827 
L 388.750342 254.698 
L 388.782807 254.720052 
L 388.939724 255.047331 
L 389.469993 256.213038 
L 389.621498 256.590377 
L 389.770298 256.991286 
L 389.821702 256.907706 
L 390.027316 256.050037 
L 390.300567 255.100155 
L 390.408785 255.179767 
L 390.598167 255.296571 
L 390.719913 255.10765 
L 391.036451 254.167685 
L 391.055389 254.175767 
L 391.177135 254.382891 
L 391.196073 254.429137 
L 391.247476 254.262205 
L 391.431447 253.828773 
L 391.458502 253.845284 
L 391.577542 254.120577 
L 391.831855 255.413593 
L 392.005004 256.060557 
L 392.04288 256.040314 
L 392.316131 255.959014 
L 392.486575 256.309964 
L 392.981673 257.683732 
L 393.05472 257.573646 
L 393.804131 255.688124 
L 393.896116 255.811629 
L 394.093615 256.520335 
L 394.477789 258.357405 
L 394.577891 258.28487 
L 394.72128 258.321587 
L 394.880902 258.731373 
L 395.194735 260.301993 
L 395.779113 263.638383 
L 395.860276 263.599387 
L 396.00096 263.660881 
L 396.182225 264.099758 
L 396.552873 265.716222 
L 396.780131 266.764901 
L 396.842356 266.611458 
L 397.353687 264.974595 
L 397.386153 264.992634 
L 397.529542 265.260735 
L 397.824436 266.401717 
L 398.338473 268.873681 
L 398.422342 268.669275 
L 398.487273 268.195996 
L 398.487273 268.195996 
" clip-path="url(#p0c4e585826)" style="fill: none; stroke: #ff0000; stroke-width: 1.5; stroke-linecap: square"/>
   </g>
   <g id="line2d_18">
    <path d="M 87.359887 260.064 
L 90.059908 260.064 
L 90.059908 260.064 
" clip-path="url(#p0c4e585826)" style="fill: none; stroke: #000000; stroke-width: 1.5; stroke-linecap: square"/>
   </g>
   <g id="line2d_19">
    <path d="M 87.359887 231.552 
L 87.359887 229.6512 
L 87.359887 227.7504 
L 87.359887 225.8496 
L 87.359887 223.9488 
L 87.359887 222.048 
L 87.359887 220.1472 
L 87.359887 218.2464 
L 87.359887 216.3456 
L 87.359887 214.4448 
L 87.359887 212.544 
L 87.359887 210.6432 
L 87.359887 208.7424 
L 87.359887 206.8416 
L 87.359887 204.9408 
L 87.359887 203.04 
L 87.359887 201.1392 
L 87.359887 199.2384 
L 87.359887 197.3376 
L 87.359887 195.4368 
" clip-path="url(#p0c4e585826)" style="fill: none; stroke: #000000; stroke-width: 1.5; stroke-linecap: square"/>
   </g>
   <g id="patch_3">
    <path d="M 57.6 307.584 
L 57.6 41.472 
" style="fill: none; stroke: #000000; stroke-width: 0.8; stroke-linejoin: miter; stroke-linecap: square"/>
   </g>
   <g id="patch_4">
    <path d="M 57.6 307.584 
L 414.72 307.584 
" style="fill: none; stroke: #000000; stroke-width: 0.8; stroke-linejoin: miter; stroke-linecap: square"/>
   </g>
   <g id="text_18">
    <!-- 500 ms -->
    <g transform="translate(87.359887 258.1632) scale(0.1 -0.1)">
     <use xlink:href="#DejaVuSans-35"/>
     <use xlink:href="#DejaVuSans-30" x="63.623047"/>
     <use xlink:href="#DejaVuSans-30" x="127.246094"/>
     <use xlink:href="#DejaVuSans-20" x="190.869141"/>
     <use xlink:href="#DejaVuSans-6d" x="222.65625"/>
     <use xlink:href="#DejaVuSans-73" x="320.068359"/>
    </g>
   </g>
   <g id="text_19">
    <!-- 20 mV -->
    <g transform="translate(87.63043 193.536) scale(0.1 -0.1)">
     <use xlink:href="#DejaVuSans-32"/>
     <use xlink:href="#DejaVuSans-30" x="63.623047"/>
     <use xlink:href="#DejaVuSans-20" x="127.246094"/>
     <use xlink:href="#DejaVuSans-6d" x="159.033203"/>
     <use xlink:href="#DejaVuSans-56" x="256.445312"/>
    </g>
   </g>
  </g>
 </g>
 <defs>
  <clipPath id="p0c4e585826">
   <rect x="57.6" y="41.472" width="357.12" height="266.112"/>
  </clipPath>
 </defs>
</svg>
