<?xml version="1.0" encoding="utf-8" standalone="no"?>
<!DOCTYPE svg PUBLIC "-//W3C//DTD SVG 1.1//EN"
  "http://www.w3.org/Graphics/SVG/1.1/DTD/svg11.dtd">
<svg xmlns:xlink="http://www.w3.org/1999/xlink" width="432pt" height="288pt" viewBox="0 0 432 288" xmlns="http://www.w3.org/2000/svg" version="1.1">
 <metadata>
  <rdf:RDF xmlns:dc="http://purl.org/dc/elements/1.1/" xmlns:cc="http://creativecommons.org/ns#" xmlns:rdf="http://www.w3.org/1999/02/22-rdf-syntax-ns#">
   <cc:Work>
    <dc:type rdf:resource="http://purl.org/dc/dcmitype/StillImage"/>
    <dc:date>2022-06-29T17:30:12.438664</dc:date>
    <dc:format>image/svg+xml</dc:format>
    <dc:creator>
     <cc:Agent>
      <dc:title>Matplotlib v3.5.2, https://matplotlib.org/</dc:title>
     </cc:Agent>
    </dc:creator>
   </cc:Work>
  </rdf:RDF>
 </metadata>
 <defs>
  <style type="text/css">*{stroke-linejoin: round; stroke-linecap: butt}</style>
 </defs>
 <g id="figure_1">
  <g id="patch_1">
   <path d="M 0 288 
L 432 288 
L 432 0 
L 0 0 
L 0 288 
z
" style="fill: none"/>
  </g>
  <g id="axes_1">
   <g id="patch_2">
    <path d="M 54 252 
L 388.8 252 
L 388.8 34.56 
L 54 34.56 
z
" style="fill: #ffffff"/>
   </g>
   <g id="matplotlib.axis_1">
    <g id="xtick_1">
     <g id="line2d_1">
      <defs>
       <path id="m95a9072c37" d="M 0 0 
L 0 3.5 
" style="stroke: #000000; stroke-width: 0.8"/>
      </defs>
      <g>
       <use xlink:href="#m95a9072c37" x="69.218182" y="252" style="stroke: #000000; stroke-width: 0.8"/>
      </g>
     </g>
     <g id="text_1">
      <!-- 0 -->
      <g transform="translate(66.036932 266.598437)scale(0.1 -0.1)">
       <defs>
        <path id="DejaVuSans-30" d="M 2034 4250 
Q 1547 4250 1301 3770 
Q 1056 3291 1056 2328 
Q 1056 1369 1301 889 
Q 1547 409 2034 409 
Q 2525 409 2770 889 
Q 3016 1369 3016 2328 
Q 3016 3291 2770 3770 
Q 2525 4250 2034 4250 
z
M 2034 4750 
Q 2819 4750 3233 4129 
Q 3647 3509 3647 2328 
Q 3647 1150 3233 529 
Q 2819 -91 2034 -91 
Q 1250 -91 836 529 
Q 422 1150 422 2328 
Q 422 3509 836 4129 
Q 1250 4750 2034 4750 
z
" transform="scale(0.015625)"/>
       </defs>
       <use xlink:href="#DejaVuSans-30"/>
      </g>
     </g>
    </g>
    <g id="xtick_2">
     <g id="line2d_2">
      <g>
       <use xlink:href="#m95a9072c37" x="119.945032" y="252" style="stroke: #000000; stroke-width: 0.8"/>
      </g>
     </g>
     <g id="text_2">
      <!-- 10000 -->
      <g transform="translate(104.038782 266.598437)scale(0.1 -0.1)">
       <defs>
        <path id="DejaVuSans-31" d="M 794 531 
L 1825 531 
L 1825 4091 
L 703 3866 
L 703 4441 
L 1819 4666 
L 2450 4666 
L 2450 531 
L 3481 531 
L 3481 0 
L 794 0 
L 794 531 
z
" transform="scale(0.015625)"/>
       </defs>
       <use xlink:href="#DejaVuSans-31"/>
       <use xlink:href="#DejaVuSans-30" x="63.623047"/>
       <use xlink:href="#DejaVuSans-30" x="127.246094"/>
       <use xlink:href="#DejaVuSans-30" x="190.869141"/>
       <use xlink:href="#DejaVuSans-30" x="254.492188"/>
      </g>
     </g>
    </g>
    <g id="xtick_3">
     <g id="line2d_3">
      <g>
       <use xlink:href="#m95a9072c37" x="170.671882" y="252" style="stroke: #000000; stroke-width: 0.8"/>
      </g>
     </g>
     <g id="text_3">
      <!-- 20000 -->
      <g transform="translate(154.765632 266.598437)scale(0.1 -0.1)">
       <defs>
        <path id="DejaVuSans-32" d="M 1228 531 
L 3431 531 
L 3431 0 
L 469 0 
L 469 531 
Q 828 903 1448 1529 
Q 2069 2156 2228 2338 
Q 2531 2678 2651 2914 
Q 2772 3150 2772 3378 
Q 2772 3750 2511 3984 
Q 2250 4219 1831 4219 
Q 1534 4219 1204 4116 
Q 875 4013 500 3803 
L 500 4441 
Q 881 4594 1212 4672 
Q 1544 4750 1819 4750 
Q 2544 4750 2975 4387 
Q 3406 4025 3406 3419 
Q 3406 3131 3298 2873 
Q 3191 2616 2906 2266 
Q 2828 2175 2409 1742 
Q 1991 1309 1228 531 
z
" transform="scale(0.015625)"/>
       </defs>
       <use xlink:href="#DejaVuSans-32"/>
       <use xlink:href="#DejaVuSans-30" x="63.623047"/>
       <use xlink:href="#DejaVuSans-30" x="127.246094"/>
       <use xlink:href="#DejaVuSans-30" x="190.869141"/>
       <use xlink:href="#DejaVuSans-30" x="254.492188"/>
      </g>
     </g>
    </g>
    <g id="xtick_4">
     <g id="line2d_4">
      <g>
       <use xlink:href="#m95a9072c37" x="221.398732" y="252" style="stroke: #000000; stroke-width: 0.8"/>
      </g>
     </g>
     <g id="text_4">
      <!-- 30000 -->
      <g transform="translate(205.492482 266.598437)scale(0.1 -0.1)">
       <defs>
        <path id="DejaVuSans-33" d="M 2597 2516 
Q 3050 2419 3304 2112 
Q 3559 1806 3559 1356 
Q 3559 666 3084 287 
Q 2609 -91 1734 -91 
Q 1441 -91 1130 -33 
Q 819 25 488 141 
L 488 750 
Q 750 597 1062 519 
Q 1375 441 1716 441 
Q 2309 441 2620 675 
Q 2931 909 2931 1356 
Q 2931 1769 2642 2001 
Q 2353 2234 1838 2234 
L 1294 2234 
L 1294 2753 
L 1863 2753 
Q 2328 2753 2575 2939 
Q 2822 3125 2822 3475 
Q 2822 3834 2567 4026 
Q 2313 4219 1838 4219 
Q 1578 4219 1281 4162 
Q 984 4106 628 3988 
L 628 4550 
Q 988 4650 1302 4700 
Q 1616 4750 1894 4750 
Q 2613 4750 3031 4423 
Q 3450 4097 3450 3541 
Q 3450 3153 3228 2886 
Q 3006 2619 2597 2516 
z
" transform="scale(0.015625)"/>
       </defs>
       <use xlink:href="#DejaVuSans-33"/>
       <use xlink:href="#DejaVuSans-30" x="63.623047"/>
       <use xlink:href="#DejaVuSans-30" x="127.246094"/>
       <use xlink:href="#DejaVuSans-30" x="190.869141"/>
       <use xlink:href="#DejaVuSans-30" x="254.492188"/>
      </g>
     </g>
    </g>
    <g id="xtick_5">
     <g id="line2d_5">
      <g>
       <use xlink:href="#m95a9072c37" x="272.125582" y="252" style="stroke: #000000; stroke-width: 0.8"/>
      </g>
     </g>
     <g id="text_5">
      <!-- 40000 -->
      <g transform="translate(256.219332 266.598437)scale(0.1 -0.1)">
       <defs>
        <path id="DejaVuSans-34" d="M 2419 4116 
L 825 1625 
L 2419 1625 
L 2419 4116 
z
M 2253 4666 
L 3047 4666 
L 3047 1625 
L 3713 1625 
L 3713 1100 
L 3047 1100 
L 3047 0 
L 2419 0 
L 2419 1100 
L 313 1100 
L 313 1709 
L 2253 4666 
z
" transform="scale(0.015625)"/>
       </defs>
       <use xlink:href="#DejaVuSans-34"/>
       <use xlink:href="#DejaVuSans-30" x="63.623047"/>
       <use xlink:href="#DejaVuSans-30" x="127.246094"/>
       <use xlink:href="#DejaVuSans-30" x="190.869141"/>
       <use xlink:href="#DejaVuSans-30" x="254.492188"/>
      </g>
     </g>
    </g>
    <g id="xtick_6">
     <g id="line2d_6">
      <g>
       <use xlink:href="#m95a9072c37" x="322.852432" y="252" style="stroke: #000000; stroke-width: 0.8"/>
      </g>
     </g>
     <g id="text_6">
      <!-- 50000 -->
      <g transform="translate(306.946182 266.598437)scale(0.1 -0.1)">
       <defs>
        <path id="DejaVuSans-35" d="M 691 4666 
L 3169 4666 
L 3169 4134 
L 1269 4134 
L 1269 2991 
Q 1406 3038 1543 3061 
Q 1681 3084 1819 3084 
Q 2600 3084 3056 2656 
Q 3513 2228 3513 1497 
Q 3513 744 3044 326 
Q 2575 -91 1722 -91 
Q 1428 -91 1123 -41 
Q 819 9 494 109 
L 494 744 
Q 775 591 1075 516 
Q 1375 441 1709 441 
Q 2250 441 2565 725 
Q 2881 1009 2881 1497 
Q 2881 1984 2565 2268 
Q 2250 2553 1709 2553 
Q 1456 2553 1204 2497 
Q 953 2441 691 2322 
L 691 4666 
z
" transform="scale(0.015625)"/>
       </defs>
       <use xlink:href="#DejaVuSans-35"/>
       <use xlink:href="#DejaVuSans-30" x="63.623047"/>
       <use xlink:href="#DejaVuSans-30" x="127.246094"/>
       <use xlink:href="#DejaVuSans-30" x="190.869141"/>
       <use xlink:href="#DejaVuSans-30" x="254.492188"/>
      </g>
     </g>
    </g>
    <g id="xtick_7">
     <g id="line2d_7">
      <g>
       <use xlink:href="#m95a9072c37" x="373.579282" y="252" style="stroke: #000000; stroke-width: 0.8"/>
      </g>
     </g>
     <g id="text_7">
      <!-- 60000 -->
      <g transform="translate(357.673032 266.598437)scale(0.1 -0.1)">
       <defs>
        <path id="DejaVuSans-36" d="M 2113 2584 
Q 1688 2584 1439 2293 
Q 1191 2003 1191 1497 
Q 1191 994 1439 701 
Q 1688 409 2113 409 
Q 2538 409 2786 701 
Q 3034 994 3034 1497 
Q 3034 2003 2786 2293 
Q 2538 2584 2113 2584 
z
M 3366 4563 
L 3366 3988 
Q 3128 4100 2886 4159 
Q 2644 4219 2406 4219 
Q 1781 4219 1451 3797 
Q 1122 3375 1075 2522 
Q 1259 2794 1537 2939 
Q 1816 3084 2150 3084 
Q 2853 3084 3261 2657 
Q 3669 2231 3669 1497 
Q 3669 778 3244 343 
Q 2819 -91 2113 -91 
Q 1303 -91 875 529 
Q 447 1150 447 2328 
Q 447 3434 972 4092 
Q 1497 4750 2381 4750 
Q 2619 4750 2861 4703 
Q 3103 4656 3366 4563 
z
" transform="scale(0.015625)"/>
       </defs>
       <use xlink:href="#DejaVuSans-36"/>
       <use xlink:href="#DejaVuSans-30" x="63.623047"/>
       <use xlink:href="#DejaVuSans-30" x="127.246094"/>
       <use xlink:href="#DejaVuSans-30" x="190.869141"/>
       <use xlink:href="#DejaVuSans-30" x="254.492188"/>
      </g>
     </g>
    </g>
    <g id="text_8">
     <!-- Time(ms) -->
     <g transform="translate(197.789844 280.276563)scale(0.1 -0.1)">
      <defs>
       <path id="DejaVuSans-54" d="M -19 4666 
L 3928 4666 
L 3928 4134 
L 2272 4134 
L 2272 0 
L 1638 0 
L 1638 4134 
L -19 4134 
L -19 4666 
z
" transform="scale(0.015625)"/>
       <path id="DejaVuSans-69" d="M 603 3500 
L 1178 3500 
L 1178 0 
L 603 0 
L 603 3500 
z
M 603 4863 
L 1178 4863 
L 1178 4134 
L 603 4134 
L 603 4863 
z
" transform="scale(0.015625)"/>
       <path id="DejaVuSans-6d" d="M 3328 2828 
Q 3544 3216 3844 3400 
Q 4144 3584 4550 3584 
Q 5097 3584 5394 3201 
Q 5691 2819 5691 2113 
L 5691 0 
L 5113 0 
L 5113 2094 
Q 5113 2597 4934 2840 
Q 4756 3084 4391 3084 
Q 3944 3084 3684 2787 
Q 3425 2491 3425 1978 
L 3425 0 
L 2847 0 
L 2847 2094 
Q 2847 2600 2669 2842 
Q 2491 3084 2119 3084 
Q 1678 3084 1418 2786 
Q 1159 2488 1159 1978 
L 1159 0 
L 581 0 
L 581 3500 
L 1159 3500 
L 1159 2956 
Q 1356 3278 1631 3431 
Q 1906 3584 2284 3584 
Q 2666 3584 2933 3390 
Q 3200 3197 3328 2828 
z
" transform="scale(0.015625)"/>
       <path id="DejaVuSans-65" d="M 3597 1894 
L 3597 1613 
L 953 1613 
Q 991 1019 1311 708 
Q 1631 397 2203 397 
Q 2534 397 2845 478 
Q 3156 559 3463 722 
L 3463 178 
Q 3153 47 2828 -22 
Q 2503 -91 2169 -91 
Q 1331 -91 842 396 
Q 353 884 353 1716 
Q 353 2575 817 3079 
Q 1281 3584 2069 3584 
Q 2775 3584 3186 3129 
Q 3597 2675 3597 1894 
z
M 3022 2063 
Q 3016 2534 2758 2815 
Q 2500 3097 2075 3097 
Q 1594 3097 1305 2825 
Q 1016 2553 972 2059 
L 3022 2063 
z
" transform="scale(0.015625)"/>
       <path id="DejaVuSans-28" d="M 1984 4856 
Q 1566 4138 1362 3434 
Q 1159 2731 1159 2009 
Q 1159 1288 1364 580 
Q 1569 -128 1984 -844 
L 1484 -844 
Q 1016 -109 783 600 
Q 550 1309 550 2009 
Q 550 2706 781 3412 
Q 1013 4119 1484 4856 
L 1984 4856 
z
" transform="scale(0.015625)"/>
       <path id="DejaVuSans-73" d="M 2834 3397 
L 2834 2853 
Q 2591 2978 2328 3040 
Q 2066 3103 1784 3103 
Q 1356 3103 1142 2972 
Q 928 2841 928 2578 
Q 928 2378 1081 2264 
Q 1234 2150 1697 2047 
L 1894 2003 
Q 2506 1872 2764 1633 
Q 3022 1394 3022 966 
Q 3022 478 2636 193 
Q 2250 -91 1575 -91 
Q 1294 -91 989 -36 
Q 684 19 347 128 
L 347 722 
Q 666 556 975 473 
Q 1284 391 1588 391 
Q 1994 391 2212 530 
Q 2431 669 2431 922 
Q 2431 1156 2273 1281 
Q 2116 1406 1581 1522 
L 1381 1569 
Q 847 1681 609 1914 
Q 372 2147 372 2553 
Q 372 3047 722 3315 
Q 1072 3584 1716 3584 
Q 2034 3584 2315 3537 
Q 2597 3491 2834 3397 
z
" transform="scale(0.015625)"/>
       <path id="DejaVuSans-29" d="M 513 4856 
L 1013 4856 
Q 1481 4119 1714 3412 
Q 1947 2706 1947 2009 
Q 1947 1309 1714 600 
Q 1481 -109 1013 -844 
L 513 -844 
Q 928 -128 1133 580 
Q 1338 1288 1338 2009 
Q 1338 2731 1133 3434 
Q 928 4138 513 4856 
z
" transform="scale(0.015625)"/>
      </defs>
      <use xlink:href="#DejaVuSans-54"/>
      <use xlink:href="#DejaVuSans-69" x="57.958984"/>
      <use xlink:href="#DejaVuSans-6d" x="85.742188"/>
      <use xlink:href="#DejaVuSans-65" x="183.154297"/>
      <use xlink:href="#DejaVuSans-28" x="244.677734"/>
      <use xlink:href="#DejaVuSans-6d" x="283.691406"/>
      <use xlink:href="#DejaVuSans-73" x="381.103516"/>
      <use xlink:href="#DejaVuSans-29" x="433.203125"/>
     </g>
    </g>
   </g>
   <g id="matplotlib.axis_2">
    <g id="ytick_1">
     <g id="line2d_8">
      <defs>
       <path id="m4df77650f7" d="M 0 0 
L -3.5 0 
" style="stroke: #000000; stroke-width: 0.8"/>
      </defs>
      <g>
       <use xlink:href="#m4df77650f7" x="54" y="252" style="stroke: #000000; stroke-width: 0.8"/>
      </g>
     </g>
     <g id="text_9">
      <!-- −100 -->
      <g transform="translate(19.532812 255.799219)scale(0.1 -0.1)">
       <defs>
        <path id="DejaVuSans-2212" d="M 678 2272 
L 4684 2272 
L 4684 1741 
L 678 1741 
L 678 2272 
z
" transform="scale(0.015625)"/>
       </defs>
       <use xlink:href="#DejaVuSans-2212"/>
       <use xlink:href="#DejaVuSans-31" x="83.789062"/>
       <use xlink:href="#DejaVuSans-30" x="147.412109"/>
       <use xlink:href="#DejaVuSans-30" x="211.035156"/>
      </g>
     </g>
    </g>
    <g id="ytick_2">
     <g id="line2d_9">
      <g>
       <use xlink:href="#m4df77650f7" x="54" y="208.512" style="stroke: #000000; stroke-width: 0.8"/>
      </g>
     </g>
     <g id="text_10">
      <!-- −90 -->
      <g transform="translate(25.895312 212.311219)scale(0.1 -0.1)">
       <defs>
        <path id="DejaVuSans-39" d="M 703 97 
L 703 672 
Q 941 559 1184 500 
Q 1428 441 1663 441 
Q 2288 441 2617 861 
Q 2947 1281 2994 2138 
Q 2813 1869 2534 1725 
Q 2256 1581 1919 1581 
Q 1219 1581 811 2004 
Q 403 2428 403 3163 
Q 403 3881 828 4315 
Q 1253 4750 1959 4750 
Q 2769 4750 3195 4129 
Q 3622 3509 3622 2328 
Q 3622 1225 3098 567 
Q 2575 -91 1691 -91 
Q 1453 -91 1209 -44 
Q 966 3 703 97 
z
M 1959 2075 
Q 2384 2075 2632 2365 
Q 2881 2656 2881 3163 
Q 2881 3666 2632 3958 
Q 2384 4250 1959 4250 
Q 1534 4250 1286 3958 
Q 1038 3666 1038 3163 
Q 1038 2656 1286 2365 
Q 1534 2075 1959 2075 
z
" transform="scale(0.015625)"/>
       </defs>
       <use xlink:href="#DejaVuSans-2212"/>
       <use xlink:href="#DejaVuSans-39" x="83.789062"/>
       <use xlink:href="#DejaVuSans-30" x="147.412109"/>
      </g>
     </g>
    </g>
    <g id="ytick_3">
     <g id="line2d_10">
      <g>
       <use xlink:href="#m4df77650f7" x="54" y="165.024" style="stroke: #000000; stroke-width: 0.8"/>
      </g>
     </g>
     <g id="text_11">
      <!-- −80 -->
      <g transform="translate(25.895312 168.823219)scale(0.1 -0.1)">
       <defs>
        <path id="DejaVuSans-38" d="M 2034 2216 
Q 1584 2216 1326 1975 
Q 1069 1734 1069 1313 
Q 1069 891 1326 650 
Q 1584 409 2034 409 
Q 2484 409 2743 651 
Q 3003 894 3003 1313 
Q 3003 1734 2745 1975 
Q 2488 2216 2034 2216 
z
M 1403 2484 
Q 997 2584 770 2862 
Q 544 3141 544 3541 
Q 544 4100 942 4425 
Q 1341 4750 2034 4750 
Q 2731 4750 3128 4425 
Q 3525 4100 3525 3541 
Q 3525 3141 3298 2862 
Q 3072 2584 2669 2484 
Q 3125 2378 3379 2068 
Q 3634 1759 3634 1313 
Q 3634 634 3220 271 
Q 2806 -91 2034 -91 
Q 1263 -91 848 271 
Q 434 634 434 1313 
Q 434 1759 690 2068 
Q 947 2378 1403 2484 
z
M 1172 3481 
Q 1172 3119 1398 2916 
Q 1625 2713 2034 2713 
Q 2441 2713 2670 2916 
Q 2900 3119 2900 3481 
Q 2900 3844 2670 4047 
Q 2441 4250 2034 4250 
Q 1625 4250 1398 4047 
Q 1172 3844 1172 3481 
z
" transform="scale(0.015625)"/>
       </defs>
       <use xlink:href="#DejaVuSans-2212"/>
       <use xlink:href="#DejaVuSans-38" x="83.789062"/>
       <use xlink:href="#DejaVuSans-30" x="147.412109"/>
      </g>
     </g>
    </g>
    <g id="ytick_4">
     <g id="line2d_11">
      <g>
       <use xlink:href="#m4df77650f7" x="54" y="121.536" style="stroke: #000000; stroke-width: 0.8"/>
      </g>
     </g>
     <g id="text_12">
      <!-- −70 -->
      <g transform="translate(25.895312 125.335219)scale(0.1 -0.1)">
       <defs>
        <path id="DejaVuSans-37" d="M 525 4666 
L 3525 4666 
L 3525 4397 
L 1831 0 
L 1172 0 
L 2766 4134 
L 525 4134 
L 525 4666 
z
" transform="scale(0.015625)"/>
       </defs>
       <use xlink:href="#DejaVuSans-2212"/>
       <use xlink:href="#DejaVuSans-37" x="83.789062"/>
       <use xlink:href="#DejaVuSans-30" x="147.412109"/>
      </g>
     </g>
    </g>
    <g id="ytick_5">
     <g id="line2d_12">
      <g>
       <use xlink:href="#m4df77650f7" x="54" y="78.048" style="stroke: #000000; stroke-width: 0.8"/>
      </g>
     </g>
     <g id="text_13">
      <!-- −60 -->
      <g transform="translate(25.895312 81.847219)scale(0.1 -0.1)">
       <use xlink:href="#DejaVuSans-2212"/>
       <use xlink:href="#DejaVuSans-36" x="83.789062"/>
       <use xlink:href="#DejaVuSans-30" x="147.412109"/>
      </g>
     </g>
    </g>
    <g id="ytick_6">
     <g id="line2d_13">
      <g>
       <use xlink:href="#m4df77650f7" x="54" y="34.56" style="stroke: #000000; stroke-width: 0.8"/>
      </g>
     </g>
     <g id="text_14">
      <!-- −50 -->
      <g transform="translate(25.895312 38.359219)scale(0.1 -0.1)">
       <use xlink:href="#DejaVuSans-2212"/>
       <use xlink:href="#DejaVuSans-35" x="83.789062"/>
       <use xlink:href="#DejaVuSans-30" x="147.412109"/>
      </g>
     </g>
    </g>
    <g id="text_15">
     <!-- Membrane potential (mV) -->
     <g transform="translate(13.453125 207.691719)rotate(-90)scale(0.1 -0.1)">
      <defs>
       <path id="DejaVuSans-4d" d="M 628 4666 
L 1569 4666 
L 2759 1491 
L 3956 4666 
L 4897 4666 
L 4897 0 
L 4281 0 
L 4281 4097 
L 3078 897 
L 2444 897 
L 1241 4097 
L 1241 0 
L 628 0 
L 628 4666 
z
" transform="scale(0.015625)"/>
       <path id="DejaVuSans-62" d="M 3116 1747 
Q 3116 2381 2855 2742 
Q 2594 3103 2138 3103 
Q 1681 3103 1420 2742 
Q 1159 2381 1159 1747 
Q 1159 1113 1420 752 
Q 1681 391 2138 391 
Q 2594 391 2855 752 
Q 3116 1113 3116 1747 
z
M 1159 2969 
Q 1341 3281 1617 3432 
Q 1894 3584 2278 3584 
Q 2916 3584 3314 3078 
Q 3713 2572 3713 1747 
Q 3713 922 3314 415 
Q 2916 -91 2278 -91 
Q 1894 -91 1617 61 
Q 1341 213 1159 525 
L 1159 0 
L 581 0 
L 581 4863 
L 1159 4863 
L 1159 2969 
z
" transform="scale(0.015625)"/>
       <path id="DejaVuSans-72" d="M 2631 2963 
Q 2534 3019 2420 3045 
Q 2306 3072 2169 3072 
Q 1681 3072 1420 2755 
Q 1159 2438 1159 1844 
L 1159 0 
L 581 0 
L 581 3500 
L 1159 3500 
L 1159 2956 
Q 1341 3275 1631 3429 
Q 1922 3584 2338 3584 
Q 2397 3584 2469 3576 
Q 2541 3569 2628 3553 
L 2631 2963 
z
" transform="scale(0.015625)"/>
       <path id="DejaVuSans-61" d="M 2194 1759 
Q 1497 1759 1228 1600 
Q 959 1441 959 1056 
Q 959 750 1161 570 
Q 1363 391 1709 391 
Q 2188 391 2477 730 
Q 2766 1069 2766 1631 
L 2766 1759 
L 2194 1759 
z
M 3341 1997 
L 3341 0 
L 2766 0 
L 2766 531 
Q 2569 213 2275 61 
Q 1981 -91 1556 -91 
Q 1019 -91 701 211 
Q 384 513 384 1019 
Q 384 1609 779 1909 
Q 1175 2209 1959 2209 
L 2766 2209 
L 2766 2266 
Q 2766 2663 2505 2880 
Q 2244 3097 1772 3097 
Q 1472 3097 1187 3025 
Q 903 2953 641 2809 
L 641 3341 
Q 956 3463 1253 3523 
Q 1550 3584 1831 3584 
Q 2591 3584 2966 3190 
Q 3341 2797 3341 1997 
z
" transform="scale(0.015625)"/>
       <path id="DejaVuSans-6e" d="M 3513 2113 
L 3513 0 
L 2938 0 
L 2938 2094 
Q 2938 2591 2744 2837 
Q 2550 3084 2163 3084 
Q 1697 3084 1428 2787 
Q 1159 2491 1159 1978 
L 1159 0 
L 581 0 
L 581 3500 
L 1159 3500 
L 1159 2956 
Q 1366 3272 1645 3428 
Q 1925 3584 2291 3584 
Q 2894 3584 3203 3211 
Q 3513 2838 3513 2113 
z
" transform="scale(0.015625)"/>
       <path id="DejaVuSans-20" transform="scale(0.015625)"/>
       <path id="DejaVuSans-70" d="M 1159 525 
L 1159 -1331 
L 581 -1331 
L 581 3500 
L 1159 3500 
L 1159 2969 
Q 1341 3281 1617 3432 
Q 1894 3584 2278 3584 
Q 2916 3584 3314 3078 
Q 3713 2572 3713 1747 
Q 3713 922 3314 415 
Q 2916 -91 2278 -91 
Q 1894 -91 1617 61 
Q 1341 213 1159 525 
z
M 3116 1747 
Q 3116 2381 2855 2742 
Q 2594 3103 2138 3103 
Q 1681 3103 1420 2742 
Q 1159 2381 1159 1747 
Q 1159 1113 1420 752 
Q 1681 391 2138 391 
Q 2594 391 2855 752 
Q 3116 1113 3116 1747 
z
" transform="scale(0.015625)"/>
       <path id="DejaVuSans-6f" d="M 1959 3097 
Q 1497 3097 1228 2736 
Q 959 2375 959 1747 
Q 959 1119 1226 758 
Q 1494 397 1959 397 
Q 2419 397 2687 759 
Q 2956 1122 2956 1747 
Q 2956 2369 2687 2733 
Q 2419 3097 1959 3097 
z
M 1959 3584 
Q 2709 3584 3137 3096 
Q 3566 2609 3566 1747 
Q 3566 888 3137 398 
Q 2709 -91 1959 -91 
Q 1206 -91 779 398 
Q 353 888 353 1747 
Q 353 2609 779 3096 
Q 1206 3584 1959 3584 
z
" transform="scale(0.015625)"/>
       <path id="DejaVuSans-74" d="M 1172 4494 
L 1172 3500 
L 2356 3500 
L 2356 3053 
L 1172 3053 
L 1172 1153 
Q 1172 725 1289 603 
Q 1406 481 1766 481 
L 2356 481 
L 2356 0 
L 1766 0 
Q 1100 0 847 248 
Q 594 497 594 1153 
L 594 3053 
L 172 3053 
L 172 3500 
L 594 3500 
L 594 4494 
L 1172 4494 
z
" transform="scale(0.015625)"/>
       <path id="DejaVuSans-6c" d="M 603 4863 
L 1178 4863 
L 1178 0 
L 603 0 
L 603 4863 
z
" transform="scale(0.015625)"/>
       <path id="DejaVuSans-56" d="M 1831 0 
L 50 4666 
L 709 4666 
L 2188 738 
L 3669 4666 
L 4325 4666 
L 2547 0 
L 1831 0 
z
" transform="scale(0.015625)"/>
      </defs>
      <use xlink:href="#DejaVuSans-4d"/>
      <use xlink:href="#DejaVuSans-65" x="86.279297"/>
      <use xlink:href="#DejaVuSans-6d" x="147.802734"/>
      <use xlink:href="#DejaVuSans-62" x="245.214844"/>
      <use xlink:href="#DejaVuSans-72" x="308.691406"/>
      <use xlink:href="#DejaVuSans-61" x="349.804688"/>
      <use xlink:href="#DejaVuSans-6e" x="411.083984"/>
      <use xlink:href="#DejaVuSans-65" x="474.462891"/>
      <use xlink:href="#DejaVuSans-20" x="535.986328"/>
      <use xlink:href="#DejaVuSans-70" x="567.773438"/>
      <use xlink:href="#DejaVuSans-6f" x="631.25"/>
      <use xlink:href="#DejaVuSans-74" x="692.431641"/>
      <use xlink:href="#DejaVuSans-65" x="731.640625"/>
      <use xlink:href="#DejaVuSans-6e" x="793.164062"/>
      <use xlink:href="#DejaVuSans-74" x="856.542969"/>
      <use xlink:href="#DejaVuSans-69" x="895.751953"/>
      <use xlink:href="#DejaVuSans-61" x="923.535156"/>
      <use xlink:href="#DejaVuSans-6c" x="984.814453"/>
      <use xlink:href="#DejaVuSans-20" x="1012.597656"/>
      <use xlink:href="#DejaVuSans-28" x="1044.384766"/>
      <use xlink:href="#DejaVuSans-6d" x="1083.398438"/>
      <use xlink:href="#DejaVuSans-56" x="1180.810547"/>
      <use xlink:href="#DejaVuSans-29" x="1249.21875"/>
     </g>
    </g>
   </g>
   <g id="line2d_14">
    <path d="M 69.218182 195.4656 
L 69.418555 207.666883 
L 69.753355 217.725934 
L 70.083082 221.254742 
L 70.410273 222.838066 
L 71.531345 229.966556 
L 71.584609 229.867386 
L 72.003109 228.820494 
L 72.020864 228.827557 
L 72.056373 228.839203 
L 72.0792 228.740737 
L 72.672709 225.543975 
L 73.154618 223.897897 
L 73.286509 222.080615 
L 73.560436 219.536906 
L 73.636527 219.461562 
L 73.684718 219.520191 
L 73.824218 220.041751 
L 74.141264 222.300432 
L 74.717018 226.128898 
L 75.186245 227.009901 
L 75.868527 229.515855 
L 76.352973 230.922882 
L 76.373264 230.876738 
L 76.497545 229.88879 
L 76.786691 228.290799 
L 76.931264 228.207136 
L 76.949018 228.218772 
L 77.118955 228.489869 
L 77.572964 229.786391 
L 78.227345 231.381151 
L 78.757445 232.117374 
L 79.325591 232.534385 
L 80.063673 232.786213 
L 81.357218 232.955808 
L 85.227709 233.167773 
L 85.270827 232.780213 
L 85.646209 229.217866 
L 85.818682 229.038085 
L 85.826291 229.041152 
L 85.983545 229.234493 
L 86.364 230.174227 
L 87.081791 231.796454 
L 87.616964 232.473275 
L 87.830018 232.634366 
L 87.852845 232.552288 
L 88.002491 230.9834 
L 88.273882 229.273032 
L 88.413382 228.681861 
L 88.730427 225.773023 
L 88.816664 225.716477 
L 88.859782 225.759423 
L 88.9587 225.91424 
L 89.001818 225.781346 
L 89.174291 224.239598 
L 89.438073 222.834508 
L 89.519236 222.820785 
L 89.554745 222.864274 
L 89.709464 223.32595 
L 90.059482 225.2547 
L 90.881264 229.671955 
L 90.957355 229.834852 
L 91.013155 229.742577 
L 91.515355 228.582559 
L 91.543255 228.596385 
L 91.730945 228.846591 
L 91.964291 229.369152 
L 92.012482 229.163368 
L 92.096182 227.823032 
L 92.4183 222.058433 
L 92.550191 221.720265 
L 92.583164 221.743762 
L 92.702373 222.075361 
L 92.981373 223.690688 
L 93.904609 229.215091 
L 94.404273 230.821016 
L 94.888718 231.686058 
L 95.408673 232.177778 
L 95.614118 232.254279 
L 95.639482 232.198154 
L 95.801809 231.384348 
L 96.050373 229.307165 
L 96.367418 227.351187 
L 96.550036 227.171115 
L 96.555109 227.173278 
L 96.704755 227.363689 
L 97.006582 228.203738 
L 97.343918 229.324163 
L 97.3845 229.094033 
L 97.749736 226.718888 
L 97.861336 226.750178 
L 97.868945 226.760063 
L 98.0541 227.200211 
L 99.545482 231.534651 
L 99.966518 232.00094 
L 99.981736 231.978203 
L 100.075582 231.473689 
L 100.839027 226.758332 
L 100.998818 226.568485 
L 101.016573 226.576807 
L 101.161145 226.797876 
L 101.470582 227.791896 
L 102.376064 230.750041 
L 102.634773 231.219458 
L 102.675355 231.167281 
L 102.835145 230.562254 
L 103.175018 229.55122 
L 103.367782 229.501379 
L 103.613809 229.655633 
L 103.656927 229.522452 
L 104.116009 228.13769 
L 104.265655 228.266191 
L 104.547191 228.888278 
L 104.980909 230.033485 
L 105.039245 229.907726 
L 105.5034 228.581364 
L 105.508473 228.582863 
L 105.691091 228.705482 
L 105.724064 228.551963 
L 105.992918 226.281723 
L 106.317573 222.02855 
L 106.5357 221.201268 
L 106.624473 221.306766 
L 106.796945 221.987255 
L 107.499518 225.100351 
L 107.834318 226.210771 
L 108.351736 228.291534 
L 108.412609 228.062079 
L 108.782918 226.486318 
L 108.899591 226.579287 
L 109.115182 227.141552 
L 110.426482 231.119377 
L 110.8323 231.649139 
L 110.847518 231.63428 
L 110.916 231.365295 
L 111.098618 228.64284 
L 111.397909 225.823689 
L 111.580527 225.501522 
L 111.588136 225.503831 
L 111.712418 225.670669 
L 111.963518 226.491619 
L 112.628045 229.121136 
L 112.696527 228.980797 
L 112.8969 227.896083 
L 113.066836 223.852269 
L 113.317936 220.302902 
L 113.429536 220.062155 
L 113.472655 220.103158 
L 113.602009 220.536791 
L 113.908909 222.549521 
L 114.778882 228.281851 
L 115.281082 230.12083 
L 115.765527 231.118853 
L 116.277873 231.689301 
L 116.511218 231.837848 
L 116.536582 231.759283 
L 116.688764 230.457793 
L 116.972836 228.902512 
L 117.160527 228.755629 
L 117.335536 228.93936 
L 117.688091 229.531913 
L 117.761645 229.417054 
L 118.256236 228.538451 
L 118.438855 228.708942 
L 118.791409 229.426241 
L 119.1465 230.246906 
L 119.171864 230.065509 
L 119.656309 225.537077 
L 119.762836 225.620974 
L 119.960673 226.18544 
L 120.153436 226.890769 
L 120.216845 226.712921 
L 120.579545 225.540881 
L 120.582082 225.54151 
L 120.703827 225.690099 
L 120.944782 226.440781 
L 121.875627 229.806378 
L 121.918745 229.759468 
L 122.093755 229.19108 
L 122.380364 228.589368 
L 122.5503 228.623649 
L 122.791255 228.97636 
L 124.318145 231.682588 
L 124.926873 232.096951 
L 125.337764 232.25164 
L 125.352982 232.181524 
L 125.530527 230.102123 
L 125.781627 228.697025 
L 126.042873 227.912174 
L 126.339627 226.986649 
L 126.4842 227.016871 
L 126.6795 227.387934 
L 127.174091 228.96478 
L 127.846227 230.804948 
L 128.378864 231.648747 
L 128.475245 231.748841 
L 128.498073 231.619868 
L 128.739027 228.265782 
L 129.040855 224.084484 
L 129.177818 223.799492 
L 129.208255 223.817399 
L 129.332536 224.09845 
L 129.621682 225.456801 
L 130.212655 228.176747 
L 130.227873 228.171709 
L 130.415564 227.953426 
L 130.626082 227.885168 
L 130.818845 228.107341 
L 131.189155 228.964171 
L 132.117464 231.116891 
L 132.670391 231.820674 
L 133.213173 232.196991 
L 133.218245 232.187078 
L 133.281655 231.561316 
L 133.618991 228.580742 
L 133.809218 228.338574 
L 133.958864 228.502013 
L 134.291127 229.301674 
L 135.097691 231.189477 
L 135.379227 231.596121 
L 135.407127 231.502769 
L 135.610036 229.728994 
L 135.866209 228.598828 
L 136.020927 228.551834 
L 136.028536 228.557373 
L 136.216227 228.842333 
L 136.824955 230.375513 
L 137.418464 231.505607 
L 137.712682 231.850036 
L 137.743118 231.786343 
L 137.890227 230.852106 
L 138.235173 229.192043 
L 138.7881 226.75521 
L 138.851509 226.592968 
L 139.247182 225.097098 
L 139.287764 225.12159 
L 139.434873 225.421704 
L 139.759527 226.729835 
L 140.380936 229.325578 
L 140.418982 229.262372 
L 140.639645 228.231755 
L 140.862845 227.828661 
L 141.004882 227.929991 
L 141.258518 228.479813 
L 141.611073 229.432084 
L 141.671945 229.279384 
L 142.115809 227.823588 
L 142.262918 227.970788 
L 142.557136 228.673117 
L 142.813309 229.401678 
L 142.851355 229.198087 
L 143.411891 224.988004 
L 143.622409 224.316191 
L 143.723864 224.422761 
L 143.9217 225.081998 
L 145.364891 230.820634 
L 145.413082 230.891191 
L 145.453664 230.764517 
L 145.557655 229.462057 
L 145.915282 225.333513 
L 146.090291 225.012023 
L 146.102973 225.016525 
L 146.227255 225.201052 
L 146.483427 226.09113 
L 147.6045 230.360594 
L 147.642545 230.409024 
L 147.690736 230.294472 
L 148.005245 228.566399 
L 148.662164 222.435651 
L 148.677382 222.440211 
L 148.783909 222.622298 
L 149.009645 223.583368 
L 150.328555 230.02457 
L 150.825682 231.094846 
L 151.338027 231.697361 
L 151.941682 232.063028 
L 152.423591 232.207741 
L 152.436273 232.162765 
L 152.535191 231.102382 
L 152.9892 226.065228 
L 153.141382 225.864321 
L 153.164209 225.875942 
L 153.235227 225.901787 
L 153.2682 225.82111 
L 153.6309 224.523062 
L 153.717136 224.617052 
L 153.9099 225.210359 
L 154.531309 228.179284 
L 154.904155 229.654733 
L 154.934591 229.514868 
L 155.363236 226.956731 
L 155.482445 227.064602 
L 155.588973 227.215217 
L 155.6397 227.118486 
L 156.017618 226.150073 
L 156.063273 226.179655 
L 156.228136 226.49496 
L 156.603518 227.82839 
L 157.384718 230.461261 
L 157.907209 231.464401 
L 158.036564 231.629183 
L 158.064464 231.500805 
L 158.533691 228.764964 
L 158.675727 228.82179 
L 158.916682 229.259023 
L 160.065655 231.61118 
L 160.623655 232.144823 
L 161.285645 232.464626 
L 161.742191 232.500095 
L 161.881691 231.689769 
L 162.206345 230.235154 
L 162.411791 230.086035 
L 162.477736 229.990646 
L 162.627382 228.923008 
L 163.248791 224.897333 
L 163.357855 225.017132 
L 163.565836 225.685798 
L 164.380009 229.323948 
L 164.468782 228.956193 
L 164.806118 227.562488 
L 164.950691 227.573401 
L 165.042 227.55729 
L 165.064827 227.520962 
L 165.496009 226.817082 
L 165.546736 226.858376 
L 165.744573 227.234516 
L 166.2138 228.753024 
L 166.612009 229.920796 
L 166.652591 229.872333 
L 166.847891 229.220971 
L 167.124355 228.682497 
L 167.294291 228.723658 
L 167.535245 229.086052 
L 167.700109 229.35148 
L 167.750836 229.276381 
L 168.253036 228.17121 
L 168.311373 228.211309 
L 168.526964 228.567446 
L 168.648709 228.846406 
L 168.686755 228.651026 
L 169.049455 226.557438 
L 169.166127 226.624253 
L 169.336064 226.708628 
L 169.351282 226.69688 
L 169.648036 226.590825 
L 169.835727 226.885482 
L 170.206036 227.989775 
L 170.672727 229.382865 
L 170.715845 229.340716 
L 170.890855 228.858128 
L 170.966945 227.855286 
L 171.438709 218.757624 
L 171.763364 215.817453 
L 171.885109 215.620467 
L 171.925691 215.657547 
L 172.0728 215.993122 
L 172.138745 215.789536 
L 172.440573 213.559309 
L 173.115245 207.589656 
L 173.163436 207.542256 
L 173.214164 207.634813 
L 173.346055 208.424331 
L 173.647882 211.9265 
L 173.9142 213.768772 
L 174.297191 215.605498 
L 174.7512 219.758061 
L 174.9744 221.550944 
L 175.035273 221.473162 
L 175.220427 220.931921 
L 175.5045 219.224293 
L 175.512109 219.226069 
L 175.598345 219.379733 
L 175.793645 220.337136 
L 175.943291 220.751274 
L 175.976264 220.71824 
L 176.098009 220.256881 
L 176.610355 216.766219 
L 176.825945 213.272657 
L 177.198791 207.311471 
L 177.454964 204.346478 
L 177.906436 199.956069 
L 177.982527 199.856707 
L 178.030718 199.928623 
L 178.149927 200.551601 
L 178.385809 203.230535 
L 178.6572 205.520252 
L 178.784018 206.30169 
L 178.844891 206.021863 
L 179.126427 202.8049 
L 179.400355 199.77404 
L 179.572827 199.615482 
L 179.595655 199.634977 
L 179.694573 199.940212 
L 179.872118 201.411998 
L 180.262718 204.956778 
L 180.298227 204.941551 
L 180.384464 204.971821 
L 180.402218 205.00922 
L 180.691364 206.033725 
L 181.023627 207.926281 
L 181.0845 207.377932 
L 181.325455 200.149564 
L 181.672936 194.45798 
L 181.721127 194.376404 
L 181.774391 194.502997 
L 181.906282 195.564095 
L 182.8422 207.399362 
L 183.156709 210.175496 
L 183.209973 210.281573 
L 183.268309 210.17018 
L 183.450927 209.252961 
L 183.6792 204.511711 
L 184.133209 196.612435 
L 184.295536 196.028215 
L 184.323436 196.050857 
L 184.419818 196.39035 
L 184.612582 198.069313 
L 185.013327 203.945231 
L 185.272036 206.286337 
L 185.340518 206.397822 
L 185.398855 206.337604 
L 185.518064 206.256154 
L 185.556109 206.303206 
L 185.723509 206.844828 
L 185.999973 207.85766 
L 186.144545 208.62638 
L 186.213027 208.475113 
L 186.317018 207.697262 
L 186.669573 203.876363 
L 186.7761 203.871359 
L 186.798927 203.894498 
L 186.9714 204.216529 
L 187.029736 204.002727 
L 187.227573 202.2077 
L 187.5294 199.068837 
L 187.569982 199.055765 
L 187.6131 199.136564 
L 187.742455 199.871195 
L 188.795045 207.443762 
L 189.053755 209.147289 
L 189.282027 210.680272 
L 189.335291 210.606634 
L 189.459573 210.017856 
L 189.672627 207.475294 
L 190.309255 196.408393 
L 190.519773 195.776914 
L 190.565427 195.839186 
L 190.679564 196.409646 
L 191.265464 200.584659 
L 191.316191 200.347091 
L 191.425255 198.500515 
L 191.719473 194.283061 
L 191.757518 194.248518 
L 191.805709 194.347742 
L 191.932527 195.230383 
L 193.289482 209.836186 
L 194.068145 219.472549 
L 194.306564 220.685824 
L 194.626145 221.586537 
L 194.854418 222.464649 
L 194.902609 222.211079 
L 195.087764 219.547432 
L 195.475827 212.627312 
L 195.678736 212.153511 
L 195.8436 211.986567 
L 195.874036 212.013118 
L 196.011 212.362421 
L 196.434573 213.965913 
L 196.858145 215.810642 
L 196.878436 215.77981 
L 197.114318 215.048045 
L 197.205627 215.215381 
L 197.329909 215.475167 
L 197.383173 215.418467 
L 197.5734 215.229795 
L 197.608909 215.264992 
L 197.745873 215.64581 
L 198.352064 217.658972 
L 198.501709 218.012091 
L 198.770564 219.373639 
L 199.343782 222.784818 
L 199.4148 222.651951 
L 199.511182 222.010628 
L 199.663364 217.880638 
L 200.018455 209.742146 
L 200.198536 208.942426 
L 200.211218 208.946735 
L 200.340573 209.031638 
L 200.371009 208.924157 
L 200.6145 206.944712 
L 200.764145 205.127509 
L 201.3957 193.762437 
L 201.436282 193.811968 
L 201.497155 193.980602 
L 201.5352 193.784997 
L 201.859855 189.526735 
L 202.156609 186.512845 
L 202.171827 186.521119 
L 202.242845 186.763588 
L 202.4001 187.929 
L 202.466045 187.4414 
L 202.729827 182.062472 
L 203.117891 176.069462 
L 203.161009 176.019742 
L 203.211736 176.130652 
L 203.318264 176.637082 
L 203.399427 176.428228 
L 203.455227 176.352492 
L 203.503418 176.452761 
L 203.617555 177.33826 
L 203.957427 182.409112 
L 204.5484 196.35701 
L 204.9948 204.600772 
L 205.129227 205.027169 
L 205.169809 204.8958 
L 205.337209 203.195385 
L 205.575627 201.881373 
L 205.649182 201.980151 
L 205.862236 202.552383 
L 205.923109 202.438222 
L 206.019491 201.35281 
L 206.610464 193.510305 
L 206.613 193.510737 
L 206.678945 193.642154 
L 206.927509 194.884171 
L 207.239482 196.569882 
L 207.262309 196.479355 
L 207.4221 194.506684 
L 207.642764 193.22444 
L 207.711245 193.340444 
L 207.850745 194.18465 
L 208.302218 199.010415 
L 209.578009 212.752749 
L 209.583082 212.749004 
L 209.631273 212.47537 
L 209.770773 210.204544 
L 210.024409 207.551219 
L 210.080209 207.501607 
L 210.130936 207.578997 
L 210.597627 209.095433 
L 210.891845 211.112829 
L 210.970473 210.929134 
L 211.229182 209.574376 
L 211.452382 208.347471 
L 211.731382 208.484784 
L 211.868345 208.95328 
L 212.266555 210.572373 
L 212.291918 210.549658 
L 212.553164 209.918356 
L 212.702809 209.051051 
L 212.9184 207.052122 
L 213.232909 203.73364 
L 213.354655 203.201357 
L 213.785836 197.588587 
L 214.039473 194.896103 
L 214.409782 192.972768 
L 214.473191 193.125491 
L 214.528991 193.42266 
L 214.569573 193.071101 
L 214.820673 191.08642 
L 214.914518 190.018869 
L 215.284827 186.38447 
L 215.495345 185.508652 
L 215.672891 185.577456 
L 215.817464 186.108456 
L 215.888482 185.817791 
L 216.104073 183.66254 
L 216.596127 177.356934 
L 216.890345 174.127762 
L 216.979118 173.996903 
L 217.027309 174.063419 
L 217.050136 174.072146 
L 217.090718 173.970807 
L 217.395082 172.663325 
L 217.478782 172.852163 
L 217.816118 174.810316 
L 217.846555 174.976301 
L 217.920109 174.758616 
L 217.978445 174.692229 
L 218.039318 174.752992 
L 218.084973 174.718275 
L 218.105264 174.669598 
L 218.254909 174.346836 
L 218.308173 174.431304 
L 218.716527 175.522836 
L 218.795155 175.260533 
L 218.929582 174.850417 
L 218.975236 174.919088 
L 219.0843 175.583967 
L 219.495191 178.543842 
L 219.512945 178.523157 
L 219.583964 178.080092 
L 220.466618 169.396685 
L 220.570609 169.750539 
L 220.748155 171.656373 
L 221.290936 177.861603 
L 221.575009 181.72607 
L 222.143155 193.287148 
L 223.081609 211.389498 
L 223.639609 218.077824 
L 223.733455 218.850534 
L 223.789255 218.426154 
L 224.047964 216.77169 
L 224.126591 216.811844 
L 224.141809 216.838375 
L 224.311745 217.410659 
L 224.821555 220.202722 
L 225.524127 223.502498 
L 225.810736 224.388517 
L 225.853855 224.295843 
L 226.036473 223.112843 
L 226.297718 222.168754 
L 226.452436 222.16562 
L 226.642664 222.486395 
L 226.713682 222.584561 
L 226.764409 222.498732 
L 227.215882 221.251832 
L 227.291973 221.314574 
L 227.492345 221.75566 
L 228.0123 223.448099 
L 228.121364 223.274432 
L 228.440945 222.804529 
L 228.593127 222.932265 
L 228.851836 223.523068 
L 230.419309 227.693933 
L 230.447209 227.692343 
L 230.480182 227.610978 
L 230.650118 226.539128 
L 230.936727 225.383267 
L 231.116809 225.309471 
L 231.3045 225.540407 
L 231.725536 226.519051 
L 231.844745 226.782818 
L 231.885327 226.642791 
L 232.017218 225.017532 
L 232.491518 218.721728 
L 232.613264 218.541034 
L 232.648773 218.567946 
L 232.778127 218.896609 
L 232.942991 219.635892 
L 232.991182 219.271572 
L 233.376709 215.82925 
L 233.511136 215.706412 
L 233.7318 215.069878 
L 233.7597 215.088852 
L 233.8713 215.382529 
L 234.099573 216.766138 
L 235.038027 223.058203 
L 235.334782 223.31732 
L 235.395655 223.2067 
L 235.7127 222.762022 
L 235.857273 222.941179 
L 236.174318 223.744716 
L 236.280845 223.554134 
L 236.557309 223.170257 
L 236.696809 223.324854 
L 236.942836 224.021241 
L 237.508445 226.226714 
L 237.566782 225.86254 
L 238.023327 222.117672 
L 238.127318 222.171403 
L 238.132391 222.179602 
L 238.3074 222.687877 
L 238.771555 224.942425 
L 239.352382 227.411332 
L 239.3676 227.400227 
L 239.456373 227.086038 
L 239.859655 225.639685 
L 239.948427 225.250019 
L 240.328882 223.442353 
L 240.443018 223.523183 
L 240.638318 224.05245 
L 241.214073 226.514003 
L 241.845627 228.70045 
L 242.378264 229.795645 
L 242.931191 230.444834 
L 243.593182 230.874794 
L 243.694636 230.868978 
L 243.714927 230.815681 
L 243.856964 229.961755 
L 244.818245 222.461738 
L 244.874045 222.505996 
L 245.023691 222.917441 
L 245.391464 224.767632 
L 245.492918 225.153534 
L 245.548718 225.034545 
L 245.875909 224.122283 
L 245.906345 224.138575 
L 246.048382 224.395468 
L 246.357818 225.542007 
L 247.301345 229.129586 
L 247.831445 230.241835 
L 248.371691 230.883724 
L 249.010855 231.295433 
L 249.863073 231.576579 
L 249.923945 231.136163 
L 250.306936 228.340707 
L 250.4997 228.157646 
L 250.601155 228.174344 
L 250.621445 228.082994 
L 250.905518 225.773624 
L 251.062773 223.325402 
L 251.501564 217.371417 
L 251.630918 217.072542 
L 251.666427 217.102414 
L 251.785636 217.472122 
L 252.072245 219.316025 
L 252.318273 219.96811 
L 252.544009 220.932766 
L 253.173027 223.861962 
L 253.175564 223.861479 
L 253.208536 223.66048 
L 253.561091 221.187738 
L 253.563627 221.188153 
L 253.654936 221.319458 
L 253.8477 222.112078 
L 254.418382 225.091443 
L 254.509691 225.035437 
L 254.704991 225.02804 
L 254.88 225.340632 
L 255.227482 226.537345 
L 256.115209 229.590502 
L 256.647845 230.61966 
L 257.1957 231.213866 
L 257.248964 231.232275 
L 257.281936 231.145059 
L 257.408755 230.157256 
L 258.014945 222.607079 
L 258.141764 221.970295 
L 258.382718 221.181171 
L 258.4791 221.313895 
L 258.671864 222.084122 
L 259.110655 224.292926 
L 259.186745 224.185503 
L 259.615391 222.977326 
L 259.7067 223.077919 
L 259.907073 223.6639 
L 260.401664 226.010976 
L 260.9064 228.09617 
L 260.929227 228.080428 
L 261.066191 227.756044 
L 261.337582 227.32594 
L 261.494836 227.414615 
L 261.751009 227.894467 
L 263.113036 230.846918 
L 263.184055 230.751843 
L 263.394573 229.822796 
L 263.698936 228.954651 
L 263.889164 228.909308 
L 264.107291 229.142421 
L 264.571445 229.87837 
L 264.647536 229.768785 
L 265.139591 228.998282 
L 265.2867 228.900174 
L 265.499755 227.695369 
L 265.750855 226.955254 
L 265.890355 226.990243 
L 266.090727 227.375483 
L 266.669018 229.174235 
L 267.287891 230.705737 
L 267.823064 231.470809 
L 268.401355 231.918118 
L 269.157191 232.207728 
L 269.996727 232.313669 
L 270.133691 231.866249 
L 270.575018 230.441316 
L 270.646036 230.19249 
L 271.277591 224.160892 
L 271.371436 224.176505 
L 271.391727 224.203305 
L 271.523618 224.439362 
L 271.584491 224.299106 
L 271.683409 223.567581 
L 271.972555 221.063765 
L 272.264236 220.736441 
L 272.266773 220.737799 
L 272.388518 220.934791 
L 272.601573 221.816813 
L 273.177327 225.512305 
L 273.819027 228.904688 
L 274.328836 230.499649 
L 274.417609 230.617561 
L 274.468336 230.543675 
L 274.691536 229.705945 
L 274.960391 229.164841 
L 275.1354 229.193497 
L 275.3865 229.529396 
L 275.622382 229.961252 
L 275.6655 229.797837 
L 276.106827 227.695854 
L 276.236182 227.80832 
L 276.494891 228.430288 
L 276.974264 229.84962 
L 277.014845 229.609725 
L 277.656545 224.280793 
L 277.760536 224.178959 
L 277.801118 224.213337 
L 277.948227 224.583327 
L 278.305855 226.256298 
L 278.808055 228.549692 
L 278.843564 228.468953 
L 278.960236 227.413488 
L 279.274745 225.158026 
L 279.452291 224.966061 
L 279.4599 224.969184 
L 279.604473 225.15973 
L 279.873327 225.974109 
L 280.497273 228.437308 
L 280.578436 228.202432 
L 280.928455 227.109985 
L 281.055273 227.200952 
L 281.281009 227.735578 
L 282.582164 231.304409 
L 283.112264 231.937555 
L 283.713382 232.310956 
L 283.893464 232.273365 
L 284.050718 231.640222 
L 284.443855 230.247274 
L 284.667055 230.10541 
L 284.885182 230.249559 
L 285.105845 230.509391 
L 285.148964 230.378471 
L 285.671455 228.044966 
L 285.734864 228.083331 
L 285.925091 228.42938 
L 286.607373 230.402842 
L 286.777309 230.790068 
L 286.820427 230.658391 
L 287.312482 228.66484 
L 287.317555 228.665979 
L 287.469736 228.818841 
L 287.794391 229.55657 
L 288.639 231.458139 
L 289.184318 232.128183 
L 289.780364 232.511578 
L 289.9224 232.562801 
L 289.940155 232.469625 
L 290.087264 230.348102 
L 290.386555 227.485734 
L 290.586927 227.112153 
L 290.713745 227.237441 
L 290.962309 227.896658 
L 292.111282 231.286456 
L 292.2102 231.460385 
L 292.235564 231.289695 
L 292.651527 227.776567 
L 292.770736 227.797679 
L 292.778345 227.806468 
L 292.973645 228.219441 
L 294.345818 231.703262 
L 294.683155 232.077636 
L 294.708518 232.011253 
L 294.799827 231.085173 
L 295.203109 226.820027 
L 295.370509 226.566145 
L 295.385727 226.572144 
L 295.520155 226.771596 
L 295.8093 227.717383 
L 295.842273 227.826486 
L 295.882855 227.588843 
L 296.443391 223.268757 
L 296.451 223.270325 
L 296.552455 223.417021 
L 296.714782 223.85612 
L 296.7858 223.713182 
L 297.021682 223.23987 
L 297.049582 223.258158 
L 297.1764 223.536562 
L 297.445255 224.806409 
L 298.439509 229.789305 
L 298.939173 231.092222 
L 299.4363 231.808745 
L 299.454055 231.820495 
L 299.479418 231.707245 
L 299.591018 229.912009 
L 299.913136 225.521775 
L 300.108436 225.042045 
L 300.110973 225.042506 
L 300.222573 225.181309 
L 300.448309 225.934459 
L 301.544018 230.305247 
L 301.579527 230.204736 
L 301.9194 228.011021 
L 302.244055 225.502322 
L 302.373409 224.975312 
L 302.657482 223.986357 
L 302.766545 224.066813 
L 302.946627 224.605693 
L 303.418391 226.956641 
L 303.730364 228.403323 
L 303.776018 228.233221 
L 304.174227 226.372717 
L 304.1793 226.373842 
L 304.301045 226.525057 
L 304.559755 227.319256 
L 304.978255 228.484745 
L 304.9884 228.481518 
L 305.300373 228.246886 
L 305.411973 227.415756 
L 305.871055 223.803853 
L 306.142445 223.01862 
L 306.256582 223.101006 
L 306.4392 223.630042 
L 306.850091 225.686306 
L 307.278736 227.873489 
L 307.326927 227.69959 
L 307.598318 226.807445 
L 307.714991 226.943774 
L 307.9737 227.707637 
L 308.037109 227.923585 
L 308.075155 227.672044 
L 308.6433 222.609299 
L 308.767582 222.406928 
L 308.803091 222.434091 
L 308.932445 222.768948 
L 309.2292 224.319925 
L 310.116927 229.037324 
L 310.6242 230.519482 
L 311.121327 231.33227 
L 311.253218 231.446106 
L 311.291264 231.369595 
L 311.435836 230.55764 
L 311.993836 225.799921 
L 312.118118 225.834324 
L 312.120655 225.837541 
L 312.303273 226.2553 
L 312.792791 228.127371 
L 313.4421 230.229945 
L 313.9443 231.167879 
L 313.992491 230.996085 
L 314.583464 228.022512 
L 314.733109 228.135879 
L 315.009573 228.715168 
L 315.686782 230.403772 
L 315.732436 230.265248 
L 316.272682 228.012633 
L 316.422327 228.146817 
L 316.5948 228.456003 
L 316.642991 228.288085 
L 317.043736 226.658191 
L 317.170555 226.796618 
L 317.426727 227.514682 
L 317.873127 228.993628 
L 317.936536 228.863892 
L 318.334745 227.911847 
L 318.486927 228.062366 
L 318.791291 228.773704 
L 319.729745 231.038495 
L 320.275064 231.740684 
L 320.871109 232.149882 
L 321.6726 232.413184 
L 322.281327 232.435698 
L 322.415755 231.732432 
L 323.242609 226.980219 
L 323.371964 227.021786 
L 323.564727 227.434721 
L 324.143018 229.426385 
L 324.746673 231.063929 
L 324.888709 231.302872 
L 324.931827 231.203306 
L 325.114445 229.964703 
L 325.380764 228.934021 
L 325.5507 228.8868 
L 325.746 229.142204 
L 326.2761 230.349487 
L 326.920336 231.548696 
L 327.478336 232.135801 
L 327.574718 232.164573 
L 327.605155 232.100769 
L 327.775091 231.25785 
L 328.221491 229.455371 
L 328.497955 228.831548 
L 328.665355 228.854727 
L 328.741445 228.888719 
L 328.776955 228.80423 
L 328.964645 227.703104 
L 329.195455 227.051723 
L 329.319736 227.120786 
L 329.494745 227.450053 
L 329.545473 227.261555 
L 329.733164 225.315195 
L 330.060355 222.33156 
L 330.156736 222.228375 
L 330.199855 222.269527 
L 330.341891 222.68736 
L 330.669082 224.527351 
L 330.7959 225.283607 
L 330.856773 225.011994 
L 331.105336 224.077284 
L 331.107873 224.077745 
L 331.206791 224.214774 
L 331.417309 225.019026 
L 332.647445 230.403636 
L 332.951809 231.039619 
L 332.984782 230.97747 
L 333.121745 230.123788 
L 333.796418 226.105756 
L 333.925773 226.232726 
L 334.164191 226.876298 
L 335.478027 230.940122 
L 335.701227 231.280874 
L 335.736736 231.185025 
L 335.906673 229.765408 
L 336.172991 228.504493 
L 336.348 228.417802 
L 336.528082 228.647373 
L 336.971945 229.698104 
L 337.669445 231.152716 
L 338.224909 231.814996 
L 338.838709 232.203306 
L 339.683318 232.456117 
L 341.326882 232.671066 
L 342.972982 232.723401 
L 343.135309 231.95076 
L 343.541127 229.098847 
L 344.263991 220.918058 
L 344.322327 220.97514 
L 344.464364 221.470957 
L 344.799164 223.657047 
L 345.258245 226.854243 
L 345.301364 226.58188 
L 345.631091 224.340626 
L 345.730009 224.41365 
L 345.905018 224.979391 
L 346.518818 228.096878 
L 347.0895 230.276398 
L 347.436982 231.043869 
L 347.462345 231.018678 
L 347.584091 230.613156 
L 347.964545 228.447286 
L 348.438845 225.062685 
L 348.588491 224.90298 
L 348.611318 224.916322 
L 348.753355 225.17077 
L 349.045036 226.269386 
L 349.567527 228.503843 
L 349.6284 228.371501 
L 350.034218 227.179114 
L 350.054509 227.187437 
L 350.204155 227.397728 
L 350.531345 228.356222 
L 351.375955 230.807004 
L 351.906055 231.658809 
L 352.458982 232.140777 
L 353.148873 232.437446 
L 353.377145 232.437413 
L 353.387291 232.395666 
L 353.567373 230.993871 
L 354.340964 226.121012 
L 354.602209 225.36763 
L 354.726491 225.427707 
L 354.756927 225.451103 
L 354.794973 225.342903 
L 355.406236 223.049058 
L 355.5153 223.139404 
L 355.695382 223.703564 
L 356.124027 225.998303 
L 356.841818 229.4795 
L 357.288218 230.761322 
L 357.303436 230.741959 
L 357.3846 230.223792 
L 357.7194 228.284962 
L 357.874118 228.206178 
L 357.884264 228.21254 
L 357.990791 228.277733 
L 358.0263 228.177798 
L 358.460018 226.562568 
L 358.523427 226.608019 
L 358.706045 226.990477 
L 358.924173 227.674848 
L 358.979973 227.437048 
L 360.443455 217.77907 
L 360.471355 217.79633 
L 360.577882 218.075769 
L 360.803618 219.447532 
L 361.042036 221.246092 
L 361.1232 221.049305 
L 361.2348 220.899537 
L 361.277918 220.944171 
L 361.412345 221.387579 
L 361.739536 223.453429 
L 361.825773 223.892796 
L 361.889182 223.734936 
L 362.130136 223.155069 
L 362.152964 223.16725 
L 362.279782 223.413473 
L 362.317827 223.440055 
L 362.366018 223.342368 
L 362.452255 222.367322 
L 362.749009 219.763724 
L 363.033082 218.327865 
L 363.0483 218.333278 
L 363.139609 218.520591 
L 363.337445 219.580268 
L 363.542891 220.226053 
L 363.720436 220.521933 
L 363.943636 221.513014 
L 365.191527 228.691494 
L 365.239718 228.299174 
L 365.544082 225.882886 
L 365.645536 225.828383 
L 365.681045 225.859739 
L 365.868736 226.068869 
L 365.927073 225.986634 
L 366.254264 225.606682 
L 366.411518 225.819158 
L 366.713345 226.69741 
L 367.395627 228.952577 
L 367.448891 228.859043 
L 367.946018 227.644811 
L 367.968845 227.654924 
L 368.156536 227.885109 
L 368.567427 228.846695 
L 369.3537 230.570478 
L 369.919309 231.280597 
L 370.540718 231.705506 
L 371.271191 231.947477 
L 371.273727 231.9417 
L 371.352355 231.424693 
L 371.750564 228.824525 
L 371.9484 228.633205 
L 372.1158 228.788435 
L 372.470891 229.515317 
L 373.2876 231.130868 
L 373.5387 231.426543 
L 373.574209 231.352569 
L 373.581818 231.323565 
L 373.581818 231.323565 
" clip-path="url(#p26533d2814)" style="fill: none; stroke: #000000; stroke-width: 1.5; stroke-linecap: square"/>
   </g>
   <g id="line2d_15">
    <path d="M 69.218182 195.4656 
L 69.418555 207.666883 
L 69.753355 217.725934 
L 70.083082 221.254742 
L 70.410273 222.838066 
L 71.531345 229.966556 
L 71.584609 229.867386 
L 72.003109 228.820494 
L 72.020864 228.827557 
L 72.056373 228.839203 
L 72.0792 228.740737 
L 72.672709 225.543975 
L 73.154618 223.89787 
L 73.286509 222.080555 
L 73.560436 219.53674 
L 73.636527 219.461362 
L 73.684718 219.519967 
L 73.824218 220.041461 
L 74.141264 222.300011 
L 74.717018 226.128336 
L 75.186245 227.00924 
L 75.868527 229.515067 
L 76.352973 230.921662 
L 76.373264 230.875495 
L 76.497545 229.887397 
L 76.786691 228.288965 
L 76.931264 228.205052 
L 76.949018 228.216656 
L 77.118955 228.487454 
L 77.572964 229.783247 
L 78.227345 231.377192 
L 78.757445 232.112856 
L 79.325591 232.529284 
L 80.063673 232.780338 
L 81.357218 232.948577 
L 85.227709 233.157086 
L 85.270827 232.769496 
L 85.646209 229.206207 
L 85.818682 229.025827 
L 85.826291 229.028869 
L 85.983545 229.221735 
L 86.361464 230.153902 
L 87.081791 231.782871 
L 87.616964 232.459643 
L 87.830018 232.620581 
L 87.852845 232.538485 
L 88.002491 230.969376 
L 88.273882 229.258075 
L 88.413382 228.666316 
L 88.730427 225.755567 
L 88.816664 225.698429 
L 88.859782 225.741086 
L 88.9587 225.89528 
L 89.001818 225.762121 
L 89.174291 224.219011 
L 89.438073 222.810961 
L 89.519236 222.796346 
L 89.554745 222.839471 
L 89.709464 223.299799 
L 90.059482 225.227112 
L 90.8838 229.656306 
L 90.957355 229.809563 
L 91.013155 229.717472 
L 91.515355 228.55718 
L 91.543255 228.570938 
L 91.730945 228.820728 
L 91.964291 229.342994 
L 92.012482 229.137186 
L 92.096182 227.796764 
L 92.4183 222.029333 
L 92.550191 221.689393 
L 92.5857 221.715657 
L 92.707445 222.063533 
L 92.994055 223.742213 
L 93.894464 229.139508 
L 94.394127 230.766261 
L 94.878573 231.644006 
L 95.395991 232.141341 
L 95.614118 232.22654 
L 95.636945 232.177511 
L 95.789127 231.429915 
L 96.052909 229.253837 
L 96.367418 227.318068 
L 96.550036 227.13566 
L 96.555109 227.137767 
L 96.704755 227.326776 
L 97.006582 228.165544 
L 97.343918 229.286354 
L 97.3845 229.056361 
L 97.749736 226.680896 
L 97.861336 226.711788 
L 97.871482 226.725117 
L 98.059173 227.177283 
L 99.525191 231.468956 
L 99.966518 231.965787 
L 99.9792 231.948429 
L 100.065436 231.510703 
L 100.869464 226.635401 
L 101.006427 226.525346 
L 101.031791 226.541313 
L 101.186509 226.811192 
L 101.536527 227.991821 
L 102.343091 230.626631 
L 102.634773 231.174895 
L 102.672818 231.128114 
L 102.825 230.563478 
L 103.175018 229.506963 
L 103.367782 229.456532 
L 103.613809 229.610092 
L 103.656927 229.476771 
L 104.116009 228.087433 
L 104.265655 228.214418 
L 104.544655 228.828282 
L 104.980909 229.980911 
L 105.041782 229.845901 
L 105.500864 228.525984 
L 105.658118 228.677743 
L 105.675873 228.68115 
L 105.708845 228.578683 
L 105.962482 226.788421 
L 106.393664 221.476985 
L 106.545845 221.132633 
L 106.571209 221.147722 
L 106.685345 221.413606 
L 106.931373 222.704911 
L 107.354945 224.718134 
L 107.692282 225.600973 
L 108.351736 228.222668 
L 108.437973 227.829189 
L 108.752482 226.433065 
L 108.876764 226.478709 
L 109.066991 226.920313 
L 109.797464 229.532681 
L 110.355464 230.932321 
L 110.829764 231.594226 
L 110.8323 231.592823 
L 110.900782 231.425201 
L 111.007309 230.04127 
L 111.375082 225.864261 
L 111.575455 225.434726 
L 111.692127 225.560655 
L 111.915327 226.231546 
L 112.628045 229.049956 
L 112.714282 228.844184 
L 112.909582 227.632327 
L 113.427 219.97416 
L 113.490409 220.04736 
L 113.640055 220.636092 
L 114.017973 223.283267 
L 114.756055 228.084251 
L 115.260791 229.986064 
L 115.747773 231.019639 
L 116.257582 231.604898 
L 116.511218 231.771096 
L 116.536582 231.692636 
L 116.688764 230.391215 
L 116.972836 228.833418 
L 117.160527 228.684387 
L 117.335536 228.866502 
L 117.688091 229.457528 
L 117.761645 229.342501 
L 118.256236 228.460164 
L 118.438855 228.62928 
L 118.788873 229.339935 
L 119.1465 230.168113 
L 119.171864 229.9869 
L 119.658845 225.453057 
L 119.765373 225.540174 
L 119.965745 226.116409 
L 120.153436 226.801815 
L 120.216845 226.623779 
L 120.579545 225.447625 
L 120.582082 225.448216 
L 120.703827 225.595145 
L 120.944782 226.343996 
L 121.875627 229.718274 
L 121.921282 229.667028 
L 122.106436 229.059578 
L 122.385436 228.495413 
L 122.555373 228.534202 
L 122.798864 228.895677 
L 124.305464 231.588617 
L 124.911655 232.010663 
L 125.337764 232.173799 
L 125.350445 232.120351 
L 125.487409 230.493026 
L 125.753727 228.681884 
L 126.179836 227.223172 
L 126.397964 226.868881 
L 126.537464 226.986117 
L 126.786027 227.581368 
L 128.094791 231.16554 
L 128.472709 231.66142 
L 128.490464 231.59371 
L 128.642645 229.60973 
L 128.863309 225.731345 
L 129.099191 223.780803 
L 129.187964 223.700921 
L 129.233618 223.746249 
L 129.3858 224.187155 
L 129.778936 226.219066 
L 130.212655 228.066331 
L 130.220264 228.064479 
L 130.374982 227.893192 
L 130.610864 227.770003 
L 130.796018 227.961344 
L 131.135891 228.716897 
L 132.163118 231.095078 
L 132.716045 231.771266 
L 133.213173 232.109146 
L 133.223318 232.079072 
L 133.317164 230.998277 
L 133.613918 228.50694 
L 133.806682 228.243862 
L 133.953791 228.39706 
L 134.273373 229.153821 
L 135.110373 231.113538 
L 135.379227 231.500389 
L 135.407127 231.407213 
L 135.610036 229.633499 
L 135.868745 228.496773 
L 136.023464 228.453206 
L 136.028536 228.456901 
L 136.216227 228.739825 
L 136.8072 230.229403 
L 137.408318 231.391294 
L 137.712682 231.752324 
L 137.743118 231.688824 
L 137.890227 230.755063 
L 138.235173 229.092608 
L 138.790636 226.635974 
L 138.856582 226.449594 
L 139.247182 224.959658 
L 139.275082 224.972166 
L 139.406973 225.200496 
L 139.685973 226.247934 
L 140.380936 229.193798 
L 140.431664 229.089729 
L 140.890745 227.704786 
L 140.916109 227.715109 
L 141.083509 227.936905 
L 141.448745 228.90008 
L 141.611073 229.309967 
L 141.6618 229.199526 
L 142.118345 227.702202 
L 142.153855 227.718565 
L 142.326327 227.966083 
L 142.727073 229.047234 
L 142.813309 229.280793 
L 142.851355 229.077602 
L 143.416964 224.829181 
L 143.627482 224.185559 
L 143.728936 224.300037 
L 143.929309 224.978118 
L 145.349673 230.670281 
L 145.413082 230.773971 
L 145.453664 230.647952 
L 145.557655 229.346363 
L 145.915282 225.207198 
L 146.092827 224.878869 
L 146.102973 224.882337 
L 146.224718 225.056955 
L 146.475818 225.916365 
L 147.627327 230.277218 
L 147.650155 230.277055 
L 147.685664 230.188421 
L 147.984955 228.628197 
L 148.157427 226.416915 
L 148.611436 222.318104 
L 148.687527 222.293919 
L 148.728109 222.342418 
L 148.885364 222.823454 
L 149.263282 224.899097 
L 150.036873 228.914201 
L 150.549218 230.445749 
L 151.046345 231.279858 
L 151.586591 231.76477 
L 152.273945 232.071294 
L 152.428664 232.083908 
L 152.443882 232.010796 
L 152.565627 230.528078 
L 152.958764 226.054103 
L 153.138845 225.731347 
L 153.148991 225.734485 
L 153.250445 225.736901 
L 153.270736 225.674451 
L 153.633436 224.373069 
L 153.709527 224.450416 
L 153.892145 224.983244 
L 154.394345 227.379978 
L 154.904155 229.513115 
L 154.926982 229.429174 
L 155.373382 226.819284 
L 155.419036 226.84295 
L 155.599118 227.067008 
L 155.659991 226.911537 
L 156.017618 226.003002 
L 156.022691 226.004649 
L 156.157118 226.174432 
L 156.4209 226.970865 
L 157.549582 230.706988 
L 158.036564 231.505303 
L 158.041636 231.497132 
L 158.105045 230.997301 
L 158.424627 228.790724 
L 158.604709 228.639323 
L 158.607245 228.640433 
L 158.774645 228.838266 
L 159.185536 229.786234 
L 159.893182 231.245214 
L 160.446109 231.88996 
L 161.059909 232.265036 
L 161.724436 232.430671 
L 161.818282 232.003579 
L 162.231709 230.069073 
L 162.432082 229.959602 
L 162.487882 229.818327 
L 162.711082 228.185661 
L 162.9495 225.940522 
L 163.195527 224.76019 
L 163.291909 224.750116 
L 163.319809 224.781662 
L 163.484673 225.199949 
L 163.880345 226.98639 
L 164.380009 229.165569 
L 164.415518 229.082593 
L 164.887282 227.382902 
L 164.938009 227.411665 
L 165.039464 227.408699 
L 165.062291 227.373646 
L 165.496009 226.663821 
L 165.551809 226.710543 
L 165.754718 227.107478 
L 166.249309 228.725491 
L 166.612009 229.778126 
L 166.655127 229.725216 
L 166.865645 229.022634 
L 167.131964 228.538249 
L 167.299364 228.586489 
L 167.542855 228.958976 
L 167.700109 229.209732 
L 167.750836 229.134777 
L 168.255573 228.023234 
L 168.313909 228.063545 
L 168.5295 228.420443 
L 168.648709 228.693659 
L 168.684218 228.518843 
L 169.0596 226.398184 
L 169.173736 226.478663 
L 169.333527 226.55245 
L 169.348745 226.540866 
L 169.650573 226.431842 
L 169.838264 226.728801 
L 170.211109 227.845652 
L 170.672727 229.228644 
L 170.718382 229.183089 
L 170.895927 228.675934 
L 170.974555 227.505105 
L 171.405736 218.920915 
L 171.555382 216.934678 
L 171.796336 215.474466 
L 171.892718 215.366266 
L 171.935836 215.41212 
L 172.0728 215.714692 
L 172.131136 215.544154 
L 172.412673 213.548823 
L 173.097491 207.257447 
L 173.163436 207.145619 
L 173.2167 207.23772 
L 173.348591 208.021834 
L 173.647882 211.48695 
L 173.916736 213.351302 
L 174.294655 215.181975 
L 174.741055 219.297207 
L 174.976936 221.221982 
L 175.035273 221.152866 
L 175.217891 220.657952 
L 175.5045 218.94802 
L 175.514645 218.951338 
L 175.603418 219.123619 
L 175.819009 220.199478 
L 175.945827 220.492838 
L 175.986409 220.44029 
L 176.123373 219.846121 
L 176.716882 215.11714 
L 176.889355 211.606961 
L 177.264736 206.361632 
L 177.650264 200.993765 
L 177.878536 199.565835 
L 177.985064 199.353748 
L 178.030718 199.415978 
L 178.147391 200.000166 
L 178.375664 202.531632 
L 178.662273 204.997634 
L 178.784018 205.751411 
L 178.844891 205.474555 
L 179.123891 202.304032 
L 179.402891 199.185559 
L 179.580436 199.000412 
L 179.6058 199.024239 
L 179.707255 199.36163 
L 179.889873 200.940021 
L 180.265255 204.275831 
L 180.288082 204.26816 
L 180.389536 204.30959 
L 180.399682 204.332273 
L 180.673609 205.309965 
L 180.970364 207.095805 
L 181.023627 207.31827 
L 181.069282 207.03133 
L 181.178345 204.027175 
L 181.556264 194.957927 
L 181.721127 193.667471 
L 181.743955 193.689289 
L 181.827655 194.080416 
L 182.073682 196.699643 
L 182.5632 203.000571 
L 183.184609 209.568592 
L 183.217582 209.589842 
L 183.268309 209.495075 
L 183.448391 208.653533 
L 183.656373 204.402127 
L 184.194082 195.534501 
L 184.305682 195.27027 
L 184.3488 195.322175 
L 184.462936 195.837374 
L 184.688673 198.116679 
L 185.340518 205.550533 
L 185.373491 205.529291 
L 185.528209 205.430696 
L 185.563718 205.482568 
L 185.835109 206.279546 
L 186.027873 207.203101 
L 186.147082 207.814132 
L 186.210491 207.685016 
L 186.314482 206.959549 
L 186.672109 203.148605 
L 186.781173 203.16043 
L 186.796391 203.177369 
L 186.973936 203.513473 
L 187.029736 203.305655 
L 187.225036 201.557008 
L 187.531936 198.347236 
L 187.572518 198.334674 
L 187.615636 198.415615 
L 187.744991 199.149454 
L 188.817873 206.834535 
L 189.086727 208.735897 
L 189.284564 210.010449 
L 189.332755 209.950414 
L 189.451964 209.428987 
L 189.657409 207.128553 
L 190.448755 194.93403 
L 190.524845 194.828391 
L 190.575573 194.904152 
L 190.697318 195.564172 
L 191.265464 199.604381 
L 191.298436 199.493782 
L 191.389745 198.310611 
L 191.744836 193.288954 
L 191.790491 193.338664 
L 191.803173 193.376648 
L 191.924918 194.189536 
L 193.157591 207.118072 
L 194.101118 219.267273 
L 194.314173 220.250053 
L 194.648973 221.295383 
L 194.854418 222.12168 
L 194.902609 221.875391 
L 195.087764 219.233695 
L 195.478364 212.297402 
L 195.686345 211.805643 
L 195.846136 211.640319 
L 195.876573 211.665705 
L 196.013536 212.006146 
L 196.421891 213.501788 
L 196.858145 215.409773 
L 196.870827 215.395799 
L 196.974818 214.951515 
L 197.109245 214.647326 
L 197.147291 214.67975 
L 197.340055 215.074531 
L 197.441509 214.925335 
L 197.5734 214.836795 
L 197.606373 214.868378 
L 197.7408 215.231277 
L 198.377427 217.32543 
L 198.542291 217.809464 
L 198.864409 219.634796 
L 199.343782 222.492887 
L 199.397045 222.414465 
L 199.503573 221.842822 
L 199.640536 218.364718 
L 200.023527 209.358614 
L 200.206145 208.559806 
L 200.216291 208.563383 
L 200.338036 208.621013 
L 200.365936 208.530084 
L 200.528264 207.105541 
L 200.797118 203.892522 
L 201.403309 192.730557 
L 201.464182 192.806716 
L 201.469255 192.82171 
L 201.494618 192.866829 
L 201.532664 192.666054 
L 201.735573 189.534504 
L 202.164218 185.042082 
L 202.214945 185.137088 
L 202.336691 185.997594 
L 202.397564 186.381325 
L 202.450827 186.071951 
L 202.580182 183.400095 
L 203.077309 174.412407 
L 203.168618 174.118985 
L 203.219345 174.215042 
L 203.313191 174.617213 
L 203.384209 174.405796 
L 203.462836 174.236652 
L 203.513564 174.341822 
L 203.630236 175.258739 
L 203.947282 179.875406 
L 204.472309 192.263357 
L 204.999873 202.86173 
L 205.1343 203.389809 
L 205.179955 203.237906 
L 205.573091 200.549437 
L 205.679618 200.795896 
L 205.872382 201.338052 
L 205.910427 201.295963 
L 205.983982 200.708743 
L 206.397409 193.915837 
L 206.613 192.380674 
L 206.678945 192.502501 
L 206.922436 193.680727 
L 207.239482 195.38457 
L 207.264845 195.274485 
L 207.475364 192.748776 
L 207.650373 191.975849 
L 207.670664 191.989111 
L 207.759436 192.26821 
L 207.942055 193.76873 
L 208.692818 203.225333 
L 209.004791 206.363116 
L 209.438509 210.62887 
L 209.580545 211.892498 
L 209.633809 211.61657 
L 209.773309 209.377736 
L 210.024409 206.837344 
L 210.077673 206.796576 
L 210.1284 206.877277 
L 210.592555 208.425229 
L 210.894382 210.512566 
L 210.975545 210.320778 
L 211.229182 209.003529 
L 211.452382 207.780424 
L 211.731382 207.919411 
L 211.868345 208.388398 
L 212.266555 210.016269 
L 212.294455 209.989622 
L 212.570918 209.291339 
L 212.837236 207.639636 
L 214.346373 192.180781 
L 214.414855 192.023836 
L 214.468118 192.133609 
L 214.528991 192.4324 
L 214.567036 192.10518 
L 214.830818 189.957533 
L 214.998218 187.822969 
L 215.419255 184.283714 
L 215.599336 184.075239 
L 215.690645 184.157325 
L 215.814927 184.575695 
L 215.8758 184.334999 
L 216.0711 182.368738 
L 216.659536 174.002385 
L 216.895418 171.641149 
L 217.417909 169.717468 
L 217.478782 169.823583 
L 217.785682 171.210819 
L 217.844018 171.585442 
L 217.9125 171.339058 
L 218.062145 171.200675 
L 218.176282 170.830679 
L 218.265055 170.677295 
L 218.315782 170.741438 
L 218.681018 171.555142 
L 218.711455 171.601844 
L 218.762182 171.46277 
L 218.939727 170.811745 
L 218.992991 170.907688 
L 219.1122 171.728254 
L 219.477436 174.325168 
L 219.500264 174.333878 
L 219.535773 174.229262 
L 219.660055 172.993862 
L 219.997391 170.003756 
L 220.098845 169.222338 
L 220.481836 164.718264 
L 220.537636 164.821959 
L 220.661918 165.695057 
L 220.928236 169.536577 
L 221.2047 171.996993 
L 221.458336 174.684 
L 221.843864 181.719958 
L 223.502645 214.72481 
L 223.735991 217.251251 
L 223.789255 216.913568 
L 224.037818 215.596232 
L 224.124055 215.714516 
L 224.314282 216.497377 
L 225.813273 224.051271 
L 225.843709 224.000076 
L 225.970527 223.248871 
L 226.272355 221.909178 
L 226.429609 221.861173 
L 226.434682 221.864836 
L 226.612227 222.137437 
L 226.716218 222.305634 
L 226.766945 222.215063 
L 227.218418 220.975083 
L 227.284364 221.02634 
L 227.474591 221.42374 
L 227.913382 223.00357 
L 228.0123 223.177843 
L 228.060491 223.129992 
L 228.491673 222.565832 
L 228.524645 222.591991 
L 228.725018 222.936669 
L 229.1562 224.244929 
L 230.013491 226.723828 
L 230.4396 227.494782 
L 230.464964 227.455617 
L 230.576564 226.845874 
L 230.924045 225.195153 
L 231.1092 225.091094 
L 231.289282 225.296167 
L 231.672273 226.166473 
L 231.844745 226.568843 
L 231.885327 226.429602 
L 232.017218 224.804664 
L 232.496591 218.441227 
L 232.618336 218.262891 
L 232.653845 218.289914 
L 232.7832 218.618076 
L 232.942991 219.328449 
L 232.988645 218.993621 
L 233.384318 215.499805 
L 233.503527 215.404036 
L 233.7318 214.723101 
L 233.767309 214.749657 
L 233.883982 215.082422 
L 234.124936 216.605437 
L 235.020273 222.749591 
L 235.334782 223.043752 
L 235.398191 222.930661 
L 235.7127 222.501055 
L 235.857273 222.682578 
L 236.174318 223.492762 
L 236.283382 223.298469 
L 236.557309 222.923232 
L 236.696809 223.078143 
L 236.942836 223.776658 
L 237.508445 225.998609 
L 237.569318 225.609368 
L 238.015718 221.893743 
L 238.107027 221.910445 
L 238.127318 221.937919 
L 238.294718 222.401675 
L 238.715755 224.420982 
L 239.354918 227.197411 
L 239.365064 227.190378 
L 239.446227 226.925097 
L 240.339027 223.210098 
L 240.453164 223.308085 
L 240.658609 223.892163 
L 241.424591 227.141696 
L 242.000345 228.888868 
L 242.532982 229.840354 
L 243.103664 230.418376 
L 243.684491 230.728077 
L 243.689564 230.720381 
L 243.780873 230.339006 
L 244.014218 228.223168 
L 244.3338 226.059703 
L 244.4175 225.462032 
L 244.742155 222.319587 
L 244.833464 222.242327 
L 244.876582 222.283418 
L 245.026227 222.695025 
L 245.391464 224.534098 
L 245.492918 224.922295 
L 245.548718 224.804711 
L 245.875909 223.895835 
L 245.906345 223.912197 
L 246.048382 224.169658 
L 246.355282 225.309633 
L 247.314027 228.975731 
L 247.844127 230.090675 
L 248.384373 230.73535 
L 249.023536 231.149451 
L 249.863073 231.429299 
L 249.865609 231.423027 
L 249.936627 230.856781 
L 250.294255 228.220751 
L 250.492091 227.996302 
L 250.6113 227.972994 
L 250.621445 227.920663 
L 250.905518 225.601865 
L 251.062773 223.144612 
L 251.5041 217.120627 
L 251.633455 216.814694 
L 251.668964 216.842362 
L 251.785636 217.193515 
L 252.046882 218.878455 
L 252.267545 219.540463 
L 252.478064 220.285689 
L 252.861055 222.725101 
L 253.086791 223.475648 
L 253.175564 223.592556 
L 253.200927 223.463883 
L 253.561091 220.929954 
L 253.5966 220.953114 
L 253.720882 221.271991 
L 254.004955 222.776473 
L 254.418382 224.855657 
L 254.448818 224.844543 
L 254.722745 224.819813 
L 254.910436 225.199567 
L 255.308645 226.647934 
L 256.097455 229.362081 
L 256.632627 230.429957 
L 257.177945 231.04325 
L 257.248964 231.07697 
L 257.281936 230.990241 
L 257.408755 230.003616 
L 258.017482 222.413895 
L 258.154445 221.697197 
L 258.382718 220.970209 
L 258.385255 220.970637 
L 258.481636 221.104011 
L 258.6744 221.874151 
L 259.110655 224.070017 
L 259.186745 223.964043 
L 259.615391 222.759619 
L 259.7067 222.860297 
L 259.907073 223.446925 
L 260.396591 225.776629 
L 260.9064 227.903449 
L 260.929227 227.888403 
L 261.063655 227.573851 
L 261.337582 227.135775 
L 261.494836 227.222823 
L 261.748473 227.696274 
L 263.125718 230.683998 
L 263.199273 230.544269 
L 263.861264 228.737636 
L 264.061636 228.915149 
L 264.576518 229.714039 
L 264.670364 229.558144 
L 265.101545 228.837224 
L 265.296845 228.696188 
L 265.819336 226.759633 
L 265.870064 226.787055 
L 266.047609 227.081699 
L 266.463573 228.335204 
L 267.199118 230.36352 
L 267.736827 231.219379 
L 268.302436 231.713395 
L 269.010082 232.025768 
L 269.976436 232.204348 
L 270.0855 231.926966 
L 270.709445 229.129544 
L 271.115264 224.528591 
L 271.320709 223.967503 
L 271.427236 224.08296 
L 271.521082 224.251289 
L 271.574345 224.140866 
L 271.678336 223.44072 
L 271.977627 220.843366 
L 272.266773 220.514606 
L 272.274382 220.51908 
L 272.398664 220.735302 
L 272.619327 221.682534 
L 273.291464 226.010109 
L 273.895118 229.012797 
L 274.387173 230.440419 
L 274.432827 230.439763 
L 274.470873 230.371924 
L 274.714364 229.465264 
L 274.973073 228.993007 
L 275.148082 229.036205 
L 275.409327 229.401655 
L 275.622382 229.794772 
L 275.662964 229.647479 
L 276.116973 227.530275 
L 276.119509 227.530725 
L 276.253936 227.670468 
L 276.538009 228.389924 
L 276.974264 229.685818 
L 277.012309 229.471186 
L 277.681909 224.050284 
L 277.770682 224.003252 
L 277.811264 224.044755 
L 277.968518 224.4692 
L 278.366727 226.381003 
L 278.808055 228.367089 
L 278.843564 228.28724 
L 278.960236 227.232586 
L 279.277282 224.942914 
L 279.457364 224.743606 
L 279.464973 224.74676 
L 279.609545 224.939167 
L 279.8784 225.762331 
L 280.497273 228.233634 
L 280.578436 228.002923 
L 280.928455 226.921974 
L 281.055273 227.015406 
L 281.283545 227.561781 
L 282.579627 231.149002 
L 283.109727 231.792557 
L 283.708309 232.171623 
L 283.893464 232.137329 
L 284.050718 231.504472 
L 284.443855 230.107953 
L 284.667055 229.963132 
L 284.885182 230.105015 
L 285.105845 230.363604 
L 285.148964 230.232556 
L 285.673991 227.891388 
L 285.734864 227.92805 
L 285.922555 228.265118 
L 286.531282 230.041131 
L 286.777309 230.636141 
L 286.817891 230.517692 
L 287.315018 228.509557 
L 287.332773 228.515167 
L 287.4951 228.704179 
L 287.865409 229.585346 
L 288.628855 231.292595 
L 289.174173 231.977349 
L 289.767682 232.369807 
L 289.9224 232.427771 
L 289.940155 232.334723 
L 290.087264 230.212932 
L 290.389091 227.330617 
L 290.589464 226.960052 
L 290.718818 227.089491 
L 290.969918 227.759265 
L 292.111282 231.135795 
L 292.2102 231.311547 
L 292.235564 231.141357 
L 292.651527 227.626403 
L 292.770736 227.645437 
L 292.780882 227.65715 
L 292.976182 228.071458 
L 294.353427 231.570837 
L 294.683155 231.938794 
L 294.708518 231.872689 
L 294.799827 230.947257 
L 295.205645 226.658277 
L 295.375582 226.405558 
L 295.388264 226.410739 
L 295.522691 226.60878 
L 295.8093 227.542552 
L 295.842273 227.651481 
L 295.882855 227.413793 
L 296.445927 223.074447 
L 296.453536 223.076066 
L 296.554991 223.222816 
L 296.714782 223.649451 
L 296.7858 223.504697 
L 297.021682 223.026826 
L 297.049582 223.044723 
L 297.1764 223.321942 
L 297.445255 224.593263 
L 298.449655 229.647091 
L 298.951855 230.95766 
L 299.448982 231.674078 
L 299.466736 231.639547 
L 299.476882 231.579732 
L 299.580873 229.976177 
L 299.915673 225.352566 
L 300.110973 224.877828 
L 300.113509 224.878304 
L 300.225109 225.017082 
L 300.450845 225.768475 
L 301.544018 230.142119 
L 301.582064 230.03031 
L 301.929545 227.733511 
L 302.241518 225.343981 
L 302.378482 224.778411 
L 302.660018 223.80377 
L 302.769082 223.88367 
L 302.949164 224.420689 
L 303.415855 226.74666 
L 303.730364 228.215609 
L 303.776018 228.04716 
L 304.174227 226.193759 
L 304.1793 226.194915 
L 304.301045 226.346802 
L 304.559755 227.143027 
L 304.980791 228.314415 
L 304.9884 228.312021 
L 305.297836 228.089425 
L 305.4069 227.301207 
L 305.886273 223.537505 
L 306.147518 222.809194 
L 306.259118 222.892623 
L 306.441736 223.423071 
L 306.852627 225.487274 
L 307.278736 227.676332 
L 307.326927 227.504545 
L 307.595782 226.620119 
L 307.598318 226.62058 
L 307.714991 226.759203 
L 307.9737 227.527824 
L 308.037109 227.745022 
L 308.075155 227.494313 
L 308.645836 222.413733 
L 308.767582 222.215765 
L 308.805627 222.244595 
L 308.937518 222.590962 
L 309.239345 224.179717 
L 310.119464 228.866814 
L 310.626736 230.361783 
L 311.123864 231.184224 
L 311.253218 231.297436 
L 311.291264 231.221553 
L 311.435836 230.410979 
L 311.996373 225.630716 
L 312.120655 225.664699 
L 312.123191 225.667899 
L 312.305809 226.084315 
L 312.790255 227.937466 
L 313.444636 230.071528 
L 313.9443 231.015279 
L 313.946836 231.013494 
L 313.997564 230.812661 
L 314.5581 227.870391 
L 314.702673 227.938225 
L 314.941091 228.384527 
L 315.686782 230.248668 
L 315.745118 230.040057 
L 316.219418 227.861391 
L 316.363991 227.906096 
L 316.5948 228.289092 
L 316.653136 228.061749 
L 317.020909 226.48676 
L 317.140118 226.57112 
L 317.355709 227.10533 
L 317.873127 228.824075 
L 317.951755 228.641945 
L 318.309382 227.738612 
L 318.451418 227.836072 
L 318.705055 228.368078 
L 319.876855 231.117499 
L 320.424709 231.727564 
L 321.051191 232.092023 
L 321.949064 232.335113 
L 322.2864 232.289278 
L 322.430973 231.497915 
L 323.242609 226.808494 
L 323.3745 226.848733 
L 323.567264 227.262427 
L 324.137945 229.236236 
L 324.746673 230.907152 
L 324.888709 231.149656 
L 324.934364 231.040536 
L 325.137273 229.667925 
L 325.395982 228.762487 
L 325.560845 228.739169 
L 325.763755 229.019505 
L 326.385164 230.440991 
L 326.993891 231.503848 
L 327.546818 232.043215 
L 327.612764 231.941226 
L 327.823282 230.871694 
L 328.325482 228.966023 
L 328.556291 228.657308 
L 328.802318 228.537978 
L 329.2335 226.884749 
L 329.243645 226.887705 
L 329.380609 227.058506 
L 329.492209 227.284413 
L 329.537864 227.140332 
L 329.705264 225.520277 
L 330.075573 222.105628 
L 330.161809 222.036284 
L 330.207464 222.084784 
L 330.354573 222.538174 
L 330.699518 224.515687 
L 330.7959 225.077318 
L 330.856773 224.806819 
L 331.105336 223.873966 
L 331.107873 223.87443 
L 331.206791 224.011526 
L 331.417309 224.816685 
L 332.657591 230.263748 
L 332.951809 230.882098 
L 332.987318 230.812209 
L 333.134427 229.879704 
L 333.804027 225.923468 
L 333.8091 225.924459 
L 333.940991 226.070126 
L 334.192091 226.775548 
L 335.429836 230.686111 
L 335.701227 231.123656 
L 335.7342 231.040661 
L 335.883845 229.802194 
L 336.160309 228.370693 
L 336.340391 228.252912 
L 336.512864 228.457127 
L 336.911073 229.381635 
L 337.661836 230.988592 
L 338.219836 231.666437 
L 338.8311 232.061932 
L 339.665564 232.319257 
L 341.248255 232.532553 
L 342.972982 232.59285 
L 343.135309 231.81937 
L 343.541127 228.958862 
L 344.266527 220.728513 
L 344.324864 220.785501 
L 344.4669 221.27964 
L 344.8017 223.462239 
L 345.258245 226.649827 
L 345.3039 226.353452 
L 345.628555 224.143985 
L 345.7224 224.201526 
L 345.727473 224.210465 
L 345.899945 224.758945 
L 346.452873 227.586412 
L 347.046382 229.979357 
L 347.436982 230.885686 
L 347.454736 230.871581 
L 347.558727 230.566164 
L 347.939182 228.533919 
L 348.431236 224.907897 
L 348.588491 224.71792 
L 348.608782 224.728309 
L 348.745745 224.958774 
L 349.024745 225.982158 
L 349.567527 228.316895 
L 349.630936 228.176913 
L 350.034218 227.000847 
L 350.0469 227.00548 
L 350.191473 227.194393 
L 350.495836 228.063716 
L 351.403855 230.70962 
L 351.933955 231.545894 
L 352.489418 232.020455 
L 353.186918 232.313722 
L 353.377145 232.303574 
L 353.387291 232.261858 
L 353.567373 230.859178 
L 354.348573 225.921053 
L 354.604745 225.192697 
L 354.729027 225.252373 
L 354.756927 225.271229 
L 354.794973 225.161747 
L 355.408773 222.840097 
L 355.517836 222.929245 
L 355.697918 223.491142 
L 356.121491 225.759853 
L 356.849427 229.316919 
L 357.290755 230.590662 
L 357.303436 230.572517 
L 357.3846 230.057214 
L 357.721936 228.11654 
L 357.876655 228.042763 
L 357.8868 228.049351 
L 357.988255 228.115832 
L 358.023764 228.022133 
L 358.462555 226.389319 
L 358.536109 226.448168 
L 358.731409 226.88623 
L 358.924173 227.496497 
L 358.977436 227.276369 
L 360.445991 217.535409 
L 360.504327 217.599725 
L 360.643827 218.129836 
L 360.953264 220.398707 
L 361.042036 220.979998 
L 361.113055 220.814332 
L 361.232264 220.636656 
L 361.275382 220.678881 
L 361.407273 221.105766 
L 361.724318 223.097415 
L 361.825773 223.649707 
L 361.889182 223.494972 
L 362.1276 222.92347 
L 362.152964 222.937002 
L 362.282318 223.191457 
L 362.317827 223.214246 
L 362.366018 223.117732 
L 362.452255 222.144152 
L 362.751545 219.514226 
L 363.035618 218.082123 
L 363.0483 218.086462 
L 363.139609 218.268858 
L 363.334909 219.30419 
L 363.542891 219.965027 
L 363.720436 220.258686 
L 363.943636 221.248096 
L 365.191527 228.488882 
L 365.244791 228.036401 
L 365.539009 225.702073 
L 365.643 225.637501 
L 365.678509 225.667525 
L 365.868736 225.88039 
L 365.929609 225.79322 
L 366.2568 225.410574 
L 366.414055 225.621273 
L 366.713345 226.489762 
L 367.395627 228.761236 
L 367.451427 228.661911 
L 367.946018 227.455995 
L 367.961236 227.462083 
L 368.141318 227.668834 
L 368.519236 228.53647 
L 369.366382 230.425052 
L 369.931991 231.137371 
L 370.5534 231.564487 
L 371.271191 231.805196 
L 371.273727 231.799433 
L 371.352355 231.282672 
L 371.7531 228.668935 
L 371.950936 228.478977 
L 372.118336 228.633835 
L 372.473427 229.359998 
L 373.295209 230.988752 
L 373.5387 231.27684 
L 373.574209 231.203322 
L 373.581818 231.174408 
L 373.581818 231.174408 
" clip-path="url(#p26533d2814)" style="fill: none; stroke: #ff0000; stroke-width: 1.5; stroke-linecap: square"/>
   </g>
   <g id="line2d_16">
    <path d="M 81.899894 143.28 
L 84.431164 143.28 
L 84.431164 143.28 
" clip-path="url(#p26533d2814)" style="fill: none; stroke: #000000; stroke-width: 1.5; stroke-linecap: square"/>
   </g>
   <g id="line2d_17">
    <path d="M 81.899894 165.024 
L 81.899894 160.6752 
L 81.899894 156.3264 
L 81.899894 151.9776 
L 81.899894 147.6288 
" clip-path="url(#p26533d2814)" style="fill: none; stroke: #000000; stroke-width: 1.5; stroke-linecap: square"/>
   </g>
   <g id="patch_3">
    <path d="M 54 252 
L 54 34.56 
" style="fill: none; stroke: #000000; stroke-width: 0.8; stroke-linejoin: miter; stroke-linecap: square"/>
   </g>
   <g id="patch_4">
    <path d="M 54 252 
L 388.8 252 
" style="fill: none; stroke: #000000; stroke-width: 0.8; stroke-linejoin: miter; stroke-linecap: square"/>
   </g>
   <g id="text_16">
    <!-- 500 ms -->
    <g transform="translate(81.899894 138.9312)scale(0.1 -0.1)">
     <use xlink:href="#DejaVuSans-35"/>
     <use xlink:href="#DejaVuSans-30" x="63.623047"/>
     <use xlink:href="#DejaVuSans-30" x="127.246094"/>
     <use xlink:href="#DejaVuSans-20" x="190.869141"/>
     <use xlink:href="#DejaVuSans-6d" x="222.65625"/>
     <use xlink:href="#DejaVuSans-73" x="320.068359"/>
    </g>
   </g>
   <g id="text_17">
    <!-- 5 mV -->
    <g transform="translate(82.153529 156.3264)scale(0.1 -0.1)">
     <use xlink:href="#DejaVuSans-35"/>
     <use xlink:href="#DejaVuSans-20" x="63.623047"/>
     <use xlink:href="#DejaVuSans-6d" x="95.410156"/>
     <use xlink:href="#DejaVuSans-56" x="192.822266"/>
    </g>
   </g>
  </g>
 </g>
 <defs>
  <clipPath id="p26533d2814">
   <rect x="54" y="34.56" width="334.8" height="217.44"/>
  </clipPath>
 </defs>
</svg>
