<?xml version="1.0" encoding="utf-8" standalone="no"?>
<!DOCTYPE svg PUBLIC "-//W3C//DTD SVG 1.1//EN"
  "http://www.w3.org/Graphics/SVG/1.1/DTD/svg11.dtd">
<svg xmlns:xlink="http://www.w3.org/1999/xlink" width="432pt" height="288pt" viewBox="0 0 432 288" xmlns="http://www.w3.org/2000/svg" version="1.1">
 <metadata>
  <rdf:RDF xmlns:dc="http://purl.org/dc/elements/1.1/" xmlns:cc="http://creativecommons.org/ns#" xmlns:rdf="http://www.w3.org/1999/02/22-rdf-syntax-ns#">
   <cc:Work>
    <dc:type rdf:resource="http://purl.org/dc/dcmitype/StillImage"/>
    <dc:date>2022-07-12T18:39:06.260859</dc:date>
    <dc:format>image/svg+xml</dc:format>
    <dc:creator>
     <cc:Agent>
      <dc:title>Matplotlib v3.5.2, https://matplotlib.org/</dc:title>
     </cc:Agent>
    </dc:creator>
   </cc:Work>
  </rdf:RDF>
 </metadata>
 <defs>
  <style type="text/css">*{stroke-linejoin: round; stroke-linecap: butt}</style>
 </defs>
 <g id="figure_1">
  <g id="patch_1">
   <path d="M 0 288 
L 432 288 
L 432 0 
L 0 0 
L 0 288 
z
" style="fill: none"/>
  </g>
  <g id="axes_1">
   <g id="patch_2">
    <path d="M 54 252 
L 388.8 252 
L 388.8 34.56 
L 54 34.56 
z
" style="fill: #ffffff"/>
   </g>
   <g id="matplotlib.axis_1">
    <g id="xtick_1">
     <g id="line2d_1">
      <defs>
       <path id="ma7e7e41138" d="M 0 0 
L 0 3.5 
" style="stroke: #000000; stroke-width: 0.8"/>
      </defs>
      <g>
       <use xlink:href="#ma7e7e41138" x="69.218182" y="252" style="stroke: #000000; stroke-width: 0.8"/>
      </g>
     </g>
     <g id="text_1">
      <!-- 0 -->
      <g transform="translate(66.036932 266.598437)scale(0.1 -0.1)">
       <defs>
        <path id="DejaVuSans-30" d="M 2034 4250 
Q 1547 4250 1301 3770 
Q 1056 3291 1056 2328 
Q 1056 1369 1301 889 
Q 1547 409 2034 409 
Q 2525 409 2770 889 
Q 3016 1369 3016 2328 
Q 3016 3291 2770 3770 
Q 2525 4250 2034 4250 
z
M 2034 4750 
Q 2819 4750 3233 4129 
Q 3647 3509 3647 2328 
Q 3647 1150 3233 529 
Q 2819 -91 2034 -91 
Q 1250 -91 836 529 
Q 422 1150 422 2328 
Q 422 3509 836 4129 
Q 1250 4750 2034 4750 
z
" transform="scale(0.015625)"/>
       </defs>
       <use xlink:href="#DejaVuSans-30"/>
      </g>
     </g>
    </g>
    <g id="xtick_2">
     <g id="line2d_2">
      <g>
       <use xlink:href="#ma7e7e41138" x="119.945032" y="252" style="stroke: #000000; stroke-width: 0.8"/>
      </g>
     </g>
     <g id="text_2">
      <!-- 10000 -->
      <g transform="translate(104.038782 266.598437)scale(0.1 -0.1)">
       <defs>
        <path id="DejaVuSans-31" d="M 794 531 
L 1825 531 
L 1825 4091 
L 703 3866 
L 703 4441 
L 1819 4666 
L 2450 4666 
L 2450 531 
L 3481 531 
L 3481 0 
L 794 0 
L 794 531 
z
" transform="scale(0.015625)"/>
       </defs>
       <use xlink:href="#DejaVuSans-31"/>
       <use xlink:href="#DejaVuSans-30" x="63.623047"/>
       <use xlink:href="#DejaVuSans-30" x="127.246094"/>
       <use xlink:href="#DejaVuSans-30" x="190.869141"/>
       <use xlink:href="#DejaVuSans-30" x="254.492188"/>
      </g>
     </g>
    </g>
    <g id="xtick_3">
     <g id="line2d_3">
      <g>
       <use xlink:href="#ma7e7e41138" x="170.671882" y="252" style="stroke: #000000; stroke-width: 0.8"/>
      </g>
     </g>
     <g id="text_3">
      <!-- 20000 -->
      <g transform="translate(154.765632 266.598437)scale(0.1 -0.1)">
       <defs>
        <path id="DejaVuSans-32" d="M 1228 531 
L 3431 531 
L 3431 0 
L 469 0 
L 469 531 
Q 828 903 1448 1529 
Q 2069 2156 2228 2338 
Q 2531 2678 2651 2914 
Q 2772 3150 2772 3378 
Q 2772 3750 2511 3984 
Q 2250 4219 1831 4219 
Q 1534 4219 1204 4116 
Q 875 4013 500 3803 
L 500 4441 
Q 881 4594 1212 4672 
Q 1544 4750 1819 4750 
Q 2544 4750 2975 4387 
Q 3406 4025 3406 3419 
Q 3406 3131 3298 2873 
Q 3191 2616 2906 2266 
Q 2828 2175 2409 1742 
Q 1991 1309 1228 531 
z
" transform="scale(0.015625)"/>
       </defs>
       <use xlink:href="#DejaVuSans-32"/>
       <use xlink:href="#DejaVuSans-30" x="63.623047"/>
       <use xlink:href="#DejaVuSans-30" x="127.246094"/>
       <use xlink:href="#DejaVuSans-30" x="190.869141"/>
       <use xlink:href="#DejaVuSans-30" x="254.492188"/>
      </g>
     </g>
    </g>
    <g id="xtick_4">
     <g id="line2d_4">
      <g>
       <use xlink:href="#ma7e7e41138" x="221.398732" y="252" style="stroke: #000000; stroke-width: 0.8"/>
      </g>
     </g>
     <g id="text_4">
      <!-- 30000 -->
      <g transform="translate(205.492482 266.598437)scale(0.1 -0.1)">
       <defs>
        <path id="DejaVuSans-33" d="M 2597 2516 
Q 3050 2419 3304 2112 
Q 3559 1806 3559 1356 
Q 3559 666 3084 287 
Q 2609 -91 1734 -91 
Q 1441 -91 1130 -33 
Q 819 25 488 141 
L 488 750 
Q 750 597 1062 519 
Q 1375 441 1716 441 
Q 2309 441 2620 675 
Q 2931 909 2931 1356 
Q 2931 1769 2642 2001 
Q 2353 2234 1838 2234 
L 1294 2234 
L 1294 2753 
L 1863 2753 
Q 2328 2753 2575 2939 
Q 2822 3125 2822 3475 
Q 2822 3834 2567 4026 
Q 2313 4219 1838 4219 
Q 1578 4219 1281 4162 
Q 984 4106 628 3988 
L 628 4550 
Q 988 4650 1302 4700 
Q 1616 4750 1894 4750 
Q 2613 4750 3031 4423 
Q 3450 4097 3450 3541 
Q 3450 3153 3228 2886 
Q 3006 2619 2597 2516 
z
" transform="scale(0.015625)"/>
       </defs>
       <use xlink:href="#DejaVuSans-33"/>
       <use xlink:href="#DejaVuSans-30" x="63.623047"/>
       <use xlink:href="#DejaVuSans-30" x="127.246094"/>
       <use xlink:href="#DejaVuSans-30" x="190.869141"/>
       <use xlink:href="#DejaVuSans-30" x="254.492188"/>
      </g>
     </g>
    </g>
    <g id="xtick_5">
     <g id="line2d_5">
      <g>
       <use xlink:href="#ma7e7e41138" x="272.125582" y="252" style="stroke: #000000; stroke-width: 0.8"/>
      </g>
     </g>
     <g id="text_5">
      <!-- 40000 -->
      <g transform="translate(256.219332 266.598437)scale(0.1 -0.1)">
       <defs>
        <path id="DejaVuSans-34" d="M 2419 4116 
L 825 1625 
L 2419 1625 
L 2419 4116 
z
M 2253 4666 
L 3047 4666 
L 3047 1625 
L 3713 1625 
L 3713 1100 
L 3047 1100 
L 3047 0 
L 2419 0 
L 2419 1100 
L 313 1100 
L 313 1709 
L 2253 4666 
z
" transform="scale(0.015625)"/>
       </defs>
       <use xlink:href="#DejaVuSans-34"/>
       <use xlink:href="#DejaVuSans-30" x="63.623047"/>
       <use xlink:href="#DejaVuSans-30" x="127.246094"/>
       <use xlink:href="#DejaVuSans-30" x="190.869141"/>
       <use xlink:href="#DejaVuSans-30" x="254.492188"/>
      </g>
     </g>
    </g>
    <g id="xtick_6">
     <g id="line2d_6">
      <g>
       <use xlink:href="#ma7e7e41138" x="322.852432" y="252" style="stroke: #000000; stroke-width: 0.8"/>
      </g>
     </g>
     <g id="text_6">
      <!-- 50000 -->
      <g transform="translate(306.946182 266.598437)scale(0.1 -0.1)">
       <defs>
        <path id="DejaVuSans-35" d="M 691 4666 
L 3169 4666 
L 3169 4134 
L 1269 4134 
L 1269 2991 
Q 1406 3038 1543 3061 
Q 1681 3084 1819 3084 
Q 2600 3084 3056 2656 
Q 3513 2228 3513 1497 
Q 3513 744 3044 326 
Q 2575 -91 1722 -91 
Q 1428 -91 1123 -41 
Q 819 9 494 109 
L 494 744 
Q 775 591 1075 516 
Q 1375 441 1709 441 
Q 2250 441 2565 725 
Q 2881 1009 2881 1497 
Q 2881 1984 2565 2268 
Q 2250 2553 1709 2553 
Q 1456 2553 1204 2497 
Q 953 2441 691 2322 
L 691 4666 
z
" transform="scale(0.015625)"/>
       </defs>
       <use xlink:href="#DejaVuSans-35"/>
       <use xlink:href="#DejaVuSans-30" x="63.623047"/>
       <use xlink:href="#DejaVuSans-30" x="127.246094"/>
       <use xlink:href="#DejaVuSans-30" x="190.869141"/>
       <use xlink:href="#DejaVuSans-30" x="254.492188"/>
      </g>
     </g>
    </g>
    <g id="xtick_7">
     <g id="line2d_7">
      <g>
       <use xlink:href="#ma7e7e41138" x="373.579282" y="252" style="stroke: #000000; stroke-width: 0.8"/>
      </g>
     </g>
     <g id="text_7">
      <!-- 60000 -->
      <g transform="translate(357.673032 266.598437)scale(0.1 -0.1)">
       <defs>
        <path id="DejaVuSans-36" d="M 2113 2584 
Q 1688 2584 1439 2293 
Q 1191 2003 1191 1497 
Q 1191 994 1439 701 
Q 1688 409 2113 409 
Q 2538 409 2786 701 
Q 3034 994 3034 1497 
Q 3034 2003 2786 2293 
Q 2538 2584 2113 2584 
z
M 3366 4563 
L 3366 3988 
Q 3128 4100 2886 4159 
Q 2644 4219 2406 4219 
Q 1781 4219 1451 3797 
Q 1122 3375 1075 2522 
Q 1259 2794 1537 2939 
Q 1816 3084 2150 3084 
Q 2853 3084 3261 2657 
Q 3669 2231 3669 1497 
Q 3669 778 3244 343 
Q 2819 -91 2113 -91 
Q 1303 -91 875 529 
Q 447 1150 447 2328 
Q 447 3434 972 4092 
Q 1497 4750 2381 4750 
Q 2619 4750 2861 4703 
Q 3103 4656 3366 4563 
z
" transform="scale(0.015625)"/>
       </defs>
       <use xlink:href="#DejaVuSans-36"/>
       <use xlink:href="#DejaVuSans-30" x="63.623047"/>
       <use xlink:href="#DejaVuSans-30" x="127.246094"/>
       <use xlink:href="#DejaVuSans-30" x="190.869141"/>
       <use xlink:href="#DejaVuSans-30" x="254.492188"/>
      </g>
     </g>
    </g>
    <g id="text_8">
     <!-- Time(ms) -->
     <g transform="translate(197.789844 280.276563)scale(0.1 -0.1)">
      <defs>
       <path id="DejaVuSans-54" d="M -19 4666 
L 3928 4666 
L 3928 4134 
L 2272 4134 
L 2272 0 
L 1638 0 
L 1638 4134 
L -19 4134 
L -19 4666 
z
" transform="scale(0.015625)"/>
       <path id="DejaVuSans-69" d="M 603 3500 
L 1178 3500 
L 1178 0 
L 603 0 
L 603 3500 
z
M 603 4863 
L 1178 4863 
L 1178 4134 
L 603 4134 
L 603 4863 
z
" transform="scale(0.015625)"/>
       <path id="DejaVuSans-6d" d="M 3328 2828 
Q 3544 3216 3844 3400 
Q 4144 3584 4550 3584 
Q 5097 3584 5394 3201 
Q 5691 2819 5691 2113 
L 5691 0 
L 5113 0 
L 5113 2094 
Q 5113 2597 4934 2840 
Q 4756 3084 4391 3084 
Q 3944 3084 3684 2787 
Q 3425 2491 3425 1978 
L 3425 0 
L 2847 0 
L 2847 2094 
Q 2847 2600 2669 2842 
Q 2491 3084 2119 3084 
Q 1678 3084 1418 2786 
Q 1159 2488 1159 1978 
L 1159 0 
L 581 0 
L 581 3500 
L 1159 3500 
L 1159 2956 
Q 1356 3278 1631 3431 
Q 1906 3584 2284 3584 
Q 2666 3584 2933 3390 
Q 3200 3197 3328 2828 
z
" transform="scale(0.015625)"/>
       <path id="DejaVuSans-65" d="M 3597 1894 
L 3597 1613 
L 953 1613 
Q 991 1019 1311 708 
Q 1631 397 2203 397 
Q 2534 397 2845 478 
Q 3156 559 3463 722 
L 3463 178 
Q 3153 47 2828 -22 
Q 2503 -91 2169 -91 
Q 1331 -91 842 396 
Q 353 884 353 1716 
Q 353 2575 817 3079 
Q 1281 3584 2069 3584 
Q 2775 3584 3186 3129 
Q 3597 2675 3597 1894 
z
M 3022 2063 
Q 3016 2534 2758 2815 
Q 2500 3097 2075 3097 
Q 1594 3097 1305 2825 
Q 1016 2553 972 2059 
L 3022 2063 
z
" transform="scale(0.015625)"/>
       <path id="DejaVuSans-28" d="M 1984 4856 
Q 1566 4138 1362 3434 
Q 1159 2731 1159 2009 
Q 1159 1288 1364 580 
Q 1569 -128 1984 -844 
L 1484 -844 
Q 1016 -109 783 600 
Q 550 1309 550 2009 
Q 550 2706 781 3412 
Q 1013 4119 1484 4856 
L 1984 4856 
z
" transform="scale(0.015625)"/>
       <path id="DejaVuSans-73" d="M 2834 3397 
L 2834 2853 
Q 2591 2978 2328 3040 
Q 2066 3103 1784 3103 
Q 1356 3103 1142 2972 
Q 928 2841 928 2578 
Q 928 2378 1081 2264 
Q 1234 2150 1697 2047 
L 1894 2003 
Q 2506 1872 2764 1633 
Q 3022 1394 3022 966 
Q 3022 478 2636 193 
Q 2250 -91 1575 -91 
Q 1294 -91 989 -36 
Q 684 19 347 128 
L 347 722 
Q 666 556 975 473 
Q 1284 391 1588 391 
Q 1994 391 2212 530 
Q 2431 669 2431 922 
Q 2431 1156 2273 1281 
Q 2116 1406 1581 1522 
L 1381 1569 
Q 847 1681 609 1914 
Q 372 2147 372 2553 
Q 372 3047 722 3315 
Q 1072 3584 1716 3584 
Q 2034 3584 2315 3537 
Q 2597 3491 2834 3397 
z
" transform="scale(0.015625)"/>
       <path id="DejaVuSans-29" d="M 513 4856 
L 1013 4856 
Q 1481 4119 1714 3412 
Q 1947 2706 1947 2009 
Q 1947 1309 1714 600 
Q 1481 -109 1013 -844 
L 513 -844 
Q 928 -128 1133 580 
Q 1338 1288 1338 2009 
Q 1338 2731 1133 3434 
Q 928 4138 513 4856 
z
" transform="scale(0.015625)"/>
      </defs>
      <use xlink:href="#DejaVuSans-54"/>
      <use xlink:href="#DejaVuSans-69" x="57.958984"/>
      <use xlink:href="#DejaVuSans-6d" x="85.742188"/>
      <use xlink:href="#DejaVuSans-65" x="183.154297"/>
      <use xlink:href="#DejaVuSans-28" x="244.677734"/>
      <use xlink:href="#DejaVuSans-6d" x="283.691406"/>
      <use xlink:href="#DejaVuSans-73" x="381.103516"/>
      <use xlink:href="#DejaVuSans-29" x="433.203125"/>
     </g>
    </g>
   </g>
   <g id="matplotlib.axis_2">
    <g id="ytick_1">
     <g id="line2d_8">
      <defs>
       <path id="m52e0fee3da" d="M 0 0 
L -3.5 0 
" style="stroke: #000000; stroke-width: 0.8"/>
      </defs>
      <g>
       <use xlink:href="#m52e0fee3da" x="54" y="252" style="stroke: #000000; stroke-width: 0.8"/>
      </g>
     </g>
     <g id="text_9">
      <!-- −100 -->
      <g transform="translate(19.532812 255.799219)scale(0.1 -0.1)">
       <defs>
        <path id="DejaVuSans-2212" d="M 678 2272 
L 4684 2272 
L 4684 1741 
L 678 1741 
L 678 2272 
z
" transform="scale(0.015625)"/>
       </defs>
       <use xlink:href="#DejaVuSans-2212"/>
       <use xlink:href="#DejaVuSans-31" x="83.789062"/>
       <use xlink:href="#DejaVuSans-30" x="147.412109"/>
       <use xlink:href="#DejaVuSans-30" x="211.035156"/>
      </g>
     </g>
    </g>
    <g id="ytick_2">
     <g id="line2d_9">
      <g>
       <use xlink:href="#m52e0fee3da" x="54" y="220.937143" style="stroke: #000000; stroke-width: 0.8"/>
      </g>
     </g>
     <g id="text_10">
      <!-- −80 -->
      <g transform="translate(25.895312 224.736362)scale(0.1 -0.1)">
       <defs>
        <path id="DejaVuSans-38" d="M 2034 2216 
Q 1584 2216 1326 1975 
Q 1069 1734 1069 1313 
Q 1069 891 1326 650 
Q 1584 409 2034 409 
Q 2484 409 2743 651 
Q 3003 894 3003 1313 
Q 3003 1734 2745 1975 
Q 2488 2216 2034 2216 
z
M 1403 2484 
Q 997 2584 770 2862 
Q 544 3141 544 3541 
Q 544 4100 942 4425 
Q 1341 4750 2034 4750 
Q 2731 4750 3128 4425 
Q 3525 4100 3525 3541 
Q 3525 3141 3298 2862 
Q 3072 2584 2669 2484 
Q 3125 2378 3379 2068 
Q 3634 1759 3634 1313 
Q 3634 634 3220 271 
Q 2806 -91 2034 -91 
Q 1263 -91 848 271 
Q 434 634 434 1313 
Q 434 1759 690 2068 
Q 947 2378 1403 2484 
z
M 1172 3481 
Q 1172 3119 1398 2916 
Q 1625 2713 2034 2713 
Q 2441 2713 2670 2916 
Q 2900 3119 2900 3481 
Q 2900 3844 2670 4047 
Q 2441 4250 2034 4250 
Q 1625 4250 1398 4047 
Q 1172 3844 1172 3481 
z
" transform="scale(0.015625)"/>
       </defs>
       <use xlink:href="#DejaVuSans-2212"/>
       <use xlink:href="#DejaVuSans-38" x="83.789062"/>
       <use xlink:href="#DejaVuSans-30" x="147.412109"/>
      </g>
     </g>
    </g>
    <g id="ytick_3">
     <g id="line2d_10">
      <g>
       <use xlink:href="#m52e0fee3da" x="54" y="189.874286" style="stroke: #000000; stroke-width: 0.8"/>
      </g>
     </g>
     <g id="text_11">
      <!-- −60 -->
      <g transform="translate(25.895312 193.673504)scale(0.1 -0.1)">
       <use xlink:href="#DejaVuSans-2212"/>
       <use xlink:href="#DejaVuSans-36" x="83.789062"/>
       <use xlink:href="#DejaVuSans-30" x="147.412109"/>
      </g>
     </g>
    </g>
    <g id="ytick_4">
     <g id="line2d_11">
      <g>
       <use xlink:href="#m52e0fee3da" x="54" y="158.811429" style="stroke: #000000; stroke-width: 0.8"/>
      </g>
     </g>
     <g id="text_12">
      <!-- −40 -->
      <g transform="translate(25.895312 162.610647)scale(0.1 -0.1)">
       <use xlink:href="#DejaVuSans-2212"/>
       <use xlink:href="#DejaVuSans-34" x="83.789062"/>
       <use xlink:href="#DejaVuSans-30" x="147.412109"/>
      </g>
     </g>
    </g>
    <g id="ytick_5">
     <g id="line2d_12">
      <g>
       <use xlink:href="#m52e0fee3da" x="54" y="127.748571" style="stroke: #000000; stroke-width: 0.8"/>
      </g>
     </g>
     <g id="text_13">
      <!-- −20 -->
      <g transform="translate(25.895312 131.54779)scale(0.1 -0.1)">
       <use xlink:href="#DejaVuSans-2212"/>
       <use xlink:href="#DejaVuSans-32" x="83.789062"/>
       <use xlink:href="#DejaVuSans-30" x="147.412109"/>
      </g>
     </g>
    </g>
    <g id="ytick_6">
     <g id="line2d_13">
      <g>
       <use xlink:href="#m52e0fee3da" x="54" y="96.685714" style="stroke: #000000; stroke-width: 0.8"/>
      </g>
     </g>
     <g id="text_14">
      <!-- 0 -->
      <g transform="translate(40.6375 100.484933)scale(0.1 -0.1)">
       <use xlink:href="#DejaVuSans-30"/>
      </g>
     </g>
    </g>
    <g id="ytick_7">
     <g id="line2d_14">
      <g>
       <use xlink:href="#m52e0fee3da" x="54" y="65.622857" style="stroke: #000000; stroke-width: 0.8"/>
      </g>
     </g>
     <g id="text_15">
      <!-- 20 -->
      <g transform="translate(34.275 69.422076)scale(0.1 -0.1)">
       <use xlink:href="#DejaVuSans-32"/>
       <use xlink:href="#DejaVuSans-30" x="63.623047"/>
      </g>
     </g>
    </g>
    <g id="ytick_8">
     <g id="line2d_15">
      <g>
       <use xlink:href="#m52e0fee3da" x="54" y="34.56" style="stroke: #000000; stroke-width: 0.8"/>
      </g>
     </g>
     <g id="text_16">
      <!-- 40 -->
      <g transform="translate(34.275 38.359219)scale(0.1 -0.1)">
       <use xlink:href="#DejaVuSans-34"/>
       <use xlink:href="#DejaVuSans-30" x="63.623047"/>
      </g>
     </g>
    </g>
    <g id="text_17">
     <!-- Membrane potential (mV) -->
     <g transform="translate(13.453125 207.691719)rotate(-90)scale(0.1 -0.1)">
      <defs>
       <path id="DejaVuSans-4d" d="M 628 4666 
L 1569 4666 
L 2759 1491 
L 3956 4666 
L 4897 4666 
L 4897 0 
L 4281 0 
L 4281 4097 
L 3078 897 
L 2444 897 
L 1241 4097 
L 1241 0 
L 628 0 
L 628 4666 
z
" transform="scale(0.015625)"/>
       <path id="DejaVuSans-62" d="M 3116 1747 
Q 3116 2381 2855 2742 
Q 2594 3103 2138 3103 
Q 1681 3103 1420 2742 
Q 1159 2381 1159 1747 
Q 1159 1113 1420 752 
Q 1681 391 2138 391 
Q 2594 391 2855 752 
Q 3116 1113 3116 1747 
z
M 1159 2969 
Q 1341 3281 1617 3432 
Q 1894 3584 2278 3584 
Q 2916 3584 3314 3078 
Q 3713 2572 3713 1747 
Q 3713 922 3314 415 
Q 2916 -91 2278 -91 
Q 1894 -91 1617 61 
Q 1341 213 1159 525 
L 1159 0 
L 581 0 
L 581 4863 
L 1159 4863 
L 1159 2969 
z
" transform="scale(0.015625)"/>
       <path id="DejaVuSans-72" d="M 2631 2963 
Q 2534 3019 2420 3045 
Q 2306 3072 2169 3072 
Q 1681 3072 1420 2755 
Q 1159 2438 1159 1844 
L 1159 0 
L 581 0 
L 581 3500 
L 1159 3500 
L 1159 2956 
Q 1341 3275 1631 3429 
Q 1922 3584 2338 3584 
Q 2397 3584 2469 3576 
Q 2541 3569 2628 3553 
L 2631 2963 
z
" transform="scale(0.015625)"/>
       <path id="DejaVuSans-61" d="M 2194 1759 
Q 1497 1759 1228 1600 
Q 959 1441 959 1056 
Q 959 750 1161 570 
Q 1363 391 1709 391 
Q 2188 391 2477 730 
Q 2766 1069 2766 1631 
L 2766 1759 
L 2194 1759 
z
M 3341 1997 
L 3341 0 
L 2766 0 
L 2766 531 
Q 2569 213 2275 61 
Q 1981 -91 1556 -91 
Q 1019 -91 701 211 
Q 384 513 384 1019 
Q 384 1609 779 1909 
Q 1175 2209 1959 2209 
L 2766 2209 
L 2766 2266 
Q 2766 2663 2505 2880 
Q 2244 3097 1772 3097 
Q 1472 3097 1187 3025 
Q 903 2953 641 2809 
L 641 3341 
Q 956 3463 1253 3523 
Q 1550 3584 1831 3584 
Q 2591 3584 2966 3190 
Q 3341 2797 3341 1997 
z
" transform="scale(0.015625)"/>
       <path id="DejaVuSans-6e" d="M 3513 2113 
L 3513 0 
L 2938 0 
L 2938 2094 
Q 2938 2591 2744 2837 
Q 2550 3084 2163 3084 
Q 1697 3084 1428 2787 
Q 1159 2491 1159 1978 
L 1159 0 
L 581 0 
L 581 3500 
L 1159 3500 
L 1159 2956 
Q 1366 3272 1645 3428 
Q 1925 3584 2291 3584 
Q 2894 3584 3203 3211 
Q 3513 2838 3513 2113 
z
" transform="scale(0.015625)"/>
       <path id="DejaVuSans-20" transform="scale(0.015625)"/>
       <path id="DejaVuSans-70" d="M 1159 525 
L 1159 -1331 
L 581 -1331 
L 581 3500 
L 1159 3500 
L 1159 2969 
Q 1341 3281 1617 3432 
Q 1894 3584 2278 3584 
Q 2916 3584 3314 3078 
Q 3713 2572 3713 1747 
Q 3713 922 3314 415 
Q 2916 -91 2278 -91 
Q 1894 -91 1617 61 
Q 1341 213 1159 525 
z
M 3116 1747 
Q 3116 2381 2855 2742 
Q 2594 3103 2138 3103 
Q 1681 3103 1420 2742 
Q 1159 2381 1159 1747 
Q 1159 1113 1420 752 
Q 1681 391 2138 391 
Q 2594 391 2855 752 
Q 3116 1113 3116 1747 
z
" transform="scale(0.015625)"/>
       <path id="DejaVuSans-6f" d="M 1959 3097 
Q 1497 3097 1228 2736 
Q 959 2375 959 1747 
Q 959 1119 1226 758 
Q 1494 397 1959 397 
Q 2419 397 2687 759 
Q 2956 1122 2956 1747 
Q 2956 2369 2687 2733 
Q 2419 3097 1959 3097 
z
M 1959 3584 
Q 2709 3584 3137 3096 
Q 3566 2609 3566 1747 
Q 3566 888 3137 398 
Q 2709 -91 1959 -91 
Q 1206 -91 779 398 
Q 353 888 353 1747 
Q 353 2609 779 3096 
Q 1206 3584 1959 3584 
z
" transform="scale(0.015625)"/>
       <path id="DejaVuSans-74" d="M 1172 4494 
L 1172 3500 
L 2356 3500 
L 2356 3053 
L 1172 3053 
L 1172 1153 
Q 1172 725 1289 603 
Q 1406 481 1766 481 
L 2356 481 
L 2356 0 
L 1766 0 
Q 1100 0 847 248 
Q 594 497 594 1153 
L 594 3053 
L 172 3053 
L 172 3500 
L 594 3500 
L 594 4494 
L 1172 4494 
z
" transform="scale(0.015625)"/>
       <path id="DejaVuSans-6c" d="M 603 4863 
L 1178 4863 
L 1178 0 
L 603 0 
L 603 4863 
z
" transform="scale(0.015625)"/>
       <path id="DejaVuSans-56" d="M 1831 0 
L 50 4666 
L 709 4666 
L 2188 738 
L 3669 4666 
L 4325 4666 
L 2547 0 
L 1831 0 
z
" transform="scale(0.015625)"/>
      </defs>
      <use xlink:href="#DejaVuSans-4d"/>
      <use xlink:href="#DejaVuSans-65" x="86.279297"/>
      <use xlink:href="#DejaVuSans-6d" x="147.802734"/>
      <use xlink:href="#DejaVuSans-62" x="245.214844"/>
      <use xlink:href="#DejaVuSans-72" x="308.691406"/>
      <use xlink:href="#DejaVuSans-61" x="349.804688"/>
      <use xlink:href="#DejaVuSans-6e" x="411.083984"/>
      <use xlink:href="#DejaVuSans-65" x="474.462891"/>
      <use xlink:href="#DejaVuSans-20" x="535.986328"/>
      <use xlink:href="#DejaVuSans-70" x="567.773438"/>
      <use xlink:href="#DejaVuSans-6f" x="631.25"/>
      <use xlink:href="#DejaVuSans-74" x="692.431641"/>
      <use xlink:href="#DejaVuSans-65" x="731.640625"/>
      <use xlink:href="#DejaVuSans-6e" x="793.164062"/>
      <use xlink:href="#DejaVuSans-74" x="856.542969"/>
      <use xlink:href="#DejaVuSans-69" x="895.751953"/>
      <use xlink:href="#DejaVuSans-61" x="923.535156"/>
      <use xlink:href="#DejaVuSans-6c" x="984.814453"/>
      <use xlink:href="#DejaVuSans-20" x="1012.597656"/>
      <use xlink:href="#DejaVuSans-28" x="1044.384766"/>
      <use xlink:href="#DejaVuSans-6d" x="1083.398438"/>
      <use xlink:href="#DejaVuSans-56" x="1180.810547"/>
      <use xlink:href="#DejaVuSans-29" x="1249.21875"/>
     </g>
    </g>
   </g>
   <g id="line2d_16">
    <path d="M 69.218182 230.256 
L 69.268909 229.508767 
L 69.337391 229.88936 
L 69.948655 234.241572 
L 70.182 234.408481 
L 70.473682 235.055777 
L 71.587145 237.715232 
L 72.140073 238.394765 
L 72.731045 238.774047 
L 73.497027 238.987047 
L 73.722764 238.915456 
L 74.257936 236.611874 
L 74.407582 236.148499 
L 75.107618 233.065422 
L 75.3435 232.218008 
L 75.477927 232.246141 
L 75.668155 232.631579 
L 75.827945 233.030755 
L 75.893891 232.934892 
L 76.510227 231.754844 
L 76.5711 231.807747 
L 76.609145 231.84031 
L 76.652264 231.732244 
L 76.959164 230.935712 
L 76.974382 230.941466 
L 77.106273 231.132517 
L 77.3802 232.030187 
L 78.397282 235.799739 
L 78.435327 235.766499 
L 78.617945 235.302658 
L 79.302764 232.287084 
L 79.6122 229.937624 
L 80.134691 228.267196 
L 80.218391 228.355417 
L 80.454273 228.944568 
L 80.563336 228.739486 
L 80.730736 228.596645 
L 80.748491 228.607753 
L 80.862627 228.726412 
L 80.913355 228.600902 
L 81.1467 228.168746 
L 81.161918 228.175441 
L 81.288736 228.378702 
L 81.539836 229.31211 
L 82.754755 234.828977 
L 82.825773 234.717501 
L 83.160573 234.191891 
L 83.3508 234.081531 
L 83.896118 231.137964 
L 83.941773 231.159233 
L 84.106636 231.424238 
L 84.456655 232.515543 
L 85.506709 235.87975 
L 86.069782 236.906256 
L 86.637927 237.499009 
L 87.297382 237.863423 
L 88.238373 238.108783 
L 88.296709 238.01425 
L 89.212336 234.657805 
L 89.445682 234.312699 
L 89.618155 234.390832 
L 89.904764 234.836875 
L 90.556609 236.108285 
L 90.625091 235.993101 
L 91.117145 235.017512 
L 91.314982 235.130803 
L 91.680218 235.669444 
L 92.392936 236.820583 
L 92.423373 236.736408 
L 92.900209 235.13847 
L 93.077755 235.214559 
L 93.402409 235.670541 
L 93.7296 236.209672 
L 93.775255 236.086458 
L 94.206436 234.775817 
L 94.378909 234.824032 
L 94.449927 234.84819 
L 94.485436 234.776078 
L 94.607182 234.11239 
L 94.995245 231.41906 
L 95.220982 230.381682 
L 95.416282 230.101189 
L 95.418818 230.101983 
L 95.553245 230.266587 
L 95.809418 231.029098 
L 97.267827 236.075381 
L 97.285582 236.062903 
L 97.409864 235.758896 
L 97.731982 235.133475 
L 97.927282 235.150544 
L 98.203745 235.459375 
L 98.7795 236.380315 
L 98.8353 236.193211 
L 99.210682 234.868845 
L 99.388227 234.860023 
L 99.629182 235.142816 
L 101.300645 237.569434 
L 101.980391 237.952008 
L 102.289827 237.969486 
L 102.292364 237.962857 
L 102.495273 237.090181 
L 102.794564 235.316914 
L 103.0761 234.238426 
L 103.263791 234.149598 
L 103.456555 234.352584 
L 103.864909 235.196485 
L 104.537045 236.560909 
L 104.562409 236.533184 
L 104.712055 236.062756 
L 105.021491 235.370593 
L 105.219327 235.358733 
L 105.478036 235.624887 
L 106.170464 236.699188 
L 106.246555 236.516278 
L 106.629545 235.577497 
L 106.824845 235.587949 
L 107.103845 235.887608 
L 107.413282 236.331652 
L 107.461473 236.21006 
L 107.829245 234.323507 
L 108.105709 233.148109 
L 108.270573 233.100148 
L 108.453191 233.362972 
L 108.869155 234.464821 
L 109.711227 236.582734 
L 109.850727 236.771803 
L 109.898918 236.705917 
L 110.446773 235.813351 
L 110.687727 235.976854 
L 110.796791 236.068832 
L 110.834836 235.979588 
L 110.941364 235.213623 
L 111.263482 233.235666 
L 111.671836 231.98689 
L 112.044682 230.371053 
L 112.166427 230.43841 
L 112.364264 230.910972 
L 112.851245 232.826088 
L 113.396564 234.633569 
L 113.820136 234.647149 
L 114.147327 235.172628 
L 114.279218 235.344341 
L 114.327409 235.286631 
L 114.839755 234.587392 
L 115.065491 234.804261 
L 115.552473 235.673543 
L 116.379327 237.032364 
L 116.9424 237.557465 
L 117.021027 237.337928 
L 118.258773 232.525754 
L 118.405882 232.678548 
L 118.649373 233.205769 
L 118.728 233.013933 
L 119.001927 232.485313 
L 119.143964 232.59483 
L 119.3976 233.162086 
L 120.805282 236.760573 
L 120.861082 236.655139 
L 121.365818 235.300937 
L 121.558582 235.367814 
L 121.885773 235.784251 
L 122.235791 236.331176 
L 122.273836 236.180917 
L 122.900318 232.865461 
L 123.055036 232.947258 
L 123.306136 233.409892 
L 125.023255 237.174726 
L 125.084127 237.08065 
L 125.198264 236.344578 
L 125.642127 232.990327 
L 125.8983 232.353994 
L 126.058091 232.378529 
L 126.268609 232.716942 
L 126.722618 233.977909 
L 127.602736 236.307594 
L 128.122691 237.100561 
L 128.221609 236.967715 
L 128.419445 236.259317 
L 129.2184 233.101691 
L 129.388336 233.074533 
L 129.583636 233.345455 
L 130.002136 234.407955 
L 130.887327 236.578933 
L 131.275391 237.152798 
L 131.303291 237.117282 
L 131.4504 236.574705 
L 131.787736 235.617618 
L 132.353345 234.516591 
L 132.553718 234.622567 
L 132.878373 235.109282 
L 134.230255 237.367775 
L 134.851664 237.864783 
L 135.254945 238.041835 
L 135.275236 237.984625 
L 136.315145 234.135462 
L 136.343045 234.145424 
L 136.530736 234.265873 
L 136.571318 234.135256 
L 136.931482 233.13593 
L 137.076055 233.231755 
L 137.334764 233.7623 
L 138.717082 236.99414 
L 139.292836 237.628711 
L 139.937073 238.008431 
L 140.124764 238.043686 
L 140.145055 237.975425 
L 141.025173 234.759454 
L 141.217936 234.80224 
L 141.496936 235.152143 
L 141.709991 235.443555 
L 141.760718 235.375019 
L 142.2477 234.65816 
L 142.458218 234.843752 
L 142.881791 235.595737 
L 143.383991 236.410432 
L 143.406818 236.395896 
L 143.624945 236.084216 
L 143.886191 235.002025 
L 144.129682 233.690171 
L 144.4239 232.572843 
L 144.596373 232.52497 
L 144.761236 232.642133 
L 144.799282 232.530461 
L 144.954 231.302961 
L 145.253291 229.628073 
L 145.4004 229.522321 
L 145.420691 229.534762 
L 145.577945 229.79529 
L 145.943182 230.396774 
L 146.222182 230.937495 
L 146.491036 231.6127 
L 146.564591 231.525428 
L 146.792864 231.366743 
L 146.955191 231.594992 
L 147.267164 232.389748 
L 147.3534 232.183581 
L 147.581673 230.984973 
L 147.845455 230.161655 
L 147.982418 230.196359 
L 148.170109 230.580478 
L 148.570855 232.032542 
L 149.075591 233.762324 
L 149.106027 233.751655 
L 149.336836 233.774548 
L 149.575255 234.122266 
L 150.303191 235.778659 
L 150.424936 236.01096 
L 150.470591 235.878821 
L 150.853582 234.580926 
L 150.982936 234.394951 
L 151.442018 231.585884 
L 151.578982 231.624596 
L 151.781891 232.020758 
L 152.289164 233.655379 
L 153.057682 235.868393 
L 153.615682 236.842368 
L 153.717136 236.79011 
L 153.722209 236.782213 
L 153.998673 236.134437 
L 154.574427 233.680618 
L 154.739291 233.782681 
L 155.028436 234.298272 
L 156.103855 236.421108 
L 156.114 236.416033 
L 156.786136 236.171138 
L 157.115864 236.309151 
L 157.1463 236.242762 
L 157.6764 235.200972 
L 157.889455 235.283107 
L 158.176064 235.565156 
L 158.209036 235.406835 
L 158.731527 232.3312 
L 158.871027 232.398881 
L 159.0993 232.85049 
L 159.923618 235.267458 
L 160.134136 235.744258 
L 160.184864 235.644449 
L 160.638873 234.60509 
L 160.821491 234.695864 
L 161.141073 235.174758 
L 161.295791 235.398481 
L 161.346518 235.322518 
L 161.851255 234.44168 
L 162.0567 234.649113 
L 162.520855 235.535054 
L 163.324882 236.938335 
L 163.936145 237.562994 
L 164.615891 237.938206 
L 165.556882 238.183973 
L 167.111673 238.343131 
L 167.208055 237.865503 
L 167.565682 236.298604 
L 167.783809 236.130058 
L 168.004473 236.256359 
L 168.496527 236.884077 
L 168.793282 237.231551 
L 168.831327 237.162523 
L 169.429909 235.823898 
L 169.559264 235.778271 
L 169.566873 235.743528 
L 169.972691 234.293587 
L 170.127409 234.364471 
L 170.431773 234.796278 
L 170.518009 234.634464 
L 170.959336 233.257346 
L 171.187609 231.829254 
L 171.426027 230.934731 
L 171.636545 230.608363 
L 172.113382 229.286386 
L 172.232591 229.38857 
L 172.443109 229.970226 
L 172.775373 231.249386 
L 172.869218 231.095564 
L 173.044227 230.948404 
L 173.061982 230.959641 
L 173.214164 231.219225 
L 173.267427 231.311193 
L 173.313082 231.179108 
L 173.518527 229.524033 
L 173.787382 228.337421 
L 173.916736 228.298281 
L 173.937027 228.315684 
L 174.106964 228.643617 
L 174.289582 228.766853 
L 174.429082 228.698483 
L 174.743591 227.953641 
L 174.776564 227.973008 
L 175.210282 228.496174 
L 175.461382 229.157985 
L 175.580591 229.417692 
L 175.631318 229.345142 
L 176.009236 228.631762 
L 176.044745 228.654733 
L 176.214682 228.951547 
L 176.374473 229.331407 
L 176.422664 229.180136 
L 176.777755 227.885132 
L 176.894427 228.01631 
L 177.115091 228.703175 
L 177.688309 231.451474 
L 178.444145 234.631465 
L 178.649591 235.190459 
L 178.697782 235.083267 
L 179.283682 233.176275 
L 179.468836 233.3127 
L 179.593118 233.421358 
L 179.631164 233.346694 
L 179.796027 232.463988 
L 180.904418 226.520793 
L 181.023627 226.606871 
L 181.097182 226.667111 
L 181.150445 226.604396 
L 181.368573 226.091483 
L 182.421164 218.240016 
L 182.525155 218.313409 
L 182.692555 218.841057 
L 182.892927 219.361937 
L 182.920827 219.344435 
L 183.171927 219.195584 
L 183.197291 219.227153 
L 183.359618 219.659869 
L 183.496582 220.053518 
L 183.544773 219.926993 
L 183.6513 218.672014 
L 183.991173 215.115193 
L 184.1256 214.890944 
L 184.158573 214.912017 
L 184.287927 215.210021 
L 184.762227 216.539632 
L 184.812955 216.495658 
L 184.876364 216.262948 
L 185.1579 213.569484 
L 185.487627 210.688009 
L 185.599227 210.5594 
L 185.639809 210.593421 
L 185.776773 210.958476 
L 186.045627 212.44471 
L 186.654355 215.837975 
L 186.930818 216.198572 
L 187.126118 216.310664 
L 187.146409 216.259585 
L 187.336636 215.055439 
L 187.569982 214.409286 
L 187.691727 214.480485 
L 187.876882 214.957182 
L 188.204073 216.523259 
L 188.414591 217.052955 
L 188.6175 217.66754 
L 188.949764 219.561766 
L 189.736036 224.992613 
L 189.822273 224.748647 
L 190.184973 223.590838 
L 190.306718 223.678186 
L 190.499482 224.187271 
L 190.872327 225.931382 
L 191.516564 229.257994 
L 191.5749 229.151271 
L 191.683964 228.469017 
L 192.221673 220.832367 
L 192.766991 212.860513 
L 193.398545 208.883599 
L 193.837336 204.642486 
L 194.022491 204.38887 
L 194.027564 204.390702 
L 194.139164 204.399435 
L 194.159455 204.335101 
L 194.616 202.540543 
L 194.692091 202.607067 
L 194.745355 202.642708 
L 194.791009 202.561044 
L 195.2577 200.999202 
L 195.640691 199.322569 
L 195.846136 198.846004 
L 196.4295 195.729318 
L 196.693282 195.382876 
L 196.870827 195.447593 
L 196.893655 195.458348 
L 196.934236 195.358441 
L 197.329909 194.352563 
L 197.464336 194.479219 
L 197.619055 194.6992 
L 197.682464 194.638936 
L 197.839718 194.305874 
L 198.237927 192.860721 
L 198.400255 192.456553 
L 198.631064 192.137122 
L 198.925282 192.115918 
L 199.036882 191.861849 
L 199.244864 190.8259 
L 199.460455 188.985991 
L 199.741991 184.422109 
L 200.043818 174.982256 
L 200.185855 162.951988 
L 200.241655 135.992823 
L 200.2797 41.951645 
L 200.355791 126.189558 
L 200.510509 193.189446 
L 200.710882 210.973863 
L 200.944227 215.207031 
L 201.208009 216.602636 
L 201.631582 218.436327 
L 202.245382 221.654374 
L 202.278355 221.591125 
L 202.430536 220.616658 
L 202.656273 219.887732 
L 202.755191 219.998245 
L 202.950491 220.693013 
L 203.196518 221.165681 
L 203.412109 221.818916 
L 203.772273 223.782724 
L 204.971973 230.872914 
L 204.984655 230.868201 
L 205.116545 230.654731 
L 205.296627 230.117375 
L 206.098118 225.101927 
L 206.240155 224.928431 
L 206.268055 224.944882 
L 206.405018 225.206859 
L 206.676409 226.315622 
L 207.414491 229.461251 
L 207.452536 229.356735 
L 208.254027 224.715359 
L 208.702964 221.532589 
L 208.819636 221.458228 
L 208.852609 221.486153 
L 209.002255 221.829308 
L 209.550109 223.585784 
L 209.621127 223.504502 
L 209.834182 223.305715 
L 209.857009 223.323158 
L 209.940709 223.373781 
L 209.981291 223.295146 
L 210.196882 222.349769 
L 210.498709 221.338496 
L 210.622991 221.383625 
L 210.787855 221.800041 
L 211.099827 223.318698 
L 212.170173 229.387204 
L 212.228509 229.26037 
L 212.563309 227.541356 
L 212.951373 225.61241 
L 213.093409 224.701534 
L 213.910118 219.729402 
L 214.031864 219.283174 
L 214.414855 217.131199 
L 214.5366 217.060443 
L 214.567036 217.086533 
L 215.127573 217.826836 
L 215.201127 217.649524 
L 215.386282 217.363978 
L 215.406573 217.375312 
L 215.530855 217.612765 
L 215.812391 218.798306 
L 216.104073 219.528705 
L 216.1269 219.516474 
L 216.355173 219.479693 
L 216.357709 219.483163 
L 216.522573 219.904337 
L 216.834545 221.444752 
L 217.613209 225.402862 
L 218.211791 228.163779 
L 219.185755 232.477279 
L 219.358227 232.920215 
L 219.411491 232.866508 
L 219.741218 232.568284 
L 219.966955 232.629552 
L 219.992318 232.551382 
L 221.017009 229.392452 
L 221.202164 229.05416 
L 221.679 228.330121 
L 221.841327 228.357182 
L 222.036627 228.694974 
L 222.396791 229.85899 
L 222.795 231.326527 
L 222.863482 231.208777 
L 223.071464 230.164781 
L 223.317491 229.537886 
L 223.456991 229.590551 
L 223.664973 230.003117 
L 224.126591 231.54093 
L 225.080264 234.608209 
L 225.678845 235.796227 
L 226.188655 236.414817 
L 226.201336 236.396177 
L 226.287573 235.91043 
L 226.759336 232.582468 
L 226.947027 232.454567 
L 227.124573 232.644625 
L 227.4822 233.441157 
L 227.697791 233.829529 
L 227.738373 233.798072 
L 228.177164 233.475109 
L 228.352173 233.609075 
L 228.387682 233.477952 
L 228.757991 232.151616 
L 228.9051 232.21783 
L 228.998945 232.142803 
L 229.069964 231.778953 
L 229.896818 223.866807 
L 230.079436 223.628043 
L 230.429455 223.619785 
L 230.6349 224.296281 
L 231.058473 226.636021 
L 231.720464 230.059271 
L 232.080627 230.739298 
L 232.618336 232.510124 
L 232.871973 232.996781 
L 233.133218 232.972901 
L 233.265109 232.43492 
L 233.696291 230.328298 
L 233.785064 230.042938 
L 234.109718 228.842071 
L 234.239073 228.894434 
L 234.431836 229.325691 
L 234.860482 230.970822 
L 235.809082 234.51747 
L 236.389909 235.839637 
L 236.958055 236.608476 
L 237.587073 237.089853 
L 238.408855 237.424839 
L 238.611764 237.374263 
L 239.359991 235.817859 
L 239.623773 235.931124 
L 240.156409 236.474511 
L 240.440482 236.75635 
L 240.481064 236.67249 
L 240.990873 235.444448 
L 241.201391 235.539599 
L 241.614818 236.04526 
L 242.563418 237.178129 
L 243.238091 237.624841 
L 243.304036 237.49424 
L 243.854427 235.923474 
L 244.070018 235.950033 
L 244.409891 236.271497 
L 244.841073 236.659334 
L 244.8639 236.637456 
L 245.137827 236.185534 
L 245.698364 234.485724 
L 245.873373 233.92223 
L 246.132082 233.445438 
L 246.291873 233.511889 
L 246.542973 233.938319 
L 247.522009 236.078301 
L 247.608245 236.001124 
L 248.095227 235.23617 
L 248.391982 234.553636 
L 248.577136 234.554733 
L 248.818091 234.839264 
L 249.457255 236.074603 
L 250.152218 237.168985 
L 250.451509 237.458493 
L 250.481945 237.400957 
L 250.705145 236.431957 
L 250.979073 235.81785 
L 251.184518 235.78812 
L 251.453373 236.025452 
L 251.592873 236.118006 
L 251.630918 236.069292 
L 252.455236 234.440148 
L 252.838227 232.687608 
L 252.985336 232.712362 
L 253.190782 233.070753 
L 253.720882 234.591554 
L 254.451355 236.418861 
L 255.022036 237.27646 
L 255.2985 237.529365 
L 255.331473 237.4577 
L 255.937664 235.845238 
L 256.155791 235.967078 
L 256.6098 236.555037 
L 257.340273 237.458336 
L 257.355491 237.431988 
L 257.482309 236.71976 
L 257.761309 235.715726 
L 257.959145 235.62484 
L 258.075818 235.630148 
L 258.093573 235.560791 
L 258.496855 234.196459 
L 258.651573 234.275056 
L 258.922964 234.745496 
L 259.1208 235.094878 
L 259.1766 235.027862 
L 260.064327 233.710464 
L 260.249482 233.648947 
L 260.6832 233.008007 
L 260.865818 233.200098 
L 261.205691 233.960271 
L 262.098491 236.223192 
L 262.139073 236.122253 
L 262.542355 234.958723 
L 262.712291 235.029782 
L 263.016655 235.477791 
L 263.315945 235.998072 
L 263.366673 235.886926 
L 263.792782 234.848026 
L 263.972864 234.923649 
L 264.279764 235.36528 
L 265.492145 237.275575 
L 266.116091 237.772002 
L 266.189645 237.677301 
L 266.882073 236.092843 
L 267.130636 236.225977 
L 267.670882 236.851278 
L 268.477445 237.667704 
L 269.187627 238.062355 
L 269.786209 238.17848 
L 269.966291 237.780532 
L 270.133691 237.026702 
L 270.656182 233.636131 
L 270.861627 233.471771 
L 271.039173 233.62684 
L 271.358755 234.273793 
L 272.109518 236.101252 
L 272.175464 235.97699 
L 272.583818 235.114268 
L 272.766436 235.185198 
L 273.004855 235.427931 
L 273.058118 235.303806 
L 273.453791 234.387843 
L 273.633873 234.483819 
L 273.793664 234.4503 
L 273.882436 234.248686 
L 274.356736 232.833214 
L 274.511455 232.922841 
L 274.762555 233.407049 
L 275.607164 235.634342 
L 275.716227 235.472393 
L 275.822755 234.995985 
L 276.322418 231.558904 
L 276.4746 231.471763 
L 276.489818 231.481483 
L 276.657218 231.743687 
L 277.012309 232.822996 
L 277.912718 235.639755 
L 277.927936 235.629628 
L 278.019245 235.358131 
L 278.452964 233.99743 
L 278.643191 233.977372 
L 278.874 234.236703 
L 279.099736 234.562291 
L 279.155536 234.4794 
L 280.413573 232.004195 
L 280.568291 232.079738 
L 280.801636 232.520152 
L 281.374855 234.233192 
L 282.1104 236.141863 
L 282.592309 236.916718 
L 282.610064 236.895388 
L 282.731809 236.401554 
L 283.036173 235.494022 
L 283.234009 235.441008 
L 283.426773 235.54606 
L 283.459745 235.427283 
L 283.814836 234.312187 
L 283.974627 234.356707 
L 284.2308 234.74115 
L 284.570673 235.427743 
L 284.629009 235.266333 
L 284.953664 234.399114 
L 285.115991 234.447326 
L 285.379773 234.840082 
L 286.703755 237.099145 
L 286.706291 237.097763 
L 286.764627 236.904123 
L 287.185664 235.357663 
L 287.380964 235.313408 
L 287.624455 235.539587 
L 289.430345 237.698266 
L 290.191255 238.021152 
L 291.340227 238.241505 
L 291.669955 238.174187 
L 291.885545 237.297865 
L 292.194982 236.499339 
L 292.425791 236.401284 
L 292.694645 236.560519 
L 293.4936 237.399519 
L 293.554473 237.198191 
L 293.980582 235.667936 
L 294.170809 235.650065 
L 294.290018 235.607871 
L 294.297627 235.593193 
L 294.401618 235.138245 
L 294.802364 233.224892 
L 294.979909 233.163034 
L 295.1676 233.408287 
L 295.286809 233.494502 
L 295.324855 233.463834 
L 295.662191 233.272248 
L 295.860027 233.381718 
L 295.905682 233.300076 
L 296.151709 233.068059 
L 296.319109 233.236545 
L 296.633618 233.956784 
L 297.780055 236.770761 
L 297.8181 236.718237 
L 297.828245 236.672425 
L 297.967745 235.282411 
L 298.267036 233.231217 
L 298.962 230.680448 
L 299.020336 230.719158 
L 299.200418 231.069831 
L 299.588482 232.437712 
L 300.306273 234.841533 
L 300.478745 234.693041 
L 300.564982 234.228258 
L 300.897245 232.688633 
L 301.074791 232.607508 
L 301.254873 232.837613 
L 301.620109 233.761354 
L 302.063973 234.965605 
L 302.122309 234.889603 
L 302.873073 233.655826 
L 303.058227 233.691317 
L 303.304255 234.027038 
L 303.869864 235.292988 
L 304.635845 236.801674 
L 304.678964 236.847958 
L 304.722082 236.742047 
L 305.112682 235.743091 
L 305.305445 235.779014 
L 305.6301 236.136319 
L 306.768927 237.487406 
L 307.461355 237.906075 
L 308.354155 238.170628 
L 309.931773 238.368746 
L 310.0104 238.268671 
L 310.710436 236.613725 
L 310.966609 236.718141 
L 311.522073 237.265918 
L 312.336245 237.956183 
L 313.089545 238.292828 
L 314.144673 238.498659 
L 316.087527 238.623138 
L 316.171227 238.151906 
L 316.493345 236.64257 
L 316.716545 236.441429 
L 316.937209 236.547931 
L 317.414045 237.110795 
L 318.228218 237.973859 
L 318.9105 238.365385 
L 319.783009 238.59481 
L 320.1102 238.536163 
L 320.381591 237.900311 
L 320.868573 235.276087 
L 321.259173 231.709517 
L 321.431645 231.501689 
L 321.441791 231.50584 
L 321.583827 231.697747 
L 321.872973 232.562544 
L 322.940782 236.166716 
L 322.971218 236.112141 
L 323.450591 234.979513 
L 323.645891 235.15668 
L 324.087218 235.954339 
L 324.896318 237.304294 
L 325.436564 237.819959 
L 325.441636 237.815366 
L 325.520264 237.555277 
L 325.918473 236.161046 
L 325.999636 235.899541 
L 326.316682 234.86918 
L 326.489155 234.863964 
L 326.7225 235.16055 
L 328.358455 237.725161 
L 329.007764 238.117157 
L 329.867591 238.36012 
L 329.913245 238.24111 
L 330.227755 236.224009 
L 331.011491 230.305719 
L 331.265127 230.233697 
L 331.4376 230.335174 
L 331.658264 230.805655 
L 331.759718 231.075699 
L 331.812982 230.923509 
L 332.165536 229.788257 
L 332.173145 229.790534 
L 332.297427 229.956077 
L 332.543455 230.762259 
L 334.050055 236.436986 
L 334.531964 237.260849 
L 334.542109 237.250798 
L 334.630882 236.888943 
L 335.292873 234.024155 
L 335.460273 234.153519 
L 335.774782 234.757876 
L 336.908536 237.083016 
L 337.494436 237.715916 
L 337.720173 237.839542 
L 337.750609 237.781636 
L 337.9662 236.914066 
L 338.252809 236.260643 
L 338.4684 236.213043 
L 338.744864 236.424818 
L 339.728973 237.553992 
L 339.784773 237.392506 
L 340.241318 235.860233 
L 340.431545 235.877808 
L 340.718155 236.194758 
L 342.049745 237.889167 
L 342.196855 237.916923 
L 342.219682 237.882799 
L 342.529118 237.119708 
L 342.724418 236.46629 
L 342.993273 234.326022 
L 343.2672 232.929243 
L 343.4346 232.828742 
L 343.442209 232.833111 
L 343.612145 233.070269 
L 343.974845 234.06328 
L 344.8017 236.334389 
L 344.814382 236.327588 
L 344.933591 236.09132 
L 345.085773 235.087764 
L 345.369845 233.887845 
L 345.547391 233.815678 
L 345.735082 234.049925 
L 346.148509 235.025931 
L 346.607591 236.11523 
L 346.653245 236.04068 
L 347.125009 235.100214 
L 347.320309 235.243493 
L 347.710909 235.885815 
L 348.631609 237.373208 
L 349.245409 237.928394 
L 349.945445 238.257347 
L 350.954918 238.463689 
L 351.3303 238.401838 
L 351.586473 237.285457 
L 351.878155 236.599549 
L 352.108964 236.521725 
L 352.387964 236.700675 
L 354.191318 238.247771 
L 354.5109 238.298672 
L 354.523582 238.264218 
L 355.185573 236.571 
L 355.467109 236.476286 
L 355.809518 235.786321 
L 356.002282 235.818873 
L 356.293964 236.158348 
L 357.519027 237.798096 
L 357.529173 237.789063 
L 357.643309 237.490554 
L 358.089709 235.576582 
L 358.366173 234.581913 
L 358.546255 234.522666 
L 358.746627 234.758582 
L 359.208245 235.756567 
L 359.258973 235.856899 
L 359.307164 235.71115 
L 359.667327 234.541323 
L 359.819509 234.599612 
L 360.075682 235.027375 
L 361.376836 237.502964 
L 361.967809 238.032715 
L 362.6577 238.347755 
L 363.093955 238.365983 
L 363.3273 237.789326 
L 363.684927 237.168693 
L 363.956318 237.087891 
L 364.288582 237.250333 
L 364.8897 237.719423 
L 364.937891 237.599271 
L 365.176309 236.358046 
L 365.622709 233.117532 
L 365.843373 232.771762 
L 365.995555 232.867847 
L 366.071645 232.893133 
L 366.112227 232.842206 
L 366.436882 232.526825 
L 366.609355 232.756613 
L 366.951764 233.682773 
L 367.996745 236.605259 
L 368.554745 237.47183 
L 369.1305 237.969373 
L 369.259855 238.010846 
L 369.287755 237.943605 
L 369.404427 237.206767 
L 369.789955 234.177242 
L 369.9954 233.912537 
L 370.155191 234.038925 
L 370.457018 234.647952 
L 370.852691 235.541259 
L 370.911027 235.467497 
L 371.339673 234.862459 
L 371.542582 235.030839 
L 371.950936 235.740647 
L 372.202036 236.159197 
L 372.252764 236.092134 
L 372.742282 235.355249 
L 372.960409 235.526012 
L 373.4271 236.259722 
L 373.581818 236.521855 
L 373.581818 236.521855 
" clip-path="url(#p6d2949d955)" style="fill: none; stroke: #000000; stroke-width: 1.5; stroke-linecap: square"/>
   </g>
   <g id="line2d_17">
    <path d="M 69.218182 230.256 
L 69.294273 229.183762 
L 69.347536 229.333875 
L 69.870027 232.017415 
L 70.004455 231.858127 
L 70.207364 231.773934 
L 70.402664 231.994405 
L 70.833845 232.917191 
L 71.719036 234.723992 
L 72.322691 235.454408 
L 72.954245 235.876144 
L 73.699936 236.104353 
L 73.773491 235.680485 
L 74.123509 233.875161 
L 74.498891 232.795759 
L 75.013773 230.533595 
L 75.313064 228.782625 
L 75.475391 228.666453 
L 75.488073 228.673425 
L 75.6504 228.905656 
L 75.822873 229.275177 
L 75.891355 229.162415 
L 76.614218 227.772486 
L 76.7106 227.391942 
L 76.959164 226.756202 
L 77.080909 226.852649 
L 77.293964 227.408714 
L 77.859573 229.711142 
L 78.4125 231.665221 
L 78.432791 231.653843 
L 78.582436 231.374443 
L 78.770127 230.584467 
L 79.064345 229.720858 
L 79.196236 229.459699 
L 79.936855 224.345436 
L 80.149909 223.83815 
L 80.269118 223.940984 
L 80.446664 224.31733 
L 80.522755 224.163855 
L 80.758636 223.833661 
L 80.763709 223.835714 
L 80.870236 223.873646 
L 80.903209 223.777674 
L 81.177136 223.200254 
L 81.184745 223.203026 
L 81.311564 223.380306 
L 81.555055 224.21159 
L 82.237336 227.629952 
L 82.769973 229.910798 
L 82.797873 229.891661 
L 83.213836 229.56989 
L 83.218909 229.574418 
L 83.310218 229.649732 
L 83.345727 229.544069 
L 83.508055 228.163148 
L 83.781982 226.743588 
L 83.9367 226.650414 
L 83.951918 226.659726 
L 84.116782 226.91108 
L 84.451582 227.923538 
L 85.823755 232.393824 
L 86.432482 233.512043 
L 87.046282 234.195082 
L 87.746318 234.641258 
L 88.273882 234.819005 
L 88.2891 234.777222 
L 88.466645 233.764138 
L 88.765936 232.693009 
L 89.029718 232.050012 
L 89.382273 230.857298 
L 89.580109 230.78773 
L 89.7957 230.99597 
L 90.2421 231.819618 
L 90.559145 232.390355 
L 90.607336 232.324248 
L 91.216064 231.286178 
L 91.457018 231.522983 
L 92.017555 232.487835 
L 92.392936 233.121944 
L 92.430982 233.015181 
L 92.877382 231.510706 
L 93.057464 231.549557 
L 93.344073 231.911356 
L 93.7296 232.557235 
L 93.782864 232.410675 
L 94.201364 231.127564 
L 94.381445 231.147941 
L 94.452464 231.157353 
L 94.4829 231.092174 
L 94.607182 230.408222 
L 95.018073 227.471061 
L 95.456864 225.982979 
L 95.593827 226.128449 
L 95.847464 226.814436 
L 96.615982 229.814674 
L 97.2729 231.875206 
L 97.3566 231.762158 
L 97.772564 231.090929 
L 97.967864 231.186417 
L 98.297591 231.661721 
L 98.7795 232.542309 
L 98.832764 232.38637 
L 99.2259 231.095882 
L 99.405982 231.104507 
L 99.657082 231.410767 
L 101.5974 234.340942 
L 102.259391 234.731868 
L 102.345627 234.495332 
L 102.728618 232.470164 
L 103.055809 230.844799 
L 103.2714 230.623751 
L 103.451482 230.740843 
L 103.771064 231.285388 
L 104.542118 232.872031 
L 104.605527 232.759266 
L 105.120409 231.663628 
L 105.320782 231.753524 
L 105.658118 232.212183 
L 106.173 233.061947 
L 106.2288 232.951741 
L 106.682809 231.949758 
L 106.880645 232.012885 
L 107.202764 232.411726 
L 107.413282 232.722246 
L 107.461473 232.607707 
L 107.808955 230.876816 
L 108.110782 229.470495 
L 108.290864 229.377182 
L 108.470945 229.597166 
L 108.838718 230.490563 
L 109.8558 233.02695 
L 109.860873 233.024471 
L 109.964864 232.827644 
L 110.332636 232.164601 
L 110.538082 232.195145 
L 110.8044 232.414605 
L 110.852591 232.271266 
L 110.997164 231.076385 
L 111.288845 229.492965 
L 111.570382 228.591116 
L 111.844309 226.963579 
L 112.077655 226.309965 
L 112.207009 226.367848 
L 112.407382 226.805932 
L 112.858855 228.469016 
L 113.421927 230.29397 
L 113.7618 230.333633 
L 114.038264 230.772237 
L 114.289364 231.20701 
L 114.342627 231.142118 
L 114.816927 230.512818 
L 115.027445 230.695111 
L 115.425655 231.407457 
L 116.6076 233.599224 
L 116.947473 233.974201 
L 116.977909 233.924643 
L 117.152918 233.1966 
L 118.299355 228.751499 
L 118.319645 228.758818 
L 118.487045 228.960611 
L 118.646836 229.270662 
L 118.705173 229.13965 
L 119.027291 228.451693 
L 119.1744 228.559101 
L 119.430573 229.109906 
L 120.817964 232.865891 
L 120.881373 232.717881 
L 121.325236 231.541272 
L 121.518 231.561813 
L 121.797 231.875242 
L 122.235791 232.585401 
L 122.281445 232.395569 
L 122.892709 228.993687 
L 123.062645 229.003871 
L 123.283309 229.31753 
L 123.75 230.467775 
L 124.7544 232.882127 
L 125.043545 233.329495 
L 125.081591 233.265363 
L 125.188118 232.662593 
L 125.697927 228.905704 
L 125.9541 228.323278 
L 126.1215 228.346519 
L 126.339627 228.674224 
L 126.780955 229.833231 
L 127.876664 232.720174 
L 128.150591 233.125479 
L 128.1861 233.09277 
L 128.340818 232.704404 
L 128.977445 229.853249 
L 129.251373 228.970757 
L 129.428918 228.933163 
L 129.626755 229.185991 
L 130.019891 230.136135 
L 131.176473 233.01767 
L 131.283 233.16191 
L 131.333727 233.078358 
L 132.424364 230.50728 
L 132.634882 230.635647 
L 132.979827 231.16528 
L 134.552373 233.871993 
L 135.219436 234.445187 
L 135.257482 234.450068 
L 135.285382 234.361932 
L 136.279636 230.391241 
L 136.454645 230.423149 
L 136.515518 230.448514 
L 136.548491 230.36589 
L 137.005036 229.12716 
L 137.012645 229.129567 
L 137.182582 229.309393 
L 137.522455 230.08158 
L 138.755127 233.052039 
L 139.381609 233.91686 
L 140.035991 234.450321 
L 140.119691 234.477655 
L 140.147591 234.395498 
L 141.141845 230.822279 
L 141.357436 230.866093 
L 141.725209 231.15253 
L 141.783545 231.022149 
L 142.232482 230.096699 
L 142.432855 230.146705 
L 142.732145 230.509516 
L 143.389064 231.480919 
L 143.449936 231.419766 
L 143.665527 230.963685 
L 144.099245 228.657103 
L 144.444191 226.971976 
L 144.654709 226.780809 
L 144.776455 226.697283 
L 144.885518 225.907321 
L 145.293873 223.002785 
L 145.491709 222.789696 
L 145.648964 222.955566 
L 145.854409 223.043972 
L 146.1258 223.143827 
L 146.374364 223.551114 
L 146.475818 223.697161 
L 146.529082 223.62459 
L 146.843591 223.240894 
L 147.008455 223.442154 
L 147.267164 224.001732 
L 147.340718 223.830718 
L 147.558845 222.683038 
L 147.8556 221.55904 
L 148.012855 221.53141 
L 148.015391 221.533458 
L 148.192936 221.824429 
L 148.540418 222.919709 
L 149.151682 224.764589 
L 149.352055 224.886177 
L 149.623445 225.395723 
L 150.384355 227.496826 
L 150.432545 227.586503 
L 150.480736 227.454256 
L 150.835827 226.422991 
L 150.985473 226.245896 
L 151.464845 223.355758 
L 151.624636 223.3537 
L 151.825009 223.664768 
L 152.256191 224.849215 
L 153.430527 228.104228 
L 153.691773 228.504196 
L 153.724745 228.478709 
L 153.958091 228.06957 
L 154.039255 227.693911 
L 154.472973 225.454942 
L 154.680955 225.307288 
L 154.878791 225.458768 
L 155.236418 226.081944 
L 156.146973 227.758291 
L 156.162191 227.750308 
L 156.740482 227.545024 
L 157.1463 227.646839 
L 157.164055 227.600249 
L 157.694155 226.445965 
L 157.912282 226.474258 
L 158.176064 226.677943 
L 158.209036 226.523349 
L 158.784791 223.144113 
L 158.944582 223.17453 
L 159.170318 223.520465 
L 159.672518 224.804667 
L 160.139209 226.025133 
L 160.192473 225.933224 
L 160.656627 224.988682 
L 160.844318 225.08364 
L 161.156291 225.553843 
L 161.300864 225.761855 
L 161.351591 225.691142 
L 161.884227 224.812662 
L 162.097282 225.030334 
L 162.525927 225.867711 
L 163.771282 228.353922 
L 164.504291 229.284923 
L 165.270273 229.904229 
L 166.183364 230.349448 
L 167.121818 230.582995 
L 167.253709 229.876178 
L 167.591045 228.477978 
L 167.834536 228.236253 
L 168.070418 228.306798 
L 168.483845 228.720843 
L 168.795818 229.058217 
L 168.838936 228.973449 
L 169.4502 227.498758 
L 169.564336 227.386171 
L 170.018345 225.706766 
L 170.190818 225.747845 
L 170.429236 225.974027 
L 170.487573 225.860552 
L 170.893391 224.520484 
L 171.702491 220.633045 
L 172.219909 218.985616 
L 172.224982 218.987023 
L 172.367018 219.14895 
L 172.6308 219.879276 
L 172.767764 220.291498 
L 172.833709 220.185193 
L 173.079736 219.879804 
L 173.082273 219.880977 
L 173.229382 220.077935 
L 173.264891 220.116206 
L 173.308009 219.99987 
L 173.470336 218.664767 
L 173.797527 216.697915 
L 173.992827 216.489803 
L 174.342845 216.495658 
L 174.424009 216.344287 
L 174.824755 215.229358 
L 174.832364 215.231592 
L 175.423336 215.539873 
L 175.557764 215.755911 
L 175.603418 215.678745 
L 175.821545 214.730498 
L 176.070109 214.197201 
L 176.214682 214.259432 
L 176.374473 214.456459 
L 176.415055 214.326637 
L 176.828482 212.793613 
L 176.9553 212.914772 
L 177.1785 213.531172 
L 177.650264 215.63915 
L 178.672418 220.223002 
L 178.682564 220.217572 
L 178.778945 219.983658 
L 179.035118 219.550732 
L 179.182227 219.658551 
L 179.430791 220.19839 
L 179.613409 220.622406 
L 179.666673 220.528182 
L 179.927918 219.389222 
L 180.184091 218.042182 
L 180.752236 214.035845 
L 180.995727 213.397964 
L 181.152982 213.188284 
L 181.3914 212.182852 
L 182.454136 202.151497 
L 182.621536 201.952809 
L 182.636755 201.959629 
L 182.865027 202.072845 
L 182.903073 201.987478 
L 183.324109 201.065669 
L 183.3444 201.075851 
L 183.476291 201.148433 
L 183.5118 201.062399 
L 183.5955 200.346442 
L 184.227055 193.136959 
L 184.584682 192.348502 
L 184.8231 191.918773 
L 184.939773 190.778598 
L 185.261891 184.968896 
L 185.6601 172.942394 
L 185.7996 160.836942 
L 185.8554 133.156342 
L 185.893445 49.700124 
L 185.964464 129.612763 
L 186.119182 190.706631 
L 186.332236 209.79047 
L 186.565582 214.650013 
L 186.788782 215.821969 
L 186.918136 215.823425 
L 186.930818 215.80943 
L 187.093145 215.432949 
L 187.186991 214.830188 
L 187.623245 211.45598 
L 187.8642 211.00927 
L 188.026527 211.059855 
L 188.275091 211.361828 
L 188.351182 211.228623 
L 188.599745 210.957396 
L 188.746855 211.124692 
L 188.997955 211.827947 
L 189.497618 214.023764 
L 189.710673 214.763724 
L 189.746182 214.701168 
L 189.878073 213.873212 
L 190.250918 211.879599 
L 190.463973 211.652614 
L 190.621227 211.7879 
L 190.971245 212.522997 
L 191.392282 213.743442 
L 191.498809 213.924192 
L 191.544464 213.854277 
L 191.668745 213.213558 
L 191.917309 209.616644 
L 192.508282 198.611589 
L 192.855764 194.139687 
L 193.251436 190.135559 
L 193.517755 185.252812 
L 193.971764 172.144538 
L 194.111264 160.466314 
L 194.1696 133.119988 
L 194.207645 54.082318 
L 194.278664 134.81874 
L 194.430845 188.741122 
L 194.641364 204.750215 
L 194.889927 209.479789 
L 195.153709 210.936491 
L 195.163855 210.932715 
L 195.247555 210.742574 
L 195.901936 208.029795 
L 196.302682 205.323684 
L 196.576609 204.733962 
L 196.761764 204.727372 
L 196.901264 204.850222 
L 196.944382 204.725103 
L 197.284255 203.86662 
L 197.428827 203.950165 
L 197.596227 204.180705 
L 197.664709 204.076941 
L 197.8524 203.477748 
L 198.222709 201.815873 
L 198.3825 201.290925 
L 198.656427 200.670491 
L 198.844118 200.416268 
L 199.006445 199.983267 
L 199.300664 198.105591 
L 199.559373 195.361478 
L 199.845982 190.639512 
L 200.761609 172.879836 
L 200.896036 161.487282 
L 200.954373 134.313868 
L 200.994955 49.676464 
L 201.065973 131.396105 
L 201.220691 189.850452 
L 201.431209 206.9885 
L 201.722891 213.602567 
L 202.032327 216.291665 
L 202.070373 216.316934 
L 202.128709 216.244769 
L 202.2885 215.776336 
L 202.879473 211.82061 
L 203.051945 211.557623 
L 203.401964 210.868845 
L 203.551609 210.956359 
L 203.769736 211.422734 
L 204.162873 212.888974 
L 204.9669 216.047823 
L 204.9948 216.028392 
L 205.220536 215.600627 
L 205.321991 215.015325 
L 206.169136 209.018601 
L 206.369509 208.734175 
L 206.5014 208.88997 
L 206.737282 209.604078 
L 207.419564 212.026275 
L 207.452536 211.944144 
L 207.721391 210.310312 
L 208.205836 207.287695 
L 208.543173 203.577819 
L 208.845 201.810608 
L 209.035227 201.608997 
L 209.037764 201.610037 
L 209.177264 201.791076 
L 209.410609 202.130448 
L 209.448655 202.108925 
L 209.595764 201.893106 
L 210.176591 199.692214 
L 210.6864 197.391784 
L 210.927355 197.150844 
L 211.112509 197.251664 
L 211.371218 197.700966 
L 211.754209 198.873301 
L 212.172709 200.176418 
L 212.205682 200.133762 
L 212.340109 199.562499 
L 212.672373 197.191684 
L 213.374945 189.927443 
L 214.047082 176.468786 
L 214.211945 166.393918 
L 214.288036 146.412891 
L 214.338764 45.700676 
L 214.412318 130.930529 
L 214.567036 192.157109 
L 214.772482 209.815063 
L 215.031191 215.054758 
L 215.170691 215.891077 
L 215.213809 215.853549 
L 215.581582 215.507557 
L 215.584118 215.509349 
L 215.855509 215.703796 
L 215.908773 215.613804 
L 216.131973 214.944736 
L 216.471845 213.708874 
L 216.621491 213.718699 
L 216.804109 214.049136 
L 217.149055 215.23146 
L 217.417909 215.8163 
L 217.783145 216.453096 
L 218.176282 217.762232 
L 219.005673 221.493042 
L 219.436855 223.0061 
L 219.439391 223.005555 
L 219.6702 223.065987 
L 219.8934 223.487223 
L 219.9492 223.539978 
L 220.002464 223.4615 
L 220.380382 222.876136 
L 220.474227 222.682342 
L 221.095636 220.899652 
L 221.805818 219.801444 
L 221.968145 219.951013 
L 222.226855 220.567342 
L 222.729055 222.459399 
L 222.805145 222.628223 
L 222.863482 222.548985 
L 223.028345 221.812637 
L 223.304809 221.011421 
L 223.449382 221.042075 
L 223.644682 221.404516 
L 224.042891 222.717798 
L 225.546955 227.964759 
L 226.193727 229.374533 
L 226.1988 229.371122 
L 226.264745 229.135481 
L 226.503164 226.995311 
L 226.782164 225.745573 
L 226.982536 225.597793 
L 227.165155 225.759942 
L 227.505027 226.433814 
L 227.695255 226.737794 
L 227.738373 226.70152 
L 228.2076 226.305905 
L 228.352173 226.404101 
L 228.385145 226.289361 
L 228.780818 224.911787 
L 229.042064 224.721028 
L 229.163809 223.254265 
L 229.782682 216.62817 
L 230.041391 215.362898 
L 230.4396 214.73185 
L 230.497936 214.7891 
L 230.683091 215.230504 
L 231.043255 216.784283 
L 231.776264 219.925194 
L 232.042582 220.394225 
L 232.410355 221.631094 
L 232.948064 223.312242 
L 233.123073 223.458256 
L 233.166191 223.403047 
L 233.270182 223.019194 
L 233.726727 221.054062 
L 233.820573 220.614307 
L 234.109718 219.593587 
L 234.251755 219.613105 
L 234.434373 219.969351 
L 234.799609 221.279247 
L 236.694273 228.737916 
L 237.379091 230.305188 
L 238.0563 231.324825 
L 238.581327 231.825621 
L 238.599082 231.805655 
L 238.751264 231.384722 
L 239.146936 230.459644 
L 239.403109 230.337437 
L 239.677036 230.469082 
L 240.171627 231.011807 
L 240.445555 231.32519 
L 240.488673 231.235919 
L 240.9858 230.077994 
L 241.196318 230.156613 
L 241.561555 230.592197 
L 242.999673 232.463761 
L 243.260918 232.653225 
L 243.293891 232.586861 
L 243.973636 230.971265 
L 244.224736 231.097987 
L 244.714255 231.663537 
L 244.848682 231.681887 
L 244.861364 231.670289 
L 245.125145 231.256314 
L 246.172664 228.043763 
L 246.3426 228.088041 
L 246.586091 228.456079 
L 247.154236 229.839113 
L 247.544836 230.569267 
L 247.554982 230.564701 
L 247.823836 230.300644 
L 248.062255 229.955551 
L 248.402127 229.136279 
L 248.594891 229.129399 
L 248.833309 229.400651 
L 249.322827 230.379214 
L 250.342445 232.359946 
L 250.456582 232.491522 
L 250.4997 232.406688 
L 251.095745 230.93838 
L 251.311336 231.037198 
L 251.608091 231.269465 
L 251.653745 231.194742 
L 252.493282 229.213819 
L 252.807791 227.647334 
L 252.987873 227.551682 
L 253.165418 227.766592 
L 253.523045 228.636077 
L 254.831809 232.013779 
L 255.301036 232.740688 
L 255.323864 232.707492 
L 255.483655 232.064293 
L 255.782945 231.281004 
L 255.993464 231.218768 
L 256.244564 231.421614 
L 256.840609 232.28824 
L 257.342809 232.976894 
L 257.373245 232.898126 
L 257.898273 231.191987 
L 258.108791 231.034496 
L 258.468955 229.681171 
L 258.638891 229.677911 
L 258.864627 229.974784 
L 259.1208 230.402345 
L 259.184209 230.317676 
L 260.1252 228.769099 
L 260.234264 228.67359 
L 260.746609 227.813358 
L 260.754218 227.817062 
L 260.952055 228.046509 
L 261.317291 228.889543 
L 262.103564 231.044165 
L 262.164436 230.873561 
L 262.494164 229.988936 
L 262.659027 230.027869 
L 262.917736 230.396263 
L 263.318482 231.176391 
L 263.384427 231.028543 
L 263.769955 230.112459 
L 263.952573 230.155691 
L 264.2265 230.517026 
L 266.103409 233.490849 
L 266.156673 233.489513 
L 266.192182 233.42433 
L 266.443282 232.500987 
L 266.7375 231.907329 
L 266.968309 231.857111 
L 267.254918 232.061401 
L 267.980318 232.960273 
L 268.799564 233.795801 
L 269.578227 234.269153 
L 269.814109 234.256638 
L 270.039845 233.700335 
L 270.1692 232.822246 
L 270.625745 229.537491 
L 270.8667 229.136202 
L 271.041709 229.186436 
L 271.292809 229.552427 
L 271.838127 230.845534 
L 272.114591 231.469521 
L 272.167855 231.384202 
L 272.616791 230.545634 
L 272.807018 230.663502 
L 273.002318 230.87954 
L 273.053045 230.7747 
L 273.481691 229.823542 
L 273.854536 229.738981 
L 274.128464 228.512852 
L 274.377027 228.037349 
L 274.536818 228.092963 
L 274.770164 228.486094 
L 275.277436 229.890291 
L 275.617309 230.734797 
L 275.660427 230.699084 
L 275.799927 230.348627 
L 276.439091 226.539366 
L 276.578591 226.604978 
L 276.796718 227.044949 
L 277.303991 228.705804 
L 277.922864 230.649421 
L 277.955836 230.610688 
L 278.102945 230.064189 
L 278.432673 229.121806 
L 278.630509 229.065653 
L 278.8461 229.283408 
L 279.104809 229.659584 
L 279.165682 229.564912 
L 280.502345 226.839316 
L 280.669745 226.991611 
L 280.956355 227.627278 
L 281.871982 230.478842 
L 282.582164 232.203228 
L 282.604991 232.207686 
L 282.648109 232.11578 
L 283.127482 230.965308 
L 283.320245 231.057786 
L 283.416627 231.14149 
L 283.454673 231.035339 
L 283.8402 229.908309 
L 284.005064 229.975163 
L 284.281527 230.406281 
L 284.573209 230.99736 
L 284.629009 230.848096 
L 284.961273 229.995361 
L 285.126136 230.043411 
L 285.389918 230.430033 
L 286.708827 232.909429 
L 286.759555 232.763404 
L 287.221173 231.218001 
L 287.419009 231.204522 
L 287.682791 231.466438 
L 288.532473 232.795124 
L 289.275627 233.681256 
L 290.0061 234.209248 
L 290.8989 234.569908 
L 291.657273 234.677816 
L 291.811991 234.092384 
L 292.184836 232.907826 
L 292.4334 232.732022 
L 292.689573 232.831315 
L 293.179091 233.324022 
L 293.4936 233.652477 
L 293.531645 233.55772 
L 294.094718 231.844144 
L 294.322991 231.71087 
L 294.452345 230.9387 
L 294.797291 229.216684 
L 295.0002 229.044221 
L 295.175209 229.200667 
L 295.276664 229.235538 
L 295.312173 229.198271 
L 295.702773 228.864694 
L 295.857491 228.901208 
L 295.885391 228.848522 
L 296.166927 228.52407 
L 296.334327 228.675258 
L 296.631082 229.324048 
L 297.795273 232.452923 
L 297.846 232.273086 
L 298.751482 226.610796 
L 298.974682 226.154434 
L 299.109109 226.243275 
L 299.332309 226.749498 
L 299.847191 228.618969 
L 300.331636 230.070788 
L 300.4965 229.920359 
L 300.699409 228.691021 
L 300.958118 227.922468 
L 301.120445 227.921586 
L 301.323355 228.226226 
L 301.739318 229.349342 
L 302.071582 230.25782 
L 302.129918 230.190213 
L 302.939018 229.008721 
L 303.124173 229.095816 
L 303.3981 229.531895 
L 304.0398 231.101384 
L 304.6815 232.536044 
L 304.706864 232.496954 
L 305.188773 231.61203 
L 305.417045 231.795793 
L 305.982655 232.642306 
L 306.819655 233.742704 
L 307.534909 234.316785 
L 308.371909 234.695784 
L 309.584291 234.978461 
L 310.0104 234.93828 
L 310.299545 233.811637 
L 310.593764 233.233986 
L 310.837255 233.169217 
L 311.146691 233.350733 
L 313.203682 234.958454 
L 314.213155 235.23866 
L 315.948027 235.454917 
L 316.110355 235.368155 
L 316.675964 233.191966 
L 316.891555 233.198953 
L 317.221282 233.487534 
L 318.646718 234.916783 
L 319.427918 235.287681 
L 320.084836 235.391278 
L 320.292818 234.967211 
L 320.452609 234.314002 
L 320.995391 230.194768 
L 321.282 228.018107 
L 321.479836 227.738759 
L 321.621873 227.879412 
L 321.885655 228.543114 
L 322.945855 232.057839 
L 323.034627 231.781924 
L 323.331382 231.009779 
L 323.503855 231.026668 
L 323.747345 231.349741 
L 324.586882 233.046603 
L 325.274236 234.087924 
L 325.441636 234.244643 
L 325.479682 234.168412 
L 326.473936 231.238325 
L 326.509445 231.253929 
L 326.737718 231.508708 
L 327.328691 232.623796 
L 328.109891 233.893168 
L 328.766809 234.546659 
L 329.494745 234.955738 
L 329.887882 235.063299 
L 329.905636 235.006616 
L 330.164345 233.507154 
L 330.679227 228.663115 
L 330.968373 226.662238 
L 331.209327 226.32661 
L 331.445209 226.222709 
L 331.620218 226.440387 
L 331.757182 226.724548 
L 331.807909 226.571659 
L 332.198509 225.23175 
L 332.201045 225.232368 
L 332.327864 225.382967 
L 332.568818 226.115806 
L 333.304364 229.371231 
L 334.029764 232.014703 
L 334.537036 233.213061 
L 334.552255 233.196442 
L 334.666391 232.74564 
L 335.323309 230.127776 
L 335.328382 230.128921 
L 335.508464 230.289458 
L 335.853409 230.974738 
L 337.093691 233.597955 
L 337.702418 234.315738 
L 337.773436 234.198494 
L 338.379627 232.697202 
L 338.6079 232.77047 
L 339.001036 233.191665 
L 339.728973 234.07815 
L 339.767018 233.995847 
L 340.352918 232.36584 
L 340.568509 232.499652 
L 341.0073 233.109939 
L 341.976191 234.41945 
L 342.191782 234.551925 
L 342.222218 234.512477 
L 342.470782 233.896571 
L 342.752318 232.925533 
L 342.990736 230.895419 
L 343.277345 229.285535 
L 343.472645 229.106059 
L 343.634973 229.276936 
L 343.946945 230.013964 
L 344.811845 232.408606 
L 344.877791 232.32961 
L 344.991927 231.901776 
L 345.392673 229.984979 
L 345.572755 229.921994 
L 345.765518 230.157493 
L 346.166264 231.09107 
L 346.612664 232.19186 
L 346.665927 232.099842 
L 347.099645 231.24341 
L 347.2848 231.351835 
L 347.614527 231.873285 
L 348.925827 234.13386 
L 349.580209 234.736057 
L 350.323364 235.114393 
L 351.287182 235.346473 
L 351.370882 235.12148 
L 351.923809 233.327832 
L 352.162227 233.246667 
L 352.451373 233.414925 
L 353.222427 234.237778 
L 354.011236 234.892002 
L 354.500755 235.108881 
L 354.515973 235.077196 
L 354.685909 234.33675 
L 354.997882 233.43185 
L 355.233764 233.29705 
L 355.451891 233.207128 
L 355.845027 232.385614 
L 356.0454 232.417969 
L 356.344691 232.751552 
L 357.5241 234.404535 
L 357.574827 234.322793 
L 357.947673 233.145259 
L 358.406755 231.045465 
L 358.591909 230.992049 
L 358.799891 231.225101 
L 359.261509 232.164632 
L 359.335064 231.887093 
L 359.641964 230.869399 
L 359.804291 230.878175 
L 360.030027 231.203881 
L 360.755427 232.837042 
L 361.450391 234.066364 
L 362.076873 234.741128 
L 362.766764 235.158083 
L 363.099027 235.184048 
L 363.322227 234.630597 
L 363.702682 233.918498 
L 363.984218 233.803342 
L 364.306336 233.932696 
L 364.894773 234.382992 
L 364.948036 234.238233 
L 365.188991 232.900877 
L 365.620173 229.618486 
L 365.8662 229.101922 
L 366.206073 228.80891 
L 366.444491 228.539614 
L 366.601745 228.676076 
L 366.875673 229.291863 
L 368.608009 233.810872 
L 369.211664 234.530281 
L 369.257318 234.542985 
L 369.295364 234.460554 
L 369.406964 233.758492 
L 369.802636 230.68111 
L 370.018227 230.370019 
L 370.180555 230.464868 
L 370.462091 230.96326 
L 370.855227 231.797378 
L 370.918636 231.70966 
L 371.337136 231.081564 
L 371.532436 231.221024 
L 371.890064 231.820535 
L 372.207109 232.3861 
L 372.260373 232.315776 
L 372.742282 231.605349 
L 372.957873 231.768032 
L 373.378909 232.43963 
L 373.581818 232.809712 
L 373.581818 232.809712 
" clip-path="url(#p6d2949d955)" style="fill: none; stroke: #ff0000; stroke-width: 1.5; stroke-linecap: square"/>
   </g>
   <g id="line2d_18">
    <path d="M 81.899894 213.171429 
L 84.431164 213.171429 
L 84.431164 213.171429 
" clip-path="url(#p6d2949d955)" style="fill: none; stroke: #000000; stroke-width: 1.5; stroke-linecap: square"/>
   </g>
   <g id="line2d_19">
    <path d="M 81.899894 189.874286 
L 81.899894 188.321143 
L 81.899894 186.768 
L 81.899894 185.214857 
L 81.899894 183.661714 
L 81.899894 182.108571 
L 81.899894 180.555429 
L 81.899894 179.002286 
L 81.899894 177.449143 
L 81.899894 175.896 
L 81.899894 174.342857 
L 81.899894 172.789714 
L 81.899894 171.236571 
L 81.899894 169.683429 
L 81.899894 168.130286 
L 81.899894 166.577143 
L 81.899894 165.024 
L 81.899894 163.470857 
L 81.899894 161.917714 
L 81.899894 160.364571 
" clip-path="url(#p6d2949d955)" style="fill: none; stroke: #000000; stroke-width: 1.5; stroke-linecap: square"/>
   </g>
   <g id="patch_3">
    <path d="M 54 252 
L 54 34.56 
" style="fill: none; stroke: #000000; stroke-width: 0.8; stroke-linejoin: miter; stroke-linecap: square"/>
   </g>
   <g id="patch_4">
    <path d="M 54 252 
L 388.8 252 
" style="fill: none; stroke: #000000; stroke-width: 0.8; stroke-linejoin: miter; stroke-linecap: square"/>
   </g>
   <g id="text_18">
    <!-- 500 ms -->
    <g transform="translate(81.899894 211.618286)scale(0.1 -0.1)">
     <use xlink:href="#DejaVuSans-35"/>
     <use xlink:href="#DejaVuSans-30" x="63.623047"/>
     <use xlink:href="#DejaVuSans-30" x="127.246094"/>
     <use xlink:href="#DejaVuSans-20" x="190.869141"/>
     <use xlink:href="#DejaVuSans-6d" x="222.65625"/>
     <use xlink:href="#DejaVuSans-73" x="320.068359"/>
    </g>
   </g>
   <g id="text_19">
    <!-- 20 mV -->
    <g transform="translate(82.153529 158.811429)scale(0.1 -0.1)">
     <use xlink:href="#DejaVuSans-32"/>
     <use xlink:href="#DejaVuSans-30" x="63.623047"/>
     <use xlink:href="#DejaVuSans-20" x="127.246094"/>
     <use xlink:href="#DejaVuSans-6d" x="159.033203"/>
     <use xlink:href="#DejaVuSans-56" x="256.445312"/>
    </g>
   </g>
  </g>
 </g>
 <defs>
  <clipPath id="p6d2949d955">
   <rect x="54" y="34.56" width="334.8" height="217.44"/>
  </clipPath>
 </defs>
</svg>
