<?xml version="1.0" encoding="utf-8" standalone="no"?>
<!DOCTYPE svg PUBLIC "-//W3C//DTD SVG 1.1//EN"
  "http://www.w3.org/Graphics/SVG/1.1/DTD/svg11.dtd">
<svg height="345.6pt" version="1.1" viewBox="0 0 460.8 345.6" width="460.8pt" xmlns="http://www.w3.org/2000/svg" xmlns:xlink="http://www.w3.org/1999/xlink">
 <metadata>
  <rdf:RDF xmlns:cc="http://creativecommons.org/ns#" xmlns:dc="http://purl.org/dc/elements/1.1/" xmlns:rdf="http://www.w3.org/1999/02/22-rdf-syntax-ns#">
   <cc:Work>
    <dc:type rdf:resource="http://purl.org/dc/dcmitype/StillImage"/>
    <dc:date>2021-07-19T21:00:14.539814</dc:date>
    <dc:format>image/svg+xml</dc:format>
    <dc:creator>
     <cc:Agent>
      <dc:title>Matplotlib v3.4.1, https://matplotlib.org/</dc:title>
     </cc:Agent>
    </dc:creator>
   </cc:Work>
  </rdf:RDF>
 </metadata>
 <defs>
  <style type="text/css">*{stroke-linecap:butt;stroke-linejoin:round;}</style>
 </defs>
 <g id="figure_1">
  <g id="patch_1">
   <path d="M 0 345.6 
L 460.8 345.6 
L 460.8 0 
L 0 0 
z
" style="fill:#ffffff;"/>
  </g>
  <g id="axes_1">
   <g id="patch_2">
    <path d="M 57.6 307.584 
L 414.72 307.584 
L 414.72 41.472 
L 57.6 41.472 
z
" style="fill:#ffffff;"/>
   </g>
   <g id="matplotlib.axis_1">
    <g id="xtick_1">
     <g id="line2d_1">
      <defs>
       <path d="M 0 0 
L 0 3.5 
" id="mad0d447be0" style="stroke:#000000;stroke-width:0.8;"/>
      </defs>
      <g>
       <use style="stroke:#000000;stroke-width:0.8;" x="68.330108" xlink:href="#mad0d447be0" y="307.584"/>
      </g>
     </g>
     <g id="text_1">
      <!-- 0 -->
      <g transform="translate(64.512608 323.702125)scale(0.12 -0.12)">
       <defs>
        <path d="M 2034 4250 
Q 1547 4250 1301 3770 
Q 1056 3291 1056 2328 
Q 1056 1369 1301 889 
Q 1547 409 2034 409 
Q 2525 409 2770 889 
Q 3016 1369 3016 2328 
Q 3016 3291 2770 3770 
Q 2525 4250 2034 4250 
z
M 2034 4750 
Q 2819 4750 3233 4129 
Q 3647 3509 3647 2328 
Q 3647 1150 3233 529 
Q 2819 -91 2034 -91 
Q 1250 -91 836 529 
Q 422 1150 422 2328 
Q 422 3509 836 4129 
Q 1250 4750 2034 4750 
z
" id="DejaVuSans-30" transform="scale(0.015625)"/>
       </defs>
       <use xlink:href="#DejaVuSans-30"/>
      </g>
     </g>
    </g>
    <g id="xtick_2">
     <g id="line2d_2">
      <g>
       <use style="stroke:#000000;stroke-width:0.8;" x="123.356302" xlink:href="#mad0d447be0" y="307.584"/>
      </g>
     </g>
     <g id="text_2">
      <!-- 500 -->
      <g transform="translate(111.903802 323.702125)scale(0.12 -0.12)">
       <defs>
        <path d="M 691 4666 
L 3169 4666 
L 3169 4134 
L 1269 4134 
L 1269 2991 
Q 1406 3038 1543 3061 
Q 1681 3084 1819 3084 
Q 2600 3084 3056 2656 
Q 3513 2228 3513 1497 
Q 3513 744 3044 326 
Q 2575 -91 1722 -91 
Q 1428 -91 1123 -41 
Q 819 9 494 109 
L 494 744 
Q 775 591 1075 516 
Q 1375 441 1709 441 
Q 2250 441 2565 725 
Q 2881 1009 2881 1497 
Q 2881 1984 2565 2268 
Q 2250 2553 1709 2553 
Q 1456 2553 1204 2497 
Q 953 2441 691 2322 
L 691 4666 
z
" id="DejaVuSans-35" transform="scale(0.015625)"/>
       </defs>
       <use xlink:href="#DejaVuSans-35"/>
       <use x="63.623047" xlink:href="#DejaVuSans-30"/>
       <use x="127.246094" xlink:href="#DejaVuSans-30"/>
      </g>
     </g>
    </g>
    <g id="xtick_3">
     <g id="line2d_3">
      <g>
       <use style="stroke:#000000;stroke-width:0.8;" x="178.382496" xlink:href="#mad0d447be0" y="307.584"/>
      </g>
     </g>
     <g id="text_3">
      <!-- 1000 -->
      <g transform="translate(163.112496 323.702125)scale(0.12 -0.12)">
       <defs>
        <path d="M 794 531 
L 1825 531 
L 1825 4091 
L 703 3866 
L 703 4441 
L 1819 4666 
L 2450 4666 
L 2450 531 
L 3481 531 
L 3481 0 
L 794 0 
L 794 531 
z
" id="DejaVuSans-31" transform="scale(0.015625)"/>
       </defs>
       <use xlink:href="#DejaVuSans-31"/>
       <use x="63.623047" xlink:href="#DejaVuSans-30"/>
       <use x="127.246094" xlink:href="#DejaVuSans-30"/>
       <use x="190.869141" xlink:href="#DejaVuSans-30"/>
      </g>
     </g>
    </g>
    <g id="xtick_4">
     <g id="line2d_4">
      <g>
       <use style="stroke:#000000;stroke-width:0.8;" x="233.40869" xlink:href="#mad0d447be0" y="307.584"/>
      </g>
     </g>
     <g id="text_4">
      <!-- 1500 -->
      <g transform="translate(218.13869 323.702125)scale(0.12 -0.12)">
       <use xlink:href="#DejaVuSans-31"/>
       <use x="63.623047" xlink:href="#DejaVuSans-35"/>
       <use x="127.246094" xlink:href="#DejaVuSans-30"/>
       <use x="190.869141" xlink:href="#DejaVuSans-30"/>
      </g>
     </g>
    </g>
    <g id="xtick_5">
     <g id="line2d_5">
      <g>
       <use style="stroke:#000000;stroke-width:0.8;" x="288.434884" xlink:href="#mad0d447be0" y="307.584"/>
      </g>
     </g>
     <g id="text_5">
      <!-- 2000 -->
      <g transform="translate(273.164884 323.702125)scale(0.12 -0.12)">
       <defs>
        <path d="M 1228 531 
L 3431 531 
L 3431 0 
L 469 0 
L 469 531 
Q 828 903 1448 1529 
Q 2069 2156 2228 2338 
Q 2531 2678 2651 2914 
Q 2772 3150 2772 3378 
Q 2772 3750 2511 3984 
Q 2250 4219 1831 4219 
Q 1534 4219 1204 4116 
Q 875 4013 500 3803 
L 500 4441 
Q 881 4594 1212 4672 
Q 1544 4750 1819 4750 
Q 2544 4750 2975 4387 
Q 3406 4025 3406 3419 
Q 3406 3131 3298 2873 
Q 3191 2616 2906 2266 
Q 2828 2175 2409 1742 
Q 1991 1309 1228 531 
z
" id="DejaVuSans-32" transform="scale(0.015625)"/>
       </defs>
       <use xlink:href="#DejaVuSans-32"/>
       <use x="63.623047" xlink:href="#DejaVuSans-30"/>
       <use x="127.246094" xlink:href="#DejaVuSans-30"/>
       <use x="190.869141" xlink:href="#DejaVuSans-30"/>
      </g>
     </g>
    </g>
    <g id="xtick_6">
     <g id="line2d_6">
      <g>
       <use style="stroke:#000000;stroke-width:0.8;" x="343.461079" xlink:href="#mad0d447be0" y="307.584"/>
      </g>
     </g>
     <g id="text_6">
      <!-- 2500 -->
      <g transform="translate(328.191079 323.702125)scale(0.12 -0.12)">
       <use xlink:href="#DejaVuSans-32"/>
       <use x="63.623047" xlink:href="#DejaVuSans-35"/>
       <use x="127.246094" xlink:href="#DejaVuSans-30"/>
       <use x="190.869141" xlink:href="#DejaVuSans-30"/>
      </g>
     </g>
    </g>
    <g id="xtick_7">
     <g id="line2d_7">
      <g>
       <use style="stroke:#000000;stroke-width:0.8;" x="398.487273" xlink:href="#mad0d447be0" y="307.584"/>
      </g>
     </g>
     <g id="text_7">
      <!-- 3000 -->
      <g transform="translate(383.217273 323.702125)scale(0.12 -0.12)">
       <defs>
        <path d="M 2597 2516 
Q 3050 2419 3304 2112 
Q 3559 1806 3559 1356 
Q 3559 666 3084 287 
Q 2609 -91 1734 -91 
Q 1441 -91 1130 -33 
Q 819 25 488 141 
L 488 750 
Q 750 597 1062 519 
Q 1375 441 1716 441 
Q 2309 441 2620 675 
Q 2931 909 2931 1356 
Q 2931 1769 2642 2001 
Q 2353 2234 1838 2234 
L 1294 2234 
L 1294 2753 
L 1863 2753 
Q 2328 2753 2575 2939 
Q 2822 3125 2822 3475 
Q 2822 3834 2567 4026 
Q 2313 4219 1838 4219 
Q 1578 4219 1281 4162 
Q 984 4106 628 3988 
L 628 4550 
Q 988 4650 1302 4700 
Q 1616 4750 1894 4750 
Q 2613 4750 3031 4423 
Q 3450 4097 3450 3541 
Q 3450 3153 3228 2886 
Q 3006 2619 2597 2516 
z
" id="DejaVuSans-33" transform="scale(0.015625)"/>
       </defs>
       <use xlink:href="#DejaVuSans-33"/>
       <use x="63.623047" xlink:href="#DejaVuSans-30"/>
       <use x="127.246094" xlink:href="#DejaVuSans-30"/>
       <use x="190.869141" xlink:href="#DejaVuSans-30"/>
      </g>
     </g>
    </g>
    <g id="text_8">
     <!-- Time(ms) -->
     <g transform="translate(207.827812 339.315875)scale(0.12 -0.12)">
      <defs>
       <path d="M -19 4666 
L 3928 4666 
L 3928 4134 
L 2272 4134 
L 2272 0 
L 1638 0 
L 1638 4134 
L -19 4134 
L -19 4666 
z
" id="DejaVuSans-54" transform="scale(0.015625)"/>
       <path d="M 603 3500 
L 1178 3500 
L 1178 0 
L 603 0 
L 603 3500 
z
M 603 4863 
L 1178 4863 
L 1178 4134 
L 603 4134 
L 603 4863 
z
" id="DejaVuSans-69" transform="scale(0.015625)"/>
       <path d="M 3328 2828 
Q 3544 3216 3844 3400 
Q 4144 3584 4550 3584 
Q 5097 3584 5394 3201 
Q 5691 2819 5691 2113 
L 5691 0 
L 5113 0 
L 5113 2094 
Q 5113 2597 4934 2840 
Q 4756 3084 4391 3084 
Q 3944 3084 3684 2787 
Q 3425 2491 3425 1978 
L 3425 0 
L 2847 0 
L 2847 2094 
Q 2847 2600 2669 2842 
Q 2491 3084 2119 3084 
Q 1678 3084 1418 2786 
Q 1159 2488 1159 1978 
L 1159 0 
L 581 0 
L 581 3500 
L 1159 3500 
L 1159 2956 
Q 1356 3278 1631 3431 
Q 1906 3584 2284 3584 
Q 2666 3584 2933 3390 
Q 3200 3197 3328 2828 
z
" id="DejaVuSans-6d" transform="scale(0.015625)"/>
       <path d="M 3597 1894 
L 3597 1613 
L 953 1613 
Q 991 1019 1311 708 
Q 1631 397 2203 397 
Q 2534 397 2845 478 
Q 3156 559 3463 722 
L 3463 178 
Q 3153 47 2828 -22 
Q 2503 -91 2169 -91 
Q 1331 -91 842 396 
Q 353 884 353 1716 
Q 353 2575 817 3079 
Q 1281 3584 2069 3584 
Q 2775 3584 3186 3129 
Q 3597 2675 3597 1894 
z
M 3022 2063 
Q 3016 2534 2758 2815 
Q 2500 3097 2075 3097 
Q 1594 3097 1305 2825 
Q 1016 2553 972 2059 
L 3022 2063 
z
" id="DejaVuSans-65" transform="scale(0.015625)"/>
       <path d="M 1984 4856 
Q 1566 4138 1362 3434 
Q 1159 2731 1159 2009 
Q 1159 1288 1364 580 
Q 1569 -128 1984 -844 
L 1484 -844 
Q 1016 -109 783 600 
Q 550 1309 550 2009 
Q 550 2706 781 3412 
Q 1013 4119 1484 4856 
L 1984 4856 
z
" id="DejaVuSans-28" transform="scale(0.015625)"/>
       <path d="M 2834 3397 
L 2834 2853 
Q 2591 2978 2328 3040 
Q 2066 3103 1784 3103 
Q 1356 3103 1142 2972 
Q 928 2841 928 2578 
Q 928 2378 1081 2264 
Q 1234 2150 1697 2047 
L 1894 2003 
Q 2506 1872 2764 1633 
Q 3022 1394 3022 966 
Q 3022 478 2636 193 
Q 2250 -91 1575 -91 
Q 1294 -91 989 -36 
Q 684 19 347 128 
L 347 722 
Q 666 556 975 473 
Q 1284 391 1588 391 
Q 1994 391 2212 530 
Q 2431 669 2431 922 
Q 2431 1156 2273 1281 
Q 2116 1406 1581 1522 
L 1381 1569 
Q 847 1681 609 1914 
Q 372 2147 372 2553 
Q 372 3047 722 3315 
Q 1072 3584 1716 3584 
Q 2034 3584 2315 3537 
Q 2597 3491 2834 3397 
z
" id="DejaVuSans-73" transform="scale(0.015625)"/>
       <path d="M 513 4856 
L 1013 4856 
Q 1481 4119 1714 3412 
Q 1947 2706 1947 2009 
Q 1947 1309 1714 600 
Q 1481 -109 1013 -844 
L 513 -844 
Q 928 -128 1133 580 
Q 1338 1288 1338 2009 
Q 1338 2731 1133 3434 
Q 928 4138 513 4856 
z
" id="DejaVuSans-29" transform="scale(0.015625)"/>
      </defs>
      <use xlink:href="#DejaVuSans-54"/>
      <use x="57.958984" xlink:href="#DejaVuSans-69"/>
      <use x="85.742188" xlink:href="#DejaVuSans-6d"/>
      <use x="183.154297" xlink:href="#DejaVuSans-65"/>
      <use x="244.677734" xlink:href="#DejaVuSans-28"/>
      <use x="283.691406" xlink:href="#DejaVuSans-6d"/>
      <use x="381.103516" xlink:href="#DejaVuSans-73"/>
      <use x="433.203125" xlink:href="#DejaVuSans-29"/>
     </g>
    </g>
   </g>
   <g id="matplotlib.axis_2">
    <g id="ytick_1">
     <g id="line2d_8">
      <defs>
       <path d="M 0 0 
L -3.5 0 
" id="m5cc9b5ee2e" style="stroke:#000000;stroke-width:0.8;"/>
      </defs>
      <g>
       <use style="stroke:#000000;stroke-width:0.8;" x="57.6" xlink:href="#m5cc9b5ee2e" y="289.8432"/>
      </g>
     </g>
     <g id="text_9">
      <!-- -100 -->
      <g transform="translate(23.365625 294.402262)scale(0.12 -0.12)">
       <defs>
        <path d="M 313 2009 
L 1997 2009 
L 1997 1497 
L 313 1497 
L 313 2009 
z
" id="DejaVuSans-2d" transform="scale(0.015625)"/>
       </defs>
       <use xlink:href="#DejaVuSans-2d"/>
       <use x="36.083984" xlink:href="#DejaVuSans-31"/>
       <use x="99.707031" xlink:href="#DejaVuSans-30"/>
       <use x="163.330078" xlink:href="#DejaVuSans-30"/>
      </g>
     </g>
    </g>
    <g id="ytick_2">
     <g id="line2d_9">
      <g>
       <use style="stroke:#000000;stroke-width:0.8;" x="57.6" xlink:href="#m5cc9b5ee2e" y="254.3616"/>
      </g>
     </g>
     <g id="text_10">
      <!-- -80 -->
      <g transform="translate(31.000625 258.920662)scale(0.12 -0.12)">
       <defs>
        <path d="M 2034 2216 
Q 1584 2216 1326 1975 
Q 1069 1734 1069 1313 
Q 1069 891 1326 650 
Q 1584 409 2034 409 
Q 2484 409 2743 651 
Q 3003 894 3003 1313 
Q 3003 1734 2745 1975 
Q 2488 2216 2034 2216 
z
M 1403 2484 
Q 997 2584 770 2862 
Q 544 3141 544 3541 
Q 544 4100 942 4425 
Q 1341 4750 2034 4750 
Q 2731 4750 3128 4425 
Q 3525 4100 3525 3541 
Q 3525 3141 3298 2862 
Q 3072 2584 2669 2484 
Q 3125 2378 3379 2068 
Q 3634 1759 3634 1313 
Q 3634 634 3220 271 
Q 2806 -91 2034 -91 
Q 1263 -91 848 271 
Q 434 634 434 1313 
Q 434 1759 690 2068 
Q 947 2378 1403 2484 
z
M 1172 3481 
Q 1172 3119 1398 2916 
Q 1625 2713 2034 2713 
Q 2441 2713 2670 2916 
Q 2900 3119 2900 3481 
Q 2900 3844 2670 4047 
Q 2441 4250 2034 4250 
Q 1625 4250 1398 4047 
Q 1172 3844 1172 3481 
z
" id="DejaVuSans-38" transform="scale(0.015625)"/>
       </defs>
       <use xlink:href="#DejaVuSans-2d"/>
       <use x="36.083984" xlink:href="#DejaVuSans-38"/>
       <use x="99.707031" xlink:href="#DejaVuSans-30"/>
      </g>
     </g>
    </g>
    <g id="ytick_3">
     <g id="line2d_10">
      <g>
       <use style="stroke:#000000;stroke-width:0.8;" x="57.6" xlink:href="#m5cc9b5ee2e" y="218.88"/>
      </g>
     </g>
     <g id="text_11">
      <!-- -60 -->
      <g transform="translate(31.000625 223.439062)scale(0.12 -0.12)">
       <defs>
        <path d="M 2113 2584 
Q 1688 2584 1439 2293 
Q 1191 2003 1191 1497 
Q 1191 994 1439 701 
Q 1688 409 2113 409 
Q 2538 409 2786 701 
Q 3034 994 3034 1497 
Q 3034 2003 2786 2293 
Q 2538 2584 2113 2584 
z
M 3366 4563 
L 3366 3988 
Q 3128 4100 2886 4159 
Q 2644 4219 2406 4219 
Q 1781 4219 1451 3797 
Q 1122 3375 1075 2522 
Q 1259 2794 1537 2939 
Q 1816 3084 2150 3084 
Q 2853 3084 3261 2657 
Q 3669 2231 3669 1497 
Q 3669 778 3244 343 
Q 2819 -91 2113 -91 
Q 1303 -91 875 529 
Q 447 1150 447 2328 
Q 447 3434 972 4092 
Q 1497 4750 2381 4750 
Q 2619 4750 2861 4703 
Q 3103 4656 3366 4563 
z
" id="DejaVuSans-36" transform="scale(0.015625)"/>
       </defs>
       <use xlink:href="#DejaVuSans-2d"/>
       <use x="36.083984" xlink:href="#DejaVuSans-36"/>
       <use x="99.707031" xlink:href="#DejaVuSans-30"/>
      </g>
     </g>
    </g>
    <g id="ytick_4">
     <g id="line2d_11">
      <g>
       <use style="stroke:#000000;stroke-width:0.8;" x="57.6" xlink:href="#m5cc9b5ee2e" y="183.3984"/>
      </g>
     </g>
     <g id="text_12">
      <!-- -40 -->
      <g transform="translate(31.000625 187.957462)scale(0.12 -0.12)">
       <defs>
        <path d="M 2419 4116 
L 825 1625 
L 2419 1625 
L 2419 4116 
z
M 2253 4666 
L 3047 4666 
L 3047 1625 
L 3713 1625 
L 3713 1100 
L 3047 1100 
L 3047 0 
L 2419 0 
L 2419 1100 
L 313 1100 
L 313 1709 
L 2253 4666 
z
" id="DejaVuSans-34" transform="scale(0.015625)"/>
       </defs>
       <use xlink:href="#DejaVuSans-2d"/>
       <use x="36.083984" xlink:href="#DejaVuSans-34"/>
       <use x="99.707031" xlink:href="#DejaVuSans-30"/>
      </g>
     </g>
    </g>
    <g id="ytick_5">
     <g id="line2d_12">
      <g>
       <use style="stroke:#000000;stroke-width:0.8;" x="57.6" xlink:href="#m5cc9b5ee2e" y="147.9168"/>
      </g>
     </g>
     <g id="text_13">
      <!-- -20 -->
      <g transform="translate(31.000625 152.475862)scale(0.12 -0.12)">
       <use xlink:href="#DejaVuSans-2d"/>
       <use x="36.083984" xlink:href="#DejaVuSans-32"/>
       <use x="99.707031" xlink:href="#DejaVuSans-30"/>
      </g>
     </g>
    </g>
    <g id="ytick_6">
     <g id="line2d_13">
      <g>
       <use style="stroke:#000000;stroke-width:0.8;" x="57.6" xlink:href="#m5cc9b5ee2e" y="112.4352"/>
      </g>
     </g>
     <g id="text_14">
      <!-- 0 -->
      <g transform="translate(42.965 116.994262)scale(0.12 -0.12)">
       <use xlink:href="#DejaVuSans-30"/>
      </g>
     </g>
    </g>
    <g id="ytick_7">
     <g id="line2d_14">
      <g>
       <use style="stroke:#000000;stroke-width:0.8;" x="57.6" xlink:href="#m5cc9b5ee2e" y="76.9536"/>
      </g>
     </g>
     <g id="text_15">
      <!-- 20 -->
      <g transform="translate(35.33 81.512662)scale(0.12 -0.12)">
       <use xlink:href="#DejaVuSans-32"/>
       <use x="63.623047" xlink:href="#DejaVuSans-30"/>
      </g>
     </g>
    </g>
    <g id="ytick_8">
     <g id="line2d_15">
      <g>
       <use style="stroke:#000000;stroke-width:0.8;" x="57.6" xlink:href="#m5cc9b5ee2e" y="41.472"/>
      </g>
     </g>
     <g id="text_16">
      <!-- 40 -->
      <g transform="translate(35.33 46.031062)scale(0.12 -0.12)">
       <use xlink:href="#DejaVuSans-34"/>
       <use x="63.623047" xlink:href="#DejaVuSans-30"/>
      </g>
     </g>
    </g>
    <g id="text_17">
     <!-- Membrane potential (mV) -->
     <g transform="translate(16.87 251.822062)rotate(-90)scale(0.12 -0.12)">
      <defs>
       <path d="M 628 4666 
L 1569 4666 
L 2759 1491 
L 3956 4666 
L 4897 4666 
L 4897 0 
L 4281 0 
L 4281 4097 
L 3078 897 
L 2444 897 
L 1241 4097 
L 1241 0 
L 628 0 
L 628 4666 
z
" id="DejaVuSans-4d" transform="scale(0.015625)"/>
       <path d="M 3116 1747 
Q 3116 2381 2855 2742 
Q 2594 3103 2138 3103 
Q 1681 3103 1420 2742 
Q 1159 2381 1159 1747 
Q 1159 1113 1420 752 
Q 1681 391 2138 391 
Q 2594 391 2855 752 
Q 3116 1113 3116 1747 
z
M 1159 2969 
Q 1341 3281 1617 3432 
Q 1894 3584 2278 3584 
Q 2916 3584 3314 3078 
Q 3713 2572 3713 1747 
Q 3713 922 3314 415 
Q 2916 -91 2278 -91 
Q 1894 -91 1617 61 
Q 1341 213 1159 525 
L 1159 0 
L 581 0 
L 581 4863 
L 1159 4863 
L 1159 2969 
z
" id="DejaVuSans-62" transform="scale(0.015625)"/>
       <path d="M 2631 2963 
Q 2534 3019 2420 3045 
Q 2306 3072 2169 3072 
Q 1681 3072 1420 2755 
Q 1159 2438 1159 1844 
L 1159 0 
L 581 0 
L 581 3500 
L 1159 3500 
L 1159 2956 
Q 1341 3275 1631 3429 
Q 1922 3584 2338 3584 
Q 2397 3584 2469 3576 
Q 2541 3569 2628 3553 
L 2631 2963 
z
" id="DejaVuSans-72" transform="scale(0.015625)"/>
       <path d="M 2194 1759 
Q 1497 1759 1228 1600 
Q 959 1441 959 1056 
Q 959 750 1161 570 
Q 1363 391 1709 391 
Q 2188 391 2477 730 
Q 2766 1069 2766 1631 
L 2766 1759 
L 2194 1759 
z
M 3341 1997 
L 3341 0 
L 2766 0 
L 2766 531 
Q 2569 213 2275 61 
Q 1981 -91 1556 -91 
Q 1019 -91 701 211 
Q 384 513 384 1019 
Q 384 1609 779 1909 
Q 1175 2209 1959 2209 
L 2766 2209 
L 2766 2266 
Q 2766 2663 2505 2880 
Q 2244 3097 1772 3097 
Q 1472 3097 1187 3025 
Q 903 2953 641 2809 
L 641 3341 
Q 956 3463 1253 3523 
Q 1550 3584 1831 3584 
Q 2591 3584 2966 3190 
Q 3341 2797 3341 1997 
z
" id="DejaVuSans-61" transform="scale(0.015625)"/>
       <path d="M 3513 2113 
L 3513 0 
L 2938 0 
L 2938 2094 
Q 2938 2591 2744 2837 
Q 2550 3084 2163 3084 
Q 1697 3084 1428 2787 
Q 1159 2491 1159 1978 
L 1159 0 
L 581 0 
L 581 3500 
L 1159 3500 
L 1159 2956 
Q 1366 3272 1645 3428 
Q 1925 3584 2291 3584 
Q 2894 3584 3203 3211 
Q 3513 2838 3513 2113 
z
" id="DejaVuSans-6e" transform="scale(0.015625)"/>
       <path id="DejaVuSans-20" transform="scale(0.015625)"/>
       <path d="M 1159 525 
L 1159 -1331 
L 581 -1331 
L 581 3500 
L 1159 3500 
L 1159 2969 
Q 1341 3281 1617 3432 
Q 1894 3584 2278 3584 
Q 2916 3584 3314 3078 
Q 3713 2572 3713 1747 
Q 3713 922 3314 415 
Q 2916 -91 2278 -91 
Q 1894 -91 1617 61 
Q 1341 213 1159 525 
z
M 3116 1747 
Q 3116 2381 2855 2742 
Q 2594 3103 2138 3103 
Q 1681 3103 1420 2742 
Q 1159 2381 1159 1747 
Q 1159 1113 1420 752 
Q 1681 391 2138 391 
Q 2594 391 2855 752 
Q 3116 1113 3116 1747 
z
" id="DejaVuSans-70" transform="scale(0.015625)"/>
       <path d="M 1959 3097 
Q 1497 3097 1228 2736 
Q 959 2375 959 1747 
Q 959 1119 1226 758 
Q 1494 397 1959 397 
Q 2419 397 2687 759 
Q 2956 1122 2956 1747 
Q 2956 2369 2687 2733 
Q 2419 3097 1959 3097 
z
M 1959 3584 
Q 2709 3584 3137 3096 
Q 3566 2609 3566 1747 
Q 3566 888 3137 398 
Q 2709 -91 1959 -91 
Q 1206 -91 779 398 
Q 353 888 353 1747 
Q 353 2609 779 3096 
Q 1206 3584 1959 3584 
z
" id="DejaVuSans-6f" transform="scale(0.015625)"/>
       <path d="M 1172 4494 
L 1172 3500 
L 2356 3500 
L 2356 3053 
L 1172 3053 
L 1172 1153 
Q 1172 725 1289 603 
Q 1406 481 1766 481 
L 2356 481 
L 2356 0 
L 1766 0 
Q 1100 0 847 248 
Q 594 497 594 1153 
L 594 3053 
L 172 3053 
L 172 3500 
L 594 3500 
L 594 4494 
L 1172 4494 
z
" id="DejaVuSans-74" transform="scale(0.015625)"/>
       <path d="M 603 4863 
L 1178 4863 
L 1178 0 
L 603 0 
L 603 4863 
z
" id="DejaVuSans-6c" transform="scale(0.015625)"/>
       <path d="M 1831 0 
L 50 4666 
L 709 4666 
L 2188 738 
L 3669 4666 
L 4325 4666 
L 2547 0 
L 1831 0 
z
" id="DejaVuSans-56" transform="scale(0.015625)"/>
      </defs>
      <use xlink:href="#DejaVuSans-4d"/>
      <use x="86.279297" xlink:href="#DejaVuSans-65"/>
      <use x="147.802734" xlink:href="#DejaVuSans-6d"/>
      <use x="245.214844" xlink:href="#DejaVuSans-62"/>
      <use x="308.691406" xlink:href="#DejaVuSans-72"/>
      <use x="349.804688" xlink:href="#DejaVuSans-61"/>
      <use x="411.083984" xlink:href="#DejaVuSans-6e"/>
      <use x="474.462891" xlink:href="#DejaVuSans-65"/>
      <use x="535.986328" xlink:href="#DejaVuSans-20"/>
      <use x="567.773438" xlink:href="#DejaVuSans-70"/>
      <use x="631.25" xlink:href="#DejaVuSans-6f"/>
      <use x="692.431641" xlink:href="#DejaVuSans-74"/>
      <use x="731.640625" xlink:href="#DejaVuSans-65"/>
      <use x="793.164062" xlink:href="#DejaVuSans-6e"/>
      <use x="856.542969" xlink:href="#DejaVuSans-74"/>
      <use x="895.751953" xlink:href="#DejaVuSans-69"/>
      <use x="923.535156" xlink:href="#DejaVuSans-61"/>
      <use x="984.814453" xlink:href="#DejaVuSans-6c"/>
      <use x="1012.597656" xlink:href="#DejaVuSans-20"/>
      <use x="1044.384766" xlink:href="#DejaVuSans-28"/>
      <use x="1083.398438" xlink:href="#DejaVuSans-6d"/>
      <use x="1180.810547" xlink:href="#DejaVuSans-56"/>
      <use x="1249.21875" xlink:href="#DejaVuSans-29"/>
     </g>
    </g>
   </g>
   <g id="line2d_16">
    <path clip-path="url(#p0571545a87)" d="M 73.832727 260.360119 
L 74.603094 260.79264 
L 75.09833 260.927293 
L 75.263408 260.44634 
L 75.81367 257.845361 
L 76.088801 255.680806 
L 76.363932 253.801346 
L 76.529011 253.600342 
L 76.694089 253.753623 
L 77.024247 254.535282 
L 78.344875 257.995625 
L 79.00519 259.069299 
L 79.72053 259.809267 
L 80.105713 259.971951 
L 80.821054 257.985513 
L 81.041159 258.016205 
L 81.371316 258.135068 
L 82.03163 256.763882 
L 82.251735 256.891083 
L 82.691945 257.495867 
L 83.957547 259.352087 
L 84.507809 259.869409 
L 84.727914 258.610699 
L 84.892992 257.356424 
L 85.223149 254.826409 
L 85.443254 254.554442 
L 85.608333 254.711981 
L 85.993516 255.544557 
L 87.039014 257.907809 
L 87.149066 257.303202 
L 87.53425 254.257107 
L 87.754354 253.857052 
L 87.919433 253.915951 
L 88.194564 254.35752 
L 88.469695 254.837408 
L 88.909904 250.481864 
L 89.074983 250.363711 
L 89.240062 250.650757 
L 89.570219 251.455125 
L 89.625245 251.379904 
L 89.900376 251.101373 
L 90.065455 251.270975 
L 90.395612 252.075875 
L 92.046398 256.724497 
L 92.761738 257.940806 
L 92.926817 258.066234 
L 93.146921 257.247319 
L 93.422052 256.527929 
L 93.642157 256.386535 
L 93.917288 256.510188 
L 94.412524 257.083926 
L 94.577602 257.296815 
L 94.632629 257.255302 
L 95.237917 255.631486 
L 95.458022 255.706175 
L 95.788179 255.995173 
L 96.338441 254.676677 
L 96.558545 254.817893 
L 96.943729 255.470932 
L 97.604043 256.764591 
L 97.659069 256.691144 
L 98.209331 255.306298 
L 98.429436 255.357391 
L 98.759593 255.74964 
L 99.309855 256.541057 
L 99.364881 256.492625 
L 99.970169 252.875985 
L 100.135248 252.859309 
L 100.355353 253.117615 
L 100.68551 253.55262 
L 101.015667 252.844052 
L 101.565929 250.756847 
L 101.731008 250.771749 
L 101.951112 251.07352 
L 102.226243 251.603615 
L 102.666453 250.400257 
L 102.831532 250.549989 
L 103.161689 251.310182 
L 103.546872 252.356712 
L 103.601898 252.290184 
L 103.987082 251.655064 
L 104.15216 251.759202 
L 104.482317 252.392016 
L 106.408234 256.811604 
L 106.573313 257.016333 
L 106.683365 256.721659 
L 107.068549 255.535864 
L 107.288653 255.440773 
L 107.563784 255.642841 
L 108.169072 256.515156 
L 108.224099 256.416694 
L 108.994465 249.915401 
L 109.269596 247.396739 
L 109.434675 247.082727 
L 109.544727 247.164335 
L 109.764832 247.715364 
L 110.425146 250.311553 
L 111.360592 253.654984 
L 111.415618 253.714238 
L 111.800801 252.082617 
L 111.96588 252.112599 
L 112.241011 252.622647 
L 114.001849 256.702499 
L 114.71719 257.673985 
L 114.827242 257.611715 
L 116.478028 252.83731 
L 116.643106 252.906854 
L 116.918237 253.316489 
L 117.633578 254.968158 
L 118.624049 257.06583 
L 119.394416 258.191306 
L 120.164783 258.932872 
L 121.045202 259.470241 
L 121.21028 259.469354 
L 121.925621 256.886648 
L 122.145726 256.904034 
L 122.530909 257.252641 
L 123.96159 258.840797 
L 124.016616 258.783494 
L 124.731957 255.54704 
L 125.007088 254.2603 
L 125.172166 254.128841 
L 125.337245 254.255687 
L 125.722428 254.916177 
L 125.777455 254.852311 
L 125.942533 254.233689 
L 126.822952 249.472058 
L 126.988031 249.662239 
L 127.263162 250.161998 
L 127.318188 250.121726 
L 127.593319 249.92711 
L 127.758398 250.086245 
L 127.86845 250.233848 
L 128.033529 249.731961 
L 128.253633 249.288973 
L 128.418712 249.412626 
L 128.748869 250.203334 
L 128.858921 250.029297 
L 129.079026 249.649998 
L 129.244105 249.755734 
L 129.519236 250.418885 
L 131.610231 256.675178 
L 131.77531 256.847973 
L 132.435624 255.050475 
L 132.655729 255.12747 
L 133.040912 255.582522 
L 134.526619 257.644003 
L 134.691698 257.107521 
L 135.021855 256.091683 
L 135.24196 255.911614 
L 135.462065 255.989141 
L 135.847248 256.415275 
L 137.443008 258.438968 
L 137.55306 258.396568 
L 138.323427 256.934548 
L 138.378453 256.942177 
L 138.488505 256.512672 
L 138.818663 254.869519 
L 139.038767 254.583005 
L 139.258872 254.68945 
L 139.478977 254.803878 
L 140.084265 254.137889 
L 140.469448 252.596923 
L 140.909658 251.852696 
L 141.514946 249.905998 
L 141.680025 250.0332 
L 142.010182 250.758089 
L 144.101177 256.46903 
L 144.266256 256.149873 
L 144.596413 255.45532 
L 144.816518 255.396421 
L 145.091649 255.612859 
L 145.696937 256.502028 
L 146.247199 257.336555 
L 146.302225 257.289009 
L 146.852487 255.818652 
L 147.072592 255.858391 
L 147.402749 256.219417 
L 148.173116 257.162518 
L 148.723378 256.635616 
L 149.273639 254.885486 
L 149.493744 254.938176 
L 149.823901 255.381341 
L 150.70432 256.974288 
L 151.089504 254.99264 
L 151.254582 254.937289 
L 151.474687 255.217061 
L 152.190028 256.789783 
L 152.410133 257.131649 
L 152.795316 255.043379 
L 152.960394 254.932144 
L 153.180499 255.144324 
L 153.730761 256.225803 
L 154.61118 257.820169 
L 154.666206 257.813073 
L 154.886311 256.861279 
L 155.106416 255.752479 
L 155.546626 250.884048 
L 155.76673 250.502089 
L 155.931809 250.660159 
L 156.261966 251.491316 
L 156.427045 251.847729 
L 156.647149 251.51296 
L 156.867254 251.386468 
L 157.087359 251.644419 
L 157.197411 251.707399 
L 157.582595 250.841293 
L 157.8027 249.721849 
L 158.132857 247.112177 
L 158.297935 246.85529 
L 158.463014 247.038375 
L 158.793171 248.053326 
L 160.609035 254.589924 
L 160.82914 255.068039 
L 160.994219 254.493592 
L 161.324376 253.589343 
L 161.489455 253.543394 
L 161.709559 253.738366 
L 162.204795 254.616003 
L 163.360345 256.688129 
L 164.185738 257.704676 
L 164.405843 257.860973 
L 164.570921 257.429871 
L 165.011131 256.132664 
L 165.286262 255.937693 
L 165.561393 256.023203 
L 166.056629 256.487303 
L 167.542336 258.048316 
L 167.707414 257.527978 
L 168.587834 254.224818 
L 168.752912 254.192885 
L 168.862965 254.16929 
L 169.3582 252.341278 
L 169.523279 252.374985 
L 169.79841 252.80928 
L 169.963488 252.912709 
L 170.073541 252.549732 
L 170.51375 250.129177 
L 170.678829 250.020958 
L 170.843908 250.189673 
L 171.174065 250.958737 
L 172.604746 254.972948 
L 173.099982 253.628905 
L 173.26506 253.725238 
L 173.595217 254.267574 
L 174.145479 255.402985 
L 174.200505 255.34515 
L 174.695741 254.226238 
L 174.915846 254.333215 
L 175.301029 254.915645 
L 176.896789 257.649502 
L 177.722182 258.518269 
L 178.602601 259.11915 
L 179.262915 259.427485 
L 179.317941 259.282011 
L 179.538046 256.394518 
L 179.868203 253.301942 
L 180.473492 250.750105 
L 180.63857 250.874291 
L 180.968727 251.60805 
L 183.004696 257.075233 
L 183.059723 256.981561 
L 183.775063 250.939222 
L 183.940142 250.92024 
L 184.160247 251.235316 
L 184.655482 252.511944 
L 185.645954 255.119132 
L 185.756006 255.019251 
L 185.921085 254.493237 
L 186.251242 251.563876 
L 186.526373 250.266491 
L 186.691451 250.112324 
L 186.85653 250.240767 
L 187.186687 250.950044 
L 188.45229 254.35273 
L 188.507316 254.32257 
L 188.837473 254.177096 
L 189.112604 254.367454 
L 189.387735 254.709142 
L 189.442761 254.650775 
L 189.772918 253.568231 
L 190.103076 251.531765 
L 190.433233 249.496363 
L 190.873442 248.697495 
L 191.203599 248.496846 
L 191.588783 247.09213 
L 192.028992 242.708023 
L 192.579254 240.738972 
L 192.744333 240.512777 
L 193.07449 240.522712 
L 193.184542 239.7925 
L 193.5147 237.359527 
L 194.009935 235.974148 
L 194.340092 234.245307 
L 194.725276 232.726162 
L 194.835328 232.743548 
L 195.055433 233.210663 
L 195.495643 234.936311 
L 196.431088 238.702328 
L 196.706219 238.745793 
L 196.871297 238.753954 
L 196.98135 238.35585 
L 197.146428 236.863494 
L 197.751716 229.535657 
L 198.1369 227.957967 
L 198.301978 227.396116 
L 198.907267 223.902775 
L 199.29245 222.507816 
L 199.732659 219.25096 
L 200.062817 218.251976 
L 200.503026 217.300891 
L 200.943236 214.256215 
L 201.548524 205.712778 
L 201.768629 199.623781 
L 201.933707 188.340277 
L 201.988733 176.005099 
L 202.098786 74.724291 
L 202.263864 186.945673 
L 202.538995 227.782511 
L 202.7591 235.415845 
L 202.924179 236.456343 
L 203.089257 235.371848 
L 203.529467 232.30198 
L 203.804598 231.549238 
L 204.024703 231.429487 
L 204.244807 231.58809 
L 204.629991 232.174246 
L 205.235279 233.142539 
L 205.730515 233.973873 
L 206.996117 236.777451 
L 207.216222 237.293709 
L 207.711458 235.736953 
L 207.876536 235.768177 
L 208.041615 235.110526 
L 208.481824 233.013386 
L 208.646903 232.989436 
L 208.867008 233.409893 
L 209.362243 235.142282 
L 210.242663 238.059579 
L 210.462767 238.006534 
L 210.627846 238.05816 
L 210.737898 238.119188 
L 211.123082 237.588738 
L 211.28816 237.846157 
L 211.618317 238.976601 
L 212.553763 243.505117 
L 213.324129 246.725427 
L 213.929418 248.765619 
L 214.75481 251.096228 
L 214.919889 251.487945 
L 214.974915 251.401015 
L 215.19502 249.948044 
L 215.580203 247.062148 
L 215.800308 246.769779 
L 215.965387 246.807213 
L 216.185492 247.12016 
L 216.625701 248.252733 
L 216.735753 248.442559 
L 216.900832 246.981427 
L 217.230989 242.791937 
L 217.451094 242.123464 
L 217.561146 242.191766 
L 217.781251 242.765858 
L 218.551618 245.273698 
L 218.826749 245.208234 
L 219.046854 245.526149 
L 219.10188 245.305099 
L 219.377011 243.986425 
L 219.652142 243.681461 
L 219.81722 243.735393 
L 220.092351 244.190445 
L 220.697639 245.879191 
L 221.027797 246.68285 
L 221.137849 246.312599 
L 221.302928 244.917463 
L 221.798163 240.46257 
L 222.018268 239.822127 
L 222.293399 239.578191 
L 222.843661 236.077577 
L 223.00874 236.005726 
L 223.228844 236.317432 
L 223.559002 237.044983 
L 223.614028 236.965149 
L 223.999211 236.209568 
L 224.16429 236.295789 
L 224.329368 236.390347 
L 224.769578 235.725067 
L 225.264814 233.87754 
L 225.429892 233.860154 
L 225.649997 234.173457 
L 225.925128 234.620702 
L 226.530416 233.854832 
L 226.750521 234.00829 
L 227.300783 234.895685 
L 227.355809 234.845301 
L 227.851045 233.675827 
L 228.016123 233.798416 
L 228.34628 234.494033 
L 230.327223 239.569853 
L 230.767433 240.456361 
L 230.932512 238.918234 
L 231.5378 233.234791 
L 231.757904 232.618298 
L 231.922983 232.621314 
L 232.143088 232.942423 
L 232.69335 234.419167 
L 234.179057 238.606173 
L 234.289109 238.560756 
L 234.729319 237.99039 
L 234.949424 238.195296 
L 235.334607 239.05945 
L 236.270052 241.434589 
L 236.325079 241.360787 
L 236.655236 239.979488 
L 236.820314 240.011777 
L 237.040419 240.484214 
L 237.590681 242.445105 
L 237.975864 243.752424 
L 238.416074 242.963313 
L 238.581153 243.130432 
L 238.856284 243.820726 
L 239.296493 245.147383 
L 239.351519 245.104096 
L 239.62665 244.878433 
L 239.791729 245.049454 
L 240.06686 245.635255 
L 240.121886 245.479846 
L 240.397017 244.856966 
L 240.562096 245.032778 
L 240.837227 245.845484 
L 241.002305 246.314905 
L 241.112357 245.883626 
L 241.497541 243.873771 
L 241.662619 243.775132 
L 241.827698 243.995828 
L 242.543039 245.344661 
L 242.873196 246.010296 
L 243.643562 248.050843 
L 243.863667 246.692962 
L 244.138798 245.556309 
L 244.303877 245.46246 
L 244.468955 245.647319 
L 244.799112 246.45967 
L 244.964191 246.83205 
L 245.404401 245.777891 
L 245.569479 245.90669 
L 245.84461 246.533472 
L 246.614977 249.137821 
L 247.715501 252.576166 
L 247.825553 252.484269 
L 248.210737 251.734897 
L 248.375815 251.762218 
L 248.705972 252.173805 
L 248.760998 252.08581 
L 248.981103 251.217398 
L 249.421313 246.490362 
L 249.641418 246.086404 
L 249.806496 246.273214 
L 250.136653 247.223234 
L 250.576863 248.58626 
L 251.017072 248.30631 
L 251.127125 248.327067 
L 251.512308 247.008038 
L 251.677387 247.113064 
L 251.952518 247.774618 
L 252.832937 250.898951 
L 253.053042 251.432771 
L 253.21812 251.206399 
L 253.493251 250.891854 
L 253.65833 250.964414 
L 253.933461 251.394629 
L 254.648801 253.132695 
L 255.364142 254.821087 
L 255.474194 254.316538 
L 255.749325 253.028556 
L 255.914404 252.884146 
L 256.079482 253.008154 
L 256.299587 253.110341 
L 256.68477 252.937191 
L 256.959901 253.177047 
L 257.455137 254.021331 
L 258.72074 256.316814 
L 259.160949 254.556749 
L 259.43608 252.738317 
L 259.766237 250.73609 
L 259.87629 250.117114 
L 260.151421 248.354033 
L 260.316499 248.194366 
L 260.481578 248.437415 
L 260.866761 249.686012 
L 261.857233 253.240559 
L 262.022311 252.94411 
L 262.242416 252.656177 
L 262.407495 252.729979 
L 262.682626 253.182901 
L 264.883673 257.688 
L 264.993726 257.500302 
L 265.599014 255.247221 
L 265.874145 254.088037 
L 266.09425 253.927128 
L 266.314354 254.144985 
L 266.754564 255.025993 
L 267.96514 257.505802 
L 268.40535 258.106151 
L 269.010638 256.058685 
L 269.230743 256.170807 
L 269.670952 256.790316 
L 269.781005 256.905098 
L 269.836031 256.855956 
L 270.001109 255.892099 
L 270.71645 249.554553 
L 270.936555 248.953317 
L 271.101633 248.984009 
L 271.321738 249.389918 
L 271.816974 250.936739 
L 273.082576 254.955739 
L 273.852943 256.678016 
L 274.568284 257.785397 
L 275.33865 258.584088 
L 276.219069 259.172905 
L 276.824357 259.454451 
L 276.93441 258.85907 
L 277.264567 256.846909 
L 277.484672 256.502205 
L 277.704777 256.543364 
L 277.814829 256.517107 
L 278.365091 254.828183 
L 278.530169 254.885131 
L 278.860327 255.358101 
L 279.850798 257.231884 
L 280.40106 254.809555 
L 280.84127 253.462319 
L 281.006348 253.471544 
L 281.281479 253.867164 
L 282.051846 255.674064 
L 282.437029 256.492447 
L 282.492055 256.45466 
L 282.822213 255.442015 
L 283.317448 252.797926 
L 283.482527 252.791184 
L 283.702632 253.110696 
L 284.252894 254.487382 
L 284.472998 254.991753 
L 285.02326 253.928902 
L 285.243365 254.159177 
L 285.738601 255.15763 
L 286.839125 257.366359 
L 287.169282 257.847845 
L 287.224308 257.809702 
L 287.554465 254.571119 
L 287.884622 251.680433 
L 288.104727 251.225736 
L 288.269806 251.239219 
L 288.710015 249.630838 
L 288.820068 249.539651 
L 289.205251 248.853969 
L 289.37033 249.010088 
L 289.645461 249.706946 
L 291.791482 256.280268 
L 292.451797 257.3841 
L 292.671901 256.262704 
L 292.947032 255.334328 
L 293.167137 255.179273 
L 293.387242 255.307539 
L 293.827451 255.901856 
L 294.322687 256.578845 
L 294.542792 255.748398 
L 294.817923 254.983415 
L 295.038028 254.875551 
L 295.313159 255.100682 
L 295.918447 256.058862 
L 296.963945 257.617392 
L 297.789337 258.449435 
L 298.559704 258.973853 
L 298.61473 258.964096 
L 298.779809 258.348135 
L 299.164992 255.914984 
L 299.440123 254.716771 
L 299.660228 254.465561 
L 299.880333 254.579457 
L 300.265516 255.183531 
L 301.861276 258.019398 
L 302.301485 258.511173 
L 302.411538 258.196274 
L 303.402009 253.926241 
L 303.567088 254.014058 
L 303.897245 254.584779 
L 304.11735 254.974722 
L 304.282428 254.603407 
L 304.557559 254.068699 
L 304.722638 254.060893 
L 304.942743 254.306249 
L 305.162847 254.712868 
L 305.217874 254.667451 
L 305.98824 251.624017 
L 306.153319 251.663047 
L 306.42845 252.188529 
L 306.593529 252.589471 
L 306.648555 252.516025 
L 307.033738 251.701367 
L 307.198817 251.805328 
L 307.473948 252.364518 
L 309.509917 257.412485 
L 309.674995 257.662098 
L 309.785048 257.26772 
L 309.950126 255.759575 
L 310.225257 253.17137 
L 310.445362 252.694497 
L 310.610441 252.809635 
L 310.940598 253.546233 
L 312.371279 257.168195 
L 313.086619 258.287639 
L 313.36175 258.511351 
L 313.636881 256.247092 
L 313.912012 253.697562 
L 314.132117 253.197804 
L 314.297196 253.293426 
L 314.627353 253.984253 
L 314.902484 254.556039 
L 315.342693 253.558297 
L 315.507772 253.694369 
L 315.837929 254.3671 
L 315.892955 254.326651 
L 316.55327 251.201964 
L 316.883427 247.49662 
L 317.103532 246.967944 
L 317.26861 246.999523 
L 317.598767 246.680366 
L 317.763846 246.91277 
L 318.094003 247.965509 
L 318.149029 248.158174 
L 318.204055 247.985911 
L 318.479186 246.997571 
L 318.589239 247.028973 
L 318.809344 247.547004 
L 319.359606 249.783232 
L 319.689763 251.105631 
L 319.744789 251.090374 
L 320.405103 249.470461 
L 320.625208 247.799633 
L 320.955365 245.812663 
L 321.120444 245.648206 
L 321.285522 245.836791 
L 321.61568 246.769425 
L 322.551125 250.280861 
L 322.661177 250.177255 
L 322.936308 249.908482 
L 323.101387 250.030184 
L 323.431544 250.696173 
L 324.64212 254.070651 
L 324.697146 254.00909 
L 325.137356 252.732817 
L 325.302435 252.792249 
L 325.577565 253.211287 
L 327.723587 257.252818 
L 328.54898 258.096748 
L 329.484425 258.729208 
L 330.695002 259.260367 
L 332.400814 259.75161 
L 335.097097 260.282769 
L 335.92249 260.351604 
L 336.747883 255.682225 
L 336.912961 255.167565 
L 337.51825 250.571278 
L 338.123538 244.401205 
L 338.288616 244.220959 
L 338.453695 244.412737 
L 338.728826 245.044664 
L 338.783852 244.860337 
L 339.169035 242.196556 
L 339.334114 242.13056 
L 339.499193 242.480054 
L 339.884376 244.037874 
L 340.709769 247.647594 
L 341.149978 247.465751 
L 341.370083 247.844872 
L 341.810293 249.176496 
L 342.030398 249.938819 
L 342.085424 249.906353 
L 342.470607 248.986847 
L 342.635686 249.095776 
L 342.745738 249.097372 
L 343.185948 248.11879 
L 343.626157 246.453638 
L 343.791236 246.144239 
L 344.616629 243.009972 
L 344.781707 242.850837 
L 344.946786 242.999682 
L 345.221917 243.648108 
L 345.497048 244.309663 
L 345.882231 244.265488 
L 346.102336 244.675123 
L 346.487519 245.670737 
L 346.872703 244.572227 
L 347.037781 244.725684 
L 347.20286 244.886416 
L 347.312912 244.640706 
L 347.588043 242.851014 
L 347.9182 240.391075 
L 348.083279 240.243471 
L 348.248357 240.509229 
L 348.578515 241.660429 
L 350.064222 247.993008 
L 350.119248 247.870241 
L 350.394379 247.406674 
L 350.559458 247.515958 
L 350.779562 247.728492 
L 350.999667 247.15848 
L 351.604955 245.260924 
L 351.990139 242.498504 
L 352.155217 242.288986 
L 352.320296 242.424525 
L 352.595427 243.073484 
L 352.98061 244.117707 
L 353.035636 244.081693 
L 353.255741 243.990683 
L 353.42082 244.143786 
L 353.695951 244.756731 
L 354.301239 246.829211 
L 354.631396 248.067519 
L 354.686422 248.019441 
L 355.016579 246.712299 
L 355.126632 246.706977 
L 355.29171 246.954993 
L 355.676894 248.096791 
L 356.282182 250.166788 
L 356.44726 249.084954 
L 356.777418 247.202123 
L 356.942496 247.022586 
L 357.107575 247.174802 
L 357.382706 247.812584 
L 357.437732 247.781182 
L 357.822915 246.856532 
L 357.987994 247.004845 
L 358.318151 247.842211 
L 358.648308 248.792763 
L 358.703334 248.754265 
L 359.088518 248.307197 
L 359.19857 248.305778 
L 360.134015 245.176123 
L 360.299094 245.380852 
L 360.629251 246.248732 
L 363.160456 254.021686 
L 363.490613 254.637115 
L 363.600666 254.44782 
L 364.040875 252.995204 
L 364.371032 250.881565 
L 364.591137 250.643661 
L 364.756216 250.784522 
L 365.141399 251.568666 
L 365.85674 253.312054 
L 365.911766 253.27604 
L 366.517054 252.169192 
L 366.737159 252.32265 
L 367.122342 252.943578 
L 368.718102 255.927048 
L 368.773128 255.839054 
L 369.268364 253.134114 
L 369.543495 252.454996 
L 369.708573 252.240155 
L 370.203809 250.838809 
L 370.368888 250.865598 
L 370.644018 251.191496 
L 370.699045 251.110776 
L 371.084228 250.173707 
L 371.249307 250.211317 
L 371.524438 250.661756 
L 371.854595 251.40616 
L 371.909621 251.27062 
L 372.735014 248.206962 
L 372.900092 248.345162 
L 373.23025 249.141724 
L 374.605904 253.284911 
L 374.660931 253.216077 
L 375.046114 252.209464 
L 375.431297 250.281926 
L 375.596376 250.18719 
L 375.706428 250.262411 
L 376.146638 248.414884 
L 376.311716 248.599388 
L 376.641874 249.545328 
L 378.182607 254.480109 
L 378.952974 256.093634 
L 379.723341 257.209176 
L 379.833393 257.204918 
L 380.16355 256.521542 
L 380.493707 256.158211 
L 380.768838 256.175065 
L 381.264074 256.505043 
L 381.649257 254.615648 
L 382.309572 250.031958 
L 382.47465 249.791925 
L 382.639729 249.956027 
L 382.969886 250.873226 
L 383.134965 251.136145 
L 383.6302 250.917046 
L 383.795279 251.058263 
L 383.960357 250.673997 
L 384.235488 250.125984 
L 384.455593 250.022023 
L 384.840777 248.826293 
L 385.005855 248.817955 
L 385.22596 249.148466 
L 385.721196 250.514862 
L 386.326484 252.235897 
L 386.38151 252.211415 
L 386.876746 251.722301 
L 387.151877 251.903257 
L 387.53706 248.602936 
L 387.922243 245.532536 
L 388.142348 245.139932 
L 388.307427 245.072517 
L 388.527532 244.381868 
L 388.912715 242.76231 
L 389.297898 242.234876 
L 389.84816 241.892301 
L 390.618527 241.685976 
L 391.00371 241.593191 
L 391.278841 240.385575 
L 391.608998 239.398654 
L 391.884129 239.144784 
L 392.214287 239.171572 
L 392.59947 239.451699 
L 393.094706 240.118576 
L 393.75502 241.145414 
L 393.975125 241.106029 
L 394.19523 241.357594 
L 394.525387 242.224586 
L 394.855544 243.062662 
L 395.130675 243.013165 
L 395.35078 243.355917 
L 395.735963 244.576839 
L 395.846015 244.949396 
L 395.901042 244.812969 
L 396.176173 243.998134 
L 396.286225 244.044083 
L 396.341251 244.127642 
L 396.396277 244.081871 
L 396.616382 241.531276 
L 397.111618 236.710746 
L 397.276696 235.756291 
L 397.496801 234.670199 
L 397.606854 234.634185 
L 397.771932 235.007274 
L 398.157116 236.850543 
L 398.432247 238.276371 
L 398.487273 238.189619 
" style="fill:none;stroke:#000000;stroke-linecap:square;stroke-width:1.5;"/>
   </g>
   <g id="line2d_17">
    <path clip-path="url(#p0571545a87)" d="M 73.832727 260.360119 
L 74.603094 260.79264 
L 75.09833 260.927293 
L 75.263408 260.44634 
L 75.81367 257.845361 
L 76.088801 255.680806 
L 76.363932 253.801346 
L 76.529011 253.600342 
L 76.694089 253.753623 
L 77.024247 254.535282 
L 78.344875 257.995625 
L 79.00519 259.069299 
L 79.72053 259.809267 
L 80.105713 259.971951 
L 80.821054 257.985513 
L 81.041159 258.016205 
L 81.371316 258.135068 
L 82.03163 256.763882 
L 82.251735 256.891083 
L 82.691945 257.495867 
L 83.957547 259.352087 
L 84.507809 259.869409 
L 84.727914 258.610699 
L 84.892992 257.356424 
L 85.223149 254.826409 
L 85.443254 254.554442 
L 85.608333 254.711981 
L 85.993516 255.544557 
L 87.039014 257.907809 
L 87.149066 257.303202 
L 87.53425 254.257107 
L 87.754354 253.857052 
L 87.919433 253.915951 
L 88.194564 254.35752 
L 88.469695 254.837408 
L 88.909904 250.481864 
L 89.074983 250.363711 
L 89.240062 250.650757 
L 89.570219 251.455125 
L 89.625245 251.379904 
L 89.900376 251.101373 
L 90.065455 251.270975 
L 90.395612 252.075875 
L 92.046398 256.724497 
L 92.761738 257.940806 
L 92.926817 258.066234 
L 93.146921 257.247319 
L 93.422052 256.527929 
L 93.642157 256.386535 
L 93.917288 256.510188 
L 94.412524 257.083926 
L 94.577602 257.296815 
L 94.632629 257.255302 
L 95.237917 255.631486 
L 95.458022 255.706175 
L 95.788179 255.995173 
L 96.338441 254.676677 
L 96.558545 254.817893 
L 96.943729 255.470932 
L 97.604043 256.764591 
L 97.659069 256.691144 
L 98.209331 255.306298 
L 98.429436 255.357391 
L 98.759593 255.74964 
L 99.309855 256.541057 
L 99.364881 256.492625 
L 99.970169 252.875985 
L 100.135248 252.859309 
L 100.355353 253.117615 
L 100.68551 253.55262 
L 101.015667 252.844052 
L 101.565929 250.756847 
L 101.731008 250.771749 
L 101.951112 251.07352 
L 102.226243 251.603615 
L 102.666453 250.400257 
L 102.831532 250.549989 
L 103.161689 251.310182 
L 103.546872 252.356712 
L 103.601898 252.290184 
L 103.987082 251.655064 
L 104.15216 251.759202 
L 104.482317 252.392016 
L 106.408234 256.811604 
L 106.573313 257.016333 
L 106.683365 256.721659 
L 107.068549 255.535864 
L 107.288653 255.440773 
L 107.563784 255.642841 
L 108.169072 256.515156 
L 108.224099 256.416694 
L 108.994465 249.915401 
L 109.269596 247.396739 
L 109.434675 247.082727 
L 109.544727 247.164335 
L 109.764832 247.715364 
L 110.425146 250.311553 
L 111.360592 253.654984 
L 111.415618 253.714238 
L 111.800801 252.082617 
L 111.96588 252.112599 
L 112.241011 252.622647 
L 114.001849 256.702499 
L 114.71719 257.673985 
L 114.827242 257.611715 
L 116.478028 252.83731 
L 116.643106 252.906854 
L 116.918237 253.316489 
L 117.633578 254.968158 
L 118.624049 257.06583 
L 119.394416 258.191306 
L 120.164783 258.932872 
L 121.045202 259.470241 
L 121.21028 259.469354 
L 121.925621 256.886648 
L 122.145726 256.904034 
L 122.530909 257.252641 
L 123.96159 258.840797 
L 124.016616 258.783494 
L 124.731957 255.54704 
L 125.007088 254.2603 
L 125.172166 254.128841 
L 125.337245 254.255687 
L 125.722428 254.916177 
L 125.777455 254.852311 
L 125.942533 254.233689 
L 126.822952 249.472058 
L 126.988031 249.662239 
L 127.263162 250.161998 
L 127.318188 250.121726 
L 127.593319 249.92711 
L 127.758398 250.086245 
L 127.86845 250.233848 
L 128.033529 249.731961 
L 128.253633 249.288973 
L 128.418712 249.412626 
L 128.748869 250.203334 
L 128.858921 250.029297 
L 129.079026 249.649998 
L 129.244105 249.755734 
L 129.519236 250.418885 
L 131.610231 256.675178 
L 131.77531 256.847973 
L 132.435624 255.050475 
L 132.655729 255.12747 
L 133.040912 255.582522 
L 134.526619 257.644003 
L 134.691698 257.107521 
L 135.021855 256.091683 
L 135.24196 255.911614 
L 135.462065 255.989141 
L 135.847248 256.415275 
L 137.443008 258.438968 
L 137.55306 258.396568 
L 138.323427 256.934548 
L 138.378453 256.942177 
L 138.488505 256.512672 
L 138.818663 254.869519 
L 139.038767 254.583005 
L 139.258872 254.68945 
L 139.478977 254.803878 
L 140.084265 254.137889 
L 140.469448 252.596923 
L 140.909658 251.852696 
L 141.514946 249.905998 
L 141.680025 250.0332 
L 142.010182 250.758089 
L 144.101177 256.46903 
L 144.266256 256.149873 
L 144.596413 255.45532 
L 144.816518 255.396421 
L 145.091649 255.612859 
L 145.696937 256.50185 
L 146.247199 257.336377 
L 146.302225 257.288832 
L 146.852487 255.818652 
L 147.072592 255.858924 
L 147.402749 256.220481 
L 148.173116 257.163405 
L 148.723378 256.637567 
L 149.273639 254.890985 
L 149.493744 254.945272 
L 149.823901 255.390212 
L 150.70432 256.982271 
L 151.089504 254.999382 
L 151.254582 254.944208 
L 151.474687 255.224335 
L 152.190028 256.796702 
L 152.410133 257.13768 
L 152.795316 255.048346 
L 152.960394 254.937466 
L 153.180499 255.150356 
L 153.730761 256.2329 
L 154.61118 257.823895 
L 154.666206 257.816443 
L 154.886311 256.86394 
L 155.106416 255.757269 
L 155.546626 250.898064 
L 155.76673 250.523378 
L 155.931809 250.686593 
L 156.261966 251.526265 
L 156.427045 251.885162 
L 156.647149 251.553586 
L 156.867254 251.430997 
L 157.087359 251.692497 
L 157.197411 251.757073 
L 157.582595 250.896999 
L 157.8027 249.782877 
L 158.132857 247.187043 
L 158.297935 246.939027 
L 158.463014 247.13045 
L 158.793171 248.157642 
L 160.554009 254.524461 
L 160.82914 255.14255 
L 160.994219 254.562426 
L 161.324376 253.651436 
L 161.489455 253.60389 
L 161.709559 253.797265 
L 162.204795 254.669758 
L 163.360345 256.721304 
L 164.185738 257.722417 
L 164.405843 257.875165 
L 164.570921 257.441758 
L 165.011131 256.147566 
L 165.286262 255.95703 
L 165.561393 256.045025 
L 166.056629 256.509479 
L 167.542336 258.056831 
L 167.707414 257.534719 
L 168.587834 254.24522 
L 168.752912 254.218254 
L 168.862965 254.19732 
L 169.3582 252.381017 
L 169.523279 252.419337 
L 169.79841 252.859841 
L 169.963488 252.965754 
L 170.073541 252.604374 
L 170.51375 250.201205 
L 170.678829 250.101679 
L 170.843908 250.2782 
L 171.174065 251.057376 
L 172.604746 255.053669 
L 173.099982 253.700223 
L 173.26506 253.795136 
L 173.595217 254.333924 
L 174.145479 255.459578 
L 174.200505 255.400501 
L 174.695741 254.277331 
L 174.915846 254.384486 
L 175.301029 254.965319 
L 176.896789 257.67292 
L 177.722182 258.526608 
L 178.602601 259.115425 
L 179.262915 259.417551 
L 179.317941 259.271721 
L 179.538046 256.383696 
L 179.868203 253.303361 
L 180.473492 250.79499 
L 180.63857 250.929642 
L 180.968727 251.677594 
L 182.94967 257.044186 
L 183.004696 257.119053 
L 183.059723 257.023784 
L 183.775063 250.992445 
L 183.940142 250.983574 
L 184.160247 251.310182 
L 184.655482 252.599939 
L 185.645954 255.196659 
L 185.756006 255.094118 
L 185.921085 254.565264 
L 186.251242 251.639806 
L 186.526373 250.358034 
L 186.691451 250.213446 
L 186.85653 250.349518 
L 187.186687 251.067133 
L 188.45229 254.449417 
L 188.507316 254.417484 
L 188.837473 254.265445 
L 189.112604 254.453143 
L 189.387735 254.791105 
L 189.442761 254.73185 
L 189.772918 253.646823 
L 190.103076 251.616389 
L 190.433233 249.596953 
L 190.873442 248.8231 
L 191.203599 248.644982 
L 191.588783 247.271134 
L 192.028992 242.945927 
L 192.249097 242.422042 
L 192.359149 242.041147 
L 192.63428 240.972973 
L 192.799359 240.909638 
L 193.019464 241.028502 
L 193.129516 240.769486 
L 193.5147 237.876316 
L 193.734804 237.676732 
L 193.954909 237.038773 
L 194.285066 235.18007 
L 194.780302 233.591558 
L 194.945381 233.856251 
L 195.275538 235.034418 
L 196.54114 240.081498 
L 196.871297 240.3469 
L 196.926324 240.249681 
L 197.091402 239.242713 
L 197.366533 235.304255 
L 197.69669 232.01245 
L 198.026847 230.437599 
L 198.357005 229.336782 
L 198.797214 226.995706 
L 199.127371 226.368214 
L 199.182398 226.312686 
L 199.29245 225.625762 
L 199.677633 223.172919 
L 199.952764 222.665709 
L 200.172869 222.655597 
L 200.392974 222.776234 
L 200.558052 222.242236 
L 201.053288 219.752138 
L 201.493498 217.358726 
L 201.878681 215.804455 
L 202.098786 215.517054 
L 202.318891 215.570631 
L 202.594022 215.955607 
L 202.814126 216.321777 
L 202.869153 216.248862 
L 203.034231 215.007538 
L 203.694545 209.126818 
L 204.35486 205.827739 
L 204.795069 203.20281 
L 205.0702 200.057898 
L 205.290305 194.262511 
L 205.400357 186.965188 
L 205.455384 178.314774 
L 205.565436 74.057592 
L 205.620462 120.489346 
L 205.785541 184.865032 
L 206.115698 223.15571 
L 206.390829 232.678439 
L 206.66596 235.586334 
L 206.941091 236.526774 
L 207.216222 236.956988 
L 207.711458 235.12117 
L 207.876536 235.134653 
L 208.041615 234.497226 
L 208.426798 232.6866 
L 208.591877 232.58601 
L 208.756955 232.834381 
L 209.087112 233.939988 
L 210.352715 238.885413 
L 210.627846 239.047741 
L 210.737898 239.159331 
L 211.068055 238.771695 
L 211.233134 238.993632 
L 211.508265 239.859738 
L 212.333658 243.653431 
L 213.819365 250.11942 
L 214.314601 251.253234 
L 214.919889 252.39521 
L 214.974915 252.275637 
L 215.19502 250.725091 
L 215.580203 247.783134 
L 215.800308 247.469477 
L 215.965387 247.564922 
L 216.240518 248.083841 
L 216.735753 249.377854 
L 216.900832 247.982541 
L 217.230989 243.929477 
L 217.451094 243.33108 
L 217.561146 243.425106 
L 217.781251 244.034326 
L 218.496592 246.58013 
L 218.551618 246.530279 
L 218.881775 246.164109 
L 219.046854 246.293084 
L 219.542089 244.425865 
L 219.762194 244.357385 
L 219.927273 244.549341 
L 220.25743 245.395577 
L 221.027797 247.538134 
L 221.192875 246.82655 
L 221.908216 241.012712 
L 222.073294 240.825192 
L 222.293399 240.8 
L 222.898687 237.279871 
L 223.063766 237.298499 
L 223.283871 237.643557 
L 223.559002 238.189796 
L 223.779106 237.579335 
L 223.999211 237.258404 
L 224.16429 237.349237 
L 224.329368 237.446812 
L 224.769578 236.788805 
L 225.264814 235.058545 
L 225.429892 235.067416 
L 225.649997 235.401652 
L 225.925128 235.824415 
L 226.420364 235.108752 
L 226.640468 235.30461 
L 227.135704 236.182957 
L 227.300783 236.485615 
L 227.355809 236.419087 
L 227.906071 234.892491 
L 228.071149 235.012774 
L 228.401307 235.675925 
L 229.281726 238.224746 
L 229.887014 239.650042 
L 230.767433 241.0026 
L 230.932512 239.415331 
L 231.5378 233.788304 
L 231.757904 233.225566 
L 231.922983 233.302916 
L 232.198114 233.927392 
L 233.133559 237.101043 
L 233.628795 238.397541 
L 234.234083 239.699538 
L 234.509214 239.116931 
L 234.729319 238.897654 
L 234.894398 238.989197 
L 235.169529 239.465892 
L 235.774817 241.110819 
L 236.270052 242.617545 
L 236.325079 242.563968 
L 236.655236 241.221344 
L 236.820314 241.207506 
L 237.040419 241.609158 
L 237.535655 243.243618 
L 237.975864 244.706702 
L 238.361048 243.932671 
L 238.526126 244.08258 
L 238.801257 244.785294 
L 239.296493 246.108225 
L 239.681676 245.666124 
L 239.846755 245.858257 
L 240.06686 246.274102 
L 240.452043 245.304744 
L 240.617122 245.484458 
L 241.002305 246.469605 
L 241.057331 246.321824 
L 241.552567 243.823387 
L 241.717646 243.830484 
L 241.93775 244.254666 
L 242.322934 245.066485 
L 242.708117 245.59729 
L 243.203353 246.903722 
L 243.643562 248.047827 
L 243.863667 246.706445 
L 244.138798 245.596048 
L 244.303877 245.516215 
L 244.468955 245.71225 
L 244.799112 246.539504 
L 244.964191 246.916318 
L 245.404401 245.871563 
L 245.569479 246.004264 
L 245.84461 246.635836 
L 246.614977 249.241605 
L 247.715501 252.658838 
L 247.825553 252.563747 
L 248.210737 251.806038 
L 248.375815 251.830697 
L 248.705972 252.237139 
L 248.760998 252.148258 
L 248.981103 251.277185 
L 249.421313 246.552632 
L 249.641418 246.153996 
L 249.806496 246.344532 
L 250.136653 247.299342 
L 250.576863 248.662723 
L 251.017072 248.38295 
L 251.127125 248.404062 
L 251.512308 247.086808 
L 251.677387 247.193075 
L 251.952518 247.855694 
L 252.887963 251.163466 
L 253.053042 251.502847 
L 253.21812 251.273814 
L 253.493251 250.956786 
L 253.65833 251.028458 
L 253.933461 251.456721 
L 254.648801 253.185562 
L 255.364142 254.861536 
L 255.474194 254.354681 
L 255.749325 253.062619 
L 255.914404 252.916612 
L 256.079482 253.039378 
L 256.299587 253.139969 
L 256.68477 252.965754 
L 256.959901 253.206142 
L 257.455137 254.049185 
L 258.72074 256.3342 
L 259.160949 254.570764 
L 259.43608 252.752332 
L 259.766237 250.753476 
L 259.87629 250.135919 
L 260.151421 248.377096 
L 260.316499 248.220267 
L 260.481578 248.4658 
L 260.866761 249.7183 
L 261.857233 253.270718 
L 262.022311 252.973028 
L 262.242416 252.683853 
L 262.407495 252.757122 
L 262.682626 253.20898 
L 264.883673 257.696693 
L 264.993726 257.507931 
L 265.599014 255.253253 
L 265.874145 254.094956 
L 266.09425 253.935289 
L 266.314354 254.154033 
L 266.80959 255.160646 
L 267.910114 257.421001 
L 268.40535 258.109699 
L 269.010638 256.061169 
L 269.230743 256.173468 
L 269.670952 256.792799 
L 269.781005 256.907582 
L 269.836031 256.858263 
L 270.001109 255.894405 
L 270.71645 249.566617 
L 270.936555 248.969461 
L 271.101633 249.002991 
L 271.321738 249.412094 
L 271.816974 250.962463 
L 273.082576 254.976674 
L 273.852943 256.692386 
L 274.568284 257.79409 
L 275.33865 258.587991 
L 276.219069 259.17326 
L 276.824357 259.45321 
L 276.93441 258.857474 
L 277.264567 256.845135 
L 277.484672 256.500608 
L 277.704777 256.542299 
L 277.814829 256.51622 
L 278.365091 254.829247 
L 278.530169 254.887082 
L 278.860327 255.361117 
L 279.850798 257.234545 
L 280.40106 254.811684 
L 280.84127 253.466044 
L 281.006348 253.476157 
L 281.281479 253.872841 
L 282.051846 255.680096 
L 282.437029 256.49777 
L 282.492055 256.459804 
L 282.822213 255.446627 
L 283.317448 252.80378 
L 283.482527 252.797748 
L 283.702632 253.118147 
L 284.252894 254.495366 
L 284.472998 254.999382 
L 285.02326 253.935998 
L 285.243365 254.166274 
L 285.738601 255.164726 
L 286.839125 257.370617 
L 287.169282 257.850861 
L 287.224308 257.81254 
L 287.554465 254.573425 
L 287.884622 251.684158 
L 288.104727 251.231413 
L 288.269806 251.245961 
L 288.710015 249.640773 
L 288.820068 249.550472 
L 289.205251 248.867629 
L 289.37033 249.02499 
L 289.645461 249.723445 
L 291.791482 256.290025 
L 292.451797 257.390309 
L 292.671901 256.267849 
L 292.947032 255.338941 
L 293.167137 255.183709 
L 293.387242 255.311797 
L 293.882478 255.991447 
L 294.322687 256.582216 
L 294.542792 255.751414 
L 294.817923 254.986608 
L 295.038028 254.878922 
L 295.313159 255.104407 
L 295.918447 256.062588 
L 296.963945 257.619343 
L 297.789337 258.449967 
L 298.559704 258.973144 
L 298.61473 258.963386 
L 298.779809 258.347248 
L 299.164992 255.914452 
L 299.440123 254.717126 
L 299.660228 254.46698 
L 299.880333 254.581586 
L 300.265516 255.18637 
L 301.861276 258.020817 
L 302.301485 258.511705 
L 302.411538 258.196629 
L 303.402009 253.927837 
L 303.567088 254.016009 
L 303.897245 254.587618 
L 304.11735 254.977561 
L 304.282428 254.606423 
L 304.557559 254.07207 
L 304.722638 254.064619 
L 304.942743 254.310152 
L 305.162847 254.717126 
L 305.217874 254.671532 
L 305.98824 251.629339 
L 306.153319 251.668901 
L 306.42845 252.195094 
L 306.593529 252.596213 
L 306.648555 252.522943 
L 307.033738 251.708463 
L 307.198817 251.812779 
L 307.473948 252.372324 
L 309.509917 257.416034 
L 309.674995 257.665114 
L 309.785048 257.270382 
L 309.950126 255.761881 
L 310.225257 253.173676 
L 310.445362 252.696981 
L 310.610441 252.812473 
L 310.940598 253.549604 
L 312.316253 257.064766 
L 313.031593 258.218095 
L 313.36175 258.51206 
L 313.636881 256.24727 
L 313.912012 253.697917 
L 314.132117 253.198691 
L 314.297196 253.294491 
L 314.627353 253.98585 
L 314.902484 254.557991 
L 315.342693 253.560603 
L 315.507772 253.696852 
L 315.837929 254.369938 
L 315.892955 254.329489 
L 316.55327 251.205157 
L 316.883427 247.50141 
L 317.103532 246.974331 
L 317.26861 247.007151 
L 317.598767 246.689946 
L 317.763846 246.923237 
L 318.094003 247.977218 
L 318.149029 248.170061 
L 318.204055 247.997798 
L 318.479186 247.009812 
L 318.589239 247.041569 
L 318.809344 247.559777 
L 319.359606 249.796005 
L 319.689763 251.117872 
L 319.744789 251.102438 
L 320.405103 249.481638 
L 320.625208 247.810987 
L 320.955365 245.825969 
L 321.120444 245.662754 
L 321.285522 245.852403 
L 321.61568 246.785924 
L 322.551125 250.296473 
L 322.661177 250.192512 
L 322.936308 249.922852 
L 323.101387 250.044376 
L 323.431544 250.709656 
L 324.64212 254.080408 
L 324.697146 254.018493 
L 325.137356 252.741155 
L 325.302435 252.800232 
L 325.577565 253.21856 
L 327.723587 257.255479 
L 328.54898 258.09799 
L 329.484425 258.729385 
L 330.695002 259.259835 
L 332.45584 259.763674 
L 335.207149 260.299623 
L 335.92249 260.350362 
L 336.747883 255.681516 
L 336.912961 255.16721 
L 337.51825 250.572343 
L 338.123538 244.406882 
L 338.288616 244.22841 
L 338.453695 244.421607 
L 338.728826 245.055309 
L 338.783852 244.871336 
L 339.169035 242.209152 
L 339.334114 242.144221 
L 339.499193 242.494424 
L 339.884376 244.053486 
L 340.709769 247.663206 
L 341.149978 247.481008 
L 341.370083 247.860129 
L 341.810293 249.191399 
L 342.030398 249.953011 
L 342.085424 249.920546 
L 342.470607 249.000153 
L 342.635686 249.108727 
L 342.745738 249.110146 
L 343.185948 248.131031 
L 343.626157 246.467831 
L 343.791236 246.159673 
L 344.616629 243.031261 
L 344.781707 242.873368 
L 344.946786 243.0231 
L 345.221917 243.672945 
L 345.497048 244.335209 
L 345.882231 244.291922 
L 346.102336 244.701734 
L 346.487519 245.697171 
L 346.872703 244.597951 
L 347.037781 244.751231 
L 347.20286 244.911963 
L 347.312912 244.665898 
L 347.588043 242.876383 
L 347.9182 240.417154 
L 348.083279 240.270083 
L 348.248357 240.536372 
L 348.578515 241.688105 
L 350.064222 248.01678 
L 350.119248 247.893837 
L 350.394379 247.42885 
L 350.559458 247.537246 
L 350.779562 247.749072 
L 350.999667 247.178705 
L 351.604955 245.282746 
L 351.990139 242.521745 
L 352.155217 242.313113 
L 352.320296 242.449362 
L 352.595427 243.099208 
L 352.98061 244.143964 
L 353.035636 244.108127 
L 353.255741 244.01694 
L 353.42082 244.170043 
L 353.695951 244.78281 
L 354.301239 246.854048 
L 354.631396 248.091114 
L 354.686422 248.042859 
L 355.016579 246.734298 
L 355.126632 246.728621 
L 355.29171 246.975928 
L 355.676894 248.116484 
L 356.282182 250.183819 
L 356.44726 249.101098 
L 356.777418 247.217025 
L 356.942496 247.037311 
L 357.107575 247.189172 
L 357.382706 247.826422 
L 357.437732 247.794843 
L 357.822915 246.869483 
L 357.987994 247.017441 
L 358.318151 247.854275 
L 358.648308 248.804117 
L 358.703334 248.765442 
L 359.088518 248.317664 
L 359.19857 248.316245 
L 360.134015 245.186413 
L 360.299094 245.391142 
L 360.629251 246.259022 
L 363.10543 253.906371 
L 363.490613 254.641905 
L 363.600666 254.452433 
L 364.040875 252.999107 
L 364.371032 250.885113 
L 364.591137 250.647209 
L 364.756216 250.788071 
L 365.086373 251.440045 
L 365.85674 253.31507 
L 365.911766 253.278879 
L 366.517054 252.171853 
L 366.737159 252.325311 
L 367.122342 252.946062 
L 368.718102 255.928645 
L 368.773128 255.840473 
L 369.268364 253.135356 
L 369.543495 252.456238 
L 369.708573 252.241574 
L 370.203809 250.840583 
L 370.368888 250.867372 
L 370.644018 251.193625 
L 370.699045 251.112905 
L 371.084228 250.176013 
L 371.249307 250.213801 
L 371.524438 250.66424 
L 371.854595 251.408644 
L 371.909621 251.273104 
L 372.735014 248.209623 
L 372.900092 248.348001 
L 373.23025 249.14474 
L 374.605904 253.287395 
L 374.660931 253.21856 
L 375.046114 252.21177 
L 375.431297 250.284232 
L 375.596376 250.189496 
L 375.706428 250.264717 
L 376.146638 248.41719 
L 376.311716 248.601872 
L 376.641874 249.547811 
L 378.127581 254.344214 
L 378.897948 255.997834 
L 379.668314 257.145841 
L 379.833393 257.205628 
L 380.16355 256.522075 
L 380.493707 256.158743 
L 380.768838 256.175597 
L 381.264074 256.505753 
L 381.649257 254.61618 
L 382.309572 250.032667 
L 382.47465 249.792634 
L 382.639729 249.957092 
L 382.969886 250.874468 
L 383.134965 251.137387 
L 383.6302 250.918466 
L 383.795279 251.059682 
L 383.960357 250.675594 
L 384.235488 250.127758 
L 384.455593 250.023797 
L 384.840777 248.828244 
L 385.005855 248.820084 
L 385.22596 249.150772 
L 385.721196 250.517169 
L 386.326484 252.238026 
L 386.38151 252.213544 
L 386.876746 251.724253 
L 387.151877 251.905209 
L 387.53706 248.604888 
L 387.922243 245.53502 
L 388.142348 245.142771 
L 388.307427 245.075888 
L 388.527532 244.385593 
L 388.912715 242.767278 
L 389.297898 242.241085 
L 389.84816 241.900285 
L 390.618527 241.69662 
L 391.00371 241.605255 
L 391.278841 240.398703 
L 391.608998 239.412492 
L 391.884129 239.159863 
L 392.214287 239.188071 
L 392.59947 239.47015 
L 393.094706 240.139865 
L 393.75502 241.170783 
L 393.975125 241.132818 
L 394.19523 241.385447 
L 394.525387 242.253149 
L 394.855544 243.091047 
L 395.130675 243.040841 
L 395.35078 243.383061 
L 395.735963 244.602563 
L 395.846015 244.974588 
L 395.901042 244.837984 
L 396.176173 244.021907 
L 396.286225 244.067146 
L 396.341251 244.150528 
L 396.396277 244.104756 
L 396.616382 241.553097 
L 397.111618 236.732035 
L 397.276696 235.77758 
L 397.496801 234.691843 
L 397.606854 234.656006 
L 397.771932 235.029273 
L 398.157116 236.872542 
L 398.432247 238.298015 
L 398.487273 238.211085 
" style="fill:none;stroke:#ff0000;stroke-linecap:square;stroke-width:1.5;"/>
   </g>
   <g id="line2d_18">
    <path clip-path="url(#p0571545a87)" d="M 343.461079 245.4912 
L 398.37722 245.4912 
L 398.37722 245.4912 
" style="fill:none;stroke:#000000;stroke-linecap:square;stroke-width:1.5;"/>
   </g>
   <g id="line2d_19">
    <path clip-path="url(#p0571545a87)" d="M 343.461079 218.88 
L 343.461079 217.10592 
L 343.461079 215.33184 
L 343.461079 213.55776 
L 343.461079 211.78368 
L 343.461079 210.0096 
L 343.461079 208.23552 
L 343.461079 206.46144 
L 343.461079 204.68736 
L 343.461079 202.91328 
L 343.461079 201.1392 
L 343.461079 199.36512 
L 343.461079 197.59104 
L 343.461079 195.81696 
L 343.461079 194.04288 
L 343.461079 192.2688 
L 343.461079 190.49472 
L 343.461079 188.72064 
L 343.461079 186.94656 
L 343.461079 185.17248 
" style="fill:none;stroke:#000000;stroke-linecap:square;stroke-width:1.5;"/>
   </g>
   <g id="line2d_20">
    <path clip-path="url(#p0571545a87)" d="M 145.36678 289.8432 
L 145.36678 288.06912 
L 145.36678 286.29504 
L 145.36678 284.52096 
L 145.36678 282.74688 
L 145.36678 280.9728 
L 145.36678 279.19872 
L 145.36678 277.42464 
L 145.36678 275.65056 
L 145.36678 273.87648 
L 145.36678 272.1024 
L 145.36678 270.32832 
L 145.36678 268.55424 
L 145.36678 266.78016 
L 145.36678 265.00608 
L 145.36678 263.232 
L 145.36678 261.45792 
L 145.36678 259.68384 
L 145.36678 257.90976 
L 145.36678 256.13568 
L 145.36678 254.3616 
L 145.36678 252.58752 
L 145.36678 250.81344 
L 145.36678 249.03936 
L 145.36678 247.26528 
L 145.36678 245.4912 
L 145.36678 243.71712 
L 145.36678 241.94304 
L 145.36678 240.16896 
L 145.36678 238.39488 
" style="fill:none;stroke:#000000;stroke-linecap:square;stroke-width:2;"/>
   </g>
   <g id="patch_3">
    <path d="M 57.6 307.584 
L 57.6 41.472 
" style="fill:none;stroke:#000000;stroke-linecap:square;stroke-linejoin:miter;stroke-width:0.8;"/>
   </g>
   <g id="patch_4">
    <path d="M 57.6 307.584 
L 414.72 307.584 
" style="fill:none;stroke:#000000;stroke-linecap:square;stroke-linejoin:miter;stroke-width:0.8;"/>
   </g>
   <g id="text_18">
    <!-- 500 ms -->
    <g transform="translate(343.461079 243.71712)scale(0.12 -0.12)">
     <use xlink:href="#DejaVuSans-35"/>
     <use x="63.623047" xlink:href="#DejaVuSans-30"/>
     <use x="127.246094" xlink:href="#DejaVuSans-30"/>
     <use x="190.869141" xlink:href="#DejaVuSans-20"/>
     <use x="222.65625" xlink:href="#DejaVuSans-6d"/>
     <use x="320.068359" xlink:href="#DejaVuSans-73"/>
    </g>
   </g>
   <g id="text_19">
    <!-- 20 mV -->
    <g transform="translate(348.963698 183.3984)scale(0.12 -0.12)">
     <use xlink:href="#DejaVuSans-32"/>
     <use x="63.623047" xlink:href="#DejaVuSans-30"/>
     <use x="127.246094" xlink:href="#DejaVuSans-20"/>
     <use x="159.033203" xlink:href="#DejaVuSans-6d"/>
     <use x="256.445312" xlink:href="#DejaVuSans-56"/>
    </g>
   </g>
  </g>
 </g>
 <defs>
  <clipPath id="p0571545a87">
   <rect height="266.112" width="357.12" x="57.6" y="41.472"/>
  </clipPath>
 </defs>
</svg>
