<?xml version="1.0" encoding="utf-8" standalone="no"?>
<!DOCTYPE svg PUBLIC "-//W3C//DTD SVG 1.1//EN"
  "http://www.w3.org/Graphics/SVG/1.1/DTD/svg11.dtd">
<svg height="288pt" version="1.1" viewBox="0 0 432 288" width="432pt" xmlns="http://www.w3.org/2000/svg" xmlns:xlink="http://www.w3.org/1999/xlink">
 <metadata>
  <rdf:RDF xmlns:cc="http://creativecommons.org/ns#" xmlns:dc="http://purl.org/dc/elements/1.1/" xmlns:rdf="http://www.w3.org/1999/02/22-rdf-syntax-ns#">
   <cc:Work>
    <dc:type rdf:resource="http://purl.org/dc/dcmitype/StillImage"/>
    <dc:date>2021-06-22T16:39:30.337422</dc:date>
    <dc:format>image/svg+xml</dc:format>
    <dc:creator>
     <cc:Agent>
      <dc:title>Matplotlib v3.4.1, https://matplotlib.org/</dc:title>
     </cc:Agent>
    </dc:creator>
   </cc:Work>
  </rdf:RDF>
 </metadata>
 <defs>
  <style type="text/css">*{stroke-linecap:butt;stroke-linejoin:round;}</style>
 </defs>
 <g id="figure_1">
  <g id="patch_1">
   <path d="M 0 288 
L 432 288 
L 432 0 
L 0 0 
z
" style="fill:none;"/>
  </g>
  <g id="axes_1">
   <g id="patch_2">
    <path d="M 54 252 
L 388.8 252 
L 388.8 34.56 
L 54 34.56 
z
" style="fill:#ffffff;"/>
   </g>
   <g id="matplotlib.axis_1">
    <g id="text_1">
     <!-- Time (s) -->
     <g transform="translate(201.071094 263.598437)scale(0.1 -0.1)">
      <defs>
       <path d="M -19 4666 
L 3928 4666 
L 3928 4134 
L 2272 4134 
L 2272 0 
L 1638 0 
L 1638 4134 
L -19 4134 
L -19 4666 
z
" id="DejaVuSans-54" transform="scale(0.015625)"/>
       <path d="M 603 3500 
L 1178 3500 
L 1178 0 
L 603 0 
L 603 3500 
z
M 603 4863 
L 1178 4863 
L 1178 4134 
L 603 4134 
L 603 4863 
z
" id="DejaVuSans-69" transform="scale(0.015625)"/>
       <path d="M 3328 2828 
Q 3544 3216 3844 3400 
Q 4144 3584 4550 3584 
Q 5097 3584 5394 3201 
Q 5691 2819 5691 2113 
L 5691 0 
L 5113 0 
L 5113 2094 
Q 5113 2597 4934 2840 
Q 4756 3084 4391 3084 
Q 3944 3084 3684 2787 
Q 3425 2491 3425 1978 
L 3425 0 
L 2847 0 
L 2847 2094 
Q 2847 2600 2669 2842 
Q 2491 3084 2119 3084 
Q 1678 3084 1418 2786 
Q 1159 2488 1159 1978 
L 1159 0 
L 581 0 
L 581 3500 
L 1159 3500 
L 1159 2956 
Q 1356 3278 1631 3431 
Q 1906 3584 2284 3584 
Q 2666 3584 2933 3390 
Q 3200 3197 3328 2828 
z
" id="DejaVuSans-6d" transform="scale(0.015625)"/>
       <path d="M 3597 1894 
L 3597 1613 
L 953 1613 
Q 991 1019 1311 708 
Q 1631 397 2203 397 
Q 2534 397 2845 478 
Q 3156 559 3463 722 
L 3463 178 
Q 3153 47 2828 -22 
Q 2503 -91 2169 -91 
Q 1331 -91 842 396 
Q 353 884 353 1716 
Q 353 2575 817 3079 
Q 1281 3584 2069 3584 
Q 2775 3584 3186 3129 
Q 3597 2675 3597 1894 
z
M 3022 2063 
Q 3016 2534 2758 2815 
Q 2500 3097 2075 3097 
Q 1594 3097 1305 2825 
Q 1016 2553 972 2059 
L 3022 2063 
z
" id="DejaVuSans-65" transform="scale(0.015625)"/>
       <path id="DejaVuSans-20" transform="scale(0.015625)"/>
       <path d="M 1984 4856 
Q 1566 4138 1362 3434 
Q 1159 2731 1159 2009 
Q 1159 1288 1364 580 
Q 1569 -128 1984 -844 
L 1484 -844 
Q 1016 -109 783 600 
Q 550 1309 550 2009 
Q 550 2706 781 3412 
Q 1013 4119 1484 4856 
L 1984 4856 
z
" id="DejaVuSans-28" transform="scale(0.015625)"/>
       <path d="M 2834 3397 
L 2834 2853 
Q 2591 2978 2328 3040 
Q 2066 3103 1784 3103 
Q 1356 3103 1142 2972 
Q 928 2841 928 2578 
Q 928 2378 1081 2264 
Q 1234 2150 1697 2047 
L 1894 2003 
Q 2506 1872 2764 1633 
Q 3022 1394 3022 966 
Q 3022 478 2636 193 
Q 2250 -91 1575 -91 
Q 1294 -91 989 -36 
Q 684 19 347 128 
L 347 722 
Q 666 556 975 473 
Q 1284 391 1588 391 
Q 1994 391 2212 530 
Q 2431 669 2431 922 
Q 2431 1156 2273 1281 
Q 2116 1406 1581 1522 
L 1381 1569 
Q 847 1681 609 1914 
Q 372 2147 372 2553 
Q 372 3047 722 3315 
Q 1072 3584 1716 3584 
Q 2034 3584 2315 3537 
Q 2597 3491 2834 3397 
z
" id="DejaVuSans-73" transform="scale(0.015625)"/>
       <path d="M 513 4856 
L 1013 4856 
Q 1481 4119 1714 3412 
Q 1947 2706 1947 2009 
Q 1947 1309 1714 600 
Q 1481 -109 1013 -844 
L 513 -844 
Q 928 -128 1133 580 
Q 1338 1288 1338 2009 
Q 1338 2731 1133 3434 
Q 928 4138 513 4856 
z
" id="DejaVuSans-29" transform="scale(0.015625)"/>
      </defs>
      <use xlink:href="#DejaVuSans-54"/>
      <use x="57.958984" xlink:href="#DejaVuSans-69"/>
      <use x="85.742188" xlink:href="#DejaVuSans-6d"/>
      <use x="183.154297" xlink:href="#DejaVuSans-65"/>
      <use x="244.677734" xlink:href="#DejaVuSans-20"/>
      <use x="276.464844" xlink:href="#DejaVuSans-28"/>
      <use x="315.478516" xlink:href="#DejaVuSans-73"/>
      <use x="367.578125" xlink:href="#DejaVuSans-29"/>
     </g>
    </g>
   </g>
   <g id="matplotlib.axis_2">
    <g id="text_2">
     <!-- ion channel current -->
     <g transform="translate(47.920312 191.894844)rotate(-90)scale(0.1 -0.1)">
      <defs>
       <path d="M 1959 3097 
Q 1497 3097 1228 2736 
Q 959 2375 959 1747 
Q 959 1119 1226 758 
Q 1494 397 1959 397 
Q 2419 397 2687 759 
Q 2956 1122 2956 1747 
Q 2956 2369 2687 2733 
Q 2419 3097 1959 3097 
z
M 1959 3584 
Q 2709 3584 3137 3096 
Q 3566 2609 3566 1747 
Q 3566 888 3137 398 
Q 2709 -91 1959 -91 
Q 1206 -91 779 398 
Q 353 888 353 1747 
Q 353 2609 779 3096 
Q 1206 3584 1959 3584 
z
" id="DejaVuSans-6f" transform="scale(0.015625)"/>
       <path d="M 3513 2113 
L 3513 0 
L 2938 0 
L 2938 2094 
Q 2938 2591 2744 2837 
Q 2550 3084 2163 3084 
Q 1697 3084 1428 2787 
Q 1159 2491 1159 1978 
L 1159 0 
L 581 0 
L 581 3500 
L 1159 3500 
L 1159 2956 
Q 1366 3272 1645 3428 
Q 1925 3584 2291 3584 
Q 2894 3584 3203 3211 
Q 3513 2838 3513 2113 
z
" id="DejaVuSans-6e" transform="scale(0.015625)"/>
       <path d="M 3122 3366 
L 3122 2828 
Q 2878 2963 2633 3030 
Q 2388 3097 2138 3097 
Q 1578 3097 1268 2742 
Q 959 2388 959 1747 
Q 959 1106 1268 751 
Q 1578 397 2138 397 
Q 2388 397 2633 464 
Q 2878 531 3122 666 
L 3122 134 
Q 2881 22 2623 -34 
Q 2366 -91 2075 -91 
Q 1284 -91 818 406 
Q 353 903 353 1747 
Q 353 2603 823 3093 
Q 1294 3584 2113 3584 
Q 2378 3584 2631 3529 
Q 2884 3475 3122 3366 
z
" id="DejaVuSans-63" transform="scale(0.015625)"/>
       <path d="M 3513 2113 
L 3513 0 
L 2938 0 
L 2938 2094 
Q 2938 2591 2744 2837 
Q 2550 3084 2163 3084 
Q 1697 3084 1428 2787 
Q 1159 2491 1159 1978 
L 1159 0 
L 581 0 
L 581 4863 
L 1159 4863 
L 1159 2956 
Q 1366 3272 1645 3428 
Q 1925 3584 2291 3584 
Q 2894 3584 3203 3211 
Q 3513 2838 3513 2113 
z
" id="DejaVuSans-68" transform="scale(0.015625)"/>
       <path d="M 2194 1759 
Q 1497 1759 1228 1600 
Q 959 1441 959 1056 
Q 959 750 1161 570 
Q 1363 391 1709 391 
Q 2188 391 2477 730 
Q 2766 1069 2766 1631 
L 2766 1759 
L 2194 1759 
z
M 3341 1997 
L 3341 0 
L 2766 0 
L 2766 531 
Q 2569 213 2275 61 
Q 1981 -91 1556 -91 
Q 1019 -91 701 211 
Q 384 513 384 1019 
Q 384 1609 779 1909 
Q 1175 2209 1959 2209 
L 2766 2209 
L 2766 2266 
Q 2766 2663 2505 2880 
Q 2244 3097 1772 3097 
Q 1472 3097 1187 3025 
Q 903 2953 641 2809 
L 641 3341 
Q 956 3463 1253 3523 
Q 1550 3584 1831 3584 
Q 2591 3584 2966 3190 
Q 3341 2797 3341 1997 
z
" id="DejaVuSans-61" transform="scale(0.015625)"/>
       <path d="M 603 4863 
L 1178 4863 
L 1178 0 
L 603 0 
L 603 4863 
z
" id="DejaVuSans-6c" transform="scale(0.015625)"/>
       <path d="M 544 1381 
L 544 3500 
L 1119 3500 
L 1119 1403 
Q 1119 906 1312 657 
Q 1506 409 1894 409 
Q 2359 409 2629 706 
Q 2900 1003 2900 1516 
L 2900 3500 
L 3475 3500 
L 3475 0 
L 2900 0 
L 2900 538 
Q 2691 219 2414 64 
Q 2138 -91 1772 -91 
Q 1169 -91 856 284 
Q 544 659 544 1381 
z
M 1991 3584 
L 1991 3584 
z
" id="DejaVuSans-75" transform="scale(0.015625)"/>
       <path d="M 2631 2963 
Q 2534 3019 2420 3045 
Q 2306 3072 2169 3072 
Q 1681 3072 1420 2755 
Q 1159 2438 1159 1844 
L 1159 0 
L 581 0 
L 581 3500 
L 1159 3500 
L 1159 2956 
Q 1341 3275 1631 3429 
Q 1922 3584 2338 3584 
Q 2397 3584 2469 3576 
Q 2541 3569 2628 3553 
L 2631 2963 
z
" id="DejaVuSans-72" transform="scale(0.015625)"/>
       <path d="M 1172 4494 
L 1172 3500 
L 2356 3500 
L 2356 3053 
L 1172 3053 
L 1172 1153 
Q 1172 725 1289 603 
Q 1406 481 1766 481 
L 2356 481 
L 2356 0 
L 1766 0 
Q 1100 0 847 248 
Q 594 497 594 1153 
L 594 3053 
L 172 3053 
L 172 3500 
L 594 3500 
L 594 4494 
L 1172 4494 
z
" id="DejaVuSans-74" transform="scale(0.015625)"/>
      </defs>
      <use xlink:href="#DejaVuSans-69"/>
      <use x="27.783203" xlink:href="#DejaVuSans-6f"/>
      <use x="88.964844" xlink:href="#DejaVuSans-6e"/>
      <use x="152.34375" xlink:href="#DejaVuSans-20"/>
      <use x="184.130859" xlink:href="#DejaVuSans-63"/>
      <use x="239.111328" xlink:href="#DejaVuSans-68"/>
      <use x="302.490234" xlink:href="#DejaVuSans-61"/>
      <use x="363.769531" xlink:href="#DejaVuSans-6e"/>
      <use x="427.148438" xlink:href="#DejaVuSans-6e"/>
      <use x="490.527344" xlink:href="#DejaVuSans-65"/>
      <use x="552.050781" xlink:href="#DejaVuSans-6c"/>
      <use x="579.833984" xlink:href="#DejaVuSans-20"/>
      <use x="611.621094" xlink:href="#DejaVuSans-63"/>
      <use x="666.601562" xlink:href="#DejaVuSans-75"/>
      <use x="729.980469" xlink:href="#DejaVuSans-72"/>
      <use x="769.34375" xlink:href="#DejaVuSans-72"/>
      <use x="808.207031" xlink:href="#DejaVuSans-65"/>
      <use x="869.730469" xlink:href="#DejaVuSans-6e"/>
      <use x="933.109375" xlink:href="#DejaVuSans-74"/>
     </g>
    </g>
   </g>
   <g id="line2d_1">
    <path clip-path="url(#pea6021cadd)" d="M 69.218182 242.116364 
L 86.420971 242.029692 
L 87.469855 207.324425 
L 88.486741 180.712259 
L 89.467729 160.589578 
L 90.408915 145.626005 
L 91.304056 134.749795 
L 92.146909 127.0622 
L 92.931231 121.818299 
L 93.649997 118.410346 
L 94.294624 116.345414 
L 94.858867 115.216232 
L 95.341166 114.699043 
L 95.75635 114.552906 
L 96.152022 114.64876 
L 96.590618 115.000146 
L 97.118182 115.731745 
L 97.769052 117.045642 
L 98.575225 119.211739 
L 99.583527 122.60413 
L 100.875122 127.78685 
L 102.643552 135.882079 
L 106.007161 152.560912 
L 109.53934 169.625757 
L 112.021855 180.535575 
L 114.246831 189.33879 
L 116.339136 196.73268 
L 118.351057 203.045128 
L 120.310691 208.477406 
L 122.235986 213.17294 
L 124.14099 217.244514 
L 126.03741 220.782904 
L 127.936951 223.864544 
L 129.852101 226.554082 
L 131.795345 228.904588 
L 133.782294 230.962483 
L 135.830895 232.766424 
L 137.963782 234.349488 
L 140.209049 235.739074 
L 142.601035 236.956955 
L 145.184224 238.020704 
L 148.017927 238.94417 
L 151.182529 239.737584 
L 154.79353 240.408501 
L 159.027306 240.962386 
L 164.174954 241.403157 
L 170.703944 241.731381 
L 171.752828 207.04476 
L 172.769715 180.450097 
L 173.750702 160.343695 
L 174.691108 145.405953 
L 175.585469 134.549012 
L 176.428322 126.869554 
L 177.212643 121.633305 
L 177.930629 118.235412 
L 178.574476 116.177673 
L 179.137938 115.053455 
L 179.619457 114.539516 
L 180.034641 114.395341 
L 180.429533 114.49278 
L 180.868129 114.846057 
L 181.396473 115.581451 
L 182.047343 116.899172 
L 182.854297 119.072587 
L 183.863379 122.474828 
L 185.156534 127.673709 
L 186.312336 132.877943 
L 186.331846 132.248186 
L 187.295664 104.793339 
L 188.216559 84.57411 
L 189.089069 70.035327 
L 189.906168 59.907309 
L 190.660834 53.133496 
L 191.344481 48.853724 
L 191.947745 46.362185 
L 192.462822 45.081113 
L 192.885029 44.554689 
L 193.226853 44.444743 
L 193.546045 44.57874 
L 193.916744 45.000702 
L 194.381094 45.900332 
L 194.966408 47.562723 
L 195.700003 50.370594 
L 196.617776 54.828602 
L 197.782943 61.670643 
L 199.328173 72.173887 
L 201.708453 90.073493 
L 207.019989 130.272529 
L 209.47675 146.96613 
L 211.680655 160.457173 
L 213.751888 171.792394 
L 215.738836 181.459668 
L 217.668034 189.767836 
L 219.556649 196.940636 
L 221.415608 203.147007 
L 223.254277 208.527514 
L 225.080459 213.198316 
L 226.901958 217.258678 
L 228.726579 220.792768 
L 230.562126 223.871648 
L 232.418744 226.558342 
L 233.13751 227.494655 
L 233.141413 227.355162 
L 234.17859 194.26333 
L 235.18299 168.997055 
L 236.14993 150.006931 
L 237.073947 136.00874 
L 237.950358 125.922503 
L 238.77214 118.879297 
L 239.532269 114.154862 
L 240.22372 111.153209 
L 240.83791 109.393403 
L 241.369376 108.480163 
L 241.819678 108.103583 
L 242.21301 108.045648 
L 242.606341 108.21921 
L 243.060545 108.682916 
L 243.615424 109.594539 
L 244.302193 111.184524 
L 245.155972 113.76351 
L 246.229049 117.763211 
L 247.619757 123.868662 
L 249.594999 133.638576 
L 257.264182 172.520352 
L 259.578906 182.630336 
L 261.720378 191.013239 
L 263.761175 198.125488 
L 265.737197 204.224537 
L 267.671077 209.487769 
L 269.576862 214.043327 
L 271.467818 217.998578 
L 273.354092 221.438025 
L 275.24739 224.435567 
L 277.159418 227.052378 
L 279.102663 229.339709 
L 281.093513 231.343016 
L 283.150699 233.099766 
L 285.297634 234.641715 
L 287.563192 235.994933 
L 289.984053 237.180647 
L 292.606263 238.215189 
L 295.493035 239.111866 
L 298.730215 239.88027 
L 302.441891 240.527367 
L 306.822386 241.058465 
L 312.196355 241.477166 
L 319.185013 241.786647 
L 329.210283 241.990221 
L 346.854008 242.093688 
L 373.581818 242.114751 
L 373.581818 242.114751 
" style="fill:none;stroke:#1f77b4;stroke-linecap:square;stroke-width:1.5;"/>
   </g>
   <g id="patch_3">
    <path d="M 54 252 
L 54 34.56 
" style="fill:none;stroke:#000000;stroke-linecap:square;stroke-linejoin:miter;stroke-width:0.8;"/>
   </g>
   <g id="patch_4">
    <path d="M 54 252 
L 388.8 252 
" style="fill:none;stroke:#000000;stroke-linecap:square;stroke-linejoin:miter;stroke-width:0.8;"/>
   </g>
  </g>
 </g>
 <defs>
  <clipPath id="pea6021cadd">
   <rect height="217.44" width="334.8" x="54" y="34.56"/>
  </clipPath>
 </defs>
</svg>
