<?xml version="1.0" encoding="utf-8" standalone="no"?>
<!DOCTYPE svg PUBLIC "-//W3C//DTD SVG 1.1//EN"
  "http://www.w3.org/Graphics/SVG/1.1/DTD/svg11.dtd">
<svg height="288pt" version="1.1" viewBox="0 0 432 288" width="432pt" xmlns="http://www.w3.org/2000/svg" xmlns:xlink="http://www.w3.org/1999/xlink">
 <metadata>
  <rdf:RDF xmlns:cc="http://creativecommons.org/ns#" xmlns:dc="http://purl.org/dc/elements/1.1/" xmlns:rdf="http://www.w3.org/1999/02/22-rdf-syntax-ns#">
   <cc:Work>
    <dc:type rdf:resource="http://purl.org/dc/dcmitype/StillImage"/>
    <dc:date>2021-06-22T16:39:30.414189</dc:date>
    <dc:format>image/svg+xml</dc:format>
    <dc:creator>
     <cc:Agent>
      <dc:title>Matplotlib v3.4.1, https://matplotlib.org/</dc:title>
     </cc:Agent>
    </dc:creator>
   </cc:Work>
  </rdf:RDF>
 </metadata>
 <defs>
  <style type="text/css">*{stroke-linecap:butt;stroke-linejoin:round;}</style>
 </defs>
 <g id="figure_1">
  <g id="patch_1">
   <path d="M 0 288 
L 432 288 
L 432 0 
L 0 0 
z
" style="fill:none;"/>
  </g>
  <g id="axes_1">
   <g id="patch_2">
    <path d="M 54 252 
L 388.8 252 
L 388.8 34.56 
L 54 34.56 
z
" style="fill:#ffffff;"/>
   </g>
   <g id="matplotlib.axis_1">
    <g id="text_1">
     <!-- Time (s) -->
     <g transform="translate(201.071094 263.598437)scale(0.1 -0.1)">
      <defs>
       <path d="M -19 4666 
L 3928 4666 
L 3928 4134 
L 2272 4134 
L 2272 0 
L 1638 0 
L 1638 4134 
L -19 4134 
L -19 4666 
z
" id="DejaVuSans-54" transform="scale(0.015625)"/>
       <path d="M 603 3500 
L 1178 3500 
L 1178 0 
L 603 0 
L 603 3500 
z
M 603 4863 
L 1178 4863 
L 1178 4134 
L 603 4134 
L 603 4863 
z
" id="DejaVuSans-69" transform="scale(0.015625)"/>
       <path d="M 3328 2828 
Q 3544 3216 3844 3400 
Q 4144 3584 4550 3584 
Q 5097 3584 5394 3201 
Q 5691 2819 5691 2113 
L 5691 0 
L 5113 0 
L 5113 2094 
Q 5113 2597 4934 2840 
Q 4756 3084 4391 3084 
Q 3944 3084 3684 2787 
Q 3425 2491 3425 1978 
L 3425 0 
L 2847 0 
L 2847 2094 
Q 2847 2600 2669 2842 
Q 2491 3084 2119 3084 
Q 1678 3084 1418 2786 
Q 1159 2488 1159 1978 
L 1159 0 
L 581 0 
L 581 3500 
L 1159 3500 
L 1159 2956 
Q 1356 3278 1631 3431 
Q 1906 3584 2284 3584 
Q 2666 3584 2933 3390 
Q 3200 3197 3328 2828 
z
" id="DejaVuSans-6d" transform="scale(0.015625)"/>
       <path d="M 3597 1894 
L 3597 1613 
L 953 1613 
Q 991 1019 1311 708 
Q 1631 397 2203 397 
Q 2534 397 2845 478 
Q 3156 559 3463 722 
L 3463 178 
Q 3153 47 2828 -22 
Q 2503 -91 2169 -91 
Q 1331 -91 842 396 
Q 353 884 353 1716 
Q 353 2575 817 3079 
Q 1281 3584 2069 3584 
Q 2775 3584 3186 3129 
Q 3597 2675 3597 1894 
z
M 3022 2063 
Q 3016 2534 2758 2815 
Q 2500 3097 2075 3097 
Q 1594 3097 1305 2825 
Q 1016 2553 972 2059 
L 3022 2063 
z
" id="DejaVuSans-65" transform="scale(0.015625)"/>
       <path id="DejaVuSans-20" transform="scale(0.015625)"/>
       <path d="M 1984 4856 
Q 1566 4138 1362 3434 
Q 1159 2731 1159 2009 
Q 1159 1288 1364 580 
Q 1569 -128 1984 -844 
L 1484 -844 
Q 1016 -109 783 600 
Q 550 1309 550 2009 
Q 550 2706 781 3412 
Q 1013 4119 1484 4856 
L 1984 4856 
z
" id="DejaVuSans-28" transform="scale(0.015625)"/>
       <path d="M 2834 3397 
L 2834 2853 
Q 2591 2978 2328 3040 
Q 2066 3103 1784 3103 
Q 1356 3103 1142 2972 
Q 928 2841 928 2578 
Q 928 2378 1081 2264 
Q 1234 2150 1697 2047 
L 1894 2003 
Q 2506 1872 2764 1633 
Q 3022 1394 3022 966 
Q 3022 478 2636 193 
Q 2250 -91 1575 -91 
Q 1294 -91 989 -36 
Q 684 19 347 128 
L 347 722 
Q 666 556 975 473 
Q 1284 391 1588 391 
Q 1994 391 2212 530 
Q 2431 669 2431 922 
Q 2431 1156 2273 1281 
Q 2116 1406 1581 1522 
L 1381 1569 
Q 847 1681 609 1914 
Q 372 2147 372 2553 
Q 372 3047 722 3315 
Q 1072 3584 1716 3584 
Q 2034 3584 2315 3537 
Q 2597 3491 2834 3397 
z
" id="DejaVuSans-73" transform="scale(0.015625)"/>
       <path d="M 513 4856 
L 1013 4856 
Q 1481 4119 1714 3412 
Q 1947 2706 1947 2009 
Q 1947 1309 1714 600 
Q 1481 -109 1013 -844 
L 513 -844 
Q 928 -128 1133 580 
Q 1338 1288 1338 2009 
Q 1338 2731 1133 3434 
Q 928 4138 513 4856 
z
" id="DejaVuSans-29" transform="scale(0.015625)"/>
      </defs>
      <use xlink:href="#DejaVuSans-54"/>
      <use x="57.958984" xlink:href="#DejaVuSans-69"/>
      <use x="85.742188" xlink:href="#DejaVuSans-6d"/>
      <use x="183.154297" xlink:href="#DejaVuSans-65"/>
      <use x="244.677734" xlink:href="#DejaVuSans-20"/>
      <use x="276.464844" xlink:href="#DejaVuSans-28"/>
      <use x="315.478516" xlink:href="#DejaVuSans-73"/>
      <use x="367.578125" xlink:href="#DejaVuSans-29"/>
     </g>
    </g>
   </g>
   <g id="matplotlib.axis_2">
    <g id="text_2">
     <!-- ion channel current -->
     <g transform="translate(47.920312 191.894844)rotate(-90)scale(0.1 -0.1)">
      <defs>
       <path d="M 1959 3097 
Q 1497 3097 1228 2736 
Q 959 2375 959 1747 
Q 959 1119 1226 758 
Q 1494 397 1959 397 
Q 2419 397 2687 759 
Q 2956 1122 2956 1747 
Q 2956 2369 2687 2733 
Q 2419 3097 1959 3097 
z
M 1959 3584 
Q 2709 3584 3137 3096 
Q 3566 2609 3566 1747 
Q 3566 888 3137 398 
Q 2709 -91 1959 -91 
Q 1206 -91 779 398 
Q 353 888 353 1747 
Q 353 2609 779 3096 
Q 1206 3584 1959 3584 
z
" id="DejaVuSans-6f" transform="scale(0.015625)"/>
       <path d="M 3513 2113 
L 3513 0 
L 2938 0 
L 2938 2094 
Q 2938 2591 2744 2837 
Q 2550 3084 2163 3084 
Q 1697 3084 1428 2787 
Q 1159 2491 1159 1978 
L 1159 0 
L 581 0 
L 581 3500 
L 1159 3500 
L 1159 2956 
Q 1366 3272 1645 3428 
Q 1925 3584 2291 3584 
Q 2894 3584 3203 3211 
Q 3513 2838 3513 2113 
z
" id="DejaVuSans-6e" transform="scale(0.015625)"/>
       <path d="M 3122 3366 
L 3122 2828 
Q 2878 2963 2633 3030 
Q 2388 3097 2138 3097 
Q 1578 3097 1268 2742 
Q 959 2388 959 1747 
Q 959 1106 1268 751 
Q 1578 397 2138 397 
Q 2388 397 2633 464 
Q 2878 531 3122 666 
L 3122 134 
Q 2881 22 2623 -34 
Q 2366 -91 2075 -91 
Q 1284 -91 818 406 
Q 353 903 353 1747 
Q 353 2603 823 3093 
Q 1294 3584 2113 3584 
Q 2378 3584 2631 3529 
Q 2884 3475 3122 3366 
z
" id="DejaVuSans-63" transform="scale(0.015625)"/>
       <path d="M 3513 2113 
L 3513 0 
L 2938 0 
L 2938 2094 
Q 2938 2591 2744 2837 
Q 2550 3084 2163 3084 
Q 1697 3084 1428 2787 
Q 1159 2491 1159 1978 
L 1159 0 
L 581 0 
L 581 4863 
L 1159 4863 
L 1159 2956 
Q 1366 3272 1645 3428 
Q 1925 3584 2291 3584 
Q 2894 3584 3203 3211 
Q 3513 2838 3513 2113 
z
" id="DejaVuSans-68" transform="scale(0.015625)"/>
       <path d="M 2194 1759 
Q 1497 1759 1228 1600 
Q 959 1441 959 1056 
Q 959 750 1161 570 
Q 1363 391 1709 391 
Q 2188 391 2477 730 
Q 2766 1069 2766 1631 
L 2766 1759 
L 2194 1759 
z
M 3341 1997 
L 3341 0 
L 2766 0 
L 2766 531 
Q 2569 213 2275 61 
Q 1981 -91 1556 -91 
Q 1019 -91 701 211 
Q 384 513 384 1019 
Q 384 1609 779 1909 
Q 1175 2209 1959 2209 
L 2766 2209 
L 2766 2266 
Q 2766 2663 2505 2880 
Q 2244 3097 1772 3097 
Q 1472 3097 1187 3025 
Q 903 2953 641 2809 
L 641 3341 
Q 956 3463 1253 3523 
Q 1550 3584 1831 3584 
Q 2591 3584 2966 3190 
Q 3341 2797 3341 1997 
z
" id="DejaVuSans-61" transform="scale(0.015625)"/>
       <path d="M 603 4863 
L 1178 4863 
L 1178 0 
L 603 0 
L 603 4863 
z
" id="DejaVuSans-6c" transform="scale(0.015625)"/>
       <path d="M 544 1381 
L 544 3500 
L 1119 3500 
L 1119 1403 
Q 1119 906 1312 657 
Q 1506 409 1894 409 
Q 2359 409 2629 706 
Q 2900 1003 2900 1516 
L 2900 3500 
L 3475 3500 
L 3475 0 
L 2900 0 
L 2900 538 
Q 2691 219 2414 64 
Q 2138 -91 1772 -91 
Q 1169 -91 856 284 
Q 544 659 544 1381 
z
M 1991 3584 
L 1991 3584 
z
" id="DejaVuSans-75" transform="scale(0.015625)"/>
       <path d="M 2631 2963 
Q 2534 3019 2420 3045 
Q 2306 3072 2169 3072 
Q 1681 3072 1420 2755 
Q 1159 2438 1159 1844 
L 1159 0 
L 581 0 
L 581 3500 
L 1159 3500 
L 1159 2956 
Q 1341 3275 1631 3429 
Q 1922 3584 2338 3584 
Q 2397 3584 2469 3576 
Q 2541 3569 2628 3553 
L 2631 2963 
z
" id="DejaVuSans-72" transform="scale(0.015625)"/>
       <path d="M 1172 4494 
L 1172 3500 
L 2356 3500 
L 2356 3053 
L 1172 3053 
L 1172 1153 
Q 1172 725 1289 603 
Q 1406 481 1766 481 
L 2356 481 
L 2356 0 
L 1766 0 
Q 1100 0 847 248 
Q 594 497 594 1153 
L 594 3053 
L 172 3053 
L 172 3500 
L 594 3500 
L 594 4494 
L 1172 4494 
z
" id="DejaVuSans-74" transform="scale(0.015625)"/>
      </defs>
      <use xlink:href="#DejaVuSans-69"/>
      <use x="27.783203" xlink:href="#DejaVuSans-6f"/>
      <use x="88.964844" xlink:href="#DejaVuSans-6e"/>
      <use x="152.34375" xlink:href="#DejaVuSans-20"/>
      <use x="184.130859" xlink:href="#DejaVuSans-63"/>
      <use x="239.111328" xlink:href="#DejaVuSans-68"/>
      <use x="302.490234" xlink:href="#DejaVuSans-61"/>
      <use x="363.769531" xlink:href="#DejaVuSans-6e"/>
      <use x="427.148438" xlink:href="#DejaVuSans-6e"/>
      <use x="490.527344" xlink:href="#DejaVuSans-65"/>
      <use x="552.050781" xlink:href="#DejaVuSans-6c"/>
      <use x="579.833984" xlink:href="#DejaVuSans-20"/>
      <use x="611.621094" xlink:href="#DejaVuSans-63"/>
      <use x="666.601562" xlink:href="#DejaVuSans-75"/>
      <use x="729.980469" xlink:href="#DejaVuSans-72"/>
      <use x="769.34375" xlink:href="#DejaVuSans-72"/>
      <use x="808.207031" xlink:href="#DejaVuSans-65"/>
      <use x="869.730469" xlink:href="#DejaVuSans-6e"/>
      <use x="933.109375" xlink:href="#DejaVuSans-74"/>
     </g>
    </g>
   </g>
   <g id="line2d_1">
    <path clip-path="url(#p9c421863d0)" d="M 69.218182 44.443636 
L 70.061815 49.3746 
L 70.917155 53.111149 
L 71.784982 55.946517 
L 72.669197 58.104882 
L 73.577606 59.755456 
L 74.523474 61.025015 
L 75.528655 62.008124 
L 76.629046 62.774449 
L 77.880839 63.372176 
L 79.375343 63.832588 
L 80.180736 64.127281 
L 81.225717 89.065681 
L 82.240263 108.202376 
L 83.22047 122.685402 
L 84.160876 133.450276 
L 85.056797 141.285842 
L 85.901992 146.832231 
L 86.442042 150.47403 
L 87.193586 179.101835 
L 87.936545 199.3976 
L 88.67014 213.700603 
L 89.392808 223.697142 
L 90.100649 230.589086 
L 90.788979 235.252206 
L 91.450775 238.314435 
L 92.07511 240.227936 
L 92.651841 241.336202 
L 93.173941 241.897958 
L 93.649217 242.104535 
L 94.111225 242.066148 
L 94.613035 241.790852 
L 95.19835 241.198949 
L 95.897606 240.154036 
L 96.729533 238.485602 
L 97.705057 236.002095 
L 98.832764 232.491072 
L 100.126699 227.700186 
L 101.620422 221.275996 
L 103.388853 212.637323 
L 105.625536 200.527326 
L 109.366867 178.825998 
L 113.584255 154.775861 
L 116.265776 140.76641 
L 118.613278 129.650357 
L 120.786747 120.405927 
L 122.851737 112.570324 
L 124.843368 105.865118 
L 126.783491 100.096535 
L 128.688495 95.114804 
L 130.570867 90.802048 
L 132.441533 87.061224 
L 134.311418 83.810252 
L 136.191449 80.98042 
L 138.094112 78.512694 
L 139.487941 76.929618 
L 139.491063 77.006624 
L 140.539166 100.111881 
L 141.551371 117.741777 
L 142.524554 130.997206 
L 143.454034 140.773965 
L 144.334347 147.813015 
L 145.160031 152.730296 
L 145.924842 156.029592 
L 146.621757 158.122492 
L 147.245312 159.347955 
L 147.794727 159.979207 
L 148.280929 160.224163 
L 148.738255 160.211895 
L 149.221334 159.967789 
L 149.780895 159.418598 
L 150.455178 158.422423 
L 151.281642 156.77651 
L 152.308674 154.201326 
L 153.619779 150.270985 
L 155.413183 144.131574 
L 158.854053 131.372357 
L 162.374526 118.672465 
L 164.87499 110.473781 
L 167.121038 103.851124 
L 169.239097 98.281452 
L 170.704724 94.80694 
L 170.707066 94.915164 
L 171.517922 127.2492 
L 172.326436 151.055228 
L 173.131049 168.520406 
L 173.930199 181.278468 
L 174.719983 190.514668 
L 175.494159 197.1021 
L 176.244923 201.696726 
L 176.960568 204.786594 
L 177.629387 206.759331 
L 178.240456 207.923021 
L 178.78675 208.524293 
L 179.276853 208.755775 
L 179.743544 208.734962 
L 180.23833 208.481229 
L 180.808036 207.922456 
L 181.485441 206.924854 
L 182.296297 205.30854 
L 183.264797 202.851253 
L 184.420599 199.276798 
L 185.808965 194.219262 
L 186.313116 192.210043 
L 186.329505 192.616713 
L 187.04515 207.555601 
L 187.75299 217.9527 
L 188.453027 225.154063 
L 189.145259 230.112696 
L 189.827345 233.487153 
L 190.495385 235.739332 
L 191.143133 237.191052 
L 191.762786 238.069507 
L 192.350442 238.540167 
L 192.915466 238.719261 
L 193.485172 238.666978 
L 194.09468 238.380489 
L 194.772864 237.804161 
L 195.536115 236.848622 
L 196.392235 235.402293 
L 197.346688 233.331421 
L 198.407278 230.473416 
L 199.590394 226.616236 
L 200.926473 221.466023 
L 202.468582 214.59175 
L 204.32598 205.238033 
L 206.810056 191.489746 
L 214.910811 145.81959 
L 217.372255 133.667386 
L 219.604255 123.736732 
L 221.703583 115.384105 
L 223.716285 108.265974 
L 225.669676 102.155754 
L 227.581703 96.888747 
L 229.466417 92.334661 
L 231.335522 88.388053 
L 233.138291 85.066935 
L 234.190297 106.892233 
L 235.204062 123.513308 
L 236.174903 135.954206 
L 237.099701 145.092815 
L 237.97221 151.629458 
L 238.787748 156.160035 
L 239.539292 159.163387 
L 240.220599 161.037853 
L 240.826985 162.108458 
L 241.359231 162.635225 
L 241.832945 162.812023 
L 242.28871 162.746897 
L 242.782716 162.440232 
L 243.361787 161.800349 
L 244.063385 160.6693 
L 244.924187 158.830092 
L 245.996484 155.97845 
L 247.373924 151.638164 
L 249.295317 144.781435 
L 257.764431 113.675779 
L 260.060425 106.531312 
L 262.205018 100.566753 
L 264.262204 95.487656 
L 266.265541 91.121256 
L 268.238442 87.344115 
L 270.197295 84.065685 
L 272.157709 81.211395 
L 274.133731 78.721664 
L 276.142531 76.544257 
L 278.202059 74.637033 
L 280.334165 72.964137 
L 282.564604 71.496304 
L 284.925373 70.209443 
L 287.457835 69.083804 
L 290.215057 68.10418 
L 293.268059 67.259034 
L 296.716733 66.539724 
L 300.71014 65.939859 
L 305.486308 65.45485 
L 311.464322 65.081251 
L 319.49718 64.81591 
L 331.775522 64.654794 
L 357.322557 64.589128 
L 373.581818 64.584421 
L 373.581818 64.584421 
" style="fill:none;stroke:#1f77b4;stroke-linecap:square;stroke-width:1.5;"/>
   </g>
   <g id="patch_3">
    <path d="M 54 252 
L 54 34.56 
" style="fill:none;stroke:#000000;stroke-linecap:square;stroke-linejoin:miter;stroke-width:0.8;"/>
   </g>
   <g id="patch_4">
    <path d="M 54 252 
L 388.8 252 
" style="fill:none;stroke:#000000;stroke-linecap:square;stroke-linejoin:miter;stroke-width:0.8;"/>
   </g>
  </g>
 </g>
 <defs>
  <clipPath id="p9c421863d0">
   <rect height="217.44" width="334.8" x="54" y="34.56"/>
  </clipPath>
 </defs>
</svg>
