<?xml version="1.0" encoding="utf-8" standalone="no"?>
<!DOCTYPE svg PUBLIC "-//W3C//DTD SVG 1.1//EN"
  "http://www.w3.org/Graphics/SVG/1.1/DTD/svg11.dtd">
<!-- Created with matplotlib (https://matplotlib.org/) -->
<svg height="288pt" version="1.1" viewBox="0 0 432 288" width="432pt" xmlns="http://www.w3.org/2000/svg" xmlns:xlink="http://www.w3.org/1999/xlink">
 <metadata>
  <rdf:RDF xmlns:cc="http://creativecommons.org/ns#" xmlns:dc="http://purl.org/dc/elements/1.1/" xmlns:rdf="http://www.w3.org/1999/02/22-rdf-syntax-ns#">
   <cc:Work>
    <dc:type rdf:resource="http://purl.org/dc/dcmitype/StillImage"/>
    <dc:date>2022-06-28T13:22:47.783606</dc:date>
    <dc:format>image/svg+xml</dc:format>
    <dc:creator>
     <cc:Agent>
      <dc:title>Matplotlib v3.3.4, https://matplotlib.org/</dc:title>
     </cc:Agent>
    </dc:creator>
   </cc:Work>
  </rdf:RDF>
 </metadata>
 <defs>
  <style type="text/css">*{stroke-linecap:butt;stroke-linejoin:round;}</style>
 </defs>
 <g id="figure_1">
  <g id="patch_1">
   <path d="M 0 288 
L 432 288 
L 432 0 
L 0 0 
z
" style="fill:none;"/>
  </g>
  <g id="axes_1">
   <g id="patch_2">
    <path d="M 54 252 
L 388.8 252 
L 388.8 34.56 
L 54 34.56 
z
" style="fill:#ffffff;"/>
   </g>
   <g id="matplotlib.axis_1">
    <g id="xtick_1">
     <g id="line2d_1">
      <defs>
       <path d="M 0 0 
L 0 3.5 
" id="m290ff61bf1" style="stroke:#000000;stroke-width:0.8;"/>
      </defs>
      <g>
       <use style="stroke:#000000;stroke-width:0.8;" x="69.218182" xlink:href="#m290ff61bf1" y="252"/>
      </g>
     </g>
     <g id="text_1">
      <!-- 0 -->
      <g transform="translate(66.036932 266.598437)scale(0.1 -0.1)">
       <defs>
        <path d="M 31.78125 66.40625 
Q 24.171875 66.40625 20.328125 58.90625 
Q 16.5 51.421875 16.5 36.375 
Q 16.5 21.390625 20.328125 13.890625 
Q 24.171875 6.390625 31.78125 6.390625 
Q 39.453125 6.390625 43.28125 13.890625 
Q 47.125 21.390625 47.125 36.375 
Q 47.125 51.421875 43.28125 58.90625 
Q 39.453125 66.40625 31.78125 66.40625 
z
M 31.78125 74.21875 
Q 44.046875 74.21875 50.515625 64.515625 
Q 56.984375 54.828125 56.984375 36.375 
Q 56.984375 17.96875 50.515625 8.265625 
Q 44.046875 -1.421875 31.78125 -1.421875 
Q 19.53125 -1.421875 13.0625 8.265625 
Q 6.59375 17.96875 6.59375 36.375 
Q 6.59375 54.828125 13.0625 64.515625 
Q 19.53125 74.21875 31.78125 74.21875 
z
" id="DejaVuSans-48"/>
       </defs>
       <use xlink:href="#DejaVuSans-48"/>
      </g>
     </g>
    </g>
    <g id="xtick_2">
     <g id="line2d_2">
      <g>
       <use style="stroke:#000000;stroke-width:0.8;" x="119.945455" xlink:href="#m290ff61bf1" y="252"/>
      </g>
     </g>
     <g id="text_2">
      <!-- 500 -->
      <g transform="translate(110.401705 266.598437)scale(0.1 -0.1)">
       <defs>
        <path d="M 10.796875 72.90625 
L 49.515625 72.90625 
L 49.515625 64.59375 
L 19.828125 64.59375 
L 19.828125 46.734375 
Q 21.96875 47.46875 24.109375 47.828125 
Q 26.265625 48.1875 28.421875 48.1875 
Q 40.625 48.1875 47.75 41.5 
Q 54.890625 34.8125 54.890625 23.390625 
Q 54.890625 11.625 47.5625 5.09375 
Q 40.234375 -1.421875 26.90625 -1.421875 
Q 22.3125 -1.421875 17.546875 -0.640625 
Q 12.796875 0.140625 7.71875 1.703125 
L 7.71875 11.625 
Q 12.109375 9.234375 16.796875 8.0625 
Q 21.484375 6.890625 26.703125 6.890625 
Q 35.15625 6.890625 40.078125 11.328125 
Q 45.015625 15.765625 45.015625 23.390625 
Q 45.015625 31 40.078125 35.4375 
Q 35.15625 39.890625 26.703125 39.890625 
Q 22.75 39.890625 18.8125 39.015625 
Q 14.890625 38.140625 10.796875 36.28125 
z
" id="DejaVuSans-53"/>
       </defs>
       <use xlink:href="#DejaVuSans-53"/>
       <use x="63.623047" xlink:href="#DejaVuSans-48"/>
       <use x="127.246094" xlink:href="#DejaVuSans-48"/>
      </g>
     </g>
    </g>
    <g id="xtick_3">
     <g id="line2d_3">
      <g>
       <use style="stroke:#000000;stroke-width:0.8;" x="170.672727" xlink:href="#m290ff61bf1" y="252"/>
      </g>
     </g>
     <g id="text_3">
      <!-- 1000 -->
      <g transform="translate(157.947727 266.598437)scale(0.1 -0.1)">
       <defs>
        <path d="M 12.40625 8.296875 
L 28.515625 8.296875 
L 28.515625 63.921875 
L 10.984375 60.40625 
L 10.984375 69.390625 
L 28.421875 72.90625 
L 38.28125 72.90625 
L 38.28125 8.296875 
L 54.390625 8.296875 
L 54.390625 0 
L 12.40625 0 
z
" id="DejaVuSans-49"/>
       </defs>
       <use xlink:href="#DejaVuSans-49"/>
       <use x="63.623047" xlink:href="#DejaVuSans-48"/>
       <use x="127.246094" xlink:href="#DejaVuSans-48"/>
       <use x="190.869141" xlink:href="#DejaVuSans-48"/>
      </g>
     </g>
    </g>
    <g id="xtick_4">
     <g id="line2d_4">
      <g>
       <use style="stroke:#000000;stroke-width:0.8;" x="221.4" xlink:href="#m290ff61bf1" y="252"/>
      </g>
     </g>
     <g id="text_4">
      <!-- 1500 -->
      <g transform="translate(208.675 266.598437)scale(0.1 -0.1)">
       <use xlink:href="#DejaVuSans-49"/>
       <use x="63.623047" xlink:href="#DejaVuSans-53"/>
       <use x="127.246094" xlink:href="#DejaVuSans-48"/>
       <use x="190.869141" xlink:href="#DejaVuSans-48"/>
      </g>
     </g>
    </g>
    <g id="xtick_5">
     <g id="line2d_5">
      <g>
       <use style="stroke:#000000;stroke-width:0.8;" x="272.127273" xlink:href="#m290ff61bf1" y="252"/>
      </g>
     </g>
     <g id="text_5">
      <!-- 2000 -->
      <g transform="translate(259.402273 266.598437)scale(0.1 -0.1)">
       <defs>
        <path d="M 19.1875 8.296875 
L 53.609375 8.296875 
L 53.609375 0 
L 7.328125 0 
L 7.328125 8.296875 
Q 12.9375 14.109375 22.625 23.890625 
Q 32.328125 33.6875 34.8125 36.53125 
Q 39.546875 41.84375 41.421875 45.53125 
Q 43.3125 49.21875 43.3125 52.78125 
Q 43.3125 58.59375 39.234375 62.25 
Q 35.15625 65.921875 28.609375 65.921875 
Q 23.96875 65.921875 18.8125 64.3125 
Q 13.671875 62.703125 7.8125 59.421875 
L 7.8125 69.390625 
Q 13.765625 71.78125 18.9375 73 
Q 24.125 74.21875 28.421875 74.21875 
Q 39.75 74.21875 46.484375 68.546875 
Q 53.21875 62.890625 53.21875 53.421875 
Q 53.21875 48.921875 51.53125 44.890625 
Q 49.859375 40.875 45.40625 35.40625 
Q 44.1875 33.984375 37.640625 27.21875 
Q 31.109375 20.453125 19.1875 8.296875 
z
" id="DejaVuSans-50"/>
       </defs>
       <use xlink:href="#DejaVuSans-50"/>
       <use x="63.623047" xlink:href="#DejaVuSans-48"/>
       <use x="127.246094" xlink:href="#DejaVuSans-48"/>
       <use x="190.869141" xlink:href="#DejaVuSans-48"/>
      </g>
     </g>
    </g>
    <g id="xtick_6">
     <g id="line2d_6">
      <g>
       <use style="stroke:#000000;stroke-width:0.8;" x="322.854545" xlink:href="#m290ff61bf1" y="252"/>
      </g>
     </g>
     <g id="text_6">
      <!-- 2500 -->
      <g transform="translate(310.129545 266.598437)scale(0.1 -0.1)">
       <use xlink:href="#DejaVuSans-50"/>
       <use x="63.623047" xlink:href="#DejaVuSans-53"/>
       <use x="127.246094" xlink:href="#DejaVuSans-48"/>
       <use x="190.869141" xlink:href="#DejaVuSans-48"/>
      </g>
     </g>
    </g>
    <g id="xtick_7">
     <g id="line2d_7">
      <g>
       <use style="stroke:#000000;stroke-width:0.8;" x="373.581818" xlink:href="#m290ff61bf1" y="252"/>
      </g>
     </g>
     <g id="text_7">
      <!-- 3000 -->
      <g transform="translate(360.856818 266.598437)scale(0.1 -0.1)">
       <defs>
        <path d="M 40.578125 39.3125 
Q 47.65625 37.796875 51.625 33 
Q 55.609375 28.21875 55.609375 21.1875 
Q 55.609375 10.40625 48.1875 4.484375 
Q 40.765625 -1.421875 27.09375 -1.421875 
Q 22.515625 -1.421875 17.65625 -0.515625 
Q 12.796875 0.390625 7.625 2.203125 
L 7.625 11.71875 
Q 11.71875 9.328125 16.59375 8.109375 
Q 21.484375 6.890625 26.8125 6.890625 
Q 36.078125 6.890625 40.9375 10.546875 
Q 45.796875 14.203125 45.796875 21.1875 
Q 45.796875 27.640625 41.28125 31.265625 
Q 36.765625 34.90625 28.71875 34.90625 
L 20.21875 34.90625 
L 20.21875 43.015625 
L 29.109375 43.015625 
Q 36.375 43.015625 40.234375 45.921875 
Q 44.09375 48.828125 44.09375 54.296875 
Q 44.09375 59.90625 40.109375 62.90625 
Q 36.140625 65.921875 28.71875 65.921875 
Q 24.65625 65.921875 20.015625 65.03125 
Q 15.375 64.15625 9.8125 62.3125 
L 9.8125 71.09375 
Q 15.4375 72.65625 20.34375 73.4375 
Q 25.25 74.21875 29.59375 74.21875 
Q 40.828125 74.21875 47.359375 69.109375 
Q 53.90625 64.015625 53.90625 55.328125 
Q 53.90625 49.265625 50.4375 45.09375 
Q 46.96875 40.921875 40.578125 39.3125 
z
" id="DejaVuSans-51"/>
       </defs>
       <use xlink:href="#DejaVuSans-51"/>
       <use x="63.623047" xlink:href="#DejaVuSans-48"/>
       <use x="127.246094" xlink:href="#DejaVuSans-48"/>
       <use x="190.869141" xlink:href="#DejaVuSans-48"/>
      </g>
     </g>
    </g>
    <g id="text_8">
     <!-- Time(ms) -->
     <g transform="translate(197.789844 280.276563)scale(0.1 -0.1)">
      <defs>
       <path d="M -0.296875 72.90625 
L 61.375 72.90625 
L 61.375 64.59375 
L 35.5 64.59375 
L 35.5 0 
L 25.59375 0 
L 25.59375 64.59375 
L -0.296875 64.59375 
z
" id="DejaVuSans-84"/>
       <path d="M 9.421875 54.6875 
L 18.40625 54.6875 
L 18.40625 0 
L 9.421875 0 
z
M 9.421875 75.984375 
L 18.40625 75.984375 
L 18.40625 64.59375 
L 9.421875 64.59375 
z
" id="DejaVuSans-105"/>
       <path d="M 52 44.1875 
Q 55.375 50.25 60.0625 53.125 
Q 64.75 56 71.09375 56 
Q 79.640625 56 84.28125 50.015625 
Q 88.921875 44.046875 88.921875 33.015625 
L 88.921875 0 
L 79.890625 0 
L 79.890625 32.71875 
Q 79.890625 40.578125 77.09375 44.375 
Q 74.3125 48.1875 68.609375 48.1875 
Q 61.625 48.1875 57.5625 43.546875 
Q 53.515625 38.921875 53.515625 30.90625 
L 53.515625 0 
L 44.484375 0 
L 44.484375 32.71875 
Q 44.484375 40.625 41.703125 44.40625 
Q 38.921875 48.1875 33.109375 48.1875 
Q 26.21875 48.1875 22.15625 43.53125 
Q 18.109375 38.875 18.109375 30.90625 
L 18.109375 0 
L 9.078125 0 
L 9.078125 54.6875 
L 18.109375 54.6875 
L 18.109375 46.1875 
Q 21.1875 51.21875 25.484375 53.609375 
Q 29.78125 56 35.6875 56 
Q 41.65625 56 45.828125 52.96875 
Q 50 49.953125 52 44.1875 
z
" id="DejaVuSans-109"/>
       <path d="M 56.203125 29.59375 
L 56.203125 25.203125 
L 14.890625 25.203125 
Q 15.484375 15.921875 20.484375 11.0625 
Q 25.484375 6.203125 34.421875 6.203125 
Q 39.59375 6.203125 44.453125 7.46875 
Q 49.3125 8.734375 54.109375 11.28125 
L 54.109375 2.78125 
Q 49.265625 0.734375 44.1875 -0.34375 
Q 39.109375 -1.421875 33.890625 -1.421875 
Q 20.796875 -1.421875 13.15625 6.1875 
Q 5.515625 13.8125 5.515625 26.8125 
Q 5.515625 40.234375 12.765625 48.109375 
Q 20.015625 56 32.328125 56 
Q 43.359375 56 49.78125 48.890625 
Q 56.203125 41.796875 56.203125 29.59375 
z
M 47.21875 32.234375 
Q 47.125 39.59375 43.09375 43.984375 
Q 39.0625 48.390625 32.421875 48.390625 
Q 24.90625 48.390625 20.390625 44.140625 
Q 15.875 39.890625 15.1875 32.171875 
z
" id="DejaVuSans-101"/>
       <path d="M 31 75.875 
Q 24.46875 64.65625 21.28125 53.65625 
Q 18.109375 42.671875 18.109375 31.390625 
Q 18.109375 20.125 21.3125 9.0625 
Q 24.515625 -2 31 -13.1875 
L 23.1875 -13.1875 
Q 15.875 -1.703125 12.234375 9.375 
Q 8.59375 20.453125 8.59375 31.390625 
Q 8.59375 42.28125 12.203125 53.3125 
Q 15.828125 64.359375 23.1875 75.875 
z
" id="DejaVuSans-40"/>
       <path d="M 44.28125 53.078125 
L 44.28125 44.578125 
Q 40.484375 46.53125 36.375 47.5 
Q 32.28125 48.484375 27.875 48.484375 
Q 21.1875 48.484375 17.84375 46.4375 
Q 14.5 44.390625 14.5 40.28125 
Q 14.5 37.15625 16.890625 35.375 
Q 19.28125 33.59375 26.515625 31.984375 
L 29.59375 31.296875 
Q 39.15625 29.25 43.1875 25.515625 
Q 47.21875 21.78125 47.21875 15.09375 
Q 47.21875 7.46875 41.1875 3.015625 
Q 35.15625 -1.421875 24.609375 -1.421875 
Q 20.21875 -1.421875 15.453125 -0.5625 
Q 10.6875 0.296875 5.421875 2 
L 5.421875 11.28125 
Q 10.40625 8.6875 15.234375 7.390625 
Q 20.0625 6.109375 24.8125 6.109375 
Q 31.15625 6.109375 34.5625 8.28125 
Q 37.984375 10.453125 37.984375 14.40625 
Q 37.984375 18.0625 35.515625 20.015625 
Q 33.0625 21.96875 24.703125 23.78125 
L 21.578125 24.515625 
Q 13.234375 26.265625 9.515625 29.90625 
Q 5.8125 33.546875 5.8125 39.890625 
Q 5.8125 47.609375 11.28125 51.796875 
Q 16.75 56 26.8125 56 
Q 31.78125 56 36.171875 55.265625 
Q 40.578125 54.546875 44.28125 53.078125 
z
" id="DejaVuSans-115"/>
       <path d="M 8.015625 75.875 
L 15.828125 75.875 
Q 23.140625 64.359375 26.78125 53.3125 
Q 30.421875 42.28125 30.421875 31.390625 
Q 30.421875 20.453125 26.78125 9.375 
Q 23.140625 -1.703125 15.828125 -13.1875 
L 8.015625 -13.1875 
Q 14.5 -2 17.703125 9.0625 
Q 20.90625 20.125 20.90625 31.390625 
Q 20.90625 42.671875 17.703125 53.65625 
Q 14.5 64.65625 8.015625 75.875 
z
" id="DejaVuSans-41"/>
      </defs>
      <use xlink:href="#DejaVuSans-84"/>
      <use x="57.958984" xlink:href="#DejaVuSans-105"/>
      <use x="85.742188" xlink:href="#DejaVuSans-109"/>
      <use x="183.154297" xlink:href="#DejaVuSans-101"/>
      <use x="244.677734" xlink:href="#DejaVuSans-40"/>
      <use x="283.691406" xlink:href="#DejaVuSans-109"/>
      <use x="381.103516" xlink:href="#DejaVuSans-115"/>
      <use x="433.203125" xlink:href="#DejaVuSans-41"/>
     </g>
    </g>
   </g>
   <g id="matplotlib.axis_2">
    <g id="ytick_1">
     <g id="line2d_8">
      <defs>
       <path d="M 0 0 
L -3.5 0 
" id="m5b8d225fec" style="stroke:#000000;stroke-width:0.8;"/>
      </defs>
      <g>
       <use style="stroke:#000000;stroke-width:0.8;" x="54" xlink:href="#m5b8d225fec" y="252"/>
      </g>
     </g>
     <g id="text_9">
      <!-- −100 -->
      <g transform="translate(19.532812 255.799219)scale(0.1 -0.1)">
       <defs>
        <path d="M 10.59375 35.5 
L 73.1875 35.5 
L 73.1875 27.203125 
L 10.59375 27.203125 
z
" id="DejaVuSans-8722"/>
       </defs>
       <use xlink:href="#DejaVuSans-8722"/>
       <use x="83.789062" xlink:href="#DejaVuSans-49"/>
       <use x="147.412109" xlink:href="#DejaVuSans-48"/>
       <use x="211.035156" xlink:href="#DejaVuSans-48"/>
      </g>
     </g>
    </g>
    <g id="ytick_2">
     <g id="line2d_9">
      <g>
       <use style="stroke:#000000;stroke-width:0.8;" x="54" xlink:href="#m5b8d225fec" y="208.512"/>
      </g>
     </g>
     <g id="text_10">
      <!-- −90 -->
      <g transform="translate(25.895312 212.311219)scale(0.1 -0.1)">
       <defs>
        <path d="M 10.984375 1.515625 
L 10.984375 10.5 
Q 14.703125 8.734375 18.5 7.8125 
Q 22.3125 6.890625 25.984375 6.890625 
Q 35.75 6.890625 40.890625 13.453125 
Q 46.046875 20.015625 46.78125 33.40625 
Q 43.953125 29.203125 39.59375 26.953125 
Q 35.25 24.703125 29.984375 24.703125 
Q 19.046875 24.703125 12.671875 31.3125 
Q 6.296875 37.9375 6.296875 49.421875 
Q 6.296875 60.640625 12.9375 67.421875 
Q 19.578125 74.21875 30.609375 74.21875 
Q 43.265625 74.21875 49.921875 64.515625 
Q 56.59375 54.828125 56.59375 36.375 
Q 56.59375 19.140625 48.40625 8.859375 
Q 40.234375 -1.421875 26.421875 -1.421875 
Q 22.703125 -1.421875 18.890625 -0.6875 
Q 15.09375 0.046875 10.984375 1.515625 
z
M 30.609375 32.421875 
Q 37.25 32.421875 41.125 36.953125 
Q 45.015625 41.5 45.015625 49.421875 
Q 45.015625 57.28125 41.125 61.84375 
Q 37.25 66.40625 30.609375 66.40625 
Q 23.96875 66.40625 20.09375 61.84375 
Q 16.21875 57.28125 16.21875 49.421875 
Q 16.21875 41.5 20.09375 36.953125 
Q 23.96875 32.421875 30.609375 32.421875 
z
" id="DejaVuSans-57"/>
       </defs>
       <use xlink:href="#DejaVuSans-8722"/>
       <use x="83.789062" xlink:href="#DejaVuSans-57"/>
       <use x="147.412109" xlink:href="#DejaVuSans-48"/>
      </g>
     </g>
    </g>
    <g id="ytick_3">
     <g id="line2d_10">
      <g>
       <use style="stroke:#000000;stroke-width:0.8;" x="54" xlink:href="#m5b8d225fec" y="165.024"/>
      </g>
     </g>
     <g id="text_11">
      <!-- −80 -->
      <g transform="translate(25.895312 168.823219)scale(0.1 -0.1)">
       <defs>
        <path d="M 31.78125 34.625 
Q 24.75 34.625 20.71875 30.859375 
Q 16.703125 27.09375 16.703125 20.515625 
Q 16.703125 13.921875 20.71875 10.15625 
Q 24.75 6.390625 31.78125 6.390625 
Q 38.8125 6.390625 42.859375 10.171875 
Q 46.921875 13.96875 46.921875 20.515625 
Q 46.921875 27.09375 42.890625 30.859375 
Q 38.875 34.625 31.78125 34.625 
z
M 21.921875 38.8125 
Q 15.578125 40.375 12.03125 44.71875 
Q 8.5 49.078125 8.5 55.328125 
Q 8.5 64.0625 14.71875 69.140625 
Q 20.953125 74.21875 31.78125 74.21875 
Q 42.671875 74.21875 48.875 69.140625 
Q 55.078125 64.0625 55.078125 55.328125 
Q 55.078125 49.078125 51.53125 44.71875 
Q 48 40.375 41.703125 38.8125 
Q 48.828125 37.15625 52.796875 32.3125 
Q 56.78125 27.484375 56.78125 20.515625 
Q 56.78125 9.90625 50.3125 4.234375 
Q 43.84375 -1.421875 31.78125 -1.421875 
Q 19.734375 -1.421875 13.25 4.234375 
Q 6.78125 9.90625 6.78125 20.515625 
Q 6.78125 27.484375 10.78125 32.3125 
Q 14.796875 37.15625 21.921875 38.8125 
z
M 18.3125 54.390625 
Q 18.3125 48.734375 21.84375 45.5625 
Q 25.390625 42.390625 31.78125 42.390625 
Q 38.140625 42.390625 41.71875 45.5625 
Q 45.3125 48.734375 45.3125 54.390625 
Q 45.3125 60.0625 41.71875 63.234375 
Q 38.140625 66.40625 31.78125 66.40625 
Q 25.390625 66.40625 21.84375 63.234375 
Q 18.3125 60.0625 18.3125 54.390625 
z
" id="DejaVuSans-56"/>
       </defs>
       <use xlink:href="#DejaVuSans-8722"/>
       <use x="83.789062" xlink:href="#DejaVuSans-56"/>
       <use x="147.412109" xlink:href="#DejaVuSans-48"/>
      </g>
     </g>
    </g>
    <g id="ytick_4">
     <g id="line2d_11">
      <g>
       <use style="stroke:#000000;stroke-width:0.8;" x="54" xlink:href="#m5b8d225fec" y="121.536"/>
      </g>
     </g>
     <g id="text_12">
      <!-- −70 -->
      <g transform="translate(25.895312 125.335219)scale(0.1 -0.1)">
       <defs>
        <path d="M 8.203125 72.90625 
L 55.078125 72.90625 
L 55.078125 68.703125 
L 28.609375 0 
L 18.3125 0 
L 43.21875 64.59375 
L 8.203125 64.59375 
z
" id="DejaVuSans-55"/>
       </defs>
       <use xlink:href="#DejaVuSans-8722"/>
       <use x="83.789062" xlink:href="#DejaVuSans-55"/>
       <use x="147.412109" xlink:href="#DejaVuSans-48"/>
      </g>
     </g>
    </g>
    <g id="ytick_5">
     <g id="line2d_12">
      <g>
       <use style="stroke:#000000;stroke-width:0.8;" x="54" xlink:href="#m5b8d225fec" y="78.048"/>
      </g>
     </g>
     <g id="text_13">
      <!-- −60 -->
      <g transform="translate(25.895312 81.847219)scale(0.1 -0.1)">
       <defs>
        <path d="M 33.015625 40.375 
Q 26.375 40.375 22.484375 35.828125 
Q 18.609375 31.296875 18.609375 23.390625 
Q 18.609375 15.53125 22.484375 10.953125 
Q 26.375 6.390625 33.015625 6.390625 
Q 39.65625 6.390625 43.53125 10.953125 
Q 47.40625 15.53125 47.40625 23.390625 
Q 47.40625 31.296875 43.53125 35.828125 
Q 39.65625 40.375 33.015625 40.375 
z
M 52.59375 71.296875 
L 52.59375 62.3125 
Q 48.875 64.0625 45.09375 64.984375 
Q 41.3125 65.921875 37.59375 65.921875 
Q 27.828125 65.921875 22.671875 59.328125 
Q 17.53125 52.734375 16.796875 39.40625 
Q 19.671875 43.65625 24.015625 45.921875 
Q 28.375 48.1875 33.59375 48.1875 
Q 44.578125 48.1875 50.953125 41.515625 
Q 57.328125 34.859375 57.328125 23.390625 
Q 57.328125 12.15625 50.6875 5.359375 
Q 44.046875 -1.421875 33.015625 -1.421875 
Q 20.359375 -1.421875 13.671875 8.265625 
Q 6.984375 17.96875 6.984375 36.375 
Q 6.984375 53.65625 15.1875 63.9375 
Q 23.390625 74.21875 37.203125 74.21875 
Q 40.921875 74.21875 44.703125 73.484375 
Q 48.484375 72.75 52.59375 71.296875 
z
" id="DejaVuSans-54"/>
       </defs>
       <use xlink:href="#DejaVuSans-8722"/>
       <use x="83.789062" xlink:href="#DejaVuSans-54"/>
       <use x="147.412109" xlink:href="#DejaVuSans-48"/>
      </g>
     </g>
    </g>
    <g id="ytick_6">
     <g id="line2d_13">
      <g>
       <use style="stroke:#000000;stroke-width:0.8;" x="54" xlink:href="#m5b8d225fec" y="34.56"/>
      </g>
     </g>
     <g id="text_14">
      <!-- −50 -->
      <g transform="translate(25.895312 38.359219)scale(0.1 -0.1)">
       <use xlink:href="#DejaVuSans-8722"/>
       <use x="83.789062" xlink:href="#DejaVuSans-53"/>
       <use x="147.412109" xlink:href="#DejaVuSans-48"/>
      </g>
     </g>
    </g>
    <g id="text_15">
     <!-- Membrane potential (mV) -->
     <g transform="translate(13.453125 207.691719)rotate(-90)scale(0.1 -0.1)">
      <defs>
       <path d="M 9.8125 72.90625 
L 24.515625 72.90625 
L 43.109375 23.296875 
L 61.8125 72.90625 
L 76.515625 72.90625 
L 76.515625 0 
L 66.890625 0 
L 66.890625 64.015625 
L 48.09375 14.015625 
L 38.1875 14.015625 
L 19.390625 64.015625 
L 19.390625 0 
L 9.8125 0 
z
" id="DejaVuSans-77"/>
       <path d="M 48.6875 27.296875 
Q 48.6875 37.203125 44.609375 42.84375 
Q 40.53125 48.484375 33.40625 48.484375 
Q 26.265625 48.484375 22.1875 42.84375 
Q 18.109375 37.203125 18.109375 27.296875 
Q 18.109375 17.390625 22.1875 11.75 
Q 26.265625 6.109375 33.40625 6.109375 
Q 40.53125 6.109375 44.609375 11.75 
Q 48.6875 17.390625 48.6875 27.296875 
z
M 18.109375 46.390625 
Q 20.953125 51.265625 25.265625 53.625 
Q 29.59375 56 35.59375 56 
Q 45.5625 56 51.78125 48.09375 
Q 58.015625 40.1875 58.015625 27.296875 
Q 58.015625 14.40625 51.78125 6.484375 
Q 45.5625 -1.421875 35.59375 -1.421875 
Q 29.59375 -1.421875 25.265625 0.953125 
Q 20.953125 3.328125 18.109375 8.203125 
L 18.109375 0 
L 9.078125 0 
L 9.078125 75.984375 
L 18.109375 75.984375 
z
" id="DejaVuSans-98"/>
       <path d="M 41.109375 46.296875 
Q 39.59375 47.171875 37.8125 47.578125 
Q 36.03125 48 33.890625 48 
Q 26.265625 48 22.1875 43.046875 
Q 18.109375 38.09375 18.109375 28.8125 
L 18.109375 0 
L 9.078125 0 
L 9.078125 54.6875 
L 18.109375 54.6875 
L 18.109375 46.1875 
Q 20.953125 51.171875 25.484375 53.578125 
Q 30.03125 56 36.53125 56 
Q 37.453125 56 38.578125 55.875 
Q 39.703125 55.765625 41.0625 55.515625 
z
" id="DejaVuSans-114"/>
       <path d="M 34.28125 27.484375 
Q 23.390625 27.484375 19.1875 25 
Q 14.984375 22.515625 14.984375 16.5 
Q 14.984375 11.71875 18.140625 8.90625 
Q 21.296875 6.109375 26.703125 6.109375 
Q 34.1875 6.109375 38.703125 11.40625 
Q 43.21875 16.703125 43.21875 25.484375 
L 43.21875 27.484375 
z
M 52.203125 31.203125 
L 52.203125 0 
L 43.21875 0 
L 43.21875 8.296875 
Q 40.140625 3.328125 35.546875 0.953125 
Q 30.953125 -1.421875 24.3125 -1.421875 
Q 15.921875 -1.421875 10.953125 3.296875 
Q 6 8.015625 6 15.921875 
Q 6 25.140625 12.171875 29.828125 
Q 18.359375 34.515625 30.609375 34.515625 
L 43.21875 34.515625 
L 43.21875 35.40625 
Q 43.21875 41.609375 39.140625 45 
Q 35.0625 48.390625 27.6875 48.390625 
Q 23 48.390625 18.546875 47.265625 
Q 14.109375 46.140625 10.015625 43.890625 
L 10.015625 52.203125 
Q 14.9375 54.109375 19.578125 55.046875 
Q 24.21875 56 28.609375 56 
Q 40.484375 56 46.34375 49.84375 
Q 52.203125 43.703125 52.203125 31.203125 
z
" id="DejaVuSans-97"/>
       <path d="M 54.890625 33.015625 
L 54.890625 0 
L 45.90625 0 
L 45.90625 32.71875 
Q 45.90625 40.484375 42.875 44.328125 
Q 39.84375 48.1875 33.796875 48.1875 
Q 26.515625 48.1875 22.3125 43.546875 
Q 18.109375 38.921875 18.109375 30.90625 
L 18.109375 0 
L 9.078125 0 
L 9.078125 54.6875 
L 18.109375 54.6875 
L 18.109375 46.1875 
Q 21.34375 51.125 25.703125 53.5625 
Q 30.078125 56 35.796875 56 
Q 45.21875 56 50.046875 50.171875 
Q 54.890625 44.34375 54.890625 33.015625 
z
" id="DejaVuSans-110"/>
       <path id="DejaVuSans-32"/>
       <path d="M 18.109375 8.203125 
L 18.109375 -20.796875 
L 9.078125 -20.796875 
L 9.078125 54.6875 
L 18.109375 54.6875 
L 18.109375 46.390625 
Q 20.953125 51.265625 25.265625 53.625 
Q 29.59375 56 35.59375 56 
Q 45.5625 56 51.78125 48.09375 
Q 58.015625 40.1875 58.015625 27.296875 
Q 58.015625 14.40625 51.78125 6.484375 
Q 45.5625 -1.421875 35.59375 -1.421875 
Q 29.59375 -1.421875 25.265625 0.953125 
Q 20.953125 3.328125 18.109375 8.203125 
z
M 48.6875 27.296875 
Q 48.6875 37.203125 44.609375 42.84375 
Q 40.53125 48.484375 33.40625 48.484375 
Q 26.265625 48.484375 22.1875 42.84375 
Q 18.109375 37.203125 18.109375 27.296875 
Q 18.109375 17.390625 22.1875 11.75 
Q 26.265625 6.109375 33.40625 6.109375 
Q 40.53125 6.109375 44.609375 11.75 
Q 48.6875 17.390625 48.6875 27.296875 
z
" id="DejaVuSans-112"/>
       <path d="M 30.609375 48.390625 
Q 23.390625 48.390625 19.1875 42.75 
Q 14.984375 37.109375 14.984375 27.296875 
Q 14.984375 17.484375 19.15625 11.84375 
Q 23.34375 6.203125 30.609375 6.203125 
Q 37.796875 6.203125 41.984375 11.859375 
Q 46.1875 17.53125 46.1875 27.296875 
Q 46.1875 37.015625 41.984375 42.703125 
Q 37.796875 48.390625 30.609375 48.390625 
z
M 30.609375 56 
Q 42.328125 56 49.015625 48.375 
Q 55.71875 40.765625 55.71875 27.296875 
Q 55.71875 13.875 49.015625 6.21875 
Q 42.328125 -1.421875 30.609375 -1.421875 
Q 18.84375 -1.421875 12.171875 6.21875 
Q 5.515625 13.875 5.515625 27.296875 
Q 5.515625 40.765625 12.171875 48.375 
Q 18.84375 56 30.609375 56 
z
" id="DejaVuSans-111"/>
       <path d="M 18.3125 70.21875 
L 18.3125 54.6875 
L 36.8125 54.6875 
L 36.8125 47.703125 
L 18.3125 47.703125 
L 18.3125 18.015625 
Q 18.3125 11.328125 20.140625 9.421875 
Q 21.96875 7.515625 27.59375 7.515625 
L 36.8125 7.515625 
L 36.8125 0 
L 27.59375 0 
Q 17.1875 0 13.234375 3.875 
Q 9.28125 7.765625 9.28125 18.015625 
L 9.28125 47.703125 
L 2.6875 47.703125 
L 2.6875 54.6875 
L 9.28125 54.6875 
L 9.28125 70.21875 
z
" id="DejaVuSans-116"/>
       <path d="M 9.421875 75.984375 
L 18.40625 75.984375 
L 18.40625 0 
L 9.421875 0 
z
" id="DejaVuSans-108"/>
       <path d="M 28.609375 0 
L 0.78125 72.90625 
L 11.078125 72.90625 
L 34.1875 11.53125 
L 57.328125 72.90625 
L 67.578125 72.90625 
L 39.796875 0 
z
" id="DejaVuSans-86"/>
      </defs>
      <use xlink:href="#DejaVuSans-77"/>
      <use x="86.279297" xlink:href="#DejaVuSans-101"/>
      <use x="147.802734" xlink:href="#DejaVuSans-109"/>
      <use x="245.214844" xlink:href="#DejaVuSans-98"/>
      <use x="308.691406" xlink:href="#DejaVuSans-114"/>
      <use x="349.804688" xlink:href="#DejaVuSans-97"/>
      <use x="411.083984" xlink:href="#DejaVuSans-110"/>
      <use x="474.462891" xlink:href="#DejaVuSans-101"/>
      <use x="535.986328" xlink:href="#DejaVuSans-32"/>
      <use x="567.773438" xlink:href="#DejaVuSans-112"/>
      <use x="631.25" xlink:href="#DejaVuSans-111"/>
      <use x="692.431641" xlink:href="#DejaVuSans-116"/>
      <use x="731.640625" xlink:href="#DejaVuSans-101"/>
      <use x="793.164062" xlink:href="#DejaVuSans-110"/>
      <use x="856.542969" xlink:href="#DejaVuSans-116"/>
      <use x="895.751953" xlink:href="#DejaVuSans-105"/>
      <use x="923.535156" xlink:href="#DejaVuSans-97"/>
      <use x="984.814453" xlink:href="#DejaVuSans-108"/>
      <use x="1012.597656" xlink:href="#DejaVuSans-32"/>
      <use x="1044.384766" xlink:href="#DejaVuSans-40"/>
      <use x="1083.398438" xlink:href="#DejaVuSans-109"/>
      <use x="1180.810547" xlink:href="#DejaVuSans-86"/>
      <use x="1249.21875" xlink:href="#DejaVuSans-41"/>
     </g>
    </g>
   </g>
   <g id="line2d_14">
    <path clip-path="url(#pe658668ba1)" d="M 69.218182 191.1168 
L 69.370364 213.695261 
L 69.573273 215.067263 
L 69.826909 215.034604 
L 69.979091 215.321476 
L 70.334182 213.736621 
L 70.384909 213.755007 
L 70.537091 214.135223 
L 70.942909 216.233983 
L 71.602364 219.404881 
L 72.058909 220.695288 
L 72.109636 220.736411 
L 72.160364 220.673217 
L 72.363273 219.016508 
L 72.616909 217.75493 
L 72.769091 217.633923 
L 72.921273 217.796912 
L 73.276364 218.672773 
L 73.479273 219.003391 
L 73.580727 218.75781 
L 73.986545 217.345371 
L 74.138727 217.385138 
L 74.392364 217.868246 
L 74.544545 218.107278 
L 74.950364 217.841447 
L 75.153273 218.098468 
L 75.204 218.194829 
L 75.254727 218.07369 
L 75.711273 215.819858 
L 75.863455 215.846054 
L 76.066364 216.293696 
L 76.370727 217.163226 
L 76.421455 217.093918 
L 76.675091 216.809398 
L 76.827273 216.985115 
L 77.030182 217.436116 
L 77.080909 217.371356 
L 77.537455 214.76611 
L 77.689636 214.987671 
L 78.044727 216.315151 
L 78.399818 217.561721 
L 78.754909 217.259738 
L 78.957818 217.565226 
L 79.262182 218.287492 
L 79.312909 218.187708 
L 79.769455 215.998716 
L 79.921636 216.044633 
L 80.175273 216.60601 
L 81.342 219.776871 
L 81.392727 219.826847 
L 81.494182 219.450679 
L 81.9 216.110875 
L 82.052182 216.015837 
L 82.255091 216.375441 
L 82.407273 216.70772 
L 82.458 216.66446 
L 82.711636 216.382726 
L 82.863818 216.506577 
L 83.168182 217.188854 
L 84.132 219.567179 
L 84.436364 219.968658 
L 84.994364 218.317265 
L 85.197273 218.497729 
L 85.958182 219.773066 
L 86.059636 219.548689 
L 86.414727 218.450579 
L 86.617636 218.416911 
L 86.871273 218.71769 
L 87.530727 219.712051 
L 87.733636 218.606299 
L 87.987273 217.613301 
L 88.190182 217.510345 
L 88.393091 217.767027 
L 88.596 217.988734 
L 88.798909 217.824573 
L 89.204727 215.077332 
L 89.306182 215.120935 
L 89.407636 214.698265 
L 89.864182 211.293853 
L 89.965636 211.436306 
L 90.371455 212.368404 
L 90.726545 212.797675 
L 90.828 212.854537 
L 90.929455 212.353231 
L 91.183091 211.152325 
L 91.284545 211.169657 
L 91.436727 211.576126 
L 91.791818 213.426758 
L 92.248364 215.738092 
L 92.552727 215.587924 
L 92.755636 215.925214 
L 92.958545 216.466643 
L 93.009273 216.444802 
L 93.364364 215.957434 
L 93.567273 216.220076 
L 93.719455 216.474264 
L 93.770182 216.444638 
L 94.074545 216.249912 
L 94.176 216.26406 
L 94.581818 215.41073 
L 94.784727 215.692902 
L 94.987636 215.777884 
L 95.190545 215.672706 
L 95.545636 212.970515 
L 95.900727 210.507343 
L 96.002182 210.423404 
L 96.052909 210.473084 
L 96.255818 211.1121 
L 96.357273 211.443476 
L 96.864545 209.770458 
L 97.016727 209.342816 
L 97.219636 209.024437 
L 97.371818 209.336226 
L 97.777636 210.719805 
L 97.828364 210.69973 
L 97.929818 209.96553 
L 98.183455 208.264992 
L 98.284909 208.30752 
L 98.487818 209.143663 
L 98.944364 211.408181 
L 99.147273 211.91791 
L 99.654545 214.157675 
L 99.756 214.054183 
L 99.908182 214.012277 
L 100.060364 214.228924 
L 100.415455 215.348662 
L 100.872 216.748288 
L 101.176364 216.502987 
L 101.277818 215.19282 
L 101.582182 211.016787 
L 101.886545 210.125409 
L 102.038727 209.95538 
L 102.190909 210.278651 
L 102.495273 211.803323 
L 103.408364 216.654351 
L 103.915636 218.139237 
L 104.422909 218.982161 
L 104.828727 219.361976 
L 104.980909 218.86032 
L 105.285273 217.049761 
L 105.589636 214.594159 
L 105.843273 213.308415 
L 105.944727 212.983264 
L 106.299818 210.992203 
L 106.604182 209.509288 
L 106.654909 209.538114 
L 106.807091 209.986859 
L 107.162182 211.235477 
L 107.466545 210.892757 
L 107.517273 210.946993 
L 107.720182 211.529281 
L 108.227455 214.143122 
L 108.886909 217.060361 
L 109.394182 218.379281 
L 109.647818 218.723993 
L 110.104364 216.763481 
L 110.358 215.639332 
L 110.510182 215.544812 
L 110.611636 215.594194 
L 111.220364 213.755775 
L 111.524727 211.435588 
L 111.626182 211.371095 
L 111.778364 211.709814 
L 112.032 212.580596 
L 112.082727 212.50174 
L 112.184182 212.124526 
L 112.691455 208.338212 
L 112.742182 208.357928 
L 112.894364 208.873756 
L 112.995818 209.439909 
L 113.046545 209.378051 
L 113.148 209.223674 
L 113.198727 209.261495 
L 113.350909 209.753851 
L 113.756727 212.30602 
L 113.858182 211.931626 
L 114.010364 211.562821 
L 114.162545 211.970029 
L 114.669818 214.714663 
L 115.075636 216.282766 
L 115.430727 216.001575 
L 115.633636 215.597755 
L 115.988727 213.57231 
L 116.090182 213.571875 
L 116.293091 214.006343 
L 116.648182 214.9723 
L 116.901818 214.958018 
L 117.104727 215.292072 
L 117.662727 216.902361 
L 117.814909 217.24731 
L 118.068545 216.403187 
L 118.322182 214.686929 
L 118.575818 213.293063 
L 118.728 213.196235 
L 118.829455 213.308503 
L 119.032364 212.41434 
L 119.488909 210.075892 
L 119.691818 209.578495 
L 119.793273 209.725042 
L 119.945455 210.188644 
L 120.148364 209.42082 
L 120.199091 209.455533 
L 120.351273 209.873244 
L 120.452727 209.789335 
L 120.554182 209.804438 
L 120.706364 210.193546 
L 120.96 211.495665 
L 121.010727 211.437069 
L 121.315091 210.153426 
L 121.467273 210.151204 
L 121.670182 210.751312 
L 122.177455 213.493618 
L 122.583273 215.416862 
L 122.938364 214.998997 
L 123.141273 215.369926 
L 123.851455 217.365127 
L 123.902182 217.260376 
L 124.155818 216.406785 
L 124.308 216.248323 
L 124.561636 214.610967 
L 124.815273 212.877788 
L 124.916727 212.805204 
L 124.967455 212.852966 
L 125.170364 213.402615 
L 125.829818 215.997784 
L 125.931273 215.914339 
L 125.982 215.654986 
L 126.337091 210.87258 
L 126.54 209.370062 
L 126.895091 204.495193 
L 126.996545 204.28813 
L 127.047273 204.346775 
L 127.098 204.417159 
L 127.300909 203.733935 
L 127.402364 204.040652 
L 127.554545 204.591817 
L 127.605273 204.575299 
L 127.757455 204.540099 
L 127.909636 204.94772 
L 128.163273 206.563938 
L 129.380727 215.58621 
L 129.786545 217.091564 
L 129.837273 217.098045 
L 130.344545 215.820548 
L 130.598182 215.19096 
L 130.750364 215.232624 
L 131.004 215.719287 
L 131.663455 217.391265 
L 131.714182 217.344396 
L 132.12 216.589062 
L 132.272182 215.259653 
L 132.779455 210.602416 
L 133.083818 208.731739 
L 133.185273 208.617418 
L 133.236 208.65171 
L 133.388182 209.050978 
L 133.591091 209.544631 
L 133.794 209.167509 
L 134.098364 208.402782 
L 134.250545 208.692528 
L 134.707091 209.976812 
L 135.163636 210.616184 
L 135.569455 209.545327 
L 135.670909 209.458557 
L 136.127455 206.937885 
L 136.178182 207.012416 
L 136.381091 207.896281 
L 136.888364 210.393809 
L 137.243455 211.784747 
L 137.344909 211.741102 
L 137.446364 211.719563 
L 137.547818 211.151551 
L 137.852182 209.317954 
L 137.953636 209.319661 
L 138.663818 210.796481 
L 138.714545 211.004078 
L 138.765273 210.865761 
L 139.120364 208.1405 
L 139.221818 208.110066 
L 139.374 208.514055 
L 139.729091 210.504694 
L 140.134909 212.635551 
L 140.236364 212.723025 
L 140.287091 212.680059 
L 140.642182 212.163187 
L 140.794364 210.387161 
L 141.048 208.365354 
L 141.301636 207.520015 
L 141.403091 207.585053 
L 141.606 208.320014 
L 142.164 211.835474 
L 142.316182 211.598816 
L 142.417636 211.594064 
L 142.569818 211.922425 
L 142.722 212.217613 
L 142.823455 212.10405 
L 142.924909 211.029237 
L 143.28 206.999144 
L 143.432182 206.708956 
L 143.584364 207.147659 
L 143.939455 209.431165 
L 144.243818 211.326071 
L 144.294545 211.3096 
L 144.446727 211.318649 
L 144.649636 211.895746 
L 145.106182 213.955978 
L 145.207636 213.821696 
L 145.613455 212.747648 
L 145.765636 212.724184 
L 145.867091 211.28351 
L 146.171455 205.919441 
L 146.475818 203.785839 
L 146.526545 203.804833 
L 146.729455 204.111777 
L 146.932364 204.966778 
L 147.338182 208.011378 
L 147.541091 209.122094 
L 147.744 209.486377 
L 148.048364 210.85749 
L 148.555636 213.15168 
L 148.758545 213.180621 
L 148.961455 213.515547 
L 149.468727 215.082017 
L 149.722364 215.758689 
L 150.483273 214.367871 
L 150.686182 214.605812 
L 151.092 215.620039 
L 151.903636 217.58653 
L 152.512364 218.453192 
L 152.918182 218.818735 
L 152.968909 218.764685 
L 153.729818 214.759709 
L 153.882 214.825796 
L 154.135636 215.405446 
L 155.251636 218.367632 
L 155.809636 219.116851 
L 155.961818 219.250185 
L 156.012545 219.187524 
L 156.114 218.516377 
L 156.469091 215.682582 
L 156.672 215.465055 
L 156.874909 215.778896 
L 157.483636 217.535946 
L 157.940182 218.594404 
L 158.041636 218.528407 
L 159.005455 216.842651 
L 159.208364 217.028349 
L 159.664909 217.944707 
L 160.375091 219.268496 
L 160.628727 219.590471 
L 160.679455 219.545448 
L 161.136 218.140212 
L 161.237455 218.016932 
L 161.694 216.701185 
L 161.846182 216.826392 
L 162.201273 217.596833 
L 162.252 217.689485 
L 162.302727 217.593794 
L 162.607091 216.66593 
L 162.759273 216.759304 
L 163.063636 217.443816 
L 163.317273 218.043613 
L 163.368 217.967346 
L 163.723091 217.249492 
L 163.875273 217.327704 
L 164.179636 217.867056 
L 165.143455 219.725219 
L 165.701455 220.298144 
L 166.360909 220.661868 
L 166.513091 220.663746 
L 166.868182 219.841391 
L 166.969636 219.384584 
L 167.578364 215.026835 
L 167.882727 214.938 
L 168.034909 214.841697 
L 168.187091 215.048078 
L 168.491455 216.034916 
L 168.948 217.778777 
L 168.998727 217.755386 
L 169.506 213.266249 
L 169.759636 211.913316 
L 169.861091 211.98361 
L 170.064 212.701803 
L 170.723455 216.2446 
L 170.824909 216.048865 
L 170.977091 215.583258 
L 171.18 213.724101 
L 171.636545 203.959424 
L 172.042364 196.009514 
L 172.194545 195.378956 
L 172.296 195.696567 
L 172.498909 197.514098 
L 173.361273 207.266031 
L 173.513455 207.10706 
L 173.868545 206.243577 
L 174.020727 206.053144 
L 174.122182 206.231837 
L 174.172909 206.402573 
L 174.223636 206.327198 
L 174.325091 205.890489 
L 174.477273 203.246268 
L 174.883091 194.959774 
L 175.086 194.208162 
L 175.136727 194.228465 
L 175.288909 194.954019 
L 175.999091 200.520901 
L 176.455636 204.431555 
L 176.557091 204.465309 
L 177.470182 194.475842 
L 177.723818 192.080859 
L 178.028182 189.908106 
L 178.129636 190.210022 
L 178.332545 192.351609 
L 178.636909 195.40999 
L 179.093455 199.307015 
L 179.397818 201.992025 
L 179.55 202.27232 
L 179.803636 203.183906 
L 179.854364 202.925135 
L 180.057273 199.988465 
L 180.463091 194.825351 
L 180.513818 194.770128 
L 180.564545 194.837194 
L 180.666 194.932718 
L 180.818182 194.745821 
L 181.071818 195.091145 
L 181.173273 195.328015 
L 181.325455 196.230625 
L 181.426909 196.052227 
L 181.477636 196.059878 
L 181.579091 196.415497 
L 181.629818 196.736629 
L 181.680545 196.609674 
L 181.934182 194.993579 
L 182.390727 185.978394 
L 182.644364 184.948673 
L 182.745818 185.296499 
L 182.948727 187.334627 
L 183.760364 197.218159 
L 184.064727 199.578353 
L 184.115455 199.565812 
L 184.470545 198.894809 
L 184.825636 196.529115 
L 184.927091 196.768568 
L 184.977818 196.723122 
L 185.282182 195.696238 
L 185.586545 195.003449 
L 185.688 195.171188 
L 185.789455 195.520153 
L 186.093818 193.907574 
L 186.499636 188.901678 
L 186.601091 189.108199 
L 186.804 190.674031 
L 186.956182 191.386406 
L 187.057636 191.396645 
L 187.311273 190.726792 
L 187.514182 191.0656 
L 187.666364 191.600721 
L 187.970727 192.632904 
L 188.173636 192.436383 
L 188.325818 192.556771 
L 188.528727 192.762806 
L 188.630182 192.947359 
L 188.833091 194.128897 
L 189.137455 196.965078 
L 189.238909 196.79439 
L 189.492545 196.244422 
L 189.999818 192.513134 
L 190.101273 192.70916 
L 190.304182 194.113416 
L 190.659273 197.377285 
L 190.71 197.309437 
L 190.912909 196.674934 
L 191.014364 196.864193 
L 191.268 197.854053 
L 191.318727 197.793925 
L 191.572364 197.377544 
L 191.978182 192.292633 
L 192.079636 192.240646 
L 192.282545 192.481292 
L 192.637636 191.937611 
L 192.739091 192.019988 
L 192.891273 192.705715 
L 193.246364 194.849506 
L 193.297091 194.795663 
L 193.550727 194.500572 
L 193.652182 194.258767 
L 193.702909 194.29719 
L 193.855091 194.985432 
L 194.159455 197.894829 
L 194.666727 202.439077 
L 194.869636 202.772231 
L 194.920364 202.904933 
L 194.971091 202.878067 
L 195.123273 202.65808 
L 195.174 202.698435 
L 195.224727 202.750358 
L 195.833455 200.658928 
L 195.985636 200.965767 
L 196.036364 201.064154 
L 196.087091 201.009194 
L 196.239273 200.405192 
L 196.391455 196.948663 
L 196.645091 192.146022 
L 196.949455 190.173306 
L 197.101636 190.01096 
L 197.203091 190.131138 
L 197.355273 190.965116 
L 198.319091 198.374792 
L 198.420545 198.631209 
L 198.471273 198.567269 
L 198.623455 197.099212 
L 199.333636 187.988082 
L 199.384364 187.94036 
L 199.435091 188.010677 
L 199.587273 188.843845 
L 199.942364 191.370255 
L 199.993091 191.406752 
L 200.196 190.784868 
L 200.348182 191.263751 
L 200.652545 192.565447 
L 200.703273 192.48263 
L 200.855455 192.337274 
L 201.261273 192.537798 
L 201.464182 192.461107 
L 201.514909 192.525486 
L 201.565636 192.441995 
L 202.123636 190.31794 
L 202.174364 190.395466 
L 202.326545 190.648141 
L 202.428 190.627667 
L 202.580182 190.352844 
L 202.630909 190.380328 
L 202.783091 191.010942 
L 203.391818 194.682687 
L 203.594727 195.333086 
L 203.746909 195.294569 
L 203.899091 195.864111 
L 204.051273 196.333866 
L 204.457091 195.545642 
L 204.812182 194.063737 
L 204.913636 194.129715 
L 205.065818 194.768173 
L 205.370182 197.406574 
L 205.877455 201.707765 
L 206.942727 209.913069 
L 207.094909 210.161345 
L 207.196364 209.761639 
L 207.551455 207.96237 
L 207.652909 207.621893 
L 207.906545 206.684553 
L 208.008 206.674976 
L 208.109455 206.798196 
L 208.210909 206.323298 
L 208.667455 201.92926 
L 209.124 200.436908 
L 209.174727 200.528693 
L 209.377636 201.569586 
L 209.682 203.241999 
L 209.783455 203.093537 
L 209.935636 202.01336 
L 210.189273 200.386483 
L 210.290727 200.445526 
L 211.051636 202.441201 
L 211.406727 202.064975 
L 211.558909 202.459123 
L 211.609636 202.656126 
L 211.660364 202.601875 
L 211.863273 202.283597 
L 212.015455 202.651594 
L 212.319818 204.45195 
L 212.522727 205.361947 
L 212.827091 204.807472 
L 212.877818 204.884248 
L 212.979273 205.024092 
L 213.385091 202.254347 
L 213.537273 200.962486 
L 213.790909 199.378614 
L 213.993818 199.273086 
L 214.044545 199.273258 
L 214.196727 198.910073 
L 214.247455 198.959799 
L 214.856182 200.036278 
L 215.008364 200.693294 
L 215.464909 198.069442 
L 215.566364 198.160376 
L 215.718545 196.999362 
L 215.921455 196.165667 
L 216.022909 196.108422 
L 216.225818 195.084717 
L 216.479455 193.995843 
L 216.530182 193.989438 
L 216.733091 193.409248 
L 216.783818 193.459007 
L 217.037455 194.384684 
L 217.341818 195.662575 
L 217.392545 195.656595 
L 217.849091 192.810957 
L 218.102727 190.531396 
L 218.204182 190.744928 
L 218.559273 192.134296 
L 218.711455 192.760587 
L 219.015818 194.098003 
L 219.573818 195.325675 
L 219.878182 194.3492 
L 219.928909 194.419063 
L 220.334727 196.05972 
L 220.486909 196.861677 
L 220.537636 196.692623 
L 220.842 194.81742 
L 220.892727 194.867402 
L 221.044909 194.602075 
L 221.247818 194.750589 
L 221.349273 194.943361 
L 221.450727 195.443564 
L 221.501455 195.183219 
L 221.602909 194.914107 
L 221.704364 195.258527 
L 221.958 197.609948 
L 222.871091 207.45445 
L 223.074 207.628832 
L 223.124727 207.559078 
L 223.378364 207.264461 
L 223.530545 207.464617 
L 223.784182 208.325149 
L 225.255273 214.353223 
L 225.559636 214.97396 
L 225.711818 214.539829 
L 225.965455 213.970178 
L 226.219091 213.782445 
L 226.523455 212.647188 
L 226.675636 212.611731 
L 226.878545 212.935164 
L 226.98 213.083188 
L 227.335091 212.329741 
L 227.385818 212.350898 
L 227.588727 212.697362 
L 227.740909 212.866771 
L 227.994545 212.663966 
L 228.146727 212.829032 
L 228.501818 213.437082 
L 228.552545 213.397913 
L 228.704727 213.232454 
L 229.110545 211.941317 
L 229.262727 212.13691 
L 229.567091 213.087717 
L 230.175818 215.255862 
L 230.277273 214.682141 
L 230.784545 211.237929 
L 230.886 211.19117 
L 231.038182 211.464008 
L 231.393273 212.887249 
L 231.951273 215.178235 
L 232.357091 214.484428 
L 232.407818 214.527313 
L 232.56 214.723087 
L 232.610727 214.663405 
L 232.915091 214.126654 
L 233.067273 214.231279 
L 233.168727 214.38843 
L 233.270182 213.691627 
L 233.574545 211.583585 
L 233.676 211.501698 
L 233.726727 211.543778 
L 233.929636 212.080375 
L 234.132545 212.804473 
L 234.183273 212.735207 
L 234.386182 212.46502 
L 234.639818 212.705359 
L 234.690545 212.602484 
L 234.893455 212.419629 
L 235.045636 212.668976 
L 235.197818 213.083521 
L 235.248545 213.042306 
L 235.35 212.730364 
L 235.654364 211.46848 
L 235.755818 211.456649 
L 235.958727 211.860393 
L 236.060182 211.672219 
L 236.263091 211.492073 
L 236.466 211.884787 
L 236.516727 211.762628 
L 236.719636 211.335659 
L 236.871818 211.301264 
L 237.074727 209.605102 
L 237.480545 206.790543 
L 237.582 206.888745 
L 237.784909 207.763108 
L 238.647273 212.394811 
L 238.799455 212.576949 
L 239.205273 211.514579 
L 239.306727 211.607322 
L 239.509636 212.161672 
L 239.814 213.433118 
L 239.864727 213.35491 
L 240.676364 208.467533 
L 240.727091 208.478028 
L 241.031455 208.883683 
L 241.335818 208.10026 
L 241.488 208.456434 
L 241.792364 210.149291 
L 242.046 211.118736 
L 242.248909 211.360079 
L 242.502545 210.482812 
L 242.654727 210.839784 
L 243.060545 212.886677 
L 243.770727 216.186317 
L 244.278 217.577774 
L 244.430182 217.806747 
L 245.038909 212.929837 
L 245.241818 212.616522 
L 245.394 212.882464 
L 245.749091 214.235811 
L 246.002727 215.068299 
L 246.104182 214.829213 
L 246.763636 212.548429 
L 246.915818 212.639259 
L 247.169455 213.340299 
L 248.488364 217.863833 
L 248.944909 218.623095 
L 249.046364 218.536239 
L 249.147818 218.047409 
L 249.350727 214.985676 
L 249.756545 209.822873 
L 249.908727 209.592148 
L 250.314545 210.297297 
L 250.618909 211.612584 
L 250.821818 212.410383 
L 250.872545 212.399148 
L 251.024727 212.496369 
L 251.582727 213.341732 
L 251.836364 212.540599 
L 251.937818 212.615187 
L 252.140727 213.213412 
L 252.292909 213.720373 
L 252.546545 212.689337 
L 252.648 212.793013 
L 252.901636 213.674685 
L 253.307455 215.390738 
L 253.358182 215.287638 
L 253.662545 213.339161 
L 254.068364 213.040736 
L 254.169818 213.103723 
L 254.423455 212.509386 
L 254.727818 211.410776 
L 254.829273 211.52914 
L 255.082909 212.494725 
L 255.488727 214.103842 
L 255.691636 214.157533 
L 255.894545 214.524726 
L 256.401818 216.168182 
L 256.503273 216.455897 
L 256.554 216.415244 
L 256.909091 215.635509 
L 257.061273 215.709905 
L 257.314909 216.194047 
L 258.380182 218.668291 
L 258.532364 218.406786 
L 258.887455 217.410157 
L 259.242545 214.695328 
L 259.394727 214.576262 
L 259.546909 214.819969 
L 259.902 215.446875 
L 260.155636 215.597814 
L 260.46 216.230683 
L 261.322364 218.515697 
L 261.423818 217.829362 
L 261.829636 214.403135 
L 262.032545 214.083385 
L 262.184727 213.902988 
L 262.286182 213.741887 
L 262.590545 212.26994 
L 262.692 212.309844 
L 262.894909 212.904713 
L 264.112364 218.169833 
L 264.163091 217.976406 
L 264.467455 216.988098 
L 264.619636 216.982011 
L 264.873273 217.354672 
L 265.380545 218.42453 
L 265.431273 218.378774 
L 265.786364 217.835437 
L 265.989273 217.945504 
L 266.344364 218.219234 
L 266.750182 217.947594 
L 267.003818 218.137342 
L 267.612545 219.077516 
L 268.170545 219.820011 
L 268.272 219.481457 
L 268.576364 218.261776 
L 268.779273 218.199062 
L 268.83 218.218477 
L 269.286545 216.889061 
L 269.438727 217.029883 
L 269.793818 217.814568 
L 270.301091 218.93936 
L 270.757636 217.937198 
L 270.859091 218.021084 
L 271.264909 216.083157 
L 271.417091 216.316833 
L 271.670727 217.027779 
L 271.721455 216.999138 
L 272.228727 215.291321 
L 272.482364 214.382454 
L 272.583818 214.400451 
L 272.736 214.577868 
L 273.141818 211.921432 
L 273.192545 211.944419 
L 273.344727 212.334023 
L 273.496909 212.802439 
L 273.547636 212.737235 
L 273.699818 212.638823 
L 273.852 212.919294 
L 274.156364 214.225097 
L 274.460727 215.373743 
L 274.866545 215.92122 
L 275.373818 217.325558 
L 276.084 219.062705 
L 276.134727 219.139885 
L 276.185455 219.09498 
L 276.591273 218.319559 
L 276.794182 218.427424 
L 277.301455 219.157619 
L 278.011636 220.03245 
L 278.671091 220.47996 
L 279.026182 220.554931 
L 279.229091 219.558205 
L 279.584182 217.903189 
L 279.787091 217.713183 
L 279.888545 217.6787 
L 280.294364 216.85264 
L 280.446545 216.976272 
L 280.750909 217.644465 
L 281.106 218.468484 
L 281.207455 217.931278 
L 281.511818 216.03793 
L 281.664 215.862734 
L 281.714727 215.883392 
L 282.069818 214.6409 
L 282.272727 214.963636 
L 282.932182 211.442052 
L 283.084364 211.730072 
L 283.236545 212.304579 
L 283.287273 212.26308 
L 283.439455 211.778329 
L 283.642364 211.187744 
L 283.794545 211.314147 
L 284.200364 207.904091 
L 284.301818 208.016445 
L 284.504727 208.998744 
L 285.265636 213.460113 
L 285.874364 215.868394 
L 286.026545 215.779938 
L 286.128 215.651019 
L 286.432364 213.3374 
L 286.533818 213.297666 
L 286.686 213.610926 
L 287.091818 215.29684 
L 287.497636 216.839539 
L 287.700545 216.588874 
L 288.055636 214.704697 
L 288.157091 214.684666 
L 288.309273 214.935355 
L 288.715091 216.302261 
L 289.171636 217.721207 
L 289.780364 216.125469 
L 289.983273 214.731927 
L 290.287636 213.166421 
L 290.541273 212.52674 
L 290.642727 212.613205 
L 290.845636 213.212295 
L 292.316727 218.81809 
L 292.418182 218.7936 
L 292.824 217.870202 
L 293.331273 213.991329 
L 293.483455 214.019708 
L 293.686364 214.506186 
L 294.599455 217.792923 
L 294.650182 217.672634 
L 294.954545 216.93094 
L 295.106727 216.980698 
L 295.360364 217.423777 
L 295.563273 217.892025 
L 295.614 217.800705 
L 295.969091 216.743229 
L 296.121273 216.811222 
L 296.425636 217.414455 
L 296.577818 217.736845 
L 296.983636 216.480265 
L 297.135818 216.63247 
L 297.338727 216.804908 
L 297.440182 216.395416 
L 297.643091 212.978301 
L 298.048909 204.920502 
L 298.353273 203.470218 
L 298.454727 203.640852 
L 298.657636 204.884577 
L 299.266364 210.412208 
L 299.367818 210.28772 
L 299.469273 210.261734 
L 299.621455 210.596695 
L 299.925818 211.337651 
L 300.078 211.510825 
L 300.331636 210.768531 
L 300.382364 210.795342 
L 300.534545 211.211282 
L 300.940364 213.388674 
L 301.396909 215.379887 
L 301.549091 215.552887 
L 301.701273 214.658346 
L 301.904182 213.985849 
L 302.005636 214.025879 
L 302.208545 214.285148 
L 302.259273 214.249702 
L 302.360727 214.181669 
L 302.462182 213.396705 
L 302.868 210.349749 
L 303.070909 209.595791 
L 303.172364 209.690058 
L 303.375273 210.465166 
L 304.846364 217.781013 
L 305.353636 218.802683 
L 305.810182 219.332966 
L 305.860909 219.311376 
L 306.418909 217.89779 
L 306.621818 218.024932 
L 307.179818 218.808272 
L 307.585636 219.289753 
L 307.737818 218.770282 
L 308.701636 214.726131 
L 308.752364 214.743805 
L 308.904545 214.996938 
L 309.208909 215.487078 
L 309.462545 215.548408 
L 309.817636 214.566592 
L 309.969818 214.704242 
L 310.274182 215.592682 
L 310.730727 217.246981 
L 310.781455 217.164623 
L 311.136545 214.313013 
L 311.339455 213.863667 
L 311.491636 214.102027 
L 311.593091 214.412087 
L 311.643818 214.358802 
L 311.948182 212.911716 
L 312.049636 212.945679 
L 312.252545 213.489635 
L 313.013455 216.661174 
L 313.114909 216.44768 
L 313.317818 216.251322 
L 313.419273 216.148482 
L 313.571455 215.414778 
L 313.977273 213.469885 
L 314.180182 212.91527 
L 314.281636 212.935149 
L 314.535273 213.143963 
L 314.687455 213.169527 
L 314.890364 213.560612 
L 315.194727 214.268137 
L 315.397636 214.356593 
L 315.651273 214.899505 
L 317.122364 218.998236 
L 317.274545 219.189219 
L 317.426727 218.643366 
L 317.731091 217.740895 
L 317.934 217.504615 
L 318.390545 215.894703 
L 318.593455 215.788249 
L 318.796364 216.072867 
L 319.05 216.580924 
L 319.303636 214.444554 
L 319.810909 209.077078 
L 319.912364 209.009251 
L 320.064545 209.41436 
L 320.419636 211.273126 
L 320.521091 211.148438 
L 321.079091 210.402696 
L 321.332727 209.378082 
L 321.434182 209.4015 
L 321.941455 210.524137 
L 322.296545 211.598574 
L 322.448727 211.755071 
L 322.702364 212.673987 
L 323.412545 215.634164 
L 323.615455 215.700163 
L 323.869091 216.109213 
L 324.274909 216.865046 
L 324.731455 216.737532 
L 325.035818 217.141875 
L 325.441636 217.905025 
L 325.492364 217.856337 
L 325.898182 216.883281 
L 326.050364 216.927763 
L 326.354727 217.379594 
L 326.608364 217.708056 
L 327.115636 217.303645 
L 327.369273 217.561841 
L 327.572182 217.732481 
L 327.673636 217.245105 
L 328.028727 215.017842 
L 328.180909 214.326849 
L 328.891091 210.678117 
L 329.246182 209.669782 
L 329.347636 209.700001 
L 329.499818 210.128814 
L 329.854909 212.096886 
L 330.412909 215.082962 
L 330.920182 215.751884 
L 330.970909 215.851618 
L 331.681091 213.498241 
L 331.833273 213.709675 
L 332.137636 214.745899 
L 332.898545 217.464754 
L 333.507273 215.339319 
L 333.659455 215.293457 
L 333.963818 215.499806 
L 334.166727 215.419379 
L 334.369636 215.656012 
L 334.775455 216.705921 
L 335.536364 218.623905 
L 336.094364 219.443332 
L 336.246545 219.570901 
L 336.348 219.284923 
L 336.500182 217.464949 
L 336.804545 214.432096 
L 337.007455 214.045637 
L 337.159636 214.096308 
L 337.565455 212.950425 
L 337.616182 212.976756 
L 337.768364 213.269502 
L 338.275636 214.551994 
L 338.427818 214.078623 
L 338.529273 213.449135 
L 338.782909 211.861465 
L 339.188727 211.102002 
L 339.543818 209.958844 
L 339.645273 210.066274 
L 340.203273 211.642918 
L 340.710545 214.108569 
L 341.37 217.001801 
L 341.471455 216.68276 
L 341.725091 215.995623 
L 341.877273 216.059452 
L 342.384545 216.58129 
L 342.638182 216.853416 
L 342.739636 217.010091 
L 342.790364 216.972264 
L 343.196182 216.368768 
L 343.449818 216.372122 
L 343.703455 215.470964 
L 344.210727 213.719232 
L 344.362909 213.94866 
L 344.971636 215.304468 
L 345.174545 215.283338 
L 345.377455 214.288997 
L 345.681818 213.3065 
L 345.884727 213.00263 
L 346.036909 213.163552 
L 346.290545 213.927631 
L 346.848545 216.086497 
L 346.899273 216.05559 
L 347.102182 215.9812 
L 347.152909 215.974166 
L 347.558727 215.000744 
L 347.761636 215.33418 
L 348.522545 217.279455 
L 348.573273 217.120065 
L 348.877636 215.479371 
L 349.029818 215.404976 
L 349.232727 215.727252 
L 349.334182 215.835398 
L 349.689273 215.508478 
L 349.892182 215.803667 
L 350.399455 217.231783 
L 351.058909 218.819859 
L 351.515455 219.435867 
L 351.718364 218.466454 
L 352.732909 211.275721 
L 352.834364 211.310823 
L 353.037273 211.96088 
L 353.290909 213.246922 
L 353.341636 213.069071 
L 353.544545 212.531547 
L 353.848909 211.885944 
L 354.102545 211.243961 
L 354.254727 211.569523 
L 354.812727 213.293166 
L 354.914182 213.528156 
L 354.964909 213.468266 
L 355.472182 211.925053 
L 355.573636 211.939463 
L 355.725818 212.299921 
L 356.131636 214.167878 
L 356.740364 216.771456 
L 356.892545 216.507703 
L 357.095455 216.277933 
L 357.247636 216.381504 
L 357.552 216.959545 
L 358.211455 218.415743 
L 358.262182 218.344216 
L 358.668 214.826918 
L 358.820182 214.758202 
L 358.870909 214.809882 
L 358.921636 214.706025 
L 359.175273 213.971684 
L 359.327455 213.856093 
L 359.581091 213.585069 
L 359.733273 213.784001 
L 360.037636 214.752672 
L 360.291273 215.530451 
L 360.342 215.504466 
L 360.798545 214.113413 
L 360.849273 214.13961 
L 361.052182 214.538909 
L 361.356545 215.195614 
L 361.610182 215.21936 
L 361.813091 215.541716 
L 362.320364 216.974853 
L 362.878364 218.374033 
L 363.030545 218.1522 
L 363.334909 217.703302 
L 363.588545 217.539417 
L 363.740727 216.999828 
L 364.095818 215.643146 
L 364.248 215.63771 
L 364.450909 215.978557 
L 365.262545 218.183991 
L 365.364 217.979495 
L 365.566909 216.077756 
L 365.820545 213.657688 
L 366.175636 212.416162 
L 366.277091 212.511008 
L 366.48 213.164854 
L 367.849636 218.695871 
L 367.900364 218.799322 
L 367.951091 218.659831 
L 368.509091 215.773848 
L 368.559818 215.793591 
L 368.762727 216.138869 
L 368.965636 216.577891 
L 369.422182 213.471501 
L 369.574364 213.745127 
L 370.081636 215.225627 
L 370.284545 213.445518 
L 370.741091 209.909261 
L 370.842545 210.022672 
L 371.045455 210.867234 
L 371.299091 212.358782 
L 371.349818 212.302576 
L 371.502 212.077472 
L 371.654182 212.269586 
L 371.704909 212.185122 
L 371.907818 211.999129 
L 372.06 212.2938 
L 372.110727 212.449368 
L 372.161455 212.368064 
L 372.364364 211.805796 
L 372.465818 211.920227 
L 372.719455 212.888056 
L 373.429636 216.159571 
L 373.531091 215.973282 
L 373.581818 215.795582 
L 373.581818 215.795582 
" style="fill:none;stroke:#000000;stroke-linecap:square;stroke-width:1.5;"/>
   </g>
   <g id="line2d_15">
    <path clip-path="url(#pe658668ba1)" d="M 69.218182 191.1168 
L 69.370364 213.695261 
L 69.573273 215.067263 
L 69.826909 215.034604 
L 69.979091 215.321476 
L 70.334182 213.736621 
L 70.384909 213.755007 
L 70.537091 214.135223 
L 70.942909 216.233983 
L 71.602364 219.404881 
L 72.058909 220.695288 
L 72.109636 220.736411 
L 72.160364 220.673217 
L 72.363273 219.016508 
L 72.616909 217.75493 
L 72.769091 217.633923 
L 72.921273 217.796912 
L 73.276364 218.672773 
L 73.479273 219.003391 
L 73.580727 218.75781 
L 73.986545 217.345371 
L 74.138727 217.385138 
L 74.392364 217.868246 
L 74.544545 218.107278 
L 74.950364 217.841447 
L 75.153273 218.098468 
L 75.204 218.194829 
L 75.254727 218.07369 
L 75.711273 215.819858 
L 75.863455 215.846054 
L 76.066364 216.293696 
L 76.370727 217.163226 
L 76.421455 217.093918 
L 76.675091 216.809398 
L 76.827273 216.985115 
L 77.030182 217.436116 
L 77.080909 217.371356 
L 77.537455 214.76611 
L 77.689636 214.987671 
L 78.044727 216.315151 
L 78.399818 217.561721 
L 78.754909 217.259738 
L 78.957818 217.565226 
L 79.262182 218.287492 
L 79.312909 218.187708 
L 79.769455 215.998716 
L 79.921636 216.044633 
L 80.175273 216.60601 
L 81.342 219.776871 
L 81.392727 219.826847 
L 81.494182 219.450679 
L 81.9 216.110875 
L 82.052182 216.015837 
L 82.255091 216.375441 
L 82.407273 216.70772 
L 82.458 216.66446 
L 82.711636 216.382726 
L 82.863818 216.506577 
L 83.168182 217.188854 
L 84.132 219.567179 
L 84.436364 219.968658 
L 84.994364 218.317265 
L 85.197273 218.497729 
L 85.958182 219.773066 
L 86.059636 219.548689 
L 86.414727 218.450579 
L 86.617636 218.416911 
L 86.871273 218.71769 
L 87.530727 219.712051 
L 87.733636 218.606299 
L 87.987273 217.613301 
L 88.190182 217.510345 
L 88.393091 217.767027 
L 88.596 217.988734 
L 88.798909 217.824573 
L 89.204727 215.077332 
L 89.306182 215.120935 
L 89.407636 214.698265 
L 89.864182 211.293853 
L 89.965636 211.436306 
L 90.371455 212.368404 
L 90.726545 212.797675 
L 90.828 212.854537 
L 90.929455 212.353231 
L 91.183091 211.152325 
L 91.284545 211.169657 
L 91.436727 211.576126 
L 91.791818 213.426758 
L 92.248364 215.738092 
L 92.552727 215.587924 
L 92.755636 215.925214 
L 92.958545 216.466643 
L 93.009273 216.444802 
L 93.364364 215.957434 
L 93.567273 216.220076 
L 93.719455 216.474264 
L 93.770182 216.444638 
L 94.074545 216.249912 
L 94.176 216.26406 
L 94.581818 215.41073 
L 94.784727 215.692902 
L 94.987636 215.777884 
L 95.190545 215.672706 
L 95.545636 212.970515 
L 95.900727 210.507343 
L 96.002182 210.423404 
L 96.052909 210.473084 
L 96.255818 211.1121 
L 96.357273 211.443476 
L 96.864545 209.770458 
L 97.016727 209.342816 
L 97.219636 209.024437 
L 97.371818 209.336226 
L 97.777636 210.719805 
L 97.828364 210.69973 
L 97.929818 209.96553 
L 98.183455 208.264992 
L 98.284909 208.30752 
L 98.487818 209.143663 
L 98.944364 211.408181 
L 99.147273 211.91791 
L 99.654545 214.157675 
L 99.756 214.054183 
L 99.908182 214.012277 
L 100.060364 214.228924 
L 100.415455 215.348662 
L 100.872 216.748288 
L 101.176364 216.502987 
L 101.277818 215.19282 
L 101.582182 211.016787 
L 101.886545 210.125409 
L 102.038727 209.95538 
L 102.190909 210.278651 
L 102.495273 211.803323 
L 103.408364 216.654351 
L 103.915636 218.139237 
L 104.422909 218.982161 
L 104.828727 219.361976 
L 104.980909 218.86032 
L 105.285273 217.049761 
L 105.589636 214.594159 
L 105.843273 213.308415 
L 105.944727 212.983264 
L 106.299818 210.992203 
L 106.604182 209.509288 
L 106.654909 209.538114 
L 106.807091 209.986859 
L 107.162182 211.235477 
L 107.466545 210.892757 
L 107.517273 210.946993 
L 107.720182 211.529281 
L 108.227455 214.143122 
L 108.886909 217.060361 
L 109.394182 218.379281 
L 109.647818 218.723993 
L 110.104364 216.763481 
L 110.358 215.639332 
L 110.510182 215.544812 
L 110.611636 215.594194 
L 111.220364 213.755775 
L 111.524727 211.435588 
L 111.626182 211.371095 
L 111.778364 211.709814 
L 112.032 212.580596 
L 112.082727 212.50174 
L 112.184182 212.124526 
L 112.691455 208.338212 
L 112.742182 208.357928 
L 112.894364 208.873756 
L 112.995818 209.439909 
L 113.046545 209.378051 
L 113.148 209.223674 
L 113.198727 209.261495 
L 113.350909 209.753851 
L 113.756727 212.30602 
L 113.858182 211.931626 
L 114.010364 211.562821 
L 114.162545 211.970029 
L 114.669818 214.714663 
L 115.075636 216.282766 
L 115.430727 216.001575 
L 115.633636 215.597755 
L 115.988727 213.57231 
L 116.090182 213.571875 
L 116.293091 214.006343 
L 116.648182 214.9723 
L 116.901818 214.958018 
L 117.104727 215.292072 
L 117.662727 216.902361 
L 117.814909 217.24731 
L 118.068545 216.403187 
L 118.322182 214.686929 
L 118.575818 213.293063 
L 118.728 213.196235 
L 118.829455 213.308503 
L 119.032364 212.41434 
L 119.488909 210.075892 
L 119.691818 209.578495 
L 119.793273 209.725042 
L 119.945455 210.188644 
L 120.148364 209.42082 
L 120.199091 209.455533 
L 120.351273 209.873244 
L 120.452727 209.789335 
L 120.554182 209.804438 
L 120.706364 210.193546 
L 120.96 211.495665 
L 121.010727 211.437069 
L 121.315091 210.153426 
L 121.467273 210.151204 
L 121.670182 210.751312 
L 122.177455 213.493618 
L 122.583273 215.416862 
L 122.938364 214.998997 
L 123.141273 215.369926 
L 123.851455 217.365127 
L 123.902182 217.260376 
L 124.155818 216.406785 
L 124.308 216.248323 
L 124.561636 214.610967 
L 124.815273 212.877788 
L 124.916727 212.805204 
L 124.967455 212.852966 
L 125.170364 213.402615 
L 125.829818 215.997784 
L 125.931273 215.914339 
L 125.982 215.654986 
L 126.337091 210.87258 
L 126.54 209.370062 
L 126.895091 204.495193 
L 126.996545 204.28813 
L 127.047273 204.346775 
L 127.098 204.417159 
L 127.300909 203.733935 
L 127.402364 204.040652 
L 127.554545 204.591817 
L 127.605273 204.575299 
L 127.757455 204.540099 
L 127.909636 204.94772 
L 128.163273 206.563938 
L 129.380727 215.58621 
L 129.786545 217.091564 
L 129.837273 217.098045 
L 130.344545 215.820548 
L 130.598182 215.19096 
L 130.750364 215.232624 
L 131.004 215.719287 
L 131.663455 217.391265 
L 131.714182 217.344396 
L 132.12 216.589062 
L 132.272182 215.259653 
L 132.779455 210.602416 
L 133.083818 208.731739 
L 133.185273 208.617418 
L 133.236 208.65171 
L 133.388182 209.050978 
L 133.591091 209.544631 
L 133.794 209.167509 
L 134.098364 208.402782 
L 134.250545 208.692528 
L 134.707091 209.976812 
L 135.163636 210.616184 
L 135.569455 209.545327 
L 135.670909 209.458557 
L 136.127455 206.937885 
L 136.178182 207.012416 
L 136.381091 207.896281 
L 136.888364 210.393809 
L 137.243455 211.784747 
L 137.344909 211.741102 
L 137.446364 211.719563 
L 137.547818 211.151551 
L 137.852182 209.317954 
L 137.953636 209.319661 
L 138.663818 210.796481 
L 138.714545 211.004078 
L 138.765273 210.865761 
L 139.120364 208.1405 
L 139.221818 208.110066 
L 139.374 208.514055 
L 139.729091 210.504694 
L 140.134909 212.635551 
L 140.236364 212.723025 
L 140.287091 212.678797 
L 140.642182 212.140706 
L 140.794364 210.35181 
L 141.048 208.304796 
L 141.301636 207.431332 
L 141.403091 207.484692 
L 141.606 208.196463 
L 142.164 211.655186 
L 142.316182 211.403991 
L 142.417636 211.389518 
L 142.569818 211.703812 
L 142.722 211.985414 
L 142.823455 211.862435 
L 142.924909 210.7771 
L 143.28 206.700926 
L 143.432182 206.3904 
L 143.584364 206.81016 
L 143.939455 209.057353 
L 144.243818 210.930126 
L 144.294545 210.910009 
L 144.446727 210.90778 
L 144.598909 211.281909 
L 145.106182 213.507484 
L 145.207636 213.367694 
L 145.613455 212.25986 
L 145.765636 212.222219 
L 145.867091 210.769206 
L 146.171455 205.344107 
L 146.475818 203.145489 
L 146.526545 203.154698 
L 146.729455 203.426307 
L 146.932364 204.251619 
L 147.338182 207.26152 
L 147.541091 208.366758 
L 147.744 208.725898 
L 148.048364 210.09493 
L 148.555636 212.399202 
L 148.758545 212.427228 
L 148.961455 212.758985 
L 149.418 214.155683 
L 149.722364 215.000205 
L 150.483273 213.575914 
L 150.686182 213.802017 
L 151.092 214.80195 
L 151.903636 216.767551 
L 152.461636 217.580272 
L 152.918182 217.998904 
L 152.968909 217.944226 
L 153.729818 213.872017 
L 153.882 213.923947 
L 154.135636 214.48739 
L 155.251636 217.449443 
L 155.809636 218.205991 
L 155.961818 218.340342 
L 156.012545 218.277604 
L 156.114 217.603369 
L 156.469091 214.732395 
L 156.672 214.49468 
L 156.824182 214.687869 
L 157.23 215.792393 
L 157.940182 217.61152 
L 158.041636 217.546972 
L 159.056182 215.836638 
L 159.309818 216.159319 
L 160.628727 218.580738 
L 160.679455 218.536907 
L 161.136 217.118825 
L 161.237455 216.991824 
L 161.694 215.643833 
L 161.846182 215.760692 
L 162.150545 216.396999 
L 162.252 216.617656 
L 162.302727 216.521767 
L 162.607091 215.583574 
L 162.759273 215.673439 
L 163.063636 216.358687 
L 163.317273 216.965051 
L 163.368 216.889515 
L 163.723091 216.165308 
L 163.875273 216.240745 
L 164.179636 216.780095 
L 165.143455 218.669881 
L 165.701455 219.260806 
L 166.360909 219.637623 
L 166.513091 219.641301 
L 166.868182 218.811561 
L 166.969636 218.349862 
L 167.578364 213.916007 
L 167.882727 213.800092 
L 168.034909 213.69177 
L 168.187091 213.889341 
L 168.491455 214.871987 
L 168.948 216.637536 
L 168.998727 216.617191 
L 169.455273 212.657256 
L 169.708909 210.781419 
L 169.810364 210.696842 
L 169.962545 211.038213 
L 170.317636 212.847043 
L 170.723455 215.041253 
L 170.774182 214.973271 
L 171.027818 214.087499 
L 171.230727 211.631846 
L 172.093091 194.053572 
L 172.194545 193.747317 
L 172.245273 193.818238 
L 172.397455 194.726294 
L 172.752545 199.163796 
L 173.209091 204.489787 
L 173.361273 205.588442 
L 173.462727 205.572441 
L 174.020727 204.473525 
L 174.071455 204.534221 
L 174.172909 204.831973 
L 174.223636 204.759275 
L 174.325091 204.32474 
L 174.477273 201.665488 
L 174.883091 193.229427 
L 175.136727 192.399883 
L 175.238182 192.748446 
L 175.897636 197.657387 
L 176.557091 202.662362 
L 177.419455 193.490417 
L 177.673091 190.330391 
L 177.876 189.082869 
L 178.028182 187.802943 
L 178.078909 187.846655 
L 178.231091 188.928132 
L 178.839818 194.665844 
L 179.194909 198.398659 
L 179.397818 199.960746 
L 179.600727 200.475774 
L 179.803636 201.27064 
L 179.905091 200.520242 
L 180.209455 195.60257 
L 180.463091 192.88346 
L 180.513818 192.816649 
L 180.564545 192.8728 
L 180.666 192.948238 
L 180.818182 192.731315 
L 180.970364 193.090853 
L 181.071818 193.041593 
L 181.173273 193.267988 
L 181.325455 194.162472 
L 181.426909 193.980876 
L 181.477636 193.986802 
L 181.579091 194.341681 
L 181.629818 194.66422 
L 181.680545 194.539447 
L 181.934182 192.922432 
L 182.390727 183.773894 
L 182.644364 182.638213 
L 182.745818 182.943855 
L 182.948727 184.914944 
L 183.811091 195.394166 
L 184.115455 197.409267 
L 184.470545 196.849096 
L 184.825636 194.517057 
L 184.927091 194.759878 
L 184.977818 194.716426 
L 185.231455 193.932314 
L 185.485091 193.212471 
L 185.586545 192.975228 
L 185.637273 193.004 
L 185.789455 193.482654 
L 185.840182 193.231918 
L 186.195273 189.987625 
L 186.448909 186.836439 
L 186.499636 186.718513 
L 186.550364 186.741538 
L 186.702545 187.501929 
L 186.956182 189.094814 
L 187.057636 189.092761 
L 187.311273 188.396881 
L 187.514182 188.721766 
L 187.666364 189.248736 
L 187.970727 190.421498 
L 188.224364 190.277194 
L 188.325818 190.348665 
L 188.478 190.506516 
L 188.579455 190.556953 
L 188.731636 191.122957 
L 188.985273 193.292601 
L 189.137455 194.705583 
L 189.188182 194.669512 
L 189.543273 193.614117 
L 189.999818 190.305448 
L 190.101273 190.49161 
L 190.304182 191.890465 
L 190.659273 195.208963 
L 190.71 195.152167 
L 190.912909 194.547691 
L 191.014364 194.749824 
L 191.268 195.781885 
L 191.318727 195.729393 
L 191.572364 195.338762 
L 191.978182 190.185338 
L 192.079636 190.110617 
L 192.282545 190.315693 
L 192.637636 189.710233 
L 192.739091 189.775391 
L 192.891273 190.442824 
L 193.246364 192.597152 
L 193.297091 192.547995 
L 193.550727 192.27357 
L 193.652182 192.037945 
L 193.702909 192.079932 
L 193.855091 192.784228 
L 194.159455 195.761145 
L 194.666727 200.514667 
L 194.971091 201.063744 
L 195.021818 200.970422 
L 195.123273 200.887795 
L 195.224727 201.049276 
L 195.275455 200.924694 
L 195.732 199.664297 
L 195.833455 199.678703 
L 196.036364 200.143055 
L 196.087091 200.052161 
L 196.239273 199.278076 
L 196.391455 195.629816 
L 196.645091 190.54838 
L 196.949455 188.338148 
L 197.152364 188.076219 
L 197.253818 188.323031 
L 197.456727 189.832722 
L 197.964 194.09432 
L 198.369818 196.522366 
L 198.420545 196.644823 
L 198.471273 196.591927 
L 198.623455 195.148898 
L 199.384364 185.875088 
L 199.485818 186.101483 
L 199.688727 187.663803 
L 199.942364 189.23397 
L 199.993091 189.269479 
L 200.196 188.635203 
L 200.297455 188.892065 
L 200.652545 190.406034 
L 200.703273 190.324864 
L 200.855455 190.184511 
L 201.261273 190.403652 
L 201.565636 190.287523 
L 202.072909 188.087636 
L 202.174364 188.15041 
L 202.326545 188.426533 
L 202.428 188.420905 
L 202.580182 188.165246 
L 202.630909 188.198573 
L 202.783091 188.849045 
L 203.391818 192.664936 
L 203.594727 193.371253 
L 203.746909 193.366502 
L 203.899091 193.968454 
L 204.051273 194.473319 
L 204.406364 194.037698 
L 204.812182 192.289342 
L 204.913636 192.359386 
L 205.065818 193.006603 
L 205.370182 195.684356 
L 205.928182 200.56358 
L 206.942727 208.704799 
L 207.094909 208.997525 
L 207.196364 208.622012 
L 207.551455 206.864976 
L 207.652909 206.52888 
L 207.906545 205.591325 
L 208.008 205.581108 
L 208.109455 205.704792 
L 208.210909 205.229501 
L 208.667455 200.789281 
L 209.124 199.249819 
L 209.174727 199.338029 
L 209.377636 200.372599 
L 209.682 202.058124 
L 209.783455 201.914519 
L 209.935636 200.83682 
L 210.189273 199.201678 
L 210.290727 199.25764 
L 210.493636 199.866359 
L 210.544364 199.849468 
L 210.696545 199.840815 
L 211.051636 200.520305 
L 211.102364 200.469564 
L 211.305273 200.175378 
L 211.406727 200.338203 
L 211.609636 201.176347 
L 211.711091 200.975074 
L 211.863273 200.758739 
L 211.964727 200.922672 
L 212.167636 201.846474 
L 212.522727 203.804631 
L 212.573455 203.709818 
L 212.776364 203.2732 
L 212.877818 203.390352 
L 212.979273 203.552735 
L 213.385091 200.853468 
L 213.537273 199.58069 
L 213.790909 198.20496 
L 213.943091 198.317227 
L 214.044545 198.432579 
L 214.196727 198.206482 
L 214.856182 199.526343 
L 215.008364 200.178435 
L 215.464909 197.464315 
L 215.515636 197.535966 
L 215.566364 197.532011 
L 215.718545 196.331838 
L 215.921455 195.441725 
L 216.022909 195.357267 
L 216.276545 193.903805 
L 216.479455 193.104004 
L 216.530182 193.081988 
L 216.733091 192.440808 
L 216.783818 192.47667 
L 216.986727 193.189679 
L 217.341818 194.697457 
L 217.392545 194.6723 
L 217.849091 191.677841 
L 218.102727 189.329649 
L 218.153455 189.35931 
L 218.305636 190.144208 
L 218.508545 190.784966 
L 218.660727 191.199103 
L 219.066545 192.937804 
L 219.573818 194.032349 
L 219.878182 193.037588 
L 219.928909 193.104672 
L 220.334727 194.748542 
L 220.486909 195.562107 
L 220.537636 195.397315 
L 220.842 193.536073 
L 220.892727 193.588408 
L 221.044909 193.33089 
L 221.247818 193.491768 
L 221.349273 193.691379 
L 221.450727 194.200211 
L 221.501455 193.944309 
L 221.602909 193.682473 
L 221.704364 194.035542 
L 221.958 196.419821 
L 222.871091 206.493098 
L 223.074 206.716165 
L 223.124727 206.657047 
L 223.378364 206.40506 
L 223.530545 206.625026 
L 223.784182 207.514288 
L 225.255273 213.704195 
L 225.559636 214.350752 
L 225.711818 213.925552 
L 225.965455 213.364686 
L 226.219091 213.18338 
L 226.523455 212.048604 
L 226.675636 212.013291 
L 226.878545 212.338704 
L 226.98 212.488544 
L 227.335091 211.736865 
L 227.385818 211.758376 
L 227.588727 212.107628 
L 227.740909 212.280163 
L 227.994545 212.08046 
L 228.146727 212.247677 
L 228.501818 212.864528 
L 228.552545 212.82647 
L 228.704727 212.663714 
L 229.110545 211.370871 
L 229.262727 211.566817 
L 229.567091 212.523562 
L 230.175818 214.719254 
L 230.277273 214.149136 
L 230.784545 210.698032 
L 230.886 210.649106 
L 231.038182 210.920256 
L 231.393273 212.348298 
L 231.951273 214.664708 
L 232.357091 213.982769 
L 232.407818 214.026888 
L 232.56 214.22658 
L 232.610727 214.167999 
L 232.915091 213.634317 
L 233.067273 213.740375 
L 233.168727 213.898933 
L 233.270182 213.20218 
L 233.574545 211.085509 
L 233.676 211.001171 
L 233.726727 211.042332 
L 233.929636 211.577667 
L 234.132545 212.304297 
L 234.183273 212.235649 
L 234.386182 211.96686 
L 234.639818 212.210831 
L 234.690545 212.108492 
L 234.893455 211.92735 
L 235.045636 212.178783 
L 235.197818 212.596618 
L 235.248545 212.556417 
L 235.35 212.245765 
L 235.654364 210.982309 
L 235.755818 210.969961 
L 235.958727 211.374429 
L 236.060182 211.186552 
L 236.263091 211.006542 
L 236.466 211.401339 
L 236.516727 211.27964 
L 236.719636 210.853185 
L 236.871818 210.819701 
L 237.074727 209.120442 
L 237.480545 206.28666 
L 237.582 206.380634 
L 237.784909 207.250593 
L 238.647273 211.915558 
L 238.799455 212.105065 
L 239.205273 211.049769 
L 239.306727 211.143367 
L 239.509636 211.700942 
L 239.814 212.9822 
L 239.864727 212.905791 
L 240.676364 208.012043 
L 240.727091 208.021461 
L 241.031455 208.424175 
L 241.335818 207.635672 
L 241.488 207.990773 
L 241.792364 209.688633 
L 242.046 210.667328 
L 242.248909 210.915189 
L 242.502545 210.04161 
L 242.654727 210.401691 
L 243.060545 212.46348 
L 243.770727 215.80057 
L 244.278 217.215826 
L 244.430182 217.450736 
L 245.038909 212.567385 
L 245.241818 212.250112 
L 245.394 212.51448 
L 245.749091 213.870087 
L 246.002727 214.708006 
L 246.104182 214.470445 
L 246.763636 212.179398 
L 246.915818 212.267786 
L 247.169455 212.968967 
L 248.488364 217.538889 
L 248.944909 218.312976 
L 249.046364 218.228607 
L 249.147818 217.741252 
L 249.350727 214.675853 
L 249.756545 209.489704 
L 249.908727 209.251423 
L 250.314545 209.945556 
L 250.618909 211.259767 
L 250.821818 212.06074 
L 250.872545 212.05031 
L 251.024727 212.150194 
L 251.582727 213.007481 
L 251.836364 212.208689 
L 251.937818 212.284317 
L 252.140727 212.885803 
L 252.292909 213.39624 
L 252.546545 212.367615 
L 252.648 212.472503 
L 252.901636 213.358874 
L 253.307455 215.086306 
L 253.358182 214.984506 
L 253.662545 213.037235 
L 254.068364 212.739346 
L 254.169818 212.802493 
L 254.423455 212.207444 
L 254.727818 211.105559 
L 254.829273 211.2234 
L 255.082909 212.190316 
L 255.488727 213.807874 
L 255.691636 213.865188 
L 255.894545 214.235961 
L 256.401818 215.890985 
L 256.503273 216.181398 
L 256.554 216.141924 
L 256.909091 215.366505 
L 257.061273 215.442356 
L 257.314909 215.929693 
L 258.380182 218.425007 
L 258.532364 218.165676 
L 258.887455 217.17115 
L 259.242545 214.450293 
L 259.394727 214.329063 
L 259.546909 214.571705 
L 259.902 215.199512 
L 260.155636 215.351623 
L 260.46 215.987064 
L 261.322364 218.287374 
L 261.423818 217.602306 
L 261.829636 214.17243 
L 262.032545 213.850161 
L 262.184727 213.668162 
L 262.286182 213.505964 
L 262.590545 212.028607 
L 262.692 212.067226 
L 262.894909 212.661154 
L 264.112364 217.951941 
L 264.163091 217.759584 
L 264.467455 216.774717 
L 264.619636 216.769959 
L 264.873273 217.145081 
L 265.380545 218.221391 
L 265.431273 218.176213 
L 265.786364 217.635058 
L 265.989273 217.746279 
L 266.344364 218.022646 
L 266.750182 217.752062 
L 267.003818 217.942503 
L 267.561818 218.806846 
L 268.170545 219.637201 
L 268.272 219.299492 
L 268.576364 218.079779 
L 268.779273 218.017203 
L 268.83 218.036744 
L 269.286545 216.705927 
L 269.438727 216.846752 
L 269.793818 217.633156 
L 270.301091 218.763259 
L 270.757636 217.762597 
L 270.859091 217.846888 
L 271.264909 215.907162 
L 271.417091 216.140866 
L 271.670727 216.853054 
L 271.721455 216.824688 
L 272.228727 215.115341 
L 272.482364 214.204284 
L 272.583818 214.221743 
L 272.736 214.39893 
L 273.141818 211.737953 
L 273.192545 211.760537 
L 273.344727 212.149524 
L 273.496909 212.618138 
L 273.547636 212.552936 
L 273.699818 212.454496 
L 273.852 212.735371 
L 274.156364 214.043905 
L 274.460727 215.197126 
L 274.866545 215.749491 
L 275.373818 217.160304 
L 276.084 218.907997 
L 276.134727 218.985884 
L 276.185455 218.941603 
L 276.591273 218.168771 
L 276.794182 218.277732 
L 277.301455 219.011527 
L 278.011636 219.892218 
L 278.671091 220.344447 
L 279.026182 220.421527 
L 279.229091 219.424842 
L 279.584182 217.767461 
L 279.787091 217.576211 
L 279.888545 217.541326 
L 280.294364 216.713395 
L 280.446545 216.83687 
L 280.750909 217.506106 
L 281.106 218.333017 
L 281.207455 217.796278 
L 281.511818 215.901969 
L 281.664 215.72629 
L 281.714727 215.746861 
L 282.069818 214.502534 
L 282.272727 214.825157 
L 282.932182 211.296897 
L 283.084364 211.583835 
L 283.236545 212.158004 
L 283.287273 212.116453 
L 283.439455 211.631304 
L 283.642364 211.039954 
L 283.794545 211.166285 
L 284.200364 207.751792 
L 284.301818 207.863233 
L 284.504727 208.844924 
L 285.265636 213.315746 
L 285.874364 215.734761 
L 286.026545 215.648265 
L 286.128 215.520271 
L 286.432364 213.205872 
L 286.533818 213.165845 
L 286.686 213.479094 
L 287.091818 215.167652 
L 287.497636 216.715513 
L 287.700545 216.466815 
L 288.055636 214.583031 
L 288.157091 214.563072 
L 288.309273 214.814114 
L 288.715091 216.183542 
L 289.171636 217.607106 
L 289.780364 216.0134 
L 289.983273 214.618904 
L 290.287636 213.05035 
L 290.541273 212.408392 
L 290.642727 212.494329 
L 290.845636 213.093226 
L 292.316727 218.714951 
L 292.418182 218.691458 
L 292.824 217.76991 
L 293.331273 213.886246 
L 293.483455 213.913435 
L 293.686364 214.399408 
L 294.599455 217.693234 
L 294.650182 217.573379 
L 294.954545 216.83325 
L 295.106727 216.883654 
L 295.360364 217.327997 
L 295.563273 217.797474 
L 295.614 217.706424 
L 295.969091 216.649527 
L 296.121273 216.717797 
L 296.425636 217.322077 
L 296.577818 217.645218 
L 296.983636 216.388964 
L 297.135818 216.541408 
L 297.338727 216.714322 
L 297.440182 216.304848 
L 297.643091 212.885544 
L 298.099636 204.453944 
L 298.353273 203.357409 
L 298.454727 203.526006 
L 298.657636 204.767292 
L 299.266364 210.299677 
L 299.367818 210.176543 
L 299.469273 210.151802 
L 299.621455 210.488647 
L 299.925818 211.233371 
L 300.078 211.408132 
L 300.331636 210.667369 
L 300.382364 210.694444 
L 300.534545 211.111315 
L 300.940364 213.292528 
L 301.396909 215.289293 
L 301.549091 215.463779 
L 301.701273 214.570014 
L 301.904182 213.897857 
L 302.005636 213.938104 
L 302.208545 214.19801 
L 302.259273 214.162698 
L 302.360727 214.09489 
L 302.462182 213.309921 
L 302.868 210.260775 
L 303.070909 209.504961 
L 303.172364 209.598515 
L 303.375273 210.373011 
L 304.846364 217.703203 
L 305.353636 218.729427 
L 305.810182 219.262656 
L 305.860909 219.241328 
L 306.418909 217.82846 
L 306.621818 217.955863 
L 307.179818 218.740731 
L 307.585636 219.223706 
L 307.737818 218.704521 
L 308.701636 214.657555 
L 308.752364 214.675091 
L 308.904545 214.928008 
L 309.208909 215.418401 
L 309.462545 215.480053 
L 309.817636 214.49804 
L 309.969818 214.635722 
L 310.274182 215.524872 
L 310.730727 217.181562 
L 310.781455 217.099498 
L 311.136545 214.247932 
L 311.339455 213.798333 
L 311.491636 214.036697 
L 311.593091 214.346874 
L 311.643818 214.293653 
L 311.948182 212.845977 
L 312.049636 212.879819 
L 312.252545 213.423836 
L 313.013455 216.598881 
L 313.114909 216.385828 
L 313.317818 216.190112 
L 313.419273 216.08755 
L 313.571455 215.353974 
L 313.977273 213.40822 
L 314.180182 212.852786 
L 314.281636 212.872312 
L 314.535273 213.08066 
L 314.687455 213.106125 
L 314.890364 213.497402 
L 315.194727 214.205827 
L 315.397636 214.294853 
L 315.651273 214.838624 
L 317.122364 218.945657 
L 317.274545 219.137358 
L 317.426727 218.591944 
L 317.731091 217.689705 
L 317.934 217.453523 
L 318.390545 215.842997 
L 318.593455 215.73627 
L 318.796364 216.020836 
L 319.05 216.529217 
L 319.303636 214.392484 
L 319.810909 209.021582 
L 319.912364 208.953061 
L 320.064545 209.357385 
L 320.419636 211.215832 
L 320.521091 211.091191 
L 321.079091 210.34561 
L 321.332727 209.320454 
L 321.434182 209.343695 
L 321.941455 210.466597 
L 322.296545 211.54234 
L 322.448727 211.699405 
L 322.702364 212.619521 
L 323.412545 215.584408 
L 323.615455 215.65142 
L 323.869091 216.061572 
L 324.274909 216.81911 
L 324.731455 216.692649 
L 325.035818 217.097585 
L 325.441636 217.861842 
L 325.492364 217.813291 
L 325.898182 216.840672 
L 326.050364 216.885312 
L 326.354727 217.337663 
L 326.608364 217.666715 
L 327.115636 217.262908 
L 327.369273 217.521409 
L 327.572182 217.692382 
L 327.673636 217.205076 
L 328.028727 214.977165 
L 328.180909 214.285847 
L 328.891091 210.634549 
L 329.246182 209.624684 
L 329.347636 209.654537 
L 329.499818 210.083007 
L 329.854909 212.05149 
L 330.412909 215.040565 
L 330.920182 215.711762 
L 330.970909 215.811698 
L 331.681091 213.459027 
L 331.833273 213.670526 
L 332.137636 214.707258 
L 332.898545 217.428824 
L 333.507273 215.304099 
L 333.659455 215.258254 
L 333.963818 215.464785 
L 334.166727 215.384464 
L 334.369636 215.621272 
L 334.775455 216.671883 
L 335.536364 218.591956 
L 336.094364 219.412817 
L 336.246545 219.54072 
L 336.348 219.254897 
L 336.500182 217.434797 
L 336.804545 214.400888 
L 337.007455 214.01383 
L 337.159636 214.064222 
L 337.565455 212.917481 
L 337.616182 212.943732 
L 337.768364 213.236335 
L 338.275636 214.519255 
L 338.427818 214.045931 
L 338.529273 213.416376 
L 338.782909 211.828227 
L 339.188727 211.068206 
L 339.543818 209.924406 
L 339.645273 210.031731 
L 340.203273 211.608816 
L 340.710545 214.076022 
L 341.37 216.97218 
L 341.471455 216.653496 
L 341.725091 215.966927 
L 341.877273 216.031052 
L 342.384545 216.553806 
L 342.638182 216.8263 
L 342.739636 216.983129 
L 342.790364 216.94537 
L 343.196182 216.342116 
L 343.449818 216.345598 
L 343.703455 215.444393 
L 344.210727 213.692 
L 344.362909 213.921332 
L 344.971636 215.27775 
L 345.174545 215.256882 
L 345.377455 214.262605 
L 345.681818 213.27997 
L 345.884727 212.975959 
L 346.036909 213.136835 
L 346.290545 213.901049 
L 346.848545 216.06107 
L 346.899273 216.030278 
L 347.102182 215.956284 
L 347.152909 215.949344 
L 347.558727 214.97626 
L 347.761636 215.309887 
L 348.522545 217.256479 
L 348.573273 217.097163 
L 348.877636 215.456499 
L 349.029818 215.382112 
L 349.232727 215.704474 
L 349.334182 215.812691 
L 349.689273 215.485898 
L 349.892182 215.781212 
L 350.399455 217.210001 
L 351.058909 218.799294 
L 351.515455 219.416062 
L 351.718364 218.446777 
L 352.732909 211.254167 
L 352.834364 211.289066 
L 353.037273 211.938909 
L 353.290909 213.225034 
L 353.341636 213.047211 
L 353.544545 212.50973 
L 353.848909 211.864189 
L 354.102545 211.222137 
L 354.254727 211.547711 
L 354.812727 213.271997 
L 354.914182 213.507124 
L 354.964909 213.447301 
L 355.472182 211.904304 
L 355.573636 211.918727 
L 355.725818 212.279249 
L 356.131636 214.147702 
L 356.740364 216.752596 
L 356.892545 216.489092 
L 357.095455 216.259547 
L 357.247636 216.363273 
L 357.552 216.941661 
L 358.211455 218.398767 
L 358.262182 218.327304 
L 358.668 214.809791 
L 358.820182 214.740998 
L 358.870909 214.792666 
L 358.921636 214.688792 
L 359.175273 213.954307 
L 359.327455 213.838661 
L 359.581091 213.567538 
L 359.733273 213.766454 
L 360.037636 214.735258 
L 360.291273 215.513297 
L 360.342 215.487359 
L 360.798545 214.09634 
L 360.849273 214.122539 
L 361.052182 214.521903 
L 361.356545 215.178854 
L 361.610182 215.202754 
L 361.813091 215.525247 
L 362.320364 216.95897 
L 362.878364 218.359003 
L 363.030545 218.137344 
L 363.334909 217.688647 
L 363.588545 217.524874 
L 363.740727 216.985295 
L 364.095818 215.628423 
L 364.248 215.622928 
L 364.450909 215.963776 
L 365.262545 218.169955 
L 365.364 217.965559 
L 365.566909 216.063829 
L 365.820545 213.64348 
L 366.175636 212.401568 
L 366.277091 212.496339 
L 366.48 213.150137 
L 367.849636 218.682918 
L 367.900364 218.786441 
L 367.951091 218.647011 
L 368.509091 215.761027 
L 368.559818 215.780764 
L 368.762727 216.126059 
L 368.965636 216.565162 
L 369.422182 213.458488 
L 369.574364 213.73207 
L 370.081636 215.21276 
L 370.284545 213.432604 
L 370.741091 209.895807 
L 370.842545 210.009131 
L 371.045455 210.853624 
L 371.299091 212.345291 
L 371.349818 212.289116 
L 371.502 212.064077 
L 371.654182 212.256282 
L 371.704909 212.171845 
L 371.907818 211.985937 
L 372.06 212.280687 
L 372.110727 212.436288 
L 372.161455 212.355012 
L 372.364364 211.792784 
L 372.465818 211.907247 
L 372.719455 212.87524 
L 373.429636 216.147683 
L 373.531091 215.961504 
L 373.581818 215.783846 
L 373.581818 215.783846 
" style="fill:none;stroke:#ff0000;stroke-linecap:square;stroke-width:1.5;"/>
   </g>
   <g id="line2d_16">
    <path clip-path="url(#pe658668ba1)" d="M 322.854545 143.28 
L 373.480364 143.28 
L 373.480364 143.28 
" style="fill:none;stroke:#000000;stroke-linecap:square;stroke-width:1.5;"/>
   </g>
   <g id="line2d_17">
    <path clip-path="url(#pe658668ba1)" d="M 322.854545 165.024 
L 322.854545 160.6752 
L 322.854545 156.3264 
L 322.854545 151.9776 
L 322.854545 147.6288 
" style="fill:none;stroke:#000000;stroke-linecap:square;stroke-width:1.5;"/>
   </g>
   <g id="patch_3">
    <path d="M 54 252 
L 54 34.56 
" style="fill:none;stroke:#000000;stroke-linecap:square;stroke-linejoin:miter;stroke-width:0.8;"/>
   </g>
   <g id="patch_4">
    <path d="M 54 252 
L 388.8 252 
" style="fill:none;stroke:#000000;stroke-linecap:square;stroke-linejoin:miter;stroke-width:0.8;"/>
   </g>
   <g id="text_16">
    <!-- 500 ms -->
    <g transform="translate(322.854545 138.9312)scale(0.1 -0.1)">
     <use xlink:href="#DejaVuSans-53"/>
     <use x="63.623047" xlink:href="#DejaVuSans-48"/>
     <use x="127.246094" xlink:href="#DejaVuSans-48"/>
     <use x="190.869141" xlink:href="#DejaVuSans-32"/>
     <use x="222.65625" xlink:href="#DejaVuSans-109"/>
     <use x="320.068359" xlink:href="#DejaVuSans-115"/>
    </g>
   </g>
   <g id="text_17">
    <!-- 5 mV -->
    <g transform="translate(327.927273 156.3264)scale(0.1 -0.1)">
     <use xlink:href="#DejaVuSans-53"/>
     <use x="63.623047" xlink:href="#DejaVuSans-32"/>
     <use x="95.410156" xlink:href="#DejaVuSans-109"/>
     <use x="192.822266" xlink:href="#DejaVuSans-86"/>
    </g>
   </g>
  </g>
 </g>
 <defs>
  <clipPath id="pe658668ba1">
   <rect height="217.44" width="334.8" x="54" y="34.56"/>
  </clipPath>
 </defs>
</svg>
