<?xml version="1.0" encoding="utf-8" standalone="no"?>
<!DOCTYPE svg PUBLIC "-//W3C//DTD SVG 1.1//EN"
  "http://www.w3.org/Graphics/SVG/1.1/DTD/svg11.dtd">
<!-- Created with matplotlib (https://matplotlib.org/) -->
<svg height="288pt" version="1.1" viewBox="0 0 432 288" width="432pt" xmlns="http://www.w3.org/2000/svg" xmlns:xlink="http://www.w3.org/1999/xlink">
 <metadata>
  <rdf:RDF xmlns:cc="http://creativecommons.org/ns#" xmlns:dc="http://purl.org/dc/elements/1.1/" xmlns:rdf="http://www.w3.org/1999/02/22-rdf-syntax-ns#">
   <cc:Work>
    <dc:type rdf:resource="http://purl.org/dc/dcmitype/StillImage"/>
    <dc:date>2022-04-20T11:58:45.524430</dc:date>
    <dc:format>image/svg+xml</dc:format>
    <dc:creator>
     <cc:Agent>
      <dc:title>Matplotlib v3.3.4, https://matplotlib.org/</dc:title>
     </cc:Agent>
    </dc:creator>
   </cc:Work>
  </rdf:RDF>
 </metadata>
 <defs>
  <style type="text/css">*{stroke-linecap:butt;stroke-linejoin:round;}</style>
 </defs>
 <g id="figure_1">
  <g id="patch_1">
   <path d="M 0 288 
L 432 288 
L 432 0 
L 0 0 
z
" style="fill:none;"/>
  </g>
  <g id="axes_1">
   <g id="patch_2">
    <path d="M 54 252 
L 388.8 252 
L 388.8 34.56 
L 54 34.56 
z
" style="fill:#ffffff;"/>
   </g>
   <g id="matplotlib.axis_1">
    <g id="xtick_1">
     <g id="line2d_1">
      <defs>
       <path d="M 0 0 
L 0 3.5 
" id="m130e156f54" style="stroke:#000000;stroke-width:0.8;"/>
      </defs>
      <g>
       <use style="stroke:#000000;stroke-width:0.8;" x="69.218182" xlink:href="#m130e156f54" y="252"/>
      </g>
     </g>
     <g id="text_1">
      <!-- 0 -->
      <g transform="translate(66.036932 266.598437)scale(0.1 -0.1)">
       <defs>
        <path d="M 31.78125 66.40625 
Q 24.171875 66.40625 20.328125 58.90625 
Q 16.5 51.421875 16.5 36.375 
Q 16.5 21.390625 20.328125 13.890625 
Q 24.171875 6.390625 31.78125 6.390625 
Q 39.453125 6.390625 43.28125 13.890625 
Q 47.125 21.390625 47.125 36.375 
Q 47.125 51.421875 43.28125 58.90625 
Q 39.453125 66.40625 31.78125 66.40625 
z
M 31.78125 74.21875 
Q 44.046875 74.21875 50.515625 64.515625 
Q 56.984375 54.828125 56.984375 36.375 
Q 56.984375 17.96875 50.515625 8.265625 
Q 44.046875 -1.421875 31.78125 -1.421875 
Q 19.53125 -1.421875 13.0625 8.265625 
Q 6.59375 17.96875 6.59375 36.375 
Q 6.59375 54.828125 13.0625 64.515625 
Q 19.53125 74.21875 31.78125 74.21875 
z
" id="DejaVuSans-48"/>
       </defs>
       <use xlink:href="#DejaVuSans-48"/>
      </g>
     </g>
    </g>
    <g id="xtick_2">
     <g id="line2d_2">
      <g>
       <use style="stroke:#000000;stroke-width:0.8;" x="119.945455" xlink:href="#m130e156f54" y="252"/>
      </g>
     </g>
     <g id="text_2">
      <!-- 500 -->
      <g transform="translate(110.401705 266.598437)scale(0.1 -0.1)">
       <defs>
        <path d="M 10.796875 72.90625 
L 49.515625 72.90625 
L 49.515625 64.59375 
L 19.828125 64.59375 
L 19.828125 46.734375 
Q 21.96875 47.46875 24.109375 47.828125 
Q 26.265625 48.1875 28.421875 48.1875 
Q 40.625 48.1875 47.75 41.5 
Q 54.890625 34.8125 54.890625 23.390625 
Q 54.890625 11.625 47.5625 5.09375 
Q 40.234375 -1.421875 26.90625 -1.421875 
Q 22.3125 -1.421875 17.546875 -0.640625 
Q 12.796875 0.140625 7.71875 1.703125 
L 7.71875 11.625 
Q 12.109375 9.234375 16.796875 8.0625 
Q 21.484375 6.890625 26.703125 6.890625 
Q 35.15625 6.890625 40.078125 11.328125 
Q 45.015625 15.765625 45.015625 23.390625 
Q 45.015625 31 40.078125 35.4375 
Q 35.15625 39.890625 26.703125 39.890625 
Q 22.75 39.890625 18.8125 39.015625 
Q 14.890625 38.140625 10.796875 36.28125 
z
" id="DejaVuSans-53"/>
       </defs>
       <use xlink:href="#DejaVuSans-53"/>
       <use x="63.623047" xlink:href="#DejaVuSans-48"/>
       <use x="127.246094" xlink:href="#DejaVuSans-48"/>
      </g>
     </g>
    </g>
    <g id="xtick_3">
     <g id="line2d_3">
      <g>
       <use style="stroke:#000000;stroke-width:0.8;" x="170.672727" xlink:href="#m130e156f54" y="252"/>
      </g>
     </g>
     <g id="text_3">
      <!-- 1000 -->
      <g transform="translate(157.947727 266.598437)scale(0.1 -0.1)">
       <defs>
        <path d="M 12.40625 8.296875 
L 28.515625 8.296875 
L 28.515625 63.921875 
L 10.984375 60.40625 
L 10.984375 69.390625 
L 28.421875 72.90625 
L 38.28125 72.90625 
L 38.28125 8.296875 
L 54.390625 8.296875 
L 54.390625 0 
L 12.40625 0 
z
" id="DejaVuSans-49"/>
       </defs>
       <use xlink:href="#DejaVuSans-49"/>
       <use x="63.623047" xlink:href="#DejaVuSans-48"/>
       <use x="127.246094" xlink:href="#DejaVuSans-48"/>
       <use x="190.869141" xlink:href="#DejaVuSans-48"/>
      </g>
     </g>
    </g>
    <g id="xtick_4">
     <g id="line2d_4">
      <g>
       <use style="stroke:#000000;stroke-width:0.8;" x="221.4" xlink:href="#m130e156f54" y="252"/>
      </g>
     </g>
     <g id="text_4">
      <!-- 1500 -->
      <g transform="translate(208.675 266.598437)scale(0.1 -0.1)">
       <use xlink:href="#DejaVuSans-49"/>
       <use x="63.623047" xlink:href="#DejaVuSans-53"/>
       <use x="127.246094" xlink:href="#DejaVuSans-48"/>
       <use x="190.869141" xlink:href="#DejaVuSans-48"/>
      </g>
     </g>
    </g>
    <g id="xtick_5">
     <g id="line2d_5">
      <g>
       <use style="stroke:#000000;stroke-width:0.8;" x="272.127273" xlink:href="#m130e156f54" y="252"/>
      </g>
     </g>
     <g id="text_5">
      <!-- 2000 -->
      <g transform="translate(259.402273 266.598437)scale(0.1 -0.1)">
       <defs>
        <path d="M 19.1875 8.296875 
L 53.609375 8.296875 
L 53.609375 0 
L 7.328125 0 
L 7.328125 8.296875 
Q 12.9375 14.109375 22.625 23.890625 
Q 32.328125 33.6875 34.8125 36.53125 
Q 39.546875 41.84375 41.421875 45.53125 
Q 43.3125 49.21875 43.3125 52.78125 
Q 43.3125 58.59375 39.234375 62.25 
Q 35.15625 65.921875 28.609375 65.921875 
Q 23.96875 65.921875 18.8125 64.3125 
Q 13.671875 62.703125 7.8125 59.421875 
L 7.8125 69.390625 
Q 13.765625 71.78125 18.9375 73 
Q 24.125 74.21875 28.421875 74.21875 
Q 39.75 74.21875 46.484375 68.546875 
Q 53.21875 62.890625 53.21875 53.421875 
Q 53.21875 48.921875 51.53125 44.890625 
Q 49.859375 40.875 45.40625 35.40625 
Q 44.1875 33.984375 37.640625 27.21875 
Q 31.109375 20.453125 19.1875 8.296875 
z
" id="DejaVuSans-50"/>
       </defs>
       <use xlink:href="#DejaVuSans-50"/>
       <use x="63.623047" xlink:href="#DejaVuSans-48"/>
       <use x="127.246094" xlink:href="#DejaVuSans-48"/>
       <use x="190.869141" xlink:href="#DejaVuSans-48"/>
      </g>
     </g>
    </g>
    <g id="xtick_6">
     <g id="line2d_6">
      <g>
       <use style="stroke:#000000;stroke-width:0.8;" x="322.854545" xlink:href="#m130e156f54" y="252"/>
      </g>
     </g>
     <g id="text_6">
      <!-- 2500 -->
      <g transform="translate(310.129545 266.598437)scale(0.1 -0.1)">
       <use xlink:href="#DejaVuSans-50"/>
       <use x="63.623047" xlink:href="#DejaVuSans-53"/>
       <use x="127.246094" xlink:href="#DejaVuSans-48"/>
       <use x="190.869141" xlink:href="#DejaVuSans-48"/>
      </g>
     </g>
    </g>
    <g id="xtick_7">
     <g id="line2d_7">
      <g>
       <use style="stroke:#000000;stroke-width:0.8;" x="373.581818" xlink:href="#m130e156f54" y="252"/>
      </g>
     </g>
     <g id="text_7">
      <!-- 3000 -->
      <g transform="translate(360.856818 266.598437)scale(0.1 -0.1)">
       <defs>
        <path d="M 40.578125 39.3125 
Q 47.65625 37.796875 51.625 33 
Q 55.609375 28.21875 55.609375 21.1875 
Q 55.609375 10.40625 48.1875 4.484375 
Q 40.765625 -1.421875 27.09375 -1.421875 
Q 22.515625 -1.421875 17.65625 -0.515625 
Q 12.796875 0.390625 7.625 2.203125 
L 7.625 11.71875 
Q 11.71875 9.328125 16.59375 8.109375 
Q 21.484375 6.890625 26.8125 6.890625 
Q 36.078125 6.890625 40.9375 10.546875 
Q 45.796875 14.203125 45.796875 21.1875 
Q 45.796875 27.640625 41.28125 31.265625 
Q 36.765625 34.90625 28.71875 34.90625 
L 20.21875 34.90625 
L 20.21875 43.015625 
L 29.109375 43.015625 
Q 36.375 43.015625 40.234375 45.921875 
Q 44.09375 48.828125 44.09375 54.296875 
Q 44.09375 59.90625 40.109375 62.90625 
Q 36.140625 65.921875 28.71875 65.921875 
Q 24.65625 65.921875 20.015625 65.03125 
Q 15.375 64.15625 9.8125 62.3125 
L 9.8125 71.09375 
Q 15.4375 72.65625 20.34375 73.4375 
Q 25.25 74.21875 29.59375 74.21875 
Q 40.828125 74.21875 47.359375 69.109375 
Q 53.90625 64.015625 53.90625 55.328125 
Q 53.90625 49.265625 50.4375 45.09375 
Q 46.96875 40.921875 40.578125 39.3125 
z
" id="DejaVuSans-51"/>
       </defs>
       <use xlink:href="#DejaVuSans-51"/>
       <use x="63.623047" xlink:href="#DejaVuSans-48"/>
       <use x="127.246094" xlink:href="#DejaVuSans-48"/>
       <use x="190.869141" xlink:href="#DejaVuSans-48"/>
      </g>
     </g>
    </g>
    <g id="text_8">
     <!-- Time(ms) -->
     <g transform="translate(197.789844 280.276563)scale(0.1 -0.1)">
      <defs>
       <path d="M -0.296875 72.90625 
L 61.375 72.90625 
L 61.375 64.59375 
L 35.5 64.59375 
L 35.5 0 
L 25.59375 0 
L 25.59375 64.59375 
L -0.296875 64.59375 
z
" id="DejaVuSans-84"/>
       <path d="M 9.421875 54.6875 
L 18.40625 54.6875 
L 18.40625 0 
L 9.421875 0 
z
M 9.421875 75.984375 
L 18.40625 75.984375 
L 18.40625 64.59375 
L 9.421875 64.59375 
z
" id="DejaVuSans-105"/>
       <path d="M 52 44.1875 
Q 55.375 50.25 60.0625 53.125 
Q 64.75 56 71.09375 56 
Q 79.640625 56 84.28125 50.015625 
Q 88.921875 44.046875 88.921875 33.015625 
L 88.921875 0 
L 79.890625 0 
L 79.890625 32.71875 
Q 79.890625 40.578125 77.09375 44.375 
Q 74.3125 48.1875 68.609375 48.1875 
Q 61.625 48.1875 57.5625 43.546875 
Q 53.515625 38.921875 53.515625 30.90625 
L 53.515625 0 
L 44.484375 0 
L 44.484375 32.71875 
Q 44.484375 40.625 41.703125 44.40625 
Q 38.921875 48.1875 33.109375 48.1875 
Q 26.21875 48.1875 22.15625 43.53125 
Q 18.109375 38.875 18.109375 30.90625 
L 18.109375 0 
L 9.078125 0 
L 9.078125 54.6875 
L 18.109375 54.6875 
L 18.109375 46.1875 
Q 21.1875 51.21875 25.484375 53.609375 
Q 29.78125 56 35.6875 56 
Q 41.65625 56 45.828125 52.96875 
Q 50 49.953125 52 44.1875 
z
" id="DejaVuSans-109"/>
       <path d="M 56.203125 29.59375 
L 56.203125 25.203125 
L 14.890625 25.203125 
Q 15.484375 15.921875 20.484375 11.0625 
Q 25.484375 6.203125 34.421875 6.203125 
Q 39.59375 6.203125 44.453125 7.46875 
Q 49.3125 8.734375 54.109375 11.28125 
L 54.109375 2.78125 
Q 49.265625 0.734375 44.1875 -0.34375 
Q 39.109375 -1.421875 33.890625 -1.421875 
Q 20.796875 -1.421875 13.15625 6.1875 
Q 5.515625 13.8125 5.515625 26.8125 
Q 5.515625 40.234375 12.765625 48.109375 
Q 20.015625 56 32.328125 56 
Q 43.359375 56 49.78125 48.890625 
Q 56.203125 41.796875 56.203125 29.59375 
z
M 47.21875 32.234375 
Q 47.125 39.59375 43.09375 43.984375 
Q 39.0625 48.390625 32.421875 48.390625 
Q 24.90625 48.390625 20.390625 44.140625 
Q 15.875 39.890625 15.1875 32.171875 
z
" id="DejaVuSans-101"/>
       <path d="M 31 75.875 
Q 24.46875 64.65625 21.28125 53.65625 
Q 18.109375 42.671875 18.109375 31.390625 
Q 18.109375 20.125 21.3125 9.0625 
Q 24.515625 -2 31 -13.1875 
L 23.1875 -13.1875 
Q 15.875 -1.703125 12.234375 9.375 
Q 8.59375 20.453125 8.59375 31.390625 
Q 8.59375 42.28125 12.203125 53.3125 
Q 15.828125 64.359375 23.1875 75.875 
z
" id="DejaVuSans-40"/>
       <path d="M 44.28125 53.078125 
L 44.28125 44.578125 
Q 40.484375 46.53125 36.375 47.5 
Q 32.28125 48.484375 27.875 48.484375 
Q 21.1875 48.484375 17.84375 46.4375 
Q 14.5 44.390625 14.5 40.28125 
Q 14.5 37.15625 16.890625 35.375 
Q 19.28125 33.59375 26.515625 31.984375 
L 29.59375 31.296875 
Q 39.15625 29.25 43.1875 25.515625 
Q 47.21875 21.78125 47.21875 15.09375 
Q 47.21875 7.46875 41.1875 3.015625 
Q 35.15625 -1.421875 24.609375 -1.421875 
Q 20.21875 -1.421875 15.453125 -0.5625 
Q 10.6875 0.296875 5.421875 2 
L 5.421875 11.28125 
Q 10.40625 8.6875 15.234375 7.390625 
Q 20.0625 6.109375 24.8125 6.109375 
Q 31.15625 6.109375 34.5625 8.28125 
Q 37.984375 10.453125 37.984375 14.40625 
Q 37.984375 18.0625 35.515625 20.015625 
Q 33.0625 21.96875 24.703125 23.78125 
L 21.578125 24.515625 
Q 13.234375 26.265625 9.515625 29.90625 
Q 5.8125 33.546875 5.8125 39.890625 
Q 5.8125 47.609375 11.28125 51.796875 
Q 16.75 56 26.8125 56 
Q 31.78125 56 36.171875 55.265625 
Q 40.578125 54.546875 44.28125 53.078125 
z
" id="DejaVuSans-115"/>
       <path d="M 8.015625 75.875 
L 15.828125 75.875 
Q 23.140625 64.359375 26.78125 53.3125 
Q 30.421875 42.28125 30.421875 31.390625 
Q 30.421875 20.453125 26.78125 9.375 
Q 23.140625 -1.703125 15.828125 -13.1875 
L 8.015625 -13.1875 
Q 14.5 -2 17.703125 9.0625 
Q 20.90625 20.125 20.90625 31.390625 
Q 20.90625 42.671875 17.703125 53.65625 
Q 14.5 64.65625 8.015625 75.875 
z
" id="DejaVuSans-41"/>
      </defs>
      <use xlink:href="#DejaVuSans-84"/>
      <use x="57.958984" xlink:href="#DejaVuSans-105"/>
      <use x="85.742188" xlink:href="#DejaVuSans-109"/>
      <use x="183.154297" xlink:href="#DejaVuSans-101"/>
      <use x="244.677734" xlink:href="#DejaVuSans-40"/>
      <use x="283.691406" xlink:href="#DejaVuSans-109"/>
      <use x="381.103516" xlink:href="#DejaVuSans-115"/>
      <use x="433.203125" xlink:href="#DejaVuSans-41"/>
     </g>
    </g>
   </g>
   <g id="matplotlib.axis_2">
    <g id="ytick_1">
     <g id="line2d_8">
      <defs>
       <path d="M 0 0 
L -3.5 0 
" id="mfbfa091280" style="stroke:#000000;stroke-width:0.8;"/>
      </defs>
      <g>
       <use style="stroke:#000000;stroke-width:0.8;" x="54" xlink:href="#mfbfa091280" y="252"/>
      </g>
     </g>
     <g id="text_9">
      <!-- −100 -->
      <g transform="translate(19.532812 255.799219)scale(0.1 -0.1)">
       <defs>
        <path d="M 10.59375 35.5 
L 73.1875 35.5 
L 73.1875 27.203125 
L 10.59375 27.203125 
z
" id="DejaVuSans-8722"/>
       </defs>
       <use xlink:href="#DejaVuSans-8722"/>
       <use x="83.789062" xlink:href="#DejaVuSans-49"/>
       <use x="147.412109" xlink:href="#DejaVuSans-48"/>
       <use x="211.035156" xlink:href="#DejaVuSans-48"/>
      </g>
     </g>
    </g>
    <g id="ytick_2">
     <g id="line2d_9">
      <g>
       <use style="stroke:#000000;stroke-width:0.8;" x="54" xlink:href="#mfbfa091280" y="215.76"/>
      </g>
     </g>
     <g id="text_10">
      <!-- −95 -->
      <g transform="translate(25.895312 219.559219)scale(0.1 -0.1)">
       <defs>
        <path d="M 10.984375 1.515625 
L 10.984375 10.5 
Q 14.703125 8.734375 18.5 7.8125 
Q 22.3125 6.890625 25.984375 6.890625 
Q 35.75 6.890625 40.890625 13.453125 
Q 46.046875 20.015625 46.78125 33.40625 
Q 43.953125 29.203125 39.59375 26.953125 
Q 35.25 24.703125 29.984375 24.703125 
Q 19.046875 24.703125 12.671875 31.3125 
Q 6.296875 37.9375 6.296875 49.421875 
Q 6.296875 60.640625 12.9375 67.421875 
Q 19.578125 74.21875 30.609375 74.21875 
Q 43.265625 74.21875 49.921875 64.515625 
Q 56.59375 54.828125 56.59375 36.375 
Q 56.59375 19.140625 48.40625 8.859375 
Q 40.234375 -1.421875 26.421875 -1.421875 
Q 22.703125 -1.421875 18.890625 -0.6875 
Q 15.09375 0.046875 10.984375 1.515625 
z
M 30.609375 32.421875 
Q 37.25 32.421875 41.125 36.953125 
Q 45.015625 41.5 45.015625 49.421875 
Q 45.015625 57.28125 41.125 61.84375 
Q 37.25 66.40625 30.609375 66.40625 
Q 23.96875 66.40625 20.09375 61.84375 
Q 16.21875 57.28125 16.21875 49.421875 
Q 16.21875 41.5 20.09375 36.953125 
Q 23.96875 32.421875 30.609375 32.421875 
z
" id="DejaVuSans-57"/>
       </defs>
       <use xlink:href="#DejaVuSans-8722"/>
       <use x="83.789062" xlink:href="#DejaVuSans-57"/>
       <use x="147.412109" xlink:href="#DejaVuSans-53"/>
      </g>
     </g>
    </g>
    <g id="ytick_3">
     <g id="line2d_10">
      <g>
       <use style="stroke:#000000;stroke-width:0.8;" x="54" xlink:href="#mfbfa091280" y="179.52"/>
      </g>
     </g>
     <g id="text_11">
      <!-- −90 -->
      <g transform="translate(25.895312 183.319219)scale(0.1 -0.1)">
       <use xlink:href="#DejaVuSans-8722"/>
       <use x="83.789062" xlink:href="#DejaVuSans-57"/>
       <use x="147.412109" xlink:href="#DejaVuSans-48"/>
      </g>
     </g>
    </g>
    <g id="ytick_4">
     <g id="line2d_11">
      <g>
       <use style="stroke:#000000;stroke-width:0.8;" x="54" xlink:href="#mfbfa091280" y="143.28"/>
      </g>
     </g>
     <g id="text_12">
      <!-- −85 -->
      <g transform="translate(25.895312 147.079219)scale(0.1 -0.1)">
       <defs>
        <path d="M 31.78125 34.625 
Q 24.75 34.625 20.71875 30.859375 
Q 16.703125 27.09375 16.703125 20.515625 
Q 16.703125 13.921875 20.71875 10.15625 
Q 24.75 6.390625 31.78125 6.390625 
Q 38.8125 6.390625 42.859375 10.171875 
Q 46.921875 13.96875 46.921875 20.515625 
Q 46.921875 27.09375 42.890625 30.859375 
Q 38.875 34.625 31.78125 34.625 
z
M 21.921875 38.8125 
Q 15.578125 40.375 12.03125 44.71875 
Q 8.5 49.078125 8.5 55.328125 
Q 8.5 64.0625 14.71875 69.140625 
Q 20.953125 74.21875 31.78125 74.21875 
Q 42.671875 74.21875 48.875 69.140625 
Q 55.078125 64.0625 55.078125 55.328125 
Q 55.078125 49.078125 51.53125 44.71875 
Q 48 40.375 41.703125 38.8125 
Q 48.828125 37.15625 52.796875 32.3125 
Q 56.78125 27.484375 56.78125 20.515625 
Q 56.78125 9.90625 50.3125 4.234375 
Q 43.84375 -1.421875 31.78125 -1.421875 
Q 19.734375 -1.421875 13.25 4.234375 
Q 6.78125 9.90625 6.78125 20.515625 
Q 6.78125 27.484375 10.78125 32.3125 
Q 14.796875 37.15625 21.921875 38.8125 
z
M 18.3125 54.390625 
Q 18.3125 48.734375 21.84375 45.5625 
Q 25.390625 42.390625 31.78125 42.390625 
Q 38.140625 42.390625 41.71875 45.5625 
Q 45.3125 48.734375 45.3125 54.390625 
Q 45.3125 60.0625 41.71875 63.234375 
Q 38.140625 66.40625 31.78125 66.40625 
Q 25.390625 66.40625 21.84375 63.234375 
Q 18.3125 60.0625 18.3125 54.390625 
z
" id="DejaVuSans-56"/>
       </defs>
       <use xlink:href="#DejaVuSans-8722"/>
       <use x="83.789062" xlink:href="#DejaVuSans-56"/>
       <use x="147.412109" xlink:href="#DejaVuSans-53"/>
      </g>
     </g>
    </g>
    <g id="ytick_5">
     <g id="line2d_12">
      <g>
       <use style="stroke:#000000;stroke-width:0.8;" x="54" xlink:href="#mfbfa091280" y="107.04"/>
      </g>
     </g>
     <g id="text_13">
      <!-- −80 -->
      <g transform="translate(25.895312 110.839219)scale(0.1 -0.1)">
       <use xlink:href="#DejaVuSans-8722"/>
       <use x="83.789062" xlink:href="#DejaVuSans-56"/>
       <use x="147.412109" xlink:href="#DejaVuSans-48"/>
      </g>
     </g>
    </g>
    <g id="ytick_6">
     <g id="line2d_13">
      <g>
       <use style="stroke:#000000;stroke-width:0.8;" x="54" xlink:href="#mfbfa091280" y="70.8"/>
      </g>
     </g>
     <g id="text_14">
      <!-- −75 -->
      <g transform="translate(25.895312 74.599219)scale(0.1 -0.1)">
       <defs>
        <path d="M 8.203125 72.90625 
L 55.078125 72.90625 
L 55.078125 68.703125 
L 28.609375 0 
L 18.3125 0 
L 43.21875 64.59375 
L 8.203125 64.59375 
z
" id="DejaVuSans-55"/>
       </defs>
       <use xlink:href="#DejaVuSans-8722"/>
       <use x="83.789062" xlink:href="#DejaVuSans-55"/>
       <use x="147.412109" xlink:href="#DejaVuSans-53"/>
      </g>
     </g>
    </g>
    <g id="ytick_7">
     <g id="line2d_14">
      <g>
       <use style="stroke:#000000;stroke-width:0.8;" x="54" xlink:href="#mfbfa091280" y="34.56"/>
      </g>
     </g>
     <g id="text_15">
      <!-- −70 -->
      <g transform="translate(25.895312 38.359219)scale(0.1 -0.1)">
       <use xlink:href="#DejaVuSans-8722"/>
       <use x="83.789062" xlink:href="#DejaVuSans-55"/>
       <use x="147.412109" xlink:href="#DejaVuSans-48"/>
      </g>
     </g>
    </g>
    <g id="text_16">
     <!-- Membrane potential (mV) -->
     <g transform="translate(13.453125 207.691719)rotate(-90)scale(0.1 -0.1)">
      <defs>
       <path d="M 9.8125 72.90625 
L 24.515625 72.90625 
L 43.109375 23.296875 
L 61.8125 72.90625 
L 76.515625 72.90625 
L 76.515625 0 
L 66.890625 0 
L 66.890625 64.015625 
L 48.09375 14.015625 
L 38.1875 14.015625 
L 19.390625 64.015625 
L 19.390625 0 
L 9.8125 0 
z
" id="DejaVuSans-77"/>
       <path d="M 48.6875 27.296875 
Q 48.6875 37.203125 44.609375 42.84375 
Q 40.53125 48.484375 33.40625 48.484375 
Q 26.265625 48.484375 22.1875 42.84375 
Q 18.109375 37.203125 18.109375 27.296875 
Q 18.109375 17.390625 22.1875 11.75 
Q 26.265625 6.109375 33.40625 6.109375 
Q 40.53125 6.109375 44.609375 11.75 
Q 48.6875 17.390625 48.6875 27.296875 
z
M 18.109375 46.390625 
Q 20.953125 51.265625 25.265625 53.625 
Q 29.59375 56 35.59375 56 
Q 45.5625 56 51.78125 48.09375 
Q 58.015625 40.1875 58.015625 27.296875 
Q 58.015625 14.40625 51.78125 6.484375 
Q 45.5625 -1.421875 35.59375 -1.421875 
Q 29.59375 -1.421875 25.265625 0.953125 
Q 20.953125 3.328125 18.109375 8.203125 
L 18.109375 0 
L 9.078125 0 
L 9.078125 75.984375 
L 18.109375 75.984375 
z
" id="DejaVuSans-98"/>
       <path d="M 41.109375 46.296875 
Q 39.59375 47.171875 37.8125 47.578125 
Q 36.03125 48 33.890625 48 
Q 26.265625 48 22.1875 43.046875 
Q 18.109375 38.09375 18.109375 28.8125 
L 18.109375 0 
L 9.078125 0 
L 9.078125 54.6875 
L 18.109375 54.6875 
L 18.109375 46.1875 
Q 20.953125 51.171875 25.484375 53.578125 
Q 30.03125 56 36.53125 56 
Q 37.453125 56 38.578125 55.875 
Q 39.703125 55.765625 41.0625 55.515625 
z
" id="DejaVuSans-114"/>
       <path d="M 34.28125 27.484375 
Q 23.390625 27.484375 19.1875 25 
Q 14.984375 22.515625 14.984375 16.5 
Q 14.984375 11.71875 18.140625 8.90625 
Q 21.296875 6.109375 26.703125 6.109375 
Q 34.1875 6.109375 38.703125 11.40625 
Q 43.21875 16.703125 43.21875 25.484375 
L 43.21875 27.484375 
z
M 52.203125 31.203125 
L 52.203125 0 
L 43.21875 0 
L 43.21875 8.296875 
Q 40.140625 3.328125 35.546875 0.953125 
Q 30.953125 -1.421875 24.3125 -1.421875 
Q 15.921875 -1.421875 10.953125 3.296875 
Q 6 8.015625 6 15.921875 
Q 6 25.140625 12.171875 29.828125 
Q 18.359375 34.515625 30.609375 34.515625 
L 43.21875 34.515625 
L 43.21875 35.40625 
Q 43.21875 41.609375 39.140625 45 
Q 35.0625 48.390625 27.6875 48.390625 
Q 23 48.390625 18.546875 47.265625 
Q 14.109375 46.140625 10.015625 43.890625 
L 10.015625 52.203125 
Q 14.9375 54.109375 19.578125 55.046875 
Q 24.21875 56 28.609375 56 
Q 40.484375 56 46.34375 49.84375 
Q 52.203125 43.703125 52.203125 31.203125 
z
" id="DejaVuSans-97"/>
       <path d="M 54.890625 33.015625 
L 54.890625 0 
L 45.90625 0 
L 45.90625 32.71875 
Q 45.90625 40.484375 42.875 44.328125 
Q 39.84375 48.1875 33.796875 48.1875 
Q 26.515625 48.1875 22.3125 43.546875 
Q 18.109375 38.921875 18.109375 30.90625 
L 18.109375 0 
L 9.078125 0 
L 9.078125 54.6875 
L 18.109375 54.6875 
L 18.109375 46.1875 
Q 21.34375 51.125 25.703125 53.5625 
Q 30.078125 56 35.796875 56 
Q 45.21875 56 50.046875 50.171875 
Q 54.890625 44.34375 54.890625 33.015625 
z
" id="DejaVuSans-110"/>
       <path id="DejaVuSans-32"/>
       <path d="M 18.109375 8.203125 
L 18.109375 -20.796875 
L 9.078125 -20.796875 
L 9.078125 54.6875 
L 18.109375 54.6875 
L 18.109375 46.390625 
Q 20.953125 51.265625 25.265625 53.625 
Q 29.59375 56 35.59375 56 
Q 45.5625 56 51.78125 48.09375 
Q 58.015625 40.1875 58.015625 27.296875 
Q 58.015625 14.40625 51.78125 6.484375 
Q 45.5625 -1.421875 35.59375 -1.421875 
Q 29.59375 -1.421875 25.265625 0.953125 
Q 20.953125 3.328125 18.109375 8.203125 
z
M 48.6875 27.296875 
Q 48.6875 37.203125 44.609375 42.84375 
Q 40.53125 48.484375 33.40625 48.484375 
Q 26.265625 48.484375 22.1875 42.84375 
Q 18.109375 37.203125 18.109375 27.296875 
Q 18.109375 17.390625 22.1875 11.75 
Q 26.265625 6.109375 33.40625 6.109375 
Q 40.53125 6.109375 44.609375 11.75 
Q 48.6875 17.390625 48.6875 27.296875 
z
" id="DejaVuSans-112"/>
       <path d="M 30.609375 48.390625 
Q 23.390625 48.390625 19.1875 42.75 
Q 14.984375 37.109375 14.984375 27.296875 
Q 14.984375 17.484375 19.15625 11.84375 
Q 23.34375 6.203125 30.609375 6.203125 
Q 37.796875 6.203125 41.984375 11.859375 
Q 46.1875 17.53125 46.1875 27.296875 
Q 46.1875 37.015625 41.984375 42.703125 
Q 37.796875 48.390625 30.609375 48.390625 
z
M 30.609375 56 
Q 42.328125 56 49.015625 48.375 
Q 55.71875 40.765625 55.71875 27.296875 
Q 55.71875 13.875 49.015625 6.21875 
Q 42.328125 -1.421875 30.609375 -1.421875 
Q 18.84375 -1.421875 12.171875 6.21875 
Q 5.515625 13.875 5.515625 27.296875 
Q 5.515625 40.765625 12.171875 48.375 
Q 18.84375 56 30.609375 56 
z
" id="DejaVuSans-111"/>
       <path d="M 18.3125 70.21875 
L 18.3125 54.6875 
L 36.8125 54.6875 
L 36.8125 47.703125 
L 18.3125 47.703125 
L 18.3125 18.015625 
Q 18.3125 11.328125 20.140625 9.421875 
Q 21.96875 7.515625 27.59375 7.515625 
L 36.8125 7.515625 
L 36.8125 0 
L 27.59375 0 
Q 17.1875 0 13.234375 3.875 
Q 9.28125 7.765625 9.28125 18.015625 
L 9.28125 47.703125 
L 2.6875 47.703125 
L 2.6875 54.6875 
L 9.28125 54.6875 
L 9.28125 70.21875 
z
" id="DejaVuSans-116"/>
       <path d="M 9.421875 75.984375 
L 18.40625 75.984375 
L 18.40625 0 
L 9.421875 0 
z
" id="DejaVuSans-108"/>
       <path d="M 28.609375 0 
L 0.78125 72.90625 
L 11.078125 72.90625 
L 34.1875 11.53125 
L 57.328125 72.90625 
L 67.578125 72.90625 
L 39.796875 0 
z
" id="DejaVuSans-86"/>
      </defs>
      <use xlink:href="#DejaVuSans-77"/>
      <use x="86.279297" xlink:href="#DejaVuSans-101"/>
      <use x="147.802734" xlink:href="#DejaVuSans-109"/>
      <use x="245.214844" xlink:href="#DejaVuSans-98"/>
      <use x="308.691406" xlink:href="#DejaVuSans-114"/>
      <use x="349.804688" xlink:href="#DejaVuSans-97"/>
      <use x="411.083984" xlink:href="#DejaVuSans-110"/>
      <use x="474.462891" xlink:href="#DejaVuSans-101"/>
      <use x="535.986328" xlink:href="#DejaVuSans-32"/>
      <use x="567.773438" xlink:href="#DejaVuSans-112"/>
      <use x="631.25" xlink:href="#DejaVuSans-111"/>
      <use x="692.431641" xlink:href="#DejaVuSans-116"/>
      <use x="731.640625" xlink:href="#DejaVuSans-101"/>
      <use x="793.164062" xlink:href="#DejaVuSans-110"/>
      <use x="856.542969" xlink:href="#DejaVuSans-116"/>
      <use x="895.751953" xlink:href="#DejaVuSans-105"/>
      <use x="923.535156" xlink:href="#DejaVuSans-97"/>
      <use x="984.814453" xlink:href="#DejaVuSans-108"/>
      <use x="1012.597656" xlink:href="#DejaVuSans-32"/>
      <use x="1044.384766" xlink:href="#DejaVuSans-40"/>
      <use x="1083.398438" xlink:href="#DejaVuSans-109"/>
      <use x="1180.810547" xlink:href="#DejaVuSans-86"/>
      <use x="1249.21875" xlink:href="#DejaVuSans-41"/>
     </g>
    </g>
   </g>
   <g id="line2d_15">
    <path clip-path="url(#p306c71ee1e)" d="M 69.218182 128.784 
L 69.319636 122.965041 
L 69.352609 123.103855 
L 69.522545 125.302561 
L 70.047573 131.219355 
L 70.542164 134.407551 
L 71.039291 136.279139 
L 71.544027 137.374458 
L 72.074127 138.021238 
L 72.682855 138.415471 
L 73.096282 138.562234 
L 73.106427 138.499304 
L 73.177445 136.370149 
L 73.522391 127.09414 
L 73.730373 126.060912 
L 73.824218 126.131333 
L 73.994155 126.698149 
L 74.460845 129.286923 
L 74.643464 130.229405 
L 74.689118 129.983794 
L 74.853982 127.107167 
L 75.135518 123.999666 
L 75.275018 123.745174 
L 75.305455 123.764547 
L 75.432273 124.05322 
L 75.703664 125.36587 
L 76.505155 130.140281 
L 76.5711 129.781193 
L 76.801909 126.297135 
L 77.078373 123.919057 
L 77.202655 123.754475 
L 77.238164 123.780642 
L 77.375127 124.10608 
L 77.666809 125.512016 
L 78.016827 127.613096 
L 78.0498 127.073449 
L 78.564682 114.584934 
L 78.6078 114.593941 
L 78.640773 114.657864 
L 78.780273 115.335326 
L 79.127755 118.413426 
L 80.0865 126.84779 
L 80.3376 128.349104 
L 80.378182 128.09849 
L 80.540509 124.964261 
L 80.849945 120.79552 
L 81.017345 120.380637 
L 81.0351 120.387829 
L 81.144164 120.58801 
L 81.347073 121.419166 
L 81.385118 120.976414 
L 81.897464 112.978531 
L 81.976091 113.061522 
L 82.125736 113.719213 
L 82.480827 116.541896 
L 83.525809 124.931508 
L 83.586682 125.264339 
L 83.624727 124.879754 
L 84.177655 116.089039 
L 84.185264 116.09061 
L 84.276573 116.241922 
L 84.471873 117.13532 
L 84.636736 118.04911 
L 84.69 117.786977 
L 84.930955 114.561247 
L 85.166836 113.1777 
L 85.230245 113.178967 
L 85.265755 113.232734 
L 85.372282 113.515182 
L 85.412864 113.284125 
L 85.537145 110.662894 
L 85.884627 104.457129 
L 86.024127 104.023607 
L 86.0571 104.050382 
L 86.166164 104.409795 
L 86.396973 106.122321 
L 86.995555 112.754139 
L 87.857918 121.379893 
L 88.126773 123.377013 
L 88.157209 122.950613 
L 88.626436 114.273622 
L 88.674627 114.270049 
L 88.715209 114.337591 
L 88.862318 114.975143 
L 89.235164 117.857723 
L 90.168545 124.901971 
L 90.625091 127.237787 
L 90.645382 127.107742 
L 90.751909 124.418751 
L 91.203382 114.074493 
L 91.489991 110.346339 
L 91.639636 109.977375 
L 91.667536 109.993574 
L 91.779136 110.262324 
L 92.009945 111.537513 
L 92.618673 116.5495 
L 93.496255 123.072851 
L 93.678873 124.077694 
L 93.714382 123.746152 
L 94.297745 114.873671 
L 94.320573 114.882375 
L 94.4271 115.095589 
L 94.655373 116.181102 
L 96.570327 126.906245 
L 97.138473 128.493124 
L 97.148618 128.483436 
L 97.206955 128.173618 
L 97.381964 125.558707 
L 97.724373 121.667047 
L 97.9425 121.104525 
L 98.064245 121.185437 
L 98.264618 121.68757 
L 98.698336 123.521041 
L 99.804191 128.199737 
L 100.473791 130.038785 
L 101.151 131.27583 
L 101.9043 132.195424 
L 102.830073 132.967858 
L 104.105864 133.726616 
L 104.661327 133.985999 
L 104.676545 133.900251 
L 104.752636 132.08538 
L 105.272591 117.871839 
L 105.478036 117.036021 
L 105.569345 117.128409 
L 105.630218 117.268807 
L 105.665727 117.07445 
L 105.792545 114.459054 
L 106.076618 110.292093 
L 106.223727 109.1551 
L 106.459609 101.904536 
L 106.743682 96.142881 
L 106.850209 95.785783 
L 106.895864 95.848536 
L 107.015073 96.466332 
L 107.281391 99.292324 
L 107.337191 99.909659 
L 107.387918 99.265374 
L 107.961136 88.696771 
L 108.011864 88.778533 
L 108.136145 89.536661 
L 108.410073 92.913138 
L 110.167773 117.353643 
L 110.812009 122.393365 
L 111.433418 125.614479 
L 112.0599 127.756603 
L 112.721891 129.262746 
L 113.018645 129.750224 
L 113.049082 129.654702 
L 113.142927 128.386355 
L 113.619764 121.362255 
L 113.820136 120.902182 
L 113.934273 121.024358 
L 114.147327 121.68225 
L 114.685036 124.282809 
L 115.002082 125.831063 
L 115.024909 125.502925 
L 115.136509 120.057779 
L 115.846691 79.334379 
L 116.0775 74.557057 
L 116.270264 73.01689 
L 116.597455 68.846078 
L 116.632964 68.869577 
L 116.658327 68.939601 
L 116.780073 69.803962 
L 117.041318 73.617383 
L 119.260636 111.097236 
L 119.339264 111.881222 
L 119.387455 111.277656 
L 119.585291 105.047543 
L 119.879509 97.152376 
L 120.019009 96.490621 
L 120.051982 96.522695 
L 120.155973 96.962524 
L 120.391855 99.163977 
L 121.764027 115.092603 
L 121.829973 114.476679 
L 122.253545 109.403104 
L 122.316955 109.37811 
L 122.360073 109.436626 
L 122.507182 109.980285 
L 122.768427 111.56784 
L 122.8293 111.101718 
L 123.326427 105.405762 
L 123.339109 105.408976 
L 123.430418 105.575074 
L 123.501436 105.72736 
L 123.549627 105.587159 
L 123.6942 104.171445 
L 123.892036 100.627684 
L 124.262345 93.524176 
L 124.394236 93.108591 
L 124.429745 93.142501 
L 124.541345 93.558276 
L 124.904045 95.855155 
L 125.030864 95.665936 
L 125.2008 95.498631 
L 125.2287 95.520402 
L 125.352982 95.816717 
L 125.573645 97.046229 
L 126.027655 101.128883 
L 127.4049 114.144306 
L 127.420118 114.044038 
L 127.521573 111.04591 
L 128.2419 90.631514 
L 128.439736 89.680684 
L 128.442273 89.681085 
L 128.5209 89.811719 
L 128.685764 90.66271 
L 129.043391 93.945649 
L 131.102918 114.658504 
L 131.858755 119.453745 
L 131.901873 119.622647 
L 131.944991 119.332087 
L 132.112391 115.537024 
L 132.381245 112.014201 
L 132.530891 111.684359 
L 132.556255 111.698641 
L 132.675464 111.957769 
L 132.918955 113.09328 
L 132.954464 112.52631 
L 133.426227 102.502738 
L 133.469345 102.488669 
L 133.515 102.567584 
L 133.580945 102.743975 
L 133.618991 102.550874 
L 133.7382 100.277086 
L 134.070464 94.99521 
L 134.169382 94.760875 
L 134.217573 94.820214 
L 134.341855 95.377332 
L 134.610709 97.838572 
L 134.892245 100.786227 
L 134.958191 100.480498 
L 135.371618 97.544072 
L 135.414736 97.583819 
L 135.536482 98.009442 
L 135.787582 99.892197 
L 136.523127 107.759797 
L 137.377882 115.693679 
L 138.080455 120.257144 
L 138.762736 123.30802 
L 139.462773 125.466384 
L 140.221145 127.10523 
L 140.269336 127.19222 
L 140.287091 127.020153 
L 140.418982 122.361913 
L 140.695445 116.372046 
L 140.956691 112.9444 
L 141.255982 106.419162 
L 141.395482 105.92381 
L 141.425918 105.948673 
L 141.532445 106.300577 
L 141.606 106.603731 
L 141.654191 106.357328 
L 141.938264 102.472623 
L 142.062545 98.373158 
L 142.366909 90.994623 
L 142.483582 90.522395 
L 142.524164 90.578059 
L 142.569818 90.722421 
L 142.597718 90.46601 
L 142.950273 85.001339 
L 143.026364 85.208191 
L 143.181082 86.612893 
L 143.561536 92.628584 
L 143.703573 94.979546 
L 143.7543 94.070417 
L 144.099245 87.330586 
L 144.129682 87.316245 
L 144.1728 87.412966 
L 144.299618 88.315627 
L 144.601445 92.457873 
L 145.887382 111.226251 
L 146.425091 116.296305 
L 146.445382 116.23851 
L 146.531618 115.103676 
L 146.719309 109.438566 
L 147.041427 102.556506 
L 147.251945 101.555785 
L 147.358473 101.43361 
L 147.482755 99.239991 
L 147.759218 95.782067 
L 147.825164 95.69173 
L 147.878427 95.771662 
L 148.015391 96.448602 
L 148.281709 98.783024 
L 148.342582 98.006378 
L 148.682455 93.074172 
L 148.717964 93.065469 
L 148.761082 93.148652 
L 148.895509 93.920646 
L 149.204945 97.316829 
L 150.584727 113.556825 
L 151.272082 118.688108 
L 151.941682 122.103861 
L 152.6265 124.493125 
L 153.359509 126.269327 
L 154.1889 127.703529 
L 155.185691 128.978923 
L 155.627018 129.441981 
L 155.644773 129.348501 
L 155.731009 127.314929 
L 156.116536 118.75566 
L 156.339736 117.689544 
L 156.428509 117.699681 
L 156.453873 117.732964 
L 156.623809 118.205498 
L 157.019482 120.14053 
L 158.064464 125.253777 
L 158.067 125.244861 
L 158.112655 124.19259 
L 158.285127 114.246254 
L 158.619927 96.621222 
L 158.830445 94.310457 
L 158.942045 93.633566 
L 159.1551 90.752994 
L 159.682664 67.556627 
L 159.761291 67.269622 
L 159.814555 67.395464 
L 159.941373 68.474344 
L 160.233055 73.318462 
L 161.942564 104.676239 
L 162.409255 109.541591 
L 162.678109 110.776043 
L 163.264009 115.122462 
L 164.057891 120.233912 
L 164.745245 123.277454 
L 165.442745 125.404911 
L 166.196045 127.011346 
L 167.063482 128.341074 
L 167.809173 129.201237 
L 167.829464 129.166256 
L 167.905555 128.619278 
L 168.6132 121.803841 
L 168.750164 121.832805 
L 168.937855 122.209503 
L 169.325918 123.606279 
L 170.533227 128.154254 
L 170.540836 128.141906 
L 170.583955 127.544767 
L 170.690482 122.298976 
L 171.129273 97.439152 
L 171.355009 94.717024 
L 171.410809 94.64784 
L 171.464073 94.733818 
L 171.601036 95.470381 
L 171.907936 98.635438 
L 171.9612 98.919975 
L 172.017 98.646306 
L 172.346727 96.237789 
L 172.394918 96.297709 
L 172.5192 96.868481 
L 172.785518 99.387358 
L 174.119645 115.130569 
L 174.205882 114.509214 
L 174.588873 111.196129 
L 174.652282 111.201444 
L 174.685255 111.252071 
L 174.8349 111.797069 
L 174.872945 111.897981 
L 174.9186 111.684282 
L 175.080927 109.276629 
L 175.819009 97.885777 
L 175.890027 98.033019 
L 176.044745 99.083932 
L 176.420127 103.560646 
L 177.508227 116.595611 
L 177.873464 119.596721 
L 177.911509 119.385214 
L 178.053545 116.680922 
L 178.641982 104.904458 
L 178.700318 104.939363 
L 178.720609 104.982442 
L 178.865182 105.647891 
L 179.1873 108.077248 
L 179.2431 107.376301 
L 179.7453 98.684431 
L 179.798564 98.654492 
L 179.846755 98.729897 
L 179.986255 99.372406 
L 180.293155 102.06992 
L 180.556936 104.719195 
L 180.617809 104.320479 
L 181.059136 100.130696 
L 181.092109 100.1558 
L 181.221464 100.476118 
L 181.277264 100.229456 
L 181.541045 97.321228 
L 182.002664 91.944636 
L 182.028027 91.963071 
L 182.124409 92.282721 
L 182.329855 93.926302 
L 182.4795 95.541705 
L 182.522618 94.830901 
L 182.905609 87.243996 
L 182.936045 87.24745 
L 182.971555 87.32988 
L 183.098373 88.165122 
L 183.397664 91.984517 
L 184.049509 101.576151 
L 184.112918 101.077945 
L 184.566927 95.884589 
L 184.582145 95.890306 
L 184.668382 96.087451 
L 184.853536 97.222472 
L 185.2695 101.494788 
L 186.512318 114.498967 
L 186.603627 115.186662 
L 186.649282 114.709076 
L 186.773564 110.305266 
L 187.209818 92.878696 
L 187.4457 87.901187 
L 187.699336 83.960212 
L 187.760209 83.851031 
L 187.813473 83.947363 
L 187.945364 84.773859 
L 188.239582 88.367738 
L 189.794373 110.018662 
L 189.829882 109.852433 
L 189.951627 107.721711 
L 190.316864 102.111453 
L 190.540064 100.218503 
L 190.900227 93.258085 
L 191.004218 92.989432 
L 191.049873 93.046408 
L 191.174155 93.603412 
L 191.448082 96.085941 
L 191.536855 96.648636 
L 191.592655 96.465622 
L 191.968036 94.234929 
L 192.046664 94.357846 
L 192.206455 95.151187 
L 192.5514 98.245617 
L 193.431518 106.243691 
L 193.718127 107.456116 
L 194.179745 110.589173 
L 194.248227 109.824063 
L 194.666727 103.740039 
L 194.740282 103.666773 
L 194.796082 103.713205 
L 194.846809 103.673284 
L 194.864564 103.623565 
L 195.009136 102.744761 
L 195.303355 101.409848 
L 195.394664 101.46011 
L 195.404809 101.478294 
L 195.559527 102.013489 
L 195.874036 104.07855 
L 196.2621 107.261871 
L 196.315364 106.711601 
L 196.718645 101.2673 
L 196.771909 101.249687 
L 196.815027 101.315439 
L 196.957064 101.918892 
L 197.274109 104.467192 
L 198.7452 117.239656 
L 199.447773 121.083574 
L 200.145273 123.726812 
L 200.880818 125.674975 
L 201.159818 126.062298 
L 201.169964 126.049581 
L 201.218155 125.689098 
L 201.3678 122.131062 
L 201.700064 116.11707 
L 201.923264 115.15582 
L 202.019645 115.180473 
L 202.0374 115.205283 
L 202.2048 115.67135 
L 202.564964 117.487655 
L 203.341091 121.922054 
L 203.389282 121.639539 
L 203.526245 118.669787 
L 204.071564 106.258464 
L 204.2694 105.59033 
L 204.271936 105.590816 
L 204.365782 105.730631 
L 204.550936 106.541199 
L 204.939 109.458482 
L 206.486182 121.814242 
L 206.742355 123.089374 
L 206.775327 122.82049 
L 207.320645 115.749054 
L 207.361227 115.774984 
L 207.488045 116.105133 
L 207.772118 117.625578 
L 208.7055 123.550448 
L 208.746082 123.111699 
L 209.334518 113.437206 
L 209.420755 113.523238 
L 209.585618 114.156477 
L 210.026945 117.030372 
L 211.079536 123.7157 
L 211.749136 126.516446 
L 211.863273 126.808888 
L 211.911464 126.690763 
L 212.040818 125.552178 
L 212.504973 121.484905 
L 212.801727 119.95746 
L 213.2532 112.51879 
L 213.385091 112.261213 
L 213.418064 112.284847 
L 213.539809 112.598885 
L 213.795982 114.021957 
L 214.2855 117.60079 
L 214.356518 117.096913 
L 214.531527 112.941525 
L 214.937345 99.743454 
L 215.249318 85.195497 
L 215.490273 82.636052 
L 215.761664 81.074714 
L 215.766736 81.075741 
L 215.837755 81.220274 
L 215.982327 82.183136 
L 216.289227 86.078862 
L 217.253045 101.126326 
L 217.316455 99.873901 
L 217.663936 92.625662 
L 217.869382 87.711538 
L 218.110336 84.370275 
L 218.188964 84.278014 
L 218.239691 84.330007 
L 218.348755 84.585763 
L 218.376655 84.366308 
L 218.5263 80.37388 
L 218.797691 75.985628 
L 219.0843 73.710088 
L 219.360764 71.464377 
L 219.414027 71.438317 
L 219.462218 71.510836 
L 219.601718 72.133514 
L 220.007536 74.706319 
L 220.106455 74.623188 
L 220.2003 74.367619 
L 220.355018 72.413954 
L 220.608655 70.443732 
L 220.654309 70.434952 
L 220.697427 70.508078 
L 220.831855 71.156043 
L 221.108318 73.813685 
L 221.747482 82.625176 
L 222.130473 87.752924 
L 222.186273 87.481276 
L 222.619991 83.522843 
L 222.7113 83.692114 
L 222.886309 84.704462 
L 223.030882 85.834154 
L 223.079073 85.369752 
L 223.5483 77.279217 
L 223.619318 77.420579 
L 223.7715 78.428012 
L 224.096155 82.389072 
L 226.181045 110.7254 
L 226.411855 112.747441 
L 226.457509 112.358154 
L 226.642664 107.630784 
L 227.071309 91.944445 
L 227.279291 90.626108 
L 227.347773 90.693551 
L 227.355382 90.71257 
L 227.497418 91.408723 
L 227.799245 94.253088 
L 229.610209 113.29307 
L 229.876527 115.04842 
L 229.922182 114.841472 
L 230.0769 112.521942 
L 230.406627 108.778477 
L 230.574027 108.426145 
L 230.591782 108.433129 
L 230.705918 108.631235 
L 230.934191 109.586676 
L 231.504873 113.214173 
L 232.501664 119.148001 
L 233.252427 122.307899 
L 234.005727 124.557356 
L 234.8199 126.30501 
L 235.750745 127.779757 
L 235.933364 128.008985 
L 235.966336 127.892227 
L 236.067791 126.411706 
L 236.531945 119.338404 
L 236.742464 118.766469 
L 236.8566 118.86036 
L 237.056973 119.424552 
L 237.211691 120.059785 
L 237.239591 119.723902 
L 237.731645 111.37321 
L 237.807736 111.48542 
L 237.9726 112.284889 
L 238.403782 115.808847 
L 239.296582 122.693926 
L 239.580655 124.309298 
L 239.608555 123.966087 
L 239.978864 113.561624 
L 240.275618 106.525727 
L 240.432873 105.865906 
L 240.4557 105.87986 
L 240.552082 106.156886 
L 240.767673 107.627187 
L 241.206464 111.861188 
L 241.269873 111.039642 
L 241.647791 105.38542 
L 241.693445 105.359705 
L 241.741636 105.441512 
L 241.881136 106.149359 
L 241.972445 106.650522 
L 242.028245 106.414423 
L 242.431527 103.316348 
L 242.510155 103.442011 
L 242.667409 104.270455 
L 243.014891 107.57259 
L 243.090982 108.263454 
L 243.149318 107.850641 
L 243.466364 105.258906 
L 243.476509 105.261837 
L 243.555136 105.433889 
L 243.730145 106.520841 
L 244.181618 111.14293 
L 244.737082 116.67649 
L 244.777664 116.51033 
L 244.939991 114.347124 
L 245.221527 111.918184 
L 245.312836 111.81983 
L 245.358491 111.867057 
L 245.497991 112.313209 
L 245.802355 114.212359 
L 247.321636 124.598568 
L 247.973482 127.217574 
L 248.625327 128.961614 
L 249.322827 130.213269 
L 250.126855 131.201864 
L 251.138864 132.085045 
L 252.526255 132.986363 
L 253.046209 133.250528 
L 253.069036 133.174415 
L 253.160345 132.070781 
L 253.6803 124.921498 
L 253.890818 124.465925 
L 254.017636 124.567784 
L 254.240836 125.130341 
L 254.831809 127.42687 
L 255.151391 128.631389 
L 255.179291 128.367033 
L 255.402491 122.423452 
L 255.645982 119.703466 
L 255.747436 119.54393 
L 255.793091 119.586213 
L 255.932591 120.016266 
L 256.277536 121.912706 
L 256.353627 121.381668 
L 257.112 113.186093 
L 257.322518 112.347494 
L 257.408755 112.468759 
L 257.578691 113.230428 
L 257.956609 116.194894 
L 259.133482 125.676664 
L 259.7625 128.85385 
L 260.219045 130.40182 
L 260.241873 130.326642 
L 260.3205 128.971817 
L 260.969809 109.442092 
L 261.286855 98.84681 
L 261.4365 95.077735 
L 261.712964 89.316729 
L 261.791591 89.090271 
L 261.844855 89.186053 
L 262.002109 90.055723 
L 262.263355 93.139331 
L 264.112364 118.224333 
L 264.751527 122.904141 
L 264.827618 123.31119 
L 264.865664 122.936277 
L 265.461709 114.292667 
L 265.553018 114.410497 
L 265.738173 115.142079 
L 266.065364 117.07709 
L 266.128773 116.596658 
L 266.326609 112.336092 
L 266.605609 100.856545 
L 266.917582 88.395056 
L 267.125564 86.724649 
L 267.168682 86.740269 
L 267.199118 86.805595 
L 267.331009 87.513663 
L 267.604936 90.458017 
L 267.635373 90.758774 
L 267.681027 90.082233 
L 268.033582 84.141996 
L 268.089382 84.241976 
L 268.2162 85.137054 
L 268.512955 89.20937 
L 268.784345 92.483058 
L 268.822391 92.440116 
L 269.015155 91.821994 
L 269.461555 81.982189 
L 269.537645 82.164594 
L 269.6949 83.428005 
L 270.072818 88.725673 
L 271.277591 105.904348 
L 272.0106 113.075948 
L 272.705564 117.819358 
L 273.400527 121.10611 
L 274.123391 123.493385 
L 274.909664 125.344077 
L 274.9401 125.377001 
L 274.978145 125.241917 
L 275.087209 123.742894 
L 275.564045 116.869211 
L 275.766955 116.386328 
L 275.881091 116.50595 
L 276.091609 117.160515 
L 276.583664 119.613649 
L 277.052891 121.99078 
L 277.096009 121.802867 
L 277.225364 119.693443 
L 277.588064 114.642858 
L 277.773218 114.161902 
L 277.783364 114.164663 
L 277.889891 114.329776 
L 278.100409 115.182503 
L 278.617827 118.469938 
L 279.556282 124.065729 
L 280.035655 126.050996 
L 280.061018 125.973213 
L 280.149791 124.784763 
L 280.641845 117.509097 
L 280.814318 117.161659 
L 280.829536 117.16727 
L 280.948745 117.359776 
L 281.187164 118.28124 
L 281.230282 118.457386 
L 281.2734 118.173229 
L 281.633564 112.616851 
L 282.011482 105.410231 
L 282.148445 104.995468 
L 282.181418 105.016587 
L 282.201709 105.001442 
L 282.222 104.915882 
L 282.3336 103.500281 
L 282.637964 100.407985 
L 282.711518 100.329296 
L 282.759709 100.392461 
L 282.894136 100.949836 
L 283.178209 103.293716 
L 283.708309 108.978969 
L 283.766645 108.041283 
L 284.182609 99.618532 
L 284.2308 99.573933 
L 284.281527 99.665277 
L 284.418491 100.438307 
L 284.745682 103.879225 
L 285.245345 109.592208 
L 285.303682 109.316273 
L 285.757691 105.796391 
L 285.8211 105.869016 
L 285.965673 106.436433 
L 286.186336 107.96227 
L 286.224382 107.318262 
L 286.718973 95.667265 
L 286.970073 93.937803 
L 287.0208 93.96267 
L 287.046164 94.017926 
L 287.180591 94.714104 
L 287.4672 97.653871 
L 288.372682 109.103019 
L 288.436091 108.185171 
L 288.781036 102.751409 
L 288.844445 102.667082 
L 288.897709 102.747791 
L 289.037209 103.436586 
L 289.369473 106.490456 
L 290.548882 117.740264 
L 291.134782 121.301071 
L 291.139855 121.299033 
L 291.190582 121.113685 
L 291.352909 119.329921 
L 291.6801 116.617009 
L 291.794236 115.904804 
L 291.921055 110.194977 
L 292.2381 99.158654 
L 292.456227 97.481408 
L 292.506955 97.46962 
L 292.550073 97.539485 
L 292.692109 98.171184 
L 292.803709 98.48011 
L 292.8519 98.427964 
L 293.138509 97.934127 
L 293.199382 98.009866 
L 293.349027 98.544416 
L 293.607736 100.196427 
L 293.683827 99.682751 
L 294.038918 96.679245 
L 294.0516 96.684301 
L 294.1353 96.883638 
L 294.317918 98.066634 
L 294.751636 102.723248 
L 295.898073 114.974974 
L 295.994455 115.738427 
L 296.037573 115.262337 
L 296.542309 107.66031 
L 296.600645 107.65382 
L 296.638691 107.710716 
L 296.7858 108.272879 
L 297.125673 110.674292 
L 298.365955 119.822353 
L 298.873227 122.239102 
L 298.893518 122.214275 
L 298.972145 121.7614 
L 299.760955 113.767397 
L 300.222573 99.678695 
L 300.379827 96.783421 
L 300.674045 92.463999 
L 300.760282 92.294071 
L 300.811009 92.364726 
L 300.9429 92.998475 
L 301.224436 95.698501 
L 301.257409 96.012938 
L 301.303064 95.337588 
L 301.635327 90.088792 
L 301.665764 90.091682 
L 301.701273 90.170933 
L 301.828091 90.98092 
L 302.124845 94.666357 
L 303.5097 113.194805 
L 304.189445 118.9343 
L 304.843827 122.687342 
L 305.503282 125.242888 
L 306.195709 127.071886 
L 306.959155 128.475642 
L 307.857027 129.660975 
L 308.980636 130.768231 
L 309.315436 131.03148 
L 309.3408 130.948823 
L 309.432109 129.794985 
L 309.934309 122.714358 
L 310.139755 122.280004 
L 310.253891 122.184244 
L 310.370564 119.396596 
L 310.677464 113.97802 
L 310.827109 113.511712 
L 310.855009 113.528458 
L 310.961536 113.807714 
L 311.197418 115.206207 
L 312.929755 127.097911 
L 313.551164 129.299802 
L 314.185255 130.767471 
L 314.872609 131.812873 
L 315.679173 132.634181 
L 316.729227 133.374447 
L 318.243436 134.152185 
L 319.651118 134.697739 
L 319.661264 134.667671 
L 319.737355 133.926379 
L 320.384127 125.718689 
L 320.541382 125.586058 
L 320.5566 125.594323 
L 320.708782 125.824831 
L 321.010609 126.784785 
L 322.250891 131.492348 
L 322.281327 131.260962 
L 322.423364 127.464461 
L 322.730264 121.785268 
L 322.938245 120.980206 
L 323.034627 121.067553 
L 323.214709 121.666324 
L 323.351673 122.270489 
L 323.394791 121.959325 
L 323.605309 117.485803 
L 323.841191 115.31112 
L 323.914745 115.241827 
L 323.962936 115.299227 
L 324.107509 115.8247 
L 324.437236 118.074426 
L 324.883636 121.608652 
L 324.926755 121.092467 
L 325.426418 112.675564 
L 325.482218 112.690993 
L 325.512655 112.74575 
L 325.6623 113.366458 
L 326.025 116.068965 
L 327.0573 123.779137 
L 327.701536 126.887827 
L 328.330555 128.892322 
L 328.987473 130.274946 
L 329.717945 131.304717 
L 330.603136 132.16384 
L 331.734355 132.94962 
L 331.767327 132.772203 
L 331.868782 130.390893 
L 332.294891 120.516231 
L 332.538382 119.100875 
L 332.639836 119.04415 
L 332.677882 119.079019 
L 332.8326 119.459378 
L 333.149645 120.970229 
L 334.696827 129.084238 
L 335.001191 130.066452 
L 335.026555 129.904876 
L 335.105182 127.301684 
L 335.526218 112.449586 
L 335.749418 110.938371 
L 335.812827 110.917591 
L 335.855945 110.976328 
L 336.000518 111.510413 
L 336.302345 113.662913 
L 337.2687 121.980854 
L 337.337182 121.535004 
L 337.8825 116.18051 
L 337.895182 116.183565 
L 337.981418 116.30176 
L 337.999173 116.126123 
L 338.080336 112.295636 
L 338.465864 94.520241 
L 338.6637 92.9251 
L 338.666236 92.925247 
L 338.727109 93.04501 
L 338.866609 93.989851 
L 339.181118 98.000581 
L 340.342773 114.695966 
L 340.380818 114.27961 
L 340.824682 108.078103 
L 340.898236 108.172318 
L 341.047882 108.902851 
L 341.405509 112.04512 
L 341.714945 114.889076 
L 341.768209 114.535783 
L 342.270409 109.153814 
L 342.313527 109.186241 
L 342.440345 109.560452 
L 342.711736 111.221381 
L 344.512555 123.742912 
L 345.177082 126.288232 
L 345.283609 126.608577 
L 345.306436 126.380558 
L 345.4434 121.251118 
L 345.7224 114.813036 
L 345.9177 113.989797 
L 346.003936 114.113316 
L 346.186555 114.900297 
L 346.432582 116.396839 
L 346.4757 115.942758 
L 346.686218 108.575478 
L 346.942391 104.18172 
L 347.056527 103.858054 
L 347.099645 103.904129 
L 347.221391 104.393988 
L 347.3685 105.185786 
L 347.429373 104.97751 
L 347.812364 101.959917 
L 348.380509 91.908349 
L 348.4008 91.91989 
L 348.489573 92.185884 
L 348.682336 93.652337 
L 349.103373 98.671409 
L 349.192145 97.643349 
L 349.483827 94.546776 
L 349.524409 94.527748 
L 349.5726 94.613769 
L 349.707027 95.35205 
L 350.008855 98.551959 
L 351.439364 114.995937 
L 352.004973 119.11047 
L 352.022727 119.042667 
L 352.116573 117.493393 
L 352.441227 113.072106 
L 352.611164 112.659108 
L 352.626382 112.664808 
L 352.735445 112.857065 
L 352.958645 113.825535 
L 353.572445 117.824143 
L 354.264873 121.900774 
L 354.285164 121.853107 
L 354.366327 120.913564 
L 354.830482 115.094105 
L 355.010564 114.770661 
L 355.020709 114.774209 
L 355.142455 114.952498 
L 355.3758 115.792265 
L 355.946482 118.9143 
L 356.900155 123.766698 
L 357.6078 126.249702 
L 358.315445 127.958324 
L 359.0865 129.25276 
L 359.994518 130.341731 
L 360.374973 130.704651 
L 360.3978 130.609827 
L 360.489109 128.994321 
L 360.953264 120.376947 
L 361.075009 118.219755 
L 361.4859 111.078239 
L 361.650764 110.603778 
L 361.671055 110.613133 
L 361.704027 110.634357 
L 361.726855 110.534834 
L 361.823236 108.863047 
L 362.160573 103.692814 
L 362.226518 102.866987 
L 362.617118 95.051393 
L 362.650091 95.036514 
L 362.695745 95.129601 
L 362.827636 95.968001 
L 363.139609 99.735748 
L 364.420473 116.117303 
L 365.079927 121.447779 
L 365.711482 124.853948 
L 366.345573 127.120402 
L 367.012636 128.712907 
L 367.753255 129.917409 
L 368.635909 130.926383 
L 368.760191 131.042365 
L 368.777945 130.933239 
L 368.871791 128.502989 
L 369.229418 120.394848 
L 369.450082 119.304521 
L 369.536318 119.317064 
L 369.561682 119.351819 
L 369.729082 119.832907 
L 370.132364 121.851 
L 370.363173 123.079533 
L 370.403755 122.765016 
L 370.979509 115.503604 
L 371.030236 115.545091 
L 371.164664 115.953669 
L 371.466491 117.753365 
L 372.364364 123.929841 
L 372.3948 123.512497 
L 373.252091 105.592048 
L 373.411882 104.963411 
L 373.434709 104.975836 
L 373.528555 105.230027 
L 373.581818 105.495308 
L 373.581818 105.495308 
" style="fill:none;stroke:#000000;stroke-linecap:square;stroke-width:1.5;"/>
   </g>
   <g id="line2d_16">
    <path clip-path="url(#p306c71ee1e)" d="M 69.218182 128.784 
L 69.319636 122.965041 
L 69.352609 123.103855 
L 69.522545 125.302561 
L 70.047573 131.219355 
L 70.542164 134.407551 
L 71.039291 136.279139 
L 71.544027 137.374458 
L 72.074127 138.021238 
L 72.682855 138.415471 
L 73.096282 138.562234 
L 73.106427 138.499304 
L 73.177445 136.370149 
L 73.522391 127.09414 
L 73.730373 126.060912 
L 73.824218 126.131333 
L 73.994155 126.698149 
L 74.460845 129.286923 
L 74.643464 130.229405 
L 74.689118 129.983794 
L 74.853982 127.107167 
L 75.135518 123.999666 
L 75.275018 123.745174 
L 75.305455 123.764547 
L 75.432273 124.05322 
L 75.703664 125.36587 
L 76.505155 130.140281 
L 76.5711 129.781193 
L 76.801909 126.297135 
L 77.078373 123.919057 
L 77.202655 123.754475 
L 77.238164 123.780642 
L 77.375127 124.10608 
L 77.666809 125.512016 
L 78.016827 127.613096 
L 78.0498 127.073449 
L 78.564682 114.584934 
L 78.6078 114.593941 
L 78.640773 114.657864 
L 78.780273 115.335326 
L 79.127755 118.413426 
L 80.0865 126.84779 
L 80.3376 128.349104 
L 80.378182 128.09849 
L 80.540509 124.964261 
L 80.849945 120.79552 
L 81.017345 120.380637 
L 81.0351 120.387829 
L 81.144164 120.58801 
L 81.347073 121.419166 
L 81.385118 120.976414 
L 81.897464 112.978531 
L 81.976091 113.061522 
L 82.125736 113.719213 
L 82.480827 116.541896 
L 83.525809 124.931508 
L 83.586682 125.264339 
L 83.624727 124.879754 
L 84.177655 116.089039 
L 84.185264 116.09061 
L 84.276573 116.241922 
L 84.471873 117.13532 
L 84.636736 118.04911 
L 84.69 117.786977 
L 84.930955 114.561247 
L 85.166836 113.1777 
L 85.230245 113.178967 
L 85.265755 113.232734 
L 85.372282 113.515182 
L 85.412864 113.284125 
L 85.537145 110.662894 
L 85.884627 104.457129 
L 86.024127 104.023607 
L 86.0571 104.050382 
L 86.166164 104.409795 
L 86.396973 106.122321 
L 86.995555 112.754139 
L 87.857918 121.379893 
L 88.126773 123.377013 
L 88.157209 122.950613 
L 88.626436 114.273622 
L 88.674627 114.270049 
L 88.715209 114.337591 
L 88.862318 114.975143 
L 89.235164 117.857723 
L 90.168545 124.901971 
L 90.625091 127.237787 
L 90.645382 127.107742 
L 90.751909 124.418751 
L 91.203382 114.074493 
L 91.489991 110.346339 
L 91.639636 109.977375 
L 91.667536 109.993574 
L 91.779136 110.262324 
L 92.009945 111.537513 
L 92.618673 116.5495 
L 93.496255 123.072851 
L 93.678873 124.077694 
L 93.714382 123.746152 
L 94.297745 114.873671 
L 94.320573 114.882375 
L 94.4271 115.095589 
L 94.655373 116.181102 
L 96.570327 126.906245 
L 97.138473 128.493124 
L 97.148618 128.483436 
L 97.206955 128.173618 
L 97.381964 125.558707 
L 97.724373 121.667047 
L 97.9425 121.104525 
L 98.064245 121.185437 
L 98.264618 121.68757 
L 98.698336 123.521041 
L 99.804191 128.199737 
L 100.473791 130.038785 
L 101.151 131.27583 
L 101.9043 132.195424 
L 102.830073 132.967858 
L 104.105864 133.726616 
L 104.661327 133.985999 
L 104.676545 133.900251 
L 104.752636 132.08538 
L 105.272591 117.871839 
L 105.478036 117.036021 
L 105.569345 117.128409 
L 105.630218 117.268807 
L 105.665727 117.07445 
L 105.792545 114.459054 
L 106.076618 110.292093 
L 106.223727 109.1551 
L 106.459609 101.904536 
L 106.743682 96.142881 
L 106.850209 95.785783 
L 106.895864 95.848536 
L 107.015073 96.466332 
L 107.281391 99.292324 
L 107.337191 99.909659 
L 107.387918 99.265374 
L 107.961136 88.696771 
L 108.011864 88.778533 
L 108.136145 89.536661 
L 108.410073 92.913138 
L 110.167773 117.353643 
L 110.812009 122.393365 
L 111.433418 125.614479 
L 112.0599 127.756603 
L 112.721891 129.262746 
L 113.018645 129.750224 
L 113.049082 129.654702 
L 113.142927 128.386355 
L 113.619764 121.362255 
L 113.820136 120.902182 
L 113.934273 121.024358 
L 114.147327 121.68225 
L 114.685036 124.282809 
L 115.002082 125.831063 
L 115.024909 125.502925 
L 115.136509 120.057779 
L 115.846691 79.334379 
L 116.0775 74.557057 
L 116.270264 73.01689 
L 116.597455 68.846078 
L 116.632964 68.869577 
L 116.658327 68.939601 
L 116.780073 69.803962 
L 117.041318 73.617383 
L 119.260636 111.097236 
L 119.339264 111.881222 
L 119.387455 111.277656 
L 119.585291 105.047543 
L 119.879509 97.152376 
L 120.019009 96.490621 
L 120.051982 96.522695 
L 120.155973 96.962524 
L 120.391855 99.163977 
L 121.764027 115.092603 
L 121.829973 114.476679 
L 122.253545 109.403104 
L 122.316955 109.37811 
L 122.360073 109.436626 
L 122.507182 109.980285 
L 122.768427 111.56784 
L 122.8293 111.101718 
L 123.326427 105.405762 
L 123.339109 105.408976 
L 123.430418 105.575074 
L 123.501436 105.72736 
L 123.549627 105.587159 
L 123.6942 104.171445 
L 123.892036 100.627684 
L 124.262345 93.524176 
L 124.394236 93.108591 
L 124.429745 93.142501 
L 124.541345 93.558276 
L 124.904045 95.855155 
L 125.030864 95.665936 
L 125.2008 95.498631 
L 125.2287 95.520402 
L 125.352982 95.816717 
L 125.573645 97.046229 
L 126.027655 101.128883 
L 127.4049 114.144306 
L 127.420118 114.044038 
L 127.521573 111.04591 
L 128.2419 90.631514 
L 128.439736 89.680684 
L 128.442273 89.681085 
L 128.5209 89.811719 
L 128.685764 90.66271 
L 129.043391 93.945649 
L 131.102918 114.658504 
L 131.858755 119.453745 
L 131.901873 119.622647 
L 131.944991 119.332087 
L 132.112391 115.537024 
L 132.381245 112.014201 
L 132.530891 111.684359 
L 132.556255 111.698641 
L 132.675464 111.957769 
L 132.918955 113.09328 
L 132.954464 112.52631 
L 133.426227 102.502738 
L 133.469345 102.488669 
L 133.515 102.567584 
L 133.580945 102.743975 
L 133.618991 102.550874 
L 133.7382 100.277086 
L 134.070464 94.99521 
L 134.169382 94.760875 
L 134.217573 94.820214 
L 134.341855 95.377332 
L 134.610709 97.838572 
L 134.892245 100.786227 
L 134.958191 100.480498 
L 135.371618 97.544072 
L 135.414736 97.583819 
L 135.536482 98.009442 
L 135.787582 99.892197 
L 136.523127 107.759797 
L 137.377882 115.693679 
L 138.080455 120.257144 
L 138.762736 123.30802 
L 139.462773 125.466384 
L 140.221145 127.10523 
L 140.269336 127.192174 
L 140.287091 127.02006 
L 140.418982 122.36131 
L 140.695445 116.370354 
L 140.956691 112.942291 
L 141.255982 106.418148 
L 141.395482 105.924022 
L 141.425918 105.949189 
L 141.532445 106.302216 
L 141.606 106.606168 
L 141.654191 106.360291 
L 141.938264 102.480117 
L 142.062545 98.383564 
L 142.366909 91.016254 
L 142.483582 90.549666 
L 142.524164 90.607345 
L 142.569818 90.75397 
L 142.597718 90.498908 
L 142.950273 85.052427 
L 143.026364 85.263621 
L 143.183618 86.70809 
L 143.571682 92.887864 
L 143.703573 95.063233 
L 143.7543 94.15485 
L 144.099245 87.423834 
L 144.127145 87.409046 
L 144.1728 87.509219 
L 144.299618 88.417219 
L 144.603982 92.610523 
L 145.872164 111.150559 
L 146.425091 116.365325 
L 146.442845 116.319877 
L 146.524009 115.306752 
L 146.699018 110.166016 
L 147.033818 102.699522 
L 147.246873 101.634938 
L 147.361009 101.49433 
L 147.495436 99.07008 
L 147.761755 95.887026 
L 147.825164 95.809798 
L 147.875891 95.887292 
L 148.012855 96.563327 
L 148.281709 98.928878 
L 148.345118 98.099333 
L 148.677382 93.243154 
L 148.715427 93.22727 
L 148.761082 93.314846 
L 148.895509 94.094051 
L 149.207482 97.533917 
L 150.5619 113.48781 
L 151.246718 118.61777 
L 151.913782 122.028532 
L 152.596064 124.411415 
L 153.326536 126.180801 
L 154.153391 127.608029 
L 155.147645 128.876243 
L 155.627018 129.375828 
L 155.644773 129.282138 
L 155.731009 127.24753 
L 156.116536 118.694828 
L 156.3372 117.642805 
L 156.425973 117.652678 
L 156.451336 117.686121 
L 156.618736 118.151681 
L 157.011873 120.076381 
L 158.064464 125.223725 
L 158.0949 124.713358 
L 158.239473 117.64919 
L 158.660509 95.811875 
L 158.860882 94.259356 
L 158.992773 93.227606 
L 159.160173 90.601673 
L 159.659836 68.102887 
L 159.756218 67.658065 
L 159.804409 67.765795 
L 159.926155 68.765099 
L 160.205155 73.339647 
L 161.955245 105.339831 
L 162.409255 109.937307 
L 162.667964 111.056981 
L 163.195527 114.855574 
L 164.017309 120.147917 
L 164.704664 123.184038 
L 165.402164 125.303926 
L 166.155464 126.902608 
L 167.0229 128.225091 
L 167.809173 129.123935 
L 167.826927 129.095384 
L 167.900482 128.596824 
L 168.636027 121.744679 
L 168.765382 121.812257 
L 168.968291 122.264152 
L 169.407082 123.914652 
L 170.507864 128.043089 
L 170.533227 128.100884 
L 170.563664 127.883363 
L 170.652436 124.853762 
L 171.245945 95.513228 
L 171.400664 94.761687 
L 171.426027 94.781383 
L 171.522409 95.121963 
L 171.735464 96.893039 
L 171.9612 99.162557 
L 172.027145 98.803603 
L 172.341655 96.526449 
L 172.374627 96.553198 
L 172.478618 96.930409 
L 172.701818 98.791372 
L 173.302936 106.296934 
L 174.114573 115.357725 
L 174.129791 115.344323 
L 174.150082 115.258444 
L 174.274364 113.805517 
L 174.5559 111.436041 
L 174.631991 111.370832 
L 174.680182 111.425434 
L 174.824755 111.924476 
L 174.870409 112.07349 
L 174.9186 111.856865 
L 175.083464 109.401542 
L 175.816473 98.082189 
L 175.890027 98.236393 
L 176.047282 99.323849 
L 176.432809 103.961793 
L 177.482864 116.517699 
L 177.870927 119.720009 
L 177.908973 119.529891 
L 178.0434 117.027764 
L 178.654664 105.028873 
L 178.667345 105.032413 
L 178.751045 105.210035 
L 178.933664 106.276606 
L 179.1873 108.230195 
L 179.232955 107.738065 
L 179.780809 98.873201 
L 179.796027 98.879476 
L 179.882264 99.084862 
L 180.069955 100.258149 
L 180.516355 104.809419 
L 180.556936 105.025337 
L 180.612736 104.681322 
L 181.059136 100.438982 
L 181.107327 100.491588 
L 181.218927 100.791913 
L 181.272191 100.582568 
L 181.505536 98.085261 
L 181.705909 94.76676 
L 181.959545 92.370024 
L 182.007736 92.33716 
L 182.055927 92.414755 
L 182.187818 93.086679 
L 182.4795 95.972533 
L 182.537836 94.813068 
L 182.872636 87.757754 
L 182.923364 87.679844 
L 182.976627 87.793504 
L 183.111055 88.73987 
L 183.433173 92.984391 
L 184.049509 102.004976 
L 184.107845 101.570751 
L 184.566927 96.305226 
L 184.597364 96.327389 
L 184.701355 96.653035 
L 184.924555 98.260239 
L 185.487627 104.413389 
L 186.453982 114.263611 
L 186.603627 115.422831 
L 186.646745 114.985039 
L 186.768491 110.78517 
L 187.214891 93.061978 
L 187.433018 88.56598 
L 187.691727 84.358919 
L 187.757673 84.23136 
L 187.810936 84.330804 
L 187.942827 85.166768 
L 188.237045 88.778835 
L 189.794373 110.345984 
L 189.822273 110.237148 
L 189.926264 108.576288 
L 190.329545 102.325494 
L 190.529918 100.77846 
L 190.912909 93.492306 
L 191.001682 93.297664 
L 191.052409 93.365198 
L 191.181764 93.976346 
L 191.475982 96.70626 
L 191.539391 96.987297 
L 191.595191 96.789459 
L 191.9655 94.594671 
L 192.036518 94.697424 
L 192.1887 95.413866 
L 192.515891 98.268612 
L 193.441664 106.597614 
L 193.720664 107.769595 
L 194.179745 110.847027 
L 194.245691 110.124107 
L 194.674336 103.95128 
L 194.742818 103.896364 
L 194.798618 103.942119 
L 194.856955 103.874155 
L 194.864564 103.850439 
L 195.009136 102.970445 
L 195.300818 101.648512 
L 195.392127 101.699655 
L 195.399736 101.713203 
L 195.554455 102.244446 
L 195.868964 104.304845 
L 196.2621 107.518857 
L 196.315364 106.965717 
L 196.718645 101.512146 
L 196.771909 101.494675 
L 196.815027 101.560541 
L 196.957064 102.163934 
L 197.276645 104.730695 
L 198.7173 117.192957 
L 199.417336 121.023154 
L 200.114836 123.662716 
L 200.847845 125.599096 
L 201.159818 126.049352 
L 201.167427 126.041055 
L 201.213082 125.739271 
L 201.347509 122.669493 
L 201.694991 116.157986 
L 201.918191 115.170577 
L 202.012036 115.186479 
L 202.032327 115.213402 
L 202.197191 115.664359 
L 202.549745 117.426643 
L 203.341091 121.937829 
L 203.389282 121.654043 
L 203.526245 118.682385 
L 204.069027 106.345345 
L 204.264327 105.68717 
L 204.266864 105.68762 
L 204.358173 105.820274 
L 204.538255 106.594624 
L 204.918709 109.42573 
L 206.488718 121.898044 
L 206.742355 123.142477 
L 206.775327 122.871468 
L 207.320645 115.781379 
L 207.361227 115.807107 
L 207.488045 116.136858 
L 207.772118 117.655911 
L 208.7055 123.560696 
L 208.743545 123.169772 
L 209.344664 113.444695 
L 209.354809 113.44683 
L 209.448655 113.605378 
L 209.646491 114.51027 
L 210.328773 119.189838 
L 211.130264 123.970424 
L 211.794791 126.654818 
L 211.863273 126.792174 
L 211.911464 126.672871 
L 212.040818 125.531816 
L 212.502436 121.488887 
L 212.801727 119.967131 
L 213.2532 112.548355 
L 213.382555 112.296613 
L 213.418064 112.322433 
L 213.542345 112.651378 
L 213.803591 114.124037 
L 214.2855 117.650274 
L 214.353982 117.180838 
L 214.518845 113.316035 
L 214.942418 99.44351 
L 215.251855 85.251113 
L 215.492809 82.76278 
L 215.756591 81.280089 
L 215.7642 81.282022 
L 215.835218 81.435447 
L 215.982327 82.444013 
L 216.296836 86.510738 
L 217.253045 101.446101 
L 217.313918 100.264999 
L 217.669009 92.83886 
L 217.897282 87.337374 
L 218.120482 84.740237 
L 218.181355 84.698291 
L 218.232082 84.757948 
L 218.348755 85.059231 
L 218.379191 84.808387 
L 218.549127 80.286573 
L 218.807836 76.51414 
L 219.053864 74.777358 
L 219.355691 72.229534 
L 219.406418 72.209946 
L 219.452073 72.280405 
L 219.589036 72.896471 
L 220.020218 75.674601 
L 220.126745 75.604362 
L 220.195227 75.423606 
L 220.327118 73.866185 
L 220.598509 71.603365 
L 220.6467 71.589771 
L 220.689818 71.662679 
L 220.824245 72.315629 
L 221.100709 74.995647 
L 221.755091 84.05125 
L 222.130473 89.031094 
L 222.183736 88.773182 
L 222.619991 84.758087 
L 222.718909 84.951021 
L 222.901527 86.041012 
L 223.030882 87.034442 
L 223.079073 86.561233 
L 223.5483 78.411452 
L 223.619318 78.546739 
L 223.768964 79.515561 
L 224.091082 83.378622 
L 226.155682 110.994464 
L 226.411855 113.193168 
L 226.454973 112.831622 
L 226.637591 108.262583 
L 227.086527 92.094425 
L 227.289436 90.9643 
L 227.362991 91.072279 
L 227.512636 91.848552 
L 227.832218 94.94175 
L 229.493536 112.55826 
L 229.876527 115.186783 
L 229.917109 115.017531 
L 230.054073 113.039476 
L 230.401555 108.912712 
L 230.576564 108.533288 
L 230.589245 108.538085 
L 230.700845 108.722141 
L 230.924045 109.634047 
L 231.469364 113.062065 
L 232.491518 119.147021 
L 233.242282 122.29654 
L 233.995582 124.537144 
L 234.809755 126.277532 
L 235.743136 127.750186 
L 235.933364 127.988392 
L 235.966336 127.871385 
L 236.067791 126.390195 
L 236.531945 119.322822 
L 236.742464 118.756112 
L 236.8566 118.852459 
L 237.056973 119.41993 
L 237.211691 120.056768 
L 237.239591 119.72108 
L 237.731645 111.376289 
L 237.807736 111.490105 
L 237.9726 112.292894 
L 238.406318 115.844099 
L 239.291509 122.668499 
L 239.580655 124.31092 
L 239.608555 123.967247 
L 239.978864 113.558989 
L 240.275618 106.529939 
L 240.432873 105.87622 
L 240.4557 105.891053 
L 240.552082 106.171626 
L 240.770209 107.670247 
L 241.206464 111.888126 
L 241.269873 111.066595 
L 241.647791 105.415806 
L 241.693445 105.39093 
L 241.741636 105.473628 
L 241.881136 106.183881 
L 241.972445 106.686311 
L 242.028245 106.450848 
L 242.431527 103.360989 
L 242.510155 103.488802 
L 242.669945 104.339345 
L 243.025036 107.737758 
L 243.090982 108.317793 
L 243.149318 107.904664 
L 243.466364 105.311807 
L 243.476509 105.314746 
L 243.555136 105.486897 
L 243.730145 106.573995 
L 244.181618 111.192988 
L 244.737082 116.715228 
L 244.777664 116.548007 
L 244.942527 114.345007 
L 245.221527 111.951057 
L 245.312836 111.853232 
L 245.358491 111.900743 
L 245.497991 112.34756 
L 245.802355 114.246123 
L 247.314027 124.568318 
L 247.963336 127.179661 
L 248.615182 128.926097 
L 249.312682 130.178785 
L 250.116709 131.167749 
L 251.128718 132.051105 
L 252.516109 132.952747 
L 253.046209 133.222477 
L 253.069036 133.146357 
L 253.160345 132.042716 
L 253.6803 124.898245 
L 253.890818 124.445747 
L 254.017636 124.549189 
L 254.240836 125.113833 
L 254.836882 127.432272 
L 255.151391 128.615912 
L 255.179291 128.351471 
L 255.402491 122.407441 
L 255.645982 119.68884 
L 255.747436 119.530277 
L 255.793091 119.57302 
L 255.932591 120.004446 
L 256.277536 121.903274 
L 256.353627 121.372541 
L 257.112 113.1878 
L 257.322518 112.354524 
L 257.408755 112.477803 
L 257.578691 113.242599 
L 257.956609 116.20967 
L 259.128409 125.648365 
L 259.757427 128.827841 
L 260.219045 130.391265 
L 260.239336 130.331986 
L 260.312891 129.149826 
L 260.9343 111.257726 
L 261.286855 98.857849 
L 261.4365 95.096965 
L 261.712964 89.351232 
L 261.791591 89.129076 
L 261.844855 89.22765 
L 262.002109 90.104697 
L 262.265891 93.233815 
L 264.092073 118.079681 
L 264.731236 122.803518 
L 264.827618 123.329241 
L 264.865664 122.95345 
L 265.461709 114.303223 
L 265.553018 114.421031 
L 265.738173 115.152622 
L 266.065364 117.087072 
L 266.128773 116.606396 
L 266.326609 112.345667 
L 266.605609 100.870501 
L 266.917582 88.436385 
L 267.125564 86.785089 
L 267.171218 86.807591 
L 267.196582 86.863613 
L 267.328473 87.565897 
L 267.599864 90.469608 
L 267.635373 90.837117 
L 267.681027 90.160814 
L 268.033582 84.223592 
L 268.089382 84.324449 
L 268.2162 85.221503 
L 268.512955 89.296785 
L 268.784345 92.570013 
L 268.822391 92.526831 
L 269.015155 91.907978 
L 269.461555 82.072687 
L 269.537645 82.256755 
L 269.6949 83.523334 
L 270.075355 88.864477 
L 271.269982 105.893161 
L 272.002991 113.067642 
L 272.697955 117.810112 
L 273.390382 121.084661 
L 274.113245 123.472511 
L 274.899518 125.323184 
L 274.9401 125.376157 
L 274.978145 125.240787 
L 275.087209 123.741024 
L 275.564045 116.868673 
L 275.766955 116.387562 
L 275.881091 116.508042 
L 276.091609 117.163732 
L 276.583664 119.617267 
L 277.052891 121.992833 
L 277.096009 121.804717 
L 277.225364 119.694809 
L 277.588064 114.645767 
L 277.773218 114.166407 
L 277.783364 114.169251 
L 277.889891 114.335166 
L 278.102945 115.202247 
L 278.627973 118.545202 
L 279.556282 124.067229 
L 280.035655 126.049391 
L 280.061018 125.971449 
L 280.149791 124.78247 
L 280.641845 117.507644 
L 280.814318 117.161406 
L 280.829536 117.167118 
L 280.948745 117.360351 
L 281.187164 118.282815 
L 281.230282 118.459072 
L 281.2734 118.174997 
L 281.633564 112.61943 
L 282.011482 105.416504 
L 282.148445 105.003805 
L 282.181418 105.025418 
L 282.201709 105.01057 
L 282.222 104.925303 
L 282.3336 103.51127 
L 282.637964 100.423924 
L 282.708982 100.345516 
L 282.759709 100.410505 
L 282.894136 100.969998 
L 283.178209 103.317072 
L 283.708309 109.003249 
L 283.766645 108.065271 
L 284.182609 99.642723 
L 284.2308 99.598429 
L 284.281527 99.690102 
L 284.418491 100.46395 
L 284.745682 103.905725 
L 285.245345 109.616574 
L 285.303682 109.340177 
L 285.757691 105.819407 
L 285.8211 105.89219 
L 285.965673 106.459894 
L 286.186336 107.985692 
L 286.224382 107.341571 
L 286.718973 95.691531 
L 286.970073 93.964875 
L 287.0208 93.990421 
L 287.046164 94.046018 
L 287.180591 94.743934 
L 287.4672 97.686306 
L 288.372682 109.132104 
L 288.436091 108.213516 
L 288.781036 102.776993 
L 288.844445 102.692454 
L 288.897709 102.77302 
L 289.037209 103.461509 
L 289.369473 106.514369 
L 290.548882 117.754394 
L 291.134782 121.309438 
L 291.139855 121.307353 
L 291.190582 121.121544 
L 291.352909 119.336626 
L 291.677564 116.632063 
L 291.796773 115.849984 
L 291.933736 109.52801 
L 292.240636 99.133201 
L 292.456227 97.501189 
L 292.506955 97.490366 
L 292.550073 97.560948 
L 292.694645 98.208338 
L 292.803709 98.504247 
L 292.8519 98.452409 
L 293.138509 97.960581 
L 293.199382 98.036878 
L 293.349027 98.572886 
L 293.607736 100.226966 
L 293.683827 99.713652 
L 294.038918 96.712581 
L 294.0516 96.717737 
L 294.1353 96.917683 
L 294.317918 98.101585 
L 294.751636 102.757739 
L 295.895536 114.975954 
L 295.994455 115.760053 
L 296.037573 115.283378 
L 296.542309 107.67714 
L 296.600645 107.670484 
L 296.641227 107.732599 
L 296.790873 108.31612 
L 297.138355 110.792484 
L 298.350736 119.742847 
L 298.873227 122.243872 
L 298.890982 122.224249 
L 298.967073 121.809523 
L 299.750809 114.173864 
L 300.242864 99.467923 
L 300.402655 96.267349 
L 300.679118 92.464807 
L 300.760282 92.317819 
L 300.811009 92.389339 
L 300.9429 93.025063 
L 301.224436 95.727841 
L 301.257409 96.042471 
L 301.303064 95.367296 
L 301.635327 90.11978 
L 301.665764 90.122835 
L 301.701273 90.20228 
L 301.828091 91.012934 
L 302.124845 94.69928 
L 303.507164 113.191904 
L 304.186909 118.931503 
L 304.841291 122.683705 
L 305.500745 125.23819 
L 306.193173 127.066224 
L 306.956618 128.46922 
L 307.854491 129.654015 
L 308.980636 130.763152 
L 309.315436 131.026222 
L 309.3408 130.943553 
L 309.432109 129.789678 
L 309.934309 122.709999 
L 310.137218 122.27624 
L 310.253891 122.180935 
L 310.370564 119.393593 
L 310.677464 113.976194 
L 310.827109 113.510627 
L 310.855009 113.527509 
L 310.961536 113.807262 
L 311.197418 115.206631 
L 312.927218 127.085697 
L 313.548627 129.290014 
L 314.182718 130.759105 
L 314.870073 131.805322 
L 315.676636 132.627102 
L 316.726691 133.367667 
L 318.238364 134.144516 
L 319.651118 134.692366 
L 319.658727 134.671245 
L 319.729745 134.032747 
L 320.424709 125.637732 
L 320.559136 125.592939 
L 320.576891 125.607074 
L 320.746827 125.91386 
L 321.094309 127.111356 
L 322.250891 131.489242 
L 322.268645 131.408422 
L 322.352345 129.565363 
L 322.730264 121.782172 
L 322.938245 120.977501 
L 323.034627 121.065041 
L 323.214709 121.664132 
L 323.351673 122.268483 
L 323.394791 121.957367 
L 323.605309 117.484206 
L 323.841191 115.310311 
L 323.914745 115.241261 
L 323.962936 115.298808 
L 324.107509 115.824645 
L 324.437236 118.074792 
L 324.883636 121.608909 
L 324.926755 121.092683 
L 325.426418 112.676001 
L 325.482218 112.691526 
L 325.512655 112.746336 
L 325.6623 113.367283 
L 326.025 116.0701 
L 327.0573 123.779276 
L 327.701536 126.886894 
L 328.330555 128.890492 
L 328.987473 130.272433 
L 329.717945 131.301718 
L 330.603136 132.160517 
L 331.734355 132.946116 
L 331.767327 132.768696 
L 331.868782 130.387385 
L 332.294891 120.513532 
L 332.538382 119.099019 
L 332.639836 119.042618 
L 332.677882 119.077601 
L 332.8326 119.458362 
L 333.149645 120.969728 
L 334.696827 129.082906 
L 335.001191 130.064796 
L 335.026555 129.903194 
L 335.105182 127.29993 
L 335.526218 112.449499 
L 335.749418 110.939436 
L 335.812827 110.918876 
L 335.855945 110.977739 
L 336.000518 111.512132 
L 336.302345 113.664883 
L 337.2687 121.981935 
L 337.337182 121.535974 
L 337.8825 116.181419 
L 337.895182 116.184483 
L 337.981418 116.302741 
L 337.999173 116.127116 
L 338.080336 112.296665 
L 338.465864 94.522519 
L 338.6637 92.928681 
L 338.666236 92.928845 
L 338.727109 93.049013 
L 338.866609 93.994707 
L 339.181118 98.006762 
L 340.342773 114.701257 
L 340.380818 114.284784 
L 340.824682 108.082341 
L 340.898236 108.176493 
L 341.047882 108.906921 
L 341.405509 112.048873 
L 341.714945 114.892387 
L 341.768209 114.539004 
L 342.270409 109.157245 
L 342.313527 109.189726 
L 342.440345 109.564047 
L 342.711736 111.224981 
L 344.510018 123.732045 
L 345.174545 126.280175 
L 345.283609 126.608336 
L 345.306436 126.38029 
L 345.4434 121.250692 
L 345.7224 114.812573 
L 345.9177 113.989498 
L 346.003936 114.113104 
L 346.186555 114.900261 
L 346.432582 116.39697 
L 346.4757 115.942907 
L 346.686218 108.575774 
L 346.942391 104.18257 
L 347.056527 103.859217 
L 347.099645 103.905409 
L 347.221391 104.395581 
L 347.3685 105.187698 
L 347.429373 104.979534 
L 347.812364 101.962704 
L 348.380509 91.913545 
L 348.4008 91.925189 
L 348.489573 92.191604 
L 348.682336 93.658776 
L 349.103373 98.678481 
L 349.192145 97.650406 
L 349.483827 94.553866 
L 349.524409 94.53486 
L 349.5726 94.620911 
L 349.707027 95.359274 
L 350.008855 98.559233 
L 351.439364 115.000421 
L 352.004973 119.113476 
L 352.022727 119.045627 
L 352.116573 117.496118 
L 352.441227 113.0743 
L 352.611164 112.661186 
L 352.626382 112.666878 
L 352.735445 112.859089 
L 352.958645 113.827475 
L 353.572445 117.825685 
L 354.264873 121.901607 
L 354.285164 121.853917 
L 354.366327 120.914287 
L 354.830482 115.094765 
L 355.010564 114.771434 
L 355.020709 114.774989 
L 355.142455 114.953353 
L 355.3758 115.793221 
L 355.946482 118.91521 
L 356.900155 123.766975 
L 357.6078 126.249454 
L 358.315445 127.957662 
L 359.0865 129.25179 
L 359.994518 130.340543 
L 360.374973 130.703403 
L 360.3978 130.608577 
L 360.489109 128.993058 
L 360.953264 120.375917 
L 361.075009 118.218852 
L 361.4859 111.077984 
L 361.650764 110.603834 
L 361.671055 110.613224 
L 361.704027 110.634506 
L 361.726855 110.535022 
L 361.823236 108.863388 
L 362.160573 103.693774 
L 362.226518 102.868077 
L 362.617118 95.053328 
L 362.650091 95.038526 
L 362.695745 95.13172 
L 362.827636 95.970406 
L 363.139609 99.738629 
L 364.420473 116.119546 
L 365.079927 121.449107 
L 365.711482 124.854495 
L 366.345573 127.120357 
L 367.012636 128.712437 
L 367.753255 129.916646 
L 368.635909 130.925426 
L 368.760191 131.04139 
L 368.777945 130.932262 
L 368.871791 128.501998 
L 369.229418 120.393931 
L 369.450082 119.303748 
L 369.536318 119.316352 
L 369.561682 119.351124 
L 369.729082 119.832318 
L 370.132364 121.850572 
L 370.363173 123.079138 
L 370.403755 122.764623 
L 370.979509 115.503415 
L 371.030236 115.544935 
L 371.164664 115.953595 
L 371.466491 117.753415 
L 372.364364 123.929791 
L 372.3948 123.512436 
L 373.252091 105.592303 
L 373.411882 104.963917 
L 373.434709 104.976377 
L 373.528555 105.230703 
L 373.581818 105.496052 
L 373.581818 105.496052 
" style="fill:none;stroke:#ff0000;stroke-linecap:square;stroke-width:1.5;"/>
   </g>
   <g id="line2d_17">
    <path clip-path="url(#p306c71ee1e)" d="M 322.854545 70.8 
L 373.480364 70.8 
L 373.480364 70.8 
" style="fill:none;stroke:#000000;stroke-linecap:square;stroke-width:1.5;"/>
   </g>
   <g id="line2d_18">
    <path clip-path="url(#p306c71ee1e)" d="M 322.854545 107.04 
L 322.854545 99.792 
L 322.854545 92.544 
L 322.854545 85.296 
L 322.854545 78.048 
" style="fill:none;stroke:#000000;stroke-linecap:square;stroke-width:1.5;"/>
   </g>
   <g id="patch_3">
    <path d="M 54 252 
L 54 34.56 
" style="fill:none;stroke:#000000;stroke-linecap:square;stroke-linejoin:miter;stroke-width:0.8;"/>
   </g>
   <g id="patch_4">
    <path d="M 54 252 
L 388.8 252 
" style="fill:none;stroke:#000000;stroke-linecap:square;stroke-linejoin:miter;stroke-width:0.8;"/>
   </g>
   <g id="text_17">
    <!-- 500 ms -->
    <g transform="translate(322.854545 63.552)scale(0.1 -0.1)">
     <use xlink:href="#DejaVuSans-53"/>
     <use x="63.623047" xlink:href="#DejaVuSans-48"/>
     <use x="127.246094" xlink:href="#DejaVuSans-48"/>
     <use x="190.869141" xlink:href="#DejaVuSans-32"/>
     <use x="222.65625" xlink:href="#DejaVuSans-109"/>
     <use x="320.068359" xlink:href="#DejaVuSans-115"/>
    </g>
   </g>
   <g id="text_18">
    <!-- 5 mV -->
    <g transform="translate(327.927273 92.544)scale(0.1 -0.1)">
     <use xlink:href="#DejaVuSans-53"/>
     <use x="63.623047" xlink:href="#DejaVuSans-32"/>
     <use x="95.410156" xlink:href="#DejaVuSans-109"/>
     <use x="192.822266" xlink:href="#DejaVuSans-86"/>
    </g>
   </g>
  </g>
 </g>
 <defs>
  <clipPath id="p306c71ee1e">
   <rect height="217.44" width="334.8" x="54" y="34.56"/>
  </clipPath>
 </defs>
</svg>
