<?xml version="1.0" encoding="utf-8" standalone="no"?>
<!DOCTYPE svg PUBLIC "-//W3C//DTD SVG 1.1//EN"
  "http://www.w3.org/Graphics/SVG/1.1/DTD/svg11.dtd">
<svg height="288pt" version="1.1" viewBox="0 0 432 288" width="432pt" xmlns="http://www.w3.org/2000/svg" xmlns:xlink="http://www.w3.org/1999/xlink">
 <metadata>
  <rdf:RDF xmlns:cc="http://creativecommons.org/ns#" xmlns:dc="http://purl.org/dc/elements/1.1/" xmlns:rdf="http://www.w3.org/1999/02/22-rdf-syntax-ns#">
   <cc:Work>
    <dc:type rdf:resource="http://purl.org/dc/dcmitype/StillImage"/>
    <dc:date>2021-07-08T12:22:20.511279</dc:date>
    <dc:format>image/svg+xml</dc:format>
    <dc:creator>
     <cc:Agent>
      <dc:title>Matplotlib v3.4.1, https://matplotlib.org/</dc:title>
     </cc:Agent>
    </dc:creator>
   </cc:Work>
  </rdf:RDF>
 </metadata>
 <defs>
  <style type="text/css">*{stroke-linecap:butt;stroke-linejoin:round;}</style>
 </defs>
 <g id="figure_1">
  <g id="patch_1">
   <path d="M 0 288 
L 432 288 
L 432 0 
L 0 0 
z
" style="fill:none;"/>
  </g>
  <g id="axes_1">
   <g id="patch_2">
    <path d="M 54 252 
L 388.8 252 
L 388.8 34.56 
L 54 34.56 
z
" style="fill:#ffffff;"/>
   </g>
   <g id="matplotlib.axis_1">
    <g id="xtick_1">
     <g id="line2d_1">
      <defs>
       <path d="M 0 0 
L 0 3.5 
" id="m2561751b81" style="stroke:#000000;stroke-width:0.8;"/>
      </defs>
      <g>
       <use style="stroke:#000000;stroke-width:0.8;" x="69.218182" xlink:href="#m2561751b81" y="252"/>
      </g>
     </g>
     <g id="text_1">
      <!-- 0 -->
      <g transform="translate(66.036932 266.598437)scale(0.1 -0.1)">
       <defs>
        <path d="M 2034 4250 
Q 1547 4250 1301 3770 
Q 1056 3291 1056 2328 
Q 1056 1369 1301 889 
Q 1547 409 2034 409 
Q 2525 409 2770 889 
Q 3016 1369 3016 2328 
Q 3016 3291 2770 3770 
Q 2525 4250 2034 4250 
z
M 2034 4750 
Q 2819 4750 3233 4129 
Q 3647 3509 3647 2328 
Q 3647 1150 3233 529 
Q 2819 -91 2034 -91 
Q 1250 -91 836 529 
Q 422 1150 422 2328 
Q 422 3509 836 4129 
Q 1250 4750 2034 4750 
z
" id="DejaVuSans-30" transform="scale(0.015625)"/>
       </defs>
       <use xlink:href="#DejaVuSans-30"/>
      </g>
     </g>
    </g>
    <g id="xtick_2">
     <g id="line2d_2">
      <g>
       <use style="stroke:#000000;stroke-width:0.8;" x="119.937001" xlink:href="#m2561751b81" y="252"/>
      </g>
     </g>
     <g id="text_2">
      <!-- 500 -->
      <g transform="translate(110.393251 266.598437)scale(0.1 -0.1)">
       <defs>
        <path d="M 691 4666 
L 3169 4666 
L 3169 4134 
L 1269 4134 
L 1269 2991 
Q 1406 3038 1543 3061 
Q 1681 3084 1819 3084 
Q 2600 3084 3056 2656 
Q 3513 2228 3513 1497 
Q 3513 744 3044 326 
Q 2575 -91 1722 -91 
Q 1428 -91 1123 -41 
Q 819 9 494 109 
L 494 744 
Q 775 591 1075 516 
Q 1375 441 1709 441 
Q 2250 441 2565 725 
Q 2881 1009 2881 1497 
Q 2881 1984 2565 2268 
Q 2250 2553 1709 2553 
Q 1456 2553 1204 2497 
Q 953 2441 691 2322 
L 691 4666 
z
" id="DejaVuSans-35" transform="scale(0.015625)"/>
       </defs>
       <use xlink:href="#DejaVuSans-35"/>
       <use x="63.623047" xlink:href="#DejaVuSans-30"/>
       <use x="127.246094" xlink:href="#DejaVuSans-30"/>
      </g>
     </g>
    </g>
    <g id="xtick_3">
     <g id="line2d_3">
      <g>
       <use style="stroke:#000000;stroke-width:0.8;" x="170.655821" xlink:href="#m2561751b81" y="252"/>
      </g>
     </g>
     <g id="text_3">
      <!-- 1000 -->
      <g transform="translate(157.930821 266.598437)scale(0.1 -0.1)">
       <defs>
        <path d="M 794 531 
L 1825 531 
L 1825 4091 
L 703 3866 
L 703 4441 
L 1819 4666 
L 2450 4666 
L 2450 531 
L 3481 531 
L 3481 0 
L 794 0 
L 794 531 
z
" id="DejaVuSans-31" transform="scale(0.015625)"/>
       </defs>
       <use xlink:href="#DejaVuSans-31"/>
       <use x="63.623047" xlink:href="#DejaVuSans-30"/>
       <use x="127.246094" xlink:href="#DejaVuSans-30"/>
       <use x="190.869141" xlink:href="#DejaVuSans-30"/>
      </g>
     </g>
    </g>
    <g id="xtick_4">
     <g id="line2d_4">
      <g>
       <use style="stroke:#000000;stroke-width:0.8;" x="221.374641" xlink:href="#m2561751b81" y="252"/>
      </g>
     </g>
     <g id="text_4">
      <!-- 1500 -->
      <g transform="translate(208.649641 266.598437)scale(0.1 -0.1)">
       <use xlink:href="#DejaVuSans-31"/>
       <use x="63.623047" xlink:href="#DejaVuSans-35"/>
       <use x="127.246094" xlink:href="#DejaVuSans-30"/>
       <use x="190.869141" xlink:href="#DejaVuSans-30"/>
      </g>
     </g>
    </g>
    <g id="xtick_5">
     <g id="line2d_5">
      <g>
       <use style="stroke:#000000;stroke-width:0.8;" x="272.09346" xlink:href="#m2561751b81" y="252"/>
      </g>
     </g>
     <g id="text_5">
      <!-- 2000 -->
      <g transform="translate(259.36846 266.598437)scale(0.1 -0.1)">
       <defs>
        <path d="M 1228 531 
L 3431 531 
L 3431 0 
L 469 0 
L 469 531 
Q 828 903 1448 1529 
Q 2069 2156 2228 2338 
Q 2531 2678 2651 2914 
Q 2772 3150 2772 3378 
Q 2772 3750 2511 3984 
Q 2250 4219 1831 4219 
Q 1534 4219 1204 4116 
Q 875 4013 500 3803 
L 500 4441 
Q 881 4594 1212 4672 
Q 1544 4750 1819 4750 
Q 2544 4750 2975 4387 
Q 3406 4025 3406 3419 
Q 3406 3131 3298 2873 
Q 3191 2616 2906 2266 
Q 2828 2175 2409 1742 
Q 1991 1309 1228 531 
z
" id="DejaVuSans-32" transform="scale(0.015625)"/>
       </defs>
       <use xlink:href="#DejaVuSans-32"/>
       <use x="63.623047" xlink:href="#DejaVuSans-30"/>
       <use x="127.246094" xlink:href="#DejaVuSans-30"/>
       <use x="190.869141" xlink:href="#DejaVuSans-30"/>
      </g>
     </g>
    </g>
    <g id="xtick_6">
     <g id="line2d_6">
      <g>
       <use style="stroke:#000000;stroke-width:0.8;" x="322.81228" xlink:href="#m2561751b81" y="252"/>
      </g>
     </g>
     <g id="text_6">
      <!-- 2500 -->
      <g transform="translate(310.08728 266.598437)scale(0.1 -0.1)">
       <use xlink:href="#DejaVuSans-32"/>
       <use x="63.623047" xlink:href="#DejaVuSans-35"/>
       <use x="127.246094" xlink:href="#DejaVuSans-30"/>
       <use x="190.869141" xlink:href="#DejaVuSans-30"/>
      </g>
     </g>
    </g>
    <g id="xtick_7">
     <g id="line2d_7">
      <g>
       <use style="stroke:#000000;stroke-width:0.8;" x="373.531099" xlink:href="#m2561751b81" y="252"/>
      </g>
     </g>
     <g id="text_7">
      <!-- 3000 -->
      <g transform="translate(360.806099 266.598437)scale(0.1 -0.1)">
       <defs>
        <path d="M 2597 2516 
Q 3050 2419 3304 2112 
Q 3559 1806 3559 1356 
Q 3559 666 3084 287 
Q 2609 -91 1734 -91 
Q 1441 -91 1130 -33 
Q 819 25 488 141 
L 488 750 
Q 750 597 1062 519 
Q 1375 441 1716 441 
Q 2309 441 2620 675 
Q 2931 909 2931 1356 
Q 2931 1769 2642 2001 
Q 2353 2234 1838 2234 
L 1294 2234 
L 1294 2753 
L 1863 2753 
Q 2328 2753 2575 2939 
Q 2822 3125 2822 3475 
Q 2822 3834 2567 4026 
Q 2313 4219 1838 4219 
Q 1578 4219 1281 4162 
Q 984 4106 628 3988 
L 628 4550 
Q 988 4650 1302 4700 
Q 1616 4750 1894 4750 
Q 2613 4750 3031 4423 
Q 3450 4097 3450 3541 
Q 3450 3153 3228 2886 
Q 3006 2619 2597 2516 
z
" id="DejaVuSans-33" transform="scale(0.015625)"/>
       </defs>
       <use xlink:href="#DejaVuSans-33"/>
       <use x="63.623047" xlink:href="#DejaVuSans-30"/>
       <use x="127.246094" xlink:href="#DejaVuSans-30"/>
       <use x="190.869141" xlink:href="#DejaVuSans-30"/>
      </g>
     </g>
    </g>
    <g id="text_8">
     <!-- Time(ms) -->
     <g transform="translate(197.789844 280.276563)scale(0.1 -0.1)">
      <defs>
       <path d="M -19 4666 
L 3928 4666 
L 3928 4134 
L 2272 4134 
L 2272 0 
L 1638 0 
L 1638 4134 
L -19 4134 
L -19 4666 
z
" id="DejaVuSans-54" transform="scale(0.015625)"/>
       <path d="M 603 3500 
L 1178 3500 
L 1178 0 
L 603 0 
L 603 3500 
z
M 603 4863 
L 1178 4863 
L 1178 4134 
L 603 4134 
L 603 4863 
z
" id="DejaVuSans-69" transform="scale(0.015625)"/>
       <path d="M 3328 2828 
Q 3544 3216 3844 3400 
Q 4144 3584 4550 3584 
Q 5097 3584 5394 3201 
Q 5691 2819 5691 2113 
L 5691 0 
L 5113 0 
L 5113 2094 
Q 5113 2597 4934 2840 
Q 4756 3084 4391 3084 
Q 3944 3084 3684 2787 
Q 3425 2491 3425 1978 
L 3425 0 
L 2847 0 
L 2847 2094 
Q 2847 2600 2669 2842 
Q 2491 3084 2119 3084 
Q 1678 3084 1418 2786 
Q 1159 2488 1159 1978 
L 1159 0 
L 581 0 
L 581 3500 
L 1159 3500 
L 1159 2956 
Q 1356 3278 1631 3431 
Q 1906 3584 2284 3584 
Q 2666 3584 2933 3390 
Q 3200 3197 3328 2828 
z
" id="DejaVuSans-6d" transform="scale(0.015625)"/>
       <path d="M 3597 1894 
L 3597 1613 
L 953 1613 
Q 991 1019 1311 708 
Q 1631 397 2203 397 
Q 2534 397 2845 478 
Q 3156 559 3463 722 
L 3463 178 
Q 3153 47 2828 -22 
Q 2503 -91 2169 -91 
Q 1331 -91 842 396 
Q 353 884 353 1716 
Q 353 2575 817 3079 
Q 1281 3584 2069 3584 
Q 2775 3584 3186 3129 
Q 3597 2675 3597 1894 
z
M 3022 2063 
Q 3016 2534 2758 2815 
Q 2500 3097 2075 3097 
Q 1594 3097 1305 2825 
Q 1016 2553 972 2059 
L 3022 2063 
z
" id="DejaVuSans-65" transform="scale(0.015625)"/>
       <path d="M 1984 4856 
Q 1566 4138 1362 3434 
Q 1159 2731 1159 2009 
Q 1159 1288 1364 580 
Q 1569 -128 1984 -844 
L 1484 -844 
Q 1016 -109 783 600 
Q 550 1309 550 2009 
Q 550 2706 781 3412 
Q 1013 4119 1484 4856 
L 1984 4856 
z
" id="DejaVuSans-28" transform="scale(0.015625)"/>
       <path d="M 2834 3397 
L 2834 2853 
Q 2591 2978 2328 3040 
Q 2066 3103 1784 3103 
Q 1356 3103 1142 2972 
Q 928 2841 928 2578 
Q 928 2378 1081 2264 
Q 1234 2150 1697 2047 
L 1894 2003 
Q 2506 1872 2764 1633 
Q 3022 1394 3022 966 
Q 3022 478 2636 193 
Q 2250 -91 1575 -91 
Q 1294 -91 989 -36 
Q 684 19 347 128 
L 347 722 
Q 666 556 975 473 
Q 1284 391 1588 391 
Q 1994 391 2212 530 
Q 2431 669 2431 922 
Q 2431 1156 2273 1281 
Q 2116 1406 1581 1522 
L 1381 1569 
Q 847 1681 609 1914 
Q 372 2147 372 2553 
Q 372 3047 722 3315 
Q 1072 3584 1716 3584 
Q 2034 3584 2315 3537 
Q 2597 3491 2834 3397 
z
" id="DejaVuSans-73" transform="scale(0.015625)"/>
       <path d="M 513 4856 
L 1013 4856 
Q 1481 4119 1714 3412 
Q 1947 2706 1947 2009 
Q 1947 1309 1714 600 
Q 1481 -109 1013 -844 
L 513 -844 
Q 928 -128 1133 580 
Q 1338 1288 1338 2009 
Q 1338 2731 1133 3434 
Q 928 4138 513 4856 
z
" id="DejaVuSans-29" transform="scale(0.015625)"/>
      </defs>
      <use xlink:href="#DejaVuSans-54"/>
      <use x="57.958984" xlink:href="#DejaVuSans-69"/>
      <use x="85.742188" xlink:href="#DejaVuSans-6d"/>
      <use x="183.154297" xlink:href="#DejaVuSans-65"/>
      <use x="244.677734" xlink:href="#DejaVuSans-28"/>
      <use x="283.691406" xlink:href="#DejaVuSans-6d"/>
      <use x="381.103516" xlink:href="#DejaVuSans-73"/>
      <use x="433.203125" xlink:href="#DejaVuSans-29"/>
     </g>
    </g>
   </g>
   <g id="matplotlib.axis_2">
    <g id="ytick_1">
     <g id="line2d_8">
      <defs>
       <path d="M 0 0 
L -3.5 0 
" id="m1904660c8c" style="stroke:#000000;stroke-width:0.8;"/>
      </defs>
      <g>
       <use style="stroke:#000000;stroke-width:0.8;" x="54" xlink:href="#m1904660c8c" y="252"/>
      </g>
     </g>
     <g id="text_9">
      <!-- −100 -->
      <g transform="translate(19.532812 255.799219)scale(0.1 -0.1)">
       <defs>
        <path d="M 678 2272 
L 4684 2272 
L 4684 1741 
L 678 1741 
L 678 2272 
z
" id="DejaVuSans-2212" transform="scale(0.015625)"/>
       </defs>
       <use xlink:href="#DejaVuSans-2212"/>
       <use x="83.789062" xlink:href="#DejaVuSans-31"/>
       <use x="147.412109" xlink:href="#DejaVuSans-30"/>
       <use x="211.035156" xlink:href="#DejaVuSans-30"/>
      </g>
     </g>
    </g>
    <g id="ytick_2">
     <g id="line2d_9">
      <g>
       <use style="stroke:#000000;stroke-width:0.8;" x="54" xlink:href="#m1904660c8c" y="220.937143"/>
      </g>
     </g>
     <g id="text_10">
      <!-- −80 -->
      <g transform="translate(25.895312 224.736362)scale(0.1 -0.1)">
       <defs>
        <path d="M 2034 2216 
Q 1584 2216 1326 1975 
Q 1069 1734 1069 1313 
Q 1069 891 1326 650 
Q 1584 409 2034 409 
Q 2484 409 2743 651 
Q 3003 894 3003 1313 
Q 3003 1734 2745 1975 
Q 2488 2216 2034 2216 
z
M 1403 2484 
Q 997 2584 770 2862 
Q 544 3141 544 3541 
Q 544 4100 942 4425 
Q 1341 4750 2034 4750 
Q 2731 4750 3128 4425 
Q 3525 4100 3525 3541 
Q 3525 3141 3298 2862 
Q 3072 2584 2669 2484 
Q 3125 2378 3379 2068 
Q 3634 1759 3634 1313 
Q 3634 634 3220 271 
Q 2806 -91 2034 -91 
Q 1263 -91 848 271 
Q 434 634 434 1313 
Q 434 1759 690 2068 
Q 947 2378 1403 2484 
z
M 1172 3481 
Q 1172 3119 1398 2916 
Q 1625 2713 2034 2713 
Q 2441 2713 2670 2916 
Q 2900 3119 2900 3481 
Q 2900 3844 2670 4047 
Q 2441 4250 2034 4250 
Q 1625 4250 1398 4047 
Q 1172 3844 1172 3481 
z
" id="DejaVuSans-38" transform="scale(0.015625)"/>
       </defs>
       <use xlink:href="#DejaVuSans-2212"/>
       <use x="83.789062" xlink:href="#DejaVuSans-38"/>
       <use x="147.412109" xlink:href="#DejaVuSans-30"/>
      </g>
     </g>
    </g>
    <g id="ytick_3">
     <g id="line2d_10">
      <g>
       <use style="stroke:#000000;stroke-width:0.8;" x="54" xlink:href="#m1904660c8c" y="189.874286"/>
      </g>
     </g>
     <g id="text_11">
      <!-- −60 -->
      <g transform="translate(25.895312 193.673504)scale(0.1 -0.1)">
       <defs>
        <path d="M 2113 2584 
Q 1688 2584 1439 2293 
Q 1191 2003 1191 1497 
Q 1191 994 1439 701 
Q 1688 409 2113 409 
Q 2538 409 2786 701 
Q 3034 994 3034 1497 
Q 3034 2003 2786 2293 
Q 2538 2584 2113 2584 
z
M 3366 4563 
L 3366 3988 
Q 3128 4100 2886 4159 
Q 2644 4219 2406 4219 
Q 1781 4219 1451 3797 
Q 1122 3375 1075 2522 
Q 1259 2794 1537 2939 
Q 1816 3084 2150 3084 
Q 2853 3084 3261 2657 
Q 3669 2231 3669 1497 
Q 3669 778 3244 343 
Q 2819 -91 2113 -91 
Q 1303 -91 875 529 
Q 447 1150 447 2328 
Q 447 3434 972 4092 
Q 1497 4750 2381 4750 
Q 2619 4750 2861 4703 
Q 3103 4656 3366 4563 
z
" id="DejaVuSans-36" transform="scale(0.015625)"/>
       </defs>
       <use xlink:href="#DejaVuSans-2212"/>
       <use x="83.789062" xlink:href="#DejaVuSans-36"/>
       <use x="147.412109" xlink:href="#DejaVuSans-30"/>
      </g>
     </g>
    </g>
    <g id="ytick_4">
     <g id="line2d_11">
      <g>
       <use style="stroke:#000000;stroke-width:0.8;" x="54" xlink:href="#m1904660c8c" y="158.811429"/>
      </g>
     </g>
     <g id="text_12">
      <!-- −40 -->
      <g transform="translate(25.895312 162.610647)scale(0.1 -0.1)">
       <defs>
        <path d="M 2419 4116 
L 825 1625 
L 2419 1625 
L 2419 4116 
z
M 2253 4666 
L 3047 4666 
L 3047 1625 
L 3713 1625 
L 3713 1100 
L 3047 1100 
L 3047 0 
L 2419 0 
L 2419 1100 
L 313 1100 
L 313 1709 
L 2253 4666 
z
" id="DejaVuSans-34" transform="scale(0.015625)"/>
       </defs>
       <use xlink:href="#DejaVuSans-2212"/>
       <use x="83.789062" xlink:href="#DejaVuSans-34"/>
       <use x="147.412109" xlink:href="#DejaVuSans-30"/>
      </g>
     </g>
    </g>
    <g id="ytick_5">
     <g id="line2d_12">
      <g>
       <use style="stroke:#000000;stroke-width:0.8;" x="54" xlink:href="#m1904660c8c" y="127.748571"/>
      </g>
     </g>
     <g id="text_13">
      <!-- −20 -->
      <g transform="translate(25.895312 131.54779)scale(0.1 -0.1)">
       <use xlink:href="#DejaVuSans-2212"/>
       <use x="83.789062" xlink:href="#DejaVuSans-32"/>
       <use x="147.412109" xlink:href="#DejaVuSans-30"/>
      </g>
     </g>
    </g>
    <g id="ytick_6">
     <g id="line2d_13">
      <g>
       <use style="stroke:#000000;stroke-width:0.8;" x="54" xlink:href="#m1904660c8c" y="96.685714"/>
      </g>
     </g>
     <g id="text_14">
      <!-- 0 -->
      <g transform="translate(40.6375 100.484933)scale(0.1 -0.1)">
       <use xlink:href="#DejaVuSans-30"/>
      </g>
     </g>
    </g>
    <g id="ytick_7">
     <g id="line2d_14">
      <g>
       <use style="stroke:#000000;stroke-width:0.8;" x="54" xlink:href="#m1904660c8c" y="65.622857"/>
      </g>
     </g>
     <g id="text_15">
      <!-- 20 -->
      <g transform="translate(34.275 69.422076)scale(0.1 -0.1)">
       <use xlink:href="#DejaVuSans-32"/>
       <use x="63.623047" xlink:href="#DejaVuSans-30"/>
      </g>
     </g>
    </g>
    <g id="ytick_8">
     <g id="line2d_15">
      <g>
       <use style="stroke:#000000;stroke-width:0.8;" x="54" xlink:href="#m1904660c8c" y="34.56"/>
      </g>
     </g>
     <g id="text_16">
      <!-- 40 -->
      <g transform="translate(34.275 38.359219)scale(0.1 -0.1)">
       <use xlink:href="#DejaVuSans-34"/>
       <use x="63.623047" xlink:href="#DejaVuSans-30"/>
      </g>
     </g>
    </g>
    <g id="text_17">
     <!-- Membrane potential (mV) -->
     <g transform="translate(13.453125 207.691719)rotate(-90)scale(0.1 -0.1)">
      <defs>
       <path d="M 628 4666 
L 1569 4666 
L 2759 1491 
L 3956 4666 
L 4897 4666 
L 4897 0 
L 4281 0 
L 4281 4097 
L 3078 897 
L 2444 897 
L 1241 4097 
L 1241 0 
L 628 0 
L 628 4666 
z
" id="DejaVuSans-4d" transform="scale(0.015625)"/>
       <path d="M 3116 1747 
Q 3116 2381 2855 2742 
Q 2594 3103 2138 3103 
Q 1681 3103 1420 2742 
Q 1159 2381 1159 1747 
Q 1159 1113 1420 752 
Q 1681 391 2138 391 
Q 2594 391 2855 752 
Q 3116 1113 3116 1747 
z
M 1159 2969 
Q 1341 3281 1617 3432 
Q 1894 3584 2278 3584 
Q 2916 3584 3314 3078 
Q 3713 2572 3713 1747 
Q 3713 922 3314 415 
Q 2916 -91 2278 -91 
Q 1894 -91 1617 61 
Q 1341 213 1159 525 
L 1159 0 
L 581 0 
L 581 4863 
L 1159 4863 
L 1159 2969 
z
" id="DejaVuSans-62" transform="scale(0.015625)"/>
       <path d="M 2631 2963 
Q 2534 3019 2420 3045 
Q 2306 3072 2169 3072 
Q 1681 3072 1420 2755 
Q 1159 2438 1159 1844 
L 1159 0 
L 581 0 
L 581 3500 
L 1159 3500 
L 1159 2956 
Q 1341 3275 1631 3429 
Q 1922 3584 2338 3584 
Q 2397 3584 2469 3576 
Q 2541 3569 2628 3553 
L 2631 2963 
z
" id="DejaVuSans-72" transform="scale(0.015625)"/>
       <path d="M 2194 1759 
Q 1497 1759 1228 1600 
Q 959 1441 959 1056 
Q 959 750 1161 570 
Q 1363 391 1709 391 
Q 2188 391 2477 730 
Q 2766 1069 2766 1631 
L 2766 1759 
L 2194 1759 
z
M 3341 1997 
L 3341 0 
L 2766 0 
L 2766 531 
Q 2569 213 2275 61 
Q 1981 -91 1556 -91 
Q 1019 -91 701 211 
Q 384 513 384 1019 
Q 384 1609 779 1909 
Q 1175 2209 1959 2209 
L 2766 2209 
L 2766 2266 
Q 2766 2663 2505 2880 
Q 2244 3097 1772 3097 
Q 1472 3097 1187 3025 
Q 903 2953 641 2809 
L 641 3341 
Q 956 3463 1253 3523 
Q 1550 3584 1831 3584 
Q 2591 3584 2966 3190 
Q 3341 2797 3341 1997 
z
" id="DejaVuSans-61" transform="scale(0.015625)"/>
       <path d="M 3513 2113 
L 3513 0 
L 2938 0 
L 2938 2094 
Q 2938 2591 2744 2837 
Q 2550 3084 2163 3084 
Q 1697 3084 1428 2787 
Q 1159 2491 1159 1978 
L 1159 0 
L 581 0 
L 581 3500 
L 1159 3500 
L 1159 2956 
Q 1366 3272 1645 3428 
Q 1925 3584 2291 3584 
Q 2894 3584 3203 3211 
Q 3513 2838 3513 2113 
z
" id="DejaVuSans-6e" transform="scale(0.015625)"/>
       <path id="DejaVuSans-20" transform="scale(0.015625)"/>
       <path d="M 1159 525 
L 1159 -1331 
L 581 -1331 
L 581 3500 
L 1159 3500 
L 1159 2969 
Q 1341 3281 1617 3432 
Q 1894 3584 2278 3584 
Q 2916 3584 3314 3078 
Q 3713 2572 3713 1747 
Q 3713 922 3314 415 
Q 2916 -91 2278 -91 
Q 1894 -91 1617 61 
Q 1341 213 1159 525 
z
M 3116 1747 
Q 3116 2381 2855 2742 
Q 2594 3103 2138 3103 
Q 1681 3103 1420 2742 
Q 1159 2381 1159 1747 
Q 1159 1113 1420 752 
Q 1681 391 2138 391 
Q 2594 391 2855 752 
Q 3116 1113 3116 1747 
z
" id="DejaVuSans-70" transform="scale(0.015625)"/>
       <path d="M 1959 3097 
Q 1497 3097 1228 2736 
Q 959 2375 959 1747 
Q 959 1119 1226 758 
Q 1494 397 1959 397 
Q 2419 397 2687 759 
Q 2956 1122 2956 1747 
Q 2956 2369 2687 2733 
Q 2419 3097 1959 3097 
z
M 1959 3584 
Q 2709 3584 3137 3096 
Q 3566 2609 3566 1747 
Q 3566 888 3137 398 
Q 2709 -91 1959 -91 
Q 1206 -91 779 398 
Q 353 888 353 1747 
Q 353 2609 779 3096 
Q 1206 3584 1959 3584 
z
" id="DejaVuSans-6f" transform="scale(0.015625)"/>
       <path d="M 1172 4494 
L 1172 3500 
L 2356 3500 
L 2356 3053 
L 1172 3053 
L 1172 1153 
Q 1172 725 1289 603 
Q 1406 481 1766 481 
L 2356 481 
L 2356 0 
L 1766 0 
Q 1100 0 847 248 
Q 594 497 594 1153 
L 594 3053 
L 172 3053 
L 172 3500 
L 594 3500 
L 594 4494 
L 1172 4494 
z
" id="DejaVuSans-74" transform="scale(0.015625)"/>
       <path d="M 603 4863 
L 1178 4863 
L 1178 0 
L 603 0 
L 603 4863 
z
" id="DejaVuSans-6c" transform="scale(0.015625)"/>
       <path d="M 1831 0 
L 50 4666 
L 709 4666 
L 2188 738 
L 3669 4666 
L 4325 4666 
L 2547 0 
L 1831 0 
z
" id="DejaVuSans-56" transform="scale(0.015625)"/>
      </defs>
      <use xlink:href="#DejaVuSans-4d"/>
      <use x="86.279297" xlink:href="#DejaVuSans-65"/>
      <use x="147.802734" xlink:href="#DejaVuSans-6d"/>
      <use x="245.214844" xlink:href="#DejaVuSans-62"/>
      <use x="308.691406" xlink:href="#DejaVuSans-72"/>
      <use x="349.804688" xlink:href="#DejaVuSans-61"/>
      <use x="411.083984" xlink:href="#DejaVuSans-6e"/>
      <use x="474.462891" xlink:href="#DejaVuSans-65"/>
      <use x="535.986328" xlink:href="#DejaVuSans-20"/>
      <use x="567.773438" xlink:href="#DejaVuSans-70"/>
      <use x="631.25" xlink:href="#DejaVuSans-6f"/>
      <use x="692.431641" xlink:href="#DejaVuSans-74"/>
      <use x="731.640625" xlink:href="#DejaVuSans-65"/>
      <use x="793.164062" xlink:href="#DejaVuSans-6e"/>
      <use x="856.542969" xlink:href="#DejaVuSans-74"/>
      <use x="895.751953" xlink:href="#DejaVuSans-69"/>
      <use x="923.535156" xlink:href="#DejaVuSans-61"/>
      <use x="984.814453" xlink:href="#DejaVuSans-6c"/>
      <use x="1012.597656" xlink:href="#DejaVuSans-20"/>
      <use x="1044.384766" xlink:href="#DejaVuSans-28"/>
      <use x="1083.398438" xlink:href="#DejaVuSans-6d"/>
      <use x="1180.810547" xlink:href="#DejaVuSans-56"/>
      <use x="1249.21875" xlink:href="#DejaVuSans-29"/>
     </g>
    </g>
   </g>
   <g id="line2d_16">
    <path clip-path="url(#p03ad9a6e86)" d="M 69.218182 225.596571 
L 69.319636 226.539329 
L 69.370364 226.516964 
L 69.624 225.942146 
L 69.928364 225.240125 
L 70.131273 225.164642 
L 70.435636 225.350088 
L 71.957455 226.602231 
L 72.819818 226.90059 
L 73.732909 226.992536 
L 73.885091 226.477514 
L 74.290909 224.710193 
L 74.544545 224.2618 
L 74.747455 224.275313 
L 75.102545 224.649776 
L 76.218545 225.972587 
L 76.928727 226.442102 
L 77.334545 226.599902 
L 77.892545 225.50214 
L 78.196909 225.64798 
L 78.602727 225.859829 
L 79.008545 225.381616 
L 79.262182 225.435976 
L 79.515818 225.50711 
L 79.972364 225.245716 
L 80.327455 225.415164 
L 80.986909 225.893222 
L 81.443455 224.993486 
L 81.697091 225.091955 
L 83.421818 226.331829 
L 83.827636 225.300232 
L 84.030545 225.293243 
L 84.436364 225.581506 
L 85.400182 226.277159 
L 85.755273 226.406846 
L 86.008909 225.987808 
L 86.313273 225.714144 
L 86.617636 225.594708 
L 86.972727 225.219468 
L 87.226364 225.23997 
L 87.733636 225.588961 
L 88.748182 226.263025 
L 89.661273 226.585457 
L 90.828 226.77199 
L 90.980182 226.161915 
L 91.233818 225.492045 
L 91.386 225.261093 
L 91.741091 224.16271 
L 91.994727 223.556674 
L 92.146909 223.570652 
L 92.451273 223.935485 
L 93.110727 224.818136 
L 93.313636 224.614364 
L 94.581818 221.308499 
L 94.734 221.245442 
L 94.936909 221.470647 
L 95.038364 221.602043 
L 95.089091 221.527182 
L 95.342727 221.244665 
L 95.545636 221.470181 
L 96.154364 222.793459 
L 96.864545 224.089712 
L 97.219636 224.498189 
L 97.473273 223.657317 
L 98.284909 221.424674 
L 98.487818 221.546751 
L 98.893636 222.247995 
L 99.908182 224.027742 
L 100.618364 224.810992 
L 100.922727 225.013988 
L 101.531455 224.273449 
L 101.886545 224.46433 
L 102.393818 224.730073 
L 102.596727 224.252171 
L 102.901091 223.126142 
L 103.104 223.015093 
L 103.357636 223.227252 
L 103.560545 223.467679 
L 103.611273 223.401049 
L 103.915636 222.940387 
L 104.118545 223.034507 
L 104.575091 223.644737 
L 105.437455 224.738149 
L 106.198364 225.330207 
L 107.060727 225.7143 
L 107.618727 225.800499 
L 108.075273 224.785986 
L 108.328909 224.782569 
L 108.836182 225.090247 
L 109.901455 225.716474 
L 110.205818 225.777513 
L 110.662364 224.829785 
L 110.916 224.862245 
L 111.524727 225.291534 
L 112.488545 225.86775 
L 112.945091 225.999612 
L 113.706 224.677732 
L 114.111818 223.649086 
L 114.365455 223.455875 
L 114.619091 223.619887 
L 116.698909 225.696749 
L 116.851091 225.683081 
L 117.206182 224.7557 
L 117.409091 224.710659 
L 117.764182 224.945339 
L 118.930909 225.830319 
L 119.539636 226.06267 
L 120.046909 224.974693 
L 120.300545 225.038993 
L 122.583273 226.290516 
L 123.090545 226.321889 
L 123.445636 225.163555 
L 124.155818 224.652882 
L 124.460182 224.811768 
L 126.235636 226.124951 
L 126.387818 226.119981 
L 126.996545 225.312036 
L 127.300909 224.830717 
L 127.554545 224.798411 
L 127.960364 225.062135 
L 128.163273 225.21776 
L 128.214 225.153615 
L 128.569091 224.51108 
L 128.772 224.537639 
L 129.228545 224.947047 
L 130.192364 225.791336 
L 131.004 226.189406 
L 132.069273 226.450023 
L 133.286727 226.587477 
L 133.438909 226.302009 
L 133.794 225.666773 
L 134.047636 225.59595 
L 134.504182 225.773164 
L 135.214364 226.070591 
L 135.620182 225.167438 
L 135.873818 225.164953 
L 136.381091 225.515808 
L 136.584 225.602784 
L 136.786909 225.315453 
L 137.040545 224.259315 
L 137.395636 223.088401 
L 137.598545 223.032643 
L 137.852182 223.292018 
L 139.069636 224.974848 
L 139.120364 224.927167 
L 139.526182 224.560159 
L 139.830545 224.677111 
L 141.859636 225.991536 
L 142.468364 226.13924 
L 143.127818 225.233913 
L 143.533636 225.389072 
L 143.635091 225.379908 
L 144.243818 224.755855 
L 144.598909 224.918625 
L 144.954 225.167749 
L 145.258364 223.898054 
L 145.512 223.075355 
L 145.664182 223.022392 
L 145.917818 223.266547 
L 146.07 223.410368 
L 146.628 222.451768 
L 146.881636 222.711453 
L 147.186 223.06091 
L 147.541091 222.827318 
L 147.642545 222.735527 
L 147.946909 222.3738 
L 148.149818 222.486713 
L 148.555636 223.104243 
L 149.316545 224.288825 
L 149.519455 223.926166 
L 149.773091 223.725811 
L 150.026727 223.864351 
L 151.954364 225.549511 
L 152.512364 225.731384 
L 153.222545 225.130318 
L 153.679091 225.291534 
L 154.287818 225.487851 
L 154.896545 223.232843 
L 155.150182 222.503643 
L 155.302364 222.484228 
L 155.454545 222.621216 
L 155.505273 222.536725 
L 155.961818 221.458222 
L 156.114 221.382895 
L 156.316909 221.59288 
L 156.824182 222.653832 
L 157.635818 224.167835 
L 158.295273 224.947358 
L 159.005455 225.45772 
L 159.918545 225.825505 
L 160.578 225.982217 
L 160.730182 225.490492 
L 160.983818 224.850752 
L 161.237455 224.741411 
L 161.592545 224.908529 
L 161.694 224.924371 
L 162.099818 224.133977 
L 162.302727 224.167214 
L 162.759273 224.571342 
L 163.723091 225.407554 
L 163.926 225.520933 
L 164.484 224.598677 
L 164.788364 224.570099 
L 165.194182 224.170786 
L 165.447818 224.255277 
L 166.310182 224.720444 
L 166.614545 224.426278 
L 166.918909 224.254811 
L 167.223273 223.929117 
L 167.476909 223.986584 
L 167.629091 224.078996 
L 167.730545 223.76759 
L 168.034909 222.629913 
L 168.237818 222.512496 
L 168.491455 222.730557 
L 170.469818 225.190425 
L 171.281455 225.622043 
L 171.687273 225.725016 
L 171.839455 225.45974 
L 172.143818 223.874913 
L 172.651091 221.280232 
L 173.158364 221.07149 
L 173.361273 221.247927 
L 173.412 221.146041 
L 173.665636 220.771888 
L 173.868545 220.409851 
L 174.122182 219.960682 
L 174.274364 220.012712 
L 174.528 220.458309 
L 174.883091 221.134547 
L 175.086 220.891636 
L 175.339636 220.398202 
L 175.491818 220.487042 
L 175.694727 220.805592 
L 175.745455 220.768627 
L 176.049818 219.734544 
L 176.354182 218.166957 
L 176.658545 216.444367 
L 176.810727 216.434582 
L 176.912182 216.431009 
L 177.165818 216.069904 
L 177.470182 215.22546 
L 177.622364 215.155258 
L 177.774545 215.360428 
L 178.028182 215.691403 
L 178.129636 215.606446 
L 179.093455 214.093374 
L 179.245636 214.056409 
L 179.499273 213.63908 
L 179.854364 213.873294 
L 180.158727 213.257783 
L 180.463091 213.232312 
L 180.615273 213.296923 
L 180.818182 213.761623 
L 181.376182 215.876227 
L 181.782 217.18506 
L 182.035636 217.320028 
L 182.34 217.939732 
L 182.644364 218.485507 
L 182.745818 218.352868 
L 183.151636 217.603632 
L 183.303818 217.687502 
L 183.658909 217.969553 
L 183.760364 217.704276 
L 184.014 217.071836 
L 184.166182 216.604496 
L 184.572 215.392889 
L 184.724182 215.258231 
L 184.977818 215.449113 
L 185.535818 214.106576 
L 185.586545 214.079085 
L 185.688 213.321617 
L 185.992364 211.151411 
L 186.195273 210.228844 
L 186.448909 209.408474 
L 187.006909 208.411356 
L 187.159091 208.530016 
L 187.311273 208.71453 
L 187.412727 208.481403 
L 187.717091 207.538801 
L 187.818545 207.605586 
L 188.021455 208.13909 
L 188.782364 210.819038 
L 188.833091 210.775395 
L 189.188182 210.594609 
L 189.340364 210.70628 
L 189.492545 210.999048 
L 189.543273 210.918129 
L 189.847636 210.143887 
L 189.949091 210.013423 
L 190.152 209.717239 
L 190.304182 209.925049 
L 190.608545 210.786578 
L 190.659273 210.7434 
L 191.014364 209.289814 
L 191.115818 209.32243 
L 191.623091 209.905014 
L 191.876727 209.935766 
L 192.028909 209.82658 
L 192.181091 210.017617 
L 192.384 210.165942 
L 192.586909 210.415998 
L 192.891273 211.311074 
L 193.297091 212.442539 
L 193.652182 213.383899 
L 194.413091 215.509375 
L 194.869636 215.276558 
L 195.376909 215.752441 
L 195.681273 215.355303 
L 195.833455 215.312281 
L 196.340727 214.248378 
L 196.645091 213.898299 
L 196.848 212.982722 
L 197.152364 211.700292 
L 197.304545 211.626983 
L 198.014727 212.084539 
L 198.166909 212.09215 
L 198.369818 212.427163 
L 198.572727 212.713251 
L 199.130727 211.134637 
L 199.282909 211.050923 
L 199.435091 211.072356 
L 199.638 210.850257 
L 199.840909 210.754894 
L 200.043818 211.076549 
L 200.449636 212.424677 
L 201.109091 214.532137 
L 201.413455 214.417515 
L 201.616364 214.686519 
L 201.971455 215.505647 
L 202.072909 215.393821 
L 202.225091 215.345363 
L 202.377273 215.456257 
L 202.428 215.367883 
L 203.188909 212.407127 
L 203.544 210.592124 
L 203.645455 210.607811 
L 204.102 211.409077 
L 204.254182 211.602599 
L 204.507818 211.45738 
L 204.66 210.914712 
L 205.065818 208.003967 
L 205.370182 206.41681 
L 205.522364 206.373012 
L 205.776 206.520871 
L 205.928182 206.617787 
L 206.080364 206.830102 
L 206.131091 206.756949 
L 206.486182 206.147651 
L 206.638364 206.146253 
L 206.841273 206.529568 
L 207.247091 208.047766 
L 207.551455 209.190568 
L 207.602182 209.17659 
L 207.855818 209.023605 
L 208.008 209.226756 
L 208.515273 210.195607 
L 208.921091 208.904324 
L 209.124 208.799176 
L 209.276182 208.982447 
L 209.479091 209.40397 
L 209.529818 209.371509 
L 209.682 209.367782 
L 209.783455 209.343087 
L 209.986364 209.283446 
L 210.442909 209.930951 
L 210.747273 210.762349 
L 211.000909 211.379878 
L 211.153091 211.072201 
L 211.863273 208.10694 
L 212.015455 208.041864 
L 212.167636 208.283067 
L 212.370545 208.544771 
L 212.624182 208.558905 
L 212.827091 208.22529 
L 213.080727 207.866048 
L 213.283636 207.898198 
L 213.740182 205.63356 
L 213.841636 205.679844 
L 214.044545 206.149048 
L 214.298182 206.924377 
L 214.348909 206.822181 
L 214.805455 205.1934 
L 215.109818 203.808928 
L 215.363455 203.575335 
L 215.515636 203.600652 
L 216.124364 204.471033 
L 216.530182 206.104163 
L 216.783818 206.811619 
L 217.240364 206.207602 
L 217.544727 205.684814 
L 217.798364 205.826461 
L 218.001273 206.246275 
L 218.407091 207.79771 
L 218.660727 208.564652 
L 218.965091 208.945016 
L 219.015818 208.895316 
L 219.117273 208.707385 
L 219.472364 207.763385 
L 219.675273 207.75329 
L 219.776727 207.308936 
L 220.030364 206.204962 
L 220.131818 206.201234 
L 220.689818 206.952179 
L 220.740545 206.894557 
L 220.994182 206.487478 
L 221.095636 206.373478 
L 221.349273 205.351665 
L 221.552182 203.988316 
L 221.805818 202.580547 
L 221.958 202.471672 
L 222.110182 202.733377 
L 222.921818 205.230675 
L 223.682727 208.102902 
L 223.936364 208.55906 
L 224.342182 209.934368 
L 225.711818 214.905357 
L 225.965455 214.985033 
L 226.219091 215.446162 
L 226.472727 215.797172 
L 226.726364 215.97656 
L 227.081455 216.693801 
L 227.994545 218.785729 
L 228.298909 218.591431 
L 228.501818 218.757928 
L 228.856909 219.302926 
L 228.907636 219.232258 
L 229.212 218.786506 
L 229.414909 218.920853 
L 229.871455 219.684533 
L 230.936727 221.47919 
L 231.799091 222.48485 
L 232.762909 223.254587 
L 233.929636 223.888736 
L 235.552909 224.493995 
L 236.719636 224.751351 
L 236.871818 224.321286 
L 237.226909 223.128472 
L 237.429818 222.978594 
L 237.683455 223.083897 
L 238.342909 223.764484 
L 238.698 224.003823 
L 238.951636 223.395923 
L 239.256 222.980458 
L 239.509636 223.028139 
L 239.966182 223.457583 
L 241.183636 224.642165 
L 242.096727 225.171166 
L 243.263455 225.557743 
L 245.140364 225.903628 
L 247.270909 226.140948 
L 248.133273 224.607064 
L 248.995636 222.83819 
L 249.198545 222.908547 
L 249.604364 223.455719 
L 250.060909 224.045603 
L 250.517455 223.810612 
L 250.872545 224.092974 
L 251.430545 224.697146 
L 251.887091 223.757806 
L 252.292909 223.800362 
L 252.597273 223.504177 
L 252.850909 223.645824 
L 253.662545 224.637972 
L 254.423455 225.33378 
L 255.082909 225.705447 
L 255.184364 225.604027 
L 256.046727 223.765727 
L 256.300364 223.90085 
L 257.061273 224.743119 
L 257.112 224.668879 
L 257.416364 223.852237 
L 257.619273 223.845092 
L 257.974364 224.202936 
L 258.988909 225.286098 
L 259.749818 225.751575 
L 260.713636 226.071988 
L 262.286182 226.324685 
L 262.590545 226.320181 
L 263.300727 225.526525 
L 263.808 225.459584 
L 264.974727 222.862263 
L 265.228364 223.126919 
L 265.482 223.355542 
L 265.837091 223.110145 
L 266.344364 223.224146 
L 266.598 223.212808 
L 266.953091 223.440499 
L 267.003818 223.355231 
L 267.308182 223.023324 
L 267.511091 223.118221 
L 267.967636 223.696301 
L 268.880727 224.812234 
L 269.641636 225.383946 
L 270.554727 225.774562 
L 271.467818 225.987808 
L 271.670727 225.565975 
L 271.975091 225.103759 
L 272.228727 224.578176 
L 272.482364 224.281991 
L 272.736 224.326567 
L 273.243273 224.764553 
L 274.207091 225.557743 
L 274.917273 225.893998 
L 275.424545 224.349398 
L 275.779636 222.977507 
L 275.982545 222.91243 
L 276.236182 223.18656 
L 276.946364 224.235863 
L 276.997091 224.139413 
L 277.250727 223.741032 
L 277.453636 223.778462 
L 277.859455 224.225302 
L 278.823273 225.291379 
L 278.924727 225.212945 
L 279.229091 224.566838 
L 279.432 224.525213 
L 279.634909 224.486696 
L 279.939273 223.980992 
L 280.142182 223.977265 
L 280.446545 224.101516 
L 280.750909 223.476065 
L 280.953818 223.516913 
L 281.055273 223.458049 
L 281.765455 222.124365 
L 281.917636 222.201246 
L 282.272727 222.774511 
L 282.424909 222.989155 
L 282.475636 222.944114 
L 282.729273 222.311053 
L 283.236545 221.061239 
L 283.439455 220.941492 
L 284.098909 221.321546 
L 284.301818 221.431819 
L 284.606182 221.391437 
L 284.859818 221.69694 
L 285.975818 223.546733 
L 286.026545 223.502469 
L 286.128 223.241696 
L 286.432364 222.194878 
L 286.635273 222.144556 
L 286.888909 222.274554 
L 287.142545 221.629845 
L 287.497636 220.611915 
L 287.649818 220.615021 
L 287.903455 220.957023 
L 288.512182 222.175619 
L 288.562909 222.10697 
L 288.816545 221.81296 
L 289.019455 221.940628 
L 289.120909 221.991416 
L 289.425273 221.486024 
L 289.628182 221.63264 
L 290.084727 222.446487 
L 290.287636 222.823901 
L 290.338364 222.726053 
L 290.592 222.157913 
L 290.744182 222.163039 
L 291.048545 222.532531 
L 291.606545 223.267012 
L 291.961636 223.029382 
L 292.215273 223.174445 
L 293.179091 224.136151 
L 293.229818 224.069055 
L 293.584909 223.336749 
L 293.990727 222.188976 
L 294.193636 222.090817 
L 294.447273 222.293037 
L 295.208182 223.444381 
L 296.019818 224.439325 
L 296.425636 224.719978 
L 296.831455 223.80673 
L 297.389455 223.18423 
L 297.744545 223.554655 
L 298.099636 224.013764 
L 298.150364 223.95257 
L 298.505455 223.318732 
L 298.708364 223.401204 
L 299.215636 224.010191 
L 300.078 224.947358 
L 300.838909 225.447936 
L 301.802727 225.805314 
L 303.273818 226.088762 
L 303.426 226.028811 
L 304.034727 225.191201 
L 304.389818 225.216673 
L 305.150727 225.406311 
L 305.404364 223.183143 
L 305.708727 221.236278 
L 305.911636 221.063569 
L 306.114545 221.310829 
L 307.027636 222.87562 
L 307.281273 222.970828 
L 307.636364 223.282855 
L 307.991455 222.805729 
L 308.194364 222.933708 
L 308.752364 223.734043 
L 309.107455 224.172805 
L 309.513273 223.463019 
L 309.716182 223.578728 
L 310.375636 224.398166 
L 311.136545 225.155789 
L 311.542364 225.331139 
L 311.948182 224.614053 
L 312.201818 224.6052 
L 312.658364 224.898278 
L 313.774364 225.624528 
L 313.926545 225.592999 
L 314.433818 225.057476 
L 314.788909 225.114321 
L 314.941091 225.089626 
L 315.346909 224.337594 
L 315.600545 224.334022 
L 316.057091 224.671675 
L 317.122364 225.476824 
L 318.035455 225.869148 
L 318.136909 225.728278 
L 318.745636 223.857207 
L 318.948545 223.911101 
L 319.405091 224.370986 
L 320.115273 225.061203 
L 320.419636 224.357474 
L 320.724 223.34731 
L 320.926909 223.293882 
L 321.129818 223.299007 
L 321.434182 222.853876 
L 321.637091 222.974245 
L 322.144364 223.726898 
L 322.398 224.017957 
L 322.854545 223.52794 
L 323.108182 223.254587 
L 323.311091 223.313607 
L 323.564727 223.521883 
L 323.615455 223.453856 
L 323.919818 223.064017 
L 324.122727 223.133753 
L 324.528545 223.637748 
L 324.782182 223.907995 
L 325.238727 223.625633 
L 325.543091 223.855964 
L 325.796727 223.995902 
L 326.050364 223.52763 
L 326.557636 221.484315 
L 326.709818 221.497827 
L 326.963455 221.207856 
L 327.115636 221.304461 
L 327.42 221.865767 
L 327.775091 222.573534 
L 327.825818 222.511719 
L 328.028727 222.327982 
L 328.231636 222.466833 
L 328.688182 223.221971 
L 329.499818 224.479551 
L 330.21 225.169457 
L 330.514364 225.348845 
L 330.717273 224.968636 
L 330.970909 224.664996 
L 331.224545 224.672451 
L 331.731818 224.996282 
L 331.884 224.992554 
L 332.340545 224.525369 
L 332.644909 224.62741 
L 333.963818 225.504315 
L 334.369636 224.53329 
L 334.572545 224.531737 
L 334.978364 224.828853 
L 336.043636 225.638662 
L 336.145091 225.422619 
L 336.449455 224.687362 
L 336.652364 224.381082 
L 336.956727 224.028674 
L 337.210364 224.10338 
L 337.768364 224.663599 
L 338.681455 225.490026 
L 339.138 225.684479 
L 339.746727 225.185765 
L 340.152545 225.320889 
L 341.522182 225.921178 
L 342.029455 224.99069 
L 342.283091 224.998611 
L 342.841091 225.32415 
L 343.145455 225.50183 
L 343.703455 224.59992 
L 344.007818 224.760981 
L 344.16 224.778065 
L 344.616545 224.363997 
L 344.920909 224.472251 
L 345.529636 224.803381 
L 345.935455 224.418668 
L 346.239818 224.512012 
L 348.624 225.950377 
L 348.776182 225.960162 
L 349.232727 224.872962 
L 349.486364 224.90884 
L 349.790727 225.031538 
L 350.247273 224.57305 
L 350.551636 224.684877 
L 350.906727 224.863799 
L 351.718364 223.684342 
L 351.921273 223.707173 
L 352.428545 223.953812 
L 352.732909 223.745846 
L 352.986545 223.89588 
L 353.443091 224.38512 
L 353.493818 224.28867 
L 353.798182 223.75004 
L 353.899636 223.613674 
L 354.204 222.998008 
L 354.406909 223.036681 
L 354.508364 223.081878 
L 354.914182 222.632864 
L 355.015636 222.634883 
L 355.370727 222.117531 
L 355.522909 222.094234 
L 355.776545 221.626272 
L 355.928727 221.686534 
L 356.233091 222.189753 
L 357.349091 224.244871 
L 358.008545 224.968791 
L 358.769455 225.469058 
L 359.023091 225.571566 
L 359.428909 224.762068 
L 359.631818 224.005066 
L 359.885455 223.533066 
L 360.088364 223.573448 
L 360.494182 224.013608 
L 360.595636 224.076045 
L 360.950727 223.242007 
L 361.153636 223.314539 
L 361.458 223.592551 
L 361.508727 223.527319 
L 361.813091 222.837413 
L 362.066727 222.257625 
L 362.218909 222.270982 
L 362.523273 222.65057 
L 362.675455 222.870184 
L 362.726182 222.817067 
L 363.487091 221.01977 
L 363.639273 221.091991 
L 363.943636 221.638853 
L 364.755273 223.243094 
L 365.110364 222.783985 
L 365.313273 222.920817 
L 365.617636 223.286116 
L 366.124909 221.651433 
L 366.175636 221.667275 
L 366.429273 221.974487 
L 367.393091 223.668655 
L 367.443818 223.578107 
L 367.748182 223.066036 
L 367.951091 223.12723 
L 368.204727 223.25117 
L 368.509091 222.784451 
L 368.712 222.860555 
L 368.864182 222.924079 
L 368.965636 222.575553 
L 369.219273 221.619439 
L 369.422182 221.534792 
L 369.675818 221.663703 
L 369.929455 221.358355 
L 370.030909 221.289396 
L 370.335273 220.817706 
L 370.487455 220.927203 
L 370.842545 221.594433 
L 371.857091 223.592085 
L 372.313636 224.09608 
L 372.871636 223.737304 
L 373.023818 223.78483 
L 373.581818 222.719685 
L 373.581818 222.719685 
" style="fill:none;stroke:#000000;stroke-linecap:square;stroke-width:1.5;"/>
   </g>
   <g id="line2d_17">
    <path clip-path="url(#p03ad9a6e86)" d="M 69.218182 225.596571 
L 69.268909 225.869148 
L 69.319636 225.650621 
L 69.979091 222.246598 
L 70.232727 221.902266 
L 70.537091 221.854118 
L 71.145818 222.084915 
L 72.363273 222.512962 
L 73.682182 222.710211 
L 73.783636 222.558779 
L 73.986545 221.589618 
L 74.392364 220.044086 
L 74.646 219.787041 
L 74.899636 219.926202 
L 75.609818 220.808698 
L 76.370727 221.569893 
L 77.131636 222.0304 
L 77.334545 222.107902 
L 77.943273 221.016508 
L 78.298364 221.230066 
L 78.602727 221.369383 
L 79.059273 220.866009 
L 79.363636 220.98001 
L 79.515818 220.988397 
L 80.023091 220.710229 
L 80.378182 220.900799 
L 80.986909 221.348104 
L 81.443455 220.431905 
L 81.697091 220.518416 
L 83.421818 221.795099 
L 83.827636 220.762259 
L 84.030545 220.747504 
L 84.436364 221.034059 
L 85.450909 221.77817 
L 85.806 221.841538 
L 86.313273 221.189218 
L 86.617636 221.06683 
L 87.023455 220.658043 
L 87.327818 220.731973 
L 88.190182 221.37575 
L 89.103273 221.883939 
L 90.168545 222.201246 
L 90.828 222.312451 
L 90.980182 221.713714 
L 91.233818 221.027691 
L 91.436727 220.660062 
L 91.741091 219.651607 
L 91.994727 219.000374 
L 92.197636 219.023671 
L 92.552727 219.477033 
L 93.110727 220.174394 
L 93.313636 219.957265 
L 94.683273 216.309709 
L 94.835455 216.368263 
L 95.038364 216.611174 
L 95.089091 216.533362 
L 95.342727 216.216986 
L 95.545636 216.410974 
L 96.052909 217.463384 
L 96.864545 218.979251 
L 97.219636 219.411491 
L 97.422545 218.774081 
L 97.726909 218.037115 
L 97.828364 217.743881 
L 98.183455 216.377892 
L 98.386364 216.310796 
L 98.64 216.619561 
L 100.466182 219.574571 
L 100.922727 219.965186 
L 101.582182 219.269378 
L 101.988 219.551895 
L 102.393818 219.770733 
L 102.596727 219.30246 
L 102.951818 218.091475 
L 103.154727 218.053112 
L 103.459091 218.371351 
L 103.560545 218.481469 
L 103.611273 218.417635 
L 103.915636 217.942373 
L 104.118545 218.021583 
L 104.524364 218.546701 
L 105.488182 219.798068 
L 106.299818 220.466541 
L 107.263636 220.950034 
L 107.618727 221.006879 
L 108.075273 219.991124 
L 108.328909 219.983824 
L 108.836182 220.299888 
L 109.952182 220.988241 
L 110.205818 221.041669 
L 110.662364 220.090369 
L 110.916 220.118171 
L 111.524727 220.556468 
L 112.488545 221.167163 
L 112.945091 221.322633 
L 113.655273 220.197847 
L 114.061091 219.035475 
L 114.314727 218.703413 
L 114.517636 218.751094 
L 114.923455 219.189702 
L 116.039455 220.447903 
L 116.800364 220.977214 
L 116.901818 220.753406 
L 117.206182 220.000753 
L 117.409091 219.952606 
L 117.764182 220.193498 
L 118.981636 221.158932 
L 119.539636 221.39765 
L 120.046909 220.306101 
L 120.300545 220.364033 
L 121.112182 220.971312 
L 122.025273 221.473754 
L 123.039818 221.781742 
L 123.141273 221.497517 
L 123.445636 220.557865 
L 124.155818 219.993919 
L 124.460182 220.136653 
L 126.337091 221.483383 
L 126.54 221.248393 
L 127.402364 220.078565 
L 127.656 220.125626 
L 128.214 220.43175 
L 128.569091 219.767005 
L 128.772 219.77912 
L 129.177818 220.124073 
L 130.243091 221.068539 
L 131.105455 221.508855 
L 132.221455 221.815445 
L 133.337455 221.915468 
L 133.895455 220.972399 
L 134.199818 220.983271 
L 135.011455 221.386622 
L 135.214364 221.41753 
L 135.670909 220.465453 
L 135.924545 220.49574 
L 136.685455 220.771423 
L 136.837636 220.450854 
L 137.395636 218.285462 
L 137.598545 218.199573 
L 137.852182 218.436428 
L 139.069636 220.07577 
L 139.120364 220.028244 
L 139.526182 219.639958 
L 139.830545 219.750852 
L 141.250909 220.653384 
L 142.062545 220.773442 
L 142.468364 220.740515 
L 143.178545 219.58187 
L 143.685818 219.485886 
L 144.142364 218.72671 
L 144.446727 218.668467 
L 145.004727 218.66505 
L 145.613455 216.390317 
L 145.816364 216.422157 
L 146.07 216.599215 
L 146.678727 215.386366 
L 146.932364 215.590138 
L 147.186 215.779155 
L 148.048364 214.759051 
L 148.302 214.947292 
L 149.316545 216.270104 
L 149.367273 216.206891 
L 149.773091 215.581751 
L 150.026727 215.650866 
L 150.686182 216.253641 
L 151.497818 216.847407 
L 152.360182 217.202766 
L 152.512364 217.200436 
L 153.273273 216.493135 
L 153.780545 216.646586 
L 154.287818 216.745055 
L 154.845818 214.690713 
L 155.099455 213.620132 
L 155.302364 213.459537 
L 155.505273 213.465439 
L 156.012545 212.184717 
L 156.164727 212.127872 
L 156.367636 212.330091 
L 156.976364 213.489357 
L 157.737273 214.68186 
L 158.447455 215.396306 
L 159.309818 215.935868 
L 160.375091 216.326017 
L 160.628727 216.284703 
L 161.034545 215.155724 
L 161.288182 215.071388 
L 161.744727 215.101519 
L 162.049091 214.414719 
L 162.252 214.361291 
L 162.556364 214.55357 
L 163.926 215.656923 
L 164.534727 214.69677 
L 164.788364 214.650021 
L 165.194182 214.189824 
L 165.447818 214.246359 
L 166.005818 214.703604 
L 166.208727 214.803626 
L 167.375455 213.771408 
L 167.679818 213.808683 
L 168.136364 212.256783 
L 168.339273 212.258025 
L 168.643636 212.604065 
L 170.013273 214.442831 
L 170.875636 215.133825 
L 171.687273 215.535623 
L 171.839455 215.290381 
L 172.143818 213.694838 
L 172.651091 210.964413 
L 173.107636 210.714978 
L 173.412 210.790771 
L 173.716364 210.312869 
L 174.274364 209.424161 
L 174.477273 209.709628 
L 174.883091 210.450944 
L 174.933818 210.398603 
L 175.086 210.181784 
L 175.339636 209.621876 
L 175.491818 209.666296 
L 175.745455 209.912314 
L 176.049818 208.837228 
L 176.354182 207.179559 
L 176.709273 205.234558 
L 177.115091 204.954992 
L 177.673091 203.703159 
L 178.078909 204.062246 
L 178.484727 203.152259 
L 178.839818 202.206551 
L 179.600727 201.059244 
L 179.803636 201.101024 
L 179.905091 200.868984 
L 180.209455 200.155315 
L 180.361636 200.104372 
L 180.564545 199.902308 
L 180.716727 200.047993 
L 180.970364 200.739452 
L 181.883455 203.652682 
L 182.086364 203.80722 
L 182.390727 204.450997 
L 182.644364 204.895352 
L 182.745818 204.779953 
L 183.151636 203.981016 
L 183.303818 204.056033 
L 183.658909 204.419158 
L 183.760364 204.196282 
L 184.014 203.593663 
L 184.166182 203.148998 
L 184.622727 201.779902 
L 184.774909 201.736414 
L 184.927091 201.946865 
L 184.977818 201.903067 
L 185.180727 201.142337 
L 185.434364 200.581031 
L 185.586545 200.445442 
L 185.688 199.703506 
L 186.043091 196.942018 
L 186.956182 192.468034 
L 187.209818 192.083321 
L 187.311273 192.000694 
L 187.412727 191.609146 
L 187.869273 189.26359 
L 188.021455 189.192301 
L 188.173636 189.414866 
L 188.478 190.439474 
L 188.731636 191.059178 
L 188.883818 190.855561 
L 189.594 189.366719 
L 190.760727 181.228716 
L 190.963636 176.015747 
L 191.115818 165.616369 
L 191.166545 151.321087 
L 191.217273 36.710326 
L 191.268 79.742634 
L 191.420182 178.841069 
L 191.623091 197.263208 
L 191.826 200.693479 
L 192.028909 201.205705 
L 192.282545 201.296875 
L 192.637636 200.965434 
L 192.840545 201.174643 
L 194.007273 203.499387 
L 194.362364 204.263688 
L 194.463818 204.216628 
L 194.818909 203.762023 
L 195.021818 203.939392 
L 195.275455 204.06675 
L 195.376909 204.087096 
L 195.732 203.646935 
L 195.833455 203.563842 
L 196.442182 202.177352 
L 196.594364 201.972492 
L 196.797273 201.139541 
L 197.203091 199.099644 
L 197.406 198.976013 
L 197.761091 199.034412 
L 197.913273 199.119058 
L 198.166909 198.9274 
L 198.319091 199.062524 
L 198.572727 199.381228 
L 199.384364 196.909712 
L 199.993091 195.825308 
L 200.043818 195.871126 
L 200.246727 196.270439 
L 200.703273 197.867069 
L 201.109091 199.09312 
L 201.514909 199.053826 
L 201.768545 199.562946 
L 201.971455 200.093344 
L 202.022182 200.075017 
L 202.225091 200.021279 
L 202.377273 200.157179 
L 202.428 200.086666 
L 202.884545 198.266383 
L 203.391818 195.145342 
L 203.645455 194.216873 
L 203.797636 194.23753 
L 204.051273 194.449223 
L 204.304909 194.669148 
L 204.457091 194.557943 
L 204.609273 194.094175 
L 204.862909 192.16191 
L 205.826727 179.888043 
L 206.029636 174.515722 
L 206.131091 168.104814 
L 206.181818 159.907171 
L 206.283273 54.979635 
L 206.486182 186.181223 
L 206.689091 198.301173 
L 206.942727 200.512382 
L 207.348545 201.886137 
L 207.500727 202.226431 
L 207.551455 202.206395 
L 208.058727 201.291594 
L 208.464545 201.449859 
L 208.515273 201.40311 
L 209.022545 199.198268 
L 209.225455 198.954735 
L 209.377636 199.081627 
L 209.479091 199.153848 
L 210.037091 198.488637 
L 210.544364 198.819923 
L 210.848727 199.600377 
L 211.000909 199.820147 
L 211.153091 199.440559 
L 212.066182 194.905071 
L 212.218364 194.950578 
L 212.319818 194.939861 
L 212.725636 194.376536 
L 213.385091 192.213474 
L 213.841636 188.366029 
L 214.146 187.515994 
L 214.298182 187.265627 
L 214.551818 185.189541 
L 214.754727 182.317159 
L 214.957636 175.919763 
L 215.059091 168.652142 
L 215.109818 158.940961 
L 215.160545 50.272525 
L 215.211273 58.120401 
L 215.363455 178.223229 
L 215.566364 198.631682 
L 215.769273 201.164858 
L 215.972182 201.398295 
L 216.276545 201.597563 
L 216.733091 202.09752 
L 216.834545 201.839232 
L 217.646182 198.81868 
L 217.899818 198.565207 
L 218.052 198.684333 
L 218.305636 199.254337 
L 218.660727 200.079056 
L 219.015818 200.032927 
L 219.168 199.489017 
L 219.472364 198.27741 
L 219.726 197.776987 
L 220.081091 195.651201 
L 220.233273 195.536579 
L 220.537636 195.596841 
L 220.740545 195.360297 
L 221.298545 192.966593 
L 221.602909 189.654205 
L 222.110182 184.050621 
L 222.465273 180.10129 
L 222.668182 175.741618 
L 222.820364 167.283357 
L 222.871091 158.397671 
L 222.972545 60.085592 
L 223.124727 176.118876 
L 223.327636 197.027906 
L 223.581273 201.701624 
L 223.834909 202.760867 
L 225.356727 206.369439 
L 225.661091 207.076896 
L 225.711818 207.054997 
L 225.965455 206.933696 
L 226.168364 207.128616 
L 226.472727 207.430702 
L 226.675636 207.455863 
L 226.929273 207.789167 
L 227.487273 209.097535 
L 227.994545 210.151498 
L 228.349636 209.965897 
L 228.603273 210.253228 
L 228.856909 210.682517 
L 228.907636 210.62443 
L 229.212 210.194209 
L 229.414909 210.330109 
L 229.820727 211.051078 
L 231.139636 213.538436 
L 232.103455 214.836087 
L 233.118 215.824663 
L 234.183273 216.552465 
L 235.654364 217.260232 
L 236.719636 217.61466 
L 236.871818 217.203077 
L 237.226909 215.991159 
L 237.429818 215.832273 
L 237.683455 215.944255 
L 238.292182 216.607912 
L 238.698 216.930656 
L 238.900909 216.455394 
L 239.205273 215.907911 
L 239.408182 215.876848 
L 239.712545 216.100035 
L 241.893818 218.224113 
L 243.009818 218.82316 
L 244.531636 219.366915 
L 246.865091 219.932104 
L 247.321636 219.918902 
L 247.778182 219.111113 
L 247.981091 218.944771 
L 248.437636 217.812996 
L 248.742 217.04652 
L 248.995636 216.600768 
L 249.198545 216.645964 
L 249.553636 217.092338 
L 250.060909 217.752734 
L 250.517455 217.482487 
L 250.821818 217.702878 
L 251.430545 218.385795 
L 251.481273 218.266514 
L 251.785636 217.495534 
L 251.988545 217.500348 
L 252.242182 217.593382 
L 252.597273 217.211308 
L 252.800182 217.302478 
L 253.256727 217.857571 
L 254.220545 218.980649 
L 255.082909 219.613399 
L 255.184364 219.5272 
L 256.046727 217.672592 
L 256.300364 217.80492 
L 257.061273 218.67468 
L 257.112 218.607273 
L 257.416364 217.797775 
L 257.619273 217.780069 
L 257.923636 218.076254 
L 259.141091 219.421897 
L 260.003455 219.975903 
L 261.068727 220.389194 
L 262.539818 220.729022 
L 262.692 220.546217 
L 263.097818 219.959439 
L 263.402182 219.926668 
L 263.757273 219.969845 
L 264.518182 218.171461 
L 264.822545 217.171237 
L 265.025455 217.14297 
L 265.329818 217.499261 
L 265.431273 217.6027 
L 265.482 217.567444 
L 265.837091 217.280423 
L 266.344364 217.345655 
L 266.598 217.30574 
L 267.003818 217.432787 
L 267.308182 217.076651 
L 267.511091 217.155551 
L 267.916909 217.656284 
L 268.982182 219.002548 
L 269.793818 219.659683 
L 270.757636 220.156067 
L 271.467818 220.396183 
L 271.62 220.118171 
L 271.975091 219.5345 
L 272.228727 219.007984 
L 272.482364 218.698132 
L 272.736 218.737582 
L 273.243273 219.1838 
L 274.257818 220.052939 
L 274.917273 220.40954 
L 275.373818 219.138914 
L 275.830364 217.410887 
L 276.033273 217.411975 
L 276.337636 217.798396 
L 276.946364 218.690056 
L 277.352182 218.159502 
L 277.605818 218.331901 
L 278.874 219.7771 
L 278.924727 219.690435 
L 279.279818 219.019322 
L 279.533455 219.054112 
L 279.634909 218.979872 
L 279.99 218.448231 
L 280.192909 218.488458 
L 280.446545 218.590033 
L 280.801636 217.937869 
L 281.055273 217.926065 
L 281.816182 216.520626 
L 282.019091 216.69815 
L 282.424909 217.339443 
L 282.475636 217.295489 
L 282.729273 216.64379 
L 283.236545 215.305757 
L 283.439455 215.154947 
L 284.048182 215.431251 
L 284.301818 215.576315 
L 284.606182 215.508909 
L 284.859818 215.79624 
L 285.722182 217.440242 
L 285.975818 217.682377 
L 286.077273 217.574278 
L 286.533818 216.234537 
L 286.736727 216.327881 
L 286.888909 216.380377 
L 287.142545 215.726659 
L 287.497636 214.653593 
L 287.649818 214.638372 
L 287.903455 214.969191 
L 288.512182 216.200212 
L 288.562909 216.137155 
L 288.816545 215.843456 
L 289.019455 215.962116 
L 289.120909 216.014146 
L 289.425273 215.50487 
L 289.577455 215.582993 
L 289.932545 216.166043 
L 290.287636 216.863249 
L 290.338364 216.775031 
L 290.642727 216.19664 
L 290.845636 216.307224 
L 291.302182 217.023068 
L 291.606545 217.376873 
L 291.961636 217.158346 
L 292.215273 217.318009 
L 292.925455 218.205941 
L 293.179091 218.397133 
L 293.534182 217.833342 
L 293.94 216.542215 
L 294.142909 216.348227 
L 294.345818 216.440794 
L 294.751636 217.005206 
L 295.867636 218.631347 
L 296.425636 219.132701 
L 296.831455 218.254089 
L 297.389455 217.646033 
L 297.744545 218.036959 
L 298.099636 218.522782 
L 298.150364 218.468267 
L 298.505455 217.836604 
L 298.708364 217.914727 
L 299.164909 218.47246 
L 300.078 219.548478 
L 300.889636 220.163678 
L 301.904182 220.638473 
L 303.324545 221.031885 
L 303.426 220.973176 
L 304.034727 220.111958 
L 304.389818 220.131838 
L 305.150727 220.333436 
L 305.404364 218.101725 
L 305.708727 216.05344 
L 305.911636 215.826371 
L 306.114545 216.042258 
L 306.672545 217.239265 
L 306.926182 217.559057 
L 307.230545 217.568376 
L 307.636364 217.896555 
L 307.687091 217.795601 
L 307.940727 217.41244 
L 308.143636 217.470373 
L 308.498727 217.929326 
L 309.107455 218.784332 
L 309.513273 218.089145 
L 309.716182 218.206562 
L 310.324909 219.002859 
L 311.136545 219.90275 
L 311.542364 220.125936 
L 311.948182 219.427954 
L 312.201818 219.424382 
L 312.658364 219.742621 
L 313.825091 220.573086 
L 313.977273 220.465298 
L 314.383091 220.014731 
L 314.687455 220.02374 
L 314.941091 220.048279 
L 315.397636 219.250119 
L 315.651273 219.279473 
L 316.158545 219.676923 
L 317.223818 220.482072 
L 318.035455 220.871756 
L 318.136909 220.740204 
L 318.745636 218.824403 
L 318.948545 218.86758 
L 319.354364 219.265185 
L 320.115273 220.024516 
L 320.419636 219.32203 
L 320.724 218.277696 
L 320.926909 218.202369 
L 321.129818 218.199263 
L 321.434182 217.729903 
L 321.637091 217.8321 
L 322.093636 218.486283 
L 322.398 218.859659 
L 322.803818 218.451182 
L 323.108182 218.065226 
L 323.311091 218.116169 
L 323.564727 218.325688 
L 323.615455 218.260146 
L 323.919818 217.857882 
L 324.122727 217.914416 
L 324.477818 218.340443 
L 324.782182 218.69223 
L 325.289455 218.421362 
L 325.644545 218.745192 
L 325.796727 218.7834 
L 326.050364 218.321029 
L 326.608364 216.249447 
L 326.709818 216.243856 
L 327.014182 215.947361 
L 327.217091 216.167596 
L 327.775091 217.273745 
L 327.876545 217.137845 
L 328.079455 217.02664 
L 328.282364 217.209134 
L 328.891091 218.263252 
L 329.702727 219.464919 
L 330.463636 220.190858 
L 330.565091 220.155601 
L 331.021636 219.541799 
L 331.326 219.632658 
L 331.884 219.95214 
L 332.391273 219.490546 
L 332.695636 219.634056 
L 333.963818 220.550566 
L 334.369636 219.581249 
L 334.572545 219.573639 
L 334.978364 219.875104 
L 336.043636 220.731662 
L 336.145091 220.525715 
L 336.449455 219.786885 
L 336.652364 219.47284 
L 336.956727 219.096513 
L 337.210364 219.15926 
L 337.717636 219.662944 
L 338.681455 220.574018 
L 339.138 220.796117 
L 339.746727 220.302529 
L 340.152545 220.450543 
L 341.522182 221.117463 
L 342.029455 220.165076 
L 342.283091 220.161659 
L 342.790364 220.451786 
L 343.145455 220.668604 
L 343.754182 219.756133 
L 344.210727 219.857398 
L 344.616545 219.463055 
L 344.920909 219.551739 
L 345.529636 219.876812 
L 345.935455 219.468646 
L 346.189091 219.523317 
L 346.747091 219.957576 
L 347.812364 220.730109 
L 348.725455 221.140449 
L 348.776182 221.12585 
L 349.232727 220.050609 
L 349.486364 220.085244 
L 349.790727 220.215087 
L 350.247273 219.738117 
L 350.551636 219.83845 
L 350.906727 220.017993 
L 351.718364 218.78868 
L 351.921273 218.796135 
L 352.428545 219.030971 
L 352.732909 218.800795 
L 352.986545 218.93685 
L 353.443091 219.425003 
L 353.493818 219.332436 
L 353.798182 218.786506 
L 353.899636 218.646102 
L 354.204 218.003567 
L 354.406909 218.022826 
L 354.508364 218.063207 
L 354.914182 217.580956 
L 355.015636 217.574278 
L 355.370727 217.017942 
L 355.522909 216.980201 
L 355.827273 216.476672 
L 356.030182 216.649537 
L 356.537455 217.635316 
L 357.349091 219.071197 
L 358.059273 219.901352 
L 358.870909 220.506301 
L 359.073818 220.508786 
L 359.986909 218.542507 
L 360.240545 218.723448 
L 360.595636 219.094494 
L 360.950727 218.248653 
L 361.153636 218.302236 
L 361.458 218.568134 
L 361.508727 218.502281 
L 361.813091 217.788767 
L 362.066727 217.168442 
L 362.218909 217.160987 
L 362.472545 217.440397 
L 362.675455 217.733475 
L 362.726182 217.681134 
L 363.537818 215.79127 
L 363.69 215.911794 
L 364.045091 216.599836 
L 364.755273 217.979959 
L 365.110364 217.510288 
L 365.313273 217.63951 
L 365.617636 218.012109 
L 365.820545 216.998839 
L 366.074182 216.366865 
L 366.226364 216.39684 
L 366.48 216.751733 
L 367.393091 218.401016 
L 367.443818 218.315904 
L 367.748182 217.799328 
L 367.951091 217.855397 
L 368.204727 217.988501 
L 368.509091 217.52318 
L 368.712 217.596954 
L 368.864182 217.664205 
L 368.965636 217.323445 
L 369.27 216.274763 
L 369.422182 216.237022 
L 369.675818 216.355371 
L 369.929455 216.039152 
L 370.030909 215.96429 
L 370.335273 215.464489 
L 370.487455 215.557522 
L 370.791818 216.096928 
L 372.009273 218.465316 
L 372.313636 218.778896 
L 372.871636 218.44031 
L 373.074545 218.405986 
L 373.429636 217.660011 
L 373.531091 217.576918 
L 373.581818 217.43465 
L 373.581818 217.43465 
" style="fill:none;stroke:#800080;stroke-linecap:square;stroke-width:1.5;"/>
   </g>
   <g id="line2d_18">
    <path clip-path="url(#p03ad9a6e86)" d="M 322.81228 213.171429 
L 373.429662 213.171429 
L 373.429662 213.171429 
" style="fill:none;stroke:#000000;stroke-linecap:square;stroke-width:1.5;"/>
   </g>
   <g id="line2d_19">
    <path clip-path="url(#p03ad9a6e86)" d="M 322.81228 189.874286 
L 322.81228 188.321143 
L 322.81228 186.768 
L 322.81228 185.214857 
L 322.81228 183.661714 
L 322.81228 182.108571 
L 322.81228 180.555429 
L 322.81228 179.002286 
L 322.81228 177.449143 
L 322.81228 175.896 
L 322.81228 174.342857 
L 322.81228 172.789714 
L 322.81228 171.236571 
L 322.81228 169.683429 
L 322.81228 168.130286 
L 322.81228 166.577143 
L 322.81228 165.024 
L 322.81228 163.470857 
L 322.81228 161.917714 
L 322.81228 160.364571 
" style="fill:none;stroke:#000000;stroke-linecap:square;stroke-width:1.5;"/>
   </g>
   <g id="patch_3">
    <path d="M 54 252 
L 54 34.56 
" style="fill:none;stroke:#000000;stroke-linecap:square;stroke-linejoin:miter;stroke-width:0.8;"/>
   </g>
   <g id="patch_4">
    <path d="M 54 252 
L 388.8 252 
" style="fill:none;stroke:#000000;stroke-linecap:square;stroke-linejoin:miter;stroke-width:0.8;"/>
   </g>
   <g id="text_18">
    <!-- 500 ms -->
    <g transform="translate(322.81228 211.618286)scale(0.1 -0.1)">
     <use xlink:href="#DejaVuSans-35"/>
     <use x="63.623047" xlink:href="#DejaVuSans-30"/>
     <use x="127.246094" xlink:href="#DejaVuSans-30"/>
     <use x="190.869141" xlink:href="#DejaVuSans-20"/>
     <use x="222.65625" xlink:href="#DejaVuSans-6d"/>
     <use x="320.068359" xlink:href="#DejaVuSans-73"/>
    </g>
   </g>
   <g id="text_19">
    <!-- 20 mV -->
    <g transform="translate(327.884162 158.811429)scale(0.1 -0.1)">
     <use xlink:href="#DejaVuSans-32"/>
     <use x="63.623047" xlink:href="#DejaVuSans-30"/>
     <use x="127.246094" xlink:href="#DejaVuSans-20"/>
     <use x="159.033203" xlink:href="#DejaVuSans-6d"/>
     <use x="256.445312" xlink:href="#DejaVuSans-56"/>
    </g>
   </g>
  </g>
 </g>
 <defs>
  <clipPath id="p03ad9a6e86">
   <rect height="217.44" width="334.8" x="54" y="34.56"/>
  </clipPath>
 </defs>
</svg>
