<?xml version="1.0" encoding="utf-8" standalone="no"?>
<!DOCTYPE svg PUBLIC "-//W3C//DTD SVG 1.1//EN"
  "http://www.w3.org/Graphics/SVG/1.1/DTD/svg11.dtd">
<!-- Created with matplotlib (https://matplotlib.org/) -->
<svg height="288pt" version="1.1" viewBox="0 0 432 288" width="432pt" xmlns="http://www.w3.org/2000/svg" xmlns:xlink="http://www.w3.org/1999/xlink">
 <metadata>
  <rdf:RDF xmlns:cc="http://creativecommons.org/ns#" xmlns:dc="http://purl.org/dc/elements/1.1/" xmlns:rdf="http://www.w3.org/1999/02/22-rdf-syntax-ns#">
   <cc:Work>
    <dc:type rdf:resource="http://purl.org/dc/dcmitype/StillImage"/>
    <dc:date>2022-04-20T11:58:37.742510</dc:date>
    <dc:format>image/svg+xml</dc:format>
    <dc:creator>
     <cc:Agent>
      <dc:title>Matplotlib v3.3.4, https://matplotlib.org/</dc:title>
     </cc:Agent>
    </dc:creator>
   </cc:Work>
  </rdf:RDF>
 </metadata>
 <defs>
  <style type="text/css">*{stroke-linecap:butt;stroke-linejoin:round;}</style>
 </defs>
 <g id="figure_1">
  <g id="patch_1">
   <path d="M 0 288 
L 432 288 
L 432 0 
L 0 0 
z
" style="fill:none;"/>
  </g>
  <g id="axes_1">
   <g id="patch_2">
    <path d="M 54 252 
L 388.8 252 
L 388.8 34.56 
L 54 34.56 
z
" style="fill:#ffffff;"/>
   </g>
   <g id="matplotlib.axis_1">
    <g id="xtick_1">
     <g id="line2d_1">
      <defs>
       <path d="M 0 0 
L 0 3.5 
" id="m96b2fbac32" style="stroke:#000000;stroke-width:0.8;"/>
      </defs>
      <g>
       <use style="stroke:#000000;stroke-width:0.8;" x="69.218182" xlink:href="#m96b2fbac32" y="252"/>
      </g>
     </g>
     <g id="text_1">
      <!-- 0 -->
      <g transform="translate(66.036932 266.598437)scale(0.1 -0.1)">
       <defs>
        <path d="M 31.78125 66.40625 
Q 24.171875 66.40625 20.328125 58.90625 
Q 16.5 51.421875 16.5 36.375 
Q 16.5 21.390625 20.328125 13.890625 
Q 24.171875 6.390625 31.78125 6.390625 
Q 39.453125 6.390625 43.28125 13.890625 
Q 47.125 21.390625 47.125 36.375 
Q 47.125 51.421875 43.28125 58.90625 
Q 39.453125 66.40625 31.78125 66.40625 
z
M 31.78125 74.21875 
Q 44.046875 74.21875 50.515625 64.515625 
Q 56.984375 54.828125 56.984375 36.375 
Q 56.984375 17.96875 50.515625 8.265625 
Q 44.046875 -1.421875 31.78125 -1.421875 
Q 19.53125 -1.421875 13.0625 8.265625 
Q 6.59375 17.96875 6.59375 36.375 
Q 6.59375 54.828125 13.0625 64.515625 
Q 19.53125 74.21875 31.78125 74.21875 
z
" id="DejaVuSans-48"/>
       </defs>
       <use xlink:href="#DejaVuSans-48"/>
      </g>
     </g>
    </g>
    <g id="xtick_2">
     <g id="line2d_2">
      <g>
       <use style="stroke:#000000;stroke-width:0.8;" x="119.945455" xlink:href="#m96b2fbac32" y="252"/>
      </g>
     </g>
     <g id="text_2">
      <!-- 500 -->
      <g transform="translate(110.401705 266.598437)scale(0.1 -0.1)">
       <defs>
        <path d="M 10.796875 72.90625 
L 49.515625 72.90625 
L 49.515625 64.59375 
L 19.828125 64.59375 
L 19.828125 46.734375 
Q 21.96875 47.46875 24.109375 47.828125 
Q 26.265625 48.1875 28.421875 48.1875 
Q 40.625 48.1875 47.75 41.5 
Q 54.890625 34.8125 54.890625 23.390625 
Q 54.890625 11.625 47.5625 5.09375 
Q 40.234375 -1.421875 26.90625 -1.421875 
Q 22.3125 -1.421875 17.546875 -0.640625 
Q 12.796875 0.140625 7.71875 1.703125 
L 7.71875 11.625 
Q 12.109375 9.234375 16.796875 8.0625 
Q 21.484375 6.890625 26.703125 6.890625 
Q 35.15625 6.890625 40.078125 11.328125 
Q 45.015625 15.765625 45.015625 23.390625 
Q 45.015625 31 40.078125 35.4375 
Q 35.15625 39.890625 26.703125 39.890625 
Q 22.75 39.890625 18.8125 39.015625 
Q 14.890625 38.140625 10.796875 36.28125 
z
" id="DejaVuSans-53"/>
       </defs>
       <use xlink:href="#DejaVuSans-53"/>
       <use x="63.623047" xlink:href="#DejaVuSans-48"/>
       <use x="127.246094" xlink:href="#DejaVuSans-48"/>
      </g>
     </g>
    </g>
    <g id="xtick_3">
     <g id="line2d_3">
      <g>
       <use style="stroke:#000000;stroke-width:0.8;" x="170.672727" xlink:href="#m96b2fbac32" y="252"/>
      </g>
     </g>
     <g id="text_3">
      <!-- 1000 -->
      <g transform="translate(157.947727 266.598437)scale(0.1 -0.1)">
       <defs>
        <path d="M 12.40625 8.296875 
L 28.515625 8.296875 
L 28.515625 63.921875 
L 10.984375 60.40625 
L 10.984375 69.390625 
L 28.421875 72.90625 
L 38.28125 72.90625 
L 38.28125 8.296875 
L 54.390625 8.296875 
L 54.390625 0 
L 12.40625 0 
z
" id="DejaVuSans-49"/>
       </defs>
       <use xlink:href="#DejaVuSans-49"/>
       <use x="63.623047" xlink:href="#DejaVuSans-48"/>
       <use x="127.246094" xlink:href="#DejaVuSans-48"/>
       <use x="190.869141" xlink:href="#DejaVuSans-48"/>
      </g>
     </g>
    </g>
    <g id="xtick_4">
     <g id="line2d_4">
      <g>
       <use style="stroke:#000000;stroke-width:0.8;" x="221.4" xlink:href="#m96b2fbac32" y="252"/>
      </g>
     </g>
     <g id="text_4">
      <!-- 1500 -->
      <g transform="translate(208.675 266.598437)scale(0.1 -0.1)">
       <use xlink:href="#DejaVuSans-49"/>
       <use x="63.623047" xlink:href="#DejaVuSans-53"/>
       <use x="127.246094" xlink:href="#DejaVuSans-48"/>
       <use x="190.869141" xlink:href="#DejaVuSans-48"/>
      </g>
     </g>
    </g>
    <g id="xtick_5">
     <g id="line2d_5">
      <g>
       <use style="stroke:#000000;stroke-width:0.8;" x="272.127273" xlink:href="#m96b2fbac32" y="252"/>
      </g>
     </g>
     <g id="text_5">
      <!-- 2000 -->
      <g transform="translate(259.402273 266.598437)scale(0.1 -0.1)">
       <defs>
        <path d="M 19.1875 8.296875 
L 53.609375 8.296875 
L 53.609375 0 
L 7.328125 0 
L 7.328125 8.296875 
Q 12.9375 14.109375 22.625 23.890625 
Q 32.328125 33.6875 34.8125 36.53125 
Q 39.546875 41.84375 41.421875 45.53125 
Q 43.3125 49.21875 43.3125 52.78125 
Q 43.3125 58.59375 39.234375 62.25 
Q 35.15625 65.921875 28.609375 65.921875 
Q 23.96875 65.921875 18.8125 64.3125 
Q 13.671875 62.703125 7.8125 59.421875 
L 7.8125 69.390625 
Q 13.765625 71.78125 18.9375 73 
Q 24.125 74.21875 28.421875 74.21875 
Q 39.75 74.21875 46.484375 68.546875 
Q 53.21875 62.890625 53.21875 53.421875 
Q 53.21875 48.921875 51.53125 44.890625 
Q 49.859375 40.875 45.40625 35.40625 
Q 44.1875 33.984375 37.640625 27.21875 
Q 31.109375 20.453125 19.1875 8.296875 
z
" id="DejaVuSans-50"/>
       </defs>
       <use xlink:href="#DejaVuSans-50"/>
       <use x="63.623047" xlink:href="#DejaVuSans-48"/>
       <use x="127.246094" xlink:href="#DejaVuSans-48"/>
       <use x="190.869141" xlink:href="#DejaVuSans-48"/>
      </g>
     </g>
    </g>
    <g id="xtick_6">
     <g id="line2d_6">
      <g>
       <use style="stroke:#000000;stroke-width:0.8;" x="322.854545" xlink:href="#m96b2fbac32" y="252"/>
      </g>
     </g>
     <g id="text_6">
      <!-- 2500 -->
      <g transform="translate(310.129545 266.598437)scale(0.1 -0.1)">
       <use xlink:href="#DejaVuSans-50"/>
       <use x="63.623047" xlink:href="#DejaVuSans-53"/>
       <use x="127.246094" xlink:href="#DejaVuSans-48"/>
       <use x="190.869141" xlink:href="#DejaVuSans-48"/>
      </g>
     </g>
    </g>
    <g id="xtick_7">
     <g id="line2d_7">
      <g>
       <use style="stroke:#000000;stroke-width:0.8;" x="373.581818" xlink:href="#m96b2fbac32" y="252"/>
      </g>
     </g>
     <g id="text_7">
      <!-- 3000 -->
      <g transform="translate(360.856818 266.598437)scale(0.1 -0.1)">
       <defs>
        <path d="M 40.578125 39.3125 
Q 47.65625 37.796875 51.625 33 
Q 55.609375 28.21875 55.609375 21.1875 
Q 55.609375 10.40625 48.1875 4.484375 
Q 40.765625 -1.421875 27.09375 -1.421875 
Q 22.515625 -1.421875 17.65625 -0.515625 
Q 12.796875 0.390625 7.625 2.203125 
L 7.625 11.71875 
Q 11.71875 9.328125 16.59375 8.109375 
Q 21.484375 6.890625 26.8125 6.890625 
Q 36.078125 6.890625 40.9375 10.546875 
Q 45.796875 14.203125 45.796875 21.1875 
Q 45.796875 27.640625 41.28125 31.265625 
Q 36.765625 34.90625 28.71875 34.90625 
L 20.21875 34.90625 
L 20.21875 43.015625 
L 29.109375 43.015625 
Q 36.375 43.015625 40.234375 45.921875 
Q 44.09375 48.828125 44.09375 54.296875 
Q 44.09375 59.90625 40.109375 62.90625 
Q 36.140625 65.921875 28.71875 65.921875 
Q 24.65625 65.921875 20.015625 65.03125 
Q 15.375 64.15625 9.8125 62.3125 
L 9.8125 71.09375 
Q 15.4375 72.65625 20.34375 73.4375 
Q 25.25 74.21875 29.59375 74.21875 
Q 40.828125 74.21875 47.359375 69.109375 
Q 53.90625 64.015625 53.90625 55.328125 
Q 53.90625 49.265625 50.4375 45.09375 
Q 46.96875 40.921875 40.578125 39.3125 
z
" id="DejaVuSans-51"/>
       </defs>
       <use xlink:href="#DejaVuSans-51"/>
       <use x="63.623047" xlink:href="#DejaVuSans-48"/>
       <use x="127.246094" xlink:href="#DejaVuSans-48"/>
       <use x="190.869141" xlink:href="#DejaVuSans-48"/>
      </g>
     </g>
    </g>
    <g id="text_8">
     <!-- Time(ms) -->
     <g transform="translate(197.789844 280.276563)scale(0.1 -0.1)">
      <defs>
       <path d="M -0.296875 72.90625 
L 61.375 72.90625 
L 61.375 64.59375 
L 35.5 64.59375 
L 35.5 0 
L 25.59375 0 
L 25.59375 64.59375 
L -0.296875 64.59375 
z
" id="DejaVuSans-84"/>
       <path d="M 9.421875 54.6875 
L 18.40625 54.6875 
L 18.40625 0 
L 9.421875 0 
z
M 9.421875 75.984375 
L 18.40625 75.984375 
L 18.40625 64.59375 
L 9.421875 64.59375 
z
" id="DejaVuSans-105"/>
       <path d="M 52 44.1875 
Q 55.375 50.25 60.0625 53.125 
Q 64.75 56 71.09375 56 
Q 79.640625 56 84.28125 50.015625 
Q 88.921875 44.046875 88.921875 33.015625 
L 88.921875 0 
L 79.890625 0 
L 79.890625 32.71875 
Q 79.890625 40.578125 77.09375 44.375 
Q 74.3125 48.1875 68.609375 48.1875 
Q 61.625 48.1875 57.5625 43.546875 
Q 53.515625 38.921875 53.515625 30.90625 
L 53.515625 0 
L 44.484375 0 
L 44.484375 32.71875 
Q 44.484375 40.625 41.703125 44.40625 
Q 38.921875 48.1875 33.109375 48.1875 
Q 26.21875 48.1875 22.15625 43.53125 
Q 18.109375 38.875 18.109375 30.90625 
L 18.109375 0 
L 9.078125 0 
L 9.078125 54.6875 
L 18.109375 54.6875 
L 18.109375 46.1875 
Q 21.1875 51.21875 25.484375 53.609375 
Q 29.78125 56 35.6875 56 
Q 41.65625 56 45.828125 52.96875 
Q 50 49.953125 52 44.1875 
z
" id="DejaVuSans-109"/>
       <path d="M 56.203125 29.59375 
L 56.203125 25.203125 
L 14.890625 25.203125 
Q 15.484375 15.921875 20.484375 11.0625 
Q 25.484375 6.203125 34.421875 6.203125 
Q 39.59375 6.203125 44.453125 7.46875 
Q 49.3125 8.734375 54.109375 11.28125 
L 54.109375 2.78125 
Q 49.265625 0.734375 44.1875 -0.34375 
Q 39.109375 -1.421875 33.890625 -1.421875 
Q 20.796875 -1.421875 13.15625 6.1875 
Q 5.515625 13.8125 5.515625 26.8125 
Q 5.515625 40.234375 12.765625 48.109375 
Q 20.015625 56 32.328125 56 
Q 43.359375 56 49.78125 48.890625 
Q 56.203125 41.796875 56.203125 29.59375 
z
M 47.21875 32.234375 
Q 47.125 39.59375 43.09375 43.984375 
Q 39.0625 48.390625 32.421875 48.390625 
Q 24.90625 48.390625 20.390625 44.140625 
Q 15.875 39.890625 15.1875 32.171875 
z
" id="DejaVuSans-101"/>
       <path d="M 31 75.875 
Q 24.46875 64.65625 21.28125 53.65625 
Q 18.109375 42.671875 18.109375 31.390625 
Q 18.109375 20.125 21.3125 9.0625 
Q 24.515625 -2 31 -13.1875 
L 23.1875 -13.1875 
Q 15.875 -1.703125 12.234375 9.375 
Q 8.59375 20.453125 8.59375 31.390625 
Q 8.59375 42.28125 12.203125 53.3125 
Q 15.828125 64.359375 23.1875 75.875 
z
" id="DejaVuSans-40"/>
       <path d="M 44.28125 53.078125 
L 44.28125 44.578125 
Q 40.484375 46.53125 36.375 47.5 
Q 32.28125 48.484375 27.875 48.484375 
Q 21.1875 48.484375 17.84375 46.4375 
Q 14.5 44.390625 14.5 40.28125 
Q 14.5 37.15625 16.890625 35.375 
Q 19.28125 33.59375 26.515625 31.984375 
L 29.59375 31.296875 
Q 39.15625 29.25 43.1875 25.515625 
Q 47.21875 21.78125 47.21875 15.09375 
Q 47.21875 7.46875 41.1875 3.015625 
Q 35.15625 -1.421875 24.609375 -1.421875 
Q 20.21875 -1.421875 15.453125 -0.5625 
Q 10.6875 0.296875 5.421875 2 
L 5.421875 11.28125 
Q 10.40625 8.6875 15.234375 7.390625 
Q 20.0625 6.109375 24.8125 6.109375 
Q 31.15625 6.109375 34.5625 8.28125 
Q 37.984375 10.453125 37.984375 14.40625 
Q 37.984375 18.0625 35.515625 20.015625 
Q 33.0625 21.96875 24.703125 23.78125 
L 21.578125 24.515625 
Q 13.234375 26.265625 9.515625 29.90625 
Q 5.8125 33.546875 5.8125 39.890625 
Q 5.8125 47.609375 11.28125 51.796875 
Q 16.75 56 26.8125 56 
Q 31.78125 56 36.171875 55.265625 
Q 40.578125 54.546875 44.28125 53.078125 
z
" id="DejaVuSans-115"/>
       <path d="M 8.015625 75.875 
L 15.828125 75.875 
Q 23.140625 64.359375 26.78125 53.3125 
Q 30.421875 42.28125 30.421875 31.390625 
Q 30.421875 20.453125 26.78125 9.375 
Q 23.140625 -1.703125 15.828125 -13.1875 
L 8.015625 -13.1875 
Q 14.5 -2 17.703125 9.0625 
Q 20.90625 20.125 20.90625 31.390625 
Q 20.90625 42.671875 17.703125 53.65625 
Q 14.5 64.65625 8.015625 75.875 
z
" id="DejaVuSans-41"/>
      </defs>
      <use xlink:href="#DejaVuSans-84"/>
      <use x="57.958984" xlink:href="#DejaVuSans-105"/>
      <use x="85.742188" xlink:href="#DejaVuSans-109"/>
      <use x="183.154297" xlink:href="#DejaVuSans-101"/>
      <use x="244.677734" xlink:href="#DejaVuSans-40"/>
      <use x="283.691406" xlink:href="#DejaVuSans-109"/>
      <use x="381.103516" xlink:href="#DejaVuSans-115"/>
      <use x="433.203125" xlink:href="#DejaVuSans-41"/>
     </g>
    </g>
   </g>
   <g id="matplotlib.axis_2">
    <g id="ytick_1">
     <g id="line2d_8">
      <defs>
       <path d="M 0 0 
L -3.5 0 
" id="m424cafabdb" style="stroke:#000000;stroke-width:0.8;"/>
      </defs>
      <g>
       <use style="stroke:#000000;stroke-width:0.8;" x="54" xlink:href="#m424cafabdb" y="252"/>
      </g>
     </g>
     <g id="text_9">
      <!-- −100 -->
      <g transform="translate(19.532812 255.799219)scale(0.1 -0.1)">
       <defs>
        <path d="M 10.59375 35.5 
L 73.1875 35.5 
L 73.1875 27.203125 
L 10.59375 27.203125 
z
" id="DejaVuSans-8722"/>
       </defs>
       <use xlink:href="#DejaVuSans-8722"/>
       <use x="83.789062" xlink:href="#DejaVuSans-49"/>
       <use x="147.412109" xlink:href="#DejaVuSans-48"/>
       <use x="211.035156" xlink:href="#DejaVuSans-48"/>
      </g>
     </g>
    </g>
    <g id="ytick_2">
     <g id="line2d_9">
      <g>
       <use style="stroke:#000000;stroke-width:0.8;" x="54" xlink:href="#m424cafabdb" y="220.937143"/>
      </g>
     </g>
     <g id="text_10">
      <!-- −80 -->
      <g transform="translate(25.895312 224.736362)scale(0.1 -0.1)">
       <defs>
        <path d="M 31.78125 34.625 
Q 24.75 34.625 20.71875 30.859375 
Q 16.703125 27.09375 16.703125 20.515625 
Q 16.703125 13.921875 20.71875 10.15625 
Q 24.75 6.390625 31.78125 6.390625 
Q 38.8125 6.390625 42.859375 10.171875 
Q 46.921875 13.96875 46.921875 20.515625 
Q 46.921875 27.09375 42.890625 30.859375 
Q 38.875 34.625 31.78125 34.625 
z
M 21.921875 38.8125 
Q 15.578125 40.375 12.03125 44.71875 
Q 8.5 49.078125 8.5 55.328125 
Q 8.5 64.0625 14.71875 69.140625 
Q 20.953125 74.21875 31.78125 74.21875 
Q 42.671875 74.21875 48.875 69.140625 
Q 55.078125 64.0625 55.078125 55.328125 
Q 55.078125 49.078125 51.53125 44.71875 
Q 48 40.375 41.703125 38.8125 
Q 48.828125 37.15625 52.796875 32.3125 
Q 56.78125 27.484375 56.78125 20.515625 
Q 56.78125 9.90625 50.3125 4.234375 
Q 43.84375 -1.421875 31.78125 -1.421875 
Q 19.734375 -1.421875 13.25 4.234375 
Q 6.78125 9.90625 6.78125 20.515625 
Q 6.78125 27.484375 10.78125 32.3125 
Q 14.796875 37.15625 21.921875 38.8125 
z
M 18.3125 54.390625 
Q 18.3125 48.734375 21.84375 45.5625 
Q 25.390625 42.390625 31.78125 42.390625 
Q 38.140625 42.390625 41.71875 45.5625 
Q 45.3125 48.734375 45.3125 54.390625 
Q 45.3125 60.0625 41.71875 63.234375 
Q 38.140625 66.40625 31.78125 66.40625 
Q 25.390625 66.40625 21.84375 63.234375 
Q 18.3125 60.0625 18.3125 54.390625 
z
" id="DejaVuSans-56"/>
       </defs>
       <use xlink:href="#DejaVuSans-8722"/>
       <use x="83.789062" xlink:href="#DejaVuSans-56"/>
       <use x="147.412109" xlink:href="#DejaVuSans-48"/>
      </g>
     </g>
    </g>
    <g id="ytick_3">
     <g id="line2d_10">
      <g>
       <use style="stroke:#000000;stroke-width:0.8;" x="54" xlink:href="#m424cafabdb" y="189.874286"/>
      </g>
     </g>
     <g id="text_11">
      <!-- −60 -->
      <g transform="translate(25.895312 193.673504)scale(0.1 -0.1)">
       <defs>
        <path d="M 33.015625 40.375 
Q 26.375 40.375 22.484375 35.828125 
Q 18.609375 31.296875 18.609375 23.390625 
Q 18.609375 15.53125 22.484375 10.953125 
Q 26.375 6.390625 33.015625 6.390625 
Q 39.65625 6.390625 43.53125 10.953125 
Q 47.40625 15.53125 47.40625 23.390625 
Q 47.40625 31.296875 43.53125 35.828125 
Q 39.65625 40.375 33.015625 40.375 
z
M 52.59375 71.296875 
L 52.59375 62.3125 
Q 48.875 64.0625 45.09375 64.984375 
Q 41.3125 65.921875 37.59375 65.921875 
Q 27.828125 65.921875 22.671875 59.328125 
Q 17.53125 52.734375 16.796875 39.40625 
Q 19.671875 43.65625 24.015625 45.921875 
Q 28.375 48.1875 33.59375 48.1875 
Q 44.578125 48.1875 50.953125 41.515625 
Q 57.328125 34.859375 57.328125 23.390625 
Q 57.328125 12.15625 50.6875 5.359375 
Q 44.046875 -1.421875 33.015625 -1.421875 
Q 20.359375 -1.421875 13.671875 8.265625 
Q 6.984375 17.96875 6.984375 36.375 
Q 6.984375 53.65625 15.1875 63.9375 
Q 23.390625 74.21875 37.203125 74.21875 
Q 40.921875 74.21875 44.703125 73.484375 
Q 48.484375 72.75 52.59375 71.296875 
z
" id="DejaVuSans-54"/>
       </defs>
       <use xlink:href="#DejaVuSans-8722"/>
       <use x="83.789062" xlink:href="#DejaVuSans-54"/>
       <use x="147.412109" xlink:href="#DejaVuSans-48"/>
      </g>
     </g>
    </g>
    <g id="ytick_4">
     <g id="line2d_11">
      <g>
       <use style="stroke:#000000;stroke-width:0.8;" x="54" xlink:href="#m424cafabdb" y="158.811429"/>
      </g>
     </g>
     <g id="text_12">
      <!-- −40 -->
      <g transform="translate(25.895312 162.610647)scale(0.1 -0.1)">
       <defs>
        <path d="M 37.796875 64.3125 
L 12.890625 25.390625 
L 37.796875 25.390625 
z
M 35.203125 72.90625 
L 47.609375 72.90625 
L 47.609375 25.390625 
L 58.015625 25.390625 
L 58.015625 17.1875 
L 47.609375 17.1875 
L 47.609375 0 
L 37.796875 0 
L 37.796875 17.1875 
L 4.890625 17.1875 
L 4.890625 26.703125 
z
" id="DejaVuSans-52"/>
       </defs>
       <use xlink:href="#DejaVuSans-8722"/>
       <use x="83.789062" xlink:href="#DejaVuSans-52"/>
       <use x="147.412109" xlink:href="#DejaVuSans-48"/>
      </g>
     </g>
    </g>
    <g id="ytick_5">
     <g id="line2d_12">
      <g>
       <use style="stroke:#000000;stroke-width:0.8;" x="54" xlink:href="#m424cafabdb" y="127.748571"/>
      </g>
     </g>
     <g id="text_13">
      <!-- −20 -->
      <g transform="translate(25.895312 131.54779)scale(0.1 -0.1)">
       <use xlink:href="#DejaVuSans-8722"/>
       <use x="83.789062" xlink:href="#DejaVuSans-50"/>
       <use x="147.412109" xlink:href="#DejaVuSans-48"/>
      </g>
     </g>
    </g>
    <g id="ytick_6">
     <g id="line2d_13">
      <g>
       <use style="stroke:#000000;stroke-width:0.8;" x="54" xlink:href="#m424cafabdb" y="96.685714"/>
      </g>
     </g>
     <g id="text_14">
      <!-- 0 -->
      <g transform="translate(40.6375 100.484933)scale(0.1 -0.1)">
       <use xlink:href="#DejaVuSans-48"/>
      </g>
     </g>
    </g>
    <g id="ytick_7">
     <g id="line2d_14">
      <g>
       <use style="stroke:#000000;stroke-width:0.8;" x="54" xlink:href="#m424cafabdb" y="65.622857"/>
      </g>
     </g>
     <g id="text_15">
      <!-- 20 -->
      <g transform="translate(34.275 69.422076)scale(0.1 -0.1)">
       <use xlink:href="#DejaVuSans-50"/>
       <use x="63.623047" xlink:href="#DejaVuSans-48"/>
      </g>
     </g>
    </g>
    <g id="ytick_8">
     <g id="line2d_15">
      <g>
       <use style="stroke:#000000;stroke-width:0.8;" x="54" xlink:href="#m424cafabdb" y="34.56"/>
      </g>
     </g>
     <g id="text_16">
      <!-- 40 -->
      <g transform="translate(34.275 38.359219)scale(0.1 -0.1)">
       <use xlink:href="#DejaVuSans-52"/>
       <use x="63.623047" xlink:href="#DejaVuSans-48"/>
      </g>
     </g>
    </g>
    <g id="text_17">
     <!-- Membrane potential (mV) -->
     <g transform="translate(13.453125 207.691719)rotate(-90)scale(0.1 -0.1)">
      <defs>
       <path d="M 9.8125 72.90625 
L 24.515625 72.90625 
L 43.109375 23.296875 
L 61.8125 72.90625 
L 76.515625 72.90625 
L 76.515625 0 
L 66.890625 0 
L 66.890625 64.015625 
L 48.09375 14.015625 
L 38.1875 14.015625 
L 19.390625 64.015625 
L 19.390625 0 
L 9.8125 0 
z
" id="DejaVuSans-77"/>
       <path d="M 48.6875 27.296875 
Q 48.6875 37.203125 44.609375 42.84375 
Q 40.53125 48.484375 33.40625 48.484375 
Q 26.265625 48.484375 22.1875 42.84375 
Q 18.109375 37.203125 18.109375 27.296875 
Q 18.109375 17.390625 22.1875 11.75 
Q 26.265625 6.109375 33.40625 6.109375 
Q 40.53125 6.109375 44.609375 11.75 
Q 48.6875 17.390625 48.6875 27.296875 
z
M 18.109375 46.390625 
Q 20.953125 51.265625 25.265625 53.625 
Q 29.59375 56 35.59375 56 
Q 45.5625 56 51.78125 48.09375 
Q 58.015625 40.1875 58.015625 27.296875 
Q 58.015625 14.40625 51.78125 6.484375 
Q 45.5625 -1.421875 35.59375 -1.421875 
Q 29.59375 -1.421875 25.265625 0.953125 
Q 20.953125 3.328125 18.109375 8.203125 
L 18.109375 0 
L 9.078125 0 
L 9.078125 75.984375 
L 18.109375 75.984375 
z
" id="DejaVuSans-98"/>
       <path d="M 41.109375 46.296875 
Q 39.59375 47.171875 37.8125 47.578125 
Q 36.03125 48 33.890625 48 
Q 26.265625 48 22.1875 43.046875 
Q 18.109375 38.09375 18.109375 28.8125 
L 18.109375 0 
L 9.078125 0 
L 9.078125 54.6875 
L 18.109375 54.6875 
L 18.109375 46.1875 
Q 20.953125 51.171875 25.484375 53.578125 
Q 30.03125 56 36.53125 56 
Q 37.453125 56 38.578125 55.875 
Q 39.703125 55.765625 41.0625 55.515625 
z
" id="DejaVuSans-114"/>
       <path d="M 34.28125 27.484375 
Q 23.390625 27.484375 19.1875 25 
Q 14.984375 22.515625 14.984375 16.5 
Q 14.984375 11.71875 18.140625 8.90625 
Q 21.296875 6.109375 26.703125 6.109375 
Q 34.1875 6.109375 38.703125 11.40625 
Q 43.21875 16.703125 43.21875 25.484375 
L 43.21875 27.484375 
z
M 52.203125 31.203125 
L 52.203125 0 
L 43.21875 0 
L 43.21875 8.296875 
Q 40.140625 3.328125 35.546875 0.953125 
Q 30.953125 -1.421875 24.3125 -1.421875 
Q 15.921875 -1.421875 10.953125 3.296875 
Q 6 8.015625 6 15.921875 
Q 6 25.140625 12.171875 29.828125 
Q 18.359375 34.515625 30.609375 34.515625 
L 43.21875 34.515625 
L 43.21875 35.40625 
Q 43.21875 41.609375 39.140625 45 
Q 35.0625 48.390625 27.6875 48.390625 
Q 23 48.390625 18.546875 47.265625 
Q 14.109375 46.140625 10.015625 43.890625 
L 10.015625 52.203125 
Q 14.9375 54.109375 19.578125 55.046875 
Q 24.21875 56 28.609375 56 
Q 40.484375 56 46.34375 49.84375 
Q 52.203125 43.703125 52.203125 31.203125 
z
" id="DejaVuSans-97"/>
       <path d="M 54.890625 33.015625 
L 54.890625 0 
L 45.90625 0 
L 45.90625 32.71875 
Q 45.90625 40.484375 42.875 44.328125 
Q 39.84375 48.1875 33.796875 48.1875 
Q 26.515625 48.1875 22.3125 43.546875 
Q 18.109375 38.921875 18.109375 30.90625 
L 18.109375 0 
L 9.078125 0 
L 9.078125 54.6875 
L 18.109375 54.6875 
L 18.109375 46.1875 
Q 21.34375 51.125 25.703125 53.5625 
Q 30.078125 56 35.796875 56 
Q 45.21875 56 50.046875 50.171875 
Q 54.890625 44.34375 54.890625 33.015625 
z
" id="DejaVuSans-110"/>
       <path id="DejaVuSans-32"/>
       <path d="M 18.109375 8.203125 
L 18.109375 -20.796875 
L 9.078125 -20.796875 
L 9.078125 54.6875 
L 18.109375 54.6875 
L 18.109375 46.390625 
Q 20.953125 51.265625 25.265625 53.625 
Q 29.59375 56 35.59375 56 
Q 45.5625 56 51.78125 48.09375 
Q 58.015625 40.1875 58.015625 27.296875 
Q 58.015625 14.40625 51.78125 6.484375 
Q 45.5625 -1.421875 35.59375 -1.421875 
Q 29.59375 -1.421875 25.265625 0.953125 
Q 20.953125 3.328125 18.109375 8.203125 
z
M 48.6875 27.296875 
Q 48.6875 37.203125 44.609375 42.84375 
Q 40.53125 48.484375 33.40625 48.484375 
Q 26.265625 48.484375 22.1875 42.84375 
Q 18.109375 37.203125 18.109375 27.296875 
Q 18.109375 17.390625 22.1875 11.75 
Q 26.265625 6.109375 33.40625 6.109375 
Q 40.53125 6.109375 44.609375 11.75 
Q 48.6875 17.390625 48.6875 27.296875 
z
" id="DejaVuSans-112"/>
       <path d="M 30.609375 48.390625 
Q 23.390625 48.390625 19.1875 42.75 
Q 14.984375 37.109375 14.984375 27.296875 
Q 14.984375 17.484375 19.15625 11.84375 
Q 23.34375 6.203125 30.609375 6.203125 
Q 37.796875 6.203125 41.984375 11.859375 
Q 46.1875 17.53125 46.1875 27.296875 
Q 46.1875 37.015625 41.984375 42.703125 
Q 37.796875 48.390625 30.609375 48.390625 
z
M 30.609375 56 
Q 42.328125 56 49.015625 48.375 
Q 55.71875 40.765625 55.71875 27.296875 
Q 55.71875 13.875 49.015625 6.21875 
Q 42.328125 -1.421875 30.609375 -1.421875 
Q 18.84375 -1.421875 12.171875 6.21875 
Q 5.515625 13.875 5.515625 27.296875 
Q 5.515625 40.765625 12.171875 48.375 
Q 18.84375 56 30.609375 56 
z
" id="DejaVuSans-111"/>
       <path d="M 18.3125 70.21875 
L 18.3125 54.6875 
L 36.8125 54.6875 
L 36.8125 47.703125 
L 18.3125 47.703125 
L 18.3125 18.015625 
Q 18.3125 11.328125 20.140625 9.421875 
Q 21.96875 7.515625 27.59375 7.515625 
L 36.8125 7.515625 
L 36.8125 0 
L 27.59375 0 
Q 17.1875 0 13.234375 3.875 
Q 9.28125 7.765625 9.28125 18.015625 
L 9.28125 47.703125 
L 2.6875 47.703125 
L 2.6875 54.6875 
L 9.28125 54.6875 
L 9.28125 70.21875 
z
" id="DejaVuSans-116"/>
       <path d="M 9.421875 75.984375 
L 18.40625 75.984375 
L 18.40625 0 
L 9.421875 0 
z
" id="DejaVuSans-108"/>
       <path d="M 28.609375 0 
L 0.78125 72.90625 
L 11.078125 72.90625 
L 34.1875 11.53125 
L 57.328125 72.90625 
L 67.578125 72.90625 
L 39.796875 0 
z
" id="DejaVuSans-86"/>
      </defs>
      <use xlink:href="#DejaVuSans-77"/>
      <use x="86.279297" xlink:href="#DejaVuSans-101"/>
      <use x="147.802734" xlink:href="#DejaVuSans-109"/>
      <use x="245.214844" xlink:href="#DejaVuSans-98"/>
      <use x="308.691406" xlink:href="#DejaVuSans-114"/>
      <use x="349.804688" xlink:href="#DejaVuSans-97"/>
      <use x="411.083984" xlink:href="#DejaVuSans-110"/>
      <use x="474.462891" xlink:href="#DejaVuSans-101"/>
      <use x="535.986328" xlink:href="#DejaVuSans-32"/>
      <use x="567.773438" xlink:href="#DejaVuSans-112"/>
      <use x="631.25" xlink:href="#DejaVuSans-111"/>
      <use x="692.431641" xlink:href="#DejaVuSans-116"/>
      <use x="731.640625" xlink:href="#DejaVuSans-101"/>
      <use x="793.164062" xlink:href="#DejaVuSans-110"/>
      <use x="856.542969" xlink:href="#DejaVuSans-116"/>
      <use x="895.751953" xlink:href="#DejaVuSans-105"/>
      <use x="923.535156" xlink:href="#DejaVuSans-97"/>
      <use x="984.814453" xlink:href="#DejaVuSans-108"/>
      <use x="1012.597656" xlink:href="#DejaVuSans-32"/>
      <use x="1044.384766" xlink:href="#DejaVuSans-40"/>
      <use x="1083.398438" xlink:href="#DejaVuSans-109"/>
      <use x="1180.810547" xlink:href="#DejaVuSans-86"/>
      <use x="1249.21875" xlink:href="#DejaVuSans-41"/>
     </g>
    </g>
   </g>
   <g id="line2d_16">
    <path clip-path="url(#p5351bce38b)" d="M 69.218182 230.256 
L 69.383045 232.317269 
L 69.740673 234.413455 
L 70.133809 235.54766 
L 70.182 235.512461 
L 70.204827 235.460308 
L 70.765364 234.270189 
L 70.980955 234.410307 
L 71.480618 235.096897 
L 71.8281 235.50055 
L 71.863609 235.460796 
L 71.987891 235.081044 
L 72.350591 234.026873 
L 72.502773 233.747476 
L 72.791918 233.107728 
L 72.951709 233.166076 
L 73.220564 233.585221 
L 73.765882 234.618255 
L 73.824218 234.521343 
L 74.120973 234.097673 
L 74.316273 234.213068 
L 74.793109 234.857904 
L 75.521045 235.700426 
L 76.162745 236.100673 
L 76.969309 236.327616 
L 77.047936 236.216058 
L 77.438536 234.855099 
L 77.707391 233.927815 
L 77.981318 233.43945 
L 78.295827 232.079167 
L 78.450545 232.067704 
L 78.650918 232.382164 
L 79.693364 234.755431 
L 79.777064 234.514007 
L 79.995191 233.293945 
L 80.218391 232.758841 
L 80.669864 232.443253 
L 81.075682 230.686612 
L 81.093436 230.692221 
L 81.238009 230.880247 
L 81.567736 231.78819 
L 82.133345 233.206168 
L 82.425027 233.416623 
L 82.460536 233.362763 
L 82.833382 232.901153 
L 83.033755 233.070268 
L 83.393918 233.638673 
L 83.457327 233.438702 
L 83.860609 232.049717 
L 84.015327 232.095091 
L 84.263891 232.485197 
L 84.421145 232.728338 
L 84.479482 232.667516 
L 84.763555 232.456365 
L 84.958855 232.657846 
L 85.463591 233.628837 
L 86.163627 234.766885 
L 86.318345 234.907204 
L 86.361464 234.839305 
L 86.820545 234.101434 
L 87.056427 234.213731 
L 87.343036 234.390329 
L 87.378545 234.339957 
L 87.759 233.945745 
L 88.111555 233.802699 
L 88.481864 233.099794 
L 88.682236 233.140312 
L 89.141318 233.324275 
L 89.407636 233.306153 
L 89.699318 233.562858 
L 90.011291 233.855312 
L 90.049336 233.813846 
L 90.450082 233.466708 
L 90.693573 233.643861 
L 91.492527 234.669583 
L 91.662464 234.831697 
L 91.705582 234.754825 
L 92.770855 232.153183 
L 92.829191 232.190373 
L 93.070145 232.544941 
L 94.056791 234.343557 
L 94.115127 234.291927 
L 94.508264 234.005154 
L 94.665518 233.918998 
L 95.340191 232.634664 
L 95.545636 232.806732 
L 95.992036 233.56478 
L 96.806209 234.84128 
L 97.341382 235.305182 
L 97.343918 235.302828 
L 97.491027 234.996195 
L 97.790318 234.586564 
L 98.038882 234.590129 
L 98.452309 234.873942 
L 99.375545 235.510603 
L 99.378082 235.507548 
L 99.525191 235.14022 
L 99.824482 234.618312 
L 100.052755 234.614495 
L 100.435745 234.894008 
L 101.475655 235.671295 
L 102.292364 235.962028 
L 103.555473 236.145895 
L 104.425445 236.118405 
L 105.026564 235.006992 
L 105.216791 234.876878 
L 105.437455 233.855305 
L 105.888927 231.073324 
L 106.020818 231.070719 
L 106.030964 231.080534 
L 106.2288 231.444645 
L 106.9542 233.333595 
L 107.0658 233.196309 
L 107.314364 233.015436 
L 107.5122 233.177393 
L 107.991573 233.96761 
L 108.724582 235.016836 
L 109.028945 235.269463 
L 109.061918 235.222817 
L 109.5768 234.498536 
L 109.845655 234.617904 
L 110.794255 235.36323 
L 110.857664 235.228561 
L 111.664227 232.779977 
L 111.869673 232.48811 
L 112.029464 232.606792 
L 112.3668 233.228245 
L 113.262136 234.866568 
L 113.850573 235.463398 
L 114.002755 235.54346 
L 114.035727 235.466172 
L 114.479591 234.392102 
L 114.700255 234.45699 
L 115.210064 234.930907 
L 115.676755 235.31916 
L 115.704655 235.268849 
L 116.191636 234.3741 
L 116.432591 234.497684 
L 116.975373 234.960094 
L 117.033709 234.86397 
L 117.614536 233.479636 
L 118.000064 231.39815 
L 118.159855 231.374176 
L 118.355155 231.671038 
L 118.897936 233.054444 
L 119.587827 234.533983 
L 119.719718 234.717697 
L 119.767909 234.618642 
L 120.117927 233.916257 
L 120.310691 233.981832 
L 120.703827 234.435906 
L 121.540827 235.343018 
L 122.220573 235.737462 
L 122.4108 235.697205 
L 122.925682 234.764669 
L 123.222436 234.637159 
L 123.569918 234.276515 
L 123.810873 234.353023 
L 123.8616 234.351401 
L 123.894573 234.280539 
L 124.275027 233.57661 
L 124.495691 233.462977 
L 124.751864 233.360578 
L 124.896436 233.289891 
L 125.243918 232.617356 
L 125.413855 232.725028 
L 125.746118 233.285871 
L 126.682036 234.88254 
L 127.283155 235.443802 
L 127.694045 235.589068 
L 128.274873 234.942047 
L 128.612209 235.036305 
L 130.623545 235.927865 
L 130.955809 235.884947 
L 131.430109 235.165188 
L 131.716718 235.178589 
L 131.942455 235.246503 
L 131.965282 235.159908 
L 132.3153 234.094712 
L 132.502991 233.868183 
L 132.847936 232.547097 
L 133.002655 232.580437 
L 133.251218 232.957804 
L 134.4915 235.102927 
L 135.0216 235.515071 
L 135.069791 235.389356 
L 135.559309 233.242041 
L 135.797727 232.936143 
L 136.056436 232.555304 
L 136.223836 232.659429 
L 136.548491 233.211061 
L 136.928945 233.94646 
L 136.977136 233.824025 
L 137.545282 232.191806 
L 137.697464 232.267995 
L 137.979 232.749731 
L 139.059491 234.736006 
L 139.653 235.30375 
L 140.337818 235.646552 
L 141.332073 235.872461 
L 141.5781 235.80056 
L 142.027036 235.179206 
L 142.323791 235.184015 
L 142.932518 235.489563 
L 143.181082 235.544793 
L 143.1963 235.513899 
L 143.368773 234.870461 
L 143.967355 232.285386 
L 144.127145 232.407429 
L 144.454336 233.027847 
L 145.164518 234.475716 
L 145.197491 234.410218 
L 145.552582 233.66666 
L 145.722518 233.567706 
L 146.031955 233.148667 
L 146.214573 233.270173 
L 146.420018 233.528984 
L 146.475818 233.409593 
L 146.861345 232.566547 
L 147.028745 232.677983 
L 147.361009 233.254865 
L 148.296927 234.895651 
L 148.591145 235.090013 
L 149.314009 234.491752 
L 149.747727 233.489782 
L 149.958245 233.41496 
L 150.194127 233.609993 
L 150.323482 233.733905 
L 150.371673 233.653705 
L 150.688718 233.217836 
L 150.884018 233.329015 
L 151.282227 233.89568 
L 152.142055 235.064554 
L 152.674691 235.443207 
L 152.941009 235.113027 
L 153.235227 234.978616 
L 153.597927 235.087493 
L 153.643582 235.085158 
L 153.666409 235.006161 
L 154.199045 232.97996 
L 154.389273 233.117574 
L 154.833136 233.811864 
L 155.6118 234.911184 
L 155.913627 235.070034 
L 156.5883 234.7104 
L 157.037236 234.946108 
L 158.323173 235.675574 
L 159.325036 235.925649 
L 159.773973 235.888469 
L 160.430891 235.258701 
L 160.811345 235.344642 
L 162.891164 236.109426 
L 163.121973 236.039729 
L 163.570909 234.393689 
L 163.771282 234.394846 
L 163.918391 234.348337 
L 164.306455 233.873906 
L 164.522045 234.019344 
L 165.074973 234.773121 
L 165.785155 235.566092 
L 166.086982 235.719542 
L 166.107273 235.690037 
L 166.652591 234.986812 
L 167.068555 234.920098 
L 167.352627 234.409991 
L 167.553 234.450378 
L 167.933455 234.830644 
L 168.833864 235.706978 
L 168.983509 235.748236 
L 169.011409 235.6946 
L 169.145836 235.093393 
L 169.675936 232.313637 
L 169.830655 232.358713 
L 169.909282 232.23981 
L 170.132482 231.449064 
L 170.360755 231.047087 
L 170.500255 231.149457 
L 170.769109 231.725087 
L 170.997382 231.949419 
L 171.002455 231.946557 
L 171.1242 231.738518 
L 171.641618 230.373846 
L 171.649227 230.376463 
L 171.806482 230.559317 
L 171.971345 230.581377 
L 172.146355 230.680475 
L 172.296 230.867897 
L 172.344191 230.764233 
L 172.785518 229.531399 
L 172.821027 229.549347 
L 172.988427 229.807432 
L 173.295327 230.345416 
L 173.330836 230.301745 
L 173.447509 229.827973 
L 173.896445 227.481145 
L 174.028336 227.524743 
L 174.325091 227.715686 
L 174.482345 227.602771 
L 174.692864 227.25204 
L 174.713155 227.259681 
L 174.796855 227.16011 
L 174.9744 227.010568 
L 174.994691 227.025468 
L 175.154482 227.323598 
L 175.258473 227.373799 
L 175.283836 227.32951 
L 175.824082 225.96703 
L 175.887491 226.021639 
L 176.065036 226.442488 
L 176.645864 227.957833 
L 176.813264 228.123099 
L 177.741573 229.556312 
L 177.756791 229.54387 
L 177.941945 229.177324 
L 178.106809 228.729829 
L 178.368055 226.57482 
L 178.677491 224.882916 
L 178.875327 224.518219 
L 178.8804 224.519705 
L 178.971709 224.437249 
L 179.146718 224.182806 
L 179.177155 224.203212 
L 179.314118 224.493779 
L 179.4384 224.769955 
L 179.489127 224.683094 
L 179.664136 223.760309 
L 179.882264 221.513644 
L 180.102927 220.491519 
L 180.194236 220.543919 
L 180.201845 220.557172 
L 180.366709 221.088991 
L 180.8055 222.752832 
L 180.843545 222.68012 
L 182.251227 218.385165 
L 182.634218 217.291983 
L 182.951264 215.960836 
L 183.057791 216.031162 
L 183.336791 216.742362 
L 183.587891 217.160908 
L 183.598036 217.15291 
L 183.676664 216.844109 
L 183.963273 215.923879 
L 184.364018 215.810522 
L 184.457864 215.162322 
L 184.835782 212.634446 
L 184.929627 212.596403 
L 184.967673 212.636143 
L 185.122391 213.04897 
L 185.317691 213.346999 
L 185.444509 213.516173 
L 185.649955 214.284025 
L 186.187664 216.389092 
L 186.342382 216.389253 
L 186.707618 216.271902 
L 186.809073 216.001614 
L 186.946036 215.816337 
L 186.981545 215.844342 
L 187.255473 216.3592 
L 187.577591 217.569095 
L 187.813473 218.003143 
L 188.181245 218.880179 
L 188.546482 219.731791 
L 188.632718 219.623987 
L 188.7849 219.121539 
L 189.1197 217.940926 
L 189.254127 218.002979 
L 189.340364 217.985666 
L 189.363191 217.93783 
L 189.611755 217.541623 
L 189.639655 217.560659 
L 189.779155 217.846334 
L 190.053082 219.036908 
L 190.674491 222.484477 
L 190.768336 222.246281 
L 191.166545 220.075068 
L 191.4912 217.927593 
L 191.815855 217.347779 
L 191.945209 217.42129 
L 191.995936 217.441047 
L 192.039055 217.367268 
L 192.247036 216.567214 
L 192.564082 215.395672 
L 192.706118 215.407667 
L 192.708655 215.410349 
L 192.883664 215.764198 
L 193.073891 216.272757 
L 193.1652 216.239148 
L 193.279336 216.361248 
L 193.469564 217.011802 
L 194.260909 220.108177 
L 194.539909 221.165377 
L 194.732673 221.785849 
L 194.788473 221.729466 
L 195.095373 221.136754 
L 195.323645 219.610362 
L 195.764973 216.940122 
L 195.8994 216.893792 
L 195.917155 216.905894 
L 196.267173 217.284872 
L 196.525882 218.202998 
L 196.977355 219.727391 
L 197.157436 219.973512 
L 197.525209 220.534459 
L 197.7687 220.642388 
L 197.974145 221.125249 
L 198.255682 221.660771 
L 198.697009 221.746301 
L 198.958255 222.198466 
L 199.034345 221.992679 
L 199.384364 221.001389 
L 199.3869 221.002029 
L 199.511182 221.152639 
L 199.561909 221.200995 
L 199.605027 221.096362 
L 199.792718 219.738751 
L 200.033673 218.87504 
L 200.1681 218.905811 
L 200.350718 219.293423 
L 200.797118 220.719047 
L 200.916327 220.624199 
L 201.086264 220.632281 
L 201.2562 220.969538 
L 201.502227 221.553896 
L 201.5631 221.51716 
L 202.392491 220.784185 
L 202.676564 219.954329 
L 202.925127 220.074149 
L 203.112818 220.478164 
L 203.366455 221.154279 
L 203.424791 221.086794 
L 204.033518 219.790566 
L 204.304909 218.555648 
L 204.411436 218.619058 
L 204.586445 219.12948 
L 205.015091 221.020084 
L 205.119082 220.796611 
L 205.3575 220.408046 
L 205.362573 220.409949 
L 205.497 220.588943 
L 205.6365 220.760246 
L 205.672009 220.682377 
L 205.852091 219.568508 
L 206.113336 218.683814 
L 206.295955 218.562294 
L 206.3061 218.568736 
L 206.427845 218.629458 
L 206.470964 218.553277 
L 206.592709 218.069693 
L 206.785473 216.186974 
L 207.485509 209.660213 
L 207.6732 209.330089 
L 207.678273 209.331504 
L 207.802555 209.490062 
L 208.025755 210.229353 
L 208.411282 211.408297 
L 208.609118 211.982187 
L 208.948991 213.822789 
L 209.818964 218.686141 
L 210.021873 218.752367 
L 210.059918 218.789038 
L 210.108109 218.688693 
L 210.242536 217.835208 
L 210.886773 212.592608 
L 211.023736 212.443391 
L 211.371218 210.276545 
L 211.688264 208.586072 
L 211.972336 207.979723 
L 212.284309 206.176085 
L 212.573455 205.040319 
L 212.735782 204.691137 
L 213.078191 203.850181 
L 213.222764 203.89479 
L 213.405382 204.273772 
L 213.818809 205.84596 
L 214.115564 206.611968 
L 214.151073 206.577963 
L 214.168827 206.522042 
L 214.326082 205.472438 
L 214.716682 203.321271 
L 214.9551 202.84585 
L 215.165618 202.653672 
L 215.360918 202.558815 
L 215.660209 202.665435 
L 215.870727 203.395413 
L 216.104073 204.490262 
L 216.175091 204.29277 
L 216.3222 202.894279 
L 216.720409 199.076644 
L 217.143982 197.892058 
L 217.2429 197.986808 
L 217.4103 198.584147 
L 217.734955 200.748072 
L 218.982845 209.7083 
L 219.150245 209.79492 
L 219.330327 209.889942 
L 219.518018 210.347611 
L 220.164791 212.597812 
L 220.2561 212.474128 
L 220.509736 211.653378 
L 220.877509 210.071632 
L 221.199627 209.319893 
L 221.293473 209.069475 
L 221.544573 208.562071 
L 221.549645 208.563717 
L 221.663782 208.724536 
L 221.871764 209.511724 
L 222.282655 212.123156 
L 223.307345 218.792894 
L 223.900855 221.781862 
L 224.1063 222.312955 
L 224.481682 224.143105 
L 225.415064 228.832011 
L 225.440427 228.817795 
L 225.658555 228.7786 
L 225.858927 229.141131 
L 227.6217 233.084493 
L 228.045273 233.437107 
L 228.565227 233.154221 
L 228.897491 232.314899 
L 229.092791 232.315801 
L 229.397155 232.60982 
L 229.470709 232.593362 
L 229.498609 232.552631 
L 229.914573 232.064266 
L 230.016027 231.970741 
L 230.340682 231.06153 
L 230.4954 231.133946 
L 230.784545 231.601536 
L 230.908827 231.767644 
L 230.962091 231.70937 
L 231.357764 231.2958 
L 231.692564 231.284182 
L 231.928445 231.181553 
L 232.136427 231.38374 
L 232.544782 232.079408 
L 232.620873 231.888033 
L 232.899873 231.312287 
L 233.064736 231.385198 
L 233.364027 231.844718 
L 233.830718 232.724701 
L 233.878909 232.571915 
L 234.195955 231.608369 
L 234.358282 231.644562 
L 234.627136 232.018426 
L 235.900391 234.01116 
L 236.265627 234.281226 
L 236.285918 234.257257 
L 236.846455 233.663296 
L 237.173645 233.857268 
L 238.353055 234.725457 
L 238.373345 234.695259 
L 238.994755 233.821966 
L 239.309264 233.994323 
L 240.965509 235.155453 
L 241.982591 235.445457 
L 242.626827 235.463503 
L 243.298964 234.682499 
L 243.646445 234.776232 
L 245.097245 235.378172 
L 245.508136 234.962847 
L 245.817573 234.995332 
L 246.096573 235.028701 
L 246.109255 234.992147 
L 246.702764 233.471672 
L 247.009664 233.401333 
L 247.4586 232.688238 
L 247.702091 232.431342 
L 247.889782 232.534438 
L 248.216973 233.038306 
L 249.368482 234.937539 
L 249.713427 235.249045 
L 249.743864 235.196866 
L 250.263818 234.212113 
L 250.514918 234.353543 
L 251.027264 234.758831 
L 251.072918 234.69606 
L 251.382355 234.425697 
L 251.707009 234.318697 
L 252.029127 233.938322 
L 252.262473 233.991683 
L 252.665755 234.375534 
L 253.525582 235.217987 
L 253.5408 235.191926 
L 254.0709 234.164601 
L 254.078509 234.167825 
L 254.375264 234.421169 
L 255.529309 235.52455 
L 256.269927 235.854027 
L 256.838073 235.913973 
L 257.538109 235.020326 
L 258.002264 234.992807 
L 258.364964 234.09663 
L 258.7302 233.433052 
L 258.917891 233.504645 
L 259.166455 233.786155 
L 259.209573 233.619584 
L 259.625536 231.786004 
L 259.767573 231.85706 
L 260.099836 232.080289 
L 260.297673 232.252541 
L 260.662909 232.957343 
L 261.573464 234.702161 
L 262.1619 235.335501 
L 262.727509 235.664138 
L 262.735118 235.649977 
L 262.922809 234.902644 
L 263.156155 234.538326 
L 263.369209 234.573552 
L 263.818145 234.95845 
L 263.937355 235.063539 
L 263.967791 234.954796 
L 264.345709 233.553081 
L 264.515645 233.587796 
L 264.814936 233.963853 
L 265.811727 235.278622 
L 266.062827 235.358202 
L 266.598 234.964503 
L 266.9607 235.115982 
L 267.488264 235.42529 
L 267.526309 235.335765 
L 267.929591 234.489731 
L 268.145182 234.529307 
L 268.563682 234.910876 
L 268.614409 234.935343 
L 268.657527 234.853257 
L 269.058273 234.114446 
L 269.266255 234.196683 
L 269.537645 234.425224 
L 269.585836 234.318976 
L 270.098182 233.098781 
L 270.290945 233.205514 
L 270.361964 233.242464 
L 270.405082 233.169505 
L 270.7272 232.725928 
L 270.904745 232.878754 
L 271.310564 233.624747 
L 272.086691 234.936608 
L 272.606645 235.418033 
L 272.736 235.181838 
L 273.050509 234.73847 
L 273.288927 234.765062 
L 273.758155 235.116056 
L 274.653491 235.724573 
L 275.493027 236.003238 
L 275.891236 235.983244 
L 276.385827 234.837736 
L 276.634391 234.665993 
L 277.012309 233.492462 
L 277.192391 233.49943 
L 277.466318 233.808031 
L 278.683773 235.367982 
L 278.719282 235.351746 
L 278.752255 235.282802 
L 279.016036 234.307112 
L 279.358445 233.083798 
L 279.561355 232.982412 
L 279.774409 233.162176 
L 279.9621 233.40741 
L 280.020436 233.302204 
L 280.553073 232.317571 
L 280.717936 232.34433 
L 280.958891 232.69354 
L 281.521964 233.51748 
L 281.897345 233.743647 
L 282.191564 234.053526 
L 282.227073 233.914918 
L 282.729273 231.462762 
L 282.873845 231.571542 
L 283.091973 231.897935 
L 283.165527 231.794169 
L 283.3101 231.227983 
L 283.540909 230.747727 
L 283.677873 230.842219 
L 283.931509 231.384558 
L 285.189545 234.402759 
L 285.694282 235.007586 
L 285.704427 234.992733 
L 285.838855 234.417368 
L 286.084882 233.867706 
L 286.275109 233.878212 
L 286.386709 233.891324 
L 286.414609 233.833858 
L 286.767164 233.286733 
L 286.949782 233.183985 
L 287.667573 231.72566 
L 287.824827 231.777922 
L 288.075927 232.185727 
L 289.445564 234.754568 
L 290.046682 235.272838 
L 290.767009 235.593053 
L 290.840564 235.492438 
L 291.434073 234.193397 
L 291.6801 234.265995 
L 291.850036 234.384141 
L 291.880473 234.274475 
L 292.250782 232.982805 
L 292.413109 233.034352 
L 292.707327 233.451246 
L 293.059882 233.897794 
L 293.085245 233.880662 
L 293.470773 233.726478 
L 293.757382 233.944114 
L 294.160664 234.212197 
L 294.333136 234.033259 
L 294.705982 233.21708 
L 294.8886 233.276696 
L 295.213255 233.693135 
L 296.2557 235.097427 
L 296.846673 235.499712 
L 296.970955 235.322238 
L 297.369164 234.7673 
L 297.630409 234.782136 
L 297.7344 234.804252 
L 297.759764 234.717468 
L 298.102173 233.763622 
L 298.660173 233.65554 
L 298.809818 233.580324 
L 299.405864 232.259383 
L 299.530145 232.009685 
L 299.7711 231.711672 
L 299.933427 231.844486 
L 300.070391 232.022119 
L 300.131264 231.931781 
L 300.389973 231.670327 
L 300.559909 231.850058 
L 300.932755 232.672392 
L 301.224436 233.244777 
L 301.270091 233.209091 
L 301.574455 232.735977 
L 301.820482 232.28413 
L 301.9752 232.370903 
L 302.266882 232.882167 
L 302.7564 233.83629 
L 302.809664 233.76967 
L 303.443755 232.374481 
L 303.641591 232.190209 
L 303.8166 232.354312 
L 304.219882 233.140825 
L 304.572436 233.848636 
L 304.618091 233.740727 
L 304.924991 233.061446 
L 305.092391 233.141491 
L 305.432264 233.640771 
L 306.319991 234.927637 
L 306.705518 235.211046 
L 306.723273 235.191122 
L 307.053 234.56881 
L 307.182355 234.110682 
L 307.567882 233.03603 
L 307.8063 232.819586 
L 308.009209 232.931332 
L 308.382055 233.463975 
L 308.551991 233.69938 
L 308.602718 233.618147 
L 308.719391 233.053034 
L 309.013609 231.905817 
L 309.216518 231.836628 
L 309.543709 231.818421 
L 309.792273 232.157205 
L 310.936173 234.006483 
L 311.245609 234.16864 
L 312.546764 235.298826 
L 312.607636 235.167425 
L 313.147882 233.922106 
L 313.373618 233.94322 
L 313.728709 234.25457 
L 313.880891 234.268274 
L 313.885964 234.263432 
L 314.116773 233.881255 
L 314.246127 232.901433 
L 314.591073 230.604318 
L 314.814273 230.254704 
L 314.961382 230.360833 
L 315.222627 230.90875 
L 315.595473 231.748861 
L 315.648736 231.715207 
L 315.945491 231.617577 
L 316.163618 231.859799 
L 316.627773 232.811166 
L 317.452091 234.374809 
L 317.703191 234.678437 
L 317.746309 234.606675 
L 318.180027 233.841336 
L 318.405764 233.930425 
L 318.504682 233.863054 
L 319.169209 233.096405 
L 319.372118 233.195686 
L 319.770327 233.717707 
L 320.673273 234.862091 
L 321.340336 235.331159 
L 321.591436 235.416709 
L 321.6168 235.347736 
L 321.720791 234.621263 
L 322.002327 233.13368 
L 322.197627 232.982996 
L 322.395464 233.140524 
L 322.920491 233.959798 
L 323.640818 234.903386 
L 324.041564 235.218389 
L 324.066927 235.171429 
L 324.526009 234.278821 
L 324.772036 234.406538 
L 326.369945 235.612854 
L 326.380091 235.596386 
L 326.473936 235.150577 
L 326.849318 233.446856 
L 327.059836 233.311355 
L 327.283036 233.465327 
L 327.8385 234.225447 
L 328.581655 235.078791 
L 329.251255 235.508326 
L 329.7078 235.657427 
L 329.723018 235.606147 
L 329.870127 234.477768 
L 330.212536 231.919236 
L 330.808582 229.910318 
L 330.960764 229.91459 
L 331.150991 230.255131 
L 332.178218 232.476931 
L 332.505409 233.129579 
L 332.561209 232.991533 
L 332.827527 232.467262 
L 332.984782 232.566701 
L 333.319582 233.139126 
L 334.189555 234.600202 
L 334.798282 235.175139 
L 335.191418 235.327757 
L 335.196491 235.320179 
L 335.792536 234.589786 
L 336.134945 234.760689 
L 336.307418 234.729066 
L 336.802009 234.478381 
L 337.164709 234.63471 
L 337.793727 235.043496 
L 337.839382 234.944988 
L 338.202082 234.312803 
L 338.529273 234.094752 
L 338.6916 232.977201 
L 338.988355 231.36259 
L 339.153218 231.269859 
L 339.160827 231.274145 
L 339.340909 231.514718 
L 339.794918 232.62088 
L 340.545682 234.258255 
L 340.705473 234.454817 
L 340.751127 234.39203 
L 341.194991 233.764288 
L 341.479064 233.691578 
L 341.793573 233.130713 
L 341.976191 232.988141 
L 342.280555 232.553354 
L 342.463173 232.665456 
L 342.770073 232.841663 
L 343.109945 232.629351 
L 343.388945 232.208826 
L 343.561418 232.301217 
L 343.878464 232.802091 
L 344.276673 233.551946 
L 344.3274 233.425657 
L 344.8296 232.010713 
L 344.999536 232.131684 
L 345.334336 232.730746 
L 345.983645 234.008833 
L 346.0293 233.9293 
L 346.315909 233.511544 
L 346.427509 233.409531 
L 346.909418 232.356555 
L 347.097109 232.485587 
L 347.467418 233.094213 
L 347.875773 233.791174 
L 347.923964 233.722877 
L 348.502255 232.681092 
L 348.743209 232.886765 
L 349.630936 233.805723 
L 349.927691 233.970442 
L 351.8883 235.5286 
L 352.887627 235.777039 
L 353.052491 235.694611 
L 353.303591 234.772234 
L 353.595273 234.185308 
L 353.828618 234.131326 
L 354.135518 234.328979 
L 354.493145 234.569499 
L 354.523582 234.530773 
L 354.949691 234.114731 
L 355.076509 234.013389 
L 355.7664 233.136368 
L 355.981991 233.244359 
L 356.375127 233.76158 
L 356.704855 234.063659 
L 356.943273 233.978058 
L 357.336409 233.744852 
L 357.737155 233.682127 
L 357.9147 233.200197 
L 358.211455 232.445765 
L 358.389 232.453716 
L 358.637564 232.761333 
L 359.122009 233.343651 
L 359.482173 233.263388 
L 359.563336 233.150816 
L 360.047782 232.079024 
L 360.238009 232.238571 
L 360.321709 232.318784 
L 360.374973 232.239244 
L 360.615927 232.011283 
L 360.790936 232.207285 
L 361.047109 232.570124 
L 361.100373 232.505555 
L 361.592427 231.870738 
L 361.696418 231.754197 
L 362.069264 231.083061 
L 362.297536 230.909641 
L 362.541027 230.564054 
L 362.695745 230.477398 
L 362.941773 230.293549 
L 363.114245 230.513211 
L 363.651955 231.293357 
L 363.910664 231.701562 
L 364.050164 231.701583 
L 364.324091 231.522554 
L 364.542218 231.44339 
L 364.742591 231.658084 
L 365.171236 232.54405 
L 365.990482 234.134763 
L 366.076718 234.037732 
L 366.439418 233.548722 
L 366.657545 233.656414 
L 366.705736 233.683918 
L 366.743782 233.592885 
L 367.040536 233.025518 
L 367.215545 233.118784 
L 367.324609 233.157683 
L 367.360118 233.113515 
L 367.674627 232.847782 
L 367.885145 233.026617 
L 367.935873 233.060387 
L 367.984064 232.975486 
L 368.3214 232.445859 
L 368.501482 232.57064 
L 368.881936 233.196444 
L 369.746836 234.56565 
L 369.931991 234.762251 
L 369.962427 234.662902 
L 370.396145 232.984073 
L 370.634564 232.763996 
L 371.037845 231.814835 
L 371.261045 231.62473 
L 371.438591 231.770905 
L 371.786073 232.430336 
L 372.579955 234.027089 
L 372.610391 233.980312 
L 372.716918 233.412093 
L 372.995918 232.163165 
L 373.163318 232.117664 
L 373.368764 232.376446 
L 373.581818 232.791923 
L 373.581818 232.791923 
" style="fill:none;stroke:#000000;stroke-linecap:square;stroke-width:1.5;"/>
   </g>
   <g id="line2d_17">
    <path clip-path="url(#p5351bce38b)" d="M 69.218182 230.256 
L 69.383045 232.317269 
L 69.740673 234.413455 
L 70.133809 235.54766 
L 70.182 235.512461 
L 70.204827 235.460308 
L 70.765364 234.270189 
L 70.980955 234.410307 
L 71.480618 235.096897 
L 71.8281 235.50055 
L 71.863609 235.460796 
L 71.987891 235.081044 
L 72.350591 234.026873 
L 72.502773 233.747476 
L 72.791918 233.107728 
L 72.951709 233.166076 
L 73.220564 233.585221 
L 73.765882 234.618255 
L 73.824218 234.521343 
L 74.120973 234.097673 
L 74.316273 234.213068 
L 74.793109 234.857904 
L 75.521045 235.700426 
L 76.162745 236.100673 
L 76.969309 236.327616 
L 77.047936 236.216058 
L 77.438536 234.855099 
L 77.707391 233.927815 
L 77.981318 233.43945 
L 78.295827 232.079167 
L 78.450545 232.067704 
L 78.650918 232.382164 
L 79.693364 234.755431 
L 79.777064 234.514007 
L 79.995191 233.293945 
L 80.218391 232.758841 
L 80.669864 232.443253 
L 81.075682 230.686612 
L 81.093436 230.692221 
L 81.238009 230.880247 
L 81.567736 231.78819 
L 82.133345 233.206168 
L 82.425027 233.416623 
L 82.460536 233.362763 
L 82.833382 232.901153 
L 83.033755 233.070268 
L 83.393918 233.638673 
L 83.457327 233.438702 
L 83.860609 232.049717 
L 84.015327 232.095091 
L 84.263891 232.485197 
L 84.421145 232.728338 
L 84.479482 232.667516 
L 84.763555 232.456365 
L 84.958855 232.657846 
L 85.463591 233.628837 
L 86.163627 234.766885 
L 86.318345 234.907204 
L 86.361464 234.839305 
L 86.820545 234.101434 
L 87.056427 234.213731 
L 87.343036 234.390329 
L 87.378545 234.339957 
L 87.759 233.945745 
L 88.111555 233.802699 
L 88.481864 233.099794 
L 88.682236 233.140312 
L 89.141318 233.324275 
L 89.407636 233.306153 
L 89.699318 233.562858 
L 90.011291 233.855312 
L 90.049336 233.813846 
L 90.450082 233.466708 
L 90.693573 233.643861 
L 91.492527 234.669583 
L 91.662464 234.831697 
L 91.705582 234.754825 
L 92.770855 232.153183 
L 92.829191 232.190373 
L 93.070145 232.544941 
L 94.056791 234.343557 
L 94.115127 234.291927 
L 94.508264 234.005154 
L 94.665518 233.918998 
L 95.340191 232.634664 
L 95.545636 232.806732 
L 95.992036 233.56478 
L 96.806209 234.84128 
L 97.341382 235.305182 
L 97.343918 235.302828 
L 97.491027 234.996195 
L 97.790318 234.586564 
L 98.038882 234.590129 
L 98.452309 234.873942 
L 99.375545 235.510603 
L 99.378082 235.507548 
L 99.525191 235.14022 
L 99.824482 234.618312 
L 100.052755 234.614495 
L 100.435745 234.894008 
L 101.475655 235.671295 
L 102.292364 235.962028 
L 103.555473 236.145895 
L 104.425445 236.118405 
L 105.026564 235.006992 
L 105.216791 234.876878 
L 105.437455 233.855305 
L 105.888927 231.073324 
L 106.020818 231.070719 
L 106.030964 231.080534 
L 106.2288 231.444645 
L 106.9542 233.333595 
L 107.0658 233.196309 
L 107.314364 233.015436 
L 107.5122 233.177393 
L 107.991573 233.96761 
L 108.724582 235.016836 
L 109.028945 235.269463 
L 109.061918 235.222817 
L 109.5768 234.498536 
L 109.845655 234.617904 
L 110.794255 235.36323 
L 110.857664 235.228561 
L 111.664227 232.779977 
L 111.869673 232.48811 
L 112.029464 232.606792 
L 112.3668 233.228245 
L 113.262136 234.866568 
L 113.850573 235.463398 
L 114.002755 235.54346 
L 114.035727 235.466172 
L 114.479591 234.392102 
L 114.700255 234.45699 
L 115.210064 234.930907 
L 115.676755 235.31916 
L 115.704655 235.268849 
L 116.191636 234.3741 
L 116.432591 234.497684 
L 116.975373 234.960094 
L 117.033709 234.86397 
L 117.614536 233.479636 
L 118.000064 231.39815 
L 118.159855 231.374176 
L 118.355155 231.671038 
L 118.897936 233.054444 
L 119.587827 234.533983 
L 119.719718 234.717697 
L 119.767909 234.618642 
L 120.117927 233.916257 
L 120.310691 233.981832 
L 120.703827 234.435906 
L 121.540827 235.343018 
L 122.220573 235.737462 
L 122.4108 235.697205 
L 122.925682 234.764669 
L 123.222436 234.637159 
L 123.569918 234.276515 
L 123.810873 234.353023 
L 123.8616 234.351401 
L 123.894573 234.280539 
L 124.275027 233.57661 
L 124.495691 233.462977 
L 124.751864 233.360578 
L 124.896436 233.289891 
L 125.243918 232.617356 
L 125.413855 232.725028 
L 125.746118 233.285871 
L 126.682036 234.88254 
L 127.283155 235.443802 
L 127.694045 235.589068 
L 128.274873 234.942047 
L 128.612209 235.036305 
L 130.623545 235.927865 
L 130.955809 235.884947 
L 131.430109 235.165188 
L 131.716718 235.178589 
L 131.942455 235.246503 
L 131.965282 235.159908 
L 132.3153 234.094712 
L 132.502991 233.868183 
L 132.847936 232.547097 
L 133.002655 232.580437 
L 133.251218 232.957804 
L 134.4915 235.102927 
L 135.0216 235.515071 
L 135.069791 235.389356 
L 135.559309 233.242041 
L 135.797727 232.936143 
L 136.056436 232.555304 
L 136.223836 232.659429 
L 136.548491 233.211061 
L 136.928945 233.94646 
L 136.977136 233.824025 
L 137.545282 232.191806 
L 137.697464 232.267995 
L 137.979 232.749731 
L 139.059491 234.736006 
L 139.653 235.30375 
L 140.327673 235.639771 
L 140.984591 235.7126 
L 141.562882 235.599733 
L 142.092982 234.800727 
L 142.430318 234.778049 
L 143.2242 234.810415 
L 143.411891 233.957142 
L 143.987645 231.41362 
L 144.152509 231.515452 
L 144.4797 232.063956 
L 145.161982 233.305867 
L 145.197491 233.233338 
L 145.565264 232.410177 
L 145.714909 232.292151 
L 146.052245 231.771 
L 146.239936 231.872174 
L 146.420018 232.058731 
L 146.468209 231.952026 
L 146.894318 230.971217 
L 147.071864 231.085553 
L 147.434564 231.673778 
L 148.312145 233.065695 
L 148.588609 233.217579 
L 149.296255 232.565162 
L 149.768018 231.364539 
L 149.988682 231.261667 
L 150.2271 231.427461 
L 150.320945 231.493473 
L 150.3666 231.413633 
L 150.711545 230.884248 
L 150.911918 230.976454 
L 151.302518 231.478571 
L 152.218145 232.63018 
L 152.689909 232.913461 
L 153.369655 232.403013 
L 153.674018 232.338896 
L 154.168609 230.201729 
L 154.348691 230.239856 
L 154.653055 230.60354 
L 155.812173 232.116175 
L 155.959282 232.05299 
L 156.496991 231.663546 
L 156.854618 231.766679 
L 159.132273 232.807987 
L 159.761291 232.812237 
L 160.537418 232.070604 
L 160.9686 232.186124 
L 162.815073 232.865268 
L 163.121973 232.813315 
L 163.593736 231.075797 
L 163.804255 231.063511 
L 163.910782 230.99284 
L 164.341964 230.415946 
L 164.565164 230.562235 
L 165.113018 231.290493 
L 165.886609 232.16808 
L 166.089518 232.260819 
L 166.117418 232.219691 
L 166.644982 231.518387 
L 166.934127 231.635971 
L 166.995 231.626356 
L 167.025436 231.564126 
L 167.410964 230.880655 
L 167.629091 230.968793 
L 168.113536 231.490206 
L 168.945464 232.289448 
L 169.021555 232.192538 
L 169.155982 231.55328 
L 169.698764 228.662314 
L 169.965082 228.379808 
L 170.424164 227.164907 
L 170.449527 227.176309 
L 170.622 227.405745 
L 170.992309 227.914403 
L 171.002455 227.907736 
L 171.126736 227.66942 
L 171.661909 226.152979 
L 172.194545 226.412633 
L 172.293464 226.51912 
L 172.336582 226.434637 
L 172.810882 225.059477 
L 172.876827 225.10513 
L 173.0772 225.481185 
L 173.292791 225.78518 
L 173.320691 225.756513 
L 173.429755 225.369384 
L 173.977609 222.652093 
L 174.112036 222.78467 
L 174.218564 222.839961 
L 174.256609 222.8145 
L 174.520391 222.493514 
L 174.733445 222.179251 
L 175.014982 221.880148 
L 175.075855 221.962208 
L 175.2534 222.147045 
L 175.278764 222.107889 
L 175.491818 221.253567 
L 175.844373 220.52018 
L 175.971191 220.667996 
L 176.204536 221.384992 
L 176.5647 222.34495 
L 176.7879 222.462696 
L 177.013636 222.981517 
L 177.196255 223.124203 
L 177.363655 223.338918 
L 177.746645 224.040254 
L 177.794836 223.984444 
L 178.119491 223.208598 
L 178.373127 221.060244 
L 178.700318 219.168358 
L 178.903227 218.808193 
L 178.9641 218.711737 
L 179.164473 218.380998 
L 179.192373 218.398986 
L 179.329336 218.675054 
L 179.433327 218.876926 
L 179.484055 218.792646 
L 179.648918 217.900043 
L 179.887336 215.368368 
L 180.118145 214.194644 
L 180.199309 214.19993 
L 180.229745 214.241314 
L 180.394609 214.736939 
L 180.800427 216.076607 
L 180.825791 216.041638 
L 180.960218 215.394975 
L 181.2798 214.331371 
L 181.421836 213.931923 
L 182.337464 210.11809 
L 182.728064 208.290371 
L 182.994382 207.208546 
L 183.100909 207.221728 
L 183.118664 207.243368 
L 183.554918 207.725026 
L 183.590427 207.690265 
L 183.666518 207.356621 
L 184.014 205.913923 
L 184.3209 205.446868 
L 184.429964 204.869571 
L 184.914409 201.409166 
L 185.041227 201.366807 
L 185.064055 201.386032 
L 185.216236 201.546998 
L 185.279645 201.445436 
L 185.459727 201.298711 
L 185.477482 201.310842 
L 185.619518 201.575584 
L 186.215564 203.168632 
L 186.278973 203.120437 
L 186.765955 202.481219 
L 186.991691 201.978852 
L 187.009445 201.987082 
L 187.288445 202.29467 
L 187.547155 203.127075 
L 187.767818 203.559303 
L 187.9758 203.9141 
L 188.5338 205.007183 
L 188.556627 204.990524 
L 188.691055 204.690914 
L 188.853382 203.780333 
L 189.1755 202.402243 
L 189.413918 201.878111 
L 189.667555 201.310108 
L 189.781691 201.437022 
L 189.979527 202.096644 
L 190.367591 204.326271 
L 190.697318 206.211571 
L 190.750582 206.136088 
L 190.9611 205.292986 
L 191.123427 204.322537 
L 191.562218 200.922986 
L 191.902091 200.04525 
L 192.056809 199.840563 
L 192.333273 198.603861 
L 192.617345 197.697143 
L 192.769527 197.701733 
L 192.947073 198.027801 
L 193.061209 198.264803 
L 193.129691 198.202153 
L 193.292018 198.184275 
L 193.297091 198.189561 
L 193.456882 198.529168 
L 194.5044 202.125885 
L 194.780864 203.038563 
L 194.8113 203.029483 
L 195.057327 202.821448 
L 195.2019 202.073005 
L 195.960273 197.362748 
L 196.292536 197.088193 
L 196.444718 197.309008 
L 196.690745 198.151322 
L 196.957064 198.804984 
L 197.157436 199.047396 
L 197.591155 199.740211 
L 197.791527 199.903877 
L 197.999509 200.462361 
L 198.291191 201.118499 
L 198.732518 201.58814 
L 198.973473 202.177888 
L 199.047027 202.026447 
L 199.3869 201.183711 
L 199.409727 201.195728 
L 199.5822 201.418142 
L 199.635464 201.232842 
L 200.071718 199.503609 
L 200.201073 199.614456 
L 200.421736 200.187434 
L 200.802191 201.384474 
L 200.870673 201.333077 
L 201.104018 201.250165 
L 201.258736 201.53531 
L 201.629045 202.240826 
L 201.918191 202.247814 
L 202.133782 202.105578 
L 202.141391 202.111021 
L 202.321473 202.226277 
L 202.356982 202.146152 
L 202.6791 201.320491 
L 202.727291 201.346257 
L 202.963173 201.631648 
L 203.186373 202.399257 
L 203.424791 203.076893 
L 203.445082 203.070265 
L 203.843291 203.014857 
L 203.947282 202.937055 
L 204.056345 202.414693 
L 204.315055 201.426099 
L 204.416509 201.50325 
L 204.586445 202.04387 
L 205.0506 204.345763 
L 205.185027 204.167713 
L 205.339745 204.095212 
L 205.3575 204.110345 
L 205.512218 204.425681 
L 205.649182 204.690682 
L 205.6923 204.60059 
L 206.273127 202.886496 
L 206.285809 202.890988 
L 206.488718 202.863489 
L 206.610464 202.329864 
L 206.828591 200.074902 
L 207.723927 191.607117 
L 207.942055 191.320841 
L 208.104382 191.430359 
L 208.284464 191.467537 
L 208.294609 191.454787 
L 208.6497 191.055979 
L 208.685209 191.088694 
L 208.857682 191.456397 
L 209.139218 192.681664 
L 209.955927 196.475966 
L 210.080209 196.693664 
L 210.141082 196.568917 
L 210.2679 195.736578 
L 211.335709 184.014176 
L 211.6071 177.239561 
L 211.782109 167.512232 
L 211.855664 148.270166 
L 211.898782 42.875754 
L 211.972336 142.366928 
L 212.119445 203.086713 
L 212.241191 210.346583 
L 212.269091 210.236822 
L 213.273491 203.918812 
L 213.278564 203.91979 
L 213.405382 204.063941 
L 213.626045 204.757022 
L 214.128245 206.352646 
L 214.161218 206.296382 
L 214.2855 205.544573 
L 214.739509 202.931094 
L 214.962709 202.541413 
L 215.168155 202.391652 
L 215.3457 202.349306 
L 215.723618 202.739112 
L 216.000082 204.039123 
L 216.106609 204.500078 
L 216.164945 204.367824 
L 216.2943 203.302034 
L 216.766064 199.102163 
L 217.164273 198.12578 
L 217.253045 198.249862 
L 217.433127 198.948602 
L 217.798364 201.457397 
L 219.005673 209.579496 
L 219.145173 209.556458 
L 219.343009 209.559539 
L 219.512945 209.881604 
L 220.1445 211.752262 
L 220.243418 211.586412 
L 220.509736 210.533663 
L 220.918091 208.456737 
L 221.227527 207.555848 
L 221.600373 206.550901 
L 221.6511 206.590282 
L 221.805818 206.949279 
L 222.100036 208.315767 
L 222.726518 212.518215 
L 223.099364 214.419489 
L 223.424018 216.043259 
L 223.989627 218.328247 
L 224.207755 219.062685 
L 224.722636 221.819123 
L 225.440427 225.45405 
L 225.465791 225.447197 
L 225.630655 225.509276 
L 225.8361 225.963208 
L 226.553891 228.378399 
L 227.266609 230.292026 
L 227.905773 231.405264 
L 228.101073 231.485792 
L 228.572836 231.313978 
L 228.892418 230.548082 
L 229.085182 230.555768 
L 229.3794 230.857323 
L 229.455491 230.881929 
L 229.498609 230.82876 
L 229.924718 230.349873 
L 230.016027 230.256595 
L 230.343218 229.342583 
L 230.500473 229.416508 
L 230.789618 229.888353 
L 230.911364 230.04728 
L 230.962091 229.992464 
L 231.365373 229.579413 
L 231.684955 229.574845 
L 231.928445 229.460446 
L 232.133891 229.660241 
L 232.547318 230.379537 
L 232.625945 230.178338 
L 232.899873 229.624723 
L 233.0622 229.697209 
L 233.353882 230.152709 
L 233.830718 231.09465 
L 233.881445 230.93715 
L 234.195955 230.004564 
L 234.358282 230.045112 
L 234.627136 230.430439 
L 236.004382 232.674436 
L 236.268164 232.871503 
L 236.2986 232.834995 
L 236.803336 232.285268 
L 237.095018 232.439846 
L 238.358127 233.454363 
L 238.411391 233.355254 
L 238.867936 232.57358 
L 239.113964 232.611567 
L 239.560364 232.969419 
L 240.651 233.83975 
L 241.541264 234.229506 
L 242.586245 234.451248 
L 242.773936 234.137102 
L 243.139173 233.669411 
L 243.433391 233.636676 
L 243.872182 233.85332 
L 245.023691 234.472802 
L 245.693291 233.969358 
L 246.127009 233.951046 
L 246.631745 232.481613 
L 246.829582 232.523271 
L 246.951327 232.465452 
L 247.428164 231.736109 
L 247.689409 231.399416 
L 247.874564 231.479337 
L 248.176391 231.922594 
L 249.528273 234.152285 
L 249.715964 234.310297 
L 249.754009 234.237878 
L 250.223236 233.294749 
L 250.448973 233.387495 
L 251.042482 233.847829 
L 251.105891 233.755177 
L 251.379818 233.540287 
L 251.709545 233.435271 
L 252.031664 233.058099 
L 252.265009 233.112755 
L 252.660682 233.494997 
L 253.525582 234.381583 
L 253.545873 234.34393 
L 254.035391 233.328195 
L 254.283955 233.503708 
L 255.851427 234.939087 
L 256.685891 235.233726 
L 256.855827 235.165064 
L 257.451873 234.29577 
L 257.763845 234.383064 
L 257.943927 234.450901 
L 257.974364 234.371686 
L 258.565336 232.866484 
L 258.786 232.698562 
L 258.991445 232.841257 
L 259.163918 233.050408 
L 259.201964 232.924723 
L 259.663582 231.026162 
L 259.813227 231.155327 
L 260.049109 231.305769 
L 260.244409 231.414028 
L 260.536091 231.912744 
L 261.763691 234.240227 
L 262.364809 234.812152 
L 262.727509 235.015871 
L 262.752873 234.949267 
L 263.156155 233.899902 
L 263.369209 233.936521 
L 263.810536 234.320813 
L 263.937355 234.436071 
L 263.967791 234.328428 
L 264.348245 232.923781 
L 264.518182 232.959317 
L 264.817473 233.336635 
L 265.8447 234.705741 
L 266.065364 234.761517 
L 266.595464 234.378626 
L 266.953091 234.531403 
L 267.488264 234.858268 
L 267.528845 234.762515 
L 267.927055 233.926959 
L 268.140109 233.96268 
L 268.543391 234.330837 
L 268.614409 234.377763 
L 268.657527 234.296679 
L 269.060809 233.55776 
L 269.268791 233.642152 
L 269.537645 233.871096 
L 269.585836 233.765484 
L 270.103255 232.534868 
L 270.296018 232.643869 
L 270.361964 232.675254 
L 270.405082 232.602255 
L 270.729736 232.155399 
L 270.907282 232.309855 
L 271.310564 233.057256 
L 272.104445 234.422881 
L 272.609182 234.903898 
L 272.614255 234.899768 
L 272.7639 234.612044 
L 273.055582 234.234816 
L 273.294 234.268967 
L 273.770836 234.637103 
L 274.671245 235.266842 
L 275.513318 235.562122 
L 275.893773 235.537946 
L 276.373145 234.401476 
L 276.639464 234.20224 
L 277.007236 233.046554 
L 277.189855 233.043961 
L 277.456173 233.336776 
L 278.704064 234.936045 
L 278.709136 234.932004 
L 278.8182 234.664637 
L 279.079445 233.551443 
L 279.381273 232.617524 
L 279.579109 232.547986 
L 279.802309 232.754833 
L 279.9621 232.963199 
L 280.0179 232.864296 
L 280.560682 231.864509 
L 280.725545 231.900146 
L 280.971573 232.266365 
L 281.516891 233.073352 
L 281.897345 233.307231 
L 282.191564 233.623903 
L 282.227073 233.486496 
L 282.731809 231.028299 
L 282.876382 231.138079 
L 283.091973 231.459614 
L 283.165527 231.355672 
L 283.3101 230.788026 
L 283.540909 230.302654 
L 283.677873 230.394843 
L 283.928973 230.929366 
L 285.230127 234.058213 
L 285.694282 234.622625 
L 285.7095 234.596413 
L 286.226918 233.481514 
L 286.2396 233.486631 
L 286.412073 233.468114 
L 286.419682 233.450289 
L 286.759555 232.915805 
L 286.954855 232.800358 
L 287.647282 231.354994 
L 287.807073 231.376755 
L 288.035345 231.717913 
L 289.628182 234.599645 
L 290.252127 235.061998 
L 290.8152 235.238093 
L 290.987673 234.666063 
L 291.302182 233.951546 
L 291.532991 233.884757 
L 291.834818 234.072194 
L 291.8475 234.074583 
L 291.877936 233.973995 
L 292.260927 232.663451 
L 292.423255 232.72669 
L 292.730155 233.172938 
L 293.059882 233.583267 
L 293.085245 233.566403 
L 293.473309 233.415183 
L 293.759918 233.636646 
L 294.160664 233.907159 
L 294.333136 233.730011 
L 294.705982 232.913451 
L 294.8886 232.972788 
L 295.210718 233.387052 
L 296.275991 234.834507 
L 296.851745 235.228266 
L 296.983636 235.029773 
L 297.361555 234.506142 
L 297.620264 234.51495 
L 297.7344 234.541828 
L 297.759764 234.455317 
L 298.102173 233.501261 
L 298.657636 233.390462 
L 298.809818 233.315482 
L 299.410936 231.979893 
L 299.552973 231.678954 
L 299.778709 231.433175 
L 299.943573 231.577875 
L 300.070391 231.740844 
L 300.128727 231.655482 
L 300.392509 231.389273 
L 300.562445 231.571962 
L 300.937827 232.405476 
L 301.224436 232.970583 
L 301.270091 232.935819 
L 301.574455 232.467366 
L 301.820482 232.017287 
L 301.9752 232.104992 
L 302.266882 232.619216 
L 302.7564 233.58211 
L 302.809664 233.516613 
L 303.428536 232.163831 
L 303.631445 231.937934 
L 303.798845 232.078884 
L 304.161545 232.767221 
L 304.572436 233.606123 
L 304.618091 233.499199 
L 304.924991 232.823361 
L 305.092391 232.904658 
L 305.432264 233.407537 
L 306.3276 234.717651 
L 306.705518 234.999991 
L 306.723273 234.980363 
L 307.002273 234.431083 
L 307.156991 234.004929 
L 307.5552 232.850597 
L 307.798691 232.606887 
L 307.999064 232.70694 
L 308.354155 233.203176 
L 308.551991 233.486024 
L 308.602718 233.405224 
L 308.719391 232.8407 
L 309.013609 231.691358 
L 309.216518 231.620665 
L 309.543709 231.600452 
L 309.792273 231.938771 
L 310.943782 233.803961 
L 311.255755 233.97779 
L 312.546764 235.119192 
L 312.6051 234.995931 
L 313.158027 233.739331 
L 313.3863 233.771104 
L 313.977273 233.976382 
L 314.142136 233.588891 
L 314.317145 232.040756 
L 314.6139 230.347058 
L 314.826955 230.063208 
L 314.9766 230.188059 
L 315.253064 230.792622 
L 315.595473 231.552472 
L 315.641127 231.524961 
L 315.950564 231.42464 
L 316.171227 231.677009 
L 316.648064 232.666099 
L 317.462236 234.214585 
L 317.703191 234.50862 
L 317.746309 234.437759 
L 318.180027 233.677159 
L 318.405764 233.767841 
L 318.507218 233.697602 
L 319.166673 232.936082 
L 319.369582 233.032921 
L 319.762718 233.54765 
L 320.680882 234.719838 
L 321.350482 235.19472 
L 321.591436 235.277621 
L 321.6168 235.208929 
L 321.718255 234.505503 
L 322.002327 232.994712 
L 322.197627 232.84269 
L 322.395464 232.999318 
L 322.912882 233.80686 
L 323.640818 234.768194 
L 324.041564 235.087074 
L 324.066927 235.040385 
L 324.526009 234.149721 
L 324.772036 234.278117 
L 326.369945 235.494605 
L 326.382627 235.472898 
L 326.484082 234.966703 
L 326.841709 233.34009 
L 327.052227 233.188716 
L 327.270355 233.329533 
L 327.780164 234.020669 
L 328.556291 234.939877 
L 329.225891 235.385145 
L 329.705264 235.55483 
L 329.720482 235.508748 
L 329.862518 234.453735 
L 330.220145 231.775463 
L 330.778145 229.827926 
L 330.9354 229.770949 
L 330.945545 229.778342 
L 331.120555 230.058714 
L 331.523836 231.248882 
L 331.787618 231.714299 
L 332.221336 232.440242 
L 332.505409 233.009188 
L 332.558673 232.880489 
L 332.827527 232.349507 
L 332.984782 232.449855 
L 333.319582 233.024687 
L 334.194627 234.500872 
L 334.805891 235.081 
L 335.191418 235.231643 
L 335.199027 235.220145 
L 335.779855 234.49362 
L 336.104509 234.648132 
L 336.294736 234.645822 
L 336.827373 234.389626 
L 337.205291 234.569804 
L 337.791191 234.957859 
L 337.834309 234.868554 
L 338.209691 234.221805 
L 338.5242 234.025584 
L 338.668773 233.085861 
L 338.993427 231.262145 
L 339.158291 231.1801 
L 339.163364 231.18312 
L 339.343445 231.425889 
L 339.799991 232.539876 
L 340.550755 234.177018 
L 340.705473 234.366514 
L 340.753664 234.299164 
L 341.187382 233.677538 
L 341.4816 233.599506 
L 341.793573 233.045975 
L 341.976191 232.903467 
L 342.280555 232.468171 
L 342.463173 232.580105 
L 342.770073 232.756481 
L 343.109945 232.544111 
L 343.388945 232.12322 
L 343.561418 232.215494 
L 343.878464 232.716849 
L 344.276673 233.468501 
L 344.329936 233.333359 
L 344.827064 231.928144 
L 344.994464 232.042919 
L 345.321655 232.622487 
L 345.983645 233.930636 
L 346.0293 233.851466 
L 346.315909 233.435239 
L 346.427509 233.33371 
L 346.909418 232.280724 
L 347.094573 232.406707 
L 347.459809 233.004513 
L 347.878309 233.716225 
L 347.923964 233.649492 
L 348.502255 232.607773 
L 348.743209 232.813674 
L 349.633473 233.736272 
L 349.930227 233.903818 
L 351.878155 235.465452 
L 352.869873 235.718092 
L 353.052491 235.639138 
L 353.301055 234.72515 
L 353.595273 234.128994 
L 353.828618 234.07457 
L 354.135518 234.272078 
L 354.493145 234.513026 
L 354.523582 234.474347 
L 354.949691 234.058415 
L 355.076509 233.957123 
L 355.7664 233.079355 
L 355.979455 233.184805 
L 356.370055 233.697018 
L 356.707391 234.007952 
L 356.943273 233.922626 
L 357.336409 233.689825 
L 357.737155 233.627635 
L 357.9147 233.145704 
L 358.211455 232.390649 
L 358.389 232.398278 
L 358.637564 232.705789 
L 359.124545 233.287473 
L 359.4771 233.209202 
L 359.5608 233.103849 
L 360.057927 232.027278 
L 360.253227 232.204692 
L 360.321709 232.264347 
L 360.374973 232.184879 
L 360.615927 231.95707 
L 360.790936 232.153233 
L 361.047109 232.51658 
L 361.100373 232.452103 
L 361.592427 231.817099 
L 361.696418 231.700517 
L 362.069264 231.028708 
L 362.300073 230.847849 
L 362.541027 230.508405 
L 362.695745 230.421354 
L 362.941773 230.236889 
L 363.114245 230.456352 
L 363.651955 231.237308 
L 363.910664 231.646251 
L 364.0527 231.646233 
L 364.319018 231.474464 
L 364.539682 231.388947 
L 364.737518 231.597333 
L 365.156018 232.458235 
L 365.990482 234.088183 
L 366.076718 233.991655 
L 366.439418 233.503961 
L 366.657545 233.612295 
L 366.705736 233.639949 
L 366.743782 233.549052 
L 367.040536 232.982286 
L 367.215545 233.075797 
L 367.324609 233.114882 
L 367.360118 233.070773 
L 367.674627 232.8053 
L 367.885145 232.984324 
L 367.935873 233.018165 
L 367.984064 232.933341 
L 368.3214 232.4038 
L 368.501482 232.528605 
L 368.8794 233.150156 
L 369.749373 234.529622 
L 369.931991 234.723892 
L 369.962427 234.624671 
L 370.396145 232.946276 
L 370.634564 232.726181 
L 371.037845 231.776476 
L 371.261045 231.585924 
L 371.438591 231.731846 
L 371.786073 232.391254 
L 372.582491 233.988732 
L 372.610391 233.943218 
L 372.716918 233.375357 
L 372.995918 232.126609 
L 373.163318 232.081096 
L 373.368764 232.339954 
L 373.581818 232.75565 
L 373.581818 232.75565 
" style="fill:none;stroke:#ff0000;stroke-linecap:square;stroke-width:1.5;"/>
   </g>
   <g id="line2d_18">
    <path clip-path="url(#p5351bce38b)" d="M 322.854545 213.171429 
L 373.480364 213.171429 
L 373.480364 213.171429 
" style="fill:none;stroke:#000000;stroke-linecap:square;stroke-width:1.5;"/>
   </g>
   <g id="line2d_19">
    <path clip-path="url(#p5351bce38b)" d="M 322.854545 189.874286 
L 322.854545 188.321143 
L 322.854545 186.768 
L 322.854545 185.214857 
L 322.854545 183.661714 
L 322.854545 182.108571 
L 322.854545 180.555429 
L 322.854545 179.002286 
L 322.854545 177.449143 
L 322.854545 175.896 
L 322.854545 174.342857 
L 322.854545 172.789714 
L 322.854545 171.236571 
L 322.854545 169.683429 
L 322.854545 168.130286 
L 322.854545 166.577143 
L 322.854545 165.024 
L 322.854545 163.470857 
L 322.854545 161.917714 
L 322.854545 160.364571 
" style="fill:none;stroke:#000000;stroke-linecap:square;stroke-width:1.5;"/>
   </g>
   <g id="patch_3">
    <path d="M 54 252 
L 54 34.56 
" style="fill:none;stroke:#000000;stroke-linecap:square;stroke-linejoin:miter;stroke-width:0.8;"/>
   </g>
   <g id="patch_4">
    <path d="M 54 252 
L 388.8 252 
" style="fill:none;stroke:#000000;stroke-linecap:square;stroke-linejoin:miter;stroke-width:0.8;"/>
   </g>
   <g id="text_18">
    <!-- 500 ms -->
    <g transform="translate(322.854545 211.618286)scale(0.1 -0.1)">
     <use xlink:href="#DejaVuSans-53"/>
     <use x="63.623047" xlink:href="#DejaVuSans-48"/>
     <use x="127.246094" xlink:href="#DejaVuSans-48"/>
     <use x="190.869141" xlink:href="#DejaVuSans-32"/>
     <use x="222.65625" xlink:href="#DejaVuSans-109"/>
     <use x="320.068359" xlink:href="#DejaVuSans-115"/>
    </g>
   </g>
   <g id="text_19">
    <!-- 20 mV -->
    <g transform="translate(327.927273 158.811429)scale(0.1 -0.1)">
     <use xlink:href="#DejaVuSans-50"/>
     <use x="63.623047" xlink:href="#DejaVuSans-48"/>
     <use x="127.246094" xlink:href="#DejaVuSans-32"/>
     <use x="159.033203" xlink:href="#DejaVuSans-109"/>
     <use x="256.445312" xlink:href="#DejaVuSans-86"/>
    </g>
   </g>
  </g>
 </g>
 <defs>
  <clipPath id="p5351bce38b">
   <rect height="217.44" width="334.8" x="54" y="34.56"/>
  </clipPath>
 </defs>
</svg>
