<?xml version="1.0" encoding="utf-8" standalone="no"?>
<!DOCTYPE svg PUBLIC "-//W3C//DTD SVG 1.1//EN"
  "http://www.w3.org/Graphics/SVG/1.1/DTD/svg11.dtd">
<svg xmlns:xlink="http://www.w3.org/1999/xlink" width="460.8pt" height="345.6pt" viewBox="0 0 460.8 345.6" xmlns="http://www.w3.org/2000/svg" version="1.1">
 <metadata>
  <rdf:RDF xmlns:dc="http://purl.org/dc/elements/1.1/" xmlns:cc="http://creativecommons.org/ns#" xmlns:rdf="http://www.w3.org/1999/02/22-rdf-syntax-ns#">
   <cc:Work>
    <dc:type rdf:resource="http://purl.org/dc/dcmitype/StillImage"/>
    <dc:date>2023-02-10T17:52:55.205100</dc:date>
    <dc:format>image/svg+xml</dc:format>
    <dc:creator>
     <cc:Agent>
      <dc:title>Matplotlib v3.6.3, https://matplotlib.org/</dc:title>
     </cc:Agent>
    </dc:creator>
   </cc:Work>
  </rdf:RDF>
 </metadata>
 <defs>
  <style type="text/css">*{stroke-linejoin: round; stroke-linecap: butt}</style>
 </defs>
 <g id="figure_1">
  <g id="patch_1">
   <path d="M 0 345.6 
L 460.8 345.6 
L 460.8 0 
L 0 0 
z
" style="fill: #ffffff"/>
  </g>
  <g id="axes_1">
   <g id="patch_2">
    <path d="M 57.6 307.584 
L 414.72 307.584 
L 414.72 41.472 
L 57.6 41.472 
z
" style="fill: #ffffff"/>
   </g>
   <g id="matplotlib.axis_1">
    <g id="xtick_1">
     <g id="line2d_1">
      <defs>
       <path id="mc87f828b06" d="M 0 0 
L 0 3.5 
" style="stroke: #000000; stroke-width: 0.8"/>
      </defs>
      <g>
       <use xlink:href="#mc87f828b06" x="73.832727" y="307.584" style="stroke: #000000; stroke-width: 0.8"/>
      </g>
     </g>
     <g id="text_1">
      <!-- 0 -->
      <g transform="translate(70.651477 322.182437) scale(0.1 -0.1)">
       <defs>
        <path id="DejaVuSans-30" d="M 2034 4250 
Q 1547 4250 1301 3770 
Q 1056 3291 1056 2328 
Q 1056 1369 1301 889 
Q 1547 409 2034 409 
Q 2525 409 2770 889 
Q 3016 1369 3016 2328 
Q 3016 3291 2770 3770 
Q 2525 4250 2034 4250 
z
M 2034 4750 
Q 2819 4750 3233 4129 
Q 3647 3509 3647 2328 
Q 3647 1150 3233 529 
Q 2819 -91 2034 -91 
Q 1250 -91 836 529 
Q 422 1150 422 2328 
Q 422 3509 836 4129 
Q 1250 4750 2034 4750 
z
" transform="scale(0.015625)"/>
       </defs>
       <use xlink:href="#DejaVuSans-30"/>
      </g>
     </g>
    </g>
    <g id="xtick_2">
     <g id="line2d_2">
      <g>
       <use xlink:href="#mc87f828b06" x="127.941818" y="307.584" style="stroke: #000000; stroke-width: 0.8"/>
      </g>
     </g>
     <g id="text_2">
      <!-- 500 -->
      <g transform="translate(118.398068 322.182437) scale(0.1 -0.1)">
       <defs>
        <path id="DejaVuSans-35" d="M 691 4666 
L 3169 4666 
L 3169 4134 
L 1269 4134 
L 1269 2991 
Q 1406 3038 1543 3061 
Q 1681 3084 1819 3084 
Q 2600 3084 3056 2656 
Q 3513 2228 3513 1497 
Q 3513 744 3044 326 
Q 2575 -91 1722 -91 
Q 1428 -91 1123 -41 
Q 819 9 494 109 
L 494 744 
Q 775 591 1075 516 
Q 1375 441 1709 441 
Q 2250 441 2565 725 
Q 2881 1009 2881 1497 
Q 2881 1984 2565 2268 
Q 2250 2553 1709 2553 
Q 1456 2553 1204 2497 
Q 953 2441 691 2322 
L 691 4666 
z
" transform="scale(0.015625)"/>
       </defs>
       <use xlink:href="#DejaVuSans-35"/>
       <use xlink:href="#DejaVuSans-30" x="63.623047"/>
       <use xlink:href="#DejaVuSans-30" x="127.246094"/>
      </g>
     </g>
    </g>
    <g id="xtick_3">
     <g id="line2d_3">
      <g>
       <use xlink:href="#mc87f828b06" x="182.050909" y="307.584" style="stroke: #000000; stroke-width: 0.8"/>
      </g>
     </g>
     <g id="text_3">
      <!-- 1000 -->
      <g transform="translate(169.325909 322.182437) scale(0.1 -0.1)">
       <defs>
        <path id="DejaVuSans-31" d="M 794 531 
L 1825 531 
L 1825 4091 
L 703 3866 
L 703 4441 
L 1819 4666 
L 2450 4666 
L 2450 531 
L 3481 531 
L 3481 0 
L 794 0 
L 794 531 
z
" transform="scale(0.015625)"/>
       </defs>
       <use xlink:href="#DejaVuSans-31"/>
       <use xlink:href="#DejaVuSans-30" x="63.623047"/>
       <use xlink:href="#DejaVuSans-30" x="127.246094"/>
       <use xlink:href="#DejaVuSans-30" x="190.869141"/>
      </g>
     </g>
    </g>
    <g id="xtick_4">
     <g id="line2d_4">
      <g>
       <use xlink:href="#mc87f828b06" x="236.16" y="307.584" style="stroke: #000000; stroke-width: 0.8"/>
      </g>
     </g>
     <g id="text_4">
      <!-- 1500 -->
      <g transform="translate(223.435 322.182437) scale(0.1 -0.1)">
       <use xlink:href="#DejaVuSans-31"/>
       <use xlink:href="#DejaVuSans-35" x="63.623047"/>
       <use xlink:href="#DejaVuSans-30" x="127.246094"/>
       <use xlink:href="#DejaVuSans-30" x="190.869141"/>
      </g>
     </g>
    </g>
    <g id="xtick_5">
     <g id="line2d_5">
      <g>
       <use xlink:href="#mc87f828b06" x="290.269091" y="307.584" style="stroke: #000000; stroke-width: 0.8"/>
      </g>
     </g>
     <g id="text_5">
      <!-- 2000 -->
      <g transform="translate(277.544091 322.182437) scale(0.1 -0.1)">
       <defs>
        <path id="DejaVuSans-32" d="M 1228 531 
L 3431 531 
L 3431 0 
L 469 0 
L 469 531 
Q 828 903 1448 1529 
Q 2069 2156 2228 2338 
Q 2531 2678 2651 2914 
Q 2772 3150 2772 3378 
Q 2772 3750 2511 3984 
Q 2250 4219 1831 4219 
Q 1534 4219 1204 4116 
Q 875 4013 500 3803 
L 500 4441 
Q 881 4594 1212 4672 
Q 1544 4750 1819 4750 
Q 2544 4750 2975 4387 
Q 3406 4025 3406 3419 
Q 3406 3131 3298 2873 
Q 3191 2616 2906 2266 
Q 2828 2175 2409 1742 
Q 1991 1309 1228 531 
z
" transform="scale(0.015625)"/>
       </defs>
       <use xlink:href="#DejaVuSans-32"/>
       <use xlink:href="#DejaVuSans-30" x="63.623047"/>
       <use xlink:href="#DejaVuSans-30" x="127.246094"/>
       <use xlink:href="#DejaVuSans-30" x="190.869141"/>
      </g>
     </g>
    </g>
    <g id="xtick_6">
     <g id="line2d_6">
      <g>
       <use xlink:href="#mc87f828b06" x="344.378182" y="307.584" style="stroke: #000000; stroke-width: 0.8"/>
      </g>
     </g>
     <g id="text_6">
      <!-- 2500 -->
      <g transform="translate(331.653182 322.182437) scale(0.1 -0.1)">
       <use xlink:href="#DejaVuSans-32"/>
       <use xlink:href="#DejaVuSans-35" x="63.623047"/>
       <use xlink:href="#DejaVuSans-30" x="127.246094"/>
       <use xlink:href="#DejaVuSans-30" x="190.869141"/>
      </g>
     </g>
    </g>
    <g id="xtick_7">
     <g id="line2d_7">
      <g>
       <use xlink:href="#mc87f828b06" x="398.487273" y="307.584" style="stroke: #000000; stroke-width: 0.8"/>
      </g>
     </g>
     <g id="text_7">
      <!-- 3000 -->
      <g transform="translate(385.762273 322.182437) scale(0.1 -0.1)">
       <defs>
        <path id="DejaVuSans-33" d="M 2597 2516 
Q 3050 2419 3304 2112 
Q 3559 1806 3559 1356 
Q 3559 666 3084 287 
Q 2609 -91 1734 -91 
Q 1441 -91 1130 -33 
Q 819 25 488 141 
L 488 750 
Q 750 597 1062 519 
Q 1375 441 1716 441 
Q 2309 441 2620 675 
Q 2931 909 2931 1356 
Q 2931 1769 2642 2001 
Q 2353 2234 1838 2234 
L 1294 2234 
L 1294 2753 
L 1863 2753 
Q 2328 2753 2575 2939 
Q 2822 3125 2822 3475 
Q 2822 3834 2567 4026 
Q 2313 4219 1838 4219 
Q 1578 4219 1281 4162 
Q 984 4106 628 3988 
L 628 4550 
Q 988 4650 1302 4700 
Q 1616 4750 1894 4750 
Q 2613 4750 3031 4423 
Q 3450 4097 3450 3541 
Q 3450 3153 3228 2886 
Q 3006 2619 2597 2516 
z
" transform="scale(0.015625)"/>
       </defs>
       <use xlink:href="#DejaVuSans-33"/>
       <use xlink:href="#DejaVuSans-30" x="63.623047"/>
       <use xlink:href="#DejaVuSans-30" x="127.246094"/>
       <use xlink:href="#DejaVuSans-30" x="190.869141"/>
      </g>
     </g>
    </g>
    <g id="text_8">
     <!-- Time(ms) -->
     <g transform="translate(212.549844 335.860562) scale(0.1 -0.1)">
      <defs>
       <path id="DejaVuSans-54" d="M -19 4666 
L 3928 4666 
L 3928 4134 
L 2272 4134 
L 2272 0 
L 1638 0 
L 1638 4134 
L -19 4134 
L -19 4666 
z
" transform="scale(0.015625)"/>
       <path id="DejaVuSans-69" d="M 603 3500 
L 1178 3500 
L 1178 0 
L 603 0 
L 603 3500 
z
M 603 4863 
L 1178 4863 
L 1178 4134 
L 603 4134 
L 603 4863 
z
" transform="scale(0.015625)"/>
       <path id="DejaVuSans-6d" d="M 3328 2828 
Q 3544 3216 3844 3400 
Q 4144 3584 4550 3584 
Q 5097 3584 5394 3201 
Q 5691 2819 5691 2113 
L 5691 0 
L 5113 0 
L 5113 2094 
Q 5113 2597 4934 2840 
Q 4756 3084 4391 3084 
Q 3944 3084 3684 2787 
Q 3425 2491 3425 1978 
L 3425 0 
L 2847 0 
L 2847 2094 
Q 2847 2600 2669 2842 
Q 2491 3084 2119 3084 
Q 1678 3084 1418 2786 
Q 1159 2488 1159 1978 
L 1159 0 
L 581 0 
L 581 3500 
L 1159 3500 
L 1159 2956 
Q 1356 3278 1631 3431 
Q 1906 3584 2284 3584 
Q 2666 3584 2933 3390 
Q 3200 3197 3328 2828 
z
" transform="scale(0.015625)"/>
       <path id="DejaVuSans-65" d="M 3597 1894 
L 3597 1613 
L 953 1613 
Q 991 1019 1311 708 
Q 1631 397 2203 397 
Q 2534 397 2845 478 
Q 3156 559 3463 722 
L 3463 178 
Q 3153 47 2828 -22 
Q 2503 -91 2169 -91 
Q 1331 -91 842 396 
Q 353 884 353 1716 
Q 353 2575 817 3079 
Q 1281 3584 2069 3584 
Q 2775 3584 3186 3129 
Q 3597 2675 3597 1894 
z
M 3022 2063 
Q 3016 2534 2758 2815 
Q 2500 3097 2075 3097 
Q 1594 3097 1305 2825 
Q 1016 2553 972 2059 
L 3022 2063 
z
" transform="scale(0.015625)"/>
       <path id="DejaVuSans-28" d="M 1984 4856 
Q 1566 4138 1362 3434 
Q 1159 2731 1159 2009 
Q 1159 1288 1364 580 
Q 1569 -128 1984 -844 
L 1484 -844 
Q 1016 -109 783 600 
Q 550 1309 550 2009 
Q 550 2706 781 3412 
Q 1013 4119 1484 4856 
L 1984 4856 
z
" transform="scale(0.015625)"/>
       <path id="DejaVuSans-73" d="M 2834 3397 
L 2834 2853 
Q 2591 2978 2328 3040 
Q 2066 3103 1784 3103 
Q 1356 3103 1142 2972 
Q 928 2841 928 2578 
Q 928 2378 1081 2264 
Q 1234 2150 1697 2047 
L 1894 2003 
Q 2506 1872 2764 1633 
Q 3022 1394 3022 966 
Q 3022 478 2636 193 
Q 2250 -91 1575 -91 
Q 1294 -91 989 -36 
Q 684 19 347 128 
L 347 722 
Q 666 556 975 473 
Q 1284 391 1588 391 
Q 1994 391 2212 530 
Q 2431 669 2431 922 
Q 2431 1156 2273 1281 
Q 2116 1406 1581 1522 
L 1381 1569 
Q 847 1681 609 1914 
Q 372 2147 372 2553 
Q 372 3047 722 3315 
Q 1072 3584 1716 3584 
Q 2034 3584 2315 3537 
Q 2597 3491 2834 3397 
z
" transform="scale(0.015625)"/>
       <path id="DejaVuSans-29" d="M 513 4856 
L 1013 4856 
Q 1481 4119 1714 3412 
Q 1947 2706 1947 2009 
Q 1947 1309 1714 600 
Q 1481 -109 1013 -844 
L 513 -844 
Q 928 -128 1133 580 
Q 1338 1288 1338 2009 
Q 1338 2731 1133 3434 
Q 928 4138 513 4856 
z
" transform="scale(0.015625)"/>
      </defs>
      <use xlink:href="#DejaVuSans-54"/>
      <use xlink:href="#DejaVuSans-69" x="57.958984"/>
      <use xlink:href="#DejaVuSans-6d" x="85.742188"/>
      <use xlink:href="#DejaVuSans-65" x="183.154297"/>
      <use xlink:href="#DejaVuSans-28" x="244.677734"/>
      <use xlink:href="#DejaVuSans-6d" x="283.691406"/>
      <use xlink:href="#DejaVuSans-73" x="381.103516"/>
      <use xlink:href="#DejaVuSans-29" x="433.203125"/>
     </g>
    </g>
   </g>
   <g id="matplotlib.axis_2">
    <g id="ytick_1">
     <g id="line2d_8">
      <defs>
       <path id="mb8b514a0f4" d="M 0 0 
L -3.5 0 
" style="stroke: #000000; stroke-width: 0.8"/>
      </defs>
      <g>
       <use xlink:href="#mb8b514a0f4" x="57.6" y="307.584" style="stroke: #000000; stroke-width: 0.8"/>
      </g>
     </g>
     <g id="text_9">
      <!-- −100 -->
      <g transform="translate(23.132812 311.383219) scale(0.1 -0.1)">
       <defs>
        <path id="DejaVuSans-2212" d="M 678 2272 
L 4684 2272 
L 4684 1741 
L 678 1741 
L 678 2272 
z
" transform="scale(0.015625)"/>
       </defs>
       <use xlink:href="#DejaVuSans-2212"/>
       <use xlink:href="#DejaVuSans-31" x="83.789062"/>
       <use xlink:href="#DejaVuSans-30" x="147.412109"/>
       <use xlink:href="#DejaVuSans-30" x="211.035156"/>
      </g>
     </g>
    </g>
    <g id="ytick_2">
     <g id="line2d_9">
      <g>
       <use xlink:href="#mb8b514a0f4" x="57.6" y="269.568" style="stroke: #000000; stroke-width: 0.8"/>
      </g>
     </g>
     <g id="text_10">
      <!-- −80 -->
      <g transform="translate(29.495313 273.367219) scale(0.1 -0.1)">
       <defs>
        <path id="DejaVuSans-38" d="M 2034 2216 
Q 1584 2216 1326 1975 
Q 1069 1734 1069 1313 
Q 1069 891 1326 650 
Q 1584 409 2034 409 
Q 2484 409 2743 651 
Q 3003 894 3003 1313 
Q 3003 1734 2745 1975 
Q 2488 2216 2034 2216 
z
M 1403 2484 
Q 997 2584 770 2862 
Q 544 3141 544 3541 
Q 544 4100 942 4425 
Q 1341 4750 2034 4750 
Q 2731 4750 3128 4425 
Q 3525 4100 3525 3541 
Q 3525 3141 3298 2862 
Q 3072 2584 2669 2484 
Q 3125 2378 3379 2068 
Q 3634 1759 3634 1313 
Q 3634 634 3220 271 
Q 2806 -91 2034 -91 
Q 1263 -91 848 271 
Q 434 634 434 1313 
Q 434 1759 690 2068 
Q 947 2378 1403 2484 
z
M 1172 3481 
Q 1172 3119 1398 2916 
Q 1625 2713 2034 2713 
Q 2441 2713 2670 2916 
Q 2900 3119 2900 3481 
Q 2900 3844 2670 4047 
Q 2441 4250 2034 4250 
Q 1625 4250 1398 4047 
Q 1172 3844 1172 3481 
z
" transform="scale(0.015625)"/>
       </defs>
       <use xlink:href="#DejaVuSans-2212"/>
       <use xlink:href="#DejaVuSans-38" x="83.789062"/>
       <use xlink:href="#DejaVuSans-30" x="147.412109"/>
      </g>
     </g>
    </g>
    <g id="ytick_3">
     <g id="line2d_10">
      <g>
       <use xlink:href="#mb8b514a0f4" x="57.6" y="231.552" style="stroke: #000000; stroke-width: 0.8"/>
      </g>
     </g>
     <g id="text_11">
      <!-- −60 -->
      <g transform="translate(29.495313 235.351219) scale(0.1 -0.1)">
       <defs>
        <path id="DejaVuSans-36" d="M 2113 2584 
Q 1688 2584 1439 2293 
Q 1191 2003 1191 1497 
Q 1191 994 1439 701 
Q 1688 409 2113 409 
Q 2538 409 2786 701 
Q 3034 994 3034 1497 
Q 3034 2003 2786 2293 
Q 2538 2584 2113 2584 
z
M 3366 4563 
L 3366 3988 
Q 3128 4100 2886 4159 
Q 2644 4219 2406 4219 
Q 1781 4219 1451 3797 
Q 1122 3375 1075 2522 
Q 1259 2794 1537 2939 
Q 1816 3084 2150 3084 
Q 2853 3084 3261 2657 
Q 3669 2231 3669 1497 
Q 3669 778 3244 343 
Q 2819 -91 2113 -91 
Q 1303 -91 875 529 
Q 447 1150 447 2328 
Q 447 3434 972 4092 
Q 1497 4750 2381 4750 
Q 2619 4750 2861 4703 
Q 3103 4656 3366 4563 
z
" transform="scale(0.015625)"/>
       </defs>
       <use xlink:href="#DejaVuSans-2212"/>
       <use xlink:href="#DejaVuSans-36" x="83.789062"/>
       <use xlink:href="#DejaVuSans-30" x="147.412109"/>
      </g>
     </g>
    </g>
    <g id="ytick_4">
     <g id="line2d_11">
      <g>
       <use xlink:href="#mb8b514a0f4" x="57.6" y="193.536" style="stroke: #000000; stroke-width: 0.8"/>
      </g>
     </g>
     <g id="text_12">
      <!-- −40 -->
      <g transform="translate(29.495313 197.335219) scale(0.1 -0.1)">
       <defs>
        <path id="DejaVuSans-34" d="M 2419 4116 
L 825 1625 
L 2419 1625 
L 2419 4116 
z
M 2253 4666 
L 3047 4666 
L 3047 1625 
L 3713 1625 
L 3713 1100 
L 3047 1100 
L 3047 0 
L 2419 0 
L 2419 1100 
L 313 1100 
L 313 1709 
L 2253 4666 
z
" transform="scale(0.015625)"/>
       </defs>
       <use xlink:href="#DejaVuSans-2212"/>
       <use xlink:href="#DejaVuSans-34" x="83.789062"/>
       <use xlink:href="#DejaVuSans-30" x="147.412109"/>
      </g>
     </g>
    </g>
    <g id="ytick_5">
     <g id="line2d_12">
      <g>
       <use xlink:href="#mb8b514a0f4" x="57.6" y="155.52" style="stroke: #000000; stroke-width: 0.8"/>
      </g>
     </g>
     <g id="text_13">
      <!-- −20 -->
      <g transform="translate(29.495313 159.319219) scale(0.1 -0.1)">
       <use xlink:href="#DejaVuSans-2212"/>
       <use xlink:href="#DejaVuSans-32" x="83.789062"/>
       <use xlink:href="#DejaVuSans-30" x="147.412109"/>
      </g>
     </g>
    </g>
    <g id="ytick_6">
     <g id="line2d_13">
      <g>
       <use xlink:href="#mb8b514a0f4" x="57.6" y="117.504" style="stroke: #000000; stroke-width: 0.8"/>
      </g>
     </g>
     <g id="text_14">
      <!-- 0 -->
      <g transform="translate(44.2375 121.303219) scale(0.1 -0.1)">
       <use xlink:href="#DejaVuSans-30"/>
      </g>
     </g>
    </g>
    <g id="ytick_7">
     <g id="line2d_14">
      <g>
       <use xlink:href="#mb8b514a0f4" x="57.6" y="79.488" style="stroke: #000000; stroke-width: 0.8"/>
      </g>
     </g>
     <g id="text_15">
      <!-- 20 -->
      <g transform="translate(37.875 83.287219) scale(0.1 -0.1)">
       <use xlink:href="#DejaVuSans-32"/>
       <use xlink:href="#DejaVuSans-30" x="63.623047"/>
      </g>
     </g>
    </g>
    <g id="ytick_8">
     <g id="line2d_15">
      <g>
       <use xlink:href="#mb8b514a0f4" x="57.6" y="41.472" style="stroke: #000000; stroke-width: 0.8"/>
      </g>
     </g>
     <g id="text_16">
      <!-- 40 -->
      <g transform="translate(37.875 45.271219) scale(0.1 -0.1)">
       <use xlink:href="#DejaVuSans-34"/>
       <use xlink:href="#DejaVuSans-30" x="63.623047"/>
      </g>
     </g>
    </g>
    <g id="text_17">
     <!-- Membrane potential (mV) -->
     <g transform="translate(17.053125 238.939719) rotate(-90) scale(0.1 -0.1)">
      <defs>
       <path id="DejaVuSans-4d" d="M 628 4666 
L 1569 4666 
L 2759 1491 
L 3956 4666 
L 4897 4666 
L 4897 0 
L 4281 0 
L 4281 4097 
L 3078 897 
L 2444 897 
L 1241 4097 
L 1241 0 
L 628 0 
L 628 4666 
z
" transform="scale(0.015625)"/>
       <path id="DejaVuSans-62" d="M 3116 1747 
Q 3116 2381 2855 2742 
Q 2594 3103 2138 3103 
Q 1681 3103 1420 2742 
Q 1159 2381 1159 1747 
Q 1159 1113 1420 752 
Q 1681 391 2138 391 
Q 2594 391 2855 752 
Q 3116 1113 3116 1747 
z
M 1159 2969 
Q 1341 3281 1617 3432 
Q 1894 3584 2278 3584 
Q 2916 3584 3314 3078 
Q 3713 2572 3713 1747 
Q 3713 922 3314 415 
Q 2916 -91 2278 -91 
Q 1894 -91 1617 61 
Q 1341 213 1159 525 
L 1159 0 
L 581 0 
L 581 4863 
L 1159 4863 
L 1159 2969 
z
" transform="scale(0.015625)"/>
       <path id="DejaVuSans-72" d="M 2631 2963 
Q 2534 3019 2420 3045 
Q 2306 3072 2169 3072 
Q 1681 3072 1420 2755 
Q 1159 2438 1159 1844 
L 1159 0 
L 581 0 
L 581 3500 
L 1159 3500 
L 1159 2956 
Q 1341 3275 1631 3429 
Q 1922 3584 2338 3584 
Q 2397 3584 2469 3576 
Q 2541 3569 2628 3553 
L 2631 2963 
z
" transform="scale(0.015625)"/>
       <path id="DejaVuSans-61" d="M 2194 1759 
Q 1497 1759 1228 1600 
Q 959 1441 959 1056 
Q 959 750 1161 570 
Q 1363 391 1709 391 
Q 2188 391 2477 730 
Q 2766 1069 2766 1631 
L 2766 1759 
L 2194 1759 
z
M 3341 1997 
L 3341 0 
L 2766 0 
L 2766 531 
Q 2569 213 2275 61 
Q 1981 -91 1556 -91 
Q 1019 -91 701 211 
Q 384 513 384 1019 
Q 384 1609 779 1909 
Q 1175 2209 1959 2209 
L 2766 2209 
L 2766 2266 
Q 2766 2663 2505 2880 
Q 2244 3097 1772 3097 
Q 1472 3097 1187 3025 
Q 903 2953 641 2809 
L 641 3341 
Q 956 3463 1253 3523 
Q 1550 3584 1831 3584 
Q 2591 3584 2966 3190 
Q 3341 2797 3341 1997 
z
" transform="scale(0.015625)"/>
       <path id="DejaVuSans-6e" d="M 3513 2113 
L 3513 0 
L 2938 0 
L 2938 2094 
Q 2938 2591 2744 2837 
Q 2550 3084 2163 3084 
Q 1697 3084 1428 2787 
Q 1159 2491 1159 1978 
L 1159 0 
L 581 0 
L 581 3500 
L 1159 3500 
L 1159 2956 
Q 1366 3272 1645 3428 
Q 1925 3584 2291 3584 
Q 2894 3584 3203 3211 
Q 3513 2838 3513 2113 
z
" transform="scale(0.015625)"/>
       <path id="DejaVuSans-20" transform="scale(0.015625)"/>
       <path id="DejaVuSans-70" d="M 1159 525 
L 1159 -1331 
L 581 -1331 
L 581 3500 
L 1159 3500 
L 1159 2969 
Q 1341 3281 1617 3432 
Q 1894 3584 2278 3584 
Q 2916 3584 3314 3078 
Q 3713 2572 3713 1747 
Q 3713 922 3314 415 
Q 2916 -91 2278 -91 
Q 1894 -91 1617 61 
Q 1341 213 1159 525 
z
M 3116 1747 
Q 3116 2381 2855 2742 
Q 2594 3103 2138 3103 
Q 1681 3103 1420 2742 
Q 1159 2381 1159 1747 
Q 1159 1113 1420 752 
Q 1681 391 2138 391 
Q 2594 391 2855 752 
Q 3116 1113 3116 1747 
z
" transform="scale(0.015625)"/>
       <path id="DejaVuSans-6f" d="M 1959 3097 
Q 1497 3097 1228 2736 
Q 959 2375 959 1747 
Q 959 1119 1226 758 
Q 1494 397 1959 397 
Q 2419 397 2687 759 
Q 2956 1122 2956 1747 
Q 2956 2369 2687 2733 
Q 2419 3097 1959 3097 
z
M 1959 3584 
Q 2709 3584 3137 3096 
Q 3566 2609 3566 1747 
Q 3566 888 3137 398 
Q 2709 -91 1959 -91 
Q 1206 -91 779 398 
Q 353 888 353 1747 
Q 353 2609 779 3096 
Q 1206 3584 1959 3584 
z
" transform="scale(0.015625)"/>
       <path id="DejaVuSans-74" d="M 1172 4494 
L 1172 3500 
L 2356 3500 
L 2356 3053 
L 1172 3053 
L 1172 1153 
Q 1172 725 1289 603 
Q 1406 481 1766 481 
L 2356 481 
L 2356 0 
L 1766 0 
Q 1100 0 847 248 
Q 594 497 594 1153 
L 594 3053 
L 172 3053 
L 172 3500 
L 594 3500 
L 594 4494 
L 1172 4494 
z
" transform="scale(0.015625)"/>
       <path id="DejaVuSans-6c" d="M 603 4863 
L 1178 4863 
L 1178 0 
L 603 0 
L 603 4863 
z
" transform="scale(0.015625)"/>
       <path id="DejaVuSans-56" d="M 1831 0 
L 50 4666 
L 709 4666 
L 2188 738 
L 3669 4666 
L 4325 4666 
L 2547 0 
L 1831 0 
z
" transform="scale(0.015625)"/>
      </defs>
      <use xlink:href="#DejaVuSans-4d"/>
      <use xlink:href="#DejaVuSans-65" x="86.279297"/>
      <use xlink:href="#DejaVuSans-6d" x="147.802734"/>
      <use xlink:href="#DejaVuSans-62" x="245.214844"/>
      <use xlink:href="#DejaVuSans-72" x="308.691406"/>
      <use xlink:href="#DejaVuSans-61" x="349.804688"/>
      <use xlink:href="#DejaVuSans-6e" x="411.083984"/>
      <use xlink:href="#DejaVuSans-65" x="474.462891"/>
      <use xlink:href="#DejaVuSans-20" x="535.986328"/>
      <use xlink:href="#DejaVuSans-70" x="567.773438"/>
      <use xlink:href="#DejaVuSans-6f" x="631.25"/>
      <use xlink:href="#DejaVuSans-74" x="692.431641"/>
      <use xlink:href="#DejaVuSans-65" x="731.640625"/>
      <use xlink:href="#DejaVuSans-6e" x="793.164062"/>
      <use xlink:href="#DejaVuSans-74" x="856.542969"/>
      <use xlink:href="#DejaVuSans-69" x="895.751953"/>
      <use xlink:href="#DejaVuSans-61" x="923.535156"/>
      <use xlink:href="#DejaVuSans-6c" x="984.814453"/>
      <use xlink:href="#DejaVuSans-20" x="1012.597656"/>
      <use xlink:href="#DejaVuSans-28" x="1044.384766"/>
      <use xlink:href="#DejaVuSans-6d" x="1083.398438"/>
      <use xlink:href="#DejaVuSans-56" x="1180.810547"/>
      <use xlink:href="#DejaVuSans-29" x="1249.21875"/>
     </g>
    </g>
   </g>
   <g id="line2d_16">
    <path d="M 73.832727 280.9728 
L 74.041047 284.533572 
L 74.287244 285.604698 
L 74.546967 286.010622 
L 74.839156 286.163623 
L 75.131345 286.097918 
L 75.288262 285.934024 
L 75.556102 285.300534 
L 75.940276 284.71722 
L 76.7952 279.369145 
L 77.100916 276.668538 
L 77.165847 276.633748 
L 77.21184 276.693579 
L 77.403927 277.328207 
L 77.474269 277.374449 
L 77.522967 277.326105 
L 77.663651 276.861527 
L 78.009949 275.44186 
L 78.039709 275.459418 
L 78.156044 275.728101 
L 78.388713 276.962613 
L 78.808058 279.037621 
L 78.905455 278.954721 
L 79.094836 278.811232 
L 79.11648 278.828865 
L 79.254458 279.124735 
L 79.511476 280.327964 
L 80.314996 285.671133 
L 80.628829 287.213237 
L 80.664 287.168704 
L 80.883142 286.443376 
L 81.316015 284.738749 
L 81.443171 284.791076 
L 81.578444 284.996389 
L 81.621731 284.859742 
L 81.786764 283.39148 
L 82.130356 278.873523 
L 82.444189 274.973797 
L 82.641687 274.328987 
L 82.647098 274.330286 
L 82.831069 274.285252 
L 82.987985 273.65813 
L 83.40192 271.605937 
L 83.412742 271.60915 
L 83.507433 271.778707 
L 83.694109 272.702682 
L 84.159447 275.161967 
L 84.178385 275.152113 
L 84.624785 274.604881 
L 84.868276 273.90008 
L 84.906153 273.928871 
L 85.022487 274.031116 
L 85.065775 273.956353 
L 85.18752 273.340112 
L 85.439127 272.525922 
L 85.636625 272.230817 
L 85.755665 272.175696 
L 85.785425 272.20526 
L 85.920698 272.564973 
L 86.172305 274.014775 
L 86.570007 276.081753 
L 86.881135 275.964716 
L 87.314007 275.002914 
L 87.403287 275.116958 
L 87.470924 275.179398 
L 87.525033 275.108133 
L 87.838865 274.330317 
L 88.087767 273.537672 
L 88.198691 273.543439 
L 88.217629 273.567326 
L 88.366429 273.977045 
L 88.63968 275.528807 
L 88.756015 276.268726 
L 88.815535 276.005116 
L 89.037382 274.991001 
L 89.064436 275.007991 
L 89.167244 275.297157 
L 89.656931 277.300608 
L 89.729978 277.235083 
L 90.165556 276.495873 
L 90.441513 275.708589 
L 90.555142 275.378995 
L 91.19904 271.888603 
L 91.236916 271.908388 
L 91.364073 272.171763 
L 91.591331 273.286869 
L 92.010676 275.600632 
L 92.045847 275.464862 
L 92.362385 273.505799 
L 92.427316 273.585926 
L 92.578822 274.211996 
L 92.887244 275.791382 
L 92.946764 275.662479 
L 93.082036 274.76442 
L 94.158807 263.388396 
L 94.185862 263.40442 
L 94.285964 263.679941 
L 94.496989 265.068554 
L 94.994793 270.199075 
L 95.240989 271.724507 
L 95.324858 271.619109 
L 95.544 271.391103 
L 95.668451 271.099926 
L 95.81184 270.920221 
L 95.847011 270.948093 
L 95.971462 271.277266 
L 96.212247 272.69492 
L 96.672175 275.239253 
L 97.267375 278.57078 
L 97.784116 280.814321 
L 98.317091 282.221796 
L 98.630924 282.775349 
L 98.855476 283.218506 
L 99.447971 284.730488 
L 99.485847 284.638248 
L 99.791564 283.409425 
L 99.853789 283.464181 
L 100.026938 283.921067 
L 100.078342 284.038944 
L 100.12704 283.878955 
L 100.381353 281.834222 
L 100.754705 279.20657 
L 100.889978 279.075586 
L 100.917033 279.093366 
L 101.025251 279.177643 
L 101.057716 279.084266 
L 101.563636 276.904387 
L 101.661033 277.035302 
L 101.85312 277.774729 
L 102.126371 278.912289 
L 102.18048 278.878118 
L 102.32928 278.904415 
L 102.497018 279.215359 
L 102.561949 279.034921 
L 102.791913 277.667654 
L 103.289716 275.723906 
L 103.292422 275.72458 
L 103.435811 275.657933 
L 103.606255 275.405701 
L 103.636015 275.426924 
L 103.763171 275.72778 
L 103.968785 276.05685 
L 104.090531 275.951198 
L 104.231215 275.901705 
L 104.252858 275.923526 
L 104.753367 276.372862 
L 104.756073 276.37058 
L 104.929222 276.049231 
L 105.083433 275.485307 
L 105.289047 273.718249 
L 105.656989 270.550755 
L 105.719215 270.545155 
L 105.757091 270.599705 
L 106.07904 271.161371 
L 106.149382 271.074743 
L 106.260305 271.031816 
L 106.292771 271.069432 
L 106.428044 271.484071 
L 106.687767 273.163826 
L 107.561629 279.2545 
L 107.853818 280.045018 
L 107.948509 280.189041 
L 108.005324 280.147823 
L 108.235287 280.087365 
L 108.389498 280.021891 
L 108.808844 279.287571 
L 108.938705 279.387981 
L 109.130793 279.909865 
L 109.498735 281.699254 
L 109.585309 282.095204 
L 109.644829 281.913519 
L 110.161571 279.917254 
L 110.202153 279.941553 
L 110.294138 279.872946 
L 110.475404 279.821692 
L 110.713484 280.002717 
L 110.927215 280.635216 
L 111.000262 280.771483 
L 111.043549 280.643994 
L 111.67392 277.898624 
L 111.782138 277.969411 
L 111.949876 278.475932 
L 112.296175 280.391346 
L 112.761513 282.659437 
L 112.872436 282.766652 
L 112.915724 282.697758 
L 113.31072 281.848108 
L 113.362124 281.88844 
L 113.546095 282.271067 
L 113.600204 282.31718 
L 113.643491 282.223458 
L 113.897804 280.937668 
L 114.168349 280.025981 
L 114.422662 279.841689 
L 114.436189 279.853248 
L 114.584989 280.15055 
L 114.860945 281.315969 
L 114.988102 281.837203 
L 115.034095 281.649079 
L 115.282996 279.262617 
L 115.707753 276.181005 
L 116.411171 272.349777 
L 116.462575 272.234118 
L 116.708771 270.048911 
L 117.098356 268.621053 
L 117.241745 268.497467 
L 117.282327 268.547255 
L 117.4176 269.013874 
L 117.68544 270.914147 
L 118.391564 276.206004 
L 118.405091 276.202259 
L 118.735156 276.162533 
L 118.889367 276.206916 
L 119.0544 276.404351 
L 119.295185 276.948318 
L 119.592785 278.357453 
L 119.782167 278.789053 
L 120.196102 279.259497 
L 120.3936 279.714582 
L 120.726371 280.395553 
L 120.766953 280.327807 
L 120.775069 280.29543 
L 121.492015 276.79384 
L 122.114269 270.376723 
L 122.341527 269.532459 
L 122.449745 269.627437 
L 122.511971 269.683635 
L 122.552553 269.586183 
L 122.83392 268.752045 
L 122.877207 268.789136 
L 123.031418 269.206452 
L 123.629324 271.514548 
L 123.889047 272.61961 
L 124.02432 272.982466 
L 124.086545 272.817805 
L 124.568116 271.388377 
L 124.76832 271.147289 
L 125.120029 270.145593 
L 125.141673 270.157941 
L 125.252596 270.399916 
L 125.655709 272.19278 
L 126.042589 273.657626 
L 126.134575 273.55481 
L 126.67296 272.628277 
L 126.710836 272.656835 
L 126.756829 272.663461 
L 126.800116 272.592909 
L 126.919156 272.098008 
L 127.262749 269.154131 
L 127.281687 269.16306 
L 127.373673 269.390753 
L 127.579287 270.655065 
L 128.050036 274.264158 
L 128.133905 274.147838 
L 128.288116 273.503584 
L 128.664175 270.659157 
L 128.940131 269.005727 
L 129.418996 267.720762 
L 129.4704 267.770825 
L 129.608378 268.207412 
L 129.889745 270.029939 
L 130.068305 270.40415 
L 130.233338 270.812943 
L 130.612102 272.320581 
L 130.674327 272.047099 
L 131.220829 268.717433 
L 131.307404 268.544358 
L 131.594182 267.820086 
L 131.640175 267.859489 
L 132.213731 268.496812 
L 132.367942 268.358915 
L 132.551913 268.010359 
L 132.762938 267.342456 
L 132.779171 267.349888 
L 132.8928 267.570232 
L 133.149818 268.510673 
L 133.590807 271.30835 
L 134.11296 275.150032 
L 134.599942 278.323224 
L 134.943535 279.900082 
L 135.086924 280.16083 
L 135.108567 280.151931 
L 135.238429 279.928416 
L 135.465687 279.699731 
L 135.468393 279.701106 
L 135.606371 279.900443 
L 136.025716 280.88282 
L 136.098764 280.767075 
L 136.19616 280.241755 
L 136.415302 277.017287 
L 136.886051 271.730365 
L 137.570531 268.022582 
L 137.6544 267.945486 
L 137.700393 267.996969 
L 137.838371 268.476408 
L 138.000698 269.14947 
L 138.068335 269.059981 
L 138.214429 268.883053 
L 138.255011 268.9256 
L 138.384873 269.343935 
L 138.647302 271.110395 
L 139.437295 276.725463 
L 139.642909 277.637045 
L 139.680785 277.549006 
L 139.834996 276.344124 
L 140.200233 274.008792 
L 140.386909 273.141659 
L 140.768378 271.182686 
L 140.817076 271.224641 
L 140.952349 271.633133 
L 141.2256 273.329311 
L 141.788335 276.762942 
L 142.194153 277.219653 
L 142.443055 277.200409 
L 142.610793 277.566708 
L 142.656785 277.348592 
L 142.859695 274.695729 
L 143.13024 272.722898 
L 143.205993 272.671777 
L 143.251985 272.724493 
L 143.395375 273.206268 
L 143.72544 274.23747 
L 143.798487 274.407243 
L 143.860713 274.307565 
L 144.074444 273.599114 
L 144.669644 269.211802 
L 144.739985 269.316823 
L 145.446109 270.95119 
L 145.60032 271.014639 
L 146.035898 271.785746 
L 146.590516 273.779338 
L 147.026095 277.004276 
L 147.128902 276.50032 
L 147.41568 275.725582 
L 147.559069 275.544002 
L 147.588829 275.564448 
L 148.173207 276.290734 
L 148.568204 277.450339 
L 148.60608 277.335084 
L 148.944262 275.060465 
L 149.049775 275.248453 
L 149.209396 275.575821 
L 149.247273 275.501641 
L 149.336553 274.585223 
L 150.002095 266.268509 
L 150.226647 265.497171 
L 150.375447 265.128563 
L 150.645993 264.41992 
L 150.662225 264.427555 
L 150.767738 264.633228 
L 151.208727 266.41718 
L 151.695709 268.012986 
L 151.757935 267.917788 
L 151.920262 267.062461 
L 152.277382 265.167889 
L 152.369367 265.292786 
L 152.542516 266.038011 
L 152.986211 267.945111 
L 153.213469 268.837246 
L 153.484015 269.531235 
L 153.703156 270.503755 
L 153.911476 271.820041 
L 154.000756 271.592206 
L 154.08192 271.501815 
L 154.130618 271.565674 
L 154.295651 272.206034 
L 154.479622 272.462715 
L 154.568902 272.374648 
L 154.733935 272.235635 
L 154.760989 272.258632 
L 154.893556 272.57555 
L 155.375127 274.013586 
L 155.399476 273.985769 
L 155.507695 273.561944 
L 155.764713 272.807912 
L 156.28416 272.660051 
L 156.397789 272.829062 
L 156.446487 272.728134 
L 156.546589 271.882492 
L 157.160727 265.430022 
L 157.406924 264.584394 
L 157.409629 264.584976 
L 157.50432 264.725688 
L 157.774865 265.541715 
L 157.820858 265.722356 
L 157.880378 265.503293 
L 157.999418 265.216914 
L 158.045411 265.272591 
L 158.169862 265.820518 
L 158.462051 268.380605 
L 158.69472 269.55826 
L 158.924684 270.408336 
L 159.008553 270.263949 
L 159.127593 269.736416 
L 159.368378 268.992634 
L 159.514473 269.012359 
L 159.517178 269.015898 
L 160.090735 269.976482 
L 160.334225 271.275147 
L 160.924015 275.206545 
L 161.007884 275.107335 
L 161.538153 274.310361 
L 161.584145 274.355959 
L 162.006196 275.092265 
L 162.098182 274.899524 
L 162.455302 273.878373 
L 162.558109 274.037118 
L 162.758313 274.875959 
L 163.007215 275.636705 
L 163.237178 275.725093 
L 163.272349 275.621102 
L 163.480669 275.34019 
L 163.613236 275.146731 
L 163.921658 272.933996 
L 164.249018 268.876062 
L 164.503331 265.797976 
L 165.737018 261.809478 
L 166.042735 260.450534 
L 166.0752 260.47203 
L 166.186124 260.78373 
L 166.459375 261.680092 
L 166.497251 261.648557 
L 166.735331 261.412321 
L 166.773207 261.456458 
L 166.854371 261.550482 
L 166.865193 261.42866 
L 167.122211 259.032158 
L 167.29536 259.007418 
L 167.498269 259.008968 
L 167.568611 259.079258 
L 167.625425 258.996788 
L 167.925731 258.679914 
L 167.987956 258.586461 
L 168.09888 256.976076 
L 168.510109 251.240464 
L 168.550691 251.23361 
L 168.596684 251.306469 
L 168.859113 251.893875 
L 169.091782 252.877534 
L 169.362327 253.866855 
L 169.630167 254.583322 
L 170.038691 256.680328 
L 171.009949 263.686582 
L 171.180393 264.088644 
L 171.75936 266.635543 
L 172.119185 268.49309 
L 172.176 268.394905 
L 172.332916 267.428015 
L 172.700858 265.37883 
L 172.846953 265.135128 
L 172.876713 265.154912 
L 172.993047 265.438413 
L 173.2176 266.711021 
L 173.99136 271.535031 
L 174.132044 271.547339 
L 174.43776 271.385016 
L 174.627142 271.094095 
L 174.656902 271.110863 
L 174.732655 271.12897 
L 174.76512 271.0524 
L 175.014022 270.481369 
L 175.054604 270.513588 
L 175.222342 270.911629 
L 175.492887 272.02362 
L 175.574051 271.768271 
L 175.95552 270.181322 
L 176.177367 270.317911 
L 176.299113 270.50631 
L 176.667055 271.281517 
L 176.696815 271.259652 
L 176.961949 270.816579 
L 177.240611 268.890992 
L 177.267665 268.908778 
L 177.367767 269.209112 
L 178.100945 273.076157 
L 178.184815 273.455101 
L 178.233513 273.219495 
L 178.506764 271.720086 
L 178.522996 271.726233 
L 178.617687 271.9244 
L 178.798953 272.63255 
L 178.872 272.397768 
L 179.464495 269.918652 
L 179.567302 270.054768 
L 179.813498 270.813952 
L 179.908189 270.602945 
L 180.322124 269.02812 
L 180.676538 267.547969 
L 181.012015 267.496241 
L 181.536873 267.561269 
L 181.731665 268.460759 
L 181.848 268.800792 
L 181.899404 268.769772 
L 182.045498 268.773689 
L 182.053615 268.784905 
L 182.278167 269.226794 
L 182.340393 269.029228 
L 182.773265 266.914152 
L 182.843607 267.001027 
L 182.997818 267.624729 
L 183.111447 268.002219 
L 183.162851 267.917566 
L 183.279185 267.18123 
L 183.687709 264.700267 
L 183.84192 264.386358 
L 183.87168 264.405328 
L 184.034007 264.644223 
L 184.107055 264.503326 
L 184.25856 263.705302 
L 184.832116 260.308071 
L 184.953862 260.146149 
L 184.991738 260.178947 
L 185.116189 260.538293 
L 185.294749 260.97852 
L 185.327215 260.958879 
L 185.714095 260.442122 
L 185.800669 259.805322 
L 186.409396 254.373759 
L 186.428335 254.380907 
L 186.528436 254.583519 
L 186.731345 255.63279 
L 187.074938 257.171627 
L 187.129047 257.308828 
L 187.161513 257.119366 
L 187.396887 255.766583 
L 187.421236 255.781849 
L 187.540276 255.90209 
L 187.564625 255.80974 
L 187.643084 253.774676 
L 188.011025 245.26981 
L 188.046196 245.249419 
L 188.092189 245.339056 
L 188.227462 246.152004 
L 188.57376 249.484955 
L 188.714444 249.291681 
L 188.792902 249.429381 
L 188.96064 250.360016 
L 189.574778 252.942476 
L 189.866967 253.862109 
L 189.950836 253.651446 
L 190.383709 251.667456 
L 190.454051 251.72689 
L 190.56768 251.766148 
L 190.600145 251.71855 
L 190.800349 251.438939 
L 190.843636 251.486152 
L 190.978909 251.920404 
L 191.360378 254.236424 
L 191.571404 255.266086 
L 191.620102 255.135947 
L 191.852771 253.78967 
L 192.534545 248.089718 
L 192.796975 246.023609 
L 193.021527 244.970229 
L 193.12704 244.968892 
L 193.148684 244.996662 
L 193.289367 245.419153 
L 193.630255 246.353695 
L 193.643782 246.342995 
L 193.714124 246.029536 
L 194.076655 244.409089 
L 194.190284 244.271676 
L 194.230865 244.310683 
L 194.358022 244.713612 
L 194.609629 246.419959 
L 194.766545 247.050728 
L 194.796305 247.043183 
L 194.945105 247.111001 
L 195.096611 247.583953 
L 195.229178 248.021348 
L 195.285993 247.938862 
L 195.375273 247.44451 
L 195.518662 244.666926 
L 195.946124 237.179868 
L 196.138211 236.515326 
L 196.25184 236.60001 
L 196.397935 237.12166 
L 196.560262 237.670849 
L 196.595433 237.58175 
L 196.755055 236.304984 
L 197.079709 234.264743 
L 197.363782 233.601338 
L 197.396247 233.624153 
L 197.509876 233.588189 
L 197.71008 233.592299 
L 198.115898 233.689293 
L 198.326924 233.24334 
L 198.559593 230.087378 
L 199.309004 221.688842 
L 200.112524 214.774959 
L 200.323549 210.853722 
L 200.496698 202.933018 
L 200.588684 187.303193 
L 200.629265 120.567799 
L 200.645498 98.527092 
L 200.713135 187.038271 
L 200.902516 241.826588 
L 201.070255 245.37439 
L 201.105425 245.405731 
L 201.159535 245.304329 
L 201.362444 244.362781 
L 201.776378 242.203981 
L 201.806138 242.212202 
L 201.941411 242.134277 
L 202.063156 241.52699 
L 202.371578 238.509162 
L 202.452742 238.378075 
L 202.504145 238.449903 
L 202.631302 239.078183 
L 203.158865 242.056751 
L 203.340131 242.402889 
L 203.359069 242.386144 
L 203.440233 242.053807 
L 203.694545 241.171953 
L 203.699956 241.173349 
L 203.789236 241.319417 
L 203.98944 242.255047 
L 204.73344 246.170291 
L 204.787549 246.097034 
L 205.082444 245.552173 
L 205.136553 245.616422 
L 205.274531 246.127392 
L 205.53696 247.417981 
L 205.607302 247.334231 
L 205.723636 246.749246 
L 205.988771 245.721011 
L 205.994182 245.722159 
L 206.080756 245.866411 
L 206.2512 246.72981 
L 206.570444 248.37449 
L 206.613731 248.336916 
L 206.778764 248.190845 
L 206.81664 248.234914 
L 206.946502 248.663764 
L 207.187287 250.391791 
L 207.503825 252.442159 
L 207.522764 252.432315 
L 207.806836 252.129229 
L 207.877178 252.263798 
L 208.123375 253.248712 
L 208.667171 255.927258 
L 208.759156 255.626598 
L 208.972887 255.025415 
L 208.994531 255.036419 
L 209.097338 255.268595 
L 209.305658 256.443675 
L 209.657367 258.063342 
L 209.662778 258.06146 
L 209.730415 257.885577 
L 209.844044 256.92562 
L 210.385135 250.128157 
L 210.439244 250.188324 
L 210.571811 250.731964 
L 210.937047 252.213679 
L 211.0128 252.28679 
L 211.050676 252.189616 
L 211.299578 251.277762 
L 211.367215 251.313809 
L 211.440262 251.350971 
L 211.475433 251.262325 
L 211.7568 250.705465 
L 211.764916 250.709117 
L 211.865018 250.893773 
L 211.919127 251.008458 
L 211.973236 250.876266 
L 212.373644 248.797253 
L 212.625251 244.327136 
L 213.020247 238.397055 
L 213.407127 235.976872 
L 213.469353 235.954606 
L 213.51264 236.015373 
L 213.650618 236.560958 
L 213.934691 238.789644 
L 214.389207 242.087645 
L 214.391913 242.087265 
L 214.443316 241.94124 
L 214.892422 239.305408 
L 215.157556 236.878289 
L 215.966487 226.218839 
L 216.069295 226.135933 
L 216.109876 226.175433 
L 216.242444 226.56794 
L 216.556276 228.427262 
L 217.23264 232.087571 
L 218.149789 234.600039 
L 218.190371 234.418985 
L 218.774749 231.308132 
L 218.920844 230.667003 
L 219.356422 228.909076 
L 219.451113 228.922482 
L 219.472756 228.952667 
L 220.14912 230.282505 
L 220.522473 231.595582 
L 220.598225 231.522772 
L 221.001338 230.919699 
L 221.068975 231.011104 
L 221.198836 231.042486 
L 221.209658 231.036092 
L 221.347636 230.82983 
L 221.685818 229.808481 
L 221.693935 229.810706 
L 221.783215 229.782401 
L 221.796742 229.729887 
L 221.894138 228.742943 
L 222.546153 217.505539 
L 222.800465 211.389256 
L 222.968204 200.902005 
L 223.041251 179.848843 
L 223.084538 94.913239 
L 223.146764 183.580296 
L 223.319913 244.485636 
L 223.476829 248.754506 
L 223.739258 249.761681 
L 223.752785 249.752552 
L 223.844771 249.471863 
L 224.096378 248.861894 
L 224.1072 248.866142 
L 224.210007 249.045366 
L 224.364218 249.411338 
L 224.421033 249.326665 
L 224.807913 248.519043 
L 224.862022 248.579488 
L 224.997295 249.061586 
L 225.243491 250.948221 
L 226.087593 258.199418 
L 226.10112 258.190759 
L 226.174167 257.900861 
L 226.531287 255.099894 
L 226.788305 253.286337 
L 226.842415 253.288837 
L 226.877585 253.347231 
L 227.472785 254.481352 
L 227.489018 254.472211 
L 227.73792 254.334767 
L 227.775796 254.408554 
L 227.932713 255.086295 
L 228.103156 256.126661 
L 228.170793 255.857378 
L 228.438633 254.895232 
L 228.674007 254.345729 
L 229.396364 248.209344 
L 229.783244 246.738831 
L 230.015913 244.585742 
L 230.189062 244.271382 
L 230.221527 244.298706 
L 230.337862 244.640143 
L 230.611113 246.360306 
L 230.814022 247.545386 
L 230.878953 247.418683 
L 231.520145 245.462885 
L 231.812335 243.911953 
L 231.996305 243.485924 
L 232.020655 243.500877 
L 232.128873 243.766982 
L 232.326371 244.725134 
L 232.426473 244.491771 
L 233.21376 242.152329 
L 233.4816 241.013361 
L 233.836015 240.595947 
L 233.946938 238.729426 
L 234.228305 236.49935 
L 234.331113 236.363303 
L 234.3744 236.40727 
L 234.577309 236.907351 
L 234.647651 236.659787 
L 234.885731 234.746158 
L 235.196858 230.327405 
L 235.486342 228.688288 
L 235.59456 228.571786 
L 235.635142 228.608356 
L 236.116713 229.500784 
L 236.389964 231.000005 
L 236.87424 235.131139 
L 237.474851 239.48942 
L 237.918545 240.981645 
L 238.30272 241.663717 
L 238.375767 241.499812 
L 238.754531 239.679723 
L 239.030487 238.650484 
L 239.125178 238.592712 
L 239.16576 238.638562 
L 239.298327 239.073099 
L 239.871884 241.288974 
L 239.99904 241.526288 
L 240.191127 242.50282 
L 241.027113 247.401862 
L 241.703476 250.048091 
L 242.32032 253.768028 
L 242.696378 255.495229 
L 243.283462 259.068917 
L 243.310516 258.882567 
L 243.632465 256.42216 
L 243.635171 256.422691 
L 243.710924 256.556004 
L 243.873251 257.447268 
L 244.395404 262.17487 
L 244.841804 264.935743 
L 245.404538 266.749266 
L 245.499229 266.548972 
L 245.650735 265.772059 
L 245.886109 262.194866 
L 246.140422 260.960063 
L 246.153949 260.965322 
L 246.240524 261.158462 
L 246.481309 262.484039 
L 246.781615 263.43454 
L 246.979113 263.767985 
L 247.176611 264.047311 
L 247.236131 263.868143 
L 247.655476 261.755882 
L 247.742051 261.820498 
L 247.893556 262.21474 
L 248.637556 265.563456 
L 249.506007 269.605215 
L 249.511418 269.603385 
L 249.606109 269.433139 
L 250.025455 268.170636 
L 250.277062 267.743873 
L 250.360931 267.690222 
L 250.369047 267.661987 
L 250.507025 266.671066 
L 250.820858 264.427391 
L 251.09952 263.476011 
L 251.142807 263.345243 
L 251.551331 261.508539 
L 251.700131 261.38937 
L 251.729891 261.415307 
L 251.862458 261.749679 
L 252.306153 263.611621 
L 252.479302 264.426693 
L 252.522589 264.397285 
L 252.798545 263.933854 
L 252.898647 263.88087 
L 252.936524 263.921356 
L 253.085324 264.151883 
L 253.142138 264.046486 
L 253.285527 263.319627 
L 253.810385 259.729028 
L 253.815796 259.729909 
L 253.907782 259.870125 
L 254.051171 260.488189 
L 254.091753 260.086035 
L 254.221615 259.39955 
L 254.259491 259.447553 
L 254.375825 260.016388 
L 254.668015 261.273368 
L 254.830342 261.867805 
L 255.109004 263.944095 
L 255.685265 268.20897 
L 255.842182 268.622815 
L 255.912524 268.850083 
L 255.969338 268.674145 
L 256.120844 268.213688 
L 256.164131 268.263643 
L 256.288582 268.779089 
L 256.799913 271.570337 
L 256.854022 271.447855 
L 257.454633 269.519097 
L 257.64672 269.137737 
L 257.746822 268.629862 
L 258.009251 267.237002 
L 258.087709 267.282679 
L 258.101236 267.308233 
L 258.252742 267.84379 
L 258.304145 267.494726 
L 258.558458 265.840153 
L 258.571985 265.845182 
L 258.590924 265.845991 
L 258.623389 265.745552 
L 258.764073 265.420222 
L 258.80736 265.464712 
L 258.942633 265.945704 
L 259.399855 268.204913 
L 259.667695 269.38995 
L 260.419811 271.039459 
L 260.736349 271.901218 
L 260.744465 271.898291 
L 260.814807 271.725984 
L 261.520931 269.118481 
L 261.788771 268.8278 
L 262.013324 268.845143 
L 262.232465 269.231716 
L 262.46784 270.124136 
L 263.268655 273.921895 
L 263.309236 273.862107 
L 263.460742 273.13078 
L 263.80704 271.374217 
L 263.912553 270.934802 
L 264.172276 270.1491 
L 264.356247 270.023785 
L 264.540218 269.862537 
L 264.559156 269.875856 
L 264.691724 270.14276 
L 264.921687 271.221472 
L 265.203055 272.641339 
L 265.262575 272.612894 
L 265.405964 272.660231 
L 265.489833 272.692987 
L 265.525004 272.642154 
L 265.671098 272.015206 
L 265.968698 270.190951 
L 266.190545 269.196364 
L 266.27712 269.282587 
L 266.469207 269.979117 
L 266.737047 270.868049 
L 266.793862 270.782099 
L 267.013004 270.007883 
L 267.14016 269.841135 
L 267.175331 269.868191 
L 267.294371 270.074324 
L 267.340364 269.902003 
L 267.537862 267.887776 
L 267.946385 264.778306 
L 268.149295 264.609964 
L 268.176349 264.636864 
L 268.246691 264.687207 
L 268.276451 264.600888 
L 268.682269 263.103607 
L 268.920349 262.867617 
L 268.933876 262.876923 
L 269.055622 263.125655 
L 269.391098 264.296558 
L 269.488495 264.113081 
L 269.9376 262.171352 
L 270.037702 262.343926 
L 270.256844 263.395081 
L 270.356945 263.66544 
L 270.405644 263.58746 
L 270.551738 262.833145 
L 270.849338 261.746621 
L 271.284916 261.418623 
L 271.330909 261.499242 
L 271.495942 262.150063 
L 271.582516 262.590285 
L 271.636625 262.306169 
L 271.939636 260.607271 
L 272.147956 260.234506 
L 272.624116 260.306437 
L 272.975825 261.337972 
L 273.803695 265.389305 
L 273.838865 265.377184 
L 274.079651 265.164682 
L 274.225745 264.456939 
L 274.488175 263.332919 
L 274.631564 263.202123 
L 274.880465 262.844277 
L 275.080669 260.830832 
L 275.705629 255.768373 
L 275.784087 255.892046 
L 276.095215 256.664742 
L 276.138502 256.594918 
L 276.317062 256.330346 
L 276.354938 256.365393 
L 276.503738 256.773858 
L 276.763462 257.565364 
L 276.858153 257.515971 
L 276.96096 257.618332 
L 277.125993 258.252594 
L 277.420887 258.864305 
L 277.450647 258.837858 
L 277.612975 258.715045 
L 277.648145 258.750951 
L 277.79424 259.13106 
L 278.081018 260.496877 
L 278.183825 260.225461 
L 278.424611 258.9204 
L 278.89536 254.879298 
L 279.027927 254.54201 
L 279.063098 254.571123 
L 279.176727 254.936209 
L 279.78816 257.285869 
L 279.961309 257.748994 
L 280.123636 258.547225 
L 280.185862 258.239012 
L 280.223738 257.082069 
L 280.44288 252.909832 
L 280.491578 252.835808 
L 280.545687 252.951138 
L 280.697193 253.960066 
L 281.203113 257.073503 
L 281.222051 257.035081 
L 281.303215 256.230693 
L 281.619753 253.498049 
L 281.730676 253.362337 
L 281.771258 253.400825 
L 281.893004 253.79615 
L 282.975185 259.643221 
L 283.700247 264.319476 
L 284.046545 266.613967 
L 284.271098 267.606758 
L 284.303564 267.571947 
L 284.395549 267.165224 
L 284.823011 264.620866 
L 284.831127 264.62297 
L 284.928524 264.778727 
L 285.117905 265.626708 
L 286.270429 273.16768 
L 286.724945 276.415285 
L 286.760116 276.313336 
L 286.898095 274.886823 
L 287.325556 270.903878 
L 287.431069 269.980999 
L 288.023564 261.886361 
L 288.223767 261.176741 
L 288.456436 261.101304 
L 288.629585 260.601375 
L 288.8352 259.991524 
L 288.856844 260.003491 
L 288.956945 260.242818 
L 289.378996 262.288414 
L 290.009367 265.696811 
L 290.236625 266.926658 
L 290.609978 268.787926 
L 290.802065 268.698375 
L 290.904873 268.151495 
L 291.324218 265.973455 
L 291.627229 264.332271 
L 291.87072 263.504239 
L 291.884247 263.509284 
L 291.984349 263.69831 
L 292.441571 264.813989 
L 292.498385 264.696934 
L 292.622836 263.808212 
L 292.931258 261.940955 
L 293.047593 261.828403 
L 293.085469 261.863903 
L 293.212625 262.246523 
L 293.456116 263.849884 
L 293.926865 266.687569 
L 294.197411 268.321571 
L 295.604247 278.287113 
L 295.877498 279.277918 
L 296.175098 280.148011 
L 296.469993 280.212098 
L 296.95968 279.655503 
L 297.073309 278.214154 
L 297.55488 272.39589 
L 297.573818 272.402258 
L 297.671215 272.599022 
L 298.158196 273.813307 
L 298.334051 274.236405 
L 298.396276 274.073234 
L 298.839971 272.583725 
L 298.850793 272.58711 
L 298.967127 272.756168 
L 299.537978 273.870067 
L 299.6976 274.344407 
L 300.003316 276.105299 
L 300.741905 280.563312 
L 300.758138 280.559111 
L 300.993513 280.354247 
L 301.485905 278.281818 
L 301.834909 276.058295 
L 302.275898 273.765987 
L 302.727709 269.311952 
L 303.009076 265.692342 
L 303.347258 264.720676 
L 303.420305 264.826697 
L 303.717905 265.895405 
L 303.993862 266.612432 
L 304.142662 266.761891 
L 304.185949 266.659435 
L 304.778444 264.6432 
L 304.854196 264.646212 
L 304.883956 264.689918 
L 305.02464 265.188592 
L 305.122036 265.503729 
L 305.178851 265.406869 
L 305.514327 264.13958 
L 305.600902 264.269792 
L 306.193396 265.571444 
L 306.282676 265.656371 
L 306.323258 265.54583 
L 306.75072 264.162435 
L 306.772364 264.174761 
L 306.872465 264.352969 
L 306.921164 264.17032 
L 307.07808 262.801866 
L 307.224175 262.302638 
L 307.25664 262.330819 
L 307.364858 262.710465 
L 307.602938 264.562735 
L 308.187316 269.754464 
L 308.249542 269.747258 
L 308.406458 269.878556 
L 309.483229 272.360369 
L 309.851171 274.824914 
L 309.99456 274.613771 
L 310.075724 274.747824 
L 310.243462 275.162994 
L 310.311098 275.109734 
L 310.630342 274.601317 
L 310.841367 274.190569 
L 310.863011 274.201676 
L 311.174138 274.336714 
L 311.187665 274.317007 
L 311.474444 273.872637 
L 311.536669 273.949982 
L 311.709818 274.505918 
L 311.893789 274.822736 
L 311.907316 274.808168 
L 311.956015 274.449337 
L 312.367244 270.30798 
L 312.388887 270.318807 
L 312.486284 270.55613 
L 312.792 271.917338 
L 312.892102 271.677809 
L 313.224873 270.821009 
L 313.232989 270.82397 
L 313.333091 270.995936 
L 313.776785 272.074093 
L 313.809251 272.054644 
L 313.928291 271.825547 
L 314.247535 271.318452 
L 314.271884 271.335776 
L 314.393629 271.609039 
L 314.629004 272.825349 
L 314.853556 273.497324 
L 315.002356 273.725258 
L 315.124102 274.094 
L 315.178211 273.88091 
L 315.50016 272.64214 
L 315.584029 272.385743 
L 315.892451 270.40531 
L 315.935738 270.447192 
L 316.060189 270.88863 
L 316.30368 272.000716 
L 316.368611 271.895336 
L 316.557993 271.061208 
L 316.89888 269.954706 
L 316.998982 270.036604 
L 317.1072 270.09386 
L 317.139665 270.067268 
L 317.237062 269.780833 
L 317.699695 266.826998 
L 317.788975 266.940012 
L 317.832262 266.969459 
L 317.883665 266.889263 
L 318.02976 266.230338 
L 318.313833 265.350397 
L 318.381469 265.097259 
L 318.873862 262.125948 
L 318.909033 262.144007 
L 319.030778 262.399902 
L 319.239098 263.472152 
L 319.647622 267.016051 
L 319.988509 269.219917 
L 320.402444 272.421562 
L 320.921891 276.080754 
L 320.970589 276.153592 
L 321.03552 276.084693 
L 321.157265 275.720926 
L 321.866095 271.90704 
L 322.263796 271.573324 
L 322.515404 271.019505 
L 322.861702 270.102389 
L 322.953687 270.243107 
L 323.137658 271.024958 
L 323.340567 272.079046 
L 323.400087 271.879785 
L 323.765324 270.085671 
L 323.808611 270.119923 
L 323.900596 270.281438 
L 323.938473 270.113267 
L 324.149498 266.688344 
L 324.484975 262.463251 
L 324.549905 262.394189 
L 324.601309 262.466356 
L 324.787985 263.206006 
L 324.928669 263.767014 
L 324.980073 263.505441 
L 325.356131 260.06164 
L 325.383185 260.081829 
L 325.477876 260.409248 
L 325.70784 262.232022 
L 326.760262 271.539252 
L 326.949644 272.29562 
L 326.990225 272.223413 
L 327.103855 271.509313 
L 327.322996 268.352884 
L 327.682822 264.076627 
L 327.920902 263.374371 
L 327.991244 263.202582 
L 328.383535 261.777507 
L 328.421411 261.80715 
L 328.537745 262.149696 
L 328.778531 263.725564 
L 329.124829 265.34001 
L 329.714618 266.889147 
L 329.728145 266.899197 
L 329.763316 266.782422 
L 329.99328 266.020429 
L 330.02304 266.039759 
L 330.133964 266.332335 
L 330.355811 267.694087 
L 331.167447 273.171564 
L 331.397411 274.090764 
L 331.846516 277.167759 
L 331.979084 277.886263 
L 332.044015 277.842211 
L 332.187404 277.602592 
L 332.744727 275.067758 
L 332.823185 274.801076 
L 333.101847 273.974241 
L 333.204655 274.114804 
L 334.016291 276.39684 
L 334.297658 277.81854 
L 334.589847 278.943134 
L 334.830633 279.115588 
L 334.846865 279.102298 
L 334.952378 278.868382 
L 335.285149 277.71227 
L 335.571927 277.6135 
L 335.761309 277.361019 
L 335.780247 277.371322 
L 335.907404 277.603649 
L 336.191476 278.754012 
L 336.683869 280.513267 
L 336.743389 280.290152 
L 337.898618 273.916017 
L 338.017658 273.774744 
L 338.055535 273.801192 
L 338.188102 274.100347 
L 338.434298 275.342478 
L 338.748131 276.625424 
L 339.075491 278.330849 
L 339.538124 280.664728 
L 339.554356 280.658919 
L 339.935825 280.302212 
L 340.173905 278.939225 
L 340.547258 275.54667 
L 341.082938 272.373084 
L 341.348073 270.22179 
L 341.537455 269.759118 
L 341.564509 269.775285 
L 341.675433 270.046925 
L 341.908102 271.374439 
L 342.779258 275.341527 
L 342.906415 275.369328 
L 342.928058 275.329868 
L 343.398807 274.454104 
L 343.479971 274.336985 
L 343.645004 273.16014 
L 343.785687 270.289025 
L 344.007535 267.740144 
L 344.102225 267.672634 
L 344.142807 267.710229 
L 344.269964 268.084837 
L 344.508044 269.643988 
L 345.087011 275.344922 
L 345.506356 278.533454 
L 345.749847 278.990919 
L 346.507375 281.522484 
L 346.610182 281.408136 
L 347.213498 280.344032 
L 347.375825 278.226345 
L 347.703185 274.979538 
L 347.895273 274.530877 
L 347.906095 274.534222 
L 348.011607 274.701124 
L 348.246982 275.295728 
L 348.333556 275.242957 
L 348.458007 275.311701 
L 348.777251 275.837173 
L 348.834065 275.597812 
L 348.996393 275.117169 
L 349.028858 275.141758 
L 349.142487 275.485603 
L 349.404916 277.17735 
L 349.507724 277.974252 
L 349.556422 277.488307 
L 349.675462 276.943403 
L 349.716044 276.990974 
L 349.840495 277.546636 
L 350.273367 280.777391 
L 350.365353 280.139681 
L 350.798225 277.216531 
L 350.97408 275.656692 
L 351.214865 274.357061 
L 351.285207 274.367295 
L 351.314967 274.412603 
L 351.415069 274.48157 
L 351.452945 274.437563 
L 351.596335 273.943474 
L 352.294342 270.141484 
L 352.570298 269.306532 
L 352.58112 269.310083 
L 352.681222 269.48128 
L 352.873309 270.378747 
L 353.279127 272.679327 
L 353.344058 272.617154 
L 353.519913 272.483425 
L 353.549673 272.512054 
L 353.725527 272.558075 
L 353.836451 272.6842 
L 354.320727 274.008885 
L 354.626444 275.207721 
L 355.205411 277.781648 
L 355.373149 277.942675 
L 355.570647 278.446385 
L 355.635578 278.208562 
L 356.341702 274.398213 
L 356.447215 274.328895 
L 356.485091 274.364766 
L 356.828684 274.647731 
L 357.026182 274.910977 
L 357.077585 274.949306 
L 357.123578 274.859182 
L 357.215564 273.806856 
L 357.956858 264.402055 
L 358.23552 263.654389 
L 358.349149 263.714642 
L 358.589935 264.298028 
L 358.836131 265.806735 
L 359.266298 268.244513 
L 359.482735 268.833495 
L 359.601775 269.178527 
L 359.653178 269.094335 
L 360.094167 267.616617 
L 360.14016 267.648367 
L 360.316015 267.795765 
L 360.353891 267.716301 
L 360.529745 267.411277 
L 360.567622 267.445158 
L 360.692073 267.817072 
L 360.938269 269.424323 
L 361.384669 272.155358 
L 361.436073 272.269556 
L 361.501004 272.160558 
L 361.890589 271.115316 
L 362.31264 268.854329 
L 362.415447 269.016306 
L 362.558836 269.542194 
L 362.629178 269.302504 
L 362.87808 268.535767 
L 362.986298 268.432795 
L 363.283898 267.460684 
L 363.557149 266.243651 
L 363.643724 266.34207 
L 363.954851 267.315901 
L 364.255156 267.935204 
L 364.387724 268.019155 
L 364.431011 267.944017 
L 364.644742 267.191568 
L 364.872 266.613661 
L 364.882822 266.617799 
L 364.982924 266.795157 
L 365.469905 268.598369 
L 365.694458 269.392151 
L 365.748567 269.255632 
L 366.048873 268.182284 
L 366.09216 268.215482 
L 366.219316 268.574555 
L 366.552087 269.499062 
L 366.698182 269.435764 
L 366.744175 269.242769 
L 366.979549 268.406595 
L 366.993076 268.412184 
L 367.090473 268.6052 
L 367.287971 269.629541 
L 367.826356 272.526684 
L 368.334982 275.944356 
L 368.648815 278.145142 
L 368.700218 277.959602 
L 368.911244 275.901736 
L 369.170967 274.2027 
L 369.406342 273.681244 
L 369.804044 271.218747 
L 370.039418 270.27234 
L 370.131404 270.364972 
L 370.293731 270.990309 
L 370.445236 271.20121 
L 370.569687 271.307762 
L 370.761775 271.543703 
L 370.791535 271.439477 
L 371.018793 270.454309 
L 371.070196 270.513938 
L 371.202764 271.064994 
L 371.470604 272.925033 
L 371.535535 272.392048 
L 371.784436 270.843773 
L 372.092858 270.386693 
L 372.382342 270.211801 
L 372.742167 268.872836 
L 372.84768 269.047136 
L 374.874065 274.752455 
L 374.93088 274.56862 
L 375.163549 272.674566 
L 375.766865 267.669527 
L 375.864262 267.551005 
L 375.907549 267.595563 
L 376.326895 268.521829 
L 377.01408 272.51654 
L 377.411782 274.818758 
L 377.590342 275.062072 
L 377.601164 275.058122 
L 377.790545 274.860706 
L 378.02592 274.052712 
L 378.188247 273.766646 
L 378.212596 273.780437 
L 378.337047 274.035188 
L 378.415505 274.213371 
L 378.485847 274.126971 
L 378.59136 273.652419 
L 378.989062 271.033217 
L 379.189265 270.547501 
L 379.208204 270.556493 
L 379.316422 270.775739 
L 379.527447 271.832616 
L 379.768233 272.849702 
L 379.792582 272.836382 
L 380.068538 272.571473 
L 380.125353 272.659814 
L 380.885585 274.218838 
L 380.939695 274.127259 
L 381.123665 273.867759 
L 381.153425 273.890599 
L 381.429382 274.366564 
L 381.605236 274.427644 
L 381.875782 274.184313 
L 381.986705 273.22991 
L 382.268073 271.361964 
L 382.333004 271.355368 
L 382.37088 271.409946 
L 382.51968 271.950207 
L 382.944436 273.966882 
L 383.003956 273.845076 
L 383.252858 273.410765 
L 383.38272 273.47254 
L 383.534225 273.928406 
L 384.261993 277.573773 
L 384.914007 281.163438 
L 385.111505 281.674355 
L 385.122327 281.670532 
L 385.547084 281.307355 
L 385.679651 280.907523 
L 386.126051 278.360935 
L 386.393891 278.065264 
L 386.980975 275.808138 
L 387.040495 275.859261 
L 387.175767 276.079732 
L 387.229876 275.943092 
L 387.438196 274.505862 
L 387.992815 269.62982 
L 388.409455 265.953286 
L 388.685411 265.041767 
L 388.926196 264.912857 
L 388.950545 264.946283 
L 389.088524 265.388996 
L 389.345542 267.130638 
L 390.065193 273.580818 
L 390.181527 273.262342 
L 390.384436 272.835505 
L 390.40608 272.846075 
L 390.519709 272.789146 
L 390.67392 272.707391 
L 390.698269 272.732002 
L 390.847069 272.741787 
L 391.012102 272.750896 
L 391.312407 273.069541 
L 391.350284 273.000197 
L 391.564015 272.646997 
L 391.599185 272.675382 
L 391.729047 273.004295 
L 392.410822 275.15099 
L 392.467636 275.114302 
L 392.48928 275.072506 
L 392.914036 274.378754 
L 393.006022 274.225844 
L 393.219753 273.858405 
L 393.246807 273.876449 
L 393.371258 274.149669 
L 393.612044 275.345349 
L 394.264058 278.731055 
L 394.293818 278.765651 
L 394.347927 278.652104 
L 394.607651 277.458625 
L 395.035113 274.737159 
L 395.508567 273.422935 
L 395.654662 273.273843 
L 395.819695 273.071242 
L 395.849455 273.093598 
L 395.979316 273.218629 
L 396.009076 273.105542 
L 396.496058 270.724729 
L 396.845062 268.133385 
L 397.177833 265.434058 
L 397.237353 265.412159 
L 397.28064 265.474431 
L 397.421324 266.042656 
L 397.883956 268.13174 
L 397.897484 268.124676 
L 397.967825 267.914266 
L 398.276247 266.930762 
L 398.403404 266.678032 
L 398.487273 266.061977 
L 398.487273 266.061977 
" clip-path="url(#pafa5f5d417)" style="fill: none; stroke: #000000; stroke-width: 1.5; stroke-linecap: square"/>
   </g>
   <g id="line2d_17">
    <path d="M 73.832727 280.9728 
L 74.041047 284.533572 
L 74.287244 285.604698 
L 74.546967 286.010622 
L 74.839156 286.163623 
L 75.131345 286.097918 
L 75.288262 285.934024 
L 75.556102 285.300534 
L 75.940276 284.71722 
L 76.7952 279.369145 
L 77.100916 276.668538 
L 77.165847 276.633748 
L 77.21184 276.693579 
L 77.403927 277.328207 
L 77.474269 277.374449 
L 77.522967 277.326105 
L 77.663651 276.861527 
L 78.009949 275.44186 
L 78.039709 275.459418 
L 78.156044 275.728101 
L 78.388713 276.962613 
L 78.808058 279.037621 
L 78.905455 278.954721 
L 79.094836 278.811232 
L 79.11648 278.828865 
L 79.254458 279.124735 
L 79.511476 280.327964 
L 80.314996 285.671133 
L 80.628829 287.213237 
L 80.664 287.168704 
L 80.883142 286.443376 
L 81.316015 284.738749 
L 81.443171 284.791076 
L 81.578444 284.996389 
L 81.621731 284.859742 
L 81.786764 283.39148 
L 82.130356 278.873523 
L 82.444189 274.973797 
L 82.641687 274.328987 
L 82.647098 274.330286 
L 82.831069 274.285252 
L 82.987985 273.65813 
L 83.40192 271.605937 
L 83.412742 271.60915 
L 83.507433 271.778707 
L 83.694109 272.702682 
L 84.159447 275.161967 
L 84.178385 275.152113 
L 84.624785 274.604881 
L 84.868276 273.90008 
L 84.906153 273.928871 
L 85.022487 274.031116 
L 85.065775 273.956353 
L 85.18752 273.340112 
L 85.439127 272.525922 
L 85.636625 272.230817 
L 85.755665 272.175696 
L 85.785425 272.20526 
L 85.920698 272.564973 
L 86.172305 274.014775 
L 86.570007 276.081753 
L 86.881135 275.964716 
L 87.314007 275.002914 
L 87.403287 275.116958 
L 87.470924 275.179398 
L 87.525033 275.108133 
L 87.838865 274.330317 
L 88.087767 273.537672 
L 88.198691 273.543439 
L 88.217629 273.567326 
L 88.366429 273.977045 
L 88.63968 275.528807 
L 88.756015 276.268726 
L 88.815535 276.005116 
L 89.037382 274.991001 
L 89.064436 275.007991 
L 89.167244 275.297157 
L 89.656931 277.300608 
L 89.729978 277.235083 
L 90.165556 276.495873 
L 90.441513 275.708589 
L 90.555142 275.378995 
L 91.19904 271.888603 
L 91.236916 271.908388 
L 91.364073 272.171763 
L 91.591331 273.286869 
L 92.010676 275.600632 
L 92.045847 275.464862 
L 92.362385 273.505799 
L 92.427316 273.585926 
L 92.578822 274.211996 
L 92.887244 275.791382 
L 92.946764 275.662479 
L 93.082036 274.76442 
L 94.158807 263.388396 
L 94.185862 263.40442 
L 94.285964 263.679941 
L 94.496989 265.068554 
L 94.994793 270.199075 
L 95.240989 271.724507 
L 95.324858 271.619109 
L 95.544 271.391103 
L 95.668451 271.099926 
L 95.81184 270.920221 
L 95.847011 270.948093 
L 95.971462 271.277266 
L 96.212247 272.69492 
L 96.672175 275.239253 
L 97.267375 278.57078 
L 97.784116 280.814321 
L 98.317091 282.221796 
L 98.630924 282.775349 
L 98.855476 283.218506 
L 99.447971 284.730488 
L 99.485847 284.638248 
L 99.791564 283.409425 
L 99.853789 283.464181 
L 100.026938 283.921067 
L 100.078342 284.038944 
L 100.12704 283.878955 
L 100.381353 281.834222 
L 100.754705 279.20657 
L 100.889978 279.075586 
L 100.917033 279.093366 
L 101.025251 279.177643 
L 101.057716 279.084266 
L 101.563636 276.904387 
L 101.661033 277.035302 
L 101.85312 277.774729 
L 102.126371 278.912289 
L 102.18048 278.878118 
L 102.32928 278.904415 
L 102.497018 279.215359 
L 102.561949 279.034921 
L 102.791913 277.667654 
L 103.289716 275.723906 
L 103.292422 275.72458 
L 103.435811 275.657933 
L 103.606255 275.405701 
L 103.636015 275.426924 
L 103.763171 275.72778 
L 103.968785 276.05685 
L 104.090531 275.951198 
L 104.231215 275.901705 
L 104.252858 275.923526 
L 104.753367 276.372862 
L 104.756073 276.37058 
L 104.929222 276.049231 
L 105.083433 275.485307 
L 105.289047 273.718249 
L 105.656989 270.550755 
L 105.719215 270.545155 
L 105.757091 270.599705 
L 106.07904 271.161371 
L 106.149382 271.074743 
L 106.260305 271.031816 
L 106.292771 271.069432 
L 106.428044 271.484071 
L 106.687767 273.163826 
L 107.561629 279.2545 
L 107.853818 280.045018 
L 107.948509 280.189041 
L 108.005324 280.147823 
L 108.235287 280.087365 
L 108.389498 280.021891 
L 108.808844 279.287571 
L 108.938705 279.387981 
L 109.130793 279.909865 
L 109.498735 281.699254 
L 109.585309 282.095204 
L 109.644829 281.913519 
L 110.161571 279.917254 
L 110.202153 279.941553 
L 110.294138 279.872946 
L 110.475404 279.821692 
L 110.713484 280.002717 
L 110.927215 280.635216 
L 111.000262 280.771483 
L 111.043549 280.643994 
L 111.67392 277.898624 
L 111.782138 277.969411 
L 111.949876 278.475932 
L 112.296175 280.391346 
L 112.761513 282.659437 
L 112.872436 282.766652 
L 112.915724 282.697758 
L 113.31072 281.848108 
L 113.362124 281.88844 
L 113.546095 282.271067 
L 113.600204 282.31718 
L 113.643491 282.223458 
L 113.897804 280.937668 
L 114.168349 280.025981 
L 114.422662 279.841689 
L 114.436189 279.853248 
L 114.584989 280.15055 
L 114.860945 281.315969 
L 114.988102 281.837203 
L 115.034095 281.649079 
L 115.282996 279.262617 
L 115.707753 276.181005 
L 116.411171 272.349777 
L 116.462575 272.234118 
L 116.708771 270.048911 
L 117.098356 268.621053 
L 117.241745 268.497467 
L 117.282327 268.547255 
L 117.4176 269.013874 
L 117.68544 270.914147 
L 118.391564 276.206004 
L 118.405091 276.202259 
L 118.735156 276.162533 
L 118.889367 276.206916 
L 119.0544 276.404351 
L 119.295185 276.948318 
L 119.592785 278.357453 
L 119.782167 278.789053 
L 120.196102 279.259497 
L 120.3936 279.714582 
L 120.726371 280.395553 
L 120.766953 280.327807 
L 120.775069 280.29543 
L 121.492015 276.79384 
L 122.114269 270.376723 
L 122.341527 269.532459 
L 122.449745 269.627437 
L 122.511971 269.683635 
L 122.552553 269.586183 
L 122.83392 268.752045 
L 122.877207 268.789136 
L 123.031418 269.206452 
L 123.629324 271.514548 
L 123.889047 272.61961 
L 124.02432 272.982466 
L 124.086545 272.817805 
L 124.568116 271.388377 
L 124.76832 271.147289 
L 125.120029 270.145593 
L 125.141673 270.157941 
L 125.252596 270.399916 
L 125.655709 272.19278 
L 126.042589 273.657626 
L 126.134575 273.55481 
L 126.67296 272.628277 
L 126.710836 272.656835 
L 126.756829 272.663461 
L 126.800116 272.592909 
L 126.919156 272.098008 
L 127.262749 269.154131 
L 127.281687 269.16306 
L 127.373673 269.390753 
L 127.579287 270.655065 
L 128.050036 274.264158 
L 128.133905 274.147838 
L 128.288116 273.503584 
L 128.664175 270.659157 
L 128.940131 269.005727 
L 129.418996 267.720762 
L 129.4704 267.770825 
L 129.608378 268.207412 
L 129.889745 270.029939 
L 130.068305 270.40415 
L 130.233338 270.812943 
L 130.612102 272.320581 
L 130.674327 272.047099 
L 131.220829 268.717433 
L 131.307404 268.544358 
L 131.594182 267.820086 
L 131.640175 267.859489 
L 132.213731 268.496812 
L 132.367942 268.358915 
L 132.551913 268.010359 
L 132.762938 267.342456 
L 132.779171 267.349888 
L 132.8928 267.570232 
L 133.149818 268.510673 
L 133.590807 271.30835 
L 134.11296 275.150032 
L 134.599942 278.323224 
L 134.943535 279.900082 
L 135.086924 280.16083 
L 135.108567 280.151931 
L 135.238429 279.928416 
L 135.465687 279.699731 
L 135.468393 279.701106 
L 135.606371 279.900443 
L 136.025716 280.88282 
L 136.098764 280.767075 
L 136.19616 280.241755 
L 136.415302 277.017287 
L 136.886051 271.730365 
L 137.570531 268.022582 
L 137.6544 267.945486 
L 137.700393 267.996969 
L 137.838371 268.476408 
L 138.000698 269.14947 
L 138.068335 269.059981 
L 138.214429 268.883053 
L 138.255011 268.9256 
L 138.384873 269.343935 
L 138.647302 271.110395 
L 139.437295 276.725463 
L 139.642909 277.637045 
L 139.680785 277.549006 
L 139.834996 276.344124 
L 140.200233 274.008792 
L 140.386909 273.141659 
L 140.768378 271.182686 
L 140.817076 271.224641 
L 140.952349 271.633133 
L 141.2256 273.329311 
L 141.788335 276.762942 
L 142.194153 277.219653 
L 142.443055 277.200409 
L 142.610793 277.566708 
L 142.656785 277.348592 
L 142.859695 274.695729 
L 143.13024 272.722898 
L 143.205993 272.671777 
L 143.251985 272.724493 
L 143.395375 273.206268 
L 143.72544 274.23747 
L 143.798487 274.407243 
L 143.860713 274.307565 
L 144.074444 273.599114 
L 144.669644 269.211802 
L 144.739985 269.316823 
L 145.446109 270.95119 
L 145.60032 271.014639 
L 146.035898 271.785746 
L 146.590516 273.779338 
L 147.026095 277.004276 
L 147.128902 276.50032 
L 147.41568 275.725582 
L 147.559069 275.544002 
L 147.588829 275.564448 
L 148.173207 276.290734 
L 148.568204 277.450339 
L 148.60608 277.335084 
L 148.944262 275.060465 
L 149.049775 275.248453 
L 149.209396 275.575821 
L 149.247273 275.501641 
L 149.336553 274.585223 
L 150.002095 266.258036 
L 150.226647 265.474125 
L 150.378153 265.084093 
L 150.648698 264.363955 
L 150.662225 264.369499 
L 150.765033 264.557167 
L 151.173556 266.158955 
L 151.668655 267.846201 
L 151.717353 267.855604 
L 151.752524 267.781635 
L 151.90944 266.976303 
L 152.282793 264.955338 
L 152.293615 264.958243 
L 152.391011 265.123921 
L 152.588509 266.04181 
L 153.026793 267.757258 
L 153.686924 270.054329 
L 153.911476 271.393229 
L 153.995345 271.166652 
L 154.079215 271.063227 
L 154.127913 271.125976 
L 154.284829 271.747017 
L 154.476916 272.062255 
L 154.568902 271.981012 
L 154.733935 271.847119 
L 154.760989 271.870381 
L 154.893556 272.187278 
L 155.375127 273.619466 
L 155.396771 273.596282 
L 155.502284 273.195321 
L 155.764713 272.403948 
L 156.119127 272.0732 
L 156.243578 272.073993 
L 156.259811 272.093905 
L 156.4032 272.315244 
L 156.454604 272.190884 
L 156.565527 271.143823 
L 157.120145 265.133585 
L 157.41504 263.974902 
L 157.420451 263.976222 
L 157.525964 264.130168 
L 157.750516 264.739079 
L 157.818153 265.019426 
L 157.877673 264.803105 
L 158.002124 264.486442 
L 158.045411 264.534713 
L 158.164451 265.030911 
L 158.440407 267.375894 
L 158.683898 268.72019 
L 158.924684 269.598127 
L 159.011258 269.445833 
L 159.127593 268.920501 
L 159.371084 268.156183 
L 159.514473 268.163489 
L 159.519884 268.170121 
L 160.098851 269.101154 
L 160.345047 270.42787 
L 160.92672 274.311138 
L 161.007884 274.221694 
L 161.540858 273.459231 
L 161.589556 273.512095 
L 162.006196 274.257124 
L 162.092771 274.083108 
L 162.279447 273.323223 
L 162.47424 272.867363 
L 162.485062 272.871027 
L 162.590575 273.042803 
L 162.817833 273.982632 
L 163.066735 274.458 
L 163.223651 274.572087 
L 163.272349 274.439877 
L 163.477964 274.181965 
L 163.610531 274.015778 
L 163.889193 272.10431 
L 164.203025 268.761033 
L 164.506036 264.639101 
L 165.542225 261.148435 
L 166.061673 258.901345 
L 166.145542 259.028346 
L 166.453964 259.950428 
L 166.543244 259.81352 
L 166.719098 259.606191 
L 166.748858 259.631012 
L 166.854371 259.77519 
L 166.867898 259.613444 
L 167.1168 257.282091 
L 167.357585 257.087793 
L 167.509091 257.05151 
L 167.525324 257.068974 
L 167.560495 257.080662 
L 167.609193 256.997007 
L 167.963607 256.468542 
L 168.012305 256.116082 
L 168.201687 252.443616 
L 168.477644 248.806557 
L 168.558807 248.666805 
L 168.615622 248.707324 
L 168.7536 248.875716 
L 169.029556 249.610467 
L 169.424553 250.860937 
L 169.619345 251.318696 
L 170.03328 253.232038 
L 170.536495 257.952508 
L 170.882793 259.999425 
L 171.307549 260.979951 
L 171.651142 262.250395 
L 172.130007 264.927863 
L 172.181411 264.83139 
L 172.335622 263.920724 
L 172.703564 261.969818 
L 172.844247 261.753043 
L 172.876713 261.776664 
L 172.995753 262.081461 
L 173.223011 263.413445 
L 174.013004 268.518222 
L 174.159098 268.526511 
L 174.413411 268.41675 
L 174.621731 268.087323 
L 174.665018 268.119391 
L 174.729949 268.150408 
L 174.767825 268.072579 
L 175.0032 267.579413 
L 175.046487 267.616629 
L 175.179055 267.992225 
L 175.517236 269.667923 
L 175.609222 269.320656 
L 175.944698 268.181801 
L 176.047505 268.322762 
L 176.510138 269.209242 
L 176.656233 269.424753 
L 176.69952 269.383667 
L 176.970065 268.806672 
L 177.224378 267.081117 
L 177.246022 267.093465 
L 177.338007 267.355148 
L 177.630196 269.159568 
L 178.141527 271.9658 
L 178.18752 272.117118 
L 178.236218 271.87728 
L 178.504058 270.46561 
L 178.520291 270.472591 
L 178.617687 270.685456 
L 178.796247 271.355988 
L 178.861178 271.149048 
L 179.448262 268.465528 
L 179.483433 268.48744 
L 179.605178 268.781875 
L 179.818909 269.534704 
L 179.886545 269.416206 
L 180.276131 268.112563 
L 180.681949 266.269494 
L 181.030953 266.127328 
L 181.350196 265.905476 
L 181.46112 265.842786 
L 181.496291 265.878392 
L 181.631564 266.265381 
L 181.839884 267.068754 
L 181.918342 267.004948 
L 182.042793 266.995249 
L 182.061731 267.019031 
L 182.278167 267.419725 
L 182.340393 267.239456 
L 182.77056 265.271571 
L 182.846313 265.370581 
L 183.005935 266.03863 
L 183.114153 266.374997 
L 183.162851 266.292903 
L 183.279185 265.554922 
L 183.706647 262.897083 
L 183.860858 262.608535 
L 183.887913 262.624022 
L 184.023185 262.766416 
L 184.08 262.654227 
L 184.2288 261.919032 
L 184.905164 257.773763 
L 184.986327 257.732824 
L 185.029615 257.783815 
L 185.308276 258.399937 
L 185.416495 258.246692 
L 185.787142 257.2863 
L 186.455389 251.015176 
L 186.495971 251.043272 
L 186.620422 251.380394 
L 186.874735 252.874329 
L 187.064116 253.345664 
L 187.129047 253.490446 
L 187.161513 253.298031 
L 187.41312 251.878832 
L 187.429353 251.885821 
L 187.537571 251.904882 
L 187.556509 251.851489 
L 187.607913 250.851927 
L 188.048902 240.861967 
L 188.092189 240.889979 
L 188.116538 240.94938 
L 188.254516 241.729289 
L 188.571055 244.569713 
L 188.700916 244.354882 
L 188.779375 244.433695 
L 188.78208 244.440484 
L 188.922764 245.11711 
L 189.179782 246.054779 
L 189.831796 248.45352 
L 189.864262 248.459022 
L 189.904844 248.378098 
L 190.021178 247.688445 
L 190.3296 246.029636 
L 190.481105 246.006253 
L 190.592029 245.916584 
L 190.824698 245.482608 
L 190.870691 245.527227 
L 191.005964 245.943075 
L 191.422604 248.337436 
L 191.568698 248.961103 
L 191.614691 248.851616 
L 191.839244 247.573864 
L 192.575127 241.014651 
L 192.737455 239.510031 
L 193.040465 237.156861 
L 193.205498 236.904379 
L 193.229847 236.918854 
L 193.611316 237.290872 
L 193.660015 237.162625 
L 193.865629 235.580651 
L 194.244393 233.651614 
L 194.330967 233.613785 
L 194.368844 233.656254 
L 194.509527 234.085992 
L 194.717847 234.974132 
L 194.790895 234.84468 
L 195.037091 234.448599 
L 195.056029 234.45941 
L 195.204829 234.630014 
L 195.258938 234.481194 
L 195.383389 233.515068 
L 195.559244 229.223679 
L 196.143622 209.072889 
L 196.278895 195.966591 
L 196.324887 165.785266 
L 196.357353 87.741539 
L 196.424989 184.569855 
L 196.600844 246.259124 
L 196.692829 248.582826 
L 196.738822 248.413307 
L 197.0256 245.733086 
L 197.44224 243.222422 
L 197.696553 242.771008 
L 197.872407 242.884503 
L 198.105076 243.024208 
L 198.329629 242.804312 
L 198.700276 238.815858 
L 198.98976 236.737087 
L 199.246778 236.367352 
L 199.373935 236.286503 
L 199.563316 236.126676 
L 199.587665 236.147428 
L 199.804102 236.550674 
L 200.26944 237.938893 
L 200.38848 237.806185 
L 200.65632 237.273163 
L 200.888989 236.813224 
L 200.897105 236.816278 
L 201.045905 236.913849 
L 201.083782 236.792423 
L 201.543709 234.367608 
L 201.754735 233.634378 
L 201.765556 233.638388 
L 201.930589 233.70717 
L 201.963055 233.636139 
L 202.065862 233.051458 
L 202.406749 229.532014 
L 202.536611 229.244728 
L 202.574487 229.279294 
L 202.690822 229.673143 
L 202.899142 230.101301 
L 203.175098 230.309618 
L 203.212975 230.245938 
L 203.369891 229.605872 
L 203.564684 227.286561 
L 203.932625 224.041174 
L 204.722618 219.293723 
L 204.906589 214.936086 
L 205.071622 205.513728 
L 205.147375 187.105258 
L 205.196073 82.593749 
L 205.266415 179.960297 
L 205.431447 243.174552 
L 205.591069 249.189718 
L 205.631651 249.288769 
L 205.688465 249.122921 
L 205.959011 247.084522 
L 206.175447 246.439722 
L 206.178153 246.440259 
L 206.294487 246.586968 
L 206.524451 247.044127 
L 206.586676 246.910877 
L 206.843695 246.19755 
L 206.889687 246.240428 
L 207.014138 246.65272 
L 207.249513 248.375776 
L 207.511942 249.845065 
L 207.520058 249.842609 
L 207.64992 249.658869 
L 207.774371 249.595465 
L 207.804131 249.626247 
L 207.933993 249.995487 
L 208.307345 252.089649 
L 208.675287 254.077896 
L 208.732102 253.97253 
L 208.943127 253.484178 
L 208.983709 253.523399 
L 209.110865 253.933079 
L 209.378705 255.724329 
L 209.6736 257.166849 
L 209.687127 257.158825 
L 209.770996 256.916044 
L 209.873804 255.836604 
L 210.363491 249.986716 
L 210.371607 249.988241 
L 210.450065 250.139119 
L 210.615098 251.090515 
L 210.928931 252.665261 
L 211.020916 252.861715 
L 211.069615 252.747872 
L 211.261702 252.194802 
L 211.3104 252.251127 
L 211.448378 252.50679 
L 211.516015 252.397711 
L 211.718924 252.23474 
L 211.729745 252.24238 
L 211.837964 252.480481 
L 211.929949 252.767129 
L 211.992175 252.632092 
L 212.208611 252.293847 
L 212.257309 252.123564 
L 212.416931 250.36902 
L 213.15552 239.752365 
L 213.445004 238.410781 
L 213.526167 238.513606 
L 213.677673 239.206176 
L 213.980684 241.849866 
L 214.391913 245.036532 
L 214.437905 244.946577 
L 214.440611 244.936308 
L 214.811258 243.031071 
L 215.206255 239.175018 
L 215.812276 229.543465 
L 216.090938 228.464969 
L 216.19104 228.535235 
L 216.345251 229.058515 
L 217.365207 233.400868 
L 217.641164 233.719672 
L 218.147084 234.764494 
L 218.160611 234.724412 
L 218.509615 232.419468 
L 218.853207 229.997217 
L 219.556625 225.894073 
L 219.727069 225.478059 
L 220.067956 224.654923 
L 220.203229 224.690997 
L 220.449425 225.009764 
L 220.500829 224.913115 
L 220.663156 224.067489 
L 221.117673 220.261066 
L 221.36928 216.830342 
L 221.596538 209.644779 
L 221.729105 197.91847 
L 221.780509 168.773437 
L 221.81568 85.306532 
L 221.883316 179.641916 
L 222.048349 240.113151 
L 222.20256 244.924902 
L 222.313484 245.086917 
L 222.35136 245.063479 
L 222.543447 244.733038 
L 222.670604 244.093432 
L 223.236044 239.106046 
L 223.306385 239.121462 
L 223.447069 239.281257 
L 223.60128 239.931687 
L 223.906996 241.118088 
L 224.072029 241.593352 
L 224.442676 243.276999 
L 224.545484 243.168436 
L 224.786269 242.968956 
L 224.894487 243.1355 
L 225.064931 243.941694 
L 225.373353 246.709429 
L 226.017251 252.309529 
L 226.090298 252.523306 
L 226.144407 252.386137 
L 226.439302 250.543741 
L 226.828887 247.559425 
L 226.842415 247.564371 
L 226.942516 247.75848 
L 227.286109 248.428384 
L 227.332102 248.40243 
L 227.613469 248.128311 
L 227.727098 248.024746 
L 227.76768 248.064613 
L 227.894836 248.456777 
L 228.100451 249.569801 
L 228.176204 249.243777 
L 228.449455 248.185935 
L 228.674007 247.553118 
L 229.466705 240.563346 
L 229.79136 238.747054 
L 230.026735 236.374929 
L 230.262109 235.721983 
L 230.272931 235.726167 
L 230.373033 235.907288 
L 230.608407 236.97364 
L 230.805905 237.863663 
L 230.868131 237.707777 
L 231.287476 235.837977 
L 231.568844 234.097157 
L 231.96384 231.156409 
L 232.128873 230.796399 
L 232.150516 230.808198 
L 232.258735 231.044361 
L 232.307433 231.169415 
L 232.361542 231.017838 
L 232.897222 228.163132 
L 233.86848 218.854803 
L 234.28512 204.542234 
L 234.385222 190.224139 
L 234.423098 137.534055 
L 234.447447 86.624353 
L 234.520495 186.185449 
L 234.707171 244.900624 
L 234.812684 246.879929 
L 234.85056 246.799556 
L 235.613498 238.566628 
L 235.719011 238.621661 
L 236.003084 239.030281 
L 236.208698 240.183648 
L 236.568524 243.712144 
L 237.696698 255.511331 
L 238.102516 257.677287 
L 238.340596 258.609091 
L 238.402822 258.532363 
L 238.738298 257.681222 
L 238.962851 257.172751 
L 239.068364 257.159026 
L 239.095418 257.194756 
L 239.227985 257.632013 
L 240.4752 264.292472 
L 241.151564 267.631549 
L 241.332829 267.901704 
L 241.48704 268.230949 
L 241.708887 269.372811 
L 242.203985 271.937442 
L 242.590865 272.620197 
L 242.842473 273.779298 
L 243.140073 274.876412 
L 243.280756 274.865357 
L 243.288873 274.820703 
L 243.410618 272.743418 
L 243.656815 270.604695 
L 243.727156 270.546935 
L 243.775855 270.607921 
L 243.919244 271.141763 
L 244.722764 275.383748 
L 244.830982 275.299566 
L 245.201629 275.150449 
L 245.412655 275.153677 
L 245.426182 275.094265 
L 245.648029 273.502165 
L 245.902342 268.807195 
L 246.170182 267.006887 
L 246.224291 267.010025 
L 246.259462 267.067258 
L 246.438022 267.736402 
L 246.69504 268.227935 
L 246.979113 268.518614 
L 247.219898 268.319488 
L 247.401164 266.620573 
L 247.644655 265.408678 
L 247.785338 265.360325 
L 247.804276 265.378155 
L 247.942255 265.69995 
L 248.737658 268.814812 
L 249.324742 271.595423 
L 249.49248 271.951813 
L 249.530356 271.904685 
L 249.857716 270.969071 
L 250.23648 269.390165 
L 250.401513 268.997668 
L 250.65312 266.562847 
L 251.034589 264.540668 
L 251.180684 263.989989 
L 251.451229 262.480796 
L 251.710953 262.075988 
L 251.721775 262.081375 
L 251.832698 262.278817 
L 252.28992 263.972694 
L 252.471185 264.855288 
L 252.522589 264.811361 
L 252.91488 264.195029 
L 253.006865 264.334417 
L 253.079913 264.408958 
L 253.125905 264.330037 
L 253.272 263.63009 
L 253.821207 259.709804 
L 253.853673 259.72886 
L 253.964596 260.009407 
L 254.051171 260.420879 
L 254.086342 260.076713 
L 254.22432 259.312072 
L 254.256785 259.349609 
L 254.365004 259.838849 
L 254.676131 261.150608 
L 254.838458 261.748712 
L 255.119825 263.844049 
L 255.679855 267.957045 
L 255.834065 268.336082 
L 255.912524 268.589873 
L 255.966633 268.423905 
L 256.120844 267.941764 
L 256.166836 267.994649 
L 256.293993 268.528767 
L 256.799913 271.27226 
L 256.851316 271.159428 
L 257.481687 269.164229 
L 257.625076 268.854395 
L 257.754938 268.21062 
L 258.022778 266.765761 
L 258.09312 266.776832 
L 258.12288 266.823543 
L 258.252742 267.232387 
L 258.296029 266.945345 
L 258.563869 265.12958 
L 258.582807 265.136357 
L 258.6288 265.000257 
L 258.766778 264.678877 
L 258.80736 264.718248 
L 258.937222 265.166318 
L 259.405265 267.476437 
L 259.689338 268.802783 
L 260.081629 269.908507 
L 260.74176 271.722581 
L 260.80128 271.60812 
L 261.780655 268.439997 
L 262.002502 268.354488 
L 262.175651 268.580028 
L 262.389382 269.196001 
L 262.692393 270.906271 
L 263.179375 273.527849 
L 263.290298 273.600028 
L 263.325469 273.535384 
L 263.474269 272.836605 
L 263.801629 271.282061 
L 263.893615 270.943739 
L 264.174982 270.060137 
L 264.353542 269.931634 
L 264.542924 269.752943 
L 264.564567 269.76791 
L 264.697135 270.035804 
L 264.929804 271.129579 
L 265.200349 272.487535 
L 265.259869 272.457797 
L 265.405964 272.497112 
L 265.489833 272.525968 
L 265.525004 272.473463 
L 265.673804 271.826394 
L 265.965993 270.017783 
L 266.190545 268.977374 
L 266.279825 269.061088 
L 266.474618 269.75613 
L 266.728931 270.601537 
L 266.785745 270.497228 
L 267.161804 269.271002 
L 267.267316 269.425076 
L 267.291665 269.433496 
L 267.326836 269.324879 
L 267.470225 267.939714 
L 267.919331 264.106461 
L 268.143884 263.885943 
L 268.157411 263.895461 
L 268.249396 263.96222 
L 268.279156 263.865156 
L 268.65792 262.424365 
L 268.931171 262.158449 
L 268.963636 262.193874 
L 269.101615 262.589394 
L 269.43168 263.803318 
L 269.474967 263.71553 
L 269.696815 262.602103 
L 269.934895 261.806729 
L 269.943011 261.809139 
L 270.034996 261.969956 
L 270.35424 263.167758 
L 270.448931 262.882656 
L 270.91968 261.021246 
L 271.24704 260.745763 
L 271.271389 260.772424 
L 271.403956 261.145324 
L 271.585222 262.074675 
L 271.647447 261.712191 
L 271.923404 260.223204 
L 272.153367 259.776475 
L 272.629527 259.820624 
L 272.981236 260.742053 
L 273.800989 264.639291 
L 273.844276 264.623411 
L 274.079651 264.410341 
L 274.225745 263.70527 
L 274.488175 262.585259 
L 274.631564 262.45641 
L 274.880465 262.10405 
L 275.094196 260.016919 
L 275.708335 255.193111 
L 275.7408 255.218207 
L 275.851724 255.567551 
L 276.062749 256.035436 
L 276.100625 256.057964 
L 276.146618 255.969199 
L 276.319767 255.712546 
L 276.354938 255.743108 
L 276.501033 256.129762 
L 276.760756 256.91175 
L 276.855447 256.856479 
L 276.958255 256.946079 
L 277.10976 257.516307 
L 277.312669 257.902298 
L 277.420887 258.17484 
L 277.488524 258.088689 
L 277.610269 258.017688 
L 277.642735 258.047136 
L 277.783418 258.386547 
L 278.081018 259.782708 
L 278.191942 259.48039 
L 278.424611 258.199581 
L 278.908887 254.003117 
L 279.038749 253.680339 
L 279.076625 253.713147 
L 279.19296 254.106649 
L 279.7584 256.403135 
L 279.969425 256.95715 
L 280.123636 257.723599 
L 280.185862 257.419367 
L 280.223738 256.269729 
L 280.44288 252.115259 
L 280.491578 252.039475 
L 280.545687 252.151923 
L 280.694487 253.131195 
L 281.203113 256.253595 
L 281.219345 256.22542 
L 281.292393 255.555369 
L 281.630575 252.648382 
L 281.736087 252.534605 
L 281.776669 252.575916 
L 281.90112 252.991507 
L 282.488204 255.365701 
L 282.699229 256.551759 
L 284.143942 266.398028 
L 284.273804 266.837977 
L 284.325207 266.763895 
L 284.414487 266.261615 
L 284.798662 263.906659 
L 284.893353 263.981505 
L 285.050269 264.549632 
L 285.361396 266.696104 
L 285.629236 267.994415 
L 285.921425 269.794624 
L 286.724945 275.939329 
L 286.792582 275.605764 
L 287.468945 268.872623 
L 287.926167 262.446764 
L 288.185891 260.776552 
L 288.318458 260.818221 
L 288.432087 260.730934 
L 288.634996 260.159153 
L 288.8352 259.573159 
L 288.856844 259.584449 
L 288.956945 259.820519 
L 289.360058 261.780689 
L 290.033716 265.355925 
L 290.277207 266.778914 
L 290.609978 268.354105 
L 290.802065 268.271804 
L 290.904873 267.729819 
L 291.324218 265.565555 
L 291.624524 263.944726 
L 291.87072 263.10231 
L 291.886953 263.10895 
L 291.992465 263.315921 
L 292.444276 264.414795 
L 292.511913 264.245849 
L 292.658007 263.08133 
L 292.931258 261.54705 
L 293.047593 261.432166 
L 293.085469 261.466853 
L 293.20992 261.834919 
L 293.450705 263.405101 
L 293.916044 266.219059 
L 294.183884 267.812039 
L 295.647535 278.136773 
L 295.94784 279.371945 
L 296.188625 279.908608 
L 296.510575 279.96301 
L 296.75136 279.856408 
L 296.805469 279.869203 
L 296.846051 279.795032 
L 296.98944 279.221112 
L 297.200465 275.443268 
L 297.460189 272.428774 
L 297.562996 272.261341 
L 297.606284 272.303493 
L 297.741556 272.740598 
L 298.014807 273.458741 
L 298.225833 273.804518 
L 298.334051 274.06362 
L 298.38816 273.936984 
L 298.839971 272.439368 
L 298.875142 272.459278 
L 299.007709 272.728233 
L 299.359418 273.688816 
L 299.421644 273.663611 
L 299.543389 273.747017 
L 299.708422 274.259924 
L 300.02496 276.129631 
L 300.744611 280.457582 
L 300.750022 280.456587 
L 300.982691 280.290123 
L 301.434502 278.643406 
L 302.086516 274.445295 
L 302.419287 272.46811 
L 302.800756 267.717595 
L 303.03072 265.52898 
L 303.165993 265.072142 
L 303.344553 264.600126 
L 303.368902 264.614443 
L 303.474415 264.878964 
L 303.988451 266.469685 
L 304.142662 266.621352 
L 304.185949 266.51801 
L 304.808204 264.364488 
L 304.897484 264.467593 
L 305.062516 265.148991 
L 305.124742 265.287092 
L 305.181556 265.188685 
L 305.514327 263.956464 
L 305.595491 264.074673 
L 306.239389 265.453119 
L 306.279971 265.484395 
L 306.320553 265.382179 
L 306.75072 263.982598 
L 306.78048 264.002452 
L 306.86976 264.173001 
L 306.918458 264.000958 
L 307.069964 262.668213 
L 307.224175 262.099379 
L 307.251229 262.119509 
L 307.351331 262.438784 
L 307.573178 264.080508 
L 308.271185 269.568415 
L 308.41728 269.723089 
L 308.874502 270.496451 
L 309.01248 270.786946 
L 309.529222 272.477642 
L 309.851171 274.680478 
L 309.9648 274.482085 
L 310.027025 274.502758 
L 310.05408 274.553819 
L 310.248873 275.031201 
L 310.338153 274.950504 
L 310.684451 274.306298 
L 310.844073 274.077561 
L 310.871127 274.095059 
L 311.138967 274.225685 
L 311.149789 274.213002 
L 311.336465 273.77077 
L 311.460916 273.680768 
L 311.493382 273.708512 
L 311.63136 274.047298 
L 311.893789 274.701831 
L 311.915433 274.669683 
L 311.966836 274.192399 
L 312.359127 270.215059 
L 312.437585 270.309873 
L 312.594502 271.006748 
L 312.789295 271.830237 
L 312.832582 271.780923 
L 313.0896 270.928904 
L 313.227578 270.736663 
L 313.262749 270.764097 
L 313.3872 271.098314 
L 313.679389 271.819431 
L 313.782196 271.985945 
L 313.847127 271.921204 
L 314.247535 271.169977 
L 314.323287 271.274169 
L 314.493731 271.91745 
L 314.899549 273.444794 
L 315.056465 273.801307 
L 315.124102 274.010034 
L 315.175505 273.814067 
L 315.505571 272.5571 
L 315.581324 272.328092 
L 315.892451 270.325973 
L 315.943855 270.382663 
L 316.079127 270.907926 
L 316.30368 271.919745 
L 316.360495 271.835422 
L 316.533644 271.101226 
L 316.888058 269.874389 
L 316.993571 269.940109 
L 317.1072 270.005707 
L 317.139665 269.978732 
L 317.237062 269.691204 
L 317.699695 266.728245 
L 317.788975 266.839092 
L 317.832262 266.867602 
L 317.883665 266.783809 
L 318.037876 266.042507 
L 318.313833 265.209377 
L 318.381469 264.959643 
L 318.873862 261.995831 
L 318.909033 262.013424 
L 319.030778 262.267485 
L 319.239098 263.336701 
L 319.661149 266.965895 
L 319.991215 269.075791 
L 320.41056 272.357213 
L 320.921891 275.969034 
L 320.973295 276.043461 
L 321.038225 275.97436 
L 321.157265 275.61944 
L 321.8688 271.815839 
L 322.231331 271.503721 
L 322.426124 271.140685 
L 322.858996 270.000863 
L 322.94016 270.11219 
L 323.113309 270.796293 
L 323.343273 271.98852 
L 323.402793 271.775014 
L 323.765324 270.000068 
L 323.8032 270.027226 
L 323.900596 270.19586 
L 323.938473 270.027798 
L 324.149498 266.602621 
L 324.484975 262.369751 
L 324.549905 262.298609 
L 324.601309 262.369182 
L 324.78528 263.093951 
L 324.928669 263.662396 
L 324.980073 263.400369 
L 325.356131 259.951958 
L 325.383185 259.971581 
L 325.477876 260.297026 
L 325.710545 262.131601 
L 326.757556 271.415164 
L 326.949644 272.191024 
L 326.990225 272.119718 
L 327.103855 271.408042 
L 327.322996 268.254651 
L 327.682822 263.974844 
L 327.920902 263.268002 
L 327.991244 263.095031 
L 328.383535 261.66316 
L 328.421411 261.692089 
L 328.537745 262.032591 
L 328.778531 263.605588 
L 329.124829 265.219056 
L 329.703796 266.733487 
L 329.728145 266.75836 
L 329.763316 266.643706 
L 329.99328 265.89295 
L 330.02304 265.913322 
L 330.133964 266.209202 
L 330.358516 267.597295 
L 331.162036 273.058427 
L 331.394705 273.982878 
L 331.862749 277.158141 
L 331.984495 277.769491 
L 332.04672 277.733589 
L 332.184698 277.528541 
L 332.750138 275.006751 
L 332.834007 274.695371 
L 333.099142 273.92607 
L 333.199244 274.05525 
L 333.721396 275.566102 
L 334.005469 276.317281 
L 334.27872 277.66184 
L 334.592553 278.898526 
L 334.806284 278.938297 
L 334.946967 278.617082 
L 335.263505 277.455233 
L 335.266211 277.455741 
L 335.425833 277.607543 
L 335.488058 277.661339 
L 335.539462 277.580937 
L 335.753193 277.312581 
L 335.777542 277.329408 
L 335.912815 277.60715 
L 336.351098 279.337802 
L 336.683869 280.561122 
L 336.737978 280.370747 
L 338.009542 273.573236 
L 338.104233 273.677634 
L 338.277382 274.33255 
L 339.540829 280.736748 
L 339.619287 280.659092 
L 339.841135 280.533807 
L 339.876305 280.530504 
L 339.906065 280.444369 
L 340.152262 279.092438 
L 340.641949 274.61154 
L 340.953076 273.200118 
L 341.077527 272.217559 
L 341.339956 270.179448 
L 341.529338 269.763353 
L 341.559098 269.784966 
L 341.675433 270.092931 
L 342.129949 272.399402 
L 342.809018 275.392658 
L 342.855011 275.378176 
L 342.944291 275.232281 
L 343.296 274.342941 
L 343.531375 273.950991 
L 343.709935 272.156819 
L 344.007535 267.796194 
L 344.09952 267.737803 
L 344.140102 267.776271 
L 344.267258 268.150604 
L 344.505338 269.706505 
L 345.084305 275.403197 
L 345.503651 278.609108 
L 345.752553 279.070494 
L 346.483025 281.360173 
L 346.547956 281.286799 
L 347.248669 279.835642 
L 347.822225 274.618327 
L 347.911505 274.580055 
L 347.949382 274.62075 
L 348.109004 275.063401 
L 348.233455 275.345913 
L 348.292975 275.284426 
L 348.468829 275.23506 
L 348.728553 275.511042 
L 348.777251 275.619209 
L 348.820538 275.44275 
L 348.999098 274.858508 
L 349.031564 274.882402 
L 349.142487 275.212538 
L 349.399505 276.853586 
L 349.507724 277.692704 
L 349.556422 277.209096 
L 349.675462 276.670291 
L 349.716044 276.720033 
L 349.840495 277.283041 
L 350.276073 280.548529 
L 350.368058 279.897349 
L 350.792815 277.072498 
L 350.963258 275.610057 
L 351.209455 274.224051 
L 351.277091 274.22485 
L 351.312262 274.275668 
L 351.415069 274.355807 
L 351.452945 274.314003 
L 351.593629 273.844988 
L 352.129309 271.201834 
L 352.573004 269.557643 
L 352.594647 269.568911 
L 352.705571 269.804717 
L 352.919302 270.916376 
L 353.276422 272.906244 
L 353.319709 272.873905 
L 353.530735 272.702625 
L 353.565905 272.742615 
L 353.693062 272.726238 
L 353.812102 272.785945 
L 354.182749 273.62611 
L 354.975447 277.418186 
L 355.183767 277.865622 
L 355.367738 278.012366 
L 355.570647 278.51573 
L 355.635578 278.274583 
L 356.344407 274.427248 
L 356.44992 274.36076 
L 356.485091 274.393882 
L 356.825978 274.66501 
L 357.009949 274.90397 
L 357.077585 274.962181 
L 357.123578 274.871031 
L 357.215564 273.81663 
L 357.962269 264.321808 
L 358.243636 263.594868 
L 358.35456 263.667782 
L 358.589935 264.24213 
L 358.836131 265.750243 
L 359.266298 268.188077 
L 359.482735 268.777518 
L 359.601775 269.122913 
L 359.653178 269.038958 
L 360.094167 267.562757 
L 360.14016 267.594588 
L 360.316015 267.742342 
L 360.353891 267.662991 
L 360.529745 267.3584 
L 360.567622 267.392349 
L 360.692073 267.764484 
L 360.938269 269.372461 
L 361.384669 272.106625 
L 361.436073 272.221286 
L 361.501004 272.112906 
L 361.793193 271.267835 
L 361.939287 270.609841 
L 362.269353 268.624833 
L 362.345105 268.655595 
L 362.364044 268.688334 
L 362.512844 269.232247 
L 362.561542 269.395012 
L 362.621062 269.217287 
L 362.842909 268.450164 
L 362.883491 268.459938 
L 362.986298 268.369902 
L 363.278487 267.461221 
L 363.557149 266.212437 
L 363.643724 266.312137 
L 363.957556 267.298155 
L 364.252451 267.907652 
L 364.387724 267.993972 
L 364.431011 267.918836 
L 364.644742 267.165861 
L 364.872 266.586548 
L 364.882822 266.590611 
L 364.982924 266.767295 
L 365.4672 268.557739 
L 365.694458 269.361843 
L 365.748567 269.225269 
L 366.051578 268.151733 
L 366.09216 268.18418 
L 366.219316 268.542845 
L 366.554793 269.474962 
L 366.706298 269.491025 
L 366.719825 269.452413 
L 366.993076 268.560886 
L 367.04448 268.612181 
L 367.182458 269.069899 
L 368.034676 273.69541 
L 368.648815 278.124232 
L 368.743505 277.581092 
L 369.225076 274.068156 
L 369.352233 273.830799 
L 369.690415 272.088332 
L 370.028596 270.190531 
L 370.120582 270.257609 
L 370.123287 270.262933 
L 370.277498 270.823353 
L 370.447942 271.120492 
L 370.572393 271.233035 
L 370.761775 271.468072 
L 370.791535 271.364399 
L 371.018793 270.383353 
L 371.070196 270.443802 
L 371.202764 270.996912 
L 371.473309 272.924635 
L 371.540945 272.357112 
L 371.789847 270.839625 
L 372.109091 270.352529 
L 372.37152 270.196607 
L 372.509498 269.487813 
L 372.736756 268.819685 
L 372.739462 268.820256 
L 372.834153 268.958334 
L 374.435782 273.454005 
L 374.733382 274.446488 
L 374.874065 274.793796 
L 374.925469 274.626435 
L 375.147316 272.817308 
L 375.818269 267.580633 
L 375.891316 267.618101 
L 375.910255 267.65392 
L 376.370182 268.928352 
L 377.514589 274.907376 
L 377.652567 274.904194 
L 377.78784 274.732707 
L 378.028625 273.909903 
L 378.188247 273.637325 
L 378.212596 273.651734 
L 378.339753 273.917645 
L 378.415505 274.090422 
L 378.485847 274.006405 
L 378.59136 273.535915 
L 378.980945 271.006914 
L 379.173033 270.579227 
L 379.197382 270.592599 
L 379.311011 270.843732 
L 379.557207 272.07042 
L 379.762822 272.829512 
L 379.784465 272.817625 
L 380.073949 272.503803 
L 380.141585 272.616056 
L 380.885585 274.118277 
L 380.901818 274.102921 
L 381.134487 273.776621 
L 381.199418 273.866932 
L 381.553833 274.353925 
L 381.74592 274.196127 
L 381.910953 273.841222 
L 382.303244 271.260492 
L 382.346531 271.293481 
L 382.470982 271.658138 
L 382.947142 273.926104 
L 383.047244 273.662632 
L 383.250153 273.380916 
L 383.380015 273.439854 
L 383.53152 273.891042 
L 384.248465 277.465357 
L 384.830138 280.658861 
L 385.114211 281.663681 
L 385.284655 281.522987 
L 385.641775 281.163077 
L 385.787869 279.984566 
L 386.077353 278.425766 
L 386.266735 278.320827 
L 386.410124 277.9969 
L 386.980975 275.804567 
L 386.999913 275.812622 
L 387.121658 276.023887 
L 387.173062 276.0764 
L 387.219055 275.981683 
L 387.373265 274.977915 
L 387.984698 269.719764 
L 388.398633 266.003892 
L 388.674589 265.039299 
L 388.915375 264.928706 
L 388.923491 264.936997 
L 389.047942 265.241898 
L 389.267084 266.513246 
L 389.727011 270.801685 
L 390.065193 273.561207 
L 390.097658 273.521165 
L 390.592756 272.685517 
L 390.717207 272.733113 
L 390.863302 272.7298 
L 391.028335 272.798176 
L 391.309702 273.079856 
L 391.339462 273.031516 
L 391.56672 272.64058 
L 391.610007 272.680103 
L 391.747985 273.063911 
L 392.305309 274.866165 
L 392.42976 275.130307 
L 392.48928 275.048883 
L 392.914036 274.355424 
L 393.006022 274.20497 
L 393.219753 273.878599 
L 393.244102 273.89368 
L 393.368553 274.153999 
L 393.603927 275.292912 
L 394.27488 278.732461 
L 394.296524 278.743223 
L 394.345222 278.639136 
L 394.604945 277.459661 
L 395.037818 274.706072 
L 395.492335 273.432123 
L 395.689833 273.189143 
L 395.8224 273.063761 
L 395.854865 273.090142 
L 395.979316 273.206313 
L 396.006371 273.109141 
L 396.639447 269.942623 
L 396.799069 268.665173 
L 397.180538 265.411745 
L 397.237353 265.393666 
L 397.28064 265.455866 
L 397.421324 266.023895 
L 397.886662 268.147285 
L 397.902895 268.137665 
L 397.973236 267.908159 
L 398.273542 266.937825 
L 398.406109 266.66259 
L 398.487273 266.05506 
L 398.487273 266.05506 
" clip-path="url(#pafa5f5d417)" style="fill: none; stroke: #ff0000; stroke-width: 1.5; stroke-linecap: square"/>
   </g>
   <g id="line2d_18">
    <path d="M 344.378182 260.064 
L 398.379055 260.064 
L 398.379055 260.064 
" clip-path="url(#pafa5f5d417)" style="fill: none; stroke: #000000; stroke-width: 1.5; stroke-linecap: square"/>
   </g>
   <g id="line2d_19">
    <path d="M 344.378182 231.552 
L 344.378182 229.6512 
L 344.378182 227.7504 
L 344.378182 225.8496 
L 344.378182 223.9488 
L 344.378182 222.048 
L 344.378182 220.1472 
L 344.378182 218.2464 
L 344.378182 216.3456 
L 344.378182 214.4448 
L 344.378182 212.544 
L 344.378182 210.6432 
L 344.378182 208.7424 
L 344.378182 206.8416 
L 344.378182 204.9408 
L 344.378182 203.04 
L 344.378182 201.1392 
L 344.378182 199.2384 
L 344.378182 197.3376 
L 344.378182 195.4368 
" clip-path="url(#pafa5f5d417)" style="fill: none; stroke: #000000; stroke-width: 1.5; stroke-linecap: square"/>
   </g>
   <g id="patch_3">
    <path d="M 57.6 307.584 
L 57.6 41.472 
" style="fill: none; stroke: #000000; stroke-width: 0.8; stroke-linejoin: miter; stroke-linecap: square"/>
   </g>
   <g id="patch_4">
    <path d="M 57.6 307.584 
L 414.72 307.584 
" style="fill: none; stroke: #000000; stroke-width: 0.8; stroke-linejoin: miter; stroke-linecap: square"/>
   </g>
   <g id="text_18">
    <!-- 500 ms -->
    <g transform="translate(344.378182 258.1632) scale(0.1 -0.1)">
     <use xlink:href="#DejaVuSans-35"/>
     <use xlink:href="#DejaVuSans-30" x="63.623047"/>
     <use xlink:href="#DejaVuSans-30" x="127.246094"/>
     <use xlink:href="#DejaVuSans-20" x="190.869141"/>
     <use xlink:href="#DejaVuSans-6d" x="222.65625"/>
     <use xlink:href="#DejaVuSans-73" x="320.068359"/>
    </g>
   </g>
   <g id="text_19">
    <!-- 20 mV -->
    <g transform="translate(349.789091 193.536) scale(0.1 -0.1)">
     <use xlink:href="#DejaVuSans-32"/>
     <use xlink:href="#DejaVuSans-30" x="63.623047"/>
     <use xlink:href="#DejaVuSans-20" x="127.246094"/>
     <use xlink:href="#DejaVuSans-6d" x="159.033203"/>
     <use xlink:href="#DejaVuSans-56" x="256.445312"/>
    </g>
   </g>
  </g>
 </g>
 <defs>
  <clipPath id="pafa5f5d417">
   <rect x="57.6" y="41.472" width="357.12" height="266.112"/>
  </clipPath>
 </defs>
</svg>
