<?xml version="1.0" encoding="utf-8" standalone="no"?>
<!DOCTYPE svg PUBLIC "-//W3C//DTD SVG 1.1//EN"
  "http://www.w3.org/Graphics/SVG/1.1/DTD/svg11.dtd">
<svg height="288pt" version="1.1" viewBox="0 0 432 288" width="432pt" xmlns="http://www.w3.org/2000/svg" xmlns:xlink="http://www.w3.org/1999/xlink">
 <metadata>
  <rdf:RDF xmlns:cc="http://creativecommons.org/ns#" xmlns:dc="http://purl.org/dc/elements/1.1/" xmlns:rdf="http://www.w3.org/1999/02/22-rdf-syntax-ns#">
   <cc:Work>
    <dc:type rdf:resource="http://purl.org/dc/dcmitype/StillImage"/>
    <dc:date>2021-07-07T23:01:10.429169</dc:date>
    <dc:format>image/svg+xml</dc:format>
    <dc:creator>
     <cc:Agent>
      <dc:title>Matplotlib v3.4.1, https://matplotlib.org/</dc:title>
     </cc:Agent>
    </dc:creator>
   </cc:Work>
  </rdf:RDF>
 </metadata>
 <defs>
  <style type="text/css">*{stroke-linecap:butt;stroke-linejoin:round;}</style>
 </defs>
 <g id="figure_1">
  <g id="patch_1">
   <path d="M 0 288 
L 432 288 
L 432 0 
L 0 0 
z
" style="fill:none;"/>
  </g>
  <g id="axes_1">
   <g id="patch_2">
    <path d="M 54 252 
L 388.8 252 
L 388.8 34.56 
L 54 34.56 
z
" style="fill:#ffffff;"/>
   </g>
   <g id="matplotlib.axis_1">
    <g id="xtick_1">
     <g id="line2d_1">
      <defs>
       <path d="M 0 0 
L 0 3.5 
" id="mc1bfe99b98" style="stroke:#000000;stroke-width:0.8;"/>
      </defs>
      <g>
       <use style="stroke:#000000;stroke-width:0.8;" x="69.218182" xlink:href="#mc1bfe99b98" y="252"/>
      </g>
     </g>
     <g id="text_1">
      <!-- 0 -->
      <g transform="translate(66.036932 266.598437)scale(0.1 -0.1)">
       <defs>
        <path d="M 2034 4250 
Q 1547 4250 1301 3770 
Q 1056 3291 1056 2328 
Q 1056 1369 1301 889 
Q 1547 409 2034 409 
Q 2525 409 2770 889 
Q 3016 1369 3016 2328 
Q 3016 3291 2770 3770 
Q 2525 4250 2034 4250 
z
M 2034 4750 
Q 2819 4750 3233 4129 
Q 3647 3509 3647 2328 
Q 3647 1150 3233 529 
Q 2819 -91 2034 -91 
Q 1250 -91 836 529 
Q 422 1150 422 2328 
Q 422 3509 836 4129 
Q 1250 4750 2034 4750 
z
" id="DejaVuSans-30" transform="scale(0.015625)"/>
       </defs>
       <use xlink:href="#DejaVuSans-30"/>
      </g>
     </g>
    </g>
    <g id="xtick_2">
     <g id="line2d_2">
      <g>
       <use style="stroke:#000000;stroke-width:0.8;" x="119.945455" xlink:href="#mc1bfe99b98" y="252"/>
      </g>
     </g>
     <g id="text_2">
      <!-- 1000 -->
      <g transform="translate(107.220455 266.598437)scale(0.1 -0.1)">
       <defs>
        <path d="M 794 531 
L 1825 531 
L 1825 4091 
L 703 3866 
L 703 4441 
L 1819 4666 
L 2450 4666 
L 2450 531 
L 3481 531 
L 3481 0 
L 794 0 
L 794 531 
z
" id="DejaVuSans-31" transform="scale(0.015625)"/>
       </defs>
       <use xlink:href="#DejaVuSans-31"/>
       <use x="63.623047" xlink:href="#DejaVuSans-30"/>
       <use x="127.246094" xlink:href="#DejaVuSans-30"/>
       <use x="190.869141" xlink:href="#DejaVuSans-30"/>
      </g>
     </g>
    </g>
    <g id="xtick_3">
     <g id="line2d_3">
      <g>
       <use style="stroke:#000000;stroke-width:0.8;" x="170.672727" xlink:href="#mc1bfe99b98" y="252"/>
      </g>
     </g>
     <g id="text_3">
      <!-- 2000 -->
      <g transform="translate(157.947727 266.598437)scale(0.1 -0.1)">
       <defs>
        <path d="M 1228 531 
L 3431 531 
L 3431 0 
L 469 0 
L 469 531 
Q 828 903 1448 1529 
Q 2069 2156 2228 2338 
Q 2531 2678 2651 2914 
Q 2772 3150 2772 3378 
Q 2772 3750 2511 3984 
Q 2250 4219 1831 4219 
Q 1534 4219 1204 4116 
Q 875 4013 500 3803 
L 500 4441 
Q 881 4594 1212 4672 
Q 1544 4750 1819 4750 
Q 2544 4750 2975 4387 
Q 3406 4025 3406 3419 
Q 3406 3131 3298 2873 
Q 3191 2616 2906 2266 
Q 2828 2175 2409 1742 
Q 1991 1309 1228 531 
z
" id="DejaVuSans-32" transform="scale(0.015625)"/>
       </defs>
       <use xlink:href="#DejaVuSans-32"/>
       <use x="63.623047" xlink:href="#DejaVuSans-30"/>
       <use x="127.246094" xlink:href="#DejaVuSans-30"/>
       <use x="190.869141" xlink:href="#DejaVuSans-30"/>
      </g>
     </g>
    </g>
    <g id="xtick_4">
     <g id="line2d_4">
      <g>
       <use style="stroke:#000000;stroke-width:0.8;" x="221.4" xlink:href="#mc1bfe99b98" y="252"/>
      </g>
     </g>
     <g id="text_4">
      <!-- 3000 -->
      <g transform="translate(208.675 266.598437)scale(0.1 -0.1)">
       <defs>
        <path d="M 2597 2516 
Q 3050 2419 3304 2112 
Q 3559 1806 3559 1356 
Q 3559 666 3084 287 
Q 2609 -91 1734 -91 
Q 1441 -91 1130 -33 
Q 819 25 488 141 
L 488 750 
Q 750 597 1062 519 
Q 1375 441 1716 441 
Q 2309 441 2620 675 
Q 2931 909 2931 1356 
Q 2931 1769 2642 2001 
Q 2353 2234 1838 2234 
L 1294 2234 
L 1294 2753 
L 1863 2753 
Q 2328 2753 2575 2939 
Q 2822 3125 2822 3475 
Q 2822 3834 2567 4026 
Q 2313 4219 1838 4219 
Q 1578 4219 1281 4162 
Q 984 4106 628 3988 
L 628 4550 
Q 988 4650 1302 4700 
Q 1616 4750 1894 4750 
Q 2613 4750 3031 4423 
Q 3450 4097 3450 3541 
Q 3450 3153 3228 2886 
Q 3006 2619 2597 2516 
z
" id="DejaVuSans-33" transform="scale(0.015625)"/>
       </defs>
       <use xlink:href="#DejaVuSans-33"/>
       <use x="63.623047" xlink:href="#DejaVuSans-30"/>
       <use x="127.246094" xlink:href="#DejaVuSans-30"/>
       <use x="190.869141" xlink:href="#DejaVuSans-30"/>
      </g>
     </g>
    </g>
    <g id="xtick_5">
     <g id="line2d_5">
      <g>
       <use style="stroke:#000000;stroke-width:0.8;" x="272.127273" xlink:href="#mc1bfe99b98" y="252"/>
      </g>
     </g>
     <g id="text_5">
      <!-- 4000 -->
      <g transform="translate(259.402273 266.598437)scale(0.1 -0.1)">
       <defs>
        <path d="M 2419 4116 
L 825 1625 
L 2419 1625 
L 2419 4116 
z
M 2253 4666 
L 3047 4666 
L 3047 1625 
L 3713 1625 
L 3713 1100 
L 3047 1100 
L 3047 0 
L 2419 0 
L 2419 1100 
L 313 1100 
L 313 1709 
L 2253 4666 
z
" id="DejaVuSans-34" transform="scale(0.015625)"/>
       </defs>
       <use xlink:href="#DejaVuSans-34"/>
       <use x="63.623047" xlink:href="#DejaVuSans-30"/>
       <use x="127.246094" xlink:href="#DejaVuSans-30"/>
       <use x="190.869141" xlink:href="#DejaVuSans-30"/>
      </g>
     </g>
    </g>
    <g id="xtick_6">
     <g id="line2d_6">
      <g>
       <use style="stroke:#000000;stroke-width:0.8;" x="322.854545" xlink:href="#mc1bfe99b98" y="252"/>
      </g>
     </g>
     <g id="text_6">
      <!-- 5000 -->
      <g transform="translate(310.129545 266.598437)scale(0.1 -0.1)">
       <defs>
        <path d="M 691 4666 
L 3169 4666 
L 3169 4134 
L 1269 4134 
L 1269 2991 
Q 1406 3038 1543 3061 
Q 1681 3084 1819 3084 
Q 2600 3084 3056 2656 
Q 3513 2228 3513 1497 
Q 3513 744 3044 326 
Q 2575 -91 1722 -91 
Q 1428 -91 1123 -41 
Q 819 9 494 109 
L 494 744 
Q 775 591 1075 516 
Q 1375 441 1709 441 
Q 2250 441 2565 725 
Q 2881 1009 2881 1497 
Q 2881 1984 2565 2268 
Q 2250 2553 1709 2553 
Q 1456 2553 1204 2497 
Q 953 2441 691 2322 
L 691 4666 
z
" id="DejaVuSans-35" transform="scale(0.015625)"/>
       </defs>
       <use xlink:href="#DejaVuSans-35"/>
       <use x="63.623047" xlink:href="#DejaVuSans-30"/>
       <use x="127.246094" xlink:href="#DejaVuSans-30"/>
       <use x="190.869141" xlink:href="#DejaVuSans-30"/>
      </g>
     </g>
    </g>
    <g id="xtick_7">
     <g id="line2d_7">
      <g>
       <use style="stroke:#000000;stroke-width:0.8;" x="373.581818" xlink:href="#mc1bfe99b98" y="252"/>
      </g>
     </g>
     <g id="text_7">
      <!-- 6000 -->
      <g transform="translate(360.856818 266.598437)scale(0.1 -0.1)">
       <defs>
        <path d="M 2113 2584 
Q 1688 2584 1439 2293 
Q 1191 2003 1191 1497 
Q 1191 994 1439 701 
Q 1688 409 2113 409 
Q 2538 409 2786 701 
Q 3034 994 3034 1497 
Q 3034 2003 2786 2293 
Q 2538 2584 2113 2584 
z
M 3366 4563 
L 3366 3988 
Q 3128 4100 2886 4159 
Q 2644 4219 2406 4219 
Q 1781 4219 1451 3797 
Q 1122 3375 1075 2522 
Q 1259 2794 1537 2939 
Q 1816 3084 2150 3084 
Q 2853 3084 3261 2657 
Q 3669 2231 3669 1497 
Q 3669 778 3244 343 
Q 2819 -91 2113 -91 
Q 1303 -91 875 529 
Q 447 1150 447 2328 
Q 447 3434 972 4092 
Q 1497 4750 2381 4750 
Q 2619 4750 2861 4703 
Q 3103 4656 3366 4563 
z
" id="DejaVuSans-36" transform="scale(0.015625)"/>
       </defs>
       <use xlink:href="#DejaVuSans-36"/>
       <use x="63.623047" xlink:href="#DejaVuSans-30"/>
       <use x="127.246094" xlink:href="#DejaVuSans-30"/>
       <use x="190.869141" xlink:href="#DejaVuSans-30"/>
      </g>
     </g>
    </g>
    <g id="text_8">
     <!-- Time(ms) -->
     <g transform="translate(197.789844 280.276563)scale(0.1 -0.1)">
      <defs>
       <path d="M -19 4666 
L 3928 4666 
L 3928 4134 
L 2272 4134 
L 2272 0 
L 1638 0 
L 1638 4134 
L -19 4134 
L -19 4666 
z
" id="DejaVuSans-54" transform="scale(0.015625)"/>
       <path d="M 603 3500 
L 1178 3500 
L 1178 0 
L 603 0 
L 603 3500 
z
M 603 4863 
L 1178 4863 
L 1178 4134 
L 603 4134 
L 603 4863 
z
" id="DejaVuSans-69" transform="scale(0.015625)"/>
       <path d="M 3328 2828 
Q 3544 3216 3844 3400 
Q 4144 3584 4550 3584 
Q 5097 3584 5394 3201 
Q 5691 2819 5691 2113 
L 5691 0 
L 5113 0 
L 5113 2094 
Q 5113 2597 4934 2840 
Q 4756 3084 4391 3084 
Q 3944 3084 3684 2787 
Q 3425 2491 3425 1978 
L 3425 0 
L 2847 0 
L 2847 2094 
Q 2847 2600 2669 2842 
Q 2491 3084 2119 3084 
Q 1678 3084 1418 2786 
Q 1159 2488 1159 1978 
L 1159 0 
L 581 0 
L 581 3500 
L 1159 3500 
L 1159 2956 
Q 1356 3278 1631 3431 
Q 1906 3584 2284 3584 
Q 2666 3584 2933 3390 
Q 3200 3197 3328 2828 
z
" id="DejaVuSans-6d" transform="scale(0.015625)"/>
       <path d="M 3597 1894 
L 3597 1613 
L 953 1613 
Q 991 1019 1311 708 
Q 1631 397 2203 397 
Q 2534 397 2845 478 
Q 3156 559 3463 722 
L 3463 178 
Q 3153 47 2828 -22 
Q 2503 -91 2169 -91 
Q 1331 -91 842 396 
Q 353 884 353 1716 
Q 353 2575 817 3079 
Q 1281 3584 2069 3584 
Q 2775 3584 3186 3129 
Q 3597 2675 3597 1894 
z
M 3022 2063 
Q 3016 2534 2758 2815 
Q 2500 3097 2075 3097 
Q 1594 3097 1305 2825 
Q 1016 2553 972 2059 
L 3022 2063 
z
" id="DejaVuSans-65" transform="scale(0.015625)"/>
       <path d="M 1984 4856 
Q 1566 4138 1362 3434 
Q 1159 2731 1159 2009 
Q 1159 1288 1364 580 
Q 1569 -128 1984 -844 
L 1484 -844 
Q 1016 -109 783 600 
Q 550 1309 550 2009 
Q 550 2706 781 3412 
Q 1013 4119 1484 4856 
L 1984 4856 
z
" id="DejaVuSans-28" transform="scale(0.015625)"/>
       <path d="M 2834 3397 
L 2834 2853 
Q 2591 2978 2328 3040 
Q 2066 3103 1784 3103 
Q 1356 3103 1142 2972 
Q 928 2841 928 2578 
Q 928 2378 1081 2264 
Q 1234 2150 1697 2047 
L 1894 2003 
Q 2506 1872 2764 1633 
Q 3022 1394 3022 966 
Q 3022 478 2636 193 
Q 2250 -91 1575 -91 
Q 1294 -91 989 -36 
Q 684 19 347 128 
L 347 722 
Q 666 556 975 473 
Q 1284 391 1588 391 
Q 1994 391 2212 530 
Q 2431 669 2431 922 
Q 2431 1156 2273 1281 
Q 2116 1406 1581 1522 
L 1381 1569 
Q 847 1681 609 1914 
Q 372 2147 372 2553 
Q 372 3047 722 3315 
Q 1072 3584 1716 3584 
Q 2034 3584 2315 3537 
Q 2597 3491 2834 3397 
z
" id="DejaVuSans-73" transform="scale(0.015625)"/>
       <path d="M 513 4856 
L 1013 4856 
Q 1481 4119 1714 3412 
Q 1947 2706 1947 2009 
Q 1947 1309 1714 600 
Q 1481 -109 1013 -844 
L 513 -844 
Q 928 -128 1133 580 
Q 1338 1288 1338 2009 
Q 1338 2731 1133 3434 
Q 928 4138 513 4856 
z
" id="DejaVuSans-29" transform="scale(0.015625)"/>
      </defs>
      <use xlink:href="#DejaVuSans-54"/>
      <use x="57.958984" xlink:href="#DejaVuSans-69"/>
      <use x="85.742188" xlink:href="#DejaVuSans-6d"/>
      <use x="183.154297" xlink:href="#DejaVuSans-65"/>
      <use x="244.677734" xlink:href="#DejaVuSans-28"/>
      <use x="283.691406" xlink:href="#DejaVuSans-6d"/>
      <use x="381.103516" xlink:href="#DejaVuSans-73"/>
      <use x="433.203125" xlink:href="#DejaVuSans-29"/>
     </g>
    </g>
   </g>
   <g id="matplotlib.axis_2">
    <g id="ytick_1">
     <g id="line2d_8">
      <defs>
       <path d="M 0 0 
L -3.5 0 
" id="mc9def39293" style="stroke:#000000;stroke-width:0.8;"/>
      </defs>
      <g>
       <use style="stroke:#000000;stroke-width:0.8;" x="54" xlink:href="#mc9def39293" y="252"/>
      </g>
     </g>
     <g id="text_9">
      <!-- −100 -->
      <g transform="translate(19.532812 255.799219)scale(0.1 -0.1)">
       <defs>
        <path d="M 678 2272 
L 4684 2272 
L 4684 1741 
L 678 1741 
L 678 2272 
z
" id="DejaVuSans-2212" transform="scale(0.015625)"/>
       </defs>
       <use xlink:href="#DejaVuSans-2212"/>
       <use x="83.789062" xlink:href="#DejaVuSans-31"/>
       <use x="147.412109" xlink:href="#DejaVuSans-30"/>
       <use x="211.035156" xlink:href="#DejaVuSans-30"/>
      </g>
     </g>
    </g>
    <g id="ytick_2">
     <g id="line2d_9">
      <g>
       <use style="stroke:#000000;stroke-width:0.8;" x="54" xlink:href="#mc9def39293" y="215.76"/>
      </g>
     </g>
     <g id="text_10">
      <!-- −95 -->
      <g transform="translate(25.895312 219.559219)scale(0.1 -0.1)">
       <defs>
        <path d="M 703 97 
L 703 672 
Q 941 559 1184 500 
Q 1428 441 1663 441 
Q 2288 441 2617 861 
Q 2947 1281 2994 2138 
Q 2813 1869 2534 1725 
Q 2256 1581 1919 1581 
Q 1219 1581 811 2004 
Q 403 2428 403 3163 
Q 403 3881 828 4315 
Q 1253 4750 1959 4750 
Q 2769 4750 3195 4129 
Q 3622 3509 3622 2328 
Q 3622 1225 3098 567 
Q 2575 -91 1691 -91 
Q 1453 -91 1209 -44 
Q 966 3 703 97 
z
M 1959 2075 
Q 2384 2075 2632 2365 
Q 2881 2656 2881 3163 
Q 2881 3666 2632 3958 
Q 2384 4250 1959 4250 
Q 1534 4250 1286 3958 
Q 1038 3666 1038 3163 
Q 1038 2656 1286 2365 
Q 1534 2075 1959 2075 
z
" id="DejaVuSans-39" transform="scale(0.015625)"/>
       </defs>
       <use xlink:href="#DejaVuSans-2212"/>
       <use x="83.789062" xlink:href="#DejaVuSans-39"/>
       <use x="147.412109" xlink:href="#DejaVuSans-35"/>
      </g>
     </g>
    </g>
    <g id="ytick_3">
     <g id="line2d_10">
      <g>
       <use style="stroke:#000000;stroke-width:0.8;" x="54" xlink:href="#mc9def39293" y="179.52"/>
      </g>
     </g>
     <g id="text_11">
      <!-- −90 -->
      <g transform="translate(25.895312 183.319219)scale(0.1 -0.1)">
       <use xlink:href="#DejaVuSans-2212"/>
       <use x="83.789062" xlink:href="#DejaVuSans-39"/>
       <use x="147.412109" xlink:href="#DejaVuSans-30"/>
      </g>
     </g>
    </g>
    <g id="ytick_4">
     <g id="line2d_11">
      <g>
       <use style="stroke:#000000;stroke-width:0.8;" x="54" xlink:href="#mc9def39293" y="143.28"/>
      </g>
     </g>
     <g id="text_12">
      <!-- −85 -->
      <g transform="translate(25.895312 147.079219)scale(0.1 -0.1)">
       <defs>
        <path d="M 2034 2216 
Q 1584 2216 1326 1975 
Q 1069 1734 1069 1313 
Q 1069 891 1326 650 
Q 1584 409 2034 409 
Q 2484 409 2743 651 
Q 3003 894 3003 1313 
Q 3003 1734 2745 1975 
Q 2488 2216 2034 2216 
z
M 1403 2484 
Q 997 2584 770 2862 
Q 544 3141 544 3541 
Q 544 4100 942 4425 
Q 1341 4750 2034 4750 
Q 2731 4750 3128 4425 
Q 3525 4100 3525 3541 
Q 3525 3141 3298 2862 
Q 3072 2584 2669 2484 
Q 3125 2378 3379 2068 
Q 3634 1759 3634 1313 
Q 3634 634 3220 271 
Q 2806 -91 2034 -91 
Q 1263 -91 848 271 
Q 434 634 434 1313 
Q 434 1759 690 2068 
Q 947 2378 1403 2484 
z
M 1172 3481 
Q 1172 3119 1398 2916 
Q 1625 2713 2034 2713 
Q 2441 2713 2670 2916 
Q 2900 3119 2900 3481 
Q 2900 3844 2670 4047 
Q 2441 4250 2034 4250 
Q 1625 4250 1398 4047 
Q 1172 3844 1172 3481 
z
" id="DejaVuSans-38" transform="scale(0.015625)"/>
       </defs>
       <use xlink:href="#DejaVuSans-2212"/>
       <use x="83.789062" xlink:href="#DejaVuSans-38"/>
       <use x="147.412109" xlink:href="#DejaVuSans-35"/>
      </g>
     </g>
    </g>
    <g id="ytick_5">
     <g id="line2d_12">
      <g>
       <use style="stroke:#000000;stroke-width:0.8;" x="54" xlink:href="#mc9def39293" y="107.04"/>
      </g>
     </g>
     <g id="text_13">
      <!-- −80 -->
      <g transform="translate(25.895312 110.839219)scale(0.1 -0.1)">
       <use xlink:href="#DejaVuSans-2212"/>
       <use x="83.789062" xlink:href="#DejaVuSans-38"/>
       <use x="147.412109" xlink:href="#DejaVuSans-30"/>
      </g>
     </g>
    </g>
    <g id="ytick_6">
     <g id="line2d_13">
      <g>
       <use style="stroke:#000000;stroke-width:0.8;" x="54" xlink:href="#mc9def39293" y="70.8"/>
      </g>
     </g>
     <g id="text_14">
      <!-- −75 -->
      <g transform="translate(25.895312 74.599219)scale(0.1 -0.1)">
       <defs>
        <path d="M 525 4666 
L 3525 4666 
L 3525 4397 
L 1831 0 
L 1172 0 
L 2766 4134 
L 525 4134 
L 525 4666 
z
" id="DejaVuSans-37" transform="scale(0.015625)"/>
       </defs>
       <use xlink:href="#DejaVuSans-2212"/>
       <use x="83.789062" xlink:href="#DejaVuSans-37"/>
       <use x="147.412109" xlink:href="#DejaVuSans-35"/>
      </g>
     </g>
    </g>
    <g id="ytick_7">
     <g id="line2d_14">
      <g>
       <use style="stroke:#000000;stroke-width:0.8;" x="54" xlink:href="#mc9def39293" y="34.56"/>
      </g>
     </g>
     <g id="text_15">
      <!-- −70 -->
      <g transform="translate(25.895312 38.359219)scale(0.1 -0.1)">
       <use xlink:href="#DejaVuSans-2212"/>
       <use x="83.789062" xlink:href="#DejaVuSans-37"/>
       <use x="147.412109" xlink:href="#DejaVuSans-30"/>
      </g>
     </g>
    </g>
    <g id="text_16">
     <!-- Membrane potential (mV) -->
     <g transform="translate(13.453125 207.691719)rotate(-90)scale(0.1 -0.1)">
      <defs>
       <path d="M 628 4666 
L 1569 4666 
L 2759 1491 
L 3956 4666 
L 4897 4666 
L 4897 0 
L 4281 0 
L 4281 4097 
L 3078 897 
L 2444 897 
L 1241 4097 
L 1241 0 
L 628 0 
L 628 4666 
z
" id="DejaVuSans-4d" transform="scale(0.015625)"/>
       <path d="M 3116 1747 
Q 3116 2381 2855 2742 
Q 2594 3103 2138 3103 
Q 1681 3103 1420 2742 
Q 1159 2381 1159 1747 
Q 1159 1113 1420 752 
Q 1681 391 2138 391 
Q 2594 391 2855 752 
Q 3116 1113 3116 1747 
z
M 1159 2969 
Q 1341 3281 1617 3432 
Q 1894 3584 2278 3584 
Q 2916 3584 3314 3078 
Q 3713 2572 3713 1747 
Q 3713 922 3314 415 
Q 2916 -91 2278 -91 
Q 1894 -91 1617 61 
Q 1341 213 1159 525 
L 1159 0 
L 581 0 
L 581 4863 
L 1159 4863 
L 1159 2969 
z
" id="DejaVuSans-62" transform="scale(0.015625)"/>
       <path d="M 2631 2963 
Q 2534 3019 2420 3045 
Q 2306 3072 2169 3072 
Q 1681 3072 1420 2755 
Q 1159 2438 1159 1844 
L 1159 0 
L 581 0 
L 581 3500 
L 1159 3500 
L 1159 2956 
Q 1341 3275 1631 3429 
Q 1922 3584 2338 3584 
Q 2397 3584 2469 3576 
Q 2541 3569 2628 3553 
L 2631 2963 
z
" id="DejaVuSans-72" transform="scale(0.015625)"/>
       <path d="M 2194 1759 
Q 1497 1759 1228 1600 
Q 959 1441 959 1056 
Q 959 750 1161 570 
Q 1363 391 1709 391 
Q 2188 391 2477 730 
Q 2766 1069 2766 1631 
L 2766 1759 
L 2194 1759 
z
M 3341 1997 
L 3341 0 
L 2766 0 
L 2766 531 
Q 2569 213 2275 61 
Q 1981 -91 1556 -91 
Q 1019 -91 701 211 
Q 384 513 384 1019 
Q 384 1609 779 1909 
Q 1175 2209 1959 2209 
L 2766 2209 
L 2766 2266 
Q 2766 2663 2505 2880 
Q 2244 3097 1772 3097 
Q 1472 3097 1187 3025 
Q 903 2953 641 2809 
L 641 3341 
Q 956 3463 1253 3523 
Q 1550 3584 1831 3584 
Q 2591 3584 2966 3190 
Q 3341 2797 3341 1997 
z
" id="DejaVuSans-61" transform="scale(0.015625)"/>
       <path d="M 3513 2113 
L 3513 0 
L 2938 0 
L 2938 2094 
Q 2938 2591 2744 2837 
Q 2550 3084 2163 3084 
Q 1697 3084 1428 2787 
Q 1159 2491 1159 1978 
L 1159 0 
L 581 0 
L 581 3500 
L 1159 3500 
L 1159 2956 
Q 1366 3272 1645 3428 
Q 1925 3584 2291 3584 
Q 2894 3584 3203 3211 
Q 3513 2838 3513 2113 
z
" id="DejaVuSans-6e" transform="scale(0.015625)"/>
       <path id="DejaVuSans-20" transform="scale(0.015625)"/>
       <path d="M 1159 525 
L 1159 -1331 
L 581 -1331 
L 581 3500 
L 1159 3500 
L 1159 2969 
Q 1341 3281 1617 3432 
Q 1894 3584 2278 3584 
Q 2916 3584 3314 3078 
Q 3713 2572 3713 1747 
Q 3713 922 3314 415 
Q 2916 -91 2278 -91 
Q 1894 -91 1617 61 
Q 1341 213 1159 525 
z
M 3116 1747 
Q 3116 2381 2855 2742 
Q 2594 3103 2138 3103 
Q 1681 3103 1420 2742 
Q 1159 2381 1159 1747 
Q 1159 1113 1420 752 
Q 1681 391 2138 391 
Q 2594 391 2855 752 
Q 3116 1113 3116 1747 
z
" id="DejaVuSans-70" transform="scale(0.015625)"/>
       <path d="M 1959 3097 
Q 1497 3097 1228 2736 
Q 959 2375 959 1747 
Q 959 1119 1226 758 
Q 1494 397 1959 397 
Q 2419 397 2687 759 
Q 2956 1122 2956 1747 
Q 2956 2369 2687 2733 
Q 2419 3097 1959 3097 
z
M 1959 3584 
Q 2709 3584 3137 3096 
Q 3566 2609 3566 1747 
Q 3566 888 3137 398 
Q 2709 -91 1959 -91 
Q 1206 -91 779 398 
Q 353 888 353 1747 
Q 353 2609 779 3096 
Q 1206 3584 1959 3584 
z
" id="DejaVuSans-6f" transform="scale(0.015625)"/>
       <path d="M 1172 4494 
L 1172 3500 
L 2356 3500 
L 2356 3053 
L 1172 3053 
L 1172 1153 
Q 1172 725 1289 603 
Q 1406 481 1766 481 
L 2356 481 
L 2356 0 
L 1766 0 
Q 1100 0 847 248 
Q 594 497 594 1153 
L 594 3053 
L 172 3053 
L 172 3500 
L 594 3500 
L 594 4494 
L 1172 4494 
z
" id="DejaVuSans-74" transform="scale(0.015625)"/>
       <path d="M 603 4863 
L 1178 4863 
L 1178 0 
L 603 0 
L 603 4863 
z
" id="DejaVuSans-6c" transform="scale(0.015625)"/>
       <path d="M 1831 0 
L 50 4666 
L 709 4666 
L 2188 738 
L 3669 4666 
L 4325 4666 
L 2547 0 
L 1831 0 
z
" id="DejaVuSans-56" transform="scale(0.015625)"/>
      </defs>
      <use xlink:href="#DejaVuSans-4d"/>
      <use x="86.279297" xlink:href="#DejaVuSans-65"/>
      <use x="147.802734" xlink:href="#DejaVuSans-6d"/>
      <use x="245.214844" xlink:href="#DejaVuSans-62"/>
      <use x="308.691406" xlink:href="#DejaVuSans-72"/>
      <use x="349.804688" xlink:href="#DejaVuSans-61"/>
      <use x="411.083984" xlink:href="#DejaVuSans-6e"/>
      <use x="474.462891" xlink:href="#DejaVuSans-65"/>
      <use x="535.986328" xlink:href="#DejaVuSans-20"/>
      <use x="567.773438" xlink:href="#DejaVuSans-70"/>
      <use x="631.25" xlink:href="#DejaVuSans-6f"/>
      <use x="692.431641" xlink:href="#DejaVuSans-74"/>
      <use x="731.640625" xlink:href="#DejaVuSans-65"/>
      <use x="793.164062" xlink:href="#DejaVuSans-6e"/>
      <use x="856.542969" xlink:href="#DejaVuSans-74"/>
      <use x="895.751953" xlink:href="#DejaVuSans-69"/>
      <use x="923.535156" xlink:href="#DejaVuSans-61"/>
      <use x="984.814453" xlink:href="#DejaVuSans-6c"/>
      <use x="1012.597656" xlink:href="#DejaVuSans-20"/>
      <use x="1044.384766" xlink:href="#DejaVuSans-28"/>
      <use x="1083.398438" xlink:href="#DejaVuSans-6d"/>
      <use x="1180.810547" xlink:href="#DejaVuSans-56"/>
      <use x="1249.21875" xlink:href="#DejaVuSans-29"/>
     </g>
    </g>
   </g>
   <g id="line2d_15">
    <path clip-path="url(#p6ae9c80696)" d="M 69.218182 150.528 
L 69.370364 189.280157 
L 69.624 194.228366 
L 70.080545 197.811778 
L 70.182 198.092275 
L 70.232727 198.006749 
L 70.486364 197.562446 
L 70.638545 197.762491 
L 70.942909 198.784459 
L 71.754545 201.625675 
L 72.261818 202.616477 
L 72.718364 203.108616 
L 72.819818 202.746941 
L 72.972 200.952336 
L 73.276364 196.568746 
L 73.580727 194.445806 
L 73.682182 194.351582 
L 73.732909 194.401594 
L 73.935818 195.06551 
L 75.406909 201.681485 
L 75.863455 202.453397 
L 76.370727 202.908571 
L 76.472182 202.96728 
L 76.573636 202.444699 
L 76.928727 200.242757 
L 77.131636 199.962984 
L 77.283818 200.055758 
L 77.588182 200.612405 
L 77.689636 200.747218 
L 77.841818 200.095622 
L 78.146182 199.068581 
L 78.196909 198.935942 
L 78.653455 192.806309 
L 78.754909 192.616411 
L 79.008545 190.430414 
L 79.059273 190.37533 
L 79.11 190.42679 
L 79.262182 191.04432 
L 79.718727 194.535682 
L 79.972364 196.317965 
L 80.023091 196.26143 
L 80.124545 195.834523 
L 80.378182 191.627059 
L 80.479636 191.324818 
L 80.530364 191.349461 
L 80.682545 191.878565 
L 80.834727 192.80341 
L 80.885455 192.783115 
L 81.139091 191.280605 
L 81.240545 191.466878 
L 81.494182 192.938947 
L 81.849273 194.797334 
L 82.052182 194.874888 
L 82.153636 195.022747 
L 82.458 193.428187 
L 82.660909 191.131296 
L 82.914545 189.477302 
L 83.016 189.522965 
L 83.168182 190.099181 
L 83.574 192.998381 
L 84.233455 197.467498 
L 84.284182 197.395018 
L 84.639273 195.432984 
L 84.740727 195.506189 
L 84.943636 196.088203 
L 85.349455 197.632027 
L 85.755273 194.652374 
L 86.110364 189.770846 
L 86.211818 189.55993 
L 86.262545 189.599069 
L 86.414727 190.125998 
L 86.820545 192.685267 
L 86.922 192.547555 
L 87.074182 192.393173 
L 87.226364 192.613512 
L 87.48 193.410067 
L 87.784364 191.819856 
L 87.885818 191.940898 
L 88.088727 192.771518 
L 89.001818 197.663194 
L 89.052545 197.583466 
L 89.154 196.166482 
L 89.407636 192.208349 
L 89.762727 189.807811 
L 90.067091 185.523518 
L 90.320727 184.243522 
L 90.422182 184.329773 
L 90.574364 185.024131 
L 90.929455 188.131349 
L 91.588909 193.786963 
L 91.741091 189.725909 
L 91.994727 184.376885 
L 92.096182 184.165968 
L 92.197636 184.516046 
L 92.451273 186.630288 
L 92.857091 190.545658 
L 92.907818 190.447085 
L 93.009273 189.873043 
L 93.262909 188.154542 
L 93.364364 188.112504 
L 93.516545 188.607542 
L 93.618 188.951822 
L 93.871636 188.01973 
L 93.922364 188.069741 
L 94.074545 188.646682 
L 94.480364 191.57125 
L 94.784727 193.718832 
L 94.835455 193.703611 
L 95.139818 192.455506 
L 96.154364 180.631118 
L 96.408 180.510802 
L 96.560182 181.109486 
L 96.864545 183.824587 
L 97.067455 185.072693 
L 97.118182 185.177064 
L 97.168909 185.118355 
L 97.422545 183.852854 
L 97.524 184.054349 
L 97.726909 185.363338 
L 98.183455 188.363285 
L 98.538545 185.585126 
L 98.589273 185.62499 
L 98.741455 186.219326 
L 99.147273 189.384528 
L 99.857455 194.537131 
L 100.364727 196.702109 
L 100.872 197.954563 
L 101.227091 198.503237 
L 101.328545 197.597237 
L 101.632909 195.152486 
L 101.785091 194.926349 
L 101.937273 195.075658 
L 102.241636 195.892507 
L 103.104 198.324211 
L 103.662 199.230936 
L 103.915636 199.458523 
L 104.118545 198.02052 
L 104.422909 196.513661 
L 104.625818 196.386821 
L 104.828727 196.658621 
L 105.031636 196.994203 
L 105.234545 196.164307 
L 105.488182 195.491693 
L 105.640364 195.535181 
L 105.741818 195.603312 
L 105.843273 194.50524 
L 106.147636 190.218048 
L 106.299818 189.902035 
L 106.553455 186.42227 
L 106.604182 186.381682 
L 106.654909 186.477355 
L 106.857818 187.235496 
L 106.908545 187.18331 
L 107.162182 186.859325 
L 107.365091 186.364286 
L 107.466545 186.578102 
L 107.669455 187.721837 
L 108.176727 191.706062 
L 108.227455 191.498045 
L 108.430364 190.848624 
L 108.531818 190.949371 
L 108.734727 191.735054 
L 108.836182 192.22212 
L 108.886909 192.13152 
L 109.242 188.103806 
L 109.343455 187.950874 
L 109.394182 188.005958 
L 109.546364 188.555357 
L 109.952182 191.342213 
L 110.307273 193.70941 
L 110.358 193.686216 
L 110.459455 192.691066 
L 110.763818 185.975794 
L 110.916 185.457562 
L 111.017455 185.726462 
L 111.271091 187.481928 
L 112.285636 195.443131 
L 112.792909 197.526206 
L 113.300182 198.701832 
L 113.858182 199.421558 
L 114.010364 199.557821 
L 114.111818 198.387994 
L 114.365455 195.662746 
L 114.568364 195.332237 
L 114.720545 195.53808 
L 114.822 195.70116 
L 115.024909 194.637878 
L 115.684364 184.93933 
L 115.836545 184.524019 
L 115.938 184.587802 
L 116.394545 182.321352 
L 116.496 182.161896 
L 116.597455 182.497478 
L 116.851091 184.637813 
L 117.307636 189.05112 
L 117.358364 188.944574 
L 117.510545 188.843102 
L 117.662727 189.254064 
L 118.017818 191.348011 
L 118.626545 194.966213 
L 118.880182 193.338312 
L 119.032364 191.288578 
L 119.286 186.399802 
L 119.742545 183.744859 
L 119.844 183.943454 
L 120.046909 184.003613 
L 120.909273 179.546818 
L 120.96 179.612774 
L 121.416545 181.615397 
L 121.771636 184.862501 
L 122.634 192.991133 
L 122.887636 194.475523 
L 123.039818 192.25981 
L 123.293455 188.379955 
L 123.445636 188.025528 
L 123.597818 188.474904 
L 123.952909 190.721059 
L 124.663091 195.074208 
L 124.713818 195.306869 
L 124.764545 195.215544 
L 125.068909 193.053466 
L 125.221091 192.935323 
L 125.373273 193.215096 
L 125.576182 193.784064 
L 125.626909 193.718832 
L 125.982 193.022299 
L 126.134182 193.180306 
L 126.184909 193.265107 
L 126.235636 193.226693 
L 126.286364 192.915754 
L 126.590727 187.642834 
L 126.742909 187.273186 
L 126.844364 187.478304 
L 127.098 188.836579 
L 128.214 195.774365 
L 128.721273 197.38487 
L 129.228545 198.326386 
L 129.837273 198.985229 
L 129.888 199.026542 
L 129.938727 198.942466 
L 130.496727 196.430309 
L 130.648909 196.423786 
L 130.902545 196.791984 
L 132.322909 199.500562 
L 132.424364 199.552747 
L 132.576545 198.546 
L 132.880909 196.785461 
L 133.083818 196.621656 
L 133.134545 196.660795 
L 133.185273 196.425235 
L 133.692545 188.885866 
L 133.743273 188.919206 
L 133.895455 189.451934 
L 134.352 192.333014 
L 134.402727 191.844499 
L 134.707091 189.708514 
L 134.91 188.872094 
L 135.011455 188.96197 
L 135.214364 189.853474 
L 135.265091 189.654878 
L 135.518727 186.974568 
L 136.127455 175.827869 
L 136.381091 174.184022 
L 136.482545 174.282595 
L 136.634727 172.648896 
L 136.939091 168.52261 
L 137.091273 168.137016 
L 137.192727 167.847096 
L 137.243455 167.928274 
L 137.395636 169.019098 
L 137.7 173.578814 
L 138.613091 188.174837 
L 139.120364 192.748325 
L 139.221818 193.393397 
L 139.475455 189.430915 
L 139.729091 186.380232 
L 139.779818 186.303403 
L 139.830545 186.341818 
L 139.881273 186.470107 
L 139.932 186.300504 
L 140.185636 185.224901 
L 140.287091 185.400302 
L 140.49 186.451262 
L 141.504545 193.655774 
L 141.555273 193.281778 
L 141.961091 189.091709 
L 142.113273 188.635085 
L 142.366909 185.976518 
L 142.417636 185.927957 
L 142.468364 185.991739 
L 142.620545 186.649858 
L 143.127818 190.565227 
L 143.28 191.592269 
L 143.330727 191.506018 
L 143.584364 189.083736 
L 144.091636 183.051226 
L 144.243818 182.469211 
L 144.345273 182.673605 
L 144.548182 183.949978 
L 144.852545 185.86345 
L 145.004727 185.915635 
L 145.156909 186.393278 
L 145.512 188.729309 
L 146.019273 192.343886 
L 146.07 192.212698 
L 146.323636 190.904434 
L 146.425091 190.869643 
L 146.577273 191.185656 
L 146.830909 192.064838 
L 146.881636 191.98656 
L 147.186 191.203776 
L 147.287455 191.282779 
L 147.490364 191.850298 
L 147.591818 192.257635 
L 147.642545 192.146016 
L 148.048364 187.950874 
L 148.200545 186.960797 
L 148.454182 184.749432 
L 148.758545 182.189438 
L 148.961455 181.073246 
L 149.062909 181.379112 
L 149.265818 182.356867 
L 149.367273 181.610323 
L 149.570182 180.306408 
L 149.671636 180.369466 
L 149.823818 181.152974 
L 150.229636 185.169091 
L 150.381818 186.501274 
L 150.584727 185.416973 
L 150.635455 185.431469 
L 150.787636 186.046824 
L 151.244182 189.707789 
L 151.396364 190.399248 
L 151.65 189.868694 
L 151.700727 189.903485 
L 151.852909 190.286904 
L 152.258727 192.273581 
L 152.461636 193.165085 
L 152.766 191.139269 
L 152.867455 191.134195 
L 153.019636 191.487173 
L 153.273273 192.42144 
L 153.780545 187.534114 
L 153.831273 187.570354 
L 153.932727 187.784894 
L 154.034182 186.756403 
L 154.338545 182.972222 
L 154.389273 182.901192 
L 154.44 182.951203 
L 154.592182 183.644112 
L 154.947273 185.801117 
L 154.998 185.75183 
L 155.150182 184.857427 
L 155.403818 181.384186 
L 155.454545 181.274016 
L 155.505273 181.311706 
L 155.657455 182.052451 
L 155.961818 184.647235 
L 156.012545 184.308754 
L 156.164727 183.604973 
L 156.215455 183.647736 
L 156.367636 184.387032 
L 156.672 186.811488 
L 156.722727 186.471557 
L 156.874909 185.7714 
L 156.976364 185.980142 
L 157.027091 186.20773 
L 157.331455 184.278312 
L 157.382182 184.37616 
L 157.585091 185.557584 
L 158.802545 194.711083 
L 159.309818 196.519459 
L 159.462 196.815178 
L 159.512727 196.529606 
L 160.222909 184.653034 
L 160.324364 184.563158 
L 160.476545 185.057472 
L 160.780909 187.260864 
L 161.694 194.174006 
L 161.846182 194.762544 
L 161.998364 192.958517 
L 162.353455 185.51627 
L 162.505636 185.069069 
L 162.607091 185.31695 
L 162.860727 186.296155 
L 162.911455 186.24397 
L 163.012909 185.971445 
L 163.520182 182.959176 
L 163.570909 182.97947 
L 163.723091 183.568008 
L 163.926 184.584178 
L 164.128909 184.136251 
L 164.382545 181.884298 
L 164.484 182.145226 
L 164.788364 183.699197 
L 164.839091 183.674554 
L 164.991273 181.979246 
L 165.244909 180.17087 
L 165.346364 180.33685 
L 165.549273 181.672656 
L 166.817455 193.504291 
L 166.868182 193.481822 
L 167.121818 191.537909 
L 167.578364 187.628338 
L 167.679818 187.594997 
L 167.832 187.979141 
L 168.187091 189.61284 
L 168.288545 188.269786 
L 168.542182 185.494526 
L 168.643636 185.429294 
L 168.795818 185.951875 
L 169.303091 188.245142 
L 169.455273 188.855424 
L 169.506 188.769898 
L 169.658182 186.541862 
L 169.962545 182.232202 
L 170.064 182.023459 
L 170.114727 182.088691 
L 170.266909 182.775077 
L 170.469818 184.062322 
L 170.520545 183.954326 
L 170.774182 183.203434 
L 170.875636 183.227352 
L 171.078545 182.557637 
L 171.332182 180.794198 
L 171.890182 174.459446 
L 171.991636 174.6276 
L 172.296 176.509906 
L 172.346727 176.31131 
L 172.549636 175.331381 
L 172.651091 175.628549 
L 172.904727 176.976677 
L 172.955455 176.899848 
L 173.107636 176.76576 
L 173.158364 176.851286 
L 173.209091 176.82012 
L 173.513455 173.732472 
L 174.172909 156.427872 
L 174.223636 156.627917 
L 174.629455 158.510947 
L 174.933818 158.962498 
L 175.086 158.272488 
L 175.593273 150.90707 
L 175.644 150.81792 
L 175.745455 151.428926 
L 175.999091 155.818315 
L 176.151273 157.098312 
L 176.252727 157.071494 
L 176.354182 157.443317 
L 176.557091 158.166667 
L 176.658545 158.567482 
L 176.76 159.555384 
L 176.810727 159.482904 
L 177.216545 152.986522 
L 177.368727 151.77973 
L 177.419455 151.85076 
L 177.571636 153.200338 
L 177.673091 153.803371 
L 177.723818 153.67943 
L 177.774545 153.474312 
L 177.926727 150.385939 
L 178.180364 145.878408 
L 178.332545 144.468672 
L 178.789091 137.240966 
L 178.839818 137.20835 
L 178.941273 137.793989 
L 179.144182 141.149088 
L 179.651455 155.459539 
L 180.057273 165.141418 
L 180.513818 171.058685 
L 180.564545 170.762966 
L 180.767455 167.79781 
L 181.071818 164.038272 
L 181.173273 163.81141 
L 181.274727 164.175259 
L 181.376182 164.802936 
L 181.426909 164.672472 
L 181.528364 164.481125 
L 181.731273 164.87904 
L 181.984909 163.696891 
L 182.086364 164.131771 
L 182.492182 167.536157 
L 182.542909 167.10635 
L 182.644364 165.171134 
L 183.151636 153.451118 
L 183.303818 152.64659 
L 183.354545 152.669059 
L 183.658909 152.73719 
L 183.760364 153.238752 
L 183.811091 153.145978 
L 183.912545 152.857507 
L 183.963273 152.945933 
L 184.115455 154.265069 
L 184.572 161.390578 
L 184.622727 160.734634 
L 184.876364 158.065195 
L 185.028545 158.17319 
L 185.180727 159.127027 
L 185.485091 163.620062 
L 185.840182 168.403742 
L 186.195273 171.337008 
L 186.246 171.315989 
L 186.398182 169.145938 
L 186.753273 162.888014 
L 186.804 162.787267 
L 186.854727 162.86917 
L 187.057636 163.940424 
L 187.159091 163.836778 
L 187.260545 164.149891 
L 187.463455 166.234416 
L 187.818545 171.82045 
L 187.869273 171.453701 
L 188.122909 170.089627 
L 188.275091 169.780862 
L 188.325818 169.82725 
L 188.478 170.510736 
L 188.680909 171.551549 
L 188.731636 171.417461 
L 189.441818 158.5008 
L 189.746182 152.84881 
L 189.796909 152.858232 
L 189.847636 153.007541 
L 189.898364 152.84591 
L 190.152 152.189966 
L 190.202727 152.35667 
L 190.253455 152.511778 
L 190.405636 151.900046 
L 190.507091 152.496557 
L 190.760727 156.699672 
L 191.420182 168.736426 
L 191.673818 171.585614 
L 191.724545 171.305117 
L 191.826 171.134064 
L 191.927455 171.374698 
L 191.978182 171.306566 
L 192.130364 171.223939 
L 192.485455 165.919853 
L 192.536182 165.974213 
L 192.789818 166.998355 
L 192.840545 166.930224 
L 192.942 166.866442 
L 193.043455 167.12592 
L 193.246364 168.688589 
L 193.5 170.555674 
L 193.804364 170.889082 
L 194.007273 170.562922 
L 194.058 170.625254 
L 194.159455 170.80573 
L 194.362364 170.291122 
L 194.463818 170.362152 
L 194.616 169.928722 
L 195.021818 166.593917 
L 195.123273 166.335163 
L 195.224727 164.904408 
L 195.681273 152.427701 
L 195.934909 151.049131 
L 195.985636 151.07015 
L 196.087091 151.618099 
L 196.340727 153.510552 
L 196.492909 153.427925 
L 196.695818 154.02371 
L 196.746545 153.922963 
L 196.848 153.740314 
L 196.898727 153.787426 
L 196.949455 153.727992 
L 197.101636 152.000794 
L 197.355273 149.687232 
L 197.507455 149.627798 
L 197.608909 150.006144 
L 197.811818 152.309558 
L 198.065455 155.149325 
L 198.268364 156.261893 
L 198.420545 156.993941 
L 198.775636 157.664381 
L 198.826364 157.598424 
L 198.927818 157.245446 
L 199.130727 154.049078 
L 199.891636 139.353034 
L 199.993091 139.066013 
L 200.043818 139.079784 
L 200.145273 139.332739 
L 200.348182 140.443133 
L 200.398909 140.250336 
L 200.956909 131.59115 
L 201.058364 131.130178 
L 201.159818 131.68175 
L 201.413455 134.555582 
L 201.819273 143.492366 
L 202.174364 149.784355 
L 202.225091 149.485013 
L 202.326545 148.944312 
L 202.377273 148.96823 
L 202.428 149.157403 
L 202.681636 145.361626 
L 202.783091 145.692134 
L 203.087455 149.53285 
L 203.138182 148.852987 
L 203.391818 145.000675 
L 203.442545 144.94559 
L 203.544 145.488466 
L 203.848364 147.670838 
L 203.949818 147.952786 
L 204.051273 147.733171 
L 204.102 147.760714 
L 204.304909 148.847914 
L 204.355636 148.718899 
L 204.558545 147.815798 
L 204.609273 147.836093 
L 204.710727 148.291992 
L 205.420909 154.231728 
L 205.471636 154.166496 
L 205.623818 152.800973 
L 206.131091 138.464429 
L 206.181818 138.373104 
L 206.587636 140.232216 
L 206.841273 143.44453 
L 206.892 143.361902 
L 207.094909 139.477699 
L 207.399273 135.25284 
L 207.45 135.275309 
L 207.602182 136.803187 
L 207.855818 139.503792 
L 208.058727 141.196925 
L 208.464545 144.999226 
L 208.667455 145.83492 
L 209.479091 152.534971 
L 209.834182 156.856229 
L 209.935636 156.230002 
L 210.087818 152.746613 
L 210.290727 150.243154 
L 210.493636 148.838491 
L 210.595091 149.136384 
L 211.051636 152.076898 
L 211.102364 152.253749 
L 211.305273 151.005643 
L 211.406727 151.565914 
L 211.711091 155.772653 
L 212.015455 158.414549 
L 212.269091 160.791893 
L 212.827091 168.482021 
L 212.877818 168.297197 
L 213.131455 165.002256 
L 213.892364 150.359846 
L 213.943091 150.537422 
L 214.298182 153.672182 
L 214.501091 154.720243 
L 214.653273 155.843683 
L 214.754727 157.157021 
L 214.805455 156.903341 
L 215.008364 154.31508 
L 215.109818 154.74996 
L 215.211273 155.642914 
L 215.262 155.54869 
L 215.363455 155.51245 
L 215.464909 155.890795 
L 215.718545 158.457312 
L 215.921455 160.273661 
L 215.972182 160.263514 
L 216.073636 160.286707 
L 216.225818 161.081088 
L 216.580909 163.41132 
L 216.733091 164.51664 
L 217.138909 169.390195 
L 217.189636 169.294522 
L 217.392545 167.07301 
L 217.646182 165.411768 
L 217.747636 165.60239 
L 218.001273 167.133168 
L 218.052 166.810632 
L 218.356364 165.468302 
L 218.457818 165.212448 
L 218.812909 159.980842 
L 218.863636 160.02143 
L 219.015818 160.989038 
L 219.472364 164.418792 
L 219.523091 163.90056 
L 219.726 162.187858 
L 219.776727 162.232795 
L 219.928909 163.295352 
L 220.182545 165.150115 
L 220.334727 166.114824 
L 220.486909 167.601389 
L 220.537636 167.594141 
L 220.588364 167.438309 
L 220.994182 163.652678 
L 221.197091 160.986864 
L 221.653636 153.19164 
L 221.704364 153.166272 
L 221.805818 153.707698 
L 222.059455 157.370837 
L 223.327636 180.299885 
L 223.632 181.477685 
L 223.784182 182.128555 
L 223.834909 182.032157 
L 224.037818 181.655261 
L 224.139273 181.777752 
L 224.342182 182.572858 
L 224.494364 183.219379 
L 224.798727 182.294534 
L 224.900182 182.405429 
L 225.001636 182.711294 
L 225.052364 182.496029 
L 225.559636 178.138531 
L 225.610364 178.095043 
L 225.661091 178.160275 
L 225.813273 178.838688 
L 226.117636 180.285389 
L 226.320545 180.830438 
L 226.624909 182.572858 
L 227.030727 185.358989 
L 227.081455 185.256067 
L 227.335091 184.74001 
L 227.487273 185.041526 
L 227.791636 186.506347 
L 228.096 188.067566 
L 228.146727 188.002334 
L 228.552545 186.836856 
L 228.654 185.758354 
L 228.958364 182.128555 
L 229.059818 181.937933 
L 229.110545 181.985045 
L 229.262727 182.540242 
L 229.617818 185.061096 
L 230.429455 190.810934 
L 230.480182 190.781942 
L 230.835273 188.920656 
L 230.936727 188.955446 
L 231.139636 189.485275 
L 231.291818 190.035398 
L 231.342545 189.939725 
L 231.494727 189.033725 
L 232.204909 179.387362 
L 232.255636 179.496082 
L 232.458545 180.713021 
L 234.031091 193.406443 
L 234.487636 194.877787 
L 234.589091 194.710358 
L 234.994909 193.529659 
L 235.147091 193.519512 
L 235.35 193.785514 
L 235.654364 194.453779 
L 235.755818 193.637654 
L 236.364545 185.97072 
L 236.466 185.99029 
L 236.618182 186.507072 
L 236.668909 186.76945 
L 236.719636 186.51287 
L 236.922545 184.171766 
L 236.973273 184.12103 
L 237.024 184.208006 
L 237.226909 185.380008 
L 237.632727 188.882966 
L 237.683455 188.805413 
L 237.937091 188.034226 
L 238.089273 188.411846 
L 238.14 188.546659 
L 238.444364 186.565781 
L 238.596545 187.062994 
L 238.647273 187.245643 
L 238.698 187.055021 
L 238.850182 185.696021 
L 239.205273 181.232702 
L 239.256 181.154424 
L 239.306727 181.195013 
L 239.458909 181.873426 
L 239.611091 182.673605 
L 239.763273 182.261918 
L 239.814 182.29381 
L 239.966182 182.9628 
L 240.118364 183.930408 
L 240.169091 183.816614 
L 240.524182 181.744411 
L 240.625636 182.043029 
L 240.879273 183.910114 
L 241.792364 191.791589 
L 242.198182 191.474126 
L 242.350364 190.191955 
L 242.705455 185.80764 
L 242.756182 185.742408 
L 242.806909 185.782272 
L 242.959091 186.361387 
L 243.263455 187.697194 
L 243.415636 187.771123 
L 243.567818 188.227022 
L 243.973636 190.123099 
L 244.024364 190.076712 
L 244.227273 189.97669 
L 244.278 190.036848 
L 244.379455 189.399749 
L 244.633091 184.934256 
L 244.886727 181.921262 
L 244.937455 181.838635 
L 244.988182 181.882123 
L 245.089636 181.991568 
L 245.140364 181.956053 
L 245.241818 181.951704 
L 245.394 182.386584 
L 245.647636 184.189162 
L 246.865091 194.2878 
L 247.372364 196.334635 
L 247.879636 197.515334 
L 248.386909 198.197371 
L 248.589818 195.751171 
L 248.792727 194.549453 
L 248.944909 194.474798 
L 249.147818 194.871989 
L 249.452182 195.714206 
L 249.807273 193.352808 
L 249.908727 193.316568 
L 250.060909 193.59779 
L 250.466727 195.159734 
L 251.024727 197.261654 
L 251.075455 197.249333 
L 251.430545 195.090154 
L 251.785636 192.625834 
L 251.887091 192.591043 
L 252.039273 192.920102 
L 252.292909 193.598515 
L 252.597273 193.350634 
L 252.749455 193.615186 
L 253.104545 194.924174 
L 253.966909 198.190848 
L 254.524909 199.391842 
L 254.575636 199.47012 
L 254.626364 199.422283 
L 255.184364 196.31724 
L 255.336545 196.486118 
L 255.691636 197.380522 
L 256.401818 199.182374 
L 256.452545 199.188173 
L 256.655455 198.300293 
L 256.807636 195.618533 
L 257.061273 193.002005 
L 257.568545 191.95177 
L 257.67 192.018451 
L 257.872909 192.607714 
L 258.430909 195.44603 
L 259.039636 198.025594 
L 259.191818 198.411912 
L 259.242545 198.34668 
L 259.902 196.165032 
L 260.409273 190.915306 
L 260.561455 190.490573 
L 260.916545 185.628614 
L 261.220909 185.198083 
L 261.322364 185.387256 
L 261.525273 186.517219 
L 262.793455 196.331011 
L 262.844182 196.132416 
L 263.402182 188.836579 
L 263.605091 188.064667 
L 263.706545 188.295878 
L 263.960182 189.787517 
L 264.670364 194.590766 
L 264.721091 194.50524 
L 264.974727 191.664749 
L 265.279091 188.022629 
L 265.380545 187.827658 
L 265.431273 187.874045 
L 265.532727 188.182085 
L 265.583455 188.099458 
L 266.090727 185.287234 
L 266.242909 185.452488 
L 266.445818 184.66608 
L 266.496545 184.687824 
L 266.648727 185.310427 
L 267.409636 189.799838 
L 267.511091 190.036123 
L 267.561818 190.004957 
L 267.714 189.932477 
L 267.866182 190.189056 
L 268.119818 191.277706 
L 268.170545 191.013154 
L 268.424182 189.114902 
L 268.525636 189.225072 
L 268.728545 190.146293 
L 268.880727 190.926902 
L 269.185091 188.988062 
L 269.235818 189.067066 
L 269.286545 188.922106 
L 269.540182 186.53244 
L 269.641636 186.690446 
L 269.844545 187.921882 
L 270.960545 195.980208 
L 271.467818 197.757418 
L 271.975091 198.760541 
L 272.076545 198.856939 
L 272.583818 195.70261 
L 272.685273 195.689563 
L 273.192545 194.245037 
L 273.243273 194.290699 
L 273.446182 194.66832 
L 273.496909 194.614685 
L 273.902727 193.757246 
L 274.054909 193.992806 
L 274.41 195.235114 
L 275.272364 198.34813 
L 275.830364 199.491139 
L 276.388364 200.14201 
L 276.844909 200.43193 
L 277.758 193.72463 
L 277.808727 193.731154 
L 277.960909 194.048616 
L 278.163818 194.727754 
L 278.518909 192.947645 
L 278.620364 193.061438 
L 278.823273 193.789138 
L 279.939273 198.793157 
L 280.040727 198.297394 
L 280.345091 196.473072 
L 280.497273 196.315066 
L 280.649455 196.489742 
L 281.004545 197.459525 
L 281.765455 199.523755 
L 281.866909 199.710754 
L 281.917636 199.593336 
L 282.374182 197.160907 
L 282.526364 197.147136 
L 282.729273 197.474021 
L 283.287273 198.937392 
L 283.439455 196.245485 
L 283.794545 190.490573 
L 283.997455 188.07264 
L 284.200364 186.113506 
L 284.251091 186.078715 
L 284.301818 186.172939 
L 284.504727 187.402925 
L 285.113455 192.936773 
L 285.164182 192.770794 
L 285.367091 192.029323 
L 285.468545 192.137318 
L 285.671455 192.958517 
L 286.584545 197.609558 
L 286.635273 197.583466 
L 287.193273 196.6434 
L 287.548364 195.258307 
L 287.700545 195.219893 
L 287.903455 195.569971 
L 288.410727 197.231213 
L 288.613636 197.861064 
L 288.664364 197.792208 
L 289.171636 196.170106 
L 289.323818 196.337534 
L 289.678909 197.238461 
L 289.729636 196.930421 
L 290.084727 194.41464 
L 290.389091 191.748826 
L 290.642727 189.807811 
L 290.744182 189.806362 
L 290.896364 190.315171 
L 291.15 191.518339 
L 291.758727 188.271235 
L 291.860182 188.511144 
L 292.113818 190.066565 
L 292.519636 192.491021 
L 292.671818 192.393173 
L 292.874727 192.356933 
L 293.077636 192.760646 
L 293.483455 194.339986 
L 293.94 196.324488 
L 293.990727 196.148362 
L 294.295091 193.535458 
L 294.396545 193.549229 
L 294.599455 194.145014 
L 295.258909 197.081179 
L 295.309636 197.015947 
L 295.411091 196.24331 
L 296.374909 184.079717 
L 296.476364 183.886195 
L 296.577818 184.162344 
L 297.288 187.80084 
L 297.338727 187.760976 
L 297.490909 187.677624 
L 297.643091 188.074814 
L 297.846 188.811211 
L 297.896727 188.796715 
L 298.048909 188.826432 
L 298.099636 188.919931 
L 298.404 186.85715 
L 298.505455 187.012258 
L 298.708364 188.161066 
L 299.266364 192.69324 
L 299.367818 192.525811 
L 299.570727 192.048168 
L 299.672182 192.116299 
L 299.875091 192.740352 
L 301.295455 198.501062 
L 301.650545 199.155557 
L 301.752 198.731549 
L 302.107091 196.609334 
L 302.157818 196.483219 
L 302.512909 192.411293 
L 302.614364 192.357658 
L 302.766545 192.757022 
L 303.223091 195.090154 
L 303.273818 194.953166 
L 303.730364 190.490573 
L 303.831818 190.547832 
L 303.984 191.068238 
L 304.034727 191.021851 
L 304.339091 185.13865 
L 304.440545 184.994414 
L 304.542 185.28071 
L 304.795636 183.360715 
L 304.897091 183.734712 
L 305.150727 186.02363 
L 305.505818 189.454109 
L 305.556545 189.285955 
L 305.708727 189.022128 
L 305.810182 189.203328 
L 306.063818 190.510867 
L 307.078364 196.710082 
L 307.585636 198.332184 
L 308.092909 199.255579 
L 308.650909 199.834694 
L 309.411818 200.289869 
L 309.868364 200.472518 
L 309.969818 200.007197 
L 310.324909 197.655946 
L 310.527818 197.40299 
L 310.68 197.520408 
L 311.035091 198.222014 
L 311.339455 198.793157 
L 311.796 196.117195 
L 312.100364 193.127395 
L 312.201818 192.983885 
L 312.252545 193.020125 
L 312.404727 193.41949 
L 312.861273 195.635928 
L 313.368545 197.80163 
L 313.47 197.326886 
L 313.926545 193.965264 
L 314.078727 193.873214 
L 314.180182 193.88771 
L 314.586 192.789638 
L 314.738182 193.009253 
L 315.042545 194.149363 
L 316.006364 198.145186 
L 316.057091 198.118368 
L 316.158545 197.688562 
L 316.310727 194.903155 
L 316.615091 191.127672 
L 316.868727 189.70199 
L 316.919455 189.661402 
L 317.223818 187.218101 
L 317.325273 187.352189 
L 317.426727 187.822584 
L 317.680364 185.801842 
L 317.731091 185.846054 
L 317.883273 186.604195 
L 318.136909 188.557531 
L 318.289091 186.056971 
L 318.593455 179.690328 
L 318.694909 179.227906 
L 318.745636 179.250374 
L 318.897818 180.048379 
L 319.252909 184.047826 
L 320.013818 192.575822 
L 320.521091 195.879461 
L 320.977636 197.589989 
L 321.484909 198.666317 
L 322.042909 199.327334 
L 322.550182 199.699157 
L 322.600909 199.6332 
L 322.956 196.982606 
L 323.311091 193.091155 
L 323.412545 192.009754 
L 323.970545 184.018109 
L 324.122727 183.478133 
L 324.173455 183.495528 
L 324.325636 184.036954 
L 324.63 186.509246 
L 324.883636 188.937326 
L 324.934364 188.884416 
L 325.238727 187.141997 
L 325.340182 187.105757 
L 325.644545 185.532941 
L 325.847455 184.753056 
L 325.898182 184.783498 
L 325.948909 184.672603 
L 326.202545 183.064272 
L 326.304 183.30563 
L 326.506909 184.741459 
L 327.064909 189.06779 
L 327.318545 189.929578 
L 327.825818 192.884587 
L 328.130182 194.553802 
L 328.180909 194.499442 
L 328.586727 193.376726 
L 328.738909 193.613736 
L 329.094 194.841547 
L 329.246182 195.398194 
L 329.296909 195.339485 
L 329.702727 194.137042 
L 329.854909 194.310269 
L 330.108545 194.957515 
L 330.818727 190.817458 
L 330.869455 190.837752 
L 331.021636 191.200152 
L 331.376727 193.009253 
L 332.188364 197.144962 
L 332.543455 198.200995 
L 332.644909 197.920498 
L 332.949273 196.168656 
L 333.558 190.285454 
L 333.608727 190.332566 
L 333.760909 190.786291 
L 334.116 192.713534 
L 334.166727 192.450432 
L 334.420364 191.022576 
L 334.521818 191.100854 
L 334.724727 191.882914 
L 334.775455 192.152539 
L 334.826182 192.033672 
L 335.079818 190.038298 
L 335.181273 190.062216 
L 335.384182 188.103806 
L 335.942182 180.98627 
L 336.043636 180.684754 
L 336.094364 180.731141 
L 336.195818 181.160222 
L 336.246545 180.983371 
L 336.449455 179.996918 
L 336.550909 180.449194 
L 336.804545 183.097613 
L 337.108909 185.808365 
L 337.261091 184.753056 
L 337.413273 184.199309 
L 337.514727 184.398629 
L 338.224909 188.109605 
L 338.833636 192.412018 
L 339.087273 191.697365 
L 339.391636 188.790917 
L 339.493091 188.769173 
L 339.645273 189.256238 
L 339.898909 190.281106 
L 339.949636 190.214424 
L 340.152545 190.063666 
L 340.304727 190.423166 
L 340.659818 192.245314 
L 340.761273 192.650477 
L 340.812 192.567125 
L 341.065636 192.007579 
L 341.167091 192.082234 
L 341.319273 192.302573 
L 341.674364 190.631909 
L 341.775818 190.845 
L 341.826545 190.726858 
L 342.283091 187.831282 
L 342.384545 187.816061 
L 342.536727 188.314723 
L 342.942545 190.70149 
L 342.993273 190.521014 
L 343.399091 188.518392 
L 343.500545 188.621314 
L 343.703455 189.459182 
L 344.109273 191.995258 
L 344.210727 191.85827 
L 344.312182 191.420491 
L 344.768727 184.994414 
L 344.819455 184.924834 
L 344.870182 184.980643 
L 345.022364 185.70037 
L 345.631091 189.376555 
L 345.935455 190.80876 
L 347.102182 197.20512 
L 347.609455 198.606158 
L 347.913818 199.14396 
L 347.964545 198.985954 
L 348.471818 192.243864 
L 348.573273 192.221395 
L 348.725455 192.606989 
L 348.826909 192.920827 
L 349.182 191.290027 
L 349.334182 191.635032 
L 349.689273 193.518062 
L 350.399455 197.144237 
L 350.500909 197.165256 
L 350.602364 196.94999 
L 350.754545 195.547502 
L 351.414 179.060477 
L 351.667636 174.603682 
L 351.718364 174.510907 
L 351.769091 174.605131 
L 351.819818 174.705154 
L 351.972 173.218589 
L 352.377818 165.221146 
L 352.428545 165.118224 
L 352.479273 165.22477 
L 352.631455 166.58232 
L 352.986545 173.038838 
L 353.798182 187.755178 
L 354.204 192.030773 
L 354.254727 192.132245 
L 354.305455 192.090206 
L 354.457636 191.658226 
L 354.812727 189.404098 
L 354.914182 189.436714 
L 355.117091 190.125998 
L 355.979455 194.498717 
L 356.030182 194.439283 
L 356.182364 193.270181 
L 356.588182 187.558757 
L 356.841818 185.727187 
L 356.943273 185.652533 
L 357.095455 186.110606 
L 357.399818 188.192957 
L 358.312909 194.763269 
L 358.820182 196.801406 
L 359.327455 197.98573 
L 359.885455 198.737347 
L 360.595636 199.299067 
L 361.102909 199.514333 
L 361.610182 195.81133 
L 361.762364 195.891058 
L 361.813091 195.91715 
L 362.016 194.05224 
L 362.168182 190.669598 
L 362.421818 186.58825 
L 362.523273 186.273686 
L 362.574 186.310651 
L 362.675455 186.575928 
L 362.929091 185.420597 
L 363.030545 185.67935 
L 363.284182 187.457285 
L 364.298727 195.77509 
L 364.806 197.924122 
L 365.313273 199.115693 
L 365.820545 199.781059 
L 366.023455 199.955736 
L 366.124909 199.428082 
L 366.48 197.104373 
L 366.682909 196.892731 
L 366.885818 197.134814 
L 367.393091 198.351029 
L 367.748182 199.096123 
L 368.154 195.251784 
L 368.255455 195.24671 
L 368.458364 195.714206 
L 369.726545 199.624502 
L 370.233818 200.340605 
L 370.335273 200.442802 
L 370.386 200.352202 
L 371.451273 187.463808 
L 371.603455 186.765101 
L 371.704909 186.942677 
L 371.907818 188.174837 
L 372.465818 192.85487 
L 372.516545 192.70991 
L 372.922364 190.560154 
L 373.023818 190.684819 
L 373.226727 191.482099 
L 373.581818 193.613736 
L 373.581818 193.613736 
" style="fill:none;stroke:#000000;stroke-linecap:square;stroke-width:1.5;"/>
   </g>
   <g id="line2d_16">
    <path clip-path="url(#p6ae9c80696)" d="M 69.218182 150.528 
L 69.370364 189.280157 
L 69.624 194.228366 
L 70.080545 197.811778 
L 70.182 198.092275 
L 70.232727 198.006749 
L 70.486364 197.562446 
L 70.638545 197.762491 
L 70.942909 198.784459 
L 71.754545 201.625675 
L 72.261818 202.616477 
L 72.718364 203.108616 
L 72.819818 202.746941 
L 72.972 200.952336 
L 73.276364 196.568746 
L 73.580727 194.445806 
L 73.682182 194.351582 
L 73.732909 194.401594 
L 73.935818 195.06551 
L 75.406909 201.681485 
L 75.863455 202.449773 
L 76.32 202.813622 
L 76.472182 202.881754 
L 76.573636 202.341778 
L 76.928727 200.075328 
L 77.131636 199.757141 
L 77.283818 199.821648 
L 77.588182 200.32321 
L 77.689636 200.439902 
L 77.841818 199.759315 
L 78.146182 198.673565 
L 78.196909 198.532229 
L 78.653455 192.29605 
L 78.754909 192.083683 
L 79.059273 189.771571 
L 79.160727 189.94045 
L 79.363636 191.04287 
L 79.972364 195.564173 
L 80.073818 195.367752 
L 80.124545 195.057538 
L 80.378182 190.79209 
L 80.479636 190.468104 
L 80.530364 190.483325 
L 80.682545 190.983437 
L 80.834727 191.884363 
L 80.885455 191.856096 
L 81.139091 190.303574 
L 81.240545 190.471728 
L 81.494182 191.906107 
L 81.849273 193.722456 
L 82.052182 193.773917 
L 82.153636 193.909454 
L 82.458 192.264883 
L 82.660909 189.923779 
L 82.914545 188.211077 
L 83.016 188.23572 
L 83.168182 188.785843 
L 83.574 191.640106 
L 84.233455 196.077331 
L 84.284182 196.002677 
L 84.639273 193.994256 
L 84.740727 194.055864 
L 84.943636 194.616134 
L 85.349455 196.130242 
L 85.755273 193.087531 
L 86.110364 188.105981 
L 86.211818 187.869696 
L 86.262545 187.897963 
L 86.414727 188.39735 
L 86.820545 190.91748 
L 86.922 190.770346 
L 87.124909 190.625386 
L 87.277091 190.946472 
L 87.48 191.555304 
L 87.784364 189.873768 
L 87.885818 189.964368 
L 88.088727 190.739179 
L 89.001818 195.448205 
L 89.052545 195.357605 
L 89.154 193.909454 
L 89.407636 189.829555 
L 89.762727 187.268112 
L 90.067091 182.794646 
L 90.320727 181.370414 
L 90.422182 181.407379 
L 90.574364 182.037955 
L 90.929455 185.053848 
L 91.588909 190.671048 
L 91.741091 186.554184 
L 91.994727 181.039181 
L 92.096182 180.775354 
L 92.146909 180.872477 
L 92.349818 182.16552 
L 92.857091 186.995587 
L 92.907818 186.891216 
L 93.009273 186.297605 
L 93.313636 184.418923 
L 93.415091 184.517496 
L 93.618 185.214754 
L 93.668727 184.973395 
L 93.871636 184.209456 
L 93.973091 184.363838 
L 94.176 185.399578 
L 94.784727 189.843326 
L 94.886182 189.669374 
L 95.139818 188.537962 
L 96.154364 176.122138 
L 96.408 175.868458 
L 96.560182 176.408434 
L 96.813818 178.533547 
L 97.067455 180.314381 
L 97.118182 180.415128 
L 97.168909 180.352795 
L 97.422545 179.03221 
L 97.473273 179.072798 
L 97.625455 179.747587 
L 98.183455 183.549888 
L 98.538545 180.689102 
L 98.589273 180.718094 
L 98.741455 181.284888 
L 99.096545 183.965198 
L 99.857455 189.560654 
L 100.364727 191.725632 
L 100.872 192.939672 
L 101.227091 193.441234 
L 101.328545 192.504792 
L 101.632909 189.90421 
L 101.835818 189.603418 
L 101.988 189.780994 
L 102.343091 190.728307 
L 103.104 192.730205 
L 103.662 193.575322 
L 103.915636 193.770293 
L 104.118545 192.262709 
L 104.422909 190.613789 
L 104.625818 190.406496 
L 104.828727 190.615963 
L 105.031636 190.905158 
L 105.234545 190.006406 
L 105.488182 189.237394 
L 105.640364 189.233045 
L 105.741818 189.275083 
L 105.843273 188.132074 
L 106.147636 183.586853 
L 106.299818 183.169368 
L 106.553455 179.44607 
L 106.604182 179.365618 
L 106.654909 179.426501 
L 106.857818 180.08172 
L 106.908545 180.003442 
L 107.162182 179.555515 
L 107.365091 178.95828 
L 107.466545 179.134406 
L 107.669455 180.239002 
L 108.176727 184.298606 
L 108.227455 184.095662 
L 108.430364 183.434645 
L 108.531818 183.531768 
L 108.734727 184.326149 
L 108.836182 184.825536 
L 108.886909 184.737835 
L 109.242 180.528922 
L 109.343455 180.327427 
L 109.394182 180.362218 
L 109.546364 180.868128 
L 109.901455 183.265042 
L 110.307273 186.100459 
L 110.358 186.080165 
L 110.459455 185.06472 
L 110.763818 178.020389 
L 110.916 177.355747 
L 111.017455 177.547094 
L 111.220364 178.769832 
L 112.539273 188.486501 
L 113.046545 190.136146 
L 113.553818 191.034173 
L 114.010364 191.482824 
L 114.111818 190.275307 
L 114.365455 187.347115 
L 114.568364 186.886142 
L 114.720545 187.018781 
L 114.822 187.142722 
L 115.024909 185.967821 
L 115.684364 175.400962 
L 115.887273 174.806626 
L 115.938 174.760238 
L 116.394545 172.01687 
L 116.496 171.762466 
L 116.546727 171.83712 
L 116.698909 172.668466 
L 117.104727 176.960006 
L 117.307636 178.626322 
L 117.459818 178.411781 
L 117.510545 178.440773 
L 117.662727 178.872754 
L 117.967091 180.712296 
L 118.626545 185.000213 
L 118.880182 183.371587 
L 119.032364 181.250098 
L 119.286 176.034437 
L 119.793273 172.906925 
L 119.844 173.019269 
L 119.996182 172.992451 
L 120.046909 172.940266 
L 120.909273 167.747798 
L 120.96 167.776066 
L 121.365818 169.310467 
L 121.619455 171.317438 
L 122.887636 183.318677 
L 122.989091 182.16552 
L 123.344182 176.701253 
L 123.445636 176.511355 
L 123.496364 176.563541 
L 123.648545 177.109315 
L 124.105091 180.144053 
L 124.713818 183.86735 
L 124.764545 183.791246 
L 125.068909 181.538568 
L 125.221091 181.370414 
L 125.373273 181.616846 
L 125.576182 182.16552 
L 125.626909 182.090866 
L 125.982 181.275466 
L 126.134182 181.393608 
L 126.184909 181.468987 
L 126.235636 181.418251 
L 126.286364 181.089917 
L 126.590727 175.408934 
L 126.742909 174.868234 
L 126.844364 174.985651 
L 127.047273 175.899624 
L 128.619818 185.077766 
L 129.127091 186.309202 
L 129.685091 187.102858 
L 129.888 187.304352 
L 129.938727 187.223174 
L 130.547455 184.458062 
L 130.699636 184.482706 
L 130.953273 184.876997 
L 132.373636 187.715314 
L 132.424364 187.717488 
L 132.576545 186.681749 
L 132.880909 184.766827 
L 133.083818 184.524019 
L 133.134545 184.545763 
L 133.185273 184.288459 
L 133.743273 175.853237 
L 133.794 175.908322 
L 133.946182 176.458445 
L 134.352 178.919866 
L 134.402727 178.406707 
L 134.757818 175.643045 
L 134.960727 174.966082 
L 135.062182 175.13641 
L 135.214364 175.822795 
L 135.265091 175.603906 
L 135.518727 172.656869 
L 136.127455 160.126526 
L 136.381091 157.875298 
L 136.482545 157.77745 
L 136.634727 155.810342 
L 136.939091 150.839664 
L 137.243455 149.562566 
L 137.294182 149.702453 
L 137.446364 150.94621 
L 137.801455 156.666331 
L 138.765273 172.827197 
L 139.221818 177.371693 
L 139.424727 174.588461 
L 139.729091 170.323738 
L 139.830545 170.234587 
L 139.881273 170.345482 
L 140.033455 169.403966 
L 140.185636 168.895157 
L 140.236364 168.915451 
L 140.388545 169.418462 
L 140.692909 171.591413 
L 141.504545 177.954432 
L 141.656727 176.206939 
L 141.961091 173.255554 
L 142.113273 172.727174 
L 142.366909 169.796083 
L 142.468364 169.729402 
L 142.620545 170.31649 
L 143.026364 173.489664 
L 143.28 175.511856 
L 143.330727 175.453872 
L 143.533636 173.688259 
L 144.193091 165.658925 
L 144.294545 165.537883 
L 144.446727 166.101053 
L 144.852545 168.707434 
L 144.954 168.68569 
L 145.055455 168.828475 
L 145.258364 169.756944 
L 145.816364 174.153581 
L 146.019273 175.669862 
L 146.07 175.574914 
L 146.374364 174.243456 
L 146.475818 174.327533 
L 146.678727 174.979853 
L 146.830909 175.535774 
L 146.881636 175.463294 
L 147.236727 174.630499 
L 147.388909 174.908098 
L 147.591818 175.669862 
L 147.642545 175.564042 
L 148.099091 170.714405 
L 148.200545 169.835222 
L 148.504909 166.831651 
L 148.961455 162.719861 
L 149.062909 162.898162 
L 149.265818 163.711387 
L 149.418 162.282082 
L 149.620909 161.165165 
L 149.722364 161.330419 
L 149.925273 162.664051 
L 150.381818 167.398445 
L 150.432545 167.073734 
L 150.584727 166.34821 
L 150.635455 166.371403 
L 150.787636 167.041843 
L 151.193455 170.634677 
L 151.396364 171.988603 
L 151.65 171.604459 
L 151.802182 171.934968 
L 152.106545 173.483141 
L 152.461636 175.506058 
L 152.766 173.488214 
L 152.867455 173.485315 
L 153.019636 173.860762 
L 153.273273 174.887078 
L 153.831273 169.538779 
L 153.882 169.610534 
L 153.932727 169.693886 
L 154.034182 168.571171 
L 154.338545 164.257886 
L 154.44 164.104229 
L 154.541455 164.394149 
L 154.947273 166.757722 
L 154.998 166.702637 
L 155.150182 165.745176 
L 155.454545 161.773272 
L 155.505273 161.764574 
L 155.606727 162.109579 
L 155.860364 164.253538 
L 155.961818 165.074736 
L 156.012545 164.737704 
L 156.164727 163.977389 
L 156.215455 164.003482 
L 156.367636 164.73408 
L 156.672 167.30712 
L 156.722727 166.978786 
L 156.874909 166.25616 
L 156.976364 166.466352 
L 157.027091 166.703362 
L 157.331455 164.595643 
L 157.432909 164.846424 
L 157.686545 166.697563 
L 158.802545 176.206939 
L 159.309818 178.567613 
L 159.462 178.99452 
L 159.512727 178.736491 
L 160.273636 165.299424 
L 160.375091 165.228394 
L 160.527273 165.728506 
L 160.831636 167.952917 
L 161.795455 175.791629 
L 161.846182 175.91267 
L 161.947636 175.056682 
L 162.150545 169.580093 
L 162.404182 165.663998 
L 162.505636 165.345086 
L 162.556364 165.361032 
L 162.708545 165.906082 
L 162.81 166.298923 
L 162.860727 166.266307 
L 163.012909 165.827803 
L 163.570909 162.187858 
L 163.672364 162.427766 
L 163.926 163.653403 
L 163.976727 163.507718 
L 164.128909 163.130098 
L 164.382545 160.621565 
L 164.433273 160.654181 
L 164.585455 161.453635 
L 164.788364 162.359635 
L 164.839091 162.332093 
L 164.940545 161.288381 
L 165.194182 158.564582 
L 165.295636 158.40875 
L 165.397091 158.710992 
L 165.650727 160.793342 
L 166.868182 173.570842 
L 167.020364 172.623528 
L 167.324727 169.382947 
L 167.578364 167.644877 
L 167.679818 167.544854 
L 167.730545 167.59559 
L 167.882727 168.056563 
L 168.187091 169.48297 
L 168.288545 168.082656 
L 168.542182 164.947896 
L 168.643636 164.776118 
L 168.694364 164.84135 
L 168.846545 165.46033 
L 169.252364 167.273054 
L 169.455273 168.091354 
L 169.506 168.015974 
L 169.658182 165.679944 
L 169.962545 160.794792 
L 170.114727 160.42152 
L 170.216182 160.699118 
L 170.469818 162.153067 
L 170.520545 162.016805 
L 170.824909 161.052096 
L 170.926364 160.871621 
L 171.230727 159.156019 
L 171.585818 154.978272 
L 171.890182 150.539597 
L 171.940909 150.446822 
L 171.991636 150.506981 
L 172.194545 151.689854 
L 172.296 152.044282 
L 172.549636 150.549019 
L 172.651091 150.752688 
L 172.904727 152.016739 
L 172.955455 151.915992 
L 173.107636 151.697102 
L 173.158364 151.76016 
L 173.209091 151.710874 
L 173.513455 148.249954 
L 173.817818 135.93995 
L 174.122182 128.226629 
L 174.223636 127.978747 
L 174.274364 128.098339 
L 174.325091 127.987445 
L 174.426545 127.825814 
L 174.578727 128.631067 
L 174.680182 128.507126 
L 174.933818 128.230253 
L 175.086 127.15465 
L 175.644 117.735874 
L 175.694727 117.764141 
L 175.846909 119.226787 
L 176.151273 123.139258 
L 176.252727 122.957333 
L 176.303455 123.000096 
L 176.76 124.950533 
L 176.810727 124.875154 
L 177.267273 116.89728 
L 177.419455 116.033318 
L 177.520909 116.581992 
L 177.673091 117.617731 
L 177.774545 117.129216 
L 177.926727 113.658874 
L 178.231091 107.588674 
L 178.383273 104.966347 
L 178.687636 97.787203 
L 178.890545 96.373118 
L 178.992 96.96673 
L 179.194909 100.284864 
L 179.651455 113.196451 
L 180.158727 126.066725 
L 180.513818 132.797218 
L 180.564545 132.779822 
L 180.716727 131.459237 
L 181.071818 127.282939 
L 181.122545 127.145952 
L 181.173273 127.174944 
L 181.325455 128.13168 
L 181.376182 128.490456 
L 181.426909 128.44117 
L 181.528364 128.375213 
L 181.731273 129.034781 
L 181.934182 127.98672 
L 181.984909 128.012088 
L 182.086364 128.520898 
L 182.492182 132.545712 
L 182.542909 132.175339 
L 182.644364 130.269115 
L 183.202364 116.673317 
L 183.405273 115.674542 
L 183.658909 115.053389 
L 183.760364 115.306344 
L 183.811091 115.096152 
L 183.963273 114.501091 
L 184.064727 115.001203 
L 184.267636 117.846768 
L 184.572 122.687707 
L 184.927091 119.076029 
L 185.028545 119.092699 
L 185.13 119.584114 
L 185.332909 122.091922 
L 186.195273 135.110779 
L 186.246 135.281107 
L 186.347455 134.34684 
L 186.804 127.174944 
L 186.854727 127.26192 
L 187.057636 128.43972 
L 187.159091 128.340422 
L 187.260545 128.644838 
L 187.463455 130.845331 
L 187.818545 137.248939 
L 187.92 136.634309 
L 188.122909 136.058818 
L 188.275091 135.945024 
L 188.376545 136.260312 
L 188.680909 138.354984 
L 188.731636 138.299174 
L 189.036 132.505123 
L 189.644727 118.56287 
L 189.847636 117.16763 
L 190.202727 115.32229 
L 190.253455 115.327363 
L 190.405636 114.231466 
L 190.456364 114.274229 
L 190.608545 115.658597 
L 190.912909 121.765762 
L 191.420182 131.424446 
L 191.673818 135.141221 
L 191.775273 135.003509 
L 192.130364 136.070414 
L 192.485455 130.810541 
L 192.536182 130.859102 
L 192.789818 131.97457 
L 192.840545 131.915861 
L 192.942 131.861501 
L 193.043455 132.141998 
L 193.246364 133.851802 
L 193.5 136.074763 
L 193.804364 136.747378 
L 193.855091 136.706789 
L 194.007273 136.577774 
L 194.159455 136.945248 
L 194.210182 136.814059 
L 194.362364 136.530662 
L 194.463818 136.657502 
L 194.514545 136.598069 
L 194.565273 136.534286 
L 194.666727 135.752227 
L 194.971091 132.731986 
L 195.123273 132.291307 
L 195.224727 130.737336 
L 195.732 115.77239 
L 196.036364 113.671195 
L 196.137818 114.169133 
L 196.29 115.052664 
L 196.391455 114.767093 
L 196.543636 114.369178 
L 196.645091 114.539506 
L 196.695818 114.446006 
L 197.050909 112.256386 
L 197.355273 107.889466 
L 197.558182 107.198006 
L 197.659636 107.519093 
L 197.862545 109.808736 
L 198.116182 111.740328 
L 198.217636 112.026624 
L 198.369818 112.832602 
L 198.420545 112.82028 
L 198.674182 112.895659 
L 198.775636 113.205149 
L 198.826364 113.131944 
L 198.927818 112.760846 
L 199.130727 109.358635 
L 199.993091 91.20312 
L 200.145273 90.774038 
L 200.297455 91.070482 
L 200.348182 91.031342 
L 200.449636 89.464325 
L 200.906182 79.62589 
L 201.109091 77.374661 
L 201.261273 77.800118 
L 201.413455 78.975019 
L 201.667091 83.239742 
L 202.174364 92.530954 
L 202.377273 91.62133 
L 202.428 91.800355 
L 202.580182 88.798958 
L 202.732364 87.655224 
L 202.833818 88.405392 
L 203.087455 91.964885 
L 203.138182 91.321987 
L 203.442545 87.004354 
L 203.544 87.468226 
L 203.848364 89.720904 
L 203.949818 90.041266 
L 204.102 89.815853 
L 204.203455 90.341333 
L 204.304909 90.947266 
L 204.355636 90.834197 
L 204.609273 89.831074 
L 204.710727 90.252182 
L 205.167273 94.969181 
L 205.370182 96.661589 
L 205.471636 96.915994 
L 205.573091 96.425304 
L 205.674545 93.953736 
L 206.131091 79.455562 
L 206.232545 79.150421 
L 206.283273 79.406275 
L 206.334 79.28016 
L 206.435455 78.770626 
L 206.486182 78.795269 
L 206.638364 79.967995 
L 206.841273 82.028602 
L 206.892 81.85465 
L 207.094909 77.151422 
L 207.45 70.869581 
L 207.500727 70.893499 
L 207.652909 72.314107 
L 207.754364 73.620922 
L 207.805091 73.485384 
L 207.906545 73.673832 
L 208.058727 74.671882 
L 208.464545 77.879122 
L 208.667455 78.640162 
L 209.124 81.274085 
L 209.276182 82.204003 
L 209.529818 86.245488 
L 209.834182 91.226314 
L 209.884909 91.350254 
L 209.935636 91.185 
L 210.037091 89.541878 
L 210.24 86.535408 
L 210.341455 86.359282 
L 210.493636 85.655501 
L 210.595091 86.25636 
L 211.102364 91.3662 
L 211.254545 90.566021 
L 211.305273 90.663144 
L 211.457455 92.155507 
L 212.573455 111.796138 
L 212.877818 117.342307 
L 213.03 116.992954 
L 213.182182 114.985982 
L 213.892364 102.104837 
L 213.993818 102.59915 
L 214.501091 106.615267 
L 214.653273 107.832931 
L 214.754727 109.276733 
L 214.805455 109.112928 
L 215.008364 106.505822 
L 215.109818 106.957373 
L 215.211273 107.94455 
L 215.262 107.895264 
L 215.363455 107.918458 
L 215.515636 108.767198 
L 216.479455 117.847493 
L 216.580909 118.23961 
L 216.783818 120.578539 
L 217.189636 126.630619 
L 217.240364 126.466814 
L 217.646182 123.733594 
L 217.747636 124.088746 
L 218.001273 126.167472 
L 218.052 125.94061 
L 218.305636 125.096218 
L 218.457818 124.743965 
L 218.863636 119.151408 
L 219.015818 120.058133 
L 219.472364 123.648792 
L 219.523091 123.142157 
L 219.726 121.287394 
L 219.776727 121.307688 
L 219.928909 122.389814 
L 220.233273 124.76281 
L 220.537636 127.463414 
L 220.588364 127.392384 
L 221.044909 123.342202 
L 221.146364 122.125987 
L 221.704364 111.747576 
L 221.755091 111.795413 
L 221.907273 113.000755 
L 222.211636 118.418635 
L 223.530545 145.341331 
L 223.885636 148.258651 
L 224.037818 148.683384 
L 224.291455 150.338827 
L 224.494364 151.992821 
L 224.545091 151.962379 
L 224.748 151.750013 
L 224.900182 152.145029 
L 225.001636 152.659637 
L 225.052364 152.53787 
L 225.610364 148.20719 
L 225.711818 148.408685 
L 226.574182 152.732117 
L 227.030727 156.586603 
L 227.132182 156.451066 
L 227.284364 156.25537 
L 227.385818 156.399605 
L 227.588727 157.269365 
L 228.146727 160.659979 
L 228.197455 160.588949 
L 228.552545 159.793118 
L 228.654 158.697221 
L 228.958364 154.651387 
L 229.110545 154.3332 
L 229.262727 154.7862 
L 229.567091 156.929434 
L 230.480182 164.42459 
L 230.835273 162.819158 
L 230.936727 162.914107 
L 231.139636 163.593245 
L 231.291818 164.28253 
L 231.342545 164.224546 
L 231.494727 163.359134 
L 231.849818 156.553262 
L 232.103455 152.598754 
L 232.204909 152.246501 
L 232.255636 152.263171 
L 232.407818 152.880701 
L 232.712182 155.616821 
L 233.878909 167.256384 
L 234.436909 170.504213 
L 234.538364 170.706432 
L 234.589091 170.645549 
L 235.045636 169.769266 
L 235.197818 169.91495 
L 235.502182 170.652797 
L 235.654364 171.11087 
L 235.755818 170.317939 
L 236.415273 161.505821 
L 236.516727 161.542061 
L 236.668909 162.060293 
L 236.719636 161.76385 
L 236.922545 159.035702 
L 237.024 158.922634 
L 237.176182 159.581477 
L 237.582 163.11995 
L 237.632727 163.555555 
L 237.683455 163.506994 
L 237.937091 162.737981 
L 238.089273 163.149667 
L 238.14 163.305499 
L 238.444364 161.170238 
L 238.495091 161.247067 
L 238.647273 161.829082 
L 238.698 161.630486 
L 238.850182 160.159142 
L 239.205273 154.964501 
L 239.306727 154.753584 
L 239.357455 154.826789 
L 239.509636 155.579131 
L 239.611091 155.961101 
L 239.814 155.398656 
L 239.915455 155.708146 
L 240.118364 156.984518 
L 240.169091 156.869275 
L 240.524182 154.491206 
L 240.625636 154.739813 
L 240.828545 156.166944 
L 241.488 163.502645 
L 241.843091 166.153963 
L 242.096727 166.180781 
L 242.198182 166.339512 
L 242.350364 165.124022 
L 242.756182 160.253366 
L 242.857636 160.35049 
L 243.060545 161.403624 
L 243.263455 162.138571 
L 243.415636 162.219749 
L 243.567818 162.716962 
L 243.973636 164.93485 
L 244.075091 164.890637 
L 244.227273 164.929776 
L 244.278 165.018926 
L 244.328727 164.894986 
L 244.531636 162.086386 
L 244.886727 156.060398 
L 244.988182 155.85383 
L 245.038909 155.885722 
L 245.292545 155.612472 
L 245.343273 155.707421 
L 245.495455 156.411926 
L 245.799818 159.142973 
L 246.915818 170.203421 
L 247.473818 173.387467 
L 248.031818 175.329206 
L 248.386909 176.082998 
L 248.539091 174.218813 
L 248.792727 172.203869 
L 248.944909 172.039339 
L 249.097091 172.250981 
L 249.452182 173.221488 
L 249.858 170.503488 
L 249.959455 170.515085 
L 250.162364 171.011573 
L 250.720364 173.46647 
L 251.075455 174.760238 
L 251.379818 172.956936 
L 251.887091 169.588066 
L 251.988545 169.712006 
L 252.292909 170.488267 
L 252.343636 170.412163 
L 252.597273 170.164282 
L 252.749455 170.423035 
L 253.053818 171.607358 
L 254.220545 176.718648 
L 254.626364 177.646392 
L 255.184364 174.277522 
L 255.235091 174.289843 
L 255.438 174.608755 
L 255.945273 176.14968 
L 256.452545 177.536222 
L 256.604727 176.936088 
L 256.706182 176.091696 
L 257.010545 171.061584 
L 257.213455 170.403466 
L 257.365636 169.797533 
L 257.619273 169.107523 
L 257.720727 169.194499 
L 257.923636 169.847544 
L 258.430909 172.725 
L 259.141091 176.392488 
L 259.191818 176.521502 
L 259.242545 176.501208 
L 259.445455 175.711901 
L 259.699091 174.971155 
L 259.851273 174.829819 
L 260.206364 170.394768 
L 260.46 168.043517 
L 260.561455 167.61661 
L 260.967273 161.586998 
L 261.271636 160.727386 
L 261.322364 160.784645 
L 261.474545 161.397826 
L 261.829636 164.362258 
L 262.793455 172.872134 
L 262.844182 172.746019 
L 263.503636 164.15569 
L 263.605091 163.886064 
L 263.655818 163.909258 
L 263.808 164.436912 
L 264.163091 167.062138 
L 264.670364 170.8224 
L 264.721091 170.778912 
L 264.974727 167.858693 
L 265.279091 163.739654 
L 265.431273 163.406246 
L 265.532727 163.633834 
L 265.583455 163.515691 
L 266.090727 160.032302 
L 266.242909 160.054771 
L 266.496545 159.016133 
L 266.598 159.287208 
L 267.308182 163.620787 
L 267.561818 164.799312 
L 267.714 164.829754 
L 267.866182 165.194328 
L 268.119818 166.525786 
L 268.170545 166.301822 
L 268.424182 164.324568 
L 268.525636 164.42459 
L 268.728545 165.40597 
L 268.880727 166.294574 
L 269.185091 164.280355 
L 269.235818 164.355734 
L 269.286545 164.211499 
L 269.540182 161.562355 
L 269.590909 161.548584 
L 269.692364 161.862422 
L 269.946 163.75705 
L 271.062 173.130888 
L 271.569273 175.421981 
L 272.076545 176.751264 
L 272.634545 173.368622 
L 272.685273 173.338181 
L 273.192545 171.537778 
L 273.243273 171.558797 
L 273.446182 171.878434 
L 273.496909 171.810302 
L 273.902727 170.718754 
L 274.054909 170.905752 
L 274.308545 171.747245 
L 275.678182 177.131059 
L 276.236182 178.2516 
L 276.794182 178.953206 
L 276.844909 178.963354 
L 277.504364 172.964909 
L 277.758 171.296419 
L 277.859455 171.266702 
L 278.011636 171.599386 
L 278.163818 172.067606 
L 278.569636 169.985256 
L 278.721818 170.320838 
L 279.076909 172.141536 
L 279.939273 176.665013 
L 280.040727 176.232307 
L 280.395818 174.242731 
L 280.548 174.197069 
L 280.750909 174.589186 
L 281.308909 176.538173 
L 281.866909 178.270445 
L 281.917636 178.182744 
L 282.424909 175.577813 
L 282.577091 175.616952 
L 282.830727 176.112715 
L 283.287273 177.431851 
L 283.439455 174.602232 
L 283.845273 167.425262 
L 283.946727 166.119898 
L 284.200364 162.495173 
L 284.301818 162.327744 
L 284.403273 162.639408 
L 284.656909 164.570275 
L 285.113455 168.958939 
L 285.164182 168.821952 
L 285.367091 168.097877 
L 285.468545 168.226166 
L 285.671455 169.144488 
L 286.635273 174.821846 
L 286.686 174.787056 
L 286.990364 174.537 
L 287.091818 174.536275 
L 287.294727 173.555621 
L 287.599091 172.520606 
L 287.751273 172.537277 
L 287.954182 172.959835 
L 288.461455 174.852288 
L 288.613636 175.40821 
L 288.664364 175.365446 
L 289.171636 173.675213 
L 289.323818 173.839742 
L 289.678909 174.837067 
L 289.729636 174.534101 
L 290.135455 171.406589 
L 290.338364 169.57212 
L 290.642727 166.34531 
L 290.744182 166.213397 
L 290.794909 166.275005 
L 290.947091 166.832376 
L 291.15 167.752872 
L 291.758727 163.988261 
L 291.860182 164.168011 
L 292.063091 165.334214 
L 292.570364 168.508114 
L 292.874727 168.526958 
L 293.077636 169.053888 
L 293.483455 170.978232 
L 293.94 173.476618 
L 293.990727 173.347603 
L 294.295091 170.627429 
L 294.396545 170.615832 
L 294.548727 171.012298 
L 295.005273 173.260627 
L 295.258909 174.510182 
L 295.309636 174.473942 
L 295.411091 173.70203 
L 296.476364 159.04295 
L 296.577818 159.128477 
L 296.780727 160.353389 
L 297.034364 161.322446 
L 297.288 162.395875 
L 297.389455 162.282082 
L 297.490909 162.249466 
L 297.643091 162.661877 
L 297.896727 163.481626 
L 298.048909 163.537435 
L 298.099636 163.642531 
L 298.454727 161.417395 
L 298.505455 161.527565 
L 298.708364 162.700291 
L 299.317091 167.897107 
L 299.418545 167.65285 
L 299.570727 167.431061 
L 299.672182 167.555002 
L 299.875091 168.32329 
L 300.585273 172.598885 
L 301.194 175.443 
L 301.650545 176.816496 
L 301.701273 176.742566 
L 302.208545 173.32296 
L 302.462182 169.761293 
L 302.614364 169.351781 
L 302.715818 169.493842 
L 302.969455 170.56872 
L 303.223091 172.024843 
L 303.273818 171.905976 
L 303.730364 166.930949 
L 303.831818 166.90703 
L 303.984 167.364379 
L 304.034727 167.30857 
L 304.339091 160.71289 
L 304.440545 160.381656 
L 304.491273 160.440365 
L 304.542 160.535314 
L 304.795636 158.140574 
L 304.897091 158.387731 
L 305.1 160.043899 
L 305.505818 164.329642 
L 305.556545 164.186131 
L 305.708727 163.961443 
L 305.810182 164.178158 
L 306.063818 165.65675 
L 307.281273 174.323909 
L 307.788545 176.217086 
L 308.295818 177.368794 
L 308.904545 178.192891 
L 309.665455 178.810421 
L 309.868364 178.927114 
L 309.969818 178.455994 
L 310.375636 175.65899 
L 310.578545 175.42488 
L 310.730727 175.545922 
L 311.035091 176.156203 
L 311.339455 176.796202 
L 311.643818 174.803002 
L 311.796 173.84844 
L 312.100364 170.377373 
L 312.252545 170.093976 
L 312.404727 170.386795 
L 312.709091 171.787109 
L 313.368545 175.206715 
L 313.419273 175.104518 
L 313.622182 173.217139 
L 313.926545 171.123192 
L 314.078727 170.947066 
L 314.180182 170.925322 
L 314.586 169.554 
L 314.687455 169.622131 
L 314.890364 170.201971 
L 315.346909 172.535102 
L 316.006364 175.760462 
L 316.057091 175.782206 
L 316.158545 175.40821 
L 316.310727 172.518432 
L 316.615091 168.250085 
L 316.868727 166.405469 
L 316.919455 166.295299 
L 317.274545 163.188806 
L 317.325273 163.237368 
L 317.426727 163.599043 
L 317.731091 161.109355 
L 317.832545 161.423918 
L 318.136909 163.641082 
L 318.187636 163.053269 
L 318.390545 157.842682 
L 318.644182 153.103214 
L 318.745636 152.724869 
L 318.796364 152.774155 
L 318.948545 153.617098 
L 319.303636 157.754256 
L 320.216727 168.899506 
L 320.774727 172.948963 
L 321.282 175.137859 
L 321.789273 176.454096 
L 322.398 177.405034 
L 322.550182 177.57971 
L 322.600909 177.535498 
L 322.803818 175.887302 
L 323.057455 172.976506 
L 324.072 158.489928 
L 324.224182 158.185512 
L 324.325636 158.453688 
L 324.579273 160.242494 
L 324.883636 163.285205 
L 324.934364 163.263461 
L 325.238727 161.442038 
L 325.340182 161.394202 
L 325.593818 160.041725 
L 325.847455 158.702294 
L 325.898182 158.699395 
L 325.948909 158.559509 
L 326.202545 156.655459 
L 326.304 156.822163 
L 326.506909 158.239147 
L 327.115636 163.354786 
L 327.42 164.993558 
L 328.180909 170.392594 
L 328.231636 170.261405 
L 328.536 169.518485 
L 328.688182 169.719979 
L 328.992545 170.84052 
L 329.246182 171.988603 
L 329.296909 171.961061 
L 329.702727 170.757168 
L 329.854909 170.936194 
L 330.108545 171.647222 
L 330.463636 169.100275 
L 330.768 167.020824 
L 330.869455 166.912829 
L 330.920182 166.954142 
L 331.072364 167.377426 
L 331.427455 169.355405 
L 332.340545 174.625426 
L 332.543455 175.367621 
L 332.594182 175.320509 
L 332.847818 174.259402 
L 333.050727 172.080653 
L 333.456545 166.748299 
L 333.608727 166.449682 
L 333.710182 166.602614 
L 333.963818 167.720981 
L 334.116 168.624082 
L 334.166727 168.35953 
L 334.420364 166.765694 
L 334.521818 166.806283 
L 334.724727 167.592691 
L 334.775455 167.878987 
L 334.826182 167.772442 
L 335.079818 165.581371 
L 335.181273 165.555278 
L 335.384182 163.383053 
L 335.992909 154.612973 
L 336.094364 154.361467 
L 336.145091 154.435397 
L 336.195818 154.625294 
L 336.449455 153.003192 
L 336.550909 153.328627 
L 336.753818 155.272541 
L 337.108909 158.880595 
L 337.210364 158.269589 
L 337.413273 157.254144 
L 337.514727 157.462886 
L 338.123455 160.870171 
L 338.833636 167.236814 
L 338.935091 167.07301 
L 339.087273 166.807733 
L 339.391636 163.834603 
L 339.493091 163.801987 
L 339.645273 164.318045 
L 339.898909 165.485698 
L 339.949636 165.431338 
L 340.152545 165.292901 
L 340.304727 165.682118 
L 340.609091 167.3796 
L 340.761273 168.218194 
L 340.812 168.166733 
L 341.065636 167.67097 
L 341.167091 167.771717 
L 341.319273 168.04859 
L 341.674364 166.242389 
L 341.775818 166.43881 
L 341.826545 166.312694 
L 342.283091 162.951072 
L 342.384545 162.843802 
L 342.486 163.057618 
L 342.739636 164.512291 
L 342.942545 165.752424 
L 343.094727 165.013853 
L 343.399091 163.367832 
L 343.500545 163.433789 
L 343.703455 164.273107 
L 344.16 167.10635 
L 344.210727 167.022274 
L 344.312182 166.61711 
L 344.819455 159.357514 
L 344.870182 159.350266 
L 344.971636 159.66193 
L 345.225273 161.606568 
L 345.478909 163.311298 
L 345.783273 164.512291 
L 346.239818 167.797085 
L 347.051455 173.410661 
L 347.609455 175.781482 
L 347.913818 176.654866 
L 347.964545 176.541072 
L 348.522545 169.048814 
L 348.624 169.066934 
L 348.826909 169.58879 
L 349.182 167.638354 
L 349.283455 167.762294 
L 349.486364 168.614659 
L 350.500909 174.389141 
L 350.551636 174.369571 
L 350.653091 173.95716 
L 350.754545 172.856189 
L 351.312545 158.577629 
L 351.616909 149.06028 
L 352.022727 144.529555 
L 352.327091 136.377005 
L 352.479273 135.358661 
L 352.580727 135.744979 
L 352.783636 138.283229 
L 353.341636 149.836541 
L 354.051818 162.787267 
L 354.305455 165.098654 
L 354.406909 165.164611 
L 354.508364 164.739154 
L 354.812727 163.217074 
L 354.914182 163.335941 
L 355.117091 164.224546 
L 355.725818 168.632779 
L 355.979455 169.834498 
L 356.030182 169.831598 
L 356.131636 169.324238 
L 356.283818 166.654075 
L 356.588182 162.487925 
L 356.892545 160.034477 
L 356.994 159.991714 
L 357.146182 160.496899 
L 357.450545 162.717686 
L 358.566545 171.623304 
L 359.124545 174.141984 
L 359.682545 175.690882 
L 360.291273 176.749814 
L 361.052182 177.621749 
L 361.102909 177.605078 
L 361.660909 173.509234 
L 361.813091 173.568667 
L 362.016 171.500088 
L 362.168182 167.789837 
L 362.421818 162.946723 
L 362.574 162.333542 
L 362.675455 162.438638 
L 362.929091 160.812187 
L 363.030545 160.923082 
L 363.233455 162.101606 
L 363.842182 168.079032 
L 364.450909 172.975056 
L 364.958182 175.510406 
L 365.465455 177.033936 
L 366.023455 178.006618 
L 366.124909 177.497808 
L 366.48 174.947237 
L 366.682909 174.621802 
L 366.835091 174.726173 
L 367.139455 175.375594 
L 367.748182 176.972328 
L 368.154 172.735872 
L 368.255455 172.655419 
L 368.306182 172.698182 
L 368.509091 173.203368 
L 370.081636 178.338576 
L 370.335273 178.764758 
L 370.386 178.698802 
L 371.654182 162.681446 
L 371.755636 162.885115 
L 371.958545 164.146267 
L 372.465818 168.687864 
L 372.516545 168.576245 
L 372.922364 166.334438 
L 373.023818 166.452581 
L 373.226727 167.304946 
L 373.581818 169.738099 
L 373.581818 169.738099 
" style="fill:none;stroke:#800080;stroke-linecap:square;stroke-width:1.5;"/>
   </g>
   <g id="line2d_17">
    <path clip-path="url(#p6ae9c80696)" d="M 196.036364 70.8 
L 221.349273 70.8 
L 221.349273 70.8 
" style="fill:none;stroke:#000000;stroke-linecap:square;stroke-width:1.5;"/>
   </g>
   <g id="line2d_18">
    <path clip-path="url(#p6ae9c80696)" d="M 196.036364 107.04 
L 196.036364 99.792 
L 196.036364 92.544 
L 196.036364 85.296 
L 196.036364 78.048 
" style="fill:none;stroke:#000000;stroke-linecap:square;stroke-width:1.5;"/>
   </g>
   <g id="patch_3">
    <path d="M 54 252 
L 54 34.56 
" style="fill:none;stroke:#000000;stroke-linecap:square;stroke-linejoin:miter;stroke-width:0.8;"/>
   </g>
   <g id="patch_4">
    <path d="M 54 252 
L 388.8 252 
" style="fill:none;stroke:#000000;stroke-linecap:square;stroke-linejoin:miter;stroke-width:0.8;"/>
   </g>
   <g id="text_17">
    <!-- 500 ms -->
    <g transform="translate(196.036364 63.552)scale(0.1 -0.1)">
     <use xlink:href="#DejaVuSans-35"/>
     <use x="63.623047" xlink:href="#DejaVuSans-30"/>
     <use x="127.246094" xlink:href="#DejaVuSans-30"/>
     <use x="190.869141" xlink:href="#DejaVuSans-20"/>
     <use x="222.65625" xlink:href="#DejaVuSans-6d"/>
     <use x="320.068359" xlink:href="#DejaVuSans-73"/>
    </g>
   </g>
   <g id="text_18">
    <!-- 5 mV -->
    <g transform="translate(198.572727 92.544)scale(0.1 -0.1)">
     <use xlink:href="#DejaVuSans-35"/>
     <use x="63.623047" xlink:href="#DejaVuSans-20"/>
     <use x="95.410156" xlink:href="#DejaVuSans-6d"/>
     <use x="192.822266" xlink:href="#DejaVuSans-56"/>
    </g>
   </g>
  </g>
 </g>
 <defs>
  <clipPath id="p6ae9c80696">
   <rect height="217.44" width="334.8" x="54" y="34.56"/>
  </clipPath>
 </defs>
</svg>
