<?xml version="1.0" encoding="utf-8" standalone="no"?>
<!DOCTYPE svg PUBLIC "-//W3C//DTD SVG 1.1//EN"
  "http://www.w3.org/Graphics/SVG/1.1/DTD/svg11.dtd">
<!-- Created with matplotlib (https://matplotlib.org/) -->
<svg height="288pt" version="1.1" viewBox="0 0 432 288" width="432pt" xmlns="http://www.w3.org/2000/svg" xmlns:xlink="http://www.w3.org/1999/xlink">
 <metadata>
  <rdf:RDF xmlns:cc="http://creativecommons.org/ns#" xmlns:dc="http://purl.org/dc/elements/1.1/" xmlns:rdf="http://www.w3.org/1999/02/22-rdf-syntax-ns#">
   <cc:Work>
    <dc:type rdf:resource="http://purl.org/dc/dcmitype/StillImage"/>
    <dc:date>2022-06-28T13:22:49.163600</dc:date>
    <dc:format>image/svg+xml</dc:format>
    <dc:creator>
     <cc:Agent>
      <dc:title>Matplotlib v3.3.4, https://matplotlib.org/</dc:title>
     </cc:Agent>
    </dc:creator>
   </cc:Work>
  </rdf:RDF>
 </metadata>
 <defs>
  <style type="text/css">*{stroke-linecap:butt;stroke-linejoin:round;}</style>
 </defs>
 <g id="figure_1">
  <g id="patch_1">
   <path d="M 0 288 
L 432 288 
L 432 0 
L 0 0 
z
" style="fill:none;"/>
  </g>
  <g id="axes_1">
   <g id="patch_2">
    <path d="M 54 252 
L 388.8 252 
L 388.8 34.56 
L 54 34.56 
z
" style="fill:#ffffff;"/>
   </g>
   <g id="matplotlib.axis_1">
    <g id="xtick_1">
     <g id="line2d_1">
      <defs>
       <path d="M 0 0 
L 0 3.5 
" id="m092287bf5b" style="stroke:#000000;stroke-width:0.8;"/>
      </defs>
      <g>
       <use style="stroke:#000000;stroke-width:0.8;" x="69.218182" xlink:href="#m092287bf5b" y="252"/>
      </g>
     </g>
     <g id="text_1">
      <!-- 0 -->
      <g transform="translate(66.036932 266.598437)scale(0.1 -0.1)">
       <defs>
        <path d="M 31.78125 66.40625 
Q 24.171875 66.40625 20.328125 58.90625 
Q 16.5 51.421875 16.5 36.375 
Q 16.5 21.390625 20.328125 13.890625 
Q 24.171875 6.390625 31.78125 6.390625 
Q 39.453125 6.390625 43.28125 13.890625 
Q 47.125 21.390625 47.125 36.375 
Q 47.125 51.421875 43.28125 58.90625 
Q 39.453125 66.40625 31.78125 66.40625 
z
M 31.78125 74.21875 
Q 44.046875 74.21875 50.515625 64.515625 
Q 56.984375 54.828125 56.984375 36.375 
Q 56.984375 17.96875 50.515625 8.265625 
Q 44.046875 -1.421875 31.78125 -1.421875 
Q 19.53125 -1.421875 13.0625 8.265625 
Q 6.59375 17.96875 6.59375 36.375 
Q 6.59375 54.828125 13.0625 64.515625 
Q 19.53125 74.21875 31.78125 74.21875 
z
" id="DejaVuSans-48"/>
       </defs>
       <use xlink:href="#DejaVuSans-48"/>
      </g>
     </g>
    </g>
    <g id="xtick_2">
     <g id="line2d_2">
      <g>
       <use style="stroke:#000000;stroke-width:0.8;" x="119.945455" xlink:href="#m092287bf5b" y="252"/>
      </g>
     </g>
     <g id="text_2">
      <!-- 500 -->
      <g transform="translate(110.401705 266.598437)scale(0.1 -0.1)">
       <defs>
        <path d="M 10.796875 72.90625 
L 49.515625 72.90625 
L 49.515625 64.59375 
L 19.828125 64.59375 
L 19.828125 46.734375 
Q 21.96875 47.46875 24.109375 47.828125 
Q 26.265625 48.1875 28.421875 48.1875 
Q 40.625 48.1875 47.75 41.5 
Q 54.890625 34.8125 54.890625 23.390625 
Q 54.890625 11.625 47.5625 5.09375 
Q 40.234375 -1.421875 26.90625 -1.421875 
Q 22.3125 -1.421875 17.546875 -0.640625 
Q 12.796875 0.140625 7.71875 1.703125 
L 7.71875 11.625 
Q 12.109375 9.234375 16.796875 8.0625 
Q 21.484375 6.890625 26.703125 6.890625 
Q 35.15625 6.890625 40.078125 11.328125 
Q 45.015625 15.765625 45.015625 23.390625 
Q 45.015625 31 40.078125 35.4375 
Q 35.15625 39.890625 26.703125 39.890625 
Q 22.75 39.890625 18.8125 39.015625 
Q 14.890625 38.140625 10.796875 36.28125 
z
" id="DejaVuSans-53"/>
       </defs>
       <use xlink:href="#DejaVuSans-53"/>
       <use x="63.623047" xlink:href="#DejaVuSans-48"/>
       <use x="127.246094" xlink:href="#DejaVuSans-48"/>
      </g>
     </g>
    </g>
    <g id="xtick_3">
     <g id="line2d_3">
      <g>
       <use style="stroke:#000000;stroke-width:0.8;" x="170.672727" xlink:href="#m092287bf5b" y="252"/>
      </g>
     </g>
     <g id="text_3">
      <!-- 1000 -->
      <g transform="translate(157.947727 266.598437)scale(0.1 -0.1)">
       <defs>
        <path d="M 12.40625 8.296875 
L 28.515625 8.296875 
L 28.515625 63.921875 
L 10.984375 60.40625 
L 10.984375 69.390625 
L 28.421875 72.90625 
L 38.28125 72.90625 
L 38.28125 8.296875 
L 54.390625 8.296875 
L 54.390625 0 
L 12.40625 0 
z
" id="DejaVuSans-49"/>
       </defs>
       <use xlink:href="#DejaVuSans-49"/>
       <use x="63.623047" xlink:href="#DejaVuSans-48"/>
       <use x="127.246094" xlink:href="#DejaVuSans-48"/>
       <use x="190.869141" xlink:href="#DejaVuSans-48"/>
      </g>
     </g>
    </g>
    <g id="xtick_4">
     <g id="line2d_4">
      <g>
       <use style="stroke:#000000;stroke-width:0.8;" x="221.4" xlink:href="#m092287bf5b" y="252"/>
      </g>
     </g>
     <g id="text_4">
      <!-- 1500 -->
      <g transform="translate(208.675 266.598437)scale(0.1 -0.1)">
       <use xlink:href="#DejaVuSans-49"/>
       <use x="63.623047" xlink:href="#DejaVuSans-53"/>
       <use x="127.246094" xlink:href="#DejaVuSans-48"/>
       <use x="190.869141" xlink:href="#DejaVuSans-48"/>
      </g>
     </g>
    </g>
    <g id="xtick_5">
     <g id="line2d_5">
      <g>
       <use style="stroke:#000000;stroke-width:0.8;" x="272.127273" xlink:href="#m092287bf5b" y="252"/>
      </g>
     </g>
     <g id="text_5">
      <!-- 2000 -->
      <g transform="translate(259.402273 266.598437)scale(0.1 -0.1)">
       <defs>
        <path d="M 19.1875 8.296875 
L 53.609375 8.296875 
L 53.609375 0 
L 7.328125 0 
L 7.328125 8.296875 
Q 12.9375 14.109375 22.625 23.890625 
Q 32.328125 33.6875 34.8125 36.53125 
Q 39.546875 41.84375 41.421875 45.53125 
Q 43.3125 49.21875 43.3125 52.78125 
Q 43.3125 58.59375 39.234375 62.25 
Q 35.15625 65.921875 28.609375 65.921875 
Q 23.96875 65.921875 18.8125 64.3125 
Q 13.671875 62.703125 7.8125 59.421875 
L 7.8125 69.390625 
Q 13.765625 71.78125 18.9375 73 
Q 24.125 74.21875 28.421875 74.21875 
Q 39.75 74.21875 46.484375 68.546875 
Q 53.21875 62.890625 53.21875 53.421875 
Q 53.21875 48.921875 51.53125 44.890625 
Q 49.859375 40.875 45.40625 35.40625 
Q 44.1875 33.984375 37.640625 27.21875 
Q 31.109375 20.453125 19.1875 8.296875 
z
" id="DejaVuSans-50"/>
       </defs>
       <use xlink:href="#DejaVuSans-50"/>
       <use x="63.623047" xlink:href="#DejaVuSans-48"/>
       <use x="127.246094" xlink:href="#DejaVuSans-48"/>
       <use x="190.869141" xlink:href="#DejaVuSans-48"/>
      </g>
     </g>
    </g>
    <g id="xtick_6">
     <g id="line2d_6">
      <g>
       <use style="stroke:#000000;stroke-width:0.8;" x="322.854545" xlink:href="#m092287bf5b" y="252"/>
      </g>
     </g>
     <g id="text_6">
      <!-- 2500 -->
      <g transform="translate(310.129545 266.598437)scale(0.1 -0.1)">
       <use xlink:href="#DejaVuSans-50"/>
       <use x="63.623047" xlink:href="#DejaVuSans-53"/>
       <use x="127.246094" xlink:href="#DejaVuSans-48"/>
       <use x="190.869141" xlink:href="#DejaVuSans-48"/>
      </g>
     </g>
    </g>
    <g id="xtick_7">
     <g id="line2d_7">
      <g>
       <use style="stroke:#000000;stroke-width:0.8;" x="373.581818" xlink:href="#m092287bf5b" y="252"/>
      </g>
     </g>
     <g id="text_7">
      <!-- 3000 -->
      <g transform="translate(360.856818 266.598437)scale(0.1 -0.1)">
       <defs>
        <path d="M 40.578125 39.3125 
Q 47.65625 37.796875 51.625 33 
Q 55.609375 28.21875 55.609375 21.1875 
Q 55.609375 10.40625 48.1875 4.484375 
Q 40.765625 -1.421875 27.09375 -1.421875 
Q 22.515625 -1.421875 17.65625 -0.515625 
Q 12.796875 0.390625 7.625 2.203125 
L 7.625 11.71875 
Q 11.71875 9.328125 16.59375 8.109375 
Q 21.484375 6.890625 26.8125 6.890625 
Q 36.078125 6.890625 40.9375 10.546875 
Q 45.796875 14.203125 45.796875 21.1875 
Q 45.796875 27.640625 41.28125 31.265625 
Q 36.765625 34.90625 28.71875 34.90625 
L 20.21875 34.90625 
L 20.21875 43.015625 
L 29.109375 43.015625 
Q 36.375 43.015625 40.234375 45.921875 
Q 44.09375 48.828125 44.09375 54.296875 
Q 44.09375 59.90625 40.109375 62.90625 
Q 36.140625 65.921875 28.71875 65.921875 
Q 24.65625 65.921875 20.015625 65.03125 
Q 15.375 64.15625 9.8125 62.3125 
L 9.8125 71.09375 
Q 15.4375 72.65625 20.34375 73.4375 
Q 25.25 74.21875 29.59375 74.21875 
Q 40.828125 74.21875 47.359375 69.109375 
Q 53.90625 64.015625 53.90625 55.328125 
Q 53.90625 49.265625 50.4375 45.09375 
Q 46.96875 40.921875 40.578125 39.3125 
z
" id="DejaVuSans-51"/>
       </defs>
       <use xlink:href="#DejaVuSans-51"/>
       <use x="63.623047" xlink:href="#DejaVuSans-48"/>
       <use x="127.246094" xlink:href="#DejaVuSans-48"/>
       <use x="190.869141" xlink:href="#DejaVuSans-48"/>
      </g>
     </g>
    </g>
    <g id="text_8">
     <!-- Time(ms) -->
     <g transform="translate(197.789844 280.276563)scale(0.1 -0.1)">
      <defs>
       <path d="M -0.296875 72.90625 
L 61.375 72.90625 
L 61.375 64.59375 
L 35.5 64.59375 
L 35.5 0 
L 25.59375 0 
L 25.59375 64.59375 
L -0.296875 64.59375 
z
" id="DejaVuSans-84"/>
       <path d="M 9.421875 54.6875 
L 18.40625 54.6875 
L 18.40625 0 
L 9.421875 0 
z
M 9.421875 75.984375 
L 18.40625 75.984375 
L 18.40625 64.59375 
L 9.421875 64.59375 
z
" id="DejaVuSans-105"/>
       <path d="M 52 44.1875 
Q 55.375 50.25 60.0625 53.125 
Q 64.75 56 71.09375 56 
Q 79.640625 56 84.28125 50.015625 
Q 88.921875 44.046875 88.921875 33.015625 
L 88.921875 0 
L 79.890625 0 
L 79.890625 32.71875 
Q 79.890625 40.578125 77.09375 44.375 
Q 74.3125 48.1875 68.609375 48.1875 
Q 61.625 48.1875 57.5625 43.546875 
Q 53.515625 38.921875 53.515625 30.90625 
L 53.515625 0 
L 44.484375 0 
L 44.484375 32.71875 
Q 44.484375 40.625 41.703125 44.40625 
Q 38.921875 48.1875 33.109375 48.1875 
Q 26.21875 48.1875 22.15625 43.53125 
Q 18.109375 38.875 18.109375 30.90625 
L 18.109375 0 
L 9.078125 0 
L 9.078125 54.6875 
L 18.109375 54.6875 
L 18.109375 46.1875 
Q 21.1875 51.21875 25.484375 53.609375 
Q 29.78125 56 35.6875 56 
Q 41.65625 56 45.828125 52.96875 
Q 50 49.953125 52 44.1875 
z
" id="DejaVuSans-109"/>
       <path d="M 56.203125 29.59375 
L 56.203125 25.203125 
L 14.890625 25.203125 
Q 15.484375 15.921875 20.484375 11.0625 
Q 25.484375 6.203125 34.421875 6.203125 
Q 39.59375 6.203125 44.453125 7.46875 
Q 49.3125 8.734375 54.109375 11.28125 
L 54.109375 2.78125 
Q 49.265625 0.734375 44.1875 -0.34375 
Q 39.109375 -1.421875 33.890625 -1.421875 
Q 20.796875 -1.421875 13.15625 6.1875 
Q 5.515625 13.8125 5.515625 26.8125 
Q 5.515625 40.234375 12.765625 48.109375 
Q 20.015625 56 32.328125 56 
Q 43.359375 56 49.78125 48.890625 
Q 56.203125 41.796875 56.203125 29.59375 
z
M 47.21875 32.234375 
Q 47.125 39.59375 43.09375 43.984375 
Q 39.0625 48.390625 32.421875 48.390625 
Q 24.90625 48.390625 20.390625 44.140625 
Q 15.875 39.890625 15.1875 32.171875 
z
" id="DejaVuSans-101"/>
       <path d="M 31 75.875 
Q 24.46875 64.65625 21.28125 53.65625 
Q 18.109375 42.671875 18.109375 31.390625 
Q 18.109375 20.125 21.3125 9.0625 
Q 24.515625 -2 31 -13.1875 
L 23.1875 -13.1875 
Q 15.875 -1.703125 12.234375 9.375 
Q 8.59375 20.453125 8.59375 31.390625 
Q 8.59375 42.28125 12.203125 53.3125 
Q 15.828125 64.359375 23.1875 75.875 
z
" id="DejaVuSans-40"/>
       <path d="M 44.28125 53.078125 
L 44.28125 44.578125 
Q 40.484375 46.53125 36.375 47.5 
Q 32.28125 48.484375 27.875 48.484375 
Q 21.1875 48.484375 17.84375 46.4375 
Q 14.5 44.390625 14.5 40.28125 
Q 14.5 37.15625 16.890625 35.375 
Q 19.28125 33.59375 26.515625 31.984375 
L 29.59375 31.296875 
Q 39.15625 29.25 43.1875 25.515625 
Q 47.21875 21.78125 47.21875 15.09375 
Q 47.21875 7.46875 41.1875 3.015625 
Q 35.15625 -1.421875 24.609375 -1.421875 
Q 20.21875 -1.421875 15.453125 -0.5625 
Q 10.6875 0.296875 5.421875 2 
L 5.421875 11.28125 
Q 10.40625 8.6875 15.234375 7.390625 
Q 20.0625 6.109375 24.8125 6.109375 
Q 31.15625 6.109375 34.5625 8.28125 
Q 37.984375 10.453125 37.984375 14.40625 
Q 37.984375 18.0625 35.515625 20.015625 
Q 33.0625 21.96875 24.703125 23.78125 
L 21.578125 24.515625 
Q 13.234375 26.265625 9.515625 29.90625 
Q 5.8125 33.546875 5.8125 39.890625 
Q 5.8125 47.609375 11.28125 51.796875 
Q 16.75 56 26.8125 56 
Q 31.78125 56 36.171875 55.265625 
Q 40.578125 54.546875 44.28125 53.078125 
z
" id="DejaVuSans-115"/>
       <path d="M 8.015625 75.875 
L 15.828125 75.875 
Q 23.140625 64.359375 26.78125 53.3125 
Q 30.421875 42.28125 30.421875 31.390625 
Q 30.421875 20.453125 26.78125 9.375 
Q 23.140625 -1.703125 15.828125 -13.1875 
L 8.015625 -13.1875 
Q 14.5 -2 17.703125 9.0625 
Q 20.90625 20.125 20.90625 31.390625 
Q 20.90625 42.671875 17.703125 53.65625 
Q 14.5 64.65625 8.015625 75.875 
z
" id="DejaVuSans-41"/>
      </defs>
      <use xlink:href="#DejaVuSans-84"/>
      <use x="57.958984" xlink:href="#DejaVuSans-105"/>
      <use x="85.742188" xlink:href="#DejaVuSans-109"/>
      <use x="183.154297" xlink:href="#DejaVuSans-101"/>
      <use x="244.677734" xlink:href="#DejaVuSans-40"/>
      <use x="283.691406" xlink:href="#DejaVuSans-109"/>
      <use x="381.103516" xlink:href="#DejaVuSans-115"/>
      <use x="433.203125" xlink:href="#DejaVuSans-41"/>
     </g>
    </g>
   </g>
   <g id="matplotlib.axis_2">
    <g id="ytick_1">
     <g id="line2d_8">
      <defs>
       <path d="M 0 0 
L -3.5 0 
" id="m77d1d54f57" style="stroke:#000000;stroke-width:0.8;"/>
      </defs>
      <g>
       <use style="stroke:#000000;stroke-width:0.8;" x="54" xlink:href="#m77d1d54f57" y="252"/>
      </g>
     </g>
     <g id="text_9">
      <!-- −100 -->
      <g transform="translate(19.532812 255.799219)scale(0.1 -0.1)">
       <defs>
        <path d="M 10.59375 35.5 
L 73.1875 35.5 
L 73.1875 27.203125 
L 10.59375 27.203125 
z
" id="DejaVuSans-8722"/>
       </defs>
       <use xlink:href="#DejaVuSans-8722"/>
       <use x="83.789062" xlink:href="#DejaVuSans-49"/>
       <use x="147.412109" xlink:href="#DejaVuSans-48"/>
       <use x="211.035156" xlink:href="#DejaVuSans-48"/>
      </g>
     </g>
    </g>
    <g id="ytick_2">
     <g id="line2d_9">
      <g>
       <use style="stroke:#000000;stroke-width:0.8;" x="54" xlink:href="#m77d1d54f57" y="208.512"/>
      </g>
     </g>
     <g id="text_10">
      <!-- −90 -->
      <g transform="translate(25.895312 212.311219)scale(0.1 -0.1)">
       <defs>
        <path d="M 10.984375 1.515625 
L 10.984375 10.5 
Q 14.703125 8.734375 18.5 7.8125 
Q 22.3125 6.890625 25.984375 6.890625 
Q 35.75 6.890625 40.890625 13.453125 
Q 46.046875 20.015625 46.78125 33.40625 
Q 43.953125 29.203125 39.59375 26.953125 
Q 35.25 24.703125 29.984375 24.703125 
Q 19.046875 24.703125 12.671875 31.3125 
Q 6.296875 37.9375 6.296875 49.421875 
Q 6.296875 60.640625 12.9375 67.421875 
Q 19.578125 74.21875 30.609375 74.21875 
Q 43.265625 74.21875 49.921875 64.515625 
Q 56.59375 54.828125 56.59375 36.375 
Q 56.59375 19.140625 48.40625 8.859375 
Q 40.234375 -1.421875 26.421875 -1.421875 
Q 22.703125 -1.421875 18.890625 -0.6875 
Q 15.09375 0.046875 10.984375 1.515625 
z
M 30.609375 32.421875 
Q 37.25 32.421875 41.125 36.953125 
Q 45.015625 41.5 45.015625 49.421875 
Q 45.015625 57.28125 41.125 61.84375 
Q 37.25 66.40625 30.609375 66.40625 
Q 23.96875 66.40625 20.09375 61.84375 
Q 16.21875 57.28125 16.21875 49.421875 
Q 16.21875 41.5 20.09375 36.953125 
Q 23.96875 32.421875 30.609375 32.421875 
z
" id="DejaVuSans-57"/>
       </defs>
       <use xlink:href="#DejaVuSans-8722"/>
       <use x="83.789062" xlink:href="#DejaVuSans-57"/>
       <use x="147.412109" xlink:href="#DejaVuSans-48"/>
      </g>
     </g>
    </g>
    <g id="ytick_3">
     <g id="line2d_10">
      <g>
       <use style="stroke:#000000;stroke-width:0.8;" x="54" xlink:href="#m77d1d54f57" y="165.024"/>
      </g>
     </g>
     <g id="text_11">
      <!-- −80 -->
      <g transform="translate(25.895312 168.823219)scale(0.1 -0.1)">
       <defs>
        <path d="M 31.78125 34.625 
Q 24.75 34.625 20.71875 30.859375 
Q 16.703125 27.09375 16.703125 20.515625 
Q 16.703125 13.921875 20.71875 10.15625 
Q 24.75 6.390625 31.78125 6.390625 
Q 38.8125 6.390625 42.859375 10.171875 
Q 46.921875 13.96875 46.921875 20.515625 
Q 46.921875 27.09375 42.890625 30.859375 
Q 38.875 34.625 31.78125 34.625 
z
M 21.921875 38.8125 
Q 15.578125 40.375 12.03125 44.71875 
Q 8.5 49.078125 8.5 55.328125 
Q 8.5 64.0625 14.71875 69.140625 
Q 20.953125 74.21875 31.78125 74.21875 
Q 42.671875 74.21875 48.875 69.140625 
Q 55.078125 64.0625 55.078125 55.328125 
Q 55.078125 49.078125 51.53125 44.71875 
Q 48 40.375 41.703125 38.8125 
Q 48.828125 37.15625 52.796875 32.3125 
Q 56.78125 27.484375 56.78125 20.515625 
Q 56.78125 9.90625 50.3125 4.234375 
Q 43.84375 -1.421875 31.78125 -1.421875 
Q 19.734375 -1.421875 13.25 4.234375 
Q 6.78125 9.90625 6.78125 20.515625 
Q 6.78125 27.484375 10.78125 32.3125 
Q 14.796875 37.15625 21.921875 38.8125 
z
M 18.3125 54.390625 
Q 18.3125 48.734375 21.84375 45.5625 
Q 25.390625 42.390625 31.78125 42.390625 
Q 38.140625 42.390625 41.71875 45.5625 
Q 45.3125 48.734375 45.3125 54.390625 
Q 45.3125 60.0625 41.71875 63.234375 
Q 38.140625 66.40625 31.78125 66.40625 
Q 25.390625 66.40625 21.84375 63.234375 
Q 18.3125 60.0625 18.3125 54.390625 
z
" id="DejaVuSans-56"/>
       </defs>
       <use xlink:href="#DejaVuSans-8722"/>
       <use x="83.789062" xlink:href="#DejaVuSans-56"/>
       <use x="147.412109" xlink:href="#DejaVuSans-48"/>
      </g>
     </g>
    </g>
    <g id="ytick_4">
     <g id="line2d_11">
      <g>
       <use style="stroke:#000000;stroke-width:0.8;" x="54" xlink:href="#m77d1d54f57" y="121.536"/>
      </g>
     </g>
     <g id="text_12">
      <!-- −70 -->
      <g transform="translate(25.895312 125.335219)scale(0.1 -0.1)">
       <defs>
        <path d="M 8.203125 72.90625 
L 55.078125 72.90625 
L 55.078125 68.703125 
L 28.609375 0 
L 18.3125 0 
L 43.21875 64.59375 
L 8.203125 64.59375 
z
" id="DejaVuSans-55"/>
       </defs>
       <use xlink:href="#DejaVuSans-8722"/>
       <use x="83.789062" xlink:href="#DejaVuSans-55"/>
       <use x="147.412109" xlink:href="#DejaVuSans-48"/>
      </g>
     </g>
    </g>
    <g id="ytick_5">
     <g id="line2d_12">
      <g>
       <use style="stroke:#000000;stroke-width:0.8;" x="54" xlink:href="#m77d1d54f57" y="78.048"/>
      </g>
     </g>
     <g id="text_13">
      <!-- −60 -->
      <g transform="translate(25.895312 81.847219)scale(0.1 -0.1)">
       <defs>
        <path d="M 33.015625 40.375 
Q 26.375 40.375 22.484375 35.828125 
Q 18.609375 31.296875 18.609375 23.390625 
Q 18.609375 15.53125 22.484375 10.953125 
Q 26.375 6.390625 33.015625 6.390625 
Q 39.65625 6.390625 43.53125 10.953125 
Q 47.40625 15.53125 47.40625 23.390625 
Q 47.40625 31.296875 43.53125 35.828125 
Q 39.65625 40.375 33.015625 40.375 
z
M 52.59375 71.296875 
L 52.59375 62.3125 
Q 48.875 64.0625 45.09375 64.984375 
Q 41.3125 65.921875 37.59375 65.921875 
Q 27.828125 65.921875 22.671875 59.328125 
Q 17.53125 52.734375 16.796875 39.40625 
Q 19.671875 43.65625 24.015625 45.921875 
Q 28.375 48.1875 33.59375 48.1875 
Q 44.578125 48.1875 50.953125 41.515625 
Q 57.328125 34.859375 57.328125 23.390625 
Q 57.328125 12.15625 50.6875 5.359375 
Q 44.046875 -1.421875 33.015625 -1.421875 
Q 20.359375 -1.421875 13.671875 8.265625 
Q 6.984375 17.96875 6.984375 36.375 
Q 6.984375 53.65625 15.1875 63.9375 
Q 23.390625 74.21875 37.203125 74.21875 
Q 40.921875 74.21875 44.703125 73.484375 
Q 48.484375 72.75 52.59375 71.296875 
z
" id="DejaVuSans-54"/>
       </defs>
       <use xlink:href="#DejaVuSans-8722"/>
       <use x="83.789062" xlink:href="#DejaVuSans-54"/>
       <use x="147.412109" xlink:href="#DejaVuSans-48"/>
      </g>
     </g>
    </g>
    <g id="ytick_6">
     <g id="line2d_13">
      <g>
       <use style="stroke:#000000;stroke-width:0.8;" x="54" xlink:href="#m77d1d54f57" y="34.56"/>
      </g>
     </g>
     <g id="text_14">
      <!-- −50 -->
      <g transform="translate(25.895312 38.359219)scale(0.1 -0.1)">
       <use xlink:href="#DejaVuSans-8722"/>
       <use x="83.789062" xlink:href="#DejaVuSans-53"/>
       <use x="147.412109" xlink:href="#DejaVuSans-48"/>
      </g>
     </g>
    </g>
    <g id="text_15">
     <!-- Membrane potential (mV) -->
     <g transform="translate(13.453125 207.691719)rotate(-90)scale(0.1 -0.1)">
      <defs>
       <path d="M 9.8125 72.90625 
L 24.515625 72.90625 
L 43.109375 23.296875 
L 61.8125 72.90625 
L 76.515625 72.90625 
L 76.515625 0 
L 66.890625 0 
L 66.890625 64.015625 
L 48.09375 14.015625 
L 38.1875 14.015625 
L 19.390625 64.015625 
L 19.390625 0 
L 9.8125 0 
z
" id="DejaVuSans-77"/>
       <path d="M 48.6875 27.296875 
Q 48.6875 37.203125 44.609375 42.84375 
Q 40.53125 48.484375 33.40625 48.484375 
Q 26.265625 48.484375 22.1875 42.84375 
Q 18.109375 37.203125 18.109375 27.296875 
Q 18.109375 17.390625 22.1875 11.75 
Q 26.265625 6.109375 33.40625 6.109375 
Q 40.53125 6.109375 44.609375 11.75 
Q 48.6875 17.390625 48.6875 27.296875 
z
M 18.109375 46.390625 
Q 20.953125 51.265625 25.265625 53.625 
Q 29.59375 56 35.59375 56 
Q 45.5625 56 51.78125 48.09375 
Q 58.015625 40.1875 58.015625 27.296875 
Q 58.015625 14.40625 51.78125 6.484375 
Q 45.5625 -1.421875 35.59375 -1.421875 
Q 29.59375 -1.421875 25.265625 0.953125 
Q 20.953125 3.328125 18.109375 8.203125 
L 18.109375 0 
L 9.078125 0 
L 9.078125 75.984375 
L 18.109375 75.984375 
z
" id="DejaVuSans-98"/>
       <path d="M 41.109375 46.296875 
Q 39.59375 47.171875 37.8125 47.578125 
Q 36.03125 48 33.890625 48 
Q 26.265625 48 22.1875 43.046875 
Q 18.109375 38.09375 18.109375 28.8125 
L 18.109375 0 
L 9.078125 0 
L 9.078125 54.6875 
L 18.109375 54.6875 
L 18.109375 46.1875 
Q 20.953125 51.171875 25.484375 53.578125 
Q 30.03125 56 36.53125 56 
Q 37.453125 56 38.578125 55.875 
Q 39.703125 55.765625 41.0625 55.515625 
z
" id="DejaVuSans-114"/>
       <path d="M 34.28125 27.484375 
Q 23.390625 27.484375 19.1875 25 
Q 14.984375 22.515625 14.984375 16.5 
Q 14.984375 11.71875 18.140625 8.90625 
Q 21.296875 6.109375 26.703125 6.109375 
Q 34.1875 6.109375 38.703125 11.40625 
Q 43.21875 16.703125 43.21875 25.484375 
L 43.21875 27.484375 
z
M 52.203125 31.203125 
L 52.203125 0 
L 43.21875 0 
L 43.21875 8.296875 
Q 40.140625 3.328125 35.546875 0.953125 
Q 30.953125 -1.421875 24.3125 -1.421875 
Q 15.921875 -1.421875 10.953125 3.296875 
Q 6 8.015625 6 15.921875 
Q 6 25.140625 12.171875 29.828125 
Q 18.359375 34.515625 30.609375 34.515625 
L 43.21875 34.515625 
L 43.21875 35.40625 
Q 43.21875 41.609375 39.140625 45 
Q 35.0625 48.390625 27.6875 48.390625 
Q 23 48.390625 18.546875 47.265625 
Q 14.109375 46.140625 10.015625 43.890625 
L 10.015625 52.203125 
Q 14.9375 54.109375 19.578125 55.046875 
Q 24.21875 56 28.609375 56 
Q 40.484375 56 46.34375 49.84375 
Q 52.203125 43.703125 52.203125 31.203125 
z
" id="DejaVuSans-97"/>
       <path d="M 54.890625 33.015625 
L 54.890625 0 
L 45.90625 0 
L 45.90625 32.71875 
Q 45.90625 40.484375 42.875 44.328125 
Q 39.84375 48.1875 33.796875 48.1875 
Q 26.515625 48.1875 22.3125 43.546875 
Q 18.109375 38.921875 18.109375 30.90625 
L 18.109375 0 
L 9.078125 0 
L 9.078125 54.6875 
L 18.109375 54.6875 
L 18.109375 46.1875 
Q 21.34375 51.125 25.703125 53.5625 
Q 30.078125 56 35.796875 56 
Q 45.21875 56 50.046875 50.171875 
Q 54.890625 44.34375 54.890625 33.015625 
z
" id="DejaVuSans-110"/>
       <path id="DejaVuSans-32"/>
       <path d="M 18.109375 8.203125 
L 18.109375 -20.796875 
L 9.078125 -20.796875 
L 9.078125 54.6875 
L 18.109375 54.6875 
L 18.109375 46.390625 
Q 20.953125 51.265625 25.265625 53.625 
Q 29.59375 56 35.59375 56 
Q 45.5625 56 51.78125 48.09375 
Q 58.015625 40.1875 58.015625 27.296875 
Q 58.015625 14.40625 51.78125 6.484375 
Q 45.5625 -1.421875 35.59375 -1.421875 
Q 29.59375 -1.421875 25.265625 0.953125 
Q 20.953125 3.328125 18.109375 8.203125 
z
M 48.6875 27.296875 
Q 48.6875 37.203125 44.609375 42.84375 
Q 40.53125 48.484375 33.40625 48.484375 
Q 26.265625 48.484375 22.1875 42.84375 
Q 18.109375 37.203125 18.109375 27.296875 
Q 18.109375 17.390625 22.1875 11.75 
Q 26.265625 6.109375 33.40625 6.109375 
Q 40.53125 6.109375 44.609375 11.75 
Q 48.6875 17.390625 48.6875 27.296875 
z
" id="DejaVuSans-112"/>
       <path d="M 30.609375 48.390625 
Q 23.390625 48.390625 19.1875 42.75 
Q 14.984375 37.109375 14.984375 27.296875 
Q 14.984375 17.484375 19.15625 11.84375 
Q 23.34375 6.203125 30.609375 6.203125 
Q 37.796875 6.203125 41.984375 11.859375 
Q 46.1875 17.53125 46.1875 27.296875 
Q 46.1875 37.015625 41.984375 42.703125 
Q 37.796875 48.390625 30.609375 48.390625 
z
M 30.609375 56 
Q 42.328125 56 49.015625 48.375 
Q 55.71875 40.765625 55.71875 27.296875 
Q 55.71875 13.875 49.015625 6.21875 
Q 42.328125 -1.421875 30.609375 -1.421875 
Q 18.84375 -1.421875 12.171875 6.21875 
Q 5.515625 13.875 5.515625 27.296875 
Q 5.515625 40.765625 12.171875 48.375 
Q 18.84375 56 30.609375 56 
z
" id="DejaVuSans-111"/>
       <path d="M 18.3125 70.21875 
L 18.3125 54.6875 
L 36.8125 54.6875 
L 36.8125 47.703125 
L 18.3125 47.703125 
L 18.3125 18.015625 
Q 18.3125 11.328125 20.140625 9.421875 
Q 21.96875 7.515625 27.59375 7.515625 
L 36.8125 7.515625 
L 36.8125 0 
L 27.59375 0 
Q 17.1875 0 13.234375 3.875 
Q 9.28125 7.765625 9.28125 18.015625 
L 9.28125 47.703125 
L 2.6875 47.703125 
L 2.6875 54.6875 
L 9.28125 54.6875 
L 9.28125 70.21875 
z
" id="DejaVuSans-116"/>
       <path d="M 9.421875 75.984375 
L 18.40625 75.984375 
L 18.40625 0 
L 9.421875 0 
z
" id="DejaVuSans-108"/>
       <path d="M 28.609375 0 
L 0.78125 72.90625 
L 11.078125 72.90625 
L 34.1875 11.53125 
L 57.328125 72.90625 
L 67.578125 72.90625 
L 39.796875 0 
z
" id="DejaVuSans-86"/>
      </defs>
      <use xlink:href="#DejaVuSans-77"/>
      <use x="86.279297" xlink:href="#DejaVuSans-101"/>
      <use x="147.802734" xlink:href="#DejaVuSans-109"/>
      <use x="245.214844" xlink:href="#DejaVuSans-98"/>
      <use x="308.691406" xlink:href="#DejaVuSans-114"/>
      <use x="349.804688" xlink:href="#DejaVuSans-97"/>
      <use x="411.083984" xlink:href="#DejaVuSans-110"/>
      <use x="474.462891" xlink:href="#DejaVuSans-101"/>
      <use x="535.986328" xlink:href="#DejaVuSans-32"/>
      <use x="567.773438" xlink:href="#DejaVuSans-112"/>
      <use x="631.25" xlink:href="#DejaVuSans-111"/>
      <use x="692.431641" xlink:href="#DejaVuSans-116"/>
      <use x="731.640625" xlink:href="#DejaVuSans-101"/>
      <use x="793.164062" xlink:href="#DejaVuSans-110"/>
      <use x="856.542969" xlink:href="#DejaVuSans-116"/>
      <use x="895.751953" xlink:href="#DejaVuSans-105"/>
      <use x="923.535156" xlink:href="#DejaVuSans-97"/>
      <use x="984.814453" xlink:href="#DejaVuSans-108"/>
      <use x="1012.597656" xlink:href="#DejaVuSans-32"/>
      <use x="1044.384766" xlink:href="#DejaVuSans-40"/>
      <use x="1083.398438" xlink:href="#DejaVuSans-109"/>
      <use x="1180.810547" xlink:href="#DejaVuSans-86"/>
      <use x="1249.21875" xlink:href="#DejaVuSans-41"/>
     </g>
    </g>
   </g>
   <g id="line2d_14">
    <path clip-path="url(#p84b5429cca)" d="M 69.218182 178.0704 
L 69.319636 174.579025 
L 69.370364 174.756756 
L 70.080545 179.499894 
L 70.232727 178.135364 
L 70.334182 176.795605 
L 70.689273 169.79858 
L 71.196545 165.888901 
L 71.247273 165.930428 
L 71.399455 166.43567 
L 71.754545 168.819096 
L 72.819818 176.440652 
L 73.073455 177.358256 
L 73.225636 176.919408 
L 73.53 176.128854 
L 73.682182 176.100123 
L 73.885091 176.334613 
L 74.138727 176.87732 
L 74.189455 176.754263 
L 74.696727 172.472662 
L 74.798182 172.46585 
L 74.950364 172.764449 
L 75.356182 174.246017 
L 75.406909 174.163128 
L 75.914182 172.369985 
L 76.066364 172.56003 
L 76.370727 173.510195 
L 77.943273 179.30013 
L 78.552 180.5092 
L 79.160727 181.261121 
L 79.820182 181.756784 
L 79.921636 181.658983 
L 80.124545 180.330411 
L 80.276727 178.811283 
L 81.037636 165.617634 
L 81.139091 165.583327 
L 81.291273 165.957733 
L 81.494182 166.844427 
L 81.544909 166.699739 
L 82.204364 162.656943 
L 82.305818 162.695081 
L 82.458 163.124941 
L 82.660909 163.980369 
L 83.066727 161.074797 
L 83.168182 161.191205 
L 83.371091 162.10901 
L 83.878364 165.954895 
L 84.639273 171.385544 
L 84.740727 171.379678 
L 85.197273 170.679278 
L 85.400182 170.940279 
L 85.603091 171.297212 
L 86.161091 167.065619 
L 86.262545 167.167551 
L 86.465455 167.812735 
L 87.023455 170.730499 
L 87.885818 174.950225 
L 88.443818 176.850794 
L 88.494545 176.754184 
L 89.052545 171.253417 
L 89.306182 164.712857 
L 89.712 154.236863 
L 89.965636 151.816052 
L 90.067091 151.847938 
L 90.219273 152.525049 
L 90.574364 155.591197 
L 91.284545 162.009967 
L 91.436727 161.969464 
L 91.588909 161.964444 
L 91.741091 162.21348 
L 92.045455 163.389574 
L 92.958545 168.510418 
L 93.820909 172.68123 
L 94.531091 175.126345 
L 95.038364 176.378708 
L 95.089091 176.293301 
L 95.647091 171.752624 
L 95.799273 171.694661 
L 96.002182 172.01789 
L 96.458727 173.403854 
L 97.422545 176.299679 
L 98.132727 177.732843 
L 98.842909 178.683086 
L 99.045818 178.822137 
L 99.198 176.526098 
L 99.502364 172.882967 
L 99.705273 172.346027 
L 99.857455 172.445623 
L 100.111091 173.061292 
L 101.734364 177.813939 
L 101.937273 178.186657 
L 101.988 178.028831 
L 102.546 173.085572 
L 102.698182 173.023073 
L 102.901091 173.343869 
L 103.459091 174.8902 
L 103.509818 174.71041 
L 104.017091 171.91565 
L 104.169273 171.906567 
L 104.372182 172.269532 
L 104.828727 173.774097 
L 105.894 177.3041 
L 106.553455 178.716338 
L 107.212909 179.631084 
L 107.973818 180.298979 
L 108.937636 180.826945 
L 109.952182 181.201109 
L 110.002909 181.023336 
L 110.560909 175.182191 
L 110.763818 174.992694 
L 110.966727 175.282287 
L 111.372545 176.204879 
L 111.524727 175.342521 
L 111.879818 173.539903 
L 112.032 173.427986 
L 112.184182 173.582267 
L 112.488545 174.343062 
L 114.162545 179.272856 
L 114.822 180.291481 
L 115.532182 180.964437 
L 115.582909 181.000958 
L 115.633636 180.868939 
L 115.836545 177.02807 
L 116.749636 160.728502 
L 117.155455 156.689825 
L 117.256909 156.739636 
L 117.409091 157.427804 
L 117.764182 160.495483 
L 118.981636 171.631441 
L 119.539636 174.784366 
L 119.691818 173.517134 
L 119.996182 171.472554 
L 120.148364 171.38251 
L 120.300545 171.653643 
L 120.655636 172.941896 
L 121.771636 177.267192 
L 122.431091 178.867428 
L 122.836909 179.540492 
L 122.887636 179.469518 
L 123.090545 177.378782 
L 123.394909 174.865295 
L 123.597818 174.383149 
L 123.75 174.392968 
L 124.308 168.178986 
L 124.358727 168.21824 
L 124.510909 168.630265 
L 124.916727 170.714664 
L 125.525455 174.043713 
L 125.576182 173.971831 
L 126.032727 165.969363 
L 126.134182 165.790043 
L 126.184909 165.829295 
L 126.337091 166.294515 
L 126.742909 168.688642 
L 127.706727 174.335752 
L 128.366182 176.827513 
L 128.822727 177.920637 
L 128.924182 177.641526 
L 129.532909 175.014802 
L 129.735818 174.929949 
L 129.938727 175.096662 
L 130.344545 175.828278 
L 131.967818 179.142239 
L 132.322909 179.591989 
L 132.475091 177.442272 
L 132.779455 173.872068 
L 132.982364 173.332348 
L 133.134545 173.441803 
L 133.388182 174.090755 
L 134.149091 176.538 
L 134.301273 175.585061 
L 134.808545 172.099921 
L 135.112909 170.545808 
L 135.315818 170.347008 
L 135.468 170.522473 
L 135.772364 171.35244 
L 136.736182 175.096156 
L 137.497091 177.532825 
L 138.156545 178.961425 
L 138.816 179.886672 
L 139.120364 180.183798 
L 139.221818 179.309287 
L 139.576909 175.110004 
L 139.779818 174.541441 
L 139.830545 174.51853 
L 139.932 173.555048 
L 140.287091 169.357143 
L 140.439273 169.075895 
L 140.591455 169.339427 
L 140.895818 170.647534 
L 141.301636 172.819778 
L 141.352364 172.786027 
L 141.910364 167.096032 
L 142.011818 167.182713 
L 142.214727 167.826828 
L 142.722 170.554163 
L 143.635091 175.2144 
L 144.193091 177.025235 
L 144.345273 175.797746 
L 144.548182 172.549116 
L 144.852545 166.988085 
L 145.055455 166.165301 
L 145.156909 166.260537 
L 145.359818 167.004317 
L 145.968545 170.646585 
L 146.019273 170.93026 
L 146.171455 168.738054 
L 146.425091 166.456834 
L 146.526545 166.398175 
L 146.678727 166.810569 
L 147.033818 168.782989 
L 147.997636 174.225866 
L 148.657091 176.631831 
L 148.758545 176.805182 
L 148.961455 173.704282 
L 149.215091 171.332043 
L 149.367273 171.040129 
L 149.519455 171.199301 
L 149.823818 172.150611 
L 151.142727 176.856982 
L 151.294909 177.22164 
L 151.396364 176.385413 
L 151.751455 172.851139 
L 151.954364 172.416528 
L 152.106545 172.545625 
L 152.410909 173.360544 
L 153.831273 177.801495 
L 154.490727 178.99505 
L 155.200909 179.813618 
L 156.012545 180.402527 
L 157.128545 180.915324 
L 158.346 181.30371 
L 158.396727 181.250157 
L 158.548909 179.31471 
L 158.853273 175.770469 
L 159.056182 175.093323 
L 159.208364 175.088579 
L 159.411273 175.436873 
L 159.969273 177.085932 
L 160.222909 177.837122 
L 160.273636 177.752865 
L 160.831636 174.427918 
L 160.983818 174.438951 
L 161.186727 174.796496 
L 161.694 176.38432 
L 162.607091 179.125514 
L 163.266545 180.392473 
L 163.824545 181.065828 
L 163.926 180.498457 
L 164.331818 176.697434 
L 164.534727 176.284064 
L 164.686909 176.349955 
L 164.940545 176.821664 
L 165.397091 177.982417 
L 165.447818 177.838558 
L 165.6 176.415817 
L 165.904364 170.878965 
L 166.411636 161.701144 
L 166.614545 160.426181 
L 166.716 160.435025 
L 166.868182 160.955706 
L 166.918909 161.225269 
L 166.969636 161.141907 
L 167.121818 157.030422 
L 167.375455 152.584414 
L 167.476909 152.382814 
L 167.578364 152.721899 
L 167.832 154.874885 
L 168.39 161.196249 
L 168.440727 160.601026 
L 168.745091 156.532513 
L 168.846545 156.4465 
L 168.998727 157.081363 
L 169.353818 160.194372 
L 169.962545 165.905554 
L 170.368364 164.040763 
L 170.419091 164.119698 
L 170.622 164.933322 
L 171.230727 169.018152 
L 171.940909 173.277945 
L 171.991636 173.40946 
L 172.143818 171.800086 
L 172.397455 169.657323 
L 172.549636 169.442983 
L 172.701818 169.677487 
L 173.006182 170.787983 
L 173.716364 173.957994 
L 173.767091 173.895891 
L 174.223636 170.259769 
L 174.629455 167.953287 
L 174.781636 167.862869 
L 174.933818 168.10189 
L 175.238182 169.140727 
L 175.694727 171.146367 
L 175.745455 171.100701 
L 176.049818 169.368832 
L 176.506364 162.498513 
L 176.962909 161.779113 
L 177.419455 158.649414 
L 177.571636 159.063592 
L 177.876 161.008185 
L 178.129636 162.890481 
L 178.180364 162.873818 
L 178.535455 161.769865 
L 178.586182 161.810892 
L 178.738364 162.250806 
L 179.093455 164.380939 
L 179.296364 165.482629 
L 179.499273 164.217539 
L 179.752909 160.415039 
L 180.006545 158.380891 
L 180.108 158.347288 
L 180.310909 158.815911 
L 180.361636 158.759231 
L 180.666 158.239147 
L 180.818182 158.595427 
L 181.122545 160.301923 
L 181.731273 164.883596 
L 181.782 164.726433 
L 182.137091 162.573278 
L 182.238545 162.683742 
L 182.695091 163.634722 
L 182.847273 163.769602 
L 183.050182 164.328145 
L 183.456 166.125691 
L 183.506727 165.962371 
L 183.963273 163.423655 
L 184.064727 163.513754 
L 184.267636 163.93172 
L 184.318364 163.90767 
L 184.470545 163.355775 
L 184.724182 162.530962 
L 184.825636 162.530454 
L 184.977818 162.802299 
L 185.231455 163.529067 
L 185.383636 162.332342 
L 185.688 160.177108 
L 185.789455 160.080331 
L 185.840182 160.128042 
L 185.992364 160.565392 
L 186.347455 162.581263 
L 186.905455 166.504136 
L 186.956182 166.488353 
L 187.260545 163.809554 
L 187.767818 157.402047 
L 188.528727 149.38133 
L 188.630182 149.533917 
L 188.833091 150.557152 
L 188.934545 150.963581 
L 188.985273 150.861223 
L 189.441818 148.651274 
L 189.492545 148.661489 
L 189.543273 148.714662 
L 189.594 148.616635 
L 190.050545 145.487889 
L 190.101273 145.523019 
L 190.253455 146.044523 
L 191.217273 152.010853 
L 191.521636 154.124711 
L 191.876727 152.649441 
L 191.927455 152.685223 
L 192.130364 152.666427 
L 192.282545 152.758513 
L 192.485455 153.405636 
L 192.840545 155.648796 
L 193.601455 161.561747 
L 193.652182 161.356705 
L 193.956545 156.808098 
L 194.362364 145.186272 
L 194.565273 143.821746 
L 194.666727 143.864581 
L 194.818909 144.469085 
L 195.174 147.193661 
L 195.934909 154.331496 
L 195.985636 153.973879 
L 196.29 151.512197 
L 196.391455 151.538765 
L 196.543636 152.116986 
L 196.898727 154.723922 
L 197.558182 159.641089 
L 198.065455 162.0299 
L 199.840909 171.597134 
L 200.551091 174.015933 
L 201.261273 175.688506 
L 201.413455 175.897457 
L 201.464182 175.869393 
L 201.514909 175.786337 
L 201.616364 174.66254 
L 202.174364 162.167228 
L 202.529455 153.197175 
L 202.732364 151.961532 
L 202.833818 152.014844 
L 203.036727 152.910404 
L 203.341091 154.563426 
L 203.391818 154.526442 
L 203.645455 154.210483 
L 203.797636 154.499274 
L 203.949818 154.978003 
L 204.000545 154.926181 
L 204.152727 154.474273 
L 204.609273 150.670524 
L 204.66 150.678228 
L 204.862909 151.248793 
L 204.913636 150.967349 
L 205.218 148.837474 
L 205.319455 148.975971 
L 205.522364 150.039999 
L 205.573091 149.909493 
L 206.131091 145.160126 
L 206.283273 144.952333 
L 206.435455 145.34043 
L 206.790545 147.242996 
L 206.892 147.064068 
L 207.094909 146.803556 
L 207.247091 147.213773 
L 207.500727 148.836914 
L 208.008 153.079771 
L 208.109455 152.943308 
L 208.261636 152.810792 
L 208.413818 153.211462 
L 208.464545 153.367861 
L 208.515273 153.164668 
L 208.667455 150.185278 
L 208.971818 145.3655 
L 209.073273 145.111279 
L 209.124 145.157652 
L 209.276182 145.79206 
L 209.631273 148.833941 
L 210.189273 153.865684 
L 210.493636 153.308539 
L 210.544364 153.377188 
L 210.747273 154.188321 
L 211.153091 157.226795 
L 212.066182 164.08935 
L 212.725636 166.603506 
L 213.080727 168.030576 
L 213.232909 167.17084 
L 213.841636 163.093531 
L 213.993818 162.925819 
L 214.146 163.108605 
L 214.399636 163.913266 
L 215.008364 166.882262 
L 215.617091 169.528119 
L 216.073636 168.862358 
L 216.124364 168.906426 
L 216.327273 169.299596 
L 216.783818 170.835316 
L 216.885273 171.19355 
L 216.936 171.138799 
L 217.392545 169.1254 
L 217.544727 169.204345 
L 217.646182 167.4774 
L 218.001273 160.259315 
L 218.204182 159.501498 
L 218.305636 159.645129 
L 218.508545 160.516407 
L 219.117273 164.564982 
L 219.218727 164.238485 
L 219.472364 163.483486 
L 219.573818 163.59097 
L 219.878182 164.301051 
L 219.928909 164.257863 
L 220.131818 164.107764 
L 220.284 164.316401 
L 220.537636 165.257927 
L 221.247818 169.252598 
L 222.059455 173.262285 
L 222.718909 175.519465 
L 223.378364 177.03979 
L 223.784182 177.684635 
L 223.885636 177.306299 
L 224.494364 172.911568 
L 224.697273 172.784407 
L 224.798727 172.85621 
L 224.849455 172.768746 
L 225.001636 171.335493 
L 225.508909 163.215637 
L 225.711818 162.810147 
L 225.864 163.133264 
L 226.168364 164.590139 
L 226.219091 164.389646 
L 226.574182 160.940342 
L 226.675636 160.982321 
L 226.878545 161.834024 
L 227.436545 165.888604 
L 227.893091 168.726545 
L 228.096 167.459143 
L 228.349636 166.437606 
L 228.451091 166.418669 
L 228.603273 166.692592 
L 228.907636 167.86823 
L 230.480182 174.77248 
L 231.139636 176.501616 
L 231.849818 177.741239 
L 232.610727 178.61759 
L 233.523818 179.324282 
L 233.726727 179.446897 
L 233.828182 178.856454 
L 234.284727 174.474179 
L 234.487636 174.054532 
L 234.639818 174.111491 
L 234.893455 174.576226 
L 236.821091 179.036771 
L 237.226909 179.51079 
L 237.328364 178.870179 
L 237.784909 174.905802 
L 237.987818 174.564496 
L 238.14 174.652845 
L 238.444364 175.26989 
L 239.002364 176.818155 
L 239.053091 176.55624 
L 239.509636 171.529069 
L 239.661818 171.421873 
L 239.814 171.700794 
L 240.169091 172.993036 
L 240.219818 173.205408 
L 240.270545 173.147759 
L 241.488 162.549289 
L 241.640182 162.350927 
L 241.792364 162.717784 
L 242.096727 164.391925 
L 242.756182 168.200615 
L 243.060545 168.724278 
L 243.415636 169.985339 
L 244.430182 174.38733 
L 244.531636 173.175529 
L 244.836 169.105035 
L 245.038909 168.576033 
L 245.191091 168.835178 
L 245.495455 170.112187 
L 246.814364 176.285147 
L 247.423091 178.000934 
L 248.031818 179.124072 
L 248.691273 179.905246 
L 249.502909 180.508481 
L 249.705818 180.606552 
L 249.807273 179.93488 
L 250.263818 175.406545 
L 250.517455 174.576433 
L 250.872545 170.545949 
L 251.075455 170.145666 
L 251.227636 170.392184 
L 251.532 171.56559 
L 252.749455 176.860808 
L 252.901636 175.915046 
L 253.256727 173.732918 
L 253.408909 173.573026 
L 253.561091 173.68431 
L 253.662545 172.898721 
L 254.068364 168.643693 
L 254.220545 168.432772 
L 254.372727 168.724287 
L 254.677091 170.083352 
L 256.046727 176.9532 
L 256.655455 178.736779 
L 257.264182 179.871659 
L 257.822182 180.537577 
L 257.923636 179.752541 
L 258.684545 169.240309 
L 258.938182 167.829408 
L 259.344 161.503357 
L 259.445455 161.250545 
L 259.496182 161.272526 
L 259.648364 161.766002 
L 260.003455 164.224932 
L 261.170182 172.859134 
L 261.220909 172.940564 
L 261.271636 172.902542 
L 261.728182 172.072908 
L 261.880364 172.206028 
L 262.184727 172.913296 
L 264.163091 178.538146 
L 264.822545 179.501263 
L 265.329818 180.008391 
L 265.380545 179.879251 
L 265.634182 176.66822 
L 266.141455 170.372041 
L 266.293636 170.101996 
L 266.395091 170.201732 
L 266.598 170.810655 
L 267.206727 173.765544 
L 267.967636 177.072165 
L 268.373455 178.280146 
L 268.474909 177.906002 
L 268.83 176.247381 
L 268.982182 176.155838 
L 269.185091 176.371059 
L 269.590909 177.29315 
L 269.996727 178.328991 
L 270.047455 178.263579 
L 270.706909 171.897626 
L 271.062 169.730092 
L 271.214182 169.66209 
L 271.366364 169.946283 
L 271.721455 171.320344 
L 272.279455 173.951284 
L 272.330182 173.860161 
L 272.583818 171.468741 
L 273.040364 166.088633 
L 273.192545 165.861979 
L 273.344727 166.177734 
L 273.649091 167.664846 
L 274.004182 169.609375 
L 274.41 166.070266 
L 274.511455 166.057154 
L 274.663636 166.475027 
L 275.018727 168.425931 
L 276.084 174.486391 
L 276.134727 174.639423 
L 276.185455 174.535876 
L 276.794182 171.169478 
L 276.946364 171.361571 
L 277.250727 172.315948 
L 277.910182 174.969627 
L 277.960909 174.906341 
L 278.468182 171.699346 
L 278.620364 171.860737 
L 278.924727 172.784576 
L 280.040727 176.871929 
L 280.091455 176.801807 
L 280.294364 174.794457 
L 280.598727 172.728123 
L 280.750909 172.557414 
L 280.903091 172.738072 
L 281.207455 173.637953 
L 282.526364 178.073814 
L 282.627818 178.227618 
L 282.881455 174.522092 
L 283.896 163.065249 
L 284.048182 163.46798 
L 284.251091 164.272336 
L 284.454 163.133065 
L 284.656909 162.575033 
L 284.758364 162.718677 
L 284.961273 163.593504 
L 285.519273 167.547097 
L 285.823636 169.659307 
L 285.874364 169.599288 
L 286.330909 167.471435 
L 286.483091 167.740881 
L 286.787455 169.093539 
L 287.497636 172.96488 
L 288.004909 168.502016 
L 288.157091 168.800672 
L 288.512182 170.443394 
L 289.526727 175.350785 
L 290.186182 177.383188 
L 290.794909 178.597002 
L 291.454364 179.446787 
L 292.063091 179.960867 
L 292.164545 179.817813 
L 292.874727 177.452069 
L 293.077636 177.434464 
L 293.382 177.700266 
L 294.041455 178.722875 
L 294.954545 180.016891 
L 295.208182 180.269199 
L 295.258909 180.192033 
L 295.461818 179.004502 
L 295.816909 177.265357 
L 295.969091 176.663953 
L 296.425636 171.55483 
L 296.628545 170.725075 
L 297.085091 162.86654 
L 297.643091 148.451739 
L 297.744545 148.143809 
L 297.795273 148.200851 
L 297.947455 148.962197 
L 298.302545 152.515504 
L 299.367818 163.868794 
L 299.469273 163.793844 
L 299.672182 163.59987 
L 299.824364 163.835321 
L 300.078 164.844324 
L 300.280909 165.723112 
L 300.331636 165.63543 
L 300.788182 164.11324 
L 300.940364 164.402713 
L 301.244727 165.741501 
L 302.665091 173.316159 
L 303.223091 169.016208 
L 303.375273 169.200947 
L 303.679636 170.234193 
L 303.933273 171.332783 
L 303.984 171.170603 
L 304.389818 168.091267 
L 304.491273 168.046138 
L 304.643455 168.331719 
L 304.998545 169.794009 
L 306.114545 174.685967 
L 306.571091 175.989929 
L 306.774 173.150249 
L 307.027636 170.884173 
L 307.230545 170.572248 
L 307.382727 170.806969 
L 307.737818 172.007536 
L 307.940727 172.736023 
L 307.991455 172.685172 
L 308.194364 171.400295 
L 308.549455 168.434583 
L 308.853818 165.132279 
L 309.006 164.800517 
L 309.107455 164.908938 
L 309.361091 165.648137 
L 309.411818 165.538394 
L 309.868364 163.816682 
L 310.020545 164.093631 
L 310.223455 164.844161 
L 310.274182 164.573492 
L 310.629273 161.400895 
L 310.68 161.299857 
L 311.136545 156.84222 
L 311.187273 156.902223 
L 311.390182 157.727057 
L 311.745273 154.367142 
L 311.796 154.379374 
L 311.948182 154.954482 
L 312.303273 157.865804 
L 313.419273 167.586815 
L 314.078727 171.453049 
L 314.738182 174.075247 
L 315.397636 175.813686 
L 315.651273 176.290937 
L 315.702 176.209819 
L 315.803455 175.495108 
L 316.158545 168.129243 
L 316.513636 161.193675 
L 316.716545 160.339408 
L 316.818 160.437365 
L 317.020909 161.225207 
L 317.376 163.368026 
L 317.426727 163.01619 
L 317.781818 159.7523 
L 317.883273 159.710637 
L 318.035455 160.161503 
L 318.390545 162.40004 
L 319.608 170.613065 
L 320.216727 173.276148 
L 320.318182 172.092184 
L 320.673273 167.637492 
L 320.876182 167.224172 
L 320.926909 167.183648 
L 321.079091 165.994696 
L 321.535636 162.053907 
L 321.687818 161.887363 
L 321.84 162.173363 
L 322.144364 163.504662 
L 323.463273 170.971103 
L 323.514 170.83642 
L 324.072 167.167849 
L 324.376364 162.207914 
L 324.528545 161.831693 
L 324.63 162.034842 
L 324.883636 163.351909 
L 325.999636 170.818914 
L 326.050364 170.522185 
L 326.456182 166.910065 
L 326.557636 166.856096 
L 326.709818 167.174043 
L 327.064909 168.809159 
L 328.180909 174.258508 
L 328.738909 176.057043 
L 328.789636 176.092967 
L 328.891091 175.623521 
L 329.347636 172.604774 
L 329.550545 172.395943 
L 329.702727 172.535889 
L 330.007091 173.21399 
L 331.731818 177.721482 
L 332.442 178.750939 
L 332.492727 178.788424 
L 332.644909 176.625337 
L 333.355091 166.272326 
L 333.456545 166.193217 
L 333.608727 166.551146 
L 333.963818 168.406431 
L 335.029091 174.31119 
L 335.688545 176.663584 
L 336.297273 178.077975 
L 336.956727 179.066101 
L 337.717636 179.787944 
L 338.681455 180.36712 
L 339.188727 180.589747 
L 339.290182 179.839382 
L 339.696 175.671903 
L 339.848182 174.583463 
L 340.152545 172.580213 
L 340.355455 172.035847 
L 340.456909 170.715513 
L 341.014909 159.547382 
L 341.167091 159.021202 
L 341.217818 159.031888 
L 341.37 159.450155 
L 341.674364 160.951976 
L 341.725091 160.724886 
L 341.978727 159.45501 
L 342.080182 159.496788 
L 342.181636 159.733511 
L 342.232364 159.654457 
L 342.688909 156.951002 
L 342.790364 157.056595 
L 342.993273 157.89408 
L 343.449818 161.251479 
L 344.718 171.009607 
L 344.768727 171.124814 
L 344.920909 169.912075 
L 345.377455 164.731851 
L 345.732545 158.566816 
L 345.935455 157.801088 
L 346.036909 157.843394 
L 346.239818 158.441782 
L 346.594909 160.462546 
L 347.000727 163.170433 
L 347.406545 160.259836 
L 347.457273 160.296156 
L 347.609455 160.787776 
L 347.964545 163.059737 
L 348.218182 164.833418 
L 348.268909 164.657179 
L 348.674727 162.164081 
L 348.776182 162.275092 
L 348.979091 163.043121 
L 349.537091 166.537103 
L 350.450182 171.859851 
L 351.109636 174.509459 
L 351.769091 176.305149 
L 352.428545 177.507397 
L 353.189455 178.435106 
L 354.102545 179.18165 
L 355.32 179.867351 
L 355.522909 179.915939 
L 355.624364 179.384615 
L 356.740364 169.887714 
L 356.892545 170.06532 
L 357.196909 171.067609 
L 357.602727 172.858077 
L 357.653455 172.724092 
L 357.957818 168.38016 
L 358.414364 160.935352 
L 358.617273 159.944518 
L 358.718727 160.032906 
L 358.921636 160.892442 
L 359.428909 164.609706 
L 359.986909 168.772534 
L 360.037636 168.747246 
L 360.189818 167.332753 
L 360.646364 161.407655 
L 361.102909 157.712136 
L 361.153636 157.765049 
L 361.305818 158.34133 
L 361.660909 160.97721 
L 362.624727 168.989838 
L 362.675455 168.886814 
L 363.081273 166.693659 
L 363.182727 166.766005 
L 363.385636 167.405435 
L 363.943636 170.385435 
L 364.755273 174.343326 
L 365.110364 175.535372 
L 365.211818 174.354638 
L 365.566909 169.354995 
L 365.769818 168.734565 
L 365.871273 168.798233 
L 366.074182 169.34366 
L 366.632182 171.887443 
L 367.139455 173.957922 
L 367.240909 173.833265 
L 367.646727 173.109263 
L 367.798909 173.178903 
L 368.052545 173.59431 
L 368.661273 175.209471 
L 368.965636 175.958859 
L 369.168545 173.218482 
L 369.422182 170.91997 
L 369.777273 169.44038 
L 370.030909 168.287162 
L 370.183091 168.249609 
L 370.386 168.726765 
L 370.842545 170.754833 
L 371.857091 175.304282 
L 372.516545 177.275638 
L 373.176 178.561921 
L 373.581818 179.11402 
L 373.581818 179.11402 
" style="fill:none;stroke:#000000;stroke-linecap:square;stroke-width:1.5;"/>
   </g>
   <g id="line2d_15">
    <path clip-path="url(#p84b5429cca)" d="M 69.218182 178.0704 
L 69.319636 174.579025 
L 69.370364 174.756756 
L 70.080545 179.499894 
L 70.232727 178.135364 
L 70.334182 176.795605 
L 70.689273 169.79858 
L 71.196545 165.888901 
L 71.247273 165.930428 
L 71.399455 166.43567 
L 71.754545 168.819096 
L 72.819818 176.440652 
L 73.073455 177.358256 
L 73.225636 176.919408 
L 73.53 176.128854 
L 73.682182 176.100123 
L 73.885091 176.334613 
L 74.138727 176.87732 
L 74.189455 176.754263 
L 74.696727 172.472662 
L 74.798182 172.46585 
L 74.950364 172.764449 
L 75.356182 174.246017 
L 75.406909 174.163128 
L 75.914182 172.369985 
L 76.066364 172.56003 
L 76.370727 173.510195 
L 77.943273 179.30013 
L 78.552 180.5092 
L 79.160727 181.261121 
L 79.820182 181.756784 
L 79.921636 181.658983 
L 80.124545 180.330411 
L 80.276727 178.811283 
L 81.037636 165.617634 
L 81.139091 165.583327 
L 81.291273 165.957733 
L 81.494182 166.844427 
L 81.544909 166.699739 
L 82.204364 162.656943 
L 82.305818 162.695081 
L 82.458 163.124941 
L 82.660909 163.980369 
L 83.066727 161.074797 
L 83.168182 161.191205 
L 83.371091 162.10901 
L 83.878364 165.954895 
L 84.639273 171.385544 
L 84.740727 171.379678 
L 85.197273 170.679278 
L 85.400182 170.940279 
L 85.603091 171.297212 
L 86.161091 167.065619 
L 86.262545 167.167551 
L 86.465455 167.812735 
L 87.023455 170.730499 
L 87.885818 174.950225 
L 88.443818 176.850794 
L 88.494545 176.754184 
L 89.052545 171.253417 
L 89.306182 164.712857 
L 89.712 154.236863 
L 89.965636 151.816052 
L 90.067091 151.847938 
L 90.219273 152.525049 
L 90.574364 155.591197 
L 91.284545 162.009967 
L 91.436727 161.969464 
L 91.588909 161.964444 
L 91.741091 162.21348 
L 92.045455 163.389574 
L 92.958545 168.510418 
L 93.820909 172.68123 
L 94.531091 175.126345 
L 95.038364 176.378708 
L 95.089091 176.293301 
L 95.647091 171.752624 
L 95.799273 171.694661 
L 96.002182 172.01789 
L 96.458727 173.403854 
L 97.422545 176.299679 
L 98.132727 177.732843 
L 98.842909 178.683086 
L 99.045818 178.822137 
L 99.198 176.526098 
L 99.502364 172.882967 
L 99.705273 172.346027 
L 99.857455 172.445623 
L 100.111091 173.061292 
L 101.734364 177.813939 
L 101.937273 178.186657 
L 101.988 178.028831 
L 102.546 173.085572 
L 102.698182 173.023073 
L 102.901091 173.343869 
L 103.459091 174.8902 
L 103.509818 174.71041 
L 104.017091 171.91565 
L 104.169273 171.906567 
L 104.372182 172.269532 
L 104.828727 173.774097 
L 105.894 177.3041 
L 106.553455 178.716338 
L 107.212909 179.631084 
L 107.973818 180.298979 
L 108.937636 180.826945 
L 109.952182 181.201109 
L 110.002909 181.023336 
L 110.560909 175.182191 
L 110.763818 174.992694 
L 110.966727 175.282287 
L 111.372545 176.204879 
L 111.524727 175.342521 
L 111.879818 173.539903 
L 112.032 173.427986 
L 112.184182 173.582267 
L 112.488545 174.343062 
L 114.162545 179.272856 
L 114.822 180.291481 
L 115.532182 180.964437 
L 115.582909 181.000958 
L 115.633636 180.868939 
L 115.836545 177.02807 
L 116.749636 160.728502 
L 117.155455 156.689825 
L 117.256909 156.739636 
L 117.409091 157.427804 
L 117.764182 160.495483 
L 118.981636 171.631441 
L 119.539636 174.784366 
L 119.691818 173.517134 
L 119.996182 171.472554 
L 120.148364 171.38251 
L 120.300545 171.653643 
L 120.655636 172.941896 
L 121.771636 177.267192 
L 122.431091 178.867428 
L 122.836909 179.540492 
L 122.887636 179.469518 
L 123.090545 177.378782 
L 123.394909 174.865295 
L 123.597818 174.383149 
L 123.75 174.392968 
L 124.308 168.178986 
L 124.358727 168.21824 
L 124.510909 168.630265 
L 124.916727 170.714664 
L 125.525455 174.043713 
L 125.576182 173.971831 
L 126.032727 165.969363 
L 126.134182 165.790043 
L 126.184909 165.829295 
L 126.337091 166.294515 
L 126.742909 168.688642 
L 127.706727 174.335752 
L 128.366182 176.827513 
L 128.822727 177.920637 
L 128.924182 177.641526 
L 129.532909 175.014802 
L 129.735818 174.929949 
L 129.938727 175.096662 
L 130.344545 175.828278 
L 131.967818 179.142239 
L 132.322909 179.591989 
L 132.475091 177.442272 
L 132.779455 173.872068 
L 132.982364 173.332348 
L 133.134545 173.441803 
L 133.388182 174.090755 
L 134.149091 176.538 
L 134.301273 175.585061 
L 134.808545 172.099921 
L 135.112909 170.545808 
L 135.315818 170.347008 
L 135.468 170.522473 
L 135.772364 171.35244 
L 136.736182 175.096156 
L 137.497091 177.532825 
L 138.156545 178.961425 
L 138.816 179.886672 
L 139.120364 180.183798 
L 139.221818 179.309287 
L 139.576909 175.110004 
L 139.779818 174.541441 
L 139.830545 174.51853 
L 139.932 173.555048 
L 140.287091 169.357094 
L 140.439273 169.075633 
L 140.591455 169.339053 
L 140.895818 170.647145 
L 141.301636 172.819234 
L 141.352364 172.785424 
L 141.910364 167.099189 
L 142.011818 167.186815 
L 142.214727 167.832244 
L 142.722 170.560203 
L 143.635091 175.21507 
L 144.193091 177.020411 
L 144.345273 175.791442 
L 144.548182 172.541989 
L 144.852545 166.984 
L 145.055455 166.165797 
L 145.156909 166.263468 
L 145.359818 167.011572 
L 146.019273 170.942263 
L 146.07 170.495138 
L 146.374364 166.644862 
L 146.526545 166.410835 
L 146.678727 166.824792 
L 147.033818 168.799499 
L 147.997636 174.233071 
L 148.657091 176.626567 
L 148.758545 176.797977 
L 148.961455 173.693962 
L 149.215091 171.322763 
L 149.367273 171.032891 
L 149.519455 171.19404 
L 149.823818 172.147758 
L 151.142727 176.842505 
L 151.294909 177.204791 
L 151.396364 176.366951 
L 151.751455 172.832019 
L 151.954364 172.400566 
L 152.106545 172.532184 
L 152.410909 173.350411 
L 153.831273 177.778141 
L 154.490727 178.961402 
L 155.200909 179.770831 
L 156.012545 180.35216 
L 157.128545 180.858125 
L 158.346 181.241627 
L 158.396727 181.187906 
L 158.548909 179.252262 
L 158.853273 175.713716 
L 159.056182 175.043285 
L 159.208364 175.043254 
L 159.411273 175.396467 
L 159.969273 177.050224 
L 160.222909 177.800307 
L 160.273636 177.715659 
L 160.831636 174.395158 
L 160.983818 174.409908 
L 161.186727 174.77159 
L 161.694 176.362069 
L 162.607091 179.089665 
L 163.266545 180.344081 
L 163.824545 181.00879 
L 163.926 180.440153 
L 164.331818 176.642964 
L 164.534727 176.234718 
L 164.686909 176.303869 
L 164.940545 176.779093 
L 165.397091 177.940558 
L 165.447818 177.796442 
L 165.6 176.373537 
L 165.904364 170.849334 
L 166.411636 161.742267 
L 166.614545 160.498978 
L 166.716 160.522442 
L 166.868182 161.061832 
L 166.918909 161.336602 
L 166.969636 161.257769 
L 167.121818 157.157061 
L 167.375455 152.737172 
L 167.476909 152.548428 
L 167.578364 152.900061 
L 167.832 155.078016 
L 168.39 161.410086 
L 168.440727 160.812638 
L 168.745091 156.737394 
L 168.846545 156.652691 
L 168.998727 157.290299 
L 169.353818 160.403738 
L 169.962545 166.084557 
L 170.368364 164.194623 
L 170.419091 164.271666 
L 170.622 165.078321 
L 171.230727 169.134541 
L 171.940909 173.346752 
L 171.991636 173.474734 
L 172.143818 171.855686 
L 172.397455 169.706963 
L 172.549636 169.492122 
L 172.701818 169.725748 
L 173.006182 170.831728 
L 173.716364 173.98061 
L 173.767091 173.91665 
L 174.274364 169.902562 
L 174.629455 167.988377 
L 174.781636 167.910892 
L 174.933818 168.160985 
L 175.238182 169.21175 
L 175.694727 171.21502 
L 175.745455 171.168127 
L 176.049818 169.434991 
L 176.506364 162.58413 
L 176.962909 161.894724 
L 177.419455 158.815736 
L 177.571636 159.244204 
L 177.876 161.204355 
L 178.129636 163.08732 
L 178.180364 163.069653 
L 178.535455 161.962996 
L 178.586182 162.004437 
L 178.738364 162.445298 
L 179.093455 164.570089 
L 179.296364 165.662834 
L 179.499273 164.387902 
L 179.752909 160.582726 
L 180.006545 158.560698 
L 180.108 158.533338 
L 180.310909 159.012101 
L 180.361636 158.957444 
L 180.666 158.455382 
L 180.818182 158.82229 
L 181.122545 160.539285 
L 181.731273 165.098623 
L 181.782 164.937819 
L 182.137091 162.771229 
L 182.238545 162.880233 
L 182.695091 163.818036 
L 182.847273 163.951529 
L 183.050182 164.511137 
L 183.456 166.30305 
L 183.506727 166.137777 
L 183.963273 163.590608 
L 184.064727 163.680866 
L 184.267636 164.09814 
L 184.318364 164.073791 
L 184.470545 163.523653 
L 184.724182 162.724925 
L 184.825636 162.739232 
L 185.028545 163.175878 
L 185.231455 163.771741 
L 185.383636 162.57751 
L 185.688 160.430201 
L 185.789455 160.33683 
L 185.840182 160.386077 
L 185.992364 160.826743 
L 186.347455 162.840064 
L 186.905455 166.732285 
L 186.956182 166.712331 
L 187.260545 164.012264 
L 187.767818 157.601612 
L 188.528727 149.712165 
L 188.630182 149.884163 
L 188.934545 151.349287 
L 189.036 150.985615 
L 189.391091 149.173316 
L 189.492545 149.174065 
L 189.543273 149.241435 
L 189.594 149.156252 
L 190.050545 146.112086 
L 190.101273 146.154755 
L 190.253455 146.695366 
L 191.268 153.074481 
L 191.521636 154.770153 
L 191.876727 153.265143 
L 191.927455 153.297671 
L 192.130364 153.265786 
L 192.282545 153.349884 
L 192.485455 153.989084 
L 192.840545 156.212188 
L 193.601455 162.031212 
L 193.652182 161.817938 
L 193.956545 157.234093 
L 194.362364 145.658617 
L 194.565273 144.358875 
L 194.666727 144.431109 
L 194.869636 145.382558 
L 195.326182 149.278065 
L 195.934909 154.945806 
L 196.340727 152.067514 
L 196.391455 152.124162 
L 196.543636 152.696343 
L 196.898727 155.275846 
L 197.558182 160.10823 
L 198.065455 162.435992 
L 199.790182 171.569959 
L 200.500364 173.975957 
L 201.210545 175.640763 
L 201.413455 175.937793 
L 201.464182 175.907058 
L 201.514909 175.82148 
L 201.616364 174.693218 
L 202.174364 162.207286 
L 202.529455 153.275094 
L 202.732364 152.075801 
L 202.833818 152.147859 
L 203.036727 153.075944 
L 203.341091 154.760054 
L 203.391818 154.726953 
L 203.645455 154.433974 
L 203.797636 154.73804 
L 203.949818 155.229211 
L 204.000545 155.180513 
L 204.152727 154.736561 
L 204.609273 150.961724 
L 204.66 150.973295 
L 204.862909 151.556789 
L 204.913636 151.277574 
L 205.218 149.167709 
L 205.319455 149.314149 
L 205.522364 150.389208 
L 205.573091 150.259964 
L 206.131091 145.571777 
L 206.283273 145.381934 
L 206.435455 145.786014 
L 206.790545 147.710953 
L 206.892 147.534488 
L 207.094909 147.28017 
L 207.247091 147.695583 
L 207.551455 149.73703 
L 208.008 153.547223 
L 208.058727 153.510321 
L 208.261636 153.261764 
L 208.413818 153.654303 
L 208.464545 153.807843 
L 208.566 152.98792 
L 208.971818 145.811241 
L 209.073273 145.565409 
L 209.124 145.6155 
L 209.276182 146.258156 
L 209.631273 149.30155 
L 210.189273 154.298573 
L 210.493636 153.718431 
L 210.544364 153.784243 
L 210.696545 154.315881 
L 211.051636 156.755856 
L 212.066182 164.359048 
L 212.674909 166.583694 
L 213.080727 168.207114 
L 213.232909 167.334995 
L 213.841636 163.243018 
L 213.993818 163.077761 
L 214.146 163.262504 
L 214.399636 164.067026 
L 215.008364 167.019256 
L 215.617091 169.635794 
L 216.073636 168.953387 
L 216.124364 168.996149 
L 216.327273 169.383983 
L 216.783818 170.905378 
L 216.885273 171.260056 
L 216.936 171.203471 
L 217.392545 169.179765 
L 217.544727 169.256598 
L 217.646182 167.528182 
L 218.001273 160.323968 
L 218.204182 159.579044 
L 218.305636 159.72759 
L 218.508545 160.605353 
L 219.117273 164.65409 
L 219.218727 164.325912 
L 219.472364 163.569393 
L 219.573818 163.676879 
L 219.878182 164.38566 
L 219.928909 164.342146 
L 220.131818 164.191712 
L 220.284 164.400819 
L 220.537636 165.342182 
L 221.298545 169.607518 
L 222.110182 173.507364 
L 222.769636 175.678355 
L 223.429091 177.13571 
L 223.784182 177.680501 
L 223.885636 177.300537 
L 224.494364 172.910598 
L 224.697273 172.786954 
L 224.798727 172.860013 
L 224.849455 172.773043 
L 225.001636 171.341192 
L 225.508909 163.24265 
L 225.711818 162.848728 
L 225.864 163.178706 
L 226.168364 164.643721 
L 226.219091 164.443846 
L 226.574182 160.998659 
L 226.675636 161.042348 
L 226.878545 161.896998 
L 227.436545 165.951272 
L 227.893091 168.780556 
L 228.096 167.50911 
L 228.349636 166.48659 
L 228.451091 166.46793 
L 228.603273 166.742178 
L 228.907636 167.916745 
L 230.480182 174.790214 
L 231.139636 176.506245 
L 231.849818 177.735447 
L 232.610727 178.604498 
L 233.523818 179.306105 
L 233.726727 179.427958 
L 233.828182 178.837175 
L 234.284727 174.457598 
L 234.487636 174.040805 
L 234.639818 174.099688 
L 234.893455 174.566718 
L 236.821091 179.022049 
L 237.226909 179.49409 
L 237.328364 178.853044 
L 237.784909 174.890581 
L 237.987818 174.551528 
L 238.14 174.641389 
L 238.444364 175.260422 
L 239.002364 176.808948 
L 239.053091 176.546897 
L 239.509636 171.521691 
L 239.661818 171.416141 
L 239.814 171.696498 
L 240.219818 173.203072 
L 240.270545 173.145468 
L 241.488 162.563335 
L 241.640182 162.369469 
L 241.792364 162.740578 
L 242.096727 164.42077 
L 242.756182 168.230233 
L 243.060545 168.753746 
L 243.415636 170.014594 
L 244.430182 174.403987 
L 244.531636 173.190428 
L 244.836 169.117171 
L 245.038909 168.588426 
L 245.191091 168.848016 
L 245.495455 170.125274 
L 246.814364 176.287185 
L 247.423091 177.996609 
L 248.031818 179.114776 
L 248.691273 179.892261 
L 249.502909 180.492825 
L 249.705818 180.590459 
L 249.807273 179.918602 
L 250.263818 175.392318 
L 250.517455 174.564645 
L 250.872545 170.537863 
L 251.075455 170.140344 
L 251.227636 170.38882 
L 251.532 171.565041 
L 252.749455 176.857754 
L 252.901636 175.911118 
L 253.256727 173.729541 
L 253.408909 173.570502 
L 253.561091 173.682489 
L 253.662545 172.897222 
L 254.068364 168.645655 
L 254.220545 168.436759 
L 254.372727 168.730032 
L 254.677091 170.091096 
L 256.046727 176.953244 
L 256.655455 178.731755 
L 257.264182 179.862736 
L 257.822182 180.526191 
L 257.923636 179.740801 
L 258.684545 169.233082 
L 258.938182 167.82631 
L 259.344 161.50852 
L 259.445455 161.258291 
L 259.496182 161.281533 
L 259.648364 161.778447 
L 260.003455 164.242405 
L 261.170182 172.871399 
L 261.220909 172.952261 
L 261.271636 172.913681 
L 261.728182 172.081436 
L 261.880364 172.214463 
L 262.184727 172.921333 
L 264.163091 178.534138 
L 264.822545 179.494082 
L 265.329818 179.999522 
L 265.380545 179.870243 
L 265.634182 176.658971 
L 266.141455 170.366824 
L 266.293636 170.098661 
L 266.395091 170.199536 
L 266.648727 171.017905 
L 268.373455 178.276388 
L 268.474909 177.901772 
L 268.83 176.242489 
L 268.982182 176.150977 
L 269.185091 176.366235 
L 269.590909 177.28806 
L 269.996727 178.323186 
L 270.047455 178.257664 
L 270.706909 171.892995 
L 271.062 169.729038 
L 271.214182 169.662855 
L 271.366364 169.948487 
L 271.721455 171.32416 
L 272.279455 173.954313 
L 272.330182 173.863 
L 272.583818 171.471159 
L 273.040364 166.094271 
L 273.192545 165.869313 
L 273.344727 166.186503 
L 273.649091 167.675201 
L 274.004182 169.619589 
L 274.41 166.079802 
L 274.511455 166.066855 
L 274.663636 166.485012 
L 275.018727 168.436014 
L 276.084 174.491221 
L 276.134727 174.643911 
L 276.185455 174.540018 
L 276.794182 171.172725 
L 276.946364 171.365083 
L 277.250727 172.319523 
L 277.910182 174.971402 
L 277.960909 174.907911 
L 278.468182 171.700671 
L 278.620364 171.862227 
L 278.924727 172.786007 
L 280.040727 176.870384 
L 280.091455 176.800086 
L 280.294364 174.792183 
L 280.598727 172.726142 
L 280.750909 172.555866 
L 280.903091 172.736933 
L 281.207455 173.637266 
L 282.526364 178.070728 
L 282.627818 178.224257 
L 282.881455 174.518213 
L 283.896 163.068821 
L 284.048182 163.473075 
L 284.251091 164.278949 
L 284.454 163.14082 
L 284.656909 162.584152 
L 284.758364 162.728488 
L 284.961273 163.604443 
L 285.519273 167.558414 
L 285.823636 169.669468 
L 285.874364 169.609185 
L 286.330909 167.479961 
L 286.483091 167.749337 
L 286.787455 169.101643 
L 287.497636 172.97031 
L 288.004909 168.505891 
L 288.157091 168.804499 
L 288.512182 170.447001 
L 289.526727 175.351652 
L 290.186182 177.381843 
L 290.794909 178.594003 
L 291.454364 179.442527 
L 292.063091 179.955854 
L 292.164545 179.812708 
L 292.874727 177.447944 
L 293.077636 177.43075 
L 293.382 177.696887 
L 294.041455 178.719366 
L 294.954545 180.012499 
L 295.208182 180.264567 
L 295.258909 180.187355 
L 295.461818 178.999724 
L 295.816909 177.261169 
L 295.969091 176.660199 
L 296.425636 171.552807 
L 296.628545 170.723946 
L 297.085091 162.867984 
L 297.643091 148.462455 
L 297.744545 148.156813 
L 297.795273 148.214937 
L 297.947455 148.979147 
L 298.302545 152.53656 
L 299.367818 163.888175 
L 299.469273 163.812644 
L 299.672182 163.618048 
L 299.824364 163.853293 
L 300.078 164.861724 
L 300.280909 165.739651 
L 300.331636 165.651706 
L 300.788182 164.128675 
L 300.940364 164.418119 
L 301.244727 165.756293 
L 302.665091 173.322997 
L 303.223091 169.02114 
L 303.375273 169.205686 
L 303.679636 170.238489 
L 303.933273 171.336592 
L 303.984 171.174296 
L 304.389818 168.094442 
L 304.491273 168.049329 
L 304.643455 168.33496 
L 304.998545 169.797228 
L 306.114545 174.687272 
L 306.571091 175.990198 
L 306.774 173.150116 
L 307.027636 170.883975 
L 307.230545 170.572248 
L 307.382727 170.807142 
L 307.737818 172.00795 
L 307.940727 172.73643 
L 307.991455 172.685563 
L 308.194364 171.400725 
L 308.549455 168.435792 
L 308.853818 165.134649 
L 309.006 164.803566 
L 309.107455 164.912398 
L 309.361091 165.652352 
L 309.411818 165.542715 
L 309.868364 163.822709 
L 310.020545 164.100294 
L 310.223455 164.851345 
L 310.274182 164.580739 
L 310.629273 161.408753 
L 310.68 161.307837 
L 311.136545 156.851515 
L 311.187273 156.911707 
L 311.390182 157.737202 
L 311.745273 154.378162 
L 311.796 154.390563 
L 311.948182 154.966168 
L 312.303273 157.878202 
L 313.419273 167.596389 
L 314.078727 171.459487 
L 314.738182 174.078823 
L 315.397636 175.815069 
L 315.651273 176.291663 
L 315.702 176.210424 
L 315.803455 175.4955 
L 316.158545 168.129895 
L 316.513636 161.196105 
L 316.716545 160.343045 
L 316.818 160.441538 
L 317.020909 161.230233 
L 317.376 163.373812 
L 317.426727 163.022007 
L 317.781818 159.75853 
L 317.883273 159.717079 
L 318.035455 160.168255 
L 318.390545 162.407181 
L 319.608 170.617912 
L 320.216727 173.279164 
L 320.318182 172.094908 
L 320.673273 167.639898 
L 320.876182 167.226687 
L 320.926909 167.186188 
L 321.079091 165.99732 
L 321.535636 162.057701 
L 321.687818 161.891823 
L 321.84 162.178425 
L 322.144364 163.510465 
L 323.463273 170.975316 
L 323.514 170.840501 
L 324.072 167.1713 
L 324.376364 162.211459 
L 324.528545 161.835439 
L 324.63 162.038735 
L 324.883636 163.356086 
L 325.999636 170.822092 
L 326.050364 170.525258 
L 326.456182 166.912631 
L 326.557636 166.858644 
L 326.709818 167.176586 
L 327.064909 168.811615 
L 328.180909 174.259612 
L 328.738909 176.057325 
L 328.789636 176.093178 
L 328.891091 175.623603 
L 329.347636 172.604893 
L 329.550545 172.396237 
L 329.702727 172.536275 
L 330.007091 173.214424 
L 331.731818 177.720766 
L 332.442 178.74977 
L 332.492727 178.787229 
L 332.644909 176.624068 
L 333.355091 166.271748 
L 333.456545 166.19286 
L 333.608727 166.551103 
L 333.963818 168.406911 
L 335.029091 174.311545 
L 335.688545 176.663368 
L 336.297273 178.077266 
L 336.956727 179.06499 
L 337.717636 179.786536 
L 338.681455 180.365514 
L 339.188727 180.588087 
L 339.290182 179.837715 
L 339.696 175.670388 
L 339.848182 174.582078 
L 340.152545 172.579213 
L 340.355455 172.035113 
L 340.456909 170.714913 
L 341.014909 159.548754 
L 341.167091 159.023346 
L 341.217818 159.034267 
L 341.37 159.453136 
L 341.674364 160.955683 
L 341.725091 160.728658 
L 341.978727 159.459119 
L 342.080182 159.501044 
L 342.181636 159.737899 
L 342.232364 159.658902 
L 342.688909 156.956762 
L 342.790364 157.062759 
L 342.993273 157.900814 
L 343.449818 161.258358 
L 344.718 171.013699 
L 344.768727 171.128767 
L 344.920909 169.91563 
L 345.377455 164.734815 
L 345.732545 158.571647 
L 345.935455 157.807279 
L 346.036909 157.850054 
L 346.239818 158.449005 
L 346.594909 160.469932 
L 347.000727 163.177303 
L 347.406545 160.266086 
L 347.457273 160.302359 
L 347.609455 160.793841 
L 347.964545 163.065389 
L 348.218182 164.838663 
L 348.268909 164.662328 
L 348.674727 162.168719 
L 348.776182 162.279667 
L 348.979091 163.04757 
L 349.537091 166.540986 
L 350.450182 171.862277 
L 351.109636 174.510846 
L 351.769091 176.305712 
L 352.428545 177.507379 
L 353.189455 178.434661 
L 354.102545 179.180919 
L 355.32 179.866444 
L 355.522909 179.915014 
L 355.624364 179.383685 
L 356.740364 169.887665 
L 356.892545 170.065406 
L 357.196909 171.067867 
L 357.602727 172.858378 
L 357.653455 172.724386 
L 357.957818 168.380434 
L 358.414364 160.936079 
L 358.617273 159.94563 
L 358.718727 160.034198 
L 358.921636 160.894022 
L 359.428909 164.611556 
L 359.986909 168.774175 
L 360.037636 168.74885 
L 360.189818 167.334259 
L 360.646364 161.409281 
L 361.102909 157.714268 
L 361.153636 157.767244 
L 361.305818 158.343691 
L 361.660909 160.979763 
L 362.624727 168.991836 
L 362.675455 168.888757 
L 363.081273 166.695277 
L 363.182727 166.76758 
L 363.385636 167.406935 
L 363.943636 170.386644 
L 364.755273 174.343948 
L 365.110364 175.535743 
L 365.211818 174.354942 
L 365.566909 169.355262 
L 365.769818 168.734908 
L 365.871273 168.798611 
L 366.074182 169.344091 
L 366.632182 171.887857 
L 367.139455 173.958183 
L 367.240909 173.833492 
L 367.646727 173.109472 
L 367.798909 173.179135 
L 368.052545 173.59456 
L 368.661273 175.20963 
L 368.965636 175.958931 
L 369.168545 173.218497 
L 369.422182 170.91999 
L 369.777273 169.440489 
L 370.030909 168.287409 
L 370.183091 168.249952 
L 370.386 168.727208 
L 370.842545 170.755337 
L 371.857091 175.304485 
L 372.516545 177.275586 
L 373.176 178.561663 
L 373.581818 179.113668 
L 373.581818 179.113668 
" style="fill:none;stroke:#ff0000;stroke-linecap:square;stroke-width:1.5;"/>
   </g>
   <g id="line2d_16">
    <path clip-path="url(#p84b5429cca)" d="M 322.854545 143.28 
L 373.480364 143.28 
L 373.480364 143.28 
" style="fill:none;stroke:#000000;stroke-linecap:square;stroke-width:1.5;"/>
   </g>
   <g id="line2d_17">
    <path clip-path="url(#p84b5429cca)" d="M 322.854545 165.024 
L 322.854545 160.6752 
L 322.854545 156.3264 
L 322.854545 151.9776 
L 322.854545 147.6288 
" style="fill:none;stroke:#000000;stroke-linecap:square;stroke-width:1.5;"/>
   </g>
   <g id="patch_3">
    <path d="M 54 252 
L 54 34.56 
" style="fill:none;stroke:#000000;stroke-linecap:square;stroke-linejoin:miter;stroke-width:0.8;"/>
   </g>
   <g id="patch_4">
    <path d="M 54 252 
L 388.8 252 
" style="fill:none;stroke:#000000;stroke-linecap:square;stroke-linejoin:miter;stroke-width:0.8;"/>
   </g>
   <g id="text_16">
    <!-- 500 ms -->
    <g transform="translate(322.854545 138.9312)scale(0.1 -0.1)">
     <use xlink:href="#DejaVuSans-53"/>
     <use x="63.623047" xlink:href="#DejaVuSans-48"/>
     <use x="127.246094" xlink:href="#DejaVuSans-48"/>
     <use x="190.869141" xlink:href="#DejaVuSans-32"/>
     <use x="222.65625" xlink:href="#DejaVuSans-109"/>
     <use x="320.068359" xlink:href="#DejaVuSans-115"/>
    </g>
   </g>
   <g id="text_17">
    <!-- 5 mV -->
    <g transform="translate(327.927273 156.3264)scale(0.1 -0.1)">
     <use xlink:href="#DejaVuSans-53"/>
     <use x="63.623047" xlink:href="#DejaVuSans-32"/>
     <use x="95.410156" xlink:href="#DejaVuSans-109"/>
     <use x="192.822266" xlink:href="#DejaVuSans-86"/>
    </g>
   </g>
  </g>
 </g>
 <defs>
  <clipPath id="p84b5429cca">
   <rect height="217.44" width="334.8" x="54" y="34.56"/>
  </clipPath>
 </defs>
</svg>
