<?xml version="1.0" encoding="utf-8" standalone="no"?>
<!DOCTYPE svg PUBLIC "-//W3C//DTD SVG 1.1//EN"
  "http://www.w3.org/Graphics/SVG/1.1/DTD/svg11.dtd">
<!-- Created with matplotlib (https://matplotlib.org/) -->
<svg height="288pt" version="1.1" viewBox="0 0 432 288" width="432pt" xmlns="http://www.w3.org/2000/svg" xmlns:xlink="http://www.w3.org/1999/xlink">
 <metadata>
  <rdf:RDF xmlns:cc="http://creativecommons.org/ns#" xmlns:dc="http://purl.org/dc/elements/1.1/" xmlns:rdf="http://www.w3.org/1999/02/22-rdf-syntax-ns#">
   <cc:Work>
    <dc:type rdf:resource="http://purl.org/dc/dcmitype/StillImage"/>
    <dc:date>2022-06-27T16:42:26.902697</dc:date>
    <dc:format>image/svg+xml</dc:format>
    <dc:creator>
     <cc:Agent>
      <dc:title>Matplotlib v3.3.4, https://matplotlib.org/</dc:title>
     </cc:Agent>
    </dc:creator>
   </cc:Work>
  </rdf:RDF>
 </metadata>
 <defs>
  <style type="text/css">*{stroke-linecap:butt;stroke-linejoin:round;}</style>
 </defs>
 <g id="figure_1">
  <g id="patch_1">
   <path d="M 0 288 
L 432 288 
L 432 0 
L 0 0 
z
" style="fill:none;"/>
  </g>
  <g id="axes_1">
   <g id="patch_2">
    <path d="M 54 252 
L 388.8 252 
L 388.8 34.56 
L 54 34.56 
z
" style="fill:#ffffff;"/>
   </g>
   <g id="matplotlib.axis_1">
    <g id="xtick_1">
     <g id="line2d_1">
      <defs>
       <path d="M 0 0 
L 0 3.5 
" id="m665bd58f5f" style="stroke:#000000;stroke-width:0.8;"/>
      </defs>
      <g>
       <use style="stroke:#000000;stroke-width:0.8;" x="69.218182" xlink:href="#m665bd58f5f" y="252"/>
      </g>
     </g>
     <g id="text_1">
      <!-- 0 -->
      <g transform="translate(66.036932 266.598437)scale(0.1 -0.1)">
       <defs>
        <path d="M 31.78125 66.40625 
Q 24.171875 66.40625 20.328125 58.90625 
Q 16.5 51.421875 16.5 36.375 
Q 16.5 21.390625 20.328125 13.890625 
Q 24.171875 6.390625 31.78125 6.390625 
Q 39.453125 6.390625 43.28125 13.890625 
Q 47.125 21.390625 47.125 36.375 
Q 47.125 51.421875 43.28125 58.90625 
Q 39.453125 66.40625 31.78125 66.40625 
z
M 31.78125 74.21875 
Q 44.046875 74.21875 50.515625 64.515625 
Q 56.984375 54.828125 56.984375 36.375 
Q 56.984375 17.96875 50.515625 8.265625 
Q 44.046875 -1.421875 31.78125 -1.421875 
Q 19.53125 -1.421875 13.0625 8.265625 
Q 6.59375 17.96875 6.59375 36.375 
Q 6.59375 54.828125 13.0625 64.515625 
Q 19.53125 74.21875 31.78125 74.21875 
z
" id="DejaVuSans-48"/>
       </defs>
       <use xlink:href="#DejaVuSans-48"/>
      </g>
     </g>
    </g>
    <g id="xtick_2">
     <g id="line2d_2">
      <g>
       <use style="stroke:#000000;stroke-width:0.8;" x="119.945455" xlink:href="#m665bd58f5f" y="252"/>
      </g>
     </g>
     <g id="text_2">
      <!-- 500 -->
      <g transform="translate(110.401705 266.598437)scale(0.1 -0.1)">
       <defs>
        <path d="M 10.796875 72.90625 
L 49.515625 72.90625 
L 49.515625 64.59375 
L 19.828125 64.59375 
L 19.828125 46.734375 
Q 21.96875 47.46875 24.109375 47.828125 
Q 26.265625 48.1875 28.421875 48.1875 
Q 40.625 48.1875 47.75 41.5 
Q 54.890625 34.8125 54.890625 23.390625 
Q 54.890625 11.625 47.5625 5.09375 
Q 40.234375 -1.421875 26.90625 -1.421875 
Q 22.3125 -1.421875 17.546875 -0.640625 
Q 12.796875 0.140625 7.71875 1.703125 
L 7.71875 11.625 
Q 12.109375 9.234375 16.796875 8.0625 
Q 21.484375 6.890625 26.703125 6.890625 
Q 35.15625 6.890625 40.078125 11.328125 
Q 45.015625 15.765625 45.015625 23.390625 
Q 45.015625 31 40.078125 35.4375 
Q 35.15625 39.890625 26.703125 39.890625 
Q 22.75 39.890625 18.8125 39.015625 
Q 14.890625 38.140625 10.796875 36.28125 
z
" id="DejaVuSans-53"/>
       </defs>
       <use xlink:href="#DejaVuSans-53"/>
       <use x="63.623047" xlink:href="#DejaVuSans-48"/>
       <use x="127.246094" xlink:href="#DejaVuSans-48"/>
      </g>
     </g>
    </g>
    <g id="xtick_3">
     <g id="line2d_3">
      <g>
       <use style="stroke:#000000;stroke-width:0.8;" x="170.672727" xlink:href="#m665bd58f5f" y="252"/>
      </g>
     </g>
     <g id="text_3">
      <!-- 1000 -->
      <g transform="translate(157.947727 266.598437)scale(0.1 -0.1)">
       <defs>
        <path d="M 12.40625 8.296875 
L 28.515625 8.296875 
L 28.515625 63.921875 
L 10.984375 60.40625 
L 10.984375 69.390625 
L 28.421875 72.90625 
L 38.28125 72.90625 
L 38.28125 8.296875 
L 54.390625 8.296875 
L 54.390625 0 
L 12.40625 0 
z
" id="DejaVuSans-49"/>
       </defs>
       <use xlink:href="#DejaVuSans-49"/>
       <use x="63.623047" xlink:href="#DejaVuSans-48"/>
       <use x="127.246094" xlink:href="#DejaVuSans-48"/>
       <use x="190.869141" xlink:href="#DejaVuSans-48"/>
      </g>
     </g>
    </g>
    <g id="xtick_4">
     <g id="line2d_4">
      <g>
       <use style="stroke:#000000;stroke-width:0.8;" x="221.4" xlink:href="#m665bd58f5f" y="252"/>
      </g>
     </g>
     <g id="text_4">
      <!-- 1500 -->
      <g transform="translate(208.675 266.598437)scale(0.1 -0.1)">
       <use xlink:href="#DejaVuSans-49"/>
       <use x="63.623047" xlink:href="#DejaVuSans-53"/>
       <use x="127.246094" xlink:href="#DejaVuSans-48"/>
       <use x="190.869141" xlink:href="#DejaVuSans-48"/>
      </g>
     </g>
    </g>
    <g id="xtick_5">
     <g id="line2d_5">
      <g>
       <use style="stroke:#000000;stroke-width:0.8;" x="272.127273" xlink:href="#m665bd58f5f" y="252"/>
      </g>
     </g>
     <g id="text_5">
      <!-- 2000 -->
      <g transform="translate(259.402273 266.598437)scale(0.1 -0.1)">
       <defs>
        <path d="M 19.1875 8.296875 
L 53.609375 8.296875 
L 53.609375 0 
L 7.328125 0 
L 7.328125 8.296875 
Q 12.9375 14.109375 22.625 23.890625 
Q 32.328125 33.6875 34.8125 36.53125 
Q 39.546875 41.84375 41.421875 45.53125 
Q 43.3125 49.21875 43.3125 52.78125 
Q 43.3125 58.59375 39.234375 62.25 
Q 35.15625 65.921875 28.609375 65.921875 
Q 23.96875 65.921875 18.8125 64.3125 
Q 13.671875 62.703125 7.8125 59.421875 
L 7.8125 69.390625 
Q 13.765625 71.78125 18.9375 73 
Q 24.125 74.21875 28.421875 74.21875 
Q 39.75 74.21875 46.484375 68.546875 
Q 53.21875 62.890625 53.21875 53.421875 
Q 53.21875 48.921875 51.53125 44.890625 
Q 49.859375 40.875 45.40625 35.40625 
Q 44.1875 33.984375 37.640625 27.21875 
Q 31.109375 20.453125 19.1875 8.296875 
z
" id="DejaVuSans-50"/>
       </defs>
       <use xlink:href="#DejaVuSans-50"/>
       <use x="63.623047" xlink:href="#DejaVuSans-48"/>
       <use x="127.246094" xlink:href="#DejaVuSans-48"/>
       <use x="190.869141" xlink:href="#DejaVuSans-48"/>
      </g>
     </g>
    </g>
    <g id="xtick_6">
     <g id="line2d_6">
      <g>
       <use style="stroke:#000000;stroke-width:0.8;" x="322.854545" xlink:href="#m665bd58f5f" y="252"/>
      </g>
     </g>
     <g id="text_6">
      <!-- 2500 -->
      <g transform="translate(310.129545 266.598437)scale(0.1 -0.1)">
       <use xlink:href="#DejaVuSans-50"/>
       <use x="63.623047" xlink:href="#DejaVuSans-53"/>
       <use x="127.246094" xlink:href="#DejaVuSans-48"/>
       <use x="190.869141" xlink:href="#DejaVuSans-48"/>
      </g>
     </g>
    </g>
    <g id="xtick_7">
     <g id="line2d_7">
      <g>
       <use style="stroke:#000000;stroke-width:0.8;" x="373.581818" xlink:href="#m665bd58f5f" y="252"/>
      </g>
     </g>
     <g id="text_7">
      <!-- 3000 -->
      <g transform="translate(360.856818 266.598437)scale(0.1 -0.1)">
       <defs>
        <path d="M 40.578125 39.3125 
Q 47.65625 37.796875 51.625 33 
Q 55.609375 28.21875 55.609375 21.1875 
Q 55.609375 10.40625 48.1875 4.484375 
Q 40.765625 -1.421875 27.09375 -1.421875 
Q 22.515625 -1.421875 17.65625 -0.515625 
Q 12.796875 0.390625 7.625 2.203125 
L 7.625 11.71875 
Q 11.71875 9.328125 16.59375 8.109375 
Q 21.484375 6.890625 26.8125 6.890625 
Q 36.078125 6.890625 40.9375 10.546875 
Q 45.796875 14.203125 45.796875 21.1875 
Q 45.796875 27.640625 41.28125 31.265625 
Q 36.765625 34.90625 28.71875 34.90625 
L 20.21875 34.90625 
L 20.21875 43.015625 
L 29.109375 43.015625 
Q 36.375 43.015625 40.234375 45.921875 
Q 44.09375 48.828125 44.09375 54.296875 
Q 44.09375 59.90625 40.109375 62.90625 
Q 36.140625 65.921875 28.71875 65.921875 
Q 24.65625 65.921875 20.015625 65.03125 
Q 15.375 64.15625 9.8125 62.3125 
L 9.8125 71.09375 
Q 15.4375 72.65625 20.34375 73.4375 
Q 25.25 74.21875 29.59375 74.21875 
Q 40.828125 74.21875 47.359375 69.109375 
Q 53.90625 64.015625 53.90625 55.328125 
Q 53.90625 49.265625 50.4375 45.09375 
Q 46.96875 40.921875 40.578125 39.3125 
z
" id="DejaVuSans-51"/>
       </defs>
       <use xlink:href="#DejaVuSans-51"/>
       <use x="63.623047" xlink:href="#DejaVuSans-48"/>
       <use x="127.246094" xlink:href="#DejaVuSans-48"/>
       <use x="190.869141" xlink:href="#DejaVuSans-48"/>
      </g>
     </g>
    </g>
    <g id="text_8">
     <!-- Time(ms) -->
     <g transform="translate(197.789844 280.276563)scale(0.1 -0.1)">
      <defs>
       <path d="M -0.296875 72.90625 
L 61.375 72.90625 
L 61.375 64.59375 
L 35.5 64.59375 
L 35.5 0 
L 25.59375 0 
L 25.59375 64.59375 
L -0.296875 64.59375 
z
" id="DejaVuSans-84"/>
       <path d="M 9.421875 54.6875 
L 18.40625 54.6875 
L 18.40625 0 
L 9.421875 0 
z
M 9.421875 75.984375 
L 18.40625 75.984375 
L 18.40625 64.59375 
L 9.421875 64.59375 
z
" id="DejaVuSans-105"/>
       <path d="M 52 44.1875 
Q 55.375 50.25 60.0625 53.125 
Q 64.75 56 71.09375 56 
Q 79.640625 56 84.28125 50.015625 
Q 88.921875 44.046875 88.921875 33.015625 
L 88.921875 0 
L 79.890625 0 
L 79.890625 32.71875 
Q 79.890625 40.578125 77.09375 44.375 
Q 74.3125 48.1875 68.609375 48.1875 
Q 61.625 48.1875 57.5625 43.546875 
Q 53.515625 38.921875 53.515625 30.90625 
L 53.515625 0 
L 44.484375 0 
L 44.484375 32.71875 
Q 44.484375 40.625 41.703125 44.40625 
Q 38.921875 48.1875 33.109375 48.1875 
Q 26.21875 48.1875 22.15625 43.53125 
Q 18.109375 38.875 18.109375 30.90625 
L 18.109375 0 
L 9.078125 0 
L 9.078125 54.6875 
L 18.109375 54.6875 
L 18.109375 46.1875 
Q 21.1875 51.21875 25.484375 53.609375 
Q 29.78125 56 35.6875 56 
Q 41.65625 56 45.828125 52.96875 
Q 50 49.953125 52 44.1875 
z
" id="DejaVuSans-109"/>
       <path d="M 56.203125 29.59375 
L 56.203125 25.203125 
L 14.890625 25.203125 
Q 15.484375 15.921875 20.484375 11.0625 
Q 25.484375 6.203125 34.421875 6.203125 
Q 39.59375 6.203125 44.453125 7.46875 
Q 49.3125 8.734375 54.109375 11.28125 
L 54.109375 2.78125 
Q 49.265625 0.734375 44.1875 -0.34375 
Q 39.109375 -1.421875 33.890625 -1.421875 
Q 20.796875 -1.421875 13.15625 6.1875 
Q 5.515625 13.8125 5.515625 26.8125 
Q 5.515625 40.234375 12.765625 48.109375 
Q 20.015625 56 32.328125 56 
Q 43.359375 56 49.78125 48.890625 
Q 56.203125 41.796875 56.203125 29.59375 
z
M 47.21875 32.234375 
Q 47.125 39.59375 43.09375 43.984375 
Q 39.0625 48.390625 32.421875 48.390625 
Q 24.90625 48.390625 20.390625 44.140625 
Q 15.875 39.890625 15.1875 32.171875 
z
" id="DejaVuSans-101"/>
       <path d="M 31 75.875 
Q 24.46875 64.65625 21.28125 53.65625 
Q 18.109375 42.671875 18.109375 31.390625 
Q 18.109375 20.125 21.3125 9.0625 
Q 24.515625 -2 31 -13.1875 
L 23.1875 -13.1875 
Q 15.875 -1.703125 12.234375 9.375 
Q 8.59375 20.453125 8.59375 31.390625 
Q 8.59375 42.28125 12.203125 53.3125 
Q 15.828125 64.359375 23.1875 75.875 
z
" id="DejaVuSans-40"/>
       <path d="M 44.28125 53.078125 
L 44.28125 44.578125 
Q 40.484375 46.53125 36.375 47.5 
Q 32.28125 48.484375 27.875 48.484375 
Q 21.1875 48.484375 17.84375 46.4375 
Q 14.5 44.390625 14.5 40.28125 
Q 14.5 37.15625 16.890625 35.375 
Q 19.28125 33.59375 26.515625 31.984375 
L 29.59375 31.296875 
Q 39.15625 29.25 43.1875 25.515625 
Q 47.21875 21.78125 47.21875 15.09375 
Q 47.21875 7.46875 41.1875 3.015625 
Q 35.15625 -1.421875 24.609375 -1.421875 
Q 20.21875 -1.421875 15.453125 -0.5625 
Q 10.6875 0.296875 5.421875 2 
L 5.421875 11.28125 
Q 10.40625 8.6875 15.234375 7.390625 
Q 20.0625 6.109375 24.8125 6.109375 
Q 31.15625 6.109375 34.5625 8.28125 
Q 37.984375 10.453125 37.984375 14.40625 
Q 37.984375 18.0625 35.515625 20.015625 
Q 33.0625 21.96875 24.703125 23.78125 
L 21.578125 24.515625 
Q 13.234375 26.265625 9.515625 29.90625 
Q 5.8125 33.546875 5.8125 39.890625 
Q 5.8125 47.609375 11.28125 51.796875 
Q 16.75 56 26.8125 56 
Q 31.78125 56 36.171875 55.265625 
Q 40.578125 54.546875 44.28125 53.078125 
z
" id="DejaVuSans-115"/>
       <path d="M 8.015625 75.875 
L 15.828125 75.875 
Q 23.140625 64.359375 26.78125 53.3125 
Q 30.421875 42.28125 30.421875 31.390625 
Q 30.421875 20.453125 26.78125 9.375 
Q 23.140625 -1.703125 15.828125 -13.1875 
L 8.015625 -13.1875 
Q 14.5 -2 17.703125 9.0625 
Q 20.90625 20.125 20.90625 31.390625 
Q 20.90625 42.671875 17.703125 53.65625 
Q 14.5 64.65625 8.015625 75.875 
z
" id="DejaVuSans-41"/>
      </defs>
      <use xlink:href="#DejaVuSans-84"/>
      <use x="57.958984" xlink:href="#DejaVuSans-105"/>
      <use x="85.742188" xlink:href="#DejaVuSans-109"/>
      <use x="183.154297" xlink:href="#DejaVuSans-101"/>
      <use x="244.677734" xlink:href="#DejaVuSans-40"/>
      <use x="283.691406" xlink:href="#DejaVuSans-109"/>
      <use x="381.103516" xlink:href="#DejaVuSans-115"/>
      <use x="433.203125" xlink:href="#DejaVuSans-41"/>
     </g>
    </g>
   </g>
   <g id="matplotlib.axis_2">
    <g id="ytick_1">
     <g id="line2d_8">
      <defs>
       <path d="M 0 0 
L -3.5 0 
" id="m7246cf6ff8" style="stroke:#000000;stroke-width:0.8;"/>
      </defs>
      <g>
       <use style="stroke:#000000;stroke-width:0.8;" x="54" xlink:href="#m7246cf6ff8" y="252"/>
      </g>
     </g>
     <g id="text_9">
      <!-- −100 -->
      <g transform="translate(19.532812 255.799219)scale(0.1 -0.1)">
       <defs>
        <path d="M 10.59375 35.5 
L 73.1875 35.5 
L 73.1875 27.203125 
L 10.59375 27.203125 
z
" id="DejaVuSans-8722"/>
       </defs>
       <use xlink:href="#DejaVuSans-8722"/>
       <use x="83.789062" xlink:href="#DejaVuSans-49"/>
       <use x="147.412109" xlink:href="#DejaVuSans-48"/>
       <use x="211.035156" xlink:href="#DejaVuSans-48"/>
      </g>
     </g>
    </g>
    <g id="ytick_2">
     <g id="line2d_9">
      <g>
       <use style="stroke:#000000;stroke-width:0.8;" x="54" xlink:href="#m7246cf6ff8" y="208.512"/>
      </g>
     </g>
     <g id="text_10">
      <!-- −90 -->
      <g transform="translate(25.895312 212.311219)scale(0.1 -0.1)">
       <defs>
        <path d="M 10.984375 1.515625 
L 10.984375 10.5 
Q 14.703125 8.734375 18.5 7.8125 
Q 22.3125 6.890625 25.984375 6.890625 
Q 35.75 6.890625 40.890625 13.453125 
Q 46.046875 20.015625 46.78125 33.40625 
Q 43.953125 29.203125 39.59375 26.953125 
Q 35.25 24.703125 29.984375 24.703125 
Q 19.046875 24.703125 12.671875 31.3125 
Q 6.296875 37.9375 6.296875 49.421875 
Q 6.296875 60.640625 12.9375 67.421875 
Q 19.578125 74.21875 30.609375 74.21875 
Q 43.265625 74.21875 49.921875 64.515625 
Q 56.59375 54.828125 56.59375 36.375 
Q 56.59375 19.140625 48.40625 8.859375 
Q 40.234375 -1.421875 26.421875 -1.421875 
Q 22.703125 -1.421875 18.890625 -0.6875 
Q 15.09375 0.046875 10.984375 1.515625 
z
M 30.609375 32.421875 
Q 37.25 32.421875 41.125 36.953125 
Q 45.015625 41.5 45.015625 49.421875 
Q 45.015625 57.28125 41.125 61.84375 
Q 37.25 66.40625 30.609375 66.40625 
Q 23.96875 66.40625 20.09375 61.84375 
Q 16.21875 57.28125 16.21875 49.421875 
Q 16.21875 41.5 20.09375 36.953125 
Q 23.96875 32.421875 30.609375 32.421875 
z
" id="DejaVuSans-57"/>
       </defs>
       <use xlink:href="#DejaVuSans-8722"/>
       <use x="83.789062" xlink:href="#DejaVuSans-57"/>
       <use x="147.412109" xlink:href="#DejaVuSans-48"/>
      </g>
     </g>
    </g>
    <g id="ytick_3">
     <g id="line2d_10">
      <g>
       <use style="stroke:#000000;stroke-width:0.8;" x="54" xlink:href="#m7246cf6ff8" y="165.024"/>
      </g>
     </g>
     <g id="text_11">
      <!-- −80 -->
      <g transform="translate(25.895312 168.823219)scale(0.1 -0.1)">
       <defs>
        <path d="M 31.78125 34.625 
Q 24.75 34.625 20.71875 30.859375 
Q 16.703125 27.09375 16.703125 20.515625 
Q 16.703125 13.921875 20.71875 10.15625 
Q 24.75 6.390625 31.78125 6.390625 
Q 38.8125 6.390625 42.859375 10.171875 
Q 46.921875 13.96875 46.921875 20.515625 
Q 46.921875 27.09375 42.890625 30.859375 
Q 38.875 34.625 31.78125 34.625 
z
M 21.921875 38.8125 
Q 15.578125 40.375 12.03125 44.71875 
Q 8.5 49.078125 8.5 55.328125 
Q 8.5 64.0625 14.71875 69.140625 
Q 20.953125 74.21875 31.78125 74.21875 
Q 42.671875 74.21875 48.875 69.140625 
Q 55.078125 64.0625 55.078125 55.328125 
Q 55.078125 49.078125 51.53125 44.71875 
Q 48 40.375 41.703125 38.8125 
Q 48.828125 37.15625 52.796875 32.3125 
Q 56.78125 27.484375 56.78125 20.515625 
Q 56.78125 9.90625 50.3125 4.234375 
Q 43.84375 -1.421875 31.78125 -1.421875 
Q 19.734375 -1.421875 13.25 4.234375 
Q 6.78125 9.90625 6.78125 20.515625 
Q 6.78125 27.484375 10.78125 32.3125 
Q 14.796875 37.15625 21.921875 38.8125 
z
M 18.3125 54.390625 
Q 18.3125 48.734375 21.84375 45.5625 
Q 25.390625 42.390625 31.78125 42.390625 
Q 38.140625 42.390625 41.71875 45.5625 
Q 45.3125 48.734375 45.3125 54.390625 
Q 45.3125 60.0625 41.71875 63.234375 
Q 38.140625 66.40625 31.78125 66.40625 
Q 25.390625 66.40625 21.84375 63.234375 
Q 18.3125 60.0625 18.3125 54.390625 
z
" id="DejaVuSans-56"/>
       </defs>
       <use xlink:href="#DejaVuSans-8722"/>
       <use x="83.789062" xlink:href="#DejaVuSans-56"/>
       <use x="147.412109" xlink:href="#DejaVuSans-48"/>
      </g>
     </g>
    </g>
    <g id="ytick_4">
     <g id="line2d_11">
      <g>
       <use style="stroke:#000000;stroke-width:0.8;" x="54" xlink:href="#m7246cf6ff8" y="121.536"/>
      </g>
     </g>
     <g id="text_12">
      <!-- −70 -->
      <g transform="translate(25.895312 125.335219)scale(0.1 -0.1)">
       <defs>
        <path d="M 8.203125 72.90625 
L 55.078125 72.90625 
L 55.078125 68.703125 
L 28.609375 0 
L 18.3125 0 
L 43.21875 64.59375 
L 8.203125 64.59375 
z
" id="DejaVuSans-55"/>
       </defs>
       <use xlink:href="#DejaVuSans-8722"/>
       <use x="83.789062" xlink:href="#DejaVuSans-55"/>
       <use x="147.412109" xlink:href="#DejaVuSans-48"/>
      </g>
     </g>
    </g>
    <g id="ytick_5">
     <g id="line2d_12">
      <g>
       <use style="stroke:#000000;stroke-width:0.8;" x="54" xlink:href="#m7246cf6ff8" y="78.048"/>
      </g>
     </g>
     <g id="text_13">
      <!-- −60 -->
      <g transform="translate(25.895312 81.847219)scale(0.1 -0.1)">
       <defs>
        <path d="M 33.015625 40.375 
Q 26.375 40.375 22.484375 35.828125 
Q 18.609375 31.296875 18.609375 23.390625 
Q 18.609375 15.53125 22.484375 10.953125 
Q 26.375 6.390625 33.015625 6.390625 
Q 39.65625 6.390625 43.53125 10.953125 
Q 47.40625 15.53125 47.40625 23.390625 
Q 47.40625 31.296875 43.53125 35.828125 
Q 39.65625 40.375 33.015625 40.375 
z
M 52.59375 71.296875 
L 52.59375 62.3125 
Q 48.875 64.0625 45.09375 64.984375 
Q 41.3125 65.921875 37.59375 65.921875 
Q 27.828125 65.921875 22.671875 59.328125 
Q 17.53125 52.734375 16.796875 39.40625 
Q 19.671875 43.65625 24.015625 45.921875 
Q 28.375 48.1875 33.59375 48.1875 
Q 44.578125 48.1875 50.953125 41.515625 
Q 57.328125 34.859375 57.328125 23.390625 
Q 57.328125 12.15625 50.6875 5.359375 
Q 44.046875 -1.421875 33.015625 -1.421875 
Q 20.359375 -1.421875 13.671875 8.265625 
Q 6.984375 17.96875 6.984375 36.375 
Q 6.984375 53.65625 15.1875 63.9375 
Q 23.390625 74.21875 37.203125 74.21875 
Q 40.921875 74.21875 44.703125 73.484375 
Q 48.484375 72.75 52.59375 71.296875 
z
" id="DejaVuSans-54"/>
       </defs>
       <use xlink:href="#DejaVuSans-8722"/>
       <use x="83.789062" xlink:href="#DejaVuSans-54"/>
       <use x="147.412109" xlink:href="#DejaVuSans-48"/>
      </g>
     </g>
    </g>
    <g id="ytick_6">
     <g id="line2d_13">
      <g>
       <use style="stroke:#000000;stroke-width:0.8;" x="54" xlink:href="#m7246cf6ff8" y="34.56"/>
      </g>
     </g>
     <g id="text_14">
      <!-- −50 -->
      <g transform="translate(25.895312 38.359219)scale(0.1 -0.1)">
       <use xlink:href="#DejaVuSans-8722"/>
       <use x="83.789062" xlink:href="#DejaVuSans-53"/>
       <use x="147.412109" xlink:href="#DejaVuSans-48"/>
      </g>
     </g>
    </g>
    <g id="text_15">
     <!-- Membrane potential (mV) -->
     <g transform="translate(13.453125 207.691719)rotate(-90)scale(0.1 -0.1)">
      <defs>
       <path d="M 9.8125 72.90625 
L 24.515625 72.90625 
L 43.109375 23.296875 
L 61.8125 72.90625 
L 76.515625 72.90625 
L 76.515625 0 
L 66.890625 0 
L 66.890625 64.015625 
L 48.09375 14.015625 
L 38.1875 14.015625 
L 19.390625 64.015625 
L 19.390625 0 
L 9.8125 0 
z
" id="DejaVuSans-77"/>
       <path d="M 48.6875 27.296875 
Q 48.6875 37.203125 44.609375 42.84375 
Q 40.53125 48.484375 33.40625 48.484375 
Q 26.265625 48.484375 22.1875 42.84375 
Q 18.109375 37.203125 18.109375 27.296875 
Q 18.109375 17.390625 22.1875 11.75 
Q 26.265625 6.109375 33.40625 6.109375 
Q 40.53125 6.109375 44.609375 11.75 
Q 48.6875 17.390625 48.6875 27.296875 
z
M 18.109375 46.390625 
Q 20.953125 51.265625 25.265625 53.625 
Q 29.59375 56 35.59375 56 
Q 45.5625 56 51.78125 48.09375 
Q 58.015625 40.1875 58.015625 27.296875 
Q 58.015625 14.40625 51.78125 6.484375 
Q 45.5625 -1.421875 35.59375 -1.421875 
Q 29.59375 -1.421875 25.265625 0.953125 
Q 20.953125 3.328125 18.109375 8.203125 
L 18.109375 0 
L 9.078125 0 
L 9.078125 75.984375 
L 18.109375 75.984375 
z
" id="DejaVuSans-98"/>
       <path d="M 41.109375 46.296875 
Q 39.59375 47.171875 37.8125 47.578125 
Q 36.03125 48 33.890625 48 
Q 26.265625 48 22.1875 43.046875 
Q 18.109375 38.09375 18.109375 28.8125 
L 18.109375 0 
L 9.078125 0 
L 9.078125 54.6875 
L 18.109375 54.6875 
L 18.109375 46.1875 
Q 20.953125 51.171875 25.484375 53.578125 
Q 30.03125 56 36.53125 56 
Q 37.453125 56 38.578125 55.875 
Q 39.703125 55.765625 41.0625 55.515625 
z
" id="DejaVuSans-114"/>
       <path d="M 34.28125 27.484375 
Q 23.390625 27.484375 19.1875 25 
Q 14.984375 22.515625 14.984375 16.5 
Q 14.984375 11.71875 18.140625 8.90625 
Q 21.296875 6.109375 26.703125 6.109375 
Q 34.1875 6.109375 38.703125 11.40625 
Q 43.21875 16.703125 43.21875 25.484375 
L 43.21875 27.484375 
z
M 52.203125 31.203125 
L 52.203125 0 
L 43.21875 0 
L 43.21875 8.296875 
Q 40.140625 3.328125 35.546875 0.953125 
Q 30.953125 -1.421875 24.3125 -1.421875 
Q 15.921875 -1.421875 10.953125 3.296875 
Q 6 8.015625 6 15.921875 
Q 6 25.140625 12.171875 29.828125 
Q 18.359375 34.515625 30.609375 34.515625 
L 43.21875 34.515625 
L 43.21875 35.40625 
Q 43.21875 41.609375 39.140625 45 
Q 35.0625 48.390625 27.6875 48.390625 
Q 23 48.390625 18.546875 47.265625 
Q 14.109375 46.140625 10.015625 43.890625 
L 10.015625 52.203125 
Q 14.9375 54.109375 19.578125 55.046875 
Q 24.21875 56 28.609375 56 
Q 40.484375 56 46.34375 49.84375 
Q 52.203125 43.703125 52.203125 31.203125 
z
" id="DejaVuSans-97"/>
       <path d="M 54.890625 33.015625 
L 54.890625 0 
L 45.90625 0 
L 45.90625 32.71875 
Q 45.90625 40.484375 42.875 44.328125 
Q 39.84375 48.1875 33.796875 48.1875 
Q 26.515625 48.1875 22.3125 43.546875 
Q 18.109375 38.921875 18.109375 30.90625 
L 18.109375 0 
L 9.078125 0 
L 9.078125 54.6875 
L 18.109375 54.6875 
L 18.109375 46.1875 
Q 21.34375 51.125 25.703125 53.5625 
Q 30.078125 56 35.796875 56 
Q 45.21875 56 50.046875 50.171875 
Q 54.890625 44.34375 54.890625 33.015625 
z
" id="DejaVuSans-110"/>
       <path id="DejaVuSans-32"/>
       <path d="M 18.109375 8.203125 
L 18.109375 -20.796875 
L 9.078125 -20.796875 
L 9.078125 54.6875 
L 18.109375 54.6875 
L 18.109375 46.390625 
Q 20.953125 51.265625 25.265625 53.625 
Q 29.59375 56 35.59375 56 
Q 45.5625 56 51.78125 48.09375 
Q 58.015625 40.1875 58.015625 27.296875 
Q 58.015625 14.40625 51.78125 6.484375 
Q 45.5625 -1.421875 35.59375 -1.421875 
Q 29.59375 -1.421875 25.265625 0.953125 
Q 20.953125 3.328125 18.109375 8.203125 
z
M 48.6875 27.296875 
Q 48.6875 37.203125 44.609375 42.84375 
Q 40.53125 48.484375 33.40625 48.484375 
Q 26.265625 48.484375 22.1875 42.84375 
Q 18.109375 37.203125 18.109375 27.296875 
Q 18.109375 17.390625 22.1875 11.75 
Q 26.265625 6.109375 33.40625 6.109375 
Q 40.53125 6.109375 44.609375 11.75 
Q 48.6875 17.390625 48.6875 27.296875 
z
" id="DejaVuSans-112"/>
       <path d="M 30.609375 48.390625 
Q 23.390625 48.390625 19.1875 42.75 
Q 14.984375 37.109375 14.984375 27.296875 
Q 14.984375 17.484375 19.15625 11.84375 
Q 23.34375 6.203125 30.609375 6.203125 
Q 37.796875 6.203125 41.984375 11.859375 
Q 46.1875 17.53125 46.1875 27.296875 
Q 46.1875 37.015625 41.984375 42.703125 
Q 37.796875 48.390625 30.609375 48.390625 
z
M 30.609375 56 
Q 42.328125 56 49.015625 48.375 
Q 55.71875 40.765625 55.71875 27.296875 
Q 55.71875 13.875 49.015625 6.21875 
Q 42.328125 -1.421875 30.609375 -1.421875 
Q 18.84375 -1.421875 12.171875 6.21875 
Q 5.515625 13.875 5.515625 27.296875 
Q 5.515625 40.765625 12.171875 48.375 
Q 18.84375 56 30.609375 56 
z
" id="DejaVuSans-111"/>
       <path d="M 18.3125 70.21875 
L 18.3125 54.6875 
L 36.8125 54.6875 
L 36.8125 47.703125 
L 18.3125 47.703125 
L 18.3125 18.015625 
Q 18.3125 11.328125 20.140625 9.421875 
Q 21.96875 7.515625 27.59375 7.515625 
L 36.8125 7.515625 
L 36.8125 0 
L 27.59375 0 
Q 17.1875 0 13.234375 3.875 
Q 9.28125 7.765625 9.28125 18.015625 
L 9.28125 47.703125 
L 2.6875 47.703125 
L 2.6875 54.6875 
L 9.28125 54.6875 
L 9.28125 70.21875 
z
" id="DejaVuSans-116"/>
       <path d="M 9.421875 75.984375 
L 18.40625 75.984375 
L 18.40625 0 
L 9.421875 0 
z
" id="DejaVuSans-108"/>
       <path d="M 28.609375 0 
L 0.78125 72.90625 
L 11.078125 72.90625 
L 34.1875 11.53125 
L 57.328125 72.90625 
L 67.578125 72.90625 
L 39.796875 0 
z
" id="DejaVuSans-86"/>
      </defs>
      <use xlink:href="#DejaVuSans-77"/>
      <use x="86.279297" xlink:href="#DejaVuSans-101"/>
      <use x="147.802734" xlink:href="#DejaVuSans-109"/>
      <use x="245.214844" xlink:href="#DejaVuSans-98"/>
      <use x="308.691406" xlink:href="#DejaVuSans-114"/>
      <use x="349.804688" xlink:href="#DejaVuSans-97"/>
      <use x="411.083984" xlink:href="#DejaVuSans-110"/>
      <use x="474.462891" xlink:href="#DejaVuSans-101"/>
      <use x="535.986328" xlink:href="#DejaVuSans-32"/>
      <use x="567.773438" xlink:href="#DejaVuSans-112"/>
      <use x="631.25" xlink:href="#DejaVuSans-111"/>
      <use x="692.431641" xlink:href="#DejaVuSans-116"/>
      <use x="731.640625" xlink:href="#DejaVuSans-101"/>
      <use x="793.164062" xlink:href="#DejaVuSans-110"/>
      <use x="856.542969" xlink:href="#DejaVuSans-116"/>
      <use x="895.751953" xlink:href="#DejaVuSans-105"/>
      <use x="923.535156" xlink:href="#DejaVuSans-97"/>
      <use x="984.814453" xlink:href="#DejaVuSans-108"/>
      <use x="1012.597656" xlink:href="#DejaVuSans-32"/>
      <use x="1044.384766" xlink:href="#DejaVuSans-40"/>
      <use x="1083.398438" xlink:href="#DejaVuSans-109"/>
      <use x="1180.810547" xlink:href="#DejaVuSans-86"/>
      <use x="1249.21875" xlink:href="#DejaVuSans-41"/>
     </g>
    </g>
   </g>
   <g id="line2d_14">
    <path clip-path="url(#p5ce03cefb8)" d="M 69.218182 191.1168 
L 69.370364 214.086804 
L 69.624 217.855711 
L 69.826909 218.023707 
L 70.029818 218.351895 
L 70.131273 218.428097 
L 70.283455 217.922445 
L 70.587818 214.995511 
L 71.095091 211.969314 
L 71.348727 210.576739 
L 71.551636 210.064391 
L 71.653091 210.242399 
L 71.856 211.266523 
L 72.870545 217.70989 
L 73.124182 217.606077 
L 73.479273 217.855023 
L 73.732909 217.678766 
L 73.935818 217.878723 
L 74.341636 218.807279 
L 75.051818 220.365757 
L 75.406909 220.858055 
L 75.508364 220.477635 
L 75.812727 219.224794 
L 76.015636 219.105144 
L 76.218545 219.299773 
L 76.522909 219.737389 
L 76.827273 216.580464 
L 77.283818 215.695916 
L 77.334545 215.749061 
L 77.537455 216.239951 
L 78.856364 220.326715 
L 79.363636 220.984097 
L 79.668 219.109076 
L 80.023091 217.677132 
L 80.175273 217.600439 
L 80.428909 217.878765 
L 80.479636 217.7592 
L 80.784 217.123245 
L 80.936182 217.208758 
L 81.240545 217.829058 
L 81.291273 217.734145 
L 81.595636 216.332713 
L 81.9 214.444444 
L 82.052182 214.284819 
L 82.153636 214.295056 
L 82.458 213.315109 
L 82.610182 213.58886 
L 82.914545 214.922488 
L 83.117455 215.503909 
L 83.421818 215.420923 
L 83.675455 214.954212 
L 83.827636 215.129326 
L 84.132 216.06615 
L 84.537818 217.526624 
L 84.588545 217.462996 
L 84.740727 216.697141 
L 85.045091 215.270061 
L 85.197273 215.285333 
L 85.400182 215.746231 
L 86.769818 219.7349 
L 87.277091 220.360178 
L 87.835091 220.733266 
L 87.987273 219.827786 
L 88.240909 218.736559 
L 88.443818 218.602689 
L 88.646727 218.792341 
L 90.117818 220.768729 
L 90.168545 220.777614 
L 90.371455 219.50213 
L 90.675818 217.250554 
L 90.878727 216.993862 
L 91.081636 217.212828 
L 91.132364 217.025006 
L 91.538182 214.929324 
L 91.639636 214.914863 
L 91.791818 215.175321 
L 92.146909 216.43204 
L 92.502 217.753771 
L 92.552727 217.688499 
L 93.313636 215.596009 
L 93.567273 214.380625 
L 93.668727 214.411854 
L 93.871636 214.990101 
L 94.074545 215.589666 
L 94.125273 215.559448 
L 94.328182 215.470978 
L 94.480364 215.697306 
L 94.835455 216.830951 
L 95.596364 219.22262 
L 96.052909 220.062372 
L 96.205091 219.147054 
L 96.763091 216.42671 
L 96.915273 216.288262 
L 97.067455 216.482662 
L 97.473273 217.612707 
L 97.879091 218.701522 
L 97.980545 218.513584 
L 98.082 218.015393 
L 98.386364 216.242497 
L 98.538545 216.071728 
L 98.690727 216.224697 
L 98.995091 217.013831 
L 99.857455 219.379901 
L 100.212545 219.964813 
L 100.618364 217.62865 
L 100.770545 217.613534 
L 100.973455 216.979995 
L 101.125636 215.278177 
L 101.683636 208.171209 
L 101.835818 208.637785 
L 102.190909 211.104032 
L 102.951818 216.412134 
L 103.459091 218.449725 
L 103.915636 219.486093 
L 103.966364 219.568862 
L 104.017091 219.531826 
L 105.031636 215.186635 
L 105.183818 215.386794 
L 105.538909 216.456002 
L 105.944727 217.835171 
L 105.995455 217.797407 
L 106.350545 216.661213 
L 106.807091 215.418871 
L 106.857818 215.45569 
L 107.060727 215.857736 
L 108.531818 219.697738 
L 108.633273 219.485388 
L 109.647818 215.529012 
L 109.698545 215.534568 
L 110.104364 213.727965 
L 110.307273 213.572126 
L 110.459455 213.756358 
L 110.713091 214.556937 
L 110.916 215.214219 
L 110.966727 215.176588 
L 111.271091 214.859587 
L 111.423273 214.998924 
L 111.727636 215.777478 
L 111.879818 216.171183 
L 111.930545 216.096014 
L 112.133455 214.213497 
L 112.387091 212.365367 
L 112.640727 211.534123 
L 112.945091 209.515171 
L 113.046545 209.355649 
L 113.097273 209.41022 
L 113.198727 209.655055 
L 113.553818 208.035704 
L 113.604545 208.118868 
L 113.807455 209.067318 
L 114.111818 210.533475 
L 114.213273 210.616309 
L 114.416182 211.306407 
L 115.227818 215.623124 
L 115.329273 215.56519 
L 115.38 215.511354 
L 115.481455 214.835272 
L 115.836545 211.621593 
L 115.938 211.571247 
L 116.090182 211.928778 
L 116.293091 212.590197 
L 116.648182 211.437734 
L 116.749636 211.450981 
L 116.901818 211.775151 
L 117.256909 213.334894 
L 117.612 214.973477 
L 117.662727 214.878597 
L 117.865636 214.463074 
L 117.967091 214.519143 
L 118.17 214.907747 
L 118.220727 214.828476 
L 118.474364 214.361361 
L 118.626545 214.473138 
L 118.880182 215.121051 
L 119.133818 215.991505 
L 119.184545 215.877446 
L 119.438182 214.613377 
L 119.539636 214.630921 
L 119.742545 215.083297 
L 120.300545 216.925904 
L 120.351273 216.830824 
L 120.807818 215.021086 
L 121.061455 212.552782 
L 121.213636 212.328938 
L 121.365818 212.617917 
L 121.720909 214.121371 
L 122.126727 215.75617 
L 122.329636 214.151366 
L 122.786182 211.389514 
L 123.192 210.304155 
L 123.344182 210.574337 
L 123.648545 211.967653 
L 124.054364 214.048728 
L 124.105091 213.993923 
L 124.308 213.884656 
L 124.460182 214.018052 
L 124.510909 213.953569 
L 124.764545 213.649235 
L 124.916727 213.814774 
L 125.068909 213.922574 
L 125.322545 213.900797 
L 125.525455 214.252877 
L 125.982 215.772799 
L 126.438545 217.134789 
L 127.098 214.258221 
L 127.250182 214.223142 
L 127.453091 214.674322 
L 128.315455 217.414148 
L 128.366182 217.344586 
L 128.670545 216.943137 
L 128.873455 217.043472 
L 129.228545 217.628295 
L 129.33 217.821272 
L 129.786545 216.291706 
L 129.938727 216.431098 
L 130.293818 217.228255 
L 130.547455 217.789592 
L 130.598182 217.70752 
L 130.953273 216.957972 
L 131.105455 217.013691 
L 131.409818 217.506074 
L 132.424364 219.369326 
L 132.525818 219.476625 
L 132.576545 219.429211 
L 133.134545 218.209801 
L 133.337455 218.31291 
L 133.794 218.923095 
L 134.554909 219.872717 
L 135.214364 220.339433 
L 136.076727 220.658575 
L 136.685455 220.78823 
L 136.786909 220.470126 
L 137.243455 218.250954 
L 137.7 211.553544 
L 137.801455 211.400477 
L 137.852182 211.442899 
L 138.004364 211.899299 
L 138.765273 214.877959 
L 139.018909 215.538806 
L 140.134909 219.154024 
L 140.185636 219.223344 
L 140.591455 217.23317 
L 140.997273 214.34333 
L 141.149455 214.290785 
L 141.352364 214.753541 
L 142.164 217.777386 
L 142.214727 217.455743 
L 142.671273 212.376579 
L 142.772727 212.225792 
L 142.823455 212.252628 
L 142.924909 212.394753 
L 143.432182 210.944879 
L 143.482909 210.997888 
L 143.685818 211.648057 
L 143.838 212.245185 
L 144.040909 211.521981 
L 144.142364 211.651846 
L 144.396 212.763498 
L 144.700364 213.925788 
L 144.852545 213.821801 
L 145.512 211.497876 
L 145.714909 210.856041 
L 145.816364 211.007328 
L 146.120727 212.111924 
L 146.222182 211.968385 
L 146.323636 211.979898 
L 146.475818 212.343608 
L 146.881636 214.281467 
L 147.186 215.360848 
L 147.439636 215.498773 
L 147.693273 216.021375 
L 147.946909 216.741098 
L 147.997636 216.613928 
L 148.251273 215.567917 
L 148.403455 215.57846 
L 148.657091 216.10677 
L 149.367273 218.103878 
L 149.418 217.996856 
L 149.620909 216.866791 
L 149.925273 215.211423 
L 150.077455 214.841459 
L 150.331091 214.277996 
L 150.483273 214.351745 
L 150.736909 214.967795 
L 152.005091 218.801724 
L 152.157273 219.016232 
L 152.208 218.96807 
L 152.512364 218.120763 
L 152.766 215.559783 
L 152.918182 215.265404 
L 153.070364 215.414107 
L 153.374727 216.256306 
L 154.084909 218.265763 
L 154.693636 217.255284 
L 155.099455 216.836417 
L 155.302364 217.002798 
L 155.708182 217.786557 
L 155.860364 218.047191 
L 155.911091 217.996798 
L 156.316909 217.387994 
L 156.469091 217.398876 
L 156.672 216.573592 
L 157.077818 214.862843 
L 157.23 214.894147 
L 157.432909 215.320411 
L 157.686545 215.868017 
L 157.788 215.531786 
L 158.295273 212.51904 
L 158.447455 212.783054 
L 158.751818 214.04953 
L 158.853273 214.554273 
L 158.904 214.486608 
L 159.309818 213.122102 
L 159.411273 213.13793 
L 159.614182 213.608468 
L 159.817091 214.345335 
L 159.867818 214.309293 
L 160.070727 214.060298 
L 160.222909 214.27166 
L 160.425818 214.623351 
L 160.527273 214.524904 
L 161.136 212.653686 
L 161.338909 210.754339 
L 161.694 206.685331 
L 161.846182 206.125089 
L 161.947636 206.343838 
L 162.049091 206.767165 
L 162.099818 206.707918 
L 162.201273 206.590007 
L 162.252 206.643349 
L 162.404182 207.267349 
L 162.657818 208.415782 
L 162.81 208.738015 
L 163.063636 210.161859 
L 164.027455 216.226319 
L 164.331818 217.28395 
L 164.382545 217.262949 
L 164.788364 216.686578 
L 164.991273 216.840824 
L 165.092727 216.909096 
L 165.549273 215.92972 
L 165.6 215.956524 
L 165.853636 216.352011 
L 165.955091 216.506032 
L 166.005818 216.420637 
L 166.310182 215.900148 
L 166.614545 215.806911 
L 166.766727 215.442345 
L 167.071091 214.390553 
L 167.223273 214.371848 
L 167.426182 214.724047 
L 167.476909 214.607205 
L 167.730545 212.937031 
L 168.034909 210.575294 
L 168.136364 210.508798 
L 168.288545 210.848673 
L 168.491455 211.706367 
L 168.542182 211.665367 
L 168.745091 211.408299 
L 168.897273 211.781627 
L 169.252364 212.807275 
L 169.506 213.164626 
L 169.556727 213.102162 
L 169.810364 212.791406 
L 170.317636 208.721993 
L 170.368364 208.794237 
L 170.571273 209.584286 
L 170.824909 210.719712 
L 170.875636 210.66658 
L 171.078545 210.487795 
L 171.433636 208.931239 
L 171.535091 209.046754 
L 171.738 209.814661 
L 171.839455 210.213957 
L 171.890182 210.024888 
L 172.143818 209.084514 
L 172.245273 209.126299 
L 172.448182 209.76787 
L 172.955455 212.65014 
L 173.361273 214.369763 
L 173.716364 214.624327 
L 173.817818 214.221733 
L 174.122182 211.432485 
L 174.325091 209.831427 
L 174.730909 205.57303 
L 174.883091 205.092985 
L 175.035273 205.202803 
L 175.187455 204.850815 
L 175.238182 204.87669 
L 175.390364 205.258837 
L 175.542545 204.594483 
L 175.593273 204.611718 
L 175.745455 205.237267 
L 176.100545 207.540903 
L 176.151273 207.353106 
L 176.404909 205.558714 
L 176.658545 204.726406 
L 176.709273 204.74449 
L 176.861455 205.211862 
L 177.064364 206.101405 
L 177.115091 206.033895 
L 177.520909 204.226728 
L 177.673091 203.819467 
L 177.774545 204.02225 
L 178.028182 205.528343 
L 178.281818 207.349051 
L 178.332545 207.328031 
L 178.738364 205.290473 
L 179.093455 205.768415 
L 179.194909 205.438057 
L 179.600727 202.349538 
L 179.702182 202.171049 
L 179.905091 202.523639 
L 179.955818 202.474851 
L 180.260182 201.12644 
L 180.564545 200.206285 
L 180.666 200.367353 
L 181.173273 201.849524 
L 181.325455 202.178858 
L 181.579091 203.527099 
L 182.035636 206.133116 
L 182.137091 206.239714 
L 182.542909 205.613632 
L 182.796545 204.548766 
L 182.898 204.591673 
L 183.050182 205.045841 
L 183.100909 204.993576 
L 183.253091 202.833296 
L 183.506727 200.000944 
L 183.658909 199.174312 
L 183.912545 197.860792 
L 184.064727 197.451091 
L 184.166182 197.66623 
L 184.369091 199.074711 
L 184.572 200.115604 
L 184.927091 200.607908 
L 185.13 201.405591 
L 185.180727 201.370709 
L 185.332909 201.293932 
L 185.434364 201.495322 
L 185.485091 201.384479 
L 185.789455 199.56857 
L 185.890909 199.696897 
L 186.093818 200.804869 
L 187.006909 207.104796 
L 187.463455 209.580887 
L 187.666364 210.089513 
L 187.869273 210.202638 
L 188.122909 210.868756 
L 188.376545 211.489011 
L 188.478 211.119076 
L 188.833091 208.205122 
L 189.441818 203.488418 
L 189.594 203.919034 
L 190.304182 206.997621 
L 190.456364 207.172522 
L 190.659273 207.599092 
L 190.71 207.550099 
L 190.811455 207.404523 
L 191.065091 206.813711 
L 191.166545 206.841206 
L 191.268 206.5309 
L 191.572364 205.487987 
L 191.724545 204.280243 
L 192.130364 200.038582 
L 192.333273 199.189896 
L 192.434727 199.309714 
L 192.536182 199.472186 
L 193.043455 197.036305 
L 193.144909 197.144789 
L 193.398545 197.816837 
L 193.550727 197.000136 
L 193.804364 194.748296 
L 194.058 191.616437 
L 194.159455 191.338579 
L 194.210182 191.353176 
L 194.260909 191.362729 
L 194.616 190.364935 
L 194.818909 190.832015 
L 194.869636 190.73135 
L 195.275455 188.623308 
L 195.681273 184.650097 
L 195.782727 184.900351 
L 196.442182 188.093089 
L 196.695818 187.148242 
L 196.797273 187.518207 
L 197.152364 189.147482 
L 197.304545 189.195506 
L 197.355273 189.198403 
L 197.608909 188.366565 
L 197.710364 188.093628 
L 198.014727 185.842409 
L 198.116182 186.036054 
L 198.268364 186.43379 
L 198.420545 186.245771 
L 198.471273 186.31068 
L 198.623455 187.079016 
L 198.877091 189.989936 
L 199.130727 192.759347 
L 199.232182 192.625032 
L 199.435091 192.328318 
L 199.587273 192.64231 
L 199.638 192.751501 
L 199.688727 192.709519 
L 199.840909 192.551873 
L 199.942364 192.71964 
L 200.145273 191.301086 
L 200.601818 188.067136 
L 200.855455 185.685144 
L 200.906182 185.6673 
L 201.007636 186.019154 
L 201.210545 187.860048 
L 201.616364 191.892548 
L 201.717818 191.625123 
L 201.920727 189.940255 
L 202.326545 185.397641 
L 202.428 185.245816 
L 202.478727 185.306204 
L 202.630909 185.941331 
L 203.797636 194.488068 
L 204.507818 202.577595 
L 204.812182 205.174237 
L 204.913636 203.843283 
L 205.573091 191.392571 
L 205.776 190.64923 
L 205.877455 190.76812 
L 206.131091 191.917561 
L 206.181818 191.679519 
L 206.384727 188.016397 
L 206.689091 183.481892 
L 206.892 182.862697 
L 206.993455 183.040711 
L 207.145636 183.923235 
L 207.399273 186.310336 
L 207.45 186.194968 
L 207.652909 185.059118 
L 207.805091 185.329955 
L 207.957273 185.770812 
L 208.008 185.753533 
L 208.109455 185.671191 
L 208.160182 185.725908 
L 208.515273 186.91438 
L 209.732727 197.582626 
L 210.087818 200.385198 
L 210.24 200.76044 
L 210.442909 199.74686 
L 210.645818 199.171861 
L 210.747273 199.35991 
L 211.051636 200.261183 
L 211.102364 200.260193 
L 211.254545 199.353708 
L 211.508182 198.140179 
L 211.609636 198.184382 
L 211.761818 198.717779 
L 212.015455 199.543593 
L 212.167636 198.542712 
L 212.370545 196.209156 
L 213.182182 184.075801 
L 213.232909 184.068738 
L 213.334364 184.418382 
L 213.638727 186.989794 
L 213.892364 189.233709 
L 213.943091 189.104115 
L 214.146 188.495479 
L 214.247455 188.701534 
L 214.805455 191.162824 
L 215.262 196.365178 
L 215.617091 199.573018 
L 215.870727 200.742815 
L 216.175091 202.377269 
L 216.682364 205.16584 
L 216.936 206.236039 
L 217.037455 205.513786 
L 217.544727 199.995425 
L 217.646182 199.599687 
L 217.849091 196.563711 
L 218.153455 193.205991 
L 218.407091 192.391051 
L 218.508545 192.427078 
L 218.660727 192.953503 
L 218.711455 192.923075 
L 219.168 190.168899 
L 219.269455 190.357493 
L 219.472364 191.495458 
L 219.675273 192.776575 
L 219.726 192.631335 
L 219.827455 192.487657 
L 219.928909 192.753134 
L 220.131818 194.318773 
L 220.943455 202.238392 
L 221.197091 202.458839 
L 221.298545 201.766043 
L 221.755091 197.135992 
L 222.110182 196.201065 
L 222.160909 196.299304 
L 222.363818 197.392911 
L 223.226182 203.522597 
L 223.733455 207.406278 
L 223.784182 207.367863 
L 223.987091 206.896211 
L 224.037818 206.931686 
L 224.19 204.900049 
L 224.443636 202.672784 
L 224.545091 202.690379 
L 224.697273 203.263312 
L 225.103091 206.145564 
L 225.559636 208.938379 
L 225.813273 209.591824 
L 226.624909 212.684068 
L 226.726364 212.602268 
L 226.929273 212.577112 
L 227.132182 212.865011 
L 227.385818 213.357318 
L 227.436545 213.303425 
L 227.690182 213.143103 
L 227.893091 213.334851 
L 228.248182 214.099459 
L 229.262727 216.39864 
L 229.465636 216.674375 
L 229.972909 214.764129 
L 230.175818 214.951884 
L 230.328 215.13703 
L 230.733818 214.343251 
L 230.886 214.423128 
L 231.190364 214.980126 
L 231.951273 216.80469 
L 232.002 216.722166 
L 232.357091 215.468054 
L 232.56 215.017636 
L 232.712182 214.342037 
L 233.118 211.358654 
L 233.270182 211.249346 
L 233.422364 211.539267 
L 233.777455 212.976766 
L 233.878909 213.250617 
L 233.929636 213.209221 
L 234.132545 213.112608 
L 234.284727 213.306371 
L 234.589091 214.091447 
L 234.690545 213.969206 
L 234.842727 213.897096 
L 234.994909 214.081989 
L 235.299273 214.850788 
L 235.400727 214.733774 
L 235.654364 214.466198 
L 235.806545 214.597949 
L 236.110909 215.294894 
L 237.125455 217.865464 
L 237.176182 217.95422 
L 237.226909 217.924542 
L 237.632727 216.303428 
L 237.784909 216.329613 
L 238.038545 216.715141 
L 238.444364 217.473232 
L 238.647273 216.41608 
L 239.002364 213.494247 
L 239.103818 213.470065 
L 239.256 213.781327 
L 239.357455 213.984345 
L 239.408182 213.941874 
L 239.611091 213.767003 
L 239.763273 213.956059 
L 240.067636 214.906016 
L 240.676364 216.996839 
L 240.727091 216.972374 
L 241.082182 216.447533 
L 241.437273 214.553429 
L 241.640182 214.510241 
L 241.893818 213.750205 
L 241.995273 213.80416 
L 242.248909 214.092465 
L 242.401091 214.136206 
L 242.705455 214.421349 
L 243.009818 214.138393 
L 243.212727 213.846088 
L 243.364909 213.985333 
L 243.618545 214.696482 
L 243.72 214.968926 
L 243.770727 214.878063 
L 244.024364 214.425363 
L 244.176545 214.584811 
L 244.480909 215.466742 
L 245.343273 218.155008 
L 245.749091 218.839421 
L 246.104182 216.49214 
L 246.51 213.588787 
L 246.966545 211.291314 
L 247.068 211.40085 
L 247.270909 212.125943 
L 248.133273 216.409591 
L 248.234727 216.315989 
L 248.488364 216.078173 
L 248.691273 216.336452 
L 249.249273 217.748563 
L 249.655091 218.61196 
L 249.858 217.333582 
L 250.213091 213.380308 
L 250.466727 211.701517 
L 250.568182 211.60463 
L 250.618909 211.650652 
L 250.821818 212.267335 
L 251.227636 214.028389 
L 251.582727 211.415881 
L 251.684182 211.590502 
L 252.140727 212.75254 
L 252.394364 213.556042 
L 252.698727 214.438266 
L 252.952364 214.730621 
L 253.256727 215.5313 
L 254.271273 218.452704 
L 254.423455 218.115814 
L 255.082909 216.424019 
L 255.235091 216.374283 
L 255.488727 216.588676 
L 255.539455 216.488935 
L 255.793091 216.045135 
L 255.945273 216.123467 
L 256.198909 216.638422 
L 257.010545 218.687145 
L 257.061273 218.644934 
L 257.517818 217.735239 
L 257.720727 217.848199 
L 258.126545 218.490942 
L 258.633818 219.308367 
L 258.684545 219.276113 
L 259.191818 218.488361 
L 259.445455 218.621461 
L 259.597636 218.715166 
L 260.257091 214.763757 
L 260.307818 214.792206 
L 260.510727 215.248157 
L 261.829636 219.279084 
L 261.931091 219.082613 
L 262.336909 216.296557 
L 262.489091 216.262005 
L 262.692 216.625236 
L 263.351455 218.453239 
L 263.452909 218.302387 
L 263.757273 217.755961 
L 263.960182 217.822787 
L 264.163091 218.104555 
L 264.213818 217.895248 
L 264.568909 213.195352 
L 264.771818 212.157766 
L 264.873273 212.18467 
L 265.076182 212.851373 
L 265.989273 217.412487 
L 266.090727 217.231129 
L 266.344364 216.744814 
L 266.496545 216.846365 
L 266.800909 217.504034 
L 267.663273 219.476446 
L 268.221273 220.17756 
L 268.83 220.587831 
L 269.641636 220.852869 
L 270.453273 215.061609 
L 270.605455 215.025989 
L 270.808364 215.476746 
L 271.315636 217.331792 
L 271.417091 217.205317 
L 271.569273 216.828512 
L 271.772182 215.450945 
L 272.025818 214.105922 
L 272.127273 213.842039 
L 272.380909 212.954012 
L 272.482364 213.030843 
L 272.685273 213.657873 
L 273.141818 215.236829 
L 273.446182 215.973476 
L 274.612909 219.35691 
L 274.866545 219.762098 
L 274.917273 219.726817 
L 275.069455 218.782666 
L 275.424545 214.333418 
L 275.627455 213.205473 
L 275.982545 210.737527 
L 276.337636 208.735009 
L 276.489818 208.201627 
L 276.591273 208.343008 
L 276.743455 207.341899 
L 276.895636 206.844558 
L 276.997091 206.99298 
L 277.2 208.039219 
L 277.402909 209.23982 
L 277.453636 209.172431 
L 277.758 208.461109 
L 277.859455 208.608982 
L 278.062364 209.433764 
L 278.620364 212.032133 
L 278.874 211.618181 
L 279.076909 211.88618 
L 279.127636 211.785178 
L 279.330545 211.504061 
L 279.482727 211.794135 
L 279.787091 213.143837 
L 280.395818 216.083225 
L 280.548 215.553226 
L 280.953818 214.463771 
L 281.106 214.396947 
L 281.308909 214.625359 
L 281.816182 212.296474 
L 281.968364 212.455936 
L 282.526364 210.573921 
L 282.729273 209.697203 
L 282.830727 209.796104 
L 283.033636 210.637784 
L 284.098909 216.204844 
L 284.504727 216.194879 
L 284.809091 216.659372 
L 285.975818 218.904789 
L 286.128 217.949587 
L 286.635273 215.150099 
L 286.787455 214.97295 
L 286.939636 215.176986 
L 287.345455 216.403108 
L 287.649818 217.069179 
L 288.055636 217.024202 
L 288.207818 217.109613 
L 288.715091 212.988883 
L 288.765818 213.008282 
L 288.918 213.321412 
L 289.323818 214.967156 
L 289.476 215.484209 
L 289.526727 215.380357 
L 289.780364 214.871822 
L 289.831091 214.894265 
L 290.186182 212.878621 
L 290.389091 212.331573 
L 290.490545 212.365014 
L 290.693455 212.893637 
L 291.200727 214.58216 
L 291.403636 214.705183 
L 291.606545 214.889719 
L 291.860182 214.744214 
L 292.215273 213.807484 
L 292.367455 214.014463 
L 292.570364 214.348058 
L 292.824 214.308898 
L 293.280545 212.882549 
L 293.534182 212.581063 
L 293.94 211.645181 
L 294.244364 210.834448 
L 294.396545 210.570182 
L 294.548727 210.875512 
L 294.853091 212.344551 
L 295.056 213.026468 
L 295.157455 213.079007 
L 295.208182 212.901226 
L 295.512545 209.464252 
L 295.614 209.364335 
L 295.715455 209.468623 
L 295.766182 209.395001 
L 296.019818 207.990099 
L 296.070545 208.006965 
L 296.222727 208.501165 
L 296.628545 210.068786 
L 296.932909 211.544709 
L 297.896727 216.624261 
L 298.099636 217.275688 
L 298.150364 217.260117 
L 298.606909 216.564354 
L 298.809818 216.741477 
L 298.962 216.870099 
L 299.317091 215.794048 
L 299.469273 215.869227 
L 299.773636 216.502111 
L 300.686727 218.617063 
L 301.244727 219.336365 
L 301.498364 219.516576 
L 301.650545 218.877808 
L 302.259273 212.413379 
L 302.360727 212.517646 
L 302.614364 213.457454 
L 303.273818 216.403795 
L 303.324545 216.387879 
L 303.730364 215.947598 
L 303.984 215.657039 
L 304.136182 215.78824 
L 304.440545 216.481741 
L 304.592727 216.746812 
L 304.947818 215.548837 
L 305.201455 214.858134 
L 305.353636 214.967076 
L 305.708727 215.681182 
L 305.759455 215.607909 
L 305.962364 215.450501 
L 306.063818 215.393994 
L 306.672545 213.041714 
L 306.723273 213.098415 
L 306.926182 213.6867 
L 307.230545 215.001669 
L 307.484182 213.681243 
L 307.585636 213.802914 
L 307.839273 214.722272 
L 308.701636 218.079319 
L 309.208909 219.163593 
L 309.564 219.592467 
L 309.716182 219.168743 
L 309.919091 218.277701 
L 310.882909 208.825795 
L 310.984364 208.938011 
L 311.187273 209.870395 
L 311.643818 212.228223 
L 311.948182 211.907218 
L 312.100364 212.250456 
L 312.455455 213.889655 
L 313.216364 217.372 
L 313.672909 218.56974 
L 313.723636 218.554163 
L 314.281636 215.878093 
L 314.433818 215.962909 
L 314.890364 212.570201 
L 315.093273 212.674089 
L 315.194727 212.325597 
L 315.499091 211.125162 
L 315.600545 211.192546 
L 315.803455 211.848048 
L 317.020909 217.591664 
L 317.071636 217.431352 
L 317.376 216.428633 
L 317.477455 216.104952 
L 317.781818 214.935064 
L 317.883273 214.970683 
L 318.086182 215.397496 
L 318.238364 215.790187 
L 318.542727 214.45585 
L 318.694909 214.677323 
L 319.05 215.920064 
L 319.760182 218.272929 
L 320.115273 219.006895 
L 320.267455 218.278709 
L 320.521091 217.465244 
L 320.673273 217.436483 
L 320.724 217.461684 
L 320.926909 216.362924 
L 321.231273 214.651763 
L 321.383455 214.543026 
L 321.535636 214.783713 
L 321.687818 215.13082 
L 322.245818 212.082087 
L 322.448727 211.290109 
L 322.651636 210.916918 
L 322.803818 211.244587 
L 322.956 211.675954 
L 323.006727 211.607252 
L 323.158909 211.577656 
L 323.311091 211.944727 
L 323.564727 212.569993 
L 323.767636 212.884492 
L 324.072 213.947124 
L 324.122727 214.122835 
L 324.274909 212.980932 
L 324.528545 211.834572 
L 324.63 211.896105 
L 324.832909 212.533388 
L 325.746 216.73303 
L 325.796727 216.305171 
L 326.101091 213.82885 
L 326.253273 213.687549 
L 326.405455 213.969396 
L 326.709818 214.876228 
L 326.963455 213.463423 
L 327.064909 213.510577 
L 327.267818 214.112404 
L 327.673636 215.815662 
L 327.724364 215.63802 
L 327.978 214.741285 
L 328.231636 214.662135 
L 328.485273 214.188716 
L 328.637455 214.339881 
L 328.941818 215.253076 
L 329.854909 218.21628 
L 330.362182 219.132221 
L 330.920182 219.70539 
L 331.072364 219.811907 
L 331.123091 219.739535 
L 331.528909 218.005413 
L 331.681091 217.972276 
L 331.934727 218.24849 
L 332.137636 218.516858 
L 332.594182 217.336536 
L 332.797091 217.515006 
L 332.949273 217.658723 
L 333.304364 216.324002 
L 333.456545 216.37634 
L 333.710182 216.886198 
L 333.760909 216.82633 
L 334.065273 215.829521 
L 334.268182 215.788175 
L 334.572545 213.054654 
L 334.674 212.968455 
L 334.826182 213.280231 
L 336.398727 218.446538 
L 336.703091 219.099652 
L 336.804545 218.719888 
L 337.108909 217.538786 
L 337.311818 217.252555 
L 337.514727 216.054733 
L 337.768364 215.039597 
L 337.920545 215.048007 
L 338.022 215.11406 
L 338.123455 214.849934 
L 338.427818 213.561063 
L 338.529273 213.557238 
L 338.681455 213.867127 
L 339.087273 215.523941 
L 339.290182 216.162379 
L 339.391636 215.963518 
L 339.848182 212.228233 
L 339.949636 212.262414 
L 340.152545 212.881317 
L 340.304727 213.466429 
L 340.355455 213.426617 
L 340.609091 213.127257 
L 340.761273 213.417239 
L 341.014909 214.315148 
L 341.065636 214.118221 
L 341.623636 209.710501 
L 341.674364 209.74138 
L 342.181636 210.762511 
L 342.283091 210.66267 
L 342.384545 210.682968 
L 342.536727 211.042546 
L 342.891818 212.846416 
L 343.449818 215.898516 
L 343.500545 215.863323 
L 343.703455 215.682048 
L 343.855636 215.879218 
L 343.957091 216.054285 
L 344.007818 216.003754 
L 344.312182 215.196431 
L 344.616545 214.046265 
L 344.819455 213.916978 
L 345.073091 213.256475 
L 345.174545 213.339893 
L 345.326727 213.624938 
L 345.377455 213.537777 
L 345.631091 213.125047 
L 345.884727 212.90821 
L 346.239818 211.422385 
L 346.442727 211.82164 
L 346.544182 211.636944 
L 346.696364 211.534291 
L 346.848545 211.850797 
L 347.203636 213.484029 
L 347.964545 216.998503 
L 348.471818 218.370561 
L 348.979091 219.15658 
L 349.080545 219.237717 
L 349.232727 218.624485 
L 349.892182 215.926525 
L 350.044364 216.024556 
L 350.095091 216.068741 
L 350.145818 215.995136 
L 350.298 215.407913 
L 350.602364 213.71159 
L 351.261818 210.872484 
L 352.073455 204.085235 
L 352.174909 204.17687 
L 352.580727 205.983142 
L 352.986545 209.154423 
L 353.747455 214.955032 
L 354.204 217.030191 
L 354.254727 216.899633 
L 354.508364 215.389667 
L 354.609818 215.133097 
L 355.015636 212.918609 
L 355.117091 212.911941 
L 355.269273 213.211532 
L 355.675091 214.840304 
L 356.385273 217.552035 
L 356.638909 218.14669 
L 356.791091 217.649383 
L 357.044727 217.052618 
L 357.196909 217.075562 
L 357.349091 217.143434 
L 357.704182 216.645051 
L 357.907091 216.83122 
L 358.363636 217.779933 
L 358.972364 218.866172 
L 359.986909 216.531416 
L 360.139091 216.63381 
L 360.443455 217.211445 
L 361.001455 218.47708 
L 361.052182 218.365184 
L 361.407273 217.1148 
L 361.559455 217.148852 
L 361.813091 217.557313 
L 361.965273 217.851034 
L 362.371091 216.452964 
L 362.421818 216.471261 
L 362.574 216.574196 
L 362.929091 215.795323 
L 362.979818 215.817537 
L 363.182727 216.058554 
L 363.233455 215.978013 
L 363.639273 214.201961 
L 363.791455 214.241712 
L 363.994364 214.713665 
L 364.197273 215.259978 
L 364.248 215.199447 
L 364.400182 214.739146 
L 364.755273 212.347553 
L 364.958182 211.976158 
L 365.059636 212.132927 
L 365.110364 212.078474 
L 365.414727 209.575737 
L 365.516182 209.624873 
L 365.719091 210.456964 
L 366.48 214.323849 
L 366.581455 214.056242 
L 366.784364 213.631948 
L 366.936545 213.626296 
L 367.088727 212.835784 
L 367.342364 211.856131 
L 368.204727 209.299112 
L 368.458364 208.962862 
L 368.610545 209.249089 
L 368.864182 210.395433 
L 370.081636 216.840958 
L 370.132364 216.83945 
L 370.842545 212.618505 
L 371.146909 212.361086 
L 371.299091 212.337578 
L 371.451273 212.587302 
L 371.654182 213.207395 
L 371.704909 213.181328 
L 372.161455 212.109417 
L 372.618 212.458943 
L 373.125273 209.332775 
L 373.176 209.40877 
L 373.581818 210.341001 
L 373.581818 210.341001 
" style="fill:none;stroke:#000000;stroke-linecap:square;stroke-width:1.5;"/>
   </g>
   <g id="line2d_15">
    <path clip-path="url(#p5ce03cefb8)" d="M 69.218182 191.1168 
L 69.370364 214.086804 
L 69.624 217.855711 
L 69.826909 218.023707 
L 70.029818 218.351895 
L 70.131273 218.428097 
L 70.283455 217.922445 
L 70.587818 214.995511 
L 71.095091 211.969314 
L 71.348727 210.576739 
L 71.551636 210.064391 
L 71.653091 210.242399 
L 71.856 211.266523 
L 72.870545 217.70989 
L 73.124182 217.606077 
L 73.479273 217.855023 
L 73.732909 217.678766 
L 73.935818 217.878723 
L 74.341636 218.807279 
L 75.051818 220.365757 
L 75.406909 220.858055 
L 75.508364 220.477635 
L 75.812727 219.224794 
L 76.015636 219.105144 
L 76.218545 219.299773 
L 76.522909 219.737389 
L 76.827273 216.580464 
L 77.283818 215.695916 
L 77.334545 215.749061 
L 77.537455 216.239951 
L 78.856364 220.326715 
L 79.363636 220.984097 
L 79.668 219.109076 
L 80.023091 217.677132 
L 80.175273 217.600439 
L 80.428909 217.878765 
L 80.479636 217.7592 
L 80.784 217.123245 
L 80.936182 217.208758 
L 81.240545 217.829058 
L 81.291273 217.734145 
L 81.595636 216.332713 
L 81.9 214.444444 
L 82.052182 214.284819 
L 82.153636 214.295056 
L 82.458 213.315109 
L 82.610182 213.58886 
L 82.914545 214.922488 
L 83.117455 215.503909 
L 83.421818 215.420923 
L 83.675455 214.954212 
L 83.827636 215.129326 
L 84.132 216.06615 
L 84.537818 217.526624 
L 84.588545 217.462996 
L 84.740727 216.697141 
L 85.045091 215.270061 
L 85.197273 215.285333 
L 85.400182 215.746231 
L 86.769818 219.7349 
L 87.277091 220.360178 
L 87.835091 220.733266 
L 87.987273 219.827786 
L 88.240909 218.736559 
L 88.443818 218.602689 
L 88.646727 218.792341 
L 90.117818 220.768729 
L 90.168545 220.777614 
L 90.371455 219.50213 
L 90.675818 217.250554 
L 90.878727 216.993862 
L 91.081636 217.212828 
L 91.132364 217.025006 
L 91.538182 214.929324 
L 91.639636 214.914863 
L 91.791818 215.175321 
L 92.146909 216.43204 
L 92.502 217.753771 
L 92.552727 217.688499 
L 93.313636 215.596009 
L 93.567273 214.380625 
L 93.668727 214.411854 
L 93.871636 214.990101 
L 94.074545 215.589666 
L 94.125273 215.559448 
L 94.328182 215.470978 
L 94.480364 215.697306 
L 94.835455 216.830951 
L 95.596364 219.22262 
L 96.052909 220.062372 
L 96.205091 219.147054 
L 96.763091 216.42671 
L 96.915273 216.288262 
L 97.067455 216.482662 
L 97.473273 217.612707 
L 97.879091 218.701522 
L 97.980545 218.513584 
L 98.082 218.015393 
L 98.386364 216.242497 
L 98.538545 216.071728 
L 98.690727 216.224697 
L 98.995091 217.013831 
L 99.857455 219.379901 
L 100.212545 219.964813 
L 100.618364 217.62865 
L 100.770545 217.613534 
L 100.973455 216.979995 
L 101.125636 215.278177 
L 101.683636 208.171209 
L 101.835818 208.637785 
L 102.190909 211.104032 
L 102.951818 216.412134 
L 103.459091 218.449725 
L 103.915636 219.486093 
L 103.966364 219.568862 
L 104.017091 219.531826 
L 105.031636 215.186635 
L 105.183818 215.386794 
L 105.538909 216.456002 
L 105.944727 217.835171 
L 105.995455 217.797407 
L 106.350545 216.661213 
L 106.807091 215.418871 
L 106.857818 215.45569 
L 107.060727 215.857736 
L 108.531818 219.697738 
L 108.633273 219.485388 
L 109.647818 215.529012 
L 109.698545 215.534568 
L 110.104364 213.727965 
L 110.307273 213.572126 
L 110.459455 213.756358 
L 110.713091 214.556937 
L 110.916 215.214219 
L 110.966727 215.176588 
L 111.271091 214.859587 
L 111.423273 214.998924 
L 111.727636 215.777478 
L 111.879818 216.171183 
L 111.930545 216.096014 
L 112.133455 214.213497 
L 112.387091 212.365367 
L 112.640727 211.534123 
L 112.945091 209.515171 
L 113.046545 209.355649 
L 113.097273 209.41022 
L 113.198727 209.655055 
L 113.553818 208.035704 
L 113.604545 208.118868 
L 113.807455 209.067318 
L 114.111818 210.533475 
L 114.213273 210.616309 
L 114.416182 211.306407 
L 115.227818 215.623124 
L 115.329273 215.56519 
L 115.38 215.511354 
L 115.481455 214.835272 
L 115.836545 211.621593 
L 115.938 211.571247 
L 116.090182 211.928778 
L 116.293091 212.590197 
L 116.648182 211.437734 
L 116.749636 211.450981 
L 116.901818 211.775151 
L 117.256909 213.334894 
L 117.612 214.973477 
L 117.662727 214.878597 
L 117.865636 214.463074 
L 117.967091 214.519143 
L 118.17 214.907747 
L 118.220727 214.828476 
L 118.474364 214.361361 
L 118.626545 214.473138 
L 118.880182 215.121051 
L 119.133818 215.991505 
L 119.184545 215.877446 
L 119.438182 214.613377 
L 119.539636 214.630921 
L 119.742545 215.083297 
L 120.300545 216.925904 
L 120.351273 216.830824 
L 120.807818 215.021086 
L 121.061455 212.552782 
L 121.213636 212.328938 
L 121.365818 212.617917 
L 121.720909 214.121371 
L 122.126727 215.75617 
L 122.329636 214.151366 
L 122.786182 211.389514 
L 123.192 210.304155 
L 123.344182 210.574337 
L 123.648545 211.967653 
L 124.054364 214.048728 
L 124.105091 213.993923 
L 124.308 213.884656 
L 124.460182 214.018052 
L 124.510909 213.953569 
L 124.764545 213.649235 
L 124.916727 213.814774 
L 125.068909 213.922574 
L 125.322545 213.900797 
L 125.525455 214.252877 
L 125.982 215.772799 
L 126.438545 217.134789 
L 127.098 214.258221 
L 127.250182 214.223142 
L 127.453091 214.674322 
L 128.315455 217.414148 
L 128.366182 217.344586 
L 128.670545 216.943137 
L 128.873455 217.043472 
L 129.228545 217.628295 
L 129.33 217.821272 
L 129.786545 216.291706 
L 129.938727 216.431098 
L 130.293818 217.228255 
L 130.547455 217.789592 
L 130.598182 217.70752 
L 130.953273 216.957972 
L 131.105455 217.013691 
L 131.409818 217.506074 
L 132.424364 219.369326 
L 132.525818 219.476625 
L 132.576545 219.429211 
L 133.134545 218.209801 
L 133.337455 218.31291 
L 133.794 218.923095 
L 134.554909 219.872717 
L 135.214364 220.339433 
L 136.076727 220.658575 
L 136.685455 220.78823 
L 136.786909 220.470126 
L 137.243455 218.250954 
L 137.7 211.553544 
L 137.801455 211.400477 
L 137.852182 211.442899 
L 138.004364 211.899299 
L 138.765273 214.877959 
L 139.018909 215.538806 
L 140.134909 219.154024 
L 140.185636 219.223344 
L 140.591455 217.315324 
L 140.946545 214.683094 
L 141.098727 214.529539 
L 141.250909 214.797783 
L 141.606 216.197212 
L 142.164 218.457637 
L 142.265455 217.508316 
L 142.620545 213.473655 
L 142.772727 213.194895 
L 142.924909 213.430372 
L 142.975636 213.316473 
L 143.381455 212.195751 
L 143.482909 212.289473 
L 143.685818 213.021055 
L 143.838 213.672234 
L 144.040909 213.033311 
L 144.142364 213.202678 
L 144.396 214.398913 
L 144.700364 215.646005 
L 144.852545 215.589699 
L 145.207636 214.332488 
L 145.714909 212.969293 
L 145.765636 213.033698 
L 145.968545 213.797634 
L 146.120727 214.356287 
L 146.171455 214.294094 
L 146.323636 214.290389 
L 146.526545 214.89988 
L 147.287455 217.868671 
L 147.490364 218.09979 
L 147.845455 219.023359 
L 147.946909 219.332839 
L 147.997636 219.214013 
L 148.251273 218.241359 
L 148.403455 218.291422 
L 148.657091 218.871441 
L 149.367273 220.950365 
L 149.418 220.850706 
L 149.620909 219.775029 
L 149.925273 218.238524 
L 150.077455 217.922213 
L 150.331091 217.450696 
L 150.483273 217.569223 
L 150.736909 218.237088 
L 151.903636 221.92021 
L 152.157273 222.337528 
L 152.208 222.293235 
L 152.512364 221.498898 
L 152.766 219.059516 
L 152.918182 218.82444 
L 153.070364 219.017112 
L 153.425455 220.080113 
L 154.084909 221.930046 
L 154.642909 221.055734 
L 155.150182 220.692515 
L 155.403818 221.025519 
L 155.860364 221.923711 
L 155.911091 221.876589 
L 156.316909 221.32524 
L 156.469091 221.353613 
L 156.672 220.57664 
L 157.077818 219.007778 
L 157.23 219.075326 
L 157.483636 219.681373 
L 157.686545 220.088182 
L 157.788 219.768026 
L 158.244545 216.957446 
L 158.346 217.01936 
L 158.548909 217.620692 
L 158.853273 219.034839 
L 158.904 218.965811 
L 159.309818 217.679619 
L 159.411273 217.711686 
L 159.614182 218.194915 
L 159.817091 218.920948 
L 159.867818 218.884524 
L 160.070727 218.650883 
L 160.222909 218.866293 
L 160.425818 219.213392 
L 160.527273 219.119398 
L 161.186727 217.030737 
L 161.288182 216.266208 
L 161.694 211.757453 
L 161.846182 211.299694 
L 161.947636 211.564594 
L 162.049091 212.017885 
L 162.099818 211.975314 
L 162.201273 211.89432 
L 162.302727 212.112455 
L 163.215818 216.496351 
L 163.926 220.670229 
L 164.331818 222.023034 
L 164.433273 221.888967 
L 164.737636 221.383853 
L 164.940545 221.460182 
L 165.092727 221.577769 
L 165.549273 220.645522 
L 165.752182 220.875983 
L 165.955091 221.22096 
L 166.005818 221.136828 
L 166.310182 220.644291 
L 166.614545 220.566957 
L 166.766727 220.21859 
L 167.071091 219.228429 
L 167.223273 219.22798 
L 167.426182 219.585346 
L 167.476909 219.47127 
L 167.730545 217.871694 
L 167.984182 215.806046 
L 168.136364 215.648629 
L 168.288545 216.021195 
L 168.491455 216.884233 
L 168.542182 216.845383 
L 168.694364 216.589292 
L 168.745091 216.612807 
L 168.897273 216.986981 
L 169.252364 217.970677 
L 169.506 218.298748 
L 169.556727 218.233439 
L 169.861091 217.490212 
L 170.165455 214.278407 
L 170.266909 214.063849 
L 170.317636 214.082074 
L 170.469818 214.496652 
L 170.824909 216.087367 
L 170.875636 216.034205 
L 171.078545 215.859537 
L 171.433636 214.389168 
L 171.535091 214.516445 
L 171.738 215.277999 
L 171.839455 215.662195 
L 172.194545 214.573041 
L 172.346727 214.870429 
L 172.651091 216.280071 
L 173.310545 219.479465 
L 173.665636 219.736623 
L 173.767091 219.562 
L 173.868545 218.602582 
L 174.122182 216.579924 
L 174.325091 215.065179 
L 174.730909 211.110203 
L 174.883091 210.722373 
L 175.035273 210.891427 
L 175.187455 210.600576 
L 175.238182 210.642857 
L 175.390364 211.052879 
L 175.542545 210.436187 
L 175.593273 210.46554 
L 175.745455 211.102993 
L 176.100545 213.327896 
L 176.151273 213.131451 
L 176.404909 211.37861 
L 176.658545 210.58749 
L 176.709273 210.611074 
L 176.861455 211.079217 
L 177.064364 211.939617 
L 177.115091 211.86931 
L 177.520909 210.119189 
L 177.673091 209.749827 
L 177.774545 209.963439 
L 178.028182 211.440465 
L 178.281818 213.168758 
L 178.332545 213.133151 
L 178.738364 211.129047 
L 179.093455 211.58717 
L 179.245636 210.754821 
L 179.448545 208.908645 
L 179.55 208.560885 
L 179.702182 208.179124 
L 179.905091 208.569638 
L 179.955818 208.529235 
L 180.260182 207.27306 
L 180.564545 206.454966 
L 180.666 206.634714 
L 181.122545 208.052822 
L 181.274727 208.255026 
L 181.477636 209.058586 
L 182.086364 212.3282 
L 182.137091 212.283778 
L 182.542909 211.407783 
L 182.796545 210.310512 
L 182.898 210.342386 
L 183.050182 210.770161 
L 183.100909 210.710213 
L 183.253091 208.592864 
L 183.506727 205.908742 
L 183.608182 205.55439 
L 183.912545 203.976565 
L 184.064727 203.640898 
L 184.166182 203.891822 
L 184.369091 205.320883 
L 184.572 206.466239 
L 185.13 207.854773 
L 185.180727 207.766599 
L 185.332909 207.555071 
L 185.383636 207.587873 
L 185.434364 207.678175 
L 185.535818 207.107301 
L 185.789455 205.661578 
L 185.890909 205.775117 
L 186.093818 206.830234 
L 186.956182 212.457541 
L 187.311273 214.045654 
L 187.615636 215.291447 
L 187.869273 215.502097 
L 188.376545 216.491538 
L 188.478 216.072971 
L 188.883818 212.689961 
L 189.391091 208.687738 
L 189.492545 208.79447 
L 189.695455 209.728959 
L 190.152 212.12321 
L 190.557818 212.595753 
L 190.659273 212.69979 
L 190.811455 212.488629 
L 191.065091 211.898844 
L 191.166545 211.922609 
L 191.268 211.614592 
L 191.521636 210.659565 
L 191.572364 210.609232 
L 191.724545 209.435375 
L 192.130364 205.401522 
L 192.333273 204.634728 
L 192.434727 204.781795 
L 192.536182 204.962818 
L 193.043455 202.761415 
L 193.144909 202.940939 
L 193.398545 203.74395 
L 193.449273 203.600367 
L 193.753636 201.686256 
L 194.058 197.766915 
L 194.159455 197.497845 
L 194.210182 197.513537 
L 194.260909 197.522512 
L 194.616 196.562772 
L 194.818909 197.021787 
L 194.869636 196.918146 
L 195.326182 194.525772 
L 195.630545 191.840018 
L 195.681273 191.820716 
L 195.782727 192.14602 
L 196.239273 194.423038 
L 196.340727 194.534438 
L 196.442182 194.61596 
L 196.695818 193.555592 
L 196.797273 193.897621 
L 197.101636 195.437542 
L 197.355273 195.459562 
L 197.608909 194.639315 
L 197.710364 194.367717 
L 198.014727 192.15674 
L 198.116182 192.344362 
L 198.268364 192.717676 
L 198.420545 192.515091 
L 198.471273 192.574556 
L 198.623455 193.313151 
L 198.877091 195.997301 
L 199.130727 198.491598 
L 199.232182 198.288929 
L 199.435091 197.855182 
L 199.536545 197.942611 
L 199.638 198.13057 
L 199.688727 198.059382 
L 199.840909 197.840723 
L 199.891636 197.881397 
L 199.942364 197.977699 
L 200.297455 195.758278 
L 200.703273 192.268216 
L 200.855455 191.32491 
L 200.906182 191.332784 
L 201.007636 191.727374 
L 201.261273 194.257941 
L 201.616364 197.666767 
L 201.717818 197.405762 
L 201.920727 195.748177 
L 202.326545 191.551406 
L 202.428 191.457995 
L 202.529455 191.703995 
L 202.732364 192.985369 
L 203.087455 195.157776 
L 203.391818 196.63452 
L 203.797636 200.07931 
L 204.406364 206.428568 
L 204.761455 210.037498 
L 204.812182 210.008898 
L 204.913636 208.652921 
L 205.522364 196.816646 
L 205.725273 195.704184 
L 205.826727 195.676169 
L 205.978909 196.143719 
L 206.131091 196.885381 
L 206.181818 196.645679 
L 206.384727 193.069752 
L 206.689091 188.838933 
L 206.841273 188.400549 
L 206.942727 188.535278 
L 207.094909 189.294618 
L 207.399273 192.206633 
L 207.500727 191.706631 
L 207.652909 191.093947 
L 207.805091 191.423561 
L 208.008 191.882493 
L 208.109455 191.81442 
L 208.160182 191.874404 
L 208.515273 193.061245 
L 210.138545 205.333813 
L 210.24 205.474696 
L 210.645818 203.671372 
L 210.747273 203.825443 
L 211.102364 204.728819 
L 211.254545 203.900515 
L 211.508182 202.784231 
L 211.609636 202.790442 
L 211.761818 203.140866 
L 211.964727 203.723964 
L 212.015455 203.676827 
L 212.218364 202.164473 
L 212.674909 196.300383 
L 213.131455 188.952988 
L 213.182182 188.843698 
L 213.232909 188.872113 
L 213.385091 189.640534 
L 213.892364 194.462717 
L 213.993818 194.21476 
L 214.095273 194.007965 
L 214.146 194.026639 
L 214.298182 194.529995 
L 214.754727 196.306666 
L 215.160545 200.381101 
L 215.617091 204.475605 
L 215.870727 205.442129 
L 216.124364 206.554587 
L 216.783818 209.738831 
L 216.936 210.183031 
L 217.037455 209.431317 
L 217.544727 204.160081 
L 217.646182 203.794856 
L 217.849091 200.84109 
L 218.153455 197.618873 
L 218.407091 196.876396 
L 218.508545 196.898674 
L 218.660727 197.372639 
L 218.711455 197.324573 
L 219.168 194.537096 
L 219.218727 194.58764 
L 219.370909 195.162235 
L 219.675273 197.172437 
L 219.726 197.04691 
L 219.827455 196.942343 
L 219.928909 197.235624 
L 220.131818 198.806636 
L 220.943455 206.192997 
L 221.197091 206.221047 
L 221.298545 205.476499 
L 221.755091 200.857724 
L 222.059455 199.954121 
L 222.160909 200.09212 
L 222.363818 201.213189 
L 223.074 206.140893 
L 223.581273 209.859971 
L 223.733455 210.962568 
L 223.784182 210.906885 
L 223.987091 210.37934 
L 224.037818 210.399201 
L 224.19 208.349069 
L 224.443636 206.129856 
L 224.545091 206.142322 
L 224.697273 206.69579 
L 225.103091 209.461614 
L 225.559636 212.055211 
L 225.762545 212.460199 
L 226.168364 213.962945 
L 226.574182 215.411001 
L 226.624909 215.398551 
L 226.929273 215.216916 
L 227.132182 215.459724 
L 227.385818 215.89701 
L 227.436545 215.834376 
L 227.690182 215.638427 
L 227.893091 215.802411 
L 228.248182 216.51221 
L 229.212 218.562376 
L 229.465636 218.887304 
L 229.972909 216.975245 
L 230.175818 217.156117 
L 230.328 217.332109 
L 230.733818 216.535948 
L 230.886 216.611071 
L 231.190364 217.147085 
L 231.951273 218.880232 
L 232.002 218.792262 
L 232.357091 217.532483 
L 232.56 217.082095 
L 232.712182 216.412055 
L 233.118 213.484159 
L 233.270182 213.386174 
L 233.422364 213.678901 
L 233.777455 215.094231 
L 233.878909 215.357439 
L 233.929636 215.312628 
L 234.132545 215.205548 
L 234.284727 215.389036 
L 234.589091 216.143108 
L 234.690545 216.013128 
L 234.842727 215.931447 
L 234.994909 216.10462 
L 235.299273 216.841278 
L 235.400727 216.716288 
L 235.654364 216.435965 
L 235.806545 216.558135 
L 236.110909 217.227538 
L 237.074727 219.584549 
L 237.176182 219.753949 
L 237.226909 219.718825 
L 237.632727 218.095875 
L 237.784909 218.11901 
L 238.038545 218.492456 
L 238.444364 219.218785 
L 238.698 217.63126 
L 238.951636 215.396749 
L 239.103818 215.263783 
L 239.357455 215.779529 
L 239.458909 215.666727 
L 239.611091 215.563589 
L 239.763273 215.749167 
L 240.067636 216.677572 
L 240.676364 218.693409 
L 240.828545 218.485624 
L 241.132909 217.774199 
L 241.386545 216.312936 
L 241.538727 216.241098 
L 241.589455 216.288973 
L 241.640182 216.191249 
L 241.893818 215.439833 
L 241.995273 215.494362 
L 242.248909 215.776905 
L 242.401091 215.817251 
L 242.705455 216.08908 
L 243.009818 215.797371 
L 243.212727 215.502295 
L 243.364909 215.636086 
L 243.618545 216.329758 
L 243.72 216.593115 
L 243.770727 216.499269 
L 244.024364 216.039401 
L 244.176545 216.192138 
L 244.480909 217.051036 
L 245.343273 219.642577 
L 245.749091 220.285115 
L 246.104182 217.942929 
L 246.51 215.080772 
L 246.966545 212.832298 
L 247.068 212.946548 
L 247.270909 213.670949 
L 248.133273 217.862434 
L 248.234727 217.759008 
L 248.488364 217.504045 
L 248.691273 217.747621 
L 249.249273 219.110676 
L 249.655091 219.936916 
L 249.858 218.655609 
L 250.213091 214.744379 
L 250.466727 213.097868 
L 250.568182 213.009108 
L 250.618909 213.057904 
L 250.821818 213.677522 
L 251.227636 215.415503 
L 251.582727 212.820497 
L 251.684182 212.995668 
L 252.140727 214.140217 
L 252.394364 214.926297 
L 252.698727 215.781207 
L 252.952364 216.054676 
L 253.256727 216.829174 
L 254.220545 219.590608 
L 254.271273 219.651497 
L 254.322 219.58907 
L 255.235091 217.556276 
L 255.488727 217.764241 
L 255.539455 217.66387 
L 255.793091 217.219557 
L 255.945273 217.295352 
L 256.198909 217.800775 
L 257.010545 219.795576 
L 257.061273 219.750515 
L 257.517818 218.83172 
L 257.720727 218.939173 
L 258.126545 219.564818 
L 258.633818 220.355066 
L 258.684545 220.320569 
L 259.191818 219.523842 
L 259.445455 219.65056 
L 259.597636 219.739335 
L 260.257091 215.820351 
L 260.307818 215.850309 
L 260.510727 216.307171 
L 261.829636 220.25535 
L 261.931091 220.054101 
L 262.336909 217.280934 
L 262.489091 217.248269 
L 262.692 217.609236 
L 263.351455 219.406189 
L 263.452909 219.251181 
L 263.757273 218.698974 
L 263.960182 218.760791 
L 264.163091 219.035561 
L 264.213818 218.824827 
L 264.568909 214.157716 
L 264.771818 213.138058 
L 264.873273 213.170117 
L 265.076182 213.839489 
L 265.989273 218.339364 
L 266.090727 218.151775 
L 266.344364 217.65642 
L 266.496545 217.752134 
L 266.800909 218.39506 
L 267.663273 220.317609 
L 268.221273 220.991276 
L 268.83 221.37827 
L 269.641636 221.619409 
L 270.453273 215.869836 
L 270.605455 215.839154 
L 270.808364 216.29075 
L 271.315636 218.12779 
L 271.417091 217.998109 
L 271.569273 217.618724 
L 271.772182 216.244383 
L 272.025818 214.908521 
L 272.127273 214.646948 
L 272.380909 213.767245 
L 272.482364 213.845318 
L 272.685273 214.470272 
L 273.141818 216.031092 
L 273.446182 216.753874 
L 274.562182 219.976463 
L 274.866545 220.461614 
L 274.917273 220.424227 
L 275.069455 219.478643 
L 275.424545 215.054181 
L 275.627455 213.937394 
L 275.982545 211.495001 
L 276.286909 209.90042 
L 276.489818 208.991152 
L 276.591273 209.136101 
L 276.743455 208.142636 
L 276.895636 207.653209 
L 276.997091 207.804371 
L 277.2 208.849485 
L 277.402909 210.042273 
L 277.453636 209.973691 
L 277.758 209.260007 
L 277.859455 209.405592 
L 278.062364 210.222221 
L 278.620364 212.785174 
L 278.874 212.36295 
L 279.076909 212.623362 
L 279.127636 212.520965 
L 279.330545 212.236139 
L 279.482727 212.522225 
L 279.787091 213.858394 
L 280.395818 216.75758 
L 280.548 216.221577 
L 280.953818 215.125707 
L 281.106 215.057139 
L 281.308909 215.281361 
L 281.816182 212.960217 
L 281.968364 213.119203 
L 282.526364 211.243082 
L 282.729273 210.372208 
L 282.830727 210.472111 
L 283.033636 211.311408 
L 284.098909 216.816617 
L 284.504727 216.790115 
L 284.809091 217.243079 
L 285.975818 219.445027 
L 286.128 218.488653 
L 286.635273 215.698986 
L 286.787455 215.524524 
L 286.939636 215.729076 
L 287.345455 216.948182 
L 287.649818 217.605127 
L 288.055636 217.551466 
L 288.207818 217.633331 
L 288.715091 213.529454 
L 288.765818 213.549744 
L 288.918 213.863853 
L 289.323818 215.502205 
L 289.476 216.014135 
L 289.526727 215.909148 
L 289.780364 215.39794 
L 289.831091 215.41969 
L 290.186182 213.408321 
L 290.389091 212.864026 
L 290.490545 212.897869 
L 290.693455 213.424671 
L 291.200727 215.098514 
L 291.403636 215.216415 
L 291.606545 215.395583 
L 291.860182 215.245151 
L 292.215273 214.30679 
L 292.367455 214.511913 
L 292.570364 214.841804 
L 292.824 214.799053 
L 293.280545 213.373581 
L 293.534182 213.07173 
L 293.94 212.136974 
L 294.244364 211.327306 
L 294.396545 211.064136 
L 294.548727 211.36889 
L 294.853091 212.831584 
L 295.056 213.50737 
L 295.157455 213.557514 
L 295.208182 213.378908 
L 295.512545 209.950052 
L 295.614 209.851795 
L 295.715455 209.956731 
L 295.766182 209.883464 
L 296.019818 208.48436 
L 296.070545 208.501885 
L 296.222727 208.996227 
L 296.628545 210.556539 
L 296.932909 212.022553 
L 297.896727 217.052822 
L 298.099636 217.694617 
L 298.150364 217.677051 
L 298.606909 216.971582 
L 298.809818 217.144845 
L 298.962 217.270392 
L 299.317091 216.193101 
L 299.469273 216.267158 
L 299.773636 216.895496 
L 300.686727 218.988389 
L 301.244727 219.695112 
L 301.498364 219.870433 
L 301.650545 219.230691 
L 302.259273 212.788072 
L 302.360727 212.894315 
L 302.614364 213.834956 
L 303.273818 216.76672 
L 303.324545 216.749689 
L 303.730364 216.303097 
L 303.984 216.010264 
L 304.136182 216.139626 
L 304.440545 216.827957 
L 304.592727 217.090058 
L 304.947818 215.89062 
L 305.201455 215.200864 
L 305.353636 215.309354 
L 305.708727 216.019385 
L 305.759455 215.9457 
L 305.962364 215.786839 
L 306.063818 215.729442 
L 306.672545 213.38103 
L 306.723273 213.437787 
L 306.926182 214.024846 
L 307.230545 215.334436 
L 307.484182 214.013873 
L 307.585636 214.134933 
L 307.839273 215.050575 
L 308.701636 218.38475 
L 309.208909 219.456393 
L 309.564 219.87814 
L 309.716182 219.452821 
L 309.969818 218.073344 
L 310.578545 211.642857 
L 310.832182 209.21615 
L 310.933636 209.156544 
L 311.085818 209.632261 
L 311.643818 212.539046 
L 311.694545 212.471641 
L 311.897455 212.186962 
L 311.998909 212.289899 
L 312.201818 212.944771 
L 313.622182 218.773856 
L 313.723636 218.817804 
L 314.281636 216.142266 
L 314.433818 216.226531 
L 314.890364 212.841578 
L 315.093273 212.946514 
L 315.194727 212.598785 
L 315.499091 211.401926 
L 315.600545 211.469724 
L 315.803455 212.124415 
L 317.020909 217.839999 
L 317.071636 217.678751 
L 317.376 216.673547 
L 317.477455 216.349355 
L 317.781818 215.180269 
L 317.883273 215.215727 
L 318.086182 215.641293 
L 318.238364 216.03239 
L 318.542727 214.69855 
L 318.694909 214.919447 
L 319.05 216.158148 
L 319.760182 218.498062 
L 320.115273 219.22578 
L 320.267455 218.496448 
L 320.521091 217.682581 
L 320.673273 217.653246 
L 320.724 217.67818 
L 320.926909 216.579996 
L 321.231273 214.87199 
L 321.383455 214.764038 
L 321.535636 215.004686 
L 321.687818 215.351051 
L 322.245818 212.307444 
L 322.448727 211.517278 
L 322.651636 211.145565 
L 322.803818 211.473202 
L 322.956 211.903702 
L 323.006727 211.834868 
L 323.158909 211.804876 
L 323.311091 212.170942 
L 323.564727 212.793609 
L 323.767636 213.106074 
L 324.072 214.164371 
L 324.122727 214.339223 
L 324.274909 213.196774 
L 324.528545 212.051253 
L 324.63 212.112645 
L 324.832909 212.748624 
L 325.746 216.93235 
L 326.202545 213.875242 
L 326.304 213.945823 
L 326.506909 214.490164 
L 326.709818 215.072853 
L 326.963455 213.660449 
L 327.064909 213.707439 
L 327.267818 214.307995 
L 327.673636 216.00606 
L 327.724364 215.82793 
L 327.978 214.930601 
L 328.231636 214.850372 
L 328.485273 214.376579 
L 328.637455 214.527072 
L 328.941818 215.437539 
L 329.854909 218.387817 
L 330.362182 219.297228 
L 330.920182 219.864747 
L 331.072364 219.969961 
L 331.123091 219.897218 
L 331.528909 218.163452 
L 331.681091 218.130192 
L 331.934727 218.405535 
L 332.137636 218.672772 
L 332.594182 217.492391 
L 332.797091 217.670245 
L 332.949273 217.813223 
L 333.304364 216.479113 
L 333.456545 216.531314 
L 333.710182 217.040068 
L 333.760909 216.979968 
L 334.065273 215.983343 
L 334.268182 215.941638 
L 334.572545 213.211049 
L 334.674 213.125418 
L 334.826182 213.437379 
L 336.398727 218.588427 
L 336.703091 219.23804 
L 336.804545 218.85757 
L 337.108909 217.676162 
L 337.311818 217.389612 
L 337.514727 216.192464 
L 337.768364 215.178599 
L 337.920545 215.187213 
L 338.022 215.253191 
L 338.123455 214.989152 
L 338.427818 213.701605 
L 338.529273 213.697932 
L 338.681455 214.007605 
L 339.087273 215.661688 
L 339.290182 216.298133 
L 339.391636 216.098673 
L 339.848182 212.366062 
L 339.949636 212.400465 
L 340.152545 213.019007 
L 340.304727 213.603289 
L 340.355455 213.563282 
L 340.609091 213.263422 
L 340.761273 213.552751 
L 341.014909 214.448779 
L 341.065636 214.251595 
L 341.623636 209.847603 
L 341.674364 209.878646 
L 342.181636 210.899098 
L 342.283091 210.799087 
L 342.384545 210.819153 
L 342.536727 211.178056 
L 342.891818 212.978732 
L 343.449818 216.023242 
L 343.500545 215.987473 
L 343.703455 215.804549 
L 343.855636 216.000512 
L 343.957091 216.174743 
L 344.007818 216.123871 
L 344.312182 215.315532 
L 344.616545 214.165669 
L 344.819455 214.036191 
L 345.073091 213.376022 
L 345.174545 213.459353 
L 345.326727 213.743973 
L 345.377455 213.656716 
L 345.631091 213.24384 
L 345.884727 213.026708 
L 346.239818 211.541772 
L 346.442727 211.940717 
L 346.544182 211.755952 
L 346.696364 211.653225 
L 346.848545 211.969323 
L 347.203636 213.600152 
L 347.964545 217.106242 
L 348.471818 218.47311 
L 348.979091 219.255093 
L 349.080545 219.335556 
L 349.232727 218.721836 
L 349.892182 216.024816 
L 350.044364 216.122801 
L 350.095091 216.166918 
L 350.145818 216.093283 
L 350.298 215.506218 
L 350.602364 213.811276 
L 351.261818 210.975101 
L 352.073455 204.196321 
L 352.174909 204.288549 
L 352.580727 206.094856 
L 352.986545 209.263092 
L 353.747455 215.052923 
L 354.204 217.121995 
L 354.254727 216.990899 
L 354.508364 215.480072 
L 354.609818 215.223206 
L 355.015636 213.009397 
L 355.117091 213.002752 
L 355.269273 213.30212 
L 355.675091 214.929015 
L 356.385273 217.635442 
L 356.638909 218.228252 
L 356.791091 217.730332 
L 357.044727 217.133046 
L 357.196909 217.155606 
L 357.349091 217.223035 
L 357.704182 216.724195 
L 357.907091 216.909918 
L 358.363636 217.856925 
L 358.921636 218.948547 
L 358.972364 218.940305 
L 359.936182 216.618807 
L 360.088364 216.652703 
L 360.342 217.059482 
L 361.001455 218.547493 
L 361.052182 218.435431 
L 361.407273 217.184929 
L 361.559455 217.218822 
L 361.813091 217.626725 
L 361.965273 217.919975 
L 362.371091 216.521888 
L 362.421818 216.540144 
L 362.574 216.642864 
L 362.929091 215.86398 
L 362.979818 215.886151 
L 363.182727 216.126827 
L 363.233455 216.04622 
L 363.639273 214.270747 
L 363.791455 214.310499 
L 363.994364 214.782124 
L 364.197273 215.327829 
L 364.248 215.267193 
L 364.400182 214.806735 
L 364.755273 212.416076 
L 364.958182 212.045088 
L 365.059636 212.201877 
L 365.110364 212.147402 
L 365.414727 209.646019 
L 365.516182 209.695376 
L 365.719091 210.527385 
L 366.48 214.390405 
L 366.581455 214.12242 
L 366.784364 213.697677 
L 366.936545 213.691637 
L 367.088727 212.901063 
L 367.342364 211.921643 
L 368.204727 209.365794 
L 368.458364 209.029834 
L 368.610545 209.315971 
L 368.864182 210.461644 
L 370.081636 216.899313 
L 370.132364 216.8975 
L 370.842545 212.676811 
L 371.146909 212.41951 
L 371.299091 212.395968 
L 371.451273 212.645485 
L 371.654182 213.265049 
L 371.704909 213.238863 
L 372.161455 212.166693 
L 372.618 212.515422 
L 373.125273 209.390299 
L 373.176 209.466335 
L 373.581818 210.398261 
L 373.581818 210.398261 
" style="fill:none;stroke:#ff0000;stroke-linecap:square;stroke-width:1.5;"/>
   </g>
   <g id="line2d_16">
    <path clip-path="url(#p5ce03cefb8)" d="M 322.854545 143.28 
L 373.480364 143.28 
L 373.480364 143.28 
" style="fill:none;stroke:#000000;stroke-linecap:square;stroke-width:1.5;"/>
   </g>
   <g id="line2d_17">
    <path clip-path="url(#p5ce03cefb8)" d="M 322.854545 165.024 
L 322.854545 160.6752 
L 322.854545 156.3264 
L 322.854545 151.9776 
L 322.854545 147.6288 
" style="fill:none;stroke:#000000;stroke-linecap:square;stroke-width:1.5;"/>
   </g>
   <g id="patch_3">
    <path d="M 54 252 
L 54 34.56 
" style="fill:none;stroke:#000000;stroke-linecap:square;stroke-linejoin:miter;stroke-width:0.8;"/>
   </g>
   <g id="patch_4">
    <path d="M 54 252 
L 388.8 252 
" style="fill:none;stroke:#000000;stroke-linecap:square;stroke-linejoin:miter;stroke-width:0.8;"/>
   </g>
   <g id="text_16">
    <!-- 500 ms -->
    <g transform="translate(322.854545 138.9312)scale(0.1 -0.1)">
     <use xlink:href="#DejaVuSans-53"/>
     <use x="63.623047" xlink:href="#DejaVuSans-48"/>
     <use x="127.246094" xlink:href="#DejaVuSans-48"/>
     <use x="190.869141" xlink:href="#DejaVuSans-32"/>
     <use x="222.65625" xlink:href="#DejaVuSans-109"/>
     <use x="320.068359" xlink:href="#DejaVuSans-115"/>
    </g>
   </g>
   <g id="text_17">
    <!-- 5 mV -->
    <g transform="translate(327.927273 156.3264)scale(0.1 -0.1)">
     <use xlink:href="#DejaVuSans-53"/>
     <use x="63.623047" xlink:href="#DejaVuSans-32"/>
     <use x="95.410156" xlink:href="#DejaVuSans-109"/>
     <use x="192.822266" xlink:href="#DejaVuSans-86"/>
    </g>
   </g>
  </g>
 </g>
 <defs>
  <clipPath id="p5ce03cefb8">
   <rect height="217.44" width="334.8" x="54" y="34.56"/>
  </clipPath>
 </defs>
</svg>
