<?xml version="1.0" encoding="utf-8" standalone="no"?>
<!DOCTYPE svg PUBLIC "-//W3C//DTD SVG 1.1//EN"
  "http://www.w3.org/Graphics/SVG/1.1/DTD/svg11.dtd">
<svg xmlns:xlink="http://www.w3.org/1999/xlink" width="460.8pt" height="345.6pt" viewBox="0 0 460.8 345.6" xmlns="http://www.w3.org/2000/svg" version="1.1">
 <metadata>
  <rdf:RDF xmlns:dc="http://purl.org/dc/elements/1.1/" xmlns:cc="http://creativecommons.org/ns#" xmlns:rdf="http://www.w3.org/1999/02/22-rdf-syntax-ns#">
   <cc:Work>
    <dc:type rdf:resource="http://purl.org/dc/dcmitype/StillImage"/>
    <dc:date>2023-02-10T19:08:35.502344</dc:date>
    <dc:format>image/svg+xml</dc:format>
    <dc:creator>
     <cc:Agent>
      <dc:title>Matplotlib v3.6.3, https://matplotlib.org/</dc:title>
     </cc:Agent>
    </dc:creator>
   </cc:Work>
  </rdf:RDF>
 </metadata>
 <defs>
  <style type="text/css">*{stroke-linejoin: round; stroke-linecap: butt}</style>
 </defs>
 <g id="figure_1">
  <g id="patch_1">
   <path d="M 0 345.6 
L 460.8 345.6 
L 460.8 0 
L 0 0 
z
" style="fill: #ffffff"/>
  </g>
  <g id="axes_1">
   <g id="patch_2">
    <path d="M 57.6 307.584 
L 414.72 307.584 
L 414.72 41.472 
L 57.6 41.472 
z
" style="fill: #ffffff"/>
   </g>
   <g id="matplotlib.axis_1">
    <g id="xtick_1">
     <g id="line2d_1">
      <defs>
       <path id="mdc18abb0bf" d="M 0 0 
L 0 3.5 
" style="stroke: #000000; stroke-width: 0.8"/>
      </defs>
      <g>
       <use xlink:href="#mdc18abb0bf" x="73.832727" y="307.584" style="stroke: #000000; stroke-width: 0.8"/>
      </g>
     </g>
     <g id="text_1">
      <!-- 0 -->
      <g transform="translate(70.651477 322.182437) scale(0.1 -0.1)">
       <defs>
        <path id="DejaVuSans-30" d="M 2034 4250 
Q 1547 4250 1301 3770 
Q 1056 3291 1056 2328 
Q 1056 1369 1301 889 
Q 1547 409 2034 409 
Q 2525 409 2770 889 
Q 3016 1369 3016 2328 
Q 3016 3291 2770 3770 
Q 2525 4250 2034 4250 
z
M 2034 4750 
Q 2819 4750 3233 4129 
Q 3647 3509 3647 2328 
Q 3647 1150 3233 529 
Q 2819 -91 2034 -91 
Q 1250 -91 836 529 
Q 422 1150 422 2328 
Q 422 3509 836 4129 
Q 1250 4750 2034 4750 
z
" transform="scale(0.015625)"/>
       </defs>
       <use xlink:href="#DejaVuSans-30"/>
      </g>
     </g>
    </g>
    <g id="xtick_2">
     <g id="line2d_2">
      <g>
       <use xlink:href="#mdc18abb0bf" x="127.941818" y="307.584" style="stroke: #000000; stroke-width: 0.8"/>
      </g>
     </g>
     <g id="text_2">
      <!-- 500 -->
      <g transform="translate(118.398068 322.182437) scale(0.1 -0.1)">
       <defs>
        <path id="DejaVuSans-35" d="M 691 4666 
L 3169 4666 
L 3169 4134 
L 1269 4134 
L 1269 2991 
Q 1406 3038 1543 3061 
Q 1681 3084 1819 3084 
Q 2600 3084 3056 2656 
Q 3513 2228 3513 1497 
Q 3513 744 3044 326 
Q 2575 -91 1722 -91 
Q 1428 -91 1123 -41 
Q 819 9 494 109 
L 494 744 
Q 775 591 1075 516 
Q 1375 441 1709 441 
Q 2250 441 2565 725 
Q 2881 1009 2881 1497 
Q 2881 1984 2565 2268 
Q 2250 2553 1709 2553 
Q 1456 2553 1204 2497 
Q 953 2441 691 2322 
L 691 4666 
z
" transform="scale(0.015625)"/>
       </defs>
       <use xlink:href="#DejaVuSans-35"/>
       <use xlink:href="#DejaVuSans-30" x="63.623047"/>
       <use xlink:href="#DejaVuSans-30" x="127.246094"/>
      </g>
     </g>
    </g>
    <g id="xtick_3">
     <g id="line2d_3">
      <g>
       <use xlink:href="#mdc18abb0bf" x="182.050909" y="307.584" style="stroke: #000000; stroke-width: 0.8"/>
      </g>
     </g>
     <g id="text_3">
      <!-- 1000 -->
      <g transform="translate(169.325909 322.182437) scale(0.1 -0.1)">
       <defs>
        <path id="DejaVuSans-31" d="M 794 531 
L 1825 531 
L 1825 4091 
L 703 3866 
L 703 4441 
L 1819 4666 
L 2450 4666 
L 2450 531 
L 3481 531 
L 3481 0 
L 794 0 
L 794 531 
z
" transform="scale(0.015625)"/>
       </defs>
       <use xlink:href="#DejaVuSans-31"/>
       <use xlink:href="#DejaVuSans-30" x="63.623047"/>
       <use xlink:href="#DejaVuSans-30" x="127.246094"/>
       <use xlink:href="#DejaVuSans-30" x="190.869141"/>
      </g>
     </g>
    </g>
    <g id="xtick_4">
     <g id="line2d_4">
      <g>
       <use xlink:href="#mdc18abb0bf" x="236.16" y="307.584" style="stroke: #000000; stroke-width: 0.8"/>
      </g>
     </g>
     <g id="text_4">
      <!-- 1500 -->
      <g transform="translate(223.435 322.182437) scale(0.1 -0.1)">
       <use xlink:href="#DejaVuSans-31"/>
       <use xlink:href="#DejaVuSans-35" x="63.623047"/>
       <use xlink:href="#DejaVuSans-30" x="127.246094"/>
       <use xlink:href="#DejaVuSans-30" x="190.869141"/>
      </g>
     </g>
    </g>
    <g id="xtick_5">
     <g id="line2d_5">
      <g>
       <use xlink:href="#mdc18abb0bf" x="290.269091" y="307.584" style="stroke: #000000; stroke-width: 0.8"/>
      </g>
     </g>
     <g id="text_5">
      <!-- 2000 -->
      <g transform="translate(277.544091 322.182437) scale(0.1 -0.1)">
       <defs>
        <path id="DejaVuSans-32" d="M 1228 531 
L 3431 531 
L 3431 0 
L 469 0 
L 469 531 
Q 828 903 1448 1529 
Q 2069 2156 2228 2338 
Q 2531 2678 2651 2914 
Q 2772 3150 2772 3378 
Q 2772 3750 2511 3984 
Q 2250 4219 1831 4219 
Q 1534 4219 1204 4116 
Q 875 4013 500 3803 
L 500 4441 
Q 881 4594 1212 4672 
Q 1544 4750 1819 4750 
Q 2544 4750 2975 4387 
Q 3406 4025 3406 3419 
Q 3406 3131 3298 2873 
Q 3191 2616 2906 2266 
Q 2828 2175 2409 1742 
Q 1991 1309 1228 531 
z
" transform="scale(0.015625)"/>
       </defs>
       <use xlink:href="#DejaVuSans-32"/>
       <use xlink:href="#DejaVuSans-30" x="63.623047"/>
       <use xlink:href="#DejaVuSans-30" x="127.246094"/>
       <use xlink:href="#DejaVuSans-30" x="190.869141"/>
      </g>
     </g>
    </g>
    <g id="xtick_6">
     <g id="line2d_6">
      <g>
       <use xlink:href="#mdc18abb0bf" x="344.378182" y="307.584" style="stroke: #000000; stroke-width: 0.8"/>
      </g>
     </g>
     <g id="text_6">
      <!-- 2500 -->
      <g transform="translate(331.653182 322.182437) scale(0.1 -0.1)">
       <use xlink:href="#DejaVuSans-32"/>
       <use xlink:href="#DejaVuSans-35" x="63.623047"/>
       <use xlink:href="#DejaVuSans-30" x="127.246094"/>
       <use xlink:href="#DejaVuSans-30" x="190.869141"/>
      </g>
     </g>
    </g>
    <g id="xtick_7">
     <g id="line2d_7">
      <g>
       <use xlink:href="#mdc18abb0bf" x="398.487273" y="307.584" style="stroke: #000000; stroke-width: 0.8"/>
      </g>
     </g>
     <g id="text_7">
      <!-- 3000 -->
      <g transform="translate(385.762273 322.182437) scale(0.1 -0.1)">
       <defs>
        <path id="DejaVuSans-33" d="M 2597 2516 
Q 3050 2419 3304 2112 
Q 3559 1806 3559 1356 
Q 3559 666 3084 287 
Q 2609 -91 1734 -91 
Q 1441 -91 1130 -33 
Q 819 25 488 141 
L 488 750 
Q 750 597 1062 519 
Q 1375 441 1716 441 
Q 2309 441 2620 675 
Q 2931 909 2931 1356 
Q 2931 1769 2642 2001 
Q 2353 2234 1838 2234 
L 1294 2234 
L 1294 2753 
L 1863 2753 
Q 2328 2753 2575 2939 
Q 2822 3125 2822 3475 
Q 2822 3834 2567 4026 
Q 2313 4219 1838 4219 
Q 1578 4219 1281 4162 
Q 984 4106 628 3988 
L 628 4550 
Q 988 4650 1302 4700 
Q 1616 4750 1894 4750 
Q 2613 4750 3031 4423 
Q 3450 4097 3450 3541 
Q 3450 3153 3228 2886 
Q 3006 2619 2597 2516 
z
" transform="scale(0.015625)"/>
       </defs>
       <use xlink:href="#DejaVuSans-33"/>
       <use xlink:href="#DejaVuSans-30" x="63.623047"/>
       <use xlink:href="#DejaVuSans-30" x="127.246094"/>
       <use xlink:href="#DejaVuSans-30" x="190.869141"/>
      </g>
     </g>
    </g>
    <g id="text_8">
     <!-- Time(ms) -->
     <g transform="translate(212.549844 335.860562) scale(0.1 -0.1)">
      <defs>
       <path id="DejaVuSans-54" d="M -19 4666 
L 3928 4666 
L 3928 4134 
L 2272 4134 
L 2272 0 
L 1638 0 
L 1638 4134 
L -19 4134 
L -19 4666 
z
" transform="scale(0.015625)"/>
       <path id="DejaVuSans-69" d="M 603 3500 
L 1178 3500 
L 1178 0 
L 603 0 
L 603 3500 
z
M 603 4863 
L 1178 4863 
L 1178 4134 
L 603 4134 
L 603 4863 
z
" transform="scale(0.015625)"/>
       <path id="DejaVuSans-6d" d="M 3328 2828 
Q 3544 3216 3844 3400 
Q 4144 3584 4550 3584 
Q 5097 3584 5394 3201 
Q 5691 2819 5691 2113 
L 5691 0 
L 5113 0 
L 5113 2094 
Q 5113 2597 4934 2840 
Q 4756 3084 4391 3084 
Q 3944 3084 3684 2787 
Q 3425 2491 3425 1978 
L 3425 0 
L 2847 0 
L 2847 2094 
Q 2847 2600 2669 2842 
Q 2491 3084 2119 3084 
Q 1678 3084 1418 2786 
Q 1159 2488 1159 1978 
L 1159 0 
L 581 0 
L 581 3500 
L 1159 3500 
L 1159 2956 
Q 1356 3278 1631 3431 
Q 1906 3584 2284 3584 
Q 2666 3584 2933 3390 
Q 3200 3197 3328 2828 
z
" transform="scale(0.015625)"/>
       <path id="DejaVuSans-65" d="M 3597 1894 
L 3597 1613 
L 953 1613 
Q 991 1019 1311 708 
Q 1631 397 2203 397 
Q 2534 397 2845 478 
Q 3156 559 3463 722 
L 3463 178 
Q 3153 47 2828 -22 
Q 2503 -91 2169 -91 
Q 1331 -91 842 396 
Q 353 884 353 1716 
Q 353 2575 817 3079 
Q 1281 3584 2069 3584 
Q 2775 3584 3186 3129 
Q 3597 2675 3597 1894 
z
M 3022 2063 
Q 3016 2534 2758 2815 
Q 2500 3097 2075 3097 
Q 1594 3097 1305 2825 
Q 1016 2553 972 2059 
L 3022 2063 
z
" transform="scale(0.015625)"/>
       <path id="DejaVuSans-28" d="M 1984 4856 
Q 1566 4138 1362 3434 
Q 1159 2731 1159 2009 
Q 1159 1288 1364 580 
Q 1569 -128 1984 -844 
L 1484 -844 
Q 1016 -109 783 600 
Q 550 1309 550 2009 
Q 550 2706 781 3412 
Q 1013 4119 1484 4856 
L 1984 4856 
z
" transform="scale(0.015625)"/>
       <path id="DejaVuSans-73" d="M 2834 3397 
L 2834 2853 
Q 2591 2978 2328 3040 
Q 2066 3103 1784 3103 
Q 1356 3103 1142 2972 
Q 928 2841 928 2578 
Q 928 2378 1081 2264 
Q 1234 2150 1697 2047 
L 1894 2003 
Q 2506 1872 2764 1633 
Q 3022 1394 3022 966 
Q 3022 478 2636 193 
Q 2250 -91 1575 -91 
Q 1294 -91 989 -36 
Q 684 19 347 128 
L 347 722 
Q 666 556 975 473 
Q 1284 391 1588 391 
Q 1994 391 2212 530 
Q 2431 669 2431 922 
Q 2431 1156 2273 1281 
Q 2116 1406 1581 1522 
L 1381 1569 
Q 847 1681 609 1914 
Q 372 2147 372 2553 
Q 372 3047 722 3315 
Q 1072 3584 1716 3584 
Q 2034 3584 2315 3537 
Q 2597 3491 2834 3397 
z
" transform="scale(0.015625)"/>
       <path id="DejaVuSans-29" d="M 513 4856 
L 1013 4856 
Q 1481 4119 1714 3412 
Q 1947 2706 1947 2009 
Q 1947 1309 1714 600 
Q 1481 -109 1013 -844 
L 513 -844 
Q 928 -128 1133 580 
Q 1338 1288 1338 2009 
Q 1338 2731 1133 3434 
Q 928 4138 513 4856 
z
" transform="scale(0.015625)"/>
      </defs>
      <use xlink:href="#DejaVuSans-54"/>
      <use xlink:href="#DejaVuSans-69" x="57.958984"/>
      <use xlink:href="#DejaVuSans-6d" x="85.742188"/>
      <use xlink:href="#DejaVuSans-65" x="183.154297"/>
      <use xlink:href="#DejaVuSans-28" x="244.677734"/>
      <use xlink:href="#DejaVuSans-6d" x="283.691406"/>
      <use xlink:href="#DejaVuSans-73" x="381.103516"/>
      <use xlink:href="#DejaVuSans-29" x="433.203125"/>
     </g>
    </g>
   </g>
   <g id="matplotlib.axis_2">
    <g id="ytick_1">
     <g id="line2d_8">
      <defs>
       <path id="mc513d1c57a" d="M 0 0 
L -3.5 0 
" style="stroke: #000000; stroke-width: 0.8"/>
      </defs>
      <g>
       <use xlink:href="#mc513d1c57a" x="57.6" y="307.584" style="stroke: #000000; stroke-width: 0.8"/>
      </g>
     </g>
     <g id="text_9">
      <!-- −100 -->
      <g transform="translate(23.132812 311.383219) scale(0.1 -0.1)">
       <defs>
        <path id="DejaVuSans-2212" d="M 678 2272 
L 4684 2272 
L 4684 1741 
L 678 1741 
L 678 2272 
z
" transform="scale(0.015625)"/>
       </defs>
       <use xlink:href="#DejaVuSans-2212"/>
       <use xlink:href="#DejaVuSans-31" x="83.789062"/>
       <use xlink:href="#DejaVuSans-30" x="147.412109"/>
       <use xlink:href="#DejaVuSans-30" x="211.035156"/>
      </g>
     </g>
    </g>
    <g id="ytick_2">
     <g id="line2d_9">
      <g>
       <use xlink:href="#mc513d1c57a" x="57.6" y="269.568" style="stroke: #000000; stroke-width: 0.8"/>
      </g>
     </g>
     <g id="text_10">
      <!-- −80 -->
      <g transform="translate(29.495313 273.367219) scale(0.1 -0.1)">
       <defs>
        <path id="DejaVuSans-38" d="M 2034 2216 
Q 1584 2216 1326 1975 
Q 1069 1734 1069 1313 
Q 1069 891 1326 650 
Q 1584 409 2034 409 
Q 2484 409 2743 651 
Q 3003 894 3003 1313 
Q 3003 1734 2745 1975 
Q 2488 2216 2034 2216 
z
M 1403 2484 
Q 997 2584 770 2862 
Q 544 3141 544 3541 
Q 544 4100 942 4425 
Q 1341 4750 2034 4750 
Q 2731 4750 3128 4425 
Q 3525 4100 3525 3541 
Q 3525 3141 3298 2862 
Q 3072 2584 2669 2484 
Q 3125 2378 3379 2068 
Q 3634 1759 3634 1313 
Q 3634 634 3220 271 
Q 2806 -91 2034 -91 
Q 1263 -91 848 271 
Q 434 634 434 1313 
Q 434 1759 690 2068 
Q 947 2378 1403 2484 
z
M 1172 3481 
Q 1172 3119 1398 2916 
Q 1625 2713 2034 2713 
Q 2441 2713 2670 2916 
Q 2900 3119 2900 3481 
Q 2900 3844 2670 4047 
Q 2441 4250 2034 4250 
Q 1625 4250 1398 4047 
Q 1172 3844 1172 3481 
z
" transform="scale(0.015625)"/>
       </defs>
       <use xlink:href="#DejaVuSans-2212"/>
       <use xlink:href="#DejaVuSans-38" x="83.789062"/>
       <use xlink:href="#DejaVuSans-30" x="147.412109"/>
      </g>
     </g>
    </g>
    <g id="ytick_3">
     <g id="line2d_10">
      <g>
       <use xlink:href="#mc513d1c57a" x="57.6" y="231.552" style="stroke: #000000; stroke-width: 0.8"/>
      </g>
     </g>
     <g id="text_11">
      <!-- −60 -->
      <g transform="translate(29.495313 235.351219) scale(0.1 -0.1)">
       <defs>
        <path id="DejaVuSans-36" d="M 2113 2584 
Q 1688 2584 1439 2293 
Q 1191 2003 1191 1497 
Q 1191 994 1439 701 
Q 1688 409 2113 409 
Q 2538 409 2786 701 
Q 3034 994 3034 1497 
Q 3034 2003 2786 2293 
Q 2538 2584 2113 2584 
z
M 3366 4563 
L 3366 3988 
Q 3128 4100 2886 4159 
Q 2644 4219 2406 4219 
Q 1781 4219 1451 3797 
Q 1122 3375 1075 2522 
Q 1259 2794 1537 2939 
Q 1816 3084 2150 3084 
Q 2853 3084 3261 2657 
Q 3669 2231 3669 1497 
Q 3669 778 3244 343 
Q 2819 -91 2113 -91 
Q 1303 -91 875 529 
Q 447 1150 447 2328 
Q 447 3434 972 4092 
Q 1497 4750 2381 4750 
Q 2619 4750 2861 4703 
Q 3103 4656 3366 4563 
z
" transform="scale(0.015625)"/>
       </defs>
       <use xlink:href="#DejaVuSans-2212"/>
       <use xlink:href="#DejaVuSans-36" x="83.789062"/>
       <use xlink:href="#DejaVuSans-30" x="147.412109"/>
      </g>
     </g>
    </g>
    <g id="ytick_4">
     <g id="line2d_11">
      <g>
       <use xlink:href="#mc513d1c57a" x="57.6" y="193.536" style="stroke: #000000; stroke-width: 0.8"/>
      </g>
     </g>
     <g id="text_12">
      <!-- −40 -->
      <g transform="translate(29.495313 197.335219) scale(0.1 -0.1)">
       <defs>
        <path id="DejaVuSans-34" d="M 2419 4116 
L 825 1625 
L 2419 1625 
L 2419 4116 
z
M 2253 4666 
L 3047 4666 
L 3047 1625 
L 3713 1625 
L 3713 1100 
L 3047 1100 
L 3047 0 
L 2419 0 
L 2419 1100 
L 313 1100 
L 313 1709 
L 2253 4666 
z
" transform="scale(0.015625)"/>
       </defs>
       <use xlink:href="#DejaVuSans-2212"/>
       <use xlink:href="#DejaVuSans-34" x="83.789062"/>
       <use xlink:href="#DejaVuSans-30" x="147.412109"/>
      </g>
     </g>
    </g>
    <g id="ytick_5">
     <g id="line2d_12">
      <g>
       <use xlink:href="#mc513d1c57a" x="57.6" y="155.52" style="stroke: #000000; stroke-width: 0.8"/>
      </g>
     </g>
     <g id="text_13">
      <!-- −20 -->
      <g transform="translate(29.495313 159.319219) scale(0.1 -0.1)">
       <use xlink:href="#DejaVuSans-2212"/>
       <use xlink:href="#DejaVuSans-32" x="83.789062"/>
       <use xlink:href="#DejaVuSans-30" x="147.412109"/>
      </g>
     </g>
    </g>
    <g id="ytick_6">
     <g id="line2d_13">
      <g>
       <use xlink:href="#mc513d1c57a" x="57.6" y="117.504" style="stroke: #000000; stroke-width: 0.8"/>
      </g>
     </g>
     <g id="text_14">
      <!-- 0 -->
      <g transform="translate(44.2375 121.303219) scale(0.1 -0.1)">
       <use xlink:href="#DejaVuSans-30"/>
      </g>
     </g>
    </g>
    <g id="ytick_7">
     <g id="line2d_14">
      <g>
       <use xlink:href="#mc513d1c57a" x="57.6" y="79.488" style="stroke: #000000; stroke-width: 0.8"/>
      </g>
     </g>
     <g id="text_15">
      <!-- 20 -->
      <g transform="translate(37.875 83.287219) scale(0.1 -0.1)">
       <use xlink:href="#DejaVuSans-32"/>
       <use xlink:href="#DejaVuSans-30" x="63.623047"/>
      </g>
     </g>
    </g>
    <g id="ytick_8">
     <g id="line2d_15">
      <g>
       <use xlink:href="#mc513d1c57a" x="57.6" y="41.472" style="stroke: #000000; stroke-width: 0.8"/>
      </g>
     </g>
     <g id="text_16">
      <!-- 40 -->
      <g transform="translate(37.875 45.271219) scale(0.1 -0.1)">
       <use xlink:href="#DejaVuSans-34"/>
       <use xlink:href="#DejaVuSans-30" x="63.623047"/>
      </g>
     </g>
    </g>
    <g id="text_17">
     <!-- Membrane potential (mV) -->
     <g transform="translate(17.053125 238.939719) rotate(-90) scale(0.1 -0.1)">
      <defs>
       <path id="DejaVuSans-4d" d="M 628 4666 
L 1569 4666 
L 2759 1491 
L 3956 4666 
L 4897 4666 
L 4897 0 
L 4281 0 
L 4281 4097 
L 3078 897 
L 2444 897 
L 1241 4097 
L 1241 0 
L 628 0 
L 628 4666 
z
" transform="scale(0.015625)"/>
       <path id="DejaVuSans-62" d="M 3116 1747 
Q 3116 2381 2855 2742 
Q 2594 3103 2138 3103 
Q 1681 3103 1420 2742 
Q 1159 2381 1159 1747 
Q 1159 1113 1420 752 
Q 1681 391 2138 391 
Q 2594 391 2855 752 
Q 3116 1113 3116 1747 
z
M 1159 2969 
Q 1341 3281 1617 3432 
Q 1894 3584 2278 3584 
Q 2916 3584 3314 3078 
Q 3713 2572 3713 1747 
Q 3713 922 3314 415 
Q 2916 -91 2278 -91 
Q 1894 -91 1617 61 
Q 1341 213 1159 525 
L 1159 0 
L 581 0 
L 581 4863 
L 1159 4863 
L 1159 2969 
z
" transform="scale(0.015625)"/>
       <path id="DejaVuSans-72" d="M 2631 2963 
Q 2534 3019 2420 3045 
Q 2306 3072 2169 3072 
Q 1681 3072 1420 2755 
Q 1159 2438 1159 1844 
L 1159 0 
L 581 0 
L 581 3500 
L 1159 3500 
L 1159 2956 
Q 1341 3275 1631 3429 
Q 1922 3584 2338 3584 
Q 2397 3584 2469 3576 
Q 2541 3569 2628 3553 
L 2631 2963 
z
" transform="scale(0.015625)"/>
       <path id="DejaVuSans-61" d="M 2194 1759 
Q 1497 1759 1228 1600 
Q 959 1441 959 1056 
Q 959 750 1161 570 
Q 1363 391 1709 391 
Q 2188 391 2477 730 
Q 2766 1069 2766 1631 
L 2766 1759 
L 2194 1759 
z
M 3341 1997 
L 3341 0 
L 2766 0 
L 2766 531 
Q 2569 213 2275 61 
Q 1981 -91 1556 -91 
Q 1019 -91 701 211 
Q 384 513 384 1019 
Q 384 1609 779 1909 
Q 1175 2209 1959 2209 
L 2766 2209 
L 2766 2266 
Q 2766 2663 2505 2880 
Q 2244 3097 1772 3097 
Q 1472 3097 1187 3025 
Q 903 2953 641 2809 
L 641 3341 
Q 956 3463 1253 3523 
Q 1550 3584 1831 3584 
Q 2591 3584 2966 3190 
Q 3341 2797 3341 1997 
z
" transform="scale(0.015625)"/>
       <path id="DejaVuSans-6e" d="M 3513 2113 
L 3513 0 
L 2938 0 
L 2938 2094 
Q 2938 2591 2744 2837 
Q 2550 3084 2163 3084 
Q 1697 3084 1428 2787 
Q 1159 2491 1159 1978 
L 1159 0 
L 581 0 
L 581 3500 
L 1159 3500 
L 1159 2956 
Q 1366 3272 1645 3428 
Q 1925 3584 2291 3584 
Q 2894 3584 3203 3211 
Q 3513 2838 3513 2113 
z
" transform="scale(0.015625)"/>
       <path id="DejaVuSans-20" transform="scale(0.015625)"/>
       <path id="DejaVuSans-70" d="M 1159 525 
L 1159 -1331 
L 581 -1331 
L 581 3500 
L 1159 3500 
L 1159 2969 
Q 1341 3281 1617 3432 
Q 1894 3584 2278 3584 
Q 2916 3584 3314 3078 
Q 3713 2572 3713 1747 
Q 3713 922 3314 415 
Q 2916 -91 2278 -91 
Q 1894 -91 1617 61 
Q 1341 213 1159 525 
z
M 3116 1747 
Q 3116 2381 2855 2742 
Q 2594 3103 2138 3103 
Q 1681 3103 1420 2742 
Q 1159 2381 1159 1747 
Q 1159 1113 1420 752 
Q 1681 391 2138 391 
Q 2594 391 2855 752 
Q 3116 1113 3116 1747 
z
" transform="scale(0.015625)"/>
       <path id="DejaVuSans-6f" d="M 1959 3097 
Q 1497 3097 1228 2736 
Q 959 2375 959 1747 
Q 959 1119 1226 758 
Q 1494 397 1959 397 
Q 2419 397 2687 759 
Q 2956 1122 2956 1747 
Q 2956 2369 2687 2733 
Q 2419 3097 1959 3097 
z
M 1959 3584 
Q 2709 3584 3137 3096 
Q 3566 2609 3566 1747 
Q 3566 888 3137 398 
Q 2709 -91 1959 -91 
Q 1206 -91 779 398 
Q 353 888 353 1747 
Q 353 2609 779 3096 
Q 1206 3584 1959 3584 
z
" transform="scale(0.015625)"/>
       <path id="DejaVuSans-74" d="M 1172 4494 
L 1172 3500 
L 2356 3500 
L 2356 3053 
L 1172 3053 
L 1172 1153 
Q 1172 725 1289 603 
Q 1406 481 1766 481 
L 2356 481 
L 2356 0 
L 1766 0 
Q 1100 0 847 248 
Q 594 497 594 1153 
L 594 3053 
L 172 3053 
L 172 3500 
L 594 3500 
L 594 4494 
L 1172 4494 
z
" transform="scale(0.015625)"/>
       <path id="DejaVuSans-6c" d="M 603 4863 
L 1178 4863 
L 1178 0 
L 603 0 
L 603 4863 
z
" transform="scale(0.015625)"/>
       <path id="DejaVuSans-56" d="M 1831 0 
L 50 4666 
L 709 4666 
L 2188 738 
L 3669 4666 
L 4325 4666 
L 2547 0 
L 1831 0 
z
" transform="scale(0.015625)"/>
      </defs>
      <use xlink:href="#DejaVuSans-4d"/>
      <use xlink:href="#DejaVuSans-65" x="86.279297"/>
      <use xlink:href="#DejaVuSans-6d" x="147.802734"/>
      <use xlink:href="#DejaVuSans-62" x="245.214844"/>
      <use xlink:href="#DejaVuSans-72" x="308.691406"/>
      <use xlink:href="#DejaVuSans-61" x="349.804688"/>
      <use xlink:href="#DejaVuSans-6e" x="411.083984"/>
      <use xlink:href="#DejaVuSans-65" x="474.462891"/>
      <use xlink:href="#DejaVuSans-20" x="535.986328"/>
      <use xlink:href="#DejaVuSans-70" x="567.773438"/>
      <use xlink:href="#DejaVuSans-6f" x="631.25"/>
      <use xlink:href="#DejaVuSans-74" x="692.431641"/>
      <use xlink:href="#DejaVuSans-65" x="731.640625"/>
      <use xlink:href="#DejaVuSans-6e" x="793.164062"/>
      <use xlink:href="#DejaVuSans-74" x="856.542969"/>
      <use xlink:href="#DejaVuSans-69" x="895.751953"/>
      <use xlink:href="#DejaVuSans-61" x="923.535156"/>
      <use xlink:href="#DejaVuSans-6c" x="984.814453"/>
      <use xlink:href="#DejaVuSans-20" x="1012.597656"/>
      <use xlink:href="#DejaVuSans-28" x="1044.384766"/>
      <use xlink:href="#DejaVuSans-6d" x="1083.398438"/>
      <use xlink:href="#DejaVuSans-56" x="1180.810547"/>
      <use xlink:href="#DejaVuSans-29" x="1249.21875"/>
     </g>
    </g>
   </g>
   <g id="line2d_16">
    <path d="M 73.832727 280.9728 
L 74.000465 283.612333 
L 74.108684 284.162318 
L 74.165498 284.091931 
L 74.338647 283.913229 
L 74.368407 283.937296 
L 74.522618 284.269742 
L 75.120524 285.718548 
L 75.326138 285.552081 
L 75.688669 284.264053 
L 76.067433 280.991243 
L 76.362327 279.389139 
L 76.492189 279.305602 
L 76.519244 279.325129 
L 76.673455 279.621974 
L 76.962938 280.107574 
L 77.125265 280.000623 
L 77.382284 279.498789 
L 77.593309 279.217429 
L 77.596015 279.218369 
L 77.728582 279.386998 
L 77.950429 279.728827 
L 77.991011 279.689289 
L 78.913571 277.772579 
L 79.20576 275.480984 
L 79.346444 275.464647 
L 79.405964 275.373774 
L 79.543942 274.495538 
L 80.147258 270.066219 
L 80.239244 270.002978 
L 80.279825 270.046057 
L 80.569309 270.299004 
L 80.726225 270.401221 
L 80.880436 270.735034 
L 81.156393 272.059028 
L 81.881455 275.09464 
L 82.043782 275.106964 
L 82.18176 274.850893 
L 82.427956 274.526598 
L 82.444189 274.534834 
L 82.495593 274.524145 
L 82.519942 274.455761 
L 82.676858 273.396824 
L 82.939287 272.170888 
L 83.082676 271.862074 
L 83.374865 270.960089 
L 83.556131 270.931692 
L 83.710342 271.164927 
L 84.162153 271.993949 
L 84.470575 272.906054 
L 85.179404 275.442058 
L 85.225396 275.447613 
L 85.265978 275.378652 
L 85.401251 274.695534 
L 85.677207 273.727233 
L 85.934225 273.466255 
L 86.099258 273.455147 
L 86.177716 273.305652 
L 86.505076 272.509618 
L 86.545658 272.538846 
L 86.686342 272.862967 
L 86.959593 274.182511 
L 87.308596 275.589685 
L 87.454691 275.696576 
L 87.47904 275.678049 
L 87.733353 275.278282 
L 88.363724 271.81941 
L 88.534167 271.746942 
L 88.539578 271.750743 
L 88.674851 271.991504 
L 88.90752 272.974479 
L 89.62176 276.227847 
L 90.024873 276.387515 
L 90.227782 276.910599 
L 91.667084 281.794993 
L 91.721193 281.737471 
L 91.826705 281.333496 
L 92.175709 280.064574 
L 92.494953 279.730033 
L 92.654575 279.913624 
L 93.182138 280.747646 
L 93.203782 280.703835 
L 93.295767 279.931061 
L 93.647476 277.265196 
L 93.950487 276.461156 
L 94.26432 276.475047 
L 94.426647 276.62435 
L 94.456407 276.461026 
L 94.8 274.383755 
L 94.818938 274.391164 
L 94.924451 274.595388 
L 95.370851 275.761321 
L 95.408727 275.725011 
L 95.508829 275.320296 
L 95.922764 273.708482 
L 96.063447 273.336148 
L 96.385396 272.357562 
L 96.626182 272.19473 
L 96.710051 271.928358 
L 96.812858 270.221016 
L 97.048233 268.188381 
L 97.115869 268.133454 
L 97.164567 268.192754 
L 97.297135 268.557995 
L 97.375593 268.368919 
L 97.494633 268.183252 
L 97.53792 268.228939 
L 97.684015 268.260342 
L 97.778705 268.148493 
L 97.976204 267.297755 
L 98.273804 262.816181 
L 98.630924 261.581419 
L 98.69856 261.646692 
L 98.852771 262.056835 
L 99.117905 263.641284 
L 99.542662 266.499904 
L 99.964713 269.130581 
L 100.099985 269.480296 
L 100.154095 269.377111 
L 100.332655 269.114459 
L 100.362415 269.136166 
L 100.492276 269.436866 
L 100.949498 270.527252 
L 101.13888 270.857733 
L 101.520349 272.302852 
L 102.226473 275.260661 
L 102.250822 275.249038 
L 102.632291 275.127681 
L 102.916364 275.505258 
L 103.395229 276.66386 
L 103.470982 276.52471 
L 103.671185 275.632184 
L 103.976902 273.070016 
L 104.390836 267.669409 
L 104.56128 267.148621 
L 104.577513 267.153247 
L 104.766895 267.189665 
L 104.788538 267.111662 
L 105.004975 265.618462 
L 105.456785 263.476908 
L 105.565004 263.536815 
L 105.719215 264.0322 
L 105.96 264.652262 
L 106.011404 264.619436 
L 106.154793 264.647301 
L 106.171025 264.649178 
L 106.19808 264.544288 
L 106.4064 262.473388 
L 106.693178 260.748646 
L 106.760815 260.716077 
L 106.806807 260.775445 
L 107.004305 261.415694 
L 107.691491 264.170725 
L 108.062138 266.326529 
L 108.262342 266.896435 
L 108.424669 267.12358 
L 108.627578 267.948464 
L 108.925178 269.3148 
L 108.981993 269.27019 
L 109.339113 268.694147 
L 110.237324 264.759721 
L 110.624204 263.372602 
L 111.219404 261.528211 
L 111.365498 261.362542 
L 111.397964 261.388858 
L 111.527825 261.720103 
L 111.706385 262.098935 
L 111.741556 262.075329 
L 111.966109 262.010465 
L 112.131142 262.015711 
L 112.296175 262.047376 
L 112.542371 262.317551 
L 113.156509 264.286092 
L 113.597498 267.034943 
L 113.713833 266.732288 
L 113.919447 266.346867 
L 113.93568 266.354884 
L 114.003316 266.387134 
L 114.038487 266.29537 
L 114.238691 265.73253 
L 114.290095 265.791129 
L 114.425367 266.323084 
L 114.741905 268.718554 
L 114.904233 269.721679 
L 114.939404 269.473986 
L 115.301935 266.427232 
L 115.477789 266.359558 
L 115.591418 266.564261 
L 115.69152 266.83356 
L 115.740218 266.660686 
L 115.986415 265.324778 
L 116.043229 265.406864 
L 116.189324 266.107485 
L 116.340829 266.728084 
L 116.392233 266.683321 
L 116.562676 266.652351 
L 116.684422 266.904135 
L 116.895447 267.996972 
L 117.23904 269.555472 
L 117.404073 269.90235 
L 117.469004 269.77008 
L 117.734138 268.446619 
L 118.064204 267.184322 
L 118.258996 266.982728 
L 118.277935 266.995457 
L 118.407796 267.252598 
L 118.643171 268.333735 
L 118.932655 269.380718 
L 118.981353 269.279848 
L 119.333062 266.85624 
L 119.389876 266.918927 
L 119.53056 267.455867 
L 119.701004 267.765605 
L 119.971549 268.357192 
L 120.060829 268.218814 
L 120.347607 267.861817 
L 120.634385 267.780326 
L 120.656029 267.828048 
L 120.850822 268.584633 
L 121.19712 270.024028 
L 121.237702 270.013147 
L 121.529891 270.057973 
L 121.692218 270.447078 
L 122.658065 274.20652 
L 123.410182 277.938484 
L 123.57792 278.083148 
L 123.610385 278.034646 
L 123.767302 277.37001 
L 124.116305 276.326022 
L 124.297571 275.13616 
L 124.8576 270.007713 
L 125.079447 269.35568 
L 125.179549 269.461269 
L 125.360815 270.09521 
L 125.444684 270.255313 
L 125.501498 270.212903 
L 125.677353 270.181077 
L 125.682764 270.186987 
L 125.831564 270.529116 
L 127.086895 275.209474 
L 127.362851 276.706021 
L 127.419665 276.466769 
L 127.955345 273.351832 
L 128.093324 272.955546 
L 128.453149 271.639336 
L 128.474793 271.649145 
L 128.596538 271.867196 
L 129.302662 273.52778 
L 129.400058 273.383554 
L 129.843753 272.292271 
L 130.052073 272.219341 
L 130.300975 272.127495 
L 130.463302 271.584097 
L 130.923229 269.672043 
L 131.031447 269.778819 
L 131.458909 270.555419 
L 131.76192 271.967579 
L 131.916131 272.436785 
L 131.954007 272.389309 
L 132.303011 271.306186 
L 132.633076 269.567683 
L 132.971258 267.95439 
L 133.07136 268.001424 
L 133.079476 268.014574 
L 133.241804 268.515611 
L 133.69632 269.988948 
L 133.839709 270.233522 
L 134.269876 271.088788 
L 134.437615 271.520619 
L 135.200553 274.423556 
L 135.279011 274.215193 
L 135.606371 273.227353 
L 135.63072 273.240463 
L 135.752465 273.489112 
L 136.014895 274.678581 
L 136.169105 274.990577 
L 136.193455 274.981242 
L 136.436945 274.975924 
L 136.610095 275.373266 
L 136.742662 275.716453 
L 136.802182 275.620322 
L 137.11872 275.050499 
L 137.137658 275.060408 
L 137.281047 275.290865 
L 137.378444 275.528124 
L 137.429847 275.380325 
L 137.540771 274.338241 
L 137.841076 271.679118 
L 137.995287 271.55206 
L 138.016931 271.567236 
L 138.133265 271.624186 
L 138.171142 271.560844 
L 138.287476 271.02853 
L 138.639185 267.991649 
L 138.961135 265.494577 
L 139.353425 264.422857 
L 139.399418 264.46463 
L 139.610444 264.698892 
L 139.651025 264.640399 
L 139.802531 264.493492 
L 139.837702 264.527286 
L 139.989207 264.928572 
L 140.286807 266.315919 
L 140.754851 269.882373 
L 140.930705 270.431031 
L 141.249949 270.647456 
L 141.525905 270.681279 
L 141.677411 271.049378 
L 141.950662 272.429719 
L 142.353775 274.24199 
L 142.640553 274.749066 
L 142.656785 274.668444 
L 142.854284 271.56261 
L 143.078836 270.242371 
L 143.292567 269.971208 
L 143.311505 269.983167 
L 143.503593 270.036419 
L 143.519825 270.014326 
L 143.619927 269.703125 
L 143.836364 267.119408 
L 143.871535 267.114957 
L 143.914822 267.195906 
L 144.185367 268.269239 
L 144.534371 270.253824 
L 145.649018 277.348979 
L 145.65984 277.343712 
L 145.776175 277.108536 
L 145.995316 276.867111 
L 145.998022 276.868308 
L 146.136 277.056034 
L 146.227985 277.200826 
L 146.279389 277.103327 
L 146.852945 275.375372 
L 146.931404 275.446063 
L 147.115375 275.91521 
L 147.29664 276.46653 
L 147.348044 276.338609 
L 147.840436 273.66274 
L 147.994647 271.960765 
L 148.276015 269.750456 
L 148.354473 269.695664 
L 148.400465 269.746391 
L 148.581731 270.276136 
L 148.871215 271.257939 
L 148.952378 271.491219 
L 148.995665 271.317937 
L 149.306793 269.98852 
L 149.49888 269.989847 
L 149.769425 270.074486 
L 149.782953 270.032712 
L 149.853295 269.016525 
L 150.218531 264.100923 
L 150.375447 263.718984 
L 150.394385 263.724932 
L 150.462022 263.64021 
L 150.464727 263.632146 
L 150.794793 262.633918 
L 150.870545 262.742916 
L 151.495505 264.505667 
L 151.90944 265.787791 
L 152.120465 266.479091 
L 152.215156 266.200139 
L 152.350429 266.000492 
L 152.3856 266.028605 
L 152.512756 266.366546 
L 153.359564 270.16428 
L 153.624698 271.755302 
L 153.66528 271.455054 
L 153.979113 269.236795 
L 154.041338 269.208642 
L 154.087331 269.270698 
L 154.255069 269.872184 
L 154.658182 271.767251 
L 154.747462 271.630981 
L 155.372422 270.237228 
L 155.475229 270.314425 
L 155.642967 270.853333 
L 155.989265 272.888078 
L 156.300393 274.247328 
L 156.538473 274.820571 
L 157.501615 277.758183 
L 157.507025 277.755884 
L 157.566545 277.592366 
L 158.085993 274.725378 
L 158.361949 273.409548 
L 158.459345 273.405135 
L 158.4864 273.437128 
L 158.583796 273.465 
L 158.618967 273.432797 
L 158.748829 273.133183 
L 158.808349 272.608436 
L 159.576698 262.174979 
L 159.73632 261.587755 
L 159.760669 261.602592 
L 159.88512 261.908557 
L 159.979811 261.977649 
L 160.020393 261.947916 
L 160.30176 261.825313 
L 160.409978 261.994163 
L 160.834735 263.488301 
L 161.007884 264.034503 
L 161.051171 264.001874 
L 161.162095 263.711382 
L 161.346065 263.372135 
L 161.370415 263.386456 
L 161.608495 263.61397 
L 161.678836 263.521814 
L 162.100887 263.048052 
L 162.133353 263.083171 
L 162.761018 264.187076 
L 163.126255 264.972266 
L 163.261527 265.060132 
L 163.423855 265.552736 
L 163.751215 267.459263 
L 164.549324 271.511135 
L 164.576378 271.487915 
L 164.733295 271.039013 
L 164.930793 270.778048 
L 164.938909 270.781604 
L 165.06336 270.968932 
L 165.7776 273.014595 
L 166.029207 273.714466 
L 166.088727 273.699753 
L 166.10496 273.636154 
L 166.221295 272.180894 
L 166.562182 268.735557 
L 166.78944 268.143306 
L 166.794851 268.144795 
L 166.897658 268.299111 
L 167.287244 269.530693 
L 167.360291 269.211351 
L 167.541556 267.07389 
L 167.895971 263.118487 
L 168.106996 262.568716 
L 168.477644 261.828421 
L 168.531753 261.885552 
L 168.677847 262.349676 
L 169.037673 263.475411 
L 169.143185 263.717798 
L 169.462429 265.206697 
L 169.716742 266.894892 
L 169.787084 266.534092 
L 170.671767 260.667572 
L 170.742109 260.672748 
L 170.774575 260.722733 
L 170.915258 261.259544 
L 171.202036 263.453648 
L 171.737716 267.344588 
L 171.962269 268.762298 
L 172.481716 272.018998 
L 172.698153 272.500425 
L 173.055273 272.623022 
L 173.193251 272.668488 
L 173.42592 273.127719 
L 173.496262 272.909013 
L 174.094167 269.469689 
L 174.656902 264.551761 
L 174.946385 261.356362 
L 175.043782 261.208622 
L 175.089775 261.255614 
L 175.225047 261.712691 
L 175.471244 262.872027 
L 175.53888 262.685065 
L 175.766138 261.851915 
L 175.814836 261.905278 
L 175.947404 262.416381 
L 176.477673 265.952273 
L 177.2352 270.756517 
L 177.581498 272.096489 
L 177.857455 272.908534 
L 178.00896 272.9026 
L 178.230807 272.641877 
L 178.550051 271.643201 
L 178.5744 271.655907 
L 178.709673 271.906197 
L 179.096553 272.473647 
L 179.150662 272.404678 
L 179.813498 271.297777 
L 179.937949 271.367423 
L 180.086749 271.656384 
L 180.157091 271.501948 
L 180.368116 271.16891 
L 180.384349 271.176933 
L 180.5088 271.391918 
L 181.090473 272.975684 
L 181.16352 272.87182 
L 181.339375 272.105591 
L 181.547695 271.734652 
L 181.820945 271.862994 
L 182.067142 272.53718 
L 182.808436 275.174487 
L 182.965353 275.051353 
L 183.300829 275.028552 
L 183.644422 275.601032 
L 183.668771 275.469038 
L 184.415476 270.109003 
L 184.520989 269.279088 
L 184.886225 263.440347 
L 184.999855 263.160081 
L 185.040436 263.194352 
L 185.175709 263.576301 
L 185.421905 265.073333 
L 185.960291 268.347267 
L 186.225425 268.852949 
L 186.303884 268.68558 
L 186.412102 267.33048 
L 186.723229 264.101534 
L 186.812509 263.991859 
L 186.858502 264.040733 
L 186.99648 264.508065 
L 187.331956 265.578576 
L 188.00832 267.909742 
L 188.092189 267.534874 
L 188.687389 263.332607 
L 188.709033 263.341174 
L 188.825367 263.347053 
L 188.849716 263.304836 
L 189.033687 262.687841 
L 189.171665 261.809993 
L 189.542313 259.061478 
L 189.812858 258.328902 
L 189.904844 258.331832 
L 189.931898 258.364899 
L 190.348538 258.840517 
L 190.378298 258.80069 
L 190.513571 258.324464 
L 190.80576 257.352281 
L 190.9248 257.455992 
L 191.095244 257.990252 
L 191.235927 258.423747 
L 191.292742 258.374481 
L 191.54976 257.913852 
L 192.288349 248.907713 
L 192.342458 248.902956 
L 192.38304 248.967442 
L 192.585949 249.6509 
L 193.053993 251.37431 
L 193.273135 252.455542 
L 193.733062 254.708434 
L 193.895389 255.052638 
L 194.165935 255.96536 
L 194.220044 255.789264 
L 194.37696 254.051285 
L 194.890996 248.164604 
L 195.112844 247.504804 
L 195.223767 247.264087 
L 195.756742 244.725598 
L 195.92448 244.085283 
L 195.946124 244.09896 
L 196.04352 244.376515 
L 196.308655 246.074559 
L 196.822691 248.770203 
L 197.003956 249.034179 
L 197.285324 249.185566 
L 197.301556 249.154079 
L 197.393542 248.579843 
L 197.73984 244.378181 
L 197.945455 240.323502 
L 198.42432 232.131156 
L 198.713804 230.181451 
L 199.260305 226.414954 
L 199.606604 223.531305 
L 199.885265 221.435262 
L 200.212625 216.173694 
L 200.807825 206.405358 
L 201.051316 194.402437 
L 201.167651 176.314294 
L 201.232582 142.202731 
L 201.275869 177.073405 
L 201.438196 214.23426 
L 201.554531 216.970701 
L 201.589702 216.877925 
L 201.706036 215.730567 
L 202.030691 209.908467 
L 202.252538 198.27428 
L 202.339113 180.169234 
L 202.390516 88.438651 
L 202.455447 176.859997 
L 202.615069 229.003635 
L 202.73952 233.021833 
L 202.763869 232.98955 
L 203.042531 232.275519 
L 203.118284 232.375191 
L 203.269789 232.994541 
L 204.04896 236.986484 
L 204.059782 236.981526 
L 204.154473 236.760003 
L 204.427724 236.043773 
L 204.460189 236.065924 
L 204.749673 236.229386 
L 204.909295 236.313674 
L 205.055389 236.775679 
L 205.288058 238.412116 
L 205.615418 240.374205 
L 206.096989 241.385962 
L 206.470342 242.966638 
L 207.127767 246.985154 
L 207.179171 246.772853 
L 207.823069 242.246869 
L 207.877178 242.055969 
L 208.0368 239.865105 
L 208.442618 235.384986 
L 208.550836 234.794734 
L 208.883607 232.981219 
L 209.105455 232.721075 
L 209.210967 232.800038 
L 209.568087 233.579747 
L 209.646545 233.434786 
L 210.098356 231.80777 
L 210.966807 228.197901 
L 211.372625 226.44366 
L 211.710807 225.527583 
L 212.067927 225.621127 
L 212.278953 226.273297 
L 212.544087 226.835111 
L 212.701004 226.919274 
L 212.730764 226.884136 
L 212.901207 226.445916 
L 213.30432 224.029344 
L 213.577571 222.953909 
L 213.6912 223.009934 
L 214.129484 223.397886 
L 214.148422 223.375305 
L 214.270167 222.982454 
L 214.694924 220.476097 
L 215.217076 217.983417 
L 215.317178 218.079808 
L 215.547142 218.255841 
L 215.636422 218.319411 
L 215.679709 218.253072 
L 215.836625 217.627035 
L 215.95296 216.099996 
L 216.688844 198.354727 
L 216.783535 183.065447 
L 216.832233 118.324282 
L 216.84576 107.919724 
L 216.902575 179.109357 
L 217.067607 225.537162 
L 217.235345 230.445926 
L 218.087564 236.703423 
L 218.304 237.097072 
L 218.496087 238.255563 
L 218.83968 240.887683 
L 218.910022 240.761722 
L 219.004713 240.638666 
L 219.053411 240.691525 
L 219.180567 241.1348 
L 219.562036 242.566543 
L 219.691898 242.657785 
L 219.73248 242.585417 
L 220.043607 241.619044 
L 220.170764 241.310993 
L 220.20864 241.348174 
L 220.319564 241.770232 
L 220.590109 243.72179 
L 220.736204 243.528152 
L 220.852538 244.172703 
L 221.301644 246.885455 
L 221.883316 249.211085 
L 221.986124 249.64847 
L 222.045644 249.537185 
L 222.41088 248.526544 
L 222.4704 248.601927 
L 222.570502 248.903334 
L 222.624611 248.689561 
L 223.225222 245.843936 
L 223.336145 245.692975 
L 223.376727 245.727814 
L 223.506589 246.104501 
L 224.329047 249.151023 
L 224.483258 249.60836 
L 224.737571 251.263603 
L 225.359825 255.266861 
L 225.440989 255.007842 
L 225.492393 254.965867 
L 225.543796 255.047185 
L 225.68448 255.735326 
L 226.404131 260.182263 
L 226.433891 260.078519 
L 226.563753 259.73505 
L 226.609745 259.777535 
L 226.72608 259.948429 
L 226.753135 259.791526 
L 227.421382 253.991241 
L 227.44032 253.996616 
L 227.489018 253.976953 
L 227.510662 253.908455 
L 227.816378 253.142522 
L 227.821789 253.144171 
L 227.94624 253.188799 
L 227.973295 253.089514 
L 228.227607 251.386186 
L 228.963491 246.83424 
L 228.974313 246.83694 
L 229.074415 246.99443 
L 229.823825 249.348352 
L 230.129542 250.690416 
L 230.14848 250.681073 
L 230.243171 250.470149 
L 231.092684 247.364587 
L 231.133265 247.393407 
L 231.263127 247.710336 
L 231.328058 247.899166 
L 231.382167 247.725594 
L 231.766342 246.07307 
L 231.809629 246.094196 
L 231.923258 246.040557 
L 232.169455 245.595737 
L 232.342604 243.878931 
L 232.640204 241.608656 
L 232.76736 241.400131 
L 232.805236 241.430593 
L 232.908044 241.519676 
L 232.964858 241.463252 
L 233.219171 241.33377 
L 233.224582 241.338745 
L 233.367971 241.629262 
L 233.554647 241.964405 
L 233.578996 241.941014 
L 233.698036 241.528587 
L 233.982109 240.794596 
L 234.233716 240.270965 
L 234.260771 240.285763 
L 234.406865 240.541003 
L 234.639535 241.11871 
L 234.717993 240.912986 
L 234.953367 240.339354 
L 234.977716 240.351405 
L 235.107578 240.413715 
L 235.14816 240.33754 
L 235.451171 239.43704 
L 235.635142 237.681579 
L 235.940858 235.403311 
L 236.205993 234.079853 
L 236.679447 226.270138 
L 236.730851 226.241635 
L 236.776844 226.315076 
L 236.909411 226.959754 
L 237.428858 229.775697 
L 237.612829 230.047158 
L 237.961833 231.220721 
L 238.208029 232.615604 
L 238.289193 232.972586 
L 238.33248 232.730407 
L 238.946618 225.356243 
L 239.214458 224.774559 
L 239.306444 224.852839 
L 239.449833 225.431496 
L 239.785309 226.572423 
L 240.009862 227.86929 
L 240.41568 231.845448 
L 240.894545 235.317926 
L 241.097455 236.050021 
L 241.102865 236.048943 
L 241.405876 236.076933 
L 241.579025 236.714565 
L 241.879331 238.841596 
L 242.590865 244.062987 
L 243.0048 245.48494 
L 243.026444 245.47083 
L 243.318633 244.988297 
L 243.581062 244.724764 
L 243.691985 244.894765 
L 244.097804 246.18921 
L 244.541498 247.732568 
L 244.782284 248.964236 
L 245.074473 250.426871 
L 245.106938 250.397017 
L 245.396422 249.8413 
L 245.480291 249.970178 
L 245.786007 251.03188 
L 246.051142 252.538864 
L 246.554356 256.948831 
L 247.000756 260.227329 
L 247.098153 260.280565 
L 247.117091 260.195133 
L 247.490444 258.154899 
L 247.506676 258.161279 
L 247.614895 258.367076 
L 247.836742 258.825364 
L 247.880029 258.740938 
L 248.061295 258.301337 
L 248.112698 258.364491 
L 248.526633 259.529141 
L 248.791767 260.957983 
L 248.954095 261.765999 
L 249.013615 261.674711 
L 249.181353 261.442655 
L 249.219229 261.478487 
L 249.457309 262.023176 
L 249.735971 262.898155 
L 250.658531 267.145014 
L 250.726167 266.959847 
L 251.01024 265.325075 
L 251.418764 260.668634 
L 251.716364 259.874176 
L 251.819171 259.957713 
L 251.978793 260.359902 
L 252.2304 261.743971 
L 252.446836 263.215049 
L 252.509062 262.920235 
L 252.895942 260.712295 
L 252.901353 260.713292 
L 252.993338 260.856257 
L 253.174604 261.681406 
L 253.24224 262.100444 
L 253.290938 261.715841 
L 253.501964 260.649793 
L 253.558778 260.658016 
L 253.591244 260.715131 
L 253.861789 261.643981 
L 254.159389 263.774146 
L 254.386647 264.706548 
L 254.557091 265.14812 
L 254.824931 266.632556 
L 255.11712 268.111147 
L 255.141469 268.058504 
L 255.301091 266.922145 
L 255.471535 266.426426 
L 255.490473 266.435733 
L 255.59328 266.661618 
L 256.142487 268.484606 
L 256.199302 268.375923 
L 256.442793 267.992063 
L 256.450909 267.995152 
L 256.854022 268.042713 
L 257.000116 267.934735 
L 257.029876 267.96063 
L 257.17056 268.2943 
L 258.48 272.4694 
L 258.653149 272.713178 
L 258.707258 272.559953 
L 259.048145 270.609596 
L 259.481018 267.464123 
L 259.75968 266.922532 
L 259.873309 267.008248 
L 260.50368 267.892617 
L 260.544262 267.841177 
L 260.77152 267.203084 
L 261.042065 264.825155 
L 261.374836 262.010645 
L 261.464116 261.902773 
L 261.510109 261.953363 
L 261.648087 262.431143 
L 261.945687 264.448475 
L 263.244305 274.422387 
L 263.279476 274.355142 
L 263.374167 273.424803 
L 263.652829 271.274539 
L 263.723171 271.241194 
L 263.769164 271.296483 
L 263.923375 271.797129 
L 264.326487 273.093898 
L 264.488815 273.023962 
L 264.751244 272.411395 
L 264.897338 271.696164 
L 265.216582 268.603527 
L 265.549353 265.452849 
L 265.65216 265.322977 
L 265.695447 265.363752 
L 265.833425 265.781607 
L 266.363695 268.121061 
L 266.409687 267.78149 
L 266.761396 263.557205 
L 266.910196 263.428999 
L 266.934545 263.44745 
L 267.091462 263.771365 
L 267.210502 263.852232 
L 267.242967 263.823286 
L 267.340364 263.492521 
L 267.613615 262.474819 
L 267.624436 262.478662 
L 267.757004 262.674619 
L 268.016727 263.396102 
L 268.068131 263.094922 
L 268.363025 261.474598 
L 268.490182 261.228098 
L 268.820247 260.426778 
L 268.979869 260.292254 
L 269.004218 260.31109 
L 269.128669 260.601149 
L 269.72928 263.100964 
L 269.805033 262.636319 
L 269.96736 262.060907 
L 269.994415 262.075368 
L 270.156742 262.061584 
L 270.270371 262.1002 
L 270.278487 262.113631 
L 270.421876 262.591613 
L 270.916975 264.433018 
L 271.138822 264.816686 
L 271.149644 264.807664 
L 271.24704 264.481677 
L 271.460771 264.023674 
L 271.471593 264.02703 
L 271.690735 264.222006 
L 271.747549 264.31812 
L 271.769193 264.150323 
L 272.018095 259.846164 
L 272.321105 255.261682 
L 272.597062 254.192017 
L 272.678225 254.293408 
L 272.79456 254.472019 
L 272.848669 254.43484 
L 272.921716 254.112818 
L 273.12192 253.675752 
L 273.322124 253.759919 
L 273.592669 254.526573 
L 273.860509 254.980361 
L 274.001193 255.443471 
L 274.455709 257.908487 
L 274.910225 260.727116 
L 275.126662 261.419648 
L 275.164538 261.3108 
L 275.340393 259.686727 
L 275.589295 258.399435 
L 275.811142 258.038782 
L 276.084393 256.300967 
L 276.519971 253.389872 
L 276.628189 253.593204 
L 276.836509 254.623983 
L 277.426298 257.793328 
L 277.656262 257.972463 
L 277.840233 258.355299 
L 278.06208 259.569429 
L 278.641047 262.877468 
L 278.822313 263.133354 
L 278.827724 263.131503 
L 278.898065 262.983032 
L 279.149673 262.294995 
L 279.176727 262.310405 
L 279.309295 262.586224 
L 279.593367 263.61715 
L 279.69888 264.063391 
L 279.742167 263.827423 
L 280.350895 259.157816 
L 280.377949 259.178043 
L 280.478051 259.500736 
L 280.713425 261.197548 
L 281.002909 262.770071 
L 281.33568 262.624157 
L 281.492596 262.16843 
L 281.763142 261.412268 
L 281.771258 261.414885 
L 281.822662 261.445661 
L 281.8416 261.325061 
L 282.233891 257.214901 
L 282.304233 257.346653 
L 282.482793 258.389674 
L 283.635316 264.467645 
L 283.792233 265.077841 
L 283.827404 264.759054 
L 284.165585 261.557485 
L 284.235927 261.57521 
L 284.265687 261.612727 
L 284.614691 261.934423 
L 284.717498 262.039642 
L 284.879825 262.653831 
L 285.128727 263.365753 
L 285.264 263.667873 
L 285.309993 263.833856 
L 285.350575 263.575925 
L 285.5616 262.368434 
L 285.583244 262.382304 
L 285.688756 262.674148 
L 285.951185 264.212286 
L 286.248785 265.311401 
L 286.494982 265.922713 
L 286.746589 266.469845 
L 287.017135 266.821404 
L 287.152407 266.977965 
L 287.211927 267.094646 
L 287.252509 266.933183 
L 288.037091 262.058199 
L 288.12096 262.008217 
L 288.169658 262.042571 
L 288.350924 262.310525 
L 288.59712 263.266264 
L 288.705338 263.004116 
L 289.111156 261.685022 
L 289.216669 261.751058 
L 289.368175 262.250813 
L 289.663069 264.162634 
L 289.941731 265.660383 
L 289.960669 265.633063 
L 290.060771 265.040847 
L 290.371898 263.521141 
L 290.461178 263.565135 
L 290.472 263.583593 
L 290.628916 264.106384 
L 290.780422 264.495419 
L 290.821004 264.412821 
L 290.964393 264.174408 
L 291.004975 264.210221 
L 291.134836 264.599547 
L 291.789556 266.978769 
L 292.189964 267.582736 
L 292.238662 267.535047 
L 292.411811 267.172029 
L 292.514618 265.873255 
L 292.82304 262.645333 
L 292.947491 262.407484 
L 292.985367 262.438094 
L 293.112524 262.804477 
L 293.797004 265.826129 
L 295.282298 271.953601 
L 295.436509 271.835636 
L 295.698938 271.5151 
L 295.928902 271.255822 
L 296.061469 269.744102 
L 296.383418 267.182792 
L 296.66208 263.647138 
L 296.932625 259.576005 
L 297.284335 257.709999 
L 297.471011 257.607489 
L 297.657687 257.558863 
L 298.361105 258.311208 
L 298.683055 259.684246 
L 298.747985 259.347292 
L 298.964422 258.397793 
L 298.98336 258.407534 
L 299.075345 258.64206 
L 299.792291 262.0438 
L 299.960029 262.462718 
L 300.533585 264.3424 
L 300.779782 265.447122 
L 300.863651 265.221041 
L 301.199127 263.387311 
L 301.296524 263.574835 
L 301.499433 264.67449 
L 301.859258 266.185987 
L 302.16768 267.532555 
L 302.235316 267.431261 
L 302.562676 266.783796 
L 302.611375 266.828414 
L 302.865687 267.166293 
L 302.91168 267.071433 
L 303.428422 265.583197 
L 303.579927 265.450581 
L 303.606982 265.472076 
L 303.739549 265.77777 
L 303.988451 267.045966 
L 304.350982 268.640033 
L 304.629644 269.42706 
L 304.63776 269.4387 
L 304.664815 269.228756 
L 305.051695 265.636115 
L 305.159913 265.707441 
L 305.314124 266.196577 
L 305.606313 268.036755 
L 306.209629 271.787648 
L 306.499113 273.076098 
L 306.872465 274.849786 
L 306.918458 274.795134 
L 307.094313 274.181738 
L 307.37568 271.868703 
L 308.019578 266.134617 
L 308.520087 263.639191 
L 308.631011 263.718175 
L 308.828509 264.207233 
L 308.909673 264.00382 
L 309.31008 262.921609 
L 309.613091 262.65256 
L 309.751069 262.453677 
L 309.78624 262.481631 
L 309.913396 262.822208 
L 310.370618 264.196354 
L 310.389556 264.215286 
L 310.4112 264.099336 
L 310.936058 260.225126 
L 311.220131 259.256319 
L 311.282356 259.327796 
L 311.704407 260.435697 
L 311.83968 260.699676 
L 311.877556 260.666451 
L 312.066938 260.527706 
L 312.096698 260.560024 
L 312.245498 260.963739 
L 312.534982 261.719472 
L 312.570153 261.690225 
L 312.82176 261.554862 
L 312.959738 261.368636 
L 313.081484 261.269981 
L 313.11936 261.30689 
L 313.251927 261.68918 
L 313.925585 264.068237 
L 314.039215 264.215301 
L 314.082502 264.088351 
L 314.290822 262.468718 
L 314.623593 260.66466 
L 314.81568 259.8157 
L 315.080815 258.977921 
L 315.335127 258.277778 
L 315.427113 258.129889 
L 315.475811 258.187502 
L 315.621905 258.222118 
L 315.768 258.271739 
L 315.851869 258.266244 
L 315.884335 258.224976 
L 316.046662 257.843256 
L 316.384844 256.347233 
L 316.533644 256.408193 
L 316.679738 256.848511 
L 316.950284 258.556751 
L 317.039564 259.001914 
L 317.101789 258.831087 
L 317.212713 258.644779 
L 317.256 258.694584 
L 317.380451 259.187579 
L 317.694284 261.647833 
L 317.991884 262.964609 
L 318.354415 263.335369 
L 318.614138 263.908072 
L 318.698007 264.072444 
L 318.768349 263.996038 
L 318.919855 263.996158 
L 319.07136 264.285863 
L 319.304029 265.329802 
L 319.90464 268.37986 
L 319.931695 268.34017 
L 320.104844 267.564124 
L 320.269876 267.231301 
L 320.296931 267.24743 
L 320.413265 267.516962 
L 320.651345 268.780443 
L 321.306065 272.387631 
L 321.584727 272.938147 
L 321.657775 272.925329 
L 321.679418 272.864889 
L 321.968902 271.481813 
L 322.656087 268.696903 
L 322.796771 268.722852 
L 323.156596 269.009773 
L 323.302691 269.056108 
L 323.427142 269.176018 
L 323.473135 269.100664 
L 323.697687 268.787494 
L 323.724742 268.806264 
L 323.860015 269.089762 
L 324.117033 270.273378 
L 324.392989 271.877788 
L 324.463331 271.631696 
L 324.704116 270.965409 
L 324.898909 270.860092 
L 324.923258 270.888586 
L 325.074764 271.290529 
L 325.41024 273.001813 
L 325.580684 273.610178 
L 325.640204 273.552147 
L 326.12448 272.614488 
L 326.497833 270.060982 
L 326.790022 268.217477 
L 327.466385 265.56191 
L 327.5232 265.612143 
L 327.672 266.038536 
L 328.037236 267.873493 
L 328.123811 267.430152 
L 328.38624 266.114274 
L 328.391651 266.115277 
L 328.478225 266.257594 
L 328.77312 267.139468 
L 328.859695 267.026697 
L 329.116713 265.677582 
L 329.265513 263.797219 
L 329.679447 259.05183 
L 329.960815 257.820313 
L 330.131258 257.405574 
L 330.361222 256.145143 
L 330.385571 256.162952 
L 330.482967 256.477398 
L 330.764335 257.392249 
L 330.783273 257.380853 
L 330.845498 257.148537 
L 331.459636 254.215082 
L 331.632785 254.27768 
L 331.781585 254.780349 
L 331.827578 254.887868 
L 331.884393 254.744374 
L 332.073775 254.324769 
L 332.100829 254.34335 
L 332.203636 254.633997 
L 332.422778 256.094964 
L 332.828596 258.496764 
L 333.14784 259.860849 
L 333.729513 263.286248 
L 333.807971 263.212443 
L 333.95136 263.147882 
L 333.978415 263.175818 
L 334.119098 263.545928 
L 334.227316 263.944345 
L 334.281425 263.745289 
L 334.622313 262.30021 
L 334.790051 262.305066 
L 334.928029 262.640946 
L 335.198575 263.217564 
L 335.442065 263.768891 
L 335.774836 264.926174 
L 335.861411 264.746196 
L 336.115724 263.403662 
L 336.288873 262.311277 
L 336.551302 260.500689 
L 336.613527 260.474008 
L 336.65952 260.534111 
L 336.913833 260.921351 
L 336.924655 260.694454 
L 337.122153 258.442541 
L 337.127564 258.443461 
L 337.1952 258.596243 
L 337.495505 259.938509 
L 337.776873 260.850272 
L 337.812044 260.841659 
L 337.847215 260.771386 
L 337.990604 260.148161 
L 338.250327 259.190621 
L 338.339607 259.17801 
L 338.372073 259.221593 
L 338.510051 259.688848 
L 340.301062 269.02493 
L 340.64736 270.753244 
L 340.777222 270.896966 
L 340.815098 270.824633 
L 340.94496 270.026784 
L 341.288553 267.652558 
L 341.440058 267.450626 
L 341.467113 267.468021 
L 341.594269 267.741435 
L 341.83776 268.924557 
L 342.062313 269.940848 
L 342.100189 269.844198 
L 342.746793 267.02828 
L 343.030865 266.382554 
L 343.141789 264.315836 
L 343.398807 261.309914 
L 343.520553 261.159349 
L 343.555724 261.185258 
L 343.672058 261.498651 
L 343.896611 262.901628 
L 344.383593 265.873996 
L 344.72448 267.354888 
L 345.411665 270.953093 
L 345.436015 270.9011 
L 345.552349 269.886963 
L 346.001455 266.455314 
L 346.144844 266.297399 
L 346.174604 266.317781 
L 346.304465 266.606602 
L 346.547956 267.822588 
L 347.294662 271.833914 
L 347.570618 272.140294 
L 347.70048 272.442534 
L 347.76 272.335086 
L 348.098182 271.519165 
L 348.138764 271.54649 
L 348.282153 271.8542 
L 348.590575 272.465225 
L 348.750196 272.543386 
L 348.926051 273.01218 
L 349.058618 273.461589 
L 349.0992 273.229156 
L 349.513135 270.581012 
L 349.699811 269.885666 
L 349.93248 265.298904 
L 349.994705 265.177984 
L 350.05152 265.27563 
L 350.560145 266.520221 
L 350.687302 266.739469 
L 351.144524 268.218041 
L 351.247331 268.036075 
L 351.59904 267.376458 
L 351.626095 267.393968 
L 351.755956 267.660132 
L 352.307869 269.755815 
L 352.591942 271.064941 
L 352.667695 270.926163 
L 352.773207 270.343288 
L 353.262895 265.499101 
L 353.460393 265.212982 
L 353.500975 265.251715 
L 353.636247 265.642256 
L 353.898676 267.233729 
L 354.57504 271.464241 
L 354.699491 271.445286 
L 354.713018 271.42415 
L 354.924044 270.860242 
L 355.221644 268.052428 
L 355.570647 265.86778 
L 355.714036 265.770593 
L 355.738385 265.790525 
L 355.870953 266.091597 
L 356.073862 266.380908 
L 356.238895 266.851382 
L 356.682589 269.155833 
L 356.977484 270.797999 
L 357.042415 270.338926 
L 357.277789 269.208662 
L 357.383302 268.988179 
L 357.559156 268.692884 
L 357.586211 268.709204 
L 357.707956 268.968832 
L 357.946036 270.130012 
L 358.516887 274.345478 
L 358.855069 276.11751 
L 359.428625 277.850735 
L 359.436742 277.848379 
L 359.458385 277.738902 
L 359.791156 275.466797 
L 359.845265 275.517401 
L 360.053585 275.727763 
L 360.08064 275.706834 
L 360.326836 275.622814 
L 360.394473 275.596003 
L 360.413411 275.553713 
L 360.545978 274.774992 
L 360.819229 271.987697 
L 361.152 268.878415 
L 361.684975 266.315083 
L 361.766138 266.44524 
L 362.161135 267.926479 
L 362.369455 268.366176 
L 362.599418 268.423468 
L 362.767156 268.9692 
L 362.829382 269.17013 
L 362.891607 269.025441 
L 363.11616 268.572292 
L 363.135098 268.580428 
L 363.362356 268.828838 
L 363.559855 269.507407 
L 363.971084 271.149425 
L 364.011665 271.113559 
L 364.474298 270.569829 
L 364.512175 270.607884 
L 364.658269 270.602253 
L 365.045149 270.504578 
L 365.180422 270.695691 
L 365.699869 271.976063 
L 365.802676 271.917208 
L 365.975825 271.620009 
L 366.238255 270.998293 
L 366.257193 271.007492 
L 366.433047 271.268574 
L 366.652189 271.921572 
L 366.722531 272.060461 
L 366.782051 271.997911 
L 366.957905 271.879844 
L 366.979549 271.898309 
L 367.122938 272.20744 
L 367.333964 272.573611 
L 367.350196 272.553477 
L 367.46112 272.020888 
L 367.72896 271.198189 
L 367.893993 271.001598 
L 367.918342 271.016562 
L 368.134778 271.332143 
L 368.180771 271.116785 
L 368.564945 268.974628 
L 368.732684 268.888701 
L 368.751622 268.90528 
L 368.922065 269.220407 
L 368.997818 269.008556 
L 369.271069 268.309355 
L 369.287302 268.316242 
L 369.398225 268.514214 
L 369.609251 269.463354 
L 369.666065 269.766771 
L 369.725585 269.484826 
L 369.925789 269.010496 
L 370.004247 268.998071 
L 370.039418 269.046728 
L 370.182807 269.55066 
L 370.924102 272.688448 
L 371.118895 272.761848 
L 371.135127 272.742422 
L 371.394851 272.49177 
L 371.427316 272.524177 
L 371.586938 272.907961 
L 371.825018 273.86168 
L 371.89536 273.595509 
L 372.100975 272.884754 
L 372.125324 272.897346 
L 372.233542 273.144537 
L 372.523025 274.151316 
L 372.596073 274.022511 
L 372.815215 272.997182 
L 373.183156 269.172541 
L 373.288669 269.251317 
L 373.456407 269.753014 
L 373.77024 271.550771 
L 374.920058 278.394319 
L 375.047215 278.429085 
L 375.068858 278.375766 
L 375.220364 277.350121 
L 375.561251 275.753746 
L 375.682996 275.687066 
L 375.712756 275.71195 
L 375.866967 276.043346 
L 376.529804 277.733516 
L 376.659665 277.783905 
L 376.684015 277.736014 
L 376.840931 276.934528 
L 377.238633 273.866778 
L 377.952873 272.683114 
L 378.069207 272.740478 
L 378.301876 273.216782 
L 378.437149 273.475182 
L 378.477731 273.396054 
L 378.886255 272.223666 
L 378.924131 272.248852 
L 379.040465 272.320831 
L 379.081047 272.256263 
L 379.332655 271.867079 
L 379.367825 271.895553 
L 379.511215 272.230904 
L 379.69248 273.038138 
L 379.708713 272.582284 
L 379.919738 269.447604 
L 379.954909 269.427882 
L 380.006313 269.516917 
L 380.214633 269.835646 
L 380.455418 271.360613 
L 380.736785 272.610735 
L 381.177775 273.329305 
L 381.183185 273.326752 
L 381.296815 273.15115 
L 381.789207 271.326619 
L 381.870371 271.410746 
L 381.905542 271.440129 
L 381.946124 271.322418 
L 382.089513 269.940132 
L 382.416873 267.363039 
L 382.657658 266.14003 
L 382.898444 265.38722 
L 382.99584 265.493938 
L 383.185222 266.170726 
L 383.355665 266.531866 
L 383.396247 266.448613 
L 383.496349 265.638619 
L 383.729018 264.303366 
L 383.731724 264.303645 
L 383.848058 264.430025 
L 384.010385 265.058432 
L 384.332335 266.404026 
L 384.375622 266.373903 
L 384.54336 266.3625 
L 384.727331 266.653318 
L 384.932945 267.589949 
L 385.373935 269.573691 
L 385.571433 269.893984 
L 385.622836 269.738373 
L 385.901498 268.705132 
L 385.939375 268.73281 
L 386.063825 269.068505 
L 386.158516 269.388144 
L 386.223447 269.262199 
L 386.534575 268.494899 
L 386.594095 268.557103 
L 386.696902 268.587126 
L 386.723956 268.561728 
L 386.832175 268.23705 
L 386.978269 266.879923 
L 387.270458 264.339497 
L 387.446313 264.145205 
L 387.532887 263.929127 
L 387.879185 263.067641 
L 388.009047 263.034839 
L 388.030691 263.056337 
L 388.35264 263.545589 
L 388.606953 264.969586 
L 389.340131 270.543431 
L 389.459171 270.184522 
L 389.567389 270.039507 
L 389.610676 270.083784 
L 389.800058 270.625495 
L 390.782138 273.763199 
L 391.085149 274.994074 
L 391.247476 275.681445 
L 391.309702 275.570061 
L 391.977949 273.307745 
L 392.513629 266.498791 
L 392.640785 265.409553 
L 392.951913 263.006068 
L 393.252218 262.213492 
L 393.357731 262.300536 
L 393.568756 262.319327 
L 393.933993 262.342048 
L 394.161251 262.804334 
L 394.399331 263.024615 
L 394.523782 263.205696 
L 394.715869 264.002035 
L 395.097338 266.743588 
L 395.392233 268.86266 
L 395.446342 268.732734 
L 395.624902 267.483221 
L 396.195753 263.495924 
L 396.533935 262.77557 
L 396.609687 262.87018 
L 396.777425 263.466253 
L 397.204887 265.228558 
L 397.237353 265.191738 
L 397.456495 264.87426 
L 397.502487 264.921524 
L 397.691869 265.418455 
L 397.835258 265.818406 
L 397.900189 265.724998 
L 398.151796 265.466983 
L 398.314124 265.40198 
L 398.333062 265.421872 
L 398.473745 265.77536 
L 398.487273 265.827185 
L 398.487273 265.827185 
" clip-path="url(#p1cf2d256ff)" style="fill: none; stroke: #000000; stroke-width: 1.5; stroke-linecap: square"/>
   </g>
   <g id="line2d_17">
    <path d="M 73.832727 280.9728 
L 74.000465 283.612333 
L 74.108684 284.162318 
L 74.165498 284.091931 
L 74.338647 283.913229 
L 74.368407 283.937296 
L 74.522618 284.269742 
L 75.120524 285.718548 
L 75.326138 285.552081 
L 75.688669 284.264053 
L 76.067433 280.991243 
L 76.362327 279.389139 
L 76.492189 279.305602 
L 76.519244 279.325129 
L 76.673455 279.621974 
L 76.962938 280.107574 
L 77.125265 280.000623 
L 77.382284 279.498789 
L 77.593309 279.217429 
L 77.596015 279.218369 
L 77.728582 279.386998 
L 77.950429 279.728827 
L 77.991011 279.689289 
L 78.913571 277.772579 
L 79.20576 275.480984 
L 79.346444 275.464647 
L 79.405964 275.373774 
L 79.543942 274.495538 
L 80.147258 270.066219 
L 80.239244 270.002978 
L 80.279825 270.046057 
L 80.569309 270.299004 
L 80.726225 270.401221 
L 80.880436 270.735034 
L 81.156393 272.059028 
L 81.881455 275.09464 
L 82.043782 275.106964 
L 82.18176 274.850893 
L 82.427956 274.526598 
L 82.444189 274.534834 
L 82.495593 274.524145 
L 82.519942 274.455761 
L 82.676858 273.396824 
L 82.939287 272.170888 
L 83.082676 271.862074 
L 83.374865 270.960089 
L 83.556131 270.931692 
L 83.710342 271.164927 
L 84.162153 271.993949 
L 84.470575 272.906054 
L 85.179404 275.442058 
L 85.225396 275.447613 
L 85.265978 275.378652 
L 85.401251 274.695534 
L 85.677207 273.727233 
L 85.934225 273.466255 
L 86.099258 273.455147 
L 86.177716 273.305652 
L 86.505076 272.509618 
L 86.545658 272.538846 
L 86.686342 272.862967 
L 86.959593 274.182511 
L 87.308596 275.589685 
L 87.454691 275.696576 
L 87.47904 275.678049 
L 87.733353 275.278282 
L 88.363724 271.81941 
L 88.534167 271.746942 
L 88.539578 271.750743 
L 88.674851 271.991504 
L 88.90752 272.974479 
L 89.62176 276.227847 
L 90.024873 276.387515 
L 90.227782 276.910599 
L 91.667084 281.794993 
L 91.721193 281.737471 
L 91.826705 281.333496 
L 92.175709 280.064574 
L 92.494953 279.730033 
L 92.654575 279.913624 
L 93.182138 280.747646 
L 93.203782 280.703835 
L 93.295767 279.931061 
L 93.647476 277.265196 
L 93.950487 276.461156 
L 94.26432 276.475047 
L 94.426647 276.62435 
L 94.456407 276.461026 
L 94.8 274.383755 
L 94.818938 274.391164 
L 94.924451 274.595388 
L 95.370851 275.761321 
L 95.408727 275.725011 
L 95.508829 275.320296 
L 95.922764 273.708482 
L 96.063447 273.336148 
L 96.385396 272.357562 
L 96.626182 272.19473 
L 96.710051 271.928358 
L 96.812858 270.221016 
L 97.048233 268.188381 
L 97.115869 268.133454 
L 97.164567 268.192754 
L 97.297135 268.557995 
L 97.375593 268.368919 
L 97.494633 268.183252 
L 97.53792 268.228939 
L 97.684015 268.260342 
L 97.778705 268.148493 
L 97.976204 267.297755 
L 98.273804 262.816181 
L 98.630924 261.581419 
L 98.69856 261.646692 
L 98.852771 262.056835 
L 99.117905 263.641284 
L 99.542662 266.499904 
L 99.964713 269.130581 
L 100.099985 269.480296 
L 100.154095 269.377111 
L 100.332655 269.114459 
L 100.362415 269.136166 
L 100.492276 269.436866 
L 100.949498 270.527252 
L 101.13888 270.857733 
L 101.520349 272.302852 
L 102.226473 275.260661 
L 102.250822 275.249038 
L 102.632291 275.127681 
L 102.916364 275.505258 
L 103.395229 276.66386 
L 103.470982 276.52471 
L 103.671185 275.632184 
L 103.976902 273.070016 
L 104.390836 267.669409 
L 104.56128 267.148621 
L 104.577513 267.153247 
L 104.766895 267.189665 
L 104.788538 267.111662 
L 105.004975 265.618462 
L 105.456785 263.476908 
L 105.565004 263.536815 
L 105.719215 264.0322 
L 105.96 264.652262 
L 106.011404 264.619436 
L 106.154793 264.647301 
L 106.171025 264.649178 
L 106.19808 264.544288 
L 106.4064 262.473388 
L 106.693178 260.748646 
L 106.760815 260.716077 
L 106.806807 260.775445 
L 107.004305 261.415694 
L 107.691491 264.170725 
L 108.062138 266.326529 
L 108.262342 266.896435 
L 108.424669 267.12358 
L 108.627578 267.948464 
L 108.925178 269.3148 
L 108.981993 269.27019 
L 109.339113 268.694147 
L 110.237324 264.759721 
L 110.624204 263.372602 
L 111.219404 261.528211 
L 111.365498 261.362542 
L 111.397964 261.388858 
L 111.527825 261.720103 
L 111.706385 262.098935 
L 111.741556 262.075329 
L 111.966109 262.010465 
L 112.131142 262.015711 
L 112.296175 262.047376 
L 112.542371 262.317551 
L 113.156509 264.286092 
L 113.597498 267.034943 
L 113.713833 266.732288 
L 113.919447 266.346867 
L 113.93568 266.354884 
L 114.003316 266.387134 
L 114.038487 266.29537 
L 114.238691 265.73253 
L 114.290095 265.791129 
L 114.425367 266.323084 
L 114.741905 268.718554 
L 114.904233 269.721679 
L 114.939404 269.473986 
L 115.301935 266.427232 
L 115.477789 266.359558 
L 115.591418 266.564261 
L 115.69152 266.83356 
L 115.740218 266.660686 
L 115.986415 265.324778 
L 116.043229 265.406864 
L 116.189324 266.107485 
L 116.340829 266.728084 
L 116.392233 266.683321 
L 116.562676 266.652351 
L 116.684422 266.904135 
L 116.895447 267.996972 
L 117.23904 269.555472 
L 117.404073 269.90235 
L 117.469004 269.77008 
L 117.734138 268.446619 
L 118.064204 267.184322 
L 118.258996 266.982728 
L 118.277935 266.995457 
L 118.407796 267.252598 
L 118.643171 268.333735 
L 118.932655 269.380718 
L 118.981353 269.279848 
L 119.333062 266.85624 
L 119.389876 266.918927 
L 119.53056 267.455867 
L 119.701004 267.765605 
L 119.971549 268.357192 
L 120.060829 268.218814 
L 120.347607 267.861817 
L 120.634385 267.780326 
L 120.656029 267.828048 
L 120.850822 268.584633 
L 121.19712 270.024028 
L 121.237702 270.013147 
L 121.529891 270.057973 
L 121.692218 270.447078 
L 122.658065 274.20652 
L 123.410182 277.938484 
L 123.57792 278.083148 
L 123.610385 278.034646 
L 123.767302 277.37001 
L 124.116305 276.326022 
L 124.297571 275.13616 
L 124.8576 270.007713 
L 125.079447 269.35568 
L 125.179549 269.461269 
L 125.360815 270.09521 
L 125.444684 270.255313 
L 125.501498 270.212903 
L 125.677353 270.181077 
L 125.682764 270.186987 
L 125.831564 270.529116 
L 127.086895 275.209474 
L 127.362851 276.706021 
L 127.419665 276.466769 
L 127.955345 273.351832 
L 128.093324 272.955546 
L 128.453149 271.639336 
L 128.474793 271.649145 
L 128.596538 271.867196 
L 129.302662 273.52778 
L 129.400058 273.383554 
L 129.843753 272.292271 
L 130.052073 272.219341 
L 130.300975 272.127495 
L 130.463302 271.584097 
L 130.923229 269.672043 
L 131.031447 269.778819 
L 131.458909 270.555419 
L 131.76192 271.967579 
L 131.916131 272.436785 
L 131.954007 272.389309 
L 132.303011 271.306186 
L 132.633076 269.567683 
L 132.971258 267.95439 
L 133.07136 268.001424 
L 133.079476 268.014574 
L 133.241804 268.515611 
L 133.69632 269.988948 
L 133.839709 270.233522 
L 134.269876 271.088788 
L 134.437615 271.520619 
L 135.200553 274.423556 
L 135.279011 274.215193 
L 135.606371 273.227353 
L 135.63072 273.240463 
L 135.752465 273.489112 
L 136.014895 274.678581 
L 136.169105 274.990577 
L 136.193455 274.981242 
L 136.436945 274.975924 
L 136.610095 275.373266 
L 136.742662 275.716453 
L 136.802182 275.620322 
L 137.11872 275.050499 
L 137.137658 275.060408 
L 137.281047 275.290865 
L 137.378444 275.528124 
L 137.429847 275.380325 
L 137.540771 274.338241 
L 137.841076 271.679118 
L 137.995287 271.55206 
L 138.016931 271.567236 
L 138.133265 271.624186 
L 138.171142 271.560844 
L 138.287476 271.02853 
L 138.639185 267.991649 
L 138.961135 265.494577 
L 139.353425 264.422857 
L 139.399418 264.46463 
L 139.610444 264.698892 
L 139.651025 264.640399 
L 139.802531 264.493492 
L 139.837702 264.527286 
L 139.989207 264.928572 
L 140.286807 266.315919 
L 140.754851 269.882373 
L 140.930705 270.431031 
L 141.249949 270.647456 
L 141.525905 270.681279 
L 141.677411 271.049378 
L 141.950662 272.429719 
L 142.353775 274.24199 
L 142.640553 274.749066 
L 142.656785 274.668444 
L 142.854284 271.56261 
L 143.078836 270.242371 
L 143.292567 269.971208 
L 143.311505 269.983167 
L 143.503593 270.036419 
L 143.519825 270.014326 
L 143.619927 269.703125 
L 143.836364 267.119408 
L 143.871535 267.114957 
L 143.914822 267.195906 
L 144.185367 268.269239 
L 144.534371 270.253824 
L 145.649018 277.348979 
L 145.65984 277.343712 
L 145.776175 277.108536 
L 145.995316 276.867111 
L 145.998022 276.868308 
L 146.136 277.056034 
L 146.227985 277.200826 
L 146.279389 277.103327 
L 146.852945 275.375372 
L 146.931404 275.446063 
L 147.115375 275.91521 
L 147.29664 276.46653 
L 147.348044 276.338609 
L 147.840436 273.66274 
L 147.994647 271.960765 
L 148.276015 269.750456 
L 148.354473 269.695664 
L 148.400465 269.746391 
L 148.581731 270.276136 
L 148.871215 271.257939 
L 148.952378 271.491219 
L 148.995665 271.317937 
L 149.306793 269.98852 
L 149.49888 269.989847 
L 149.769425 270.072194 
L 149.782953 270.030143 
L 149.853295 269.012326 
L 150.218531 264.08222 
L 150.378153 263.691232 
L 150.394385 263.695652 
L 150.462022 263.606451 
L 150.797498 262.574734 
L 150.875956 262.688404 
L 151.52256 264.496172 
L 151.868858 265.547213 
L 152.055535 266.072895 
L 152.120465 266.29505 
L 152.179985 266.13164 
L 152.350429 265.795447 
L 152.380189 265.814273 
L 152.499229 266.095301 
L 152.74272 267.388903 
L 153.005149 268.229066 
L 153.21888 269.052779 
L 153.624698 271.459017 
L 153.686924 270.915699 
L 153.970996 268.946586 
L 154.038633 268.899277 
L 154.087331 268.960383 
L 154.252364 269.540794 
L 154.658182 271.431983 
L 154.747462 271.292797 
L 155.380538 269.855047 
L 155.483345 269.940914 
L 155.653789 270.499323 
L 156.008204 272.597399 
L 156.297687 273.820297 
L 156.568233 274.033955 
L 157.025455 274.420631 
L 157.277062 275.296753 
L 157.469149 275.640318 
L 157.550313 275.539818 
L 157.896611 273.831957 
L 158.399825 271.629578 
L 158.478284 271.70757 
L 158.621673 271.780988 
L 158.640611 271.768197 
L 158.759651 271.520309 
L 158.805644 271.096497 
L 159.611869 260.598647 
L 159.739025 260.248655 
L 159.776902 260.282088 
L 159.987927 260.616541 
L 160.06368 260.54193 
L 160.30176 260.446624 
L 160.409978 260.604396 
L 160.823913 262.013012 
L 161.007884 262.605729 
L 161.051171 262.572427 
L 161.162095 262.278779 
L 161.351476 261.925646 
L 161.37312 261.938081 
L 161.608495 262.140473 
L 161.67072 262.0549 
L 162.103593 261.528409 
L 162.136058 261.561219 
L 162.766429 262.614382 
L 163.066735 263.386101 
L 163.120844 263.367573 
L 163.258822 263.443638 
L 163.418444 263.909211 
L 163.718749 265.647333 
L 164.554735 270.002544 
L 164.630487 269.869534 
L 164.922676 269.335438 
L 164.936204 269.341938 
L 165.06336 269.54727 
L 165.774895 271.693371 
L 166.031913 272.461947 
L 166.088727 272.457766 
L 166.107665 272.381271 
L 166.234822 270.77265 
L 166.643345 266.375179 
L 166.830022 265.921373 
L 166.843549 265.926291 
L 166.949062 266.108422 
L 167.287244 267.064884 
L 167.338647 266.889425 
L 167.506385 265.21328 
L 167.874327 260.98034 
L 167.982545 260.794707 
L 168.025833 260.83651 
L 168.182749 260.883803 
L 168.391069 260.65559 
L 168.496582 260.690328 
L 168.507404 260.707029 
L 168.656204 261.171002 
L 168.9024 262.154225 
L 168.972742 262.067143 
L 169.064727 262.014031 
L 169.105309 262.065214 
L 169.305513 262.674947 
L 169.589585 264.255088 
L 169.714036 265.054292 
L 169.773556 264.788743 
L 170.715055 258.680999 
L 170.739404 258.692148 
L 170.842211 258.92139 
L 171.039709 260.048732 
L 171.499636 264.313458 
L 171.707956 265.224268 
L 171.916276 266.442208 
L 172.495244 270.026527 
L 172.690036 270.236585 
L 173.250065 270.360799 
L 173.42592 270.751534 
L 173.480029 270.625498 
L 174.456698 266.485703 
L 174.578444 264.882735 
L 174.94368 259.979327 
L 175.06272 259.750421 
L 175.100596 259.782507 
L 175.225047 260.152309 
L 175.468538 261.229021 
L 175.53888 261.029796 
L 175.771549 260.155259 
L 175.817542 260.201524 
L 175.944698 260.66366 
L 176.415447 263.717678 
L 177.327185 269.34435 
L 177.697833 270.967307 
L 177.927796 271.401572 
L 178.192931 271.298752 
L 178.547345 270.218228 
L 178.631215 270.31719 
L 179.099258 271.115122 
L 179.131724 271.085675 
L 179.25888 270.72326 
L 179.58624 269.960038 
L 179.889251 269.522168 
L 179.921716 269.547163 
L 180.473629 270.285025 
L 181.095884 272.521371 
L 181.155404 272.456708 
L 181.274444 271.976639 
L 181.528756 271.298218 
L 181.845295 271.361776 
L 182.075258 271.771461 
L 182.359331 272.70302 
L 182.789498 274.041195 
L 182.881484 273.963482 
L 183.203433 273.769356 
L 183.338705 273.950975 
L 183.644422 274.465496 
L 183.660655 274.397898 
L 184.558865 267.24859 
L 184.864582 262.420847 
L 185.007971 261.961487 
L 185.037731 261.979259 
L 185.159476 262.261577 
L 185.38944 263.488895 
L 185.987345 266.645761 
L 186.279535 267.074384 
L 186.320116 266.927433 
L 186.468916 265.040748 
L 186.731345 262.925302 
L 186.807098 262.865428 
L 186.853091 262.919286 
L 186.99648 263.415195 
L 187.375244 264.64911 
L 188.005615 266.531934 
L 188.073251 266.280071 
L 188.2464 264.313629 
L 188.552116 262.034908 
L 188.706327 261.73513 
L 188.733382 261.748315 
L 188.822662 261.706041 
L 188.836189 261.68082 
L 189.006633 261.07741 
L 189.177076 259.995073 
L 189.55584 257.039254 
L 189.848029 256.112585 
L 189.967069 256.152543 
L 190.197033 256.440444 
L 190.345833 256.669602 
L 190.375593 256.638009 
L 190.502749 256.224429 
L 190.830109 255.106051 
L 190.95456 255.184174 
L 191.116887 255.651155 
L 191.225105 255.928131 
L 191.28192 255.865613 
L 191.552465 255.240608 
L 192.277527 245.851463 
L 192.355985 245.765715 
L 192.407389 245.817982 
L 192.575127 246.251083 
L 194.009018 251.42541 
L 194.165935 251.829504 
L 194.209222 251.716168 
L 194.339084 250.448546 
L 195.020858 242.852208 
L 195.670167 240.031767 
L 195.948829 238.301939 
L 196.027287 238.420412 
L 196.186909 239.218233 
L 196.744233 242.117115 
L 197.009367 242.638241 
L 197.260975 242.642571 
L 197.317789 242.518111 
L 197.447651 241.321586 
L 197.926516 233.231888 
L 198.610996 218.258019 
L 199.16832 207.885522 
L 199.330647 197.932693 
L 199.4064 178.575281 
L 199.452393 97.00843 
L 199.511913 181.858974 
L 199.67424 234.165654 
L 199.741876 236.567213 
L 199.804102 235.871377 
L 200.999913 212.528642 
L 201.321862 201.798569 
L 201.432785 188.586681 
L 201.478778 148.526377 
L 201.505833 97.558085 
L 201.576175 186.084057 
L 201.770967 230.335832 
L 201.857542 231.27545 
L 201.908945 231.19163 
L 202.046924 230.518788 
L 202.379695 227.088141 
L 202.955956 224.154796 
L 203.134516 223.866652 
L 203.153455 223.876447 
L 203.267084 224.094628 
L 203.640436 225.281359 
L 203.729716 225.176532 
L 203.919098 225.017824 
L 203.946153 225.035285 
L 204.011084 225.011229 
L 204.030022 224.961934 
L 204.173411 224.090311 
L 205.139258 215.652508 
L 205.56672 210.32903 
L 205.739869 203.367875 
L 205.845382 188.993148 
L 205.885964 141.048336 
L 205.910313 86.532068 
L 205.98336 183.059548 
L 206.164625 233.430543 
L 206.272844 235.381728 
L 206.308015 235.347247 
L 206.405411 235.272515 
L 206.448698 235.331122 
L 206.583971 235.867281 
L 207.11424 238.587001 
L 207.160233 238.472215 
L 207.281978 237.006029 
L 207.682385 232.894533 
L 207.971869 230.462878 
L 209.140625 207.720958 
L 209.348945 197.853014 
L 209.440931 181.401937 
L 209.497745 106.278924 
L 209.55456 180.036856 
L 209.719593 227.653722 
L 209.803462 230.069277 
L 209.857571 229.721292 
L 210.374313 223.190821 
L 210.690851 217.442524 
L 210.964102 208.725113 
L 211.093964 196.755797 
L 211.145367 169.140686 
L 211.180538 86.459468 
L 211.248175 179.623081 
L 211.405091 233.556631 
L 211.505193 237.390923 
L 211.54848 237.213989 
L 211.873135 235.787322 
L 211.986764 235.738872 
L 212.016524 235.767134 
L 212.157207 236.119407 
L 212.912029 238.749008 
L 212.966138 238.725766 
L 213.409833 238.660614 
L 213.561338 239.213069 
L 214.443316 243.261886 
L 214.927593 244.038895 
L 215.092625 244.705708 
L 215.457862 247.46274 
L 215.847447 249.490276 
L 215.898851 249.551579 
L 215.915084 249.413141 
L 216.123404 248.023769 
L 216.142342 248.034238 
L 216.231622 248.294689 
L 216.507578 250.037718 
L 216.788945 251.143975 
L 216.805178 251.133514 
L 217.021615 250.893076 
L 217.081135 250.99704 
L 217.251578 251.734218 
L 218.000989 255.264101 
L 218.076742 255.172498 
L 218.285062 254.86323 
L 218.317527 254.888841 
L 218.441978 255.204242 
L 218.671942 256.543533 
L 218.793687 256.874038 
L 218.826153 256.823345 
L 218.969542 255.926236 
L 219.134575 255.534664 
L 219.153513 255.544167 
L 219.499811 255.740116 
L 219.518749 255.709668 
L 219.724364 255.052291 
L 220.251927 251.925467 
L 220.341207 252.082905 
L 220.587404 253.137648 
L 220.652335 252.706621 
L 220.74432 252.442735 
L 220.795724 252.522514 
L 220.998633 253.4584 
L 221.261062 254.183133 
L 221.385513 254.286543 
L 221.601949 254.478311 
L 221.777804 254.535451 
L 221.959069 255.000999 
L 222.029411 254.751376 
L 222.481222 252.591121 
L 222.519098 252.618454 
L 222.55968 252.673752 
L 222.592145 252.548084 
L 223.42272 247.349349 
L 223.484945 247.403832 
L 223.636451 247.849892 
L 223.969222 248.688553 
L 224.304698 248.819247 
L 224.431855 248.838184 
L 224.439971 248.849449 
L 224.580655 249.25636 
L 225.35712 252.906963 
L 225.449105 252.497476 
L 225.522153 252.394763 
L 225.573556 252.460392 
L 225.711535 253.039547 
L 226.138996 254.887937 
L 226.404131 256.383901 
L 226.488 255.961012 
L 226.596218 255.761126 
L 226.642211 255.78642 
L 226.72608 255.853526 
L 226.747724 255.737918 
L 227.069673 251.771628 
L 227.326691 249.765454 
L 227.832611 248.777773 
L 227.870487 248.807499 
L 227.924596 248.848923 
L 227.965178 248.747807 
L 228.170793 247.424745 
L 229.009484 241.860012 
L 229.109585 241.980399 
L 229.515404 242.632772 
L 229.631738 242.771044 
L 229.810298 243.443163 
L 230.116015 244.649944 
L 230.151185 244.621726 
L 230.259404 244.297475 
L 231.106211 240.806459 
L 231.206313 240.911125 
L 231.328058 241.234193 
L 231.387578 241.039978 
L 231.812335 239.404132 
L 231.820451 239.405874 
L 231.912436 239.313592 
L 232.177571 238.665459 
L 232.361542 236.670198 
L 232.672669 234.142241 
L 232.816058 233.877019 
L 232.848524 233.893728 
L 232.926982 233.802152 
L 233.27328 233.300036 
L 233.286807 233.30831 
L 233.427491 233.550941 
L 233.546531 233.599601 
L 233.568175 233.575363 
L 233.679098 233.162757 
L 234.168785 231.303201 
L 234.312175 231.169634 
L 234.336524 231.184739 
L 234.558371 231.518606 
L 234.631418 231.659604 
L 234.685527 231.550845 
L 235.069702 230.642348 
L 235.145455 230.452706 
L 235.453876 228.940624 
L 235.662196 226.393699 
L 236.078836 221.941528 
L 236.235753 219.447971 
L 236.592873 208.746733 
L 236.931055 196.101079 
L 237.058211 182.037219 
L 237.115025 141.951716 
L 237.136669 119.228967 
L 237.198895 184.133339 
L 237.396393 223.268764 
L 237.477556 224.057199 
L 237.531665 223.961423 
L 237.67776 223.777302 
L 237.710225 223.806955 
L 237.815738 224.160096 
L 238.088989 226.19858 
L 238.316247 228.622228 
L 238.373062 228.123122 
L 238.74912 224.755927 
L 238.998022 223.620503 
L 239.238807 223.712637 
L 239.382196 224.390815 
L 240.036916 229.691084 
L 241.127215 241.651263 
L 241.435636 242.703845 
L 241.722415 244.974647 
L 242.869527 255.19899 
L 243.039971 255.64359 
L 243.056204 255.63719 
L 243.548596 255.469899 
L 243.673047 255.705534 
L 244.111331 257.394287 
L 244.503622 258.918019 
L 244.744407 260.103329 
L 245.066356 261.821385 
L 245.109644 261.768798 
L 245.426182 261.065096 
L 245.496524 261.149395 
L 245.842822 262.070158 
L 246.09984 263.479193 
L 246.659869 268.115341 
L 246.949353 269.900154 
L 246.968291 269.893674 
L 247.098153 269.689081 
L 247.1712 268.887181 
L 247.452567 266.687067 
L 247.571607 266.535803 
L 247.609484 266.555427 
L 247.828625 266.600413 
L 247.844858 266.559584 
L 248.112698 265.568221 
L 248.2128 265.720883 
L 248.664611 266.445884 
L 248.940567 267.723795 
L 249.032553 267.488993 
L 249.232756 267.067551 
L 249.2544 267.079613 
L 249.67104 267.553432 
L 250.066036 268.834927 
L 250.62336 270.843941 
L 250.688291 270.735462 
L 250.975069 269.072344 
L 251.594618 262.581177 
L 251.773178 262.36321 
L 251.905745 262.479997 
L 252.078895 263.043936 
L 252.387316 264.973626 
L 252.441425 265.221675 
L 252.49824 264.966937 
L 252.91488 262.43252 
L 252.928407 262.437113 
L 253.028509 262.621581 
L 253.231418 263.601316 
L 253.24224 263.651426 
L 253.288233 263.265621 
L 253.507375 262.046986 
L 253.564189 262.041707 
L 253.602065 262.103574 
L 253.899665 263.082655 
L 254.227025 265.308853 
L 254.397469 265.712557 
L 254.570618 266.186332 
L 254.851985 267.772565 
L 255.11712 269.007721 
L 255.136058 268.969461 
L 255.255098 268.09815 
L 255.476945 267.225461 
L 255.566225 267.349794 
L 255.788073 268.232957 
L 256.093789 269.10092 
L 256.18848 269.0024 
L 256.469847 268.515055 
L 256.832378 268.485352 
L 257.013644 268.304097 
L 257.046109 268.333202 
L 257.189498 268.679006 
L 257.579084 269.6449 
L 257.776582 270.070452 
L 258.068771 271.369783 
L 258.385309 272.487312 
L 258.647738 272.875155 
L 258.677498 272.824945 
L 258.826298 272.061358 
L 259.215884 269.165693 
L 259.513484 267.408469 
L 259.797556 266.91733 
L 259.932829 267.083655 
L 260.195258 267.356198 
L 260.509091 267.779277 
L 260.59296 267.616932 
L 260.814807 266.76694 
L 261.112407 263.819402 
L 261.428945 261.671148 
L 261.491171 261.675253 
L 261.526342 261.730771 
L 261.677847 262.307301 
L 262.005207 264.629762 
L 263.244305 274.117415 
L 263.255127 274.112655 
L 263.303825 273.90227 
L 263.706938 270.947545 
L 263.771869 271.014331 
L 263.931491 271.548596 
L 264.272378 272.788642 
L 264.310255 272.768084 
L 264.477993 272.498737 
L 264.835113 271.280292 
L 265.181411 268.505425 
L 265.552058 265.11712 
L 265.644044 265.024186 
L 265.690036 265.071194 
L 265.83072 265.513548 
L 266.363695 267.912652 
L 266.409687 267.57537 
L 266.772218 263.192207 
L 266.939956 262.953863 
L 266.964305 262.969076 
L 267.218618 263.187406 
L 267.267316 263.102522 
L 267.386356 262.505974 
L 267.613615 261.743434 
L 267.619025 261.744599 
L 267.738065 261.897296 
L 268.016727 262.654305 
L 268.070836 262.332345 
L 268.36032 260.750322 
L 268.495593 260.484702 
L 268.817542 259.716164 
L 268.979869 259.578248 
L 269.004218 259.597189 
L 269.128669 259.887506 
L 269.731985 262.399139 
L 269.805033 261.942009 
L 269.964655 261.377893 
L 269.994415 261.394185 
L 270.159447 261.387384 
L 270.278487 261.446374 
L 270.424582 261.942354 
L 270.911564 263.77417 
L 271.138822 264.188029 
L 271.144233 264.185147 
L 271.219985 263.967599 
L 271.458065 263.409379 
L 271.474298 263.414797 
L 271.69344 263.619861 
L 271.747549 263.712853 
L 271.769193 263.546567 
L 272.018095 259.263764 
L 272.321105 254.678811 
L 272.599767 253.584588 
L 272.680931 253.684972 
L 272.791855 253.847086 
L 272.845964 253.806824 
L 272.894662 253.616319 
L 273.12192 253.021532 
L 273.322124 253.087283 
L 273.579142 253.796901 
L 274.287971 255.962418 
L 275.123956 260.703592 
L 275.151011 260.657623 
L 275.253818 259.841208 
L 275.589295 257.578735 
L 275.824669 257.077373 
L 276.254836 254.223734 
L 276.511855 252.719072 
L 276.517265 252.71998 
L 276.601135 252.864134 
L 276.795927 253.749029 
L 277.477702 257.248706 
L 277.621091 257.381422 
L 277.859171 257.878715 
L 278.094545 259.25537 
L 278.59776 262.165632 
L 278.811491 262.601528 
L 278.887244 262.492667 
L 279.152378 261.766301 
L 279.19296 261.798566 
L 279.366109 262.206436 
L 279.623127 263.243045 
L 279.69888 263.5378 
L 279.742167 263.304198 
L 280.350895 258.649025 
L 280.380655 258.67247 
L 280.486167 259.029579 
L 280.732364 260.853499 
L 280.916335 262.098778 
L 280.975855 262.051888 
L 281.446604 261.347992 
L 281.72256 260.67744 
L 281.733382 260.681696 
L 281.825367 260.79227 
L 281.847011 260.634204 
L 282.22848 256.802566 
L 282.271767 256.854228 
L 282.393513 257.424815 
L 283.367476 263.128042 
L 283.794938 264.792819 
L 283.838225 264.320969 
L 284.152058 261.29491 
L 284.211578 261.27196 
L 284.262982 261.325336 
L 284.620102 261.639652 
L 284.722909 261.752871 
L 284.887942 262.391336 
L 285.128727 263.055789 
L 285.261295 263.345886 
L 285.309993 263.520491 
L 285.350575 263.262772 
L 285.5616 262.055897 
L 285.583244 262.069603 
L 285.688756 262.360519 
L 285.951185 263.897244 
L 286.227142 264.866955 
L 286.392175 265.150211 
L 286.984669 266.518997 
L 287.133469 266.65877 
L 287.211927 266.820058 
L 287.252509 266.662065 
L 288.047913 261.773974 
L 288.134487 261.747282 
L 288.177775 261.777405 
L 288.350924 262.033372 
L 288.59712 262.983484 
L 288.708044 262.708353 
L 289.105745 261.395052 
L 289.203142 261.431941 
L 289.216669 261.453746 
L 289.368175 261.948429 
L 289.660364 263.833515 
L 289.941731 265.353961 
L 289.960669 265.326992 
L 290.060771 264.735723 
L 290.396247 263.000118 
L 290.496349 263.071431 
L 290.780422 263.831274 
L 290.877818 263.573741 
L 290.972509 263.477599 
L 291.018502 263.525718 
L 291.15648 263.977098 
L 291.916713 267.010498 
L 292.206196 267.494871 
L 292.327942 267.405874 
L 292.382051 267.274254 
L 292.476742 266.434055 
L 292.8528 262.473552 
L 292.952902 262.33596 
L 292.996189 262.377112 
L 293.139578 262.816991 
L 293.705018 265.280488 
L 294.173062 267.269787 
L 294.465251 268.34975 
L 295.225484 271.829437 
L 295.266065 271.821298 
L 295.444625 271.682504 
L 295.698938 271.378361 
L 295.94784 271.099303 
L 296.626909 264.432202 
L 296.938036 259.382322 
L 297.284335 257.525488 
L 297.484538 257.390366 
L 297.657687 257.345376 
L 298.355695 258.039291 
L 298.683055 259.420611 
L 298.750691 259.062309 
L 298.964422 258.128165 
L 298.98336 258.137324 
L 299.075345 258.368963 
L 299.78688 261.721934 
L 299.960029 262.18214 
L 300.533585 264.066895 
L 300.779782 265.17501 
L 300.863651 264.95138 
L 301.199127 263.124152 
L 301.296524 263.312001 
L 301.499433 264.413249 
L 301.861964 265.945506 
L 302.170385 267.287658 
L 302.235316 267.189292 
L 302.562676 266.550177 
L 302.611375 266.595622 
L 302.865687 266.938048 
L 302.91168 266.844115 
L 303.428422 265.360562 
L 303.579927 265.228246 
L 303.606982 265.249758 
L 303.739549 265.555605 
L 303.988451 266.825393 
L 304.353687 268.438886 
L 304.632349 269.226267 
L 304.63776 269.231474 
L 304.659404 269.0873 
L 305.076044 265.436164 
L 305.08416 265.43754 
L 305.192378 265.578645 
L 305.373644 266.298536 
L 305.733469 268.85793 
L 306.160931 271.467216 
L 306.445004 272.618782 
L 306.872465 274.699661 
L 306.934691 274.610772 
L 307.126778 273.846309 
L 307.381091 271.675495 
L 308.027695 265.94386 
L 308.53632 263.482708 
L 308.644538 263.587679 
L 308.828509 264.04701 
L 308.901556 263.872336 
L 309.326313 262.745418 
L 309.594153 262.53596 
L 309.751069 262.275219 
L 309.783535 262.299228 
L 309.90528 262.60892 
L 310.389556 264.029576 
L 310.422022 263.803153 
L 310.82784 260.422257 
L 311.220131 259.061705 
L 311.285062 259.136937 
L 311.723345 260.303731 
L 311.83968 260.493625 
L 311.880262 260.45652 
L 312.064233 260.317152 
L 312.093993 260.347399 
L 312.237382 260.725031 
L 312.534982 261.506374 
L 312.570153 261.477043 
L 312.82176 261.340231 
L 312.959738 261.153235 
L 313.081484 261.053727 
L 313.11936 261.090331 
L 313.251927 261.471656 
L 313.928291 263.857603 
L 314.039215 264.002949 
L 314.082502 263.876724 
L 314.290822 262.260585 
L 314.626298 260.449109 
L 314.812975 259.621213 
L 315.080815 258.765083 
L 315.335127 258.062002 
L 315.427113 257.91317 
L 315.475811 257.970231 
L 315.621905 258.003788 
L 315.768 258.052369 
L 315.854575 258.043041 
L 315.884335 258.004863 
L 316.046662 257.622012 
L 316.384844 256.119774 
L 316.533644 256.176953 
L 316.679738 256.613986 
L 316.947578 258.301322 
L 317.039564 258.763807 
L 317.101789 258.593658 
L 317.212713 258.408245 
L 317.256 258.458229 
L 317.380451 258.951483 
L 317.694284 261.413482 
L 317.951302 262.448495 
L 318.045993 262.331237 
L 318.251607 262.205867 
L 318.489687 262.418536 
L 319.103825 264.042256 
L 319.420364 265.945965 
L 319.864058 268.373143 
L 319.907345 268.43578 
L 319.958749 268.31574 
L 320.267171 267.336553 
L 320.310458 267.371126 
L 320.44032 267.734267 
L 320.710865 269.308453 
L 321.241135 272.272018 
L 321.460276 272.682626 
L 321.641542 272.875502 
L 321.671302 272.825284 
L 321.874211 271.963421 
L 322.73184 268.720919 
L 322.853585 268.862756 
L 323.045673 269.117968 
L 323.083549 269.094856 
L 323.29728 269.075437 
L 323.427142 269.197178 
L 323.473135 269.119981 
L 323.700393 268.798532 
L 323.727447 268.817529 
L 323.86272 269.101563 
L 324.119738 270.28344 
L 324.392989 271.865396 
L 324.463331 271.617869 
L 324.704116 270.946756 
L 324.898909 270.837325 
L 324.925964 270.869085 
L 325.080175 271.284776 
L 325.456233 273.174468 
L 325.580684 273.576664 
L 325.645615 273.509616 
L 325.94592 273.24008 
L 326.043316 272.987241 
L 326.430196 270.73899 
L 326.790022 268.020841 
L 327.366284 265.521212 
L 327.471796 265.440509 
L 327.509673 265.475784 
L 327.650356 265.8508 
L 327.929018 267.367152 
L 328.037236 267.794041 
L 328.083229 267.648644 
L 328.388945 266.04425 
L 328.451171 266.119604 
L 328.602676 266.714443 
L 328.762298 267.074416 
L 328.781236 267.068467 
L 328.870516 266.916892 
L 329.16 265.188138 
L 329.901295 257.849852 
L 330.212422 256.599581 
L 330.361222 256.041617 
L 330.393687 256.070526 
L 330.515433 256.492183 
L 330.76704 257.234177 
L 330.772451 257.232483 
L 330.829265 257.082672 
L 331.075462 255.289649 
L 331.364945 254.177104 
L 331.554327 254.058644 
L 331.662545 254.199444 
L 331.830284 254.7426 
L 331.906036 254.513312 
L 332.073775 254.17887 
L 332.098124 254.194203 
L 332.198225 254.463435 
L 332.411956 255.850506 
L 332.796131 257.995092 
L 333.145135 259.334411 
L 333.521193 262.230473 
L 333.737629 263.094813 
L 334.04064 263.193309 
L 334.230022 263.871997 
L 334.297658 263.575226 
L 334.595258 262.285243 
L 334.790051 262.232779 
L 334.914502 262.443679 
L 335.212102 262.95457 
L 335.455593 263.481716 
L 335.772131 264.566722 
L 335.856 264.403242 
L 336.072436 263.239765 
L 336.348393 261.308435 
L 336.57024 260.204405 
L 336.648698 260.302796 
L 336.913833 260.861213 
L 336.921949 260.700763 
L 337.127564 258.357589 
L 337.130269 258.358231 
L 337.197905 258.502791 
L 337.481978 259.713907 
L 337.782284 260.680516 
L 337.825571 260.644005 
L 337.847215 260.59596 
L 337.993309 259.95406 
L 338.250327 259.014743 
L 338.339607 259.002495 
L 338.372073 259.046208 
L 338.510051 259.514062 
L 340.26048 268.662876 
L 340.655476 270.696407 
L 340.777222 270.826769 
L 340.815098 270.754543 
L 340.94496 269.957187 
L 341.27232 267.751576 
L 341.437353 267.564679 
L 341.453585 267.57289 
L 341.578036 267.78835 
L 341.797178 268.730299 
L 342.059607 269.942617 
L 342.102895 269.825893 
L 342.676451 267.235366 
L 343.060625 266.024261 
L 343.439389 261.200251 
L 343.53408 261.141361 
L 343.574662 261.184727 
L 343.704524 261.607403 
L 343.961542 263.384518 
L 344.343011 265.678283 
L 344.75424 267.467278 
L 345.411665 270.886063 
L 345.422487 270.875569 
L 345.484713 270.487289 
L 346.052858 266.285045 
L 346.158371 266.238179 
L 346.193542 266.273788 
L 346.336931 266.657746 
L 346.610182 268.163231 
L 347.240553 271.683257 
L 347.400175 271.809512 
L 347.543564 272.012556 
L 347.703185 272.384012 
L 347.765411 272.261802 
L 348.098182 271.464872 
L 348.127942 271.482234 
L 348.263215 271.743522 
L 348.606807 272.411098 
L 348.752902 272.497431 
L 348.931462 272.983374 
L 349.058618 273.413534 
L 349.096495 273.204708 
L 349.521251 270.516781 
L 349.697105 269.940109 
L 349.935185 265.244923 
L 349.997411 265.136005 
L 350.05152 265.232879 
L 351.147229 268.629826 
L 351.209455 268.540383 
L 351.607156 267.769076 
L 351.65856 267.816058 
L 351.810065 268.21595 
L 352.597353 270.874917 
L 352.618996 270.85664 
L 352.748858 270.499121 
L 352.927418 268.029102 
L 353.233135 265.637514 
L 353.454982 265.305793 
L 353.482036 265.32529 
L 353.603782 265.61587 
L 353.836451 266.890076 
L 354.623738 271.580322 
L 354.729251 271.501322 
L 354.926749 270.892278 
L 355.267636 267.584504 
L 355.551709 265.854655 
L 355.711331 265.711493 
L 355.732975 265.72661 
L 355.860131 265.992393 
L 356.073862 266.311812 
L 356.236189 266.768147 
L 356.636596 268.866403 
L 356.977484 270.721297 
L 357.04512 270.238457 
L 357.277789 269.134848 
L 357.383302 268.9155 
L 357.559156 268.622356 
L 357.586211 268.638998 
L 357.710662 268.908944 
L 357.951447 270.09749 
L 358.535825 274.435219 
L 358.857775 276.075341 
L 359.428625 277.80829 
L 359.436742 277.806073 
L 359.458385 277.69699 
L 359.791156 275.430276 
L 359.845265 275.481572 
L 360.056291 275.692939 
L 360.08064 275.673848 
L 360.324131 275.590192 
L 360.389062 275.573409 
L 360.413411 275.523938 
L 360.545978 274.746255 
L 360.819229 271.960161 
L 361.152 268.849988 
L 361.684975 266.284003 
L 361.766138 266.413768 
L 362.161135 267.89402 
L 362.369455 268.333697 
L 362.599418 268.390879 
L 362.767156 268.936468 
L 362.829382 269.137391 
L 362.891607 268.992746 
L 363.11616 268.53956 
L 363.135098 268.547682 
L 363.362356 268.795937 
L 363.559855 269.47444 
L 363.971084 271.117128 
L 364.011665 271.081371 
L 364.474298 270.538321 
L 364.512175 270.576398 
L 364.658269 270.570891 
L 365.045149 270.473569 
L 365.180422 270.664805 
L 365.632233 271.835275 
L 365.73504 271.723763 
L 366.00288 271.305377 
L 366.230138 270.835267 
L 366.243665 270.841164 
L 366.392465 271.061095 
L 366.625135 271.703553 
L 366.725236 271.957986 
L 366.784756 271.896909 
L 366.957905 271.79395 
L 366.979549 271.813611 
L 367.125644 272.138317 
L 367.333964 272.504804 
L 367.350196 272.485286 
L 367.46112 271.956657 
L 367.72896 271.141317 
L 367.893993 270.948247 
L 367.918342 270.963678 
L 368.134778 271.283032 
L 368.180771 271.068464 
L 368.564945 268.931429 
L 368.732684 268.847008 
L 368.751622 268.863739 
L 368.922065 269.180168 
L 368.997818 268.968923 
L 369.271069 268.271336 
L 369.287302 268.278295 
L 369.398225 268.476738 
L 369.609251 269.426814 
L 369.666065 269.730525 
L 369.725585 269.449036 
L 369.925789 268.976106 
L 370.004247 268.964152 
L 370.039418 269.013005 
L 370.182807 269.517681 
L 370.924102 272.659757 
L 371.118895 272.734233 
L 371.135127 272.71489 
L 371.394851 272.465306 
L 371.427316 272.497816 
L 371.592349 272.888979 
L 371.816902 273.547441 
L 371.871011 273.368522 
L 372.084742 272.596659 
L 372.119913 272.623525 
L 372.241658 272.973049 
L 372.528436 274.07029 
L 372.593367 273.9713 
L 372.807098 273.08379 
L 373.199389 269.192727 
L 373.280553 269.264302 
L 373.445585 269.738796 
L 373.748596 271.440906 
L 374.90112 278.40292 
L 375.044509 278.457959 
L 375.060742 278.428825 
L 375.166255 277.771565 
L 375.534196 275.827873 
L 375.67488 275.698586 
L 375.701935 275.716506 
L 375.845324 275.992299 
L 376.516276 277.665717 
L 376.543331 277.652818 
L 376.71648 277.427885 
L 376.878807 276.315918 
L 377.168291 273.931521 
L 377.584931 273.103989 
L 377.774313 272.772526 
L 377.793251 272.782163 
L 377.858182 272.78171 
L 377.896058 272.724747 
L 378.015098 272.668618 
L 378.047564 272.698533 
L 378.269411 273.112453 
L 378.437149 273.464999 
L 378.480436 273.376915 
L 378.886255 272.215375 
L 378.916015 272.2327 
L 379.045876 272.307176 
L 379.083753 272.242331 
L 379.332655 271.858653 
L 379.36512 271.884046 
L 379.505804 272.203772 
L 379.69248 273.013028 
L 379.708713 272.545422 
L 379.917033 269.370401 
L 379.952204 269.346383 
L 380.003607 269.438095 
L 380.241687 269.907177 
L 380.980276 273.04429 
L 381.172364 273.316708 
L 381.199418 273.303515 
L 381.29952 273.127476 
L 381.789207 271.314675 
L 381.86496 271.384017 
L 381.900131 271.405124 
L 381.935302 271.307735 
L 382.054342 270.160156 
L 382.411462 267.237058 
L 382.636015 266.190378 
L 382.890327 265.34546 
L 382.987724 265.442608 
L 383.160873 266.060474 
L 383.355665 266.516514 
L 383.377309 266.489305 
L 383.455767 266.039462 
L 383.758778 264.234025 
L 383.869702 264.329273 
L 384.023913 264.896517 
L 384.345862 266.271006 
L 384.39456 266.244597 
L 384.532538 266.286438 
L 384.740858 266.673427 
L 384.965411 267.80261 
L 385.349585 269.580739 
L 385.571433 269.942796 
L 385.620131 269.800909 
L 385.901498 268.756075 
L 385.944785 268.790724 
L 386.074647 269.162476 
L 386.158516 269.43746 
L 386.220742 269.306202 
L 386.556218 268.324601 
L 386.62656 268.375068 
L 386.740189 268.273645 
L 386.870051 267.734041 
L 387.010735 266.213782 
L 387.270458 264.262054 
L 387.432785 264.130615 
L 387.505833 264.017582 
L 387.946822 263.046987 
L 388.182196 263.112872 
L 388.306647 263.314316 
L 388.506851 264.179932 
L 388.896436 267.072238 
L 389.340131 270.309265 
L 389.378007 270.233362 
L 389.564684 269.804049 
L 389.607971 269.845195 
L 389.786531 270.346775 
L 391.250182 275.541342 
L 391.32864 275.39378 
L 391.850793 274.377739 
L 391.931956 274.259021 
L 392.113222 271.332452 
L 392.494691 266.965639 
L 392.659724 265.538089 
L 392.957324 263.294333 
L 393.260335 262.482878 
L 393.395607 262.574642 
L 393.625571 262.521919 
L 393.779782 262.433921 
L 393.814953 262.468998 
L 394.580596 263.190536 
L 394.81056 264.350419 
L 395.392233 268.598397 
L 395.508567 268.137735 
L 395.841338 265.371447 
L 396.138938 263.38314 
L 396.525818 262.57236 
L 396.547462 262.585106 
L 396.666502 262.826921 
L 396.885644 263.898576 
L 397.180538 265.048605 
L 397.213004 265.06624 
L 397.264407 264.976707 
L 397.448378 264.724082 
L 397.480844 264.748486 
L 397.626938 265.080899 
L 397.837964 265.687947 
L 397.911011 265.576852 
L 398.14368 265.35939 
L 398.314124 265.291396 
L 398.333062 265.311947 
L 398.473745 265.670133 
L 398.487273 265.722395 
L 398.487273 265.722395 
" clip-path="url(#p1cf2d256ff)" style="fill: none; stroke: #ff0000; stroke-width: 1.5; stroke-linecap: square"/>
   </g>
   <g id="line2d_18">
    <path d="M 344.378182 260.064 
L 398.379055 260.064 
L 398.379055 260.064 
" clip-path="url(#p1cf2d256ff)" style="fill: none; stroke: #000000; stroke-width: 1.5; stroke-linecap: square"/>
   </g>
   <g id="line2d_19">
    <path d="M 344.378182 231.552 
L 344.378182 229.6512 
L 344.378182 227.7504 
L 344.378182 225.8496 
L 344.378182 223.9488 
L 344.378182 222.048 
L 344.378182 220.1472 
L 344.378182 218.2464 
L 344.378182 216.3456 
L 344.378182 214.4448 
L 344.378182 212.544 
L 344.378182 210.6432 
L 344.378182 208.7424 
L 344.378182 206.8416 
L 344.378182 204.9408 
L 344.378182 203.04 
L 344.378182 201.1392 
L 344.378182 199.2384 
L 344.378182 197.3376 
L 344.378182 195.4368 
" clip-path="url(#p1cf2d256ff)" style="fill: none; stroke: #000000; stroke-width: 1.5; stroke-linecap: square"/>
   </g>
   <g id="patch_3">
    <path d="M 57.6 307.584 
L 57.6 41.472 
" style="fill: none; stroke: #000000; stroke-width: 0.8; stroke-linejoin: miter; stroke-linecap: square"/>
   </g>
   <g id="patch_4">
    <path d="M 57.6 307.584 
L 414.72 307.584 
" style="fill: none; stroke: #000000; stroke-width: 0.8; stroke-linejoin: miter; stroke-linecap: square"/>
   </g>
   <g id="text_18">
    <!-- 500 ms -->
    <g transform="translate(344.378182 258.1632) scale(0.1 -0.1)">
     <use xlink:href="#DejaVuSans-35"/>
     <use xlink:href="#DejaVuSans-30" x="63.623047"/>
     <use xlink:href="#DejaVuSans-30" x="127.246094"/>
     <use xlink:href="#DejaVuSans-20" x="190.869141"/>
     <use xlink:href="#DejaVuSans-6d" x="222.65625"/>
     <use xlink:href="#DejaVuSans-73" x="320.068359"/>
    </g>
   </g>
   <g id="text_19">
    <!-- 20 mV -->
    <g transform="translate(349.789091 193.536) scale(0.1 -0.1)">
     <use xlink:href="#DejaVuSans-32"/>
     <use xlink:href="#DejaVuSans-30" x="63.623047"/>
     <use xlink:href="#DejaVuSans-20" x="127.246094"/>
     <use xlink:href="#DejaVuSans-6d" x="159.033203"/>
     <use xlink:href="#DejaVuSans-56" x="256.445312"/>
    </g>
   </g>
  </g>
 </g>
 <defs>
  <clipPath id="p1cf2d256ff">
   <rect x="57.6" y="41.472" width="357.12" height="266.112"/>
  </clipPath>
 </defs>
</svg>
