<?xml version="1.0" encoding="utf-8" standalone="no"?>
<!DOCTYPE svg PUBLIC "-//W3C//DTD SVG 1.1//EN"
  "http://www.w3.org/Graphics/SVG/1.1/DTD/svg11.dtd">
<svg xmlns:xlink="http://www.w3.org/1999/xlink" width="460.8pt" height="345.6pt" viewBox="0 0 460.8 345.6" xmlns="http://www.w3.org/2000/svg" version="1.1">
 <metadata>
  <rdf:RDF xmlns:dc="http://purl.org/dc/elements/1.1/" xmlns:cc="http://creativecommons.org/ns#" xmlns:rdf="http://www.w3.org/1999/02/22-rdf-syntax-ns#">
   <cc:Work>
    <dc:type rdf:resource="http://purl.org/dc/dcmitype/StillImage"/>
    <dc:date>2023-02-10T17:52:55.565973</dc:date>
    <dc:format>image/svg+xml</dc:format>
    <dc:creator>
     <cc:Agent>
      <dc:title>Matplotlib v3.6.3, https://matplotlib.org/</dc:title>
     </cc:Agent>
    </dc:creator>
   </cc:Work>
  </rdf:RDF>
 </metadata>
 <defs>
  <style type="text/css">*{stroke-linejoin: round; stroke-linecap: butt}</style>
 </defs>
 <g id="figure_1">
  <g id="patch_1">
   <path d="M 0 345.6 
L 460.8 345.6 
L 460.8 0 
L 0 0 
z
" style="fill: #ffffff"/>
  </g>
  <g id="axes_1">
   <g id="patch_2">
    <path d="M 57.6 307.584 
L 414.72 307.584 
L 414.72 41.472 
L 57.6 41.472 
z
" style="fill: #ffffff"/>
   </g>
   <g id="matplotlib.axis_1">
    <g id="xtick_1">
     <g id="line2d_1">
      <defs>
       <path id="mea45608d8a" d="M 0 0 
L 0 3.5 
" style="stroke: #000000; stroke-width: 0.8"/>
      </defs>
      <g>
       <use xlink:href="#mea45608d8a" x="73.832727" y="307.584" style="stroke: #000000; stroke-width: 0.8"/>
      </g>
     </g>
     <g id="text_1">
      <!-- 0 -->
      <g transform="translate(70.651477 322.182437) scale(0.1 -0.1)">
       <defs>
        <path id="DejaVuSans-30" d="M 2034 4250 
Q 1547 4250 1301 3770 
Q 1056 3291 1056 2328 
Q 1056 1369 1301 889 
Q 1547 409 2034 409 
Q 2525 409 2770 889 
Q 3016 1369 3016 2328 
Q 3016 3291 2770 3770 
Q 2525 4250 2034 4250 
z
M 2034 4750 
Q 2819 4750 3233 4129 
Q 3647 3509 3647 2328 
Q 3647 1150 3233 529 
Q 2819 -91 2034 -91 
Q 1250 -91 836 529 
Q 422 1150 422 2328 
Q 422 3509 836 4129 
Q 1250 4750 2034 4750 
z
" transform="scale(0.015625)"/>
       </defs>
       <use xlink:href="#DejaVuSans-30"/>
      </g>
     </g>
    </g>
    <g id="xtick_2">
     <g id="line2d_2">
      <g>
       <use xlink:href="#mea45608d8a" x="127.941818" y="307.584" style="stroke: #000000; stroke-width: 0.8"/>
      </g>
     </g>
     <g id="text_2">
      <!-- 500 -->
      <g transform="translate(118.398068 322.182437) scale(0.1 -0.1)">
       <defs>
        <path id="DejaVuSans-35" d="M 691 4666 
L 3169 4666 
L 3169 4134 
L 1269 4134 
L 1269 2991 
Q 1406 3038 1543 3061 
Q 1681 3084 1819 3084 
Q 2600 3084 3056 2656 
Q 3513 2228 3513 1497 
Q 3513 744 3044 326 
Q 2575 -91 1722 -91 
Q 1428 -91 1123 -41 
Q 819 9 494 109 
L 494 744 
Q 775 591 1075 516 
Q 1375 441 1709 441 
Q 2250 441 2565 725 
Q 2881 1009 2881 1497 
Q 2881 1984 2565 2268 
Q 2250 2553 1709 2553 
Q 1456 2553 1204 2497 
Q 953 2441 691 2322 
L 691 4666 
z
" transform="scale(0.015625)"/>
       </defs>
       <use xlink:href="#DejaVuSans-35"/>
       <use xlink:href="#DejaVuSans-30" x="63.623047"/>
       <use xlink:href="#DejaVuSans-30" x="127.246094"/>
      </g>
     </g>
    </g>
    <g id="xtick_3">
     <g id="line2d_3">
      <g>
       <use xlink:href="#mea45608d8a" x="182.050909" y="307.584" style="stroke: #000000; stroke-width: 0.8"/>
      </g>
     </g>
     <g id="text_3">
      <!-- 1000 -->
      <g transform="translate(169.325909 322.182437) scale(0.1 -0.1)">
       <defs>
        <path id="DejaVuSans-31" d="M 794 531 
L 1825 531 
L 1825 4091 
L 703 3866 
L 703 4441 
L 1819 4666 
L 2450 4666 
L 2450 531 
L 3481 531 
L 3481 0 
L 794 0 
L 794 531 
z
" transform="scale(0.015625)"/>
       </defs>
       <use xlink:href="#DejaVuSans-31"/>
       <use xlink:href="#DejaVuSans-30" x="63.623047"/>
       <use xlink:href="#DejaVuSans-30" x="127.246094"/>
       <use xlink:href="#DejaVuSans-30" x="190.869141"/>
      </g>
     </g>
    </g>
    <g id="xtick_4">
     <g id="line2d_4">
      <g>
       <use xlink:href="#mea45608d8a" x="236.16" y="307.584" style="stroke: #000000; stroke-width: 0.8"/>
      </g>
     </g>
     <g id="text_4">
      <!-- 1500 -->
      <g transform="translate(223.435 322.182437) scale(0.1 -0.1)">
       <use xlink:href="#DejaVuSans-31"/>
       <use xlink:href="#DejaVuSans-35" x="63.623047"/>
       <use xlink:href="#DejaVuSans-30" x="127.246094"/>
       <use xlink:href="#DejaVuSans-30" x="190.869141"/>
      </g>
     </g>
    </g>
    <g id="xtick_5">
     <g id="line2d_5">
      <g>
       <use xlink:href="#mea45608d8a" x="290.269091" y="307.584" style="stroke: #000000; stroke-width: 0.8"/>
      </g>
     </g>
     <g id="text_5">
      <!-- 2000 -->
      <g transform="translate(277.544091 322.182437) scale(0.1 -0.1)">
       <defs>
        <path id="DejaVuSans-32" d="M 1228 531 
L 3431 531 
L 3431 0 
L 469 0 
L 469 531 
Q 828 903 1448 1529 
Q 2069 2156 2228 2338 
Q 2531 2678 2651 2914 
Q 2772 3150 2772 3378 
Q 2772 3750 2511 3984 
Q 2250 4219 1831 4219 
Q 1534 4219 1204 4116 
Q 875 4013 500 3803 
L 500 4441 
Q 881 4594 1212 4672 
Q 1544 4750 1819 4750 
Q 2544 4750 2975 4387 
Q 3406 4025 3406 3419 
Q 3406 3131 3298 2873 
Q 3191 2616 2906 2266 
Q 2828 2175 2409 1742 
Q 1991 1309 1228 531 
z
" transform="scale(0.015625)"/>
       </defs>
       <use xlink:href="#DejaVuSans-32"/>
       <use xlink:href="#DejaVuSans-30" x="63.623047"/>
       <use xlink:href="#DejaVuSans-30" x="127.246094"/>
       <use xlink:href="#DejaVuSans-30" x="190.869141"/>
      </g>
     </g>
    </g>
    <g id="xtick_6">
     <g id="line2d_6">
      <g>
       <use xlink:href="#mea45608d8a" x="344.378182" y="307.584" style="stroke: #000000; stroke-width: 0.8"/>
      </g>
     </g>
     <g id="text_6">
      <!-- 2500 -->
      <g transform="translate(331.653182 322.182437) scale(0.1 -0.1)">
       <use xlink:href="#DejaVuSans-32"/>
       <use xlink:href="#DejaVuSans-35" x="63.623047"/>
       <use xlink:href="#DejaVuSans-30" x="127.246094"/>
       <use xlink:href="#DejaVuSans-30" x="190.869141"/>
      </g>
     </g>
    </g>
    <g id="xtick_7">
     <g id="line2d_7">
      <g>
       <use xlink:href="#mea45608d8a" x="398.487273" y="307.584" style="stroke: #000000; stroke-width: 0.8"/>
      </g>
     </g>
     <g id="text_7">
      <!-- 3000 -->
      <g transform="translate(385.762273 322.182437) scale(0.1 -0.1)">
       <defs>
        <path id="DejaVuSans-33" d="M 2597 2516 
Q 3050 2419 3304 2112 
Q 3559 1806 3559 1356 
Q 3559 666 3084 287 
Q 2609 -91 1734 -91 
Q 1441 -91 1130 -33 
Q 819 25 488 141 
L 488 750 
Q 750 597 1062 519 
Q 1375 441 1716 441 
Q 2309 441 2620 675 
Q 2931 909 2931 1356 
Q 2931 1769 2642 2001 
Q 2353 2234 1838 2234 
L 1294 2234 
L 1294 2753 
L 1863 2753 
Q 2328 2753 2575 2939 
Q 2822 3125 2822 3475 
Q 2822 3834 2567 4026 
Q 2313 4219 1838 4219 
Q 1578 4219 1281 4162 
Q 984 4106 628 3988 
L 628 4550 
Q 988 4650 1302 4700 
Q 1616 4750 1894 4750 
Q 2613 4750 3031 4423 
Q 3450 4097 3450 3541 
Q 3450 3153 3228 2886 
Q 3006 2619 2597 2516 
z
" transform="scale(0.015625)"/>
       </defs>
       <use xlink:href="#DejaVuSans-33"/>
       <use xlink:href="#DejaVuSans-30" x="63.623047"/>
       <use xlink:href="#DejaVuSans-30" x="127.246094"/>
       <use xlink:href="#DejaVuSans-30" x="190.869141"/>
      </g>
     </g>
    </g>
    <g id="text_8">
     <!-- Time(ms) -->
     <g transform="translate(212.549844 335.860562) scale(0.1 -0.1)">
      <defs>
       <path id="DejaVuSans-54" d="M -19 4666 
L 3928 4666 
L 3928 4134 
L 2272 4134 
L 2272 0 
L 1638 0 
L 1638 4134 
L -19 4134 
L -19 4666 
z
" transform="scale(0.015625)"/>
       <path id="DejaVuSans-69" d="M 603 3500 
L 1178 3500 
L 1178 0 
L 603 0 
L 603 3500 
z
M 603 4863 
L 1178 4863 
L 1178 4134 
L 603 4134 
L 603 4863 
z
" transform="scale(0.015625)"/>
       <path id="DejaVuSans-6d" d="M 3328 2828 
Q 3544 3216 3844 3400 
Q 4144 3584 4550 3584 
Q 5097 3584 5394 3201 
Q 5691 2819 5691 2113 
L 5691 0 
L 5113 0 
L 5113 2094 
Q 5113 2597 4934 2840 
Q 4756 3084 4391 3084 
Q 3944 3084 3684 2787 
Q 3425 2491 3425 1978 
L 3425 0 
L 2847 0 
L 2847 2094 
Q 2847 2600 2669 2842 
Q 2491 3084 2119 3084 
Q 1678 3084 1418 2786 
Q 1159 2488 1159 1978 
L 1159 0 
L 581 0 
L 581 3500 
L 1159 3500 
L 1159 2956 
Q 1356 3278 1631 3431 
Q 1906 3584 2284 3584 
Q 2666 3584 2933 3390 
Q 3200 3197 3328 2828 
z
" transform="scale(0.015625)"/>
       <path id="DejaVuSans-65" d="M 3597 1894 
L 3597 1613 
L 953 1613 
Q 991 1019 1311 708 
Q 1631 397 2203 397 
Q 2534 397 2845 478 
Q 3156 559 3463 722 
L 3463 178 
Q 3153 47 2828 -22 
Q 2503 -91 2169 -91 
Q 1331 -91 842 396 
Q 353 884 353 1716 
Q 353 2575 817 3079 
Q 1281 3584 2069 3584 
Q 2775 3584 3186 3129 
Q 3597 2675 3597 1894 
z
M 3022 2063 
Q 3016 2534 2758 2815 
Q 2500 3097 2075 3097 
Q 1594 3097 1305 2825 
Q 1016 2553 972 2059 
L 3022 2063 
z
" transform="scale(0.015625)"/>
       <path id="DejaVuSans-28" d="M 1984 4856 
Q 1566 4138 1362 3434 
Q 1159 2731 1159 2009 
Q 1159 1288 1364 580 
Q 1569 -128 1984 -844 
L 1484 -844 
Q 1016 -109 783 600 
Q 550 1309 550 2009 
Q 550 2706 781 3412 
Q 1013 4119 1484 4856 
L 1984 4856 
z
" transform="scale(0.015625)"/>
       <path id="DejaVuSans-73" d="M 2834 3397 
L 2834 2853 
Q 2591 2978 2328 3040 
Q 2066 3103 1784 3103 
Q 1356 3103 1142 2972 
Q 928 2841 928 2578 
Q 928 2378 1081 2264 
Q 1234 2150 1697 2047 
L 1894 2003 
Q 2506 1872 2764 1633 
Q 3022 1394 3022 966 
Q 3022 478 2636 193 
Q 2250 -91 1575 -91 
Q 1294 -91 989 -36 
Q 684 19 347 128 
L 347 722 
Q 666 556 975 473 
Q 1284 391 1588 391 
Q 1994 391 2212 530 
Q 2431 669 2431 922 
Q 2431 1156 2273 1281 
Q 2116 1406 1581 1522 
L 1381 1569 
Q 847 1681 609 1914 
Q 372 2147 372 2553 
Q 372 3047 722 3315 
Q 1072 3584 1716 3584 
Q 2034 3584 2315 3537 
Q 2597 3491 2834 3397 
z
" transform="scale(0.015625)"/>
       <path id="DejaVuSans-29" d="M 513 4856 
L 1013 4856 
Q 1481 4119 1714 3412 
Q 1947 2706 1947 2009 
Q 1947 1309 1714 600 
Q 1481 -109 1013 -844 
L 513 -844 
Q 928 -128 1133 580 
Q 1338 1288 1338 2009 
Q 1338 2731 1133 3434 
Q 928 4138 513 4856 
z
" transform="scale(0.015625)"/>
      </defs>
      <use xlink:href="#DejaVuSans-54"/>
      <use xlink:href="#DejaVuSans-69" x="57.958984"/>
      <use xlink:href="#DejaVuSans-6d" x="85.742188"/>
      <use xlink:href="#DejaVuSans-65" x="183.154297"/>
      <use xlink:href="#DejaVuSans-28" x="244.677734"/>
      <use xlink:href="#DejaVuSans-6d" x="283.691406"/>
      <use xlink:href="#DejaVuSans-73" x="381.103516"/>
      <use xlink:href="#DejaVuSans-29" x="433.203125"/>
     </g>
    </g>
   </g>
   <g id="matplotlib.axis_2">
    <g id="ytick_1">
     <g id="line2d_8">
      <defs>
       <path id="m524915831a" d="M 0 0 
L -3.5 0 
" style="stroke: #000000; stroke-width: 0.8"/>
      </defs>
      <g>
       <use xlink:href="#m524915831a" x="57.6" y="307.584" style="stroke: #000000; stroke-width: 0.8"/>
      </g>
     </g>
     <g id="text_9">
      <!-- −100 -->
      <g transform="translate(23.132812 311.383219) scale(0.1 -0.1)">
       <defs>
        <path id="DejaVuSans-2212" d="M 678 2272 
L 4684 2272 
L 4684 1741 
L 678 1741 
L 678 2272 
z
" transform="scale(0.015625)"/>
       </defs>
       <use xlink:href="#DejaVuSans-2212"/>
       <use xlink:href="#DejaVuSans-31" x="83.789062"/>
       <use xlink:href="#DejaVuSans-30" x="147.412109"/>
       <use xlink:href="#DejaVuSans-30" x="211.035156"/>
      </g>
     </g>
    </g>
    <g id="ytick_2">
     <g id="line2d_9">
      <g>
       <use xlink:href="#m524915831a" x="57.6" y="269.568" style="stroke: #000000; stroke-width: 0.8"/>
      </g>
     </g>
     <g id="text_10">
      <!-- −80 -->
      <g transform="translate(29.495313 273.367219) scale(0.1 -0.1)">
       <defs>
        <path id="DejaVuSans-38" d="M 2034 2216 
Q 1584 2216 1326 1975 
Q 1069 1734 1069 1313 
Q 1069 891 1326 650 
Q 1584 409 2034 409 
Q 2484 409 2743 651 
Q 3003 894 3003 1313 
Q 3003 1734 2745 1975 
Q 2488 2216 2034 2216 
z
M 1403 2484 
Q 997 2584 770 2862 
Q 544 3141 544 3541 
Q 544 4100 942 4425 
Q 1341 4750 2034 4750 
Q 2731 4750 3128 4425 
Q 3525 4100 3525 3541 
Q 3525 3141 3298 2862 
Q 3072 2584 2669 2484 
Q 3125 2378 3379 2068 
Q 3634 1759 3634 1313 
Q 3634 634 3220 271 
Q 2806 -91 2034 -91 
Q 1263 -91 848 271 
Q 434 634 434 1313 
Q 434 1759 690 2068 
Q 947 2378 1403 2484 
z
M 1172 3481 
Q 1172 3119 1398 2916 
Q 1625 2713 2034 2713 
Q 2441 2713 2670 2916 
Q 2900 3119 2900 3481 
Q 2900 3844 2670 4047 
Q 2441 4250 2034 4250 
Q 1625 4250 1398 4047 
Q 1172 3844 1172 3481 
z
" transform="scale(0.015625)"/>
       </defs>
       <use xlink:href="#DejaVuSans-2212"/>
       <use xlink:href="#DejaVuSans-38" x="83.789062"/>
       <use xlink:href="#DejaVuSans-30" x="147.412109"/>
      </g>
     </g>
    </g>
    <g id="ytick_3">
     <g id="line2d_10">
      <g>
       <use xlink:href="#m524915831a" x="57.6" y="231.552" style="stroke: #000000; stroke-width: 0.8"/>
      </g>
     </g>
     <g id="text_11">
      <!-- −60 -->
      <g transform="translate(29.495313 235.351219) scale(0.1 -0.1)">
       <defs>
        <path id="DejaVuSans-36" d="M 2113 2584 
Q 1688 2584 1439 2293 
Q 1191 2003 1191 1497 
Q 1191 994 1439 701 
Q 1688 409 2113 409 
Q 2538 409 2786 701 
Q 3034 994 3034 1497 
Q 3034 2003 2786 2293 
Q 2538 2584 2113 2584 
z
M 3366 4563 
L 3366 3988 
Q 3128 4100 2886 4159 
Q 2644 4219 2406 4219 
Q 1781 4219 1451 3797 
Q 1122 3375 1075 2522 
Q 1259 2794 1537 2939 
Q 1816 3084 2150 3084 
Q 2853 3084 3261 2657 
Q 3669 2231 3669 1497 
Q 3669 778 3244 343 
Q 2819 -91 2113 -91 
Q 1303 -91 875 529 
Q 447 1150 447 2328 
Q 447 3434 972 4092 
Q 1497 4750 2381 4750 
Q 2619 4750 2861 4703 
Q 3103 4656 3366 4563 
z
" transform="scale(0.015625)"/>
       </defs>
       <use xlink:href="#DejaVuSans-2212"/>
       <use xlink:href="#DejaVuSans-36" x="83.789062"/>
       <use xlink:href="#DejaVuSans-30" x="147.412109"/>
      </g>
     </g>
    </g>
    <g id="ytick_4">
     <g id="line2d_11">
      <g>
       <use xlink:href="#m524915831a" x="57.6" y="193.536" style="stroke: #000000; stroke-width: 0.8"/>
      </g>
     </g>
     <g id="text_12">
      <!-- −40 -->
      <g transform="translate(29.495313 197.335219) scale(0.1 -0.1)">
       <defs>
        <path id="DejaVuSans-34" d="M 2419 4116 
L 825 1625 
L 2419 1625 
L 2419 4116 
z
M 2253 4666 
L 3047 4666 
L 3047 1625 
L 3713 1625 
L 3713 1100 
L 3047 1100 
L 3047 0 
L 2419 0 
L 2419 1100 
L 313 1100 
L 313 1709 
L 2253 4666 
z
" transform="scale(0.015625)"/>
       </defs>
       <use xlink:href="#DejaVuSans-2212"/>
       <use xlink:href="#DejaVuSans-34" x="83.789062"/>
       <use xlink:href="#DejaVuSans-30" x="147.412109"/>
      </g>
     </g>
    </g>
    <g id="ytick_5">
     <g id="line2d_12">
      <g>
       <use xlink:href="#m524915831a" x="57.6" y="155.52" style="stroke: #000000; stroke-width: 0.8"/>
      </g>
     </g>
     <g id="text_13">
      <!-- −20 -->
      <g transform="translate(29.495313 159.319219) scale(0.1 -0.1)">
       <use xlink:href="#DejaVuSans-2212"/>
       <use xlink:href="#DejaVuSans-32" x="83.789062"/>
       <use xlink:href="#DejaVuSans-30" x="147.412109"/>
      </g>
     </g>
    </g>
    <g id="ytick_6">
     <g id="line2d_13">
      <g>
       <use xlink:href="#m524915831a" x="57.6" y="117.504" style="stroke: #000000; stroke-width: 0.8"/>
      </g>
     </g>
     <g id="text_14">
      <!-- 0 -->
      <g transform="translate(44.2375 121.303219) scale(0.1 -0.1)">
       <use xlink:href="#DejaVuSans-30"/>
      </g>
     </g>
    </g>
    <g id="ytick_7">
     <g id="line2d_14">
      <g>
       <use xlink:href="#m524915831a" x="57.6" y="79.488" style="stroke: #000000; stroke-width: 0.8"/>
      </g>
     </g>
     <g id="text_15">
      <!-- 20 -->
      <g transform="translate(37.875 83.287219) scale(0.1 -0.1)">
       <use xlink:href="#DejaVuSans-32"/>
       <use xlink:href="#DejaVuSans-30" x="63.623047"/>
      </g>
     </g>
    </g>
    <g id="ytick_8">
     <g id="line2d_15">
      <g>
       <use xlink:href="#m524915831a" x="57.6" y="41.472" style="stroke: #000000; stroke-width: 0.8"/>
      </g>
     </g>
     <g id="text_16">
      <!-- 40 -->
      <g transform="translate(37.875 45.271219) scale(0.1 -0.1)">
       <use xlink:href="#DejaVuSans-34"/>
       <use xlink:href="#DejaVuSans-30" x="63.623047"/>
      </g>
     </g>
    </g>
    <g id="text_17">
     <!-- Membrane potential (mV) -->
     <g transform="translate(17.053125 238.939719) rotate(-90) scale(0.1 -0.1)">
      <defs>
       <path id="DejaVuSans-4d" d="M 628 4666 
L 1569 4666 
L 2759 1491 
L 3956 4666 
L 4897 4666 
L 4897 0 
L 4281 0 
L 4281 4097 
L 3078 897 
L 2444 897 
L 1241 4097 
L 1241 0 
L 628 0 
L 628 4666 
z
" transform="scale(0.015625)"/>
       <path id="DejaVuSans-62" d="M 3116 1747 
Q 3116 2381 2855 2742 
Q 2594 3103 2138 3103 
Q 1681 3103 1420 2742 
Q 1159 2381 1159 1747 
Q 1159 1113 1420 752 
Q 1681 391 2138 391 
Q 2594 391 2855 752 
Q 3116 1113 3116 1747 
z
M 1159 2969 
Q 1341 3281 1617 3432 
Q 1894 3584 2278 3584 
Q 2916 3584 3314 3078 
Q 3713 2572 3713 1747 
Q 3713 922 3314 415 
Q 2916 -91 2278 -91 
Q 1894 -91 1617 61 
Q 1341 213 1159 525 
L 1159 0 
L 581 0 
L 581 4863 
L 1159 4863 
L 1159 2969 
z
" transform="scale(0.015625)"/>
       <path id="DejaVuSans-72" d="M 2631 2963 
Q 2534 3019 2420 3045 
Q 2306 3072 2169 3072 
Q 1681 3072 1420 2755 
Q 1159 2438 1159 1844 
L 1159 0 
L 581 0 
L 581 3500 
L 1159 3500 
L 1159 2956 
Q 1341 3275 1631 3429 
Q 1922 3584 2338 3584 
Q 2397 3584 2469 3576 
Q 2541 3569 2628 3553 
L 2631 2963 
z
" transform="scale(0.015625)"/>
       <path id="DejaVuSans-61" d="M 2194 1759 
Q 1497 1759 1228 1600 
Q 959 1441 959 1056 
Q 959 750 1161 570 
Q 1363 391 1709 391 
Q 2188 391 2477 730 
Q 2766 1069 2766 1631 
L 2766 1759 
L 2194 1759 
z
M 3341 1997 
L 3341 0 
L 2766 0 
L 2766 531 
Q 2569 213 2275 61 
Q 1981 -91 1556 -91 
Q 1019 -91 701 211 
Q 384 513 384 1019 
Q 384 1609 779 1909 
Q 1175 2209 1959 2209 
L 2766 2209 
L 2766 2266 
Q 2766 2663 2505 2880 
Q 2244 3097 1772 3097 
Q 1472 3097 1187 3025 
Q 903 2953 641 2809 
L 641 3341 
Q 956 3463 1253 3523 
Q 1550 3584 1831 3584 
Q 2591 3584 2966 3190 
Q 3341 2797 3341 1997 
z
" transform="scale(0.015625)"/>
       <path id="DejaVuSans-6e" d="M 3513 2113 
L 3513 0 
L 2938 0 
L 2938 2094 
Q 2938 2591 2744 2837 
Q 2550 3084 2163 3084 
Q 1697 3084 1428 2787 
Q 1159 2491 1159 1978 
L 1159 0 
L 581 0 
L 581 3500 
L 1159 3500 
L 1159 2956 
Q 1366 3272 1645 3428 
Q 1925 3584 2291 3584 
Q 2894 3584 3203 3211 
Q 3513 2838 3513 2113 
z
" transform="scale(0.015625)"/>
       <path id="DejaVuSans-20" transform="scale(0.015625)"/>
       <path id="DejaVuSans-70" d="M 1159 525 
L 1159 -1331 
L 581 -1331 
L 581 3500 
L 1159 3500 
L 1159 2969 
Q 1341 3281 1617 3432 
Q 1894 3584 2278 3584 
Q 2916 3584 3314 3078 
Q 3713 2572 3713 1747 
Q 3713 922 3314 415 
Q 2916 -91 2278 -91 
Q 1894 -91 1617 61 
Q 1341 213 1159 525 
z
M 3116 1747 
Q 3116 2381 2855 2742 
Q 2594 3103 2138 3103 
Q 1681 3103 1420 2742 
Q 1159 2381 1159 1747 
Q 1159 1113 1420 752 
Q 1681 391 2138 391 
Q 2594 391 2855 752 
Q 3116 1113 3116 1747 
z
" transform="scale(0.015625)"/>
       <path id="DejaVuSans-6f" d="M 1959 3097 
Q 1497 3097 1228 2736 
Q 959 2375 959 1747 
Q 959 1119 1226 758 
Q 1494 397 1959 397 
Q 2419 397 2687 759 
Q 2956 1122 2956 1747 
Q 2956 2369 2687 2733 
Q 2419 3097 1959 3097 
z
M 1959 3584 
Q 2709 3584 3137 3096 
Q 3566 2609 3566 1747 
Q 3566 888 3137 398 
Q 2709 -91 1959 -91 
Q 1206 -91 779 398 
Q 353 888 353 1747 
Q 353 2609 779 3096 
Q 1206 3584 1959 3584 
z
" transform="scale(0.015625)"/>
       <path id="DejaVuSans-74" d="M 1172 4494 
L 1172 3500 
L 2356 3500 
L 2356 3053 
L 1172 3053 
L 1172 1153 
Q 1172 725 1289 603 
Q 1406 481 1766 481 
L 2356 481 
L 2356 0 
L 1766 0 
Q 1100 0 847 248 
Q 594 497 594 1153 
L 594 3053 
L 172 3053 
L 172 3500 
L 594 3500 
L 594 4494 
L 1172 4494 
z
" transform="scale(0.015625)"/>
       <path id="DejaVuSans-6c" d="M 603 4863 
L 1178 4863 
L 1178 0 
L 603 0 
L 603 4863 
z
" transform="scale(0.015625)"/>
       <path id="DejaVuSans-56" d="M 1831 0 
L 50 4666 
L 709 4666 
L 2188 738 
L 3669 4666 
L 4325 4666 
L 2547 0 
L 1831 0 
z
" transform="scale(0.015625)"/>
      </defs>
      <use xlink:href="#DejaVuSans-4d"/>
      <use xlink:href="#DejaVuSans-65" x="86.279297"/>
      <use xlink:href="#DejaVuSans-6d" x="147.802734"/>
      <use xlink:href="#DejaVuSans-62" x="245.214844"/>
      <use xlink:href="#DejaVuSans-72" x="308.691406"/>
      <use xlink:href="#DejaVuSans-61" x="349.804688"/>
      <use xlink:href="#DejaVuSans-6e" x="411.083984"/>
      <use xlink:href="#DejaVuSans-65" x="474.462891"/>
      <use xlink:href="#DejaVuSans-20" x="535.986328"/>
      <use xlink:href="#DejaVuSans-70" x="567.773438"/>
      <use xlink:href="#DejaVuSans-6f" x="631.25"/>
      <use xlink:href="#DejaVuSans-74" x="692.431641"/>
      <use xlink:href="#DejaVuSans-65" x="731.640625"/>
      <use xlink:href="#DejaVuSans-6e" x="793.164062"/>
      <use xlink:href="#DejaVuSans-74" x="856.542969"/>
      <use xlink:href="#DejaVuSans-69" x="895.751953"/>
      <use xlink:href="#DejaVuSans-61" x="923.535156"/>
      <use xlink:href="#DejaVuSans-6c" x="984.814453"/>
      <use xlink:href="#DejaVuSans-20" x="1012.597656"/>
      <use xlink:href="#DejaVuSans-28" x="1044.384766"/>
      <use xlink:href="#DejaVuSans-6d" x="1083.398438"/>
      <use xlink:href="#DejaVuSans-56" x="1180.810547"/>
      <use xlink:href="#DejaVuSans-29" x="1249.21875"/>
     </g>
    </g>
   </g>
   <g id="line2d_16">
    <path d="M 73.832727 280.9728 
L 74.119505 282.021586 
L 74.168204 282.024805 
L 74.200669 281.944959 
L 74.344058 281.022188 
L 75.104291 274.881341 
L 75.220625 274.6442 
L 75.537164 273.836614 
L 75.661615 273.943451 
L 75.869935 274.509903 
L 76.302807 276.482387 
L 76.76544 278.275565 
L 76.981876 278.438881 
L 77.260538 279.036104 
L 77.33088 278.790007 
L 77.62848 276.651289 
L 77.869265 274.825533 
L 77.980189 274.731013 
L 78.018065 274.760915 
L 78.174982 275.107072 
L 78.245324 275.226395 
L 78.302138 275.139181 
L 78.429295 274.488616 
L 78.886516 272.025791 
L 79.157062 271.57463 
L 79.633222 271.654121 
L 80.585542 273.173189 
L 80.837149 272.98981 
L 81.118516 272.744954 
L 81.240262 272.608097 
L 81.656902 271.932968 
L 81.665018 271.936956 
L 81.819229 272.148082 
L 82.078953 272.967404 
L 82.349498 273.593859 
L 82.50912 273.765055 
L 82.744495 274.448636 
L 83.355927 276.434227 
L 83.385687 276.413548 
L 83.642705 275.968926 
L 83.772567 275.560256 
L 84.045818 274.933194 
L 84.467869 274.8564 
L 84.535505 274.910495 
L 84.570676 274.810575 
L 85.025193 273.085356 
L 85.06848 273.108769 
L 85.225396 273.389249 
L 85.284916 273.541183 
L 85.330909 273.369857 
L 85.712378 271.773372 
L 85.853062 271.254778 
L 86.210182 269.677077 
L 86.312989 269.779121 
L 86.434735 269.980899 
L 86.494255 269.896774 
L 87.070516 268.860064 
L 87.216611 268.967164 
L 87.543971 269.504027 
L 87.71712 269.800652 
L 87.754996 269.741715 
L 88.515229 268.164808 
L 88.642385 268.246725 
L 88.904815 268.720201 
L 88.956218 268.531482 
L 89.627171 264.946724 
L 89.781382 265.059334 
L 89.981585 265.553958 
L 90.311651 267.07458 
L 91.155753 271.979485 
L 91.274793 271.815981 
L 91.450647 271.125294 
L 91.796945 269.937872 
L 91.953862 269.933207 
L 92.129716 270.241964 
L 92.435433 271.319855 
L 92.962996 273.110003 
L 93.436451 274.63531 
L 93.536553 274.446322 
L 93.720524 274.277902 
L 93.731345 274.283751 
L 93.882851 274.508527 
L 93.993775 274.711486 
L 94.031651 274.574037 
L 94.2048 272.683913 
L 94.756713 267.742355 
L 95.498007 264.535642 
L 95.681978 264.223535 
L 95.709033 264.240785 
L 95.895709 264.267694 
L 96.106735 264.25225 
L 96.266356 264.533047 
L 96.523375 265.535487 
L 97.232204 268.490286 
L 97.416175 268.741443 
L 97.456756 268.701718 
L 98.027607 268.069988 
L 98.176407 268.148264 
L 98.3712 268.592841 
L 99.415505 271.791238 
L 99.44256 271.638699 
L 99.750982 270.207478 
L 99.883549 270.067608 
L 99.916015 270.090118 
L 100.224436 270.247603 
L 100.270429 270.138316 
L 100.367825 269.100821 
L 100.727651 265.504467 
L 101.073949 264.187371 
L 101.192989 264.196476 
L 101.206516 264.212176 
L 101.230865 264.232665 
L 101.266036 264.113668 
L 101.558225 263.214903 
L 101.750313 263.056298 
L 101.782778 263.086702 
L 102.129076 263.649487 
L 102.405033 264.746633 
L 102.5376 265.337188 
L 102.589004 265.114578 
L 103.503447 258.739366 
L 103.617076 258.801755 
L 103.784815 259.276792 
L 104.022895 260.081748 
L 104.08512 260.014276 
L 104.177105 259.638797 
L 104.815593 256.448595 
L 104.994153 256.181717 
L 105.015796 256.193872 
L 105.140247 256.43767 
L 105.675927 257.720291 
L 105.87072 257.976401 
L 105.935651 257.912629 
L 106.1088 257.864191 
L 106.119622 257.874849 
L 106.433455 258.052246 
L 106.579549 258.237404 
L 106.787869 258.966691 
L 107.155811 261.233028 
L 107.870051 266.110272 
L 107.932276 266.061592 
L 108.070255 265.239434 
L 108.329978 264.401731 
L 108.454429 263.995333 
L 108.7872 260.567438 
L 109.098327 257.697181 
L 109.47168 256.137417 
L 109.544727 256.23259 
L 109.707055 256.88939 
L 110.029004 258.054285 
L 110.386124 259.245849 
L 110.770298 261.53238 
L 111.216698 263.892906 
L 111.397964 263.791843 
L 111.562996 263.044092 
L 111.776727 262.7005 
L 111.922822 262.649832 
L 111.94176 262.667972 
L 112.087855 263.001079 
L 112.361105 264.305975 
L 112.642473 265.300156 
L 112.796684 265.554853 
L 112.845382 265.478683 
L 113.107811 264.558188 
L 113.345891 264.090517 
L 113.895098 263.858752 
L 114.076364 264.084997 
L 114.300916 264.823518 
L 114.712145 267.109843 
L 114.982691 268.116263 
L 115.310051 268.939024 
L 115.388509 268.740872 
L 115.75104 267.72537 
L 115.891724 267.64031 
L 116.354356 266.504538 
L 116.85216 266.417594 
L 117.063185 267.097536 
L 117.490647 269.397796 
L 117.528524 269.613549 
L 117.588044 269.32495 
L 117.736844 268.960718 
L 117.766604 268.980877 
L 117.888349 269.286526 
L 118.218415 270.07787 
L 118.329338 270.163318 
L 118.375331 270.122453 
L 118.656698 269.664359 
L 119.287069 267.739901 
L 119.719942 265.564946 
L 119.939084 265.278312 
L 120.071651 265.418841 
L 120.271855 265.901951 
L 120.355724 265.720399 
L 120.818356 264.619224 
L 120.996916 264.581385 
L 121.151127 264.866169 
L 121.4352 265.584017 
L 121.497425 265.504299 
L 121.665164 264.879813 
L 122.043927 263.265606 
L 122.157556 263.333525 
L 122.365876 263.85761 
L 122.701353 265.408003 
L 123.732131 270.524697 
L 124.424727 272.77594 
L 124.497775 272.682132 
L 124.687156 272.019211 
L 125.309411 268.300997 
L 125.574545 266.988363 
L 125.698996 266.930906 
L 125.726051 266.953442 
L 125.885673 267.280452 
L 126.102109 267.757222 
L 126.115636 267.606748 
L 126.410531 264.937611 
L 126.483578 264.905049 
L 126.526865 264.955282 
L 126.686487 265.443321 
L 126.848815 265.647876 
L 127.03008 265.607172 
L 127.192407 265.658557 
L 127.362851 266.052557 
L 127.668567 267.447471 
L 127.776785 267.80002 
L 127.839011 267.770004 
L 127.968873 267.83075 
L 128.144727 268.23052 
L 128.239418 268.050275 
L 128.5776 267.028239 
L 129.299956 261.936887 
L 129.627316 259.119078 
L 130.000669 258.137692 
L 130.117004 258.232999 
L 130.360495 258.435869 
L 130.506589 258.672442 
L 130.728436 259.572545 
L 131.164015 262.482343 
L 131.521135 264.669927 
L 131.561716 264.641991 
L 131.829556 264.39273 
L 131.870138 264.439996 
L 132.037876 264.896519 
L 132.392291 266.264021 
L 132.470749 266.111559 
L 132.608727 265.188241 
L 133.128175 260.862716 
L 133.268858 260.769818 
L 133.293207 260.787505 
L 133.436596 261.073938 
L 133.69632 262.204845 
L 134.497135 265.970717 
L 134.6784 266.209884 
L 135.016582 266.84989 
L 135.070691 266.81437 
L 135.45216 266.353663 
L 136.244858 263.588957 
L 136.282735 263.617222 
L 136.418007 263.958653 
L 136.520815 264.235334 
L 136.569513 264.107948 
L 137.061905 262.179597 
L 137.116015 262.198376 
L 137.218822 262.066235 
L 137.378444 261.592944 
L 137.589469 259.994197 
L 137.822138 259.109325 
L 137.924945 259.184349 
L 138.092684 259.725408 
L 138.336175 260.500636 
L 138.365935 260.439841 
L 138.717644 259.224467 
L 138.798807 259.317569 
L 138.969251 259.904384 
L 139.396713 262.213994 
L 139.515753 261.962084 
L 139.659142 261.132349 
L 140.384204 256.537298 
L 140.744029 255.834611 
L 140.817076 255.925303 
L 140.98752 256.508589 
L 141.328407 258.648269 
L 141.588131 259.717987 
L 141.601658 259.712062 
L 141.680116 259.5053 
L 141.818095 258.42416 
L 142.175215 255.897904 
L 142.283433 254.373774 
L 142.599971 250.277526 
L 142.708189 250.075311 
L 142.751476 250.116388 
L 143.233047 250.624518 
L 143.419724 250.645167 
L 143.565818 251.052623 
L 144.861731 256.862749 
L 145.178269 258.354638 
L 145.305425 258.298817 
L 145.827578 257.552278 
L 145.892509 257.642829 
L 146.019665 257.873858 
L 146.073775 257.7721 
L 146.25504 256.805807 
L 146.490415 256.134081 
L 146.590516 256.245013 
L 146.769076 256.897405 
L 147.199244 258.433954 
L 147.526604 258.795135 
L 147.705164 259.255643 
L 148.581731 262.98753 
L 148.863098 264.100825 
L 148.93344 264.153124 
L 148.976727 264.067407 
L 149.331142 263.433686 
L 149.466415 263.508161 
L 149.623331 263.520524 
L 149.837062 263.526009 
L 150.002095 263.530977 
L 150.226647 263.517428 
L 150.494487 263.793294 
L 150.575651 263.694416 
L 150.743389 263.34216 
L 151.598313 260.710936 
L 151.738996 260.726417 
L 151.741702 260.729481 
L 151.931084 260.977428 
L 152.009542 260.872703 
L 152.161047 260.794991 
L 152.182691 260.814314 
L 152.293615 260.882772 
L 152.336902 260.821039 
L 152.639913 260.042062 
L 152.856349 257.299954 
L 153.264873 253.476864 
L 153.2784 253.481058 
L 153.370385 253.66043 
L 153.567884 254.674922 
L 154.152262 257.837103 
L 154.866502 259.523482 
L 155.031535 259.847654 
L 155.055884 259.825892 
L 155.161396 259.463886 
L 155.326429 257.752406 
L 155.642967 254.84595 
L 155.921629 254.267652 
L 156.032553 254.356552 
L 156.211113 254.912669 
L 156.489775 255.615497 
L 156.722444 255.7698 
L 156.90912 256.411597 
L 157.571956 260.083003 
L 158.529687 267.301718 
L 158.835404 268.62129 
L 158.938211 268.663933 
L 158.965265 268.609745 
L 159.14112 267.66112 
L 159.357556 265.6054 
L 159.671389 263.419322 
L 159.806662 263.270529 
L 159.836422 263.28989 
L 159.971695 263.567375 
L 160.234124 264.731341 
L 160.645353 266.38473 
L 160.929425 266.587437 
L 161.159389 267.21571 
L 161.554385 269.073716 
L 162.320029 272.936949 
L 162.357905 272.870299 
L 162.531055 271.935118 
L 163.066735 269.667997 
L 163.196596 269.779792 
L 163.413033 270.354311 
L 163.502313 270.521809 
L 163.5456 270.414256 
L 163.659229 269.327018 
L 164.146211 264.182116 
L 164.487098 263.64054 
L 164.595316 263.776643 
L 164.833396 264.599103 
L 165.845236 268.452022 
L 165.907462 268.454281 
L 165.950749 268.404915 
L 166.16448 268.280083 
L 166.175302 268.289289 
L 166.315985 268.396956 
L 166.375505 268.326568 
L 166.5216 268.30374 
L 166.532422 268.314795 
L 166.70016 268.670267 
L 167.187142 269.691317 
L 167.208785 269.661225 
L 167.35488 269.024639 
L 167.574022 268.584708 
L 167.855389 268.346771 
L 168.150284 267.496913 
L 168.382953 265.147857 
L 168.658909 260.362515 
L 168.986269 256.4357 
L 169.270342 255.254133 
L 169.362327 255.288943 
L 169.375855 255.310355 
L 169.567942 255.679392 
L 169.635578 255.544577 
L 169.797905 255.314665 
L 169.830371 255.340979 
L 169.954822 255.667513 
L 170.198313 257.075377 
L 170.685295 260.482823 
L 170.766458 260.398423 
L 171.061353 259.693073 
L 171.421178 257.972129 
L 171.637615 257.989654 
L 171.791825 258.365577 
L 172.438429 261.090163 
L 172.717091 262.89417 
L 172.819898 262.713927 
L 172.884829 262.699286 
L 172.925411 262.758993 
L 173.071505 263.329115 
L 173.298764 264.048535 
L 173.314996 264.038099 
L 173.382633 263.780379 
L 173.877731 260.348188 
L 173.918313 260.371006 
L 174.048175 260.658103 
L 174.248378 261.338223 
L 174.324131 261.20127 
L 174.508102 260.953724 
L 174.532451 260.970077 
L 174.659607 261.240468 
L 174.905804 262.416609 
L 175.614633 266.00297 
L 175.722851 265.962035 
L 175.725556 265.959084 
L 175.831069 265.681706 
L 176.107025 263.618519 
L 176.366749 262.564806 
L 176.466851 262.571959 
L 176.488495 262.598826 
L 176.696815 262.708916 
L 176.840204 262.833663 
L 177.02688 263.394976 
L 177.218967 263.880151 
L 177.251433 263.855284 
L 177.370473 263.485471 
L 177.684305 262.686242 
L 177.9792 262.304876 
L 178.027898 262.354724 
L 178.195636 262.784251 
L 178.339025 263.221759 
L 178.414778 263.169253 
L 178.539229 263.221587 
L 178.696145 263.685402 
L 179.023505 265.52059 
L 179.456378 267.637038 
L 179.732335 268.037414 
L 180.314007 269.262036 
L 180.319418 269.259799 
L 180.473629 269.063507 
L 180.771229 268.774383 
L 181.003898 268.712196 
L 181.301498 268.191052 
L 181.434065 268.347133 
L 181.666735 269.058332 
L 181.739782 269.230059 
L 181.793891 269.123633 
L 182.218647 267.952191 
L 182.253818 267.971461 
L 182.426967 268.126356 
L 182.478371 268.011245 
L 182.586589 267.352687 
L 182.849018 266.252727 
L 183.035695 266.261464 
L 183.170967 266.055175 
L 183.322473 265.470113 
L 183.795927 261.770238 
L 184.40736 255.281327 
L 184.55616 255.003772 
L 184.583215 255.019917 
L 184.759069 255.338654 
L 184.902458 255.51234 
L 184.940335 255.480227 
L 185.070196 255.135518 
L 185.310982 253.76315 
L 185.803375 249.313014 
L 185.968407 249.11284 
L 185.98464 249.120429 
L 186.117207 249.328563 
L 186.368815 250.030371 
L 186.466211 249.896146 
L 186.909905 249.318538 
L 187.129047 249.288819 
L 187.315724 249.390409 
L 187.5024 249.614104 
L 187.745891 250.275353 
L 187.824349 250.068025 
L 188.105716 248.355161 
L 188.346502 244.839469 
L 188.733382 241.235377 
L 190.251142 230.686856 
L 190.524393 230.158632 
L 191.671505 220.450176 
L 191.925818 215.985316 
L 192.107084 207.930582 
L 192.212596 192.499593 
L 192.255884 146.703998 
L 192.288349 65.080348 
L 192.361396 166.67221 
L 192.510196 226.93833 
L 192.599476 231.529045 
L 192.65088 230.773073 
L 192.870022 222.274735 
L 193.102691 206.760865 
L 193.181149 181.877933 
L 193.229847 52.008616 
L 193.311011 154.915349 
L 193.459811 227.147115 
L 193.546385 232.204241 
L 193.600495 231.30728 
L 193.827753 220.840552 
L 194.030662 204.218313 
L 194.095593 177.066894 
L 194.141585 51.656937 
L 194.220044 148.952676 
L 194.374255 228.410054 
L 194.498705 235.639795 
L 194.531171 235.438755 
L 194.712436 232.161792 
L 194.974865 229.479466 
L 195.018153 229.433535 
L 195.066851 229.531662 
L 195.194007 230.415363 
L 195.689105 234.15629 
L 195.708044 234.146205 
L 195.781091 233.919418 
L 195.92448 232.519413 
L 196.227491 226.5797 
L 196.516975 217.428487 
L 196.679302 204.479788 
L 196.746938 178.679712 
L 196.792931 55.147471 
L 196.871389 161.011571 
L 197.020189 231.569255 
L 197.106764 236.856888 
L 197.160873 235.87298 
L 197.493644 222.035847 
L 197.699258 207.789765 
L 197.777716 185.706004 
L 197.818298 59.082141 
L 197.831825 50.719069 
L 197.88864 112.42195 
L 198.0672 231.120177 
L 198.159185 236.264796 
L 198.207884 235.571511 
L 198.862604 216.620317 
L 199.060102 205.514636 
L 199.149382 185.747889 
L 199.187258 98.060441 
L 199.208902 61.941456 
L 199.281949 158.041973 
L 199.430749 226.59059 
L 199.557905 233.719065 
L 199.587665 233.583837 
L 199.749993 231.195361 
L 200.117935 227.003216 
L 200.493993 223.52501 
L 200.759127 217.723264 
L 200.932276 207.764364 
L 201.024262 187.766372 
L 201.059433 108.017941 
L 201.083782 57.228239 
L 201.159535 155.202367 
L 201.308335 227.244665 
L 201.416553 233.742245 
L 201.45984 233.321109 
L 201.673571 227.482424 
L 202.0848 212.21136 
L 202.214662 197.056983 
L 202.26336 158.443396 
L 202.301236 57.436796 
L 202.374284 152.019147 
L 202.525789 226.822436 
L 202.644829 233.716233 
L 202.68 233.445714 
L 202.872087 229.266675 
L 203.204858 224.524955 
L 203.667491 218.336363 
L 203.873105 212.751336 
L 204.016495 201.94689 
L 204.086836 177.254934 
L 204.135535 62.613899 
L 204.211287 161.030914 
L 204.360087 224.168684 
L 204.481833 230.729478 
L 204.517004 230.521463 
L 204.660393 227.596142 
L 205.077033 214.771662 
L 205.220422 200.973131 
L 205.277236 171.596344 
L 205.320524 55.053652 
L 205.396276 150.120581 
L 205.547782 225.940916 
L 205.669527 233.028551 
L 205.701993 232.798797 
L 205.858909 229.3401 
L 206.586676 208.622159 
L 206.694895 193.705056 
L 206.740887 147.941083 
L 206.776058 62.652057 
L 206.8464 154.231507 
L 206.997905 224.317833 
L 207.119651 231.038752 
L 207.152116 230.837441 
L 207.306327 227.756908 
L 207.85824 213.002982 
L 208.004335 200.833754 
L 208.069265 173.000581 
L 208.115258 60.937038 
L 208.188305 154.959678 
L 208.339811 224.241205 
L 208.445324 230.341788 
L 208.488611 229.923917 
L 208.683404 224.439663 
L 209.081105 208.618323 
L 209.189324 192.865892 
L 209.232611 143.313809 
L 209.265076 60.183948 
L 209.338124 150.77408 
L 209.489629 223.735508 
L 209.624902 231.481632 
L 209.649251 231.359514 
L 209.760175 229.309319 
L 210.236335 215.447524 
L 210.409484 203.907909 
L 210.487942 180.555894 
L 210.539345 60.116337 
L 210.617804 159.784285 
L 210.769309 225.308165 
L 210.912698 232.889608 
L 210.931636 232.843478 
L 211.026327 231.800031 
L 211.562007 225.814144 
L 211.751389 223.1922 
L 211.986764 217.001468 
L 212.151796 205.582883 
L 212.230255 182.557062 
L 212.281658 56.875519 
L 212.362822 162.210028 
L 212.511622 228.184111 
L 212.636073 235.201721 
L 212.668538 235.014125 
L 212.860625 231.776394 
L 213.279971 226.883303 
L 213.57216 222.15012 
L 213.777775 214.88844 
L 213.923869 200.791141 
L 213.980684 170.580924 
L 214.021265 56.791659 
L 214.097018 153.098491 
L 214.248524 229.130356 
L 214.367564 236.334186 
L 214.402735 236.087208 
L 214.551535 232.679191 
L 215.300945 210.551537 
L 215.425396 196.744535 
L 215.4768 161.353611 
L 215.514676 61.81932 
L 215.587724 156.637402 
L 215.739229 226.762596 
L 215.86368 233.625224 
L 215.896145 233.432829 
L 216.061178 230.408663 
L 216.531927 218.991333 
L 216.748364 210.044882 
L 216.864698 195.010417 
L 216.910691 153.202922 
L 216.945862 60.122012 
L 217.018909 153.415357 
L 217.170415 226.302782 
L 217.29216 233.352287 
L 217.324625 233.154661 
L 217.473425 230.115217 
L 218.06592 213.437151 
L 218.220131 200.977579 
L 218.285062 175.235043 
L 218.331055 61.913238 
L 218.406807 159.075347 
L 218.558313 226.860009 
L 218.712524 234.936723 
L 218.72064 234.927712 
L 218.785571 234.500144 
L 219.37536 229.995216 
L 220.146415 222.929777 
L 220.389905 216.358062 
L 220.552233 205.309604 
L 220.630691 182.988251 
L 220.6848 58.903615 
L 220.760553 161.436315 
L 220.909353 229.376792 
L 221.036509 236.638909 
L 221.066269 236.484736 
L 221.234007 233.853602 
L 221.626298 229.298067 
L 221.826502 227.922524 
L 222.064582 223.898928 
L 222.337833 214.780057 
L 222.492044 201.778674 
L 222.556975 171.466809 
L 222.600262 59.184514 
L 222.673309 156.645911 
L 222.822109 228.856891 
L 222.935738 235.770711 
L 222.973615 235.48672 
L 223.152175 231.412824 
L 224.023331 205.884829 
L 224.120727 187.61612 
L 224.161309 112.445018 
L 224.185658 65.803883 
L 224.258705 162.073266 
L 224.410211 225.547094 
L 224.542778 232.235189 
L 224.567127 232.137862 
L 224.686167 230.425246 
L 225.213731 219.327877 
L 225.430167 208.149926 
L 225.527564 189.997569 
L 225.56544 121.349866 
L 225.592495 58.606047 
L 225.668247 155.507187 
L 225.819753 226.83508 
L 225.941498 233.85326 
L 225.976669 233.629673 
L 226.138996 230.274041 
L 226.617862 221.927311 
L 227.188713 212.862592 
L 227.361862 204.350312 
L 227.456553 187.103152 
L 227.497135 125.154379 
L 227.524189 70.227187 
L 227.597236 164.014061 
L 227.748742 222.622651 
L 227.902953 230.330201 
L 227.913775 230.318209 
L 227.970589 229.864235 
L 228.341236 223.884118 
L 228.787636 215.441601 
L 228.960785 205.956182 
L 229.050065 187.26021 
L 229.087942 109.845527 
L 229.112291 61.718321 
L 229.185338 153.526816 
L 229.336844 223.773232 
L 229.488349 231.934368 
L 229.501876 231.905305 
L 229.580335 231.100031 
L 229.831942 225.883043 
L 230.29728 213.026791 
L 230.44608 200.673274 
L 230.511011 172.465912 
L 230.557004 61.657653 
L 230.630051 156.604086 
L 230.781556 225.038428 
L 230.946589 233.513281 
L 230.98176 233.412136 
L 231.617542 230.538159 
L 231.879971 229.791423 
L 232.564451 226.941398 
L 232.970269 225.790315 
L 233.286807 222.395793 
L 233.646633 216.307771 
L 233.841425 209.097319 
L 233.960465 195.0777 
L 234.011869 152.644093 
L 234.04704 65.833786 
L 234.117382 158.798709 
L 234.266182 224.489736 
L 234.417687 232.046272 
L 234.428509 232.030374 
L 234.506967 231.490574 
L 234.769396 230.139391 
L 234.883025 229.995471 
L 234.923607 230.033189 
L 235.050764 230.424763 
L 235.380829 232.424642 
L 235.702778 233.821152 
L 235.843462 233.750758 
L 236.092364 233.371061 
L 236.227636 231.724232 
L 236.979753 218.215423 
L 237.193484 208.885651 
L 237.301702 193.639127 
L 237.344989 150.986479 
L 237.377455 63.722203 
L 237.450502 161.077843 
L 237.599302 228.502955 
L 237.726458 235.572549 
L 237.756218 235.445813 
L 237.921251 233.175466 
L 238.162036 231.42937 
L 238.356829 230.924448 
L 238.567855 228.760292 
L 239.092713 218.579339 
L 239.390313 210.875468 
L 239.541818 200.489562 
L 239.614865 178.25163 
L 239.666269 71.491757 
L 239.736611 163.026445 
L 239.888116 223.893497 
L 240.023389 230.496606 
L 240.047738 230.406809 
L 240.180305 228.727918 
L 240.431913 226.769492 
L 240.624 226.762387 
L 240.751156 227.102692 
L 240.978415 228.507941 
L 241.351767 232.4319 
L 241.914502 237.953125 
L 241.922618 237.951198 
L 242.009193 237.790182 
L 242.271622 236.736598 
L 242.536756 235.816781 
L 242.636858 235.903275 
L 242.801891 236.474653 
L 243.002095 237.198306 
L 243.048087 237.127339 
L 243.177949 236.26197 
L 244.809338 223.805443 
L 245.17728 221.874878 
L 245.409949 220.179785 
L 245.620975 216.641052 
L 245.804945 209.433146 
L 245.92128 195.088434 
L 245.969978 154.356593 
L 246.005149 64.532212 
L 246.078196 162.618547 
L 246.226996 225.752778 
L 246.354153 232.294869 
L 246.383913 232.137432 
L 246.494836 230.03683 
L 246.968291 219.980121 
L 247.217193 212.300598 
L 247.360582 199.736264 
L 247.422807 171.233703 
L 247.466095 61.061282 
L 247.541847 157.202473 
L 247.693353 224.003023 
L 247.820509 230.663696 
L 247.850269 230.521545 
L 247.993658 228.203699 
L 248.307491 220.205217 
L 248.526633 209.712592 
L 248.634851 192.831406 
L 248.675433 139.612156 
L 248.707898 57.517217 
L 248.780945 148.397875 
L 248.935156 224.402295 
L 249.054196 230.803172 
L 249.089367 230.589461 
L 249.230051 227.731267 
L 250.1472 202.733883 
L 250.23648 183.314566 
L 250.279767 92.266696 
L 250.298705 70.578382 
L 250.363636 151.148339 
L 250.515142 219.547433 
L 250.685585 228.527863 
L 250.707229 228.560957 
L 250.761338 228.404965 
L 251.045411 227.432983 
L 251.075171 227.450511 
L 251.186095 227.718751 
L 251.505338 228.50703 
L 251.646022 228.876623 
L 252.024785 230.736771 
L 252.703855 235.82639 
L 253.856378 244.530838 
L 254.746473 248.01832 
L 254.96832 248.144178 
L 255.154996 248.664461 
L 255.463418 250.310815 
L 255.669033 250.872964 
L 255.747491 250.993817 
L 255.8016 250.914931 
L 255.977455 250.234495 
L 256.264233 248.024574 
L 256.594298 245.834485 
L 256.816145 245.51991 
L 256.937891 245.67577 
L 257.135389 246.395286 
L 257.476276 248.642209 
L 258.515171 256.148848 
L 258.534109 256.137811 
L 258.653149 255.841264 
L 259.269993 254.088953 
L 259.348451 254.171268 
L 259.527011 254.701226 
L 259.613585 254.79749 
L 259.651462 254.741639 
L 260.024815 253.447783 
L 260.457687 252.017277 
L 260.495564 252.042176 
L 260.628131 252.344801 
L 260.874327 253.591549 
L 261.907811 259.893851 
L 261.953804 259.823199 
L 262.097193 259.068017 
L 262.540887 256.074555 
L 262.632873 256.066559 
L 262.662633 256.102004 
L 262.816844 256.532004 
L 263.606836 259.22071 
L 263.666356 259.137785 
L 263.669062 259.130799 
L 263.934196 258.68251 
L 263.953135 258.69257 
L 264.085702 258.918902 
L 264.364364 259.760037 
L 264.437411 259.558541 
L 264.645731 258.019855 
L 265.035316 254.931456 
L 265.130007 254.87868 
L 265.167884 254.916993 
L 265.313978 255.317987 
L 265.598051 256.883619 
L 265.952465 258.526811 
L 266.122909 258.750721 
L 266.171607 258.70289 
L 266.285236 258.366695 
L 266.737047 253.81071 
L 266.999476 251.998489 
L 267.056291 251.993516 
L 267.096873 252.055689 
L 267.245673 252.645823 
L 267.567622 255.045767 
L 267.805702 256.596277 
L 267.843578 256.51608 
L 267.984262 255.466273 
L 268.625455 250.252838 
L 268.847302 250.044672 
L 268.893295 250.111244 
L 269.082676 250.745211 
L 269.480378 252.581756 
L 269.805033 253.791422 
L 270.167564 254.512729 
L 270.408349 255.373076 
L 270.722182 256.170213 
L 270.922385 256.532285 
L 270.960262 256.499079 
L 271.114473 256.088645 
L 271.412073 255.508537 
L 271.531113 255.641442 
L 271.844945 256.024677 
L 272.05056 256.063096 
L 272.064087 256.041197 
L 272.426618 255.509927 
L 272.469905 255.548462 
L 272.629527 255.919348 
L 272.905484 257.245799 
L 273.454691 261.21921 
L 273.860509 264.146123 
L 273.92544 264.084462 
L 273.990371 263.866108 
L 274.379956 260.798659 
L 274.691084 258.993688 
L 275.004916 258.725633 
L 275.153716 258.936136 
L 275.370153 259.7271 
L 275.421556 259.987591 
L 275.464844 259.644221 
L 275.662342 258.76248 
L 275.670458 258.763943 
L 275.743505 258.669319 
L 276.170967 257.764145 
L 276.390109 257.492777 
L 276.84192 255.77456 
L 276.877091 255.796206 
L 277.001542 256.085881 
L 277.212567 256.854569 
L 277.269382 256.644946 
L 277.46688 254.598734 
L 277.813178 252.04021 
L 278.145949 250.898857 
L 278.243345 250.947781 
L 278.251462 250.961721 
L 278.402967 251.464959 
L 278.695156 253.373762 
L 278.987345 254.81148 
L 279.322822 256.946481 
L 279.449978 257.475616 
L 279.498676 257.405666 
L 279.604189 256.713945 
L 280.239971 251.62832 
L 280.26432 251.637325 
L 280.380655 251.848925 
L 280.599796 252.83408 
L 280.85952 253.649528 
L 280.956916 253.5689 
L 281.489891 252.863063 
L 281.60352 253.013893 
L 282.166255 254.068239 
L 282.306938 253.897705 
L 282.528785 253.267265 
L 282.780393 252.535635 
L 282.880495 252.656997 
L 283.06176 253.355074 
L 283.443229 255.854058 
L 283.770589 257.525824 
L 284.079011 257.89182 
L 284.19264 258.189265 
L 284.249455 258.040019 
L 284.925818 254.835196 
L 285.269411 252.360951 
L 285.396567 252.231508 
L 285.429033 252.255528 
L 285.567011 252.568381 
L 285.872727 253.210672 
L 286.083753 253.917598 
L 286.419229 255.968496 
L 286.792582 258.327481 
L 286.843985 258.264557 
L 287.155113 257.699925 
L 287.206516 257.747011 
L 287.360727 258.153601 
L 287.6448 259.665673 
L 288.212945 262.642884 
L 288.405033 262.92656 
L 288.59712 263.300652 
L 288.870371 264.447376 
L 289.035404 264.984165 
L 289.07328 264.924548 
L 289.397935 264.313839 
L 289.424989 264.330398 
L 289.562967 264.589569 
L 290.569396 267.125516 
L 290.669498 267.07699 
L 290.677615 267.064743 
L 291.026618 266.321669 
L 292.016815 261.278315 
L 292.387462 260.737988 
L 292.438865 260.790748 
L 292.603898 261.22499 
L 292.936669 262.034368 
L 293.147695 262.371952 
L 293.2992 262.753005 
L 293.353309 262.602903 
L 293.734778 261.12806 
L 293.772655 261.149918 
L 293.945804 261.456979 
L 294.189295 262.426806 
L 294.992815 265.995312 
L 295.030691 265.988206 
L 295.068567 265.916847 
L 295.157847 265.399516 
L 295.915375 259.717297 
L 296.375302 258.475877 
L 296.437527 258.525693 
L 296.534924 258.517339 
L 296.556567 258.485002 
L 296.699956 257.982698 
L 296.910982 257.527132 
L 296.924509 257.532594 
L 297.146356 257.534888 
L 297.373615 257.137012 
L 297.552175 256.118431 
L 297.841658 254.839896 
L 297.930938 254.858277 
L 297.952582 254.889665 
L 298.009396 254.949516 
L 298.066211 254.871166 
L 298.2096 254.758497 
L 298.23936 254.785073 
L 298.450385 255.221411 
L 298.693876 256.158755 
L 299.069935 258.700007 
L 299.705716 262.660747 
L 299.749004 262.708088 
L 299.805818 262.615056 
L 300.006022 261.588065 
L 300.219753 261.131892 
L 300.327971 261.265093 
L 300.522764 261.966991 
L 301.12608 264.331032 
L 301.220771 264.232431 
L 301.475084 263.512676 
L 301.718575 263.105372 
L 302.219084 263.253185 
L 302.449047 264.038044 
L 302.743942 265.33699 
L 302.8224 265.218877 
L 303.046953 264.339837 
L 303.698967 261.312122 
L 303.95328 260.238354 
L 304.053382 260.246314 
L 304.075025 260.273331 
L 304.237353 260.705862 
L 304.353687 261.023525 
L 304.410502 260.928502 
L 304.932655 259.565236 
L 305.008407 259.64575 
L 305.178851 260.172723 
L 305.406109 260.658205 
L 305.533265 260.89644 
L 305.760524 261.935456 
L 306.187985 264.457994 
L 306.255622 264.160929 
L 306.680378 261.79499 
L 306.785891 261.871111 
L 306.956335 262.387942 
L 307.199825 263.151579 
L 307.243113 263.120353 
L 307.519069 262.943526 
L 307.535302 262.960042 
L 307.697629 263.311832 
L 307.992524 264.602064 
L 308.116975 264.889941 
L 308.160262 264.858184 
L 308.430807 264.656053 
L 308.455156 264.680801 
L 308.717585 264.894879 
L 308.74464 264.857321 
L 308.980015 264.153321 
L 309.166691 262.639417 
L 309.515695 260.231273 
L 309.648262 260.104304 
L 309.680727 260.119621 
L 309.75648 260.027096 
L 309.867404 259.437459 
L 310.481542 254.281271 
L 310.67904 254.032314 
L 311.068625 254.073208 
L 311.174138 254.136458 
L 311.21472 254.060181 
L 311.336465 253.430843 
L 311.682764 251.669698 
L 311.804509 251.63228 
L 311.828858 251.653767 
L 312.269847 252.127907 
L 312.318545 252.026617 
L 312.651316 251.288904 
L 312.67296 251.299752 
L 312.816349 251.528898 
L 313.113949 251.968194 
L 313.29792 251.87081 
L 313.403433 251.458657 
L 314.450444 243.220672 
L 314.7264 241.026511 
L 314.858967 240.854556 
L 314.891433 240.877088 
L 315.024 241.179116 
L 315.278313 242.440784 
L 317.01792 252.59013 
L 317.085556 252.709598 
L 317.139665 252.616707 
L 317.396684 252.04475 
L 317.439971 252.082556 
L 317.591476 252.486884 
L 317.79168 252.884469 
L 317.829556 252.862066 
L 318.054109 252.825764 
L 318.213731 253.133039 
L 318.462633 254.196602 
L 319.065949 257.238013 
L 319.109236 257.15437 
L 319.268858 256.248857 
L 319.671971 254.03256 
L 319.850531 253.749052 
L 319.872175 253.760457 
L 319.988509 253.992809 
L 320.204945 255.050238 
L 320.675695 257.317439 
L 321.295244 259.464441 
L 321.852567 261.917139 
L 321.998662 262.086908 
L 322.055476 261.980253 
L 322.206982 261.807931 
L 322.239447 261.833644 
L 322.399069 262.178874 
L 322.669615 263.392884 
L 323.032145 264.717694 
L 323.153891 264.819036 
L 323.183651 264.768475 
L 323.286458 264.057837 
L 323.724742 261.059397 
L 324.081862 259.233075 
L 324.639185 258.358777 
L 324.723055 258.476386 
L 324.915142 259.140453 
L 324.974662 259.257602 
L 325.039593 259.196431 
L 325.274967 259.083873 
L 325.423767 259.168358 
L 325.594211 259.642531 
L 326.427491 263.211254 
L 326.633105 263.917077 
L 326.654749 263.901069 
L 326.792727 263.53602 
L 327.019985 263.216015 
L 327.149847 263.367507 
L 327.290531 263.60298 
L 327.358167 263.541605 
L 327.544844 263.203029 
L 328.064291 260.906926 
L 328.164393 260.923991 
L 328.183331 260.94965 
L 328.340247 261.394678 
L 328.735244 262.520289 
L 328.927331 263.287509 
L 329.297978 264.650256 
L 329.392669 264.817867 
L 329.444073 264.721038 
L 329.600989 263.844803 
L 329.971636 261.692508 
L 330.060916 261.696257 
L 330.087971 261.731656 
L 330.244887 262.186658 
L 330.564131 263.947413 
L 330.894196 265.39039 
L 331.024058 265.60315 
L 331.2432 266.529503 
L 332.347025 272.424024 
L 332.411956 272.259482 
L 333.004451 269.34727 
L 333.253353 268.347489 
L 333.361571 268.362566 
L 333.377804 268.382635 
L 333.548247 268.807272 
L 333.905367 270.019793 
L 334.000058 269.970102 
L 334.154269 270.026406 
L 334.335535 270.432999 
L 334.955084 272.47068 
L 334.979433 272.107468 
L 335.298676 268.378656 
L 335.682851 266.777616 
L 335.701789 266.784407 
L 335.82624 266.982042 
L 335.880349 267.03058 
L 335.937164 266.960619 
L 336.202298 266.261647 
L 336.445789 265.844248 
L 336.794793 265.394883 
L 337.308829 263.938947 
L 337.444102 263.673318 
L 337.614545 262.617588 
L 337.925673 261.174871 
L 338.11776 261.096389 
L 338.190807 261.002527 
L 338.788713 257.268484 
L 339.007855 256.573126 
L 339.105251 256.683636 
L 339.281105 257.347882 
L 339.881716 261.012665 
L 340.1712 262.036308 
L 340.303767 262.163629 
L 340.457978 262.403351 
L 340.512087 262.332741 
L 340.687942 261.722496 
L 340.823215 260.70339 
L 341.564509 252.917692 
L 341.694371 252.781502 
L 341.726836 252.804875 
L 341.92704 253.175676 
L 342.132655 253.39144 
L 342.294982 253.467685 
L 342.457309 253.914926 
L 342.81984 255.615907 
L 342.914531 255.280421 
L 343.033571 253.815371 
L 343.398807 249.768972 
L 343.693702 249.280007 
L 343.888495 249.222009 
L 343.988596 249.150671 
L 344.034589 249.184096 
L 344.302429 249.437848 
L 344.434996 249.724109 
L 344.480989 249.609114 
L 344.686604 248.147519 
L 344.959855 247.110023 
L 345.43872 245.780319 
L 345.500945 245.843012 
L 345.76608 246.047776 
L 345.928407 246.273396 
L 346.142138 247.052218 
L 346.83744 249.908977 
L 347.043055 250.560817 
L 347.102575 250.23125 
L 347.481338 247.733553 
L 347.70048 247.616985 
L 347.84928 247.816606 
L 348.328145 248.64448 
L 348.368727 248.595328 
L 348.671738 248.087173 
L 348.728553 248.1507 
L 348.882764 248.62506 
L 349.015331 249.174095 
L 349.093789 249.06714 
L 349.215535 248.67296 
L 349.350807 247.299887 
L 349.870255 241.954001 
L 350.197615 239.505959 
L 350.460044 238.382955 
L 350.608844 238.248843 
L 350.638604 238.274952 
L 350.763055 238.607965 
L 350.984902 239.990258 
L 351.601745 244.084889 
L 352.113076 245.443045 
L 352.478313 246.507585 
L 352.629818 246.374163 
L 352.813789 246.24446 
L 352.835433 246.260926 
L 353.041047 246.590214 
L 353.068102 246.624481 
L 353.114095 246.47927 
L 353.327825 244.785478 
L 353.709295 242.029838 
L 353.849978 241.859517 
L 353.879738 241.878876 
L 354.006895 242.154329 
L 354.236858 243.304417 
L 354.653498 246.733593 
L 355.154007 251.190259 
L 355.213527 251.021089 
L 355.781673 248.843767 
L 355.88448 248.731628 
L 356.577076 246.185344 
L 356.688 246.331434 
L 357.145222 247.700232 
L 357.651142 250.264829 
L 358.392436 254.727632 
L 358.733324 254.816798 
L 358.911884 255.476021 
L 359.929135 260.456293 
L 359.994065 260.383498 
L 360.232145 260.234482 
L 360.418822 260.192311 
L 360.424233 260.166366 
L 360.711011 259.250925 
L 360.721833 259.254201 
L 360.827345 259.357684 
L 360.867927 259.19879 
L 361.068131 257.648825 
L 361.368436 255.036068 
L 361.519942 254.813555 
L 361.546996 254.828742 
L 361.671447 255.078899 
L 362.439796 257.110171 
L 362.499316 256.975578 
L 362.64 255.853056 
L 363.132393 251.941305 
L 363.402938 250.996622 
L 363.584204 250.924319 
L 363.749236 251.167417 
L 364.030604 252.066029 
L 364.506764 253.525542 
L 364.623098 253.704001 
L 364.823302 254.536205 
L 365.280524 256.852232 
L 365.340044 256.776569 
L 365.507782 255.969815 
L 365.772916 255.181696 
L 365.891956 255.248971 
L 366.067811 255.725641 
L 366.38976 257.368291 
L 366.525033 257.899295 
L 366.579142 257.849868 
L 366.725236 257.457603 
L 367.168931 254.888667 
L 367.19328 254.898445 
L 367.309615 255.109621 
L 367.618036 255.728486 
L 367.636975 255.715932 
L 367.734371 255.452056 
L 368.20512 253.125951 
L 368.559535 251.664039 
L 368.648815 251.635299 
L 368.683985 251.67536 
L 368.989702 252.357041 
L 369.06816 252.472854 
L 369.111447 252.356836 
L 369.346822 250.800087 
L 369.828393 247.86727 
L 369.974487 247.69795 
L 370.001542 247.714533 
L 370.131404 247.978009 
L 370.380305 249.120479 
L 370.640029 249.711191 
L 370.832116 250.148462 
L 370.88352 249.990451 
L 371.465193 247.285195 
L 371.516596 247.326077 
L 371.65728 247.710271 
L 372.068509 248.902131 
L 372.198371 249.247089 
L 372.433745 250.66524 
L 373.285964 256.319457 
L 373.421236 256.395829 
L 373.440175 256.380879 
L 373.626851 256.018659 
L 373.694487 255.684464 
L 374.268044 251.755847 
L 374.397905 251.599471 
L 374.433076 251.63086 
L 374.560233 251.993717 
L 374.81184 253.539849 
L 375.953542 261.314274 
L 376.781411 265.237068 
L 376.786822 265.234324 
L 376.89504 265.004618 
L 377.054662 264.428602 
L 378.155782 258.685957 
L 378.358691 258.177602 
L 378.615709 255.837805 
L 379.116218 252.128457 
L 379.497687 250.915491 
L 379.616727 250.972768 
L 379.779055 251.421318 
L 380.103709 252.5527 
L 380.157818 252.470928 
L 380.363433 252.171445 
L 380.395898 252.197122 
L 380.439185 252.232069 
L 380.490589 252.138407 
L 380.620451 251.986488 
L 380.661033 252.026022 
L 380.790895 252.427463 
L 380.861236 252.587266 
L 380.926167 252.52608 
L 381.323869 251.857874 
L 381.791913 249.803069 
L 381.892015 249.786339 
L 381.921775 249.819695 
L 382.067869 250.217591 
L 382.333004 251.720231 
L 382.985018 255.535746 
L 383.082415 255.998971 
L 383.147345 255.833903 
L 383.328611 255.444337 
L 383.361076 255.467523 
L 383.480116 255.776964 
L 383.718196 256.621663 
L 383.793949 256.562909 
L 384.00768 256.195383 
L 384.15648 256.048482 
L 384.18624 256.070516 
L 384.318807 256.369961 
L 384.843665 257.764928 
L 384.868015 257.768253 
L 384.908596 257.672697 
L 385.141265 256.412892 
L 385.417222 255.385011 
L 385.514618 255.468792 
L 385.676945 256.034962 
L 385.931258 256.828965 
L 385.952902 256.821027 
L 386.101702 256.620266 
L 386.677964 255.671487 
L 387.010735 255.533376 
L 387.156829 255.809411 
L 387.830487 258.063948 
L 388.14432 259.711983 
L 388.220073 259.566735 
L 388.358051 258.803794 
L 388.62048 257.77766 
L 388.725993 257.841454 
L 388.896436 258.35205 
L 389.001949 258.605481 
L 389.056058 258.536516 
L 389.337425 258.118887 
L 389.369891 258.144379 
L 389.515985 258.465594 
L 389.802764 259.78085 
L 390.319505 261.744061 
L 390.487244 261.902027 
L 390.684742 262.579698 
L 390.968815 263.666807 
L 391.020218 263.59708 
L 391.193367 262.860802 
L 391.642473 260.879285 
L 391.991476 260.684221 
L 392.313425 259.619462 
L 392.432465 259.125317 
L 392.789585 257.329722 
L 392.962735 257.295634 
L 393.260335 257.691772 
L 393.704029 258.785067 
L 393.869062 259.365028 
L 393.920465 259.125457 
L 394.672582 253.640559 
L 395.343535 252.71443 
L 395.641135 251.881809 
L 395.727709 252.006433 
L 395.906269 252.748021 
L 396.271505 255.427276 
L 396.712495 258.234134 
L 396.788247 258.334523 
L 396.828829 258.216559 
L 397.210298 256.982489 
L 397.424029 256.635675 
L 397.440262 256.643833 
L 397.559302 256.859718 
L 398.159913 258.957102 
L 398.487273 260.29968 
L 398.487273 260.29968 
" clip-path="url(#p180926bc5d)" style="fill: none; stroke: #000000; stroke-width: 1.5; stroke-linecap: square"/>
   </g>
   <g id="line2d_17">
    <path d="M 73.832727 280.9728 
L 74.119505 282.021586 
L 74.168204 282.024805 
L 74.200669 281.944959 
L 74.344058 281.022188 
L 75.104291 274.881341 
L 75.220625 274.6442 
L 75.537164 273.836614 
L 75.661615 273.943451 
L 75.869935 274.509903 
L 76.302807 276.482387 
L 76.76544 278.275565 
L 76.981876 278.438881 
L 77.260538 279.036104 
L 77.33088 278.790007 
L 77.62848 276.651289 
L 77.869265 274.825533 
L 77.980189 274.731013 
L 78.018065 274.760915 
L 78.174982 275.107072 
L 78.245324 275.226395 
L 78.302138 275.139181 
L 78.429295 274.488616 
L 78.886516 272.025791 
L 79.157062 271.57463 
L 79.633222 271.654121 
L 80.585542 273.173189 
L 80.837149 272.98981 
L 81.118516 272.744954 
L 81.240262 272.608097 
L 81.656902 271.932968 
L 81.665018 271.936956 
L 81.819229 272.148082 
L 82.078953 272.967404 
L 82.349498 273.593859 
L 82.50912 273.765055 
L 82.744495 274.448636 
L 83.355927 276.434227 
L 83.385687 276.413548 
L 83.642705 275.968926 
L 83.772567 275.560256 
L 84.045818 274.933194 
L 84.467869 274.8564 
L 84.535505 274.910495 
L 84.570676 274.810575 
L 85.025193 273.085356 
L 85.06848 273.108769 
L 85.225396 273.389249 
L 85.284916 273.541183 
L 85.330909 273.369857 
L 85.712378 271.773372 
L 85.853062 271.254778 
L 86.210182 269.677077 
L 86.312989 269.779121 
L 86.434735 269.980899 
L 86.494255 269.896774 
L 87.070516 268.860064 
L 87.216611 268.967164 
L 87.543971 269.504027 
L 87.71712 269.800652 
L 87.754996 269.741715 
L 88.515229 268.164808 
L 88.642385 268.246725 
L 88.904815 268.720201 
L 88.956218 268.531482 
L 89.627171 264.946724 
L 89.781382 265.059334 
L 89.981585 265.553958 
L 90.311651 267.07458 
L 91.155753 271.979485 
L 91.274793 271.815981 
L 91.450647 271.125294 
L 91.796945 269.937872 
L 91.953862 269.933207 
L 92.129716 270.241964 
L 92.435433 271.319855 
L 92.962996 273.110003 
L 93.436451 274.63531 
L 93.536553 274.446322 
L 93.720524 274.277902 
L 93.731345 274.283751 
L 93.882851 274.508527 
L 93.993775 274.711486 
L 94.031651 274.574037 
L 94.2048 272.683913 
L 94.756713 267.742355 
L 95.498007 264.535642 
L 95.681978 264.223535 
L 95.709033 264.240785 
L 95.895709 264.267694 
L 96.106735 264.25225 
L 96.266356 264.533047 
L 96.523375 265.535487 
L 97.232204 268.490286 
L 97.416175 268.741443 
L 97.456756 268.701718 
L 98.027607 268.069988 
L 98.176407 268.148264 
L 98.3712 268.592841 
L 99.415505 271.791238 
L 99.44256 271.638699 
L 99.750982 270.207478 
L 99.883549 270.067608 
L 99.916015 270.090118 
L 100.224436 270.247603 
L 100.270429 270.138316 
L 100.367825 269.100821 
L 100.727651 265.504467 
L 101.073949 264.187371 
L 101.192989 264.196476 
L 101.206516 264.212176 
L 101.230865 264.232665 
L 101.266036 264.113668 
L 101.558225 263.214903 
L 101.750313 263.056298 
L 101.782778 263.086702 
L 102.129076 263.649487 
L 102.405033 264.746633 
L 102.5376 265.337188 
L 102.589004 265.114578 
L 103.503447 258.739366 
L 103.617076 258.801755 
L 103.784815 259.276792 
L 104.022895 260.081748 
L 104.08512 260.014276 
L 104.177105 259.638797 
L 104.815593 256.448595 
L 104.994153 256.181717 
L 105.015796 256.193872 
L 105.140247 256.43767 
L 105.675927 257.720291 
L 105.87072 257.976401 
L 105.935651 257.912629 
L 106.1088 257.864191 
L 106.119622 257.874849 
L 106.433455 258.052246 
L 106.579549 258.237404 
L 106.787869 258.966691 
L 107.155811 261.233028 
L 107.870051 266.110272 
L 107.932276 266.061592 
L 108.070255 265.239434 
L 108.329978 264.401731 
L 108.454429 263.995333 
L 108.7872 260.567438 
L 109.098327 257.697181 
L 109.47168 256.137417 
L 109.544727 256.23259 
L 109.707055 256.88939 
L 110.029004 258.054285 
L 110.386124 259.245849 
L 110.770298 261.53238 
L 111.216698 263.892906 
L 111.397964 263.791843 
L 111.562996 263.044092 
L 111.776727 262.7005 
L 111.922822 262.649832 
L 111.94176 262.667972 
L 112.087855 263.001079 
L 112.361105 264.305975 
L 112.642473 265.300156 
L 112.796684 265.554853 
L 112.845382 265.478683 
L 113.107811 264.558188 
L 113.345891 264.090517 
L 113.895098 263.858752 
L 114.076364 264.084997 
L 114.300916 264.823518 
L 114.712145 267.109843 
L 114.982691 268.116263 
L 115.310051 268.939024 
L 115.388509 268.740872 
L 115.75104 267.72537 
L 115.891724 267.64031 
L 116.354356 266.504538 
L 116.85216 266.417594 
L 117.063185 267.097536 
L 117.490647 269.397796 
L 117.528524 269.613549 
L 117.588044 269.32495 
L 117.736844 268.960718 
L 117.766604 268.980877 
L 117.888349 269.286526 
L 118.218415 270.07787 
L 118.329338 270.163318 
L 118.375331 270.122453 
L 118.656698 269.664359 
L 119.287069 267.739901 
L 119.719942 265.564946 
L 119.939084 265.278312 
L 120.071651 265.418841 
L 120.271855 265.901951 
L 120.355724 265.720399 
L 120.818356 264.619224 
L 120.996916 264.581385 
L 121.151127 264.866169 
L 121.4352 265.584017 
L 121.497425 265.504299 
L 121.665164 264.879813 
L 122.043927 263.265606 
L 122.157556 263.333525 
L 122.365876 263.85761 
L 122.701353 265.408003 
L 123.732131 270.524697 
L 124.424727 272.77594 
L 124.497775 272.682132 
L 124.687156 272.019211 
L 125.309411 268.300997 
L 125.574545 266.988363 
L 125.698996 266.930906 
L 125.726051 266.953442 
L 125.885673 267.280452 
L 126.102109 267.757222 
L 126.115636 267.606748 
L 126.410531 264.937611 
L 126.483578 264.905049 
L 126.526865 264.955282 
L 126.686487 265.443321 
L 126.848815 265.647876 
L 127.03008 265.607172 
L 127.192407 265.658557 
L 127.362851 266.052557 
L 127.668567 267.447471 
L 127.776785 267.80002 
L 127.839011 267.770004 
L 127.968873 267.83075 
L 128.144727 268.23052 
L 128.239418 268.050275 
L 128.5776 267.028239 
L 129.299956 261.936887 
L 129.627316 259.119078 
L 130.000669 258.137692 
L 130.117004 258.232999 
L 130.360495 258.435869 
L 130.506589 258.672442 
L 130.728436 259.572545 
L 131.164015 262.482343 
L 131.521135 264.669927 
L 131.561716 264.641991 
L 131.829556 264.39273 
L 131.870138 264.439996 
L 132.037876 264.896519 
L 132.392291 266.264021 
L 132.470749 266.111559 
L 132.608727 265.188241 
L 133.128175 260.862716 
L 133.268858 260.769818 
L 133.293207 260.787505 
L 133.436596 261.073938 
L 133.69632 262.204845 
L 134.497135 265.970717 
L 134.6784 266.209884 
L 135.016582 266.84989 
L 135.070691 266.81437 
L 135.45216 266.353663 
L 136.244858 263.588957 
L 136.282735 263.617222 
L 136.418007 263.958653 
L 136.520815 264.235334 
L 136.569513 264.107948 
L 137.061905 262.179597 
L 137.116015 262.198376 
L 137.218822 262.066235 
L 137.378444 261.592944 
L 137.589469 259.994197 
L 137.822138 259.109325 
L 137.924945 259.184349 
L 138.092684 259.725408 
L 138.336175 260.500636 
L 138.365935 260.439841 
L 138.717644 259.224467 
L 138.798807 259.317569 
L 138.969251 259.904384 
L 139.396713 262.213994 
L 139.515753 261.962084 
L 139.659142 261.132349 
L 140.384204 256.537298 
L 140.744029 255.834611 
L 140.817076 255.925303 
L 140.98752 256.508589 
L 141.328407 258.648269 
L 141.588131 259.717987 
L 141.601658 259.712062 
L 141.680116 259.5053 
L 141.818095 258.42416 
L 142.175215 255.897904 
L 142.283433 254.373774 
L 142.599971 250.277526 
L 142.708189 250.075311 
L 142.751476 250.116388 
L 143.233047 250.624518 
L 143.419724 250.645167 
L 143.565818 251.052623 
L 144.861731 256.862749 
L 145.178269 258.354638 
L 145.305425 258.298817 
L 145.827578 257.552278 
L 145.892509 257.642829 
L 146.019665 257.873858 
L 146.073775 257.7721 
L 146.25504 256.805807 
L 146.490415 256.134081 
L 146.590516 256.245013 
L 146.769076 256.897405 
L 147.199244 258.433954 
L 147.526604 258.795135 
L 147.705164 259.255643 
L 148.581731 262.98753 
L 148.863098 264.100825 
L 148.93344 264.153124 
L 148.976727 264.067407 
L 149.331142 263.433686 
L 149.466415 263.508161 
L 149.623331 263.52041 
L 149.837062 263.522765 
L 150.002095 263.523543 
L 150.226647 263.502449 
L 150.494487 263.76729 
L 150.572945 263.667843 
L 150.746095 263.291904 
L 151.603724 260.610293 
L 151.744407 260.624713 
L 151.747113 260.627744 
L 151.928378 260.855884 
L 152.001425 260.754689 
L 152.163753 260.652843 
L 152.185396 260.671257 
L 152.290909 260.729777 
L 152.331491 260.671736 
L 152.637207 259.877368 
L 152.837411 257.333276 
L 153.262167 253.197132 
L 153.346036 253.293489 
L 153.508364 253.974828 
L 153.8736 256.697201 
L 154.049455 257.237864 
L 154.1712 257.391239 
L 155.03424 259.379622 
L 155.101876 259.249239 
L 155.226327 258.498863 
L 155.461702 255.549286 
L 155.716015 254.065717 
L 155.973033 253.641875 
L 156.089367 253.77559 
L 156.316625 254.528739 
L 156.552 254.859607 
L 156.703505 254.981783 
L 156.87936 255.524214 
L 157.431273 258.411022 
L 158.067055 262.987068 
L 158.802938 267.866128 
L 158.938211 267.970722 
L 158.96256 267.927216 
L 159.116771 267.127406 
L 159.314269 265.412165 
L 159.665978 262.755665 
L 159.809367 262.579678 
L 159.836422 262.59543 
L 159.968989 262.85291 
L 160.223302 263.949785 
L 160.650764 265.662826 
L 160.92672 265.861901 
L 161.153978 266.475765 
L 161.540858 268.288667 
L 162.301091 272.134328 
L 162.338967 272.063639 
L 162.476945 271.142688 
L 162.98016 268.112242 
L 163.123549 268.035104 
L 163.142487 268.048722 
L 163.299404 268.331408 
L 163.505018 268.861801 
L 163.556422 268.710231 
L 163.683578 267.378444 
L 164.11104 262.855096 
L 164.376175 262.368002 
L 164.49792 262.296571 
L 164.530385 262.326171 
L 164.671069 262.67696 
L 164.941615 264.086205 
L 165.328495 265.849275 
L 165.645033 267.023988 
L 165.883113 267.522242 
L 165.910167 267.503602 
L 166.180713 267.33776 
L 166.205062 267.366467 
L 166.299753 267.455347 
L 166.359273 267.390178 
L 166.513484 267.345245 
L 166.529716 267.360875 
L 166.683927 267.694094 
L 167.184436 269.408168 
L 167.262895 269.152948 
L 167.576727 268.110796 
L 167.887855 267.679497 
L 168.174633 266.648709 
L 168.450589 263.45949 
L 169.043084 255.113283 
L 169.300102 254.145514 
L 169.402909 254.213324 
L 169.565236 254.458746 
L 169.613935 254.360979 
L 169.808727 254.014047 
L 169.843898 254.04105 
L 169.968349 254.363686 
L 170.21184 255.755673 
L 170.688 259.033524 
L 170.766458 258.953883 
L 171.058647 258.267672 
L 171.475287 256.166466 
L 171.645731 256.098765 
L 171.661964 256.114132 
L 171.805353 256.434945 
L 172.411375 258.855886 
L 172.719796 260.841581 
L 172.836131 260.673281 
L 172.917295 260.735278 
L 172.925411 260.752839 
L 173.076916 261.379684 
L 173.304175 262.119555 
L 173.320407 262.10798 
L 173.385338 261.855365 
L 173.877731 258.519737 
L 173.910196 258.535401 
L 174.034647 258.787353 
L 174.240262 259.40597 
L 174.305193 259.271514 
L 174.524335 258.862487 
L 174.548684 258.8761 
L 174.670429 259.118919 
L 174.905804 260.20518 
L 175.722851 264.647664 
L 175.771549 264.626894 
L 175.847302 264.377147 
L 176.423564 261.484046 
L 176.502022 261.557402 
L 176.618356 261.606005 
L 176.648116 261.584222 
L 176.845615 261.566819 
L 176.999825 261.905706 
L 177.254138 262.563971 
L 177.300131 262.509769 
L 177.973789 261.449373 
L 177.976495 261.450858 
L 178.106356 261.653543 
L 178.487825 262.311987 
L 178.606865 262.518845 
L 178.874705 263.610798 
L 179.572713 266.498486 
L 179.821615 267.343029 
L 180.232844 268.597654 
L 180.368116 268.645726 
L 180.387055 268.630643 
L 180.857804 268.352006 
L 180.936262 268.385397 
L 180.974138 268.31866 
L 181.37184 267.648838 
L 181.523345 267.821977 
L 181.731665 268.301487 
L 181.802007 268.120351 
L 182.224058 266.824315 
L 182.351215 266.95256 
L 182.429673 267.039585 
L 182.481076 266.96911 
L 182.567651 266.550295 
L 182.838196 265.555745 
L 182.959942 265.633518 
L 183.103331 265.600495 
L 183.273775 265.180385 
L 183.536204 263.330051 
L 183.820276 260.784255 
L 184.412771 254.129193 
L 184.583215 253.764326 
L 184.599447 253.770622 
L 184.769891 253.99099 
L 184.888931 254.081564 
L 184.926807 254.043694 
L 185.06208 253.658544 
L 185.313687 252.129468 
L 185.825018 247.311728 
L 186.033338 246.975537 
L 186.1632 247.102713 
L 186.34176 247.453484 
L 186.412102 247.327715 
L 187.096582 245.783972 
L 187.296785 245.698271 
L 187.478051 245.77436 
L 187.643084 246.20488 
L 187.74048 246.40248 
L 187.789178 246.316123 
L 187.965033 245.397478 
L 188.173353 243.420514 
L 188.72256 236.37481 
L 189.196015 230.504981 
L 189.653236 221.636255 
L 189.923782 212.144343 
L 190.053644 198.033124 
L 190.107753 161.051709 
L 190.145629 59.456407 
L 190.218676 158.848905 
L 190.367476 225.827476 
L 190.454051 230.384575 
L 190.505455 229.432059 
L 190.713775 219.346849 
L 190.878807 202.61743 
L 190.932916 170.704031 
L 190.973498 47.120244 
L 191.054662 140.780195 
L 191.211578 223.418327 
L 191.306269 228.309432 
L 191.354967 227.772829 
L 191.625513 220.102267 
L 192.142255 203.188975 
L 192.239651 186.117958 
L 192.282938 119.655986 
L 192.309993 70.397477 
L 192.38304 157.807262 
L 192.534545 211.780517 
L 192.707695 219.234237 
L 192.721222 219.226644 
L 192.745571 219.128219 
L 192.864611 217.721772 
L 193.164916 211.292786 
L 193.316422 202.551355 
L 193.400291 181.840607 
L 193.448989 70.324751 
L 193.459811 63.64509 
L 193.51392 116.949802 
L 193.684364 206.869651 
L 193.84128 214.104081 
L 193.854807 214.069418 
L 193.919738 213.151587 
L 194.060422 207.481765 
L 194.176756 193.2124 
L 194.22816 149.932247 
L 194.266036 63.428978 
L 194.339084 141.688173 
L 194.493295 203.771566 
L 194.679971 213.086173 
L 194.715142 213.199898 
L 194.769251 212.945105 
L 194.893702 210.864616 
L 195.064145 203.980555 
L 195.172364 189.481043 
L 195.221062 144.397776 
L 195.258938 70.547206 
L 195.32928 145.179427 
L 195.480785 200.358324 
L 195.6864 211.762813 
L 195.824378 212.91348 
L 195.856844 212.864257 
L 195.943418 212.193572 
L 196.097629 209.016187 
L 196.241018 201.0204 
L 196.327593 181.045748 
L 196.376291 80.797442 
L 196.392524 68.345963 
L 196.454749 130.975433 
L 196.614371 199.032406 
L 196.809164 209.065293 
L 196.836218 209.149978 
L 196.884916 208.847266 
L 196.99584 206.211884 
L 197.122996 197.235881 
L 197.198749 172.321856 
L 197.255564 70.629919 
L 197.331316 149.703785 
L 197.482822 196.626705 
L 197.677615 205.121675 
L 197.712785 205.253859 
L 197.753367 204.877908 
L 197.869702 201.445775 
L 197.983331 190.775847 
L 198.048262 157.572648 
L 198.09696 81.423931 
L 198.164596 146.0825 
L 198.313396 190.050825 
L 198.421615 193.74285 
L 198.464902 193.173009 
L 198.551476 187.8935 
L 198.638051 167.048595 
L 198.705687 126.780418 
L 198.767913 155.223428 
L 198.876131 170.547776 
L 198.908596 170.029707 
L 199.233251 163.193677 
L 199.714822 160.706074 
L 200.112524 159.77643 
L 200.602211 159.158577 
L 200.840291 158.818641 
L 201.614051 158.004053 
L 202.160553 157.968255 
L 202.387811 158.066807 
L 202.912669 158.170528 
L 203.296844 158.141092 
L 203.626909 158.106556 
L 204.054371 158.074595 
L 204.368204 157.952289 
L 205.155491 157.647034 
L 205.450385 157.614452 
L 206.091578 157.874135 
L 206.640785 157.881966 
L 206.797702 157.929335 
L 206.970851 157.978945 
L 206.9952 157.932274 
L 207.222458 157.692329 
L 208.174778 157.477595 
L 208.431796 157.280992 
L 208.604945 157.144416 
L 208.913367 157.375859 
L 209.284015 157.556049 
L 209.927913 157.565951 
L 210.347258 157.698499 
L 211.502487 158.085609 
L 212.021935 158.045994 
L 212.287069 157.939734 
L 212.676655 158.010626 
L 213.239389 158.071188 
L 213.894109 157.915856 
L 214.267462 158.282809 
L 214.478487 158.297784 
L 214.751738 157.841594 
L 214.900538 157.771266 
L 215.771695 158.132175 
L 216.069295 158.283327 
L 216.082822 158.245727 
L 216.329018 157.775371 
L 216.805178 157.785962 
L 217.722327 158.029774 
L 218.098385 158.365521 
L 218.547491 158.461946 
L 219.191389 158.383808 
L 219.510633 158.189765 
L 220.159942 158.269263 
L 220.454836 158.471302 
L 221.404451 158.369141 
L 221.623593 158.338855 
L 221.834618 158.271867 
L 221.988829 158.312312 
L 222.421702 158.559225 
L 222.570502 158.499945 
L 223.011491 158.311494 
L 223.181935 158.192087 
L 223.425425 158.100051 
L 223.587753 158.193611 
L 224.061207 158.713996 
L 224.34528 158.764357 
L 225.251607 158.351748 
L 225.768349 158.457362 
L 226.222865 158.240139 
L 226.818065 158.384516 
L 227.3808 158.697932 
L 227.762269 158.848513 
L 227.846138 158.737586 
L 228.162676 158.259529 
L 228.45216 158.130874 
L 228.979724 158.239937 
L 229.474822 158.724189 
L 229.677731 158.658198 
L 229.929338 158.475085 
L 230.838371 158.434096 
L 231.025047 158.589218 
L 231.330764 158.775688 
L 232.778182 158.833822 
L 233.381498 159.088898 
L 233.998342 158.991457 
L 234.093033 158.872914 
L 234.290531 158.773253 
L 234.517789 158.892806 
L 234.726109 159.090431 
L 234.766691 159.052905 
L 235.004771 158.971581 
L 236.127535 158.812302 
L 236.373731 158.594025 
L 236.538764 158.764637 
L 236.806604 158.892075 
L 238.172858 158.924608 
L 238.335185 158.882239 
L 238.732887 158.556805 
L 238.746415 158.569427 
L 239.341615 159.024411 
L 239.88 159.119706 
L 240.364276 159.068617 
L 240.748451 159.309259 
L 241.108276 159.618038 
L 241.489745 159.685761 
L 241.852276 159.550128 
L 242.37984 159.030509 
L 242.688262 159.055162 
L 243.031855 159.048066 
L 243.42144 158.830539 
L 244.557731 158.719671 
L 244.836393 159.031611 
L 245.228684 159.46159 
L 245.3856 159.42626 
L 246.232407 159.168799 
L 246.45696 159.048165 
L 246.881716 158.009602 
L 247.095447 157.85123 
L 247.108975 157.862822 
L 247.125207 157.877525 
L 247.1712 157.774438 
L 247.417396 157.502102 
L 247.701469 157.602167 
L 248.055884 157.698776 
L 248.069411 157.67269 
L 248.315607 157.437476 
L 248.86752 157.168898 
L 249.07584 156.636635 
L 249.281455 156.726529 
L 249.890182 157.368817 
L 250.149905 157.510026 
L 252.671389 158.113853 
L 253.512785 158.387649 
L 253.642647 158.450416 
L 254.002473 158.832014 
L 254.356887 158.84631 
L 254.684247 158.694337 
L 255.071127 158.486188 
L 256.15872 158.146785 
L 256.453615 158.073395 
L 256.951418 158.314375 
L 257.990313 159.131907 
L 258.263564 159.47292 
L 258.501644 159.468505 
L 259.816495 158.539891 
L 260.484742 158.534801 
L 261.556102 159.192056 
L 261.880756 159.693814 
L 262.064727 159.529031 
L 262.822255 159.067383 
L 264.691724 158.885915 
L 264.913571 158.814171 
L 265.303156 158.996172 
L 265.941644 159.268065 
L 266.27712 159.178849 
L 266.761396 158.218271 
L 266.772218 158.2245 
L 266.90208 158.473704 
L 267.321425 159.107251 
L 267.689367 159.312664 
L 267.800291 159.195238 
L 268.463127 158.307025 
L 269.001513 158.405324 
L 269.915956 158.746934 
L 270.164858 158.913753 
L 270.516567 159.541338 
L 270.843927 159.54136 
L 271.082007 159.299696 
L 271.51488 159.022883 
L 272.599767 158.757111 
L 272.70528 158.973453 
L 273.040756 159.594955 
L 273.370822 159.782142 
L 273.752291 159.732038 
L 273.860509 159.58337 
L 274.382662 158.321886 
L 274.60992 158.158398 
L 275.004916 158.242707 
L 275.424262 158.550603 
L 275.47296 158.389424 
L 275.648815 158.169136 
L 275.654225 158.170826 
L 275.846313 158.117476 
L 276.141207 158.22666 
L 276.517265 158.294999 
L 276.858153 158.416846 
L 277.277498 158.570055 
L 277.523695 158.435632 
L 278.343447 158.618198 
L 278.884538 159.056822 
L 279.220015 159.510503 
L 279.43104 159.528858 
L 280.253498 158.656736 
L 281.511535 158.682009 
L 281.9904 158.778432 
L 282.461149 158.910747 
L 282.810153 159.281262 
L 283.207855 159.435305 
L 283.624495 159.361092 
L 284.722909 158.670802 
L 284.852771 158.565308 
L 285.123316 158.199523 
L 285.366807 158.259377 
L 286.235258 158.879379 
L 286.622138 159.653575 
L 286.787171 159.642665 
L 287.336378 159.205916 
L 288.15072 158.90967 
L 288.921775 158.958613 
L 289.105745 158.87843 
L 289.31136 158.813584 
L 289.411462 159.00181 
L 289.738822 159.543874 
L 290.047244 159.665954 
L 290.409775 159.580584 
L 290.972509 159.108493 
L 291.416204 158.680096 
L 291.667811 158.657144 
L 293.832175 159.377465 
L 294.159535 159.984597 
L 294.462545 160.145763 
L 294.752029 159.987566 
L 295.068567 159.650668 
L 295.404044 158.833385 
L 295.658356 158.374255 
L 295.974895 158.230335 
L 296.09664 158.339466 
L 296.537629 158.961136 
L 296.967796 159.051209 
L 297.159884 158.98148 
L 297.549469 158.734616 
L 297.833542 158.64324 
L 298.201484 158.753884 
L 298.547782 159.231711 
L 298.961716 159.460436 
L 299.216029 159.406712 
L 299.859927 158.945998 
L 300.127767 158.708046 
L 300.468655 158.70686 
L 301.220771 158.789688 
L 301.718575 158.830278 
L 301.897135 159.010156 
L 302.254255 159.503365 
L 302.638429 159.674524 
L 302.754764 159.578766 
L 303.157876 159.127064 
L 304.029033 158.642602 
L 304.640465 158.92995 
L 305.127447 159.189205 
L 305.341178 159.138072 
L 305.571142 159.053861 
L 306.258327 158.887387 
L 306.48288 158.696342 
L 306.807535 158.750893 
L 307.121367 159.003707 
L 307.440611 159.324234 
L 307.878895 159.472987 
L 308.114269 159.383288 
L 308.503855 159.095652 
L 309.569804 158.709089 
L 309.84576 158.726823 
L 310.256989 158.297179 
L 310.516713 158.383656 
L 311.222836 158.93699 
L 311.42304 159.02263 
L 312.142691 159.130782 
L 312.378065 158.938755 
L 312.645905 158.77029 
L 314.10144 158.486309 
L 314.334109 158.556051 
L 314.336815 158.550739 
L 314.69664 157.846777 
L 314.988829 157.892338 
L 316.685149 158.462851 
L 317.142371 158.403213 
L 317.37504 158.338856 
L 317.962124 158.530642 
L 318.332771 159.102284 
L 318.692596 159.259395 
L 318.933382 159.177112 
L 319.533993 158.554522 
L 319.539404 158.558888 
L 320.085905 158.882694 
L 320.502545 158.884217 
L 320.843433 158.762317 
L 321.260073 158.767167 
L 321.871505 158.780734 
L 322.28544 158.839068 
L 322.650676 159.341991 
L 322.948276 159.430393 
L 323.191767 159.330801 
L 323.705804 158.837885 
L 324.016931 158.699998 
L 324.833978 158.777785 
L 325.055825 158.773228 
L 325.348015 158.824664 
L 325.591505 159.016545 
L 325.913455 159.465729 
L 326.4816 159.472077 
L 326.806255 159.146878 
L 327.160669 158.998594 
L 327.479913 158.853329 
L 327.942545 158.486344 
L 328.210385 158.543686 
L 329.122124 158.854002 
L 329.357498 158.954495 
L 329.617222 159.190091 
L 330.902313 159.061657 
L 331.186385 159.033047 
L 331.519156 159.165912 
L 331.906036 159.690218 
L 332.230691 159.754831 
L 332.406545 159.561694 
L 332.706851 159.18981 
L 333.193833 158.731554 
L 333.575302 158.799144 
L 334.671011 159.339555 
L 334.955084 159.701132 
L 334.957789 159.695796 
L 335.277033 159.055369 
L 335.920931 158.957261 
L 336.340276 158.692857 
L 337.162735 158.656559 
L 337.644305 158.896276 
L 338.006836 159.395711 
L 338.198924 159.456264 
L 338.223273 159.422651 
L 338.434298 159.315024 
L 338.596625 159.195931 
L 338.837411 159.011454 
L 339.256756 159.025018 
L 339.916887 159.274373 
L 340.163084 159.52728 
L 340.55808 159.511039 
L 340.858385 159.144199 
L 341.177629 158.705845 
L 341.610502 158.569385 
L 342.473542 158.904486 
L 342.757615 159.208378 
L 342.922647 159.274092 
L 342.933469 159.26403 
L 343.341993 158.948113 
L 343.628771 158.927661 
L 344.06976 158.773351 
L 345.089716 158.360179 
L 345.801251 158.486551 
L 346.250356 158.813017 
L 346.610182 159.322943 
L 346.791447 159.326655 
L 347.102575 159.07339 
L 347.335244 158.651158 
L 347.757295 158.507613 
L 348.257804 158.613561 
L 348.641978 159.032307 
L 348.996393 159.172158 
L 349.007215 159.154473 
L 349.651113 158.178034 
L 349.837789 157.973203 
L 350.054225 157.861959 
L 350.773876 158.027697 
L 351.474589 158.475654 
L 353.103273 158.516902 
L 353.498269 157.834965 
L 353.641658 157.903862 
L 354.177338 158.761386 
L 354.550691 158.921365 
L 355.007913 158.856776 
L 355.178356 158.656316 
L 355.451607 158.273276 
L 355.770851 158.201449 
L 355.962938 158.095325 
L 356.171258 158.070306 
L 356.9856 158.420516 
L 357.399535 158.781731 
L 357.716073 159.329869 
L 358.016378 159.463234 
L 358.365382 159.199579 
L 358.687331 158.838617 
L 359.114793 158.685625 
L 359.99136 158.465721 
L 360.19968 158.394457 
L 360.886865 158.301723 
L 361.381964 157.54495 
L 361.68768 157.705254 
L 361.825658 157.941767 
L 362.158429 158.612026 
L 362.46144 158.796974 
L 362.691404 158.558979 
L 363.267665 158.213805 
L 363.695127 158.216367 
L 364.490531 158.297966 
L 364.766487 158.310249 
L 365.342749 158.327821 
L 365.694458 158.243785 
L 366.216611 158.449455 
L 366.527738 158.48003 
L 366.879447 158.128465 
L 366.887564 158.135615 
L 367.028247 158.455483 
L 367.366429 158.950262 
L 367.588276 159.002642 
L 367.780364 158.882196 
L 368.148305 158.450968 
L 368.448611 158.209674 
L 368.56224 158.262917 
L 368.564945 158.268239 
L 368.943709 158.782307 
L 369.133091 158.734966 
L 369.51456 158.357042 
L 369.993425 158.177347 
L 370.945745 158.134941 
L 371.194647 158.0712 
L 371.440844 158.128267 
L 371.573411 158.318564 
L 371.911593 158.891802 
L 372.179433 158.962262 
L 372.647476 159.030112 
L 373.3536 158.786569 
L 373.737775 158.390118 
L 374.162531 157.486815 
L 374.42496 157.520811 
L 374.587287 157.783837 
L 374.968756 158.539121 
L 375.382691 158.818377 
L 375.785804 158.831815 
L 376.454051 158.737037 
L 376.727302 158.930589 
L 376.840931 158.855423 
L 377.384727 158.288635 
L 377.844655 157.984002 
L 378.355985 157.812174 
L 378.699578 157.668145 
L 379.18656 157.773031 
L 379.405702 157.961418 
L 379.819636 158.599151 
L 380.076655 158.686413 
L 380.479767 158.443313 
L 380.70432 158.312755 
L 380.928873 158.188983 
L 381.754036 157.564178 
L 381.77568 157.593367 
L 382.376291 158.321609 
L 382.714473 158.409126 
L 383.122996 158.303654 
L 383.3232 158.140175 
L 384.505484 158.19134 
L 384.689455 158.164072 
L 385.062807 158.093793 
L 385.252189 158.144694 
L 385.712116 158.73393 
L 385.955607 158.771352 
L 386.491287 158.618569 
L 387.062138 158.410549 
L 387.830487 158.443819 
L 388.206545 158.454751 
L 388.555549 158.321178 
L 388.899142 158.482427 
L 389.231913 158.870151 
L 389.678313 159.064012 
L 390.067898 159.010422 
L 390.370909 158.819117 
L 390.709091 158.705781 
L 391.00128 158.780276 
L 391.277236 158.924831 
L 392.002298 158.864649 
L 392.299898 158.543635 
L 392.93568 158.240619 
L 393.171055 158.404392 
L 393.541702 158.895142 
L 393.877178 159.016052 
L 393.885295 159.003561 
L 394.299229 158.502343 
L 395.357062 158.26916 
L 395.825105 158.633506 
L 396.352669 158.862254 
L 396.601571 158.799409 
L 396.901876 158.47174 
L 397.134545 158.349578 
L 397.448378 158.29874 
L 397.924538 158.50585 
L 398.343884 159.04427 
L 398.487273 159.025081 
L 398.487273 159.025081 
" clip-path="url(#p180926bc5d)" style="fill: none; stroke: #ff0000; stroke-width: 1.5; stroke-linecap: square"/>
   </g>
   <g id="line2d_18">
    <path d="M 344.378182 260.064 
L 398.379055 260.064 
L 398.379055 260.064 
" clip-path="url(#p180926bc5d)" style="fill: none; stroke: #000000; stroke-width: 1.5; stroke-linecap: square"/>
   </g>
   <g id="line2d_19">
    <path d="M 344.378182 231.552 
L 344.378182 229.6512 
L 344.378182 227.7504 
L 344.378182 225.8496 
L 344.378182 223.9488 
L 344.378182 222.048 
L 344.378182 220.1472 
L 344.378182 218.2464 
L 344.378182 216.3456 
L 344.378182 214.4448 
L 344.378182 212.544 
L 344.378182 210.6432 
L 344.378182 208.7424 
L 344.378182 206.8416 
L 344.378182 204.9408 
L 344.378182 203.04 
L 344.378182 201.1392 
L 344.378182 199.2384 
L 344.378182 197.3376 
L 344.378182 195.4368 
" clip-path="url(#p180926bc5d)" style="fill: none; stroke: #000000; stroke-width: 1.5; stroke-linecap: square"/>
   </g>
   <g id="patch_3">
    <path d="M 57.6 307.584 
L 57.6 41.472 
" style="fill: none; stroke: #000000; stroke-width: 0.8; stroke-linejoin: miter; stroke-linecap: square"/>
   </g>
   <g id="patch_4">
    <path d="M 57.6 307.584 
L 414.72 307.584 
" style="fill: none; stroke: #000000; stroke-width: 0.8; stroke-linejoin: miter; stroke-linecap: square"/>
   </g>
   <g id="text_18">
    <!-- 500 ms -->
    <g transform="translate(344.378182 258.1632) scale(0.1 -0.1)">
     <use xlink:href="#DejaVuSans-35"/>
     <use xlink:href="#DejaVuSans-30" x="63.623047"/>
     <use xlink:href="#DejaVuSans-30" x="127.246094"/>
     <use xlink:href="#DejaVuSans-20" x="190.869141"/>
     <use xlink:href="#DejaVuSans-6d" x="222.65625"/>
     <use xlink:href="#DejaVuSans-73" x="320.068359"/>
    </g>
   </g>
   <g id="text_19">
    <!-- 20 mV -->
    <g transform="translate(349.789091 193.536) scale(0.1 -0.1)">
     <use xlink:href="#DejaVuSans-32"/>
     <use xlink:href="#DejaVuSans-30" x="63.623047"/>
     <use xlink:href="#DejaVuSans-20" x="127.246094"/>
     <use xlink:href="#DejaVuSans-6d" x="159.033203"/>
     <use xlink:href="#DejaVuSans-56" x="256.445312"/>
    </g>
   </g>
  </g>
 </g>
 <defs>
  <clipPath id="p180926bc5d">
   <rect x="57.6" y="41.472" width="357.12" height="266.112"/>
  </clipPath>
 </defs>
</svg>
