<?xml version="1.0" encoding="utf-8" standalone="no"?>
<!DOCTYPE svg PUBLIC "-//W3C//DTD SVG 1.1//EN"
  "http://www.w3.org/Graphics/SVG/1.1/DTD/svg11.dtd">
<svg xmlns:xlink="http://www.w3.org/1999/xlink" width="432pt" height="288pt" viewBox="0 0 432 288" xmlns="http://www.w3.org/2000/svg" version="1.1">
 <metadata>
  <rdf:RDF xmlns:dc="http://purl.org/dc/elements/1.1/" xmlns:cc="http://creativecommons.org/ns#" xmlns:rdf="http://www.w3.org/1999/02/22-rdf-syntax-ns#">
   <cc:Work>
    <dc:type rdf:resource="http://purl.org/dc/dcmitype/StillImage"/>
    <dc:date>2022-07-12T17:35:04.754872</dc:date>
    <dc:format>image/svg+xml</dc:format>
    <dc:creator>
     <cc:Agent>
      <dc:title>Matplotlib v3.5.2, https://matplotlib.org/</dc:title>
     </cc:Agent>
    </dc:creator>
   </cc:Work>
  </rdf:RDF>
 </metadata>
 <defs>
  <style type="text/css">*{stroke-linejoin: round; stroke-linecap: butt}</style>
 </defs>
 <g id="figure_1">
  <g id="patch_1">
   <path d="M 0 288 
L 432 288 
L 432 0 
L 0 0 
L 0 288 
z
" style="fill: none"/>
  </g>
  <g id="axes_1">
   <g id="patch_2">
    <path d="M 54 252 
L 388.8 252 
L 388.8 34.56 
L 54 34.56 
z
" style="fill: #ffffff"/>
   </g>
   <g id="matplotlib.axis_1">
    <g id="xtick_1">
     <g id="line2d_1">
      <defs>
       <path id="mace0d31786" d="M 0 0 
L 0 3.5 
" style="stroke: #000000; stroke-width: 0.8"/>
      </defs>
      <g>
       <use xlink:href="#mace0d31786" x="69.218182" y="252" style="stroke: #000000; stroke-width: 0.8"/>
      </g>
     </g>
     <g id="text_1">
      <!-- 0 -->
      <g transform="translate(66.036932 266.598437)scale(0.1 -0.1)">
       <defs>
        <path id="DejaVuSans-30" d="M 2034 4250 
Q 1547 4250 1301 3770 
Q 1056 3291 1056 2328 
Q 1056 1369 1301 889 
Q 1547 409 2034 409 
Q 2525 409 2770 889 
Q 3016 1369 3016 2328 
Q 3016 3291 2770 3770 
Q 2525 4250 2034 4250 
z
M 2034 4750 
Q 2819 4750 3233 4129 
Q 3647 3509 3647 2328 
Q 3647 1150 3233 529 
Q 2819 -91 2034 -91 
Q 1250 -91 836 529 
Q 422 1150 422 2328 
Q 422 3509 836 4129 
Q 1250 4750 2034 4750 
z
" transform="scale(0.015625)"/>
       </defs>
       <use xlink:href="#DejaVuSans-30"/>
      </g>
     </g>
    </g>
    <g id="xtick_2">
     <g id="line2d_2">
      <g>
       <use xlink:href="#mace0d31786" x="119.945455" y="252" style="stroke: #000000; stroke-width: 0.8"/>
      </g>
     </g>
     <g id="text_2">
      <!-- 500 -->
      <g transform="translate(110.401705 266.598437)scale(0.1 -0.1)">
       <defs>
        <path id="DejaVuSans-35" d="M 691 4666 
L 3169 4666 
L 3169 4134 
L 1269 4134 
L 1269 2991 
Q 1406 3038 1543 3061 
Q 1681 3084 1819 3084 
Q 2600 3084 3056 2656 
Q 3513 2228 3513 1497 
Q 3513 744 3044 326 
Q 2575 -91 1722 -91 
Q 1428 -91 1123 -41 
Q 819 9 494 109 
L 494 744 
Q 775 591 1075 516 
Q 1375 441 1709 441 
Q 2250 441 2565 725 
Q 2881 1009 2881 1497 
Q 2881 1984 2565 2268 
Q 2250 2553 1709 2553 
Q 1456 2553 1204 2497 
Q 953 2441 691 2322 
L 691 4666 
z
" transform="scale(0.015625)"/>
       </defs>
       <use xlink:href="#DejaVuSans-35"/>
       <use xlink:href="#DejaVuSans-30" x="63.623047"/>
       <use xlink:href="#DejaVuSans-30" x="127.246094"/>
      </g>
     </g>
    </g>
    <g id="xtick_3">
     <g id="line2d_3">
      <g>
       <use xlink:href="#mace0d31786" x="170.672727" y="252" style="stroke: #000000; stroke-width: 0.8"/>
      </g>
     </g>
     <g id="text_3">
      <!-- 1000 -->
      <g transform="translate(157.947727 266.598437)scale(0.1 -0.1)">
       <defs>
        <path id="DejaVuSans-31" d="M 794 531 
L 1825 531 
L 1825 4091 
L 703 3866 
L 703 4441 
L 1819 4666 
L 2450 4666 
L 2450 531 
L 3481 531 
L 3481 0 
L 794 0 
L 794 531 
z
" transform="scale(0.015625)"/>
       </defs>
       <use xlink:href="#DejaVuSans-31"/>
       <use xlink:href="#DejaVuSans-30" x="63.623047"/>
       <use xlink:href="#DejaVuSans-30" x="127.246094"/>
       <use xlink:href="#DejaVuSans-30" x="190.869141"/>
      </g>
     </g>
    </g>
    <g id="xtick_4">
     <g id="line2d_4">
      <g>
       <use xlink:href="#mace0d31786" x="221.4" y="252" style="stroke: #000000; stroke-width: 0.8"/>
      </g>
     </g>
     <g id="text_4">
      <!-- 1500 -->
      <g transform="translate(208.675 266.598437)scale(0.1 -0.1)">
       <use xlink:href="#DejaVuSans-31"/>
       <use xlink:href="#DejaVuSans-35" x="63.623047"/>
       <use xlink:href="#DejaVuSans-30" x="127.246094"/>
       <use xlink:href="#DejaVuSans-30" x="190.869141"/>
      </g>
     </g>
    </g>
    <g id="xtick_5">
     <g id="line2d_5">
      <g>
       <use xlink:href="#mace0d31786" x="272.127273" y="252" style="stroke: #000000; stroke-width: 0.8"/>
      </g>
     </g>
     <g id="text_5">
      <!-- 2000 -->
      <g transform="translate(259.402273 266.598437)scale(0.1 -0.1)">
       <defs>
        <path id="DejaVuSans-32" d="M 1228 531 
L 3431 531 
L 3431 0 
L 469 0 
L 469 531 
Q 828 903 1448 1529 
Q 2069 2156 2228 2338 
Q 2531 2678 2651 2914 
Q 2772 3150 2772 3378 
Q 2772 3750 2511 3984 
Q 2250 4219 1831 4219 
Q 1534 4219 1204 4116 
Q 875 4013 500 3803 
L 500 4441 
Q 881 4594 1212 4672 
Q 1544 4750 1819 4750 
Q 2544 4750 2975 4387 
Q 3406 4025 3406 3419 
Q 3406 3131 3298 2873 
Q 3191 2616 2906 2266 
Q 2828 2175 2409 1742 
Q 1991 1309 1228 531 
z
" transform="scale(0.015625)"/>
       </defs>
       <use xlink:href="#DejaVuSans-32"/>
       <use xlink:href="#DejaVuSans-30" x="63.623047"/>
       <use xlink:href="#DejaVuSans-30" x="127.246094"/>
       <use xlink:href="#DejaVuSans-30" x="190.869141"/>
      </g>
     </g>
    </g>
    <g id="xtick_6">
     <g id="line2d_6">
      <g>
       <use xlink:href="#mace0d31786" x="322.854545" y="252" style="stroke: #000000; stroke-width: 0.8"/>
      </g>
     </g>
     <g id="text_6">
      <!-- 2500 -->
      <g transform="translate(310.129545 266.598437)scale(0.1 -0.1)">
       <use xlink:href="#DejaVuSans-32"/>
       <use xlink:href="#DejaVuSans-35" x="63.623047"/>
       <use xlink:href="#DejaVuSans-30" x="127.246094"/>
       <use xlink:href="#DejaVuSans-30" x="190.869141"/>
      </g>
     </g>
    </g>
    <g id="xtick_7">
     <g id="line2d_7">
      <g>
       <use xlink:href="#mace0d31786" x="373.581818" y="252" style="stroke: #000000; stroke-width: 0.8"/>
      </g>
     </g>
     <g id="text_7">
      <!-- 3000 -->
      <g transform="translate(360.856818 266.598437)scale(0.1 -0.1)">
       <defs>
        <path id="DejaVuSans-33" d="M 2597 2516 
Q 3050 2419 3304 2112 
Q 3559 1806 3559 1356 
Q 3559 666 3084 287 
Q 2609 -91 1734 -91 
Q 1441 -91 1130 -33 
Q 819 25 488 141 
L 488 750 
Q 750 597 1062 519 
Q 1375 441 1716 441 
Q 2309 441 2620 675 
Q 2931 909 2931 1356 
Q 2931 1769 2642 2001 
Q 2353 2234 1838 2234 
L 1294 2234 
L 1294 2753 
L 1863 2753 
Q 2328 2753 2575 2939 
Q 2822 3125 2822 3475 
Q 2822 3834 2567 4026 
Q 2313 4219 1838 4219 
Q 1578 4219 1281 4162 
Q 984 4106 628 3988 
L 628 4550 
Q 988 4650 1302 4700 
Q 1616 4750 1894 4750 
Q 2613 4750 3031 4423 
Q 3450 4097 3450 3541 
Q 3450 3153 3228 2886 
Q 3006 2619 2597 2516 
z
" transform="scale(0.015625)"/>
       </defs>
       <use xlink:href="#DejaVuSans-33"/>
       <use xlink:href="#DejaVuSans-30" x="63.623047"/>
       <use xlink:href="#DejaVuSans-30" x="127.246094"/>
       <use xlink:href="#DejaVuSans-30" x="190.869141"/>
      </g>
     </g>
    </g>
    <g id="text_8">
     <!-- Time(ms) -->
     <g transform="translate(197.789844 280.276563)scale(0.1 -0.1)">
      <defs>
       <path id="DejaVuSans-54" d="M -19 4666 
L 3928 4666 
L 3928 4134 
L 2272 4134 
L 2272 0 
L 1638 0 
L 1638 4134 
L -19 4134 
L -19 4666 
z
" transform="scale(0.015625)"/>
       <path id="DejaVuSans-69" d="M 603 3500 
L 1178 3500 
L 1178 0 
L 603 0 
L 603 3500 
z
M 603 4863 
L 1178 4863 
L 1178 4134 
L 603 4134 
L 603 4863 
z
" transform="scale(0.015625)"/>
       <path id="DejaVuSans-6d" d="M 3328 2828 
Q 3544 3216 3844 3400 
Q 4144 3584 4550 3584 
Q 5097 3584 5394 3201 
Q 5691 2819 5691 2113 
L 5691 0 
L 5113 0 
L 5113 2094 
Q 5113 2597 4934 2840 
Q 4756 3084 4391 3084 
Q 3944 3084 3684 2787 
Q 3425 2491 3425 1978 
L 3425 0 
L 2847 0 
L 2847 2094 
Q 2847 2600 2669 2842 
Q 2491 3084 2119 3084 
Q 1678 3084 1418 2786 
Q 1159 2488 1159 1978 
L 1159 0 
L 581 0 
L 581 3500 
L 1159 3500 
L 1159 2956 
Q 1356 3278 1631 3431 
Q 1906 3584 2284 3584 
Q 2666 3584 2933 3390 
Q 3200 3197 3328 2828 
z
" transform="scale(0.015625)"/>
       <path id="DejaVuSans-65" d="M 3597 1894 
L 3597 1613 
L 953 1613 
Q 991 1019 1311 708 
Q 1631 397 2203 397 
Q 2534 397 2845 478 
Q 3156 559 3463 722 
L 3463 178 
Q 3153 47 2828 -22 
Q 2503 -91 2169 -91 
Q 1331 -91 842 396 
Q 353 884 353 1716 
Q 353 2575 817 3079 
Q 1281 3584 2069 3584 
Q 2775 3584 3186 3129 
Q 3597 2675 3597 1894 
z
M 3022 2063 
Q 3016 2534 2758 2815 
Q 2500 3097 2075 3097 
Q 1594 3097 1305 2825 
Q 1016 2553 972 2059 
L 3022 2063 
z
" transform="scale(0.015625)"/>
       <path id="DejaVuSans-28" d="M 1984 4856 
Q 1566 4138 1362 3434 
Q 1159 2731 1159 2009 
Q 1159 1288 1364 580 
Q 1569 -128 1984 -844 
L 1484 -844 
Q 1016 -109 783 600 
Q 550 1309 550 2009 
Q 550 2706 781 3412 
Q 1013 4119 1484 4856 
L 1984 4856 
z
" transform="scale(0.015625)"/>
       <path id="DejaVuSans-73" d="M 2834 3397 
L 2834 2853 
Q 2591 2978 2328 3040 
Q 2066 3103 1784 3103 
Q 1356 3103 1142 2972 
Q 928 2841 928 2578 
Q 928 2378 1081 2264 
Q 1234 2150 1697 2047 
L 1894 2003 
Q 2506 1872 2764 1633 
Q 3022 1394 3022 966 
Q 3022 478 2636 193 
Q 2250 -91 1575 -91 
Q 1294 -91 989 -36 
Q 684 19 347 128 
L 347 722 
Q 666 556 975 473 
Q 1284 391 1588 391 
Q 1994 391 2212 530 
Q 2431 669 2431 922 
Q 2431 1156 2273 1281 
Q 2116 1406 1581 1522 
L 1381 1569 
Q 847 1681 609 1914 
Q 372 2147 372 2553 
Q 372 3047 722 3315 
Q 1072 3584 1716 3584 
Q 2034 3584 2315 3537 
Q 2597 3491 2834 3397 
z
" transform="scale(0.015625)"/>
       <path id="DejaVuSans-29" d="M 513 4856 
L 1013 4856 
Q 1481 4119 1714 3412 
Q 1947 2706 1947 2009 
Q 1947 1309 1714 600 
Q 1481 -109 1013 -844 
L 513 -844 
Q 928 -128 1133 580 
Q 1338 1288 1338 2009 
Q 1338 2731 1133 3434 
Q 928 4138 513 4856 
z
" transform="scale(0.015625)"/>
      </defs>
      <use xlink:href="#DejaVuSans-54"/>
      <use xlink:href="#DejaVuSans-69" x="57.958984"/>
      <use xlink:href="#DejaVuSans-6d" x="85.742188"/>
      <use xlink:href="#DejaVuSans-65" x="183.154297"/>
      <use xlink:href="#DejaVuSans-28" x="244.677734"/>
      <use xlink:href="#DejaVuSans-6d" x="283.691406"/>
      <use xlink:href="#DejaVuSans-73" x="381.103516"/>
      <use xlink:href="#DejaVuSans-29" x="433.203125"/>
     </g>
    </g>
   </g>
   <g id="matplotlib.axis_2">
    <g id="ytick_1">
     <g id="line2d_8">
      <defs>
       <path id="m2ded43227b" d="M 0 0 
L -3.5 0 
" style="stroke: #000000; stroke-width: 0.8"/>
      </defs>
      <g>
       <use xlink:href="#m2ded43227b" x="54" y="252" style="stroke: #000000; stroke-width: 0.8"/>
      </g>
     </g>
     <g id="text_9">
      <!-- −100 -->
      <g transform="translate(19.532812 255.799219)scale(0.1 -0.1)">
       <defs>
        <path id="DejaVuSans-2212" d="M 678 2272 
L 4684 2272 
L 4684 1741 
L 678 1741 
L 678 2272 
z
" transform="scale(0.015625)"/>
       </defs>
       <use xlink:href="#DejaVuSans-2212"/>
       <use xlink:href="#DejaVuSans-31" x="83.789062"/>
       <use xlink:href="#DejaVuSans-30" x="147.412109"/>
       <use xlink:href="#DejaVuSans-30" x="211.035156"/>
      </g>
     </g>
    </g>
    <g id="ytick_2">
     <g id="line2d_9">
      <g>
       <use xlink:href="#m2ded43227b" x="54" y="220.937143" style="stroke: #000000; stroke-width: 0.8"/>
      </g>
     </g>
     <g id="text_10">
      <!-- −80 -->
      <g transform="translate(25.895312 224.736362)scale(0.1 -0.1)">
       <defs>
        <path id="DejaVuSans-38" d="M 2034 2216 
Q 1584 2216 1326 1975 
Q 1069 1734 1069 1313 
Q 1069 891 1326 650 
Q 1584 409 2034 409 
Q 2484 409 2743 651 
Q 3003 894 3003 1313 
Q 3003 1734 2745 1975 
Q 2488 2216 2034 2216 
z
M 1403 2484 
Q 997 2584 770 2862 
Q 544 3141 544 3541 
Q 544 4100 942 4425 
Q 1341 4750 2034 4750 
Q 2731 4750 3128 4425 
Q 3525 4100 3525 3541 
Q 3525 3141 3298 2862 
Q 3072 2584 2669 2484 
Q 3125 2378 3379 2068 
Q 3634 1759 3634 1313 
Q 3634 634 3220 271 
Q 2806 -91 2034 -91 
Q 1263 -91 848 271 
Q 434 634 434 1313 
Q 434 1759 690 2068 
Q 947 2378 1403 2484 
z
M 1172 3481 
Q 1172 3119 1398 2916 
Q 1625 2713 2034 2713 
Q 2441 2713 2670 2916 
Q 2900 3119 2900 3481 
Q 2900 3844 2670 4047 
Q 2441 4250 2034 4250 
Q 1625 4250 1398 4047 
Q 1172 3844 1172 3481 
z
" transform="scale(0.015625)"/>
       </defs>
       <use xlink:href="#DejaVuSans-2212"/>
       <use xlink:href="#DejaVuSans-38" x="83.789062"/>
       <use xlink:href="#DejaVuSans-30" x="147.412109"/>
      </g>
     </g>
    </g>
    <g id="ytick_3">
     <g id="line2d_10">
      <g>
       <use xlink:href="#m2ded43227b" x="54" y="189.874286" style="stroke: #000000; stroke-width: 0.8"/>
      </g>
     </g>
     <g id="text_11">
      <!-- −60 -->
      <g transform="translate(25.895312 193.673504)scale(0.1 -0.1)">
       <defs>
        <path id="DejaVuSans-36" d="M 2113 2584 
Q 1688 2584 1439 2293 
Q 1191 2003 1191 1497 
Q 1191 994 1439 701 
Q 1688 409 2113 409 
Q 2538 409 2786 701 
Q 3034 994 3034 1497 
Q 3034 2003 2786 2293 
Q 2538 2584 2113 2584 
z
M 3366 4563 
L 3366 3988 
Q 3128 4100 2886 4159 
Q 2644 4219 2406 4219 
Q 1781 4219 1451 3797 
Q 1122 3375 1075 2522 
Q 1259 2794 1537 2939 
Q 1816 3084 2150 3084 
Q 2853 3084 3261 2657 
Q 3669 2231 3669 1497 
Q 3669 778 3244 343 
Q 2819 -91 2113 -91 
Q 1303 -91 875 529 
Q 447 1150 447 2328 
Q 447 3434 972 4092 
Q 1497 4750 2381 4750 
Q 2619 4750 2861 4703 
Q 3103 4656 3366 4563 
z
" transform="scale(0.015625)"/>
       </defs>
       <use xlink:href="#DejaVuSans-2212"/>
       <use xlink:href="#DejaVuSans-36" x="83.789062"/>
       <use xlink:href="#DejaVuSans-30" x="147.412109"/>
      </g>
     </g>
    </g>
    <g id="ytick_4">
     <g id="line2d_11">
      <g>
       <use xlink:href="#m2ded43227b" x="54" y="158.811429" style="stroke: #000000; stroke-width: 0.8"/>
      </g>
     </g>
     <g id="text_12">
      <!-- −40 -->
      <g transform="translate(25.895312 162.610647)scale(0.1 -0.1)">
       <defs>
        <path id="DejaVuSans-34" d="M 2419 4116 
L 825 1625 
L 2419 1625 
L 2419 4116 
z
M 2253 4666 
L 3047 4666 
L 3047 1625 
L 3713 1625 
L 3713 1100 
L 3047 1100 
L 3047 0 
L 2419 0 
L 2419 1100 
L 313 1100 
L 313 1709 
L 2253 4666 
z
" transform="scale(0.015625)"/>
       </defs>
       <use xlink:href="#DejaVuSans-2212"/>
       <use xlink:href="#DejaVuSans-34" x="83.789062"/>
       <use xlink:href="#DejaVuSans-30" x="147.412109"/>
      </g>
     </g>
    </g>
    <g id="ytick_5">
     <g id="line2d_12">
      <g>
       <use xlink:href="#m2ded43227b" x="54" y="127.748571" style="stroke: #000000; stroke-width: 0.8"/>
      </g>
     </g>
     <g id="text_13">
      <!-- −20 -->
      <g transform="translate(25.895312 131.54779)scale(0.1 -0.1)">
       <use xlink:href="#DejaVuSans-2212"/>
       <use xlink:href="#DejaVuSans-32" x="83.789062"/>
       <use xlink:href="#DejaVuSans-30" x="147.412109"/>
      </g>
     </g>
    </g>
    <g id="ytick_6">
     <g id="line2d_13">
      <g>
       <use xlink:href="#m2ded43227b" x="54" y="96.685714" style="stroke: #000000; stroke-width: 0.8"/>
      </g>
     </g>
     <g id="text_14">
      <!-- 0 -->
      <g transform="translate(40.6375 100.484933)scale(0.1 -0.1)">
       <use xlink:href="#DejaVuSans-30"/>
      </g>
     </g>
    </g>
    <g id="ytick_7">
     <g id="line2d_14">
      <g>
       <use xlink:href="#m2ded43227b" x="54" y="65.622857" style="stroke: #000000; stroke-width: 0.8"/>
      </g>
     </g>
     <g id="text_15">
      <!-- 20 -->
      <g transform="translate(34.275 69.422076)scale(0.1 -0.1)">
       <use xlink:href="#DejaVuSans-32"/>
       <use xlink:href="#DejaVuSans-30" x="63.623047"/>
      </g>
     </g>
    </g>
    <g id="ytick_8">
     <g id="line2d_15">
      <g>
       <use xlink:href="#m2ded43227b" x="54" y="34.56" style="stroke: #000000; stroke-width: 0.8"/>
      </g>
     </g>
     <g id="text_16">
      <!-- 40 -->
      <g transform="translate(34.275 38.359219)scale(0.1 -0.1)">
       <use xlink:href="#DejaVuSans-34"/>
       <use xlink:href="#DejaVuSans-30" x="63.623047"/>
      </g>
     </g>
    </g>
    <g id="text_17">
     <!-- Membrane potential (mV) -->
     <g transform="translate(13.453125 207.691719)rotate(-90)scale(0.1 -0.1)">
      <defs>
       <path id="DejaVuSans-4d" d="M 628 4666 
L 1569 4666 
L 2759 1491 
L 3956 4666 
L 4897 4666 
L 4897 0 
L 4281 0 
L 4281 4097 
L 3078 897 
L 2444 897 
L 1241 4097 
L 1241 0 
L 628 0 
L 628 4666 
z
" transform="scale(0.015625)"/>
       <path id="DejaVuSans-62" d="M 3116 1747 
Q 3116 2381 2855 2742 
Q 2594 3103 2138 3103 
Q 1681 3103 1420 2742 
Q 1159 2381 1159 1747 
Q 1159 1113 1420 752 
Q 1681 391 2138 391 
Q 2594 391 2855 752 
Q 3116 1113 3116 1747 
z
M 1159 2969 
Q 1341 3281 1617 3432 
Q 1894 3584 2278 3584 
Q 2916 3584 3314 3078 
Q 3713 2572 3713 1747 
Q 3713 922 3314 415 
Q 2916 -91 2278 -91 
Q 1894 -91 1617 61 
Q 1341 213 1159 525 
L 1159 0 
L 581 0 
L 581 4863 
L 1159 4863 
L 1159 2969 
z
" transform="scale(0.015625)"/>
       <path id="DejaVuSans-72" d="M 2631 2963 
Q 2534 3019 2420 3045 
Q 2306 3072 2169 3072 
Q 1681 3072 1420 2755 
Q 1159 2438 1159 1844 
L 1159 0 
L 581 0 
L 581 3500 
L 1159 3500 
L 1159 2956 
Q 1341 3275 1631 3429 
Q 1922 3584 2338 3584 
Q 2397 3584 2469 3576 
Q 2541 3569 2628 3553 
L 2631 2963 
z
" transform="scale(0.015625)"/>
       <path id="DejaVuSans-61" d="M 2194 1759 
Q 1497 1759 1228 1600 
Q 959 1441 959 1056 
Q 959 750 1161 570 
Q 1363 391 1709 391 
Q 2188 391 2477 730 
Q 2766 1069 2766 1631 
L 2766 1759 
L 2194 1759 
z
M 3341 1997 
L 3341 0 
L 2766 0 
L 2766 531 
Q 2569 213 2275 61 
Q 1981 -91 1556 -91 
Q 1019 -91 701 211 
Q 384 513 384 1019 
Q 384 1609 779 1909 
Q 1175 2209 1959 2209 
L 2766 2209 
L 2766 2266 
Q 2766 2663 2505 2880 
Q 2244 3097 1772 3097 
Q 1472 3097 1187 3025 
Q 903 2953 641 2809 
L 641 3341 
Q 956 3463 1253 3523 
Q 1550 3584 1831 3584 
Q 2591 3584 2966 3190 
Q 3341 2797 3341 1997 
z
" transform="scale(0.015625)"/>
       <path id="DejaVuSans-6e" d="M 3513 2113 
L 3513 0 
L 2938 0 
L 2938 2094 
Q 2938 2591 2744 2837 
Q 2550 3084 2163 3084 
Q 1697 3084 1428 2787 
Q 1159 2491 1159 1978 
L 1159 0 
L 581 0 
L 581 3500 
L 1159 3500 
L 1159 2956 
Q 1366 3272 1645 3428 
Q 1925 3584 2291 3584 
Q 2894 3584 3203 3211 
Q 3513 2838 3513 2113 
z
" transform="scale(0.015625)"/>
       <path id="DejaVuSans-20" transform="scale(0.015625)"/>
       <path id="DejaVuSans-70" d="M 1159 525 
L 1159 -1331 
L 581 -1331 
L 581 3500 
L 1159 3500 
L 1159 2969 
Q 1341 3281 1617 3432 
Q 1894 3584 2278 3584 
Q 2916 3584 3314 3078 
Q 3713 2572 3713 1747 
Q 3713 922 3314 415 
Q 2916 -91 2278 -91 
Q 1894 -91 1617 61 
Q 1341 213 1159 525 
z
M 3116 1747 
Q 3116 2381 2855 2742 
Q 2594 3103 2138 3103 
Q 1681 3103 1420 2742 
Q 1159 2381 1159 1747 
Q 1159 1113 1420 752 
Q 1681 391 2138 391 
Q 2594 391 2855 752 
Q 3116 1113 3116 1747 
z
" transform="scale(0.015625)"/>
       <path id="DejaVuSans-6f" d="M 1959 3097 
Q 1497 3097 1228 2736 
Q 959 2375 959 1747 
Q 959 1119 1226 758 
Q 1494 397 1959 397 
Q 2419 397 2687 759 
Q 2956 1122 2956 1747 
Q 2956 2369 2687 2733 
Q 2419 3097 1959 3097 
z
M 1959 3584 
Q 2709 3584 3137 3096 
Q 3566 2609 3566 1747 
Q 3566 888 3137 398 
Q 2709 -91 1959 -91 
Q 1206 -91 779 398 
Q 353 888 353 1747 
Q 353 2609 779 3096 
Q 1206 3584 1959 3584 
z
" transform="scale(0.015625)"/>
       <path id="DejaVuSans-74" d="M 1172 4494 
L 1172 3500 
L 2356 3500 
L 2356 3053 
L 1172 3053 
L 1172 1153 
Q 1172 725 1289 603 
Q 1406 481 1766 481 
L 2356 481 
L 2356 0 
L 1766 0 
Q 1100 0 847 248 
Q 594 497 594 1153 
L 594 3053 
L 172 3053 
L 172 3500 
L 594 3500 
L 594 4494 
L 1172 4494 
z
" transform="scale(0.015625)"/>
       <path id="DejaVuSans-6c" d="M 603 4863 
L 1178 4863 
L 1178 0 
L 603 0 
L 603 4863 
z
" transform="scale(0.015625)"/>
       <path id="DejaVuSans-56" d="M 1831 0 
L 50 4666 
L 709 4666 
L 2188 738 
L 3669 4666 
L 4325 4666 
L 2547 0 
L 1831 0 
z
" transform="scale(0.015625)"/>
      </defs>
      <use xlink:href="#DejaVuSans-4d"/>
      <use xlink:href="#DejaVuSans-65" x="86.279297"/>
      <use xlink:href="#DejaVuSans-6d" x="147.802734"/>
      <use xlink:href="#DejaVuSans-62" x="245.214844"/>
      <use xlink:href="#DejaVuSans-72" x="308.691406"/>
      <use xlink:href="#DejaVuSans-61" x="349.804688"/>
      <use xlink:href="#DejaVuSans-6e" x="411.083984"/>
      <use xlink:href="#DejaVuSans-65" x="474.462891"/>
      <use xlink:href="#DejaVuSans-20" x="535.986328"/>
      <use xlink:href="#DejaVuSans-70" x="567.773438"/>
      <use xlink:href="#DejaVuSans-6f" x="631.25"/>
      <use xlink:href="#DejaVuSans-74" x="692.431641"/>
      <use xlink:href="#DejaVuSans-65" x="731.640625"/>
      <use xlink:href="#DejaVuSans-6e" x="793.164062"/>
      <use xlink:href="#DejaVuSans-74" x="856.542969"/>
      <use xlink:href="#DejaVuSans-69" x="895.751953"/>
      <use xlink:href="#DejaVuSans-61" x="923.535156"/>
      <use xlink:href="#DejaVuSans-6c" x="984.814453"/>
      <use xlink:href="#DejaVuSans-20" x="1012.597656"/>
      <use xlink:href="#DejaVuSans-28" x="1044.384766"/>
      <use xlink:href="#DejaVuSans-6d" x="1083.398438"/>
      <use xlink:href="#DejaVuSans-56" x="1180.810547"/>
      <use xlink:href="#DejaVuSans-29" x="1249.21875"/>
     </g>
    </g>
   </g>
   <g id="line2d_16">
    <path d="M 69.218182 230.256 
L 69.268909 229.508767 
L 69.337391 229.88936 
L 69.948655 234.241572 
L 70.182 234.408481 
L 70.473682 235.055777 
L 71.587145 237.715232 
L 72.140073 238.394765 
L 72.731045 238.774047 
L 73.497027 238.987047 
L 73.722764 238.915456 
L 74.257936 236.611874 
L 74.407582 236.148499 
L 75.107618 233.065422 
L 75.3435 232.218008 
L 75.477927 232.246141 
L 75.668155 232.631579 
L 75.827945 233.030755 
L 75.893891 232.934892 
L 76.510227 231.754844 
L 76.5711 231.807747 
L 76.609145 231.84031 
L 76.652264 231.732244 
L 76.959164 230.935712 
L 76.974382 230.941466 
L 77.106273 231.132517 
L 77.3802 232.030187 
L 78.397282 235.799739 
L 78.435327 235.766499 
L 78.617945 235.302658 
L 79.302764 232.287084 
L 79.6122 229.937624 
L 80.134691 228.267196 
L 80.218391 228.355417 
L 80.454273 228.944568 
L 80.563336 228.739486 
L 80.730736 228.596645 
L 80.748491 228.607753 
L 80.862627 228.726412 
L 80.913355 228.600902 
L 81.1467 228.168746 
L 81.161918 228.175441 
L 81.288736 228.378702 
L 81.539836 229.31211 
L 82.754755 234.828977 
L 82.825773 234.717501 
L 83.160573 234.191891 
L 83.3508 234.081531 
L 83.896118 231.137964 
L 83.941773 231.159233 
L 84.106636 231.424238 
L 84.456655 232.515543 
L 85.506709 235.87975 
L 86.069782 236.906256 
L 86.637927 237.499009 
L 87.297382 237.863423 
L 88.238373 238.108783 
L 88.296709 238.01425 
L 89.212336 234.657805 
L 89.445682 234.312699 
L 89.618155 234.390832 
L 89.904764 234.836875 
L 90.556609 236.108285 
L 90.625091 235.993101 
L 91.117145 235.017512 
L 91.314982 235.130803 
L 91.680218 235.669444 
L 92.392936 236.820583 
L 92.423373 236.736408 
L 92.900209 235.13847 
L 93.077755 235.214559 
L 93.402409 235.670541 
L 93.7296 236.209672 
L 93.775255 236.086458 
L 94.206436 234.775817 
L 94.378909 234.824032 
L 94.449927 234.84819 
L 94.485436 234.776078 
L 94.607182 234.11239 
L 94.995245 231.41906 
L 95.220982 230.381682 
L 95.416282 230.101189 
L 95.418818 230.101983 
L 95.553245 230.266587 
L 95.809418 231.029098 
L 97.267827 236.075381 
L 97.285582 236.062903 
L 97.409864 235.758896 
L 97.731982 235.133475 
L 97.927282 235.150544 
L 98.203745 235.459375 
L 98.7795 236.380315 
L 98.8353 236.193211 
L 99.210682 234.868845 
L 99.388227 234.860023 
L 99.629182 235.142816 
L 101.300645 237.569434 
L 101.980391 237.952008 
L 102.289827 237.969486 
L 102.292364 237.962857 
L 102.495273 237.090181 
L 102.794564 235.316914 
L 103.0761 234.238426 
L 103.263791 234.149598 
L 103.456555 234.352584 
L 103.864909 235.196485 
L 104.537045 236.560909 
L 104.562409 236.533184 
L 104.712055 236.062756 
L 105.021491 235.370593 
L 105.219327 235.358733 
L 105.478036 235.624887 
L 106.170464 236.699188 
L 106.246555 236.516278 
L 106.629545 235.577497 
L 106.824845 235.587949 
L 107.103845 235.887608 
L 107.413282 236.331652 
L 107.461473 236.21006 
L 107.829245 234.323507 
L 108.105709 233.148109 
L 108.270573 233.100148 
L 108.453191 233.362972 
L 108.869155 234.464821 
L 109.711227 236.582734 
L 109.850727 236.771803 
L 109.898918 236.705917 
L 110.446773 235.813351 
L 110.687727 235.976854 
L 110.796791 236.068832 
L 110.834836 235.979588 
L 110.941364 235.213623 
L 111.263482 233.235666 
L 111.671836 231.98689 
L 112.044682 230.371053 
L 112.166427 230.43841 
L 112.364264 230.910972 
L 112.851245 232.826088 
L 113.396564 234.633569 
L 113.820136 234.647149 
L 114.147327 235.172628 
L 114.279218 235.344341 
L 114.327409 235.286631 
L 114.839755 234.587392 
L 115.065491 234.804261 
L 115.552473 235.673543 
L 116.379327 237.032364 
L 116.9424 237.557465 
L 117.021027 237.337928 
L 118.258773 232.525754 
L 118.405882 232.678548 
L 118.649373 233.205769 
L 118.728 233.013933 
L 119.001927 232.485313 
L 119.143964 232.59483 
L 119.3976 233.162086 
L 120.805282 236.760573 
L 120.861082 236.655139 
L 121.365818 235.300937 
L 121.558582 235.367814 
L 121.885773 235.784251 
L 122.235791 236.331176 
L 122.273836 236.180917 
L 122.900318 232.865461 
L 123.055036 232.947258 
L 123.306136 233.409892 
L 125.023255 237.174726 
L 125.084127 237.08065 
L 125.198264 236.344578 
L 125.642127 232.990327 
L 125.8983 232.353994 
L 126.058091 232.378529 
L 126.268609 232.716942 
L 126.722618 233.977909 
L 127.602736 236.307594 
L 128.122691 237.100561 
L 128.221609 236.967715 
L 128.419445 236.259317 
L 129.2184 233.101691 
L 129.388336 233.074533 
L 129.583636 233.345455 
L 130.002136 234.407955 
L 130.887327 236.578933 
L 131.275391 237.152798 
L 131.303291 237.117282 
L 131.4504 236.574705 
L 131.787736 235.617618 
L 132.353345 234.516591 
L 132.553718 234.622567 
L 132.878373 235.109282 
L 134.230255 237.367775 
L 134.851664 237.864783 
L 135.254945 238.041835 
L 135.275236 237.984625 
L 136.315145 234.135462 
L 136.343045 234.145424 
L 136.530736 234.265873 
L 136.571318 234.135256 
L 136.931482 233.13593 
L 137.076055 233.231755 
L 137.334764 233.7623 
L 138.717082 236.99414 
L 139.292836 237.628711 
L 139.937073 238.008431 
L 140.124764 238.043686 
L 140.145055 237.975425 
L 141.025173 234.759454 
L 141.217936 234.80224 
L 141.496936 235.152143 
L 141.709991 235.443555 
L 141.760718 235.375019 
L 142.2477 234.65816 
L 142.458218 234.843752 
L 142.881791 235.595737 
L 143.383991 236.410432 
L 143.406818 236.395896 
L 143.624945 236.084216 
L 143.886191 235.002025 
L 144.129682 233.690171 
L 144.4239 232.572843 
L 144.596373 232.52497 
L 144.761236 232.642133 
L 144.799282 232.530461 
L 144.954 231.302961 
L 145.253291 229.628073 
L 145.4004 229.522321 
L 145.420691 229.534762 
L 145.577945 229.79529 
L 145.943182 230.396774 
L 146.222182 230.937495 
L 146.491036 231.6127 
L 146.564591 231.525428 
L 146.792864 231.366743 
L 146.955191 231.594992 
L 147.267164 232.389748 
L 147.3534 232.183581 
L 147.581673 230.984973 
L 147.845455 230.161655 
L 147.982418 230.196359 
L 148.170109 230.580478 
L 148.570855 232.032542 
L 149.075591 233.762324 
L 149.106027 233.751655 
L 149.336836 233.774548 
L 149.575255 234.122266 
L 150.303191 235.778659 
L 150.424936 236.01096 
L 150.470591 235.878821 
L 150.853582 234.580926 
L 150.982936 234.394951 
L 151.442018 231.585884 
L 151.578982 231.624596 
L 151.781891 232.020758 
L 152.289164 233.655379 
L 153.057682 235.868393 
L 153.615682 236.842368 
L 153.717136 236.79011 
L 153.722209 236.782213 
L 153.998673 236.134437 
L 154.574427 233.680618 
L 154.739291 233.782681 
L 155.028436 234.298272 
L 156.103855 236.421108 
L 156.114 236.416033 
L 156.786136 236.171138 
L 157.115864 236.309151 
L 157.1463 236.242762 
L 157.6764 235.200972 
L 157.889455 235.283107 
L 158.176064 235.565156 
L 158.209036 235.406835 
L 158.731527 232.3312 
L 158.871027 232.398881 
L 159.0993 232.85049 
L 159.923618 235.267458 
L 160.134136 235.744258 
L 160.184864 235.644449 
L 160.638873 234.60509 
L 160.821491 234.695864 
L 161.141073 235.174758 
L 161.295791 235.398481 
L 161.346518 235.322518 
L 161.851255 234.44168 
L 162.0567 234.649113 
L 162.520855 235.535054 
L 163.324882 236.938335 
L 163.936145 237.562994 
L 164.615891 237.938206 
L 165.556882 238.183973 
L 167.111673 238.343131 
L 167.208055 237.865503 
L 167.565682 236.298604 
L 167.783809 236.130058 
L 168.004473 236.256359 
L 168.496527 236.884077 
L 168.793282 237.231551 
L 168.831327 237.162523 
L 169.429909 235.823898 
L 169.559264 235.778271 
L 169.566873 235.743528 
L 169.972691 234.293587 
L 170.127409 234.364471 
L 170.431773 234.796278 
L 170.518009 234.634464 
L 170.959336 233.257346 
L 171.187609 231.829254 
L 171.426027 230.934731 
L 171.636545 230.608363 
L 172.113382 229.286386 
L 172.232591 229.38857 
L 172.443109 229.970226 
L 172.775373 231.249386 
L 172.869218 231.095564 
L 173.044227 230.948404 
L 173.061982 230.959641 
L 173.214164 231.219225 
L 173.267427 231.311193 
L 173.313082 231.179108 
L 173.518527 229.524033 
L 173.787382 228.337421 
L 173.916736 228.298281 
L 173.937027 228.315684 
L 174.106964 228.643617 
L 174.289582 228.766853 
L 174.429082 228.698483 
L 174.743591 227.953641 
L 174.776564 227.973008 
L 175.210282 228.496174 
L 175.461382 229.157985 
L 175.580591 229.417692 
L 175.631318 229.345142 
L 176.009236 228.631762 
L 176.044745 228.654733 
L 176.214682 228.951547 
L 176.374473 229.331407 
L 176.422664 229.180136 
L 176.777755 227.885132 
L 176.894427 228.01631 
L 177.115091 228.703175 
L 177.688309 231.451474 
L 178.444145 234.631465 
L 178.649591 235.190459 
L 178.697782 235.083267 
L 179.283682 233.176275 
L 179.468836 233.3127 
L 179.593118 233.421358 
L 179.631164 233.346694 
L 179.796027 232.463988 
L 180.904418 226.520793 
L 181.023627 226.606871 
L 181.097182 226.667111 
L 181.150445 226.604396 
L 181.368573 226.091483 
L 182.421164 218.240016 
L 182.525155 218.313409 
L 182.692555 218.841057 
L 182.892927 219.361937 
L 182.920827 219.344435 
L 183.171927 219.195584 
L 183.197291 219.227153 
L 183.359618 219.659869 
L 183.496582 220.053518 
L 183.544773 219.926993 
L 183.6513 218.672014 
L 183.991173 215.115193 
L 184.1256 214.890944 
L 184.158573 214.912017 
L 184.287927 215.210021 
L 184.762227 216.539632 
L 184.812955 216.495658 
L 184.876364 216.262948 
L 185.1579 213.569484 
L 185.487627 210.688009 
L 185.599227 210.5594 
L 185.639809 210.593421 
L 185.776773 210.958476 
L 186.045627 212.44471 
L 186.654355 215.837975 
L 186.930818 216.198572 
L 187.126118 216.310664 
L 187.146409 216.259585 
L 187.336636 215.055439 
L 187.569982 214.409286 
L 187.691727 214.480485 
L 187.876882 214.957182 
L 188.204073 216.523259 
L 188.414591 217.052955 
L 188.6175 217.66754 
L 188.949764 219.561766 
L 189.736036 224.992613 
L 189.822273 224.748647 
L 190.184973 223.590838 
L 190.306718 223.678186 
L 190.499482 224.187271 
L 190.872327 225.931382 
L 191.516564 229.257994 
L 191.5749 229.151271 
L 191.683964 228.469017 
L 192.221673 220.832367 
L 192.766991 212.860513 
L 193.398545 208.883599 
L 193.837336 204.642486 
L 194.022491 204.38887 
L 194.027564 204.390702 
L 194.139164 204.399435 
L 194.159455 204.335101 
L 194.616 202.540543 
L 194.692091 202.607067 
L 194.745355 202.642708 
L 194.791009 202.561044 
L 195.2577 200.999202 
L 195.640691 199.322569 
L 195.846136 198.846004 
L 196.4295 195.729318 
L 196.693282 195.382876 
L 196.870827 195.447593 
L 196.893655 195.458348 
L 196.934236 195.358441 
L 197.329909 194.352563 
L 197.464336 194.479219 
L 197.619055 194.6992 
L 197.682464 194.638936 
L 197.839718 194.305874 
L 198.237927 192.860721 
L 198.400255 192.456553 
L 198.631064 192.137122 
L 198.925282 192.115918 
L 199.036882 191.861849 
L 199.244864 190.8259 
L 199.460455 188.985991 
L 199.741991 184.422109 
L 200.043818 174.982256 
L 200.185855 162.951988 
L 200.241655 135.992823 
L 200.2797 41.951645 
L 200.355791 126.189558 
L 200.510509 193.189446 
L 200.710882 210.973863 
L 200.944227 215.207031 
L 201.208009 216.602636 
L 201.631582 218.436327 
L 202.245382 221.654374 
L 202.278355 221.591125 
L 202.430536 220.616658 
L 202.656273 219.887732 
L 202.755191 219.998245 
L 202.950491 220.693013 
L 203.196518 221.165681 
L 203.412109 221.818916 
L 203.772273 223.782724 
L 204.971973 230.872914 
L 204.984655 230.868201 
L 205.116545 230.654731 
L 205.296627 230.117375 
L 206.098118 225.101927 
L 206.240155 224.928431 
L 206.268055 224.944882 
L 206.405018 225.206859 
L 206.676409 226.315622 
L 207.414491 229.461251 
L 207.452536 229.356735 
L 208.254027 224.715359 
L 208.702964 221.532589 
L 208.819636 221.458228 
L 208.852609 221.486153 
L 209.002255 221.829308 
L 209.550109 223.585784 
L 209.621127 223.504502 
L 209.834182 223.305715 
L 209.857009 223.323158 
L 209.940709 223.373781 
L 209.981291 223.295146 
L 210.196882 222.349769 
L 210.498709 221.338496 
L 210.622991 221.383625 
L 210.787855 221.800041 
L 211.099827 223.318698 
L 212.170173 229.387204 
L 212.228509 229.26037 
L 212.563309 227.541356 
L 212.951373 225.61241 
L 213.093409 224.701534 
L 213.910118 219.729402 
L 214.031864 219.283174 
L 214.414855 217.131199 
L 214.5366 217.060443 
L 214.567036 217.086533 
L 215.127573 217.826836 
L 215.201127 217.649524 
L 215.386282 217.363978 
L 215.406573 217.375312 
L 215.530855 217.612765 
L 215.812391 218.798306 
L 216.104073 219.528705 
L 216.1269 219.516474 
L 216.355173 219.479693 
L 216.357709 219.483163 
L 216.522573 219.904337 
L 216.834545 221.444752 
L 217.613209 225.402862 
L 218.211791 228.163779 
L 219.185755 232.477279 
L 219.358227 232.920215 
L 219.411491 232.866508 
L 219.741218 232.568284 
L 219.966955 232.629552 
L 219.992318 232.551382 
L 221.017009 229.392452 
L 221.202164 229.05416 
L 221.679 228.330121 
L 221.841327 228.357182 
L 222.036627 228.694974 
L 222.396791 229.85899 
L 222.795 231.326527 
L 222.863482 231.208777 
L 223.071464 230.164781 
L 223.317491 229.537886 
L 223.456991 229.590551 
L 223.664973 230.003117 
L 224.126591 231.54093 
L 225.080264 234.608209 
L 225.678845 235.796227 
L 226.188655 236.414817 
L 226.201336 236.396177 
L 226.287573 235.91043 
L 226.759336 232.582468 
L 226.947027 232.454567 
L 227.124573 232.644625 
L 227.4822 233.441157 
L 227.697791 233.829529 
L 227.738373 233.798072 
L 228.177164 233.475109 
L 228.352173 233.609075 
L 228.387682 233.477952 
L 228.757991 232.151616 
L 228.9051 232.21783 
L 228.998945 232.142803 
L 229.069964 231.778953 
L 229.896818 223.866807 
L 230.079436 223.628043 
L 230.429455 223.619785 
L 230.6349 224.296281 
L 231.058473 226.636021 
L 231.720464 230.059271 
L 232.080627 230.739298 
L 232.618336 232.510124 
L 232.871973 232.996781 
L 233.133218 232.972901 
L 233.265109 232.43492 
L 233.696291 230.328298 
L 233.785064 230.042938 
L 234.109718 228.842071 
L 234.239073 228.894434 
L 234.431836 229.325691 
L 234.860482 230.970822 
L 235.809082 234.51747 
L 236.389909 235.839637 
L 236.958055 236.608476 
L 237.587073 237.089853 
L 238.408855 237.424839 
L 238.611764 237.374263 
L 239.359991 235.817859 
L 239.623773 235.931124 
L 240.156409 236.474511 
L 240.440482 236.75635 
L 240.481064 236.67249 
L 240.990873 235.444448 
L 241.201391 235.539599 
L 241.614818 236.04526 
L 242.563418 237.178129 
L 243.238091 237.624841 
L 243.304036 237.49424 
L 243.854427 235.923474 
L 244.070018 235.950033 
L 244.409891 236.271497 
L 244.841073 236.659334 
L 244.8639 236.637456 
L 245.137827 236.185534 
L 245.698364 234.485724 
L 245.873373 233.92223 
L 246.132082 233.445438 
L 246.291873 233.511889 
L 246.542973 233.938319 
L 247.522009 236.078301 
L 247.608245 236.001124 
L 248.095227 235.23617 
L 248.391982 234.553636 
L 248.577136 234.554733 
L 248.818091 234.839264 
L 249.457255 236.074603 
L 250.152218 237.168985 
L 250.451509 237.458493 
L 250.481945 237.400957 
L 250.705145 236.431957 
L 250.979073 235.81785 
L 251.184518 235.78812 
L 251.453373 236.025452 
L 251.592873 236.118006 
L 251.630918 236.069292 
L 252.455236 234.440148 
L 252.838227 232.687608 
L 252.985336 232.712362 
L 253.190782 233.070753 
L 253.720882 234.591554 
L 254.451355 236.418861 
L 255.022036 237.27646 
L 255.2985 237.529365 
L 255.331473 237.4577 
L 255.937664 235.845238 
L 256.155791 235.967078 
L 256.6098 236.555037 
L 257.340273 237.458336 
L 257.355491 237.431988 
L 257.482309 236.71976 
L 257.761309 235.715726 
L 257.959145 235.62484 
L 258.075818 235.630148 
L 258.093573 235.560791 
L 258.496855 234.196459 
L 258.651573 234.275056 
L 258.922964 234.745496 
L 259.1208 235.094878 
L 259.1766 235.027862 
L 260.064327 233.710464 
L 260.249482 233.648947 
L 260.6832 233.008007 
L 260.865818 233.200098 
L 261.205691 233.960271 
L 262.098491 236.223192 
L 262.139073 236.122253 
L 262.542355 234.958723 
L 262.712291 235.029782 
L 263.016655 235.477791 
L 263.315945 235.998072 
L 263.366673 235.886926 
L 263.792782 234.848026 
L 263.972864 234.923649 
L 264.279764 235.36528 
L 265.492145 237.275575 
L 266.116091 237.772002 
L 266.189645 237.677301 
L 266.882073 236.092843 
L 267.130636 236.225977 
L 267.670882 236.851278 
L 268.477445 237.667704 
L 269.187627 238.062355 
L 269.786209 238.17848 
L 269.966291 237.780532 
L 270.133691 237.026702 
L 270.656182 233.636131 
L 270.861627 233.471771 
L 271.039173 233.62684 
L 271.358755 234.273793 
L 272.109518 236.101252 
L 272.175464 235.97699 
L 272.583818 235.114268 
L 272.766436 235.185198 
L 273.004855 235.427931 
L 273.058118 235.303806 
L 273.453791 234.387843 
L 273.633873 234.483819 
L 273.793664 234.4503 
L 273.882436 234.248686 
L 274.356736 232.833214 
L 274.511455 232.922841 
L 274.762555 233.407049 
L 275.607164 235.634342 
L 275.716227 235.472393 
L 275.822755 234.995985 
L 276.322418 231.558904 
L 276.4746 231.471763 
L 276.489818 231.481483 
L 276.657218 231.743687 
L 277.012309 232.822996 
L 277.912718 235.639755 
L 277.927936 235.629628 
L 278.019245 235.358131 
L 278.452964 233.99743 
L 278.643191 233.977372 
L 278.874 234.236703 
L 279.099736 234.562291 
L 279.155536 234.4794 
L 280.413573 232.004195 
L 280.568291 232.079738 
L 280.801636 232.520152 
L 281.374855 234.233192 
L 282.1104 236.141863 
L 282.592309 236.916718 
L 282.610064 236.895388 
L 282.731809 236.401554 
L 283.036173 235.494022 
L 283.234009 235.441008 
L 283.426773 235.54606 
L 283.459745 235.427283 
L 283.814836 234.312187 
L 283.974627 234.356707 
L 284.2308 234.74115 
L 284.570673 235.427743 
L 284.629009 235.266333 
L 284.953664 234.399114 
L 285.115991 234.447326 
L 285.379773 234.840082 
L 286.703755 237.099145 
L 286.706291 237.097763 
L 286.764627 236.904123 
L 287.185664 235.357663 
L 287.380964 235.313408 
L 287.624455 235.539587 
L 289.430345 237.698266 
L 290.191255 238.021152 
L 291.340227 238.241505 
L 291.669955 238.174187 
L 291.885545 237.297865 
L 292.194982 236.499339 
L 292.425791 236.401284 
L 292.694645 236.560519 
L 293.4936 237.399519 
L 293.554473 237.198191 
L 293.980582 235.667936 
L 294.170809 235.650065 
L 294.290018 235.607871 
L 294.297627 235.593193 
L 294.401618 235.138245 
L 294.802364 233.224892 
L 294.979909 233.163034 
L 295.1676 233.408287 
L 295.286809 233.494502 
L 295.324855 233.463834 
L 295.662191 233.272248 
L 295.860027 233.381718 
L 295.905682 233.300076 
L 296.151709 233.068059 
L 296.319109 233.236545 
L 296.633618 233.956784 
L 297.780055 236.770761 
L 297.8181 236.718237 
L 297.828245 236.672425 
L 297.967745 235.282411 
L 298.267036 233.231217 
L 298.962 230.680448 
L 299.020336 230.719158 
L 299.200418 231.069831 
L 299.588482 232.437712 
L 300.306273 234.841533 
L 300.478745 234.693041 
L 300.564982 234.228258 
L 300.897245 232.688633 
L 301.074791 232.607508 
L 301.254873 232.837613 
L 301.620109 233.761354 
L 302.063973 234.965605 
L 302.122309 234.889603 
L 302.873073 233.655826 
L 303.058227 233.691317 
L 303.304255 234.027038 
L 303.869864 235.292988 
L 304.635845 236.801674 
L 304.678964 236.847958 
L 304.722082 236.742047 
L 305.112682 235.743091 
L 305.305445 235.779014 
L 305.6301 236.136319 
L 306.768927 237.487406 
L 307.461355 237.906075 
L 308.354155 238.170628 
L 309.931773 238.368746 
L 310.0104 238.268671 
L 310.710436 236.613725 
L 310.966609 236.718141 
L 311.522073 237.265918 
L 312.336245 237.956183 
L 313.089545 238.292828 
L 314.144673 238.498659 
L 316.087527 238.623138 
L 316.171227 238.151906 
L 316.493345 236.64257 
L 316.716545 236.441429 
L 316.937209 236.547931 
L 317.414045 237.110795 
L 318.228218 237.973859 
L 318.9105 238.365385 
L 319.783009 238.59481 
L 320.1102 238.536163 
L 320.381591 237.900311 
L 320.868573 235.276087 
L 321.259173 231.709517 
L 321.431645 231.501689 
L 321.441791 231.50584 
L 321.583827 231.697747 
L 321.872973 232.562544 
L 322.940782 236.166716 
L 322.971218 236.112141 
L 323.450591 234.979513 
L 323.645891 235.15668 
L 324.087218 235.954339 
L 324.896318 237.304294 
L 325.436564 237.819959 
L 325.441636 237.815366 
L 325.520264 237.555277 
L 325.918473 236.161046 
L 325.999636 235.899541 
L 326.316682 234.86918 
L 326.489155 234.863964 
L 326.7225 235.16055 
L 328.358455 237.725161 
L 329.007764 238.117157 
L 329.867591 238.36012 
L 329.913245 238.24111 
L 330.227755 236.224009 
L 331.011491 230.305719 
L 331.265127 230.233697 
L 331.4376 230.335174 
L 331.658264 230.805655 
L 331.759718 231.075699 
L 331.812982 230.923509 
L 332.165536 229.788257 
L 332.173145 229.790534 
L 332.297427 229.956077 
L 332.543455 230.762259 
L 334.050055 236.436986 
L 334.531964 237.260849 
L 334.542109 237.250798 
L 334.630882 236.888943 
L 335.292873 234.024155 
L 335.460273 234.153519 
L 335.774782 234.757876 
L 336.908536 237.083016 
L 337.494436 237.715916 
L 337.720173 237.839542 
L 337.750609 237.781636 
L 337.9662 236.914066 
L 338.252809 236.260643 
L 338.4684 236.213043 
L 338.744864 236.424818 
L 339.728973 237.553992 
L 339.784773 237.392506 
L 340.241318 235.860233 
L 340.431545 235.877808 
L 340.718155 236.194758 
L 342.049745 237.889167 
L 342.196855 237.916923 
L 342.219682 237.882799 
L 342.529118 237.119708 
L 342.724418 236.46629 
L 342.993273 234.326022 
L 343.2672 232.929243 
L 343.4346 232.828742 
L 343.442209 232.833111 
L 343.612145 233.070269 
L 343.974845 234.06328 
L 344.8017 236.334389 
L 344.814382 236.327588 
L 344.933591 236.09132 
L 345.085773 235.087764 
L 345.369845 233.887845 
L 345.547391 233.815678 
L 345.735082 234.049925 
L 346.148509 235.025931 
L 346.607591 236.11523 
L 346.653245 236.04068 
L 347.125009 235.100214 
L 347.320309 235.243493 
L 347.710909 235.885815 
L 348.631609 237.373208 
L 349.245409 237.928394 
L 349.945445 238.257347 
L 350.954918 238.463689 
L 351.3303 238.401838 
L 351.586473 237.285457 
L 351.878155 236.599549 
L 352.108964 236.521725 
L 352.387964 236.700675 
L 354.191318 238.247771 
L 354.5109 238.298672 
L 354.523582 238.264218 
L 355.185573 236.571 
L 355.467109 236.476286 
L 355.809518 235.786321 
L 356.002282 235.818873 
L 356.293964 236.158348 
L 357.519027 237.798096 
L 357.529173 237.789063 
L 357.643309 237.490554 
L 358.089709 235.576582 
L 358.366173 234.581913 
L 358.546255 234.522666 
L 358.746627 234.758582 
L 359.208245 235.756567 
L 359.258973 235.856899 
L 359.307164 235.71115 
L 359.667327 234.541323 
L 359.819509 234.599612 
L 360.075682 235.027375 
L 361.376836 237.502964 
L 361.967809 238.032715 
L 362.6577 238.347755 
L 363.093955 238.365983 
L 363.3273 237.789326 
L 363.684927 237.168693 
L 363.956318 237.087891 
L 364.288582 237.250333 
L 364.8897 237.719423 
L 364.937891 237.599271 
L 365.176309 236.358046 
L 365.622709 233.117532 
L 365.843373 232.771762 
L 365.995555 232.867847 
L 366.071645 232.893133 
L 366.112227 232.842206 
L 366.436882 232.526825 
L 366.609355 232.756613 
L 366.951764 233.682773 
L 367.996745 236.605259 
L 368.554745 237.47183 
L 369.1305 237.969373 
L 369.259855 238.010846 
L 369.287755 237.943605 
L 369.404427 237.206767 
L 369.789955 234.177242 
L 369.9954 233.912537 
L 370.155191 234.038925 
L 370.457018 234.647952 
L 370.852691 235.541259 
L 370.911027 235.467497 
L 371.339673 234.862459 
L 371.542582 235.030839 
L 371.950936 235.740647 
L 372.202036 236.159197 
L 372.252764 236.092134 
L 372.742282 235.355249 
L 372.960409 235.526012 
L 373.4271 236.259722 
L 373.581818 236.521855 
L 373.581818 236.521855 
" clip-path="url(#p885f5f0221)" style="fill: none; stroke: #000000; stroke-width: 1.5; stroke-linecap: square"/>
   </g>
   <g id="line2d_17">
    <path d="M 69.218182 230.256 
L 69.268909 229.508767 
L 69.337391 229.88936 
L 69.948655 234.241572 
L 70.182 234.408481 
L 70.473682 235.055777 
L 71.587145 237.715232 
L 72.140073 238.394765 
L 72.731045 238.774047 
L 73.497027 238.987047 
L 73.722764 238.915456 
L 74.257936 236.611874 
L 74.407582 236.148499 
L 75.107618 233.065422 
L 75.3435 232.218008 
L 75.477927 232.246141 
L 75.668155 232.631579 
L 75.827945 233.030755 
L 75.893891 232.934892 
L 76.510227 231.754844 
L 76.5711 231.807747 
L 76.609145 231.84031 
L 76.652264 231.732244 
L 76.959164 230.935712 
L 76.974382 230.941466 
L 77.106273 231.132517 
L 77.3802 232.030187 
L 78.397282 235.799739 
L 78.435327 235.766499 
L 78.617945 235.302658 
L 79.302764 232.287084 
L 79.6122 229.937624 
L 80.134691 228.267196 
L 80.218391 228.355417 
L 80.454273 228.944568 
L 80.563336 228.739486 
L 80.730736 228.596645 
L 80.748491 228.607753 
L 80.862627 228.726412 
L 80.913355 228.600902 
L 81.1467 228.168746 
L 81.161918 228.175441 
L 81.288736 228.378702 
L 81.539836 229.31211 
L 82.754755 234.828977 
L 82.825773 234.717501 
L 83.160573 234.191891 
L 83.3508 234.081531 
L 83.896118 231.137964 
L 83.941773 231.159233 
L 84.106636 231.424238 
L 84.456655 232.515543 
L 85.506709 235.87975 
L 86.069782 236.906256 
L 86.637927 237.499009 
L 87.297382 237.863423 
L 88.238373 238.108783 
L 88.296709 238.01425 
L 89.212336 234.657805 
L 89.445682 234.312699 
L 89.618155 234.390832 
L 89.904764 234.836875 
L 90.556609 236.108285 
L 90.625091 235.993101 
L 91.117145 235.017512 
L 91.314982 235.130803 
L 91.680218 235.669444 
L 92.392936 236.820583 
L 92.423373 236.736408 
L 92.900209 235.13847 
L 93.077755 235.214559 
L 93.402409 235.670541 
L 93.7296 236.209672 
L 93.775255 236.086458 
L 94.206436 234.775817 
L 94.378909 234.824032 
L 94.449927 234.84819 
L 94.485436 234.776078 
L 94.607182 234.11239 
L 94.995245 231.41906 
L 95.220982 230.381682 
L 95.416282 230.101189 
L 95.418818 230.101983 
L 95.553245 230.266587 
L 95.809418 231.029098 
L 97.267827 236.075381 
L 97.285582 236.062903 
L 97.409864 235.758896 
L 97.731982 235.133475 
L 97.927282 235.150544 
L 98.203745 235.459375 
L 98.7795 236.380315 
L 98.8353 236.193211 
L 99.210682 234.868845 
L 99.388227 234.860023 
L 99.629182 235.142816 
L 101.300645 237.569434 
L 101.980391 237.952008 
L 102.289827 237.969486 
L 102.292364 237.962857 
L 102.495273 237.090181 
L 102.794564 235.316914 
L 103.0761 234.238426 
L 103.263791 234.149598 
L 103.456555 234.352584 
L 103.864909 235.196485 
L 104.537045 236.560909 
L 104.562409 236.533184 
L 104.712055 236.062756 
L 105.021491 235.370593 
L 105.219327 235.358733 
L 105.478036 235.624887 
L 106.170464 236.699188 
L 106.246555 236.516278 
L 106.629545 235.577497 
L 106.824845 235.587949 
L 107.103845 235.887608 
L 107.413282 236.331652 
L 107.461473 236.21006 
L 107.829245 234.323507 
L 108.105709 233.148109 
L 108.270573 233.100148 
L 108.453191 233.362972 
L 108.869155 234.464821 
L 109.711227 236.582734 
L 109.850727 236.771803 
L 109.898918 236.705917 
L 110.446773 235.813351 
L 110.687727 235.976854 
L 110.796791 236.068832 
L 110.834836 235.979588 
L 110.941364 235.213623 
L 111.263482 233.235666 
L 111.671836 231.98689 
L 112.044682 230.371053 
L 112.166427 230.43841 
L 112.364264 230.910972 
L 112.851245 232.826088 
L 113.396564 234.633569 
L 113.820136 234.647149 
L 114.147327 235.172628 
L 114.279218 235.344341 
L 114.327409 235.286631 
L 114.839755 234.587392 
L 115.065491 234.804261 
L 115.552473 235.673543 
L 116.379327 237.032364 
L 116.9424 237.557465 
L 117.021027 237.337928 
L 118.258773 232.525754 
L 118.405882 232.678548 
L 118.649373 233.205769 
L 118.728 233.013933 
L 119.001927 232.485313 
L 119.143964 232.59483 
L 119.3976 233.162086 
L 120.805282 236.760573 
L 120.861082 236.655139 
L 121.365818 235.300937 
L 121.558582 235.367814 
L 121.885773 235.784251 
L 122.235791 236.331176 
L 122.273836 236.180917 
L 122.900318 232.865461 
L 123.055036 232.947258 
L 123.306136 233.409892 
L 125.023255 237.174726 
L 125.084127 237.08065 
L 125.198264 236.344578 
L 125.642127 232.990327 
L 125.8983 232.353994 
L 126.058091 232.378529 
L 126.268609 232.716942 
L 126.722618 233.977909 
L 127.602736 236.307594 
L 128.122691 237.100561 
L 128.221609 236.967715 
L 128.419445 236.259317 
L 129.2184 233.101691 
L 129.388336 233.074533 
L 129.583636 233.345455 
L 130.002136 234.407955 
L 130.887327 236.578933 
L 131.275391 237.152798 
L 131.303291 237.117282 
L 131.4504 236.574705 
L 131.787736 235.617618 
L 132.353345 234.516591 
L 132.553718 234.622567 
L 132.878373 235.109282 
L 134.230255 237.367775 
L 134.851664 237.864783 
L 135.254945 238.041835 
L 135.275236 237.984625 
L 136.315145 234.135462 
L 136.343045 234.145424 
L 136.530736 234.265873 
L 136.571318 234.135256 
L 136.931482 233.13593 
L 137.076055 233.231755 
L 137.334764 233.7623 
L 138.717082 236.99414 
L 139.292836 237.628711 
L 139.937073 238.008431 
L 140.124764 238.043686 
L 140.145055 237.975425 
L 141.025173 234.75202 
L 141.220473 234.793493 
L 141.499473 235.140634 
L 141.709991 235.423994 
L 141.760718 235.354497 
L 142.2477 234.627575 
L 142.458218 234.808779 
L 142.879255 235.54742 
L 143.383991 236.358484 
L 143.406818 236.34357 
L 143.624945 236.027975 
L 143.888727 234.930899 
L 144.127145 233.637868 
L 144.4239 232.496007 
L 144.596373 232.442968 
L 144.761236 232.555513 
L 144.796745 232.454068 
L 144.943855 231.301707 
L 145.250755 229.530559 
L 145.402936 229.415383 
L 145.420691 229.425979 
L 145.575409 229.675336 
L 145.945718 230.275252 
L 146.222182 230.804526 
L 146.491036 231.473061 
L 146.564591 231.384286 
L 146.792864 231.220842 
L 146.955191 231.445921 
L 147.267164 232.235957 
L 147.3534 232.029001 
L 147.581673 230.827485 
L 147.845455 229.998329 
L 147.984955 230.032608 
L 148.175182 230.423749 
L 148.581 231.896002 
L 149.075591 233.582366 
L 149.106027 233.571824 
L 149.336836 233.595181 
L 149.575255 233.942865 
L 150.293045 235.579594 
L 150.424936 235.834685 
L 150.470591 235.703045 
L 150.853582 234.405469 
L 150.982936 234.218646 
L 151.444555 231.398836 
L 151.581518 231.438002 
L 151.784427 231.832205 
L 152.2917 233.459174 
L 153.062755 235.675216 
L 153.620755 236.647129 
L 153.724745 236.580806 
L 154.001209 235.923825 
L 154.561745 233.473514 
L 154.724073 233.552344 
L 154.995464 234.008083 
L 156.106391 236.200066 
L 156.1419 236.178527 
L 156.694827 235.911383 
L 157.029627 236.13149 
L 157.103182 236.108012 
L 157.126009 236.067304 
L 157.762636 234.978671 
L 158.0112 235.171207 
L 158.173527 235.333634 
L 158.201427 235.224652 
L 158.772109 232.080597 
L 158.789864 232.085027 
L 158.947118 232.261487 
L 159.261627 233.043734 
L 160.134136 235.486603 
L 160.177255 235.409974 
L 160.669309 234.350701 
L 160.862073 234.484723 
L 161.234918 235.092691 
L 161.295791 235.142976 
L 161.346518 235.067329 
L 161.853791 234.184486 
L 162.059236 234.392865 
L 162.523391 235.280171 
L 163.332491 236.699243 
L 163.946291 237.332096 
L 164.626036 237.712474 
L 165.559418 237.961507 
L 167.111673 238.124284 
L 167.208055 237.647037 
L 167.568218 236.070615 
L 167.788882 235.902174 
L 168.009545 236.028867 
L 168.504136 236.65767 
L 168.793282 236.995087 
L 168.833864 236.919228 
L 169.417227 235.579775 
L 169.566873 235.500183 
L 169.975227 234.042812 
L 170.129945 234.114024 
L 170.431773 234.538717 
L 170.518009 234.376131 
L 170.959336 232.992228 
L 171.190145 231.541475 
L 171.428564 230.654496 
L 171.631473 230.341813 
L 172.115918 228.983112 
L 172.235127 229.085374 
L 172.445645 229.665168 
L 172.775373 230.929372 
L 172.869218 230.775639 
L 173.044227 230.628016 
L 173.061982 230.639171 
L 173.211627 230.891812 
L 173.267427 230.990065 
L 173.313082 230.858255 
L 173.515991 229.220968 
L 173.784845 228.00899 
L 173.916736 227.960753 
L 173.937027 227.977351 
L 174.104427 228.293758 
L 174.284509 228.415953 
L 174.429082 228.3454 
L 174.746127 227.592313 
L 174.7791 227.612005 
L 175.228036 228.152472 
L 175.489282 228.870859 
L 175.580591 229.035435 
L 175.631318 228.962578 
L 176.009236 228.243644 
L 176.044745 228.266102 
L 176.212145 228.554764 
L 176.377009 228.939634 
L 176.422664 228.790084 
L 176.777755 227.496303 
L 176.894427 227.62635 
L 177.112555 228.301445 
L 177.670555 230.978164 
L 178.449218 234.303621 
L 178.649591 234.859798 
L 178.697782 234.76041 
L 179.316655 232.963225 
L 179.506882 233.108941 
L 179.593118 233.155769 
L 179.628627 233.084574 
L 179.788418 232.223328 
L 180.894273 226.158876 
L 181.016018 226.22297 
L 181.097182 226.290977 
L 181.150445 226.226125 
L 181.371109 225.684214 
L 182.398336 217.871176 
L 182.487109 217.858546 
L 182.520082 217.897931 
L 182.6748 218.335735 
L 182.890391 218.905168 
L 182.923364 218.881222 
L 183.169391 218.70803 
L 183.197291 218.739451 
L 183.354545 219.137913 
L 183.496582 219.538182 
L 183.542236 219.422535 
L 183.646227 218.226778 
L 183.993709 214.58568 
L 184.130673 214.366842 
L 184.161109 214.385931 
L 184.290464 214.673564 
L 184.759691 215.943429 
L 184.812955 215.894582 
L 184.876364 215.657729 
L 185.160436 212.912805 
L 185.487627 210.036272 
L 185.6043 209.896691 
L 185.642345 209.927717 
L 185.776773 210.274723 
L 186.043091 211.716902 
L 186.6645 215.142324 
L 186.930818 215.448423 
L 187.126118 215.533839 
L 187.146409 215.48134 
L 187.349318 214.207419 
L 187.577591 213.623115 
L 187.6968 213.703196 
L 187.884491 214.196294 
L 188.850845 218.078387 
L 189.500155 222.860173 
L 189.736036 224.148548 
L 189.771545 224.094573 
L 189.951627 223.267598 
L 190.187509 222.722602 
L 190.309255 222.808843 
L 190.502018 223.319041 
L 190.869791 225.054197 
L 191.5191 228.486025 
L 191.582509 228.375544 
L 191.6865 227.733106 
L 192.208991 220.436068 
L 192.782209 212.099103 
L 193.355427 208.669654 
L 193.921036 203.667433 
L 194.052927 203.60775 
L 194.075755 203.625483 
L 194.1138 203.635141 
L 194.151845 203.548232 
L 194.3091 202.562419 
L 194.565273 201.654633 
L 194.689555 201.678463 
L 194.697164 201.687787 
L 194.742818 201.706967 
L 194.785936 201.62752 
L 195.237409 200.076321 
L 195.6483 198.20769 
L 195.8436 197.75754 
L 196.424427 194.732696 
L 196.6806 194.43197 
L 196.853073 194.51448 
L 196.896191 194.550886 
L 196.939309 194.448536 
L 197.312155 193.570316 
L 197.446582 193.706334 
L 197.636809 193.997586 
L 197.705291 193.946798 
L 197.832109 193.714226 
L 198.250609 192.32254 
L 198.448445 191.856908 
L 198.625991 191.698964 
L 198.641209 191.707265 
L 198.922745 191.751259 
L 199.0242 191.563604 
L 199.2195 190.704666 
L 199.460455 188.82612 
L 199.744527 184.442063 
L 200.081864 174.753064 
L 200.236582 163.39242 
L 200.302527 137.161595 
L 200.343109 47.308261 
L 200.416664 128.408304 
L 200.571382 191.108216 
L 200.776827 209.252599 
L 201.027927 214.120146 
L 201.319609 215.956617 
L 201.831955 218.781429 
L 202.192118 220.529745 
L 202.247918 220.627123 
L 202.296109 220.493858 
L 202.666418 218.890013 
L 202.724755 218.93998 
L 202.871864 219.360787 
L 203.168618 220.107825 
L 203.379136 220.691303 
L 203.708864 222.415084 
L 204.982118 230.185067 
L 205.048064 230.126761 
L 205.291555 229.620565 
L 206.179282 224.508877 
L 206.280736 224.514834 
L 206.303564 224.54245 
L 206.470964 224.969233 
L 206.813373 226.58428 
L 207.343473 228.89286 
L 207.419564 229.034493 
L 207.462682 228.886952 
L 208.363091 223.256652 
L 208.690282 221.091863 
L 208.824709 220.960714 
L 208.855145 220.98099 
L 208.997182 221.269277 
L 209.271109 222.449136 
L 209.471482 222.867808 
L 209.562791 222.899047 
L 209.600836 222.846968 
L 209.851936 222.559323 
L 209.879836 222.581523 
L 209.935636 222.595087 
L 209.973682 222.521924 
L 210.171518 221.633103 
L 210.506318 220.390584 
L 210.635673 220.424447 
L 210.638209 220.427749 
L 210.803073 220.829294 
L 211.109973 222.287057 
L 212.175245 228.394117 
L 212.251336 228.196913 
L 212.672373 225.921397 
L 212.986882 224.64453 
L 213.324218 222.067176 
L 213.669164 219.622702 
L 213.9507 218.948884 
L 214.059764 218.361587 
L 214.381882 216.509707 
L 214.528991 216.36132 
L 214.554355 216.377709 
L 214.691318 216.647498 
L 214.851109 216.751262 
L 214.998218 216.86596 
L 215.125036 217.121933 
L 215.188445 216.980865 
L 215.386282 216.656211 
L 215.409109 216.669209 
L 215.535927 216.917648 
L 216.114218 218.827549 
L 216.253718 218.747429 
L 216.378 218.843461 
L 216.560618 219.375324 
L 216.9081 221.216353 
L 217.5498 224.524736 
L 218.100191 227.031451 
L 219.271991 232.428217 
L 219.360764 232.584063 
L 219.416564 232.529246 
L 219.731073 232.264192 
L 219.966955 232.34803 
L 219.997391 232.254512 
L 220.4235 231.164992 
L 220.608655 230.293184 
L 220.918091 229.257546 
L 221.521745 228.369131 
L 221.772845 228.107811 
L 221.927564 228.248762 
L 222.178664 228.854127 
L 222.721445 230.895267 
L 222.795 231.074402 
L 222.855873 230.980574 
L 223.023273 230.161084 
L 223.294664 229.3108 
L 223.441773 229.334 
L 223.637073 229.694608 
L 224.053036 231.045884 
L 225.115773 234.50859 
L 225.714355 235.687963 
L 226.188655 236.268906 
L 226.206409 236.237941 
L 226.302791 235.622164 
L 226.721291 232.532498 
L 226.9242 232.309986 
L 227.089064 232.451034 
L 227.3985 233.089497 
L 227.697791 233.690515 
L 227.743445 233.65355 
L 228.167018 233.331505 
L 228.352173 233.471357 
L 228.390218 233.327451 
L 228.750382 232.018051 
L 228.894955 232.073571 
L 228.965973 232.057607 
L 228.993873 232.014907 
L 229.067427 231.669233 
L 229.927255 223.620529 
L 230.1048 223.45874 
L 230.388873 223.383763 
L 230.393945 223.391254 
L 230.568955 223.859905 
L 230.908827 225.551652 
L 231.771191 229.949665 
L 232.073018 230.5453 
L 232.595509 232.267739 
L 232.871973 232.841696 
L 233.133218 232.823881 
L 233.265109 232.288633 
L 233.698827 230.181074 
L 233.785064 229.899004 
L 234.109718 228.697222 
L 234.239073 228.748709 
L 234.431836 229.17883 
L 234.857945 230.813064 
L 235.816691 234.407675 
L 236.400055 235.739904 
L 236.9682 236.513067 
L 237.597218 236.999212 
L 238.416464 237.338454 
L 238.611764 237.286996 
L 239.362527 235.729841 
L 239.628845 235.846273 
L 240.166555 236.397686 
L 240.440482 236.669476 
L 240.481064 236.585869 
L 240.993409 235.35855 
L 241.203927 235.45601 
L 241.619891 235.967081 
L 242.565955 237.099792 
L 243.240627 237.54769 
L 243.306573 237.408992 
L 243.844282 235.852106 
L 244.059873 235.867882 
L 244.3896 236.170916 
L 244.843609 236.581285 
L 244.866436 236.558908 
L 245.140364 236.100231 
L 245.685682 234.428492 
L 245.820109 234.030658 
L 246.116864 233.370337 
L 246.276655 233.414545 
L 246.512536 233.790102 
L 247.245545 235.58281 
L 247.522009 235.999275 
L 247.539764 235.989408 
L 247.806082 235.674641 
L 248.074936 235.236168 
L 248.389445 234.478904 
L 248.5746 234.476284 
L 248.815555 234.758244 
L 249.436964 235.960582 
L 250.142073 237.087155 
L 250.451509 237.391373 
L 250.481945 237.334088 
L 250.702609 236.376081 
L 250.979073 235.75241 
L 251.184518 235.722575 
L 251.453373 235.959916 
L 251.592873 236.052617 
L 251.630918 236.003945 
L 252.4527 234.389543 
L 252.845836 232.613752 
L 252.990409 232.648393 
L 253.200927 233.024565 
L 253.764 234.648927 
L 254.474182 236.396438 
L 255.044864 237.24053 
L 255.2985 237.469896 
L 255.331473 237.398487 
L 255.937664 235.787505 
L 256.155791 235.909324 
L 256.6098 236.497805 
L 257.340273 237.403618 
L 257.355491 237.377346 
L 257.482309 236.665745 
L 257.761309 235.661988 
L 257.959145 235.570875 
L 258.075818 235.576062 
L 258.093573 235.506704 
L 258.499391 234.140904 
L 258.654109 234.222392 
L 258.928036 234.700292 
L 259.1208 235.038718 
L 259.174064 234.976052 
L 260.077009 233.656061 
L 260.244409 233.60046 
L 260.693345 232.951947 
L 260.881036 233.164269 
L 261.2412 233.993768 
L 262.098491 236.166467 
L 262.134 236.085321 
L 262.562645 234.901561 
L 262.737655 235.002289 
L 263.077527 235.53561 
L 263.315945 235.946474 
L 263.366673 235.835565 
L 263.792782 234.797428 
L 263.972864 234.873044 
L 264.279764 235.314841 
L 265.494682 237.231952 
L 266.118627 237.728839 
L 266.192182 237.626963 
L 266.866855 236.048678 
L 267.107809 236.162839 
L 267.594791 236.713772 
L 268.457155 237.611231 
L 269.1648 238.014332 
L 269.783673 238.144037 
L 269.958682 237.763348 
L 270.133691 236.989255 
L 270.656182 233.595666 
L 270.861627 233.430055 
L 271.039173 233.58426 
L 271.358755 234.230274 
L 272.109518 236.058766 
L 272.175464 235.934786 
L 272.583818 235.072986 
L 272.766436 235.144129 
L 273.004855 235.38722 
L 273.058118 235.263197 
L 273.453791 234.34734 
L 273.633873 234.443286 
L 273.793664 234.409751 
L 273.882436 234.208094 
L 274.359273 232.790946 
L 274.513991 232.883602 
L 274.767627 233.376793 
L 275.607164 235.593337 
L 275.713691 235.437115 
L 275.822755 234.955857 
L 276.322418 231.51861 
L 276.4746 231.430966 
L 276.489818 231.440637 
L 276.657218 231.70236 
L 277.009773 232.772304 
L 277.912718 235.6005 
L 277.930473 235.587523 
L 278.026855 235.286759 
L 278.442818 233.968773 
L 278.635582 233.935206 
L 278.861318 234.179056 
L 279.099736 234.524616 
L 279.158073 234.436298 
L 280.388209 231.975388 
L 280.545464 232.016258 
L 280.761055 232.38389 
L 281.232818 233.750785 
L 282.074891 236.033929 
L 282.592309 236.883911 
L 282.602455 236.875079 
L 282.691227 236.561661 
L 283.041245 235.457324 
L 283.236545 235.411086 
L 283.426773 235.515286 
L 283.459745 235.396564 
L 283.814836 234.281605 
L 283.974627 234.326043 
L 284.2308 234.710428 
L 284.570673 235.397249 
L 284.629009 235.235954 
L 284.953664 234.369026 
L 285.115991 234.417241 
L 285.379773 234.810058 
L 286.703755 237.071742 
L 286.706291 237.070367 
L 286.764627 236.876914 
L 287.185664 235.330912 
L 287.380964 235.286581 
L 287.624455 235.512704 
L 289.432882 237.675696 
L 290.196327 237.999877 
L 291.347836 238.221093 
L 291.669955 238.153114 
L 291.885545 237.27679 
L 292.194982 236.477865 
L 292.425791 236.37952 
L 292.694645 236.538559 
L 293.4936 237.377988 
L 293.554473 237.176754 
L 293.980582 235.646539 
L 294.170809 235.628546 
L 294.290018 235.586299 
L 294.297627 235.571618 
L 294.401618 235.116615 
L 294.802364 233.202339 
L 294.979909 233.139995 
L 295.1676 233.384842 
L 295.286809 233.470872 
L 295.324855 233.440149 
L 295.662191 233.248055 
L 295.860027 233.357385 
L 295.905682 233.275739 
L 296.151709 233.043658 
L 296.319109 233.212098 
L 296.633618 233.932421 
L 297.782591 236.749804 
L 297.828245 236.650898 
L 297.967745 235.261317 
L 298.267036 233.210169 
L 298.962 230.657868 
L 299.020336 230.69642 
L 299.197882 231.039856 
L 299.583409 232.393937 
L 300.306273 234.818914 
L 300.478745 234.670795 
L 300.564982 234.206193 
L 300.897245 232.666774 
L 301.074791 232.585591 
L 301.254873 232.815646 
L 301.617573 233.732077 
L 302.063973 234.944353 
L 302.122309 234.868481 
L 302.873073 233.635326 
L 303.058227 233.670764 
L 303.304255 234.006495 
L 303.869864 235.273014 
L 304.635845 236.78344 
L 304.678964 236.829835 
L 304.722082 236.724048 
L 305.112682 235.72582 
L 305.305445 235.761925 
L 305.6301 236.11951 
L 306.771464 237.474007 
L 307.463891 237.892552 
L 308.356691 238.157333 
L 309.934309 238.356065 
L 310.012936 238.248669 
L 310.692682 236.601769 
L 310.943782 236.688621 
L 311.443445 237.169912 
L 312.310882 237.927656 
L 313.061645 238.272173 
L 314.099018 238.481698 
L 316.082455 238.621799 
L 316.1484 238.302188 
L 316.506027 236.607297 
L 316.726691 236.430721 
L 316.952427 236.550568 
L 317.467309 237.167822 
L 318.245973 237.977039 
L 318.930791 238.363307 
L 319.813445 238.590078 
L 320.1102 238.526671 
L 320.381591 237.890818 
L 320.868573 235.266161 
L 321.259173 231.69888 
L 321.431645 231.490668 
L 321.441791 231.494798 
L 321.583827 231.686432 
L 321.872973 232.550837 
L 322.940782 236.155514 
L 322.971218 236.100989 
L 323.450591 234.968833 
L 323.645891 235.146091 
L 324.087218 235.944002 
L 324.896318 237.294689 
L 325.436564 237.810874 
L 325.441636 237.806286 
L 325.520264 237.546268 
L 325.918473 236.152124 
L 325.999636 235.890618 
L 326.316682 234.860162 
L 326.489155 234.854859 
L 326.7225 235.151356 
L 328.360991 237.718849 
L 329.0103 238.110278 
L 329.867591 238.352609 
L 329.913245 238.233623 
L 330.227755 236.216557 
L 331.011491 230.297213 
L 331.265127 230.224744 
L 331.4376 230.325935 
L 331.655727 230.788877 
L 331.759718 231.066056 
L 331.812982 230.913837 
L 332.165536 229.778335 
L 332.173145 229.780605 
L 332.297427 229.946052 
L 332.543455 230.752109 
L 334.050055 236.428373 
L 334.531964 237.252976 
L 334.542109 237.242941 
L 334.630882 236.881216 
L 335.292873 234.016564 
L 335.460273 234.145881 
L 335.774782 234.750206 
L 336.908536 237.075939 
L 337.494436 237.709284 
L 337.720173 237.833063 
L 337.750609 237.775179 
L 337.9662 236.907694 
L 338.252809 236.254268 
L 338.4684 236.206648 
L 338.744864 236.418418 
L 339.728973 237.547872 
L 339.784773 237.386415 
L 340.241318 235.854191 
L 340.431545 235.87175 
L 340.718155 236.188693 
L 342.049745 237.883545 
L 342.196855 237.911368 
L 342.219682 237.877253 
L 342.529118 237.114206 
L 342.724418 236.460765 
L 342.993273 234.320385 
L 343.2672 232.923354 
L 343.4346 232.822699 
L 343.442209 232.827062 
L 343.612145 233.064095 
L 343.974845 234.056974 
L 344.8017 236.328401 
L 344.814382 236.32161 
L 344.933591 236.085426 
L 345.085773 235.081949 
L 345.369845 233.882026 
L 345.547391 233.809823 
L 345.735082 234.044038 
L 346.148509 235.020066 
L 346.607591 236.109554 
L 346.653245 236.035031 
L 347.125009 235.094711 
L 347.320309 235.238022 
L 347.710909 235.880439 
L 348.631609 237.368247 
L 349.245409 237.923733 
L 349.945445 238.252957 
L 350.954918 238.45956 
L 351.3303 238.397782 
L 351.586473 237.2814 
L 351.878155 236.595418 
L 352.108964 236.517537 
L 352.387964 236.696446 
L 354.191318 238.243893 
L 354.5109 238.294875 
L 354.523582 238.260425 
L 355.185573 236.567173 
L 355.467109 236.472435 
L 355.809518 235.782426 
L 356.002282 235.814948 
L 356.293964 236.154402 
L 357.519027 237.794415 
L 357.529173 237.785386 
L 357.643309 237.48691 
L 358.089709 235.572947 
L 358.366173 234.578191 
L 358.546255 234.518883 
L 358.744091 234.750489 
L 359.1981 235.729098 
L 359.258973 235.853059 
L 359.307164 235.707322 
L 359.667327 234.537536 
L 359.819509 234.595825 
L 360.075682 235.023596 
L 361.376836 237.499541 
L 361.967809 238.029494 
L 362.6577 238.344717 
L 363.093955 238.363031 
L 363.3273 237.786385 
L 363.684927 237.165711 
L 363.956318 237.084878 
L 364.288582 237.247307 
L 364.8897 237.716459 
L 364.937891 237.596315 
L 365.176309 236.355101 
L 365.622709 233.114447 
L 365.843373 232.768564 
L 365.995555 232.86458 
L 366.071645 232.889836 
L 366.112227 232.838895 
L 366.436882 232.523401 
L 366.609355 232.753145 
L 366.951764 233.679274 
L 367.996745 236.602084 
L 368.554745 237.46891 
L 369.1305 237.966667 
L 369.259855 238.00818 
L 369.287755 237.940948 
L 369.404427 237.204143 
L 369.789955 234.174585 
L 369.9954 233.909819 
L 370.155191 234.036165 
L 370.457018 234.645142 
L 370.852691 235.538453 
L 370.911027 235.464697 
L 371.339673 234.859668 
L 371.542582 235.028055 
L 371.950936 235.737902 
L 372.202036 236.156496 
L 372.252764 236.089444 
L 372.742282 235.352602 
L 372.960409 235.523378 
L 373.4271 236.257142 
L 373.581818 236.519302 
L 373.581818 236.519302 
" clip-path="url(#p885f5f0221)" style="fill: none; stroke: #ff0000; stroke-width: 1.5; stroke-linecap: square"/>
   </g>
   <g id="line2d_18">
    <path d="M 322.854545 213.171429 
L 373.480364 213.171429 
L 373.480364 213.171429 
" clip-path="url(#p885f5f0221)" style="fill: none; stroke: #000000; stroke-width: 1.5; stroke-linecap: square"/>
   </g>
   <g id="line2d_19">
    <path d="M 322.854545 189.874286 
L 322.854545 188.321143 
L 322.854545 186.768 
L 322.854545 185.214857 
L 322.854545 183.661714 
L 322.854545 182.108571 
L 322.854545 180.555429 
L 322.854545 179.002286 
L 322.854545 177.449143 
L 322.854545 175.896 
L 322.854545 174.342857 
L 322.854545 172.789714 
L 322.854545 171.236571 
L 322.854545 169.683429 
L 322.854545 168.130286 
L 322.854545 166.577143 
L 322.854545 165.024 
L 322.854545 163.470857 
L 322.854545 161.917714 
L 322.854545 160.364571 
" clip-path="url(#p885f5f0221)" style="fill: none; stroke: #000000; stroke-width: 1.5; stroke-linecap: square"/>
   </g>
   <g id="patch_3">
    <path d="M 54 252 
L 54 34.56 
" style="fill: none; stroke: #000000; stroke-width: 0.8; stroke-linejoin: miter; stroke-linecap: square"/>
   </g>
   <g id="patch_4">
    <path d="M 54 252 
L 388.8 252 
" style="fill: none; stroke: #000000; stroke-width: 0.8; stroke-linejoin: miter; stroke-linecap: square"/>
   </g>
   <g id="text_18">
    <!-- 500 ms -->
    <g transform="translate(322.854545 211.618286)scale(0.1 -0.1)">
     <use xlink:href="#DejaVuSans-35"/>
     <use xlink:href="#DejaVuSans-30" x="63.623047"/>
     <use xlink:href="#DejaVuSans-30" x="127.246094"/>
     <use xlink:href="#DejaVuSans-20" x="190.869141"/>
     <use xlink:href="#DejaVuSans-6d" x="222.65625"/>
     <use xlink:href="#DejaVuSans-73" x="320.068359"/>
    </g>
   </g>
   <g id="text_19">
    <!-- 20 mV -->
    <g transform="translate(327.927273 158.811429)scale(0.1 -0.1)">
     <use xlink:href="#DejaVuSans-32"/>
     <use xlink:href="#DejaVuSans-30" x="63.623047"/>
     <use xlink:href="#DejaVuSans-20" x="127.246094"/>
     <use xlink:href="#DejaVuSans-6d" x="159.033203"/>
     <use xlink:href="#DejaVuSans-56" x="256.445312"/>
    </g>
   </g>
  </g>
 </g>
 <defs>
  <clipPath id="p885f5f0221">
   <rect x="54" y="34.56" width="334.8" height="217.44"/>
  </clipPath>
 </defs>
</svg>
