<?xml version="1.0" encoding="utf-8" standalone="no"?>
<!DOCTYPE svg PUBLIC "-//W3C//DTD SVG 1.1//EN"
  "http://www.w3.org/Graphics/SVG/1.1/DTD/svg11.dtd">
<svg xmlns:xlink="http://www.w3.org/1999/xlink" width="460.8pt" height="345.6pt" viewBox="0 0 460.8 345.6" xmlns="http://www.w3.org/2000/svg" version="1.1">
 <metadata>
  <rdf:RDF xmlns:dc="http://purl.org/dc/elements/1.1/" xmlns:cc="http://creativecommons.org/ns#" xmlns:rdf="http://www.w3.org/1999/02/22-rdf-syntax-ns#">
   <cc:Work>
    <dc:type rdf:resource="http://purl.org/dc/dcmitype/StillImage"/>
    <dc:date>2023-02-10T19:08:37.235033</dc:date>
    <dc:format>image/svg+xml</dc:format>
    <dc:creator>
     <cc:Agent>
      <dc:title>Matplotlib v3.6.3, https://matplotlib.org/</dc:title>
     </cc:Agent>
    </dc:creator>
   </cc:Work>
  </rdf:RDF>
 </metadata>
 <defs>
  <style type="text/css">*{stroke-linejoin: round; stroke-linecap: butt}</style>
 </defs>
 <g id="figure_1">
  <g id="patch_1">
   <path d="M 0 345.6 
L 460.8 345.6 
L 460.8 0 
L 0 0 
z
" style="fill: #ffffff"/>
  </g>
  <g id="axes_1">
   <g id="patch_2">
    <path d="M 57.6 307.584 
L 414.72 307.584 
L 414.72 41.472 
L 57.6 41.472 
z
" style="fill: #ffffff"/>
   </g>
   <g id="matplotlib.axis_1">
    <g id="xtick_1">
     <g id="line2d_1">
      <defs>
       <path id="m19c16cf66a" d="M 0 0 
L 0 3.5 
" style="stroke: #000000; stroke-width: 0.8"/>
      </defs>
      <g>
       <use xlink:href="#m19c16cf66a" x="73.832727" y="307.584" style="stroke: #000000; stroke-width: 0.8"/>
      </g>
     </g>
     <g id="text_1">
      <!-- 0 -->
      <g transform="translate(70.651477 322.182437) scale(0.1 -0.1)">
       <defs>
        <path id="DejaVuSans-30" d="M 2034 4250 
Q 1547 4250 1301 3770 
Q 1056 3291 1056 2328 
Q 1056 1369 1301 889 
Q 1547 409 2034 409 
Q 2525 409 2770 889 
Q 3016 1369 3016 2328 
Q 3016 3291 2770 3770 
Q 2525 4250 2034 4250 
z
M 2034 4750 
Q 2819 4750 3233 4129 
Q 3647 3509 3647 2328 
Q 3647 1150 3233 529 
Q 2819 -91 2034 -91 
Q 1250 -91 836 529 
Q 422 1150 422 2328 
Q 422 3509 836 4129 
Q 1250 4750 2034 4750 
z
" transform="scale(0.015625)"/>
       </defs>
       <use xlink:href="#DejaVuSans-30"/>
      </g>
     </g>
    </g>
    <g id="xtick_2">
     <g id="line2d_2">
      <g>
       <use xlink:href="#m19c16cf66a" x="127.941818" y="307.584" style="stroke: #000000; stroke-width: 0.8"/>
      </g>
     </g>
     <g id="text_2">
      <!-- 500 -->
      <g transform="translate(118.398068 322.182437) scale(0.1 -0.1)">
       <defs>
        <path id="DejaVuSans-35" d="M 691 4666 
L 3169 4666 
L 3169 4134 
L 1269 4134 
L 1269 2991 
Q 1406 3038 1543 3061 
Q 1681 3084 1819 3084 
Q 2600 3084 3056 2656 
Q 3513 2228 3513 1497 
Q 3513 744 3044 326 
Q 2575 -91 1722 -91 
Q 1428 -91 1123 -41 
Q 819 9 494 109 
L 494 744 
Q 775 591 1075 516 
Q 1375 441 1709 441 
Q 2250 441 2565 725 
Q 2881 1009 2881 1497 
Q 2881 1984 2565 2268 
Q 2250 2553 1709 2553 
Q 1456 2553 1204 2497 
Q 953 2441 691 2322 
L 691 4666 
z
" transform="scale(0.015625)"/>
       </defs>
       <use xlink:href="#DejaVuSans-35"/>
       <use xlink:href="#DejaVuSans-30" x="63.623047"/>
       <use xlink:href="#DejaVuSans-30" x="127.246094"/>
      </g>
     </g>
    </g>
    <g id="xtick_3">
     <g id="line2d_3">
      <g>
       <use xlink:href="#m19c16cf66a" x="182.050909" y="307.584" style="stroke: #000000; stroke-width: 0.8"/>
      </g>
     </g>
     <g id="text_3">
      <!-- 1000 -->
      <g transform="translate(169.325909 322.182437) scale(0.1 -0.1)">
       <defs>
        <path id="DejaVuSans-31" d="M 794 531 
L 1825 531 
L 1825 4091 
L 703 3866 
L 703 4441 
L 1819 4666 
L 2450 4666 
L 2450 531 
L 3481 531 
L 3481 0 
L 794 0 
L 794 531 
z
" transform="scale(0.015625)"/>
       </defs>
       <use xlink:href="#DejaVuSans-31"/>
       <use xlink:href="#DejaVuSans-30" x="63.623047"/>
       <use xlink:href="#DejaVuSans-30" x="127.246094"/>
       <use xlink:href="#DejaVuSans-30" x="190.869141"/>
      </g>
     </g>
    </g>
    <g id="xtick_4">
     <g id="line2d_4">
      <g>
       <use xlink:href="#m19c16cf66a" x="236.16" y="307.584" style="stroke: #000000; stroke-width: 0.8"/>
      </g>
     </g>
     <g id="text_4">
      <!-- 1500 -->
      <g transform="translate(223.435 322.182437) scale(0.1 -0.1)">
       <use xlink:href="#DejaVuSans-31"/>
       <use xlink:href="#DejaVuSans-35" x="63.623047"/>
       <use xlink:href="#DejaVuSans-30" x="127.246094"/>
       <use xlink:href="#DejaVuSans-30" x="190.869141"/>
      </g>
     </g>
    </g>
    <g id="xtick_5">
     <g id="line2d_5">
      <g>
       <use xlink:href="#m19c16cf66a" x="290.269091" y="307.584" style="stroke: #000000; stroke-width: 0.8"/>
      </g>
     </g>
     <g id="text_5">
      <!-- 2000 -->
      <g transform="translate(277.544091 322.182437) scale(0.1 -0.1)">
       <defs>
        <path id="DejaVuSans-32" d="M 1228 531 
L 3431 531 
L 3431 0 
L 469 0 
L 469 531 
Q 828 903 1448 1529 
Q 2069 2156 2228 2338 
Q 2531 2678 2651 2914 
Q 2772 3150 2772 3378 
Q 2772 3750 2511 3984 
Q 2250 4219 1831 4219 
Q 1534 4219 1204 4116 
Q 875 4013 500 3803 
L 500 4441 
Q 881 4594 1212 4672 
Q 1544 4750 1819 4750 
Q 2544 4750 2975 4387 
Q 3406 4025 3406 3419 
Q 3406 3131 3298 2873 
Q 3191 2616 2906 2266 
Q 2828 2175 2409 1742 
Q 1991 1309 1228 531 
z
" transform="scale(0.015625)"/>
       </defs>
       <use xlink:href="#DejaVuSans-32"/>
       <use xlink:href="#DejaVuSans-30" x="63.623047"/>
       <use xlink:href="#DejaVuSans-30" x="127.246094"/>
       <use xlink:href="#DejaVuSans-30" x="190.869141"/>
      </g>
     </g>
    </g>
    <g id="xtick_6">
     <g id="line2d_6">
      <g>
       <use xlink:href="#m19c16cf66a" x="344.378182" y="307.584" style="stroke: #000000; stroke-width: 0.8"/>
      </g>
     </g>
     <g id="text_6">
      <!-- 2500 -->
      <g transform="translate(331.653182 322.182437) scale(0.1 -0.1)">
       <use xlink:href="#DejaVuSans-32"/>
       <use xlink:href="#DejaVuSans-35" x="63.623047"/>
       <use xlink:href="#DejaVuSans-30" x="127.246094"/>
       <use xlink:href="#DejaVuSans-30" x="190.869141"/>
      </g>
     </g>
    </g>
    <g id="xtick_7">
     <g id="line2d_7">
      <g>
       <use xlink:href="#m19c16cf66a" x="398.487273" y="307.584" style="stroke: #000000; stroke-width: 0.8"/>
      </g>
     </g>
     <g id="text_7">
      <!-- 3000 -->
      <g transform="translate(385.762273 322.182437) scale(0.1 -0.1)">
       <defs>
        <path id="DejaVuSans-33" d="M 2597 2516 
Q 3050 2419 3304 2112 
Q 3559 1806 3559 1356 
Q 3559 666 3084 287 
Q 2609 -91 1734 -91 
Q 1441 -91 1130 -33 
Q 819 25 488 141 
L 488 750 
Q 750 597 1062 519 
Q 1375 441 1716 441 
Q 2309 441 2620 675 
Q 2931 909 2931 1356 
Q 2931 1769 2642 2001 
Q 2353 2234 1838 2234 
L 1294 2234 
L 1294 2753 
L 1863 2753 
Q 2328 2753 2575 2939 
Q 2822 3125 2822 3475 
Q 2822 3834 2567 4026 
Q 2313 4219 1838 4219 
Q 1578 4219 1281 4162 
Q 984 4106 628 3988 
L 628 4550 
Q 988 4650 1302 4700 
Q 1616 4750 1894 4750 
Q 2613 4750 3031 4423 
Q 3450 4097 3450 3541 
Q 3450 3153 3228 2886 
Q 3006 2619 2597 2516 
z
" transform="scale(0.015625)"/>
       </defs>
       <use xlink:href="#DejaVuSans-33"/>
       <use xlink:href="#DejaVuSans-30" x="63.623047"/>
       <use xlink:href="#DejaVuSans-30" x="127.246094"/>
       <use xlink:href="#DejaVuSans-30" x="190.869141"/>
      </g>
     </g>
    </g>
    <g id="text_8">
     <!-- Time(ms) -->
     <g transform="translate(212.549844 335.860562) scale(0.1 -0.1)">
      <defs>
       <path id="DejaVuSans-54" d="M -19 4666 
L 3928 4666 
L 3928 4134 
L 2272 4134 
L 2272 0 
L 1638 0 
L 1638 4134 
L -19 4134 
L -19 4666 
z
" transform="scale(0.015625)"/>
       <path id="DejaVuSans-69" d="M 603 3500 
L 1178 3500 
L 1178 0 
L 603 0 
L 603 3500 
z
M 603 4863 
L 1178 4863 
L 1178 4134 
L 603 4134 
L 603 4863 
z
" transform="scale(0.015625)"/>
       <path id="DejaVuSans-6d" d="M 3328 2828 
Q 3544 3216 3844 3400 
Q 4144 3584 4550 3584 
Q 5097 3584 5394 3201 
Q 5691 2819 5691 2113 
L 5691 0 
L 5113 0 
L 5113 2094 
Q 5113 2597 4934 2840 
Q 4756 3084 4391 3084 
Q 3944 3084 3684 2787 
Q 3425 2491 3425 1978 
L 3425 0 
L 2847 0 
L 2847 2094 
Q 2847 2600 2669 2842 
Q 2491 3084 2119 3084 
Q 1678 3084 1418 2786 
Q 1159 2488 1159 1978 
L 1159 0 
L 581 0 
L 581 3500 
L 1159 3500 
L 1159 2956 
Q 1356 3278 1631 3431 
Q 1906 3584 2284 3584 
Q 2666 3584 2933 3390 
Q 3200 3197 3328 2828 
z
" transform="scale(0.015625)"/>
       <path id="DejaVuSans-65" d="M 3597 1894 
L 3597 1613 
L 953 1613 
Q 991 1019 1311 708 
Q 1631 397 2203 397 
Q 2534 397 2845 478 
Q 3156 559 3463 722 
L 3463 178 
Q 3153 47 2828 -22 
Q 2503 -91 2169 -91 
Q 1331 -91 842 396 
Q 353 884 353 1716 
Q 353 2575 817 3079 
Q 1281 3584 2069 3584 
Q 2775 3584 3186 3129 
Q 3597 2675 3597 1894 
z
M 3022 2063 
Q 3016 2534 2758 2815 
Q 2500 3097 2075 3097 
Q 1594 3097 1305 2825 
Q 1016 2553 972 2059 
L 3022 2063 
z
" transform="scale(0.015625)"/>
       <path id="DejaVuSans-28" d="M 1984 4856 
Q 1566 4138 1362 3434 
Q 1159 2731 1159 2009 
Q 1159 1288 1364 580 
Q 1569 -128 1984 -844 
L 1484 -844 
Q 1016 -109 783 600 
Q 550 1309 550 2009 
Q 550 2706 781 3412 
Q 1013 4119 1484 4856 
L 1984 4856 
z
" transform="scale(0.015625)"/>
       <path id="DejaVuSans-73" d="M 2834 3397 
L 2834 2853 
Q 2591 2978 2328 3040 
Q 2066 3103 1784 3103 
Q 1356 3103 1142 2972 
Q 928 2841 928 2578 
Q 928 2378 1081 2264 
Q 1234 2150 1697 2047 
L 1894 2003 
Q 2506 1872 2764 1633 
Q 3022 1394 3022 966 
Q 3022 478 2636 193 
Q 2250 -91 1575 -91 
Q 1294 -91 989 -36 
Q 684 19 347 128 
L 347 722 
Q 666 556 975 473 
Q 1284 391 1588 391 
Q 1994 391 2212 530 
Q 2431 669 2431 922 
Q 2431 1156 2273 1281 
Q 2116 1406 1581 1522 
L 1381 1569 
Q 847 1681 609 1914 
Q 372 2147 372 2553 
Q 372 3047 722 3315 
Q 1072 3584 1716 3584 
Q 2034 3584 2315 3537 
Q 2597 3491 2834 3397 
z
" transform="scale(0.015625)"/>
       <path id="DejaVuSans-29" d="M 513 4856 
L 1013 4856 
Q 1481 4119 1714 3412 
Q 1947 2706 1947 2009 
Q 1947 1309 1714 600 
Q 1481 -109 1013 -844 
L 513 -844 
Q 928 -128 1133 580 
Q 1338 1288 1338 2009 
Q 1338 2731 1133 3434 
Q 928 4138 513 4856 
z
" transform="scale(0.015625)"/>
      </defs>
      <use xlink:href="#DejaVuSans-54"/>
      <use xlink:href="#DejaVuSans-69" x="57.958984"/>
      <use xlink:href="#DejaVuSans-6d" x="85.742188"/>
      <use xlink:href="#DejaVuSans-65" x="183.154297"/>
      <use xlink:href="#DejaVuSans-28" x="244.677734"/>
      <use xlink:href="#DejaVuSans-6d" x="283.691406"/>
      <use xlink:href="#DejaVuSans-73" x="381.103516"/>
      <use xlink:href="#DejaVuSans-29" x="433.203125"/>
     </g>
    </g>
   </g>
   <g id="matplotlib.axis_2">
    <g id="ytick_1">
     <g id="line2d_8">
      <defs>
       <path id="mbfb618c0b9" d="M 0 0 
L -3.5 0 
" style="stroke: #000000; stroke-width: 0.8"/>
      </defs>
      <g>
       <use xlink:href="#mbfb618c0b9" x="57.6" y="307.584" style="stroke: #000000; stroke-width: 0.8"/>
      </g>
     </g>
     <g id="text_9">
      <!-- −100 -->
      <g transform="translate(23.132812 311.383219) scale(0.1 -0.1)">
       <defs>
        <path id="DejaVuSans-2212" d="M 678 2272 
L 4684 2272 
L 4684 1741 
L 678 1741 
L 678 2272 
z
" transform="scale(0.015625)"/>
       </defs>
       <use xlink:href="#DejaVuSans-2212"/>
       <use xlink:href="#DejaVuSans-31" x="83.789062"/>
       <use xlink:href="#DejaVuSans-30" x="147.412109"/>
       <use xlink:href="#DejaVuSans-30" x="211.035156"/>
      </g>
     </g>
    </g>
    <g id="ytick_2">
     <g id="line2d_9">
      <g>
       <use xlink:href="#mbfb618c0b9" x="57.6" y="269.568" style="stroke: #000000; stroke-width: 0.8"/>
      </g>
     </g>
     <g id="text_10">
      <!-- −80 -->
      <g transform="translate(29.495313 273.367219) scale(0.1 -0.1)">
       <defs>
        <path id="DejaVuSans-38" d="M 2034 2216 
Q 1584 2216 1326 1975 
Q 1069 1734 1069 1313 
Q 1069 891 1326 650 
Q 1584 409 2034 409 
Q 2484 409 2743 651 
Q 3003 894 3003 1313 
Q 3003 1734 2745 1975 
Q 2488 2216 2034 2216 
z
M 1403 2484 
Q 997 2584 770 2862 
Q 544 3141 544 3541 
Q 544 4100 942 4425 
Q 1341 4750 2034 4750 
Q 2731 4750 3128 4425 
Q 3525 4100 3525 3541 
Q 3525 3141 3298 2862 
Q 3072 2584 2669 2484 
Q 3125 2378 3379 2068 
Q 3634 1759 3634 1313 
Q 3634 634 3220 271 
Q 2806 -91 2034 -91 
Q 1263 -91 848 271 
Q 434 634 434 1313 
Q 434 1759 690 2068 
Q 947 2378 1403 2484 
z
M 1172 3481 
Q 1172 3119 1398 2916 
Q 1625 2713 2034 2713 
Q 2441 2713 2670 2916 
Q 2900 3119 2900 3481 
Q 2900 3844 2670 4047 
Q 2441 4250 2034 4250 
Q 1625 4250 1398 4047 
Q 1172 3844 1172 3481 
z
" transform="scale(0.015625)"/>
       </defs>
       <use xlink:href="#DejaVuSans-2212"/>
       <use xlink:href="#DejaVuSans-38" x="83.789062"/>
       <use xlink:href="#DejaVuSans-30" x="147.412109"/>
      </g>
     </g>
    </g>
    <g id="ytick_3">
     <g id="line2d_10">
      <g>
       <use xlink:href="#mbfb618c0b9" x="57.6" y="231.552" style="stroke: #000000; stroke-width: 0.8"/>
      </g>
     </g>
     <g id="text_11">
      <!-- −60 -->
      <g transform="translate(29.495313 235.351219) scale(0.1 -0.1)">
       <defs>
        <path id="DejaVuSans-36" d="M 2113 2584 
Q 1688 2584 1439 2293 
Q 1191 2003 1191 1497 
Q 1191 994 1439 701 
Q 1688 409 2113 409 
Q 2538 409 2786 701 
Q 3034 994 3034 1497 
Q 3034 2003 2786 2293 
Q 2538 2584 2113 2584 
z
M 3366 4563 
L 3366 3988 
Q 3128 4100 2886 4159 
Q 2644 4219 2406 4219 
Q 1781 4219 1451 3797 
Q 1122 3375 1075 2522 
Q 1259 2794 1537 2939 
Q 1816 3084 2150 3084 
Q 2853 3084 3261 2657 
Q 3669 2231 3669 1497 
Q 3669 778 3244 343 
Q 2819 -91 2113 -91 
Q 1303 -91 875 529 
Q 447 1150 447 2328 
Q 447 3434 972 4092 
Q 1497 4750 2381 4750 
Q 2619 4750 2861 4703 
Q 3103 4656 3366 4563 
z
" transform="scale(0.015625)"/>
       </defs>
       <use xlink:href="#DejaVuSans-2212"/>
       <use xlink:href="#DejaVuSans-36" x="83.789062"/>
       <use xlink:href="#DejaVuSans-30" x="147.412109"/>
      </g>
     </g>
    </g>
    <g id="ytick_4">
     <g id="line2d_11">
      <g>
       <use xlink:href="#mbfb618c0b9" x="57.6" y="193.536" style="stroke: #000000; stroke-width: 0.8"/>
      </g>
     </g>
     <g id="text_12">
      <!-- −40 -->
      <g transform="translate(29.495313 197.335219) scale(0.1 -0.1)">
       <defs>
        <path id="DejaVuSans-34" d="M 2419 4116 
L 825 1625 
L 2419 1625 
L 2419 4116 
z
M 2253 4666 
L 3047 4666 
L 3047 1625 
L 3713 1625 
L 3713 1100 
L 3047 1100 
L 3047 0 
L 2419 0 
L 2419 1100 
L 313 1100 
L 313 1709 
L 2253 4666 
z
" transform="scale(0.015625)"/>
       </defs>
       <use xlink:href="#DejaVuSans-2212"/>
       <use xlink:href="#DejaVuSans-34" x="83.789062"/>
       <use xlink:href="#DejaVuSans-30" x="147.412109"/>
      </g>
     </g>
    </g>
    <g id="ytick_5">
     <g id="line2d_12">
      <g>
       <use xlink:href="#mbfb618c0b9" x="57.6" y="155.52" style="stroke: #000000; stroke-width: 0.8"/>
      </g>
     </g>
     <g id="text_13">
      <!-- −20 -->
      <g transform="translate(29.495313 159.319219) scale(0.1 -0.1)">
       <use xlink:href="#DejaVuSans-2212"/>
       <use xlink:href="#DejaVuSans-32" x="83.789062"/>
       <use xlink:href="#DejaVuSans-30" x="147.412109"/>
      </g>
     </g>
    </g>
    <g id="ytick_6">
     <g id="line2d_13">
      <g>
       <use xlink:href="#mbfb618c0b9" x="57.6" y="117.504" style="stroke: #000000; stroke-width: 0.8"/>
      </g>
     </g>
     <g id="text_14">
      <!-- 0 -->
      <g transform="translate(44.2375 121.303219) scale(0.1 -0.1)">
       <use xlink:href="#DejaVuSans-30"/>
      </g>
     </g>
    </g>
    <g id="ytick_7">
     <g id="line2d_14">
      <g>
       <use xlink:href="#mbfb618c0b9" x="57.6" y="79.488" style="stroke: #000000; stroke-width: 0.8"/>
      </g>
     </g>
     <g id="text_15">
      <!-- 20 -->
      <g transform="translate(37.875 83.287219) scale(0.1 -0.1)">
       <use xlink:href="#DejaVuSans-32"/>
       <use xlink:href="#DejaVuSans-30" x="63.623047"/>
      </g>
     </g>
    </g>
    <g id="ytick_8">
     <g id="line2d_15">
      <g>
       <use xlink:href="#mbfb618c0b9" x="57.6" y="41.472" style="stroke: #000000; stroke-width: 0.8"/>
      </g>
     </g>
     <g id="text_16">
      <!-- 40 -->
      <g transform="translate(37.875 45.271219) scale(0.1 -0.1)">
       <use xlink:href="#DejaVuSans-34"/>
       <use xlink:href="#DejaVuSans-30" x="63.623047"/>
      </g>
     </g>
    </g>
    <g id="text_17">
     <!-- Membrane potential (mV) -->
     <g transform="translate(17.053125 238.939719) rotate(-90) scale(0.1 -0.1)">
      <defs>
       <path id="DejaVuSans-4d" d="M 628 4666 
L 1569 4666 
L 2759 1491 
L 3956 4666 
L 4897 4666 
L 4897 0 
L 4281 0 
L 4281 4097 
L 3078 897 
L 2444 897 
L 1241 4097 
L 1241 0 
L 628 0 
L 628 4666 
z
" transform="scale(0.015625)"/>
       <path id="DejaVuSans-62" d="M 3116 1747 
Q 3116 2381 2855 2742 
Q 2594 3103 2138 3103 
Q 1681 3103 1420 2742 
Q 1159 2381 1159 1747 
Q 1159 1113 1420 752 
Q 1681 391 2138 391 
Q 2594 391 2855 752 
Q 3116 1113 3116 1747 
z
M 1159 2969 
Q 1341 3281 1617 3432 
Q 1894 3584 2278 3584 
Q 2916 3584 3314 3078 
Q 3713 2572 3713 1747 
Q 3713 922 3314 415 
Q 2916 -91 2278 -91 
Q 1894 -91 1617 61 
Q 1341 213 1159 525 
L 1159 0 
L 581 0 
L 581 4863 
L 1159 4863 
L 1159 2969 
z
" transform="scale(0.015625)"/>
       <path id="DejaVuSans-72" d="M 2631 2963 
Q 2534 3019 2420 3045 
Q 2306 3072 2169 3072 
Q 1681 3072 1420 2755 
Q 1159 2438 1159 1844 
L 1159 0 
L 581 0 
L 581 3500 
L 1159 3500 
L 1159 2956 
Q 1341 3275 1631 3429 
Q 1922 3584 2338 3584 
Q 2397 3584 2469 3576 
Q 2541 3569 2628 3553 
L 2631 2963 
z
" transform="scale(0.015625)"/>
       <path id="DejaVuSans-61" d="M 2194 1759 
Q 1497 1759 1228 1600 
Q 959 1441 959 1056 
Q 959 750 1161 570 
Q 1363 391 1709 391 
Q 2188 391 2477 730 
Q 2766 1069 2766 1631 
L 2766 1759 
L 2194 1759 
z
M 3341 1997 
L 3341 0 
L 2766 0 
L 2766 531 
Q 2569 213 2275 61 
Q 1981 -91 1556 -91 
Q 1019 -91 701 211 
Q 384 513 384 1019 
Q 384 1609 779 1909 
Q 1175 2209 1959 2209 
L 2766 2209 
L 2766 2266 
Q 2766 2663 2505 2880 
Q 2244 3097 1772 3097 
Q 1472 3097 1187 3025 
Q 903 2953 641 2809 
L 641 3341 
Q 956 3463 1253 3523 
Q 1550 3584 1831 3584 
Q 2591 3584 2966 3190 
Q 3341 2797 3341 1997 
z
" transform="scale(0.015625)"/>
       <path id="DejaVuSans-6e" d="M 3513 2113 
L 3513 0 
L 2938 0 
L 2938 2094 
Q 2938 2591 2744 2837 
Q 2550 3084 2163 3084 
Q 1697 3084 1428 2787 
Q 1159 2491 1159 1978 
L 1159 0 
L 581 0 
L 581 3500 
L 1159 3500 
L 1159 2956 
Q 1366 3272 1645 3428 
Q 1925 3584 2291 3584 
Q 2894 3584 3203 3211 
Q 3513 2838 3513 2113 
z
" transform="scale(0.015625)"/>
       <path id="DejaVuSans-20" transform="scale(0.015625)"/>
       <path id="DejaVuSans-70" d="M 1159 525 
L 1159 -1331 
L 581 -1331 
L 581 3500 
L 1159 3500 
L 1159 2969 
Q 1341 3281 1617 3432 
Q 1894 3584 2278 3584 
Q 2916 3584 3314 3078 
Q 3713 2572 3713 1747 
Q 3713 922 3314 415 
Q 2916 -91 2278 -91 
Q 1894 -91 1617 61 
Q 1341 213 1159 525 
z
M 3116 1747 
Q 3116 2381 2855 2742 
Q 2594 3103 2138 3103 
Q 1681 3103 1420 2742 
Q 1159 2381 1159 1747 
Q 1159 1113 1420 752 
Q 1681 391 2138 391 
Q 2594 391 2855 752 
Q 3116 1113 3116 1747 
z
" transform="scale(0.015625)"/>
       <path id="DejaVuSans-6f" d="M 1959 3097 
Q 1497 3097 1228 2736 
Q 959 2375 959 1747 
Q 959 1119 1226 758 
Q 1494 397 1959 397 
Q 2419 397 2687 759 
Q 2956 1122 2956 1747 
Q 2956 2369 2687 2733 
Q 2419 3097 1959 3097 
z
M 1959 3584 
Q 2709 3584 3137 3096 
Q 3566 2609 3566 1747 
Q 3566 888 3137 398 
Q 2709 -91 1959 -91 
Q 1206 -91 779 398 
Q 353 888 353 1747 
Q 353 2609 779 3096 
Q 1206 3584 1959 3584 
z
" transform="scale(0.015625)"/>
       <path id="DejaVuSans-74" d="M 1172 4494 
L 1172 3500 
L 2356 3500 
L 2356 3053 
L 1172 3053 
L 1172 1153 
Q 1172 725 1289 603 
Q 1406 481 1766 481 
L 2356 481 
L 2356 0 
L 1766 0 
Q 1100 0 847 248 
Q 594 497 594 1153 
L 594 3053 
L 172 3053 
L 172 3500 
L 594 3500 
L 594 4494 
L 1172 4494 
z
" transform="scale(0.015625)"/>
       <path id="DejaVuSans-6c" d="M 603 4863 
L 1178 4863 
L 1178 0 
L 603 0 
L 603 4863 
z
" transform="scale(0.015625)"/>
       <path id="DejaVuSans-56" d="M 1831 0 
L 50 4666 
L 709 4666 
L 2188 738 
L 3669 4666 
L 4325 4666 
L 2547 0 
L 1831 0 
z
" transform="scale(0.015625)"/>
      </defs>
      <use xlink:href="#DejaVuSans-4d"/>
      <use xlink:href="#DejaVuSans-65" x="86.279297"/>
      <use xlink:href="#DejaVuSans-6d" x="147.802734"/>
      <use xlink:href="#DejaVuSans-62" x="245.214844"/>
      <use xlink:href="#DejaVuSans-72" x="308.691406"/>
      <use xlink:href="#DejaVuSans-61" x="349.804688"/>
      <use xlink:href="#DejaVuSans-6e" x="411.083984"/>
      <use xlink:href="#DejaVuSans-65" x="474.462891"/>
      <use xlink:href="#DejaVuSans-20" x="535.986328"/>
      <use xlink:href="#DejaVuSans-70" x="567.773438"/>
      <use xlink:href="#DejaVuSans-6f" x="631.25"/>
      <use xlink:href="#DejaVuSans-74" x="692.431641"/>
      <use xlink:href="#DejaVuSans-65" x="731.640625"/>
      <use xlink:href="#DejaVuSans-6e" x="793.164062"/>
      <use xlink:href="#DejaVuSans-74" x="856.542969"/>
      <use xlink:href="#DejaVuSans-69" x="895.751953"/>
      <use xlink:href="#DejaVuSans-61" x="923.535156"/>
      <use xlink:href="#DejaVuSans-6c" x="984.814453"/>
      <use xlink:href="#DejaVuSans-20" x="1012.597656"/>
      <use xlink:href="#DejaVuSans-28" x="1044.384766"/>
      <use xlink:href="#DejaVuSans-6d" x="1083.398438"/>
      <use xlink:href="#DejaVuSans-56" x="1180.810547"/>
      <use xlink:href="#DejaVuSans-29" x="1249.21875"/>
     </g>
    </g>
   </g>
   <g id="line2d_16">
    <path d="M 73.832727 280.9728 
L 73.976116 282.671222 
L 74.108684 283.066085 
L 74.149265 283.022025 
L 74.252073 282.59978 
L 74.676829 280.692603 
L 74.793164 280.760026 
L 74.971724 281.24572 
L 75.139462 281.754826 
L 75.201687 281.679189 
L 75.428945 281.450157 
L 75.447884 281.463732 
L 75.585862 281.624282 
L 75.639971 281.487803 
L 75.913222 280.881885 
L 75.926749 280.887528 
L 76.0512 281.081571 
L 76.256815 281.675627 
L 76.335273 281.507797 
L 76.521949 280.221603 
L 76.933178 278.212503 
L 77.073862 278.062387 
L 77.103622 278.080972 
L 77.293004 278.096849 
L 77.909847 277.765893 
L 77.934196 277.807444 
L 78.131695 278.416801 
L 78.380596 279.211679 
L 78.429295 279.189995 
L 78.591622 279.230751 
L 78.648436 279.308228 
L 78.689018 279.181636 
L 78.994735 278.172538 
L 79.010967 278.179305 
L 79.08672 278.249996 
L 79.111069 278.124848 
L 79.557469 274.823881 
L 79.616989 274.876139 
L 79.763084 275.332952 
L 80.0688 277.191686 
L 80.201367 277.768855 
L 80.255476 277.739218 
L 80.393455 277.52606 
L 80.701876 276.416064 
L 80.709993 276.418315 
L 80.815505 276.577007 
L 81.02112 277.407939 
L 81.52704 280.151945 
L 81.610909 279.9207 
L 81.984262 278.703522 
L 82.100596 278.846701 
L 82.200698 279.094125 
L 82.257513 278.925692 
L 82.473949 277.48339 
L 82.722851 276.410029 
L 82.814836 276.441688 
L 82.831069 276.466658 
L 82.993396 276.968214 
L 83.347811 278.740343 
L 83.480378 278.569783 
L 83.591302 278.584355 
L 83.607535 278.605483 
L 83.767156 279.033554 
L 83.913251 279.532343 
L 83.983593 279.429113 
L 84.191913 279.209069 
L 84.208145 279.219339 
L 84.343418 279.463453 
L 84.597731 280.495162 
L 85.090124 282.92999 
L 85.173993 282.850845 
L 85.393135 282.747349 
L 85.555462 283.0012 
L 85.625804 283.153244 
L 85.674502 283.004895 
L 86.012684 281.929548 
L 86.134429 282.038083 
L 86.34816 282.630309 
L 86.870313 284.928553 
L 87.314007 286.831214 
L 87.362705 286.705586 
L 87.47904 285.458171 
L 87.974138 280.613895 
L 88.195985 279.983354 
L 88.331258 279.829169 
L 89.045498 277.799778 
L 89.077964 277.820092 
L 89.140189 277.877677 
L 89.183476 277.770444 
L 89.497309 277.070952 
L 89.62176 276.950183 
L 89.708335 276.628324 
L 90.078982 274.688919 
L 90.176378 274.793881 
L 90.354938 275.440459 
L 90.498327 275.7118 
L 90.522676 275.698715 
L 90.60384 275.444983 
L 90.912262 274.434487 
L 90.925789 274.439236 
L 91.034007 274.620084 
L 91.236916 275.15127 
L 91.31808 275.088497 
L 91.364073 274.925142 
L 91.799651 271.091291 
L 91.948451 267.813682 
L 92.221702 264.167254 
L 92.522007 262.592177 
L 92.573411 262.6481 
L 92.703273 263.151454 
L 93.106385 265.540873 
L 93.19296 265.283665 
L 93.387753 262.285183 
L 93.836858 256.836485 
L 93.890967 256.833279 
L 93.928844 256.894254 
L 94.101993 257.562354 
L 94.340073 258.119903 
L 94.359011 258.114539 
L 94.494284 258.190101 
L 94.835171 259.067927 
L 95.054313 260.130357 
L 95.132771 260.462934 
L 95.197702 260.336842 
L 95.406022 259.391159 
L 95.949818 256.229825 
L 96.022865 255.9556 
L 96.415156 254.354939 
L 96.431389 254.362124 
L 96.591011 254.556772 
L 96.655942 254.395165 
L 96.861556 253.975362 
L 96.894022 254.000984 
L 97.010356 254.330285 
L 97.232204 255.792586 
L 97.713775 260.818974 
L 97.849047 261.508706 
L 97.892335 261.451242 
L 98.022196 260.693069 
L 98.260276 259.859843 
L 98.349556 259.978837 
L 98.517295 260.702566 
L 98.806778 262.495124 
L 98.887942 262.248349 
L 99.20448 261.112998 
L 99.226124 261.123959 
L 99.334342 261.3538 
L 99.542662 262.451128 
L 99.962007 266.110215 
L 100.971142 275.628699 
L 101.025251 275.579429 
L 101.136175 275.213346 
L 101.385076 272.713866 
L 101.655622 271.231701 
L 102.018153 270.144043 
L 102.123665 270.303406 
L 102.15072 270.336255 
L 102.199418 270.194143 
L 102.897425 267.275044 
L 102.978589 267.258608 
L 103.01376 267.302944 
L 103.157149 267.761185 
L 103.378996 268.886398 
L 103.470982 268.695198 
L 103.641425 268.448429 
L 103.671185 268.470167 
L 103.792931 268.765632 
L 104.0256 270.046632 
L 104.206865 271.153252 
L 104.269091 270.970977 
L 105.026618 266.426509 
L 105.286342 265.200271 
L 105.3648 265.222651 
L 105.386444 265.257214 
L 105.535244 265.773561 
L 105.830138 267.780863 
L 107.028655 277.236683 
L 107.077353 277.159125 
L 107.201804 276.423904 
L 107.512931 273.116381 
L 107.986385 267.468385 
L 108.254225 266.779878 
L 108.354327 266.890847 
L 108.524771 267.524183 
L 108.6384 268.018483 
L 108.714153 267.923215 
L 108.938705 267.421358 
L 109.071273 267.261624 
L 109.106444 267.29114 
L 109.225484 267.441 
L 109.290415 267.349686 
L 109.428393 267.254801 
L 109.458153 267.282914 
L 109.59072 267.629085 
L 109.863971 269.141014 
L 110.618793 273.454439 
L 110.886633 274.376164 
L 111.021905 274.192874 
L 111.140945 274.175176 
L 111.162589 274.199397 
L 111.289745 274.334004 
L 111.338444 274.253947 
L 111.481833 273.426007 
L 111.730735 272.558958 
L 111.841658 272.629306 
L 112.020218 273.091621 
L 112.401687 274.077716 
L 112.550487 274.293174 
L 112.642473 274.464382 
L 112.688465 274.346596 
L 112.902196 272.835949 
L 113.021236 270.698171 
L 113.351302 265.941186 
L 113.513629 265.509601 
L 113.535273 265.5211 
L 113.640785 265.757058 
L 113.854516 266.908061 
L 114.32256 270.930545 
L 114.64992 272.998208 
L 114.877178 273.700416 
L 115.207244 275.688272 
L 115.526487 277.174494 
L 115.650938 277.276161 
L 115.696931 277.207633 
L 116.054051 276.254003 
L 116.313775 273.033125 
L 116.622196 269.480216 
L 116.76288 269.195622 
L 116.79264 269.215004 
L 116.91168 269.50816 
L 117.152465 270.839053 
L 117.807185 275.549631 
L 117.896465 275.233378 
L 118.183244 274.324572 
L 118.294167 274.415396 
L 118.356393 274.535572 
L 118.402385 274.395805 
L 118.553891 273.220807 
L 119.338473 266.925818 
L 119.427753 267.033183 
L 119.595491 267.722116 
L 119.9472 270.31963 
L 120.577571 275.7881 
L 120.653324 275.439883 
L 121.283695 271.462396 
L 121.4352 270.477558 
L 121.854545 266.527166 
L 121.943825 266.49921 
L 121.978996 266.534813 
L 122.11968 266.917638 
L 122.379404 268.414227 
L 122.974604 273.496011 
L 123.504873 277.314483 
L 123.759185 277.739678 
L 123.78624 277.460395 
L 123.978327 271.895782 
L 124.259695 267.305747 
L 124.430138 266.761968 
L 124.446371 266.768383 
L 124.543767 266.967046 
L 125.176844 269.451301 
L 125.855913 273.205124 
L 126.148102 274.744448 
L 126.892102 280.131046 
L 126.967855 279.390289 
L 127.695622 267.595966 
L 127.784902 267.704862 
L 127.933702 268.061638 
L 127.987811 267.915942 
L 128.363869 265.789981 
L 128.93472 256.377197 
L 129.072698 255.275617 
L 129.324305 253.595498 
L 129.378415 253.616236 
L 129.405469 253.670038 
L 129.543447 254.319511 
L 129.665193 255.054024 
L 129.746356 254.92674 
L 129.830225 254.872064 
L 129.873513 254.92694 
L 130.292858 256.01464 
L 130.495767 257.17508 
L 130.579636 256.958028 
L 130.69056 255.897337 
L 131.053091 252.966856 
L 131.174836 252.731223 
L 131.215418 252.768694 
L 131.334458 253.169706 
L 131.569833 254.913778 
L 131.767331 255.723238 
L 132.23808 256.701343 
L 132.470749 258.248031 
L 132.957731 263.340345 
L 133.274269 265.715749 
L 133.442007 266.315721 
L 133.531287 266.178527 
L 133.642211 266.109231 
L 133.680087 266.147755 
L 133.818065 266.550463 
L 133.937105 266.813923 
L 133.985804 266.79235 
L 134.123782 266.849001 
L 134.275287 267.306627 
L 134.551244 269.003528 
L 135.208669 274.234779 
L 135.287127 273.756522 
L 135.698356 270.954784 
L 136.244858 268.925591 
L 136.277324 268.935818 
L 136.401775 268.859583 
L 136.531636 268.140527 
L 137.097076 263.626728 
L 137.38656 260.59677 
L 137.500189 260.412546 
L 137.540771 260.449872 
L 138.003404 261.366561 
L 138.225251 262.452277 
L 138.341585 262.968702 
L 138.401105 262.87601 
L 138.671651 262.330205 
L 138.712233 262.364474 
L 138.847505 262.724748 
L 139.11264 263.323113 
L 139.264145 263.636472 
L 139.488698 264.753759 
L 139.918865 268.268424 
L 140.284102 270.623367 
L 140.508655 271.526074 
L 140.568175 271.395721 
L 141.252655 269.203521 
L 141.382516 269.247626 
L 141.544844 269.670936 
L 141.845149 270.365576 
L 142.039942 270.7857 
L 142.307782 272.023866 
L 142.846167 275.820788 
L 143.868829 282.807076 
L 143.909411 282.796797 
L 143.944582 282.731914 
L 144.239476 281.746172 
L 144.358516 279.807989 
L 144.831971 272.854402 
L 145.110633 271.006147 
L 145.224262 270.904542 
L 145.259433 270.933724 
L 145.397411 271.271532 
L 145.546211 271.696266 
L 145.613847 271.639987 
L 145.762647 271.613216 
L 145.776175 271.628353 
L 146.04672 272.000593 
L 146.10624 271.873544 
L 146.579695 269.932803 
L 146.993629 266.330827 
L 147.069382 266.301557 
L 147.109964 266.351681 
L 147.256058 266.83834 
L 147.548247 268.755015 
L 148.579025 276.048427 
L 148.811695 276.886785 
L 148.84416 276.958777 
L 148.898269 276.790903 
L 149.047069 275.434528 
L 149.406895 271.99359 
L 149.542167 270.774731 
L 149.856 268.255304 
L 149.939869 268.185319 
L 149.985862 268.234321 
L 150.126545 268.687937 
L 150.375447 269.807421 
L 150.448495 269.661962 
L 151.035578 268.091253 
L 151.146502 268.143808 
L 151.149207 268.148181 
L 151.303418 268.616706 
L 151.419753 269.051859 
L 151.484684 268.926589 
L 151.763345 267.792114 
L 151.922967 265.528555 
L 152.342313 258.338414 
L 152.442415 258.13951 
L 152.488407 258.187966 
L 152.639913 258.560675 
L 152.71296 258.392643 
L 152.948335 257.81624 
L 152.9808 257.839435 
L 153.094429 258.143218 
L 153.313571 259.517152 
L 153.66528 261.461754 
L 153.870895 261.916545 
L 153.96288 261.843474 
L 154.168495 261.646903 
L 154.195549 261.671257 
L 154.325411 261.996477 
L 154.552669 263.296644 
L 155.107287 267.397083 
L 155.196567 267.237799 
L 155.399476 266.021991 
L 155.624029 265.451014 
L 155.921629 264.643011 
L 156.381556 260.169514 
L 156.73056 257.724979 
L 156.792785 257.723 
L 156.827956 257.776587 
L 156.96864 258.325336 
L 157.047098 258.625101 
L 157.103913 258.475909 
L 157.4448 257.0794 
L 157.50432 257.131309 
L 157.577367 257.044005 
L 158.229382 255.915985 
L 158.326778 255.933578 
L 158.345716 255.961873 
L 158.483695 256.422412 
L 158.857047 257.706666 
L 159.130298 257.809388 
L 160.158371 261.377813 
L 160.558778 264.718867 
L 160.832029 267.17241 
L 160.891549 266.891904 
L 160.997062 265.039807 
L 161.362298 259.734573 
L 161.911505 255.173881 
L 162.098182 254.655861 
L 162.114415 254.663155 
L 162.214516 254.874574 
L 162.855709 257.495164 
L 163.30752 261.812054 
L 164.936204 278.110199 
L 164.938909 278.109752 
L 164.998429 277.970449 
L 165.344727 277.089637 
L 165.350138 277.091331 
L 165.474589 277.254315 
L 165.704553 278.026691 
L 165.731607 278.067748 
L 165.788422 277.928394 
L 166.061673 277.345866 
L 166.064378 277.346645 
L 166.186124 277.500589 
L 166.413382 278.250621 
L 166.954473 281.022863 
L 167.070807 281.524145 
L 167.130327 281.382754 
L 167.530735 280.22877 
L 167.663302 280.360386 
L 167.820218 280.677756 
L 167.879738 280.523988 
L 168.372131 278.909886 
L 168.374836 278.910601 
L 168.439767 278.908236 
L 168.456 278.833116 
L 168.602095 277.396786 
L 168.918633 274.685569 
L 169.053905 273.792695 
L 169.635578 269.824651 
L 169.724858 269.846808 
L 169.746502 269.877186 
L 169.7952 269.90173 
L 169.841193 269.819494 
L 170.12256 269.200978 
L 170.171258 269.243538 
L 170.314647 269.629612 
L 170.525673 270.527465 
L 170.585193 270.2525 
L 170.739404 267.583332 
L 171.16416 261.813654 
L 171.418473 260.166712 
L 171.634909 259.687609 
L 172.216582 255.405098 
L 172.424902 254.870091 
L 172.446545 254.882247 
L 172.552058 255.126238 
L 172.754967 256.292518 
L 173.791156 263.24028 
L 174.518924 267.248422 
L 174.591971 267.169755 
L 174.697484 266.577939 
L 175.068131 262.888353 
L 175.528058 257.78546 
L 175.620044 257.694161 
L 175.663331 257.739072 
L 175.798604 258.175179 
L 176.063738 259.940155 
L 176.296407 260.950947 
L 176.458735 261.45003 
L 176.72928 263.190282 
L 177.346124 269.004565 
L 177.687011 271.877375 
L 177.733004 271.784694 
L 178.054953 270.825444 
L 178.106356 270.868405 
L 178.249745 271.258624 
L 178.568989 272.821964 
L 178.658269 272.416299 
L 179.037033 270.43624 
L 179.13984 270.462341 
L 179.153367 270.481108 
L 179.312989 270.923248 
L 179.559185 271.486565 
L 179.570007 271.479444 
L 179.640349 271.230128 
L 179.891956 269.29321 
L 180.27072 265.934653 
L 180.435753 265.583942 
L 180.457396 265.593917 
L 180.519622 265.575278 
L 180.543971 265.525262 
L 180.890269 264.365433 
L 181.036364 262.817084 
L 181.258211 261.756014 
L 181.344785 261.841109 
L 181.498996 262.467229 
L 182.053615 264.964172 
L 182.17536 265.17188 
L 182.237585 265.040899 
L 182.421556 264.180208 
L 182.997818 260.087746 
L 183.12768 259.854868 
L 183.162851 259.88113 
L 183.21696 259.918963 
L 183.257542 259.829929 
L 183.409047 258.853014 
L 183.682298 255.950985 
L 184.182807 246.411324 
L 184.58592 243.079238 
L 184.867287 241.817673 
L 185.705978 238.700333 
L 186.201076 233.303027 
L 186.293062 232.592572 
L 186.493265 225.801696 
L 186.777338 209.652204 
L 186.880145 189.547257 
L 186.915316 126.622773 
L 186.939665 54.309552 
L 187.015418 167.74374 
L 187.161513 243.463817 
L 187.337367 258.183561 
L 187.448291 258.933876 
L 187.488873 258.88013 
L 187.62144 258.271248 
L 187.983971 256.430164 
L 188.084073 256.503939 
L 188.238284 257.040128 
L 188.33568 257.344061 
L 188.397905 257.274254 
L 188.814545 256.712106 
L 188.87136 256.789861 
L 189.025571 257.360026 
L 189.320465 259.482391 
L 189.658647 261.463631 
L 189.788509 261.654135 
L 189.842618 261.537208 
L 190.132102 260.167284 
L 190.413469 258.905542 
L 190.586618 258.728962 
L 190.792233 257.020021 
L 191.382022 250.358407 
L 191.682327 247.794484 
L 191.771607 247.696481 
L 191.8176 247.742416 
L 191.955578 248.163468 
L 192.209891 249.427992 
L 192.285644 249.159573 
L 192.47232 247.319851 
L 192.699578 241.462886 
L 193.035055 235.83406 
L 193.570735 229.410699 
L 193.922444 221.041974 
L 194.203811 208.573104 
L 194.325556 191.940121 
L 194.374255 141.829959 
L 194.404015 67.5083 
L 194.474356 174.229923 
L 194.625862 238.078318 
L 194.815244 252.539104 
L 195.037091 255.834483 
L 195.183185 256.05957 
L 195.199418 256.054468 
L 195.380684 255.867182 
L 195.510545 255.131428 
L 195.756742 251.514985 
L 196.027287 249.47343 
L 196.154444 249.320389 
L 196.189615 249.345874 
L 196.319476 249.657616 
L 196.527796 250.315832 
L 196.600844 250.259242 
L 196.822691 249.921953 
L 197.08512 248.621004 
L 197.423302 244.404054 
L 197.699258 239.354617 
L 198.03744 222.613378 
L 198.221411 202.684835 
L 198.27552 166.151698 
L 198.307985 45.014408 
L 198.386444 157.982531 
L 198.535244 251.626087 
L 198.69216 263.411363 
L 198.713804 263.446045 
L 198.765207 263.268362 
L 198.935651 261.614253 
L 199.211607 255.798289 
L 199.774342 245.515928 
L 200.2992 237.963789 
L 201.3408 226.070469 
L 201.635695 220.807582 
L 201.854836 211.57458 
L 201.979287 195.608345 
L 202.027985 156.431052 
L 202.060451 58.550409 
L 202.133498 163.27903 
L 202.282298 237.621397 
L 202.466269 252.421257 
L 202.682705 254.563984 
L 202.73952 254.612614 
L 202.793629 254.54971 
L 203.150749 253.69698 
L 203.367185 252.321824 
L 203.699956 250.674298 
L 203.824407 250.616232 
L 203.851462 250.638371 
L 204.051665 250.833946 
L 204.094953 250.735712 
L 204.203171 249.968915 
L 205.163607 239.356078 
L 205.674938 232.242455 
L 206.9952 222.1156 
L 207.268451 216.323687 
L 207.463244 207.170584 
L 207.568756 189.92477 
L 207.612044 135.712605 
L 207.641804 63.306204 
L 207.714851 168.904324 
L 207.866356 233.438889 
L 208.077382 252.323147 
L 208.369571 260.265972 
L 208.653644 262.580819 
L 208.756451 262.949859 
L 208.815971 262.878436 
L 209.04864 262.618575 
L 209.072989 262.637653 
L 209.221789 262.84789 
L 209.273193 262.690167 
L 209.443636 261.348557 
L 209.808873 258.425991 
L 209.908975 257.424576 
L 210.344553 252.992389 
L 210.717905 251.460718 
L 210.836945 251.360378 
L 210.872116 251.39071 
L 211.007389 251.737806 
L 211.258996 253.136098 
L 211.800087 257.719639 
L 212.219433 261.332154 
L 212.284364 261.14445 
L 212.627956 260.051882 
L 212.744291 259.607257 
L 212.88768 257.488313 
L 215.314473 216.664157 
L 215.598545 212.080961 
L 215.820393 204.61975 
L 215.950255 191.616542 
L 216.015185 156.191797 
L 216.053062 89.891507 
L 216.115287 168.260393 
L 216.266793 222.258115 
L 216.48864 239.1708 
L 216.759185 245.334669 
L 217.032436 248.006124 
L 217.070313 247.956916 
L 217.17312 247.470446 
L 217.779142 241.233739 
L 218.168727 236.142862 
L 218.782865 229.145146 
L 219.01824 228.030077 
L 219.250909 223.787919 
L 219.55392 212.858671 
L 219.70272 198.750272 
L 219.764945 166.679589 
L 219.805527 60.36214 
L 219.875869 162.105363 
L 220.024669 235.478777 
L 220.232989 256.257897 
L 220.503535 263.224739 
L 220.779491 265.696018 
L 220.890415 265.646582 
L 221.19072 265.151256 
L 221.604655 261.360038 
L 221.929309 253.381154 
L 222.29184 245.053991 
L 222.862691 235.317381 
L 224.093673 205.950039 
L 224.220829 192.310231 
L 224.280349 158.204181 
L 224.318225 83.923015 
L 224.380451 169.975666 
L 224.531956 229.420615 
L 224.73216 244.002068 
L 225.067636 250.893636 
L 225.687185 259.365979 
L 226.244509 264.392583 
L 226.444713 264.469944 
L 226.688204 264.51642 
L 226.837004 264.72848 
L 226.882996 264.555034 
L 227.245527 261.564986 
L 227.578298 259.468152 
L 227.683811 259.381915 
L 227.727098 259.409089 
L 227.85696 259.355066 
L 228.116684 258.830546 
L 228.311476 257.389219 
L 228.641542 255.153281 
L 228.741644 254.717115 
L 229.242153 252.171089 
L 229.358487 252.157492 
L 229.380131 252.180019 
L 229.52352 252.222134 
L 229.545164 252.200622 
L 229.904989 251.649345 
L 230.632756 246.806951 
L 230.908713 244.832389 
L 231.01152 244.729255 
L 231.052102 244.765744 
L 231.19008 245.152307 
L 231.21984 245.211837 
L 231.271244 245.043441 
L 231.436276 243.397007 
L 231.823156 237.572176 
L 232.640204 228.295594 
L 232.813353 227.86706 
L 232.832291 227.876407 
L 232.932393 228.093785 
L 233.06496 228.356365 
L 233.110953 228.314822 
L 233.432902 227.869611 
L 233.495127 227.949964 
L 233.646633 228.48125 
L 233.944233 230.586874 
L 234.217484 231.973014 
L 234.274298 231.964172 
L 234.304058 231.90789 
L 234.471796 231.115747 
L 234.672 230.637502 
L 234.685527 230.642831 
L 234.782924 230.828479 
L 234.953367 231.752021 
L 235.272611 235.002811 
L 235.781236 238.846315 
L 235.870516 238.945474 
L 235.919215 238.903595 
L 236.111302 238.496409 
L 236.292567 235.958127 
L 236.655098 232.108266 
L 236.820131 231.721121 
L 236.84448 231.734318 
L 236.949993 231.984833 
L 237.14208 233.158151 
L 237.480262 236.861248 
L 238.072756 243.913613 
L 238.121455 243.803311 
L 238.251316 242.740786 
L 238.786996 237.141237 
L 238.976378 236.517992 
L 239.079185 235.39927 
L 239.604044 225.479379 
L 239.974691 212.462327 
L 240.128902 198.404063 
L 240.191127 169.186535 
L 240.231709 63.087469 
L 240.302051 162.354412 
L 240.450851 235.254831 
L 240.659171 256.104305 
L 240.954065 264.267916 
L 241.251665 267.689148 
L 241.625018 269.323774 
L 242.195869 272.69483 
L 242.249978 272.626636 
L 242.598982 271.924904 
L 242.661207 271.98702 
L 242.823535 272.445337 
L 243.12384 274.105863 
L 243.675753 277.074383 
L 243.892189 277.56479 
L 244.211433 278.991504 
L 244.419753 279.923925 
L 244.471156 279.794001 
L 244.571258 278.6607 
L 244.887796 271.463823 
L 245.274676 264.112647 
L 245.499229 262.855137 
L 245.56416 262.860647 
L 245.596625 262.910646 
L 245.729193 263.117202 
L 245.794124 263.06092 
L 246.172887 262.560303 
L 246.313571 261.881903 
L 246.84384 257.994103 
L 247.4688 254.330794 
L 247.495855 254.344317 
L 247.531025 254.37389 
L 247.560785 254.269954 
L 247.698764 252.801093 
L 248.231738 246.425768 
L 248.30208 246.525133 
L 248.437353 246.988437 
L 248.507695 246.782944 
L 248.71872 246.257504 
L 248.743069 246.271941 
L 248.851287 246.520244 
L 249.051491 247.671639 
L 249.4032 250.213102 
L 249.478953 250.098214 
L 249.633164 249.426977 
L 250.417745 245.174755 
L 250.512436 245.32197 
L 250.68288 246.150563 
L 251.597324 251.48278 
L 251.727185 251.683615 
L 251.913862 252.516309 
L 252.308858 254.226207 
L 252.652451 254.724756 
L 252.893236 255.939772 
L 253.328815 259.525683 
L 253.804975 263.22245 
L 253.832029 263.208471 
L 253.878022 263.01838 
L 254.024116 260.850715 
L 254.381236 256.676776 
L 254.489455 255.619976 
L 254.781644 253.239078 
L 254.9088 252.049447 
L 255.509411 245.670159 
L 255.571636 245.665712 
L 255.609513 245.721685 
L 255.68256 245.921191 
L 255.728553 245.715657 
L 256.618647 240.834935 
L 256.718749 240.536436 
L 257.083985 239.30043 
L 257.105629 239.311463 
L 257.17056 239.341779 
L 257.205731 239.258525 
L 257.457338 238.575425 
L 257.508742 238.631369 
L 257.641309 239.113548 
L 257.882095 241.004735 
L 258.412364 247.364621 
L 258.731607 250.03595 
L 259.16448 252.363843 
L 259.502662 254.394203 
L 259.646051 254.784286 
L 259.6704 254.748016 
L 259.751564 254.156567 
L 260.357585 248.634105 
L 260.446865 248.672494 
L 260.460393 248.69489 
L 260.611898 249.205283 
L 260.833745 250.566479 
L 260.882444 249.992201 
L 261.163811 241.68053 
L 261.566924 234.024153 
L 261.761716 233.373334 
L 261.859113 233.245489 
L 262.067433 232.002941 
L 262.535476 229.156172 
L 262.540887 229.157422 
L 262.627462 229.304546 
L 262.784378 230.148161 
L 263.2416 234.477645 
L 263.801629 239.160406 
L 263.869265 239.196309 
L 263.907142 239.129578 
L 264.050531 238.351755 
L 264.31296 237.404295 
L 264.40224 237.507818 
L 264.553745 238.157707 
L 264.791825 239.104644 
L 264.81888 239.095054 
L 265.108364 238.823436 
L 265.936233 234.127854 
L 266.298764 230.301609 
L 266.393455 230.149529 
L 266.439447 230.206069 
L 266.561193 230.728641 
L 267.118516 234.417149 
L 267.597382 239.017542 
L 267.800291 239.82093 
L 267.838167 239.789615 
L 268.130356 239.375852 
L 268.197993 239.478667 
L 268.501004 240.342315 
L 268.590284 240.12392 
L 268.944698 238.338381 
L 269.596713 232.452959 
L 269.867258 230.528238 
L 270.013353 229.9837 
L 270.613964 226.314933 
L 270.743825 226.116872 
L 270.781702 226.152483 
L 270.892625 226.530899 
L 271.084713 228.145927 
L 271.414778 233.161214 
L 272.101964 243.635315 
L 272.156073 243.649463 
L 272.210182 243.598225 
L 272.334633 243.579114 
L 272.356276 243.606603 
L 272.40768 243.67875 
L 272.459084 243.566397 
L 272.878429 242.548401 
L 272.902778 242.562982 
L 273.016407 242.817219 
L 273.216611 243.950805 
L 274.331258 253.24144 
L 275.20512 262.145142 
L 275.251113 262.066282 
L 275.359331 261.366479 
L 276.325178 252.285408 
L 276.449629 252.080475 
L 276.487505 252.111261 
L 276.609251 252.466628 
L 276.847331 254.002504 
L 277.361367 259.101722 
L 278.175709 266.863642 
L 278.183825 266.861295 
L 278.273105 266.692078 
L 278.546356 266.200136 
L 278.562589 266.20832 
L 278.684335 266.423723 
L 278.816902 266.839192 
L 278.884538 266.661181 
L 279.025222 265.68655 
L 279.271418 264.488125 
L 279.355287 264.536635 
L 279.366109 264.556593 
L 279.52032 265.115846 
L 280.045178 267.206667 
L 280.334662 268.832151 
L 280.951505 272.337915 
L 281.084073 272.486329 
L 281.119244 272.333407 
L 281.208524 270.857024 
L 281.673862 262.995778 
L 282.545018 254.603609 
L 282.869673 254.037019 
L 282.937309 254.136942 
L 283.132102 254.252998 
L 283.324189 254.635379 
L 283.370182 254.380113 
L 283.759767 251.96451 
L 284.181818 251.195093 
L 284.346851 249.592559 
L 284.590342 248.214737 
L 284.657978 248.257007 
L 284.674211 248.29066 
L 284.814895 248.903568 
L 285.096262 251.330504 
L 285.5616 255.054521 
L 285.821324 256.470255 
L 286.227142 260.23597 
L 286.589673 262.800989 
L 286.887273 264.189106 
L 287.087476 265.401862 
L 287.157818 265.199267 
L 287.274153 264.105317 
L 287.596102 261.20862 
L 287.690793 261.101367 
L 287.73408 261.1449 
L 287.866647 261.570864 
L 288.131782 263.332422 
L 288.353629 264.24306 
L 288.724276 264.815175 
L 288.778385 264.695353 
L 288.873076 263.926259 
L 289.25184 260.858981 
L 289.333004 260.80176 
L 289.378996 260.853446 
L 289.51968 261.324774 
L 289.849745 262.826582 
L 289.911971 262.68979 
L 290.060771 261.734176 
L 290.534225 258.128621 
L 290.73984 257.440694 
L 290.745251 257.441883 
L 290.834531 257.585209 
L 291.00768 258.408938 
L 291.48384 262.197026 
L 292.114211 267.671753 
L 292.22784 267.528231 
L 292.360407 266.835933 
L 292.566022 266.259236 
L 292.574138 266.261811 
L 292.671535 266.423271 
L 292.860916 267.284654 
L 293.255913 270.341945 
L 293.629265 272.667238 
L 293.848407 273.056786 
L 293.907927 272.932365 
L 294.056727 272.08085 
L 294.535593 266.414387 
L 294.938705 260.149167 
L 295.049629 259.93055 
L 295.092916 259.970846 
L 295.217367 260.38914 
L 295.433804 261.156216 
L 295.479796 261.125391 
L 295.704349 261.000268 
L 295.725993 261.025337 
L 295.793629 261.106421 
L 295.836916 261.000941 
L 296.340131 258.503176 
L 296.743244 256.133048 
L 296.754065 256.136533 
L 296.843345 256.306035 
L 297.021905 257.252841 
L 297.149062 257.76529 
L 297.195055 257.709628 
L 297.768611 256.608018 
L 297.811898 256.651983 
L 297.944465 257.075345 
L 298.196073 258.794926 
L 298.599185 262.364073 
L 298.672233 261.947683 
L 299.078051 257.084897 
L 299.462225 252.662958 
L 299.665135 252.102524 
L 299.675956 252.106646 
L 299.770647 252.286067 
L 299.951913 253.245659 
L 300.041193 253.645876 
L 300.098007 253.496169 
L 300.317149 252.049049 
L 300.966458 245.479854 
L 301.020567 245.544796 
L 301.461556 246.844942 
L 301.718575 248.998675 
L 302.294836 256.223898 
L 302.670895 259.774989 
L 303.117295 260.873272 
L 303.606982 262.910317 
L 303.734138 263.13497 
L 303.937047 264.068182 
L 304.321222 267.108136 
L 304.608 268.721864 
L 304.883956 269.320536 
L 304.93536 269.148139 
L 305.108509 267.510508 
L 305.790284 260.021689 
L 305.868742 259.962448 
L 305.914735 260.016193 
L 306.055418 260.507868 
L 306.336785 262.478666 
L 307.075375 267.84461 
L 307.205236 268.09492 
L 307.427084 269.13867 
L 307.876189 272.572938 
L 308.373993 276.150493 
L 308.403753 276.141126 
L 308.598545 276.167506 
L 308.771695 276.575706 
L 308.898851 276.844684 
L 308.95296 276.794422 
L 309.185629 276.628093 
L 309.199156 276.639361 
L 309.350662 276.933678 
L 309.629324 278.07118 
L 310.465309 282.834537 
L 310.597876 283.416647 
L 310.654691 283.277328 
L 311.371636 279.703606 
L 311.801804 270.21042 
L 312.093993 266.134199 
L 312.415942 264.936574 
L 312.513338 264.888983 
L 312.551215 264.929278 
L 312.691898 265.33855 
L 312.957033 266.941255 
L 313.057135 267.36381 
L 313.113949 267.2979 
L 313.281687 267.139976 
L 313.314153 267.168724 
L 313.449425 267.515511 
L 313.652335 268.382871 
L 313.736204 268.179818 
L 313.92288 266.906993 
L 314.177193 265.866892 
L 314.274589 265.944862 
L 314.639825 266.609696 
L 314.699345 266.550725 
L 314.8752 266.134256 
L 315.237731 264.505857 
L 315.26208 264.517271 
L 315.373004 264.745341 
L 315.586735 265.818067 
L 316.016902 269.359523 
L 316.522822 273.328153 
L 316.549876 273.31986 
L 316.817716 273.079799 
L 316.909702 271.801186 
L 317.615825 259.34076 
L 317.845789 258.669033 
L 317.875549 258.689773 
L 317.986473 258.99712 
L 318.205615 260.418035 
L 318.873862 265.376796 
L 318.911738 265.366553 
L 319.057833 265.434232 
L 319.212044 265.912515 
L 319.447418 266.989858 
L 319.544815 266.889296 
L 319.655738 266.874542 
L 319.680087 266.904706 
L 319.820771 267.323895 
L 320.085905 268.982097 
L 320.510662 272.228415 
L 320.583709 271.980073 
L 320.902953 270.814135 
L 320.905658 270.814761 
L 321.008465 270.959705 
L 321.135622 271.239616 
L 321.200553 271.143758 
L 321.722705 269.799032 
L 322.023011 268.533721 
L 322.120407 268.577352 
L 322.131229 268.59521 
L 322.637149 269.728391 
L 322.758895 269.96166 
L 322.804887 269.855134 
L 323.170124 268.478864 
L 323.240465 268.552311 
L 323.400087 269.067702 
L 323.600291 269.99234 
L 323.678749 269.824784 
L 323.897891 269.406121 
L 323.92224 269.420692 
L 324.04128 269.678013 
L 324.265833 270.825293 
L 324.333469 270.967411 
L 324.395695 270.933814 
L 324.525556 270.982328 
L 324.674356 271.426609 
L 324.955724 273.129167 
L 325.656436 278.589033 
L 325.772771 278.342648 
L 325.986502 278.05002 
L 325.994618 278.053582 
L 326.121775 278.243655 
L 326.24352 278.534221 
L 326.30304 278.392972 
L 326.454545 277.358682 
L 328.150865 261.584006 
L 328.221207 261.548539 
L 328.264495 261.602688 
L 328.405178 262.108105 
L 328.686545 264.134316 
L 328.911098 265.834267 
L 328.967913 265.641819 
L 329.316916 264.066126 
L 329.343971 264.080828 
L 329.454895 264.334011 
L 330.063622 266.412349 
L 330.106909 266.258443 
L 330.43968 264.736802 
L 330.474851 264.75139 
L 330.610124 264.697105 
L 330.907724 264.215338 
L 330.956422 264.264445 
L 331.105222 264.683382 
L 331.259433 265.397028 
L 331.335185 265.159548 
L 331.529978 264.700467 
L 331.551622 264.712253 
L 331.65984 264.949132 
L 332.133295 266.531976 
L 332.190109 266.391263 
L 332.49312 265.446063 
L 332.525585 265.467215 
L 332.658153 265.654179 
L 332.714967 265.518231 
L 332.982807 264.84349 
L 333.015273 264.866682 
L 333.139724 265.175024 
L 333.467084 266.290768 
L 333.515782 266.164546 
L 333.870196 264.585985 
L 333.935127 264.653384 
L 334.083927 265.173755 
L 334.384233 266.104985 
L 334.579025 266.942089 
L 334.944262 269.73165 
L 335.628742 274.82118 
L 335.650385 274.816748 
L 335.680145 274.723634 
L 335.899287 273.139936 
L 336.118429 272.511394 
L 336.221236 272.623415 
L 336.394385 273.085084 
L 336.467433 272.898263 
L 337.027462 269.902451 
L 337.457629 267.17588 
L 337.601018 266.907527 
L 337.630778 266.925534 
L 337.749818 267.204989 
L 337.985193 268.46521 
L 338.518167 272.837056 
L 339.1296 277.284324 
L 339.251345 277.198776 
L 339.502953 276.772191 
L 339.862778 275.225063 
L 339.979113 275.292357 
L 340.154967 275.779733 
L 340.52832 277.29647 
L 340.6176 277.121838 
L 341.069411 275.454213 
L 341.231738 275.572487 
L 341.423825 276.091096 
L 341.737658 277.202788 
L 341.818822 277.143835 
L 342.043375 276.818025 
L 342.468131 275.526903 
L 342.64128 275.586319 
L 342.725149 275.672431 
L 342.771142 275.571353 
L 343.220247 274.087841 
L 343.296 274.15985 
L 343.469149 274.647356 
L 343.80192 276.394305 
L 343.86144 276.680354 
L 343.923665 276.46655 
L 344.06976 275.081946 
L 344.767767 267.325983 
L 344.878691 267.137369 
L 344.921978 267.176064 
L 345.05184 267.582634 
L 345.31968 269.31887 
L 346.366691 276.804931 
L 346.372102 276.801972 
L 346.439738 276.547165 
L 346.702167 275.795403 
L 346.80768 275.922958 
L 346.934836 276.279039 
L 346.988945 276.054924 
L 347.427229 272.41792 
L 348.109004 261.679368 
L 348.276742 261.099999 
L 348.29568 261.109013 
L 348.390371 261.329412 
L 348.587869 262.491335 
L 349.055913 266.943842 
L 349.385978 268.643869 
L 349.87296 270.591248 
L 349.940596 270.680826 
L 349.983884 270.570184 
L 350.189498 269.125168 
L 350.470865 268.091501 
L 350.576378 268.161335 
L 350.700829 268.47797 
L 350.754938 268.271091 
L 351.323084 265.220373 
L 351.36096 265.248279 
L 351.482705 265.592538 
L 351.810065 267.106357 
L 351.885818 266.829767 
L 352.121193 264.374519 
L 353.073513 255.930153 
L 353.273716 253.399121 
L 353.633542 249.982152 
L 353.744465 249.729876 
L 353.787753 249.776232 
L 353.906793 250.253838 
L 354.626444 255.194852 
L 355.321745 263.235864 
L 355.757324 267.26294 
L 356.027869 267.406849 
L 356.333585 268.177094 
L 356.393105 267.986784 
L 356.704233 266.864275 
L 356.723171 266.873035 
L 356.831389 267.0873 
L 357.042415 268.129073 
L 357.49152 271.729961 
L 357.778298 273.310465 
L 357.837818 273.378737 
L 357.891927 273.298486 
L 357.992029 272.747473 
L 358.863185 265.755019 
L 358.984931 264.93765 
L 359.369105 258.217273 
L 359.861498 250.508119 
L 359.945367 250.38209 
L 359.994065 250.440286 
L 360.094167 250.708464 
L 360.164509 250.551915 
L 360.483753 249.406687 
L 360.58656 249.623335 
L 360.767825 250.755026 
L 361.146589 254.841332 
L 361.473949 257.509317 
L 361.7472 259.102727 
L 362.012335 259.992582 
L 362.025862 259.987968 
L 362.079971 259.834026 
L 362.556131 256.63648 
L 362.815855 255.184425 
L 362.883491 255.21578 
L 362.905135 255.257137 
L 362.956538 255.323324 
L 363.016058 255.235506 
L 363.167564 255.08104 
L 363.202735 255.113935 
L 363.273076 255.234026 
L 363.329891 255.10505 
L 363.47328 254.873233 
L 363.513862 254.910684 
L 363.635607 255.301428 
L 364.111767 257.046776 
L 364.298444 257.955654 
L 364.690735 261.148257 
L 364.84224 260.829482 
L 365.183127 260.494062 
L 365.215593 260.532221 
L 365.291345 260.566818 
L 365.337338 260.515674 
L 365.494255 260.409472 
L 365.524015 260.440053 
L 365.624116 260.524279 
L 365.672815 260.46367 
L 365.88384 259.824003 
L 366.249076 257.257557 
L 366.332945 257.351552 
L 366.487156 258.005121 
L 366.8064 260.542002 
L 367.177047 262.98966 
L 367.374545 263.723805 
L 367.447593 263.597262 
L 367.664029 263.242152 
L 367.691084 263.26111 
L 367.815535 263.546457 
L 368.050909 264.784282 
L 368.137484 265.00053 
L 368.191593 264.94447 
L 368.283578 264.551302 
L 369.019462 260.716815 
L 369.119564 260.789731 
L 369.273775 261.330654 
L 369.54432 262.483544 
L 369.601135 262.396441 
L 369.942022 261.558596 
L 370.004247 261.623609 
L 370.158458 262.099569 
L 370.445236 263.854853 
L 371.078313 269.453819 
L 371.573411 273.73318 
L 371.630225 273.637301 
L 372.0144 272.917092 
L 372.141556 272.694023 
L 372.485149 271.070848 
L 372.585251 271.163895 
L 372.761105 271.7505 
L 373.123636 273.901876 
L 373.588975 277.038772 
L 373.656611 276.82111 
L 373.77024 275.582465 
L 374.635985 263.997104 
L 375.1392 262.463149 
L 375.141905 262.463895 
L 375.233891 262.610329 
L 375.46656 262.939052 
L 375.61536 263.122874 
L 375.799331 263.829326 
L 376.12128 266.139649 
L 376.38912 267.441228 
L 377.000553 270.043855 
L 377.068189 269.767732 
L 377.360378 266.865054 
L 377.958284 261.192763 
L 378.169309 260.470922 
L 378.258589 260.592856 
L 378.410095 261.089621 
L 378.50208 260.919007 
L 378.618415 260.810288 
L 378.656291 260.846649 
L 378.783447 261.230959 
L 379.029644 262.85282 
L 379.072931 262.973712 
L 379.143273 262.873936 
L 379.359709 262.261261 
L 379.797993 260.473752 
L 380.098298 258.208988 
L 380.160524 258.184218 
L 380.203811 258.243092 
L 380.336378 258.696339 
L 380.398604 258.396322 
L 381.074967 254.218128 
L 381.148015 254.137612 
L 381.202124 254.191673 
L 381.285993 254.173874 
L 381.310342 254.137372 
L 381.561949 253.752839 
L 381.613353 253.816536 
L 381.754036 254.324717 
L 382.019171 255.411626 
L 382.057047 255.330416 
L 382.322182 254.475659 
L 382.384407 254.55144 
L 382.525091 255.12267 
L 382.803753 257.394179 
L 383.831825 266.531099 
L 383.972509 266.527659 
L 384.151069 266.652652 
L 384.318807 267.212474 
L 384.827433 269.088093 
L 384.935651 269.218873 
L 384.984349 269.103776 
L 385.122327 268.263424 
L 385.395578 266.906002 
L 385.476742 266.943197 
L 385.492975 266.97154 
L 385.64448 267.510981 
L 385.952902 269.613737 
L 386.163927 270.427391 
L 386.32896 270.625006 
L 386.521047 271.354348 
L 386.577862 271.549246 
L 386.631971 271.348132 
L 386.832175 269.16525 
L 387.235287 265.303296 
L 387.497716 264.163795 
L 387.676276 263.948256 
L 387.922473 263.175052 
L 387.938705 263.182171 
L 388.041513 263.390809 
L 388.241716 264.444411 
L 388.523084 265.617393 
L 388.73952 266.282193 
L 388.796335 265.98634 
L 389.277905 261.861491 
L 389.337425 261.923986 
L 389.45376 262.158433 
L 389.521396 262.052296 
L 389.864989 261.583655 
L 389.875811 261.590185 
L 389.992145 261.810423 
L 390.192349 262.78233 
L 390.784844 266.474592 
L 390.857891 266.365762 
L 391.041862 266.109877 
L 391.074327 266.134895 
L 391.201484 266.450827 
L 391.480145 267.726286 
L 391.547782 267.336234 
L 391.899491 265.208688 
L 391.980655 265.245017 
L 391.996887 265.273184 
L 392.148393 265.813522 
L 392.524451 267.494466 
L 392.575855 267.391432 
L 392.81664 266.17879 
L 393.365847 261.511136 
L 393.796015 259.507233 
L 393.888 259.399091 
L 393.933993 259.45092 
L 394.085498 259.87029 
L 394.180189 259.680089 
L 394.374982 258.960306 
L 394.713164 257.317885 
L 394.799738 257.433383 
L 394.964771 258.158347 
L 395.79264 262.487464 
L 395.936029 262.846918 
L 396.257978 263.634307 
L 396.309382 263.697331 
L 396.363491 263.610976 
L 396.663796 262.957077 
L 396.712495 263.002828 
L 396.850473 263.408182 
L 397.118313 264.576106 
L 397.19136 264.393814 
L 397.497076 263.359506 
L 397.534953 263.386022 
L 397.656698 263.708168 
L 397.892073 265.100872 
L 398.384465 267.953611 
L 398.465629 268.288241 
L 398.487273 268.265494 
" clip-path="url(#p7321e6e461)" style="fill: none; stroke: #000000; stroke-width: 1.5; stroke-linecap: square"/>
   </g>
   <g id="line2d_17">
    <path d="M 73.832727 280.9728 
L 73.976116 282.671222 
L 74.108684 283.066085 
L 74.149265 283.022025 
L 74.252073 282.59978 
L 74.676829 280.692603 
L 74.793164 280.760026 
L 74.971724 281.24572 
L 75.139462 281.754826 
L 75.201687 281.679189 
L 75.428945 281.450157 
L 75.447884 281.463732 
L 75.585862 281.624282 
L 75.639971 281.487803 
L 75.913222 280.881885 
L 75.926749 280.887528 
L 76.0512 281.081571 
L 76.256815 281.675627 
L 76.335273 281.507797 
L 76.521949 280.221603 
L 76.933178 278.212503 
L 77.073862 278.062387 
L 77.103622 278.080972 
L 77.293004 278.096849 
L 77.909847 277.765893 
L 77.934196 277.807444 
L 78.131695 278.416801 
L 78.380596 279.211679 
L 78.429295 279.189995 
L 78.591622 279.230751 
L 78.648436 279.308228 
L 78.689018 279.181636 
L 78.994735 278.172538 
L 79.010967 278.179305 
L 79.08672 278.249996 
L 79.111069 278.124848 
L 79.557469 274.823881 
L 79.616989 274.876139 
L 79.763084 275.332952 
L 80.0688 277.191686 
L 80.201367 277.768855 
L 80.255476 277.739218 
L 80.393455 277.52606 
L 80.701876 276.416064 
L 80.709993 276.418315 
L 80.815505 276.577007 
L 81.02112 277.407939 
L 81.52704 280.151945 
L 81.610909 279.9207 
L 81.984262 278.703522 
L 82.100596 278.846701 
L 82.200698 279.094125 
L 82.257513 278.925692 
L 82.473949 277.48339 
L 82.722851 276.410029 
L 82.814836 276.441688 
L 82.831069 276.466658 
L 82.993396 276.968214 
L 83.347811 278.740343 
L 83.480378 278.569783 
L 83.591302 278.584355 
L 83.607535 278.605483 
L 83.767156 279.033554 
L 83.913251 279.532343 
L 83.983593 279.429113 
L 84.191913 279.209069 
L 84.208145 279.219339 
L 84.343418 279.463453 
L 84.597731 280.495162 
L 85.090124 282.92999 
L 85.173993 282.850845 
L 85.393135 282.747349 
L 85.555462 283.0012 
L 85.625804 283.153244 
L 85.674502 283.004895 
L 86.012684 281.929548 
L 86.134429 282.038083 
L 86.34816 282.630309 
L 86.870313 284.928553 
L 87.314007 286.831214 
L 87.362705 286.705586 
L 87.47904 285.458171 
L 87.974138 280.613895 
L 88.195985 279.983354 
L 88.331258 279.829169 
L 89.045498 277.799778 
L 89.077964 277.820092 
L 89.140189 277.877677 
L 89.183476 277.770444 
L 89.497309 277.070952 
L 89.62176 276.950183 
L 89.708335 276.628324 
L 90.078982 274.688919 
L 90.176378 274.793881 
L 90.354938 275.440459 
L 90.498327 275.7118 
L 90.522676 275.698715 
L 90.60384 275.444983 
L 90.912262 274.434487 
L 90.925789 274.439236 
L 91.034007 274.620084 
L 91.236916 275.15127 
L 91.31808 275.088497 
L 91.364073 274.925142 
L 91.799651 271.091291 
L 91.948451 267.813682 
L 92.221702 264.167254 
L 92.522007 262.592177 
L 92.573411 262.6481 
L 92.703273 263.151454 
L 93.106385 265.540873 
L 93.19296 265.283665 
L 93.387753 262.285183 
L 93.836858 256.836485 
L 93.890967 256.833279 
L 93.928844 256.894254 
L 94.101993 257.562354 
L 94.340073 258.119903 
L 94.359011 258.114539 
L 94.494284 258.190101 
L 94.835171 259.067927 
L 95.054313 260.130357 
L 95.132771 260.462934 
L 95.197702 260.336842 
L 95.406022 259.391159 
L 95.949818 256.229825 
L 96.022865 255.9556 
L 96.415156 254.354939 
L 96.431389 254.362124 
L 96.591011 254.556772 
L 96.655942 254.395165 
L 96.861556 253.975362 
L 96.894022 254.000984 
L 97.010356 254.330285 
L 97.232204 255.792586 
L 97.713775 260.818974 
L 97.849047 261.508706 
L 97.892335 261.451242 
L 98.022196 260.693069 
L 98.260276 259.859843 
L 98.349556 259.978837 
L 98.517295 260.702566 
L 98.806778 262.495124 
L 98.887942 262.248349 
L 99.20448 261.112998 
L 99.226124 261.123959 
L 99.334342 261.3538 
L 99.542662 262.451128 
L 99.962007 266.110215 
L 100.971142 275.628699 
L 101.025251 275.579429 
L 101.136175 275.213346 
L 101.385076 272.713866 
L 101.655622 271.231701 
L 102.018153 270.144043 
L 102.123665 270.303406 
L 102.15072 270.336255 
L 102.199418 270.194143 
L 102.897425 267.275044 
L 102.978589 267.258608 
L 103.01376 267.302944 
L 103.157149 267.761185 
L 103.378996 268.886398 
L 103.470982 268.695198 
L 103.641425 268.448429 
L 103.671185 268.470167 
L 103.792931 268.765632 
L 104.0256 270.046632 
L 104.206865 271.153252 
L 104.269091 270.970977 
L 105.026618 266.426509 
L 105.286342 265.200271 
L 105.3648 265.222651 
L 105.386444 265.257214 
L 105.535244 265.773561 
L 105.830138 267.780863 
L 107.028655 277.236683 
L 107.077353 277.159125 
L 107.201804 276.423904 
L 107.512931 273.116381 
L 107.986385 267.468385 
L 108.254225 266.779878 
L 108.354327 266.890847 
L 108.524771 267.524183 
L 108.6384 268.018483 
L 108.714153 267.923215 
L 108.938705 267.421358 
L 109.071273 267.261624 
L 109.106444 267.29114 
L 109.225484 267.441 
L 109.290415 267.349686 
L 109.428393 267.254801 
L 109.458153 267.282914 
L 109.59072 267.629085 
L 109.863971 269.141014 
L 110.618793 273.454439 
L 110.886633 274.376164 
L 111.021905 274.192874 
L 111.140945 274.175176 
L 111.162589 274.199397 
L 111.289745 274.334004 
L 111.338444 274.253947 
L 111.481833 273.426007 
L 111.730735 272.558958 
L 111.841658 272.629306 
L 112.020218 273.091621 
L 112.401687 274.077716 
L 112.550487 274.293174 
L 112.642473 274.464382 
L 112.688465 274.346596 
L 112.902196 272.835949 
L 113.021236 270.698171 
L 113.351302 265.941186 
L 113.513629 265.509601 
L 113.535273 265.5211 
L 113.640785 265.757058 
L 113.854516 266.908061 
L 114.32256 270.930545 
L 114.64992 272.998208 
L 114.877178 273.700416 
L 115.207244 275.688272 
L 115.526487 277.174494 
L 115.650938 277.276161 
L 115.696931 277.207633 
L 116.054051 276.254003 
L 116.313775 273.033125 
L 116.622196 269.480216 
L 116.76288 269.195622 
L 116.79264 269.215004 
L 116.91168 269.50816 
L 117.152465 270.839053 
L 117.807185 275.549631 
L 117.896465 275.233378 
L 118.183244 274.324572 
L 118.294167 274.415396 
L 118.356393 274.535572 
L 118.402385 274.395805 
L 118.553891 273.220807 
L 119.338473 266.925818 
L 119.427753 267.033183 
L 119.595491 267.722116 
L 119.9472 270.31963 
L 120.577571 275.7881 
L 120.653324 275.439883 
L 121.283695 271.462396 
L 121.4352 270.477558 
L 121.854545 266.527166 
L 121.943825 266.49921 
L 121.978996 266.534813 
L 122.11968 266.917638 
L 122.379404 268.414227 
L 122.974604 273.496011 
L 123.504873 277.314483 
L 123.759185 277.739678 
L 123.78624 277.460395 
L 123.978327 271.895782 
L 124.259695 267.305747 
L 124.430138 266.761968 
L 124.446371 266.768383 
L 124.543767 266.967046 
L 125.176844 269.451301 
L 125.855913 273.205124 
L 126.148102 274.744448 
L 126.892102 280.131046 
L 126.967855 279.390289 
L 127.695622 267.595966 
L 127.784902 267.704862 
L 127.933702 268.061638 
L 127.987811 267.915942 
L 128.363869 265.789981 
L 128.93472 256.377197 
L 129.072698 255.275617 
L 129.324305 253.595498 
L 129.378415 253.616236 
L 129.405469 253.670038 
L 129.543447 254.319511 
L 129.665193 255.054024 
L 129.746356 254.92674 
L 129.830225 254.872064 
L 129.873513 254.92694 
L 130.292858 256.01464 
L 130.495767 257.17508 
L 130.579636 256.958028 
L 130.69056 255.897337 
L 131.053091 252.966856 
L 131.174836 252.731223 
L 131.215418 252.768694 
L 131.334458 253.169706 
L 131.569833 254.913778 
L 131.767331 255.723238 
L 132.23808 256.701343 
L 132.470749 258.248031 
L 132.957731 263.340345 
L 133.274269 265.715749 
L 133.442007 266.315721 
L 133.531287 266.178527 
L 133.642211 266.109231 
L 133.680087 266.147755 
L 133.818065 266.550463 
L 133.937105 266.813923 
L 133.985804 266.79235 
L 134.123782 266.849001 
L 134.275287 267.306627 
L 134.551244 269.003528 
L 135.208669 274.234779 
L 135.287127 273.756522 
L 135.698356 270.954784 
L 136.244858 268.925591 
L 136.277324 268.935818 
L 136.401775 268.859583 
L 136.531636 268.140527 
L 137.097076 263.626728 
L 137.38656 260.59677 
L 137.500189 260.412546 
L 137.540771 260.449872 
L 138.003404 261.366561 
L 138.225251 262.452277 
L 138.341585 262.968702 
L 138.401105 262.87601 
L 138.671651 262.330205 
L 138.712233 262.364474 
L 138.847505 262.724748 
L 139.11264 263.323113 
L 139.264145 263.636472 
L 139.488698 264.753759 
L 139.918865 268.268424 
L 140.284102 270.623367 
L 140.508655 271.526074 
L 140.568175 271.395721 
L 141.252655 269.203521 
L 141.382516 269.247626 
L 141.544844 269.670936 
L 141.845149 270.365576 
L 142.039942 270.7857 
L 142.307782 272.023866 
L 142.846167 275.820788 
L 143.868829 282.807076 
L 143.909411 282.796797 
L 143.944582 282.731914 
L 144.239476 281.746172 
L 144.358516 279.807989 
L 144.831971 272.854402 
L 145.110633 271.006147 
L 145.224262 270.904542 
L 145.259433 270.933724 
L 145.397411 271.271532 
L 145.546211 271.696266 
L 145.613847 271.639987 
L 145.762647 271.613216 
L 145.776175 271.628353 
L 146.04672 272.000593 
L 146.10624 271.873544 
L 146.579695 269.932803 
L 146.993629 266.330827 
L 147.069382 266.301557 
L 147.109964 266.351681 
L 147.256058 266.83834 
L 147.548247 268.755015 
L 148.579025 276.048427 
L 148.811695 276.886785 
L 148.84416 276.958777 
L 148.898269 276.790903 
L 149.047069 275.434528 
L 149.406895 271.99359 
L 149.542167 270.774731 
L 149.856 268.251859 
L 149.942575 268.181205 
L 149.985862 268.227827 
L 150.126545 268.677445 
L 150.375447 269.788182 
L 150.448495 269.63975 
L 151.038284 268.039453 
L 151.149207 268.092384 
L 151.151913 268.09676 
L 151.306124 268.564269 
L 151.417047 268.982082 
L 151.484684 268.852402 
L 151.763345 267.701482 
L 151.922967 265.429628 
L 152.342313 258.233205 
L 152.442415 258.035958 
L 152.488407 258.085283 
L 152.639913 258.460613 
L 152.71296 258.293706 
L 152.948335 257.720481 
L 152.9808 257.744067 
L 153.097135 258.060095 
L 153.318982 259.465849 
L 153.657164 261.315712 
L 153.870895 261.798695 
L 153.96288 261.720452 
L 154.168495 261.512445 
L 154.195549 261.535309 
L 154.325411 261.853259 
L 154.552669 263.138983 
L 155.104582 267.184781 
L 155.193862 267.024458 
L 155.377833 265.894192 
L 155.607796 265.212449 
L 155.916218 264.389351 
L 156.316625 260.508238 
L 156.81984 256.406876 
L 156.822545 256.407289 
L 156.906415 256.53676 
L 157.041687 256.985757 
L 157.106618 256.777052 
L 157.439389 255.342375 
L 157.477265 255.370329 
L 157.531375 255.404101 
L 157.582778 255.327694 
L 158.034589 254.541052 
L 158.096815 254.609291 
L 158.223971 254.547841 
L 158.334895 254.631061 
L 158.480989 255.16075 
L 158.865164 256.590504 
L 159.108655 256.701622 
L 159.987927 259.547151 
L 160.266589 261.257018 
L 160.832029 266.271734 
L 160.92672 265.522694 
L 161.502982 257.567786 
L 162.08736 253.969691 
L 162.098182 253.973338 
L 162.192873 254.151128 
L 162.774545 256.381503 
L 163.142487 259.571134 
L 164.936204 277.246477 
L 164.993018 277.117182 
L 165.352844 276.166849 
L 165.363665 276.170728 
L 165.490822 276.348516 
L 165.731607 277.100612 
L 165.820887 276.836115 
L 166.061673 276.356698 
L 166.180713 276.49183 
L 166.294342 276.653493 
L 166.351156 276.585453 
L 166.637935 276.290858 
L 166.648756 276.297773 
L 166.805673 276.546017 
L 167.062691 277.308014 
L 167.138444 277.064459 
L 167.476625 275.939977 
L 167.595665 276.023128 
L 167.787753 276.538962 
L 168.182749 278.38708 
L 168.447884 279.748295 
L 168.51552 279.562611 
L 168.637265 278.420789 
L 169.635578 269.10594 
L 169.776262 269.087999 
L 169.846604 268.948132 
L 170.133382 268.242305 
L 170.163142 268.261269 
L 170.290298 268.537791 
L 170.522967 269.481156 
L 170.587898 269.170403 
L 170.761047 266.133256 
L 171.19392 260.476364 
L 171.429295 259.211061 
L 171.618676 258.942263 
L 172.322095 254.366419 
L 172.462778 254.167613 
L 172.497949 254.195595 
L 172.619695 254.533822 
L 172.852364 256.000779 
L 173.220305 258.063274 
L 173.471913 259.542408 
L 173.9616 264.099457 
L 174.429644 267.759258 
L 174.49728 267.807999 
L 174.545978 267.750323 
L 174.64608 267.346942 
L 174.905804 264.726659 
L 175.609222 257.590429 
L 175.644393 257.610597 
L 175.758022 257.895306 
L 175.98528 259.203382 
L 176.315345 260.814523 
L 176.477673 261.333783 
L 176.75904 263.159185 
L 177.451636 269.55753 
L 177.684305 271.280835 
L 177.730298 271.18041 
L 178.06848 270.095994 
L 178.117178 270.133578 
L 178.257862 270.496336 
L 178.568989 271.941315 
L 178.652858 271.555549 
L 179.047855 269.451399 
L 179.164189 269.502832 
L 179.469905 269.898966 
L 179.540247 269.817021 
L 179.621411 269.530049 
L 179.897367 267.187905 
L 180.203084 264.665682 
L 180.311302 264.538071 
L 180.351884 264.574489 
L 180.565615 264.99872 
L 180.681949 264.857291 
L 180.863215 264.530341 
L 181.012015 263.167817 
L 181.244684 261.937284 
L 181.315025 261.96709 
L 181.336669 262.006092 
L 181.485469 262.579714 
L 181.858822 264.875244 
L 181.994095 264.715948 
L 182.113135 264.699569 
L 182.137484 264.725701 
L 182.164538 264.724441 
L 182.199709 264.642141 
L 182.410735 263.562521 
L 183.000524 259.197063 
L 183.124975 258.981378 
L 183.162851 259.011038 
L 183.219665 259.051382 
L 183.260247 258.958807 
L 183.417164 257.950663 
L 183.682298 255.175128 
L 184.163869 246.231045 
L 184.572393 243.27124 
L 184.837527 242.319778 
L 185.067491 241.566088 
L 185.208175 241.313673 
L 185.243345 241.343214 
L 185.264989 241.355469 
L 185.313687 241.250433 
L 185.481425 240.95157 
L 185.519302 240.98658 
L 185.578822 241.019325 
L 185.613993 240.938131 
L 185.7168 239.895469 
L 186.144262 235.781457 
L 186.306589 234.775204 
L 186.571724 225.79704 
L 186.982953 206.110241 
L 187.107404 187.901053 
L 187.158807 133.708501 
L 187.185862 85.422626 
L 187.250793 183.989687 
L 187.41312 240.20008 
L 187.59168 249.577989 
L 187.759418 250.334083 
L 187.970444 250.678117 
L 188.184175 251.69832 
L 188.441193 252.621846 
L 188.619753 252.630109 
L 188.63328 252.607174 
L 188.776669 252.49293 
L 188.809135 252.524251 
L 188.938996 252.888779 
L 189.177076 254.367598 
L 189.726284 257.825689 
L 189.79392 257.937383 
L 189.848029 257.846696 
L 190.375593 256.422647 
L 190.445935 256.508767 
L 190.53792 256.651774 
L 190.583913 256.545462 
L 190.740829 255.479574 
L 191.138531 251.008496 
L 191.703971 245.786651 
L 191.771607 245.75373 
L 191.8176 245.814079 
L 191.958284 246.344622 
L 192.218007 247.827102 
L 192.29376 247.574318 
L 192.475025 245.835358 
L 192.721222 239.559364 
L 193.040465 234.601467 
L 193.670836 227.675681 
L 194.025251 220.319478 
L 194.620451 204.475806 
L 194.755724 190.416621 
L 194.826065 154.318701 
L 194.863942 105.733633 
L 194.920756 171.722788 
L 195.077673 223.138271 
L 195.291404 237.18629 
L 195.561949 242.504635 
L 195.732393 242.793427 
L 195.883898 243.092183 
L 196.100335 244.149793 
L 196.746938 247.843857 
L 196.776698 247.824112 
L 196.987724 247.428554 
L 197.128407 246.426063 
L 197.461178 242.477428 
L 197.688436 238.614117 
L 198.029324 223.313388 
L 198.251171 203.265243 
L 198.316102 174.332028 
L 198.356684 53.899309 
L 198.427025 164.959843 
L 198.57312 250.00491 
L 198.732742 261.690546 
L 198.759796 261.754359 
L 198.816611 261.567953 
L 198.951884 260.146249 
L 199.225135 254.169911 
L 199.777047 244.030253 
L 200.250502 237.56562 
L 201.57888 225.67556 
L 201.865658 219.701197 
L 202.068567 210.154018 
L 202.195724 193.071302 
L 202.247127 145.658799 
L 202.276887 68.304561 
L 202.347229 174.387117 
L 202.496029 238.884363 
L 202.677295 251.419207 
L 202.893731 253.588278 
L 203.091229 254.1483 
L 203.120989 254.127785 
L 203.234618 253.835839 
L 203.837935 251.408291 
L 203.873105 251.423684 
L 204.04896 251.456036 
L 204.065193 251.420876 
L 204.170705 250.79689 
L 205.163607 240.576468 
L 205.639767 234.721956 
L 206.088873 232.724803 
L 206.243084 232.031763 
L 206.513629 231.040736 
L 206.611025 231.119524 
L 206.662429 231.245786 
L 206.713833 231.085181 
L 207.222458 228.297878 
L 207.598516 224.423727 
L 208.310051 212.384471 
L 208.510255 204.110041 
L 208.634705 188.556837 
L 208.69152 148.086719 
L 208.726691 91.62883 
L 208.788916 171.118587 
L 208.943127 224.220274 
L 209.175796 242.842766 
L 209.457164 251.234794 
L 209.773702 254.117036 
L 209.849455 254.462529 
L 209.906269 254.278879 
L 210.666502 250.724415 
L 210.799069 250.58645 
L 210.831535 250.611407 
L 210.961396 250.929076 
L 211.196771 252.221954 
L 211.662109 256.276345 
L 212.211316 261.27269 
L 212.265425 261.112714 
L 212.82816 257.624594 
L 213.785891 242.414525 
L 214.029382 238.297501 
L 214.740916 227.660332 
L 215.08992 223.883923 
L 215.252247 223.530441 
L 215.273891 223.541296 
L 215.7744 224.08407 
L 216.177513 225.6033 
L 216.264087 225.438765 
L 216.415593 224.375691 
L 216.602269 221.094437 
L 216.883636 211.570823 
L 217.048669 198.584516 
L 217.121716 171.575037 
L 217.167709 73.477289 
L 217.235345 167.105629 
L 217.384145 230.290368 
L 217.592465 247.664618 
L 217.806196 251.030789 
L 217.971229 251.202753 
L 218.141673 251.363787 
L 218.174138 251.20364 
L 218.788276 246.794333 
L 218.790982 246.794706 
L 218.945193 246.749687 
L 218.950604 246.722902 
L 219.075055 245.431245 
L 219.483578 238.595208 
L 219.848815 235.008256 
L 219.921862 234.933439 
L 219.97056 234.999428 
L 220.100422 235.566094 
L 220.995927 240.515223 
L 221.142022 240.935745 
L 221.204247 240.799828 
L 221.491025 239.444037 
L 221.615476 238.234474 
L 221.891433 232.178132 
L 222.513687 207.593384 
L 222.632727 189.925473 
L 222.67872 143.005344 
L 222.70848 72.523757 
L 222.778822 179.035106 
L 222.933033 238.52212 
L 223.119709 250.64134 
L 223.309091 252.182928 
L 223.493062 252.321306 
L 223.506589 252.308986 
L 223.595869 251.997302 
L 224.058502 250.180722 
L 224.250589 249.163866 
L 224.664524 245.684487 
L 224.962124 242.918854 
L 225.075753 242.747741 
L 225.116335 242.782491 
L 225.243491 243.158839 
L 225.486982 244.721656 
L 225.973964 249.591571 
L 226.312145 252.132173 
L 226.612451 252.557107 
L 226.84512 253.083388 
L 226.910051 252.827375 
L 227.659462 248.397547 
L 227.705455 248.427699 
L 227.881309 248.449048 
L 228.116684 248.098367 
L 228.311476 246.876373 
L 228.649658 244.830669 
L 228.738938 244.452474 
L 229.239447 242.057694 
L 229.355782 242.102604 
L 229.358487 242.106585 
L 229.634444 242.327253 
L 229.785949 242.44885 
L 229.823825 242.508832 
L 229.872524 242.388915 
L 230.543476 239.569636 
L 230.889775 236.948379 
L 230.984465 236.866054 
L 231.027753 236.908783 
L 231.163025 237.324058 
L 231.230662 237.537366 
L 231.284771 237.377863 
L 231.455215 235.902588 
L 231.712233 232.140222 
L 233.075782 207.252055 
L 233.227287 197.016127 
L 233.313862 173.628632 
L 233.370676 94.230542 
L 233.430196 167.193382 
L 233.584407 222.188375 
L 233.825193 242.769925 
L 234.160669 254.253169 
L 234.3744 256.299581 
L 234.763985 257.264739 
L 235.075113 259.405833 
L 235.453876 261.647163 
L 235.662196 262.301383 
L 235.729833 262.190088 
L 235.897571 261.417101 
L 236.176233 258.868709 
L 236.571229 253.542571 
L 236.733556 253.14158 
L 236.757905 253.15396 
L 236.866124 253.398546 
L 237.077149 254.570037 
L 237.52896 258.649364 
L 237.997004 262.955486 
L 238.059229 262.867497 
L 238.156625 262.133334 
L 238.383884 258.539285 
L 238.673367 255.540484 
L 238.870865 255.22006 
L 239.025076 254.565911 
L 239.271273 250.626243 
L 239.912465 242.100004 
L 240.115375 241.263326 
L 240.123491 241.265221 
L 240.218182 241.428327 
L 240.480611 242.36635 
L 240.751156 244.400196 
L 242.182342 257.005446 
L 242.301382 257.148023 
L 242.333847 257.133668 
L 242.536756 257.143808 
L 242.685556 257.52754 
L 242.934458 258.918252 
L 243.410618 263.112421 
L 243.670342 264.571776 
L 244.008524 266.194635 
L 244.446807 268.966381 
L 244.517149 268.671755 
L 244.668655 266.373805 
L 245.491113 253.014592 
L 245.577687 252.935525 
L 245.62368 252.983151 
L 245.710255 253.054839 
L 245.758953 252.997246 
L 246.061964 252.735095 
L 246.254051 252.397687 
L 246.370385 251.459986 
L 246.765382 248.426544 
L 246.981818 246.774044 
L 247.449862 243.67428 
L 247.590545 243.267344 
L 247.817804 240.155092 
L 248.161396 235.329275 
L 248.277731 235.055843 
L 248.318313 235.094671 
L 248.434647 235.368343 
L 248.494167 235.192153 
L 248.753891 234.433874 
L 248.780945 234.45 
L 248.889164 234.718449 
L 249.083956 235.936086 
L 249.438371 238.539402 
L 249.497891 238.484401 
L 249.625047 238.034306 
L 250.122851 235.201906 
L 250.404218 233.516571 
L 250.469149 233.499322 
L 250.509731 233.558094 
L 250.642298 234.091094 
L 250.888495 236.190455 
L 251.169862 238.026475 
L 252.392727 245.886401 
L 252.668684 246.840277 
L 252.971695 248.973863 
L 253.580422 255.233107 
L 253.829324 256.780689 
L 253.853673 256.764567 
L 253.872611 256.682481 
L 253.983535 255.279337 
L 254.356887 251.038054 
L 254.497571 249.974681 
L 254.773527 248.104702 
L 254.860102 247.535222 
L 255.095476 244.473373 
L 255.439069 241.24197 
L 255.536465 241.105734 
L 255.582458 241.153965 
L 255.685265 241.455781 
L 255.74208 241.22175 
L 256.624058 236.974914 
L 256.716044 236.759124 
L 257.062342 235.738089 
L 257.100218 235.767856 
L 257.173265 235.847718 
L 257.221964 235.749611 
L 257.427578 235.291462 
L 257.470865 235.338042 
L 257.592611 235.785762 
L 257.82528 237.678468 
L 258.298735 243.761874 
L 258.745135 248.539379 
L 259.161775 251.066737 
L 259.648756 253.695329 
L 259.727215 253.342049 
L 259.968 250.225349 
L 260.2656 247.902257 
L 260.387345 247.741119 
L 260.425222 247.770247 
L 260.552378 248.10498 
L 260.787753 249.492702 
L 260.833745 249.780736 
L 260.877033 249.327643 
L 261.077236 243.344624 
L 261.501993 234.108583 
L 261.715724 232.995225 
L 261.886167 232.860294 
L 262.105309 231.589163 
L 262.475956 229.479511 
L 262.546298 229.515861 
L 262.565236 229.553095 
L 262.700509 230.142672 
L 262.941295 232.398726 
L 263.620364 238.815677 
L 263.850327 240.17159 
L 263.888204 240.138763 
L 263.988305 239.691339 
L 264.307549 238.37951 
L 264.31296 238.381008 
L 264.399535 238.530736 
L 264.569978 239.40717 
L 264.802647 240.333015 
L 264.813469 240.330855 
L 265.08672 240.138891 
L 265.400553 238.18035 
L 265.71168 236.969241 
L 265.809076 236.833299 
L 265.955171 234.938411 
L 266.282531 231.677861 
L 266.369105 231.547752 
L 266.417804 231.608264 
L 266.539549 232.142867 
L 267.142865 236.778449 
L 267.567622 240.693287 
L 267.778647 241.49577 
L 267.819229 241.455313 
L 268.146589 240.819486 
L 268.230458 240.955254 
L 268.492887 241.605 
L 268.549702 241.49517 
L 268.83648 240.164395 
L 269.428975 235.94946 
L 269.810444 232.154734 
L 270.102633 230.952538 
L 270.416465 229.282257 
L 270.684305 228.810551 
L 270.738415 228.879618 
L 270.868276 229.411855 
L 271.090124 231.467938 
L 271.498647 237.768422 
L 272.047855 245.44816 
L 272.101964 245.565014 
L 272.164189 245.466723 
L 272.358982 245.163568 
L 272.396858 245.188502 
L 272.453673 245.02905 
L 272.897367 243.675583 
L 272.902778 243.677408 
L 273.00288 243.839768 
L 273.178735 244.672884 
L 273.506095 247.540213 
L 274.677556 257.636301 
L 275.202415 262.518923 
L 275.224058 262.498426 
L 275.316044 262.095127 
L 275.497309 259.719783 
L 275.930182 254.542242 
L 276.268364 252.57078 
L 276.427985 252.23208 
L 276.45504 252.248854 
L 276.565964 252.52452 
L 276.7824 253.81301 
L 277.234211 258.155743 
L 278.173004 267.315116 
L 278.191942 267.305236 
L 278.302865 267.040501 
L 278.554473 266.597637 
L 278.559884 266.599725 
L 278.676218 266.774423 
L 278.816902 267.187495 
L 278.881833 267.00721 
L 279.027927 265.968262 
L 279.274124 264.745153 
L 279.352582 264.77704 
L 279.37152 264.809359 
L 279.523025 265.346229 
L 280.018124 267.240916 
L 280.283258 268.584448 
L 280.805411 272.156549 
L 280.91904 271.940803 
L 281.143593 271.084185 
L 282.101324 257.529969 
L 282.515258 254.603681 
L 282.850735 253.989661 
L 282.94272 254.111552 
L 283.324189 254.623757 
L 283.340422 254.575908 
L 283.472989 253.356215 
L 283.724596 252.020153 
L 283.897745 251.92458 
L 284.003258 251.650371 
L 284.257571 250.567398 
L 284.590342 248.232123 
L 284.660684 248.282873 
L 284.674211 248.312176 
L 284.8176 248.948125 
L 285.104378 251.449929 
L 285.556189 255.058565 
L 285.815913 256.446022 
L 286.286662 260.621014 
L 286.66272 262.954061 
L 286.963025 264.684808 
L 287.090182 265.412888 
L 287.149702 265.256782 
L 287.266036 264.247597 
L 287.598807 261.239441 
L 287.690793 261.138587 
L 287.736785 261.185929 
L 287.872058 261.630383 
L 288.142604 263.448256 
L 288.350924 264.257411 
L 288.724276 264.814615 
L 288.77568 264.701575 
L 288.870371 263.948071 
L 289.254545 260.826984 
L 289.335709 260.773776 
L 289.378996 260.822702 
L 289.516975 261.277092 
L 289.849745 262.781009 
L 289.914676 262.632102 
L 290.063476 261.650067 
L 290.626211 256.896936 
L 290.756073 256.643745 
L 290.791244 256.672334 
L 290.910284 257.021896 
L 291.148364 258.568772 
L 291.675927 263.807149 
L 292.130444 268.062846 
L 292.176436 268.038372 
L 292.271127 267.826591 
L 292.563316 266.796544 
L 292.593076 266.815073 
L 292.709411 267.090703 
L 292.939375 268.337096 
L 293.788887 273.415452 
L 293.842996 273.490052 
L 293.8944 273.393788 
L 294.045905 272.568596 
L 294.51936 267.016198 
L 294.987404 260.187781 
L 295.060451 260.123657 
L 295.109149 260.18517 
L 295.249833 260.728463 
L 295.431098 261.308534 
L 295.463564 261.289181 
L 295.715171 261.137873 
L 295.744931 261.178209 
L 295.796335 261.228472 
L 295.842327 261.137199 
L 296.261673 259.40261 
L 296.718895 256.23224 
L 296.78112 256.245798 
L 296.81088 256.296695 
L 296.954269 256.878877 
L 297.149062 257.811998 
L 297.211287 257.713691 
L 297.744262 256.62148 
L 297.836247 256.712212 
L 297.990458 257.322565 
L 298.285353 259.599449 
L 298.599185 262.351436 
L 298.658705 262.052708 
L 299.01312 258.060098 
L 299.505513 252.426559 
L 299.665135 252.088231 
L 299.692189 252.106136 
L 299.800407 252.383414 
L 300.041193 253.64282 
L 300.138589 253.297273 
L 300.360436 251.536509 
L 300.944815 245.523611 
L 300.996218 245.54098 
L 301.025978 245.599936 
L 301.496727 247.129888 
L 301.786211 249.804202 
L 302.795345 259.938347 
L 302.960378 260.230992 
L 303.174109 261.207906 
L 303.560989 262.880969 
L 303.690851 263.010672 
L 303.861295 263.621645 
L 304.169716 265.740704 
L 304.640465 268.730154 
L 304.883956 269.252635 
L 304.938065 269.062586 
L 305.11392 267.363279 
L 305.782167 259.957408 
L 305.866036 259.879664 
L 305.912029 259.930323 
L 306.050007 260.401343 
L 306.325964 262.307437 
L 307.080785 267.757777 
L 307.210647 268.017418 
L 307.4352 269.08929 
L 307.892422 272.6029 
L 308.373993 276.032426 
L 308.401047 276.023947 
L 308.601251 276.050151 
L 308.7744 276.462106 
L 308.898851 276.721213 
L 308.950255 276.67436 
L 309.185629 276.503448 
L 309.201862 276.517232 
L 309.356073 276.824247 
L 309.640145 278.000314 
L 310.597876 283.295551 
L 310.711505 282.863726 
L 311.041571 281.609426 
L 311.147084 281.331257 
L 311.347287 279.962624 
L 311.536669 275.811591 
L 312.080465 266.109862 
L 312.383476 264.899668 
L 312.502516 264.784424 
L 312.540393 264.816176 
L 312.67296 265.165495 
L 312.921862 266.589052 
L 313.057135 267.270623 
L 313.116655 267.200216 
L 313.281687 267.047343 
L 313.314153 267.076087 
L 313.449425 267.422689 
L 313.652335 268.289399 
L 313.736204 268.086229 
L 313.92288 266.813312 
L 314.177193 265.77378 
L 314.274589 265.852184 
L 314.639825 266.518121 
L 314.699345 266.459243 
L 314.8752 266.043215 
L 315.237731 264.417004 
L 315.259375 264.426538 
L 315.367593 264.63995 
L 315.575913 265.660662 
L 315.992553 269.04375 
L 316.522822 273.233528 
L 316.555287 273.222321 
L 316.820422 272.965624 
L 316.912407 271.647415 
L 317.610415 259.276623 
L 317.924247 258.413152 
L 318.021644 258.491127 
L 318.170444 259.040989 
L 318.457222 261.141345 
L 319.019956 265.166195 
L 319.263447 266.415576 
L 319.477178 267.47717 
L 319.528582 267.458275 
L 319.663855 267.521594 
L 319.812655 267.992216 
L 320.088611 269.772257 
L 320.510662 273.018669 
L 320.578298 272.792406 
L 320.911069 271.534468 
L 320.91648 271.535717 
L 321.019287 271.680821 
L 321.130211 271.908291 
L 321.189731 271.81732 
L 321.400756 271.070468 
L 322.055476 268.833632 
L 322.158284 268.975361 
L 322.756189 270.282818 
L 322.788655 270.228249 
L 322.934749 269.425338 
L 323.164713 268.752864 
L 323.264815 268.865491 
L 323.443375 269.518685 
L 323.597585 270.219509 
L 323.667927 270.076277 
L 323.903302 269.599104 
L 323.930356 269.616516 
L 324.052102 269.890464 
L 324.512029 271.092037 
L 324.647302 271.432935 
L 324.898909 272.817241 
L 325.542807 278.015015 
L 325.656436 278.626695 
L 325.715956 278.529647 
L 325.991913 278.067459 
L 326.010851 278.078016 
L 326.146124 278.312417 
L 326.24352 278.535338 
L 326.297629 278.411835 
L 326.449135 277.403016 
L 327.185018 269.036811 
L 327.520495 266.352067 
L 327.634124 265.880336 
L 327.8208 264.041123 
L 328.129222 261.556746 
L 328.213091 261.477973 
L 328.259084 261.528939 
L 328.394356 261.996114 
L 328.667607 263.92137 
L 328.911098 265.791143 
L 328.970618 265.583726 
L 329.316916 264.025993 
L 329.33856 264.03619 
L 329.444073 264.25676 
L 330.063622 266.370048 
L 330.117731 266.149597 
L 330.461324 264.641573 
L 330.683171 264.32619 
L 330.891491 264.047606 
L 330.907724 264.056912 
L 331.029469 264.2857 
L 331.262138 265.29077 
L 331.36224 264.950841 
L 331.527273 264.616267 
L 331.554327 264.632519 
L 331.667956 264.901135 
L 332.133295 266.468045 
L 332.179287 266.369956 
L 332.579695 265.19988 
L 332.609455 265.210678 
L 332.674385 265.105076 
L 332.993629 264.114634 
L 333.05856 264.184102 
L 333.210065 264.692121 
L 333.480611 265.884031 
L 333.537425 265.721492 
L 333.851258 264.537699 
L 333.886429 264.562801 
L 334.008175 264.883375 
L 334.757585 268.326763 
L 335.636858 273.994829 
L 335.685556 273.850119 
L 336.12384 271.634919 
L 336.188771 271.693824 
L 336.345687 272.155292 
L 336.394385 272.239939 
L 336.4512 272.133634 
L 336.846196 271.284919 
L 336.908422 271.019834 
L 337.606429 266.732556 
L 337.628073 266.741912 
L 337.736291 266.958646 
L 337.950022 268.011057 
L 338.412655 271.665544 
L 339.194531 277.55189 
L 339.335215 277.482593 
L 339.473193 277.26265 
L 339.911476 275.393622 
L 339.925004 275.397786 
L 340.046749 275.573019 
L 340.274007 276.396289 
L 340.520204 277.368573 
L 340.582429 277.31137 
L 340.682531 276.783065 
L 340.982836 275.501381 
L 341.088349 275.524909 
L 341.101876 275.542903 
L 341.266909 275.980655 
L 341.710604 277.644626 
L 341.799884 277.537332 
L 342.073135 276.906448 
L 342.435665 275.636859 
L 342.560116 275.697963 
L 342.741382 276.047647 
L 342.806313 275.872446 
L 343.247302 274.325045 
L 343.277062 274.340106 
L 343.409629 274.583008 
L 343.658531 275.617182 
L 343.86144 276.702438 
L 343.929076 276.44752 
L 344.075171 274.99968 
L 344.762356 267.301683 
L 344.878691 267.090704 
L 344.919273 267.125068 
L 345.046429 267.510473 
L 345.308858 269.183747 
L 346.366691 276.747842 
L 346.380218 276.73196 
L 346.501964 276.185316 
L 346.704873 275.739134 
L 346.712989 275.741473 
L 346.823913 275.904199 
L 346.934836 276.222764 
L 346.98624 276.01646 
L 347.421818 272.466112 
L 348.106298 261.653334 
L 348.276742 261.055671 
L 348.292975 261.06283 
L 348.387665 261.276549 
L 348.582458 262.409172 
L 349.015331 266.55313 
L 349.299404 268.184866 
L 349.937891 270.641035 
L 349.948713 270.632213 
L 350.016349 270.349936 
L 350.419462 268.408059 
L 350.424873 268.409288 
L 350.52768 268.558735 
L 350.70624 269.200067 
L 350.779287 268.915136 
L 351.325789 266.175359 
L 351.342022 266.182541 
L 351.442124 266.384181 
L 351.642327 267.413876 
L 351.804655 268.00361 
L 351.834415 267.964794 
L 351.920989 267.411008 
L 352.307869 262.622785 
L 352.889542 257.019417 
L 353.127622 255.709001 
L 353.744465 250.007674 
L 353.766109 250.020091 
L 353.858095 250.272601 
L 354.050182 251.614667 
L 354.334255 253.203721 
L 354.553396 254.720651 
L 355.135069 261.014734 
L 355.76544 267.189216 
L 356.008931 267.275163 
L 356.336291 268.06991 
L 356.406633 267.807318 
L 356.704233 266.752864 
L 356.709644 266.754402 
L 356.809745 266.911982 
L 356.999127 267.751453 
L 357.388713 270.712017 
L 357.78912 273.230603 
L 357.840524 273.272564 
L 357.891927 273.194518 
L 357.992029 272.645816 
L 358.86048 265.683458 
L 358.97952 264.929611 
L 359.282531 259.709281 
L 359.620713 252.859269 
L 359.875025 250.415897 
L 359.948073 250.334634 
L 359.996771 250.399169 
L 360.094167 250.664343 
L 360.164509 250.509741 
L 360.483753 249.372125 
L 360.58656 249.590778 
L 360.767825 250.725425 
L 361.149295 254.848748 
L 361.473949 257.48433 
L 361.7472 259.077844 
L 362.012335 259.967461 
L 362.025862 259.962832 
L 362.079971 259.80885 
L 362.556131 256.611838 
L 362.815855 255.16093 
L 362.883491 255.192621 
L 362.905135 255.234084 
L 362.956538 255.300533 
L 363.016058 255.213042 
L 363.167564 255.059388 
L 363.202735 255.092459 
L 363.273076 255.212887 
L 363.329891 255.0842 
L 363.47328 254.853069 
L 363.511156 254.886665 
L 363.630196 255.256425 
L 364.149644 257.156089 
L 364.363375 258.397595 
L 364.690735 261.12919 
L 364.801658 260.882839 
L 364.958575 260.804685 
L 365.486138 260.383795 
L 365.607884 260.437136 
L 365.643055 260.350347 
L 365.9136 259.20076 
L 366.213905 257.068305 
L 366.273425 257.057042 
L 366.314007 257.115148 
L 366.457396 257.66812 
L 366.749585 259.88091 
L 367.198691 262.96931 
L 367.374545 263.625678 
L 367.442182 263.515418 
L 367.661324 263.15087 
L 367.693789 263.174331 
L 367.820945 263.478836 
L 368.140189 264.919539 
L 368.253818 264.643479 
L 369.046516 260.647941 
L 369.114153 260.716617 
L 369.265658 261.230298 
L 369.54432 262.425932 
L 369.60384 262.332273 
L 369.939316 261.504254 
L 369.998836 261.562045 
L 370.150342 262.013155 
L 370.431709 263.704736 
L 371.040436 269.0502 
L 371.565295 273.680374 
L 371.622109 273.511398 
L 372.008989 272.019328 
L 372.030633 272.028608 
L 372.106385 272.097832 
L 372.138851 271.975843 
L 372.466211 270.709268 
L 372.482444 270.715163 
L 372.593367 270.902268 
L 372.809804 271.816686 
L 373.285964 275.023867 
L 373.588975 277.059476 
L 373.648495 276.890905 
L 373.759418 275.781841 
L 374.668451 263.923561 
L 375.144611 262.490943 
L 375.242007 262.65809 
L 375.461149 262.957851 
L 375.612655 263.135537 
L 375.79392 263.817318 
L 376.110458 266.060754 
L 376.381004 267.417997 
L 377.003258 269.835454 
L 377.054662 269.6696 
L 377.276509 267.711443 
L 378.044858 260.658081 
L 378.172015 260.427838 
L 378.209891 260.457039 
L 378.331636 260.80071 
L 378.407389 261.053083 
L 378.477731 260.936194 
L 378.618415 260.777122 
L 378.653585 260.810228 
L 378.778036 261.176283 
L 379.016116 262.720639 
L 379.072931 262.946564 
L 379.143273 262.847558 
L 379.359709 262.236771 
L 379.784465 260.519361 
L 380.092887 258.106987 
L 380.155113 258.079294 
L 380.201105 258.142283 
L 380.336378 258.617135 
L 380.398604 258.323597 
L 381.080378 254.164381 
L 381.148015 254.098984 
L 381.204829 254.156369 
L 381.291404 254.131105 
L 381.310342 254.101944 
L 381.559244 253.719816 
L 381.613353 253.785731 
L 381.754036 254.295582 
L 382.01376 255.256408 
L 382.038109 255.209895 
L 382.314065 254.261988 
L 382.392524 254.385791 
L 382.552145 255.15859 
L 382.871389 258.039721 
L 383.734429 266.101728 
L 383.837236 266.325795 
L 383.899462 266.25084 
L 384.059084 266.116032 
L 384.091549 266.146395 
L 384.224116 266.501107 
L 384.473018 267.95152 
L 384.727331 269.008253 
L 384.941062 269.272548 
L 385.000582 269.120764 
L 385.130444 268.290442 
L 385.395578 267.020029 
L 385.479447 267.06426 
L 385.492975 267.088699 
L 385.647185 267.644686 
L 385.958313 269.780181 
L 386.163927 270.548024 
L 386.442589 270.793771 
L 386.569745 271.183902 
L 386.623855 270.977946 
L 386.821353 268.769451 
L 387.186589 265.445238 
L 387.486895 264.120172 
L 387.584291 264.195487 
L 387.605935 264.197449 
L 387.643811 264.102362 
L 387.919767 263.234331 
L 387.971171 263.284723 
L 388.130793 263.778228 
L 388.720582 265.87336 
L 388.73952 265.886209 
L 388.771985 265.767797 
L 388.901847 264.216325 
L 389.202153 261.53086 
L 389.283316 261.445075 
L 389.332015 261.500148 
L 389.456465 261.753108 
L 389.529513 261.639385 
L 389.862284 261.219338 
L 389.875811 261.228497 
L 389.994851 261.46869 
L 390.200465 262.503147 
L 390.787549 266.18774 
L 390.85248 266.097291 
L 391.041862 265.844737 
L 391.074327 265.872336 
L 391.204189 266.208485 
L 391.469324 267.681037 
L 391.485556 267.730347 
L 391.542371 267.484847 
L 391.904902 265.704894 
L 391.907607 265.705286 
L 392.002298 265.838635 
L 392.180858 266.608298 
L 392.524451 268.18019 
L 392.554211 268.141671 
L 392.765236 267.34544 
L 393.300916 262.583665 
L 393.53088 261.483475 
L 393.663447 260.651373 
L 393.898822 259.790075 
L 393.990807 259.880553 
L 394.069265 260.052252 
L 394.128785 259.918543 
L 394.407447 258.602849 
L 394.699636 257.117737 
L 394.788916 257.194227 
L 394.937716 257.775013 
L 395.906269 262.476465 
L 396.309382 263.445778 
L 396.312087 263.444805 
L 396.390545 263.286268 
L 396.658385 262.724414 
L 396.682735 262.739149 
L 396.799069 262.989592 
L 397.020916 264.135452 
L 397.121018 264.371899 
L 397.164305 264.29559 
L 397.499782 263.18362 
L 397.589062 263.31601 
L 397.764916 264.084171 
L 398.465629 268.15757 
L 398.487273 268.13581 
" clip-path="url(#p7321e6e461)" style="fill: none; stroke: #ff0000; stroke-width: 1.5; stroke-linecap: square"/>
   </g>
   <g id="line2d_18">
    <path d="M 344.378182 260.064 
L 398.379055 260.064 
L 398.379055 260.064 
" clip-path="url(#p7321e6e461)" style="fill: none; stroke: #000000; stroke-width: 1.5; stroke-linecap: square"/>
   </g>
   <g id="line2d_19">
    <path d="M 344.378182 231.552 
L 344.378182 229.6512 
L 344.378182 227.7504 
L 344.378182 225.8496 
L 344.378182 223.9488 
L 344.378182 222.048 
L 344.378182 220.1472 
L 344.378182 218.2464 
L 344.378182 216.3456 
L 344.378182 214.4448 
L 344.378182 212.544 
L 344.378182 210.6432 
L 344.378182 208.7424 
L 344.378182 206.8416 
L 344.378182 204.9408 
L 344.378182 203.04 
L 344.378182 201.1392 
L 344.378182 199.2384 
L 344.378182 197.3376 
L 344.378182 195.4368 
" clip-path="url(#p7321e6e461)" style="fill: none; stroke: #000000; stroke-width: 1.5; stroke-linecap: square"/>
   </g>
   <g id="patch_3">
    <path d="M 57.6 307.584 
L 57.6 41.472 
" style="fill: none; stroke: #000000; stroke-width: 0.8; stroke-linejoin: miter; stroke-linecap: square"/>
   </g>
   <g id="patch_4">
    <path d="M 57.6 307.584 
L 414.72 307.584 
" style="fill: none; stroke: #000000; stroke-width: 0.8; stroke-linejoin: miter; stroke-linecap: square"/>
   </g>
   <g id="text_18">
    <!-- 500 ms -->
    <g transform="translate(344.378182 258.1632) scale(0.1 -0.1)">
     <use xlink:href="#DejaVuSans-35"/>
     <use xlink:href="#DejaVuSans-30" x="63.623047"/>
     <use xlink:href="#DejaVuSans-30" x="127.246094"/>
     <use xlink:href="#DejaVuSans-20" x="190.869141"/>
     <use xlink:href="#DejaVuSans-6d" x="222.65625"/>
     <use xlink:href="#DejaVuSans-73" x="320.068359"/>
    </g>
   </g>
   <g id="text_19">
    <!-- 20 mV -->
    <g transform="translate(349.789091 193.536) scale(0.1 -0.1)">
     <use xlink:href="#DejaVuSans-32"/>
     <use xlink:href="#DejaVuSans-30" x="63.623047"/>
     <use xlink:href="#DejaVuSans-20" x="127.246094"/>
     <use xlink:href="#DejaVuSans-6d" x="159.033203"/>
     <use xlink:href="#DejaVuSans-56" x="256.445312"/>
    </g>
   </g>
  </g>
 </g>
 <defs>
  <clipPath id="p7321e6e461">
   <rect x="57.6" y="41.472" width="357.12" height="266.112"/>
  </clipPath>
 </defs>
</svg>
