<?xml version="1.0" encoding="utf-8" standalone="no"?>
<!DOCTYPE svg PUBLIC "-//W3C//DTD SVG 1.1//EN"
  "http://www.w3.org/Graphics/SVG/1.1/DTD/svg11.dtd">
<!-- Created with matplotlib (https://matplotlib.org/) -->
<svg height="288pt" version="1.1" viewBox="0 0 432 288" width="432pt" xmlns="http://www.w3.org/2000/svg" xmlns:xlink="http://www.w3.org/1999/xlink">
 <metadata>
  <rdf:RDF xmlns:cc="http://creativecommons.org/ns#" xmlns:dc="http://purl.org/dc/elements/1.1/" xmlns:rdf="http://www.w3.org/1999/02/22-rdf-syntax-ns#">
   <cc:Work>
    <dc:type rdf:resource="http://purl.org/dc/dcmitype/StillImage"/>
    <dc:date>2022-04-20T11:58:45.655608</dc:date>
    <dc:format>image/svg+xml</dc:format>
    <dc:creator>
     <cc:Agent>
      <dc:title>Matplotlib v3.3.4, https://matplotlib.org/</dc:title>
     </cc:Agent>
    </dc:creator>
   </cc:Work>
  </rdf:RDF>
 </metadata>
 <defs>
  <style type="text/css">*{stroke-linecap:butt;stroke-linejoin:round;}</style>
 </defs>
 <g id="figure_1">
  <g id="patch_1">
   <path d="M 0 288 
L 432 288 
L 432 0 
L 0 0 
z
" style="fill:none;"/>
  </g>
  <g id="axes_1">
   <g id="patch_2">
    <path d="M 54 252 
L 388.8 252 
L 388.8 34.56 
L 54 34.56 
z
" style="fill:#ffffff;"/>
   </g>
   <g id="matplotlib.axis_1">
    <g id="xtick_1">
     <g id="line2d_1">
      <defs>
       <path d="M 0 0 
L 0 3.5 
" id="m512078afd6" style="stroke:#000000;stroke-width:0.8;"/>
      </defs>
      <g>
       <use style="stroke:#000000;stroke-width:0.8;" x="69.218182" xlink:href="#m512078afd6" y="252"/>
      </g>
     </g>
     <g id="text_1">
      <!-- 0 -->
      <g transform="translate(66.036932 266.598437)scale(0.1 -0.1)">
       <defs>
        <path d="M 31.78125 66.40625 
Q 24.171875 66.40625 20.328125 58.90625 
Q 16.5 51.421875 16.5 36.375 
Q 16.5 21.390625 20.328125 13.890625 
Q 24.171875 6.390625 31.78125 6.390625 
Q 39.453125 6.390625 43.28125 13.890625 
Q 47.125 21.390625 47.125 36.375 
Q 47.125 51.421875 43.28125 58.90625 
Q 39.453125 66.40625 31.78125 66.40625 
z
M 31.78125 74.21875 
Q 44.046875 74.21875 50.515625 64.515625 
Q 56.984375 54.828125 56.984375 36.375 
Q 56.984375 17.96875 50.515625 8.265625 
Q 44.046875 -1.421875 31.78125 -1.421875 
Q 19.53125 -1.421875 13.0625 8.265625 
Q 6.59375 17.96875 6.59375 36.375 
Q 6.59375 54.828125 13.0625 64.515625 
Q 19.53125 74.21875 31.78125 74.21875 
z
" id="DejaVuSans-48"/>
       </defs>
       <use xlink:href="#DejaVuSans-48"/>
      </g>
     </g>
    </g>
    <g id="xtick_2">
     <g id="line2d_2">
      <g>
       <use style="stroke:#000000;stroke-width:0.8;" x="119.945455" xlink:href="#m512078afd6" y="252"/>
      </g>
     </g>
     <g id="text_2">
      <!-- 500 -->
      <g transform="translate(110.401705 266.598437)scale(0.1 -0.1)">
       <defs>
        <path d="M 10.796875 72.90625 
L 49.515625 72.90625 
L 49.515625 64.59375 
L 19.828125 64.59375 
L 19.828125 46.734375 
Q 21.96875 47.46875 24.109375 47.828125 
Q 26.265625 48.1875 28.421875 48.1875 
Q 40.625 48.1875 47.75 41.5 
Q 54.890625 34.8125 54.890625 23.390625 
Q 54.890625 11.625 47.5625 5.09375 
Q 40.234375 -1.421875 26.90625 -1.421875 
Q 22.3125 -1.421875 17.546875 -0.640625 
Q 12.796875 0.140625 7.71875 1.703125 
L 7.71875 11.625 
Q 12.109375 9.234375 16.796875 8.0625 
Q 21.484375 6.890625 26.703125 6.890625 
Q 35.15625 6.890625 40.078125 11.328125 
Q 45.015625 15.765625 45.015625 23.390625 
Q 45.015625 31 40.078125 35.4375 
Q 35.15625 39.890625 26.703125 39.890625 
Q 22.75 39.890625 18.8125 39.015625 
Q 14.890625 38.140625 10.796875 36.28125 
z
" id="DejaVuSans-53"/>
       </defs>
       <use xlink:href="#DejaVuSans-53"/>
       <use x="63.623047" xlink:href="#DejaVuSans-48"/>
       <use x="127.246094" xlink:href="#DejaVuSans-48"/>
      </g>
     </g>
    </g>
    <g id="xtick_3">
     <g id="line2d_3">
      <g>
       <use style="stroke:#000000;stroke-width:0.8;" x="170.672727" xlink:href="#m512078afd6" y="252"/>
      </g>
     </g>
     <g id="text_3">
      <!-- 1000 -->
      <g transform="translate(157.947727 266.598437)scale(0.1 -0.1)">
       <defs>
        <path d="M 12.40625 8.296875 
L 28.515625 8.296875 
L 28.515625 63.921875 
L 10.984375 60.40625 
L 10.984375 69.390625 
L 28.421875 72.90625 
L 38.28125 72.90625 
L 38.28125 8.296875 
L 54.390625 8.296875 
L 54.390625 0 
L 12.40625 0 
z
" id="DejaVuSans-49"/>
       </defs>
       <use xlink:href="#DejaVuSans-49"/>
       <use x="63.623047" xlink:href="#DejaVuSans-48"/>
       <use x="127.246094" xlink:href="#DejaVuSans-48"/>
       <use x="190.869141" xlink:href="#DejaVuSans-48"/>
      </g>
     </g>
    </g>
    <g id="xtick_4">
     <g id="line2d_4">
      <g>
       <use style="stroke:#000000;stroke-width:0.8;" x="221.4" xlink:href="#m512078afd6" y="252"/>
      </g>
     </g>
     <g id="text_4">
      <!-- 1500 -->
      <g transform="translate(208.675 266.598437)scale(0.1 -0.1)">
       <use xlink:href="#DejaVuSans-49"/>
       <use x="63.623047" xlink:href="#DejaVuSans-53"/>
       <use x="127.246094" xlink:href="#DejaVuSans-48"/>
       <use x="190.869141" xlink:href="#DejaVuSans-48"/>
      </g>
     </g>
    </g>
    <g id="xtick_5">
     <g id="line2d_5">
      <g>
       <use style="stroke:#000000;stroke-width:0.8;" x="272.127273" xlink:href="#m512078afd6" y="252"/>
      </g>
     </g>
     <g id="text_5">
      <!-- 2000 -->
      <g transform="translate(259.402273 266.598437)scale(0.1 -0.1)">
       <defs>
        <path d="M 19.1875 8.296875 
L 53.609375 8.296875 
L 53.609375 0 
L 7.328125 0 
L 7.328125 8.296875 
Q 12.9375 14.109375 22.625 23.890625 
Q 32.328125 33.6875 34.8125 36.53125 
Q 39.546875 41.84375 41.421875 45.53125 
Q 43.3125 49.21875 43.3125 52.78125 
Q 43.3125 58.59375 39.234375 62.25 
Q 35.15625 65.921875 28.609375 65.921875 
Q 23.96875 65.921875 18.8125 64.3125 
Q 13.671875 62.703125 7.8125 59.421875 
L 7.8125 69.390625 
Q 13.765625 71.78125 18.9375 73 
Q 24.125 74.21875 28.421875 74.21875 
Q 39.75 74.21875 46.484375 68.546875 
Q 53.21875 62.890625 53.21875 53.421875 
Q 53.21875 48.921875 51.53125 44.890625 
Q 49.859375 40.875 45.40625 35.40625 
Q 44.1875 33.984375 37.640625 27.21875 
Q 31.109375 20.453125 19.1875 8.296875 
z
" id="DejaVuSans-50"/>
       </defs>
       <use xlink:href="#DejaVuSans-50"/>
       <use x="63.623047" xlink:href="#DejaVuSans-48"/>
       <use x="127.246094" xlink:href="#DejaVuSans-48"/>
       <use x="190.869141" xlink:href="#DejaVuSans-48"/>
      </g>
     </g>
    </g>
    <g id="xtick_6">
     <g id="line2d_6">
      <g>
       <use style="stroke:#000000;stroke-width:0.8;" x="322.854545" xlink:href="#m512078afd6" y="252"/>
      </g>
     </g>
     <g id="text_6">
      <!-- 2500 -->
      <g transform="translate(310.129545 266.598437)scale(0.1 -0.1)">
       <use xlink:href="#DejaVuSans-50"/>
       <use x="63.623047" xlink:href="#DejaVuSans-53"/>
       <use x="127.246094" xlink:href="#DejaVuSans-48"/>
       <use x="190.869141" xlink:href="#DejaVuSans-48"/>
      </g>
     </g>
    </g>
    <g id="xtick_7">
     <g id="line2d_7">
      <g>
       <use style="stroke:#000000;stroke-width:0.8;" x="373.581818" xlink:href="#m512078afd6" y="252"/>
      </g>
     </g>
     <g id="text_7">
      <!-- 3000 -->
      <g transform="translate(360.856818 266.598437)scale(0.1 -0.1)">
       <defs>
        <path d="M 40.578125 39.3125 
Q 47.65625 37.796875 51.625 33 
Q 55.609375 28.21875 55.609375 21.1875 
Q 55.609375 10.40625 48.1875 4.484375 
Q 40.765625 -1.421875 27.09375 -1.421875 
Q 22.515625 -1.421875 17.65625 -0.515625 
Q 12.796875 0.390625 7.625 2.203125 
L 7.625 11.71875 
Q 11.71875 9.328125 16.59375 8.109375 
Q 21.484375 6.890625 26.8125 6.890625 
Q 36.078125 6.890625 40.9375 10.546875 
Q 45.796875 14.203125 45.796875 21.1875 
Q 45.796875 27.640625 41.28125 31.265625 
Q 36.765625 34.90625 28.71875 34.90625 
L 20.21875 34.90625 
L 20.21875 43.015625 
L 29.109375 43.015625 
Q 36.375 43.015625 40.234375 45.921875 
Q 44.09375 48.828125 44.09375 54.296875 
Q 44.09375 59.90625 40.109375 62.90625 
Q 36.140625 65.921875 28.71875 65.921875 
Q 24.65625 65.921875 20.015625 65.03125 
Q 15.375 64.15625 9.8125 62.3125 
L 9.8125 71.09375 
Q 15.4375 72.65625 20.34375 73.4375 
Q 25.25 74.21875 29.59375 74.21875 
Q 40.828125 74.21875 47.359375 69.109375 
Q 53.90625 64.015625 53.90625 55.328125 
Q 53.90625 49.265625 50.4375 45.09375 
Q 46.96875 40.921875 40.578125 39.3125 
z
" id="DejaVuSans-51"/>
       </defs>
       <use xlink:href="#DejaVuSans-51"/>
       <use x="63.623047" xlink:href="#DejaVuSans-48"/>
       <use x="127.246094" xlink:href="#DejaVuSans-48"/>
       <use x="190.869141" xlink:href="#DejaVuSans-48"/>
      </g>
     </g>
    </g>
    <g id="text_8">
     <!-- Time(ms) -->
     <g transform="translate(197.789844 280.276563)scale(0.1 -0.1)">
      <defs>
       <path d="M -0.296875 72.90625 
L 61.375 72.90625 
L 61.375 64.59375 
L 35.5 64.59375 
L 35.5 0 
L 25.59375 0 
L 25.59375 64.59375 
L -0.296875 64.59375 
z
" id="DejaVuSans-84"/>
       <path d="M 9.421875 54.6875 
L 18.40625 54.6875 
L 18.40625 0 
L 9.421875 0 
z
M 9.421875 75.984375 
L 18.40625 75.984375 
L 18.40625 64.59375 
L 9.421875 64.59375 
z
" id="DejaVuSans-105"/>
       <path d="M 52 44.1875 
Q 55.375 50.25 60.0625 53.125 
Q 64.75 56 71.09375 56 
Q 79.640625 56 84.28125 50.015625 
Q 88.921875 44.046875 88.921875 33.015625 
L 88.921875 0 
L 79.890625 0 
L 79.890625 32.71875 
Q 79.890625 40.578125 77.09375 44.375 
Q 74.3125 48.1875 68.609375 48.1875 
Q 61.625 48.1875 57.5625 43.546875 
Q 53.515625 38.921875 53.515625 30.90625 
L 53.515625 0 
L 44.484375 0 
L 44.484375 32.71875 
Q 44.484375 40.625 41.703125 44.40625 
Q 38.921875 48.1875 33.109375 48.1875 
Q 26.21875 48.1875 22.15625 43.53125 
Q 18.109375 38.875 18.109375 30.90625 
L 18.109375 0 
L 9.078125 0 
L 9.078125 54.6875 
L 18.109375 54.6875 
L 18.109375 46.1875 
Q 21.1875 51.21875 25.484375 53.609375 
Q 29.78125 56 35.6875 56 
Q 41.65625 56 45.828125 52.96875 
Q 50 49.953125 52 44.1875 
z
" id="DejaVuSans-109"/>
       <path d="M 56.203125 29.59375 
L 56.203125 25.203125 
L 14.890625 25.203125 
Q 15.484375 15.921875 20.484375 11.0625 
Q 25.484375 6.203125 34.421875 6.203125 
Q 39.59375 6.203125 44.453125 7.46875 
Q 49.3125 8.734375 54.109375 11.28125 
L 54.109375 2.78125 
Q 49.265625 0.734375 44.1875 -0.34375 
Q 39.109375 -1.421875 33.890625 -1.421875 
Q 20.796875 -1.421875 13.15625 6.1875 
Q 5.515625 13.8125 5.515625 26.8125 
Q 5.515625 40.234375 12.765625 48.109375 
Q 20.015625 56 32.328125 56 
Q 43.359375 56 49.78125 48.890625 
Q 56.203125 41.796875 56.203125 29.59375 
z
M 47.21875 32.234375 
Q 47.125 39.59375 43.09375 43.984375 
Q 39.0625 48.390625 32.421875 48.390625 
Q 24.90625 48.390625 20.390625 44.140625 
Q 15.875 39.890625 15.1875 32.171875 
z
" id="DejaVuSans-101"/>
       <path d="M 31 75.875 
Q 24.46875 64.65625 21.28125 53.65625 
Q 18.109375 42.671875 18.109375 31.390625 
Q 18.109375 20.125 21.3125 9.0625 
Q 24.515625 -2 31 -13.1875 
L 23.1875 -13.1875 
Q 15.875 -1.703125 12.234375 9.375 
Q 8.59375 20.453125 8.59375 31.390625 
Q 8.59375 42.28125 12.203125 53.3125 
Q 15.828125 64.359375 23.1875 75.875 
z
" id="DejaVuSans-40"/>
       <path d="M 44.28125 53.078125 
L 44.28125 44.578125 
Q 40.484375 46.53125 36.375 47.5 
Q 32.28125 48.484375 27.875 48.484375 
Q 21.1875 48.484375 17.84375 46.4375 
Q 14.5 44.390625 14.5 40.28125 
Q 14.5 37.15625 16.890625 35.375 
Q 19.28125 33.59375 26.515625 31.984375 
L 29.59375 31.296875 
Q 39.15625 29.25 43.1875 25.515625 
Q 47.21875 21.78125 47.21875 15.09375 
Q 47.21875 7.46875 41.1875 3.015625 
Q 35.15625 -1.421875 24.609375 -1.421875 
Q 20.21875 -1.421875 15.453125 -0.5625 
Q 10.6875 0.296875 5.421875 2 
L 5.421875 11.28125 
Q 10.40625 8.6875 15.234375 7.390625 
Q 20.0625 6.109375 24.8125 6.109375 
Q 31.15625 6.109375 34.5625 8.28125 
Q 37.984375 10.453125 37.984375 14.40625 
Q 37.984375 18.0625 35.515625 20.015625 
Q 33.0625 21.96875 24.703125 23.78125 
L 21.578125 24.515625 
Q 13.234375 26.265625 9.515625 29.90625 
Q 5.8125 33.546875 5.8125 39.890625 
Q 5.8125 47.609375 11.28125 51.796875 
Q 16.75 56 26.8125 56 
Q 31.78125 56 36.171875 55.265625 
Q 40.578125 54.546875 44.28125 53.078125 
z
" id="DejaVuSans-115"/>
       <path d="M 8.015625 75.875 
L 15.828125 75.875 
Q 23.140625 64.359375 26.78125 53.3125 
Q 30.421875 42.28125 30.421875 31.390625 
Q 30.421875 20.453125 26.78125 9.375 
Q 23.140625 -1.703125 15.828125 -13.1875 
L 8.015625 -13.1875 
Q 14.5 -2 17.703125 9.0625 
Q 20.90625 20.125 20.90625 31.390625 
Q 20.90625 42.671875 17.703125 53.65625 
Q 14.5 64.65625 8.015625 75.875 
z
" id="DejaVuSans-41"/>
      </defs>
      <use xlink:href="#DejaVuSans-84"/>
      <use x="57.958984" xlink:href="#DejaVuSans-105"/>
      <use x="85.742188" xlink:href="#DejaVuSans-109"/>
      <use x="183.154297" xlink:href="#DejaVuSans-101"/>
      <use x="244.677734" xlink:href="#DejaVuSans-40"/>
      <use x="283.691406" xlink:href="#DejaVuSans-109"/>
      <use x="381.103516" xlink:href="#DejaVuSans-115"/>
      <use x="433.203125" xlink:href="#DejaVuSans-41"/>
     </g>
    </g>
   </g>
   <g id="matplotlib.axis_2">
    <g id="ytick_1">
     <g id="line2d_8">
      <defs>
       <path d="M 0 0 
L -3.5 0 
" id="m03abd38efb" style="stroke:#000000;stroke-width:0.8;"/>
      </defs>
      <g>
       <use style="stroke:#000000;stroke-width:0.8;" x="54" xlink:href="#m03abd38efb" y="252"/>
      </g>
     </g>
     <g id="text_9">
      <!-- −100 -->
      <g transform="translate(19.532812 255.799219)scale(0.1 -0.1)">
       <defs>
        <path d="M 10.59375 35.5 
L 73.1875 35.5 
L 73.1875 27.203125 
L 10.59375 27.203125 
z
" id="DejaVuSans-8722"/>
       </defs>
       <use xlink:href="#DejaVuSans-8722"/>
       <use x="83.789062" xlink:href="#DejaVuSans-49"/>
       <use x="147.412109" xlink:href="#DejaVuSans-48"/>
       <use x="211.035156" xlink:href="#DejaVuSans-48"/>
      </g>
     </g>
    </g>
    <g id="ytick_2">
     <g id="line2d_9">
      <g>
       <use style="stroke:#000000;stroke-width:0.8;" x="54" xlink:href="#m03abd38efb" y="215.76"/>
      </g>
     </g>
     <g id="text_10">
      <!-- −95 -->
      <g transform="translate(25.895312 219.559219)scale(0.1 -0.1)">
       <defs>
        <path d="M 10.984375 1.515625 
L 10.984375 10.5 
Q 14.703125 8.734375 18.5 7.8125 
Q 22.3125 6.890625 25.984375 6.890625 
Q 35.75 6.890625 40.890625 13.453125 
Q 46.046875 20.015625 46.78125 33.40625 
Q 43.953125 29.203125 39.59375 26.953125 
Q 35.25 24.703125 29.984375 24.703125 
Q 19.046875 24.703125 12.671875 31.3125 
Q 6.296875 37.9375 6.296875 49.421875 
Q 6.296875 60.640625 12.9375 67.421875 
Q 19.578125 74.21875 30.609375 74.21875 
Q 43.265625 74.21875 49.921875 64.515625 
Q 56.59375 54.828125 56.59375 36.375 
Q 56.59375 19.140625 48.40625 8.859375 
Q 40.234375 -1.421875 26.421875 -1.421875 
Q 22.703125 -1.421875 18.890625 -0.6875 
Q 15.09375 0.046875 10.984375 1.515625 
z
M 30.609375 32.421875 
Q 37.25 32.421875 41.125 36.953125 
Q 45.015625 41.5 45.015625 49.421875 
Q 45.015625 57.28125 41.125 61.84375 
Q 37.25 66.40625 30.609375 66.40625 
Q 23.96875 66.40625 20.09375 61.84375 
Q 16.21875 57.28125 16.21875 49.421875 
Q 16.21875 41.5 20.09375 36.953125 
Q 23.96875 32.421875 30.609375 32.421875 
z
" id="DejaVuSans-57"/>
       </defs>
       <use xlink:href="#DejaVuSans-8722"/>
       <use x="83.789062" xlink:href="#DejaVuSans-57"/>
       <use x="147.412109" xlink:href="#DejaVuSans-53"/>
      </g>
     </g>
    </g>
    <g id="ytick_3">
     <g id="line2d_10">
      <g>
       <use style="stroke:#000000;stroke-width:0.8;" x="54" xlink:href="#m03abd38efb" y="179.52"/>
      </g>
     </g>
     <g id="text_11">
      <!-- −90 -->
      <g transform="translate(25.895312 183.319219)scale(0.1 -0.1)">
       <use xlink:href="#DejaVuSans-8722"/>
       <use x="83.789062" xlink:href="#DejaVuSans-57"/>
       <use x="147.412109" xlink:href="#DejaVuSans-48"/>
      </g>
     </g>
    </g>
    <g id="ytick_4">
     <g id="line2d_11">
      <g>
       <use style="stroke:#000000;stroke-width:0.8;" x="54" xlink:href="#m03abd38efb" y="143.28"/>
      </g>
     </g>
     <g id="text_12">
      <!-- −85 -->
      <g transform="translate(25.895312 147.079219)scale(0.1 -0.1)">
       <defs>
        <path d="M 31.78125 34.625 
Q 24.75 34.625 20.71875 30.859375 
Q 16.703125 27.09375 16.703125 20.515625 
Q 16.703125 13.921875 20.71875 10.15625 
Q 24.75 6.390625 31.78125 6.390625 
Q 38.8125 6.390625 42.859375 10.171875 
Q 46.921875 13.96875 46.921875 20.515625 
Q 46.921875 27.09375 42.890625 30.859375 
Q 38.875 34.625 31.78125 34.625 
z
M 21.921875 38.8125 
Q 15.578125 40.375 12.03125 44.71875 
Q 8.5 49.078125 8.5 55.328125 
Q 8.5 64.0625 14.71875 69.140625 
Q 20.953125 74.21875 31.78125 74.21875 
Q 42.671875 74.21875 48.875 69.140625 
Q 55.078125 64.0625 55.078125 55.328125 
Q 55.078125 49.078125 51.53125 44.71875 
Q 48 40.375 41.703125 38.8125 
Q 48.828125 37.15625 52.796875 32.3125 
Q 56.78125 27.484375 56.78125 20.515625 
Q 56.78125 9.90625 50.3125 4.234375 
Q 43.84375 -1.421875 31.78125 -1.421875 
Q 19.734375 -1.421875 13.25 4.234375 
Q 6.78125 9.90625 6.78125 20.515625 
Q 6.78125 27.484375 10.78125 32.3125 
Q 14.796875 37.15625 21.921875 38.8125 
z
M 18.3125 54.390625 
Q 18.3125 48.734375 21.84375 45.5625 
Q 25.390625 42.390625 31.78125 42.390625 
Q 38.140625 42.390625 41.71875 45.5625 
Q 45.3125 48.734375 45.3125 54.390625 
Q 45.3125 60.0625 41.71875 63.234375 
Q 38.140625 66.40625 31.78125 66.40625 
Q 25.390625 66.40625 21.84375 63.234375 
Q 18.3125 60.0625 18.3125 54.390625 
z
" id="DejaVuSans-56"/>
       </defs>
       <use xlink:href="#DejaVuSans-8722"/>
       <use x="83.789062" xlink:href="#DejaVuSans-56"/>
       <use x="147.412109" xlink:href="#DejaVuSans-53"/>
      </g>
     </g>
    </g>
    <g id="ytick_5">
     <g id="line2d_12">
      <g>
       <use style="stroke:#000000;stroke-width:0.8;" x="54" xlink:href="#m03abd38efb" y="107.04"/>
      </g>
     </g>
     <g id="text_13">
      <!-- −80 -->
      <g transform="translate(25.895312 110.839219)scale(0.1 -0.1)">
       <use xlink:href="#DejaVuSans-8722"/>
       <use x="83.789062" xlink:href="#DejaVuSans-56"/>
       <use x="147.412109" xlink:href="#DejaVuSans-48"/>
      </g>
     </g>
    </g>
    <g id="ytick_6">
     <g id="line2d_13">
      <g>
       <use style="stroke:#000000;stroke-width:0.8;" x="54" xlink:href="#m03abd38efb" y="70.8"/>
      </g>
     </g>
     <g id="text_14">
      <!-- −75 -->
      <g transform="translate(25.895312 74.599219)scale(0.1 -0.1)">
       <defs>
        <path d="M 8.203125 72.90625 
L 55.078125 72.90625 
L 55.078125 68.703125 
L 28.609375 0 
L 18.3125 0 
L 43.21875 64.59375 
L 8.203125 64.59375 
z
" id="DejaVuSans-55"/>
       </defs>
       <use xlink:href="#DejaVuSans-8722"/>
       <use x="83.789062" xlink:href="#DejaVuSans-55"/>
       <use x="147.412109" xlink:href="#DejaVuSans-53"/>
      </g>
     </g>
    </g>
    <g id="ytick_7">
     <g id="line2d_14">
      <g>
       <use style="stroke:#000000;stroke-width:0.8;" x="54" xlink:href="#m03abd38efb" y="34.56"/>
      </g>
     </g>
     <g id="text_15">
      <!-- −70 -->
      <g transform="translate(25.895312 38.359219)scale(0.1 -0.1)">
       <use xlink:href="#DejaVuSans-8722"/>
       <use x="83.789062" xlink:href="#DejaVuSans-55"/>
       <use x="147.412109" xlink:href="#DejaVuSans-48"/>
      </g>
     </g>
    </g>
    <g id="text_16">
     <!-- Membrane potential (mV) -->
     <g transform="translate(13.453125 207.691719)rotate(-90)scale(0.1 -0.1)">
      <defs>
       <path d="M 9.8125 72.90625 
L 24.515625 72.90625 
L 43.109375 23.296875 
L 61.8125 72.90625 
L 76.515625 72.90625 
L 76.515625 0 
L 66.890625 0 
L 66.890625 64.015625 
L 48.09375 14.015625 
L 38.1875 14.015625 
L 19.390625 64.015625 
L 19.390625 0 
L 9.8125 0 
z
" id="DejaVuSans-77"/>
       <path d="M 48.6875 27.296875 
Q 48.6875 37.203125 44.609375 42.84375 
Q 40.53125 48.484375 33.40625 48.484375 
Q 26.265625 48.484375 22.1875 42.84375 
Q 18.109375 37.203125 18.109375 27.296875 
Q 18.109375 17.390625 22.1875 11.75 
Q 26.265625 6.109375 33.40625 6.109375 
Q 40.53125 6.109375 44.609375 11.75 
Q 48.6875 17.390625 48.6875 27.296875 
z
M 18.109375 46.390625 
Q 20.953125 51.265625 25.265625 53.625 
Q 29.59375 56 35.59375 56 
Q 45.5625 56 51.78125 48.09375 
Q 58.015625 40.1875 58.015625 27.296875 
Q 58.015625 14.40625 51.78125 6.484375 
Q 45.5625 -1.421875 35.59375 -1.421875 
Q 29.59375 -1.421875 25.265625 0.953125 
Q 20.953125 3.328125 18.109375 8.203125 
L 18.109375 0 
L 9.078125 0 
L 9.078125 75.984375 
L 18.109375 75.984375 
z
" id="DejaVuSans-98"/>
       <path d="M 41.109375 46.296875 
Q 39.59375 47.171875 37.8125 47.578125 
Q 36.03125 48 33.890625 48 
Q 26.265625 48 22.1875 43.046875 
Q 18.109375 38.09375 18.109375 28.8125 
L 18.109375 0 
L 9.078125 0 
L 9.078125 54.6875 
L 18.109375 54.6875 
L 18.109375 46.1875 
Q 20.953125 51.171875 25.484375 53.578125 
Q 30.03125 56 36.53125 56 
Q 37.453125 56 38.578125 55.875 
Q 39.703125 55.765625 41.0625 55.515625 
z
" id="DejaVuSans-114"/>
       <path d="M 34.28125 27.484375 
Q 23.390625 27.484375 19.1875 25 
Q 14.984375 22.515625 14.984375 16.5 
Q 14.984375 11.71875 18.140625 8.90625 
Q 21.296875 6.109375 26.703125 6.109375 
Q 34.1875 6.109375 38.703125 11.40625 
Q 43.21875 16.703125 43.21875 25.484375 
L 43.21875 27.484375 
z
M 52.203125 31.203125 
L 52.203125 0 
L 43.21875 0 
L 43.21875 8.296875 
Q 40.140625 3.328125 35.546875 0.953125 
Q 30.953125 -1.421875 24.3125 -1.421875 
Q 15.921875 -1.421875 10.953125 3.296875 
Q 6 8.015625 6 15.921875 
Q 6 25.140625 12.171875 29.828125 
Q 18.359375 34.515625 30.609375 34.515625 
L 43.21875 34.515625 
L 43.21875 35.40625 
Q 43.21875 41.609375 39.140625 45 
Q 35.0625 48.390625 27.6875 48.390625 
Q 23 48.390625 18.546875 47.265625 
Q 14.109375 46.140625 10.015625 43.890625 
L 10.015625 52.203125 
Q 14.9375 54.109375 19.578125 55.046875 
Q 24.21875 56 28.609375 56 
Q 40.484375 56 46.34375 49.84375 
Q 52.203125 43.703125 52.203125 31.203125 
z
" id="DejaVuSans-97"/>
       <path d="M 54.890625 33.015625 
L 54.890625 0 
L 45.90625 0 
L 45.90625 32.71875 
Q 45.90625 40.484375 42.875 44.328125 
Q 39.84375 48.1875 33.796875 48.1875 
Q 26.515625 48.1875 22.3125 43.546875 
Q 18.109375 38.921875 18.109375 30.90625 
L 18.109375 0 
L 9.078125 0 
L 9.078125 54.6875 
L 18.109375 54.6875 
L 18.109375 46.1875 
Q 21.34375 51.125 25.703125 53.5625 
Q 30.078125 56 35.796875 56 
Q 45.21875 56 50.046875 50.171875 
Q 54.890625 44.34375 54.890625 33.015625 
z
" id="DejaVuSans-110"/>
       <path id="DejaVuSans-32"/>
       <path d="M 18.109375 8.203125 
L 18.109375 -20.796875 
L 9.078125 -20.796875 
L 9.078125 54.6875 
L 18.109375 54.6875 
L 18.109375 46.390625 
Q 20.953125 51.265625 25.265625 53.625 
Q 29.59375 56 35.59375 56 
Q 45.5625 56 51.78125 48.09375 
Q 58.015625 40.1875 58.015625 27.296875 
Q 58.015625 14.40625 51.78125 6.484375 
Q 45.5625 -1.421875 35.59375 -1.421875 
Q 29.59375 -1.421875 25.265625 0.953125 
Q 20.953125 3.328125 18.109375 8.203125 
z
M 48.6875 27.296875 
Q 48.6875 37.203125 44.609375 42.84375 
Q 40.53125 48.484375 33.40625 48.484375 
Q 26.265625 48.484375 22.1875 42.84375 
Q 18.109375 37.203125 18.109375 27.296875 
Q 18.109375 17.390625 22.1875 11.75 
Q 26.265625 6.109375 33.40625 6.109375 
Q 40.53125 6.109375 44.609375 11.75 
Q 48.6875 17.390625 48.6875 27.296875 
z
" id="DejaVuSans-112"/>
       <path d="M 30.609375 48.390625 
Q 23.390625 48.390625 19.1875 42.75 
Q 14.984375 37.109375 14.984375 27.296875 
Q 14.984375 17.484375 19.15625 11.84375 
Q 23.34375 6.203125 30.609375 6.203125 
Q 37.796875 6.203125 41.984375 11.859375 
Q 46.1875 17.53125 46.1875 27.296875 
Q 46.1875 37.015625 41.984375 42.703125 
Q 37.796875 48.390625 30.609375 48.390625 
z
M 30.609375 56 
Q 42.328125 56 49.015625 48.375 
Q 55.71875 40.765625 55.71875 27.296875 
Q 55.71875 13.875 49.015625 6.21875 
Q 42.328125 -1.421875 30.609375 -1.421875 
Q 18.84375 -1.421875 12.171875 6.21875 
Q 5.515625 13.875 5.515625 27.296875 
Q 5.515625 40.765625 12.171875 48.375 
Q 18.84375 56 30.609375 56 
z
" id="DejaVuSans-111"/>
       <path d="M 18.3125 70.21875 
L 18.3125 54.6875 
L 36.8125 54.6875 
L 36.8125 47.703125 
L 18.3125 47.703125 
L 18.3125 18.015625 
Q 18.3125 11.328125 20.140625 9.421875 
Q 21.96875 7.515625 27.59375 7.515625 
L 36.8125 7.515625 
L 36.8125 0 
L 27.59375 0 
Q 17.1875 0 13.234375 3.875 
Q 9.28125 7.765625 9.28125 18.015625 
L 9.28125 47.703125 
L 2.6875 47.703125 
L 2.6875 54.6875 
L 9.28125 54.6875 
L 9.28125 70.21875 
z
" id="DejaVuSans-116"/>
       <path d="M 9.421875 75.984375 
L 18.40625 75.984375 
L 18.40625 0 
L 9.421875 0 
z
" id="DejaVuSans-108"/>
       <path d="M 28.609375 0 
L 0.78125 72.90625 
L 11.078125 72.90625 
L 34.1875 11.53125 
L 57.328125 72.90625 
L 67.578125 72.90625 
L 39.796875 0 
z
" id="DejaVuSans-86"/>
      </defs>
      <use xlink:href="#DejaVuSans-77"/>
      <use x="86.279297" xlink:href="#DejaVuSans-101"/>
      <use x="147.802734" xlink:href="#DejaVuSans-109"/>
      <use x="245.214844" xlink:href="#DejaVuSans-98"/>
      <use x="308.691406" xlink:href="#DejaVuSans-114"/>
      <use x="349.804688" xlink:href="#DejaVuSans-97"/>
      <use x="411.083984" xlink:href="#DejaVuSans-110"/>
      <use x="474.462891" xlink:href="#DejaVuSans-101"/>
      <use x="535.986328" xlink:href="#DejaVuSans-32"/>
      <use x="567.773438" xlink:href="#DejaVuSans-112"/>
      <use x="631.25" xlink:href="#DejaVuSans-111"/>
      <use x="692.431641" xlink:href="#DejaVuSans-116"/>
      <use x="731.640625" xlink:href="#DejaVuSans-101"/>
      <use x="793.164062" xlink:href="#DejaVuSans-110"/>
      <use x="856.542969" xlink:href="#DejaVuSans-116"/>
      <use x="895.751953" xlink:href="#DejaVuSans-105"/>
      <use x="923.535156" xlink:href="#DejaVuSans-97"/>
      <use x="984.814453" xlink:href="#DejaVuSans-108"/>
      <use x="1012.597656" xlink:href="#DejaVuSans-32"/>
      <use x="1044.384766" xlink:href="#DejaVuSans-40"/>
      <use x="1083.398438" xlink:href="#DejaVuSans-109"/>
      <use x="1180.810547" xlink:href="#DejaVuSans-86"/>
      <use x="1249.21875" xlink:href="#DejaVuSans-41"/>
     </g>
    </g>
   </g>
   <g id="line2d_15">
    <path clip-path="url(#p8c1886b35e)" d="M 69.218182 150.528 
L 69.2892 145.041153 
L 69.347536 145.998444 
L 69.766036 153.849883 
L 71.092555 169.194958 
L 71.658164 173.226971 
L 72.122318 175.231475 
L 72.129927 175.200477 
L 72.1908 173.793315 
L 72.540818 166.059344 
L 73.210418 161.705163 
L 73.299191 161.653751 
L 73.339773 161.696992 
L 73.481809 162.120146 
L 73.765882 163.82124 
L 74.597809 170.086626 
L 74.658682 169.530349 
L 74.919927 163.371328 
L 75.254727 157.215796 
L 75.442418 156.495524 
L 75.452564 156.498374 
L 75.5388 156.659833 
L 75.716345 157.601046 
L 76.106945 161.169948 
L 76.304782 162.96605 
L 76.360582 162.640154 
L 76.601536 158.878984 
L 76.888145 156.328292 
L 76.959164 155.171575 
L 77.5476 142.55441 
L 77.593255 142.580514 
L 77.618618 142.639829 
L 77.750509 143.382534 
L 78.019364 146.445703 
L 78.250173 149.33262 
L 78.318655 149.08615 
L 78.552 148.087994 
L 78.590045 148.127768 
L 78.699109 148.575301 
L 78.924845 150.661629 
L 79.711118 161.118063 
L 80.332527 167.382135 
L 80.8677 170.713813 
L 81.121336 171.700288 
L 81.161918 171.595314 
L 81.288736 170.391358 
L 81.735136 166.305232 
L 81.948191 165.901185 
L 82.072473 166.011333 
L 82.285527 166.592614 
L 82.767436 168.734943 
L 83.574 172.044691 
L 84.149755 173.507358 
L 84.722973 174.388976 
L 85.364673 174.973884 
L 85.585336 175.073282 
L 85.6107 175.013388 
L 85.717227 174.256616 
L 86.351318 168.892638 
L 86.5593 168.65085 
L 86.708945 168.795799 
L 86.965118 169.43825 
L 87.774218 172.381383 
L 88.403236 174.098578 
L 88.973918 175.046939 
L 89.450755 175.520596 
L 89.465973 175.495142 
L 89.531918 174.979774 
L 89.673955 171.763372 
L 90.122891 158.070268 
L 90.7443 152.529435 
L 90.822927 152.64643 
L 90.977645 153.426777 
L 91.294691 156.430425 
L 92.534973 169.045976 
L 93.072682 172.001657 
L 93.587564 173.682423 
L 94.110055 174.674847 
L 94.536164 175.161744 
L 94.551382 175.119362 
L 94.619864 174.125786 
L 95.094164 166.274393 
L 95.5431 163.373806 
L 95.773909 158.376042 
L 96.4638 145.701602 
L 96.5196 144.808897 
L 96.869618 138.771376 
L 96.897518 138.766677 
L 96.9381 138.858577 
L 97.062382 139.732212 
L 97.338845 143.614276 
L 98.218964 158.515802 
L 98.282373 157.681175 
L 98.591809 153.639105 
L 98.637464 153.606126 
L 98.688191 153.691744 
L 98.827691 154.421679 
L 99.165027 157.678228 
L 99.5328 161.492574 
L 99.5886 161.128418 
L 100.073045 156.642368 
L 100.471255 151.684493 
L 101.077445 140.976973 
L 101.171291 140.770621 
L 101.219482 140.832457 
L 101.341227 141.410383 
L 101.587255 143.900555 
L 102.223882 153.370863 
L 102.961964 162.836029 
L 103.352564 165.982048 
L 103.377927 165.94543 
L 103.459091 165.373025 
L 103.6062 162.028129 
L 104.4153 142.221093 
L 104.663864 139.901638 
L 104.719664 139.851386 
L 104.770391 139.930497 
L 104.899745 140.590303 
L 104.983445 140.955079 
L 105.036709 140.794204 
L 105.374045 138.975139 
L 105.455209 139.130035 
L 105.607391 140.086132 
L 105.906682 143.674655 
L 106.474827 151.920819 
L 106.561064 151.49262 
L 106.850209 149.891187 
L 106.867964 149.90016 
L 106.956736 150.128429 
L 107.144427 151.389455 
L 107.606045 156.440895 
L 108.417682 164.648421 
L 108.988364 168.274159 
L 109.531145 170.396201 
L 110.081536 171.706708 
L 110.289518 172.047579 
L 110.317418 171.924639 
L 110.406191 170.046246 
L 110.781573 162.456099 
L 110.9997 161.527608 
L 111.096082 161.569922 
L 111.106227 161.585857 
L 111.273627 162.086939 
L 111.6414 164.067447 
L 111.902645 165.652911 
L 111.938155 165.252695 
L 112.475864 156.719268 
L 112.879145 153.531595 
L 112.962845 153.089279 
L 113.498018 148.400777 
L 113.561427 148.470209 
L 113.700927 149.020528 
L 113.974855 151.200943 
L 115.3242 164.601347 
L 115.38 163.857344 
L 115.793427 157.273829 
L 115.889809 157.133078 
L 115.935464 157.180303 
L 116.0496 157.472363 
L 116.090182 157.250869 
L 116.255045 154.379777 
L 116.503609 151.992767 
L 116.572091 151.924176 
L 116.622818 151.991701 
L 116.762318 152.574211 
L 117.066682 155.02903 
L 117.708382 161.029104 
L 117.774327 160.715056 
L 118.279064 156.970605 
L 118.314573 156.990845 
L 118.436318 157.275924 
L 118.682345 158.55403 
L 119.242882 162.522276 
L 119.324045 162.024707 
L 119.778055 158.265111 
L 119.864291 158.295163 
L 119.882045 158.323135 
L 120.001255 158.652817 
L 120.026618 158.395589 
L 120.4857 151.347467 
L 120.533891 151.406429 
L 120.660709 151.980002 
L 120.947318 154.557077 
L 121.051309 155.235911 
L 121.104573 155.070228 
L 121.4622 153.21066 
L 121.530682 153.299084 
L 121.680327 153.938495 
L 121.994836 156.479317 
L 123.212291 166.979932 
L 123.772827 169.693613 
L 124.318145 171.312456 
L 124.581927 171.852894 
L 124.597145 171.68055 
L 124.764545 166.064734 
L 125.023255 161.630028 
L 125.188118 161.127463 
L 125.205873 161.13479 
L 125.309864 161.342588 
L 125.538136 162.434751 
L 127.047273 170.76153 
L 127.605273 172.242707 
L 128.079573 173.025508 
L 128.092255 173.002375 
L 128.155664 172.422023 
L 128.792291 164.765118 
L 128.893745 164.742566 
L 128.924182 164.774439 
L 129.086509 165.170091 
L 129.436527 166.753845 
L 130.448536 171.424619 
L 130.674273 172.093698 
L 130.712318 171.946646 
L 130.846745 170.1257 
L 131.244955 165.411591 
L 131.465618 164.798689 
L 131.582291 164.874457 
L 131.769982 165.37143 
L 132.178336 167.243343 
L 132.388855 168.287709 
L 132.4269 167.974392 
L 132.678 162.530844 
L 133.159909 151.728876 
L 133.236 151.601811 
L 133.286727 151.672325 
L 133.418618 152.29547 
L 133.7103 154.999337 
L 134.438236 162.520146 
L 134.496573 162.42129 
L 134.887173 161.40583 
L 134.9379 161.445397 
L 135.090082 161.805418 
L 135.376691 163.17856 
L 136.518055 169.790017 
L 136.573855 169.534282 
L 136.756473 166.854404 
L 137.050691 164.078925 
L 137.202873 163.029694 
L 137.684782 155.867345 
L 137.740582 155.85269 
L 137.7837 155.918277 
L 137.928273 156.517939 
L 138.242782 158.994964 
L 139.384145 168.489561 
L 139.937073 171.085416 
L 140.332745 172.268209 
L 140.347964 172.190209 
L 140.426591 170.196612 
L 140.746173 163.453693 
L 140.949082 162.64585 
L 141.040391 162.743324 
L 141.217936 163.392716 
L 141.671945 166.150749 
L 142.067618 168.462309 
L 142.110736 168.274612 
L 142.235018 166.29779 
L 142.798091 152.343194 
L 142.853891 152.297759 
L 142.902082 152.37237 
L 143.039045 153.031529 
L 143.338336 155.829305 
L 143.411891 156.42978 
L 143.472764 156.090861 
L 143.662991 153.172573 
L 143.962282 149.75425 
L 144.043445 149.628402 
L 144.094173 149.69529 
L 144.223527 150.27975 
L 144.489845 152.739396 
L 144.761236 154.552109 
L 144.877909 154.635364 
L 144.895664 154.548231 
L 144.989509 152.585025 
L 145.304018 147.185592 
L 145.4004 146.940873 
L 145.448591 147.004583 
L 145.572873 147.612551 
L 145.598236 147.768763 
L 145.636282 147.303062 
L 145.988836 141.99637 
L 146.004055 142.004078 
L 146.077609 142.246155 
L 146.250082 143.792221 
L 146.5722 148.194461 
L 146.658436 147.37503 
L 146.912073 145.432131 
L 146.975482 145.54528 
L 147.120055 146.272919 
L 147.188536 145.904964 
L 147.505582 143.566124 
L 147.546164 143.612255 
L 147.655227 144.114608 
L 147.888573 146.484408 
L 149.572718 166.433371 
L 150.107891 169.274056 
L 150.551755 170.73937 
L 150.564436 170.687329 
L 150.637991 169.174131 
L 151.0083 161.876826 
L 151.2036 161.225034 
L 151.206136 161.22542 
L 151.302518 161.359398 
L 151.497818 162.139425 
L 152.043136 165.555882 
L 152.694982 169.087656 
L 152.702591 169.075461 
L 152.750782 168.58257 
L 152.897891 164.18646 
L 153.2961 150.542226 
L 153.501545 149.237306 
L 153.572564 149.329697 
L 153.7146 150.058207 
L 154.0215 153.059024 
L 155.018291 163.927852 
L 155.056336 163.727413 
L 155.228809 160.893803 
L 155.482445 158.63527 
L 155.571218 158.541001 
L 155.616873 158.589622 
L 155.720864 158.855567 
L 155.753836 158.635247 
L 155.895873 155.339751 
L 156.182482 150.901101 
L 156.294082 150.619732 
L 156.3372 150.668754 
L 156.458945 151.168543 
L 156.720191 153.392503 
L 158.191282 167.486759 
L 158.292736 167.980421 
L 158.343464 167.754334 
L 158.5413 165.157315 
L 158.865955 162.235147 
L 159.053645 161.018933 
L 159.462 153.913106 
L 159.588818 152.908603 
L 160.0479 144.188919 
L 160.091018 144.156755 
L 160.141745 144.245458 
L 160.273636 144.988422 
L 160.560245 148.162056 
L 161.924809 164.758405 
L 162.016118 165.294151 
L 162.066845 165.03628 
L 162.267218 162.1051 
L 162.546218 159.689493 
L 162.607091 159.137732 
L 162.774491 150.791464 
L 163.045882 143.155794 
L 163.324882 138.839944 
L 163.540473 123.736017 
L 163.824545 111.714812 
L 164.1213 106.965998 
L 164.154273 106.928858 
L 164.205 107.053759 
L 164.298845 107.602937 
L 164.349573 107.201105 
L 164.618427 104.121375 
L 164.669155 104.243544 
L 164.788364 105.315211 
L 165.039464 110.010422 
L 165.161209 112.744139 
L 165.214473 111.659428 
L 165.582245 99.914158 
L 165.673555 99.499422 
L 165.937336 97.51025 
L 165.998209 97.659553 
L 166.142782 98.828993 
L 166.221409 98.223534 
L 166.373591 97.292056 
L 166.411636 97.358867 
L 166.513091 98.100225 
L 166.703318 100.957749 
L 166.794627 99.992723 
L 166.918909 99.171329 
L 166.962027 99.271328 
L 167.071091 100.285521 
L 167.271464 104.002571 
L 167.334873 102.423587 
L 167.753373 91.188432 
L 167.8041 91.042654 
L 167.857364 91.209852 
L 167.984182 92.657002 
L 168.790745 107.580088 
L 169.062136 111.334402 
L 169.150909 111.460781 
L 169.272655 112.235064 
L 170.195891 122.150182 
L 170.906073 137.122394 
L 170.997382 135.607301 
L 171.283991 131.519168 
L 171.327109 131.47043 
L 171.380373 131.575863 
L 171.512264 132.466231 
L 171.801409 136.293572 
L 171.859745 136.781247 
L 171.920618 136.413815 
L 172.174255 134.554143 
L 172.207227 134.586744 
L 172.306145 135.023213 
L 173.178655 141.622784 
L 173.531209 145.637036 
L 173.587009 145.457651 
L 173.701145 143.919613 
L 173.9421 137.572702 
L 174.249 131.830496 
L 174.3885 131.318449 
L 174.421473 131.347445 
L 174.522927 131.730952 
L 174.730909 133.578535 
L 175.1697 139.911773 
L 175.519718 143.774278 
L 175.948364 146.116487 
L 176.120836 147.459881 
L 176.1741 147.048652 
L 176.333891 143.316735 
L 176.744782 131.374109 
L 176.881745 130.79918 
L 176.914718 130.8345 
L 177.018709 131.289674 
L 177.186109 132.524861 
L 177.259664 132.17345 
L 177.510764 130.835796 
L 177.5412 130.863729 
L 177.640118 131.255136 
L 177.843027 133.190498 
L 178.0992 136.632757 
L 178.172755 135.951713 
L 178.286891 132.870967 
L 178.847427 106.623825 
L 178.984391 105.697918 
L 179.0199 105.750581 
L 179.118818 106.388707 
L 179.179691 106.80563 
L 179.235491 106.439572 
L 179.486591 104.119157 
L 179.537318 104.234535 
L 179.656527 105.255272 
L 179.907627 109.74106 
L 180.574691 126.193942 
L 180.660927 123.967639 
L 181.373645 100.172123 
L 181.409155 100.122721 
L 181.459882 100.261048 
L 181.584164 101.439534 
L 182.436382 114.471116 
L 183.0096 128.082946 
L 183.085691 127.063701 
L 183.491509 120.222504 
L 183.527018 120.013007 
L 183.892255 114.973594 
L 183.998782 115.382806 
L 184.229591 117.646553 
L 184.3488 117.163789 
L 184.435036 116.971229 
L 184.485764 117.058106 
L 184.604973 117.833935 
L 184.856073 120.984851 
L 184.937236 120.012987 
L 185.256818 115.885034 
L 185.343055 114.98099 
L 185.718436 111.098003 
L 185.761555 109.922891 
L 186.005045 92.598425 
L 186.370282 74.068655 
L 186.5529 72.092594 
L 186.565582 72.101829 
L 186.631527 72.392203 
L 186.786245 74.358239 
L 187.146409 82.567461 
L 187.717091 98.739853 
L 188.127982 110.237411 
L 188.178709 109.809759 
L 188.465318 106.959412 
L 188.495755 106.99303 
L 188.587064 107.467342 
L 188.779827 109.917385 
L 189.023318 114.041593 
L 189.096873 113.394765 
L 189.358118 111.049381 
L 189.373336 111.05909 
L 189.464645 111.260051 
L 189.517909 111.074626 
L 189.753791 109.869371 
L 189.814664 109.995538 
L 189.944018 110.96238 
L 190.190045 114.335871 
L 190.271209 113.362017 
L 190.621227 108.750263 
L 190.727755 108.592727 
L 190.925591 105.589981 
L 191.065091 104.731924 
L 191.1006 104.784739 
L 191.199518 105.415595 
L 191.412573 108.533618 
L 191.902091 119.77387 
L 193.018091 144.993048 
L 193.213391 147.697207 
L 193.266655 147.454131 
L 193.885527 140.775025 
L 194.215255 134.136716 
L 194.321782 133.797625 
L 194.3649 133.858842 
L 194.481573 134.467863 
L 194.735209 137.247262 
L 195.696491 151.194757 
L 195.775118 149.843599 
L 196.279855 137.702646 
L 196.353409 137.572188 
L 196.406673 137.654272 
L 196.538564 138.354224 
L 196.817564 141.307189 
L 197.6571 152.039892 
L 197.723045 151.532595 
L 198.1035 144.458255 
L 198.4104 140.049349 
L 198.489027 139.902832 
L 198.542291 139.97899 
L 198.674182 140.64335 
L 198.798464 141.641802 
L 198.836509 141.082766 
L 198.986155 134.256999 
L 199.551764 106.358662 
L 199.762282 103.71119 
L 199.818082 102.737491 
L 200.259409 93.712226 
L 200.312673 93.830168 
L 200.434418 94.845384 
L 200.685518 99.21593 
L 200.9772 103.136098 
L 200.997491 103.168347 
L 201.043145 102.975152 
L 201.352582 100.518607 
L 201.441355 100.790556 
L 201.598609 102.407263 
L 201.948627 105.79759 
L 202.179436 108.070861 
L 202.486336 112.514943 
L 202.572573 111.89514 
L 202.859182 109.595896 
L 202.876936 109.606663 
L 202.955564 109.867469 
L 203.122964 111.379556 
L 203.422255 115.593181 
L 203.513564 114.852703 
L 204.401291 102.306411 
L 204.703118 96.876918 
L 204.748773 96.806064 
L 204.7995 96.924209 
L 204.923782 97.944165 
L 205.841945 110.119132 
L 205.953545 112.137303 
L 206.024564 111.739488 
L 206.247764 109.107033 
L 206.483645 106.47504 
L 206.536909 106.600514 
L 206.661191 107.663761 
L 206.930045 112.297913 
L 207.571745 126.362913 
L 207.6732 125.609766 
L 208.053655 119.309128 
L 208.652236 103.452418 
L 208.720718 103.290003 
L 208.773982 103.391279 
L 208.898264 104.267035 
L 209.149364 107.953417 
L 209.304082 109.664819 
L 209.352273 109.649775 
L 209.428364 109.753636 
L 209.545036 110.490358 
L 209.768236 113.641379 
L 210.288191 124.988718 
L 210.590018 129.461019 
L 210.765027 129.907036 
L 210.950182 131.417503 
L 211.333173 136.815051 
L 211.860736 143.489174 
L 212.066182 144.376248 
L 212.104227 144.057213 
L 212.5557 138.047442 
L 212.614036 138.13496 
L 212.748464 138.849167 
L 213.037609 141.85211 
L 213.303927 143.775514 
L 213.443427 144.222348 
L 213.669164 145.942149 
L 213.798518 146.922802 
L 213.8391 146.54242 
L 213.965918 141.817433 
L 214.303255 131.566771 
L 214.4808 130.511393 
L 214.496018 130.518056 
L 214.597473 130.617777 
L 214.645664 130.512629 
L 214.873936 129.951995 
L 214.922127 130.009655 
L 215.043873 130.511148 
L 215.269609 132.595791 
L 215.561291 136.194782 
L 215.642455 135.727491 
L 215.860582 134.471118 
L 215.888482 134.49444 
L 215.967109 134.665919 
L 216.0153 134.496071 
L 216.337418 132.36783 
L 216.426191 132.572955 
L 216.588518 133.791238 
L 217.108473 137.973514 
L 217.253045 138.504824 
L 217.483855 140.419345 
L 217.986055 146.948511 
L 218.145845 148.955345 
L 218.204182 148.503021 
L 218.467964 143.502169 
L 218.795155 135.928108 
L 219.109664 132.960329 
L 219.160391 132.925768 
L 219.208582 133.003377 
L 219.337936 133.67088 
L 219.596645 136.426589 
L 220.273855 146.814835 
L 221.067736 157.460056 
L 221.306155 159.230722 
L 221.339127 159.190717 
L 221.465945 158.639831 
L 221.978291 155.191362 
L 222.295336 152.846678 
L 222.419618 152.699257 
L 222.455127 152.725947 
L 222.587018 153.049798 
L 222.835582 154.340966 
L 222.873627 153.726487 
L 223.1577 141.968611 
L 223.533082 129.811275 
L 223.672582 127.389632 
L 223.926218 124.120276 
L 224.042891 123.754606 
L 224.3295 119.968254 
L 224.585673 116.421563 
L 224.611036 116.418868 
L 224.649082 116.515237 
L 224.768291 117.478322 
L 225.024464 121.793323 
L 226.049155 140.704172 
L 226.602082 147.155404 
L 227.555755 158.491237 
L 227.578582 158.405533 
L 227.685109 156.861794 
L 227.849973 152.003844 
L 228.210136 134.450743 
L 228.390218 133.029941 
L 228.400364 133.03425 
L 228.468845 133.235834 
L 228.628636 134.597464 
L 228.993873 140.074009 
L 229.305845 143.496475 
L 229.681227 146.185319 
L 229.7142 146.363516 
L 229.77 145.986629 
L 230.158064 142.491534 
L 230.175818 142.500457 
L 230.264591 142.73388 
L 230.452282 144.02651 
L 230.779473 147.546473 
L 230.847955 146.669061 
L 231.367909 137.762928 
L 231.405955 137.809027 
L 231.515018 138.3382 
L 231.755973 140.869687 
L 233.516209 162.320283 
L 234.079282 165.543854 
L 234.642355 167.558964 
L 235.240936 168.91182 
L 235.925755 169.919555 
L 236.022136 170.023429 
L 236.050036 169.905468 
L 236.141345 168.220285 
L 236.846455 151.418468 
L 236.927618 151.32924 
L 236.975809 151.387705 
L 237.112773 151.9105 
L 237.394309 154.054921 
L 237.896509 158.396301 
L 237.962455 158.261628 
L 238.429145 156.726616 
L 238.490018 156.775511 
L 238.647273 157.165247 
L 238.933882 158.597313 
L 239.671964 163.837689 
L 240.379609 168.013822 
L 240.955364 170.170336 
L 241.523509 171.486684 
L 242.137309 172.365353 
L 242.517764 172.737192 
L 242.535518 172.661863 
L 242.626827 171.039699 
L 243.009818 159.721629 
L 243.326864 151.829367 
L 243.532309 150.709132 
L 243.6084 150.812521 
L 243.758045 151.565811 
L 244.072555 154.547634 
L 244.255173 156.577657 
L 244.300827 155.878521 
L 244.8639 144.481594 
L 245.038909 143.400112 
L 245.056664 143.410338 
L 245.137827 143.673911 
L 245.320445 145.232992 
L 245.771918 151.551466 
L 245.946927 154.094678 
L 245.997655 153.350037 
L 246.304555 148.807793 
L 246.340064 148.788964 
L 246.388255 148.882804 
L 246.525218 149.711415 
L 246.862555 153.486741 
L 247.062927 155.658583 
L 247.1238 155.389331 
L 247.184673 153.571982 
L 247.539764 143.146683 
L 247.656436 142.665077 
L 247.699555 142.723955 
L 247.816227 143.348813 
L 247.9887 144.717842 
L 248.062255 144.408963 
L 248.716636 139.039531 
L 249.259418 125.637634 
L 249.289855 125.620122 
L 249.335509 125.72154 
L 249.459791 126.64123 
L 249.723573 130.62135 
L 249.921409 133.351289 
L 249.977209 133.254626 
L 250.058373 133.149132 
L 250.106564 133.232574 
L 250.225773 133.970608 
L 250.474336 137.240055 
L 251.017118 146.677944 
L 251.108427 145.706371 
L 251.356991 143.587226 
L 251.4204 143.700005 
L 251.5599 144.592231 
L 251.889627 148.510574 
L 252.937145 161.270539 
L 253.0386 162.111649 
L 253.081718 161.610547 
L 253.571236 153.698707 
L 253.634645 153.66174 
L 253.682836 153.726743 
L 253.827409 154.286638 
L 254.149527 156.634472 
L 254.512227 159.669884 
L 254.568027 159.25215 
L 255.016964 154.791388 
L 255.100664 154.913502 
L 255.2706 155.691302 
L 255.673882 158.854092 
L 256.148182 162.585159 
L 256.196373 162.428731 
L 256.399282 160.586559 
L 256.683355 159.013066 
L 256.792418 158.949242 
L 256.825391 158.978906 
L 256.9725 159.336706 
L 257.218527 160.447485 
L 257.271791 160.022927 
L 257.771455 154.32838 
L 257.776527 154.329146 
L 257.860227 154.463876 
L 258.0327 155.298576 
L 258.091036 155.575138 
L 258.139227 155.277402 
L 258.281264 152.070931 
L 258.608455 146.351463 
L 258.727664 144.633244 
L 259.090364 136.166097 
L 259.163918 135.985274 
L 259.217182 136.081288 
L 259.346536 136.918473 
L 259.546909 138.982001 
L 259.623 138.473581 
L 259.853809 136.889329 
L 259.879173 136.911384 
L 259.967945 137.275043 
L 260.163245 139.238456 
L 260.241873 139.938577 
L 260.300209 139.605809 
L 260.647691 136.438933 
L 260.708564 136.548942 
L 260.840455 137.408661 
L 261.121991 141.039372 
L 261.322364 143.790317 
L 261.385773 143.430017 
L 261.616582 141.984688 
L 261.647018 142.013356 
L 261.745936 142.419094 
L 261.964064 144.484771 
L 262.575327 152.6293 
L 262.689464 151.872046 
L 262.983682 150.102354 
L 263.047091 150.114618 
L 263.077527 150.16625 
L 263.219564 150.738707 
L 263.508709 153.033525 
L 263.572118 153.365009 
L 263.627918 153.137819 
L 263.998227 150.758672 
L 264.0591 150.837989 
L 264.201136 151.47168 
L 264.508036 154.110372 
L 265.487073 163.411858 
L 265.525118 163.265372 
L 265.664618 161.407748 
L 265.976591 158.248836 
L 266.093264 158.066297 
L 266.133845 158.098816 
L 266.146527 158.111311 
L 266.166818 157.964741 
L 266.2911 154.74799 
L 266.557418 150.374696 
L 266.6538 150.145547 
L 266.701991 150.210456 
L 266.831345 150.811816 
L 267.125564 153.487422 
L 268.322727 165.127798 
L 268.543391 166.366487 
L 268.591582 166.215657 
L 268.748836 164.626415 
L 269.114073 161.615527 
L 269.3043 161.316897 
L 269.309373 161.31862 
L 269.433655 161.48664 
L 269.661927 162.270465 
L 270.217391 165.218464 
L 270.985909 168.833913 
L 271.333391 169.959819 
L 271.356218 169.795333 
L 271.477964 166.297745 
L 271.896464 156.894778 
L 272.145027 155.065038 
L 272.228727 154.992967 
L 272.274382 155.041222 
L 272.441782 155.544123 
L 272.477291 155.595065 
L 272.5128 155.431374 
L 272.616791 153.297411 
L 272.974418 146.66826 
L 273.113918 146.219523 
L 273.146891 146.245722 
L 273.253418 146.605679 
L 273.471545 148.312046 
L 273.966136 153.716036 
L 274.0752 153.266881 
L 274.415073 151.773105 
L 274.468336 151.666731 
L 274.569791 148.462763 
L 274.838645 142.786051 
L 274.932491 142.496107 
L 274.980682 142.572929 
L 275.104964 143.288636 
L 275.353527 145.944938 
L 275.4144 144.992561 
L 275.863336 135.763242 
L 275.898845 135.739861 
L 275.947036 135.834147 
L 276.076391 136.669062 
L 276.352855 140.230703 
L 277.400373 156.965019 
L 277.466318 155.855808 
L 278.194255 139.959889 
L 278.275418 139.774415 
L 278.326145 139.853584 
L 278.452964 140.559457 
L 278.729427 143.580993 
L 278.802982 142.521588 
L 279.049009 139.83626 
L 279.107345 139.931014 
L 279.272209 140.92463 
L 279.475118 141.903531 
L 279.513164 141.673907 
L 279.8784 138.127905 
L 279.944345 138.246809 
L 280.083845 139.125783 
L 280.3806 142.724262 
L 280.776273 148.09202 
L 280.847291 147.867658 
L 281.083173 147.022894 
L 281.118682 147.051683 
L 281.227745 147.408986 
L 281.450945 149.083987 
L 282.085036 156.171182 
L 282.800291 162.90876 
L 282.957545 163.880116 
L 283.005736 163.645894 
L 283.178209 161.021105 
L 283.482573 157.871939 
L 283.634755 157.59191 
L 283.660118 157.60413 
L 283.690555 157.509686 
L 283.781864 155.993889 
L 284.126809 150.796678 
L 284.2308 150.579411 
L 284.276455 150.627412 
L 284.403273 151.059956 
L 284.446391 150.734135 
L 285.2073 141.178331 
L 285.247882 141.212421 
L 285.362018 141.60938 
L 285.587755 143.380504 
L 286.087418 149.499851 
L 287.000509 160.144176 
L 287.013191 160.158492 
L 287.0487 159.979977 
L 287.241464 157.292343 
L 287.497636 155.387882 
L 287.591482 154.284966 
L 287.898382 151.223655 
L 287.961791 151.170188 
L 288.012518 151.241156 
L 288.088609 151.488319 
L 288.119045 151.220243 
L 288.753136 142.398544 
L 288.857127 142.238814 
L 288.900245 142.28312 
L 289.021991 142.724366 
L 289.257873 144.607124 
L 289.785436 151.083654 
L 290.292709 157.213359 
L 290.338364 156.921311 
L 290.797445 151.999551 
L 290.850709 152.05813 
L 290.985136 152.590088 
L 291.279355 154.876443 
L 291.408709 156.022055 
L 291.459436 155.555917 
L 291.705464 149.863328 
L 291.999682 145.708204 
L 292.123964 145.393691 
L 292.162009 145.429438 
L 292.276145 145.834098 
L 292.509491 147.655574 
L 293.146118 154.705779 
L 293.267864 154.061696 
L 293.539255 152.789635 
L 293.625491 152.908483 
L 293.668609 152.944601 
L 293.714264 152.843402 
L 294.120082 151.203887 
L 294.221536 151.359971 
L 294.404155 152.193953 
L 294.495464 152.754703 
L 294.541118 152.368036 
L 294.906355 148.589801 
L 294.977373 148.696055 
L 295.127018 149.48838 
L 295.461818 152.750425 
L 295.733209 155.617807 
L 295.791545 155.22955 
L 296.037573 151.04958 
L 296.382518 145.535425 
L 296.620936 140.838052 
L 296.864427 138.443318 
L 296.912618 138.406698 
L 296.960809 138.48795 
L 297.090164 139.190469 
L 297.356482 142.12787 
L 298.094564 152.993502 
L 298.190945 151.933495 
L 298.761627 143.794253 
L 298.774309 143.797804 
L 298.855473 143.969813 
L 299.025409 145.001411 
L 299.3805 148.832806 
L 299.793927 154.081238 
L 299.839582 153.212025 
L 301.087473 116.459574 
L 301.244727 115.232781 
L 301.270091 115.263036 
L 301.358864 115.753478 
L 301.473 116.93835 
L 301.5288 116.27431 
L 301.678445 109.949983 
L 301.932082 103.55898 
L 301.992955 103.367655 
L 302.048755 103.531055 
L 302.178109 104.879392 
L 302.459645 110.671013 
L 303.352445 132.939658 
L 303.461509 132.739224 
L 303.5097 132.721576 
L 303.552818 132.797904 
L 303.674564 133.49033 
L 303.925664 136.51443 
L 304.443082 144.582281 
L 304.544536 144.054348 
L 304.930064 142.396492 
L 305.069564 141.941181 
L 305.498209 135.857491 
L 305.538791 135.904247 
L 305.779745 136.564364 
L 305.840618 136.339398 
L 305.985191 134.296682 
L 306.1323 129.454654 
L 306.510218 118.234118 
L 306.664936 117.373747 
L 306.692836 117.398958 
L 306.784145 117.793468 
L 306.976909 119.853304 
L 307.364973 126.890332 
L 307.953409 139.278626 
L 308.021891 138.281978 
L 308.338936 133.417799 
L 308.371909 133.39787 
L 308.417564 133.491071 
L 308.544382 134.340444 
L 308.828455 138.106032 
L 309.254564 145.070834 
L 309.325582 144.251955 
L 309.612191 141.1565 
L 309.6477 141.157539 
L 309.685745 141.234114 
L 309.817636 141.979963 
L 309.825245 142.011841 
L 309.863291 141.595621 
L 310.210773 136.752535 
L 310.225991 136.761093 
L 310.302082 137.009796 
L 310.479627 138.561897 
L 310.667318 140.840588 
L 310.730727 140.213183 
L 311.035091 137.226342 
L 311.0985 137.333375 
L 311.235464 138.196759 
L 311.369891 139.567033 
L 311.418082 138.854842 
L 311.897455 130.495615 
L 312.044564 129.912105 
L 312.075 129.938277 
L 312.173918 130.312653 
L 312.321027 131.500139 
L 312.359073 130.794658 
L 312.787718 120.577011 
L 313.145345 120.278669 
L 313.196073 120.384261 
L 313.338109 121.14684 
L 313.589209 123.953584 
L 313.789582 126.5684 
L 313.850455 126.090138 
L 314.578391 117.087811 
L 314.705209 116.562897 
L 314.745791 116.617242 
L 314.852318 117.207001 
L 315.072982 119.96768 
L 315.390027 123.233802 
L 315.704536 126.303678 
L 316.199127 133.97022 
L 316.716545 142.223302 
L 316.774882 142.011491 
L 316.982864 141.146817 
L 317.020909 141.187425 
L 317.135045 141.649822 
L 317.381073 143.794594 
L 319.113409 161.184501 
L 319.235155 161.781665 
L 319.283345 161.575634 
L 319.369582 159.54743 
L 320.117809 137.686254 
L 320.204045 137.537413 
L 320.254773 137.6009 
L 320.384127 138.171094 
L 320.642836 140.538572 
L 321.274391 148.984982 
L 321.974427 157.374112 
L 321.989645 157.337798 
L 322.068273 156.431763 
L 322.405609 152.828216 
L 322.484236 152.748677 
L 322.532427 152.803174 
L 322.674464 153.304901 
L 322.986436 155.423175 
L 323.5419 159.923081 
L 323.577409 159.261546 
L 324.487964 133.807716 
L 324.528545 133.81567 
L 324.561518 133.883784 
L 324.690873 134.596984 
L 324.957191 137.583681 
L 325.4949 145.761318 
L 325.576064 144.631967 
L 325.931155 139.237297 
L 326.057973 137.974642 
L 326.484082 133.465723 
L 326.542418 133.427614 
L 326.590609 133.499157 
L 326.7225 134.109981 
L 326.976136 136.555013 
L 327.5316 144.594672 
L 328.345773 155.564139 
L 328.348309 155.563028 
L 328.3965 155.3861 
L 328.850509 152.596424 
L 328.931673 152.694009 
L 329.099073 153.327293 
L 329.449091 155.716756 
L 329.717945 157.496675 
L 329.771209 157.380124 
L 329.984264 156.080379 
L 330.232827 155.2827 
L 330.346964 155.349053 
L 330.5169 155.83739 
L 330.724882 156.69219 
L 330.790827 156.497654 
L 331.282882 154.108547 
L 331.343755 154.160431 
L 331.4934 154.585337 
L 331.780009 156.215629 
L 332.571355 161.823673 
L 332.6094 161.259461 
L 333.180082 144.989343 
L 333.271391 144.830861 
L 333.319582 144.890754 
L 333.451473 145.441338 
L 333.727936 147.770542 
L 333.900409 149.385541 
L 333.956209 149.010976 
L 334.334127 145.384644 
L 334.364564 145.40607 
L 334.481236 145.761055 
L 334.516745 145.79334 
L 334.5624 145.691126 
L 334.633418 144.497268 
L 335.051918 137.016248 
L 335.140691 136.831272 
L 335.188882 136.895735 
L 335.313164 137.49511 
L 335.5668 140.048704 
L 335.987836 145.555759 
L 336.074073 145.029022 
L 336.325173 143.588 
L 336.337855 143.593662 
L 336.419018 143.794343 
L 336.596564 144.99562 
L 336.733527 145.547794 
L 336.771573 145.518174 
L 337.032818 145.178185 
L 337.091155 145.257093 
L 337.169782 145.365167 
L 337.217973 145.265362 
L 337.339718 144.422246 
L 337.484291 140.465626 
L 337.816555 133.276737 
L 338.082873 131.943482 
L 338.141209 131.935093 
L 338.179255 131.994741 
L 338.306073 132.55294 
L 338.539418 134.788516 
L 339.013718 141.962663 
L 339.297791 146.335964 
L 339.343445 145.691289 
L 339.893836 134.663726 
L 339.972464 134.529344 
L 340.023191 134.601982 
L 340.621773 136.466884 
L 340.883018 138.4232 
L 340.976864 138.055993 
L 341.235573 137.051182 
L 341.255864 137.061355 
L 341.347173 137.287685 
L 341.524718 138.471828 
L 341.801182 141.310599 
L 341.877273 140.65412 
L 341.993945 137.139913 
L 342.4023 118.813982 
L 342.554482 117.807617 
L 342.579845 117.833987 
L 342.668618 118.258245 
L 342.863918 120.529771 
L 343.2951 128.731389 
L 344.012891 141.626473 
L 344.707855 148.266364 
L 345.773127 159.338852 
L 345.790882 159.264168 
L 345.902482 157.531611 
L 346.189091 154.431871 
L 346.295618 154.262319 
L 346.338736 154.301067 
L 346.470627 154.705644 
L 346.757236 156.476678 
L 346.957609 157.995574 
L 346.988045 157.394048 
L 347.609455 139.849315 
L 347.825045 138.046636 
L 347.885918 138.126714 
L 347.888455 138.134337 
L 348.017809 138.891572 
L 348.304418 142.187043 
L 348.705164 147.584201 
L 348.776182 147.134481 
L 349.222582 143.42426 
L 349.235264 143.428832 
L 349.3215 143.611587 
L 349.496509 144.643595 
L 349.537091 144.967944 
L 349.5726 144.391216 
L 349.953055 136.929264 
L 349.986027 136.921135 
L 350.026609 137.004912 
L 350.155964 137.810898 
L 350.452718 141.406784 
L 351.315082 152.402046 
L 351.332836 152.395337 
L 351.467264 152.165606 
L 351.746264 151.388288 
L 352.187591 147.600644 
L 352.491955 144.076488 
L 352.575655 143.946263 
L 352.626382 144.011315 
L 352.758273 144.588052 
L 353.029664 146.994332 
L 353.866664 156.577066 
L 353.957973 155.849246 
L 354.313064 152.817371 
L 354.376473 152.795166 
L 354.419591 152.853894 
L 354.564164 153.394003 
L 354.713809 154.053268 
L 354.772145 153.909863 
L 355.091727 152.033391 
L 355.591391 142.799666 
L 355.649727 142.886759 
L 355.784155 143.607041 
L 355.913509 144.722595 
L 355.9617 144.122905 
L 356.164609 138.333585 
L 356.486727 124.946457 
L 356.621155 124.058597 
L 356.654127 124.108907 
L 356.755582 124.744189 
L 357.004145 128.110795 
L 357.1335 128.853791 
L 357.163936 128.673909 
L 357.305973 125.775605 
L 357.552 122.879736 
L 357.584973 122.859776 
L 357.633164 122.960261 
L 357.759982 123.837317 
L 358.0263 127.576917 
L 358.596982 138.3704 
L 358.693364 137.174655 
L 358.916564 135.290456 
L 358.921636 135.291891 
L 358.985045 135.446595 
L 359.010409 135.565922 
L 359.035773 135.228797 
L 359.4771 124.991483 
L 359.540509 125.139884 
L 359.860091 126.079708 
L 359.984373 126.425216 
L 360.1746 127.788972 
L 360.517009 132.195688 
L 362.216373 156.286929 
L 362.6577 159.757662 
L 362.6856 159.652035 
L 362.7972 157.938088 
L 363.144682 149.349739 
L 363.469336 140.973547 
L 363.651955 140.035344 
L 363.6621 140.0387 
L 363.740727 140.217023 
L 363.910664 141.319517 
L 364.280973 145.521151 
L 365.4198 158.810722 
L 366.013309 163.022924 
L 366.586527 165.605114 
L 367.152136 167.211662 
L 367.192718 167.084314 
L 367.398164 165.233285 
L 367.661945 163.996564 
L 367.809055 163.936752 
L 367.821736 163.945694 
L 367.978991 164.175638 
L 367.999282 163.982419 
L 368.148927 159.83502 
L 368.587718 147.425767 
L 368.719609 146.96383 
L 368.755118 146.996948 
L 368.864182 147.405737 
L 369.1026 149.360229 
L 369.518564 153.892829 
L 369.589582 153.228501 
L 369.734155 147.152948 
L 370.178018 132.076427 
L 370.434191 127.188247 
L 370.763918 125.179601 
L 370.766455 125.180004 
L 370.837473 125.312179 
L 370.976973 126.204874 
L 371.151982 127.900025 
L 371.217927 127.411254 
L 371.649109 122.031781 
L 371.709982 122.149929 
L 371.841873 123.065731 
L 372.105655 126.790699 
L 372.775255 136.558995 
L 372.894464 137.099695 
L 373.115127 139.395388 
L 373.523482 143.334833 
L 373.581818 143.744229 
L 373.581818 143.744229 
" style="fill:none;stroke:#000000;stroke-linecap:square;stroke-width:1.5;"/>
   </g>
   <g id="line2d_16">
    <path clip-path="url(#p8c1886b35e)" d="M 69.218182 150.528 
L 69.2892 145.041153 
L 69.347536 145.998444 
L 69.766036 153.849883 
L 71.092555 169.194958 
L 71.658164 173.226971 
L 72.122318 175.231475 
L 72.129927 175.200477 
L 72.1908 173.793315 
L 72.540818 166.059344 
L 73.210418 161.705163 
L 73.299191 161.653751 
L 73.339773 161.696992 
L 73.481809 162.120146 
L 73.765882 163.82124 
L 74.597809 170.086626 
L 74.658682 169.530349 
L 74.919927 163.371328 
L 75.254727 157.215796 
L 75.442418 156.495524 
L 75.452564 156.498374 
L 75.5388 156.659833 
L 75.716345 157.601046 
L 76.106945 161.169948 
L 76.304782 162.96605 
L 76.360582 162.640154 
L 76.601536 158.878984 
L 76.888145 156.328292 
L 76.959164 155.171575 
L 77.5476 142.55441 
L 77.593255 142.580514 
L 77.618618 142.639829 
L 77.750509 143.382534 
L 78.019364 146.445703 
L 78.250173 149.33262 
L 78.318655 149.08615 
L 78.552 148.087994 
L 78.590045 148.127768 
L 78.699109 148.575301 
L 78.924845 150.661629 
L 79.711118 161.118063 
L 80.332527 167.382135 
L 80.8677 170.713813 
L 81.121336 171.700288 
L 81.161918 171.595314 
L 81.288736 170.391358 
L 81.735136 166.305232 
L 81.948191 165.901185 
L 82.072473 166.011333 
L 82.285527 166.592614 
L 82.767436 168.734943 
L 83.574 172.044691 
L 84.149755 173.507358 
L 84.722973 174.388976 
L 85.364673 174.973884 
L 85.585336 175.073282 
L 85.6107 175.013388 
L 85.717227 174.256616 
L 86.351318 168.892638 
L 86.5593 168.65085 
L 86.708945 168.795799 
L 86.965118 169.43825 
L 87.774218 172.381383 
L 88.403236 174.098578 
L 88.973918 175.046939 
L 89.450755 175.520596 
L 89.465973 175.495142 
L 89.531918 174.979774 
L 89.673955 171.763372 
L 90.122891 158.070268 
L 90.7443 152.529435 
L 90.822927 152.64643 
L 90.977645 153.426777 
L 91.294691 156.430425 
L 92.534973 169.045976 
L 93.072682 172.001657 
L 93.587564 173.682423 
L 94.110055 174.674847 
L 94.536164 175.161744 
L 94.551382 175.119362 
L 94.619864 174.125786 
L 95.094164 166.274393 
L 95.5431 163.373806 
L 95.773909 158.376042 
L 96.4638 145.701602 
L 96.5196 144.808897 
L 96.869618 138.771376 
L 96.897518 138.766677 
L 96.9381 138.858577 
L 97.062382 139.732212 
L 97.338845 143.614276 
L 98.218964 158.515802 
L 98.282373 157.681175 
L 98.591809 153.639105 
L 98.637464 153.606126 
L 98.688191 153.691744 
L 98.827691 154.421679 
L 99.165027 157.678228 
L 99.5328 161.492574 
L 99.5886 161.128418 
L 100.073045 156.642368 
L 100.471255 151.684493 
L 101.077445 140.976973 
L 101.171291 140.770621 
L 101.219482 140.832457 
L 101.341227 141.410383 
L 101.587255 143.900555 
L 102.223882 153.370863 
L 102.961964 162.836029 
L 103.352564 165.982048 
L 103.377927 165.94543 
L 103.459091 165.373025 
L 103.6062 162.028129 
L 104.4153 142.221093 
L 104.663864 139.901638 
L 104.719664 139.851386 
L 104.770391 139.930497 
L 104.899745 140.590303 
L 104.983445 140.955079 
L 105.036709 140.794204 
L 105.374045 138.975139 
L 105.455209 139.130035 
L 105.607391 140.086132 
L 105.906682 143.674655 
L 106.474827 151.920819 
L 106.561064 151.49262 
L 106.850209 149.891187 
L 106.867964 149.90016 
L 106.956736 150.128429 
L 107.144427 151.389455 
L 107.606045 156.440895 
L 108.417682 164.648421 
L 108.988364 168.274159 
L 109.531145 170.396201 
L 110.081536 171.706708 
L 110.289518 172.047579 
L 110.317418 171.924639 
L 110.406191 170.046246 
L 110.781573 162.456099 
L 110.9997 161.527608 
L 111.096082 161.569922 
L 111.106227 161.585857 
L 111.273627 162.086939 
L 111.6414 164.067447 
L 111.902645 165.652911 
L 111.938155 165.252695 
L 112.475864 156.719268 
L 112.879145 153.531595 
L 112.962845 153.089279 
L 113.498018 148.400777 
L 113.561427 148.470209 
L 113.700927 149.020528 
L 113.974855 151.200943 
L 115.3242 164.601347 
L 115.38 163.857344 
L 115.793427 157.273829 
L 115.889809 157.133078 
L 115.935464 157.180303 
L 116.0496 157.472363 
L 116.090182 157.250869 
L 116.255045 154.379777 
L 116.503609 151.992767 
L 116.572091 151.924176 
L 116.622818 151.991701 
L 116.762318 152.574211 
L 117.066682 155.02903 
L 117.708382 161.029104 
L 117.774327 160.715056 
L 118.279064 156.970605 
L 118.314573 156.990845 
L 118.436318 157.275924 
L 118.682345 158.55403 
L 119.242882 162.522276 
L 119.324045 162.024707 
L 119.778055 158.265111 
L 119.864291 158.295163 
L 119.882045 158.323135 
L 120.001255 158.652817 
L 120.026618 158.395589 
L 120.4857 151.347467 
L 120.533891 151.406429 
L 120.660709 151.980002 
L 120.947318 154.557077 
L 121.051309 155.235911 
L 121.104573 155.070228 
L 121.4622 153.21066 
L 121.530682 153.299084 
L 121.680327 153.938495 
L 121.994836 156.479317 
L 123.212291 166.979932 
L 123.772827 169.693613 
L 124.318145 171.312456 
L 124.581927 171.852894 
L 124.597145 171.68055 
L 124.764545 166.064734 
L 125.023255 161.630028 
L 125.188118 161.127463 
L 125.205873 161.13479 
L 125.309864 161.342588 
L 125.538136 162.434751 
L 127.047273 170.76153 
L 127.605273 172.242707 
L 128.079573 173.025508 
L 128.092255 173.002375 
L 128.155664 172.422023 
L 128.792291 164.765118 
L 128.893745 164.742566 
L 128.924182 164.774439 
L 129.086509 165.170091 
L 129.436527 166.753845 
L 130.448536 171.424619 
L 130.674273 172.093698 
L 130.712318 171.946646 
L 130.846745 170.1257 
L 131.244955 165.411591 
L 131.465618 164.798689 
L 131.582291 164.874457 
L 131.769982 165.37143 
L 132.178336 167.243343 
L 132.388855 168.287709 
L 132.4269 167.974392 
L 132.678 162.530844 
L 133.159909 151.728876 
L 133.236 151.601811 
L 133.286727 151.672325 
L 133.418618 152.29547 
L 133.7103 154.999337 
L 134.438236 162.520146 
L 134.496573 162.42129 
L 134.887173 161.40583 
L 134.9379 161.445397 
L 135.090082 161.805418 
L 135.376691 163.17856 
L 136.518055 169.790017 
L 136.573855 169.534282 
L 136.756473 166.854404 
L 137.050691 164.078925 
L 137.202873 163.029694 
L 137.684782 155.867345 
L 137.740582 155.85269 
L 137.7837 155.918277 
L 137.928273 156.517939 
L 138.242782 158.994964 
L 139.384145 168.489561 
L 139.937073 171.085416 
L 140.332745 172.268005 
L 140.347964 172.189938 
L 140.426591 170.195849 
L 140.746173 163.448936 
L 140.949082 162.63743 
L 141.040391 162.73306 
L 141.217936 163.378596 
L 141.671945 166.125579 
L 142.067618 168.426707 
L 142.110736 168.23785 
L 142.235018 166.257555 
L 142.798091 152.286623 
L 142.853891 152.239646 
L 142.904618 152.3194 
L 143.041582 152.985539 
L 143.343409 155.813877 
L 143.411891 156.356334 
L 143.472764 156.015754 
L 143.662991 153.091954 
L 143.962282 149.664493 
L 144.043445 149.536273 
L 144.094173 149.601707 
L 144.223527 150.182531 
L 144.489845 152.634844 
L 144.761236 154.440012 
L 144.877909 154.519927 
L 144.895664 154.43231 
L 144.989509 152.466686 
L 145.304018 147.058819 
L 145.4004 146.811576 
L 145.448591 146.874043 
L 145.570336 147.461123 
L 145.598236 147.634411 
L 145.636282 147.167855 
L 145.991373 141.852404 
L 146.004055 141.859606 
L 146.077609 142.099757 
L 146.250082 143.641401 
L 146.5722 148.035513 
L 146.658436 147.214176 
L 146.912073 145.264892 
L 146.975482 145.376403 
L 147.120055 146.100453 
L 147.188536 145.730945 
L 147.505582 143.384235 
L 147.546164 143.429385 
L 147.655227 143.929204 
L 147.888573 146.293861 
L 149.575255 166.228626 
L 150.110427 169.057007 
L 150.551755 170.507743 
L 150.564436 170.455606 
L 150.637991 168.941974 
L 151.010836 161.619229 
L 151.206136 160.982999 
L 151.302518 161.115147 
L 151.497818 161.891671 
L 152.0406 165.28352 
L 152.694982 168.824364 
L 152.702591 168.81211 
L 152.750782 168.318863 
L 152.897891 163.921002 
L 153.2961 150.267844 
L 153.501545 148.95907 
L 153.572564 149.050255 
L 153.7146 149.776362 
L 154.0215 152.771608 
L 155.018291 163.625575 
L 155.056336 163.424912 
L 155.228809 160.589512 
L 155.482445 158.327802 
L 155.571218 158.232576 
L 155.616873 158.280723 
L 155.720864 158.545624 
L 155.753836 158.325074 
L 155.895873 155.028194 
L 156.182482 150.584449 
L 156.294082 150.301374 
L 156.3372 150.349799 
L 156.458945 150.848024 
L 156.720191 153.068793 
L 158.193818 167.169239 
L 158.292736 167.64794 
L 158.343464 167.422027 
L 158.5413 164.824053 
L 158.865955 161.897123 
L 159.053645 160.678805 
L 159.462 153.567644 
L 159.588818 152.561449 
L 160.0479 143.834964 
L 160.093555 143.803501 
L 160.141745 143.890254 
L 160.273636 144.631664 
L 160.560245 147.801913 
L 161.924809 164.390146 
L 162.016118 164.926472 
L 162.066845 164.668959 
L 162.267218 161.737308 
L 162.546218 159.31921 
L 162.607091 158.767195 
L 162.774491 150.421099 
L 163.045882 142.781892 
L 163.324882 138.465379 
L 163.540473 123.362607 
L 163.824545 111.349869 
L 164.1213 106.625299 
L 164.154273 106.591278 
L 164.202464 106.709548 
L 164.298845 107.278899 
L 164.349573 106.881825 
L 164.615891 103.826344 
L 164.669155 103.953489 
L 164.7909 105.068424 
L 165.047073 109.920451 
L 165.161209 112.479375 
L 165.214473 111.395555 
L 165.582245 99.657099 
L 165.671018 99.266272 
L 165.9348 97.270068 
L 165.998209 97.42575 
L 166.142782 98.611707 
L 166.223945 97.988988 
L 166.373591 97.099932 
L 166.411636 97.170027 
L 166.515627 97.946969 
L 166.703318 100.78525 
L 166.792091 99.854892 
L 166.918909 99.004269 
L 166.962027 99.104869 
L 167.071091 100.119939 
L 167.271464 103.835641 
L 167.334873 102.256146 
L 167.753373 91.024735 
L 167.8041 90.880828 
L 167.857364 91.050238 
L 167.984182 92.503091 
L 168.795818 107.545301 
L 169.062136 111.166081 
L 169.150909 111.285889 
L 169.270118 112.026887 
L 170.183209 121.644702 
L 170.906073 136.793895 
L 170.999918 135.212374 
L 171.283991 131.161918 
L 171.329645 131.111298 
L 171.380373 131.212636 
L 171.509727 132.072061 
L 171.7938 135.792423 
L 171.859745 136.396342 
L 171.918082 136.052593 
L 172.176791 134.159689 
L 172.2123 134.201647 
L 172.318827 134.712986 
L 172.724645 136.827218 
L 172.973209 138.811696 
L 173.531209 145.216112 
L 173.637736 144.518096 
L 173.838109 140.335437 
L 174.241391 131.467102 
L 174.3885 130.895729 
L 174.418936 130.92112 
L 174.517855 131.28131 
L 174.720764 133.044076 
L 175.146873 139.124434 
L 175.522255 143.359038 
L 175.943291 145.644918 
L 176.120836 147.027518 
L 176.1741 146.616495 
L 176.333891 142.884821 
L 176.744782 130.950801 
L 176.879209 130.380227 
L 176.914718 130.41678 
L 177.018709 130.874217 
L 177.186109 132.111568 
L 177.259664 131.760946 
L 177.510764 130.423909 
L 177.5412 130.451848 
L 177.640118 130.843303 
L 177.843027 132.778659 
L 178.0992 136.219914 
L 178.172755 135.539098 
L 178.286891 132.458972 
L 178.847427 106.225554 
L 178.984391 105.310341 
L 179.017364 105.358694 
L 179.116282 105.988384 
L 179.179691 106.435154 
L 179.235491 106.074097 
L 179.484055 103.774123 
L 179.534782 103.883039 
L 179.651455 104.861703 
L 179.900018 109.256515 
L 180.574691 125.866254 
L 180.663464 123.536817 
L 181.371109 99.852583 
L 181.406618 99.796203 
L 181.459882 99.938795 
L 181.5867 101.160451 
L 182.454136 114.596025 
L 183.0096 127.767621 
L 183.083155 126.802036 
L 183.496582 119.878608 
L 183.529555 119.642113 
L 183.892255 114.632898 
L 183.9861 114.954308 
L 184.158573 116.838794 
L 184.229591 117.305893 
L 184.290464 117.112387 
L 184.435036 116.630332 
L 184.483227 116.709085 
L 184.597364 117.421352 
L 184.856073 120.641341 
L 184.939773 119.618895 
L 185.254282 115.551124 
L 185.335445 114.748034 
L 185.814818 106.377108 
L 186.423545 72.799746 
L 186.550364 71.893806 
L 186.588409 71.97058 
L 186.6924 72.821159 
L 186.9156 76.889958 
L 187.623245 95.824022 
L 188.125445 110.204825 
L 188.183782 109.70022 
L 188.467855 106.887918 
L 188.488145 106.904585 
L 188.566773 107.235223 
L 188.736709 109.135079 
L 189.020782 113.917908 
L 189.109555 113.082379 
L 189.358118 110.896189 
L 189.368264 110.900164 
L 189.467182 111.097263 
L 189.520445 110.895792 
L 189.753791 109.692134 
L 189.812127 109.80587 
L 189.936409 110.696726 
L 190.190045 114.139563 
L 190.273745 113.112858 
L 190.618691 108.538406 
L 190.732827 108.326931 
L 191.065091 104.516621 
L 191.166545 104.918963 
L 191.344091 107.116832 
L 191.729618 115.287396 
L 193.147445 146.89114 
L 193.213391 147.373 
L 193.269191 147.104201 
L 193.898209 140.041825 
L 194.212718 133.801051 
L 194.321782 133.443201 
L 194.3649 133.504121 
L 194.481573 134.112558 
L 194.735209 136.891119 
L 195.696491 150.837074 
L 195.775118 149.486952 
L 196.279855 137.349099 
L 196.353409 137.219652 
L 196.406673 137.302509 
L 196.538564 138.004349 
L 196.817564 140.960354 
L 197.6571 151.697491 
L 197.723045 151.190883 
L 198.100964 144.173777 
L 198.4104 139.7084 
L 198.489027 139.562245 
L 198.542291 139.638711 
L 198.674182 140.303935 
L 198.798464 141.303227 
L 198.836509 140.744793 
L 198.986155 133.921428 
L 199.551764 106.041664 
L 199.759745 103.423618 
L 199.807936 102.702142 
L 200.256873 93.46236 
L 200.292382 93.512936 
L 200.3913 94.144724 
L 200.599282 97.23997 
L 200.994955 102.977389 
L 201.007636 102.963656 
L 201.073582 102.514918 
L 201.352582 100.33946 
L 201.390627 100.393569 
L 201.492082 100.993767 
L 201.725427 104.097332 
L 202.024718 106.205655 
L 202.275818 109.320012 
L 202.486336 112.33909 
L 202.549745 111.968304 
L 202.859182 109.416299 
L 202.9023 109.475784 
L 203.0139 110.0886 
L 203.239636 112.836179 
L 203.422255 115.420664 
L 203.4882 114.979485 
L 204.246573 105.27146 
L 204.7437 96.680983 
L 204.786818 96.755311 
L 204.895882 97.521509 
L 205.704982 107.104941 
L 205.953545 112.018119 
L 206.037245 111.517094 
L 206.242691 109.079233 
L 206.483645 106.331138 
L 206.536909 106.455031 
L 206.661191 107.514876 
L 206.930045 112.140492 
L 207.571745 126.170064 
L 207.6732 125.410343 
L 208.053655 119.090467 
L 208.652236 103.247842 
L 208.720718 103.088907 
L 208.773982 103.192964 
L 208.898264 104.074973 
L 209.1519 107.816817 
L 209.304082 109.48403 
L 209.352273 109.469335 
L 209.428364 109.573345 
L 209.547573 110.333476 
L 209.773309 113.548455 
L 210.303409 125.142033 
L 210.587482 129.239402 
L 210.767564 129.693558 
L 210.955255 131.239312 
L 211.345855 136.771569 
L 211.860736 143.229877 
L 212.066182 144.112731 
L 212.101691 143.829333 
L 212.5557 137.779285 
L 212.626718 137.905514 
L 212.776364 138.799067 
L 213.101018 142.3856 
L 213.296318 143.493746 
L 213.438355 143.927858 
L 213.659018 145.576435 
L 213.798518 146.654753 
L 213.8391 146.27477 
L 213.965918 141.551141 
L 214.303255 131.30311 
L 214.4808 130.250763 
L 214.496018 130.257705 
L 214.597473 130.359296 
L 214.645664 130.254999 
L 214.8714 129.696399 
L 214.922127 129.755299 
L 215.043873 130.257637 
L 215.269609 132.343269 
L 215.561291 135.942468 
L 215.642455 135.475275 
L 215.860582 134.21893 
L 215.888482 134.242286 
L 215.967109 134.413941 
L 216.0153 134.244326 
L 216.337418 132.117961 
L 216.426191 132.323881 
L 216.588518 133.543757 
L 217.108473 137.728647 
L 217.253045 138.260242 
L 217.483855 140.175699 
L 217.986055 146.706452 
L 218.145845 148.713884 
L 218.204182 148.262087 
L 218.467964 143.263229 
L 218.795155 135.691343 
L 219.109664 132.725857 
L 219.160391 132.691888 
L 219.208582 132.770125 
L 219.337936 133.439496 
L 219.596645 136.198561 
L 220.276391 146.628408 
L 221.070273 157.264099 
L 221.306155 159.009941 
L 221.339127 158.970241 
L 221.465945 158.42028 
L 221.978291 154.975796 
L 222.295336 152.63281 
L 222.419618 152.485974 
L 222.455127 152.512824 
L 222.587018 152.837227 
L 222.835582 154.129269 
L 222.873627 153.515113 
L 223.1577 141.75818 
L 223.533082 129.602163 
L 223.672582 127.182205 
L 223.926218 123.916712 
L 224.042891 123.552999 
L 224.3295 119.771574 
L 224.585673 116.229929 
L 224.611036 116.22772 
L 224.649082 116.324809 
L 224.768291 117.290033 
L 225.024464 121.608313 
L 226.049155 140.511757 
L 226.602082 146.960322 
L 227.555755 158.298037 
L 227.578582 158.212564 
L 227.685109 156.669865 
L 227.849973 151.813509 
L 228.210136 134.262853 
L 228.390218 132.842984 
L 228.400364 132.847359 
L 228.468845 133.04941 
L 228.628636 134.412161 
L 228.993873 139.890411 
L 229.305845 143.313231 
L 229.681227 146.00159 
L 229.7142 146.179804 
L 229.77 145.803046 
L 230.158064 142.307643 
L 230.175818 142.316542 
L 230.264591 142.549883 
L 230.452282 143.842556 
L 230.779473 147.36316 
L 230.847955 146.486283 
L 231.367909 137.582705 
L 231.405955 137.628964 
L 231.515018 138.158645 
L 231.755973 140.691315 
L 233.518745 162.171917 
L 234.081818 165.395193 
L 234.644891 167.412137 
L 235.243473 168.767947 
L 235.930827 169.782426 
L 236.022136 169.880797 
L 236.050036 169.763042 
L 236.141345 168.078515 
L 236.846455 151.274233 
L 236.927618 151.184983 
L 236.975809 151.243453 
L 237.112773 151.766282 
L 237.394309 153.910727 
L 237.896509 158.252457 
L 237.962455 158.117776 
L 238.429145 156.583568 
L 238.490018 156.632771 
L 238.647273 157.02329 
L 238.933882 158.456514 
L 239.671964 163.699745 
L 240.382145 167.892781 
L 240.9579 170.049718 
L 241.526045 171.367571 
L 242.139845 172.248415 
L 242.517764 172.619438 
L 242.535518 172.544211 
L 242.626827 170.922595 
L 243.009818 159.604412 
L 243.326864 151.710022 
L 243.532309 150.589061 
L 243.6084 150.692278 
L 243.758045 151.445298 
L 244.072555 154.426717 
L 244.255173 156.456672 
L 244.300827 155.757701 
L 244.8639 144.361178 
L 245.038909 143.279772 
L 245.056664 143.29001 
L 245.137827 143.553658 
L 245.320445 145.11298 
L 245.771918 151.432119 
L 245.946927 153.975656 
L 245.997655 153.231339 
L 246.304555 148.690267 
L 246.340064 148.67151 
L 246.388255 148.765448 
L 246.525218 149.594367 
L 246.862555 153.370653 
L 247.062927 155.543208 
L 247.1238 155.274226 
L 247.184673 153.457243 
L 247.539764 143.03266 
L 247.656436 142.551249 
L 247.699555 142.610221 
L 247.816227 143.235367 
L 247.9887 144.604871 
L 248.062255 144.296221 
L 248.716636 138.927477 
L 249.259418 125.528959 
L 249.289855 125.511695 
L 249.335509 125.61349 
L 249.459791 126.534169 
L 249.723573 130.515692 
L 249.921409 133.245927 
L 249.977209 133.149283 
L 250.058373 133.043748 
L 250.106564 133.127151 
L 250.225773 133.865079 
L 250.474336 137.1342 
L 251.017118 146.570835 
L 251.108427 145.599346 
L 251.356991 143.480141 
L 251.4204 143.592905 
L 251.5599 144.485164 
L 251.889627 148.403879 
L 252.939682 161.190383 
L 253.0386 162.008973 
L 253.081718 161.508207 
L 253.571236 153.598107 
L 253.634645 153.56124 
L 253.682836 153.626322 
L 253.827409 154.186486 
L 254.149527 156.535075 
L 254.512227 159.571636 
L 254.568027 159.154184 
L 255.016964 154.694675 
L 255.100664 154.816979 
L 255.2706 155.595204 
L 255.673882 158.759191 
L 256.148182 162.492105 
L 256.196373 162.335899 
L 256.399282 160.494306 
L 256.683355 158.921099 
L 256.792418 158.857401 
L 256.825391 158.88711 
L 256.9725 159.245143 
L 257.218527 160.35644 
L 257.271791 159.932062 
L 257.771455 154.238234 
L 257.776527 154.239008 
L 257.860227 154.373882 
L 258.0327 155.208946 
L 258.091036 155.485656 
L 258.139227 155.188068 
L 258.281264 151.981982 
L 258.608455 146.26671 
L 258.725127 144.634274 
L 259.095436 136.061162 
L 259.163918 135.906218 
L 259.217182 136.002324 
L 259.346536 136.839593 
L 259.546909 138.902926 
L 259.623 138.394409 
L 259.853809 136.809486 
L 259.879173 136.831457 
L 259.967945 137.19483 
L 260.163245 139.157624 
L 260.241873 139.857525 
L 260.300209 139.524635 
L 260.647691 136.356642 
L 260.708564 136.466511 
L 260.840455 137.326022 
L 261.121991 140.956441 
L 261.322364 143.707189 
L 261.385773 143.346874 
L 261.616582 141.901464 
L 261.647018 141.930142 
L 261.745936 142.335945 
L 261.964064 144.401833 
L 262.575327 152.547059 
L 262.689464 151.790067 
L 262.983682 150.020637 
L 263.047091 150.032961 
L 263.077527 150.084628 
L 263.219564 150.657294 
L 263.508709 152.952708 
L 263.572118 153.284363 
L 263.627918 153.057339 
L 263.998227 150.678687 
L 264.0591 150.758077 
L 264.201136 151.391997 
L 264.508036 154.031384 
L 265.487073 163.336491 
L 265.525118 163.190209 
L 265.664618 161.333195 
L 265.976591 158.174937 
L 266.093264 157.992635 
L 266.133845 158.025243 
L 266.146527 158.037767 
L 266.166818 157.891261 
L 266.2911 154.67497 
L 266.557418 150.302106 
L 266.6538 150.07308 
L 266.701991 150.138056 
L 266.831345 150.73961 
L 267.125564 153.41571 
L 268.325264 165.076819 
L 268.543391 166.29897 
L 268.591582 166.148335 
L 268.748836 164.559519 
L 269.114073 161.548829 
L 269.3043 161.250288 
L 269.309373 161.252014 
L 269.433655 161.420128 
L 269.661927 162.204206 
L 270.217391 165.153333 
L 270.985909 168.771395 
L 271.333391 169.898603 
L 271.356218 169.734216 
L 271.477964 166.237156 
L 271.896464 156.834346 
L 272.145027 155.004454 
L 272.228727 154.932388 
L 272.274382 154.980653 
L 272.441782 155.483615 
L 272.477291 155.534574 
L 272.5128 155.370909 
L 272.616791 153.237018 
L 272.974418 146.608051 
L 273.113918 146.159507 
L 273.146891 146.185751 
L 273.253418 146.545836 
L 273.471545 148.252348 
L 273.966136 153.656288 
L 274.0752 153.207074 
L 274.415073 151.712861 
L 274.468336 151.606473 
L 274.569791 148.402683 
L 274.838645 142.726197 
L 274.932491 142.43632 
L 274.980682 142.513181 
L 275.104964 143.229001 
L 275.353527 145.885539 
L 275.4144 144.933306 
L 275.863336 135.704534 
L 275.898845 135.681235 
L 275.947036 135.775641 
L 276.076391 136.610896 
L 276.352855 140.173102 
L 277.400373 156.908119 
L 277.466318 155.79914 
L 278.196791 139.891874 
L 278.275418 139.718871 
L 278.328682 139.805535 
L 278.458036 140.54489 
L 278.729427 143.526223 
L 278.802982 142.467036 
L 279.049009 139.782113 
L 279.107345 139.876914 
L 279.272209 140.870648 
L 279.475118 141.849625 
L 279.513164 141.62003 
L 279.8784 138.074167 
L 279.944345 138.193097 
L 280.083845 139.072153 
L 280.3806 142.670828 
L 280.776273 148.038824 
L 280.847291 147.814539 
L 281.083173 146.969916 
L 281.118682 146.99873 
L 281.227745 147.356131 
L 281.450945 149.031428 
L 282.085036 156.119796 
L 282.800291 162.859393 
L 282.957545 163.831283 
L 283.005736 163.597232 
L 283.178209 160.97286 
L 283.482573 157.824051 
L 283.634755 157.544214 
L 283.660118 157.556468 
L 283.690555 157.462073 
L 283.781864 155.946447 
L 284.126809 150.749512 
L 284.2308 150.532314 
L 284.276455 150.580349 
L 284.403273 151.012999 
L 284.446391 150.687243 
L 285.2073 141.131501 
L 285.247882 141.165605 
L 285.362018 141.562628 
L 285.587755 143.333897 
L 286.087418 149.453363 
L 287.000509 160.098755 
L 287.013191 160.113107 
L 287.0487 159.9347 
L 287.241464 157.247555 
L 287.497636 155.343575 
L 287.591482 154.240876 
L 287.898382 151.180079 
L 287.961791 151.126702 
L 288.012518 151.197742 
L 288.088609 151.445016 
L 288.119045 151.177006 
L 288.753136 142.355877 
L 288.857127 142.196178 
L 288.900245 142.240507 
L 289.021991 142.681844 
L 289.257873 144.564824 
L 289.785436 151.041692 
L 290.292709 157.171893 
L 290.338364 156.879941 
L 290.797445 151.958798 
L 290.850709 152.01745 
L 290.985136 152.549607 
L 291.279355 154.836442 
L 291.408709 155.982281 
L 291.459436 155.516273 
L 291.702927 149.881828 
L 291.997145 145.683137 
L 292.123964 145.35455 
L 292.162009 145.390333 
L 292.276145 145.795119 
L 292.512027 147.641814 
L 293.146118 154.667612 
L 293.267864 154.023663 
L 293.539255 152.751763 
L 293.625491 152.870678 
L 293.668609 152.906838 
L 293.714264 152.805684 
L 294.120082 151.166385 
L 294.221536 151.322521 
L 294.404155 152.15663 
L 294.495464 152.717461 
L 294.541118 152.330863 
L 294.906355 148.553022 
L 294.977373 148.659333 
L 295.127018 149.45179 
L 295.461818 152.714198 
L 295.733209 155.581959 
L 295.791545 155.193812 
L 296.037573 151.014239 
L 296.382518 145.500556 
L 296.620936 140.803575 
L 296.864427 138.409198 
L 296.912618 138.37266 
L 296.960809 138.453994 
L 297.090164 139.156714 
L 297.356482 142.094376 
L 298.094564 152.960115 
L 298.190945 151.900209 
L 298.761627 143.761023 
L 298.774309 143.764576 
L 298.855473 143.936605 
L 299.025409 144.968273 
L 299.3805 148.799845 
L 299.793927 154.048555 
L 299.839582 153.179437 
L 301.087473 116.429217 
L 301.244727 115.203078 
L 301.270091 115.233437 
L 301.358864 115.724233 
L 301.473 116.909525 
L 301.5288 116.245724 
L 301.678445 109.922104 
L 301.932082 103.532344 
L 301.992955 103.341359 
L 302.046218 103.49138 
L 302.173036 104.780311 
L 302.446964 110.334744 
L 303.352445 132.914171 
L 303.469118 132.704093 
L 303.514773 132.699788 
L 303.552818 132.771742 
L 303.674564 133.463825 
L 303.925664 136.487362 
L 304.443082 144.55438 
L 304.544536 144.026377 
L 304.930064 142.368196 
L 305.069564 141.912817 
L 305.498209 135.82923 
L 305.538791 135.876002 
L 305.779745 136.536253 
L 305.840618 136.311325 
L 305.985191 134.2687 
L 306.1323 129.42683 
L 306.510218 118.207448 
L 306.664936 117.347901 
L 306.692836 117.373254 
L 306.784145 117.768198 
L 306.976909 119.828714 
L 307.364973 126.866104 
L 307.953409 139.253457 
L 308.021891 138.25674 
L 308.338936 133.392225 
L 308.371909 133.372271 
L 308.417564 133.465441 
L 308.544382 134.314762 
L 308.828455 138.080319 
L 309.254564 145.045133 
L 309.325582 144.226317 
L 309.612191 141.130972 
L 309.6477 141.132017 
L 309.685745 141.208599 
L 309.817636 141.954484 
L 309.825245 141.986366 
L 309.863291 141.570184 
L 310.210773 136.727422 
L 310.225991 136.73599 
L 310.302082 136.984747 
L 310.479627 138.536979 
L 310.667318 140.815809 
L 310.730727 140.188488 
L 311.035091 137.201898 
L 311.0985 137.308967 
L 311.235464 138.17243 
L 311.369891 139.542787 
L 311.418082 138.830662 
L 311.897455 130.471773 
L 312.044564 129.888318 
L 312.075 129.914506 
L 312.173918 130.288941 
L 312.321027 131.476532 
L 312.359073 130.771111 
L 312.787718 120.55398 
L 313.145345 120.255996 
L 313.196073 120.36163 
L 313.338109 121.124329 
L 313.589209 123.931272 
L 313.789582 126.546177 
L 313.850455 126.067943 
L 314.578391 117.066185 
L 314.705209 116.541438 
L 314.745791 116.595838 
L 314.852318 117.18574 
L 315.072982 119.946659 
L 315.390027 123.212868 
L 315.704536 126.282712 
L 316.199127 133.949048 
L 316.716545 142.201727 
L 316.774882 141.989894 
L 316.982864 141.125162 
L 317.020909 141.165767 
L 317.135045 141.628174 
L 317.381073 143.773026 
L 319.113409 161.164732 
L 319.235155 161.76208 
L 319.283345 161.556124 
L 319.369582 159.528043 
L 320.117809 137.667501 
L 320.204045 137.518792 
L 320.254773 137.582352 
L 320.384127 138.15271 
L 320.642836 140.52038 
L 321.274391 148.966733 
L 321.974427 157.35599 
L 321.989645 157.319688 
L 322.068273 156.413723 
L 322.405609 152.810386 
L 322.484236 152.730897 
L 322.532427 152.785426 
L 322.674464 153.287252 
L 322.986436 155.405757 
L 323.5419 159.906124 
L 323.577409 159.244638 
L 324.487964 133.791146 
L 324.528545 133.799131 
L 324.561518 133.867271 
L 324.690873 134.580567 
L 324.957191 137.567401 
L 325.4949 145.745051 
L 325.576064 144.615729 
L 325.931155 139.221069 
L 326.057973 137.958437 
L 326.484082 133.449633 
L 326.542418 133.411574 
L 326.590609 133.483162 
L 326.7225 134.094117 
L 326.976136 136.53935 
L 327.5316 144.579088 
L 328.345773 155.548678 
L 328.348309 155.547569 
L 328.3965 155.370671 
L 328.850509 152.581258 
L 328.931673 152.678911 
L 329.099073 153.312336 
L 329.449091 155.702071 
L 329.717945 157.482182 
L 329.771209 157.365663 
L 329.984264 156.066007 
L 330.232827 155.268468 
L 330.346964 155.334903 
L 330.5169 155.823363 
L 330.724882 156.678302 
L 330.790827 156.483804 
L 331.282882 154.094752 
L 331.343755 154.146637 
L 331.4934 154.571556 
L 331.780009 156.201912 
L 332.571355 161.810401 
L 332.6094 161.246225 
L 333.180082 144.976338 
L 333.271391 144.817886 
L 333.319582 144.877795 
L 333.451473 145.428422 
L 333.727936 147.757696 
L 333.900409 149.372729 
L 333.956209 148.99818 
L 334.334127 145.371902 
L 334.364564 145.393335 
L 334.481236 145.748351 
L 334.516745 145.780646 
L 334.5624 145.678446 
L 334.633418 144.484614 
L 335.051918 137.003587 
L 335.140691 136.818614 
L 335.188882 136.883081 
L 335.313164 137.482474 
L 335.5668 140.03611 
L 335.987836 145.543213 
L 336.074073 145.016498 
L 336.325173 143.575515 
L 336.337855 143.581178 
L 336.419018 143.781875 
L 336.596564 144.983202 
L 336.733527 145.535425 
L 336.771573 145.505816 
L 337.032818 145.165885 
L 337.091155 145.24481 
L 337.169782 145.352912 
L 337.217973 145.253127 
L 337.339718 144.410062 
L 337.484291 140.453514 
L 337.816555 133.26479 
L 338.082873 131.931752 
L 338.141209 131.923411 
L 338.179255 131.98309 
L 338.306073 132.541389 
L 338.539418 134.777107 
L 339.013718 141.951321 
L 339.297791 146.324595 
L 339.343445 145.679932 
L 339.893836 134.652451 
L 339.972464 134.518099 
L 340.023191 134.59076 
L 340.621773 136.455987 
L 340.883018 138.412441 
L 340.976864 138.045273 
L 341.235573 137.040486 
L 341.255864 137.050659 
L 341.347173 137.276987 
L 341.524718 138.461131 
L 341.801182 141.299911 
L 341.877273 140.643438 
L 341.993945 137.129239 
L 342.4023 118.803586 
L 342.554482 117.79741 
L 342.579845 117.823812 
L 342.668618 118.24818 
L 342.863918 120.519909 
L 343.2951 128.721685 
L 344.012891 141.616502 
L 344.707855 148.256294 
L 345.773127 159.329205 
L 345.790882 159.254536 
L 345.902482 157.522074 
L 346.189091 154.422504 
L 346.295618 154.253005 
L 346.338736 154.291773 
L 346.470627 154.696415 
L 346.757236 156.467592 
L 346.957609 157.986591 
L 346.988045 157.38509 
L 347.609455 139.840565 
L 347.825045 138.037934 
L 347.885918 138.118024 
L 347.888455 138.125648 
L 348.017809 138.882909 
L 348.304418 142.178431 
L 348.705164 147.575643 
L 348.776182 147.125937 
L 349.222582 143.415779 
L 349.235264 143.420352 
L 349.3215 143.603121 
L 349.496509 144.635159 
L 349.537091 144.959516 
L 349.5726 144.382802 
L 349.953055 136.920944 
L 349.986027 136.912819 
L 350.026609 136.996601 
L 350.155964 137.802605 
L 350.452718 141.398538 
L 351.315082 152.393964 
L 351.332836 152.387258 
L 351.467264 152.15755 
L 351.746264 151.380289 
L 352.187591 147.592754 
L 352.491955 144.068645 
L 352.575655 143.938433 
L 352.626382 144.003494 
L 352.758273 144.580253 
L 353.029664 146.98658 
L 353.866664 156.569537 
L 353.957973 155.841763 
L 354.313064 152.810023 
L 354.376473 152.787841 
L 354.419591 152.846586 
L 354.564164 153.386753 
L 354.713809 154.046078 
L 354.772145 153.902695 
L 355.091727 152.026305 
L 355.591391 142.79272 
L 355.649727 142.879825 
L 355.784155 143.600134 
L 355.913509 144.715713 
L 355.9617 144.11604 
L 356.164609 138.326797 
L 356.486727 124.939751 
L 356.621155 124.051927 
L 356.654127 124.102248 
L 356.755582 124.737566 
L 357.004145 128.104257 
L 357.1335 128.847288 
L 357.163936 128.667415 
L 357.305973 125.769164 
L 357.552 122.873457 
L 357.584973 122.853525 
L 357.633164 122.95405 
L 357.759982 123.831203 
L 358.0263 127.570928 
L 358.596982 138.364365 
L 358.693364 137.168607 
L 358.916564 135.284353 
L 358.921636 135.285786 
L 358.985045 135.440473 
L 359.010409 135.559794 
L 359.035773 135.222666 
L 359.4771 124.985336 
L 359.540509 125.13374 
L 359.860091 126.073591 
L 359.984373 126.419112 
L 360.1746 127.782908 
L 360.517009 132.189695 
L 362.216373 156.28093 
L 362.6577 159.751808 
L 362.6856 159.646192 
L 362.7972 157.932291 
L 363.144682 149.344037 
L 363.469336 140.967877 
L 363.651955 140.029711 
L 363.6621 140.033069 
L 363.740727 140.21141 
L 363.910664 141.313941 
L 364.280973 145.515628 
L 365.4198 158.805394 
L 366.013309 163.017797 
L 366.586527 165.600194 
L 367.152136 167.20693 
L 367.192718 167.079596 
L 367.398164 165.228622 
L 367.661945 163.991951 
L 367.809055 163.932164 
L 367.821736 163.941108 
L 367.978991 164.171079 
L 367.999282 163.977865 
L 368.148927 159.830503 
L 368.587718 147.421257 
L 368.719609 146.959327 
L 368.755118 146.992447 
L 368.864182 147.401242 
L 369.1026 149.355747 
L 369.518564 153.888369 
L 369.589582 153.224051 
L 369.734155 147.148521 
L 370.178018 132.072054 
L 370.434191 127.183953 
L 370.763918 125.175417 
L 370.766455 125.175821 
L 370.837473 125.308019 
L 370.976973 126.200761 
L 371.151982 127.895961 
L 371.217927 127.407207 
L 371.649109 122.027855 
L 371.709982 122.146031 
L 371.841873 123.061888 
L 372.105655 126.786904 
L 372.775255 136.555056 
L 372.894464 137.095722 
L 373.115127 139.391363 
L 373.523482 143.330733 
L 373.581818 143.740121 
L 373.581818 143.740121 
" style="fill:none;stroke:#ff0000;stroke-linecap:square;stroke-width:1.5;"/>
   </g>
   <g id="line2d_17">
    <path clip-path="url(#p8c1886b35e)" d="M 322.854545 70.8 
L 373.480364 70.8 
L 373.480364 70.8 
" style="fill:none;stroke:#000000;stroke-linecap:square;stroke-width:1.5;"/>
   </g>
   <g id="line2d_18">
    <path clip-path="url(#p8c1886b35e)" d="M 322.854545 107.04 
L 322.854545 99.792 
L 322.854545 92.544 
L 322.854545 85.296 
L 322.854545 78.048 
" style="fill:none;stroke:#000000;stroke-linecap:square;stroke-width:1.5;"/>
   </g>
   <g id="patch_3">
    <path d="M 54 252 
L 54 34.56 
" style="fill:none;stroke:#000000;stroke-linecap:square;stroke-linejoin:miter;stroke-width:0.8;"/>
   </g>
   <g id="patch_4">
    <path d="M 54 252 
L 388.8 252 
" style="fill:none;stroke:#000000;stroke-linecap:square;stroke-linejoin:miter;stroke-width:0.8;"/>
   </g>
   <g id="text_17">
    <!-- 500 ms -->
    <g transform="translate(322.854545 63.552)scale(0.1 -0.1)">
     <use xlink:href="#DejaVuSans-53"/>
     <use x="63.623047" xlink:href="#DejaVuSans-48"/>
     <use x="127.246094" xlink:href="#DejaVuSans-48"/>
     <use x="190.869141" xlink:href="#DejaVuSans-32"/>
     <use x="222.65625" xlink:href="#DejaVuSans-109"/>
     <use x="320.068359" xlink:href="#DejaVuSans-115"/>
    </g>
   </g>
   <g id="text_18">
    <!-- 5 mV -->
    <g transform="translate(327.927273 92.544)scale(0.1 -0.1)">
     <use xlink:href="#DejaVuSans-53"/>
     <use x="63.623047" xlink:href="#DejaVuSans-32"/>
     <use x="95.410156" xlink:href="#DejaVuSans-109"/>
     <use x="192.822266" xlink:href="#DejaVuSans-86"/>
    </g>
   </g>
  </g>
 </g>
 <defs>
  <clipPath id="p8c1886b35e">
   <rect height="217.44" width="334.8" x="54" y="34.56"/>
  </clipPath>
 </defs>
</svg>
