<?xml version="1.0" encoding="utf-8" standalone="no"?>
<!DOCTYPE svg PUBLIC "-//W3C//DTD SVG 1.1//EN"
  "http://www.w3.org/Graphics/SVG/1.1/DTD/svg11.dtd">
<svg height="288pt" version="1.1" viewBox="0 0 432 288" width="432pt" xmlns="http://www.w3.org/2000/svg" xmlns:xlink="http://www.w3.org/1999/xlink">
 <metadata>
  <rdf:RDF xmlns:cc="http://creativecommons.org/ns#" xmlns:dc="http://purl.org/dc/elements/1.1/" xmlns:rdf="http://www.w3.org/1999/02/22-rdf-syntax-ns#">
   <cc:Work>
    <dc:type rdf:resource="http://purl.org/dc/dcmitype/StillImage"/>
    <dc:date>2021-07-08T11:43:57.589376</dc:date>
    <dc:format>image/svg+xml</dc:format>
    <dc:creator>
     <cc:Agent>
      <dc:title>Matplotlib v3.4.1, https://matplotlib.org/</dc:title>
     </cc:Agent>
    </dc:creator>
   </cc:Work>
  </rdf:RDF>
 </metadata>
 <defs>
  <style type="text/css">*{stroke-linecap:butt;stroke-linejoin:round;}</style>
 </defs>
 <g id="figure_1">
  <g id="patch_1">
   <path d="M 0 288 
L 432 288 
L 432 0 
L 0 0 
z
" style="fill:none;"/>
  </g>
  <g id="axes_1">
   <g id="patch_2">
    <path d="M 54 252 
L 388.8 252 
L 388.8 34.56 
L 54 34.56 
z
" style="fill:#ffffff;"/>
   </g>
   <g id="matplotlib.axis_1">
    <g id="xtick_1">
     <g id="line2d_1">
      <defs>
       <path d="M 0 0 
L 0 3.5 
" id="mb7792090a6" style="stroke:#000000;stroke-width:0.8;"/>
      </defs>
      <g>
       <use style="stroke:#000000;stroke-width:0.8;" x="69.218182" xlink:href="#mb7792090a6" y="252"/>
      </g>
     </g>
     <g id="text_1">
      <!-- 0 -->
      <g transform="translate(66.036932 266.598437)scale(0.1 -0.1)">
       <defs>
        <path d="M 2034 4250 
Q 1547 4250 1301 3770 
Q 1056 3291 1056 2328 
Q 1056 1369 1301 889 
Q 1547 409 2034 409 
Q 2525 409 2770 889 
Q 3016 1369 3016 2328 
Q 3016 3291 2770 3770 
Q 2525 4250 2034 4250 
z
M 2034 4750 
Q 2819 4750 3233 4129 
Q 3647 3509 3647 2328 
Q 3647 1150 3233 529 
Q 2819 -91 2034 -91 
Q 1250 -91 836 529 
Q 422 1150 422 2328 
Q 422 3509 836 4129 
Q 1250 4750 2034 4750 
z
" id="DejaVuSans-30" transform="scale(0.015625)"/>
       </defs>
       <use xlink:href="#DejaVuSans-30"/>
      </g>
     </g>
    </g>
    <g id="xtick_2">
     <g id="line2d_2">
      <g>
       <use style="stroke:#000000;stroke-width:0.8;" x="119.945455" xlink:href="#mb7792090a6" y="252"/>
      </g>
     </g>
     <g id="text_2">
      <!-- 1000 -->
      <g transform="translate(107.220455 266.598437)scale(0.1 -0.1)">
       <defs>
        <path d="M 794 531 
L 1825 531 
L 1825 4091 
L 703 3866 
L 703 4441 
L 1819 4666 
L 2450 4666 
L 2450 531 
L 3481 531 
L 3481 0 
L 794 0 
L 794 531 
z
" id="DejaVuSans-31" transform="scale(0.015625)"/>
       </defs>
       <use xlink:href="#DejaVuSans-31"/>
       <use x="63.623047" xlink:href="#DejaVuSans-30"/>
       <use x="127.246094" xlink:href="#DejaVuSans-30"/>
       <use x="190.869141" xlink:href="#DejaVuSans-30"/>
      </g>
     </g>
    </g>
    <g id="xtick_3">
     <g id="line2d_3">
      <g>
       <use style="stroke:#000000;stroke-width:0.8;" x="170.672727" xlink:href="#mb7792090a6" y="252"/>
      </g>
     </g>
     <g id="text_3">
      <!-- 2000 -->
      <g transform="translate(157.947727 266.598437)scale(0.1 -0.1)">
       <defs>
        <path d="M 1228 531 
L 3431 531 
L 3431 0 
L 469 0 
L 469 531 
Q 828 903 1448 1529 
Q 2069 2156 2228 2338 
Q 2531 2678 2651 2914 
Q 2772 3150 2772 3378 
Q 2772 3750 2511 3984 
Q 2250 4219 1831 4219 
Q 1534 4219 1204 4116 
Q 875 4013 500 3803 
L 500 4441 
Q 881 4594 1212 4672 
Q 1544 4750 1819 4750 
Q 2544 4750 2975 4387 
Q 3406 4025 3406 3419 
Q 3406 3131 3298 2873 
Q 3191 2616 2906 2266 
Q 2828 2175 2409 1742 
Q 1991 1309 1228 531 
z
" id="DejaVuSans-32" transform="scale(0.015625)"/>
       </defs>
       <use xlink:href="#DejaVuSans-32"/>
       <use x="63.623047" xlink:href="#DejaVuSans-30"/>
       <use x="127.246094" xlink:href="#DejaVuSans-30"/>
       <use x="190.869141" xlink:href="#DejaVuSans-30"/>
      </g>
     </g>
    </g>
    <g id="xtick_4">
     <g id="line2d_4">
      <g>
       <use style="stroke:#000000;stroke-width:0.8;" x="221.4" xlink:href="#mb7792090a6" y="252"/>
      </g>
     </g>
     <g id="text_4">
      <!-- 3000 -->
      <g transform="translate(208.675 266.598437)scale(0.1 -0.1)">
       <defs>
        <path d="M 2597 2516 
Q 3050 2419 3304 2112 
Q 3559 1806 3559 1356 
Q 3559 666 3084 287 
Q 2609 -91 1734 -91 
Q 1441 -91 1130 -33 
Q 819 25 488 141 
L 488 750 
Q 750 597 1062 519 
Q 1375 441 1716 441 
Q 2309 441 2620 675 
Q 2931 909 2931 1356 
Q 2931 1769 2642 2001 
Q 2353 2234 1838 2234 
L 1294 2234 
L 1294 2753 
L 1863 2753 
Q 2328 2753 2575 2939 
Q 2822 3125 2822 3475 
Q 2822 3834 2567 4026 
Q 2313 4219 1838 4219 
Q 1578 4219 1281 4162 
Q 984 4106 628 3988 
L 628 4550 
Q 988 4650 1302 4700 
Q 1616 4750 1894 4750 
Q 2613 4750 3031 4423 
Q 3450 4097 3450 3541 
Q 3450 3153 3228 2886 
Q 3006 2619 2597 2516 
z
" id="DejaVuSans-33" transform="scale(0.015625)"/>
       </defs>
       <use xlink:href="#DejaVuSans-33"/>
       <use x="63.623047" xlink:href="#DejaVuSans-30"/>
       <use x="127.246094" xlink:href="#DejaVuSans-30"/>
       <use x="190.869141" xlink:href="#DejaVuSans-30"/>
      </g>
     </g>
    </g>
    <g id="xtick_5">
     <g id="line2d_5">
      <g>
       <use style="stroke:#000000;stroke-width:0.8;" x="272.127273" xlink:href="#mb7792090a6" y="252"/>
      </g>
     </g>
     <g id="text_5">
      <!-- 4000 -->
      <g transform="translate(259.402273 266.598437)scale(0.1 -0.1)">
       <defs>
        <path d="M 2419 4116 
L 825 1625 
L 2419 1625 
L 2419 4116 
z
M 2253 4666 
L 3047 4666 
L 3047 1625 
L 3713 1625 
L 3713 1100 
L 3047 1100 
L 3047 0 
L 2419 0 
L 2419 1100 
L 313 1100 
L 313 1709 
L 2253 4666 
z
" id="DejaVuSans-34" transform="scale(0.015625)"/>
       </defs>
       <use xlink:href="#DejaVuSans-34"/>
       <use x="63.623047" xlink:href="#DejaVuSans-30"/>
       <use x="127.246094" xlink:href="#DejaVuSans-30"/>
       <use x="190.869141" xlink:href="#DejaVuSans-30"/>
      </g>
     </g>
    </g>
    <g id="xtick_6">
     <g id="line2d_6">
      <g>
       <use style="stroke:#000000;stroke-width:0.8;" x="322.854545" xlink:href="#mb7792090a6" y="252"/>
      </g>
     </g>
     <g id="text_6">
      <!-- 5000 -->
      <g transform="translate(310.129545 266.598437)scale(0.1 -0.1)">
       <defs>
        <path d="M 691 4666 
L 3169 4666 
L 3169 4134 
L 1269 4134 
L 1269 2991 
Q 1406 3038 1543 3061 
Q 1681 3084 1819 3084 
Q 2600 3084 3056 2656 
Q 3513 2228 3513 1497 
Q 3513 744 3044 326 
Q 2575 -91 1722 -91 
Q 1428 -91 1123 -41 
Q 819 9 494 109 
L 494 744 
Q 775 591 1075 516 
Q 1375 441 1709 441 
Q 2250 441 2565 725 
Q 2881 1009 2881 1497 
Q 2881 1984 2565 2268 
Q 2250 2553 1709 2553 
Q 1456 2553 1204 2497 
Q 953 2441 691 2322 
L 691 4666 
z
" id="DejaVuSans-35" transform="scale(0.015625)"/>
       </defs>
       <use xlink:href="#DejaVuSans-35"/>
       <use x="63.623047" xlink:href="#DejaVuSans-30"/>
       <use x="127.246094" xlink:href="#DejaVuSans-30"/>
       <use x="190.869141" xlink:href="#DejaVuSans-30"/>
      </g>
     </g>
    </g>
    <g id="xtick_7">
     <g id="line2d_7">
      <g>
       <use style="stroke:#000000;stroke-width:0.8;" x="373.581818" xlink:href="#mb7792090a6" y="252"/>
      </g>
     </g>
     <g id="text_7">
      <!-- 6000 -->
      <g transform="translate(360.856818 266.598437)scale(0.1 -0.1)">
       <defs>
        <path d="M 2113 2584 
Q 1688 2584 1439 2293 
Q 1191 2003 1191 1497 
Q 1191 994 1439 701 
Q 1688 409 2113 409 
Q 2538 409 2786 701 
Q 3034 994 3034 1497 
Q 3034 2003 2786 2293 
Q 2538 2584 2113 2584 
z
M 3366 4563 
L 3366 3988 
Q 3128 4100 2886 4159 
Q 2644 4219 2406 4219 
Q 1781 4219 1451 3797 
Q 1122 3375 1075 2522 
Q 1259 2794 1537 2939 
Q 1816 3084 2150 3084 
Q 2853 3084 3261 2657 
Q 3669 2231 3669 1497 
Q 3669 778 3244 343 
Q 2819 -91 2113 -91 
Q 1303 -91 875 529 
Q 447 1150 447 2328 
Q 447 3434 972 4092 
Q 1497 4750 2381 4750 
Q 2619 4750 2861 4703 
Q 3103 4656 3366 4563 
z
" id="DejaVuSans-36" transform="scale(0.015625)"/>
       </defs>
       <use xlink:href="#DejaVuSans-36"/>
       <use x="63.623047" xlink:href="#DejaVuSans-30"/>
       <use x="127.246094" xlink:href="#DejaVuSans-30"/>
       <use x="190.869141" xlink:href="#DejaVuSans-30"/>
      </g>
     </g>
    </g>
    <g id="text_8">
     <!-- Time(ms) -->
     <g transform="translate(197.789844 280.276563)scale(0.1 -0.1)">
      <defs>
       <path d="M -19 4666 
L 3928 4666 
L 3928 4134 
L 2272 4134 
L 2272 0 
L 1638 0 
L 1638 4134 
L -19 4134 
L -19 4666 
z
" id="DejaVuSans-54" transform="scale(0.015625)"/>
       <path d="M 603 3500 
L 1178 3500 
L 1178 0 
L 603 0 
L 603 3500 
z
M 603 4863 
L 1178 4863 
L 1178 4134 
L 603 4134 
L 603 4863 
z
" id="DejaVuSans-69" transform="scale(0.015625)"/>
       <path d="M 3328 2828 
Q 3544 3216 3844 3400 
Q 4144 3584 4550 3584 
Q 5097 3584 5394 3201 
Q 5691 2819 5691 2113 
L 5691 0 
L 5113 0 
L 5113 2094 
Q 5113 2597 4934 2840 
Q 4756 3084 4391 3084 
Q 3944 3084 3684 2787 
Q 3425 2491 3425 1978 
L 3425 0 
L 2847 0 
L 2847 2094 
Q 2847 2600 2669 2842 
Q 2491 3084 2119 3084 
Q 1678 3084 1418 2786 
Q 1159 2488 1159 1978 
L 1159 0 
L 581 0 
L 581 3500 
L 1159 3500 
L 1159 2956 
Q 1356 3278 1631 3431 
Q 1906 3584 2284 3584 
Q 2666 3584 2933 3390 
Q 3200 3197 3328 2828 
z
" id="DejaVuSans-6d" transform="scale(0.015625)"/>
       <path d="M 3597 1894 
L 3597 1613 
L 953 1613 
Q 991 1019 1311 708 
Q 1631 397 2203 397 
Q 2534 397 2845 478 
Q 3156 559 3463 722 
L 3463 178 
Q 3153 47 2828 -22 
Q 2503 -91 2169 -91 
Q 1331 -91 842 396 
Q 353 884 353 1716 
Q 353 2575 817 3079 
Q 1281 3584 2069 3584 
Q 2775 3584 3186 3129 
Q 3597 2675 3597 1894 
z
M 3022 2063 
Q 3016 2534 2758 2815 
Q 2500 3097 2075 3097 
Q 1594 3097 1305 2825 
Q 1016 2553 972 2059 
L 3022 2063 
z
" id="DejaVuSans-65" transform="scale(0.015625)"/>
       <path d="M 1984 4856 
Q 1566 4138 1362 3434 
Q 1159 2731 1159 2009 
Q 1159 1288 1364 580 
Q 1569 -128 1984 -844 
L 1484 -844 
Q 1016 -109 783 600 
Q 550 1309 550 2009 
Q 550 2706 781 3412 
Q 1013 4119 1484 4856 
L 1984 4856 
z
" id="DejaVuSans-28" transform="scale(0.015625)"/>
       <path d="M 2834 3397 
L 2834 2853 
Q 2591 2978 2328 3040 
Q 2066 3103 1784 3103 
Q 1356 3103 1142 2972 
Q 928 2841 928 2578 
Q 928 2378 1081 2264 
Q 1234 2150 1697 2047 
L 1894 2003 
Q 2506 1872 2764 1633 
Q 3022 1394 3022 966 
Q 3022 478 2636 193 
Q 2250 -91 1575 -91 
Q 1294 -91 989 -36 
Q 684 19 347 128 
L 347 722 
Q 666 556 975 473 
Q 1284 391 1588 391 
Q 1994 391 2212 530 
Q 2431 669 2431 922 
Q 2431 1156 2273 1281 
Q 2116 1406 1581 1522 
L 1381 1569 
Q 847 1681 609 1914 
Q 372 2147 372 2553 
Q 372 3047 722 3315 
Q 1072 3584 1716 3584 
Q 2034 3584 2315 3537 
Q 2597 3491 2834 3397 
z
" id="DejaVuSans-73" transform="scale(0.015625)"/>
       <path d="M 513 4856 
L 1013 4856 
Q 1481 4119 1714 3412 
Q 1947 2706 1947 2009 
Q 1947 1309 1714 600 
Q 1481 -109 1013 -844 
L 513 -844 
Q 928 -128 1133 580 
Q 1338 1288 1338 2009 
Q 1338 2731 1133 3434 
Q 928 4138 513 4856 
z
" id="DejaVuSans-29" transform="scale(0.015625)"/>
      </defs>
      <use xlink:href="#DejaVuSans-54"/>
      <use x="57.958984" xlink:href="#DejaVuSans-69"/>
      <use x="85.742188" xlink:href="#DejaVuSans-6d"/>
      <use x="183.154297" xlink:href="#DejaVuSans-65"/>
      <use x="244.677734" xlink:href="#DejaVuSans-28"/>
      <use x="283.691406" xlink:href="#DejaVuSans-6d"/>
      <use x="381.103516" xlink:href="#DejaVuSans-73"/>
      <use x="433.203125" xlink:href="#DejaVuSans-29"/>
     </g>
    </g>
   </g>
   <g id="matplotlib.axis_2">
    <g id="ytick_1">
     <g id="line2d_8">
      <defs>
       <path d="M 0 0 
L -3.5 0 
" id="m479c0cbda3" style="stroke:#000000;stroke-width:0.8;"/>
      </defs>
      <g>
       <use style="stroke:#000000;stroke-width:0.8;" x="54" xlink:href="#m479c0cbda3" y="252"/>
      </g>
     </g>
     <g id="text_9">
      <!-- −100 -->
      <g transform="translate(19.532812 255.799219)scale(0.1 -0.1)">
       <defs>
        <path d="M 678 2272 
L 4684 2272 
L 4684 1741 
L 678 1741 
L 678 2272 
z
" id="DejaVuSans-2212" transform="scale(0.015625)"/>
       </defs>
       <use xlink:href="#DejaVuSans-2212"/>
       <use x="83.789062" xlink:href="#DejaVuSans-31"/>
       <use x="147.412109" xlink:href="#DejaVuSans-30"/>
       <use x="211.035156" xlink:href="#DejaVuSans-30"/>
      </g>
     </g>
    </g>
    <g id="ytick_2">
     <g id="line2d_9">
      <g>
       <use style="stroke:#000000;stroke-width:0.8;" x="54" xlink:href="#m479c0cbda3" y="215.76"/>
      </g>
     </g>
     <g id="text_10">
      <!-- −95 -->
      <g transform="translate(25.895312 219.559219)scale(0.1 -0.1)">
       <defs>
        <path d="M 703 97 
L 703 672 
Q 941 559 1184 500 
Q 1428 441 1663 441 
Q 2288 441 2617 861 
Q 2947 1281 2994 2138 
Q 2813 1869 2534 1725 
Q 2256 1581 1919 1581 
Q 1219 1581 811 2004 
Q 403 2428 403 3163 
Q 403 3881 828 4315 
Q 1253 4750 1959 4750 
Q 2769 4750 3195 4129 
Q 3622 3509 3622 2328 
Q 3622 1225 3098 567 
Q 2575 -91 1691 -91 
Q 1453 -91 1209 -44 
Q 966 3 703 97 
z
M 1959 2075 
Q 2384 2075 2632 2365 
Q 2881 2656 2881 3163 
Q 2881 3666 2632 3958 
Q 2384 4250 1959 4250 
Q 1534 4250 1286 3958 
Q 1038 3666 1038 3163 
Q 1038 2656 1286 2365 
Q 1534 2075 1959 2075 
z
" id="DejaVuSans-39" transform="scale(0.015625)"/>
       </defs>
       <use xlink:href="#DejaVuSans-2212"/>
       <use x="83.789062" xlink:href="#DejaVuSans-39"/>
       <use x="147.412109" xlink:href="#DejaVuSans-35"/>
      </g>
     </g>
    </g>
    <g id="ytick_3">
     <g id="line2d_10">
      <g>
       <use style="stroke:#000000;stroke-width:0.8;" x="54" xlink:href="#m479c0cbda3" y="179.52"/>
      </g>
     </g>
     <g id="text_11">
      <!-- −90 -->
      <g transform="translate(25.895312 183.319219)scale(0.1 -0.1)">
       <use xlink:href="#DejaVuSans-2212"/>
       <use x="83.789062" xlink:href="#DejaVuSans-39"/>
       <use x="147.412109" xlink:href="#DejaVuSans-30"/>
      </g>
     </g>
    </g>
    <g id="ytick_4">
     <g id="line2d_11">
      <g>
       <use style="stroke:#000000;stroke-width:0.8;" x="54" xlink:href="#m479c0cbda3" y="143.28"/>
      </g>
     </g>
     <g id="text_12">
      <!-- −85 -->
      <g transform="translate(25.895312 147.079219)scale(0.1 -0.1)">
       <defs>
        <path d="M 2034 2216 
Q 1584 2216 1326 1975 
Q 1069 1734 1069 1313 
Q 1069 891 1326 650 
Q 1584 409 2034 409 
Q 2484 409 2743 651 
Q 3003 894 3003 1313 
Q 3003 1734 2745 1975 
Q 2488 2216 2034 2216 
z
M 1403 2484 
Q 997 2584 770 2862 
Q 544 3141 544 3541 
Q 544 4100 942 4425 
Q 1341 4750 2034 4750 
Q 2731 4750 3128 4425 
Q 3525 4100 3525 3541 
Q 3525 3141 3298 2862 
Q 3072 2584 2669 2484 
Q 3125 2378 3379 2068 
Q 3634 1759 3634 1313 
Q 3634 634 3220 271 
Q 2806 -91 2034 -91 
Q 1263 -91 848 271 
Q 434 634 434 1313 
Q 434 1759 690 2068 
Q 947 2378 1403 2484 
z
M 1172 3481 
Q 1172 3119 1398 2916 
Q 1625 2713 2034 2713 
Q 2441 2713 2670 2916 
Q 2900 3119 2900 3481 
Q 2900 3844 2670 4047 
Q 2441 4250 2034 4250 
Q 1625 4250 1398 4047 
Q 1172 3844 1172 3481 
z
" id="DejaVuSans-38" transform="scale(0.015625)"/>
       </defs>
       <use xlink:href="#DejaVuSans-2212"/>
       <use x="83.789062" xlink:href="#DejaVuSans-38"/>
       <use x="147.412109" xlink:href="#DejaVuSans-35"/>
      </g>
     </g>
    </g>
    <g id="ytick_5">
     <g id="line2d_12">
      <g>
       <use style="stroke:#000000;stroke-width:0.8;" x="54" xlink:href="#m479c0cbda3" y="107.04"/>
      </g>
     </g>
     <g id="text_13">
      <!-- −80 -->
      <g transform="translate(25.895312 110.839219)scale(0.1 -0.1)">
       <use xlink:href="#DejaVuSans-2212"/>
       <use x="83.789062" xlink:href="#DejaVuSans-38"/>
       <use x="147.412109" xlink:href="#DejaVuSans-30"/>
      </g>
     </g>
    </g>
    <g id="ytick_6">
     <g id="line2d_13">
      <g>
       <use style="stroke:#000000;stroke-width:0.8;" x="54" xlink:href="#m479c0cbda3" y="70.8"/>
      </g>
     </g>
     <g id="text_14">
      <!-- −75 -->
      <g transform="translate(25.895312 74.599219)scale(0.1 -0.1)">
       <defs>
        <path d="M 525 4666 
L 3525 4666 
L 3525 4397 
L 1831 0 
L 1172 0 
L 2766 4134 
L 525 4134 
L 525 4666 
z
" id="DejaVuSans-37" transform="scale(0.015625)"/>
       </defs>
       <use xlink:href="#DejaVuSans-2212"/>
       <use x="83.789062" xlink:href="#DejaVuSans-37"/>
       <use x="147.412109" xlink:href="#DejaVuSans-35"/>
      </g>
     </g>
    </g>
    <g id="ytick_7">
     <g id="line2d_14">
      <g>
       <use style="stroke:#000000;stroke-width:0.8;" x="54" xlink:href="#m479c0cbda3" y="34.56"/>
      </g>
     </g>
     <g id="text_15">
      <!-- −70 -->
      <g transform="translate(25.895312 38.359219)scale(0.1 -0.1)">
       <use xlink:href="#DejaVuSans-2212"/>
       <use x="83.789062" xlink:href="#DejaVuSans-37"/>
       <use x="147.412109" xlink:href="#DejaVuSans-30"/>
      </g>
     </g>
    </g>
    <g id="text_16">
     <!-- Membrane potential (mV) -->
     <g transform="translate(13.453125 207.691719)rotate(-90)scale(0.1 -0.1)">
      <defs>
       <path d="M 628 4666 
L 1569 4666 
L 2759 1491 
L 3956 4666 
L 4897 4666 
L 4897 0 
L 4281 0 
L 4281 4097 
L 3078 897 
L 2444 897 
L 1241 4097 
L 1241 0 
L 628 0 
L 628 4666 
z
" id="DejaVuSans-4d" transform="scale(0.015625)"/>
       <path d="M 3116 1747 
Q 3116 2381 2855 2742 
Q 2594 3103 2138 3103 
Q 1681 3103 1420 2742 
Q 1159 2381 1159 1747 
Q 1159 1113 1420 752 
Q 1681 391 2138 391 
Q 2594 391 2855 752 
Q 3116 1113 3116 1747 
z
M 1159 2969 
Q 1341 3281 1617 3432 
Q 1894 3584 2278 3584 
Q 2916 3584 3314 3078 
Q 3713 2572 3713 1747 
Q 3713 922 3314 415 
Q 2916 -91 2278 -91 
Q 1894 -91 1617 61 
Q 1341 213 1159 525 
L 1159 0 
L 581 0 
L 581 4863 
L 1159 4863 
L 1159 2969 
z
" id="DejaVuSans-62" transform="scale(0.015625)"/>
       <path d="M 2631 2963 
Q 2534 3019 2420 3045 
Q 2306 3072 2169 3072 
Q 1681 3072 1420 2755 
Q 1159 2438 1159 1844 
L 1159 0 
L 581 0 
L 581 3500 
L 1159 3500 
L 1159 2956 
Q 1341 3275 1631 3429 
Q 1922 3584 2338 3584 
Q 2397 3584 2469 3576 
Q 2541 3569 2628 3553 
L 2631 2963 
z
" id="DejaVuSans-72" transform="scale(0.015625)"/>
       <path d="M 2194 1759 
Q 1497 1759 1228 1600 
Q 959 1441 959 1056 
Q 959 750 1161 570 
Q 1363 391 1709 391 
Q 2188 391 2477 730 
Q 2766 1069 2766 1631 
L 2766 1759 
L 2194 1759 
z
M 3341 1997 
L 3341 0 
L 2766 0 
L 2766 531 
Q 2569 213 2275 61 
Q 1981 -91 1556 -91 
Q 1019 -91 701 211 
Q 384 513 384 1019 
Q 384 1609 779 1909 
Q 1175 2209 1959 2209 
L 2766 2209 
L 2766 2266 
Q 2766 2663 2505 2880 
Q 2244 3097 1772 3097 
Q 1472 3097 1187 3025 
Q 903 2953 641 2809 
L 641 3341 
Q 956 3463 1253 3523 
Q 1550 3584 1831 3584 
Q 2591 3584 2966 3190 
Q 3341 2797 3341 1997 
z
" id="DejaVuSans-61" transform="scale(0.015625)"/>
       <path d="M 3513 2113 
L 3513 0 
L 2938 0 
L 2938 2094 
Q 2938 2591 2744 2837 
Q 2550 3084 2163 3084 
Q 1697 3084 1428 2787 
Q 1159 2491 1159 1978 
L 1159 0 
L 581 0 
L 581 3500 
L 1159 3500 
L 1159 2956 
Q 1366 3272 1645 3428 
Q 1925 3584 2291 3584 
Q 2894 3584 3203 3211 
Q 3513 2838 3513 2113 
z
" id="DejaVuSans-6e" transform="scale(0.015625)"/>
       <path id="DejaVuSans-20" transform="scale(0.015625)"/>
       <path d="M 1159 525 
L 1159 -1331 
L 581 -1331 
L 581 3500 
L 1159 3500 
L 1159 2969 
Q 1341 3281 1617 3432 
Q 1894 3584 2278 3584 
Q 2916 3584 3314 3078 
Q 3713 2572 3713 1747 
Q 3713 922 3314 415 
Q 2916 -91 2278 -91 
Q 1894 -91 1617 61 
Q 1341 213 1159 525 
z
M 3116 1747 
Q 3116 2381 2855 2742 
Q 2594 3103 2138 3103 
Q 1681 3103 1420 2742 
Q 1159 2381 1159 1747 
Q 1159 1113 1420 752 
Q 1681 391 2138 391 
Q 2594 391 2855 752 
Q 3116 1113 3116 1747 
z
" id="DejaVuSans-70" transform="scale(0.015625)"/>
       <path d="M 1959 3097 
Q 1497 3097 1228 2736 
Q 959 2375 959 1747 
Q 959 1119 1226 758 
Q 1494 397 1959 397 
Q 2419 397 2687 759 
Q 2956 1122 2956 1747 
Q 2956 2369 2687 2733 
Q 2419 3097 1959 3097 
z
M 1959 3584 
Q 2709 3584 3137 3096 
Q 3566 2609 3566 1747 
Q 3566 888 3137 398 
Q 2709 -91 1959 -91 
Q 1206 -91 779 398 
Q 353 888 353 1747 
Q 353 2609 779 3096 
Q 1206 3584 1959 3584 
z
" id="DejaVuSans-6f" transform="scale(0.015625)"/>
       <path d="M 1172 4494 
L 1172 3500 
L 2356 3500 
L 2356 3053 
L 1172 3053 
L 1172 1153 
Q 1172 725 1289 603 
Q 1406 481 1766 481 
L 2356 481 
L 2356 0 
L 1766 0 
Q 1100 0 847 248 
Q 594 497 594 1153 
L 594 3053 
L 172 3053 
L 172 3500 
L 594 3500 
L 594 4494 
L 1172 4494 
z
" id="DejaVuSans-74" transform="scale(0.015625)"/>
       <path d="M 603 4863 
L 1178 4863 
L 1178 0 
L 603 0 
L 603 4863 
z
" id="DejaVuSans-6c" transform="scale(0.015625)"/>
       <path d="M 1831 0 
L 50 4666 
L 709 4666 
L 2188 738 
L 3669 4666 
L 4325 4666 
L 2547 0 
L 1831 0 
z
" id="DejaVuSans-56" transform="scale(0.015625)"/>
      </defs>
      <use xlink:href="#DejaVuSans-4d"/>
      <use x="86.279297" xlink:href="#DejaVuSans-65"/>
      <use x="147.802734" xlink:href="#DejaVuSans-6d"/>
      <use x="245.214844" xlink:href="#DejaVuSans-62"/>
      <use x="308.691406" xlink:href="#DejaVuSans-72"/>
      <use x="349.804688" xlink:href="#DejaVuSans-61"/>
      <use x="411.083984" xlink:href="#DejaVuSans-6e"/>
      <use x="474.462891" xlink:href="#DejaVuSans-65"/>
      <use x="535.986328" xlink:href="#DejaVuSans-20"/>
      <use x="567.773438" xlink:href="#DejaVuSans-70"/>
      <use x="631.25" xlink:href="#DejaVuSans-6f"/>
      <use x="692.431641" xlink:href="#DejaVuSans-74"/>
      <use x="731.640625" xlink:href="#DejaVuSans-65"/>
      <use x="793.164062" xlink:href="#DejaVuSans-6e"/>
      <use x="856.542969" xlink:href="#DejaVuSans-74"/>
      <use x="895.751953" xlink:href="#DejaVuSans-69"/>
      <use x="923.535156" xlink:href="#DejaVuSans-61"/>
      <use x="984.814453" xlink:href="#DejaVuSans-6c"/>
      <use x="1012.597656" xlink:href="#DejaVuSans-20"/>
      <use x="1044.384766" xlink:href="#DejaVuSans-28"/>
      <use x="1083.398438" xlink:href="#DejaVuSans-6d"/>
      <use x="1180.810547" xlink:href="#DejaVuSans-56"/>
      <use x="1249.21875" xlink:href="#DejaVuSans-29"/>
     </g>
    </g>
   </g>
   <g id="line2d_15">
    <path clip-path="url(#pdcd2746de6)" d="M 69.218182 157.776 
L 69.471818 188.981539 
L 69.877636 212.113531 
L 70.232727 222.259282 
L 70.384909 223.558123 
L 70.486364 223.036267 
L 70.790727 220.901006 
L 70.892182 220.823453 
L 71.044364 221.196 
L 71.348727 222.950741 
L 71.500909 223.944442 
L 71.551636 223.853842 
L 72.008182 217.490098 
L 72.109636 217.572 
L 72.363273 218.69399 
L 72.464727 218.571499 
L 72.616909 218.416392 
L 72.718364 218.598317 
L 72.921273 219.613762 
L 74.392364 229.031813 
L 74.848909 230.143656 
L 75.051818 230.360371 
L 75.204 228.601282 
L 75.508364 225.799205 
L 75.660545 225.56292 
L 75.812727 225.76079 
L 76.117091 226.74217 
L 76.167818 226.337731 
L 76.522909 216.717461 
L 76.675091 216.192706 
L 76.776545 216.530462 
L 76.979455 217.772045 
L 77.030182 217.66115 
L 77.283818 216.799363 
L 77.385273 217.038547 
L 77.638909 218.726606 
L 78.247636 223.588565 
L 78.298364 223.558848 
L 78.399818 222.866664 
L 78.957818 216.82908 
L 79.160727 216.212275 
L 79.262182 216.460157 
L 79.363636 216.9378 
L 79.414364 216.785592 
L 79.820182 211.940304 
L 79.870909 211.959149 
L 80.023091 212.668003 
L 80.073818 212.907187 
L 80.124545 212.809339 
L 80.327455 212.085989 
L 80.428909 212.33387 
L 80.631818 213.881318 
L 80.784 215.141746 
L 80.834727 215.082312 
L 80.986909 214.575677 
L 81.291273 212.091062 
L 81.342 212.099035 
L 81.494182 212.76875 
L 81.798545 215.751302 
L 82.052182 217.50097 
L 82.356545 216.925478 
L 82.508727 215.586773 
L 82.813091 210.840782 
L 82.863818 210.765403 
L 82.914545 210.842232 
L 83.066727 211.744608 
L 83.472545 216.328243 
L 84.132 223.277626 
L 84.639273 226.419634 
L 85.095818 228.000422 
L 85.197273 228.230184 
L 85.298727 227.581488 
L 85.704545 224.047363 
L 85.856727 223.87921 
L 86.008909 223.982856 
L 86.110364 221.917901 
L 86.465455 212.780347 
L 86.668364 211.741709 
L 86.769818 212.026555 
L 87.023455 214.051646 
L 87.733636 221.23079 
L 87.784364 220.953917 
L 88.038 219.628982 
L 88.139455 219.638405 
L 88.291636 220.115323 
L 88.697455 222.583267 
L 88.849636 223.389245 
L 88.900364 223.313866 
L 89.001818 221.858467 
L 89.559818 208.046678 
L 89.610545 207.956803 
L 89.661273 208.013338 
L 89.813455 208.870051 
L 90.625091 215.261338 
L 90.675818 215.480952 
L 90.726545 215.28888 
L 91.183091 212.422296 
L 91.284545 212.528842 
L 91.487455 213.632712 
L 91.994727 218.574398 
L 92.654182 224.156808 
L 93.161455 226.656643 
L 93.618 227.930117 
L 94.125273 228.715075 
L 94.581818 229.090522 
L 94.683273 228.348326 
L 95.038364 224.994677 
L 95.241273 224.597486 
L 95.393455 224.764915 
L 95.596364 225.27155 
L 95.647091 225.228062 
L 95.900727 223.598712 
L 96.103636 222.170131 
L 96.408 217.42849 
L 96.509455 217.28208 
L 96.610909 217.549531 
L 96.864545 219.178157 
L 97.219636 221.970086 
L 97.270364 221.806282 
L 97.676182 217.819157 
L 97.879091 216.33839 
L 97.980545 216.3036 
L 98.031273 216.347088 
L 98.386364 215.205528 
L 98.437091 215.296128 
L 98.64 216.307949 
L 98.893636 217.496621 
L 99.147273 217.585771 
L 99.299455 216.68267 
L 99.451636 214.993162 
L 99.705273 211.804042 
L 99.806727 211.675027 
L 99.958909 212.349816 
L 100.263273 214.027728 
L 100.466182 214.79819 
L 100.516909 215.086661 
L 100.567636 215.070715 
L 100.821273 212.22515 
L 100.872 212.185286 
L 100.973455 212.520144 
L 101.227091 214.746005 
L 101.632909 218.470752 
L 101.886545 218.085883 
L 102.038727 218.485248 
L 102.343091 220.356682 
L 103.205455 225.989102 
L 103.611273 227.527853 
L 103.712727 226.953086 
L 104.067818 224.120568 
L 104.22 223.571894 
L 104.524364 219.752198 
L 104.828727 216.433339 
L 104.930182 216.305774 
L 105.031636 216.444936 
L 105.386727 214.186459 
L 105.488182 214.398101 
L 105.691091 215.745504 
L 106.654909 224.342357 
L 106.705636 224.089402 
L 107.263636 216.687744 
L 107.365091 216.887789 
L 107.466545 215.400499 
L 107.770909 209.886221 
L 107.872364 209.627467 
L 107.923091 209.72459 
L 108.075273 210.662482 
L 108.481091 215.34324 
L 109.191273 222.892757 
L 109.698545 225.967358 
L 109.749273 226.186248 
L 109.8 226.167403 
L 110.662364 217.263235 
L 110.814545 217.742328 
L 110.916 217.984411 
L 111.271091 216.481901 
L 111.321818 216.562354 
L 111.524727 217.520539 
L 111.727636 218.783141 
L 111.879818 216.701515 
L 112.234909 210.810341 
L 112.691455 208.608398 
L 112.742182 208.685952 
L 112.894364 209.536867 
L 113.249455 213.510221 
L 114.061091 222.544128 
L 114.568364 225.710054 
L 115.024909 227.308963 
L 115.532182 228.280195 
L 116.090182 228.844814 
L 116.140909 228.875256 
L 116.191636 228.786106 
L 116.394545 226.997299 
L 117.155455 219.932674 
L 117.206182 219.948619 
L 117.358364 220.366104 
L 117.713455 222.383222 
L 118.423636 226.314538 
L 118.575818 226.697957 
L 118.728 225.826747 
L 118.829455 223.905302 
L 119.133818 218.18808 
L 119.286 217.728557 
L 119.387455 217.926427 
L 119.641091 219.344136 
L 120.706364 226.232635 
L 121.010727 227.237208 
L 121.112182 226.636349 
L 121.467273 224.037216 
L 121.619455 223.850942 
L 121.771636 224.043739 
L 122.076 225.001925 
L 122.177455 225.30924 
L 122.228182 225.212117 
L 122.735455 222.781862 
L 122.887636 223.002202 
L 123.192 224.11332 
L 123.547091 225.687586 
L 123.597818 225.589013 
L 124.003636 221.266306 
L 124.257273 218.135894 
L 124.409455 217.850323 
L 124.561636 218.343912 
L 124.916727 220.821278 
L 125.322545 223.870512 
L 125.373273 223.775563 
L 125.576182 220.706035 
L 125.880545 216.365933 
L 126.083455 213.700118 
L 126.387818 208.107562 
L 126.438545 207.993043 
L 126.489273 208.06045 
L 126.945818 210.442867 
L 127.098 211.409026 
L 127.148727 211.30393 
L 127.351636 210.829186 
L 127.453091 211.167667 
L 127.706727 213.36671 
L 128.772 224.33221 
L 129.279273 226.945838 
L 129.735818 228.239606 
L 130.243091 229.018766 
L 130.598182 229.271722 
L 130.750364 228.216413 
L 131.105455 225.6354 
L 131.206909 225.038165 
L 131.562 219.56665 
L 131.917091 207.596578 
L 132.221455 204.423403 
L 132.475091 203.262274 
L 132.576545 203.065128 
L 132.830182 201.382142 
L 132.880909 201.454622 
L 133.033091 202.53385 
L 133.388182 207.880699 
L 133.641818 210.431995 
L 133.743273 210.600874 
L 133.895455 211.441642 
L 134.250545 215.209877 
L 134.808545 220.879262 
L 135.163636 218.999131 
L 135.214364 219.015077 
L 135.366545 219.453581 
L 135.721636 221.493893 
L 135.772364 221.362704 
L 136.127455 219.626083 
L 136.228909 219.702187 
L 136.431818 220.430611 
L 136.685455 221.57652 
L 136.736182 221.44968 
L 137.243455 218.648328 
L 137.649273 212.778898 
L 137.750727 212.688298 
L 137.902909 213.31235 
L 138.258 216.529013 
L 139.018909 223.51391 
L 139.120364 223.962562 
L 139.272545 222.730402 
L 140.084182 215.824507 
L 140.236364 215.304101 
L 140.287091 215.322221 
L 140.439273 215.823058 
L 140.743636 218.014853 
L 141.656727 224.935968 
L 142.113273 226.856688 
L 142.214727 225.945614 
L 142.519091 223.113096 
L 142.671273 222.834773 
L 142.772727 222.919574 
L 143.026364 223.668293 
L 143.482909 225.417235 
L 143.635091 223.476221 
L 143.990182 219.024499 
L 144.193091 217.79089 
L 144.598909 214.540886 
L 144.801818 213.892915 
L 144.852545 213.937853 
L 145.004727 212.723813 
L 145.156909 211.300306 
L 145.816364 198.136488 
L 145.917818 197.799456 
L 145.968545 197.897304 
L 146.171455 197.085528 
L 146.222182 197.194248 
L 146.374364 198.463373 
L 146.729455 204.513278 
L 147.033818 208.363416 
L 147.186 208.736688 
L 147.236727 208.525771 
L 147.439636 207.832862 
L 147.541091 208.18729 
L 147.794727 210.478382 
L 148.251273 215.724485 
L 148.302 215.156966 
L 148.504909 213.636336 
L 148.606364 213.82116 
L 148.809273 215.173637 
L 149.062909 217.416168 
L 149.113636 217.398773 
L 149.418 216.198504 
L 149.468727 216.241992 
L 149.620909 216.787766 
L 150.026727 219.697114 
L 150.229636 221.048866 
L 150.635455 218.022101 
L 150.736909 218.219246 
L 150.990545 219.549979 
L 151.954364 225.257054 
L 152.005091 225.165005 
L 152.157273 222.902904 
L 152.461636 216.500021 
L 152.715273 214.041499 
L 153.019636 207.331301 
L 153.425455 205.52365 
L 153.476182 205.614974 
L 153.628364 206.638392 
L 153.983455 211.337995 
L 154.693636 220.539331 
L 155.200909 224.395267 
L 155.657455 226.355851 
L 155.809636 226.795805 
L 155.860364 226.772611 
L 156.063273 224.60401 
L 156.316909 222.845645 
L 156.469091 222.673142 
L 156.519818 222.685464 
L 156.621273 221.91935 
L 156.976364 216.242717 
L 157.179273 214.411872 
L 157.280727 214.350264 
L 157.432909 214.952573 
L 157.788 217.882214 
L 158.548909 223.998077 
L 158.802545 225.307066 
L 158.853273 225.191098 
L 159.309818 221.73815 
L 159.411273 221.779464 
L 159.563455 222.000528 
L 159.766364 220.25521 
L 160.273636 215.346864 
L 160.527273 213.189134 
L 160.578 213.130426 
L 160.628727 213.178987 
L 160.780909 213.831307 
L 161.136 216.924754 
L 161.896909 223.563197 
L 162.049091 224.136514 
L 162.252 223.236312 
L 162.505636 222.605736 
L 162.657818 222.740549 
L 162.911455 223.475496 
L 164.078182 227.491613 
L 164.585455 228.37152 
L 164.839091 228.595483 
L 165.397091 223.337059 
L 165.498545 223.381997 
L 165.701455 223.898779 
L 165.853636 224.374973 
L 165.955091 223.318214 
L 166.360909 217.828579 
L 166.462364 217.600267 
L 166.513091 217.620562 
L 166.665273 218.078635 
L 167.020364 220.391472 
L 167.832 225.70933 
L 168.339273 227.577864 
L 168.694364 228.364997 
L 168.745091 228.209165 
L 169.455273 217.246565 
L 169.556727 217.176259 
L 169.708909 217.746677 
L 170.114727 220.805333 
L 170.266909 221.914277 
L 170.317636 221.839622 
L 170.672727 219.92615 
L 170.723455 219.949344 
L 170.875636 220.376976 
L 171.129273 221.601888 
L 171.18 221.459827 
L 171.636545 217.911931 
L 172.042364 207.311006 
L 172.245273 205.583808 
L 172.448182 198.485117 
L 172.752545 188.630011 
L 172.904727 187.847227 
L 172.955455 187.829832 
L 173.056909 185.232874 
L 173.310545 179.63017 
L 173.361273 179.614224 
L 173.817818 182.664907 
L 174.071455 187.376107 
L 174.528 195.837422 
L 174.578727 196.112122 
L 174.629455 196.033843 
L 175.238182 191.779992 
L 175.491818 189.35916 
L 175.897636 183.469435 
L 175.948364 183.492629 
L 176.100545 181.364616 
L 176.354182 178.856083 
L 176.455636 179.348947 
L 176.658545 182.340197 
L 176.962909 186.596947 
L 177.165818 187.229698 
L 177.977455 171.209443 
L 178.028182 171.245683 
L 178.231091 173.17945 
L 178.484727 177.245578 
L 178.839818 182.794646 
L 178.890545 182.875099 
L 178.941273 182.758406 
L 179.042727 181.087742 
L 179.55 171.104347 
L 180.006545 164.712336 
L 180.158727 165.366106 
L 180.260182 163.612814 
L 180.767455 149.542272 
L 180.868909 149.00592 
L 180.919636 149.124062 
L 181.071818 151.003469 
L 181.274727 152.696602 
L 181.629818 155.049302 
L 182.137091 166.012627 
L 182.34 169.311917 
L 182.492182 170.218642 
L 182.695091 173.680286 
L 182.948727 177.041184 
L 183.709636 183.802118 
L 184.064727 188.568403 
L 184.115455 187.604419 
L 185.282182 153.962102 
L 185.637273 148.274597 
L 185.688 148.297066 
L 185.789455 149.224085 
L 185.992364 152.395085 
L 186.043091 151.9776 
L 186.246 150.488136 
L 186.296727 150.45407 
L 186.398182 150.00107 
L 186.448909 150.016291 
L 186.550364 150.740366 
L 187.057636 156.197386 
L 187.108364 156.232176 
L 187.260545 155.923411 
L 187.362 156.350318 
L 187.564909 159.327072 
L 188.021455 170.454202 
L 188.122909 169.62648 
L 188.224364 169.034318 
L 188.275091 169.071283 
L 188.376545 169.815653 
L 188.579455 171.830597 
L 188.731636 171.365275 
L 188.782364 171.475445 
L 188.934545 172.945339 
L 189.391091 178.824917 
L 189.644727 180.115786 
L 189.695455 179.954155 
L 189.847636 179.300386 
L 190.507091 166.23804 
L 190.557818 166.464178 
L 190.71 168.33851 
L 191.369455 178.583558 
L 191.470909 177.916742 
L 191.724545 176.188819 
L 191.826 176.725171 
L 192.333273 180.973949 
L 192.536182 182.613446 
L 192.840545 187.580501 
L 193.043455 191.00663 
L 193.855091 180.412954 
L 194.210182 175.574914 
L 194.260909 175.501709 
L 194.362364 175.94891 
L 194.565273 178.731418 
L 195.021818 189.435264 
L 195.376909 195.867139 
L 195.732 200.219563 
L 196.137818 205.567862 
L 196.239273 204.559666 
L 196.645091 197.33341 
L 196.695818 197.215267 
L 196.746545 197.250782 
L 196.898727 198.090826 
L 197.152364 199.594061 
L 197.304545 199.978205 
L 197.507455 201.512606 
L 198.014727 206.128133 
L 198.065455 206.161474 
L 198.268364 204.664762 
L 198.522 202.909296 
L 198.674182 197.499389 
L 199.485818 161.424643 
L 199.840909 153.243101 
L 199.993091 150.975926 
L 200.043818 151.046957 
L 200.145273 151.601429 
L 200.196 151.518077 
L 200.398909 151.58041 
L 200.551091 153.327902 
L 201.058364 161.206478 
L 201.87 174.070229 
L 202.225091 180.947856 
L 202.275818 181.11311 
L 202.326545 181.015262 
L 202.428 180.62677 
L 202.630909 177.297038 
L 203.290364 163.197504 
L 203.341091 163.285205 
L 203.493273 164.884114 
L 204.254182 177.784829 
L 204.304909 177.575362 
L 204.66 173.814374 
L 204.964364 175.010294 
L 205.065818 175.466194 
L 205.116545 175.356749 
L 205.218 174.310862 
L 205.573091 167.752147 
L 205.623818 167.763019 
L 205.725273 168.485645 
L 205.978909 173.225112 
L 206.435455 182.051002 
L 206.486182 182.904816 
L 206.536909 182.793197 
L 206.638364 182.575757 
L 206.790545 183.283162 
L 206.841273 183.230251 
L 206.892 183.257069 
L 206.993455 183.843432 
L 207.196364 186.89629 
L 208.312364 209.615146 
L 208.363091 209.34697 
L 208.921091 201.527102 
L 209.022545 200.955235 
L 209.479091 197.45735 
L 209.529818 197.466048 
L 209.631273 197.852366 
L 209.884909 200.308714 
L 210.290727 203.363021 
L 210.493636 204.358896 
L 210.747273 203.800075 
L 211.000909 201.875731 
L 211.254545 194.280552 
L 211.609636 188.312549 
L 211.660364 188.182085 
L 211.711091 188.23427 
L 211.863273 189.305525 
L 212.167636 194.101526 
L 212.319818 196.178803 
L 212.522727 194.275478 
L 212.827091 184.994414 
L 213.334364 162.927878 
L 213.385091 162.676373 
L 213.435818 162.706814 
L 213.588 164.13467 
L 214.044545 170.473046 
L 214.146 170.004826 
L 214.906909 157.004813 
L 214.957636 156.955526 
L 215.008364 157.101936 
L 215.059091 156.938131 
L 215.363455 154.94928 
L 215.414182 154.937683 
L 215.515636 155.466787 
L 215.718545 158.750856 
L 216.276545 169.954814 
L 216.428727 167.601389 
L 216.682364 165.071112 
L 216.783818 165.553829 
L 217.037455 168.473323 
L 217.138909 168.112373 
L 217.291091 165.13272 
L 217.494 161.864597 
L 217.544727 161.804438 
L 217.646182 162.4872 
L 217.849091 166.197451 
L 218.254909 173.510683 
L 218.660727 177.521726 
L 218.711455 177.500707 
L 218.812909 176.94696 
L 219.117273 173.336006 
L 219.168 173.406312 
L 219.320182 174.80735 
L 220.334727 187.45801 
L 220.436182 187.542086 
L 220.588364 188.509694 
L 220.689818 189.375106 
L 220.740545 189.135922 
L 221.298545 181.536394 
L 221.653636 178.603853 
L 221.704364 178.492958 
L 221.755091 178.530648 
L 221.907273 179.512027 
L 222.160909 183.411451 
L 222.820364 196.53468 
L 222.871091 196.168656 
L 223.074 194.858942 
L 223.226182 195.136541 
L 223.429091 194.692238 
L 223.530545 195.108274 
L 223.632 195.629405 
L 223.682727 195.599688 
L 223.784182 195.445306 
L 223.834909 195.48372 
L 223.987091 196.295496 
L 224.19 198.411912 
L 224.240727 198.23651 
L 224.392909 197.552299 
L 224.494364 197.887157 
L 224.697273 199.988352 
L 226.016182 216.971866 
L 226.066909 217.115376 
L 226.117636 216.914606 
L 226.269818 213.139123 
L 226.624909 205.026437 
L 226.777091 204.386438 
L 226.878545 204.605328 
L 227.081455 206.022312 
L 228.197455 217.110302 
L 228.248182 216.921854 
L 228.603273 215.197555 
L 228.704727 215.19828 
L 228.856909 215.558506 
L 229.212 217.299475 
L 230.074364 221.669294 
L 230.378727 222.515136 
L 230.530909 221.569272 
L 230.835273 219.724656 
L 230.936727 219.383275 
L 231.241091 215.190307 
L 231.545455 210.729163 
L 231.646909 210.463162 
L 231.697636 210.508099 
L 231.799091 210.72264 
L 232.103455 209.534693 
L 232.154182 209.577456 
L 232.306364 210.174691 
L 232.610727 212.676701 
L 233.371636 219.6558 
L 233.422364 219.593467 
L 233.777455 216.867494 
L 233.878909 216.90156 
L 234.081818 217.59157 
L 234.132545 217.795963 
L 234.183273 217.571275 
L 234.589091 213.2232 
L 234.944182 206.985571 
L 235.147091 205.200389 
L 235.35 203.271696 
L 235.400727 203.278219 
L 235.502182 203.754413 
L 235.654364 205.264896 
L 235.705091 204.894523 
L 236.060182 200.710978 
L 236.161636 201.004522 
L 236.364545 203.011493 
L 237.531273 219.033922 
L 237.632727 218.774443 
L 237.886364 217.646654 
L 237.987818 217.584322 
L 238.089273 216.834878 
L 238.241455 213.008659 
L 238.545818 205.859957 
L 238.698 205.209811 
L 238.799455 205.54032 
L 239.103818 208.240925 
L 239.205273 207.907517 
L 239.915455 204.104491 
L 240.016909 204.361795 
L 240.219818 206.125958 
L 241.690909 222.494117 
L 242.147455 224.591688 
L 242.654727 225.918072 
L 243.212727 226.727674 
L 243.364909 226.851614 
L 243.517091 222.674592 
L 243.821455 216.534811 
L 244.024364 215.848426 
L 244.176545 216.270984 
L 244.430182 217.587946 
L 244.480909 217.558229 
L 244.734545 216.66745 
L 245.191091 213.284083 
L 245.343273 213.767525 
L 245.647636 216.016579 
L 246.560727 223.240661 
L 247.068 225.47377 
L 247.118727 225.636125 
L 247.169455 225.534653 
L 247.473818 218.827354 
L 248.082545 207.421176 
L 248.640545 204.336427 
L 248.742 204.549518 
L 248.944909 206.281066 
L 249.249273 209.162146 
L 249.401455 209.265067 
L 249.553636 210.007262 
L 249.908727 213.671126 
L 250.669636 221.641027 
L 251.024727 223.91255 
L 251.075455 223.87921 
L 251.582727 221.296747 
L 251.633455 221.319941 
L 251.734909 221.064086 
L 252.140727 219.215122 
L 252.242182 219.287602 
L 252.445091 219.935573 
L 253.053818 223.258056 
L 253.662545 225.909374 
L 254.169818 227.208941 
L 254.474182 227.664115 
L 254.575636 227.143709 
L 255.032182 223.982131 
L 255.184364 223.852392 
L 255.235091 223.885733 
L 255.336545 222.942043 
L 255.590182 217.385002 
L 255.843818 214.458984 
L 255.894545 214.379981 
L 255.945273 214.42057 
L 256.046727 214.780795 
L 256.097455 214.648157 
L 256.300364 211.525718 
L 256.706182 203.674685 
L 256.756909 203.774707 
L 256.959818 204.999619 
L 257.061273 204.882926 
L 257.162727 205.009042 
L 257.314909 206.039707 
L 257.67 210.860352 
L 258.430909 221.045966 
L 258.938182 224.897554 
L 259.394727 226.832045 
L 259.851273 227.910547 
L 260.104909 228.24323 
L 260.206364 227.830094 
L 260.764364 223.329811 
L 261.068727 219.902957 
L 261.170182 219.720307 
L 261.220909 219.755822 
L 261.373091 220.216795 
L 261.778909 222.59124 
L 262.387636 225.77891 
L 262.539818 224.529355 
L 262.793455 222.739099 
L 262.945636 222.588341 
L 263.097818 222.890582 
L 263.351455 223.893706 
L 263.402182 223.549426 
L 263.706545 219.208598 
L 263.808 219.14699 
L 263.909455 217.727107 
L 264.112364 215.278008 
L 264.163091 215.166389 
L 264.213818 215.19973 
L 264.366 215.913658 
L 264.822545 220.10735 
L 265.431273 224.967859 
L 265.938545 227.322734 
L 266.395091 228.505608 
L 266.445818 228.597658 
L 266.547273 227.742394 
L 266.902364 224.101723 
L 267.054545 223.831373 
L 267.206727 224.025619 
L 267.511091 225.065707 
L 268.069091 227.211115 
L 268.119818 227.071954 
L 268.272 224.720702 
L 268.728545 216.159365 
L 268.880727 215.74043 
L 268.982182 215.935402 
L 269.134364 216.447835 
L 269.235818 215.550533 
L 269.692364 206.017963 
L 270.148909 203.606554 
L 270.706909 197.794382 
L 270.808364 198.295944 
L 271.062 201.634373 
L 271.569273 209.11141 
L 271.873636 211.090114 
L 271.924364 210.845856 
L 272.330182 207.092117 
L 272.431636 207.435672 
L 272.685273 209.794171 
L 273.344727 217.948896 
L 273.395455 217.930776 
L 273.699818 217.074787 
L 273.852 217.485749 
L 274.054909 218.37073 
L 274.105636 218.241715 
L 274.41 217.296576 
L 274.460727 217.287154 
L 274.612909 216.547858 
L 274.866545 215.563579 
L 275.424545 213.684898 
L 275.779636 212.093962 
L 276.286909 209.180266 
L 276.337636 209.238974 
L 276.489818 209.980445 
L 276.895636 213.429768 
L 276.946364 213.242045 
L 277.098545 212.947776 
L 277.2 213.225374 
L 277.453636 215.03665 
L 278.518909 224.000976 
L 278.874 225.52668 
L 279.026182 224.190874 
L 279.279818 222.316541 
L 279.432 222.091853 
L 279.634909 222.219418 
L 279.99 219.896434 
L 280.801636 211.528618 
L 280.852364 211.544563 
L 281.004545 212.267914 
L 281.359636 215.768698 
L 282.069818 222.545578 
L 282.424909 224.668517 
L 282.475636 224.544576 
L 282.678545 222.056338 
L 283.033636 217.150891 
L 283.185818 216.729782 
L 283.287273 216.876917 
L 283.439455 217.264685 
L 283.540909 215.422243 
L 283.946727 205.898371 
L 284.200364 203.2572 
L 284.251091 203.276045 
L 284.403273 204.148704 
L 284.707636 208.024934 
L 285.012 211.129253 
L 285.113455 211.13795 
L 285.214909 211.368437 
L 285.417818 212.618717 
L 286.939636 224.814926 
L 287.446909 226.394266 
L 287.751273 226.981354 
L 287.802 226.780584 
L 288.258545 221.992555 
L 288.410727 221.373576 
L 288.765818 219.65435 
L 288.867273 219.666672 
L 289.019455 220.025448 
L 289.374545 221.495342 
L 289.425273 221.319941 
L 289.678909 219.510115 
L 289.831091 214.54596 
L 290.236909 201.84529 
L 290.389091 200.824046 
L 290.490545 201.203117 
L 290.693455 203.513054 
L 292.012364 222.358579 
L 292.266 223.814702 
L 292.722545 220.951742 
L 293.077636 217.458206 
L 293.179091 217.351661 
L 293.280545 217.559678 
L 293.331273 217.476326 
L 293.635636 214.305326 
L 293.686364 214.27416 
L 293.737091 214.357512 
L 293.94 215.472254 
L 294.244364 217.683619 
L 294.345818 216.66455 
L 294.650182 207.031234 
L 294.954545 195.981658 
L 295.309636 191.898859 
L 295.360364 191.935099 
L 295.512545 193.25496 
L 295.867636 200.056483 
L 296.425636 210.828461 
L 296.73 212.2266 
L 296.780727 212.612918 
L 296.831455 212.362862 
L 297.085091 209.893469 
L 297.186545 210.164544 
L 297.440182 212.417222 
L 298.201091 220.19795 
L 298.353273 220.214621 
L 298.556182 220.216795 
L 298.759091 220.619059 
L 299.114182 221.995454 
L 299.469273 223.615382 
L 299.52 223.471147 
L 299.925818 219.709435 
L 300.027273 219.689866 
L 300.078 219.778291 
L 300.128727 219.718858 
L 300.534545 217.183507 
L 300.585273 217.21105 
L 300.737455 217.675646 
L 300.940364 218.571499 
L 301.295455 216.626136 
L 301.396909 216.75805 
L 301.599818 217.730006 
L 302.766545 224.886682 
L 302.918727 224.137238 
L 303.223091 222.820277 
L 303.375273 222.763742 
L 303.578182 223.125418 
L 304.034727 224.702582 
L 304.694182 226.768262 
L 304.744909 226.699406 
L 304.897091 224.211168 
L 305.201455 219.498518 
L 305.404364 217.781467 
L 305.810182 211.459762 
L 306.063818 209.919562 
L 306.165273 209.937682 
L 306.368182 210.30588 
L 306.418909 210.144974 
L 307.179818 200.170277 
L 307.281273 200.455848 
L 307.484182 202.691856 
L 308.143636 211.148822 
L 308.448 214.519142 
L 308.498727 214.266912 
L 308.904545 207.991594 
L 309.006 208.272816 
L 309.208909 210.041328 
L 310.477091 223.605235 
L 310.527818 223.713955 
L 310.730727 222.32089 
L 310.832182 220.991606 
L 311.440909 208.048853 
L 311.796 205.928088 
L 311.846727 205.970851 
L 311.998909 206.765957 
L 312.303273 210.25297 
L 313.216364 221.437358 
L 313.672909 224.568494 
L 313.723636 224.61923 
L 313.875818 223.642925 
L 314.180182 222.132442 
L 314.230909 222.062861 
L 314.383091 220.466126 
L 314.636727 218.557003 
L 314.738182 218.444659 
L 314.788909 218.493221 
L 314.941091 218.952019 
L 315.346909 221.300371 
L 316.057091 225.23676 
L 316.564364 226.911773 
L 317.071636 227.874307 
L 317.528182 228.375144 
L 317.629636 227.811974 
L 318.086182 224.147386 
L 318.289091 223.147886 
L 319.202182 216.526838 
L 319.608 212.473032 
L 319.709455 212.333146 
L 319.810909 212.591899 
L 320.064545 214.408248 
L 320.419636 217.655352 
L 320.470364 217.629984 
L 320.724 217.13857 
L 320.825455 217.316146 
L 321.028364 218.291002 
L 322.144364 225.643373 
L 322.245818 223.76759 
L 322.550182 216.588446 
L 322.753091 215.685346 
L 322.854545 215.931778 
L 323.108182 217.550981 
L 323.463273 219.989933 
L 323.818364 218.952019 
L 323.869091 219.014352 
L 323.970545 219.220195 
L 324.122727 216.814584 
L 324.427091 212.402002 
L 324.528545 212.201232 
L 324.63 212.469408 
L 324.883636 214.379981 
L 325.999636 224.411938 
L 326.405455 226.226837 
L 326.506909 225.85139 
L 326.608364 224.279299 
L 326.760545 218.147491 
L 327.014182 211.452514 
L 327.369273 207.129806 
L 327.42 207.179818 
L 327.572182 208.112635 
L 327.978 211.908413 
L 328.028727 211.857677 
L 328.130182 211.864925 
L 328.282364 212.439691 
L 328.586727 215.093909 
L 329.449091 223.155859 
L 329.550545 223.488542 
L 330.007091 221.072059 
L 330.057818 221.086555 
L 330.21 221.399669 
L 330.463636 222.176654 
L 330.666545 221.174981 
L 330.869455 219.992107 
L 331.224545 216.737755 
L 331.326 216.752976 
L 331.478182 217.308173 
L 331.884 220.16461 
L 332.543455 224.473546 
L 332.644909 224.015472 
L 332.949273 222.193325 
L 333.101455 222.088229 
L 333.253636 222.378149 
L 333.608727 223.775563 
L 334.369636 226.769712 
L 334.623273 227.362598 
L 334.775455 225.613656 
L 335.079818 220.493669 
L 335.536364 210.41315 
L 335.79 206.50213 
L 335.891455 206.280341 
L 335.992909 206.639842 
L 336.246545 209.148374 
L 336.500182 212.536814 
L 336.550909 212.51797 
L 336.753818 211.700395 
L 336.855273 212.034528 
L 337.007455 212.776723 
L 337.058182 212.733235 
L 337.210364 212.539714 
L 337.311818 212.736134 
L 337.616182 214.295179 
L 337.717636 214.069042 
L 337.869818 213.92843 
L 338.022 214.400275 
L 338.326364 216.673248 
L 339.290182 224.503987 
L 339.797455 226.689259 
L 340.304727 227.893877 
L 340.812 228.55127 
L 340.964182 228.685358 
L 341.065636 227.056733 
L 341.319273 222.914501 
L 341.522182 222.358579 
L 341.674364 222.678941 
L 342.029455 224.027794 
L 342.080182 223.98503 
L 342.181636 223.440706 
L 342.638182 218.566426 
L 342.739636 218.46133 
L 342.790364 218.519314 
L 342.993273 219.283978 
L 343.145455 220.052266 
L 343.196182 220.029072 
L 343.500545 218.868667 
L 343.906364 215.628086 
L 344.007818 215.771597 
L 344.16 216.365208 
L 344.210727 216.227496 
L 344.464364 215.113478 
L 344.565818 215.247566 
L 344.768727 216.343464 
L 345.580364 222.931171 
L 345.631091 222.702134 
L 345.986182 220.61471 
L 346.087636 220.698062 
L 346.290545 221.427936 
L 347.609455 227.487264 
L 348.116727 228.499085 
L 348.573273 229.015867 
L 348.674727 228.025066 
L 349.283455 218.607739 
L 349.384909 218.595418 
L 349.537091 219.096254 
L 349.942909 221.738875 
L 350.247273 223.619006 
L 350.399455 222.612259 
L 350.653091 221.368502 
L 350.754545 221.361254 
L 350.856 221.511288 
L 351.363273 211.251744 
L 351.414 211.343069 
L 351.515455 211.133602 
L 351.667636 210.763229 
L 351.718364 210.787147 
L 351.870545 211.35684 
L 352.174909 214.045123 
L 352.986545 222.13969 
L 353.088 221.778739 
L 353.341636 219.898608 
L 353.696727 215.77667 
L 353.950364 211.48513 
L 354.204 209.09184 
L 354.254727 209.104886 
L 354.406909 209.839834 
L 354.711273 213.084763 
L 355.370727 220.749523 
L 355.421455 220.70531 
L 355.776545 219.251362 
L 355.878 219.38255 
L 356.080909 220.175482 
L 357.450545 226.954536 
L 357.957818 228.032314 
L 358.160727 228.247579 
L 358.312909 226.392091 
L 358.617273 223.550875 
L 358.718727 222.291173 
L 359.073818 214.539437 
L 359.226 213.963946 
L 359.327455 214.187909 
L 359.530364 215.501971 
L 360.697091 224.853341 
L 360.798545 224.643149 
L 361.153636 223.737874 
L 361.305818 223.78571 
L 361.559455 224.219141 
L 361.610182 224.164781 
L 361.711636 223.680614 
L 361.863818 221.369227 
L 362.218909 213.917558 
L 362.371091 213.230448 
L 362.472545 213.376858 
L 362.675455 214.581475 
L 362.827636 215.673749 
L 363.132 213.803765 
L 363.182727 213.916834 
L 363.385636 215.224373 
L 364.298727 223.24501 
L 364.349455 223.214568 
L 364.806 222.290448 
L 365.414727 213.818261 
L 365.465455 213.890741 
L 365.617636 214.588723 
L 366.023455 218.158363 
L 366.632182 223.344307 
L 366.682909 223.245734 
L 367.088727 220.887235 
L 367.190182 220.976386 
L 367.393091 221.684515 
L 367.596 222.678941 
L 367.646727 222.485419 
L 367.748182 220.419014 
L 368.103273 211.345243 
L 368.255455 210.640013 
L 368.356909 210.906014 
L 368.559818 212.481005 
L 369.371455 220.594416 
L 369.422182 220.583544 
L 369.675818 220.50599 
L 369.828 220.790837 
L 370.183091 222.081706 
L 370.233818 221.838173 
L 370.588909 219.725381 
L 370.690364 219.788438 
L 370.944 220.384224 
L 370.994727 220.272605 
L 371.096182 219.502867 
L 371.907818 206.515176 
L 371.958545 206.548517 
L 372.06 206.822491 
L 372.262909 204.324106 
L 372.719455 198.016171 
L 372.770182 198.074155 
L 372.922364 199.119317 
L 373.074545 200.891453 
L 373.125273 200.669664 
L 373.277455 199.889054 
L 373.378909 200.368147 
L 373.581818 202.897699 
L 373.581818 202.897699 
" style="fill:none;stroke:#000000;stroke-linecap:square;stroke-width:1.5;"/>
   </g>
   <g id="line2d_16">
    <path clip-path="url(#pdcd2746de6)" d="M 69.218182 157.776 
L 69.471818 188.981539 
L 69.877636 212.113531 
L 70.232727 222.259282 
L 70.384909 223.558123 
L 70.486364 223.036267 
L 70.790727 220.901006 
L 70.892182 220.823453 
L 71.044364 221.196 
L 71.348727 222.950741 
L 71.500909 223.944442 
L 71.551636 223.853842 
L 72.008182 217.490098 
L 72.109636 217.572 
L 72.363273 218.69399 
L 72.464727 218.571499 
L 72.616909 218.416392 
L 72.718364 218.598317 
L 72.921273 219.613762 
L 74.392364 229.031813 
L 74.848909 230.143656 
L 75.051818 230.360371 
L 75.204 228.601282 
L 75.508364 225.799205 
L 75.660545 225.56292 
L 75.812727 225.76079 
L 76.117091 226.74217 
L 76.167818 226.337731 
L 76.522909 216.717461 
L 76.675091 216.192706 
L 76.776545 216.530462 
L 76.979455 217.772045 
L 77.030182 217.66115 
L 77.283818 216.799363 
L 77.385273 217.038547 
L 77.638909 218.726606 
L 78.247636 223.588565 
L 78.298364 223.558848 
L 78.399818 222.866664 
L 78.957818 216.82908 
L 79.160727 216.212275 
L 79.262182 216.460157 
L 79.363636 216.9378 
L 79.414364 216.785592 
L 79.820182 211.940304 
L 79.870909 211.959149 
L 80.023091 212.668003 
L 80.073818 212.907187 
L 80.124545 212.809339 
L 80.327455 212.085989 
L 80.428909 212.33387 
L 80.631818 213.881318 
L 80.784 215.141746 
L 80.834727 215.082312 
L 80.986909 214.575677 
L 81.291273 212.091062 
L 81.342 212.099035 
L 81.494182 212.76875 
L 81.798545 215.751302 
L 82.052182 217.50097 
L 82.356545 216.925478 
L 82.508727 215.586773 
L 82.813091 210.840782 
L 82.863818 210.765403 
L 82.914545 210.842232 
L 83.066727 211.744608 
L 83.472545 216.328243 
L 84.132 223.277626 
L 84.639273 226.419634 
L 85.095818 228.000422 
L 85.197273 228.230184 
L 85.298727 227.581488 
L 85.704545 224.047363 
L 85.856727 223.87921 
L 86.008909 223.982856 
L 86.110364 221.917901 
L 86.465455 212.780347 
L 86.668364 211.741709 
L 86.769818 212.026555 
L 87.023455 214.051646 
L 87.733636 221.23079 
L 87.784364 220.953917 
L 88.038 219.628982 
L 88.139455 219.638405 
L 88.291636 220.115323 
L 88.697455 222.583267 
L 88.849636 223.389245 
L 88.900364 223.313866 
L 89.001818 221.858467 
L 89.559818 208.046678 
L 89.610545 207.956803 
L 89.661273 208.013338 
L 89.813455 208.870051 
L 90.625091 215.261338 
L 90.675818 215.480952 
L 90.726545 215.28888 
L 91.183091 212.422296 
L 91.284545 212.528842 
L 91.487455 213.632712 
L 91.994727 218.574398 
L 92.654182 224.156808 
L 93.161455 226.656643 
L 93.618 227.930117 
L 94.125273 228.715075 
L 94.581818 229.090522 
L 94.683273 228.348326 
L 95.038364 224.994677 
L 95.241273 224.597486 
L 95.393455 224.764915 
L 95.596364 225.27155 
L 95.647091 225.228062 
L 95.900727 223.598712 
L 96.103636 222.170131 
L 96.408 217.42849 
L 96.509455 217.28208 
L 96.610909 217.549531 
L 96.864545 219.178157 
L 97.219636 221.970086 
L 97.270364 221.806282 
L 97.676182 217.819157 
L 97.879091 216.33839 
L 97.980545 216.3036 
L 98.031273 216.347088 
L 98.386364 215.205528 
L 98.437091 215.296128 
L 98.64 216.307949 
L 98.893636 217.496621 
L 99.147273 217.585771 
L 99.299455 216.68267 
L 99.451636 214.993162 
L 99.705273 211.804042 
L 99.806727 211.675027 
L 99.958909 212.349816 
L 100.263273 214.027728 
L 100.466182 214.79819 
L 100.516909 215.086661 
L 100.567636 215.070715 
L 100.821273 212.22515 
L 100.872 212.185286 
L 100.973455 212.520144 
L 101.227091 214.746005 
L 101.632909 218.470752 
L 101.886545 218.085883 
L 102.038727 218.485248 
L 102.343091 220.356682 
L 103.205455 225.989102 
L 103.611273 227.527853 
L 103.712727 226.953086 
L 104.067818 224.120568 
L 104.22 223.571894 
L 104.524364 219.752198 
L 104.828727 216.433339 
L 104.930182 216.305774 
L 105.031636 216.444936 
L 105.386727 214.186459 
L 105.488182 214.398101 
L 105.691091 215.745504 
L 106.654909 224.342357 
L 106.705636 224.089402 
L 107.263636 216.687744 
L 107.365091 216.887789 
L 107.466545 215.400499 
L 107.770909 209.886221 
L 107.872364 209.627467 
L 107.923091 209.72459 
L 108.075273 210.662482 
L 108.481091 215.34324 
L 109.191273 222.892757 
L 109.698545 225.967358 
L 109.749273 226.186248 
L 109.8 226.167403 
L 110.662364 217.263235 
L 110.814545 217.742328 
L 110.916 217.984411 
L 111.271091 216.481901 
L 111.321818 216.562354 
L 111.524727 217.520539 
L 111.727636 218.783141 
L 111.879818 216.701515 
L 112.234909 210.810341 
L 112.691455 208.608398 
L 112.742182 208.685952 
L 112.894364 209.536867 
L 113.249455 213.510221 
L 114.061091 222.544128 
L 114.568364 225.710054 
L 115.024909 227.308963 
L 115.532182 228.280195 
L 116.090182 228.844814 
L 116.140909 228.875256 
L 116.191636 228.786106 
L 116.394545 226.997299 
L 117.155455 219.932674 
L 117.206182 219.948619 
L 117.358364 220.366104 
L 117.713455 222.383222 
L 118.423636 226.314538 
L 118.575818 226.697957 
L 118.728 225.826747 
L 118.829455 223.905302 
L 119.133818 218.18808 
L 119.286 217.728557 
L 119.387455 217.926427 
L 119.641091 219.344136 
L 120.706364 226.232635 
L 121.010727 227.237208 
L 121.112182 226.636349 
L 121.467273 224.037216 
L 121.619455 223.850942 
L 121.771636 224.043739 
L 122.076 225.001925 
L 122.177455 225.30924 
L 122.228182 225.212117 
L 122.735455 222.781862 
L 122.887636 223.002202 
L 123.192 224.11332 
L 123.547091 225.687586 
L 123.597818 225.589013 
L 124.003636 221.266306 
L 124.257273 218.135894 
L 124.409455 217.850323 
L 124.561636 218.343912 
L 124.916727 220.821278 
L 125.322545 223.870512 
L 125.373273 223.775563 
L 125.576182 220.706035 
L 125.880545 216.365933 
L 126.083455 213.700118 
L 126.387818 208.107562 
L 126.438545 207.993043 
L 126.489273 208.06045 
L 126.945818 210.442867 
L 127.098 211.409026 
L 127.148727 211.30393 
L 127.351636 210.829186 
L 127.453091 211.167667 
L 127.706727 213.36671 
L 128.772 224.33221 
L 129.279273 226.945838 
L 129.735818 228.239606 
L 130.243091 229.018766 
L 130.598182 229.271722 
L 130.750364 228.216413 
L 131.105455 225.6354 
L 131.206909 225.038165 
L 131.562 219.56665 
L 131.917091 207.596578 
L 132.221455 204.423403 
L 132.475091 203.262274 
L 132.576545 203.065128 
L 132.830182 201.382142 
L 132.880909 201.454622 
L 133.033091 202.53385 
L 133.388182 207.880699 
L 133.641818 210.431995 
L 133.743273 210.600874 
L 133.895455 211.441642 
L 134.250545 215.209877 
L 134.808545 220.879262 
L 135.163636 218.999131 
L 135.214364 219.015077 
L 135.366545 219.453581 
L 135.721636 221.493893 
L 135.772364 221.362704 
L 136.127455 219.626083 
L 136.228909 219.702187 
L 136.431818 220.430611 
L 136.685455 221.57652 
L 136.736182 221.44968 
L 137.243455 218.648328 
L 137.649273 212.778898 
L 137.750727 212.688298 
L 137.902909 213.31235 
L 138.258 216.529013 
L 139.018909 223.51391 
L 139.120364 223.962562 
L 139.272545 222.730402 
L 140.084182 215.824507 
L 140.236364 215.304101 
L 140.287091 215.318597 
L 140.439273 215.780294 
L 140.743636 217.831478 
L 141.606 223.938643 
L 142.062545 225.707155 
L 142.113273 225.825298 
L 142.214727 224.851166 
L 142.519091 221.798309 
L 142.722 221.388072 
L 142.874182 221.572896 
L 143.178545 222.512962 
L 143.482909 223.454477 
L 143.635091 221.41199 
L 143.990182 216.630485 
L 144.193091 215.203354 
L 144.598909 211.541664 
L 144.801818 210.68495 
L 144.852545 210.679877 
L 145.004727 209.320152 
L 145.207636 206.515176 
L 145.765636 194.205173 
L 145.917818 193.09188 
L 145.968545 193.11 
L 146.171455 191.997432 
L 146.222182 192.034397 
L 146.374364 193.110725 
L 146.678727 197.9118 
L 147.033818 202.665763 
L 147.186 203.016566 
L 147.236727 202.796952 
L 147.439636 202.036637 
L 147.541091 202.350475 
L 147.744 204.006643 
L 148.251273 209.801419 
L 148.302 209.238974 
L 148.504909 207.67848 
L 148.606364 207.834312 
L 148.809273 209.139677 
L 149.062909 211.35829 
L 149.113636 211.33872 
L 149.418 210.041328 
L 149.468727 210.061622 
L 149.620909 210.545789 
L 149.976 212.973144 
L 150.229636 214.723536 
L 150.635455 211.553986 
L 150.686182 211.59095 
L 150.838364 212.090338 
L 151.244182 214.631486 
L 151.903636 218.438861 
L 151.954364 218.651952 
L 152.005091 218.564976 
L 152.157273 216.276782 
L 152.512364 209.084592 
L 152.664545 208.177867 
L 153.070364 199.176576 
L 153.171818 198.814901 
L 153.425455 196.992754 
L 153.476182 197.006525 
L 153.577636 197.441405 
L 153.831273 200.147083 
L 154.998 214.74383 
L 155.505273 217.848149 
L 155.860364 218.98536 
L 156.063273 216.819658 
L 156.316909 214.931554 
L 156.621273 213.837106 
L 156.925636 208.70987 
L 157.179273 205.613525 
L 157.280727 205.41203 
L 157.331455 205.473638 
L 157.483636 206.129582 
L 157.889455 209.540491 
L 158.650364 215.646206 
L 158.802545 216.482626 
L 158.853273 216.397824 
L 159.360545 212.866598 
L 159.563455 213.077515 
L 159.715636 211.73881 
L 160.628727 203.057155 
L 160.730182 203.307936 
L 160.983818 205.060502 
L 162.049091 214.398826 
L 162.201273 213.843629 
L 162.454909 213.032578 
L 162.607091 213.063744 
L 162.81 213.55081 
L 163.317273 215.662152 
L 164.027455 218.267083 
L 164.585455 219.476774 
L 164.839091 219.771768 
L 165.447818 214.194432 
L 165.549273 214.267637 
L 165.752182 214.79964 
L 165.853636 215.07289 
L 165.955091 213.981341 
L 166.360909 207.974198 
L 166.513091 207.576283 
L 166.614545 207.726317 
L 166.817455 208.670731 
L 167.476909 213.592123 
L 168.085636 217.144368 
L 168.592909 218.898384 
L 168.694364 219.14844 
L 168.745091 219.020875 
L 169.506 207.374789 
L 169.607455 207.397258 
L 169.759636 208.017686 
L 170.165455 211.08649 
L 170.266909 211.80839 
L 170.317636 211.748957 
L 170.672727 209.778226 
L 170.723455 209.789098 
L 170.875636 210.19716 
L 171.129273 211.452514 
L 171.18 211.321325 
L 171.636545 207.635717 
L 172.042364 196.265054 
L 172.245273 194.101526 
L 172.448182 186.404875 
L 172.752545 175.195118 
L 173.107636 168.632054 
L 173.310545 164.066539 
L 173.361273 163.86432 
L 173.412 163.967242 
L 173.614909 164.636232 
L 173.716364 164.88049 
L 173.868545 166.284427 
L 174.172909 172.46987 
L 174.477273 178.272619 
L 174.578727 179.114837 
L 174.629455 179.100341 
L 175.086 176.588909 
L 175.593273 170.312866 
L 175.846909 166.006104 
L 175.948364 165.82128 
L 176.100545 163.396099 
L 176.354182 160.217126 
L 176.404909 160.231622 
L 176.506364 160.868722 
L 176.709273 164.064365 
L 176.962909 167.172307 
L 177.165818 167.781139 
L 178.028182 150.969403 
L 178.180364 152.016014 
L 178.434 155.260944 
L 178.839818 161.752253 
L 178.890545 161.855174 
L 178.941273 161.756602 
L 179.042727 160.117829 
L 179.702182 146.586538 
L 180.006545 141.952891 
L 180.108 142.26673 
L 180.158727 142.181928 
L 180.260182 140.151763 
L 180.818182 122.69713 
L 180.919636 122.086848 
L 180.970364 122.201366 
L 181.224 123.977126 
L 181.274727 123.941611 
L 181.376182 124.026413 
L 181.426909 123.966254 
L 181.477636 123.937987 
L 181.579091 124.351123 
L 181.832727 127.962802 
L 182.137091 134.703442 
L 182.34 138.109277 
L 182.492182 139.203 
L 182.695091 143.02632 
L 182.948727 147.217114 
L 183.709636 157.006262 
L 184.064727 163.530187 
L 184.115455 162.853224 
L 184.673455 146.239358 
L 185.028545 131.999213 
L 185.383636 125.73839 
L 185.688 120.645221 
L 185.738727 120.753941 
L 185.890909 122.53115 
L 185.992364 123.521227 
L 186.448909 119.583389 
L 186.499636 119.647896 
L 186.651818 121.032989 
L 187.006909 123.355248 
L 187.057636 123.461794 
L 187.209818 122.628998 
L 187.311273 122.300664 
L 187.362 122.397062 
L 187.514182 123.813322 
L 187.767818 129.316728 
L 188.021455 135.326045 
L 188.072182 135.084686 
L 188.224364 134.256965 
L 188.275091 134.370034 
L 188.427273 136.037798 
L 188.579455 137.790365 
L 188.630182 137.748326 
L 188.680909 137.693966 
L 188.731636 137.759198 
L 188.833091 138.446309 
L 189.036 141.997104 
L 189.340364 147.320035 
L 189.796909 150.375792 
L 189.847636 150.309835 
L 190.101273 144.512885 
L 190.456364 138.239016 
L 190.507091 138.202776 
L 190.608545 138.82248 
L 190.811455 142.273253 
L 191.268 151.062902 
L 191.369455 151.663762 
L 191.420182 151.615925 
L 191.673818 149.951784 
L 191.724545 150.011218 
L 191.876727 151.304986 
L 192.282545 155.940806 
L 192.485455 157.770202 
L 192.789818 163.190981 
L 193.043455 168.596539 
L 193.094182 168.250085 
L 193.297091 166.96139 
L 193.5 166.144541 
L 194.260909 155.304432 
L 194.362364 155.647262 
L 194.565273 158.30293 
L 194.971091 168.080482 
L 195.427636 177.782654 
L 195.884182 185.838082 
L 196.137818 190.022352 
L 196.188545 189.987562 
L 196.340727 187.278984 
L 196.594364 183.315053 
L 196.695818 183.020784 
L 196.746545 183.10921 
L 196.898727 184.110883 
L 197.152364 185.927232 
L 197.304545 186.484603 
L 197.507455 188.268336 
L 198.065455 193.858718 
L 198.166909 193.344835 
L 198.572727 189.786792 
L 198.826364 178.110989 
L 199.790182 138.569525 
L 199.993091 133.675675 
L 200.043818 133.491576 
L 200.094545 133.643059 
L 200.145273 133.561882 
L 200.398909 132.431918 
L 200.500364 132.935654 
L 201.717818 148.067304 
L 202.275818 160.143922 
L 202.377273 160.147546 
L 202.428 160.065643 
L 202.580182 158.292058 
L 203.290364 143.286523 
L 203.391818 143.581517 
L 203.544 145.605883 
L 204.254182 158.08404 
L 204.304909 157.969522 
L 204.66 154.614422 
L 204.964364 156.061848 
L 205.065818 156.618494 
L 205.116545 156.564859 
L 205.218 155.616821 
L 205.573091 148.999397 
L 205.623818 148.974029 
L 205.725273 149.64012 
L 205.928182 153.177144 
L 206.486182 164.888462 
L 206.638364 164.975438 
L 207.094909 168.781363 
L 207.500727 178.624147 
L 208.312364 198.01907 
L 208.363091 197.961086 
L 208.971818 191.117525 
L 209.529818 187.379731 
L 209.580545 187.513094 
L 209.732727 188.561155 
L 210.392182 194.500891 
L 210.493636 194.770517 
L 210.544364 194.720506 
L 210.747273 194.384198 
L 211.000909 192.553354 
L 211.203818 186.341093 
L 211.558909 178.850285 
L 211.711091 178.237829 
L 211.812545 178.700251 
L 212.015455 181.13123 
L 212.319818 185.955499 
L 212.370545 185.657606 
L 212.472 185.063995 
L 212.674909 179.999093 
L 212.877818 172.0002 
L 213.283636 152.042107 
L 213.435818 150.776606 
L 213.537273 151.243378 
L 214.044545 157.113533 
L 214.146 156.461938 
L 214.957636 141.468 
L 215.008364 141.481046 
L 215.160545 139.998106 
L 215.414182 138.319469 
L 215.464909 138.360058 
L 215.566364 139.031222 
L 215.769273 142.565347 
L 216.225818 152.218958 
L 216.276545 152.400158 
L 216.428727 150.090946 
L 216.682364 147.359174 
L 216.783818 147.733896 
L 217.037455 150.501182 
L 217.138909 150.118488 
L 217.291091 147.079402 
L 217.544727 143.47787 
L 217.646182 144.055536 
L 217.849091 147.665765 
L 218.305636 156.140126 
L 218.660727 160.257715 
L 218.762182 160.340342 
L 218.863636 159.438691 
L 219.117273 157.07077 
L 219.218727 157.605672 
L 219.523091 162.127699 
L 220.334727 173.780309 
L 220.486909 174.42828 
L 220.689818 176.556293 
L 220.740545 176.449747 
L 221.4 168.613934 
L 221.704364 166.630157 
L 221.755091 166.644653 
L 221.856545 167.115048 
L 222.059455 169.598938 
L 222.465273 178.353797 
L 222.820364 185.519894 
L 223.023273 184.390656 
L 223.124727 184.605197 
L 223.226182 184.999488 
L 223.276909 184.930632 
L 223.378364 184.832059 
L 223.479818 185.162568 
L 223.682727 186.269338 
L 223.733455 186.249768 
L 223.834909 186.372259 
L 223.987091 187.383355 
L 224.19 189.783893 
L 224.240727 189.68677 
L 224.392909 189.210576 
L 224.494364 189.670099 
L 224.748 192.792538 
L 225.965455 210.61537 
L 226.066909 211.265515 
L 226.117636 211.128528 
L 226.269818 207.47771 
L 226.624909 199.272974 
L 226.777091 198.558322 
L 226.878545 198.739522 
L 227.081455 200.120266 
L 227.639455 206.534021 
L 228.197455 211.854778 
L 228.349636 211.120555 
L 228.603273 210.140626 
L 228.704727 210.169618 
L 228.856909 210.574056 
L 229.212 212.443315 
L 230.125091 217.458931 
L 230.378727 218.235192 
L 230.530909 217.337165 
L 230.886 215.388178 
L 230.987455 214.634386 
L 231.646909 205.984622 
L 231.697636 206.008541 
L 231.799091 206.189741 
L 232.103455 204.917717 
L 232.154182 204.948883 
L 232.306364 205.5222 
L 232.610727 208.044504 
L 233.371636 215.384554 
L 233.422364 215.354112 
L 233.777455 212.748456 
L 233.878909 212.801366 
L 234.081818 213.531965 
L 234.132545 213.74723 
L 234.183273 213.534139 
L 234.589091 209.204184 
L 234.944182 202.844789 
L 235.147091 200.964658 
L 235.35 198.92797 
L 235.400727 198.909125 
L 235.502182 199.34473 
L 235.654364 200.818248 
L 235.705091 200.444976 
L 236.060182 196.167931 
L 236.161636 196.429584 
L 236.364545 198.404664 
L 237.582 215.07144 
L 237.632727 214.867046 
L 237.886364 213.853776 
L 237.987818 213.825509 
L 238.089273 213.101434 
L 238.241455 209.276664 
L 238.545818 201.967781 
L 238.698 201.232109 
L 238.799455 201.518405 
L 239.002364 203.254301 
L 239.103818 204.168998 
L 239.154545 204.053755 
L 239.408182 202.510656 
L 239.915455 199.957186 
L 240.016909 200.200718 
L 240.219818 201.965606 
L 241.792364 219.774667 
L 242.299636 222.033144 
L 242.806909 223.313141 
L 243.314182 224.073456 
L 243.364909 224.101723 
L 243.517091 219.928325 
L 243.821455 213.671851 
L 244.024364 212.905738 
L 244.125818 213.097085 
L 244.430182 214.577126 
L 244.531636 214.393752 
L 244.785273 213.174638 
L 245.140364 210.156571 
L 245.241818 210.225427 
L 245.394 210.894418 
L 245.799818 214.27416 
L 246.560727 220.399445 
L 247.068 222.817378 
L 247.118727 222.995678 
L 247.169455 222.910152 
L 247.473818 216.201403 
L 248.082545 204.48791 
L 248.640545 201.160354 
L 248.691273 201.182098 
L 248.843455 202.007645 
L 249.350727 205.984622 
L 249.452182 206.249174 
L 249.655091 207.722693 
L 251.024727 221.37575 
L 251.075455 221.362704 
L 251.329091 219.562301 
L 251.532 218.874466 
L 251.684182 218.837501 
L 251.887091 217.658251 
L 252.140727 216.777619 
L 252.242182 216.8472 
L 252.445091 217.49952 
L 253.003091 220.626307 
L 253.611818 223.521158 
L 254.119091 224.998301 
L 254.474182 225.614381 
L 254.575636 225.105571 
L 255.032182 221.927323 
L 255.184364 221.789611 
L 255.235091 221.820778 
L 255.336545 220.874189 
L 255.590182 215.274384 
L 255.843818 212.269363 
L 255.894545 212.175864 
L 255.945273 212.204131 
L 256.046727 212.544062 
L 256.097455 212.404176 
L 256.300364 209.239699 
L 256.706182 201.22921 
L 256.756909 201.311112 
L 256.959818 202.488912 
L 257.061273 202.356998 
L 257.162727 202.469342 
L 257.314909 203.488411 
L 257.67 208.343846 
L 258.430909 218.814307 
L 258.938182 222.867389 
L 259.394727 224.939592 
L 259.851273 226.114493 
L 260.104909 226.487765 
L 260.206364 226.085501 
L 260.764364 221.565648 
L 261.068727 218.083709 
L 261.170182 217.885114 
L 261.220909 217.91483 
L 261.373091 218.364206 
L 261.778909 220.753147 
L 262.387636 224.033592 
L 262.539818 222.800707 
L 262.793455 221.011176 
L 262.945636 220.858968 
L 263.097818 221.163384 
L 263.351455 222.181003 
L 263.402182 221.841797 
L 263.706545 217.493722 
L 263.858727 217.000133 
L 264.112364 213.528341 
L 264.163091 213.409474 
L 264.213818 213.437741 
L 264.366 214.140072 
L 264.771818 217.855397 
L 265.431273 223.322563 
L 265.938545 225.772387 
L 266.395091 227.023392 
L 266.445818 227.12124 
L 266.547273 226.276848 
L 266.902364 222.625306 
L 267.054545 222.346982 
L 267.156 222.434683 
L 267.409636 223.179053 
L 268.069091 225.771662 
L 268.119818 225.63685 
L 268.272 223.289947 
L 268.728545 214.625688 
L 268.880727 214.173413 
L 268.982182 214.350989 
L 269.134364 214.848202 
L 269.235818 213.942926 
L 269.692364 204.302362 
L 270.148909 201.79093 
L 270.706909 195.838872 
L 270.808364 196.320864 
L 271.011273 198.806928 
L 271.670727 207.832862 
L 271.873636 209.259994 
L 271.924364 209.027333 
L 272.330182 205.298237 
L 272.431636 205.643966 
L 272.685273 208.023485 
L 273.395455 216.327518 
L 273.446182 216.139795 
L 273.649091 215.513568 
L 273.750545 215.61504 
L 273.953455 216.488424 
L 274.054909 216.876917 
L 274.105636 216.75515 
L 274.41 215.83393 
L 274.460727 215.826682 
L 274.612909 215.093184 
L 274.866545 214.106006 
L 275.424545 212.206306 
L 275.779636 210.593626 
L 276.286909 207.637166 
L 276.337636 207.692251 
L 276.489818 208.428648 
L 276.895636 211.909862 
L 276.997091 211.548187 
L 277.098545 211.44889 
L 277.2 211.73591 
L 277.453636 213.579802 
L 278.569636 223.042066 
L 278.874 224.342357 
L 279.026182 223.023946 
L 279.330545 221.020598 
L 279.482727 220.967688 
L 279.584182 221.127144 
L 279.634909 221.065536 
L 279.99 218.73023 
L 280.801636 210.279787 
L 280.852364 210.291384 
L 281.004545 211.003862 
L 281.359636 214.512619 
L 282.120545 221.755546 
L 282.424909 223.56972 
L 282.475636 223.453752 
L 282.678545 220.980734 
L 283.033636 216.049195 
L 283.185818 215.61359 
L 283.287273 215.753477 
L 283.439455 216.136896 
L 283.540909 214.290106 
L 283.946727 204.686506 
L 284.200364 201.986626 
L 284.251091 201.996048 
L 284.352545 202.445424 
L 284.606182 205.234454 
L 285.012 209.849256 
L 285.113455 209.868101 
L 285.214909 210.10801 
L 285.417818 211.380034 
L 286.939636 223.829923 
L 287.446909 225.47087 
L 287.751273 226.085501 
L 287.802 225.88908 
L 288.258545 221.098152 
L 288.410727 220.473374 
L 288.765818 218.73313 
L 288.867273 218.741102 
L 289.019455 219.096254 
L 289.374545 220.572672 
L 289.425273 220.39872 
L 289.678909 218.590344 
L 289.831091 213.615317 
L 290.236909 200.818248 
L 290.389091 199.759315 
L 290.490545 200.118816 
L 290.693455 202.40556 
L 292.063091 221.843246 
L 292.266 222.933346 
L 292.722545 220.10735 
L 293.077636 216.604392 
L 293.179091 216.493498 
L 293.280545 216.699341 
L 293.331273 216.615989 
L 293.635636 213.434842 
L 293.686364 213.402226 
L 293.737091 213.483403 
L 293.889273 214.230672 
L 294.244364 216.820382 
L 294.295091 216.494222 
L 294.447273 213.073166 
L 294.751636 201.170501 
L 295.005273 194.347234 
L 295.157455 192.36708 
L 295.309636 190.855872 
L 295.360364 190.88269 
L 295.512545 192.178632 
L 295.816909 197.845843 
L 296.476364 210.020309 
L 296.679273 210.919786 
L 296.780727 211.661981 
L 296.831455 211.419898 
L 297.085091 208.977322 
L 297.186545 209.25637 
L 297.440182 211.530792 
L 298.201091 219.405744 
L 298.353273 219.43691 
L 298.556182 219.453581 
L 298.759091 219.867442 
L 299.164909 221.498242 
L 299.469273 222.909427 
L 299.52 222.768816 
L 299.925818 219.012902 
L 300.027273 218.993333 
L 300.078 219.081758 
L 300.128727 219.02305 
L 300.534545 216.480451 
L 300.585273 216.506544 
L 300.737455 216.969691 
L 300.940364 217.868443 
L 301.295455 215.92163 
L 301.396909 216.053544 
L 301.599818 217.0284 
L 302.766545 224.260454 
L 302.918727 223.518259 
L 303.223091 222.205646 
L 303.375273 222.149837 
L 303.578182 222.514411 
L 304.034727 224.106072 
L 304.694182 226.202918 
L 304.744909 226.136237 
L 304.897091 223.648723 
L 305.201455 218.920128 
L 305.404364 217.190755 
L 305.810182 210.830635 
L 306.063818 209.265792 
L 306.165273 209.276664 
L 306.368182 209.634715 
L 306.418909 209.47236 
L 307.179818 199.448376 
L 307.281273 199.726699 
L 307.484182 201.955459 
L 308.143636 210.447941 
L 308.448 213.847253 
L 308.498727 213.600821 
L 308.904545 207.337099 
L 309.006 207.619046 
L 309.208909 209.391907 
L 310.477091 223.065984 
L 310.527818 223.179053 
L 310.730727 221.799034 
L 310.832182 220.473374 
L 311.440909 207.490757 
L 311.796 205.33955 
L 311.846727 205.377965 
L 311.998909 206.165822 
L 312.303273 209.65211 
L 313.216364 220.909704 
L 313.672909 224.082154 
L 313.723636 224.137963 
L 313.875818 223.16963 
L 314.180182 221.666395 
L 314.230909 221.596814 
L 314.383091 220.000805 
L 314.636727 218.087333 
L 314.738182 217.973539 
L 314.788909 218.021376 
L 314.941091 218.478725 
L 315.346909 220.834325 
L 316.057091 224.80188 
L 316.564364 226.500086 
L 317.071636 227.480016 
L 317.528182 227.993174 
L 317.629636 227.431454 
L 318.086182 223.761792 
L 318.289091 222.757944 
L 319.202182 216.107179 
L 319.608 212.035253 
L 319.709455 211.890293 
L 319.810909 212.146872 
L 320.013818 213.505147 
L 320.419636 217.218298 
L 320.521091 217.066814 
L 320.724 216.709488 
L 320.825455 216.889963 
L 321.028364 217.869893 
L 322.144364 225.275174 
L 322.195091 224.776512 
L 322.600909 215.76145 
L 322.753091 215.30845 
L 322.854545 215.552707 
L 323.108182 217.169736 
L 323.463273 219.614486 
L 323.818364 218.580197 
L 323.869091 218.64253 
L 323.970545 218.849822 
L 324.122727 216.444936 
L 324.427091 212.022206 
L 324.528545 211.818538 
L 324.63 212.083814 
L 324.883636 213.992938 
L 325.999636 224.071282 
L 326.405455 225.904301 
L 326.506909 225.532478 
L 326.608364 223.962562 
L 326.760545 217.828579 
L 327.014182 211.118381 
L 327.369273 206.773205 
L 327.42 206.820317 
L 327.572182 207.746611 
L 327.978 211.540214 
L 328.028727 211.490203 
L 328.130182 211.497451 
L 328.282364 212.073667 
L 328.586727 214.734408 
L 329.449091 222.836947 
L 329.550545 223.173979 
L 330.007091 220.767643 
L 330.057818 220.782864 
L 330.21 221.097427 
L 330.463636 221.878037 
L 330.666545 220.878538 
L 330.869455 219.694939 
L 331.224545 216.434789 
L 331.326 216.44856 
L 331.478182 217.002307 
L 331.884 219.863818 
L 332.543455 224.193048 
L 332.644909 223.738598 
L 332.949273 221.91935 
L 333.101455 221.814979 
L 333.253636 222.106349 
L 333.608727 223.508837 
L 334.369636 226.519656 
L 334.623273 227.118341 
L 334.775455 225.370848 
L 335.079818 220.247237 
L 335.536364 210.14425 
L 335.79 206.217283 
L 335.891455 205.989696 
L 335.992909 206.344123 
L 336.246545 208.847582 
L 336.500182 212.238197 
L 336.550909 212.220077 
L 336.753818 211.405402 
L 336.855273 211.740984 
L 337.007455 212.486078 
L 337.058182 212.44404 
L 337.210364 212.252693 
L 337.311818 212.449838 
L 337.616182 214.014682 
L 337.717636 213.790718 
L 337.869818 213.650832 
L 338.022 214.125576 
L 338.326364 216.404347 
L 339.290182 224.268427 
L 339.797455 226.469645 
L 340.304727 227.685859 
L 340.812 228.351226 
L 340.964182 228.488213 
L 341.065636 226.859587 
L 341.319273 222.715906 
L 341.522182 222.15781 
L 341.674364 222.476722 
L 342.029455 223.825574 
L 342.080182 223.783536 
L 342.181636 223.239211 
L 342.638182 218.356234 
L 342.739636 218.248963 
L 342.790364 218.306947 
L 342.942545 218.815757 
L 343.145455 219.83845 
L 343.196182 219.815981 
L 343.500545 218.654126 
L 343.906364 215.409922 
L 344.007818 215.552707 
L 344.16 216.146318 
L 344.210727 216.008606 
L 344.464364 214.893864 
L 344.565818 215.027952 
L 344.768727 216.124574 
L 345.580364 222.730402 
L 345.631091 222.502814 
L 345.986182 220.419014 
L 346.087636 220.503091 
L 346.290545 221.235139 
L 347.609455 227.316211 
L 348.116727 228.336005 
L 348.573273 228.857861 
L 348.674727 227.867784 
L 349.283455 218.438861 
L 349.384909 218.42509 
L 349.537091 218.924477 
L 349.942909 221.567098 
L 350.247273 223.450853 
L 350.399455 222.445555 
L 350.653091 221.201798 
L 350.754545 221.19455 
L 350.856 221.345309 
L 351.363273 211.076342 
L 351.414 211.166218 
L 351.515455 210.955301 
L 351.667636 210.582754 
L 351.718364 210.605947 
L 351.870545 211.17419 
L 352.174909 213.861749 
L 352.986545 221.972986 
L 353.088 221.613485 
L 353.341636 219.736253 
L 353.696727 215.61359 
L 353.950364 211.318426 
L 354.204 208.920062 
L 354.254727 208.931659 
L 354.406909 209.665157 
L 354.711273 212.910086 
L 355.370727 220.587893 
L 355.421455 220.54513 
L 355.776545 219.096979 
L 355.878 219.228168 
L 356.080909 220.023998 
L 357.450545 226.822622 
L 357.957818 227.906923 
L 358.160727 228.124363 
L 358.312909 226.2696 
L 358.617273 223.42621 
L 358.718727 222.165782 
L 359.073818 214.406798 
L 359.226 213.827683 
L 359.327455 214.050197 
L 359.530364 215.36281 
L 360.697091 224.727226 
L 360.798545 224.519208 
L 361.153636 223.615382 
L 361.305818 223.663944 
L 361.559455 224.098824 
L 361.610182 224.044464 
L 361.711636 223.561022 
L 361.863818 221.24891 
L 362.218909 213.791443 
L 362.371091 213.101434 
L 362.472545 213.246394 
L 362.675455 214.449562 
L 362.827636 215.541835 
L 363.132 213.671851 
L 363.182727 213.78492 
L 363.385636 215.092459 
L 364.298727 223.126867 
L 364.349455 223.09715 
L 364.806 222.176654 
L 365.414727 213.699394 
L 365.465455 213.771149 
L 365.617636 214.468406 
L 366.023455 218.039496 
L 366.632182 223.233413 
L 366.682909 223.135565 
L 367.088727 220.779965 
L 367.190182 220.86984 
L 367.393091 221.578694 
L 367.596 222.57457 
L 367.646727 222.381048 
L 367.748182 220.314643 
L 368.103273 211.235798 
L 368.255455 210.528394 
L 368.356909 210.792946 
L 368.559818 212.366486 
L 369.371455 220.487146 
L 369.422182 220.477723 
L 369.675818 220.402344 
L 369.828 220.687915 
L 370.183091 221.981683 
L 370.233818 221.738875 
L 370.588909 219.626808 
L 370.690364 219.689866 
L 370.944 220.286376 
L 370.994727 220.175482 
L 371.096182 219.405019 
L 371.907818 206.407181 
L 371.958545 206.440522 
L 372.06 206.713046 
L 372.262909 204.212486 
L 372.719455 197.895854 
L 372.770182 197.953838 
L 372.922364 198.996826 
L 373.074545 200.767512 
L 373.125273 200.546448 
L 373.277455 199.765838 
L 373.378909 200.244206 
L 373.581818 202.775208 
L 373.581818 202.775208 
" style="fill:none;stroke:#ff0000;stroke-linecap:square;stroke-width:1.5;"/>
   </g>
   <g id="line2d_17">
    <path clip-path="url(#pdcd2746de6)" d="M 196.036364 70.8 
L 221.349273 70.8 
L 221.349273 70.8 
" style="fill:none;stroke:#000000;stroke-linecap:square;stroke-width:1.5;"/>
   </g>
   <g id="line2d_18">
    <path clip-path="url(#pdcd2746de6)" d="M 196.036364 107.04 
L 196.036364 99.792 
L 196.036364 92.544 
L 196.036364 85.296 
L 196.036364 78.048 
" style="fill:none;stroke:#000000;stroke-linecap:square;stroke-width:1.5;"/>
   </g>
   <g id="patch_3">
    <path d="M 54 252 
L 54 34.56 
" style="fill:none;stroke:#000000;stroke-linecap:square;stroke-linejoin:miter;stroke-width:0.8;"/>
   </g>
   <g id="patch_4">
    <path d="M 54 252 
L 388.8 252 
" style="fill:none;stroke:#000000;stroke-linecap:square;stroke-linejoin:miter;stroke-width:0.8;"/>
   </g>
   <g id="text_17">
    <!-- 500 ms -->
    <g transform="translate(196.036364 63.552)scale(0.1 -0.1)">
     <use xlink:href="#DejaVuSans-35"/>
     <use x="63.623047" xlink:href="#DejaVuSans-30"/>
     <use x="127.246094" xlink:href="#DejaVuSans-30"/>
     <use x="190.869141" xlink:href="#DejaVuSans-20"/>
     <use x="222.65625" xlink:href="#DejaVuSans-6d"/>
     <use x="320.068359" xlink:href="#DejaVuSans-73"/>
    </g>
   </g>
   <g id="text_18">
    <!-- 5 mV -->
    <g transform="translate(198.572727 92.544)scale(0.1 -0.1)">
     <use xlink:href="#DejaVuSans-35"/>
     <use x="63.623047" xlink:href="#DejaVuSans-20"/>
     <use x="95.410156" xlink:href="#DejaVuSans-6d"/>
     <use x="192.822266" xlink:href="#DejaVuSans-56"/>
    </g>
   </g>
  </g>
 </g>
 <defs>
  <clipPath id="pdcd2746de6">
   <rect height="217.44" width="334.8" x="54" y="34.56"/>
  </clipPath>
 </defs>
</svg>
