<?xml version="1.0" encoding="utf-8" standalone="no"?>
<!DOCTYPE svg PUBLIC "-//W3C//DTD SVG 1.1//EN"
  "http://www.w3.org/Graphics/SVG/1.1/DTD/svg11.dtd">
<svg xmlns:xlink="http://www.w3.org/1999/xlink" width="432pt" height="288pt" viewBox="0 0 432 288" xmlns="http://www.w3.org/2000/svg" version="1.1">
 <metadata>
  <rdf:RDF xmlns:dc="http://purl.org/dc/elements/1.1/" xmlns:cc="http://creativecommons.org/ns#" xmlns:rdf="http://www.w3.org/1999/02/22-rdf-syntax-ns#">
   <cc:Work>
    <dc:type rdf:resource="http://purl.org/dc/dcmitype/StillImage"/>
    <dc:date>2022-07-12T17:35:05.147143</dc:date>
    <dc:format>image/svg+xml</dc:format>
    <dc:creator>
     <cc:Agent>
      <dc:title>Matplotlib v3.5.2, https://matplotlib.org/</dc:title>
     </cc:Agent>
    </dc:creator>
   </cc:Work>
  </rdf:RDF>
 </metadata>
 <defs>
  <style type="text/css">*{stroke-linejoin: round; stroke-linecap: butt}</style>
 </defs>
 <g id="figure_1">
  <g id="patch_1">
   <path d="M 0 288 
L 432 288 
L 432 0 
L 0 0 
L 0 288 
z
" style="fill: none"/>
  </g>
  <g id="axes_1">
   <g id="patch_2">
    <path d="M 54 252 
L 388.8 252 
L 388.8 34.56 
L 54 34.56 
z
" style="fill: #ffffff"/>
   </g>
   <g id="matplotlib.axis_1">
    <g id="xtick_1">
     <g id="line2d_1">
      <defs>
       <path id="m19d1c96995" d="M 0 0 
L 0 3.5 
" style="stroke: #000000; stroke-width: 0.8"/>
      </defs>
      <g>
       <use xlink:href="#m19d1c96995" x="69.218182" y="252" style="stroke: #000000; stroke-width: 0.8"/>
      </g>
     </g>
     <g id="text_1">
      <!-- 0 -->
      <g transform="translate(66.036932 266.598437)scale(0.1 -0.1)">
       <defs>
        <path id="DejaVuSans-30" d="M 2034 4250 
Q 1547 4250 1301 3770 
Q 1056 3291 1056 2328 
Q 1056 1369 1301 889 
Q 1547 409 2034 409 
Q 2525 409 2770 889 
Q 3016 1369 3016 2328 
Q 3016 3291 2770 3770 
Q 2525 4250 2034 4250 
z
M 2034 4750 
Q 2819 4750 3233 4129 
Q 3647 3509 3647 2328 
Q 3647 1150 3233 529 
Q 2819 -91 2034 -91 
Q 1250 -91 836 529 
Q 422 1150 422 2328 
Q 422 3509 836 4129 
Q 1250 4750 2034 4750 
z
" transform="scale(0.015625)"/>
       </defs>
       <use xlink:href="#DejaVuSans-30"/>
      </g>
     </g>
    </g>
    <g id="xtick_2">
     <g id="line2d_2">
      <g>
       <use xlink:href="#m19d1c96995" x="119.945455" y="252" style="stroke: #000000; stroke-width: 0.8"/>
      </g>
     </g>
     <g id="text_2">
      <!-- 500 -->
      <g transform="translate(110.401705 266.598437)scale(0.1 -0.1)">
       <defs>
        <path id="DejaVuSans-35" d="M 691 4666 
L 3169 4666 
L 3169 4134 
L 1269 4134 
L 1269 2991 
Q 1406 3038 1543 3061 
Q 1681 3084 1819 3084 
Q 2600 3084 3056 2656 
Q 3513 2228 3513 1497 
Q 3513 744 3044 326 
Q 2575 -91 1722 -91 
Q 1428 -91 1123 -41 
Q 819 9 494 109 
L 494 744 
Q 775 591 1075 516 
Q 1375 441 1709 441 
Q 2250 441 2565 725 
Q 2881 1009 2881 1497 
Q 2881 1984 2565 2268 
Q 2250 2553 1709 2553 
Q 1456 2553 1204 2497 
Q 953 2441 691 2322 
L 691 4666 
z
" transform="scale(0.015625)"/>
       </defs>
       <use xlink:href="#DejaVuSans-35"/>
       <use xlink:href="#DejaVuSans-30" x="63.623047"/>
       <use xlink:href="#DejaVuSans-30" x="127.246094"/>
      </g>
     </g>
    </g>
    <g id="xtick_3">
     <g id="line2d_3">
      <g>
       <use xlink:href="#m19d1c96995" x="170.672727" y="252" style="stroke: #000000; stroke-width: 0.8"/>
      </g>
     </g>
     <g id="text_3">
      <!-- 1000 -->
      <g transform="translate(157.947727 266.598437)scale(0.1 -0.1)">
       <defs>
        <path id="DejaVuSans-31" d="M 794 531 
L 1825 531 
L 1825 4091 
L 703 3866 
L 703 4441 
L 1819 4666 
L 2450 4666 
L 2450 531 
L 3481 531 
L 3481 0 
L 794 0 
L 794 531 
z
" transform="scale(0.015625)"/>
       </defs>
       <use xlink:href="#DejaVuSans-31"/>
       <use xlink:href="#DejaVuSans-30" x="63.623047"/>
       <use xlink:href="#DejaVuSans-30" x="127.246094"/>
       <use xlink:href="#DejaVuSans-30" x="190.869141"/>
      </g>
     </g>
    </g>
    <g id="xtick_4">
     <g id="line2d_4">
      <g>
       <use xlink:href="#m19d1c96995" x="221.4" y="252" style="stroke: #000000; stroke-width: 0.8"/>
      </g>
     </g>
     <g id="text_4">
      <!-- 1500 -->
      <g transform="translate(208.675 266.598437)scale(0.1 -0.1)">
       <use xlink:href="#DejaVuSans-31"/>
       <use xlink:href="#DejaVuSans-35" x="63.623047"/>
       <use xlink:href="#DejaVuSans-30" x="127.246094"/>
       <use xlink:href="#DejaVuSans-30" x="190.869141"/>
      </g>
     </g>
    </g>
    <g id="xtick_5">
     <g id="line2d_5">
      <g>
       <use xlink:href="#m19d1c96995" x="272.127273" y="252" style="stroke: #000000; stroke-width: 0.8"/>
      </g>
     </g>
     <g id="text_5">
      <!-- 2000 -->
      <g transform="translate(259.402273 266.598437)scale(0.1 -0.1)">
       <defs>
        <path id="DejaVuSans-32" d="M 1228 531 
L 3431 531 
L 3431 0 
L 469 0 
L 469 531 
Q 828 903 1448 1529 
Q 2069 2156 2228 2338 
Q 2531 2678 2651 2914 
Q 2772 3150 2772 3378 
Q 2772 3750 2511 3984 
Q 2250 4219 1831 4219 
Q 1534 4219 1204 4116 
Q 875 4013 500 3803 
L 500 4441 
Q 881 4594 1212 4672 
Q 1544 4750 1819 4750 
Q 2544 4750 2975 4387 
Q 3406 4025 3406 3419 
Q 3406 3131 3298 2873 
Q 3191 2616 2906 2266 
Q 2828 2175 2409 1742 
Q 1991 1309 1228 531 
z
" transform="scale(0.015625)"/>
       </defs>
       <use xlink:href="#DejaVuSans-32"/>
       <use xlink:href="#DejaVuSans-30" x="63.623047"/>
       <use xlink:href="#DejaVuSans-30" x="127.246094"/>
       <use xlink:href="#DejaVuSans-30" x="190.869141"/>
      </g>
     </g>
    </g>
    <g id="xtick_6">
     <g id="line2d_6">
      <g>
       <use xlink:href="#m19d1c96995" x="322.854545" y="252" style="stroke: #000000; stroke-width: 0.8"/>
      </g>
     </g>
     <g id="text_6">
      <!-- 2500 -->
      <g transform="translate(310.129545 266.598437)scale(0.1 -0.1)">
       <use xlink:href="#DejaVuSans-32"/>
       <use xlink:href="#DejaVuSans-35" x="63.623047"/>
       <use xlink:href="#DejaVuSans-30" x="127.246094"/>
       <use xlink:href="#DejaVuSans-30" x="190.869141"/>
      </g>
     </g>
    </g>
    <g id="xtick_7">
     <g id="line2d_7">
      <g>
       <use xlink:href="#m19d1c96995" x="373.581818" y="252" style="stroke: #000000; stroke-width: 0.8"/>
      </g>
     </g>
     <g id="text_7">
      <!-- 3000 -->
      <g transform="translate(360.856818 266.598437)scale(0.1 -0.1)">
       <defs>
        <path id="DejaVuSans-33" d="M 2597 2516 
Q 3050 2419 3304 2112 
Q 3559 1806 3559 1356 
Q 3559 666 3084 287 
Q 2609 -91 1734 -91 
Q 1441 -91 1130 -33 
Q 819 25 488 141 
L 488 750 
Q 750 597 1062 519 
Q 1375 441 1716 441 
Q 2309 441 2620 675 
Q 2931 909 2931 1356 
Q 2931 1769 2642 2001 
Q 2353 2234 1838 2234 
L 1294 2234 
L 1294 2753 
L 1863 2753 
Q 2328 2753 2575 2939 
Q 2822 3125 2822 3475 
Q 2822 3834 2567 4026 
Q 2313 4219 1838 4219 
Q 1578 4219 1281 4162 
Q 984 4106 628 3988 
L 628 4550 
Q 988 4650 1302 4700 
Q 1616 4750 1894 4750 
Q 2613 4750 3031 4423 
Q 3450 4097 3450 3541 
Q 3450 3153 3228 2886 
Q 3006 2619 2597 2516 
z
" transform="scale(0.015625)"/>
       </defs>
       <use xlink:href="#DejaVuSans-33"/>
       <use xlink:href="#DejaVuSans-30" x="63.623047"/>
       <use xlink:href="#DejaVuSans-30" x="127.246094"/>
       <use xlink:href="#DejaVuSans-30" x="190.869141"/>
      </g>
     </g>
    </g>
    <g id="text_8">
     <!-- Time(ms) -->
     <g transform="translate(197.789844 280.276563)scale(0.1 -0.1)">
      <defs>
       <path id="DejaVuSans-54" d="M -19 4666 
L 3928 4666 
L 3928 4134 
L 2272 4134 
L 2272 0 
L 1638 0 
L 1638 4134 
L -19 4134 
L -19 4666 
z
" transform="scale(0.015625)"/>
       <path id="DejaVuSans-69" d="M 603 3500 
L 1178 3500 
L 1178 0 
L 603 0 
L 603 3500 
z
M 603 4863 
L 1178 4863 
L 1178 4134 
L 603 4134 
L 603 4863 
z
" transform="scale(0.015625)"/>
       <path id="DejaVuSans-6d" d="M 3328 2828 
Q 3544 3216 3844 3400 
Q 4144 3584 4550 3584 
Q 5097 3584 5394 3201 
Q 5691 2819 5691 2113 
L 5691 0 
L 5113 0 
L 5113 2094 
Q 5113 2597 4934 2840 
Q 4756 3084 4391 3084 
Q 3944 3084 3684 2787 
Q 3425 2491 3425 1978 
L 3425 0 
L 2847 0 
L 2847 2094 
Q 2847 2600 2669 2842 
Q 2491 3084 2119 3084 
Q 1678 3084 1418 2786 
Q 1159 2488 1159 1978 
L 1159 0 
L 581 0 
L 581 3500 
L 1159 3500 
L 1159 2956 
Q 1356 3278 1631 3431 
Q 1906 3584 2284 3584 
Q 2666 3584 2933 3390 
Q 3200 3197 3328 2828 
z
" transform="scale(0.015625)"/>
       <path id="DejaVuSans-65" d="M 3597 1894 
L 3597 1613 
L 953 1613 
Q 991 1019 1311 708 
Q 1631 397 2203 397 
Q 2534 397 2845 478 
Q 3156 559 3463 722 
L 3463 178 
Q 3153 47 2828 -22 
Q 2503 -91 2169 -91 
Q 1331 -91 842 396 
Q 353 884 353 1716 
Q 353 2575 817 3079 
Q 1281 3584 2069 3584 
Q 2775 3584 3186 3129 
Q 3597 2675 3597 1894 
z
M 3022 2063 
Q 3016 2534 2758 2815 
Q 2500 3097 2075 3097 
Q 1594 3097 1305 2825 
Q 1016 2553 972 2059 
L 3022 2063 
z
" transform="scale(0.015625)"/>
       <path id="DejaVuSans-28" d="M 1984 4856 
Q 1566 4138 1362 3434 
Q 1159 2731 1159 2009 
Q 1159 1288 1364 580 
Q 1569 -128 1984 -844 
L 1484 -844 
Q 1016 -109 783 600 
Q 550 1309 550 2009 
Q 550 2706 781 3412 
Q 1013 4119 1484 4856 
L 1984 4856 
z
" transform="scale(0.015625)"/>
       <path id="DejaVuSans-73" d="M 2834 3397 
L 2834 2853 
Q 2591 2978 2328 3040 
Q 2066 3103 1784 3103 
Q 1356 3103 1142 2972 
Q 928 2841 928 2578 
Q 928 2378 1081 2264 
Q 1234 2150 1697 2047 
L 1894 2003 
Q 2506 1872 2764 1633 
Q 3022 1394 3022 966 
Q 3022 478 2636 193 
Q 2250 -91 1575 -91 
Q 1294 -91 989 -36 
Q 684 19 347 128 
L 347 722 
Q 666 556 975 473 
Q 1284 391 1588 391 
Q 1994 391 2212 530 
Q 2431 669 2431 922 
Q 2431 1156 2273 1281 
Q 2116 1406 1581 1522 
L 1381 1569 
Q 847 1681 609 1914 
Q 372 2147 372 2553 
Q 372 3047 722 3315 
Q 1072 3584 1716 3584 
Q 2034 3584 2315 3537 
Q 2597 3491 2834 3397 
z
" transform="scale(0.015625)"/>
       <path id="DejaVuSans-29" d="M 513 4856 
L 1013 4856 
Q 1481 4119 1714 3412 
Q 1947 2706 1947 2009 
Q 1947 1309 1714 600 
Q 1481 -109 1013 -844 
L 513 -844 
Q 928 -128 1133 580 
Q 1338 1288 1338 2009 
Q 1338 2731 1133 3434 
Q 928 4138 513 4856 
z
" transform="scale(0.015625)"/>
      </defs>
      <use xlink:href="#DejaVuSans-54"/>
      <use xlink:href="#DejaVuSans-69" x="57.958984"/>
      <use xlink:href="#DejaVuSans-6d" x="85.742188"/>
      <use xlink:href="#DejaVuSans-65" x="183.154297"/>
      <use xlink:href="#DejaVuSans-28" x="244.677734"/>
      <use xlink:href="#DejaVuSans-6d" x="283.691406"/>
      <use xlink:href="#DejaVuSans-73" x="381.103516"/>
      <use xlink:href="#DejaVuSans-29" x="433.203125"/>
     </g>
    </g>
   </g>
   <g id="matplotlib.axis_2">
    <g id="ytick_1">
     <g id="line2d_8">
      <defs>
       <path id="md34b6590d9" d="M 0 0 
L -3.5 0 
" style="stroke: #000000; stroke-width: 0.8"/>
      </defs>
      <g>
       <use xlink:href="#md34b6590d9" x="54" y="252" style="stroke: #000000; stroke-width: 0.8"/>
      </g>
     </g>
     <g id="text_9">
      <!-- −100 -->
      <g transform="translate(19.532812 255.799219)scale(0.1 -0.1)">
       <defs>
        <path id="DejaVuSans-2212" d="M 678 2272 
L 4684 2272 
L 4684 1741 
L 678 1741 
L 678 2272 
z
" transform="scale(0.015625)"/>
       </defs>
       <use xlink:href="#DejaVuSans-2212"/>
       <use xlink:href="#DejaVuSans-31" x="83.789062"/>
       <use xlink:href="#DejaVuSans-30" x="147.412109"/>
       <use xlink:href="#DejaVuSans-30" x="211.035156"/>
      </g>
     </g>
    </g>
    <g id="ytick_2">
     <g id="line2d_9">
      <g>
       <use xlink:href="#md34b6590d9" x="54" y="220.937143" style="stroke: #000000; stroke-width: 0.8"/>
      </g>
     </g>
     <g id="text_10">
      <!-- −80 -->
      <g transform="translate(25.895312 224.736362)scale(0.1 -0.1)">
       <defs>
        <path id="DejaVuSans-38" d="M 2034 2216 
Q 1584 2216 1326 1975 
Q 1069 1734 1069 1313 
Q 1069 891 1326 650 
Q 1584 409 2034 409 
Q 2484 409 2743 651 
Q 3003 894 3003 1313 
Q 3003 1734 2745 1975 
Q 2488 2216 2034 2216 
z
M 1403 2484 
Q 997 2584 770 2862 
Q 544 3141 544 3541 
Q 544 4100 942 4425 
Q 1341 4750 2034 4750 
Q 2731 4750 3128 4425 
Q 3525 4100 3525 3541 
Q 3525 3141 3298 2862 
Q 3072 2584 2669 2484 
Q 3125 2378 3379 2068 
Q 3634 1759 3634 1313 
Q 3634 634 3220 271 
Q 2806 -91 2034 -91 
Q 1263 -91 848 271 
Q 434 634 434 1313 
Q 434 1759 690 2068 
Q 947 2378 1403 2484 
z
M 1172 3481 
Q 1172 3119 1398 2916 
Q 1625 2713 2034 2713 
Q 2441 2713 2670 2916 
Q 2900 3119 2900 3481 
Q 2900 3844 2670 4047 
Q 2441 4250 2034 4250 
Q 1625 4250 1398 4047 
Q 1172 3844 1172 3481 
z
" transform="scale(0.015625)"/>
       </defs>
       <use xlink:href="#DejaVuSans-2212"/>
       <use xlink:href="#DejaVuSans-38" x="83.789062"/>
       <use xlink:href="#DejaVuSans-30" x="147.412109"/>
      </g>
     </g>
    </g>
    <g id="ytick_3">
     <g id="line2d_10">
      <g>
       <use xlink:href="#md34b6590d9" x="54" y="189.874286" style="stroke: #000000; stroke-width: 0.8"/>
      </g>
     </g>
     <g id="text_11">
      <!-- −60 -->
      <g transform="translate(25.895312 193.673504)scale(0.1 -0.1)">
       <defs>
        <path id="DejaVuSans-36" d="M 2113 2584 
Q 1688 2584 1439 2293 
Q 1191 2003 1191 1497 
Q 1191 994 1439 701 
Q 1688 409 2113 409 
Q 2538 409 2786 701 
Q 3034 994 3034 1497 
Q 3034 2003 2786 2293 
Q 2538 2584 2113 2584 
z
M 3366 4563 
L 3366 3988 
Q 3128 4100 2886 4159 
Q 2644 4219 2406 4219 
Q 1781 4219 1451 3797 
Q 1122 3375 1075 2522 
Q 1259 2794 1537 2939 
Q 1816 3084 2150 3084 
Q 2853 3084 3261 2657 
Q 3669 2231 3669 1497 
Q 3669 778 3244 343 
Q 2819 -91 2113 -91 
Q 1303 -91 875 529 
Q 447 1150 447 2328 
Q 447 3434 972 4092 
Q 1497 4750 2381 4750 
Q 2619 4750 2861 4703 
Q 3103 4656 3366 4563 
z
" transform="scale(0.015625)"/>
       </defs>
       <use xlink:href="#DejaVuSans-2212"/>
       <use xlink:href="#DejaVuSans-36" x="83.789062"/>
       <use xlink:href="#DejaVuSans-30" x="147.412109"/>
      </g>
     </g>
    </g>
    <g id="ytick_4">
     <g id="line2d_11">
      <g>
       <use xlink:href="#md34b6590d9" x="54" y="158.811429" style="stroke: #000000; stroke-width: 0.8"/>
      </g>
     </g>
     <g id="text_12">
      <!-- −40 -->
      <g transform="translate(25.895312 162.610647)scale(0.1 -0.1)">
       <defs>
        <path id="DejaVuSans-34" d="M 2419 4116 
L 825 1625 
L 2419 1625 
L 2419 4116 
z
M 2253 4666 
L 3047 4666 
L 3047 1625 
L 3713 1625 
L 3713 1100 
L 3047 1100 
L 3047 0 
L 2419 0 
L 2419 1100 
L 313 1100 
L 313 1709 
L 2253 4666 
z
" transform="scale(0.015625)"/>
       </defs>
       <use xlink:href="#DejaVuSans-2212"/>
       <use xlink:href="#DejaVuSans-34" x="83.789062"/>
       <use xlink:href="#DejaVuSans-30" x="147.412109"/>
      </g>
     </g>
    </g>
    <g id="ytick_5">
     <g id="line2d_12">
      <g>
       <use xlink:href="#md34b6590d9" x="54" y="127.748571" style="stroke: #000000; stroke-width: 0.8"/>
      </g>
     </g>
     <g id="text_13">
      <!-- −20 -->
      <g transform="translate(25.895312 131.54779)scale(0.1 -0.1)">
       <use xlink:href="#DejaVuSans-2212"/>
       <use xlink:href="#DejaVuSans-32" x="83.789062"/>
       <use xlink:href="#DejaVuSans-30" x="147.412109"/>
      </g>
     </g>
    </g>
    <g id="ytick_6">
     <g id="line2d_13">
      <g>
       <use xlink:href="#md34b6590d9" x="54" y="96.685714" style="stroke: #000000; stroke-width: 0.8"/>
      </g>
     </g>
     <g id="text_14">
      <!-- 0 -->
      <g transform="translate(40.6375 100.484933)scale(0.1 -0.1)">
       <use xlink:href="#DejaVuSans-30"/>
      </g>
     </g>
    </g>
    <g id="ytick_7">
     <g id="line2d_14">
      <g>
       <use xlink:href="#md34b6590d9" x="54" y="65.622857" style="stroke: #000000; stroke-width: 0.8"/>
      </g>
     </g>
     <g id="text_15">
      <!-- 20 -->
      <g transform="translate(34.275 69.422076)scale(0.1 -0.1)">
       <use xlink:href="#DejaVuSans-32"/>
       <use xlink:href="#DejaVuSans-30" x="63.623047"/>
      </g>
     </g>
    </g>
    <g id="ytick_8">
     <g id="line2d_15">
      <g>
       <use xlink:href="#md34b6590d9" x="54" y="34.56" style="stroke: #000000; stroke-width: 0.8"/>
      </g>
     </g>
     <g id="text_16">
      <!-- 40 -->
      <g transform="translate(34.275 38.359219)scale(0.1 -0.1)">
       <use xlink:href="#DejaVuSans-34"/>
       <use xlink:href="#DejaVuSans-30" x="63.623047"/>
      </g>
     </g>
    </g>
    <g id="text_17">
     <!-- Membrane potential (mV) -->
     <g transform="translate(13.453125 207.691719)rotate(-90)scale(0.1 -0.1)">
      <defs>
       <path id="DejaVuSans-4d" d="M 628 4666 
L 1569 4666 
L 2759 1491 
L 3956 4666 
L 4897 4666 
L 4897 0 
L 4281 0 
L 4281 4097 
L 3078 897 
L 2444 897 
L 1241 4097 
L 1241 0 
L 628 0 
L 628 4666 
z
" transform="scale(0.015625)"/>
       <path id="DejaVuSans-62" d="M 3116 1747 
Q 3116 2381 2855 2742 
Q 2594 3103 2138 3103 
Q 1681 3103 1420 2742 
Q 1159 2381 1159 1747 
Q 1159 1113 1420 752 
Q 1681 391 2138 391 
Q 2594 391 2855 752 
Q 3116 1113 3116 1747 
z
M 1159 2969 
Q 1341 3281 1617 3432 
Q 1894 3584 2278 3584 
Q 2916 3584 3314 3078 
Q 3713 2572 3713 1747 
Q 3713 922 3314 415 
Q 2916 -91 2278 -91 
Q 1894 -91 1617 61 
Q 1341 213 1159 525 
L 1159 0 
L 581 0 
L 581 4863 
L 1159 4863 
L 1159 2969 
z
" transform="scale(0.015625)"/>
       <path id="DejaVuSans-72" d="M 2631 2963 
Q 2534 3019 2420 3045 
Q 2306 3072 2169 3072 
Q 1681 3072 1420 2755 
Q 1159 2438 1159 1844 
L 1159 0 
L 581 0 
L 581 3500 
L 1159 3500 
L 1159 2956 
Q 1341 3275 1631 3429 
Q 1922 3584 2338 3584 
Q 2397 3584 2469 3576 
Q 2541 3569 2628 3553 
L 2631 2963 
z
" transform="scale(0.015625)"/>
       <path id="DejaVuSans-61" d="M 2194 1759 
Q 1497 1759 1228 1600 
Q 959 1441 959 1056 
Q 959 750 1161 570 
Q 1363 391 1709 391 
Q 2188 391 2477 730 
Q 2766 1069 2766 1631 
L 2766 1759 
L 2194 1759 
z
M 3341 1997 
L 3341 0 
L 2766 0 
L 2766 531 
Q 2569 213 2275 61 
Q 1981 -91 1556 -91 
Q 1019 -91 701 211 
Q 384 513 384 1019 
Q 384 1609 779 1909 
Q 1175 2209 1959 2209 
L 2766 2209 
L 2766 2266 
Q 2766 2663 2505 2880 
Q 2244 3097 1772 3097 
Q 1472 3097 1187 3025 
Q 903 2953 641 2809 
L 641 3341 
Q 956 3463 1253 3523 
Q 1550 3584 1831 3584 
Q 2591 3584 2966 3190 
Q 3341 2797 3341 1997 
z
" transform="scale(0.015625)"/>
       <path id="DejaVuSans-6e" d="M 3513 2113 
L 3513 0 
L 2938 0 
L 2938 2094 
Q 2938 2591 2744 2837 
Q 2550 3084 2163 3084 
Q 1697 3084 1428 2787 
Q 1159 2491 1159 1978 
L 1159 0 
L 581 0 
L 581 3500 
L 1159 3500 
L 1159 2956 
Q 1366 3272 1645 3428 
Q 1925 3584 2291 3584 
Q 2894 3584 3203 3211 
Q 3513 2838 3513 2113 
z
" transform="scale(0.015625)"/>
       <path id="DejaVuSans-20" transform="scale(0.015625)"/>
       <path id="DejaVuSans-70" d="M 1159 525 
L 1159 -1331 
L 581 -1331 
L 581 3500 
L 1159 3500 
L 1159 2969 
Q 1341 3281 1617 3432 
Q 1894 3584 2278 3584 
Q 2916 3584 3314 3078 
Q 3713 2572 3713 1747 
Q 3713 922 3314 415 
Q 2916 -91 2278 -91 
Q 1894 -91 1617 61 
Q 1341 213 1159 525 
z
M 3116 1747 
Q 3116 2381 2855 2742 
Q 2594 3103 2138 3103 
Q 1681 3103 1420 2742 
Q 1159 2381 1159 1747 
Q 1159 1113 1420 752 
Q 1681 391 2138 391 
Q 2594 391 2855 752 
Q 3116 1113 3116 1747 
z
" transform="scale(0.015625)"/>
       <path id="DejaVuSans-6f" d="M 1959 3097 
Q 1497 3097 1228 2736 
Q 959 2375 959 1747 
Q 959 1119 1226 758 
Q 1494 397 1959 397 
Q 2419 397 2687 759 
Q 2956 1122 2956 1747 
Q 2956 2369 2687 2733 
Q 2419 3097 1959 3097 
z
M 1959 3584 
Q 2709 3584 3137 3096 
Q 3566 2609 3566 1747 
Q 3566 888 3137 398 
Q 2709 -91 1959 -91 
Q 1206 -91 779 398 
Q 353 888 353 1747 
Q 353 2609 779 3096 
Q 1206 3584 1959 3584 
z
" transform="scale(0.015625)"/>
       <path id="DejaVuSans-74" d="M 1172 4494 
L 1172 3500 
L 2356 3500 
L 2356 3053 
L 1172 3053 
L 1172 1153 
Q 1172 725 1289 603 
Q 1406 481 1766 481 
L 2356 481 
L 2356 0 
L 1766 0 
Q 1100 0 847 248 
Q 594 497 594 1153 
L 594 3053 
L 172 3053 
L 172 3500 
L 594 3500 
L 594 4494 
L 1172 4494 
z
" transform="scale(0.015625)"/>
       <path id="DejaVuSans-6c" d="M 603 4863 
L 1178 4863 
L 1178 0 
L 603 0 
L 603 4863 
z
" transform="scale(0.015625)"/>
       <path id="DejaVuSans-56" d="M 1831 0 
L 50 4666 
L 709 4666 
L 2188 738 
L 3669 4666 
L 4325 4666 
L 2547 0 
L 1831 0 
z
" transform="scale(0.015625)"/>
      </defs>
      <use xlink:href="#DejaVuSans-4d"/>
      <use xlink:href="#DejaVuSans-65" x="86.279297"/>
      <use xlink:href="#DejaVuSans-6d" x="147.802734"/>
      <use xlink:href="#DejaVuSans-62" x="245.214844"/>
      <use xlink:href="#DejaVuSans-72" x="308.691406"/>
      <use xlink:href="#DejaVuSans-61" x="349.804688"/>
      <use xlink:href="#DejaVuSans-6e" x="411.083984"/>
      <use xlink:href="#DejaVuSans-65" x="474.462891"/>
      <use xlink:href="#DejaVuSans-20" x="535.986328"/>
      <use xlink:href="#DejaVuSans-70" x="567.773438"/>
      <use xlink:href="#DejaVuSans-6f" x="631.25"/>
      <use xlink:href="#DejaVuSans-74" x="692.431641"/>
      <use xlink:href="#DejaVuSans-65" x="731.640625"/>
      <use xlink:href="#DejaVuSans-6e" x="793.164062"/>
      <use xlink:href="#DejaVuSans-74" x="856.542969"/>
      <use xlink:href="#DejaVuSans-69" x="895.751953"/>
      <use xlink:href="#DejaVuSans-61" x="923.535156"/>
      <use xlink:href="#DejaVuSans-6c" x="984.814453"/>
      <use xlink:href="#DejaVuSans-20" x="1012.597656"/>
      <use xlink:href="#DejaVuSans-28" x="1044.384766"/>
      <use xlink:href="#DejaVuSans-6d" x="1083.398438"/>
      <use xlink:href="#DejaVuSans-56" x="1180.810547"/>
      <use xlink:href="#DejaVuSans-29" x="1249.21875"/>
     </g>
    </g>
   </g>
   <g id="line2d_16">
    <path d="M 69.218182 225.596571 
L 69.347536 226.800191 
L 69.5961 227.092537 
L 69.710236 227.141904 
L 69.743209 227.068257 
L 70.184536 226.112266 
L 70.420418 225.907454 
L 70.745073 225.684686 
L 71.026609 225.784474 
L 71.779909 226.405122 
L 72.550964 226.880385 
L 72.627055 226.610555 
L 73.174909 224.008552 
L 73.387964 223.778689 
L 73.573118 223.903481 
L 73.923136 224.321834 
L 73.999227 224.229593 
L 74.346709 223.578941 
L 74.719555 222.688158 
L 74.881882 222.772603 
L 75.150736 223.081167 
L 75.201464 222.967376 
L 75.769609 221.534188 
L 75.921791 221.620277 
L 76.190645 222.116906 
L 77.524773 224.892776 
L 77.527309 224.891494 
L 77.656664 224.690091 
L 78.366845 223.114162 
L 78.813245 221.986439 
L 78.983182 222.135628 
L 79.348418 222.850014 
L 80.129618 224.312701 
L 80.248827 224.177326 
L 80.971691 222.296739 
L 80.989445 222.303902 
L 81.2025 222.527765 
L 81.392727 222.787568 
L 81.451064 222.70475 
L 81.737673 222.391872 
L 81.836591 222.302391 
L 82.130809 221.956581 
L 82.313427 222.122294 
L 82.422491 222.142681 
L 82.450391 222.117545 
L 83.064191 221.663886 
L 83.289927 221.945643 
L 83.464936 222.109526 
L 83.497909 222.08643 
L 83.764227 222.01879 
L 83.850464 222.034099 
L 83.883436 221.962686 
L 84.175118 221.520764 
L 84.441436 221.461521 
L 84.674782 221.159264 
L 85.118645 220.472418 
L 85.341845 220.118416 
L 85.483882 220.251639 
L 85.570118 220.291723 
L 85.605627 220.24013 
L 85.988618 219.057363 
L 86.064709 219.119928 
L 86.277764 219.573554 
L 87.713345 223.345499 
L 87.759 223.317125 
L 88.1496 222.860024 
L 88.2891 222.253504 
L 88.563027 221.383122 
L 88.725355 221.384825 
L 89.062691 221.506984 
L 89.283355 221.560103 
L 89.361982 221.564944 
L 89.384809 221.509639 
L 89.810918 220.1908 
L 89.861645 220.21891 
L 90.059482 220.524444 
L 90.315655 220.939812 
L 90.366382 220.910627 
L 90.559145 220.925313 
L 90.784882 221.262417 
L 91.1349 221.942937 
L 91.200845 221.842404 
L 91.502673 220.87419 
L 91.875518 219.292695 
L 92.017555 219.328598 
L 92.230609 219.72242 
L 92.895136 221.456782 
L 92.986445 221.269239 
L 93.270518 220.779236 
L 93.552055 220.519883 
L 93.9249 219.846802 
L 93.950264 219.860674 
L 94.734 220.525589 
L 95.548173 222.458291 
L 95.855073 223.046419 
L 95.903264 222.979527 
L 96.232991 222.572973 
L 96.276109 222.467775 
L 96.719973 220.332622 
L 96.862009 220.430127 
L 97.092818 220.581619 
L 97.1055 220.570946 
L 97.521464 220.023643 
L 97.795391 219.604784 
L 97.950109 219.723482 
L 98.239255 220.311539 
L 98.741455 221.52505 
L 98.802327 221.411374 
L 99.378082 220.053683 
L 99.619036 219.502664 
L 100.126309 217.517375 
L 100.128845 217.517928 
L 100.270882 217.668069 
L 100.554955 218.39074 
L 101.247382 220.373716 
L 101.293036 220.305115 
L 101.516236 219.397045 
L 101.754655 218.961115 
L 101.9043 219.041647 
L 102.157936 219.515827 
L 102.774273 221.056616 
L 102.870655 220.916006 
L 103.104 220.730151 
L 103.289155 220.900052 
L 103.697509 221.677687 
L 104.225073 222.532788 
L 104.648645 222.510935 
L 105.006273 222.893934 
L 105.1686 223.078892 
L 105.219327 222.994798 
L 106.4241 219.949287 
L 106.680273 219.195996 
L 106.931373 218.872815 
L 107.281391 218.235315 
L 107.431036 218.306812 
L 107.664382 218.757354 
L 109.155764 222.598325 
L 109.236927 222.391304 
L 109.624991 220.448584 
L 109.896382 219.132146 
L 110.0511 219.07498 
L 110.058709 219.080198 
L 110.286982 219.386146 
L 110.872882 220.164981 
L 111.775827 222.120306 
L 111.867136 222.020731 
L 112.265345 221.283522 
L 112.858855 218.243078 
L 113.000891 218.205719 
L 113.013573 218.215784 
L 113.196191 218.52144 
L 113.419391 218.938693 
L 113.480264 218.898035 
L 113.617227 218.664439 
L 113.939345 217.408229 
L 114.063627 217.483374 
L 114.284291 217.991802 
L 114.639382 218.689896 
L 114.7383 218.551615 
L 114.971645 218.354604 
L 115.136509 218.533997 
L 115.4637 219.310289 
L 116.709055 222.442737 
L 117.092045 223.083336 
L 117.130091 223.011772 
L 117.5562 222.138999 
L 117.842809 221.839234 
L 118.045718 221.947659 
L 118.400809 222.31379 
L 118.471827 222.213784 
L 118.758436 221.963714 
L 118.966418 222.099374 
L 119.166791 222.192691 
L 119.184545 222.175155 
L 119.526955 221.97504 
L 119.856682 221.966161 
L 120.138218 221.605716 
L 120.549109 221.047519 
L 120.800209 220.086549 
L 121.363282 217.386319 
L 121.672718 216.022403 
L 121.789391 216.088553 
L 121.989764 216.585451 
L 122.476745 217.784489 
L 122.649218 218.039445 
L 122.796327 218.138617 
L 122.811545 218.126843 
L 122.923145 217.847752 
L 123.288382 216.826414 
L 123.420273 216.945579 
L 123.529336 217.033147 
L 123.577527 216.996436 
L 123.795655 216.681367 
L 123.978273 216.615218 
L 124.148209 216.867583 
L 124.348582 217.04237 
L 124.526127 217.101375 
L 124.736645 217.501757 
L 125.259136 219.139763 
L 125.505164 219.568046 
L 125.756264 219.774081 
L 125.951564 220.021982 
L 126.0099 219.947879 
L 126.261 219.755945 
L 126.382745 219.688359 
L 126.649064 219.519791 
L 126.839291 219.717239 
L 127.234964 220.546682 
L 128.290091 222.749586 
L 129.020564 223.742113 
L 129.781473 224.411523 
L 129.839809 224.284866 
L 130.210118 223.395528 
L 130.423173 223.404767 
L 130.796018 223.714354 
L 131.470691 224.236074 
L 131.977964 223.888359 
L 132.213845 223.831222 
L 132.358418 222.888234 
L 132.670391 221.20889 
L 132.868227 221.042128 
L 133.053382 221.195161 
L 133.456664 221.905241 
L 134.473745 223.675489 
L 134.5473 223.583116 
L 134.6589 222.741131 
L 134.973409 220.836386 
L 135.257482 220.229659 
L 135.315818 220.034546 
L 135.648082 218.92384 
L 135.787582 218.978897 
L 136.094482 219.382373 
L 136.168036 219.256023 
L 136.906118 217.863296 
L 137.053227 217.916164 
L 137.436218 218.232955 
L 137.456509 218.21059 
L 137.661955 217.75069 
L 137.943491 217.122696 
L 138.126109 216.594325 
L 138.379745 216.228624 
L 138.836291 215.511516 
L 138.856582 215.524319 
L 139.013836 215.785171 
L 140.213536 218.800833 
L 140.3226 218.667975 
L 140.515364 218.600483 
L 140.700518 218.847968 
L 141.124091 219.902942 
L 141.233155 220.020432 
L 141.276273 219.997999 
L 141.514691 219.982439 
L 141.742964 220.277114 
L 142.394809 221.646331 
L 142.965491 222.635093 
L 142.985782 222.621193 
L 143.4753 222.32197 
L 143.650309 222.305076 
L 143.799955 221.975641 
L 144.106855 221.456337 
L 144.297082 221.501079 
L 144.601445 221.867469 
L 145.027555 222.309284 
L 145.321773 222.039954 
L 145.489173 221.240515 
L 145.742809 220.453715 
L 145.900064 220.464111 
L 146.128336 220.794908 
L 147.320427 223.168188 
L 147.424418 223.031477 
L 147.6603 222.429808 
L 147.934227 221.893982 
L 148.114309 221.928487 
L 148.560709 222.133162 
L 148.791518 222.022913 
L 148.913264 221.950357 
L 149.549891 220.871509 
L 149.7249 221.005853 
L 149.762945 220.994337 
L 149.800991 220.930021 
L 150.069845 220.639827 
L 150.244855 220.810896 
L 150.584727 221.405315 
L 150.655745 221.241224 
L 150.993082 220.492975 
L 151.150336 220.57392 
L 151.4268 221.050428 
L 151.715945 221.610774 
L 151.781891 221.545418 
L 151.931536 221.188384 
L 152.192782 220.7239 
L 152.355109 220.799354 
L 152.629036 221.254196 
L 152.720345 221.385926 
L 152.781218 221.313405 
L 153.034855 221.119834 
L 153.222545 221.31249 
L 153.557345 221.693666 
L 153.587782 221.672976 
L 153.836345 221.634239 
L 154.074764 221.894956 
L 154.843282 223.252776 
L 155.0538 223.542052 
L 155.101991 223.473848 
L 155.591509 222.268634 
L 155.900945 221.597748 
L 156.075955 221.633966 
L 156.238282 221.777002 
L 156.289009 221.667832 
L 156.603518 220.513598 
L 156.874909 219.621222 
L 157.027091 219.634736 
L 157.237609 219.977422 
L 157.9275 221.732825 
L 158.693482 223.331101 
L 159.246409 224.084328 
L 159.259091 224.074014 
L 159.591355 223.570254 
L 159.773973 223.032821 
L 160.375091 219.985716 
L 160.580536 219.673972 
L 160.928018 219.65121 
L 161.161364 220.03828 
L 161.655955 220.853692 
L 161.879155 220.928236 
L 162.117573 220.597343 
L 162.267218 219.886897 
L 162.695864 218.298434 
L 162.929209 217.875052 
L 163.068709 217.970287 
L 163.3122 218.49782 
L 164.311527 221.376872 
L 164.392691 221.144234 
L 164.694518 219.379744 
L 164.935473 218.630807 
L 165.077509 218.662518 
L 165.288027 219.039161 
L 165.825736 220.024318 
L 165.957627 219.949223 
L 166.249309 219.688182 
L 166.426855 219.877467 
L 167.0229 220.706279 
L 167.048264 220.683705 
L 167.4414 220.392248 
L 167.662064 220.428339 
L 167.773664 220.239864 
L 168.093245 219.702359 
L 168.253036 219.808353 
L 168.367173 219.961551 
L 168.422973 219.844541 
L 168.669 219.485951 
L 168.909955 219.430635 
L 169.102718 219.402769 
L 169.300555 219.679815 
L 169.774855 220.855928 
L 170.312564 222.082835 
L 170.345536 222.058074 
L 170.629609 221.584096 
L 170.946655 220.42259 
L 171.157173 218.277523 
L 171.418418 216.714763 
L 171.722782 215.548215 
L 172.569927 207.111348 
L 172.828636 206.427897 
L 172.935164 206.522093 
L 173.117782 207.097564 
L 173.754409 209.38953 
L 173.769627 209.377375 
L 173.866009 209.057437 
L 174.449373 205.999388 
L 175.151945 201.635829 
L 175.347245 201.293066 
L 175.359927 201.298309 
L 175.458845 201.360111 
L 175.494355 201.25566 
L 175.844373 199.426019 
L 176.143664 197.488658 
L 176.450564 196.768097 
L 177.744109 187.050521 
L 178.198118 180.585984 
L 178.3782 174.812633 
L 178.497409 163.396882 
L 178.548136 129.584852 
L 178.581109 34.439493 
L 178.659736 120.618527 
L 178.809382 184.261813 
L 179.002145 196.82729 
L 179.179691 197.999936 
L 179.3268 197.963669 
L 179.496736 198.015125 
L 179.681891 198.402032 
L 179.897482 198.667221 
L 180.095318 198.588173 
L 180.295691 197.733631 
L 180.513818 195.282832 
L 181.381255 180.633527 
L 181.568945 172.601417 
L 181.662791 157.787678 
L 181.6983 103.246065 
L 181.723664 32.822617 
L 181.804827 120.16216 
L 181.957009 185.35927 
L 182.134555 195.075659 
L 182.213182 195.369238 
L 182.266445 195.279269 
L 182.403409 194.499291 
L 182.735673 189.927093 
L 183.255627 181.963787 
L 183.443318 174.383259 
L 183.547309 159.866359 
L 183.585355 110.016314 
L 183.613255 30.492143 
L 183.694418 112.430483 
L 183.851673 182.132447 
L 184.0419 192.953792 
L 184.191545 193.937273 
L 184.211836 193.927633 
L 184.346264 193.656851 
L 184.635409 193.259935 
L 184.8231 192.993113 
L 185.036155 192.12393 
L 185.411536 188.575627 
L 185.596691 185.260585 
L 185.860473 176.517606 
L 185.979682 164.54783 
L 186.027873 132.473026 
L 186.060845 30.065144 
L 186.144545 114.436944 
L 186.299264 183.056019 
L 186.489491 194.192628 
L 186.702545 196.153988 
L 186.781173 196.033411 
L 186.968864 195.272915 
L 187.283373 191.773665 
L 187.937755 182.410437 
L 188.153345 174.370632 
L 188.259873 161.135389 
L 188.300455 121.691172 
L 188.330891 31.442781 
L 188.412055 114.886289 
L 188.566773 182.333134 
L 188.759536 194.114626 
L 189.023318 197.418686 
L 189.282027 198.647305 
L 189.451964 198.851169 
L 189.487473 198.822274 
L 189.687845 198.424232 
L 189.976991 197.51888 
L 190.288964 195.248807 
L 190.943345 184.452749 
L 191.217273 175.810038 
L 191.339018 163.835657 
L 191.387209 131.575832 
L 191.420182 32.200533 
L 191.501345 119.368379 
L 191.653527 186.193863 
L 191.841218 197.867115 
L 192.044127 199.473255 
L 192.247036 199.758219 
L 192.493064 199.719966 
L 192.868445 198.830385 
L 193.015555 197.827003 
L 193.489855 194.94038 
L 193.969227 192.828749 
L 194.435918 190.401351 
L 194.775791 189.086454 
L 195.772582 182.185378 
L 196.008464 177.508713 
L 196.165718 169.668753 
L 196.246882 152.458391 
L 196.279855 70.827096 
L 196.300145 34.628911 
L 196.378773 117.349489 
L 196.530955 179.990893 
L 196.731327 192.892608 
L 196.908873 194.33914 
L 196.9875 194.22502 
L 197.180264 193.34686 
L 197.525209 190.901369 
L 198.070527 187.175651 
L 198.686864 182.103642 
L 198.879627 177.050412 
L 199.016591 167.148476 
L 199.08 141.808729 
L 199.120582 31.982929 
L 199.204282 119.063438 
L 199.356464 179.992816 
L 199.556836 192.749625 
L 199.792718 195.637272 
L 200.081864 196.790064 
L 200.188391 196.684241 
L 200.378618 196.159764 
L 200.830091 193.080308 
L 201.017782 190.752296 
L 201.580855 181.283635 
L 201.766009 172.892214 
L 201.857318 157.6845 
L 201.890291 107.521321 
L 201.918191 31.142665 
L 201.999355 116.821586 
L 202.154073 184.807092 
L 202.341764 196.24396 
L 202.537064 197.620811 
L 202.625836 197.69307 
L 202.671491 197.654562 
L 202.813527 197.31074 
L 203.295436 194.305751 
L 203.9346 189.939622 
L 204.337882 184.303232 
L 204.578836 178.599547 
L 204.741164 169.453199 
L 204.814718 151.214666 
L 204.850227 45.205326 
L 204.862909 32.868706 
L 204.933927 102.04518 
L 205.098791 183.902294 
L 205.289018 195.463641 
L 205.474173 196.745613 
L 205.5249 196.768769 
L 205.565482 196.692525 
L 205.743027 195.810287 
L 206.148845 192.559498 
L 206.521691 187.396952 
L 206.894536 178.561967 
L 207.054327 168.602216 
L 207.122809 147.79393 
L 207.168464 32.063934 
L 207.2547 126.124254 
L 207.401809 183.467606 
L 207.597109 196.09207 
L 207.827918 198.666045 
L 208.023218 199.298362 
L 208.048582 199.285469 
L 208.213445 199.004968 
L 208.383382 198.30702 
L 208.741009 196.654648 
L 209.101173 195.37683 
L 209.593227 191.350809 
L 209.803745 186.979602 
L 210.082745 175.961006 
L 210.191809 161.938727 
L 210.229855 124.726613 
L 210.260291 29.352923 
L 210.341455 113.668909 
L 210.498709 189.075345 
L 210.678791 199.743717 
L 210.866482 200.724643 
L 210.975545 200.725073 
L 210.995836 200.70493 
L 211.125191 200.403733 
L 211.533545 196.811371 
L 212.436491 187.093706 
L 212.854991 178.541407 
L 213.022391 170.186366 
L 213.103555 152.998794 
L 213.136527 69.28644 
L 213.156818 34.113699 
L 213.235445 119.751524 
L 213.387627 183.919002 
L 213.577855 195.395886 
L 213.780764 196.965076 
L 213.864464 197.078815 
L 213.915191 197.023081 
L 214.029327 196.559441 
L 214.425 193.594022 
L 215.112355 186.717474 
L 215.510564 180.592731 
L 215.693182 173.766948 
L 215.797173 160.666974 
L 215.837755 120.705482 
L 215.868191 32.54306 
L 215.949355 117.94206 
L 216.101536 182.469871 
L 216.2943 194.36576 
L 216.423655 195.198383 
L 216.454091 195.176162 
L 216.634173 194.738963 
L 216.915709 193.81837 
L 217.237827 192.475979 
L 217.636036 190.596712 
L 217.988591 189.073995 
L 218.188964 185.342462 
L 218.399482 177.032675 
L 218.516155 162.880443 
L 218.556736 123.606437 
L 218.587173 28.276539 
L 218.668336 107.74146 
L 218.830664 185.961926 
L 219.010745 195.948628 
L 219.086836 196.2814 
L 219.1401 196.161441 
L 219.325255 194.587584 
L 219.6702 192.567521 
L 219.832527 191.266951 
L 220.180009 185.805738 
L 220.443791 178.336744 
L 220.5909 167.759952 
L 220.651773 145.151314 
L 220.692355 30.918079 
L 220.778591 119.638073 
L 220.930773 183.095343 
L 221.121 194.477033 
L 221.323909 196.168042 
L 221.879373 197.648883 
L 222.191345 197.819483 
L 222.693545 197.58994 
L 222.916745 198.048465 
L 223.294664 199.425889 
L 223.571127 200.129528 
L 223.878027 201.101285 
L 225.199473 205.942711 
L 225.404918 206.351441 
L 225.739718 207.665888 
L 226.092273 208.781097 
L 226.389027 208.906742 
L 226.619836 209.545661 
L 227.157545 211.873783 
L 227.667355 213.721735 
L 227.829682 213.696065 
L 227.9844 213.195597 
L 228.314127 212.352568 
L 228.443482 212.467603 
L 228.907636 213.255139 
L 228.973582 213.148413 
L 229.455491 212.288326 
L 229.605136 212.317199 
L 229.792827 212.685875 
L 230.056609 213.27811 
L 230.094655 213.183704 
L 230.2443 212.140154 
L 230.792155 208.474896 
L 231.104127 208.434395 
L 231.299427 208.928894 
L 231.738218 210.808766 
L 231.9462 211.264787 
L 232.390064 211.308987 
L 232.7553 210.587118 
L 232.846609 210.693657 
L 232.973427 210.90215 
L 233.039373 210.807751 
L 233.282864 210.562166 
L 233.287936 210.565047 
L 233.435045 210.782453 
L 233.724191 211.710104 
L 234.031091 212.454607 
L 234.419155 213.591853 
L 234.703227 214.209288 
L 234.710836 214.20596 
L 234.807218 214.015682 
L 235.251082 213.158585 
L 235.705091 213.382275 
L 236.052573 213.88679 
L 236.060182 213.882923 
L 236.433027 213.794062 
L 236.653691 214.223657 
L 237.1077 215.089049 
L 237.389236 215.641316 
L 238.091809 217.729584 
L 239.0049 220.109448 
L 239.179909 220.177938 
L 239.443691 220.010655 
L 239.682109 219.318119 
L 239.940818 218.709887 
L 240.194455 218.43752 
L 240.410045 218.310011 
L 240.7347 218.315546 
L 241.249582 217.727747 
L 241.310455 217.793195 
L 241.708664 218.274868 
L 241.741636 218.189345 
L 242.167745 216.978488 
L 242.332609 216.951863 
L 242.5203 217.245039 
L 243.032645 218.528539 
L 243.187364 218.425936 
L 243.344618 218.504433 
L 243.666736 218.707073 
L 243.851891 218.79144 
L 244.115673 219.240485 
L 245.163191 221.23792 
L 245.426973 221.30525 
L 245.817573 221.675281 
L 245.893664 221.513825 
L 246.170127 221.122092 
L 246.357818 221.213308 
L 246.720518 221.715174 
L 246.8727 221.867176 
L 246.918355 221.824416 
L 247.281055 221.567096 
L 247.420555 221.4966 
L 247.605709 220.812793 
L 248.041964 219.093063 
L 248.341255 217.965458 
L 248.632936 216.648199 
L 248.772436 216.618827 
L 248.785118 216.629325 
L 249.122455 216.787795 
L 249.267027 216.92333 
L 249.535882 217.583759 
L 251.156618 222.099891 
L 251.275827 222.286071 
L 251.321482 222.186695 
L 251.453373 221.262704 
L 251.793245 219.042951 
L 251.986009 218.84724 
L 252.150873 219.007327 
L 252.199064 219.048606 
L 252.252327 218.965297 
L 252.498355 218.719537 
L 252.665755 218.905365 
L 253.028455 219.741988 
L 253.715809 221.417657 
L 253.761464 221.356489 
L 254.068364 220.989975 
L 254.205327 220.914017 
L 254.502082 220.680189 
L 254.849564 220.656845 
L 255.072764 220.590516 
L 255.476045 220.7016 
L 255.4938 220.660922 
L 255.846355 220.113191 
L 255.950345 219.651029 
L 256.318118 218.095489 
L 256.477909 218.081692 
L 256.647845 218.078312 
L 257.068882 217.602248 
L 257.314909 217.292568 
L 257.464555 217.432928 
L 257.746091 218.0904 
L 258.669327 220.378528 
L 258.745418 220.349275 
L 258.765709 220.311815 
L 259.382045 219.288593 
L 259.546909 219.395875 
L 259.683873 219.339123 
L 259.800545 219.116522 
L 260.203827 218.203743 
L 260.2926 217.902622 
L 260.8227 215.828977 
L 261.142282 215.698589 
L 261.231055 215.660055 
L 261.246273 215.626977 
L 261.4086 214.935442 
L 261.745936 213.568454 
L 261.860073 213.667838 
L 262.093418 214.104827 
L 262.149218 213.958371 
L 262.595618 211.358486 
L 262.641273 211.387484 
L 262.790918 211.714997 
L 262.912664 211.715489 
L 263.034409 211.803222 
L 263.2221 212.330274 
L 263.716691 214.603011 
L 264.662755 218.639484 
L 264.934145 219.194503 
L 265.1193 219.358596 
L 265.164955 219.259027 
L 265.449027 218.785633 
L 265.923327 218.737639 
L 266.275882 218.679144 
L 266.516836 219.06741 
L 267.244773 220.634348 
L 267.336082 220.535589 
L 268.061482 219.526309 
L 268.239027 219.657634 
L 268.426718 219.904234 
L 268.492664 219.8003 
L 268.939064 219.168148 
L 269.0253 219.004598 
L 269.306836 218.426667 
L 269.469164 218.539732 
L 270.011945 219.036871 
L 270.290945 219.354678 
L 270.481173 219.420047 
L 270.8388 219.860629 
L 270.912355 219.703032 
L 271.488109 218.264826 
L 271.528691 218.286706 
L 271.7316 218.571532 
L 272.208436 219.743462 
L 272.403736 220.086457 
L 272.446855 220.061902 
L 273.055582 219.779879 
L 273.367555 220.35534 
L 274.059982 221.615358 
L 274.394782 221.55618 
L 274.732118 221.236647 
L 274.945173 221.362744 
L 275.353527 221.624332 
L 275.599555 221.584442 
L 275.645209 221.558768 
L 275.670573 221.499142 
L 275.964791 221.032108 
L 276.137264 221.148476 
L 276.492355 221.746275 
L 276.685118 222.018205 
L 276.735845 221.976705 
L 277.479 221.369758 
L 277.5906 221.442735 
L 277.623573 221.344166 
L 277.849309 219.841909 
L 278.1207 218.196525 
L 278.516373 217.686585 
L 278.795373 217.415308 
L 278.950091 217.445495 
L 279.163145 217.826413 
L 279.929127 218.981457 
L 280.322264 219.145544 
L 280.497273 219.170969 
L 280.720473 219.515515 
L 280.839682 219.688236 
L 280.900555 219.633191 
L 281.118682 219.563287 
L 281.313982 219.817385 
L 281.783209 220.917707 
L 281.912564 221.120326 
L 281.948073 221.034849 
L 282.356427 219.84651 
L 282.513682 219.973745 
L 282.8358 220.614871 
L 282.916964 220.741366 
L 282.9753 220.66376 
L 283.231473 220.42277 
L 283.573882 220.434776 
L 283.776791 220.33453 
L 283.972091 220.549923 
L 284.055791 220.627212 
L 284.103982 220.555505 
L 284.798945 219.24882 
L 285.143891 219.415036 
L 285.336655 219.63625 
L 285.4026 219.554742 
L 285.567464 219.152602 
L 285.912409 217.939124 
L 286.054445 217.978651 
L 286.166045 218.0999 
L 286.224382 217.999402 
L 286.439973 217.80019 
L 286.442509 217.801497 
L 286.599764 218.010823 
L 286.952318 218.961873 
L 287.142545 219.347736 
L 287.185664 219.326777 
L 287.378427 219.346757 
L 287.601627 219.699802 
L 288.273764 220.847159 
L 288.486818 220.977527 
L 288.669436 221.141879 
L 288.720164 221.074317 
L 289.011845 220.814304 
L 289.295918 220.776967 
L 289.3923 220.615912 
L 289.9782 218.111447 
L 290.186182 217.754134 
L 290.363727 217.669772 
L 290.822809 217.333365 
L 290.972455 217.515417 
L 291.279355 218.347572 
L 291.411245 218.687292 
L 291.479727 218.622142 
L 291.667418 218.571305 
L 291.850036 218.857227 
L 292.073236 219.079164 
L 292.271073 219.139169 
L 292.504418 219.543045 
L 292.603336 219.671788 
L 292.659136 219.623448 
L 292.869655 219.557432 
L 293.064955 219.834494 
L 293.595055 221.122331 
L 294.416836 222.883942 
L 294.865773 223.440589 
L 295.073755 223.203059 
L 295.492255 222.443579 
L 296.235409 222.215516 
L 296.412955 220.671991 
L 296.684345 218.96197 
L 296.846673 218.831819 
L 296.859355 218.838287 
L 297.026755 218.810707 
L 297.488373 218.228831 
L 297.858682 217.489089 
L 298.287327 216.941619 
L 298.343127 217.000177 
L 298.558718 217.487635 
L 299.076136 219.102238 
L 299.180127 218.957363 
L 299.443909 218.709429 
L 299.613845 218.864891 
L 299.933427 219.543626 
L 299.971473 219.591767 
L 300.034882 219.499032 
L 300.1617 218.922582 
L 300.397582 218.334776 
L 300.532009 218.404401 
L 300.765355 218.875243 
L 301.320818 219.988911 
L 301.526264 220.059643 
L 301.792582 220.477529 
L 302.221227 221.149992 
L 302.246591 221.136389 
L 302.500227 221.120186 
L 302.619436 221.1618 
L 302.654945 221.085865 
L 303.190118 220.046558 
L 303.387955 219.926098 
L 303.730364 219.93676 
L 303.951027 219.814866 
L 304.141255 220.013773 
L 304.562291 220.878535 
L 305.307982 222.330989 
L 305.320664 222.324194 
L 305.444945 222.118889 
L 305.817791 221.41799 
L 306.008018 221.469024 
L 306.314918 221.849731 
L 306.611673 222.299802 
L 306.667473 222.194282 
L 307.222936 220.408852 
L 307.486718 219.738608 
L 307.649045 219.760422 
L 307.879855 220.102156 
L 308.597645 221.751933 
L 309.399136 223.280656 
L 309.756764 223.696921 
L 309.782127 223.670892 
L 309.878509 223.314771 
L 310.220918 222.148683 
L 310.664782 221.409304 
L 311.156836 218.848853 
L 311.689473 218.619184 
L 311.694545 218.627097 
L 311.965936 219.265859 
L 312.321027 219.946141 
L 312.501109 219.92451 
L 312.503645 219.919442 
L 312.815618 219.037223 
L 313.092082 218.137856 
L 313.234118 218.172706 
L 313.444636 218.558777 
L 313.556236 218.782088 
L 313.596818 218.65301 
L 313.939227 217.490125 
L 314.068582 217.603163 
L 314.322218 218.225783 
L 314.963918 219.8127 
L 315.169364 219.897845 
L 315.423 220.244727 
L 315.509236 220.099821 
L 315.722291 219.941492 
L 315.902373 220.135294 
L 316.044409 220.365062 
L 316.102745 220.256747 
L 316.645527 218.635162 
L 316.8738 218.129802 
L 317.0133 218.205958 
L 317.043736 218.220263 
L 317.091927 218.131186 
L 317.335418 217.827567 
L 317.337955 217.828642 
L 317.492673 218.019662 
L 317.830009 218.895392 
L 318.963764 221.926239 
L 319.159064 222.07672 
L 319.222473 221.938508 
L 320.008745 218.765214 
L 320.056936 218.789866 
L 320.247164 219.075825 
L 320.607327 219.566867 
L 320.873645 219.887328 
L 321.398673 220.998161 
L 321.583827 221.302415 
L 321.634555 221.258814 
L 321.936382 221.079382 
L 322.157045 221.293115 
L 322.263573 221.411268 
L 322.3143 221.329109 
L 322.836791 219.949313 
L 323.2629 217.860822 
L 323.410009 217.868598 
L 323.607845 218.216344 
L 323.815827 218.42826 
L 324.094827 218.516398 
L 324.338318 218.743946 
L 324.493036 218.935563 
L 324.553909 218.871517 
L 324.772036 218.778149 
L 324.957191 219.010198 
L 325.814482 220.396109 
L 325.834773 220.382896 
L 326.161964 220.275186 
L 326.395309 220.566808 
L 326.770691 221.098194 
L 326.816345 221.067738 
L 327.049691 221.039877 
L 327.506236 221.17586 
L 327.7269 221.251601 
L 328.049018 221.664713 
L 328.470055 222.125545 
L 328.830218 222.225961 
L 328.924064 222.201319 
L 328.941818 222.175479 
L 329.5962 220.943087 
L 329.862518 220.283294 
L 330.024845 220.314336 
L 330.303845 220.664147 
L 330.395155 220.496084 
L 330.608209 220.330612 
L 330.785755 220.507372 
L 331.1865 221.320465 
L 331.361509 221.522927 
L 331.384336 221.49649 
L 331.478182 221.074306 
L 331.998136 218.363336 
L 332.223873 217.974229 
L 332.365909 218.074912 
L 332.680418 218.323178 
L 332.855427 218.437847 
L 333.114136 218.958512 
L 333.233345 219.236915 
L 333.286609 219.095592 
L 333.616336 218.224096 
L 333.755836 218.325311 
L 333.999327 218.637154 
L 334.072882 218.584289 
L 334.232673 218.624631 
L 334.412755 218.78492 
L 334.453336 218.702009 
L 334.922564 217.345662 
L 334.985973 217.389291 
L 335.2878 217.607421 
L 335.3157 217.574834 
L 335.642891 217.305137 
L 335.904136 217.359767 
L 336.069 217.419425 
L 336.282055 217.826535 
L 336.555982 218.462573 
L 336.632073 218.421327 
L 337.048036 218.368042 
L 337.139345 218.246756 
L 337.316891 217.670138 
L 337.697345 216.379303 
L 337.829236 216.511006 
L 338.093018 217.188716 
L 338.800664 219.441402 
L 338.897045 219.344832 
L 339.079664 219.312889 
L 339.280036 219.59812 
L 339.873545 221.001166 
L 340.013045 221.260784 
L 340.073918 221.195256 
L 340.611627 220.65688 
L 340.761273 220.700979 
L 340.7841 220.648303 
L 341.225427 219.564887 
L 341.238109 219.569514 
L 341.524718 219.573578 
L 341.725091 219.563832 
L 341.856982 219.503894 
L 342.113155 219.424604 
L 342.326209 219.653252 
L 342.762464 220.543255 
L 343.325536 221.727641 
L 343.373727 221.656981 
L 343.771936 220.558591 
L 344.139709 219.45636 
L 344.286818 219.543339 
L 344.563282 220.057102 
L 344.806773 220.351352 
L 344.811845 220.348784 
L 344.946273 220.138849 
L 345.189764 219.924883 
L 345.3039 219.667572 
L 345.537245 219.357749 
L 345.697036 219.488933 
L 346.036909 220.107703 
L 346.102855 219.878921 
L 346.331127 217.89957 
L 346.671 215.518612 
L 346.820645 215.388349 
L 346.840936 215.399817 
L 346.998191 215.648383 
L 347.353282 216.743769 
L 347.726127 217.650191 
L 347.908745 217.73349 
L 348.124336 217.753283 
L 348.337391 218.087055 
L 348.837055 219.418394 
L 349.075473 219.752111 
L 349.382373 220.079647 
L 349.912473 221.122513 
L 350.356336 221.86777 
L 350.3817 221.851803 
L 350.736791 221.719501 
L 350.878827 221.590552 
L 351.157827 221.422019 
L 351.378491 221.584149 
L 351.857864 222.305112 
L 352.169836 222.741021 
L 352.218027 222.686129 
L 352.6137 221.883387 
L 352.743055 221.222867 
L 353.219891 218.873681 
L 353.359391 218.911444 
L 353.577518 219.309296 
L 354.325745 220.801245 
L 354.7062 220.724209 
L 354.904036 220.758854 
L 355.162745 221.1001 
L 355.4037 221.29418 
L 355.659873 221.332979 
L 355.951555 221.697591 
L 356.050473 221.692322 
L 356.0733 221.670787 
L 356.385273 221.511483 
L 356.638909 221.611993 
L 356.674418 221.509441 
L 356.935664 221.075027 
L 357.095455 220.796518 
L 357.361773 220.552798 
L 357.617945 220.504636 
L 357.843682 220.74575 
L 358.3332 221.697021 
L 359.101718 223.124732 
L 359.122009 223.101055 
L 359.264045 222.63274 
L 359.426373 220.827611 
L 359.725664 218.380817 
L 360.042709 217.063149 
L 360.177136 217.087335 
L 360.367364 217.471984 
L 360.877173 219.181022 
L 361.427564 220.872541 
L 361.463073 220.844224 
L 361.643155 220.443898 
L 361.914545 219.97368 
L 362.0718 220.066647 
L 362.358409 220.581278 
L 362.822564 221.607543 
L 362.893582 221.487427 
L 363.357736 220.733443 
L 363.497236 220.426809 
L 363.915736 219.240244 
L 364.072991 219.391008 
L 364.402718 220.109439 
L 364.552364 220.307611 
L 364.587873 220.279692 
L 365.016518 219.957117 
L 365.2524 220.304631 
L 365.457845 220.709644 
L 365.518718 220.588019 
L 365.795182 220.144207 
L 365.952436 220.26571 
L 367.225691 221.810457 
L 367.601073 221.856641 
L 367.940945 222.274145 
L 368.273209 222.724438 
L 368.326473 222.652219 
L 368.625764 222.34403 
L 368.762727 222.25773 
L 369.292827 220.78398 
L 369.302973 220.787458 
L 369.490664 220.980398 
L 369.734155 221.292188 
L 369.779809 221.228606 
L 370.183091 220.679501 
L 370.393609 220.627022 
L 370.644709 220.556762 
L 371.096182 220.663098 
L 371.507073 220.451682 
L 371.775927 220.219657 
L 371.910355 220.151778 
L 372.6459 218.757459 
L 372.950264 218.57593 
L 373.533627 216.677509 
L 373.551382 216.684304 
L 373.581818 216.705613 
L 373.581818 216.705613 
" clip-path="url(#pa576c85678)" style="fill: none; stroke: #000000; stroke-width: 1.5; stroke-linecap: square"/>
   </g>
   <g id="line2d_17">
    <path d="M 69.218182 225.596571 
L 69.347536 226.800191 
L 69.5961 227.092537 
L 69.710236 227.141904 
L 69.743209 227.068257 
L 70.184536 226.112266 
L 70.420418 225.907454 
L 70.745073 225.684686 
L 71.026609 225.784474 
L 71.779909 226.405122 
L 72.550964 226.880385 
L 72.627055 226.610555 
L 73.174909 224.008552 
L 73.387964 223.778689 
L 73.573118 223.903481 
L 73.923136 224.321834 
L 73.999227 224.229593 
L 74.346709 223.578941 
L 74.719555 222.688158 
L 74.881882 222.772603 
L 75.150736 223.081167 
L 75.201464 222.967376 
L 75.769609 221.534188 
L 75.921791 221.620277 
L 76.190645 222.116906 
L 77.524773 224.892776 
L 77.527309 224.891494 
L 77.656664 224.690091 
L 78.366845 223.114162 
L 78.813245 221.986439 
L 78.983182 222.135628 
L 79.348418 222.850014 
L 80.129618 224.312701 
L 80.248827 224.177326 
L 80.971691 222.296739 
L 80.989445 222.303902 
L 81.2025 222.527765 
L 81.392727 222.787568 
L 81.451064 222.70475 
L 81.737673 222.391872 
L 81.836591 222.302391 
L 82.130809 221.956581 
L 82.313427 222.122294 
L 82.422491 222.142681 
L 82.450391 222.117545 
L 83.064191 221.663886 
L 83.289927 221.945643 
L 83.464936 222.109526 
L 83.497909 222.08643 
L 83.764227 222.01879 
L 83.850464 222.034099 
L 83.883436 221.962686 
L 84.175118 221.520764 
L 84.441436 221.461521 
L 84.674782 221.159264 
L 85.118645 220.472418 
L 85.341845 220.118416 
L 85.483882 220.251639 
L 85.570118 220.291723 
L 85.605627 220.24013 
L 85.988618 219.057363 
L 86.064709 219.119928 
L 86.277764 219.573554 
L 87.713345 223.345499 
L 87.759 223.317125 
L 88.1496 222.860024 
L 88.2891 222.253504 
L 88.563027 221.383122 
L 88.725355 221.384825 
L 89.062691 221.506984 
L 89.283355 221.560103 
L 89.361982 221.564944 
L 89.384809 221.509639 
L 89.810918 220.1908 
L 89.861645 220.21891 
L 90.059482 220.524444 
L 90.315655 220.939812 
L 90.366382 220.910627 
L 90.559145 220.925313 
L 90.784882 221.262417 
L 91.1349 221.942937 
L 91.200845 221.842404 
L 91.502673 220.87419 
L 91.875518 219.292695 
L 92.017555 219.328598 
L 92.230609 219.72242 
L 92.895136 221.456782 
L 92.986445 221.269239 
L 93.270518 220.779236 
L 93.552055 220.519883 
L 93.9249 219.846802 
L 93.950264 219.860674 
L 94.734 220.525589 
L 95.548173 222.458291 
L 95.855073 223.046419 
L 95.903264 222.979527 
L 96.232991 222.572973 
L 96.276109 222.467775 
L 96.719973 220.332622 
L 96.862009 220.430127 
L 97.092818 220.581619 
L 97.1055 220.570946 
L 97.521464 220.023643 
L 97.795391 219.604784 
L 97.950109 219.723482 
L 98.239255 220.311539 
L 98.741455 221.52505 
L 98.802327 221.411374 
L 99.378082 220.053683 
L 99.619036 219.502664 
L 100.126309 217.517375 
L 100.128845 217.517928 
L 100.270882 217.668069 
L 100.554955 218.39074 
L 101.247382 220.373716 
L 101.293036 220.305115 
L 101.516236 219.397045 
L 101.754655 218.961115 
L 101.9043 219.041647 
L 102.157936 219.515827 
L 102.774273 221.056616 
L 102.870655 220.916006 
L 103.104 220.730151 
L 103.289155 220.900052 
L 103.697509 221.677687 
L 104.225073 222.532788 
L 104.648645 222.510935 
L 105.006273 222.893934 
L 105.1686 223.078892 
L 105.219327 222.994798 
L 106.4241 219.949287 
L 106.680273 219.195996 
L 106.931373 218.872815 
L 107.281391 218.235315 
L 107.431036 218.306812 
L 107.664382 218.757354 
L 109.155764 222.598325 
L 109.236927 222.391304 
L 109.624991 220.448584 
L 109.896382 219.132146 
L 110.0511 219.07498 
L 110.058709 219.080198 
L 110.286982 219.386146 
L 110.872882 220.164981 
L 111.775827 222.120306 
L 111.867136 222.020731 
L 112.265345 221.283522 
L 112.858855 218.243078 
L 113.000891 218.205719 
L 113.013573 218.215784 
L 113.196191 218.52144 
L 113.419391 218.938693 
L 113.480264 218.898035 
L 113.617227 218.664439 
L 113.939345 217.408229 
L 114.063627 217.483374 
L 114.284291 217.991802 
L 114.639382 218.689896 
L 114.7383 218.551615 
L 114.971645 218.354604 
L 115.136509 218.533997 
L 115.4637 219.310289 
L 116.709055 222.442737 
L 117.092045 223.083336 
L 117.130091 223.011772 
L 117.5562 222.138999 
L 117.842809 221.839234 
L 118.045718 221.947659 
L 118.400809 222.31379 
L 118.471827 222.213784 
L 118.758436 221.963714 
L 118.966418 222.099374 
L 119.166791 222.192691 
L 119.184545 222.175155 
L 119.526955 221.97504 
L 119.856682 221.966161 
L 120.138218 221.605716 
L 120.549109 221.047519 
L 120.800209 220.086549 
L 121.363282 217.386319 
L 121.672718 216.022403 
L 121.789391 216.088553 
L 121.989764 216.585451 
L 122.476745 217.784489 
L 122.649218 218.039445 
L 122.796327 218.138617 
L 122.811545 218.126843 
L 122.923145 217.847752 
L 123.288382 216.826414 
L 123.420273 216.945579 
L 123.529336 217.033147 
L 123.577527 216.996436 
L 123.795655 216.681367 
L 123.978273 216.615218 
L 124.148209 216.867583 
L 124.348582 217.04237 
L 124.526127 217.101375 
L 124.736645 217.501757 
L 125.259136 219.139763 
L 125.505164 219.568046 
L 125.756264 219.774081 
L 125.951564 220.021982 
L 126.0099 219.947879 
L 126.261 219.755945 
L 126.382745 219.688359 
L 126.649064 219.519791 
L 126.839291 219.717239 
L 127.234964 220.546682 
L 128.290091 222.749586 
L 129.020564 223.742113 
L 129.781473 224.411523 
L 129.839809 224.284866 
L 130.210118 223.395528 
L 130.423173 223.404767 
L 130.796018 223.714354 
L 131.470691 224.236074 
L 131.977964 223.888359 
L 132.213845 223.831222 
L 132.358418 222.888234 
L 132.670391 221.20889 
L 132.868227 221.042128 
L 133.053382 221.195161 
L 133.456664 221.905241 
L 134.473745 223.675489 
L 134.5473 223.583116 
L 134.6589 222.741131 
L 134.973409 220.836386 
L 135.257482 220.229659 
L 135.315818 220.034546 
L 135.648082 218.92384 
L 135.787582 218.978897 
L 136.094482 219.382373 
L 136.168036 219.256023 
L 136.906118 217.863296 
L 137.053227 217.916164 
L 137.436218 218.232955 
L 137.456509 218.21059 
L 137.661955 217.75069 
L 137.943491 217.122696 
L 138.126109 216.594325 
L 138.379745 216.228624 
L 138.836291 215.511516 
L 138.856582 215.524319 
L 139.013836 215.785171 
L 140.213536 218.800833 
L 140.3226 218.667461 
L 140.5179 218.59848 
L 140.703055 218.844843 
L 141.1317 219.902033 
L 141.230618 219.996002 
L 141.273736 219.972523 
L 141.517227 219.94731 
L 141.7455 220.23479 
L 142.402418 221.585065 
L 142.965491 222.530815 
L 142.983245 222.518261 
L 143.490518 222.20165 
L 143.650309 222.167494 
L 143.802491 221.823795 
L 144.109391 221.295609 
L 144.302155 221.3363 
L 144.609055 221.696766 
L 145.022482 222.11162 
L 145.321773 221.826362 
L 145.491709 221.005381 
L 145.745345 220.218927 
L 145.905136 220.228939 
L 146.135945 220.560977 
L 147.320427 222.874237 
L 147.416809 222.746691 
L 147.662836 222.114534 
L 147.936764 221.575258 
L 148.116845 221.606536 
L 148.558173 221.798532 
L 148.794055 221.677997 
L 148.913264 221.600773 
L 149.552427 220.499764 
L 149.859327 220.430217 
L 150.074918 220.252648 
L 150.252464 220.427878 
L 150.584727 221.000584 
L 150.653209 220.843097 
L 150.998155 220.073437 
L 151.157945 220.158725 
L 151.439482 220.645626 
L 151.715945 221.171826 
L 151.779355 221.10807 
L 151.931536 220.743892 
L 152.192782 220.271067 
L 152.355109 220.341862 
L 152.6265 220.784939 
L 152.720345 220.919941 
L 152.778682 220.850315 
L 153.037391 220.647255 
L 153.225082 220.837977 
L 153.554809 221.209729 
L 153.585245 221.188471 
L 153.838882 221.142961 
L 154.0773 221.400597 
L 154.843282 222.74177 
L 155.0538 223.028455 
L 155.101991 222.959846 
L 155.588973 221.754053 
L 155.900945 221.06764 
L 156.075955 221.100903 
L 156.238282 221.241838 
L 156.289009 221.132353 
L 156.600982 219.987828 
L 156.872373 219.075924 
L 157.024555 219.081343 
L 157.232536 219.411652 
L 157.884382 221.058715 
L 158.663045 222.70048 
L 159.246409 223.502641 
L 159.256555 223.49481 
L 159.479755 223.125337 
L 159.743536 222.61918 
L 160.593218 219.07323 
L 160.920409 219.044974 
L 161.146145 219.40351 
L 161.671173 220.259128 
L 161.876618 220.315419 
L 162.117573 219.977112 
L 162.267218 219.263376 
L 162.695864 217.665106 
L 162.929209 217.237313 
L 163.068709 217.330623 
L 163.309664 217.848673 
L 164.311527 220.720135 
L 164.392691 220.487203 
L 164.691982 218.732282 
L 164.932936 217.964907 
L 165.077509 217.993378 
L 165.288027 218.369742 
L 165.8232 219.353303 
L 165.957627 219.277625 
L 166.249309 219.012613 
L 166.426855 219.200173 
L 167.0229 220.026583 
L 167.048264 220.003887 
L 167.443936 219.711081 
L 167.662064 219.744638 
L 167.7762 219.549098 
L 168.090709 219.016023 
L 168.2505 219.118188 
L 168.369709 219.27265 
L 168.422973 219.158353 
L 168.671536 218.800316 
L 168.904882 218.748934 
L 169.100182 218.713751 
L 169.295482 218.982157 
L 169.754564 220.114798 
L 170.312564 221.397409 
L 170.345536 221.372982 
L 170.627073 220.906491 
L 170.941582 219.770095 
L 171.139418 217.780964 
L 171.408273 216.054266 
L 171.727855 214.805304 
L 172.542027 206.582878 
L 172.813418 205.785245 
L 172.922482 205.858604 
L 173.094955 206.36991 
L 173.754409 208.753405 
L 173.784845 208.713167 
L 173.947173 208.063075 
L 174.393573 205.802472 
L 174.903382 202.263162 
L 175.207745 200.807061 
L 175.349782 200.646379 
L 175.380218 200.666934 
L 175.451236 200.727486 
L 175.491818 200.623837 
L 175.834227 198.9058 
L 176.1462 196.876318 
L 176.445491 196.217549 
L 177.779618 186.551096 
L 178.302109 179.641572 
L 178.502482 172.672449 
L 178.614082 159.862513 
L 178.6572 124.402841 
L 178.687636 38.805327 
L 178.766264 128.469539 
L 178.913373 185.960792 
L 179.098527 197.441216 
L 179.276073 198.449014 
L 179.9685 199.09761 
L 180.102927 198.928481 
L 180.318518 197.841984 
L 180.556936 194.885561 
L 181.639964 176.051575 
L 181.779464 165.833711 
L 181.840336 142.885821 
L 181.880918 37.000665 
L 181.959545 126.182544 
L 182.106655 186.152906 
L 182.2842 196.065305 
L 182.360291 196.36454 
L 182.408482 196.197035 
L 182.588564 194.126786 
L 183.565064 180.534112 
L 183.767973 171.402934 
L 183.859282 154.834517 
L 183.892255 91.184505 
L 183.915082 34.438229 
L 183.996245 121.7241 
L 184.145891 184.410452 
L 184.328509 194.875701 
L 184.526345 196.076193 
L 184.772373 196.443093 
L 184.774909 196.442126 
L 184.909336 196.267001 
L 185.0463 195.758838 
L 185.505382 192.169345 
L 186.101427 182.446209 
L 186.3297 174.765225 
L 186.448909 162.58779 
L 186.4971 128.323761 
L 186.530073 34.882969 
L 186.6087 122.249691 
L 186.758345 185.486285 
L 186.940964 196.052953 
L 187.029736 196.49882 
L 187.080464 196.419351 
L 187.232645 195.65599 
L 188.011309 189.769863 
L 188.810264 180.554128 
L 189.036 173.948685 
L 189.157745 162.757259 
L 189.208473 133.921801 
L 189.243982 37.168124 
L 189.322609 123.068827 
L 189.472255 182.39072 
L 189.670091 194.813097 
L 189.908509 197.769619 
L 190.045473 197.959166 
L 190.070836 197.937236 
L 190.210336 197.556088 
L 190.324473 196.418089 
L 191.202055 183.692678 
L 191.508955 176.279223 
L 191.650991 166.459478 
L 191.7144 144.434868 
L 191.757518 36.12646 
L 191.838682 127.617511 
L 191.985791 184.800077 
L 192.176018 196.68968 
L 192.391609 198.591548 
L 192.5793 198.928908 
L 192.799964 198.853057 
L 192.931855 198.400113 
L 193.657255 194.342763 
L 194.126482 191.806177 
L 194.466355 190.460839 
L 194.791009 189.351283 
L 195.343936 186.905568 
L 195.841064 184.545573 
L 196.213909 180.773393 
L 196.434573 176.36991 
L 196.576609 168.325834 
L 196.6527 148.959353 
L 196.700891 36.658249 
L 196.784591 128.244642 
L 196.9317 181.552234 
L 197.124464 193.072797 
L 197.307082 194.353837 
L 197.400927 194.268231 
L 197.540427 193.815353 
L 197.915809 192.581001 
L 198.108573 192.21513 
L 198.341918 191.943817 
L 198.590482 191.882489 
L 198.768027 191.097481 
L 199.1079 188.072805 
L 199.741991 180.847853 
L 199.977873 174.796824 
L 200.107227 164.861544 
L 200.165564 140.625217 
L 200.206145 36.871898 
L 200.284773 123.200478 
L 200.434418 182.036475 
L 200.627182 193.909891 
L 200.825018 195.504766 
L 200.857991 195.530676 
L 200.898573 195.408747 
L 201.246055 193.106694 
L 201.641727 189.243483 
L 202.022182 182.608422 
L 202.270745 174.286613 
L 202.387418 161.877771 
L 202.433073 127.819934 
L 202.466045 34.462398 
L 202.544673 119.108042 
L 202.696855 184.272302 
L 202.884545 196.108232 
L 203.064627 197.208507 
L 203.158473 197.251771 
L 203.199055 197.204331 
L 203.427327 196.654769 
L 203.883873 194.471603 
L 204.307445 190.243529 
L 204.817255 184.475905 
L 205.136836 178.904172 
L 205.314382 171.228418 
L 205.405691 156.492376 
L 205.4412 104.94612 
L 205.466564 35.879551 
L 205.547727 124.350902 
L 205.697373 183.903778 
L 205.882527 194.818286 
L 206.062609 195.870429 
L 206.113336 195.862434 
L 206.1387 195.796936 
L 206.290882 194.808671 
L 206.607927 191.501378 
L 207.6732 177.845614 
L 207.850745 170.632501 
L 207.944591 156.441343 
L 207.982636 103.521552 
L 208.010536 37.560136 
L 208.089164 125.051863 
L 208.238809 181.073013 
L 208.436645 193.397709 
L 208.664918 195.730734 
L 208.921091 196.500309 
L 209.017473 196.422649 
L 209.134145 196.031112 
L 209.5704 193.14114 
L 209.775845 189.543766 
L 210.143618 177.668897 
L 210.280582 165.457516 
L 210.333845 133.97715 
L 210.366818 31.191287 
L 210.447982 115.635546 
L 210.6027 188.116532 
L 210.785318 199.523149 
L 210.973009 200.737722 
L 211.087145 200.77125 
L 211.1049 200.735016 
L 211.221573 199.877195 
L 212.302064 189.659684 
L 212.758609 183.016053 
L 213.068045 176.231786 
L 213.212618 167.277693 
L 213.2811 147.273597 
L 213.326755 36.916173 
L 213.407918 127.903394 
L 213.555027 184.088836 
L 213.745255 195.783353 
L 213.932945 197.177489 
L 213.998891 197.074972 
L 214.168827 196.200307 
L 214.805455 191.440348 
L 215.627236 182.744447 
L 215.852973 176.659856 
L 215.989936 165.959633 
L 216.048273 140.592078 
L 216.086318 33.739117 
L 216.167482 119.854852 
L 216.319664 184.462778 
L 216.504818 195.360265 
L 216.679827 196.203756 
L 216.722945 196.198974 
L 216.760991 196.130751 
L 217.230218 194.758502 
L 217.554873 193.610186 
L 217.813582 193.317049 
L 217.907427 193.196366 
L 218.036782 192.092244 
L 218.2752 187.818382 
L 218.566882 178.163151 
L 218.701309 165.937072 
L 218.754573 133.637652 
L 218.787545 30.232217 
L 218.871245 118.185849 
L 219.025964 188.675824 
L 219.200973 198.28548 
L 219.228873 198.34173 
L 219.287209 198.166571 
L 219.878182 194.593739 
L 220.360091 188.176752 
L 220.877509 178.699073 
L 221.052518 170.190055 
L 221.136218 153.460906 
L 221.169191 79.800017 
L 221.192018 35.308447 
L 221.270645 122.469224 
L 221.420291 183.669134 
L 221.610518 195.248656 
L 221.843864 197.497434 
L 222.188809 198.714928 
L 222.3765 198.781415 
L 222.625064 198.889678 
L 222.863482 199.308723 
L 223.233791 200.49336 
L 223.566055 201.334626 
L 223.850127 202.123383 
L 225.255273 206.747543 
L 225.455645 207.187516 
L 225.8361 208.701128 
L 226.079591 209.289472 
L 226.424536 209.398189 
L 226.675636 210.113491 
L 227.335091 212.896869 
L 227.664818 213.844848 
L 227.824609 213.793489 
L 227.9565 213.356566 
L 228.344564 212.353773 
L 228.359782 212.359963 
L 228.506891 212.562379 
L 228.900027 213.173997 
L 228.912709 213.165323 
L 229.031918 212.89467 
L 229.3794 212.237714 
L 229.569627 212.127008 
L 229.572164 212.12853 
L 229.729418 212.355028 
L 230.056609 213.07727 
L 230.107336 212.925217 
L 230.284882 211.556018 
L 230.713527 208.305563 
L 230.954482 208.09733 
L 231.093982 208.156957 
L 231.279136 208.59075 
L 231.679882 210.244494 
L 231.9462 210.961321 
L 232.387527 210.9854 
L 232.570145 210.427255 
L 232.747691 210.235598 
L 232.760373 210.241578 
L 232.902409 210.451585 
L 232.970891 210.544327 
L 233.029227 210.465437 
L 233.2854 210.190207 
L 233.295545 210.196164 
L 233.447727 210.430932 
L 233.749555 211.413714 
L 234.064064 212.127594 
L 234.464809 213.33958 
L 234.700691 213.794043 
L 234.705764 213.792413 
L 234.794536 213.632019 
L 235.256155 212.738148 
L 235.717773 212.988675 
L 236.052573 213.470028 
L 236.453318 213.407041 
L 236.691736 213.915558 
L 237.074727 214.646724 
L 237.351191 215.151606 
L 237.921873 216.833292 
L 238.941491 219.631714 
L 239.152009 219.842804 
L 239.433545 219.698665 
L 239.6745 219.026557 
L 239.938282 218.394492 
L 240.202064 218.116242 
L 240.412582 218.00591 
L 240.732164 218.021123 
L 241.249582 217.440063 
L 241.307918 217.503209 
L 241.708664 217.995383 
L 241.744173 217.900708 
L 242.155064 216.721975 
L 242.325 216.674881 
L 242.507618 216.949211 
L 242.936264 218.116073 
L 243.027573 218.26907 
L 243.088445 218.225587 
L 243.291355 218.196143 
L 244.090309 218.938042 
L 245.191091 221.000765 
L 245.442191 221.08671 
L 245.815036 221.453665 
L 245.888591 221.302675 
L 246.170127 220.90156 
L 246.357818 220.994914 
L 246.723055 221.505382 
L 246.8727 221.655232 
L 246.918355 221.613072 
L 247.281055 221.359337 
L 247.420555 221.290219 
L 247.605709 220.607931 
L 248.041964 218.889751 
L 248.341255 217.763909 
L 248.632936 216.447732 
L 248.772436 216.418959 
L 248.785118 216.42952 
L 249.122455 216.590007 
L 249.267027 216.726084 
L 249.535882 217.387221 
L 251.159155 221.913626 
L 251.275827 222.095853 
L 251.321482 221.996995 
L 251.453373 221.074301 
L 251.793245 218.854983 
L 251.986009 218.659939 
L 252.150873 218.821066 
L 252.199064 218.862732 
L 252.252327 218.779941 
L 252.498355 218.535808 
L 252.665755 218.72247 
L 253.028455 219.560901 
L 253.715809 221.240074 
L 253.761464 221.17927 
L 254.068364 220.814273 
L 254.205327 220.739046 
L 254.502082 220.506644 
L 254.8521 220.482791 
L 255.072764 220.419943 
L 255.476045 220.533289 
L 255.4938 220.492711 
L 255.846355 219.946372 
L 255.950345 219.484775 
L 256.318118 217.929552 
L 256.477909 217.916145 
L 256.647845 217.913537 
L 257.066345 217.445027 
L 257.314909 217.129404 
L 257.464555 217.269937 
L 257.746091 217.927967 
L 258.669327 220.218226 
L 258.742882 220.193185 
L 258.765709 220.151784 
L 259.382045 219.130462 
L 259.546909 219.238511 
L 259.683873 219.18255 
L 259.800545 218.960593 
L 260.203827 218.04926 
L 260.2926 217.748562 
L 260.8227 215.677049 
L 261.139745 215.546768 
L 261.231055 215.50991 
L 261.246273 215.476902 
L 261.406064 214.801015 
L 261.748473 213.419173 
L 261.862609 213.523514 
L 262.093418 213.956875 
L 262.149218 213.810713 
L 262.595618 211.211643 
L 262.641273 211.240719 
L 262.790918 211.568633 
L 262.912664 211.569813 
L 263.034409 211.658002 
L 263.2221 212.185423 
L 263.719227 214.470232 
L 264.662755 218.492234 
L 264.934145 219.047464 
L 265.1193 219.211836 
L 265.164955 219.112471 
L 265.449027 218.640006 
L 265.923327 218.594528 
L 266.275882 218.538092 
L 266.516836 218.927861 
L 267.244773 220.499867 
L 267.336082 220.401732 
L 268.064018 219.396116 
L 268.241564 219.531281 
L 268.426718 219.77576 
L 268.490127 219.677252 
L 268.9416 219.041094 
L 269.022764 218.887857 
L 269.306836 218.302249 
L 269.469164 218.415921 
L 270.011945 218.91508 
L 270.290945 219.23402 
L 270.481173 219.30002 
L 270.8388 219.741854 
L 270.912355 219.584561 
L 271.488109 218.147217 
L 271.528691 218.169186 
L 271.7316 218.454611 
L 272.208436 219.628272 
L 272.403736 219.972027 
L 272.446855 219.947638 
L 273.055582 219.667334 
L 273.367555 220.244028 
L 274.059982 221.507371 
L 274.394782 221.449677 
L 274.732118 221.131346 
L 274.945173 221.258331 
L 275.356064 221.520165 
L 275.602091 221.48435 
L 275.645209 221.457632 
L 275.670573 221.398145 
L 275.964791 220.932306 
L 276.137264 221.049321 
L 276.492355 221.648607 
L 276.685118 221.921415 
L 276.735845 221.88016 
L 277.479 221.275549 
L 277.5906 221.348919 
L 277.623573 221.250522 
L 277.849309 219.749161 
L 278.1207 218.104063 
L 278.516373 217.594861 
L 278.795373 217.32405 
L 278.950091 217.35439 
L 279.163145 217.735531 
L 279.929127 218.891033 
L 280.322264 219.055204 
L 280.497273 219.080674 
L 280.720473 219.425425 
L 280.839682 219.598374 
L 280.900555 219.543492 
L 281.118682 219.473988 
L 281.313982 219.728442 
L 281.783209 220.830014 
L 281.912564 221.033082 
L 281.948073 220.947767 
L 282.356427 219.760279 
L 282.513682 219.887854 
L 282.8358 220.529969 
L 282.916964 220.656766 
L 282.9753 220.57941 
L 283.231473 220.339134 
L 283.573882 220.352075 
L 283.776791 220.252243 
L 283.972091 220.468097 
L 284.055791 220.545632 
L 284.103982 220.474083 
L 284.798945 219.168354 
L 285.143891 219.335235 
L 285.336655 219.556862 
L 285.4026 219.47553 
L 285.567464 219.073764 
L 285.912409 217.860514 
L 286.054445 217.900161 
L 286.166045 218.02159 
L 286.224382 217.921252 
L 286.439973 217.722398 
L 286.442509 217.723709 
L 286.599764 217.933228 
L 286.952318 218.884779 
L 287.142545 219.270968 
L 287.185664 219.250081 
L 287.378427 219.270233 
L 287.601627 219.623491 
L 288.273764 220.772243 
L 288.486818 220.903085 
L 288.669436 221.067958 
L 288.720164 221.000568 
L 289.011845 220.741315 
L 289.295918 220.70477 
L 289.3923 220.544021 
L 289.9782 218.040882 
L 290.186182 217.683966 
L 290.363727 217.600022 
L 290.822809 217.264443 
L 290.972455 217.446665 
L 291.279355 218.279206 
L 291.411245 218.619123 
L 291.479727 218.554121 
L 291.667418 218.503482 
L 291.850036 218.789535 
L 292.073236 219.011763 
L 292.271073 219.071963 
L 292.504418 219.476125 
L 292.603336 219.605062 
L 292.659136 219.556848 
L 292.869655 219.491176 
L 293.064955 219.768574 
L 293.595055 221.057674 
L 294.416836 222.82183 
L 294.865773 223.380167 
L 295.073755 223.143339 
L 295.492255 222.384907 
L 296.235409 222.158809 
L 296.412955 220.615653 
L 296.684345 218.905605 
L 296.846673 218.775559 
L 296.859355 218.782042 
L 297.026755 218.754725 
L 297.488373 218.173298 
L 297.858682 217.433575 
L 298.287327 216.886253 
L 298.343127 216.944827 
L 298.558718 217.432375 
L 299.076136 219.047202 
L 299.180127 218.902398 
L 299.443909 218.654355 
L 299.613845 218.809778 
L 299.933427 219.488691 
L 299.971473 219.536885 
L 300.034882 219.444265 
L 300.1617 218.868013 
L 300.397582 218.280286 
L 300.532009 218.349993 
L 300.765355 218.82111 
L 301.320818 219.935683 
L 301.526264 220.006641 
L 301.792582 220.424894 
L 302.221227 221.098211 
L 302.246591 221.084656 
L 302.500227 221.068862 
L 302.619436 221.110702 
L 302.654945 221.034855 
L 303.192655 219.992187 
L 303.390491 219.877169 
L 303.727827 219.891132 
L 303.948491 219.764855 
L 304.136182 219.957161 
L 304.547073 220.795928 
L 305.307982 222.284344 
L 305.320664 222.277578 
L 305.444945 222.072534 
L 305.817791 221.37215 
L 306.008018 221.423497 
L 306.314918 221.804824 
L 306.611673 222.255539 
L 306.667473 222.150164 
L 307.222936 220.365543 
L 307.486718 219.695526 
L 307.649045 219.717533 
L 307.879855 220.059604 
L 308.597645 221.710367 
L 309.399136 223.240345 
L 309.756764 223.657348 
L 309.782127 223.631375 
L 309.878509 223.275452 
L 310.220918 222.109649 
L 310.664782 221.370771 
L 311.156836 218.810627 
L 311.689473 218.58147 
L 311.694545 218.589387 
L 311.965936 219.228334 
L 312.321027 219.908812 
L 312.501109 219.887223 
L 312.503645 219.882155 
L 312.815618 218.999944 
L 313.092082 218.100532 
L 313.234118 218.135407 
L 313.444636 218.5216 
L 313.556236 218.745007 
L 313.596818 218.615997 
L 313.939227 217.453253 
L 314.068582 217.566312 
L 314.322218 218.189048 
L 314.963918 219.776368 
L 315.169364 219.861579 
L 315.423 220.208619 
L 315.509236 220.063805 
L 315.722291 219.905616 
L 315.902373 220.099559 
L 316.044409 220.329483 
L 316.102745 220.221266 
L 316.645527 218.600177 
L 316.8738 218.094892 
L 317.0133 218.171151 
L 317.043736 218.185491 
L 317.091927 218.096486 
L 317.335418 217.79312 
L 317.337955 217.794197 
L 317.492673 217.985343 
L 317.830009 218.861365 
L 318.963764 221.893305 
L 319.159064 222.04407 
L 319.222473 221.90596 
L 320.008745 218.733398 
L 320.056936 218.7581 
L 320.247164 219.044279 
L 320.607327 219.535727 
L 320.873645 219.856386 
L 321.398673 220.967671 
L 321.583827 221.272122 
L 321.634555 221.22858 
L 321.936382 221.049386 
L 322.157045 221.263322 
L 322.263573 221.3816 
L 322.3143 221.299519 
L 322.836791 219.920309 
L 323.2629 217.831994 
L 323.410009 217.839866 
L 323.607845 218.18779 
L 323.815827 218.399909 
L 324.094827 218.488191 
L 324.338318 218.715815 
L 324.493036 218.907499 
L 324.553909 218.843492 
L 324.772036 218.750206 
L 324.957191 218.982325 
L 325.814482 220.368805 
L 325.834773 220.355609 
L 326.161964 220.248116 
L 326.395309 220.539931 
L 326.770691 221.071727 
L 326.818882 221.039572 
L 327.049691 221.013666 
L 327.506236 221.150097 
L 327.724364 221.223935 
L 328.043945 221.63149 
L 328.472591 222.100756 
L 328.827682 222.199701 
L 328.924064 222.177063 
L 328.941818 222.151244 
L 329.5962 220.919461 
L 329.862518 220.259818 
L 330.024845 220.29097 
L 330.303845 220.64102 
L 330.395155 220.47305 
L 330.608209 220.307708 
L 330.785755 220.484565 
L 331.1865 221.297922 
L 331.361509 221.500519 
L 331.384336 221.4741 
L 331.478182 221.051994 
L 331.998136 218.341067 
L 332.223873 217.952013 
L 332.365909 218.052764 
L 332.680418 218.301222 
L 332.855427 218.415956 
L 333.114136 218.9367 
L 333.233345 219.215146 
L 333.286609 219.073866 
L 333.616336 218.202424 
L 333.755836 218.303653 
L 333.999327 218.615587 
L 334.072882 218.562756 
L 334.232673 218.603154 
L 334.412755 218.76352 
L 334.453336 218.680633 
L 334.922564 217.324358 
L 334.985973 217.368006 
L 335.2878 217.586313 
L 335.3157 217.553745 
L 335.642891 217.284189 
L 335.904136 217.338937 
L 336.069 217.398662 
L 336.282055 217.805861 
L 336.555982 218.442046 
L 336.632073 218.400842 
L 337.048036 218.347665 
L 337.139345 218.22641 
L 337.316891 217.649855 
L 337.697345 216.359048 
L 337.829236 216.490783 
L 338.093018 217.16861 
L 338.800664 219.421627 
L 338.897045 219.325118 
L 339.079664 219.293242 
L 339.280036 219.578553 
L 339.873545 220.982029 
L 340.013045 221.241782 
L 340.073918 221.176324 
L 340.611627 220.63836 
L 340.761273 220.682586 
L 340.7841 220.629934 
L 341.225427 219.54682 
L 341.238109 219.551455 
L 341.524718 219.55573 
L 341.725091 219.546104 
L 341.856982 219.486248 
L 342.113155 219.407085 
L 342.326209 219.635837 
L 342.762464 220.526092 
L 343.325536 221.710851 
L 343.373727 221.640234 
L 343.771936 220.542094 
L 344.139709 219.440011 
L 344.286818 219.527062 
L 344.563282 220.040995 
L 344.806773 220.335402 
L 344.811845 220.332838 
L 344.946273 220.122973 
L 345.189764 219.909094 
L 345.3039 219.651836 
L 345.537245 219.342087 
L 345.697036 219.473333 
L 346.036909 220.092273 
L 346.102855 219.86354 
L 346.331127 217.884214 
L 346.671 215.503134 
L 346.820645 215.372874 
L 346.840936 215.384346 
L 346.998191 215.632959 
L 347.353282 216.728468 
L 347.726127 217.634956 
L 347.908745 217.718268 
L 348.124336 217.738063 
L 348.337391 218.071852 
L 348.837055 219.403327 
L 349.075473 219.737141 
L 349.382373 220.064803 
L 349.912473 221.108002 
L 350.356336 221.853616 
L 350.3817 221.837671 
L 350.736791 221.70563 
L 350.878827 221.576794 
L 351.157827 221.408456 
L 351.378491 221.570746 
L 351.857864 222.292081 
L 352.169836 222.728234 
L 352.218027 222.673381 
L 352.6137 221.870866 
L 352.743055 221.210413 
L 353.219891 218.861374 
L 353.359391 218.899196 
L 353.577518 219.297155 
L 354.325745 220.789388 
L 354.7062 220.712428 
L 354.904036 220.747114 
L 355.162745 221.088443 
L 355.4037 221.282621 
L 355.659873 221.321504 
L 355.951555 221.686228 
L 356.050473 221.681006 
L 356.0733 221.659481 
L 356.385273 221.500285 
L 356.638909 221.600898 
L 356.674418 221.498366 
L 356.935664 221.064046 
L 357.095455 220.785593 
L 357.361773 220.541947 
L 357.617945 220.493857 
L 357.843682 220.735044 
L 358.3332 221.686497 
L 359.101718 223.114537 
L 359.122009 223.090872 
L 359.264045 222.622633 
L 359.426373 220.817575 
L 359.725664 218.370784 
L 360.042709 217.053179 
L 360.177136 217.077408 
L 360.367364 217.462127 
L 360.877173 219.171294 
L 361.427564 220.862874 
L 361.463073 220.834563 
L 361.643155 220.43425 
L 361.914545 219.964018 
L 362.0718 220.056995 
L 362.358409 220.571688 
L 362.822564 221.598104 
L 362.893582 221.478022 
L 363.357736 220.724156 
L 363.497236 220.417558 
L 363.915736 219.231058 
L 364.072991 219.381859 
L 364.402718 220.100389 
L 364.552364 220.29861 
L 364.587873 220.270702 
L 365.016518 219.948205 
L 365.2524 220.295774 
L 365.457845 220.700847 
L 365.518718 220.579249 
L 365.795182 220.135503 
L 365.952436 220.257038 
L 367.225691 221.802166 
L 367.601073 221.848459 
L 367.940945 222.266078 
L 368.273209 222.716503 
L 368.326473 222.644308 
L 368.625764 222.336217 
L 368.762727 222.249968 
L 369.292827 220.776356 
L 369.302973 220.779836 
L 369.490664 220.972826 
L 369.734155 221.28469 
L 369.779809 221.221123 
L 370.183091 220.672077 
L 370.393609 220.619632 
L 370.644709 220.549406 
L 371.096182 220.655819 
L 371.507073 220.444463 
L 371.775927 220.212475 
L 371.910355 220.144621 
L 372.6459 218.750384 
L 372.950264 218.568896 
L 373.533627 216.670487 
L 373.551382 216.677283 
L 373.581818 216.698593 
L 373.581818 216.698593 
" clip-path="url(#pa576c85678)" style="fill: none; stroke: #ff0000; stroke-width: 1.5; stroke-linecap: square"/>
   </g>
   <g id="line2d_18">
    <path d="M 322.854545 213.171429 
L 373.480364 213.171429 
L 373.480364 213.171429 
" clip-path="url(#pa576c85678)" style="fill: none; stroke: #000000; stroke-width: 1.5; stroke-linecap: square"/>
   </g>
   <g id="line2d_19">
    <path d="M 322.854545 189.874286 
L 322.854545 188.321143 
L 322.854545 186.768 
L 322.854545 185.214857 
L 322.854545 183.661714 
L 322.854545 182.108571 
L 322.854545 180.555429 
L 322.854545 179.002286 
L 322.854545 177.449143 
L 322.854545 175.896 
L 322.854545 174.342857 
L 322.854545 172.789714 
L 322.854545 171.236571 
L 322.854545 169.683429 
L 322.854545 168.130286 
L 322.854545 166.577143 
L 322.854545 165.024 
L 322.854545 163.470857 
L 322.854545 161.917714 
L 322.854545 160.364571 
" clip-path="url(#pa576c85678)" style="fill: none; stroke: #000000; stroke-width: 1.5; stroke-linecap: square"/>
   </g>
   <g id="patch_3">
    <path d="M 54 252 
L 54 34.56 
" style="fill: none; stroke: #000000; stroke-width: 0.8; stroke-linejoin: miter; stroke-linecap: square"/>
   </g>
   <g id="patch_4">
    <path d="M 54 252 
L 388.8 252 
" style="fill: none; stroke: #000000; stroke-width: 0.8; stroke-linejoin: miter; stroke-linecap: square"/>
   </g>
   <g id="text_18">
    <!-- 500 ms -->
    <g transform="translate(322.854545 211.618286)scale(0.1 -0.1)">
     <use xlink:href="#DejaVuSans-35"/>
     <use xlink:href="#DejaVuSans-30" x="63.623047"/>
     <use xlink:href="#DejaVuSans-30" x="127.246094"/>
     <use xlink:href="#DejaVuSans-20" x="190.869141"/>
     <use xlink:href="#DejaVuSans-6d" x="222.65625"/>
     <use xlink:href="#DejaVuSans-73" x="320.068359"/>
    </g>
   </g>
   <g id="text_19">
    <!-- 20 mV -->
    <g transform="translate(327.927273 158.811429)scale(0.1 -0.1)">
     <use xlink:href="#DejaVuSans-32"/>
     <use xlink:href="#DejaVuSans-30" x="63.623047"/>
     <use xlink:href="#DejaVuSans-20" x="127.246094"/>
     <use xlink:href="#DejaVuSans-6d" x="159.033203"/>
     <use xlink:href="#DejaVuSans-56" x="256.445312"/>
    </g>
   </g>
  </g>
 </g>
 <defs>
  <clipPath id="pa576c85678">
   <rect x="54" y="34.56" width="334.8" height="217.44"/>
  </clipPath>
 </defs>
</svg>
