<?xml version="1.0" encoding="utf-8" standalone="no"?>
<!DOCTYPE svg PUBLIC "-//W3C//DTD SVG 1.1//EN"
  "http://www.w3.org/Graphics/SVG/1.1/DTD/svg11.dtd">
<svg height="288pt" version="1.1" viewBox="0 0 432 288" width="432pt" xmlns="http://www.w3.org/2000/svg" xmlns:xlink="http://www.w3.org/1999/xlink">
 <metadata>
  <rdf:RDF xmlns:cc="http://creativecommons.org/ns#" xmlns:dc="http://purl.org/dc/elements/1.1/" xmlns:rdf="http://www.w3.org/1999/02/22-rdf-syntax-ns#">
   <cc:Work>
    <dc:type rdf:resource="http://purl.org/dc/dcmitype/StillImage"/>
    <dc:date>2021-09-03T10:36:24.566835</dc:date>
    <dc:format>image/svg+xml</dc:format>
    <dc:creator>
     <cc:Agent>
      <dc:title>Matplotlib v3.4.1, https://matplotlib.org/</dc:title>
     </cc:Agent>
    </dc:creator>
   </cc:Work>
  </rdf:RDF>
 </metadata>
 <defs>
  <style type="text/css">*{stroke-linecap:butt;stroke-linejoin:round;}</style>
 </defs>
 <g id="figure_1">
  <g id="patch_1">
   <path d="M 0 288 
L 432 288 
L 432 0 
L 0 0 
z
" style="fill:none;"/>
  </g>
  <g id="axes_1">
   <g id="patch_2">
    <path d="M 54 252 
L 388.8 252 
L 388.8 34.56 
L 54 34.56 
z
" style="fill:#ffffff;"/>
   </g>
   <g id="matplotlib.axis_1">
    <g id="xtick_1">
     <g id="line2d_1">
      <defs>
       <path d="M 0 0 
L 0 3.5 
" id="m53e9f64ef9" style="stroke:#000000;stroke-width:0.8;"/>
      </defs>
      <g>
       <use style="stroke:#000000;stroke-width:0.8;" x="69.218182" xlink:href="#m53e9f64ef9" y="252"/>
      </g>
     </g>
     <g id="text_1">
      <!-- 0 -->
      <g transform="translate(66.036932 266.598437)scale(0.1 -0.1)">
       <defs>
        <path d="M 2034 4250 
Q 1547 4250 1301 3770 
Q 1056 3291 1056 2328 
Q 1056 1369 1301 889 
Q 1547 409 2034 409 
Q 2525 409 2770 889 
Q 3016 1369 3016 2328 
Q 3016 3291 2770 3770 
Q 2525 4250 2034 4250 
z
M 2034 4750 
Q 2819 4750 3233 4129 
Q 3647 3509 3647 2328 
Q 3647 1150 3233 529 
Q 2819 -91 2034 -91 
Q 1250 -91 836 529 
Q 422 1150 422 2328 
Q 422 3509 836 4129 
Q 1250 4750 2034 4750 
z
" id="DejaVuSans-30" transform="scale(0.015625)"/>
       </defs>
       <use xlink:href="#DejaVuSans-30"/>
      </g>
     </g>
    </g>
    <g id="xtick_2">
     <g id="line2d_2">
      <g>
       <use style="stroke:#000000;stroke-width:0.8;" x="119.937001" xlink:href="#m53e9f64ef9" y="252"/>
      </g>
     </g>
     <g id="text_2">
      <!-- 500 -->
      <g transform="translate(110.393251 266.598437)scale(0.1 -0.1)">
       <defs>
        <path d="M 691 4666 
L 3169 4666 
L 3169 4134 
L 1269 4134 
L 1269 2991 
Q 1406 3038 1543 3061 
Q 1681 3084 1819 3084 
Q 2600 3084 3056 2656 
Q 3513 2228 3513 1497 
Q 3513 744 3044 326 
Q 2575 -91 1722 -91 
Q 1428 -91 1123 -41 
Q 819 9 494 109 
L 494 744 
Q 775 591 1075 516 
Q 1375 441 1709 441 
Q 2250 441 2565 725 
Q 2881 1009 2881 1497 
Q 2881 1984 2565 2268 
Q 2250 2553 1709 2553 
Q 1456 2553 1204 2497 
Q 953 2441 691 2322 
L 691 4666 
z
" id="DejaVuSans-35" transform="scale(0.015625)"/>
       </defs>
       <use xlink:href="#DejaVuSans-35"/>
       <use x="63.623047" xlink:href="#DejaVuSans-30"/>
       <use x="127.246094" xlink:href="#DejaVuSans-30"/>
      </g>
     </g>
    </g>
    <g id="xtick_3">
     <g id="line2d_3">
      <g>
       <use style="stroke:#000000;stroke-width:0.8;" x="170.655821" xlink:href="#m53e9f64ef9" y="252"/>
      </g>
     </g>
     <g id="text_3">
      <!-- 1000 -->
      <g transform="translate(157.930821 266.598437)scale(0.1 -0.1)">
       <defs>
        <path d="M 794 531 
L 1825 531 
L 1825 4091 
L 703 3866 
L 703 4441 
L 1819 4666 
L 2450 4666 
L 2450 531 
L 3481 531 
L 3481 0 
L 794 0 
L 794 531 
z
" id="DejaVuSans-31" transform="scale(0.015625)"/>
       </defs>
       <use xlink:href="#DejaVuSans-31"/>
       <use x="63.623047" xlink:href="#DejaVuSans-30"/>
       <use x="127.246094" xlink:href="#DejaVuSans-30"/>
       <use x="190.869141" xlink:href="#DejaVuSans-30"/>
      </g>
     </g>
    </g>
    <g id="xtick_4">
     <g id="line2d_4">
      <g>
       <use style="stroke:#000000;stroke-width:0.8;" x="221.374641" xlink:href="#m53e9f64ef9" y="252"/>
      </g>
     </g>
     <g id="text_4">
      <!-- 1500 -->
      <g transform="translate(208.649641 266.598437)scale(0.1 -0.1)">
       <use xlink:href="#DejaVuSans-31"/>
       <use x="63.623047" xlink:href="#DejaVuSans-35"/>
       <use x="127.246094" xlink:href="#DejaVuSans-30"/>
       <use x="190.869141" xlink:href="#DejaVuSans-30"/>
      </g>
     </g>
    </g>
    <g id="xtick_5">
     <g id="line2d_5">
      <g>
       <use style="stroke:#000000;stroke-width:0.8;" x="272.09346" xlink:href="#m53e9f64ef9" y="252"/>
      </g>
     </g>
     <g id="text_5">
      <!-- 2000 -->
      <g transform="translate(259.36846 266.598437)scale(0.1 -0.1)">
       <defs>
        <path d="M 1228 531 
L 3431 531 
L 3431 0 
L 469 0 
L 469 531 
Q 828 903 1448 1529 
Q 2069 2156 2228 2338 
Q 2531 2678 2651 2914 
Q 2772 3150 2772 3378 
Q 2772 3750 2511 3984 
Q 2250 4219 1831 4219 
Q 1534 4219 1204 4116 
Q 875 4013 500 3803 
L 500 4441 
Q 881 4594 1212 4672 
Q 1544 4750 1819 4750 
Q 2544 4750 2975 4387 
Q 3406 4025 3406 3419 
Q 3406 3131 3298 2873 
Q 3191 2616 2906 2266 
Q 2828 2175 2409 1742 
Q 1991 1309 1228 531 
z
" id="DejaVuSans-32" transform="scale(0.015625)"/>
       </defs>
       <use xlink:href="#DejaVuSans-32"/>
       <use x="63.623047" xlink:href="#DejaVuSans-30"/>
       <use x="127.246094" xlink:href="#DejaVuSans-30"/>
       <use x="190.869141" xlink:href="#DejaVuSans-30"/>
      </g>
     </g>
    </g>
    <g id="xtick_6">
     <g id="line2d_6">
      <g>
       <use style="stroke:#000000;stroke-width:0.8;" x="322.81228" xlink:href="#m53e9f64ef9" y="252"/>
      </g>
     </g>
     <g id="text_6">
      <!-- 2500 -->
      <g transform="translate(310.08728 266.598437)scale(0.1 -0.1)">
       <use xlink:href="#DejaVuSans-32"/>
       <use x="63.623047" xlink:href="#DejaVuSans-35"/>
       <use x="127.246094" xlink:href="#DejaVuSans-30"/>
       <use x="190.869141" xlink:href="#DejaVuSans-30"/>
      </g>
     </g>
    </g>
    <g id="xtick_7">
     <g id="line2d_7">
      <g>
       <use style="stroke:#000000;stroke-width:0.8;" x="373.531099" xlink:href="#m53e9f64ef9" y="252"/>
      </g>
     </g>
     <g id="text_7">
      <!-- 3000 -->
      <g transform="translate(360.806099 266.598437)scale(0.1 -0.1)">
       <defs>
        <path d="M 2597 2516 
Q 3050 2419 3304 2112 
Q 3559 1806 3559 1356 
Q 3559 666 3084 287 
Q 2609 -91 1734 -91 
Q 1441 -91 1130 -33 
Q 819 25 488 141 
L 488 750 
Q 750 597 1062 519 
Q 1375 441 1716 441 
Q 2309 441 2620 675 
Q 2931 909 2931 1356 
Q 2931 1769 2642 2001 
Q 2353 2234 1838 2234 
L 1294 2234 
L 1294 2753 
L 1863 2753 
Q 2328 2753 2575 2939 
Q 2822 3125 2822 3475 
Q 2822 3834 2567 4026 
Q 2313 4219 1838 4219 
Q 1578 4219 1281 4162 
Q 984 4106 628 3988 
L 628 4550 
Q 988 4650 1302 4700 
Q 1616 4750 1894 4750 
Q 2613 4750 3031 4423 
Q 3450 4097 3450 3541 
Q 3450 3153 3228 2886 
Q 3006 2619 2597 2516 
z
" id="DejaVuSans-33" transform="scale(0.015625)"/>
       </defs>
       <use xlink:href="#DejaVuSans-33"/>
       <use x="63.623047" xlink:href="#DejaVuSans-30"/>
       <use x="127.246094" xlink:href="#DejaVuSans-30"/>
       <use x="190.869141" xlink:href="#DejaVuSans-30"/>
      </g>
     </g>
    </g>
    <g id="text_8">
     <!-- Time(ms) -->
     <g transform="translate(197.789844 280.276563)scale(0.1 -0.1)">
      <defs>
       <path d="M -19 4666 
L 3928 4666 
L 3928 4134 
L 2272 4134 
L 2272 0 
L 1638 0 
L 1638 4134 
L -19 4134 
L -19 4666 
z
" id="DejaVuSans-54" transform="scale(0.015625)"/>
       <path d="M 603 3500 
L 1178 3500 
L 1178 0 
L 603 0 
L 603 3500 
z
M 603 4863 
L 1178 4863 
L 1178 4134 
L 603 4134 
L 603 4863 
z
" id="DejaVuSans-69" transform="scale(0.015625)"/>
       <path d="M 3328 2828 
Q 3544 3216 3844 3400 
Q 4144 3584 4550 3584 
Q 5097 3584 5394 3201 
Q 5691 2819 5691 2113 
L 5691 0 
L 5113 0 
L 5113 2094 
Q 5113 2597 4934 2840 
Q 4756 3084 4391 3084 
Q 3944 3084 3684 2787 
Q 3425 2491 3425 1978 
L 3425 0 
L 2847 0 
L 2847 2094 
Q 2847 2600 2669 2842 
Q 2491 3084 2119 3084 
Q 1678 3084 1418 2786 
Q 1159 2488 1159 1978 
L 1159 0 
L 581 0 
L 581 3500 
L 1159 3500 
L 1159 2956 
Q 1356 3278 1631 3431 
Q 1906 3584 2284 3584 
Q 2666 3584 2933 3390 
Q 3200 3197 3328 2828 
z
" id="DejaVuSans-6d" transform="scale(0.015625)"/>
       <path d="M 3597 1894 
L 3597 1613 
L 953 1613 
Q 991 1019 1311 708 
Q 1631 397 2203 397 
Q 2534 397 2845 478 
Q 3156 559 3463 722 
L 3463 178 
Q 3153 47 2828 -22 
Q 2503 -91 2169 -91 
Q 1331 -91 842 396 
Q 353 884 353 1716 
Q 353 2575 817 3079 
Q 1281 3584 2069 3584 
Q 2775 3584 3186 3129 
Q 3597 2675 3597 1894 
z
M 3022 2063 
Q 3016 2534 2758 2815 
Q 2500 3097 2075 3097 
Q 1594 3097 1305 2825 
Q 1016 2553 972 2059 
L 3022 2063 
z
" id="DejaVuSans-65" transform="scale(0.015625)"/>
       <path d="M 1984 4856 
Q 1566 4138 1362 3434 
Q 1159 2731 1159 2009 
Q 1159 1288 1364 580 
Q 1569 -128 1984 -844 
L 1484 -844 
Q 1016 -109 783 600 
Q 550 1309 550 2009 
Q 550 2706 781 3412 
Q 1013 4119 1484 4856 
L 1984 4856 
z
" id="DejaVuSans-28" transform="scale(0.015625)"/>
       <path d="M 2834 3397 
L 2834 2853 
Q 2591 2978 2328 3040 
Q 2066 3103 1784 3103 
Q 1356 3103 1142 2972 
Q 928 2841 928 2578 
Q 928 2378 1081 2264 
Q 1234 2150 1697 2047 
L 1894 2003 
Q 2506 1872 2764 1633 
Q 3022 1394 3022 966 
Q 3022 478 2636 193 
Q 2250 -91 1575 -91 
Q 1294 -91 989 -36 
Q 684 19 347 128 
L 347 722 
Q 666 556 975 473 
Q 1284 391 1588 391 
Q 1994 391 2212 530 
Q 2431 669 2431 922 
Q 2431 1156 2273 1281 
Q 2116 1406 1581 1522 
L 1381 1569 
Q 847 1681 609 1914 
Q 372 2147 372 2553 
Q 372 3047 722 3315 
Q 1072 3584 1716 3584 
Q 2034 3584 2315 3537 
Q 2597 3491 2834 3397 
z
" id="DejaVuSans-73" transform="scale(0.015625)"/>
       <path d="M 513 4856 
L 1013 4856 
Q 1481 4119 1714 3412 
Q 1947 2706 1947 2009 
Q 1947 1309 1714 600 
Q 1481 -109 1013 -844 
L 513 -844 
Q 928 -128 1133 580 
Q 1338 1288 1338 2009 
Q 1338 2731 1133 3434 
Q 928 4138 513 4856 
z
" id="DejaVuSans-29" transform="scale(0.015625)"/>
      </defs>
      <use xlink:href="#DejaVuSans-54"/>
      <use x="57.958984" xlink:href="#DejaVuSans-69"/>
      <use x="85.742188" xlink:href="#DejaVuSans-6d"/>
      <use x="183.154297" xlink:href="#DejaVuSans-65"/>
      <use x="244.677734" xlink:href="#DejaVuSans-28"/>
      <use x="283.691406" xlink:href="#DejaVuSans-6d"/>
      <use x="381.103516" xlink:href="#DejaVuSans-73"/>
      <use x="433.203125" xlink:href="#DejaVuSans-29"/>
     </g>
    </g>
   </g>
   <g id="matplotlib.axis_2">
    <g id="ytick_1">
     <g id="line2d_8">
      <defs>
       <path d="M 0 0 
L -3.5 0 
" id="ma76aef1865" style="stroke:#000000;stroke-width:0.8;"/>
      </defs>
      <g>
       <use style="stroke:#000000;stroke-width:0.8;" x="54" xlink:href="#ma76aef1865" y="252"/>
      </g>
     </g>
     <g id="text_9">
      <!-- −100 -->
      <g transform="translate(19.532812 255.799219)scale(0.1 -0.1)">
       <defs>
        <path d="M 678 2272 
L 4684 2272 
L 4684 1741 
L 678 1741 
L 678 2272 
z
" id="DejaVuSans-2212" transform="scale(0.015625)"/>
       </defs>
       <use xlink:href="#DejaVuSans-2212"/>
       <use x="83.789062" xlink:href="#DejaVuSans-31"/>
       <use x="147.412109" xlink:href="#DejaVuSans-30"/>
       <use x="211.035156" xlink:href="#DejaVuSans-30"/>
      </g>
     </g>
    </g>
    <g id="ytick_2">
     <g id="line2d_9">
      <g>
       <use style="stroke:#000000;stroke-width:0.8;" x="54" xlink:href="#ma76aef1865" y="215.76"/>
      </g>
     </g>
     <g id="text_10">
      <!-- −95 -->
      <g transform="translate(25.895312 219.559219)scale(0.1 -0.1)">
       <defs>
        <path d="M 703 97 
L 703 672 
Q 941 559 1184 500 
Q 1428 441 1663 441 
Q 2288 441 2617 861 
Q 2947 1281 2994 2138 
Q 2813 1869 2534 1725 
Q 2256 1581 1919 1581 
Q 1219 1581 811 2004 
Q 403 2428 403 3163 
Q 403 3881 828 4315 
Q 1253 4750 1959 4750 
Q 2769 4750 3195 4129 
Q 3622 3509 3622 2328 
Q 3622 1225 3098 567 
Q 2575 -91 1691 -91 
Q 1453 -91 1209 -44 
Q 966 3 703 97 
z
M 1959 2075 
Q 2384 2075 2632 2365 
Q 2881 2656 2881 3163 
Q 2881 3666 2632 3958 
Q 2384 4250 1959 4250 
Q 1534 4250 1286 3958 
Q 1038 3666 1038 3163 
Q 1038 2656 1286 2365 
Q 1534 2075 1959 2075 
z
" id="DejaVuSans-39" transform="scale(0.015625)"/>
       </defs>
       <use xlink:href="#DejaVuSans-2212"/>
       <use x="83.789062" xlink:href="#DejaVuSans-39"/>
       <use x="147.412109" xlink:href="#DejaVuSans-35"/>
      </g>
     </g>
    </g>
    <g id="ytick_3">
     <g id="line2d_10">
      <g>
       <use style="stroke:#000000;stroke-width:0.8;" x="54" xlink:href="#ma76aef1865" y="179.52"/>
      </g>
     </g>
     <g id="text_11">
      <!-- −90 -->
      <g transform="translate(25.895312 183.319219)scale(0.1 -0.1)">
       <use xlink:href="#DejaVuSans-2212"/>
       <use x="83.789062" xlink:href="#DejaVuSans-39"/>
       <use x="147.412109" xlink:href="#DejaVuSans-30"/>
      </g>
     </g>
    </g>
    <g id="ytick_4">
     <g id="line2d_11">
      <g>
       <use style="stroke:#000000;stroke-width:0.8;" x="54" xlink:href="#ma76aef1865" y="143.28"/>
      </g>
     </g>
     <g id="text_12">
      <!-- −85 -->
      <g transform="translate(25.895312 147.079219)scale(0.1 -0.1)">
       <defs>
        <path d="M 2034 2216 
Q 1584 2216 1326 1975 
Q 1069 1734 1069 1313 
Q 1069 891 1326 650 
Q 1584 409 2034 409 
Q 2484 409 2743 651 
Q 3003 894 3003 1313 
Q 3003 1734 2745 1975 
Q 2488 2216 2034 2216 
z
M 1403 2484 
Q 997 2584 770 2862 
Q 544 3141 544 3541 
Q 544 4100 942 4425 
Q 1341 4750 2034 4750 
Q 2731 4750 3128 4425 
Q 3525 4100 3525 3541 
Q 3525 3141 3298 2862 
Q 3072 2584 2669 2484 
Q 3125 2378 3379 2068 
Q 3634 1759 3634 1313 
Q 3634 634 3220 271 
Q 2806 -91 2034 -91 
Q 1263 -91 848 271 
Q 434 634 434 1313 
Q 434 1759 690 2068 
Q 947 2378 1403 2484 
z
M 1172 3481 
Q 1172 3119 1398 2916 
Q 1625 2713 2034 2713 
Q 2441 2713 2670 2916 
Q 2900 3119 2900 3481 
Q 2900 3844 2670 4047 
Q 2441 4250 2034 4250 
Q 1625 4250 1398 4047 
Q 1172 3844 1172 3481 
z
" id="DejaVuSans-38" transform="scale(0.015625)"/>
       </defs>
       <use xlink:href="#DejaVuSans-2212"/>
       <use x="83.789062" xlink:href="#DejaVuSans-38"/>
       <use x="147.412109" xlink:href="#DejaVuSans-35"/>
      </g>
     </g>
    </g>
    <g id="ytick_5">
     <g id="line2d_12">
      <g>
       <use style="stroke:#000000;stroke-width:0.8;" x="54" xlink:href="#ma76aef1865" y="107.04"/>
      </g>
     </g>
     <g id="text_13">
      <!-- −80 -->
      <g transform="translate(25.895312 110.839219)scale(0.1 -0.1)">
       <use xlink:href="#DejaVuSans-2212"/>
       <use x="83.789062" xlink:href="#DejaVuSans-38"/>
       <use x="147.412109" xlink:href="#DejaVuSans-30"/>
      </g>
     </g>
    </g>
    <g id="ytick_6">
     <g id="line2d_13">
      <g>
       <use style="stroke:#000000;stroke-width:0.8;" x="54" xlink:href="#ma76aef1865" y="70.8"/>
      </g>
     </g>
     <g id="text_14">
      <!-- −75 -->
      <g transform="translate(25.895312 74.599219)scale(0.1 -0.1)">
       <defs>
        <path d="M 525 4666 
L 3525 4666 
L 3525 4397 
L 1831 0 
L 1172 0 
L 2766 4134 
L 525 4134 
L 525 4666 
z
" id="DejaVuSans-37" transform="scale(0.015625)"/>
       </defs>
       <use xlink:href="#DejaVuSans-2212"/>
       <use x="83.789062" xlink:href="#DejaVuSans-37"/>
       <use x="147.412109" xlink:href="#DejaVuSans-35"/>
      </g>
     </g>
    </g>
    <g id="ytick_7">
     <g id="line2d_14">
      <g>
       <use style="stroke:#000000;stroke-width:0.8;" x="54" xlink:href="#ma76aef1865" y="34.56"/>
      </g>
     </g>
     <g id="text_15">
      <!-- −70 -->
      <g transform="translate(25.895312 38.359219)scale(0.1 -0.1)">
       <use xlink:href="#DejaVuSans-2212"/>
       <use x="83.789062" xlink:href="#DejaVuSans-37"/>
       <use x="147.412109" xlink:href="#DejaVuSans-30"/>
      </g>
     </g>
    </g>
    <g id="text_16">
     <!-- Membrane potential (mV) -->
     <g transform="translate(13.453125 207.691719)rotate(-90)scale(0.1 -0.1)">
      <defs>
       <path d="M 628 4666 
L 1569 4666 
L 2759 1491 
L 3956 4666 
L 4897 4666 
L 4897 0 
L 4281 0 
L 4281 4097 
L 3078 897 
L 2444 897 
L 1241 4097 
L 1241 0 
L 628 0 
L 628 4666 
z
" id="DejaVuSans-4d" transform="scale(0.015625)"/>
       <path d="M 3116 1747 
Q 3116 2381 2855 2742 
Q 2594 3103 2138 3103 
Q 1681 3103 1420 2742 
Q 1159 2381 1159 1747 
Q 1159 1113 1420 752 
Q 1681 391 2138 391 
Q 2594 391 2855 752 
Q 3116 1113 3116 1747 
z
M 1159 2969 
Q 1341 3281 1617 3432 
Q 1894 3584 2278 3584 
Q 2916 3584 3314 3078 
Q 3713 2572 3713 1747 
Q 3713 922 3314 415 
Q 2916 -91 2278 -91 
Q 1894 -91 1617 61 
Q 1341 213 1159 525 
L 1159 0 
L 581 0 
L 581 4863 
L 1159 4863 
L 1159 2969 
z
" id="DejaVuSans-62" transform="scale(0.015625)"/>
       <path d="M 2631 2963 
Q 2534 3019 2420 3045 
Q 2306 3072 2169 3072 
Q 1681 3072 1420 2755 
Q 1159 2438 1159 1844 
L 1159 0 
L 581 0 
L 581 3500 
L 1159 3500 
L 1159 2956 
Q 1341 3275 1631 3429 
Q 1922 3584 2338 3584 
Q 2397 3584 2469 3576 
Q 2541 3569 2628 3553 
L 2631 2963 
z
" id="DejaVuSans-72" transform="scale(0.015625)"/>
       <path d="M 2194 1759 
Q 1497 1759 1228 1600 
Q 959 1441 959 1056 
Q 959 750 1161 570 
Q 1363 391 1709 391 
Q 2188 391 2477 730 
Q 2766 1069 2766 1631 
L 2766 1759 
L 2194 1759 
z
M 3341 1997 
L 3341 0 
L 2766 0 
L 2766 531 
Q 2569 213 2275 61 
Q 1981 -91 1556 -91 
Q 1019 -91 701 211 
Q 384 513 384 1019 
Q 384 1609 779 1909 
Q 1175 2209 1959 2209 
L 2766 2209 
L 2766 2266 
Q 2766 2663 2505 2880 
Q 2244 3097 1772 3097 
Q 1472 3097 1187 3025 
Q 903 2953 641 2809 
L 641 3341 
Q 956 3463 1253 3523 
Q 1550 3584 1831 3584 
Q 2591 3584 2966 3190 
Q 3341 2797 3341 1997 
z
" id="DejaVuSans-61" transform="scale(0.015625)"/>
       <path d="M 3513 2113 
L 3513 0 
L 2938 0 
L 2938 2094 
Q 2938 2591 2744 2837 
Q 2550 3084 2163 3084 
Q 1697 3084 1428 2787 
Q 1159 2491 1159 1978 
L 1159 0 
L 581 0 
L 581 3500 
L 1159 3500 
L 1159 2956 
Q 1366 3272 1645 3428 
Q 1925 3584 2291 3584 
Q 2894 3584 3203 3211 
Q 3513 2838 3513 2113 
z
" id="DejaVuSans-6e" transform="scale(0.015625)"/>
       <path id="DejaVuSans-20" transform="scale(0.015625)"/>
       <path d="M 1159 525 
L 1159 -1331 
L 581 -1331 
L 581 3500 
L 1159 3500 
L 1159 2969 
Q 1341 3281 1617 3432 
Q 1894 3584 2278 3584 
Q 2916 3584 3314 3078 
Q 3713 2572 3713 1747 
Q 3713 922 3314 415 
Q 2916 -91 2278 -91 
Q 1894 -91 1617 61 
Q 1341 213 1159 525 
z
M 3116 1747 
Q 3116 2381 2855 2742 
Q 2594 3103 2138 3103 
Q 1681 3103 1420 2742 
Q 1159 2381 1159 1747 
Q 1159 1113 1420 752 
Q 1681 391 2138 391 
Q 2594 391 2855 752 
Q 3116 1113 3116 1747 
z
" id="DejaVuSans-70" transform="scale(0.015625)"/>
       <path d="M 1959 3097 
Q 1497 3097 1228 2736 
Q 959 2375 959 1747 
Q 959 1119 1226 758 
Q 1494 397 1959 397 
Q 2419 397 2687 759 
Q 2956 1122 2956 1747 
Q 2956 2369 2687 2733 
Q 2419 3097 1959 3097 
z
M 1959 3584 
Q 2709 3584 3137 3096 
Q 3566 2609 3566 1747 
Q 3566 888 3137 398 
Q 2709 -91 1959 -91 
Q 1206 -91 779 398 
Q 353 888 353 1747 
Q 353 2609 779 3096 
Q 1206 3584 1959 3584 
z
" id="DejaVuSans-6f" transform="scale(0.015625)"/>
       <path d="M 1172 4494 
L 1172 3500 
L 2356 3500 
L 2356 3053 
L 1172 3053 
L 1172 1153 
Q 1172 725 1289 603 
Q 1406 481 1766 481 
L 2356 481 
L 2356 0 
L 1766 0 
Q 1100 0 847 248 
Q 594 497 594 1153 
L 594 3053 
L 172 3053 
L 172 3500 
L 594 3500 
L 594 4494 
L 1172 4494 
z
" id="DejaVuSans-74" transform="scale(0.015625)"/>
       <path d="M 603 4863 
L 1178 4863 
L 1178 0 
L 603 0 
L 603 4863 
z
" id="DejaVuSans-6c" transform="scale(0.015625)"/>
       <path d="M 1831 0 
L 50 4666 
L 709 4666 
L 2188 738 
L 3669 4666 
L 4325 4666 
L 2547 0 
L 1831 0 
z
" id="DejaVuSans-56" transform="scale(0.015625)"/>
      </defs>
      <use xlink:href="#DejaVuSans-4d"/>
      <use x="86.279297" xlink:href="#DejaVuSans-65"/>
      <use x="147.802734" xlink:href="#DejaVuSans-6d"/>
      <use x="245.214844" xlink:href="#DejaVuSans-62"/>
      <use x="308.691406" xlink:href="#DejaVuSans-72"/>
      <use x="349.804688" xlink:href="#DejaVuSans-61"/>
      <use x="411.083984" xlink:href="#DejaVuSans-6e"/>
      <use x="474.462891" xlink:href="#DejaVuSans-65"/>
      <use x="535.986328" xlink:href="#DejaVuSans-20"/>
      <use x="567.773438" xlink:href="#DejaVuSans-70"/>
      <use x="631.25" xlink:href="#DejaVuSans-6f"/>
      <use x="692.431641" xlink:href="#DejaVuSans-74"/>
      <use x="731.640625" xlink:href="#DejaVuSans-65"/>
      <use x="793.164062" xlink:href="#DejaVuSans-6e"/>
      <use x="856.542969" xlink:href="#DejaVuSans-74"/>
      <use x="895.751953" xlink:href="#DejaVuSans-69"/>
      <use x="923.535156" xlink:href="#DejaVuSans-61"/>
      <use x="984.814453" xlink:href="#DejaVuSans-6c"/>
      <use x="1012.597656" xlink:href="#DejaVuSans-20"/>
      <use x="1044.384766" xlink:href="#DejaVuSans-28"/>
      <use x="1083.398438" xlink:href="#DejaVuSans-6d"/>
      <use x="1180.810547" xlink:href="#DejaVuSans-56"/>
      <use x="1249.21875" xlink:href="#DejaVuSans-29"/>
     </g>
    </g>
   </g>
   <g id="line2d_15">
    <path clip-path="url(#pcfd0a4ed1c)" d="M 69.218182 128.784 
L 69.319636 122.965306 
L 69.370364 123.261024 
L 69.826909 128.978246 
L 69.877636 128.870251 
L 69.979091 127.359768 
L 70.435636 113.690765 
L 70.587818 113.226893 
L 70.74 113.882837 
L 71.095091 117.345206 
L 72.109636 127.895395 
L 72.718364 131.857877 
L 72.972 133.013208 
L 73.073455 131.548387 
L 73.327091 121.690382 
L 73.580727 115.567272 
L 73.783636 114.430786 
L 73.885091 114.570672 
L 73.986545 114.835224 
L 74.088 113.032646 
L 74.950364 83.631134 
L 75.001091 83.595619 
L 75.102545 84.06384 
L 75.356182 87.262382 
L 77.131636 116.310917 
L 77.182364 116.127542 
L 77.689636 111.863544 
L 77.791091 112.017202 
L 77.994 112.98481 
L 78.146182 113.755997 
L 78.602727 106.433342 
L 78.704182 106.613093 
L 78.907091 107.943101 
L 79.617273 115.301995 
L 80.124545 119.810251 
L 80.226 119.050661 
L 80.631818 114.436584 
L 80.733273 114.275678 
L 80.784 114.316992 
L 80.936182 114.799709 
L 81.291273 117.06181 
L 81.798545 120.779309 
L 82.001455 115.981858 
L 82.255091 109.386902 
L 82.508727 103.502251 
L 82.610182 103.008662 
L 82.660909 103.023158 
L 82.813091 103.7784 
L 83.168182 107.575627 
L 84.233455 119.54425 
L 84.588545 122.373144 
L 84.639273 122.350675 
L 85.197273 114.751872 
L 85.298727 114.917126 
L 85.552364 116.194949 
L 86.059636 119.779085 
L 86.110364 119.568168 
L 86.516182 114.071285 
L 86.972727 100.252973 
L 87.124909 99.732566 
L 87.277091 100.252973 
L 87.327818 100.223981 
L 87.48 98.841062 
L 87.733636 94.277722 
L 87.987273 91.563346 
L 88.038 91.499563 
L 88.088727 91.568419 
L 88.240909 92.407738 
L 88.545273 95.80415 
L 88.798909 98.74249 
L 89.154 94.831469 
L 89.204727 94.851038 
L 89.356909 95.635272 
L 89.661273 99.017189 
L 90.929455 114.897557 
L 91.030909 113.700187 
L 91.335273 109.402848 
L 91.487455 109.028126 
L 91.588909 109.263686 
L 91.842545 110.821282 
L 93.567273 123.825643 
L 94.226727 126.537845 
L 94.886182 128.344046 
L 95.596364 129.658109 
L 96.408 130.700371 
L 97.473273 131.679576 
L 98.335636 132.289858 
L 98.437091 131.12003 
L 98.842909 124.784554 
L 99.096545 123.640819 
L 99.248727 123.611102 
L 99.451636 124.013366 
L 99.603818 124.280818 
L 99.705273 123.988723 
L 100.009636 122.191219 
L 100.466182 112.046918 
L 100.770545 103.675478 
L 100.973455 102.720192 
L 101.074909 103.011562 
L 101.328545 104.940979 
L 102.140182 114.224218 
L 102.901091 121.51933 
L 103.560545 125.796374 
L 104.169273 128.384635 
L 104.778 130.082117 
L 104.879455 130.222003 
L 104.980909 129.921211 
L 105.234545 127.832338 
L 105.488182 122.620301 
L 106.198364 110.047195 
L 106.401273 109.0332 
L 106.502727 109.149168 
L 106.705636 110.15664 
L 106.756364 110.519765 
L 106.807091 109.956595 
L 107.263636 92.777386 
L 107.568 91.78151 
L 107.669455 89.864414 
L 107.973818 84.081235 
L 108.024545 83.965267 
L 108.075273 84.037747 
L 108.227455 85.111901 
L 108.582545 90.236962 
L 109.343455 102.104112 
L 109.698545 99.613699 
L 109.749273 99.662986 
L 109.901455 100.369666 
L 110.307273 104.028456 
L 110.408727 103.328299 
L 110.713091 100.874851 
L 110.814545 100.903118 
L 110.966727 101.614872 
L 111.321818 104.968522 
L 111.575455 107.464733 
L 111.676909 105.378034 
L 112.082727 95.607005 
L 112.437818 93.66744 
L 112.539273 93.494938 
L 112.59 93.523205 
L 112.742182 94.040712 
L 113.046545 96.360797 
L 113.604545 102.012787 
L 113.655273 101.518474 
L 114.010364 96.121613 
L 114.111818 96.087547 
L 114.264 96.086098 
L 114.466909 95.973029 
L 114.619091 96.38399 
L 114.872727 97.983624 
L 114.923455 97.750238 
L 115.38 92.204069 
L 115.481455 92.32656 
L 115.684364 93.584813 
L 116.140909 98.680157 
L 116.800364 105.707093 
L 116.901818 105.642586 
L 117.155455 105.259891 
L 117.307636 102.512174 
L 117.612 97.679208 
L 117.814909 96.889901 
L 117.916364 96.926866 
L 118.119273 97.476989 
L 118.575818 99.602827 
L 118.626545 99.396984 
L 118.778727 94.575614 
L 119.133818 84.637157 
L 119.336727 83.204952 
L 119.438182 83.190456 
L 119.590364 83.727533 
L 119.742545 84.690792 
L 119.793273 84.443635 
L 120.199091 78.977194 
L 120.249818 78.988066 
L 120.351273 79.277261 
L 120.757091 73.075147 
L 120.807818 73.145453 
L 120.96 74.155099 
L 121.315091 78.951826 
L 123.141273 106.542787 
L 123.952909 114.881611 
L 124.663091 120.018269 
L 125.322545 123.330605 
L 126.032727 125.778254 
L 126.742909 127.466314 
L 127.453091 128.686152 
L 127.503818 128.660784 
L 128.112545 117.962736 
L 128.214 118.011298 
L 128.416909 118.697683 
L 128.974909 121.943338 
L 129.634364 125.518051 
L 129.685091 125.379614 
L 130.293818 117.722102 
L 130.395273 117.764866 
L 130.598182 118.391818 
L 131.054727 120.931517 
L 131.967818 125.998594 
L 132.069273 124.131509 
L 132.373636 117.42421 
L 132.576545 116.610259 
L 132.678 116.786386 
L 132.931636 118.051886 
L 133.236 120.075528 
L 133.286727 119.783434 
L 133.743273 114.348883 
L 133.844727 114.345259 
L 133.996909 114.847546 
L 134.352 117.200971 
L 134.605636 118.906426 
L 134.656364 118.746245 
L 135.163636 115.899955 
L 135.265091 115.955765 
L 135.468 116.545752 
L 135.873818 118.764365 
L 136.026 119.676163 
L 136.127455 118.355578 
L 136.482545 112.859419 
L 136.634727 112.51224 
L 136.736182 112.739827 
L 136.989818 114.222043 
L 137.598545 118.626653 
L 137.649273 118.594762 
L 138.055091 117.921422 
L 138.207273 118.141762 
L 138.308727 118.41791 
L 138.359455 118.163506 
L 138.917455 110.098656 
L 139.069636 110.162438 
L 139.221818 108.302602 
L 139.526182 105.396154 
L 139.576909 105.335995 
L 139.627636 105.379483 
L 139.779818 106.002811 
L 140.084182 108.575126 
L 140.185636 109.110754 
L 140.591455 103.276838 
L 140.692909 103.514573 
L 140.895818 105.057672 
L 141.403091 110.544408 
L 141.504545 110.232744 
L 141.758182 109.194106 
L 141.859636 109.210776 
L 142.011818 106.027454 
L 142.265455 102.017136 
L 142.366909 101.758382 
L 142.417636 101.828688 
L 142.569818 102.599875 
L 142.924909 106.110806 
L 143.178545 108.40045 
L 143.330727 107.224824 
L 143.584364 105.669403 
L 143.685818 105.730286 
L 143.838 106.4058 
L 144.193091 109.463006 
L 145.461273 121.199693 
L 146.120727 125.062152 
L 146.729455 127.44167 
L 147.388909 129.156547 
L 147.541091 129.371813 
L 147.744 124.105416 
L 147.997636 119.715302 
L 148.200545 118.841194 
L 148.302 118.907875 
L 148.504909 119.592086 
L 149.062909 122.765261 
L 149.874545 126.921989 
L 150.534 129.179741 
L 151.193455 130.665581 
L 151.903636 131.720165 
L 152.715273 132.534115 
L 153.780545 133.282834 
L 154.135636 133.420546 
L 154.287818 130.050226 
L 154.592182 123.874205 
L 154.795091 122.586235 
L 154.896545 122.478965 
L 154.947273 122.51593 
L 155.150182 123.066053 
L 155.657455 125.578934 
L 156.114 127.797547 
L 156.722727 118.167854 
L 156.773455 118.204094 
L 156.874909 117.586565 
L 157.331455 112.98191 
L 157.432909 112.96379 
L 157.585091 113.462453 
L 157.940182 115.932571 
L 159.056182 124.595381 
L 159.259091 119.766038 
L 159.512727 116.615333 
L 159.614182 116.395718 
L 159.664909 116.425435 
L 159.817091 116.900179 
L 160.172182 119.14416 
L 161.237455 126.187766 
L 161.846182 128.781826 
L 162.454909 130.501051 
L 162.556364 130.72284 
L 162.607091 130.566283 
L 162.860727 124.83384 
L 163.570909 113.387074 
L 163.723091 113.124696 
L 163.875273 113.524786 
L 163.976727 113.90748 
L 164.128909 111.355459 
L 164.382545 107.731459 
L 164.534727 107.374858 
L 164.686909 107.946 
L 164.940545 109.972541 
L 164.991273 109.897162 
L 165.397091 105.234523 
L 165.498545 105.447614 
L 165.701455 106.815312 
L 166.310182 113.337062 
L 167.071091 120.645946 
L 167.121818 120.980078 
L 167.172545 120.90035 
L 167.426182 117.482194 
L 167.679818 115.525234 
L 167.781273 115.222992 
L 168.339273 109.35936 
L 168.440727 109.501421 
L 168.643636 110.460331 
L 169.100182 114.137242 
L 170.114727 122.321683 
L 170.165455 122.289792 
L 170.368364 119.222438 
L 170.672727 116.030419 
L 170.774182 115.830374 
L 170.824909 115.848494 
L 170.977091 116.249309 
L 171.281455 117.848218 
L 171.332182 117.665568 
L 171.839455 112.662998 
L 171.890182 112.668072 
L 172.042364 113.092805 
L 172.346727 115.027296 
L 173.412 123.081274 
L 173.564182 121.154755 
L 173.868545 117.924322 
L 174.020727 117.635851 
L 174.122182 117.754718 
L 174.325091 118.308466 
L 174.477273 116.821901 
L 174.629455 114.110424 
L 175.339636 96.654341 
L 175.593273 93.41231 
L 175.694727 93.253579 
L 175.796182 93.553646 
L 176.049818 95.602656 
L 176.303455 98.630146 
L 176.354182 98.509829 
L 176.810727 84.057317 
L 176.861455 83.994259 
L 176.962909 84.439286 
L 177.064364 85.159013 
L 177.115091 84.920554 
L 177.368727 82.746154 
L 177.419455 82.776595 
L 177.571636 83.762323 
L 177.876 88.03212 
L 177.977455 89.28385 
L 178.028182 89.012774 
L 178.231091 87.774816 
L 178.281818 87.803083 
L 178.434 88.641677 
L 178.738364 92.427307 
L 178.992 95.851262 
L 179.042727 95.512056 
L 179.296364 94.108843 
L 179.397818 94.406011 
L 179.702182 96.639845 
L 179.752909 96.394138 
L 180.057273 94.587936 
L 180.158727 94.832918 
L 180.361636 96.433277 
L 180.868909 103.171018 
L 181.832727 115.378824 
L 182.492182 121.078651 
L 183.100909 124.635245 
L 183.202364 124.94401 
L 183.354545 122.040461 
L 183.658909 116.948741 
L 183.760364 115.802107 
L 184.166182 108.10908 
L 184.318364 107.725661 
L 184.419818 107.978616 
L 184.673455 109.61449 
L 186.550364 124.594656 
L 186.854727 125.886974 
L 186.956182 122.899349 
L 187.615636 91.83587 
L 187.818545 89.30052 
L 187.869273 89.241811 
L 187.92 89.346907 
L 188.072182 90.397142 
L 188.427273 95.131536 
L 189.796909 114.929448 
L 190.456364 121.025741 
L 191.065091 124.793251 
L 191.268 125.722445 
L 191.318727 125.574586 
L 191.572364 121.098221 
L 191.775273 113.99808 
L 192.028909 108.240994 
L 192.333273 105.357014 
L 192.637636 99.831139 
L 192.739091 99.628195 
L 192.840545 99.962328 
L 193.094182 101.627918 
L 193.144909 101.340173 
L 193.449273 99.231005 
L 193.550727 99.362194 
L 193.753636 100.659586 
L 194.210182 105.853502 
L 195.224727 117.265478 
L 195.884182 122.291966 
L 196.543636 125.63112 
L 197.203091 127.804795 
L 197.761091 128.971723 
L 197.862545 127.142328 
L 198.826364 95.558443 
L 198.927818 95.314186 
L 198.978545 95.393189 
L 199.130727 96.220186 
L 199.485818 100.08047 
L 200.297455 110.299426 
L 200.500364 107.6742 
L 201.007636 99.977549 
L 201.058364 99.928262 
L 201.109091 99.986246 
L 201.261273 100.666834 
L 201.413455 101.74751 
L 201.464182 101.560512 
L 201.565636 99.50208 
L 201.920727 88.522085 
L 202.072909 87.918326 
L 202.174364 88.388722 
L 202.428 91.234286 
L 202.783091 95.886053 
L 202.833818 95.683834 
L 203.087455 94.751741 
L 203.239636 95.372894 
L 203.544 98.322106 
L 204.406364 109.033925 
L 204.457091 108.621514 
L 204.66 104.502475 
L 205.015091 97.061678 
L 205.167273 95.111966 
L 205.471636 90.945091 
L 205.573091 90.779837 
L 205.674545 91.126291 
L 205.776 91.698158 
L 205.826727 91.574218 
L 205.928182 89.13599 
L 206.384727 72.01549 
L 206.486182 71.521176 
L 206.536909 71.602354 
L 206.689091 72.790301 
L 206.942727 75.776477 
L 206.993455 75.595277 
L 207.196364 74.639266 
L 207.297818 74.898019 
L 207.348545 74.808144 
L 207.652909 72.298162 
L 207.703636 72.318456 
L 207.805091 72.820018 
L 208.058727 76.022184 
L 208.819636 90.658795 
L 209.682 105.266414 
L 210.189273 111.533035 
L 210.24 111.455482 
L 210.747273 107.651731 
L 210.798 107.69377 
L 210.950182 108.188808 
L 211.203818 109.733357 
L 211.254545 109.561579 
L 211.711091 104.645261 
L 211.812545 104.770651 
L 212.015455 105.836832 
L 212.522727 110.42699 
L 213.486545 118.891205 
L 213.537273 118.972382 
L 214.095273 111.474326 
L 214.196727 111.656251 
L 214.247455 111.796862 
L 214.348909 110.990885 
L 214.704 106.558733 
L 214.805455 106.328246 
L 214.856182 106.368835 
L 215.008364 106.955923 
L 215.363455 109.839902 
L 215.515636 110.920579 
L 215.667818 109.431115 
L 215.921455 107.36616 
L 216.022909 107.291506 
L 216.175091 107.787269 
L 216.327273 108.604843 
L 216.428727 107.522717 
L 216.733091 103.574731 
L 216.834545 103.407302 
L 216.936 103.684901 
L 217.189636 105.567206 
L 217.849091 112.398446 
L 217.899818 112.154914 
L 218.305636 108.751978 
L 218.407091 108.79764 
L 218.508545 109.120176 
L 218.559273 109.084661 
L 218.711455 107.570554 
L 219.370909 88.493093 
L 219.675273 81.408173 
L 219.776727 81.023304 
L 219.827455 81.097234 
L 219.979636 82.096733 
L 220.334727 86.926075 
L 221.146364 99.849259 
L 221.501455 95.393914 
L 221.602909 95.604106 
L 221.805818 97.239979 
L 222.059455 100.10149 
L 222.110182 99.486134 
L 222.414545 95.420006 
L 222.465273 95.414208 
L 222.566727 95.807774 
L 222.820364 98.240203 
L 223.226182 103.606622 
L 223.276909 103.449341 
L 223.632 98.311958 
L 223.682727 98.283691 
L 223.784182 98.612026 
L 224.037818 100.801646 
L 225.711818 118.321512 
L 226.371273 122.268048 
L 227.030727 124.937486 
L 227.740909 126.879226 
L 228.501818 128.31143 
L 229.364182 129.476184 
L 229.567091 129.624768 
L 229.668545 128.124432 
L 230.074364 115.729627 
L 230.328 110.424091 
L 230.530909 109.555781 
L 230.581636 109.600718 
L 230.683091 108.885341 
L 231.038182 104.869949 
L 231.139636 104.708318 
L 231.190364 104.774275 
L 231.342545 105.420072 
L 231.697636 108.432341 
L 232.610727 117.092976 
L 232.762909 116.093477 
L 233.067273 114.422813 
L 233.168727 114.346709 
L 233.219455 114.386573 
L 233.371636 114.755496 
L 233.676 116.222491 
L 234.994909 124.208338 
L 235.045636 123.797376 
L 235.552909 116.06231 
L 235.654364 115.916626 
L 235.705091 115.962288 
L 235.857273 116.436307 
L 236.263091 118.749144 
L 236.313818 118.299043 
L 237.125455 106.13545 
L 237.277636 105.622291 
L 237.379091 105.819437 
L 237.582 107.021155 
L 238.089273 111.954144 
L 239.053091 120.926443 
L 239.103818 121.035888 
L 239.611091 113.226893 
L 239.712545 113.378376 
L 239.915455 114.426437 
L 240.219818 116.757394 
L 240.270545 116.691437 
L 240.777818 112.942046 
L 240.879273 113.081208 
L 241.082182 113.937197 
L 241.538727 117.026294 
L 241.640182 116.686363 
L 242.046 113.942995 
L 242.147455 113.85312 
L 242.198182 113.892259 
L 242.401091 114.366278 
L 242.502545 113.392872 
L 242.857636 108.999134 
L 243.009818 108.70559 
L 243.162 109.14337 
L 243.466364 111.232243 
L 245.089636 124.196016 
L 245.698364 127.014038 
L 245.749091 126.870528 
L 246.357818 118.985429 
L 246.459273 119.006448 
L 246.611455 119.39929 
L 246.966545 121.176499 
L 247.118727 121.843315 
L 247.270909 119.197795 
L 247.575273 114.891758 
L 247.727455 114.480072 
L 247.828909 114.59604 
L 248.031818 115.398394 
L 248.285455 116.945842 
L 248.336182 116.908877 
L 248.539091 114.037944 
L 248.792727 111.543907 
L 248.894182 111.354734 
L 248.944909 111.395323 
L 249.097091 111.917904 
L 249.452182 114.419189 
L 249.959455 118.422259 
L 250.111636 116.106523 
L 250.365273 112.959442 
L 250.517455 112.570224 
L 250.618909 112.732579 
L 250.821818 113.681342 
L 251.379818 117.875035 
L 251.836364 121.19027 
L 251.988545 118.586789 
L 252.292909 114.353232 
L 252.445091 114.046642 
L 252.597273 114.474998 
L 252.901636 116.411664 
L 254.169818 125.278867 
L 254.829273 128.099789 
L 255.082909 128.894894 
L 255.184364 127.523573 
L 255.996 109.35791 
L 256.097455 109.165114 
L 256.148182 109.210776 
L 256.300364 109.758 
L 256.655455 112.345536 
L 257.974364 122.831942 
L 258.633818 126.130507 
L 259.039636 127.47791 
L 259.141091 126.260246 
L 259.597636 119.061533 
L 259.800545 118.428782 
L 259.902 118.495464 
L 260.104909 119.082552 
L 260.612182 121.657766 
L 261.119455 124.359096 
L 261.220909 122.229634 
L 261.525273 115.460726 
L 261.728182 113.848046 
L 262.083273 108.386678 
L 262.184727 108.185909 
L 262.235455 108.25404 
L 262.387636 108.938251 
L 262.641273 110.908982 
L 262.692 110.279131 
L 262.844182 100.484184 
L 263.148545 85.860619 
L 263.300727 84.445085 
L 263.351455 84.486398 
L 263.503636 85.600416 
L 263.554364 86.028048 
L 263.605091 85.653326 
L 263.858727 83.24989 
L 263.909455 83.289754 
L 264.061636 84.325493 
L 264.366 88.835198 
L 264.619636 92.664317 
L 264.670364 92.496163 
L 264.873273 91.506086 
L 264.924 91.540152 
L 265.025455 91.98083 
L 265.126909 90.00865 
L 265.532727 77.521795 
L 266.445818 60.093979 
L 266.496545 60.064987 
L 266.598 60.536832 
L 266.851636 63.76944 
L 267.409636 73.926062 
L 267.511091 73.144003 
L 267.714 72.230755 
L 267.815455 72.660562 
L 268.018364 74.837136 
L 268.627091 84.853872 
L 268.728545 83.900035 
L 268.931455 82.438838 
L 268.982182 82.440288 
L 269.083636 82.833854 
L 269.337273 85.405445 
L 270.199636 98.501856 
L 271.011273 108.823733 
L 271.721455 115.253434 
L 272.431636 119.695008 
L 272.685273 120.874982 
L 272.786727 119.620354 
L 273.141818 113.725555 
L 273.344727 112.960166 
L 273.446182 113.028298 
L 273.598364 113.445058 
L 273.699818 112.555003 
L 273.902727 108.38088 
L 274.257818 98.855558 
L 274.460727 97.776331 
L 274.562182 98.014066 
L 274.765091 99.391186 
L 275.323091 105.515746 
L 276.286909 115.50349 
L 276.794182 119.205768 
L 276.895636 118.340357 
L 277.301455 113.176882 
L 277.453636 112.870291 
L 277.555091 113.029747 
L 277.808727 114.180005 
L 278.620364 119.766763 
L 279.381273 124.095994 
L 280.040727 126.66541 
L 280.700182 128.408554 
L 280.750909 128.517274 
L 280.801636 128.384635 
L 281.308909 117.837346 
L 281.410364 117.619906 
L 281.461091 117.640925 
L 281.613273 118.050437 
L 281.968364 119.99725 
L 282.171273 120.966307 
L 282.982909 105.136675 
L 283.135091 104.419848 
L 283.236545 104.634389 
L 283.439455 106.054272 
L 284.098909 113.377651 
L 284.859818 120.651744 
L 285.519273 124.891099 
L 286.128 127.461965 
L 286.229455 127.755509 
L 286.330909 126.884299 
L 286.787455 120.321235 
L 286.990364 119.63485 
L 287.091818 119.641373 
L 287.294727 119.911723 
L 287.446909 117.885182 
L 287.802 113.233416 
L 288.004909 112.672421 
L 288.106364 112.797811 
L 288.207818 113.112374 
L 288.258545 113.09208 
L 288.410727 110.349437 
L 288.664364 106.538438 
L 288.816545 106.023106 
L 288.918 106.16879 
L 289.120909 107.18351 
L 289.628182 111.493896 
L 290.642727 119.880557 
L 291.302182 123.608203 
L 291.961636 126.160224 
L 292.671818 128.012088 
L 293.432727 129.36529 
L 293.737091 129.787848 
L 293.787818 129.741461 
L 293.94 127.909891 
L 294.295091 123.455995 
L 294.548727 122.656541 
L 294.700909 122.726846 
L 294.954545 123.340027 
L 295.512545 125.568062 
L 296.324182 128.701373 
L 296.374909 128.702098 
L 296.527091 127.019112 
L 296.679273 121.798378 
L 296.983636 112.954368 
L 297.186545 111.554054 
L 297.288 111.629434 
L 297.490909 112.647053 
L 297.998182 117.165456 
L 298.911273 124.895448 
L 299.469273 128.080219 
L 299.52 127.942507 
L 300.128727 120.350227 
L 300.230182 120.403138 
L 300.382364 120.786557 
L 300.483818 119.971882 
L 301.295455 108.535987 
L 301.396909 108.313474 
L 301.447636 108.341741 
L 301.599818 108.556282 
L 301.752 107.427768 
L 302.005636 105.686074 
L 302.107091 105.633163 
L 302.259273 106.146322 
L 302.563636 108.48815 
L 303.121636 114.25031 
L 303.172364 113.826302 
L 303.527455 108.05472 
L 303.578182 107.939477 
L 303.628909 107.966294 
L 303.781091 108.664277 
L 304.136182 112.035322 
L 304.389818 114.622133 
L 304.440545 114.54023 
L 304.947818 110.59152 
L 305.556545 94.105219 
L 305.658 94.395139 
L 305.860909 96.14843 
L 306.418909 103.808842 
L 307.332 115.601338 
L 307.991455 121.55267 
L 308.600182 125.275243 
L 309.056727 127.13508 
L 309.158182 126.089918 
L 309.614727 119.728349 
L 309.817636 119.23621 
L 309.969818 119.4522 
L 310.274182 120.652469 
L 311.897455 128.275915 
L 312.556909 130.037179 
L 312.861273 130.623542 
L 312.912 130.54019 
L 313.064182 129.084067 
L 313.47 125.049106 
L 313.723636 124.351123 
L 313.875818 124.376491 
L 314.078727 124.725845 
L 314.484545 125.996419 
L 314.839636 127.195963 
L 314.890364 127.153925 
L 315.042545 126.363168 
L 315.245455 121.578038 
L 315.549818 115.841971 
L 315.752727 114.713458 
L 315.854182 114.68664 
L 316.006364 115.086005 
L 316.310727 116.813928 
L 318.035455 128.20271 
L 318.339818 129.392107 
L 318.441273 128.162122 
L 318.796364 122.202091 
L 318.999273 121.448299 
L 319.100727 121.517155 
L 319.303636 122.162952 
L 319.810909 124.930238 
L 320.318182 127.33585 
L 320.470364 126.786451 
L 320.876182 125.038958 
L 321.079091 124.857034 
L 321.282 125.011416 
L 321.586364 125.642717 
L 322.195091 127.609824 
L 323.311091 131.190336 
L 323.970545 132.613843 
L 324.680727 133.622765 
L 325.441636 134.318573 
L 325.543091 134.354813 
L 325.644545 132.71604 
L 325.999636 125.854358 
L 326.253273 124.612776 
L 326.354727 124.611326 
L 326.506909 124.913568 
L 326.862 126.342874 
L 328.028727 131.375885 
L 328.637455 133.005235 
L 329.246182 134.05837 
L 329.905636 134.782445 
L 330.717273 135.339091 
L 331.884 135.83268 
L 332.594182 135.969667 
L 332.695636 134.902762 
L 333 128.239675 
L 333.355091 116.524008 
L 333.558 115.228066 
L 333.659455 115.379549 
L 333.710182 115.57452 
L 333.760909 115.488994 
L 333.913091 111.936024 
L 334.217455 105.042451 
L 334.420364 104.069045 
L 334.521818 104.35679 
L 334.724727 105.864374 
L 334.775455 105.691147 
L 335.130545 100.654512 
L 335.232 100.937184 
L 335.434909 102.796296 
L 335.688545 105.526618 
L 335.739273 105.362813 
L 336.043636 104.067595 
L 336.145091 104.329973 
L 336.348 105.733186 
L 336.500182 106.797917 
L 336.855273 100.877026 
L 336.906 100.858181 
L 337.007455 101.27929 
L 337.261091 103.913213 
L 337.565455 107.634336 
L 337.616182 107.303102 
L 337.920545 104.90039 
L 338.022 105.03013 
L 338.224909 106.304328 
L 338.732182 111.828754 
L 339.594545 120.745243 
L 340.254 125.371642 
L 340.862727 128.179517 
L 341.471455 130.011811 
L 342.130909 131.303405 
L 342.891818 132.274637 
L 343.246909 132.610944 
L 343.348364 131.686099 
L 343.855636 123.460344 
L 344.058545 122.947186 
L 344.16 123.048658 
L 344.413636 123.87203 
L 345.783273 129.987893 
L 345.935455 126.935035 
L 346.138364 119.534102 
L 346.392 112.761571 
L 346.594909 111.460555 
L 346.696364 111.606965 
L 346.899273 112.790563 
L 346.95 113.108026 
L 347.000727 113.005829 
L 347.406545 109.897162 
L 347.508 110.115326 
L 347.710909 111.331541 
L 348.268909 116.747246 
L 349.029818 123.711125 
L 349.080545 123.702427 
L 349.283455 120.33863 
L 349.537091 117.583666 
L 349.689273 117.309691 
L 349.841455 117.655421 
L 350.145818 119.293469 
L 351.363273 126.940109 
L 351.414 126.732816 
L 351.870545 117.897504 
L 351.972 117.447403 
L 352.53 110.839402 
L 352.631455 111.00828 
L 352.834364 112.110701 
L 353.392364 117.071232 
L 354.254727 124.05468 
L 354.914182 127.580832 
L 355.015636 127.833062 
L 355.167818 124.954882 
L 355.472182 119.70588 
L 355.675091 118.754942 
L 355.776545 118.72885 
L 355.928727 119.034715 
L 356.030182 119.394941 
L 356.131636 117.358978 
L 356.436 110.951021 
L 356.588182 110.412494 
L 356.689636 110.62631 
L 356.943273 112.220146 
L 358.566545 124.77803 
L 359.226 127.566336 
L 359.885455 129.377611 
L 360.240545 130.036454 
L 360.342 128.319403 
L 360.697091 121.253328 
L 360.9 120.37487 
L 361.001455 120.395165 
L 361.153636 120.607531 
L 361.305818 119.134013 
L 361.610182 116.392819 
L 361.762364 116.239162 
L 361.914545 116.615333 
L 362.218909 118.215691 
L 363.842182 127.98672 
L 364.450909 130.05385 
L 365.059636 131.419373 
L 365.769818 132.455112 
L 366.581455 133.227024 
L 367.646727 133.914134 
L 369.320727 134.679523 
L 370.436727 135.087586 
L 370.538182 131.968771 
L 371.096182 105.241771 
L 371.299091 103.713168 
L 371.400545 103.837109 
L 371.603455 105.093912 
L 372.06 110.037048 
L 373.074545 120.873533 
L 373.581818 124.620749 
L 373.581818 124.620749 
" style="fill:none;stroke:#000000;stroke-linecap:square;stroke-width:1.5;"/>
   </g>
   <g id="line2d_16">
    <path clip-path="url(#pcfd0a4ed1c)" d="M 69.218182 128.784 
L 69.319636 122.965306 
L 69.370364 123.261024 
L 69.826909 128.978246 
L 69.877636 128.870251 
L 69.979091 127.359768 
L 70.435636 113.690765 
L 70.587818 113.226893 
L 70.74 113.882837 
L 71.095091 117.345206 
L 72.109636 127.895395 
L 72.718364 131.857877 
L 72.972 133.013208 
L 73.073455 131.548387 
L 73.327091 121.690382 
L 73.580727 115.567272 
L 73.783636 114.430786 
L 73.885091 114.570672 
L 73.986545 114.835224 
L 74.088 113.032646 
L 74.950364 83.631134 
L 75.001091 83.595619 
L 75.102545 84.06384 
L 75.356182 87.262382 
L 77.131636 116.310917 
L 77.182364 116.127542 
L 77.689636 111.863544 
L 77.791091 112.017202 
L 77.994 112.98481 
L 78.146182 113.755997 
L 78.602727 106.433342 
L 78.704182 106.613093 
L 78.907091 107.943101 
L 79.617273 115.301995 
L 80.124545 119.810251 
L 80.226 119.050661 
L 80.631818 114.436584 
L 80.733273 114.275678 
L 80.784 114.316992 
L 80.936182 114.799709 
L 81.291273 117.06181 
L 81.798545 120.779309 
L 82.001455 115.981858 
L 82.255091 109.386902 
L 82.508727 103.502251 
L 82.610182 103.008662 
L 82.660909 103.023158 
L 82.813091 103.7784 
L 83.168182 107.575627 
L 84.233455 119.54425 
L 84.588545 122.373144 
L 84.639273 122.350675 
L 85.197273 114.751872 
L 85.298727 114.917126 
L 85.552364 116.194949 
L 86.059636 119.779085 
L 86.110364 119.568168 
L 86.516182 114.071285 
L 86.972727 100.252973 
L 87.124909 99.732566 
L 87.277091 100.252973 
L 87.327818 100.223981 
L 87.48 98.841062 
L 87.733636 94.277722 
L 87.987273 91.563346 
L 88.038 91.499563 
L 88.088727 91.568419 
L 88.240909 92.407738 
L 88.545273 95.80415 
L 88.798909 98.74249 
L 89.154 94.831469 
L 89.204727 94.851038 
L 89.356909 95.635272 
L 89.661273 99.017189 
L 90.929455 114.897557 
L 91.030909 113.700187 
L 91.335273 109.402848 
L 91.487455 109.028126 
L 91.588909 109.263686 
L 91.842545 110.821282 
L 93.567273 123.825643 
L 94.226727 126.537845 
L 94.886182 128.344046 
L 95.596364 129.658109 
L 96.408 130.700371 
L 97.473273 131.679576 
L 98.335636 132.289858 
L 98.437091 131.12003 
L 98.842909 124.784554 
L 99.096545 123.640819 
L 99.248727 123.611102 
L 99.451636 124.013366 
L 99.603818 124.280818 
L 99.705273 123.988723 
L 100.009636 122.191219 
L 100.466182 112.046918 
L 100.770545 103.675478 
L 100.973455 102.720192 
L 101.074909 103.011562 
L 101.328545 104.940979 
L 102.140182 114.224218 
L 102.901091 121.51933 
L 103.560545 125.796374 
L 104.169273 128.384635 
L 104.778 130.082117 
L 104.879455 130.222003 
L 104.980909 129.921211 
L 105.234545 127.832338 
L 105.488182 122.620301 
L 106.198364 110.047195 
L 106.401273 109.0332 
L 106.502727 109.149168 
L 106.705636 110.15664 
L 106.756364 110.519765 
L 106.807091 109.956595 
L 107.263636 92.777386 
L 107.568 91.78151 
L 107.669455 89.864414 
L 107.973818 84.081235 
L 108.024545 83.965267 
L 108.075273 84.037747 
L 108.227455 85.111901 
L 108.582545 90.236962 
L 109.343455 102.104112 
L 109.698545 99.613699 
L 109.749273 99.662986 
L 109.901455 100.369666 
L 110.307273 104.028456 
L 110.408727 103.328299 
L 110.713091 100.874851 
L 110.814545 100.903118 
L 110.966727 101.614872 
L 111.321818 104.968522 
L 111.575455 107.464733 
L 111.676909 105.378034 
L 112.082727 95.607005 
L 112.437818 93.66744 
L 112.539273 93.494938 
L 112.59 93.523205 
L 112.742182 94.040712 
L 113.046545 96.360797 
L 113.604545 102.012787 
L 113.655273 101.518474 
L 114.010364 96.121613 
L 114.111818 96.087547 
L 114.264 96.086098 
L 114.466909 95.973029 
L 114.619091 96.38399 
L 114.872727 97.983624 
L 114.923455 97.750238 
L 115.38 92.204069 
L 115.481455 92.32656 
L 115.684364 93.584813 
L 116.140909 98.680157 
L 116.800364 105.707093 
L 116.901818 105.642586 
L 117.155455 105.259891 
L 117.307636 102.512174 
L 117.612 97.679208 
L 117.814909 96.889901 
L 117.916364 96.926866 
L 118.119273 97.476989 
L 118.575818 99.602827 
L 118.626545 99.396984 
L 118.778727 94.575614 
L 119.133818 84.637157 
L 119.336727 83.204952 
L 119.438182 83.190456 
L 119.590364 83.727533 
L 119.742545 84.690792 
L 119.793273 84.443635 
L 120.199091 78.977194 
L 120.249818 78.988066 
L 120.351273 79.277261 
L 120.757091 73.075147 
L 120.807818 73.145453 
L 120.96 74.155099 
L 121.315091 78.951826 
L 123.141273 106.542787 
L 123.952909 114.881611 
L 124.663091 120.018269 
L 125.322545 123.330605 
L 126.032727 125.778254 
L 126.742909 127.466314 
L 127.453091 128.686152 
L 127.503818 128.660784 
L 128.112545 117.962736 
L 128.214 118.011298 
L 128.416909 118.697683 
L 128.974909 121.943338 
L 129.634364 125.518051 
L 129.685091 125.379614 
L 130.293818 117.722102 
L 130.395273 117.764866 
L 130.598182 118.391818 
L 131.054727 120.931517 
L 131.967818 125.998594 
L 132.069273 124.131509 
L 132.373636 117.42421 
L 132.576545 116.610259 
L 132.678 116.786386 
L 132.931636 118.051886 
L 133.236 120.075528 
L 133.286727 119.783434 
L 133.743273 114.348883 
L 133.844727 114.345259 
L 133.996909 114.847546 
L 134.352 117.200971 
L 134.605636 118.906426 
L 134.656364 118.746245 
L 135.163636 115.899955 
L 135.265091 115.955765 
L 135.468 116.545752 
L 135.873818 118.764365 
L 136.026 119.676163 
L 136.127455 118.355578 
L 136.482545 112.859419 
L 136.634727 112.51224 
L 136.736182 112.739827 
L 136.989818 114.222043 
L 137.598545 118.626653 
L 137.649273 118.594762 
L 138.055091 117.921422 
L 138.207273 118.141762 
L 138.308727 118.41791 
L 138.359455 118.163506 
L 138.917455 110.098656 
L 139.069636 110.162438 
L 139.221818 108.302602 
L 139.526182 105.396154 
L 139.576909 105.335995 
L 139.627636 105.379483 
L 139.779818 106.002811 
L 140.084182 108.575126 
L 140.185636 109.110754 
L 140.591455 103.276838 
L 140.692909 103.514573 
L 140.895818 105.059846 
L 141.403091 110.548757 
L 141.504545 110.237818 
L 141.758182 109.202078 
L 141.859636 109.219474 
L 142.011818 106.039051 
L 142.265455 102.033806 
L 142.366909 101.777952 
L 142.417636 101.848982 
L 142.569818 102.624518 
L 142.924909 106.140523 
L 143.178545 108.431616 
L 143.330727 107.256715 
L 143.584364 105.704194 
L 143.685818 105.767251 
L 143.838 106.445664 
L 144.193091 109.507219 
L 145.410545 120.859762 
L 146.07 124.822968 
L 146.678727 127.266269 
L 147.338182 129.021734 
L 147.541091 129.341371 
L 147.744 124.072075 
L 147.997636 119.682686 
L 148.200545 118.813651 
L 148.302 118.882507 
L 148.504909 119.571067 
L 149.062909 122.749315 
L 149.874545 126.895896 
L 150.534 129.140602 
L 151.193455 130.613395 
L 151.903636 131.657107 
L 152.766 132.502224 
L 153.882 133.258915 
L 154.135636 133.334294 
L 154.287818 129.96325 
L 154.592182 123.793027 
L 154.795091 122.515205 
L 154.896545 122.413008 
L 154.947273 122.452147 
L 155.150182 123.010243 
L 155.657455 125.532547 
L 156.114 127.748261 
L 156.672 118.121467 
L 156.722727 118.125091 
L 156.773455 118.163506 
L 156.874909 117.550325 
L 157.331455 112.979011 
L 157.432909 112.971763 
L 157.585091 113.483472 
L 157.940182 115.970986 
L 159.056182 124.605528 
L 159.259091 119.767488 
L 159.512727 116.616058 
L 159.614182 116.398618 
L 159.664909 116.429059 
L 159.817091 116.905978 
L 160.172182 119.152133 
L 161.237455 126.166747 
L 161.896909 128.906491 
L 162.505636 130.546714 
L 162.556364 130.653984 
L 162.607091 130.495978 
L 162.860727 124.76136 
L 163.570909 113.371853 
L 163.723091 113.127595 
L 163.875273 113.541456 
L 163.976727 113.932123 
L 164.128909 111.388075 
L 164.382545 107.78147 
L 164.534727 107.43864 
L 164.686909 108.022829 
L 164.940545 110.063866 
L 164.991273 109.990661 
L 165.397091 105.35484 
L 165.498545 105.575179 
L 165.701455 106.954474 
L 166.360909 114.023448 
L 167.121818 121.056182 
L 167.172545 120.972106 
L 167.426182 117.538728 
L 167.679818 115.581768 
L 167.781273 115.281701 
L 168.339273 109.444886 
L 168.440727 109.594195 
L 168.643636 110.564702 
L 169.150909 114.701136 
L 170.114727 122.380392 
L 170.165455 122.344877 
L 170.368364 119.264477 
L 170.672727 116.069558 
L 170.774182 115.871688 
L 170.824909 115.890533 
L 170.977091 116.294971 
L 171.281455 117.894605 
L 171.332182 117.711955 
L 171.839455 112.726056 
L 171.890182 112.734754 
L 172.042364 113.167459 
L 172.346727 115.108474 
L 173.412 123.117514 
L 173.564182 121.183022 
L 173.868545 117.952589 
L 174.020727 117.667742 
L 174.122182 117.788059 
L 174.325091 118.343981 
L 174.477273 116.857416 
L 174.629455 114.149563 
L 175.288909 98.01769 
L 175.542545 93.963883 
L 175.694727 93.560894 
L 175.796182 93.887054 
L 176.049818 95.981726 
L 176.303455 99.030235 
L 176.354182 98.911368 
L 176.810727 84.504518 
L 176.861455 84.450883 
L 176.962909 84.914755 
L 177.064364 85.649702 
L 177.115091 85.417766 
L 177.368727 83.279606 
L 177.419455 83.31947 
L 177.571636 84.329117 
L 177.977455 89.874562 
L 178.078909 89.151211 
L 178.231091 88.35683 
L 178.281818 88.384373 
L 178.434 89.220792 
L 178.738364 92.999899 
L 178.992 96.40501 
L 179.042727 96.05928 
L 179.296364 94.632874 
L 179.397818 94.922794 
L 179.702182 97.137058 
L 179.752909 96.887726 
L 180.057273 95.067029 
L 180.158727 95.310562 
L 180.361636 96.907296 
L 180.868909 103.607347 
L 181.782 115.13819 
L 182.441455 120.891653 
L 183.050182 124.480138 
L 183.202364 125.015765 
L 183.354545 122.096995 
L 183.658909 116.997302 
L 183.760364 115.851394 
L 184.166182 108.177936 
L 184.318364 107.806838 
L 184.419818 108.067042 
L 184.673455 109.715237 
L 186.499636 124.36127 
L 186.854727 125.892048 
L 186.956182 122.898624 
L 187.615636 91.911974 
L 187.818545 89.441131 
L 187.869273 89.398368 
L 187.970727 89.773814 
L 188.224364 92.412811 
L 189.086727 105.853502 
L 189.847636 115.676717 
L 190.507091 121.514256 
L 191.115818 125.094043 
L 191.268 125.760134 
L 191.318727 125.607926 
L 191.572364 121.115616 
L 191.775273 114.013301 
L 192.028909 108.27071 
L 192.333273 105.413549 
L 192.637636 99.91739 
L 192.739091 99.726043 
L 192.840545 100.071048 
L 193.094182 101.759832 
L 193.144909 101.474986 
L 193.449273 99.39191 
L 193.550727 99.532522 
L 193.753636 100.847309 
L 194.210182 106.051373 
L 195.224727 117.397392 
L 195.884182 122.363722 
L 196.492909 125.447021 
L 197.101636 127.51705 
L 197.710364 128.92896 
L 197.761091 128.935483 
L 197.862545 127.103189 
L 198.826364 95.66209 
L 198.927818 95.44465 
L 199.029273 95.735294 
L 199.232182 97.312459 
L 199.739455 103.713168 
L 200.297455 110.493672 
L 200.500364 107.85685 
L 201.007636 100.17107 
L 201.058364 100.126133 
L 201.109091 100.187741 
L 201.261273 100.87775 
L 201.413455 101.9664 
L 201.464182 101.780126 
L 201.565636 99.723869 
L 201.920727 88.777939 
L 202.022182 88.185053 
L 202.072909 88.197374 
L 202.225091 89.101925 
L 202.529455 93.05281 
L 202.783091 96.207139 
L 203.087455 95.075726 
L 203.138182 95.192419 
L 203.341091 96.499234 
L 203.797636 101.865653 
L 204.406364 109.300651 
L 204.558545 107.242219 
L 205.370182 92.006198 
L 205.573091 91.066858 
L 205.674545 91.422734 
L 205.776 92.002574 
L 205.826727 91.880808 
L 205.928182 89.447654 
L 206.384727 72.425002 
L 206.486182 71.961854 
L 206.536909 72.057528 
L 206.689091 73.284614 
L 206.942727 76.310654 
L 206.993455 76.134528 
L 207.196364 75.200261 
L 207.297818 75.471336 
L 207.348545 75.387259 
L 207.652909 72.908443 
L 207.703636 72.934536 
L 207.855818 73.902869 
L 208.160182 78.425621 
L 209.935636 109.106405 
L 210.189273 111.891811 
L 210.24 111.803386 
L 210.747273 107.924981 
L 210.798 107.96267 
L 210.950182 108.443213 
L 211.203818 109.965293 
L 211.254545 109.788442 
L 211.711091 104.845306 
L 211.812545 104.967797 
L 212.015455 106.028179 
L 212.522727 110.595869 
L 213.486545 118.991952 
L 213.537273 119.069506 
L 214.095273 111.546806 
L 214.196727 111.728006 
L 214.247455 111.868618 
L 214.348909 111.061915 
L 214.704 106.635562 
L 214.805455 106.409424 
L 214.856182 106.451462 
L 215.008364 107.044349 
L 215.363455 109.933402 
L 215.515636 111.013354 
L 215.667818 109.52244 
L 215.921455 107.460384 
L 216.022909 107.387904 
L 216.175091 107.887291 
L 216.327273 108.70704 
L 216.428727 107.624189 
L 216.733091 103.683451 
L 216.834545 103.519646 
L 216.936 103.800144 
L 217.189636 105.687523 
L 217.849091 112.505717 
L 217.899818 112.26001 
L 218.305636 108.851275 
L 218.407091 108.897662 
L 218.508545 109.220923 
L 218.559273 109.184683 
L 218.711455 107.671301 
L 219.370909 88.633704 
L 219.675273 81.608942 
L 219.776727 81.245818 
L 219.827455 81.32917 
L 219.979636 82.355486 
L 220.334727 87.219619 
L 221.146364 100.129032 
L 221.501455 95.651942 
L 221.552182 95.686733 
L 221.704364 96.520253 
L 222.059455 100.338499 
L 222.110182 99.71952 
L 222.414545 95.641795 
L 222.465273 95.634547 
L 222.566727 96.026664 
L 222.820364 98.45257 
L 223.226182 103.803043 
L 223.276909 103.642862 
L 223.632 98.489534 
L 223.682727 98.459818 
L 223.784182 98.785978 
L 224.037818 100.971974 
L 225.661091 118.03739 
L 226.320545 122.063654 
L 226.98 124.784554 
L 227.639455 126.642941 
L 228.400364 128.129506 
L 229.262727 129.3276 
L 229.567091 129.593602 
L 229.668545 128.092541 
L 230.074364 115.704984 
L 230.328 110.412494 
L 230.530909 109.556506 
L 230.581636 109.604342 
L 230.683091 108.894038 
L 231.038182 104.90039 
L 231.139636 104.746008 
L 231.190364 104.814864 
L 231.342545 105.469358 
L 231.697636 108.492499 
L 232.610727 117.141538 
L 232.762909 116.13769 
L 233.067273 114.464851 
L 233.168727 114.388747 
L 233.219455 114.429336 
L 233.371636 114.798984 
L 233.676 116.265979 
L 234.994909 124.225008 
L 235.045636 123.812597 
L 235.552909 116.071733 
L 235.654364 115.927498 
L 235.705091 115.973885 
L 235.857273 116.448629 
L 236.263091 118.76219 
L 236.313818 118.31209 
L 237.125455 106.161542 
L 237.277636 105.655632 
L 237.379091 105.856402 
L 237.582 107.065368 
L 238.089273 112.004155 
L 239.053091 120.95761 
L 239.103818 121.065605 
L 239.611091 113.249362 
L 239.712545 113.40012 
L 239.915455 114.448181 
L 240.219818 116.777688 
L 240.270545 116.711731 
L 240.777818 112.963066 
L 240.879273 113.102952 
L 241.082182 113.96184 
L 241.538727 117.050938 
L 241.640182 116.710282 
L 242.046 113.969088 
L 242.147455 113.880662 
L 242.198182 113.921251 
L 242.401091 114.39817 
L 242.502545 113.426213 
L 242.857636 109.038998 
L 243.009818 108.748354 
L 243.162 109.190482 
L 243.466364 111.282254 
L 245.089636 124.213411 
L 245.698364 127.016938 
L 245.749091 126.871978 
L 246.357818 118.983979 
L 246.459273 119.005723 
L 246.662182 119.599334 
L 247.118727 121.844765 
L 247.270909 119.199245 
L 247.575273 114.898282 
L 247.727455 114.490219 
L 247.828909 114.608362 
L 248.031818 115.412165 
L 248.285455 116.960338 
L 248.336182 116.923373 
L 248.539091 114.05244 
L 248.792727 111.560578 
L 248.894182 111.372854 
L 248.944909 111.414168 
L 249.097091 111.938923 
L 249.452182 114.443107 
L 249.959455 118.442554 
L 250.111636 116.124643 
L 250.365273 112.977562 
L 250.517455 112.589069 
L 250.618909 112.752874 
L 250.821818 113.701637 
L 251.379818 117.894605 
L 251.836364 121.204766 
L 251.988545 118.59911 
L 252.292909 114.364104 
L 252.445091 114.058238 
L 252.597273 114.48732 
L 252.901636 116.425435 
L 254.169818 125.280317 
L 254.829273 128.093266 
L 255.082909 128.885472 
L 255.184364 127.512701 
L 255.996 109.35936 
L 256.097455 109.170187 
L 256.148182 109.217299 
L 256.300364 109.769597 
L 256.655455 112.362931 
L 257.974364 122.841365 
L 258.633818 126.131232 
L 259.039636 127.473562 
L 259.141091 126.255173 
L 259.597636 119.057184 
L 259.800545 118.427333 
L 259.902 118.494739 
L 260.104909 119.084002 
L 260.561455 121.378718 
L 261.119455 124.359096 
L 261.220909 122.228909 
L 261.525273 115.459277 
L 261.728182 113.847322 
L 262.083273 108.391752 
L 262.184727 108.192432 
L 262.235455 108.261288 
L 262.387636 108.949123 
L 262.641273 110.922754 
L 262.692 110.292902 
L 262.844182 100.50013 
L 263.148545 85.889611 
L 263.300727 84.484224 
L 263.351455 84.529162 
L 263.503636 85.651152 
L 263.554364 86.081683 
L 263.605091 85.709136 
L 263.858727 83.315846 
L 263.909455 83.357885 
L 264.061636 84.398698 
L 264.366 88.916376 
L 264.619636 92.747669 
L 264.670364 92.579515 
L 264.873273 91.590163 
L 264.924 91.624229 
L 265.025455 92.066357 
L 265.126909 90.094176 
L 265.532727 77.616019 
L 266.445818 60.264307 
L 266.496545 60.241838 
L 266.598 60.72528 
L 266.851636 63.979632 
L 267.409636 74.150026 
L 267.511091 73.367242 
L 267.714 72.452544 
L 267.815455 72.88235 
L 268.018364 75.05965 
L 268.627091 85.065514 
L 268.728545 84.107328 
L 268.931455 82.639608 
L 268.982182 82.639608 
L 269.083636 83.031 
L 269.337273 85.596792 
L 270.199636 98.657688 
L 271.011273 108.934627 
L 271.721455 115.326638 
L 272.431636 119.738496 
L 272.685273 120.910498 
L 272.786727 119.65297 
L 273.141818 113.750923 
L 273.344727 112.984085 
L 273.446182 113.051491 
L 273.598364 113.466802 
L 273.699818 112.576747 
L 273.902727 108.401899 
L 274.257818 98.880202 
L 274.460727 97.806048 
L 274.562182 98.045957 
L 274.765091 99.426701 
L 275.323091 105.55416 
L 276.286909 115.531032 
L 276.794182 119.226062 
L 276.895636 118.358477 
L 277.301455 113.192102 
L 277.453636 112.886237 
L 277.555091 113.045693 
L 277.808727 114.195226 
L 278.671091 120.112493 
L 279.432 124.333728 
L 280.091455 126.823416 
L 280.750909 128.5122 
L 280.801636 128.378837 
L 281.308909 117.831547 
L 281.410364 117.614832 
L 281.461091 117.635851 
L 281.613273 118.046813 
L 281.968364 119.995075 
L 282.171273 120.964133 
L 282.982909 105.13885 
L 283.135091 104.424197 
L 283.236545 104.640187 
L 283.439455 106.06297 
L 284.098909 113.388523 
L 284.859818 120.658992 
L 285.519273 124.893274 
L 286.128 127.45979 
L 286.229455 127.75261 
L 286.330909 126.880675 
L 286.787455 120.319061 
L 286.990364 119.6334 
L 287.091818 119.640648 
L 287.294727 119.911723 
L 287.446909 117.885907 
L 287.802 113.23849 
L 288.004909 112.679669 
L 288.106364 112.806509 
L 288.207818 113.121797 
L 288.258545 113.101502 
L 288.410727 110.359584 
L 288.664364 106.551485 
L 288.816545 106.038326 
L 288.918 106.184011 
L 289.120909 107.200181 
L 289.628182 111.510566 
L 290.642727 119.890704 
L 291.352909 123.845938 
L 292.012364 126.31823 
L 292.722545 128.115734 
L 293.483455 129.434146 
L 293.737091 129.781325 
L 293.787818 129.734938 
L 293.94 127.904093 
L 294.295091 123.451646 
L 294.548727 122.653642 
L 294.700909 122.724672 
L 294.954545 123.337853 
L 295.512545 125.565888 
L 296.324182 128.697024 
L 296.374909 128.697749 
L 296.527091 127.014763 
L 296.679273 121.794754 
L 296.983636 112.952918 
L 297.186545 111.554779 
L 297.288 111.630883 
L 297.490909 112.649952 
L 297.998182 117.169805 
L 298.911273 124.896898 
L 299.469273 128.07877 
L 299.52 127.941058 
L 300.128727 120.348778 
L 300.230182 120.401688 
L 300.382364 120.785107 
L 300.433091 120.566218 
L 300.889636 114.218419 
L 301.244727 108.819384 
L 301.396909 108.321446 
L 301.498364 108.455534 
L 301.599818 108.566429 
L 301.752 107.439365 
L 302.005636 105.699845 
L 302.107091 105.647659 
L 302.259273 106.161542 
L 302.563636 108.504096 
L 303.121636 114.264082 
L 303.172364 113.840074 
L 303.527455 108.066317 
L 303.578182 107.951798 
L 303.628909 107.977891 
L 303.781091 108.675874 
L 304.136182 112.046194 
L 304.389818 114.63228 
L 304.440545 114.549653 
L 304.947818 110.600942 
L 305.556545 94.121165 
L 305.658 94.412534 
L 305.860909 96.168 
L 306.418909 103.829861 
L 307.332 115.615834 
L 307.991455 121.561368 
L 308.600182 125.279592 
L 309.056727 127.13653 
L 309.158182 126.091368 
L 309.614727 119.729074 
L 309.817636 119.236934 
L 309.969818 119.452925 
L 310.274182 120.653918 
L 311.897455 128.274466 
L 312.556909 130.03428 
L 312.861273 130.619918 
L 312.912 130.536566 
L 313.064182 129.080443 
L 313.47 125.046206 
L 313.723636 124.348949 
L 313.875818 124.375042 
L 314.078727 124.724395 
L 314.484545 125.99497 
L 314.839636 127.194514 
L 314.890364 127.152475 
L 315.042545 126.361718 
L 315.245455 121.576589 
L 315.549818 115.842696 
L 315.752727 114.714907 
L 315.854182 114.689539 
L 316.006364 115.089629 
L 316.310727 116.817552 
L 318.035455 128.201986 
L 318.339818 129.390658 
L 318.441273 128.160672 
L 318.796364 122.200642 
L 318.999273 121.446125 
L 319.100727 121.515706 
L 319.303636 122.161502 
L 319.810909 124.928789 
L 320.318182 127.3344 
L 320.470364 126.785002 
L 320.876182 125.038234 
L 321.079091 124.857758 
L 321.282 125.012866 
L 321.586364 125.644166 
L 322.195091 127.610549 
L 323.311091 131.188886 
L 324.021273 132.69937 
L 324.731455 133.675675 
L 325.492364 134.351189 
L 325.543091 134.351189 
L 325.644545 132.711691 
L 325.999636 125.850734 
L 326.253273 124.609877 
L 326.354727 124.608427 
L 326.506909 124.910669 
L 326.862 126.340699 
L 328.028727 131.37371 
L 328.637455 133.001611 
L 329.246182 134.05547 
L 329.905636 134.778821 
L 330.717273 135.334742 
L 331.782545 135.794266 
L 332.594182 135.966043 
L 332.695636 134.899138 
L 333 128.236051 
L 333.355091 116.521109 
L 333.558 115.225891 
L 333.659455 115.378099 
L 333.710182 115.573795 
L 333.760909 115.487544 
L 333.913091 111.935299 
L 334.217455 105.043176 
L 334.420364 104.071219 
L 334.521818 104.35969 
L 334.724727 105.868723 
L 334.775455 105.694771 
L 335.130545 100.659586 
L 335.232 100.942258 
L 335.434909 102.802094 
L 335.688545 105.532416 
L 335.739273 105.368611 
L 336.043636 104.074118 
L 336.145091 104.336496 
L 336.348 105.739709 
L 336.500182 106.80444 
L 336.855273 100.883549 
L 336.906 100.864704 
L 337.007455 101.285813 
L 337.261091 103.919736 
L 337.565455 107.640134 
L 337.616182 107.308901 
L 337.920545 104.906189 
L 338.022 105.035928 
L 338.224909 106.310126 
L 338.732182 111.833827 
L 339.594545 120.748867 
L 340.254 125.373091 
L 340.862727 128.179517 
L 341.471455 130.011086 
L 342.130909 131.30123 
L 342.841091 132.218827 
L 343.246909 132.60877 
L 343.348364 131.683925 
L 343.855636 123.45817 
L 344.058545 122.945736 
L 344.16 123.047208 
L 344.413636 123.870581 
L 345.783273 129.986443 
L 345.935455 126.933586 
L 346.138364 119.532653 
L 346.392 112.760122 
L 346.594909 111.45983 
L 346.696364 111.606965 
L 346.899273 112.790563 
L 346.95 113.108026 
L 347.000727 113.006554 
L 347.406545 109.898611 
L 347.508 110.116051 
L 347.710909 111.33299 
L 348.268909 116.748696 
L 349.029818 123.712574 
L 349.080545 123.703877 
L 349.283455 120.33863 
L 349.537091 117.58439 
L 349.689273 117.310416 
L 349.841455 117.656146 
L 350.145818 119.293469 
L 351.363273 126.939384 
L 351.414 126.732816 
L 351.870545 117.896779 
L 351.972 117.447403 
L 352.53 110.840126 
L 352.631455 111.009005 
L 352.834364 112.111426 
L 353.392364 117.071957 
L 354.254727 124.055405 
L 354.914182 127.580832 
L 355.015636 127.832338 
L 355.167818 124.954882 
L 355.472182 119.70588 
L 355.675091 118.754942 
L 355.776545 118.72885 
L 355.928727 119.034715 
L 356.030182 119.394941 
L 356.131636 117.358978 
L 356.436 110.951746 
L 356.588182 110.412494 
L 356.689636 110.627035 
L 356.943273 112.22087 
L 358.566545 124.77803 
L 359.226 127.565611 
L 359.885455 129.376886 
L 360.240545 130.03573 
L 360.342 128.318678 
L 360.697091 121.252603 
L 360.9 120.374146 
L 361.001455 120.395165 
L 361.153636 120.606806 
L 361.305818 119.134013 
L 361.610182 116.392819 
L 361.762364 116.239162 
L 361.914545 116.615333 
L 362.218909 118.216416 
L 363.842182 127.98672 
L 364.450909 130.053125 
L 365.059636 131.417923 
L 365.719091 132.393504 
L 366.530727 133.18571 
L 367.596 133.885142 
L 369.168545 134.61719 
L 370.436727 135.086136 
L 370.538182 131.967322 
L 371.096182 105.241771 
L 371.299091 103.713168 
L 371.400545 103.837834 
L 371.603455 105.094637 
L 372.06 110.037773 
L 373.074545 120.874258 
L 373.581818 124.620749 
L 373.581818 124.620749 
" style="fill:none;stroke:#ff0000;stroke-linecap:square;stroke-width:1.5;"/>
   </g>
   <g id="line2d_17">
    <path clip-path="url(#pcfd0a4ed1c)" d="M 322.81228 70.8 
L 373.429662 70.8 
L 373.429662 70.8 
" style="fill:none;stroke:#000000;stroke-linecap:square;stroke-width:1.5;"/>
   </g>
   <g id="line2d_18">
    <path clip-path="url(#pcfd0a4ed1c)" d="M 322.81228 107.04 
L 322.81228 99.792 
L 322.81228 92.544 
L 322.81228 85.296 
L 322.81228 78.048 
" style="fill:none;stroke:#000000;stroke-linecap:square;stroke-width:1.5;"/>
   </g>
   <g id="patch_3">
    <path d="M 54 252 
L 54 34.56 
" style="fill:none;stroke:#000000;stroke-linecap:square;stroke-linejoin:miter;stroke-width:0.8;"/>
   </g>
   <g id="patch_4">
    <path d="M 54 252 
L 388.8 252 
" style="fill:none;stroke:#000000;stroke-linecap:square;stroke-linejoin:miter;stroke-width:0.8;"/>
   </g>
   <g id="text_17">
    <!-- 500 ms -->
    <g transform="translate(322.81228 63.552)scale(0.1 -0.1)">
     <use xlink:href="#DejaVuSans-35"/>
     <use x="63.623047" xlink:href="#DejaVuSans-30"/>
     <use x="127.246094" xlink:href="#DejaVuSans-30"/>
     <use x="190.869141" xlink:href="#DejaVuSans-20"/>
     <use x="222.65625" xlink:href="#DejaVuSans-6d"/>
     <use x="320.068359" xlink:href="#DejaVuSans-73"/>
    </g>
   </g>
   <g id="text_18">
    <!-- 5 mV -->
    <g transform="translate(327.884162 92.544)scale(0.1 -0.1)">
     <use xlink:href="#DejaVuSans-35"/>
     <use x="63.623047" xlink:href="#DejaVuSans-20"/>
     <use x="95.410156" xlink:href="#DejaVuSans-6d"/>
     <use x="192.822266" xlink:href="#DejaVuSans-56"/>
    </g>
   </g>
  </g>
 </g>
 <defs>
  <clipPath id="pcfd0a4ed1c">
   <rect height="217.44" width="334.8" x="54" y="34.56"/>
  </clipPath>
 </defs>
</svg>
