<?xml version="1.0" encoding="utf-8" standalone="no"?>
<!DOCTYPE svg PUBLIC "-//W3C//DTD SVG 1.1//EN"
  "http://www.w3.org/Graphics/SVG/1.1/DTD/svg11.dtd">
<svg height="288pt" version="1.1" viewBox="0 0 432 288" width="432pt" xmlns="http://www.w3.org/2000/svg" xmlns:xlink="http://www.w3.org/1999/xlink">
 <metadata>
  <rdf:RDF xmlns:cc="http://creativecommons.org/ns#" xmlns:dc="http://purl.org/dc/elements/1.1/" xmlns:rdf="http://www.w3.org/1999/02/22-rdf-syntax-ns#">
   <cc:Work>
    <dc:type rdf:resource="http://purl.org/dc/dcmitype/StillImage"/>
    <dc:date>2021-07-08T12:22:20.378293</dc:date>
    <dc:format>image/svg+xml</dc:format>
    <dc:creator>
     <cc:Agent>
      <dc:title>Matplotlib v3.4.1, https://matplotlib.org/</dc:title>
     </cc:Agent>
    </dc:creator>
   </cc:Work>
  </rdf:RDF>
 </metadata>
 <defs>
  <style type="text/css">*{stroke-linecap:butt;stroke-linejoin:round;}</style>
 </defs>
 <g id="figure_1">
  <g id="patch_1">
   <path d="M 0 288 
L 432 288 
L 432 0 
L 0 0 
z
" style="fill:none;"/>
  </g>
  <g id="axes_1">
   <g id="patch_2">
    <path d="M 54 252 
L 388.8 252 
L 388.8 34.56 
L 54 34.56 
z
" style="fill:#ffffff;"/>
   </g>
   <g id="matplotlib.axis_1">
    <g id="xtick_1">
     <g id="line2d_1">
      <defs>
       <path d="M 0 0 
L 0 3.5 
" id="m441b823723" style="stroke:#000000;stroke-width:0.8;"/>
      </defs>
      <g>
       <use style="stroke:#000000;stroke-width:0.8;" x="69.218182" xlink:href="#m441b823723" y="252"/>
      </g>
     </g>
     <g id="text_1">
      <!-- 0 -->
      <g transform="translate(66.036932 266.598437)scale(0.1 -0.1)">
       <defs>
        <path d="M 2034 4250 
Q 1547 4250 1301 3770 
Q 1056 3291 1056 2328 
Q 1056 1369 1301 889 
Q 1547 409 2034 409 
Q 2525 409 2770 889 
Q 3016 1369 3016 2328 
Q 3016 3291 2770 3770 
Q 2525 4250 2034 4250 
z
M 2034 4750 
Q 2819 4750 3233 4129 
Q 3647 3509 3647 2328 
Q 3647 1150 3233 529 
Q 2819 -91 2034 -91 
Q 1250 -91 836 529 
Q 422 1150 422 2328 
Q 422 3509 836 4129 
Q 1250 4750 2034 4750 
z
" id="DejaVuSans-30" transform="scale(0.015625)"/>
       </defs>
       <use xlink:href="#DejaVuSans-30"/>
      </g>
     </g>
    </g>
    <g id="xtick_2">
     <g id="line2d_2">
      <g>
       <use style="stroke:#000000;stroke-width:0.8;" x="119.937001" xlink:href="#m441b823723" y="252"/>
      </g>
     </g>
     <g id="text_2">
      <!-- 500 -->
      <g transform="translate(110.393251 266.598437)scale(0.1 -0.1)">
       <defs>
        <path d="M 691 4666 
L 3169 4666 
L 3169 4134 
L 1269 4134 
L 1269 2991 
Q 1406 3038 1543 3061 
Q 1681 3084 1819 3084 
Q 2600 3084 3056 2656 
Q 3513 2228 3513 1497 
Q 3513 744 3044 326 
Q 2575 -91 1722 -91 
Q 1428 -91 1123 -41 
Q 819 9 494 109 
L 494 744 
Q 775 591 1075 516 
Q 1375 441 1709 441 
Q 2250 441 2565 725 
Q 2881 1009 2881 1497 
Q 2881 1984 2565 2268 
Q 2250 2553 1709 2553 
Q 1456 2553 1204 2497 
Q 953 2441 691 2322 
L 691 4666 
z
" id="DejaVuSans-35" transform="scale(0.015625)"/>
       </defs>
       <use xlink:href="#DejaVuSans-35"/>
       <use x="63.623047" xlink:href="#DejaVuSans-30"/>
       <use x="127.246094" xlink:href="#DejaVuSans-30"/>
      </g>
     </g>
    </g>
    <g id="xtick_3">
     <g id="line2d_3">
      <g>
       <use style="stroke:#000000;stroke-width:0.8;" x="170.655821" xlink:href="#m441b823723" y="252"/>
      </g>
     </g>
     <g id="text_3">
      <!-- 1000 -->
      <g transform="translate(157.930821 266.598437)scale(0.1 -0.1)">
       <defs>
        <path d="M 794 531 
L 1825 531 
L 1825 4091 
L 703 3866 
L 703 4441 
L 1819 4666 
L 2450 4666 
L 2450 531 
L 3481 531 
L 3481 0 
L 794 0 
L 794 531 
z
" id="DejaVuSans-31" transform="scale(0.015625)"/>
       </defs>
       <use xlink:href="#DejaVuSans-31"/>
       <use x="63.623047" xlink:href="#DejaVuSans-30"/>
       <use x="127.246094" xlink:href="#DejaVuSans-30"/>
       <use x="190.869141" xlink:href="#DejaVuSans-30"/>
      </g>
     </g>
    </g>
    <g id="xtick_4">
     <g id="line2d_4">
      <g>
       <use style="stroke:#000000;stroke-width:0.8;" x="221.374641" xlink:href="#m441b823723" y="252"/>
      </g>
     </g>
     <g id="text_4">
      <!-- 1500 -->
      <g transform="translate(208.649641 266.598437)scale(0.1 -0.1)">
       <use xlink:href="#DejaVuSans-31"/>
       <use x="63.623047" xlink:href="#DejaVuSans-35"/>
       <use x="127.246094" xlink:href="#DejaVuSans-30"/>
       <use x="190.869141" xlink:href="#DejaVuSans-30"/>
      </g>
     </g>
    </g>
    <g id="xtick_5">
     <g id="line2d_5">
      <g>
       <use style="stroke:#000000;stroke-width:0.8;" x="272.09346" xlink:href="#m441b823723" y="252"/>
      </g>
     </g>
     <g id="text_5">
      <!-- 2000 -->
      <g transform="translate(259.36846 266.598437)scale(0.1 -0.1)">
       <defs>
        <path d="M 1228 531 
L 3431 531 
L 3431 0 
L 469 0 
L 469 531 
Q 828 903 1448 1529 
Q 2069 2156 2228 2338 
Q 2531 2678 2651 2914 
Q 2772 3150 2772 3378 
Q 2772 3750 2511 3984 
Q 2250 4219 1831 4219 
Q 1534 4219 1204 4116 
Q 875 4013 500 3803 
L 500 4441 
Q 881 4594 1212 4672 
Q 1544 4750 1819 4750 
Q 2544 4750 2975 4387 
Q 3406 4025 3406 3419 
Q 3406 3131 3298 2873 
Q 3191 2616 2906 2266 
Q 2828 2175 2409 1742 
Q 1991 1309 1228 531 
z
" id="DejaVuSans-32" transform="scale(0.015625)"/>
       </defs>
       <use xlink:href="#DejaVuSans-32"/>
       <use x="63.623047" xlink:href="#DejaVuSans-30"/>
       <use x="127.246094" xlink:href="#DejaVuSans-30"/>
       <use x="190.869141" xlink:href="#DejaVuSans-30"/>
      </g>
     </g>
    </g>
    <g id="xtick_6">
     <g id="line2d_6">
      <g>
       <use style="stroke:#000000;stroke-width:0.8;" x="322.81228" xlink:href="#m441b823723" y="252"/>
      </g>
     </g>
     <g id="text_6">
      <!-- 2500 -->
      <g transform="translate(310.08728 266.598437)scale(0.1 -0.1)">
       <use xlink:href="#DejaVuSans-32"/>
       <use x="63.623047" xlink:href="#DejaVuSans-35"/>
       <use x="127.246094" xlink:href="#DejaVuSans-30"/>
       <use x="190.869141" xlink:href="#DejaVuSans-30"/>
      </g>
     </g>
    </g>
    <g id="xtick_7">
     <g id="line2d_7">
      <g>
       <use style="stroke:#000000;stroke-width:0.8;" x="373.531099" xlink:href="#m441b823723" y="252"/>
      </g>
     </g>
     <g id="text_7">
      <!-- 3000 -->
      <g transform="translate(360.806099 266.598437)scale(0.1 -0.1)">
       <defs>
        <path d="M 2597 2516 
Q 3050 2419 3304 2112 
Q 3559 1806 3559 1356 
Q 3559 666 3084 287 
Q 2609 -91 1734 -91 
Q 1441 -91 1130 -33 
Q 819 25 488 141 
L 488 750 
Q 750 597 1062 519 
Q 1375 441 1716 441 
Q 2309 441 2620 675 
Q 2931 909 2931 1356 
Q 2931 1769 2642 2001 
Q 2353 2234 1838 2234 
L 1294 2234 
L 1294 2753 
L 1863 2753 
Q 2328 2753 2575 2939 
Q 2822 3125 2822 3475 
Q 2822 3834 2567 4026 
Q 2313 4219 1838 4219 
Q 1578 4219 1281 4162 
Q 984 4106 628 3988 
L 628 4550 
Q 988 4650 1302 4700 
Q 1616 4750 1894 4750 
Q 2613 4750 3031 4423 
Q 3450 4097 3450 3541 
Q 3450 3153 3228 2886 
Q 3006 2619 2597 2516 
z
" id="DejaVuSans-33" transform="scale(0.015625)"/>
       </defs>
       <use xlink:href="#DejaVuSans-33"/>
       <use x="63.623047" xlink:href="#DejaVuSans-30"/>
       <use x="127.246094" xlink:href="#DejaVuSans-30"/>
       <use x="190.869141" xlink:href="#DejaVuSans-30"/>
      </g>
     </g>
    </g>
    <g id="text_8">
     <!-- Time(ms) -->
     <g transform="translate(197.789844 280.276563)scale(0.1 -0.1)">
      <defs>
       <path d="M -19 4666 
L 3928 4666 
L 3928 4134 
L 2272 4134 
L 2272 0 
L 1638 0 
L 1638 4134 
L -19 4134 
L -19 4666 
z
" id="DejaVuSans-54" transform="scale(0.015625)"/>
       <path d="M 603 3500 
L 1178 3500 
L 1178 0 
L 603 0 
L 603 3500 
z
M 603 4863 
L 1178 4863 
L 1178 4134 
L 603 4134 
L 603 4863 
z
" id="DejaVuSans-69" transform="scale(0.015625)"/>
       <path d="M 3328 2828 
Q 3544 3216 3844 3400 
Q 4144 3584 4550 3584 
Q 5097 3584 5394 3201 
Q 5691 2819 5691 2113 
L 5691 0 
L 5113 0 
L 5113 2094 
Q 5113 2597 4934 2840 
Q 4756 3084 4391 3084 
Q 3944 3084 3684 2787 
Q 3425 2491 3425 1978 
L 3425 0 
L 2847 0 
L 2847 2094 
Q 2847 2600 2669 2842 
Q 2491 3084 2119 3084 
Q 1678 3084 1418 2786 
Q 1159 2488 1159 1978 
L 1159 0 
L 581 0 
L 581 3500 
L 1159 3500 
L 1159 2956 
Q 1356 3278 1631 3431 
Q 1906 3584 2284 3584 
Q 2666 3584 2933 3390 
Q 3200 3197 3328 2828 
z
" id="DejaVuSans-6d" transform="scale(0.015625)"/>
       <path d="M 3597 1894 
L 3597 1613 
L 953 1613 
Q 991 1019 1311 708 
Q 1631 397 2203 397 
Q 2534 397 2845 478 
Q 3156 559 3463 722 
L 3463 178 
Q 3153 47 2828 -22 
Q 2503 -91 2169 -91 
Q 1331 -91 842 396 
Q 353 884 353 1716 
Q 353 2575 817 3079 
Q 1281 3584 2069 3584 
Q 2775 3584 3186 3129 
Q 3597 2675 3597 1894 
z
M 3022 2063 
Q 3016 2534 2758 2815 
Q 2500 3097 2075 3097 
Q 1594 3097 1305 2825 
Q 1016 2553 972 2059 
L 3022 2063 
z
" id="DejaVuSans-65" transform="scale(0.015625)"/>
       <path d="M 1984 4856 
Q 1566 4138 1362 3434 
Q 1159 2731 1159 2009 
Q 1159 1288 1364 580 
Q 1569 -128 1984 -844 
L 1484 -844 
Q 1016 -109 783 600 
Q 550 1309 550 2009 
Q 550 2706 781 3412 
Q 1013 4119 1484 4856 
L 1984 4856 
z
" id="DejaVuSans-28" transform="scale(0.015625)"/>
       <path d="M 2834 3397 
L 2834 2853 
Q 2591 2978 2328 3040 
Q 2066 3103 1784 3103 
Q 1356 3103 1142 2972 
Q 928 2841 928 2578 
Q 928 2378 1081 2264 
Q 1234 2150 1697 2047 
L 1894 2003 
Q 2506 1872 2764 1633 
Q 3022 1394 3022 966 
Q 3022 478 2636 193 
Q 2250 -91 1575 -91 
Q 1294 -91 989 -36 
Q 684 19 347 128 
L 347 722 
Q 666 556 975 473 
Q 1284 391 1588 391 
Q 1994 391 2212 530 
Q 2431 669 2431 922 
Q 2431 1156 2273 1281 
Q 2116 1406 1581 1522 
L 1381 1569 
Q 847 1681 609 1914 
Q 372 2147 372 2553 
Q 372 3047 722 3315 
Q 1072 3584 1716 3584 
Q 2034 3584 2315 3537 
Q 2597 3491 2834 3397 
z
" id="DejaVuSans-73" transform="scale(0.015625)"/>
       <path d="M 513 4856 
L 1013 4856 
Q 1481 4119 1714 3412 
Q 1947 2706 1947 2009 
Q 1947 1309 1714 600 
Q 1481 -109 1013 -844 
L 513 -844 
Q 928 -128 1133 580 
Q 1338 1288 1338 2009 
Q 1338 2731 1133 3434 
Q 928 4138 513 4856 
z
" id="DejaVuSans-29" transform="scale(0.015625)"/>
      </defs>
      <use xlink:href="#DejaVuSans-54"/>
      <use x="57.958984" xlink:href="#DejaVuSans-69"/>
      <use x="85.742188" xlink:href="#DejaVuSans-6d"/>
      <use x="183.154297" xlink:href="#DejaVuSans-65"/>
      <use x="244.677734" xlink:href="#DejaVuSans-28"/>
      <use x="283.691406" xlink:href="#DejaVuSans-6d"/>
      <use x="381.103516" xlink:href="#DejaVuSans-73"/>
      <use x="433.203125" xlink:href="#DejaVuSans-29"/>
     </g>
    </g>
   </g>
   <g id="matplotlib.axis_2">
    <g id="ytick_1">
     <g id="line2d_8">
      <defs>
       <path d="M 0 0 
L -3.5 0 
" id="m19a9ab7880" style="stroke:#000000;stroke-width:0.8;"/>
      </defs>
      <g>
       <use style="stroke:#000000;stroke-width:0.8;" x="54" xlink:href="#m19a9ab7880" y="252"/>
      </g>
     </g>
     <g id="text_9">
      <!-- −100 -->
      <g transform="translate(19.532812 255.799219)scale(0.1 -0.1)">
       <defs>
        <path d="M 678 2272 
L 4684 2272 
L 4684 1741 
L 678 1741 
L 678 2272 
z
" id="DejaVuSans-2212" transform="scale(0.015625)"/>
       </defs>
       <use xlink:href="#DejaVuSans-2212"/>
       <use x="83.789062" xlink:href="#DejaVuSans-31"/>
       <use x="147.412109" xlink:href="#DejaVuSans-30"/>
       <use x="211.035156" xlink:href="#DejaVuSans-30"/>
      </g>
     </g>
    </g>
    <g id="ytick_2">
     <g id="line2d_9">
      <g>
       <use style="stroke:#000000;stroke-width:0.8;" x="54" xlink:href="#m19a9ab7880" y="215.76"/>
      </g>
     </g>
     <g id="text_10">
      <!-- −95 -->
      <g transform="translate(25.895312 219.559219)scale(0.1 -0.1)">
       <defs>
        <path d="M 703 97 
L 703 672 
Q 941 559 1184 500 
Q 1428 441 1663 441 
Q 2288 441 2617 861 
Q 2947 1281 2994 2138 
Q 2813 1869 2534 1725 
Q 2256 1581 1919 1581 
Q 1219 1581 811 2004 
Q 403 2428 403 3163 
Q 403 3881 828 4315 
Q 1253 4750 1959 4750 
Q 2769 4750 3195 4129 
Q 3622 3509 3622 2328 
Q 3622 1225 3098 567 
Q 2575 -91 1691 -91 
Q 1453 -91 1209 -44 
Q 966 3 703 97 
z
M 1959 2075 
Q 2384 2075 2632 2365 
Q 2881 2656 2881 3163 
Q 2881 3666 2632 3958 
Q 2384 4250 1959 4250 
Q 1534 4250 1286 3958 
Q 1038 3666 1038 3163 
Q 1038 2656 1286 2365 
Q 1534 2075 1959 2075 
z
" id="DejaVuSans-39" transform="scale(0.015625)"/>
       </defs>
       <use xlink:href="#DejaVuSans-2212"/>
       <use x="83.789062" xlink:href="#DejaVuSans-39"/>
       <use x="147.412109" xlink:href="#DejaVuSans-35"/>
      </g>
     </g>
    </g>
    <g id="ytick_3">
     <g id="line2d_10">
      <g>
       <use style="stroke:#000000;stroke-width:0.8;" x="54" xlink:href="#m19a9ab7880" y="179.52"/>
      </g>
     </g>
     <g id="text_11">
      <!-- −90 -->
      <g transform="translate(25.895312 183.319219)scale(0.1 -0.1)">
       <use xlink:href="#DejaVuSans-2212"/>
       <use x="83.789062" xlink:href="#DejaVuSans-39"/>
       <use x="147.412109" xlink:href="#DejaVuSans-30"/>
      </g>
     </g>
    </g>
    <g id="ytick_4">
     <g id="line2d_11">
      <g>
       <use style="stroke:#000000;stroke-width:0.8;" x="54" xlink:href="#m19a9ab7880" y="143.28"/>
      </g>
     </g>
     <g id="text_12">
      <!-- −85 -->
      <g transform="translate(25.895312 147.079219)scale(0.1 -0.1)">
       <defs>
        <path d="M 2034 2216 
Q 1584 2216 1326 1975 
Q 1069 1734 1069 1313 
Q 1069 891 1326 650 
Q 1584 409 2034 409 
Q 2484 409 2743 651 
Q 3003 894 3003 1313 
Q 3003 1734 2745 1975 
Q 2488 2216 2034 2216 
z
M 1403 2484 
Q 997 2584 770 2862 
Q 544 3141 544 3541 
Q 544 4100 942 4425 
Q 1341 4750 2034 4750 
Q 2731 4750 3128 4425 
Q 3525 4100 3525 3541 
Q 3525 3141 3298 2862 
Q 3072 2584 2669 2484 
Q 3125 2378 3379 2068 
Q 3634 1759 3634 1313 
Q 3634 634 3220 271 
Q 2806 -91 2034 -91 
Q 1263 -91 848 271 
Q 434 634 434 1313 
Q 434 1759 690 2068 
Q 947 2378 1403 2484 
z
M 1172 3481 
Q 1172 3119 1398 2916 
Q 1625 2713 2034 2713 
Q 2441 2713 2670 2916 
Q 2900 3119 2900 3481 
Q 2900 3844 2670 4047 
Q 2441 4250 2034 4250 
Q 1625 4250 1398 4047 
Q 1172 3844 1172 3481 
z
" id="DejaVuSans-38" transform="scale(0.015625)"/>
       </defs>
       <use xlink:href="#DejaVuSans-2212"/>
       <use x="83.789062" xlink:href="#DejaVuSans-38"/>
       <use x="147.412109" xlink:href="#DejaVuSans-35"/>
      </g>
     </g>
    </g>
    <g id="ytick_5">
     <g id="line2d_12">
      <g>
       <use style="stroke:#000000;stroke-width:0.8;" x="54" xlink:href="#m19a9ab7880" y="107.04"/>
      </g>
     </g>
     <g id="text_13">
      <!-- −80 -->
      <g transform="translate(25.895312 110.839219)scale(0.1 -0.1)">
       <use xlink:href="#DejaVuSans-2212"/>
       <use x="83.789062" xlink:href="#DejaVuSans-38"/>
       <use x="147.412109" xlink:href="#DejaVuSans-30"/>
      </g>
     </g>
    </g>
    <g id="ytick_6">
     <g id="line2d_13">
      <g>
       <use style="stroke:#000000;stroke-width:0.8;" x="54" xlink:href="#m19a9ab7880" y="70.8"/>
      </g>
     </g>
     <g id="text_14">
      <!-- −75 -->
      <g transform="translate(25.895312 74.599219)scale(0.1 -0.1)">
       <defs>
        <path d="M 525 4666 
L 3525 4666 
L 3525 4397 
L 1831 0 
L 1172 0 
L 2766 4134 
L 525 4134 
L 525 4666 
z
" id="DejaVuSans-37" transform="scale(0.015625)"/>
       </defs>
       <use xlink:href="#DejaVuSans-2212"/>
       <use x="83.789062" xlink:href="#DejaVuSans-37"/>
       <use x="147.412109" xlink:href="#DejaVuSans-35"/>
      </g>
     </g>
    </g>
    <g id="ytick_7">
     <g id="line2d_14">
      <g>
       <use style="stroke:#000000;stroke-width:0.8;" x="54" xlink:href="#m19a9ab7880" y="34.56"/>
      </g>
     </g>
     <g id="text_15">
      <!-- −70 -->
      <g transform="translate(25.895312 38.359219)scale(0.1 -0.1)">
       <use xlink:href="#DejaVuSans-2212"/>
       <use x="83.789062" xlink:href="#DejaVuSans-37"/>
       <use x="147.412109" xlink:href="#DejaVuSans-30"/>
      </g>
     </g>
    </g>
    <g id="text_16">
     <!-- Membrane potential (mV) -->
     <g transform="translate(13.453125 207.691719)rotate(-90)scale(0.1 -0.1)">
      <defs>
       <path d="M 628 4666 
L 1569 4666 
L 2759 1491 
L 3956 4666 
L 4897 4666 
L 4897 0 
L 4281 0 
L 4281 4097 
L 3078 897 
L 2444 897 
L 1241 4097 
L 1241 0 
L 628 0 
L 628 4666 
z
" id="DejaVuSans-4d" transform="scale(0.015625)"/>
       <path d="M 3116 1747 
Q 3116 2381 2855 2742 
Q 2594 3103 2138 3103 
Q 1681 3103 1420 2742 
Q 1159 2381 1159 1747 
Q 1159 1113 1420 752 
Q 1681 391 2138 391 
Q 2594 391 2855 752 
Q 3116 1113 3116 1747 
z
M 1159 2969 
Q 1341 3281 1617 3432 
Q 1894 3584 2278 3584 
Q 2916 3584 3314 3078 
Q 3713 2572 3713 1747 
Q 3713 922 3314 415 
Q 2916 -91 2278 -91 
Q 1894 -91 1617 61 
Q 1341 213 1159 525 
L 1159 0 
L 581 0 
L 581 4863 
L 1159 4863 
L 1159 2969 
z
" id="DejaVuSans-62" transform="scale(0.015625)"/>
       <path d="M 2631 2963 
Q 2534 3019 2420 3045 
Q 2306 3072 2169 3072 
Q 1681 3072 1420 2755 
Q 1159 2438 1159 1844 
L 1159 0 
L 581 0 
L 581 3500 
L 1159 3500 
L 1159 2956 
Q 1341 3275 1631 3429 
Q 1922 3584 2338 3584 
Q 2397 3584 2469 3576 
Q 2541 3569 2628 3553 
L 2631 2963 
z
" id="DejaVuSans-72" transform="scale(0.015625)"/>
       <path d="M 2194 1759 
Q 1497 1759 1228 1600 
Q 959 1441 959 1056 
Q 959 750 1161 570 
Q 1363 391 1709 391 
Q 2188 391 2477 730 
Q 2766 1069 2766 1631 
L 2766 1759 
L 2194 1759 
z
M 3341 1997 
L 3341 0 
L 2766 0 
L 2766 531 
Q 2569 213 2275 61 
Q 1981 -91 1556 -91 
Q 1019 -91 701 211 
Q 384 513 384 1019 
Q 384 1609 779 1909 
Q 1175 2209 1959 2209 
L 2766 2209 
L 2766 2266 
Q 2766 2663 2505 2880 
Q 2244 3097 1772 3097 
Q 1472 3097 1187 3025 
Q 903 2953 641 2809 
L 641 3341 
Q 956 3463 1253 3523 
Q 1550 3584 1831 3584 
Q 2591 3584 2966 3190 
Q 3341 2797 3341 1997 
z
" id="DejaVuSans-61" transform="scale(0.015625)"/>
       <path d="M 3513 2113 
L 3513 0 
L 2938 0 
L 2938 2094 
Q 2938 2591 2744 2837 
Q 2550 3084 2163 3084 
Q 1697 3084 1428 2787 
Q 1159 2491 1159 1978 
L 1159 0 
L 581 0 
L 581 3500 
L 1159 3500 
L 1159 2956 
Q 1366 3272 1645 3428 
Q 1925 3584 2291 3584 
Q 2894 3584 3203 3211 
Q 3513 2838 3513 2113 
z
" id="DejaVuSans-6e" transform="scale(0.015625)"/>
       <path id="DejaVuSans-20" transform="scale(0.015625)"/>
       <path d="M 1159 525 
L 1159 -1331 
L 581 -1331 
L 581 3500 
L 1159 3500 
L 1159 2969 
Q 1341 3281 1617 3432 
Q 1894 3584 2278 3584 
Q 2916 3584 3314 3078 
Q 3713 2572 3713 1747 
Q 3713 922 3314 415 
Q 2916 -91 2278 -91 
Q 1894 -91 1617 61 
Q 1341 213 1159 525 
z
M 3116 1747 
Q 3116 2381 2855 2742 
Q 2594 3103 2138 3103 
Q 1681 3103 1420 2742 
Q 1159 2381 1159 1747 
Q 1159 1113 1420 752 
Q 1681 391 2138 391 
Q 2594 391 2855 752 
Q 3116 1113 3116 1747 
z
" id="DejaVuSans-70" transform="scale(0.015625)"/>
       <path d="M 1959 3097 
Q 1497 3097 1228 2736 
Q 959 2375 959 1747 
Q 959 1119 1226 758 
Q 1494 397 1959 397 
Q 2419 397 2687 759 
Q 2956 1122 2956 1747 
Q 2956 2369 2687 2733 
Q 2419 3097 1959 3097 
z
M 1959 3584 
Q 2709 3584 3137 3096 
Q 3566 2609 3566 1747 
Q 3566 888 3137 398 
Q 2709 -91 1959 -91 
Q 1206 -91 779 398 
Q 353 888 353 1747 
Q 353 2609 779 3096 
Q 1206 3584 1959 3584 
z
" id="DejaVuSans-6f" transform="scale(0.015625)"/>
       <path d="M 1172 4494 
L 1172 3500 
L 2356 3500 
L 2356 3053 
L 1172 3053 
L 1172 1153 
Q 1172 725 1289 603 
Q 1406 481 1766 481 
L 2356 481 
L 2356 0 
L 1766 0 
Q 1100 0 847 248 
Q 594 497 594 1153 
L 594 3053 
L 172 3053 
L 172 3500 
L 594 3500 
L 594 4494 
L 1172 4494 
z
" id="DejaVuSans-74" transform="scale(0.015625)"/>
       <path d="M 603 4863 
L 1178 4863 
L 1178 0 
L 603 0 
L 603 4863 
z
" id="DejaVuSans-6c" transform="scale(0.015625)"/>
       <path d="M 1831 0 
L 50 4666 
L 709 4666 
L 2188 738 
L 3669 4666 
L 4325 4666 
L 2547 0 
L 1831 0 
z
" id="DejaVuSans-56" transform="scale(0.015625)"/>
      </defs>
      <use xlink:href="#DejaVuSans-4d"/>
      <use x="86.279297" xlink:href="#DejaVuSans-65"/>
      <use x="147.802734" xlink:href="#DejaVuSans-6d"/>
      <use x="245.214844" xlink:href="#DejaVuSans-62"/>
      <use x="308.691406" xlink:href="#DejaVuSans-72"/>
      <use x="349.804688" xlink:href="#DejaVuSans-61"/>
      <use x="411.083984" xlink:href="#DejaVuSans-6e"/>
      <use x="474.462891" xlink:href="#DejaVuSans-65"/>
      <use x="535.986328" xlink:href="#DejaVuSans-20"/>
      <use x="567.773438" xlink:href="#DejaVuSans-70"/>
      <use x="631.25" xlink:href="#DejaVuSans-6f"/>
      <use x="692.431641" xlink:href="#DejaVuSans-74"/>
      <use x="731.640625" xlink:href="#DejaVuSans-65"/>
      <use x="793.164062" xlink:href="#DejaVuSans-6e"/>
      <use x="856.542969" xlink:href="#DejaVuSans-74"/>
      <use x="895.751953" xlink:href="#DejaVuSans-69"/>
      <use x="923.535156" xlink:href="#DejaVuSans-61"/>
      <use x="984.814453" xlink:href="#DejaVuSans-6c"/>
      <use x="1012.597656" xlink:href="#DejaVuSans-20"/>
      <use x="1044.384766" xlink:href="#DejaVuSans-28"/>
      <use x="1083.398438" xlink:href="#DejaVuSans-6d"/>
      <use x="1180.810547" xlink:href="#DejaVuSans-56"/>
      <use x="1249.21875" xlink:href="#DejaVuSans-29"/>
     </g>
    </g>
   </g>
   <g id="line2d_15">
    <path clip-path="url(#p694e7d3b11)" d="M 69.218182 150.528 
L 69.268909 151.410806 
L 70.131273 196.881859 
L 70.384909 201.367646 
L 71.044364 205.775155 
L 71.247273 203.326781 
L 71.500909 201.420557 
L 71.602364 201.400262 
L 71.754545 201.980102 
L 72.058909 204.490085 
L 72.363273 207.376963 
L 73.225636 194.355931 
L 73.276364 194.415365 
L 73.428545 195.188002 
L 73.732909 198.393067 
L 74.899636 211.9548 
L 75.204 213.868272 
L 75.356182 211.43077 
L 75.711273 206.392685 
L 76.32 198.341606 
L 76.472182 196.736174 
L 76.675091 192.871541 
L 76.979455 187.955222 
L 77.080909 187.592822 
L 77.131636 187.624714 
L 77.283818 188.417645 
L 77.588182 192.069912 
L 78.856364 209.589778 
L 78.907091 209.660808 
L 79.008545 209.223029 
L 79.515818 206.154226 
L 79.668 206.143354 
L 79.870909 206.674632 
L 80.226 208.498229 
L 80.530364 210.239198 
L 80.682545 207.342173 
L 80.986909 202.82087 
L 81.139091 202.519354 
L 81.291273 202.98685 
L 81.595636 205.106165 
L 82.660909 213.213778 
L 83.218909 215.620114 
L 83.726182 216.924754 
L 84.284182 217.766246 
L 84.639273 218.07791 
L 84.740727 217.545182 
L 84.842182 215.728109 
L 85.146545 203.080349 
L 85.450909 192.899083 
L 85.653818 190.771795 
L 85.755273 190.663075 
L 85.907455 191.33424 
L 86.211818 194.555976 
L 87.378545 209.074445 
L 87.682909 205.358395 
L 87.784364 204.012442 
L 88.190182 194.979984 
L 88.291636 194.623382 
L 88.342364 194.653824 
L 88.494545 195.367027 
L 88.798909 198.451776 
L 89.813455 209.902891 
L 89.864182 209.804318 
L 89.965636 208.479384 
L 90.574364 195.185102 
L 90.675818 194.960414 
L 90.726545 195.01115 
L 90.878727 195.669269 
L 90.929455 195.927298 
L 91.081636 193.867416 
L 91.335273 191.36903 
L 91.386 191.303074 
L 91.436727 191.362507 
L 91.538182 191.671997 
L 91.639636 190.859496 
L 91.791818 187.34784 
L 92.096182 179.15905 
L 92.197636 178.566163 
L 92.248364 178.587907 
L 92.400545 179.60915 
L 92.704909 184.259467 
L 93.922364 205.366368 
L 94.176 208.03943 
L 94.226727 207.758208 
L 94.683273 201.156005 
L 94.784727 201.000173 
L 94.835455 201.058157 
L 94.987636 201.632198 
L 95.342727 204.241478 
L 95.545636 205.496832 
L 95.697818 203.83559 
L 96.002182 201.15383 
L 96.103636 201.04801 
L 96.205091 201.243706 
L 96.408 202.267848 
L 96.966 206.813794 
L 97.676182 211.907688 
L 98.082 213.789994 
L 98.183455 212.682499 
L 98.589273 205.930262 
L 98.792182 205.15835 
L 98.893636 205.243152 
L 99.096545 205.998394 
L 99.654545 209.552813 
L 99.756 209.011387 
L 100.263273 200.696482 
L 100.618364 192.692515 
L 100.973455 186.513595 
L 101.024182 186.372259 
L 101.074909 186.396902 
L 101.227091 187.277534 
L 101.43 189.288854 
L 102.038727 178.980749 
L 102.089455 179.044531 
L 102.241636 180.128107 
L 102.546 184.836408 
L 103.763455 206.105664 
L 103.814182 206.501405 
L 104.270727 193.283952 
L 104.625818 182.008963 
L 104.778 180.976848 
L 104.828727 180.996418 
L 104.980909 181.85748 
L 105.285273 185.868523 
L 105.538909 188.300227 
L 105.843273 189.32292 
L 106.147636 192.011203 
L 107.872364 210.545789 
L 108.379636 213.00721 
L 108.430364 213.085488 
L 108.531818 212.26429 
L 108.988364 204.404558 
L 109.343455 197.683488 
L 109.546364 196.982606 
L 109.647818 197.220341 
L 109.850727 198.4554 
L 110.205818 201.258202 
L 110.256545 200.95451 
L 110.662364 198.34523 
L 110.713091 198.356102 
L 110.763818 198.243034 
L 111.169636 190.960968 
L 111.524727 183.286061 
L 111.626182 182.991067 
L 111.727636 183.367238 
L 111.930545 185.485829 
L 112.488545 194.859667 
L 113.097273 203.685557 
L 113.148 203.736293 
L 113.300182 203.000621 
L 113.604545 201.582187 
L 113.706 201.548846 
L 113.858182 201.885154 
L 114.162545 203.525376 
L 115.633636 213.036202 
L 116.191636 214.815586 
L 116.242364 214.935902 
L 116.293091 214.853275 
L 116.800364 203.387664 
L 116.901818 203.139782 
L 116.952545 203.161526 
L 117.104727 203.639894 
L 117.459818 206.018688 
L 118.17 211.123454 
L 118.271455 210.12323 
L 119.590364 187.096334 
L 119.691818 187.447862 
L 119.894727 189.435264 
L 120.503455 198.975806 
L 121.162909 207.727042 
L 121.213636 207.511776 
L 121.619455 199.981104 
L 121.720909 199.762214 
L 121.771636 199.823822 
L 121.923818 200.496437 
L 122.278909 203.526826 
L 122.431091 204.937286 
L 122.481818 204.816245 
L 123.344182 195.743198 
L 123.496364 195.311218 
L 123.597818 195.438058 
L 123.648545 195.580843 
L 123.800727 192.291701 
L 124.054364 188.622038 
L 124.105091 188.495198 
L 124.155818 188.52564 
L 124.308 189.35771 
L 124.612364 193.020125 
L 125.779091 208.485182 
L 126.032727 210.578405 
L 126.083455 210.255144 
L 126.54 201.979378 
L 126.641455 201.785856 
L 126.692182 201.837317 
L 126.742909 201.73657 
L 127.250182 194.202998 
L 127.351636 194.445082 
L 127.554545 195.964987 
L 127.960364 200.358 
L 128.061818 200.073154 
L 128.416909 198.483667 
L 128.518364 198.620654 
L 128.721273 199.612906 
L 129.127091 203.18617 
L 129.989455 210.79512 
L 130.547455 213.833482 
L 131.054727 215.509944 
L 131.156182 215.746229 
L 131.257636 214.907635 
L 131.764909 207.526272 
L 131.967818 206.839162 
L 132.069273 206.871053 
L 132.272182 207.434222 
L 132.728727 209.835485 
L 133.438909 213.489202 
L 133.489636 213.577627 
L 133.591091 212.82601 
L 134.098364 204.777106 
L 134.352 195.116971 
L 134.656364 186.422995 
L 134.808545 185.685874 
L 134.91 186.038126 
L 135.112909 188.030602 
L 135.670909 196.834747 
L 136.381091 206.594904 
L 136.939091 211.309728 
L 137.243455 212.851378 
L 137.801455 202.09752 
L 137.902909 202.093896 
L 138.055091 202.633872 
L 138.410182 205.139506 
L 139.323273 211.759829 
L 139.830545 213.891466 
L 139.982727 211.499626 
L 140.337818 206.28179 
L 140.49 205.002518 
L 140.895818 195.250334 
L 141.048 194.809656 
L 141.149455 195.150312 
L 141.403091 197.068858 
L 141.504545 196.652098 
L 141.808909 194.373326 
L 141.910364 194.405218 
L 142.062545 195.131467 
L 142.366909 197.081179 
L 142.417636 197.028994 
L 142.671273 196.631803 
L 142.772727 196.789085 
L 142.975636 197.742922 
L 143.381455 201.250229 
L 144.446727 210.869774 
L 145.004727 213.809563 
L 145.512 215.422243 
L 146.07 216.473928 
L 146.678727 217.142194 
L 146.729455 217.183507 
L 146.780182 217.090733 
L 146.983091 212.193984 
L 147.591818 199.43243 
L 147.794727 198.482942 
L 147.896182 198.625003 
L 148.099091 199.737571 
L 148.555636 204.142906 
L 148.809273 206.762333 
L 148.86 206.531122 
L 149.265818 199.149034 
L 149.367273 199.004074 
L 149.468727 199.298342 
L 149.722364 201.170501 
L 151.041273 212.834707 
L 151.548545 215.133773 
L 152.055818 216.51959 
L 152.157273 215.014906 
L 152.563091 206.454293 
L 152.766 205.615699 
L 152.867455 205.74109 
L 153.121091 206.710147 
L 153.273273 204.455294 
L 153.577636 200.72185 
L 153.729818 200.172451 
L 154.186364 195.986731 
L 154.287818 196.127342 
L 154.490727 197.29572 
L 154.896545 200.855213 
L 154.947273 200.464546 
L 155.302364 197.039141 
L 155.353091 196.984056 
L 155.403818 197.036966 
L 155.505273 197.393568 
L 155.556 197.233387 
L 156.012545 193.32744 
L 156.114 193.589093 
L 156.316909 195.061162 
L 156.773455 200.021693 
L 156.824182 199.286021 
L 157.128545 195.232214 
L 157.23 195.087979 
L 157.331455 195.409066 
L 157.483636 196.316515 
L 157.534364 196.062835 
L 157.889455 191.482824 
L 158.193818 184.687099 
L 158.295273 184.241347 
L 158.346 184.291358 
L 158.498182 185.267664 
L 158.802545 189.441062 
L 158.954727 191.929301 
L 159.005455 191.474851 
L 159.309818 180.697075 
L 159.867818 164.180333 
L 159.918545 164.133946 
L 160.02 164.682619 
L 160.222909 167.640528 
L 160.730182 179.879501 
L 161.541818 198.461923 
L 161.744727 201.75179 
L 161.795455 201.184272 
L 162.759273 179.525074 
L 162.81 179.496082 
L 162.911455 179.896171 
L 163.114364 182.029258 
L 163.368 185.58875 
L 163.418727 185.502499 
L 163.672364 184.05 
L 163.723091 184.073194 
L 163.875273 184.880621 
L 164.179636 188.660453 
L 165.447818 206.547792 
L 166.005818 210.755981 
L 166.513091 212.976043 
L 166.614545 212.213554 
L 166.766727 206.433274 
L 167.172545 188.511144 
L 167.426182 185.223451 
L 167.476909 185.112557 
L 167.527636 185.140099 
L 167.679818 185.901864 
L 168.136364 189.526589 
L 168.187091 189.301901 
L 168.694364 179.206886 
L 168.745091 179.211235 
L 168.846545 179.623646 
L 169.100182 182.320627 
L 169.708909 192.64033 
L 169.810364 194.204448 
L 169.861091 193.675344 
L 170.165455 189.524414 
L 170.216182 189.464981 
L 170.266909 189.554856 
L 170.469818 190.889213 
L 170.571273 190.491298 
L 170.875636 188.148744 
L 170.926364 188.14512 
L 171.027818 188.47128 
L 171.18 189.291754 
L 171.585818 186.501998 
L 171.636545 186.570854 
L 171.788727 187.363786 
L 172.093091 190.731206 
L 172.245273 192.143117 
L 172.549636 188.914133 
L 172.752545 182.54749 
L 173.209091 170.365051 
L 173.412 168.126144 
L 173.462727 168.128318 
L 173.564182 168.300821 
L 173.665636 167.608637 
L 173.817818 164.405021 
L 174.223636 153.434448 
L 174.325091 153.091618 
L 174.426545 153.596078 
L 174.629455 156.469186 
L 175.086 167.678942 
L 175.491818 177.046258 
L 175.694727 177.114389 
L 175.846909 177.987773 
L 176.151273 181.93141 
L 177.013636 196.002677 
L 177.064364 195.951216 
L 177.165818 194.75892 
L 177.368727 187.936378 
L 177.723818 177.387638 
L 177.825273 175.667688 
L 178.535455 153.921514 
L 178.636909 153.402557 
L 178.687636 153.525048 
L 178.839818 154.354219 
L 178.890545 154.307832 
L 179.042727 153.872227 
L 179.347091 152.410306 
L 179.905091 140.055365 
L 179.955818 140.195251 
L 180.310909 141.457128 
L 180.513818 144.404165 
L 180.919636 154.549915 
L 181.325455 163.495397 
L 181.934182 170.622355 
L 182.187818 173.488939 
L 182.390727 173.401963 
L 182.441455 173.223662 
L 182.593636 168.556675 
L 182.948727 158.90089 
L 183.151636 157.01496 
L 183.405273 153.858456 
L 183.456 153.867154 
L 183.608182 154.954354 
L 183.709636 155.295734 
L 183.861818 154.437571 
L 184.267636 146.421283 
L 184.318364 146.368373 
L 184.622727 144.352704 
L 184.673455 144.446928 
L 184.825636 145.682712 
L 185.13 150.298963 
L 185.231455 149.737968 
L 185.586545 144.181651 
L 185.992364 131.847005 
L 186.043091 131.815838 
L 186.144545 132.532666 
L 186.499636 136.031275 
L 186.651818 137.41057 
L 187.463455 151.797125 
L 188.275091 174.584112 
L 188.376545 176.975227 
L 188.427273 176.942611 
L 188.630182 175.68001 
L 188.680909 175.687258 
L 188.782364 176.146781 
L 188.934545 176.917243 
L 189.238909 175.703203 
L 189.289636 175.766261 
L 189.441818 176.532374 
L 189.492545 176.829542 
L 189.543273 176.69328 
L 189.898364 174.57469 
L 189.999818 174.857362 
L 190.202727 176.540347 
L 190.507091 179.911392 
L 190.557818 179.687429 
L 190.912909 177.68843 
L 191.420182 166.70771 
L 191.470909 166.567824 
L 191.521636 166.593917 
L 191.572364 166.76497 
L 191.623091 166.649002 
L 191.927455 163.944773 
L 191.978182 163.962168 
L 192.130364 164.621011 
L 192.181091 164.51664 
L 192.282545 163.712837 
L 193.094182 144.766565 
L 193.347818 136.854648 
L 193.449273 136.125499 
L 193.5 136.179134 
L 193.652182 137.659176 
L 193.956545 141.473074 
L 194.108727 142.171781 
L 194.311636 144.924571 
L 194.717455 155.20441 
L 195.072545 162.864821 
L 195.174 162.589397 
L 195.376909 161.824008 
L 195.427636 161.849376 
L 195.529091 162.250915 
L 195.732 164.316595 
L 196.188545 170.85719 
L 196.239273 170.811528 
L 196.391455 170.690486 
L 196.492909 171.048538 
L 196.695818 172.964909 
L 197.203091 179.244576 
L 197.253818 179.234429 
L 197.355273 179.287339 
L 197.507455 179.884574 
L 197.862545 182.708395 
L 197.913273 181.894445 
L 198.369818 168.266755 
L 198.471273 167.923925 
L 198.522 168.036269 
L 198.674182 169.243061 
L 198.978545 174.084 
L 199.232182 177.758736 
L 199.333636 177.666686 
L 199.435091 177.58116 
L 199.536545 177.81672 
L 199.638 178.393661 
L 199.688727 178.366843 
L 200.043818 174.699355 
L 200.094545 174.717475 
L 200.246727 175.546646 
L 200.551091 179.453318 
L 201.312 191.82348 
L 201.362727 191.524862 
L 201.717818 189.119251 
L 201.819273 189.238118 
L 201.87 189.307699 
L 201.971455 188.478528 
L 202.326545 184.410226 
L 202.428 184.312378 
L 202.580182 184.948752 
L 202.935273 188.060318 
L 202.986 187.330445 
L 203.493273 177.831941 
L 203.594727 177.702926 
L 203.696182 178.076198 
L 203.899091 179.944008 
L 204.051273 181.391434 
L 204.102 181.270392 
L 204.254182 180.123034 
L 204.406364 175.029864 
L 204.66 169.51921 
L 204.710727 169.322789 
L 204.761455 169.346707 
L 204.913636 170.446229 
L 205.065818 171.761741 
L 205.116545 171.69216 
L 205.319455 171.226114 
L 205.370182 171.342806 
L 205.420909 171.013022 
L 205.623818 162.538661 
L 205.877455 156.396706 
L 205.928182 156.16187 
L 205.978909 156.177816 
L 206.131091 156.709094 
L 206.334 156.048802 
L 206.384727 156.10751 
L 206.536909 157.207032 
L 206.892 162.397325 
L 206.942727 161.257214 
L 207.500727 143.293771 
L 208.008 135.510869 
L 208.058727 135.72396 
L 208.210909 137.538134 
L 208.515273 144.686112 
L 209.073273 158.666779 
L 209.225455 156.465562 
L 209.682 148.378968 
L 209.783455 148.918219 
L 209.986364 151.94136 
L 210.442909 163.508443 
L 211.457455 189.463531 
L 212.015455 198.52788 
L 212.370545 202.004746 
L 212.421273 201.944587 
L 212.624182 200.546448 
L 212.928545 198.769238 
L 213.131455 198.03719 
L 213.638727 194.130518 
L 213.740182 194.099352 
L 213.892364 194.497992 
L 213.993818 192.775867 
L 214.298182 186.684648 
L 214.399636 184.597949 
L 214.957636 168.801658 
L 215.059091 168.83065 
L 215.414182 163.966517 
L 215.464909 164.06509 
L 215.617091 165.40307 
L 215.921455 170.96881 
L 216.225818 176.608478 
L 216.428727 175.437202 
L 216.479455 175.450248 
L 216.631636 176.162002 
L 216.682364 176.098219 
L 216.783818 174.909547 
L 217.138909 162.996734 
L 217.341818 160.537488 
L 217.595455 158.257992 
L 217.696909 158.577629 
L 217.899818 160.925981 
L 218.305636 169.381498 
L 218.559273 173.381669 
L 218.61 173.336731 
L 218.762182 169.38947 
L 219.218727 150.58236 
L 219.675273 144.96371 
L 219.726 144.899928 
L 219.827455 145.481218 
L 220.334727 150.967229 
L 220.385455 150.749064 
L 220.639091 147.408461 
L 220.943455 141.798509 
L 221.197091 138.828278 
L 221.298545 138.397022 
L 221.450727 136.586472 
L 222.160909 121.566442 
L 222.211636 121.678786 
L 222.363818 123.178397 
L 222.668182 126.708898 
L 222.820364 127.925112 
L 223.632 139.71181 
L 224.240727 157.711493 
L 225.052364 180.126658 
L 225.356727 178.191442 
L 225.407455 178.263197 
L 225.458182 178.410331 
L 225.508909 178.284941 
L 225.965455 174.391315 
L 226.016182 174.493512 
L 226.168364 175.435752 
L 226.472727 178.758235 
L 226.574182 178.368293 
L 226.827818 176.806349 
L 226.929273 176.884627 
L 227.081455 177.32893 
L 227.284364 174.856637 
L 227.791636 170.31504 
L 227.893091 169.998302 
L 227.943818 170.028019 
L 228.096 170.792683 
L 228.349636 173.744794 
L 229.009091 185.19156 
L 229.212 187.978416 
L 229.262727 187.937827 
L 229.820727 185.003112 
L 230.074364 183.512923 
L 230.175818 183.532493 
L 230.226545 183.663682 
L 230.277273 183.443342 
L 230.733818 177.749314 
L 230.835273 178.029811 
L 231.038182 179.807746 
L 231.494727 186.665803 
L 231.799091 190.945747 
L 231.849818 190.847899 
L 232.357091 187.580501 
L 232.661455 183.54264 
L 232.762909 183.273014 
L 232.813636 183.319402 
L 232.965818 184.039128 
L 233.168727 185.471333 
L 233.422364 178.483536 
L 233.878909 162.155242 
L 233.980364 161.864597 
L 234.081818 162.413995 
L 234.538364 166.049592 
L 234.741273 167.707934 
L 235.096364 173.500536 
L 236.110909 191.606765 
L 236.263091 191.404546 
L 236.364545 190.850074 
L 236.821091 187.31015 
L 236.922545 187.355088 
L 237.074727 187.950874 
L 237.379091 190.454333 
L 238.748727 205.163424 
L 238.799455 205.076448 
L 239.002364 202.267848 
L 239.306727 199.370822 
L 239.408182 199.187448 
L 239.458909 199.209192 
L 239.611091 199.624502 
L 239.915455 201.439402 
L 240.574909 206.356445 
L 240.625636 206.206411 
L 241.234364 199.487515 
L 241.335818 199.478818 
L 241.488 199.899926 
L 241.640182 200.443526 
L 241.792364 198.756917 
L 242.096727 195.579394 
L 242.350364 192.611338 
L 242.604 190.684819 
L 242.705455 190.616688 
L 242.857636 191.123323 
L 243.111273 193.089706 
L 243.872182 201.50101 
L 243.973636 200.999448 
L 244.176545 196.377398 
L 244.531636 189.598344 
L 244.734545 188.68872 
L 244.836 188.860498 
L 245.038909 190.087584 
L 245.444727 194.535682 
L 246.459273 206.130307 
L 246.611455 207.324778 
L 246.662182 207.059501 
L 246.865091 202.743317 
L 247.270909 193.54633 
L 247.473818 192.701213 
L 247.575273 192.939672 
L 247.727455 193.810157 
L 247.778182 193.797835 
L 248.234727 190.081786 
L 248.285455 190.184707 
L 248.437636 191.049394 
L 248.792727 194.975635 
L 249.046364 196.923898 
L 249.401455 196.797782 
L 249.604364 197.575493 
L 249.959455 200.197819 
L 250.821818 207.636442 
L 250.974 205.056154 
L 251.278364 200.856662 
L 251.379818 199.904275 
L 251.785636 192.117749 
L 251.887091 191.906832 
L 251.988545 192.180806 
L 252.191455 193.700712 
L 252.749455 200.415259 
L 253.459636 207.922013 
L 253.814727 210.187013 
L 253.916182 209.708645 
L 254.524909 205.096018 
L 254.575636 205.032235 
L 254.677091 203.430427 
L 255.032182 195.885259 
L 255.184364 195.199598 
L 255.285818 195.369202 
L 255.336545 195.272078 
L 255.742364 188.611891 
L 255.793091 188.56043 
L 255.843818 188.65393 
L 255.996 189.613565 
L 256.351091 194.016 
L 257.314909 206.485459 
L 257.872909 210.821938 
L 258.329455 212.841955 
L 258.481636 209.478158 
L 258.786 204.202339 
L 258.988909 203.460144 
L 259.090364 203.580461 
L 259.293273 204.413256 
L 259.851273 208.227154 
L 260.561455 212.457086 
L 260.865818 213.703018 
L 260.916545 213.481229 
L 261.576 204.593731 
L 261.677455 204.622723 
L 261.829636 205.074998 
L 262.184727 207.145027 
L 262.438364 208.598976 
L 262.539818 207.902443 
L 262.945636 204.486461 
L 263.047091 204.369043 
L 263.097818 204.402384 
L 263.25 204.796675 
L 263.554364 206.431824 
L 264.771818 213.781296 
L 265.329818 215.621563 
L 265.887818 216.716011 
L 266.496545 217.413269 
L 267.257455 217.91773 
L 267.916909 218.194603 
L 268.018364 216.50437 
L 268.373455 208.136554 
L 268.576364 206.779003 
L 268.677818 206.689128 
L 268.83 207.020362 
L 268.880727 207.220406 
L 268.931455 207.144302 
L 269.489455 199.783234 
L 269.590909 199.915872 
L 269.793818 200.845066 
L 269.844545 200.70083 
L 270.098182 197.853091 
L 270.656182 187.444963 
L 270.757636 187.847952 
L 271.011273 190.463755 
L 271.366364 194.988682 
L 271.417091 194.600914 
L 271.670727 192.651202 
L 271.721455 192.649752 
L 271.822909 192.991858 
L 272.076545 195.200323 
L 272.583818 200.962483 
L 272.634545 200.63125 
L 273.040364 197.378347 
L 273.141818 197.537078 
L 273.344727 198.742421 
L 273.547636 200.023142 
L 273.699818 199.205568 
L 273.953455 198.124891 
L 274.054909 198.181426 
L 274.207091 198.750394 
L 274.359273 199.615805 
L 274.41 199.279498 
L 274.765091 194.86909 
L 274.815818 194.786462 
L 274.866545 194.826326 
L 275.018727 195.523584 
L 275.170909 196.271578 
L 275.576727 193.563725 
L 275.678182 193.796386 
L 275.881091 195.225691 
L 276.388364 201.242981 
L 276.844909 206.358619 
L 276.946364 203.935613 
L 277.555091 182.135078 
L 277.960909 172.615555 
L 278.011636 172.548874 
L 278.113091 173.004773 
L 278.316 175.593034 
L 278.823273 186.201206 
L 279.584182 200.982053 
L 280.091455 207.158798 
L 280.142182 207.20736 
L 280.294364 206.131757 
L 280.598727 202.95061 
L 280.852364 192.051792 
L 281.308909 174.826195 
L 281.511818 173.280922 
L 281.613273 173.700581 
L 281.765455 174.633398 
L 281.968364 173.952086 
L 282.019091 173.983978 
L 282.120545 174.421032 
L 282.323455 176.609928 
L 282.78 185.072693 
L 283.642364 200.947262 
L 283.743818 202.22436 
L 283.794545 201.777883 
L 284.606182 188.582899 
L 284.758364 185.694571 
L 285.113455 178.266096 
L 285.265636 177.698578 
L 285.367091 178.033435 
L 285.57 179.915016 
L 285.975818 184.463136 
L 286.026545 184.449365 
L 286.077273 184.330498 
L 286.229455 181.579157 
L 286.736727 172.783709 
L 286.888909 172.111819 
L 286.990364 172.339406 
L 287.244 174.234034 
L 287.294727 173.544024 
L 287.548364 170.292571 
L 287.599091 170.257056 
L 287.700545 170.737598 
L 287.903455 173.307014 
L 288.410727 183.76153 
L 289.222364 199.395466 
L 289.780364 206.154226 
L 290.287636 209.910864 
L 290.794909 212.182387 
L 290.845636 212.352715 
L 290.896364 212.207755 
L 291.200727 205.078622 
L 291.708 193.876838 
L 291.860182 191.421941 
L 292.519636 179.072074 
L 292.570364 179.006117 
L 292.621091 179.096717 
L 292.773273 180.138979 
L 293.077636 184.441392 
L 293.737091 196.185326 
L 293.787818 196.076606 
L 294.142909 191.857546 
L 294.193636 191.802461 
L 294.244364 191.871317 
L 294.396545 192.662798 
L 294.751636 196.376674 
L 295.258909 202.446149 
L 295.309636 202.31496 
L 295.563273 196.720229 
L 295.867636 189.03445 
L 296.070545 188.020454 
L 296.172 188.315448 
L 296.273455 188.880792 
L 296.324182 188.587973 
L 296.679273 185.202432 
L 296.73 185.215478 
L 296.831455 185.592374 
L 297.085091 188.032051 
L 298.809818 209.125181 
L 299.317091 211.851878 
L 299.824364 213.524717 
L 299.976545 213.78492 
L 300.128727 211.325674 
L 300.737455 196.650648 
L 301.041818 187.868971 
L 301.447636 181.639315 
L 301.904182 175.479965 
L 302.005636 175.20599 
L 302.056364 175.311086 
L 302.208545 176.428728 
L 302.512909 181.032658 
L 302.817273 185.411174 
L 302.969455 185.143723 
L 303.121636 183.61512 
L 303.375273 181.255171 
L 303.426 181.152974 
L 303.476727 181.179067 
L 303.628909 181.936483 
L 303.882545 184.840032 
L 305.556545 208.00464 
L 306.063818 211.222752 
L 306.571091 213.184061 
L 307.129091 214.475654 
L 307.636364 215.204803 
L 307.687091 215.086661 
L 307.839273 212.970245 
L 308.194364 204.572712 
L 308.498727 197.395018 
L 308.701636 196.393344 
L 308.803091 196.596288 
L 309.006 197.87411 
L 309.107455 198.461923 
L 309.208909 196.496266 
L 309.614727 185.754005 
L 309.766909 185.131402 
L 309.868364 185.469158 
L 310.071273 187.34639 
L 310.274182 189.348288 
L 310.629273 186.706392 
L 310.730727 187.009358 
L 310.832182 185.909837 
L 311.238 175.523453 
L 311.643818 163.749077 
L 311.846727 161.865322 
L 311.897455 161.886341 
L 311.998909 162.426317 
L 312.201818 165.062414 
L 312.962727 176.809248 
L 313.216364 179.542469 
L 313.47 183.419424 
L 313.520727 183.025133 
L 313.977273 170.481019 
L 314.028 170.371574 
L 314.078727 170.470147 
L 314.230909 171.74507 
L 314.535273 176.949859 
L 315.803455 200.955235 
L 316.361455 206.786976 
L 316.868727 210.013061 
L 317.376 211.985966 
L 317.934 213.310176 
L 318.339818 213.950899 
L 318.441273 211.892467 
L 319.506545 181.734264 
L 319.608 181.995917 
L 319.760182 179.954155 
L 319.963091 177.983424 
L 320.013818 177.951533 
L 320.115273 178.366843 
L 320.318182 180.627494 
L 320.470364 182.032882 
L 320.724 181.097165 
L 320.774727 181.161672 
L 320.926909 182.050277 
L 321.231273 185.996088 
L 321.637091 192.25981 
L 321.687818 192.031498 
L 322.042909 185.585851 
L 322.195091 182.224954 
L 322.651636 170.73325 
L 322.803818 170.157034 
L 322.905273 170.563646 
L 322.956 170.029469 
L 323.412545 149.363971 
L 323.514 148.609454 
L 323.564727 148.628299 
L 323.666182 149.289317 
L 323.919818 153.449669 
L 324.782182 170.249083 
L 325.137273 174.190546 
L 325.188 174.091248 
L 325.390909 173.428056 
L 325.543091 171.486317 
L 325.746 164.807285 
L 326.151818 147.217838 
L 326.506909 125.310034 
L 326.709818 122.657266 
L 326.811273 123.149405 
L 327.014182 126.42985 
L 327.42 138.068688 
L 328.130182 158.77115 
L 328.180909 159.355339 
L 328.231636 159.350266 
L 328.383818 157.994165 
L 328.738909 152.709648 
L 328.789636 152.704574 
L 328.891091 153.239477 
L 329.094 156.028507 
L 329.550545 166.782365 
L 329.804182 171.725501 
L 329.905636 169.932346 
L 330.21 163.954195 
L 330.311455 163.782418 
L 330.412909 164.306448 
L 330.565091 165.157363 
L 330.818727 163.82808 
L 330.869455 163.870843 
L 331.021636 164.88049 
L 331.326 169.708382 
L 332.188364 187.21955 
L 332.239091 186.865848 
L 332.492727 184.736386 
L 332.543455 184.700146 
L 332.594182 184.785672 
L 332.746364 185.612669 
L 333.101455 189.428741 
L 333.811636 197.774813 
L 333.963818 196.541928 
L 334.420364 191.651702 
L 334.876909 179.701925 
L 335.029091 177.797875 
L 335.536364 167.299872 
L 335.739273 165.726331 
L 335.79 165.727781 
L 335.891455 166.141642 
L 336.094364 168.274728 
L 336.348 171.964685 
L 336.398727 171.83567 
L 336.601636 170.894155 
L 336.703091 171.140587 
L 336.906 173.080877 
L 337.311818 180.144053 
L 338.275636 197.445754 
L 338.326364 197.940792 
L 338.377091 197.754518 
L 338.529273 194.70456 
L 338.935091 185.525693 
L 339.138 184.407326 
L 339.239455 184.559534 
L 339.442364 185.848954 
L 339.898909 190.60799 
L 339.949636 190.027426 
L 340.254 186.434592 
L 340.304727 186.35124 
L 340.355455 186.394728 
L 340.507636 187.122427 
L 340.812 190.207901 
L 342.080182 204.639394 
L 342.486 207.150101 
L 342.638182 205.662811 
L 343.145455 197.939342 
L 343.449818 191.26176 
L 343.602 190.525363 
L 343.652727 190.543483 
L 343.804909 191.166086 
L 344.109273 193.976136 
L 345.377455 207.160248 
L 345.478909 207.652387 
L 345.631091 204.877128 
L 345.935455 199.99415 
L 346.138364 199.367198 
L 346.239818 199.546949 
L 346.442727 200.506584 
L 347.051455 204.856834 
L 347.102182 204.50748 
L 347.609455 198.681538 
L 347.710909 198.672115 
L 347.863091 199.188173 
L 348.218182 201.732221 
L 348.319636 202.166376 
L 348.725455 194.497992 
L 348.826909 194.324765 
L 348.928364 194.622658 
L 349.182 196.603536 
L 350.145818 206.330352 
L 350.196545 206.146978 
L 350.348727 204.29149 
L 350.500909 195.928022 
L 350.805273 182.424998 
L 351.008182 180.130282 
L 351.058909 180.102014 
L 351.160364 180.513701 
L 351.363273 182.679403 
L 351.921273 192.349685 
L 352.428545 200.202893 
L 352.479273 200.081851 
L 352.631455 195.692462 
L 352.935818 187.602245 
L 353.088 186.682474 
L 353.138727 186.706392 
L 353.290909 187.489176 
L 353.595273 191.022576 
L 354.812727 207.055877 
L 355.370727 211.08504 
L 355.878 213.285533 
L 356.385273 214.620614 
L 356.943273 215.515742 
L 357.602727 216.167338 
L 358.211455 216.566702 
L 358.312909 216.190531 
L 358.566545 212.601322 
L 359.073818 195.941069 
L 359.276727 195.145238 
L 359.378182 195.442406 
L 359.631818 197.354429 
L 360.747818 208.730165 
L 360.798545 208.369214 
L 361.001455 204.485011 
L 361.711636 187.084738 
L 361.813091 186.788294 
L 361.863818 186.84048 
L 362.016 187.63631 
L 362.320364 191.109552 
L 362.776909 197.273251 
L 362.827636 197.268902 
L 363.182727 196.258531 
L 363.233455 196.30057 
L 363.284182 196.383922 
L 363.334909 196.316515 
L 363.537818 194.508139 
L 363.791455 192.871541 
L 363.892909 192.867917 
L 364.045091 193.473125 
L 364.400182 195.405442 
L 364.704545 195.007526 
L 364.907455 189.641107 
L 365.211818 177.958056 
L 365.364 176.627323 
L 365.414727 176.662114 
L 365.566909 177.770333 
L 365.871273 182.649686 
L 366.530727 195.71783 
L 366.581455 195.261931 
L 366.885818 190.883414 
L 366.936545 190.844275 
L 367.038 191.201602 
L 367.291636 193.668096 
L 367.697455 198.12924 
L 368.103273 196.721678 
L 368.154 196.789085 
L 368.306182 197.370374 
L 368.610545 199.737571 
L 369.219273 205.312733 
L 369.27 205.067026 
L 369.777273 201.581462 
L 369.878727 201.6264 
L 370.030909 202.101869 
L 370.335273 203.995771 
L 371.146909 209.871725 
L 371.299091 208.027834 
L 371.603455 204.474139 
L 371.806364 203.988523 
L 371.958545 204.30961 
L 372.009273 204.476314 
L 372.110727 203.108616 
L 372.871636 188.076264 
L 372.922364 188.162515 
L 373.074545 189.12215 
L 373.429636 193.676069 
L 373.581818 196.008475 
L 373.581818 196.008475 
" style="fill:none;stroke:#000000;stroke-linecap:square;stroke-width:1.5;"/>
   </g>
   <g id="line2d_16">
    <path clip-path="url(#p694e7d3b11)" d="M 69.218182 150.528 
L 69.268909 150.333754 
L 69.725455 171.865387 
L 70.232727 188.00161 
L 70.486364 189.895512 
L 70.892182 191.881464 
L 71.044364 192.657725 
L 71.247273 190.066565 
L 71.500909 187.875494 
L 71.602364 187.734883 
L 71.653091 187.79939 
L 71.805273 188.432866 
L 72.109636 190.997933 
L 72.363273 193.43616 
L 72.819818 185.08139 
L 73.124182 180.415853 
L 73.276364 179.993294 
L 73.377818 180.287563 
L 73.580727 181.828488 
L 74.088 188.221949 
L 74.899636 197.997326 
L 75.204 200.397139 
L 75.356182 198.18215 
L 76.066364 186.311376 
L 76.32 184.515322 
L 76.522909 181.927786 
L 77.131636 172.229962 
L 77.233091 172.440878 
L 77.436 174.02819 
L 77.841818 179.756285 
L 78.856364 194.492194 
L 78.907091 194.659622 
L 78.957818 194.605262 
L 79.160727 193.306421 
L 79.465091 191.707512 
L 79.617273 191.579947 
L 79.769455 191.840875 
L 80.023091 192.901258 
L 80.530364 196.038192 
L 80.581091 195.496042 
L 80.986909 188.772797 
L 81.139091 188.424893 
L 81.240545 188.639434 
L 81.494182 190.1202 
L 83.218909 202.833192 
L 83.776909 204.756811 
L 84.334909 205.949107 
L 84.639273 206.368766 
L 84.740727 205.876627 
L 84.842182 204.064627 
L 85.146545 190.969666 
L 85.501636 178.872029 
L 85.755273 176.648342 
L 85.856727 176.707051 
L 86.008909 177.48911 
L 86.313273 180.662285 
L 87.378545 194.218944 
L 87.429273 193.850746 
L 87.835091 188.135698 
L 88.139455 180.82319 
L 88.342364 179.838912 
L 88.443818 180.115061 
L 88.646727 181.618296 
L 89.154 187.779096 
L 89.813455 195.440232 
L 89.864182 195.417038 
L 89.965636 194.221118 
L 90.625091 180.233928 
L 90.726545 180.08172 
L 90.828 180.305683 
L 90.929455 180.731866 
L 91.081636 178.532822 
L 91.335273 175.703203 
L 91.436727 175.548096 
L 91.538182 175.721323 
L 91.639636 174.795754 
L 91.791818 171.102173 
L 92.096182 162.313973 
L 92.248364 161.389853 
L 92.349818 161.710214 
L 92.552727 163.823731 
L 93.009273 172.003099 
L 93.973091 189.154766 
L 94.176 191.738678 
L 94.226727 191.596618 
L 94.734 185.642386 
L 94.835455 185.727912 
L 95.038364 186.685373 
L 95.545636 190.573925 
L 95.596364 190.244866 
L 96.052909 186.254842 
L 96.154364 186.29688 
L 96.306545 186.839755 
L 96.610909 188.975741 
L 97.980545 199.864411 
L 98.082 200.363074 
L 98.132727 200.120266 
L 98.792182 191.798112 
L 98.893636 191.82348 
L 99.045818 192.256186 
L 99.400909 194.300846 
L 99.654545 196.022246 
L 99.705273 195.964262 
L 99.908182 193.25351 
L 100.263273 187.062994 
L 100.719818 175.836566 
L 100.973455 171.560246 
L 101.074909 171.189874 
L 101.125636 171.239885 
L 101.277818 172.126315 
L 101.43 173.379494 
L 102.089455 162.184234 
L 102.190909 162.569102 
L 102.393818 164.757274 
L 102.850364 173.094648 
L 103.763455 189.678797 
L 103.814182 190.199928 
L 104.22 180.066499 
L 104.625818 165.983635 
L 104.828727 164.51664 
L 104.930182 164.751475 
L 105.133091 166.483747 
L 105.589636 170.74847 
L 105.741818 171.013022 
L 105.944727 172.082827 
L 106.299818 175.851062 
L 107.923091 195.581568 
L 108.430364 198.832296 
L 108.531818 198.186499 
L 108.937636 191.901758 
L 109.343455 183.331723 
L 109.546364 182.308306 
L 109.647818 182.398906 
L 109.850727 183.391882 
L 110.205818 186.006235 
L 110.256545 185.701819 
L 110.662364 182.962075 
L 110.713091 182.949754 
L 110.763818 182.81784 
L 111.169636 175.248029 
L 111.524727 166.993282 
L 111.626182 166.485922 
L 111.676909 166.497518 
L 111.778364 166.948344 
L 112.032 169.786661 
L 112.792909 182.759131 
L 113.148 187.210128 
L 113.249455 186.961522 
L 113.604545 185.543813 
L 113.706 185.566282 
L 113.858182 185.979418 
L 114.162545 187.78417 
L 115.988727 200.788531 
L 116.242364 201.760488 
L 116.293091 201.737294 
L 116.800364 190.402147 
L 116.952545 190.052794 
L 117.054 190.229645 
L 117.307636 191.508192 
L 118.17 197.819026 
L 118.220727 197.561722 
L 118.728 189.445411 
L 119.590364 172.103846 
L 119.641091 172.091525 
L 119.742545 172.472045 
L 119.996182 175.045085 
L 120.858545 188.329944 
L 121.162909 192.324317 
L 121.213636 192.201826 
L 121.619455 185.104584 
L 121.720909 184.890768 
L 121.771636 184.948752 
L 121.923818 185.602522 
L 122.278909 188.63436 
L 122.431091 190.090483 
L 122.481818 189.996984 
L 123.496364 179.653363 
L 123.597818 179.617123 
L 123.648545 179.683805 
L 123.800727 176.232307 
L 124.054364 172.148059 
L 124.155818 171.85524 
L 124.206545 171.924096 
L 124.358727 172.787333 
L 124.663091 176.351899 
L 126.032727 194.579894 
L 126.083455 194.366078 
L 126.54 186.583901 
L 126.641455 186.393278 
L 126.692182 186.441115 
L 126.742909 186.339643 
L 127.300909 178.403808 
L 127.402364 178.716922 
L 127.656 180.769555 
L 127.960364 183.954326 
L 128.011091 183.909389 
L 128.467636 181.924886 
L 128.518364 181.995917 
L 128.670545 182.581555 
L 128.974909 184.932082 
L 130.496727 198.495264 
L 131.054727 201.127013 
L 131.156182 201.479266 
L 131.206909 201.33793 
L 131.409818 198.012547 
L 131.764909 193.213646 
L 132.018545 192.22212 
L 132.12 192.24169 
L 132.272182 192.580171 
L 132.576545 193.947869 
L 133.489636 198.886656 
L 133.540364 198.681538 
L 133.794 195.407616 
L 134.047636 191.440786 
L 134.352 179.861381 
L 134.656364 170.236762 
L 134.859273 168.914726 
L 134.960727 169.203197 
L 135.163636 170.96881 
L 135.670909 178.448021 
L 136.533273 190.615238 
L 137.142 196.151261 
L 137.243455 196.704283 
L 137.852182 186.275136 
L 137.953636 186.383856 
L 138.156545 187.297829 
L 138.663818 191.235667 
L 139.475455 197.13264 
L 139.830545 198.824323 
L 139.982727 196.567296 
L 140.337818 191.212474 
L 140.49 189.743304 
L 140.946545 178.643717 
L 141.098727 178.158826 
L 141.200182 178.388587 
L 141.403091 179.46709 
L 141.453818 179.288064 
L 141.910364 175.474891 
L 141.961091 175.503883 
L 142.113273 176.075026 
L 142.316182 177.158602 
L 142.366909 177.115838 
L 142.772727 175.940213 
L 142.823455 176.00327 
L 142.975636 176.517878 
L 143.28 178.599504 
L 145.055455 192.935323 
L 145.613455 195.016224 
L 146.120727 196.118645 
L 146.628 196.727477 
L 146.729455 196.807205 
L 146.780182 196.712256 
L 146.932364 193.184654 
L 147.591818 177.040459 
L 147.845455 174.944338 
L 147.946909 174.809525 
L 147.997636 174.856637 
L 148.149818 175.362547 
L 148.454182 177.455045 
L 148.809273 180.655762 
L 148.86 180.417302 
L 149.265818 172.720651 
L 149.418 172.382894 
L 149.570182 172.885181 
L 149.874545 175.212514 
L 151.244182 187.067342 
L 151.802182 189.803462 
L 152.055818 190.686269 
L 152.106545 190.376779 
L 152.715273 179.349672 
L 152.867455 179.064101 
L 152.968909 179.198189 
L 153.121091 179.514926 
L 153.273273 177.010742 
L 153.577636 172.440154 
L 153.780545 170.735424 
L 154.186364 165.790838 
L 154.287818 165.609638 
L 154.338545 165.648778 
L 154.490727 166.177157 
L 154.795091 168.493618 
L 154.845818 168.903854 
L 154.896545 168.879936 
L 155.099455 166.223544 
L 155.353091 164.123074 
L 155.454545 164.092632 
L 155.505273 164.192654 
L 155.606727 163.308398 
L 155.961818 159.108182 
L 156.063273 158.860301 
L 156.114 158.888568 
L 156.266182 159.48073 
L 156.570545 162.230621 
L 156.773455 164.178883 
L 157.23 159.116155 
L 157.331455 159.313301 
L 157.483636 160.05912 
L 157.534364 159.777898 
L 157.889455 154.819541 
L 158.244545 146.935166 
L 158.346 146.521306 
L 158.396727 146.548848 
L 158.548909 147.352651 
L 158.853273 151.011442 
L 158.954727 152.479162 
L 159.005455 152.019638 
L 159.259091 143.008925 
L 159.918545 121.787506 
L 159.969273 121.676611 
L 160.02 121.760688 
L 160.172182 122.955158 
L 160.476545 128.032382 
L 161.744727 156.341621 
L 161.846182 155.137003 
L 162.454909 141.407842 
L 162.708545 136.313947 
L 162.860727 135.744979 
L 162.962182 136.08781 
L 163.165091 137.958518 
L 163.368 140.338762 
L 163.418727 140.190178 
L 163.723091 138.25931 
L 163.824545 138.510091 
L 164.027455 140.251061 
L 164.433273 146.353877 
L 165.752182 167.273054 
L 166.411636 174.096322 
L 166.563818 174.873307 
L 166.665273 173.649845 
L 166.918909 160.964395 
L 167.274 147.88248 
L 167.527636 145.015896 
L 167.629091 144.868037 
L 167.730545 145.125341 
L 168.034909 146.817024 
L 168.085636 146.741645 
L 168.187091 146.131363 
L 168.694364 134.179411 
L 168.795818 133.851802 
L 168.846545 133.876445 
L 168.998727 134.543261 
L 169.252364 137.051794 
L 169.810364 145.321037 
L 169.861091 144.857165 
L 170.165455 140.980934 
L 170.216182 140.921501 
L 170.266909 141.007752 
L 170.419091 141.951442 
L 170.520545 142.363128 
L 170.926364 139.773418 
L 170.977091 139.877789 
L 171.18 140.927299 
L 171.230727 140.638104 
L 171.585818 138.183931 
L 171.687273 138.345562 
L 171.890182 139.742976 
L 172.245273 143.65907 
L 172.296 143.33291 
L 172.600364 139.794437 
L 173.412 117.865613 
L 173.665636 116.166682 
L 173.868545 110.308123 
L 174.223636 99.027336 
L 174.375818 97.890125 
L 174.426545 97.923466 
L 174.578727 98.951957 
L 174.883091 103.74216 
L 175.491818 115.904304 
L 175.542545 115.84487 
L 175.694727 115.667294 
L 175.796182 115.993454 
L 175.999091 117.882283 
L 176.404909 124.745414 
L 177.064364 137.148192 
L 177.115091 137.08441 
L 177.216545 135.839928 
L 177.520909 125.535446 
L 178.636909 95.755589 
L 178.687636 95.654842 
L 178.738364 95.759938 
L 178.789091 95.891126 
L 178.839818 95.808499 
L 179.042727 94.444426 
L 179.397818 90.052138 
L 179.854364 76.649136 
L 180.158727 75.189389 
L 180.260182 74.953104 
L 180.310909 75.015437 
L 180.463091 75.991018 
L 180.716727 79.673002 
L 181.376182 89.91515 
L 181.528364 90.706632 
L 181.832727 94.169002 
L 182.137091 97.740091 
L 182.187818 97.72777 
L 182.390727 96.879029 
L 182.492182 95.28012 
L 183.151636 74.998042 
L 183.456 69.511306 
L 183.557455 69.262699 
L 183.608182 69.325032 
L 183.658909 69.244579 
L 183.811091 67.768162 
L 183.912545 65.713354 
L 184.216909 58.433462 
L 184.673455 54.414446 
L 184.774909 54.613766 
L 184.927091 55.920581 
L 185.13 58.100054 
L 185.180727 57.88044 
L 185.485091 54.090461 
L 185.688 47.020037 
L 185.941636 39.420509 
L 186.043091 38.793557 
L 186.093818 38.866762 
L 186.246 40.218514 
L 186.398182 41.332531 
L 186.499636 41.183222 
L 186.550364 41.249904 
L 186.702545 42.352325 
L 187.615636 54.938477 
L 188.427273 75.447418 
L 188.579455 75.345946 
L 188.680909 75.801845 
L 189.137455 79.108382 
L 189.289636 80.017282 
L 189.594 82.745429 
L 189.644727 82.699042 
L 189.746182 82.692518 
L 189.847636 83.028826 
L 190.050545 84.952445 
L 190.405636 91.43723 
L 190.608545 93.2688 
L 190.760727 93.843566 
L 190.862182 94.366872 
L 190.963636 93.220963 
L 191.369455 86.586144 
L 191.470909 86.286077 
L 191.521636 86.354208 
L 191.572364 86.5644 
L 191.623091 86.537582 
L 191.927455 84.560328 
L 191.978182 84.650203 
L 192.181091 85.503293 
L 192.231818 85.303248 
L 192.333273 84.022526 
L 192.637636 78.653208 
L 192.891273 75.58513 
L 193.043455 70.452096 
L 193.347818 60.121522 
L 193.5 59.011853 
L 193.601455 59.475 
L 193.956545 62.901854 
L 194.007273 62.885909 
L 194.108727 63.050438 
L 194.260909 64.230413 
L 194.514545 68.548046 
L 195.072545 80.162242 
L 195.123273 80.102808 
L 195.376909 79.22435 
L 195.427636 79.294656 
L 195.579818 80.31445 
L 195.833455 84.168936 
L 196.239273 90.493541 
L 196.391455 90.938568 
L 196.594364 92.83537 
L 196.949455 99.381763 
L 197.203091 103.184789 
L 197.456727 105.272213 
L 197.862545 111.322843 
L 197.913273 110.957544 
L 198.420545 99.789101 
L 198.471273 99.815194 
L 198.623455 100.846584 
L 198.927818 105.744782 
L 199.282909 111.371405 
L 199.485818 112.02445 
L 199.688727 113.565374 
L 199.739455 113.292125 
L 199.993091 111.454032 
L 200.094545 111.684518 
L 200.297455 113.611762 
L 200.652545 119.815325 
L 201.362727 134.149694 
L 201.413455 134.082288 
L 201.565636 133.884418 
L 201.667091 134.118528 
L 201.920727 135.547834 
L 201.971455 135.277483 
L 202.326545 132.662405 
L 202.428 132.856651 
L 202.630909 134.421494 
L 202.935273 138.078835 
L 202.986 137.569301 
L 203.544 128.828213 
L 203.594727 128.823864 
L 203.696182 129.174667 
L 203.899091 131.015659 
L 204.051273 132.515995 
L 204.102 132.425395 
L 204.254182 131.26644 
L 204.406364 126.295762 
L 204.66 120.615504 
L 204.761455 120.263976 
L 204.812182 120.380669 
L 205.065818 122.162952 
L 205.167273 121.794754 
L 205.420909 120.963408 
L 205.623818 112.596317 
L 205.877455 105.866549 
L 205.978909 105.284534 
L 206.029636 105.325123 
L 206.080364 105.406301 
L 206.181818 104.941704 
L 206.435455 103.674754 
L 206.486182 103.682002 
L 206.587636 104.116882 
L 206.841273 107.116829 
L 206.892 106.939253 
L 207.044182 101.069098 
L 207.399273 87.879187 
L 207.957273 75.598901 
L 208.058727 75.252446 
L 208.160182 75.721392 
L 208.363091 78.42997 
L 208.768909 87.791486 
L 209.022545 92.607058 
L 209.073273 92.734622 
L 209.225455 90.336259 
L 209.682 81.38353 
L 209.732727 81.410347 
L 209.834182 82.044547 
L 210.087818 86.09183 
L 210.595091 99.279566 
L 212.370545 148.327507 
L 212.573455 149.851037 
L 212.928545 151.320931 
L 213.131455 152.33855 
L 213.182182 152.279842 
L 213.537273 151.267296 
L 213.588 151.30861 
L 213.740182 151.803648 
L 213.892364 152.783578 
L 213.943091 152.550192 
L 214.551818 139.02325 
L 214.856182 129.497203 
L 215.515636 121.961458 
L 215.566364 122.056406 
L 215.718545 123.229133 
L 216.022909 128.16647 
L 216.175091 131.123654 
L 216.225818 131.114232 
L 216.479455 129.950203 
L 216.631636 130.645286 
L 216.682364 130.598174 
L 216.783818 129.461688 
L 217.138909 117.615557 
L 217.392545 113.886461 
L 217.646182 111.554054 
L 217.747636 111.822955 
L 217.950545 113.922701 
L 218.356364 121.69763 
L 218.559273 124.314883 
L 218.61 124.269946 
L 218.762182 120.566218 
L 219.269455 101.200286 
L 219.726 95.326507 
L 219.827455 95.58671 
L 220.030364 98.151778 
L 220.182545 99.42815 
L 220.284 99.59123 
L 220.385455 99.102715 
L 220.740545 93.489864 
L 221.247818 85.306872 
L 221.450727 82.832405 
L 222.262364 65.144386 
L 222.313091 65.259629 
L 222.566727 66.806352 
L 222.617455 66.617179 
L 222.820364 66.017045 
L 222.921818 66.300442 
L 223.023273 66.705605 
L 223.074 66.637474 
L 223.327636 65.640874 
L 223.378364 65.702482 
L 223.530545 66.636024 
L 223.784182 70.250602 
L 224.240727 80.551459 
L 225.103091 102.989093 
L 225.204545 102.92821 
L 225.306 103.25147 
L 225.559636 105.069269 
L 225.610364 104.91996 
L 225.813273 104.221978 
L 225.864 104.260392 
L 225.965455 104.719915 
L 226.168364 107.086387 
L 226.574182 113.029022 
L 226.624909 112.979011 
L 226.726364 112.905806 
L 226.827818 113.185579 
L 227.081455 115.356355 
L 227.182909 115.008451 
L 227.436545 113.831376 
L 227.538 113.56175 
L 227.842364 112.062864 
L 227.943818 112.324517 
L 228.146727 114.184354 
L 228.501818 120.30384 
L 229.364182 136.598794 
L 229.516364 137.130797 
L 229.668545 137.790365 
L 229.719273 137.757749 
L 229.972909 137.250389 
L 230.023636 137.308373 
L 230.175818 137.983162 
L 230.277273 138.410069 
L 230.683091 134.496149 
L 230.733818 134.562106 
L 230.886 135.494198 
L 231.190364 139.653101 
L 231.849818 151.100592 
L 231.900545 151.052755 
L 232.103455 150.724421 
L 232.255636 151.103491 
L 232.407818 149.431378 
L 232.661455 147.133762 
L 232.712182 147.055483 
L 232.762909 147.096797 
L 232.915091 147.82957 
L 233.168727 150.03876 
L 233.422364 143.717054 
L 233.878909 127.125658 
L 233.980364 126.566112 
L 234.031091 126.6096 
L 234.183273 127.725067 
L 234.386182 129.175392 
L 234.538364 129.339922 
L 234.690545 130.085741 
L 234.944182 133.1328 
L 235.451455 143.248109 
L 236.110909 155.735688 
L 236.313818 156.14375 
L 236.466 155.303707 
L 236.719636 153.905568 
L 236.821091 153.894696 
L 236.973273 154.46149 
L 237.226909 156.550363 
L 237.734182 163.06559 
L 238.799455 177.362995 
L 238.900909 176.588909 
L 239.256 173.256278 
L 239.357455 173.081602 
L 239.408182 173.112768 
L 239.560364 173.587512 
L 239.864727 175.674936 
L 240.574909 182.324976 
L 240.676364 181.800221 
L 241.132909 176.483088 
L 241.285091 176.117064 
L 241.335818 176.135909 
L 241.488 176.530925 
L 241.640182 177.073075 
L 241.741636 176.142432 
L 242.299636 169.519934 
L 242.604 166.464178 
L 242.705455 166.23949 
L 242.756182 166.261234 
L 242.908364 166.767869 
L 243.162 168.687864 
L 243.72 175.162502 
L 243.922909 176.827368 
L 244.024364 175.747416 
L 244.683818 163.738205 
L 244.785273 163.548307 
L 244.836 163.591795 
L 244.988182 164.178158 
L 245.292545 166.810632 
L 246.002727 175.974278 
L 246.611455 183.36289 
L 246.662182 183.26939 
L 246.814364 180.86088 
L 247.321636 170.064259 
L 247.473818 169.486594 
L 247.575273 169.62648 
L 247.727455 170.370125 
L 247.778182 170.332435 
L 248.234727 166.237315 
L 248.336182 166.442434 
L 248.539091 167.876088 
L 249.097091 172.911998 
L 249.3 172.791682 
L 249.452182 173.102621 
L 249.705818 174.55512 
L 250.162364 178.908269 
L 250.821818 185.790245 
L 250.872545 185.383632 
L 251.329091 179.55624 
L 251.481273 176.227958 
L 251.785636 170.939818 
L 251.887091 170.609309 
L 251.937818 170.632502 
L 252.09 171.276125 
L 252.394364 174.184022 
L 253.814727 190.272408 
L 253.865455 190.231094 
L 254.017636 189.12505 
L 254.423455 185.905488 
L 254.626364 185.090813 
L 255.133636 175.27992 
L 255.336545 174.924043 
L 255.793091 167.462952 
L 255.843818 167.452805 
L 255.945273 167.801434 
L 256.198909 170.138914 
L 256.909091 180.260746 
L 257.67 189.411346 
L 258.278727 194.196475 
L 258.329455 194.321866 
L 258.481636 191.263934 
L 258.786 186.183086 
L 258.988909 185.413349 
L 259.090364 185.504674 
L 259.293273 186.284558 
L 259.749818 189.425117 
L 260.713636 195.969336 
L 260.865818 196.737624 
L 260.916545 196.583242 
L 261.220909 190.708013 
L 261.474545 187.975517 
L 261.677455 187.546435 
L 261.829636 187.876219 
L 262.134 189.462806 
L 262.438364 191.282779 
L 262.489091 191.066789 
L 263.047091 186.897739 
L 263.148545 186.973118 
L 263.351455 187.667477 
L 263.757273 190.267334 
L 264.873273 197.771189 
L 265.482 200.307989 
L 266.090727 201.922843 
L 266.750182 203.019466 
L 267.511091 203.819645 
L 267.916909 204.124786 
L 268.018364 202.473691 
L 268.424182 193.244813 
L 268.677818 191.945246 
L 268.779273 191.974238 
L 268.880727 192.206174 
L 268.931455 192.07571 
L 269.540182 183.707894 
L 269.641636 183.805742 
L 269.793818 184.300056 
L 269.844545 184.08624 
L 270.098182 180.840586 
L 270.656182 169.077806 
L 270.706909 169.087954 
L 270.859091 169.823626 
L 271.163455 173.299042 
L 271.366364 175.505333 
L 271.721455 173.075078 
L 271.772182 173.178725 
L 271.924364 174.071678 
L 272.279455 178.132008 
L 272.583818 181.689326 
L 272.736 180.368016 
L 272.989636 178.453819 
L 273.091091 178.429901 
L 273.243273 179.057578 
L 273.547636 181.181242 
L 273.598364 181.031933 
L 274.004182 179.338075 
L 274.105636 179.514926 
L 274.359273 180.813043 
L 274.41 180.493406 
L 274.815818 175.946011 
L 274.917273 176.09387 
L 275.170909 177.346325 
L 275.221636 177.03901 
L 275.576727 174.512357 
L 275.678182 174.704429 
L 275.881091 176.090246 
L 276.337636 181.631342 
L 276.844909 188.095834 
L 276.946364 185.885918 
L 277.758 156.360466 
L 278.011636 152.402333 
L 278.062364 152.355946 
L 278.163818 152.787202 
L 278.366727 155.172518 
L 278.823273 164.133946 
L 279.837818 184.057248 
L 280.142182 187.734883 
L 280.192909 187.676899 
L 280.446545 185.973619 
L 280.598727 184.462411 
L 280.801636 176.375818 
L 281.308909 155.410978 
L 281.511818 153.059002 
L 281.562545 152.988696 
L 281.613273 153.083645 
L 281.714727 153.592454 
L 281.765455 153.489533 
L 282.019091 152.093568 
L 282.069818 152.105165 
L 282.171273 152.502355 
L 282.374182 154.578182 
L 282.78 161.809512 
L 283.743818 180.707222 
L 283.794545 180.454267 
L 284.098909 174.552946 
L 284.403273 169.338734 
L 284.707636 166.608413 
L 285.164182 156.722141 
L 285.316364 156.287986 
L 285.417818 156.642413 
L 285.620727 158.452238 
L 285.975818 161.90591 
L 286.077273 161.694269 
L 286.229455 158.832034 
L 286.736727 149.20524 
L 286.939636 148.212989 
L 287.041091 148.495661 
L 287.244 149.761162 
L 287.599091 145.210867 
L 287.649818 145.250006 
L 287.802 146.292269 
L 288.106364 151.055654 
L 290.084727 187.984939 
L 290.693455 193.539082 
L 290.896364 194.579894 
L 291.099273 190.19268 
L 292.621091 159.619166 
L 292.722545 159.888067 
L 292.925455 161.704416 
L 293.331273 168.091354 
L 293.737091 175.412558 
L 293.787818 175.387915 
L 294.142909 171.640699 
L 294.193636 171.62113 
L 294.295091 171.92772 
L 294.498 173.54185 
L 295.056 180.726792 
L 295.258909 183.393331 
L 295.309636 183.367963 
L 295.512545 179.716421 
L 295.918364 170.064259 
L 296.070545 169.438757 
L 296.172 169.641701 
L 296.273455 170.117894 
L 296.374909 169.116221 
L 296.679273 166.029298 
L 296.73 165.965515 
L 296.780727 166.02205 
L 296.932909 166.809182 
L 297.237273 170.265754 
L 298.860545 192.069187 
L 299.469273 196.399867 
L 299.976545 198.634426 
L 300.128727 196.394069 
L 300.686727 183.881122 
L 301.041818 171.878434 
L 301.650545 160.855675 
L 302.005636 155.977771 
L 302.056364 155.906741 
L 302.107091 155.985744 
L 302.259273 156.98017 
L 302.563636 161.25359 
L 302.817273 164.426765 
L 302.969455 164.076686 
L 303.121636 162.487925 
L 303.426 159.801091 
L 303.476727 159.782971 
L 303.578182 160.102608 
L 303.781091 161.889965 
L 304.186909 168.108024 
L 305.404364 187.816061 
L 306.013091 193.892784 
L 306.571091 197.45735 
L 307.129091 199.736122 
L 307.636364 201.100195 
L 307.687091 201.035688 
L 307.839273 199.042488 
L 308.143636 192.41999 
L 308.498727 182.748984 
L 308.701636 181.300834 
L 308.803091 181.296485 
L 308.955273 181.898794 
L 309.107455 182.676504 
L 309.208909 180.60865 
L 309.614727 168.97416 
L 309.817636 167.915227 
L 309.919091 168.242837 
L 310.122 170.012798 
L 310.223455 171.197846 
L 310.274182 171.164506 
L 310.629273 168.137016 
L 310.68 168.186302 
L 310.730727 168.32329 
L 310.832182 167.137517 
L 311.187273 158.144198 
L 311.694545 142.186277 
L 311.897455 140.225693 
L 311.948182 140.208298 
L 312.049636 140.642453 
L 312.252545 142.979933 
L 312.912 152.174746 
L 313.165636 154.390459 
L 313.47 158.931331 
L 313.520727 158.599373 
L 313.977273 146.166878 
L 314.028 146.007422 
L 314.078727 146.053085 
L 314.230909 147.180874 
L 314.535273 152.225482 
L 316.26 185.872147 
L 316.868727 192.18443 
L 317.426727 195.881635 
L 318.035455 198.445978 
L 318.339818 199.351253 
L 318.441273 197.445754 
L 319.05 176.188819 
L 319.354364 166.788163 
L 319.557273 165.476275 
L 319.608 165.45743 
L 319.810909 162.039274 
L 320.013818 160.145371 
L 320.064545 160.121453 
L 320.166 160.517194 
L 320.470364 163.081536 
L 320.521091 162.818434 
L 320.774727 161.742106 
L 320.876182 162.08711 
L 321.079091 163.981013 
L 321.535636 171.271776 
L 321.637091 172.452475 
L 321.687818 172.266926 
L 321.890727 168.450854 
L 322.347273 157.175141 
L 322.651636 149.951059 
L 322.854545 148.97113 
L 322.905273 149.106667 
L 322.956 148.468118 
L 323.463273 125.965978 
L 323.564727 125.383238 
L 323.615455 125.43325 
L 323.767636 126.604526 
L 324.072 131.849904 
L 324.63 142.242811 
L 324.883636 144.211368 
L 325.137273 146.70613 
L 325.188 146.587987 
L 325.390909 145.860288 
L 325.543091 143.880134 
L 325.746 137.08151 
L 326.151818 118.764365 
L 326.506909 96.102768 
L 326.709818 92.935392 
L 326.760545 92.911474 
L 326.862 93.510883 
L 327.064909 96.556493 
L 327.470727 106.666728 
L 328.130182 122.881954 
L 328.180909 123.356698 
L 328.231636 123.27697 
L 328.383818 121.756339 
L 328.738909 116.053613 
L 328.789636 115.963013 
L 328.840364 116.060136 
L 328.992545 117.323462 
L 329.296909 122.945736 
L 329.804182 134.766499 
L 329.854909 134.446138 
L 330.21 128.104862 
L 330.260727 128.005565 
L 330.311455 128.096165 
L 330.463636 129.305131 
L 330.565091 129.861778 
L 330.615818 129.697248 
L 330.818727 128.972448 
L 330.920182 129.342096 
L 331.123091 131.686099 
L 331.528909 140.188003 
L 332.188364 155.955302 
L 332.239091 155.895869 
L 332.442 155.03988 
L 332.543455 155.329075 
L 332.746364 157.166443 
L 333.202909 164.223821 
L 333.811636 173.941939 
L 333.862364 173.900626 
L 334.318909 171.982805 
L 334.471091 168.305894 
L 334.876909 158.073168 
L 335.029091 156.050251 
L 335.587091 143.846069 
L 335.79 142.326163 
L 335.840727 142.326163 
L 335.942182 142.710307 
L 336.145091 144.681763 
L 336.348 147.217838 
L 336.398727 147.020693 
L 336.652364 145.761715 
L 336.753818 146.119042 
L 336.956727 148.183997 
L 337.362545 155.390683 
L 338.377091 174.575414 
L 338.529273 172.132114 
L 338.985818 163.14097 
L 339.138 162.508219 
L 339.188727 162.528514 
L 339.340909 163.13952 
L 339.594545 165.468302 
L 339.898909 168.819778 
L 340.304727 164.782642 
L 340.355455 164.835552 
L 340.507636 165.596592 
L 340.812 168.8292 
L 342.435273 189.156216 
L 342.486 189.33959 
L 342.536727 189.175061 
L 342.993273 184.687099 
L 343.094727 182.625768 
L 343.449818 174.04921 
L 343.652727 173.062757 
L 343.754182 173.265701 
L 343.957091 174.561643 
L 344.413636 179.616398 
L 345.428182 190.850074 
L 345.478909 191.082734 
L 345.580364 189.698366 
L 345.935455 183.864451 
L 346.138364 183.225178 
L 346.239818 183.386808 
L 346.442727 184.319626 
L 346.899273 187.832006 
L 347.051455 188.872094 
L 347.152909 187.921157 
L 347.558727 182.891045 
L 347.710909 182.661283 
L 347.863091 183.10921 
L 348.167455 185.177064 
L 348.319636 186.074366 
L 348.776182 178.30596 
L 348.826909 178.257398 
L 348.877636 178.32408 
L 349.029818 179.060477 
L 349.384909 182.496754 
L 350.145818 190.579723 
L 350.247273 190.13977 
L 350.348727 188.738006 
L 350.500909 180.429624 
L 350.805273 166.367054 
L 351.008182 163.48235 
L 351.109636 163.292453 
L 351.211091 163.68457 
L 351.414 165.692266 
L 351.870545 173.122915 
L 352.428545 182.298158 
L 352.479273 182.260469 
L 352.580727 179.970826 
L 352.935818 170.015698 
L 353.138727 168.963288 
L 353.240182 169.295246 
L 353.443091 171.047813 
L 353.899636 177.554342 
L 354.863455 191.023301 
L 355.472182 196.436107 
L 356.030182 199.581739 
L 356.588182 201.57059 
L 357.196909 202.939738 
L 357.856364 203.88995 
L 358.211455 204.258149 
L 358.262182 204.192192 
L 358.414364 202.762886 
L 358.617273 198.093 
L 358.972364 184.271064 
L 359.226 181.356643 
L 359.327455 181.189214 
L 359.378182 181.254446 
L 359.530364 181.903867 
L 359.834727 184.491403 
L 360.747818 193.843498 
L 360.798545 193.541981 
L 361.001455 189.81216 
L 361.762364 170.795582 
L 361.863818 170.510736 
L 361.914545 170.555674 
L 362.066727 171.288446 
L 362.371091 174.576864 
L 362.827636 179.906318 
L 363.182727 178.961179 
L 363.284182 179.088744 
L 363.334909 179.027136 
L 363.487091 177.752938 
L 363.791455 175.418357 
L 363.892909 175.348051 
L 364.045091 175.872082 
L 364.400182 177.735542 
L 364.704545 177.269496 
L 364.907455 171.880608 
L 365.262545 159.111806 
L 365.414727 158.231174 
L 365.516182 158.623291 
L 365.719091 160.91221 
L 366.175636 169.485869 
L 366.530727 176.662114 
L 366.581455 176.31421 
L 366.885818 172.477118 
L 366.936545 172.495963 
L 367.088727 173.351952 
L 367.393091 177.079598 
L 367.697455 180.628219 
L 367.849636 180.107813 
L 368.052545 179.573635 
L 368.154 179.686704 
L 368.356909 180.651413 
L 368.712 183.914462 
L 369.219273 189.103306 
L 369.27 188.934427 
L 369.828 185.76995 
L 369.980182 186.11423 
L 370.233818 187.549334 
L 370.893273 193.191178 
L 371.146909 194.991581 
L 371.248364 194.07181 
L 371.654182 189.656328 
L 371.806364 189.415694 
L 371.958545 189.730982 
L 372.009273 189.897686 
L 372.110727 188.551008 
L 372.516545 177.976176 
L 372.770182 173.058408 
L 372.922364 172.518432 
L 373.023818 172.85329 
L 373.226727 174.625426 
L 373.581818 179.525798 
L 373.581818 179.525798 
" style="fill:none;stroke:#800080;stroke-linecap:square;stroke-width:1.5;"/>
   </g>
   <g id="line2d_17">
    <path clip-path="url(#p694e7d3b11)" d="M 322.81228 70.8 
L 373.429662 70.8 
L 373.429662 70.8 
" style="fill:none;stroke:#000000;stroke-linecap:square;stroke-width:1.5;"/>
   </g>
   <g id="line2d_18">
    <path clip-path="url(#p694e7d3b11)" d="M 322.81228 107.04 
L 322.81228 99.792 
L 322.81228 92.544 
L 322.81228 85.296 
L 322.81228 78.048 
" style="fill:none;stroke:#000000;stroke-linecap:square;stroke-width:1.5;"/>
   </g>
   <g id="patch_3">
    <path d="M 54 252 
L 54 34.56 
" style="fill:none;stroke:#000000;stroke-linecap:square;stroke-linejoin:miter;stroke-width:0.8;"/>
   </g>
   <g id="patch_4">
    <path d="M 54 252 
L 388.8 252 
" style="fill:none;stroke:#000000;stroke-linecap:square;stroke-linejoin:miter;stroke-width:0.8;"/>
   </g>
   <g id="text_17">
    <!-- 500 ms -->
    <g transform="translate(322.81228 63.552)scale(0.1 -0.1)">
     <use xlink:href="#DejaVuSans-35"/>
     <use x="63.623047" xlink:href="#DejaVuSans-30"/>
     <use x="127.246094" xlink:href="#DejaVuSans-30"/>
     <use x="190.869141" xlink:href="#DejaVuSans-20"/>
     <use x="222.65625" xlink:href="#DejaVuSans-6d"/>
     <use x="320.068359" xlink:href="#DejaVuSans-73"/>
    </g>
   </g>
   <g id="text_18">
    <!-- 5 mV -->
    <g transform="translate(327.884162 92.544)scale(0.1 -0.1)">
     <use xlink:href="#DejaVuSans-35"/>
     <use x="63.623047" xlink:href="#DejaVuSans-20"/>
     <use x="95.410156" xlink:href="#DejaVuSans-6d"/>
     <use x="192.822266" xlink:href="#DejaVuSans-56"/>
    </g>
   </g>
  </g>
 </g>
 <defs>
  <clipPath id="p694e7d3b11">
   <rect height="217.44" width="334.8" x="54" y="34.56"/>
  </clipPath>
 </defs>
</svg>
