<?xml version="1.0" encoding="utf-8" standalone="no"?>
<!DOCTYPE svg PUBLIC "-//W3C//DTD SVG 1.1//EN"
  "http://www.w3.org/Graphics/SVG/1.1/DTD/svg11.dtd">
<svg xmlns:xlink="http://www.w3.org/1999/xlink" width="460.8pt" height="345.6pt" viewBox="0 0 460.8 345.6" xmlns="http://www.w3.org/2000/svg" version="1.1">
 <metadata>
  <rdf:RDF xmlns:dc="http://purl.org/dc/elements/1.1/" xmlns:cc="http://creativecommons.org/ns#" xmlns:rdf="http://www.w3.org/1999/02/22-rdf-syntax-ns#">
   <cc:Work>
    <dc:type rdf:resource="http://purl.org/dc/dcmitype/StillImage"/>
    <dc:date>2023-02-10T19:08:35.179813</dc:date>
    <dc:format>image/svg+xml</dc:format>
    <dc:creator>
     <cc:Agent>
      <dc:title>Matplotlib v3.6.3, https://matplotlib.org/</dc:title>
     </cc:Agent>
    </dc:creator>
   </cc:Work>
  </rdf:RDF>
 </metadata>
 <defs>
  <style type="text/css">*{stroke-linejoin: round; stroke-linecap: butt}</style>
 </defs>
 <g id="figure_1">
  <g id="patch_1">
   <path d="M 0 345.6 
L 460.8 345.6 
L 460.8 0 
L 0 0 
z
" style="fill: #ffffff"/>
  </g>
  <g id="axes_1">
   <g id="patch_2">
    <path d="M 57.6 307.584 
L 414.72 307.584 
L 414.72 41.472 
L 57.6 41.472 
z
" style="fill: #ffffff"/>
   </g>
   <g id="matplotlib.axis_1">
    <g id="xtick_1">
     <g id="line2d_1">
      <defs>
       <path id="m2c7988afea" d="M 0 0 
L 0 3.5 
" style="stroke: #000000; stroke-width: 0.8"/>
      </defs>
      <g>
       <use xlink:href="#m2c7988afea" x="73.832727" y="307.584" style="stroke: #000000; stroke-width: 0.8"/>
      </g>
     </g>
     <g id="text_1">
      <!-- 0 -->
      <g transform="translate(70.651477 322.182437) scale(0.1 -0.1)">
       <defs>
        <path id="DejaVuSans-30" d="M 2034 4250 
Q 1547 4250 1301 3770 
Q 1056 3291 1056 2328 
Q 1056 1369 1301 889 
Q 1547 409 2034 409 
Q 2525 409 2770 889 
Q 3016 1369 3016 2328 
Q 3016 3291 2770 3770 
Q 2525 4250 2034 4250 
z
M 2034 4750 
Q 2819 4750 3233 4129 
Q 3647 3509 3647 2328 
Q 3647 1150 3233 529 
Q 2819 -91 2034 -91 
Q 1250 -91 836 529 
Q 422 1150 422 2328 
Q 422 3509 836 4129 
Q 1250 4750 2034 4750 
z
" transform="scale(0.015625)"/>
       </defs>
       <use xlink:href="#DejaVuSans-30"/>
      </g>
     </g>
    </g>
    <g id="xtick_2">
     <g id="line2d_2">
      <g>
       <use xlink:href="#m2c7988afea" x="127.941818" y="307.584" style="stroke: #000000; stroke-width: 0.8"/>
      </g>
     </g>
     <g id="text_2">
      <!-- 500 -->
      <g transform="translate(118.398068 322.182437) scale(0.1 -0.1)">
       <defs>
        <path id="DejaVuSans-35" d="M 691 4666 
L 3169 4666 
L 3169 4134 
L 1269 4134 
L 1269 2991 
Q 1406 3038 1543 3061 
Q 1681 3084 1819 3084 
Q 2600 3084 3056 2656 
Q 3513 2228 3513 1497 
Q 3513 744 3044 326 
Q 2575 -91 1722 -91 
Q 1428 -91 1123 -41 
Q 819 9 494 109 
L 494 744 
Q 775 591 1075 516 
Q 1375 441 1709 441 
Q 2250 441 2565 725 
Q 2881 1009 2881 1497 
Q 2881 1984 2565 2268 
Q 2250 2553 1709 2553 
Q 1456 2553 1204 2497 
Q 953 2441 691 2322 
L 691 4666 
z
" transform="scale(0.015625)"/>
       </defs>
       <use xlink:href="#DejaVuSans-35"/>
       <use xlink:href="#DejaVuSans-30" x="63.623047"/>
       <use xlink:href="#DejaVuSans-30" x="127.246094"/>
      </g>
     </g>
    </g>
    <g id="xtick_3">
     <g id="line2d_3">
      <g>
       <use xlink:href="#m2c7988afea" x="182.050909" y="307.584" style="stroke: #000000; stroke-width: 0.8"/>
      </g>
     </g>
     <g id="text_3">
      <!-- 1000 -->
      <g transform="translate(169.325909 322.182437) scale(0.1 -0.1)">
       <defs>
        <path id="DejaVuSans-31" d="M 794 531 
L 1825 531 
L 1825 4091 
L 703 3866 
L 703 4441 
L 1819 4666 
L 2450 4666 
L 2450 531 
L 3481 531 
L 3481 0 
L 794 0 
L 794 531 
z
" transform="scale(0.015625)"/>
       </defs>
       <use xlink:href="#DejaVuSans-31"/>
       <use xlink:href="#DejaVuSans-30" x="63.623047"/>
       <use xlink:href="#DejaVuSans-30" x="127.246094"/>
       <use xlink:href="#DejaVuSans-30" x="190.869141"/>
      </g>
     </g>
    </g>
    <g id="xtick_4">
     <g id="line2d_4">
      <g>
       <use xlink:href="#m2c7988afea" x="236.16" y="307.584" style="stroke: #000000; stroke-width: 0.8"/>
      </g>
     </g>
     <g id="text_4">
      <!-- 1500 -->
      <g transform="translate(223.435 322.182437) scale(0.1 -0.1)">
       <use xlink:href="#DejaVuSans-31"/>
       <use xlink:href="#DejaVuSans-35" x="63.623047"/>
       <use xlink:href="#DejaVuSans-30" x="127.246094"/>
       <use xlink:href="#DejaVuSans-30" x="190.869141"/>
      </g>
     </g>
    </g>
    <g id="xtick_5">
     <g id="line2d_5">
      <g>
       <use xlink:href="#m2c7988afea" x="290.269091" y="307.584" style="stroke: #000000; stroke-width: 0.8"/>
      </g>
     </g>
     <g id="text_5">
      <!-- 2000 -->
      <g transform="translate(277.544091 322.182437) scale(0.1 -0.1)">
       <defs>
        <path id="DejaVuSans-32" d="M 1228 531 
L 3431 531 
L 3431 0 
L 469 0 
L 469 531 
Q 828 903 1448 1529 
Q 2069 2156 2228 2338 
Q 2531 2678 2651 2914 
Q 2772 3150 2772 3378 
Q 2772 3750 2511 3984 
Q 2250 4219 1831 4219 
Q 1534 4219 1204 4116 
Q 875 4013 500 3803 
L 500 4441 
Q 881 4594 1212 4672 
Q 1544 4750 1819 4750 
Q 2544 4750 2975 4387 
Q 3406 4025 3406 3419 
Q 3406 3131 3298 2873 
Q 3191 2616 2906 2266 
Q 2828 2175 2409 1742 
Q 1991 1309 1228 531 
z
" transform="scale(0.015625)"/>
       </defs>
       <use xlink:href="#DejaVuSans-32"/>
       <use xlink:href="#DejaVuSans-30" x="63.623047"/>
       <use xlink:href="#DejaVuSans-30" x="127.246094"/>
       <use xlink:href="#DejaVuSans-30" x="190.869141"/>
      </g>
     </g>
    </g>
    <g id="xtick_6">
     <g id="line2d_6">
      <g>
       <use xlink:href="#m2c7988afea" x="344.378182" y="307.584" style="stroke: #000000; stroke-width: 0.8"/>
      </g>
     </g>
     <g id="text_6">
      <!-- 2500 -->
      <g transform="translate(331.653182 322.182437) scale(0.1 -0.1)">
       <use xlink:href="#DejaVuSans-32"/>
       <use xlink:href="#DejaVuSans-35" x="63.623047"/>
       <use xlink:href="#DejaVuSans-30" x="127.246094"/>
       <use xlink:href="#DejaVuSans-30" x="190.869141"/>
      </g>
     </g>
    </g>
    <g id="xtick_7">
     <g id="line2d_7">
      <g>
       <use xlink:href="#m2c7988afea" x="398.487273" y="307.584" style="stroke: #000000; stroke-width: 0.8"/>
      </g>
     </g>
     <g id="text_7">
      <!-- 3000 -->
      <g transform="translate(385.762273 322.182437) scale(0.1 -0.1)">
       <defs>
        <path id="DejaVuSans-33" d="M 2597 2516 
Q 3050 2419 3304 2112 
Q 3559 1806 3559 1356 
Q 3559 666 3084 287 
Q 2609 -91 1734 -91 
Q 1441 -91 1130 -33 
Q 819 25 488 141 
L 488 750 
Q 750 597 1062 519 
Q 1375 441 1716 441 
Q 2309 441 2620 675 
Q 2931 909 2931 1356 
Q 2931 1769 2642 2001 
Q 2353 2234 1838 2234 
L 1294 2234 
L 1294 2753 
L 1863 2753 
Q 2328 2753 2575 2939 
Q 2822 3125 2822 3475 
Q 2822 3834 2567 4026 
Q 2313 4219 1838 4219 
Q 1578 4219 1281 4162 
Q 984 4106 628 3988 
L 628 4550 
Q 988 4650 1302 4700 
Q 1616 4750 1894 4750 
Q 2613 4750 3031 4423 
Q 3450 4097 3450 3541 
Q 3450 3153 3228 2886 
Q 3006 2619 2597 2516 
z
" transform="scale(0.015625)"/>
       </defs>
       <use xlink:href="#DejaVuSans-33"/>
       <use xlink:href="#DejaVuSans-30" x="63.623047"/>
       <use xlink:href="#DejaVuSans-30" x="127.246094"/>
       <use xlink:href="#DejaVuSans-30" x="190.869141"/>
      </g>
     </g>
    </g>
    <g id="text_8">
     <!-- Time(ms) -->
     <g transform="translate(212.549844 335.860562) scale(0.1 -0.1)">
      <defs>
       <path id="DejaVuSans-54" d="M -19 4666 
L 3928 4666 
L 3928 4134 
L 2272 4134 
L 2272 0 
L 1638 0 
L 1638 4134 
L -19 4134 
L -19 4666 
z
" transform="scale(0.015625)"/>
       <path id="DejaVuSans-69" d="M 603 3500 
L 1178 3500 
L 1178 0 
L 603 0 
L 603 3500 
z
M 603 4863 
L 1178 4863 
L 1178 4134 
L 603 4134 
L 603 4863 
z
" transform="scale(0.015625)"/>
       <path id="DejaVuSans-6d" d="M 3328 2828 
Q 3544 3216 3844 3400 
Q 4144 3584 4550 3584 
Q 5097 3584 5394 3201 
Q 5691 2819 5691 2113 
L 5691 0 
L 5113 0 
L 5113 2094 
Q 5113 2597 4934 2840 
Q 4756 3084 4391 3084 
Q 3944 3084 3684 2787 
Q 3425 2491 3425 1978 
L 3425 0 
L 2847 0 
L 2847 2094 
Q 2847 2600 2669 2842 
Q 2491 3084 2119 3084 
Q 1678 3084 1418 2786 
Q 1159 2488 1159 1978 
L 1159 0 
L 581 0 
L 581 3500 
L 1159 3500 
L 1159 2956 
Q 1356 3278 1631 3431 
Q 1906 3584 2284 3584 
Q 2666 3584 2933 3390 
Q 3200 3197 3328 2828 
z
" transform="scale(0.015625)"/>
       <path id="DejaVuSans-65" d="M 3597 1894 
L 3597 1613 
L 953 1613 
Q 991 1019 1311 708 
Q 1631 397 2203 397 
Q 2534 397 2845 478 
Q 3156 559 3463 722 
L 3463 178 
Q 3153 47 2828 -22 
Q 2503 -91 2169 -91 
Q 1331 -91 842 396 
Q 353 884 353 1716 
Q 353 2575 817 3079 
Q 1281 3584 2069 3584 
Q 2775 3584 3186 3129 
Q 3597 2675 3597 1894 
z
M 3022 2063 
Q 3016 2534 2758 2815 
Q 2500 3097 2075 3097 
Q 1594 3097 1305 2825 
Q 1016 2553 972 2059 
L 3022 2063 
z
" transform="scale(0.015625)"/>
       <path id="DejaVuSans-28" d="M 1984 4856 
Q 1566 4138 1362 3434 
Q 1159 2731 1159 2009 
Q 1159 1288 1364 580 
Q 1569 -128 1984 -844 
L 1484 -844 
Q 1016 -109 783 600 
Q 550 1309 550 2009 
Q 550 2706 781 3412 
Q 1013 4119 1484 4856 
L 1984 4856 
z
" transform="scale(0.015625)"/>
       <path id="DejaVuSans-73" d="M 2834 3397 
L 2834 2853 
Q 2591 2978 2328 3040 
Q 2066 3103 1784 3103 
Q 1356 3103 1142 2972 
Q 928 2841 928 2578 
Q 928 2378 1081 2264 
Q 1234 2150 1697 2047 
L 1894 2003 
Q 2506 1872 2764 1633 
Q 3022 1394 3022 966 
Q 3022 478 2636 193 
Q 2250 -91 1575 -91 
Q 1294 -91 989 -36 
Q 684 19 347 128 
L 347 722 
Q 666 556 975 473 
Q 1284 391 1588 391 
Q 1994 391 2212 530 
Q 2431 669 2431 922 
Q 2431 1156 2273 1281 
Q 2116 1406 1581 1522 
L 1381 1569 
Q 847 1681 609 1914 
Q 372 2147 372 2553 
Q 372 3047 722 3315 
Q 1072 3584 1716 3584 
Q 2034 3584 2315 3537 
Q 2597 3491 2834 3397 
z
" transform="scale(0.015625)"/>
       <path id="DejaVuSans-29" d="M 513 4856 
L 1013 4856 
Q 1481 4119 1714 3412 
Q 1947 2706 1947 2009 
Q 1947 1309 1714 600 
Q 1481 -109 1013 -844 
L 513 -844 
Q 928 -128 1133 580 
Q 1338 1288 1338 2009 
Q 1338 2731 1133 3434 
Q 928 4138 513 4856 
z
" transform="scale(0.015625)"/>
      </defs>
      <use xlink:href="#DejaVuSans-54"/>
      <use xlink:href="#DejaVuSans-69" x="57.958984"/>
      <use xlink:href="#DejaVuSans-6d" x="85.742188"/>
      <use xlink:href="#DejaVuSans-65" x="183.154297"/>
      <use xlink:href="#DejaVuSans-28" x="244.677734"/>
      <use xlink:href="#DejaVuSans-6d" x="283.691406"/>
      <use xlink:href="#DejaVuSans-73" x="381.103516"/>
      <use xlink:href="#DejaVuSans-29" x="433.203125"/>
     </g>
    </g>
   </g>
   <g id="matplotlib.axis_2">
    <g id="ytick_1">
     <g id="line2d_8">
      <defs>
       <path id="m4ab7195d4a" d="M 0 0 
L -3.5 0 
" style="stroke: #000000; stroke-width: 0.8"/>
      </defs>
      <g>
       <use xlink:href="#m4ab7195d4a" x="57.6" y="307.584" style="stroke: #000000; stroke-width: 0.8"/>
      </g>
     </g>
     <g id="text_9">
      <!-- −100 -->
      <g transform="translate(23.132812 311.383219) scale(0.1 -0.1)">
       <defs>
        <path id="DejaVuSans-2212" d="M 678 2272 
L 4684 2272 
L 4684 1741 
L 678 1741 
L 678 2272 
z
" transform="scale(0.015625)"/>
       </defs>
       <use xlink:href="#DejaVuSans-2212"/>
       <use xlink:href="#DejaVuSans-31" x="83.789062"/>
       <use xlink:href="#DejaVuSans-30" x="147.412109"/>
       <use xlink:href="#DejaVuSans-30" x="211.035156"/>
      </g>
     </g>
    </g>
    <g id="ytick_2">
     <g id="line2d_9">
      <g>
       <use xlink:href="#m4ab7195d4a" x="57.6" y="269.568" style="stroke: #000000; stroke-width: 0.8"/>
      </g>
     </g>
     <g id="text_10">
      <!-- −80 -->
      <g transform="translate(29.495313 273.367219) scale(0.1 -0.1)">
       <defs>
        <path id="DejaVuSans-38" d="M 2034 2216 
Q 1584 2216 1326 1975 
Q 1069 1734 1069 1313 
Q 1069 891 1326 650 
Q 1584 409 2034 409 
Q 2484 409 2743 651 
Q 3003 894 3003 1313 
Q 3003 1734 2745 1975 
Q 2488 2216 2034 2216 
z
M 1403 2484 
Q 997 2584 770 2862 
Q 544 3141 544 3541 
Q 544 4100 942 4425 
Q 1341 4750 2034 4750 
Q 2731 4750 3128 4425 
Q 3525 4100 3525 3541 
Q 3525 3141 3298 2862 
Q 3072 2584 2669 2484 
Q 3125 2378 3379 2068 
Q 3634 1759 3634 1313 
Q 3634 634 3220 271 
Q 2806 -91 2034 -91 
Q 1263 -91 848 271 
Q 434 634 434 1313 
Q 434 1759 690 2068 
Q 947 2378 1403 2484 
z
M 1172 3481 
Q 1172 3119 1398 2916 
Q 1625 2713 2034 2713 
Q 2441 2713 2670 2916 
Q 2900 3119 2900 3481 
Q 2900 3844 2670 4047 
Q 2441 4250 2034 4250 
Q 1625 4250 1398 4047 
Q 1172 3844 1172 3481 
z
" transform="scale(0.015625)"/>
       </defs>
       <use xlink:href="#DejaVuSans-2212"/>
       <use xlink:href="#DejaVuSans-38" x="83.789062"/>
       <use xlink:href="#DejaVuSans-30" x="147.412109"/>
      </g>
     </g>
    </g>
    <g id="ytick_3">
     <g id="line2d_10">
      <g>
       <use xlink:href="#m4ab7195d4a" x="57.6" y="231.552" style="stroke: #000000; stroke-width: 0.8"/>
      </g>
     </g>
     <g id="text_11">
      <!-- −60 -->
      <g transform="translate(29.495313 235.351219) scale(0.1 -0.1)">
       <defs>
        <path id="DejaVuSans-36" d="M 2113 2584 
Q 1688 2584 1439 2293 
Q 1191 2003 1191 1497 
Q 1191 994 1439 701 
Q 1688 409 2113 409 
Q 2538 409 2786 701 
Q 3034 994 3034 1497 
Q 3034 2003 2786 2293 
Q 2538 2584 2113 2584 
z
M 3366 4563 
L 3366 3988 
Q 3128 4100 2886 4159 
Q 2644 4219 2406 4219 
Q 1781 4219 1451 3797 
Q 1122 3375 1075 2522 
Q 1259 2794 1537 2939 
Q 1816 3084 2150 3084 
Q 2853 3084 3261 2657 
Q 3669 2231 3669 1497 
Q 3669 778 3244 343 
Q 2819 -91 2113 -91 
Q 1303 -91 875 529 
Q 447 1150 447 2328 
Q 447 3434 972 4092 
Q 1497 4750 2381 4750 
Q 2619 4750 2861 4703 
Q 3103 4656 3366 4563 
z
" transform="scale(0.015625)"/>
       </defs>
       <use xlink:href="#DejaVuSans-2212"/>
       <use xlink:href="#DejaVuSans-36" x="83.789062"/>
       <use xlink:href="#DejaVuSans-30" x="147.412109"/>
      </g>
     </g>
    </g>
    <g id="ytick_4">
     <g id="line2d_11">
      <g>
       <use xlink:href="#m4ab7195d4a" x="57.6" y="193.536" style="stroke: #000000; stroke-width: 0.8"/>
      </g>
     </g>
     <g id="text_12">
      <!-- −40 -->
      <g transform="translate(29.495313 197.335219) scale(0.1 -0.1)">
       <defs>
        <path id="DejaVuSans-34" d="M 2419 4116 
L 825 1625 
L 2419 1625 
L 2419 4116 
z
M 2253 4666 
L 3047 4666 
L 3047 1625 
L 3713 1625 
L 3713 1100 
L 3047 1100 
L 3047 0 
L 2419 0 
L 2419 1100 
L 313 1100 
L 313 1709 
L 2253 4666 
z
" transform="scale(0.015625)"/>
       </defs>
       <use xlink:href="#DejaVuSans-2212"/>
       <use xlink:href="#DejaVuSans-34" x="83.789062"/>
       <use xlink:href="#DejaVuSans-30" x="147.412109"/>
      </g>
     </g>
    </g>
    <g id="ytick_5">
     <g id="line2d_12">
      <g>
       <use xlink:href="#m4ab7195d4a" x="57.6" y="155.52" style="stroke: #000000; stroke-width: 0.8"/>
      </g>
     </g>
     <g id="text_13">
      <!-- −20 -->
      <g transform="translate(29.495313 159.319219) scale(0.1 -0.1)">
       <use xlink:href="#DejaVuSans-2212"/>
       <use xlink:href="#DejaVuSans-32" x="83.789062"/>
       <use xlink:href="#DejaVuSans-30" x="147.412109"/>
      </g>
     </g>
    </g>
    <g id="ytick_6">
     <g id="line2d_13">
      <g>
       <use xlink:href="#m4ab7195d4a" x="57.6" y="117.504" style="stroke: #000000; stroke-width: 0.8"/>
      </g>
     </g>
     <g id="text_14">
      <!-- 0 -->
      <g transform="translate(44.2375 121.303219) scale(0.1 -0.1)">
       <use xlink:href="#DejaVuSans-30"/>
      </g>
     </g>
    </g>
    <g id="ytick_7">
     <g id="line2d_14">
      <g>
       <use xlink:href="#m4ab7195d4a" x="57.6" y="79.488" style="stroke: #000000; stroke-width: 0.8"/>
      </g>
     </g>
     <g id="text_15">
      <!-- 20 -->
      <g transform="translate(37.875 83.287219) scale(0.1 -0.1)">
       <use xlink:href="#DejaVuSans-32"/>
       <use xlink:href="#DejaVuSans-30" x="63.623047"/>
      </g>
     </g>
    </g>
    <g id="ytick_8">
     <g id="line2d_15">
      <g>
       <use xlink:href="#m4ab7195d4a" x="57.6" y="41.472" style="stroke: #000000; stroke-width: 0.8"/>
      </g>
     </g>
     <g id="text_16">
      <!-- 40 -->
      <g transform="translate(37.875 45.271219) scale(0.1 -0.1)">
       <use xlink:href="#DejaVuSans-34"/>
       <use xlink:href="#DejaVuSans-30" x="63.623047"/>
      </g>
     </g>
    </g>
    <g id="text_17">
     <!-- Membrane potential (mV) -->
     <g transform="translate(17.053125 238.939719) rotate(-90) scale(0.1 -0.1)">
      <defs>
       <path id="DejaVuSans-4d" d="M 628 4666 
L 1569 4666 
L 2759 1491 
L 3956 4666 
L 4897 4666 
L 4897 0 
L 4281 0 
L 4281 4097 
L 3078 897 
L 2444 897 
L 1241 4097 
L 1241 0 
L 628 0 
L 628 4666 
z
" transform="scale(0.015625)"/>
       <path id="DejaVuSans-62" d="M 3116 1747 
Q 3116 2381 2855 2742 
Q 2594 3103 2138 3103 
Q 1681 3103 1420 2742 
Q 1159 2381 1159 1747 
Q 1159 1113 1420 752 
Q 1681 391 2138 391 
Q 2594 391 2855 752 
Q 3116 1113 3116 1747 
z
M 1159 2969 
Q 1341 3281 1617 3432 
Q 1894 3584 2278 3584 
Q 2916 3584 3314 3078 
Q 3713 2572 3713 1747 
Q 3713 922 3314 415 
Q 2916 -91 2278 -91 
Q 1894 -91 1617 61 
Q 1341 213 1159 525 
L 1159 0 
L 581 0 
L 581 4863 
L 1159 4863 
L 1159 2969 
z
" transform="scale(0.015625)"/>
       <path id="DejaVuSans-72" d="M 2631 2963 
Q 2534 3019 2420 3045 
Q 2306 3072 2169 3072 
Q 1681 3072 1420 2755 
Q 1159 2438 1159 1844 
L 1159 0 
L 581 0 
L 581 3500 
L 1159 3500 
L 1159 2956 
Q 1341 3275 1631 3429 
Q 1922 3584 2338 3584 
Q 2397 3584 2469 3576 
Q 2541 3569 2628 3553 
L 2631 2963 
z
" transform="scale(0.015625)"/>
       <path id="DejaVuSans-61" d="M 2194 1759 
Q 1497 1759 1228 1600 
Q 959 1441 959 1056 
Q 959 750 1161 570 
Q 1363 391 1709 391 
Q 2188 391 2477 730 
Q 2766 1069 2766 1631 
L 2766 1759 
L 2194 1759 
z
M 3341 1997 
L 3341 0 
L 2766 0 
L 2766 531 
Q 2569 213 2275 61 
Q 1981 -91 1556 -91 
Q 1019 -91 701 211 
Q 384 513 384 1019 
Q 384 1609 779 1909 
Q 1175 2209 1959 2209 
L 2766 2209 
L 2766 2266 
Q 2766 2663 2505 2880 
Q 2244 3097 1772 3097 
Q 1472 3097 1187 3025 
Q 903 2953 641 2809 
L 641 3341 
Q 956 3463 1253 3523 
Q 1550 3584 1831 3584 
Q 2591 3584 2966 3190 
Q 3341 2797 3341 1997 
z
" transform="scale(0.015625)"/>
       <path id="DejaVuSans-6e" d="M 3513 2113 
L 3513 0 
L 2938 0 
L 2938 2094 
Q 2938 2591 2744 2837 
Q 2550 3084 2163 3084 
Q 1697 3084 1428 2787 
Q 1159 2491 1159 1978 
L 1159 0 
L 581 0 
L 581 3500 
L 1159 3500 
L 1159 2956 
Q 1366 3272 1645 3428 
Q 1925 3584 2291 3584 
Q 2894 3584 3203 3211 
Q 3513 2838 3513 2113 
z
" transform="scale(0.015625)"/>
       <path id="DejaVuSans-20" transform="scale(0.015625)"/>
       <path id="DejaVuSans-70" d="M 1159 525 
L 1159 -1331 
L 581 -1331 
L 581 3500 
L 1159 3500 
L 1159 2969 
Q 1341 3281 1617 3432 
Q 1894 3584 2278 3584 
Q 2916 3584 3314 3078 
Q 3713 2572 3713 1747 
Q 3713 922 3314 415 
Q 2916 -91 2278 -91 
Q 1894 -91 1617 61 
Q 1341 213 1159 525 
z
M 3116 1747 
Q 3116 2381 2855 2742 
Q 2594 3103 2138 3103 
Q 1681 3103 1420 2742 
Q 1159 2381 1159 1747 
Q 1159 1113 1420 752 
Q 1681 391 2138 391 
Q 2594 391 2855 752 
Q 3116 1113 3116 1747 
z
" transform="scale(0.015625)"/>
       <path id="DejaVuSans-6f" d="M 1959 3097 
Q 1497 3097 1228 2736 
Q 959 2375 959 1747 
Q 959 1119 1226 758 
Q 1494 397 1959 397 
Q 2419 397 2687 759 
Q 2956 1122 2956 1747 
Q 2956 2369 2687 2733 
Q 2419 3097 1959 3097 
z
M 1959 3584 
Q 2709 3584 3137 3096 
Q 3566 2609 3566 1747 
Q 3566 888 3137 398 
Q 2709 -91 1959 -91 
Q 1206 -91 779 398 
Q 353 888 353 1747 
Q 353 2609 779 3096 
Q 1206 3584 1959 3584 
z
" transform="scale(0.015625)"/>
       <path id="DejaVuSans-74" d="M 1172 4494 
L 1172 3500 
L 2356 3500 
L 2356 3053 
L 1172 3053 
L 1172 1153 
Q 1172 725 1289 603 
Q 1406 481 1766 481 
L 2356 481 
L 2356 0 
L 1766 0 
Q 1100 0 847 248 
Q 594 497 594 1153 
L 594 3053 
L 172 3053 
L 172 3500 
L 594 3500 
L 594 4494 
L 1172 4494 
z
" transform="scale(0.015625)"/>
       <path id="DejaVuSans-6c" d="M 603 4863 
L 1178 4863 
L 1178 0 
L 603 0 
L 603 4863 
z
" transform="scale(0.015625)"/>
       <path id="DejaVuSans-56" d="M 1831 0 
L 50 4666 
L 709 4666 
L 2188 738 
L 3669 4666 
L 4325 4666 
L 2547 0 
L 1831 0 
z
" transform="scale(0.015625)"/>
      </defs>
      <use xlink:href="#DejaVuSans-4d"/>
      <use xlink:href="#DejaVuSans-65" x="86.279297"/>
      <use xlink:href="#DejaVuSans-6d" x="147.802734"/>
      <use xlink:href="#DejaVuSans-62" x="245.214844"/>
      <use xlink:href="#DejaVuSans-72" x="308.691406"/>
      <use xlink:href="#DejaVuSans-61" x="349.804688"/>
      <use xlink:href="#DejaVuSans-6e" x="411.083984"/>
      <use xlink:href="#DejaVuSans-65" x="474.462891"/>
      <use xlink:href="#DejaVuSans-20" x="535.986328"/>
      <use xlink:href="#DejaVuSans-70" x="567.773438"/>
      <use xlink:href="#DejaVuSans-6f" x="631.25"/>
      <use xlink:href="#DejaVuSans-74" x="692.431641"/>
      <use xlink:href="#DejaVuSans-65" x="731.640625"/>
      <use xlink:href="#DejaVuSans-6e" x="793.164062"/>
      <use xlink:href="#DejaVuSans-74" x="856.542969"/>
      <use xlink:href="#DejaVuSans-69" x="895.751953"/>
      <use xlink:href="#DejaVuSans-61" x="923.535156"/>
      <use xlink:href="#DejaVuSans-6c" x="984.814453"/>
      <use xlink:href="#DejaVuSans-20" x="1012.597656"/>
      <use xlink:href="#DejaVuSans-28" x="1044.384766"/>
      <use xlink:href="#DejaVuSans-6d" x="1083.398438"/>
      <use xlink:href="#DejaVuSans-56" x="1180.810547"/>
      <use xlink:href="#DejaVuSans-29" x="1249.21875"/>
     </g>
    </g>
   </g>
   <g id="line2d_16">
    <path d="M 73.832727 280.9728 
L 74.041047 284.031969 
L 74.365702 285.861483 
L 74.457687 286.025143 
L 74.500975 285.898081 
L 74.666007 284.597211 
L 75.180044 281.023186 
L 75.577745 279.445806 
L 75.780655 279.119116 
L 76.032262 278.599036 
L 76.2 278.535002 
L 76.760029 277.164043 
L 76.857425 277.167733 
L 76.881775 277.198287 
L 77.041396 277.635819 
L 77.238895 278.359597 
L 77.295709 278.175017 
L 77.671767 276.768206 
L 77.769164 276.86433 
L 78.01536 277.148654 
L 78.023476 277.139869 
L 78.085702 276.758714 
L 78.369775 275.235608 
L 78.49152 275.161087 
L 78.523985 275.192774 
L 78.661964 275.561345 
L 78.732305 275.805602 
L 78.791825 275.630125 
L 78.948742 275.260016 
L 78.986618 275.294643 
L 79.492538 276.2963 
L 79.703564 276.808315 
L 79.763084 276.716584 
L 80.236538 275.462153 
L 80.374516 274.801067 
L 80.528727 272.754096 
L 80.8128 269.691106 
L 81.326836 266.935485 
L 81.489164 266.514558 
L 81.513513 266.528685 
L 81.746182 266.60499 
L 81.859811 266.761586 
L 82.038371 267.51868 
L 82.203404 268.089473 
L 82.243985 268.071526 
L 82.411724 268.098273 
L 82.560524 268.524876 
L 83.01504 269.595335 
L 83.280175 269.775745 
L 83.680582 270.567592 
L 84.221673 273.333751 
L 84.297425 273.079864 
L 84.876393 269.934416 
L 85.076596 269.626553 
L 85.103651 269.644609 
L 85.290327 269.797184 
L 85.325498 269.709098 
L 85.820596 267.446979 
L 86.064087 266.484673 
L 86.386036 266.554903 
L 86.591651 266.872185 
L 86.653876 266.738309 
L 86.832436 266.464488 
L 86.862196 266.485118 
L 86.983942 266.777608 
L 87.213905 268.050522 
L 88.352902 275.294047 
L 88.379956 275.306199 
L 88.43136 275.214014 
L 88.623447 274.982402 
L 88.645091 274.996492 
L 88.777658 275.255551 
L 89.121251 276.248741 
L 89.180771 276.107686 
L 89.356625 275.01707 
L 89.667753 272.91254 
L 89.754327 272.869817 
L 89.797615 272.910803 
L 89.900422 272.902572 
L 89.916655 272.875284 
L 90.019462 272.343177 
L 90.214255 270.246165 
L 90.4848 267.498424 
L 90.617367 266.862665 
L 90.844625 265.330636 
L 90.863564 265.340612 
L 90.971782 265.611014 
L 91.226095 266.812888 
L 91.650851 270.20956 
L 91.975505 272.132549 
L 92.175709 272.572419 
L 92.321804 272.764297 
L 92.8656 273.775407 
L 92.911593 273.76203 
L 92.949469 273.702441 
L 93.054982 273.2861 
L 93.217309 271.749353 
L 93.617716 265.717891 
L 93.974836 264.164288 
L 94.242676 263.198465 
L 94.423942 262.966181 
L 94.56192 262.771379 
L 94.670138 262.693505 
L 94.708015 262.733926 
L 94.862225 263.183464 
L 95.549411 265.621319 
L 95.865949 266.973969 
L 95.971462 267.071406 
L 96.006633 266.964859 
L 96.260945 266.252335 
L 96.282589 266.263525 
L 96.425978 266.521565 
L 96.685702 267.334833 
L 96.986007 268.177621 
L 97.194327 268.622073 
L 97.445935 269.953368 
L 97.970793 272.703267 
L 98.230516 272.946075 
L 98.441542 272.920889 
L 98.852771 272.627759 
L 98.879825 272.663454 
L 99.047564 273.127656 
L 99.193658 273.551579 
L 99.255884 273.494985 
L 99.437149 273.412876 
L 99.450676 273.425487 
L 99.596771 273.740754 
L 99.702284 273.92433 
L 99.759098 273.892718 
L 100.051287 273.594198 
L 100.191971 272.946207 
L 100.500393 268.644985 
L 100.835869 266.061799 
L 101.658327 261.695651 
L 101.782778 261.76303 
L 101.928873 262.214532 
L 102.713455 265.985315 
L 102.813556 265.693766 
L 103.230196 264.974877 
L 103.25184 264.991089 
L 103.387113 265.062047 
L 103.419578 265.010332 
L 103.99584 263.356163 
L 104.177105 262.972002 
L 104.41248 262.508014 
L 104.553164 262.306826 
L 104.593745 262.325278 
L 104.766895 262.217114 
L 104.885935 262.146476 
L 104.921105 262.18569 
L 105.053673 262.598078 
L 105.313396 264.300028 
L 106.714822 274.717652 
L 107.066531 275.24005 
L 107.318138 275.351282 
L 107.380364 275.379019 
L 107.431767 275.32274 
L 107.615738 275.224454 
L 107.631971 275.23825 
L 107.691491 275.291509 
L 107.737484 275.1906 
L 107.832175 274.626042 
L 108.657338 268.314049 
L 108.881891 266.940383 
L 109.458153 264.639173 
L 109.496029 264.663997 
L 109.809862 264.857272 
L 109.964073 264.887466 
L 110.107462 265.308205 
L 110.821702 267.916537 
L 110.824407 267.915519 
L 110.873105 267.745507 
L 111.324916 265.107477 
L 111.411491 265.228503 
L 111.719913 265.912817 
L 111.774022 265.87366 
L 111.820015 265.683904 
L 112.182545 262.867097 
L 112.242065 262.939232 
L 112.480145 263.186025 
L 112.701993 263.497633 
L 112.821033 263.637486 
L 112.858909 263.559118 
L 112.999593 262.758993 
L 113.232262 261.943552 
L 113.378356 261.96344 
L 113.381062 261.966908 
L 113.443287 262.012763 
L 113.48928 261.929865 
L 113.659724 261.691877 
L 113.694895 261.72265 
L 113.900509 262.173258 
L 114.133178 263.399906 
L 114.355025 264.157459 
L 114.482182 264.314101 
L 114.658036 265.019795 
L 115.291113 267.907129 
L 115.372276 268.040075 
L 115.418269 267.957915 
L 115.545425 267.207668 
L 116.113571 262.895509 
L 116.183913 262.967231 
L 116.189324 262.980716 
L 116.338124 263.683376 
L 116.695244 266.72405 
L 117.382429 272.305056 
L 117.431127 272.359268 
L 117.482531 272.268307 
L 117.642153 271.508491 
L 117.996567 269.887383 
L 118.096669 269.975032 
L 118.272524 270.564796 
L 118.521425 271.219905 
L 118.545775 271.207281 
L 118.897484 270.807412 
L 119.379055 267.89987 
L 119.460218 267.995028 
L 119.630662 268.619837 
L 120.028364 270.840814 
L 120.163636 270.728114 
L 120.263738 270.05247 
L 120.807535 266.384647 
L 121.113251 265.743251 
L 121.218764 265.847265 
L 121.473076 266.308343 
L 121.529891 266.243092 
L 121.670575 265.6019 
L 122.114269 262.955296 
L 122.341527 260.507547 
L 122.541731 259.683129 
L 122.931316 257.545746 
L 123.026007 257.624946 
L 123.172102 258.198113 
L 123.461585 260.447227 
L 124.32192 267.445899 
L 125.230953 271.650076 
L 125.339171 271.46354 
L 125.48256 270.521682 
L 125.942487 266.494523 
L 126.448407 261.455242 
L 126.697309 260.842525 
L 126.727069 260.862511 
L 126.759535 260.899243 
L 126.789295 260.775555 
L 126.992204 259.896144 
L 127.03008 259.933292 
L 127.146415 260.369226 
L 127.584698 262.614999 
L 127.641513 262.485396 
L 128.114967 261.023581 
L 128.266473 260.605405 
L 128.542429 259.600134 
L 128.564073 259.610902 
L 128.677702 259.852984 
L 129.218793 261.014979 
L 129.348655 261.335707 
L 129.581324 262.645831 
L 130.549876 269.892541 
L 130.644567 269.477074 
L 130.917818 268.586515 
L 130.920524 268.587034 
L 131.015215 268.726321 
L 131.145076 268.834523 
L 131.177542 268.801893 
L 131.329047 268.399947 
L 131.605004 266.110213 
L 131.794385 265.21596 
L 131.802502 265.218336 
L 131.883665 265.378156 
L 132.067636 266.383961 
L 132.570851 270.758038 
L 132.917149 272.860106 
L 132.955025 272.977925 
L 133.01184 272.762987 
L 133.414953 270.189789 
L 133.515055 270.35348 
L 133.712553 271.277032 
L 134.194124 274.138463 
L 134.269876 273.964883 
L 135.100451 270.200367 
L 135.495447 267.795321 
L 135.590138 267.891844 
L 135.765993 268.395799 
L 135.83904 268.180605 
L 136.179927 266.939458 
L 136.209687 266.956085 
L 136.328727 267.21566 
L 136.564102 268.390383 
L 137.105193 271.097547 
L 137.145775 271.091313 
L 137.191767 271.032452 
L 137.343273 270.962784 
L 137.364916 270.983362 
L 137.508305 271.318019 
L 138.027753 272.717143 
L 138.052102 272.704851 
L 138.079156 272.627693 
L 138.363229 271.067866 
L 138.682473 269.250857 
L 138.766342 269.285887 
L 138.782575 269.312832 
L 139.126167 269.723614 
L 139.375069 269.630476 
L 139.496815 269.117129 
L 139.780887 268.212019 
L 139.913455 268.064918 
L 139.948625 268.093641 
L 140.229993 268.614371 
L 140.465367 269.712625 
L 140.792727 271.006895 
L 141.090327 271.427047 
L 141.095738 271.42306 
L 141.171491 271.190457 
L 141.460975 270.340408 
L 141.471796 270.344025 
L 141.498851 270.335478 
L 141.5232 270.251271 
L 141.763985 269.267498 
L 141.823505 269.343476 
L 141.972305 269.960959 
L 142.399767 271.759381 
L 142.513396 271.73186 
L 142.526924 271.70021 
L 142.851578 270.570508 
L 143.116713 268.9679 
L 143.238458 268.655733 
L 143.373731 268.480307 
L 143.408902 268.507468 
L 143.536058 268.839456 
L 143.836364 270.14907 
L 143.96352 270.069037 
L 144.08256 269.765174 
L 144.564131 267.457431 
L 144.637178 267.541458 
L 144.815738 267.660173 
L 144.937484 267.87351 
L 145.053818 268.06615 
L 145.102516 268.021149 
L 145.465047 267.509022 
L 145.543505 267.640349 
L 145.822167 268.444034 
L 145.887098 268.218331 
L 146.625687 264.414029 
L 146.628393 264.414478 
L 146.723084 264.548404 
L 146.901644 265.319797 
L 147.634822 269.011959 
L 147.645644 269.003909 
L 147.724102 268.708443 
L 148.056873 265.577278 
L 148.316596 264.119437 
L 148.381527 264.133236 
L 148.411287 264.182527 
L 148.649367 264.939938 
L 148.914502 266.482542 
L 149.4096 269.66638 
L 149.455593 269.635515 
L 149.680145 269.486454 
L 149.7072 269.517141 
L 149.856 269.915234 
L 150.037265 270.67901 
L 150.102196 270.447861 
L 150.299695 269.777505 
L 150.33216 269.802053 
L 150.445789 270.139797 
L 150.610822 270.969728 
L 150.632465 270.541867 
L 150.875956 267.050087 
L 151.049105 265.819065 
L 151.28448 264.800692 
L 151.427869 264.468893 
L 151.736291 263.799845 
L 151.766051 263.820978 
L 151.876975 263.835152 
L 151.904029 263.806117 
L 152.112349 263.397111 
L 152.277382 263.16533 
L 152.307142 263.186776 
L 152.428887 263.484259 
L 152.869876 265.567338 
L 153.172887 266.849222 
L 153.643636 268.926041 
L 154.249658 272.262953 
L 154.67712 274.954159 
L 155.104582 277.19424 
L 155.413004 278.295469 
L 155.464407 278.248654 
L 155.832349 277.508553 
L 155.981149 276.381363 
L 156.186764 275.718593 
L 156.286865 275.84853 
L 156.446487 276.161593 
L 156.519535 276.110204 
L 156.646691 275.849798 
L 157.201309 274.394669 
L 157.452916 274.061257 
L 157.856029 273.079503 
L 158.077876 272.574241 
L 158.223971 272.604689 
L 158.383593 272.984074 
L 158.678487 274.390886 
L 159.189818 276.69384 
L 159.257455 276.7871 
L 159.303447 276.667597 
L 160.24224 273.185125 
L 160.358575 273.296715 
L 160.550662 273.892636 
L 160.8672 274.853445 
L 160.888844 274.834088 
L 160.964596 274.486132 
L 161.459695 271.49134 
L 161.546269 271.383836 
L 161.638255 270.275474 
L 161.903389 267.991415 
L 162.328145 265.568376 
L 162.441775 264.688157 
L 162.747491 262.969296 
L 162.817833 262.958815 
L 162.855709 263.010902 
L 162.999098 263.525131 
L 163.080262 263.82307 
L 163.142487 263.69552 
L 163.242589 263.543547 
L 163.288582 263.607037 
L 163.418444 264.199148 
L 163.710633 265.368209 
L 163.824262 265.564088 
L 164.165149 266.266104 
L 164.276073 266.410824 
L 164.362647 266.605707 
L 164.432989 266.511309 
L 164.533091 266.09033 
L 164.838807 265.044866 
L 165.141818 264.158063 
L 165.379898 263.487872 
L 165.415069 263.5157 
L 165.531404 263.855363 
L 165.842531 265.725873 
L 166.094138 266.640766 
L 166.113076 266.629577 
L 166.472902 266.26906 
L 166.529716 266.352485 
L 166.70016 266.941914 
L 166.940945 267.566826 
L 167.287244 267.909956 
L 167.582138 268.520401 
L 167.68224 268.383335 
L 167.917615 267.857175 
L 168.074531 266.829373 
L 168.334255 265.214153 
L 168.418124 265.296511 
L 168.610211 266.032583 
L 168.978153 267.907529 
L 169.343389 270.031339 
L 169.402909 270.007143 
L 169.55712 270.054186 
L 169.711331 270.475102 
L 169.870953 270.658077 
L 170.117149 270.550074 
L 170.844916 266.775366 
L 170.942313 266.868985 
L 171.107345 267.468241 
L 171.437411 268.571782 
L 171.440116 268.570982 
L 171.515869 268.422224 
L 171.775593 267.716137 
L 171.808058 267.737201 
L 171.927098 268.024613 
L 172.162473 269.313385 
L 172.341033 270.442813 
L 172.395142 270.172285 
L 172.936233 266.651515 
L 173.011985 266.634263 
L 173.049862 266.682588 
L 173.190545 266.693116 
L 173.333935 266.744487 
L 173.477324 267.107374 
L 173.490851 266.839103 
L 173.777629 261.842829 
L 173.899375 261.466074 
L 173.937251 261.503716 
L 174.283549 262.308166 
L 174.518924 263.76423 
L 175.070836 269.004011 
L 175.603811 273.260547 
L 175.847302 273.958564 
L 175.901411 273.772755 
L 176.128669 271.754651 
L 176.477673 269.729292 
L 176.756335 268.80963 
L 177.045818 268.314793 
L 177.26496 267.497403 
L 177.819578 265.243825 
L 177.906153 265.203333 
L 177.946735 265.248974 
L 178.087418 265.562037 
L 178.173993 265.416426 
L 178.376902 264.83362 
L 179.272407 260.528621 
L 179.304873 260.549181 
L 179.418502 260.840364 
L 179.919011 262.365539 
L 180.043462 262.550923 
L 180.081338 262.592164 
L 180.135447 262.49385 
L 180.213905 261.970512 
L 180.614313 257.675019 
L 180.787462 257.191523 
L 181.071535 255.449686 
L 181.098589 255.470889 
L 181.198691 255.812262 
L 181.569338 257.45879 
L 181.615331 257.406098 
L 181.888582 256.727862 
L 182.183476 255.123196 
L 182.20512 255.132113 
L 182.389091 255.294992 
L 182.600116 256.01724 
L 182.713745 256.310866 
L 182.743505 256.184298 
L 183.005935 255.072715 
L 183.238604 254.859575 
L 183.452335 254.396854 
L 183.501033 254.432724 
L 183.687709 254.763159 
L 183.904145 254.955501 
L 183.909556 254.945261 
L 183.998836 254.172707 
L 184.215273 253.290182 
L 184.464175 253.117883 
L 184.477702 253.130698 
L 184.594036 253.428353 
L 185.089135 255.002762 
L 185.094545 255.000296 
L 185.156771 254.804416 
L 185.351564 254.215445 
L 185.386735 254.236291 
L 185.430022 254.236034 
L 185.462487 254.157417 
L 185.887244 252.464118 
L 185.995462 252.672397 
L 186.755695 254.9343 
L 187.061411 255.375067 
L 187.210211 255.769284 
L 187.267025 255.681704 
L 187.510516 255.403049 
L 187.656611 255.44791 
L 187.791884 255.303659 
L 187.970444 255.167901 
L 187.994793 255.19017 
L 188.111127 255.447168 
L 188.140887 255.199076 
L 188.617047 250.162971 
L 188.817251 249.305032 
L 189.076975 248.219955 
L 189.323171 247.598897 
L 189.404335 247.727369 
L 189.442211 247.746698 
L 189.499025 247.676074 
L 189.769571 247.136363 
L 190.205149 245.339424 
L 190.432407 244.087111 
L 190.694836 243.150752 
L 190.870691 243.083861 
L 190.884218 243.096679 
L 191.005964 243.396506 
L 191.219695 244.658994 
L 191.774313 249.149436 
L 191.836538 248.547632 
L 192.364102 242.599943 
L 192.726633 239.019085 
L 193.129745 232.368634 
L 193.338065 231.404546 
L 193.340771 231.404831 
L 193.419229 231.534118 
L 194.1984 234.183935 
L 194.309324 233.926657 
L 194.441891 233.738306 
L 194.482473 233.768508 
L 194.539287 233.641974 
L 194.812538 232.449115 
L 195.177775 228.684737 
L 195.583593 225.422243 
L 195.965062 222.490473 
L 196.346531 220.005646 
L 196.527796 219.807062 
L 196.66848 219.504395 
L 196.773993 218.773013 
L 197.095942 214.170951 
L 197.469295 206.179174 
L 197.637033 197.2067 
L 197.715491 179.468063 
L 197.764189 96.77956 
L 197.823709 176.626103 
L 197.986036 233.83821 
L 198.145658 239.535044 
L 198.183535 239.701798 
L 198.229527 239.381953 
L 198.965411 232.507982 
L 199.065513 232.356672 
L 199.111505 232.408985 
L 199.452393 233.347663 
L 199.666124 234.776824 
L 200.009716 236.486222 
L 200.136873 236.688045 
L 200.18016 236.611862 
L 200.439884 235.976172 
L 200.496698 236.037862 
L 200.591389 236.107915 
L 200.637382 236.05453 
L 200.740189 235.645332 
L 201.300218 231.982072 
L 201.384087 232.070165 
L 201.500422 232.230661 
L 201.551825 232.14832 
L 201.700625 231.515681 
L 202.147025 229.368138 
L 202.257949 229.347586 
L 202.282298 229.371682 
L 202.406749 229.702963 
L 202.866676 231.165521 
L 203.09664 231.881932 
L 203.315782 233.22675 
L 203.81088 236.700203 
L 203.84064 236.684889 
L 204.013789 236.637422 
L 204.035433 236.6696 
L 204.173411 237.1432 
L 204.814604 240.575751 
L 205.228538 242.795279 
L 205.639767 242.916218 
L 205.664116 242.83139 
L 205.815622 242.454747 
L 205.861615 242.508391 
L 205.986065 243.034912 
L 206.018531 243.161751 
L 206.07264 242.915951 
L 206.481164 239.478027 
L 206.792291 237.524256 
L 207.057425 236.801152 
L 207.08448 236.820196 
L 207.192698 237.11755 
L 207.403724 238.510625 
L 207.839302 242.081283 
L 207.91776 241.947203 
L 208.12608 241.600946 
L 208.15584 241.622018 
L 208.27488 241.915025 
L 208.494022 243.192254 
L 208.905251 246.459187 
L 209.008058 246.252513 
L 209.192029 245.974442 
L 209.219084 245.993819 
L 209.34624 246.143594 
L 209.413876 246.043536 
L 209.660073 245.395719 
L 210.114589 243.828466 
L 210.206575 243.920525 
L 210.379724 244.588193 
L 210.680029 245.470111 
L 210.693556 245.440653 
L 211.13184 244.022004 
L 211.464611 243.053003 
L 212.181556 237.859873 
L 212.276247 237.83369 
L 212.308713 237.875927 
L 212.462924 238.379821 
L 213.112233 240.529083 
L 213.293498 241.305382 
L 213.612742 243.879764 
L 214.34592 249.878029 
L 214.581295 250.82274 
L 214.594822 250.817868 
L 214.684102 250.637639 
L 214.800436 249.673725 
L 215.56608 241.914779 
L 215.944844 241.203491 
L 216.034124 240.994203 
L 216.261382 239.93618 
L 216.485935 239.259899 
L 216.588742 239.242087 
L 216.618502 239.278383 
L 216.802473 239.760378 
L 217.278633 242.002018 
L 218.309411 248.750982 
L 218.420335 248.941571 
L 218.460916 248.901227 
L 218.615127 248.388956 
L 218.758516 247.321023 
L 218.991185 245.708214 
L 219.13728 245.686865 
L 219.153513 245.706868 
L 219.291491 246.095625 
L 219.589091 247.077958 
L 219.624262 247.027988 
L 219.73248 246.365282 
L 219.916451 243.958857 
L 220.311447 236.674 
L 220.465658 236.130382 
L 220.492713 236.150143 
L 220.592815 236.461631 
L 220.820073 238.092123 
L 221.04192 239.439736 
L 221.090618 239.343751 
L 221.669585 237.723652 
L 221.829207 237.554181 
L 221.861673 237.57311 
L 222.026705 237.530587 
L 222.140335 237.323116 
L 222.267491 236.666082 
L 222.654371 233.116801 
L 222.740945 233.158567 
L 222.754473 233.175911 
L 222.941149 233.605592 
L 223.227927 234.25362 
L 223.403782 234.56202 
L 223.598575 234.841205 
L 223.652684 234.787456 
L 223.990865 234.193035 
L 224.488669 231.004648 
L 225.156916 226.061075 
L 225.454516 225.652833 
L 225.711535 225.228908 
L 225.990196 223.155496 
L 226.087593 223.022383 
L 226.225571 221.515034 
L 227.042618 203.846723 
L 227.191418 192.069626 
L 227.248233 164.110602 
L 227.283404 89.421008 
L 227.348335 181.606566 
L 227.524189 239.206949 
L 227.700044 245.284309 
L 227.930007 247.2865 
L 228.249251 247.86204 
L 228.251956 247.860846 
L 228.343942 247.693174 
L 228.579316 246.334921 
L 228.922909 244.67725 
L 229.044655 244.728388 
L 229.231331 244.995512 
L 229.415302 245.761078 
L 229.794065 248.627652 
L 230.364916 251.888308 
L 230.694982 252.499294 
L 230.808611 252.621952 
L 230.962822 253.259425 
L 231.915142 259.583592 
L 232.234385 261.409578 
L 232.661847 262.43699 
L 232.691607 262.37062 
L 232.807942 261.474752 
L 233.400436 255.511515 
L 233.54112 255.333456 
L 233.568175 255.345914 
L 233.692625 255.481415 
L 233.727796 255.325787 
L 233.925295 254.426202 
L 233.968582 254.476954 
L 234.084916 255.004267 
L 234.258065 255.906723 
L 234.309469 255.746446 
L 234.699055 254.206061 
L 234.709876 254.209831 
L 234.804567 254.386532 
L 235.012887 255.42717 
L 235.89216 261.630575 
L 236.154589 263.101803 
L 236.270924 263.426504 
L 236.492771 264.926525 
L 236.730851 265.914623 
L 236.922938 266.444041 
L 237.234065 267.274819 
L 237.393687 267.629388 
L 237.675055 268.19385 
L 237.804916 268.099234 
L 237.9456 267.771977 
L 238.216145 267.370035 
L 238.346007 267.413869 
L 238.502924 267.823324 
L 238.74912 268.917197 
L 238.827578 268.622906 
L 239.482298 265.376985 
L 239.739316 264.901206 
L 240.107258 263.443925 
L 240.199244 263.565648 
L 240.797149 264.834306 
L 241.451869 266.878488 
L 241.468102 266.830079 
L 241.608785 265.398814 
L 241.909091 263.755235 
L 242.106589 262.776071 
L 242.531345 259.913433 
L 242.601687 259.944133 
L 242.623331 259.983743 
L 242.772131 260.568685 
L 244.003113 267.097203 
L 244.051811 267.0088 
L 244.168145 266.847004 
L 244.211433 266.899736 
L 244.341295 267.412841 
L 244.768756 269.19838 
L 244.950022 269.534151 
L 245.247622 270.07715 
L 245.407244 270.241817 
L 245.791418 271.02911 
L 245.864465 270.935314 
L 245.967273 269.940095 
L 246.33792 266.877623 
L 246.478604 266.609645 
L 246.511069 266.626836 
L 246.597644 266.625588 
L 246.621993 266.572858 
L 246.922298 265.434178 
L 247.744756 258.005442 
L 247.812393 257.963686 
L 247.858385 258.024191 
L 248.169513 258.596007 
L 248.223622 258.527634 
L 248.429236 258.262792 
L 248.467113 258.299795 
L 248.59968 258.68832 
L 248.786356 259.010075 
L 249.100189 259.074447 
L 249.259811 259.694664 
L 250.409629 265.434488 
L 250.423156 265.426091 
L 250.501615 265.17385 
L 250.869556 263.852807 
L 250.893905 263.86622 
L 251.004829 264.110315 
L 251.386298 265.827213 
L 251.627084 267.017444 
L 251.681193 266.845154 
L 251.981498 265.126076 
L 252.041018 265.178164 
L 252.073484 265.196259 
L 252.11136 265.095818 
L 252.744436 262.765199 
L 252.939229 262.861335 
L 253.09344 263.359842 
L 253.372102 265.197554 
L 253.753571 267.493278 
L 253.767098 267.483881 
L 253.842851 267.18052 
L 254.346065 264.353749 
L 254.43264 264.472453 
L 254.605789 265.206105 
L 255.53376 270.051568 
L 255.558109 270.027061 
L 255.687971 269.558856 
L 255.917935 266.947121 
L 256.207418 264.938276 
L 256.385978 264.660777 
L 256.675462 264.763711 
L 257.503331 266.827738 
L 257.736 267.809037 
L 257.806342 267.616213 
L 258.09312 266.79748 
L 258.109353 266.80442 
L 258.144524 266.815793 
L 258.171578 266.714116 
L 258.428596 265.225995 
L 258.504349 265.358718 
L 258.677498 266.28098 
L 259.156364 270.404081 
L 259.43232 271.901109 
L 259.49184 272.028428 
L 259.545949 271.896705 
L 259.735331 271.429442 
L 259.773207 271.461396 
L 259.900364 271.829109 
L 260.051869 272.121998 
L 260.078924 272.10013 
L 260.160087 271.804545 
L 260.490153 270.588302 
L 260.679535 270.342948 
L 260.709295 270.365404 
L 260.879738 270.566425 
L 260.939258 270.454703 
L 261.250385 269.547317 
L 261.342371 269.679912 
L 261.534458 270.439243 
L 261.791476 271.221473 
L 261.794182 271.220457 
L 261.850996 271.060817 
L 262.4976 267.750993 
L 262.757324 265.041891 
L 263.409338 255.750593 
L 263.439098 255.767251 
L 263.544611 256.048435 
L 263.763753 256.922356 
L 263.788102 256.515962 
L 263.999127 254.331451 
L 264.058647 254.436159 
L 264.202036 255.339311 
L 264.534807 257.174808 
L 264.656553 257.376841 
L 264.707956 257.337229 
L 264.843229 257.30243 
L 264.867578 257.334254 
L 265.043433 257.829066 
L 265.465484 259.159391 
L 265.570996 259.055059 
L 265.798255 258.646381 
L 265.844247 258.69199 
L 265.982225 259.126538 
L 266.006575 259.15743 
L 266.0688 259.044315 
L 266.179724 258.423679 
L 266.509789 255.730836 
L 266.526022 255.73701 
L 266.642356 255.940479 
L 266.793862 256.394513 
L 266.856087 256.21239 
L 267.581149 251.951545 
L 267.997789 249.757362 
L 268.008611 249.759343 
L 268.130356 249.904096 
L 268.295389 250.582925 
L 268.739084 253.794215 
L 269.548015 259.078112 
L 269.683287 259.611042 
L 269.734691 259.524427 
L 269.975476 259.008107 
L 270.018764 259.048203 
L 270.148625 259.441663 
L 270.400233 261.070143 
L 271.022487 266.981563 
L 271.490531 270.669308 
L 271.498647 270.664695 
L 271.577105 270.413194 
L 272.007273 268.171105 
L 272.307578 266.293291 
L 272.4672 265.669646 
L 272.713396 264.926064 
L 272.716102 264.926636 
L 272.813498 265.067154 
L 272.940655 265.319532 
L 272.997469 265.236428 
L 273.319418 264.276695 
L 273.898385 260.909816 
L 274.07424 260.425523 
L 274.095884 260.436304 
L 274.198691 260.667225 
L 274.409716 261.831227 
L 275.592 269.431538 
L 275.654225 269.478875 
L 275.702924 269.408246 
L 275.886895 268.747799 
L 276.081687 266.482986 
L 276.303535 261.609259 
L 276.614662 257.168573 
L 276.950138 255.979403 
L 277.085411 255.971489 
L 277.2288 256.173431 
L 277.40736 256.96355 
L 278.081018 260.846186 
L 278.129716 260.685193 
L 278.332625 258.827468 
L 278.578822 257.582885 
L 278.968407 256.883286 
L 279.284945 255.403143 
L 279.357993 255.374734 
L 279.40128 255.430034 
L 279.541964 255.93447 
L 279.663709 256.439942 
L 279.712407 256.256855 
L 280.486167 250.364915 
L 280.810822 246.419211 
L 281.021847 245.962288 
L 281.094895 246.117654 
L 281.257222 247.124506 
L 281.709033 251.836264 
L 282.536902 259.859644 
L 282.680291 260.439796 
L 282.728989 260.164775 
L 282.94272 259.208437 
L 282.961658 259.21709 
L 283.053644 259.441348 
L 283.167273 259.727961 
L 283.229498 259.668842 
L 283.343127 259.626324 
L 283.375593 259.665852 
L 284.181818 261.205234 
L 284.433425 262.615737 
L 284.660684 263.408025 
L 284.687738 263.422165 
L 284.712087 263.309027 
L 285.169309 259.896171 
L 285.245062 260.042728 
L 285.423622 261.11153 
L 285.759098 262.536833 
L 285.967418 263.25877 
L 286.965731 267.687302 
L 287.263331 268.679225 
L 287.88288 271.20505 
L 287.896407 271.19946 
L 288.126371 270.917932 
L 288.80544 268.877191 
L 289.243724 267.899304 
L 289.308655 267.970266 
L 289.663069 268.825327 
L 289.903855 269.840711 
L 290.420596 273.034968 
L 290.496349 272.482971 
L 290.720902 271.421358 
L 290.85888 271.265118 
L 291.12672 270.525738 
L 291.161891 270.549729 
L 291.443258 271.027043 
L 291.78144 271.754842 
L 291.978938 271.999494 
L 292.135855 272.33146 
L 292.409105 272.833494 
L 292.601193 273.238723 
L 292.652596 273.287605 
L 292.709411 273.215477 
L 292.768931 272.869035 
L 293.310022 268.580576 
L 293.429062 268.428757 
L 293.466938 268.458101 
L 293.888989 269.087852 
L 294.186589 270.698714 
L 294.960349 275.041477 
L 295.101033 275.141528 
L 295.125382 275.119903 
L 295.306647 274.716676 
L 295.550138 274.459962 
L 295.701644 274.064869 
L 296.388829 270.968103 
L 296.851462 270.323816 
L 296.908276 270.391198 
L 297.333033 271.346336 
L 297.649571 271.95637 
L 297.868713 272.734395 
L 298.095971 273.277267 
L 298.453091 273.624345 
L 298.47744 273.482596 
L 298.637062 270.744774 
L 298.969833 266.71114 
L 299.186269 265.846851 
L 299.272844 265.969263 
L 299.316131 266.021762 
L 299.372945 265.9292 
L 299.513629 265.776936 
L 299.5488 265.809812 
L 299.675956 266.177608 
L 299.981673 267.831614 
L 300.119651 267.61135 
L 300.32256 267.077135 
L 300.53088 266.578021 
L 300.547113 266.584635 
L 300.652625 266.783448 
L 300.731084 267.063072 
L 300.777076 266.8204 
L 301.077382 265.523815 
L 301.147724 265.551732 
L 301.169367 265.59058 
L 301.318167 266.169679 
L 301.667171 268.437664 
L 301.75104 267.939769 
L 302.021585 266.617183 
L 302.183913 266.409214 
L 302.213673 266.422353 
L 302.40576 266.626659 
L 302.816989 267.8327 
L 303.141644 268.894975 
L 303.341847 269.742055 
L 303.712495 271.475051 
L 303.753076 271.431119 
L 304.029033 270.719393 
L 304.483549 266.332176 
L 304.491665 266.334449 
L 304.670225 266.296277 
L 304.96512 265.980812 
L 305.021935 266.068732 
L 305.189673 266.715664 
L 305.752407 269.821823 
L 305.809222 270.04943 
L 305.866036 269.858226 
L 306.206924 268.613489 
L 306.307025 268.685297 
L 306.726371 269.753445 
L 307.102429 270.83102 
L 307.199825 270.98921 
L 307.253935 270.896102 
L 307.516364 270.36951 
L 307.55424 270.398737 
L 307.570473 270.420052 
L 307.578589 270.297708 
L 307.835607 266.839677 
L 308.162967 266.314701 
L 308.620189 263.403488 
L 308.690531 263.497501 
L 308.852858 264.065131 
L 308.963782 263.889241 
L 309.274909 263.742197 
L 309.388538 264.00408 
L 309.650967 264.438744 
L 309.926924 265.389364 
L 310.037847 265.133206 
L 310.476131 263.528514 
L 310.503185 263.545524 
L 310.616815 263.822234 
L 310.792669 264.445163 
L 310.868422 264.34976 
L 311.033455 264.20544 
L 311.063215 264.231259 
L 311.193076 264.558665 
L 311.444684 265.956789 
L 311.861324 267.799245 
L 311.985775 267.923583 
L 312.029062 267.855089 
L 312.231971 267.579272 
L 312.261731 267.602127 
L 312.391593 267.908604 
L 312.846109 269.120746 
L 312.908335 269.178858 
L 312.946211 269.084809 
L 313.176175 267.74737 
L 313.633396 263.151079 
L 313.930996 262.087718 
L 314.063564 261.67482 
L 314.328698 260.823445 
L 314.436916 260.810538 
L 314.461265 260.84023 
L 314.829207 261.597831 
L 315.032116 262.383745 
L 315.684131 265.260642 
L 315.965498 265.848453 
L 316.119709 265.807112 
L 316.344262 265.708155 
L 316.566109 265.643692 
L 316.585047 265.675781 
L 316.75008 266.224559 
L 317.101789 267.751443 
L 317.161309 267.63291 
L 317.304698 266.483539 
L 317.729455 263.393883 
L 318.075753 262.550433 
L 318.17856 262.484708 
L 318.216436 262.522787 
L 318.351709 262.922041 
L 318.973964 265.727513 
L 319.076771 265.59793 
L 319.187695 265.56209 
L 319.217455 265.594598 
L 319.358138 265.983748 
L 319.769367 268.107621 
L 320.039913 268.905665 
L 320.323985 269.011934 
L 320.326691 269.007968 
L 320.3808 268.698517 
L 320.654051 266.934392 
L 320.6784 266.948132 
L 320.781207 267.21986 
L 321.059869 267.890548 
L 321.354764 267.728433 
L 321.479215 267.287967 
L 321.638836 267.036058 
L 321.663185 267.050848 
L 321.784931 267.311986 
L 322.039244 268.53939 
L 322.739956 271.568504 
L 322.769716 271.520401 
L 322.961804 270.678135 
L 323.180945 270.100394 
L 323.183651 270.100943 
L 323.286458 270.242721 
L 323.494778 271.047586 
L 323.686865 271.336505 
L 323.811316 271.391227 
L 323.846487 271.310364 
L 324.45792 269.16528 
L 324.839389 266.885867 
L 325.101818 266.539879 
L 325.120756 266.552182 
L 325.242502 266.805987 
L 325.510342 267.45115 
L 325.545513 267.424283 
L 325.7376 267.307637 
L 325.764655 267.338617 
L 325.943215 267.723397 
L 325.994618 267.495923 
L 326.395025 265.171361 
L 326.484305 265.158991 
L 326.516771 265.199435 
L 326.662865 265.644435 
L 326.830604 266.236371 
L 326.882007 266.116194 
L 327.052451 264.911005 
L 327.304058 263.809406 
L 327.406865 263.416908 
L 327.755869 262.117312 
L 327.858676 262.024823 
L 327.899258 262.066272 
L 328.248262 262.413405 
L 328.305076 262.212018 
L 328.645964 261.020236 
L 328.840756 260.553592 
L 328.867811 260.569915 
L 328.994967 260.859235 
L 329.138356 261.115158 
L 329.195171 261.048942 
L 329.346676 260.58636 
L 329.511709 260.248445 
L 329.538764 260.266419 
L 329.66592 260.568633 
L 330.304407 262.817516 
L 330.764335 265.656653 
L 331.516451 270.307945 
L 331.551622 270.432275 
L 331.586793 270.167219 
L 331.862749 268.122914 
L 331.992611 268.137389 
L 332.003433 268.154322 
L 332.149527 268.625738 
L 332.444422 270.509646 
L 332.85024 273.271894 
L 332.898938 273.144332 
L 333.312873 271.841893 
L 333.421091 271.948455 
L 333.624 272.412787 
L 333.699753 272.257811 
L 333.929716 271.86521 
L 333.948655 271.874923 
L 334.146153 271.878051 
L 334.27872 272.033152 
L 334.462691 272.166963 
L 334.579025 272.088124 
L 334.868509 271.10962 
L 335.090356 270.620888 
L 335.304087 270.491874 
L 335.37984 270.120741 
L 335.639564 267.334219 
L 336.215825 261.833163 
L 336.432262 261.026693 
L 336.613527 260.846217 
L 336.819142 260.626739 
L 336.859724 260.670764 
L 337.095098 261.246539 
L 337.389993 262.602356 
L 337.690298 264.249439 
L 338.093411 266.940267 
L 338.161047 266.866825 
L 338.466764 266.441837 
L 338.539811 266.550631 
L 338.786007 267.109614 
L 338.86176 267.006763 
L 339.116073 266.316019 
L 339.305455 264.512388 
L 339.81408 257.693719 
L 340.038633 256.776393 
L 340.14144 256.877052 
L 340.363287 257.420961 
L 340.428218 257.231024 
L 340.598662 256.740371 
L 340.639244 256.781529 
L 340.758284 257.227245 
L 341.215505 259.124991 
L 341.437353 260.242537 
L 341.935156 262.950098 
L 341.948684 262.942918 
L 342.311215 262.761516 
L 342.408611 262.793049 
L 342.443782 262.726125 
L 342.665629 262.328246 
L 342.708916 262.367351 
L 342.833367 262.495817 
L 342.890182 262.434964 
L 343.195898 262.204263 
L 343.209425 262.217647 
L 343.553018 262.789156 
L 343.791098 264.141417 
L 344.383593 267.613601 
L 345.127593 269.3963 
L 345.222284 269.189384 
L 345.381905 268.344178 
L 345.793135 265.937378 
L 345.882415 266.040447 
L 346.039331 266.527867 
L 346.125905 266.326052 
L 346.269295 265.324774 
L 346.48032 264.677629 
L 346.572305 264.682047 
L 346.596655 264.716692 
L 347.153978 265.912786 
L 347.172916 265.978198 
L 347.210793 265.701138 
L 347.410996 264.537539 
L 347.429935 264.548931 
L 347.519215 264.812113 
L 347.732945 266.327048 
L 348.311913 271.43241 
L 348.395782 271.208623 
L 348.717731 269.735943 
L 349.034269 267.722026 
L 349.237178 267.567892 
L 349.266938 267.599003 
L 349.410327 267.973385 
L 349.60512 268.849466 
L 349.642996 268.453398 
L 349.937891 265.525184 
L 350.065047 265.296795 
L 350.102924 265.327859 
L 350.224669 265.695208 
L 350.462749 266.187086 
L 350.673775 266.500263 
L 350.744116 266.323537 
L 351.136407 265.332415 
L 351.141818 265.334274 
L 351.317673 265.291532 
L 351.396131 264.839448 
L 351.831709 261.861057 
L 352.042735 261.616969 
L 352.256465 261.688734 
L 352.467491 262.052407 
L 352.516189 261.987013 
L 352.618996 261.512478 
L 352.913891 260.42554 
L 352.989644 260.436076 
L 353.016698 260.477371 
L 353.160087 260.990657 
L 353.546967 263.473857 
L 353.584844 262.595717 
L 353.841862 258.704187 
L 353.998778 258.046327 
L 354.025833 258.064511 
L 354.123229 258.373565 
L 354.832058 262.408119 
L 355.757324 269.002132 
L 356.133382 270.465456 
L 356.160436 270.502236 
L 356.201018 270.370573 
L 356.606836 267.821088 
L 357.050531 259.662968 
L 357.331898 255.75038 
L 357.824291 253.047223 
L 358.021789 252.809327 
L 358.075898 252.894366 
L 358.224698 253.532402 
L 358.527709 256.042979 
L 358.911884 258.606991 
L 359.420509 262.180707 
L 359.558487 262.889701 
L 359.626124 262.828073 
L 359.701876 262.826443 
L 359.731636 262.874597 
L 359.866909 263.429383 
L 360.800291 267.692952 
L 361.203404 268.737449 
L 361.463127 269.454353 
L 361.68768 269.604204 
L 362.012335 269.358686 
L 362.22336 268.228858 
L 362.748218 264.489111 
L 363.221673 263.038485 
L 363.543622 261.106451 
L 363.703244 260.941263 
L 363.852044 260.4206 
L 363.895331 260.472738 
L 364.022487 261.036491 
L 364.498647 263.108643 
L 364.520291 263.116646 
L 364.571695 263.023781 
L 364.847651 262.074613 
L 365.19936 259.528123 
L 365.323811 258.62473 
L 365.605178 257.274777 
L 365.713396 257.33841 
L 365.864902 257.728857 
L 366.15168 258.628706 
L 366.535855 259.673657 
L 366.822633 260.463851 
L 367.101295 262.204113 
L 367.444887 264.754399 
L 367.517935 264.598782 
L 368.161833 262.501943 
L 368.218647 262.557435 
L 368.619055 263.198474 
L 368.694807 263.142974 
L 368.805731 262.961012 
L 369.547025 255.885143 
L 370.101644 248.037451 
L 370.350545 246.742244 
L 370.426298 246.659094 
L 370.474996 246.725489 
L 370.686022 247.500374 
L 371.040436 249.612279 
L 371.400262 252.556709 
L 372.092858 258.258966 
L 372.352582 259.598115 
L 372.477033 259.994107 
L 372.52032 259.952877 
L 372.650182 259.568741 
L 372.796276 258.580094 
L 373.088465 256.735997 
L 373.231855 256.440785 
L 373.261615 256.453926 
L 373.386065 256.671726 
L 373.572742 257.582606 
L 374.138182 261.392912 
L 374.222051 261.157014 
L 374.489891 260.401403 
L 374.506124 260.40828 
L 374.611636 260.610289 
L 375.036393 262.314479 
L 375.166255 262.94781 
L 375.217658 262.775854 
L 375.574778 261.038816 
L 375.666764 260.959365 
L 375.710051 261.007342 
L 375.842618 261.458469 
L 376.443229 264.99013 
L 376.694836 266.387976 
L 376.721891 266.374577 
L 376.943738 266.340181 
L 377.262982 266.919772 
L 377.419898 267.103141 
L 377.457775 267.073192 
L 377.538938 266.834282 
L 377.814895 264.907081 
L 378.009687 264.355605 
L 378.017804 264.357794 
L 378.1152 264.515302 
L 378.207185 264.744093 
L 378.269411 264.622922 
L 378.483142 264.28399 
L 378.50208 264.294867 
L 378.613004 264.525317 
L 378.79968 265.200709 
L 378.880844 265.032193 
L 379.170327 264.492911 
L 379.33536 264.551052 
L 379.346182 264.5646 
L 379.367825 264.411586 
L 379.746589 261.290412 
L 379.941382 261.06256 
L 379.949498 261.066384 
L 380.063127 261.256291 
L 380.539287 262.93203 
L 381.234589 264.871299 
L 381.5376 265.077627 
L 381.735098 265.11244 
L 381.892015 265.55351 
L 382.1328 266.567874 
L 382.22208 266.447603 
L 382.470982 266.025944 
L 382.506153 266.053438 
L 382.636015 266.297709 
L 382.665775 266.07787 
L 382.933615 264.250322 
L 382.93632 264.250654 
L 383.014778 264.38268 
L 383.185222 265.263399 
L 383.793949 268.669518 
L 383.929222 268.994298 
L 383.972509 268.886113 
L 384.083433 267.82409 
L 384.519011 263.258705 
L 385.089862 258.54335 
L 385.217018 258.263328 
L 385.254895 258.294048 
L 385.373935 258.665376 
L 386.861935 265.066584 
L 387.178473 266.549094 
L 387.286691 266.801614 
L 387.332684 266.783976 
L 387.470662 266.846728 
L 387.695215 267.310414 
L 387.749324 267.103968 
L 388.05504 265.44636 
L 388.098327 265.469459 
L 388.279593 265.758548 
L 388.487913 266.647159 
L 388.882909 269.551103 
L 389.248145 271.69662 
L 389.491636 271.571914 
L 389.713484 270.218721 
L 389.913687 269.726062 
L 389.921804 269.728426 
L 390.027316 269.889631 
L 390.154473 269.980459 
L 390.181527 269.962853 
L 390.449367 269.611267 
L 390.571113 268.520271 
L 390.88224 266.473425 
L 391.101382 266.053588 
L 391.44768 264.613226 
L 391.699287 263.557338 
L 391.793978 263.633322 
L 392.050996 263.975157 
L 392.075345 263.954748 
L 392.345891 263.48292 
L 392.721949 261.212687 
L 392.808524 261.286835 
L 392.840989 261.281897 
L 392.878865 261.204981 
L 393.02496 261.0012 
L 393.065542 261.042315 
L 393.582284 261.678806 
L 393.728378 261.563439 
L 393.809542 260.126971 
L 394.042211 257.899949 
L 394.220771 257.572855 
L 394.239709 257.582954 
L 394.407447 257.574835 
L 394.526487 257.590392 
L 394.540015 257.610807 
L 394.734807 257.951913 
L 394.772684 257.79345 
L 394.981004 255.284006 
L 395.194735 254.174787 
L 395.270487 254.292491 
L 395.427404 255.11474 
L 396.171404 259.640109 
L 396.509585 261.384692 
L 396.590749 261.188616 
L 396.801775 260.864839 
L 396.915404 260.9513 
L 397.080436 260.996077 
L 397.167011 260.815883 
L 397.478138 260.208533 
L 397.559302 260.0589 
L 397.678342 259.423957 
L 397.865018 258.871789 
L 397.883956 258.880918 
L 398.005702 258.920152 
L 398.043578 258.871618 
L 398.168029 258.81989 
L 398.197789 258.854286 
L 398.306007 258.971613 
L 398.354705 258.897555 
L 398.481862 258.072884 
L 398.487273 258.027427 
L 398.487273 258.027427 
" clip-path="url(#p1d0fd05e54)" style="fill: none; stroke: #000000; stroke-width: 1.5; stroke-linecap: square"/>
   </g>
   <g id="line2d_17">
    <path d="M 73.832727 280.9728 
L 74.041047 284.031969 
L 74.365702 285.861483 
L 74.457687 286.025143 
L 74.500975 285.898081 
L 74.666007 284.597211 
L 75.180044 281.023186 
L 75.577745 279.445806 
L 75.780655 279.119116 
L 76.032262 278.599036 
L 76.2 278.535002 
L 76.760029 277.164043 
L 76.857425 277.167733 
L 76.881775 277.198287 
L 77.041396 277.635819 
L 77.238895 278.359597 
L 77.295709 278.175017 
L 77.671767 276.768206 
L 77.769164 276.86433 
L 78.01536 277.148654 
L 78.023476 277.139869 
L 78.085702 276.758714 
L 78.369775 275.235608 
L 78.49152 275.161087 
L 78.523985 275.192774 
L 78.661964 275.561345 
L 78.732305 275.805602 
L 78.791825 275.630125 
L 78.948742 275.260016 
L 78.986618 275.294643 
L 79.492538 276.2963 
L 79.703564 276.808315 
L 79.763084 276.716584 
L 80.236538 275.462153 
L 80.374516 274.801067 
L 80.528727 272.754096 
L 80.8128 269.691106 
L 81.326836 266.935485 
L 81.489164 266.514558 
L 81.513513 266.528685 
L 81.746182 266.60499 
L 81.859811 266.761586 
L 82.038371 267.51868 
L 82.203404 268.089473 
L 82.243985 268.071526 
L 82.411724 268.098273 
L 82.560524 268.524876 
L 83.01504 269.595335 
L 83.280175 269.775745 
L 83.680582 270.567592 
L 84.221673 273.333751 
L 84.297425 273.079864 
L 84.876393 269.934416 
L 85.076596 269.626553 
L 85.103651 269.644609 
L 85.290327 269.797184 
L 85.325498 269.709098 
L 85.820596 267.446979 
L 86.064087 266.484673 
L 86.386036 266.554903 
L 86.591651 266.872185 
L 86.653876 266.738309 
L 86.832436 266.464488 
L 86.862196 266.485118 
L 86.983942 266.777608 
L 87.213905 268.050522 
L 88.352902 275.294047 
L 88.379956 275.306199 
L 88.43136 275.214014 
L 88.623447 274.982402 
L 88.645091 274.996492 
L 88.777658 275.255551 
L 89.121251 276.248741 
L 89.180771 276.107686 
L 89.356625 275.01707 
L 89.667753 272.91254 
L 89.754327 272.869817 
L 89.797615 272.910803 
L 89.900422 272.902572 
L 89.916655 272.875284 
L 90.019462 272.343177 
L 90.214255 270.246165 
L 90.4848 267.498424 
L 90.617367 266.862665 
L 90.844625 265.330636 
L 90.863564 265.340612 
L 90.971782 265.611014 
L 91.226095 266.812888 
L 91.650851 270.20956 
L 91.975505 272.132549 
L 92.175709 272.572419 
L 92.321804 272.764297 
L 92.8656 273.775407 
L 92.911593 273.76203 
L 92.949469 273.702441 
L 93.054982 273.2861 
L 93.217309 271.749353 
L 93.617716 265.717891 
L 93.974836 264.164288 
L 94.242676 263.198465 
L 94.423942 262.966181 
L 94.56192 262.771379 
L 94.670138 262.693505 
L 94.708015 262.733926 
L 94.862225 263.183464 
L 95.549411 265.621319 
L 95.865949 266.973969 
L 95.971462 267.071406 
L 96.006633 266.964859 
L 96.260945 266.252335 
L 96.282589 266.263525 
L 96.425978 266.521565 
L 96.685702 267.334833 
L 96.986007 268.177621 
L 97.194327 268.622073 
L 97.445935 269.953368 
L 97.970793 272.703267 
L 98.230516 272.946075 
L 98.441542 272.920889 
L 98.852771 272.627759 
L 98.879825 272.663454 
L 99.047564 273.127656 
L 99.193658 273.551579 
L 99.255884 273.494985 
L 99.437149 273.412876 
L 99.450676 273.425487 
L 99.596771 273.740754 
L 99.702284 273.92433 
L 99.759098 273.892718 
L 100.051287 273.594198 
L 100.191971 272.946207 
L 100.500393 268.644985 
L 100.835869 266.061799 
L 101.658327 261.695651 
L 101.782778 261.76303 
L 101.928873 262.214532 
L 102.713455 265.985315 
L 102.813556 265.693766 
L 103.230196 264.974877 
L 103.25184 264.991089 
L 103.387113 265.062047 
L 103.419578 265.010332 
L 103.99584 263.356163 
L 104.177105 262.972002 
L 104.41248 262.508014 
L 104.553164 262.306826 
L 104.593745 262.325278 
L 104.766895 262.217114 
L 104.885935 262.146476 
L 104.921105 262.18569 
L 105.053673 262.598078 
L 105.313396 264.300028 
L 106.714822 274.717652 
L 107.066531 275.24005 
L 107.318138 275.351282 
L 107.380364 275.379019 
L 107.431767 275.32274 
L 107.615738 275.224454 
L 107.631971 275.23825 
L 107.691491 275.291509 
L 107.737484 275.1906 
L 107.832175 274.626042 
L 108.657338 268.314049 
L 108.881891 266.940383 
L 109.458153 264.639173 
L 109.496029 264.663997 
L 109.809862 264.857272 
L 109.964073 264.887466 
L 110.107462 265.308205 
L 110.821702 267.916537 
L 110.824407 267.915519 
L 110.873105 267.745507 
L 111.324916 265.107477 
L 111.411491 265.228503 
L 111.719913 265.912817 
L 111.774022 265.87366 
L 111.820015 265.683904 
L 112.182545 262.867097 
L 112.242065 262.939232 
L 112.480145 263.186025 
L 112.701993 263.497633 
L 112.821033 263.637486 
L 112.858909 263.559118 
L 112.999593 262.758993 
L 113.232262 261.943552 
L 113.378356 261.96344 
L 113.381062 261.966908 
L 113.443287 262.012763 
L 113.48928 261.929865 
L 113.659724 261.691877 
L 113.694895 261.72265 
L 113.900509 262.173258 
L 114.133178 263.399906 
L 114.355025 264.157459 
L 114.482182 264.314101 
L 114.658036 265.019795 
L 115.291113 267.907129 
L 115.372276 268.040075 
L 115.418269 267.957915 
L 115.545425 267.207668 
L 116.113571 262.895509 
L 116.183913 262.967231 
L 116.189324 262.980716 
L 116.338124 263.683376 
L 116.695244 266.72405 
L 117.382429 272.305056 
L 117.431127 272.359268 
L 117.482531 272.268307 
L 117.642153 271.508491 
L 117.996567 269.887383 
L 118.096669 269.975032 
L 118.272524 270.564796 
L 118.521425 271.219905 
L 118.545775 271.207281 
L 118.897484 270.807412 
L 119.379055 267.89987 
L 119.460218 267.995028 
L 119.630662 268.619837 
L 120.028364 270.840814 
L 120.163636 270.728114 
L 120.263738 270.05247 
L 120.807535 266.384647 
L 121.113251 265.743251 
L 121.218764 265.847265 
L 121.473076 266.308343 
L 121.529891 266.243092 
L 121.670575 265.6019 
L 122.114269 262.955296 
L 122.341527 260.507547 
L 122.541731 259.683129 
L 122.931316 257.545746 
L 123.026007 257.624946 
L 123.172102 258.198113 
L 123.461585 260.447227 
L 124.32192 267.445899 
L 125.230953 271.650076 
L 125.339171 271.46354 
L 125.48256 270.521682 
L 125.942487 266.494523 
L 126.448407 261.455242 
L 126.697309 260.842525 
L 126.727069 260.862511 
L 126.759535 260.899243 
L 126.789295 260.775555 
L 126.992204 259.896144 
L 127.03008 259.933292 
L 127.146415 260.369226 
L 127.584698 262.614999 
L 127.641513 262.485396 
L 128.114967 261.023581 
L 128.266473 260.605405 
L 128.542429 259.600134 
L 128.564073 259.610902 
L 128.677702 259.852984 
L 129.218793 261.014979 
L 129.348655 261.335707 
L 129.581324 262.645831 
L 130.549876 269.892541 
L 130.644567 269.477074 
L 130.917818 268.586515 
L 130.920524 268.587034 
L 131.015215 268.726321 
L 131.145076 268.834523 
L 131.177542 268.801893 
L 131.329047 268.399947 
L 131.605004 266.110213 
L 131.794385 265.21596 
L 131.802502 265.218336 
L 131.883665 265.378156 
L 132.067636 266.383961 
L 132.570851 270.758038 
L 132.917149 272.860106 
L 132.955025 272.977925 
L 133.01184 272.762987 
L 133.414953 270.189789 
L 133.515055 270.35348 
L 133.712553 271.277032 
L 134.194124 274.138463 
L 134.269876 273.964883 
L 135.100451 270.200367 
L 135.495447 267.795321 
L 135.590138 267.891844 
L 135.765993 268.395799 
L 135.83904 268.180605 
L 136.179927 266.939458 
L 136.209687 266.956085 
L 136.328727 267.21566 
L 136.564102 268.390383 
L 137.105193 271.097547 
L 137.145775 271.091313 
L 137.191767 271.032452 
L 137.343273 270.962784 
L 137.364916 270.983362 
L 137.508305 271.318019 
L 138.027753 272.717143 
L 138.052102 272.704851 
L 138.079156 272.627693 
L 138.363229 271.067866 
L 138.682473 269.250857 
L 138.766342 269.285887 
L 138.782575 269.312832 
L 139.126167 269.723614 
L 139.375069 269.630476 
L 139.496815 269.117129 
L 139.780887 268.212019 
L 139.913455 268.064918 
L 139.948625 268.093641 
L 140.229993 268.614371 
L 140.465367 269.712625 
L 140.792727 271.006895 
L 141.090327 271.427047 
L 141.095738 271.42306 
L 141.171491 271.190457 
L 141.460975 270.340408 
L 141.471796 270.344025 
L 141.498851 270.335478 
L 141.5232 270.251271 
L 141.763985 269.267498 
L 141.823505 269.343476 
L 141.972305 269.960959 
L 142.399767 271.759381 
L 142.513396 271.73186 
L 142.526924 271.70021 
L 142.851578 270.570508 
L 143.116713 268.9679 
L 143.238458 268.655733 
L 143.373731 268.480307 
L 143.408902 268.507468 
L 143.536058 268.839456 
L 143.836364 270.14907 
L 143.96352 270.069037 
L 144.08256 269.765174 
L 144.564131 267.457431 
L 144.637178 267.541458 
L 144.815738 267.660173 
L 144.937484 267.87351 
L 145.053818 268.06615 
L 145.102516 268.021149 
L 145.465047 267.509022 
L 145.543505 267.640349 
L 145.822167 268.444034 
L 145.887098 268.218331 
L 146.625687 264.414029 
L 146.628393 264.414478 
L 146.723084 264.548404 
L 146.901644 265.319797 
L 147.634822 269.011959 
L 147.645644 269.003909 
L 147.724102 268.708443 
L 148.056873 265.577278 
L 148.316596 264.119437 
L 148.381527 264.133236 
L 148.411287 264.182527 
L 148.649367 264.939938 
L 148.914502 266.482542 
L 149.4096 269.66638 
L 149.455593 269.635515 
L 149.682851 269.488099 
L 149.7072 269.51594 
L 149.856 269.91071 
L 150.037265 270.668754 
L 150.102196 270.435252 
L 150.3024 269.757255 
L 150.33216 269.779845 
L 150.445789 270.112274 
L 150.610822 270.934305 
L 150.632465 270.505515 
L 150.875956 267.001326 
L 151.049105 265.758602 
L 151.28448 264.718738 
L 151.43328 264.355403 
L 151.741702 263.666165 
L 151.774167 263.689327 
L 151.876975 263.681523 
L 151.898618 263.655814 
L 152.115055 263.20397 
L 152.282793 262.956986 
L 152.312553 262.977729 
L 152.434298 263.271108 
L 152.877993 265.33145 
L 153.167476 266.512211 
L 153.657164 268.66111 
L 154.228015 271.779599 
L 154.628422 274.232662 
L 155.120815 276.903635 
L 155.415709 277.951194 
L 155.464407 277.907843 
L 155.826938 277.201485 
L 155.945978 276.326611 
L 156.170531 275.391255 
L 156.267927 275.478636 
L 156.384262 275.773317 
L 156.43296 275.575344 
L 156.795491 272.544171 
L 157.052509 271.308946 
L 157.845207 270.22199 
L 158.050822 269.851969 
L 158.191505 269.934177 
L 158.361949 270.398104 
L 158.667665 272.021484 
L 159.216873 274.819455 
L 159.262865 274.897173 
L 159.314269 274.774167 
L 160.177309 271.855371 
L 160.307171 271.899516 
L 160.472204 272.325591 
L 160.872611 273.700114 
L 160.92672 273.586605 
L 161.053876 272.543021 
L 161.367709 270.50962 
L 161.594967 269.859196 
L 161.962909 266.413905 
L 162.249687 264.671439 
L 162.398487 263.972507 
L 162.761018 261.78659 
L 162.834065 261.784588 
L 162.866531 261.831295 
L 163.00992 262.339707 
L 163.077556 262.566591 
L 163.139782 262.436785 
L 163.245295 262.263562 
L 163.291287 262.325604 
L 163.421149 262.910738 
L 163.710633 264.050828 
L 163.824262 264.248342 
L 164.167855 264.95707 
L 164.281484 265.112995 
L 164.359942 265.294155 
L 164.432989 265.198497 
L 164.533091 264.776579 
L 164.846924 263.683734 
L 165.112058 262.906723 
L 165.385309 262.05206 
L 165.393425 262.054707 
L 165.485411 262.219991 
L 165.666676 263.134726 
L 166.072495 265.115947 
L 166.110371 265.118498 
L 166.156364 265.047591 
L 166.353862 264.406409 
L 166.578415 263.879661 
L 166.583825 263.8814 
L 166.686633 264.040654 
L 166.93824 264.401244 
L 167.062691 264.498246 
L 167.601076 265.300821 
L 167.728233 265.171201 
L 167.844567 265.238705 
L 168.006895 265.643352 
L 168.071825 265.418146 
L 168.274735 264.762893 
L 168.3072 264.788014 
L 168.420829 265.127567 
L 169.313629 269.079525 
L 169.397498 268.999644 
L 169.549004 268.945125 
L 169.567942 268.963977 
L 169.708625 269.301317 
L 169.822255 269.46903 
L 169.865542 269.454251 
L 170.12256 269.273878 
L 170.804335 265.452135 
L 170.893615 265.422655 
L 170.931491 265.466639 
L 171.077585 265.912062 
L 171.437411 267.119505 
L 171.46176 267.099548 
L 171.556451 266.798764 
L 171.778298 266.253133 
L 171.791825 266.258594 
L 171.897338 266.45138 
L 172.100247 267.420516 
L 172.332916 268.916011 
L 172.392436 268.572677 
L 172.925411 264.43221 
L 173.011985 264.365173 
L 173.057978 264.410778 
L 173.18784 264.387803 
L 173.331229 264.424192 
L 173.477324 264.790631 
L 173.490851 264.527447 
L 173.75328 260.287273 
L 173.834444 260.115752 
L 173.885847 260.186318 
L 174.1104 261.06754 
L 174.421527 262.30442 
L 174.759709 264.967666 
L 175.684975 272.528008 
L 175.847302 273.015084 
L 175.901411 272.834457 
L 176.120553 270.889976 
L 176.469556 268.782501 
L 176.75904 267.733468 
L 177.586909 264.77452 
L 177.906153 263.780485 
L 177.914269 263.783316 
L 178.017076 263.954169 
L 178.079302 264.081471 
L 178.141527 263.978143 
L 178.401251 263.133474 
L 179.277818 258.494864 
L 179.350865 258.485052 
L 179.386036 258.532234 
L 179.532131 259.028301 
L 179.805382 259.74542 
L 180.176029 259.946436 
L 180.213905 259.630657 
L 180.633251 255.782634 
L 180.754996 255.574184 
L 181.082356 253.485223 
L 181.166225 253.645633 
L 181.336669 254.666972 
L 181.526051 255.251795 
L 181.574749 255.28452 
L 181.623447 255.204014 
L 181.880465 254.41127 
L 182.23488 252.39453 
L 182.332276 252.358486 
L 182.367447 252.405352 
L 182.578473 252.933169 
L 182.71104 253.279247 
L 182.7408 253.16335 
L 183.022167 251.932466 
L 183.287302 251.465033 
L 183.4848 251.077873 
L 183.501033 251.083186 
L 183.649833 251.261257 
L 183.868975 251.383398 
L 183.906851 251.395229 
L 183.923084 251.305826 
L 184.255855 249.512441 
L 184.485818 249.260651 
L 184.523695 249.30295 
L 184.653556 249.719253 
L 184.999855 250.784682 
L 185.116189 250.774944 
L 185.132422 250.716323 
L 185.914298 247.614511 
L 185.971113 247.677778 
L 186.1632 248.310984 
L 186.882851 250.339842 
L 187.039767 250.609779 
L 187.2048 250.988628 
L 187.258909 250.895782 
L 187.551098 250.448434 
L 187.832465 250.184808 
L 187.986676 250.056353 
L 188.013731 250.077977 
L 188.111127 250.263656 
L 188.138182 250.050084 
L 188.660335 244.670524 
L 188.749615 244.278759 
L 189.177076 241.992732 
L 189.352931 241.560178 
L 189.37728 241.575237 
L 189.431389 241.596822 
L 189.474676 241.517057 
L 189.804742 240.461754 
L 190.713775 235.291655 
L 190.941033 234.840796 
L 190.957265 234.848765 
L 191.062778 235.059353 
L 191.257571 236.080436 
L 191.774313 240.022732 
L 191.841949 239.372612 
L 192.837556 223.950701 
L 193.505804 202.382396 
L 193.619433 188.768172 
L 193.660015 149.2996 
L 193.687069 88.384242 
L 193.757411 184.979133 
L 193.941382 239.859285 
L 194.10912 243.365661 
L 194.241687 244.137096 
L 194.284975 244.087125 
L 194.547404 243.327239 
L 194.899113 240.618317 
L 195.353629 236.45795 
L 195.683695 235.074376 
L 195.843316 234.432353 
L 196.176087 233.157262 
L 196.303244 233.046926 
L 196.335709 233.077372 
L 196.454749 233.424371 
L 196.700945 234.103564 
L 196.714473 234.094322 
L 196.798342 233.809243 
L 197.109469 232.857747 
L 197.193338 232.913256 
L 197.201455 232.92996 
L 197.266385 233.025359 
L 197.317789 232.924302 
L 198.221411 229.927757 
L 198.822022 222.458123 
L 199.547084 218.70482 
L 199.923142 217.175081 
L 200.131462 214.639134 
L 200.312727 209.363312 
L 200.458822 198.506304 
L 200.518342 175.679278 
L 200.558924 78.42628 
L 200.629265 175.201421 
L 200.786182 234.983022 
L 200.902516 239.498246 
L 200.932276 239.439112 
L 201.183884 238.143648 
L 201.689804 234.123435 
L 202.26336 227.601797 
L 202.490618 226.899516 
L 202.823389 226.230342 
L 203.064175 225.865579 
L 203.180509 225.935507 
L 203.318487 226.429863 
L 203.783825 229.014135 
L 203.875811 228.831723 
L 204.092247 228.430475 
L 204.122007 228.451408 
L 204.341149 228.867594 
L 204.70368 230.07494 
L 205.288058 233.205144 
L 205.293469 233.204263 
L 205.580247 233.26097 
L 205.615418 233.303357 
L 205.658705 233.191353 
L 205.823738 232.77352 
L 205.867025 232.823509 
L 205.988771 233.329642 
L 206.018531 233.44504 
L 206.078051 233.200865 
L 206.354007 230.807413 
L 207.211636 224.294457 
L 207.238691 224.310614 
L 207.341498 224.583786 
L 207.536291 225.887415 
L 207.860945 228.313729 
L 207.912349 228.262512 
L 208.172073 227.883701 
L 208.220771 227.937978 
L 208.356044 228.383485 
L 208.588713 230.07295 
L 208.962065 233.173192 
L 209.024291 233.131237 
L 209.181207 233.081871 
L 209.202851 233.108311 
L 209.392233 233.378967 
L 209.46528 233.305747 
L 209.649251 232.877957 
L 210.174109 230.788546 
L 210.225513 230.837969 
L 210.363491 231.302077 
L 210.682735 232.328408 
L 210.709789 232.233994 
L 211.020916 231.082532 
L 211.207593 230.712998 
L 211.402385 230.071844 
L 211.594473 228.018891 
L 212.008407 221.846279 
L 212.446691 216.26283 
L 213.039185 210.03977 
L 213.236684 203.341316 
L 213.347607 190.906751 
L 213.3936 149.709322 
L 213.42336 92.59948 
L 213.490996 182.095384 
L 213.674967 235.8646 
L 213.880582 244.437949 
L 214.202531 249.37775 
L 214.570473 251.807132 
L 214.646225 251.856936 
L 214.686807 251.788181 
L 214.784204 251.207562 
L 215.084509 247.379842 
L 215.341527 245.099655 
L 215.598545 244.859471 
L 215.796044 244.770294 
L 215.80416 244.776828 
L 216.13152 244.923471 
L 216.139636 244.910762 
L 216.288436 244.334996 
L 216.385833 244.199786 
L 216.437236 244.235283 
L 216.583331 244.494516 
L 216.810589 245.609764 
L 217.370618 249.919915 
L 218.038865 255.95384 
L 218.436567 258.662886 
L 218.523142 258.612328 
L 218.533964 258.595939 
L 218.712524 258.09759 
L 218.991185 256.231285 
L 219.002007 256.233021 
L 219.153513 256.372703 
L 219.310429 256.993624 
L 219.602618 258.176148 
L 219.624262 258.150561 
L 219.716247 257.67076 
L 219.902924 255.501872 
L 220.303331 248.13506 
L 220.449425 247.643825 
L 220.479185 247.664954 
L 220.581993 247.989473 
L 220.806545 249.62626 
L 221.039215 251.109666 
L 221.087913 251.013229 
L 221.558662 249.760052 
L 221.653353 249.64459 
L 221.821091 249.47396 
L 221.856262 249.501086 
L 222.007767 249.475726 
L 222.118691 249.301867 
L 222.26208 248.638687 
L 222.638138 245.25683 
L 222.722007 245.338477 
L 222.979025 246.067629 
L 223.190051 246.504109 
L 223.341556 246.705284 
L 223.582342 247.083151 
L 223.614807 247.054602 
L 223.950284 246.456068 
L 224.131549 245.337144 
L 224.715927 241.221172 
L 225.051404 239.432503 
L 225.257018 239.152642 
L 225.430167 239.043964 
L 225.578967 239.078292 
L 225.673658 239.121689 
L 225.689891 239.026632 
L 225.973964 236.900305 
L 226.014545 236.94171 
L 226.049716 237.014591 
L 226.087593 236.846405 
L 226.222865 235.391579 
L 226.512349 232.038119 
L 226.715258 230.115759 
L 227.094022 226.193141 
L 227.259055 225.793648 
L 227.280698 225.805427 
L 227.383505 226.044822 
L 227.586415 227.223116 
L 227.989527 229.434337 
L 228.251956 229.940221 
L 228.314182 229.839389 
L 228.414284 229.275817 
L 228.72 225.952031 
L 229.426124 217.817902 
L 230.26752 209.066234 
L 230.435258 201.135715 
L 230.521833 184.90763 
L 230.559709 110.397166 
L 230.575942 87.085024 
L 230.643578 177.886031 
L 230.808611 235.278691 
L 230.979055 242.554568 
L 231.257716 245.174761 
L 231.528262 246.281253 
L 231.760931 247.291815 
L 232.683491 252.431316 
L 232.705135 252.406492 
L 232.79712 251.97177 
L 233.446429 247.284618 
L 233.462662 247.289881 
L 233.565469 247.478808 
L 233.698036 247.890072 
L 233.757556 247.692553 
L 233.882007 247.354279 
L 233.928 247.415797 
L 234.044335 248.011496 
L 234.274298 249.642282 
L 234.347345 249.442795 
L 234.61248 248.811039 
L 234.704465 248.922472 
L 234.85056 249.577191 
L 235.194153 252.501983 
L 235.618909 255.796142 
L 236.687564 264.63934 
L 237.025745 266.443619 
L 237.26112 267.259798 
L 237.907724 268.952776 
L 238.102516 269.012742 
L 238.327069 269.27569 
L 238.535389 270.09498 
L 238.751825 271.263795 
L 238.822167 271.026202 
L 239.530996 267.586056 
L 239.779898 266.95471 
L 240.112669 265.615336 
L 240.137018 265.627014 
L 240.388625 265.977377 
L 241.165091 268.058043 
L 241.449164 268.752785 
L 241.481629 268.594516 
L 241.968611 265.217923 
L 242.079535 264.599143 
L 242.531345 261.250002 
L 242.596276 261.240242 
L 242.634153 261.293801 
L 242.777542 261.818238 
L 244.000407 267.95954 
L 244.054516 267.849249 
L 244.173556 267.66645 
L 244.216844 267.717017 
L 244.346705 268.219462 
L 244.755229 269.865578 
L 244.936495 270.130753 
L 245.250327 270.633824 
L 245.499229 270.759167 
L 245.753542 270.957242 
L 245.761658 270.950643 
L 245.875287 270.701333 
L 246.132305 268.370038 
L 246.465076 266.863048 
L 246.478604 266.867148 
L 246.60576 266.889008 
L 246.630109 266.829673 
L 246.927709 265.618376 
L 247.701469 257.785378 
L 247.812393 257.594574 
L 247.85568 257.637551 
L 248.169513 258.14698 
L 248.226327 258.064393 
L 248.434647 257.776182 
L 248.469818 257.808533 
L 248.59968 258.173883 
L 248.791767 258.510313 
L 249.148887 258.872621 
L 249.346385 259.851697 
L 250.05792 263.797106 
L 250.314938 264.767131 
L 250.409629 264.979524 
L 250.455622 264.901552 
L 250.677469 263.834689 
L 250.872262 263.372344 
L 250.888495 263.37927 
L 250.994007 263.582628 
L 251.321367 264.979908 
L 251.627084 266.50357 
L 251.692015 266.255683 
L 251.981498 264.612051 
L 252.011258 264.628605 
L 252.076189 264.67565 
L 252.11136 264.576462 
L 252.747142 262.209994 
L 252.939229 262.293434 
L 253.090735 262.770294 
L 253.363985 264.546493 
L 253.753571 266.916631 
L 253.769804 266.904093 
L 253.850967 266.560416 
L 254.321716 263.659751 
L 254.416407 263.798285 
L 254.597673 264.61494 
L 255.536465 269.693099 
L 255.549993 269.682877 
L 255.663622 269.35869 
L 255.779956 268.239522 
L 256.196596 264.619151 
L 256.380567 264.27357 
L 256.683578 264.364973 
L 257.565556 266.432379 
L 257.741411 266.989416 
L 257.803636 266.852707 
L 258.071476 266.226838 
L 258.095825 266.241374 
L 258.144524 266.28522 
L 258.176989 266.166118 
L 258.423185 264.79679 
L 258.490822 264.903332 
L 258.650444 265.704229 
L 259.072495 269.278324 
L 259.429615 271.572211 
L 259.49184 271.712912 
L 259.545949 271.585246 
L 259.732625 271.127348 
L 259.773207 271.161378 
L 259.903069 271.544301 
L 260.051869 271.830447 
L 260.078924 271.809388 
L 260.160087 271.515907 
L 260.492858 270.290523 
L 260.68224 270.046341 
L 260.712 270.069442 
L 260.877033 270.264909 
L 260.936553 270.156341 
L 261.250385 269.23053 
L 261.350487 269.378692 
L 261.547985 270.182589 
L 261.791476 270.891196 
L 261.845585 270.753638 
L 262.446196 267.761545 
L 262.711331 265.347777 
L 263.025164 259.4538 
L 263.320058 255.422798 
L 263.422865 255.251569 
L 263.466153 255.297087 
L 263.633891 255.835196 
L 263.763753 256.361063 
L 263.785396 256.011895 
L 263.999127 253.754281 
L 264.058647 253.852397 
L 264.199331 254.717805 
L 264.486109 256.146745 
L 264.643025 256.344185 
L 264.694429 256.283165 
L 264.843229 256.167975 
L 264.875695 256.20277 
L 265.002851 256.592874 
L 265.50336 258.501276 
L 265.527709 258.49262 
L 265.627811 258.300622 
L 265.795549 258.068583 
L 265.825309 258.092051 
L 265.944349 258.404482 
L 266.006575 258.590081 
L 266.071505 258.470739 
L 266.182429 257.825576 
L 266.512495 255.127899 
L 266.523316 255.130377 
L 266.647767 255.300392 
L 266.785745 255.584803 
L 266.837149 255.436697 
L 267.042764 253.876201 
L 267.919331 248.66118 
L 268.081658 248.691561 
L 268.214225 249.042667 
L 268.441484 250.438188 
L 269.209833 255.621636 
L 269.685993 258.440424 
L 269.802327 258.144789 
L 269.972771 257.854148 
L 269.999825 257.872399 
L 270.113455 258.14817 
L 270.332596 259.407591 
L 270.811462 263.772424 
L 271.493236 269.698602 
L 271.509469 269.683211 
L 271.652858 269.205848 
L 271.934225 268.018807 
L 272.331927 265.453412 
L 272.464495 264.917648 
L 272.710691 264.18589 
L 272.713396 264.186517 
L 272.810793 264.329362 
L 272.94336 264.599916 
L 273.000175 264.518126 
L 273.319418 263.594556 
L 273.911913 260.174956 
L 274.076945 259.761267 
L 274.101295 259.77576 
L 274.209513 260.038843 
L 274.43136 261.316791 
L 275.481076 268.11011 
L 275.610938 268.232063 
L 275.643404 268.197292 
L 275.784087 267.7263 
L 275.946415 266.693736 
L 276.198022 263.278698 
L 276.584902 256.859047 
L 276.860858 255.7635 
L 277.017775 255.473679 
L 277.05024 255.48741 
L 277.223389 255.680389 
L 277.396538 256.41059 
L 278.081018 260.362052 
L 278.140538 260.135598 
L 278.735738 256.926125 
L 278.889949 256.756738 
L 279.006284 256.047264 
L 279.287651 254.811544 
L 279.363404 254.783117 
L 279.403985 254.835446 
L 279.544669 255.336287 
L 279.663709 255.820844 
L 279.712407 255.636805 
L 280.483462 249.750769 
L 280.818938 245.64677 
L 281.029964 245.09074 
L 281.116538 245.288263 
L 281.292393 246.449121 
L 281.727971 251.223278 
L 282.515258 259.352322 
L 282.680291 260.038195 
L 282.731695 259.749775 
L 282.94272 258.831585 
L 282.958953 258.838654 
L 283.048233 259.047048 
L 283.167273 259.354915 
L 283.229498 259.295715 
L 283.345833 259.252989 
L 283.375593 259.289222 
L 284.181818 260.799764 
L 284.433425 262.205252 
L 284.660684 262.998067 
L 284.687738 263.012285 
L 284.712087 262.899505 
L 285.169309 259.487286 
L 285.245062 259.632184 
L 285.423622 260.697911 
L 285.759098 262.123919 
L 285.967418 262.845984 
L 286.987375 267.381998 
L 287.268742 268.397074 
L 287.885585 270.956368 
L 287.888291 270.955674 
L 288.096611 270.768673 
L 288.258938 270.149101 
L 288.856844 268.530649 
L 289.246429 267.671283 
L 289.316771 267.754708 
L 289.717178 268.762071 
L 289.993135 270.127987 
L 290.417891 272.11352 
L 290.423302 272.106361 
L 290.482822 271.602022 
L 290.723607 270.207007 
L 290.875113 269.933437 
L 291.121309 269.257041 
L 291.140247 269.266172 
L 291.251171 269.482002 
L 291.475724 270.532254 
L 291.803084 271.745464 
L 292.003287 272.11629 
L 292.233251 272.824636 
L 292.649891 273.545233 
L 292.73376 273.404507 
L 292.863622 272.127953 
L 293.334371 268.697413 
L 293.439884 268.596809 
L 293.480465 268.629356 
L 293.883578 269.161926 
L 294.167651 270.638575 
L 294.979287 275.079581 
L 295.103738 275.139249 
L 295.133498 275.106762 
L 295.696233 274.058039 
L 296.39424 270.930351 
L 296.851462 270.188572 
L 296.892044 270.225784 
L 297.043549 270.607239 
L 297.454778 271.490692 
L 297.776727 272.163081 
L 298.158196 273.174861 
L 298.453091 273.450595 
L 298.482851 273.253191 
L 298.691171 269.649994 
L 299.021236 266.171323 
L 299.188975 265.676895 
L 299.210618 265.687652 
L 299.326953 265.839758 
L 299.394589 265.709818 
L 299.513629 265.600635 
L 299.551505 265.63668 
L 299.681367 266.022023 
L 299.981673 267.650267 
L 300.11424 267.439251 
L 300.325265 266.884076 
L 300.533585 266.39531 
L 300.547113 266.401104 
L 300.652625 266.598457 
L 300.731084 266.877176 
L 300.777076 266.634589 
L 301.077382 265.338027 
L 301.145018 265.361473 
L 301.169367 265.403991 
L 301.318167 265.981701 
L 301.667171 268.25006 
L 301.75104 267.753764 
L 302.021585 266.433096 
L 302.183913 266.224618 
L 302.213673 266.237607 
L 302.40576 266.440961 
L 302.816989 267.646318 
L 303.141644 268.711582 
L 303.341847 269.561296 
L 303.712495 271.302217 
L 303.753076 271.259402 
L 304.029033 270.554122 
L 304.483549 266.171921 
L 304.491665 266.17416 
L 304.670225 266.135577 
L 304.96512 265.818995 
L 305.021935 265.906439 
L 305.189673 266.552093 
L 305.749702 269.639787 
L 305.809222 269.888601 
L 305.866036 269.698618 
L 306.206924 268.458143 
L 306.307025 268.530426 
L 306.726371 269.601738 
L 307.102429 270.684249 
L 307.202531 270.842514 
L 307.253935 270.751569 
L 307.516364 270.227181 
L 307.55424 270.256508 
L 307.570473 270.277861 
L 307.578589 270.155659 
L 307.835607 266.70093 
L 308.162967 266.175873 
L 308.622895 263.259445 
L 308.693236 263.358185 
L 308.852858 263.915817 
L 308.958371 263.744583 
L 309.082822 263.77181 
L 309.28032 263.593441 
L 309.334429 263.6892 
L 309.926924 265.229013 
L 310.008087 265.087918 
L 310.2624 263.923718 
L 310.476131 263.36252 
L 310.489658 263.368219 
L 310.58976 263.560241 
L 310.792669 264.273996 
L 310.88736 264.14537 
L 311.03616 264.033766 
L 311.06592 264.060961 
L 311.198487 264.40448 
L 311.458211 265.861666 
L 311.872145 267.642258 
L 311.98848 267.750369 
L 312.031767 267.678344 
L 312.231971 267.41042 
L 312.261731 267.433477 
L 312.391593 267.740822 
L 312.846109 268.958682 
L 312.908335 269.017815 
L 312.946211 268.924466 
L 313.173469 267.625683 
L 313.646924 262.911918 
L 313.936407 261.909702 
L 314.055447 261.547266 
L 314.331404 260.641572 
L 314.439622 260.6315 
L 314.463971 260.662068 
L 314.850851 261.464458 
L 315.061876 262.35551 
L 315.613789 264.86065 
L 316.052073 265.677697 
L 316.0656 265.670762 
L 316.566109 265.456434 
L 316.574225 265.469365 
L 316.731142 265.952722 
L 317.104495 267.569024 
L 317.172131 267.400767 
L 317.347985 265.870243 
L 317.710516 263.290557 
L 318.227258 261.236087 
L 318.300305 261.322319 
L 318.457222 261.915481 
L 318.781876 264.213059 
L 319.049716 265.535372 
L 319.193105 265.656704 
L 319.363549 266.243802 
L 320.145425 269.466521 
L 320.286109 269.465691 
L 320.356451 269.322082 
L 320.659462 267.327301 
L 320.746036 267.473521 
L 321.062575 268.228171 
L 321.100451 268.201663 
L 321.349353 267.803504 
L 321.617193 267.05618 
L 321.628015 267.060248 
L 321.736233 267.243412 
L 321.944553 268.158201 
L 322.666909 271.636004 
L 322.742662 271.738075 
L 322.785949 271.640556 
L 323.189062 270.239445 
L 323.286458 270.371399 
L 323.489367 271.139362 
L 323.678749 271.429328 
L 323.814022 271.474884 
L 323.846487 271.395853 
L 324.460625 269.182627 
L 324.839389 266.899817 
L 325.104524 266.539272 
L 325.120756 266.549385 
L 325.239796 266.788246 
L 325.510342 267.430379 
L 325.545513 267.402156 
L 325.7376 267.278436 
L 325.764655 267.308468 
L 325.943215 267.687431 
L 325.994618 267.458456 
L 326.395025 265.121638 
L 326.484305 265.106447 
L 326.516771 265.145895 
L 326.668276 265.594613 
L 326.827898 265.89167 
L 326.860364 265.842684 
L 326.982109 265.17651 
L 327.293236 263.639596 
L 327.377105 263.407513 
L 327.815389 261.916752 
L 327.901964 261.960872 
L 327.915491 261.985498 
L 328.110284 262.130179 
L 328.250967 262.306133 
L 328.29696 262.148818 
L 328.702778 260.688847 
L 328.843462 260.443946 
L 328.878633 260.471369 
L 329.065309 260.902337 
L 329.141062 260.998762 
L 329.197876 260.928474 
L 329.346676 260.468085 
L 329.511709 260.127009 
L 329.541469 260.147324 
L 329.671331 260.460284 
L 330.309818 262.712376 
L 330.804916 265.756871 
L 331.473164 270.020989 
L 331.551622 270.305483 
L 331.586793 270.042553 
L 331.862749 268.011287 
L 331.995316 268.03393 
L 332.003433 268.047113 
L 332.149527 268.522322 
L 332.498531 270.670672 
L 332.844829 272.547265 
L 332.890822 272.420173 
L 333.242531 271.15247 
L 333.272291 271.168045 
L 333.396742 271.420334 
L 333.637527 272.218442 
L 333.724102 272.079603 
L 333.913484 271.866777 
L 333.935127 271.881057 
L 334.533033 272.308634 
L 334.551971 272.280031 
L 334.771113 271.636621 
L 335.112 270.329953 
L 335.355491 269.885258 
L 335.566516 267.816938 
L 336.113018 262.353949 
L 336.416029 260.70699 
L 336.859724 260.683146 
L 337.219549 261.693309 
L 337.830982 265.188435 
L 338.093411 266.763811 
L 338.128582 266.733744 
L 338.466764 266.268635 
L 338.539811 266.378612 
L 338.786007 266.942713 
L 338.86176 266.841974 
L 339.167476 266.068808 
L 339.327098 264.224583 
L 339.797847 257.801909 
L 340.035927 256.72323 
L 340.138735 256.809747 
L 340.363287 257.346656 
L 340.430924 257.141803 
L 340.598662 256.657892 
L 340.639244 256.697801 
L 340.758284 257.14017 
L 341.92704 262.918509 
L 342.000087 262.814081 
L 342.173236 262.589045 
L 342.208407 262.616539 
L 342.400495 262.712974 
L 342.424844 262.675064 
L 342.646691 262.338038 
L 342.692684 262.384636 
L 342.825251 262.566873 
L 342.887476 262.488989 
L 343.198604 262.166974 
L 343.217542 262.183815 
L 343.566545 262.747649 
L 343.812742 264.188583 
L 344.364655 267.438513 
L 344.532393 267.604165 
L 344.667665 267.871427 
L 345.124887 269.28196 
L 345.192524 269.163467 
L 345.365673 268.360449 
L 345.798545 265.834032 
L 345.806662 265.835805 
L 345.901353 265.985617 
L 346.039331 266.427029 
L 346.115084 266.260333 
L 346.207069 265.68009 
L 346.455971 264.609879 
L 346.558778 264.574799 
L 346.591244 264.613706 
L 347.113396 265.672916 
L 347.172916 265.888969 
L 347.210793 265.612457 
L 347.410996 264.451384 
L 347.429935 264.462945 
L 347.519215 264.726854 
L 347.732945 266.243559 
L 348.311913 271.357045 
L 348.395782 271.134913 
L 348.717731 269.667313 
L 349.034269 267.655751 
L 349.237178 267.502289 
L 349.266938 267.533493 
L 349.410327 267.90836 
L 349.60512 268.785409 
L 349.642996 268.389789 
L 349.937891 265.463951 
L 350.065047 265.235857 
L 350.102924 265.266962 
L 350.221964 265.626304 
L 350.652131 267.062219 
L 350.684596 267.073049 
L 350.730589 266.988365 
L 351.141818 266.048317 
L 351.193222 266.070543 
L 351.314967 265.998196 
L 351.393425 265.55121 
L 351.853353 262.379416 
L 352.199651 261.763791 
L 352.288931 261.792135 
L 352.305164 261.818065 
L 352.394444 261.944605 
L 352.464785 261.883876 
L 352.573004 261.56989 
L 352.911185 260.462691 
L 353.008582 260.544588 
L 353.160087 261.122125 
L 353.546967 263.658275 
L 353.582138 262.852959 
L 353.839156 258.903228 
L 354.001484 258.209915 
L 354.025833 258.226012 
L 354.120524 258.51525 
L 354.818531 262.374502 
L 355.922356 269.685401 
L 356.160436 270.27983 
L 356.203724 270.135575 
L 356.612247 267.538064 
L 357.085702 258.736044 
L 357.364364 255.3798 
L 357.881105 252.806239 
L 358.010967 252.663663 
L 358.051549 252.707043 
L 358.178705 253.14053 
L 358.430313 254.985515 
L 358.94976 258.702356 
L 359.558487 262.768501 
L 359.715404 262.726244 
L 359.831738 263.128543 
L 360.816524 267.624543 
L 361.143884 268.376891 
L 361.517236 269.46885 
L 361.671447 269.531433 
L 362.017745 269.266667 
L 362.226065 268.135007 
L 362.740102 264.445136 
L 363.237905 262.826921 
L 363.543622 261.043739 
L 363.703244 260.878667 
L 363.852044 260.358278 
L 363.895331 260.410431 
L 364.022487 260.974212 
L 364.498647 263.04756 
L 364.520291 263.055672 
L 364.571695 262.963081 
L 364.847651 262.014987 
L 365.19936 259.468574 
L 365.326516 258.543463 
L 365.618705 257.104034 
L 365.697164 257.055087 
L 365.740451 257.108582 
L 365.989353 257.818775 
L 366.698182 259.922296 
L 366.917324 260.85552 
L 367.277149 263.598171 
L 367.444887 264.676957 
L 367.498996 264.583702 
L 367.983273 262.787464 
L 368.159127 262.431702 
L 368.180771 262.442195 
L 368.316044 262.689241 
L 368.610938 263.135157 
L 368.632582 263.121842 
L 368.808436 262.87195 
L 369.601135 254.911108 
L 370.190924 247.279552 
L 370.420887 246.578646 
L 370.429004 246.581435 
L 370.510167 246.748023 
L 370.842938 248.340853 
L 371.522007 253.70354 
L 372.008989 257.630637 
L 372.333644 259.306339 
L 372.482444 259.876844 
L 372.52032 259.848085 
L 372.63936 259.533024 
L 372.796276 258.524458 
L 373.088465 256.699074 
L 373.231855 256.407001 
L 373.258909 256.418797 
L 373.38336 256.631571 
L 373.567331 257.516457 
L 373.932567 260.634848 
L 374.12736 261.36364 
L 374.151709 261.359224 
L 374.18688 261.272188 
L 374.492596 260.375543 
L 374.544 260.423142 
L 374.684684 260.852498 
L 375.098618 262.699077 
L 375.166255 262.917985 
L 375.217658 262.746047 
L 375.574778 261.007914 
L 375.666764 260.927972 
L 375.710051 260.975714 
L 375.842618 261.426173 
L 376.443229 264.956636 
L 376.700247 266.142383 
L 376.976204 266.23081 
L 377.28192 266.882079 
L 377.422604 267.044027 
L 377.46048 267.016701 
L 377.538938 266.787722 
L 377.801367 264.957284 
L 378.009687 264.326184 
L 378.012393 264.326747 
L 378.107084 264.465332 
L 378.207185 264.716849 
L 378.272116 264.588823 
L 378.483142 264.259041 
L 378.50208 264.270022 
L 378.613004 264.500988 
L 378.79968 265.177136 
L 378.880844 265.008869 
L 379.170327 264.469467 
L 379.33536 264.52718 
L 379.346182 264.540697 
L 379.367825 264.387654 
L 379.757411 261.149616 
L 379.933265 260.950953 
L 379.944087 260.956128 
L 380.057716 261.150161 
L 380.501411 262.752553 
L 381.153425 264.763429 
L 381.616058 265.016263 
L 381.74592 265.102444 
L 381.948829 265.669475 
L 382.143622 266.270561 
L 382.211258 266.206412 
L 382.46016 265.879342 
L 382.506153 265.928291 
L 382.636015 266.215066 
L 382.665775 266.003407 
L 382.930909 264.223656 
L 382.93632 264.22463 
L 383.014778 264.364689 
L 383.187927 265.276992 
L 383.745251 268.374185 
L 383.923811 268.726992 
L 383.94816 268.682827 
L 384.042851 268.036865 
L 385.024931 258.933094 
L 385.217018 258.261679 
L 385.22784 258.265508 
L 385.319825 258.447429 
L 385.587665 259.729135 
L 386.439884 263.024066 
L 386.653615 263.916961 
L 387.335389 266.758315 
L 387.470662 266.874049 
L 387.695215 267.391309 
L 387.749324 267.193139 
L 388.109149 265.519653 
L 388.266065 265.638705 
L 388.431098 266.159204 
L 388.725993 267.994671 
L 389.253556 271.358253 
L 389.283316 271.35202 
L 389.505164 271.186883 
L 389.910982 269.438197 
L 389.984029 269.516423 
L 390.165295 269.71259 
L 390.200465 269.688731 
L 390.452073 269.365519 
L 390.587345 268.136159 
L 390.88224 266.280365 
L 391.098676 265.885311 
L 391.526138 264.197462 
L 391.701993 263.809187 
L 391.720931 263.818449 
L 391.831855 264.042598 
L 392.050996 264.356479 
L 392.053702 264.355437 
L 392.313425 264.11116 
L 392.892393 261.528777 
L 393.027665 261.344812 
L 393.065542 261.380649 
L 393.576873 261.964192 
L 393.731084 261.810915 
L 393.871767 259.348303 
L 394.099025 257.690872 
L 394.296524 257.424592 
L 394.426385 257.3171 
L 394.526487 257.321869 
L 394.548131 257.352748 
L 394.732102 257.66074 
L 394.769978 257.519946 
L 394.951244 255.341926 
L 395.181207 253.928821 
L 395.25696 254.014634 
L 395.400349 254.700481 
L 396.347258 260.268894 
L 396.509585 261.191066 
L 396.590749 260.997929 
L 396.801775 260.681787 
L 396.912698 260.768256 
L 397.080436 260.823828 
L 397.167011 260.647429 
L 397.475433 260.054355 
L 397.553891 259.921604 
L 397.675636 259.293464 
L 397.865018 258.73306 
L 397.881251 258.740767 
L 398.048989 258.732731 
L 398.168029 258.691883 
L 398.197789 258.727234 
L 398.306007 258.847993 
L 398.354705 258.775522 
L 398.479156 257.976795 
L 398.487273 257.909867 
L 398.487273 257.909867 
" clip-path="url(#p1d0fd05e54)" style="fill: none; stroke: #ff0000; stroke-width: 1.5; stroke-linecap: square"/>
   </g>
   <g id="line2d_18">
    <path d="M 344.378182 260.064 
L 398.379055 260.064 
L 398.379055 260.064 
" clip-path="url(#p1d0fd05e54)" style="fill: none; stroke: #000000; stroke-width: 1.5; stroke-linecap: square"/>
   </g>
   <g id="line2d_19">
    <path d="M 344.378182 231.552 
L 344.378182 229.6512 
L 344.378182 227.7504 
L 344.378182 225.8496 
L 344.378182 223.9488 
L 344.378182 222.048 
L 344.378182 220.1472 
L 344.378182 218.2464 
L 344.378182 216.3456 
L 344.378182 214.4448 
L 344.378182 212.544 
L 344.378182 210.6432 
L 344.378182 208.7424 
L 344.378182 206.8416 
L 344.378182 204.9408 
L 344.378182 203.04 
L 344.378182 201.1392 
L 344.378182 199.2384 
L 344.378182 197.3376 
L 344.378182 195.4368 
" clip-path="url(#p1d0fd05e54)" style="fill: none; stroke: #000000; stroke-width: 1.5; stroke-linecap: square"/>
   </g>
   <g id="patch_3">
    <path d="M 57.6 307.584 
L 57.6 41.472 
" style="fill: none; stroke: #000000; stroke-width: 0.8; stroke-linejoin: miter; stroke-linecap: square"/>
   </g>
   <g id="patch_4">
    <path d="M 57.6 307.584 
L 414.72 307.584 
" style="fill: none; stroke: #000000; stroke-width: 0.8; stroke-linejoin: miter; stroke-linecap: square"/>
   </g>
   <g id="text_18">
    <!-- 500 ms -->
    <g transform="translate(344.378182 258.1632) scale(0.1 -0.1)">
     <use xlink:href="#DejaVuSans-35"/>
     <use xlink:href="#DejaVuSans-30" x="63.623047"/>
     <use xlink:href="#DejaVuSans-30" x="127.246094"/>
     <use xlink:href="#DejaVuSans-20" x="190.869141"/>
     <use xlink:href="#DejaVuSans-6d" x="222.65625"/>
     <use xlink:href="#DejaVuSans-73" x="320.068359"/>
    </g>
   </g>
   <g id="text_19">
    <!-- 20 mV -->
    <g transform="translate(349.789091 193.536) scale(0.1 -0.1)">
     <use xlink:href="#DejaVuSans-32"/>
     <use xlink:href="#DejaVuSans-30" x="63.623047"/>
     <use xlink:href="#DejaVuSans-20" x="127.246094"/>
     <use xlink:href="#DejaVuSans-6d" x="159.033203"/>
     <use xlink:href="#DejaVuSans-56" x="256.445312"/>
    </g>
   </g>
  </g>
 </g>
 <defs>
  <clipPath id="p1d0fd05e54">
   <rect x="57.6" y="41.472" width="357.12" height="266.112"/>
  </clipPath>
 </defs>
</svg>
