<?xml version="1.0" encoding="utf-8" standalone="no"?>
<!DOCTYPE svg PUBLIC "-//W3C//DTD SVG 1.1//EN"
  "http://www.w3.org/Graphics/SVG/1.1/DTD/svg11.dtd">
<svg height="288pt" version="1.1" viewBox="0 0 432 288" width="432pt" xmlns="http://www.w3.org/2000/svg" xmlns:xlink="http://www.w3.org/1999/xlink">
 <metadata>
  <rdf:RDF xmlns:cc="http://creativecommons.org/ns#" xmlns:dc="http://purl.org/dc/elements/1.1/" xmlns:rdf="http://www.w3.org/1999/02/22-rdf-syntax-ns#">
   <cc:Work>
    <dc:type rdf:resource="http://purl.org/dc/dcmitype/StillImage"/>
    <dc:date>2021-07-08T11:43:57.126822</dc:date>
    <dc:format>image/svg+xml</dc:format>
    <dc:creator>
     <cc:Agent>
      <dc:title>Matplotlib v3.4.1, https://matplotlib.org/</dc:title>
     </cc:Agent>
    </dc:creator>
   </cc:Work>
  </rdf:RDF>
 </metadata>
 <defs>
  <style type="text/css">*{stroke-linecap:butt;stroke-linejoin:round;}</style>
 </defs>
 <g id="figure_1">
  <g id="patch_1">
   <path d="M 0 288 
L 432 288 
L 432 0 
L 0 0 
z
" style="fill:none;"/>
  </g>
  <g id="axes_1">
   <g id="patch_2">
    <path d="M 54 252 
L 388.8 252 
L 388.8 34.56 
L 54 34.56 
z
" style="fill:#ffffff;"/>
   </g>
   <g id="matplotlib.axis_1">
    <g id="xtick_1">
     <g id="line2d_1">
      <defs>
       <path d="M 0 0 
L 0 3.5 
" id="m3962f722c6" style="stroke:#000000;stroke-width:0.8;"/>
      </defs>
      <g>
       <use style="stroke:#000000;stroke-width:0.8;" x="69.218182" xlink:href="#m3962f722c6" y="252"/>
      </g>
     </g>
     <g id="text_1">
      <!-- 0 -->
      <g transform="translate(66.036932 266.598437)scale(0.1 -0.1)">
       <defs>
        <path d="M 2034 4250 
Q 1547 4250 1301 3770 
Q 1056 3291 1056 2328 
Q 1056 1369 1301 889 
Q 1547 409 2034 409 
Q 2525 409 2770 889 
Q 3016 1369 3016 2328 
Q 3016 3291 2770 3770 
Q 2525 4250 2034 4250 
z
M 2034 4750 
Q 2819 4750 3233 4129 
Q 3647 3509 3647 2328 
Q 3647 1150 3233 529 
Q 2819 -91 2034 -91 
Q 1250 -91 836 529 
Q 422 1150 422 2328 
Q 422 3509 836 4129 
Q 1250 4750 2034 4750 
z
" id="DejaVuSans-30" transform="scale(0.015625)"/>
       </defs>
       <use xlink:href="#DejaVuSans-30"/>
      </g>
     </g>
    </g>
    <g id="xtick_2">
     <g id="line2d_2">
      <g>
       <use style="stroke:#000000;stroke-width:0.8;" x="119.945455" xlink:href="#m3962f722c6" y="252"/>
      </g>
     </g>
     <g id="text_2">
      <!-- 1000 -->
      <g transform="translate(107.220455 266.598437)scale(0.1 -0.1)">
       <defs>
        <path d="M 794 531 
L 1825 531 
L 1825 4091 
L 703 3866 
L 703 4441 
L 1819 4666 
L 2450 4666 
L 2450 531 
L 3481 531 
L 3481 0 
L 794 0 
L 794 531 
z
" id="DejaVuSans-31" transform="scale(0.015625)"/>
       </defs>
       <use xlink:href="#DejaVuSans-31"/>
       <use x="63.623047" xlink:href="#DejaVuSans-30"/>
       <use x="127.246094" xlink:href="#DejaVuSans-30"/>
       <use x="190.869141" xlink:href="#DejaVuSans-30"/>
      </g>
     </g>
    </g>
    <g id="xtick_3">
     <g id="line2d_3">
      <g>
       <use style="stroke:#000000;stroke-width:0.8;" x="170.672727" xlink:href="#m3962f722c6" y="252"/>
      </g>
     </g>
     <g id="text_3">
      <!-- 2000 -->
      <g transform="translate(157.947727 266.598437)scale(0.1 -0.1)">
       <defs>
        <path d="M 1228 531 
L 3431 531 
L 3431 0 
L 469 0 
L 469 531 
Q 828 903 1448 1529 
Q 2069 2156 2228 2338 
Q 2531 2678 2651 2914 
Q 2772 3150 2772 3378 
Q 2772 3750 2511 3984 
Q 2250 4219 1831 4219 
Q 1534 4219 1204 4116 
Q 875 4013 500 3803 
L 500 4441 
Q 881 4594 1212 4672 
Q 1544 4750 1819 4750 
Q 2544 4750 2975 4387 
Q 3406 4025 3406 3419 
Q 3406 3131 3298 2873 
Q 3191 2616 2906 2266 
Q 2828 2175 2409 1742 
Q 1991 1309 1228 531 
z
" id="DejaVuSans-32" transform="scale(0.015625)"/>
       </defs>
       <use xlink:href="#DejaVuSans-32"/>
       <use x="63.623047" xlink:href="#DejaVuSans-30"/>
       <use x="127.246094" xlink:href="#DejaVuSans-30"/>
       <use x="190.869141" xlink:href="#DejaVuSans-30"/>
      </g>
     </g>
    </g>
    <g id="xtick_4">
     <g id="line2d_4">
      <g>
       <use style="stroke:#000000;stroke-width:0.8;" x="221.4" xlink:href="#m3962f722c6" y="252"/>
      </g>
     </g>
     <g id="text_4">
      <!-- 3000 -->
      <g transform="translate(208.675 266.598437)scale(0.1 -0.1)">
       <defs>
        <path d="M 2597 2516 
Q 3050 2419 3304 2112 
Q 3559 1806 3559 1356 
Q 3559 666 3084 287 
Q 2609 -91 1734 -91 
Q 1441 -91 1130 -33 
Q 819 25 488 141 
L 488 750 
Q 750 597 1062 519 
Q 1375 441 1716 441 
Q 2309 441 2620 675 
Q 2931 909 2931 1356 
Q 2931 1769 2642 2001 
Q 2353 2234 1838 2234 
L 1294 2234 
L 1294 2753 
L 1863 2753 
Q 2328 2753 2575 2939 
Q 2822 3125 2822 3475 
Q 2822 3834 2567 4026 
Q 2313 4219 1838 4219 
Q 1578 4219 1281 4162 
Q 984 4106 628 3988 
L 628 4550 
Q 988 4650 1302 4700 
Q 1616 4750 1894 4750 
Q 2613 4750 3031 4423 
Q 3450 4097 3450 3541 
Q 3450 3153 3228 2886 
Q 3006 2619 2597 2516 
z
" id="DejaVuSans-33" transform="scale(0.015625)"/>
       </defs>
       <use xlink:href="#DejaVuSans-33"/>
       <use x="63.623047" xlink:href="#DejaVuSans-30"/>
       <use x="127.246094" xlink:href="#DejaVuSans-30"/>
       <use x="190.869141" xlink:href="#DejaVuSans-30"/>
      </g>
     </g>
    </g>
    <g id="xtick_5">
     <g id="line2d_5">
      <g>
       <use style="stroke:#000000;stroke-width:0.8;" x="272.127273" xlink:href="#m3962f722c6" y="252"/>
      </g>
     </g>
     <g id="text_5">
      <!-- 4000 -->
      <g transform="translate(259.402273 266.598437)scale(0.1 -0.1)">
       <defs>
        <path d="M 2419 4116 
L 825 1625 
L 2419 1625 
L 2419 4116 
z
M 2253 4666 
L 3047 4666 
L 3047 1625 
L 3713 1625 
L 3713 1100 
L 3047 1100 
L 3047 0 
L 2419 0 
L 2419 1100 
L 313 1100 
L 313 1709 
L 2253 4666 
z
" id="DejaVuSans-34" transform="scale(0.015625)"/>
       </defs>
       <use xlink:href="#DejaVuSans-34"/>
       <use x="63.623047" xlink:href="#DejaVuSans-30"/>
       <use x="127.246094" xlink:href="#DejaVuSans-30"/>
       <use x="190.869141" xlink:href="#DejaVuSans-30"/>
      </g>
     </g>
    </g>
    <g id="xtick_6">
     <g id="line2d_6">
      <g>
       <use style="stroke:#000000;stroke-width:0.8;" x="322.854545" xlink:href="#m3962f722c6" y="252"/>
      </g>
     </g>
     <g id="text_6">
      <!-- 5000 -->
      <g transform="translate(310.129545 266.598437)scale(0.1 -0.1)">
       <defs>
        <path d="M 691 4666 
L 3169 4666 
L 3169 4134 
L 1269 4134 
L 1269 2991 
Q 1406 3038 1543 3061 
Q 1681 3084 1819 3084 
Q 2600 3084 3056 2656 
Q 3513 2228 3513 1497 
Q 3513 744 3044 326 
Q 2575 -91 1722 -91 
Q 1428 -91 1123 -41 
Q 819 9 494 109 
L 494 744 
Q 775 591 1075 516 
Q 1375 441 1709 441 
Q 2250 441 2565 725 
Q 2881 1009 2881 1497 
Q 2881 1984 2565 2268 
Q 2250 2553 1709 2553 
Q 1456 2553 1204 2497 
Q 953 2441 691 2322 
L 691 4666 
z
" id="DejaVuSans-35" transform="scale(0.015625)"/>
       </defs>
       <use xlink:href="#DejaVuSans-35"/>
       <use x="63.623047" xlink:href="#DejaVuSans-30"/>
       <use x="127.246094" xlink:href="#DejaVuSans-30"/>
       <use x="190.869141" xlink:href="#DejaVuSans-30"/>
      </g>
     </g>
    </g>
    <g id="xtick_7">
     <g id="line2d_7">
      <g>
       <use style="stroke:#000000;stroke-width:0.8;" x="373.581818" xlink:href="#m3962f722c6" y="252"/>
      </g>
     </g>
     <g id="text_7">
      <!-- 6000 -->
      <g transform="translate(360.856818 266.598437)scale(0.1 -0.1)">
       <defs>
        <path d="M 2113 2584 
Q 1688 2584 1439 2293 
Q 1191 2003 1191 1497 
Q 1191 994 1439 701 
Q 1688 409 2113 409 
Q 2538 409 2786 701 
Q 3034 994 3034 1497 
Q 3034 2003 2786 2293 
Q 2538 2584 2113 2584 
z
M 3366 4563 
L 3366 3988 
Q 3128 4100 2886 4159 
Q 2644 4219 2406 4219 
Q 1781 4219 1451 3797 
Q 1122 3375 1075 2522 
Q 1259 2794 1537 2939 
Q 1816 3084 2150 3084 
Q 2853 3084 3261 2657 
Q 3669 2231 3669 1497 
Q 3669 778 3244 343 
Q 2819 -91 2113 -91 
Q 1303 -91 875 529 
Q 447 1150 447 2328 
Q 447 3434 972 4092 
Q 1497 4750 2381 4750 
Q 2619 4750 2861 4703 
Q 3103 4656 3366 4563 
z
" id="DejaVuSans-36" transform="scale(0.015625)"/>
       </defs>
       <use xlink:href="#DejaVuSans-36"/>
       <use x="63.623047" xlink:href="#DejaVuSans-30"/>
       <use x="127.246094" xlink:href="#DejaVuSans-30"/>
       <use x="190.869141" xlink:href="#DejaVuSans-30"/>
      </g>
     </g>
    </g>
    <g id="text_8">
     <!-- Time(ms) -->
     <g transform="translate(197.789844 280.276563)scale(0.1 -0.1)">
      <defs>
       <path d="M -19 4666 
L 3928 4666 
L 3928 4134 
L 2272 4134 
L 2272 0 
L 1638 0 
L 1638 4134 
L -19 4134 
L -19 4666 
z
" id="DejaVuSans-54" transform="scale(0.015625)"/>
       <path d="M 603 3500 
L 1178 3500 
L 1178 0 
L 603 0 
L 603 3500 
z
M 603 4863 
L 1178 4863 
L 1178 4134 
L 603 4134 
L 603 4863 
z
" id="DejaVuSans-69" transform="scale(0.015625)"/>
       <path d="M 3328 2828 
Q 3544 3216 3844 3400 
Q 4144 3584 4550 3584 
Q 5097 3584 5394 3201 
Q 5691 2819 5691 2113 
L 5691 0 
L 5113 0 
L 5113 2094 
Q 5113 2597 4934 2840 
Q 4756 3084 4391 3084 
Q 3944 3084 3684 2787 
Q 3425 2491 3425 1978 
L 3425 0 
L 2847 0 
L 2847 2094 
Q 2847 2600 2669 2842 
Q 2491 3084 2119 3084 
Q 1678 3084 1418 2786 
Q 1159 2488 1159 1978 
L 1159 0 
L 581 0 
L 581 3500 
L 1159 3500 
L 1159 2956 
Q 1356 3278 1631 3431 
Q 1906 3584 2284 3584 
Q 2666 3584 2933 3390 
Q 3200 3197 3328 2828 
z
" id="DejaVuSans-6d" transform="scale(0.015625)"/>
       <path d="M 3597 1894 
L 3597 1613 
L 953 1613 
Q 991 1019 1311 708 
Q 1631 397 2203 397 
Q 2534 397 2845 478 
Q 3156 559 3463 722 
L 3463 178 
Q 3153 47 2828 -22 
Q 2503 -91 2169 -91 
Q 1331 -91 842 396 
Q 353 884 353 1716 
Q 353 2575 817 3079 
Q 1281 3584 2069 3584 
Q 2775 3584 3186 3129 
Q 3597 2675 3597 1894 
z
M 3022 2063 
Q 3016 2534 2758 2815 
Q 2500 3097 2075 3097 
Q 1594 3097 1305 2825 
Q 1016 2553 972 2059 
L 3022 2063 
z
" id="DejaVuSans-65" transform="scale(0.015625)"/>
       <path d="M 1984 4856 
Q 1566 4138 1362 3434 
Q 1159 2731 1159 2009 
Q 1159 1288 1364 580 
Q 1569 -128 1984 -844 
L 1484 -844 
Q 1016 -109 783 600 
Q 550 1309 550 2009 
Q 550 2706 781 3412 
Q 1013 4119 1484 4856 
L 1984 4856 
z
" id="DejaVuSans-28" transform="scale(0.015625)"/>
       <path d="M 2834 3397 
L 2834 2853 
Q 2591 2978 2328 3040 
Q 2066 3103 1784 3103 
Q 1356 3103 1142 2972 
Q 928 2841 928 2578 
Q 928 2378 1081 2264 
Q 1234 2150 1697 2047 
L 1894 2003 
Q 2506 1872 2764 1633 
Q 3022 1394 3022 966 
Q 3022 478 2636 193 
Q 2250 -91 1575 -91 
Q 1294 -91 989 -36 
Q 684 19 347 128 
L 347 722 
Q 666 556 975 473 
Q 1284 391 1588 391 
Q 1994 391 2212 530 
Q 2431 669 2431 922 
Q 2431 1156 2273 1281 
Q 2116 1406 1581 1522 
L 1381 1569 
Q 847 1681 609 1914 
Q 372 2147 372 2553 
Q 372 3047 722 3315 
Q 1072 3584 1716 3584 
Q 2034 3584 2315 3537 
Q 2597 3491 2834 3397 
z
" id="DejaVuSans-73" transform="scale(0.015625)"/>
       <path d="M 513 4856 
L 1013 4856 
Q 1481 4119 1714 3412 
Q 1947 2706 1947 2009 
Q 1947 1309 1714 600 
Q 1481 -109 1013 -844 
L 513 -844 
Q 928 -128 1133 580 
Q 1338 1288 1338 2009 
Q 1338 2731 1133 3434 
Q 928 4138 513 4856 
z
" id="DejaVuSans-29" transform="scale(0.015625)"/>
      </defs>
      <use xlink:href="#DejaVuSans-54"/>
      <use x="57.958984" xlink:href="#DejaVuSans-69"/>
      <use x="85.742188" xlink:href="#DejaVuSans-6d"/>
      <use x="183.154297" xlink:href="#DejaVuSans-65"/>
      <use x="244.677734" xlink:href="#DejaVuSans-28"/>
      <use x="283.691406" xlink:href="#DejaVuSans-6d"/>
      <use x="381.103516" xlink:href="#DejaVuSans-73"/>
      <use x="433.203125" xlink:href="#DejaVuSans-29"/>
     </g>
    </g>
   </g>
   <g id="matplotlib.axis_2">
    <g id="ytick_1">
     <g id="line2d_8">
      <defs>
       <path d="M 0 0 
L -3.5 0 
" id="mecc8408736" style="stroke:#000000;stroke-width:0.8;"/>
      </defs>
      <g>
       <use style="stroke:#000000;stroke-width:0.8;" x="54" xlink:href="#mecc8408736" y="252"/>
      </g>
     </g>
     <g id="text_9">
      <!-- −100 -->
      <g transform="translate(19.532812 255.799219)scale(0.1 -0.1)">
       <defs>
        <path d="M 678 2272 
L 4684 2272 
L 4684 1741 
L 678 1741 
L 678 2272 
z
" id="DejaVuSans-2212" transform="scale(0.015625)"/>
       </defs>
       <use xlink:href="#DejaVuSans-2212"/>
       <use x="83.789062" xlink:href="#DejaVuSans-31"/>
       <use x="147.412109" xlink:href="#DejaVuSans-30"/>
       <use x="211.035156" xlink:href="#DejaVuSans-30"/>
      </g>
     </g>
    </g>
    <g id="ytick_2">
     <g id="line2d_9">
      <g>
       <use style="stroke:#000000;stroke-width:0.8;" x="54" xlink:href="#mecc8408736" y="215.76"/>
      </g>
     </g>
     <g id="text_10">
      <!-- −95 -->
      <g transform="translate(25.895312 219.559219)scale(0.1 -0.1)">
       <defs>
        <path d="M 703 97 
L 703 672 
Q 941 559 1184 500 
Q 1428 441 1663 441 
Q 2288 441 2617 861 
Q 2947 1281 2994 2138 
Q 2813 1869 2534 1725 
Q 2256 1581 1919 1581 
Q 1219 1581 811 2004 
Q 403 2428 403 3163 
Q 403 3881 828 4315 
Q 1253 4750 1959 4750 
Q 2769 4750 3195 4129 
Q 3622 3509 3622 2328 
Q 3622 1225 3098 567 
Q 2575 -91 1691 -91 
Q 1453 -91 1209 -44 
Q 966 3 703 97 
z
M 1959 2075 
Q 2384 2075 2632 2365 
Q 2881 2656 2881 3163 
Q 2881 3666 2632 3958 
Q 2384 4250 1959 4250 
Q 1534 4250 1286 3958 
Q 1038 3666 1038 3163 
Q 1038 2656 1286 2365 
Q 1534 2075 1959 2075 
z
" id="DejaVuSans-39" transform="scale(0.015625)"/>
       </defs>
       <use xlink:href="#DejaVuSans-2212"/>
       <use x="83.789062" xlink:href="#DejaVuSans-39"/>
       <use x="147.412109" xlink:href="#DejaVuSans-35"/>
      </g>
     </g>
    </g>
    <g id="ytick_3">
     <g id="line2d_10">
      <g>
       <use style="stroke:#000000;stroke-width:0.8;" x="54" xlink:href="#mecc8408736" y="179.52"/>
      </g>
     </g>
     <g id="text_11">
      <!-- −90 -->
      <g transform="translate(25.895312 183.319219)scale(0.1 -0.1)">
       <use xlink:href="#DejaVuSans-2212"/>
       <use x="83.789062" xlink:href="#DejaVuSans-39"/>
       <use x="147.412109" xlink:href="#DejaVuSans-30"/>
      </g>
     </g>
    </g>
    <g id="ytick_4">
     <g id="line2d_11">
      <g>
       <use style="stroke:#000000;stroke-width:0.8;" x="54" xlink:href="#mecc8408736" y="143.28"/>
      </g>
     </g>
     <g id="text_12">
      <!-- −85 -->
      <g transform="translate(25.895312 147.079219)scale(0.1 -0.1)">
       <defs>
        <path d="M 2034 2216 
Q 1584 2216 1326 1975 
Q 1069 1734 1069 1313 
Q 1069 891 1326 650 
Q 1584 409 2034 409 
Q 2484 409 2743 651 
Q 3003 894 3003 1313 
Q 3003 1734 2745 1975 
Q 2488 2216 2034 2216 
z
M 1403 2484 
Q 997 2584 770 2862 
Q 544 3141 544 3541 
Q 544 4100 942 4425 
Q 1341 4750 2034 4750 
Q 2731 4750 3128 4425 
Q 3525 4100 3525 3541 
Q 3525 3141 3298 2862 
Q 3072 2584 2669 2484 
Q 3125 2378 3379 2068 
Q 3634 1759 3634 1313 
Q 3634 634 3220 271 
Q 2806 -91 2034 -91 
Q 1263 -91 848 271 
Q 434 634 434 1313 
Q 434 1759 690 2068 
Q 947 2378 1403 2484 
z
M 1172 3481 
Q 1172 3119 1398 2916 
Q 1625 2713 2034 2713 
Q 2441 2713 2670 2916 
Q 2900 3119 2900 3481 
Q 2900 3844 2670 4047 
Q 2441 4250 2034 4250 
Q 1625 4250 1398 4047 
Q 1172 3844 1172 3481 
z
" id="DejaVuSans-38" transform="scale(0.015625)"/>
       </defs>
       <use xlink:href="#DejaVuSans-2212"/>
       <use x="83.789062" xlink:href="#DejaVuSans-38"/>
       <use x="147.412109" xlink:href="#DejaVuSans-35"/>
      </g>
     </g>
    </g>
    <g id="ytick_5">
     <g id="line2d_12">
      <g>
       <use style="stroke:#000000;stroke-width:0.8;" x="54" xlink:href="#mecc8408736" y="107.04"/>
      </g>
     </g>
     <g id="text_13">
      <!-- −80 -->
      <g transform="translate(25.895312 110.839219)scale(0.1 -0.1)">
       <use xlink:href="#DejaVuSans-2212"/>
       <use x="83.789062" xlink:href="#DejaVuSans-38"/>
       <use x="147.412109" xlink:href="#DejaVuSans-30"/>
      </g>
     </g>
    </g>
    <g id="ytick_6">
     <g id="line2d_13">
      <g>
       <use style="stroke:#000000;stroke-width:0.8;" x="54" xlink:href="#mecc8408736" y="70.8"/>
      </g>
     </g>
     <g id="text_14">
      <!-- −75 -->
      <g transform="translate(25.895312 74.599219)scale(0.1 -0.1)">
       <defs>
        <path d="M 525 4666 
L 3525 4666 
L 3525 4397 
L 1831 0 
L 1172 0 
L 2766 4134 
L 525 4134 
L 525 4666 
z
" id="DejaVuSans-37" transform="scale(0.015625)"/>
       </defs>
       <use xlink:href="#DejaVuSans-2212"/>
       <use x="83.789062" xlink:href="#DejaVuSans-37"/>
       <use x="147.412109" xlink:href="#DejaVuSans-35"/>
      </g>
     </g>
    </g>
    <g id="ytick_7">
     <g id="line2d_14">
      <g>
       <use style="stroke:#000000;stroke-width:0.8;" x="54" xlink:href="#mecc8408736" y="34.56"/>
      </g>
     </g>
     <g id="text_15">
      <!-- −70 -->
      <g transform="translate(25.895312 38.359219)scale(0.1 -0.1)">
       <use xlink:href="#DejaVuSans-2212"/>
       <use x="83.789062" xlink:href="#DejaVuSans-37"/>
       <use x="147.412109" xlink:href="#DejaVuSans-30"/>
      </g>
     </g>
    </g>
    <g id="text_16">
     <!-- Membrane potential (mV) -->
     <g transform="translate(13.453125 207.691719)rotate(-90)scale(0.1 -0.1)">
      <defs>
       <path d="M 628 4666 
L 1569 4666 
L 2759 1491 
L 3956 4666 
L 4897 4666 
L 4897 0 
L 4281 0 
L 4281 4097 
L 3078 897 
L 2444 897 
L 1241 4097 
L 1241 0 
L 628 0 
L 628 4666 
z
" id="DejaVuSans-4d" transform="scale(0.015625)"/>
       <path d="M 3116 1747 
Q 3116 2381 2855 2742 
Q 2594 3103 2138 3103 
Q 1681 3103 1420 2742 
Q 1159 2381 1159 1747 
Q 1159 1113 1420 752 
Q 1681 391 2138 391 
Q 2594 391 2855 752 
Q 3116 1113 3116 1747 
z
M 1159 2969 
Q 1341 3281 1617 3432 
Q 1894 3584 2278 3584 
Q 2916 3584 3314 3078 
Q 3713 2572 3713 1747 
Q 3713 922 3314 415 
Q 2916 -91 2278 -91 
Q 1894 -91 1617 61 
Q 1341 213 1159 525 
L 1159 0 
L 581 0 
L 581 4863 
L 1159 4863 
L 1159 2969 
z
" id="DejaVuSans-62" transform="scale(0.015625)"/>
       <path d="M 2631 2963 
Q 2534 3019 2420 3045 
Q 2306 3072 2169 3072 
Q 1681 3072 1420 2755 
Q 1159 2438 1159 1844 
L 1159 0 
L 581 0 
L 581 3500 
L 1159 3500 
L 1159 2956 
Q 1341 3275 1631 3429 
Q 1922 3584 2338 3584 
Q 2397 3584 2469 3576 
Q 2541 3569 2628 3553 
L 2631 2963 
z
" id="DejaVuSans-72" transform="scale(0.015625)"/>
       <path d="M 2194 1759 
Q 1497 1759 1228 1600 
Q 959 1441 959 1056 
Q 959 750 1161 570 
Q 1363 391 1709 391 
Q 2188 391 2477 730 
Q 2766 1069 2766 1631 
L 2766 1759 
L 2194 1759 
z
M 3341 1997 
L 3341 0 
L 2766 0 
L 2766 531 
Q 2569 213 2275 61 
Q 1981 -91 1556 -91 
Q 1019 -91 701 211 
Q 384 513 384 1019 
Q 384 1609 779 1909 
Q 1175 2209 1959 2209 
L 2766 2209 
L 2766 2266 
Q 2766 2663 2505 2880 
Q 2244 3097 1772 3097 
Q 1472 3097 1187 3025 
Q 903 2953 641 2809 
L 641 3341 
Q 956 3463 1253 3523 
Q 1550 3584 1831 3584 
Q 2591 3584 2966 3190 
Q 3341 2797 3341 1997 
z
" id="DejaVuSans-61" transform="scale(0.015625)"/>
       <path d="M 3513 2113 
L 3513 0 
L 2938 0 
L 2938 2094 
Q 2938 2591 2744 2837 
Q 2550 3084 2163 3084 
Q 1697 3084 1428 2787 
Q 1159 2491 1159 1978 
L 1159 0 
L 581 0 
L 581 3500 
L 1159 3500 
L 1159 2956 
Q 1366 3272 1645 3428 
Q 1925 3584 2291 3584 
Q 2894 3584 3203 3211 
Q 3513 2838 3513 2113 
z
" id="DejaVuSans-6e" transform="scale(0.015625)"/>
       <path id="DejaVuSans-20" transform="scale(0.015625)"/>
       <path d="M 1159 525 
L 1159 -1331 
L 581 -1331 
L 581 3500 
L 1159 3500 
L 1159 2969 
Q 1341 3281 1617 3432 
Q 1894 3584 2278 3584 
Q 2916 3584 3314 3078 
Q 3713 2572 3713 1747 
Q 3713 922 3314 415 
Q 2916 -91 2278 -91 
Q 1894 -91 1617 61 
Q 1341 213 1159 525 
z
M 3116 1747 
Q 3116 2381 2855 2742 
Q 2594 3103 2138 3103 
Q 1681 3103 1420 2742 
Q 1159 2381 1159 1747 
Q 1159 1113 1420 752 
Q 1681 391 2138 391 
Q 2594 391 2855 752 
Q 3116 1113 3116 1747 
z
" id="DejaVuSans-70" transform="scale(0.015625)"/>
       <path d="M 1959 3097 
Q 1497 3097 1228 2736 
Q 959 2375 959 1747 
Q 959 1119 1226 758 
Q 1494 397 1959 397 
Q 2419 397 2687 759 
Q 2956 1122 2956 1747 
Q 2956 2369 2687 2733 
Q 2419 3097 1959 3097 
z
M 1959 3584 
Q 2709 3584 3137 3096 
Q 3566 2609 3566 1747 
Q 3566 888 3137 398 
Q 2709 -91 1959 -91 
Q 1206 -91 779 398 
Q 353 888 353 1747 
Q 353 2609 779 3096 
Q 1206 3584 1959 3584 
z
" id="DejaVuSans-6f" transform="scale(0.015625)"/>
       <path d="M 1172 4494 
L 1172 3500 
L 2356 3500 
L 2356 3053 
L 1172 3053 
L 1172 1153 
Q 1172 725 1289 603 
Q 1406 481 1766 481 
L 2356 481 
L 2356 0 
L 1766 0 
Q 1100 0 847 248 
Q 594 497 594 1153 
L 594 3053 
L 172 3053 
L 172 3500 
L 594 3500 
L 594 4494 
L 1172 4494 
z
" id="DejaVuSans-74" transform="scale(0.015625)"/>
       <path d="M 603 4863 
L 1178 4863 
L 1178 0 
L 603 0 
L 603 4863 
z
" id="DejaVuSans-6c" transform="scale(0.015625)"/>
       <path d="M 1831 0 
L 50 4666 
L 709 4666 
L 2188 738 
L 3669 4666 
L 4325 4666 
L 2547 0 
L 1831 0 
z
" id="DejaVuSans-56" transform="scale(0.015625)"/>
      </defs>
      <use xlink:href="#DejaVuSans-4d"/>
      <use x="86.279297" xlink:href="#DejaVuSans-65"/>
      <use x="147.802734" xlink:href="#DejaVuSans-6d"/>
      <use x="245.214844" xlink:href="#DejaVuSans-62"/>
      <use x="308.691406" xlink:href="#DejaVuSans-72"/>
      <use x="349.804688" xlink:href="#DejaVuSans-61"/>
      <use x="411.083984" xlink:href="#DejaVuSans-6e"/>
      <use x="474.462891" xlink:href="#DejaVuSans-65"/>
      <use x="535.986328" xlink:href="#DejaVuSans-20"/>
      <use x="567.773438" xlink:href="#DejaVuSans-70"/>
      <use x="631.25" xlink:href="#DejaVuSans-6f"/>
      <use x="692.431641" xlink:href="#DejaVuSans-74"/>
      <use x="731.640625" xlink:href="#DejaVuSans-65"/>
      <use x="793.164062" xlink:href="#DejaVuSans-6e"/>
      <use x="856.542969" xlink:href="#DejaVuSans-74"/>
      <use x="895.751953" xlink:href="#DejaVuSans-69"/>
      <use x="923.535156" xlink:href="#DejaVuSans-61"/>
      <use x="984.814453" xlink:href="#DejaVuSans-6c"/>
      <use x="1012.597656" xlink:href="#DejaVuSans-20"/>
      <use x="1044.384766" xlink:href="#DejaVuSans-28"/>
      <use x="1083.398438" xlink:href="#DejaVuSans-6d"/>
      <use x="1180.810547" xlink:href="#DejaVuSans-56"/>
      <use x="1249.21875" xlink:href="#DejaVuSans-29"/>
     </g>
    </g>
   </g>
   <g id="line2d_15">
    <path clip-path="url(#p2928bf918a)" d="M 69.218182 150.528 
L 69.370364 189.219274 
L 69.624 193.860893 
L 69.877636 195.967162 
L 70.131273 195.331512 
L 70.182 195.371376 
L 70.334182 195.812779 
L 70.790727 198.281448 
L 71.247273 200.517456 
L 71.298 200.494262 
L 71.754545 198.94319 
L 71.906727 199.052635 
L 71.957455 199.108445 
L 72.109636 197.895854 
L 72.312545 196.719504 
L 72.414 196.667318 
L 72.566182 196.990579 
L 72.667636 197.34863 
L 72.819818 195.86569 
L 73.022727 194.840822 
L 73.124182 194.948093 
L 73.377818 196.013549 
L 73.479273 196.159958 
L 73.732909 195.796109 
L 73.885091 196.004851 
L 74.189455 197.081179 
L 74.798182 199.57739 
L 74.848909 199.516507 
L 75.305455 198.291595 
L 75.457636 198.303192 
L 75.711273 194.347234 
L 75.812727 194.137042 
L 75.863455 194.185603 
L 75.914182 194.305195 
L 75.964909 194.274029 
L 76.269273 192.757022 
L 76.370727 192.887486 
L 76.522909 193.32744 
L 76.573636 193.248437 
L 76.776545 192.808483 
L 76.827273 192.826603 
L 76.979455 193.207848 
L 77.334545 195.130742 
L 77.588182 196.455677 
L 77.638909 196.375949 
L 77.740364 196.02732 
L 77.841818 194.402318 
L 78.146182 188.710464 
L 78.298364 188.319072 
L 78.856364 189.562104 
L 79.160727 191.448034 
L 80.023091 197.120318 
L 80.276727 196.001227 
L 80.530364 192.773693 
L 80.784 188.930078 
L 80.885455 188.712638 
L 80.936182 188.790917 
L 81.088364 189.50267 
L 81.139091 189.380904 
L 81.392727 188.084237 
L 81.544909 188.664077 
L 81.950727 191.971339 
L 82.204364 194.049341 
L 82.255091 194.01745 
L 82.508727 193.346285 
L 82.610182 193.439059 
L 82.813091 194.083406 
L 83.726182 198.234336 
L 83.776909 197.96471 
L 84.233455 192.780941 
L 84.385636 192.460579 
L 84.487091 192.578722 
L 84.69 193.297723 
L 85.552364 197.487792 
L 85.603091 197.325437 
L 85.958182 195.722904 
L 86.110364 195.743198 
L 86.313273 196.196198 
L 86.465455 196.520909 
L 86.922 195.322814 
L 87.074182 195.559824 
L 87.429273 196.695586 
L 87.581455 197.064509 
L 87.835091 193.499218 
L 87.936545 193.34556 
L 87.987273 193.404994 
L 88.190182 194.128344 
L 89.306182 199.039589 
L 89.813455 200.110118 
L 90.320727 200.692133 
L 90.422182 200.06663 
L 90.726545 197.871211 
L 90.929455 197.591438 
L 91.081636 197.73205 
L 91.284545 195.823651 
L 91.487455 194.931422 
L 91.588909 194.951717 
L 91.791818 195.490968 
L 93.110727 200.153606 
L 93.262909 200.389166 
L 93.313636 200.32176 
L 93.465818 199.717277 
L 93.668727 196.833298 
L 93.922364 194.74225 
L 94.074545 193.713758 
L 95.038364 186.450538 
L 95.139818 186.675226 
L 95.342727 187.871146 
L 95.444182 187.543536 
L 95.596364 186.976742 
L 95.697818 187.170989 
L 95.900727 188.445912 
L 96.408 192.557702 
L 96.458727 192.545381 
L 96.661636 192.465653 
L 96.813818 192.771518 
L 97.168909 194.291424 
L 97.270364 194.68789 
L 97.422545 193.231042 
L 97.879091 189.165638 
L 98.234182 187.087637 
L 98.335636 187.140547 
L 98.487818 187.43699 
L 98.741455 187.007184 
L 98.842909 187.048498 
L 99.198 186.179462 
L 99.451636 185.038627 
L 99.553091 185.258242 
L 99.756 186.483878 
L 101.074909 196.255632 
L 101.582182 197.920498 
L 102.089455 198.858389 
L 102.190909 198.285072 
L 102.546 195.885984 
L 102.698182 195.457627 
L 103.053273 193.207848 
L 103.154727 193.132469 
L 103.205455 193.172333 
L 103.459091 193.481098 
L 103.662 193.152763 
L 103.966364 190.06729 
L 104.067818 189.965093 
L 104.22 190.363008 
L 104.575091 192.451157 
L 105.336 196.841995 
L 105.843273 198.542376 
L 106.096909 199.056984 
L 106.198364 198.585864 
L 106.553455 196.731101 
L 106.705636 195.913526 
L 106.908545 193.621709 
L 107.263636 189.139546 
L 107.415818 188.880067 
L 107.618727 189.359885 
L 107.872364 188.111054 
L 107.973818 188.243693 
L 108.075273 188.630736 
L 108.126 188.503896 
L 108.328909 187.797216 
L 108.430364 187.905936 
L 108.633273 188.839478 
L 109.901455 196.963037 
L 110.307273 193.594166 
L 110.408727 193.462978 
L 110.814545 192.369979 
L 111.169636 188.083512 
L 111.372545 186.773074 
L 111.474 186.889042 
L 111.676909 187.987114 
L 112.995818 197.100749 
L 113.503091 198.620654 
L 114.010364 199.47012 
L 114.416182 199.865861 
L 114.517636 199.546224 
L 114.669818 198.259704 
L 115.075636 194.390722 
L 115.278545 194.14284 
L 115.430727 194.403043 
L 115.785818 195.656222 
L 115.938 196.233888 
L 115.988727 196.164307 
L 116.394545 194.699486 
L 116.546727 194.911128 
L 116.901818 196.127342 
L 116.952545 195.946867 
L 117.256909 191.261035 
L 117.510545 187.02168 
L 117.662727 186.65783 
L 117.814909 187.217376 
L 117.916364 187.608043 
L 118.322182 184.234824 
L 118.474364 184.839307 
L 118.829455 187.992912 
L 119.590364 194.61541 
L 120.046909 196.960862 
L 120.097636 197.024645 
L 120.604909 195.043766 
L 120.655636 195.069134 
L 120.858545 195.441682 
L 121.061455 196.041816 
L 121.467273 193.203499 
L 121.568727 193.290475 
L 121.771636 193.923226 
L 122.735455 197.771189 
L 123.192 195.214094 
L 123.242727 195.230765 
L 123.394909 195.458352 
L 123.496364 194.808931 
L 123.75 193.203499 
L 123.851455 193.132469 
L 123.902182 193.18248 
L 124.003636 193.120147 
L 124.308 192.515664 
L 124.460182 192.746875 
L 124.561636 193.03897 
L 124.916727 190.607266 
L 124.967455 190.639157 
L 125.068909 190.181083 
L 125.271818 189.322195 
L 125.424 189.152592 
L 125.677636 187.9458 
L 125.779091 188.045822 
L 125.982 189.015605 
L 126.945818 195.252509 
L 126.996545 195.238013 
L 127.250182 195.15901 
L 127.453091 195.424286 
L 127.605273 195.739574 
L 128.011091 193.004179 
L 128.112545 193.119422 
L 128.214 193.312944 
L 128.264727 193.267282 
L 128.619818 192.69469 
L 128.772 192.923726 
L 129.127091 194.097902 
L 129.177818 193.831176 
L 129.431455 190.679021 
L 129.837273 184.006512 
L 130.040182 181.778477 
L 130.090909 181.763256 
L 130.192364 182.152474 
L 130.446 184.495027 
L 131.206909 192.117024 
L 131.460545 192.001781 
L 131.612727 192.290976 
L 131.967818 193.702886 
L 132.627273 196.386821 
L 132.728727 196.319414 
L 132.931636 195.897581 
L 133.438909 192.977362 
L 133.540364 193.00128 
L 133.641818 193.173058 
L 134.301273 189.575875 
L 134.402727 189.593995 
L 134.554909 189.947698 
L 134.605636 189.912907 
L 134.707091 189.465706 
L 135.011455 187.25579 
L 135.112909 187.234771 
L 135.265091 187.754453 
L 135.518727 188.717712 
L 135.670909 188.728584 
L 135.873818 183.512923 
L 136.127455 179.891822 
L 136.381091 177.244128 
L 136.431818 177.246302 
L 136.634727 177.995021 
L 136.736182 177.855859 
L 136.837636 178.10519 
L 137.040545 178.72127 
L 137.142 179.014814 
L 137.395636 177.739166 
L 137.446364 177.837739 
L 137.598545 178.792301 
L 138.004364 183.54119 
L 138.460909 188.337917 
L 138.765273 189.107654 
L 139.120364 187.481928 
L 139.171091 187.521067 
L 139.323273 187.959571 
L 139.374 187.793592 
L 139.627636 186.429518 
L 139.729091 186.541862 
L 139.932 187.505846 
L 140.185636 189.313498 
L 140.236364 189.220723 
L 140.49 187.991462 
L 140.591455 188.132798 
L 140.692909 188.353138 
L 140.997273 187.623264 
L 141.149455 188.040024 
L 141.504545 190.157165 
L 141.961091 193.094779 
L 142.011818 193.026648 
L 142.366909 191.211024 
L 142.417636 191.20885 
L 142.519091 190.743528 
L 142.772727 189.488174 
L 142.874182 189.50267 
L 143.026364 189.925954 
L 143.330727 191.222621 
L 143.381455 191.203776 
L 143.635091 190.997933 
L 143.787273 191.253787 
L 144.091636 192.431587 
L 145.055455 196.512936 
L 145.613455 197.841494 
L 146.120727 198.569194 
L 146.171455 198.582965 
L 146.323636 197.78351 
L 146.628 196.230989 
L 146.830909 196.046165 
L 147.033818 196.270128 
L 147.186 196.575269 
L 147.287455 195.633754 
L 147.541091 193.478198 
L 147.642545 193.384699 
L 147.693273 193.428187 
L 147.896182 193.96164 
L 148.251273 195.425736 
L 148.302 195.344558 
L 148.606364 192.721507 
L 148.707818 192.704112 
L 148.910727 193.122322 
L 148.961455 193.062888 
L 149.215091 192.74905 
L 149.367273 192.971563 
L 149.671636 194.066736 
L 150.584727 197.755968 
L 150.635455 197.805254 
L 150.686182 197.729875 
L 150.838364 196.101974 
L 151.142727 193.375277 
L 151.294909 193.11 
L 151.396364 193.208573 
L 151.65 194.013101 
L 152.106545 195.990355 
L 152.157273 195.834523 
L 152.512364 194.671944 
L 152.664545 194.731378 
L 152.867455 195.105374 
L 152.918182 195.04739 
L 153.374727 194.001504 
L 153.526909 194.158786 
L 153.831273 195.007526 
L 154.084909 195.930922 
L 154.389273 192.151814 
L 154.490727 192.146016 
L 154.693636 192.841099 
L 155.556 196.956514 
L 155.606727 196.8246 
L 156.469091 188.881517 
L 156.672 187.687046 
L 156.773455 187.71024 
L 156.874909 187.801565 
L 157.128545 187.484102 
L 157.280727 187.926955 
L 157.585091 188.96197 
L 157.737273 189.033725 
L 157.940182 189.592546 
L 158.295273 191.557478 
L 158.396727 192.052517 
L 158.447455 191.945246 
L 158.701091 191.157389 
L 158.802545 191.298725 
L 159.056182 192.330115 
L 159.462 193.991357 
L 159.614182 193.918877 
L 159.766364 192.717883 
L 160.02 191.22552 
L 160.121455 191.212474 
L 160.273636 191.58647 
L 160.578 192.628733 
L 160.628727 192.514939 
L 160.882364 192.040195 
L 161.034545 192.254011 
L 161.338909 193.411517 
L 161.440364 193.810882 
L 161.744727 188.725685 
L 161.998364 185.440166 
L 162.150545 184.758854 
L 162.353455 184.136251 
L 162.454909 184.345718 
L 162.607091 185.150246 
L 162.657818 185.038627 
L 162.860727 184.098562 
L 163.012909 184.500826 
L 163.063636 184.244971 
L 163.215818 183.624542 
L 163.266545 183.641938 
L 163.418727 184.264541 
L 163.773818 187.415971 
L 164.534727 194.022523 
L 164.636182 194.627006 
L 164.686909 194.527709 
L 164.991273 192.716434 
L 165.397091 191.087083 
L 165.447818 191.101579 
L 165.6 191.420491 
L 165.752182 191.837251 
L 166.462364 189.515717 
L 166.513091 189.564278 
L 166.563818 189.546158 
L 166.868182 187.996536 
L 167.223273 184.25077 
L 167.324727 184.213805 
L 167.375455 184.273963 
L 167.426182 184.21163 
L 167.629091 183.899242 
L 167.730545 184.123205 
L 167.933455 185.288683 
L 168.288545 187.42177 
L 168.440727 187.522517 
L 168.643636 188.227747 
L 169.100182 191.179858 
L 169.810364 195.360504 
L 170.317636 197.136264 
L 170.824909 198.185774 
L 171.18 198.651821 
L 171.230727 198.518458 
L 171.382909 195.517061 
L 172.651091 170.913 
L 172.854 168.743674 
L 172.955455 168.655973 
L 173.056909 168.387072 
L 173.107636 168.425486 
L 173.259818 169.393094 
L 173.564182 173.878882 
L 173.868545 177.639869 
L 174.274364 173.679562 
L 174.477273 171.464573 
L 174.528 171.481243 
L 174.680182 172.43363 
L 175.288909 178.32408 
L 175.339636 178.285666 
L 175.593273 177.247752 
L 175.694727 177.473165 
L 175.897636 178.933637 
L 176.202 181.756733 
L 176.252727 181.637866 
L 176.455636 180.125208 
L 176.76 176.178672 
L 177.013636 175.046534 
L 177.115091 175.17265 
L 177.571636 173.165678 
L 177.622364 173.14031 
L 177.673091 173.254829 
L 177.723818 173.213515 
L 178.332545 170.040341 
L 178.687636 167.877538 
L 178.992 160.78392 
L 179.245636 156.395981 
L 179.347091 156.166944 
L 179.55 156.710544 
L 179.752909 158.71679 
L 180.108 165.417566 
L 180.716727 177.571738 
L 180.818182 176.915794 
L 181.122545 174.671813 
L 181.274727 174.197069 
L 181.325455 174.229685 
L 181.477636 174.879106 
L 181.782 177.855134 
L 182.086364 179.978798 
L 182.187818 180.476011 
L 182.238545 180.31728 
L 182.34 179.296762 
L 182.644364 175.762637 
L 182.948727 172.66919 
L 183.050182 172.690934 
L 183.253091 171.6378 
L 183.456 169.91785 
L 183.506727 169.991779 
L 183.557455 169.886683 
L 183.709636 169.596763 
L 183.811091 170.033818 
L 184.064727 172.964909 
L 184.369091 176.29319 
L 184.521273 176.792578 
L 184.876364 174.113717 
L 184.927091 174.199243 
L 185.079273 174.569616 
L 185.13 174.536275 
L 185.332909 173.270774 
L 185.535818 168.858917 
L 185.890909 162.655354 
L 186.043091 161.881992 
L 186.144545 162.208877 
L 186.195273 162.419069 
L 186.246 162.283531 
L 186.702545 160.277285 
L 186.753273 160.229448 
L 186.804 160.290331 
L 186.956182 161.232571 
L 187.514182 166.231517 
L 187.869273 167.170133 
L 188.122909 168.950242 
L 188.173636 168.689314 
L 188.427273 165.71256 
L 188.680909 163.05037 
L 188.731636 163.042397 
L 188.883818 163.603392 
L 189.036 162.992386 
L 189.137455 163.134446 
L 189.188182 163.107629 
L 189.289636 163.351886 
L 189.340364 163.662101 
L 189.391091 163.562078 
L 189.492545 163.224322 
L 189.543273 163.327243 
L 189.847636 165.547306 
L 190.101273 167.974661 
L 190.354909 169.809854 
L 190.456364 169.667794 
L 190.608545 169.204646 
L 190.811455 165.84085 
L 191.115818 160.501973 
L 191.217273 160.307002 
L 191.318727 160.781746 
L 191.978182 167.228842 
L 192.130364 168.417514 
L 192.333273 168.386347 
L 192.485455 168.364603 
L 192.536182 168.215294 
L 192.739091 165.081259 
L 192.992727 162.777845 
L 193.043455 162.779294 
L 193.144909 163.164888 
L 193.195636 163.11995 
L 193.550727 158.602272 
L 193.652182 158.892917 
L 193.855091 161.103557 
L 194.159455 164.646379 
L 194.210182 164.641306 
L 194.463818 162.428491 
L 194.616 160.196107 
L 194.869636 152.042832 
L 195.123273 145.793606 
L 195.275455 145.076054 
L 195.427636 145.198546 
L 195.529091 145.811726 
L 195.782727 148.073102 
L 195.833455 148.020917 
L 195.884182 147.969456 
L 195.934909 148.026715 
L 196.137818 149.160302 
L 196.188545 149.616202 
L 196.239273 149.540098 
L 196.543636 146.652494 
L 196.594364 146.763389 
L 196.746545 147.089549 
L 196.898727 146.940965 
L 197.000182 146.748893 
L 197.050909 146.827896 
L 197.253818 148.143408 
L 197.456727 150.23808 
L 197.913273 155.515349 
L 198.014727 154.950005 
L 198.623455 147.404112 
L 198.724909 146.956186 
L 198.775636 146.97648 
L 198.877091 147.509208 
L 199.08 150.207638 
L 199.384364 154.233902 
L 199.536545 153.830914 
L 199.587273 153.882374 
L 199.739455 154.84056 
L 200.145273 158.920459 
L 200.196 158.721139 
L 200.348182 158.317426 
L 200.449636 158.616043 
L 200.652545 160.534589 
L 200.956909 163.309123 
L 201.261273 164.84135 
L 201.312 164.700739 
L 201.920727 161.524666 
L 202.022182 161.776171 
L 202.225091 163.557005 
L 202.681636 169.949741 
L 202.783091 169.638077 
L 202.884545 167.600664 
L 203.493273 150.302587 
L 203.696182 149.51183 
L 203.949818 149.073326 
L 204.254182 145.553698 
L 204.304909 145.642848 
L 204.406364 146.104546 
L 204.457091 146.043662 
L 204.507818 146.084251 
L 204.609273 146.746718 
L 204.862909 150.978826 
L 205.573091 165.81983 
L 205.623818 165.575573 
L 205.776 162.403848 
L 206.029636 157.157021 
L 206.131091 156.951902 
L 206.486182 157.981843 
L 206.739818 161.243443 
L 207.196364 168.749472 
L 207.247091 168.174706 
L 207.652909 162.561854 
L 207.805091 160.431667 
L 208.160182 148.739918 
L 208.464545 140.351808 
L 208.667455 138.746376 
L 208.768909 139.212422 
L 208.971818 142.194974 
L 209.529818 151.755811 
L 209.631273 152.026162 
L 209.682 151.985573 
L 209.783455 152.078347 
L 209.986364 153.378638 
L 210.087818 153.851933 
L 210.138545 153.754085 
L 210.189273 153.611299 
L 210.392182 151.961654 
L 210.493636 152.315357 
L 210.696545 154.707197 
L 210.950182 158.20943 
L 211.000909 158.184062 
L 211.102364 158.371061 
L 211.305273 158.945827 
L 211.406727 157.862976 
L 211.660364 155.354443 
L 211.761818 155.755982 
L 211.964727 158.192035 
L 212.269091 161.372458 
L 212.472 162.535037 
L 212.776364 166.29385 
L 212.928545 167.631106 
L 212.979273 167.563699 
L 213.03 167.628931 
L 213.182182 168.682066 
L 213.435818 170.5506 
L 213.486545 170.220091 
L 214.146 156.646037 
L 214.196727 156.83521 
L 214.856182 161.880542 
L 214.957636 161.632661 
L 215.160545 160.978891 
L 215.414182 157.873848 
L 216.530182 135.32677 
L 216.580909 135.270235 
L 216.631636 135.365909 
L 216.682364 135.444187 
L 216.733091 135.380405 
L 216.834545 135.286906 
L 216.936 135.744979 
L 217.138909 138.591269 
L 218.356364 163.950571 
L 218.457818 163.273608 
L 218.660727 162.280632 
L 218.762182 162.582874 
L 218.965091 164.464454 
L 219.320182 169.431509 
L 219.421636 168.970536 
L 219.776727 166.23804 
L 219.827455 166.23804 
L 219.928909 166.571448 
L 220.030364 167.270155 
L 220.081091 167.138966 
L 220.284 165.534259 
L 221.095636 148.976203 
L 221.298545 148.398538 
L 221.349273 148.489862 
L 221.501455 149.716224 
L 221.958 157.388957 
L 222.668182 167.706485 
L 222.972545 171.516758 
L 223.834909 182.887421 
L 224.037818 183.324475 
L 224.139273 183.334622 
L 224.392909 182.713469 
L 224.798727 179.448245 
L 224.849455 179.477237 
L 225.001636 179.986046 
L 225.356727 182.477909 
L 226.219091 188.743805 
L 226.777091 191.232768 
L 227.030727 191.990909 
L 227.081455 191.82348 
L 227.284364 188.700317 
L 227.943818 177.397786 
L 228.096 176.921592 
L 228.248182 176.659939 
L 228.349636 176.89115 
L 228.552545 178.150128 
L 228.856909 180.559363 
L 228.907636 180.544867 
L 229.009091 180.529646 
L 229.110545 180.751435 
L 229.465636 182.057525 
L 229.617818 181.513925 
L 229.820727 180.955829 
L 229.922182 181.021061 
L 230.023636 181.231978 
L 230.328 178.937986 
L 230.429455 179.24965 
L 230.683091 181.158773 
L 231.444 187.71169 
L 231.596182 187.660229 
L 231.748364 187.650806 
L 231.900545 187.895064 
L 232.204909 189.009806 
L 232.762909 191.308872 
L 232.965818 190.950821 
L 233.270182 190.223846 
L 233.625273 188.613341 
L 233.726727 188.586523 
L 233.878909 188.856149 
L 234.234 190.237618 
L 234.284727 190.04627 
L 234.589091 188.813386 
L 234.690545 188.882966 
L 234.893455 189.48455 
L 234.944182 189.349738 
L 235.248545 187.631962 
L 235.35 187.721837 
L 235.502182 188.079163 
L 235.857273 187.052846 
L 236.009455 187.360886 
L 236.313818 188.856874 
L 236.516727 190.090483 
L 236.567455 190.014379 
L 236.821091 188.590872 
L 236.922545 188.595946 
L 237.074727 188.999659 
L 237.531273 191.288578 
L 237.582 191.143618 
L 238.596545 180.473837 
L 238.698 180.747811 
L 238.951636 182.628667 
L 239.154545 183.795595 
L 239.205273 183.749208 
L 239.458909 182.791022 
L 239.712545 181.673381 
L 239.814 181.94663 
L 240.067636 183.778925 
L 240.473455 187.126776 
L 240.625636 185.355365 
L 240.879273 182.74391 
L 241.234364 181.716869 
L 241.285091 181.757458 
L 241.437273 182.373538 
L 241.690909 184.180464 
L 241.741636 183.710794 
L 241.995273 181.162397 
L 242.096727 181.071797 
L 242.248909 181.702373 
L 242.604 184.940054 
L 242.806909 186.749155 
L 242.857636 186.64116 
L 243.415636 183.841258 
L 243.517091 183.83111 
L 243.669273 184.242797 
L 243.973636 186.106982 
L 244.937455 192.89111 
L 244.988182 192.860669 
L 245.394 191.742302 
L 245.546182 191.943072 
L 245.850545 192.717158 
L 246.053455 190.697866 
L 246.256364 186.002611 
L 246.560727 179.189491 
L 246.763636 177.407933 
L 246.865091 177.662338 
L 247.118727 179.822242 
L 247.575273 183.213581 
L 247.778182 183.080218 
L 248.031818 180.104189 
L 248.082545 180.0636 
L 248.133273 180.162173 
L 248.336182 181.491456 
L 248.995636 187.617466 
L 249.046364 187.587024 
L 249.198545 187.612392 
L 249.350727 187.810987 
L 249.655091 186.98399 
L 249.705818 187.007184 
L 249.858 187.381181 
L 250.111636 188.277034 
L 250.365273 187.753003 
L 250.466727 187.897238 
L 250.517455 187.808813 
L 250.821818 186.712915 
L 250.923273 186.870197 
L 251.126182 187.771123 
L 251.532 190.016554 
L 251.582727 189.924504 
L 251.785636 189.627336 
L 251.937818 189.903485 
L 252.242182 191.275531 
L 252.800182 193.947144 
L 252.901636 193.900757 
L 253.206 193.628957 
L 253.307455 193.683317 
L 253.408909 193.157837 
L 253.713273 191.521238 
L 253.814727 191.508192 
L 253.966909 191.704613 
L 254.017636 191.664749 
L 254.169818 191.298725 
L 254.372727 189.712138 
L 255.082909 180.695626 
L 255.184364 180.509352 
L 255.285818 180.828264 
L 255.590182 182.417026 
L 255.640909 182.265542 
L 256.097455 180.860155 
L 256.300364 180.341923 
L 256.351091 180.363667 
L 256.503273 180.867403 
L 256.807636 183.228077 
L 257.467091 189.209126 
L 257.517818 189.198979 
L 257.720727 189.122875 
L 257.872909 189.517166 
L 258.075818 190.058592 
L 258.380182 190.140494 
L 258.583091 190.678296 
L 259.090364 193.016501 
L 259.597636 195.234389 
L 259.648364 195.160459 
L 259.902 193.49197 
L 260.46 185.321299 
L 260.865818 183.249821 
L 260.967273 183.086741 
L 261.068727 183.338971 
L 261.322364 185.141549 
L 261.880364 190.256462 
L 261.931091 189.95712 
L 262.134 189.162014 
L 262.235455 189.310598 
L 262.489091 190.52029 
L 262.844182 192.522912 
L 263.148545 190.712362 
L 263.25 190.801512 
L 263.452909 191.540808 
L 263.858727 193.639829 
L 263.909455 193.47095 
L 264.315273 188.783669 
L 264.416727 188.675674 
L 264.568909 189.05112 
L 264.924 191.09868 
L 265.431273 194.208072 
L 265.482 194.103701 
L 265.837091 192.841824 
L 265.938545 192.904882 
L 266.141455 193.410067 
L 266.851636 196.151986 
L 266.902364 196.018622 
L 267.257455 193.989182 
L 267.409636 193.936272 
L 267.511091 194.091379 
L 267.561818 194.037019 
L 267.916909 192.058315 
L 268.018364 192.116299 
L 268.221273 192.726581 
L 268.322727 192.986784 
L 268.373455 192.939672 
L 268.677818 192.491021 
L 268.83 192.722957 
L 269.134364 193.845672 
L 269.235818 194.202998 
L 269.286545 194.073984 
L 269.590909 192.860669 
L 269.743091 192.915754 
L 270.148909 190.760923 
L 270.301091 191.112451 
L 270.453273 191.511091 
L 270.808364 190.930526 
L 270.960545 191.250888 
L 271.315636 192.87299 
L 272.127273 196.645574 
L 272.228727 195.280051 
L 272.685273 187.709515 
L 272.837455 187.350739 
L 272.938909 187.558757 
L 273.192545 188.974291 
L 273.243273 189.265661 
L 273.294 189.017054 
L 273.801273 185.106758 
L 274.207091 177.045533 
L 274.257818 177.075974 
L 274.663636 178.793026 
L 274.968 181.932134 
L 275.526 187.995811 
L 275.728909 188.336467 
L 275.982545 189.407722 
L 277.2 196.042541 
L 277.250727 196.030219 
L 277.555091 193.143341 
L 277.707273 193.002005 
L 277.859455 193.293374 
L 278.163818 194.169658 
L 278.316 193.084632 
L 278.518909 190.546382 
L 278.823273 184.572581 
L 278.975455 184.035504 
L 279.076909 184.26599 
L 279.330545 185.985941 
L 279.432 186.535339 
L 279.736364 184.45009 
L 280.040727 179.879501 
L 280.243636 178.508904 
L 280.345091 178.843762 
L 280.598727 181.281989 
L 280.700182 182.10971 
L 281.004545 178.475563 
L 281.106 178.792301 
L 281.359636 181.278365 
L 281.917636 187.268112 
L 282.069818 187.388429 
L 282.272727 188.209627 
L 282.78 191.64083 
L 282.881455 191.343662 
L 283.084364 190.82833 
L 283.236545 190.981262 
L 283.287273 190.91893 
L 283.591636 190.246315 
L 283.794545 189.205502 
L 284.301818 183.599174 
L 284.352545 183.607872 
L 284.504727 184.200034 
L 284.859818 187.252891 
L 285.417818 192.243139 
L 285.468545 192.161962 
L 285.772909 191.379178 
L 285.874364 191.500219 
L 285.925091 191.418317 
L 286.330909 189.50557 
L 286.584545 187.697918 
L 286.686 187.726186 
L 286.838182 188.274134 
L 287.244 190.336915 
L 287.396182 188.316898 
L 287.599091 186.594048 
L 287.700545 186.524467 
L 287.802 186.736834 
L 287.903455 186.113506 
L 288.157091 184.42907 
L 288.258545 184.289184 
L 288.512182 182.189438 
L 288.664364 181.507402 
L 288.715091 181.516824 
L 288.867273 182.118408 
L 289.171636 184.826261 
L 290.084727 193.39992 
L 290.592 196.066459 
L 290.744182 196.578168 
L 290.794909 196.483944 
L 291.200727 194.700936 
L 291.302182 194.585693 
L 291.606545 190.820357 
L 291.708 190.699315 
L 291.860182 191.039246 
L 291.910909 190.924003 
L 292.215273 189.464256 
L 292.316727 189.605592 
L 292.570364 190.751501 
L 293.635636 196.428134 
L 294.142909 197.848018 
L 294.700909 198.748944 
L 295.056 199.103371 
L 295.157455 198.610507 
L 295.512545 196.370875 
L 295.664727 195.622882 
L 296.273455 192.307646 
L 296.425636 192.177907 
L 296.577818 192.45913 
L 296.882182 193.708685 
L 297.795273 197.679139 
L 297.846 197.682038 
L 298.404 195.114072 
L 298.860545 190.331842 
L 299.164909 186.820186 
L 299.570727 181.14935 
L 299.672182 180.885523 
L 299.722909 180.981922 
L 299.875091 181.921987 
L 300.280909 186.571579 
L 300.788182 191.609664 
L 301.041818 191.945971 
L 301.194 190.704389 
L 301.599818 186.165691 
L 301.802727 185.634413 
L 301.904182 185.846779 
L 302.157818 187.29348 
L 302.868 192.540307 
L 302.918727 192.501893 
L 303.070909 192.212698 
L 303.679636 187.231872 
L 303.933273 183.777475 
L 303.984 183.697022 
L 304.034727 183.756456 
L 304.186909 184.527643 
L 304.440545 186.57013 
L 304.643455 184.642162 
L 304.744909 184.892942 
L 304.998545 186.915859 
L 305.860909 194.382749 
L 306.368182 196.805755 
L 306.875455 198.169829 
L 307.281273 198.736622 
L 307.636364 194.92345 
L 307.788545 194.746598 
L 307.940727 194.999554 
L 308.397273 196.550626 
L 309.056727 198.498163 
L 309.614727 199.462147 
L 309.919091 199.775986 
L 310.426364 195.915701 
L 310.578545 196.031669 
L 310.730727 196.363627 
L 311.238 189.091709 
L 311.542364 187.779096 
L 311.643818 188.007408 
L 311.796 188.790192 
L 311.846727 188.641608 
L 312.201818 185.57208 
L 312.303273 184.764653 
L 312.506182 183.538291 
L 312.607636 183.757906 
L 312.810545 185.169091 
L 314.078727 195.98963 
L 314.586 197.919773 
L 315.093273 198.985954 
L 315.194727 199.112794 
L 315.600545 194.896632 
L 315.702 194.88721 
L 315.904909 195.331512 
L 316.462909 197.216717 
L 316.513636 196.921723 
L 316.818 195.056813 
L 316.970182 194.981434 
L 317.173091 195.379349 
L 317.629636 196.796333 
L 317.680364 196.606435 
L 317.984727 195.253234 
L 318.136909 195.238013 
L 318.339818 195.66347 
L 319.760182 199.668715 
L 319.861636 198.696034 
L 320.115273 196.338984 
L 320.318182 196.037467 
L 320.470364 196.267954 
L 320.926909 197.674066 
L 321.586364 199.465046 
L 322.144364 200.342779 
L 322.347273 200.550797 
L 322.448727 200.015894 
L 322.803818 197.562446 
L 322.956 197.389219 
L 323.108182 197.524757 
L 323.463273 198.34813 
L 324.122727 199.94269 
L 324.173455 199.85209 
L 324.63 196.84417 
L 324.782182 196.831123 
L 324.985091 197.20657 
L 325.289455 197.954563 
L 325.746 196.04544 
L 325.796727 196.060661 
L 325.999636 196.360003 
L 326.050364 196.278101 
L 326.405455 195.35833 
L 326.557636 195.511262 
L 326.862 196.436107 
L 327.825818 199.66944 
L 328.079455 200.096347 
L 328.536 197.94949 
L 328.992545 195.278602 
L 329.144727 195.290923 
L 329.347636 195.757694 
L 330.057818 198.284347 
L 330.108545 198.16403 
L 330.463636 196.747771 
L 330.615818 196.742698 
L 330.818727 197.093501 
L 331.072364 197.753069 
L 331.123091 197.699434 
L 331.579636 196.420886 
L 331.731818 196.586141 
L 332.036182 197.413862 
L 332.137636 197.706682 
L 332.188364 197.681314 
L 332.340545 197.100024 
L 332.492727 194.911853 
L 332.746364 192.577997 
L 333.101455 190.286179 
L 333.202909 190.481875 
L 333.456545 191.84305 
L 334.471091 198.059659 
L 334.674 198.786634 
L 335.536364 192.674395 
L 335.587091 192.727306 
L 335.79 193.436885 
L 335.942182 193.986283 
L 336.297273 192.630907 
L 336.449455 192.921552 
L 336.753818 194.320416 
L 337.565455 198.168379 
L 338.072727 199.538976 
L 338.174182 199.720176 
L 338.275636 199.03379 
L 338.58 196.686888 
L 338.782909 196.157784 
L 339.138 194.661797 
L 339.239455 194.671944 
L 339.340909 194.787912 
L 339.493091 194.155886 
L 339.746727 193.412966 
L 339.848182 193.474574 
L 340.051091 194.024698 
L 340.659818 196.749946 
L 340.710545 196.591214 
L 341.268545 191.600242 
L 341.420727 191.522688 
L 341.725091 191.176234 
L 341.877273 191.44296 
L 342.283091 192.641054 
L 342.435273 191.795938 
L 342.688909 189.583848 
L 342.993273 185.91491 
L 343.094727 185.660506 
L 343.145455 185.690947 
L 343.297636 186.263539 
L 343.551273 187.736333 
L 343.602 187.721112 
L 343.754182 187.72691 
L 343.906364 188.221224 
L 344.261455 190.679746 
L 344.565818 192.824429 
L 344.616545 192.808483 
L 344.718 192.081509 
L 345.022364 189.424392 
L 345.428182 186.828158 
L 345.681818 186.136699 
L 345.783273 186.356314 
L 346.036909 187.900862 
L 346.645636 192.228643 
L 346.95 192.606989 
L 347.254364 193.497768 
L 348.015273 187.359437 
L 348.116727 187.497149 
L 348.319636 188.335742 
L 348.776182 184.028256 
L 348.826909 183.970272 
L 348.877636 184.036954 
L 349.029818 184.785672 
L 349.587818 188.140771 
L 349.993636 189.938275 
L 350.044364 189.899136 
L 350.450182 187.846502 
L 350.551636 187.971168 
L 350.754545 188.79744 
L 351.363273 192.798336 
L 351.464727 192.319968 
L 351.769091 190.89936 
L 352.022727 189.983938 
L 352.124182 189.807086 
L 352.428545 188.921381 
L 352.53 189.077213 
L 352.682182 189.429466 
L 352.732909 189.410621 
L 352.935818 189.372931 
L 353.088 189.716486 
L 353.392364 191.194354 
L 354.254727 195.849744 
L 354.406909 195.208296 
L 354.609818 193.723906 
L 354.863455 192.027149 
L 355.117091 191.323368 
L 355.522909 187.224624 
L 355.624364 187.235496 
L 355.776545 187.774022 
L 356.182364 190.583347 
L 356.588182 193.50719 
L 356.638909 193.329614 
L 357.095455 188.432866 
L 357.399818 183.968822 
L 357.501273 183.731813 
L 357.552 183.787622 
L 357.704182 184.455888 
L 358.11 187.96392 
L 358.363636 189.561379 
L 358.515818 189.503395 
L 358.617273 189.580949 
L 358.668 189.50267 
L 358.921636 189.065616 
L 359.073818 189.358435 
L 359.378182 190.841376 
L 359.682545 192.691066 
L 359.733273 192.469277 
L 359.986909 190.883414 
L 360.088364 190.887763 
L 360.240545 191.329166 
L 360.646364 193.086806 
L 360.697091 192.954893 
L 360.950727 192.268507 
L 361.052182 192.307646 
L 361.255091 192.827328 
L 361.508727 193.892784 
L 361.559455 193.556477 
L 362.168182 182.438045 
L 362.269636 182.29236 
L 362.371091 182.604749 
L 362.624727 184.583453 
L 363.182727 190.225296 
L 363.233455 189.943349 
L 364.095818 173.272224 
L 364.248 174.028915 
L 364.298727 173.832494 
L 364.400182 173.622302 
L 364.501636 174.032539 
L 364.755273 176.939712 
L 365.566909 188.057419 
L 365.820545 186.517944 
L 366.226364 184.098562 
L 366.48 184.41095 
L 366.530727 184.381234 
L 366.885818 182.68955 
L 366.936545 182.758406 
L 367.088727 183.412176 
L 367.545273 186.870197 
L 367.646727 186.365736 
L 367.748182 186.151195 
L 367.798909 186.174389 
L 367.900364 185.964922 
L 368.154 185.363338 
L 368.306182 185.78952 
L 368.610545 187.747205 
L 369.523636 193.922501 
L 369.625091 193.05564 
L 369.828 191.483549 
L 369.929455 191.359608 
L 369.980182 191.395848 
L 370.183091 191.927851 
L 371.045455 195.332962 
L 371.502 188.075539 
L 371.755636 186.592598 
L 371.857091 186.596947 
L 372.009273 187.102133 
L 372.364364 189.429466 
L 373.125273 194.382749 
L 373.277455 194.814005 
L 373.581818 194.062387 
L 373.581818 194.062387 
" style="fill:none;stroke:#000000;stroke-linecap:square;stroke-width:1.5;"/>
   </g>
   <g id="line2d_16">
    <path clip-path="url(#p2928bf918a)" d="M 69.218182 150.528 
L 69.370364 189.219274 
L 69.624 193.860893 
L 69.877636 195.967162 
L 70.131273 195.331512 
L 70.182 195.371376 
L 70.334182 195.812779 
L 70.790727 198.281448 
L 71.247273 200.517456 
L 71.298 200.494262 
L 71.754545 198.94319 
L 71.906727 199.052635 
L 71.957455 199.108445 
L 72.109636 197.895854 
L 72.312545 196.719504 
L 72.414 196.667318 
L 72.566182 196.990579 
L 72.667636 197.34863 
L 72.819818 195.86569 
L 73.022727 194.840822 
L 73.124182 194.948093 
L 73.377818 196.013549 
L 73.479273 196.159958 
L 73.732909 195.796109 
L 73.885091 196.004851 
L 74.189455 197.081179 
L 74.798182 199.57739 
L 74.848909 199.516507 
L 75.305455 198.291595 
L 75.457636 198.303192 
L 75.711273 194.347234 
L 75.812727 194.137042 
L 75.863455 194.185603 
L 75.914182 194.305195 
L 75.964909 194.274029 
L 76.269273 192.757022 
L 76.370727 192.887486 
L 76.522909 193.32744 
L 76.573636 193.248437 
L 76.776545 192.808483 
L 76.827273 192.826603 
L 76.979455 193.207848 
L 77.334545 195.130742 
L 77.588182 196.455677 
L 77.638909 196.375949 
L 77.740364 196.02732 
L 77.841818 194.402318 
L 78.146182 188.710464 
L 78.298364 188.319072 
L 78.856364 189.562104 
L 79.160727 191.448034 
L 80.023091 197.120318 
L 80.276727 196.001227 
L 80.530364 192.773693 
L 80.784 188.930078 
L 80.885455 188.712638 
L 80.936182 188.790917 
L 81.088364 189.50267 
L 81.139091 189.380904 
L 81.392727 188.084237 
L 81.544909 188.664077 
L 81.950727 191.971339 
L 82.204364 194.049341 
L 82.255091 194.01745 
L 82.508727 193.346285 
L 82.610182 193.439059 
L 82.813091 194.083406 
L 83.726182 198.234336 
L 83.776909 197.96471 
L 84.233455 192.780941 
L 84.385636 192.460579 
L 84.487091 192.578722 
L 84.69 193.297723 
L 85.552364 197.487792 
L 85.603091 197.325437 
L 85.958182 195.722904 
L 86.110364 195.743198 
L 86.313273 196.196198 
L 86.465455 196.520909 
L 86.922 195.322814 
L 87.074182 195.559824 
L 87.429273 196.695586 
L 87.581455 197.064509 
L 87.835091 193.499218 
L 87.936545 193.34556 
L 87.987273 193.404994 
L 88.190182 194.128344 
L 89.306182 199.039589 
L 89.813455 200.110118 
L 90.320727 200.692133 
L 90.422182 200.06663 
L 90.726545 197.871211 
L 90.929455 197.591438 
L 91.081636 197.73205 
L 91.284545 195.823651 
L 91.487455 194.931422 
L 91.588909 194.951717 
L 91.791818 195.490968 
L 93.110727 200.153606 
L 93.262909 200.389166 
L 93.313636 200.32176 
L 93.465818 199.717277 
L 93.668727 196.833298 
L 93.922364 194.74225 
L 94.074545 193.713758 
L 95.038364 186.450538 
L 95.139818 186.675226 
L 95.342727 187.871146 
L 95.444182 187.543536 
L 95.596364 186.976742 
L 95.697818 187.170989 
L 95.900727 188.445912 
L 96.408 192.557702 
L 96.458727 192.545381 
L 96.661636 192.465653 
L 96.813818 192.771518 
L 97.168909 194.291424 
L 97.270364 194.68789 
L 97.422545 193.231042 
L 97.879091 189.165638 
L 98.234182 187.087637 
L 98.335636 187.140547 
L 98.487818 187.43699 
L 98.741455 187.007184 
L 98.842909 187.048498 
L 99.198 186.179462 
L 99.451636 185.038627 
L 99.553091 185.258242 
L 99.756 186.483878 
L 101.074909 196.255632 
L 101.582182 197.920498 
L 102.089455 198.858389 
L 102.190909 198.285072 
L 102.546 195.885984 
L 102.698182 195.457627 
L 103.053273 193.207848 
L 103.154727 193.132469 
L 103.205455 193.172333 
L 103.459091 193.481098 
L 103.662 193.152763 
L 103.966364 190.06729 
L 104.067818 189.965093 
L 104.22 190.363008 
L 104.575091 192.451157 
L 105.336 196.841995 
L 105.843273 198.542376 
L 106.096909 199.056984 
L 106.198364 198.585864 
L 106.553455 196.731101 
L 106.705636 195.913526 
L 106.908545 193.621709 
L 107.263636 189.139546 
L 107.415818 188.880067 
L 107.618727 189.359885 
L 107.872364 188.111054 
L 107.973818 188.243693 
L 108.075273 188.630736 
L 108.126 188.503896 
L 108.328909 187.797216 
L 108.430364 187.905936 
L 108.633273 188.839478 
L 109.901455 196.963037 
L 110.307273 193.594166 
L 110.408727 193.462978 
L 110.814545 192.369979 
L 111.169636 188.083512 
L 111.372545 186.773074 
L 111.474 186.889042 
L 111.676909 187.987114 
L 112.995818 197.100749 
L 113.503091 198.620654 
L 114.010364 199.47012 
L 114.416182 199.865861 
L 114.517636 199.546224 
L 114.669818 198.259704 
L 115.075636 194.390722 
L 115.278545 194.14284 
L 115.430727 194.403043 
L 115.785818 195.656222 
L 115.938 196.233888 
L 115.988727 196.164307 
L 116.394545 194.699486 
L 116.546727 194.911128 
L 116.901818 196.127342 
L 116.952545 195.946867 
L 117.256909 191.261035 
L 117.510545 187.02168 
L 117.662727 186.65783 
L 117.814909 187.217376 
L 117.916364 187.608043 
L 118.322182 184.234824 
L 118.474364 184.839307 
L 118.829455 187.992912 
L 119.590364 194.61541 
L 120.046909 196.960862 
L 120.097636 197.024645 
L 120.604909 195.043766 
L 120.655636 195.069134 
L 120.858545 195.441682 
L 121.061455 196.041816 
L 121.467273 193.203499 
L 121.568727 193.290475 
L 121.771636 193.923226 
L 122.735455 197.771189 
L 123.192 195.214094 
L 123.242727 195.230765 
L 123.394909 195.458352 
L 123.496364 194.808931 
L 123.75 193.203499 
L 123.851455 193.132469 
L 123.902182 193.18248 
L 124.003636 193.120147 
L 124.308 192.515664 
L 124.460182 192.746875 
L 124.561636 193.03897 
L 124.916727 190.607266 
L 124.967455 190.639157 
L 125.068909 190.181083 
L 125.271818 189.322195 
L 125.424 189.152592 
L 125.677636 187.9458 
L 125.779091 188.045822 
L 125.982 189.015605 
L 126.945818 195.252509 
L 126.996545 195.238013 
L 127.250182 195.15901 
L 127.453091 195.424286 
L 127.605273 195.739574 
L 128.011091 193.004179 
L 128.112545 193.119422 
L 128.214 193.312944 
L 128.264727 193.267282 
L 128.619818 192.69469 
L 128.772 192.923726 
L 129.127091 194.097902 
L 129.177818 193.831176 
L 129.431455 190.679021 
L 129.837273 184.006512 
L 130.040182 181.778477 
L 130.090909 181.763256 
L 130.192364 182.152474 
L 130.446 184.495027 
L 131.206909 192.117024 
L 131.460545 192.001781 
L 131.612727 192.290976 
L 131.967818 193.702886 
L 132.627273 196.386821 
L 132.728727 196.319414 
L 132.931636 195.897581 
L 133.438909 192.977362 
L 133.540364 193.00128 
L 133.641818 193.173058 
L 134.301273 189.575875 
L 134.402727 189.593995 
L 134.554909 189.947698 
L 134.605636 189.912907 
L 134.707091 189.465706 
L 135.011455 187.25579 
L 135.112909 187.234771 
L 135.265091 187.754453 
L 135.518727 188.717712 
L 135.670909 188.728584 
L 135.873818 183.512923 
L 136.127455 179.891822 
L 136.381091 177.244128 
L 136.431818 177.246302 
L 136.634727 177.995021 
L 136.736182 177.855859 
L 136.837636 178.10519 
L 137.040545 178.72127 
L 137.142 179.014814 
L 137.395636 177.739166 
L 137.446364 177.837739 
L 137.598545 178.792301 
L 138.004364 183.54119 
L 138.460909 188.337917 
L 138.765273 189.107654 
L 139.120364 187.481928 
L 139.171091 187.521067 
L 139.323273 187.959571 
L 139.374 187.793592 
L 139.627636 186.429518 
L 139.729091 186.541862 
L 139.932 187.505846 
L 140.185636 189.313498 
L 140.236364 189.220723 
L 140.49 188.017555 
L 140.591455 188.173387 
L 140.692909 188.408947 
L 140.946545 187.707341 
L 140.997273 187.730534 
L 141.149455 188.174837 
L 141.504545 190.35721 
L 141.961091 193.375277 
L 142.011818 193.315843 
L 142.366909 191.569075 
L 142.417636 191.577048 
L 142.519091 191.130571 
L 142.772727 189.925229 
L 142.874182 189.95857 
L 143.077091 190.631909 
L 143.330727 191.757523 
L 143.381455 191.746651 
L 143.635091 191.584296 
L 143.787273 191.864069 
L 144.091636 193.086806 
L 145.055455 197.292096 
L 145.613455 198.688061 
L 146.120727 199.474469 
L 146.171455 199.494763 
L 146.323636 198.716328 
L 146.628 197.209469 
L 146.830909 197.052187 
L 147.033818 197.301518 
L 147.186 197.624779 
L 147.287455 196.69776 
L 147.541091 194.590766 
L 147.642545 194.513938 
L 147.693273 194.565398 
L 147.896182 195.125669 
L 148.251273 196.624555 
L 148.302 196.548451 
L 148.606364 193.976861 
L 148.707818 193.973962 
L 148.910727 194.41609 
L 148.961455 194.363179 
L 149.215091 194.079058 
L 149.367273 194.315342 
L 149.671636 195.432259 
L 150.584727 199.166429 
L 150.635455 199.218614 
L 150.686182 199.146859 
L 150.838364 197.538528 
L 151.142727 194.859667 
L 151.294909 194.611786 
L 151.447091 194.834299 
L 151.751455 195.988906 
L 152.106545 197.544326 
L 152.157273 197.392118 
L 152.512364 196.267954 
L 152.664545 196.340434 
L 152.867455 196.726752 
L 152.918182 196.672392 
L 153.374727 195.665645 
L 153.526909 195.830899 
L 153.831273 196.691237 
L 154.084909 197.62333 
L 154.389273 193.901482 
L 154.490727 193.910179 
L 154.693636 194.626282 
L 155.556 198.757642 
L 155.606727 198.627178 
L 156.469091 190.806586 
L 156.672 189.644731 
L 156.773455 189.678797 
L 156.874909 189.779544 
L 157.128545 189.48745 
L 157.280727 189.939725 
L 157.585091 190.984162 
L 157.737273 191.065339 
L 157.940182 191.629958 
L 158.396727 194.079782 
L 158.498182 193.739126 
L 158.701091 193.19915 
L 158.802545 193.34411 
L 159.056182 194.377675 
L 159.462 196.035293 
L 159.614182 195.965712 
L 159.766364 194.774866 
L 160.02 193.303522 
L 160.121455 193.294099 
L 160.273636 193.670995 
L 160.578 194.716882 
L 160.628727 194.604538 
L 160.882364 194.145014 
L 161.034545 194.363179 
L 161.338909 195.519235 
L 161.440364 195.915701 
L 161.744727 190.888488 
L 161.998364 187.67255 
L 162.150545 187.018781 
L 162.353455 186.430243 
L 162.454909 186.649133 
L 162.607091 187.459459 
L 162.657818 187.350014 
L 162.860727 186.430243 
L 163.012909 186.83903 
L 163.063636 186.587525 
L 163.215818 185.983042 
L 163.266545 186.004061 
L 163.418727 186.632462 
L 163.773818 189.763598 
L 164.534727 196.268678 
L 164.636182 196.860115 
L 164.686909 196.755744 
L 164.991273 194.953166 
L 165.397091 193.349184 
L 165.447818 193.36513 
L 165.6 193.684042 
L 165.752182 194.097902 
L 166.462364 191.810434 
L 166.513091 191.860445 
L 166.563818 191.842325 
L 166.868182 190.314446 
L 167.223273 186.62449 
L 167.324727 186.594048 
L 167.375455 186.655656 
L 167.426182 186.594773 
L 167.629091 186.292531 
L 167.730545 186.518669 
L 167.933455 187.679798 
L 168.288545 189.79404 
L 168.440727 189.895512 
L 168.643636 190.596394 
L 169.100182 193.512264 
L 169.810364 197.613907 
L 170.317636 199.34328 
L 170.824909 200.35945 
L 171.18 200.808101 
L 171.230727 200.673288 
L 171.382909 197.69436 
L 172.651091 173.474443 
L 172.854 171.343531 
L 172.955455 171.267427 
L 173.056909 171.011573 
L 173.107636 171.055786 
L 173.259818 172.035715 
L 173.564182 176.512805 
L 173.868545 180.2448 
L 174.274364 176.318558 
L 174.477273 174.139085 
L 174.528 174.160829 
L 174.680182 175.11684 
L 175.288909 180.95293 
L 175.339636 180.911616 
L 175.593273 179.867904 
L 175.644 179.925888 
L 175.796182 180.668083 
L 176.202 184.297157 
L 176.303455 183.927509 
L 176.455636 182.663458 
L 176.76 178.749538 
L 177.013636 177.631171 
L 177.115091 177.755837 
L 177.571636 175.774234 
L 177.622364 175.75249 
L 177.673091 175.869907 
L 177.723818 175.832218 
L 178.332545 172.727174 
L 178.687636 170.602061 
L 178.992 163.591795 
L 179.245636 159.259666 
L 179.347091 159.033528 
L 179.55 159.560458 
L 179.752909 161.532638 
L 180.108 168.153686 
L 180.716727 180.166522 
L 180.818182 179.50333 
L 181.122545 177.263698 
L 181.274727 176.78388 
L 181.325455 176.812872 
L 181.477636 177.446347 
L 181.782 180.37309 
L 182.086364 182.454715 
L 182.187818 182.938882 
L 182.238545 182.775802 
L 182.34 181.754558 
L 182.644364 178.250875 
L 182.948727 175.198742 
L 183.050182 175.224835 
L 183.253091 174.186197 
L 183.456 172.493789 
L 183.506727 172.572067 
L 183.557455 172.472045 
L 183.709636 172.19807 
L 183.811091 172.641648 
L 184.064727 175.564042 
L 184.369091 178.857533 
L 184.521273 179.343874 
L 184.876364 176.677334 
L 184.927091 176.762136 
L 185.079273 177.12816 
L 185.13 177.094094 
L 185.332909 175.833667 
L 185.535818 171.450802 
L 185.840182 165.902458 
L 186.043091 164.552155 
L 186.144545 164.876866 
L 186.195273 165.084158 
L 186.246 164.947896 
L 186.702545 162.953246 
L 186.753273 162.903235 
L 186.804 162.962669 
L 186.956182 163.894762 
L 187.514182 168.850944 
L 187.869273 169.792459 
L 188.122909 171.551549 
L 188.173636 171.289896 
L 188.427273 168.313867 
L 188.680909 165.63863 
L 188.731636 165.624859 
L 188.883818 166.167734 
L 189.036 165.556003 
L 189.137455 165.700238 
L 189.188182 165.675595 
L 189.289636 165.926376 
L 189.340364 166.23804 
L 189.391091 166.140917 
L 189.492545 165.814032 
L 189.543273 165.920578 
L 189.847636 168.146438 
L 190.101273 170.559298 
L 190.354909 172.367674 
L 190.456364 172.218365 
L 190.608545 171.741446 
L 190.811455 168.374026 
L 191.115818 163.058342 
L 191.217273 162.861197 
L 191.318727 163.328693 
L 191.978182 169.714906 
L 192.130364 170.886182 
L 192.333273 170.849942 
L 192.485455 170.823125 
L 192.536182 170.671642 
L 192.739091 167.541955 
L 192.992727 165.210274 
L 193.043455 165.200126 
L 193.144909 165.560352 
L 193.195636 165.503818 
L 193.550727 160.983965 
L 193.652182 161.27171 
L 193.855091 163.472928 
L 194.159455 167.006328 
L 194.210182 167.002704 
L 194.463818 164.823955 
L 194.616 162.616214 
L 194.869636 154.536869 
L 195.123273 148.358674 
L 195.275455 147.655618 
L 195.427636 147.779558 
L 195.529091 148.390565 
L 195.782727 150.63672 
L 195.833455 150.585259 
L 195.884182 150.535248 
L 195.934909 150.593232 
L 196.137818 151.726094 
L 196.188545 152.179819 
L 196.239273 152.10299 
L 196.543636 149.247278 
L 196.594364 149.359622 
L 196.746545 149.682158 
L 196.898727 149.530675 
L 197.000182 149.334254 
L 197.050909 149.408184 
L 197.253818 150.688906 
L 197.456727 152.736466 
L 197.913273 157.920235 
L 198.014727 157.333872 
L 198.572727 150.140957 
L 198.724909 149.289317 
L 198.775636 149.311061 
L 198.877091 149.845238 
L 199.08 152.536421 
L 199.384364 156.56051 
L 199.536545 156.177816 
L 199.587273 156.2358 
L 199.739455 157.200509 
L 200.145273 161.268086 
L 200.196 161.070941 
L 200.348182 160.67665 
L 200.449636 160.976717 
L 200.652545 162.88439 
L 200.956909 165.630658 
L 201.261273 167.130994 
L 201.312 166.983859 
L 201.920727 163.742554 
L 202.022182 163.981013 
L 202.225091 165.73068 
L 202.681636 171.466022 
L 202.732364 171.280474 
L 202.833818 170.198347 
L 203.594727 150.63527 
L 203.949818 150.072826 
L 204.254182 146.700331 
L 204.304909 146.81195 
L 204.406364 147.317136 
L 204.457091 147.278722 
L 204.507818 147.343229 
L 204.66 148.673237 
L 204.964364 154.702848 
L 205.573091 166.965014 
L 205.674545 165.833602 
L 206.080364 157.814414 
L 206.131091 157.832534 
L 206.486182 158.965397 
L 206.739818 162.271934 
L 207.196364 169.838122 
L 207.247091 169.277126 
L 207.652909 163.819382 
L 207.805091 161.751528 
L 208.160182 150.228658 
L 208.464545 141.963038 
L 208.667455 140.403269 
L 208.768909 140.884536 
L 208.971818 143.888107 
L 209.529818 153.511277 
L 209.631273 153.79105 
L 209.682 153.754085 
L 209.783455 153.854107 
L 209.986364 155.162371 
L 210.087818 155.637115 
L 210.138545 155.541442 
L 210.189273 155.400106 
L 210.392182 153.760608 
L 210.493636 154.113586 
L 210.696545 156.491654 
L 210.950182 159.977942 
L 211.000909 159.955474 
L 211.102364 160.14827 
L 211.305273 160.736083 
L 211.406727 159.663379 
L 211.660364 157.191811 
L 211.761818 157.601323 
L 211.964727 160.041 
L 212.269091 163.220698 
L 212.472 164.383277 
L 212.776364 168.117446 
L 212.928545 169.438757 
L 212.979273 169.369176 
L 213.03 169.432958 
L 213.182182 170.477395 
L 213.435818 172.32636 
L 213.486545 171.995126 
L 214.146 158.523269 
L 214.196727 158.713891 
L 214.856182 163.744728 
L 214.957636 163.496122 
L 215.160545 162.843802 
L 215.414182 159.801091 
L 216.530182 137.726582 
L 216.580909 137.686718 
L 216.682364 137.891837 
L 216.733091 137.843275 
L 216.834545 137.725133 
L 216.936 138.068688 
L 217.138909 140.630131 
L 217.899818 157.117157 
L 218.356364 165.332765 
L 218.660727 163.699066 
L 218.711455 163.789666 
L 218.863636 164.772494 
L 219.218727 169.547477 
L 219.320182 170.8224 
L 219.370909 170.775288 
L 219.827455 167.660822 
L 219.928909 167.999304 
L 220.030364 168.699461 
L 220.081091 168.569722 
L 220.284 166.983134 
L 221.095636 150.587434 
L 221.298545 150.034411 
L 221.349273 150.130085 
L 221.501455 151.364419 
L 221.958 159.025555 
L 222.668182 169.26263 
L 222.972545 173.035214 
L 223.834909 184.255118 
L 223.987091 184.62839 
L 224.139273 184.661731 
L 224.392909 184.018109 
L 224.798727 180.741288 
L 224.849455 180.767381 
L 225.001636 181.268942 
L 225.356727 183.734712 
L 226.219091 189.918706 
L 226.777091 192.359107 
L 227.030727 193.097678 
L 227.081455 192.928075 
L 227.284364 189.807086 
L 227.943818 178.551667 
L 228.096 178.076923 
L 228.248182 177.81672 
L 228.349636 178.047206 
L 228.552545 179.30256 
L 228.856909 181.697299 
L 228.907636 181.682078 
L 229.009091 181.665408 
L 229.110545 181.885022 
L 229.465636 183.178066 
L 229.617818 182.632291 
L 229.820727 182.069846 
L 229.922182 182.13073 
L 230.023636 182.335848 
L 230.328 180.042581 
L 230.429455 180.352795 
L 230.683091 182.253221 
L 231.444 188.751778 
L 231.596182 188.691619 
L 231.748364 188.674224 
L 231.900545 188.909059 
L 232.204909 190.002782 
L 232.762909 192.267782 
L 232.965818 191.903208 
L 233.270182 191.167536 
L 233.625273 189.551957 
L 233.777455 189.57515 
L 233.980364 190.114402 
L 234.234 191.155939 
L 234.284727 190.963867 
L 234.589091 189.730982 
L 234.690545 189.799838 
L 234.893455 190.397074 
L 234.944182 190.260811 
L 235.248545 188.546659 
L 235.35 188.636534 
L 235.502182 188.990962 
L 235.857273 187.964645 
L 236.009455 188.27051 
L 236.313818 189.754901 
L 236.516727 190.977638 
L 236.567455 190.89936 
L 236.821091 189.474403 
L 236.922545 189.478027 
L 237.074727 189.878842 
L 237.531273 192.147466 
L 237.582 192.001056 
L 238.596545 181.359542 
L 238.698 181.632792 
L 238.951636 183.507125 
L 239.154545 184.665355 
L 239.205273 184.617518 
L 239.458909 183.655709 
L 239.712545 182.534443 
L 239.814 182.805518 
L 240.067636 184.626941 
L 240.473455 187.952323 
L 240.625636 186.180912 
L 240.879273 183.574531 
L 241.234364 182.54459 
L 241.285091 182.584454 
L 241.437273 183.196186 
L 241.690909 184.99224 
L 241.741636 184.52257 
L 241.995273 181.980696 
L 242.096727 181.89227 
L 242.248909 182.521397 
L 242.604 185.745307 
L 242.806909 187.543536 
L 242.857636 187.433366 
L 243.415636 184.626941 
L 243.517091 184.613894 
L 243.669273 185.020507 
L 243.973636 186.870197 
L 244.937455 193.602864 
L 244.988182 193.570248 
L 245.394 192.443909 
L 245.546182 192.641779 
L 245.850545 193.406443 
L 246.053455 191.3886 
L 246.256364 186.704218 
L 246.560727 179.91719 
L 246.763636 178.148678 
L 246.865091 178.405258 
L 247.118727 180.564437 
L 247.575273 183.936206 
L 247.778182 183.791971 
L 248.031818 180.815218 
L 248.082545 180.773904 
L 248.133273 180.871752 
L 248.336182 182.195237 
L 248.995636 188.29153 
L 249.046364 188.259638 
L 249.198545 188.282107 
L 249.350727 188.476354 
L 249.655091 187.646458 
L 249.705818 187.668926 
L 249.858 188.039299 
L 250.060909 188.94095 
L 250.111636 188.927904 
L 250.365273 188.40025 
L 250.466727 188.54231 
L 250.517455 188.45316 
L 250.821818 187.355813 
L 250.923273 187.51237 
L 251.126182 188.408947 
L 251.532 190.639157 
L 251.582727 190.546382 
L 251.785636 190.24559 
L 251.937818 190.518115 
L 252.242182 191.880014 
L 252.850909 194.529883 
L 253.256727 194.226192 
L 253.307455 194.253734 
L 253.408909 193.72608 
L 253.713273 192.088757 
L 253.814727 192.074261 
L 253.966909 192.269232 
L 254.017636 192.228643 
L 254.169818 191.86117 
L 254.372727 190.275307 
L 255.082909 181.279814 
L 255.184364 181.095715 
L 255.285818 181.416077 
L 255.590182 183.002664 
L 255.640909 182.851906 
L 256.097455 181.445069 
L 256.300364 180.920314 
L 256.351091 180.939158 
L 256.503273 181.434197 
L 256.807636 183.77675 
L 257.467091 189.730258 
L 257.517818 189.72011 
L 257.720727 189.641832 
L 257.872909 190.034674 
L 258.075818 190.573925 
L 258.380182 190.653653 
L 258.583091 191.18783 
L 259.090364 193.512989 
L 259.597636 195.717106 
L 259.648364 195.641726 
L 259.902 193.972512 
L 260.46 185.820686 
L 260.865818 183.754282 
L 260.967273 183.592651 
L 261.068727 183.843432 
L 261.322364 185.642386 
L 261.880364 190.738454 
L 261.931091 190.438387 
L 262.134 189.641107 
L 262.235455 189.788242 
L 262.489091 190.992859 
L 262.844182 192.98461 
L 263.148545 191.173334 
L 263.25 191.261035 
L 263.452909 191.996707 
L 263.858727 194.085581 
L 263.909455 193.915253 
L 264.315273 189.233045 
L 264.416727 189.125774 
L 264.568909 189.499771 
L 264.924 191.540808 
L 265.431273 194.635704 
L 265.482 194.529883 
L 265.837091 193.264382 
L 265.938545 193.32599 
L 266.141455 193.827552 
L 266.851636 196.55425 
L 266.902364 196.420162 
L 267.257455 194.389272 
L 267.409636 194.336362 
L 267.511091 194.490019 
L 267.561818 194.434934 
L 267.916909 192.456955 
L 268.018364 192.514939 
L 268.221273 193.123046 
L 268.322727 193.3818 
L 268.373455 193.333963 
L 268.677818 192.882413 
L 268.83 193.112899 
L 269.134364 194.229091 
L 269.235818 194.584968 
L 269.286545 194.455229 
L 269.590909 193.241189 
L 269.743091 193.294824 
L 270.148909 191.141443 
L 270.301091 191.492246 
L 270.453273 191.890162 
L 270.808364 191.308147 
L 270.960545 191.626334 
L 271.315636 193.242638 
L 272.127273 196.996378 
L 272.228727 195.63013 
L 272.685273 188.07119 
L 272.837455 187.714589 
L 272.938909 187.923331 
L 273.192545 189.335966 
L 273.243273 189.626611 
L 273.294 189.37728 
L 273.801273 185.470608 
L 274.207091 177.423878 
L 274.257818 177.455045 
L 274.663636 179.172096 
L 274.968 182.305406 
L 275.526 188.351688 
L 275.728909 188.687995 
L 275.982545 189.753451 
L 277.2 196.355654 
L 277.250727 196.343333 
L 277.555091 193.456454 
L 277.707273 193.315118 
L 277.859455 193.605038 
L 278.163818 194.477698 
L 278.316 193.392672 
L 278.518909 190.854422 
L 278.823273 184.888594 
L 278.975455 184.352966 
L 279.076909 184.583453 
L 279.330545 186.301229 
L 279.432 186.849902 
L 279.736364 184.765378 
L 280.040727 180.202037 
L 280.243636 178.835064 
L 280.345091 179.170646 
L 280.598727 181.606699 
L 280.700182 182.432971 
L 281.004545 178.802448 
L 281.106 179.119186 
L 281.359636 181.601626 
L 281.917636 187.576152 
L 282.069818 187.69357 
L 282.272727 188.510419 
L 282.78 191.928576 
L 282.881455 191.629234 
L 283.084364 191.111002 
L 283.236545 191.26176 
L 283.287273 191.198702 
L 283.591636 190.523914 
L 283.794545 189.481651 
L 284.301818 183.879672 
L 284.352545 183.887645 
L 284.504727 184.479082 
L 284.859818 187.52759 
L 285.417818 192.506966 
L 285.468545 192.424339 
L 285.772909 191.639381 
L 285.874364 191.758973 
L 285.925091 191.67707 
L 286.330909 189.763598 
L 286.584545 187.957397 
L 286.686 187.984939 
L 286.838182 188.532163 
L 287.244 190.58987 
L 287.396182 188.570578 
L 287.599091 186.849178 
L 287.700545 186.779597 
L 287.802 186.991963 
L 287.903455 186.368635 
L 288.157091 184.68565 
L 288.258545 184.545038 
L 288.512182 182.446018 
L 288.664364 181.763981 
L 288.715091 181.774128 
L 288.867273 182.373538 
L 289.171636 185.077766 
L 290.084727 193.631856 
L 290.592 196.288973 
L 290.744182 196.797782 
L 290.794909 196.702834 
L 291.200727 194.918376 
L 291.302182 194.802408 
L 291.606545 191.039246 
L 291.708 190.91893 
L 291.860182 191.258861 
L 291.910909 191.143618 
L 292.215273 189.68532 
L 292.316727 189.826656 
L 292.570364 190.971115 
L 293.635636 196.632528 
L 294.142909 198.045888 
L 294.700909 198.940291 
L 295.056 199.291819 
L 295.157455 198.79823 
L 295.512545 196.559323 
L 295.664727 195.81133 
L 296.273455 192.496819 
L 296.425636 192.36708 
L 296.577818 192.647578 
L 296.882182 193.894958 
L 297.795273 197.85599 
L 297.846 197.85889 
L 298.404 195.289474 
L 298.860545 190.510867 
L 299.164909 187.000661 
L 299.570727 181.334899 
L 299.672182 181.072522 
L 299.722909 181.16892 
L 299.875091 182.108986 
L 300.280909 186.754954 
L 300.788182 191.785066 
L 301.041818 192.119198 
L 301.194 190.876891 
L 301.599818 186.339643 
L 301.802727 185.808365 
L 301.904182 186.020731 
L 302.157818 187.465258 
L 302.868 192.704112 
L 302.918727 192.665698 
L 303.070909 192.375053 
L 303.679636 187.394952 
L 303.933273 183.943454 
L 303.984 183.863002 
L 304.034727 183.92316 
L 304.186909 184.694347 
L 304.440545 186.735384 
L 304.643455 184.808141 
L 304.744909 185.058922 
L 304.998545 187.080389 
L 305.860909 194.534957 
L 306.368182 196.95144 
L 306.875455 198.309715 
L 307.281273 198.87361 
L 307.636364 195.061162 
L 307.788545 194.885035 
L 307.940727 195.137266 
L 308.397273 196.686163 
L 309.056727 198.629352 
L 309.614727 199.588987 
L 309.919091 199.901376 
L 310.426364 196.041816 
L 310.578545 196.157784 
L 310.730727 196.489742 
L 311.238 189.222173 
L 311.542364 187.91101 
L 311.643818 188.139322 
L 311.796 188.922106 
L 311.846727 188.773522 
L 312.201818 185.704718 
L 312.303273 184.897291 
L 312.506182 183.672379 
L 312.607636 183.891269 
L 312.810545 185.30173 
L 314.078727 196.108498 
L 314.586 198.034291 
L 315.093273 199.096848 
L 315.194727 199.222963 
L 315.600545 195.008251 
L 315.702 194.998829 
L 315.904909 195.442406 
L 316.462909 197.325437 
L 316.513636 197.029718 
L 316.818 195.164808 
L 316.970182 195.089429 
L 317.173091 195.486619 
L 317.629636 196.901429 
L 317.680364 196.711531 
L 317.984727 195.357605 
L 318.136909 195.342384 
L 318.339818 195.767117 
L 319.760182 199.765114 
L 319.861636 198.791707 
L 320.115273 196.436107 
L 320.318182 196.13459 
L 320.470364 196.364352 
L 320.926909 197.769014 
L 321.586364 199.556371 
L 322.144364 200.43193 
L 322.347273 200.638498 
L 322.448727 200.103595 
L 322.803818 197.650872 
L 322.956 197.477645 
L 323.108182 197.612458 
L 323.463273 198.435106 
L 324.122727 200.027491 
L 324.173455 199.936166 
L 324.63 196.928246 
L 324.782182 196.915925 
L 324.985091 197.291371 
L 325.289455 198.037915 
L 325.746 196.128792 
L 325.796727 196.143288 
L 325.999636 196.44263 
L 326.050364 196.360003 
L 326.405455 195.440232 
L 326.557636 195.593165 
L 326.862 196.51656 
L 327.825818 199.745544 
L 328.079455 200.171726 
L 328.536 198.024144 
L 328.992545 195.353981 
L 329.144727 195.366302 
L 329.347636 195.832349 
L 330.057818 198.357552 
L 330.108545 198.23651 
L 330.463636 196.820251 
L 330.615818 196.814453 
L 330.818727 197.164531 
L 331.072364 197.824099 
L 331.123091 197.770464 
L 331.579636 196.491192 
L 331.731818 196.655722 
L 332.036182 197.483443 
L 332.137636 197.775538 
L 332.188364 197.749445 
L 332.340545 197.168155 
L 332.492727 194.980709 
L 332.746364 192.647578 
L 333.101455 190.356485 
L 333.202909 190.552181 
L 333.456545 191.913355 
L 334.471091 198.124891 
L 334.674 198.851141 
L 335.536364 192.740352 
L 335.587091 192.792538 
L 335.79 193.502117 
L 335.942182 194.05079 
L 336.297273 192.695414 
L 336.449455 192.986059 
L 336.753818 194.384198 
L 337.565455 198.228538 
L 338.072727 199.59696 
L 338.174182 199.77816 
L 338.275636 199.09105 
L 338.58 196.744872 
L 338.782909 196.215768 
L 339.138 194.719781 
L 339.239455 194.729928 
L 339.340909 194.845896 
L 339.493091 194.21387 
L 339.746727 193.470226 
L 339.848182 193.532558 
L 340.051091 194.081957 
L 340.659818 196.805755 
L 340.710545 196.647024 
L 341.268545 191.656776 
L 341.420727 191.579222 
L 341.725091 191.232043 
L 341.877273 191.49877 
L 342.283091 192.695414 
L 342.435273 191.850298 
L 342.688909 189.638933 
L 342.993273 185.969995 
L 343.094727 185.71559 
L 343.145455 185.746032 
L 343.297636 186.318624 
L 343.551273 187.790693 
L 343.602 187.775472 
L 343.754182 187.78127 
L 343.906364 188.274859 
L 344.261455 190.732656 
L 344.565818 192.87589 
L 344.616545 192.860669 
L 344.718 192.13297 
L 345.022364 189.476578 
L 345.428182 186.880344 
L 345.681818 186.18961 
L 345.783273 186.409224 
L 346.036909 187.952323 
L 346.645636 192.27793 
L 346.95 192.65555 
L 347.254364 193.545605 
L 348.015273 187.407274 
L 348.116727 187.544986 
L 348.319636 188.382854 
L 348.776182 184.076093 
L 348.826909 184.018834 
L 348.877636 184.08479 
L 349.029818 184.834234 
L 349.587818 188.187883 
L 349.993636 189.984662 
L 350.044364 189.944798 
L 350.450182 187.892165 
L 350.551636 188.01683 
L 350.754545 188.842378 
L 351.363273 192.841099 
L 351.464727 192.362731 
L 351.769091 190.942123 
L 352.022727 190.026701 
L 352.124182 189.84985 
L 352.428545 188.963419 
L 352.53 189.119976 
L 352.682182 189.472229 
L 352.732909 189.452659 
L 352.935818 189.414245 
L 353.088 189.7578 
L 353.392364 191.234942 
L 354.254727 195.888158 
L 354.406909 195.24671 
L 354.609818 193.76232 
L 354.863455 192.065563 
L 355.117091 191.361782 
L 355.522909 187.263038 
L 355.624364 187.27391 
L 355.776545 187.813162 
L 356.182364 190.621762 
L 356.588182 193.544155 
L 356.638909 193.366579 
L 357.095455 188.46983 
L 357.399818 184.006512 
L 357.501273 183.769502 
L 357.552 183.825312 
L 357.704182 184.493578 
L 358.11 188.000885 
L 358.363636 189.597619 
L 358.515818 189.539635 
L 358.617273 189.617189 
L 358.668 189.53891 
L 358.921636 189.101131 
L 359.073818 189.39395 
L 359.378182 190.876166 
L 359.682545 192.725131 
L 359.733273 192.503342 
L 359.986909 190.91748 
L 360.088364 190.921829 
L 360.240545 191.363232 
L 360.646364 193.120147 
L 360.697091 192.987509 
L 360.950727 192.301123 
L 361.052182 192.340262 
L 361.255091 192.859944 
L 361.508727 193.924675 
L 361.559455 193.588368 
L 362.168182 182.471386 
L 362.269636 182.325701 
L 362.371091 182.638814 
L 362.624727 184.617518 
L 363.182727 190.257187 
L 363.233455 189.975965 
L 364.095818 173.30629 
L 364.248 174.063706 
L 364.298727 173.867285 
L 364.400182 173.657093 
L 364.501636 174.066605 
L 364.755273 176.973778 
L 365.566909 188.088586 
L 365.820545 186.54911 
L 366.226364 184.129728 
L 366.48 184.441392 
L 366.530727 184.411675 
L 366.885818 182.719992 
L 366.936545 182.788123 
L 367.088727 183.442618 
L 367.545273 186.899189 
L 367.646727 186.394728 
L 367.748182 186.180187 
L 367.798909 186.203381 
L 367.900364 185.993914 
L 368.154 185.39233 
L 368.306182 185.818512 
L 368.610545 187.775472 
L 369.523636 193.948594 
L 369.625091 193.081733 
L 369.828 191.509642 
L 369.929455 191.385701 
L 369.980182 191.421941 
L 370.183091 191.953944 
L 371.045455 195.35688 
L 371.502 188.100907 
L 371.755636 186.617966 
L 371.857091 186.622315 
L 372.009273 187.127501 
L 372.364364 189.454109 
L 373.125273 194.406667 
L 373.277455 194.837198 
L 373.581818 194.085581 
L 373.581818 194.085581 
" style="fill:none;stroke:#ff0000;stroke-linecap:square;stroke-width:1.5;"/>
   </g>
   <g id="line2d_17">
    <path clip-path="url(#p2928bf918a)" d="M 196.036364 70.8 
L 221.349273 70.8 
L 221.349273 70.8 
" style="fill:none;stroke:#000000;stroke-linecap:square;stroke-width:1.5;"/>
   </g>
   <g id="line2d_18">
    <path clip-path="url(#p2928bf918a)" d="M 196.036364 107.04 
L 196.036364 99.792 
L 196.036364 92.544 
L 196.036364 85.296 
L 196.036364 78.048 
" style="fill:none;stroke:#000000;stroke-linecap:square;stroke-width:1.5;"/>
   </g>
   <g id="patch_3">
    <path d="M 54 252 
L 54 34.56 
" style="fill:none;stroke:#000000;stroke-linecap:square;stroke-linejoin:miter;stroke-width:0.8;"/>
   </g>
   <g id="patch_4">
    <path d="M 54 252 
L 388.8 252 
" style="fill:none;stroke:#000000;stroke-linecap:square;stroke-linejoin:miter;stroke-width:0.8;"/>
   </g>
   <g id="text_17">
    <!-- 500 ms -->
    <g transform="translate(196.036364 63.552)scale(0.1 -0.1)">
     <use xlink:href="#DejaVuSans-35"/>
     <use x="63.623047" xlink:href="#DejaVuSans-30"/>
     <use x="127.246094" xlink:href="#DejaVuSans-30"/>
     <use x="190.869141" xlink:href="#DejaVuSans-20"/>
     <use x="222.65625" xlink:href="#DejaVuSans-6d"/>
     <use x="320.068359" xlink:href="#DejaVuSans-73"/>
    </g>
   </g>
   <g id="text_18">
    <!-- 5 mV -->
    <g transform="translate(198.572727 92.544)scale(0.1 -0.1)">
     <use xlink:href="#DejaVuSans-35"/>
     <use x="63.623047" xlink:href="#DejaVuSans-20"/>
     <use x="95.410156" xlink:href="#DejaVuSans-6d"/>
     <use x="192.822266" xlink:href="#DejaVuSans-56"/>
    </g>
   </g>
  </g>
 </g>
 <defs>
  <clipPath id="p2928bf918a">
   <rect height="217.44" width="334.8" x="54" y="34.56"/>
  </clipPath>
 </defs>
</svg>
