<?xml version="1.0" encoding="utf-8" standalone="no"?>
<!DOCTYPE svg PUBLIC "-//W3C//DTD SVG 1.1//EN"
  "http://www.w3.org/Graphics/SVG/1.1/DTD/svg11.dtd">
<!-- Created with matplotlib (https://matplotlib.org/) -->
<svg height="288pt" version="1.1" viewBox="0 0 432 288" width="432pt" xmlns="http://www.w3.org/2000/svg" xmlns:xlink="http://www.w3.org/1999/xlink">
 <metadata>
  <rdf:RDF xmlns:cc="http://creativecommons.org/ns#" xmlns:dc="http://purl.org/dc/elements/1.1/" xmlns:rdf="http://www.w3.org/1999/02/22-rdf-syntax-ns#">
   <cc:Work>
    <dc:type rdf:resource="http://purl.org/dc/dcmitype/StillImage"/>
    <dc:date>2022-06-28T13:22:47.717105</dc:date>
    <dc:format>image/svg+xml</dc:format>
    <dc:creator>
     <cc:Agent>
      <dc:title>Matplotlib v3.3.4, https://matplotlib.org/</dc:title>
     </cc:Agent>
    </dc:creator>
   </cc:Work>
  </rdf:RDF>
 </metadata>
 <defs>
  <style type="text/css">*{stroke-linecap:butt;stroke-linejoin:round;}</style>
 </defs>
 <g id="figure_1">
  <g id="patch_1">
   <path d="M 0 288 
L 432 288 
L 432 0 
L 0 0 
z
" style="fill:none;"/>
  </g>
  <g id="axes_1">
   <g id="patch_2">
    <path d="M 54 252 
L 388.8 252 
L 388.8 34.56 
L 54 34.56 
z
" style="fill:#ffffff;"/>
   </g>
   <g id="matplotlib.axis_1">
    <g id="xtick_1">
     <g id="line2d_1">
      <defs>
       <path d="M 0 0 
L 0 3.5 
" id="md68d144815" style="stroke:#000000;stroke-width:0.8;"/>
      </defs>
      <g>
       <use style="stroke:#000000;stroke-width:0.8;" x="69.218182" xlink:href="#md68d144815" y="252"/>
      </g>
     </g>
     <g id="text_1">
      <!-- 0 -->
      <g transform="translate(66.036932 266.598437)scale(0.1 -0.1)">
       <defs>
        <path d="M 31.78125 66.40625 
Q 24.171875 66.40625 20.328125 58.90625 
Q 16.5 51.421875 16.5 36.375 
Q 16.5 21.390625 20.328125 13.890625 
Q 24.171875 6.390625 31.78125 6.390625 
Q 39.453125 6.390625 43.28125 13.890625 
Q 47.125 21.390625 47.125 36.375 
Q 47.125 51.421875 43.28125 58.90625 
Q 39.453125 66.40625 31.78125 66.40625 
z
M 31.78125 74.21875 
Q 44.046875 74.21875 50.515625 64.515625 
Q 56.984375 54.828125 56.984375 36.375 
Q 56.984375 17.96875 50.515625 8.265625 
Q 44.046875 -1.421875 31.78125 -1.421875 
Q 19.53125 -1.421875 13.0625 8.265625 
Q 6.59375 17.96875 6.59375 36.375 
Q 6.59375 54.828125 13.0625 64.515625 
Q 19.53125 74.21875 31.78125 74.21875 
z
" id="DejaVuSans-48"/>
       </defs>
       <use xlink:href="#DejaVuSans-48"/>
      </g>
     </g>
    </g>
    <g id="xtick_2">
     <g id="line2d_2">
      <g>
       <use style="stroke:#000000;stroke-width:0.8;" x="119.945455" xlink:href="#md68d144815" y="252"/>
      </g>
     </g>
     <g id="text_2">
      <!-- 500 -->
      <g transform="translate(110.401705 266.598437)scale(0.1 -0.1)">
       <defs>
        <path d="M 10.796875 72.90625 
L 49.515625 72.90625 
L 49.515625 64.59375 
L 19.828125 64.59375 
L 19.828125 46.734375 
Q 21.96875 47.46875 24.109375 47.828125 
Q 26.265625 48.1875 28.421875 48.1875 
Q 40.625 48.1875 47.75 41.5 
Q 54.890625 34.8125 54.890625 23.390625 
Q 54.890625 11.625 47.5625 5.09375 
Q 40.234375 -1.421875 26.90625 -1.421875 
Q 22.3125 -1.421875 17.546875 -0.640625 
Q 12.796875 0.140625 7.71875 1.703125 
L 7.71875 11.625 
Q 12.109375 9.234375 16.796875 8.0625 
Q 21.484375 6.890625 26.703125 6.890625 
Q 35.15625 6.890625 40.078125 11.328125 
Q 45.015625 15.765625 45.015625 23.390625 
Q 45.015625 31 40.078125 35.4375 
Q 35.15625 39.890625 26.703125 39.890625 
Q 22.75 39.890625 18.8125 39.015625 
Q 14.890625 38.140625 10.796875 36.28125 
z
" id="DejaVuSans-53"/>
       </defs>
       <use xlink:href="#DejaVuSans-53"/>
       <use x="63.623047" xlink:href="#DejaVuSans-48"/>
       <use x="127.246094" xlink:href="#DejaVuSans-48"/>
      </g>
     </g>
    </g>
    <g id="xtick_3">
     <g id="line2d_3">
      <g>
       <use style="stroke:#000000;stroke-width:0.8;" x="170.672727" xlink:href="#md68d144815" y="252"/>
      </g>
     </g>
     <g id="text_3">
      <!-- 1000 -->
      <g transform="translate(157.947727 266.598437)scale(0.1 -0.1)">
       <defs>
        <path d="M 12.40625 8.296875 
L 28.515625 8.296875 
L 28.515625 63.921875 
L 10.984375 60.40625 
L 10.984375 69.390625 
L 28.421875 72.90625 
L 38.28125 72.90625 
L 38.28125 8.296875 
L 54.390625 8.296875 
L 54.390625 0 
L 12.40625 0 
z
" id="DejaVuSans-49"/>
       </defs>
       <use xlink:href="#DejaVuSans-49"/>
       <use x="63.623047" xlink:href="#DejaVuSans-48"/>
       <use x="127.246094" xlink:href="#DejaVuSans-48"/>
       <use x="190.869141" xlink:href="#DejaVuSans-48"/>
      </g>
     </g>
    </g>
    <g id="xtick_4">
     <g id="line2d_4">
      <g>
       <use style="stroke:#000000;stroke-width:0.8;" x="221.4" xlink:href="#md68d144815" y="252"/>
      </g>
     </g>
     <g id="text_4">
      <!-- 1500 -->
      <g transform="translate(208.675 266.598437)scale(0.1 -0.1)">
       <use xlink:href="#DejaVuSans-49"/>
       <use x="63.623047" xlink:href="#DejaVuSans-53"/>
       <use x="127.246094" xlink:href="#DejaVuSans-48"/>
       <use x="190.869141" xlink:href="#DejaVuSans-48"/>
      </g>
     </g>
    </g>
    <g id="xtick_5">
     <g id="line2d_5">
      <g>
       <use style="stroke:#000000;stroke-width:0.8;" x="272.127273" xlink:href="#md68d144815" y="252"/>
      </g>
     </g>
     <g id="text_5">
      <!-- 2000 -->
      <g transform="translate(259.402273 266.598437)scale(0.1 -0.1)">
       <defs>
        <path d="M 19.1875 8.296875 
L 53.609375 8.296875 
L 53.609375 0 
L 7.328125 0 
L 7.328125 8.296875 
Q 12.9375 14.109375 22.625 23.890625 
Q 32.328125 33.6875 34.8125 36.53125 
Q 39.546875 41.84375 41.421875 45.53125 
Q 43.3125 49.21875 43.3125 52.78125 
Q 43.3125 58.59375 39.234375 62.25 
Q 35.15625 65.921875 28.609375 65.921875 
Q 23.96875 65.921875 18.8125 64.3125 
Q 13.671875 62.703125 7.8125 59.421875 
L 7.8125 69.390625 
Q 13.765625 71.78125 18.9375 73 
Q 24.125 74.21875 28.421875 74.21875 
Q 39.75 74.21875 46.484375 68.546875 
Q 53.21875 62.890625 53.21875 53.421875 
Q 53.21875 48.921875 51.53125 44.890625 
Q 49.859375 40.875 45.40625 35.40625 
Q 44.1875 33.984375 37.640625 27.21875 
Q 31.109375 20.453125 19.1875 8.296875 
z
" id="DejaVuSans-50"/>
       </defs>
       <use xlink:href="#DejaVuSans-50"/>
       <use x="63.623047" xlink:href="#DejaVuSans-48"/>
       <use x="127.246094" xlink:href="#DejaVuSans-48"/>
       <use x="190.869141" xlink:href="#DejaVuSans-48"/>
      </g>
     </g>
    </g>
    <g id="xtick_6">
     <g id="line2d_6">
      <g>
       <use style="stroke:#000000;stroke-width:0.8;" x="322.854545" xlink:href="#md68d144815" y="252"/>
      </g>
     </g>
     <g id="text_6">
      <!-- 2500 -->
      <g transform="translate(310.129545 266.598437)scale(0.1 -0.1)">
       <use xlink:href="#DejaVuSans-50"/>
       <use x="63.623047" xlink:href="#DejaVuSans-53"/>
       <use x="127.246094" xlink:href="#DejaVuSans-48"/>
       <use x="190.869141" xlink:href="#DejaVuSans-48"/>
      </g>
     </g>
    </g>
    <g id="xtick_7">
     <g id="line2d_7">
      <g>
       <use style="stroke:#000000;stroke-width:0.8;" x="373.581818" xlink:href="#md68d144815" y="252"/>
      </g>
     </g>
     <g id="text_7">
      <!-- 3000 -->
      <g transform="translate(360.856818 266.598437)scale(0.1 -0.1)">
       <defs>
        <path d="M 40.578125 39.3125 
Q 47.65625 37.796875 51.625 33 
Q 55.609375 28.21875 55.609375 21.1875 
Q 55.609375 10.40625 48.1875 4.484375 
Q 40.765625 -1.421875 27.09375 -1.421875 
Q 22.515625 -1.421875 17.65625 -0.515625 
Q 12.796875 0.390625 7.625 2.203125 
L 7.625 11.71875 
Q 11.71875 9.328125 16.59375 8.109375 
Q 21.484375 6.890625 26.8125 6.890625 
Q 36.078125 6.890625 40.9375 10.546875 
Q 45.796875 14.203125 45.796875 21.1875 
Q 45.796875 27.640625 41.28125 31.265625 
Q 36.765625 34.90625 28.71875 34.90625 
L 20.21875 34.90625 
L 20.21875 43.015625 
L 29.109375 43.015625 
Q 36.375 43.015625 40.234375 45.921875 
Q 44.09375 48.828125 44.09375 54.296875 
Q 44.09375 59.90625 40.109375 62.90625 
Q 36.140625 65.921875 28.71875 65.921875 
Q 24.65625 65.921875 20.015625 65.03125 
Q 15.375 64.15625 9.8125 62.3125 
L 9.8125 71.09375 
Q 15.4375 72.65625 20.34375 73.4375 
Q 25.25 74.21875 29.59375 74.21875 
Q 40.828125 74.21875 47.359375 69.109375 
Q 53.90625 64.015625 53.90625 55.328125 
Q 53.90625 49.265625 50.4375 45.09375 
Q 46.96875 40.921875 40.578125 39.3125 
z
" id="DejaVuSans-51"/>
       </defs>
       <use xlink:href="#DejaVuSans-51"/>
       <use x="63.623047" xlink:href="#DejaVuSans-48"/>
       <use x="127.246094" xlink:href="#DejaVuSans-48"/>
       <use x="190.869141" xlink:href="#DejaVuSans-48"/>
      </g>
     </g>
    </g>
    <g id="text_8">
     <!-- Time(ms) -->
     <g transform="translate(197.789844 280.276563)scale(0.1 -0.1)">
      <defs>
       <path d="M -0.296875 72.90625 
L 61.375 72.90625 
L 61.375 64.59375 
L 35.5 64.59375 
L 35.5 0 
L 25.59375 0 
L 25.59375 64.59375 
L -0.296875 64.59375 
z
" id="DejaVuSans-84"/>
       <path d="M 9.421875 54.6875 
L 18.40625 54.6875 
L 18.40625 0 
L 9.421875 0 
z
M 9.421875 75.984375 
L 18.40625 75.984375 
L 18.40625 64.59375 
L 9.421875 64.59375 
z
" id="DejaVuSans-105"/>
       <path d="M 52 44.1875 
Q 55.375 50.25 60.0625 53.125 
Q 64.75 56 71.09375 56 
Q 79.640625 56 84.28125 50.015625 
Q 88.921875 44.046875 88.921875 33.015625 
L 88.921875 0 
L 79.890625 0 
L 79.890625 32.71875 
Q 79.890625 40.578125 77.09375 44.375 
Q 74.3125 48.1875 68.609375 48.1875 
Q 61.625 48.1875 57.5625 43.546875 
Q 53.515625 38.921875 53.515625 30.90625 
L 53.515625 0 
L 44.484375 0 
L 44.484375 32.71875 
Q 44.484375 40.625 41.703125 44.40625 
Q 38.921875 48.1875 33.109375 48.1875 
Q 26.21875 48.1875 22.15625 43.53125 
Q 18.109375 38.875 18.109375 30.90625 
L 18.109375 0 
L 9.078125 0 
L 9.078125 54.6875 
L 18.109375 54.6875 
L 18.109375 46.1875 
Q 21.1875 51.21875 25.484375 53.609375 
Q 29.78125 56 35.6875 56 
Q 41.65625 56 45.828125 52.96875 
Q 50 49.953125 52 44.1875 
z
" id="DejaVuSans-109"/>
       <path d="M 56.203125 29.59375 
L 56.203125 25.203125 
L 14.890625 25.203125 
Q 15.484375 15.921875 20.484375 11.0625 
Q 25.484375 6.203125 34.421875 6.203125 
Q 39.59375 6.203125 44.453125 7.46875 
Q 49.3125 8.734375 54.109375 11.28125 
L 54.109375 2.78125 
Q 49.265625 0.734375 44.1875 -0.34375 
Q 39.109375 -1.421875 33.890625 -1.421875 
Q 20.796875 -1.421875 13.15625 6.1875 
Q 5.515625 13.8125 5.515625 26.8125 
Q 5.515625 40.234375 12.765625 48.109375 
Q 20.015625 56 32.328125 56 
Q 43.359375 56 49.78125 48.890625 
Q 56.203125 41.796875 56.203125 29.59375 
z
M 47.21875 32.234375 
Q 47.125 39.59375 43.09375 43.984375 
Q 39.0625 48.390625 32.421875 48.390625 
Q 24.90625 48.390625 20.390625 44.140625 
Q 15.875 39.890625 15.1875 32.171875 
z
" id="DejaVuSans-101"/>
       <path d="M 31 75.875 
Q 24.46875 64.65625 21.28125 53.65625 
Q 18.109375 42.671875 18.109375 31.390625 
Q 18.109375 20.125 21.3125 9.0625 
Q 24.515625 -2 31 -13.1875 
L 23.1875 -13.1875 
Q 15.875 -1.703125 12.234375 9.375 
Q 8.59375 20.453125 8.59375 31.390625 
Q 8.59375 42.28125 12.203125 53.3125 
Q 15.828125 64.359375 23.1875 75.875 
z
" id="DejaVuSans-40"/>
       <path d="M 44.28125 53.078125 
L 44.28125 44.578125 
Q 40.484375 46.53125 36.375 47.5 
Q 32.28125 48.484375 27.875 48.484375 
Q 21.1875 48.484375 17.84375 46.4375 
Q 14.5 44.390625 14.5 40.28125 
Q 14.5 37.15625 16.890625 35.375 
Q 19.28125 33.59375 26.515625 31.984375 
L 29.59375 31.296875 
Q 39.15625 29.25 43.1875 25.515625 
Q 47.21875 21.78125 47.21875 15.09375 
Q 47.21875 7.46875 41.1875 3.015625 
Q 35.15625 -1.421875 24.609375 -1.421875 
Q 20.21875 -1.421875 15.453125 -0.5625 
Q 10.6875 0.296875 5.421875 2 
L 5.421875 11.28125 
Q 10.40625 8.6875 15.234375 7.390625 
Q 20.0625 6.109375 24.8125 6.109375 
Q 31.15625 6.109375 34.5625 8.28125 
Q 37.984375 10.453125 37.984375 14.40625 
Q 37.984375 18.0625 35.515625 20.015625 
Q 33.0625 21.96875 24.703125 23.78125 
L 21.578125 24.515625 
Q 13.234375 26.265625 9.515625 29.90625 
Q 5.8125 33.546875 5.8125 39.890625 
Q 5.8125 47.609375 11.28125 51.796875 
Q 16.75 56 26.8125 56 
Q 31.78125 56 36.171875 55.265625 
Q 40.578125 54.546875 44.28125 53.078125 
z
" id="DejaVuSans-115"/>
       <path d="M 8.015625 75.875 
L 15.828125 75.875 
Q 23.140625 64.359375 26.78125 53.3125 
Q 30.421875 42.28125 30.421875 31.390625 
Q 30.421875 20.453125 26.78125 9.375 
Q 23.140625 -1.703125 15.828125 -13.1875 
L 8.015625 -13.1875 
Q 14.5 -2 17.703125 9.0625 
Q 20.90625 20.125 20.90625 31.390625 
Q 20.90625 42.671875 17.703125 53.65625 
Q 14.5 64.65625 8.015625 75.875 
z
" id="DejaVuSans-41"/>
      </defs>
      <use xlink:href="#DejaVuSans-84"/>
      <use x="57.958984" xlink:href="#DejaVuSans-105"/>
      <use x="85.742188" xlink:href="#DejaVuSans-109"/>
      <use x="183.154297" xlink:href="#DejaVuSans-101"/>
      <use x="244.677734" xlink:href="#DejaVuSans-40"/>
      <use x="283.691406" xlink:href="#DejaVuSans-109"/>
      <use x="381.103516" xlink:href="#DejaVuSans-115"/>
      <use x="433.203125" xlink:href="#DejaVuSans-41"/>
     </g>
    </g>
   </g>
   <g id="matplotlib.axis_2">
    <g id="ytick_1">
     <g id="line2d_8">
      <defs>
       <path d="M 0 0 
L -3.5 0 
" id="m61341e53a0" style="stroke:#000000;stroke-width:0.8;"/>
      </defs>
      <g>
       <use style="stroke:#000000;stroke-width:0.8;" x="54" xlink:href="#m61341e53a0" y="252"/>
      </g>
     </g>
     <g id="text_9">
      <!-- −100 -->
      <g transform="translate(19.532812 255.799219)scale(0.1 -0.1)">
       <defs>
        <path d="M 10.59375 35.5 
L 73.1875 35.5 
L 73.1875 27.203125 
L 10.59375 27.203125 
z
" id="DejaVuSans-8722"/>
       </defs>
       <use xlink:href="#DejaVuSans-8722"/>
       <use x="83.789062" xlink:href="#DejaVuSans-49"/>
       <use x="147.412109" xlink:href="#DejaVuSans-48"/>
       <use x="211.035156" xlink:href="#DejaVuSans-48"/>
      </g>
     </g>
    </g>
    <g id="ytick_2">
     <g id="line2d_9">
      <g>
       <use style="stroke:#000000;stroke-width:0.8;" x="54" xlink:href="#m61341e53a0" y="208.512"/>
      </g>
     </g>
     <g id="text_10">
      <!-- −90 -->
      <g transform="translate(25.895312 212.311219)scale(0.1 -0.1)">
       <defs>
        <path d="M 10.984375 1.515625 
L 10.984375 10.5 
Q 14.703125 8.734375 18.5 7.8125 
Q 22.3125 6.890625 25.984375 6.890625 
Q 35.75 6.890625 40.890625 13.453125 
Q 46.046875 20.015625 46.78125 33.40625 
Q 43.953125 29.203125 39.59375 26.953125 
Q 35.25 24.703125 29.984375 24.703125 
Q 19.046875 24.703125 12.671875 31.3125 
Q 6.296875 37.9375 6.296875 49.421875 
Q 6.296875 60.640625 12.9375 67.421875 
Q 19.578125 74.21875 30.609375 74.21875 
Q 43.265625 74.21875 49.921875 64.515625 
Q 56.59375 54.828125 56.59375 36.375 
Q 56.59375 19.140625 48.40625 8.859375 
Q 40.234375 -1.421875 26.421875 -1.421875 
Q 22.703125 -1.421875 18.890625 -0.6875 
Q 15.09375 0.046875 10.984375 1.515625 
z
M 30.609375 32.421875 
Q 37.25 32.421875 41.125 36.953125 
Q 45.015625 41.5 45.015625 49.421875 
Q 45.015625 57.28125 41.125 61.84375 
Q 37.25 66.40625 30.609375 66.40625 
Q 23.96875 66.40625 20.09375 61.84375 
Q 16.21875 57.28125 16.21875 49.421875 
Q 16.21875 41.5 20.09375 36.953125 
Q 23.96875 32.421875 30.609375 32.421875 
z
" id="DejaVuSans-57"/>
       </defs>
       <use xlink:href="#DejaVuSans-8722"/>
       <use x="83.789062" xlink:href="#DejaVuSans-57"/>
       <use x="147.412109" xlink:href="#DejaVuSans-48"/>
      </g>
     </g>
    </g>
    <g id="ytick_3">
     <g id="line2d_10">
      <g>
       <use style="stroke:#000000;stroke-width:0.8;" x="54" xlink:href="#m61341e53a0" y="165.024"/>
      </g>
     </g>
     <g id="text_11">
      <!-- −80 -->
      <g transform="translate(25.895312 168.823219)scale(0.1 -0.1)">
       <defs>
        <path d="M 31.78125 34.625 
Q 24.75 34.625 20.71875 30.859375 
Q 16.703125 27.09375 16.703125 20.515625 
Q 16.703125 13.921875 20.71875 10.15625 
Q 24.75 6.390625 31.78125 6.390625 
Q 38.8125 6.390625 42.859375 10.171875 
Q 46.921875 13.96875 46.921875 20.515625 
Q 46.921875 27.09375 42.890625 30.859375 
Q 38.875 34.625 31.78125 34.625 
z
M 21.921875 38.8125 
Q 15.578125 40.375 12.03125 44.71875 
Q 8.5 49.078125 8.5 55.328125 
Q 8.5 64.0625 14.71875 69.140625 
Q 20.953125 74.21875 31.78125 74.21875 
Q 42.671875 74.21875 48.875 69.140625 
Q 55.078125 64.0625 55.078125 55.328125 
Q 55.078125 49.078125 51.53125 44.71875 
Q 48 40.375 41.703125 38.8125 
Q 48.828125 37.15625 52.796875 32.3125 
Q 56.78125 27.484375 56.78125 20.515625 
Q 56.78125 9.90625 50.3125 4.234375 
Q 43.84375 -1.421875 31.78125 -1.421875 
Q 19.734375 -1.421875 13.25 4.234375 
Q 6.78125 9.90625 6.78125 20.515625 
Q 6.78125 27.484375 10.78125 32.3125 
Q 14.796875 37.15625 21.921875 38.8125 
z
M 18.3125 54.390625 
Q 18.3125 48.734375 21.84375 45.5625 
Q 25.390625 42.390625 31.78125 42.390625 
Q 38.140625 42.390625 41.71875 45.5625 
Q 45.3125 48.734375 45.3125 54.390625 
Q 45.3125 60.0625 41.71875 63.234375 
Q 38.140625 66.40625 31.78125 66.40625 
Q 25.390625 66.40625 21.84375 63.234375 
Q 18.3125 60.0625 18.3125 54.390625 
z
" id="DejaVuSans-56"/>
       </defs>
       <use xlink:href="#DejaVuSans-8722"/>
       <use x="83.789062" xlink:href="#DejaVuSans-56"/>
       <use x="147.412109" xlink:href="#DejaVuSans-48"/>
      </g>
     </g>
    </g>
    <g id="ytick_4">
     <g id="line2d_11">
      <g>
       <use style="stroke:#000000;stroke-width:0.8;" x="54" xlink:href="#m61341e53a0" y="121.536"/>
      </g>
     </g>
     <g id="text_12">
      <!-- −70 -->
      <g transform="translate(25.895312 125.335219)scale(0.1 -0.1)">
       <defs>
        <path d="M 8.203125 72.90625 
L 55.078125 72.90625 
L 55.078125 68.703125 
L 28.609375 0 
L 18.3125 0 
L 43.21875 64.59375 
L 8.203125 64.59375 
z
" id="DejaVuSans-55"/>
       </defs>
       <use xlink:href="#DejaVuSans-8722"/>
       <use x="83.789062" xlink:href="#DejaVuSans-55"/>
       <use x="147.412109" xlink:href="#DejaVuSans-48"/>
      </g>
     </g>
    </g>
    <g id="ytick_5">
     <g id="line2d_12">
      <g>
       <use style="stroke:#000000;stroke-width:0.8;" x="54" xlink:href="#m61341e53a0" y="78.048"/>
      </g>
     </g>
     <g id="text_13">
      <!-- −60 -->
      <g transform="translate(25.895312 81.847219)scale(0.1 -0.1)">
       <defs>
        <path d="M 33.015625 40.375 
Q 26.375 40.375 22.484375 35.828125 
Q 18.609375 31.296875 18.609375 23.390625 
Q 18.609375 15.53125 22.484375 10.953125 
Q 26.375 6.390625 33.015625 6.390625 
Q 39.65625 6.390625 43.53125 10.953125 
Q 47.40625 15.53125 47.40625 23.390625 
Q 47.40625 31.296875 43.53125 35.828125 
Q 39.65625 40.375 33.015625 40.375 
z
M 52.59375 71.296875 
L 52.59375 62.3125 
Q 48.875 64.0625 45.09375 64.984375 
Q 41.3125 65.921875 37.59375 65.921875 
Q 27.828125 65.921875 22.671875 59.328125 
Q 17.53125 52.734375 16.796875 39.40625 
Q 19.671875 43.65625 24.015625 45.921875 
Q 28.375 48.1875 33.59375 48.1875 
Q 44.578125 48.1875 50.953125 41.515625 
Q 57.328125 34.859375 57.328125 23.390625 
Q 57.328125 12.15625 50.6875 5.359375 
Q 44.046875 -1.421875 33.015625 -1.421875 
Q 20.359375 -1.421875 13.671875 8.265625 
Q 6.984375 17.96875 6.984375 36.375 
Q 6.984375 53.65625 15.1875 63.9375 
Q 23.390625 74.21875 37.203125 74.21875 
Q 40.921875 74.21875 44.703125 73.484375 
Q 48.484375 72.75 52.59375 71.296875 
z
" id="DejaVuSans-54"/>
       </defs>
       <use xlink:href="#DejaVuSans-8722"/>
       <use x="83.789062" xlink:href="#DejaVuSans-54"/>
       <use x="147.412109" xlink:href="#DejaVuSans-48"/>
      </g>
     </g>
    </g>
    <g id="ytick_6">
     <g id="line2d_13">
      <g>
       <use style="stroke:#000000;stroke-width:0.8;" x="54" xlink:href="#m61341e53a0" y="34.56"/>
      </g>
     </g>
     <g id="text_14">
      <!-- −50 -->
      <g transform="translate(25.895312 38.359219)scale(0.1 -0.1)">
       <use xlink:href="#DejaVuSans-8722"/>
       <use x="83.789062" xlink:href="#DejaVuSans-53"/>
       <use x="147.412109" xlink:href="#DejaVuSans-48"/>
      </g>
     </g>
    </g>
    <g id="text_15">
     <!-- Membrane potential (mV) -->
     <g transform="translate(13.453125 207.691719)rotate(-90)scale(0.1 -0.1)">
      <defs>
       <path d="M 9.8125 72.90625 
L 24.515625 72.90625 
L 43.109375 23.296875 
L 61.8125 72.90625 
L 76.515625 72.90625 
L 76.515625 0 
L 66.890625 0 
L 66.890625 64.015625 
L 48.09375 14.015625 
L 38.1875 14.015625 
L 19.390625 64.015625 
L 19.390625 0 
L 9.8125 0 
z
" id="DejaVuSans-77"/>
       <path d="M 48.6875 27.296875 
Q 48.6875 37.203125 44.609375 42.84375 
Q 40.53125 48.484375 33.40625 48.484375 
Q 26.265625 48.484375 22.1875 42.84375 
Q 18.109375 37.203125 18.109375 27.296875 
Q 18.109375 17.390625 22.1875 11.75 
Q 26.265625 6.109375 33.40625 6.109375 
Q 40.53125 6.109375 44.609375 11.75 
Q 48.6875 17.390625 48.6875 27.296875 
z
M 18.109375 46.390625 
Q 20.953125 51.265625 25.265625 53.625 
Q 29.59375 56 35.59375 56 
Q 45.5625 56 51.78125 48.09375 
Q 58.015625 40.1875 58.015625 27.296875 
Q 58.015625 14.40625 51.78125 6.484375 
Q 45.5625 -1.421875 35.59375 -1.421875 
Q 29.59375 -1.421875 25.265625 0.953125 
Q 20.953125 3.328125 18.109375 8.203125 
L 18.109375 0 
L 9.078125 0 
L 9.078125 75.984375 
L 18.109375 75.984375 
z
" id="DejaVuSans-98"/>
       <path d="M 41.109375 46.296875 
Q 39.59375 47.171875 37.8125 47.578125 
Q 36.03125 48 33.890625 48 
Q 26.265625 48 22.1875 43.046875 
Q 18.109375 38.09375 18.109375 28.8125 
L 18.109375 0 
L 9.078125 0 
L 9.078125 54.6875 
L 18.109375 54.6875 
L 18.109375 46.1875 
Q 20.953125 51.171875 25.484375 53.578125 
Q 30.03125 56 36.53125 56 
Q 37.453125 56 38.578125 55.875 
Q 39.703125 55.765625 41.0625 55.515625 
z
" id="DejaVuSans-114"/>
       <path d="M 34.28125 27.484375 
Q 23.390625 27.484375 19.1875 25 
Q 14.984375 22.515625 14.984375 16.5 
Q 14.984375 11.71875 18.140625 8.90625 
Q 21.296875 6.109375 26.703125 6.109375 
Q 34.1875 6.109375 38.703125 11.40625 
Q 43.21875 16.703125 43.21875 25.484375 
L 43.21875 27.484375 
z
M 52.203125 31.203125 
L 52.203125 0 
L 43.21875 0 
L 43.21875 8.296875 
Q 40.140625 3.328125 35.546875 0.953125 
Q 30.953125 -1.421875 24.3125 -1.421875 
Q 15.921875 -1.421875 10.953125 3.296875 
Q 6 8.015625 6 15.921875 
Q 6 25.140625 12.171875 29.828125 
Q 18.359375 34.515625 30.609375 34.515625 
L 43.21875 34.515625 
L 43.21875 35.40625 
Q 43.21875 41.609375 39.140625 45 
Q 35.0625 48.390625 27.6875 48.390625 
Q 23 48.390625 18.546875 47.265625 
Q 14.109375 46.140625 10.015625 43.890625 
L 10.015625 52.203125 
Q 14.9375 54.109375 19.578125 55.046875 
Q 24.21875 56 28.609375 56 
Q 40.484375 56 46.34375 49.84375 
Q 52.203125 43.703125 52.203125 31.203125 
z
" id="DejaVuSans-97"/>
       <path d="M 54.890625 33.015625 
L 54.890625 0 
L 45.90625 0 
L 45.90625 32.71875 
Q 45.90625 40.484375 42.875 44.328125 
Q 39.84375 48.1875 33.796875 48.1875 
Q 26.515625 48.1875 22.3125 43.546875 
Q 18.109375 38.921875 18.109375 30.90625 
L 18.109375 0 
L 9.078125 0 
L 9.078125 54.6875 
L 18.109375 54.6875 
L 18.109375 46.1875 
Q 21.34375 51.125 25.703125 53.5625 
Q 30.078125 56 35.796875 56 
Q 45.21875 56 50.046875 50.171875 
Q 54.890625 44.34375 54.890625 33.015625 
z
" id="DejaVuSans-110"/>
       <path id="DejaVuSans-32"/>
       <path d="M 18.109375 8.203125 
L 18.109375 -20.796875 
L 9.078125 -20.796875 
L 9.078125 54.6875 
L 18.109375 54.6875 
L 18.109375 46.390625 
Q 20.953125 51.265625 25.265625 53.625 
Q 29.59375 56 35.59375 56 
Q 45.5625 56 51.78125 48.09375 
Q 58.015625 40.1875 58.015625 27.296875 
Q 58.015625 14.40625 51.78125 6.484375 
Q 45.5625 -1.421875 35.59375 -1.421875 
Q 29.59375 -1.421875 25.265625 0.953125 
Q 20.953125 3.328125 18.109375 8.203125 
z
M 48.6875 27.296875 
Q 48.6875 37.203125 44.609375 42.84375 
Q 40.53125 48.484375 33.40625 48.484375 
Q 26.265625 48.484375 22.1875 42.84375 
Q 18.109375 37.203125 18.109375 27.296875 
Q 18.109375 17.390625 22.1875 11.75 
Q 26.265625 6.109375 33.40625 6.109375 
Q 40.53125 6.109375 44.609375 11.75 
Q 48.6875 17.390625 48.6875 27.296875 
z
" id="DejaVuSans-112"/>
       <path d="M 30.609375 48.390625 
Q 23.390625 48.390625 19.1875 42.75 
Q 14.984375 37.109375 14.984375 27.296875 
Q 14.984375 17.484375 19.15625 11.84375 
Q 23.34375 6.203125 30.609375 6.203125 
Q 37.796875 6.203125 41.984375 11.859375 
Q 46.1875 17.53125 46.1875 27.296875 
Q 46.1875 37.015625 41.984375 42.703125 
Q 37.796875 48.390625 30.609375 48.390625 
z
M 30.609375 56 
Q 42.328125 56 49.015625 48.375 
Q 55.71875 40.765625 55.71875 27.296875 
Q 55.71875 13.875 49.015625 6.21875 
Q 42.328125 -1.421875 30.609375 -1.421875 
Q 18.84375 -1.421875 12.171875 6.21875 
Q 5.515625 13.875 5.515625 27.296875 
Q 5.515625 40.765625 12.171875 48.375 
Q 18.84375 56 30.609375 56 
z
" id="DejaVuSans-111"/>
       <path d="M 18.3125 70.21875 
L 18.3125 54.6875 
L 36.8125 54.6875 
L 36.8125 47.703125 
L 18.3125 47.703125 
L 18.3125 18.015625 
Q 18.3125 11.328125 20.140625 9.421875 
Q 21.96875 7.515625 27.59375 7.515625 
L 36.8125 7.515625 
L 36.8125 0 
L 27.59375 0 
Q 17.1875 0 13.234375 3.875 
Q 9.28125 7.765625 9.28125 18.015625 
L 9.28125 47.703125 
L 2.6875 47.703125 
L 2.6875 54.6875 
L 9.28125 54.6875 
L 9.28125 70.21875 
z
" id="DejaVuSans-116"/>
       <path d="M 9.421875 75.984375 
L 18.40625 75.984375 
L 18.40625 0 
L 9.421875 0 
z
" id="DejaVuSans-108"/>
       <path d="M 28.609375 0 
L 0.78125 72.90625 
L 11.078125 72.90625 
L 34.1875 11.53125 
L 57.328125 72.90625 
L 67.578125 72.90625 
L 39.796875 0 
z
" id="DejaVuSans-86"/>
      </defs>
      <use xlink:href="#DejaVuSans-77"/>
      <use x="86.279297" xlink:href="#DejaVuSans-101"/>
      <use x="147.802734" xlink:href="#DejaVuSans-109"/>
      <use x="245.214844" xlink:href="#DejaVuSans-98"/>
      <use x="308.691406" xlink:href="#DejaVuSans-114"/>
      <use x="349.804688" xlink:href="#DejaVuSans-97"/>
      <use x="411.083984" xlink:href="#DejaVuSans-110"/>
      <use x="474.462891" xlink:href="#DejaVuSans-101"/>
      <use x="535.986328" xlink:href="#DejaVuSans-32"/>
      <use x="567.773438" xlink:href="#DejaVuSans-112"/>
      <use x="631.25" xlink:href="#DejaVuSans-111"/>
      <use x="692.431641" xlink:href="#DejaVuSans-116"/>
      <use x="731.640625" xlink:href="#DejaVuSans-101"/>
      <use x="793.164062" xlink:href="#DejaVuSans-110"/>
      <use x="856.542969" xlink:href="#DejaVuSans-116"/>
      <use x="895.751953" xlink:href="#DejaVuSans-105"/>
      <use x="923.535156" xlink:href="#DejaVuSans-97"/>
      <use x="984.814453" xlink:href="#DejaVuSans-108"/>
      <use x="1012.597656" xlink:href="#DejaVuSans-32"/>
      <use x="1044.384766" xlink:href="#DejaVuSans-40"/>
      <use x="1083.398438" xlink:href="#DejaVuSans-109"/>
      <use x="1180.810547" xlink:href="#DejaVuSans-86"/>
      <use x="1249.21875" xlink:href="#DejaVuSans-41"/>
     </g>
    </g>
   </g>
   <g id="line2d_14">
    <path clip-path="url(#pa2a7931467)" d="M 69.218182 195.4656 
L 69.522545 211.895561 
L 69.928364 222.950851 
L 70.334182 228.579984 
L 70.689273 230.999539 
L 70.74 230.993743 
L 71.247273 229.730532 
L 71.450182 229.968616 
L 71.805273 230.66243 
L 71.856 230.547245 
L 72.261818 229.254709 
L 72.414 229.294127 
L 72.667636 229.758541 
L 73.124182 230.880837 
L 73.174909 230.812952 
L 73.682182 229.589238 
L 73.834364 229.699015 
L 74.138727 230.285401 
L 74.646 231.437156 
L 74.747455 230.973426 
L 75.457636 226.549989 
L 75.711273 225.515005 
L 75.812727 225.497834 
L 75.964909 225.792054 
L 76.624364 227.584438 
L 76.827273 227.720667 
L 77.080909 228.271976 
L 78.552 232.151675 
L 79.059273 232.705638 
L 79.668 233.037237 
L 80.530364 233.224474 
L 82.153636 233.32926 
L 82.204364 233.264797 
L 82.458 231.476713 
L 83.117455 228.009885 
L 83.269636 228.013557 
L 83.472545 228.337639 
L 84.030545 223.031977 
L 84.182727 223.39486 
L 84.537818 225.366111 
L 84.892909 227.23826 
L 85.248 226.362467 
L 85.400182 226.60588 
L 85.755273 227.919339 
L 86.110364 229.323228 
L 86.161091 229.183638 
L 86.516182 227.656787 
L 86.566909 227.601851 
L 86.769818 226.179688 
L 86.972727 225.412507 
L 87.074182 225.440089 
L 87.277091 225.985831 
L 87.835091 228.092973 
L 87.885818 228.067898 
L 88.139455 227.93192 
L 88.342364 228.144517 
L 88.545273 228.592279 
L 88.596 228.546494 
L 88.951091 225.706355 
L 89.204727 223.387496 
L 89.306182 223.290142 
L 89.458364 223.657545 
L 89.661273 224.345642 
L 89.712 224.251535 
L 89.914909 223.926282 
L 90.067091 224.192944 
L 90.219273 224.649686 
L 90.523636 222.823216 
L 90.625091 222.939802 
L 90.828 223.787512 
L 91.132364 225.444228 
L 91.183091 225.418348 
L 91.436727 225.050009 
L 91.588909 225.324441 
L 91.944 226.796035 
L 92.704909 229.951918 
L 93.212182 231.180725 
L 93.719455 231.868489 
L 93.871636 231.983762 
L 93.973091 231.526657 
L 94.378909 229.181897 
L 94.581818 229.054936 
L 94.835455 229.364577 
L 95.038364 227.970329 
L 95.292 227.115515 
L 95.393455 227.136292 
L 95.494909 225.576543 
L 95.799273 220.106866 
L 96.205091 218.431785 
L 96.306545 218.414026 
L 96.458727 218.98408 
L 96.813818 221.735923 
L 97.168909 223.915989 
L 97.371818 224.636711 
L 97.422545 224.486427 
L 97.726909 222.924549 
L 97.828364 223.028789 
L 97.929818 223.171155 
L 98.234182 222.339003 
L 98.284909 222.374342 
L 98.437091 222.802725 
L 98.792182 224.79666 
L 99.045818 226.21192 
L 99.096545 226.103305 
L 99.400909 225.320008 
L 99.806727 224.388542 
L 99.857455 224.422128 
L 99.958909 224.551232 
L 100.111091 224.010769 
L 100.314 223.483226 
L 100.415455 223.534667 
L 100.618364 224.128108 
L 101.176364 227.006397 
L 101.531455 228.54617 
L 101.632909 228.291509 
L 101.937273 227.424753 
L 102.089455 227.46004 
L 102.343091 227.963326 
L 102.444545 228.181421 
L 102.495273 228.140224 
L 102.596727 227.665319 
L 103.002545 223.779283 
L 103.104 223.674563 
L 103.154727 223.714949 
L 103.357636 224.296459 
L 103.611273 225.375091 
L 104.067818 221.252232 
L 104.118545 221.269844 
L 104.321455 221.830005 
L 104.372182 221.740825 
L 104.575091 221.290326 
L 104.676545 221.389627 
L 104.879455 222.164552 
L 105.538909 226.350612 
L 106.096909 229.081745 
L 106.604182 230.543021 
L 106.807091 230.893531 
L 106.908545 230.378362 
L 107.212909 228.578066 
L 107.466545 227.965277 
L 107.770909 226.032709 
L 107.923091 225.931858 
L 108.075273 226.200836 
L 108.278182 226.674915 
L 108.633273 225.577913 
L 108.734727 225.651473 
L 108.937636 226.178437 
L 109.089818 226.60271 
L 109.140545 226.53394 
L 109.444909 225.978457 
L 109.495636 225.99302 
L 109.597091 225.318713 
L 109.850727 223.58306 
L 109.952182 223.553453 
L 110.104364 223.934399 
L 110.510182 225.961525 
L 111.220364 229.262598 
L 111.727636 230.643754 
L 112.133455 231.208838 
L 112.285636 230.746193 
L 112.691455 229.475153 
L 112.894364 229.396275 
L 113.148 229.633546 
L 114.669818 231.786237 
L 114.720545 231.743428 
L 114.923455 230.798612 
L 115.735091 227.076029 
L 115.887273 227.125648 
L 116.140909 227.700552 
L 117.358364 231.136214 
L 117.865636 231.819983 
L 118.423636 232.227549 
L 119.184545 232.495026 
L 119.438182 232.543661 
L 119.590364 231.267561 
L 119.894727 229.193241 
L 120.097636 228.924552 
L 120.249818 229.041368 
L 120.604909 229.764959 
L 121.416545 231.460788 
L 121.974545 232.113876 
L 122.583273 232.485903 
L 123.039818 232.62076 
L 123.141273 232.400115 
L 123.699273 230.451115 
L 123.800727 230.268461 
L 124.155818 228.352688 
L 124.561636 225.159076 
L 124.663091 225.102276 
L 124.713818 225.15342 
L 124.916727 225.713715 
L 125.677636 229.10205 
L 125.728364 228.882431 
L 126.032727 226.710357 
L 126.184909 226.615482 
L 126.387818 227.048836 
L 127.250182 229.963667 
L 127.300909 229.783582 
L 127.706727 228.187436 
L 127.858909 228.19282 
L 128.061818 228.527718 
L 129.532909 231.739001 
L 130.090909 232.217476 
L 130.801091 232.515564 
L 131.206909 232.589997 
L 131.359091 231.485112 
L 131.663455 229.579066 
L 131.764909 229.349159 
L 131.917091 226.773196 
L 132.322909 220.546305 
L 132.525818 219.839129 
L 132.678 220.288035 
L 133.083818 222.754239 
L 133.236 222.615539 
L 133.337455 222.665032 
L 133.489636 223.093328 
L 133.844727 225.027039 
L 134.605636 229.097327 
L 135.112909 230.674673 
L 135.214364 230.89588 
L 135.265091 230.858159 
L 135.417273 229.032327 
L 135.721636 225.652151 
L 135.873818 225.309643 
L 135.975273 225.385217 
L 136.178182 225.95646 
L 137.547818 230.890402 
L 137.7 231.153895 
L 137.801455 230.697466 
L 138.156545 228.657721 
L 138.359455 228.517013 
L 138.562364 228.799051 
L 140.134909 231.837844 
L 140.743636 232.258138 
L 141.555273 232.519834 
L 142.823455 232.697537 
L 142.924909 232.383351 
L 143.381455 229.951766 
L 143.584364 229.779656 
L 143.787273 229.932618 
L 144.243818 230.721397 
L 144.396 230.935472 
L 144.954 224.463629 
L 145.055455 224.558631 
L 145.258364 225.240573 
L 145.410545 225.945564 
L 145.461273 225.908018 
L 145.765636 225.084521 
L 145.917818 225.320463 
L 146.222182 226.507172 
L 146.374364 226.990036 
L 146.425091 226.959371 
L 146.729455 226.598085 
L 147.135273 225.016595 
L 147.287455 225.208164 
L 147.338182 225.236288 
L 147.744 224.099433 
L 147.794727 224.164999 
L 147.997636 224.802931 
L 149.316545 230.343513 
L 149.468727 229.914065 
L 149.671636 228.792857 
L 150.432545 223.894695 
L 150.534 223.849712 
L 150.686182 224.179861 
L 151.041273 225.833693 
L 151.852909 229.583943 
L 152.360182 230.918045 
L 152.867455 231.662487 
L 153.425455 232.092481 
L 153.831273 232.252337 
L 153.932727 231.782148 
L 154.338545 229.369711 
L 154.541455 229.201632 
L 154.744364 229.415498 
L 155.353091 230.591331 
L 155.403818 230.525221 
L 155.961818 229.130438 
L 156.164727 229.271274 
L 156.570545 230.022937 
L 156.672 230.14693 
L 157.128545 227.8672 
L 157.280727 227.946466 
L 157.534364 228.520155 
L 158.599636 231.27247 
L 159.106909 231.93195 
L 159.208364 231.835177 
L 159.462 230.775718 
L 160.070727 226.355055 
L 160.222909 226.562136 
L 160.375091 226.992959 
L 160.476545 226.203268 
L 160.679455 224.796791 
L 160.780909 224.723834 
L 160.933091 225.06185 
L 161.338909 226.956781 
L 161.694 228.621458 
L 161.744727 228.45309 
L 162.252 225.198192 
L 162.454909 224.400751 
L 162.556364 224.414239 
L 162.708545 224.780285 
L 163.114364 226.663249 
L 163.824545 229.757367 
L 164.128909 230.475489 
L 164.686909 228.645624 
L 164.737636 228.661449 
L 164.940545 228.922554 
L 165.194182 229.346498 
L 165.650727 225.876631 
L 165.752182 225.935328 
L 165.955091 226.466856 
L 166.360909 228.014437 
L 166.411636 227.952536 
L 166.817455 226.921151 
L 166.969636 227.096483 
L 167.274 227.953597 
L 168.187091 230.705455 
L 168.694364 231.557948 
L 169.201636 232.039722 
L 169.252364 231.983722 
L 169.810364 229.100843 
L 169.962545 229.122759 
L 170.216182 229.512099 
L 170.977091 231.108799 
L 171.027818 231.000699 
L 171.484364 226.09771 
L 171.940909 221.977153 
L 172.245273 220.713143 
L 172.346727 220.827751 
L 172.549636 221.675204 
L 172.651091 222.199885 
L 172.701818 222.190647 
L 172.854 221.826612 
L 172.955455 219.883267 
L 173.310545 211.372479 
L 173.513455 210.627852 
L 173.614909 210.531579 
L 173.665636 210.576252 
L 173.716364 210.657201 
L 173.767091 210.572225 
L 173.919273 210.227263 
L 174.020727 210.474787 
L 174.223636 212.011769 
L 174.578727 214.802138 
L 174.629455 214.882103 
L 174.781636 213.659042 
L 175.136727 211.032808 
L 175.339636 210.102769 
L 175.491818 209.437457 
L 175.542545 209.474581 
L 175.694727 210.19761 
L 175.745455 210.073777 
L 175.897636 209.438711 
L 175.948364 209.473299 
L 176.151273 210.439639 
L 176.202 210.227448 
L 176.404909 208.509665 
L 177.013636 199.746909 
L 177.115091 199.37896 
L 177.165818 199.450724 
L 177.216545 199.596783 
L 177.571636 198.029875 
L 177.723818 197.205944 
L 177.876 194.841677 
L 178.180364 189.425788 
L 178.281818 189.06891 
L 178.332545 189.121257 
L 178.484727 189.109052 
L 178.586182 189.569686 
L 179.854364 199.429205 
L 179.955818 199.688384 
L 180.108 199.23312 
L 180.158727 199.249752 
L 180.310909 199.92319 
L 180.666 202.492722 
L 181.173273 206.732615 
L 181.579091 211.051196 
L 181.629818 210.733088 
L 182.086364 200.037668 
L 182.34 196.147937 
L 182.542909 195.316757 
L 182.644364 195.590352 
L 182.847273 197.408354 
L 183.253091 201.728817 
L 183.303818 201.601607 
L 183.861818 196.407183 
L 183.912545 196.512643 
L 184.064727 197.485153 
L 184.724182 205.105722 
L 184.977818 208.249949 
L 185.028545 207.925163 
L 185.586545 200.378653 
L 186.093818 188.199031 
L 186.195273 187.677345 
L 186.246 187.70852 
L 186.398182 188.699171 
L 186.448909 189.031927 
L 186.499636 188.994344 
L 186.753273 186.60657 
L 186.804 186.666213 
L 186.956182 187.872085 
L 187.412727 194.73787 
L 187.514182 194.300352 
L 187.666364 193.695109 
L 187.717091 193.756066 
L 188.021455 195.431915 
L 188.224364 197.138646 
L 188.579455 200.767868 
L 188.630182 200.638013 
L 188.731636 198.60898 
L 189.289636 180.124035 
L 189.391091 179.705798 
L 189.441818 179.798178 
L 189.796909 181.342837 
L 189.847636 181.312319 
L 190.050545 180.282141 
L 190.101273 180.324177 
L 190.253455 181.391347 
L 190.557818 186.426888 
L 190.912909 193.13374 
L 190.963636 193.108684 
L 191.166545 192.278446 
L 191.268 192.614587 
L 191.623091 194.942153 
L 191.775273 195.556997 
L 191.876727 195.80145 
L 192.028909 196.3131 
L 192.384 193.472948 
L 192.485455 193.730081 
L 192.840545 196.503323 
L 193.347818 201.449014 
L 193.5 200.762618 
L 193.652182 200.251654 
L 193.702909 200.273816 
L 193.905818 200.986022 
L 193.956545 200.821865 
L 194.108727 200.567736 
L 194.210182 200.932813 
L 194.463818 203.33207 
L 194.869636 208.281628 
L 194.920364 208.121713 
L 195.478364 204.683509 
L 195.579818 204.800349 
L 195.732 205.44155 
L 195.782727 205.363293 
L 195.934909 204.346619 
L 196.137818 203.101215 
L 196.239273 203.166488 
L 196.543636 204.078139 
L 196.848 206.356044 
L 196.949455 206.185054 
L 197.101636 205.89255 
L 197.203091 206.084019 
L 197.456727 207.615976 
L 197.507455 207.300638 
L 197.862545 203.380097 
L 197.913273 203.340582 
L 197.964 203.425441 
L 198.065455 203.533296 
L 198.166909 203.4098 
L 198.268364 202.574141 
L 198.674182 195.475273 
L 198.978545 193.858072 
L 199.08 194.147908 
L 199.485818 197.509307 
L 199.840909 201.80545 
L 199.942364 201.322603 
L 200.196 199.41408 
L 200.246727 199.410578 
L 200.348182 199.772417 
L 200.601818 201.08765 
L 200.652545 201.059446 
L 200.804727 200.719203 
L 201.058364 199.375191 
L 201.159818 199.770869 
L 201.413455 202.342195 
L 201.819273 206.004599 
L 201.920727 206.59972 
L 201.971455 206.567326 
L 202.428 202.59262 
L 202.478727 202.630124 
L 202.580182 202.335085 
L 202.732364 199.961557 
L 203.493273 185.213718 
L 203.544 185.253511 
L 203.696182 186.344108 
L 204.102 191.692954 
L 204.913636 205.086439 
L 204.964364 205.005218 
L 205.065818 205.081829 
L 205.218 206.012581 
L 205.471636 207.639697 
L 205.522364 207.70845 
L 205.573091 207.577153 
L 205.877455 205.193871 
L 205.978909 204.997889 
L 206.029636 205.071378 
L 206.131091 205.255262 
L 206.181818 205.197367 
L 206.283273 205.133138 
L 206.384727 205.361395 
L 206.993455 208.633875 
L 207.145636 209.727332 
L 207.196364 209.651454 
L 207.754364 205.846565 
L 208.210909 193.310436 
L 208.768909 179.196189 
L 208.819636 179.221884 
L 208.971818 180.407784 
L 209.276182 182.993443 
L 209.682 186.868552 
L 210.645818 200.793546 
L 210.950182 203.225552 
L 211.558909 208.996379 
L 211.964727 211.860023 
L 212.624182 209.947842 
L 213.080727 204.717187 
L 213.283636 204.284411 
L 213.385091 204.259698 
L 213.537273 204.893241 
L 213.790909 205.915954 
L 214.044545 206.607307 
L 214.146 205.79207 
L 214.551818 200.408917 
L 214.602545 200.432284 
L 214.754727 201.189853 
L 215.059091 204.53342 
L 215.312727 207.350048 
L 215.363455 207.34407 
L 215.870727 202.962903 
L 215.972182 203.208325 
L 216.175091 204.653726 
L 216.530182 208.681066 
L 216.631636 208.482011 
L 216.733091 207.742221 
L 217.138909 202.406715 
L 217.189636 202.404315 
L 217.291091 202.788754 
L 217.544727 205.259446 
L 218.204182 212.749294 
L 218.508545 213.352954 
L 218.660727 213.007391 
L 219.320182 208.128841 
L 219.370909 208.164192 
L 219.523091 208.812514 
L 219.827455 211.604325 
L 220.588364 218.958245 
L 220.740545 218.955668 
L 220.892727 219.261299 
L 221.146364 219.952364 
L 221.197091 219.937357 
L 221.349273 219.918633 
L 221.501455 220.157904 
L 221.805818 221.308689 
L 222.921818 226.187569 
L 223.074 225.213855 
L 223.327636 223.978222 
L 223.581273 222.946662 
L 223.834909 222.336604 
L 223.987091 222.430581 
L 224.240727 223.097737 
L 224.950909 225.858696 
L 225.052364 225.618759 
L 225.255273 223.476208 
L 225.508909 221.536063 
L 225.661091 221.343125 
L 225.813273 221.624441 
L 226.117636 222.904016 
L 226.219091 223.25335 
L 226.269818 223.135283 
L 226.523455 222.440401 
L 226.624909 222.464671 
L 226.675636 222.525488 
L 226.726364 222.447705 
L 227.081455 220.53395 
L 227.335091 219.661899 
L 227.436545 219.733715 
L 227.690182 220.367386 
L 227.740909 220.312134 
L 227.943818 220.17172 
L 228.096 220.469309 
L 228.400364 221.872369 
L 229.059818 225.549051 
L 229.110545 225.494233 
L 229.313455 224.28135 
L 229.617818 221.476928 
L 229.77 221.296115 
L 229.922182 221.634333 
L 230.277273 223.342546 
L 231.088909 227.301631 
L 231.596182 228.782808 
L 232.103455 229.662676 
L 232.661455 230.221431 
L 233.422364 230.647636 
L 234.436909 230.983465 
L 234.792 227.395432 
L 235.147091 224.586609 
L 235.299273 224.505801 
L 235.35 224.485457 
L 235.806545 221.761471 
L 235.857273 221.796719 
L 236.009455 222.199177 
L 236.415273 224.315312 
L 236.618182 225.181095 
L 236.973273 224.801185 
L 237.024 224.856436 
L 237.277636 225.490624 
L 238.089273 228.260551 
L 238.14 228.16891 
L 238.545818 227.276779 
L 238.698 227.327325 
L 238.951636 227.743237 
L 240.067636 230.167105 
L 240.169091 229.597453 
L 240.676364 224.441043 
L 240.828545 224.352835 
L 240.980727 224.64762 
L 241.335818 226.039928 
L 241.488 226.699247 
L 241.538727 226.670663 
L 241.944545 225.61879 
L 242.096727 225.829967 
L 242.451818 226.986719 
L 243.212727 229.500087 
L 243.618545 226.504296 
L 243.72 226.484985 
L 243.872182 226.732251 
L 244.075091 227.149175 
L 244.430182 226.450428 
L 244.582364 226.66208 
L 244.937455 227.71671 
L 245.698364 229.949936 
L 245.799818 229.525495 
L 246.51 225.221818 
L 246.611455 225.191077 
L 246.763636 225.452542 
L 246.966545 225.933884 
L 247.220182 224.57674 
L 247.524545 222.99791 
L 247.626 223.001086 
L 247.778182 223.373349 
L 247.981091 224.010136 
L 248.031818 223.911566 
L 248.133273 223.256591 
L 248.285455 220.393234 
L 248.539091 217.112579 
L 248.640545 216.995016 
L 248.792727 217.544259 
L 249.3 220.054018 
L 249.908727 221.565658 
L 249.959455 221.443591 
L 250.314545 220.227397 
L 250.466727 220.622248 
L 250.771091 222.376864 
L 250.974 223.704444 
L 251.024727 223.657405 
L 251.430545 221.566611 
L 251.532 221.664862 
L 251.734909 222.395089 
L 253.307455 229.840983 
L 253.814727 230.769151 
L 254.372727 231.320765 
L 255.082909 231.677567 
L 256.249636 231.963826 
L 256.300364 231.901049 
L 256.554 229.759139 
L 256.706182 227.987021 
L 257.010545 225.020575 
L 257.162727 224.778724 
L 257.314909 225.020662 
L 257.619273 226.199298 
L 257.720727 226.483633 
L 257.923636 225.296597 
L 258.228 223.347897 
L 258.329455 223.220275 
L 258.380182 223.247224 
L 258.532364 223.606362 
L 258.887455 225.316237 
L 259.699091 229.225592 
L 259.749818 229.302539 
L 259.902 227.45585 
L 260.206364 224.642937 
L 260.358545 224.505615 
L 260.510727 224.838666 
L 260.916545 226.639596 
L 261.626727 229.608829 
L 262.134 230.855986 
L 262.641273 231.558899 
L 263.199273 231.971414 
L 263.757273 232.181226 
L 263.858727 231.645912 
L 264.213818 229.487481 
L 264.416727 229.273871 
L 264.619636 229.449093 
L 265.025455 230.200549 
L 265.076182 229.999167 
L 265.380545 226.794119 
L 265.634182 225.274323 
L 265.786364 225.1986 
L 265.938545 225.507553 
L 266.293636 226.915477 
L 266.344364 226.609041 
L 266.648727 221.956093 
L 266.800909 221.598177 
L 266.902364 221.795816 
L 267.156 223.066926 
L 267.460364 224.680738 
L 267.764727 224.236016 
L 267.916909 224.531458 
L 268.069091 224.774556 
L 268.373455 224.630135 
L 268.576364 225.067484 
L 269.032909 226.946755 
L 269.388 228.313708 
L 269.844545 227.055869 
L 269.996727 227.244088 
L 270.351818 228.236436 
L 270.960545 229.951495 
L 271.062 229.204664 
L 271.721455 221.246678 
L 271.873636 220.928265 
L 271.975091 221.062509 
L 272.178 221.86195 
L 272.837455 225.996817 
L 273.446182 228.971932 
L 273.953455 230.407881 
L 274.460727 231.202902 
L 274.765091 231.42466 
L 275.170909 227.768389 
L 275.576727 226.688603 
L 275.728909 226.751411 
L 275.982545 227.288795 
L 276.185455 227.867291 
L 276.794182 224.00718 
L 276.844909 224.028843 
L 276.997091 224.347603 
L 277.352182 225.882104 
L 277.656545 227.273194 
L 277.960909 226.010671 
L 278.011636 226.023941 
L 278.163818 226.316093 
L 278.620364 228.024393 
L 279.279818 230.167268 
L 279.432 230.506427 
L 279.482727 230.451815 
L 280.142182 226.232347 
L 280.294364 226.385555 
L 280.598727 227.251769 
L 280.801636 227.936074 
L 281.004545 226.549597 
L 281.207455 225.952388 
L 281.308909 226.027278 
L 281.562545 226.755106 
L 281.816182 227.586425 
L 281.866909 227.476109 
L 282.222 225.933367 
L 282.475636 224.488645 
L 282.577091 224.384461 
L 282.627818 224.417276 
L 282.78 224.765176 
L 283.185818 226.561136 
L 283.896 229.53803 
L 283.946727 229.586391 
L 284.098909 228.980898 
L 284.403273 228.006738 
L 284.555455 228.008096 
L 284.758364 228.315455 
L 286.381636 231.58407 
L 286.787455 231.888906 
L 286.888909 231.547471 
L 287.294727 229.724263 
L 287.497636 229.563905 
L 287.700545 229.70944 
L 287.852727 229.879552 
L 288.004909 229.211139 
L 288.562909 225.318577 
L 288.715091 225.252743 
L 289.070182 224.315539 
L 289.171636 224.403368 
L 289.374545 224.99392 
L 289.577455 225.66546 
L 289.881818 224.130206 
L 290.034 224.237644 
L 290.338364 223.162147 
L 290.389091 223.18745 
L 290.541273 223.570437 
L 290.896364 225.36747 
L 291.099273 226.441065 
L 291.15 226.354228 
L 291.657273 222.212698 
L 291.708 222.237961 
L 291.860182 222.643013 
L 292.316727 224.867179 
L 292.418182 224.761672 
L 292.621091 224.587472 
L 292.773273 224.806244 
L 293.077636 225.904073 
L 294.092182 229.987947 
L 294.599455 231.084334 
L 294.954545 231.540323 
L 295.056 231.196507 
L 295.563273 227.689889 
L 295.918364 222.523459 
L 296.121273 221.503227 
L 296.222727 221.475717 
L 296.374909 221.862176 
L 296.73 222.948228 
L 296.882182 223.052531 
L 297.085091 223.594374 
L 297.440182 225.116905 
L 297.490909 224.937259 
L 297.744545 223.986151 
L 297.846 224.024207 
L 298.099636 224.698378 
L 298.201091 224.549077 
L 298.454727 224.190776 
L 298.606909 224.46872 
L 298.911273 225.706521 
L 299.824364 229.612355 
L 299.875091 229.561716 
L 300.280909 228.187319 
L 300.331636 228.058984 
L 300.686727 225.147673 
L 300.788182 225.088372 
L 300.940364 225.371809 
L 301.295455 226.806298 
L 302.056364 229.816654 
L 302.563636 230.985775 
L 303.070909 231.646162 
L 303.527455 231.964961 
L 303.628909 231.804774 
L 304.186909 230.240155 
L 304.389818 230.216109 
L 304.694182 230.497956 
L 305.556545 231.624204 
L 305.607273 231.547 
L 306.063818 229.019007 
L 306.216 228.978655 
L 306.418909 229.24258 
L 307.940727 231.952262 
L 308.549455 232.351458 
L 309.361091 232.599723 
L 310.223455 232.703017 
L 310.375636 231.996966 
L 310.730727 230.217924 
L 310.984364 229.572979 
L 311.339455 227.363421 
L 311.491636 227.264933 
L 311.643818 227.506372 
L 312.049636 228.821632 
L 312.759818 230.969323 
L 313.267091 231.856605 
L 313.825091 232.383898 
L 314.484545 232.682892 
L 315.296182 232.844969 
L 315.397636 231.345974 
L 315.702 226.574626 
L 315.904909 225.880241 
L 316.006364 225.953685 
L 316.209273 226.548422 
L 316.767273 228.903569 
L 316.818 228.770254 
L 317.376 226.290273 
L 317.528182 226.457172 
L 317.832545 227.406438 
L 318.035455 228.184121 
L 318.086182 228.13559 
L 319.252909 224.039286 
L 319.405091 224.322842 
L 319.608 225.007469 
L 319.658727 224.921537 
L 319.861636 224.243014 
L 320.267455 220.26996 
L 320.368909 220.225493 
L 320.521091 220.683219 
L 320.876182 222.991286 
L 321.738545 228.708997 
L 321.890727 229.208313 
L 322.195091 227.79755 
L 322.296545 227.808993 
L 322.499455 228.206051 
L 323.514 231.013411 
L 323.564727 230.905871 
L 324.072 228.627045 
L 324.224182 228.645489 
L 324.477818 229.069397 
L 324.934364 230.078065 
L 325.086545 227.816947 
L 325.593818 219.572366 
L 325.695273 219.438305 
L 325.796727 219.654753 
L 326.151818 220.738365 
L 326.253273 220.81859 
L 326.405455 221.265195 
L 326.760545 223.400623 
L 327.572182 228.489542 
L 328.079455 230.336653 
L 328.180909 230.58074 
L 328.231636 230.524737 
L 328.789636 228.419467 
L 329.043273 228.503063 
L 329.347636 227.818228 
L 329.499818 227.906814 
L 329.753455 228.458587 
L 330.412909 230.272958 
L 330.463636 230.233821 
L 330.717273 229.146089 
L 331.173818 222.815352 
L 331.478182 219.658427 
L 331.681091 218.254656 
L 331.782545 218.235298 
L 331.934727 218.810103 
L 332.289818 221.518488 
L 333.050727 227.299546 
L 333.558 229.569464 
L 334.014545 230.741504 
L 334.065273 230.771873 
L 334.674 228.25619 
L 334.826182 228.377595 
L 335.181273 229.108843 
L 335.688545 230.272437 
L 335.891455 228.797708 
L 336.145091 227.779708 
L 336.297273 227.75187 
L 336.500182 228.077941 
L 337.362545 230.265387 
L 337.413273 230.075598 
L 337.971273 227.148788 
L 338.275636 226.306463 
L 338.427818 226.419237 
L 338.681455 227.110173 
L 339.797455 230.649405 
L 340.101818 231.114196 
L 340.254 230.276804 
L 340.964182 225.6098 
L 341.014909 225.627373 
L 341.167091 225.909511 
L 341.623636 227.543777 
L 341.725091 227.322517 
L 342.029455 226.578544 
L 342.130909 226.620487 
L 342.232364 225.726318 
L 342.638182 219.665772 
L 342.790364 219.347826 
L 342.891818 219.560433 
L 343.145455 220.95223 
L 343.297636 221.397081 
L 343.449818 221.49865 
L 343.652727 222.103139 
L 344.210727 224.148302 
L 344.312182 223.904155 
L 344.616545 222.855289 
L 344.718 222.881044 
L 344.920909 223.404555 
L 345.377455 225.643414 
L 346.138364 229.122337 
L 346.290545 229.484373 
L 346.848545 227.604123 
L 347.203636 226.509831 
L 347.305091 226.348249 
L 347.609455 224.079043 
L 347.710909 223.988119 
L 347.761636 224.033837 
L 347.964545 224.613243 
L 348.471818 226.601131 
L 348.522545 226.552261 
L 349.283455 225.681365 
L 349.486364 226.056633 
L 349.942909 227.616637 
L 350.348727 229.026639 
L 350.399455 228.876625 
L 351.211091 221.634718 
L 351.312545 221.732135 
L 351.464727 222.047824 
L 351.566182 220.264971 
L 351.870545 214.052955 
L 351.972 213.719473 
L 352.022727 213.771969 
L 352.174909 214.530997 
L 352.580727 218.554999 
L 352.885091 220.865944 
L 353.037273 221.250156 
L 353.088 221.213581 
L 353.798182 216.087335 
L 354.051818 214.50568 
L 354.153273 214.631045 
L 354.356182 215.761618 
L 355.117091 221.049985 
L 355.370727 222.096664 
L 355.725818 223.482525 
L 355.928727 223.394492 
L 356.588182 221.50188 
L 356.689636 221.577157 
L 356.892545 222.197465 
L 357.146182 223.187378 
L 357.196909 223.08716 
L 357.450545 222.616136 
L 357.602727 222.866347 
L 357.907091 224.133686 
L 358.870909 228.55335 
L 359.378182 229.859732 
L 359.885455 230.616178 
L 360.342 231.016466 
L 360.392727 230.989434 
L 360.544909 228.951067 
L 360.849273 225.636903 
L 361.052182 225.308004 
L 361.204364 225.554749 
L 361.407273 226.034636 
L 361.508727 224.624272 
L 361.863818 218.847751 
L 362.016 218.516186 
L 362.168182 218.957546 
L 362.472545 220.965812 
L 363.385636 227.332083 
L 363.892909 229.322132 
L 364.146545 229.912557 
L 364.298727 228.000845 
L 364.552364 225.532333 
L 364.755273 225.148613 
L 364.907455 225.372007 
L 365.262545 226.6054 
L 366.074182 229.478185 
L 366.378545 230.138088 
L 366.530727 227.918767 
L 366.835091 224.648811 
L 366.987273 224.362465 
L 367.088727 224.459425 
L 367.342364 225.258592 
L 368.509091 229.769889 
L 369.016364 230.751089 
L 369.574364 231.348445 
L 370.233818 231.714057 
L 370.842545 231.893977 
L 370.994727 230.844211 
L 371.654182 225.911192 
L 371.806364 225.849063 
L 372.009273 226.268431 
L 372.415091 227.562205 
L 372.770182 225.63046 
L 372.871636 225.687033 
L 372.973091 225.757527 
L 373.277455 224.70402 
L 373.378909 224.77439 
L 373.581818 225.358397 
L 373.581818 225.358397 
" style="fill:none;stroke:#000000;stroke-linecap:square;stroke-width:1.5;"/>
   </g>
   <g id="line2d_15">
    <path clip-path="url(#pa2a7931467)" d="M 69.218182 195.4656 
L 69.522545 211.895561 
L 69.928364 222.950851 
L 70.334182 228.579984 
L 70.689273 230.999539 
L 70.74 230.993743 
L 71.247273 229.730532 
L 71.450182 229.968616 
L 71.805273 230.66243 
L 71.856 230.547245 
L 72.261818 229.254709 
L 72.414 229.294127 
L 72.667636 229.758541 
L 73.124182 230.880837 
L 73.174909 230.812952 
L 73.682182 229.589238 
L 73.834364 229.699015 
L 74.138727 230.285401 
L 74.646 231.437156 
L 74.747455 230.973426 
L 75.457636 226.549989 
L 75.711273 225.515005 
L 75.812727 225.497834 
L 75.964909 225.792054 
L 76.624364 227.584438 
L 76.827273 227.720667 
L 77.080909 228.271976 
L 78.552 232.151675 
L 79.059273 232.705638 
L 79.668 233.037237 
L 80.530364 233.224474 
L 82.153636 233.32926 
L 82.204364 233.264797 
L 82.458 231.476713 
L 83.117455 228.009885 
L 83.269636 228.013557 
L 83.472545 228.337639 
L 84.030545 223.031977 
L 84.182727 223.39486 
L 84.537818 225.366111 
L 84.892909 227.23826 
L 85.248 226.362467 
L 85.400182 226.60588 
L 85.755273 227.919339 
L 86.110364 229.323228 
L 86.161091 229.183638 
L 86.516182 227.656787 
L 86.566909 227.601851 
L 86.769818 226.179688 
L 86.972727 225.412507 
L 87.074182 225.440089 
L 87.277091 225.985831 
L 87.835091 228.092973 
L 87.885818 228.067898 
L 88.139455 227.93192 
L 88.342364 228.144517 
L 88.545273 228.592279 
L 88.596 228.546494 
L 88.951091 225.706355 
L 89.204727 223.387496 
L 89.306182 223.290142 
L 89.458364 223.657545 
L 89.661273 224.345642 
L 89.712 224.251535 
L 89.914909 223.926282 
L 90.067091 224.192944 
L 90.219273 224.649686 
L 90.523636 222.823216 
L 90.625091 222.939802 
L 90.828 223.787512 
L 91.132364 225.444228 
L 91.183091 225.418348 
L 91.436727 225.050009 
L 91.588909 225.324441 
L 91.944 226.796035 
L 92.704909 229.951918 
L 93.212182 231.180725 
L 93.719455 231.868489 
L 93.871636 231.983762 
L 93.973091 231.526657 
L 94.378909 229.181897 
L 94.581818 229.054936 
L 94.835455 229.364577 
L 95.038364 227.970329 
L 95.292 227.115515 
L 95.393455 227.136292 
L 95.494909 225.576543 
L 95.799273 220.106866 
L 96.205091 218.431785 
L 96.306545 218.414026 
L 96.458727 218.98408 
L 96.813818 221.735923 
L 97.168909 223.915989 
L 97.371818 224.636711 
L 97.422545 224.486427 
L 97.726909 222.924549 
L 97.828364 223.028789 
L 97.929818 223.171155 
L 98.234182 222.339003 
L 98.284909 222.374342 
L 98.437091 222.802725 
L 98.792182 224.79666 
L 99.045818 226.21192 
L 99.096545 226.103305 
L 99.400909 225.320008 
L 99.806727 224.388542 
L 99.857455 224.422128 
L 99.958909 224.551232 
L 100.111091 224.010769 
L 100.314 223.483226 
L 100.415455 223.534667 
L 100.618364 224.128108 
L 101.176364 227.006397 
L 101.531455 228.54617 
L 101.632909 228.291509 
L 101.937273 227.424753 
L 102.089455 227.46004 
L 102.343091 227.963326 
L 102.444545 228.181421 
L 102.495273 228.140224 
L 102.596727 227.665319 
L 103.002545 223.779283 
L 103.104 223.674563 
L 103.154727 223.714949 
L 103.357636 224.296459 
L 103.611273 225.375091 
L 104.067818 221.252232 
L 104.118545 221.269844 
L 104.321455 221.830005 
L 104.372182 221.740825 
L 104.575091 221.290326 
L 104.676545 221.389627 
L 104.879455 222.164552 
L 105.538909 226.350612 
L 106.096909 229.081745 
L 106.604182 230.543021 
L 106.807091 230.893531 
L 106.908545 230.378362 
L 107.212909 228.578066 
L 107.466545 227.965277 
L 107.770909 226.032709 
L 107.923091 225.931858 
L 108.075273 226.200836 
L 108.278182 226.674915 
L 108.633273 225.577913 
L 108.734727 225.651473 
L 108.937636 226.178437 
L 109.089818 226.60271 
L 109.140545 226.53394 
L 109.444909 225.978457 
L 109.495636 225.99302 
L 109.597091 225.318713 
L 109.850727 223.58306 
L 109.952182 223.553453 
L 110.104364 223.934399 
L 110.510182 225.961525 
L 111.220364 229.262598 
L 111.727636 230.643754 
L 112.133455 231.208838 
L 112.285636 230.746193 
L 112.691455 229.475153 
L 112.894364 229.396275 
L 113.148 229.633546 
L 114.669818 231.786237 
L 114.720545 231.743428 
L 114.923455 230.798612 
L 115.735091 227.076029 
L 115.887273 227.125648 
L 116.140909 227.700552 
L 117.358364 231.136214 
L 117.865636 231.819983 
L 118.423636 232.227549 
L 119.184545 232.495026 
L 119.438182 232.543661 
L 119.590364 231.267561 
L 119.894727 229.193241 
L 120.097636 228.924552 
L 120.249818 229.041368 
L 120.604909 229.764959 
L 121.416545 231.460788 
L 121.974545 232.113876 
L 122.583273 232.485903 
L 123.039818 232.62076 
L 123.141273 232.400115 
L 123.699273 230.451115 
L 123.800727 230.268461 
L 124.155818 228.352688 
L 124.561636 225.159076 
L 124.663091 225.102276 
L 124.713818 225.15342 
L 124.916727 225.713715 
L 125.677636 229.10205 
L 125.728364 228.882431 
L 126.032727 226.710357 
L 126.184909 226.615482 
L 126.387818 227.048836 
L 127.250182 229.963667 
L 127.300909 229.783582 
L 127.706727 228.187436 
L 127.858909 228.19282 
L 128.061818 228.527718 
L 129.532909 231.739001 
L 130.090909 232.217476 
L 130.801091 232.515564 
L 131.206909 232.589997 
L 131.359091 231.485112 
L 131.663455 229.579066 
L 131.764909 229.349159 
L 131.917091 226.773196 
L 132.322909 220.546305 
L 132.525818 219.839129 
L 132.678 220.288035 
L 133.083818 222.754239 
L 133.236 222.615539 
L 133.337455 222.665032 
L 133.489636 223.093328 
L 133.844727 225.027039 
L 134.605636 229.097327 
L 135.112909 230.674673 
L 135.214364 230.89588 
L 135.265091 230.858159 
L 135.417273 229.032327 
L 135.721636 225.652151 
L 135.873818 225.309643 
L 135.975273 225.385217 
L 136.178182 225.95646 
L 137.547818 230.890402 
L 137.7 231.153895 
L 137.801455 230.697466 
L 138.156545 228.657721 
L 138.359455 228.517013 
L 138.562364 228.799051 
L 140.134909 231.837844 
L 140.642182 232.16326 
L 141.301636 232.280298 
L 142.417636 232.208022 
L 142.874182 232.065686 
L 143.584364 229.022745 
L 143.787273 229.120765 
L 144.193091 229.716317 
L 144.396 229.982903 
L 144.954 223.313571 
L 145.055455 223.371383 
L 145.258364 223.987336 
L 145.410545 224.650799 
L 145.461273 224.600652 
L 145.765636 223.691892 
L 145.867091 223.781282 
L 146.07 224.369973 
L 146.374364 225.460601 
L 146.425091 225.420651 
L 146.780182 224.717017 
L 147.084545 223.337323 
L 147.236727 223.356019 
L 147.338182 223.459911 
L 147.744 222.203778 
L 147.794727 222.254933 
L 147.997636 222.843252 
L 148.707818 226.310531 
L 149.265818 228.290138 
L 149.367273 228.223093 
L 149.620909 227.090802 
L 150.483273 221.460365 
L 150.584727 221.498144 
L 150.787636 222.092323 
L 151.447091 225.392799 
L 152.005091 227.559032 
L 152.512364 228.717695 
L 153.019636 229.345238 
L 153.577636 229.688018 
L 153.831273 229.75918 
L 153.932727 229.280223 
L 154.338545 226.760196 
L 154.541455 226.535312 
L 154.744364 226.704864 
L 155.200909 227.583338 
L 155.353091 227.82003 
L 155.403818 227.751011 
L 156.012545 226.253187 
L 156.215455 226.423169 
L 156.672 227.197274 
L 157.128545 224.840575 
L 157.280727 224.890264 
L 157.534364 225.431486 
L 158.650364 228.306537 
L 159.106909 228.911896 
L 159.208364 228.81856 
L 159.462 227.733688 
L 160.070727 223.065247 
L 160.222909 223.22005 
L 160.375091 223.614261 
L 160.476545 222.805301 
L 160.730182 221.245911 
L 160.831636 221.287767 
L 161.034545 221.922119 
L 161.694 225.119187 
L 161.744727 224.959465 
L 162.302727 221.331365 
L 162.505636 220.768956 
L 162.607091 220.860901 
L 162.81 221.502029 
L 164.128909 226.997211 
L 164.737636 225.170889 
L 164.940545 225.420009 
L 165.194182 225.845408 
L 165.650727 222.273709 
L 165.752182 222.307708 
L 165.955091 222.805799 
L 166.360909 224.352357 
L 166.411636 224.294015 
L 166.817455 223.235703 
L 166.969636 223.399491 
L 167.274 224.258209 
L 168.288545 227.392022 
L 168.846545 228.312065 
L 169.201636 228.666249 
L 169.252364 228.616187 
L 169.810364 225.65793 
L 169.962545 225.653009 
L 170.216182 226.016458 
L 170.977091 227.65313 
L 171.027818 227.551297 
L 171.433636 223.349906 
L 171.839455 218.840673 
L 172.245273 216.759085 
L 172.346727 216.819935 
L 172.549636 217.591581 
L 172.651091 218.095956 
L 172.701818 218.079768 
L 172.854 217.690734 
L 172.955455 215.725556 
L 173.310545 206.89257 
L 173.513455 205.937939 
L 173.665636 205.754888 
L 173.716364 205.796855 
L 173.919273 205.224686 
L 173.97 205.262689 
L 174.122182 205.986481 
L 174.629455 209.733533 
L 174.781636 208.520444 
L 175.136727 205.801076 
L 175.390364 204.435837 
L 175.491818 204.079595 
L 175.542545 204.098762 
L 175.694727 204.780734 
L 175.745455 204.651152 
L 175.897636 203.99079 
L 175.948364 204.015739 
L 176.151273 204.962045 
L 176.202 204.749983 
L 176.404909 203.000392 
L 177.064364 193.444241 
L 177.115091 193.298462 
L 177.165818 193.323416 
L 177.216545 193.426613 
L 177.571636 191.590754 
L 177.723818 190.650208 
L 177.876 188.160869 
L 178.180364 182.371009 
L 178.332545 181.865009 
L 178.484727 181.672905 
L 178.586182 182.018897 
L 179.955818 191.69671 
L 180.108 191.278812 
L 180.158727 191.304705 
L 180.310909 192.009736 
L 180.666 194.680442 
L 181.579091 203.969866 
L 181.629818 203.721705 
L 182.035636 194.644438 
L 182.34 189.20299 
L 182.542909 188.207262 
L 182.593636 188.232531 
L 182.745818 189.03173 
L 183.253091 194.251359 
L 183.354545 193.624907 
L 183.760364 188.967319 
L 183.861818 188.778593 
L 183.912545 188.859904 
L 184.064727 189.773862 
L 184.622727 196.219556 
L 184.977818 200.904658 
L 185.028545 200.641145 
L 185.535818 194.93547 
L 186.144545 180.424418 
L 186.246 180.158998 
L 186.347455 180.593351 
L 186.448909 181.248662 
L 186.499636 181.168244 
L 186.753273 178.56452 
L 186.804 178.574787 
L 186.905455 179.135673 
L 187.159091 182.729852 
L 187.412727 186.343163 
L 187.564909 185.620044 
L 187.666364 185.306018 
L 187.717091 185.35928 
L 187.92 186.603683 
L 188.122909 187.743444 
L 188.427273 191.731483 
L 188.579455 192.672134 
L 188.630182 192.585018 
L 188.731636 190.642597 
L 189.340364 171.25401 
L 189.441818 171.077401 
L 189.796909 172.11023 
L 189.847636 172.016647 
L 190.101273 170.687657 
L 190.202727 171.116925 
L 190.405636 173.551929 
L 190.912909 182.992087 
L 191.014364 182.673498 
L 191.166545 182.14584 
L 191.268 182.480552 
L 191.623091 184.730814 
L 191.775273 185.295591 
L 191.876727 185.509695 
L 192.028909 186.027344 
L 192.384 183.238375 
L 192.485455 183.475759 
L 192.789818 185.824717 
L 193.347818 192.025575 
L 193.449273 191.792048 
L 193.652182 191.213104 
L 193.753636 191.446 
L 193.905818 192.177568 
L 193.956545 192.070461 
L 194.058 191.913653 
L 194.108727 191.982544 
L 194.260909 192.847356 
L 194.565273 196.621156 
L 194.869636 200.753291 
L 194.920364 200.688643 
L 195.224727 199.168195 
L 195.478364 197.97188 
L 195.579818 198.163709 
L 195.732 198.915488 
L 195.782727 198.87694 
L 195.884182 198.394831 
L 196.137818 196.789168 
L 196.239273 196.877814 
L 196.543636 197.875269 
L 196.898727 200.281668 
L 196.949455 200.161819 
L 197.101636 199.928768 
L 197.203091 200.154197 
L 197.456727 201.790621 
L 197.507455 201.50388 
L 197.913273 197.581567 
L 198.065455 197.769685 
L 198.116182 197.714102 
L 198.166909 197.649294 
L 198.268364 196.815747 
L 198.674182 189.51241 
L 198.978545 187.678347 
L 199.08 187.90144 
L 199.282909 189.714989 
L 199.739455 194.21934 
L 199.840909 195.456765 
L 199.891636 195.419149 
L 200.246727 193.17485 
L 200.348182 193.547752 
L 200.601818 194.927137 
L 200.652545 194.914593 
L 200.804727 194.601521 
L 201.058364 193.245325 
L 201.159818 193.632603 
L 201.413455 196.234096 
L 201.819273 200.089995 
L 201.971455 200.737137 
L 202.529455 196.860127 
L 202.630909 196.194712 
L 202.935273 190.23983 
L 203.391818 179.682623 
L 203.544 179.022163 
L 203.645455 179.509987 
L 204.000545 183.474257 
L 204.457091 191.89055 
L 204.862909 198.696496 
L 205.167273 199.625539 
L 205.522364 202.133671 
L 205.573091 202.06091 
L 205.877455 199.950726 
L 205.978909 199.8165 
L 206.131091 200.157298 
L 206.232545 200.090846 
L 206.334 200.199485 
L 206.486182 200.965734 
L 206.841273 202.989093 
L 207.094909 204.757211 
L 207.145636 205.076442 
L 207.196364 205.02899 
L 207.703636 202.005322 
L 207.855818 199.001073 
L 208.160182 190.230675 
L 208.768909 173.786238 
L 208.819636 173.735819 
L 208.921091 174.226163 
L 209.377636 177.597675 
L 209.580545 179.16995 
L 209.935636 184.734417 
L 210.645818 194.583211 
L 210.950182 197.288671 
L 211.609636 204.246917 
L 211.964727 207.14428 
L 212.015455 207.080904 
L 212.421273 206.400454 
L 212.522727 206.452272 
L 212.624182 205.803638 
L 213.131455 200.39454 
L 213.334364 200.107187 
L 213.435818 200.247467 
L 214.044545 202.513627 
L 214.146 201.715714 
L 214.551818 196.252956 
L 214.602545 196.258916 
L 214.754727 196.976177 
L 215.059091 200.312438 
L 215.363455 203.222789 
L 215.870727 198.935531 
L 215.972182 199.185637 
L 216.175091 200.650559 
L 216.580909 204.786311 
L 216.631636 204.630936 
L 216.733091 203.932781 
L 217.138909 198.637991 
L 217.189636 198.632164 
L 217.291091 199.011605 
L 217.544727 201.495323 
L 218.254909 209.415681 
L 218.508545 210.015086 
L 218.660727 209.734054 
L 219.320182 204.926527 
L 219.370909 204.959143 
L 219.523091 205.604072 
L 219.827455 208.42871 
L 220.588364 216.11025 
L 220.791273 216.266646 
L 221.349273 217.371532 
L 221.501455 217.648947 
L 221.805818 218.876133 
L 222.921818 224.086643 
L 223.074 223.14998 
L 223.327636 221.94268 
L 223.581273 220.917911 
L 223.834909 220.296572 
L 223.987091 220.384947 
L 224.240727 221.054245 
L 224.950909 223.902676 
L 225.052364 223.680081 
L 225.255273 221.550511 
L 225.508909 219.590219 
L 225.661091 219.383864 
L 225.813273 219.657286 
L 226.117636 220.943413 
L 226.219091 221.301663 
L 226.269818 221.188338 
L 226.523455 220.506629 
L 226.624909 220.534676 
L 226.675636 220.597729 
L 226.726364 220.522485 
L 227.081455 218.603747 
L 227.335091 217.707971 
L 227.436545 217.771823 
L 227.690182 218.399482 
L 227.791636 218.271676 
L 227.943818 218.204101 
L 228.096 218.50399 
L 228.400364 219.929331 
L 229.059818 223.731453 
L 229.110545 223.688367 
L 229.313455 222.508565 
L 229.617818 219.706951 
L 229.77 219.520197 
L 229.922182 219.855822 
L 230.277273 221.580976 
L 231.139636 225.862809 
L 231.697636 227.475707 
L 232.255636 228.40172 
L 232.864364 228.976294 
L 233.676 229.417936 
L 234.436909 229.694215 
L 234.792 226.09566 
L 235.147091 223.237119 
L 235.299273 223.137013 
L 235.35 223.111653 
L 235.806545 220.322498 
L 235.857273 220.351509 
L 236.009455 220.740389 
L 236.364545 222.558865 
L 236.618182 223.740488 
L 236.973273 223.380029 
L 237.024 223.437567 
L 237.277636 224.086631 
L 238.089273 226.946013 
L 238.14 226.859787 
L 238.545818 225.987576 
L 238.698 226.042693 
L 238.951636 226.46971 
L 240.067636 228.988635 
L 240.169091 228.425733 
L 240.676364 223.227176 
L 240.828545 223.123932 
L 240.980727 223.408904 
L 241.335818 224.800758 
L 241.488 225.46839 
L 241.538727 225.443322 
L 241.944545 224.402217 
L 242.096727 224.616663 
L 242.451818 225.791533 
L 243.212727 228.379356 
L 243.618545 225.394784 
L 243.72 225.374926 
L 243.872182 225.622774 
L 244.075091 226.044258 
L 244.430182 225.34769 
L 244.582364 225.560519 
L 244.937455 226.627121 
L 245.698364 228.917644 
L 245.799818 228.500405 
L 246.51 224.174184 
L 246.662182 224.187909 
L 246.865091 224.701276 
L 246.966545 224.873983 
L 247.220182 223.513711 
L 247.524545 221.915401 
L 247.626 221.912802 
L 247.778182 222.280068 
L 247.981091 222.917934 
L 248.031818 222.820144 
L 248.133273 222.165432 
L 248.285455 219.294492 
L 248.539091 215.978487 
L 248.640545 215.847695 
L 248.792727 216.382351 
L 249.3 218.89137 
L 249.908727 220.426632 
L 249.959455 220.307376 
L 250.314545 219.094848 
L 250.466727 219.491713 
L 250.771091 221.263043 
L 250.974 222.611107 
L 251.024727 222.569855 
L 251.430545 220.495572 
L 251.532 220.595395 
L 251.734909 221.332047 
L 252.394364 225.251053 
L 253.003091 228.046421 
L 253.510364 229.411158 
L 254.017636 230.186521 
L 254.575636 230.657193 
L 255.336545 230.99621 
L 256.249636 231.227415 
L 256.300364 231.165927 
L 256.554 229.020608 
L 256.706182 227.239578 
L 257.010545 224.241319 
L 257.162727 223.98535 
L 257.314909 224.217318 
L 257.619273 225.389624 
L 257.720727 225.675574 
L 257.923636 224.489487 
L 258.278727 222.429269 
L 258.380182 222.420491 
L 258.532364 222.775563 
L 258.887455 224.490606 
L 259.699091 228.462158 
L 259.749818 228.543718 
L 259.902 226.70547 
L 260.206364 223.884674 
L 260.358545 223.742322 
L 260.510727 224.072806 
L 260.916545 225.881584 
L 261.626727 228.896992 
L 262.134 230.179644 
L 262.641273 230.911045 
L 263.199273 231.346647 
L 263.757273 231.573451 
L 263.858727 231.040101 
L 264.213818 228.874693 
L 264.416727 228.656353 
L 264.619636 228.829439 
L 265.025455 229.584936 
L 265.076182 229.38464 
L 265.380545 226.173181 
L 265.634182 224.637298 
L 265.786364 224.553548 
L 265.938545 224.857359 
L 266.293636 226.265544 
L 266.344364 225.960554 
L 266.699455 221.062554 
L 266.800909 220.930328 
L 266.902364 221.123837 
L 267.156 222.391288 
L 267.460364 224.012991 
L 267.764727 223.574918 
L 267.916909 223.8732 
L 268.069091 224.119939 
L 268.373455 223.979003 
L 268.576364 224.419398 
L 269.032909 226.316458 
L 269.388 227.705232 
L 269.844545 226.462615 
L 269.996727 226.65406 
L 270.351818 227.657269 
L 270.960545 229.400013 
L 271.062 228.656637 
L 271.721455 220.655777 
L 271.873636 220.32503 
L 271.975091 220.453031 
L 272.178 221.245347 
L 272.786727 225.085335 
L 273.395455 228.223861 
L 273.902727 229.777854 
L 274.41 230.650073 
L 274.765091 230.945617 
L 275.170909 227.287705 
L 275.576727 226.196771 
L 275.728909 226.25611 
L 275.982545 226.791445 
L 276.185455 227.371814 
L 276.794182 223.500889 
L 276.844909 223.521235 
L 276.997091 223.83735 
L 277.352182 225.37429 
L 277.656545 226.775619 
L 277.960909 225.520708 
L 278.011636 225.534869 
L 278.163818 225.830061 
L 278.620364 227.552361 
L 279.279818 229.72284 
L 279.432 230.068254 
L 279.482727 230.015635 
L 280.142182 225.786366 
L 280.294364 225.936912 
L 280.598727 226.80314 
L 280.801636 227.491082 
L 281.004545 226.107036 
L 281.207455 225.509389 
L 281.308909 225.5844 
L 281.511818 226.131152 
L 281.816182 227.152056 
L 281.866909 227.042934 
L 282.222 225.502432 
L 282.526364 223.969079 
L 282.627818 223.979105 
L 282.78 224.325944 
L 283.185818 226.12767 
L 283.896 229.132824 
L 283.946727 229.183413 
L 284.098909 228.582801 
L 284.403273 227.611742 
L 284.555455 227.614044 
L 284.758364 227.923457 
L 286.381636 231.233299 
L 286.787455 231.547054 
L 286.888909 231.207205 
L 287.294727 229.381841 
L 287.497636 229.219861 
L 287.700545 229.36503 
L 287.852727 229.5358 
L 288.004909 228.867605 
L 288.562909 224.959543 
L 288.715091 224.890383 
L 289.070182 223.945911 
L 289.171636 224.032277 
L 289.374545 224.621966 
L 289.577455 225.295635 
L 289.881818 223.761993 
L 290.034 223.870059 
L 290.338364 222.793783 
L 290.389091 222.818886 
L 290.541273 223.20198 
L 290.896364 225.004378 
L 291.099273 226.083964 
L 291.15 225.99873 
L 291.657273 221.852571 
L 291.708 221.877046 
L 291.860182 222.280773 
L 292.316727 224.510865 
L 292.418182 224.407388 
L 292.621091 224.235941 
L 292.773273 224.456711 
L 293.077636 225.560584 
L 294.092182 229.67988 
L 294.599455 230.792816 
L 294.954545 231.257995 
L 295.056 230.916206 
L 295.563273 227.40854 
L 295.918364 222.227217 
L 296.121273 221.196941 
L 296.222727 221.165231 
L 296.374909 221.547002 
L 296.73 222.629233 
L 296.882182 222.732824 
L 297.085091 223.274969 
L 297.440182 224.803196 
L 297.490909 224.624631 
L 297.744545 223.676294 
L 297.846 223.71525 
L 298.099636 224.392909 
L 298.201091 224.245168 
L 298.454727 223.889089 
L 298.606909 224.16847 
L 298.911273 225.411343 
L 299.824364 229.344737 
L 299.875091 229.295698 
L 300.280909 227.927587 
L 300.331636 227.799713 
L 300.686727 224.886207 
L 300.788182 224.825863 
L 300.940364 225.108368 
L 301.295455 226.544462 
L 302.056364 229.570244 
L 302.563636 230.751 
L 303.070909 231.42088 
L 303.527455 231.746265 
L 303.628909 231.587165 
L 304.237636 229.992158 
L 304.440545 230.024636 
L 304.795636 230.415443 
L 305.556545 231.415093 
L 305.607273 231.338512 
L 306.063818 228.809892 
L 306.216 228.768895 
L 306.418909 229.032702 
L 307.940727 231.758412 
L 308.549455 232.164001 
L 309.361091 232.418771 
L 310.223455 232.527512 
L 310.375636 231.821793 
L 310.730727 230.039988 
L 310.984364 229.393224 
L 311.339455 227.17879 
L 311.491636 227.07854 
L 311.643818 227.31901 
L 312.049636 228.635493 
L 312.759818 230.792653 
L 313.267091 231.687213 
L 313.825091 232.220933 
L 314.484545 232.525498 
L 315.296182 232.692606 
L 315.397636 231.193884 
L 315.702 226.41705 
L 315.904909 225.718439 
L 316.006364 225.790264 
L 316.209273 226.383021 
L 316.767273 228.740251 
L 316.818 228.607414 
L 317.376 226.125603 
L 317.528182 226.291866 
L 317.832545 227.241674 
L 318.035455 228.021024 
L 318.086182 227.973012 
L 319.252909 223.874192 
L 319.405091 224.157111 
L 319.608 224.842058 
L 319.658727 224.756351 
L 319.861636 224.078321 
L 320.267455 220.101066 
L 320.368909 220.055354 
L 320.521091 220.511918 
L 320.876182 222.821085 
L 321.738545 228.555796 
L 321.890727 229.058641 
L 322.195091 227.652195 
L 322.296545 227.664596 
L 322.499455 228.063527 
L 323.514 230.882079 
L 323.564727 230.775066 
L 324.072 228.496338 
L 324.224182 228.514558 
L 324.477818 228.938797 
L 324.934364 229.95011 
L 325.086545 227.68921 
L 325.593818 219.432747 
L 325.695273 219.296251 
L 325.796727 219.510745 
L 326.151818 220.591196 
L 326.253273 220.670977 
L 326.405455 221.117302 
L 326.709818 222.899534 
L 327.622909 228.590673 
L 328.130182 230.348623 
L 328.180909 230.460013 
L 328.231636 230.404771 
L 328.789636 228.301949 
L 329.043273 228.386149 
L 329.347636 227.701554 
L 329.499818 227.790279 
L 329.753455 228.342832 
L 330.412909 230.161991 
L 330.463636 230.123276 
L 330.717273 229.036494 
L 331.173818 222.701151 
L 331.478182 219.538391 
L 331.681091 218.130762 
L 331.782545 218.109751 
L 331.934727 218.682757 
L 332.289818 221.390573 
L 333.050727 227.18218 
L 333.558 229.460955 
L 334.014545 230.639436 
L 334.065273 230.670416 
L 334.674 228.156447 
L 334.724727 228.175333 
L 334.927636 228.444639 
L 335.688545 230.176667 
L 335.739273 229.939486 
L 336.094364 227.77404 
L 336.246545 227.631525 
L 336.398727 227.782327 
L 336.753818 228.648352 
L 337.362545 230.174041 
L 337.514727 229.276616 
L 337.869818 227.286134 
L 338.022 226.854565 
L 338.275636 226.21334 
L 338.427818 226.325738 
L 338.681455 227.016799 
L 339.797455 230.563694 
L 340.101818 231.030816 
L 340.254 230.194123 
L 340.964182 225.524119 
L 341.014909 225.541432 
L 341.167091 225.823044 
L 341.623636 227.457995 
L 341.725091 227.237101 
L 342.029455 226.493424 
L 342.130909 226.535469 
L 342.232364 225.641361 
L 342.638182 219.576275 
L 342.790364 219.256403 
L 342.891818 219.468028 
L 343.145455 220.858658 
L 343.297636 221.303526 
L 343.449818 221.405139 
L 343.652727 222.009988 
L 344.210727 224.058638 
L 344.312182 223.815057 
L 344.616545 222.766794 
L 344.718 222.792655 
L 344.920909 223.316663 
L 345.377455 225.558404 
L 346.138364 229.04509 
L 346.290545 229.408677 
L 346.848545 227.530815 
L 347.203636 226.436072 
L 347.305091 226.274353 
L 347.609455 224.004144 
L 347.710909 223.912865 
L 347.761636 223.958444 
L 347.964545 224.53763 
L 348.471818 226.527235 
L 348.522545 226.47858 
L 349.283455 225.608915 
L 349.486364 225.984459 
L 349.942909 227.546293 
L 350.348727 228.958909 
L 350.399455 228.809247 
L 351.211091 221.564693 
L 351.312545 221.661557 
L 351.464727 221.976754 
L 351.566182 220.193646 
L 351.870545 213.978209 
L 351.972 213.643485 
L 352.022727 213.695431 
L 352.174909 214.453173 
L 352.580727 218.476697 
L 352.885091 220.789418 
L 353.037273 221.174576 
L 353.088 221.138266 
L 353.798182 216.011529 
L 354.051818 214.428288 
L 354.153273 214.553113 
L 354.356182 215.683155 
L 355.117091 220.976171 
L 355.370727 222.024949 
L 355.725818 223.41405 
L 355.928727 223.327469 
L 356.588182 221.436259 
L 356.689636 221.511582 
L 356.892545 222.132208 
L 357.146182 223.123054 
L 357.196909 223.023037 
L 357.450545 222.552663 
L 357.602727 222.803257 
L 357.907091 224.071811 
L 358.870909 228.498161 
L 359.378182 229.807892 
L 359.885455 230.56691 
L 360.342 230.968929 
L 360.392727 230.942064 
L 360.544909 228.903919 
L 360.849273 225.588671 
L 361.052182 225.258989 
L 361.204364 225.505349 
L 361.407273 225.985055 
L 361.508727 224.574577 
L 361.863818 218.795298 
L 362.016 218.462538 
L 362.168182 218.903043 
L 362.472545 220.910761 
L 363.385636 227.281818 
L 363.892909 229.275426 
L 364.146545 229.867374 
L 364.298727 227.956194 
L 364.552364 225.487404 
L 364.755273 225.103305 
L 364.907455 225.32654 
L 365.262545 226.560174 
L 366.074182 229.435693 
L 366.378545 230.096796 
L 366.530727 227.87775 
L 366.835091 224.606896 
L 366.987273 224.32006 
L 367.088727 224.416774 
L 367.342364 225.215695 
L 368.559818 229.854375 
L 369.067091 230.784886 
L 369.625091 231.350577 
L 370.284545 231.699059 
L 370.842545 231.860372 
L 370.994727 230.810711 
L 371.654182 225.875854 
L 371.806364 225.813264 
L 372.009273 226.232293 
L 372.415091 227.526297 
L 372.770182 225.594621 
L 372.871636 225.651187 
L 372.973091 225.721714 
L 373.277455 224.668113 
L 373.378909 224.738445 
L 373.581818 225.322509 
L 373.581818 225.322509 
" style="fill:none;stroke:#ff0000;stroke-linecap:square;stroke-width:1.5;"/>
   </g>
   <g id="line2d_16">
    <path clip-path="url(#pa2a7931467)" d="M 322.854545 143.28 
L 373.480364 143.28 
L 373.480364 143.28 
" style="fill:none;stroke:#000000;stroke-linecap:square;stroke-width:1.5;"/>
   </g>
   <g id="line2d_17">
    <path clip-path="url(#pa2a7931467)" d="M 322.854545 165.024 
L 322.854545 160.6752 
L 322.854545 156.3264 
L 322.854545 151.9776 
L 322.854545 147.6288 
" style="fill:none;stroke:#000000;stroke-linecap:square;stroke-width:1.5;"/>
   </g>
   <g id="patch_3">
    <path d="M 54 252 
L 54 34.56 
" style="fill:none;stroke:#000000;stroke-linecap:square;stroke-linejoin:miter;stroke-width:0.8;"/>
   </g>
   <g id="patch_4">
    <path d="M 54 252 
L 388.8 252 
" style="fill:none;stroke:#000000;stroke-linecap:square;stroke-linejoin:miter;stroke-width:0.8;"/>
   </g>
   <g id="text_16">
    <!-- 500 ms -->
    <g transform="translate(322.854545 138.9312)scale(0.1 -0.1)">
     <use xlink:href="#DejaVuSans-53"/>
     <use x="63.623047" xlink:href="#DejaVuSans-48"/>
     <use x="127.246094" xlink:href="#DejaVuSans-48"/>
     <use x="190.869141" xlink:href="#DejaVuSans-32"/>
     <use x="222.65625" xlink:href="#DejaVuSans-109"/>
     <use x="320.068359" xlink:href="#DejaVuSans-115"/>
    </g>
   </g>
   <g id="text_17">
    <!-- 5 mV -->
    <g transform="translate(327.927273 156.3264)scale(0.1 -0.1)">
     <use xlink:href="#DejaVuSans-53"/>
     <use x="63.623047" xlink:href="#DejaVuSans-32"/>
     <use x="95.410156" xlink:href="#DejaVuSans-109"/>
     <use x="192.822266" xlink:href="#DejaVuSans-86"/>
    </g>
   </g>
  </g>
 </g>
 <defs>
  <clipPath id="pa2a7931467">
   <rect height="217.44" width="334.8" x="54" y="34.56"/>
  </clipPath>
 </defs>
</svg>
