<?xml version="1.0" encoding="UTF-8" standalone="no"?>
<svg
   xmlns:dc="http://purl.org/dc/elements/1.1/"
   xmlns:cc="http://creativecommons.org/ns#"
   xmlns:rdf="http://www.w3.org/1999/02/22-rdf-syntax-ns#"
   xmlns:svg="http://www.w3.org/2000/svg"
   xmlns="http://www.w3.org/2000/svg"
   xmlns:xlink="http://www.w3.org/1999/xlink"
   xmlns:sodipodi="http://sodipodi.sourceforge.net/DTD/sodipodi-0.dtd"
   xmlns:inkscape="http://www.inkscape.org/namespaces/inkscape"
   height="288pt"
   version="1.1"
   viewBox="0 0 288 288"
   width="288pt"
   id="svg375"
   sodipodi:docname="dSPN_burst_precentage.svg"
   inkscape:version="0.92.3 (2405546, 2018-03-11)">
  <sodipodi:namedview
     pagecolor="#ffffff"
     bordercolor="#666666"
     borderopacity="1"
     objecttolerance="10"
     gridtolerance="10"
     guidetolerance="10"
     inkscape:pageopacity="0"
     inkscape:pageshadow="2"
     inkscape:window-width="1853"
     inkscape:window-height="1025"
     id="namedview377"
     showgrid="false"
     inkscape:zoom="0.61458333"
     inkscape:cx="192"
     inkscape:cy="192"
     inkscape:window-x="67"
     inkscape:window-y="27"
     inkscape:window-maximized="1"
     inkscape:current-layer="svg375" />
  <metadata
     id="metadata2">
    <rdf:RDF>
      <cc:Work>
        <dc:type
           rdf:resource="http://purl.org/dc/dcmitype/StillImage" />
        <dc:date>2021-07-05T14:41:49.216349</dc:date>
        <dc:format>image/svg+xml</dc:format>
        <dc:creator>
          <cc:Agent>
            <dc:title>Matplotlib v3.4.1, https://matplotlib.org/</dc:title>
          </cc:Agent>
        </dc:creator>
      </cc:Work>
    </rdf:RDF>
  </metadata>
  <defs
     id="defs6">
    <style
       type="text/css"
       id="style4">*{stroke-linecap:butt;stroke-linejoin:round;}</style>
  </defs>
  <g
     style="stroke-linecap:butt;stroke-linejoin:round"
     id="patch_1">
    <path
       inkscape:connector-curvature="0"
       id="path8"
       style="fill:none;stroke-linecap:butt;stroke-linejoin:round"
       d="M 0,288 H 288 V 0 H 0 Z" />
  </g>
  <g
     id="patch_2"
     style="stroke-linecap:butt;stroke-linejoin:round">
    <path
       d="M 47.425,190.95 H 277.2 V 26.8 H 47.425 Z"
       style="fill:#ffffff;stroke-linecap:butt;stroke-linejoin:round"
       id="path11"
       inkscape:connector-curvature="0" />
  </g>
  <g
     id="patch_3"
     style="stroke-linecap:butt;stroke-linejoin:round">
    <path
       clip-path="url(#pc5b64066c0)"
       d="M 57.869318,190.95 H 82.444184 V 53.008824 H 57.869318 Z"
       id="path14"
       inkscape:connector-curvature="0"
       style="stroke-linecap:butt;stroke-linejoin:round" />
  </g>
  <g
     id="patch_4"
     style="stroke-linecap:butt;stroke-linejoin:round">
    <path
       clip-path="url(#pc5b64066c0)"
       d="m 119.30648,190.95 h 24.57487 V 53.008824 h -24.57487 z"
       style="fill:#ff0000;stroke-linecap:butt;stroke-linejoin:round"
       id="path17"
       inkscape:connector-curvature="0" />
  </g>
  <g
     id="patch_5"
     style="stroke-linecap:butt;stroke-linejoin:round">
    <path
       clip-path="url(#pc5b64066c0)"
       d="m 180.74365,190.95 h 24.57487 V 53.008824 h -24.57487 z"
       id="path20"
       inkscape:connector-curvature="0"
       style="stroke-linecap:butt;stroke-linejoin:round" />
  </g>
  <g
     id="patch_6"
     style="stroke-linecap:butt;stroke-linejoin:round">
    <path
       clip-path="url(#pc5b64066c0)"
       d="m 242.18082,190.95 h 24.57486 V 34.616667 h -24.57486 z"
       style="fill:#ff0000;stroke-linecap:butt;stroke-linejoin:round"
       id="path23"
       inkscape:connector-curvature="0" />
  </g>
  <g
     id="matplotlib.axis_1"
     style="stroke-linecap:butt;stroke-linejoin:round">
    <g
       id="xtick_1"
       style="stroke-linecap:butt;stroke-linejoin:round">
      <g
         id="line2d_1"
         style="stroke-linecap:butt;stroke-linejoin:round">
        <defs
           id="defs27">
          <path
             d="M 0,0 V 3.5"
             id="m3d0e0bae7d"
             style="stroke:#000000;stroke-width:0.80000001;stroke-linecap:butt;stroke-linejoin:round"
             inkscape:connector-curvature="0" />
        </defs>
        <g
           id="g31"
           style="stroke-linecap:butt;stroke-linejoin:round">
          <use
             style="stroke:#000000;stroke-width:0.80000001;stroke-linecap:butt;stroke-linejoin:round"
             x="70.156754"
             xlink:href="#m3d0e0bae7d"
             y="190.95"
             id="use29"
             width="100%"
             height="100%" />
        </g>
      </g>
      <g
         id="text_1"
         style="stroke-linecap:butt;stroke-linejoin:round">
        <!-- Control -->
        <g
           transform="matrix(0,-0.12,-0.12,0,73.468001,241.32062)"
           id="g56"
           style="stroke-linecap:butt;stroke-linejoin:round">
          <defs
             id="defs40">
            <path
               d="m 4122,4306 v -665 q -319,297 -680,443 -361,147 -767,147 -800,0 -1225,-489 -425,-489 -425,-1414 0,-922 425,-1411 425,-489 1225,-489 406,0 767,147 361,147 680,444 V 359 Q 3791,134 3420,21 3050,-91 2638,-91 1578,-91 968,557 359,1206 359,2328 q 0,1125 609,1773 610,649 1670,649 418,0 788,-111 371,-111 696,-333 z"
               id="DejaVuSans-43"
               transform="scale(0.015625)"
               inkscape:connector-curvature="0"
               style="stroke-linecap:butt;stroke-linejoin:round" />
            <path
               d="m 1959,3097 q -462,0 -731,-361 -269,-361 -269,-989 0,-628 267,-989 268,-361 733,-361 460,0 728,362 269,363 269,988 0,622 -269,986 -268,364 -728,364 z m 0,487 q 750,0 1178,-488 429,-487 429,-1349 Q 3566,888 3137,398 2709,-91 1959,-91 1206,-91 779,398 353,888 353,1747 q 0,862 426,1349 427,488 1180,488 z"
               id="DejaVuSans-6f"
               transform="scale(0.015625)"
               inkscape:connector-curvature="0"
               style="stroke-linecap:butt;stroke-linejoin:round" />
            <path
               d="M 3513,2113 V 0 h -575 v 2094 q 0,497 -194,743 -194,247 -581,247 -466,0 -735,-297 -269,-296 -269,-809 V 0 H 581 v 3500 h 578 v -544 q 207,316 486,472 280,156 646,156 603,0 912,-373 310,-373 310,-1098 z"
               id="DejaVuSans-6e"
               transform="scale(0.015625)"
               inkscape:connector-curvature="0"
               style="stroke-linecap:butt;stroke-linejoin:round" />
            <path
               d="M 1172,4494 V 3500 H 2356 V 3053 H 1172 V 1153 q 0,-428 117,-550 117,-122 477,-122 h 590 V 0 H 1766 Q 1100,0 847,248 594,497 594,1153 V 3053 H 172 v 447 h 422 v 994 z"
               id="DejaVuSans-74"
               transform="scale(0.015625)"
               inkscape:connector-curvature="0"
               style="stroke-linecap:butt;stroke-linejoin:round" />
            <path
               d="m 2631,2963 q -97,56 -211,82 -114,27 -251,27 -488,0 -749,-317 -261,-317 -261,-911 V 0 H 581 v 3500 h 578 v -544 q 182,319 472,473 291,155 707,155 59,0 131,-8 72,-7 159,-23 z"
               id="DejaVuSans-72"
               transform="scale(0.015625)"
               inkscape:connector-curvature="0"
               style="stroke-linecap:butt;stroke-linejoin:round" />
            <path
               d="m 603,4863 h 575 V 0 H 603 Z"
               id="DejaVuSans-6c"
               transform="scale(0.015625)"
               inkscape:connector-curvature="0"
               style="stroke-linecap:butt;stroke-linejoin:round" />
          </defs>
          <use
             xlink:href="#DejaVuSans-43"
             id="use42"
             style="stroke-linecap:butt;stroke-linejoin:round"
             x="0"
             y="0"
             width="100%"
             height="100%" />
          <use
             x="69.824219"
             xlink:href="#DejaVuSans-6f"
             id="use44"
             style="stroke-linecap:butt;stroke-linejoin:round"
             y="0"
             width="100%"
             height="100%" />
          <use
             x="131.00586"
             xlink:href="#DejaVuSans-6e"
             id="use46"
             style="stroke-linecap:butt;stroke-linejoin:round"
             y="0"
             width="100%"
             height="100%" />
          <use
             x="194.38477"
             xlink:href="#DejaVuSans-74"
             id="use48"
             style="stroke-linecap:butt;stroke-linejoin:round"
             y="0"
             width="100%"
             height="100%" />
          <use
             x="233.59375"
             xlink:href="#DejaVuSans-72"
             id="use50"
             style="stroke-linecap:butt;stroke-linejoin:round"
             y="0"
             width="100%"
             height="100%" />
          <use
             x="272.45703"
             xlink:href="#DejaVuSans-6f"
             id="use52"
             style="stroke-linecap:butt;stroke-linejoin:round"
             y="0"
             width="100%"
             height="100%" />
          <use
             x="333.63867"
             xlink:href="#DejaVuSans-6c"
             id="use54"
             style="stroke-linecap:butt;stroke-linejoin:round"
             y="0"
             width="100%"
             height="100%" />
        </g>
      </g>
    </g>
    <g
       id="xtick_2"
       style="stroke-linecap:butt;stroke-linejoin:round">
      <g
         id="line2d_2"
         style="stroke-linecap:butt;stroke-linejoin:round">
        <g
           id="g62"
           style="stroke-linecap:butt;stroke-linejoin:round">
          <use
             style="stroke:#000000;stroke-width:0.80000001;stroke-linecap:butt;stroke-linejoin:round"
             x="131.59392"
             xlink:href="#m3d0e0bae7d"
             y="190.95"
             id="use60"
             width="100%"
             height="100%" />
        </g>
      </g>
      <g
         id="text_2"
         style="stroke-linecap:butt;stroke-linejoin:round">
        <!-- DA -->
        <g
           transform="matrix(0,-0.12,-0.12,0,134.90517,215.18875)"
           id="g73"
           style="stroke-linecap:butt;stroke-linejoin:round">
          <defs
             id="defs67">
            <path
               d="M 1259,4147 V 519 h 763 q 966,0 1414,437 448,438 448,1382 0,937 -448,1373 -448,436 -1414,436 z m -631,519 h 1297 q 1356,0 1990,-564 635,-564 635,-1764 Q 4550,1131 3912,565 3275,0 1925,0 H 628 Z"
               id="DejaVuSans-44"
               transform="scale(0.015625)"
               inkscape:connector-curvature="0"
               style="stroke-linecap:butt;stroke-linejoin:round" />
            <path
               d="M 2188,4044 1331,1722 h 1716 z m -357,622 h 716 L 4325,0 H 3669 L 3244,1197 H 1141 L 716,0 H 50 Z"
               id="DejaVuSans-41"
               transform="scale(0.015625)"
               inkscape:connector-curvature="0"
               style="stroke-linecap:butt;stroke-linejoin:round" />
          </defs>
          <use
             xlink:href="#DejaVuSans-44"
             id="use69"
             style="stroke-linecap:butt;stroke-linejoin:round"
             x="0"
             y="0"
             width="100%"
             height="100%" />
          <use
             x="75.251953"
             xlink:href="#DejaVuSans-41"
             id="use71"
             style="stroke-linecap:butt;stroke-linejoin:round"
             y="0"
             width="100%"
             height="100%" />
        </g>
      </g>
    </g>
    <g
       id="xtick_3"
       style="stroke-linecap:butt;stroke-linejoin:round">
      <g
         id="line2d_3"
         style="stroke-linecap:butt;stroke-linejoin:round">
        <g
           id="g79"
           style="stroke-linecap:butt;stroke-linejoin:round">
          <use
             style="stroke:#000000;stroke-width:0.80000001;stroke-linecap:butt;stroke-linejoin:round"
             x="193.03108"
             xlink:href="#m3d0e0bae7d"
             y="190.95"
             id="use77"
             width="100%"
             height="100%" />
        </g>
      </g>
      <g
         id="text_3"
         style="stroke-linecap:butt;stroke-linejoin:round">
        <!-- Control Burst -->
        <g
           transform="matrix(0,-0.12,-0.12,0,196.34233,276.86125)"
           id="g114"
           style="stroke-linecap:butt;stroke-linejoin:round">
          <defs
             id="defs86">
            <path
               id="DejaVuSans-20"
               transform="scale(0.015625)"
               d=""
               inkscape:connector-curvature="0"
               style="stroke-linecap:butt;stroke-linejoin:round" />
            <path
               d="M 1259,2228 V 519 h 1013 q 509,0 754,211 246,211 246,645 0,438 -246,645 -245,208 -754,208 z m 0,1919 V 2741 h 935 q 462,0 688,173 227,174 227,530 0,353 -227,528 -226,175 -688,175 z m -631,519 h 1613 q 722,0 1112,-300 391,-300 391,-853 0,-429 -200,-682 -200,-253 -588,-315 466,-100 724,-418 258,-317 258,-792 0,-625 -425,-966 Q 3088,0 2303,0 H 628 Z"
               id="DejaVuSans-42"
               transform="scale(0.015625)"
               inkscape:connector-curvature="0"
               style="stroke-linecap:butt;stroke-linejoin:round" />
            <path
               d="m 544,1381 v 2119 h 575 V 1403 q 0,-497 193,-746 194,-248 582,-248 465,0 735,297 271,297 271,810 v 1984 h 575 V 0 H 2900 V 538 Q 2691,219 2414,64 2138,-91 1772,-91 1169,-91 856,284 544,659 544,1381 Z m 1447,2203 z"
               id="DejaVuSans-75"
               transform="scale(0.015625)"
               inkscape:connector-curvature="0"
               style="stroke-linecap:butt;stroke-linejoin:round" />
            <path
               d="m 2834,3397 v -544 q -243,125 -506,187 -262,63 -544,63 -428,0 -642,-131 -214,-131 -214,-394 0,-200 153,-314 153,-114 616,-217 l 197,-44 q 612,-131 870,-370 258,-239 258,-667 0,-488 -386,-773 Q 2250,-91 1575,-91 1294,-91 989,-36 684,19 347,128 v 594 q 319,-166 628,-249 309,-82 613,-82 406,0 624,139 219,139 219,392 0,234 -158,359 -157,125 -692,241 l -200,47 q -534,112 -772,345 -237,233 -237,639 0,494 350,762 350,269 994,269 318,0 599,-47 282,-46 519,-140 z"
               id="DejaVuSans-73"
               transform="scale(0.015625)"
               inkscape:connector-curvature="0"
               style="stroke-linecap:butt;stroke-linejoin:round" />
          </defs>
          <use
             xlink:href="#DejaVuSans-43"
             id="use88"
             style="stroke-linecap:butt;stroke-linejoin:round"
             x="0"
             y="0"
             width="100%"
             height="100%" />
          <use
             x="69.824219"
             xlink:href="#DejaVuSans-6f"
             id="use90"
             style="stroke-linecap:butt;stroke-linejoin:round"
             y="0"
             width="100%"
             height="100%" />
          <use
             x="131.00586"
             xlink:href="#DejaVuSans-6e"
             id="use92"
             style="stroke-linecap:butt;stroke-linejoin:round"
             y="0"
             width="100%"
             height="100%" />
          <use
             x="194.38477"
             xlink:href="#DejaVuSans-74"
             id="use94"
             style="stroke-linecap:butt;stroke-linejoin:round"
             y="0"
             width="100%"
             height="100%" />
          <use
             x="233.59375"
             xlink:href="#DejaVuSans-72"
             id="use96"
             style="stroke-linecap:butt;stroke-linejoin:round"
             y="0"
             width="100%"
             height="100%" />
          <use
             x="272.45703"
             xlink:href="#DejaVuSans-6f"
             id="use98"
             style="stroke-linecap:butt;stroke-linejoin:round"
             y="0"
             width="100%"
             height="100%" />
          <use
             x="333.63867"
             xlink:href="#DejaVuSans-6c"
             id="use100"
             style="stroke-linecap:butt;stroke-linejoin:round"
             y="0"
             width="100%"
             height="100%" />
          <use
             x="361.42188"
             xlink:href="#DejaVuSans-20"
             id="use102"
             style="stroke-linecap:butt;stroke-linejoin:round"
             y="0"
             width="100%"
             height="100%" />
          <use
             x="393.20898"
             xlink:href="#DejaVuSans-42"
             id="use104"
             style="stroke-linecap:butt;stroke-linejoin:round"
             y="0"
             width="100%"
             height="100%" />
          <use
             x="461.8125"
             xlink:href="#DejaVuSans-75"
             id="use106"
             style="stroke-linecap:butt;stroke-linejoin:round"
             y="0"
             width="100%"
             height="100%" />
          <use
             x="525.19141"
             xlink:href="#DejaVuSans-72"
             id="use108"
             style="stroke-linecap:butt;stroke-linejoin:round"
             y="0"
             width="100%"
             height="100%" />
          <use
             x="566.30469"
             xlink:href="#DejaVuSans-73"
             id="use110"
             style="stroke-linecap:butt;stroke-linejoin:round"
             y="0"
             width="100%"
             height="100%" />
          <use
             x="618.4043"
             xlink:href="#DejaVuSans-74"
             id="use112"
             style="stroke-linecap:butt;stroke-linejoin:round"
             y="0"
             width="100%"
             height="100%" />
        </g>
      </g>
    </g>
    <g
       id="xtick_4"
       style="stroke-linecap:butt;stroke-linejoin:round">
      <g
         id="line2d_4"
         style="stroke-linecap:butt;stroke-linejoin:round">
        <g
           id="g120"
           style="stroke-linecap:butt;stroke-linejoin:round">
          <use
             style="stroke:#000000;stroke-width:0.80000001;stroke-linecap:butt;stroke-linejoin:round"
             x="254.46825"
             xlink:href="#m3d0e0bae7d"
             y="190.95"
             id="use118"
             width="100%"
             height="100%" />
        </g>
      </g>
      <g
         id="text_4"
         style="stroke-linecap:butt;stroke-linejoin:round">
        <!-- DA burst -->
        <g
           transform="matrix(0,-0.12,-0.12,0,257.7795,250.11437)"
           id="g142"
           style="stroke-linecap:butt;stroke-linejoin:round">
          <defs
             id="defs124">
            <path
               d="m 3116,1747 q 0,634 -261,995 -261,361 -717,361 -457,0 -718,-361 -261,-361 -261,-995 0,-634 261,-995 261,-361 718,-361 456,0 717,361 261,361 261,995 z M 1159,2969 q 182,312 458,463 277,152 661,152 638,0 1036,-506 399,-506 399,-1331 Q 3713,922 3314,415 2916,-91 2278,-91 1894,-91 1617,61 1341,213 1159,525 V 0 H 581 v 4863 h 578 z"
               id="DejaVuSans-62"
               transform="scale(0.015625)"
               inkscape:connector-curvature="0"
               style="stroke-linecap:butt;stroke-linejoin:round" />
          </defs>
          <use
             xlink:href="#DejaVuSans-44"
             id="use126"
             style="stroke-linecap:butt;stroke-linejoin:round"
             x="0"
             y="0"
             width="100%"
             height="100%" />
          <use
             x="75.251953"
             xlink:href="#DejaVuSans-41"
             id="use128"
             style="stroke-linecap:butt;stroke-linejoin:round"
             y="0"
             width="100%"
             height="100%" />
          <use
             x="143.66016"
             xlink:href="#DejaVuSans-20"
             id="use130"
             style="stroke-linecap:butt;stroke-linejoin:round"
             y="0"
             width="100%"
             height="100%" />
          <use
             x="175.44727"
             xlink:href="#DejaVuSans-62"
             id="use132"
             style="stroke-linecap:butt;stroke-linejoin:round"
             y="0"
             width="100%"
             height="100%" />
          <use
             x="238.92383"
             xlink:href="#DejaVuSans-75"
             id="use134"
             style="stroke-linecap:butt;stroke-linejoin:round"
             y="0"
             width="100%"
             height="100%" />
          <use
             x="302.30273"
             xlink:href="#DejaVuSans-72"
             id="use136"
             style="stroke-linecap:butt;stroke-linejoin:round"
             y="0"
             width="100%"
             height="100%" />
          <use
             x="343.41602"
             xlink:href="#DejaVuSans-73"
             id="use138"
             style="stroke-linecap:butt;stroke-linejoin:round"
             y="0"
             width="100%"
             height="100%" />
          <use
             x="395.51562"
             xlink:href="#DejaVuSans-74"
             id="use140"
             style="stroke-linecap:butt;stroke-linejoin:round"
             y="0"
             width="100%"
             height="100%" />
        </g>
      </g>
    </g>
  </g>
  <g
     id="matplotlib.axis_2"
     style="stroke-linecap:butt;stroke-linejoin:round">
    <g
       id="ytick_1"
       style="stroke-linecap:butt;stroke-linejoin:round">
      <g
         id="line2d_5"
         style="stroke-linecap:butt;stroke-linejoin:round">
        <defs
           id="defs148">
          <path
             d="M 0,0 H -3.5"
             id="m5ee529912b"
             style="stroke:#000000;stroke-width:0.80000001;stroke-linecap:butt;stroke-linejoin:round"
             inkscape:connector-curvature="0" />
        </defs>
        <g
           id="g152"
           style="stroke-linecap:butt;stroke-linejoin:round">
          <use
             style="stroke:#000000;stroke-width:0.80000001;stroke-linecap:butt;stroke-linejoin:round"
             x="47.424999"
             xlink:href="#m5ee529912b"
             y="190.95"
             id="use150"
             width="100%"
             height="100%" />
        </g>
      </g>
      <g
         id="text_5"
         style="stroke-linecap:butt;stroke-linejoin:round">
        <!-- 0 -->
        <g
           transform="matrix(0.1,0,0,-0.1,34.0625,194.74922)"
           id="g160"
           style="stroke-linecap:butt;stroke-linejoin:round">
          <defs
             id="defs156">
            <path
               d="m 2034,4250 q -487,0 -733,-480 -245,-479 -245,-1442 0,-959 245,-1439 246,-480 733,-480 491,0 736,480 246,480 246,1439 0,963 -246,1442 -245,480 -736,480 z m 0,500 q 785,0 1199,-621 414,-620 414,-1801 0,-1178 -414,-1799 -414,-620 -1199,-620 -784,0 -1198,620 -414,621 -414,1799 0,1181 414,1801 414,621 1198,621 z"
               id="DejaVuSans-30"
               transform="scale(0.015625)"
               inkscape:connector-curvature="0"
               style="stroke-linecap:butt;stroke-linejoin:round" />
          </defs>
          <use
             xlink:href="#DejaVuSans-30"
             id="use158"
             style="stroke-linecap:butt;stroke-linejoin:round"
             x="0"
             y="0"
             width="100%"
             height="100%" />
        </g>
      </g>
    </g>
    <g
       id="ytick_2"
       style="stroke-linecap:butt;stroke-linejoin:round">
      <g
         id="line2d_6"
         style="stroke-linecap:butt;stroke-linejoin:round">
        <g
           id="g166"
           style="stroke-linecap:butt;stroke-linejoin:round">
          <use
             style="stroke:#000000;stroke-width:0.80000001;stroke-linecap:butt;stroke-linejoin:round"
             x="47.424999"
             xlink:href="#m5ee529912b"
             y="163.36177"
             id="use164"
             width="100%"
             height="100%" />
        </g>
      </g>
      <g
         id="text_6"
         style="stroke-linecap:butt;stroke-linejoin:round">
        <!-- 10 -->
        <g
           transform="matrix(0.1,0,0,-0.1,27.7,167.16098)"
           id="g176"
           style="stroke-linecap:butt;stroke-linejoin:round">
          <defs
             id="defs170">
            <path
               d="M 794,531 H 1825 V 4091 L 703,3866 v 575 l 1116,225 h 631 V 531 H 3481 V 0 H 794 Z"
               id="DejaVuSans-31"
               transform="scale(0.015625)"
               inkscape:connector-curvature="0"
               style="stroke-linecap:butt;stroke-linejoin:round" />
          </defs>
          <use
             xlink:href="#DejaVuSans-31"
             id="use172"
             style="stroke-linecap:butt;stroke-linejoin:round"
             x="0"
             y="0"
             width="100%"
             height="100%" />
          <use
             x="63.623047"
             xlink:href="#DejaVuSans-30"
             id="use174"
             style="stroke-linecap:butt;stroke-linejoin:round"
             y="0"
             width="100%"
             height="100%" />
        </g>
      </g>
    </g>
    <g
       id="ytick_3"
       style="stroke-linecap:butt;stroke-linejoin:round">
      <g
         id="line2d_7"
         style="stroke-linecap:butt;stroke-linejoin:round">
        <g
           id="g182"
           style="stroke-linecap:butt;stroke-linejoin:round">
          <use
             style="stroke:#000000;stroke-width:0.80000001;stroke-linecap:butt;stroke-linejoin:round"
             x="47.424999"
             xlink:href="#m5ee529912b"
             y="135.77353"
             id="use180"
             width="100%"
             height="100%" />
        </g>
      </g>
      <g
         id="text_7"
         style="stroke-linecap:butt;stroke-linejoin:round">
        <!-- 20 -->
        <g
           transform="matrix(0.1,0,0,-0.1,27.7,139.57275)"
           id="g192"
           style="stroke-linecap:butt;stroke-linejoin:round">
          <defs
             id="defs186">
            <path
               d="M 1228,531 H 3431 V 0 H 469 v 531 q 359,372 979,998 621,627 780,809 303,340 423,576 121,236 121,464 0,372 -261,606 -261,235 -680,235 -297,0 -627,-103 -329,-103 -704,-313 v 638 q 381,153 712,231 332,78 607,78 725,0 1156,-363 431,-362 431,-968 0,-288 -108,-546 -107,-257 -392,-607 -78,-91 -497,-524 Q 1991,1309 1228,531 Z"
               id="DejaVuSans-32"
               transform="scale(0.015625)"
               inkscape:connector-curvature="0"
               style="stroke-linecap:butt;stroke-linejoin:round" />
          </defs>
          <use
             xlink:href="#DejaVuSans-32"
             id="use188"
             style="stroke-linecap:butt;stroke-linejoin:round"
             x="0"
             y="0"
             width="100%"
             height="100%" />
          <use
             x="63.623047"
             xlink:href="#DejaVuSans-30"
             id="use190"
             style="stroke-linecap:butt;stroke-linejoin:round"
             y="0"
             width="100%"
             height="100%" />
        </g>
      </g>
    </g>
    <g
       id="ytick_4"
       style="stroke-linecap:butt;stroke-linejoin:round">
      <g
         id="line2d_8"
         style="stroke-linecap:butt;stroke-linejoin:round">
        <g
           id="g198"
           style="stroke-linecap:butt;stroke-linejoin:round">
          <use
             style="stroke:#000000;stroke-width:0.80000001;stroke-linecap:butt;stroke-linejoin:round"
             x="47.424999"
             xlink:href="#m5ee529912b"
             y="108.1853"
             id="use196"
             width="100%"
             height="100%" />
        </g>
      </g>
      <g
         id="text_8"
         style="stroke-linecap:butt;stroke-linejoin:round">
        <!-- 30 -->
        <g
           transform="matrix(0.1,0,0,-0.1,27.7,111.98451)"
           id="g208"
           style="stroke-linecap:butt;stroke-linejoin:round">
          <defs
             id="defs202">
            <path
               d="m 2597,2516 q 453,-97 707,-404 255,-306 255,-756 0,-690 -475,-1069 -475,-378 -1350,-378 -293,0 -604,58 -311,58 -642,174 v 609 q 262,-153 574,-231 313,-78 654,-78 593,0 904,234 311,234 311,681 0,413 -289,645 -289,233 -804,233 h -544 v 519 h 569 q 465,0 712,186 247,186 247,536 0,359 -255,551 -254,193 -729,193 -260,0 -557,-57 -297,-56 -653,-174 v 562 q 360,100 674,150 314,50 592,50 719,0 1137,-327 419,-326 419,-882 0,-388 -222,-655 -222,-267 -631,-370 z"
               id="DejaVuSans-33"
               transform="scale(0.015625)"
               inkscape:connector-curvature="0"
               style="stroke-linecap:butt;stroke-linejoin:round" />
          </defs>
          <use
             xlink:href="#DejaVuSans-33"
             id="use204"
             style="stroke-linecap:butt;stroke-linejoin:round"
             x="0"
             y="0"
             width="100%"
             height="100%" />
          <use
             x="63.623047"
             xlink:href="#DejaVuSans-30"
             id="use206"
             style="stroke-linecap:butt;stroke-linejoin:round"
             y="0"
             width="100%"
             height="100%" />
        </g>
      </g>
    </g>
    <g
       id="ytick_5"
       style="stroke-linecap:butt;stroke-linejoin:round">
      <g
         id="line2d_9"
         style="stroke-linecap:butt;stroke-linejoin:round">
        <g
           id="g214"
           style="stroke-linecap:butt;stroke-linejoin:round">
          <use
             style="stroke:#000000;stroke-width:0.80000001;stroke-linecap:butt;stroke-linejoin:round"
             x="47.424999"
             xlink:href="#m5ee529912b"
             y="80.597061"
             id="use212"
             width="100%"
             height="100%" />
        </g>
      </g>
      <g
         id="text_9"
         style="stroke-linecap:butt;stroke-linejoin:round">
        <!-- 40 -->
        <g
           transform="matrix(0.1,0,0,-0.1,27.7,84.396278)"
           id="g224"
           style="stroke-linecap:butt;stroke-linejoin:round">
          <defs
             id="defs218">
            <path
               d="M 2419,4116 825,1625 h 1594 z m -166,550 h 794 V 1625 h 666 V 1100 H 3047 V 0 H 2419 V 1100 H 313 v 609 z"
               id="DejaVuSans-34"
               transform="scale(0.015625)"
               inkscape:connector-curvature="0"
               style="stroke-linecap:butt;stroke-linejoin:round" />
          </defs>
          <use
             xlink:href="#DejaVuSans-34"
             id="use220"
             style="stroke-linecap:butt;stroke-linejoin:round"
             x="0"
             y="0"
             width="100%"
             height="100%" />
          <use
             x="63.623047"
             xlink:href="#DejaVuSans-30"
             id="use222"
             style="stroke-linecap:butt;stroke-linejoin:round"
             y="0"
             width="100%"
             height="100%" />
        </g>
      </g>
    </g>
    <g
       id="ytick_6"
       style="stroke-linecap:butt;stroke-linejoin:round">
      <g
         id="line2d_10"
         style="stroke-linecap:butt;stroke-linejoin:round">
        <g
           id="g230"
           style="stroke-linecap:butt;stroke-linejoin:round">
          <use
             style="stroke:#000000;stroke-width:0.80000001;stroke-linecap:butt;stroke-linejoin:round"
             x="47.424999"
             xlink:href="#m5ee529912b"
             y="53.008823"
             id="use228"
             width="100%"
             height="100%" />
        </g>
      </g>
      <g
         id="text_10"
         style="stroke-linecap:butt;stroke-linejoin:round">
        <!-- 50 -->
        <g
           transform="matrix(0.1,0,0,-0.1,27.7,56.808042)"
           id="g240"
           style="stroke-linecap:butt;stroke-linejoin:round">
          <defs
             id="defs234">
            <path
               d="M 691,4666 H 3169 V 4134 H 1269 V 2991 q 137,47 274,70 138,23 276,23 781,0 1237,-428 457,-428 457,-1159 Q 3513,744 3044,326 2575,-91 1722,-91 1428,-91 1123,-41 819,9 494,109 v 635 q 281,-153 581,-228 300,-75 634,-75 541,0 856,284 316,284 316,772 0,487 -316,771 -315,285 -856,285 -253,0 -505,-56 -251,-56 -513,-175 z"
               id="DejaVuSans-35"
               transform="scale(0.015625)"
               inkscape:connector-curvature="0"
               style="stroke-linecap:butt;stroke-linejoin:round" />
          </defs>
          <use
             xlink:href="#DejaVuSans-35"
             id="use236"
             style="stroke-linecap:butt;stroke-linejoin:round"
             x="0"
             y="0"
             width="100%"
             height="100%" />
          <use
             x="63.623047"
             xlink:href="#DejaVuSans-30"
             id="use238"
             style="stroke-linecap:butt;stroke-linejoin:round"
             y="0"
             width="100%"
             height="100%" />
        </g>
      </g>
    </g>
    <g
       id="text_11"
       style="stroke-linecap:butt;stroke-linejoin:round">
      <!-- Percentage spiking neurons (total) % -->
      <g
         transform="matrix(0,-0.12,-0.12,0,21.204375,219.93406)"
         id="g329"
         style="stroke-linecap:butt;stroke-linejoin:round">
        <defs
           id="defs255">
          <path
             d="M 1259,4147 V 2394 h 794 q 441,0 681,228 241,228 241,650 0,419 -241,647 -240,228 -681,228 z m -631,519 h 1425 q 785,0 1186,-355 402,-355 402,-1039 0,-691 -402,-1044 -401,-353 -1186,-353 H 1259 V 0 H 628 Z"
             id="DejaVuSans-50"
             transform="scale(0.015625)"
             inkscape:connector-curvature="0"
             style="stroke-linecap:butt;stroke-linejoin:round" />
          <path
             d="M 3597,1894 V 1613 H 953 q 38,-594 358,-905 320,-311 892,-311 331,0 642,81 311,81 618,244 V 178 Q 3153,47 2828,-22 2503,-91 2169,-91 1331,-91 842,396 353,884 353,1716 q 0,859 464,1363 464,505 1252,505 706,0 1117,-455 411,-454 411,-1235 z m -575,169 q -6,471 -264,752 -258,282 -683,282 -481,0 -770,-272 -289,-272 -333,-766 z"
             id="DejaVuSans-65"
             transform="scale(0.015625)"
             inkscape:connector-curvature="0"
             style="stroke-linecap:butt;stroke-linejoin:round" />
          <path
             d="m 3122,3366 v -538 q -244,135 -489,202 -245,67 -495,67 -560,0 -870,-355 -309,-354 -309,-995 0,-641 309,-996 310,-354 870,-354 250,0 495,67 245,67 489,202 V 134 Q 2881,22 2623,-34 2366,-91 2075,-91 1284,-91 818,406 353,903 353,1747 q 0,856 470,1346 471,491 1290,491 265,0 518,-55 253,-54 491,-163 z"
             id="DejaVuSans-63"
             transform="scale(0.015625)"
             inkscape:connector-curvature="0"
             style="stroke-linecap:butt;stroke-linejoin:round" />
          <path
             d="m 2194,1759 q -697,0 -966,-159 -269,-159 -269,-544 0,-306 202,-486 202,-179 548,-179 479,0 768,339 289,339 289,901 v 128 z m 1147,238 V 0 H 2766 V 531 Q 2569,213 2275,61 1981,-91 1556,-91 q -537,0 -855,302 -317,302 -317,808 0,590 395,890 396,300 1180,300 h 807 v 57 q 0,397 -261,614 -261,217 -733,217 -300,0 -585,-72 -284,-72 -546,-216 v 532 q 315,122 612,182 297,61 578,61 760,0 1135,-394 375,-393 375,-1193 z"
             id="DejaVuSans-61"
             transform="scale(0.015625)"
             inkscape:connector-curvature="0"
             style="stroke-linecap:butt;stroke-linejoin:round" />
          <path
             d="m 2906,1791 q 0,625 -258,968 -257,344 -723,344 -462,0 -720,-344 -258,-343 -258,-968 0,-622 258,-966 258,-344 720,-344 466,0 723,344 258,344 258,966 z M 3481,434 q 0,-893 -397,-1329 -396,-436 -1215,-436 -303,0 -572,45 -269,45 -522,139 v 559 q 253,-137 500,-202 247,-66 503,-66 566,0 847,295 281,295 281,892 V 616 Q 2728,306 2450,153 2172,0 1784,0 1141,0 747,490 353,981 353,1791 q 0,812 394,1302 394,491 1037,491 388,0 666,-153 278,-153 456,-462 v 531 h 575 z"
             id="DejaVuSans-67"
             transform="scale(0.015625)"
             inkscape:connector-curvature="0"
             style="stroke-linecap:butt;stroke-linejoin:round" />
          <path
             d="M 1159,525 V -1331 H 581 v 4831 h 578 v -531 q 182,312 458,463 277,152 661,152 638,0 1036,-506 399,-506 399,-1331 0,-825 -399,-1332 -398,-506 -1036,-506 -384,0 -661,152 -276,152 -458,464 z m 1957,1222 q 0,634 -261,995 -261,361 -717,361 -457,0 -718,-361 -261,-361 -261,-995 0,-634 261,-995 261,-361 718,-361 456,0 717,361 261,361 261,995 z"
             id="DejaVuSans-70"
             transform="scale(0.015625)"
             inkscape:connector-curvature="0"
             style="stroke-linecap:butt;stroke-linejoin:round" />
          <path
             d="m 603,3500 h 575 V 0 H 603 Z m 0,1363 h 575 V 4134 H 603 Z"
             id="DejaVuSans-69"
             transform="scale(0.015625)"
             inkscape:connector-curvature="0"
             style="stroke-linecap:butt;stroke-linejoin:round" />
          <path
             d="m 581,4863 h 578 V 1991 l 1716,1509 h 734 L 1753,1863 3688,0 H 2938 L 1159,1709 V 0 H 581 Z"
             id="DejaVuSans-6b"
             transform="scale(0.015625)"
             inkscape:connector-curvature="0"
             style="stroke-linecap:butt;stroke-linejoin:round" />
          <path
             d="m 1984,4856 q -418,-718 -622,-1422 -203,-703 -203,-1425 0,-721 205,-1429 205,-708 620,-1424 h -500 q -468,735 -701,1444 -233,709 -233,1409 0,697 231,1403 232,707 703,1444 z"
             id="DejaVuSans-28"
             transform="scale(0.015625)"
             inkscape:connector-curvature="0"
             style="stroke-linecap:butt;stroke-linejoin:round" />
          <path
             d="m 513,4856 h 500 q 468,-737 701,-1444 233,-706 233,-1403 0,-700 -233,-1409 -233,-709 -701,-1444 H 513 q 415,716 620,1424 205,708 205,1429 0,722 -205,1425 -205,704 -620,1422 z"
             id="DejaVuSans-29"
             transform="scale(0.015625)"
             inkscape:connector-curvature="0"
             style="stroke-linecap:butt;stroke-linejoin:round" />
          <path
             d="m 4653,2053 q -272,0 -427,-231 -154,-231 -154,-644 0,-406 154,-639 155,-233 427,-233 266,0 420,233 155,233 155,639 0,410 -155,642 -154,233 -420,233 z m 0,397 q 494,0 784,-344 291,-343 291,-928 0,-584 -292,-927 -292,-342 -783,-342 -500,0 -791,342 -290,343 -290,927 0,588 292,930 292,342 789,342 z M 1428,4353 q -269,0 -424,-233 -154,-232 -154,-639 0,-412 153,-644 153,-231 425,-231 272,0 426,231 155,232 155,644 0,403 -156,637 -156,235 -425,235 z m 2822,397 h 500 L 1831,-91 h -500 z m -2822,0 q 494,0 787,-342 294,-342 294,-927 0,-590 -292,-931 -292,-341 -789,-341 -497,0 -786,342 -289,343 -289,930 0,582 290,925 291,344 785,344 z"
             id="DejaVuSans-25"
             transform="scale(0.015625)"
             inkscape:connector-curvature="0"
             style="stroke-linecap:butt;stroke-linejoin:round" />
        </defs>
        <use
           xlink:href="#DejaVuSans-50"
           id="use257"
           style="stroke-linecap:butt;stroke-linejoin:round"
           x="0"
           y="0"
           width="100%"
           height="100%" />
        <use
           x="56.677734"
           xlink:href="#DejaVuSans-65"
           id="use259"
           style="stroke-linecap:butt;stroke-linejoin:round"
           y="0"
           width="100%"
           height="100%" />
        <use
           x="118.20117"
           xlink:href="#DejaVuSans-72"
           id="use261"
           style="stroke-linecap:butt;stroke-linejoin:round"
           y="0"
           width="100%"
           height="100%" />
        <use
           x="157.06445"
           xlink:href="#DejaVuSans-63"
           id="use263"
           style="stroke-linecap:butt;stroke-linejoin:round"
           y="0"
           width="100%"
           height="100%" />
        <use
           x="212.04492"
           xlink:href="#DejaVuSans-65"
           id="use265"
           style="stroke-linecap:butt;stroke-linejoin:round"
           y="0"
           width="100%"
           height="100%" />
        <use
           x="273.56836"
           xlink:href="#DejaVuSans-6e"
           id="use267"
           style="stroke-linecap:butt;stroke-linejoin:round"
           y="0"
           width="100%"
           height="100%" />
        <use
           x="336.94727"
           xlink:href="#DejaVuSans-74"
           id="use269"
           style="stroke-linecap:butt;stroke-linejoin:round"
           y="0"
           width="100%"
           height="100%" />
        <use
           x="376.15625"
           xlink:href="#DejaVuSans-61"
           id="use271"
           style="stroke-linecap:butt;stroke-linejoin:round"
           y="0"
           width="100%"
           height="100%" />
        <use
           x="437.43555"
           xlink:href="#DejaVuSans-67"
           id="use273"
           style="stroke-linecap:butt;stroke-linejoin:round"
           y="0"
           width="100%"
           height="100%" />
        <use
           x="500.91211"
           xlink:href="#DejaVuSans-65"
           id="use275"
           style="stroke-linecap:butt;stroke-linejoin:round"
           y="0"
           width="100%"
           height="100%" />
        <use
           x="562.43555"
           xlink:href="#DejaVuSans-20"
           id="use277"
           style="stroke-linecap:butt;stroke-linejoin:round"
           y="0"
           width="100%"
           height="100%" />
        <use
           x="594.22266"
           xlink:href="#DejaVuSans-73"
           id="use279"
           style="stroke-linecap:butt;stroke-linejoin:round"
           y="0"
           width="100%"
           height="100%" />
        <use
           x="646.32227"
           xlink:href="#DejaVuSans-70"
           id="use281"
           style="stroke-linecap:butt;stroke-linejoin:round"
           y="0"
           width="100%"
           height="100%" />
        <use
           x="709.79883"
           xlink:href="#DejaVuSans-69"
           id="use283"
           style="stroke-linecap:butt;stroke-linejoin:round"
           y="0"
           width="100%"
           height="100%" />
        <use
           x="737.58203"
           xlink:href="#DejaVuSans-6b"
           id="use285"
           style="stroke-linecap:butt;stroke-linejoin:round"
           y="0"
           width="100%"
           height="100%" />
        <use
           x="795.49219"
           xlink:href="#DejaVuSans-69"
           id="use287"
           style="stroke-linecap:butt;stroke-linejoin:round"
           y="0"
           width="100%"
           height="100%" />
        <use
           x="823.27539"
           xlink:href="#DejaVuSans-6e"
           id="use289"
           style="stroke-linecap:butt;stroke-linejoin:round"
           y="0"
           width="100%"
           height="100%" />
        <use
           x="886.6543"
           xlink:href="#DejaVuSans-67"
           id="use291"
           style="stroke-linecap:butt;stroke-linejoin:round"
           y="0"
           width="100%"
           height="100%" />
        <use
           x="950.13086"
           xlink:href="#DejaVuSans-20"
           id="use293"
           style="stroke-linecap:butt;stroke-linejoin:round"
           y="0"
           width="100%"
           height="100%" />
        <use
           x="981.91797"
           xlink:href="#DejaVuSans-6e"
           id="use295"
           style="stroke-linecap:butt;stroke-linejoin:round"
           y="0"
           width="100%"
           height="100%" />
        <use
           x="1045.2969"
           xlink:href="#DejaVuSans-65"
           id="use297"
           style="stroke-linecap:butt;stroke-linejoin:round"
           y="0"
           width="100%"
           height="100%" />
        <use
           x="1106.8203"
           xlink:href="#DejaVuSans-75"
           id="use299"
           style="stroke-linecap:butt;stroke-linejoin:round"
           y="0"
           width="100%"
           height="100%" />
        <use
           x="1170.1992"
           xlink:href="#DejaVuSans-72"
           id="use301"
           style="stroke-linecap:butt;stroke-linejoin:round"
           y="0"
           width="100%"
           height="100%" />
        <use
           x="1209.0625"
           xlink:href="#DejaVuSans-6f"
           id="use303"
           style="stroke-linecap:butt;stroke-linejoin:round"
           y="0"
           width="100%"
           height="100%" />
        <use
           x="1270.2441"
           xlink:href="#DejaVuSans-6e"
           id="use305"
           style="stroke-linecap:butt;stroke-linejoin:round"
           y="0"
           width="100%"
           height="100%" />
        <use
           x="1333.623"
           xlink:href="#DejaVuSans-73"
           id="use307"
           style="stroke-linecap:butt;stroke-linejoin:round"
           y="0"
           width="100%"
           height="100%" />
        <use
           x="1385.7227"
           xlink:href="#DejaVuSans-20"
           id="use309"
           style="stroke-linecap:butt;stroke-linejoin:round"
           y="0"
           width="100%"
           height="100%" />
        <use
           x="1417.5098"
           xlink:href="#DejaVuSans-28"
           id="use311"
           style="stroke-linecap:butt;stroke-linejoin:round"
           y="0"
           width="100%"
           height="100%" />
        <use
           x="1456.5234"
           xlink:href="#DejaVuSans-74"
           id="use313"
           style="stroke-linecap:butt;stroke-linejoin:round"
           y="0"
           width="100%"
           height="100%" />
        <use
           x="1495.7324"
           xlink:href="#DejaVuSans-6f"
           id="use315"
           style="stroke-linecap:butt;stroke-linejoin:round"
           y="0"
           width="100%"
           height="100%" />
        <use
           x="1556.9141"
           xlink:href="#DejaVuSans-74"
           id="use317"
           style="stroke-linecap:butt;stroke-linejoin:round"
           y="0"
           width="100%"
           height="100%" />
        <use
           x="1596.123"
           xlink:href="#DejaVuSans-61"
           id="use319"
           style="stroke-linecap:butt;stroke-linejoin:round"
           y="0"
           width="100%"
           height="100%" />
        <use
           x="1657.4023"
           xlink:href="#DejaVuSans-6c"
           id="use321"
           style="stroke-linecap:butt;stroke-linejoin:round"
           y="0"
           width="100%"
           height="100%" />
        <use
           x="1685.1855"
           xlink:href="#DejaVuSans-29"
           id="use323"
           style="stroke-linecap:butt;stroke-linejoin:round"
           y="0"
           width="100%"
           height="100%" />
        <use
           x="1724.1992"
           xlink:href="#DejaVuSans-20"
           id="use325"
           style="stroke-linecap:butt;stroke-linejoin:round"
           y="0"
           width="100%"
           height="100%" />
        <use
           x="1755.9863"
           xlink:href="#DejaVuSans-25"
           id="use327"
           style="stroke-linecap:butt;stroke-linejoin:round"
           y="0"
           width="100%"
           height="100%" />
      </g>
    </g>
  </g>
  <g
     id="patch_7"
     style="stroke-linecap:butt;stroke-linejoin:round">
    <path
       d="M 47.425,190.95 V 26.8"
       style="fill:none;stroke:#000000;stroke-width:0.80000001;stroke-linecap:square;stroke-linejoin:miter"
       id="path333"
       inkscape:connector-curvature="0" />
  </g>
  <g
     id="patch_8"
     style="stroke-linecap:butt;stroke-linejoin:round">
    <path
       d="M 47.425,190.95 H 277.2"
       style="fill:none;stroke:#000000;stroke-width:0.80000001;stroke-linecap:square;stroke-linejoin:miter"
       id="path336"
       inkscape:connector-curvature="0" />
  </g>
  <defs
     id="defs373">
    <clipPath
       id="pc5b64066c0">
      <rect
         height="164.15"
         width="229.775"
         x="47.425"
         y="26.8"
         id="rect370" />
    </clipPath>
  </defs>
</svg>
